<?xml version="1.0" encoding="UTF-8" standalone="no"?><svg xmlns="http://www.w3.org/2000/svg" height="279.4mm" viewBox="0 0 1328.6153846153845 1719.3846153846152" width="215.9mm"><g transform="translate(93.84615384615385)"><g><g><line stroke="#6A6A6A" stroke-width="1.3" x1="0" x2="575.7797249990209" y1="183.8461538461538" y2="183.8461538461538"></line><line stroke="#6A6A6A" stroke-width="1.3" x1="0" x2="575.7797249990209" y1="173.8461538461538" y2="173.8461538461538"></line><line stroke="#6A6A6A" stroke-width="1.3" x1="0" x2="575.7797249990209" y1="163.8461538461538" y2="163.8461538461538"></line><line stroke="#6A6A6A" stroke-width="1.3" x1="0" x2="575.7797249990209" y1="153.8461538461538" y2="153.8461538461538"></line><line stroke="#6A6A6A" stroke-width="1.3" x1="0" x2="575.7797249990209" y1="143.8461538461538" y2="143.8461538461538"></line></g><g><path d="M25.200 129.926C24.640 129.926 23.400 130.966 22.600 131.846C19.640 135.126 18.680 140.126 18.680 144.286C18.680 146.606 18.960 149.206 19.240 150.846C19.320 151.326 19.360 151.406 18.880 151.806C16.320 153.926 13.560 156.366 11.480 158.926C8.720 162.366 7 166.086 7 170.366C7 177.326 11.760 183.926 21.560 183.926C22.480 183.926 23.520 183.846 24.320 183.686C24.760 183.606 24.840 183.566 24.920 184.046C25.400 186.726 26 190.206 26 192.086C26 198.006 22 198.726 19.640 198.726C17.480 198.726 16.440 198.086 16.440 197.566C16.440 197.126 16.800 197.166 17.720 196.886C18.960 196.526 20.400 195.446 20.400 193.126C20.400 190.926 19 189.046 16.560 189.046C13.880 189.046 12.280 191.166 12.280 193.646C12.280 196.246 13.840 200.166 19.880 200.166C22.560 200.166 27.760 198.966 27.760 192.166C27.760 189.886 27.040 186.086 26.600 183.606C26.520 183.126 26.560 183.166 27.120 182.926C31.160 181.326 33.840 177.926 33.840 173.406C33.840 168.286 30.080 163.766 24.200 163.766C23.080 163.766 23.200 163.966 23.040 163.046L22.040 157.246C21.960 156.766 22.040 156.726 22.280 156.486C22.920 155.886 23.760 155.046 24.520 154.206C27.880 150.526 29.880 145.766 29.880 141.246C29.880 137.766 28.920 134.326 27.280 131.926C26.680 131.046 25.640 129.926 25.200 129.926ZM20.040 158.086C20.440 157.766 20.520 157.806 20.600 158.246L21.440 163.366C21.560 164.126 21.560 164.086 20.840 164.326C17.320 165.526 15.040 168.686 15.040 172.086C15.040 175.686 16.920 178.246 19.640 179.166C19.960 179.286 20.440 179.406 20.720 179.406C21.040 179.406 21.200 179.206 21.200 178.966C21.200 178.686 20.880 178.566 20.600 178.446C18.920 177.726 17.720 176.006 17.720 174.166C17.720 171.886 19.280 170.166 21.720 169.486C22.360 169.326 22.440 169.366 22.520 169.806L24.520 181.726C24.600 182.166 24.560 182.166 23.960 182.286C23.320 182.406 22.520 182.486 21.720 182.486C14.720 182.486 10.200 178.606 10.200 173.046C10.200 170.686 10.600 167.526 13.920 163.766C16.320 161.086 18.160 159.606 20.040 158.086ZM24.640 169.166C27.880 169.446 30.560 172.166 30.560 175.686C30.560 178.206 29.040 180.246 26.800 181.366C26.320 181.606 26.240 181.606 26.160 181.126L24.200 169.726C24.120 169.246 24.160 169.126 24.640 169.166ZM25.800 136.126C27.120 136.126 28.200 137.206 28.200 139.406C28.200 142.166 26.880 144.726 23.760 147.846C23.120 148.486 22.160 149.406 21.240 150.206C20.960 150.446 20.800 150.406 20.720 149.886C20.560 148.846 20.480 147.486 20.480 146.206C20.480 139.966 23.360 136.126 25.800 136.126Z"></path></g><g></g><g><g><path d="M65.180 156.806L62.260 156.806L62.260 148.246C62.260 147.926 62.220 147.566 61.780 147.566C61.420 147.566 61.220 147.646 60.980 147.926L57.180 152.526C57.020 152.726 56.820 152.966 56.820 153.446C56.820 153.446 56.820 155.046 56.820 156.806L51.420 156.806C54.620 154.086 61.020 145.006 61.140 144.566C61.140 144.486 61.180 144.446 61.180 144.366C61.180 144.046 60.900 143.806 60.580 143.806C60.220 143.806 58.580 143.886 57.860 143.886C57.140 143.886 55.340 143.806 55.020 143.806C54.660 143.806 54.100 143.926 54.100 144.566C54.100 149.526 50.180 155.086 48.980 156.766L48.740 157.086C48.740 157.126 48.700 157.166 48.700 157.206C48.620 157.366 48.580 157.526 48.580 157.646C48.580 158.046 48.900 158.326 49.380 158.326L56.820 158.326L56.820 160.846C56.820 161.926 55.940 162.246 55.220 162.246C54.580 162.246 54.300 162.606 54.300 163.006C54.300 163.406 54.460 163.846 55.060 163.846C55.700 163.846 63.580 163.846 63.580 163.846C63.980 163.846 64.380 163.566 64.380 163.006C64.380 162.446 63.900 162.206 63.500 162.206C63.100 162.206 62.260 161.966 62.260 160.686L62.260 158.326C63.980 158.326 65.180 158.326 65.180 158.326C65.580 158.326 65.780 158.046 65.780 157.566C65.780 157.086 65.620 156.806 65.180 156.806Z"></path></g><g><path d="M65.180 176.806L62.260 176.806L62.260 168.246C62.260 167.926 62.220 167.566 61.780 167.566C61.420 167.566 61.220 167.646 60.980 167.926L57.180 172.526C57.020 172.726 56.820 172.966 56.820 173.446C56.820 173.446 56.820 175.046 56.820 176.806L51.420 176.806C54.620 174.086 61.020 165.006 61.140 164.566C61.140 164.486 61.180 164.446 61.180 164.366C61.180 164.046 60.900 163.806 60.580 163.806C60.220 163.806 58.580 163.886 57.860 163.886C57.140 163.886 55.340 163.806 55.020 163.806C54.660 163.806 54.100 163.926 54.100 164.566C54.100 169.526 50.180 175.086 48.980 176.766L48.740 177.086C48.740 177.126 48.700 177.166 48.700 177.206C48.620 177.366 48.580 177.526 48.580 177.646C48.580 178.046 48.900 178.326 49.380 178.326L56.820 178.326L56.820 180.846C56.820 181.926 55.940 182.246 55.220 182.246C54.580 182.246 54.300 182.606 54.300 183.006C54.300 183.406 54.460 183.846 55.060 183.846C55.700 183.846 63.580 183.846 63.580 183.846C63.980 183.846 64.380 183.566 64.380 183.006C64.380 182.446 63.900 182.206 63.500 182.206C63.100 182.206 62.260 181.966 62.260 180.686L62.260 178.326C63.980 178.326 65.180 178.326 65.180 178.326C65.580 178.326 65.780 178.046 65.780 177.566C65.780 177.086 65.620 176.806 65.180 176.806Z"></path></g></g></g><text x="89" y="103.84615384615381"><tspan alignment-baseline="hanging" fill="#000000" direction="ltr" dx="0" dy="0" font-style="normal" font-weight="normal" font-family="Alegreya" font-size="26.05128205128205" letter-spacing="normal" text-decoration="none" text-anchor="start">Normal, Medium</tspan></text><text x="122.77912473383324" y="223.8461538461538"><tspan alignment-baseline="hanging" fill="#000000" direction="ltr" dx="0" dy="0" font-style="normal" font-weight="bold" font-family="Alegreya" font-size="26.05128205128205" letter-spacing="normal" text-decoration="none" text-anchor="start">Bold, Medium</tspan></text><g><line stroke="black" stroke-width="1.6" x1="123.57912473383324" x2="123.57912473383324" y1="143.8461538461538" y2="183.8461538461538"></line></g><g><g><path d="M93.360 184.486C97.360 184.486 102.280 180.766 102.280 176.966C102.280 174.686 100.480 173.206 97.880 173.206C92.960 173.206 89 176.846 89 180.726C89 183.086 90.920 184.486 93.360 184.486Z"></path></g><line stroke="#000000" stroke-width="1.2" x1="101.68" x2="101.68" y1="177.0061538461538" y2="139.0061538461538"></line><path d="M110.600 165.086C110.600 165.086 111.640 161.286 111.640 158.166C111.640 153.166 109.560 148.446 107.040 144.446C105 141.286 103.320 137.846 102.680 134.006C102.560 133.366 102.240 133.126 101.480 133.126C101.240 133.126 101.080 133.246 101.080 133.726L101.080 143.286C103.720 143.766 107.520 149.206 108.960 152.606C109.560 153.966 109.920 156.246 109.920 158.606C109.920 160.406 109.640 162.286 108.960 164.086C108.880 164.326 108.840 164.526 108.840 164.686C108.840 165.326 109.240 165.686 109.480 165.846C109.720 166.006 110.400 165.766 110.600 165.086Z"></path></g></g><g transform="translate(233.22527857998708)"><g></g><text x="0" y="103.84615384615381"><tspan alignment-baseline="hanging" fill="#000000" direction="ltr" dx="0" dy="0" font-style="normal" font-weight="normal" font-family="Alegreya" font-size="29.30769230769231" letter-spacing="normal" text-decoration="none" text-anchor="start">Normal, Large</tspan></text><text x="204.60030013259387" y="223.8461538461538"><tspan alignment-baseline="hanging" fill="#000000" direction="ltr" dx="0" dy="0" font-style="normal" font-weight="bold" font-family="Alegreya" font-size="29.30769230769231" letter-spacing="normal" text-decoration="none" text-anchor="start">Bold, Large</tspan></text><g><line stroke="black" stroke-width="1.6" x1="205.40030013259388" x2="205.40030013259388" y1="143.8461538461538" y2="183.8461538461538"></line></g><g><g><path d="M9.400 168.366C3.600 168.366 0 170.806 0 173.766C0 176.686 2.480 179.286 8.960 179.286C16.080 179.286 18.360 176.806 18.360 173.766C18.360 170.686 13.440 168.366 9.400 168.366ZM4.840 171.086C5.320 169.606 6.920 169.366 8.280 169.366C11.240 169.366 13.640 172.566 13.640 175.206C13.640 175.486 13.600 175.766 13.560 176.006C13.360 177.086 12.720 177.846 11.640 178.126C11.200 178.246 10.760 178.286 10.320 178.286C9.920 178.286 9.560 178.246 9.160 178.126C8.440 177.886 7.720 177.486 7.120 176.966C6.800 176.686 6.480 176.366 6.200 176.006C5.360 175.006 4.680 173.526 4.680 172.166C4.680 171.806 4.720 171.446 4.840 171.086Z"></path></g></g></g><g transform="translate(454.42557871258094)"><g></g><text x="0" y="103.84615384615381"><tspan alignment-baseline="hanging" fill="#000000" direction="ltr" dx="0" dy="0" font-style="normal" font-weight="normal" font-family="Alegreya" font-size="21.166666666666668" letter-spacing="normal" text-decoration="none" text-anchor="start">Normal, Small</tspan></text><text x="204.60030013259387" y="223.8461538461538"><tspan alignment-baseline="hanging" fill="#000000" direction="ltr" dx="0" dy="0" font-style="normal" font-weight="bold" font-family="Alegreya" font-size="21.166666666666668" letter-spacing="normal" text-decoration="none" text-anchor="start">Bold, Small</tspan></text><text x="204.60030013259387" y="223.8461538461538"><tspan alignment-baseline="hanging" fill="#FF8000" direction="ltr" dx="0" dy="0" font-style="normal" font-weight="normal" font-family="Alegreya" font-size="21.166666666666668" letter-spacing="normal" text-decoration="none" text-anchor="start">Normal, Small, Colored, Below</tspan></text><g><line stroke="black" stroke-width="1.6" x1="205.40030013259388" x2="205.40030013259388" y1="143.8461538461538" y2="183.8461538461538"></line><line stroke="black" stroke-width="5" x1="212.70030013259387" x2="212.70030013259387" y1="143.8461538461538" y2="183.8461538461538"></line></g><g><g><path d="M9.400 173.366C3.600 173.366 0 175.806 0 178.766C0 181.686 2.480 184.286 8.960 184.286C16.080 184.286 18.360 181.806 18.360 178.766C18.360 175.686 13.440 173.366 9.400 173.366ZM4.840 176.086C5.320 174.606 6.920 174.366 8.280 174.366C11.240 174.366 13.640 177.566 13.640 180.206C13.640 180.486 13.600 180.766 13.560 181.006C13.360 182.086 12.720 182.846 11.640 183.126C11.200 183.246 10.760 183.286 10.320 183.286C9.920 183.286 9.560 183.246 9.160 183.126C8.440 182.886 7.720 182.486 7.120 181.966C6.800 181.686 6.480 181.366 6.200 181.006C5.360 180.006 4.680 178.526 4.680 177.166C4.680 176.806 4.720 176.446 4.840 176.086Z"></path></g></g></g></svg>