<?xml version="1.0" encoding="UTF-8" standalone="no"?><svg xmlns="http://www.w3.org/2000/svg" height="279.4mm" viewBox="0 0 1328.6153846153845 1719.3846153846152" width="215.9mm"><g transform="translate(93.84615384615385)"><g><g><line stroke="#6A6A6A" stroke-width="1.3" x1="0" x2="460.9076923076923" y1="183.8461538461538" y2="183.8461538461538"></line><line stroke="#6A6A6A" stroke-width="1.3" x1="0" x2="460.9076923076923" y1="173.8461538461538" y2="173.8461538461538"></line><line stroke="#6A6A6A" stroke-width="1.3" x1="0" x2="460.9076923076923" y1="163.8461538461538" y2="163.8461538461538"></line><line stroke="#6A6A6A" stroke-width="1.3" x1="0" x2="460.9076923076923" y1="153.8461538461538" y2="153.8461538461538"></line><line stroke="#6A6A6A" stroke-width="1.3" x1="0" x2="460.9076923076923" y1="143.8461538461538" y2="143.8461538461538"></line></g><g><path d="M25.200 129.926C24.640 129.926 23.400 130.966 22.600 131.846C19.640 135.126 18.680 140.126 18.680 144.286C18.680 146.606 18.960 149.206 19.240 150.846C19.320 151.326 19.360 151.406 18.880 151.806C16.320 153.926 13.560 156.366 11.480 158.926C8.720 162.366 7 166.086 7 170.366C7 177.326 11.760 183.926 21.560 183.926C22.480 183.926 23.520 183.846 24.320 183.686C24.760 183.606 24.840 183.566 24.920 184.046C25.400 186.726 26 190.206 26 192.086C26 198.006 22 198.726 19.640 198.726C17.480 198.726 16.440 198.086 16.440 197.566C16.440 197.126 16.800 197.166 17.720 196.886C18.960 196.526 20.400 195.446 20.400 193.126C20.400 190.926 19 189.046 16.560 189.046C13.880 189.046 12.280 191.166 12.280 193.646C12.280 196.246 13.840 200.166 19.880 200.166C22.560 200.166 27.760 198.966 27.760 192.166C27.760 189.886 27.040 186.086 26.600 183.606C26.520 183.126 26.560 183.166 27.120 182.926C31.160 181.326 33.840 177.926 33.840 173.406C33.840 168.286 30.080 163.766 24.200 163.766C23.080 163.766 23.200 163.966 23.040 163.046L22.040 157.246C21.960 156.766 22.040 156.726 22.280 156.486C22.920 155.886 23.760 155.046 24.520 154.206C27.880 150.526 29.880 145.766 29.880 141.246C29.880 137.766 28.920 134.326 27.280 131.926C26.680 131.046 25.640 129.926 25.200 129.926ZM20.040 158.086C20.440 157.766 20.520 157.806 20.600 158.246L21.440 163.366C21.560 164.126 21.560 164.086 20.840 164.326C17.320 165.526 15.040 168.686 15.040 172.086C15.040 175.686 16.920 178.246 19.640 179.166C19.960 179.286 20.440 179.406 20.720 179.406C21.040 179.406 21.200 179.206 21.200 178.966C21.200 178.686 20.880 178.566 20.600 178.446C18.920 177.726 17.720 176.006 17.720 174.166C17.720 171.886 19.280 170.166 21.720 169.486C22.360 169.326 22.440 169.366 22.520 169.806L24.520 181.726C24.600 182.166 24.560 182.166 23.960 182.286C23.320 182.406 22.520 182.486 21.720 182.486C14.720 182.486 10.200 178.606 10.200 173.046C10.200 170.686 10.600 167.526 13.920 163.766C16.320 161.086 18.160 159.606 20.040 158.086ZM24.640 169.166C27.880 169.446 30.560 172.166 30.560 175.686C30.560 178.206 29.040 180.246 26.800 181.366C26.320 181.606 26.240 181.606 26.160 181.126L24.200 169.726C24.120 169.246 24.160 169.126 24.640 169.166ZM25.800 136.126C27.120 136.126 28.200 137.206 28.200 139.406C28.200 142.166 26.880 144.726 23.760 147.846C23.120 148.486 22.160 149.406 21.240 150.206C20.960 150.446 20.800 150.406 20.720 149.886C20.560 148.846 20.480 147.486 20.480 146.206C20.480 139.966 23.360 136.126 25.800 136.126Z"></path></g><g></g><path d="M57.820 153.806C56.620 153.806 55.220 154.126 54.140 154.606C50.580 156.166 48.700 160.446 48.700 164.246C48.700 164.606 48.700 164.966 48.740 165.326C48.940 167.486 49.980 169.526 51.300 171.126C52.820 172.966 55.020 173.806 57.420 173.806C64.420 173.806 65.460 167.446 65.460 166.286C65.460 165.406 65.020 165.406 64.860 165.406C64.540 165.406 64.260 165.446 64.260 166.126C64.260 171.286 59.860 172.486 58.580 172.486C55.340 172.486 53.620 169.326 53.620 162.726C53.620 156.126 56.660 154.766 58.820 154.766C60.900 154.766 61.740 155.726 61.740 156.126C61.740 156.486 61.620 157.006 61.020 157.006C59.420 157.006 58.500 158.726 58.500 159.966C58.500 162.246 60.460 162.966 61.580 162.966C61.580 162.966 64.620 162.846 64.620 159.526C64.620 154.286 58.580 153.806 57.820 153.806Z"></path><g><path d="M-13.200 264.426C-12.040 263.706-10.720 260.866-10.720 258.506C-10.720 258.306-10.720 258.066-10.760 257.866C-11.040 255.466-12.240 251.746-12.240 249.586C-12.240 247.506-11.320 245.506-11.120 245.146C-10.960 244.986-10.920 244.866-10.920 244.746C-10.920 244.666-10.960 244.586-11 244.586C-11.040 244.546-11.080 244.466-11.160 244.466C-11.240 244.466-11.320 244.546-11.480 244.746C-12.360 245.826-13.440 248.146-13.440 252.146C-13.440 256.106-12.040 257.706-12.040 260.226C-12.040 262.106-12.800 263.146-13.920 264.426C-13.200 265.226-12.040 265.866-12.040 268.466C-12.040 271.266-13.440 273.746-13.440 276.666C-13.440 280.666-12.360 282.986-11.480 284.106C-11.320 284.306-11.240 284.346-11.160 284.346C-11.080 284.346-11.040 284.306-11 284.266C-10.960 284.226-10.920 284.186-10.920 284.106C-10.920 283.986-10.960 283.866-11.120 283.666C-11.320 283.346-12.240 281.346-12.240 279.226C-12.240 277.106-11.040 273.346-10.760 270.986C-10.720 270.786-10.720 270.586-10.720 270.346C-10.720 267.986-12.040 265.146-13.200 264.426Z"></path><line stroke="#000000" stroke-width="1.6" x1="0" x2="0" y1="143.3461538461538" y2="284.3461538461538"></line></g></g><g><line stroke="black" stroke-width="1.6" x1="451.10769230769233" x2="451.10769230769233" y1="143.3461538461538" y2="284.3461538461538"></line><line stroke="black" stroke-width="5" x1="458.40769230769234" x2="458.40769230769234" y1="143.3461538461538" y2="284.3461538461538"></line></g><g><g><line stroke="#6A6A6A" stroke-width="1.3" x1="0" x2="460.9076923076923" y1="283.8461538461538" y2="283.8461538461538"></line><line stroke="#6A6A6A" stroke-width="1.3" x1="0" x2="460.9076923076923" y1="273.8461538461538" y2="273.8461538461538"></line><line stroke="#6A6A6A" stroke-width="1.3" x1="0" x2="460.9076923076923" y1="263.8461538461538" y2="263.8461538461538"></line><line stroke="#6A6A6A" stroke-width="1.3" x1="0" x2="460.9076923076923" y1="253.8461538461538" y2="253.8461538461538"></line><line stroke="#6A6A6A" stroke-width="1.3" x1="0" x2="460.9076923076923" y1="243.8461538461538" y2="243.8461538461538"></line></g><g><path d="M17.080 243.366C10.120 243.366 7 248.446 7 252.286C7 255.486 8.680 258.246 11.920 258.246C14.440 258.246 16.160 256.486 16.160 254.006C16.160 251.446 14.280 249.846 12.320 249.846C11.240 249.846 10.840 250.126 10.320 250.126C9.800 250.126 9.680 249.806 9.680 249.406C9.680 247.806 12.080 244.886 16.160 244.886C20.400 244.886 22.240 249.046 22.240 255.326C22.240 259.446 21.360 264.246 18.880 268.086C16.480 271.806 12.360 275.206 7.400 278.046C7.040 278.246 6.800 278.446 6.800 278.766C6.800 279.006 6.960 279.246 7.320 279.246C7.520 279.246 7.760 279.166 8 279.046C13.320 276.446 18.440 273.406 22.680 268.846C26.160 265.086 28.240 260.206 28.240 254.966C28.240 248.006 24 243.366 17.080 243.366ZM32.200 256.686C30.960 256.686 30.040 257.606 30.040 258.846C30.040 260.086 30.960 261.006 32.200 261.006C33.440 261.006 34.360 260.086 34.360 258.846C34.360 257.606 33.440 256.686 32.200 256.686ZM32.160 246.646C30.920 246.646 29.960 247.606 29.960 248.846C29.960 250.086 30.920 251.046 32.160 251.046C33.400 251.046 34.360 250.086 34.360 248.846C34.360 247.606 33.400 246.646 32.160 246.646Z"></path></g><g></g><path d="M57.820 253.806C56.620 253.806 55.220 254.126 54.140 254.606C50.580 256.166 48.700 260.446 48.700 264.246C48.700 264.606 48.700 264.966 48.740 265.326C48.940 267.486 49.980 269.526 51.300 271.126C52.820 272.966 55.020 273.806 57.420 273.806C64.420 273.806 65.460 267.446 65.460 266.286C65.460 265.406 65.020 265.406 64.860 265.406C64.540 265.406 64.260 265.446 64.260 266.126C64.260 271.286 59.860 272.486 58.580 272.486C55.340 272.486 53.620 269.326 53.620 262.726C53.620 256.126 56.660 254.766 58.820 254.766C60.900 254.766 61.740 255.726 61.740 256.126C61.740 256.486 61.620 257.006 61.020 257.006C59.420 257.006 58.500 258.726 58.500 259.966C58.500 262.246 60.460 262.966 61.580 262.966C61.580 262.966 64.620 262.846 64.620 259.526C64.620 254.286 58.580 253.806 57.820 253.806Z"></path></g><g><line stroke="black" stroke-width="1.6" x1="451.10769230769233" x2="451.10769230769233" y1="143.3461538461538" y2="284.3461538461538"></line><line stroke="black" stroke-width="5" x1="458.40769230769234" x2="458.40769230769234" y1="143.3461538461538" y2="284.3461538461538"></line></g><g><g><path d="M98.400 173.366C92.600 173.366 89 175.806 89 178.766C89 181.686 91.480 184.286 97.960 184.286C105.080 184.286 107.360 181.806 107.360 178.766C107.360 175.686 102.440 173.366 98.400 173.366ZM93.840 176.086C94.320 174.606 95.920 174.366 97.280 174.366C100.240 174.366 102.640 177.566 102.640 180.206C102.640 180.486 102.600 180.766 102.560 181.006C102.360 182.086 101.720 182.846 100.640 183.126C100.200 183.246 99.760 183.286 99.320 183.286C98.920 183.286 98.560 183.246 98.160 183.126C97.440 182.886 96.720 182.486 96.120 181.966C95.800 181.686 95.480 181.366 95.200 181.006C94.360 180.006 93.680 178.526 93.680 177.166C93.680 176.806 93.720 176.446 93.840 176.086Z"></path></g></g><g><g><path d="M98.400 268.366C92.600 268.366 89 270.806 89 273.766C89 276.686 91.480 279.286 97.960 279.286C105.080 279.286 107.360 276.806 107.360 273.766C107.360 270.686 102.440 268.366 98.400 268.366ZM93.840 271.086C94.320 269.606 95.920 269.366 97.280 269.366C100.240 269.366 102.640 272.566 102.640 275.206C102.640 275.486 102.600 275.766 102.560 276.006C102.360 277.086 101.720 277.846 100.640 278.126C100.200 278.246 99.760 278.286 99.320 278.286C98.920 278.286 98.560 278.246 98.160 278.126C97.440 277.886 96.720 277.486 96.120 276.966C95.800 276.686 95.480 276.366 95.200 276.006C94.360 275.006 93.680 273.526 93.680 272.166C93.680 271.806 93.720 271.446 93.840 271.086Z"></path></g></g></g></svg>