<?xml version="1.0" encoding="UTF-8" standalone="no"?><svg xmlns="http://www.w3.org/2000/svg" height="89.92165500000002mm" viewBox="0 0 1804 954" width="170.04053000000002mm"><g transform="translate(566)"><g><g><line stroke="#6A6A6A" stroke-width="1.3" x1="0" x2="817.1661387178631" y1="509" y2="509"></line><line stroke="#6A6A6A" stroke-width="1.3" x1="0" x2="817.1661387178631" y1="499" y2="499"></line><line stroke="#6A6A6A" stroke-width="1.3" x1="0" x2="817.1661387178631" y1="489" y2="489"></line><line stroke="#6A6A6A" stroke-width="1.3" x1="0" x2="817.1661387178631" y1="479" y2="479"></line><line stroke="#6A6A6A" stroke-width="1.3" x1="0" x2="817.1661387178631" y1="469" y2="469"></line></g><g><path d="M25.200 455.080C24.640 455.080 23.400 456.120 22.600 457C19.640 460.280 18.680 465.280 18.680 469.440C18.680 471.760 18.960 474.360 19.240 476C19.320 476.480 19.360 476.560 18.880 476.960C16.320 479.080 13.560 481.520 11.480 484.080C8.720 487.520 7 491.240 7 495.520C7 502.480 11.760 509.080 21.560 509.080C22.480 509.080 23.520 509 24.320 508.840C24.760 508.760 24.840 508.720 24.920 509.200C25.400 511.880 26 515.360 26 517.240C26 523.160 22 523.880 19.640 523.880C17.480 523.880 16.440 523.240 16.440 522.720C16.440 522.280 16.800 522.320 17.720 522.040C18.960 521.680 20.400 520.600 20.400 518.280C20.400 516.080 19 514.200 16.560 514.200C13.880 514.200 12.280 516.320 12.280 518.800C12.280 521.400 13.840 525.320 19.880 525.320C22.560 525.320 27.760 524.120 27.760 517.320C27.760 515.040 27.040 511.240 26.600 508.760C26.520 508.280 26.560 508.320 27.120 508.080C31.160 506.480 33.840 503.080 33.840 498.560C33.840 493.440 30.080 488.920 24.200 488.920C23.080 488.920 23.200 489.120 23.040 488.200L22.040 482.400C21.960 481.920 22.040 481.880 22.280 481.640C22.920 481.040 23.760 480.200 24.520 479.360C27.880 475.680 29.880 470.920 29.880 466.400C29.880 462.920 28.920 459.480 27.280 457.080C26.680 456.200 25.640 455.080 25.200 455.080ZM20.040 483.240C20.440 482.920 20.520 482.960 20.600 483.400L21.440 488.520C21.560 489.280 21.560 489.240 20.840 489.480C17.320 490.680 15.040 493.840 15.040 497.240C15.040 500.840 16.920 503.400 19.640 504.320C19.960 504.440 20.440 504.560 20.720 504.560C21.040 504.560 21.200 504.360 21.200 504.120C21.200 503.840 20.880 503.720 20.600 503.600C18.920 502.880 17.720 501.160 17.720 499.320C17.720 497.040 19.280 495.320 21.720 494.640C22.360 494.480 22.440 494.520 22.520 494.960L24.520 506.880C24.600 507.320 24.560 507.320 23.960 507.440C23.320 507.560 22.520 507.640 21.720 507.640C14.720 507.640 10.200 503.760 10.200 498.200C10.200 495.840 10.600 492.680 13.920 488.920C16.320 486.240 18.160 484.760 20.040 483.240ZM24.640 494.320C27.880 494.600 30.560 497.320 30.560 500.840C30.560 503.360 29.040 505.400 26.800 506.520C26.320 506.760 26.240 506.760 26.160 506.280L24.200 494.880C24.120 494.400 24.160 494.280 24.640 494.320ZM25.800 461.280C27.120 461.280 28.200 462.360 28.200 464.560C28.200 467.320 26.880 469.880 23.760 473C23.120 473.640 22.160 474.560 21.240 475.360C20.960 475.600 20.800 475.560 20.720 475.040C20.560 474 20.480 472.640 20.480 471.360C20.480 465.120 23.360 461.280 25.800 461.280Z"></path></g><g></g><path d="M57.820 478.960C56.620 478.960 55.220 479.280 54.140 479.760C50.580 481.320 48.700 485.600 48.700 489.400C48.700 489.760 48.700 490.120 48.740 490.480C48.940 492.640 49.980 494.680 51.300 496.280C52.820 498.120 55.020 498.960 57.420 498.960C64.420 498.960 65.460 492.600 65.460 491.440C65.460 490.560 65.020 490.560 64.860 490.560C64.540 490.560 64.260 490.600 64.260 491.280C64.260 496.440 59.860 497.640 58.580 497.640C55.340 497.640 53.620 494.480 53.620 487.880C53.620 481.280 56.660 479.920 58.820 479.920C60.900 479.920 61.740 480.880 61.740 481.280C61.740 481.640 61.620 482.160 61.020 482.160C59.420 482.160 58.500 483.880 58.500 485.120C58.500 487.400 60.460 488.120 61.580 488.120C61.580 488.120 64.620 488 64.620 484.680C64.620 479.440 58.580 478.960 57.820 478.960Z"></path></g><g><line stroke="black" stroke-width="1.6" x1="668.4838604411709" x2="668.4838604411709" y1="469" y2="509"></line></g><g><path d="M379.982 483.360L379.982 479.680C379.982 479.080 379.502 478.640 378.942 478.640L369.742 478.640C369.142 478.640 368.702 479.080 368.702 479.680L368.702 483.360C368.702 483.920 369.142 484.400 369.742 484.400L378.942 484.400C379.502 484.400 379.982 483.920 379.982 483.360Z"></path></g></g><g transform="translate(1250.2838604411709)"><g></g><g><line stroke="black" stroke-width="1.6" x1="53.641139138346034" x2="53.641139138346034" y1="469" y2="509"></line></g><g><path d="M29.199 441.480C27.719 442.080 26.919 444.360 25.039 444.360C25.039 442.440 23.919 441.120 22.399 441.120C20.839 441.120 19.519 442.440 19.519 443.960C19.519 444.680 20.079 445.480 20.679 446.080L21.799 446.640C22.199 446.640 22.559 446.800 22.959 446.800C23.479 446.800 24.039 446.640 24.479 446.400L25.999 445.840C26.359 445.840 26.559 446.080 26.559 446.240C26.559 448.120 25.439 450.960 24.879 452.840C24.639 453.600 23.159 454.560 22.399 454.560C22.399 452.600 21.239 451.520 19.759 451.520C18.239 451.520 16.919 452.600 16.919 454.160C16.919 454.920 17.519 455.720 18.079 456.280C18.479 456.360 18.759 456.600 19.199 456.600C19.519 456.800 19.919 456.800 20.319 456.800C20.839 456.800 21.439 456.800 21.799 456.600L23.319 456.040C23.479 456.040 23.719 455.840 23.919 455.840C23.959 455.840 24.039 455.960 24.039 456.040C24.039 456.280 23.919 456.800 23.919 456.800C23.919 456.800 22.559 462.120 22.399 462.680C21.999 463.800 20.679 464.560 19.919 464.560C19.919 462.680 18.759 461.560 17.279 461.560C15.799 461.560 14.439 462.680 14.439 464.240C14.439 464.960 14.999 465.720 15.559 466.280C15.999 466.480 16.359 466.680 16.719 466.680C17.119 466.840 17.519 466.840 17.839 466.840C18.439 466.840 18.959 466.840 19.319 466.680L20.839 466.120C21.439 466.120 21.439 466.480 21.439 466.680L19.919 473.120C19.519 474.200 18.239 474.800 17.519 474.800C17.519 472.920 16.359 471.760 14.839 471.760C13.319 471.760 11.999 472.920 11.999 474.400C11.999 475.160 12.559 475.880 13.119 476.480L14.279 477.040L14.999 477.040C15.559 477.040 16.359 477.040 16.919 476.880L18.439 476.320C18.959 476.320 18.959 476.880 18.959 477.040L17.519 483.320C17.119 484.440 15.999 484.840 15.399 485C14.999 485 14.079 481.800 12.559 481.800C11.039 481.800 9.679 483.120 9.679 484.440C9.679 485.400 10.279 486.120 10.839 486.520L11.999 487.080C12.359 487.080 12.759 487.280 13.119 487.280C13.679 487.280 14.279 487.080 14.639 486.920C15.239 486.720 15.559 486.720 16.119 486.360C16.359 486.360 16.559 486.720 16.559 486.920C16.559 487.080 15.799 491.280 14.999 493.360C14.639 494.320 13.519 494.680 12.919 494.880C12.919 492.800 11.399 491.680 10.119 491.680C8.759 491.680 7.439 492.960 7.439 494.320C7.439 495.240 8.039 496 8.599 496.360L9.679 496.920C10.119 496.920 10.479 497.160 10.839 497.160C11.399 497.160 11.999 496.920 12.359 496.720C12.919 496.560 13.319 496.560 13.679 496.160C13.879 496.160 14.079 496.560 14.079 496.720C14.079 497.280 12.919 502.240 12.759 502.840C12.359 503.960 11.039 504.520 10.479 504.680C10.479 502.600 9.159 501.440 7.839 501.440C6.319 501.440 5.159 502.840 5.159 504.120C5.159 505.120 5.559 505.840 6.119 506.200L7.279 506.800C7.599 506.800 8.039 506.960 8.399 506.960C8.959 506.960 9.559 506.800 9.879 506.600C10.479 506.400 10.839 506.400 11.399 506C11.599 506 11.839 506.400 11.839 506.600C11.599 506.800 10.279 513.080 10.119 513.600C9.679 514.560 8.759 514.920 8.159 514.920C8.159 512.840 6.879 511.680 5.559 511.680C4.039 511.680 2.879 513.080 2.879 514.360C2.879 515.320 3.319 516.080 3.879 516.440L4.959 517.040C5.359 517.040 5.719 517.200 6.119 517.200C6.679 517.200 7.279 517.040 7.599 516.800L8.959 516.440C9.319 516.440 9.319 516.640 9.319 516.800C9.159 517.360 6.679 527.560 6.479 527.800C6.479 527.960 7.279 528.720 7.599 528.720C8.759 528.720 8.959 528.520 9.159 527.960C9.159 527.560 23.319 467.400 25.439 457.560C25.439 457.560 29.599 442.440 29.599 442.080C29.599 441.680 29.199 441.480 29.199 441.480Z"></path></g></g><g transform="translate(1319.724999579517)"><g></g><g><line stroke="#000000" stroke-width="1.6" x1="53.641139138346034" x2="53.641139138346034" y1="469" y2="509"></line><line stroke="#000000" stroke-width="5" x1="60.94113913834604" x2="60.94113913834604" y1="469" y2="509"></line></g><g><path d="M29.199 441.480C27.719 442.080 26.919 444.360 25.039 444.360C25.039 442.440 23.919 441.120 22.399 441.120C20.839 441.120 19.519 442.440 19.519 443.960C19.519 444.680 20.079 445.480 20.679 446.080L21.799 446.640C22.199 446.640 22.559 446.800 22.959 446.800C23.479 446.800 24.039 446.640 24.479 446.400L25.999 445.840C26.359 445.840 26.559 446.080 26.559 446.240C26.559 448.120 25.439 450.960 24.879 452.840C24.639 453.600 23.159 454.560 22.399 454.560C22.399 452.600 21.239 451.520 19.759 451.520C18.239 451.520 16.919 452.600 16.919 454.160C16.919 454.920 17.519 455.720 18.079 456.280C18.479 456.360 18.759 456.600 19.199 456.600C19.519 456.800 19.919 456.800 20.319 456.800C20.839 456.800 21.439 456.800 21.799 456.600L23.319 456.040C23.479 456.040 23.719 455.840 23.919 455.840C23.959 455.840 24.039 455.960 24.039 456.040C24.039 456.280 23.919 456.800 23.919 456.800C23.919 456.800 22.559 462.120 22.399 462.680C21.999 463.800 20.679 464.560 19.919 464.560C19.919 462.680 18.759 461.560 17.279 461.560C15.799 461.560 14.439 462.680 14.439 464.240C14.439 464.960 14.999 465.720 15.559 466.280C15.999 466.480 16.359 466.680 16.719 466.680C17.119 466.840 17.519 466.840 17.839 466.840C18.439 466.840 18.959 466.840 19.319 466.680L20.839 466.120C21.439 466.120 21.439 466.480 21.439 466.680L19.919 473.120C19.519 474.200 18.239 474.800 17.519 474.800C17.519 472.920 16.359 471.760 14.839 471.760C13.319 471.760 11.999 472.920 11.999 474.400C11.999 475.160 12.559 475.880 13.119 476.480L14.279 477.040L14.999 477.040C15.559 477.040 16.359 477.040 16.919 476.880L18.439 476.320C18.959 476.320 18.959 476.880 18.959 477.040L17.519 483.320C17.119 484.440 15.999 484.840 15.399 485C14.999 485 14.079 481.800 12.559 481.800C11.039 481.800 9.679 483.120 9.679 484.440C9.679 485.400 10.279 486.120 10.839 486.520L11.999 487.080C12.359 487.080 12.759 487.280 13.119 487.280C13.679 487.280 14.279 487.080 14.639 486.920C15.239 486.720 15.559 486.720 16.119 486.360C16.359 486.360 16.559 486.720 16.559 486.920C16.559 487.080 15.799 491.280 14.999 493.360C14.639 494.320 13.519 494.680 12.919 494.880C12.919 492.800 11.399 491.680 10.119 491.680C8.759 491.680 7.439 492.960 7.439 494.320C7.439 495.240 8.039 496 8.599 496.360L9.679 496.920C10.119 496.920 10.479 497.160 10.839 497.160C11.399 497.160 11.999 496.920 12.359 496.720C12.919 496.560 13.319 496.560 13.679 496.160C13.879 496.160 14.079 496.560 14.079 496.720C14.079 497.280 12.919 502.240 12.759 502.840C12.359 503.960 11.039 504.520 10.479 504.680C10.479 502.600 9.159 501.440 7.839 501.440C6.319 501.440 5.159 502.840 5.159 504.120C5.159 505.120 5.559 505.840 6.119 506.200L7.279 506.800C7.599 506.800 8.039 506.960 8.399 506.960C8.959 506.960 9.559 506.800 9.879 506.600C10.479 506.400 10.839 506.400 11.399 506C11.599 506 11.839 506.400 11.839 506.600C11.599 506.800 10.279 513.080 10.119 513.600C9.679 514.560 8.759 514.920 8.159 514.920C8.159 512.840 6.879 511.680 5.559 511.680C4.039 511.680 2.879 513.080 2.879 514.360C2.879 515.320 3.319 516.080 3.879 516.440L4.959 517.040C5.359 517.040 5.719 517.200 6.119 517.200C6.679 517.200 7.279 517.040 7.599 516.800L8.959 516.440C9.319 516.440 9.319 516.640 9.319 516.800C9.159 517.360 6.679 527.560 6.479 527.800C6.479 527.960 7.279 528.720 7.599 528.720C8.759 528.720 8.959 528.520 9.159 527.960C9.159 527.560 23.319 467.400 25.439 457.560C25.439 457.560 29.599 442.440 29.599 442.080C29.599 441.680 29.199 441.480 29.199 441.480Z"></path></g></g></svg>