<?xml version="1.0" encoding="UTF-8" standalone="no"?><svg xmlns="http://www.w3.org/2000/svg" class="" height="279.4mm" viewBox="0 0 1328.6153846153845 1719.3846153846152" width="215.9mm"><g><g><g><line stroke="#6A6A6A" stroke-width="1.3" x1="93.84615384615385" x2="827.253477060467" y1="183.8461538461538" y2="183.8461538461538"></line><line stroke="#6A6A6A" stroke-width="1.3" x1="93.84615384615385" x2="827.253477060467" y1="173.8461538461538" y2="173.8461538461538"></line><line stroke="#6A6A6A" stroke-width="1.3" x1="93.84615384615385" x2="827.253477060467" y1="163.8461538461538" y2="163.8461538461538"></line><line stroke="#6A6A6A" stroke-width="1.3" x1="93.84615384615385" x2="827.253477060467" y1="153.8461538461538" y2="153.8461538461538"></line><line stroke="#6A6A6A" stroke-width="1.3" x1="93.84615384615385" x2="827.253477060467" y1="143.8461538461538" y2="143.8461538461538"></line></g><g><path d="M119.046 129.926C118.486 129.926 117.246 130.966 116.446 131.846C113.486 135.126 112.526 140.126 112.526 144.286C112.526 146.606 112.806 149.206 113.086 150.846C113.166 151.326 113.206 151.406 112.726 151.806C110.166 153.926 107.406 156.366 105.326 158.926C102.566 162.366 100.846 166.086 100.846 170.366C100.846 177.326 105.606 183.926 115.406 183.926C116.326 183.926 117.366 183.846 118.166 183.686C118.606 183.606 118.686 183.566 118.766 184.046C119.246 186.726 119.846 190.206 119.846 192.086C119.846 198.006 115.846 198.726 113.486 198.726C111.326 198.726 110.286 198.086 110.286 197.566C110.286 197.126 110.646 197.166 111.566 196.886C112.806 196.526 114.246 195.446 114.246 193.126C114.246 190.926 112.846 189.046 110.406 189.046C107.726 189.046 106.126 191.166 106.126 193.646C106.126 196.246 107.686 200.166 113.726 200.166C116.406 200.166 121.606 198.966 121.606 192.166C121.606 189.886 120.886 186.086 120.446 183.606C120.366 183.126 120.406 183.166 120.966 182.926C125.006 181.326 127.686 177.926 127.686 173.406C127.686 168.286 123.926 163.766 118.046 163.766C116.926 163.766 117.046 163.966 116.886 163.046L115.886 157.246C115.806 156.766 115.886 156.726 116.126 156.486C116.766 155.886 117.606 155.046 118.366 154.206C121.726 150.526 123.726 145.766 123.726 141.246C123.726 137.766 122.766 134.326 121.126 131.926C120.526 131.046 119.486 129.926 119.046 129.926ZM113.886 158.086C114.286 157.766 114.366 157.806 114.446 158.246L115.286 163.366C115.406 164.126 115.406 164.086 114.686 164.326C111.166 165.526 108.886 168.686 108.886 172.086C108.886 175.686 110.766 178.246 113.486 179.166C113.806 179.286 114.286 179.406 114.566 179.406C114.886 179.406 115.046 179.206 115.046 178.966C115.046 178.686 114.726 178.566 114.446 178.446C112.766 177.726 111.566 176.006 111.566 174.166C111.566 171.886 113.126 170.166 115.566 169.486C116.206 169.326 116.286 169.366 116.366 169.806L118.366 181.726C118.446 182.166 118.406 182.166 117.806 182.286C117.166 182.406 116.366 182.486 115.566 182.486C108.566 182.486 104.046 178.606 104.046 173.046C104.046 170.686 104.446 167.526 107.766 163.766C110.166 161.086 112.006 159.606 113.886 158.086ZM118.486 169.166C121.726 169.446 124.406 172.166 124.406 175.686C124.406 178.206 122.886 180.246 120.646 181.366C120.166 181.606 120.086 181.606 120.006 181.126L118.046 169.726C117.966 169.246 118.006 169.126 118.486 169.166ZM119.646 136.126C120.966 136.126 122.046 137.206 122.046 139.406C122.046 142.166 120.726 144.726 117.606 147.846C116.966 148.486 116.006 149.406 115.086 150.206C114.806 150.446 114.646 150.406 114.566 149.886C114.406 148.846 114.326 147.486 114.326 146.206C114.326 139.966 117.206 136.126 119.646 136.126Z"></path></g><g></g><path d="M151.666 153.806C150.466 153.806 149.066 154.126 147.986 154.606C144.426 156.166 142.546 160.446 142.546 164.246C142.546 164.606 142.546 164.966 142.586 165.326C142.786 167.486 143.826 169.526 145.146 171.126C146.666 172.966 148.866 173.806 151.266 173.806C158.266 173.806 159.306 167.446 159.306 166.286C159.306 165.406 158.866 165.406 158.706 165.406C158.386 165.406 158.106 165.446 158.106 166.126C158.106 171.286 153.706 172.486 152.426 172.486C149.186 172.486 147.466 169.326 147.466 162.726C147.466 156.126 150.506 154.766 152.666 154.766C154.746 154.766 155.586 155.726 155.586 156.126C155.586 156.486 155.466 157.006 154.866 157.006C153.266 157.006 152.346 158.726 152.346 159.966C152.346 162.246 154.306 162.966 155.426 162.966C155.426 162.966 158.466 162.846 158.466 159.526C158.466 154.286 152.426 153.806 151.666 153.806Z"></path></g><g><path d="M237.310 143.406C236.950 143.406 236.670 143.686 236.670 144.046L236.670 150.046L207.950 150.046L207.950 144.046C207.950 143.686 207.670 143.406 207.310 143.406C206.950 143.406 206.670 143.686 206.670 144.046L206.670 164.046C206.670 164.406 206.950 164.686 207.310 164.686C207.670 164.686 207.950 164.406 207.950 164.046L207.950 158.046L236.670 158.046L236.670 164.046C236.670 164.406 236.950 164.686 237.310 164.686C237.670 164.686 237.950 164.406 237.950 164.046L237.950 144.046C237.950 143.686 237.670 143.406 237.310 143.406Z"></path><text font-family='Alegreya' font-style='italic' stroke='#7a7a7a' font-size="48" text-anchor="middle" x="222.31039493777428" y="123.84615384615381">2</text></g></g><g><g></g><g><line stroke="black" stroke-width="1.6" x1="285.5746360293947" x2="285.5746360293947" y1="143.8461538461538" y2="183.8461538461538"></line></g></g><g><g><g><g><path d="M309.255 143.926C309.055 143.926 308.855 143.886 308.655 143.886C305.215 143.886 301.775 146.166 301.775 148.286C301.775 149.606 302.535 151.366 305.015 151.526L305.215 151.526C306.975 151.526 307.855 150.246 307.855 148.926L307.855 148.606C307.735 147.126 306.735 147.046 306.535 146.966C306.335 146.886 305.735 146.966 305.735 146.406L305.735 146.246C305.815 145.566 307.055 145.246 307.415 145.246C310.815 145.246 311.135 147.366 311.135 148.326L311.135 148.606C311.135 151.566 308.775 152.726 306.255 152.846C305.855 152.886 305.295 153.086 305.295 153.526C305.295 154.006 305.975 154.006 306.295 154.006C310.895 154.006 311.255 157.126 311.255 157.646C311.255 161.886 309.095 162.366 308.215 162.366C308.055 162.366 307.895 162.326 307.855 162.326C307.535 162.286 306.775 162.286 306.735 161.686L306.735 161.486C306.735 160.606 307.615 160.006 307.655 158.846C307.655 158.446 307.615 158.006 307.455 157.606C307.015 156.606 305.855 155.966 304.775 155.966C304.615 155.966 304.495 155.966 304.335 156.006C303.655 156.126 302.895 156.526 302.415 157.046C301.735 157.646 301.535 158.606 301.535 159.486C301.615 162.606 304.455 163.806 308.375 163.886L308.735 163.886C312.695 163.886 316.775 161.846 316.775 158.326L316.775 158.046C316.735 157.486 316.655 156.926 316.415 156.406C316.255 156.006 315.975 155.606 315.655 155.246C315.415 154.926 315.095 154.646 314.695 154.406L313.855 153.926L312.535 153.566C312.335 153.526 312.215 153.526 312.135 153.366C312.095 153.286 312.095 153.246 312.095 153.166C312.095 153.006 312.135 152.846 312.255 152.806C312.695 152.686 313.135 152.646 313.495 152.446C314.095 152.166 314.615 151.886 315.055 151.366C315.695 150.646 315.935 149.726 315.935 148.806C315.935 145.126 310.935 144.046 309.255 143.926Z"></path></g><g><path d="M318.055 176.806L315.135 176.806L315.135 168.246C315.135 167.926 315.095 167.566 314.655 167.566C314.295 167.566 314.095 167.646 313.855 167.926L310.055 172.526C309.895 172.726 309.695 172.966 309.695 173.446C309.695 173.446 309.695 175.046 309.695 176.806L304.295 176.806C307.495 174.086 313.895 165.006 314.015 164.566C314.015 164.486 314.055 164.446 314.055 164.366C314.055 164.046 313.775 163.806 313.455 163.806C313.095 163.806 311.455 163.886 310.735 163.886C310.015 163.886 308.215 163.806 307.895 163.806C307.535 163.806 306.975 163.926 306.975 164.566C306.975 169.526 303.055 175.086 301.855 176.766L301.615 177.086C301.615 177.126 301.575 177.166 301.575 177.206C301.495 177.366 301.455 177.526 301.455 177.646C301.455 178.046 301.775 178.326 302.255 178.326L309.695 178.326L309.695 180.846C309.695 181.926 308.815 182.246 308.095 182.246C307.455 182.246 307.175 182.606 307.175 183.006C307.175 183.406 307.335 183.846 307.935 183.846C308.575 183.846 316.455 183.846 316.455 183.846C316.855 183.846 317.255 183.566 317.255 183.006C317.255 182.446 316.775 182.206 316.375 182.206C315.975 182.206 315.135 181.966 315.135 180.686L315.135 178.326C316.855 178.326 318.055 178.326 318.055 178.326C318.455 178.326 318.655 178.046 318.655 177.566C318.655 177.086 318.495 176.806 318.055 176.806Z"></path></g></g></g><g><path d="M397.492 143.406C397.132 143.406 396.852 143.686 396.852 144.046L396.852 150.046L368.132 150.046L368.132 144.046C368.132 143.686 367.852 143.406 367.492 143.406C367.132 143.406 366.852 143.686 366.852 144.046L366.852 164.046C366.852 164.406 367.132 164.686 367.492 164.686C367.852 164.686 368.132 164.406 368.132 164.046L368.132 158.046L396.852 158.046L396.852 164.046C396.852 164.406 397.132 164.686 397.492 164.686C397.852 164.686 398.132 164.406 398.132 164.046L398.132 144.046C398.132 143.686 397.852 143.406 397.492 143.406Z"></path><text font-family='Alegreya' font-style='italic' stroke='#7a7a7a' font-size="48" text-anchor="middle" x="382.4917559538246" y="123.84615384615381">3</text></g></g><g><g></g></g><g><g></g><g><line stroke="black" stroke-width="1.6" x1="430.3088758782547" x2="430.3088758782547" y1="143.8461538461538" y2="183.8461538461538"></line></g></g><g><g><g><g><path d="M462.469 157.486C462.469 157.006 462.269 156.926 461.989 156.926C461.669 156.926 461.549 157.086 461.469 157.326C461.469 157.366 461.429 157.406 461.429 157.446C461.029 158.406 460.709 159.166 459.869 159.166C459.669 159.166 459.469 159.126 459.189 159.046C458.669 158.846 458.389 158.806 457.989 158.606C457.189 158.286 455.309 157.646 453.669 157.646C453.149 157.646 452.629 157.726 452.189 157.886C453.069 156.446 456.469 155.246 457.349 155.006C457.949 154.846 459.629 154.526 460.949 153.446C461.909 152.686 462.669 151.526 462.669 149.766C462.669 147.886 461.869 146.526 460.829 145.646C458.789 143.926 455.669 143.686 454.789 143.686C453.709 143.686 452.349 143.726 451.309 143.966C449.909 144.246 448.509 145.086 447.549 146.206C446.869 147.046 446.429 148.046 446.429 149.126C446.429 149.686 446.549 150.246 446.789 150.846C447.389 152.086 448.629 153.046 450.069 153.046C452.509 153.046 452.869 150.526 452.869 149.526C452.869 147.126 450.109 147.006 450.109 146.206C450.189 145.646 450.909 144.686 453.269 144.686C456.829 144.686 456.869 147.366 456.869 148.526C456.869 150.046 456.389 151.446 455.509 152.606C454.069 154.526 452.949 155.486 450.989 156.686C448.789 158.086 447.229 160.046 446.549 162.566C446.549 162.646 446.509 162.726 446.509 162.806C446.509 163.246 446.789 163.766 447.229 164.046C447.349 164.126 447.469 164.126 447.549 164.126C448.429 164.126 448.909 161.686 451.269 161.686C452.869 161.686 453.469 163.846 457.029 163.846C458.749 163.846 461.829 163.686 462.469 157.486Z"></path></g><g><path d="M462.789 176.806L459.869 176.806L459.869 168.246C459.869 167.926 459.829 167.566 459.389 167.566C459.029 167.566 458.829 167.646 458.589 167.926L454.789 172.526C454.629 172.726 454.429 172.966 454.429 173.446C454.429 173.446 454.429 175.046 454.429 176.806L449.029 176.806C452.229 174.086 458.629 165.006 458.749 164.566C458.749 164.486 458.789 164.446 458.789 164.366C458.789 164.046 458.509 163.806 458.189 163.806C457.829 163.806 456.189 163.886 455.469 163.886C454.749 163.886 452.949 163.806 452.629 163.806C452.269 163.806 451.709 163.926 451.709 164.566C451.709 169.526 447.789 175.086 446.589 176.766L446.349 177.086C446.349 177.126 446.309 177.166 446.309 177.206C446.229 177.366 446.189 177.526 446.189 177.646C446.189 178.046 446.509 178.326 446.989 178.326L454.429 178.326L454.429 180.846C454.429 181.926 453.549 182.246 452.829 182.246C452.189 182.246 451.909 182.606 451.909 183.006C451.909 183.406 452.069 183.846 452.669 183.846C453.309 183.846 461.189 183.846 461.189 183.846C461.589 183.846 461.989 183.566 461.989 183.006C461.989 182.446 461.509 182.206 461.109 182.206C460.709 182.206 459.869 181.966 459.869 180.686L459.869 178.326C461.589 178.326 462.789 178.326 462.789 178.326C463.189 178.326 463.389 178.046 463.389 177.566C463.389 177.086 463.229 176.806 462.789 176.806Z"></path></g></g></g><g><path d="M523.853 143.406C523.493 143.406 523.213 143.686 523.213 144.046L523.213 150.046L494.493 150.046L494.493 144.046C494.493 143.686 494.213 143.406 493.853 143.406C493.493 143.406 493.213 143.686 493.213 144.046L493.213 164.046C493.213 164.406 493.493 164.686 493.853 164.686C494.213 164.686 494.493 164.406 494.493 164.046L494.493 158.046L523.213 158.046L523.213 164.046C523.213 164.406 523.493 164.686 523.853 164.686C524.213 164.686 524.493 164.406 524.493 164.046L524.493 144.046C524.493 143.686 524.213 143.406 523.853 143.406Z"></path><text font-family='Alegreya' font-style='italic' stroke='#7a7a7a' font-size="48" text-anchor="middle" x="508.85269428612" y="123.84615384615381">2</text></g></g><g><g></g><g><line stroke="black" stroke-width="1.6" x1="554.8965126939853" x2="554.8965126939853" y1="143.8461538461538" y2="183.8461538461538"></line></g></g><g><g><path d="M580.017 153.806C578.817 153.806 577.417 154.126 576.337 154.606C572.777 156.166 570.897 160.446 570.897 164.246C570.897 164.606 570.897 164.966 570.937 165.326C571.137 167.486 572.177 169.526 573.497 171.126C575.017 172.966 577.217 173.806 579.617 173.806C586.617 173.806 587.657 167.446 587.657 166.286C587.657 165.406 587.217 165.406 587.057 165.406C586.737 165.406 586.457 165.446 586.457 166.126C586.457 171.286 582.057 172.486 580.777 172.486C577.537 172.486 575.817 169.326 575.817 162.726C575.817 156.126 578.857 154.766 581.017 154.766C583.097 154.766 583.937 155.726 583.937 156.126C583.937 156.486 583.817 157.006 583.217 157.006C581.617 157.006 580.697 158.726 580.697 159.966C580.697 162.246 582.657 162.966 583.777 162.966C583.777 162.966 586.817 162.846 586.817 159.526C586.817 154.286 580.777 153.806 580.017 153.806Z"></path></g><g><path d="M665.661 143.406C665.301 143.406 665.021 143.686 665.021 144.046L665.021 150.046L636.301 150.046L636.301 144.046C636.301 143.686 636.021 143.406 635.661 143.406C635.301 143.406 635.021 143.686 635.021 144.046L635.021 164.046C635.021 164.406 635.301 164.686 635.661 164.686C636.021 164.686 636.301 164.406 636.301 164.046L636.301 158.046L665.021 158.046L665.021 164.046C665.021 164.406 665.301 164.686 665.661 164.686C666.021 164.686 666.301 164.406 666.301 164.046L666.301 144.046C666.301 143.686 666.021 143.406 665.661 143.406Z"></path><text font-family='Alegreya' font-style='italic' stroke='#7a7a7a' font-size="48" text-anchor="middle" x="650.6607537856057" y="123.84615384615381">2</text></g></g><g><g></g><g><line stroke="black" stroke-width="1.6" x1="713.9249948772261" x2="713.9249948772261" y1="143.8461538461538" y2="183.8461538461538"></line></g></g><g><g></g><g><line stroke="#000000" stroke-width="1.6" x1="817.453477060467" x2="817.453477060467" y1="143.8461538461538" y2="183.8461538461538"></line><line stroke="#000000" stroke-width="5" x1="824.753477060467" x2="824.753477060467" y1="143.8461538461538" y2="183.8461538461538"></line></g><g><g><path d="M739.125 153.366C733.325 153.366 729.725 155.806 729.725 158.766C729.725 161.686 732.205 164.286 738.685 164.286C745.805 164.286 748.085 161.806 748.085 158.766C748.085 155.686 743.165 153.366 739.125 153.366ZM734.565 156.086C735.045 154.606 736.645 154.366 738.005 154.366C740.965 154.366 743.365 157.566 743.365 160.206C743.365 160.486 743.325 160.766 743.285 161.006C743.085 162.086 742.445 162.846 741.365 163.126C740.925 163.246 740.485 163.286 740.045 163.286C739.645 163.286 739.285 163.246 738.885 163.126C738.165 162.886 737.445 162.486 736.845 161.966C736.525 161.686 736.205 161.366 735.925 161.006C735.085 160.006 734.405 158.526 734.405 157.166C734.405 156.806 734.445 156.446 734.565 156.086Z"></path></g></g></g></svg>