<?xml version="1.0" encoding="UTF-8" standalone="no"?><svg xmlns="http://www.w3.org/2000/svg" class="" height="279.4mm" viewBox="0 0 1328.6153846153845 1719.3846153846152" width="215.9mm"><g><g><g><line stroke="#6A6A6A" stroke-width="1.3" x1="93.84615384615385" x2="937.4304065101333" y1="183.8461538461538" y2="183.8461538461538"></line><line stroke="#6A6A6A" stroke-width="1.3" x1="93.84615384615385" x2="937.4304065101333" y1="173.8461538461538" y2="173.8461538461538"></line><line stroke="#6A6A6A" stroke-width="1.3" x1="93.84615384615385" x2="937.4304065101333" y1="163.8461538461538" y2="163.8461538461538"></line><line stroke="#6A6A6A" stroke-width="1.3" x1="93.84615384615385" x2="937.4304065101333" y1="153.8461538461538" y2="153.8461538461538"></line><line stroke="#6A6A6A" stroke-width="1.3" x1="93.84615384615385" x2="937.4304065101333" y1="143.8461538461538" y2="143.8461538461538"></line></g><g><path d="M119.046 129.926C118.486 129.926 117.246 130.966 116.446 131.846C113.486 135.126 112.526 140.126 112.526 144.286C112.526 146.606 112.806 149.206 113.086 150.846C113.166 151.326 113.206 151.406 112.726 151.806C110.166 153.926 107.406 156.366 105.326 158.926C102.566 162.366 100.846 166.086 100.846 170.366C100.846 177.326 105.606 183.926 115.406 183.926C116.326 183.926 117.366 183.846 118.166 183.686C118.606 183.606 118.686 183.566 118.766 184.046C119.246 186.726 119.846 190.206 119.846 192.086C119.846 198.006 115.846 198.726 113.486 198.726C111.326 198.726 110.286 198.086 110.286 197.566C110.286 197.126 110.646 197.166 111.566 196.886C112.806 196.526 114.246 195.446 114.246 193.126C114.246 190.926 112.846 189.046 110.406 189.046C107.726 189.046 106.126 191.166 106.126 193.646C106.126 196.246 107.686 200.166 113.726 200.166C116.406 200.166 121.606 198.966 121.606 192.166C121.606 189.886 120.886 186.086 120.446 183.606C120.366 183.126 120.406 183.166 120.966 182.926C125.006 181.326 127.686 177.926 127.686 173.406C127.686 168.286 123.926 163.766 118.046 163.766C116.926 163.766 117.046 163.966 116.886 163.046L115.886 157.246C115.806 156.766 115.886 156.726 116.126 156.486C116.766 155.886 117.606 155.046 118.366 154.206C121.726 150.526 123.726 145.766 123.726 141.246C123.726 137.766 122.766 134.326 121.126 131.926C120.526 131.046 119.486 129.926 119.046 129.926ZM113.886 158.086C114.286 157.766 114.366 157.806 114.446 158.246L115.286 163.366C115.406 164.126 115.406 164.086 114.686 164.326C111.166 165.526 108.886 168.686 108.886 172.086C108.886 175.686 110.766 178.246 113.486 179.166C113.806 179.286 114.286 179.406 114.566 179.406C114.886 179.406 115.046 179.206 115.046 178.966C115.046 178.686 114.726 178.566 114.446 178.446C112.766 177.726 111.566 176.006 111.566 174.166C111.566 171.886 113.126 170.166 115.566 169.486C116.206 169.326 116.286 169.366 116.366 169.806L118.366 181.726C118.446 182.166 118.406 182.166 117.806 182.286C117.166 182.406 116.366 182.486 115.566 182.486C108.566 182.486 104.046 178.606 104.046 173.046C104.046 170.686 104.446 167.526 107.766 163.766C110.166 161.086 112.006 159.606 113.886 158.086ZM118.486 169.166C121.726 169.446 124.406 172.166 124.406 175.686C124.406 178.206 122.886 180.246 120.646 181.366C120.166 181.606 120.086 181.606 120.006 181.126L118.046 169.726C117.966 169.246 118.006 169.126 118.486 169.166ZM119.646 136.126C120.966 136.126 122.046 137.206 122.046 139.406C122.046 142.166 120.726 144.726 117.606 147.846C116.966 148.486 116.006 149.406 115.086 150.206C114.806 150.446 114.646 150.406 114.566 149.886C114.406 148.846 114.326 147.486 114.326 146.206C114.326 139.966 117.206 136.126 119.646 136.126Z"></path></g><g><path d="M146.826 139.126C147.106 139.006 147.306 138.686 147.306 138.446L147.306 135.606C147.306 135.406 147.186 135.286 147.026 135.286C146.946 135.286 146.906 135.286 146.826 135.326C146.826 135.326 146.026 135.646 145.826 135.686C145.546 135.686 145.266 135.486 145.266 135.166C145.266 134.766 145.266 130.286 145.266 130.286C145.266 130.046 145.026 129.846 144.706 129.846C144.306 129.846 144.066 130.046 144.066 130.286C144.066 130.286 144.066 135.086 144.066 135.486C144.026 135.886 143.906 136.406 143.546 136.646C143.066 136.926 141.706 137.486 141.026 137.646C140.666 137.646 140.546 137.166 140.546 136.846C140.546 136.446 140.546 132.046 140.546 132.046C140.546 131.806 140.266 131.606 139.986 131.606C139.586 131.606 139.346 131.806 139.346 132.046C139.346 132.046 139.346 134.206 139.346 135.806L139.346 137.446C139.346 138.006 139.106 138.406 138.866 138.526C138.626 138.646 137.826 138.966 137.826 138.966C137.546 139.046 137.346 139.366 137.346 139.606L137.346 142.446C137.346 142.686 137.466 142.806 137.666 142.806C137.706 142.806 137.786 142.766 137.826 142.766C137.826 142.766 138.426 142.526 138.706 142.366C138.746 142.366 138.786 142.326 138.826 142.326C139.106 142.326 139.346 142.726 139.346 143.046L139.346 147.006C139.346 147.446 139.146 147.806 138.906 147.926C138.666 148.006 137.826 148.366 137.826 148.366C137.546 148.446 137.346 148.766 137.346 149.006L137.346 151.846C137.346 152.086 137.466 152.206 137.666 152.206C137.706 152.206 137.786 152.166 137.826 152.166C137.826 152.166 138.386 151.926 138.746 151.806C138.786 151.766 138.826 151.766 138.866 151.766C139.146 151.766 139.346 152.206 139.346 152.406C139.346 152.646 139.346 157.326 139.346 157.326C139.346 157.566 139.586 157.766 139.866 157.766C140.266 157.766 140.546 157.566 140.546 157.326C140.546 157.326 140.546 152.246 140.546 151.766C140.546 151.246 140.746 150.966 140.946 150.886L143.386 149.886C143.426 149.886 143.506 149.846 143.546 149.846C143.866 149.846 144.066 150.326 144.066 150.566C144.066 150.846 144.066 155.566 144.066 155.566C144.066 155.806 144.306 156.006 144.586 156.006C145.026 156.006 145.266 155.806 145.266 155.566C145.266 155.566 145.266 150.166 145.266 149.886C145.266 149.566 145.426 149.086 145.706 148.966C145.986 148.846 146.826 148.526 146.826 148.526C147.106 148.406 147.306 148.086 147.306 147.846L147.306 145.006C147.306 144.806 147.186 144.686 147.026 144.686C146.946 144.686 146.906 144.686 146.826 144.726C146.826 144.726 145.986 145.046 145.786 145.126C145.546 145.126 145.266 144.886 145.266 144.406L145.266 140.686C145.266 140.406 145.466 139.646 145.786 139.526C146.106 139.406 146.826 139.126 146.826 139.126ZM144.066 145.646C143.826 146.446 141.946 147.246 141.026 147.246C140.786 147.246 140.586 147.166 140.546 147.046C140.466 146.886 140.426 146.006 140.426 145.046C140.426 143.806 140.466 142.406 140.546 142.086C140.626 141.406 142.466 140.566 143.466 140.566C143.746 140.566 143.986 140.646 144.066 140.806C144.146 141.006 144.226 142.006 144.226 143.086C144.226 144.166 144.146 145.286 144.066 145.646Z"></path><path d="M157.826 154.126C158.106 154.006 158.306 153.686 158.306 153.446L158.306 150.606C158.306 150.406 158.186 150.286 158.026 150.286C157.946 150.286 157.906 150.286 157.826 150.326C157.826 150.326 157.026 150.646 156.826 150.686C156.546 150.686 156.266 150.486 156.266 150.166C156.266 149.766 156.266 145.286 156.266 145.286C156.266 145.046 156.026 144.846 155.706 144.846C155.306 144.846 155.066 145.046 155.066 145.286C155.066 145.286 155.066 150.086 155.066 150.486C155.026 150.886 154.906 151.406 154.546 151.646C154.066 151.926 152.706 152.486 152.026 152.646C151.666 152.646 151.546 152.166 151.546 151.846C151.546 151.446 151.546 147.046 151.546 147.046C151.546 146.806 151.266 146.606 150.986 146.606C150.586 146.606 150.346 146.806 150.346 147.046C150.346 147.046 150.346 149.206 150.346 150.806L150.346 152.446C150.346 153.006 150.106 153.406 149.866 153.526C149.626 153.646 148.826 153.966 148.826 153.966C148.546 154.046 148.346 154.366 148.346 154.606L148.346 157.446C148.346 157.686 148.466 157.806 148.666 157.806C148.706 157.806 148.786 157.766 148.826 157.766C148.826 157.766 149.426 157.526 149.706 157.366C149.746 157.366 149.786 157.326 149.826 157.326C150.106 157.326 150.346 157.726 150.346 158.046L150.346 162.006C150.346 162.446 150.146 162.806 149.906 162.926C149.666 163.006 148.826 163.366 148.826 163.366C148.546 163.446 148.346 163.766 148.346 164.006L148.346 166.846C148.346 167.086 148.466 167.206 148.666 167.206C148.706 167.206 148.786 167.166 148.826 167.166C148.826 167.166 149.386 166.926 149.746 166.806C149.786 166.766 149.826 166.766 149.866 166.766C150.146 166.766 150.346 167.206 150.346 167.406C150.346 167.646 150.346 172.326 150.346 172.326C150.346 172.566 150.586 172.766 150.866 172.766C151.266 172.766 151.546 172.566 151.546 172.326C151.546 172.326 151.546 167.246 151.546 166.766C151.546 166.246 151.746 165.966 151.946 165.886L154.386 164.886C154.426 164.886 154.506 164.846 154.546 164.846C154.866 164.846 155.066 165.326 155.066 165.566C155.066 165.846 155.066 170.566 155.066 170.566C155.066 170.806 155.306 171.006 155.586 171.006C156.026 171.006 156.266 170.806 156.266 170.566C156.266 170.566 156.266 165.166 156.266 164.886C156.266 164.566 156.426 164.086 156.706 163.966C156.986 163.846 157.826 163.526 157.826 163.526C158.106 163.406 158.306 163.086 158.306 162.846L158.306 160.006C158.306 159.806 158.186 159.686 158.026 159.686C157.946 159.686 157.906 159.686 157.826 159.726C157.826 159.726 156.986 160.046 156.786 160.126C156.546 160.126 156.266 159.886 156.266 159.406L156.266 155.686C156.266 155.406 156.466 154.646 156.786 154.526C157.106 154.406 157.826 154.126 157.826 154.126ZM155.066 160.646C154.826 161.446 152.946 162.246 152.026 162.246C151.786 162.246 151.586 162.166 151.546 162.046C151.466 161.886 151.426 161.006 151.426 160.046C151.426 158.806 151.466 157.406 151.546 157.086C151.626 156.406 153.466 155.566 154.466 155.566C154.746 155.566 154.986 155.646 155.066 155.806C155.146 156.006 155.226 157.006 155.226 158.086C155.226 159.166 155.146 160.286 155.066 160.646Z"></path></g><path d="M180.666 153.806C179.466 153.806 178.066 154.126 176.986 154.606C173.426 156.166 171.546 160.446 171.546 164.246C171.546 164.606 171.546 164.966 171.586 165.326C171.786 167.486 172.826 169.526 174.146 171.126C175.666 172.966 177.866 173.806 180.266 173.806C187.266 173.806 188.306 167.446 188.306 166.286C188.306 165.406 187.866 165.406 187.706 165.406C187.386 165.406 187.106 165.446 187.106 166.126C187.106 171.286 182.706 172.486 181.426 172.486C178.186 172.486 176.466 169.326 176.466 162.726C176.466 156.126 179.506 154.766 181.666 154.766C183.746 154.766 184.586 155.726 184.586 156.126C184.586 156.486 184.466 157.006 183.866 157.006C182.266 157.006 181.346 158.726 181.346 159.966C181.346 162.246 183.306 162.966 184.426 162.966C184.426 162.966 187.466 162.846 187.466 159.526C187.466 154.286 181.426 153.806 180.666 153.806Z"></path></g><g><g><path d="M266.429 139.126C266.709 139.006 266.909 138.686 266.909 138.446L266.909 135.606C266.909 135.406 266.789 135.286 266.629 135.286C266.549 135.286 266.509 135.286 266.429 135.326C266.429 135.326 265.629 135.646 265.429 135.686C265.149 135.686 264.869 135.486 264.869 135.166C264.869 134.766 264.869 130.286 264.869 130.286C264.869 130.046 264.629 129.846 264.309 129.846C263.909 129.846 263.669 130.046 263.669 130.286C263.669 130.286 263.669 135.086 263.669 135.486C263.629 135.886 263.509 136.406 263.149 136.646C262.669 136.926 261.309 137.486 260.629 137.646C260.269 137.646 260.149 137.166 260.149 136.846C260.149 136.446 260.149 132.046 260.149 132.046C260.149 131.806 259.869 131.606 259.589 131.606C259.189 131.606 258.949 131.806 258.949 132.046C258.949 132.046 258.949 134.206 258.949 135.806L258.949 137.446C258.949 138.006 258.709 138.406 258.469 138.526C258.229 138.646 257.429 138.966 257.429 138.966C257.149 139.046 256.949 139.366 256.949 139.606L256.949 142.446C256.949 142.686 257.069 142.806 257.269 142.806C257.309 142.806 257.389 142.766 257.429 142.766C257.429 142.766 258.029 142.526 258.309 142.366C258.349 142.366 258.389 142.326 258.429 142.326C258.709 142.326 258.949 142.726 258.949 143.046L258.949 147.006C258.949 147.446 258.749 147.806 258.509 147.926C258.269 148.006 257.429 148.366 257.429 148.366C257.149 148.446 256.949 148.766 256.949 149.006L256.949 151.846C256.949 152.086 257.069 152.206 257.269 152.206C257.309 152.206 257.389 152.166 257.429 152.166C257.429 152.166 257.989 151.926 258.349 151.806C258.389 151.766 258.429 151.766 258.469 151.766C258.749 151.766 258.949 152.206 258.949 152.406C258.949 152.646 258.949 157.326 258.949 157.326C258.949 157.566 259.189 157.766 259.469 157.766C259.869 157.766 260.149 157.566 260.149 157.326C260.149 157.326 260.149 152.246 260.149 151.766C260.149 151.246 260.349 150.966 260.549 150.886L262.989 149.886C263.029 149.886 263.109 149.846 263.149 149.846C263.469 149.846 263.669 150.326 263.669 150.566C263.669 150.846 263.669 155.566 263.669 155.566C263.669 155.806 263.909 156.006 264.189 156.006C264.629 156.006 264.869 155.806 264.869 155.566C264.869 155.566 264.869 150.166 264.869 149.886C264.869 149.566 265.029 149.086 265.309 148.966C265.589 148.846 266.429 148.526 266.429 148.526C266.709 148.406 266.909 148.086 266.909 147.846L266.909 145.006C266.909 144.806 266.789 144.686 266.629 144.686C266.549 144.686 266.509 144.686 266.429 144.726C266.429 144.726 265.589 145.046 265.389 145.126C265.149 145.126 264.869 144.886 264.869 144.406L264.869 140.686C264.869 140.406 265.069 139.646 265.389 139.526C265.709 139.406 266.429 139.126 266.429 139.126ZM263.669 145.646C263.429 146.446 261.549 147.246 260.629 147.246C260.389 147.246 260.189 147.166 260.149 147.046C260.069 146.886 260.029 146.006 260.029 145.046C260.029 143.806 260.069 142.406 260.149 142.086C260.229 141.406 262.069 140.566 263.069 140.566C263.349 140.566 263.589 140.646 263.669 140.806C263.749 141.006 263.829 142.006 263.829 143.086C263.829 144.166 263.749 145.286 263.669 145.646Z"></path><path d="M277.429 154.126C277.709 154.006 277.909 153.686 277.909 153.446L277.909 150.606C277.909 150.406 277.789 150.286 277.629 150.286C277.549 150.286 277.509 150.286 277.429 150.326C277.429 150.326 276.629 150.646 276.429 150.686C276.149 150.686 275.869 150.486 275.869 150.166C275.869 149.766 275.869 145.286 275.869 145.286C275.869 145.046 275.629 144.846 275.309 144.846C274.909 144.846 274.669 145.046 274.669 145.286C274.669 145.286 274.669 150.086 274.669 150.486C274.629 150.886 274.509 151.406 274.149 151.646C273.669 151.926 272.309 152.486 271.629 152.646C271.269 152.646 271.149 152.166 271.149 151.846C271.149 151.446 271.149 147.046 271.149 147.046C271.149 146.806 270.869 146.606 270.589 146.606C270.189 146.606 269.949 146.806 269.949 147.046C269.949 147.046 269.949 149.206 269.949 150.806L269.949 152.446C269.949 153.006 269.709 153.406 269.469 153.526C269.229 153.646 268.429 153.966 268.429 153.966C268.149 154.046 267.949 154.366 267.949 154.606L267.949 157.446C267.949 157.686 268.069 157.806 268.269 157.806C268.309 157.806 268.389 157.766 268.429 157.766C268.429 157.766 269.029 157.526 269.309 157.366C269.349 157.366 269.389 157.326 269.429 157.326C269.709 157.326 269.949 157.726 269.949 158.046L269.949 162.006C269.949 162.446 269.749 162.806 269.509 162.926C269.269 163.006 268.429 163.366 268.429 163.366C268.149 163.446 267.949 163.766 267.949 164.006L267.949 166.846C267.949 167.086 268.069 167.206 268.269 167.206C268.309 167.206 268.389 167.166 268.429 167.166C268.429 167.166 268.989 166.926 269.349 166.806C269.389 166.766 269.429 166.766 269.469 166.766C269.749 166.766 269.949 167.206 269.949 167.406C269.949 167.646 269.949 172.326 269.949 172.326C269.949 172.566 270.189 172.766 270.469 172.766C270.869 172.766 271.149 172.566 271.149 172.326C271.149 172.326 271.149 167.246 271.149 166.766C271.149 166.246 271.349 165.966 271.549 165.886L273.989 164.886C274.029 164.886 274.109 164.846 274.149 164.846C274.469 164.846 274.669 165.326 274.669 165.566C274.669 165.846 274.669 170.566 274.669 170.566C274.669 170.806 274.909 171.006 275.189 171.006C275.629 171.006 275.869 170.806 275.869 170.566C275.869 170.566 275.869 165.166 275.869 164.886C275.869 164.566 276.029 164.086 276.309 163.966C276.589 163.846 277.429 163.526 277.429 163.526C277.709 163.406 277.909 163.086 277.909 162.846L277.909 160.006C277.909 159.806 277.789 159.686 277.629 159.686C277.549 159.686 277.509 159.686 277.429 159.726C277.429 159.726 276.589 160.046 276.389 160.126C276.149 160.126 275.869 159.886 275.869 159.406L275.869 155.686C275.869 155.406 276.069 154.646 276.389 154.526C276.709 154.406 277.429 154.126 277.429 154.126ZM274.669 160.646C274.429 161.446 272.549 162.246 271.629 162.246C271.389 162.246 271.189 162.166 271.149 162.046C271.069 161.886 271.029 161.006 271.029 160.046C271.029 158.806 271.069 157.406 271.149 157.086C271.229 156.406 273.069 155.566 274.069 155.566C274.349 155.566 274.589 155.646 274.669 155.806C274.749 156.006 274.829 157.006 274.829 158.086C274.829 159.166 274.749 160.286 274.669 160.646Z"></path></g></g><g><g><path d="M345.531 139.126C345.811 139.006 346.011 138.686 346.011 138.446L346.011 135.606C346.011 135.406 345.891 135.286 345.731 135.286C345.651 135.286 345.611 135.286 345.531 135.326C345.531 135.326 344.731 135.646 344.531 135.686C344.251 135.686 343.971 135.486 343.971 135.166C343.971 134.766 343.971 130.286 343.971 130.286C343.971 130.046 343.731 129.846 343.411 129.846C343.011 129.846 342.771 130.046 342.771 130.286C342.771 130.286 342.771 135.086 342.771 135.486C342.731 135.886 342.611 136.406 342.251 136.646C341.771 136.926 340.411 137.486 339.731 137.646C339.371 137.646 339.251 137.166 339.251 136.846C339.251 136.446 339.251 132.046 339.251 132.046C339.251 131.806 338.971 131.606 338.691 131.606C338.291 131.606 338.051 131.806 338.051 132.046C338.051 132.046 338.051 134.206 338.051 135.806L338.051 137.446C338.051 138.006 337.811 138.406 337.571 138.526C337.331 138.646 336.531 138.966 336.531 138.966C336.251 139.046 336.051 139.366 336.051 139.606L336.051 142.446C336.051 142.686 336.171 142.806 336.371 142.806C336.411 142.806 336.491 142.766 336.531 142.766C336.531 142.766 337.131 142.526 337.411 142.366C337.451 142.366 337.491 142.326 337.531 142.326C337.811 142.326 338.051 142.726 338.051 143.046L338.051 147.006C338.051 147.446 337.851 147.806 337.611 147.926C337.371 148.006 336.531 148.366 336.531 148.366C336.251 148.446 336.051 148.766 336.051 149.006L336.051 151.846C336.051 152.086 336.171 152.206 336.371 152.206C336.411 152.206 336.491 152.166 336.531 152.166C336.531 152.166 337.091 151.926 337.451 151.806C337.491 151.766 337.531 151.766 337.571 151.766C337.851 151.766 338.051 152.206 338.051 152.406C338.051 152.646 338.051 157.326 338.051 157.326C338.051 157.566 338.291 157.766 338.571 157.766C338.971 157.766 339.251 157.566 339.251 157.326C339.251 157.326 339.251 152.246 339.251 151.766C339.251 151.246 339.451 150.966 339.651 150.886L342.091 149.886C342.131 149.886 342.211 149.846 342.251 149.846C342.571 149.846 342.771 150.326 342.771 150.566C342.771 150.846 342.771 155.566 342.771 155.566C342.771 155.806 343.011 156.006 343.291 156.006C343.731 156.006 343.971 155.806 343.971 155.566C343.971 155.566 343.971 150.166 343.971 149.886C343.971 149.566 344.131 149.086 344.411 148.966C344.691 148.846 345.531 148.526 345.531 148.526C345.811 148.406 346.011 148.086 346.011 147.846L346.011 145.006C346.011 144.806 345.891 144.686 345.731 144.686C345.651 144.686 345.611 144.686 345.531 144.726C345.531 144.726 344.691 145.046 344.491 145.126C344.251 145.126 343.971 144.886 343.971 144.406L343.971 140.686C343.971 140.406 344.171 139.646 344.491 139.526C344.811 139.406 345.531 139.126 345.531 139.126ZM342.771 145.646C342.531 146.446 340.651 147.246 339.731 147.246C339.491 147.246 339.291 147.166 339.251 147.046C339.171 146.886 339.131 146.006 339.131 145.046C339.131 143.806 339.171 142.406 339.251 142.086C339.331 141.406 341.171 140.566 342.171 140.566C342.451 140.566 342.691 140.646 342.771 140.806C342.851 141.006 342.931 142.006 342.931 143.086C342.931 144.166 342.851 145.286 342.771 145.646Z"></path><path d="M356.531 154.126C356.811 154.006 357.011 153.686 357.011 153.446L357.011 150.606C357.011 150.406 356.891 150.286 356.731 150.286C356.651 150.286 356.611 150.286 356.531 150.326C356.531 150.326 355.731 150.646 355.531 150.686C355.251 150.686 354.971 150.486 354.971 150.166C354.971 149.766 354.971 145.286 354.971 145.286C354.971 145.046 354.731 144.846 354.411 144.846C354.011 144.846 353.771 145.046 353.771 145.286C353.771 145.286 353.771 150.086 353.771 150.486C353.731 150.886 353.611 151.406 353.251 151.646C352.771 151.926 351.411 152.486 350.731 152.646C350.371 152.646 350.251 152.166 350.251 151.846C350.251 151.446 350.251 147.046 350.251 147.046C350.251 146.806 349.971 146.606 349.691 146.606C349.291 146.606 349.051 146.806 349.051 147.046C349.051 147.046 349.051 149.206 349.051 150.806L349.051 152.446C349.051 153.006 348.811 153.406 348.571 153.526C348.331 153.646 347.531 153.966 347.531 153.966C347.251 154.046 347.051 154.366 347.051 154.606L347.051 157.446C347.051 157.686 347.171 157.806 347.371 157.806C347.411 157.806 347.491 157.766 347.531 157.766C347.531 157.766 348.131 157.526 348.411 157.366C348.451 157.366 348.491 157.326 348.531 157.326C348.811 157.326 349.051 157.726 349.051 158.046L349.051 162.006C349.051 162.446 348.851 162.806 348.611 162.926C348.371 163.006 347.531 163.366 347.531 163.366C347.251 163.446 347.051 163.766 347.051 164.006L347.051 166.846C347.051 167.086 347.171 167.206 347.371 167.206C347.411 167.206 347.491 167.166 347.531 167.166C347.531 167.166 348.091 166.926 348.451 166.806C348.491 166.766 348.531 166.766 348.571 166.766C348.851 166.766 349.051 167.206 349.051 167.406C349.051 167.646 349.051 172.326 349.051 172.326C349.051 172.566 349.291 172.766 349.571 172.766C349.971 172.766 350.251 172.566 350.251 172.326C350.251 172.326 350.251 167.246 350.251 166.766C350.251 166.246 350.451 165.966 350.651 165.886L353.091 164.886C353.131 164.886 353.211 164.846 353.251 164.846C353.571 164.846 353.771 165.326 353.771 165.566C353.771 165.846 353.771 170.566 353.771 170.566C353.771 170.806 354.011 171.006 354.291 171.006C354.731 171.006 354.971 170.806 354.971 170.566C354.971 170.566 354.971 165.166 354.971 164.886C354.971 164.566 355.131 164.086 355.411 163.966C355.691 163.846 356.531 163.526 356.531 163.526C356.811 163.406 357.011 163.086 357.011 162.846L357.011 160.006C357.011 159.806 356.891 159.686 356.731 159.686C356.651 159.686 356.611 159.686 356.531 159.726C356.531 159.726 355.691 160.046 355.491 160.126C355.251 160.126 354.971 159.886 354.971 159.406L354.971 155.686C354.971 155.406 355.171 154.646 355.491 154.526C355.811 154.406 356.531 154.126 356.531 154.126ZM353.771 160.646C353.531 161.446 351.651 162.246 350.731 162.246C350.491 162.246 350.291 162.166 350.251 162.046C350.171 161.886 350.131 161.006 350.131 160.046C350.131 158.806 350.171 157.406 350.251 157.086C350.331 156.406 352.171 155.566 353.171 155.566C353.451 155.566 353.691 155.646 353.771 155.806C353.851 156.006 353.931 157.006 353.931 158.086C353.931 159.166 353.851 160.286 353.771 160.646Z"></path></g></g><g><g><path d="M424.634 139.126C424.914 139.006 425.114 138.686 425.114 138.446L425.114 135.606C425.114 135.406 424.994 135.286 424.834 135.286C424.754 135.286 424.714 135.286 424.634 135.326C424.634 135.326 423.834 135.646 423.634 135.686C423.354 135.686 423.074 135.486 423.074 135.166C423.074 134.766 423.074 130.286 423.074 130.286C423.074 130.046 422.834 129.846 422.514 129.846C422.114 129.846 421.874 130.046 421.874 130.286C421.874 130.286 421.874 135.086 421.874 135.486C421.834 135.886 421.714 136.406 421.354 136.646C420.874 136.926 419.514 137.486 418.834 137.646C418.474 137.646 418.354 137.166 418.354 136.846C418.354 136.446 418.354 132.046 418.354 132.046C418.354 131.806 418.074 131.606 417.794 131.606C417.394 131.606 417.154 131.806 417.154 132.046C417.154 132.046 417.154 134.206 417.154 135.806L417.154 137.446C417.154 138.006 416.914 138.406 416.674 138.526C416.434 138.646 415.634 138.966 415.634 138.966C415.354 139.046 415.154 139.366 415.154 139.606L415.154 142.446C415.154 142.686 415.274 142.806 415.474 142.806C415.514 142.806 415.594 142.766 415.634 142.766C415.634 142.766 416.234 142.526 416.514 142.366C416.554 142.366 416.594 142.326 416.634 142.326C416.914 142.326 417.154 142.726 417.154 143.046L417.154 147.006C417.154 147.446 416.954 147.806 416.714 147.926C416.474 148.006 415.634 148.366 415.634 148.366C415.354 148.446 415.154 148.766 415.154 149.006L415.154 151.846C415.154 152.086 415.274 152.206 415.474 152.206C415.514 152.206 415.594 152.166 415.634 152.166C415.634 152.166 416.194 151.926 416.554 151.806C416.594 151.766 416.634 151.766 416.674 151.766C416.954 151.766 417.154 152.206 417.154 152.406C417.154 152.646 417.154 157.326 417.154 157.326C417.154 157.566 417.394 157.766 417.674 157.766C418.074 157.766 418.354 157.566 418.354 157.326C418.354 157.326 418.354 152.246 418.354 151.766C418.354 151.246 418.554 150.966 418.754 150.886L421.194 149.886C421.234 149.886 421.314 149.846 421.354 149.846C421.674 149.846 421.874 150.326 421.874 150.566C421.874 150.846 421.874 155.566 421.874 155.566C421.874 155.806 422.114 156.006 422.394 156.006C422.834 156.006 423.074 155.806 423.074 155.566C423.074 155.566 423.074 150.166 423.074 149.886C423.074 149.566 423.234 149.086 423.514 148.966C423.794 148.846 424.634 148.526 424.634 148.526C424.914 148.406 425.114 148.086 425.114 147.846L425.114 145.006C425.114 144.806 424.994 144.686 424.834 144.686C424.754 144.686 424.714 144.686 424.634 144.726C424.634 144.726 423.794 145.046 423.594 145.126C423.354 145.126 423.074 144.886 423.074 144.406L423.074 140.686C423.074 140.406 423.274 139.646 423.594 139.526C423.914 139.406 424.634 139.126 424.634 139.126ZM421.874 145.646C421.634 146.446 419.754 147.246 418.834 147.246C418.594 147.246 418.394 147.166 418.354 147.046C418.274 146.886 418.234 146.006 418.234 145.046C418.234 143.806 418.274 142.406 418.354 142.086C418.434 141.406 420.274 140.566 421.274 140.566C421.554 140.566 421.794 140.646 421.874 140.806C421.954 141.006 422.034 142.006 422.034 143.086C422.034 144.166 421.954 145.286 421.874 145.646Z"></path><path d="M435.634 154.126C435.914 154.006 436.114 153.686 436.114 153.446L436.114 150.606C436.114 150.406 435.994 150.286 435.834 150.286C435.754 150.286 435.714 150.286 435.634 150.326C435.634 150.326 434.834 150.646 434.634 150.686C434.354 150.686 434.074 150.486 434.074 150.166C434.074 149.766 434.074 145.286 434.074 145.286C434.074 145.046 433.834 144.846 433.514 144.846C433.114 144.846 432.874 145.046 432.874 145.286C432.874 145.286 432.874 150.086 432.874 150.486C432.834 150.886 432.714 151.406 432.354 151.646C431.874 151.926 430.514 152.486 429.834 152.646C429.474 152.646 429.354 152.166 429.354 151.846C429.354 151.446 429.354 147.046 429.354 147.046C429.354 146.806 429.074 146.606 428.794 146.606C428.394 146.606 428.154 146.806 428.154 147.046C428.154 147.046 428.154 149.206 428.154 150.806L428.154 152.446C428.154 153.006 427.914 153.406 427.674 153.526C427.434 153.646 426.634 153.966 426.634 153.966C426.354 154.046 426.154 154.366 426.154 154.606L426.154 157.446C426.154 157.686 426.274 157.806 426.474 157.806C426.514 157.806 426.594 157.766 426.634 157.766C426.634 157.766 427.234 157.526 427.514 157.366C427.554 157.366 427.594 157.326 427.634 157.326C427.914 157.326 428.154 157.726 428.154 158.046L428.154 162.006C428.154 162.446 427.954 162.806 427.714 162.926C427.474 163.006 426.634 163.366 426.634 163.366C426.354 163.446 426.154 163.766 426.154 164.006L426.154 166.846C426.154 167.086 426.274 167.206 426.474 167.206C426.514 167.206 426.594 167.166 426.634 167.166C426.634 167.166 427.194 166.926 427.554 166.806C427.594 166.766 427.634 166.766 427.674 166.766C427.954 166.766 428.154 167.206 428.154 167.406C428.154 167.646 428.154 172.326 428.154 172.326C428.154 172.566 428.394 172.766 428.674 172.766C429.074 172.766 429.354 172.566 429.354 172.326C429.354 172.326 429.354 167.246 429.354 166.766C429.354 166.246 429.554 165.966 429.754 165.886L432.194 164.886C432.234 164.886 432.314 164.846 432.354 164.846C432.674 164.846 432.874 165.326 432.874 165.566C432.874 165.846 432.874 170.566 432.874 170.566C432.874 170.806 433.114 171.006 433.394 171.006C433.834 171.006 434.074 170.806 434.074 170.566C434.074 170.566 434.074 165.166 434.074 164.886C434.074 164.566 434.234 164.086 434.514 163.966C434.794 163.846 435.634 163.526 435.634 163.526C435.914 163.406 436.114 163.086 436.114 162.846L436.114 160.006C436.114 159.806 435.994 159.686 435.834 159.686C435.754 159.686 435.714 159.686 435.634 159.726C435.634 159.726 434.794 160.046 434.594 160.126C434.354 160.126 434.074 159.886 434.074 159.406L434.074 155.686C434.074 155.406 434.274 154.646 434.594 154.526C434.914 154.406 435.634 154.126 435.634 154.126ZM432.874 160.646C432.634 161.446 430.754 162.246 429.834 162.246C429.594 162.246 429.394 162.166 429.354 162.046C429.274 161.886 429.234 161.006 429.234 160.046C429.234 158.806 429.274 157.406 429.354 157.086C429.434 156.406 431.274 155.566 432.274 155.566C432.554 155.566 432.794 155.646 432.874 155.806C432.954 156.006 433.034 157.006 433.034 158.086C433.034 159.166 432.954 160.286 432.874 160.646Z"></path></g></g><g><line stroke="black" stroke-width="1.6" x1="495.0566489888598" x2="495.0566489888598" y1="143.8461538461538" y2="183.8461538461538"></line></g><g><g><path d="M216.206 179.486C220.206 179.486 225.126 175.766 225.126 171.966C225.126 169.686 223.326 168.206 220.726 168.206C215.806 168.206 211.846 171.846 211.846 175.726C211.846 178.086 213.766 179.486 216.206 179.486Z"></path></g><line stroke="#000000" stroke-width="1.2" x1="224.52615384615387" x2="224.52615384615387" y1="172.0061538461538" y2="137.0061538461538"></line><text font-family="Alegreya" font-size="22" text-anchor="middle" x="218.48615384615385" y="223.8461538461538">major</text></g><g><g><path d="M295.309 179.486C299.309 179.486 304.229 175.766 304.229 171.966C304.229 169.686 302.429 168.206 299.829 168.206C294.909 168.206 290.949 171.846 290.949 175.726C290.949 178.086 292.869 179.486 295.309 179.486Z"></path></g><line stroke="#000000" stroke-width="1.2" x1="303.62877763183036" x2="303.62877763183036" y1="172.0061538461538" y2="137.0061538461538"></line><text font-family="Alegreya" font-size="22" text-anchor="middle" x="297.58877763183034" y="223.8461538461538">minor</text></g><g><g><path d="M374.411 179.486C378.411 179.486 383.331 175.766 383.331 171.966C383.331 169.686 381.531 168.206 378.931 168.206C374.011 168.206 370.051 171.846 370.051 175.726C370.051 178.086 371.971 179.486 374.411 179.486Z"></path></g><line stroke="#000000" stroke-width="1.2" x1="382.73140141750685" x2="382.73140141750685" y1="172.0061538461538" y2="137.0061538461538"></line><text font-family="Alegreya" font-size="22" text-anchor="middle" x="376.6914014175068" y="223.8461538461538">ionian</text></g><g><g><path d="M453.514 179.486C457.514 179.486 462.434 175.766 462.434 171.966C462.434 169.686 460.634 168.206 458.034 168.206C453.114 168.206 449.154 171.846 449.154 175.726C449.154 178.086 451.074 179.486 453.514 179.486Z"></path></g><line stroke="#000000" stroke-width="1.2" x1="461.83402520318333" x2="461.83402520318333" y1="172.0061538461538" y2="137.0061538461538"></line><text font-family="Alegreya" font-size="22" text-anchor="middle" x="455.7940252031833" y="223.8461538461538">dorian</text></g></g><g><g><g><path d="M520.337 139.126C520.617 139.006 520.817 138.686 520.817 138.446L520.817 135.606C520.817 135.406 520.697 135.286 520.537 135.286C520.457 135.286 520.417 135.286 520.337 135.326C520.337 135.326 519.537 135.646 519.337 135.686C519.057 135.686 518.777 135.486 518.777 135.166C518.777 134.766 518.777 130.286 518.777 130.286C518.777 130.046 518.537 129.846 518.217 129.846C517.817 129.846 517.577 130.046 517.577 130.286C517.577 130.286 517.577 135.086 517.577 135.486C517.537 135.886 517.417 136.406 517.057 136.646C516.577 136.926 515.217 137.486 514.537 137.646C514.177 137.646 514.057 137.166 514.057 136.846C514.057 136.446 514.057 132.046 514.057 132.046C514.057 131.806 513.777 131.606 513.497 131.606C513.097 131.606 512.857 131.806 512.857 132.046C512.857 132.046 512.857 134.206 512.857 135.806L512.857 137.446C512.857 138.006 512.617 138.406 512.377 138.526C512.137 138.646 511.337 138.966 511.337 138.966C511.057 139.046 510.857 139.366 510.857 139.606L510.857 142.446C510.857 142.686 510.977 142.806 511.177 142.806C511.217 142.806 511.297 142.766 511.337 142.766C511.337 142.766 511.937 142.526 512.217 142.366C512.257 142.366 512.297 142.326 512.337 142.326C512.617 142.326 512.857 142.726 512.857 143.046L512.857 147.006C512.857 147.446 512.657 147.806 512.417 147.926C512.177 148.006 511.337 148.366 511.337 148.366C511.057 148.446 510.857 148.766 510.857 149.006L510.857 151.846C510.857 152.086 510.977 152.206 511.177 152.206C511.217 152.206 511.297 152.166 511.337 152.166C511.337 152.166 511.897 151.926 512.257 151.806C512.297 151.766 512.337 151.766 512.377 151.766C512.657 151.766 512.857 152.206 512.857 152.406C512.857 152.646 512.857 157.326 512.857 157.326C512.857 157.566 513.097 157.766 513.377 157.766C513.777 157.766 514.057 157.566 514.057 157.326C514.057 157.326 514.057 152.246 514.057 151.766C514.057 151.246 514.257 150.966 514.457 150.886L516.897 149.886C516.937 149.886 517.017 149.846 517.057 149.846C517.377 149.846 517.577 150.326 517.577 150.566C517.577 150.846 517.577 155.566 517.577 155.566C517.577 155.806 517.817 156.006 518.097 156.006C518.537 156.006 518.777 155.806 518.777 155.566C518.777 155.566 518.777 150.166 518.777 149.886C518.777 149.566 518.937 149.086 519.217 148.966C519.497 148.846 520.337 148.526 520.337 148.526C520.617 148.406 520.817 148.086 520.817 147.846L520.817 145.006C520.817 144.806 520.697 144.686 520.537 144.686C520.457 144.686 520.417 144.686 520.337 144.726C520.337 144.726 519.497 145.046 519.297 145.126C519.057 145.126 518.777 144.886 518.777 144.406L518.777 140.686C518.777 140.406 518.977 139.646 519.297 139.526C519.617 139.406 520.337 139.126 520.337 139.126ZM517.577 145.646C517.337 146.446 515.457 147.246 514.537 147.246C514.297 147.246 514.097 147.166 514.057 147.046C513.977 146.886 513.937 146.006 513.937 145.046C513.937 143.806 513.977 142.406 514.057 142.086C514.137 141.406 515.977 140.566 516.977 140.566C517.257 140.566 517.497 140.646 517.577 140.806C517.657 141.006 517.737 142.006 517.737 143.086C517.737 144.166 517.657 145.286 517.577 145.646Z"></path><path d="M531.337 154.126C531.617 154.006 531.817 153.686 531.817 153.446L531.817 150.606C531.817 150.406 531.697 150.286 531.537 150.286C531.457 150.286 531.417 150.286 531.337 150.326C531.337 150.326 530.537 150.646 530.337 150.686C530.057 150.686 529.777 150.486 529.777 150.166C529.777 149.766 529.777 145.286 529.777 145.286C529.777 145.046 529.537 144.846 529.217 144.846C528.817 144.846 528.577 145.046 528.577 145.286C528.577 145.286 528.577 150.086 528.577 150.486C528.537 150.886 528.417 151.406 528.057 151.646C527.577 151.926 526.217 152.486 525.537 152.646C525.177 152.646 525.057 152.166 525.057 151.846C525.057 151.446 525.057 147.046 525.057 147.046C525.057 146.806 524.777 146.606 524.497 146.606C524.097 146.606 523.857 146.806 523.857 147.046C523.857 147.046 523.857 149.206 523.857 150.806L523.857 152.446C523.857 153.006 523.617 153.406 523.377 153.526C523.137 153.646 522.337 153.966 522.337 153.966C522.057 154.046 521.857 154.366 521.857 154.606L521.857 157.446C521.857 157.686 521.977 157.806 522.177 157.806C522.217 157.806 522.297 157.766 522.337 157.766C522.337 157.766 522.937 157.526 523.217 157.366C523.257 157.366 523.297 157.326 523.337 157.326C523.617 157.326 523.857 157.726 523.857 158.046L523.857 162.006C523.857 162.446 523.657 162.806 523.417 162.926C523.177 163.006 522.337 163.366 522.337 163.366C522.057 163.446 521.857 163.766 521.857 164.006L521.857 166.846C521.857 167.086 521.977 167.206 522.177 167.206C522.217 167.206 522.297 167.166 522.337 167.166C522.337 167.166 522.897 166.926 523.257 166.806C523.297 166.766 523.337 166.766 523.377 166.766C523.657 166.766 523.857 167.206 523.857 167.406C523.857 167.646 523.857 172.326 523.857 172.326C523.857 172.566 524.097 172.766 524.377 172.766C524.777 172.766 525.057 172.566 525.057 172.326C525.057 172.326 525.057 167.246 525.057 166.766C525.057 166.246 525.257 165.966 525.457 165.886L527.897 164.886C527.937 164.886 528.017 164.846 528.057 164.846C528.377 164.846 528.577 165.326 528.577 165.566C528.577 165.846 528.577 170.566 528.577 170.566C528.577 170.806 528.817 171.006 529.097 171.006C529.537 171.006 529.777 170.806 529.777 170.566C529.777 170.566 529.777 165.166 529.777 164.886C529.777 164.566 529.937 164.086 530.217 163.966C530.497 163.846 531.337 163.526 531.337 163.526C531.617 163.406 531.817 163.086 531.817 162.846L531.817 160.006C531.817 159.806 531.697 159.686 531.537 159.686C531.457 159.686 531.417 159.686 531.337 159.726C531.337 159.726 530.497 160.046 530.297 160.126C530.057 160.126 529.777 159.886 529.777 159.406L529.777 155.686C529.777 155.406 529.977 154.646 530.297 154.526C530.617 154.406 531.337 154.126 531.337 154.126ZM528.577 160.646C528.337 161.446 526.457 162.246 525.537 162.246C525.297 162.246 525.097 162.166 525.057 162.046C524.977 161.886 524.937 161.006 524.937 160.046C524.937 158.806 524.977 157.406 525.057 157.086C525.137 156.406 526.977 155.566 527.977 155.566C528.257 155.566 528.497 155.646 528.577 155.806C528.657 156.006 528.737 157.006 528.737 158.086C528.737 159.166 528.657 160.286 528.577 160.646Z"></path></g></g><g><g><path d="M599.439 139.126C599.719 139.006 599.919 138.686 599.919 138.446L599.919 135.606C599.919 135.406 599.799 135.286 599.639 135.286C599.559 135.286 599.519 135.286 599.439 135.326C599.439 135.326 598.639 135.646 598.439 135.686C598.159 135.686 597.879 135.486 597.879 135.166C597.879 134.766 597.879 130.286 597.879 130.286C597.879 130.046 597.639 129.846 597.319 129.846C596.919 129.846 596.679 130.046 596.679 130.286C596.679 130.286 596.679 135.086 596.679 135.486C596.639 135.886 596.519 136.406 596.159 136.646C595.679 136.926 594.319 137.486 593.639 137.646C593.279 137.646 593.159 137.166 593.159 136.846C593.159 136.446 593.159 132.046 593.159 132.046C593.159 131.806 592.879 131.606 592.599 131.606C592.199 131.606 591.959 131.806 591.959 132.046C591.959 132.046 591.959 134.206 591.959 135.806L591.959 137.446C591.959 138.006 591.719 138.406 591.479 138.526C591.239 138.646 590.439 138.966 590.439 138.966C590.159 139.046 589.959 139.366 589.959 139.606L589.959 142.446C589.959 142.686 590.079 142.806 590.279 142.806C590.319 142.806 590.399 142.766 590.439 142.766C590.439 142.766 591.039 142.526 591.319 142.366C591.359 142.366 591.399 142.326 591.439 142.326C591.719 142.326 591.959 142.726 591.959 143.046L591.959 147.006C591.959 147.446 591.759 147.806 591.519 147.926C591.279 148.006 590.439 148.366 590.439 148.366C590.159 148.446 589.959 148.766 589.959 149.006L589.959 151.846C589.959 152.086 590.079 152.206 590.279 152.206C590.319 152.206 590.399 152.166 590.439 152.166C590.439 152.166 590.999 151.926 591.359 151.806C591.399 151.766 591.439 151.766 591.479 151.766C591.759 151.766 591.959 152.206 591.959 152.406C591.959 152.646 591.959 157.326 591.959 157.326C591.959 157.566 592.199 157.766 592.479 157.766C592.879 157.766 593.159 157.566 593.159 157.326C593.159 157.326 593.159 152.246 593.159 151.766C593.159 151.246 593.359 150.966 593.559 150.886L595.999 149.886C596.039 149.886 596.119 149.846 596.159 149.846C596.479 149.846 596.679 150.326 596.679 150.566C596.679 150.846 596.679 155.566 596.679 155.566C596.679 155.806 596.919 156.006 597.199 156.006C597.639 156.006 597.879 155.806 597.879 155.566C597.879 155.566 597.879 150.166 597.879 149.886C597.879 149.566 598.039 149.086 598.319 148.966C598.599 148.846 599.439 148.526 599.439 148.526C599.719 148.406 599.919 148.086 599.919 147.846L599.919 145.006C599.919 144.806 599.799 144.686 599.639 144.686C599.559 144.686 599.519 144.686 599.439 144.726C599.439 144.726 598.599 145.046 598.399 145.126C598.159 145.126 597.879 144.886 597.879 144.406L597.879 140.686C597.879 140.406 598.079 139.646 598.399 139.526C598.719 139.406 599.439 139.126 599.439 139.126ZM596.679 145.646C596.439 146.446 594.559 147.246 593.639 147.246C593.399 147.246 593.199 147.166 593.159 147.046C593.079 146.886 593.039 146.006 593.039 145.046C593.039 143.806 593.079 142.406 593.159 142.086C593.239 141.406 595.079 140.566 596.079 140.566C596.359 140.566 596.599 140.646 596.679 140.806C596.759 141.006 596.839 142.006 596.839 143.086C596.839 144.166 596.759 145.286 596.679 145.646Z"></path><path d="M610.439 154.126C610.719 154.006 610.919 153.686 610.919 153.446L610.919 150.606C610.919 150.406 610.799 150.286 610.639 150.286C610.559 150.286 610.519 150.286 610.439 150.326C610.439 150.326 609.639 150.646 609.439 150.686C609.159 150.686 608.879 150.486 608.879 150.166C608.879 149.766 608.879 145.286 608.879 145.286C608.879 145.046 608.639 144.846 608.319 144.846C607.919 144.846 607.679 145.046 607.679 145.286C607.679 145.286 607.679 150.086 607.679 150.486C607.639 150.886 607.519 151.406 607.159 151.646C606.679 151.926 605.319 152.486 604.639 152.646C604.279 152.646 604.159 152.166 604.159 151.846C604.159 151.446 604.159 147.046 604.159 147.046C604.159 146.806 603.879 146.606 603.599 146.606C603.199 146.606 602.959 146.806 602.959 147.046C602.959 147.046 602.959 149.206 602.959 150.806L602.959 152.446C602.959 153.006 602.719 153.406 602.479 153.526C602.239 153.646 601.439 153.966 601.439 153.966C601.159 154.046 600.959 154.366 600.959 154.606L600.959 157.446C600.959 157.686 601.079 157.806 601.279 157.806C601.319 157.806 601.399 157.766 601.439 157.766C601.439 157.766 602.039 157.526 602.319 157.366C602.359 157.366 602.399 157.326 602.439 157.326C602.719 157.326 602.959 157.726 602.959 158.046L602.959 162.006C602.959 162.446 602.759 162.806 602.519 162.926C602.279 163.006 601.439 163.366 601.439 163.366C601.159 163.446 600.959 163.766 600.959 164.006L600.959 166.846C600.959 167.086 601.079 167.206 601.279 167.206C601.319 167.206 601.399 167.166 601.439 167.166C601.439 167.166 601.999 166.926 602.359 166.806C602.399 166.766 602.439 166.766 602.479 166.766C602.759 166.766 602.959 167.206 602.959 167.406C602.959 167.646 602.959 172.326 602.959 172.326C602.959 172.566 603.199 172.766 603.479 172.766C603.879 172.766 604.159 172.566 604.159 172.326C604.159 172.326 604.159 167.246 604.159 166.766C604.159 166.246 604.359 165.966 604.559 165.886L606.999 164.886C607.039 164.886 607.119 164.846 607.159 164.846C607.479 164.846 607.679 165.326 607.679 165.566C607.679 165.846 607.679 170.566 607.679 170.566C607.679 170.806 607.919 171.006 608.199 171.006C608.639 171.006 608.879 170.806 608.879 170.566C608.879 170.566 608.879 165.166 608.879 164.886C608.879 164.566 609.039 164.086 609.319 163.966C609.599 163.846 610.439 163.526 610.439 163.526C610.719 163.406 610.919 163.086 610.919 162.846L610.919 160.006C610.919 159.806 610.799 159.686 610.639 159.686C610.559 159.686 610.519 159.686 610.439 159.726C610.439 159.726 609.599 160.046 609.399 160.126C609.159 160.126 608.879 159.886 608.879 159.406L608.879 155.686C608.879 155.406 609.079 154.646 609.399 154.526C609.719 154.406 610.439 154.126 610.439 154.126ZM607.679 160.646C607.439 161.446 605.559 162.246 604.639 162.246C604.399 162.246 604.199 162.166 604.159 162.046C604.079 161.886 604.039 161.006 604.039 160.046C604.039 158.806 604.079 157.406 604.159 157.086C604.239 156.406 606.079 155.566 607.079 155.566C607.359 155.566 607.599 155.646 607.679 155.806C607.759 156.006 607.839 157.006 607.839 158.086C607.839 159.166 607.759 160.286 607.679 160.646Z"></path></g></g><g><g><path d="M678.542 139.126C678.822 139.006 679.022 138.686 679.022 138.446L679.022 135.606C679.022 135.406 678.902 135.286 678.742 135.286C678.662 135.286 678.622 135.286 678.542 135.326C678.542 135.326 677.742 135.646 677.542 135.686C677.262 135.686 676.982 135.486 676.982 135.166C676.982 134.766 676.982 130.286 676.982 130.286C676.982 130.046 676.742 129.846 676.422 129.846C676.022 129.846 675.782 130.046 675.782 130.286C675.782 130.286 675.782 135.086 675.782 135.486C675.742 135.886 675.622 136.406 675.262 136.646C674.782 136.926 673.422 137.486 672.742 137.646C672.382 137.646 672.262 137.166 672.262 136.846C672.262 136.446 672.262 132.046 672.262 132.046C672.262 131.806 671.982 131.606 671.702 131.606C671.302 131.606 671.062 131.806 671.062 132.046C671.062 132.046 671.062 134.206 671.062 135.806L671.062 137.446C671.062 138.006 670.822 138.406 670.582 138.526C670.342 138.646 669.542 138.966 669.542 138.966C669.262 139.046 669.062 139.366 669.062 139.606L669.062 142.446C669.062 142.686 669.182 142.806 669.382 142.806C669.422 142.806 669.502 142.766 669.542 142.766C669.542 142.766 670.142 142.526 670.422 142.366C670.462 142.366 670.502 142.326 670.542 142.326C670.822 142.326 671.062 142.726 671.062 143.046L671.062 147.006C671.062 147.446 670.862 147.806 670.622 147.926C670.382 148.006 669.542 148.366 669.542 148.366C669.262 148.446 669.062 148.766 669.062 149.006L669.062 151.846C669.062 152.086 669.182 152.206 669.382 152.206C669.422 152.206 669.502 152.166 669.542 152.166C669.542 152.166 670.102 151.926 670.462 151.806C670.502 151.766 670.542 151.766 670.582 151.766C670.862 151.766 671.062 152.206 671.062 152.406C671.062 152.646 671.062 157.326 671.062 157.326C671.062 157.566 671.302 157.766 671.582 157.766C671.982 157.766 672.262 157.566 672.262 157.326C672.262 157.326 672.262 152.246 672.262 151.766C672.262 151.246 672.462 150.966 672.662 150.886L675.102 149.886C675.142 149.886 675.222 149.846 675.262 149.846C675.582 149.846 675.782 150.326 675.782 150.566C675.782 150.846 675.782 155.566 675.782 155.566C675.782 155.806 676.022 156.006 676.302 156.006C676.742 156.006 676.982 155.806 676.982 155.566C676.982 155.566 676.982 150.166 676.982 149.886C676.982 149.566 677.142 149.086 677.422 148.966C677.702 148.846 678.542 148.526 678.542 148.526C678.822 148.406 679.022 148.086 679.022 147.846L679.022 145.006C679.022 144.806 678.902 144.686 678.742 144.686C678.662 144.686 678.622 144.686 678.542 144.726C678.542 144.726 677.702 145.046 677.502 145.126C677.262 145.126 676.982 144.886 676.982 144.406L676.982 140.686C676.982 140.406 677.182 139.646 677.502 139.526C677.822 139.406 678.542 139.126 678.542 139.126ZM675.782 145.646C675.542 146.446 673.662 147.246 672.742 147.246C672.502 147.246 672.302 147.166 672.262 147.046C672.182 146.886 672.142 146.006 672.142 145.046C672.142 143.806 672.182 142.406 672.262 142.086C672.342 141.406 674.182 140.566 675.182 140.566C675.462 140.566 675.702 140.646 675.782 140.806C675.862 141.006 675.942 142.006 675.942 143.086C675.942 144.166 675.862 145.286 675.782 145.646Z"></path><path d="M689.542 154.126C689.822 154.006 690.022 153.686 690.022 153.446L690.022 150.606C690.022 150.406 689.902 150.286 689.742 150.286C689.662 150.286 689.622 150.286 689.542 150.326C689.542 150.326 688.742 150.646 688.542 150.686C688.262 150.686 687.982 150.486 687.982 150.166C687.982 149.766 687.982 145.286 687.982 145.286C687.982 145.046 687.742 144.846 687.422 144.846C687.022 144.846 686.782 145.046 686.782 145.286C686.782 145.286 686.782 150.086 686.782 150.486C686.742 150.886 686.622 151.406 686.262 151.646C685.782 151.926 684.422 152.486 683.742 152.646C683.382 152.646 683.262 152.166 683.262 151.846C683.262 151.446 683.262 147.046 683.262 147.046C683.262 146.806 682.982 146.606 682.702 146.606C682.302 146.606 682.062 146.806 682.062 147.046C682.062 147.046 682.062 149.206 682.062 150.806L682.062 152.446C682.062 153.006 681.822 153.406 681.582 153.526C681.342 153.646 680.542 153.966 680.542 153.966C680.262 154.046 680.062 154.366 680.062 154.606L680.062 157.446C680.062 157.686 680.182 157.806 680.382 157.806C680.422 157.806 680.502 157.766 680.542 157.766C680.542 157.766 681.142 157.526 681.422 157.366C681.462 157.366 681.502 157.326 681.542 157.326C681.822 157.326 682.062 157.726 682.062 158.046L682.062 162.006C682.062 162.446 681.862 162.806 681.622 162.926C681.382 163.006 680.542 163.366 680.542 163.366C680.262 163.446 680.062 163.766 680.062 164.006L680.062 166.846C680.062 167.086 680.182 167.206 680.382 167.206C680.422 167.206 680.502 167.166 680.542 167.166C680.542 167.166 681.102 166.926 681.462 166.806C681.502 166.766 681.542 166.766 681.582 166.766C681.862 166.766 682.062 167.206 682.062 167.406C682.062 167.646 682.062 172.326 682.062 172.326C682.062 172.566 682.302 172.766 682.582 172.766C682.982 172.766 683.262 172.566 683.262 172.326C683.262 172.326 683.262 167.246 683.262 166.766C683.262 166.246 683.462 165.966 683.662 165.886L686.102 164.886C686.142 164.886 686.222 164.846 686.262 164.846C686.582 164.846 686.782 165.326 686.782 165.566C686.782 165.846 686.782 170.566 686.782 170.566C686.782 170.806 687.022 171.006 687.302 171.006C687.742 171.006 687.982 170.806 687.982 170.566C687.982 170.566 687.982 165.166 687.982 164.886C687.982 164.566 688.142 164.086 688.422 163.966C688.702 163.846 689.542 163.526 689.542 163.526C689.822 163.406 690.022 163.086 690.022 162.846L690.022 160.006C690.022 159.806 689.902 159.686 689.742 159.686C689.662 159.686 689.622 159.686 689.542 159.726C689.542 159.726 688.702 160.046 688.502 160.126C688.262 160.126 687.982 159.886 687.982 159.406L687.982 155.686C687.982 155.406 688.182 154.646 688.502 154.526C688.822 154.406 689.542 154.126 689.542 154.126ZM686.782 160.646C686.542 161.446 684.662 162.246 683.742 162.246C683.502 162.246 683.302 162.166 683.262 162.046C683.182 161.886 683.142 161.006 683.142 160.046C683.142 158.806 683.182 157.406 683.262 157.086C683.342 156.406 685.182 155.566 686.182 155.566C686.462 155.566 686.702 155.646 686.782 155.806C686.862 156.006 686.942 157.006 686.942 158.086C686.942 159.166 686.862 160.286 686.782 160.646Z"></path></g></g><g><g><path d="M767.252 139.126C767.532 139.006 767.732 138.686 767.732 138.446L767.732 135.606C767.732 135.406 767.612 135.286 767.452 135.286C767.372 135.286 767.332 135.286 767.252 135.326C767.252 135.326 766.452 135.646 766.252 135.686C765.972 135.686 765.692 135.486 765.692 135.166C765.692 134.766 765.692 130.286 765.692 130.286C765.692 130.046 765.452 129.846 765.132 129.846C764.732 129.846 764.492 130.046 764.492 130.286C764.492 130.286 764.492 135.086 764.492 135.486C764.452 135.886 764.332 136.406 763.972 136.646C763.492 136.926 762.132 137.486 761.452 137.646C761.092 137.646 760.972 137.166 760.972 136.846C760.972 136.446 760.972 132.046 760.972 132.046C760.972 131.806 760.692 131.606 760.412 131.606C760.012 131.606 759.772 131.806 759.772 132.046C759.772 132.046 759.772 134.206 759.772 135.806L759.772 137.446C759.772 138.006 759.532 138.406 759.292 138.526C759.052 138.646 758.252 138.966 758.252 138.966C757.972 139.046 757.772 139.366 757.772 139.606L757.772 142.446C757.772 142.686 757.892 142.806 758.092 142.806C758.132 142.806 758.212 142.766 758.252 142.766C758.252 142.766 758.852 142.526 759.132 142.366C759.172 142.366 759.212 142.326 759.252 142.326C759.532 142.326 759.772 142.726 759.772 143.046L759.772 147.006C759.772 147.446 759.572 147.806 759.332 147.926C759.092 148.006 758.252 148.366 758.252 148.366C757.972 148.446 757.772 148.766 757.772 149.006L757.772 151.846C757.772 152.086 757.892 152.206 758.092 152.206C758.132 152.206 758.212 152.166 758.252 152.166C758.252 152.166 758.812 151.926 759.172 151.806C759.212 151.766 759.252 151.766 759.292 151.766C759.572 151.766 759.772 152.206 759.772 152.406C759.772 152.646 759.772 157.326 759.772 157.326C759.772 157.566 760.012 157.766 760.292 157.766C760.692 157.766 760.972 157.566 760.972 157.326C760.972 157.326 760.972 152.246 760.972 151.766C760.972 151.246 761.172 150.966 761.372 150.886L763.812 149.886C763.852 149.886 763.932 149.846 763.972 149.846C764.292 149.846 764.492 150.326 764.492 150.566C764.492 150.846 764.492 155.566 764.492 155.566C764.492 155.806 764.732 156.006 765.012 156.006C765.452 156.006 765.692 155.806 765.692 155.566C765.692 155.566 765.692 150.166 765.692 149.886C765.692 149.566 765.852 149.086 766.132 148.966C766.412 148.846 767.252 148.526 767.252 148.526C767.532 148.406 767.732 148.086 767.732 147.846L767.732 145.006C767.732 144.806 767.612 144.686 767.452 144.686C767.372 144.686 767.332 144.686 767.252 144.726C767.252 144.726 766.412 145.046 766.212 145.126C765.972 145.126 765.692 144.886 765.692 144.406L765.692 140.686C765.692 140.406 765.892 139.646 766.212 139.526C766.532 139.406 767.252 139.126 767.252 139.126ZM764.492 145.646C764.252 146.446 762.372 147.246 761.452 147.246C761.212 147.246 761.012 147.166 760.972 147.046C760.892 146.886 760.852 146.006 760.852 145.046C760.852 143.806 760.892 142.406 760.972 142.086C761.052 141.406 762.892 140.566 763.892 140.566C764.172 140.566 764.412 140.646 764.492 140.806C764.572 141.006 764.652 142.006 764.652 143.086C764.652 144.166 764.572 145.286 764.492 145.646Z"></path><path d="M778.252 154.126C778.532 154.006 778.732 153.686 778.732 153.446L778.732 150.606C778.732 150.406 778.612 150.286 778.452 150.286C778.372 150.286 778.332 150.286 778.252 150.326C778.252 150.326 777.452 150.646 777.252 150.686C776.972 150.686 776.692 150.486 776.692 150.166C776.692 149.766 776.692 145.286 776.692 145.286C776.692 145.046 776.452 144.846 776.132 144.846C775.732 144.846 775.492 145.046 775.492 145.286C775.492 145.286 775.492 150.086 775.492 150.486C775.452 150.886 775.332 151.406 774.972 151.646C774.492 151.926 773.132 152.486 772.452 152.646C772.092 152.646 771.972 152.166 771.972 151.846C771.972 151.446 771.972 147.046 771.972 147.046C771.972 146.806 771.692 146.606 771.412 146.606C771.012 146.606 770.772 146.806 770.772 147.046C770.772 147.046 770.772 149.206 770.772 150.806L770.772 152.446C770.772 153.006 770.532 153.406 770.292 153.526C770.052 153.646 769.252 153.966 769.252 153.966C768.972 154.046 768.772 154.366 768.772 154.606L768.772 157.446C768.772 157.686 768.892 157.806 769.092 157.806C769.132 157.806 769.212 157.766 769.252 157.766C769.252 157.766 769.852 157.526 770.132 157.366C770.172 157.366 770.212 157.326 770.252 157.326C770.532 157.326 770.772 157.726 770.772 158.046L770.772 162.006C770.772 162.446 770.572 162.806 770.332 162.926C770.092 163.006 769.252 163.366 769.252 163.366C768.972 163.446 768.772 163.766 768.772 164.006L768.772 166.846C768.772 167.086 768.892 167.206 769.092 167.206C769.132 167.206 769.212 167.166 769.252 167.166C769.252 167.166 769.812 166.926 770.172 166.806C770.212 166.766 770.252 166.766 770.292 166.766C770.572 166.766 770.772 167.206 770.772 167.406C770.772 167.646 770.772 172.326 770.772 172.326C770.772 172.566 771.012 172.766 771.292 172.766C771.692 172.766 771.972 172.566 771.972 172.326C771.972 172.326 771.972 167.246 771.972 166.766C771.972 166.246 772.172 165.966 772.372 165.886L774.812 164.886C774.852 164.886 774.932 164.846 774.972 164.846C775.292 164.846 775.492 165.326 775.492 165.566C775.492 165.846 775.492 170.566 775.492 170.566C775.492 170.806 775.732 171.006 776.012 171.006C776.452 171.006 776.692 170.806 776.692 170.566C776.692 170.566 776.692 165.166 776.692 164.886C776.692 164.566 776.852 164.086 777.132 163.966C777.412 163.846 778.252 163.526 778.252 163.526C778.532 163.406 778.732 163.086 778.732 162.846L778.732 160.006C778.732 159.806 778.612 159.686 778.452 159.686C778.372 159.686 778.332 159.686 778.252 159.726C778.252 159.726 777.412 160.046 777.212 160.126C776.972 160.126 776.692 159.886 776.692 159.406L776.692 155.686C776.692 155.406 776.892 154.646 777.212 154.526C777.532 154.406 778.252 154.126 778.252 154.126ZM775.492 160.646C775.252 161.446 773.372 162.246 772.452 162.246C772.212 162.246 772.012 162.166 771.972 162.046C771.892 161.886 771.852 161.006 771.852 160.046C771.852 158.806 771.892 157.406 771.972 157.086C772.052 156.406 773.892 155.566 774.892 155.566C775.172 155.566 775.412 155.646 775.492 155.806C775.572 156.006 775.652 157.006 775.652 158.086C775.652 159.166 775.572 160.286 775.492 160.646Z"></path></g></g><g><line stroke="black" stroke-width="1.6" x1="852.0001441315657" x2="852.0001441315657" y1="143.8461538461538" y2="183.8461538461538"></line></g><g><g><path d="M549.217 179.486C553.217 179.486 558.137 175.766 558.137 171.966C558.137 169.686 556.337 168.206 553.737 168.206C548.817 168.206 544.857 171.846 544.857 175.726C544.857 178.086 546.777 179.486 549.217 179.486Z"></path></g><line stroke="#000000" stroke-width="1.2" x1="557.5366489888598" x2="557.5366489888598" y1="172.0061538461538" y2="137.0061538461538"></line><text font-family="Alegreya" font-size="22" text-anchor="middle" x="551.4966489888599" y="223.8461538461538">phrygian</text></g><g><g><path d="M628.319 179.486C632.319 179.486 637.239 175.766 637.239 171.966C637.239 169.686 635.439 168.206 632.839 168.206C627.919 168.206 623.959 171.846 623.959 175.726C623.959 178.086 625.879 179.486 628.319 179.486Z"></path></g><line stroke="#000000" stroke-width="1.2" x1="636.6392727745363" x2="636.6392727745363" y1="172.0061538461538" y2="137.0061538461538"></line><text font-family="Alegreya" font-size="22" text-anchor="middle" x="630.5992727745363" y="223.8461538461538">lydian</text></g><g><g><path d="M717.029 179.486C721.029 179.486 725.949 175.766 725.949 171.966C725.949 169.686 724.149 168.206 721.549 168.206C716.629 168.206 712.669 171.846 712.669 175.726C712.669 178.086 714.589 179.486 717.029 179.486Z"></path></g><line stroke="#000000" stroke-width="1.2" x1="725.3488965602127" x2="725.3488965602127" y1="172.0061538461538" y2="137.0061538461538"></line><text font-family="Alegreya" font-size="22" text-anchor="middle" x="719.3088965602127" y="223.8461538461538">mixolydian</text></g><g><g><path d="M810.458 179.486C814.458 179.486 819.378 175.766 819.378 171.966C819.378 169.686 817.578 168.206 814.978 168.206C810.058 168.206 806.098 171.846 806.098 175.726C806.098 178.086 808.018 179.486 810.458 179.486Z"></path></g><line stroke="#000000" stroke-width="1.2" x1="818.7775203458892" x2="818.7775203458892" y1="172.0061538461538" y2="137.0061538461538"></line><text font-family="Alegreya" font-size="22" text-anchor="middle" x="812.7375203458893" y="223.8461538461538">aeolian</text></g></g><g><g><g><path d="M877.280 139.126C877.560 139.006 877.760 138.686 877.760 138.446L877.760 135.606C877.760 135.406 877.640 135.286 877.480 135.286C877.400 135.286 877.360 135.286 877.280 135.326C877.280 135.326 876.480 135.646 876.280 135.686C876.000 135.686 875.720 135.486 875.720 135.166C875.720 134.766 875.720 130.286 875.720 130.286C875.720 130.046 875.480 129.846 875.160 129.846C874.760 129.846 874.520 130.046 874.520 130.286C874.520 130.286 874.520 135.086 874.520 135.486C874.480 135.886 874.360 136.406 874.000 136.646C873.520 136.926 872.160 137.486 871.480 137.646C871.120 137.646 871.000 137.166 871.000 136.846C871.000 136.446 871.000 132.046 871.000 132.046C871.000 131.806 870.720 131.606 870.440 131.606C870.040 131.606 869.800 131.806 869.800 132.046C869.800 132.046 869.800 134.206 869.800 135.806L869.800 137.446C869.800 138.006 869.560 138.406 869.320 138.526C869.080 138.646 868.280 138.966 868.280 138.966C868.000 139.046 867.800 139.366 867.800 139.606L867.800 142.446C867.800 142.686 867.920 142.806 868.120 142.806C868.160 142.806 868.240 142.766 868.280 142.766C868.280 142.766 868.880 142.526 869.160 142.366C869.200 142.366 869.240 142.326 869.280 142.326C869.560 142.326 869.800 142.726 869.800 143.046L869.800 147.006C869.800 147.446 869.600 147.806 869.360 147.926C869.120 148.006 868.280 148.366 868.280 148.366C868.000 148.446 867.800 148.766 867.800 149.006L867.800 151.846C867.800 152.086 867.920 152.206 868.120 152.206C868.160 152.206 868.240 152.166 868.280 152.166C868.280 152.166 868.840 151.926 869.200 151.806C869.240 151.766 869.280 151.766 869.320 151.766C869.600 151.766 869.800 152.206 869.800 152.406C869.800 152.646 869.800 157.326 869.800 157.326C869.800 157.566 870.040 157.766 870.320 157.766C870.720 157.766 871.000 157.566 871.000 157.326C871.000 157.326 871.000 152.246 871.000 151.766C871.000 151.246 871.200 150.966 871.400 150.886L873.840 149.886C873.880 149.886 873.960 149.846 874.000 149.846C874.320 149.846 874.520 150.326 874.520 150.566C874.520 150.846 874.520 155.566 874.520 155.566C874.520 155.806 874.760 156.006 875.040 156.006C875.480 156.006 875.720 155.806 875.720 155.566C875.720 155.566 875.720 150.166 875.720 149.886C875.720 149.566 875.880 149.086 876.160 148.966C876.440 148.846 877.280 148.526 877.280 148.526C877.560 148.406 877.760 148.086 877.760 147.846L877.760 145.006C877.760 144.806 877.640 144.686 877.480 144.686C877.400 144.686 877.360 144.686 877.280 144.726C877.280 144.726 876.440 145.046 876.240 145.126C876.000 145.126 875.720 144.886 875.720 144.406L875.720 140.686C875.720 140.406 875.920 139.646 876.240 139.526C876.560 139.406 877.280 139.126 877.280 139.126ZM874.520 145.646C874.280 146.446 872.400 147.246 871.480 147.246C871.240 147.246 871.040 147.166 871.000 147.046C870.920 146.886 870.880 146.006 870.880 145.046C870.880 143.806 870.920 142.406 871.000 142.086C871.080 141.406 872.920 140.566 873.920 140.566C874.200 140.566 874.440 140.646 874.520 140.806C874.600 141.006 874.680 142.006 874.680 143.086C874.680 144.166 874.600 145.286 874.520 145.646Z"></path><path d="M888.280 154.126C888.560 154.006 888.760 153.686 888.760 153.446L888.760 150.606C888.760 150.406 888.640 150.286 888.480 150.286C888.400 150.286 888.360 150.286 888.280 150.326C888.280 150.326 887.480 150.646 887.280 150.686C887.000 150.686 886.720 150.486 886.720 150.166C886.720 149.766 886.720 145.286 886.720 145.286C886.720 145.046 886.480 144.846 886.160 144.846C885.760 144.846 885.520 145.046 885.520 145.286C885.520 145.286 885.520 150.086 885.520 150.486C885.480 150.886 885.360 151.406 885.000 151.646C884.520 151.926 883.160 152.486 882.480 152.646C882.120 152.646 882.000 152.166 882.000 151.846C882.000 151.446 882.000 147.046 882.000 147.046C882.000 146.806 881.720 146.606 881.440 146.606C881.040 146.606 880.800 146.806 880.800 147.046C880.800 147.046 880.800 149.206 880.800 150.806L880.800 152.446C880.800 153.006 880.560 153.406 880.320 153.526C880.080 153.646 879.280 153.966 879.280 153.966C879.000 154.046 878.800 154.366 878.800 154.606L878.800 157.446C878.800 157.686 878.920 157.806 879.120 157.806C879.160 157.806 879.240 157.766 879.280 157.766C879.280 157.766 879.880 157.526 880.160 157.366C880.200 157.366 880.240 157.326 880.280 157.326C880.560 157.326 880.800 157.726 880.800 158.046L880.800 162.006C880.800 162.446 880.600 162.806 880.360 162.926C880.120 163.006 879.280 163.366 879.280 163.366C879.000 163.446 878.800 163.766 878.800 164.006L878.800 166.846C878.800 167.086 878.920 167.206 879.120 167.206C879.160 167.206 879.240 167.166 879.280 167.166C879.280 167.166 879.840 166.926 880.200 166.806C880.240 166.766 880.280 166.766 880.320 166.766C880.600 166.766 880.800 167.206 880.800 167.406C880.800 167.646 880.800 172.326 880.800 172.326C880.800 172.566 881.040 172.766 881.320 172.766C881.720 172.766 882.000 172.566 882.000 172.326C882.000 172.326 882.000 167.246 882.000 166.766C882.000 166.246 882.200 165.966 882.400 165.886L884.840 164.886C884.880 164.886 884.960 164.846 885.000 164.846C885.320 164.846 885.520 165.326 885.520 165.566C885.520 165.846 885.520 170.566 885.520 170.566C885.520 170.806 885.760 171.006 886.040 171.006C886.480 171.006 886.720 170.806 886.720 170.566C886.720 170.566 886.720 165.166 886.720 164.886C886.720 164.566 886.880 164.086 887.160 163.966C887.440 163.846 888.280 163.526 888.280 163.526C888.560 163.406 888.760 163.086 888.760 162.846L888.760 160.006C888.760 159.806 888.640 159.686 888.480 159.686C888.400 159.686 888.360 159.686 888.280 159.726C888.280 159.726 887.440 160.046 887.240 160.126C887.000 160.126 886.720 159.886 886.720 159.406L886.720 155.686C886.720 155.406 886.920 154.646 887.240 154.526C887.560 154.406 888.280 154.126 888.280 154.126ZM885.520 160.646C885.280 161.446 883.400 162.246 882.480 162.246C882.240 162.246 882.040 162.166 882.000 162.046C881.920 161.886 881.880 161.006 881.880 160.046C881.880 158.806 881.920 157.406 882.000 157.086C882.080 156.406 883.920 155.566 884.920 155.566C885.200 155.566 885.440 155.646 885.520 155.806C885.600 156.006 885.680 157.006 885.680 158.086C885.680 159.166 885.600 160.286 885.520 160.646Z"></path></g></g><g><line stroke="black" stroke-width="1.6" x1="927.6304065101333" x2="927.6304065101333" y1="143.8461538461538" y2="183.8461538461538"></line><line stroke="black" stroke-width="5" x1="934.9304065101334" x2="934.9304065101334" y1="143.8461538461538" y2="183.8461538461538"></line></g><g><g><path d="M906.160 179.486C910.160 179.486 915.080 175.766 915.080 171.966C915.080 169.686 913.280 168.206 910.680 168.206C905.760 168.206 901.800 171.846 901.800 175.726C901.800 178.086 903.720 179.486 906.160 179.486Z"></path></g><line stroke="#000000" stroke-width="1.2" x1="914.4801441315657" x2="914.4801441315657" y1="172.0061538461538" y2="137.0061538461538"></line><text font-family="Alegreya" font-size="22" text-anchor="middle" x="908.4401441315657" y="223.8461538461538">locrian</text></g></g></svg>