<?xml version="1.0" encoding="UTF-8" standalone="no"?><svg xmlns="http://www.w3.org/2000/svg" height="279.4mm" viewBox="0 0 1328.6153846153845 1719.3846153846152" width="215.9mm"><g transform="translate(93.84615384615385)"><g><g><line stroke="#6A6A6A" stroke-width="1.3" x1="0" x2="314.6122812576336" y1="183.8461538461538" y2="183.8461538461538"></line><line stroke="#6A6A6A" stroke-width="1.3" x1="0" x2="314.6122812576336" y1="173.8461538461538" y2="173.8461538461538"></line><line stroke="#6A6A6A" stroke-width="1.3" x1="0" x2="314.6122812576336" y1="163.8461538461538" y2="163.8461538461538"></line><line stroke="#6A6A6A" stroke-width="1.3" x1="0" x2="314.6122812576336" y1="153.8461538461538" y2="153.8461538461538"></line><line stroke="#6A6A6A" stroke-width="1.3" x1="0" x2="314.6122812576336" y1="143.8461538461538" y2="143.8461538461538"></line></g><g><path d="M25.200 129.926C24.640 129.926 23.400 130.966 22.600 131.846C19.640 135.126 18.680 140.126 18.680 144.286C18.680 146.606 18.960 149.206 19.240 150.846C19.320 151.326 19.360 151.406 18.880 151.806C16.320 153.926 13.560 156.366 11.480 158.926C8.720 162.366 7 166.086 7 170.366C7 177.326 11.760 183.926 21.560 183.926C22.480 183.926 23.520 183.846 24.320 183.686C24.760 183.606 24.840 183.566 24.920 184.046C25.400 186.726 26 190.206 26 192.086C26 198.006 22 198.726 19.640 198.726C17.480 198.726 16.440 198.086 16.440 197.566C16.440 197.126 16.800 197.166 17.720 196.886C18.960 196.526 20.400 195.446 20.400 193.126C20.400 190.926 19 189.046 16.560 189.046C13.880 189.046 12.280 191.166 12.280 193.646C12.280 196.246 13.840 200.166 19.880 200.166C22.560 200.166 27.760 198.966 27.760 192.166C27.760 189.886 27.040 186.086 26.600 183.606C26.520 183.126 26.560 183.166 27.120 182.926C31.160 181.326 33.840 177.926 33.840 173.406C33.840 168.286 30.080 163.766 24.200 163.766C23.080 163.766 23.200 163.966 23.040 163.046L22.040 157.246C21.960 156.766 22.040 156.726 22.280 156.486C22.920 155.886 23.760 155.046 24.520 154.206C27.880 150.526 29.880 145.766 29.880 141.246C29.880 137.766 28.920 134.326 27.280 131.926C26.680 131.046 25.640 129.926 25.200 129.926ZM20.040 158.086C20.440 157.766 20.520 157.806 20.600 158.246L21.440 163.366C21.560 164.126 21.560 164.086 20.840 164.326C17.320 165.526 15.040 168.686 15.040 172.086C15.040 175.686 16.920 178.246 19.640 179.166C19.960 179.286 20.440 179.406 20.720 179.406C21.040 179.406 21.200 179.206 21.200 178.966C21.200 178.686 20.880 178.566 20.600 178.446C18.920 177.726 17.720 176.006 17.720 174.166C17.720 171.886 19.280 170.166 21.720 169.486C22.360 169.326 22.440 169.366 22.520 169.806L24.520 181.726C24.600 182.166 24.560 182.166 23.960 182.286C23.320 182.406 22.520 182.486 21.720 182.486C14.720 182.486 10.200 178.606 10.200 173.046C10.200 170.686 10.600 167.526 13.920 163.766C16.320 161.086 18.160 159.606 20.040 158.086ZM24.640 169.166C27.880 169.446 30.560 172.166 30.560 175.686C30.560 178.206 29.040 180.246 26.800 181.366C26.320 181.606 26.240 181.606 26.160 181.126L24.200 169.726C24.120 169.246 24.160 169.126 24.640 169.166ZM25.800 136.126C27.120 136.126 28.200 137.206 28.200 139.406C28.200 142.166 26.880 144.726 23.760 147.846C23.120 148.486 22.160 149.406 21.240 150.206C20.960 150.446 20.800 150.406 20.720 149.886C20.560 148.846 20.480 147.486 20.480 146.206C20.480 139.966 23.360 136.126 25.800 136.126Z"></path></g><g></g><path d="M57.820 153.806C56.620 153.806 55.220 154.126 54.140 154.606C50.580 156.166 48.700 160.446 48.700 164.246C48.700 164.606 48.700 164.966 48.740 165.326C48.940 167.486 49.980 169.526 51.300 171.126C52.820 172.966 55.020 173.806 57.420 173.806C64.420 173.806 65.460 167.446 65.460 166.286C65.460 165.406 65.020 165.406 64.860 165.406C64.540 165.406 64.260 165.446 64.260 166.126C64.260 171.286 59.860 172.486 58.580 172.486C55.340 172.486 53.620 169.326 53.620 162.726C53.620 156.126 56.660 154.766 58.820 154.766C60.900 154.766 61.740 155.726 61.740 156.126C61.740 156.486 61.620 157.006 61.020 157.006C59.420 157.006 58.500 158.726 58.500 159.966C58.500 162.246 60.460 162.966 61.580 162.966C61.580 162.966 64.620 162.846 64.620 159.526C64.620 154.286 58.580 153.806 57.820 153.806Z"></path></g><g><line stroke="black" stroke-width="1.6" x1="315.4122812576336" x2="315.4122812576336" y1="143.8461538461538" y2="183.8461538461538"></line></g><g><g><path d="M93.360 179.486C97.360 179.486 102.280 175.766 102.280 171.966C102.280 169.686 100.480 168.206 97.880 168.206C92.960 168.206 89 171.846 89 175.726C89 178.086 90.920 179.486 93.360 179.486Z"></path></g><line stroke="#000000" stroke-width="1.2" x1="101.68" x2="101.68" y1="172.0061538461538" y2="137.0061538461538"></line><text font-family="Alegreya" font-size="22" text-anchor="middle" x="95.64" y="223.8461538461538">normal</text></g><g><g><path d="M170.933 149.486C174.933 149.486 179.853 145.766 179.853 141.966C179.853 139.686 178.053 138.206 175.453 138.206C170.533 138.206 166.573 141.846 166.573 145.726C166.573 148.086 168.493 149.486 170.933 149.486Z"></path></g><line stroke="#000000" stroke-width="1.2" x1="167.1733203144084" x2="167.1733203144084" y1="145.68615384615381" y2="180.68615384615381"></line><text font-family="Alegreya" font-size="22" text-anchor="middle" x="173.2133203144084" y="223.8461538461538">glissando</text></g><g><g><path d="M234.042 179.486C238.042 179.486 242.962 175.766 242.962 171.966C242.962 169.686 241.162 168.206 238.562 168.206C233.642 168.206 229.682 171.846 229.682 175.726C229.682 178.086 231.602 179.486 234.042 179.486Z"></path></g><line stroke="#000000" stroke-width="1.2" x1="242.3616406288168" x2="242.3616406288168" y1="172.0061538461538" y2="137.0061538461538"></line><text font-family="Alegreya" font-size="22" text-anchor="middle" x="236.3216406288168" y="223.8461538461538">solid</text></g><g><g><path d="M286.139 149.486C290.139 149.486 295.059 145.766 295.059 141.966C295.059 139.686 293.259 138.206 290.659 138.206C285.739 138.206 281.779 141.846 281.779 145.726C281.779 148.086 283.699 149.486 286.139 149.486Z"></path></g><line stroke="#000000" stroke-width="1.2" x1="282.3789609432252" x2="282.3789609432252" y1="145.68615384615381" y2="180.68615384615381"></line><text font-family="Alegreya" font-size="22" text-anchor="middle" x="288.41896094322516" y="223.8461538461538">(+text)</text></g></g><g transform="translate(425.0584351037875)"><g><g><line stroke="#6A6A6A" stroke-width="1.3" x1="-16.600000000000023" x2="151.82028125763367" y1="183.8461538461538" y2="183.8461538461538"></line><line stroke="#6A6A6A" stroke-width="1.3" x1="-16.600000000000023" x2="151.82028125763367" y1="173.8461538461538" y2="173.8461538461538"></line><line stroke="#6A6A6A" stroke-width="1.3" x1="-16.600000000000023" x2="151.82028125763367" y1="163.8461538461538" y2="163.8461538461538"></line><line stroke="#6A6A6A" stroke-width="1.3" x1="-16.600000000000023" x2="151.82028125763367" y1="153.8461538461538" y2="153.8461538461538"></line><line stroke="#6A6A6A" stroke-width="1.3" x1="-16.600000000000023" x2="151.82028125763367" y1="143.8461538461538" y2="143.8461538461538"></line></g></g><g><line stroke="black" stroke-width="1.6" x1="152.62028125763365" x2="152.62028125763365" y1="143.8461538461538" y2="183.8461538461538"></line></g><g><g><path d="M20.617 179.486C24.617 179.486 29.537 175.766 29.537 171.966C29.537 169.686 27.737 168.206 25.137 168.206C20.217 168.206 16.257 171.846 16.257 175.726C16.257 178.086 18.177 179.486 20.617 179.486Z"></path></g><line stroke="#000000" stroke-width="1.2" x1="28.93699999999999" x2="28.93699999999999" y1="172.0061538461538" y2="137.0061538461538"></line><text font-family="Alegreya" font-size="22" text-anchor="middle" x="22.89699999999999" y="223.8461538461538">dashed</text></g><g><g><path d="M53.450 149.486C57.450 149.486 62.370 145.766 62.370 141.966C62.370 139.686 60.570 138.206 57.970 138.206C53.050 138.206 49.090 141.846 49.090 145.726C49.090 148.086 51.010 149.486 53.450 149.486Z"></path></g><line stroke="#000000" stroke-width="1.2" x1="49.6903203144084" x2="49.6903203144084" y1="145.68615384615381" y2="180.68615384615381"></line></g><g><g><path d="M90.514 179.486C94.514 179.486 99.434 175.766 99.434 171.966C99.434 169.686 97.634 168.206 95.034 168.206C90.114 168.206 86.154 171.846 86.154 175.726C86.154 178.086 88.074 179.486 90.514 179.486Z"></path></g><line stroke="#000000" stroke-width="1.2" x1="98.83364062881681" x2="98.83364062881681" y1="172.0061538461538" y2="137.0061538461538"></line><text font-family="Alegreya" font-size="22" text-anchor="middle" x="92.7936406288168" y="223.8461538461538">dotted</text></g><g><g><path d="M123.347 149.486C127.347 149.486 132.267 145.766 132.267 141.966C132.267 139.686 130.467 138.206 127.867 138.206C122.947 138.206 118.987 141.846 118.987 145.726C118.987 148.086 120.907 149.486 123.347 149.486Z"></path></g><line stroke="#000000" stroke-width="1.2" x1="119.58696094322522" x2="119.58696094322522" y1="145.68615384615381" y2="180.68615384615381"></line></g></g><g transform="translate(593.4787163614211)"><g><g><line stroke="#6A6A6A" stroke-width="1.3" x1="-16.599999999999966" x2="164.90228125763366" y1="183.8461538461538" y2="183.8461538461538"></line><line stroke="#6A6A6A" stroke-width="1.3" x1="-16.599999999999966" x2="164.90228125763366" y1="173.8461538461538" y2="173.8461538461538"></line><line stroke="#6A6A6A" stroke-width="1.3" x1="-16.599999999999966" x2="164.90228125763366" y1="163.8461538461538" y2="163.8461538461538"></line><line stroke="#6A6A6A" stroke-width="1.3" x1="-16.599999999999966" x2="164.90228125763366" y1="153.8461538461538" y2="153.8461538461538"></line><line stroke="#6A6A6A" stroke-width="1.3" x1="-16.599999999999966" x2="164.90228125763366" y1="143.8461538461538" y2="143.8461538461538"></line></g></g><g><line stroke="black" stroke-width="1.6" x1="165.70228125763364" x2="165.70228125763364" y1="143.8461538461538" y2="183.8461538461538"></line></g><g><g><path d="M12.136 179.486C16.136 179.486 21.056 175.766 21.056 171.966C21.056 169.686 19.256 168.206 16.656 168.206C11.736 168.206 7.776 171.846 7.776 175.726C7.776 178.086 9.696 179.486 12.136 179.486Z"></path></g><line stroke="#000000" stroke-width="1.2" x1="20.455999999999996" x2="20.455999999999996" y1="172.0061538461538" y2="137.0061538461538"></line><text font-family="Alegreya" font-size="22" text-anchor="middle" x="14.415999999999997" y="223.8461538461538">wavy</text></g><g><g><path d="M44.969 149.486C48.969 149.486 53.889 145.766 53.889 141.966C53.889 139.686 52.089 138.206 49.489 138.206C44.569 138.206 40.609 141.846 40.609 145.726C40.609 148.086 42.529 149.486 44.969 149.486Z"></path></g><line stroke="#000000" stroke-width="1.2" x1="41.209320314408416" x2="41.209320314408416" y1="145.68615384615381" y2="180.68615384615381"></line></g><g><g><path d="M80.130 179.486C84.130 179.486 89.050 175.766 89.050 171.966C89.050 169.686 87.250 168.206 84.650 168.206C79.730 168.206 75.770 171.846 75.770 175.726C75.770 178.086 77.690 179.486 80.130 179.486Z"></path></g><line stroke="#000000" stroke-width="1.2" x1="88.44964062881682" x2="88.44964062881682" y1="172.0061538461538" y2="137.0061538461538"></line><text font-family="Alegreya" font-size="22" text-anchor="middle" x="82.40964062881682" y="223.8461538461538">normal</text></g><g><g><path d="M136.429 149.486C140.429 149.486 145.349 145.766 145.349 141.966C145.349 139.686 143.549 138.206 140.949 138.206C136.029 138.206 132.069 141.846 132.069 145.726C132.069 148.086 133.989 149.486 136.429 149.486Z"></path></g><line stroke="#000000" stroke-width="1.2" x1="132.66896094322522" x2="132.66896094322522" y1="145.68615384615381" y2="180.68615384615381"></line><text font-family="Alegreya" font-size="22" text-anchor="middle" x="138.70896094322524" y="223.8461538461538">slide</text></g></g><g transform="translate(774.9809976190547)"><g><g><line stroke="#6A6A6A" stroke-width="1.3" x1="-16.600000000000023" x2="186.1182812576336" y1="183.8461538461538" y2="183.8461538461538"></line><line stroke="#6A6A6A" stroke-width="1.3" x1="-16.600000000000023" x2="186.1182812576336" y1="173.8461538461538" y2="173.8461538461538"></line><line stroke="#6A6A6A" stroke-width="1.3" x1="-16.600000000000023" x2="186.1182812576336" y1="163.8461538461538" y2="163.8461538461538"></line><line stroke="#6A6A6A" stroke-width="1.3" x1="-16.600000000000023" x2="186.1182812576336" y1="153.8461538461538" y2="153.8461538461538"></line><line stroke="#6A6A6A" stroke-width="1.3" x1="-16.600000000000023" x2="186.1182812576336" y1="143.8461538461538" y2="143.8461538461538"></line></g></g><g><line stroke="black" stroke-width="1.6" x1="186.91828125763365" x2="186.91828125763365" y1="143.8461538461538" y2="183.8461538461538"></line></g><g><g><path d="M10.046 179.486C14.046 179.486 18.966 175.766 18.966 171.966C18.966 169.686 17.166 168.206 14.566 168.206C9.646 168.206 5.686 171.846 5.686 175.726C5.686 178.086 7.606 179.486 10.046 179.486Z"></path></g><line stroke="#000000" stroke-width="1.2" x1="18.366" x2="18.366" y1="172.0061538461538" y2="137.0061538461538"></line><text font-family="Alegreya" font-size="22" text-anchor="middle" x="12.325999999999997" y="223.8461538461538">solid</text></g><g><g><path d="M62.143 149.486C66.143 149.486 71.063 145.766 71.063 141.966C71.063 139.686 69.263 138.206 66.663 138.206C61.743 138.206 57.783 141.846 57.783 145.726C57.783 148.086 59.703 149.486 62.143 149.486Z"></path></g><line stroke="#000000" stroke-width="1.2" x1="58.3833203144084" x2="58.3833203144084" y1="145.68615384615381" y2="180.68615384615381"></line><text font-family="Alegreya" font-size="22" text-anchor="middle" x="64.4233203144084" y="223.8461538461538">(+text)</text></g><g><g><path d="M124.812 179.486C128.812 179.486 133.732 175.766 133.732 171.966C133.732 169.686 131.932 168.206 129.332 168.206C124.412 168.206 120.452 171.846 120.452 175.726C120.452 178.086 122.372 179.486 124.812 179.486Z"></path></g><line stroke="#000000" stroke-width="1.2" x1="133.1316406288168" x2="133.1316406288168" y1="172.0061538461538" y2="137.0061538461538"></line><text font-family="Alegreya" font-size="22" text-anchor="middle" x="127.0916406288168" y="223.8461538461538">dashed</text></g><g><g><path d="M157.645 149.486C161.645 149.486 166.565 145.766 166.565 141.966C166.565 139.686 164.765 138.206 162.165 138.206C157.245 138.206 153.285 141.846 153.285 145.726C153.285 148.086 155.205 149.486 157.645 149.486Z"></path></g><line stroke="#000000" stroke-width="1.2" x1="153.88496094322522" x2="153.88496094322522" y1="145.68615384615381" y2="180.68615384615381"></line></g></g><g transform="translate(977.6992788766884)"><g><g><line stroke="#6A6A6A" stroke-width="1.3" x1="-16.600000000000023" x2="155.50628125763365" y1="183.8461538461538" y2="183.8461538461538"></line><line stroke="#6A6A6A" stroke-width="1.3" x1="-16.600000000000023" x2="155.50628125763365" y1="173.8461538461538" y2="173.8461538461538"></line><line stroke="#6A6A6A" stroke-width="1.3" x1="-16.600000000000023" x2="155.50628125763365" y1="163.8461538461538" y2="163.8461538461538"></line><line stroke="#6A6A6A" stroke-width="1.3" x1="-16.600000000000023" x2="155.50628125763365" y1="153.8461538461538" y2="153.8461538461538"></line><line stroke="#6A6A6A" stroke-width="1.3" x1="-16.600000000000023" x2="155.50628125763365" y1="143.8461538461538" y2="143.8461538461538"></line></g></g><g><line stroke="#000000" stroke-width="1.6" x1="145.70628125763366" x2="145.70628125763366" y1="143.8461538461538" y2="183.8461538461538"></line><line stroke="#000000" stroke-width="5" x1="153.00628125763365" x2="153.00628125763365" y1="143.8461538461538" y2="183.8461538461538"></line></g><g><g><path d="M17.933 179.486C21.933 179.486 26.853 175.766 26.853 171.966C26.853 169.686 25.053 168.206 22.453 168.206C17.533 168.206 13.573 171.846 13.573 175.726C13.573 178.086 15.493 179.486 17.933 179.486Z"></path></g><line stroke="#000000" stroke-width="1.2" x1="26.252999999999993" x2="26.252999999999993" y1="172.0061538461538" y2="137.0061538461538"></line><text font-family="Alegreya" font-size="22" text-anchor="middle" x="20.212999999999994" y="223.8461538461538">dotted</text></g><g><g><path d="M50.766 149.486C54.766 149.486 59.686 145.766 59.686 141.966C59.686 139.686 57.886 138.206 55.286 138.206C50.366 138.206 46.406 141.846 46.406 145.726C46.406 148.086 48.326 149.486 50.766 149.486Z"></path></g><line stroke="#000000" stroke-width="1.2" x1="47.006320314408406" x2="47.006320314408406" y1="145.68615384615381" y2="180.68615384615381"></line></g><g><g><path d="M83.600 179.486C87.600 179.486 92.520 175.766 92.520 171.966C92.520 169.686 90.720 168.206 88.120 168.206C83.200 168.206 79.240 171.846 79.240 175.726C79.240 178.086 81.160 179.486 83.600 179.486Z"></path></g><line stroke="#000000" stroke-width="1.2" x1="91.91964062881684" x2="91.91964062881684" y1="172.0061538461538" y2="137.0061538461538"></line><text font-family="Alegreya" font-size="22" text-anchor="middle" x="85.87964062881683" y="223.8461538461538">wavy</text></g><g><g><path d="M116.433 149.486C120.433 149.486 125.353 145.766 125.353 141.966C125.353 139.686 123.553 138.206 120.953 138.206C116.033 138.206 112.073 141.846 112.073 145.726C112.073 148.086 113.993 149.486 116.433 149.486Z"></path></g><line stroke="#000000" stroke-width="1.2" x1="112.67296094322523" x2="112.67296094322523" y1="145.68615384615381" y2="180.68615384615381"></line></g></g></svg>