<?xml version="1.0" encoding="UTF-8" standalone="no"?><svg xmlns="http://www.w3.org/2000/svg" class="" height="279.4mm" viewBox="0 0 1328.6153846153845 1719.3846153846152" width="215.9mm"><g><g><g><line stroke="#6A6A6A" stroke-width="1.3" x1="93.84615384615385" x2="606.3999366654189" y1="183.8461538461538" y2="183.8461538461538"></line><line stroke="#6A6A6A" stroke-width="1.3" x1="93.84615384615385" x2="606.3999366654189" y1="173.8461538461538" y2="173.8461538461538"></line><line stroke="#6A6A6A" stroke-width="1.3" x1="93.84615384615385" x2="606.3999366654189" y1="163.8461538461538" y2="163.8461538461538"></line><line stroke="#6A6A6A" stroke-width="1.3" x1="93.84615384615385" x2="606.3999366654189" y1="153.8461538461538" y2="153.8461538461538"></line><line stroke="#6A6A6A" stroke-width="1.3" x1="93.84615384615385" x2="606.3999366654189" y1="143.8461538461538" y2="143.8461538461538"></line></g><g><path d="M119.046 129.926C118.486 129.926 117.246 130.966 116.446 131.846C113.486 135.126 112.526 140.126 112.526 144.286C112.526 146.606 112.806 149.206 113.086 150.846C113.166 151.326 113.206 151.406 112.726 151.806C110.166 153.926 107.406 156.366 105.326 158.926C102.566 162.366 100.846 166.086 100.846 170.366C100.846 177.326 105.606 183.926 115.406 183.926C116.326 183.926 117.366 183.846 118.166 183.686C118.606 183.606 118.686 183.566 118.766 184.046C119.246 186.726 119.846 190.206 119.846 192.086C119.846 198.006 115.846 198.726 113.486 198.726C111.326 198.726 110.286 198.086 110.286 197.566C110.286 197.126 110.646 197.166 111.566 196.886C112.806 196.526 114.246 195.446 114.246 193.126C114.246 190.926 112.846 189.046 110.406 189.046C107.726 189.046 106.126 191.166 106.126 193.646C106.126 196.246 107.686 200.166 113.726 200.166C116.406 200.166 121.606 198.966 121.606 192.166C121.606 189.886 120.886 186.086 120.446 183.606C120.366 183.126 120.406 183.166 120.966 182.926C125.006 181.326 127.686 177.926 127.686 173.406C127.686 168.286 123.926 163.766 118.046 163.766C116.926 163.766 117.046 163.966 116.886 163.046L115.886 157.246C115.806 156.766 115.886 156.726 116.126 156.486C116.766 155.886 117.606 155.046 118.366 154.206C121.726 150.526 123.726 145.766 123.726 141.246C123.726 137.766 122.766 134.326 121.126 131.926C120.526 131.046 119.486 129.926 119.046 129.926ZM113.886 158.086C114.286 157.766 114.366 157.806 114.446 158.246L115.286 163.366C115.406 164.126 115.406 164.086 114.686 164.326C111.166 165.526 108.886 168.686 108.886 172.086C108.886 175.686 110.766 178.246 113.486 179.166C113.806 179.286 114.286 179.406 114.566 179.406C114.886 179.406 115.046 179.206 115.046 178.966C115.046 178.686 114.726 178.566 114.446 178.446C112.766 177.726 111.566 176.006 111.566 174.166C111.566 171.886 113.126 170.166 115.566 169.486C116.206 169.326 116.286 169.366 116.366 169.806L118.366 181.726C118.446 182.166 118.406 182.166 117.806 182.286C117.166 182.406 116.366 182.486 115.566 182.486C108.566 182.486 104.046 178.606 104.046 173.046C104.046 170.686 104.446 167.526 107.766 163.766C110.166 161.086 112.006 159.606 113.886 158.086ZM118.486 169.166C121.726 169.446 124.406 172.166 124.406 175.686C124.406 178.206 122.886 180.246 120.646 181.366C120.166 181.606 120.086 181.606 120.006 181.126L118.046 169.726C117.966 169.246 118.006 169.126 118.486 169.166ZM119.646 136.126C120.966 136.126 122.046 137.206 122.046 139.406C122.046 142.166 120.726 144.726 117.606 147.846C116.966 148.486 116.006 149.406 115.086 150.206C114.806 150.446 114.646 150.406 114.566 149.886C114.406 148.846 114.326 147.486 114.326 146.206C114.326 139.966 117.206 136.126 119.646 136.126Z"></path></g><g><path d="M146.826 139.126C147.106 139.006 147.306 138.686 147.306 138.446L147.306 135.606C147.306 135.406 147.186 135.286 147.026 135.286C146.946 135.286 146.906 135.286 146.826 135.326C146.826 135.326 146.026 135.646 145.826 135.686C145.546 135.686 145.266 135.486 145.266 135.166C145.266 134.766 145.266 130.286 145.266 130.286C145.266 130.046 145.026 129.846 144.706 129.846C144.306 129.846 144.066 130.046 144.066 130.286C144.066 130.286 144.066 135.086 144.066 135.486C144.026 135.886 143.906 136.406 143.546 136.646C143.066 136.926 141.706 137.486 141.026 137.646C140.666 137.646 140.546 137.166 140.546 136.846C140.546 136.446 140.546 132.046 140.546 132.046C140.546 131.806 140.266 131.606 139.986 131.606C139.586 131.606 139.346 131.806 139.346 132.046C139.346 132.046 139.346 134.206 139.346 135.806L139.346 137.446C139.346 138.006 139.106 138.406 138.866 138.526C138.626 138.646 137.826 138.966 137.826 138.966C137.546 139.046 137.346 139.366 137.346 139.606L137.346 142.446C137.346 142.686 137.466 142.806 137.666 142.806C137.706 142.806 137.786 142.766 137.826 142.766C137.826 142.766 138.426 142.526 138.706 142.366C138.746 142.366 138.786 142.326 138.826 142.326C139.106 142.326 139.346 142.726 139.346 143.046L139.346 147.006C139.346 147.446 139.146 147.806 138.906 147.926C138.666 148.006 137.826 148.366 137.826 148.366C137.546 148.446 137.346 148.766 137.346 149.006L137.346 151.846C137.346 152.086 137.466 152.206 137.666 152.206C137.706 152.206 137.786 152.166 137.826 152.166C137.826 152.166 138.386 151.926 138.746 151.806C138.786 151.766 138.826 151.766 138.866 151.766C139.146 151.766 139.346 152.206 139.346 152.406C139.346 152.646 139.346 157.326 139.346 157.326C139.346 157.566 139.586 157.766 139.866 157.766C140.266 157.766 140.546 157.566 140.546 157.326C140.546 157.326 140.546 152.246 140.546 151.766C140.546 151.246 140.746 150.966 140.946 150.886L143.386 149.886C143.426 149.886 143.506 149.846 143.546 149.846C143.866 149.846 144.066 150.326 144.066 150.566C144.066 150.846 144.066 155.566 144.066 155.566C144.066 155.806 144.306 156.006 144.586 156.006C145.026 156.006 145.266 155.806 145.266 155.566C145.266 155.566 145.266 150.166 145.266 149.886C145.266 149.566 145.426 149.086 145.706 148.966C145.986 148.846 146.826 148.526 146.826 148.526C147.106 148.406 147.306 148.086 147.306 147.846L147.306 145.006C147.306 144.806 147.186 144.686 147.026 144.686C146.946 144.686 146.906 144.686 146.826 144.726C146.826 144.726 145.986 145.046 145.786 145.126C145.546 145.126 145.266 144.886 145.266 144.406L145.266 140.686C145.266 140.406 145.466 139.646 145.786 139.526C146.106 139.406 146.826 139.126 146.826 139.126ZM144.066 145.646C143.826 146.446 141.946 147.246 141.026 147.246C140.786 147.246 140.586 147.166 140.546 147.046C140.466 146.886 140.426 146.006 140.426 145.046C140.426 143.806 140.466 142.406 140.546 142.086C140.626 141.406 142.466 140.566 143.466 140.566C143.746 140.566 143.986 140.646 144.066 140.806C144.146 141.006 144.226 142.006 144.226 143.086C144.226 144.166 144.146 145.286 144.066 145.646Z"></path></g><g><g><path d="M177.026 156.806L174.106 156.806L174.106 148.246C174.106 147.926 174.066 147.566 173.626 147.566C173.266 147.566 173.066 147.646 172.826 147.926L169.026 152.526C168.866 152.726 168.666 152.966 168.666 153.446C168.666 153.446 168.666 155.046 168.666 156.806L163.266 156.806C166.466 154.086 172.866 145.006 172.986 144.566C172.986 144.486 173.026 144.446 173.026 144.366C173.026 144.046 172.746 143.806 172.426 143.806C172.066 143.806 170.426 143.886 169.706 143.886C168.986 143.886 167.186 143.806 166.866 143.806C166.506 143.806 165.946 143.926 165.946 144.566C165.946 149.526 162.026 155.086 160.826 156.766L160.586 157.086C160.586 157.126 160.546 157.166 160.546 157.206C160.466 157.366 160.426 157.526 160.426 157.646C160.426 158.046 160.746 158.326 161.226 158.326L168.666 158.326L168.666 160.846C168.666 161.926 167.786 162.246 167.066 162.246C166.426 162.246 166.146 162.606 166.146 163.006C166.146 163.406 166.306 163.846 166.906 163.846C167.546 163.846 175.426 163.846 175.426 163.846C175.826 163.846 176.226 163.566 176.226 163.006C176.226 162.446 175.746 162.206 175.346 162.206C174.946 162.206 174.106 161.966 174.106 160.686L174.106 158.326C175.826 158.326 177.026 158.326 177.026 158.326C177.426 158.326 177.626 158.046 177.626 157.566C177.626 157.086 177.466 156.806 177.026 156.806Z"></path></g><g><path d="M177.026 176.806L174.106 176.806L174.106 168.246C174.106 167.926 174.066 167.566 173.626 167.566C173.266 167.566 173.066 167.646 172.826 167.926L169.026 172.526C168.866 172.726 168.666 172.966 168.666 173.446C168.666 173.446 168.666 175.046 168.666 176.806L163.266 176.806C166.466 174.086 172.866 165.006 172.986 164.566C172.986 164.486 173.026 164.446 173.026 164.366C173.026 164.046 172.746 163.806 172.426 163.806C172.066 163.806 170.426 163.886 169.706 163.886C168.986 163.886 167.186 163.806 166.866 163.806C166.506 163.806 165.946 163.926 165.946 164.566C165.946 169.526 162.026 175.086 160.826 176.766L160.586 177.086C160.586 177.126 160.546 177.166 160.546 177.206C160.466 177.366 160.426 177.526 160.426 177.646C160.426 178.046 160.746 178.326 161.226 178.326L168.666 178.326L168.666 180.846C168.666 181.926 167.786 182.246 167.066 182.246C166.426 182.246 166.146 182.606 166.146 183.006C166.146 183.406 166.306 183.846 166.906 183.846C167.546 183.846 175.426 183.846 175.426 183.846C175.826 183.846 176.226 183.566 176.226 183.006C176.226 182.446 175.746 182.206 175.346 182.206C174.946 182.206 174.106 181.966 174.106 180.686L174.106 178.326C175.826 178.326 177.026 178.326 177.026 178.326C177.426 178.326 177.626 178.046 177.626 177.566C177.626 177.086 177.466 176.806 177.026 176.806Z"></path></g></g></g><g><line stroke="black" stroke-width="1.6" x1="596.5999366654188" x2="596.5999366654188" y1="143.8461538461538" y2="183.8461538461538"></line><line stroke="black" stroke-width="5" x1="603.8999366654189" x2="603.8999366654189" y1="143.8461538461538" y2="183.8461538461538"></line></g><g><g><line stroke="#6A6A6A" stroke-width="1.3" x1="93.84615384615385" x2="606.3999366654189" y1="288.8461538461538" y2="288.8461538461538"></line><line stroke="#6A6A6A" stroke-width="1.3" x1="93.84615384615385" x2="606.3999366654189" y1="278.8461538461538" y2="278.8461538461538"></line><line stroke="#6A6A6A" stroke-width="1.3" x1="93.84615384615385" x2="606.3999366654189" y1="268.8461538461538" y2="268.8461538461538"></line><line stroke="#6A6A6A" stroke-width="1.3" x1="93.84615384615385" x2="606.3999366654189" y1="258.8461538461538" y2="258.8461538461538"></line><line stroke="#6A6A6A" stroke-width="1.3" x1="93.84615384615385" x2="606.3999366654189" y1="248.8461538461538" y2="248.8461538461538"></line></g><g><path d="M119.046 234.926C118.486 234.926 117.246 235.966 116.446 236.846C113.486 240.126 112.526 245.126 112.526 249.286C112.526 251.606 112.806 254.206 113.086 255.846C113.166 256.326 113.206 256.406 112.726 256.806C110.166 258.926 107.406 261.366 105.326 263.926C102.566 267.366 100.846 271.086 100.846 275.366C100.846 282.326 105.606 288.926 115.406 288.926C116.326 288.926 117.366 288.846 118.166 288.686C118.606 288.606 118.686 288.566 118.766 289.046C119.246 291.726 119.846 295.206 119.846 297.086C119.846 303.006 115.846 303.726 113.486 303.726C111.326 303.726 110.286 303.086 110.286 302.566C110.286 302.126 110.646 302.166 111.566 301.886C112.806 301.526 114.246 300.446 114.246 298.126C114.246 295.926 112.846 294.046 110.406 294.046C107.726 294.046 106.126 296.166 106.126 298.646C106.126 301.246 107.686 305.166 113.726 305.166C116.406 305.166 121.606 303.966 121.606 297.166C121.606 294.886 120.886 291.086 120.446 288.606C120.366 288.126 120.406 288.166 120.966 287.926C125.006 286.326 127.686 282.926 127.686 278.406C127.686 273.286 123.926 268.766 118.046 268.766C116.926 268.766 117.046 268.966 116.886 268.046L115.886 262.246C115.806 261.766 115.886 261.726 116.126 261.486C116.766 260.886 117.606 260.046 118.366 259.206C121.726 255.526 123.726 250.766 123.726 246.246C123.726 242.766 122.766 239.326 121.126 236.926C120.526 236.046 119.486 234.926 119.046 234.926ZM113.886 263.086C114.286 262.766 114.366 262.806 114.446 263.246L115.286 268.366C115.406 269.126 115.406 269.086 114.686 269.326C111.166 270.526 108.886 273.686 108.886 277.086C108.886 280.686 110.766 283.246 113.486 284.166C113.806 284.286 114.286 284.406 114.566 284.406C114.886 284.406 115.046 284.206 115.046 283.966C115.046 283.686 114.726 283.566 114.446 283.446C112.766 282.726 111.566 281.006 111.566 279.166C111.566 276.886 113.126 275.166 115.566 274.486C116.206 274.326 116.286 274.366 116.366 274.806L118.366 286.726C118.446 287.166 118.406 287.166 117.806 287.286C117.166 287.406 116.366 287.486 115.566 287.486C108.566 287.486 104.046 283.606 104.046 278.046C104.046 275.686 104.446 272.526 107.766 268.766C110.166 266.086 112.006 264.606 113.886 263.086ZM118.486 274.166C121.726 274.446 124.406 277.166 124.406 280.686C124.406 283.206 122.886 285.246 120.646 286.366C120.166 286.606 120.086 286.606 120.006 286.126L118.046 274.726C117.966 274.246 118.006 274.126 118.486 274.166ZM119.646 241.126C120.966 241.126 122.046 242.206 122.046 244.406C122.046 247.166 120.726 249.726 117.606 252.846C116.966 253.486 116.006 254.406 115.086 255.206C114.806 255.446 114.646 255.406 114.566 254.886C114.406 253.846 114.326 252.486 114.326 251.206C114.326 244.966 117.206 241.126 119.646 241.126Z"></path></g><g><path d="M146.826 244.126C147.106 244.006 147.306 243.686 147.306 243.446L147.306 240.606C147.306 240.406 147.186 240.286 147.026 240.286C146.946 240.286 146.906 240.286 146.826 240.326C146.826 240.326 146.026 240.646 145.826 240.686C145.546 240.686 145.266 240.486 145.266 240.166C145.266 239.766 145.266 235.286 145.266 235.286C145.266 235.046 145.026 234.846 144.706 234.846C144.306 234.846 144.066 235.046 144.066 235.286C144.066 235.286 144.066 240.086 144.066 240.486C144.026 240.886 143.906 241.406 143.546 241.646C143.066 241.926 141.706 242.486 141.026 242.646C140.666 242.646 140.546 242.166 140.546 241.846C140.546 241.446 140.546 237.046 140.546 237.046C140.546 236.806 140.266 236.606 139.986 236.606C139.586 236.606 139.346 236.806 139.346 237.046C139.346 237.046 139.346 239.206 139.346 240.806L139.346 242.446C139.346 243.006 139.106 243.406 138.866 243.526C138.626 243.646 137.826 243.966 137.826 243.966C137.546 244.046 137.346 244.366 137.346 244.606L137.346 247.446C137.346 247.686 137.466 247.806 137.666 247.806C137.706 247.806 137.786 247.766 137.826 247.766C137.826 247.766 138.426 247.526 138.706 247.366C138.746 247.366 138.786 247.326 138.826 247.326C139.106 247.326 139.346 247.726 139.346 248.046L139.346 252.006C139.346 252.446 139.146 252.806 138.906 252.926C138.666 253.006 137.826 253.366 137.826 253.366C137.546 253.446 137.346 253.766 137.346 254.006L137.346 256.846C137.346 257.086 137.466 257.206 137.666 257.206C137.706 257.206 137.786 257.166 137.826 257.166C137.826 257.166 138.386 256.926 138.746 256.806C138.786 256.766 138.826 256.766 138.866 256.766C139.146 256.766 139.346 257.206 139.346 257.406C139.346 257.646 139.346 262.326 139.346 262.326C139.346 262.566 139.586 262.766 139.866 262.766C140.266 262.766 140.546 262.566 140.546 262.326C140.546 262.326 140.546 257.246 140.546 256.766C140.546 256.246 140.746 255.966 140.946 255.886L143.386 254.886C143.426 254.886 143.506 254.846 143.546 254.846C143.866 254.846 144.066 255.326 144.066 255.566C144.066 255.846 144.066 260.566 144.066 260.566C144.066 260.806 144.306 261.006 144.586 261.006C145.026 261.006 145.266 260.806 145.266 260.566C145.266 260.566 145.266 255.166 145.266 254.886C145.266 254.566 145.426 254.086 145.706 253.966C145.986 253.846 146.826 253.526 146.826 253.526C147.106 253.406 147.306 253.086 147.306 252.846L147.306 250.006C147.306 249.806 147.186 249.686 147.026 249.686C146.946 249.686 146.906 249.686 146.826 249.726C146.826 249.726 145.986 250.046 145.786 250.126C145.546 250.126 145.266 249.886 145.266 249.406L145.266 245.686C145.266 245.406 145.466 244.646 145.786 244.526C146.106 244.406 146.826 244.126 146.826 244.126ZM144.066 250.646C143.826 251.446 141.946 252.246 141.026 252.246C140.786 252.246 140.586 252.166 140.546 252.046C140.466 251.886 140.426 251.006 140.426 250.046C140.426 248.806 140.466 247.406 140.546 247.086C140.626 246.406 142.466 245.566 143.466 245.566C143.746 245.566 143.986 245.646 144.066 245.806C144.146 246.006 144.226 247.006 144.226 248.086C144.226 249.166 144.146 250.286 144.066 250.646Z"></path></g><g><g><path d="M177.026 261.806L174.106 261.806L174.106 253.246C174.106 252.926 174.066 252.566 173.626 252.566C173.266 252.566 173.066 252.646 172.826 252.926L169.026 257.526C168.866 257.726 168.666 257.966 168.666 258.446C168.666 258.446 168.666 260.046 168.666 261.806L163.266 261.806C166.466 259.086 172.866 250.006 172.986 249.566C172.986 249.486 173.026 249.446 173.026 249.366C173.026 249.046 172.746 248.806 172.426 248.806C172.066 248.806 170.426 248.886 169.706 248.886C168.986 248.886 167.186 248.806 166.866 248.806C166.506 248.806 165.946 248.926 165.946 249.566C165.946 254.526 162.026 260.086 160.826 261.766L160.586 262.086C160.586 262.126 160.546 262.166 160.546 262.206C160.466 262.366 160.426 262.526 160.426 262.646C160.426 263.046 160.746 263.326 161.226 263.326L168.666 263.326L168.666 265.846C168.666 266.926 167.786 267.246 167.066 267.246C166.426 267.246 166.146 267.606 166.146 268.006C166.146 268.406 166.306 268.846 166.906 268.846C167.546 268.846 175.426 268.846 175.426 268.846C175.826 268.846 176.226 268.566 176.226 268.006C176.226 267.446 175.746 267.206 175.346 267.206C174.946 267.206 174.106 266.966 174.106 265.686L174.106 263.326C175.826 263.326 177.026 263.326 177.026 263.326C177.426 263.326 177.626 263.046 177.626 262.566C177.626 262.086 177.466 261.806 177.026 261.806Z"></path></g><g><path d="M177.026 281.806L174.106 281.806L174.106 273.246C174.106 272.926 174.066 272.566 173.626 272.566C173.266 272.566 173.066 272.646 172.826 272.926L169.026 277.526C168.866 277.726 168.666 277.966 168.666 278.446C168.666 278.446 168.666 280.046 168.666 281.806L163.266 281.806C166.466 279.086 172.866 270.006 172.986 269.566C172.986 269.486 173.026 269.446 173.026 269.366C173.026 269.046 172.746 268.806 172.426 268.806C172.066 268.806 170.426 268.886 169.706 268.886C168.986 268.886 167.186 268.806 166.866 268.806C166.506 268.806 165.946 268.926 165.946 269.566C165.946 274.526 162.026 280.086 160.826 281.766L160.586 282.086C160.586 282.126 160.546 282.166 160.546 282.206C160.466 282.366 160.426 282.526 160.426 282.646C160.426 283.046 160.746 283.326 161.226 283.326L168.666 283.326L168.666 285.846C168.666 286.926 167.786 287.246 167.066 287.246C166.426 287.246 166.146 287.606 166.146 288.006C166.146 288.406 166.306 288.846 166.906 288.846C167.546 288.846 175.426 288.846 175.426 288.846C175.826 288.846 176.226 288.566 176.226 288.006C176.226 287.446 175.746 287.206 175.346 287.206C174.946 287.206 174.106 286.966 174.106 285.686L174.106 283.326C175.826 283.326 177.026 283.326 177.026 283.326C177.426 283.326 177.626 283.046 177.626 282.566C177.626 282.086 177.466 281.806 177.026 281.806Z"></path></g></g></g><g><line stroke="black" stroke-width="1.6" x1="596.5999366654188" x2="596.5999366654188" y1="248.8461538461538" y2="288.8461538461538"></line><line stroke="black" stroke-width="5" x1="603.8999366654189" x2="603.8999366654189" y1="248.8461538461538" y2="288.8461538461538"></line></g><g><g><line stroke="#6A6A6A" stroke-width="1.3" x1="93.84615384615385" x2="606.3999366654189" y1="388.8461538461538" y2="388.8461538461538"></line><line stroke="#6A6A6A" stroke-width="1.3" x1="93.84615384615385" x2="606.3999366654189" y1="378.8461538461538" y2="378.8461538461538"></line><line stroke="#6A6A6A" stroke-width="1.3" x1="93.84615384615385" x2="606.3999366654189" y1="368.8461538461538" y2="368.8461538461538"></line><line stroke="#6A6A6A" stroke-width="1.3" x1="93.84615384615385" x2="606.3999366654189" y1="358.8461538461538" y2="358.8461538461538"></line><line stroke="#6A6A6A" stroke-width="1.3" x1="93.84615384615385" x2="606.3999366654189" y1="348.8461538461538" y2="348.8461538461538"></line></g><g><path d="M119.046 334.926C118.486 334.926 117.246 335.966 116.446 336.846C113.486 340.126 112.526 345.126 112.526 349.286C112.526 351.606 112.806 354.206 113.086 355.846C113.166 356.326 113.206 356.406 112.726 356.806C110.166 358.926 107.406 361.366 105.326 363.926C102.566 367.366 100.846 371.086 100.846 375.366C100.846 382.326 105.606 388.926 115.406 388.926C116.326 388.926 117.366 388.846 118.166 388.686C118.606 388.606 118.686 388.566 118.766 389.046C119.246 391.726 119.846 395.206 119.846 397.086C119.846 403.006 115.846 403.726 113.486 403.726C111.326 403.726 110.286 403.086 110.286 402.566C110.286 402.126 110.646 402.166 111.566 401.886C112.806 401.526 114.246 400.446 114.246 398.126C114.246 395.926 112.846 394.046 110.406 394.046C107.726 394.046 106.126 396.166 106.126 398.646C106.126 401.246 107.686 405.166 113.726 405.166C116.406 405.166 121.606 403.966 121.606 397.166C121.606 394.886 120.886 391.086 120.446 388.606C120.366 388.126 120.406 388.166 120.966 387.926C125.006 386.326 127.686 382.926 127.686 378.406C127.686 373.286 123.926 368.766 118.046 368.766C116.926 368.766 117.046 368.966 116.886 368.046L115.886 362.246C115.806 361.766 115.886 361.726 116.126 361.486C116.766 360.886 117.606 360.046 118.366 359.206C121.726 355.526 123.726 350.766 123.726 346.246C123.726 342.766 122.766 339.326 121.126 336.926C120.526 336.046 119.486 334.926 119.046 334.926ZM113.886 363.086C114.286 362.766 114.366 362.806 114.446 363.246L115.286 368.366C115.406 369.126 115.406 369.086 114.686 369.326C111.166 370.526 108.886 373.686 108.886 377.086C108.886 380.686 110.766 383.246 113.486 384.166C113.806 384.286 114.286 384.406 114.566 384.406C114.886 384.406 115.046 384.206 115.046 383.966C115.046 383.686 114.726 383.566 114.446 383.446C112.766 382.726 111.566 381.006 111.566 379.166C111.566 376.886 113.126 375.166 115.566 374.486C116.206 374.326 116.286 374.366 116.366 374.806L118.366 386.726C118.446 387.166 118.406 387.166 117.806 387.286C117.166 387.406 116.366 387.486 115.566 387.486C108.566 387.486 104.046 383.606 104.046 378.046C104.046 375.686 104.446 372.526 107.766 368.766C110.166 366.086 112.006 364.606 113.886 363.086ZM118.486 374.166C121.726 374.446 124.406 377.166 124.406 380.686C124.406 383.206 122.886 385.246 120.646 386.366C120.166 386.606 120.086 386.606 120.006 386.126L118.046 374.726C117.966 374.246 118.006 374.126 118.486 374.166ZM119.646 341.126C120.966 341.126 122.046 342.206 122.046 344.406C122.046 347.166 120.726 349.726 117.606 352.846C116.966 353.486 116.006 354.406 115.086 355.206C114.806 355.446 114.646 355.406 114.566 354.886C114.406 353.846 114.326 352.486 114.326 351.206C114.326 344.966 117.206 341.126 119.646 341.126Z"></path></g><g><path d="M146.826 344.126C147.106 344.006 147.306 343.686 147.306 343.446L147.306 340.606C147.306 340.406 147.186 340.286 147.026 340.286C146.946 340.286 146.906 340.286 146.826 340.326C146.826 340.326 146.026 340.646 145.826 340.686C145.546 340.686 145.266 340.486 145.266 340.166C145.266 339.766 145.266 335.286 145.266 335.286C145.266 335.046 145.026 334.846 144.706 334.846C144.306 334.846 144.066 335.046 144.066 335.286C144.066 335.286 144.066 340.086 144.066 340.486C144.026 340.886 143.906 341.406 143.546 341.646C143.066 341.926 141.706 342.486 141.026 342.646C140.666 342.646 140.546 342.166 140.546 341.846C140.546 341.446 140.546 337.046 140.546 337.046C140.546 336.806 140.266 336.606 139.986 336.606C139.586 336.606 139.346 336.806 139.346 337.046C139.346 337.046 139.346 339.206 139.346 340.806L139.346 342.446C139.346 343.006 139.106 343.406 138.866 343.526C138.626 343.646 137.826 343.966 137.826 343.966C137.546 344.046 137.346 344.366 137.346 344.606L137.346 347.446C137.346 347.686 137.466 347.806 137.666 347.806C137.706 347.806 137.786 347.766 137.826 347.766C137.826 347.766 138.426 347.526 138.706 347.366C138.746 347.366 138.786 347.326 138.826 347.326C139.106 347.326 139.346 347.726 139.346 348.046L139.346 352.006C139.346 352.446 139.146 352.806 138.906 352.926C138.666 353.006 137.826 353.366 137.826 353.366C137.546 353.446 137.346 353.766 137.346 354.006L137.346 356.846C137.346 357.086 137.466 357.206 137.666 357.206C137.706 357.206 137.786 357.166 137.826 357.166C137.826 357.166 138.386 356.926 138.746 356.806C138.786 356.766 138.826 356.766 138.866 356.766C139.146 356.766 139.346 357.206 139.346 357.406C139.346 357.646 139.346 362.326 139.346 362.326C139.346 362.566 139.586 362.766 139.866 362.766C140.266 362.766 140.546 362.566 140.546 362.326C140.546 362.326 140.546 357.246 140.546 356.766C140.546 356.246 140.746 355.966 140.946 355.886L143.386 354.886C143.426 354.886 143.506 354.846 143.546 354.846C143.866 354.846 144.066 355.326 144.066 355.566C144.066 355.846 144.066 360.566 144.066 360.566C144.066 360.806 144.306 361.006 144.586 361.006C145.026 361.006 145.266 360.806 145.266 360.566C145.266 360.566 145.266 355.166 145.266 354.886C145.266 354.566 145.426 354.086 145.706 353.966C145.986 353.846 146.826 353.526 146.826 353.526C147.106 353.406 147.306 353.086 147.306 352.846L147.306 350.006C147.306 349.806 147.186 349.686 147.026 349.686C146.946 349.686 146.906 349.686 146.826 349.726C146.826 349.726 145.986 350.046 145.786 350.126C145.546 350.126 145.266 349.886 145.266 349.406L145.266 345.686C145.266 345.406 145.466 344.646 145.786 344.526C146.106 344.406 146.826 344.126 146.826 344.126ZM144.066 350.646C143.826 351.446 141.946 352.246 141.026 352.246C140.786 352.246 140.586 352.166 140.546 352.046C140.466 351.886 140.426 351.006 140.426 350.046C140.426 348.806 140.466 347.406 140.546 347.086C140.626 346.406 142.466 345.566 143.466 345.566C143.746 345.566 143.986 345.646 144.066 345.806C144.146 346.006 144.226 347.006 144.226 348.086C144.226 349.166 144.146 350.286 144.066 350.646Z"></path></g><g><g><path d="M177.026 361.806L174.106 361.806L174.106 353.246C174.106 352.926 174.066 352.566 173.626 352.566C173.266 352.566 173.066 352.646 172.826 352.926L169.026 357.526C168.866 357.726 168.666 357.966 168.666 358.446C168.666 358.446 168.666 360.046 168.666 361.806L163.266 361.806C166.466 359.086 172.866 350.006 172.986 349.566C172.986 349.486 173.026 349.446 173.026 349.366C173.026 349.046 172.746 348.806 172.426 348.806C172.066 348.806 170.426 348.886 169.706 348.886C168.986 348.886 167.186 348.806 166.866 348.806C166.506 348.806 165.946 348.926 165.946 349.566C165.946 354.526 162.026 360.086 160.826 361.766L160.586 362.086C160.586 362.126 160.546 362.166 160.546 362.206C160.466 362.366 160.426 362.526 160.426 362.646C160.426 363.046 160.746 363.326 161.226 363.326L168.666 363.326L168.666 365.846C168.666 366.926 167.786 367.246 167.066 367.246C166.426 367.246 166.146 367.606 166.146 368.006C166.146 368.406 166.306 368.846 166.906 368.846C167.546 368.846 175.426 368.846 175.426 368.846C175.826 368.846 176.226 368.566 176.226 368.006C176.226 367.446 175.746 367.206 175.346 367.206C174.946 367.206 174.106 366.966 174.106 365.686L174.106 363.326C175.826 363.326 177.026 363.326 177.026 363.326C177.426 363.326 177.626 363.046 177.626 362.566C177.626 362.086 177.466 361.806 177.026 361.806Z"></path></g><g><path d="M177.026 381.806L174.106 381.806L174.106 373.246C174.106 372.926 174.066 372.566 173.626 372.566C173.266 372.566 173.066 372.646 172.826 372.926L169.026 377.526C168.866 377.726 168.666 377.966 168.666 378.446C168.666 378.446 168.666 380.046 168.666 381.806L163.266 381.806C166.466 379.086 172.866 370.006 172.986 369.566C172.986 369.486 173.026 369.446 173.026 369.366C173.026 369.046 172.746 368.806 172.426 368.806C172.066 368.806 170.426 368.886 169.706 368.886C168.986 368.886 167.186 368.806 166.866 368.806C166.506 368.806 165.946 368.926 165.946 369.566C165.946 374.526 162.026 380.086 160.826 381.766L160.586 382.086C160.586 382.126 160.546 382.166 160.546 382.206C160.466 382.366 160.426 382.526 160.426 382.646C160.426 383.046 160.746 383.326 161.226 383.326L168.666 383.326L168.666 385.846C168.666 386.926 167.786 387.246 167.066 387.246C166.426 387.246 166.146 387.606 166.146 388.006C166.146 388.406 166.306 388.846 166.906 388.846C167.546 388.846 175.426 388.846 175.426 388.846C175.826 388.846 176.226 388.566 176.226 388.006C176.226 387.446 175.746 387.206 175.346 387.206C174.946 387.206 174.106 386.966 174.106 385.686L174.106 383.326C175.826 383.326 177.026 383.326 177.026 383.326C177.426 383.326 177.626 383.046 177.626 382.566C177.626 382.086 177.466 381.806 177.026 381.806Z"></path></g></g></g><g><line stroke="black" stroke-width="1.6" x1="596.5999366654188" x2="596.5999366654188" y1="348.8461538461538" y2="388.8461538461538"></line><line stroke="black" stroke-width="5" x1="603.8999366654189" x2="603.8999366654189" y1="348.8461538461538" y2="388.8461538461538"></line></g><g><g><line stroke="#6A6A6A" stroke-width="1.3" x1="93.84615384615385" x2="606.3999366654189" y1="488.8461538461538" y2="488.8461538461538"></line><line stroke="#6A6A6A" stroke-width="1.3" x1="93.84615384615385" x2="606.3999366654189" y1="478.8461538461538" y2="478.8461538461538"></line><line stroke="#6A6A6A" stroke-width="1.3" x1="93.84615384615385" x2="606.3999366654189" y1="468.8461538461538" y2="468.8461538461538"></line><line stroke="#6A6A6A" stroke-width="1.3" x1="93.84615384615385" x2="606.3999366654189" y1="458.8461538461538" y2="458.8461538461538"></line><line stroke="#6A6A6A" stroke-width="1.3" x1="93.84615384615385" x2="606.3999366654189" y1="448.8461538461538" y2="448.8461538461538"></line></g><g><path d="M119.046 434.926C118.486 434.926 117.246 435.966 116.446 436.846C113.486 440.126 112.526 445.126 112.526 449.286C112.526 451.606 112.806 454.206 113.086 455.846C113.166 456.326 113.206 456.406 112.726 456.806C110.166 458.926 107.406 461.366 105.326 463.926C102.566 467.366 100.846 471.086 100.846 475.366C100.846 482.326 105.606 488.926 115.406 488.926C116.326 488.926 117.366 488.846 118.166 488.686C118.606 488.606 118.686 488.566 118.766 489.046C119.246 491.726 119.846 495.206 119.846 497.086C119.846 503.006 115.846 503.726 113.486 503.726C111.326 503.726 110.286 503.086 110.286 502.566C110.286 502.126 110.646 502.166 111.566 501.886C112.806 501.526 114.246 500.446 114.246 498.126C114.246 495.926 112.846 494.046 110.406 494.046C107.726 494.046 106.126 496.166 106.126 498.646C106.126 501.246 107.686 505.166 113.726 505.166C116.406 505.166 121.606 503.966 121.606 497.166C121.606 494.886 120.886 491.086 120.446 488.606C120.366 488.126 120.406 488.166 120.966 487.926C125.006 486.326 127.686 482.926 127.686 478.406C127.686 473.286 123.926 468.766 118.046 468.766C116.926 468.766 117.046 468.966 116.886 468.046L115.886 462.246C115.806 461.766 115.886 461.726 116.126 461.486C116.766 460.886 117.606 460.046 118.366 459.206C121.726 455.526 123.726 450.766 123.726 446.246C123.726 442.766 122.766 439.326 121.126 436.926C120.526 436.046 119.486 434.926 119.046 434.926ZM113.886 463.086C114.286 462.766 114.366 462.806 114.446 463.246L115.286 468.366C115.406 469.126 115.406 469.086 114.686 469.326C111.166 470.526 108.886 473.686 108.886 477.086C108.886 480.686 110.766 483.246 113.486 484.166C113.806 484.286 114.286 484.406 114.566 484.406C114.886 484.406 115.046 484.206 115.046 483.966C115.046 483.686 114.726 483.566 114.446 483.446C112.766 482.726 111.566 481.006 111.566 479.166C111.566 476.886 113.126 475.166 115.566 474.486C116.206 474.326 116.286 474.366 116.366 474.806L118.366 486.726C118.446 487.166 118.406 487.166 117.806 487.286C117.166 487.406 116.366 487.486 115.566 487.486C108.566 487.486 104.046 483.606 104.046 478.046C104.046 475.686 104.446 472.526 107.766 468.766C110.166 466.086 112.006 464.606 113.886 463.086ZM118.486 474.166C121.726 474.446 124.406 477.166 124.406 480.686C124.406 483.206 122.886 485.246 120.646 486.366C120.166 486.606 120.086 486.606 120.006 486.126L118.046 474.726C117.966 474.246 118.006 474.126 118.486 474.166ZM119.646 441.126C120.966 441.126 122.046 442.206 122.046 444.406C122.046 447.166 120.726 449.726 117.606 452.846C116.966 453.486 116.006 454.406 115.086 455.206C114.806 455.446 114.646 455.406 114.566 454.886C114.406 453.846 114.326 452.486 114.326 451.206C114.326 444.966 117.206 441.126 119.646 441.126Z"></path></g><g><path d="M146.826 444.126C147.106 444.006 147.306 443.686 147.306 443.446L147.306 440.606C147.306 440.406 147.186 440.286 147.026 440.286C146.946 440.286 146.906 440.286 146.826 440.326C146.826 440.326 146.026 440.646 145.826 440.686C145.546 440.686 145.266 440.486 145.266 440.166C145.266 439.766 145.266 435.286 145.266 435.286C145.266 435.046 145.026 434.846 144.706 434.846C144.306 434.846 144.066 435.046 144.066 435.286C144.066 435.286 144.066 440.086 144.066 440.486C144.026 440.886 143.906 441.406 143.546 441.646C143.066 441.926 141.706 442.486 141.026 442.646C140.666 442.646 140.546 442.166 140.546 441.846C140.546 441.446 140.546 437.046 140.546 437.046C140.546 436.806 140.266 436.606 139.986 436.606C139.586 436.606 139.346 436.806 139.346 437.046C139.346 437.046 139.346 439.206 139.346 440.806L139.346 442.446C139.346 443.006 139.106 443.406 138.866 443.526C138.626 443.646 137.826 443.966 137.826 443.966C137.546 444.046 137.346 444.366 137.346 444.606L137.346 447.446C137.346 447.686 137.466 447.806 137.666 447.806C137.706 447.806 137.786 447.766 137.826 447.766C137.826 447.766 138.426 447.526 138.706 447.366C138.746 447.366 138.786 447.326 138.826 447.326C139.106 447.326 139.346 447.726 139.346 448.046L139.346 452.006C139.346 452.446 139.146 452.806 138.906 452.926C138.666 453.006 137.826 453.366 137.826 453.366C137.546 453.446 137.346 453.766 137.346 454.006L137.346 456.846C137.346 457.086 137.466 457.206 137.666 457.206C137.706 457.206 137.786 457.166 137.826 457.166C137.826 457.166 138.386 456.926 138.746 456.806C138.786 456.766 138.826 456.766 138.866 456.766C139.146 456.766 139.346 457.206 139.346 457.406C139.346 457.646 139.346 462.326 139.346 462.326C139.346 462.566 139.586 462.766 139.866 462.766C140.266 462.766 140.546 462.566 140.546 462.326C140.546 462.326 140.546 457.246 140.546 456.766C140.546 456.246 140.746 455.966 140.946 455.886L143.386 454.886C143.426 454.886 143.506 454.846 143.546 454.846C143.866 454.846 144.066 455.326 144.066 455.566C144.066 455.846 144.066 460.566 144.066 460.566C144.066 460.806 144.306 461.006 144.586 461.006C145.026 461.006 145.266 460.806 145.266 460.566C145.266 460.566 145.266 455.166 145.266 454.886C145.266 454.566 145.426 454.086 145.706 453.966C145.986 453.846 146.826 453.526 146.826 453.526C147.106 453.406 147.306 453.086 147.306 452.846L147.306 450.006C147.306 449.806 147.186 449.686 147.026 449.686C146.946 449.686 146.906 449.686 146.826 449.726C146.826 449.726 145.986 450.046 145.786 450.126C145.546 450.126 145.266 449.886 145.266 449.406L145.266 445.686C145.266 445.406 145.466 444.646 145.786 444.526C146.106 444.406 146.826 444.126 146.826 444.126ZM144.066 450.646C143.826 451.446 141.946 452.246 141.026 452.246C140.786 452.246 140.586 452.166 140.546 452.046C140.466 451.886 140.426 451.006 140.426 450.046C140.426 448.806 140.466 447.406 140.546 447.086C140.626 446.406 142.466 445.566 143.466 445.566C143.746 445.566 143.986 445.646 144.066 445.806C144.146 446.006 144.226 447.006 144.226 448.086C144.226 449.166 144.146 450.286 144.066 450.646Z"></path></g><g><g><path d="M177.026 461.806L174.106 461.806L174.106 453.246C174.106 452.926 174.066 452.566 173.626 452.566C173.266 452.566 173.066 452.646 172.826 452.926L169.026 457.526C168.866 457.726 168.666 457.966 168.666 458.446C168.666 458.446 168.666 460.046 168.666 461.806L163.266 461.806C166.466 459.086 172.866 450.006 172.986 449.566C172.986 449.486 173.026 449.446 173.026 449.366C173.026 449.046 172.746 448.806 172.426 448.806C172.066 448.806 170.426 448.886 169.706 448.886C168.986 448.886 167.186 448.806 166.866 448.806C166.506 448.806 165.946 448.926 165.946 449.566C165.946 454.526 162.026 460.086 160.826 461.766L160.586 462.086C160.586 462.126 160.546 462.166 160.546 462.206C160.466 462.366 160.426 462.526 160.426 462.646C160.426 463.046 160.746 463.326 161.226 463.326L168.666 463.326L168.666 465.846C168.666 466.926 167.786 467.246 167.066 467.246C166.426 467.246 166.146 467.606 166.146 468.006C166.146 468.406 166.306 468.846 166.906 468.846C167.546 468.846 175.426 468.846 175.426 468.846C175.826 468.846 176.226 468.566 176.226 468.006C176.226 467.446 175.746 467.206 175.346 467.206C174.946 467.206 174.106 466.966 174.106 465.686L174.106 463.326C175.826 463.326 177.026 463.326 177.026 463.326C177.426 463.326 177.626 463.046 177.626 462.566C177.626 462.086 177.466 461.806 177.026 461.806Z"></path></g><g><path d="M177.026 481.806L174.106 481.806L174.106 473.246C174.106 472.926 174.066 472.566 173.626 472.566C173.266 472.566 173.066 472.646 172.826 472.926L169.026 477.526C168.866 477.726 168.666 477.966 168.666 478.446C168.666 478.446 168.666 480.046 168.666 481.806L163.266 481.806C166.466 479.086 172.866 470.006 172.986 469.566C172.986 469.486 173.026 469.446 173.026 469.366C173.026 469.046 172.746 468.806 172.426 468.806C172.066 468.806 170.426 468.886 169.706 468.886C168.986 468.886 167.186 468.806 166.866 468.806C166.506 468.806 165.946 468.926 165.946 469.566C165.946 474.526 162.026 480.086 160.826 481.766L160.586 482.086C160.586 482.126 160.546 482.166 160.546 482.206C160.466 482.366 160.426 482.526 160.426 482.646C160.426 483.046 160.746 483.326 161.226 483.326L168.666 483.326L168.666 485.846C168.666 486.926 167.786 487.246 167.066 487.246C166.426 487.246 166.146 487.606 166.146 488.006C166.146 488.406 166.306 488.846 166.906 488.846C167.546 488.846 175.426 488.846 175.426 488.846C175.826 488.846 176.226 488.566 176.226 488.006C176.226 487.446 175.746 487.206 175.346 487.206C174.946 487.206 174.106 486.966 174.106 485.686L174.106 483.326C175.826 483.326 177.026 483.326 177.026 483.326C177.426 483.326 177.626 483.046 177.626 482.566C177.626 482.086 177.466 481.806 177.026 481.806Z"></path></g></g></g><g><line stroke="black" stroke-width="1.6" x1="596.5999366654188" x2="596.5999366654188" y1="448.8461538461538" y2="488.8461538461538"></line><line stroke="black" stroke-width="5" x1="603.8999366654189" x2="603.8999366654189" y1="448.8461538461538" y2="488.8461538461538"></line></g><g><g><path d="M205.206 199.486C209.206 199.486 214.126 195.766 214.126 191.966C214.126 189.686 212.326 188.206 209.726 188.206C204.806 188.206 200.846 191.846 200.846 195.726C200.846 198.086 202.766 199.486 205.206 199.486Z"></path></g><line stroke="#000000" stroke-width="1.2" x1="213.52615384615387" x2="213.52615384615387" y1="192.0061538461538" y2="157.0061538461538"></line><line stroke="#000000" stroke-width="2.2" x1="197.64615384615388" x2="219.56615384615387" y1="193.8461538461538" y2="193.8461538461538"></line></g><g><path d="M317.634 170.286C316.114 168.446 314.874 166.966 314.874 164.726C314.874 164.566 314.914 164.366 314.914 164.206C315.074 161.886 316.514 159.966 317.554 158.326C317.674 158.126 317.714 157.926 317.714 157.726C317.714 157.326 317.554 156.966 317.554 156.966C317.554 156.966 311.634 149.926 310.954 149.246C310.754 149.046 310.474 148.926 310.234 148.926C309.834 148.926 309.434 149.206 309.434 149.766C309.434 149.966 309.474 150.166 309.594 150.406C309.754 150.846 312.034 152.886 312.034 155.766C312.034 157.246 311.434 158.966 309.634 160.846C309.234 161.246 309.074 161.686 309.074 162.006C309.074 162.566 309.474 162.966 309.474 162.966L311.434 165.366C312.074 166.166 312.634 166.926 313.154 167.766C313.234 167.926 313.394 168.126 313.394 168.326C313.394 168.366 313.394 168.446 313.354 168.486C313.274 168.646 313.114 168.686 312.914 168.686C312.674 168.686 312.434 168.606 312.274 168.566C312.074 168.566 311.834 168.446 311.634 168.446C309.914 168.446 308.354 170.166 308.354 172.286C308.354 174.286 310.074 176.246 312.994 178.486C313.314 178.726 313.714 178.846 314.034 178.846C314.314 178.846 314.594 178.766 314.634 178.606C314.674 178.486 314.714 178.406 314.714 178.326C314.714 177.966 314.394 177.646 314.074 177.366C313.554 177.366 313.114 176.286 313.034 175.926C312.914 175.606 312.874 175.246 312.874 174.886C312.874 173.646 313.474 172.246 314.754 172.006C314.954 171.966 315.154 171.966 315.394 171.966C316.554 171.966 317.874 172.406 318.514 172.646C318.554 172.646 318.594 172.686 318.634 172.686C318.754 172.726 318.834 172.726 318.914 172.726C319.034 172.726 319.114 172.686 319.114 172.566C319.114 172.086 318.074 170.766 317.634 170.286Z"></path></g><g><path d="M427.062 162.886L427.062 159.206C427.062 158.606 426.582 158.166 426.022 158.166L416.822 158.166C416.222 158.166 415.782 158.606 415.782 159.206L415.782 162.886C415.782 163.446 416.222 163.926 416.822 163.926L426.022 163.926C426.582 163.926 427.062 163.446 427.062 162.886Z"></path></g><g><g><path d="M205.206 294.486C209.206 294.486 214.126 290.766 214.126 286.966C214.126 284.686 212.326 283.206 209.726 283.206C204.806 283.206 200.846 286.846 200.846 290.726C200.846 293.086 202.766 294.486 205.206 294.486Z"></path></g><line stroke="#000000" stroke-width="1.2" x1="213.52615384615387" x2="213.52615384615387" y1="287.00615384615384" y2="252.00615384615384"></line></g><g><path d="M317.634 275.286C316.114 273.446 314.874 271.966 314.874 269.726C314.874 269.566 314.914 269.366 314.914 269.206C315.074 266.886 316.514 264.966 317.554 263.326C317.674 263.126 317.714 262.926 317.714 262.726C317.714 262.326 317.554 261.966 317.554 261.966C317.554 261.966 311.634 254.926 310.954 254.246C310.754 254.046 310.474 253.926 310.234 253.926C309.834 253.926 309.434 254.206 309.434 254.766C309.434 254.966 309.474 255.166 309.594 255.406C309.754 255.846 312.034 257.886 312.034 260.766C312.034 262.246 311.434 263.966 309.634 265.846C309.234 266.246 309.074 266.686 309.074 267.006C309.074 267.566 309.474 267.966 309.474 267.966L311.434 270.366C312.074 271.166 312.634 271.926 313.154 272.766C313.234 272.926 313.394 273.126 313.394 273.326C313.394 273.366 313.394 273.446 313.354 273.486C313.274 273.646 313.114 273.686 312.914 273.686C312.674 273.686 312.434 273.606 312.274 273.566C312.074 273.566 311.834 273.446 311.634 273.446C309.914 273.446 308.354 275.166 308.354 277.286C308.354 279.286 310.074 281.246 312.994 283.486C313.314 283.726 313.714 283.846 314.034 283.846C314.314 283.846 314.594 283.766 314.634 283.606C314.674 283.486 314.714 283.406 314.714 283.326C314.714 282.966 314.394 282.646 314.074 282.366C313.554 282.366 313.114 281.286 313.034 280.926C312.914 280.606 312.874 280.246 312.874 279.886C312.874 278.646 313.474 277.246 314.754 277.006C314.954 276.966 315.154 276.966 315.394 276.966C316.554 276.966 317.874 277.406 318.514 277.646C318.554 277.646 318.594 277.686 318.634 277.686C318.754 277.726 318.834 277.726 318.914 277.726C319.034 277.726 319.114 277.686 319.114 277.566C319.114 277.086 318.074 275.766 317.634 275.286Z"></path></g><g><path d="M427.062 267.886L427.062 264.206C427.062 263.606 426.582 263.166 426.022 263.166L416.822 263.166C416.222 263.166 415.782 263.606 415.782 264.206L415.782 267.886C415.782 268.446 416.222 268.926 416.822 268.926L426.022 268.926C426.582 268.926 427.062 268.446 427.062 267.886Z"></path></g><g><g><path d="M205.206 384.486C209.206 384.486 214.126 380.766 214.126 376.966C214.126 374.686 212.326 373.206 209.726 373.206C204.806 373.206 200.846 376.846 200.846 380.726C200.846 383.086 202.766 384.486 205.206 384.486Z"></path></g><line stroke="#000000" stroke-width="1.2" x1="213.52615384615387" x2="213.52615384615387" y1="377.00615384615384" y2="342.00615384615384"></line></g><g><path d="M317.634 375.286C316.114 373.446 314.874 371.966 314.874 369.726C314.874 369.566 314.914 369.366 314.914 369.206C315.074 366.886 316.514 364.966 317.554 363.326C317.674 363.126 317.714 362.926 317.714 362.726C317.714 362.326 317.554 361.966 317.554 361.966C317.554 361.966 311.634 354.926 310.954 354.246C310.754 354.046 310.474 353.926 310.234 353.926C309.834 353.926 309.434 354.206 309.434 354.766C309.434 354.966 309.474 355.166 309.594 355.406C309.754 355.846 312.034 357.886 312.034 360.766C312.034 362.246 311.434 363.966 309.634 365.846C309.234 366.246 309.074 366.686 309.074 367.006C309.074 367.566 309.474 367.966 309.474 367.966L311.434 370.366C312.074 371.166 312.634 371.926 313.154 372.766C313.234 372.926 313.394 373.126 313.394 373.326C313.394 373.366 313.394 373.446 313.354 373.486C313.274 373.646 313.114 373.686 312.914 373.686C312.674 373.686 312.434 373.606 312.274 373.566C312.074 373.566 311.834 373.446 311.634 373.446C309.914 373.446 308.354 375.166 308.354 377.286C308.354 379.286 310.074 381.246 312.994 383.486C313.314 383.726 313.714 383.846 314.034 383.846C314.314 383.846 314.594 383.766 314.634 383.606C314.674 383.486 314.714 383.406 314.714 383.326C314.714 382.966 314.394 382.646 314.074 382.366C313.554 382.366 313.114 381.286 313.034 380.926C312.914 380.606 312.874 380.246 312.874 379.886C312.874 378.646 313.474 377.246 314.754 377.006C314.954 376.966 315.154 376.966 315.394 376.966C316.554 376.966 317.874 377.406 318.514 377.646C318.554 377.646 318.594 377.686 318.634 377.686C318.754 377.726 318.834 377.726 318.914 377.726C319.034 377.726 319.114 377.686 319.114 377.566C319.114 377.086 318.074 375.766 317.634 375.286Z"></path></g><g><path d="M427.062 367.886L427.062 364.206C427.062 363.606 426.582 363.166 426.022 363.166L416.822 363.166C416.222 363.166 415.782 363.606 415.782 364.206L415.782 367.886C415.782 368.446 416.222 368.926 416.822 368.926L426.022 368.926C426.582 368.926 427.062 368.446 427.062 367.886Z"></path></g><g><g><path d="M205.206 474.486C209.206 474.486 214.126 470.766 214.126 466.966C214.126 464.686 212.326 463.206 209.726 463.206C204.806 463.206 200.846 466.846 200.846 470.726C200.846 473.086 202.766 474.486 205.206 474.486Z"></path></g><line stroke="#000000" stroke-width="1.2" x1="201.44615384615386" x2="201.44615384615386" y1="470.6861538461538" y2="505.6861538461538"></line></g><g><path d="M317.634 475.286C316.114 473.446 314.874 471.966 314.874 469.726C314.874 469.566 314.914 469.366 314.914 469.206C315.074 466.886 316.514 464.966 317.554 463.326C317.674 463.126 317.714 462.926 317.714 462.726C317.714 462.326 317.554 461.966 317.554 461.966C317.554 461.966 311.634 454.926 310.954 454.246C310.754 454.046 310.474 453.926 310.234 453.926C309.834 453.926 309.434 454.206 309.434 454.766C309.434 454.966 309.474 455.166 309.594 455.406C309.754 455.846 312.034 457.886 312.034 460.766C312.034 462.246 311.434 463.966 309.634 465.846C309.234 466.246 309.074 466.686 309.074 467.006C309.074 467.566 309.474 467.966 309.474 467.966L311.434 470.366C312.074 471.166 312.634 471.926 313.154 472.766C313.234 472.926 313.394 473.126 313.394 473.326C313.394 473.366 313.394 473.446 313.354 473.486C313.274 473.646 313.114 473.686 312.914 473.686C312.674 473.686 312.434 473.606 312.274 473.566C312.074 473.566 311.834 473.446 311.634 473.446C309.914 473.446 308.354 475.166 308.354 477.286C308.354 479.286 310.074 481.246 312.994 483.486C313.314 483.726 313.714 483.846 314.034 483.846C314.314 483.846 314.594 483.766 314.634 483.606C314.674 483.486 314.714 483.406 314.714 483.326C314.714 482.966 314.394 482.646 314.074 482.366C313.554 482.366 313.114 481.286 313.034 480.926C312.914 480.606 312.874 480.246 312.874 479.886C312.874 478.646 313.474 477.246 314.754 477.006C314.954 476.966 315.154 476.966 315.394 476.966C316.554 476.966 317.874 477.406 318.514 477.646C318.554 477.646 318.594 477.686 318.634 477.686C318.754 477.726 318.834 477.726 318.914 477.726C319.034 477.726 319.114 477.686 319.114 477.566C319.114 477.086 318.074 475.766 317.634 475.286Z"></path></g><g><path d="M427.062 467.886L427.062 464.206C427.062 463.606 426.582 463.166 426.022 463.166L416.822 463.166C416.222 463.166 415.782 463.606 415.782 464.206L415.782 467.886C415.782 468.446 416.222 468.926 416.822 468.926L426.022 468.926C426.582 468.926 427.062 468.446 427.062 467.886Z"></path></g></g></svg>