<?xml version="1.0" encoding="UTF-8" standalone="no"?><svg xmlns="http://www.w3.org/2000/svg" height="279.4mm" viewBox="0 0 1328.6153846153845 1719.3846153846152" width="215.9mm"><g transform="translate(93.84615384615385)"><g><g><line stroke="#6A6A6A" stroke-width="1.3" x1="0" x2="305.326502410797" y1="183.8461538461538" y2="183.8461538461538"></line><line stroke="#6A6A6A" stroke-width="1.3" x1="0" x2="305.326502410797" y1="173.8461538461538" y2="173.8461538461538"></line><line stroke="#6A6A6A" stroke-width="1.3" x1="0" x2="305.326502410797" y1="163.8461538461538" y2="163.8461538461538"></line><line stroke="#6A6A6A" stroke-width="1.3" x1="0" x2="305.326502410797" y1="153.8461538461538" y2="153.8461538461538"></line><line stroke="#6A6A6A" stroke-width="1.3" x1="0" x2="305.326502410797" y1="143.8461538461538" y2="143.8461538461538"></line></g><g><path d="M25.200 129.926C24.640 129.926 23.400 130.966 22.600 131.846C19.640 135.126 18.680 140.126 18.680 144.286C18.680 146.606 18.960 149.206 19.240 150.846C19.320 151.326 19.360 151.406 18.880 151.806C16.320 153.926 13.560 156.366 11.480 158.926C8.720 162.366 7 166.086 7 170.366C7 177.326 11.760 183.926 21.560 183.926C22.480 183.926 23.520 183.846 24.320 183.686C24.760 183.606 24.840 183.566 24.920 184.046C25.400 186.726 26 190.206 26 192.086C26 198.006 22 198.726 19.640 198.726C17.480 198.726 16.440 198.086 16.440 197.566C16.440 197.126 16.800 197.166 17.720 196.886C18.960 196.526 20.400 195.446 20.400 193.126C20.400 190.926 19 189.046 16.560 189.046C13.880 189.046 12.280 191.166 12.280 193.646C12.280 196.246 13.840 200.166 19.880 200.166C22.560 200.166 27.760 198.966 27.760 192.166C27.760 189.886 27.040 186.086 26.600 183.606C26.520 183.126 26.560 183.166 27.120 182.926C31.160 181.326 33.840 177.926 33.840 173.406C33.840 168.286 30.080 163.766 24.200 163.766C23.080 163.766 23.200 163.966 23.040 163.046L22.040 157.246C21.960 156.766 22.040 156.726 22.280 156.486C22.920 155.886 23.760 155.046 24.520 154.206C27.880 150.526 29.880 145.766 29.880 141.246C29.880 137.766 28.920 134.326 27.280 131.926C26.680 131.046 25.640 129.926 25.200 129.926ZM20.040 158.086C20.440 157.766 20.520 157.806 20.600 158.246L21.440 163.366C21.560 164.126 21.560 164.086 20.840 164.326C17.320 165.526 15.040 168.686 15.040 172.086C15.040 175.686 16.920 178.246 19.640 179.166C19.960 179.286 20.440 179.406 20.720 179.406C21.040 179.406 21.200 179.206 21.200 178.966C21.200 178.686 20.880 178.566 20.600 178.446C18.920 177.726 17.720 176.006 17.720 174.166C17.720 171.886 19.280 170.166 21.720 169.486C22.360 169.326 22.440 169.366 22.520 169.806L24.520 181.726C24.600 182.166 24.560 182.166 23.960 182.286C23.320 182.406 22.520 182.486 21.720 182.486C14.720 182.486 10.200 178.606 10.200 173.046C10.200 170.686 10.600 167.526 13.920 163.766C16.320 161.086 18.160 159.606 20.040 158.086ZM24.640 169.166C27.880 169.446 30.560 172.166 30.560 175.686C30.560 178.206 29.040 180.246 26.800 181.366C26.320 181.606 26.240 181.606 26.160 181.126L24.200 169.726C24.120 169.246 24.160 169.126 24.640 169.166ZM25.800 136.126C27.120 136.126 28.200 137.206 28.200 139.406C28.200 142.166 26.880 144.726 23.760 147.846C23.120 148.486 22.160 149.406 21.240 150.206C20.960 150.446 20.800 150.406 20.720 149.886C20.560 148.846 20.480 147.486 20.480 146.206C20.480 139.966 23.360 136.126 25.800 136.126Z"></path></g><g></g><g><g><path d="M58.060 149.846C58.540 150.326 59.220 150.526 59.860 150.526C60.180 150.526 60.540 150.446 60.860 150.366C62.100 150.046 63.060 148.766 63.060 147.486C63.060 147.326 63.060 147.206 63.020 147.046C62.820 145.726 61.700 144.766 60.500 144.326C59.540 143.926 58.380 143.806 57.340 143.806C54.300 143.846 51.460 145.326 50.020 148.046C49.140 149.726 48.460 151.846 48.460 153.726L48.460 153.886C48.500 155.726 48.820 157.806 49.700 159.406C50.540 160.926 51.900 162.566 53.460 163.246C54.460 163.686 55.660 163.806 56.660 163.806C58.460 163.806 60.460 163.526 61.900 162.366C63.300 161.246 64.220 159.446 64.220 157.646C64.220 157.446 64.180 157.286 64.180 157.086C64.020 155.446 63.020 154.046 61.740 153.086C60.660 152.286 59.420 151.846 58.180 151.846C56.900 151.846 55.580 152.326 54.540 153.246C54.460 153.326 54.380 153.326 54.300 153.326C54.060 153.326 53.940 153.006 53.940 152.366C54.060 144.966 56.420 144.766 57.260 144.766C58.060 144.766 58.580 144.966 58.580 145.366C58.580 145.926 57.820 146.406 57.580 146.886C57.380 147.246 57.300 147.646 57.300 148.046C57.300 148.646 57.500 149.246 57.900 149.686C57.940 149.766 58.020 149.806 58.060 149.846ZM56.540 153.766C57.820 153.766 58.900 155.766 58.900 158.246C58.900 160.726 57.820 162.726 56.540 162.726C55.260 162.726 54.220 160.726 54.220 158.246C54.220 155.766 55.260 153.766 56.540 153.766Z"></path></g><g><path d="M60.820 172.406C62.260 171.486 63.220 170.166 63.220 168.166C63.220 164.086 57.340 163.486 56.260 163.486C51.620 163.486 48.460 165.606 48.460 168.966C48.460 171.726 50.020 173.206 51.940 174.286C49.860 175.286 48.260 176.606 48.260 179.126C48.260 182.606 51.860 184.206 55.820 184.206C59.820 184.206 64.100 182.486 64.100 177.086C64.100 174.686 62.700 173.366 60.820 172.406ZM55.660 182.886C52.980 182.886 50.540 181.526 50.540 178.926C50.540 177.326 51.940 175.846 53.700 175.166C56.620 176.446 59.580 177.286 59.580 179.926C59.580 181.526 58.340 182.886 55.660 182.886ZM58.740 171.486C55.540 170.366 52.140 169.686 52.140 167.166C52.140 165.486 54.420 164.646 56.180 164.646C57.460 164.646 60.860 165.286 60.860 168.086C60.860 169.686 60.060 170.726 58.740 171.486Z"></path></g></g><text font-family='Alegreya' font-style='italic' text-anchor='end' stroke='#7a7a7a' font-size="24" x="0" y="133.8461538461538">84</text><g><path d="M-13.200 274.426C-12.040 273.706-10.720 270.866-10.720 268.506C-10.720 268.306-10.720 268.066-10.760 267.866C-11.040 265.466-12.240 261.746-12.240 259.586C-12.240 257.506-11.320 255.506-11.120 255.146C-10.960 254.986-10.920 254.866-10.920 254.746C-10.920 254.666-10.960 254.586-11 254.586C-11.040 254.546-11.080 254.466-11.160 254.466C-11.240 254.466-11.320 254.546-11.480 254.746C-12.360 255.826-13.440 258.146-13.440 262.146C-13.440 266.106-12.040 267.706-12.040 270.226C-12.040 272.106-12.800 273.146-13.920 274.426C-13.200 275.226-12.040 275.866-12.040 278.466C-12.040 281.266-13.440 283.746-13.440 286.666C-13.440 290.666-12.360 292.986-11.480 294.106C-11.320 294.306-11.240 294.346-11.160 294.346C-11.080 294.346-11.040 294.306-11 294.266C-10.960 294.226-10.920 294.186-10.920 294.106C-10.920 293.986-10.960 293.866-11.120 293.666C-11.320 293.346-12.240 291.346-12.240 289.226C-12.240 287.106-11.040 283.346-10.760 280.986C-10.720 280.786-10.720 280.586-10.720 280.346C-10.720 277.986-12.040 275.146-13.200 274.426Z"></path><line stroke="#000000" stroke-width="1.6" x1="0" x2="0" y1="143.3461538461538" y2="294.3461538461538"></line></g></g><g><g><line stroke="#6A6A6A" stroke-width="1.3" x1="217.41766827386468" x2="488.071523289212" y1="183.8461538461538" y2="183.8461538461538"></line><line stroke="#6A6A6A" stroke-width="1.3" x1="217.41766827386468" x2="488.071523289212" y1="173.8461538461538" y2="173.8461538461538"></line><line stroke="#6A6A6A" stroke-width="1.3" x1="217.41766827386468" x2="488.071523289212" y1="163.8461538461538" y2="163.8461538461538"></line><line stroke="#6A6A6A" stroke-width="1.3" x1="217.41766827386468" x2="488.071523289212" y1="153.8461538461538" y2="153.8461538461538"></line><line stroke="#6A6A6A" stroke-width="1.3" x1="217.41766827386468" x2="488.071523289212" y1="143.8461538461538" y2="143.8461538461538"></line></g><g><path d="M284.607 147.046C280.127 147.046 278.127 151.166 278.127 153.606C278.127 153.726 278.127 153.846 278.167 153.966C278.447 156.366 279.967 157.606 281.487 157.606L281.647 157.606C283.247 157.606 284.887 155.846 284.887 154.246C284.887 151.886 282.807 151.486 281.687 151.486L280.927 151.486C280.367 151.486 280.287 151.166 280.287 150.926C280.287 150.846 280.327 150.766 280.327 150.766C281.247 148.646 282.887 148.406 283.607 148.406C283.847 148.406 284.007 148.446 284.007 148.446C284.847 148.446 285.527 148.806 286.127 149.446C287.087 150.566 287.207 151.806 287.367 153.166C287.367 153.206 287.407 153.286 287.407 153.486C287.487 153.966 287.487 154.486 287.487 154.966C287.487 156.926 287.167 158.966 286.567 160.806C285.647 163.486 284.287 165.206 282.047 166.926C280.807 167.886 279.407 168.486 278.047 169.246C277.647 169.486 277.527 169.846 277.527 169.966C277.527 170.166 277.887 170.406 278.047 170.406C281.127 170.406 284.727 167.646 286.727 165.646C288.607 163.766 290.087 161.566 291.007 159.406C291.727 157.766 292.127 156.126 292.127 154.726L292.127 154.566C292.047 151.806 290.967 150.046 289.647 148.966C287.487 147.206 284.767 147.046 284.767 147.046ZM294.847 155.486C293.927 155.486 293.127 156.286 293.127 157.246C293.127 158.206 293.927 159.006 294.847 159.006C295.847 159.006 296.647 158.206 296.647 157.246C296.647 156.286 295.847 155.486 294.847 155.486ZM294.847 148.766C293.847 148.766 293.087 149.526 293.087 150.486C293.087 151.486 293.847 152.286 294.847 152.286C295.807 152.286 296.607 151.486 296.607 150.486C296.607 149.526 295.807 148.766 294.847 148.766Z"></path></g></g><g><line stroke="#000000" stroke-width="1.6" x1="488.87152328921195" x2="488.87152328921195" y1="143.3461538461538" y2="294.3461538461538"></line><line stroke="#000000" stroke-width="1.6" x1="494.471523289212" x2="494.471523289212" y1="143.3461538461538" y2="294.3461538461538"></line></g><g><g><line stroke="#6A6A6A" stroke-width="1.3" x1="0" x2="510.87152328921195" y1="293.8461538461538" y2="293.8461538461538"></line><line stroke="#6A6A6A" stroke-width="1.3" x1="0" x2="510.87152328921195" y1="283.8461538461538" y2="283.8461538461538"></line><line stroke="#6A6A6A" stroke-width="1.3" x1="0" x2="510.87152328921195" y1="273.8461538461538" y2="273.8461538461538"></line><line stroke="#6A6A6A" stroke-width="1.3" x1="0" x2="510.87152328921195" y1="263.8461538461538" y2="263.8461538461538"></line><line stroke="#6A6A6A" stroke-width="1.3" x1="0" x2="510.87152328921195" y1="253.8461538461538" y2="253.8461538461538"></line></g><g><path d="M17.080 253.366C10.120 253.366 7 258.446 7 262.286C7 265.486 8.680 268.246 11.920 268.246C14.440 268.246 16.160 266.486 16.160 264.006C16.160 261.446 14.280 259.846 12.320 259.846C11.240 259.846 10.840 260.126 10.320 260.126C9.800 260.126 9.680 259.806 9.680 259.406C9.680 257.806 12.080 254.886 16.160 254.886C20.400 254.886 22.240 259.046 22.240 265.326C22.240 269.446 21.360 274.246 18.880 278.086C16.480 281.806 12.360 285.206 7.400 288.046C7.040 288.246 6.800 288.446 6.800 288.766C6.800 289.006 6.960 289.246 7.320 289.246C7.520 289.246 7.760 289.166 8 289.046C13.320 286.446 18.440 283.406 22.680 278.846C26.160 275.086 28.240 270.206 28.240 264.966C28.240 258.006 24 253.366 17.080 253.366ZM32.200 266.686C30.960 266.686 30.040 267.606 30.040 268.846C30.040 270.086 30.960 271.006 32.200 271.006C33.440 271.006 34.360 270.086 34.360 268.846C34.360 267.606 33.440 266.686 32.200 266.686ZM32.160 256.646C30.920 256.646 29.960 257.606 29.960 258.846C29.960 260.086 30.920 261.046 32.160 261.046C33.400 261.046 34.360 260.086 34.360 258.846C34.360 257.606 33.400 256.646 32.160 256.646Z"></path></g><g></g><g><g><path d="M58.060 259.846C58.540 260.326 59.220 260.526 59.860 260.526C60.180 260.526 60.540 260.446 60.860 260.366C62.100 260.046 63.060 258.766 63.060 257.486C63.060 257.326 63.060 257.206 63.020 257.046C62.820 255.726 61.700 254.766 60.500 254.326C59.540 253.926 58.380 253.806 57.340 253.806C54.300 253.846 51.460 255.326 50.020 258.046C49.140 259.726 48.460 261.846 48.460 263.726L48.460 263.886C48.500 265.726 48.820 267.806 49.700 269.406C50.540 270.926 51.900 272.566 53.460 273.246C54.460 273.686 55.660 273.806 56.660 273.806C58.460 273.806 60.460 273.526 61.900 272.366C63.300 271.246 64.220 269.446 64.220 267.646C64.220 267.446 64.180 267.286 64.180 267.086C64.020 265.446 63.020 264.046 61.740 263.086C60.660 262.286 59.420 261.846 58.180 261.846C56.900 261.846 55.580 262.326 54.540 263.246C54.460 263.326 54.380 263.326 54.300 263.326C54.060 263.326 53.940 263.006 53.940 262.366C54.060 254.966 56.420 254.766 57.260 254.766C58.060 254.766 58.580 254.966 58.580 255.366C58.580 255.926 57.820 256.406 57.580 256.886C57.380 257.246 57.300 257.646 57.300 258.046C57.300 258.646 57.500 259.246 57.900 259.686C57.940 259.766 58.020 259.806 58.060 259.846ZM56.540 263.766C57.820 263.766 58.900 265.766 58.900 268.246C58.900 270.726 57.820 272.726 56.540 272.726C55.260 272.726 54.220 270.726 54.220 268.246C54.220 265.766 55.260 263.766 56.540 263.766Z"></path></g><g><path d="M60.820 282.406C62.260 281.486 63.220 280.166 63.220 278.166C63.220 274.086 57.340 273.486 56.260 273.486C51.620 273.486 48.460 275.606 48.460 278.966C48.460 281.726 50.020 283.206 51.940 284.286C49.860 285.286 48.260 286.606 48.260 289.126C48.260 292.606 51.860 294.206 55.820 294.206C59.820 294.206 64.100 292.486 64.100 287.086C64.100 284.686 62.700 283.366 60.820 282.406ZM55.660 292.886C52.980 292.886 50.540 291.526 50.540 288.926C50.540 287.326 51.940 285.846 53.700 285.166C56.620 286.446 59.580 287.286 59.580 289.926C59.580 291.526 58.340 292.886 55.660 292.886ZM58.740 281.486C55.540 280.366 52.140 279.686 52.140 277.166C52.140 275.486 54.420 274.646 56.180 274.646C57.460 274.646 60.860 275.286 60.860 278.086C60.860 279.686 60.060 280.726 58.740 281.486Z"></path></g></g><text font-family='Alegreya' font-style='italic' text-anchor='end' stroke='#7a7a7a' font-size="24" x="0" y="243.8461538461538">84</text></g><g><line stroke="black" stroke-width="1.6" x1="511.67152328921196" x2="511.67152328921196" y1="143.3461538461538" y2="294.3461538461538"></line></g><g><g><path d="M93.360 184.486C97.360 184.486 102.280 180.766 102.280 176.966C102.280 174.686 100.480 173.206 97.880 173.206C92.960 173.206 89 176.846 89 180.726C89 183.086 90.920 184.486 93.360 184.486Z"></path></g><line stroke="#000000" stroke-width="1.2" x1="89.6" x2="89.6" y1="120.68615384615381" y2="154.68615384615381"></line><g><polygon fill="black" points="89.6,155.8461538461538 153.80883413693232,165.8461538461538 153.80883413693232,160.8461538461538 89.6,150.8461538461538" stroke="black" stroke-width="0"></polygon><polygon fill="black" points="153.80883413693232,165.8461538461538 218.01766827386467,175.8461538461538 218.01766827386467,170.8461538461538 153.80883413693232,160.8461538461538" stroke="black" stroke-width="0"></polygon></g><path d="M96.820 189.526C96.820 188.606 96.060 187.846 95.140 187.846C94.220 187.846 93.460 188.606 93.460 189.526C93.460 190.446 94.220 191.206 95.140 191.206C96.060 191.206 96.820 190.446 96.820 189.526Z"></path></g><g><g><path d="M157.569 194.486C161.569 194.486 166.489 190.766 166.489 186.966C166.489 184.686 164.689 183.206 162.089 183.206C157.169 183.206 153.209 186.846 153.209 190.726C153.209 193.086 155.129 194.486 157.569 194.486Z"></path></g><line stroke="#000000" stroke-width="1.2" x1="153.80883413693232" x2="153.80883413693232" y1="130.68615384615381" y2="164.68615384615381"></line><path d="M161.029 199.526C161.029 198.606 160.269 197.846 159.349 197.846C158.429 197.846 157.669 198.606 157.669 199.526C157.669 200.446 158.429 201.206 159.349 201.206C160.269 201.206 161.029 200.446 161.029 199.526Z"></path></g><g><g><path d="M221.778 204.486C225.778 204.486 230.698 200.766 230.698 196.966C230.698 194.686 228.898 193.206 226.298 193.206C221.378 193.206 217.418 196.846 217.418 200.726C217.418 203.086 219.338 204.486 221.778 204.486Z"></path></g><line stroke="#000000" stroke-width="1.2" x1="218.01766827386467" x2="218.01766827386467" y1="140.68615384615381" y2="174.68615384615381"></line><line stroke="#000000" stroke-width="2.2" x1="214.2176682738647" x2="236.13766827386468" y1="193.8461538461538" y2="193.8461538461538"></line><path d="M225.238 209.526C225.238 208.606 224.478 207.846 223.558 207.846C222.638 207.846 221.878 208.606 221.878 209.526C221.878 210.446 222.638 211.206 223.558 211.206C224.478 211.206 225.238 210.446 225.238 209.526Z"></path></g><g><g><path d="M309.687 154.486C313.687 154.486 318.607 150.766 318.607 146.966C318.607 144.686 316.807 143.206 314.207 143.206C309.287 143.206 305.327 146.846 305.327 150.726C305.327 153.086 307.247 154.486 309.687 154.486Z"></path></g><line stroke="#000000" stroke-width="1.2" x1="305.926502410797" x2="305.926502410797" y1="150.68615384615381" y2="188.68615384615381"></line><path d="M314.927 163.806C315.487 165.486 315.767 167.486 315.767 169.286C315.767 171.646 314.767 175.006 314.167 176.366C312.687 179.726 310.687 182.966 305.327 184.766L305.327 194.166C305.327 194.646 305.527 194.766 305.767 194.766C306.527 194.766 306.847 194.526 306.927 193.886C307.607 190.086 310.567 186.606 312.607 183.446C315.127 179.486 317.567 174.726 317.567 169.726C317.567 166.606 316.767 163.766 316.447 162.486C316.127 161.206 314.327 162.086 314.927 163.806Z"></path></g><g><g><path d="M373.895 159.486C377.895 159.486 382.815 155.766 382.815 151.966C382.815 149.686 381.015 148.206 378.415 148.206C373.495 148.206 369.535 151.846 369.535 155.726C369.535 158.086 371.455 159.486 373.895 159.486Z"></path></g><line stroke="#000000" stroke-width="1.2" x1="370.13533654772937" x2="370.13533654772937" y1="155.68615384615381" y2="190.68615384615381"></line></g><g><path d="M98.400 267.166C98.320 267.166 98.200 267.166 97.960 267.326C97.680 267.566 95.680 269.966 94.360 269.966L94.360 269.566C94.360 268.086 93.160 266.886 91.680 266.886C90.200 266.886 89 268.086 89 269.566C89 270.406 89.480 271.126 90.080 271.606C90.440 271.846 90.800 272.046 91.200 272.126C91.520 272.206 91.880 272.286 92.240 272.286C92.800 272.286 93.360 272.166 93.800 272.006C94.360 271.846 94.720 271.686 95.240 271.406C95.320 271.366 95.400 271.366 95.440 271.366C95.600 271.366 95.640 271.526 95.640 271.726C95.640 271.846 95.640 272.006 95.600 272.166C95.480 272.766 92.600 280.726 91.880 283.366C91.880 283.846 92.800 283.886 93.040 283.886C93.480 283.886 94.040 283.806 94.440 283.486C94.560 283.406 98.480 269.366 98.480 269.366C98.640 268.646 98.840 268.006 98.880 267.806C98.880 267.286 98.480 267.206 98.400 267.166Z"></path></g><g><g><path d="M157.569 299.486C161.569 299.486 166.489 295.766 166.489 291.966C166.489 289.686 164.689 288.206 162.089 288.206C157.169 288.206 153.209 291.846 153.209 295.726C153.209 298.086 155.129 299.486 157.569 299.486Z"></path></g><line stroke="#000000" stroke-width="1.2" x1="165.88883413693233" x2="165.88883413693233" y1="292.00615384615384" y2="257.00615384615384"></line><g><polygon fill="black" points="165.88883413693233,261.8461538461538 230.09766827386468,261.8461538461538 230.09766827386468,256.8461538461538 165.88883413693233,256.8461538461538" stroke="black" stroke-width="0"></polygon></g><path d="M161.029 309.526C161.029 308.606 160.269 307.846 159.349 307.846C158.429 307.846 157.669 308.606 157.669 309.526C157.669 310.446 158.429 311.206 159.349 311.206C160.269 311.206 161.029 310.446 161.029 309.526Z"></path></g><g><g><path d="M221.778 299.486C225.778 299.486 230.698 295.766 230.698 291.966C230.698 289.686 228.898 288.206 226.298 288.206C221.378 288.206 217.418 291.846 217.418 295.726C217.418 298.086 219.338 299.486 221.778 299.486Z"></path></g><line stroke="#000000" stroke-width="1.2" x1="230.09766827386468" x2="230.09766827386468" y1="292.00615384615384" y2="257.00615384615384"></line><path d="M225.238 309.526C225.238 308.606 224.478 307.846 223.558 307.846C222.638 307.846 221.878 308.606 221.878 309.526C221.878 310.446 222.638 311.206 223.558 311.206C224.478 311.206 225.238 310.446 225.238 309.526Z"></path></g><g><g><path d="M309.687 299.486C313.687 299.486 318.607 295.766 318.607 291.966C318.607 289.686 316.807 288.206 314.207 288.206C309.287 288.206 305.327 291.846 305.327 295.726C305.327 298.086 307.247 299.486 309.687 299.486Z"></path></g><line stroke="#000000" stroke-width="1.2" x1="318.006502410797" x2="318.006502410797" y1="292.00615384615384" y2="257.00615384615384"></line><g><polygon fill="black" points="318.006502410797,261.8461538461538 382.2153365477293,261.8461538461538 382.2153365477293,256.8461538461538 318.006502410797,256.8461538461538" stroke="black" stroke-width="0"></polygon><polygon fill="black" points="382.2153365477293,261.8461538461538 418.48438323309995,261.8461538461538 418.48438323309995,256.8461538461538 382.2153365477293,256.8461538461538" stroke="black" stroke-width="0"></polygon><polygon fill="black" points="382.2153365477293,270.6461538461538 418.48438323309995,270.6461538461538 418.48438323309995,265.6461538461538 382.2153365477293,265.6461538461538" stroke="black" stroke-width="0"></polygon><polygon fill="black" points="418.48438323309995,261.8461538461538 445.41342991847057,261.8461538461538 445.41342991847057,256.8461538461538 418.48438323309995,256.8461538461538" stroke="black" stroke-width="0"></polygon><polygon fill="black" points="418.48438323309995,270.6461538461538 445.41342991847057,270.6461538461538 445.41342991847057,265.6461538461538 418.48438323309995,265.6461538461538" stroke="black" stroke-width="0"></polygon><polygon fill="black" points="445.41342991847057,261.8461538461538 484.4824766038413,261.8461538461538 484.4824766038413,256.8461538461538 445.41342991847057,256.8461538461538" stroke="black" stroke-width="0"></polygon><polygon fill="black" points="445.41342991847057,270.6461538461538 484.4824766038413,270.6461538461538 484.4824766038413,265.6461538461538 445.41342991847057,265.6461538461538" stroke="black" stroke-width="0"></polygon></g></g><g><g><path d="M373.895 294.486C377.895 294.486 382.815 290.766 382.815 286.966C382.815 284.686 381.015 283.206 378.415 283.206C373.495 283.206 369.535 286.846 369.535 290.726C369.535 293.086 371.455 294.486 373.895 294.486Z"></path></g><line stroke="#000000" stroke-width="1.2" x1="382.21533654772935" x2="382.21533654772935" y1="287.00615384615384" y2="257.00615384615384"></line></g><g><g><path d="M410.164 299.486C414.164 299.486 419.084 295.766 419.084 291.966C419.084 289.686 417.284 288.206 414.684 288.206C409.764 288.206 405.804 291.846 405.804 295.726C405.804 298.086 407.724 299.486 410.164 299.486Z"></path></g><line stroke="#000000" stroke-width="1.2" x1="418.4843832331" x2="418.4843832331" y1="292.00615384615384" y2="257.00615384615384"></line></g><g><g><path d="M437.093 304.486C441.093 304.486 446.013 300.766 446.013 296.966C446.013 294.686 444.213 293.206 441.613 293.206C436.693 293.206 432.733 296.846 432.733 300.726C432.733 303.086 434.653 304.486 437.093 304.486Z"></path><path d="M430.213 294.126C430.493 294.006 430.693 293.686 430.693 293.446L430.693 290.606C430.693 290.406 430.573 290.286 430.413 290.286C430.333 290.286 430.293 290.286 430.213 290.326C430.213 290.326 429.413 290.646 429.213 290.686C428.933 290.686 428.653 290.486 428.653 290.166C428.653 289.766 428.653 285.286 428.653 285.286C428.653 285.046 428.413 284.846 428.093 284.846C427.693 284.846 427.453 285.046 427.453 285.286C427.453 285.286 427.453 290.086 427.453 290.486C427.413 290.886 427.293 291.406 426.933 291.646C426.453 291.926 425.093 292.486 424.413 292.646C424.053 292.646 423.933 292.166 423.933 291.846C423.933 291.446 423.933 287.046 423.933 287.046C423.933 286.806 423.653 286.606 423.373 286.606C422.973 286.606 422.733 286.806 422.733 287.046C422.733 287.046 422.733 289.206 422.733 290.806L422.733 292.446C422.733 293.006 422.493 293.406 422.253 293.526C422.013 293.646 421.213 293.966 421.213 293.966C420.933 294.046 420.733 294.366 420.733 294.606L420.733 297.446C420.733 297.686 420.853 297.806 421.053 297.806C421.093 297.806 421.173 297.766 421.213 297.766C421.213 297.766 421.813 297.526 422.093 297.366C422.133 297.366 422.173 297.326 422.213 297.326C422.493 297.326 422.733 297.726 422.733 298.046L422.733 302.006C422.733 302.446 422.533 302.806 422.293 302.926C422.053 303.006 421.213 303.366 421.213 303.366C420.933 303.446 420.733 303.766 420.733 304.006L420.733 306.846C420.733 307.086 420.853 307.206 421.053 307.206C421.093 307.206 421.173 307.166 421.213 307.166C421.213 307.166 421.773 306.926 422.133 306.806C422.173 306.766 422.213 306.766 422.253 306.766C422.533 306.766 422.733 307.206 422.733 307.406C422.733 307.646 422.733 312.326 422.733 312.326C422.733 312.566 422.973 312.766 423.253 312.766C423.653 312.766 423.933 312.566 423.933 312.326C423.933 312.326 423.933 307.246 423.933 306.766C423.933 306.246 424.133 305.966 424.333 305.886L426.773 304.886C426.813 304.886 426.893 304.846 426.933 304.846C427.253 304.846 427.453 305.326 427.453 305.566C427.453 305.846 427.453 310.566 427.453 310.566C427.453 310.806 427.693 311.006 427.973 311.006C428.413 311.006 428.653 310.806 428.653 310.566C428.653 310.566 428.653 305.166 428.653 304.886C428.653 304.566 428.813 304.086 429.093 303.966C429.373 303.846 430.213 303.526 430.213 303.526C430.493 303.406 430.693 303.086 430.693 302.846L430.693 300.006C430.693 299.806 430.573 299.686 430.413 299.686C430.333 299.686 430.293 299.686 430.213 299.726C430.213 299.726 429.373 300.046 429.173 300.126C428.933 300.126 428.653 299.886 428.653 299.406L428.653 295.686C428.653 295.406 428.853 294.646 429.173 294.526C429.493 294.406 430.213 294.126 430.213 294.126ZM427.453 300.646C427.213 301.446 425.333 302.246 424.413 302.246C424.173 302.246 423.973 302.166 423.933 302.046C423.853 301.886 423.813 301.006 423.813 300.046C423.813 298.806 423.853 297.406 423.933 297.086C424.013 296.406 425.853 295.566 426.853 295.566C427.133 295.566 427.373 295.646 427.453 295.806C427.533 296.006 427.613 297.006 427.613 298.086C427.613 299.166 427.533 300.286 427.453 300.646Z"></path></g><line stroke="#000000" stroke-width="1.2" x1="445.4134299184706" x2="445.4134299184706" y1="297.00615384615384" y2="257.00615384615384"></line></g><g><g><path d="M476.162 299.486C480.162 299.486 485.082 295.766 485.082 291.966C485.082 289.686 483.282 288.206 480.682 288.206C475.762 288.206 471.802 291.846 471.802 295.726C471.802 298.086 473.722 299.486 476.162 299.486Z"></path></g><line stroke="#000000" stroke-width="1.2" x1="484.4824766038413" x2="484.4824766038413" y1="292.00615384615384" y2="257.00615384615384"></line></g></g><g transform="translate(621.3176771353658)"><g><g><line stroke="#6A6A6A" stroke-width="1.3" x1="-39.400000000000034" x2="408.02984866195675" y1="183.8461538461538" y2="183.8461538461538"></line><line stroke="#6A6A6A" stroke-width="1.3" x1="-39.400000000000034" x2="408.02984866195675" y1="173.8461538461538" y2="173.8461538461538"></line><line stroke="#6A6A6A" stroke-width="1.3" x1="-39.400000000000034" x2="408.02984866195675" y1="163.8461538461538" y2="163.8461538461538"></line><line stroke="#6A6A6A" stroke-width="1.3" x1="-39.400000000000034" x2="408.02984866195675" y1="153.8461538461538" y2="153.8461538461538"></line><line stroke="#6A6A6A" stroke-width="1.3" x1="-39.400000000000034" x2="408.02984866195675" y1="143.8461538461538" y2="143.8461538461538"></line></g><g><path d="M14.100 173.806C13.860 170.446 11.380 167.806 8.020 167.806L7.740 167.806C7.660 167.806 7.500 167.806 7.420 167.846C7.140 166.126 7.020 165.726 6.740 164.286C10.260 161.046 11.540 157.726 11.540 153.086C11.540 151.446 11.140 149.766 10.380 148.086C9.380 145.726 8.420 145.566 8.420 145.566C5.940 146.686 4.180 150.646 4.180 155.406C4.180 156.246 4.220 157.126 4.380 158.046L4.700 159.726C0.820 163.006-3.500 166.886-3.500 171.926C-3.500 172.166-3.500 172.446-3.460 172.726C-2.980 179.086 1.980 181.086 6.260 181.086C7.060 181.086 7.620 180.966 8.180 180.966L8.700 183.806C8.820 184.446 8.980 185.926 8.980 186.446C8.980 190.726 5.780 190.766 5.460 190.766L4.940 190.766C4.060 190.766 3.300 190.646 2.740 190.246C2.580 190.126 2.500 190.046 2.500 189.966C2.500 189.846 2.620 189.806 2.740 189.726C2.980 189.686 3.180 189.686 3.420 189.566C4.500 189.246 5.940 188.406 5.940 186.846C5.940 186.846 5.940 186.646 5.940 186.646C5.940 185.526 5.460 184.486 4.380 184.046C3.980 183.846 3.620 183.766 3.220 183.766C1.660 183.766 0.220 185.006 0.020 186.646C-0.020 186.646-0.100 187.046-0.100 187.566C-0.100 189.046 0.580 192.046 4.900 192.046C5.060 192.046 5.300 192.006 5.500 192.006C7.340 191.886 10.300 190.446 10.300 186.326C10.300 184.326 9.740 182.446 9.460 180.606C12.380 179.526 14.100 177.126 14.100 174.206ZM8.620 150.726C9.500 150.726 10.060 151.406 10.060 152.846C10.060 153.006 10.060 153.206 10.020 153.406C9.700 155.566 8.580 156.566 5.780 158.726C5.700 158.086 5.580 157.566 5.580 157.406C5.540 157.126 5.540 156.806 5.540 156.486C5.540 153.766 6.540 150.806 8.620 150.726ZM-1.060 174.046C-1.060 169.686 2.100 167.446 5.540 164.886L6.020 168.046C3.660 168.726 1.820 170.966 1.820 173.326C1.820 173.726 1.860 174.126 1.980 174.486C2.380 176.246 3.540 177.566 4.780 177.966C5.020 178.046 5.220 178.086 5.340 178.086C5.540 178.086 5.660 177.966 5.660 177.846C5.660 177.686 5.460 177.486 5.260 177.366C4.740 177.166 3.820 176.126 3.780 175.046L3.780 174.806C3.780 172.966 5.220 172.326 6.620 172.046L7.980 179.566C7.580 179.726 7.020 179.806 6.260 179.806C3.420 179.806-0.900 178.846-1.060 174.286ZM9.260 179.286C8.860 176.926 8.700 174.886 8.140 171.926C10.340 171.926 11.820 173.206 11.940 175.406L11.940 175.686C11.940 177.526 11.140 178.486 9.260 179.286Z"></path></g></g><g><line stroke="black" stroke-width="1.6" x1="398.2298486619568" x2="398.2298486619568" y1="143.3461538461538" y2="294.3461538461538"></line><line stroke="black" stroke-width="5" x1="405.5298486619568" x2="405.5298486619568" y1="143.3461538461538" y2="294.3461538461538"></line></g><g><g><line stroke="#6A6A6A" stroke-width="1.3" x1="-16.600000000000023" x2="408.02984866195675" y1="293.8461538461538" y2="293.8461538461538"></line><line stroke="#6A6A6A" stroke-width="1.3" x1="-16.600000000000023" x2="408.02984866195675" y1="283.8461538461538" y2="283.8461538461538"></line><line stroke="#6A6A6A" stroke-width="1.3" x1="-16.600000000000023" x2="408.02984866195675" y1="273.8461538461538" y2="273.8461538461538"></line><line stroke="#6A6A6A" stroke-width="1.3" x1="-16.600000000000023" x2="408.02984866195675" y1="263.8461538461538" y2="263.8461538461538"></line><line stroke="#6A6A6A" stroke-width="1.3" x1="-16.600000000000023" x2="408.02984866195675" y1="253.8461538461538" y2="253.8461538461538"></line></g></g><g><line stroke="black" stroke-width="1.6" x1="398.2298486619568" x2="398.2298486619568" y1="143.3461538461538" y2="294.3461538461538"></line><line stroke="black" stroke-width="5" x1="405.5298486619568" x2="405.5298486619568" y1="143.3461538461538" y2="294.3461538461538"></line></g><g><g><path d="M28.060 154.486C32.060 154.486 36.980 150.766 36.980 146.966C36.980 144.686 35.180 143.206 32.580 143.206C27.660 143.206 23.700 146.846 23.700 150.726C23.700 153.086 25.620 154.486 28.060 154.486Z"></path></g><line stroke="#000000" stroke-width="1.2" x1="24.3" x2="24.3" y1="90.68615384615381" y2="124.68615384615381"></line><g><polygon fill="black" points="24.3,125.84615384615381 88.50883413693234,138.3461538461538 88.50883413693234,133.3461538461538 24.3,120.84615384615381" stroke="black" stroke-width="0"></polygon><polygon fill="black" points="88.50883413693234,138.3461538461538 152.71766827386466,150.8461538461538 152.71766827386466,145.8461538461538 88.50883413693234,133.3461538461538" stroke="black" stroke-width="0"></polygon></g><path d="M31.520 124.526C31.520 123.606 30.760 122.846 29.840 122.846C28.920 122.846 28.160 123.606 28.160 124.526C28.160 125.446 28.920 126.206 29.840 126.206C30.760 126.206 31.520 125.446 31.520 124.526Z"></path></g><g><g><path d="M92.269 164.486C96.269 164.486 101.189 160.766 101.189 156.966C101.189 154.686 99.389 153.206 96.789 153.206C91.869 153.206 87.909 156.846 87.909 160.726C87.909 163.086 89.829 164.486 92.269 164.486Z"></path></g><line stroke="#000000" stroke-width="1.2" x1="88.50883413693234" x2="88.50883413693234" y1="100.68615384615381" y2="137.18615384615381"></line><path d="M95.729 134.526C95.729 133.606 94.969 132.846 94.049 132.846C93.129 132.846 92.369 133.606 92.369 134.526C92.369 135.446 93.129 136.206 94.049 136.206C94.969 136.206 95.729 135.446 95.729 134.526Z"></path></g><g><g><path d="M156.478 179.486C160.478 179.486 165.398 175.766 165.398 171.966C165.398 169.686 163.598 168.206 160.998 168.206C156.078 168.206 152.118 171.846 152.118 175.726C152.118 178.086 154.038 179.486 156.478 179.486Z"></path></g><line stroke="#000000" stroke-width="1.2" x1="152.71766827386466" x2="152.71766827386466" y1="115.68615384615381" y2="149.68615384615381"></line><path d="M159.938 189.526C159.938 188.606 159.178 187.846 158.258 187.846C157.338 187.846 156.578 188.606 156.578 189.526C156.578 190.446 157.338 191.206 158.258 191.206C159.178 191.206 159.938 190.446 159.938 189.526Z"></path></g><g><g><path d="M220.687 179.486C224.687 179.486 229.607 175.766 229.607 171.966C229.607 169.686 227.807 168.206 225.207 168.206C220.287 168.206 216.327 171.846 216.327 175.726C216.327 178.086 218.247 179.486 220.687 179.486Z"></path></g><line stroke="#000000" stroke-width="1.2" x1="229.006502410797" x2="229.006502410797" y1="172.0061538461538" y2="137.0061538461538"></line><path d="M237.927 163.086C237.927 163.086 238.967 159.286 238.967 156.166C238.967 151.166 236.887 146.446 234.367 142.446C232.327 139.286 230.647 135.846 230.007 132.006C229.887 131.366 229.567 131.126 228.807 131.126C228.567 131.126 228.407 131.246 228.407 131.726L228.407 141.286C231.047 141.766 234.847 147.206 236.287 150.606C236.887 151.966 237.247 154.246 237.247 156.606C237.247 158.406 236.967 160.286 236.287 162.086C236.207 162.326 236.167 162.526 236.167 162.686C236.167 163.326 236.567 163.686 236.807 163.846C237.047 164.006 237.727 163.766 237.927 163.086Z"></path></g><g><g><path d="M284.895 184.486C288.895 184.486 293.815 180.766 293.815 176.966C293.815 174.686 292.015 173.206 289.415 173.206C284.495 173.206 280.535 176.846 280.535 180.726C280.535 183.086 282.455 184.486 284.895 184.486Z"></path></g><line stroke="#000000" stroke-width="1.2" x1="293.21533654772935" x2="293.21533654772935" y1="177.0061538461538" y2="139.0061538461538"></line></g><g><g><path d="M28.060 284.486C32.060 284.486 36.980 280.766 36.980 276.966C36.980 274.686 35.180 273.206 32.580 273.206C27.660 273.206 23.700 276.846 23.700 280.726C23.700 283.086 25.620 284.486 28.060 284.486Z"></path></g><g><path d="M28.060 274.486C32.060 274.486 36.980 270.766 36.980 266.966C36.980 264.686 35.180 263.206 32.580 263.206C27.660 263.206 23.700 266.846 23.700 270.726C23.700 273.086 25.620 274.486 28.060 274.486Z"></path></g><g><path d="M28.060 264.486C32.060 264.486 36.980 260.766 36.980 256.966C36.980 254.686 35.180 253.206 32.580 253.206C27.660 253.206 23.700 256.846 23.700 260.726C23.700 263.086 25.620 264.486 28.060 264.486Z"></path></g><g><path d="M28.060 249.486C32.060 249.486 36.980 245.766 36.980 241.966C36.980 239.686 35.180 238.206 32.580 238.206C27.660 238.206 23.700 241.846 23.700 245.726C23.700 248.086 25.620 249.486 28.060 249.486Z"></path></g><line stroke="#000000" stroke-width="1.2" x1="24.3" x2="24.3" y1="245.68615384615381" y2="313.68615384615384"></line><line stroke="#000000" stroke-width="2.2" x1="20.5" x2="42.419999999999995" y1="243.8461538461538" y2="243.8461538461538"></line></g><g><path d="M161.518 267.166C161.438 267.166 161.318 267.166 161.078 267.326C160.798 267.566 158.798 269.966 157.478 269.966L157.478 269.566C157.478 268.086 156.278 266.886 154.798 266.886C153.318 266.886 152.118 268.086 152.118 269.566C152.118 270.406 152.598 271.126 153.198 271.606C153.558 271.846 153.918 272.046 154.318 272.126C154.638 272.206 154.998 272.286 155.358 272.286C155.918 272.286 156.478 272.166 156.918 272.006C157.478 271.846 157.838 271.686 158.358 271.406C158.438 271.366 158.518 271.366 158.558 271.366C158.718 271.366 158.758 271.526 158.758 271.726C158.758 271.846 158.758 272.006 158.718 272.166C158.598 272.766 155.718 280.726 154.998 283.366C154.998 283.846 155.918 283.886 156.158 283.886C156.598 283.886 157.158 283.806 157.558 283.486C157.678 283.406 161.598 269.366 161.598 269.366C161.758 268.646 161.958 268.006 161.998 267.806C161.998 267.286 161.598 267.206 161.518 267.166Z"></path></g><g><path d="M225.647 280.286C224.127 278.446 222.887 276.966 222.887 274.726C222.887 274.566 222.927 274.366 222.927 274.206C223.087 271.886 224.527 269.966 225.567 268.326C225.687 268.126 225.727 267.926 225.727 267.726C225.727 267.326 225.567 266.966 225.567 266.966C225.567 266.966 219.647 259.926 218.967 259.246C218.767 259.046 218.487 258.926 218.247 258.926C217.847 258.926 217.447 259.206 217.447 259.766C217.447 259.966 217.487 260.166 217.607 260.406C217.767 260.846 220.047 262.886 220.047 265.766C220.047 267.246 219.447 268.966 217.647 270.846C217.247 271.246 217.087 271.686 217.087 272.006C217.087 272.566 217.487 272.966 217.487 272.966L219.447 275.366C220.087 276.166 220.647 276.926 221.167 277.766C221.247 277.926 221.407 278.126 221.407 278.326C221.407 278.366 221.407 278.446 221.367 278.486C221.287 278.646 221.127 278.686 220.927 278.686C220.687 278.686 220.447 278.606 220.287 278.566C220.087 278.566 219.847 278.446 219.647 278.446C217.927 278.446 216.367 280.166 216.367 282.286C216.367 284.286 218.087 286.246 221.007 288.486C221.327 288.726 221.727 288.846 222.047 288.846C222.327 288.846 222.607 288.766 222.647 288.606C222.687 288.486 222.727 288.406 222.727 288.326C222.727 287.966 222.407 287.646 222.087 287.366C221.567 287.366 221.127 286.286 221.047 285.926C220.927 285.606 220.887 285.246 220.887 284.886C220.887 283.646 221.487 282.246 222.767 282.006C222.967 281.966 223.167 281.966 223.407 281.966C224.567 281.966 225.887 282.406 226.527 282.646C226.567 282.646 226.607 282.686 226.647 282.686C226.767 282.726 226.847 282.726 226.927 282.726C227.047 282.726 227.127 282.686 227.127 282.566C227.127 282.086 226.087 280.766 225.647 280.286Z"></path></g><g><g><path d="M343.718 264.486C347.718 264.486 352.638 260.766 352.638 256.966C352.638 254.686 350.838 253.206 348.238 253.206C343.318 253.206 339.358 256.846 339.358 260.726C339.358 263.086 341.278 264.486 343.718 264.486Z"></path></g><line stroke="#000000" stroke-width="1.2" x1="339.95807091382557" x2="339.95807091382557" y1="260.6861538461538" y2="298.6861538461538"></line><path d="M348.958 273.806C349.518 275.486 349.798 277.486 349.798 279.286C349.798 281.646 348.798 285.006 348.198 286.366C346.718 289.726 344.718 292.966 339.358 294.766L339.358 304.166C339.358 304.646 339.558 304.766 339.798 304.766C340.558 304.766 340.878 304.526 340.958 303.886C341.638 300.086 344.598 296.606 346.638 293.446C349.158 289.486 351.598 284.726 351.598 279.726C351.598 276.606 350.798 273.766 350.478 272.486C350.158 271.206 348.358 272.086 348.958 273.806Z"></path><path d="M347.178 234.526C347.178 233.606 346.418 232.846 345.498 232.846C344.578 232.846 343.818 233.606 343.818 234.526C343.818 235.446 344.578 236.206 345.498 236.206C346.418 236.206 347.178 235.446 347.178 234.526Z"></path></g></g></svg>