<?xml version="1.0" encoding="UTF-8" standalone="no"?><svg xmlns="http://www.w3.org/2000/svg" height="279.4mm" viewBox="0 0 1328.6153846153845 1719.3846153846152" width="215.9mm"><g transform="translate(93.84615384615385)"><g><g><line stroke="#6A6A6A" stroke-width="1.3" x1="0" x2="2665.794871794872" y1="183.8461538461538" y2="183.8461538461538"></line><line stroke="#6A6A6A" stroke-width="1.3" x1="0" x2="2665.794871794872" y1="173.8461538461538" y2="173.8461538461538"></line><line stroke="#6A6A6A" stroke-width="1.3" x1="0" x2="2665.794871794872" y1="163.8461538461538" y2="163.8461538461538"></line><line stroke="#6A6A6A" stroke-width="1.3" x1="0" x2="2665.794871794872" y1="153.8461538461538" y2="153.8461538461538"></line><line stroke="#6A6A6A" stroke-width="1.3" x1="0" x2="2665.794871794872" y1="143.8461538461538" y2="143.8461538461538"></line></g><g><path d="M25.200 129.926C24.640 129.926 23.400 130.966 22.600 131.846C19.640 135.126 18.680 140.126 18.680 144.286C18.680 146.606 18.960 149.206 19.240 150.846C19.320 151.326 19.360 151.406 18.880 151.806C16.320 153.926 13.560 156.366 11.480 158.926C8.720 162.366 7 166.086 7 170.366C7 177.326 11.760 183.926 21.560 183.926C22.480 183.926 23.520 183.846 24.320 183.686C24.760 183.606 24.840 183.566 24.920 184.046C25.400 186.726 26 190.206 26 192.086C26 198.006 22 198.726 19.640 198.726C17.480 198.726 16.440 198.086 16.440 197.566C16.440 197.126 16.800 197.166 17.720 196.886C18.960 196.526 20.400 195.446 20.400 193.126C20.400 190.926 19 189.046 16.560 189.046C13.880 189.046 12.280 191.166 12.280 193.646C12.280 196.246 13.840 200.166 19.880 200.166C22.560 200.166 27.760 198.966 27.760 192.166C27.760 189.886 27.040 186.086 26.600 183.606C26.520 183.126 26.560 183.166 27.120 182.926C31.160 181.326 33.840 177.926 33.840 173.406C33.840 168.286 30.080 163.766 24.200 163.766C23.080 163.766 23.200 163.966 23.040 163.046L22.040 157.246C21.960 156.766 22.040 156.726 22.280 156.486C22.920 155.886 23.760 155.046 24.520 154.206C27.880 150.526 29.880 145.766 29.880 141.246C29.880 137.766 28.920 134.326 27.280 131.926C26.680 131.046 25.640 129.926 25.200 129.926ZM20.040 158.086C20.440 157.766 20.520 157.806 20.600 158.246L21.440 163.366C21.560 164.126 21.560 164.086 20.840 164.326C17.320 165.526 15.040 168.686 15.040 172.086C15.040 175.686 16.920 178.246 19.640 179.166C19.960 179.286 20.440 179.406 20.720 179.406C21.040 179.406 21.200 179.206 21.200 178.966C21.200 178.686 20.880 178.566 20.600 178.446C18.920 177.726 17.720 176.006 17.720 174.166C17.720 171.886 19.280 170.166 21.720 169.486C22.360 169.326 22.440 169.366 22.520 169.806L24.520 181.726C24.600 182.166 24.560 182.166 23.960 182.286C23.320 182.406 22.520 182.486 21.720 182.486C14.720 182.486 10.200 178.606 10.200 173.046C10.200 170.686 10.600 167.526 13.920 163.766C16.320 161.086 18.160 159.606 20.040 158.086ZM24.640 169.166C27.880 169.446 30.560 172.166 30.560 175.686C30.560 178.206 29.040 180.246 26.800 181.366C26.320 181.606 26.240 181.606 26.160 181.126L24.200 169.726C24.120 169.246 24.160 169.126 24.640 169.166ZM25.800 136.126C27.120 136.126 28.200 137.206 28.200 139.406C28.200 142.166 26.880 144.726 23.760 147.846C23.120 148.486 22.160 149.406 21.240 150.206C20.960 150.446 20.800 150.406 20.720 149.886C20.560 148.846 20.480 147.486 20.480 146.206C20.480 139.966 23.360 136.126 25.800 136.126Z"></path></g><g></g><path d="M57.820 153.806C56.620 153.806 55.220 154.126 54.140 154.606C50.580 156.166 48.700 160.446 48.700 164.246C48.700 164.606 48.700 164.966 48.740 165.326C48.940 167.486 49.980 169.526 51.300 171.126C52.820 172.966 55.020 173.806 57.420 173.806C64.420 173.806 65.460 167.446 65.460 166.286C65.460 165.406 65.020 165.406 64.860 165.406C64.540 165.406 64.260 165.446 64.260 166.126C64.260 171.286 59.860 172.486 58.580 172.486C55.340 172.486 53.620 169.326 53.620 162.726C53.620 156.126 56.660 154.766 58.820 154.766C60.900 154.766 61.740 155.726 61.740 156.126C61.740 156.486 61.620 157.006 61.020 157.006C59.420 157.006 58.500 158.726 58.500 159.966C58.500 162.246 60.460 162.966 61.580 162.966C61.580 162.966 64.620 162.846 64.620 159.526C64.620 154.286 58.580 153.806 57.820 153.806Z"></path></g><g><line stroke="black" stroke-width="1.6" x1="729.7487179487179" x2="729.7487179487179" y1="143.8461538461538" y2="183.8461538461538"></line></g><g><g><path d="M403.374 153.366C397.574 153.366 393.974 155.806 393.974 158.766C393.974 161.686 396.454 164.286 402.934 164.286C410.054 164.286 412.334 161.806 412.334 158.766C412.334 155.686 407.414 153.366 403.374 153.366ZM398.814 156.086C399.294 154.606 400.894 154.366 402.254 154.366C405.214 154.366 407.614 157.566 407.614 160.206C407.614 160.486 407.574 160.766 407.534 161.006C407.334 162.086 406.694 162.846 405.614 163.126C405.174 163.246 404.734 163.286 404.294 163.286C403.894 163.286 403.534 163.246 403.134 163.126C402.414 162.886 401.694 162.486 401.094 161.966C400.774 161.686 400.454 161.366 400.174 161.006C399.334 160.006 398.654 158.526 398.654 157.166C398.654 156.806 398.694 156.446 398.814 156.086Z"></path></g></g></g><g transform="translate(839.3948717948717)"><g></g><g><line stroke="black" stroke-width="1.6" x1="640.7487179487179" x2="640.7487179487179" y1="143.8461538461538" y2="183.8461538461538"></line></g><g><line stroke="#000000" stroke-width="1.6" x1="947.3230769230769" x2="947.3230769230769" y1="143.8461538461538" y2="183.8461538461538"></line><line stroke="#000000" stroke-width="5" x1="954.623076923077" x2="954.623076923077" y1="143.8461538461538" y2="183.8461538461538"></line></g><g><g><path d="M314.374 153.366C308.574 153.366 304.974 155.806 304.974 158.766C304.974 161.686 307.454 164.286 313.934 164.286C321.054 164.286 323.334 161.806 323.334 158.766C323.334 155.686 318.414 153.366 314.374 153.366ZM309.814 156.086C310.294 154.606 311.894 154.366 313.254 154.366C316.214 154.366 318.614 157.566 318.614 160.206C318.614 160.486 318.574 160.766 318.534 161.006C318.334 162.086 317.694 162.846 316.614 163.126C316.174 163.246 315.734 163.286 315.294 163.286C314.894 163.286 314.534 163.246 314.134 163.126C313.414 162.886 312.694 162.486 312.094 161.966C311.774 161.686 311.454 161.366 311.174 161.006C310.334 160.006 309.654 158.526 309.654 157.166C309.654 156.806 309.694 156.446 309.814 156.086Z"></path></g></g></g><g transform="translate(1811.5179487179487)"><g></g><g><line stroke="black" stroke-width="1.6" x1="640.7487179487179" x2="640.7487179487179" y1="143.8461538461538" y2="183.8461538461538"></line></g><g><line stroke="black" stroke-width="1.6" x1="947.3230769230769" x2="947.3230769230769" y1="143.8461538461538" y2="183.8461538461538"></line></g><g><g><path d="M314.374 153.366C308.574 153.366 304.974 155.806 304.974 158.766C304.974 161.686 307.454 164.286 313.934 164.286C321.054 164.286 323.334 161.806 323.334 158.766C323.334 155.686 318.414 153.366 314.374 153.366ZM309.814 156.086C310.294 154.606 311.894 154.366 313.254 154.366C316.214 154.366 318.614 157.566 318.614 160.206C318.614 160.486 318.574 160.766 318.534 161.006C318.334 162.086 317.694 162.846 316.614 163.126C316.174 163.246 315.734 163.286 315.294 163.286C314.894 163.286 314.534 163.246 314.134 163.126C313.414 162.886 312.694 162.486 312.094 161.966C311.774 161.686 311.454 161.366 311.174 161.006C310.334 160.006 309.654 158.526 309.654 157.166C309.654 156.806 309.694 156.446 309.814 156.086Z"></path></g></g></g><g transform="translate(93.84615384615385)"><g><g><line stroke="#6A6A6A" stroke-width="1.3" x1="0" x2="788.3153846153846" y1="314.8461538461538" y2="314.8461538461538"></line><line stroke="#6A6A6A" stroke-width="1.3" x1="0" x2="788.3153846153846" y1="304.8461538461538" y2="304.8461538461538"></line><line stroke="#6A6A6A" stroke-width="1.3" x1="0" x2="788.3153846153846" y1="294.8461538461538" y2="294.8461538461538"></line><line stroke="#6A6A6A" stroke-width="1.3" x1="0" x2="788.3153846153846" y1="284.8461538461538" y2="284.8461538461538"></line><line stroke="#6A6A6A" stroke-width="1.3" x1="0" x2="788.3153846153846" y1="274.8461538461538" y2="274.8461538461538"></line></g><g><path d="M25.200 260.926C24.640 260.926 23.400 261.966 22.600 262.846C19.640 266.126 18.680 271.126 18.680 275.286C18.680 277.606 18.960 280.206 19.240 281.846C19.320 282.326 19.360 282.406 18.880 282.806C16.320 284.926 13.560 287.366 11.480 289.926C8.720 293.366 7 297.086 7 301.366C7 308.326 11.760 314.926 21.560 314.926C22.480 314.926 23.520 314.846 24.320 314.686C24.760 314.606 24.840 314.566 24.920 315.046C25.400 317.726 26 321.206 26 323.086C26 329.006 22 329.726 19.640 329.726C17.480 329.726 16.440 329.086 16.440 328.566C16.440 328.126 16.800 328.166 17.720 327.886C18.960 327.526 20.400 326.446 20.400 324.126C20.400 321.926 19 320.046 16.560 320.046C13.880 320.046 12.280 322.166 12.280 324.646C12.280 327.246 13.840 331.166 19.880 331.166C22.560 331.166 27.760 329.966 27.760 323.166C27.760 320.886 27.040 317.086 26.600 314.606C26.520 314.126 26.560 314.166 27.120 313.926C31.160 312.326 33.840 308.926 33.840 304.406C33.840 299.286 30.080 294.766 24.200 294.766C23.080 294.766 23.200 294.966 23.040 294.046L22.040 288.246C21.960 287.766 22.040 287.726 22.280 287.486C22.920 286.886 23.760 286.046 24.520 285.206C27.880 281.526 29.880 276.766 29.880 272.246C29.880 268.766 28.920 265.326 27.280 262.926C26.680 262.046 25.640 260.926 25.200 260.926ZM20.040 289.086C20.440 288.766 20.520 288.806 20.600 289.246L21.440 294.366C21.560 295.126 21.560 295.086 20.840 295.326C17.320 296.526 15.040 299.686 15.040 303.086C15.040 306.686 16.920 309.246 19.640 310.166C19.960 310.286 20.440 310.406 20.720 310.406C21.040 310.406 21.200 310.206 21.200 309.966C21.200 309.686 20.880 309.566 20.600 309.446C18.920 308.726 17.720 307.006 17.720 305.166C17.720 302.886 19.280 301.166 21.720 300.486C22.360 300.326 22.440 300.366 22.520 300.806L24.520 312.726C24.600 313.166 24.560 313.166 23.960 313.286C23.320 313.406 22.520 313.486 21.720 313.486C14.720 313.486 10.200 309.606 10.200 304.046C10.200 301.686 10.600 298.526 13.920 294.766C16.320 292.086 18.160 290.606 20.040 289.086ZM24.640 300.166C27.880 300.446 30.560 303.166 30.560 306.686C30.560 309.206 29.040 311.246 26.800 312.366C26.320 312.606 26.240 312.606 26.160 312.126L24.200 300.726C24.120 300.246 24.160 300.126 24.640 300.166ZM25.800 267.126C27.120 267.126 28.200 268.206 28.200 270.406C28.200 273.166 26.880 275.726 23.760 278.846C23.120 279.486 22.160 280.406 21.240 281.206C20.960 281.446 20.800 281.406 20.720 280.886C20.560 279.846 20.480 278.486 20.480 277.206C20.480 270.966 23.360 267.126 25.800 267.126Z"></path></g><g></g><text font-family='Alegreya' font-style='italic' text-anchor='end' stroke='#7a7a7a' font-size="24" x="0" y="264.8461538461538">4</text></g><g><line stroke="#000000" stroke-width="1.6" x1="778.5153846153845" x2="778.5153846153845" y1="274.8461538461538" y2="314.8461538461538"></line><line stroke="#000000" stroke-width="5" x1="785.8153846153846" x2="785.8153846153846" y1="274.8461538461538" y2="314.8461538461538"></line></g><g><g><path d="M407.508 284.366C401.708 284.366 398.108 286.806 398.108 289.766C398.108 292.686 400.588 295.286 407.068 295.286C414.188 295.286 416.468 292.806 416.468 289.766C416.468 286.686 411.548 284.366 407.508 284.366ZM402.948 287.086C403.428 285.606 405.028 285.366 406.388 285.366C409.348 285.366 411.748 288.566 411.748 291.206C411.748 291.486 411.708 291.766 411.668 292.006C411.468 293.086 410.828 293.846 409.748 294.126C409.308 294.246 408.868 294.286 408.428 294.286C408.028 294.286 407.668 294.246 407.268 294.126C406.548 293.886 405.828 293.486 405.228 292.966C404.908 292.686 404.588 292.366 404.308 292.006C403.468 291.006 402.788 289.526 402.788 288.166C402.788 287.806 402.828 287.446 402.948 287.086Z"></path></g></g></g></svg>