<?xml version="1.0" encoding="UTF-8" standalone="no"?><svg xmlns="http://www.w3.org/2000/svg" height="279.4mm" viewBox="0 0 1328.6153846153845 1719.3846153846152" width="215.9mm"><g transform="translate(93.84615384615385)"><g><g><line stroke="#6A6A6A" stroke-width="1.3" x1="0" x2="353.1796639769952" y1="183.8461538461538" y2="183.8461538461538"></line><line stroke="#6A6A6A" stroke-width="1.3" x1="0" x2="353.1796639769952" y1="173.8461538461538" y2="173.8461538461538"></line><line stroke="#6A6A6A" stroke-width="1.3" x1="0" x2="353.1796639769952" y1="163.8461538461538" y2="163.8461538461538"></line><line stroke="#6A6A6A" stroke-width="1.3" x1="0" x2="353.1796639769952" y1="153.8461538461538" y2="153.8461538461538"></line><line stroke="#6A6A6A" stroke-width="1.3" x1="0" x2="353.1796639769952" y1="143.8461538461538" y2="143.8461538461538"></line></g><g><path d="M25.200 129.926C24.640 129.926 23.400 130.966 22.600 131.846C19.640 135.126 18.680 140.126 18.680 144.286C18.680 146.606 18.960 149.206 19.240 150.846C19.320 151.326 19.360 151.406 18.880 151.806C16.320 153.926 13.560 156.366 11.480 158.926C8.720 162.366 7 166.086 7 170.366C7 177.326 11.760 183.926 21.560 183.926C22.480 183.926 23.520 183.846 24.320 183.686C24.760 183.606 24.840 183.566 24.920 184.046C25.400 186.726 26 190.206 26 192.086C26 198.006 22 198.726 19.640 198.726C17.480 198.726 16.440 198.086 16.440 197.566C16.440 197.126 16.800 197.166 17.720 196.886C18.960 196.526 20.400 195.446 20.400 193.126C20.400 190.926 19 189.046 16.560 189.046C13.880 189.046 12.280 191.166 12.280 193.646C12.280 196.246 13.840 200.166 19.880 200.166C22.560 200.166 27.760 198.966 27.760 192.166C27.760 189.886 27.040 186.086 26.600 183.606C26.520 183.126 26.560 183.166 27.120 182.926C31.160 181.326 33.840 177.926 33.840 173.406C33.840 168.286 30.080 163.766 24.200 163.766C23.080 163.766 23.200 163.966 23.040 163.046L22.040 157.246C21.960 156.766 22.040 156.726 22.280 156.486C22.920 155.886 23.760 155.046 24.520 154.206C27.880 150.526 29.880 145.766 29.880 141.246C29.880 137.766 28.920 134.326 27.280 131.926C26.680 131.046 25.640 129.926 25.200 129.926ZM20.040 158.086C20.440 157.766 20.520 157.806 20.600 158.246L21.440 163.366C21.560 164.126 21.560 164.086 20.840 164.326C17.320 165.526 15.040 168.686 15.040 172.086C15.040 175.686 16.920 178.246 19.640 179.166C19.960 179.286 20.440 179.406 20.720 179.406C21.040 179.406 21.200 179.206 21.200 178.966C21.200 178.686 20.880 178.566 20.600 178.446C18.920 177.726 17.720 176.006 17.720 174.166C17.720 171.886 19.280 170.166 21.720 169.486C22.360 169.326 22.440 169.366 22.520 169.806L24.520 181.726C24.600 182.166 24.560 182.166 23.960 182.286C23.320 182.406 22.520 182.486 21.720 182.486C14.720 182.486 10.200 178.606 10.200 173.046C10.200 170.686 10.600 167.526 13.920 163.766C16.320 161.086 18.160 159.606 20.040 158.086ZM24.640 169.166C27.880 169.446 30.560 172.166 30.560 175.686C30.560 178.206 29.040 180.246 26.800 181.366C26.320 181.606 26.240 181.606 26.160 181.126L24.200 169.726C24.120 169.246 24.160 169.126 24.640 169.166ZM25.800 136.126C27.120 136.126 28.200 137.206 28.200 139.406C28.200 142.166 26.880 144.726 23.760 147.846C23.120 148.486 22.160 149.406 21.240 150.206C20.960 150.446 20.800 150.406 20.720 149.886C20.560 148.846 20.480 147.486 20.480 146.206C20.480 139.966 23.360 136.126 25.800 136.126Z"></path></g><g></g><path d="M57.820 153.806C56.620 153.806 55.220 154.126 54.140 154.606C50.580 156.166 48.700 160.446 48.700 164.246C48.700 164.606 48.700 164.966 48.740 165.326C48.940 167.486 49.980 169.526 51.300 171.126C52.820 172.966 55.020 173.806 57.420 173.806C64.420 173.806 65.460 167.446 65.460 166.286C65.460 165.406 65.020 165.406 64.860 165.406C64.540 165.406 64.260 165.446 64.260 166.126C64.260 171.286 59.860 172.486 58.580 172.486C55.340 172.486 53.620 169.326 53.620 162.726C53.620 156.126 56.660 154.766 58.820 154.766C60.900 154.766 61.740 155.726 61.740 156.126C61.740 156.486 61.620 157.006 61.020 157.006C59.420 157.006 58.500 158.726 58.500 159.966C58.500 162.246 60.460 162.966 61.580 162.966C61.580 162.966 64.620 162.846 64.620 159.526C64.620 154.286 58.580 153.806 57.820 153.806Z"></path></g><g><line stroke="black" stroke-width="1.6" x1="353.9796639769952" x2="353.9796639769952" y1="143.8461538461538" y2="183.8461538461538"></line></g><g><g><path d="M93.360 199.486C97.360 199.486 102.280 195.766 102.280 191.966C102.280 189.686 100.480 188.206 97.880 188.206C92.960 188.206 89 191.846 89 195.726C89 198.086 90.920 199.486 93.360 199.486Z"></path></g><g><path d="M93.360 154.486C97.360 154.486 102.280 150.766 102.280 146.966C102.280 144.686 100.480 143.206 97.880 143.206C92.960 143.206 89 146.846 89 150.726C89 153.086 90.920 154.486 93.360 154.486Z"></path></g><g><path d="M93.360 144.486C97.360 144.486 102.280 140.766 102.280 136.966C102.280 134.686 100.480 133.206 97.880 133.206C92.960 133.206 89 136.846 89 140.726C89 143.086 90.920 144.486 93.360 144.486Z"></path></g><line stroke="#000000" stroke-width="1.2" x1="89.6" x2="89.6" y1="140.68615384615381" y2="225.68615384615381"></line><line stroke="#000000" stroke-width="2.2" x1="85.8" x2="107.72" y1="193.8461538461538" y2="193.8461538461538"></line><text font-family="Alegreya" font-size="22" text-anchor="middle" x="95.64" y="223.8461538461538">normal</text></g><g><g><path d="M159.433 199.486C163.433 199.486 168.353 195.766 168.353 191.966C168.353 189.686 166.553 188.206 163.953 188.206C159.033 188.206 155.073 191.846 155.073 195.726C155.073 198.086 156.993 199.486 159.433 199.486Z"></path></g><g><path d="M159.433 154.486C163.433 154.486 168.353 150.766 168.353 146.966C168.353 144.686 166.553 143.206 163.953 143.206C159.033 143.206 155.073 146.846 155.073 150.726C155.073 153.086 156.993 154.486 159.433 154.486Z"></path></g><g><path d="M159.433 144.486C163.433 144.486 168.353 140.766 168.353 136.966C168.353 134.686 166.553 133.206 163.953 133.206C159.033 133.206 155.073 136.846 155.073 140.726C155.073 143.086 156.993 144.486 159.433 144.486Z"></path></g><line stroke="#000000" stroke-width="1.2" x1="155.6731659942488" x2="155.6731659942488" y1="140.68615384615381" y2="225.68615384615381"></line><line stroke="#000000" stroke-width="2.2" x1="151.8731659942488" x2="173.7931659942488" y1="193.8461538461538" y2="193.8461538461538"></line><text font-family="Alegreya" font-size="22" text-anchor="middle" x="161.7131659942488" y="223.8461538461538">up</text></g><g><g><path d="M225.506 199.486C229.506 199.486 234.426 195.766 234.426 191.966C234.426 189.686 232.626 188.206 230.026 188.206C225.106 188.206 221.146 191.846 221.146 195.726C221.146 198.086 223.066 199.486 225.506 199.486Z"></path></g><g><path d="M225.506 154.486C229.506 154.486 234.426 150.766 234.426 146.966C234.426 144.686 232.626 143.206 230.026 143.206C225.106 143.206 221.146 146.846 221.146 150.726C221.146 153.086 223.066 154.486 225.506 154.486Z"></path></g><g><path d="M225.506 144.486C229.506 144.486 234.426 140.766 234.426 136.966C234.426 134.686 232.626 133.206 230.026 133.206C225.106 133.206 221.146 136.846 221.146 140.726C221.146 143.086 223.066 144.486 225.506 144.486Z"></path></g><line stroke="#000000" stroke-width="1.2" x1="221.7463319884976" x2="221.7463319884976" y1="140.68615384615381" y2="225.68615384615381"></line><line stroke="#000000" stroke-width="2.2" x1="217.9463319884976" x2="239.8663319884976" y1="193.8461538461538" y2="193.8461538461538"></line><text font-family="Alegreya" font-size="22" text-anchor="middle" x="227.78633198849758" y="223.8461538461538">normal</text></g><g><g><path d="M304.768 199.486C308.768 199.486 313.688 195.766 313.688 191.966C313.688 189.686 311.888 188.206 309.288 188.206C304.368 188.206 300.408 191.846 300.408 195.726C300.408 198.086 302.328 199.486 304.768 199.486Z"></path></g><g><path d="M304.768 154.486C308.768 154.486 313.688 150.766 313.688 146.966C313.688 144.686 311.888 143.206 309.288 143.206C304.368 143.206 300.408 146.846 300.408 150.726C300.408 153.086 302.328 154.486 304.768 154.486Z"></path></g><g><path d="M304.768 144.486C308.768 144.486 313.688 140.766 313.688 136.966C313.688 134.686 311.888 133.206 309.288 133.206C304.368 133.206 300.408 136.846 300.408 140.726C300.408 143.086 302.328 144.486 304.768 144.486Z"></path></g><line stroke="#000000" stroke-width="1.2" x1="301.0084979827464" x2="301.0084979827464" y1="140.68615384615381" y2="225.68615384615381"></line><line stroke="#000000" stroke-width="2.2" x1="297.2084979827464" x2="319.1284979827464" y1="193.8461538461538" y2="193.8461538461538"></line><text font-family="Alegreya" font-size="22" text-anchor="middle" x="307.04849798274637" y="223.8461538461538">down</text></g></g><g transform="translate(463.6258178231491)"><g><g><line stroke="#6A6A6A" stroke-width="1.3" x1="-16.600000000000023" x2="329.64366397699513" y1="183.8461538461538" y2="183.8461538461538"></line><line stroke="#6A6A6A" stroke-width="1.3" x1="-16.600000000000023" x2="329.64366397699513" y1="173.8461538461538" y2="173.8461538461538"></line><line stroke="#6A6A6A" stroke-width="1.3" x1="-16.600000000000023" x2="329.64366397699513" y1="163.8461538461538" y2="163.8461538461538"></line><line stroke="#6A6A6A" stroke-width="1.3" x1="-16.600000000000023" x2="329.64366397699513" y1="153.8461538461538" y2="153.8461538461538"></line><line stroke="#6A6A6A" stroke-width="1.3" x1="-16.600000000000023" x2="329.64366397699513" y1="143.8461538461538" y2="143.8461538461538"></line></g></g><g><line stroke="#000000" stroke-width="1.6" x1="319.84366397699523" x2="319.84366397699523" y1="143.8461538461538" y2="183.8461538461538"></line><line stroke="#000000" stroke-width="5" x1="327.14366397699524" x2="327.14366397699524" y1="143.8461538461538" y2="183.8461538461538"></line></g><g><g><path d="M24.511 199.486C28.511 199.486 33.431 195.766 33.431 191.966C33.431 189.686 31.631 188.206 29.031 188.206C24.111 188.206 20.151 191.846 20.151 195.726C20.151 198.086 22.071 199.486 24.511 199.486Z"></path></g><g><path d="M24.511 154.486C28.511 154.486 33.431 150.766 33.431 146.966C33.431 144.686 31.631 143.206 29.031 143.206C24.111 143.206 20.151 146.846 20.151 150.726C20.151 153.086 22.071 154.486 24.511 154.486Z"></path></g><g><path d="M24.511 144.486C28.511 144.486 33.431 140.766 33.431 136.966C33.431 134.686 31.631 133.206 29.031 133.206C24.111 133.206 20.151 136.846 20.151 140.726C20.151 143.086 22.071 144.486 24.511 144.486Z"></path></g><line stroke="#000000" stroke-width="1.2" x1="20.75099999999999" x2="20.75099999999999" y1="140.68615384615381" y2="225.68615384615381"></line><line stroke="#000000" stroke-width="2.2" x1="16.95099999999999" x2="38.87099999999998" y1="193.8461538461538" y2="193.8461538461538"></line><text font-family="Alegreya" font-size="22" text-anchor="middle" x="26.79099999999999" y="223.8461538461538">normal</text></g><g><g><path d="M121.186 199.486C125.186 199.486 130.106 195.766 130.106 191.966C130.106 189.686 128.306 188.206 125.706 188.206C120.786 188.206 116.826 191.846 116.826 195.726C116.826 198.086 118.746 199.486 121.186 199.486Z"></path></g><g><path d="M121.186 154.486C125.186 154.486 130.106 150.766 130.106 146.966C130.106 144.686 128.306 143.206 125.706 143.206C120.786 143.206 116.826 146.846 116.826 150.726C116.826 153.086 118.746 154.486 121.186 154.486Z"></path></g><g><path d="M121.186 144.486C125.186 144.486 130.106 140.766 130.106 136.966C130.106 134.686 128.306 133.206 125.706 133.206C120.786 133.206 116.826 136.846 116.826 140.726C116.826 143.086 118.746 144.486 121.186 144.486Z"></path></g><line stroke="#000000" stroke-width="1.2" x1="117.42616599424878" x2="117.42616599424878" y1="140.68615384615381" y2="225.68615384615381"></line><line stroke="#000000" stroke-width="2.2" x1="113.62616599424878" x2="135.54616599424878" y1="193.8461538461538" y2="193.8461538461538"></line><text font-family="Alegreya" font-size="22" text-anchor="middle" x="123.46616599424878" y="223.8461538461538">non-arp.</text></g><g><g><path d="M217.861 199.486C221.861 199.486 226.781 195.766 226.781 191.966C226.781 189.686 224.981 188.206 222.381 188.206C217.461 188.206 213.501 191.846 213.501 195.726C213.501 198.086 215.421 199.486 217.861 199.486Z"></path></g><g><path d="M217.861 154.486C221.861 154.486 226.781 150.766 226.781 146.966C226.781 144.686 224.981 143.206 222.381 143.206C217.461 143.206 213.501 146.846 213.501 150.726C213.501 153.086 215.421 154.486 217.861 154.486Z"></path></g><g><path d="M217.861 144.486C221.861 144.486 226.781 140.766 226.781 136.966C226.781 134.686 224.981 133.206 222.381 133.206C217.461 133.206 213.501 136.846 213.501 140.726C213.501 143.086 215.421 144.486 217.861 144.486Z"></path></g><line stroke="#000000" stroke-width="1.2" x1="214.10133198849758" x2="214.10133198849758" y1="140.68615384615381" y2="225.68615384615381"></line><line stroke="#000000" stroke-width="2.2" x1="210.3013319884976" x2="232.22133198849758" y1="193.8461538461538" y2="193.8461538461538"></line><text font-family="Alegreya" font-size="22" text-anchor="middle" x="220.1413319884976" y="223.8461538461538">normal</text></g><g><path d="M275.592 170.286C274.072 168.446 272.832 166.966 272.832 164.726C272.832 164.566 272.872 164.366 272.872 164.206C273.032 161.886 274.472 159.966 275.512 158.326C275.632 158.126 275.672 157.926 275.672 157.726C275.672 157.326 275.512 156.966 275.512 156.966C275.512 156.966 269.592 149.926 268.912 149.246C268.712 149.046 268.432 148.926 268.192 148.926C267.792 148.926 267.392 149.206 267.392 149.766C267.392 149.966 267.432 150.166 267.552 150.406C267.712 150.846 269.992 152.886 269.992 155.766C269.992 157.246 269.392 158.966 267.592 160.846C267.192 161.246 267.032 161.686 267.032 162.006C267.032 162.566 267.432 162.966 267.432 162.966L269.392 165.366C270.032 166.166 270.592 166.926 271.112 167.766C271.192 167.926 271.352 168.126 271.352 168.326C271.352 168.366 271.352 168.446 271.312 168.486C271.232 168.646 271.072 168.686 270.872 168.686C270.632 168.686 270.392 168.606 270.232 168.566C270.032 168.566 269.792 168.446 269.592 168.446C267.872 168.446 266.312 170.166 266.312 172.286C266.312 174.286 268.032 176.246 270.952 178.486C271.272 178.726 271.672 178.846 271.992 178.846C272.272 178.846 272.552 178.766 272.592 178.606C272.632 178.486 272.672 178.406 272.672 178.326C272.672 177.966 272.352 177.646 272.032 177.366C271.512 177.366 271.072 176.286 270.992 175.926C270.872 175.606 270.832 175.246 270.832 174.886C270.832 173.646 271.432 172.246 272.712 172.006C272.912 171.966 273.112 171.966 273.352 171.966C274.512 171.966 275.832 172.406 276.472 172.646C276.512 172.646 276.552 172.686 276.592 172.686C276.712 172.726 276.792 172.726 276.872 172.726C276.992 172.726 277.072 172.686 277.072 172.566C277.072 172.086 276.032 170.766 275.592 170.286Z"></path></g></g></svg>