<?xml version="1.0" encoding="UTF-8" standalone="no"?><svg xmlns="http://www.w3.org/2000/svg" class="" height="279.4mm" viewBox="0 0 1328.6153846153845 1719.3846153846152" width="215.9mm"><text x="664.3076923076923" y="61.53846153846143"><tspan fill="black" dx="0" dy="0" font-family="Alegreya" font-size="29.30769230769231" text-anchor="middle">Rest unit test</tspan></text><g><g><g><line stroke="#6A6A6A" stroke-width="1.3" x1="93.84615384615385" x2="1234.769230769231" y1="183.8461538461538" y2="183.8461538461538"></line><line stroke="#6A6A6A" stroke-width="1.3" x1="93.84615384615385" x2="1234.769230769231" y1="173.8461538461538" y2="173.8461538461538"></line><line stroke="#6A6A6A" stroke-width="1.3" x1="93.84615384615385" x2="1234.769230769231" y1="163.8461538461538" y2="163.8461538461538"></line><line stroke="#6A6A6A" stroke-width="1.3" x1="93.84615384615385" x2="1234.769230769231" y1="153.8461538461538" y2="153.8461538461538"></line><line stroke="#6A6A6A" stroke-width="1.3" x1="93.84615384615385" x2="1234.769230769231" y1="143.8461538461538" y2="143.8461538461538"></line></g><g><path d="M119.046 129.926C118.486 129.926 117.246 130.966 116.446 131.846C113.486 135.126 112.526 140.126 112.526 144.286C112.526 146.606 112.806 149.206 113.086 150.846C113.166 151.326 113.206 151.406 112.726 151.806C110.166 153.926 107.406 156.366 105.326 158.926C102.566 162.366 100.846 166.086 100.846 170.366C100.846 177.326 105.606 183.926 115.406 183.926C116.326 183.926 117.366 183.846 118.166 183.686C118.606 183.606 118.686 183.566 118.766 184.046C119.246 186.726 119.846 190.206 119.846 192.086C119.846 198.006 115.846 198.726 113.486 198.726C111.326 198.726 110.286 198.086 110.286 197.566C110.286 197.126 110.646 197.166 111.566 196.886C112.806 196.526 114.246 195.446 114.246 193.126C114.246 190.926 112.846 189.046 110.406 189.046C107.726 189.046 106.126 191.166 106.126 193.646C106.126 196.246 107.686 200.166 113.726 200.166C116.406 200.166 121.606 198.966 121.606 192.166C121.606 189.886 120.886 186.086 120.446 183.606C120.366 183.126 120.406 183.166 120.966 182.926C125.006 181.326 127.686 177.926 127.686 173.406C127.686 168.286 123.926 163.766 118.046 163.766C116.926 163.766 117.046 163.966 116.886 163.046L115.886 157.246C115.806 156.766 115.886 156.726 116.126 156.486C116.766 155.886 117.606 155.046 118.366 154.206C121.726 150.526 123.726 145.766 123.726 141.246C123.726 137.766 122.766 134.326 121.126 131.926C120.526 131.046 119.486 129.926 119.046 129.926ZM113.886 158.086C114.286 157.766 114.366 157.806 114.446 158.246L115.286 163.366C115.406 164.126 115.406 164.086 114.686 164.326C111.166 165.526 108.886 168.686 108.886 172.086C108.886 175.686 110.766 178.246 113.486 179.166C113.806 179.286 114.286 179.406 114.566 179.406C114.886 179.406 115.046 179.206 115.046 178.966C115.046 178.686 114.726 178.566 114.446 178.446C112.766 177.726 111.566 176.006 111.566 174.166C111.566 171.886 113.126 170.166 115.566 169.486C116.206 169.326 116.286 169.366 116.366 169.806L118.366 181.726C118.446 182.166 118.406 182.166 117.806 182.286C117.166 182.406 116.366 182.486 115.566 182.486C108.566 182.486 104.046 178.606 104.046 173.046C104.046 170.686 104.446 167.526 107.766 163.766C110.166 161.086 112.006 159.606 113.886 158.086ZM118.486 169.166C121.726 169.446 124.406 172.166 124.406 175.686C124.406 178.206 122.886 180.246 120.646 181.366C120.166 181.606 120.086 181.606 120.006 181.126L118.046 169.726C117.966 169.246 118.006 169.126 118.486 169.166ZM119.646 136.126C120.966 136.126 122.046 137.206 122.046 139.406C122.046 142.166 120.726 144.726 117.606 147.846C116.966 148.486 116.006 149.406 115.086 150.206C114.806 150.446 114.646 150.406 114.566 149.886C114.406 148.846 114.326 147.486 114.326 146.206C114.326 139.966 117.206 136.126 119.646 136.126Z"></path></g><g></g><path d="M151.666 153.806C150.466 153.806 149.066 154.126 147.986 154.606C144.426 156.166 142.546 160.446 142.546 164.246C142.546 164.606 142.546 164.966 142.586 165.326C142.786 167.486 143.826 169.526 145.146 171.126C146.666 172.966 148.866 173.806 151.266 173.806C158.266 173.806 159.306 167.446 159.306 166.286C159.306 165.406 158.866 165.406 158.706 165.406C158.386 165.406 158.106 165.446 158.106 166.126C158.106 171.286 153.706 172.486 152.426 172.486C149.186 172.486 147.466 169.326 147.466 162.726C147.466 156.126 150.506 154.766 152.666 154.766C154.746 154.766 155.586 155.726 155.586 156.126C155.586 156.486 155.466 157.006 154.866 157.006C153.266 157.006 152.346 158.726 152.346 159.966C152.346 162.246 154.306 162.966 155.426 162.966C155.426 162.966 158.466 162.846 158.466 159.526C158.466 154.286 152.426 153.806 151.666 153.806Z"></path></g><g><path d="M278.442 143.406C278.082 143.406 277.802 143.686 277.802 144.046L277.802 150.046L249.082 150.046L249.082 144.046C249.082 143.686 248.802 143.406 248.442 143.406C248.082 143.406 247.802 143.686 247.802 144.046L247.802 164.046C247.802 164.406 248.082 164.686 248.442 164.686C248.802 164.686 249.082 164.406 249.082 164.046L249.082 158.046L277.802 158.046L277.802 164.046C277.802 164.406 278.082 164.686 278.442 164.686C278.802 164.686 279.082 164.406 279.082 164.046L279.082 144.046C279.082 143.686 278.802 143.406 278.442 143.406Z"></path><text font-family='Alegreya' font-style='italic' stroke='#7a7a7a' font-size="48" text-anchor="middle" x="263.44190032371523" y="123.84615384615381">2</text></g></g><g><g></g><g><line stroke="black" stroke-width="1.6" x1="367.8376468012766" x2="367.8376468012766" y1="143.8461538461538" y2="183.8461538461538"></line></g></g><g><g></g><g><line stroke="black" stroke-width="1.6" x1="553.6291397563994" x2="553.6291397563994" y1="143.8461538461538" y2="183.8461538461538"></line></g><g><path d="M465.573 158.206L465.573 154.526C465.573 153.926 465.093 153.486 464.533 153.486L455.333 153.486C454.733 153.486 454.293 153.926 454.293 154.526L454.293 158.206C454.293 158.766 454.733 159.246 455.333 159.246L464.533 159.246C465.093 159.246 465.573 158.766 465.573 158.206Z"></path></g></g><g><g></g><g><line stroke="black" stroke-width="1.6" x1="1233.9692307692308" x2="1233.9692307692308" y1="143.8461538461538" y2="183.8461538461538"></line></g><g><path d="M580.709 162.886L580.709 159.206C580.709 158.606 580.229 158.166 579.669 158.166L570.469 158.166C569.869 158.166 569.429 158.606 569.429 159.206L569.429 162.886C569.429 163.446 569.869 163.926 570.469 163.926L579.669 163.926C580.229 163.926 580.709 163.446 580.709 162.886Z"></path></g><g><path d="M728.232 170.286C726.712 168.446 725.472 166.966 725.472 164.726C725.472 164.566 725.512 164.366 725.512 164.206C725.672 161.886 727.112 159.966 728.152 158.326C728.272 158.126 728.312 157.926 728.312 157.726C728.312 157.326 728.152 156.966 728.152 156.966C728.152 156.966 722.232 149.926 721.552 149.246C721.352 149.046 721.072 148.926 720.832 148.926C720.432 148.926 720.032 149.206 720.032 149.766C720.032 149.966 720.072 150.166 720.192 150.406C720.352 150.846 722.632 152.886 722.632 155.766C722.632 157.246 722.032 158.966 720.232 160.846C719.832 161.246 719.672 161.686 719.672 162.006C719.672 162.566 720.072 162.966 720.072 162.966L722.032 165.366C722.672 166.166 723.232 166.926 723.752 167.766C723.832 167.926 723.992 168.126 723.992 168.326C723.992 168.366 723.992 168.446 723.952 168.486C723.872 168.646 723.712 168.686 723.512 168.686C723.272 168.686 723.032 168.606 722.872 168.566C722.672 168.566 722.432 168.446 722.232 168.446C720.512 168.446 718.952 170.166 718.952 172.286C718.952 174.286 720.672 176.246 723.592 178.486C723.912 178.726 724.312 178.846 724.632 178.846C724.912 178.846 725.192 178.766 725.232 178.606C725.272 178.486 725.312 178.406 725.312 178.326C725.312 177.966 724.992 177.646 724.672 177.366C724.152 177.366 723.712 176.286 723.632 175.926C723.512 175.606 723.472 175.246 723.472 174.886C723.472 173.646 724.072 172.246 725.352 172.006C725.552 171.966 725.752 171.966 725.992 171.966C727.152 171.966 728.472 172.406 729.112 172.646C729.152 172.646 729.192 172.686 729.232 172.686C729.352 172.726 729.432 172.726 729.512 172.726C729.632 172.726 729.712 172.686 729.712 172.566C729.712 172.086 728.672 170.766 728.232 170.286Z"></path></g><g><path d="M858.087 157.166C858.007 157.166 857.887 157.166 857.647 157.326C857.367 157.566 855.367 159.966 854.047 159.966L854.047 159.566C854.047 158.086 852.847 156.886 851.367 156.886C849.887 156.886 848.687 158.086 848.687 159.566C848.687 160.406 849.167 161.126 849.767 161.606C850.127 161.846 850.487 162.046 850.887 162.126C851.207 162.206 851.567 162.286 851.927 162.286C852.487 162.286 853.047 162.166 853.487 162.006C854.047 161.846 854.407 161.686 854.927 161.406C855.007 161.366 855.087 161.366 855.127 161.366C855.287 161.366 855.327 161.526 855.327 161.726C855.327 161.846 855.327 162.006 855.287 162.166C855.167 162.766 852.287 170.726 851.567 173.366C851.567 173.846 852.487 173.886 852.727 173.886C853.167 173.886 853.727 173.806 854.127 173.486C854.247 173.406 858.167 159.366 858.167 159.366C858.327 158.646 858.527 158.006 858.567 157.806C858.567 157.286 858.167 157.206 858.087 157.166Z"></path></g><g><path d="M971.154 156.966C970.954 156.966 970.834 157.046 970.714 157.126C970.434 157.366 968.434 159.766 967.074 159.806L967.074 159.406C967.074 157.886 965.874 156.686 964.354 156.686C962.874 156.686 961.634 157.886 961.634 159.406C961.634 160.206 962.114 160.966 962.754 161.446C963.074 161.686 963.474 161.886 963.874 162.006C964.154 162.086 964.474 162.126 964.834 162.126C965.394 162.126 966.034 162.006 966.514 161.846C967.074 161.686 967.434 161.526 967.954 161.246C968.074 161.206 968.154 161.166 968.234 161.166C968.354 161.166 968.434 161.246 968.434 161.446C968.434 161.566 968.394 161.766 968.314 162.046C968.234 162.366 966.474 167.886 966.114 168.646C965.794 169.406 964.714 169.886 964.154 169.886C964.194 169.726 964.194 169.606 964.194 169.486C964.194 167.966 962.954 166.766 961.474 166.766C959.954 166.766 958.754 167.966 958.754 169.486C958.754 170.286 959.234 171.046 959.874 171.526C960.194 171.766 960.554 171.966 960.954 172.086C961.274 172.166 961.594 172.206 961.954 172.206C962.514 172.206 963.154 172.086 963.634 171.926C964.194 171.766 964.434 171.646 964.954 171.366C965.034 171.366 965.114 171.446 965.114 171.566C965.114 171.606 965.074 171.646 965.074 171.686L961.274 183.006C961.274 183.046 961.234 183.086 961.234 183.126C961.234 183.446 961.594 183.846 962.474 183.846C963.634 183.846 963.834 183.366 963.994 182.926L968.634 167.686C969.674 164.286 970.434 161.606 970.434 161.606C970.434 161.606 971.434 158.086 971.514 157.566C971.514 157.486 971.554 157.446 971.554 157.406C971.554 157.086 971.234 157.006 971.154 156.966Z"></path></g><g><path d="M1063.232 147.086C1063.032 147.086 1062.912 147.166 1062.792 147.246C1062.512 147.446 1060.512 149.886 1059.152 149.886L1059.152 149.526C1059.152 148.006 1057.952 146.806 1056.432 146.806C1054.952 146.806 1053.712 148.006 1053.712 149.526C1053.712 150.326 1054.192 151.046 1054.832 151.526C1055.152 151.806 1055.552 151.966 1055.952 152.086C1056.272 152.166 1056.592 152.246 1056.992 152.246C1057.552 152.246 1058.152 152.126 1058.632 151.966C1059.192 151.766 1059.512 151.646 1060.032 151.366C1060.072 151.326 1060.152 151.326 1060.192 151.326C1060.472 151.326 1060.632 151.726 1060.632 151.966C1060.632 152.006 1060.592 152.086 1060.592 152.126L1059.032 158.526C1058.832 159.166 1057.512 159.966 1056.872 159.966C1056.912 159.846 1056.912 159.726 1056.912 159.606C1056.912 158.086 1055.672 156.886 1054.192 156.886C1052.672 156.886 1051.472 158.086 1051.472 159.606C1051.472 160.406 1051.952 161.126 1052.592 161.606C1052.912 161.886 1053.272 162.046 1053.672 162.166C1053.992 162.246 1054.352 162.326 1054.752 162.326C1055.312 162.326 1055.912 162.206 1056.352 162.046C1056.912 161.846 1057.232 161.726 1057.752 161.446C1057.792 161.406 1057.832 161.406 1057.872 161.406C1058.072 161.406 1058.152 161.726 1058.152 161.926L1056.552 168.486C1056.352 169.326 1055.112 169.846 1054.512 169.886C1054.552 169.726 1054.552 169.606 1054.552 169.486C1054.552 167.966 1053.352 166.766 1051.832 166.766C1050.352 166.766 1049.112 167.966 1049.112 169.486C1049.112 170.286 1049.592 171.046 1050.232 171.526C1050.552 171.766 1050.952 171.966 1051.352 172.086C1051.632 172.166 1051.952 172.206 1052.312 172.206C1052.872 172.206 1053.512 172.086 1053.992 171.926C1054.552 171.766 1054.912 171.606 1055.432 171.326C1055.472 171.286 1055.512 171.286 1055.552 171.286C1055.672 171.286 1055.792 171.406 1055.792 171.526C1055.792 171.686 1053.032 182.686 1052.952 182.966C1052.912 183.046 1052.912 183.126 1052.912 183.206C1052.912 183.526 1053.152 183.846 1053.992 183.846C1055.272 183.846 1055.392 183.446 1055.552 183.006C1055.672 182.526 1062.552 151.726 1062.552 151.726C1062.552 151.726 1063.512 148.166 1063.592 147.686C1063.592 147.606 1063.632 147.566 1063.632 147.526C1063.632 147.166 1063.312 147.086 1063.232 147.086Z"></path></g><g><path d="M1136.322 146.926C1136.122 146.926 1136.002 147.006 1135.882 147.086C1135.562 147.326 1133.562 149.766 1132.202 149.766C1132.242 149.646 1132.242 149.526 1132.242 149.366C1132.242 147.886 1131.002 146.646 1129.522 146.646C1128.002 146.646 1126.802 147.886 1126.802 149.366C1126.802 150.206 1127.282 150.926 1127.922 151.406C1128.242 151.646 1128.602 151.846 1129.002 151.966C1129.322 152.046 1129.682 152.126 1130.082 152.126C1130.642 152.126 1131.242 152.006 1131.682 151.846C1132.242 151.646 1132.602 151.486 1133.122 151.246C1133.202 151.206 1133.322 151.166 1133.402 151.166C1133.602 151.166 1133.762 151.326 1133.762 151.606C1133.762 151.726 1133.722 151.846 1133.682 152.006C1133.642 152.126 1132.282 157.806 1132.122 158.246C1131.842 159.006 1130.402 159.846 1129.722 159.846L1129.722 159.446C1129.722 157.966 1128.522 156.726 1127.002 156.726C1125.522 156.726 1124.282 157.966 1124.282 159.446C1124.282 160.286 1124.762 161.006 1125.402 161.486C1125.722 161.726 1126.122 161.926 1126.522 162.046C1126.842 162.126 1127.162 162.166 1127.522 162.166C1128.082 162.166 1128.722 162.086 1129.202 161.926C1129.762 161.726 1130.282 161.566 1130.802 161.326C1130.882 161.286 1130.922 161.286 1130.962 161.286C1131.122 161.286 1131.202 161.446 1131.202 161.646C1131.202 161.726 1131.202 161.766 1131.162 161.846C1131.082 162.206 1129.642 168.006 1129.522 168.326C1129.202 169.366 1128.122 169.726 1127.562 169.726L1127.562 169.326C1127.562 167.846 1126.362 166.606 1124.842 166.606C1123.362 166.606 1122.122 167.846 1122.122 169.326C1122.122 170.166 1122.602 170.886 1123.242 171.366C1123.602 171.606 1123.962 171.806 1124.362 171.926C1124.682 172.006 1125.082 172.086 1125.442 172.086C1126.002 172.086 1126.562 171.966 1127.042 171.806C1127.602 171.606 1127.722 171.446 1128.242 171.206C1128.282 171.166 1128.322 171.166 1128.362 171.166C1128.562 171.166 1128.602 171.486 1128.602 171.726C1128.602 171.846 1128.562 172.006 1128.562 172.046C1128.522 172.246 1127.122 177.966 1126.962 178.406C1126.722 179.246 1125.682 179.606 1125.162 179.606C1125.202 179.486 1125.202 179.366 1125.202 179.246C1125.202 177.726 1124.002 176.526 1122.482 176.526C1121.002 176.526 1119.762 177.726 1119.762 179.246C1119.762 180.046 1120.242 180.766 1120.882 181.246C1121.202 181.526 1121.562 181.686 1121.962 181.806C1122.282 181.886 1122.642 181.966 1123.042 181.966C1123.602 181.966 1124.202 181.846 1124.642 181.686C1125.202 181.486 1125.082 181.606 1125.602 181.326C1125.682 181.286 1125.722 181.286 1125.762 181.286C1125.962 181.286 1126.082 181.486 1126.082 181.726C1126.082 181.806 1126.042 181.886 1126.042 181.966L1123.162 193.126C1123.122 193.246 1123.122 193.326 1123.122 193.406C1123.122 193.766 1123.482 193.966 1124.402 193.966C1125.362 193.966 1125.562 193.726 1125.722 193.286C1125.802 192.926 1126.122 192.206 1130.922 171.566C1130.962 171.566 1131.722 168.326 1131.882 167.606L1135.602 151.606C1135.602 151.606 1136.562 148.046 1136.682 147.526C1136.682 147.086 1136.482 146.966 1136.322 146.926Z"></path></g><g><path d="M1185.623 139.006C1185.623 137.486 1184.423 136.286 1182.903 136.286C1181.423 136.286 1180.183 137.486 1180.183 139.006C1180.183 139.806 1180.663 140.526 1181.303 141.006C1181.623 141.286 1182.023 141.486 1182.423 141.566C1182.743 141.646 1183.103 141.726 1183.463 141.726C1184.023 141.726 1184.623 141.606 1185.063 141.446C1185.103 141.446 1185.143 141.406 1185.183 141.406C1185.663 141.246 1186.023 141.086 1186.503 140.846C1186.583 140.806 1186.743 140.766 1186.823 140.766C1187.063 140.766 1187.303 140.926 1187.303 141.286C1187.303 141.366 1187.303 141.486 1187.263 141.606C1187.103 142.366 1185.863 147.326 1185.703 147.886C1185.543 148.486 1183.903 149.686 1183.143 149.686L1183.143 149.286C1183.143 147.806 1181.943 146.566 1180.423 146.566C1178.943 146.566 1177.703 147.806 1177.703 149.286C1177.703 150.126 1178.183 150.846 1178.823 151.326C1179.183 151.566 1179.543 151.766 1179.943 151.886C1180.263 151.966 1180.583 152.006 1180.943 152.006C1181.503 152.006 1182.143 151.926 1182.623 151.766C1183.183 151.566 1183.903 151.206 1184.423 150.966C1184.463 150.926 1184.503 150.926 1184.543 150.926C1184.703 150.926 1184.743 151.166 1184.743 151.446C1184.743 151.646 1184.703 151.846 1184.663 152.006L1183.103 158.246C1182.903 159.046 1181.503 159.846 1180.863 159.846L1180.863 159.446C1180.863 157.966 1179.663 156.726 1178.143 156.726C1176.663 156.726 1175.423 157.966 1175.423 159.446C1175.423 160.286 1175.903 161.006 1176.543 161.486C1176.863 161.726 1177.263 161.926 1177.663 162.046C1177.983 162.126 1178.383 162.206 1178.743 162.206C1179.303 162.206 1179.863 162.086 1180.343 161.926C1180.903 161.726 1181.223 161.566 1181.743 161.326C1181.823 161.286 1181.903 161.246 1181.983 161.246C1182.143 161.246 1182.223 161.406 1182.223 161.646C1182.223 161.766 1182.183 161.926 1182.143 162.086C1182.023 162.686 1180.823 167.566 1180.623 168.206C1180.303 169.286 1179.103 169.726 1178.503 169.726C1178.503 169.606 1178.543 169.486 1178.543 169.326C1178.543 167.846 1177.303 166.606 1175.823 166.606C1174.303 166.606 1173.103 167.846 1173.103 169.326C1173.103 170.166 1173.583 170.886 1174.223 171.366C1174.543 171.606 1174.903 171.806 1175.303 171.926C1175.623 172.006 1176.023 172.086 1176.383 172.086C1176.943 172.086 1177.503 171.966 1177.983 171.806C1178.543 171.606 1178.863 171.446 1179.383 171.206C1179.423 171.166 1179.503 171.166 1179.543 171.166C1179.703 171.166 1179.783 171.326 1179.783 171.486C1179.703 171.806 1178.423 177.446 1178.103 178.206C1177.583 179.566 1176.823 179.606 1176.263 179.646L1176.143 179.246C1176.143 177.726 1174.943 176.526 1173.423 176.526C1171.943 176.526 1170.703 177.726 1170.703 179.246C1170.703 180.046 1171.183 180.766 1171.823 181.286C1172.143 181.526 1172.543 181.726 1172.943 181.806C1173.263 181.886 1173.623 181.966 1173.983 181.966C1174.543 181.966 1175.143 181.846 1175.583 181.686C1175.623 181.686 1175.663 181.646 1175.703 181.646C1176.183 181.486 1176.543 181.326 1177.023 181.086C1177.063 181.086 1177.103 181.046 1177.143 181.046C1177.263 181.046 1177.343 181.126 1177.343 181.246C1177.343 181.286 1177.343 181.366 1177.303 181.406C1177.223 181.686 1174.423 193.006 1174.343 193.206C1174.343 193.606 1174.583 193.846 1175.503 193.846C1176.783 193.846 1176.943 193.686 1177.103 193.206L1188.983 141.206C1188.983 141.206 1189.983 137.686 1190.063 137.166C1190.063 137.086 1190.103 137.046 1190.103 137.006C1190.103 136.646 1189.783 136.606 1189.703 136.566C1189.503 136.566 1189.383 136.646 1189.263 136.726C1188.983 136.926 1186.983 139.366 1185.623 139.406Z"></path></g><g><path d="M1216.856 139.006C1216.856 137.486 1215.656 136.286 1214.136 136.286C1212.656 136.286 1211.416 137.486 1211.416 139.006C1211.416 139.806 1211.896 140.526 1212.536 141.006C1212.856 141.286 1213.256 141.486 1213.656 141.566C1213.976 141.646 1214.336 141.726 1214.696 141.726C1215.256 141.726 1215.856 141.606 1216.296 141.446C1216.336 141.446 1216.376 141.406 1216.416 141.406C1216.896 141.246 1217.256 141.086 1217.736 140.846C1217.816 140.806 1217.976 140.766 1218.056 140.766C1218.296 140.766 1218.536 140.926 1218.536 141.286C1218.536 141.366 1218.536 141.486 1218.496 141.606C1218.336 142.366 1217.096 147.326 1216.936 147.886C1216.776 148.486 1215.136 149.686 1214.376 149.686L1214.376 149.286C1214.376 147.806 1213.176 146.566 1211.656 146.566C1210.176 146.566 1208.936 147.806 1208.936 149.286C1208.936 150.126 1209.416 150.846 1210.056 151.326C1210.416 151.566 1210.776 151.766 1211.176 151.886C1211.496 151.966 1211.816 152.006 1212.176 152.006C1212.736 152.006 1213.376 151.926 1213.856 151.766C1214.416 151.566 1215.136 151.206 1215.656 150.966C1215.696 150.926 1215.736 150.926 1215.776 150.926C1215.936 150.926 1215.976 151.166 1215.976 151.446C1215.976 151.646 1215.936 151.846 1215.896 152.006L1214.336 158.246C1214.136 159.046 1212.736 159.846 1212.096 159.846L1212.096 159.446C1212.096 157.966 1210.896 156.726 1209.376 156.726C1207.896 156.726 1206.656 157.966 1206.656 159.446C1206.656 160.286 1207.136 161.006 1207.776 161.486C1208.096 161.726 1208.496 161.926 1208.896 162.046C1209.216 162.126 1209.616 162.206 1209.976 162.206C1210.536 162.206 1211.096 162.086 1211.576 161.926C1212.136 161.726 1212.456 161.566 1212.976 161.326C1213.056 161.286 1213.136 161.246 1213.216 161.246C1213.376 161.246 1213.456 161.406 1213.456 161.646C1213.456 161.766 1213.416 161.926 1213.376 162.086C1213.256 162.686 1212.056 167.566 1211.856 168.206C1211.536 169.286 1210.336 169.726 1209.736 169.726C1209.736 169.606 1209.776 169.486 1209.776 169.326C1209.776 167.846 1208.536 166.606 1207.056 166.606C1205.536 166.606 1204.336 167.846 1204.336 169.326C1204.336 170.166 1204.816 170.886 1205.456 171.366C1205.776 171.606 1206.136 171.806 1206.536 171.926C1206.856 172.006 1207.256 172.086 1207.616 172.086C1208.176 172.086 1208.736 171.966 1209.216 171.806C1209.776 171.606 1210.096 171.446 1210.616 171.206C1210.656 171.166 1210.736 171.166 1210.776 171.166C1210.936 171.166 1211.016 171.326 1211.016 171.486C1210.936 171.806 1209.656 177.446 1209.336 178.206C1208.816 179.566 1208.056 179.606 1207.496 179.646L1207.376 179.246C1207.376 177.726 1206.176 176.526 1204.656 176.526C1203.176 176.526 1201.936 177.726 1201.936 179.246C1201.936 180.046 1202.416 180.766 1203.056 181.286C1203.376 181.526 1203.776 181.726 1204.176 181.806C1204.496 181.886 1204.856 181.966 1205.216 181.966C1205.776 181.966 1206.376 181.846 1206.816 181.686C1206.856 181.686 1206.896 181.646 1206.936 181.646C1207.416 181.486 1207.776 181.326 1208.256 181.086C1208.296 181.086 1208.336 181.046 1208.376 181.046C1208.496 181.046 1208.576 181.126 1208.576 181.246C1208.576 181.286 1208.576 181.366 1208.536 181.406C1208.456 181.686 1205.656 193.006 1205.576 193.206C1205.576 193.606 1205.816 193.846 1206.736 193.846C1208.016 193.846 1208.176 193.686 1208.336 193.206L1220.216 141.206C1220.216 141.206 1221.216 137.686 1221.296 137.166C1221.296 137.086 1221.336 137.046 1221.336 137.006C1221.336 136.646 1221.016 136.606 1220.936 136.566C1220.736 136.566 1220.616 136.646 1220.496 136.726C1220.216 136.926 1218.216 139.366 1216.856 139.406Z"></path></g></g><g><g><g><line stroke="#6A6A6A" stroke-width="1.3" x1="93.84615384615385" x2="925.0668555562193" y1="314.8461538461538" y2="314.8461538461538"></line><line stroke="#6A6A6A" stroke-width="1.3" x1="93.84615384615385" x2="925.0668555562193" y1="304.8461538461538" y2="304.8461538461538"></line><line stroke="#6A6A6A" stroke-width="1.3" x1="93.84615384615385" x2="925.0668555562193" y1="294.8461538461538" y2="294.8461538461538"></line><line stroke="#6A6A6A" stroke-width="1.3" x1="93.84615384615385" x2="925.0668555562193" y1="284.8461538461538" y2="284.8461538461538"></line><line stroke="#6A6A6A" stroke-width="1.3" x1="93.84615384615385" x2="925.0668555562193" y1="274.8461538461538" y2="274.8461538461538"></line></g><g><path d="M119.046 260.926C118.486 260.926 117.246 261.966 116.446 262.846C113.486 266.126 112.526 271.126 112.526 275.286C112.526 277.606 112.806 280.206 113.086 281.846C113.166 282.326 113.206 282.406 112.726 282.806C110.166 284.926 107.406 287.366 105.326 289.926C102.566 293.366 100.846 297.086 100.846 301.366C100.846 308.326 105.606 314.926 115.406 314.926C116.326 314.926 117.366 314.846 118.166 314.686C118.606 314.606 118.686 314.566 118.766 315.046C119.246 317.726 119.846 321.206 119.846 323.086C119.846 329.006 115.846 329.726 113.486 329.726C111.326 329.726 110.286 329.086 110.286 328.566C110.286 328.126 110.646 328.166 111.566 327.886C112.806 327.526 114.246 326.446 114.246 324.126C114.246 321.926 112.846 320.046 110.406 320.046C107.726 320.046 106.126 322.166 106.126 324.646C106.126 327.246 107.686 331.166 113.726 331.166C116.406 331.166 121.606 329.966 121.606 323.166C121.606 320.886 120.886 317.086 120.446 314.606C120.366 314.126 120.406 314.166 120.966 313.926C125.006 312.326 127.686 308.926 127.686 304.406C127.686 299.286 123.926 294.766 118.046 294.766C116.926 294.766 117.046 294.966 116.886 294.046L115.886 288.246C115.806 287.766 115.886 287.726 116.126 287.486C116.766 286.886 117.606 286.046 118.366 285.206C121.726 281.526 123.726 276.766 123.726 272.246C123.726 268.766 122.766 265.326 121.126 262.926C120.526 262.046 119.486 260.926 119.046 260.926ZM113.886 289.086C114.286 288.766 114.366 288.806 114.446 289.246L115.286 294.366C115.406 295.126 115.406 295.086 114.686 295.326C111.166 296.526 108.886 299.686 108.886 303.086C108.886 306.686 110.766 309.246 113.486 310.166C113.806 310.286 114.286 310.406 114.566 310.406C114.886 310.406 115.046 310.206 115.046 309.966C115.046 309.686 114.726 309.566 114.446 309.446C112.766 308.726 111.566 307.006 111.566 305.166C111.566 302.886 113.126 301.166 115.566 300.486C116.206 300.326 116.286 300.366 116.366 300.806L118.366 312.726C118.446 313.166 118.406 313.166 117.806 313.286C117.166 313.406 116.366 313.486 115.566 313.486C108.566 313.486 104.046 309.606 104.046 304.046C104.046 301.686 104.446 298.526 107.766 294.766C110.166 292.086 112.006 290.606 113.886 289.086ZM118.486 300.166C121.726 300.446 124.406 303.166 124.406 306.686C124.406 309.206 122.886 311.246 120.646 312.366C120.166 312.606 120.086 312.606 120.006 312.126L118.046 300.726C117.966 300.246 118.006 300.126 118.486 300.166ZM119.646 267.126C120.966 267.126 122.046 268.206 122.046 270.406C122.046 273.166 120.726 275.726 117.606 278.846C116.966 279.486 116.006 280.406 115.086 281.206C114.806 281.446 114.646 281.406 114.566 280.886C114.406 279.846 114.326 278.486 114.326 277.206C114.326 270.966 117.206 267.126 119.646 267.126Z"></path></g><g></g><text font-family='Alegreya' font-style='italic' text-anchor='end' stroke='#7a7a7a' font-size="24" x="93.84615384615385" y="264.8461538461538">5</text></g><g><line stroke="black" stroke-width="1.6" x1="490.9243819584761" x2="490.9243819584761" y1="274.8461538461538" y2="314.8461538461538"></line></g><g><path d="M153.626 293.886L153.626 290.206C153.626 289.606 153.146 289.166 152.586 289.166L143.386 289.166C142.786 289.166 142.346 289.606 142.346 290.206L142.346 293.886C142.346 294.446 142.786 294.926 143.386 294.926L152.586 294.926C153.146 294.926 153.626 294.446 153.626 293.886Z"></path><g><circle cx="159.62615384615387" cy="289.8461538461538" r="2.4"></circle></g></g><g><path d="M348.586 301.286C347.066 299.446 345.826 297.966 345.826 295.726C345.826 295.566 345.866 295.366 345.866 295.206C346.026 292.886 347.466 290.966 348.506 289.326C348.626 289.126 348.666 288.926 348.666 288.726C348.666 288.326 348.506 287.966 348.506 287.966C348.506 287.966 342.586 280.926 341.906 280.246C341.706 280.046 341.426 279.926 341.186 279.926C340.786 279.926 340.386 280.206 340.386 280.766C340.386 280.966 340.426 281.166 340.546 281.406C340.706 281.846 342.986 283.886 342.986 286.766C342.986 288.246 342.386 289.966 340.586 291.846C340.186 292.246 340.026 292.686 340.026 293.006C340.026 293.566 340.426 293.966 340.426 293.966L342.386 296.366C343.026 297.166 343.586 297.926 344.106 298.766C344.186 298.926 344.346 299.126 344.346 299.326C344.346 299.366 344.346 299.446 344.306 299.486C344.226 299.646 344.066 299.686 343.866 299.686C343.626 299.686 343.386 299.606 343.226 299.566C343.026 299.566 342.786 299.446 342.586 299.446C340.866 299.446 339.306 301.166 339.306 303.286C339.306 305.286 341.026 307.246 343.946 309.486C344.266 309.726 344.666 309.846 344.986 309.846C345.266 309.846 345.546 309.766 345.586 309.606C345.626 309.486 345.666 309.406 345.666 309.326C345.666 308.966 345.346 308.646 345.026 308.366C344.506 308.366 344.066 307.286 343.986 306.926C343.866 306.606 343.826 306.246 343.826 305.886C343.826 304.646 344.426 303.246 345.706 303.006C345.906 302.966 346.106 302.966 346.346 302.966C347.506 302.966 348.826 303.406 349.466 303.646C349.506 303.646 349.546 303.686 349.586 303.686C349.706 303.726 349.786 303.726 349.866 303.726C349.986 303.726 350.066 303.686 350.066 303.566C350.066 303.086 349.026 301.766 348.586 301.286Z"></path></g></g><g><g></g><g><line stroke="#000000" stroke-width="1.6" x1="915.2668555562193" x2="915.2668555562193" y1="274.8461538461538" y2="314.8461538461538"></line><line stroke="#000000" stroke-width="5" x1="922.5668555562194" x2="922.5668555562194" y1="274.8461538461538" y2="314.8461538461538"></line></g><g><path d="M516.044 301.286C514.524 299.446 513.284 297.966 513.284 295.726C513.284 295.566 513.324 295.366 513.324 295.206C513.484 292.886 514.924 290.966 515.964 289.326C516.084 289.126 516.124 288.926 516.124 288.726C516.124 288.326 515.964 287.966 515.964 287.966C515.964 287.966 510.044 280.926 509.364 280.246C509.164 280.046 508.884 279.926 508.644 279.926C508.244 279.926 507.844 280.206 507.844 280.766C507.844 280.966 507.884 281.166 508.004 281.406C508.164 281.846 510.444 283.886 510.444 286.766C510.444 288.246 509.844 289.966 508.044 291.846C507.644 292.246 507.484 292.686 507.484 293.006C507.484 293.566 507.884 293.966 507.884 293.966L509.844 296.366C510.484 297.166 511.044 297.926 511.564 298.766C511.644 298.926 511.804 299.126 511.804 299.326C511.804 299.366 511.804 299.446 511.764 299.486C511.684 299.646 511.524 299.686 511.324 299.686C511.084 299.686 510.844 299.606 510.684 299.566C510.484 299.566 510.244 299.446 510.044 299.446C508.324 299.446 506.764 301.166 506.764 303.286C506.764 305.286 508.484 307.246 511.404 309.486C511.724 309.726 512.124 309.846 512.444 309.846C512.724 309.846 513.004 309.766 513.044 309.606C513.084 309.486 513.124 309.406 513.124 309.326C513.124 308.966 512.804 308.646 512.484 308.366C511.964 308.366 511.524 307.286 511.444 306.926C511.324 306.606 511.284 306.246 511.284 305.886C511.284 304.646 511.884 303.246 513.164 303.006C513.364 302.966 513.564 302.966 513.804 302.966C514.964 302.966 516.284 303.406 516.924 303.646C516.964 303.646 517.004 303.686 517.044 303.686C517.164 303.726 517.244 303.726 517.324 303.726C517.444 303.726 517.524 303.686 517.524 303.566C517.524 303.086 516.484 301.766 516.044 301.286Z"></path><g><circle cx="523.524381958476" cy="289.8461538461538" r="2.4"></circle></g></g><g><path d="M621.592 288.166C621.512 288.166 621.392 288.166 621.152 288.326C620.872 288.566 618.872 290.966 617.552 290.966L617.552 290.566C617.552 289.086 616.352 287.886 614.872 287.886C613.392 287.886 612.192 289.086 612.192 290.566C612.192 291.406 612.672 292.126 613.272 292.606C613.632 292.846 613.992 293.046 614.392 293.126C614.712 293.206 615.072 293.286 615.432 293.286C615.992 293.286 616.552 293.166 616.992 293.006C617.552 292.846 617.912 292.686 618.432 292.406C618.512 292.366 618.592 292.366 618.632 292.366C618.792 292.366 618.832 292.526 618.832 292.726C618.832 292.846 618.832 293.006 618.792 293.166C618.672 293.766 615.792 301.726 615.072 304.366C615.072 304.846 615.992 304.886 616.232 304.886C616.672 304.886 617.232 304.806 617.632 304.486C617.752 304.406 621.672 290.366 621.672 290.366C621.832 289.646 622.032 289.006 622.072 288.806C622.072 288.286 621.672 288.206 621.592 288.166Z"></path><g><circle cx="628.072020495619" cy="289.8461538461538" r="2.4"></circle></g></g><g><path d="M715.055 287.966C714.855 287.966 714.735 288.046 714.615 288.126C714.335 288.366 712.335 290.766 710.975 290.806L710.975 290.406C710.975 288.886 709.775 287.686 708.255 287.686C706.775 287.686 705.535 288.886 705.535 290.406C705.535 291.206 706.015 291.966 706.655 292.446C706.975 292.686 707.375 292.886 707.775 293.006C708.055 293.086 708.375 293.126 708.735 293.126C709.295 293.126 709.935 293.006 710.415 292.846C710.975 292.686 711.335 292.526 711.855 292.246C711.975 292.206 712.055 292.166 712.135 292.166C712.255 292.166 712.335 292.246 712.335 292.446C712.335 292.566 712.295 292.766 712.215 293.046C712.135 293.366 710.375 298.886 710.015 299.646C709.695 300.406 708.615 300.886 708.055 300.886C708.095 300.726 708.095 300.606 708.095 300.486C708.095 298.966 706.855 297.766 705.375 297.766C703.855 297.766 702.655 298.966 702.655 300.486C702.655 301.286 703.135 302.046 703.775 302.526C704.095 302.766 704.455 302.966 704.855 303.086C705.175 303.166 705.495 303.206 705.855 303.206C706.415 303.206 707.055 303.086 707.535 302.926C708.095 302.766 708.335 302.646 708.855 302.366C708.935 302.366 709.015 302.446 709.015 302.566C709.015 302.606 708.975 302.646 708.975 302.686L705.175 314.006C705.175 314.046 705.135 314.086 705.135 314.126C705.135 314.446 705.495 314.846 706.375 314.846C707.535 314.846 707.735 314.366 707.895 313.926L712.535 298.686C713.575 295.286 714.335 292.606 714.335 292.606C714.335 292.606 715.335 289.086 715.415 288.566C715.415 288.486 715.455 288.446 715.455 288.406C715.455 288.086 715.135 288.006 715.055 287.966Z"></path><g><circle cx="721.4554351910876" cy="289.8461538461538" r="2.4"></circle></g></g><g><path d="M792.235 278.086C792.035 278.086 791.915 278.166 791.795 278.246C791.515 278.446 789.515 280.886 788.155 280.886L788.155 280.526C788.155 279.006 786.955 277.806 785.435 277.806C783.955 277.806 782.715 279.006 782.715 280.526C782.715 281.326 783.195 282.046 783.835 282.526C784.155 282.806 784.555 282.966 784.955 283.086C785.275 283.166 785.595 283.246 785.995 283.246C786.555 283.246 787.155 283.126 787.635 282.966C788.195 282.766 788.515 282.646 789.035 282.366C789.075 282.326 789.155 282.326 789.195 282.326C789.475 282.326 789.635 282.726 789.635 282.966C789.635 283.006 789.595 283.086 789.595 283.126L788.035 289.526C787.835 290.166 786.515 290.966 785.875 290.966C785.915 290.846 785.915 290.726 785.915 290.606C785.915 289.086 784.675 287.886 783.195 287.886C781.675 287.886 780.475 289.086 780.475 290.606C780.475 291.406 780.955 292.126 781.595 292.606C781.915 292.886 782.275 293.046 782.675 293.166C782.995 293.246 783.355 293.326 783.755 293.326C784.315 293.326 784.915 293.206 785.355 293.046C785.915 292.846 786.235 292.726 786.755 292.446C786.795 292.406 786.835 292.406 786.875 292.406C787.075 292.406 787.155 292.726 787.155 292.926L785.555 299.486C785.355 300.326 784.115 300.846 783.515 300.886C783.555 300.726 783.555 300.606 783.555 300.486C783.555 298.966 782.355 297.766 780.835 297.766C779.355 297.766 778.115 298.966 778.115 300.486C778.115 301.286 778.595 302.046 779.235 302.526C779.555 302.766 779.955 302.966 780.355 303.086C780.635 303.166 780.955 303.206 781.315 303.206C781.875 303.206 782.515 303.086 782.995 302.926C783.555 302.766 783.915 302.606 784.435 302.326C784.475 302.286 784.515 302.286 784.555 302.286C784.675 302.286 784.795 302.406 784.795 302.526C784.795 302.686 782.035 313.686 781.955 313.966C781.915 314.046 781.915 314.126 781.915 314.206C781.915 314.526 782.155 314.846 782.995 314.846C784.275 314.846 784.395 314.446 784.555 314.006C784.675 313.526 791.555 282.726 791.555 282.726C791.555 282.726 792.515 279.166 792.595 278.686C792.595 278.606 792.635 278.566 792.635 278.526C792.635 278.166 792.315 278.086 792.235 278.086Z"></path><g><circle cx="798.634626044882" cy="289.8461538461538" r="2.4"></circle></g></g><g><path d="M855.130 277.926C854.930 277.926 854.810 278.006 854.690 278.086C854.370 278.326 852.370 280.766 851.010 280.766C851.050 280.646 851.050 280.526 851.050 280.366C851.050 278.886 849.810 277.646 848.330 277.646C846.810 277.646 845.610 278.886 845.610 280.366C845.610 281.206 846.090 281.926 846.730 282.406C847.050 282.646 847.410 282.846 847.810 282.966C848.130 283.046 848.490 283.126 848.890 283.126C849.450 283.126 850.050 283.006 850.490 282.846C851.050 282.646 851.410 282.486 851.930 282.246C852.010 282.206 852.130 282.166 852.210 282.166C852.410 282.166 852.570 282.326 852.570 282.606C852.570 282.726 852.530 282.846 852.490 283.006C852.450 283.126 851.090 288.806 850.930 289.246C850.650 290.006 849.210 290.846 848.530 290.846L848.530 290.446C848.530 288.966 847.330 287.726 845.810 287.726C844.330 287.726 843.090 288.966 843.090 290.446C843.090 291.286 843.570 292.006 844.210 292.486C844.530 292.726 844.930 292.926 845.330 293.046C845.650 293.126 845.970 293.166 846.330 293.166C846.890 293.166 847.530 293.086 848.010 292.926C848.570 292.726 849.090 292.566 849.610 292.326C849.690 292.286 849.730 292.286 849.770 292.286C849.930 292.286 850.010 292.446 850.010 292.646C850.010 292.726 850.010 292.766 849.970 292.846C849.890 293.206 848.450 299.006 848.330 299.326C848.010 300.366 846.930 300.726 846.370 300.726L846.370 300.326C846.370 298.846 845.170 297.606 843.650 297.606C842.170 297.606 840.930 298.846 840.930 300.326C840.930 301.166 841.410 301.886 842.050 302.366C842.410 302.606 842.770 302.806 843.170 302.926C843.490 303.006 843.890 303.086 844.250 303.086C844.810 303.086 845.370 302.966 845.850 302.806C846.410 302.606 846.530 302.446 847.050 302.206C847.090 302.166 847.130 302.166 847.170 302.166C847.370 302.166 847.410 302.486 847.410 302.726C847.410 302.846 847.370 303.006 847.370 303.046C847.330 303.246 845.930 308.966 845.770 309.406C845.530 310.246 844.490 310.606 843.970 310.606C844.010 310.486 844.010 310.366 844.010 310.246C844.010 308.726 842.810 307.526 841.290 307.526C839.810 307.526 838.570 308.726 838.570 310.246C838.570 311.046 839.050 311.766 839.690 312.246C840.010 312.526 840.370 312.686 840.770 312.806C841.090 312.886 841.450 312.966 841.850 312.966C842.410 312.966 843.010 312.846 843.450 312.686C844.010 312.486 843.890 312.606 844.410 312.326C844.490 312.286 844.530 312.286 844.570 312.286C844.770 312.286 844.890 312.486 844.890 312.726C844.890 312.806 844.850 312.886 844.850 312.966L841.970 324.126C841.930 324.246 841.930 324.326 841.930 324.406C841.930 324.766 842.290 324.966 843.210 324.966C844.170 324.966 844.370 324.726 844.530 324.286C844.610 323.926 844.930 323.206 849.730 302.566C849.770 302.566 850.530 299.326 850.690 298.606L854.410 282.606C854.410 282.606 855.370 279.046 855.490 278.526C855.490 278.086 855.290 277.966 855.130 277.926Z"></path><g><circle cx="861.489593057002" cy="289.8461538461538" r="2.4"></circle></g></g><g><path d="M898.940 270.006C898.940 268.486 897.740 267.286 896.220 267.286C894.740 267.286 893.500 268.486 893.500 270.006C893.500 270.806 893.980 271.526 894.620 272.006C894.940 272.286 895.340 272.486 895.740 272.566C896.060 272.646 896.420 272.726 896.780 272.726C897.340 272.726 897.940 272.606 898.380 272.446C898.420 272.446 898.460 272.406 898.500 272.406C898.980 272.246 899.340 272.086 899.820 271.846C899.900 271.806 900.060 271.766 900.140 271.766C900.380 271.766 900.620 271.926 900.620 272.286C900.620 272.366 900.620 272.486 900.580 272.606C900.420 273.366 899.180 278.326 899.020 278.886C898.860 279.486 897.220 280.686 896.460 280.686L896.460 280.286C896.460 278.806 895.260 277.566 893.740 277.566C892.260 277.566 891.020 278.806 891.020 280.286C891.020 281.126 891.500 281.846 892.140 282.326C892.500 282.566 892.860 282.766 893.260 282.886C893.580 282.966 893.900 283.006 894.260 283.006C894.820 283.006 895.460 282.926 895.940 282.766C896.500 282.566 897.220 282.206 897.740 281.966C897.780 281.926 897.820 281.926 897.860 281.926C898.020 281.926 898.060 282.166 898.060 282.446C898.060 282.646 898.020 282.846 897.980 283.006L896.420 289.246C896.220 290.046 894.820 290.846 894.180 290.846L894.180 290.446C894.180 288.966 892.980 287.726 891.460 287.726C889.980 287.726 888.740 288.966 888.740 290.446C888.740 291.286 889.220 292.006 889.860 292.486C890.180 292.726 890.580 292.926 890.980 293.046C891.300 293.126 891.700 293.206 892.060 293.206C892.620 293.206 893.180 293.086 893.660 292.926C894.220 292.726 894.540 292.566 895.060 292.326C895.140 292.286 895.220 292.246 895.300 292.246C895.460 292.246 895.540 292.406 895.540 292.646C895.540 292.766 895.500 292.926 895.460 293.086C895.340 293.686 894.140 298.566 893.940 299.206C893.620 300.286 892.420 300.726 891.820 300.726C891.820 300.606 891.860 300.486 891.860 300.326C891.860 298.846 890.620 297.606 889.140 297.606C887.620 297.606 886.420 298.846 886.420 300.326C886.420 301.166 886.900 301.886 887.540 302.366C887.860 302.606 888.220 302.806 888.620 302.926C888.940 303.006 889.340 303.086 889.700 303.086C890.260 303.086 890.820 302.966 891.300 302.806C891.860 302.606 892.180 302.446 892.700 302.206C892.740 302.166 892.820 302.166 892.860 302.166C893.020 302.166 893.100 302.326 893.100 302.486C893.020 302.806 891.740 308.446 891.420 309.206C890.900 310.566 890.140 310.606 889.580 310.646L889.460 310.246C889.460 308.726 888.260 307.526 886.740 307.526C885.260 307.526 884.020 308.726 884.020 310.246C884.020 311.046 884.500 311.766 885.140 312.286C885.460 312.526 885.860 312.726 886.260 312.806C886.580 312.886 886.940 312.966 887.300 312.966C887.860 312.966 888.460 312.846 888.900 312.686C888.940 312.686 888.980 312.646 889.020 312.646C889.500 312.486 889.860 312.326 890.340 312.086C890.380 312.086 890.420 312.046 890.460 312.046C890.580 312.046 890.660 312.126 890.660 312.246C890.660 312.286 890.660 312.366 890.620 312.406C890.540 312.686 887.740 324.006 887.660 324.206C887.660 324.606 887.900 324.846 888.820 324.846C890.100 324.846 890.260 324.686 890.420 324.206L902.300 272.206C902.300 272.206 903.300 268.686 903.380 268.166C903.380 268.086 903.420 268.046 903.420 268.006C903.420 267.646 903.100 267.606 903.020 267.566C902.820 267.566 902.700 267.646 902.580 267.726C902.300 267.926 900.300 270.366 898.940 270.406Z"></path><g><circle cx="909.4203362274478" cy="289.8461538461538" r="2.4"></circle></g></g></g></svg>