<?xml version="1.0" encoding="UTF-8" standalone="no"?><svg xmlns="http://www.w3.org/2000/svg" height="279.4mm" viewBox="0 0 1328.6153846153845 1719.3846153846152" width="215.9mm"><g transform="translate(93.84615384615385)"><g><g><line stroke="#6A6A6A" stroke-width="1.3" x1="0" x2="672.4710750896681" y1="183.8461538461538" y2="183.8461538461538"></line><line stroke="#6A6A6A" stroke-width="1.3" x1="0" x2="672.4710750896681" y1="173.8461538461538" y2="173.8461538461538"></line><line stroke="#6A6A6A" stroke-width="1.3" x1="0" x2="672.4710750896681" y1="163.8461538461538" y2="163.8461538461538"></line><line stroke="#6A6A6A" stroke-width="1.3" x1="0" x2="672.4710750896681" y1="153.8461538461538" y2="153.8461538461538"></line><line stroke="#6A6A6A" stroke-width="1.3" x1="0" x2="672.4710750896681" y1="143.8461538461538" y2="143.8461538461538"></line></g><g><path d="M25.200 129.926C24.640 129.926 23.400 130.966 22.600 131.846C19.640 135.126 18.680 140.126 18.680 144.286C18.680 146.606 18.960 149.206 19.240 150.846C19.320 151.326 19.360 151.406 18.880 151.806C16.320 153.926 13.560 156.366 11.480 158.926C8.720 162.366 7 166.086 7 170.366C7 177.326 11.760 183.926 21.560 183.926C22.480 183.926 23.520 183.846 24.320 183.686C24.760 183.606 24.840 183.566 24.920 184.046C25.400 186.726 26 190.206 26 192.086C26 198.006 22 198.726 19.640 198.726C17.480 198.726 16.440 198.086 16.440 197.566C16.440 197.126 16.800 197.166 17.720 196.886C18.960 196.526 20.400 195.446 20.400 193.126C20.400 190.926 19 189.046 16.560 189.046C13.880 189.046 12.280 191.166 12.280 193.646C12.280 196.246 13.840 200.166 19.880 200.166C22.560 200.166 27.760 198.966 27.760 192.166C27.760 189.886 27.040 186.086 26.600 183.606C26.520 183.126 26.560 183.166 27.120 182.926C31.160 181.326 33.840 177.926 33.840 173.406C33.840 168.286 30.080 163.766 24.200 163.766C23.080 163.766 23.200 163.966 23.040 163.046L22.040 157.246C21.960 156.766 22.040 156.726 22.280 156.486C22.920 155.886 23.760 155.046 24.520 154.206C27.880 150.526 29.880 145.766 29.880 141.246C29.880 137.766 28.920 134.326 27.280 131.926C26.680 131.046 25.640 129.926 25.200 129.926ZM20.040 158.086C20.440 157.766 20.520 157.806 20.600 158.246L21.440 163.366C21.560 164.126 21.560 164.086 20.840 164.326C17.320 165.526 15.040 168.686 15.040 172.086C15.040 175.686 16.920 178.246 19.640 179.166C19.960 179.286 20.440 179.406 20.720 179.406C21.040 179.406 21.200 179.206 21.200 178.966C21.200 178.686 20.880 178.566 20.600 178.446C18.920 177.726 17.720 176.006 17.720 174.166C17.720 171.886 19.280 170.166 21.720 169.486C22.360 169.326 22.440 169.366 22.520 169.806L24.520 181.726C24.600 182.166 24.560 182.166 23.960 182.286C23.320 182.406 22.520 182.486 21.720 182.486C14.720 182.486 10.200 178.606 10.200 173.046C10.200 170.686 10.600 167.526 13.920 163.766C16.320 161.086 18.160 159.606 20.040 158.086ZM24.640 169.166C27.880 169.446 30.560 172.166 30.560 175.686C30.560 178.206 29.040 180.246 26.800 181.366C26.320 181.606 26.240 181.606 26.160 181.126L24.200 169.726C24.120 169.246 24.160 169.126 24.640 169.166ZM25.800 136.126C27.120 136.126 28.200 137.206 28.200 139.406C28.200 142.166 26.880 144.726 23.760 147.846C23.120 148.486 22.160 149.406 21.240 150.206C20.960 150.446 20.800 150.406 20.720 149.886C20.560 148.846 20.480 147.486 20.480 146.206C20.480 139.966 23.360 136.126 25.800 136.126Z"></path></g><g><path d="M52.980 139.126C53.260 139.006 53.460 138.686 53.460 138.446L53.460 135.606C53.460 135.406 53.340 135.286 53.180 135.286C53.100 135.286 53.060 135.286 52.980 135.326C52.980 135.326 52.180 135.646 51.980 135.686C51.700 135.686 51.420 135.486 51.420 135.166C51.420 134.766 51.420 130.286 51.420 130.286C51.420 130.046 51.180 129.846 50.860 129.846C50.460 129.846 50.220 130.046 50.220 130.286C50.220 130.286 50.220 135.086 50.220 135.486C50.180 135.886 50.060 136.406 49.700 136.646C49.220 136.926 47.860 137.486 47.180 137.646C46.820 137.646 46.700 137.166 46.700 136.846C46.700 136.446 46.700 132.046 46.700 132.046C46.700 131.806 46.420 131.606 46.140 131.606C45.740 131.606 45.500 131.806 45.500 132.046C45.500 132.046 45.500 134.206 45.500 135.806L45.500 137.446C45.500 138.006 45.260 138.406 45.020 138.526C44.780 138.646 43.980 138.966 43.980 138.966C43.700 139.046 43.500 139.366 43.500 139.606L43.500 142.446C43.500 142.686 43.620 142.806 43.820 142.806C43.860 142.806 43.940 142.766 43.980 142.766C43.980 142.766 44.580 142.526 44.860 142.366C44.900 142.366 44.940 142.326 44.980 142.326C45.260 142.326 45.500 142.726 45.500 143.046L45.500 147.006C45.500 147.446 45.300 147.806 45.060 147.926C44.820 148.006 43.980 148.366 43.980 148.366C43.700 148.446 43.500 148.766 43.500 149.006L43.500 151.846C43.500 152.086 43.620 152.206 43.820 152.206C43.860 152.206 43.940 152.166 43.980 152.166C43.980 152.166 44.540 151.926 44.900 151.806C44.940 151.766 44.980 151.766 45.020 151.766C45.300 151.766 45.500 152.206 45.500 152.406C45.500 152.646 45.500 157.326 45.500 157.326C45.500 157.566 45.740 157.766 46.020 157.766C46.420 157.766 46.700 157.566 46.700 157.326C46.700 157.326 46.700 152.246 46.700 151.766C46.700 151.246 46.900 150.966 47.100 150.886L49.540 149.886C49.580 149.886 49.660 149.846 49.700 149.846C50.020 149.846 50.220 150.326 50.220 150.566C50.220 150.846 50.220 155.566 50.220 155.566C50.220 155.806 50.460 156.006 50.740 156.006C51.180 156.006 51.420 155.806 51.420 155.566C51.420 155.566 51.420 150.166 51.420 149.886C51.420 149.566 51.580 149.086 51.860 148.966C52.140 148.846 52.980 148.526 52.980 148.526C53.260 148.406 53.460 148.086 53.460 147.846L53.460 145.006C53.460 144.806 53.340 144.686 53.180 144.686C53.100 144.686 53.060 144.686 52.980 144.726C52.980 144.726 52.140 145.046 51.940 145.126C51.700 145.126 51.420 144.886 51.420 144.406L51.420 140.686C51.420 140.406 51.620 139.646 51.940 139.526C52.260 139.406 52.980 139.126 52.980 139.126ZM50.220 145.646C49.980 146.446 48.100 147.246 47.180 147.246C46.940 147.246 46.740 147.166 46.700 147.046C46.620 146.886 46.580 146.006 46.580 145.046C46.580 143.806 46.620 142.406 46.700 142.086C46.780 141.406 48.620 140.566 49.620 140.566C49.900 140.566 50.140 140.646 50.220 140.806C50.300 141.006 50.380 142.006 50.380 143.086C50.380 144.166 50.300 145.286 50.220 145.646Z"></path><path d="M63.980 154.126C64.260 154.006 64.460 153.686 64.460 153.446L64.460 150.606C64.460 150.406 64.340 150.286 64.180 150.286C64.100 150.286 64.060 150.286 63.980 150.326C63.980 150.326 63.180 150.646 62.980 150.686C62.700 150.686 62.420 150.486 62.420 150.166C62.420 149.766 62.420 145.286 62.420 145.286C62.420 145.046 62.180 144.846 61.860 144.846C61.460 144.846 61.220 145.046 61.220 145.286C61.220 145.286 61.220 150.086 61.220 150.486C61.180 150.886 61.060 151.406 60.700 151.646C60.220 151.926 58.860 152.486 58.180 152.646C57.820 152.646 57.700 152.166 57.700 151.846C57.700 151.446 57.700 147.046 57.700 147.046C57.700 146.806 57.420 146.606 57.140 146.606C56.740 146.606 56.500 146.806 56.500 147.046C56.500 147.046 56.500 149.206 56.500 150.806L56.500 152.446C56.500 153.006 56.260 153.406 56.020 153.526C55.780 153.646 54.980 153.966 54.980 153.966C54.700 154.046 54.500 154.366 54.500 154.606L54.500 157.446C54.500 157.686 54.620 157.806 54.820 157.806C54.860 157.806 54.940 157.766 54.980 157.766C54.980 157.766 55.580 157.526 55.860 157.366C55.900 157.366 55.940 157.326 55.980 157.326C56.260 157.326 56.500 157.726 56.500 158.046L56.500 162.006C56.500 162.446 56.300 162.806 56.060 162.926C55.820 163.006 54.980 163.366 54.980 163.366C54.700 163.446 54.500 163.766 54.500 164.006L54.500 166.846C54.500 167.086 54.620 167.206 54.820 167.206C54.860 167.206 54.940 167.166 54.980 167.166C54.980 167.166 55.540 166.926 55.900 166.806C55.940 166.766 55.980 166.766 56.020 166.766C56.300 166.766 56.500 167.206 56.500 167.406C56.500 167.646 56.500 172.326 56.500 172.326C56.500 172.566 56.740 172.766 57.020 172.766C57.420 172.766 57.700 172.566 57.700 172.326C57.700 172.326 57.700 167.246 57.700 166.766C57.700 166.246 57.900 165.966 58.100 165.886L60.540 164.886C60.580 164.886 60.660 164.846 60.700 164.846C61.020 164.846 61.220 165.326 61.220 165.566C61.220 165.846 61.220 170.566 61.220 170.566C61.220 170.806 61.460 171.006 61.740 171.006C62.180 171.006 62.420 170.806 62.420 170.566C62.420 170.566 62.420 165.166 62.420 164.886C62.420 164.566 62.580 164.086 62.860 163.966C63.140 163.846 63.980 163.526 63.980 163.526C64.260 163.406 64.460 163.086 64.460 162.846L64.460 160.006C64.460 159.806 64.340 159.686 64.180 159.686C64.100 159.686 64.060 159.686 63.980 159.726C63.980 159.726 63.140 160.046 62.940 160.126C62.700 160.126 62.420 159.886 62.420 159.406L62.420 155.686C62.420 155.406 62.620 154.646 62.940 154.526C63.260 154.406 63.980 154.126 63.980 154.126ZM61.220 160.646C60.980 161.446 59.100 162.246 58.180 162.246C57.940 162.246 57.740 162.166 57.700 162.046C57.620 161.886 57.580 161.006 57.580 160.046C57.580 158.806 57.620 157.406 57.700 157.086C57.780 156.406 59.620 155.566 60.620 155.566C60.900 155.566 61.140 155.646 61.220 155.806C61.300 156.006 61.380 157.006 61.380 158.086C61.380 159.166 61.300 160.286 61.220 160.646Z"></path></g><path d="M86.820 153.806C85.620 153.806 84.220 154.126 83.140 154.606C79.580 156.166 77.700 160.446 77.700 164.246C77.700 164.606 77.700 164.966 77.740 165.326C77.940 167.486 78.980 169.526 80.300 171.126C81.820 172.966 84.020 173.806 86.420 173.806C93.420 173.806 94.460 167.446 94.460 166.286C94.460 165.406 94.020 165.406 93.860 165.406C93.540 165.406 93.260 165.446 93.260 166.126C93.260 171.286 88.860 172.486 87.580 172.486C84.340 172.486 82.620 169.326 82.620 162.726C82.620 156.126 85.660 154.766 87.820 154.766C89.900 154.766 90.740 155.726 90.740 156.126C90.740 156.486 90.620 157.006 90.020 157.006C88.420 157.006 87.500 158.726 87.500 159.966C87.500 162.246 89.460 162.966 90.580 162.966C90.580 162.966 93.620 162.846 93.620 159.526C93.620 154.286 87.580 153.806 86.820 153.806Z"></path></g><g><line stroke="black" stroke-width="1.6" x1="383.5555375448341" x2="383.5555375448341" y1="143.8461538461538" y2="183.8461538461538"></line></g><g><g><line stroke="#6A6A6A" stroke-width="1.3" x1="0" x2="672.4710750896681" y1="288.8461538461538" y2="288.8461538461538"></line><line stroke="#6A6A6A" stroke-width="1.3" x1="0" x2="672.4710750896681" y1="278.8461538461538" y2="278.8461538461538"></line><line stroke="#6A6A6A" stroke-width="1.3" x1="0" x2="672.4710750896681" y1="268.8461538461538" y2="268.8461538461538"></line><line stroke="#6A6A6A" stroke-width="1.3" x1="0" x2="672.4710750896681" y1="258.8461538461538" y2="258.8461538461538"></line><line stroke="#6A6A6A" stroke-width="1.3" x1="0" x2="672.4710750896681" y1="248.8461538461538" y2="248.8461538461538"></line></g><g><path d="M25.200 234.926C24.640 234.926 23.400 235.966 22.600 236.846C19.640 240.126 18.680 245.126 18.680 249.286C18.680 251.606 18.960 254.206 19.240 255.846C19.320 256.326 19.360 256.406 18.880 256.806C16.320 258.926 13.560 261.366 11.480 263.926C8.720 267.366 7 271.086 7 275.366C7 282.326 11.760 288.926 21.560 288.926C22.480 288.926 23.520 288.846 24.320 288.686C24.760 288.606 24.840 288.566 24.920 289.046C25.400 291.726 26 295.206 26 297.086C26 303.006 22 303.726 19.640 303.726C17.480 303.726 16.440 303.086 16.440 302.566C16.440 302.126 16.800 302.166 17.720 301.886C18.960 301.526 20.400 300.446 20.400 298.126C20.400 295.926 19 294.046 16.560 294.046C13.880 294.046 12.280 296.166 12.280 298.646C12.280 301.246 13.840 305.166 19.880 305.166C22.560 305.166 27.760 303.966 27.760 297.166C27.760 294.886 27.040 291.086 26.600 288.606C26.520 288.126 26.560 288.166 27.120 287.926C31.160 286.326 33.840 282.926 33.840 278.406C33.840 273.286 30.080 268.766 24.200 268.766C23.080 268.766 23.200 268.966 23.040 268.046L22.040 262.246C21.960 261.766 22.040 261.726 22.280 261.486C22.920 260.886 23.760 260.046 24.520 259.206C27.880 255.526 29.880 250.766 29.880 246.246C29.880 242.766 28.920 239.326 27.280 236.926C26.680 236.046 25.640 234.926 25.200 234.926ZM20.040 263.086C20.440 262.766 20.520 262.806 20.600 263.246L21.440 268.366C21.560 269.126 21.560 269.086 20.840 269.326C17.320 270.526 15.040 273.686 15.040 277.086C15.040 280.686 16.920 283.246 19.640 284.166C19.960 284.286 20.440 284.406 20.720 284.406C21.040 284.406 21.200 284.206 21.200 283.966C21.200 283.686 20.880 283.566 20.600 283.446C18.920 282.726 17.720 281.006 17.720 279.166C17.720 276.886 19.280 275.166 21.720 274.486C22.360 274.326 22.440 274.366 22.520 274.806L24.520 286.726C24.600 287.166 24.560 287.166 23.960 287.286C23.320 287.406 22.520 287.486 21.720 287.486C14.720 287.486 10.200 283.606 10.200 278.046C10.200 275.686 10.600 272.526 13.920 268.766C16.320 266.086 18.160 264.606 20.040 263.086ZM24.640 274.166C27.880 274.446 30.560 277.166 30.560 280.686C30.560 283.206 29.040 285.246 26.800 286.366C26.320 286.606 26.240 286.606 26.160 286.126L24.200 274.726C24.120 274.246 24.160 274.126 24.640 274.166ZM25.800 241.126C27.120 241.126 28.200 242.206 28.200 244.406C28.200 247.166 26.880 249.726 23.760 252.846C23.120 253.486 22.160 254.406 21.240 255.206C20.960 255.446 20.800 255.406 20.720 254.886C20.560 253.846 20.480 252.486 20.480 251.206C20.480 244.966 23.360 241.126 25.800 241.126Z"></path></g><g><path d="M52.980 244.126C53.260 244.006 53.460 243.686 53.460 243.446L53.460 240.606C53.460 240.406 53.340 240.286 53.180 240.286C53.100 240.286 53.060 240.286 52.980 240.326C52.980 240.326 52.180 240.646 51.980 240.686C51.700 240.686 51.420 240.486 51.420 240.166C51.420 239.766 51.420 235.286 51.420 235.286C51.420 235.046 51.180 234.846 50.860 234.846C50.460 234.846 50.220 235.046 50.220 235.286C50.220 235.286 50.220 240.086 50.220 240.486C50.180 240.886 50.060 241.406 49.700 241.646C49.220 241.926 47.860 242.486 47.180 242.646C46.820 242.646 46.700 242.166 46.700 241.846C46.700 241.446 46.700 237.046 46.700 237.046C46.700 236.806 46.420 236.606 46.140 236.606C45.740 236.606 45.500 236.806 45.500 237.046C45.500 237.046 45.500 239.206 45.500 240.806L45.500 242.446C45.500 243.006 45.260 243.406 45.020 243.526C44.780 243.646 43.980 243.966 43.980 243.966C43.700 244.046 43.500 244.366 43.500 244.606L43.500 247.446C43.500 247.686 43.620 247.806 43.820 247.806C43.860 247.806 43.940 247.766 43.980 247.766C43.980 247.766 44.580 247.526 44.860 247.366C44.900 247.366 44.940 247.326 44.980 247.326C45.260 247.326 45.500 247.726 45.500 248.046L45.500 252.006C45.500 252.446 45.300 252.806 45.060 252.926C44.820 253.006 43.980 253.366 43.980 253.366C43.700 253.446 43.500 253.766 43.500 254.006L43.500 256.846C43.500 257.086 43.620 257.206 43.820 257.206C43.860 257.206 43.940 257.166 43.980 257.166C43.980 257.166 44.540 256.926 44.900 256.806C44.940 256.766 44.980 256.766 45.020 256.766C45.300 256.766 45.500 257.206 45.500 257.406C45.500 257.646 45.500 262.326 45.500 262.326C45.500 262.566 45.740 262.766 46.020 262.766C46.420 262.766 46.700 262.566 46.700 262.326C46.700 262.326 46.700 257.246 46.700 256.766C46.700 256.246 46.900 255.966 47.100 255.886L49.540 254.886C49.580 254.886 49.660 254.846 49.700 254.846C50.020 254.846 50.220 255.326 50.220 255.566C50.220 255.846 50.220 260.566 50.220 260.566C50.220 260.806 50.460 261.006 50.740 261.006C51.180 261.006 51.420 260.806 51.420 260.566C51.420 260.566 51.420 255.166 51.420 254.886C51.420 254.566 51.580 254.086 51.860 253.966C52.140 253.846 52.980 253.526 52.980 253.526C53.260 253.406 53.460 253.086 53.460 252.846L53.460 250.006C53.460 249.806 53.340 249.686 53.180 249.686C53.100 249.686 53.060 249.686 52.980 249.726C52.980 249.726 52.140 250.046 51.940 250.126C51.700 250.126 51.420 249.886 51.420 249.406L51.420 245.686C51.420 245.406 51.620 244.646 51.940 244.526C52.260 244.406 52.980 244.126 52.980 244.126ZM50.220 250.646C49.980 251.446 48.100 252.246 47.180 252.246C46.940 252.246 46.740 252.166 46.700 252.046C46.620 251.886 46.580 251.006 46.580 250.046C46.580 248.806 46.620 247.406 46.700 247.086C46.780 246.406 48.620 245.566 49.620 245.566C49.900 245.566 50.140 245.646 50.220 245.806C50.300 246.006 50.380 247.006 50.380 248.086C50.380 249.166 50.300 250.286 50.220 250.646Z"></path><path d="M63.980 259.126C64.260 259.006 64.460 258.686 64.460 258.446L64.460 255.606C64.460 255.406 64.340 255.286 64.180 255.286C64.100 255.286 64.060 255.286 63.980 255.326C63.980 255.326 63.180 255.646 62.980 255.686C62.700 255.686 62.420 255.486 62.420 255.166C62.420 254.766 62.420 250.286 62.420 250.286C62.420 250.046 62.180 249.846 61.860 249.846C61.460 249.846 61.220 250.046 61.220 250.286C61.220 250.286 61.220 255.086 61.220 255.486C61.180 255.886 61.060 256.406 60.700 256.646C60.220 256.926 58.860 257.486 58.180 257.646C57.820 257.646 57.700 257.166 57.700 256.846C57.700 256.446 57.700 252.046 57.700 252.046C57.700 251.806 57.420 251.606 57.140 251.606C56.740 251.606 56.500 251.806 56.500 252.046C56.500 252.046 56.500 254.206 56.500 255.806L56.500 257.446C56.500 258.006 56.260 258.406 56.020 258.526C55.780 258.646 54.980 258.966 54.980 258.966C54.700 259.046 54.500 259.366 54.500 259.606L54.500 262.446C54.500 262.686 54.620 262.806 54.820 262.806C54.860 262.806 54.940 262.766 54.980 262.766C54.980 262.766 55.580 262.526 55.860 262.366C55.900 262.366 55.940 262.326 55.980 262.326C56.260 262.326 56.500 262.726 56.500 263.046L56.500 267.006C56.500 267.446 56.300 267.806 56.060 267.926C55.820 268.006 54.980 268.366 54.980 268.366C54.700 268.446 54.500 268.766 54.500 269.006L54.500 271.846C54.500 272.086 54.620 272.206 54.820 272.206C54.860 272.206 54.940 272.166 54.980 272.166C54.980 272.166 55.540 271.926 55.900 271.806C55.940 271.766 55.980 271.766 56.020 271.766C56.300 271.766 56.500 272.206 56.500 272.406C56.500 272.646 56.500 277.326 56.500 277.326C56.500 277.566 56.740 277.766 57.020 277.766C57.420 277.766 57.700 277.566 57.700 277.326C57.700 277.326 57.700 272.246 57.700 271.766C57.700 271.246 57.900 270.966 58.100 270.886L60.540 269.886C60.580 269.886 60.660 269.846 60.700 269.846C61.020 269.846 61.220 270.326 61.220 270.566C61.220 270.846 61.220 275.566 61.220 275.566C61.220 275.806 61.460 276.006 61.740 276.006C62.180 276.006 62.420 275.806 62.420 275.566C62.420 275.566 62.420 270.166 62.420 269.886C62.420 269.566 62.580 269.086 62.860 268.966C63.140 268.846 63.980 268.526 63.980 268.526C64.260 268.406 64.460 268.086 64.460 267.846L64.460 265.006C64.460 264.806 64.340 264.686 64.180 264.686C64.100 264.686 64.060 264.686 63.980 264.726C63.980 264.726 63.140 265.046 62.940 265.126C62.700 265.126 62.420 264.886 62.420 264.406L62.420 260.686C62.420 260.406 62.620 259.646 62.940 259.526C63.260 259.406 63.980 259.126 63.980 259.126ZM61.220 265.646C60.980 266.446 59.100 267.246 58.180 267.246C57.940 267.246 57.740 267.166 57.700 267.046C57.620 266.886 57.580 266.006 57.580 265.046C57.580 263.806 57.620 262.406 57.700 262.086C57.780 261.406 59.620 260.566 60.620 260.566C60.900 260.566 61.140 260.646 61.220 260.806C61.300 261.006 61.380 262.006 61.380 263.086C61.380 264.166 61.300 265.286 61.220 265.646Z"></path><path d="M74.980 239.126C75.260 239.006 75.460 238.686 75.460 238.446L75.460 235.606C75.460 235.406 75.340 235.286 75.180 235.286C75.100 235.286 75.060 235.286 74.980 235.326C74.980 235.326 74.180 235.646 73.980 235.686C73.700 235.686 73.420 235.486 73.420 235.166C73.420 234.766 73.420 230.286 73.420 230.286C73.420 230.046 73.180 229.846 72.860 229.846C72.460 229.846 72.220 230.046 72.220 230.286C72.220 230.286 72.220 235.086 72.220 235.486C72.180 235.886 72.060 236.406 71.700 236.646C71.220 236.926 69.860 237.486 69.180 237.646C68.820 237.646 68.700 237.166 68.700 236.846C68.700 236.446 68.700 232.046 68.700 232.046C68.700 231.806 68.420 231.606 68.140 231.606C67.740 231.606 67.500 231.806 67.500 232.046C67.500 232.046 67.500 234.206 67.500 235.806L67.500 237.446C67.500 238.006 67.260 238.406 67.020 238.526C66.780 238.646 65.980 238.966 65.980 238.966C65.700 239.046 65.500 239.366 65.500 239.606L65.500 242.446C65.500 242.686 65.620 242.806 65.820 242.806C65.860 242.806 65.940 242.766 65.980 242.766C65.980 242.766 66.580 242.526 66.860 242.366C66.900 242.366 66.940 242.326 66.980 242.326C67.260 242.326 67.500 242.726 67.500 243.046L67.500 247.006C67.500 247.446 67.300 247.806 67.060 247.926C66.820 248.006 65.980 248.366 65.980 248.366C65.700 248.446 65.500 248.766 65.500 249.006L65.500 251.846C65.500 252.086 65.620 252.206 65.820 252.206C65.860 252.206 65.940 252.166 65.980 252.166C65.980 252.166 66.540 251.926 66.900 251.806C66.940 251.766 66.980 251.766 67.020 251.766C67.300 251.766 67.500 252.206 67.500 252.406C67.500 252.646 67.500 257.326 67.500 257.326C67.500 257.566 67.740 257.766 68.020 257.766C68.420 257.766 68.700 257.566 68.700 257.326C68.700 257.326 68.700 252.246 68.700 251.766C68.700 251.246 68.900 250.966 69.100 250.886L71.540 249.886C71.580 249.886 71.660 249.846 71.700 249.846C72.020 249.846 72.220 250.326 72.220 250.566C72.220 250.846 72.220 255.566 72.220 255.566C72.220 255.806 72.460 256.006 72.740 256.006C73.180 256.006 73.420 255.806 73.420 255.566C73.420 255.566 73.420 250.166 73.420 249.886C73.420 249.566 73.580 249.086 73.860 248.966C74.140 248.846 74.980 248.526 74.980 248.526C75.260 248.406 75.460 248.086 75.460 247.846L75.460 245.006C75.460 244.806 75.340 244.686 75.180 244.686C75.100 244.686 75.060 244.686 74.980 244.726C74.980 244.726 74.140 245.046 73.940 245.126C73.700 245.126 73.420 244.886 73.420 244.406L73.420 240.686C73.420 240.406 73.620 239.646 73.940 239.526C74.260 239.406 74.980 239.126 74.980 239.126ZM72.220 245.646C71.980 246.446 70.100 247.246 69.180 247.246C68.940 247.246 68.740 247.166 68.700 247.046C68.620 246.886 68.580 246.006 68.580 245.046C68.580 243.806 68.620 242.406 68.700 242.086C68.780 241.406 70.620 240.566 71.620 240.566C71.900 240.566 72.140 240.646 72.220 240.806C72.300 241.006 72.380 242.006 72.380 243.086C72.380 244.166 72.300 245.286 72.220 245.646Z"></path></g><path d="M97.820 258.806C96.620 258.806 95.220 259.126 94.140 259.606C90.580 261.166 88.700 265.446 88.700 269.246C88.700 269.606 88.700 269.966 88.740 270.326C88.940 272.486 89.980 274.526 91.300 276.126C92.820 277.966 95.020 278.806 97.420 278.806C104.420 278.806 105.460 272.446 105.460 271.286C105.460 270.406 105.020 270.406 104.860 270.406C104.540 270.406 104.260 270.446 104.260 271.126C104.260 276.286 99.860 277.486 98.580 277.486C95.340 277.486 93.620 274.326 93.620 267.726C93.620 261.126 96.660 259.766 98.820 259.766C100.900 259.766 101.740 260.726 101.740 261.126C101.740 261.486 101.620 262.006 101.020 262.006C99.420 262.006 98.500 263.726 98.500 264.966C98.500 267.246 100.460 267.966 101.580 267.966C101.580 267.966 104.620 267.846 104.620 264.526C104.620 259.286 98.580 258.806 97.820 258.806Z"></path></g><g><line stroke="black" stroke-width="1.6" x1="383.5555375448341" x2="383.5555375448341" y1="248.8461538461538" y2="288.8461538461538"></line></g><g><g><line stroke="#6A6A6A" stroke-width="1.3" x1="0" x2="672.4710750896681" y1="388.8461538461538" y2="388.8461538461538"></line><line stroke="#6A6A6A" stroke-width="1.3" x1="0" x2="672.4710750896681" y1="378.8461538461538" y2="378.8461538461538"></line><line stroke="#6A6A6A" stroke-width="1.3" x1="0" x2="672.4710750896681" y1="368.8461538461538" y2="368.8461538461538"></line><line stroke="#6A6A6A" stroke-width="1.3" x1="0" x2="672.4710750896681" y1="358.8461538461538" y2="358.8461538461538"></line><line stroke="#6A6A6A" stroke-width="1.3" x1="0" x2="672.4710750896681" y1="348.8461538461538" y2="348.8461538461538"></line></g><g><path d="M25.200 334.926C24.640 334.926 23.400 335.966 22.600 336.846C19.640 340.126 18.680 345.126 18.680 349.286C18.680 351.606 18.960 354.206 19.240 355.846C19.320 356.326 19.360 356.406 18.880 356.806C16.320 358.926 13.560 361.366 11.480 363.926C8.720 367.366 7 371.086 7 375.366C7 382.326 11.760 388.926 21.560 388.926C22.480 388.926 23.520 388.846 24.320 388.686C24.760 388.606 24.840 388.566 24.920 389.046C25.400 391.726 26 395.206 26 397.086C26 403.006 22 403.726 19.640 403.726C17.480 403.726 16.440 403.086 16.440 402.566C16.440 402.126 16.800 402.166 17.720 401.886C18.960 401.526 20.400 400.446 20.400 398.126C20.400 395.926 19 394.046 16.560 394.046C13.880 394.046 12.280 396.166 12.280 398.646C12.280 401.246 13.840 405.166 19.880 405.166C22.560 405.166 27.760 403.966 27.760 397.166C27.760 394.886 27.040 391.086 26.600 388.606C26.520 388.126 26.560 388.166 27.120 387.926C31.160 386.326 33.840 382.926 33.840 378.406C33.840 373.286 30.080 368.766 24.200 368.766C23.080 368.766 23.200 368.966 23.040 368.046L22.040 362.246C21.960 361.766 22.040 361.726 22.280 361.486C22.920 360.886 23.760 360.046 24.520 359.206C27.880 355.526 29.880 350.766 29.880 346.246C29.880 342.766 28.920 339.326 27.280 336.926C26.680 336.046 25.640 334.926 25.200 334.926ZM20.040 363.086C20.440 362.766 20.520 362.806 20.600 363.246L21.440 368.366C21.560 369.126 21.560 369.086 20.840 369.326C17.320 370.526 15.040 373.686 15.040 377.086C15.040 380.686 16.920 383.246 19.640 384.166C19.960 384.286 20.440 384.406 20.720 384.406C21.040 384.406 21.200 384.206 21.200 383.966C21.200 383.686 20.880 383.566 20.600 383.446C18.920 382.726 17.720 381.006 17.720 379.166C17.720 376.886 19.280 375.166 21.720 374.486C22.360 374.326 22.440 374.366 22.520 374.806L24.520 386.726C24.600 387.166 24.560 387.166 23.960 387.286C23.320 387.406 22.520 387.486 21.720 387.486C14.720 387.486 10.200 383.606 10.200 378.046C10.200 375.686 10.600 372.526 13.920 368.766C16.320 366.086 18.160 364.606 20.040 363.086ZM24.640 374.166C27.880 374.446 30.560 377.166 30.560 380.686C30.560 383.206 29.040 385.246 26.800 386.366C26.320 386.606 26.240 386.606 26.160 386.126L24.200 374.726C24.120 374.246 24.160 374.126 24.640 374.166ZM25.800 341.126C27.120 341.126 28.200 342.206 28.200 344.406C28.200 347.166 26.880 349.726 23.760 352.846C23.120 353.486 22.160 354.406 21.240 355.206C20.960 355.446 20.800 355.406 20.720 354.886C20.560 353.846 20.480 352.486 20.480 351.206C20.480 344.966 23.360 341.126 25.800 341.126Z"></path></g><g></g><path d="M57.820 358.806C56.620 358.806 55.220 359.126 54.140 359.606C50.580 361.166 48.700 365.446 48.700 369.246C48.700 369.606 48.700 369.966 48.740 370.326C48.940 372.486 49.980 374.526 51.300 376.126C52.820 377.966 55.020 378.806 57.420 378.806C64.420 378.806 65.460 372.446 65.460 371.286C65.460 370.406 65.020 370.406 64.860 370.406C64.540 370.406 64.260 370.446 64.260 371.126C64.260 376.286 59.860 377.486 58.580 377.486C55.340 377.486 53.620 374.326 53.620 367.726C53.620 361.126 56.660 359.766 58.820 359.766C60.900 359.766 61.740 360.726 61.740 361.126C61.740 361.486 61.620 362.006 61.020 362.006C59.420 362.006 58.500 363.726 58.500 364.966C58.500 367.246 60.460 367.966 61.580 367.966C61.580 367.966 64.620 367.846 64.620 364.526C64.620 359.286 58.580 358.806 57.820 358.806Z"></path></g><g><line stroke="black" stroke-width="1.6" x1="383.5555375448341" x2="383.5555375448341" y1="348.8461538461538" y2="388.8461538461538"></line></g><g><g><path d="M133.360 194.486C137.360 194.486 142.280 190.766 142.280 186.966C142.280 184.686 140.480 183.206 137.880 183.206C132.960 183.206 129 186.846 129 190.726C129 193.086 130.920 194.486 133.360 194.486Z"></path></g><line stroke="#000000" stroke-width="1.2" x1="141.68" x2="141.68" y1="187.0061538461538" y2="149.0061538461538"></line></g><g><g><path d="M194.609 189.486C198.609 189.486 203.529 185.766 203.529 181.966C203.529 179.686 201.729 178.206 199.129 178.206C194.209 178.206 190.249 181.846 190.249 185.726C190.249 188.086 192.169 189.486 194.609 189.486Z"></path></g><line stroke="#000000" stroke-width="1.2" x1="202.92888438620855" x2="202.92888438620855" y1="182.0061538461538" y2="147.0061538461538"></line></g><g><g><path d="M264.618 184.486C268.618 184.486 273.538 180.766 273.538 176.966C273.538 174.686 271.738 173.206 269.138 173.206C264.218 173.206 260.258 176.846 260.258 180.726C260.258 183.086 262.178 184.486 264.618 184.486Z"></path><path d="M257.738 174.126C258.018 174.006 258.218 173.686 258.218 173.446L258.218 170.606C258.218 170.406 258.098 170.286 257.938 170.286C257.858 170.286 257.818 170.286 257.738 170.326C257.738 170.326 256.938 170.646 256.738 170.686C256.458 170.686 256.178 170.486 256.178 170.166C256.178 169.766 256.178 165.286 256.178 165.286C256.178 165.046 255.938 164.846 255.618 164.846C255.218 164.846 254.978 165.046 254.978 165.286C254.978 165.286 254.978 170.086 254.978 170.486C254.938 170.886 254.818 171.406 254.458 171.646C253.978 171.926 252.618 172.486 251.938 172.646C251.578 172.646 251.458 172.166 251.458 171.846C251.458 171.446 251.458 167.046 251.458 167.046C251.458 166.806 251.178 166.606 250.898 166.606C250.498 166.606 250.258 166.806 250.258 167.046C250.258 167.046 250.258 169.206 250.258 170.806L250.258 172.446C250.258 173.006 250.018 173.406 249.778 173.526C249.538 173.646 248.738 173.966 248.738 173.966C248.458 174.046 248.258 174.366 248.258 174.606L248.258 177.446C248.258 177.686 248.378 177.806 248.578 177.806C248.618 177.806 248.698 177.766 248.738 177.766C248.738 177.766 249.338 177.526 249.618 177.366C249.658 177.366 249.698 177.326 249.738 177.326C250.018 177.326 250.258 177.726 250.258 178.046L250.258 182.006C250.258 182.446 250.058 182.806 249.818 182.926C249.578 183.006 248.738 183.366 248.738 183.366C248.458 183.446 248.258 183.766 248.258 184.006L248.258 186.846C248.258 187.086 248.378 187.206 248.578 187.206C248.618 187.206 248.698 187.166 248.738 187.166C248.738 187.166 249.298 186.926 249.658 186.806C249.698 186.766 249.738 186.766 249.778 186.766C250.058 186.766 250.258 187.206 250.258 187.406C250.258 187.646 250.258 192.326 250.258 192.326C250.258 192.566 250.498 192.766 250.778 192.766C251.178 192.766 251.458 192.566 251.458 192.326C251.458 192.326 251.458 187.246 251.458 186.766C251.458 186.246 251.658 185.966 251.858 185.886L254.298 184.886C254.338 184.886 254.418 184.846 254.458 184.846C254.778 184.846 254.978 185.326 254.978 185.566C254.978 185.846 254.978 190.566 254.978 190.566C254.978 190.806 255.218 191.006 255.498 191.006C255.938 191.006 256.178 190.806 256.178 190.566C256.178 190.566 256.178 185.166 256.178 184.886C256.178 184.566 256.338 184.086 256.618 183.966C256.898 183.846 257.738 183.526 257.738 183.526C258.018 183.406 258.218 183.086 258.218 182.846L258.218 180.006C258.218 179.806 258.098 179.686 257.938 179.686C257.858 179.686 257.818 179.686 257.738 179.726C257.738 179.726 256.898 180.046 256.698 180.126C256.458 180.126 256.178 179.886 256.178 179.406L256.178 175.686C256.178 175.406 256.378 174.646 256.698 174.526C257.018 174.406 257.738 174.126 257.738 174.126ZM254.978 180.646C254.738 181.446 252.858 182.246 251.938 182.246C251.698 182.246 251.498 182.166 251.458 182.046C251.378 181.886 251.338 181.006 251.338 180.046C251.338 178.806 251.378 177.406 251.458 177.086C251.538 176.406 253.378 175.566 254.378 175.566C254.658 175.566 254.898 175.646 254.978 175.806C255.058 176.006 255.138 177.006 255.138 178.086C255.138 179.166 255.058 180.286 254.978 180.646Z"></path></g><line stroke="#000000" stroke-width="1.2" x1="272.9377687724171" x2="272.9377687724171" y1="177.0061538461538" y2="139.0061538461538"></line></g><g><g><path d="M325.867 179.486C329.867 179.486 334.787 175.766 334.787 171.966C334.787 169.686 332.987 168.206 330.387 168.206C325.467 168.206 321.507 171.846 321.507 175.726C321.507 178.086 323.427 179.486 325.867 179.486Z"></path></g><line stroke="#000000" stroke-width="1.2" x1="334.1866531586256" x2="334.1866531586256" y1="172.0061538461538" y2="137.0061538461538"></line></g><g><g><path d="M133.360 279.486C137.360 279.486 142.280 275.766 142.280 271.966C142.280 269.686 140.480 268.206 137.880 268.206C132.960 268.206 129 271.846 129 275.726C129 278.086 130.920 279.486 133.360 279.486Z"></path></g><line stroke="#000000" stroke-width="1.2" x1="141.68" x2="141.68" y1="272.00615384615384" y2="234.00615384615384"></line></g><g><g><path d="M194.609 274.486C198.609 274.486 203.529 270.766 203.529 266.966C203.529 264.686 201.729 263.206 199.129 263.206C194.209 263.206 190.249 266.846 190.249 270.726C190.249 273.086 192.169 274.486 194.609 274.486Z"></path></g><line stroke="#000000" stroke-width="1.2" x1="202.92888438620855" x2="202.92888438620855" y1="267.00615384615384" y2="232.00615384615384"></line></g><g><g><path d="M264.618 269.486C268.618 269.486 273.538 265.766 273.538 261.966C273.538 259.686 271.738 258.206 269.138 258.206C264.218 258.206 260.258 261.846 260.258 265.726C260.258 268.086 262.178 269.486 264.618 269.486Z"></path><path d="M257.738 259.126C258.018 259.006 258.218 258.686 258.218 258.446L258.218 255.606C258.218 255.406 258.098 255.286 257.938 255.286C257.858 255.286 257.818 255.286 257.738 255.326C257.738 255.326 256.938 255.646 256.738 255.686C256.458 255.686 256.178 255.486 256.178 255.166C256.178 254.766 256.178 250.286 256.178 250.286C256.178 250.046 255.938 249.846 255.618 249.846C255.218 249.846 254.978 250.046 254.978 250.286C254.978 250.286 254.978 255.086 254.978 255.486C254.938 255.886 254.818 256.406 254.458 256.646C253.978 256.926 252.618 257.486 251.938 257.646C251.578 257.646 251.458 257.166 251.458 256.846C251.458 256.446 251.458 252.046 251.458 252.046C251.458 251.806 251.178 251.606 250.898 251.606C250.498 251.606 250.258 251.806 250.258 252.046C250.258 252.046 250.258 254.206 250.258 255.806L250.258 257.446C250.258 258.006 250.018 258.406 249.778 258.526C249.538 258.646 248.738 258.966 248.738 258.966C248.458 259.046 248.258 259.366 248.258 259.606L248.258 262.446C248.258 262.686 248.378 262.806 248.578 262.806C248.618 262.806 248.698 262.766 248.738 262.766C248.738 262.766 249.338 262.526 249.618 262.366C249.658 262.366 249.698 262.326 249.738 262.326C250.018 262.326 250.258 262.726 250.258 263.046L250.258 267.006C250.258 267.446 250.058 267.806 249.818 267.926C249.578 268.006 248.738 268.366 248.738 268.366C248.458 268.446 248.258 268.766 248.258 269.006L248.258 271.846C248.258 272.086 248.378 272.206 248.578 272.206C248.618 272.206 248.698 272.166 248.738 272.166C248.738 272.166 249.298 271.926 249.658 271.806C249.698 271.766 249.738 271.766 249.778 271.766C250.058 271.766 250.258 272.206 250.258 272.406C250.258 272.646 250.258 277.326 250.258 277.326C250.258 277.566 250.498 277.766 250.778 277.766C251.178 277.766 251.458 277.566 251.458 277.326C251.458 277.326 251.458 272.246 251.458 271.766C251.458 271.246 251.658 270.966 251.858 270.886L254.298 269.886C254.338 269.886 254.418 269.846 254.458 269.846C254.778 269.846 254.978 270.326 254.978 270.566C254.978 270.846 254.978 275.566 254.978 275.566C254.978 275.806 255.218 276.006 255.498 276.006C255.938 276.006 256.178 275.806 256.178 275.566C256.178 275.566 256.178 270.166 256.178 269.886C256.178 269.566 256.338 269.086 256.618 268.966C256.898 268.846 257.738 268.526 257.738 268.526C258.018 268.406 258.218 268.086 258.218 267.846L258.218 265.006C258.218 264.806 258.098 264.686 257.938 264.686C257.858 264.686 257.818 264.686 257.738 264.726C257.738 264.726 256.898 265.046 256.698 265.126C256.458 265.126 256.178 264.886 256.178 264.406L256.178 260.686C256.178 260.406 256.378 259.646 256.698 259.526C257.018 259.406 257.738 259.126 257.738 259.126ZM254.978 265.646C254.738 266.446 252.858 267.246 251.938 267.246C251.698 267.246 251.498 267.166 251.458 267.046C251.378 266.886 251.338 266.006 251.338 265.046C251.338 263.806 251.378 262.406 251.458 262.086C251.538 261.406 253.378 260.566 254.378 260.566C254.658 260.566 254.898 260.646 254.978 260.806C255.058 261.006 255.138 262.006 255.138 263.086C255.138 264.166 255.058 265.286 254.978 265.646Z"></path></g><line stroke="#000000" stroke-width="1.2" x1="260.8577687724171" x2="260.8577687724171" y1="265.6861538461538" y2="303.6861538461538"></line></g><g><g><path d="M325.867 264.486C329.867 264.486 334.787 260.766 334.787 256.966C334.787 254.686 332.987 253.206 330.387 253.206C325.467 253.206 321.507 256.846 321.507 260.726C321.507 263.086 323.427 264.486 325.867 264.486Z"></path></g><line stroke="#000000" stroke-width="1.2" x1="322.1066531586256" x2="322.1066531586256" y1="260.6861538461538" y2="295.6861538461538"></line></g><g><g><path d="M133.360 404.486C137.360 404.486 142.280 400.766 142.280 396.966C142.280 394.686 140.480 393.206 137.880 393.206C132.960 393.206 129 396.846 129 400.726C129 403.086 130.920 404.486 133.360 404.486Z"></path></g><line stroke="#000000" stroke-width="1.2" x1="141.68" x2="141.68" y1="397.00615384615384" y2="362.00615384615384"></line><line stroke="#000000" stroke-width="2.2" x1="125.8" x2="147.72" y1="398.8461538461538" y2="398.8461538461538"></line></g><g><g><path d="M194.609 399.486C198.609 399.486 203.529 395.766 203.529 391.966C203.529 389.686 201.729 388.206 199.129 388.206C194.209 388.206 190.249 391.846 190.249 395.726C190.249 398.086 192.169 399.486 194.609 399.486Z"></path></g><line stroke="#000000" stroke-width="1.2" x1="202.92888438620855" x2="202.92888438620855" y1="392.00615384615384" y2="354.00615384615384"></line></g><g><g><path d="M264.618 394.486C268.618 394.486 273.538 390.766 273.538 386.966C273.538 384.686 271.738 383.206 269.138 383.206C264.218 383.206 260.258 386.846 260.258 390.726C260.258 393.086 262.178 394.486 264.618 394.486Z"></path></g><line stroke="#000000" stroke-width="1.2" x1="272.9377687724171" x2="272.9377687724171" y1="387.00615384615384" y2="352.00615384615384"></line></g><g><g><path d="M325.867 389.486C329.867 389.486 334.787 385.766 334.787 381.966C334.787 379.686 332.987 378.206 330.387 378.206C325.467 378.206 321.507 381.846 321.507 385.726C321.507 388.086 323.427 389.486 325.867 389.486Z"></path></g><line stroke="#000000" stroke-width="1.2" x1="334.1866531586256" x2="334.1866531586256" y1="382.00615384615384" y2="344.00615384615384"></line></g></g><g transform="translate(493.201691390988)"><g></g><g><line stroke="#000000" stroke-width="1.6" x1="263.3155375448341" x2="263.3155375448341" y1="143.8461538461538" y2="183.8461538461538"></line><line stroke="#000000" stroke-width="5" x1="270.6155375448341" x2="270.6155375448341" y1="143.8461538461538" y2="183.8461538461538"></line></g><g></g><g><line stroke="#000000" stroke-width="1.6" x1="263.3155375448341" x2="263.3155375448341" y1="248.8461538461538" y2="288.8461538461538"></line><line stroke="#000000" stroke-width="5" x1="270.6155375448341" x2="270.6155375448341" y1="248.8461538461538" y2="288.8461538461538"></line></g><g></g><g><line stroke="#000000" stroke-width="1.6" x1="263.3155375448341" x2="263.3155375448341" y1="348.8461538461538" y2="388.8461538461538"></line><line stroke="#000000" stroke-width="5" x1="270.6155375448341" x2="270.6155375448341" y1="348.8461538461538" y2="388.8461538461538"></line></g><g><g><path d="M4.360 174.486C8.360 174.486 13.280 170.766 13.280 166.966C13.280 164.686 11.480 163.206 8.880 163.206C3.960 163.206 0 166.846 0 170.726C0 173.086 1.920 174.486 4.360 174.486Z"></path></g><line stroke="#000000" stroke-width="1.2" x1="12.680000000000001" x2="12.680000000000001" y1="167.0061538461538" y2="129.0061538461538"></line></g><g><g><path d="M74.369 169.486C78.369 169.486 83.289 165.766 83.289 161.966C83.289 159.686 81.489 158.206 78.889 158.206C73.969 158.206 70.009 161.846 70.009 165.726C70.009 168.086 71.929 169.486 74.369 169.486Z"></path></g><line stroke="#000000" stroke-width="1.2" x1="82.68888438620854" x2="82.68888438620854" y1="162.0061538461538" y2="127.00615384615381"></line></g><g><g><path d="M144.378 164.486C148.378 164.486 153.298 160.766 153.298 156.966C153.298 154.686 151.498 153.206 148.898 153.206C143.978 153.206 140.018 156.846 140.018 160.726C140.018 163.086 141.938 164.486 144.378 164.486Z"></path><path d="M137.498 154.126C137.778 154.006 137.978 153.686 137.978 153.446L137.978 150.606C137.978 150.406 137.858 150.286 137.698 150.286C137.618 150.286 137.578 150.286 137.498 150.326C137.498 150.326 136.698 150.646 136.498 150.686C136.218 150.686 135.938 150.486 135.938 150.166C135.938 149.766 135.938 145.286 135.938 145.286C135.938 145.046 135.698 144.846 135.378 144.846C134.978 144.846 134.738 145.046 134.738 145.286C134.738 145.286 134.738 150.086 134.738 150.486C134.698 150.886 134.578 151.406 134.218 151.646C133.738 151.926 132.378 152.486 131.698 152.646C131.338 152.646 131.218 152.166 131.218 151.846C131.218 151.446 131.218 147.046 131.218 147.046C131.218 146.806 130.938 146.606 130.658 146.606C130.258 146.606 130.018 146.806 130.018 147.046C130.018 147.046 130.018 149.206 130.018 150.806L130.018 152.446C130.018 153.006 129.778 153.406 129.538 153.526C129.298 153.646 128.498 153.966 128.498 153.966C128.218 154.046 128.018 154.366 128.018 154.606L128.018 157.446C128.018 157.686 128.138 157.806 128.338 157.806C128.378 157.806 128.458 157.766 128.498 157.766C128.498 157.766 129.098 157.526 129.378 157.366C129.418 157.366 129.458 157.326 129.498 157.326C129.778 157.326 130.018 157.726 130.018 158.046L130.018 162.006C130.018 162.446 129.818 162.806 129.578 162.926C129.338 163.006 128.498 163.366 128.498 163.366C128.218 163.446 128.018 163.766 128.018 164.006L128.018 166.846C128.018 167.086 128.138 167.206 128.338 167.206C128.378 167.206 128.458 167.166 128.498 167.166C128.498 167.166 129.058 166.926 129.418 166.806C129.458 166.766 129.498 166.766 129.538 166.766C129.818 166.766 130.018 167.206 130.018 167.406C130.018 167.646 130.018 172.326 130.018 172.326C130.018 172.566 130.258 172.766 130.538 172.766C130.938 172.766 131.218 172.566 131.218 172.326C131.218 172.326 131.218 167.246 131.218 166.766C131.218 166.246 131.418 165.966 131.618 165.886L134.058 164.886C134.098 164.886 134.178 164.846 134.218 164.846C134.538 164.846 134.738 165.326 134.738 165.566C134.738 165.846 134.738 170.566 134.738 170.566C134.738 170.806 134.978 171.006 135.258 171.006C135.698 171.006 135.938 170.806 135.938 170.566C135.938 170.566 135.938 165.166 135.938 164.886C135.938 164.566 136.098 164.086 136.378 163.966C136.658 163.846 137.498 163.526 137.498 163.526C137.778 163.406 137.978 163.086 137.978 162.846L137.978 160.006C137.978 159.806 137.858 159.686 137.698 159.686C137.618 159.686 137.578 159.686 137.498 159.726C137.498 159.726 136.658 160.046 136.458 160.126C136.218 160.126 135.938 159.886 135.938 159.406L135.938 155.686C135.938 155.406 136.138 154.646 136.458 154.526C136.778 154.406 137.498 154.126 137.498 154.126ZM134.738 160.646C134.498 161.446 132.618 162.246 131.698 162.246C131.458 162.246 131.258 162.166 131.218 162.046C131.138 161.886 131.098 161.006 131.098 160.046C131.098 158.806 131.138 157.406 131.218 157.086C131.298 156.406 133.138 155.566 134.138 155.566C134.418 155.566 134.658 155.646 134.738 155.806C134.818 156.006 134.898 157.006 134.898 158.086C134.898 159.166 134.818 160.286 134.738 160.646Z"></path></g><line stroke="#000000" stroke-width="1.2" x1="140.61776877241707" x2="140.61776877241707" y1="160.68615384615381" y2="198.68615384615381"></line></g><g><g><path d="M205.627 159.486C209.627 159.486 214.547 155.766 214.547 151.966C214.547 149.686 212.747 148.206 210.147 148.206C205.227 148.206 201.267 151.846 201.267 155.726C201.267 158.086 203.187 159.486 205.627 159.486Z"></path></g><line stroke="#000000" stroke-width="1.2" x1="201.86665315862555" x2="201.86665315862555" y1="155.68615384615381" y2="190.68615384615381"></line></g><g><g><path d="M4.360 259.486C8.360 259.486 13.280 255.766 13.280 251.966C13.280 249.686 11.480 248.206 8.880 248.206C3.960 248.206 0 251.846 0 255.726C0 258.086 1.920 259.486 4.360 259.486Z"></path></g><line stroke="#000000" stroke-width="1.2" x1="0.6" x2="0.6" y1="255.68615384615381" y2="293.68615384615384"></line></g><g><g><path d="M74.369 254.486C78.369 254.486 83.289 250.766 83.289 246.966C83.289 244.686 81.489 243.206 78.889 243.206C73.969 243.206 70.009 246.846 70.009 250.726C70.009 253.086 71.929 254.486 74.369 254.486Z"></path><path d="M67.489 244.126C67.769 244.006 67.969 243.686 67.969 243.446L67.969 240.606C67.969 240.406 67.849 240.286 67.689 240.286C67.609 240.286 67.569 240.286 67.489 240.326C67.489 240.326 66.689 240.646 66.489 240.686C66.209 240.686 65.929 240.486 65.929 240.166C65.929 239.766 65.929 235.286 65.929 235.286C65.929 235.046 65.689 234.846 65.369 234.846C64.969 234.846 64.729 235.046 64.729 235.286C64.729 235.286 64.729 240.086 64.729 240.486C64.689 240.886 64.569 241.406 64.209 241.646C63.729 241.926 62.369 242.486 61.689 242.646C61.329 242.646 61.209 242.166 61.209 241.846C61.209 241.446 61.209 237.046 61.209 237.046C61.209 236.806 60.929 236.606 60.649 236.606C60.249 236.606 60.009 236.806 60.009 237.046C60.009 237.046 60.009 239.206 60.009 240.806L60.009 242.446C60.009 243.006 59.769 243.406 59.529 243.526C59.289 243.646 58.489 243.966 58.489 243.966C58.209 244.046 58.009 244.366 58.009 244.606L58.009 247.446C58.009 247.686 58.129 247.806 58.329 247.806C58.369 247.806 58.449 247.766 58.489 247.766C58.489 247.766 59.089 247.526 59.369 247.366C59.409 247.366 59.449 247.326 59.489 247.326C59.769 247.326 60.009 247.726 60.009 248.046L60.009 252.006C60.009 252.446 59.809 252.806 59.569 252.926C59.329 253.006 58.489 253.366 58.489 253.366C58.209 253.446 58.009 253.766 58.009 254.006L58.009 256.846C58.009 257.086 58.129 257.206 58.329 257.206C58.369 257.206 58.449 257.166 58.489 257.166C58.489 257.166 59.049 256.926 59.409 256.806C59.449 256.766 59.489 256.766 59.529 256.766C59.809 256.766 60.009 257.206 60.009 257.406C60.009 257.646 60.009 262.326 60.009 262.326C60.009 262.566 60.249 262.766 60.529 262.766C60.929 262.766 61.209 262.566 61.209 262.326C61.209 262.326 61.209 257.246 61.209 256.766C61.209 256.246 61.409 255.966 61.609 255.886L64.049 254.886C64.089 254.886 64.169 254.846 64.209 254.846C64.529 254.846 64.729 255.326 64.729 255.566C64.729 255.846 64.729 260.566 64.729 260.566C64.729 260.806 64.969 261.006 65.249 261.006C65.689 261.006 65.929 260.806 65.929 260.566C65.929 260.566 65.929 255.166 65.929 254.886C65.929 254.566 66.089 254.086 66.369 253.966C66.649 253.846 67.489 253.526 67.489 253.526C67.769 253.406 67.969 253.086 67.969 252.846L67.969 250.006C67.969 249.806 67.849 249.686 67.689 249.686C67.609 249.686 67.569 249.686 67.489 249.726C67.489 249.726 66.649 250.046 66.449 250.126C66.209 250.126 65.929 249.886 65.929 249.406L65.929 245.686C65.929 245.406 66.129 244.646 66.449 244.526C66.769 244.406 67.489 244.126 67.489 244.126ZM64.729 250.646C64.489 251.446 62.609 252.246 61.689 252.246C61.449 252.246 61.249 252.166 61.209 252.046C61.129 251.886 61.089 251.006 61.089 250.046C61.089 248.806 61.129 247.406 61.209 247.086C61.289 246.406 63.129 245.566 64.129 245.566C64.409 245.566 64.649 245.646 64.729 245.806C64.809 246.006 64.889 247.006 64.889 248.086C64.889 249.166 64.809 250.286 64.729 250.646Z"></path></g><line stroke="#000000" stroke-width="1.2" x1="70.60888438620853" x2="70.60888438620853" y1="250.68615384615381" y2="285.68615384615384"></line></g><g><g><path d="M144.378 249.486C148.378 249.486 153.298 245.766 153.298 241.966C153.298 239.686 151.498 238.206 148.898 238.206C143.978 238.206 140.018 241.846 140.018 245.726C140.018 248.086 141.938 249.486 144.378 249.486Z"></path><path d="M137.498 239.126C137.778 239.006 137.978 238.686 137.978 238.446L137.978 235.606C137.978 235.406 137.858 235.286 137.698 235.286C137.618 235.286 137.578 235.286 137.498 235.326C137.498 235.326 136.698 235.646 136.498 235.686C136.218 235.686 135.938 235.486 135.938 235.166C135.938 234.766 135.938 230.286 135.938 230.286C135.938 230.046 135.698 229.846 135.378 229.846C134.978 229.846 134.738 230.046 134.738 230.286C134.738 230.286 134.738 235.086 134.738 235.486C134.698 235.886 134.578 236.406 134.218 236.646C133.738 236.926 132.378 237.486 131.698 237.646C131.338 237.646 131.218 237.166 131.218 236.846C131.218 236.446 131.218 232.046 131.218 232.046C131.218 231.806 130.938 231.606 130.658 231.606C130.258 231.606 130.018 231.806 130.018 232.046C130.018 232.046 130.018 234.206 130.018 235.806L130.018 237.446C130.018 238.006 129.778 238.406 129.538 238.526C129.298 238.646 128.498 238.966 128.498 238.966C128.218 239.046 128.018 239.366 128.018 239.606L128.018 242.446C128.018 242.686 128.138 242.806 128.338 242.806C128.378 242.806 128.458 242.766 128.498 242.766C128.498 242.766 129.098 242.526 129.378 242.366C129.418 242.366 129.458 242.326 129.498 242.326C129.778 242.326 130.018 242.726 130.018 243.046L130.018 247.006C130.018 247.446 129.818 247.806 129.578 247.926C129.338 248.006 128.498 248.366 128.498 248.366C128.218 248.446 128.018 248.766 128.018 249.006L128.018 251.846C128.018 252.086 128.138 252.206 128.338 252.206C128.378 252.206 128.458 252.166 128.498 252.166C128.498 252.166 129.058 251.926 129.418 251.806C129.458 251.766 129.498 251.766 129.538 251.766C129.818 251.766 130.018 252.206 130.018 252.406C130.018 252.646 130.018 257.326 130.018 257.326C130.018 257.566 130.258 257.766 130.538 257.766C130.938 257.766 131.218 257.566 131.218 257.326C131.218 257.326 131.218 252.246 131.218 251.766C131.218 251.246 131.418 250.966 131.618 250.886L134.058 249.886C134.098 249.886 134.178 249.846 134.218 249.846C134.538 249.846 134.738 250.326 134.738 250.566C134.738 250.846 134.738 255.566 134.738 255.566C134.738 255.806 134.978 256.006 135.258 256.006C135.698 256.006 135.938 255.806 135.938 255.566C135.938 255.566 135.938 250.166 135.938 249.886C135.938 249.566 136.098 249.086 136.378 248.966C136.658 248.846 137.498 248.526 137.498 248.526C137.778 248.406 137.978 248.086 137.978 247.846L137.978 245.006C137.978 244.806 137.858 244.686 137.698 244.686C137.618 244.686 137.578 244.686 137.498 244.726C137.498 244.726 136.658 245.046 136.458 245.126C136.218 245.126 135.938 244.886 135.938 244.406L135.938 240.686C135.938 240.406 136.138 239.646 136.458 239.526C136.778 239.406 137.498 239.126 137.498 239.126ZM134.738 245.646C134.498 246.446 132.618 247.246 131.698 247.246C131.458 247.246 131.258 247.166 131.218 247.046C131.138 246.886 131.098 246.006 131.098 245.046C131.098 243.806 131.138 242.406 131.218 242.086C131.298 241.406 133.138 240.566 134.138 240.566C134.418 240.566 134.658 240.646 134.738 240.806C134.818 241.006 134.898 242.006 134.898 243.086C134.898 244.166 134.818 245.286 134.738 245.646Z"></path></g><line stroke="#000000" stroke-width="1.2" x1="140.61776877241707" x2="140.61776877241707" y1="245.68615384615381" y2="283.68615384615384"></line></g><g><g><path d="M205.627 244.486C209.627 244.486 214.547 240.766 214.547 236.966C214.547 234.686 212.747 233.206 210.147 233.206C205.227 233.206 201.267 236.846 201.267 240.726C201.267 243.086 203.187 244.486 205.627 244.486Z"></path></g><line stroke="#000000" stroke-width="1.2" x1="201.86665315862555" x2="201.86665315862555" y1="240.68615384615381" y2="275.68615384615384"></line><line stroke="#000000" stroke-width="2.2" x1="198.06665315862557" x2="219.98665315862556" y1="238.8461538461538" y2="238.8461538461538"></line></g><g><g><path d="M4.360 384.486C8.360 384.486 13.280 380.766 13.280 376.966C13.280 374.686 11.480 373.206 8.880 373.206C3.960 373.206 0 376.846 0 380.726C0 383.086 1.920 384.486 4.360 384.486Z"></path></g><line stroke="#000000" stroke-width="1.2" x1="12.680000000000001" x2="12.680000000000001" y1="377.00615384615384" y2="342.00615384615384"></line></g><g><g><path d="M74.369 379.486C78.369 379.486 83.289 375.766 83.289 371.966C83.289 369.686 81.489 368.206 78.889 368.206C73.969 368.206 70.009 371.846 70.009 375.726C70.009 378.086 71.929 379.486 74.369 379.486Z"></path></g><line stroke="#000000" stroke-width="1.2" x1="82.68888438620854" x2="82.68888438620854" y1="372.00615384615384" y2="334.00615384615384"></line></g><g><g><path d="M144.378 374.486C148.378 374.486 153.298 370.766 153.298 366.966C153.298 364.686 151.498 363.206 148.898 363.206C143.978 363.206 140.018 366.846 140.018 370.726C140.018 373.086 141.938 374.486 144.378 374.486Z"></path></g><line stroke="#000000" stroke-width="1.2" x1="152.69776877241708" x2="152.69776877241708" y1="367.00615384615384" y2="332.00615384615384"></line></g><g><g><path d="M205.627 369.486C209.627 369.486 214.547 365.766 214.547 361.966C214.547 359.686 212.747 358.206 210.147 358.206C205.227 358.206 201.267 361.846 201.267 365.726C201.267 368.086 203.187 369.486 205.627 369.486Z"></path></g><line stroke="#000000" stroke-width="1.2" x1="201.86665315862555" x2="201.86665315862555" y1="365.6861538461538" y2="403.6861538461538"></line></g></g></svg>