<?xml version="1.0" encoding="UTF-8" standalone="no"?><svg xmlns="http://www.w3.org/2000/svg" height="279.4mm" viewBox="0 0 1328.6153846153845 1719.3846153846152" width="215.9mm"><g transform="translate(93.84615384615385)"><g><g><line stroke="#6A6A6A" stroke-width="1.3" x1="0" x2="543.1748078121778" y1="183.8461538461538" y2="183.8461538461538"></line><line stroke="#6A6A6A" stroke-width="1.3" x1="0" x2="543.1748078121778" y1="173.8461538461538" y2="173.8461538461538"></line><line stroke="#6A6A6A" stroke-width="1.3" x1="0" x2="543.1748078121778" y1="163.8461538461538" y2="163.8461538461538"></line><line stroke="#6A6A6A" stroke-width="1.3" x1="0" x2="543.1748078121778" y1="153.8461538461538" y2="153.8461538461538"></line><line stroke="#6A6A6A" stroke-width="1.3" x1="0" x2="543.1748078121778" y1="143.8461538461538" y2="143.8461538461538"></line></g><g><path d="M25.200 129.926C24.640 129.926 23.400 130.966 22.600 131.846C19.640 135.126 18.680 140.126 18.680 144.286C18.680 146.606 18.960 149.206 19.240 150.846C19.320 151.326 19.360 151.406 18.880 151.806C16.320 153.926 13.560 156.366 11.480 158.926C8.720 162.366 7 166.086 7 170.366C7 177.326 11.760 183.926 21.560 183.926C22.480 183.926 23.520 183.846 24.320 183.686C24.760 183.606 24.840 183.566 24.920 184.046C25.400 186.726 26 190.206 26 192.086C26 198.006 22 198.726 19.640 198.726C17.480 198.726 16.440 198.086 16.440 197.566C16.440 197.126 16.800 197.166 17.720 196.886C18.960 196.526 20.400 195.446 20.400 193.126C20.400 190.926 19 189.046 16.560 189.046C13.880 189.046 12.280 191.166 12.280 193.646C12.280 196.246 13.840 200.166 19.880 200.166C22.560 200.166 27.760 198.966 27.760 192.166C27.760 189.886 27.040 186.086 26.600 183.606C26.520 183.126 26.560 183.166 27.120 182.926C31.160 181.326 33.840 177.926 33.840 173.406C33.840 168.286 30.080 163.766 24.200 163.766C23.080 163.766 23.200 163.966 23.040 163.046L22.040 157.246C21.960 156.766 22.040 156.726 22.280 156.486C22.920 155.886 23.760 155.046 24.520 154.206C27.880 150.526 29.880 145.766 29.880 141.246C29.880 137.766 28.920 134.326 27.280 131.926C26.680 131.046 25.640 129.926 25.200 129.926ZM20.040 158.086C20.440 157.766 20.520 157.806 20.600 158.246L21.440 163.366C21.560 164.126 21.560 164.086 20.840 164.326C17.320 165.526 15.040 168.686 15.040 172.086C15.040 175.686 16.920 178.246 19.640 179.166C19.960 179.286 20.440 179.406 20.720 179.406C21.040 179.406 21.200 179.206 21.200 178.966C21.200 178.686 20.880 178.566 20.600 178.446C18.920 177.726 17.720 176.006 17.720 174.166C17.720 171.886 19.280 170.166 21.720 169.486C22.360 169.326 22.440 169.366 22.520 169.806L24.520 181.726C24.600 182.166 24.560 182.166 23.960 182.286C23.320 182.406 22.520 182.486 21.720 182.486C14.720 182.486 10.200 178.606 10.200 173.046C10.200 170.686 10.600 167.526 13.920 163.766C16.320 161.086 18.160 159.606 20.040 158.086ZM24.640 169.166C27.880 169.446 30.560 172.166 30.560 175.686C30.560 178.206 29.040 180.246 26.800 181.366C26.320 181.606 26.240 181.606 26.160 181.126L24.200 169.726C24.120 169.246 24.160 169.126 24.640 169.166ZM25.800 136.126C27.120 136.126 28.200 137.206 28.200 139.406C28.200 142.166 26.880 144.726 23.760 147.846C23.120 148.486 22.160 149.406 21.240 150.206C20.960 150.446 20.800 150.406 20.720 149.886C20.560 148.846 20.480 147.486 20.480 146.206C20.480 139.966 23.360 136.126 25.800 136.126Z"></path></g><g><path d="M52.980 139.126C53.260 139.006 53.460 138.686 53.460 138.446L53.460 135.606C53.460 135.406 53.340 135.286 53.180 135.286C53.100 135.286 53.060 135.286 52.980 135.326C52.980 135.326 52.180 135.646 51.980 135.686C51.700 135.686 51.420 135.486 51.420 135.166C51.420 134.766 51.420 130.286 51.420 130.286C51.420 130.046 51.180 129.846 50.860 129.846C50.460 129.846 50.220 130.046 50.220 130.286C50.220 130.286 50.220 135.086 50.220 135.486C50.180 135.886 50.060 136.406 49.700 136.646C49.220 136.926 47.860 137.486 47.180 137.646C46.820 137.646 46.700 137.166 46.700 136.846C46.700 136.446 46.700 132.046 46.700 132.046C46.700 131.806 46.420 131.606 46.140 131.606C45.740 131.606 45.500 131.806 45.500 132.046C45.500 132.046 45.500 134.206 45.500 135.806L45.500 137.446C45.500 138.006 45.260 138.406 45.020 138.526C44.780 138.646 43.980 138.966 43.980 138.966C43.700 139.046 43.500 139.366 43.500 139.606L43.500 142.446C43.500 142.686 43.620 142.806 43.820 142.806C43.860 142.806 43.940 142.766 43.980 142.766C43.980 142.766 44.580 142.526 44.860 142.366C44.900 142.366 44.940 142.326 44.980 142.326C45.260 142.326 45.500 142.726 45.500 143.046L45.500 147.006C45.500 147.446 45.300 147.806 45.060 147.926C44.820 148.006 43.980 148.366 43.980 148.366C43.700 148.446 43.500 148.766 43.500 149.006L43.500 151.846C43.500 152.086 43.620 152.206 43.820 152.206C43.860 152.206 43.940 152.166 43.980 152.166C43.980 152.166 44.540 151.926 44.900 151.806C44.940 151.766 44.980 151.766 45.020 151.766C45.300 151.766 45.500 152.206 45.500 152.406C45.500 152.646 45.500 157.326 45.500 157.326C45.500 157.566 45.740 157.766 46.020 157.766C46.420 157.766 46.700 157.566 46.700 157.326C46.700 157.326 46.700 152.246 46.700 151.766C46.700 151.246 46.900 150.966 47.100 150.886L49.540 149.886C49.580 149.886 49.660 149.846 49.700 149.846C50.020 149.846 50.220 150.326 50.220 150.566C50.220 150.846 50.220 155.566 50.220 155.566C50.220 155.806 50.460 156.006 50.740 156.006C51.180 156.006 51.420 155.806 51.420 155.566C51.420 155.566 51.420 150.166 51.420 149.886C51.420 149.566 51.580 149.086 51.860 148.966C52.140 148.846 52.980 148.526 52.980 148.526C53.260 148.406 53.460 148.086 53.460 147.846L53.460 145.006C53.460 144.806 53.340 144.686 53.180 144.686C53.100 144.686 53.060 144.686 52.980 144.726C52.980 144.726 52.140 145.046 51.940 145.126C51.700 145.126 51.420 144.886 51.420 144.406L51.420 140.686C51.420 140.406 51.620 139.646 51.940 139.526C52.260 139.406 52.980 139.126 52.980 139.126ZM50.220 145.646C49.980 146.446 48.100 147.246 47.180 147.246C46.940 147.246 46.740 147.166 46.700 147.046C46.620 146.886 46.580 146.006 46.580 145.046C46.580 143.806 46.620 142.406 46.700 142.086C46.780 141.406 48.620 140.566 49.620 140.566C49.900 140.566 50.140 140.646 50.220 140.806C50.300 141.006 50.380 142.006 50.380 143.086C50.380 144.166 50.300 145.286 50.220 145.646Z"></path></g><path d="M75.820 153.806C74.620 153.806 73.220 154.126 72.140 154.606C68.580 156.166 66.700 160.446 66.700 164.246C66.700 164.606 66.700 164.966 66.740 165.326C66.940 167.486 67.980 169.526 69.300 171.126C70.820 172.966 73.020 173.806 75.420 173.806C82.420 173.806 83.460 167.446 83.460 166.286C83.460 165.406 83.020 165.406 82.860 165.406C82.540 165.406 82.260 165.446 82.260 166.126C82.260 171.286 77.860 172.486 76.580 172.486C73.340 172.486 71.620 169.326 71.620 162.726C71.620 156.126 74.660 154.766 76.820 154.766C78.900 154.766 79.740 155.726 79.740 156.126C79.740 156.486 79.620 157.006 79.020 157.006C77.420 157.006 76.500 158.726 76.500 159.966C76.500 162.246 78.460 162.966 79.580 162.966C79.580 162.966 82.620 162.846 82.620 159.526C82.620 154.286 76.580 153.806 75.820 153.806Z"></path></g><g><line stroke="black" stroke-width="1.6" x1="236.92493593739266" x2="236.92493593739266" y1="143.8461538461538" y2="183.8461538461538"></line></g><g><g><path d="M116.400 188.366C110.600 188.366 107 190.806 107 193.766C107 196.686 109.480 199.286 115.960 199.286C123.080 199.286 125.360 196.806 125.360 193.766C125.360 190.686 120.440 188.366 116.400 188.366ZM111.840 191.086C112.320 189.606 113.920 189.366 115.280 189.366C118.240 189.366 120.640 192.566 120.640 195.206C120.640 195.486 120.600 195.766 120.560 196.006C120.360 197.086 119.720 197.846 118.640 198.126C118.200 198.246 117.760 198.286 117.320 198.286C116.920 198.286 116.560 198.246 116.160 198.126C115.440 197.886 114.720 197.486 114.120 196.966C113.800 196.686 113.480 196.366 113.200 196.006C112.360 195.006 111.680 193.526 111.680 192.166C111.680 191.806 111.720 191.446 111.840 191.086Z"></path></g><line stroke="#000000" stroke-width="2.2" x1="103.8" x2="130.60000000000002" y1="193.8461538461538" y2="193.8461538461538"></line></g></g><g transform="translate(346.5710897835465)"><g><g></g></g><g><line stroke="black" stroke-width="1.6" x1="134.92493593739266" x2="134.92493593739266" y1="143.8461538461538" y2="183.8461538461538"></line></g><g><g><path d="M14.400 188.366C8.600 188.366 5 190.806 5 193.766C5 196.686 7.480 199.286 13.960 199.286C21.080 199.286 23.360 196.806 23.360 193.766C23.360 190.686 18.440 188.366 14.400 188.366ZM9.840 191.086C10.320 189.606 11.920 189.366 13.280 189.366C16.240 189.366 18.640 192.566 18.640 195.206C18.640 195.486 18.600 195.766 18.560 196.006C18.360 197.086 17.720 197.846 16.640 198.126C16.200 198.246 15.760 198.286 15.320 198.286C14.920 198.286 14.560 198.246 14.160 198.126C13.440 197.886 12.720 197.486 12.120 196.966C11.800 196.686 11.480 196.366 11.200 196.006C10.360 195.006 9.680 193.526 9.680 192.166C9.680 191.806 9.720 191.446 9.840 191.086Z"></path></g><line stroke="#000000" stroke-width="2.2" x1="1.7999999999999998" x2="28.599999999999998" y1="193.8461538461538" y2="193.8461538461538"></line></g></g><g transform="translate(497.29602572093916)"><g></g><g><line stroke="#000000" stroke-width="1.6" x1="129.92493593739266" x2="129.92493593739266" y1="143.8461538461538" y2="183.8461538461538"></line><line stroke="#000000" stroke-width="5" x1="137.22493593739264" x2="137.22493593739264" y1="143.8461538461538" y2="183.8461538461538"></line></g><g><g><path d="M9.400 188.366C3.600 188.366 0 190.806 0 193.766C0 196.686 2.480 199.286 8.960 199.286C16.080 199.286 18.360 196.806 18.360 193.766C18.360 190.686 13.440 188.366 9.400 188.366ZM4.840 191.086C5.320 189.606 6.920 189.366 8.280 189.366C11.240 189.366 13.640 192.566 13.640 195.206C13.640 195.486 13.600 195.766 13.560 196.006C13.360 197.086 12.720 197.846 11.640 198.126C11.200 198.246 10.760 198.286 10.320 198.286C9.920 198.286 9.560 198.246 9.160 198.126C8.440 197.886 7.720 197.486 7.120 196.966C6.800 196.686 6.480 196.366 6.200 196.006C5.360 195.006 4.680 193.526 4.680 192.166C4.680 191.806 4.720 191.446 4.840 191.086Z"></path></g><line stroke="#000000" stroke-width="2.2" x1="-3.2" x2="23.599999999999998" y1="193.8461538461538" y2="193.8461538461538"></line></g></g></svg>