<?xml version="1.0" encoding="UTF-8" standalone="no"?><svg xmlns="http://www.w3.org/2000/svg" class="" height="279.4mm" viewBox="0 0 1328.6153846153845 1719.3846153846152" width="215.9mm"><g><g><g><line stroke="#6A6A6A" stroke-width="1.3" x1="93.84615384615385" x2="607.2874035916375" y1="183.8461538461538" y2="183.8461538461538"></line><line stroke="#6A6A6A" stroke-width="1.3" x1="93.84615384615385" x2="607.2874035916375" y1="173.8461538461538" y2="173.8461538461538"></line><line stroke="#6A6A6A" stroke-width="1.3" x1="93.84615384615385" x2="607.2874035916375" y1="163.8461538461538" y2="163.8461538461538"></line><line stroke="#6A6A6A" stroke-width="1.3" x1="93.84615384615385" x2="607.2874035916375" y1="153.8461538461538" y2="153.8461538461538"></line><line stroke="#6A6A6A" stroke-width="1.3" x1="93.84615384615385" x2="607.2874035916375" y1="143.8461538461538" y2="143.8461538461538"></line></g><g><path d="M119.046 129.926C118.486 129.926 117.246 130.966 116.446 131.846C113.486 135.126 112.526 140.126 112.526 144.286C112.526 146.606 112.806 149.206 113.086 150.846C113.166 151.326 113.206 151.406 112.726 151.806C110.166 153.926 107.406 156.366 105.326 158.926C102.566 162.366 100.846 166.086 100.846 170.366C100.846 177.326 105.606 183.926 115.406 183.926C116.326 183.926 117.366 183.846 118.166 183.686C118.606 183.606 118.686 183.566 118.766 184.046C119.246 186.726 119.846 190.206 119.846 192.086C119.846 198.006 115.846 198.726 113.486 198.726C111.326 198.726 110.286 198.086 110.286 197.566C110.286 197.126 110.646 197.166 111.566 196.886C112.806 196.526 114.246 195.446 114.246 193.126C114.246 190.926 112.846 189.046 110.406 189.046C107.726 189.046 106.126 191.166 106.126 193.646C106.126 196.246 107.686 200.166 113.726 200.166C116.406 200.166 121.606 198.966 121.606 192.166C121.606 189.886 120.886 186.086 120.446 183.606C120.366 183.126 120.406 183.166 120.966 182.926C125.006 181.326 127.686 177.926 127.686 173.406C127.686 168.286 123.926 163.766 118.046 163.766C116.926 163.766 117.046 163.966 116.886 163.046L115.886 157.246C115.806 156.766 115.886 156.726 116.126 156.486C116.766 155.886 117.606 155.046 118.366 154.206C121.726 150.526 123.726 145.766 123.726 141.246C123.726 137.766 122.766 134.326 121.126 131.926C120.526 131.046 119.486 129.926 119.046 129.926ZM113.886 158.086C114.286 157.766 114.366 157.806 114.446 158.246L115.286 163.366C115.406 164.126 115.406 164.086 114.686 164.326C111.166 165.526 108.886 168.686 108.886 172.086C108.886 175.686 110.766 178.246 113.486 179.166C113.806 179.286 114.286 179.406 114.566 179.406C114.886 179.406 115.046 179.206 115.046 178.966C115.046 178.686 114.726 178.566 114.446 178.446C112.766 177.726 111.566 176.006 111.566 174.166C111.566 171.886 113.126 170.166 115.566 169.486C116.206 169.326 116.286 169.366 116.366 169.806L118.366 181.726C118.446 182.166 118.406 182.166 117.806 182.286C117.166 182.406 116.366 182.486 115.566 182.486C108.566 182.486 104.046 178.606 104.046 173.046C104.046 170.686 104.446 167.526 107.766 163.766C110.166 161.086 112.006 159.606 113.886 158.086ZM118.486 169.166C121.726 169.446 124.406 172.166 124.406 175.686C124.406 178.206 122.886 180.246 120.646 181.366C120.166 181.606 120.086 181.606 120.006 181.126L118.046 169.726C117.966 169.246 118.006 169.126 118.486 169.166ZM119.646 136.126C120.966 136.126 122.046 137.206 122.046 139.406C122.046 142.166 120.726 144.726 117.606 147.846C116.966 148.486 116.006 149.406 115.086 150.206C114.806 150.446 114.646 150.406 114.566 149.886C114.406 148.846 114.326 147.486 114.326 146.206C114.326 139.966 117.206 136.126 119.646 136.126Z"></path></g><g></g><path d="M151.666 153.806C150.466 153.806 149.066 154.126 147.986 154.606C144.426 156.166 142.546 160.446 142.546 164.246C142.546 164.606 142.546 164.966 142.586 165.326C142.786 167.486 143.826 169.526 145.146 171.126C146.666 172.966 148.866 173.806 151.266 173.806C158.266 173.806 159.306 167.446 159.306 166.286C159.306 165.406 158.866 165.406 158.706 165.406C158.386 165.406 158.106 165.446 158.106 166.126C158.106 171.286 153.706 172.486 152.426 172.486C149.186 172.486 147.466 169.326 147.466 162.726C147.466 156.126 150.506 154.766 152.666 154.766C154.746 154.766 155.586 155.726 155.586 156.126C155.586 156.486 155.466 157.006 154.866 157.006C153.266 157.006 152.346 158.726 152.346 159.966C152.346 162.246 154.306 162.966 155.426 162.966C155.426 162.966 158.466 162.846 158.466 159.526C158.466 154.286 152.426 153.806 151.666 153.806Z"></path></g><g><line stroke="black" stroke-width="1.6" x1="310.52657042798177" x2="310.52657042798177" y1="143.8461538461538" y2="183.8461538461538"></line></g><g><g><line stroke="#6A6A6A" stroke-width="1.3" x1="93.84615384615385" x2="607.2874035916375" y1="283.8461538461538" y2="283.8461538461538"></line><line stroke="#6A6A6A" stroke-width="1.3" x1="93.84615384615385" x2="607.2874035916375" y1="273.8461538461538" y2="273.8461538461538"></line><line stroke="#6A6A6A" stroke-width="1.3" x1="93.84615384615385" x2="607.2874035916375" y1="263.8461538461538" y2="263.8461538461538"></line><line stroke="#6A6A6A" stroke-width="1.3" x1="93.84615384615385" x2="607.2874035916375" y1="253.8461538461538" y2="253.8461538461538"></line><line stroke="#6A6A6A" stroke-width="1.3" x1="93.84615384615385" x2="607.2874035916375" y1="243.8461538461538" y2="243.8461538461538"></line></g><g><path d="M119.046 229.926C118.486 229.926 117.246 230.966 116.446 231.846C113.486 235.126 112.526 240.126 112.526 244.286C112.526 246.606 112.806 249.206 113.086 250.846C113.166 251.326 113.206 251.406 112.726 251.806C110.166 253.926 107.406 256.366 105.326 258.926C102.566 262.366 100.846 266.086 100.846 270.366C100.846 277.326 105.606 283.926 115.406 283.926C116.326 283.926 117.366 283.846 118.166 283.686C118.606 283.606 118.686 283.566 118.766 284.046C119.246 286.726 119.846 290.206 119.846 292.086C119.846 298.006 115.846 298.726 113.486 298.726C111.326 298.726 110.286 298.086 110.286 297.566C110.286 297.126 110.646 297.166 111.566 296.886C112.806 296.526 114.246 295.446 114.246 293.126C114.246 290.926 112.846 289.046 110.406 289.046C107.726 289.046 106.126 291.166 106.126 293.646C106.126 296.246 107.686 300.166 113.726 300.166C116.406 300.166 121.606 298.966 121.606 292.166C121.606 289.886 120.886 286.086 120.446 283.606C120.366 283.126 120.406 283.166 120.966 282.926C125.006 281.326 127.686 277.926 127.686 273.406C127.686 268.286 123.926 263.766 118.046 263.766C116.926 263.766 117.046 263.966 116.886 263.046L115.886 257.246C115.806 256.766 115.886 256.726 116.126 256.486C116.766 255.886 117.606 255.046 118.366 254.206C121.726 250.526 123.726 245.766 123.726 241.246C123.726 237.766 122.766 234.326 121.126 231.926C120.526 231.046 119.486 229.926 119.046 229.926ZM113.886 258.086C114.286 257.766 114.366 257.806 114.446 258.246L115.286 263.366C115.406 264.126 115.406 264.086 114.686 264.326C111.166 265.526 108.886 268.686 108.886 272.086C108.886 275.686 110.766 278.246 113.486 279.166C113.806 279.286 114.286 279.406 114.566 279.406C114.886 279.406 115.046 279.206 115.046 278.966C115.046 278.686 114.726 278.566 114.446 278.446C112.766 277.726 111.566 276.006 111.566 274.166C111.566 271.886 113.126 270.166 115.566 269.486C116.206 269.326 116.286 269.366 116.366 269.806L118.366 281.726C118.446 282.166 118.406 282.166 117.806 282.286C117.166 282.406 116.366 282.486 115.566 282.486C108.566 282.486 104.046 278.606 104.046 273.046C104.046 270.686 104.446 267.526 107.766 263.766C110.166 261.086 112.006 259.606 113.886 258.086ZM118.486 269.166C121.726 269.446 124.406 272.166 124.406 275.686C124.406 278.206 122.886 280.246 120.646 281.366C120.166 281.606 120.086 281.606 120.006 281.126L118.046 269.726C117.966 269.246 118.006 269.126 118.486 269.166ZM119.646 236.126C120.966 236.126 122.046 237.206 122.046 239.406C122.046 242.166 120.726 244.726 117.606 247.846C116.966 248.486 116.006 249.406 115.086 250.206C114.806 250.446 114.646 250.406 114.566 249.886C114.406 248.846 114.326 247.486 114.326 246.206C114.326 239.966 117.206 236.126 119.646 236.126Z"></path></g><g></g><path d="M151.666 253.806C150.466 253.806 149.066 254.126 147.986 254.606C144.426 256.166 142.546 260.446 142.546 264.246C142.546 264.606 142.546 264.966 142.586 265.326C142.786 267.486 143.826 269.526 145.146 271.126C146.666 272.966 148.866 273.806 151.266 273.806C158.266 273.806 159.306 267.446 159.306 266.286C159.306 265.406 158.866 265.406 158.706 265.406C158.386 265.406 158.106 265.446 158.106 266.126C158.106 271.286 153.706 272.486 152.426 272.486C149.186 272.486 147.466 269.326 147.466 262.726C147.466 256.126 150.506 254.766 152.666 254.766C154.746 254.766 155.586 255.726 155.586 256.126C155.586 256.486 155.466 257.006 154.866 257.006C153.266 257.006 152.346 258.726 152.346 259.966C152.346 262.246 154.306 262.966 155.426 262.966C155.426 262.966 158.466 262.846 158.466 259.526C158.466 254.286 152.426 253.806 151.666 253.806Z"></path><g><line stroke="#000000" stroke-width="5" x1="86.34615384615385" x2="86.34615384615385" y1="138.3461538461538" y2="589.3461538461538"></line><path d="M83.846 141.346L88.846 141.346C95.246 140.146 100.966 137.186 102.566 130.506C102.606 130.346 102.606 130.226 102.606 130.106C102.606 129.786 102.486 129.626 102.286 129.546C101.926 129.546 101.486 129.826 101.286 130.106C100.886 130.546 95.846 135.826 88.206 136.386L84.166 136.386C83.926 136.386 83.846 136.426 83.846 136.666Z"></path><path d="M83.846 591.026C83.846 591.266 83.926 591.306 84.166 591.306L88.206 591.306C95.846 591.866 100.886 597.146 101.286 597.586C101.486 597.866 101.926 598.146 102.286 598.146C102.486 598.066 102.606 597.906 102.606 597.586C102.606 597.466 102.606 597.346 102.566 597.186C100.966 590.506 95.246 587.546 88.846 586.346L83.846 586.346Z"></path><line stroke="#000000" stroke-width="1.6" x1="93.84615384615385" x2="93.84615384615385" y1="143.3461538461538" y2="584.3461538461538"></line></g></g><g><line stroke="black" stroke-width="1.6" x1="310.52657042798177" x2="310.52657042798177" y1="143.3461538461538" y2="584.3461538461538"></line></g><g><g><line stroke="#6A6A6A" stroke-width="1.3" x1="93.84615384615385" x2="607.2874035916375" y1="383.8461538461538" y2="383.8461538461538"></line><line stroke="#6A6A6A" stroke-width="1.3" x1="93.84615384615385" x2="607.2874035916375" y1="373.8461538461538" y2="373.8461538461538"></line><line stroke="#6A6A6A" stroke-width="1.3" x1="93.84615384615385" x2="607.2874035916375" y1="363.8461538461538" y2="363.8461538461538"></line><line stroke="#6A6A6A" stroke-width="1.3" x1="93.84615384615385" x2="607.2874035916375" y1="353.8461538461538" y2="353.8461538461538"></line><line stroke="#6A6A6A" stroke-width="1.3" x1="93.84615384615385" x2="607.2874035916375" y1="343.8461538461538" y2="343.8461538461538"></line></g><g><path d="M119.046 329.926C118.486 329.926 117.246 330.966 116.446 331.846C113.486 335.126 112.526 340.126 112.526 344.286C112.526 346.606 112.806 349.206 113.086 350.846C113.166 351.326 113.206 351.406 112.726 351.806C110.166 353.926 107.406 356.366 105.326 358.926C102.566 362.366 100.846 366.086 100.846 370.366C100.846 377.326 105.606 383.926 115.406 383.926C116.326 383.926 117.366 383.846 118.166 383.686C118.606 383.606 118.686 383.566 118.766 384.046C119.246 386.726 119.846 390.206 119.846 392.086C119.846 398.006 115.846 398.726 113.486 398.726C111.326 398.726 110.286 398.086 110.286 397.566C110.286 397.126 110.646 397.166 111.566 396.886C112.806 396.526 114.246 395.446 114.246 393.126C114.246 390.926 112.846 389.046 110.406 389.046C107.726 389.046 106.126 391.166 106.126 393.646C106.126 396.246 107.686 400.166 113.726 400.166C116.406 400.166 121.606 398.966 121.606 392.166C121.606 389.886 120.886 386.086 120.446 383.606C120.366 383.126 120.406 383.166 120.966 382.926C125.006 381.326 127.686 377.926 127.686 373.406C127.686 368.286 123.926 363.766 118.046 363.766C116.926 363.766 117.046 363.966 116.886 363.046L115.886 357.246C115.806 356.766 115.886 356.726 116.126 356.486C116.766 355.886 117.606 355.046 118.366 354.206C121.726 350.526 123.726 345.766 123.726 341.246C123.726 337.766 122.766 334.326 121.126 331.926C120.526 331.046 119.486 329.926 119.046 329.926ZM113.886 358.086C114.286 357.766 114.366 357.806 114.446 358.246L115.286 363.366C115.406 364.126 115.406 364.086 114.686 364.326C111.166 365.526 108.886 368.686 108.886 372.086C108.886 375.686 110.766 378.246 113.486 379.166C113.806 379.286 114.286 379.406 114.566 379.406C114.886 379.406 115.046 379.206 115.046 378.966C115.046 378.686 114.726 378.566 114.446 378.446C112.766 377.726 111.566 376.006 111.566 374.166C111.566 371.886 113.126 370.166 115.566 369.486C116.206 369.326 116.286 369.366 116.366 369.806L118.366 381.726C118.446 382.166 118.406 382.166 117.806 382.286C117.166 382.406 116.366 382.486 115.566 382.486C108.566 382.486 104.046 378.606 104.046 373.046C104.046 370.686 104.446 367.526 107.766 363.766C110.166 361.086 112.006 359.606 113.886 358.086ZM118.486 369.166C121.726 369.446 124.406 372.166 124.406 375.686C124.406 378.206 122.886 380.246 120.646 381.366C120.166 381.606 120.086 381.606 120.006 381.126L118.046 369.726C117.966 369.246 118.006 369.126 118.486 369.166ZM119.646 336.126C120.966 336.126 122.046 337.206 122.046 339.406C122.046 342.166 120.726 344.726 117.606 347.846C116.966 348.486 116.006 349.406 115.086 350.206C114.806 350.446 114.646 350.406 114.566 349.886C114.406 348.846 114.326 347.486 114.326 346.206C114.326 339.966 117.206 336.126 119.646 336.126Z"></path></g><g></g><path d="M151.666 353.806C150.466 353.806 149.066 354.126 147.986 354.606C144.426 356.166 142.546 360.446 142.546 364.246C142.546 364.606 142.546 364.966 142.586 365.326C142.786 367.486 143.826 369.526 145.146 371.126C146.666 372.966 148.866 373.806 151.266 373.806C158.266 373.806 159.306 367.446 159.306 366.286C159.306 365.406 158.866 365.406 158.706 365.406C158.386 365.406 158.106 365.446 158.106 366.126C158.106 371.286 153.706 372.486 152.426 372.486C149.186 372.486 147.466 369.326 147.466 362.726C147.466 356.126 150.506 354.766 152.666 354.766C154.746 354.766 155.586 355.726 155.586 356.126C155.586 356.486 155.466 357.006 154.866 357.006C153.266 357.006 152.346 358.726 152.346 359.966C152.346 362.246 154.306 362.966 155.426 362.966C155.426 362.966 158.466 362.846 158.466 359.526C158.466 354.286 152.426 353.806 151.666 353.806Z"></path><g><line stroke="#000000" stroke-width="5" x1="86.34615384615385" x2="86.34615384615385" y1="138.3461538461538" y2="589.3461538461538"></line><path d="M83.846 141.346L88.846 141.346C95.246 140.146 100.966 137.186 102.566 130.506C102.606 130.346 102.606 130.226 102.606 130.106C102.606 129.786 102.486 129.626 102.286 129.546C101.926 129.546 101.486 129.826 101.286 130.106C100.886 130.546 95.846 135.826 88.206 136.386L84.166 136.386C83.926 136.386 83.846 136.426 83.846 136.666Z"></path><path d="M83.846 591.026C83.846 591.266 83.926 591.306 84.166 591.306L88.206 591.306C95.846 591.866 100.886 597.146 101.286 597.586C101.486 597.866 101.926 598.146 102.286 598.146C102.486 598.066 102.606 597.906 102.606 597.586C102.606 597.466 102.606 597.346 102.566 597.186C100.966 590.506 95.246 587.546 88.846 586.346L83.846 586.346Z"></path><line stroke="#000000" stroke-width="1.6" x1="93.84615384615385" x2="93.84615384615385" y1="143.3461538461538" y2="584.3461538461538"></line></g></g><g><line stroke="black" stroke-width="1.6" x1="310.52657042798177" x2="310.52657042798177" y1="143.3461538461538" y2="584.3461538461538"></line></g><g><g><line stroke="#6A6A6A" stroke-width="1.3" x1="93.84615384615385" x2="607.2874035916375" y1="483.8461538461538" y2="483.8461538461538"></line><line stroke="#6A6A6A" stroke-width="1.3" x1="93.84615384615385" x2="607.2874035916375" y1="473.8461538461538" y2="473.8461538461538"></line><line stroke="#6A6A6A" stroke-width="1.3" x1="93.84615384615385" x2="607.2874035916375" y1="463.8461538461538" y2="463.8461538461538"></line><line stroke="#6A6A6A" stroke-width="1.3" x1="93.84615384615385" x2="607.2874035916375" y1="453.8461538461538" y2="453.8461538461538"></line><line stroke="#6A6A6A" stroke-width="1.3" x1="93.84615384615385" x2="607.2874035916375" y1="443.8461538461538" y2="443.8461538461538"></line></g><g><path d="M119.046 429.926C118.486 429.926 117.246 430.966 116.446 431.846C113.486 435.126 112.526 440.126 112.526 444.286C112.526 446.606 112.806 449.206 113.086 450.846C113.166 451.326 113.206 451.406 112.726 451.806C110.166 453.926 107.406 456.366 105.326 458.926C102.566 462.366 100.846 466.086 100.846 470.366C100.846 477.326 105.606 483.926 115.406 483.926C116.326 483.926 117.366 483.846 118.166 483.686C118.606 483.606 118.686 483.566 118.766 484.046C119.246 486.726 119.846 490.206 119.846 492.086C119.846 498.006 115.846 498.726 113.486 498.726C111.326 498.726 110.286 498.086 110.286 497.566C110.286 497.126 110.646 497.166 111.566 496.886C112.806 496.526 114.246 495.446 114.246 493.126C114.246 490.926 112.846 489.046 110.406 489.046C107.726 489.046 106.126 491.166 106.126 493.646C106.126 496.246 107.686 500.166 113.726 500.166C116.406 500.166 121.606 498.966 121.606 492.166C121.606 489.886 120.886 486.086 120.446 483.606C120.366 483.126 120.406 483.166 120.966 482.926C125.006 481.326 127.686 477.926 127.686 473.406C127.686 468.286 123.926 463.766 118.046 463.766C116.926 463.766 117.046 463.966 116.886 463.046L115.886 457.246C115.806 456.766 115.886 456.726 116.126 456.486C116.766 455.886 117.606 455.046 118.366 454.206C121.726 450.526 123.726 445.766 123.726 441.246C123.726 437.766 122.766 434.326 121.126 431.926C120.526 431.046 119.486 429.926 119.046 429.926ZM113.886 458.086C114.286 457.766 114.366 457.806 114.446 458.246L115.286 463.366C115.406 464.126 115.406 464.086 114.686 464.326C111.166 465.526 108.886 468.686 108.886 472.086C108.886 475.686 110.766 478.246 113.486 479.166C113.806 479.286 114.286 479.406 114.566 479.406C114.886 479.406 115.046 479.206 115.046 478.966C115.046 478.686 114.726 478.566 114.446 478.446C112.766 477.726 111.566 476.006 111.566 474.166C111.566 471.886 113.126 470.166 115.566 469.486C116.206 469.326 116.286 469.366 116.366 469.806L118.366 481.726C118.446 482.166 118.406 482.166 117.806 482.286C117.166 482.406 116.366 482.486 115.566 482.486C108.566 482.486 104.046 478.606 104.046 473.046C104.046 470.686 104.446 467.526 107.766 463.766C110.166 461.086 112.006 459.606 113.886 458.086ZM118.486 469.166C121.726 469.446 124.406 472.166 124.406 475.686C124.406 478.206 122.886 480.246 120.646 481.366C120.166 481.606 120.086 481.606 120.006 481.126L118.046 469.726C117.966 469.246 118.006 469.126 118.486 469.166ZM119.646 436.126C120.966 436.126 122.046 437.206 122.046 439.406C122.046 442.166 120.726 444.726 117.606 447.846C116.966 448.486 116.006 449.406 115.086 450.206C114.806 450.446 114.646 450.406 114.566 449.886C114.406 448.846 114.326 447.486 114.326 446.206C114.326 439.966 117.206 436.126 119.646 436.126Z"></path></g><g></g><path d="M151.666 453.806C150.466 453.806 149.066 454.126 147.986 454.606C144.426 456.166 142.546 460.446 142.546 464.246C142.546 464.606 142.546 464.966 142.586 465.326C142.786 467.486 143.826 469.526 145.146 471.126C146.666 472.966 148.866 473.806 151.266 473.806C158.266 473.806 159.306 467.446 159.306 466.286C159.306 465.406 158.866 465.406 158.706 465.406C158.386 465.406 158.106 465.446 158.106 466.126C158.106 471.286 153.706 472.486 152.426 472.486C149.186 472.486 147.466 469.326 147.466 462.726C147.466 456.126 150.506 454.766 152.666 454.766C154.746 454.766 155.586 455.726 155.586 456.126C155.586 456.486 155.466 457.006 154.866 457.006C153.266 457.006 152.346 458.726 152.346 459.966C152.346 462.246 154.306 462.966 155.426 462.966C155.426 462.966 158.466 462.846 158.466 459.526C158.466 454.286 152.426 453.806 151.666 453.806Z"></path><g><line stroke="#000000" stroke-width="5" x1="86.34615384615385" x2="86.34615384615385" y1="138.3461538461538" y2="589.3461538461538"></line><path d="M83.846 141.346L88.846 141.346C95.246 140.146 100.966 137.186 102.566 130.506C102.606 130.346 102.606 130.226 102.606 130.106C102.606 129.786 102.486 129.626 102.286 129.546C101.926 129.546 101.486 129.826 101.286 130.106C100.886 130.546 95.846 135.826 88.206 136.386L84.166 136.386C83.926 136.386 83.846 136.426 83.846 136.666Z"></path><path d="M83.846 591.026C83.846 591.266 83.926 591.306 84.166 591.306L88.206 591.306C95.846 591.866 100.886 597.146 101.286 597.586C101.486 597.866 101.926 598.146 102.286 598.146C102.486 598.066 102.606 597.906 102.606 597.586C102.606 597.466 102.606 597.346 102.566 597.186C100.966 590.506 95.246 587.546 88.846 586.346L83.846 586.346Z"></path><line stroke="#000000" stroke-width="1.6" x1="93.84615384615385" x2="93.84615384615385" y1="143.3461538461538" y2="584.3461538461538"></line></g></g><g><line stroke="black" stroke-width="1.6" x1="310.52657042798177" x2="310.52657042798177" y1="143.3461538461538" y2="584.3461538461538"></line></g><g><g><line stroke="#6A6A6A" stroke-width="1.3" x1="93.84615384615385" x2="607.2874035916375" y1="583.8461538461538" y2="583.8461538461538"></line><line stroke="#6A6A6A" stroke-width="1.3" x1="93.84615384615385" x2="607.2874035916375" y1="573.8461538461538" y2="573.8461538461538"></line><line stroke="#6A6A6A" stroke-width="1.3" x1="93.84615384615385" x2="607.2874035916375" y1="563.8461538461538" y2="563.8461538461538"></line><line stroke="#6A6A6A" stroke-width="1.3" x1="93.84615384615385" x2="607.2874035916375" y1="553.8461538461538" y2="553.8461538461538"></line><line stroke="#6A6A6A" stroke-width="1.3" x1="93.84615384615385" x2="607.2874035916375" y1="543.8461538461538" y2="543.8461538461538"></line></g><g><path d="M119.046 529.926C118.486 529.926 117.246 530.966 116.446 531.846C113.486 535.126 112.526 540.126 112.526 544.286C112.526 546.606 112.806 549.206 113.086 550.846C113.166 551.326 113.206 551.406 112.726 551.806C110.166 553.926 107.406 556.366 105.326 558.926C102.566 562.366 100.846 566.086 100.846 570.366C100.846 577.326 105.606 583.926 115.406 583.926C116.326 583.926 117.366 583.846 118.166 583.686C118.606 583.606 118.686 583.566 118.766 584.046C119.246 586.726 119.846 590.206 119.846 592.086C119.846 598.006 115.846 598.726 113.486 598.726C111.326 598.726 110.286 598.086 110.286 597.566C110.286 597.126 110.646 597.166 111.566 596.886C112.806 596.526 114.246 595.446 114.246 593.126C114.246 590.926 112.846 589.046 110.406 589.046C107.726 589.046 106.126 591.166 106.126 593.646C106.126 596.246 107.686 600.166 113.726 600.166C116.406 600.166 121.606 598.966 121.606 592.166C121.606 589.886 120.886 586.086 120.446 583.606C120.366 583.126 120.406 583.166 120.966 582.926C125.006 581.326 127.686 577.926 127.686 573.406C127.686 568.286 123.926 563.766 118.046 563.766C116.926 563.766 117.046 563.966 116.886 563.046L115.886 557.246C115.806 556.766 115.886 556.726 116.126 556.486C116.766 555.886 117.606 555.046 118.366 554.206C121.726 550.526 123.726 545.766 123.726 541.246C123.726 537.766 122.766 534.326 121.126 531.926C120.526 531.046 119.486 529.926 119.046 529.926ZM113.886 558.086C114.286 557.766 114.366 557.806 114.446 558.246L115.286 563.366C115.406 564.126 115.406 564.086 114.686 564.326C111.166 565.526 108.886 568.686 108.886 572.086C108.886 575.686 110.766 578.246 113.486 579.166C113.806 579.286 114.286 579.406 114.566 579.406C114.886 579.406 115.046 579.206 115.046 578.966C115.046 578.686 114.726 578.566 114.446 578.446C112.766 577.726 111.566 576.006 111.566 574.166C111.566 571.886 113.126 570.166 115.566 569.486C116.206 569.326 116.286 569.366 116.366 569.806L118.366 581.726C118.446 582.166 118.406 582.166 117.806 582.286C117.166 582.406 116.366 582.486 115.566 582.486C108.566 582.486 104.046 578.606 104.046 573.046C104.046 570.686 104.446 567.526 107.766 563.766C110.166 561.086 112.006 559.606 113.886 558.086ZM118.486 569.166C121.726 569.446 124.406 572.166 124.406 575.686C124.406 578.206 122.886 580.246 120.646 581.366C120.166 581.606 120.086 581.606 120.006 581.126L118.046 569.726C117.966 569.246 118.006 569.126 118.486 569.166ZM119.646 536.126C120.966 536.126 122.046 537.206 122.046 539.406C122.046 542.166 120.726 544.726 117.606 547.846C116.966 548.486 116.006 549.406 115.086 550.206C114.806 550.446 114.646 550.406 114.566 549.886C114.406 548.846 114.326 547.486 114.326 546.206C114.326 539.966 117.206 536.126 119.646 536.126Z"></path></g><g></g><path d="M151.666 553.806C150.466 553.806 149.066 554.126 147.986 554.606C144.426 556.166 142.546 560.446 142.546 564.246C142.546 564.606 142.546 564.966 142.586 565.326C142.786 567.486 143.826 569.526 145.146 571.126C146.666 572.966 148.866 573.806 151.266 573.806C158.266 573.806 159.306 567.446 159.306 566.286C159.306 565.406 158.866 565.406 158.706 565.406C158.386 565.406 158.106 565.446 158.106 566.126C158.106 571.286 153.706 572.486 152.426 572.486C149.186 572.486 147.466 569.326 147.466 562.726C147.466 556.126 150.506 554.766 152.666 554.766C154.746 554.766 155.586 555.726 155.586 556.126C155.586 556.486 155.466 557.006 154.866 557.006C153.266 557.006 152.346 558.726 152.346 559.966C152.346 562.246 154.306 562.966 155.426 562.966C155.426 562.966 158.466 562.846 158.466 559.526C158.466 554.286 152.426 553.806 151.666 553.806Z"></path></g><g><line stroke="black" stroke-width="1.6" x1="310.52657042798177" x2="310.52657042798177" y1="543.8461538461538" y2="583.8461538461538"></line></g><g><g><path d="M192.246 158.366C186.446 158.366 182.846 160.806 182.846 163.766C182.846 166.686 185.326 169.286 191.806 169.286C198.926 169.286 201.206 166.806 201.206 163.766C201.206 160.686 196.286 158.366 192.246 158.366ZM187.686 161.086C188.166 159.606 189.766 159.366 191.126 159.366C194.086 159.366 196.486 162.566 196.486 165.206C196.486 165.486 196.446 165.766 196.406 166.006C196.206 167.086 195.566 167.846 194.486 168.126C194.046 168.246 193.606 168.286 193.166 168.286C192.766 168.286 192.406 168.246 192.006 168.126C191.286 167.886 190.566 167.486 189.966 166.966C189.646 166.686 189.326 166.366 189.046 166.006C188.206 165.006 187.526 163.526 187.526 162.166C187.526 161.806 187.566 161.446 187.686 161.086Z"></path></g></g><g><g><path d="M192.246 263.366C186.446 263.366 182.846 265.806 182.846 268.766C182.846 271.686 185.326 274.286 191.806 274.286C198.926 274.286 201.206 271.806 201.206 268.766C201.206 265.686 196.286 263.366 192.246 263.366ZM187.686 266.086C188.166 264.606 189.766 264.366 191.126 264.366C194.086 264.366 196.486 267.566 196.486 270.206C196.486 270.486 196.446 270.766 196.406 271.006C196.206 272.086 195.566 272.846 194.486 273.126C194.046 273.246 193.606 273.286 193.166 273.286C192.766 273.286 192.406 273.246 192.006 273.126C191.286 272.886 190.566 272.486 189.966 271.966C189.646 271.686 189.326 271.366 189.046 271.006C188.206 270.006 187.526 268.526 187.526 267.166C187.526 266.806 187.566 266.446 187.686 266.086Z"></path></g></g><g><g><path d="M192.246 363.366C186.446 363.366 182.846 365.806 182.846 368.766C182.846 371.686 185.326 374.286 191.806 374.286C198.926 374.286 201.206 371.806 201.206 368.766C201.206 365.686 196.286 363.366 192.246 363.366ZM187.686 366.086C188.166 364.606 189.766 364.366 191.126 364.366C194.086 364.366 196.486 367.566 196.486 370.206C196.486 370.486 196.446 370.766 196.406 371.006C196.206 372.086 195.566 372.846 194.486 373.126C194.046 373.246 193.606 373.286 193.166 373.286C192.766 373.286 192.406 373.246 192.006 373.126C191.286 372.886 190.566 372.486 189.966 371.966C189.646 371.686 189.326 371.366 189.046 371.006C188.206 370.006 187.526 368.526 187.526 367.166C187.526 366.806 187.566 366.446 187.686 366.086Z"></path></g></g><g><g><path d="M192.246 473.366C186.446 473.366 182.846 475.806 182.846 478.766C182.846 481.686 185.326 484.286 191.806 484.286C198.926 484.286 201.206 481.806 201.206 478.766C201.206 475.686 196.286 473.366 192.246 473.366ZM187.686 476.086C188.166 474.606 189.766 474.366 191.126 474.366C194.086 474.366 196.486 477.566 196.486 480.206C196.486 480.486 196.446 480.766 196.406 481.006C196.206 482.086 195.566 482.846 194.486 483.126C194.046 483.246 193.606 483.286 193.166 483.286C192.766 483.286 192.406 483.246 192.006 483.126C191.286 482.886 190.566 482.486 189.966 481.966C189.646 481.686 189.326 481.366 189.046 481.006C188.206 480.006 187.526 478.526 187.526 477.166C187.526 476.806 187.566 476.446 187.686 476.086Z"></path></g></g><g><g><path d="M192.246 548.366C186.446 548.366 182.846 550.806 182.846 553.766C182.846 556.686 185.326 559.286 191.806 559.286C198.926 559.286 201.206 556.806 201.206 553.766C201.206 550.686 196.286 548.366 192.246 548.366ZM187.686 551.086C188.166 549.606 189.766 549.366 191.126 549.366C194.086 549.366 196.486 552.566 196.486 555.206C196.486 555.486 196.446 555.766 196.406 556.006C196.206 557.086 195.566 557.846 194.486 558.126C194.046 558.246 193.606 558.286 193.166 558.286C192.766 558.286 192.406 558.246 192.006 558.126C191.286 557.886 190.566 557.486 189.966 556.966C189.646 556.686 189.326 556.366 189.046 556.006C188.206 555.006 187.526 553.526 187.526 552.166C187.526 551.806 187.566 551.446 187.686 551.086Z"></path></g></g></g><g><g></g><g><line stroke="black" stroke-width="1.6" x1="454.0069870098097" x2="454.0069870098097" y1="143.8461538461538" y2="183.8461538461538"></line></g><g></g><g><line stroke="black" stroke-width="1.6" x1="454.0069870098097" x2="454.0069870098097" y1="143.3461538461538" y2="584.3461538461538"></line></g><g></g><g><line stroke="black" stroke-width="1.6" x1="454.0069870098097" x2="454.0069870098097" y1="143.3461538461538" y2="584.3461538461538"></line></g><g></g><g><line stroke="black" stroke-width="1.6" x1="454.0069870098097" x2="454.0069870098097" y1="143.3461538461538" y2="584.3461538461538"></line></g><g></g><g><line stroke="black" stroke-width="1.6" x1="454.0069870098097" x2="454.0069870098097" y1="543.8461538461538" y2="583.8461538461538"></line></g><g><g><path d="M335.727 163.366C329.927 163.366 326.327 165.806 326.327 168.766C326.327 171.686 328.807 174.286 335.287 174.286C342.407 174.286 344.687 171.806 344.687 168.766C344.687 165.686 339.767 163.366 335.727 163.366ZM331.167 166.086C331.647 164.606 333.247 164.366 334.607 164.366C337.567 164.366 339.967 167.566 339.967 170.206C339.967 170.486 339.927 170.766 339.887 171.006C339.687 172.086 339.047 172.846 337.967 173.126C337.527 173.246 337.087 173.286 336.647 173.286C336.247 173.286 335.887 173.246 335.487 173.126C334.767 172.886 334.047 172.486 333.447 171.966C333.127 171.686 332.807 171.366 332.527 171.006C331.687 170.006 331.007 168.526 331.007 167.166C331.007 166.806 331.047 166.446 331.167 166.086Z"></path></g></g><g><g><path d="M335.727 263.366C329.927 263.366 326.327 265.806 326.327 268.766C326.327 271.686 328.807 274.286 335.287 274.286C342.407 274.286 344.687 271.806 344.687 268.766C344.687 265.686 339.767 263.366 335.727 263.366ZM331.167 266.086C331.647 264.606 333.247 264.366 334.607 264.366C337.567 264.366 339.967 267.566 339.967 270.206C339.967 270.486 339.927 270.766 339.887 271.006C339.687 272.086 339.047 272.846 337.967 273.126C337.527 273.246 337.087 273.286 336.647 273.286C336.247 273.286 335.887 273.246 335.487 273.126C334.767 272.886 334.047 272.486 333.447 271.966C333.127 271.686 332.807 271.366 332.527 271.006C331.687 270.006 331.007 268.526 331.007 267.166C331.007 266.806 331.047 266.446 331.167 266.086Z"></path></g></g><g><g><path d="M335.727 363.366C329.927 363.366 326.327 365.806 326.327 368.766C326.327 371.686 328.807 374.286 335.287 374.286C342.407 374.286 344.687 371.806 344.687 368.766C344.687 365.686 339.767 363.366 335.727 363.366ZM331.167 366.086C331.647 364.606 333.247 364.366 334.607 364.366C337.567 364.366 339.967 367.566 339.967 370.206C339.967 370.486 339.927 370.766 339.887 371.006C339.687 372.086 339.047 372.846 337.967 373.126C337.527 373.246 337.087 373.286 336.647 373.286C336.247 373.286 335.887 373.246 335.487 373.126C334.767 372.886 334.047 372.486 333.447 371.966C333.127 371.686 332.807 371.366 332.527 371.006C331.687 370.006 331.007 368.526 331.007 367.166C331.007 366.806 331.047 366.446 331.167 366.086Z"></path></g></g><g><g><path d="M335.727 458.366C329.927 458.366 326.327 460.806 326.327 463.766C326.327 466.686 328.807 469.286 335.287 469.286C342.407 469.286 344.687 466.806 344.687 463.766C344.687 460.686 339.767 458.366 335.727 458.366ZM331.167 461.086C331.647 459.606 333.247 459.366 334.607 459.366C337.567 459.366 339.967 462.566 339.967 465.206C339.967 465.486 339.927 465.766 339.887 466.006C339.687 467.086 339.047 467.846 337.967 468.126C337.527 468.246 337.087 468.286 336.647 468.286C336.247 468.286 335.887 468.246 335.487 468.126C334.767 467.886 334.047 467.486 333.447 466.966C333.127 466.686 332.807 466.366 332.527 466.006C331.687 465.006 331.007 463.526 331.007 462.166C331.007 461.806 331.047 461.446 331.167 461.086Z"></path></g></g><g><g><path d="M335.727 573.366C329.927 573.366 326.327 575.806 326.327 578.766C326.327 581.686 328.807 584.286 335.287 584.286C342.407 584.286 344.687 581.806 344.687 578.766C344.687 575.686 339.767 573.366 335.727 573.366ZM331.167 576.086C331.647 574.606 333.247 574.366 334.607 574.366C337.567 574.366 339.967 577.566 339.967 580.206C339.967 580.486 339.927 580.766 339.887 581.006C339.687 582.086 339.047 582.846 337.967 583.126C337.527 583.246 337.087 583.286 336.647 583.286C336.247 583.286 335.887 583.246 335.487 583.126C334.767 582.886 334.047 582.486 333.447 581.966C333.127 581.686 332.807 581.366 332.527 581.006C331.687 580.006 331.007 578.526 331.007 577.166C331.007 576.806 331.047 576.446 331.167 576.086Z"></path></g></g></g><g><g></g><g><line stroke="#000000" stroke-width="1.6" x1="597.4874035916375" x2="597.4874035916375" y1="143.8461538461538" y2="183.8461538461538"></line><line stroke="#000000" stroke-width="5" x1="604.7874035916376" x2="604.7874035916376" y1="143.8461538461538" y2="183.8461538461538"></line></g><g></g><g><line stroke="#000000" stroke-width="1.6" x1="597.4874035916375" x2="597.4874035916375" y1="143.3461538461538" y2="584.3461538461538"></line><line stroke="#000000" stroke-width="5" x1="604.7874035916376" x2="604.7874035916376" y1="143.3461538461538" y2="584.3461538461538"></line></g><g></g><g><line stroke="#000000" stroke-width="1.6" x1="597.4874035916375" x2="597.4874035916375" y1="143.3461538461538" y2="584.3461538461538"></line><line stroke="#000000" stroke-width="5" x1="604.7874035916376" x2="604.7874035916376" y1="143.3461538461538" y2="584.3461538461538"></line></g><g></g><g><line stroke="#000000" stroke-width="1.6" x1="597.4874035916375" x2="597.4874035916375" y1="143.3461538461538" y2="584.3461538461538"></line><line stroke="#000000" stroke-width="5" x1="604.7874035916376" x2="604.7874035916376" y1="143.3461538461538" y2="584.3461538461538"></line></g><g></g><g><line stroke="#000000" stroke-width="1.6" x1="597.4874035916375" x2="597.4874035916375" y1="543.8461538461538" y2="583.8461538461538"></line><line stroke="#000000" stroke-width="5" x1="604.7874035916376" x2="604.7874035916376" y1="543.8461538461538" y2="583.8461538461538"></line></g><g><path d="M530.587 158.206L530.587 154.526C530.587 153.926 530.107 153.486 529.547 153.486L520.347 153.486C519.747 153.486 519.307 153.926 519.307 154.526L519.307 158.206C519.307 158.766 519.747 159.246 520.347 159.246L529.547 159.246C530.107 159.246 530.587 158.766 530.587 158.206Z"></path></g><g><path d="M530.587 258.206L530.587 254.526C530.587 253.926 530.107 253.486 529.547 253.486L520.347 253.486C519.747 253.486 519.307 253.926 519.307 254.526L519.307 258.206C519.307 258.766 519.747 259.246 520.347 259.246L529.547 259.246C530.107 259.246 530.587 258.766 530.587 258.206Z"></path></g><g><path d="M530.587 358.206L530.587 354.526C530.587 353.926 530.107 353.486 529.547 353.486L520.347 353.486C519.747 353.486 519.307 353.926 519.307 354.526L519.307 358.206C519.307 358.766 519.747 359.246 520.347 359.246L529.547 359.246C530.107 359.246 530.587 358.766 530.587 358.206Z"></path></g><g><path d="M530.587 458.206L530.587 454.526C530.587 453.926 530.107 453.486 529.547 453.486L520.347 453.486C519.747 453.486 519.307 453.926 519.307 454.526L519.307 458.206C519.307 458.766 519.747 459.246 520.347 459.246L529.547 459.246C530.107 459.246 530.587 458.766 530.587 458.206Z"></path></g><g><path d="M530.587 558.206L530.587 554.526C530.587 553.926 530.107 553.486 529.547 553.486L520.347 553.486C519.747 553.486 519.307 553.926 519.307 554.526L519.307 558.206C519.307 558.766 519.747 559.246 520.347 559.246L529.547 559.246C530.107 559.246 530.587 558.766 530.587 558.206Z"></path></g></g></svg>