<?xml version="1.0" encoding="UTF-8" standalone="no"?><svg xmlns="http://www.w3.org/2000/svg" height="279.4mm" viewBox="0 0 1328.6153846153845 1719.3846153846152" width="215.9mm"><g transform="translate(163.84615384615387)"><g><g><line stroke="#6A6A6A" stroke-width="1.3" x1="0" x2="522.7038151386171" y1="216.3461538461538" y2="216.3461538461538"></line><line stroke="#6A6A6A" stroke-width="1.3" x1="0" x2="522.7038151386171" y1="206.3461538461538" y2="206.3461538461538"></line><line stroke="#6A6A6A" stroke-width="1.3" x1="0" x2="522.7038151386171" y1="196.3461538461538" y2="196.3461538461538"></line><line stroke="#6A6A6A" stroke-width="1.3" x1="0" x2="522.7038151386171" y1="186.3461538461538" y2="186.3461538461538"></line><line stroke="#6A6A6A" stroke-width="1.3" x1="0" x2="522.7038151386171" y1="176.3461538461538" y2="176.3461538461538"></line></g><g><path d="M25.200 162.426C24.640 162.426 23.400 163.466 22.600 164.346C19.640 167.626 18.680 172.626 18.680 176.786C18.680 179.106 18.960 181.706 19.240 183.346C19.320 183.826 19.360 183.906 18.880 184.306C16.320 186.426 13.560 188.866 11.480 191.426C8.720 194.866 7 198.586 7 202.866C7 209.826 11.760 216.426 21.560 216.426C22.480 216.426 23.520 216.346 24.320 216.186C24.760 216.106 24.840 216.066 24.920 216.546C25.400 219.226 26 222.706 26 224.586C26 230.506 22 231.226 19.640 231.226C17.480 231.226 16.440 230.586 16.440 230.066C16.440 229.626 16.800 229.666 17.720 229.386C18.960 229.026 20.400 227.946 20.400 225.626C20.400 223.426 19 221.546 16.560 221.546C13.880 221.546 12.280 223.666 12.280 226.146C12.280 228.746 13.840 232.666 19.880 232.666C22.560 232.666 27.760 231.466 27.760 224.666C27.760 222.386 27.040 218.586 26.600 216.106C26.520 215.626 26.560 215.666 27.120 215.426C31.160 213.826 33.840 210.426 33.840 205.906C33.840 200.786 30.080 196.266 24.200 196.266C23.080 196.266 23.200 196.466 23.040 195.546L22.040 189.746C21.960 189.266 22.040 189.226 22.280 188.986C22.920 188.386 23.760 187.546 24.520 186.706C27.880 183.026 29.880 178.266 29.880 173.746C29.880 170.266 28.920 166.826 27.280 164.426C26.680 163.546 25.640 162.426 25.200 162.426ZM20.040 190.586C20.440 190.266 20.520 190.306 20.600 190.746L21.440 195.866C21.560 196.626 21.560 196.586 20.840 196.826C17.320 198.026 15.040 201.186 15.040 204.586C15.040 208.186 16.920 210.746 19.640 211.666C19.960 211.786 20.440 211.906 20.720 211.906C21.040 211.906 21.200 211.706 21.200 211.466C21.200 211.186 20.880 211.066 20.600 210.946C18.920 210.226 17.720 208.506 17.720 206.666C17.720 204.386 19.280 202.666 21.720 201.986C22.360 201.826 22.440 201.866 22.520 202.306L24.520 214.226C24.600 214.666 24.560 214.666 23.960 214.786C23.320 214.906 22.520 214.986 21.720 214.986C14.720 214.986 10.200 211.106 10.200 205.546C10.200 203.186 10.600 200.026 13.920 196.266C16.320 193.586 18.160 192.106 20.040 190.586ZM24.640 201.666C27.880 201.946 30.560 204.666 30.560 208.186C30.560 210.706 29.040 212.746 26.800 213.866C26.320 214.106 26.240 214.106 26.160 213.626L24.200 202.226C24.120 201.746 24.160 201.626 24.640 201.666ZM25.800 168.626C27.120 168.626 28.200 169.706 28.200 171.906C28.200 174.666 26.880 177.226 23.760 180.346C23.120 180.986 22.160 181.906 21.240 182.706C20.960 182.946 20.800 182.906 20.720 182.386C20.560 181.346 20.480 179.986 20.480 178.706C20.480 172.466 23.360 168.626 25.800 168.626Z"></path></g><g></g><g><g><path d="M56.420 183.226C54.100 183.226 52.380 183.626 51.100 184.386C51.020 184.426 50.940 184.426 50.900 184.426C50.740 184.426 50.740 184.266 50.740 184.146C50.740 184.066 50.740 183.986 50.740 183.986C50.740 183.986 50.900 181.746 50.940 181.386C50.980 181.066 51.180 180.866 51.540 180.866L51.700 180.866C52.100 180.946 53.980 181.226 55.620 181.226C61.180 181.226 61.380 178.026 61.380 177.386C61.380 176.866 61.260 176.546 60.820 176.546C60.300 176.546 57.180 176.906 55.900 176.906C54.620 176.906 51.180 176.586 50.500 176.506C49.780 176.506 49.580 176.866 49.540 177.186L49.100 186.066C49.100 186.106 49.100 186.106 49.100 186.146C49.100 186.666 49.500 186.746 49.900 186.746C50.300 186.746 50.340 186.386 50.780 185.946C51.180 185.546 52.140 184.626 53.500 184.626C54.860 184.626 57.620 185.386 57.620 189.826C57.620 194.226 55.260 194.786 54.220 194.786C53.900 194.786 53.580 194.786 53.300 194.666C53.100 194.546 52.860 194.386 52.820 194.106C52.820 193.826 53.100 193.666 53.300 193.546C54.220 192.986 54.820 191.986 54.820 190.866C54.820 189.106 53.420 187.746 51.700 187.746C49.540 187.746 48.660 189.306 48.540 190.706C48.500 190.946 48.500 191.186 48.500 191.426C48.500 194.746 50.660 196.386 55.580 196.386C60.380 196.386 63.020 193.426 63.020 189.826C63.020 186.186 60.060 183.226 56.420 183.226Z"></path></g><g><path d="M65.180 209.306L62.260 209.306L62.260 200.746C62.260 200.426 62.220 200.066 61.780 200.066C61.420 200.066 61.220 200.146 60.980 200.426L57.180 205.026C57.020 205.226 56.820 205.466 56.820 205.946C56.820 205.946 56.820 207.546 56.820 209.306L51.420 209.306C54.620 206.586 61.020 197.506 61.140 197.066C61.140 196.986 61.180 196.946 61.180 196.866C61.180 196.546 60.900 196.306 60.580 196.306C60.220 196.306 58.580 196.386 57.860 196.386C57.140 196.386 55.340 196.306 55.020 196.306C54.660 196.306 54.100 196.426 54.100 197.066C54.100 202.026 50.180 207.586 48.980 209.266L48.740 209.586C48.740 209.626 48.700 209.666 48.700 209.706C48.620 209.866 48.580 210.026 48.580 210.146C48.580 210.546 48.900 210.826 49.380 210.826L56.820 210.826L56.820 213.346C56.820 214.426 55.940 214.746 55.220 214.746C54.580 214.746 54.300 215.106 54.300 215.506C54.300 215.906 54.460 216.346 55.060 216.346C55.700 216.346 63.580 216.346 63.580 216.346C63.980 216.346 64.380 216.066 64.380 215.506C64.380 214.946 63.900 214.706 63.500 214.706C63.100 214.706 62.260 214.466 62.260 213.186L62.260 210.826C63.980 210.826 65.180 210.826 65.180 210.826C65.580 210.826 65.780 210.546 65.780 210.066C65.780 209.586 65.620 209.306 65.180 209.306Z"></path></g></g></g><g><line stroke="black" stroke-width="1.6" x1="512.9038151386171" x2="512.9038151386171" y1="176.3461538461538" y2="216.3461538461538"></line><line stroke="black" stroke-width="5" x1="520.2038151386172" x2="520.2038151386172" y1="176.3461538461538" y2="216.3461538461538"></line></g><g><path d="M98.320 202.786C96.800 200.946 95.560 199.466 95.560 197.226C95.560 197.066 95.600 196.866 95.600 196.706C95.760 194.386 97.200 192.466 98.240 190.826C98.360 190.626 98.400 190.426 98.400 190.226C98.400 189.826 98.240 189.466 98.240 189.466C98.240 189.466 92.320 182.426 91.640 181.746C91.440 181.546 91.160 181.426 90.920 181.426C90.520 181.426 90.120 181.706 90.120 182.266C90.120 182.466 90.160 182.666 90.280 182.906C90.440 183.346 92.720 185.386 92.720 188.266C92.720 189.746 92.120 191.466 90.320 193.346C89.920 193.746 89.760 194.186 89.760 194.506C89.760 195.066 90.160 195.466 90.160 195.466L92.120 197.866C92.760 198.666 93.320 199.426 93.840 200.266C93.920 200.426 94.080 200.626 94.080 200.826C94.080 200.866 94.080 200.946 94.040 200.986C93.960 201.146 93.800 201.186 93.600 201.186C93.360 201.186 93.120 201.106 92.960 201.066C92.760 201.066 92.520 200.946 92.320 200.946C90.600 200.946 89.040 202.666 89.040 204.786C89.040 206.786 90.760 208.746 93.680 210.986C94 211.226 94.400 211.346 94.720 211.346C95 211.346 95.280 211.266 95.320 211.106C95.360 210.986 95.400 210.906 95.400 210.826C95.400 210.466 95.080 210.146 94.760 209.866C94.240 209.866 93.800 208.786 93.720 208.426C93.600 208.106 93.560 207.746 93.560 207.386C93.560 206.146 94.160 204.746 95.440 204.506C95.640 204.466 95.840 204.466 96.080 204.466C97.240 204.466 98.560 204.906 99.200 205.146C99.240 205.146 99.280 205.186 99.320 205.186C99.440 205.226 99.520 205.226 99.600 205.226C99.720 205.226 99.800 205.186 99.800 205.066C99.800 204.586 98.760 203.266 98.320 202.786Z"></path></g><g><path d="M182.941 222.786C181.421 220.946 180.181 219.466 180.181 217.226C180.181 217.066 180.221 216.866 180.221 216.706C180.381 214.386 181.821 212.466 182.861 210.826C182.981 210.626 183.021 210.426 183.021 210.226C183.021 209.826 182.861 209.466 182.861 209.466C182.861 209.466 176.941 202.426 176.261 201.746C176.061 201.546 175.781 201.426 175.541 201.426C175.141 201.426 174.741 201.706 174.741 202.266C174.741 202.466 174.781 202.666 174.901 202.906C175.061 203.346 177.341 205.386 177.341 208.266C177.341 209.746 176.741 211.466 174.941 213.346C174.541 213.746 174.381 214.186 174.381 214.506C174.381 215.066 174.781 215.466 174.781 215.466L176.741 217.866C177.381 218.666 177.941 219.426 178.461 220.266C178.541 220.426 178.701 220.626 178.701 220.826C178.701 220.866 178.701 220.946 178.661 220.986C178.581 221.146 178.421 221.186 178.221 221.186C177.981 221.186 177.741 221.106 177.581 221.066C177.381 221.066 177.141 220.946 176.941 220.946C175.221 220.946 173.661 222.666 173.661 224.786C173.661 226.786 175.381 228.746 178.301 230.986C178.621 231.226 179.021 231.346 179.341 231.346C179.621 231.346 179.901 231.266 179.941 231.106C179.981 230.986 180.021 230.906 180.021 230.826C180.021 230.466 179.701 230.146 179.381 229.866C178.861 229.866 178.421 228.786 178.341 228.426C178.221 228.106 178.181 227.746 178.181 227.386C178.181 226.146 178.781 224.746 180.061 224.506C180.261 224.466 180.461 224.466 180.701 224.466C181.861 224.466 183.181 224.906 183.821 225.146C183.861 225.146 183.901 225.186 183.941 225.186C184.061 225.226 184.141 225.226 184.221 225.226C184.341 225.226 184.421 225.186 184.421 225.066C184.421 224.586 183.381 223.266 182.941 222.786Z"></path></g><g><path d="M267.562 182.786C266.042 180.946 264.802 179.466 264.802 177.226C264.802 177.066 264.842 176.866 264.842 176.706C265.002 174.386 266.442 172.466 267.482 170.826C267.602 170.626 267.642 170.426 267.642 170.226C267.642 169.826 267.482 169.466 267.482 169.466C267.482 169.466 261.562 162.426 260.882 161.746C260.682 161.546 260.402 161.426 260.162 161.426C259.762 161.426 259.362 161.706 259.362 162.266C259.362 162.466 259.402 162.666 259.522 162.906C259.682 163.346 261.962 165.386 261.962 168.266C261.962 169.746 261.362 171.466 259.562 173.346C259.162 173.746 259.002 174.186 259.002 174.506C259.002 175.066 259.402 175.466 259.402 175.466L261.362 177.866C262.002 178.666 262.562 179.426 263.082 180.266C263.162 180.426 263.322 180.626 263.322 180.826C263.322 180.866 263.322 180.946 263.282 180.986C263.202 181.146 263.042 181.186 262.842 181.186C262.602 181.186 262.362 181.106 262.202 181.066C262.002 181.066 261.762 180.946 261.562 180.946C259.842 180.946 258.282 182.666 258.282 184.786C258.282 186.786 260.002 188.746 262.922 190.986C263.242 191.226 263.642 191.346 263.962 191.346C264.242 191.346 264.522 191.266 264.562 191.106C264.602 190.986 264.642 190.906 264.642 190.826C264.642 190.466 264.322 190.146 264.002 189.866C263.482 189.866 263.042 188.786 262.962 188.426C262.842 188.106 262.802 187.746 262.802 187.386C262.802 186.146 263.402 184.746 264.682 184.506C264.882 184.466 265.082 184.466 265.322 184.466C266.482 184.466 267.802 184.906 268.442 185.146C268.482 185.146 268.522 185.186 268.562 185.186C268.682 185.226 268.762 185.226 268.842 185.226C268.962 185.226 269.042 185.186 269.042 185.066C269.042 184.586 268.002 183.266 267.562 182.786Z"></path></g><g><path d="M352.182 242.786C350.662 240.946 349.422 239.466 349.422 237.226C349.422 237.066 349.462 236.866 349.462 236.706C349.622 234.386 351.062 232.466 352.102 230.826C352.222 230.626 352.262 230.426 352.262 230.226C352.262 229.826 352.102 229.466 352.102 229.466C352.102 229.466 346.182 222.426 345.502 221.746C345.302 221.546 345.022 221.426 344.782 221.426C344.382 221.426 343.982 221.706 343.982 222.266C343.982 222.466 344.022 222.666 344.142 222.906C344.302 223.346 346.582 225.386 346.582 228.266C346.582 229.746 345.982 231.466 344.182 233.346C343.782 233.746 343.622 234.186 343.622 234.506C343.622 235.066 344.022 235.466 344.022 235.466L345.982 237.866C346.622 238.666 347.182 239.426 347.702 240.266C347.782 240.426 347.942 240.626 347.942 240.826C347.942 240.866 347.942 240.946 347.902 240.986C347.822 241.146 347.662 241.186 347.462 241.186C347.222 241.186 346.982 241.106 346.822 241.066C346.622 241.066 346.382 240.946 346.182 240.946C344.462 240.946 342.902 242.666 342.902 244.786C342.902 246.786 344.622 248.746 347.542 250.986C347.862 251.226 348.262 251.346 348.582 251.346C348.862 251.346 349.142 251.266 349.182 251.106C349.222 250.986 349.262 250.906 349.262 250.826C349.262 250.466 348.942 250.146 348.622 249.866C348.102 249.866 347.662 248.786 347.582 248.426C347.462 248.106 347.422 247.746 347.422 247.386C347.422 246.146 348.022 244.746 349.302 244.506C349.502 244.466 349.702 244.466 349.942 244.466C351.102 244.466 352.422 244.906 353.062 245.146C353.102 245.146 353.142 245.186 353.182 245.186C353.302 245.226 353.382 245.226 353.462 245.226C353.582 245.226 353.662 245.186 353.662 245.066C353.662 244.586 352.622 243.266 352.182 242.786Z"></path></g><g><path d="M436.803 162.786C435.283 160.946 434.043 159.466 434.043 157.226C434.043 157.066 434.083 156.866 434.083 156.706C434.243 154.386 435.683 152.466 436.723 150.826C436.843 150.626 436.883 150.426 436.883 150.226C436.883 149.826 436.723 149.466 436.723 149.466C436.723 149.466 430.803 142.426 430.123 141.746C429.923 141.546 429.643 141.426 429.403 141.426C429.003 141.426 428.603 141.706 428.603 142.266C428.603 142.466 428.643 142.666 428.763 142.906C428.923 143.346 431.203 145.386 431.203 148.266C431.203 149.746 430.603 151.466 428.803 153.346C428.403 153.746 428.243 154.186 428.243 154.506C428.243 155.066 428.643 155.466 428.643 155.466L430.603 157.866C431.243 158.666 431.803 159.426 432.323 160.266C432.403 160.426 432.563 160.626 432.563 160.826C432.563 160.866 432.563 160.946 432.523 160.986C432.443 161.146 432.283 161.186 432.083 161.186C431.843 161.186 431.603 161.106 431.443 161.066C431.243 161.066 431.003 160.946 430.803 160.946C429.083 160.946 427.523 162.666 427.523 164.786C427.523 166.786 429.243 168.746 432.163 170.986C432.483 171.226 432.883 171.346 433.203 171.346C433.483 171.346 433.763 171.266 433.803 171.106C433.843 170.986 433.883 170.906 433.883 170.826C433.883 170.466 433.563 170.146 433.243 169.866C432.723 169.866 432.283 168.786 432.203 168.426C432.083 168.106 432.043 167.746 432.043 167.386C432.043 166.146 432.643 164.746 433.923 164.506C434.123 164.466 434.323 164.466 434.563 164.466C435.723 164.466 437.043 164.906 437.683 165.146C437.723 165.146 437.763 165.186 437.803 165.186C437.923 165.226 438.003 165.226 438.083 165.226C438.203 165.226 438.283 165.186 438.283 165.066C438.283 164.586 437.243 163.266 436.803 162.786Z"></path></g></g></svg>