<?xml version="1.0" encoding="UTF-8" standalone="no"?><svg xmlns="http://www.w3.org/2000/svg" class="" height="279.4mm" viewBox="0 0 1328.6153846153845 1719.3846153846152" width="215.9mm"><g><g><g><line stroke="#6A6A6A" stroke-width="1.3" x1="93.84615384615385" x2="768.2785726103962" y1="183.8461538461538" y2="183.8461538461538"></line><line stroke="#6A6A6A" stroke-width="1.3" x1="93.84615384615385" x2="768.2785726103962" y1="173.8461538461538" y2="173.8461538461538"></line><line stroke="#6A6A6A" stroke-width="1.3" x1="93.84615384615385" x2="768.2785726103962" y1="163.8461538461538" y2="163.8461538461538"></line><line stroke="#6A6A6A" stroke-width="1.3" x1="93.84615384615385" x2="768.2785726103962" y1="153.8461538461538" y2="153.8461538461538"></line><line stroke="#6A6A6A" stroke-width="1.3" x1="93.84615384615385" x2="768.2785726103962" y1="143.8461538461538" y2="143.8461538461538"></line></g><g><path d="M119.046 129.926C118.486 129.926 117.246 130.966 116.446 131.846C113.486 135.126 112.526 140.126 112.526 144.286C112.526 146.606 112.806 149.206 113.086 150.846C113.166 151.326 113.206 151.406 112.726 151.806C110.166 153.926 107.406 156.366 105.326 158.926C102.566 162.366 100.846 166.086 100.846 170.366C100.846 177.326 105.606 183.926 115.406 183.926C116.326 183.926 117.366 183.846 118.166 183.686C118.606 183.606 118.686 183.566 118.766 184.046C119.246 186.726 119.846 190.206 119.846 192.086C119.846 198.006 115.846 198.726 113.486 198.726C111.326 198.726 110.286 198.086 110.286 197.566C110.286 197.126 110.646 197.166 111.566 196.886C112.806 196.526 114.246 195.446 114.246 193.126C114.246 190.926 112.846 189.046 110.406 189.046C107.726 189.046 106.126 191.166 106.126 193.646C106.126 196.246 107.686 200.166 113.726 200.166C116.406 200.166 121.606 198.966 121.606 192.166C121.606 189.886 120.886 186.086 120.446 183.606C120.366 183.126 120.406 183.166 120.966 182.926C125.006 181.326 127.686 177.926 127.686 173.406C127.686 168.286 123.926 163.766 118.046 163.766C116.926 163.766 117.046 163.966 116.886 163.046L115.886 157.246C115.806 156.766 115.886 156.726 116.126 156.486C116.766 155.886 117.606 155.046 118.366 154.206C121.726 150.526 123.726 145.766 123.726 141.246C123.726 137.766 122.766 134.326 121.126 131.926C120.526 131.046 119.486 129.926 119.046 129.926ZM113.886 158.086C114.286 157.766 114.366 157.806 114.446 158.246L115.286 163.366C115.406 164.126 115.406 164.086 114.686 164.326C111.166 165.526 108.886 168.686 108.886 172.086C108.886 175.686 110.766 178.246 113.486 179.166C113.806 179.286 114.286 179.406 114.566 179.406C114.886 179.406 115.046 179.206 115.046 178.966C115.046 178.686 114.726 178.566 114.446 178.446C112.766 177.726 111.566 176.006 111.566 174.166C111.566 171.886 113.126 170.166 115.566 169.486C116.206 169.326 116.286 169.366 116.366 169.806L118.366 181.726C118.446 182.166 118.406 182.166 117.806 182.286C117.166 182.406 116.366 182.486 115.566 182.486C108.566 182.486 104.046 178.606 104.046 173.046C104.046 170.686 104.446 167.526 107.766 163.766C110.166 161.086 112.006 159.606 113.886 158.086ZM118.486 169.166C121.726 169.446 124.406 172.166 124.406 175.686C124.406 178.206 122.886 180.246 120.646 181.366C120.166 181.606 120.086 181.606 120.006 181.126L118.046 169.726C117.966 169.246 118.006 169.126 118.486 169.166ZM119.646 136.126C120.966 136.126 122.046 137.206 122.046 139.406C122.046 142.166 120.726 144.726 117.606 147.846C116.966 148.486 116.006 149.406 115.086 150.206C114.806 150.446 114.646 150.406 114.566 149.886C114.406 148.846 114.326 147.486 114.326 146.206C114.326 139.966 117.206 136.126 119.646 136.126Z"></path></g><g></g><path d="M151.666 153.806C150.466 153.806 149.066 154.126 147.986 154.606C144.426 156.166 142.546 160.446 142.546 164.246C142.546 164.606 142.546 164.966 142.586 165.326C142.786 167.486 143.826 169.526 145.146 171.126C146.666 172.966 148.866 173.806 151.266 173.806C158.266 173.806 159.306 167.446 159.306 166.286C159.306 165.406 158.866 165.406 158.706 165.406C158.386 165.406 158.106 165.446 158.106 166.126C158.106 171.286 153.706 172.486 152.426 172.486C149.186 172.486 147.466 169.326 147.466 162.726C147.466 156.126 150.506 154.766 152.666 154.766C154.746 154.766 155.586 155.726 155.586 156.126C155.586 156.486 155.466 157.006 154.866 157.006C153.266 157.006 152.346 158.726 152.346 159.966C152.346 162.246 154.306 162.966 155.426 162.966C155.426 162.966 158.466 162.846 158.466 159.526C158.466 154.286 152.426 153.806 151.666 153.806Z"></path></g><g><line stroke="black" stroke-width="1.6" x1="237.60020619168415" x2="237.60020619168415" y1="143.8461538461538" y2="183.8461538461538"></line></g><g><path d="M211.463 158.206L211.463 154.526C211.463 153.926 210.983 153.486 210.423 153.486L201.223 153.486C200.623 153.486 200.183 153.926 200.183 154.526L200.183 158.206C200.183 158.766 200.623 159.246 201.223 159.246L210.423 159.246C210.983 159.246 211.463 158.766 211.463 158.206Z"></path></g></g><g><g></g><g><line stroke="#000000" stroke-width="5" x1="309.85425853721443" x2="309.85425853721443" y1="143.8461538461538" y2="183.8461538461538"></line><line stroke="#000000" stroke-width="1.6" x1="317.15425853721445" x2="317.15425853721445" y1="143.8461538461538" y2="183.8461538461538"></line></g><g><path d="M277.717 158.206L277.717 154.526C277.717 153.926 277.237 153.486 276.677 153.486L267.477 153.486C266.877 153.486 266.437 153.926 266.437 154.526L266.437 158.206C266.437 158.766 266.877 159.246 267.477 159.246L276.677 159.246C277.237 159.246 277.717 158.766 277.717 158.206Z"></path></g></g><g><g></g><g><line stroke="#000000" stroke-width="1.6" x1="387.7083108827447" x2="387.7083108827447" y1="143.8461538461538" y2="183.8461538461538"></line><line stroke="#000000" stroke-width="5" x1="395.0083108827447" x2="395.0083108827447" y1="143.8461538461538" y2="183.8461538461538"></line></g><g><path d="M352.771 158.206L352.771 154.526C352.771 153.926 352.291 153.486 351.731 153.486L342.531 153.486C341.931 153.486 341.491 153.926 341.491 154.526L341.491 158.206C341.491 158.766 341.931 159.246 342.531 159.246L351.731 159.246C352.291 159.246 352.771 158.766 352.771 158.206Z"></path></g></g><g><g></g><g><line stroke="black" stroke-width="1.6" x1="467.262363228275" x2="467.262363228275" y1="143.8461538461538" y2="183.8461538461538"></line></g><g><path d="M432.325 158.206L432.325 154.526C432.325 153.926 431.845 153.486 431.285 153.486L422.085 153.486C421.485 153.486 421.045 153.926 421.045 154.526L421.045 158.206C421.045 158.766 421.485 159.246 422.085 159.246L431.285 159.246C431.845 159.246 432.325 158.766 432.325 158.206Z"></path></g></g><g><g></g><g><line stroke="black" stroke-width="1.6" x1="537.8164155738052" x2="537.8164155738052" y1="143.8461538461538" y2="183.8461538461538"></line></g><g><path d="M507.379 158.206L507.379 154.526C507.379 153.926 506.899 153.486 506.339 153.486L497.139 153.486C496.539 153.486 496.099 153.926 496.099 154.526L496.099 158.206C496.099 158.766 496.539 159.246 497.139 159.246L506.339 159.246C506.899 159.246 507.379 158.766 507.379 158.206Z"></path></g></g><g><g></g><g><line stroke="black" stroke-width="1.6" x1="608.3704679193355" x2="608.3704679193355" y1="143.8461538461538" y2="183.8461538461538"></line></g><g><path d="M577.933 158.206L577.933 154.526C577.933 153.926 577.453 153.486 576.893 153.486L567.693 153.486C567.093 153.486 566.653 153.926 566.653 154.526L566.653 158.206C566.653 158.766 567.093 159.246 567.693 159.246L576.893 159.246C577.453 159.246 577.933 158.766 577.933 158.206Z"></path></g></g><g><g></g><g><line stroke="#000000" stroke-width="1.6" x1="678.9245202648658" x2="678.9245202648658" y1="143.8461538461538" y2="183.8461538461538"></line><line stroke="#000000" stroke-width="5" x1="686.2245202648659" x2="686.2245202648659" y1="143.8461538461538" y2="183.8461538461538"></line></g><g><path d="M648.487 158.206L648.487 154.526C648.487 153.926 648.007 153.486 647.447 153.486L638.247 153.486C637.647 153.486 637.207 153.926 637.207 154.526L637.207 158.206C637.207 158.766 637.647 159.246 638.247 159.246L647.447 159.246C648.007 159.246 648.487 158.766 648.487 158.206Z"></path></g></g><g><g></g><g><line stroke="#000000" stroke-width="1.6" x1="758.478572610396" x2="758.478572610396" y1="143.8461538461538" y2="183.8461538461538"></line><line stroke="#000000" stroke-width="5" x1="765.778572610396" x2="765.778572610396" y1="143.8461538461538" y2="183.8461538461538"></line></g><g><path d="M723.542 158.206L723.542 154.526C723.542 153.926 723.062 153.486 722.502 153.486L713.302 153.486C712.702 153.486 712.262 153.926 712.262 154.526L712.262 158.206C712.262 158.766 712.702 159.246 713.302 159.246L722.502 159.246C723.062 159.246 723.542 158.766 723.542 158.206Z"></path></g></g></svg>