<?xml version="1.0" encoding="UTF-8" standalone="no"?><svg xmlns="http://www.w3.org/2000/svg" height="279.4mm" viewBox="0 0 1328.6153846153845 1719.3846153846152" width="215.9mm"><g transform="translate(93.84615384615385)"><g><g><line stroke="#6A6A6A" stroke-width="1.3" x1="0" x2="607.5284259741948" y1="183.8461538461538" y2="183.8461538461538"></line><line stroke="#6A6A6A" stroke-width="1.3" x1="0" x2="607.5284259741948" y1="173.8461538461538" y2="173.8461538461538"></line><line stroke="#6A6A6A" stroke-width="1.3" x1="0" x2="607.5284259741948" y1="163.8461538461538" y2="163.8461538461538"></line><line stroke="#6A6A6A" stroke-width="1.3" x1="0" x2="607.5284259741948" y1="153.8461538461538" y2="153.8461538461538"></line><line stroke="#6A6A6A" stroke-width="1.3" x1="0" x2="607.5284259741948" y1="143.8461538461538" y2="143.8461538461538"></line></g><g><path d="M25.200 129.926C24.640 129.926 23.400 130.966 22.600 131.846C19.640 135.126 18.680 140.126 18.680 144.286C18.680 146.606 18.960 149.206 19.240 150.846C19.320 151.326 19.360 151.406 18.880 151.806C16.320 153.926 13.560 156.366 11.480 158.926C8.720 162.366 7 166.086 7 170.366C7 177.326 11.760 183.926 21.560 183.926C22.480 183.926 23.520 183.846 24.320 183.686C24.760 183.606 24.840 183.566 24.920 184.046C25.400 186.726 26 190.206 26 192.086C26 198.006 22 198.726 19.640 198.726C17.480 198.726 16.440 198.086 16.440 197.566C16.440 197.126 16.800 197.166 17.720 196.886C18.960 196.526 20.400 195.446 20.400 193.126C20.400 190.926 19 189.046 16.560 189.046C13.880 189.046 12.280 191.166 12.280 193.646C12.280 196.246 13.840 200.166 19.880 200.166C22.560 200.166 27.760 198.966 27.760 192.166C27.760 189.886 27.040 186.086 26.600 183.606C26.520 183.126 26.560 183.166 27.120 182.926C31.160 181.326 33.840 177.926 33.840 173.406C33.840 168.286 30.080 163.766 24.200 163.766C23.080 163.766 23.200 163.966 23.040 163.046L22.040 157.246C21.960 156.766 22.040 156.726 22.280 156.486C22.920 155.886 23.760 155.046 24.520 154.206C27.880 150.526 29.880 145.766 29.880 141.246C29.880 137.766 28.920 134.326 27.280 131.926C26.680 131.046 25.640 129.926 25.200 129.926ZM20.040 158.086C20.440 157.766 20.520 157.806 20.600 158.246L21.440 163.366C21.560 164.126 21.560 164.086 20.840 164.326C17.320 165.526 15.040 168.686 15.040 172.086C15.040 175.686 16.920 178.246 19.640 179.166C19.960 179.286 20.440 179.406 20.720 179.406C21.040 179.406 21.200 179.206 21.200 178.966C21.200 178.686 20.880 178.566 20.600 178.446C18.920 177.726 17.720 176.006 17.720 174.166C17.720 171.886 19.280 170.166 21.720 169.486C22.360 169.326 22.440 169.366 22.520 169.806L24.520 181.726C24.600 182.166 24.560 182.166 23.960 182.286C23.320 182.406 22.520 182.486 21.720 182.486C14.720 182.486 10.200 178.606 10.200 173.046C10.200 170.686 10.600 167.526 13.920 163.766C16.320 161.086 18.160 159.606 20.040 158.086ZM24.640 169.166C27.880 169.446 30.560 172.166 30.560 175.686C30.560 178.206 29.040 180.246 26.800 181.366C26.320 181.606 26.240 181.606 26.160 181.126L24.200 169.726C24.120 169.246 24.160 169.126 24.640 169.166ZM25.800 136.126C27.120 136.126 28.200 137.206 28.200 139.406C28.200 142.166 26.880 144.726 23.760 147.846C23.120 148.486 22.160 149.406 21.240 150.206C20.960 150.446 20.800 150.406 20.720 149.886C20.560 148.846 20.480 147.486 20.480 146.206C20.480 139.966 23.360 136.126 25.800 136.126Z"></path></g><g></g><path d="M57.820 153.806C56.620 153.806 55.220 154.126 54.140 154.606C50.580 156.166 48.700 160.446 48.700 164.246C48.700 164.606 48.700 164.966 48.740 165.326C48.940 167.486 49.980 169.526 51.300 171.126C52.820 172.966 55.020 173.806 57.420 173.806C64.420 173.806 65.460 167.446 65.460 166.286C65.460 165.406 65.020 165.406 64.860 165.406C64.540 165.406 64.260 165.446 64.260 166.126C64.260 171.286 59.860 172.486 58.580 172.486C55.340 172.486 53.620 169.326 53.620 162.726C53.620 156.126 56.660 154.766 58.820 154.766C60.900 154.766 61.740 155.726 61.740 156.126C61.740 156.486 61.620 157.006 61.020 157.006C59.420 157.006 58.500 158.726 58.500 159.966C58.500 162.246 60.460 162.966 61.580 162.966C61.580 162.966 64.620 162.846 64.620 159.526C64.620 154.286 58.580 153.806 57.820 153.806Z"></path></g><g><line stroke="black" stroke-width="1.6" x1="175.58928511024098" x2="175.58928511024098" y1="143.8461538461538" y2="183.8461538461538"></line></g><g><g><path d="M93.360 189.486C97.360 189.486 102.280 185.766 102.280 181.966C102.280 179.686 100.480 178.206 97.880 178.206C92.960 178.206 89 181.846 89 185.726C89 188.086 90.920 189.486 93.360 189.486Z"></path></g><line stroke="#000000" stroke-width="1.2" x1="101.68" x2="101.68" y1="182.0061538461538" y2="147.0061538461538"></line></g><g><g><path d="M146.780 189.486C150.780 189.486 155.700 185.766 155.700 181.966C155.700 179.686 153.900 178.206 151.300 178.206C146.380 178.206 142.420 181.846 142.420 185.726C142.420 188.086 144.340 189.486 146.780 189.486Z"></path></g><line stroke="#000000" stroke-width="1.2" x1="155.0998772662791" x2="155.0998772662791" y1="182.0061538461538" y2="147.0061538461538"></line><path d="M164.020 173.086C164.020 173.086 165.060 169.286 165.060 166.166C165.060 161.166 162.980 156.446 160.460 152.446C158.420 149.286 156.740 145.846 156.100 142.006C155.980 141.366 155.660 141.126 154.900 141.126C154.660 141.126 154.500 141.246 154.500 141.726L154.500 151.286C157.140 151.766 160.940 157.206 162.380 160.606C162.980 161.966 163.340 164.246 163.340 166.606C163.340 168.406 163.060 170.286 162.380 172.086C162.300 172.326 162.260 172.526 162.260 172.686C162.260 173.326 162.660 173.686 162.900 173.846C163.140 174.006 163.820 173.766 164.020 173.086Z"></path></g></g><g transform="translate(285.2354389563948)"><g></g><g></g><g><g><path d="M4.360 184.486C8.360 184.486 13.280 180.766 13.280 176.966C13.280 174.686 11.480 173.206 8.880 173.206C3.960 173.206 0 176.846 0 180.726C0 183.086 1.920 184.486 4.360 184.486Z"></path></g><line stroke="#000000" stroke-width="1.2" x1="12.680000000000001" x2="12.680000000000001" y1="177.0061538461538" y2="139.0061538461538"></line></g><g><g><path d="M57.780 179.486C61.780 179.486 66.700 175.766 66.700 171.966C66.700 169.686 64.900 168.206 62.300 168.206C57.380 168.206 53.420 171.846 53.420 175.726C53.420 178.086 55.340 179.486 57.780 179.486Z"></path></g><line stroke="#000000" stroke-width="1.2" x1="66.09987726627911" x2="66.09987726627911" y1="172.0061538461538" y2="137.0061538461538"></line></g></g><g transform="translate(407.075193488953)"><g></g><g><line stroke="black" stroke-width="1.6" x1="107.63975453255821" x2="107.63975453255821" y1="143.8461538461538" y2="183.8461538461538"></line></g><g><g><path d="M4.360 174.486C8.360 174.486 13.280 170.766 13.280 166.966C13.280 164.686 11.480 163.206 8.880 163.206C3.960 163.206 0 166.846 0 170.726C0 173.086 1.920 174.486 4.360 174.486Z"></path></g><line stroke="#000000" stroke-width="1.2" x1="12.680000000000001" x2="12.680000000000001" y1="167.0061538461538" y2="129.0061538461538"></line></g><g><g><path d="M57.780 169.486C61.780 169.486 66.700 165.766 66.700 161.966C66.700 159.686 64.900 158.206 62.300 158.206C57.380 158.206 53.420 161.846 53.420 165.726C53.420 168.086 55.340 169.486 57.780 169.486Z"></path></g><line stroke="#000000" stroke-width="1.2" x1="66.09987726627911" x2="66.09987726627911" y1="162.0061538461538" y2="127.00615384615381"></line></g></g><g transform="translate(530.5149480215113)"><g></g><g><line stroke="#000000" stroke-width="1.6" x1="161.05963179883733" x2="161.05963179883733" y1="143.8461538461538" y2="183.8461538461538"></line><line stroke="#000000" stroke-width="5" x1="168.3596317988373" x2="168.3596317988373" y1="143.8461538461538" y2="183.8461538461538"></line></g><g><g><path d="M4.360 164.486C8.360 164.486 13.280 160.766 13.280 156.966C13.280 154.686 11.480 153.206 8.880 153.206C3.960 153.206 0 156.846 0 160.726C0 163.086 1.920 164.486 4.360 164.486Z"></path></g><line stroke="#000000" stroke-width="1.2" x1="0.6" x2="0.6" y1="160.68615384615381" y2="198.68615384615381"></line></g><g><g><path d="M57.780 159.486C61.780 159.486 66.700 155.766 66.700 151.966C66.700 149.686 64.900 148.206 62.300 148.206C57.380 148.206 53.420 151.846 53.420 155.726C53.420 158.086 55.340 159.486 57.780 159.486Z"></path></g><line stroke="#000000" stroke-width="1.2" x1="54.01987726627911" x2="54.01987726627911" y1="155.68615384615381" y2="190.68615384615381"></line></g><g><path d="M116.160 170.286C114.640 168.446 113.400 166.966 113.400 164.726C113.400 164.566 113.440 164.366 113.440 164.206C113.600 161.886 115.040 159.966 116.080 158.326C116.200 158.126 116.240 157.926 116.240 157.726C116.240 157.326 116.080 156.966 116.080 156.966C116.080 156.966 110.160 149.926 109.480 149.246C109.280 149.046 109.000 148.926 108.760 148.926C108.360 148.926 107.960 149.206 107.960 149.766C107.960 149.966 108.000 150.166 108.120 150.406C108.280 150.846 110.560 152.886 110.560 155.766C110.560 157.246 109.960 158.966 108.160 160.846C107.760 161.246 107.600 161.686 107.600 162.006C107.600 162.566 108.000 162.966 108.000 162.966L109.960 165.366C110.600 166.166 111.160 166.926 111.680 167.766C111.760 167.926 111.920 168.126 111.920 168.326C111.920 168.366 111.920 168.446 111.880 168.486C111.800 168.646 111.640 168.686 111.440 168.686C111.200 168.686 110.960 168.606 110.800 168.566C110.600 168.566 110.360 168.446 110.160 168.446C108.440 168.446 106.880 170.166 106.880 172.286C106.880 174.286 108.600 176.246 111.520 178.486C111.840 178.726 112.240 178.846 112.560 178.846C112.840 178.846 113.120 178.766 113.160 178.606C113.200 178.486 113.240 178.406 113.240 178.326C113.240 177.966 112.920 177.646 112.600 177.366C112.080 177.366 111.640 176.286 111.560 175.926C111.440 175.606 111.400 175.246 111.400 174.886C111.400 173.646 112.000 172.246 113.280 172.006C113.480 171.966 113.680 171.966 113.920 171.966C115.080 171.966 116.400 172.406 117.040 172.646C117.080 172.646 117.120 172.686 117.160 172.686C117.280 172.726 117.360 172.726 117.440 172.726C117.560 172.726 117.640 172.686 117.640 172.566C117.640 172.086 116.600 170.766 116.160 170.286Z"></path></g></g></svg>