<?xml version="1.0" encoding="UTF-8" standalone="no"?><svg xmlns="http://www.w3.org/2000/svg" height="279.4mm" viewBox="0 0 1328.6153846153845 1719.3846153846152" width="215.9mm"><g transform="translate(163.84615384615387)"><g><g><line stroke="#6A6A6A" stroke-width="1.3" x1="0" x2="292.24094263480663" y1="183.8461538461538" y2="183.8461538461538"></line><line stroke="#6A6A6A" stroke-width="1.3" x1="0" x2="292.24094263480663" y1="173.8461538461538" y2="173.8461538461538"></line><line stroke="#6A6A6A" stroke-width="1.3" x1="0" x2="292.24094263480663" y1="163.8461538461538" y2="163.8461538461538"></line><line stroke="#6A6A6A" stroke-width="1.3" x1="0" x2="292.24094263480663" y1="153.8461538461538" y2="153.8461538461538"></line><line stroke="#6A6A6A" stroke-width="1.3" x1="0" x2="292.24094263480663" y1="143.8461538461538" y2="143.8461538461538"></line></g><g><path d="M25.200 129.926C24.640 129.926 23.400 130.966 22.600 131.846C19.640 135.126 18.680 140.126 18.680 144.286C18.680 146.606 18.960 149.206 19.240 150.846C19.320 151.326 19.360 151.406 18.880 151.806C16.320 153.926 13.560 156.366 11.480 158.926C8.720 162.366 7 166.086 7 170.366C7 177.326 11.760 183.926 21.560 183.926C22.480 183.926 23.520 183.846 24.320 183.686C24.760 183.606 24.840 183.566 24.920 184.046C25.400 186.726 26 190.206 26 192.086C26 198.006 22 198.726 19.640 198.726C17.480 198.726 16.440 198.086 16.440 197.566C16.440 197.126 16.800 197.166 17.720 196.886C18.960 196.526 20.400 195.446 20.400 193.126C20.400 190.926 19 189.046 16.560 189.046C13.880 189.046 12.280 191.166 12.280 193.646C12.280 196.246 13.840 200.166 19.880 200.166C22.560 200.166 27.760 198.966 27.760 192.166C27.760 189.886 27.040 186.086 26.600 183.606C26.520 183.126 26.560 183.166 27.120 182.926C31.160 181.326 33.840 177.926 33.840 173.406C33.840 168.286 30.080 163.766 24.200 163.766C23.080 163.766 23.200 163.966 23.040 163.046L22.040 157.246C21.960 156.766 22.040 156.726 22.280 156.486C22.920 155.886 23.760 155.046 24.520 154.206C27.880 150.526 29.880 145.766 29.880 141.246C29.880 137.766 28.920 134.326 27.280 131.926C26.680 131.046 25.640 129.926 25.200 129.926ZM20.040 158.086C20.440 157.766 20.520 157.806 20.600 158.246L21.440 163.366C21.560 164.126 21.560 164.086 20.840 164.326C17.320 165.526 15.040 168.686 15.040 172.086C15.040 175.686 16.920 178.246 19.640 179.166C19.960 179.286 20.440 179.406 20.720 179.406C21.040 179.406 21.200 179.206 21.200 178.966C21.200 178.686 20.880 178.566 20.600 178.446C18.920 177.726 17.720 176.006 17.720 174.166C17.720 171.886 19.280 170.166 21.720 169.486C22.360 169.326 22.440 169.366 22.520 169.806L24.520 181.726C24.600 182.166 24.560 182.166 23.960 182.286C23.320 182.406 22.520 182.486 21.720 182.486C14.720 182.486 10.200 178.606 10.200 173.046C10.200 170.686 10.600 167.526 13.920 163.766C16.320 161.086 18.160 159.606 20.040 158.086ZM24.640 169.166C27.880 169.446 30.560 172.166 30.560 175.686C30.560 178.206 29.040 180.246 26.800 181.366C26.320 181.606 26.240 181.606 26.160 181.126L24.200 169.726C24.120 169.246 24.160 169.126 24.640 169.166ZM25.800 136.126C27.120 136.126 28.200 137.206 28.200 139.406C28.200 142.166 26.880 144.726 23.760 147.846C23.120 148.486 22.160 149.406 21.240 150.206C20.960 150.446 20.800 150.406 20.720 149.886C20.560 148.846 20.480 147.486 20.480 146.206C20.480 139.966 23.360 136.126 25.800 136.126Z"></path></g><g></g><path d="M57.820 153.806C56.620 153.806 55.220 154.126 54.140 154.606C50.580 156.166 48.700 160.446 48.700 164.246C48.700 164.606 48.700 164.966 48.740 165.326C48.940 167.486 49.980 169.526 51.300 171.126C52.820 172.966 55.020 173.806 57.420 173.806C64.420 173.806 65.460 167.446 65.460 166.286C65.460 165.406 65.020 165.406 64.860 165.406C64.540 165.406 64.260 165.446 64.260 166.126C64.260 171.286 59.860 172.486 58.580 172.486C55.340 172.486 53.620 169.326 53.620 162.726C53.620 156.126 56.660 154.766 58.820 154.766C60.900 154.766 61.740 155.726 61.740 156.126C61.740 156.486 61.620 157.006 61.020 157.006C59.420 157.006 58.500 158.726 58.500 159.966C58.500 162.246 60.460 162.966 61.580 162.966C61.580 162.966 64.620 162.846 64.620 159.526C64.620 154.286 58.580 153.806 57.820 153.806Z"></path></g><g><line stroke="black" stroke-width="1.6" x1="293.04094263480664" x2="293.04094263480664" y1="143.8461538461538" y2="183.8461538461538"></line></g><g><g><path d="M101.448 194.486C105.448 194.486 110.368 190.766 110.368 186.966C110.368 184.686 108.568 183.206 105.968 183.206C101.048 183.206 97.088 186.846 97.088 190.726C97.088 193.086 99.008 194.486 101.448 194.486Z"></path><path d="M86.488 195.646C86.608 195.806 86.728 195.846 86.848 195.846C86.968 195.846 87.088 195.766 87.088 195.766C88.288 195.086 89.248 194.006 90.248 193.326C93.808 190.846 95.048 188.406 95.048 186.566C95.048 184.286 93.288 182.846 91.448 182.726C91.168 182.726 90.888 182.766 90.608 182.846C90.168 182.966 89.688 183.126 89.248 183.406C89.008 183.606 88.728 183.966 88.368 183.966C88.288 183.966 88.248 183.966 88.168 183.926C87.888 183.806 87.728 183.526 87.728 183.246C87.768 182.366 88.008 172.766 88.008 171.966C88.008 171.526 87.648 171.286 87.248 171.286C86.688 171.286 86.048 171.686 86.008 172.406C86.008 172.406 86.168 195.246 86.488 195.646ZM87.888 192.086C87.888 192.086 87.768 189.686 87.768 188.086C87.768 187.446 87.808 186.966 87.848 186.806C88.008 186.326 89.048 185.446 89.608 185.126C89.968 184.926 90.328 184.846 90.648 184.846C91.048 184.846 91.408 185.006 91.648 185.286C92.048 185.726 92.288 186.406 92.288 187.166C92.288 187.886 92.088 188.726 91.608 189.566C91.088 190.526 89.928 191.806 88.728 192.566C88.568 192.646 88.448 192.686 88.328 192.686C87.968 192.686 87.888 192.286 87.888 192.086Z"></path></g><line stroke="#000000" stroke-width="1.2" x1="109.76840000000001" x2="109.76840000000001" y1="187.0061538461538" y2="152.0061538461538"></line></g><g><g><path d="M155.909 194.486C159.909 194.486 164.829 190.766 164.829 186.966C164.829 184.686 163.029 183.206 160.429 183.206C155.509 183.206 151.549 186.846 151.549 190.726C151.549 193.086 153.469 194.486 155.909 194.486Z"></path><g><path d="M133.989 198.206C133.989 198.086 133.949 198.006 133.829 197.966C131.309 195.926 129.829 193.286 129.829 188.846C129.829 184.406 131.189 181.726 133.869 179.766C133.989 179.646 133.989 179.446 133.989 179.446C133.989 179.446 133.989 179.166 133.989 179.006C133.989 178.926 133.949 178.846 133.829 178.846C133.829 178.846 133.829 178.886 133.829 178.886C129.469 181.286 127.469 184.766 127.469 188.846C127.469 192.886 129.389 196.406 133.829 198.846C133.829 198.886 133.869 198.886 133.949 198.886C133.949 198.886 133.989 198.766 133.989 198.726Z"></path><path d="M134.949 195.646C135.069 195.806 135.189 195.846 135.309 195.846C135.429 195.846 135.549 195.766 135.549 195.766C136.749 195.086 137.709 194.006 138.709 193.326C142.269 190.846 143.509 188.406 143.509 186.566C143.509 184.286 141.749 182.846 139.909 182.726C139.629 182.726 139.349 182.766 139.069 182.846C138.629 182.966 138.149 183.126 137.709 183.406C137.469 183.606 137.189 183.966 136.829 183.966C136.749 183.966 136.709 183.966 136.629 183.926C136.349 183.806 136.189 183.526 136.189 183.246C136.229 182.366 136.469 172.766 136.469 171.966C136.469 171.526 136.109 171.286 135.709 171.286C135.149 171.286 134.509 171.686 134.469 172.406C134.469 172.406 134.629 195.246 134.949 195.646ZM136.349 192.086C136.349 192.086 136.229 189.686 136.229 188.086C136.229 187.446 136.269 186.966 136.309 186.806C136.469 186.326 137.509 185.446 138.069 185.126C138.429 184.926 138.789 184.846 139.109 184.846C139.509 184.846 139.869 185.006 140.109 185.286C140.509 185.726 140.749 186.406 140.749 187.166C140.749 187.886 140.549 188.726 140.069 189.566C139.549 190.526 138.389 191.806 137.189 192.566C137.029 192.646 136.909 192.686 136.789 192.686C136.429 192.686 136.349 192.286 136.349 192.086Z"></path><path d="M143.509 198.726C143.509 198.766 143.549 198.886 143.549 198.886C143.629 198.886 143.669 198.886 143.669 198.846C148.109 196.406 150.029 192.886 150.029 188.846C150.029 184.766 148.029 181.286 143.669 178.886C143.669 178.886 143.669 178.846 143.669 178.846C143.549 178.846 143.509 178.926 143.509 179.006C143.509 179.166 143.509 179.446 143.509 179.446C143.509 179.446 143.509 179.646 143.629 179.766C146.309 181.726 147.669 184.406 147.669 188.846C147.669 193.286 146.189 195.926 143.669 197.966C143.549 198.006 143.509 198.086 143.509 198.206Z"></path></g></g><line stroke="#000000" stroke-width="1.2" x1="164.22863565870165" x2="164.22863565870165" y1="187.0061538461538" y2="152.0061538461538"></line></g><g><g><path d="M203.069 194.486C207.069 194.486 211.989 190.766 211.989 186.966C211.989 184.686 210.189 183.206 207.589 183.206C202.669 183.206 198.709 186.846 198.709 190.726C198.709 193.086 200.629 194.486 203.069 194.486Z"></path><path d="M188.109 195.646C188.229 195.806 188.349 195.846 188.469 195.846C188.589 195.846 188.709 195.766 188.709 195.766C189.909 195.086 190.869 194.006 191.869 193.326C195.429 190.846 196.669 188.406 196.669 186.566C196.669 184.286 194.909 182.846 193.069 182.726C192.789 182.726 192.509 182.766 192.229 182.846C191.789 182.966 191.309 183.126 190.869 183.406C190.629 183.606 190.349 183.966 189.989 183.966C189.909 183.966 189.869 183.966 189.789 183.926C189.509 183.806 189.349 183.526 189.349 183.246C189.389 182.366 189.629 172.766 189.629 171.966C189.629 171.526 189.269 171.286 188.869 171.286C188.309 171.286 187.669 171.686 187.629 172.406C187.629 172.406 187.789 195.246 188.109 195.646ZM189.509 192.086C189.509 192.086 189.389 189.686 189.389 188.086C189.389 187.446 189.429 186.966 189.469 186.806C189.629 186.326 190.669 185.446 191.229 185.126C191.589 184.926 191.949 184.846 192.269 184.846C192.669 184.846 193.029 185.006 193.269 185.286C193.669 185.726 193.909 186.406 193.909 187.166C193.909 187.886 193.709 188.726 193.229 189.566C192.709 190.526 191.549 191.806 190.349 192.566C190.189 192.646 190.069 192.686 189.949 192.686C189.589 192.686 189.509 192.286 189.509 192.086Z"></path></g><line stroke="#000000" stroke-width="1.2" x1="211.38887131740333" x2="211.38887131740333" y1="187.0061538461538" y2="152.0061538461538"></line></g><g><g><path d="M257.529 194.486C261.529 194.486 266.449 190.766 266.449 186.966C266.449 184.686 264.649 183.206 262.049 183.206C257.129 183.206 253.169 186.846 253.169 190.726C253.169 193.086 255.089 194.486 257.529 194.486Z"></path><g><path d="M235.609 198.206C235.609 198.086 235.569 198.006 235.449 197.966C232.929 195.926 231.449 193.286 231.449 188.846C231.449 184.406 232.809 181.726 235.489 179.766C235.609 179.646 235.609 179.446 235.609 179.446C235.609 179.446 235.609 179.166 235.609 179.006C235.609 178.926 235.569 178.846 235.449 178.846C235.449 178.846 235.449 178.886 235.449 178.886C231.089 181.286 229.089 184.766 229.089 188.846C229.089 192.886 231.009 196.406 235.449 198.846C235.449 198.886 235.489 198.886 235.569 198.886C235.569 198.886 235.609 198.766 235.609 198.726Z"></path><path d="M236.569 195.646C236.689 195.806 236.809 195.846 236.929 195.846C237.049 195.846 237.169 195.766 237.169 195.766C238.369 195.086 239.329 194.006 240.329 193.326C243.889 190.846 245.129 188.406 245.129 186.566C245.129 184.286 243.369 182.846 241.529 182.726C241.249 182.726 240.969 182.766 240.689 182.846C240.249 182.966 239.769 183.126 239.329 183.406C239.089 183.606 238.809 183.966 238.449 183.966C238.369 183.966 238.329 183.966 238.249 183.926C237.969 183.806 237.809 183.526 237.809 183.246C237.849 182.366 238.089 172.766 238.089 171.966C238.089 171.526 237.729 171.286 237.329 171.286C236.769 171.286 236.129 171.686 236.089 172.406C236.089 172.406 236.249 195.246 236.569 195.646ZM237.969 192.086C237.969 192.086 237.849 189.686 237.849 188.086C237.849 187.446 237.889 186.966 237.929 186.806C238.089 186.326 239.129 185.446 239.689 185.126C240.049 184.926 240.409 184.846 240.729 184.846C241.129 184.846 241.489 185.006 241.729 185.286C242.129 185.726 242.369 186.406 242.369 187.166C242.369 187.886 242.169 188.726 241.689 189.566C241.169 190.526 240.009 191.806 238.809 192.566C238.649 192.646 238.529 192.686 238.409 192.686C238.049 192.686 237.969 192.286 237.969 192.086Z"></path><path d="M245.129 198.726C245.129 198.766 245.169 198.886 245.169 198.886C245.249 198.886 245.289 198.886 245.289 198.846C249.729 196.406 251.649 192.886 251.649 188.846C251.649 184.766 249.649 181.286 245.289 178.886C245.289 178.886 245.289 178.846 245.289 178.846C245.169 178.846 245.129 178.926 245.129 179.006C245.129 179.166 245.129 179.446 245.129 179.446C245.129 179.446 245.129 179.646 245.249 179.766C247.929 181.726 249.289 184.406 249.289 188.846C249.289 193.286 247.809 195.926 245.289 197.966C245.169 198.006 245.129 198.086 245.129 198.206Z"></path></g></g><line stroke="#000000" stroke-width="1.2" x1="265.84910697610496" x2="265.84910697610496" y1="187.0061538461538" y2="152.0061538461538"></line></g></g><g transform="translate(472.6870964809605)"><g><g><line stroke="#6A6A6A" stroke-width="1.3" x1="-16.600000000000023" x2="692.3004279044198" y1="183.8461538461538" y2="183.8461538461538"></line><line stroke="#6A6A6A" stroke-width="1.3" x1="-16.600000000000023" x2="692.3004279044198" y1="173.8461538461538" y2="173.8461538461538"></line><line stroke="#6A6A6A" stroke-width="1.3" x1="-16.600000000000023" x2="692.3004279044198" y1="163.8461538461538" y2="163.8461538461538"></line><line stroke="#6A6A6A" stroke-width="1.3" x1="-16.600000000000023" x2="692.3004279044198" y1="153.8461538461538" y2="153.8461538461538"></line><line stroke="#6A6A6A" stroke-width="1.3" x1="-16.600000000000023" x2="692.3004279044198" y1="143.8461538461538" y2="143.8461538461538"></line></g></g><g><line stroke="black" stroke-width="1.6" x1="212.74254263480665" x2="212.74254263480665" y1="143.8461538461538" y2="183.8461538461538"></line></g><g><g><path d="M14.624 199.486C18.624 199.486 23.544 195.766 23.544 191.966C23.544 189.686 21.744 188.206 19.144 188.206C14.224 188.206 10.264 191.846 10.264 195.726C10.264 198.086 12.184 199.486 14.624 199.486Z"></path><path d="M5.684 189.126C5.964 189.006 6.164 188.686 6.164 188.446L6.164 185.606C6.164 185.406 6.044 185.286 5.884 185.286C5.804 185.286 5.764 185.286 5.684 185.326C5.684 185.326 4.884 185.646 4.684 185.686C4.404 185.686 4.124 185.486 4.124 185.166C4.124 184.766 4.124 180.286 4.124 180.286C4.124 180.046 3.884 179.846 3.564 179.846C3.164 179.846 2.924 180.046 2.924 180.286C2.924 180.286 2.924 185.086 2.924 185.486C2.884 185.886 2.764 186.406 2.404 186.646C1.924 186.926 0.564 187.486-0.116 187.646C-0.476 187.646-0.596 187.166-0.596 186.846C-0.596 186.446-0.596 182.046-0.596 182.046C-0.596 181.806-0.876 181.606-1.156 181.606C-1.556 181.606-1.796 181.806-1.796 182.046C-1.796 182.046-1.796 184.206-1.796 185.806L-1.796 187.446C-1.796 188.006-2.036 188.406-2.276 188.526C-2.516 188.646-3.316 188.966-3.316 188.966C-3.596 189.046-3.796 189.366-3.796 189.606L-3.796 192.446C-3.796 192.686-3.676 192.806-3.476 192.806C-3.436 192.806-3.356 192.766-3.316 192.766C-3.316 192.766-2.716 192.526-2.436 192.366C-2.396 192.366-2.356 192.326-2.316 192.326C-2.036 192.326-1.796 192.726-1.796 193.046L-1.796 197.006C-1.796 197.446-1.996 197.806-2.236 197.926C-2.476 198.006-3.316 198.366-3.316 198.366C-3.596 198.446-3.796 198.766-3.796 199.006L-3.796 201.846C-3.796 202.086-3.676 202.206-3.476 202.206C-3.436 202.206-3.356 202.166-3.316 202.166C-3.316 202.166-2.756 201.926-2.396 201.806C-2.356 201.766-2.316 201.766-2.276 201.766C-1.996 201.766-1.796 202.206-1.796 202.406C-1.796 202.646-1.796 207.326-1.796 207.326C-1.796 207.566-1.556 207.766-1.276 207.766C-0.876 207.766-0.596 207.566-0.596 207.326C-0.596 207.326-0.596 202.246-0.596 201.766C-0.596 201.246-0.396 200.966-0.196 200.886L2.244 199.886C2.284 199.886 2.364 199.846 2.404 199.846C2.724 199.846 2.924 200.326 2.924 200.566C2.924 200.846 2.924 205.566 2.924 205.566C2.924 205.806 3.164 206.006 3.444 206.006C3.884 206.006 4.124 205.806 4.124 205.566C4.124 205.566 4.124 200.166 4.124 199.886C4.124 199.566 4.284 199.086 4.564 198.966C4.844 198.846 5.684 198.526 5.684 198.526C5.964 198.406 6.164 198.086 6.164 197.846L6.164 195.006C6.164 194.806 6.044 194.686 5.884 194.686C5.804 194.686 5.764 194.686 5.684 194.726C5.684 194.726 4.844 195.046 4.644 195.126C4.404 195.126 4.124 194.886 4.124 194.406L4.124 190.686C4.124 190.406 4.324 189.646 4.644 189.526C4.964 189.406 5.684 189.126 5.684 189.126ZM2.924 195.646C2.684 196.446 0.804 197.246-0.116 197.246C-0.356 197.246-0.556 197.166-0.596 197.046C-0.676 196.886-0.716 196.006-0.716 195.046C-0.716 193.806-0.676 192.406-0.596 192.086C-0.516 191.406 1.324 190.566 2.324 190.566C2.604 190.566 2.844 190.646 2.924 190.806C3.004 191.006 3.084 192.006 3.084 193.086C3.084 194.166 3.004 195.286 2.924 195.646Z"></path></g><line stroke="#000000" stroke-width="1.2" x1="22.943800000000003" x2="22.943800000000003" y1="192.0061538461538" y2="157.0061538461538"></line><line stroke="#000000" stroke-width="2.2" x1="7.0638" x2="28.9838" y1="193.8461538461538" y2="193.8461538461538"></line></g><g><g><path d="M71.259 199.486C75.259 199.486 80.179 195.766 80.179 191.966C80.179 189.686 78.379 188.206 75.779 188.206C70.859 188.206 66.899 191.846 66.899 195.726C66.899 198.086 68.819 199.486 71.259 199.486Z"></path><g><path d="M46.359 203.206C46.359 203.086 46.319 203.006 46.199 202.966C43.679 200.926 42.199 198.286 42.199 193.846C42.199 189.406 43.559 186.726 46.239 184.766C46.359 184.646 46.359 184.446 46.359 184.446C46.359 184.446 46.359 184.166 46.359 184.006C46.359 183.926 46.319 183.846 46.199 183.846C46.199 183.846 46.199 183.886 46.199 183.886C41.839 186.286 39.839 189.766 39.839 193.846C39.839 197.886 41.759 201.406 46.199 203.846C46.199 203.886 46.239 203.886 46.319 203.886C46.319 203.886 46.359 203.766 46.359 203.726Z"></path><path d="M56.319 189.126C56.599 189.006 56.799 188.686 56.799 188.446L56.799 185.606C56.799 185.406 56.679 185.286 56.519 185.286C56.439 185.286 56.399 185.286 56.319 185.326C56.319 185.326 55.519 185.646 55.319 185.686C55.039 185.686 54.759 185.486 54.759 185.166C54.759 184.766 54.759 180.286 54.759 180.286C54.759 180.046 54.519 179.846 54.199 179.846C53.799 179.846 53.559 180.046 53.559 180.286C53.559 180.286 53.559 185.086 53.559 185.486C53.519 185.886 53.399 186.406 53.039 186.646C52.559 186.926 51.199 187.486 50.519 187.646C50.159 187.646 50.039 187.166 50.039 186.846C50.039 186.446 50.039 182.046 50.039 182.046C50.039 181.806 49.759 181.606 49.479 181.606C49.079 181.606 48.839 181.806 48.839 182.046C48.839 182.046 48.839 184.206 48.839 185.806L48.839 187.446C48.839 188.006 48.599 188.406 48.359 188.526C48.119 188.646 47.319 188.966 47.319 188.966C47.039 189.046 46.839 189.366 46.839 189.606L46.839 192.446C46.839 192.686 46.959 192.806 47.159 192.806C47.199 192.806 47.279 192.766 47.319 192.766C47.319 192.766 47.919 192.526 48.199 192.366C48.239 192.366 48.279 192.326 48.319 192.326C48.599 192.326 48.839 192.726 48.839 193.046L48.839 197.006C48.839 197.446 48.639 197.806 48.399 197.926C48.159 198.006 47.319 198.366 47.319 198.366C47.039 198.446 46.839 198.766 46.839 199.006L46.839 201.846C46.839 202.086 46.959 202.206 47.159 202.206C47.199 202.206 47.279 202.166 47.319 202.166C47.319 202.166 47.879 201.926 48.239 201.806C48.279 201.766 48.319 201.766 48.359 201.766C48.639 201.766 48.839 202.206 48.839 202.406C48.839 202.646 48.839 207.326 48.839 207.326C48.839 207.566 49.079 207.766 49.359 207.766C49.759 207.766 50.039 207.566 50.039 207.326C50.039 207.326 50.039 202.246 50.039 201.766C50.039 201.246 50.239 200.966 50.439 200.886L52.879 199.886C52.919 199.886 52.999 199.846 53.039 199.846C53.359 199.846 53.559 200.326 53.559 200.566C53.559 200.846 53.559 205.566 53.559 205.566C53.559 205.806 53.799 206.006 54.079 206.006C54.519 206.006 54.759 205.806 54.759 205.566C54.759 205.566 54.759 200.166 54.759 199.886C54.759 199.566 54.919 199.086 55.199 198.966C55.479 198.846 56.319 198.526 56.319 198.526C56.599 198.406 56.799 198.086 56.799 197.846L56.799 195.006C56.799 194.806 56.679 194.686 56.519 194.686C56.439 194.686 56.399 194.686 56.319 194.726C56.319 194.726 55.479 195.046 55.279 195.126C55.039 195.126 54.759 194.886 54.759 194.406L54.759 190.686C54.759 190.406 54.959 189.646 55.279 189.526C55.599 189.406 56.319 189.126 56.319 189.126ZM53.559 195.646C53.319 196.446 51.439 197.246 50.519 197.246C50.279 197.246 50.079 197.166 50.039 197.046C49.959 196.886 49.919 196.006 49.919 195.046C49.919 193.806 49.959 192.406 50.039 192.086C50.119 191.406 51.959 190.566 52.959 190.566C53.239 190.566 53.479 190.646 53.559 190.806C53.639 191.006 53.719 192.006 53.719 193.086C53.719 194.166 53.639 195.286 53.559 195.646Z"></path><path d="M56.799 203.726C56.799 203.766 56.839 203.886 56.839 203.886C56.919 203.886 56.959 203.886 56.959 203.846C61.399 201.406 63.319 197.886 63.319 193.846C63.319 189.766 61.319 186.286 56.959 183.886C56.959 183.886 56.959 183.846 56.959 183.846C56.839 183.846 56.799 183.926 56.799 184.006C56.799 184.166 56.799 184.446 56.799 184.446C56.799 184.446 56.799 184.646 56.919 184.766C59.599 186.726 60.959 189.406 60.959 193.846C60.959 198.286 59.479 200.926 56.959 202.966C56.839 203.006 56.799 203.086 56.799 203.206Z"></path></g></g><line stroke="#000000" stroke-width="1.2" x1="79.57943565870166" x2="79.57943565870166" y1="192.0061538461538" y2="157.0061538461538"></line><line stroke="#000000" stroke-width="2.2" x1="63.699435658701645" x2="85.61943565870165" y1="193.8461538461538" y2="193.8461538461538"></line></g><g><g><path d="M120.595 199.486C124.595 199.486 129.515 195.766 129.515 191.966C129.515 189.686 127.715 188.206 125.115 188.206C120.195 188.206 116.235 191.846 116.235 195.726C116.235 198.086 118.155 199.486 120.595 199.486Z"></path><path d="M111.655 189.126C111.935 189.006 112.135 188.686 112.135 188.446L112.135 185.606C112.135 185.406 112.015 185.286 111.855 185.286C111.775 185.286 111.735 185.286 111.655 185.326C111.655 185.326 110.855 185.646 110.655 185.686C110.375 185.686 110.095 185.486 110.095 185.166C110.095 184.766 110.095 180.286 110.095 180.286C110.095 180.046 109.855 179.846 109.535 179.846C109.135 179.846 108.895 180.046 108.895 180.286C108.895 180.286 108.895 185.086 108.895 185.486C108.855 185.886 108.735 186.406 108.375 186.646C107.895 186.926 106.535 187.486 105.855 187.646C105.495 187.646 105.375 187.166 105.375 186.846C105.375 186.446 105.375 182.046 105.375 182.046C105.375 181.806 105.095 181.606 104.815 181.606C104.415 181.606 104.175 181.806 104.175 182.046C104.175 182.046 104.175 184.206 104.175 185.806L104.175 187.446C104.175 188.006 103.935 188.406 103.695 188.526C103.455 188.646 102.655 188.966 102.655 188.966C102.375 189.046 102.175 189.366 102.175 189.606L102.175 192.446C102.175 192.686 102.295 192.806 102.495 192.806C102.535 192.806 102.615 192.766 102.655 192.766C102.655 192.766 103.255 192.526 103.535 192.366C103.575 192.366 103.615 192.326 103.655 192.326C103.935 192.326 104.175 192.726 104.175 193.046L104.175 197.006C104.175 197.446 103.975 197.806 103.735 197.926C103.495 198.006 102.655 198.366 102.655 198.366C102.375 198.446 102.175 198.766 102.175 199.006L102.175 201.846C102.175 202.086 102.295 202.206 102.495 202.206C102.535 202.206 102.615 202.166 102.655 202.166C102.655 202.166 103.215 201.926 103.575 201.806C103.615 201.766 103.655 201.766 103.695 201.766C103.975 201.766 104.175 202.206 104.175 202.406C104.175 202.646 104.175 207.326 104.175 207.326C104.175 207.566 104.415 207.766 104.695 207.766C105.095 207.766 105.375 207.566 105.375 207.326C105.375 207.326 105.375 202.246 105.375 201.766C105.375 201.246 105.575 200.966 105.775 200.886L108.215 199.886C108.255 199.886 108.335 199.846 108.375 199.846C108.695 199.846 108.895 200.326 108.895 200.566C108.895 200.846 108.895 205.566 108.895 205.566C108.895 205.806 109.135 206.006 109.415 206.006C109.855 206.006 110.095 205.806 110.095 205.566C110.095 205.566 110.095 200.166 110.095 199.886C110.095 199.566 110.255 199.086 110.535 198.966C110.815 198.846 111.655 198.526 111.655 198.526C111.935 198.406 112.135 198.086 112.135 197.846L112.135 195.006C112.135 194.806 112.015 194.686 111.855 194.686C111.775 194.686 111.735 194.686 111.655 194.726C111.655 194.726 110.815 195.046 110.615 195.126C110.375 195.126 110.095 194.886 110.095 194.406L110.095 190.686C110.095 190.406 110.295 189.646 110.615 189.526C110.935 189.406 111.655 189.126 111.655 189.126ZM108.895 195.646C108.655 196.446 106.775 197.246 105.855 197.246C105.615 197.246 105.415 197.166 105.375 197.046C105.295 196.886 105.255 196.006 105.255 195.046C105.255 193.806 105.295 192.406 105.375 192.086C105.455 191.406 107.295 190.566 108.295 190.566C108.575 190.566 108.815 190.646 108.895 190.806C108.975 191.006 109.055 192.006 109.055 193.086C109.055 194.166 108.975 195.286 108.895 195.646Z"></path></g><line stroke="#000000" stroke-width="1.2" x1="128.91507131740332" x2="128.91507131740332" y1="192.0061538461538" y2="157.0061538461538"></line><line stroke="#000000" stroke-width="2.2" x1="113.03507131740331" x2="134.9550713174033" y1="193.8461538461538" y2="193.8461538461538"></line></g><g><g><path d="M177.231 199.486C181.231 199.486 186.151 195.766 186.151 191.966C186.151 189.686 184.351 188.206 181.751 188.206C176.831 188.206 172.871 191.846 172.871 195.726C172.871 198.086 174.791 199.486 177.231 199.486Z"></path><g><path d="M152.331 203.206C152.331 203.086 152.291 203.006 152.171 202.966C149.651 200.926 148.171 198.286 148.171 193.846C148.171 189.406 149.531 186.726 152.211 184.766C152.331 184.646 152.331 184.446 152.331 184.446C152.331 184.446 152.331 184.166 152.331 184.006C152.331 183.926 152.291 183.846 152.171 183.846C152.171 183.846 152.171 183.886 152.171 183.886C147.811 186.286 145.811 189.766 145.811 193.846C145.811 197.886 147.731 201.406 152.171 203.846C152.171 203.886 152.211 203.886 152.291 203.886C152.291 203.886 152.331 203.766 152.331 203.726Z"></path><path d="M162.291 189.126C162.571 189.006 162.771 188.686 162.771 188.446L162.771 185.606C162.771 185.406 162.651 185.286 162.491 185.286C162.411 185.286 162.371 185.286 162.291 185.326C162.291 185.326 161.491 185.646 161.291 185.686C161.011 185.686 160.731 185.486 160.731 185.166C160.731 184.766 160.731 180.286 160.731 180.286C160.731 180.046 160.491 179.846 160.171 179.846C159.771 179.846 159.531 180.046 159.531 180.286C159.531 180.286 159.531 185.086 159.531 185.486C159.491 185.886 159.371 186.406 159.011 186.646C158.531 186.926 157.171 187.486 156.491 187.646C156.131 187.646 156.011 187.166 156.011 186.846C156.011 186.446 156.011 182.046 156.011 182.046C156.011 181.806 155.731 181.606 155.451 181.606C155.051 181.606 154.811 181.806 154.811 182.046C154.811 182.046 154.811 184.206 154.811 185.806L154.811 187.446C154.811 188.006 154.571 188.406 154.331 188.526C154.091 188.646 153.291 188.966 153.291 188.966C153.011 189.046 152.811 189.366 152.811 189.606L152.811 192.446C152.811 192.686 152.931 192.806 153.131 192.806C153.171 192.806 153.251 192.766 153.291 192.766C153.291 192.766 153.891 192.526 154.171 192.366C154.211 192.366 154.251 192.326 154.291 192.326C154.571 192.326 154.811 192.726 154.811 193.046L154.811 197.006C154.811 197.446 154.611 197.806 154.371 197.926C154.131 198.006 153.291 198.366 153.291 198.366C153.011 198.446 152.811 198.766 152.811 199.006L152.811 201.846C152.811 202.086 152.931 202.206 153.131 202.206C153.171 202.206 153.251 202.166 153.291 202.166C153.291 202.166 153.851 201.926 154.211 201.806C154.251 201.766 154.291 201.766 154.331 201.766C154.611 201.766 154.811 202.206 154.811 202.406C154.811 202.646 154.811 207.326 154.811 207.326C154.811 207.566 155.051 207.766 155.331 207.766C155.731 207.766 156.011 207.566 156.011 207.326C156.011 207.326 156.011 202.246 156.011 201.766C156.011 201.246 156.211 200.966 156.411 200.886L158.851 199.886C158.891 199.886 158.971 199.846 159.011 199.846C159.331 199.846 159.531 200.326 159.531 200.566C159.531 200.846 159.531 205.566 159.531 205.566C159.531 205.806 159.771 206.006 160.051 206.006C160.491 206.006 160.731 205.806 160.731 205.566C160.731 205.566 160.731 200.166 160.731 199.886C160.731 199.566 160.891 199.086 161.171 198.966C161.451 198.846 162.291 198.526 162.291 198.526C162.571 198.406 162.771 198.086 162.771 197.846L162.771 195.006C162.771 194.806 162.651 194.686 162.491 194.686C162.411 194.686 162.371 194.686 162.291 194.726C162.291 194.726 161.451 195.046 161.251 195.126C161.011 195.126 160.731 194.886 160.731 194.406L160.731 190.686C160.731 190.406 160.931 189.646 161.251 189.526C161.571 189.406 162.291 189.126 162.291 189.126ZM159.531 195.646C159.291 196.446 157.411 197.246 156.491 197.246C156.251 197.246 156.051 197.166 156.011 197.046C155.931 196.886 155.891 196.006 155.891 195.046C155.891 193.806 155.931 192.406 156.011 192.086C156.091 191.406 157.931 190.566 158.931 190.566C159.211 190.566 159.451 190.646 159.531 190.806C159.611 191.006 159.691 192.006 159.691 193.086C159.691 194.166 159.611 195.286 159.531 195.646Z"></path><path d="M162.771 203.726C162.771 203.766 162.811 203.886 162.811 203.886C162.891 203.886 162.931 203.886 162.931 203.846C167.371 201.406 169.291 197.886 169.291 193.846C169.291 189.766 167.291 186.286 162.931 183.886C162.931 183.886 162.931 183.846 162.931 183.846C162.811 183.846 162.771 183.926 162.771 184.006C162.771 184.166 162.771 184.446 162.771 184.446C162.771 184.446 162.771 184.646 162.891 184.766C165.571 186.726 166.931 189.406 166.931 193.846C166.931 198.286 165.451 200.926 162.931 202.966C162.811 203.006 162.771 203.086 162.771 203.206Z"></path></g></g><line stroke="#000000" stroke-width="1.2" x1="185.550706976105" x2="185.550706976105" y1="192.0061538461538" y2="157.0061538461538"></line><line stroke="#000000" stroke-width="2.2" x1="169.670706976105" x2="191.590706976105" y1="193.8461538461538" y2="193.8461538461538"></line></g></g><g transform="translate(701.2296391157671)"><g></g><g><line stroke="black" stroke-width="1.6" x1="225.64894263480662" x2="225.64894263480662" y1="143.8461538461538" y2="183.8461538461538"></line></g><g><g><path d="M17.850 194.486C21.850 194.486 26.770 190.766 26.770 186.966C26.770 184.686 24.970 183.206 22.370 183.206C17.450 183.206 13.490 186.846 13.490 190.726C13.490 193.086 15.410 194.486 17.850 194.486Z"></path><path d="M7.570 182.806C7.370 182.806 7.210 182.806 7.010 182.846C6.530 182.966 6.090 183.206 5.690 183.446C5.410 183.606 5.090 183.966 4.730 183.966C4.650 183.966 4.570 183.966 4.530 183.926C4.250 183.846 4.130 183.566 4.130 183.246C4.130 182.406 4.370 172.766 4.370 172.006C4.370 171.566 4.010 171.366 3.610 171.366C3.090 171.366 2.450 171.726 2.370 172.406C2.370 172.406 2.410 177.886 2.490 183.446C1.890 183.046 1.210 182.806 0.450 182.806L0.210 182.806C0.010 182.806-0.190 182.806-0.350 182.846C-0.830 182.966-1.270 183.206-1.670 183.446C-1.990 183.606-2.270 183.966-2.630 183.966C-2.710 183.966-2.750 183.966-2.830 183.926C-3.110 183.846-3.270 183.566-3.270 183.246C-3.270 182.406-2.990 172.766-2.990 172.006C-2.990 171.566-3.350 171.366-3.750 171.366C-4.310 171.366-4.950 171.726-4.990 172.406C-4.990 172.406-4.790 195.286-4.510 195.646C-4.390 195.806-4.270 195.846-4.150 195.846C-4.030 195.846-3.910 195.766-3.910 195.766C-2.670 195.126-1.670 194.006-0.750 193.326C0.730 192.286 1.850 191.206 2.610 190.246C2.690 193.246 2.770 195.526 2.890 195.646C3.010 195.806 3.130 195.846 3.210 195.846C3.330 195.846 3.450 195.766 3.450 195.766C4.690 195.126 5.650 194.006 6.570 193.366C10.170 190.846 11.450 188.406 11.450 186.566C11.450 184.326 9.690 182.846 7.810 182.806ZM0.650 189.566C0.130 190.526-1.030 191.766-2.310 192.566C-2.430 192.646-2.590 192.686-2.670 192.686C-2.990 192.686-3.110 192.286-3.110 192.046C-3.110 192.046-3.230 189.686-3.230 188.126C-3.230 187.486-3.190 187.006-3.150 186.846C-2.990 186.326-1.910 185.446-1.350 185.126C-0.990 184.926-0.630 184.846-0.310 184.846C0.090 184.846 0.410 184.966 0.650 185.246C1.050 185.726 1.290 186.406 1.290 187.206C1.290 187.926 1.090 188.766 0.650 189.566ZM7.970 189.566C7.490 190.526 6.330 191.766 5.050 192.566C4.890 192.646 4.770 192.686 4.690 192.686C4.370 192.686 4.250 192.286 4.250 192.046C4.250 192.046 4.130 189.286 4.130 187.766C4.130 187.326 4.130 186.966 4.170 186.846C4.330 186.326 5.410 185.446 6.010 185.126C6.370 184.926 6.730 184.846 7.050 184.846C7.450 184.846 7.770 184.966 8.010 185.246C8.370 185.726 8.610 186.406 8.610 187.206C8.610 187.926 8.410 188.726 7.970 189.566Z"></path></g><line stroke="#000000" stroke-width="1.2" x1="26.1704" x2="26.1704" y1="187.0061538461538" y2="152.0061538461538"></line></g><g><g><path d="M77.713 194.486C81.713 194.486 86.633 190.766 86.633 186.966C86.633 184.686 84.833 183.206 82.233 183.206C77.313 183.206 73.353 186.846 73.353 190.726C73.353 193.086 75.273 194.486 77.713 194.486Z"></path><g><path d="M48.393 198.206C48.393 198.086 48.353 198.006 48.233 197.966C45.713 195.926 44.233 193.286 44.233 188.846C44.233 184.406 45.593 181.726 48.273 179.766C48.393 179.646 48.393 179.446 48.393 179.446C48.393 179.446 48.393 179.166 48.393 179.006C48.393 178.926 48.353 178.846 48.233 178.846C48.233 178.846 48.233 178.886 48.233 178.886C43.873 181.286 41.873 184.766 41.873 188.846C41.873 192.886 43.793 196.406 48.233 198.846C48.233 198.886 48.273 198.886 48.353 198.886C48.353 198.886 48.393 198.766 48.393 198.726Z"></path><path d="M61.433 182.806C61.233 182.806 61.073 182.806 60.873 182.846C60.393 182.966 59.953 183.206 59.553 183.446C59.273 183.606 58.953 183.966 58.593 183.966C58.513 183.966 58.433 183.966 58.393 183.926C58.113 183.846 57.993 183.566 57.993 183.246C57.993 182.406 58.233 172.766 58.233 172.006C58.233 171.566 57.873 171.366 57.473 171.366C56.953 171.366 56.313 171.726 56.233 172.406C56.233 172.406 56.273 177.886 56.353 183.446C55.753 183.046 55.073 182.806 54.313 182.806L54.073 182.806C53.873 182.806 53.673 182.806 53.513 182.846C53.033 182.966 52.593 183.206 52.193 183.446C51.873 183.606 51.593 183.966 51.233 183.966C51.153 183.966 51.113 183.966 51.033 183.926C50.753 183.846 50.593 183.566 50.593 183.246C50.593 182.406 50.873 172.766 50.873 172.006C50.873 171.566 50.513 171.366 50.113 171.366C49.553 171.366 48.913 171.726 48.873 172.406C48.873 172.406 49.073 195.286 49.353 195.646C49.473 195.806 49.593 195.846 49.713 195.846C49.833 195.846 49.953 195.766 49.953 195.766C51.193 195.126 52.193 194.006 53.113 193.326C54.593 192.286 55.713 191.206 56.473 190.246C56.553 193.246 56.633 195.526 56.753 195.646C56.873 195.806 56.993 195.846 57.073 195.846C57.193 195.846 57.313 195.766 57.313 195.766C58.553 195.126 59.513 194.006 60.433 193.366C64.033 190.846 65.313 188.406 65.313 186.566C65.313 184.326 63.553 182.846 61.673 182.806ZM54.513 189.566C53.993 190.526 52.833 191.766 51.553 192.566C51.433 192.646 51.273 192.686 51.193 192.686C50.873 192.686 50.753 192.286 50.753 192.046C50.753 192.046 50.633 189.686 50.633 188.126C50.633 187.486 50.673 187.006 50.713 186.846C50.873 186.326 51.953 185.446 52.513 185.126C52.873 184.926 53.233 184.846 53.553 184.846C53.953 184.846 54.273 184.966 54.513 185.246C54.913 185.726 55.153 186.406 55.153 187.206C55.153 187.926 54.953 188.766 54.513 189.566ZM61.833 189.566C61.353 190.526 60.193 191.766 58.913 192.566C58.753 192.646 58.633 192.686 58.553 192.686C58.233 192.686 58.113 192.286 58.113 192.046C58.113 192.046 57.993 189.286 57.993 187.766C57.993 187.326 57.993 186.966 58.033 186.846C58.193 186.326 59.273 185.446 59.873 185.126C60.233 184.926 60.593 184.846 60.913 184.846C61.313 184.846 61.633 184.966 61.873 185.246C62.233 185.726 62.473 186.406 62.473 187.206C62.473 187.926 62.273 188.726 61.833 189.566Z"></path><path d="M65.313 198.726C65.313 198.766 65.353 198.886 65.353 198.886C65.433 198.886 65.473 198.886 65.473 198.846C69.913 196.406 71.833 192.886 71.833 188.846C71.833 184.766 69.833 181.286 65.473 178.886C65.473 178.886 65.473 178.846 65.473 178.846C65.353 178.846 65.313 178.926 65.313 179.006C65.313 179.166 65.313 179.446 65.313 179.446C65.313 179.446 65.313 179.646 65.433 179.766C68.113 181.726 69.473 184.406 69.473 188.846C69.473 193.286 67.993 195.926 65.473 197.966C65.353 198.006 65.313 198.086 65.313 198.206Z"></path></g></g><line stroke="#000000" stroke-width="1.2" x1="86.03263565870165" x2="86.03263565870165" y1="187.0061538461538" y2="152.0061538461538"></line></g><g><g><path d="M130.275 194.486C134.275 194.486 139.195 190.766 139.195 186.966C139.195 184.686 137.395 183.206 134.795 183.206C129.875 183.206 125.915 186.846 125.915 190.726C125.915 193.086 127.835 194.486 130.275 194.486Z"></path><path d="M119.995 182.806C119.795 182.806 119.635 182.806 119.435 182.846C118.955 182.966 118.515 183.206 118.115 183.446C117.835 183.606 117.515 183.966 117.155 183.966C117.075 183.966 116.995 183.966 116.955 183.926C116.675 183.846 116.555 183.566 116.555 183.246C116.555 182.406 116.795 172.766 116.795 172.006C116.795 171.566 116.435 171.366 116.035 171.366C115.515 171.366 114.875 171.726 114.795 172.406C114.795 172.406 114.835 177.886 114.915 183.446C114.315 183.046 113.635 182.806 112.875 182.806L112.635 182.806C112.435 182.806 112.235 182.806 112.075 182.846C111.595 182.966 111.155 183.206 110.755 183.446C110.435 183.606 110.155 183.966 109.795 183.966C109.715 183.966 109.675 183.966 109.595 183.926C109.315 183.846 109.155 183.566 109.155 183.246C109.155 182.406 109.435 172.766 109.435 172.006C109.435 171.566 109.075 171.366 108.675 171.366C108.115 171.366 107.475 171.726 107.435 172.406C107.435 172.406 107.635 195.286 107.915 195.646C108.035 195.806 108.155 195.846 108.275 195.846C108.395 195.846 108.515 195.766 108.515 195.766C109.755 195.126 110.755 194.006 111.675 193.326C113.155 192.286 114.275 191.206 115.035 190.246C115.115 193.246 115.195 195.526 115.315 195.646C115.435 195.806 115.555 195.846 115.635 195.846C115.755 195.846 115.875 195.766 115.875 195.766C117.115 195.126 118.075 194.006 118.995 193.366C122.595 190.846 123.875 188.406 123.875 186.566C123.875 184.326 122.115 182.846 120.235 182.806ZM113.075 189.566C112.555 190.526 111.395 191.766 110.115 192.566C109.995 192.646 109.835 192.686 109.755 192.686C109.435 192.686 109.315 192.286 109.315 192.046C109.315 192.046 109.195 189.686 109.195 188.126C109.195 187.486 109.235 187.006 109.275 186.846C109.435 186.326 110.515 185.446 111.075 185.126C111.435 184.926 111.795 184.846 112.115 184.846C112.515 184.846 112.835 184.966 113.075 185.246C113.475 185.726 113.715 186.406 113.715 187.206C113.715 187.926 113.515 188.766 113.075 189.566ZM120.395 189.566C119.915 190.526 118.755 191.766 117.475 192.566C117.315 192.646 117.195 192.686 117.115 192.686C116.795 192.686 116.675 192.286 116.675 192.046C116.675 192.046 116.555 189.286 116.555 187.766C116.555 187.326 116.555 186.966 116.595 186.846C116.755 186.326 117.835 185.446 118.435 185.126C118.795 184.926 119.155 184.846 119.475 184.846C119.875 184.846 120.195 184.966 120.435 185.246C120.795 185.726 121.035 186.406 121.035 187.206C121.035 187.926 120.835 188.726 120.395 189.566Z"></path></g><line stroke="#000000" stroke-width="1.2" x1="138.5948713174033" x2="138.5948713174033" y1="187.0061538461538" y2="152.0061538461538"></line></g><g><g><path d="M190.137 194.486C194.137 194.486 199.057 190.766 199.057 186.966C199.057 184.686 197.257 183.206 194.657 183.206C189.737 183.206 185.777 186.846 185.777 190.726C185.777 193.086 187.697 194.486 190.137 194.486Z"></path><g><path d="M160.817 198.206C160.817 198.086 160.777 198.006 160.657 197.966C158.137 195.926 156.657 193.286 156.657 188.846C156.657 184.406 158.017 181.726 160.697 179.766C160.817 179.646 160.817 179.446 160.817 179.446C160.817 179.446 160.817 179.166 160.817 179.006C160.817 178.926 160.777 178.846 160.657 178.846C160.657 178.846 160.657 178.886 160.657 178.886C156.297 181.286 154.297 184.766 154.297 188.846C154.297 192.886 156.217 196.406 160.657 198.846C160.657 198.886 160.697 198.886 160.777 198.886C160.777 198.886 160.817 198.766 160.817 198.726Z"></path><path d="M173.857 182.806C173.657 182.806 173.497 182.806 173.297 182.846C172.817 182.966 172.377 183.206 171.977 183.446C171.697 183.606 171.377 183.966 171.017 183.966C170.937 183.966 170.857 183.966 170.817 183.926C170.537 183.846 170.417 183.566 170.417 183.246C170.417 182.406 170.657 172.766 170.657 172.006C170.657 171.566 170.297 171.366 169.897 171.366C169.377 171.366 168.737 171.726 168.657 172.406C168.657 172.406 168.697 177.886 168.777 183.446C168.177 183.046 167.497 182.806 166.737 182.806L166.497 182.806C166.297 182.806 166.097 182.806 165.937 182.846C165.457 182.966 165.017 183.206 164.617 183.446C164.297 183.606 164.017 183.966 163.657 183.966C163.577 183.966 163.537 183.966 163.457 183.926C163.177 183.846 163.017 183.566 163.017 183.246C163.017 182.406 163.297 172.766 163.297 172.006C163.297 171.566 162.937 171.366 162.537 171.366C161.977 171.366 161.337 171.726 161.297 172.406C161.297 172.406 161.497 195.286 161.777 195.646C161.897 195.806 162.017 195.846 162.137 195.846C162.257 195.846 162.377 195.766 162.377 195.766C163.617 195.126 164.617 194.006 165.537 193.326C167.017 192.286 168.137 191.206 168.897 190.246C168.977 193.246 169.057 195.526 169.177 195.646C169.297 195.806 169.417 195.846 169.497 195.846C169.617 195.846 169.737 195.766 169.737 195.766C170.977 195.126 171.937 194.006 172.857 193.366C176.457 190.846 177.737 188.406 177.737 186.566C177.737 184.326 175.977 182.846 174.097 182.806ZM166.937 189.566C166.417 190.526 165.257 191.766 163.977 192.566C163.857 192.646 163.697 192.686 163.617 192.686C163.297 192.686 163.177 192.286 163.177 192.046C163.177 192.046 163.057 189.686 163.057 188.126C163.057 187.486 163.097 187.006 163.137 186.846C163.297 186.326 164.377 185.446 164.937 185.126C165.297 184.926 165.657 184.846 165.977 184.846C166.377 184.846 166.697 184.966 166.937 185.246C167.337 185.726 167.577 186.406 167.577 187.206C167.577 187.926 167.377 188.766 166.937 189.566ZM174.257 189.566C173.777 190.526 172.617 191.766 171.337 192.566C171.177 192.646 171.057 192.686 170.977 192.686C170.657 192.686 170.537 192.286 170.537 192.046C170.537 192.046 170.417 189.286 170.417 187.766C170.417 187.326 170.417 186.966 170.457 186.846C170.617 186.326 171.697 185.446 172.297 185.126C172.657 184.926 173.017 184.846 173.337 184.846C173.737 184.846 174.057 184.966 174.297 185.246C174.657 185.726 174.897 186.406 174.897 187.206C174.897 187.926 174.697 188.726 174.257 189.566Z"></path><path d="M177.737 198.726C177.737 198.766 177.777 198.886 177.777 198.886C177.857 198.886 177.897 198.886 177.897 198.846C182.337 196.406 184.257 192.886 184.257 188.846C184.257 184.766 182.257 181.286 177.897 178.886C177.897 178.886 177.897 178.846 177.897 178.846C177.777 178.846 177.737 178.926 177.737 179.006C177.737 179.166 177.737 179.446 177.737 179.446C177.737 179.446 177.737 179.646 177.857 179.766C180.537 181.726 181.897 184.406 181.897 188.846C181.897 193.286 180.417 195.926 177.897 197.966C177.777 198.006 177.737 198.086 177.737 198.206Z"></path></g></g><line stroke="#000000" stroke-width="1.2" x1="198.45710697610497" x2="198.45710697610497" y1="187.0061538461538" y2="152.0061538461538"></line></g></g><g transform="translate(942.6785817505738)"><g></g><g><line stroke="black" stroke-width="1.6" x1="212.5089426348066" x2="212.5089426348066" y1="143.8461538461538" y2="183.8461538461538"></line><line stroke="black" stroke-width="5" x1="219.80894263480658" x2="219.80894263480658" y1="143.8461538461538" y2="183.8461538461538"></line></g><g><g><path d="M14.565 199.486C18.565 199.486 23.485 195.766 23.485 191.966C23.485 189.686 21.685 188.206 19.085 188.206C14.165 188.206 10.205 191.846 10.205 195.726C10.205 198.086 12.125 199.486 14.565 199.486Z"></path><path d="M3.825 195.126C3.385 194.886 1.945 194.326 1.945 193.806C1.945 193.246 3.265 192.646 3.825 192.446C3.985 192.446 4.145 192.486 4.305 192.486C4.945 192.486 5.545 192.326 5.825 192.086C6.025 191.886 6.105 191.286 6.105 190.646C6.105 189.966 5.985 189.246 5.825 189.046C5.665 188.846 5.025 188.766 4.345 188.766C3.625 188.766 2.905 188.846 2.705 189.046C2.545 189.166 2.505 189.886 2.505 190.606C2.305 191.046 1.745 192.486 1.185 192.486C0.625 192.486-0.015 191.166-0.175 190.606C-0.175 189.926-0.295 189.206-0.495 189.046C-0.655 188.846-1.295 188.766-1.935 188.766C-2.615 188.766-3.335 188.846-3.575 189.046C-3.695 189.126-3.775 189.806-3.775 190.526C-3.775 191.246-3.695 191.966-3.575 192.086C-3.295 192.326-2.575 192.486-1.895 192.486C-1.735 192.486-1.615 192.446-1.495 192.446C-1.055 192.686 0.385 193.246 0.385 193.766C0.385 194.286-0.895 194.926-1.455 195.126L-1.855 195.126C-2.575 195.126-3.335 195.206-3.575 195.406C-3.695 195.526-3.775 196.206-3.775 196.926C-3.775 197.646-3.695 198.366-3.575 198.446C-3.295 198.686-2.655 198.846-1.975 198.846C-1.375 198.846-0.735 198.726-0.495 198.446C-0.255 198.246-0.175 197.566-0.175 196.926C-0.175 196.886-0.135 196.806-0.095 196.766C0.145 196.206 0.625 195.086 1.145 195.086C1.665 195.086 2.345 196.366 2.505 196.926C2.505 197.646 2.545 198.326 2.705 198.446C2.985 198.686 3.625 198.846 4.305 198.846C4.945 198.846 5.545 198.726 5.825 198.446C6.025 198.246 6.105 197.646 6.105 197.006C6.105 196.326 5.985 195.606 5.825 195.406C5.625 195.206 4.905 195.126 4.225 195.126Z"></path></g><line stroke="#000000" stroke-width="1.2" x1="22.8854" x2="22.8854" y1="192.0061538461538" y2="157.0061538461538"></line><line stroke="#000000" stroke-width="2.2" x1="7.005399999999999" x2="28.9254" y1="193.8461538461538" y2="193.8461538461538"></line></g><g><g><path d="M71.143 199.486C75.143 199.486 80.063 195.766 80.063 191.966C80.063 189.686 78.263 188.206 75.663 188.206C70.743 188.206 66.783 191.846 66.783 195.726C66.783 198.086 68.703 199.486 71.143 199.486Z"></path><g><path d="M46.323 203.206C46.323 203.086 46.283 203.006 46.163 202.966C43.643 200.926 42.163 198.286 42.163 193.846C42.163 189.406 43.523 186.726 46.203 184.766C46.323 184.646 46.323 184.446 46.323 184.446C46.323 184.446 46.323 184.166 46.323 184.006C46.323 183.926 46.283 183.846 46.163 183.846C46.163 183.846 46.163 183.886 46.163 183.886C41.803 186.286 39.803 189.766 39.803 193.846C39.803 197.886 41.723 201.406 46.163 203.846C46.163 203.886 46.203 203.886 46.283 203.886C46.283 203.886 46.323 203.766 46.323 203.726Z"></path><path d="M54.403 195.126C53.963 194.886 52.523 194.326 52.523 193.806C52.523 193.246 53.843 192.646 54.403 192.446C54.563 192.446 54.723 192.486 54.883 192.486C55.523 192.486 56.123 192.326 56.403 192.086C56.603 191.886 56.683 191.286 56.683 190.646C56.683 189.966 56.563 189.246 56.403 189.046C56.243 188.846 55.603 188.766 54.923 188.766C54.203 188.766 53.483 188.846 53.283 189.046C53.123 189.166 53.083 189.886 53.083 190.606C52.883 191.046 52.323 192.486 51.763 192.486C51.203 192.486 50.563 191.166 50.403 190.606C50.403 189.926 50.283 189.206 50.083 189.046C49.923 188.846 49.283 188.766 48.643 188.766C47.963 188.766 47.243 188.846 47.003 189.046C46.883 189.126 46.803 189.806 46.803 190.526C46.803 191.246 46.883 191.966 47.003 192.086C47.283 192.326 48.003 192.486 48.683 192.486C48.843 192.486 48.963 192.446 49.083 192.446C49.523 192.686 50.963 193.246 50.963 193.766C50.963 194.286 49.683 194.926 49.123 195.126L48.723 195.126C48.003 195.126 47.243 195.206 47.003 195.406C46.883 195.526 46.803 196.206 46.803 196.926C46.803 197.646 46.883 198.366 47.003 198.446C47.283 198.686 47.923 198.846 48.603 198.846C49.203 198.846 49.843 198.726 50.083 198.446C50.323 198.246 50.403 197.566 50.403 196.926C50.403 196.886 50.443 196.806 50.483 196.766C50.723 196.206 51.203 195.086 51.723 195.086C52.243 195.086 52.923 196.366 53.083 196.926C53.083 197.646 53.123 198.326 53.283 198.446C53.563 198.686 54.203 198.846 54.883 198.846C55.523 198.846 56.123 198.726 56.403 198.446C56.603 198.246 56.683 197.646 56.683 197.006C56.683 196.326 56.563 195.606 56.403 195.406C56.203 195.206 55.483 195.126 54.803 195.126Z"></path><path d="M56.683 203.726C56.683 203.766 56.723 203.886 56.723 203.886C56.803 203.886 56.843 203.886 56.843 203.846C61.283 201.406 63.203 197.886 63.203 193.846C63.203 189.766 61.203 186.286 56.843 183.886C56.843 183.886 56.843 183.846 56.843 183.846C56.723 183.846 56.683 183.926 56.683 184.006C56.683 184.166 56.683 184.446 56.683 184.446C56.683 184.446 56.683 184.646 56.803 184.766C59.483 186.726 60.843 189.406 60.843 193.846C60.843 198.286 59.363 200.926 56.843 202.966C56.723 203.006 56.683 203.086 56.683 203.206Z"></path></g></g><line stroke="#000000" stroke-width="1.2" x1="79.46263565870164" x2="79.46263565870164" y1="192.0061538461538" y2="157.0061538461538"></line><line stroke="#000000" stroke-width="2.2" x1="63.58263565870163" x2="85.50263565870164" y1="193.8461538461538" y2="193.8461538461538"></line></g><g><g><path d="M120.420 199.486C124.420 199.486 129.340 195.766 129.340 191.966C129.340 189.686 127.540 188.206 124.940 188.206C120.020 188.206 116.060 191.846 116.060 195.726C116.060 198.086 117.980 199.486 120.420 199.486Z"></path><path d="M109.680 195.126C109.240 194.886 107.800 194.326 107.800 193.806C107.800 193.246 109.120 192.646 109.680 192.446C109.840 192.446 110.000 192.486 110.160 192.486C110.800 192.486 111.400 192.326 111.680 192.086C111.880 191.886 111.960 191.286 111.960 190.646C111.960 189.966 111.840 189.246 111.680 189.046C111.520 188.846 110.880 188.766 110.200 188.766C109.480 188.766 108.760 188.846 108.560 189.046C108.400 189.166 108.360 189.886 108.360 190.606C108.160 191.046 107.600 192.486 107.040 192.486C106.480 192.486 105.840 191.166 105.680 190.606C105.680 189.926 105.560 189.206 105.360 189.046C105.200 188.846 104.560 188.766 103.920 188.766C103.240 188.766 102.520 188.846 102.280 189.046C102.160 189.126 102.080 189.806 102.080 190.526C102.080 191.246 102.160 191.966 102.280 192.086C102.560 192.326 103.280 192.486 103.960 192.486C104.120 192.486 104.240 192.446 104.360 192.446C104.800 192.686 106.240 193.246 106.240 193.766C106.240 194.286 104.960 194.926 104.400 195.126L104.000 195.126C103.280 195.126 102.520 195.206 102.280 195.406C102.160 195.526 102.080 196.206 102.080 196.926C102.080 197.646 102.160 198.366 102.280 198.446C102.560 198.686 103.200 198.846 103.880 198.846C104.480 198.846 105.120 198.726 105.360 198.446C105.600 198.246 105.680 197.566 105.680 196.926C105.680 196.886 105.720 196.806 105.760 196.766C106.000 196.206 106.480 195.086 107.000 195.086C107.520 195.086 108.200 196.366 108.360 196.926C108.360 197.646 108.400 198.326 108.560 198.446C108.840 198.686 109.480 198.846 110.160 198.846C110.800 198.846 111.400 198.726 111.680 198.446C111.880 198.246 111.960 197.646 111.960 197.006C111.960 196.326 111.840 195.606 111.680 195.406C111.480 195.206 110.760 195.126 110.080 195.126Z"></path></g><line stroke="#000000" stroke-width="1.2" x1="128.7398713174033" x2="128.7398713174033" y1="192.0061538461538" y2="157.0061538461538"></line><line stroke="#000000" stroke-width="2.2" x1="112.85987131740329" x2="134.7798713174033" y1="193.8461538461538" y2="193.8461538461538"></line></g><g><g><path d="M176.997 199.486C180.997 199.486 185.917 195.766 185.917 191.966C185.917 189.686 184.117 188.206 181.517 188.206C176.597 188.206 172.637 191.846 172.637 195.726C172.637 198.086 174.557 199.486 176.997 199.486Z"></path><g><path d="M152.177 203.206C152.177 203.086 152.137 203.006 152.017 202.966C149.497 200.926 148.017 198.286 148.017 193.846C148.017 189.406 149.377 186.726 152.057 184.766C152.177 184.646 152.177 184.446 152.177 184.446C152.177 184.446 152.177 184.166 152.177 184.006C152.177 183.926 152.137 183.846 152.017 183.846C152.017 183.846 152.017 183.886 152.017 183.886C147.657 186.286 145.657 189.766 145.657 193.846C145.657 197.886 147.577 201.406 152.017 203.846C152.017 203.886 152.057 203.886 152.137 203.886C152.137 203.886 152.177 203.766 152.177 203.726Z"></path><path d="M160.257 195.126C159.817 194.886 158.377 194.326 158.377 193.806C158.377 193.246 159.697 192.646 160.257 192.446C160.417 192.446 160.577 192.486 160.737 192.486C161.377 192.486 161.977 192.326 162.257 192.086C162.457 191.886 162.537 191.286 162.537 190.646C162.537 189.966 162.417 189.246 162.257 189.046C162.097 188.846 161.457 188.766 160.777 188.766C160.057 188.766 159.337 188.846 159.137 189.046C158.977 189.166 158.937 189.886 158.937 190.606C158.737 191.046 158.177 192.486 157.617 192.486C157.057 192.486 156.417 191.166 156.257 190.606C156.257 189.926 156.137 189.206 155.937 189.046C155.777 188.846 155.137 188.766 154.497 188.766C153.817 188.766 153.097 188.846 152.857 189.046C152.737 189.126 152.657 189.806 152.657 190.526C152.657 191.246 152.737 191.966 152.857 192.086C153.137 192.326 153.857 192.486 154.537 192.486C154.697 192.486 154.817 192.446 154.937 192.446C155.377 192.686 156.817 193.246 156.817 193.766C156.817 194.286 155.537 194.926 154.977 195.126L154.577 195.126C153.857 195.126 153.097 195.206 152.857 195.406C152.737 195.526 152.657 196.206 152.657 196.926C152.657 197.646 152.737 198.366 152.857 198.446C153.137 198.686 153.777 198.846 154.457 198.846C155.057 198.846 155.697 198.726 155.937 198.446C156.177 198.246 156.257 197.566 156.257 196.926C156.257 196.886 156.297 196.806 156.337 196.766C156.577 196.206 157.057 195.086 157.577 195.086C158.097 195.086 158.777 196.366 158.937 196.926C158.937 197.646 158.977 198.326 159.137 198.446C159.417 198.686 160.057 198.846 160.737 198.846C161.377 198.846 161.977 198.726 162.257 198.446C162.457 198.246 162.537 197.646 162.537 197.006C162.537 196.326 162.417 195.606 162.257 195.406C162.057 195.206 161.337 195.126 160.657 195.126Z"></path><path d="M162.537 203.726C162.537 203.766 162.577 203.886 162.577 203.886C162.657 203.886 162.697 203.886 162.697 203.846C167.137 201.406 169.057 197.886 169.057 193.846C169.057 189.766 167.057 186.286 162.697 183.886C162.697 183.886 162.697 183.846 162.697 183.846C162.577 183.846 162.537 183.926 162.537 184.006C162.537 184.166 162.537 184.446 162.537 184.446C162.537 184.446 162.537 184.646 162.657 184.766C165.337 186.726 166.697 189.406 166.697 193.846C166.697 198.286 165.217 200.926 162.697 202.966C162.577 203.006 162.537 203.086 162.537 203.206Z"></path></g></g><line stroke="#000000" stroke-width="1.2" x1="185.31710697610492" x2="185.31710697610492" y1="192.0061538461538" y2="157.0061538461538"></line><line stroke="#000000" stroke-width="2.2" x1="169.43710697610493" x2="191.35710697610492" y1="193.8461538461538" y2="193.8461538461538"></line></g></g></svg>