<?xml version="1.0" encoding="UTF-8" standalone="no"?><svg xmlns="http://www.w3.org/2000/svg" height="279.4mm" viewBox="0 0 1328.6153846153845 1719.3846153846152" width="215.9mm"><g transform="translate(163.84615384615387)"><g><g><line stroke="#6A6A6A" stroke-width="1.3" x1="0" x2="181.47220377910958" y1="183.8461538461538" y2="183.8461538461538"></line><line stroke="#6A6A6A" stroke-width="1.3" x1="0" x2="181.47220377910958" y1="173.8461538461538" y2="173.8461538461538"></line><line stroke="#6A6A6A" stroke-width="1.3" x1="0" x2="181.47220377910958" y1="163.8461538461538" y2="163.8461538461538"></line><line stroke="#6A6A6A" stroke-width="1.3" x1="0" x2="181.47220377910958" y1="153.8461538461538" y2="153.8461538461538"></line><line stroke="#6A6A6A" stroke-width="1.3" x1="0" x2="181.47220377910958" y1="143.8461538461538" y2="143.8461538461538"></line></g><g><path d="M25.200 129.926C24.640 129.926 23.400 130.966 22.600 131.846C19.640 135.126 18.680 140.126 18.680 144.286C18.680 146.606 18.960 149.206 19.240 150.846C19.320 151.326 19.360 151.406 18.880 151.806C16.320 153.926 13.560 156.366 11.480 158.926C8.720 162.366 7 166.086 7 170.366C7 177.326 11.760 183.926 21.560 183.926C22.480 183.926 23.520 183.846 24.320 183.686C24.760 183.606 24.840 183.566 24.920 184.046C25.400 186.726 26 190.206 26 192.086C26 198.006 22 198.726 19.640 198.726C17.480 198.726 16.440 198.086 16.440 197.566C16.440 197.126 16.800 197.166 17.720 196.886C18.960 196.526 20.400 195.446 20.400 193.126C20.400 190.926 19 189.046 16.560 189.046C13.880 189.046 12.280 191.166 12.280 193.646C12.280 196.246 13.840 200.166 19.880 200.166C22.560 200.166 27.760 198.966 27.760 192.166C27.760 189.886 27.040 186.086 26.600 183.606C26.520 183.126 26.560 183.166 27.120 182.926C31.160 181.326 33.840 177.926 33.840 173.406C33.840 168.286 30.080 163.766 24.200 163.766C23.080 163.766 23.200 163.966 23.040 163.046L22.040 157.246C21.960 156.766 22.040 156.726 22.280 156.486C22.920 155.886 23.760 155.046 24.520 154.206C27.880 150.526 29.880 145.766 29.880 141.246C29.880 137.766 28.920 134.326 27.280 131.926C26.680 131.046 25.640 129.926 25.200 129.926ZM20.040 158.086C20.440 157.766 20.520 157.806 20.600 158.246L21.440 163.366C21.560 164.126 21.560 164.086 20.840 164.326C17.320 165.526 15.040 168.686 15.040 172.086C15.040 175.686 16.920 178.246 19.640 179.166C19.960 179.286 20.440 179.406 20.720 179.406C21.040 179.406 21.200 179.206 21.200 178.966C21.200 178.686 20.880 178.566 20.600 178.446C18.920 177.726 17.720 176.006 17.720 174.166C17.720 171.886 19.280 170.166 21.720 169.486C22.360 169.326 22.440 169.366 22.520 169.806L24.520 181.726C24.600 182.166 24.560 182.166 23.960 182.286C23.320 182.406 22.520 182.486 21.720 182.486C14.720 182.486 10.200 178.606 10.200 173.046C10.200 170.686 10.600 167.526 13.920 163.766C16.320 161.086 18.160 159.606 20.040 158.086ZM24.640 169.166C27.880 169.446 30.560 172.166 30.560 175.686C30.560 178.206 29.040 180.246 26.800 181.366C26.320 181.606 26.240 181.606 26.160 181.126L24.200 169.726C24.120 169.246 24.160 169.126 24.640 169.166ZM25.800 136.126C27.120 136.126 28.200 137.206 28.200 139.406C28.200 142.166 26.880 144.726 23.760 147.846C23.120 148.486 22.160 149.406 21.240 150.206C20.960 150.446 20.800 150.406 20.720 149.886C20.560 148.846 20.480 147.486 20.480 146.206C20.480 139.966 23.360 136.126 25.800 136.126Z"></path></g><g></g><g><g><path d="M47.620 153.326C47.620 153.326 47.460 153.566 47.460 153.846C47.460 154.046 47.580 154.286 47.900 154.406C48.060 154.446 48.140 154.486 48.260 154.486C48.660 154.486 48.820 154.126 48.820 154.126C48.820 154.126 50.540 151.366 50.980 150.606C51.140 150.326 51.300 150.206 51.380 150.206C51.540 150.206 51.620 150.526 51.620 150.766L51.620 161.086C51.620 162.006 50.700 162.606 49.860 162.606C49.580 162.606 49.180 162.726 49.180 163.206C49.180 163.646 49.540 163.846 50.060 163.846L58.580 163.846C59.220 163.846 59.220 163.206 59.220 163.206C59.220 163.206 59.220 162.606 58.620 162.606C58.060 162.606 57.340 161.886 57.340 161.206C57.340 161.206 57.340 145.366 57.340 144.726C57.340 144.086 57.100 143.846 56.540 143.806C55.980 143.806 54.980 143.966 54.460 143.966C53.700 143.966 52.980 143.926 52.380 143.846C52.300 143.846 52.220 143.806 52.180 143.806C51.740 143.806 51.620 144.206 51.460 144.566Z"></path><path d="M70.060 149.846C70.540 150.326 71.220 150.526 71.860 150.526C72.180 150.526 72.540 150.446 72.860 150.366C74.100 150.046 75.060 148.766 75.060 147.486C75.060 147.326 75.060 147.206 75.020 147.046C74.820 145.726 73.700 144.766 72.500 144.326C71.540 143.926 70.380 143.806 69.340 143.806C66.300 143.846 63.460 145.326 62.020 148.046C61.140 149.726 60.460 151.846 60.460 153.726L60.460 153.886C60.500 155.726 60.820 157.806 61.700 159.406C62.540 160.926 63.900 162.566 65.460 163.246C66.460 163.686 67.660 163.806 68.660 163.806C70.460 163.806 72.460 163.526 73.900 162.366C75.300 161.246 76.220 159.446 76.220 157.646C76.220 157.446 76.180 157.286 76.180 157.086C76.020 155.446 75.020 154.046 73.740 153.086C72.660 152.286 71.420 151.846 70.180 151.846C68.900 151.846 67.580 152.326 66.540 153.246C66.460 153.326 66.380 153.326 66.300 153.326C66.060 153.326 65.940 153.006 65.940 152.366C66.060 144.966 68.420 144.766 69.260 144.766C70.060 144.766 70.580 144.966 70.580 145.366C70.580 145.926 69.820 146.406 69.580 146.886C69.380 147.246 69.300 147.646 69.300 148.046C69.300 148.646 69.500 149.246 69.900 149.686C69.940 149.766 70.020 149.806 70.060 149.846ZM68.540 153.766C69.820 153.766 70.900 155.766 70.900 158.246C70.900 160.726 69.820 162.726 68.540 162.726C67.260 162.726 66.220 160.726 66.220 158.246C66.220 155.766 67.260 153.766 68.540 153.766Z"></path></g><g><path d="M72.180 176.806L69.260 176.806L69.260 168.246C69.260 167.926 69.220 167.566 68.780 167.566C68.420 167.566 68.220 167.646 67.980 167.926L64.180 172.526C64.020 172.726 63.820 172.966 63.820 173.446C63.820 173.446 63.820 175.046 63.820 176.806L58.420 176.806C61.620 174.086 68.020 165.006 68.140 164.566C68.140 164.486 68.180 164.446 68.180 164.366C68.180 164.046 67.900 163.806 67.580 163.806C67.220 163.806 65.580 163.886 64.860 163.886C64.140 163.886 62.340 163.806 62.020 163.806C61.660 163.806 61.100 163.926 61.100 164.566C61.100 169.526 57.180 175.086 55.980 176.766L55.740 177.086C55.740 177.126 55.700 177.166 55.700 177.206C55.620 177.366 55.580 177.526 55.580 177.646C55.580 178.046 55.900 178.326 56.380 178.326L63.820 178.326L63.820 180.846C63.820 181.926 62.940 182.246 62.220 182.246C61.580 182.246 61.300 182.606 61.300 183.006C61.300 183.406 61.460 183.846 62.060 183.846C62.700 183.846 70.580 183.846 70.580 183.846C70.980 183.846 71.380 183.566 71.380 183.006C71.380 182.446 70.900 182.206 70.500 182.206C70.100 182.206 69.260 181.966 69.260 180.686L69.260 178.326C70.980 178.326 72.180 178.326 72.180 178.326C72.580 178.326 72.780 178.046 72.780 177.566C72.780 177.086 72.620 176.806 72.180 176.806Z"></path></g></g></g><g><line stroke="black" stroke-width="1.6" x1="182.2722037791096" x2="182.2722037791096" y1="143.8461538461538" y2="183.8461538461538"></line></g><g><g><path d="M90.360 165.406L90.360 152.486C90.360 152.326 90.200 152.166 89.960 152.166L89.400 152.166C89.160 152.166 89 152.326 89 152.486L89 165.406C89 165.566 89.160 165.686 89.400 165.686L89.960 165.686C90.200 165.686 90.360 165.566 90.360 165.406ZM92.880 165.406L92.880 152.486C92.880 152.326 92.680 152.166 92.480 152.166L91.920 152.166C91.680 152.166 91.520 152.326 91.520 152.486L91.520 165.406C91.520 165.566 91.680 165.686 91.920 165.686L92.480 165.686C92.680 165.686 92.880 165.566 92.880 165.406ZM102.280 153.486C96.520 153.486 92.920 155.926 92.920 158.926C92.920 161.766 95.400 164.406 101.840 164.406C108.960 164.406 111.240 161.926 111.240 158.926C111.240 155.806 106.360 153.486 102.280 153.486ZM97.720 156.206C98.200 154.726 99.800 154.526 101.160 154.526C104.120 154.526 106.520 157.686 106.520 160.326C106.520 160.606 106.480 160.886 106.440 161.126C106.240 162.206 105.600 162.966 104.520 163.246C104.120 163.366 103.680 163.406 103.240 163.406C102.840 163.406 102.480 163.366 102.080 163.246C101.320 163.006 100.600 162.606 100 162.086C99.680 161.806 99.360 161.446 99.080 161.126C98.280 160.086 97.600 158.606 97.600 157.206C97.600 156.846 97.640 156.526 97.720 156.206ZM112.680 165.406L112.680 152.486C112.680 152.326 112.480 152.166 112.280 152.166L111.680 152.166C111.480 152.166 111.280 152.326 111.280 152.486L111.280 165.406C111.280 165.566 111.480 165.686 111.680 165.686L112.280 165.686C112.480 165.686 112.680 165.566 112.680 165.406ZM115.200 165.406L115.200 152.486C115.200 152.326 115 152.166 114.760 152.166L114.200 152.166C114 152.166 113.760 152.326 113.760 152.486L113.760 165.406C113.760 165.566 114 165.686 114.200 165.686L114.760 165.686C115 165.686 115.200 165.566 115.200 165.406Z"></path></g><line stroke="#000000" stroke-width="1.2" x1="89.6" x2="89.6" y1="NaN" y2="NaN"></line></g></g><g transform="translate(361.91835762526347)"><g><g><line stroke="#6A6A6A" stroke-width="1.3" x1="-16.600000000000023" x2="872.8508731439675" y1="183.8461538461538" y2="183.8461538461538"></line><line stroke="#6A6A6A" stroke-width="1.3" x1="-16.600000000000023" x2="872.8508731439675" y1="173.8461538461538" y2="173.8461538461538"></line><line stroke="#6A6A6A" stroke-width="1.3" x1="-16.600000000000023" x2="872.8508731439675" y1="163.8461538461538" y2="163.8461538461538"></line><line stroke="#6A6A6A" stroke-width="1.3" x1="-16.600000000000023" x2="872.8508731439675" y1="153.8461538461538" y2="153.8461538461538"></line><line stroke="#6A6A6A" stroke-width="1.3" x1="-16.600000000000023" x2="872.8508731439675" y1="143.8461538461538" y2="143.8461538461538"></line></g></g><g><line stroke="black" stroke-width="1.6" x1="93.27220377910957" x2="93.27220377910957" y1="143.8461538461538" y2="183.8461538461538"></line></g><g><g><path d="M1.360 165.406L1.360 152.486C1.360 152.326 1.200 152.166 0.960 152.166L0.400 152.166C0.160 152.166 0 152.326 0 152.486L0 165.406C0 165.566 0.160 165.686 0.400 165.686L0.960 165.686C1.200 165.686 1.360 165.566 1.360 165.406ZM3.880 165.406L3.880 152.486C3.880 152.326 3.680 152.166 3.480 152.166L2.920 152.166C2.680 152.166 2.520 152.326 2.520 152.486L2.520 165.406C2.520 165.566 2.680 165.686 2.920 165.686L3.480 165.686C3.680 165.686 3.880 165.566 3.880 165.406ZM13.280 153.486C7.520 153.486 3.920 155.926 3.920 158.926C3.920 161.766 6.400 164.406 12.840 164.406C19.960 164.406 22.240 161.926 22.240 158.926C22.240 155.806 17.360 153.486 13.280 153.486ZM8.720 156.206C9.200 154.726 10.800 154.526 12.160 154.526C15.120 154.526 17.520 157.686 17.520 160.326C17.520 160.606 17.480 160.886 17.440 161.126C17.240 162.206 16.600 162.966 15.520 163.246C15.120 163.366 14.680 163.406 14.240 163.406C13.840 163.406 13.480 163.366 13.080 163.246C12.320 163.006 11.600 162.606 11 162.086C10.680 161.806 10.360 161.446 10.080 161.126C9.280 160.086 8.600 158.606 8.600 157.206C8.600 156.846 8.640 156.526 8.720 156.206ZM23.680 165.406L23.680 152.486C23.680 152.326 23.480 152.166 23.280 152.166L22.680 152.166C22.480 152.166 22.280 152.326 22.280 152.486L22.280 165.406C22.280 165.566 22.480 165.686 22.680 165.686L23.280 165.686C23.480 165.686 23.680 165.566 23.680 165.406ZM26.200 165.406L26.200 152.486C26.200 152.326 26 152.166 25.760 152.166L25.200 152.166C25 152.166 24.760 152.326 24.760 152.486L24.760 165.406C24.760 165.566 25 165.686 25.200 165.686L25.760 165.686C26 165.686 26.200 165.566 26.200 165.406Z"></path></g></g></g><g transform="translate(470.990561404373)"><g></g><g><line stroke="black" stroke-width="1.6" x1="93.27220377910957" x2="93.27220377910957" y1="143.8461538461538" y2="183.8461538461538"></line></g><g><g><path d="M9.400 153.366C3.600 153.366 0 155.806 0 158.766C0 161.686 2.480 164.286 8.960 164.286C16.080 164.286 18.360 161.806 18.360 158.766C18.360 155.686 13.440 153.366 9.400 153.366ZM4.840 156.086C5.320 154.606 6.920 154.366 8.280 154.366C11.240 154.366 13.640 157.566 13.640 160.206C13.640 160.486 13.600 160.766 13.560 161.006C13.360 162.086 12.720 162.846 11.640 163.126C11.200 163.246 10.760 163.286 10.320 163.286C9.920 163.286 9.560 163.246 9.160 163.126C8.440 162.886 7.720 162.486 7.120 161.966C6.800 161.686 6.480 161.366 6.200 161.006C5.360 160.006 4.680 158.526 4.680 157.166C4.680 156.806 4.720 156.446 4.840 156.086Z"></path></g></g></g><g transform="translate(580.0627651834826)"><g></g><g><line stroke="black" stroke-width="1.6" x1="613.4064655857482" x2="613.4064655857482" y1="143.8461538461538" y2="183.8461538461538"></line><g><g><g><path d="M638.566 157.486C638.566 157.006 638.366 156.926 638.086 156.926C637.766 156.926 637.646 157.086 637.566 157.326C637.566 157.366 637.526 157.406 637.526 157.446C637.126 158.406 636.806 159.166 635.966 159.166C635.766 159.166 635.566 159.126 635.286 159.046C634.766 158.846 634.486 158.806 634.086 158.606C633.286 158.286 631.406 157.646 629.766 157.646C629.246 157.646 628.726 157.726 628.286 157.886C629.166 156.446 632.566 155.246 633.446 155.006C634.046 154.846 635.726 154.526 637.046 153.446C638.006 152.686 638.766 151.526 638.766 149.766C638.766 147.886 637.966 146.526 636.926 145.646C634.886 143.926 631.766 143.686 630.886 143.686C629.806 143.686 628.446 143.726 627.406 143.966C626.006 144.246 624.606 145.086 623.646 146.206C622.966 147.046 622.526 148.046 622.526 149.126C622.526 149.686 622.646 150.246 622.886 150.846C623.486 152.086 624.726 153.046 626.166 153.046C628.606 153.046 628.966 150.526 628.966 149.526C628.966 147.126 626.206 147.006 626.206 146.206C626.286 145.646 627.006 144.686 629.366 144.686C632.926 144.686 632.966 147.366 632.966 148.526C632.966 150.046 632.486 151.446 631.606 152.606C630.166 154.526 629.046 155.486 627.086 156.686C624.886 158.086 623.326 160.046 622.646 162.566C622.646 162.646 622.606 162.726 622.606 162.806C622.606 163.246 622.886 163.766 623.326 164.046C623.446 164.126 623.566 164.126 623.646 164.126C624.526 164.126 625.006 161.686 627.366 161.686C628.966 161.686 629.566 163.846 633.126 163.846C634.846 163.846 637.926 163.686 638.566 157.486Z"></path><path d="M650.886 156.806L647.966 156.806L647.966 148.246C647.966 147.926 647.926 147.566 647.486 147.566C647.126 147.566 646.926 147.646 646.686 147.926L642.886 152.526C642.726 152.726 642.526 152.966 642.526 153.446C642.526 153.446 642.526 155.046 642.526 156.806L637.126 156.806C640.326 154.086 646.726 145.006 646.846 144.566C646.846 144.486 646.886 144.446 646.886 144.366C646.886 144.046 646.606 143.806 646.286 143.806C645.926 143.806 644.286 143.886 643.566 143.886C642.846 143.886 641.046 143.806 640.726 143.806C640.366 143.806 639.806 143.926 639.806 144.566C639.806 149.526 635.886 155.086 634.686 156.766L634.446 157.086C634.446 157.126 634.406 157.166 634.406 157.206C634.326 157.366 634.286 157.526 634.286 157.646C634.286 158.046 634.606 158.326 635.086 158.326L642.526 158.326L642.526 160.846C642.526 161.926 641.646 162.246 640.926 162.246C640.286 162.246 640.006 162.606 640.006 163.006C640.006 163.406 640.166 163.846 640.766 163.846C641.406 163.846 649.286 163.846 649.286 163.846C649.686 163.846 650.086 163.566 650.086 163.006C650.086 162.446 649.606 162.206 649.206 162.206C648.806 162.206 647.966 161.966 647.966 160.686L647.966 158.326C649.686 158.326 650.886 158.326 650.886 158.326C651.286 158.326 651.486 158.046 651.486 157.566C651.486 157.086 651.326 156.806 650.886 156.806Z"></path></g><g><path d="M645.886 176.806L642.966 176.806L642.966 168.246C642.966 167.926 642.926 167.566 642.486 167.566C642.126 167.566 641.926 167.646 641.686 167.926L637.886 172.526C637.726 172.726 637.526 172.966 637.526 173.446C637.526 173.446 637.526 175.046 637.526 176.806L632.126 176.806C635.326 174.086 641.726 165.006 641.846 164.566C641.846 164.486 641.886 164.446 641.886 164.366C641.886 164.046 641.606 163.806 641.286 163.806C640.926 163.806 639.286 163.886 638.566 163.886C637.846 163.886 636.046 163.806 635.726 163.806C635.366 163.806 634.806 163.926 634.806 164.566C634.806 169.526 630.886 175.086 629.686 176.766L629.446 177.086C629.446 177.126 629.406 177.166 629.406 177.206C629.326 177.366 629.286 177.526 629.286 177.646C629.286 178.046 629.606 178.326 630.086 178.326L637.526 178.326L637.526 180.846C637.526 181.926 636.646 182.246 635.926 182.246C635.286 182.246 635.006 182.606 635.006 183.006C635.006 183.406 635.166 183.846 635.766 183.846C636.406 183.846 644.286 183.846 644.286 183.846C644.686 183.846 645.086 183.566 645.086 183.006C645.086 182.446 644.606 182.206 644.206 182.206C643.806 182.206 642.966 181.966 642.966 180.686L642.966 178.326C644.686 178.326 645.886 178.326 645.886 178.326C646.286 178.326 646.486 178.046 646.486 177.566C646.486 177.086 646.326 176.806 645.886 176.806Z"></path></g></g></g></g><g><g><path d="M4.480 164.646C12.120 164.646 13.640 158.446 13.640 156.926C13.640 154.566 11.760 153.046 9.080 153.046C2.160 153.046 0 158.406 0 160.806C0 163.246 1.960 164.646 4.480 164.646ZM8 160.966C5.920 162.366 4.480 162.846 3.480 162.846C2.520 162.846 1.960 162.366 1.640 161.806C1.480 161.526 1.360 161.206 1.360 160.886C1.360 159.886 2.360 158.606 5.560 156.766C7.840 155.446 9.280 154.966 10.240 154.966C11.120 154.966 11.600 155.366 11.920 155.926C12.080 156.206 12.200 156.486 12.200 156.806C12.200 157.726 11.240 158.846 8 160.966Z"></path></g><line stroke="#000000" stroke-width="1.2" x1="0.6" x2="0.6" y1="160.80615384615382" y2="195.80615384615382"></line></g><g><g><path d="M142.812 164.486C146.812 164.486 151.732 160.766 151.732 156.966C151.732 154.686 149.932 153.206 147.332 153.206C142.412 153.206 138.452 156.846 138.452 160.726C138.452 163.086 140.372 164.486 142.812 164.486Z"></path></g><line stroke="#000000" stroke-width="1.2" x1="139.05196905564162" x2="139.05196905564162" y1="160.68615384615381" y2="195.68615384615381"></line></g><g><g><path d="M262.930 164.486C266.930 164.486 271.850 160.766 271.850 156.966C271.850 154.686 270.050 153.206 267.450 153.206C262.530 153.206 258.570 156.846 258.570 160.726C258.570 163.086 260.490 164.486 262.930 164.486Z"></path></g><line stroke="#000000" stroke-width="1.2" x1="259.1702608201949" x2="259.1702608201949" y1="160.68615384615381" y2="195.68615384615381"></line><path d="M268.170 163.806C268.730 165.486 269.010 167.486 269.010 169.286C269.010 171.646 268.010 175.006 267.410 176.366C265.930 179.726 263.930 182.966 258.570 184.766L258.570 194.166C258.570 194.646 258.770 194.766 259.010 194.766C259.770 194.766 260.090 194.526 260.170 193.886C260.850 190.086 263.810 186.606 265.850 183.446C268.370 179.486 270.810 174.726 270.810 169.726C270.810 166.606 270.010 163.766 269.690 162.486C269.370 161.206 267.570 162.086 268.170 163.806Z"></path></g><g><g><path d="M364.715 164.486C368.715 164.486 373.635 160.766 373.635 156.966C373.635 154.686 371.835 153.206 369.235 153.206C364.315 153.206 360.355 156.846 360.355 160.726C360.355 163.086 362.275 164.486 364.715 164.486Z"></path></g><line stroke="#000000" stroke-width="1.2" x1="360.9548752936599" x2="360.9548752936599" y1="160.68615384615381" y2="195.68615384615381"></line><path d="M369.955 162.766C370.555 166.126 370.555 169.766 369.035 172.886C366.275 178.486 363.035 178.606 360.555 178.686L360.355 178.686L360.355 194.526C360.355 194.526 360.795 194.566 361.035 194.566C361.275 194.566 361.755 194.486 361.835 194.046C362.795 187.886 370.675 186.166 371.635 179.886C371.715 179.446 371.755 178.966 371.755 178.446C371.755 176.006 370.875 173.606 370.755 173.366C370.715 173.286 370.715 173.206 370.715 173.086C370.715 172.926 370.755 172.846 370.755 172.726C372.195 169.726 372.235 165.806 371.595 162.606C371.395 161.686 371.115 161.726 370.635 161.726C370.155 161.766 369.835 162.086 369.955 162.766ZM369.395 175.966C369.595 175.966 369.875 176.086 369.915 176.246C370.115 176.526 370.115 176.926 370.195 177.246C370.235 177.526 370.235 177.806 370.235 178.046C370.235 179.366 369.875 180.566 369.155 181.606C367.835 183.566 365.275 185.806 362.835 185.806L362.515 185.806C362.195 185.806 361.955 185.606 361.955 185.406C361.955 185.366 361.955 185.326 361.995 185.286C362.835 182.006 365.075 181.086 366.955 178.886C367.795 177.966 368.475 177.166 369.115 176.126C369.195 176.006 369.275 175.966 369.395 175.966Z"></path></g><g><g><path d="M448.166 164.486C452.166 164.486 457.086 160.766 457.086 156.966C457.086 154.686 455.286 153.206 452.686 153.206C447.766 153.206 443.806 156.846 443.806 160.726C443.806 163.086 445.726 164.486 448.166 164.486Z"></path></g><line stroke="#000000" stroke-width="1.2" x1="444.40581247603654" x2="444.40581247603654" y1="160.68615384615381" y2="195.68615384615381"></line><path d="M454.726 167.166C454.726 165.166 454.046 162.646 453.886 162.366C453.606 161.886 453.326 161.726 453.046 161.726C452.966 161.726 452.886 161.726 452.806 161.766C452.526 161.886 452.246 162.286 452.246 162.806C452.246 162.886 452.286 162.966 452.286 163.086C452.606 164.886 453.086 166.126 453.086 167.486C453.086 168.606 452.766 169.766 451.846 171.406C448.806 176.846 446.246 176.926 443.806 177.006L443.806 200.566C443.806 200.566 444.046 201.086 444.286 201.086C444.566 201.086 445.086 200.646 445.126 200.286C445.806 196.126 448.086 195.486 450.166 193.206C452.966 190.166 453.926 189.046 454.366 186.486C454.446 186.126 454.446 185.726 454.446 185.326C454.446 183.606 453.926 181.846 453.566 180.766C453.966 180.046 454.206 179.246 454.366 178.286C454.446 177.766 454.486 177.246 454.486 176.726C454.486 174.646 453.846 172.926 453.686 172.526C453.686 172.406 453.566 172.286 453.566 172.166C453.566 172.086 453.606 172.006 453.686 171.886L453.846 171.606C454.366 170.606 454.566 170.166 454.726 167.606ZM445.366 183.486C446.206 180.286 448.046 179.406 449.846 177.286C450.646 176.366 451.286 175.606 451.926 174.606C452.006 174.486 452.126 174.446 452.246 174.446C452.446 174.446 452.686 174.566 452.726 174.686C452.846 174.966 452.846 175.286 452.926 175.606C452.966 175.926 453.006 176.286 453.006 176.606C453.006 177.806 452.606 178.966 451.926 179.966C450.686 181.886 448.566 184.006 446.086 184.006L445.886 184.006C445.526 184.006 445.366 183.686 445.366 183.486ZM452.966 184.486C453.006 184.766 453.086 185.006 453.086 185.326C453.086 185.846 452.926 186.486 452.446 187.326C450.166 191.166 447.726 192.206 445.446 192.206C445.366 192.166 445.366 192.126 445.366 192.086C446.046 187.926 448.086 187.286 450.166 185.006C451.126 183.966 451.846 183.166 452.406 182.446C452.646 183.206 452.846 184.046 452.966 184.486Z"></path></g><g><g><path d="M513.283 164.486C517.283 164.486 522.203 160.766 522.203 156.966C522.203 154.686 520.403 153.206 517.803 153.206C512.883 153.206 508.923 156.846 508.923 160.726C508.923 163.086 510.843 164.486 513.283 164.486Z"></path></g><line stroke="#000000" stroke-width="1.2" x1="509.5230723673248" x2="509.5230723673248" y1="160.68615384615381" y2="195.68615384615381"></line><path d="M519.843 167.166C519.843 165.166 519.163 162.646 519.003 162.366C518.723 161.886 518.443 161.726 518.163 161.726C518.083 161.726 518.003 161.726 517.923 161.766C517.643 161.886 517.363 162.286 517.363 162.806C517.363 162.886 517.403 162.966 517.403 163.086C517.723 164.886 518.203 166.126 518.203 167.486C518.203 168.606 517.883 169.766 516.963 171.406C513.923 176.846 511.363 176.926 508.923 177.006L508.923 208.726C508.923 208.726 509.163 209.246 509.403 209.246C509.683 209.246 510.203 208.806 510.243 208.446C510.923 204.286 513.203 203.646 515.283 201.366C518.083 198.326 519.043 197.206 519.483 194.646C519.563 194.246 519.603 193.846 519.603 193.446C519.603 191.766 519.083 190.006 518.683 188.966C519.083 188.206 519.323 187.446 519.483 186.486C519.563 186.126 519.563 185.726 519.563 185.326C519.563 183.606 519.043 181.846 518.683 180.766C519.083 180.046 519.323 179.246 519.483 178.286C519.563 177.766 519.603 177.246 519.603 176.726C519.603 174.646 518.963 172.926 518.803 172.526C518.803 172.406 518.683 172.286 518.683 172.166C518.683 172.086 518.723 172.006 518.803 171.886L518.963 171.606C519.483 170.606 519.683 170.166 519.843 167.606ZM510.483 183.486C511.323 180.286 513.163 179.406 514.963 177.286C515.763 176.366 516.403 175.606 517.043 174.606C517.123 174.486 517.243 174.446 517.363 174.446C517.563 174.446 517.803 174.566 517.843 174.686C517.963 174.966 517.963 175.286 518.043 175.606C518.083 175.926 518.123 176.286 518.123 176.606C518.123 177.806 517.723 178.966 517.043 179.966C515.803 181.886 513.683 184.006 511.203 184.006L511.003 184.006C510.643 184.006 510.483 183.686 510.483 183.486ZM518.083 192.646C518.123 192.926 518.203 193.166 518.203 193.486C518.203 194.006 518.043 194.646 517.563 195.486C515.283 199.326 512.723 200.366 510.483 200.366C511.003 196.606 512.963 195.726 515.283 193.206C516.243 192.166 516.963 191.366 517.563 190.646ZM518.083 184.486C518.123 184.766 518.203 185.006 518.203 185.326C518.203 185.846 518.043 186.486 517.563 187.326C515.283 191.166 512.843 192.206 510.563 192.206C510.483 192.166 510.483 192.126 510.483 192.086C511.163 187.926 513.203 187.286 515.283 185.006C516.243 183.966 516.963 183.166 517.523 182.446C517.763 183.206 517.963 184.046 518.083 184.486Z"></path></g><g><g><path d="M560.067 164.486C564.067 164.486 568.987 160.766 568.987 156.966C568.987 154.686 567.187 153.206 564.587 153.206C559.667 153.206 555.707 156.846 555.707 160.726C555.707 163.086 557.627 164.486 560.067 164.486Z"></path></g><line stroke="#000000" stroke-width="1.2" x1="556.3066549675248" x2="556.3066549675248" y1="160.68615384615381" y2="195.68615384615381"></line><path d="M566.627 167.166C566.627 165.166 565.947 162.646 565.787 162.366C565.507 161.886 565.227 161.726 564.947 161.726C564.867 161.726 564.787 161.726 564.707 161.766C564.427 161.886 564.147 162.286 564.147 162.806C564.147 162.886 564.187 162.966 564.187 163.086C564.507 164.886 564.987 166.126 564.987 167.486C564.987 168.606 564.667 169.766 563.747 171.406C560.707 176.846 558.147 176.926 555.707 177.006L555.707 216.886C555.707 216.886 555.947 217.406 556.187 217.406C556.467 217.406 556.987 216.966 557.027 216.606C557.707 212.446 559.987 211.806 562.067 209.526C564.867 206.486 565.827 205.366 566.267 202.806C566.347 202.406 566.387 202.006 566.387 201.606C566.387 199.926 565.867 198.166 565.467 197.126C565.867 196.366 566.107 195.606 566.267 194.646C566.347 194.246 566.387 193.846 566.387 193.446C566.387 191.766 565.867 190.006 565.467 188.966C565.867 188.206 566.107 187.446 566.267 186.486C566.347 186.126 566.347 185.726 566.347 185.326C566.347 183.606 565.827 181.846 565.467 180.766C565.867 180.046 566.107 179.246 566.267 178.286C566.347 177.766 566.387 177.246 566.387 176.726C566.387 174.646 565.747 172.926 565.587 172.526C565.587 172.406 565.467 172.286 565.467 172.166C565.467 172.086 565.507 172.006 565.587 171.886L565.747 171.606C566.267 170.606 566.467 170.166 566.627 167.606ZM557.267 183.486C558.107 180.286 559.947 179.406 561.747 177.286C562.547 176.366 563.187 175.606 563.827 174.606C563.907 174.486 564.027 174.446 564.147 174.446C564.347 174.446 564.587 174.566 564.627 174.686C564.747 174.966 564.747 175.286 564.827 175.606C564.867 175.926 564.907 176.286 564.907 176.606C564.907 177.806 564.507 178.966 563.827 179.966C562.587 181.886 560.467 184.006 557.987 184.006L557.787 184.006C557.427 184.006 557.267 183.686 557.267 183.486ZM564.867 200.806C564.907 201.086 564.987 201.326 564.987 201.646C564.987 202.166 564.827 202.806 564.347 203.646C562.067 207.486 559.507 208.526 557.267 208.526C557.787 204.766 559.747 203.886 562.067 201.366C563.027 200.326 563.747 199.526 564.347 198.806ZM564.867 192.646C564.907 192.926 564.987 193.166 564.987 193.486C564.987 194.006 564.827 194.646 564.347 195.486C562.067 199.326 559.507 200.366 557.267 200.366C557.787 196.606 559.747 195.726 562.067 193.206C563.027 192.166 563.747 191.366 564.347 190.646ZM564.867 184.486C564.907 184.766 564.987 185.006 564.987 185.326C564.987 185.846 564.827 186.486 564.347 187.326C562.067 191.166 559.627 192.206 557.347 192.206C557.267 192.166 557.267 192.126 557.267 192.086C557.947 187.926 559.987 187.286 562.067 185.006C563.027 183.966 563.747 183.166 564.307 182.446C564.547 183.206 564.747 184.046 564.867 184.486Z"></path></g><g><g><path d="M588.517 164.486C592.517 164.486 597.437 160.766 597.437 156.966C597.437 154.686 595.637 153.206 593.037 153.206C588.117 153.206 584.157 156.846 584.157 160.726C584.157 163.086 586.077 164.486 588.517 164.486Z"></path></g><line stroke="#000000" stroke-width="1.2" x1="584.7565602766365" x2="584.7565602766365" y1="160.68615384615381" y2="195.68615384615381"></line><path d="M595.077 167.166C595.077 165.166 594.397 162.646 594.237 162.366C593.957 161.886 593.677 161.726 593.397 161.726C593.317 161.726 593.237 161.726 593.157 161.766C592.877 161.886 592.597 162.286 592.597 162.806C592.597 162.886 592.637 162.966 592.637 163.086C592.957 164.886 593.437 166.126 593.437 167.486C593.437 168.606 593.117 169.766 592.197 171.406C589.157 176.846 586.597 176.926 584.157 177.006L584.157 216.886C584.157 216.886 584.397 217.406 584.637 217.406C584.917 217.406 585.437 216.966 585.477 216.606C586.157 212.446 588.437 211.806 590.517 209.526C593.317 206.486 594.277 205.366 594.717 202.806C594.797 202.406 594.837 202.006 594.837 201.606C594.837 199.926 594.317 198.166 593.917 197.126C594.317 196.366 594.557 195.606 594.717 194.646C594.797 194.246 594.837 193.846 594.837 193.446C594.837 191.766 594.317 190.006 593.917 188.966C594.317 188.206 594.557 187.446 594.717 186.486C594.797 186.126 594.797 185.726 594.797 185.326C594.797 183.606 594.277 181.846 593.917 180.766C594.317 180.046 594.557 179.246 594.717 178.286C594.797 177.766 594.837 177.246 594.837 176.726C594.837 174.646 594.197 172.926 594.037 172.526C594.037 172.406 593.917 172.286 593.917 172.166C593.917 172.086 593.957 172.006 594.037 171.886L594.197 171.606C594.717 170.606 594.917 170.166 595.077 167.606ZM585.717 183.486C586.557 180.286 588.397 179.406 590.197 177.286C590.997 176.366 591.637 175.606 592.277 174.606C592.357 174.486 592.477 174.446 592.597 174.446C592.797 174.446 593.037 174.566 593.077 174.686C593.197 174.966 593.197 175.286 593.277 175.606C593.317 175.926 593.357 176.286 593.357 176.606C593.357 177.806 592.957 178.966 592.277 179.966C591.037 181.886 588.917 184.006 586.437 184.006L586.237 184.006C585.877 184.006 585.717 183.686 585.717 183.486ZM593.317 200.806C593.357 201.086 593.437 201.326 593.437 201.646C593.437 202.166 593.277 202.806 592.797 203.646C590.517 207.486 587.957 208.526 585.717 208.526C586.237 204.766 588.197 203.886 590.517 201.366C591.477 200.326 592.197 199.526 592.797 198.806ZM593.317 192.646C593.357 192.926 593.437 193.166 593.437 193.486C593.437 194.006 593.277 194.646 592.797 195.486C590.517 199.326 587.957 200.366 585.717 200.366C586.237 196.606 588.197 195.726 590.517 193.206C591.477 192.166 592.197 191.366 592.797 190.646ZM593.317 184.486C593.357 184.766 593.437 185.006 593.437 185.326C593.437 185.846 593.277 186.486 592.797 187.326C590.517 191.166 588.077 192.206 585.797 192.206C585.717 192.166 585.717 192.126 585.717 192.086C586.397 187.926 588.437 187.286 590.517 185.006C591.477 183.966 592.197 183.166 592.757 182.446C592.997 183.206 593.197 184.046 593.317 184.486Z"></path></g></g><g transform="translate(93.84615384615385)"><g><g><line stroke="#6A6A6A" stroke-width="1.3" x1="0" x2="1140.923076923077" y1="314.8461538461538" y2="314.8461538461538"></line><line stroke="#6A6A6A" stroke-width="1.3" x1="0" x2="1140.923076923077" y1="304.8461538461538" y2="304.8461538461538"></line><line stroke="#6A6A6A" stroke-width="1.3" x1="0" x2="1140.923076923077" y1="294.8461538461538" y2="294.8461538461538"></line><line stroke="#6A6A6A" stroke-width="1.3" x1="0" x2="1140.923076923077" y1="284.8461538461538" y2="284.8461538461538"></line><line stroke="#6A6A6A" stroke-width="1.3" x1="0" x2="1140.923076923077" y1="274.8461538461538" y2="274.8461538461538"></line></g><g><path d="M25.200 260.926C24.640 260.926 23.400 261.966 22.600 262.846C19.640 266.126 18.680 271.126 18.680 275.286C18.680 277.606 18.960 280.206 19.240 281.846C19.320 282.326 19.360 282.406 18.880 282.806C16.320 284.926 13.560 287.366 11.480 289.926C8.720 293.366 7 297.086 7 301.366C7 308.326 11.760 314.926 21.560 314.926C22.480 314.926 23.520 314.846 24.320 314.686C24.760 314.606 24.840 314.566 24.920 315.046C25.400 317.726 26 321.206 26 323.086C26 329.006 22 329.726 19.640 329.726C17.480 329.726 16.440 329.086 16.440 328.566C16.440 328.126 16.800 328.166 17.720 327.886C18.960 327.526 20.400 326.446 20.400 324.126C20.400 321.926 19 320.046 16.560 320.046C13.880 320.046 12.280 322.166 12.280 324.646C12.280 327.246 13.840 331.166 19.880 331.166C22.560 331.166 27.760 329.966 27.760 323.166C27.760 320.886 27.040 317.086 26.600 314.606C26.520 314.126 26.560 314.166 27.120 313.926C31.160 312.326 33.840 308.926 33.840 304.406C33.840 299.286 30.080 294.766 24.200 294.766C23.080 294.766 23.200 294.966 23.040 294.046L22.040 288.246C21.960 287.766 22.040 287.726 22.280 287.486C22.920 286.886 23.760 286.046 24.520 285.206C27.880 281.526 29.880 276.766 29.880 272.246C29.880 268.766 28.920 265.326 27.280 262.926C26.680 262.046 25.640 260.926 25.200 260.926ZM20.040 289.086C20.440 288.766 20.520 288.806 20.600 289.246L21.440 294.366C21.560 295.126 21.560 295.086 20.840 295.326C17.320 296.526 15.040 299.686 15.040 303.086C15.040 306.686 16.920 309.246 19.640 310.166C19.960 310.286 20.440 310.406 20.720 310.406C21.040 310.406 21.200 310.206 21.200 309.966C21.200 309.686 20.880 309.566 20.600 309.446C18.920 308.726 17.720 307.006 17.720 305.166C17.720 302.886 19.280 301.166 21.720 300.486C22.360 300.326 22.440 300.366 22.520 300.806L24.520 312.726C24.600 313.166 24.560 313.166 23.960 313.286C23.320 313.406 22.520 313.486 21.720 313.486C14.720 313.486 10.200 309.606 10.200 304.046C10.200 301.686 10.600 298.526 13.920 294.766C16.320 292.086 18.160 290.606 20.040 289.086ZM24.640 300.166C27.880 300.446 30.560 303.166 30.560 306.686C30.560 309.206 29.040 311.246 26.800 312.366C26.320 312.606 26.240 312.606 26.160 312.126L24.200 300.726C24.120 300.246 24.160 300.126 24.640 300.166ZM25.800 267.126C27.120 267.126 28.200 268.206 28.200 270.406C28.200 273.166 26.880 275.726 23.760 278.846C23.120 279.486 22.160 280.406 21.240 281.206C20.960 281.446 20.800 281.406 20.720 280.886C20.560 279.846 20.480 278.486 20.480 277.206C20.480 270.966 23.360 267.126 25.800 267.126Z"></path></g><g></g><g><g><path d="M64.860 288.486C64.860 288.006 64.660 287.926 64.380 287.926C64.060 287.926 63.940 288.086 63.860 288.326C63.860 288.366 63.820 288.406 63.820 288.446C63.420 289.406 63.100 290.166 62.260 290.166C62.060 290.166 61.860 290.126 61.580 290.046C61.060 289.846 60.780 289.806 60.380 289.606C59.580 289.286 57.700 288.646 56.060 288.646C55.540 288.646 55.020 288.726 54.580 288.886C55.460 287.446 58.860 286.246 59.740 286.006C60.340 285.846 62.020 285.526 63.340 284.446C64.300 283.686 65.060 282.526 65.060 280.766C65.060 278.886 64.260 277.526 63.220 276.646C61.180 274.926 58.060 274.686 57.180 274.686C56.100 274.686 54.740 274.726 53.700 274.966C52.300 275.246 50.900 276.086 49.940 277.206C49.260 278.046 48.820 279.046 48.820 280.126C48.820 280.686 48.940 281.246 49.180 281.846C49.780 283.086 51.020 284.046 52.460 284.046C54.900 284.046 55.260 281.526 55.260 280.526C55.260 278.126 52.500 278.006 52.500 277.206C52.580 276.646 53.300 275.686 55.660 275.686C59.220 275.686 59.260 278.366 59.260 279.526C59.260 281.046 58.780 282.446 57.900 283.606C56.460 285.526 55.340 286.486 53.380 287.686C51.180 289.086 49.620 291.046 48.940 293.566C48.940 293.646 48.900 293.726 48.900 293.806C48.900 294.246 49.180 294.766 49.620 295.046C49.740 295.126 49.860 295.126 49.940 295.126C50.820 295.126 51.300 292.686 53.660 292.686C55.260 292.686 55.860 294.846 59.420 294.846C61.140 294.846 64.220 294.686 64.860 288.486Z"></path><path d="M77.180 287.806L74.260 287.806L74.260 279.246C74.260 278.926 74.220 278.566 73.780 278.566C73.420 278.566 73.220 278.646 72.980 278.926L69.180 283.526C69.020 283.726 68.820 283.966 68.820 284.446C68.820 284.446 68.820 286.046 68.820 287.806L63.420 287.806C66.620 285.086 73.020 276.006 73.140 275.566C73.140 275.486 73.180 275.446 73.180 275.366C73.180 275.046 72.900 274.806 72.580 274.806C72.220 274.806 70.580 274.886 69.860 274.886C69.140 274.886 67.340 274.806 67.020 274.806C66.660 274.806 66.100 274.926 66.100 275.566C66.100 280.526 62.180 286.086 60.980 287.766L60.740 288.086C60.740 288.126 60.700 288.166 60.700 288.206C60.620 288.366 60.580 288.526 60.580 288.646C60.580 289.046 60.900 289.326 61.380 289.326L68.820 289.326L68.820 291.846C68.820 292.926 67.940 293.246 67.220 293.246C66.580 293.246 66.300 293.606 66.300 294.006C66.300 294.406 66.460 294.846 67.060 294.846C67.700 294.846 75.580 294.846 75.580 294.846C75.980 294.846 76.380 294.566 76.380 294.006C76.380 293.446 75.900 293.206 75.500 293.206C75.100 293.206 74.260 292.966 74.260 291.686L74.260 289.326C75.980 289.326 77.180 289.326 77.180 289.326C77.580 289.326 77.780 289.046 77.780 288.566C77.780 288.086 77.620 287.806 77.180 287.806Z"></path></g><g><path d="M72.180 307.806L69.260 307.806L69.260 299.246C69.260 298.926 69.220 298.566 68.780 298.566C68.420 298.566 68.220 298.646 67.980 298.926L64.180 303.526C64.020 303.726 63.820 303.966 63.820 304.446C63.820 304.446 63.820 306.046 63.820 307.806L58.420 307.806C61.620 305.086 68.020 296.006 68.140 295.566C68.140 295.486 68.180 295.446 68.180 295.366C68.180 295.046 67.900 294.806 67.580 294.806C67.220 294.806 65.580 294.886 64.860 294.886C64.140 294.886 62.340 294.806 62.020 294.806C61.660 294.806 61.100 294.926 61.100 295.566C61.100 300.526 57.180 306.086 55.980 307.766L55.740 308.086C55.740 308.126 55.700 308.166 55.700 308.206C55.620 308.366 55.580 308.526 55.580 308.646C55.580 309.046 55.900 309.326 56.380 309.326L63.820 309.326L63.820 311.846C63.820 312.926 62.940 313.246 62.220 313.246C61.580 313.246 61.300 313.606 61.300 314.006C61.300 314.406 61.460 314.846 62.060 314.846C62.700 314.846 70.580 314.846 70.580 314.846C70.980 314.846 71.380 314.566 71.380 314.006C71.380 313.446 70.900 313.206 70.500 313.206C70.100 313.206 69.260 312.966 69.260 311.686L69.260 309.326C70.980 309.326 72.180 309.326 72.180 309.326C72.580 309.326 72.780 309.046 72.780 308.566C72.780 308.086 72.620 307.806 72.180 307.806Z"></path></g></g><text font-family='Alegreya' font-style='italic' text-anchor='end' stroke='#7a7a7a' font-size="24" x="0" y="264.8461538461538">5</text></g><g><line stroke="black" stroke-width="1.6" x1="428.8410256410256" x2="428.8410256410256" y1="274.8461538461538" y2="314.8461538461538"></line></g><g><g><path d="M90.360 296.406L90.360 283.486C90.360 283.326 90.200 283.166 89.960 283.166L89.400 283.166C89.160 283.166 89 283.326 89 283.486L89 296.406C89 296.566 89.160 296.686 89.400 296.686L89.960 296.686C90.200 296.686 90.360 296.566 90.360 296.406ZM92.880 296.406L92.880 283.486C92.880 283.326 92.680 283.166 92.480 283.166L91.920 283.166C91.680 283.166 91.520 283.326 91.520 283.486L91.520 296.406C91.520 296.566 91.680 296.686 91.920 296.686L92.480 296.686C92.680 296.686 92.880 296.566 92.880 296.406ZM102.280 284.486C96.520 284.486 92.920 286.926 92.920 289.926C92.920 292.766 95.400 295.406 101.840 295.406C108.960 295.406 111.240 292.926 111.240 289.926C111.240 286.806 106.360 284.486 102.280 284.486ZM97.720 287.206C98.200 285.726 99.800 285.526 101.160 285.526C104.120 285.526 106.520 288.686 106.520 291.326C106.520 291.606 106.480 291.886 106.440 292.126C106.240 293.206 105.600 293.966 104.520 294.246C104.120 294.366 103.680 294.406 103.240 294.406C102.840 294.406 102.480 294.366 102.080 294.246C101.320 294.006 100.600 293.606 100 293.086C99.680 292.806 99.360 292.446 99.080 292.126C98.280 291.086 97.600 289.606 97.600 288.206C97.600 287.846 97.640 287.526 97.720 287.206ZM112.680 296.406L112.680 283.486C112.680 283.326 112.480 283.166 112.280 283.166L111.680 283.166C111.480 283.166 111.280 283.326 111.280 283.486L111.280 296.406C111.280 296.566 111.480 296.686 111.680 296.686L112.280 296.686C112.480 296.686 112.680 296.566 112.680 296.406ZM115.200 296.406L115.200 283.486C115.200 283.326 115 283.166 114.760 283.166L114.200 283.166C114 283.166 113.760 283.326 113.760 283.486L113.760 296.406C113.760 296.566 114 296.686 114.200 296.686L114.760 296.686C115 296.686 115.200 296.566 115.200 296.406Z"></path><g><circle cx="121.2" cy="289.8461538461538" fill="#000000" r="2.4"></circle></g></g><line stroke="#000000" stroke-width="1.2" x1="89.6" x2="89.6" y1="NaN" y2="NaN"></line></g></g><g transform="translate(538.4871794871794)"><g></g><g><line stroke="black" stroke-width="1.6" x1="339.8410256410256" x2="339.8410256410256" y1="274.8461538461538" y2="314.8461538461538"></line></g><g><g><path d="M1.360 296.406L1.360 283.486C1.360 283.326 1.200 283.166 0.960 283.166L0.400 283.166C0.160 283.166 0 283.326 0 283.486L0 296.406C0 296.566 0.160 296.686 0.400 296.686L0.960 296.686C1.200 296.686 1.360 296.566 1.360 296.406ZM3.880 296.406L3.880 283.486C3.880 283.326 3.680 283.166 3.480 283.166L2.920 283.166C2.680 283.166 2.520 283.326 2.520 283.486L2.520 296.406C2.520 296.566 2.680 296.686 2.920 296.686L3.480 296.686C3.680 296.686 3.880 296.566 3.880 296.406ZM13.280 284.486C7.520 284.486 3.920 286.926 3.920 289.926C3.920 292.766 6.400 295.406 12.840 295.406C19.960 295.406 22.240 292.926 22.240 289.926C22.240 286.806 17.360 284.486 13.280 284.486ZM8.720 287.206C9.200 285.726 10.800 285.526 12.160 285.526C15.120 285.526 17.520 288.686 17.520 291.326C17.520 291.606 17.480 291.886 17.440 292.126C17.240 293.206 16.600 293.966 15.520 294.246C15.120 294.366 14.680 294.406 14.240 294.406C13.840 294.406 13.480 294.366 13.080 294.246C12.320 294.006 11.600 293.606 11 293.086C10.680 292.806 10.360 292.446 10.080 292.126C9.280 291.086 8.600 289.606 8.600 288.206C8.600 287.846 8.640 287.526 8.720 287.206ZM23.680 296.406L23.680 283.486C23.680 283.326 23.480 283.166 23.280 283.166L22.680 283.166C22.480 283.166 22.280 283.326 22.280 283.486L22.280 296.406C22.280 296.566 22.480 296.686 22.680 296.686L23.280 296.686C23.480 296.686 23.680 296.566 23.680 296.406ZM26.200 296.406L26.200 283.486C26.200 283.326 26 283.166 25.760 283.166L25.200 283.166C25 283.166 24.760 283.326 24.760 283.486L24.760 296.406C24.760 296.566 25 296.686 25.200 296.686L25.760 296.686C26 296.686 26.200 296.566 26.200 296.406Z"></path><g><circle cx="32.2" cy="289.8461538461538" fill="#000000" r="2.4"></circle></g></g></g></g><g transform="translate(894.1282051282051)"><g></g><g><line stroke="black" stroke-width="1.6" x1="339.8410256410256" x2="339.8410256410256" y1="274.8461538461538" y2="314.8461538461538"></line></g><g><g><path d="M9.400 284.366C3.600 284.366 0 286.806 0 289.766C0 292.686 2.480 295.286 8.960 295.286C16.080 295.286 18.360 292.806 18.360 289.766C18.360 286.686 13.440 284.366 9.400 284.366ZM4.840 287.086C5.320 285.606 6.920 285.366 8.280 285.366C11.240 285.366 13.640 288.566 13.640 291.206C13.640 291.486 13.600 291.766 13.560 292.006C13.360 293.086 12.720 293.846 11.640 294.126C11.200 294.246 10.760 294.286 10.320 294.286C9.920 294.286 9.560 294.246 9.160 294.126C8.440 293.886 7.720 293.486 7.120 292.966C6.800 292.686 6.480 292.366 6.200 292.006C5.360 291.006 4.680 289.526 4.680 288.166C4.680 287.806 4.720 287.446 4.840 287.086Z"></path></g></g></g><g transform="translate(93.84615384615385)"><g><g><line stroke="#6A6A6A" stroke-width="1.3" x1="0" x2="1140.923076923077" y1="445.8461538461538" y2="445.8461538461538"></line><line stroke="#6A6A6A" stroke-width="1.3" x1="0" x2="1140.923076923077" y1="435.8461538461538" y2="435.8461538461538"></line><line stroke="#6A6A6A" stroke-width="1.3" x1="0" x2="1140.923076923077" y1="425.8461538461538" y2="425.8461538461538"></line><line stroke="#6A6A6A" stroke-width="1.3" x1="0" x2="1140.923076923077" y1="415.8461538461538" y2="415.8461538461538"></line><line stroke="#6A6A6A" stroke-width="1.3" x1="0" x2="1140.923076923077" y1="405.8461538461538" y2="405.8461538461538"></line></g><g><path d="M25.200 391.926C24.640 391.926 23.400 392.966 22.600 393.846C19.640 397.126 18.680 402.126 18.680 406.286C18.680 408.606 18.960 411.206 19.240 412.846C19.320 413.326 19.360 413.406 18.880 413.806C16.320 415.926 13.560 418.366 11.480 420.926C8.720 424.366 7 428.086 7 432.366C7 439.326 11.760 445.926 21.560 445.926C22.480 445.926 23.520 445.846 24.320 445.686C24.760 445.606 24.840 445.566 24.920 446.046C25.400 448.726 26 452.206 26 454.086C26 460.006 22 460.726 19.640 460.726C17.480 460.726 16.440 460.086 16.440 459.566C16.440 459.126 16.800 459.166 17.720 458.886C18.960 458.526 20.400 457.446 20.400 455.126C20.400 452.926 19 451.046 16.560 451.046C13.880 451.046 12.280 453.166 12.280 455.646C12.280 458.246 13.840 462.166 19.880 462.166C22.560 462.166 27.760 460.966 27.760 454.166C27.760 451.886 27.040 448.086 26.600 445.606C26.520 445.126 26.560 445.166 27.120 444.926C31.160 443.326 33.840 439.926 33.840 435.406C33.840 430.286 30.080 425.766 24.200 425.766C23.080 425.766 23.200 425.966 23.040 425.046L22.040 419.246C21.960 418.766 22.040 418.726 22.280 418.486C22.920 417.886 23.760 417.046 24.520 416.206C27.880 412.526 29.880 407.766 29.880 403.246C29.880 399.766 28.920 396.326 27.280 393.926C26.680 393.046 25.640 391.926 25.200 391.926ZM20.040 420.086C20.440 419.766 20.520 419.806 20.600 420.246L21.440 425.366C21.560 426.126 21.560 426.086 20.840 426.326C17.320 427.526 15.040 430.686 15.040 434.086C15.040 437.686 16.920 440.246 19.640 441.166C19.960 441.286 20.440 441.406 20.720 441.406C21.040 441.406 21.200 441.206 21.200 440.966C21.200 440.686 20.880 440.566 20.600 440.446C18.920 439.726 17.720 438.006 17.720 436.166C17.720 433.886 19.280 432.166 21.720 431.486C22.360 431.326 22.440 431.366 22.520 431.806L24.520 443.726C24.600 444.166 24.560 444.166 23.960 444.286C23.320 444.406 22.520 444.486 21.720 444.486C14.720 444.486 10.200 440.606 10.200 435.046C10.200 432.686 10.600 429.526 13.920 425.766C16.320 423.086 18.160 421.606 20.040 420.086ZM24.640 431.166C27.880 431.446 30.560 434.166 30.560 437.686C30.560 440.206 29.040 442.246 26.800 443.366C26.320 443.606 26.240 443.606 26.160 443.126L24.200 431.726C24.120 431.246 24.160 431.126 24.640 431.166ZM25.800 398.126C27.120 398.126 28.200 399.206 28.200 401.406C28.200 404.166 26.880 406.726 23.760 409.846C23.120 410.486 22.160 411.406 21.240 412.206C20.960 412.446 20.800 412.406 20.720 411.886C20.560 410.846 20.480 409.486 20.480 408.206C20.480 401.966 23.360 398.126 25.800 398.126Z"></path></g><g></g><text font-family='Alegreya' font-style='italic' text-anchor='end' stroke='#7a7a7a' font-size="24" x="0" y="395.8461538461538">8</text></g><g><line stroke="black" stroke-width="1.6" x1="775.0673910104373" x2="775.0673910104373" y1="405.8461538461538" y2="445.8461538461538"></line></g><g><g><path d="M52.980 426.646C60.620 426.646 62.140 420.446 62.140 418.926C62.140 416.566 60.260 415.046 57.580 415.046C50.660 415.046 48.500 420.406 48.500 422.806C48.500 425.246 50.460 426.646 52.980 426.646ZM56.500 422.966C54.420 424.366 52.980 424.846 51.980 424.846C51.020 424.846 50.460 424.366 50.140 423.806C49.980 423.526 49.860 423.206 49.860 422.886C49.860 421.886 50.860 420.606 54.060 418.766C56.340 417.446 57.780 416.966 58.740 416.966C59.620 416.966 60.100 417.366 60.420 417.926C60.580 418.206 60.700 418.486 60.700 418.806C60.700 419.726 59.740 420.846 56.500 422.966Z"></path><g><circle cx="68.14" cy="420.8461538461538" fill="#000000" r="2.4"></circle></g></g><line stroke="#000000" stroke-width="1.2" x1="49.1" x2="49.1" y1="422.8061538461538" y2="457.8061538461538"></line></g><g><g><path d="M212.215 426.486C216.215 426.486 221.135 422.766 221.135 418.966C221.135 416.686 219.335 415.206 216.735 415.206C211.815 415.206 207.855 418.846 207.855 422.726C207.855 425.086 209.775 426.486 212.215 426.486Z"></path><g><circle cx="227.1351541409006" cy="420.8461538461538" fill="#000000" r="2.4"></circle></g></g><line stroke="#000000" stroke-width="1.2" x1="208.4551541409006" x2="208.4551541409006" y1="422.6861538461538" y2="457.6861538461538"></line></g><g><g><path d="M351.234 426.486C355.234 426.486 360.154 422.766 360.154 418.966C360.154 416.686 358.354 415.206 355.754 415.206C350.834 415.206 346.874 418.846 346.874 422.726C346.874 425.086 348.794 426.486 351.234 426.486Z"></path><g><circle cx="366.15424005525426" cy="420.8461538461538" fill="#000000" r="2.4"></circle></g></g><line stroke="#000000" stroke-width="1.2" x1="347.4742400552543" x2="347.4742400552543" y1="422.6861538461538" y2="457.6861538461538"></line><path d="M356.474 425.806C357.034 427.486 357.314 429.486 357.314 431.286C357.314 433.646 356.314 437.006 355.714 438.366C354.234 441.726 352.234 444.966 346.874 446.766L346.874 456.166C346.874 456.646 347.074 456.766 347.314 456.766C348.074 456.766 348.394 456.526 348.474 455.886C349.154 452.086 352.114 448.606 354.154 445.446C356.674 441.486 359.114 436.726 359.114 431.726C359.114 428.606 358.314 425.766 357.994 424.486C357.674 423.206 355.874 424.086 356.474 425.806Z"></path></g><g><g><path d="M469.917 426.486C473.917 426.486 478.837 422.766 478.837 418.966C478.837 416.686 477.037 415.206 474.437 415.206C469.517 415.206 465.557 418.846 465.557 422.726C465.557 425.086 467.477 426.486 469.917 426.486Z"></path><g><circle cx="484.83725774306095" cy="420.8461538461538" fill="#000000" r="2.4"></circle></g></g><line stroke="#000000" stroke-width="1.2" x1="466.157257743061" x2="466.157257743061" y1="422.6861538461538" y2="457.6861538461538"></line><path d="M475.157 424.766C475.757 428.126 475.757 431.766 474.237 434.886C471.477 440.486 468.237 440.606 465.757 440.686L465.557 440.686L465.557 456.526C465.557 456.526 465.997 456.566 466.237 456.566C466.477 456.566 466.957 456.486 467.037 456.046C467.997 449.886 475.877 448.166 476.837 441.886C476.917 441.446 476.957 440.966 476.957 440.446C476.957 438.006 476.077 435.606 475.957 435.366C475.917 435.286 475.917 435.206 475.917 435.086C475.917 434.926 475.957 434.846 475.957 434.726C477.397 431.726 477.437 427.806 476.797 424.606C476.597 423.686 476.317 423.726 475.837 423.726C475.357 423.766 475.037 424.086 475.157 424.766ZM474.597 437.966C474.797 437.966 475.077 438.086 475.117 438.246C475.317 438.526 475.317 438.926 475.397 439.246C475.437 439.526 475.437 439.806 475.437 440.046C475.437 441.366 475.077 442.566 474.357 443.606C473.037 445.566 470.477 447.806 468.037 447.806L467.717 447.806C467.397 447.806 467.157 447.606 467.157 447.406C467.157 447.366 467.157 447.326 467.197 447.286C468.037 444.006 470.277 443.086 472.157 440.886C472.997 439.966 473.677 439.166 474.317 438.126C474.397 438.006 474.477 437.966 474.597 437.966Z"></path></g><g><g><path d="M568.264 426.486C572.264 426.486 577.184 422.766 577.184 418.966C577.184 416.686 575.384 415.206 572.784 415.206C567.864 415.206 563.904 418.846 563.904 422.726C563.904 425.086 565.824 426.486 568.264 426.486Z"></path><g><circle cx="583.1842072043207" cy="420.8461538461538" fill="#000000" r="2.4"></circle></g></g><line stroke="#000000" stroke-width="1.2" x1="564.5042072043208" x2="564.5042072043208" y1="422.6861538461538" y2="457.6861538461538"></line><path d="M574.824 429.166C574.824 427.166 574.144 424.646 573.984 424.366C573.704 423.886 573.424 423.726 573.144 423.726C573.064 423.726 572.984 423.726 572.904 423.766C572.624 423.886 572.344 424.286 572.344 424.806C572.344 424.886 572.384 424.966 572.384 425.086C572.704 426.886 573.184 428.126 573.184 429.486C573.184 430.606 572.864 431.766 571.944 433.406C568.904 438.846 566.344 438.926 563.904 439.006L563.904 462.566C563.904 462.566 564.144 463.086 564.384 463.086C564.664 463.086 565.184 462.646 565.224 462.286C565.904 458.126 568.184 457.486 570.264 455.206C573.064 452.166 574.024 451.046 574.464 448.486C574.544 448.126 574.544 447.726 574.544 447.326C574.544 445.606 574.024 443.846 573.664 442.766C574.064 442.046 574.304 441.246 574.464 440.286C574.544 439.766 574.584 439.246 574.584 438.726C574.584 436.646 573.944 434.926 573.784 434.526C573.784 434.406 573.664 434.286 573.664 434.166C573.664 434.086 573.704 434.006 573.784 433.886L573.944 433.606C574.464 432.606 574.664 432.166 574.824 429.606ZM565.464 445.486C566.304 442.286 568.144 441.406 569.944 439.286C570.744 438.366 571.384 437.606 572.024 436.606C572.104 436.486 572.224 436.446 572.344 436.446C572.544 436.446 572.784 436.566 572.824 436.686C572.944 436.966 572.944 437.286 573.024 437.606C573.064 437.926 573.104 438.286 573.104 438.606C573.104 439.806 572.704 440.966 572.024 441.966C570.784 443.886 568.664 446.006 566.184 446.006L565.984 446.006C565.624 446.006 565.464 445.686 565.464 445.486ZM573.064 446.486C573.104 446.766 573.184 447.006 573.184 447.326C573.184 447.846 573.024 448.486 572.544 449.326C570.264 453.166 567.824 454.206 565.544 454.206C565.464 454.166 565.464 454.126 565.464 454.086C566.144 449.926 568.184 449.286 570.264 447.006C571.224 445.966 571.944 445.166 572.504 444.446C572.744 445.206 572.944 446.046 573.064 446.486Z"></path></g><g><g><path d="M646.275 426.486C650.275 426.486 655.195 422.766 655.195 418.966C655.195 416.686 653.395 415.206 650.795 415.206C645.875 415.206 641.915 418.846 641.915 422.726C641.915 425.086 643.835 426.486 646.275 426.486Z"></path><g><circle cx="661.1950884390336" cy="420.8461538461538" fill="#000000" r="2.4"></circle></g></g><line stroke="#000000" stroke-width="1.2" x1="642.5150884390337" x2="642.5150884390337" y1="422.6861538461538" y2="457.6861538461538"></line><path d="M652.835 429.166C652.835 427.166 652.155 424.646 651.995 424.366C651.715 423.886 651.435 423.726 651.155 423.726C651.075 423.726 650.995 423.726 650.915 423.766C650.635 423.886 650.355 424.286 650.355 424.806C650.355 424.886 650.395 424.966 650.395 425.086C650.715 426.886 651.195 428.126 651.195 429.486C651.195 430.606 650.875 431.766 649.955 433.406C646.915 438.846 644.355 438.926 641.915 439.006L641.915 470.726C641.915 470.726 642.155 471.246 642.395 471.246C642.675 471.246 643.195 470.806 643.235 470.446C643.915 466.286 646.195 465.646 648.275 463.366C651.075 460.326 652.035 459.206 652.475 456.646C652.555 456.246 652.595 455.846 652.595 455.446C652.595 453.766 652.075 452.006 651.675 450.966C652.075 450.206 652.315 449.446 652.475 448.486C652.555 448.126 652.555 447.726 652.555 447.326C652.555 445.606 652.035 443.846 651.675 442.766C652.075 442.046 652.315 441.246 652.475 440.286C652.555 439.766 652.595 439.246 652.595 438.726C652.595 436.646 651.955 434.926 651.795 434.526C651.795 434.406 651.675 434.286 651.675 434.166C651.675 434.086 651.715 434.006 651.795 433.886L651.955 433.606C652.475 432.606 652.675 432.166 652.835 429.606ZM643.475 445.486C644.315 442.286 646.155 441.406 647.955 439.286C648.755 438.366 649.395 437.606 650.035 436.606C650.115 436.486 650.235 436.446 650.355 436.446C650.555 436.446 650.795 436.566 650.835 436.686C650.955 436.966 650.955 437.286 651.035 437.606C651.075 437.926 651.115 438.286 651.115 438.606C651.115 439.806 650.715 440.966 650.035 441.966C648.795 443.886 646.675 446.006 644.195 446.006L643.995 446.006C643.635 446.006 643.475 445.686 643.475 445.486ZM651.075 454.646C651.115 454.926 651.195 455.166 651.195 455.486C651.195 456.006 651.035 456.646 650.555 457.486C648.275 461.326 645.715 462.366 643.475 462.366C643.995 458.606 645.955 457.726 648.275 455.206C649.235 454.166 649.955 453.366 650.555 452.646ZM651.075 446.486C651.115 446.766 651.195 447.006 651.195 447.326C651.195 447.846 651.035 448.486 650.555 449.326C648.275 453.166 645.835 454.206 643.555 454.206C643.475 454.166 643.475 454.126 643.475 454.086C644.155 449.926 646.195 449.286 648.275 447.006C649.235 445.966 649.955 445.166 650.515 444.446C650.755 445.206 650.955 446.046 651.075 446.486Z"></path></g><g><g><path d="M703.950 426.486C707.950 426.486 712.870 422.766 712.870 418.966C712.870 416.686 711.070 415.206 708.470 415.206C703.550 415.206 699.590 418.846 699.590 422.726C699.590 425.086 701.510 426.486 703.950 426.486Z"></path><g><circle cx="718.8699014471995" cy="420.8461538461538" fill="#000000" r="2.4"></circle></g></g><line stroke="#000000" stroke-width="1.2" x1="700.1899014471995" x2="700.1899014471995" y1="422.6861538461538" y2="457.6861538461538"></line><path d="M710.510 429.166C710.510 427.166 709.830 424.646 709.670 424.366C709.390 423.886 709.110 423.726 708.830 423.726C708.750 423.726 708.670 423.726 708.590 423.766C708.310 423.886 708.030 424.286 708.030 424.806C708.030 424.886 708.070 424.966 708.070 425.086C708.390 426.886 708.870 428.126 708.870 429.486C708.870 430.606 708.550 431.766 707.630 433.406C704.590 438.846 702.030 438.926 699.590 439.006L699.590 478.886C699.590 478.886 699.830 479.406 700.070 479.406C700.350 479.406 700.870 478.966 700.910 478.606C701.590 474.446 703.870 473.806 705.950 471.526C708.750 468.486 709.710 467.366 710.150 464.806C710.230 464.406 710.270 464.006 710.270 463.606C710.270 461.926 709.750 460.166 709.350 459.126C709.750 458.366 709.990 457.606 710.150 456.646C710.230 456.246 710.270 455.846 710.270 455.446C710.270 453.766 709.750 452.006 709.350 450.966C709.750 450.206 709.990 449.446 710.150 448.486C710.230 448.126 710.230 447.726 710.230 447.326C710.230 445.606 709.710 443.846 709.350 442.766C709.750 442.046 709.990 441.246 710.150 440.286C710.230 439.766 710.270 439.246 710.270 438.726C710.270 436.646 709.630 434.926 709.470 434.526C709.470 434.406 709.350 434.286 709.350 434.166C709.350 434.086 709.390 434.006 709.470 433.886L709.630 433.606C710.150 432.606 710.350 432.166 710.510 429.606ZM701.150 445.486C701.990 442.286 703.830 441.406 705.630 439.286C706.430 438.366 707.070 437.606 707.710 436.606C707.790 436.486 707.910 436.446 708.030 436.446C708.230 436.446 708.470 436.566 708.510 436.686C708.630 436.966 708.630 437.286 708.710 437.606C708.750 437.926 708.790 438.286 708.790 438.606C708.790 439.806 708.390 440.966 707.710 441.966C706.470 443.886 704.350 446.006 701.870 446.006L701.670 446.006C701.310 446.006 701.150 445.686 701.150 445.486ZM708.750 462.806C708.790 463.086 708.870 463.326 708.870 463.646C708.870 464.166 708.710 464.806 708.230 465.646C705.950 469.486 703.390 470.526 701.150 470.526C701.670 466.766 703.630 465.886 705.950 463.366C706.910 462.326 707.630 461.526 708.230 460.806ZM708.750 454.646C708.790 454.926 708.870 455.166 708.870 455.486C708.870 456.006 708.710 456.646 708.230 457.486C705.950 461.326 703.390 462.366 701.150 462.366C701.670 458.606 703.630 457.726 705.950 455.206C706.910 454.166 707.630 453.366 708.230 452.646ZM708.750 446.486C708.790 446.766 708.870 447.006 708.870 447.326C708.870 447.846 708.710 448.486 708.230 449.326C705.950 453.166 703.510 454.206 701.230 454.206C701.150 454.166 701.150 454.126 701.150 454.086C701.830 449.926 703.870 449.286 705.950 447.006C706.910 445.966 707.630 445.166 708.190 444.446C708.430 445.206 708.630 446.046 708.750 446.486Z"></path></g><g><g><path d="M741.289 426.486C745.289 426.486 750.209 422.766 750.209 418.966C750.209 416.686 748.409 415.206 745.809 415.206C740.889 415.206 736.929 418.846 736.929 422.726C736.929 425.086 738.849 426.486 741.289 426.486Z"></path><g><circle cx="756.2086462288183" cy="420.8461538461538" fill="#000000" r="2.4"></circle></g></g><line stroke="#000000" stroke-width="1.2" x1="737.5286462288184" x2="737.5286462288184" y1="422.6861538461538" y2="457.6861538461538"></line><path d="M747.849 429.166C747.849 427.166 747.169 424.646 747.009 424.366C746.729 423.886 746.449 423.726 746.169 423.726C746.089 423.726 746.009 423.726 745.929 423.766C745.649 423.886 745.369 424.286 745.369 424.806C745.369 424.886 745.409 424.966 745.409 425.086C745.729 426.886 746.209 428.126 746.209 429.486C746.209 430.606 745.889 431.766 744.969 433.406C741.929 438.846 739.369 438.926 736.929 439.006L736.929 478.886C736.929 478.886 737.169 479.406 737.409 479.406C737.689 479.406 738.209 478.966 738.249 478.606C738.929 474.446 741.209 473.806 743.289 471.526C746.089 468.486 747.049 467.366 747.489 464.806C747.569 464.406 747.609 464.006 747.609 463.606C747.609 461.926 747.089 460.166 746.689 459.126C747.089 458.366 747.329 457.606 747.489 456.646C747.569 456.246 747.609 455.846 747.609 455.446C747.609 453.766 747.089 452.006 746.689 450.966C747.089 450.206 747.329 449.446 747.489 448.486C747.569 448.126 747.569 447.726 747.569 447.326C747.569 445.606 747.049 443.846 746.689 442.766C747.089 442.046 747.329 441.246 747.489 440.286C747.569 439.766 747.609 439.246 747.609 438.726C747.609 436.646 746.969 434.926 746.809 434.526C746.809 434.406 746.689 434.286 746.689 434.166C746.689 434.086 746.729 434.006 746.809 433.886L746.969 433.606C747.489 432.606 747.689 432.166 747.849 429.606ZM738.489 445.486C739.329 442.286 741.169 441.406 742.969 439.286C743.769 438.366 744.409 437.606 745.049 436.606C745.129 436.486 745.249 436.446 745.369 436.446C745.569 436.446 745.809 436.566 745.849 436.686C745.969 436.966 745.969 437.286 746.049 437.606C746.089 437.926 746.129 438.286 746.129 438.606C746.129 439.806 745.729 440.966 745.049 441.966C743.809 443.886 741.689 446.006 739.209 446.006L739.009 446.006C738.649 446.006 738.489 445.686 738.489 445.486ZM746.089 462.806C746.129 463.086 746.209 463.326 746.209 463.646C746.209 464.166 746.049 464.806 745.569 465.646C743.289 469.486 740.729 470.526 738.489 470.526C739.009 466.766 740.969 465.886 743.289 463.366C744.249 462.326 744.969 461.526 745.569 460.806ZM746.089 454.646C746.129 454.926 746.209 455.166 746.209 455.486C746.209 456.006 746.049 456.646 745.569 457.486C743.289 461.326 740.729 462.366 738.489 462.366C739.009 458.606 740.969 457.726 743.289 455.206C744.249 454.166 744.969 453.366 745.569 452.646ZM746.089 446.486C746.129 446.766 746.209 447.006 746.209 447.326C746.209 447.846 746.049 448.486 745.569 449.326C743.289 453.166 740.849 454.206 738.569 454.206C738.489 454.166 738.489 454.126 738.489 454.086C739.169 449.926 741.209 449.286 743.289 447.006C744.249 445.966 744.969 445.166 745.529 444.446C745.769 445.206 745.969 446.046 746.089 446.486Z"></path></g></g><g transform="translate(884.7135448565912)"><g><g><g><path d="M16.360 419.486C16.360 419.006 16.160 418.926 15.880 418.926C15.560 418.926 15.440 419.086 15.360 419.326C15.360 419.366 15.320 419.406 15.320 419.446C14.920 420.406 14.600 421.166 13.760 421.166C13.560 421.166 13.360 421.126 13.080 421.046C12.560 420.846 12.280 420.806 11.880 420.606C11.080 420.286 9.200 419.646 7.560 419.646C7.040 419.646 6.520 419.726 6.080 419.886C6.960 418.446 10.360 417.246 11.240 417.006C11.840 416.846 13.520 416.526 14.840 415.446C15.800 414.686 16.560 413.526 16.560 411.766C16.560 409.886 15.760 408.526 14.720 407.646C12.680 405.926 9.560 405.686 8.680 405.686C7.600 405.686 6.240 405.726 5.200 405.966C3.800 406.246 2.400 407.086 1.440 408.206C0.760 409.046 0.320 410.046 0.320 411.126C0.320 411.686 0.440 412.246 0.680 412.846C1.280 414.086 2.520 415.046 3.960 415.046C6.400 415.046 6.760 412.526 6.760 411.526C6.760 409.126 4 409.006 4 408.206C4.080 407.646 4.800 406.686 7.160 406.686C10.720 406.686 10.760 409.366 10.760 410.526C10.760 412.046 10.280 413.446 9.400 414.606C7.960 416.526 6.840 417.486 4.880 418.686C2.680 420.086 1.120 422.046 0.440 424.566C0.440 424.646 0.400 424.726 0.400 424.806C0.400 425.246 0.680 425.766 1.120 426.046C1.240 426.126 1.360 426.126 1.440 426.126C2.320 426.126 2.800 423.686 5.160 423.686C6.760 423.686 7.360 425.846 10.920 425.846C12.640 425.846 15.720 425.686 16.360 419.486Z"></path><path d="M24.320 414.406C25.760 413.486 26.720 412.166 26.720 410.166C26.720 406.086 20.840 405.486 19.760 405.486C15.120 405.486 11.960 407.606 11.960 410.966C11.960 413.726 13.520 415.206 15.440 416.286C13.360 417.286 11.760 418.606 11.760 421.126C11.760 424.606 15.360 426.206 19.320 426.206C23.320 426.206 27.600 424.486 27.600 419.086C27.600 416.686 26.200 415.366 24.320 414.406ZM19.160 424.886C16.480 424.886 14.040 423.526 14.040 420.926C14.040 419.326 15.440 417.846 17.200 417.166C20.120 418.446 23.080 419.286 23.080 421.926C23.080 423.526 21.840 424.886 19.160 424.886ZM22.240 413.486C19.040 412.366 15.640 411.686 15.640 409.166C15.640 407.486 17.920 406.646 19.680 406.646C20.960 406.646 24.360 407.286 24.360 410.086C24.360 411.686 23.560 412.726 22.240 413.486Z"></path></g><g><path d="M23.680 438.806L20.760 438.806L20.760 430.246C20.760 429.926 20.720 429.566 20.280 429.566C19.920 429.566 19.720 429.646 19.480 429.926L15.680 434.526C15.520 434.726 15.320 434.966 15.320 435.446C15.320 435.446 15.320 437.046 15.320 438.806L9.920 438.806C13.120 436.086 19.520 427.006 19.640 426.566C19.640 426.486 19.680 426.446 19.680 426.366C19.680 426.046 19.400 425.806 19.080 425.806C18.720 425.806 17.080 425.886 16.360 425.886C15.640 425.886 13.840 425.806 13.520 425.806C13.160 425.806 12.600 425.926 12.600 426.566C12.600 431.526 8.680 437.086 7.480 438.766L7.240 439.086C7.240 439.126 7.200 439.166 7.200 439.206C7.120 439.366 7.080 439.526 7.080 439.646C7.080 440.046 7.400 440.326 7.880 440.326L15.320 440.326L15.320 442.846C15.320 443.926 14.440 444.246 13.720 444.246C13.080 444.246 12.800 444.606 12.800 445.006C12.800 445.406 12.960 445.846 13.560 445.846C14.200 445.846 22.080 445.846 22.080 445.846C22.480 445.846 22.880 445.566 22.880 445.006C22.880 444.446 22.400 444.206 22 444.206C21.600 444.206 20.760 443.966 20.760 442.686L20.760 440.326C22.480 440.326 23.680 440.326 23.680 440.326C24.080 440.326 24.280 440.046 24.280 439.566C24.280 439.086 24.120 438.806 23.680 438.806Z"></path></g></g></g><g><line stroke="black" stroke-width="1.6" x1="349.25568591263954" x2="349.25568591263954" y1="405.8461538461538" y2="445.8461538461538"></line></g><g><g><path d="M41.860 427.406L41.860 414.486C41.860 414.326 41.700 414.166 41.460 414.166L40.900 414.166C40.660 414.166 40.500 414.326 40.500 414.486L40.500 427.406C40.500 427.566 40.660 427.686 40.900 427.686L41.460 427.686C41.700 427.686 41.860 427.566 41.860 427.406ZM44.380 427.406L44.380 414.486C44.380 414.326 44.180 414.166 43.980 414.166L43.420 414.166C43.180 414.166 43.020 414.326 43.020 414.486L43.020 427.406C43.020 427.566 43.180 427.686 43.420 427.686L43.980 427.686C44.180 427.686 44.380 427.566 44.380 427.406ZM53.780 415.486C48.020 415.486 44.420 417.926 44.420 420.926C44.420 423.766 46.900 426.406 53.340 426.406C60.460 426.406 62.740 423.926 62.740 420.926C62.740 417.806 57.860 415.486 53.780 415.486ZM49.220 418.206C49.700 416.726 51.300 416.526 52.660 416.526C55.620 416.526 58.020 419.686 58.020 422.326C58.020 422.606 57.980 422.886 57.940 423.126C57.740 424.206 57.100 424.966 56.020 425.246C55.620 425.366 55.180 425.406 54.740 425.406C54.340 425.406 53.980 425.366 53.580 425.246C52.820 425.006 52.100 424.606 51.500 424.086C51.180 423.806 50.860 423.446 50.580 423.126C49.780 422.086 49.100 420.606 49.100 419.206C49.100 418.846 49.140 418.526 49.220 418.206ZM64.180 427.406L64.180 414.486C64.180 414.326 63.980 414.166 63.780 414.166L63.180 414.166C62.980 414.166 62.780 414.326 62.780 414.486L62.780 427.406C62.780 427.566 62.980 427.686 63.180 427.686L63.780 427.686C63.980 427.686 64.180 427.566 64.180 427.406ZM66.700 427.406L66.700 414.486C66.700 414.326 66.500 414.166 66.260 414.166L65.700 414.166C65.500 414.166 65.260 414.326 65.260 414.486L65.260 427.406C65.260 427.566 65.500 427.686 65.700 427.686L66.260 427.686C66.500 427.686 66.700 427.566 66.700 427.406Z"></path><g><circle cx="72.7" cy="420.8461538461538" fill="#000000" r="2.4"></circle></g><g><circle cx="78.7" cy="420.8461538461538" fill="#000000" r="2.4"></circle></g></g><line stroke="#000000" stroke-width="1.2" x1="41.1" x2="41.1" y1="NaN" y2="NaN"></line></g></g><g transform="translate(93.84615384615385)"><g><g><line stroke="#6A6A6A" stroke-width="1.3" x1="0" x2="1140.923076923077" y1="576.8461538461538" y2="576.8461538461538"></line><line stroke="#6A6A6A" stroke-width="1.3" x1="0" x2="1140.923076923077" y1="566.8461538461538" y2="566.8461538461538"></line><line stroke="#6A6A6A" stroke-width="1.3" x1="0" x2="1140.923076923077" y1="556.8461538461538" y2="556.8461538461538"></line><line stroke="#6A6A6A" stroke-width="1.3" x1="0" x2="1140.923076923077" y1="546.8461538461538" y2="546.8461538461538"></line><line stroke="#6A6A6A" stroke-width="1.3" x1="0" x2="1140.923076923077" y1="536.8461538461538" y2="536.8461538461538"></line></g><g><path d="M25.200 522.926C24.640 522.926 23.400 523.966 22.600 524.846C19.640 528.126 18.680 533.126 18.680 537.286C18.680 539.606 18.960 542.206 19.240 543.846C19.320 544.326 19.360 544.406 18.880 544.806C16.320 546.926 13.560 549.366 11.480 551.926C8.720 555.366 7 559.086 7 563.366C7 570.326 11.760 576.926 21.560 576.926C22.480 576.926 23.520 576.846 24.320 576.686C24.760 576.606 24.840 576.566 24.920 577.046C25.400 579.726 26 583.206 26 585.086C26 591.006 22 591.726 19.640 591.726C17.480 591.726 16.440 591.086 16.440 590.566C16.440 590.126 16.800 590.166 17.720 589.886C18.960 589.526 20.400 588.446 20.400 586.126C20.400 583.926 19 582.046 16.560 582.046C13.880 582.046 12.280 584.166 12.280 586.646C12.280 589.246 13.840 593.166 19.880 593.166C22.560 593.166 27.760 591.966 27.760 585.166C27.760 582.886 27.040 579.086 26.600 576.606C26.520 576.126 26.560 576.166 27.120 575.926C31.160 574.326 33.840 570.926 33.840 566.406C33.840 561.286 30.080 556.766 24.200 556.766C23.080 556.766 23.200 556.966 23.040 556.046L22.040 550.246C21.960 549.766 22.040 549.726 22.280 549.486C22.920 548.886 23.760 548.046 24.520 547.206C27.880 543.526 29.880 538.766 29.880 534.246C29.880 530.766 28.920 527.326 27.280 524.926C26.680 524.046 25.640 522.926 25.200 522.926ZM20.040 551.086C20.440 550.766 20.520 550.806 20.600 551.246L21.440 556.366C21.560 557.126 21.560 557.086 20.840 557.326C17.320 558.526 15.040 561.686 15.040 565.086C15.040 568.686 16.920 571.246 19.640 572.166C19.960 572.286 20.440 572.406 20.720 572.406C21.040 572.406 21.200 572.206 21.200 571.966C21.200 571.686 20.880 571.566 20.600 571.446C18.920 570.726 17.720 569.006 17.720 567.166C17.720 564.886 19.280 563.166 21.720 562.486C22.360 562.326 22.440 562.366 22.520 562.806L24.520 574.726C24.600 575.166 24.560 575.166 23.960 575.286C23.320 575.406 22.520 575.486 21.720 575.486C14.720 575.486 10.200 571.606 10.200 566.046C10.200 563.686 10.600 560.526 13.920 556.766C16.320 554.086 18.160 552.606 20.040 551.086ZM24.640 562.166C27.880 562.446 30.560 565.166 30.560 568.686C30.560 571.206 29.040 573.246 26.800 574.366C26.320 574.606 26.240 574.606 26.160 574.126L24.200 562.726C24.120 562.246 24.160 562.126 24.640 562.166ZM25.800 529.126C27.120 529.126 28.200 530.206 28.200 532.406C28.200 535.166 26.880 537.726 23.760 540.846C23.120 541.486 22.160 542.406 21.240 543.206C20.960 543.446 20.800 543.406 20.720 542.886C20.560 541.846 20.480 540.486 20.480 539.206C20.480 532.966 23.360 529.126 25.800 529.126Z"></path></g><g></g><text font-family='Alegreya' font-style='italic' text-anchor='end' stroke='#7a7a7a' font-size="24" x="0" y="526.8461538461538">10</text></g><g><line stroke="black" stroke-width="1.6" x1="586.4115384615384" x2="586.4115384615384" y1="536.8461538461538" y2="576.8461538461538"></line></g><g><g><path d="M49.860 558.406L49.860 545.486C49.860 545.326 49.700 545.166 49.460 545.166L48.900 545.166C48.660 545.166 48.500 545.326 48.500 545.486L48.500 558.406C48.500 558.566 48.660 558.686 48.900 558.686L49.460 558.686C49.700 558.686 49.860 558.566 49.860 558.406ZM52.380 558.406L52.380 545.486C52.380 545.326 52.180 545.166 51.980 545.166L51.420 545.166C51.180 545.166 51.020 545.326 51.020 545.486L51.020 558.406C51.020 558.566 51.180 558.686 51.420 558.686L51.980 558.686C52.180 558.686 52.380 558.566 52.380 558.406ZM61.780 546.486C56.020 546.486 52.420 548.926 52.420 551.926C52.420 554.766 54.900 557.406 61.340 557.406C68.460 557.406 70.740 554.926 70.740 551.926C70.740 548.806 65.860 546.486 61.780 546.486ZM57.220 549.206C57.700 547.726 59.300 547.526 60.660 547.526C63.620 547.526 66.020 550.686 66.020 553.326C66.020 553.606 65.980 553.886 65.940 554.126C65.740 555.206 65.100 555.966 64.020 556.246C63.620 556.366 63.180 556.406 62.740 556.406C62.340 556.406 61.980 556.366 61.580 556.246C60.820 556.006 60.100 555.606 59.500 555.086C59.180 554.806 58.860 554.446 58.580 554.126C57.780 553.086 57.100 551.606 57.100 550.206C57.100 549.846 57.140 549.526 57.220 549.206ZM72.180 558.406L72.180 545.486C72.180 545.326 71.980 545.166 71.780 545.166L71.180 545.166C70.980 545.166 70.780 545.326 70.780 545.486L70.780 558.406C70.780 558.566 70.980 558.686 71.180 558.686L71.780 558.686C71.980 558.686 72.180 558.566 72.180 558.406ZM74.700 558.406L74.700 545.486C74.700 545.326 74.500 545.166 74.260 545.166L73.700 545.166C73.500 545.166 73.260 545.326 73.260 545.486L73.260 558.406C73.260 558.566 73.500 558.686 73.700 558.686L74.260 558.686C74.500 558.686 74.700 558.566 74.700 558.406Z"></path><g><circle cx="80.7" cy="551.8461538461538" fill="#000000" r="2.4"></circle></g><g><circle cx="86.7" cy="551.8461538461538" fill="#000000" r="2.4"></circle></g></g></g></g><g transform="translate(696.0576923076924)"><g></g><g><line stroke="black" stroke-width="1.6" x1="537.9115384615384" x2="537.9115384615384" y1="536.8461538461538" y2="576.8461538461538"></line></g><g><g><path d="M9.400 546.366C3.600 546.366 0 548.806 0 551.766C0 554.686 2.480 557.286 8.960 557.286C16.080 557.286 18.360 554.806 18.360 551.766C18.360 548.686 13.440 546.366 9.400 546.366ZM4.840 549.086C5.320 547.606 6.920 547.366 8.280 547.366C11.240 547.366 13.640 550.566 13.640 553.206C13.640 553.486 13.600 553.766 13.560 554.006C13.360 555.086 12.720 555.846 11.640 556.126C11.200 556.246 10.760 556.286 10.320 556.286C9.920 556.286 9.560 556.246 9.160 556.126C8.440 555.886 7.720 555.486 7.120 554.966C6.800 554.686 6.480 554.366 6.200 554.006C5.360 553.006 4.680 551.526 4.680 550.166C4.680 549.806 4.720 549.446 4.840 549.086Z"></path></g></g></g><g transform="translate(93.84615384615385)"><g><g><line stroke="#6A6A6A" stroke-width="1.3" x1="0" x2="686.3304469818398" y1="707.8461538461538" y2="707.8461538461538"></line><line stroke="#6A6A6A" stroke-width="1.3" x1="0" x2="686.3304469818398" y1="697.8461538461538" y2="697.8461538461538"></line><line stroke="#6A6A6A" stroke-width="1.3" x1="0" x2="686.3304469818398" y1="687.8461538461538" y2="687.8461538461538"></line><line stroke="#6A6A6A" stroke-width="1.3" x1="0" x2="686.3304469818398" y1="677.8461538461538" y2="677.8461538461538"></line><line stroke="#6A6A6A" stroke-width="1.3" x1="0" x2="686.3304469818398" y1="667.8461538461538" y2="667.8461538461538"></line></g><g><path d="M25.200 653.926C24.640 653.926 23.400 654.966 22.600 655.846C19.640 659.126 18.680 664.126 18.680 668.286C18.680 670.606 18.960 673.206 19.240 674.846C19.320 675.326 19.360 675.406 18.880 675.806C16.320 677.926 13.560 680.366 11.480 682.926C8.720 686.366 7 690.086 7 694.366C7 701.326 11.760 707.926 21.560 707.926C22.480 707.926 23.520 707.846 24.320 707.686C24.760 707.606 24.840 707.566 24.920 708.046C25.400 710.726 26 714.206 26 716.086C26 722.006 22 722.726 19.640 722.726C17.480 722.726 16.440 722.086 16.440 721.566C16.440 721.126 16.800 721.166 17.720 720.886C18.960 720.526 20.400 719.446 20.400 717.126C20.400 714.926 19 713.046 16.560 713.046C13.880 713.046 12.280 715.166 12.280 717.646C12.280 720.246 13.840 724.166 19.880 724.166C22.560 724.166 27.760 722.966 27.760 716.166C27.760 713.886 27.040 710.086 26.600 707.606C26.520 707.126 26.560 707.166 27.120 706.926C31.160 705.326 33.840 701.926 33.840 697.406C33.840 692.286 30.080 687.766 24.200 687.766C23.080 687.766 23.200 687.966 23.040 687.046L22.040 681.246C21.960 680.766 22.040 680.726 22.280 680.486C22.920 679.886 23.760 679.046 24.520 678.206C27.880 674.526 29.880 669.766 29.880 665.246C29.880 661.766 28.920 658.326 27.280 655.926C26.680 655.046 25.640 653.926 25.200 653.926ZM20.040 682.086C20.440 681.766 20.520 681.806 20.600 682.246L21.440 687.366C21.560 688.126 21.560 688.086 20.840 688.326C17.320 689.526 15.040 692.686 15.040 696.086C15.040 699.686 16.920 702.246 19.640 703.166C19.960 703.286 20.440 703.406 20.720 703.406C21.040 703.406 21.200 703.206 21.200 702.966C21.200 702.686 20.880 702.566 20.600 702.446C18.920 701.726 17.720 700.006 17.720 698.166C17.720 695.886 19.280 694.166 21.720 693.486C22.360 693.326 22.440 693.366 22.520 693.806L24.520 705.726C24.600 706.166 24.560 706.166 23.960 706.286C23.320 706.406 22.520 706.486 21.720 706.486C14.720 706.486 10.200 702.606 10.200 697.046C10.200 694.686 10.600 691.526 13.920 687.766C16.320 685.086 18.160 683.606 20.040 682.086ZM24.640 693.166C27.880 693.446 30.560 696.166 30.560 699.686C30.560 702.206 29.040 704.246 26.800 705.366C26.320 705.606 26.240 705.606 26.160 705.126L24.200 693.726C24.120 693.246 24.160 693.126 24.640 693.166ZM25.800 660.126C27.120 660.126 28.200 661.206 28.200 663.406C28.200 666.166 26.880 668.726 23.760 671.846C23.120 672.486 22.160 673.406 21.240 674.206C20.960 674.446 20.800 674.406 20.720 673.886C20.560 672.846 20.480 671.486 20.480 670.206C20.480 663.966 23.360 660.126 25.800 660.126Z"></path></g><g></g><text font-family='Alegreya' font-style='italic' text-anchor='end' stroke='#7a7a7a' font-size="24" x="0" y="657.8461538461538">12</text></g><g><line stroke="black" stroke-width="1.6" x1="676.5304469818398" x2="676.5304469818398" y1="667.8461538461538" y2="707.8461538461538"></line><line stroke="black" stroke-width="5" x1="683.8304469818398" x2="683.8304469818398" y1="667.8461538461538" y2="707.8461538461538"></line></g><g><g><path d="M52.980 688.646C60.620 688.646 62.140 682.446 62.140 680.926C62.140 678.566 60.260 677.046 57.580 677.046C50.660 677.046 48.500 682.406 48.500 684.806C48.500 687.246 50.460 688.646 52.980 688.646ZM56.500 684.966C54.420 686.366 52.980 686.846 51.980 686.846C51.020 686.846 50.460 686.366 50.140 685.806C49.980 685.526 49.860 685.206 49.860 684.886C49.860 683.886 50.860 682.606 54.060 680.766C56.340 679.446 57.780 678.966 58.740 678.966C59.620 678.966 60.100 679.366 60.420 679.926C60.580 680.206 60.700 680.486 60.700 680.806C60.700 681.726 59.740 682.846 56.500 684.966Z"></path><g><circle cx="68.14" cy="682.8461538461538" fill="#000000" r="2.4"></circle></g><g><circle cx="74.14" cy="682.8461538461538" fill="#000000" r="2.4"></circle></g></g><line stroke="#000000" stroke-width="1.2" x1="49.1" x2="49.1" y1="684.8061538461538" y2="719.8061538461538"></line></g><g><g><path d="M202.710 688.486C206.710 688.486 211.630 684.766 211.630 680.966C211.630 678.686 209.830 677.206 207.230 677.206C202.310 677.206 198.350 680.846 198.350 684.726C198.350 687.086 200.270 688.486 202.710 688.486Z"></path><g><circle cx="217.6295827350802" cy="682.8461538461538" fill="#000000" r="2.4"></circle></g><g><circle cx="223.6295827350802" cy="682.8461538461538" fill="#000000" r="2.4"></circle></g></g><line stroke="#000000" stroke-width="1.2" x1="198.94958273508018" x2="198.94958273508018" y1="684.6861538461538" y2="719.6861538461538"></line></g><g><g><path d="M331.473 688.486C335.473 688.486 340.393 684.766 340.393 680.966C340.393 678.686 338.593 677.206 335.993 677.206C331.073 677.206 327.113 680.846 327.113 684.726C327.113 687.086 329.033 688.486 331.473 688.486Z"></path><g><circle cx="346.39333386197427" cy="682.8461538461538" fill="#000000" r="2.4"></circle></g><g><circle cx="352.39333386197427" cy="682.8461538461538" fill="#000000" r="2.4"></circle></g></g><line stroke="#000000" stroke-width="1.2" x1="327.7133338619743" x2="327.7133338619743" y1="684.6861538461538" y2="719.6861538461538"></line><path d="M336.713 687.806C337.273 689.486 337.553 691.486 337.553 693.286C337.553 695.646 336.553 699.006 335.953 700.366C334.473 703.726 332.473 706.966 327.113 708.766L327.113 718.166C327.113 718.646 327.313 718.766 327.553 718.766C328.313 718.766 328.633 718.526 328.713 717.886C329.393 714.086 332.353 710.606 334.393 707.446C336.913 703.486 339.353 698.726 339.353 693.726C339.353 690.606 338.553 687.766 338.233 686.486C337.913 685.206 336.113 686.086 336.713 687.806Z"></path></g><g><g><path d="M439.151 688.486C443.151 688.486 448.071 684.766 448.071 680.966C448.071 678.686 446.271 677.206 443.671 677.206C438.751 677.206 434.791 680.846 434.791 684.726C434.791 687.086 436.711 688.486 439.151 688.486Z"></path><g><circle cx="454.0712533806824" cy="682.8461538461538" fill="#000000" r="2.4"></circle></g><g><circle cx="460.0712533806824" cy="682.8461538461538" fill="#000000" r="2.4"></circle></g></g><line stroke="#000000" stroke-width="1.2" x1="435.3912533806824" x2="435.3912533806824" y1="684.6861538461538" y2="719.6861538461538"></line><path d="M444.391 686.766C444.991 690.126 444.991 693.766 443.471 696.886C440.711 702.486 437.471 702.606 434.991 702.686L434.791 702.686L434.791 718.526C434.791 718.526 435.231 718.566 435.471 718.566C435.711 718.566 436.191 718.486 436.271 718.046C437.231 711.886 445.111 710.166 446.071 703.886C446.151 703.446 446.191 702.966 446.191 702.446C446.191 700.006 445.311 697.606 445.191 697.366C445.151 697.286 445.151 697.206 445.151 697.086C445.151 696.926 445.191 696.846 445.191 696.726C446.631 693.726 446.671 689.806 446.031 686.606C445.831 685.686 445.551 685.726 445.071 685.726C444.591 685.766 444.271 686.086 444.391 686.766ZM443.831 699.966C444.031 699.966 444.311 700.086 444.351 700.246C444.551 700.526 444.551 700.926 444.631 701.246C444.671 701.526 444.671 701.806 444.671 702.046C444.671 703.366 444.311 704.566 443.591 705.606C442.271 707.566 439.711 709.806 437.271 709.806L436.951 709.806C436.631 709.806 436.391 709.606 436.391 709.406C436.391 709.366 436.391 709.326 436.431 709.286C437.271 706.006 439.511 705.086 441.391 702.886C442.231 701.966 442.911 701.166 443.551 700.126C443.631 700.006 443.711 699.966 443.831 699.966Z"></path></g><g><g><path d="M525.743 688.486C529.743 688.486 534.663 684.766 534.663 680.966C534.663 678.686 532.863 677.206 530.263 677.206C525.343 677.206 521.383 680.846 521.383 684.726C521.383 687.086 523.303 688.486 525.743 688.486Z"></path><g><circle cx="540.6633412912042" cy="682.8461538461538" fill="#000000" r="2.4"></circle></g><g><circle cx="546.6633412912042" cy="682.8461538461538" fill="#000000" r="2.4"></circle></g></g><line stroke="#000000" stroke-width="1.2" x1="521.9833412912043" x2="521.9833412912043" y1="684.6861538461538" y2="719.6861538461538"></line><path d="M532.303 691.166C532.303 689.166 531.623 686.646 531.463 686.366C531.183 685.886 530.903 685.726 530.623 685.726C530.543 685.726 530.463 685.726 530.383 685.766C530.103 685.886 529.823 686.286 529.823 686.806C529.823 686.886 529.863 686.966 529.863 687.086C530.183 688.886 530.663 690.126 530.663 691.486C530.663 692.606 530.343 693.766 529.423 695.406C526.383 700.846 523.823 700.926 521.383 701.006L521.383 724.566C521.383 724.566 521.623 725.086 521.863 725.086C522.143 725.086 522.663 724.646 522.703 724.286C523.383 720.126 525.663 719.486 527.743 717.206C530.543 714.166 531.503 713.046 531.943 710.486C532.023 710.126 532.023 709.726 532.023 709.326C532.023 707.606 531.503 705.846 531.143 704.766C531.543 704.046 531.783 703.246 531.943 702.286C532.023 701.766 532.063 701.246 532.063 700.726C532.063 698.646 531.423 696.926 531.263 696.526C531.263 696.406 531.143 696.286 531.143 696.166C531.143 696.086 531.183 696.006 531.263 695.886L531.423 695.606C531.943 694.606 532.143 694.166 532.303 691.606ZM522.943 707.486C523.783 704.286 525.623 703.406 527.423 701.286C528.223 700.366 528.863 699.606 529.503 698.606C529.583 698.486 529.703 698.446 529.823 698.446C530.023 698.446 530.263 698.566 530.303 698.686C530.423 698.966 530.423 699.286 530.503 699.606C530.543 699.926 530.583 700.286 530.583 700.606C530.583 701.806 530.183 702.966 529.503 703.966C528.263 705.886 526.143 708.006 523.663 708.006L523.463 708.006C523.103 708.006 522.943 707.686 522.943 707.486ZM530.543 708.486C530.583 708.766 530.663 709.006 530.663 709.326C530.663 709.846 530.503 710.486 530.023 711.326C527.743 715.166 525.303 716.206 523.023 716.206C522.943 716.166 522.943 716.126 522.943 716.086C523.623 711.926 525.663 711.286 527.743 709.006C528.703 707.966 529.423 707.166 529.983 706.446C530.223 707.206 530.423 708.046 530.543 708.486Z"></path></g><g><g><path d="M591.250 688.486C595.250 688.486 600.170 684.766 600.170 680.966C600.170 678.686 598.370 677.206 595.770 677.206C590.850 677.206 586.890 680.846 586.890 684.726C586.890 687.086 588.810 688.486 591.250 688.486Z"></path><g><circle cx="606.1695975935402" cy="682.8461538461538" fill="#000000" r="2.4"></circle></g><g><circle cx="612.1695975935402" cy="682.8461538461538" fill="#000000" r="2.4"></circle></g></g><line stroke="#000000" stroke-width="1.2" x1="587.4895975935402" x2="587.4895975935402" y1="684.6861538461538" y2="719.6861538461538"></line><path d="M597.810 691.166C597.810 689.166 597.130 686.646 596.970 686.366C596.690 685.886 596.410 685.726 596.130 685.726C596.050 685.726 595.970 685.726 595.890 685.766C595.610 685.886 595.330 686.286 595.330 686.806C595.330 686.886 595.370 686.966 595.370 687.086C595.690 688.886 596.170 690.126 596.170 691.486C596.170 692.606 595.850 693.766 594.930 695.406C591.890 700.846 589.330 700.926 586.890 701.006L586.890 732.726C586.890 732.726 587.130 733.246 587.370 733.246C587.650 733.246 588.170 732.806 588.210 732.446C588.890 728.286 591.170 727.646 593.250 725.366C596.050 722.326 597.010 721.206 597.450 718.646C597.530 718.246 597.570 717.846 597.570 717.446C597.570 715.766 597.050 714.006 596.650 712.966C597.050 712.206 597.290 711.446 597.450 710.486C597.530 710.126 597.530 709.726 597.530 709.326C597.530 707.606 597.010 705.846 596.650 704.766C597.050 704.046 597.290 703.246 597.450 702.286C597.530 701.766 597.570 701.246 597.570 700.726C597.570 698.646 596.930 696.926 596.770 696.526C596.770 696.406 596.650 696.286 596.650 696.166C596.650 696.086 596.690 696.006 596.770 695.886L596.930 695.606C597.450 694.606 597.650 694.166 597.810 691.606ZM588.450 707.486C589.290 704.286 591.130 703.406 592.930 701.286C593.730 700.366 594.370 699.606 595.010 698.606C595.090 698.486 595.210 698.446 595.330 698.446C595.530 698.446 595.770 698.566 595.810 698.686C595.930 698.966 595.930 699.286 596.010 699.606C596.050 699.926 596.090 700.286 596.090 700.606C596.090 701.806 595.690 702.966 595.010 703.966C593.770 705.886 591.650 708.006 589.170 708.006L588.970 708.006C588.610 708.006 588.450 707.686 588.450 707.486ZM596.050 716.646C596.090 716.926 596.170 717.166 596.170 717.486C596.170 718.006 596.010 718.646 595.530 719.486C593.250 723.326 590.690 724.366 588.450 724.366C588.970 720.606 590.930 719.726 593.250 717.206C594.210 716.166 594.930 715.366 595.530 714.646ZM596.050 708.486C596.090 708.766 596.170 709.006 596.170 709.326C596.170 709.846 596.010 710.486 595.530 711.326C593.250 715.166 590.810 716.206 588.530 716.206C588.450 716.166 588.450 716.126 588.450 716.086C589.130 711.926 591.170 711.286 593.250 709.006C594.210 707.966 594.930 707.166 595.490 706.446C595.730 707.206 595.930 708.046 596.050 708.486Z"></path></g><g><g><path d="M635.670 688.486C639.670 688.486 644.590 684.766 644.590 680.966C644.590 678.686 642.790 677.206 640.190 677.206C635.270 677.206 631.310 680.846 631.310 684.726C631.310 687.086 633.230 688.486 635.670 688.486Z"></path><g><circle cx="650.59002228769" cy="682.8461538461538" fill="#000000" r="2.4"></circle></g><g><circle cx="656.59002228769" cy="682.8461538461538" fill="#000000" r="2.4"></circle></g></g><line stroke="#000000" stroke-width="1.2" x1="631.91002228769" x2="631.91002228769" y1="684.6861538461538" y2="719.6861538461538"></line><path d="M642.230 691.166C642.230 689.166 641.550 686.646 641.390 686.366C641.110 685.886 640.830 685.726 640.550 685.726C640.470 685.726 640.390 685.726 640.310 685.766C640.030 685.886 639.750 686.286 639.750 686.806C639.750 686.886 639.790 686.966 639.790 687.086C640.110 688.886 640.590 690.126 640.590 691.486C640.590 692.606 640.270 693.766 639.350 695.406C636.310 700.846 633.750 700.926 631.310 701.006L631.310 732.726C631.310 732.726 631.550 733.246 631.790 733.246C632.070 733.246 632.590 732.806 632.630 732.446C633.310 728.286 635.590 727.646 637.670 725.366C640.470 722.326 641.430 721.206 641.870 718.646C641.950 718.246 641.990 717.846 641.990 717.446C641.990 715.766 641.470 714.006 641.070 712.966C641.470 712.206 641.710 711.446 641.870 710.486C641.950 710.126 641.950 709.726 641.950 709.326C641.950 707.606 641.430 705.846 641.070 704.766C641.470 704.046 641.710 703.246 641.870 702.286C641.950 701.766 641.990 701.246 641.990 700.726C641.990 698.646 641.350 696.926 641.190 696.526C641.190 696.406 641.070 696.286 641.070 696.166C641.070 696.086 641.110 696.006 641.190 695.886L641.350 695.606C641.870 694.606 642.070 694.166 642.230 691.606ZM632.870 707.486C633.710 704.286 635.550 703.406 637.350 701.286C638.150 700.366 638.790 699.606 639.430 698.606C639.510 698.486 639.630 698.446 639.750 698.446C639.950 698.446 640.190 698.566 640.230 698.686C640.350 698.966 640.350 699.286 640.430 699.606C640.470 699.926 640.510 700.286 640.510 700.606C640.510 701.806 640.110 702.966 639.430 703.966C638.190 705.886 636.070 708.006 633.590 708.006L633.390 708.006C633.030 708.006 632.870 707.686 632.870 707.486ZM640.470 716.646C640.510 716.926 640.590 717.166 640.590 717.486C640.590 718.006 640.430 718.646 639.950 719.486C637.670 723.326 635.110 724.366 632.870 724.366C633.390 720.606 635.350 719.726 637.670 717.206C638.630 716.166 639.350 715.366 639.950 714.646ZM640.470 708.486C640.510 708.766 640.590 709.006 640.590 709.326C640.590 709.846 640.430 710.486 639.950 711.326C637.670 715.166 635.230 716.206 632.950 716.206C632.870 716.166 632.870 716.126 632.870 716.086C633.550 711.926 635.590 711.286 637.670 709.006C638.630 707.966 639.350 707.166 639.910 706.446C640.150 707.206 640.350 708.046 640.470 708.486Z"></path></g></g></svg>