<?xml version="1.0" encoding="UTF-8" standalone="no"?><svg xmlns="http://www.w3.org/2000/svg" height="279.4mm" viewBox="0 0 1328.6153846153845 1719.3846153846152" width="215.9mm"><g transform="translate(93.84615384615385)"><g><g><line stroke="#6A6A6A" stroke-width="1.3" x1="0" x2="1066.0669461145008" y1="183.8461538461538" y2="183.8461538461538"></line><line stroke="#6A6A6A" stroke-width="1.3" x1="0" x2="1066.0669461145008" y1="173.8461538461538" y2="173.8461538461538"></line><line stroke="#6A6A6A" stroke-width="1.3" x1="0" x2="1066.0669461145008" y1="163.8461538461538" y2="163.8461538461538"></line><line stroke="#6A6A6A" stroke-width="1.3" x1="0" x2="1066.0669461145008" y1="153.8461538461538" y2="153.8461538461538"></line><line stroke="#6A6A6A" stroke-width="1.3" x1="0" x2="1066.0669461145008" y1="143.8461538461538" y2="143.8461538461538"></line></g><g><path d="M25.200 129.926C24.640 129.926 23.400 130.966 22.600 131.846C19.640 135.126 18.680 140.126 18.680 144.286C18.680 146.606 18.960 149.206 19.240 150.846C19.320 151.326 19.360 151.406 18.880 151.806C16.320 153.926 13.560 156.366 11.480 158.926C8.720 162.366 7 166.086 7 170.366C7 177.326 11.760 183.926 21.560 183.926C22.480 183.926 23.520 183.846 24.320 183.686C24.760 183.606 24.840 183.566 24.920 184.046C25.400 186.726 26 190.206 26 192.086C26 198.006 22 198.726 19.640 198.726C17.480 198.726 16.440 198.086 16.440 197.566C16.440 197.126 16.800 197.166 17.720 196.886C18.960 196.526 20.400 195.446 20.400 193.126C20.400 190.926 19 189.046 16.560 189.046C13.880 189.046 12.280 191.166 12.280 193.646C12.280 196.246 13.840 200.166 19.880 200.166C22.560 200.166 27.760 198.966 27.760 192.166C27.760 189.886 27.040 186.086 26.600 183.606C26.520 183.126 26.560 183.166 27.120 182.926C31.160 181.326 33.840 177.926 33.840 173.406C33.840 168.286 30.080 163.766 24.200 163.766C23.080 163.766 23.200 163.966 23.040 163.046L22.040 157.246C21.960 156.766 22.040 156.726 22.280 156.486C22.920 155.886 23.760 155.046 24.520 154.206C27.880 150.526 29.880 145.766 29.880 141.246C29.880 137.766 28.920 134.326 27.280 131.926C26.680 131.046 25.640 129.926 25.200 129.926ZM20.040 158.086C20.440 157.766 20.520 157.806 20.600 158.246L21.440 163.366C21.560 164.126 21.560 164.086 20.840 164.326C17.320 165.526 15.040 168.686 15.040 172.086C15.040 175.686 16.920 178.246 19.640 179.166C19.960 179.286 20.440 179.406 20.720 179.406C21.040 179.406 21.200 179.206 21.200 178.966C21.200 178.686 20.880 178.566 20.600 178.446C18.920 177.726 17.720 176.006 17.720 174.166C17.720 171.886 19.280 170.166 21.720 169.486C22.360 169.326 22.440 169.366 22.520 169.806L24.520 181.726C24.600 182.166 24.560 182.166 23.960 182.286C23.320 182.406 22.520 182.486 21.720 182.486C14.720 182.486 10.200 178.606 10.200 173.046C10.200 170.686 10.600 167.526 13.920 163.766C16.320 161.086 18.160 159.606 20.040 158.086ZM24.640 169.166C27.880 169.446 30.560 172.166 30.560 175.686C30.560 178.206 29.040 180.246 26.800 181.366C26.320 181.606 26.240 181.606 26.160 181.126L24.200 169.726C24.120 169.246 24.160 169.126 24.640 169.166ZM25.800 136.126C27.120 136.126 28.200 137.206 28.200 139.406C28.200 142.166 26.880 144.726 23.760 147.846C23.120 148.486 22.160 149.406 21.240 150.206C20.960 150.446 20.800 150.406 20.720 149.886C20.560 148.846 20.480 147.486 20.480 146.206C20.480 139.966 23.360 136.126 25.800 136.126Z"></path></g><g></g><path d="M57.820 153.806C56.620 153.806 55.220 154.126 54.140 154.606C50.580 156.166 48.700 160.446 48.700 164.246C48.700 164.606 48.700 164.966 48.740 165.326C48.940 167.486 49.980 169.526 51.300 171.126C52.820 172.966 55.020 173.806 57.420 173.806C64.420 173.806 65.460 167.446 65.460 166.286C65.460 165.406 65.020 165.406 64.860 165.406C64.540 165.406 64.260 165.446 64.260 166.126C64.260 171.286 59.860 172.486 58.580 172.486C55.340 172.486 53.620 169.326 53.620 162.726C53.620 156.126 56.660 154.766 58.820 154.766C60.900 154.766 61.740 155.726 61.740 156.126C61.740 156.486 61.620 157.006 61.020 157.006C59.420 157.006 58.500 158.726 58.500 159.966C58.500 162.246 60.460 162.966 61.580 162.966C61.580 162.966 64.620 162.846 64.620 159.526C64.620 154.286 58.580 153.806 57.820 153.806Z"></path></g><g><line stroke="black" stroke-width="1.6" x1="400.9750572694397" x2="400.9750572694397" y1="143.8461538461538" y2="183.8461538461538"></line></g><g><g><path d="M93.360 159.486C97.360 159.486 102.280 155.766 102.280 151.966C102.280 149.686 100.480 148.206 97.880 148.206C92.960 148.206 89 151.846 89 155.726C89 158.086 90.920 159.486 93.360 159.486Z"></path></g><line stroke="#000000" stroke-width="1.2" x1="89.6" x2="89.6" y1="155.68615384615381" y2="181.93615384615381"></line><path d="M98.600 156.016C99.200 159.376 99.200 163.016 97.680 166.136C94.920 171.736 91.680 171.856 89.200 171.936L89 171.936L89 187.776C89 187.776 89.440 187.816 89.680 187.816C89.920 187.816 90.400 187.736 90.480 187.296C91.440 181.136 99.320 179.416 100.280 173.136C100.360 172.696 100.400 172.216 100.400 171.696C100.400 169.256 99.520 166.856 99.400 166.616C99.360 166.536 99.360 166.456 99.360 166.336C99.360 166.176 99.400 166.096 99.400 165.976C100.840 162.976 100.880 159.056 100.240 155.856C100.040 154.936 99.760 154.976 99.280 154.976C98.800 155.016 98.480 155.336 98.600 156.016ZM98.040 169.216C98.240 169.216 98.520 169.336 98.560 169.496C98.760 169.776 98.760 170.176 98.840 170.496C98.880 170.776 98.880 171.056 98.880 171.296C98.880 172.616 98.520 173.816 97.800 174.856C96.480 176.816 93.920 179.056 91.480 179.056L91.160 179.056C90.840 179.056 90.600 178.856 90.600 178.656C90.600 178.616 90.600 178.576 90.640 178.536C91.480 175.256 93.720 174.336 95.600 172.136C96.440 171.216 97.120 170.416 97.760 169.376C97.840 169.256 97.920 169.216 98.040 169.216Z"></path></g><g><g><path d="M104.760 164.486C108.760 164.486 113.680 160.766 113.680 156.966C113.680 154.686 111.880 153.206 109.280 153.206C104.360 153.206 100.400 156.846 100.400 160.726C100.400 163.086 102.320 164.486 104.760 164.486Z"></path></g><line stroke="#000000" stroke-width="1.2" x1="101" x2="101" y1="160.68615384615381" y2="198.68615384615381"></line></g><g><g><path d="M168.304 154.486C172.304 154.486 177.224 150.766 177.224 146.966C177.224 144.686 175.424 143.206 172.824 143.206C167.904 143.206 163.944 146.846 163.944 150.726C163.944 153.086 165.864 154.486 168.304 154.486Z"></path></g><line stroke="#000000" stroke-width="1.2" x1="164.54376431735992" x2="164.54376431735992" y1="150.68615384615381" y2="176.93615384615381"></line><path d="M173.544 151.016C174.144 154.376 174.144 158.016 172.624 161.136C169.864 166.736 166.624 166.856 164.144 166.936L163.944 166.936L163.944 182.776C163.944 182.776 164.384 182.816 164.624 182.816C164.864 182.816 165.344 182.736 165.424 182.296C166.384 176.136 174.264 174.416 175.224 168.136C175.304 167.696 175.344 167.216 175.344 166.696C175.344 164.256 174.464 161.856 174.344 161.616C174.304 161.536 174.304 161.456 174.304 161.336C174.304 161.176 174.344 161.096 174.344 160.976C175.784 157.976 175.824 154.056 175.184 150.856C174.984 149.936 174.704 149.976 174.224 149.976C173.744 150.016 173.424 150.336 173.544 151.016ZM172.984 164.216C173.184 164.216 173.464 164.336 173.504 164.496C173.704 164.776 173.704 165.176 173.784 165.496C173.824 165.776 173.824 166.056 173.824 166.296C173.824 167.616 173.464 168.816 172.744 169.856C171.424 171.816 168.864 174.056 166.424 174.056L166.104 174.056C165.784 174.056 165.544 173.856 165.544 173.656C165.544 173.616 165.544 173.576 165.584 173.536C166.424 170.256 168.664 169.336 170.544 167.136C171.384 166.216 172.064 165.416 172.704 164.376C172.784 164.256 172.864 164.216 172.984 164.216Z"></path></g><g><g><path d="M179.704 159.486C183.704 159.486 188.624 155.766 188.624 151.966C188.624 149.686 186.824 148.206 184.224 148.206C179.304 148.206 175.344 151.846 175.344 155.726C175.344 158.086 177.264 159.486 179.704 159.486Z"></path></g><line stroke="#000000" stroke-width="1.2" x1="175.94376431735992" x2="175.94376431735992" y1="155.68615384615381" y2="181.93615384615381"></line><path d="M184.944 156.016C185.544 159.376 185.544 163.016 184.024 166.136C181.264 171.736 178.024 171.856 175.544 171.936L175.344 171.936L175.344 187.776C175.344 187.776 175.784 187.816 176.024 187.816C176.264 187.816 176.744 187.736 176.824 187.296C177.784 181.136 185.664 179.416 186.624 173.136C186.704 172.696 186.744 172.216 186.744 171.696C186.744 169.256 185.864 166.856 185.744 166.616C185.704 166.536 185.704 166.456 185.704 166.336C185.704 166.176 185.744 166.096 185.744 165.976C187.184 162.976 187.224 159.056 186.584 155.856C186.384 154.936 186.104 154.976 185.624 154.976C185.144 155.016 184.824 155.336 184.944 156.016ZM184.384 169.216C184.584 169.216 184.864 169.336 184.904 169.496C185.104 169.776 185.104 170.176 185.184 170.496C185.224 170.776 185.224 171.056 185.224 171.296C185.224 172.616 184.864 173.816 184.144 174.856C182.824 176.816 180.264 179.056 177.824 179.056L177.504 179.056C177.184 179.056 176.944 178.856 176.944 178.656C176.944 178.616 176.944 178.576 176.984 178.536C177.824 175.256 180.064 174.336 181.944 172.136C182.784 171.216 183.464 170.416 184.104 169.376C184.184 169.256 184.264 169.216 184.384 169.216Z"></path></g><g><g><path d="M191.104 164.486C195.104 164.486 200.024 160.766 200.024 156.966C200.024 154.686 198.224 153.206 195.624 153.206C190.704 153.206 186.744 156.846 186.744 160.726C186.744 163.086 188.664 164.486 191.104 164.486Z"></path></g><line stroke="#000000" stroke-width="1.2" x1="187.34376431735993" x2="187.34376431735993" y1="160.68615384615381" y2="198.68615384615381"></line></g><g><g><path d="M254.648 159.486C258.648 159.486 263.568 155.766 263.568 151.966C263.568 149.686 261.768 148.206 259.168 148.206C254.248 148.206 250.288 151.846 250.288 155.726C250.288 158.086 252.208 159.486 254.648 159.486Z"></path></g><line stroke="#000000" stroke-width="1.2" x1="250.88752863471984" x2="250.88752863471984" y1="155.68615384615381" y2="181.93615384615381"></line><path d="M259.888 156.016C260.488 159.376 260.488 163.016 258.968 166.136C256.208 171.736 252.968 171.856 250.488 171.936L250.288 171.936L250.288 187.776C250.288 187.776 250.728 187.816 250.968 187.816C251.208 187.816 251.688 187.736 251.768 187.296C252.728 181.136 260.608 179.416 261.568 173.136C261.648 172.696 261.688 172.216 261.688 171.696C261.688 169.256 260.808 166.856 260.688 166.616C260.648 166.536 260.648 166.456 260.648 166.336C260.648 166.176 260.688 166.096 260.688 165.976C262.128 162.976 262.168 159.056 261.528 155.856C261.328 154.936 261.048 154.976 260.568 154.976C260.088 155.016 259.768 155.336 259.888 156.016ZM259.328 169.216C259.528 169.216 259.808 169.336 259.848 169.496C260.048 169.776 260.048 170.176 260.128 170.496C260.168 170.776 260.168 171.056 260.168 171.296C260.168 172.616 259.808 173.816 259.088 174.856C257.768 176.816 255.208 179.056 252.768 179.056L252.448 179.056C252.128 179.056 251.888 178.856 251.888 178.656C251.888 178.616 251.888 178.576 251.928 178.536C252.768 175.256 255.008 174.336 256.888 172.136C257.728 171.216 258.408 170.416 259.048 169.376C259.128 169.256 259.208 169.216 259.328 169.216Z"></path></g><g><g><path d="M266.048 164.486C270.048 164.486 274.968 160.766 274.968 156.966C274.968 154.686 273.168 153.206 270.568 153.206C265.648 153.206 261.688 156.846 261.688 160.726C261.688 163.086 263.608 164.486 266.048 164.486Z"></path></g><line stroke="#000000" stroke-width="1.2" x1="262.2875286347199" x2="262.2875286347199" y1="160.68615384615381" y2="198.68615384615381"></line></g><g><g><path d="M329.591 159.486C333.591 159.486 338.511 155.766 338.511 151.966C338.511 149.686 336.711 148.206 334.111 148.206C329.191 148.206 325.231 151.846 325.231 155.726C325.231 158.086 327.151 159.486 329.591 159.486Z"></path></g><line stroke="#000000" stroke-width="1.2" x1="325.8312929520798" x2="325.8312929520798" y1="155.68615384615381" y2="181.93615384615381"></line><path d="M334.831 157.056C335.391 158.736 335.671 160.736 335.671 162.536C335.671 164.896 334.671 168.256 334.071 169.616C332.591 172.976 330.591 176.216 325.231 178.016L325.231 187.416C325.231 187.896 325.431 188.016 325.671 188.016C326.431 188.016 326.751 187.776 326.831 187.136C327.511 183.336 330.471 179.856 332.511 176.696C335.031 172.736 337.471 167.976 337.471 162.976C337.471 159.856 336.671 157.016 336.351 155.736C336.031 154.456 334.231 155.336 334.831 157.056Z"></path></g><g><g><path d="M340.991 164.486C344.991 164.486 349.911 160.766 349.911 156.966C349.911 154.686 348.111 153.206 345.511 153.206C340.591 153.206 336.631 156.846 336.631 160.726C336.631 163.086 338.551 164.486 340.991 164.486Z"></path></g><line stroke="#000000" stroke-width="1.2" x1="337.2312929520798" x2="337.2312929520798" y1="160.68615384615381" y2="198.68615384615381"></line></g></g><g transform="translate(510.62121111559355)"><g></g><g><line stroke="black" stroke-width="1.6" x1="298.1800315756214" x2="298.1800315756214" y1="143.8461538461538" y2="183.8461538461538"></line></g><g><g><path d="M4.360 159.486C8.360 159.486 13.280 155.766 13.280 151.966C13.280 149.686 11.480 148.206 8.880 148.206C3.960 148.206 0 151.846 0 155.726C0 158.086 1.920 159.486 4.360 159.486Z"></path></g><line stroke="#000000" stroke-width="1.2" x1="0.6" x2="0.6" y1="155.68615384615381" y2="181.93615384615381"></line><path d="M9.600 156.016C10.200 159.376 10.200 163.016 8.680 166.136C5.920 171.736 2.680 171.856 0.200 171.936L0 171.936L0 187.776C0 187.776 0.440 187.816 0.680 187.816C0.920 187.816 1.400 187.736 1.480 187.296C2.440 181.136 10.320 179.416 11.280 173.136C11.360 172.696 11.400 172.216 11.400 171.696C11.400 169.256 10.520 166.856 10.400 166.616C10.360 166.536 10.360 166.456 10.360 166.336C10.360 166.176 10.400 166.096 10.400 165.976C11.840 162.976 11.880 159.056 11.240 155.856C11.040 154.936 10.760 154.976 10.280 154.976C9.800 155.016 9.480 155.336 9.600 156.016ZM9.040 169.216C9.240 169.216 9.520 169.336 9.560 169.496C9.760 169.776 9.760 170.176 9.840 170.496C9.880 170.776 9.880 171.056 9.880 171.296C9.880 172.616 9.520 173.816 8.800 174.856C7.480 176.816 4.920 179.056 2.480 179.056L2.160 179.056C1.840 179.056 1.600 178.856 1.600 178.656C1.600 178.616 1.600 178.576 1.640 178.536C2.480 175.256 4.720 174.336 6.600 172.136C7.440 171.216 8.120 170.416 8.760 169.376C8.840 169.256 8.920 169.216 9.040 169.216Z"></path></g><g><g><path d="M15.760 164.486C19.760 164.486 24.680 160.766 24.680 156.966C24.680 154.686 22.880 153.206 20.280 153.206C15.360 153.206 11.400 156.846 11.400 160.726C11.400 163.086 13.320 164.486 15.760 164.486Z"></path></g><line stroke="#000000" stroke-width="1.2" x1="12" x2="12" y1="160.68615384615381" y2="198.68615384615381"></line></g><g><g><path d="M79.304 154.486C83.304 154.486 88.224 150.766 88.224 146.966C88.224 144.686 86.424 143.206 83.824 143.206C78.904 143.206 74.944 146.846 74.944 150.726C74.944 153.086 76.864 154.486 79.304 154.486Z"></path></g><line stroke="#000000" stroke-width="1.2" x1="75.54376431735992" x2="75.54376431735992" y1="150.68615384615381" y2="176.93615384615381"></line><path d="M84.544 151.016C85.144 154.376 85.144 158.016 83.624 161.136C80.864 166.736 77.624 166.856 75.144 166.936L74.944 166.936L74.944 182.776C74.944 182.776 75.384 182.816 75.624 182.816C75.864 182.816 76.344 182.736 76.424 182.296C77.384 176.136 85.264 174.416 86.224 168.136C86.304 167.696 86.344 167.216 86.344 166.696C86.344 164.256 85.464 161.856 85.344 161.616C85.304 161.536 85.304 161.456 85.304 161.336C85.304 161.176 85.344 161.096 85.344 160.976C86.784 157.976 86.824 154.056 86.184 150.856C85.984 149.936 85.704 149.976 85.224 149.976C84.744 150.016 84.424 150.336 84.544 151.016ZM83.984 164.216C84.184 164.216 84.464 164.336 84.504 164.496C84.704 164.776 84.704 165.176 84.784 165.496C84.824 165.776 84.824 166.056 84.824 166.296C84.824 167.616 84.464 168.816 83.744 169.856C82.424 171.816 79.864 174.056 77.424 174.056L77.104 174.056C76.784 174.056 76.544 173.856 76.544 173.656C76.544 173.616 76.544 173.576 76.584 173.536C77.424 170.256 79.664 169.336 81.544 167.136C82.384 166.216 83.064 165.416 83.704 164.376C83.784 164.256 83.864 164.216 83.984 164.216Z"></path></g><g><g><path d="M90.704 159.486C94.704 159.486 99.624 155.766 99.624 151.966C99.624 149.686 97.824 148.206 95.224 148.206C90.304 148.206 86.344 151.846 86.344 155.726C86.344 158.086 88.264 159.486 90.704 159.486Z"></path></g><line stroke="#000000" stroke-width="1.2" x1="86.9437643173599" x2="86.9437643173599" y1="155.68615384615381" y2="181.93615384615381"></line><path d="M95.944 156.016C96.544 159.376 96.544 163.016 95.024 166.136C92.264 171.736 89.024 171.856 86.544 171.936L86.344 171.936L86.344 187.776C86.344 187.776 86.784 187.816 87.024 187.816C87.264 187.816 87.744 187.736 87.824 187.296C88.784 181.136 96.664 179.416 97.624 173.136C97.704 172.696 97.744 172.216 97.744 171.696C97.744 169.256 96.864 166.856 96.744 166.616C96.704 166.536 96.704 166.456 96.704 166.336C96.704 166.176 96.744 166.096 96.744 165.976C98.184 162.976 98.224 159.056 97.584 155.856C97.384 154.936 97.104 154.976 96.624 154.976C96.144 155.016 95.824 155.336 95.944 156.016ZM95.384 169.216C95.584 169.216 95.864 169.336 95.904 169.496C96.104 169.776 96.104 170.176 96.184 170.496C96.224 170.776 96.224 171.056 96.224 171.296C96.224 172.616 95.864 173.816 95.144 174.856C93.824 176.816 91.264 179.056 88.824 179.056L88.504 179.056C88.184 179.056 87.944 178.856 87.944 178.656C87.944 178.616 87.944 178.576 87.984 178.536C88.824 175.256 91.064 174.336 92.944 172.136C93.784 171.216 94.464 170.416 95.104 169.376C95.184 169.256 95.264 169.216 95.384 169.216Z"></path></g><g><g><path d="M102.224 164.646C109.864 164.646 111.384 158.446 111.384 156.926C111.384 154.566 109.504 153.046 106.824 153.046C99.904 153.046 97.744 158.406 97.744 160.806C97.744 163.246 99.704 164.646 102.224 164.646ZM105.744 160.966C103.664 162.366 102.224 162.846 101.224 162.846C100.264 162.846 99.704 162.366 99.384 161.806C99.224 161.526 99.104 161.206 99.104 160.886C99.104 159.886 100.104 158.606 103.304 156.766C105.584 155.446 107.024 154.966 107.984 154.966C108.864 154.966 109.344 155.366 109.664 155.926C109.824 156.206 109.944 156.486 109.944 156.806C109.944 157.726 108.984 158.846 105.744 160.966Z"></path></g><line stroke="#000000" stroke-width="1.2" x1="98.34376431735991" x2="98.34376431735991" y1="160.80615384615382" y2="198.80615384615382"></line></g><g><g><path d="M190.843 159.486C194.843 159.486 199.763 155.766 199.763 151.966C199.763 149.686 197.963 148.206 195.363 148.206C190.443 148.206 186.483 151.846 186.483 155.726C186.483 158.086 188.403 159.486 190.843 159.486Z"></path></g><line stroke="#000000" stroke-width="1.2" x1="187.08255432853807" x2="187.08255432853807" y1="155.68615384615381" y2="181.93615384615381"></line><path d="M196.083 156.016C196.683 159.376 196.683 163.016 195.163 166.136C192.403 171.736 189.163 171.856 186.683 171.936L186.483 171.936L186.483 187.776C186.483 187.776 186.923 187.816 187.163 187.816C187.403 187.816 187.883 187.736 187.963 187.296C188.923 181.136 196.803 179.416 197.763 173.136C197.843 172.696 197.883 172.216 197.883 171.696C197.883 169.256 197.003 166.856 196.883 166.616C196.843 166.536 196.843 166.456 196.843 166.336C196.843 166.176 196.883 166.096 196.883 165.976C198.323 162.976 198.363 159.056 197.723 155.856C197.523 154.936 197.243 154.976 196.763 154.976C196.283 155.016 195.963 155.336 196.083 156.016ZM195.523 169.216C195.723 169.216 196.003 169.336 196.043 169.496C196.243 169.776 196.243 170.176 196.323 170.496C196.363 170.776 196.363 171.056 196.363 171.296C196.363 172.616 196.003 173.816 195.283 174.856C193.963 176.816 191.403 179.056 188.963 179.056L188.643 179.056C188.323 179.056 188.083 178.856 188.083 178.656C188.083 178.616 188.083 178.576 188.123 178.536C188.963 175.256 191.203 174.336 193.083 172.136C193.923 171.216 194.603 170.416 195.243 169.376C195.323 169.256 195.403 169.216 195.523 169.216Z"></path></g><g><g><path d="M202.243 164.486C206.243 164.486 211.163 160.766 211.163 156.966C211.163 154.686 209.363 153.206 206.763 153.206C201.843 153.206 197.883 156.846 197.883 160.726C197.883 163.086 199.803 164.486 202.243 164.486Z"></path></g><line stroke="#000000" stroke-width="1.2" x1="198.4825543285381" x2="198.4825543285381" y1="160.68615384615381" y2="194.68615384615381"></line><g><polygon fill="black" points="198.4825543285381,195.8461538461538 248.23129295207974,195.8461538461538 248.23129295207974,190.8461538461538 198.4825543285381,190.8461538461538" stroke="black" stroke-width="0"></polygon></g></g><g><g><path d="M240.591 159.486C244.591 159.486 249.511 155.766 249.511 151.966C249.511 149.686 247.711 148.206 245.111 148.206C240.191 148.206 236.231 151.846 236.231 155.726C236.231 158.086 238.151 159.486 240.591 159.486Z"></path></g><line stroke="#000000" stroke-width="1.2" x1="236.83129295207974" x2="236.83129295207974" y1="155.68615384615381" y2="181.93615384615381"></line><path d="M245.831 156.016C246.431 159.376 246.431 163.016 244.911 166.136C242.151 171.736 238.911 171.856 236.431 171.936L236.231 171.936L236.231 187.776C236.231 187.776 236.671 187.816 236.911 187.816C237.151 187.816 237.631 187.736 237.711 187.296C238.671 181.136 246.551 179.416 247.511 173.136C247.591 172.696 247.631 172.216 247.631 171.696C247.631 169.256 246.751 166.856 246.631 166.616C246.591 166.536 246.591 166.456 246.591 166.336C246.591 166.176 246.631 166.096 246.631 165.976C248.071 162.976 248.111 159.056 247.471 155.856C247.271 154.936 246.991 154.976 246.511 154.976C246.031 155.016 245.711 155.336 245.831 156.016ZM245.271 169.216C245.471 169.216 245.751 169.336 245.791 169.496C245.991 169.776 245.991 170.176 246.071 170.496C246.111 170.776 246.111 171.056 246.111 171.296C246.111 172.616 245.751 173.816 245.031 174.856C243.711 176.816 241.151 179.056 238.711 179.056L238.391 179.056C238.071 179.056 237.831 178.856 237.831 178.656C237.831 178.616 237.831 178.576 237.871 178.536C238.711 175.256 240.951 174.336 242.831 172.136C243.671 171.216 244.351 170.416 244.991 169.376C245.071 169.256 245.151 169.216 245.271 169.216Z"></path></g><g><g><path d="M251.991 164.486C255.991 164.486 260.911 160.766 260.911 156.966C260.911 154.686 259.111 153.206 256.511 153.206C251.591 153.206 247.631 156.846 247.631 160.726C247.631 163.086 249.551 164.486 251.991 164.486Z"></path></g><line stroke="#000000" stroke-width="1.2" x1="248.23129295207974" x2="248.23129295207974" y1="160.68615384615381" y2="194.68615384615381"></line></g><g><g><path d="M290.340 154.486C294.340 154.486 299.260 150.766 299.260 146.966C299.260 144.686 297.460 143.206 294.860 143.206C289.940 143.206 285.980 146.846 285.980 150.726C285.980 153.086 287.900 154.486 290.340 154.486Z"></path></g><line stroke="#000000" stroke-width="1.2" x1="286.58003157562143" x2="286.58003157562143" y1="150.68615384615381" y2="176.93615384615381"></line><path d="M295.580 151.016C296.180 154.376 296.180 158.016 294.660 161.136C291.900 166.736 288.660 166.856 286.180 166.936L285.980 166.936L285.980 182.776C285.980 182.776 286.420 182.816 286.660 182.816C286.900 182.816 287.380 182.736 287.460 182.296C288.420 176.136 296.300 174.416 297.260 168.136C297.340 167.696 297.380 167.216 297.380 166.696C297.380 164.256 296.500 161.856 296.380 161.616C296.340 161.536 296.340 161.456 296.340 161.336C296.340 161.176 296.380 161.096 296.380 160.976C297.820 157.976 297.860 154.056 297.220 150.856C297.020 149.936 296.740 149.976 296.260 149.976C295.780 150.016 295.460 150.336 295.580 151.016ZM295.020 164.216C295.220 164.216 295.500 164.336 295.540 164.496C295.740 164.776 295.740 165.176 295.820 165.496C295.860 165.776 295.860 166.056 295.860 166.296C295.860 167.616 295.500 168.816 294.780 169.856C293.460 171.816 290.900 174.056 288.460 174.056L288.140 174.056C287.820 174.056 287.580 173.856 287.580 173.656C287.580 173.616 287.580 173.576 287.620 173.536C288.460 170.256 290.700 169.336 292.580 167.136C293.420 166.216 294.100 165.416 294.740 164.376C294.820 164.256 294.900 164.216 295.020 164.216Z"></path></g></g><g transform="translate(824.6012426912149)"><g></g><g><line stroke="#000000" stroke-width="1.6" x1="325.5118572694397" x2="325.5118572694397" y1="143.8461538461538" y2="183.8461538461538"></line><line stroke="#000000" stroke-width="5" x1="332.8118572694397" x2="332.8118572694397" y1="143.8461538461538" y2="183.8461538461538"></line></g><g><g><path d="M4.360 154.486C8.360 154.486 13.280 150.766 13.280 146.966C13.280 144.686 11.480 143.206 8.880 143.206C3.960 143.206 0 146.846 0 150.726C0 153.086 1.920 154.486 4.360 154.486Z"></path></g><line stroke="#000000" stroke-width="1.2" x1="0.6" x2="0.6" y1="150.68615384615381" y2="176.93615384615381"></line><path d="M9.600 151.016C10.200 154.376 10.200 158.016 8.680 161.136C5.920 166.736 2.680 166.856 0.200 166.936L0 166.936L0 182.776C0 182.776 0.440 182.816 0.680 182.816C0.920 182.816 1.400 182.736 1.480 182.296C2.440 176.136 10.320 174.416 11.280 168.136C11.360 167.696 11.400 167.216 11.400 166.696C11.400 164.256 10.520 161.856 10.400 161.616C10.360 161.536 10.360 161.456 10.360 161.336C10.360 161.176 10.400 161.096 10.400 160.976C11.840 157.976 11.880 154.056 11.240 150.856C11.040 149.936 10.760 149.976 10.280 149.976C9.800 150.016 9.480 150.336 9.600 151.016ZM9.040 164.216C9.240 164.216 9.520 164.336 9.560 164.496C9.760 164.776 9.760 165.176 9.840 165.496C9.880 165.776 9.880 166.056 9.880 166.296C9.880 167.616 9.520 168.816 8.800 169.856C7.480 171.816 4.920 174.056 2.480 174.056L2.160 174.056C1.840 174.056 1.600 173.856 1.600 173.656C1.600 173.616 1.600 173.576 1.640 173.536C2.480 170.256 4.720 169.336 6.600 167.136C7.440 166.216 8.120 165.416 8.760 164.376C8.840 164.256 8.920 164.216 9.040 164.216Z"></path></g><g><g><path d="M15.760 184.486C19.760 184.486 24.680 180.766 24.680 176.966C24.680 174.686 22.880 173.206 20.280 173.206C15.360 173.206 11.400 176.846 11.400 180.726C11.400 183.086 13.320 184.486 15.760 184.486Z"></path></g><g><path d="M15.760 164.486C19.760 164.486 24.680 160.766 24.680 156.966C24.680 154.686 22.880 153.206 20.280 153.206C15.360 153.206 11.400 156.846 11.400 160.726C11.400 163.086 13.320 164.486 15.760 164.486Z"></path></g><line stroke="#000000" stroke-width="1.2" x1="24.080000000000002" x2="24.080000000000002" y1="177.0061538461538" y2="127.00615384615381"></line></g><g><g><path d="M88.064 159.486C92.064 159.486 96.984 155.766 96.984 151.966C96.984 149.686 95.184 148.206 92.584 148.206C87.664 148.206 83.704 151.846 83.704 155.726C83.704 158.086 85.624 159.486 88.064 159.486Z"></path><path d="M81.184 149.126C81.464 149.006 81.664 148.686 81.664 148.446L81.664 145.606C81.664 145.406 81.544 145.286 81.384 145.286C81.304 145.286 81.264 145.286 81.184 145.326C81.184 145.326 80.384 145.646 80.184 145.686C79.904 145.686 79.624 145.486 79.624 145.166C79.624 144.766 79.624 140.286 79.624 140.286C79.624 140.046 79.384 139.846 79.064 139.846C78.664 139.846 78.424 140.046 78.424 140.286C78.424 140.286 78.424 145.086 78.424 145.486C78.384 145.886 78.264 146.406 77.904 146.646C77.424 146.926 76.064 147.486 75.384 147.646C75.024 147.646 74.904 147.166 74.904 146.846C74.904 146.446 74.904 142.046 74.904 142.046C74.904 141.806 74.624 141.606 74.344 141.606C73.944 141.606 73.704 141.806 73.704 142.046C73.704 142.046 73.704 144.206 73.704 145.806L73.704 147.446C73.704 148.006 73.464 148.406 73.224 148.526C72.984 148.646 72.184 148.966 72.184 148.966C71.904 149.046 71.704 149.366 71.704 149.606L71.704 152.446C71.704 152.686 71.824 152.806 72.024 152.806C72.064 152.806 72.144 152.766 72.184 152.766C72.184 152.766 72.784 152.526 73.064 152.366C73.104 152.366 73.144 152.326 73.184 152.326C73.464 152.326 73.704 152.726 73.704 153.046L73.704 157.006C73.704 157.446 73.504 157.806 73.264 157.926C73.024 158.006 72.184 158.366 72.184 158.366C71.904 158.446 71.704 158.766 71.704 159.006L71.704 161.846C71.704 162.086 71.824 162.206 72.024 162.206C72.064 162.206 72.144 162.166 72.184 162.166C72.184 162.166 72.744 161.926 73.104 161.806C73.144 161.766 73.184 161.766 73.224 161.766C73.504 161.766 73.704 162.206 73.704 162.406C73.704 162.646 73.704 167.326 73.704 167.326C73.704 167.566 73.944 167.766 74.224 167.766C74.624 167.766 74.904 167.566 74.904 167.326C74.904 167.326 74.904 162.246 74.904 161.766C74.904 161.246 75.104 160.966 75.304 160.886L77.744 159.886C77.784 159.886 77.864 159.846 77.904 159.846C78.224 159.846 78.424 160.326 78.424 160.566C78.424 160.846 78.424 165.566 78.424 165.566C78.424 165.806 78.664 166.006 78.944 166.006C79.384 166.006 79.624 165.806 79.624 165.566C79.624 165.566 79.624 160.166 79.624 159.886C79.624 159.566 79.784 159.086 80.064 158.966C80.344 158.846 81.184 158.526 81.184 158.526C81.464 158.406 81.664 158.086 81.664 157.846L81.664 155.006C81.664 154.806 81.544 154.686 81.384 154.686C81.304 154.686 81.264 154.686 81.184 154.726C81.184 154.726 80.344 155.046 80.144 155.126C79.904 155.126 79.624 154.886 79.624 154.406L79.624 150.686C79.624 150.406 79.824 149.646 80.144 149.526C80.464 149.406 81.184 149.126 81.184 149.126ZM78.424 155.646C78.184 156.446 76.304 157.246 75.384 157.246C75.144 157.246 74.944 157.166 74.904 157.046C74.824 156.886 74.784 156.006 74.784 155.046C74.784 153.806 74.824 152.406 74.904 152.086C74.984 151.406 76.824 150.566 77.824 150.566C78.104 150.566 78.344 150.646 78.424 150.806C78.504 151.006 78.584 152.006 78.584 153.086C78.584 154.166 78.504 155.286 78.424 155.646Z"></path></g><line stroke="#000000" stroke-width="1.2" x1="84.3037643173599" x2="84.3037643173599" y1="155.68615384615381" y2="181.93615384615381"></line></g><g><g><path d="M99.464 164.486C103.464 164.486 108.384 160.766 108.384 156.966C108.384 154.686 106.584 153.206 103.984 153.206C99.064 153.206 95.104 156.846 95.104 160.726C95.104 163.086 97.024 164.486 99.464 164.486Z"></path></g><line stroke="#000000" stroke-width="1.2" x1="95.70376431735991" x2="95.70376431735991" y1="160.68615384615381" y2="198.68615384615381"></line></g><g><g><path d="M171.096 159.486C175.096 159.486 180.016 155.766 180.016 151.966C180.016 149.686 178.216 148.206 175.616 148.206C170.696 148.206 166.736 151.846 166.736 155.726C166.736 158.086 168.656 159.486 171.096 159.486Z"></path><path d="M156.136 160.646C156.256 160.806 156.376 160.846 156.496 160.846C156.616 160.846 156.736 160.766 156.736 160.766C157.936 160.086 158.896 159.006 159.896 158.326C163.456 155.846 164.696 153.406 164.696 151.566C164.696 149.286 162.936 147.846 161.096 147.726C160.816 147.726 160.536 147.766 160.256 147.846C159.816 147.966 159.336 148.126 158.896 148.406C158.656 148.606 158.376 148.966 158.016 148.966C157.936 148.966 157.896 148.966 157.816 148.926C157.536 148.806 157.376 148.526 157.376 148.246C157.416 147.366 157.656 137.766 157.656 136.966C157.656 136.526 157.296 136.286 156.896 136.286C156.336 136.286 155.696 136.686 155.656 137.406C155.656 137.406 155.816 160.246 156.136 160.646ZM157.536 157.086C157.536 157.086 157.416 154.686 157.416 153.086C157.416 152.446 157.456 151.966 157.496 151.806C157.656 151.326 158.696 150.446 159.256 150.126C159.616 149.926 159.976 149.846 160.296 149.846C160.696 149.846 161.056 150.006 161.296 150.286C161.696 150.726 161.936 151.406 161.936 152.166C161.936 152.886 161.736 153.726 161.256 154.566C160.736 155.526 159.576 156.806 158.376 157.566C158.216 157.646 158.096 157.686 157.976 157.686C157.616 157.686 157.536 157.286 157.536 157.086Z"></path></g><line stroke="#000000" stroke-width="1.2" x1="167.33592863471983" x2="167.33592863471983" y1="155.68615384615381" y2="181.93615384615381"></line></g><g><g><path d="M190.584 174.486C194.584 174.486 199.504 170.766 199.504 166.966C199.504 164.686 197.704 163.206 195.104 163.206C190.184 163.206 186.224 166.846 186.224 170.726C186.224 173.086 188.144 174.486 190.584 174.486Z"></path><path d="M175.624 175.646C175.744 175.806 175.864 175.846 175.984 175.846C176.104 175.846 176.224 175.766 176.224 175.766C177.424 175.086 178.384 174.006 179.384 173.326C182.944 170.846 184.184 168.406 184.184 166.566C184.184 164.286 182.424 162.846 180.584 162.726C180.304 162.726 180.024 162.766 179.744 162.846C179.304 162.966 178.824 163.126 178.384 163.406C178.144 163.606 177.864 163.966 177.504 163.966C177.424 163.966 177.384 163.966 177.304 163.926C177.024 163.806 176.864 163.526 176.864 163.246C176.904 162.366 177.144 152.766 177.144 151.966C177.144 151.526 176.784 151.286 176.384 151.286C175.824 151.286 175.184 151.686 175.144 152.406C175.144 152.406 175.304 175.246 175.624 175.646ZM177.024 172.086C177.024 172.086 176.904 169.686 176.904 168.086C176.904 167.446 176.944 166.966 176.984 166.806C177.144 166.326 178.184 165.446 178.744 165.126C179.104 164.926 179.464 164.846 179.784 164.846C180.184 164.846 180.544 165.006 180.784 165.286C181.184 165.726 181.424 166.406 181.424 167.166C181.424 167.886 181.224 168.726 180.744 169.566C180.224 170.526 179.064 171.806 177.864 172.566C177.704 172.646 177.584 172.686 177.464 172.686C177.104 172.686 177.024 172.286 177.024 172.086Z"></path></g><line stroke="#000000" stroke-width="1.2" x1="198.90432863471986" x2="198.90432863471986" y1="167.0061538461538" y2="140.7561538461538"></line></g><g><g><path d="M201.984 164.486C205.984 164.486 210.904 160.766 210.904 156.966C210.904 154.686 209.104 153.206 206.504 153.206C201.584 153.206 197.624 156.846 197.624 160.726C197.624 163.086 199.544 164.486 201.984 164.486Z"></path></g><line stroke="#000000" stroke-width="1.2" x1="198.22432863471985" x2="198.22432863471985" y1="160.68615384615381" y2="198.68615384615381"></line></g><g><g><path d="M265.528 164.486C269.528 164.486 274.448 160.766 274.448 156.966C274.448 154.686 272.648 153.206 270.048 153.206C265.128 153.206 261.168 156.846 261.168 160.726C261.168 163.086 263.088 164.486 265.528 164.486Z"></path></g><line stroke="#000000" stroke-width="1.2" x1="261.76809295207977" x2="261.76809295207977" y1="160.68615384615381" y2="198.68615384615381"></line></g></g></svg>