<?xml version="1.0" encoding="UTF-8" standalone="no"?><svg xmlns="http://www.w3.org/2000/svg" class="" height="279.3321375mm" viewBox="0 0 1194 1545" width="215.872215mm"><text x="597" y="105"><tspan fill="#000000" dx="0" dy="0" font-family="Alegreya" font-size="35.12216706536318" text-anchor="middle">Centered Title</tspan></text><text x="1124" y="183"><tspan fill="#000000" dx="0" dy="0" font-family="Alegreya" font-size="17.56108353268159" text-anchor="end">Composer</tspan></text><text x="597" y="1475"><tspan fill="#000000" dx="0" dy="0" font-family="Alegreya" font-size="14.63423627723466" text-anchor="middle">(C) Me</tspan></text><text x="70" y="92"><tspan fill="#000000" dx="0" dy="0" font-family="Alegreya" font-size="17.56108353268159" text-anchor="start">Score</tspan></text><text x="70" y="437"><tspan fill="#000000" dx="0" dy="0" font-family="Alegreya" font-size="17.56108353268159" text-anchor="middle">This is an awesome centered </tspan><tspan fill="#000000" dy="21.56108353268159" font-family="Alegreya" font-size="17.56108353268159" text-anchor="middle" x="10">thing on the</tspan><tspan fill="#000000" dx="-70" dy="0" font-family="Alegreya" font-size="17.56108353268159" text-anchor="start">left.</tspan></text><text x="90" y="577"><tspan fill="#000000" dx="0" dy="0" font-family="Alegreya" font-size="17.56108353268159" text-anchor="start">Bold italic underline</tspan></text><text x="96" y="671"><tspan fill="#000000" dx="0" dy="0" font-family="Alegreya" font-size="105.36650119608956" text-anchor="start">Huge</tspan></text><text x="597" y="653"><tspan fill="#000000" dx="0" dy="0" font-family="Alegreya" font-size="17.56108353268159" text-anchor="middle">Centered on page.</tspan><tspan fill="#000000" dy="21.56108353268159" font-family="Alegreya" font-size="17.56108353268159" text-anchor="middle" x="10">But left.</tspan></text><text x="232" y="872"><tspan fill="#000000" dx="0" dy="0" font-family="Alegreya" font-size="17.56108353268159" text-anchor="start">Forced full</tspan><tspan fill="#000000" dy="21.56108353268159" font-family="Alegreya" font-size="17.56108353268159" text-anchor="start" x="10">justification</tspan></text><text x="699" y="839"><tspan fill="#000000" dx="0" dy="0" font-family="Alegreya" font-size="17.56108353268159" text-anchor="start">1-natural inserts</tspan></text><g><g><g><line stroke="#6A6A6A" stroke-width="1.3" x1="140" x2="582.0324666666667" y1="319" y2="319"></line><line stroke="#6A6A6A" stroke-width="1.3" x1="140" x2="582.0324666666667" y1="309" y2="309"></line><line stroke="#6A6A6A" stroke-width="1.3" x1="140" x2="582.0324666666667" y1="299" y2="299"></line><line stroke="#6A6A6A" stroke-width="1.3" x1="140" x2="582.0324666666667" y1="289" y2="289"></line><line stroke="#6A6A6A" stroke-width="1.3" x1="140" x2="582.0324666666667" y1="279" y2="279"></line></g><g><path d="M165.200 265.080C164.640 265.080 163.400 266.120 162.600 267C159.640 270.280 158.680 275.280 158.680 279.440C158.680 281.760 158.960 284.360 159.240 286C159.320 286.480 159.360 286.560 158.880 286.960C156.320 289.080 153.560 291.520 151.480 294.080C148.720 297.520 147 301.240 147 305.520C147 312.480 151.760 319.080 161.560 319.080C162.480 319.080 163.520 319 164.320 318.840C164.760 318.760 164.840 318.720 164.920 319.200C165.400 321.880 166 325.360 166 327.240C166 333.160 162 333.880 159.640 333.880C157.480 333.880 156.440 333.240 156.440 332.720C156.440 332.280 156.800 332.320 157.720 332.040C158.960 331.680 160.400 330.600 160.400 328.280C160.400 326.080 159 324.200 156.560 324.200C153.880 324.200 152.280 326.320 152.280 328.800C152.280 331.400 153.840 335.320 159.880 335.320C162.560 335.320 167.760 334.120 167.760 327.320C167.760 325.040 167.040 321.240 166.600 318.760C166.520 318.280 166.560 318.320 167.120 318.080C171.160 316.480 173.840 313.080 173.840 308.560C173.840 303.440 170.080 298.920 164.200 298.920C163.080 298.920 163.200 299.120 163.040 298.200L162.040 292.400C161.960 291.920 162.040 291.880 162.280 291.640C162.920 291.040 163.760 290.200 164.520 289.360C167.880 285.680 169.880 280.920 169.880 276.400C169.880 272.920 168.920 269.480 167.280 267.080C166.680 266.200 165.640 265.080 165.200 265.080ZM160.040 293.240C160.440 292.920 160.520 292.960 160.600 293.400L161.440 298.520C161.560 299.280 161.560 299.240 160.840 299.480C157.320 300.680 155.040 303.840 155.040 307.240C155.040 310.840 156.920 313.400 159.640 314.320C159.960 314.440 160.440 314.560 160.720 314.560C161.040 314.560 161.200 314.360 161.200 314.120C161.200 313.840 160.880 313.720 160.600 313.600C158.920 312.880 157.720 311.160 157.720 309.320C157.720 307.040 159.280 305.320 161.720 304.640C162.360 304.480 162.440 304.520 162.520 304.960L164.520 316.880C164.600 317.320 164.560 317.320 163.960 317.440C163.320 317.560 162.520 317.640 161.720 317.640C154.720 317.640 150.200 313.760 150.200 308.200C150.200 305.840 150.600 302.680 153.920 298.920C156.320 296.240 158.160 294.760 160.040 293.240ZM164.640 304.320C167.880 304.600 170.560 307.320 170.560 310.840C170.560 313.360 169.040 315.400 166.800 316.520C166.320 316.760 166.240 316.760 166.160 316.280L164.200 304.880C164.120 304.400 164.160 304.280 164.640 304.320ZM165.800 271.280C167.120 271.280 168.200 272.360 168.200 274.560C168.200 277.320 166.880 279.880 163.760 283C163.120 283.640 162.160 284.560 161.240 285.360C160.960 285.600 160.800 285.560 160.720 285.040C160.560 284 160.480 282.640 160.480 281.360C160.480 275.120 163.360 271.280 165.800 271.280Z"></path></g><g><path d="M192.980 274.280C193.260 274.160 193.460 273.840 193.460 273.600L193.460 270.760C193.460 270.560 193.340 270.440 193.180 270.440C193.100 270.440 193.060 270.440 192.980 270.480C192.980 270.480 192.180 270.800 191.980 270.840C191.700 270.840 191.420 270.640 191.420 270.320C191.420 269.920 191.420 265.440 191.420 265.440C191.420 265.200 191.180 265 190.860 265C190.460 265 190.220 265.200 190.220 265.440C190.220 265.440 190.220 270.240 190.220 270.640C190.180 271.040 190.060 271.560 189.700 271.800C189.220 272.080 187.860 272.640 187.180 272.800C186.820 272.800 186.700 272.320 186.700 272C186.700 271.600 186.700 267.200 186.700 267.200C186.700 266.960 186.420 266.760 186.140 266.760C185.740 266.760 185.500 266.960 185.500 267.200C185.500 267.200 185.500 269.360 185.500 270.960L185.500 272.600C185.500 273.160 185.260 273.560 185.020 273.680C184.780 273.800 183.980 274.120 183.980 274.120C183.700 274.200 183.500 274.520 183.500 274.760L183.500 277.600C183.500 277.840 183.620 277.960 183.820 277.960C183.860 277.960 183.940 277.920 183.980 277.920C183.980 277.920 184.580 277.680 184.860 277.520C184.900 277.520 184.940 277.480 184.980 277.480C185.260 277.480 185.500 277.880 185.500 278.200L185.500 282.160C185.500 282.600 185.300 282.960 185.060 283.080C184.820 283.160 183.980 283.520 183.980 283.520C183.700 283.600 183.500 283.920 183.500 284.160L183.500 287C183.500 287.240 183.620 287.360 183.820 287.360C183.860 287.360 183.940 287.320 183.980 287.320C183.980 287.320 184.540 287.080 184.900 286.960C184.940 286.920 184.980 286.920 185.020 286.920C185.300 286.920 185.500 287.360 185.500 287.560C185.500 287.800 185.500 292.480 185.500 292.480C185.500 292.720 185.740 292.920 186.020 292.920C186.420 292.920 186.700 292.720 186.700 292.480C186.700 292.480 186.700 287.400 186.700 286.920C186.700 286.400 186.900 286.120 187.100 286.040L189.540 285.040C189.580 285.040 189.660 285 189.700 285C190.020 285 190.220 285.480 190.220 285.720C190.220 286 190.220 290.720 190.220 290.720C190.220 290.960 190.460 291.160 190.740 291.160C191.180 291.160 191.420 290.960 191.420 290.720C191.420 290.720 191.420 285.320 191.420 285.040C191.420 284.720 191.580 284.240 191.860 284.120C192.140 284 192.980 283.680 192.980 283.680C193.260 283.560 193.460 283.240 193.460 283L193.460 280.160C193.460 279.960 193.340 279.840 193.180 279.840C193.100 279.840 193.060 279.840 192.980 279.880C192.980 279.880 192.140 280.200 191.940 280.280C191.700 280.280 191.420 280.040 191.420 279.560L191.420 275.840C191.420 275.560 191.620 274.800 191.940 274.680C192.260 274.560 192.980 274.280 192.980 274.280ZM190.220 280.800C189.980 281.600 188.100 282.400 187.180 282.400C186.940 282.400 186.740 282.320 186.700 282.200C186.620 282.040 186.580 281.160 186.580 280.200C186.580 278.960 186.620 277.560 186.700 277.240C186.780 276.560 188.620 275.720 189.620 275.720C189.900 275.720 190.140 275.800 190.220 275.960C190.300 276.160 190.380 277.160 190.380 278.240C190.380 279.320 190.300 280.440 190.220 280.800Z"></path><path d="M203.980 289.280C204.260 289.160 204.460 288.840 204.460 288.600L204.460 285.760C204.460 285.560 204.340 285.440 204.180 285.440C204.100 285.440 204.060 285.440 203.980 285.480C203.980 285.480 203.180 285.800 202.980 285.840C202.700 285.840 202.420 285.640 202.420 285.320C202.420 284.920 202.420 280.440 202.420 280.440C202.420 280.200 202.180 280 201.860 280C201.460 280 201.220 280.200 201.220 280.440C201.220 280.440 201.220 285.240 201.220 285.640C201.180 286.040 201.060 286.560 200.700 286.800C200.220 287.080 198.860 287.640 198.180 287.800C197.820 287.800 197.700 287.320 197.700 287C197.700 286.600 197.700 282.200 197.700 282.200C197.700 281.960 197.420 281.760 197.140 281.760C196.740 281.760 196.500 281.960 196.500 282.200C196.500 282.200 196.500 284.360 196.500 285.960L196.500 287.600C196.500 288.160 196.260 288.560 196.020 288.680C195.780 288.800 194.980 289.120 194.980 289.120C194.700 289.200 194.500 289.520 194.500 289.760L194.500 292.600C194.500 292.840 194.620 292.960 194.820 292.960C194.860 292.960 194.940 292.920 194.980 292.920C194.980 292.920 195.580 292.680 195.860 292.520C195.900 292.520 195.940 292.480 195.980 292.480C196.260 292.480 196.500 292.880 196.500 293.200L196.500 297.160C196.500 297.600 196.300 297.960 196.060 298.080C195.820 298.160 194.980 298.520 194.980 298.520C194.700 298.600 194.500 298.920 194.500 299.160L194.500 302C194.500 302.240 194.620 302.360 194.820 302.360C194.860 302.360 194.940 302.320 194.980 302.320C194.980 302.320 195.540 302.080 195.900 301.960C195.940 301.920 195.980 301.920 196.020 301.920C196.300 301.920 196.500 302.360 196.500 302.560C196.500 302.800 196.500 307.480 196.500 307.480C196.500 307.720 196.740 307.920 197.020 307.920C197.420 307.920 197.700 307.720 197.700 307.480C197.700 307.480 197.700 302.400 197.700 301.920C197.700 301.400 197.900 301.120 198.100 301.040L200.540 300.040C200.580 300.040 200.660 300 200.700 300C201.020 300 201.220 300.480 201.220 300.720C201.220 301 201.220 305.720 201.220 305.720C201.220 305.960 201.460 306.160 201.740 306.160C202.180 306.160 202.420 305.960 202.420 305.720C202.420 305.720 202.420 300.320 202.420 300.040C202.420 299.720 202.580 299.240 202.860 299.120C203.140 299 203.980 298.680 203.980 298.680C204.260 298.560 204.460 298.240 204.460 298L204.460 295.160C204.460 294.960 204.340 294.840 204.180 294.840C204.100 294.840 204.060 294.840 203.980 294.880C203.980 294.880 203.140 295.200 202.940 295.280C202.700 295.280 202.420 295.040 202.420 294.560L202.420 290.840C202.420 290.560 202.620 289.800 202.940 289.680C203.260 289.560 203.980 289.280 203.980 289.280ZM201.220 295.800C200.980 296.600 199.100 297.400 198.180 297.400C197.940 297.400 197.740 297.320 197.700 297.200C197.620 297.040 197.580 296.160 197.580 295.200C197.580 293.960 197.620 292.560 197.700 292.240C197.780 291.560 199.620 290.720 200.620 290.720C200.900 290.720 201.140 290.800 201.220 290.960C201.300 291.160 201.380 292.160 201.380 293.240C201.380 294.320 201.300 295.440 201.220 295.800Z"></path><path d="M214.980 269.280C215.260 269.160 215.460 268.840 215.460 268.600L215.460 265.760C215.460 265.560 215.340 265.440 215.180 265.440C215.100 265.440 215.060 265.440 214.980 265.480C214.980 265.480 214.180 265.800 213.980 265.840C213.700 265.840 213.420 265.640 213.420 265.320C213.420 264.920 213.420 260.440 213.420 260.440C213.420 260.200 213.180 260 212.860 260C212.460 260 212.220 260.200 212.220 260.440C212.220 260.440 212.220 265.240 212.220 265.640C212.180 266.040 212.060 266.560 211.700 266.800C211.220 267.080 209.860 267.640 209.180 267.800C208.820 267.800 208.700 267.320 208.700 267C208.700 266.600 208.700 262.200 208.700 262.200C208.700 261.960 208.420 261.760 208.140 261.760C207.740 261.760 207.500 261.960 207.500 262.200C207.500 262.200 207.500 264.360 207.500 265.960L207.500 267.600C207.500 268.160 207.260 268.560 207.020 268.680C206.780 268.800 205.980 269.120 205.980 269.120C205.700 269.200 205.500 269.520 205.500 269.760L205.500 272.600C205.500 272.840 205.620 272.960 205.820 272.960C205.860 272.960 205.940 272.920 205.980 272.920C205.980 272.920 206.580 272.680 206.860 272.520C206.900 272.520 206.940 272.480 206.980 272.480C207.260 272.480 207.500 272.880 207.500 273.200L207.500 277.160C207.500 277.600 207.300 277.960 207.060 278.080C206.820 278.160 205.980 278.520 205.980 278.520C205.700 278.600 205.500 278.920 205.500 279.160L205.500 282C205.500 282.240 205.620 282.360 205.820 282.360C205.860 282.360 205.940 282.320 205.980 282.320C205.980 282.320 206.540 282.080 206.900 281.960C206.940 281.920 206.980 281.920 207.020 281.920C207.300 281.920 207.500 282.360 207.500 282.560C207.500 282.800 207.500 287.480 207.500 287.480C207.500 287.720 207.740 287.920 208.020 287.920C208.420 287.920 208.700 287.720 208.700 287.480C208.700 287.480 208.700 282.400 208.700 281.920C208.700 281.400 208.900 281.120 209.100 281.040L211.540 280.040C211.580 280.040 211.660 280 211.700 280C212.020 280 212.220 280.480 212.220 280.720C212.220 281 212.220 285.720 212.220 285.720C212.220 285.960 212.460 286.160 212.740 286.160C213.180 286.160 213.420 285.960 213.420 285.720C213.420 285.720 213.420 280.320 213.420 280.040C213.420 279.720 213.580 279.240 213.860 279.120C214.140 279 214.980 278.680 214.980 278.680C215.260 278.560 215.460 278.240 215.460 278L215.460 275.160C215.460 274.960 215.340 274.840 215.180 274.840C215.100 274.840 215.060 274.840 214.980 274.880C214.980 274.880 214.140 275.200 213.940 275.280C213.700 275.280 213.420 275.040 213.420 274.560L213.420 270.840C213.420 270.560 213.620 269.800 213.940 269.680C214.260 269.560 214.980 269.280 214.980 269.280ZM212.220 275.800C211.980 276.600 210.100 277.400 209.180 277.400C208.940 277.400 208.740 277.320 208.700 277.200C208.620 277.040 208.580 276.160 208.580 275.200C208.580 273.960 208.620 272.560 208.700 272.240C208.780 271.560 210.620 270.720 211.620 270.720C211.900 270.720 212.140 270.800 212.220 270.960C212.300 271.160 212.380 272.160 212.380 273.240C212.380 274.320 212.300 275.440 212.220 275.800Z"></path><path d="M225.980 284.280C226.260 284.160 226.460 283.840 226.460 283.600L226.460 280.760C226.460 280.560 226.340 280.440 226.180 280.440C226.100 280.440 226.060 280.440 225.980 280.480C225.980 280.480 225.180 280.800 224.980 280.840C224.700 280.840 224.420 280.640 224.420 280.320C224.420 279.920 224.420 275.440 224.420 275.440C224.420 275.200 224.180 275 223.860 275C223.460 275 223.220 275.200 223.220 275.440C223.220 275.440 223.220 280.240 223.220 280.640C223.180 281.040 223.060 281.560 222.700 281.800C222.220 282.080 220.860 282.640 220.180 282.800C219.820 282.800 219.700 282.320 219.700 282C219.700 281.600 219.700 277.200 219.700 277.200C219.700 276.960 219.420 276.760 219.140 276.760C218.740 276.760 218.500 276.960 218.500 277.200C218.500 277.200 218.500 279.360 218.500 280.960L218.500 282.600C218.500 283.160 218.260 283.560 218.020 283.680C217.780 283.800 216.980 284.120 216.980 284.120C216.700 284.200 216.500 284.520 216.500 284.760L216.500 287.600C216.500 287.840 216.620 287.960 216.820 287.960C216.860 287.960 216.940 287.920 216.980 287.920C216.980 287.920 217.580 287.680 217.860 287.520C217.900 287.520 217.940 287.480 217.980 287.480C218.260 287.480 218.500 287.880 218.500 288.200L218.500 292.160C218.500 292.600 218.300 292.960 218.060 293.080C217.820 293.160 216.980 293.520 216.980 293.520C216.700 293.600 216.500 293.920 216.500 294.160L216.500 297C216.500 297.240 216.620 297.360 216.820 297.360C216.860 297.360 216.940 297.320 216.980 297.320C216.980 297.320 217.540 297.080 217.900 296.960C217.940 296.920 217.980 296.920 218.020 296.920C218.300 296.920 218.500 297.360 218.500 297.560C218.500 297.800 218.500 302.480 218.500 302.480C218.500 302.720 218.740 302.920 219.020 302.920C219.420 302.920 219.700 302.720 219.700 302.480C219.700 302.480 219.700 297.400 219.700 296.920C219.700 296.400 219.900 296.120 220.100 296.040L222.540 295.040C222.580 295.040 222.660 295 222.700 295C223.020 295 223.220 295.480 223.220 295.720C223.220 296 223.220 300.720 223.220 300.720C223.220 300.960 223.460 301.160 223.740 301.160C224.180 301.160 224.420 300.960 224.420 300.720C224.420 300.720 224.420 295.320 224.420 295.040C224.420 294.720 224.580 294.240 224.860 294.120C225.140 294 225.980 293.680 225.980 293.680C226.260 293.560 226.460 293.240 226.460 293L226.460 290.160C226.460 289.960 226.340 289.840 226.180 289.840C226.100 289.840 226.060 289.840 225.980 289.880C225.980 289.880 225.140 290.200 224.940 290.280C224.700 290.280 224.420 290.040 224.420 289.560L224.420 285.840C224.420 285.560 224.620 284.800 224.940 284.680C225.260 284.560 225.980 284.280 225.980 284.280ZM223.220 290.800C222.980 291.600 221.100 292.400 220.180 292.400C219.940 292.400 219.740 292.320 219.700 292.200C219.620 292.040 219.580 291.160 219.580 290.200C219.580 288.960 219.620 287.560 219.700 287.240C219.780 286.560 221.620 285.720 222.620 285.720C222.900 285.720 223.140 285.800 223.220 285.960C223.300 286.160 223.380 287.160 223.380 288.240C223.380 289.320 223.300 290.440 223.220 290.800Z"></path></g><g><g><path d="M256.180 291.960L253.260 291.960L253.260 283.400C253.260 283.080 253.220 282.720 252.780 282.720C252.420 282.720 252.220 282.800 251.980 283.080L248.180 287.680C248.020 287.880 247.820 288.120 247.820 288.600C247.820 288.600 247.820 290.200 247.820 291.960L242.420 291.960C245.620 289.240 252.020 280.160 252.140 279.720C252.140 279.640 252.180 279.600 252.180 279.520C252.180 279.200 251.900 278.960 251.580 278.960C251.220 278.960 249.580 279.040 248.860 279.040C248.140 279.040 246.340 278.960 246.020 278.960C245.660 278.960 245.100 279.080 245.100 279.720C245.100 284.680 241.180 290.240 239.980 291.920L239.740 292.240C239.740 292.280 239.700 292.320 239.700 292.360C239.620 292.520 239.580 292.680 239.580 292.800C239.580 293.200 239.900 293.480 240.380 293.480L247.820 293.480L247.820 296C247.820 297.080 246.940 297.400 246.220 297.400C245.580 297.400 245.300 297.760 245.300 298.160C245.300 298.560 245.460 299 246.060 299C246.700 299 254.580 299 254.580 299C254.980 299 255.380 298.720 255.380 298.160C255.380 297.600 254.900 297.360 254.500 297.360C254.100 297.360 253.260 297.120 253.260 295.840L253.260 293.480C254.980 293.480 256.180 293.480 256.180 293.480C256.580 293.480 256.780 293.200 256.780 292.720C256.780 292.240 256.620 291.960 256.180 291.960Z"></path></g><g><path d="M256.180 311.960L253.260 311.960L253.260 303.400C253.260 303.080 253.220 302.720 252.780 302.720C252.420 302.720 252.220 302.800 251.980 303.080L248.180 307.680C248.020 307.880 247.820 308.120 247.820 308.600C247.820 308.600 247.820 310.200 247.820 311.960L242.420 311.960C245.620 309.240 252.020 300.160 252.140 299.720C252.140 299.640 252.180 299.600 252.180 299.520C252.180 299.200 251.900 298.960 251.580 298.960C251.220 298.960 249.580 299.040 248.860 299.040C248.140 299.040 246.340 298.960 246.020 298.960C245.660 298.960 245.100 299.080 245.100 299.720C245.100 304.680 241.180 310.240 239.980 311.920L239.740 312.240C239.740 312.280 239.700 312.320 239.700 312.360C239.620 312.520 239.580 312.680 239.580 312.800C239.580 313.200 239.900 313.480 240.380 313.480L247.820 313.480L247.820 316C247.820 317.080 246.940 317.400 246.220 317.400C245.580 317.400 245.300 317.760 245.300 318.160C245.300 318.560 245.460 319 246.060 319C246.700 319 254.580 319 254.580 319C254.980 319 255.380 318.720 255.380 318.160C255.380 317.600 254.900 317.360 254.500 317.360C254.100 317.360 253.260 317.120 253.260 315.840L253.260 313.480C254.980 313.480 256.180 313.480 256.180 313.480C256.580 313.480 256.780 313.200 256.780 312.720C256.780 312.240 256.620 311.960 256.180 311.960Z"></path></g></g></g><g><line stroke="#000000" stroke-width="0.7487" x1="572.6581166666667" x2="572.6581166666667" y1="279" y2="319"></line><line stroke="#000000" stroke-width="5" x1="579.5324666666667" x2="579.5324666666667" y1="279" y2="319"></line></g><g><path d="M427.782 293.360L427.782 289.680C427.782 289.080 427.302 288.640 426.742 288.640L417.542 288.640C416.942 288.640 416.502 289.080 416.502 289.680L416.502 293.360C416.502 293.920 416.942 294.400 417.542 294.400L426.742 294.400C427.302 294.400 427.782 293.920 427.782 293.360Z"></path></g></g></svg>