<?xml version="1.0" encoding="UTF-8" standalone="no"?><svg xmlns="http://www.w3.org/2000/svg" height="279.4mm" viewBox="0 0 1328.6153846153845 1719.3846153846152" width="215.9mm"><g transform="translate(163.84615384615387)"><g><g><line stroke="#6A6A6A" stroke-width="1.3" x1="0" x2="154.69414929023392" y1="183.8461538461538" y2="183.8461538461538"></line><line stroke="#6A6A6A" stroke-width="1.3" x1="0" x2="154.69414929023392" y1="173.8461538461538" y2="173.8461538461538"></line><line stroke="#6A6A6A" stroke-width="1.3" x1="0" x2="154.69414929023392" y1="163.8461538461538" y2="163.8461538461538"></line><line stroke="#6A6A6A" stroke-width="1.3" x1="0" x2="154.69414929023392" y1="153.8461538461538" y2="153.8461538461538"></line><line stroke="#6A6A6A" stroke-width="1.3" x1="0" x2="154.69414929023392" y1="143.8461538461538" y2="143.8461538461538"></line></g><g><path d="M25.200 129.926C24.640 129.926 23.400 130.966 22.600 131.846C19.640 135.126 18.680 140.126 18.680 144.286C18.680 146.606 18.960 149.206 19.240 150.846C19.320 151.326 19.360 151.406 18.880 151.806C16.320 153.926 13.560 156.366 11.480 158.926C8.720 162.366 7 166.086 7 170.366C7 177.326 11.760 183.926 21.560 183.926C22.480 183.926 23.520 183.846 24.320 183.686C24.760 183.606 24.840 183.566 24.920 184.046C25.400 186.726 26 190.206 26 192.086C26 198.006 22 198.726 19.640 198.726C17.480 198.726 16.440 198.086 16.440 197.566C16.440 197.126 16.800 197.166 17.720 196.886C18.960 196.526 20.400 195.446 20.400 193.126C20.400 190.926 19 189.046 16.560 189.046C13.880 189.046 12.280 191.166 12.280 193.646C12.280 196.246 13.840 200.166 19.880 200.166C22.560 200.166 27.760 198.966 27.760 192.166C27.760 189.886 27.040 186.086 26.600 183.606C26.520 183.126 26.560 183.166 27.120 182.926C31.160 181.326 33.840 177.926 33.840 173.406C33.840 168.286 30.080 163.766 24.200 163.766C23.080 163.766 23.200 163.966 23.040 163.046L22.040 157.246C21.960 156.766 22.040 156.726 22.280 156.486C22.920 155.886 23.760 155.046 24.520 154.206C27.880 150.526 29.880 145.766 29.880 141.246C29.880 137.766 28.920 134.326 27.280 131.926C26.680 131.046 25.640 129.926 25.200 129.926ZM20.040 158.086C20.440 157.766 20.520 157.806 20.600 158.246L21.440 163.366C21.560 164.126 21.560 164.086 20.840 164.326C17.320 165.526 15.040 168.686 15.040 172.086C15.040 175.686 16.920 178.246 19.640 179.166C19.960 179.286 20.440 179.406 20.720 179.406C21.040 179.406 21.200 179.206 21.200 178.966C21.200 178.686 20.880 178.566 20.600 178.446C18.920 177.726 17.720 176.006 17.720 174.166C17.720 171.886 19.280 170.166 21.720 169.486C22.360 169.326 22.440 169.366 22.520 169.806L24.520 181.726C24.600 182.166 24.560 182.166 23.960 182.286C23.320 182.406 22.520 182.486 21.720 182.486C14.720 182.486 10.200 178.606 10.200 173.046C10.200 170.686 10.600 167.526 13.920 163.766C16.320 161.086 18.160 159.606 20.040 158.086ZM24.640 169.166C27.880 169.446 30.560 172.166 30.560 175.686C30.560 178.206 29.040 180.246 26.800 181.366C26.320 181.606 26.240 181.606 26.160 181.126L24.200 169.726C24.120 169.246 24.160 169.126 24.640 169.166ZM25.800 136.126C27.120 136.126 28.200 137.206 28.200 139.406C28.200 142.166 26.880 144.726 23.760 147.846C23.120 148.486 22.160 149.406 21.240 150.206C20.960 150.446 20.800 150.406 20.720 149.886C20.560 148.846 20.480 147.486 20.480 146.206C20.480 139.966 23.360 136.126 25.800 136.126Z"></path></g><g></g><g><g><path d="M65.180 156.806L62.260 156.806L62.260 148.246C62.260 147.926 62.220 147.566 61.780 147.566C61.420 147.566 61.220 147.646 60.980 147.926L57.180 152.526C57.020 152.726 56.820 152.966 56.820 153.446C56.820 153.446 56.820 155.046 56.820 156.806L51.420 156.806C54.620 154.086 61.020 145.006 61.140 144.566C61.140 144.486 61.180 144.446 61.180 144.366C61.180 144.046 60.900 143.806 60.580 143.806C60.220 143.806 58.580 143.886 57.860 143.886C57.140 143.886 55.340 143.806 55.020 143.806C54.660 143.806 54.100 143.926 54.100 144.566C54.100 149.526 50.180 155.086 48.980 156.766L48.740 157.086C48.740 157.126 48.700 157.166 48.700 157.206C48.620 157.366 48.580 157.526 48.580 157.646C48.580 158.046 48.900 158.326 49.380 158.326L56.820 158.326L56.820 160.846C56.820 161.926 55.940 162.246 55.220 162.246C54.580 162.246 54.300 162.606 54.300 163.006C54.300 163.406 54.460 163.846 55.060 163.846C55.700 163.846 63.580 163.846 63.580 163.846C63.980 163.846 64.380 163.566 64.380 163.006C64.380 162.446 63.900 162.206 63.500 162.206C63.100 162.206 62.260 161.966 62.260 160.686L62.260 158.326C63.980 158.326 65.180 158.326 65.180 158.326C65.580 158.326 65.780 158.046 65.780 157.566C65.780 157.086 65.620 156.806 65.180 156.806Z"></path></g><g><path d="M65.180 176.806L62.260 176.806L62.260 168.246C62.260 167.926 62.220 167.566 61.780 167.566C61.420 167.566 61.220 167.646 60.980 167.926L57.180 172.526C57.020 172.726 56.820 172.966 56.820 173.446C56.820 173.446 56.820 175.046 56.820 176.806L51.420 176.806C54.620 174.086 61.020 165.006 61.140 164.566C61.140 164.486 61.180 164.446 61.180 164.366C61.180 164.046 60.900 163.806 60.580 163.806C60.220 163.806 58.580 163.886 57.860 163.886C57.140 163.886 55.340 163.806 55.020 163.806C54.660 163.806 54.100 163.926 54.100 164.566C54.100 169.526 50.180 175.086 48.980 176.766L48.740 177.086C48.740 177.126 48.700 177.166 48.700 177.206C48.620 177.366 48.580 177.526 48.580 177.646C48.580 178.046 48.900 178.326 49.380 178.326L56.820 178.326L56.820 180.846C56.820 181.926 55.940 182.246 55.220 182.246C54.580 182.246 54.300 182.606 54.300 183.006C54.300 183.406 54.460 183.846 55.060 183.846C55.700 183.846 63.580 183.846 63.580 183.846C63.980 183.846 64.380 183.566 64.380 183.006C64.380 182.446 63.900 182.206 63.500 182.206C63.100 182.206 62.260 181.966 62.260 180.686L62.260 178.326C63.980 178.326 65.180 178.326 65.180 178.326C65.580 178.326 65.780 178.046 65.780 177.566C65.780 177.086 65.620 176.806 65.180 176.806Z"></path></g></g></g><g><line stroke="black" stroke-width="1.6" x1="155.49414929023393" x2="155.49414929023393" y1="143.8461538461538" y2="183.8461538461538"></line></g><g><g><path d="M93.360 164.486C97.360 164.486 102.280 160.766 102.280 156.966C102.280 154.686 100.480 153.206 97.880 153.206C92.960 153.206 89 156.846 89 160.726C89 163.086 90.920 164.486 93.360 164.486Z"></path></g><line stroke="#000000" stroke-width="1.2" x1="89.6" x2="89.6" y1="160.68615384615381" y2="195.68615384615381"></line><path d="M98.600 163.806C99.160 165.486 99.440 167.486 99.440 169.286C99.440 171.646 98.440 175.006 97.840 176.366C96.360 179.726 94.360 182.966 89 184.766L89 194.166C89 194.646 89.200 194.766 89.440 194.766C90.200 194.766 90.520 194.526 90.600 193.886C91.280 190.086 94.240 186.606 96.280 183.446C98.800 179.486 101.240 174.726 101.240 169.726C101.240 166.606 100.440 163.766 100.120 162.486C99.800 161.206 98 162.086 98.600 163.806Z"></path></g><g><g><path d="M126.207 164.486C130.207 164.486 135.127 160.766 135.127 156.966C135.127 154.686 133.327 153.206 130.727 153.206C125.807 153.206 121.847 156.846 121.847 160.726C121.847 163.086 123.767 164.486 126.207 164.486Z"></path></g><line stroke="#000000" stroke-width="1.2" x1="122.44707464511696" x2="122.44707464511696" y1="160.68615384615381" y2="195.68615384615381"></line><path d="M131.447 163.806C132.007 165.486 132.287 167.486 132.287 169.286C132.287 171.646 131.287 175.006 130.687 176.366C129.207 179.726 127.207 182.966 121.847 184.766L121.847 194.166C121.847 194.646 122.047 194.766 122.287 194.766C123.047 194.766 123.367 194.526 123.447 193.886C124.127 190.086 127.087 186.606 129.127 183.446C131.647 179.486 134.087 174.726 134.087 169.726C134.087 166.606 133.287 163.766 132.967 162.486C132.647 161.206 130.847 162.086 131.447 163.806Z"></path></g></g><g transform="translate(335.1403031363878)"><g><g><line stroke="#6A6A6A" stroke-width="1.3" x1="-16.599999999999994" x2="401.0531405516539" y1="183.8461538461538" y2="183.8461538461538"></line><line stroke="#6A6A6A" stroke-width="1.3" x1="-16.599999999999994" x2="401.0531405516539" y1="173.8461538461538" y2="173.8461538461538"></line><line stroke="#6A6A6A" stroke-width="1.3" x1="-16.599999999999994" x2="401.0531405516539" y1="163.8461538461538" y2="163.8461538461538"></line><line stroke="#6A6A6A" stroke-width="1.3" x1="-16.599999999999994" x2="401.0531405516539" y1="153.8461538461538" y2="153.8461538461538"></line><line stroke="#6A6A6A" stroke-width="1.3" x1="-16.599999999999994" x2="401.0531405516539" y1="143.8461538461538" y2="143.8461538461538"></line></g></g><g><line stroke="black" stroke-width="1.6" x1="391.2531405516539" x2="391.2531405516539" y1="143.8461538461538" y2="183.8461538461538"></line><line stroke="black" stroke-width="5" x1="398.55314055165394" x2="398.55314055165394" y1="143.8461538461538" y2="183.8461538461538"></line></g><g><g><path d="M4.360 199.486C8.360 199.486 13.280 195.766 13.280 191.966C13.280 189.686 11.480 188.206 8.880 188.206C3.960 188.206 0 191.846 0 195.726C0 198.086 1.920 199.486 4.360 199.486Z"></path></g><line stroke="#000000" stroke-width="1.2" x1="12.680000000000001" x2="12.680000000000001" y1="192.0061538461538" y2="157.0061538461538"></line><line stroke="#000000" stroke-width="2.2" x1="-3.2" x2="18.72" y1="193.8461538461538" y2="193.8461538461538"></line></g><g><g><path d="M101.973 199.486C105.973 199.486 110.893 195.766 110.893 191.966C110.893 189.686 109.093 188.206 106.493 188.206C101.573 188.206 97.613 191.846 97.613 195.726C97.613 198.086 99.533 199.486 101.973 199.486Z"></path></g><line stroke="#000000" stroke-width="1.2" x1="110.29328513791349" x2="110.29328513791349" y1="192.0061538461538" y2="157.0061538461538"></line><line stroke="#000000" stroke-width="2.2" x1="94.41328513791348" x2="116.33328513791348" y1="193.8461538461538" y2="193.8461538461538"></line></g><g><g><path d="M199.587 199.486C203.587 199.486 208.507 195.766 208.507 191.966C208.507 189.686 206.707 188.206 204.107 188.206C199.187 188.206 195.227 191.846 195.227 195.726C195.227 198.086 197.147 199.486 199.587 199.486Z"></path></g><line stroke="#000000" stroke-width="1.2" x1="207.90657027582697" x2="207.90657027582697" y1="192.0061538461538" y2="157.0061538461538"></line><line stroke="#000000" stroke-width="2.2" x1="192.02657027582697" x2="213.94657027582696" y1="193.8461538461538" y2="193.8461538461538"></line></g><g><g><path d="M297.200 199.486C301.200 199.486 306.120 195.766 306.120 191.966C306.120 189.686 304.320 188.206 301.720 188.206C296.800 188.206 292.840 191.846 292.840 195.726C292.840 198.086 294.760 199.486 297.200 199.486Z"></path></g><line stroke="#000000" stroke-width="1.2" x1="305.51985541374046" x2="305.51985541374046" y1="192.0061538461538" y2="157.0061538461538"></line><line stroke="#000000" stroke-width="2.2" x1="289.63985541374046" x2="311.5598554137405" y1="193.8461538461538" y2="193.8461538461538"></line></g></g></svg>