<?xml version="1.0" encoding="UTF-8" standalone="no"?><svg xmlns="http://www.w3.org/2000/svg" height="279.4mm" viewBox="0 0 1328.6153846153845 1719.3846153846152" width="215.9mm"><g transform="translate(93.84615384615385)"><g><g><line stroke="#6A6A6A" stroke-width="1.3" x1="0" x2="258.2047680973611" y1="183.8461538461538" y2="183.8461538461538"></line><line stroke="#6A6A6A" stroke-width="1.3" x1="0" x2="258.2047680973611" y1="173.8461538461538" y2="173.8461538461538"></line><line stroke="#6A6A6A" stroke-width="1.3" x1="0" x2="258.2047680973611" y1="163.8461538461538" y2="163.8461538461538"></line><line stroke="#6A6A6A" stroke-width="1.3" x1="0" x2="258.2047680973611" y1="153.8461538461538" y2="153.8461538461538"></line><line stroke="#6A6A6A" stroke-width="1.3" x1="0" x2="258.2047680973611" y1="143.8461538461538" y2="143.8461538461538"></line></g><g><path d="M25.200 129.926C24.640 129.926 23.400 130.966 22.600 131.846C19.640 135.126 18.680 140.126 18.680 144.286C18.680 146.606 18.960 149.206 19.240 150.846C19.320 151.326 19.360 151.406 18.880 151.806C16.320 153.926 13.560 156.366 11.480 158.926C8.720 162.366 7 166.086 7 170.366C7 177.326 11.760 183.926 21.560 183.926C22.480 183.926 23.520 183.846 24.320 183.686C24.760 183.606 24.840 183.566 24.920 184.046C25.400 186.726 26 190.206 26 192.086C26 198.006 22 198.726 19.640 198.726C17.480 198.726 16.440 198.086 16.440 197.566C16.440 197.126 16.800 197.166 17.720 196.886C18.960 196.526 20.400 195.446 20.400 193.126C20.400 190.926 19 189.046 16.560 189.046C13.880 189.046 12.280 191.166 12.280 193.646C12.280 196.246 13.840 200.166 19.880 200.166C22.560 200.166 27.760 198.966 27.760 192.166C27.760 189.886 27.040 186.086 26.600 183.606C26.520 183.126 26.560 183.166 27.120 182.926C31.160 181.326 33.840 177.926 33.840 173.406C33.840 168.286 30.080 163.766 24.200 163.766C23.080 163.766 23.200 163.966 23.040 163.046L22.040 157.246C21.960 156.766 22.040 156.726 22.280 156.486C22.920 155.886 23.760 155.046 24.520 154.206C27.880 150.526 29.880 145.766 29.880 141.246C29.880 137.766 28.920 134.326 27.280 131.926C26.680 131.046 25.640 129.926 25.200 129.926ZM20.040 158.086C20.440 157.766 20.520 157.806 20.600 158.246L21.440 163.366C21.560 164.126 21.560 164.086 20.840 164.326C17.320 165.526 15.040 168.686 15.040 172.086C15.040 175.686 16.920 178.246 19.640 179.166C19.960 179.286 20.440 179.406 20.720 179.406C21.040 179.406 21.200 179.206 21.200 178.966C21.200 178.686 20.880 178.566 20.600 178.446C18.920 177.726 17.720 176.006 17.720 174.166C17.720 171.886 19.280 170.166 21.720 169.486C22.360 169.326 22.440 169.366 22.520 169.806L24.520 181.726C24.600 182.166 24.560 182.166 23.960 182.286C23.320 182.406 22.520 182.486 21.720 182.486C14.720 182.486 10.200 178.606 10.200 173.046C10.200 170.686 10.600 167.526 13.920 163.766C16.320 161.086 18.160 159.606 20.040 158.086ZM24.640 169.166C27.880 169.446 30.560 172.166 30.560 175.686C30.560 178.206 29.040 180.246 26.800 181.366C26.320 181.606 26.240 181.606 26.160 181.126L24.200 169.726C24.120 169.246 24.160 169.126 24.640 169.166ZM25.800 136.126C27.120 136.126 28.200 137.206 28.200 139.406C28.200 142.166 26.880 144.726 23.760 147.846C23.120 148.486 22.160 149.406 21.240 150.206C20.960 150.446 20.800 150.406 20.720 149.886C20.560 148.846 20.480 147.486 20.480 146.206C20.480 139.966 23.360 136.126 25.800 136.126Z"></path></g><g></g><g><g><path d="M56.380 143.926C56.180 143.926 55.980 143.886 55.780 143.886C52.340 143.886 48.900 146.166 48.900 148.286C48.900 149.606 49.660 151.366 52.140 151.526L52.340 151.526C54.100 151.526 54.980 150.246 54.980 148.926L54.980 148.606C54.860 147.126 53.860 147.046 53.660 146.966C53.460 146.886 52.860 146.966 52.860 146.406L52.860 146.246C52.940 145.566 54.180 145.246 54.540 145.246C57.940 145.246 58.260 147.366 58.260 148.326L58.260 148.606C58.260 151.566 55.900 152.726 53.380 152.846C52.980 152.886 52.420 153.086 52.420 153.526C52.420 154.006 53.100 154.006 53.420 154.006C58.020 154.006 58.380 157.126 58.380 157.646C58.380 161.886 56.220 162.366 55.340 162.366C55.180 162.366 55.020 162.326 54.980 162.326C54.660 162.286 53.900 162.286 53.860 161.686L53.860 161.486C53.860 160.606 54.740 160.006 54.780 158.846C54.780 158.446 54.740 158.006 54.580 157.606C54.140 156.606 52.980 155.966 51.900 155.966C51.740 155.966 51.620 155.966 51.460 156.006C50.780 156.126 50.020 156.526 49.540 157.046C48.860 157.646 48.660 158.606 48.660 159.486C48.740 162.606 51.580 163.806 55.500 163.886L55.860 163.886C59.820 163.886 63.900 161.846 63.900 158.326L63.900 158.046C63.860 157.486 63.780 156.926 63.540 156.406C63.380 156.006 63.100 155.606 62.780 155.246C62.540 154.926 62.220 154.646 61.820 154.406L60.980 153.926L59.660 153.566C59.460 153.526 59.340 153.526 59.260 153.366C59.220 153.286 59.220 153.246 59.220 153.166C59.220 153.006 59.260 152.846 59.380 152.806C59.820 152.686 60.260 152.646 60.620 152.446C61.220 152.166 61.740 151.886 62.180 151.366C62.820 150.646 63.060 149.726 63.060 148.806C63.060 145.126 58.060 144.046 56.380 143.926Z"></path></g><g><path d="M65.180 176.806L62.260 176.806L62.260 168.246C62.260 167.926 62.220 167.566 61.780 167.566C61.420 167.566 61.220 167.646 60.980 167.926L57.180 172.526C57.020 172.726 56.820 172.966 56.820 173.446C56.820 173.446 56.820 175.046 56.820 176.806L51.420 176.806C54.620 174.086 61.020 165.006 61.140 164.566C61.140 164.486 61.180 164.446 61.180 164.366C61.180 164.046 60.900 163.806 60.580 163.806C60.220 163.806 58.580 163.886 57.860 163.886C57.140 163.886 55.340 163.806 55.020 163.806C54.660 163.806 54.100 163.926 54.100 164.566C54.100 169.526 50.180 175.086 48.980 176.766L48.740 177.086C48.740 177.126 48.700 177.166 48.700 177.206C48.620 177.366 48.580 177.526 48.580 177.646C48.580 178.046 48.900 178.326 49.380 178.326L56.820 178.326L56.820 180.846C56.820 181.926 55.940 182.246 55.220 182.246C54.580 182.246 54.300 182.606 54.300 183.006C54.300 183.406 54.460 183.846 55.060 183.846C55.700 183.846 63.580 183.846 63.580 183.846C63.980 183.846 64.380 183.566 64.380 183.006C64.380 182.446 63.900 182.206 63.500 182.206C63.100 182.206 62.260 181.966 62.260 180.686L62.260 178.326C63.980 178.326 65.180 178.326 65.180 178.326C65.580 178.326 65.780 178.046 65.780 177.566C65.780 177.086 65.620 176.806 65.180 176.806Z"></path></g></g></g><g><line stroke="black" stroke-width="1.6" x1="259.00476809736114" x2="259.00476809736114" y1="143.8461538461538" y2="183.8461538461538"></line></g><g><g><path d="M93.360 169.486C97.360 169.486 102.280 165.766 102.280 161.966C102.280 159.686 100.480 158.206 97.880 158.206C92.960 158.206 89 161.846 89 165.726C89 168.086 90.920 169.486 93.360 169.486Z"></path></g><line stroke="#000000" stroke-width="1.2" x1="89.6" x2="89.6" y1="165.68615384615381" y2="199.68615384615381"></line><g><polygon fill="black" points="85.6,219.0061538461538 170.93125389487554,219.0061538461538 170.93125389487554,217.4061538461538 85.6,217.4061538461538" stroke="black" stroke-width="0"></polygon><line fill="black" stroke="black" stroke-width="1.6" x1="86.1" x2="86.1" y1="217.4061538461538" y2="211.0061538461538"></line><line fill="black" stroke="black" stroke-width="1.6" x1="170.43125389487554" x2="170.43125389487554" y1="217.4061538461538" y2="211.0061538461538"></line><g><polygon fill="white" points="116.34562694743776,211.9061538461538 116.34562694743776,226.58615384615382 140.18562694743775,226.58615384615382 140.18562694743775,211.9061538461538" stroke="white" stroke-width="0"></polygon><path d="M125.746 226.186C124.946 226.186 124.306 225.866 124.306 225.466C124.306 225.226 124.506 225.146 124.826 224.986C125.266 224.786 125.826 224.306 125.826 223.266C125.826 222.306 125.146 221.826 124.306 221.826C123.186 221.826 122.346 222.826 122.346 224.146C122.346 225.746 123.626 227.226 126.466 227.226C129.866 227.226 132.666 225.186 132.666 222.026C132.666 221.026 132.146 220.066 131.106 219.546C130.826 219.426 130.666 219.386 130.666 219.186C130.666 218.986 130.826 218.986 131.146 218.826C132.826 218.146 134.186 216.866 134.186 215.266C134.186 213.186 132.186 211.906 129.746 211.906C127.226 211.906 125.146 213.226 125.066 215.386C125.026 216.426 125.666 217.106 126.586 217.106C127.586 217.106 128.386 216.306 128.386 215.226C128.386 214.786 128.226 214.466 128.026 214.226C127.746 213.986 127.546 213.946 127.546 213.706C127.546 213.426 128.026 213.146 128.866 213.146C130.426 213.146 130.946 214.106 130.946 214.986C130.946 217.106 129.586 218.626 127.266 218.626L126.826 218.626C126.306 218.626 126.026 218.866 126.026 219.226C126.026 219.586 126.306 219.826 126.826 219.826L127.226 219.826C128.706 219.826 129.426 220.706 129.426 221.986C129.426 223.746 128.186 226.186 125.746 226.186Z"></path></g></g></g><g><g><path d="M132.026 169.486C136.026 169.486 140.946 165.766 140.946 161.966C140.946 159.686 139.146 158.206 136.546 158.206C131.626 158.206 127.666 161.846 127.666 165.726C127.666 168.086 129.586 169.486 132.026 169.486Z"></path></g><line stroke="#000000" stroke-width="1.2" x1="128.26562694743777" x2="128.26562694743777" y1="165.68615384615381" y2="200.68615384615381"></line></g><g><g><path d="M170.691 169.486C174.691 169.486 179.611 165.766 179.611 161.966C179.611 159.686 177.811 158.206 175.211 158.206C170.291 158.206 166.331 161.846 166.331 165.726C166.331 168.086 168.251 169.486 170.691 169.486Z"></path></g><line stroke="#000000" stroke-width="1.2" x1="166.93125389487554" x2="166.93125389487554" y1="165.68615384615381" y2="199.68615384615381"></line></g><g><path d="M214.317 170.286C212.797 168.446 211.557 166.966 211.557 164.726C211.557 164.566 211.597 164.366 211.597 164.206C211.757 161.886 213.197 159.966 214.237 158.326C214.357 158.126 214.397 157.926 214.397 157.726C214.397 157.326 214.237 156.966 214.237 156.966C214.237 156.966 208.317 149.926 207.637 149.246C207.437 149.046 207.157 148.926 206.917 148.926C206.517 148.926 206.117 149.206 206.117 149.766C206.117 149.966 206.157 150.166 206.277 150.406C206.437 150.846 208.717 152.886 208.717 155.766C208.717 157.246 208.117 158.966 206.317 160.846C205.917 161.246 205.757 161.686 205.757 162.006C205.757 162.566 206.157 162.966 206.157 162.966L208.117 165.366C208.757 166.166 209.317 166.926 209.837 167.766C209.917 167.926 210.077 168.126 210.077 168.326C210.077 168.366 210.077 168.446 210.037 168.486C209.957 168.646 209.797 168.686 209.597 168.686C209.357 168.686 209.117 168.606 208.957 168.566C208.757 168.566 208.517 168.446 208.317 168.446C206.597 168.446 205.037 170.166 205.037 172.286C205.037 174.286 206.757 176.246 209.677 178.486C209.997 178.726 210.397 178.846 210.717 178.846C210.997 178.846 211.277 178.766 211.317 178.606C211.357 178.486 211.397 178.406 211.397 178.326C211.397 177.966 211.077 177.646 210.757 177.366C210.237 177.366 209.797 176.286 209.717 175.926C209.597 175.606 209.557 175.246 209.557 174.886C209.557 173.646 210.157 172.246 211.437 172.006C211.637 171.966 211.837 171.966 212.077 171.966C213.237 171.966 214.557 172.406 215.197 172.646C215.237 172.646 215.277 172.686 215.317 172.686C215.437 172.726 215.517 172.726 215.597 172.726C215.717 172.726 215.797 172.686 215.797 172.566C215.797 172.086 214.757 170.766 214.317 170.286Z"></path></g></g><g transform="translate(368.65092194351496)"><g><g><line stroke="#6A6A6A" stroke-width="1.3" x1="-16.599999999999966" x2="159.6236617651432" y1="183.8461538461538" y2="183.8461538461538"></line><line stroke="#6A6A6A" stroke-width="1.3" x1="-16.599999999999966" x2="159.6236617651432" y1="173.8461538461538" y2="173.8461538461538"></line><line stroke="#6A6A6A" stroke-width="1.3" x1="-16.599999999999966" x2="159.6236617651432" y1="163.8461538461538" y2="163.8461538461538"></line><line stroke="#6A6A6A" stroke-width="1.3" x1="-16.599999999999966" x2="159.6236617651432" y1="153.8461538461538" y2="153.8461538461538"></line><line stroke="#6A6A6A" stroke-width="1.3" x1="-16.599999999999966" x2="159.6236617651432" y1="143.8461538461538" y2="143.8461538461538"></line></g></g><g><line stroke="black" stroke-width="1.6" x1="160.4236617651432" x2="160.4236617651432" y1="143.8461538461538" y2="183.8461538461538"></line></g><g><g><path d="M4.360 169.486C8.360 169.486 13.280 165.766 13.280 161.966C13.280 159.686 11.480 158.206 8.880 158.206C3.960 158.206 0 161.846 0 165.726C0 168.086 1.920 169.486 4.360 169.486Z"></path></g><line stroke="#000000" stroke-width="1.2" x1="0.6" x2="0.6" y1="165.68615384615381" y2="200.68615384615381"></line></g><g><g><path d="M57.568 169.486C61.568 169.486 66.488 165.766 66.488 161.966C66.488 159.686 64.688 158.206 62.088 158.206C57.168 158.206 53.208 161.846 53.208 165.726C53.208 168.086 55.128 169.486 57.568 169.486Z"></path></g><line stroke="#000000" stroke-width="1.2" x1="53.80788725504773" x2="53.80788725504773" y1="165.68615384615381" y2="200.68615384615381"></line></g><g><g><path d="M110.776 169.486C114.776 169.486 119.696 165.766 119.696 161.966C119.696 159.686 117.896 158.206 115.296 158.206C110.376 158.206 106.416 161.846 106.416 165.726C106.416 168.086 108.336 169.486 110.776 169.486Z"></path></g><line stroke="#000000" stroke-width="1.2" x1="107.01577451009545" x2="107.01577451009545" y1="165.68615384615381" y2="200.68615384615381"></line></g></g><g transform="translate(544.8745837086581)"><g><g><line stroke="#6A6A6A" stroke-width="1.3" x1="-16.599999999999966" x2="159.6236617651432" y1="183.8461538461538" y2="183.8461538461538"></line><line stroke="#6A6A6A" stroke-width="1.3" x1="-16.599999999999966" x2="159.6236617651432" y1="173.8461538461538" y2="173.8461538461538"></line><line stroke="#6A6A6A" stroke-width="1.3" x1="-16.599999999999966" x2="159.6236617651432" y1="163.8461538461538" y2="163.8461538461538"></line><line stroke="#6A6A6A" stroke-width="1.3" x1="-16.599999999999966" x2="159.6236617651432" y1="153.8461538461538" y2="153.8461538461538"></line><line stroke="#6A6A6A" stroke-width="1.3" x1="-16.599999999999966" x2="159.6236617651432" y1="143.8461538461538" y2="143.8461538461538"></line></g></g><g><line stroke="black" stroke-width="1.6" x1="160.4236617651432" x2="160.4236617651432" y1="143.8461538461538" y2="183.8461538461538"></line></g><g><g><path d="M4.360 169.486C8.360 169.486 13.280 165.766 13.280 161.966C13.280 159.686 11.480 158.206 8.880 158.206C3.960 158.206 0 161.846 0 165.726C0 168.086 1.920 169.486 4.360 169.486Z"></path></g><line stroke="#000000" stroke-width="1.2" x1="0.6" x2="0.6" y1="165.68615384615381" y2="200.68615384615381"></line></g><g><g><path d="M57.568 169.486C61.568 169.486 66.488 165.766 66.488 161.966C66.488 159.686 64.688 158.206 62.088 158.206C57.168 158.206 53.208 161.846 53.208 165.726C53.208 168.086 55.128 169.486 57.568 169.486Z"></path></g><line stroke="#000000" stroke-width="1.2" x1="53.80788725504773" x2="53.80788725504773" y1="165.68615384615381" y2="200.68615384615381"></line></g><g><g><path d="M110.776 169.486C114.776 169.486 119.696 165.766 119.696 161.966C119.696 159.686 117.896 158.206 115.296 158.206C110.376 158.206 106.416 161.846 106.416 165.726C106.416 168.086 108.336 169.486 110.776 169.486Z"></path></g><line stroke="#000000" stroke-width="1.2" x1="107.01577451009545" x2="107.01577451009545" y1="165.68615384615381" y2="200.68615384615381"></line></g></g><g transform="translate(721.0982454738013)"><g><g><line stroke="#6A6A6A" stroke-width="1.3" x1="-16.59999999999991" x2="159.6236617651432" y1="183.8461538461538" y2="183.8461538461538"></line><line stroke="#6A6A6A" stroke-width="1.3" x1="-16.59999999999991" x2="159.6236617651432" y1="173.8461538461538" y2="173.8461538461538"></line><line stroke="#6A6A6A" stroke-width="1.3" x1="-16.59999999999991" x2="159.6236617651432" y1="163.8461538461538" y2="163.8461538461538"></line><line stroke="#6A6A6A" stroke-width="1.3" x1="-16.59999999999991" x2="159.6236617651432" y1="153.8461538461538" y2="153.8461538461538"></line><line stroke="#6A6A6A" stroke-width="1.3" x1="-16.59999999999991" x2="159.6236617651432" y1="143.8461538461538" y2="143.8461538461538"></line></g></g><g><line stroke="black" stroke-width="1.6" x1="160.4236617651432" x2="160.4236617651432" y1="143.8461538461538" y2="183.8461538461538"></line></g><g><g><path d="M4.360 169.486C8.360 169.486 13.280 165.766 13.280 161.966C13.280 159.686 11.480 158.206 8.880 158.206C3.960 158.206 0 161.846 0 165.726C0 168.086 1.920 169.486 4.360 169.486Z"></path></g><line stroke="#000000" stroke-width="1.2" x1="0.6" x2="0.6" y1="165.68615384615381" y2="200.68615384615381"></line></g><g><g><path d="M57.568 169.486C61.568 169.486 66.488 165.766 66.488 161.966C66.488 159.686 64.688 158.206 62.088 158.206C57.168 158.206 53.208 161.846 53.208 165.726C53.208 168.086 55.128 169.486 57.568 169.486Z"></path></g><line stroke="#000000" stroke-width="1.2" x1="53.80788725504773" x2="53.80788725504773" y1="165.68615384615381" y2="200.68615384615381"></line></g><g><g><path d="M110.776 169.486C114.776 169.486 119.696 165.766 119.696 161.966C119.696 159.686 117.896 158.206 115.296 158.206C110.376 158.206 106.416 161.846 106.416 165.726C106.416 168.086 108.336 169.486 110.776 169.486Z"></path></g><line stroke="#000000" stroke-width="1.2" x1="107.01577451009545" x2="107.01577451009545" y1="165.68615384615381" y2="200.68615384615381"></line></g></g><g transform="translate(897.3219072389445)"><g><g><line stroke="#6A6A6A" stroke-width="1.3" x1="-16.59999999999991" x2="159.6236617651432" y1="183.8461538461538" y2="183.8461538461538"></line><line stroke="#6A6A6A" stroke-width="1.3" x1="-16.59999999999991" x2="159.6236617651432" y1="173.8461538461538" y2="173.8461538461538"></line><line stroke="#6A6A6A" stroke-width="1.3" x1="-16.59999999999991" x2="159.6236617651432" y1="163.8461538461538" y2="163.8461538461538"></line><line stroke="#6A6A6A" stroke-width="1.3" x1="-16.59999999999991" x2="159.6236617651432" y1="153.8461538461538" y2="153.8461538461538"></line><line stroke="#6A6A6A" stroke-width="1.3" x1="-16.59999999999991" x2="159.6236617651432" y1="143.8461538461538" y2="143.8461538461538"></line></g></g><g><line stroke="black" stroke-width="1.6" x1="160.4236617651432" x2="160.4236617651432" y1="143.8461538461538" y2="183.8461538461538"></line></g><g><g><path d="M4.360 169.486C8.360 169.486 13.280 165.766 13.280 161.966C13.280 159.686 11.480 158.206 8.880 158.206C3.960 158.206 0 161.846 0 165.726C0 168.086 1.920 169.486 4.360 169.486Z"></path></g><line stroke="#000000" stroke-width="1.2" x1="0.6" x2="0.6" y1="165.68615384615381" y2="200.68615384615381"></line></g><g><g><path d="M57.568 169.486C61.568 169.486 66.488 165.766 66.488 161.966C66.488 159.686 64.688 158.206 62.088 158.206C57.168 158.206 53.208 161.846 53.208 165.726C53.208 168.086 55.128 169.486 57.568 169.486Z"></path></g><line stroke="#000000" stroke-width="1.2" x1="53.80788725504773" x2="53.80788725504773" y1="165.68615384615381" y2="200.68615384615381"></line></g><g><g><path d="M110.776 169.486C114.776 169.486 119.696 165.766 119.696 161.966C119.696 159.686 117.896 158.206 115.296 158.206C110.376 158.206 106.416 161.846 106.416 165.726C106.416 168.086 108.336 169.486 110.776 169.486Z"></path></g><line stroke="#000000" stroke-width="1.2" x1="107.01577451009545" x2="107.01577451009545" y1="165.68615384615381" y2="200.68615384615381"></line></g></g><g transform="translate(1073.5455690040876)"><g><g><line stroke="#6A6A6A" stroke-width="1.3" x1="-16.59999999999991" x2="161.2236617651431" y1="183.8461538461538" y2="183.8461538461538"></line><line stroke="#6A6A6A" stroke-width="1.3" x1="-16.59999999999991" x2="161.2236617651431" y1="173.8461538461538" y2="173.8461538461538"></line><line stroke="#6A6A6A" stroke-width="1.3" x1="-16.59999999999991" x2="161.2236617651431" y1="163.8461538461538" y2="163.8461538461538"></line><line stroke="#6A6A6A" stroke-width="1.3" x1="-16.59999999999991" x2="161.2236617651431" y1="153.8461538461538" y2="153.8461538461538"></line><line stroke="#6A6A6A" stroke-width="1.3" x1="-16.59999999999991" x2="161.2236617651431" y1="143.8461538461538" y2="143.8461538461538"></line></g></g><g><line stroke="black" stroke-width="1.6" x1="160.4236617651432" x2="160.4236617651432" y1="143.8461538461538" y2="183.8461538461538"></line></g><g><g><path d="M4.360 169.486C8.360 169.486 13.280 165.766 13.280 161.966C13.280 159.686 11.480 158.206 8.880 158.206C3.960 158.206 0 161.846 0 165.726C0 168.086 1.920 169.486 4.360 169.486Z"></path></g><line stroke="#000000" stroke-width="1.2" x1="0.6" x2="0.6" y1="165.68615384615381" y2="200.68615384615381"></line></g><g><g><path d="M57.568 169.486C61.568 169.486 66.488 165.766 66.488 161.966C66.488 159.686 64.688 158.206 62.088 158.206C57.168 158.206 53.208 161.846 53.208 165.726C53.208 168.086 55.128 169.486 57.568 169.486Z"></path></g><line stroke="#000000" stroke-width="1.2" x1="53.80788725504773" x2="53.80788725504773" y1="165.68615384615381" y2="200.68615384615381"></line></g><g><g><path d="M110.776 169.486C114.776 169.486 119.696 165.766 119.696 161.966C119.696 159.686 117.896 158.206 115.296 158.206C110.376 158.206 106.416 161.846 106.416 165.726C106.416 168.086 108.336 169.486 110.776 169.486Z"></path></g><line stroke="#000000" stroke-width="1.2" x1="107.01577451009545" x2="107.01577451009545" y1="165.68615384615381" y2="200.68615384615381"></line></g></g><g transform="translate(93.84615384615385)"><g><g><line stroke="#6A6A6A" stroke-width="1.3" x1="0" x2="175.81630399343766" y1="314.8461538461538" y2="314.8461538461538"></line><line stroke="#6A6A6A" stroke-width="1.3" x1="0" x2="175.81630399343766" y1="304.8461538461538" y2="304.8461538461538"></line><line stroke="#6A6A6A" stroke-width="1.3" x1="0" x2="175.81630399343766" y1="294.8461538461538" y2="294.8461538461538"></line><line stroke="#6A6A6A" stroke-width="1.3" x1="0" x2="175.81630399343766" y1="284.8461538461538" y2="284.8461538461538"></line><line stroke="#6A6A6A" stroke-width="1.3" x1="0" x2="175.81630399343766" y1="274.8461538461538" y2="274.8461538461538"></line></g><g><path d="M25.200 260.926C24.640 260.926 23.400 261.966 22.600 262.846C19.640 266.126 18.680 271.126 18.680 275.286C18.680 277.606 18.960 280.206 19.240 281.846C19.320 282.326 19.360 282.406 18.880 282.806C16.320 284.926 13.560 287.366 11.480 289.926C8.720 293.366 7 297.086 7 301.366C7 308.326 11.760 314.926 21.560 314.926C22.480 314.926 23.520 314.846 24.320 314.686C24.760 314.606 24.840 314.566 24.920 315.046C25.400 317.726 26 321.206 26 323.086C26 329.006 22 329.726 19.640 329.726C17.480 329.726 16.440 329.086 16.440 328.566C16.440 328.126 16.800 328.166 17.720 327.886C18.960 327.526 20.400 326.446 20.400 324.126C20.400 321.926 19 320.046 16.560 320.046C13.880 320.046 12.280 322.166 12.280 324.646C12.280 327.246 13.840 331.166 19.880 331.166C22.560 331.166 27.760 329.966 27.760 323.166C27.760 320.886 27.040 317.086 26.600 314.606C26.520 314.126 26.560 314.166 27.120 313.926C31.160 312.326 33.840 308.926 33.840 304.406C33.840 299.286 30.080 294.766 24.200 294.766C23.080 294.766 23.200 294.966 23.040 294.046L22.040 288.246C21.960 287.766 22.040 287.726 22.280 287.486C22.920 286.886 23.760 286.046 24.520 285.206C27.880 281.526 29.880 276.766 29.880 272.246C29.880 268.766 28.920 265.326 27.280 262.926C26.680 262.046 25.640 260.926 25.200 260.926ZM20.040 289.086C20.440 288.766 20.520 288.806 20.600 289.246L21.440 294.366C21.560 295.126 21.560 295.086 20.840 295.326C17.320 296.526 15.040 299.686 15.040 303.086C15.040 306.686 16.920 309.246 19.640 310.166C19.960 310.286 20.440 310.406 20.720 310.406C21.040 310.406 21.200 310.206 21.200 309.966C21.200 309.686 20.880 309.566 20.600 309.446C18.920 308.726 17.720 307.006 17.720 305.166C17.720 302.886 19.280 301.166 21.720 300.486C22.360 300.326 22.440 300.366 22.520 300.806L24.520 312.726C24.600 313.166 24.560 313.166 23.960 313.286C23.320 313.406 22.520 313.486 21.720 313.486C14.720 313.486 10.200 309.606 10.200 304.046C10.200 301.686 10.600 298.526 13.920 294.766C16.320 292.086 18.160 290.606 20.040 289.086ZM24.640 300.166C27.880 300.446 30.560 303.166 30.560 306.686C30.560 309.206 29.040 311.246 26.800 312.366C26.320 312.606 26.240 312.606 26.160 312.126L24.200 300.726C24.120 300.246 24.160 300.126 24.640 300.166ZM25.800 267.126C27.120 267.126 28.200 268.206 28.200 270.406C28.200 273.166 26.880 275.726 23.760 278.846C23.120 279.486 22.160 280.406 21.240 281.206C20.960 281.446 20.800 281.406 20.720 280.886C20.560 279.846 20.480 278.486 20.480 277.206C20.480 270.966 23.360 267.126 25.800 267.126Z"></path></g><g></g><text font-family='Alegreya' font-style='italic' text-anchor='end' stroke='#7a7a7a' font-size="24" x="0" y="264.8461538461538">7</text></g><g><line stroke="black" stroke-width="1.6" x1="176.61630399343767" x2="176.61630399343767" y1="274.8461538461538" y2="314.8461538461538"></line></g><g><g><path d="M52.860 300.486C56.860 300.486 61.780 296.766 61.780 292.966C61.780 290.686 59.980 289.206 57.380 289.206C52.460 289.206 48.500 292.846 48.500 296.726C48.500 299.086 50.420 300.486 52.860 300.486Z"></path></g><line stroke="#000000" stroke-width="1.2" x1="49.1" x2="49.1" y1="296.6861538461538" y2="331.6861538461538"></line></g><g><path d="M107.775 293.886L107.775 290.206C107.775 289.606 107.295 289.166 106.735 289.166L97.535 289.166C96.935 289.166 96.495 289.606 96.495 290.206L96.495 293.886C96.495 294.446 96.935 294.926 97.535 294.926L106.735 294.926C107.295 294.926 107.775 294.446 107.775 293.886Z"></path></g></g><g transform="translate(286.2624578395915)"><g><g><line stroke="#6A6A6A" stroke-width="1.3" x1="-16.599999999999966" x2="143.98446215493988" y1="314.8461538461538" y2="314.8461538461538"></line><line stroke="#6A6A6A" stroke-width="1.3" x1="-16.599999999999966" x2="143.98446215493988" y1="304.8461538461538" y2="304.8461538461538"></line><line stroke="#6A6A6A" stroke-width="1.3" x1="-16.599999999999966" x2="143.98446215493988" y1="294.8461538461538" y2="294.8461538461538"></line><line stroke="#6A6A6A" stroke-width="1.3" x1="-16.599999999999966" x2="143.98446215493988" y1="284.8461538461538" y2="284.8461538461538"></line><line stroke="#6A6A6A" stroke-width="1.3" x1="-16.599999999999966" x2="143.98446215493988" y1="274.8461538461538" y2="274.8461538461538"></line></g></g><g><line stroke="black" stroke-width="1.6" x1="144.7844621549399" x2="144.7844621549399" y1="274.8461538461538" y2="314.8461538461538"></line></g><g><g><path d="M4.360 265.486C8.360 265.486 13.280 261.766 13.280 257.966C13.280 255.686 11.480 254.206 8.880 254.206C3.960 254.206 0 257.846 0 261.726C0 264.086 1.920 265.486 4.360 265.486Z"></path></g><line stroke="#000000" stroke-width="1.2" x1="0.6" x2="0.6" y1="261.6861538461538" y2="299.6861538461538"></line><line stroke="#000000" stroke-width="2.2" x1="-3.2" x2="18.72" y1="264.8461538461538" y2="264.8461538461538"></line></g><g><g><path d="M52.355 265.486C56.355 265.486 61.275 261.766 61.275 257.966C61.275 255.686 59.475 254.206 56.875 254.206C51.955 254.206 47.995 257.846 47.995 261.726C47.995 264.086 49.915 265.486 52.355 265.486Z"></path></g><line stroke="#000000" stroke-width="1.2" x1="48.594820718313294" x2="48.594820718313294" y1="261.6861538461538" y2="299.6861538461538"></line><line stroke="#000000" stroke-width="2.2" x1="44.79482071831329" x2="66.71482071831329" y1="264.8461538461538" y2="264.8461538461538"></line></g><g><g><path d="M100.350 265.486C104.350 265.486 109.270 261.766 109.270 257.966C109.270 255.686 107.470 254.206 104.870 254.206C99.950 254.206 95.990 257.846 95.990 261.726C95.990 264.086 97.910 265.486 100.350 265.486Z"></path></g><line stroke="#000000" stroke-width="1.2" x1="96.58964143662658" x2="96.58964143662658" y1="261.6861538461538" y2="299.6861538461538"></line><line stroke="#000000" stroke-width="2.2" x1="92.78964143662658" x2="114.70964143662658" y1="264.8461538461538" y2="264.8461538461538"></line></g></g><g transform="translate(446.84691999453133)"><g><g><line stroke="#6A6A6A" stroke-width="1.3" x1="-16.599999999999966" x2="143.98446215493988" y1="314.8461538461538" y2="314.8461538461538"></line><line stroke="#6A6A6A" stroke-width="1.3" x1="-16.599999999999966" x2="143.98446215493988" y1="304.8461538461538" y2="304.8461538461538"></line><line stroke="#6A6A6A" stroke-width="1.3" x1="-16.599999999999966" x2="143.98446215493988" y1="294.8461538461538" y2="294.8461538461538"></line><line stroke="#6A6A6A" stroke-width="1.3" x1="-16.599999999999966" x2="143.98446215493988" y1="284.8461538461538" y2="284.8461538461538"></line><line stroke="#6A6A6A" stroke-width="1.3" x1="-16.599999999999966" x2="143.98446215493988" y1="274.8461538461538" y2="274.8461538461538"></line></g></g><g><line stroke="black" stroke-width="1.6" x1="144.7844621549399" x2="144.7844621549399" y1="274.8461538461538" y2="314.8461538461538"></line></g><g><g><path d="M4.360 370.486C8.360 370.486 13.280 366.766 13.280 362.966C13.280 360.686 11.480 359.206 8.880 359.206C3.960 359.206 0 362.846 0 366.726C0 369.086 1.920 370.486 4.360 370.486Z"></path></g><line stroke="#000000" stroke-width="1.2" x1="12.680000000000001" x2="12.680000000000001" y1="363.00615384615384" y2="290.00615384615384"></line><line stroke="#000000" stroke-width="2.2" x1="-3.2" x2="18.72" y1="324.8461538461538" y2="324.8461538461538"></line><line stroke="#000000" stroke-width="2.2" x1="-3.2" x2="18.72" y1="334.8461538461538" y2="334.8461538461538"></line><line stroke="#000000" stroke-width="2.2" x1="-3.2" x2="18.72" y1="344.8461538461538" y2="344.8461538461538"></line><line stroke="#000000" stroke-width="2.2" x1="-3.2" x2="18.72" y1="354.8461538461538" y2="354.8461538461538"></line><line stroke="#000000" stroke-width="2.2" x1="-3.2" x2="18.72" y1="364.8461538461538" y2="364.8461538461538"></line></g><g><g><path d="M52.355 370.486C56.355 370.486 61.275 366.766 61.275 362.966C61.275 360.686 59.475 359.206 56.875 359.206C51.955 359.206 47.995 362.846 47.995 366.726C47.995 369.086 49.915 370.486 52.355 370.486Z"></path></g><line stroke="#000000" stroke-width="1.2" x1="60.67482071831329" x2="60.67482071831329" y1="363.00615384615384" y2="290.00615384615384"></line><line stroke="#000000" stroke-width="2.2" x1="44.79482071831329" x2="66.71482071831329" y1="324.8461538461538" y2="324.8461538461538"></line><line stroke="#000000" stroke-width="2.2" x1="44.79482071831329" x2="66.71482071831329" y1="334.8461538461538" y2="334.8461538461538"></line><line stroke="#000000" stroke-width="2.2" x1="44.79482071831329" x2="66.71482071831329" y1="344.8461538461538" y2="344.8461538461538"></line><line stroke="#000000" stroke-width="2.2" x1="44.79482071831329" x2="66.71482071831329" y1="354.8461538461538" y2="354.8461538461538"></line><line stroke="#000000" stroke-width="2.2" x1="44.79482071831329" x2="66.71482071831329" y1="364.8461538461538" y2="364.8461538461538"></line></g><g><g><path d="M100.350 370.486C104.350 370.486 109.270 366.766 109.270 362.966C109.270 360.686 107.470 359.206 104.870 359.206C99.950 359.206 95.990 362.846 95.990 366.726C95.990 369.086 97.910 370.486 100.350 370.486Z"></path></g><line stroke="#000000" stroke-width="1.2" x1="108.66964143662659" x2="108.66964143662659" y1="363.00615384615384" y2="290.00615384615384"></line><line stroke="#000000" stroke-width="2.2" x1="92.78964143662658" x2="114.70964143662658" y1="324.8461538461538" y2="324.8461538461538"></line><line stroke="#000000" stroke-width="2.2" x1="92.78964143662658" x2="114.70964143662658" y1="334.8461538461538" y2="334.8461538461538"></line><line stroke="#000000" stroke-width="2.2" x1="92.78964143662658" x2="114.70964143662658" y1="344.8461538461538" y2="344.8461538461538"></line><line stroke="#000000" stroke-width="2.2" x1="92.78964143662658" x2="114.70964143662658" y1="354.8461538461538" y2="354.8461538461538"></line><line stroke="#000000" stroke-width="2.2" x1="92.78964143662658" x2="114.70964143662658" y1="364.8461538461538" y2="364.8461538461538"></line></g></g><g transform="translate(607.4313821494712)"><g><g><line stroke="#6A6A6A" stroke-width="1.3" x1="-16.599999999999966" x2="143.98446215493982" y1="314.8461538461538" y2="314.8461538461538"></line><line stroke="#6A6A6A" stroke-width="1.3" x1="-16.599999999999966" x2="143.98446215493982" y1="304.8461538461538" y2="304.8461538461538"></line><line stroke="#6A6A6A" stroke-width="1.3" x1="-16.599999999999966" x2="143.98446215493982" y1="294.8461538461538" y2="294.8461538461538"></line><line stroke="#6A6A6A" stroke-width="1.3" x1="-16.599999999999966" x2="143.98446215493982" y1="284.8461538461538" y2="284.8461538461538"></line><line stroke="#6A6A6A" stroke-width="1.3" x1="-16.599999999999966" x2="143.98446215493982" y1="274.8461538461538" y2="274.8461538461538"></line></g></g><g><line stroke="black" stroke-width="1.6" x1="144.7844621549399" x2="144.7844621549399" y1="274.8461538461538" y2="314.8461538461538"></line></g><g><g><path d="M4.360 300.486C8.360 300.486 13.280 296.766 13.280 292.966C13.280 290.686 11.480 289.206 8.880 289.206C3.960 289.206 0 292.846 0 296.726C0 299.086 1.920 300.486 4.360 300.486Z"></path></g><line stroke="#000000" stroke-width="1.2" x1="0.6" x2="0.6" y1="296.6861538461538" y2="331.6861538461538"></line></g><g><g><path d="M52.355 300.486C56.355 300.486 61.275 296.766 61.275 292.966C61.275 290.686 59.475 289.206 56.875 289.206C51.955 289.206 47.995 292.846 47.995 296.726C47.995 299.086 49.915 300.486 52.355 300.486Z"></path></g><line stroke="#000000" stroke-width="1.2" x1="48.594820718313294" x2="48.594820718313294" y1="296.6861538461538" y2="331.6861538461538"></line></g><g><g><path d="M100.350 300.486C104.350 300.486 109.270 296.766 109.270 292.966C109.270 290.686 107.470 289.206 104.870 289.206C99.950 289.206 95.990 292.846 95.990 296.726C95.990 299.086 97.910 300.486 100.350 300.486Z"></path></g><line stroke="#000000" stroke-width="1.2" x1="96.58964143662658" x2="96.58964143662658" y1="296.6861538461538" y2="331.6861538461538"></line></g></g><g transform="translate(768.0158443044111)"><g><g><line stroke="#6A6A6A" stroke-width="1.3" x1="-16.600000000000023" x2="143.98446215493993" y1="314.8461538461538" y2="314.8461538461538"></line><line stroke="#6A6A6A" stroke-width="1.3" x1="-16.600000000000023" x2="143.98446215493993" y1="304.8461538461538" y2="304.8461538461538"></line><line stroke="#6A6A6A" stroke-width="1.3" x1="-16.600000000000023" x2="143.98446215493993" y1="294.8461538461538" y2="294.8461538461538"></line><line stroke="#6A6A6A" stroke-width="1.3" x1="-16.600000000000023" x2="143.98446215493993" y1="284.8461538461538" y2="284.8461538461538"></line><line stroke="#6A6A6A" stroke-width="1.3" x1="-16.600000000000023" x2="143.98446215493993" y1="274.8461538461538" y2="274.8461538461538"></line></g></g><g><line stroke="black" stroke-width="1.6" x1="144.7844621549399" x2="144.7844621549399" y1="274.8461538461538" y2="314.8461538461538"></line></g><g><g><path d="M4.360 300.486C8.360 300.486 13.280 296.766 13.280 292.966C13.280 290.686 11.480 289.206 8.880 289.206C3.960 289.206 0 292.846 0 296.726C0 299.086 1.920 300.486 4.360 300.486Z"></path></g><line stroke="#000000" stroke-width="1.2" x1="0.6" x2="0.6" y1="296.6861538461538" y2="331.6861538461538"></line></g><g><g><path d="M52.355 300.486C56.355 300.486 61.275 296.766 61.275 292.966C61.275 290.686 59.475 289.206 56.875 289.206C51.955 289.206 47.995 292.846 47.995 296.726C47.995 299.086 49.915 300.486 52.355 300.486Z"></path></g><line stroke="#000000" stroke-width="1.2" x1="48.594820718313294" x2="48.594820718313294" y1="296.6861538461538" y2="331.6861538461538"></line></g><g><g><path d="M100.350 300.486C104.350 300.486 109.270 296.766 109.270 292.966C109.270 290.686 107.470 289.206 104.870 289.206C99.950 289.206 95.990 292.846 95.990 296.726C95.990 299.086 97.910 300.486 100.350 300.486Z"></path></g><line stroke="#000000" stroke-width="1.2" x1="96.58964143662658" x2="96.58964143662658" y1="296.6861538461538" y2="331.6861538461538"></line></g></g><g transform="translate(928.600306459351)"><g><g><line stroke="#6A6A6A" stroke-width="1.3" x1="-16.59999999999991" x2="143.98446215493982" y1="314.8461538461538" y2="314.8461538461538"></line><line stroke="#6A6A6A" stroke-width="1.3" x1="-16.59999999999991" x2="143.98446215493982" y1="304.8461538461538" y2="304.8461538461538"></line><line stroke="#6A6A6A" stroke-width="1.3" x1="-16.59999999999991" x2="143.98446215493982" y1="294.8461538461538" y2="294.8461538461538"></line><line stroke="#6A6A6A" stroke-width="1.3" x1="-16.59999999999991" x2="143.98446215493982" y1="284.8461538461538" y2="284.8461538461538"></line><line stroke="#6A6A6A" stroke-width="1.3" x1="-16.59999999999991" x2="143.98446215493982" y1="274.8461538461538" y2="274.8461538461538"></line></g></g><g><line stroke="black" stroke-width="1.6" x1="144.7844621549399" x2="144.7844621549399" y1="274.8461538461538" y2="314.8461538461538"></line></g><g><g><path d="M4.360 300.486C8.360 300.486 13.280 296.766 13.280 292.966C13.280 290.686 11.480 289.206 8.880 289.206C3.960 289.206 0 292.846 0 296.726C0 299.086 1.920 300.486 4.360 300.486Z"></path></g><line stroke="#000000" stroke-width="1.2" x1="0.6" x2="0.6" y1="296.6861538461538" y2="331.6861538461538"></line></g><g><g><path d="M52.355 300.486C56.355 300.486 61.275 296.766 61.275 292.966C61.275 290.686 59.475 289.206 56.875 289.206C51.955 289.206 47.995 292.846 47.995 296.726C47.995 299.086 49.915 300.486 52.355 300.486Z"></path></g><line stroke="#000000" stroke-width="1.2" x1="48.594820718313294" x2="48.594820718313294" y1="296.6861538461538" y2="331.6861538461538"></line></g><g><g><path d="M100.350 300.486C104.350 300.486 109.270 296.766 109.270 292.966C109.270 290.686 107.470 289.206 104.870 289.206C99.950 289.206 95.990 292.846 95.990 296.726C95.990 299.086 97.910 300.486 100.350 300.486Z"></path></g><line stroke="#000000" stroke-width="1.2" x1="96.58964143662658" x2="96.58964143662658" y1="296.6861538461538" y2="331.6861538461538"></line></g></g><g transform="translate(1089.184768614291)"><g><g><line stroke="#6A6A6A" stroke-width="1.3" x1="-16.600000000000023" x2="145.58446215493984" y1="314.8461538461538" y2="314.8461538461538"></line><line stroke="#6A6A6A" stroke-width="1.3" x1="-16.600000000000023" x2="145.58446215493984" y1="304.8461538461538" y2="304.8461538461538"></line><line stroke="#6A6A6A" stroke-width="1.3" x1="-16.600000000000023" x2="145.58446215493984" y1="294.8461538461538" y2="294.8461538461538"></line><line stroke="#6A6A6A" stroke-width="1.3" x1="-16.600000000000023" x2="145.58446215493984" y1="284.8461538461538" y2="284.8461538461538"></line><line stroke="#6A6A6A" stroke-width="1.3" x1="-16.600000000000023" x2="145.58446215493984" y1="274.8461538461538" y2="274.8461538461538"></line></g></g><g><line stroke="black" stroke-width="1.6" x1="144.7844621549399" x2="144.7844621549399" y1="274.8461538461538" y2="314.8461538461538"></line></g><g><g><path d="M4.360 300.486C8.360 300.486 13.280 296.766 13.280 292.966C13.280 290.686 11.480 289.206 8.880 289.206C3.960 289.206 0 292.846 0 296.726C0 299.086 1.920 300.486 4.360 300.486Z"></path></g><line stroke="#000000" stroke-width="1.2" x1="0.6" x2="0.6" y1="296.6861538461538" y2="331.6861538461538"></line></g><g><g><path d="M52.355 300.486C56.355 300.486 61.275 296.766 61.275 292.966C61.275 290.686 59.475 289.206 56.875 289.206C51.955 289.206 47.995 292.846 47.995 296.726C47.995 299.086 49.915 300.486 52.355 300.486Z"></path></g><line stroke="#000000" stroke-width="1.2" x1="48.594820718313294" x2="48.594820718313294" y1="296.6861538461538" y2="331.6861538461538"></line></g><g><g><path d="M100.350 300.486C104.350 300.486 109.270 296.766 109.270 292.966C109.270 290.686 107.470 289.206 104.870 289.206C99.950 289.206 95.990 292.846 95.990 296.726C95.990 299.086 97.910 300.486 100.350 300.486Z"></path></g><line stroke="#000000" stroke-width="1.2" x1="96.58964143662658" x2="96.58964143662658" y1="296.6861538461538" y2="331.6861538461538"></line></g></g><g transform="translate(93.84615384615385)"><g><g><line stroke="#6A6A6A" stroke-width="1.3" x1="0" x2="190.10329670329668" y1="490.8461538461538" y2="490.8461538461538"></line><line stroke="#6A6A6A" stroke-width="1.3" x1="0" x2="190.10329670329668" y1="480.8461538461538" y2="480.8461538461538"></line><line stroke="#6A6A6A" stroke-width="1.3" x1="0" x2="190.10329670329668" y1="470.8461538461538" y2="470.8461538461538"></line><line stroke="#6A6A6A" stroke-width="1.3" x1="0" x2="190.10329670329668" y1="460.8461538461538" y2="460.8461538461538"></line><line stroke="#6A6A6A" stroke-width="1.3" x1="0" x2="190.10329670329668" y1="450.8461538461538" y2="450.8461538461538"></line></g><g><path d="M25.200 436.926C24.640 436.926 23.400 437.966 22.600 438.846C19.640 442.126 18.680 447.126 18.680 451.286C18.680 453.606 18.960 456.206 19.240 457.846C19.320 458.326 19.360 458.406 18.880 458.806C16.320 460.926 13.560 463.366 11.480 465.926C8.720 469.366 7 473.086 7 477.366C7 484.326 11.760 490.926 21.560 490.926C22.480 490.926 23.520 490.846 24.320 490.686C24.760 490.606 24.840 490.566 24.920 491.046C25.400 493.726 26 497.206 26 499.086C26 505.006 22 505.726 19.640 505.726C17.480 505.726 16.440 505.086 16.440 504.566C16.440 504.126 16.800 504.166 17.720 503.886C18.960 503.526 20.400 502.446 20.400 500.126C20.400 497.926 19 496.046 16.560 496.046C13.880 496.046 12.280 498.166 12.280 500.646C12.280 503.246 13.840 507.166 19.880 507.166C22.560 507.166 27.760 505.966 27.760 499.166C27.760 496.886 27.040 493.086 26.600 490.606C26.520 490.126 26.560 490.166 27.120 489.926C31.160 488.326 33.840 484.926 33.840 480.406C33.840 475.286 30.080 470.766 24.200 470.766C23.080 470.766 23.200 470.966 23.040 470.046L22.040 464.246C21.960 463.766 22.040 463.726 22.280 463.486C22.920 462.886 23.760 462.046 24.520 461.206C27.880 457.526 29.880 452.766 29.880 448.246C29.880 444.766 28.920 441.326 27.280 438.926C26.680 438.046 25.640 436.926 25.200 436.926ZM20.040 465.086C20.440 464.766 20.520 464.806 20.600 465.246L21.440 470.366C21.560 471.126 21.560 471.086 20.840 471.326C17.320 472.526 15.040 475.686 15.040 479.086C15.040 482.686 16.920 485.246 19.640 486.166C19.960 486.286 20.440 486.406 20.720 486.406C21.040 486.406 21.200 486.206 21.200 485.966C21.200 485.686 20.880 485.566 20.600 485.446C18.920 484.726 17.720 483.006 17.720 481.166C17.720 478.886 19.280 477.166 21.720 476.486C22.360 476.326 22.440 476.366 22.520 476.806L24.520 488.726C24.600 489.166 24.560 489.166 23.960 489.286C23.320 489.406 22.520 489.486 21.720 489.486C14.720 489.486 10.200 485.606 10.200 480.046C10.200 477.686 10.600 474.526 13.920 470.766C16.320 468.086 18.160 466.606 20.040 465.086ZM24.640 476.166C27.880 476.446 30.560 479.166 30.560 482.686C30.560 485.206 29.040 487.246 26.800 488.366C26.320 488.606 26.240 488.606 26.160 488.126L24.200 476.726C24.120 476.246 24.160 476.126 24.640 476.166ZM25.800 443.126C27.120 443.126 28.200 444.206 28.200 446.406C28.200 449.166 26.880 451.726 23.760 454.846C23.120 455.486 22.160 456.406 21.240 457.206C20.960 457.446 20.800 457.406 20.720 456.886C20.560 455.846 20.480 454.486 20.480 453.206C20.480 446.966 23.360 443.126 25.800 443.126Z"></path></g><g></g><text font-family='Alegreya' font-style='italic' text-anchor='end' stroke='#7a7a7a' font-size="24" x="0" y="440.8461538461538">14</text></g><g><line stroke="black" stroke-width="1.6" x1="190.9032967032967" x2="190.9032967032967" y1="450.8461538461538" y2="490.8461538461538"></line></g><g><g><path d="M52.860 476.486C56.860 476.486 61.780 472.766 61.780 468.966C61.780 466.686 59.980 465.206 57.380 465.206C52.460 465.206 48.500 468.846 48.500 472.726C48.500 475.086 50.420 476.486 52.860 476.486Z"></path></g><line stroke="#000000" stroke-width="1.2" x1="49.1" x2="49.1" y1="472.6861538461538" y2="507.6861538461538"></line></g><g><g><path d="M100.061 476.486C104.061 476.486 108.981 472.766 108.981 468.966C108.981 466.686 107.181 465.206 104.581 465.206C99.661 465.206 95.701 468.846 95.701 472.726C95.701 475.086 97.621 476.486 100.061 476.486Z"></path></g><line stroke="#000000" stroke-width="1.2" x1="96.3010989010989" x2="96.3010989010989" y1="472.6861538461538" y2="507.6861538461538"></line></g><g><g><path d="M147.262 476.486C151.262 476.486 156.182 472.766 156.182 468.966C156.182 466.686 154.382 465.206 151.782 465.206C146.862 465.206 142.902 468.846 142.902 472.726C142.902 475.086 144.822 476.486 147.262 476.486Z"></path></g><line stroke="#000000" stroke-width="1.2" x1="143.5021978021978" x2="143.5021978021978" y1="472.6861538461538" y2="507.6861538461538"></line></g></g><g transform="translate(300.54945054945057)"><g><g><line stroke="#6A6A6A" stroke-width="1.3" x1="-16.600000000000023" x2="141.60329670329668" y1="490.8461538461538" y2="490.8461538461538"></line><line stroke="#6A6A6A" stroke-width="1.3" x1="-16.600000000000023" x2="141.60329670329668" y1="480.8461538461538" y2="480.8461538461538"></line><line stroke="#6A6A6A" stroke-width="1.3" x1="-16.600000000000023" x2="141.60329670329668" y1="470.8461538461538" y2="470.8461538461538"></line><line stroke="#6A6A6A" stroke-width="1.3" x1="-16.600000000000023" x2="141.60329670329668" y1="460.8461538461538" y2="460.8461538461538"></line><line stroke="#6A6A6A" stroke-width="1.3" x1="-16.600000000000023" x2="141.60329670329668" y1="450.8461538461538" y2="450.8461538461538"></line></g></g><g><line stroke="black" stroke-width="1.6" x1="142.40329670329672" x2="142.40329670329672" y1="450.8461538461538" y2="490.8461538461538"></line></g><g><g><path d="M4.360 476.486C8.360 476.486 13.280 472.766 13.280 468.966C13.280 466.686 11.480 465.206 8.880 465.206C3.960 465.206 0 468.846 0 472.726C0 475.086 1.920 476.486 4.360 476.486Z"></path></g><line stroke="#000000" stroke-width="1.2" x1="0.6" x2="0.6" y1="472.6861538461538" y2="507.6861538461538"></line></g><g><g><path d="M51.561 476.486C55.561 476.486 60.481 472.766 60.481 468.966C60.481 466.686 58.681 465.206 56.081 465.206C51.161 465.206 47.201 468.846 47.201 472.726C47.201 475.086 49.121 476.486 51.561 476.486Z"></path></g><line stroke="#000000" stroke-width="1.2" x1="47.801098901098904" x2="47.801098901098904" y1="472.6861538461538" y2="507.6861538461538"></line></g><g><g><path d="M98.762 476.486C102.762 476.486 107.682 472.766 107.682 468.966C107.682 466.686 105.882 465.206 103.282 465.206C98.362 465.206 94.402 468.846 94.402 472.726C94.402 475.086 96.322 476.486 98.762 476.486Z"></path></g><line stroke="#000000" stroke-width="1.2" x1="95.0021978021978" x2="95.0021978021978" y1="472.6861538461538" y2="507.6861538461538"></line></g></g><g transform="translate(458.75274725274727)"><g><g><line stroke="#6A6A6A" stroke-width="1.3" x1="-16.600000000000023" x2="141.60329670329668" y1="490.8461538461538" y2="490.8461538461538"></line><line stroke="#6A6A6A" stroke-width="1.3" x1="-16.600000000000023" x2="141.60329670329668" y1="480.8461538461538" y2="480.8461538461538"></line><line stroke="#6A6A6A" stroke-width="1.3" x1="-16.600000000000023" x2="141.60329670329668" y1="470.8461538461538" y2="470.8461538461538"></line><line stroke="#6A6A6A" stroke-width="1.3" x1="-16.600000000000023" x2="141.60329670329668" y1="460.8461538461538" y2="460.8461538461538"></line><line stroke="#6A6A6A" stroke-width="1.3" x1="-16.600000000000023" x2="141.60329670329668" y1="450.8461538461538" y2="450.8461538461538"></line></g></g><g><line stroke="black" stroke-width="1.6" x1="142.40329670329672" x2="142.40329670329672" y1="450.8461538461538" y2="490.8461538461538"></line></g><g><g><path d="M4.360 476.486C8.360 476.486 13.280 472.766 13.280 468.966C13.280 466.686 11.480 465.206 8.880 465.206C3.960 465.206 0 468.846 0 472.726C0 475.086 1.920 476.486 4.360 476.486Z"></path></g><line stroke="#000000" stroke-width="1.2" x1="0.6" x2="0.6" y1="472.6861538461538" y2="507.6861538461538"></line></g><g><g><path d="M51.561 456.486C55.561 456.486 60.481 452.766 60.481 448.966C60.481 446.686 58.681 445.206 56.081 445.206C51.161 445.206 47.201 448.846 47.201 452.726C47.201 455.086 49.121 456.486 51.561 456.486Z"></path></g><line stroke="#000000" stroke-width="1.2" x1="47.801098901098904" x2="47.801098901098904" y1="452.6861538461538" y2="487.6861538461538"></line></g><g><path d="M103.722 477.286C102.202 475.446 100.962 473.966 100.962 471.726C100.962 471.566 101.002 471.366 101.002 471.206C101.162 468.886 102.602 466.966 103.642 465.326C103.762 465.126 103.802 464.926 103.802 464.726C103.802 464.326 103.642 463.966 103.642 463.966C103.642 463.966 97.722 456.926 97.042 456.246C96.842 456.046 96.562 455.926 96.322 455.926C95.922 455.926 95.522 456.206 95.522 456.766C95.522 456.966 95.562 457.166 95.682 457.406C95.842 457.846 98.122 459.886 98.122 462.766C98.122 464.246 97.522 465.966 95.722 467.846C95.322 468.246 95.162 468.686 95.162 469.006C95.162 469.566 95.562 469.966 95.562 469.966L97.522 472.366C98.162 473.166 98.722 473.926 99.242 474.766C99.322 474.926 99.482 475.126 99.482 475.326C99.482 475.366 99.482 475.446 99.442 475.486C99.362 475.646 99.202 475.686 99.002 475.686C98.762 475.686 98.522 475.606 98.362 475.566C98.162 475.566 97.922 475.446 97.722 475.446C96.002 475.446 94.442 477.166 94.442 479.286C94.442 481.286 96.162 483.246 99.082 485.486C99.402 485.726 99.802 485.846 100.122 485.846C100.402 485.846 100.682 485.766 100.722 485.606C100.762 485.486 100.802 485.406 100.802 485.326C100.802 484.966 100.482 484.646 100.162 484.366C99.642 484.366 99.202 483.286 99.122 482.926C99.002 482.606 98.962 482.246 98.962 481.886C98.962 480.646 99.562 479.246 100.842 479.006C101.042 478.966 101.242 478.966 101.482 478.966C102.642 478.966 103.962 479.406 104.602 479.646C104.642 479.646 104.682 479.686 104.722 479.686C104.842 479.726 104.922 479.726 105.002 479.726C105.122 479.726 105.202 479.686 105.202 479.566C105.202 479.086 104.162 477.766 103.722 477.286Z"></path></g></g><g transform="translate(616.9560439560439)"><g><g><line stroke="#6A6A6A" stroke-width="1.3" x1="-16.600000000000023" x2="141.60329670329668" y1="490.8461538461538" y2="490.8461538461538"></line><line stroke="#6A6A6A" stroke-width="1.3" x1="-16.600000000000023" x2="141.60329670329668" y1="480.8461538461538" y2="480.8461538461538"></line><line stroke="#6A6A6A" stroke-width="1.3" x1="-16.600000000000023" x2="141.60329670329668" y1="470.8461538461538" y2="470.8461538461538"></line><line stroke="#6A6A6A" stroke-width="1.3" x1="-16.600000000000023" x2="141.60329670329668" y1="460.8461538461538" y2="460.8461538461538"></line><line stroke="#6A6A6A" stroke-width="1.3" x1="-16.600000000000023" x2="141.60329670329668" y1="450.8461538461538" y2="450.8461538461538"></line></g></g><g><line stroke="black" stroke-width="1.6" x1="142.40329670329672" x2="142.40329670329672" y1="450.8461538461538" y2="490.8461538461538"></line></g><g><g><path d="M4.360 476.486C8.360 476.486 13.280 472.766 13.280 468.966C13.280 466.686 11.480 465.206 8.880 465.206C3.960 465.206 0 468.846 0 472.726C0 475.086 1.920 476.486 4.360 476.486Z"></path></g><line stroke="#000000" stroke-width="1.2" x1="0.6" x2="0.6" y1="472.6861538461538" y2="507.6861538461538"></line></g><g><g><path d="M51.561 471.486C55.561 471.486 60.481 467.766 60.481 463.966C60.481 461.686 58.681 460.206 56.081 460.206C51.161 460.206 47.201 463.846 47.201 467.726C47.201 470.086 49.121 471.486 51.561 471.486Z"></path></g><line stroke="#000000" stroke-width="1.2" x1="47.801098901098904" x2="47.801098901098904" y1="467.6861538461538" y2="505.6861538461538"></line></g><g><path d="M103.722 477.286C102.202 475.446 100.962 473.966 100.962 471.726C100.962 471.566 101.002 471.366 101.002 471.206C101.162 468.886 102.602 466.966 103.642 465.326C103.762 465.126 103.802 464.926 103.802 464.726C103.802 464.326 103.642 463.966 103.642 463.966C103.642 463.966 97.722 456.926 97.042 456.246C96.842 456.046 96.562 455.926 96.322 455.926C95.922 455.926 95.522 456.206 95.522 456.766C95.522 456.966 95.562 457.166 95.682 457.406C95.842 457.846 98.122 459.886 98.122 462.766C98.122 464.246 97.522 465.966 95.722 467.846C95.322 468.246 95.162 468.686 95.162 469.006C95.162 469.566 95.562 469.966 95.562 469.966L97.522 472.366C98.162 473.166 98.722 473.926 99.242 474.766C99.322 474.926 99.482 475.126 99.482 475.326C99.482 475.366 99.482 475.446 99.442 475.486C99.362 475.646 99.202 475.686 99.002 475.686C98.762 475.686 98.522 475.606 98.362 475.566C98.162 475.566 97.922 475.446 97.722 475.446C96.002 475.446 94.442 477.166 94.442 479.286C94.442 481.286 96.162 483.246 99.082 485.486C99.402 485.726 99.802 485.846 100.122 485.846C100.402 485.846 100.682 485.766 100.722 485.606C100.762 485.486 100.802 485.406 100.802 485.326C100.802 484.966 100.482 484.646 100.162 484.366C99.642 484.366 99.202 483.286 99.122 482.926C99.002 482.606 98.962 482.246 98.962 481.886C98.962 480.646 99.562 479.246 100.842 479.006C101.042 478.966 101.242 478.966 101.482 478.966C102.642 478.966 103.962 479.406 104.602 479.646C104.642 479.646 104.682 479.686 104.722 479.686C104.842 479.726 104.922 479.726 105.002 479.726C105.122 479.726 105.202 479.686 105.202 479.566C105.202 479.086 104.162 477.766 103.722 477.286Z"></path></g></g><g transform="translate(775.1593406593406)"><g><g><line stroke="#6A6A6A" stroke-width="1.3" x1="-16.600000000000023" x2="141.60329670329668" y1="490.8461538461538" y2="490.8461538461538"></line><line stroke="#6A6A6A" stroke-width="1.3" x1="-16.600000000000023" x2="141.60329670329668" y1="480.8461538461538" y2="480.8461538461538"></line><line stroke="#6A6A6A" stroke-width="1.3" x1="-16.600000000000023" x2="141.60329670329668" y1="470.8461538461538" y2="470.8461538461538"></line><line stroke="#6A6A6A" stroke-width="1.3" x1="-16.600000000000023" x2="141.60329670329668" y1="460.8461538461538" y2="460.8461538461538"></line><line stroke="#6A6A6A" stroke-width="1.3" x1="-16.600000000000023" x2="141.60329670329668" y1="450.8461538461538" y2="450.8461538461538"></line></g></g><g><line stroke="black" stroke-width="1.6" x1="142.40329670329672" x2="142.40329670329672" y1="450.8461538461538" y2="490.8461538461538"></line></g><g><g><path d="M4.360 476.486C8.360 476.486 13.280 472.766 13.280 468.966C13.280 466.686 11.480 465.206 8.880 465.206C3.960 465.206 0 468.846 0 472.726C0 475.086 1.920 476.486 4.360 476.486Z"></path></g><line stroke="#000000" stroke-width="1.2" x1="12.680000000000001" x2="12.680000000000001" y1="469.00615384615384" y2="434.00615384615384"></line></g><g><g><path d="M51.561 506.486C55.561 506.486 60.481 502.766 60.481 498.966C60.481 496.686 58.681 495.206 56.081 495.206C51.161 495.206 47.201 498.846 47.201 502.726C47.201 505.086 49.121 506.486 51.561 506.486Z"></path></g><line stroke="#000000" stroke-width="1.2" x1="59.8810989010989" x2="59.8810989010989" y1="499.00615384615384" y2="464.00615384615384"></line><line stroke="#000000" stroke-width="2.2" x1="44.0010989010989" x2="65.9210989010989" y1="500.8461538461538" y2="500.8461538461538"></line></g><g><path d="M103.722 477.286C102.202 475.446 100.962 473.966 100.962 471.726C100.962 471.566 101.002 471.366 101.002 471.206C101.162 468.886 102.602 466.966 103.642 465.326C103.762 465.126 103.802 464.926 103.802 464.726C103.802 464.326 103.642 463.966 103.642 463.966C103.642 463.966 97.722 456.926 97.042 456.246C96.842 456.046 96.562 455.926 96.322 455.926C95.922 455.926 95.522 456.206 95.522 456.766C95.522 456.966 95.562 457.166 95.682 457.406C95.842 457.846 98.122 459.886 98.122 462.766C98.122 464.246 97.522 465.966 95.722 467.846C95.322 468.246 95.162 468.686 95.162 469.006C95.162 469.566 95.562 469.966 95.562 469.966L97.522 472.366C98.162 473.166 98.722 473.926 99.242 474.766C99.322 474.926 99.482 475.126 99.482 475.326C99.482 475.366 99.482 475.446 99.442 475.486C99.362 475.646 99.202 475.686 99.002 475.686C98.762 475.686 98.522 475.606 98.362 475.566C98.162 475.566 97.922 475.446 97.722 475.446C96.002 475.446 94.442 477.166 94.442 479.286C94.442 481.286 96.162 483.246 99.082 485.486C99.402 485.726 99.802 485.846 100.122 485.846C100.402 485.846 100.682 485.766 100.722 485.606C100.762 485.486 100.802 485.406 100.802 485.326C100.802 484.966 100.482 484.646 100.162 484.366C99.642 484.366 99.202 483.286 99.122 482.926C99.002 482.606 98.962 482.246 98.962 481.886C98.962 480.646 99.562 479.246 100.842 479.006C101.042 478.966 101.242 478.966 101.482 478.966C102.642 478.966 103.962 479.406 104.602 479.646C104.642 479.646 104.682 479.686 104.722 479.686C104.842 479.726 104.922 479.726 105.002 479.726C105.122 479.726 105.202 479.686 105.202 479.566C105.202 479.086 104.162 477.766 103.722 477.286Z"></path></g></g><g transform="translate(933.3626373626373)"><g><g><line stroke="#6A6A6A" stroke-width="1.3" x1="-16.600000000000023" x2="141.60329670329668" y1="490.8461538461538" y2="490.8461538461538"></line><line stroke="#6A6A6A" stroke-width="1.3" x1="-16.600000000000023" x2="141.60329670329668" y1="480.8461538461538" y2="480.8461538461538"></line><line stroke="#6A6A6A" stroke-width="1.3" x1="-16.600000000000023" x2="141.60329670329668" y1="470.8461538461538" y2="470.8461538461538"></line><line stroke="#6A6A6A" stroke-width="1.3" x1="-16.600000000000023" x2="141.60329670329668" y1="460.8461538461538" y2="460.8461538461538"></line><line stroke="#6A6A6A" stroke-width="1.3" x1="-16.600000000000023" x2="141.60329670329668" y1="450.8461538461538" y2="450.8461538461538"></line></g></g><g><line stroke="black" stroke-width="1.6" x1="142.40329670329672" x2="142.40329670329672" y1="450.8461538461538" y2="490.8461538461538"></line></g><g><g><path d="M4.360 476.486C8.360 476.486 13.280 472.766 13.280 468.966C13.280 466.686 11.480 465.206 8.880 465.206C3.960 465.206 0 468.846 0 472.726C0 475.086 1.920 476.486 4.360 476.486Z"></path></g><line stroke="#000000" stroke-width="1.2" x1="0.6" x2="0.6" y1="472.6861538461538" y2="507.6861538461538"></line></g><g><g><path d="M51.561 476.486C55.561 476.486 60.481 472.766 60.481 468.966C60.481 466.686 58.681 465.206 56.081 465.206C51.161 465.206 47.201 468.846 47.201 472.726C47.201 475.086 49.121 476.486 51.561 476.486Z"></path></g><line stroke="#000000" stroke-width="1.2" x1="47.801098901098904" x2="47.801098901098904" y1="472.6861538461538" y2="507.6861538461538"></line></g><g><g><path d="M98.762 476.486C102.762 476.486 107.682 472.766 107.682 468.966C107.682 466.686 105.882 465.206 103.282 465.206C98.362 465.206 94.402 468.846 94.402 472.726C94.402 475.086 96.322 476.486 98.762 476.486Z"></path></g><line stroke="#000000" stroke-width="1.2" x1="95.0021978021978" x2="95.0021978021978" y1="472.6861538461538" y2="507.6861538461538"></line></g></g><g transform="translate(1091.565934065934)"><g><g><line stroke="#6A6A6A" stroke-width="1.3" x1="-16.600000000000023" x2="143.2032967032967" y1="490.8461538461538" y2="490.8461538461538"></line><line stroke="#6A6A6A" stroke-width="1.3" x1="-16.600000000000023" x2="143.2032967032967" y1="480.8461538461538" y2="480.8461538461538"></line><line stroke="#6A6A6A" stroke-width="1.3" x1="-16.600000000000023" x2="143.2032967032967" y1="470.8461538461538" y2="470.8461538461538"></line><line stroke="#6A6A6A" stroke-width="1.3" x1="-16.600000000000023" x2="143.2032967032967" y1="460.8461538461538" y2="460.8461538461538"></line><line stroke="#6A6A6A" stroke-width="1.3" x1="-16.600000000000023" x2="143.2032967032967" y1="450.8461538461538" y2="450.8461538461538"></line></g></g><g><line stroke="black" stroke-width="1.6" x1="142.40329670329672" x2="142.40329670329672" y1="450.8461538461538" y2="490.8461538461538"></line></g><g><g><path d="M4.360 476.486C8.360 476.486 13.280 472.766 13.280 468.966C13.280 466.686 11.480 465.206 8.880 465.206C3.960 465.206 0 468.846 0 472.726C0 475.086 1.920 476.486 4.360 476.486Z"></path></g><g><line stroke="#000000" stroke-width="1.2" x1="0.6" x2="0.6" y1="472.6861538461538" y2="507.6861538461538"></line><path d="M6.560 496.366L6.560 491.366L-5.440 493.846L-5.440 498.846ZM6.560 498.806L-5.440 501.326L-5.440 506.326L6.560 503.806Z"></path></g></g><g><g><path d="M51.561 476.486C55.561 476.486 60.481 472.766 60.481 468.966C60.481 466.686 58.681 465.206 56.081 465.206C51.161 465.206 47.201 468.846 47.201 472.726C47.201 475.086 49.121 476.486 51.561 476.486Z"></path></g><g><line stroke="#000000" stroke-width="1.2" x1="47.801098901098904" x2="47.801098901098904" y1="472.6861538461538" y2="507.6861538461538"></line><path d="M53.761 496.366L53.761 491.366L41.761 493.846L41.761 498.846ZM53.761 498.806L41.761 501.326L41.761 506.326L53.761 503.806Z"></path></g></g><g><path d="M103.722 477.286C102.202 475.446 100.962 473.966 100.962 471.726C100.962 471.566 101.002 471.366 101.002 471.206C101.162 468.886 102.602 466.966 103.642 465.326C103.762 465.126 103.802 464.926 103.802 464.726C103.802 464.326 103.642 463.966 103.642 463.966C103.642 463.966 97.722 456.926 97.042 456.246C96.842 456.046 96.562 455.926 96.322 455.926C95.922 455.926 95.522 456.206 95.522 456.766C95.522 456.966 95.562 457.166 95.682 457.406C95.842 457.846 98.122 459.886 98.122 462.766C98.122 464.246 97.522 465.966 95.722 467.846C95.322 468.246 95.162 468.686 95.162 469.006C95.162 469.566 95.562 469.966 95.562 469.966L97.522 472.366C98.162 473.166 98.722 473.926 99.242 474.766C99.322 474.926 99.482 475.126 99.482 475.326C99.482 475.366 99.482 475.446 99.442 475.486C99.362 475.646 99.202 475.686 99.002 475.686C98.762 475.686 98.522 475.606 98.362 475.566C98.162 475.566 97.922 475.446 97.722 475.446C96.002 475.446 94.442 477.166 94.442 479.286C94.442 481.286 96.162 483.246 99.082 485.486C99.402 485.726 99.802 485.846 100.122 485.846C100.402 485.846 100.682 485.766 100.722 485.606C100.762 485.486 100.802 485.406 100.802 485.326C100.802 484.966 100.482 484.646 100.162 484.366C99.642 484.366 99.202 483.286 99.122 482.926C99.002 482.606 98.962 482.246 98.962 481.886C98.962 480.646 99.562 479.246 100.842 479.006C101.042 478.966 101.242 478.966 101.482 478.966C102.642 478.966 103.962 479.406 104.602 479.646C104.642 479.646 104.682 479.686 104.722 479.686C104.842 479.726 104.922 479.726 105.002 479.726C105.122 479.726 105.202 479.686 105.202 479.566C105.202 479.086 104.162 477.766 103.722 477.286Z"></path></g></g><g transform="translate(93.84615384615385)"><g><g><line stroke="#6A6A6A" stroke-width="1.3" x1="0" x2="213.9955995217078" y1="626.8461538461538" y2="626.8461538461538"></line><line stroke="#6A6A6A" stroke-width="1.3" x1="0" x2="213.9955995217078" y1="616.8461538461538" y2="616.8461538461538"></line><line stroke="#6A6A6A" stroke-width="1.3" x1="0" x2="213.9955995217078" y1="606.8461538461538" y2="606.8461538461538"></line><line stroke="#6A6A6A" stroke-width="1.3" x1="0" x2="213.9955995217078" y1="596.8461538461538" y2="596.8461538461538"></line><line stroke="#6A6A6A" stroke-width="1.3" x1="0" x2="213.9955995217078" y1="586.8461538461538" y2="586.8461538461538"></line></g><g><path d="M25.200 572.926C24.640 572.926 23.400 573.966 22.600 574.846C19.640 578.126 18.680 583.126 18.680 587.286C18.680 589.606 18.960 592.206 19.240 593.846C19.320 594.326 19.360 594.406 18.880 594.806C16.320 596.926 13.560 599.366 11.480 601.926C8.720 605.366 7 609.086 7 613.366C7 620.326 11.760 626.926 21.560 626.926C22.480 626.926 23.520 626.846 24.320 626.686C24.760 626.606 24.840 626.566 24.920 627.046C25.400 629.726 26 633.206 26 635.086C26 641.006 22 641.726 19.640 641.726C17.480 641.726 16.440 641.086 16.440 640.566C16.440 640.126 16.800 640.166 17.720 639.886C18.960 639.526 20.400 638.446 20.400 636.126C20.400 633.926 19 632.046 16.560 632.046C13.880 632.046 12.280 634.166 12.280 636.646C12.280 639.246 13.840 643.166 19.880 643.166C22.560 643.166 27.760 641.966 27.760 635.166C27.760 632.886 27.040 629.086 26.600 626.606C26.520 626.126 26.560 626.166 27.120 625.926C31.160 624.326 33.840 620.926 33.840 616.406C33.840 611.286 30.080 606.766 24.200 606.766C23.080 606.766 23.200 606.966 23.040 606.046L22.040 600.246C21.960 599.766 22.040 599.726 22.280 599.486C22.920 598.886 23.760 598.046 24.520 597.206C27.880 593.526 29.880 588.766 29.880 584.246C29.880 580.766 28.920 577.326 27.280 574.926C26.680 574.046 25.640 572.926 25.200 572.926ZM20.040 601.086C20.440 600.766 20.520 600.806 20.600 601.246L21.440 606.366C21.560 607.126 21.560 607.086 20.840 607.326C17.320 608.526 15.040 611.686 15.040 615.086C15.040 618.686 16.920 621.246 19.640 622.166C19.960 622.286 20.440 622.406 20.720 622.406C21.040 622.406 21.200 622.206 21.200 621.966C21.200 621.686 20.880 621.566 20.600 621.446C18.920 620.726 17.720 619.006 17.720 617.166C17.720 614.886 19.280 613.166 21.720 612.486C22.360 612.326 22.440 612.366 22.520 612.806L24.520 624.726C24.600 625.166 24.560 625.166 23.960 625.286C23.320 625.406 22.520 625.486 21.720 625.486C14.720 625.486 10.200 621.606 10.200 616.046C10.200 613.686 10.600 610.526 13.920 606.766C16.320 604.086 18.160 602.606 20.040 601.086ZM24.640 612.166C27.880 612.446 30.560 615.166 30.560 618.686C30.560 621.206 29.040 623.246 26.800 624.366C26.320 624.606 26.240 624.606 26.160 624.126L24.200 612.726C24.120 612.246 24.160 612.126 24.640 612.166ZM25.800 579.126C27.120 579.126 28.200 580.206 28.200 582.406C28.200 585.166 26.880 587.726 23.760 590.846C23.120 591.486 22.160 592.406 21.240 593.206C20.960 593.446 20.800 593.406 20.720 592.886C20.560 591.846 20.480 590.486 20.480 589.206C20.480 582.966 23.360 579.126 25.800 579.126Z"></path></g><g></g><text font-family='Alegreya' font-style='italic' text-anchor='end' stroke='#7a7a7a' font-size="24" x="0" y="576.8461538461538">21</text></g><g><line stroke="black" stroke-width="1.6" x1="214.7955995217078" x2="214.7955995217078" y1="586.8461538461538" y2="626.8461538461538"></line></g><g><g><path d="M52.860 612.486C56.860 612.486 61.780 608.766 61.780 604.966C61.780 602.686 59.980 601.206 57.380 601.206C52.460 601.206 48.500 604.846 48.500 608.726C48.500 611.086 50.420 612.486 52.860 612.486Z"></path></g><line stroke="#000000" stroke-width="1.2" x1="49.1" x2="49.1" y1="608.6861538461538" y2="643.6861538461538"></line></g><g><g><path d="M108.025 612.486C112.025 612.486 116.945 608.766 116.945 604.966C116.945 602.686 115.145 601.206 112.545 601.206C107.625 601.206 103.665 604.846 103.665 608.726C103.665 611.086 105.585 612.486 108.025 612.486Z"></path></g><line stroke="#000000" stroke-width="1.2" x1="104.26519984056927" x2="104.26519984056927" y1="608.6861538461538" y2="643.6861538461538"></line></g><g><path d="M168.150 613.286C166.630 611.446 165.390 609.966 165.390 607.726C165.390 607.566 165.430 607.366 165.430 607.206C165.590 604.886 167.030 602.966 168.070 601.326C168.190 601.126 168.230 600.926 168.230 600.726C168.230 600.326 168.070 599.966 168.070 599.966C168.070 599.966 162.150 592.926 161.470 592.246C161.270 592.046 160.990 591.926 160.750 591.926C160.350 591.926 159.950 592.206 159.950 592.766C159.950 592.966 159.990 593.166 160.110 593.406C160.270 593.846 162.550 595.886 162.550 598.766C162.550 600.246 161.950 601.966 160.150 603.846C159.750 604.246 159.590 604.686 159.590 605.006C159.590 605.566 159.990 605.966 159.990 605.966L161.950 608.366C162.590 609.166 163.150 609.926 163.670 610.766C163.750 610.926 163.910 611.126 163.910 611.326C163.910 611.366 163.910 611.446 163.870 611.486C163.790 611.646 163.630 611.686 163.430 611.686C163.190 611.686 162.950 611.606 162.790 611.566C162.590 611.566 162.350 611.446 162.150 611.446C160.430 611.446 158.870 613.166 158.870 615.286C158.870 617.286 160.590 619.246 163.510 621.486C163.830 621.726 164.230 621.846 164.550 621.846C164.830 621.846 165.110 621.766 165.150 621.606C165.190 621.486 165.230 621.406 165.230 621.326C165.230 620.966 164.910 620.646 164.590 620.366C164.070 620.366 163.630 619.286 163.550 618.926C163.430 618.606 163.390 618.246 163.390 617.886C163.390 616.646 163.990 615.246 165.270 615.006C165.470 614.966 165.670 614.966 165.910 614.966C167.070 614.966 168.390 615.406 169.030 615.646C169.070 615.646 169.110 615.686 169.150 615.686C169.270 615.726 169.350 615.726 169.430 615.726C169.550 615.726 169.630 615.686 169.630 615.566C169.630 615.086 168.590 613.766 168.150 613.286Z"></path></g></g><g transform="translate(324.4417533678617)"><g><g><line stroke="#6A6A6A" stroke-width="1.3" x1="-16.600000000000023" x2="165.4955995217078" y1="626.8461538461538" y2="626.8461538461538"></line><line stroke="#6A6A6A" stroke-width="1.3" x1="-16.600000000000023" x2="165.4955995217078" y1="616.8461538461538" y2="616.8461538461538"></line><line stroke="#6A6A6A" stroke-width="1.3" x1="-16.600000000000023" x2="165.4955995217078" y1="606.8461538461538" y2="606.8461538461538"></line><line stroke="#6A6A6A" stroke-width="1.3" x1="-16.600000000000023" x2="165.4955995217078" y1="596.8461538461538" y2="596.8461538461538"></line><line stroke="#6A6A6A" stroke-width="1.3" x1="-16.600000000000023" x2="165.4955995217078" y1="586.8461538461538" y2="586.8461538461538"></line></g></g><g><line stroke="black" stroke-width="1.6" x1="166.29559952170783" x2="166.29559952170783" y1="586.8461538461538" y2="626.8461538461538"></line></g><g><g><path d="M4.360 612.486C8.360 612.486 13.280 608.766 13.280 604.966C13.280 602.686 11.480 601.206 8.880 601.206C3.960 601.206 0 604.846 0 608.726C0 611.086 1.920 612.486 4.360 612.486Z"></path></g><line stroke="#000000" stroke-width="1.2" x1="0.6" x2="0.6" y1="608.6861538461538" y2="643.6861538461538"></line></g><g><g><path d="M59.525 612.486C63.525 612.486 68.445 608.766 68.445 604.966C68.445 602.686 66.645 601.206 64.045 601.206C59.125 601.206 55.165 604.846 55.165 608.726C55.165 611.086 57.085 612.486 59.525 612.486Z"></path></g><line stroke="#000000" stroke-width="1.2" x1="55.765199840569274" x2="55.765199840569274" y1="608.6861538461538" y2="643.6861538461538"></line></g><g><path d="M119.650 613.286C118.130 611.446 116.890 609.966 116.890 607.726C116.890 607.566 116.930 607.366 116.930 607.206C117.090 604.886 118.530 602.966 119.570 601.326C119.690 601.126 119.730 600.926 119.730 600.726C119.730 600.326 119.570 599.966 119.570 599.966C119.570 599.966 113.650 592.926 112.970 592.246C112.770 592.046 112.490 591.926 112.250 591.926C111.850 591.926 111.450 592.206 111.450 592.766C111.450 592.966 111.490 593.166 111.610 593.406C111.770 593.846 114.050 595.886 114.050 598.766C114.050 600.246 113.450 601.966 111.650 603.846C111.250 604.246 111.090 604.686 111.090 605.006C111.090 605.566 111.490 605.966 111.490 605.966L113.450 608.366C114.090 609.166 114.650 609.926 115.170 610.766C115.250 610.926 115.410 611.126 115.410 611.326C115.410 611.366 115.410 611.446 115.370 611.486C115.290 611.646 115.130 611.686 114.930 611.686C114.690 611.686 114.450 611.606 114.290 611.566C114.090 611.566 113.850 611.446 113.650 611.446C111.930 611.446 110.370 613.166 110.370 615.286C110.370 617.286 112.090 619.246 115.010 621.486C115.330 621.726 115.730 621.846 116.050 621.846C116.330 621.846 116.610 621.766 116.650 621.606C116.690 621.486 116.730 621.406 116.730 621.326C116.730 620.966 116.410 620.646 116.090 620.366C115.570 620.366 115.130 619.286 115.050 618.926C114.930 618.606 114.890 618.246 114.890 617.886C114.890 616.646 115.490 615.246 116.770 615.006C116.970 614.966 117.170 614.966 117.410 614.966C118.570 614.966 119.890 615.406 120.530 615.646C120.570 615.646 120.610 615.686 120.650 615.686C120.770 615.726 120.850 615.726 120.930 615.726C121.050 615.726 121.130 615.686 121.130 615.566C121.130 615.086 120.090 613.766 119.650 613.286Z"></path></g></g><g transform="translate(506.5373528895695)"><g><g><line stroke="#6A6A6A" stroke-width="1.3" x1="-16.600000000000023" x2="176.09559952170787" y1="626.8461538461538" y2="626.8461538461538"></line><line stroke="#6A6A6A" stroke-width="1.3" x1="-16.600000000000023" x2="176.09559952170787" y1="616.8461538461538" y2="616.8461538461538"></line><line stroke="#6A6A6A" stroke-width="1.3" x1="-16.600000000000023" x2="176.09559952170787" y1="606.8461538461538" y2="606.8461538461538"></line><line stroke="#6A6A6A" stroke-width="1.3" x1="-16.600000000000023" x2="176.09559952170787" y1="596.8461538461538" y2="596.8461538461538"></line><line stroke="#6A6A6A" stroke-width="1.3" x1="-16.600000000000023" x2="176.09559952170787" y1="586.8461538461538" y2="586.8461538461538"></line></g></g><g><line stroke="#000000" stroke-width="1.6" x1="166.29559952170783" x2="166.29559952170783" y1="586.8461538461538" y2="626.8461538461538"></line><line stroke="#000000" stroke-width="5" x1="173.5955995217078" x2="173.5955995217078" y1="586.8461538461538" y2="626.8461538461538"></line></g><g><g><path d="M4.360 612.486C8.360 612.486 13.280 608.766 13.280 604.966C13.280 602.686 11.480 601.206 8.880 601.206C3.960 601.206 0 604.846 0 608.726C0 611.086 1.920 612.486 4.360 612.486Z"></path></g><line stroke="#000000" stroke-width="1.2" x1="0.6" x2="0.6" y1="608.6861538461538" y2="643.6861538461538"></line></g><g><g><path d="M59.525 612.486C63.525 612.486 68.445 608.766 68.445 604.966C68.445 602.686 66.645 601.206 64.045 601.206C59.125 601.206 55.165 604.846 55.165 608.726C55.165 611.086 57.085 612.486 59.525 612.486Z"></path></g><line stroke="#000000" stroke-width="1.2" x1="55.765199840569274" x2="55.765199840569274" y1="608.6861538461538" y2="643.6861538461538"></line></g><g><g><path d="M114.690 612.486C118.690 612.486 123.610 608.766 123.610 604.966C123.610 602.686 121.810 601.206 119.210 601.206C114.290 601.206 110.330 604.846 110.330 608.726C110.330 611.086 112.250 612.486 114.690 612.486Z"></path></g><line stroke="#000000" stroke-width="1.2" x1="110.93039968113854" x2="110.93039968113854" y1="608.6861538461538" y2="643.6861538461538"></line></g></g></svg>