<?xml version="1.0" encoding="UTF-8" standalone="no"?><svg xmlns="http://www.w3.org/2000/svg" height="279.4mm" viewBox="0 0 1328.6153846153845 1719.3846153846152" width="215.9mm"><g transform="translate(163.84615384615387)"><g><g><line stroke="#6A6A6A" stroke-width="1.3" x1="0" x2="543.9644393095373" y1="183.8461538461538" y2="183.8461538461538"></line><line stroke="#6A6A6A" stroke-width="1.3" x1="0" x2="543.9644393095373" y1="173.8461538461538" y2="173.8461538461538"></line><line stroke="#6A6A6A" stroke-width="1.3" x1="0" x2="543.9644393095373" y1="163.8461538461538" y2="163.8461538461538"></line><line stroke="#6A6A6A" stroke-width="1.3" x1="0" x2="543.9644393095373" y1="153.8461538461538" y2="153.8461538461538"></line><line stroke="#6A6A6A" stroke-width="1.3" x1="0" x2="543.9644393095373" y1="143.8461538461538" y2="143.8461538461538"></line></g><g><path d="M25.200 129.926C24.640 129.926 23.400 130.966 22.600 131.846C19.640 135.126 18.680 140.126 18.680 144.286C18.680 146.606 18.960 149.206 19.240 150.846C19.320 151.326 19.360 151.406 18.880 151.806C16.320 153.926 13.560 156.366 11.480 158.926C8.720 162.366 7 166.086 7 170.366C7 177.326 11.760 183.926 21.560 183.926C22.480 183.926 23.520 183.846 24.320 183.686C24.760 183.606 24.840 183.566 24.920 184.046C25.400 186.726 26 190.206 26 192.086C26 198.006 22 198.726 19.640 198.726C17.480 198.726 16.440 198.086 16.440 197.566C16.440 197.126 16.800 197.166 17.720 196.886C18.960 196.526 20.400 195.446 20.400 193.126C20.400 190.926 19 189.046 16.560 189.046C13.880 189.046 12.280 191.166 12.280 193.646C12.280 196.246 13.840 200.166 19.880 200.166C22.560 200.166 27.760 198.966 27.760 192.166C27.760 189.886 27.040 186.086 26.600 183.606C26.520 183.126 26.560 183.166 27.120 182.926C31.160 181.326 33.840 177.926 33.840 173.406C33.840 168.286 30.080 163.766 24.200 163.766C23.080 163.766 23.200 163.966 23.040 163.046L22.040 157.246C21.960 156.766 22.040 156.726 22.280 156.486C22.920 155.886 23.760 155.046 24.520 154.206C27.880 150.526 29.880 145.766 29.880 141.246C29.880 137.766 28.920 134.326 27.280 131.926C26.680 131.046 25.640 129.926 25.200 129.926ZM20.040 158.086C20.440 157.766 20.520 157.806 20.600 158.246L21.440 163.366C21.560 164.126 21.560 164.086 20.840 164.326C17.320 165.526 15.040 168.686 15.040 172.086C15.040 175.686 16.920 178.246 19.640 179.166C19.960 179.286 20.440 179.406 20.720 179.406C21.040 179.406 21.200 179.206 21.200 178.966C21.200 178.686 20.880 178.566 20.600 178.446C18.920 177.726 17.720 176.006 17.720 174.166C17.720 171.886 19.280 170.166 21.720 169.486C22.360 169.326 22.440 169.366 22.520 169.806L24.520 181.726C24.600 182.166 24.560 182.166 23.960 182.286C23.320 182.406 22.520 182.486 21.720 182.486C14.720 182.486 10.200 178.606 10.200 173.046C10.200 170.686 10.600 167.526 13.920 163.766C16.320 161.086 18.160 159.606 20.040 158.086ZM24.640 169.166C27.880 169.446 30.560 172.166 30.560 175.686C30.560 178.206 29.040 180.246 26.800 181.366C26.320 181.606 26.240 181.606 26.160 181.126L24.200 169.726C24.120 169.246 24.160 169.126 24.640 169.166ZM25.800 136.126C27.120 136.126 28.200 137.206 28.200 139.406C28.200 142.166 26.880 144.726 23.760 147.846C23.120 148.486 22.160 149.406 21.240 150.206C20.960 150.446 20.800 150.406 20.720 149.886C20.560 148.846 20.480 147.486 20.480 146.206C20.480 139.966 23.360 136.126 25.800 136.126Z"></path></g><g></g><g><g><path d="M58.060 149.846C58.540 150.326 59.220 150.526 59.860 150.526C60.180 150.526 60.540 150.446 60.860 150.366C62.100 150.046 63.060 148.766 63.060 147.486C63.060 147.326 63.060 147.206 63.020 147.046C62.820 145.726 61.700 144.766 60.500 144.326C59.540 143.926 58.380 143.806 57.340 143.806C54.300 143.846 51.460 145.326 50.020 148.046C49.140 149.726 48.460 151.846 48.460 153.726L48.460 153.886C48.500 155.726 48.820 157.806 49.700 159.406C50.540 160.926 51.900 162.566 53.460 163.246C54.460 163.686 55.660 163.806 56.660 163.806C58.460 163.806 60.460 163.526 61.900 162.366C63.300 161.246 64.220 159.446 64.220 157.646C64.220 157.446 64.180 157.286 64.180 157.086C64.020 155.446 63.020 154.046 61.740 153.086C60.660 152.286 59.420 151.846 58.180 151.846C56.900 151.846 55.580 152.326 54.540 153.246C54.460 153.326 54.380 153.326 54.300 153.326C54.060 153.326 53.940 153.006 53.940 152.366C54.060 144.966 56.420 144.766 57.260 144.766C58.060 144.766 58.580 144.966 58.580 145.366C58.580 145.926 57.820 146.406 57.580 146.886C57.380 147.246 57.300 147.646 57.300 148.046C57.300 148.646 57.500 149.246 57.900 149.686C57.940 149.766 58.020 149.806 58.060 149.846ZM56.540 153.766C57.820 153.766 58.900 155.766 58.900 158.246C58.900 160.726 57.820 162.726 56.540 162.726C55.260 162.726 54.220 160.726 54.220 158.246C54.220 155.766 55.260 153.766 56.540 153.766Z"></path></g><g><path d="M65.180 176.806L62.260 176.806L62.260 168.246C62.260 167.926 62.220 167.566 61.780 167.566C61.420 167.566 61.220 167.646 60.980 167.926L57.180 172.526C57.020 172.726 56.820 172.966 56.820 173.446C56.820 173.446 56.820 175.046 56.820 176.806L51.420 176.806C54.620 174.086 61.020 165.006 61.140 164.566C61.140 164.486 61.180 164.446 61.180 164.366C61.180 164.046 60.900 163.806 60.580 163.806C60.220 163.806 58.580 163.886 57.860 163.886C57.140 163.886 55.340 163.806 55.020 163.806C54.660 163.806 54.100 163.926 54.100 164.566C54.100 169.526 50.180 175.086 48.980 176.766L48.740 177.086C48.740 177.126 48.700 177.166 48.700 177.206C48.620 177.366 48.580 177.526 48.580 177.646C48.580 178.046 48.900 178.326 49.380 178.326L56.820 178.326L56.820 180.846C56.820 181.926 55.940 182.246 55.220 182.246C54.580 182.246 54.300 182.606 54.300 183.006C54.300 183.406 54.460 183.846 55.060 183.846C55.700 183.846 63.580 183.846 63.580 183.846C63.980 183.846 64.380 183.566 64.380 183.006C64.380 182.446 63.900 182.206 63.500 182.206C63.100 182.206 62.260 181.966 62.260 180.686L62.260 178.326C63.980 178.326 65.180 178.326 65.180 178.326C65.580 178.326 65.780 178.046 65.780 177.566C65.780 177.086 65.620 176.806 65.180 176.806Z"></path></g></g></g><g><line stroke="#000000" stroke-width="1.6" x1="534.1644393095373" x2="534.1644393095373" y1="143.8461538461538" y2="183.8461538461538"></line><line stroke="#000000" stroke-width="5" x1="541.4644393095374" x2="541.4644393095374" y1="143.8461538461538" y2="183.8461538461538"></line></g><g><g><path d="M93.360 174.486C97.360 174.486 102.280 170.766 102.280 166.966C102.280 164.686 100.480 163.206 97.880 163.206C92.960 163.206 89 166.846 89 170.726C89 173.086 90.920 174.486 93.360 174.486Z"></path><path d="M103.080 176.086C103.960 175.526 104.400 175.166 105.080 174.366C106.560 172.646 107.200 170.966 107.200 168.806C107.200 166.806 106.600 165.126 105.400 163.646C104.760 162.886 104.280 162.446 103 161.606L102.840 161.886C104.080 162.886 104.600 163.486 105.080 164.526C105.520 165.566 105.760 166.966 105.760 168.766C105.760 170.446 105.560 171.726 105.160 172.886C104.680 174.166 104.200 174.766 102.840 175.806Z"></path><path d="M88.360 175.806C87 174.766 86.520 174.166 86.080 172.886C85.680 171.726 85.480 170.446 85.480 168.766C85.480 166.966 85.680 165.566 86.160 164.526C86.640 163.486 87.160 162.886 88.360 161.886L88.200 161.606C86.960 162.446 86.440 162.886 85.800 163.646C84.600 165.126 84 166.806 84 168.806C84 170.966 84.640 172.646 86.120 174.366C86.840 175.166 87.280 175.526 88.160 176.086Z"></path></g><line stroke="#000000" stroke-width="1.2" x1="101.68" x2="101.68" y1="167.0061538461538" y2="132.0061538461538"></line></g><g><g><path d="M176.021 173.446L170.621 168.926L176.021 164.406C176.141 164.286 176.261 164.086 176.261 163.886C176.261 163.766 176.221 163.606 176.101 163.486C176.021 163.326 175.821 163.246 175.661 163.246C175.541 163.246 175.421 163.286 175.341 163.366L169.621 168.126L163.981 163.366C163.861 163.286 163.741 163.246 163.621 163.246C163.461 163.246 163.301 163.326 163.181 163.486C163.101 163.606 163.061 163.726 163.061 163.846C163.061 164.046 163.141 164.246 163.301 164.406L168.701 168.926L163.301 173.446C163.141 173.606 163.061 173.806 163.061 174.006C163.061 174.126 163.101 174.246 163.181 174.366C163.301 174.526 163.501 174.606 163.661 174.606C163.781 174.606 163.901 174.566 163.981 174.486L169.621 169.726L175.341 174.486C175.421 174.566 175.541 174.606 175.661 174.606C175.821 174.606 176.021 174.526 176.101 174.366C176.221 174.246 176.261 174.086 176.261 173.966C176.261 173.766 176.141 173.566 176.021 173.446Z"></path><path d="M177.061 176.086C177.941 175.526 178.381 175.166 179.061 174.366C180.541 172.646 181.181 170.966 181.181 168.806C181.181 166.806 180.581 165.126 179.381 163.646C178.741 162.886 178.261 162.446 176.981 161.606L176.821 161.886C178.061 162.886 178.581 163.486 179.061 164.526C179.501 165.566 179.741 166.966 179.741 168.766C179.741 170.446 179.541 171.726 179.141 172.886C178.661 174.166 178.181 174.766 176.821 175.806Z"></path><path d="M162.421 175.806C161.061 174.766 160.581 174.166 160.141 172.886C159.741 171.726 159.541 170.446 159.541 168.766C159.541 166.966 159.741 165.566 160.221 164.526C160.701 163.486 161.221 162.886 162.421 161.886L162.261 161.606C161.021 162.446 160.501 162.886 159.861 163.646C158.661 165.126 158.061 166.806 158.061 168.806C158.061 170.966 158.701 172.646 160.181 174.366C160.901 175.166 161.341 175.526 162.221 176.086Z"></path></g><line stroke="#000000" stroke-width="1.2" x1="175.6607398849229" x2="175.6607398849229" y1="163.8861538461538" y2="128.8861538461538"></line></g><g><g><path d="M241.481 174.486C245.481 174.486 250.401 170.766 250.401 166.966C250.401 164.686 248.601 163.206 246.001 163.206C241.081 163.206 237.121 166.846 237.121 170.726C237.121 173.086 239.041 174.486 241.481 174.486Z"></path></g><g><path d="M241.481 164.486C245.481 164.486 250.401 160.766 250.401 156.966C250.401 154.686 248.601 153.206 246.001 153.206C241.081 153.206 237.121 156.846 237.121 160.726C237.121 163.086 239.041 164.486 241.481 164.486Z"></path><path d="M251.201 166.086C252.081 165.526 252.521 165.166 253.201 164.366C254.681 162.646 255.321 160.966 255.321 158.806C255.321 156.806 254.721 155.126 253.521 153.646C252.881 152.886 252.401 152.446 251.121 151.606L250.961 151.886C252.201 152.886 252.721 153.486 253.201 154.526C253.641 155.566 253.881 156.966 253.881 158.766C253.881 160.446 253.681 161.726 253.281 162.886C252.801 164.166 252.321 164.766 250.961 165.806Z"></path><path d="M236.481 165.806C235.121 164.766 234.641 164.166 234.201 162.886C233.801 161.726 233.601 160.446 233.601 158.766C233.601 156.966 233.801 155.566 234.281 154.526C234.761 153.486 235.281 152.886 236.481 151.886L236.321 151.606C235.081 152.446 234.561 152.886 233.921 153.646C232.721 155.126 232.121 156.806 232.121 158.806C232.121 160.966 232.761 162.646 234.241 164.366C234.961 165.166 235.401 165.526 236.281 166.086Z"></path></g><g><path d="M241.481 154.486C245.481 154.486 250.401 150.766 250.401 146.966C250.401 144.686 248.601 143.206 246.001 143.206C241.081 143.206 237.121 146.846 237.121 150.726C237.121 153.086 239.041 154.486 241.481 154.486Z"></path></g><line stroke="#000000" stroke-width="1.2" x1="237.72147976984579" x2="237.72147976984579" y1="150.68615384615381" y2="205.68615384615381"></line></g><g><g><path d="M315.542 174.486C319.542 174.486 324.462 170.766 324.462 166.966C324.462 164.686 322.662 163.206 320.062 163.206C315.142 163.206 311.182 166.846 311.182 170.726C311.182 173.086 313.102 174.486 315.542 174.486Z"></path><path d="M325.262 176.086C326.142 175.526 326.582 175.166 327.262 174.366C328.742 172.646 329.382 170.966 329.382 168.806C329.382 166.806 328.782 165.126 327.582 163.646C326.942 162.886 326.462 162.446 325.182 161.606L325.022 161.886C326.262 162.886 326.782 163.486 327.262 164.526C327.702 165.566 327.942 166.966 327.942 168.766C327.942 170.446 327.742 171.726 327.342 172.886C326.862 174.166 326.382 174.766 325.022 175.806Z"></path><path d="M310.542 175.806C309.182 174.766 308.702 174.166 308.262 172.886C307.862 171.726 307.662 170.446 307.662 168.766C307.662 166.966 307.862 165.566 308.342 164.526C308.822 163.486 309.342 162.886 310.542 161.886L310.382 161.606C309.142 162.446 308.622 162.886 307.982 163.646C306.782 165.126 306.182 166.806 306.182 168.806C306.182 170.966 306.822 172.646 308.302 174.366C309.022 175.166 309.462 175.526 310.342 176.086Z"></path></g><g><path d="M315.542 164.486C319.542 164.486 324.462 160.766 324.462 156.966C324.462 154.686 322.662 153.206 320.062 153.206C315.142 153.206 311.182 156.846 311.182 160.726C311.182 163.086 313.102 164.486 315.542 164.486Z"></path><path d="M325.262 166.086C326.142 165.526 326.582 165.166 327.262 164.366C328.742 162.646 329.382 160.966 329.382 158.806C329.382 156.806 328.782 155.126 327.582 153.646C326.942 152.886 326.462 152.446 325.182 151.606L325.022 151.886C326.262 152.886 326.782 153.486 327.262 154.526C327.702 155.566 327.942 156.966 327.942 158.766C327.942 160.446 327.742 161.726 327.342 162.886C326.862 164.166 326.382 164.766 325.022 165.806Z"></path><path d="M310.542 165.806C309.182 164.766 308.702 164.166 308.262 162.886C307.862 161.726 307.662 160.446 307.662 158.766C307.662 156.966 307.862 155.566 308.342 154.526C308.822 153.486 309.342 152.886 310.542 151.886L310.382 151.606C309.142 152.446 308.622 152.886 307.982 153.646C306.782 155.126 306.182 156.806 306.182 158.806C306.182 160.966 306.822 162.646 308.302 164.366C309.022 165.166 309.462 165.526 310.342 166.086Z"></path></g><g><path d="M315.542 154.486C319.542 154.486 324.462 150.766 324.462 146.966C324.462 144.686 322.662 143.206 320.062 143.206C315.142 143.206 311.182 146.846 311.182 150.726C311.182 153.086 313.102 154.486 315.542 154.486Z"></path><path d="M325.262 156.086C326.142 155.526 326.582 155.166 327.262 154.366C328.742 152.646 329.382 150.966 329.382 148.806C329.382 146.806 328.782 145.126 327.582 143.646C326.942 142.886 326.462 142.446 325.182 141.606L325.022 141.886C326.262 142.886 326.782 143.486 327.262 144.526C327.702 145.566 327.942 146.966 327.942 148.766C327.942 150.446 327.742 151.726 327.342 152.886C326.862 154.166 326.382 154.766 325.022 155.806Z"></path><path d="M310.542 155.806C309.182 154.766 308.702 154.166 308.262 152.886C307.862 151.726 307.662 150.446 307.662 148.766C307.662 146.966 307.862 145.566 308.342 144.526C308.822 143.486 309.342 142.886 310.542 141.886L310.382 141.606C309.142 142.446 308.622 142.886 307.982 143.646C306.782 145.126 306.182 146.806 306.182 148.806C306.182 150.966 306.822 152.646 308.302 154.366C309.022 155.166 309.462 155.526 310.342 156.086Z"></path></g><line stroke="#000000" stroke-width="1.2" x1="311.7822196547687" x2="311.7822196547687" y1="150.68615384615381" y2="205.68615384615381"></line></g><g><path d="M394.563 170.286C393.043 168.446 391.803 166.966 391.803 164.726C391.803 164.566 391.843 164.366 391.843 164.206C392.003 161.886 393.443 159.966 394.483 158.326C394.603 158.126 394.643 157.926 394.643 157.726C394.643 157.326 394.483 156.966 394.483 156.966C394.483 156.966 388.563 149.926 387.883 149.246C387.683 149.046 387.403 148.926 387.163 148.926C386.763 148.926 386.363 149.206 386.363 149.766C386.363 149.966 386.403 150.166 386.523 150.406C386.683 150.846 388.963 152.886 388.963 155.766C388.963 157.246 388.363 158.966 386.563 160.846C386.163 161.246 386.003 161.686 386.003 162.006C386.003 162.566 386.403 162.966 386.403 162.966L388.363 165.366C389.003 166.166 389.563 166.926 390.083 167.766C390.163 167.926 390.323 168.126 390.323 168.326C390.323 168.366 390.323 168.446 390.283 168.486C390.203 168.646 390.043 168.686 389.843 168.686C389.603 168.686 389.363 168.606 389.203 168.566C389.003 168.566 388.763 168.446 388.563 168.446C386.843 168.446 385.283 170.166 385.283 172.286C385.283 174.286 387.003 176.246 389.923 178.486C390.243 178.726 390.643 178.846 390.963 178.846C391.243 178.846 391.523 178.766 391.563 178.606C391.603 178.486 391.643 178.406 391.643 178.326C391.643 177.966 391.323 177.646 391.003 177.366C390.483 177.366 390.043 176.286 389.963 175.926C389.843 175.606 389.803 175.246 389.803 174.886C389.803 173.646 390.403 172.246 391.683 172.006C391.883 171.966 392.083 171.966 392.323 171.966C393.483 171.966 394.803 172.406 395.443 172.646C395.483 172.646 395.523 172.686 395.563 172.686C395.683 172.726 395.763 172.726 395.843 172.726C395.963 172.726 396.043 172.686 396.043 172.566C396.043 172.086 395.003 170.766 394.563 170.286Z"></path></g><g><path d="M468.624 190.286C467.104 188.446 465.864 186.966 465.864 184.726C465.864 184.566 465.904 184.366 465.904 184.206C466.064 181.886 467.504 179.966 468.544 178.326C468.664 178.126 468.704 177.926 468.704 177.726C468.704 177.326 468.544 176.966 468.544 176.966C468.544 176.966 462.624 169.926 461.944 169.246C461.744 169.046 461.464 168.926 461.224 168.926C460.824 168.926 460.424 169.206 460.424 169.766C460.424 169.966 460.464 170.166 460.584 170.406C460.744 170.846 463.024 172.886 463.024 175.766C463.024 177.246 462.424 178.966 460.624 180.846C460.224 181.246 460.064 181.686 460.064 182.006C460.064 182.566 460.464 182.966 460.464 182.966L462.424 185.366C463.064 186.166 463.624 186.926 464.144 187.766C464.224 187.926 464.384 188.126 464.384 188.326C464.384 188.366 464.384 188.446 464.344 188.486C464.264 188.646 464.104 188.686 463.904 188.686C463.664 188.686 463.424 188.606 463.264 188.566C463.064 188.566 462.824 188.446 462.624 188.446C460.904 188.446 459.344 190.166 459.344 192.286C459.344 194.286 461.064 196.246 463.984 198.486C464.304 198.726 464.704 198.846 465.024 198.846C465.304 198.846 465.584 198.766 465.624 198.606C465.664 198.486 465.704 198.406 465.704 198.326C465.704 197.966 465.384 197.646 465.064 197.366C464.544 197.366 464.104 196.286 464.024 195.926C463.904 195.606 463.864 195.246 463.864 194.886C463.864 193.646 464.464 192.246 465.744 192.006C465.944 191.966 466.144 191.966 466.384 191.966C467.544 191.966 468.864 192.406 469.504 192.646C469.544 192.646 469.584 192.686 469.624 192.686C469.744 192.726 469.824 192.726 469.904 192.726C470.024 192.726 470.104 192.686 470.104 192.566C470.104 192.086 469.064 190.766 468.624 190.286Z"></path></g></g></svg>