<?xml version="1.0" encoding="UTF-8" standalone="no"?><svg xmlns="http://www.w3.org/2000/svg" height="279.4mm" viewBox="0 0 1328.6153846153845 1719.3846153846152" width="215.9mm"><g transform="translate(93.84615384615385)"><g><g><line stroke="#6A6A6A" stroke-width="1.3" x1="0" x2="298.38193724848884" y1="183.8461538461538" y2="183.8461538461538"></line><line stroke="#6A6A6A" stroke-width="1.3" x1="0" x2="298.38193724848884" y1="173.8461538461538" y2="173.8461538461538"></line><line stroke="#6A6A6A" stroke-width="1.3" x1="0" x2="298.38193724848884" y1="163.8461538461538" y2="163.8461538461538"></line><line stroke="#6A6A6A" stroke-width="1.3" x1="0" x2="298.38193724848884" y1="153.8461538461538" y2="153.8461538461538"></line><line stroke="#6A6A6A" stroke-width="1.3" x1="0" x2="298.38193724848884" y1="143.8461538461538" y2="143.8461538461538"></line></g><g><path d="M25.200 129.926C24.640 129.926 23.400 130.966 22.600 131.846C19.640 135.126 18.680 140.126 18.680 144.286C18.680 146.606 18.960 149.206 19.240 150.846C19.320 151.326 19.360 151.406 18.880 151.806C16.320 153.926 13.560 156.366 11.480 158.926C8.720 162.366 7 166.086 7 170.366C7 177.326 11.760 183.926 21.560 183.926C22.480 183.926 23.520 183.846 24.320 183.686C24.760 183.606 24.840 183.566 24.920 184.046C25.400 186.726 26 190.206 26 192.086C26 198.006 22 198.726 19.640 198.726C17.480 198.726 16.440 198.086 16.440 197.566C16.440 197.126 16.800 197.166 17.720 196.886C18.960 196.526 20.400 195.446 20.400 193.126C20.400 190.926 19 189.046 16.560 189.046C13.880 189.046 12.280 191.166 12.280 193.646C12.280 196.246 13.840 200.166 19.880 200.166C22.560 200.166 27.760 198.966 27.760 192.166C27.760 189.886 27.040 186.086 26.600 183.606C26.520 183.126 26.560 183.166 27.120 182.926C31.160 181.326 33.840 177.926 33.840 173.406C33.840 168.286 30.080 163.766 24.200 163.766C23.080 163.766 23.200 163.966 23.040 163.046L22.040 157.246C21.960 156.766 22.040 156.726 22.280 156.486C22.920 155.886 23.760 155.046 24.520 154.206C27.880 150.526 29.880 145.766 29.880 141.246C29.880 137.766 28.920 134.326 27.280 131.926C26.680 131.046 25.640 129.926 25.200 129.926ZM20.040 158.086C20.440 157.766 20.520 157.806 20.600 158.246L21.440 163.366C21.560 164.126 21.560 164.086 20.840 164.326C17.320 165.526 15.040 168.686 15.040 172.086C15.040 175.686 16.920 178.246 19.640 179.166C19.960 179.286 20.440 179.406 20.720 179.406C21.040 179.406 21.200 179.206 21.200 178.966C21.200 178.686 20.880 178.566 20.600 178.446C18.920 177.726 17.720 176.006 17.720 174.166C17.720 171.886 19.280 170.166 21.720 169.486C22.360 169.326 22.440 169.366 22.520 169.806L24.520 181.726C24.600 182.166 24.560 182.166 23.960 182.286C23.320 182.406 22.520 182.486 21.720 182.486C14.720 182.486 10.200 178.606 10.200 173.046C10.200 170.686 10.600 167.526 13.920 163.766C16.320 161.086 18.160 159.606 20.040 158.086ZM24.640 169.166C27.880 169.446 30.560 172.166 30.560 175.686C30.560 178.206 29.040 180.246 26.800 181.366C26.320 181.606 26.240 181.606 26.160 181.126L24.200 169.726C24.120 169.246 24.160 169.126 24.640 169.166ZM25.800 136.126C27.120 136.126 28.200 137.206 28.200 139.406C28.200 142.166 26.880 144.726 23.760 147.846C23.120 148.486 22.160 149.406 21.240 150.206C20.960 150.446 20.800 150.406 20.720 149.886C20.560 148.846 20.480 147.486 20.480 146.206C20.480 139.966 23.360 136.126 25.800 136.126Z"></path></g><g></g><path d="M57.820 153.806C56.620 153.806 55.220 154.126 54.140 154.606C50.580 156.166 48.700 160.446 48.700 164.246C48.700 164.606 48.700 164.966 48.740 165.326C48.940 167.486 49.980 169.526 51.300 171.126C52.820 172.966 55.020 173.806 57.420 173.806C64.420 173.806 65.460 167.446 65.460 166.286C65.460 165.406 65.020 165.406 64.860 165.406C64.540 165.406 64.260 165.446 64.260 166.126C64.260 171.286 59.860 172.486 58.580 172.486C55.340 172.486 53.620 169.326 53.620 162.726C53.620 156.126 56.660 154.766 58.820 154.766C60.900 154.766 61.740 155.726 61.740 156.126C61.740 156.486 61.620 157.006 61.020 157.006C59.420 157.006 58.500 158.726 58.500 159.966C58.500 162.246 60.460 162.966 61.580 162.966C61.580 162.966 64.620 162.846 64.620 159.526C64.620 154.286 58.580 153.806 57.820 153.806Z"></path></g><g><line stroke="black" stroke-width="1.6" x1="299.18193724848885" x2="299.18193724848885" y1="143.8461538461538" y2="183.8461538461538"></line></g><g><g><path d="M93.360 174.486C97.360 174.486 102.280 170.766 102.280 166.966C102.280 164.686 100.480 163.206 97.880 163.206C92.960 163.206 89 166.846 89 170.726C89 173.086 90.920 174.486 93.360 174.486Z"></path></g><line stroke="#000000" stroke-width="1.2" x1="101.68" x2="101.68" y1="167.0061538461538" y2="129.0061538461538"></line><text font-family="Alegreya" font-size="22" text-anchor="middle" x="95.64" y="223.8461538461538">Tra</text></g><g><g><path d="M150.489 174.486C154.489 174.486 159.409 170.766 159.409 166.966C159.409 164.686 157.609 163.206 155.009 163.206C150.089 163.206 146.129 166.846 146.129 170.726C146.129 173.086 148.049 174.486 150.489 174.486Z"></path></g><line stroke="#000000" stroke-width="1.2" x1="158.80898431212222" x2="158.80898431212222" y1="167.0061538461538" y2="129.0061538461538"></line><text font-family="Alegreya" font-size="22" text-anchor="middle" x="152.7689843121222" y="223.8461538461538">la</text></g><g><g><path d="M200.083 174.486C204.083 174.486 209.003 170.766 209.003 166.966C209.003 164.686 207.203 163.206 204.603 163.206C199.683 163.206 195.723 166.846 195.723 170.726C195.723 173.086 197.643 174.486 200.083 174.486Z"></path></g><line stroke="#000000" stroke-width="1.2" x1="208.4029686242444" x2="208.4029686242444" y1="167.0061538461538" y2="129.0061538461538"></line><text font-family="Alegreya" font-size="22" text-anchor="middle" x="202.3629686242444" y="223.8461538461538">li</text></g><g><g><path d="M255.716 174.486C259.716 174.486 264.636 170.766 264.636 166.966C264.636 164.686 262.836 163.206 260.236 163.206C255.316 163.206 251.356 166.846 251.356 170.726C251.356 173.086 253.276 174.486 255.716 174.486Z"></path></g><line stroke="#000000" stroke-width="1.2" x1="264.03595293636664" x2="264.03595293636664" y1="167.0061538461538" y2="129.0061538461538"></line><text font-family="Alegreya" font-size="22" text-anchor="middle" x="257.9959529363666" y="223.8461538461538">Ja!</text></g></g><g transform="translate(408.8280910946427)"><g><g><line stroke="#6A6A6A" stroke-width="1.3" x1="-16.599999999999966" x2="188.10393724848888" y1="183.8461538461538" y2="183.8461538461538"></line><line stroke="#6A6A6A" stroke-width="1.3" x1="-16.599999999999966" x2="188.10393724848888" y1="173.8461538461538" y2="173.8461538461538"></line><line stroke="#6A6A6A" stroke-width="1.3" x1="-16.599999999999966" x2="188.10393724848888" y1="163.8461538461538" y2="163.8461538461538"></line><line stroke="#6A6A6A" stroke-width="1.3" x1="-16.599999999999966" x2="188.10393724848888" y1="153.8461538461538" y2="153.8461538461538"></line><line stroke="#6A6A6A" stroke-width="1.3" x1="-16.599999999999966" x2="188.10393724848888" y1="143.8461538461538" y2="143.8461538461538"></line></g></g><g><line stroke="black" stroke-width="1.6" x1="188.90393724848886" x2="188.90393724848886" y1="143.8461538461538" y2="183.8461538461538"></line></g><g><g><path d="M4.360 174.486C8.360 174.486 13.280 170.766 13.280 166.966C13.280 164.686 11.480 163.206 8.880 163.206C3.960 163.206 0 166.846 0 170.726C0 173.086 1.920 174.486 4.360 174.486Z"></path></g><line stroke="#000000" stroke-width="1.2" x1="12.680000000000001" x2="12.680000000000001" y1="167.0061538461538" y2="129.0061538461538"></line></g><g><g><path d="M51.386 174.486C55.386 174.486 60.306 170.766 60.306 166.966C60.306 164.686 58.506 163.206 55.906 163.206C50.986 163.206 47.026 166.846 47.026 170.726C47.026 173.086 48.946 174.486 51.386 174.486Z"></path></g><line stroke="#000000" stroke-width="1.2" x1="59.70598431212221" x2="59.70598431212221" y1="167.0061538461538" y2="129.0061538461538"></line><text font-family="Alegreya" font-size="22" text-anchor="middle" x="53.66598431212221" y="223.8461538461538">Tra</text></g><g><g><path d="M98.412 174.486C102.412 174.486 107.332 170.766 107.332 166.966C107.332 164.686 105.532 163.206 102.932 163.206C98.012 163.206 94.052 166.846 94.052 170.726C94.052 173.086 95.972 174.486 98.412 174.486Z"></path></g><line stroke="#000000" stroke-width="1.2" x1="106.73196862424443" x2="106.73196862424443" y1="167.0061538461538" y2="129.0061538461538"></line></g><g><g><path d="M145.438 174.486C149.438 174.486 154.358 170.766 154.358 166.966C154.358 164.686 152.558 163.206 149.958 163.206C145.038 163.206 141.078 166.846 141.078 170.726C141.078 173.086 142.998 174.486 145.438 174.486Z"></path></g><line stroke="#000000" stroke-width="1.2" x1="153.75795293636665" x2="153.75795293636665" y1="167.0061538461538" y2="129.0061538461538"></line><text font-family="Alegreya" font-size="22" text-anchor="middle" x="147.71795293636666" y="223.8461538461538">ra!</text></g></g><g transform="translate(613.5320283431315)"><g><g><line stroke="#6A6A6A" stroke-width="1.3" x1="-16.600000000000023" x2="182.33306926980254" y1="183.8461538461538" y2="183.8461538461538"></line><line stroke="#6A6A6A" stroke-width="1.3" x1="-16.600000000000023" x2="182.33306926980254" y1="173.8461538461538" y2="173.8461538461538"></line><line stroke="#6A6A6A" stroke-width="1.3" x1="-16.600000000000023" x2="182.33306926980254" y1="163.8461538461538" y2="163.8461538461538"></line><line stroke="#6A6A6A" stroke-width="1.3" x1="-16.600000000000023" x2="182.33306926980254" y1="153.8461538461538" y2="153.8461538461538"></line><line stroke="#6A6A6A" stroke-width="1.3" x1="-16.600000000000023" x2="182.33306926980254" y1="143.8461538461538" y2="143.8461538461538"></line></g></g><g><line stroke="#000000" stroke-width="1.6" x1="172.53306926980252" x2="172.53306926980252" y1="143.8461538461538" y2="183.8461538461538"></line><line stroke="#000000" stroke-width="5" x1="179.8330692698025" x2="179.8330692698025" y1="143.8461538461538" y2="183.8461538461538"></line></g><g><g><path d="M4.360 174.486C8.360 174.486 13.280 170.766 13.280 166.966C13.280 164.686 11.480 163.206 8.880 163.206C3.960 163.206 0 166.846 0 170.726C0 173.086 1.920 174.486 4.360 174.486Z"></path></g><line stroke="#000000" stroke-width="1.2" x1="12.680000000000001" x2="12.680000000000001" y1="167.0061538461538" y2="129.0061538461538"></line></g><g><g><path d="M51.386 174.486C55.386 174.486 60.306 170.766 60.306 166.966C60.306 164.686 58.506 163.206 55.906 163.206C50.986 163.206 47.026 166.846 47.026 170.726C47.026 173.086 48.946 174.486 51.386 174.486Z"></path></g><line stroke="#000000" stroke-width="1.2" x1="59.70598431212221" x2="59.70598431212221" y1="167.0061538461538" y2="129.0061538461538"></line><text font-family="Alegreya" font-size="22" text-anchor="middle" x="53.66598431212221" y="223.8461538461538">Bah!</text></g><g><g><path d="M98.532 174.646C106.172 174.646 107.692 168.446 107.692 166.926C107.692 164.566 105.812 163.046 103.132 163.046C96.212 163.046 94.052 168.406 94.052 170.806C94.052 173.246 96.012 174.646 98.532 174.646ZM102.052 170.966C99.972 172.366 98.532 172.846 97.532 172.846C96.572 172.846 96.012 172.366 95.692 171.806C95.532 171.526 95.412 171.206 95.412 170.886C95.412 169.886 96.412 168.606 99.612 166.766C101.892 165.446 103.332 164.966 104.292 164.966C105.172 164.966 105.652 165.366 105.972 165.926C106.132 166.206 106.252 166.486 106.252 166.806C106.252 167.726 105.292 168.846 102.052 170.966Z"></path></g><line stroke="#000000" stroke-width="1.2" x1="107.09196862424443" x2="107.09196862424443" y1="166.92615384615382" y2="128.92615384615382"></line></g></g></svg>