<?xml version="1.0" encoding="UTF-8" standalone="no"?><svg xmlns="http://www.w3.org/2000/svg" class="" height="279.4mm" viewBox="0 0 1328.6153846153845 1719.3846153846152" width="215.9mm"><g><g><g><line stroke="#6A6A6A" stroke-width="1.3" x1="93.84615384615385" x2="1234.769230769231" y1="183.8461538461538" y2="183.8461538461538"></line><line stroke="#6A6A6A" stroke-width="1.3" x1="93.84615384615385" x2="1234.769230769231" y1="173.8461538461538" y2="173.8461538461538"></line><line stroke="#6A6A6A" stroke-width="1.3" x1="93.84615384615385" x2="1234.769230769231" y1="163.8461538461538" y2="163.8461538461538"></line><line stroke="#6A6A6A" stroke-width="1.3" x1="93.84615384615385" x2="1234.769230769231" y1="153.8461538461538" y2="153.8461538461538"></line><line stroke="#6A6A6A" stroke-width="1.3" x1="93.84615384615385" x2="1234.769230769231" y1="143.8461538461538" y2="143.8461538461538"></line></g><g><path d="M119.046 129.926C118.486 129.926 117.246 130.966 116.446 131.846C113.486 135.126 112.526 140.126 112.526 144.286C112.526 146.606 112.806 149.206 113.086 150.846C113.166 151.326 113.206 151.406 112.726 151.806C110.166 153.926 107.406 156.366 105.326 158.926C102.566 162.366 100.846 166.086 100.846 170.366C100.846 177.326 105.606 183.926 115.406 183.926C116.326 183.926 117.366 183.846 118.166 183.686C118.606 183.606 118.686 183.566 118.766 184.046C119.246 186.726 119.846 190.206 119.846 192.086C119.846 198.006 115.846 198.726 113.486 198.726C111.326 198.726 110.286 198.086 110.286 197.566C110.286 197.126 110.646 197.166 111.566 196.886C112.806 196.526 114.246 195.446 114.246 193.126C114.246 190.926 112.846 189.046 110.406 189.046C107.726 189.046 106.126 191.166 106.126 193.646C106.126 196.246 107.686 200.166 113.726 200.166C116.406 200.166 121.606 198.966 121.606 192.166C121.606 189.886 120.886 186.086 120.446 183.606C120.366 183.126 120.406 183.166 120.966 182.926C125.006 181.326 127.686 177.926 127.686 173.406C127.686 168.286 123.926 163.766 118.046 163.766C116.926 163.766 117.046 163.966 116.886 163.046L115.886 157.246C115.806 156.766 115.886 156.726 116.126 156.486C116.766 155.886 117.606 155.046 118.366 154.206C121.726 150.526 123.726 145.766 123.726 141.246C123.726 137.766 122.766 134.326 121.126 131.926C120.526 131.046 119.486 129.926 119.046 129.926ZM113.886 158.086C114.286 157.766 114.366 157.806 114.446 158.246L115.286 163.366C115.406 164.126 115.406 164.086 114.686 164.326C111.166 165.526 108.886 168.686 108.886 172.086C108.886 175.686 110.766 178.246 113.486 179.166C113.806 179.286 114.286 179.406 114.566 179.406C114.886 179.406 115.046 179.206 115.046 178.966C115.046 178.686 114.726 178.566 114.446 178.446C112.766 177.726 111.566 176.006 111.566 174.166C111.566 171.886 113.126 170.166 115.566 169.486C116.206 169.326 116.286 169.366 116.366 169.806L118.366 181.726C118.446 182.166 118.406 182.166 117.806 182.286C117.166 182.406 116.366 182.486 115.566 182.486C108.566 182.486 104.046 178.606 104.046 173.046C104.046 170.686 104.446 167.526 107.766 163.766C110.166 161.086 112.006 159.606 113.886 158.086ZM118.486 169.166C121.726 169.446 124.406 172.166 124.406 175.686C124.406 178.206 122.886 180.246 120.646 181.366C120.166 181.606 120.086 181.606 120.006 181.126L118.046 169.726C117.966 169.246 118.006 169.126 118.486 169.166ZM119.646 136.126C120.966 136.126 122.046 137.206 122.046 139.406C122.046 142.166 120.726 144.726 117.606 147.846C116.966 148.486 116.006 149.406 115.086 150.206C114.806 150.446 114.646 150.406 114.566 149.886C114.406 148.846 114.326 147.486 114.326 146.206C114.326 139.966 117.206 136.126 119.646 136.126Z"></path></g><g></g><path d="M151.666 153.806C150.466 153.806 149.066 154.126 147.986 154.606C144.426 156.166 142.546 160.446 142.546 164.246C142.546 164.606 142.546 164.966 142.586 165.326C142.786 167.486 143.826 169.526 145.146 171.126C146.666 172.966 148.866 173.806 151.266 173.806C158.266 173.806 159.306 167.446 159.306 166.286C159.306 165.406 158.866 165.406 158.706 165.406C158.386 165.406 158.106 165.446 158.106 166.126C158.106 171.286 153.706 172.486 152.426 172.486C149.186 172.486 147.466 169.326 147.466 162.726C147.466 156.126 150.506 154.766 152.666 154.766C154.746 154.766 155.586 155.726 155.586 156.126C155.586 156.486 155.466 157.006 154.866 157.006C153.266 157.006 152.346 158.726 152.346 159.966C152.346 162.246 154.306 162.966 155.426 162.966C155.426 162.966 158.466 162.846 158.466 159.526C158.466 154.286 152.426 153.806 151.666 153.806Z"></path></g><g><line stroke="black" stroke-width="1.6" x1="260.4573426573427" x2="260.4573426573427" y1="143.8461538461538" y2="183.8461538461538"></line></g><g><path d="M222.892 158.206L222.892 154.526C222.892 153.926 222.412 153.486 221.852 153.486L212.652 153.486C212.052 153.486 211.612 153.926 211.612 154.526L211.612 158.206C211.612 158.766 212.052 159.246 212.652 159.246L221.852 159.246C222.412 159.246 222.892 158.766 222.892 158.206Z"></path></g></g><g><g></g><g><line stroke="#000000" stroke-width="1.6" x1="353.86853146853144" x2="353.86853146853144" y1="143.8461538461538" y2="183.8461538461538"></line></g><g><path d="M312.003 158.206L312.003 154.526C312.003 153.926 311.523 153.486 310.963 153.486L301.763 153.486C301.163 153.486 300.723 153.926 300.723 154.526L300.723 158.206C300.723 158.766 301.163 159.246 301.763 159.246L310.963 159.246C311.523 159.246 312.003 158.766 312.003 158.206Z"></path></g></g><g><g></g><g><line stroke="#000000" stroke-width="1.6" x1="447.2797202797203" x2="447.2797202797203" y1="143.8461538461538" y2="183.8461538461538"></line></g><g><path d="M405.414 158.206L405.414 154.526C405.414 153.926 404.934 153.486 404.374 153.486L395.174 153.486C394.574 153.486 394.134 153.926 394.134 154.526L394.134 158.206C394.134 158.766 394.574 159.246 395.174 159.246L404.374 159.246C404.934 159.246 405.414 158.766 405.414 158.206Z"></path></g></g><g><g></g><g><line stroke="#000000" stroke-width="1.6" x1="540.690909090909" x2="540.690909090909" y1="143.8461538461538" y2="183.8461538461538"></line></g><g><path d="M498.825 158.206L498.825 154.526C498.825 153.926 498.345 153.486 497.785 153.486L488.585 153.486C487.985 153.486 487.545 153.926 487.545 154.526L487.545 158.206C487.545 158.766 487.985 159.246 488.585 159.246L497.785 159.246C498.345 159.246 498.825 158.766 498.825 158.206Z"></path></g></g><g><g></g><g><line stroke="#000000" stroke-width="5" x1="635.8020979020979" x2="635.8020979020979" y1="143.8461538461538" y2="183.8461538461538"></line></g><g><path d="M592.237 158.206L592.237 154.526C592.237 153.926 591.757 153.486 591.197 153.486L581.997 153.486C581.397 153.486 580.957 153.926 580.957 154.526L580.957 158.206C580.957 158.766 581.397 159.246 581.997 159.246L591.197 159.246C591.757 159.246 592.237 158.766 592.237 158.206Z"></path></g></g><g><g></g><g><line stroke="#000000" stroke-width="1.6" x1="730.9132867132868" x2="730.9132867132868" y1="143.8461538461538" y2="183.8461538461538"></line><line stroke="#000000" stroke-width="1.6" x1="736.5132867132868" x2="736.5132867132868" y1="143.8461538461538" y2="183.8461538461538"></line></g><g><path d="M687.348 158.206L687.348 154.526C687.348 153.926 686.868 153.486 686.308 153.486L677.108 153.486C676.508 153.486 676.068 153.926 676.068 154.526L676.068 158.206C676.068 158.766 676.508 159.246 677.108 159.246L686.308 159.246C686.868 159.246 687.348 158.766 687.348 158.206Z"></path></g></g><g><g></g><g><line stroke="#000000" stroke-width="1.6" x1="829.9244755244755" x2="829.9244755244755" y1="143.8461538461538" y2="183.8461538461538"></line><line stroke="#000000" stroke-width="5" x1="837.2244755244756" x2="837.2244755244756" y1="143.8461538461538" y2="183.8461538461538"></line></g><g><path d="M785.259 158.206L785.259 154.526C785.259 153.926 784.779 153.486 784.219 153.486L775.019 153.486C774.419 153.486 773.979 153.926 773.979 154.526L773.979 158.206C773.979 158.766 774.419 159.246 775.019 159.246L784.219 159.246C784.779 159.246 785.259 158.766 785.259 158.206Z"></path></g></g><g><g></g><g><line stroke="#000000" stroke-width="5" x1="934.0356643356644" x2="934.0356643356644" y1="143.8461538461538" y2="183.8461538461538"></line><line stroke="#000000" stroke-width="1.6" x1="941.3356643356643" x2="941.3356643356643" y1="143.8461538461538" y2="183.8461538461538"></line></g><g><path d="M885.970 158.206L885.970 154.526C885.970 153.926 885.490 153.486 884.930 153.486L875.730 153.486C875.130 153.486 874.690 153.926 874.690 154.526L874.690 158.206C874.690 158.766 875.130 159.246 875.730 159.246L884.930 159.246C885.490 159.246 885.970 158.766 885.970 158.206Z"></path></g></g><g><g></g><g><line stroke="#000000" stroke-width="5" x1="1036.4468531468533" x2="1036.4468531468533" y1="143.8461538461538" y2="183.8461538461538"></line><line stroke="#000000" stroke-width="5" x1="1045.4468531468533" x2="1045.4468531468533" y1="143.8461538461538" y2="183.8461538461538"></line></g><g><path d="M988.381 158.206L988.381 154.526C988.381 153.926 987.901 153.486 987.341 153.486L978.141 153.486C977.541 153.486 977.101 153.926 977.101 154.526L977.101 158.206C977.101 158.766 977.541 159.246 978.141 159.246L987.341 159.246C987.901 159.246 988.381 158.766 988.381 158.206Z"></path></g></g><g><g></g><g><line stroke="#000000" stroke-width="1.6" x1="1140.5580419580422" x2="1140.5580419580422" y1="143.8461538461538" y2="183.8461538461538"></line></g><g><path d="M1092.492 158.206L1092.492 154.526C1092.492 153.926 1092.012 153.486 1091.452 153.486L1082.252 153.486C1081.652 153.486 1081.212 153.926 1081.212 154.526L1081.212 158.206C1081.212 158.766 1081.652 159.246 1082.252 159.246L1091.452 159.246C1092.012 159.246 1092.492 158.766 1092.492 158.206Z"></path></g></g><g><g></g><g><line stroke="#000000" stroke-width="1.6" x1="1233.969230769231" x2="1233.969230769231" y1="143.8461538461538" y2="183.8461538461538"></line></g><g><path d="M1192.104 158.206L1192.104 154.526C1192.104 153.926 1191.624 153.486 1191.064 153.486L1181.864 153.486C1181.264 153.486 1180.824 153.926 1180.824 154.526L1180.824 158.206C1180.824 158.766 1181.264 159.246 1181.864 159.246L1191.064 159.246C1191.624 159.246 1192.104 158.766 1192.104 158.206Z"></path></g></g><g><g><g><line stroke="#6A6A6A" stroke-width="1.3" x1="93.84615384615385" x2="552.953846166779" y1="314.8461538461538" y2="314.8461538461538"></line><line stroke="#6A6A6A" stroke-width="1.3" x1="93.84615384615385" x2="552.953846166779" y1="304.8461538461538" y2="304.8461538461538"></line><line stroke="#6A6A6A" stroke-width="1.3" x1="93.84615384615385" x2="552.953846166779" y1="294.8461538461538" y2="294.8461538461538"></line><line stroke="#6A6A6A" stroke-width="1.3" x1="93.84615384615385" x2="552.953846166779" y1="284.8461538461538" y2="284.8461538461538"></line><line stroke="#6A6A6A" stroke-width="1.3" x1="93.84615384615385" x2="552.953846166779" y1="274.8461538461538" y2="274.8461538461538"></line></g><g><path d="M119.046 260.926C118.486 260.926 117.246 261.966 116.446 262.846C113.486 266.126 112.526 271.126 112.526 275.286C112.526 277.606 112.806 280.206 113.086 281.846C113.166 282.326 113.206 282.406 112.726 282.806C110.166 284.926 107.406 287.366 105.326 289.926C102.566 293.366 100.846 297.086 100.846 301.366C100.846 308.326 105.606 314.926 115.406 314.926C116.326 314.926 117.366 314.846 118.166 314.686C118.606 314.606 118.686 314.566 118.766 315.046C119.246 317.726 119.846 321.206 119.846 323.086C119.846 329.006 115.846 329.726 113.486 329.726C111.326 329.726 110.286 329.086 110.286 328.566C110.286 328.126 110.646 328.166 111.566 327.886C112.806 327.526 114.246 326.446 114.246 324.126C114.246 321.926 112.846 320.046 110.406 320.046C107.726 320.046 106.126 322.166 106.126 324.646C106.126 327.246 107.686 331.166 113.726 331.166C116.406 331.166 121.606 329.966 121.606 323.166C121.606 320.886 120.886 317.086 120.446 314.606C120.366 314.126 120.406 314.166 120.966 313.926C125.006 312.326 127.686 308.926 127.686 304.406C127.686 299.286 123.926 294.766 118.046 294.766C116.926 294.766 117.046 294.966 116.886 294.046L115.886 288.246C115.806 287.766 115.886 287.726 116.126 287.486C116.766 286.886 117.606 286.046 118.366 285.206C121.726 281.526 123.726 276.766 123.726 272.246C123.726 268.766 122.766 265.326 121.126 262.926C120.526 262.046 119.486 260.926 119.046 260.926ZM113.886 289.086C114.286 288.766 114.366 288.806 114.446 289.246L115.286 294.366C115.406 295.126 115.406 295.086 114.686 295.326C111.166 296.526 108.886 299.686 108.886 303.086C108.886 306.686 110.766 309.246 113.486 310.166C113.806 310.286 114.286 310.406 114.566 310.406C114.886 310.406 115.046 310.206 115.046 309.966C115.046 309.686 114.726 309.566 114.446 309.446C112.766 308.726 111.566 307.006 111.566 305.166C111.566 302.886 113.126 301.166 115.566 300.486C116.206 300.326 116.286 300.366 116.366 300.806L118.366 312.726C118.446 313.166 118.406 313.166 117.806 313.286C117.166 313.406 116.366 313.486 115.566 313.486C108.566 313.486 104.046 309.606 104.046 304.046C104.046 301.686 104.446 298.526 107.766 294.766C110.166 292.086 112.006 290.606 113.886 289.086ZM118.486 300.166C121.726 300.446 124.406 303.166 124.406 306.686C124.406 309.206 122.886 311.246 120.646 312.366C120.166 312.606 120.086 312.606 120.006 312.126L118.046 300.726C117.966 300.246 118.006 300.126 118.486 300.166ZM119.646 267.126C120.966 267.126 122.046 268.206 122.046 270.406C122.046 273.166 120.726 275.726 117.606 278.846C116.966 279.486 116.006 280.406 115.086 281.206C114.806 281.446 114.646 281.406 114.566 280.886C114.406 279.846 114.326 278.486 114.326 277.206C114.326 270.966 117.206 267.126 119.646 267.126Z"></path></g><g></g><text font-family='Alegreya' font-style='italic' text-anchor='end' stroke='#7a7a7a' font-size="24" x="93.84615384615385" y="264.8461538461538">12</text></g><g></g><g><path d="M240.238 289.206L240.238 285.526C240.238 284.926 239.758 284.486 239.198 284.486L229.998 284.486C229.398 284.486 228.958 284.926 228.958 285.526L228.958 289.206C228.958 289.766 229.398 290.246 229.998 290.246L239.198 290.246C239.758 290.246 240.238 289.766 240.238 289.206Z"></path></g></g><g><g></g><g><line stroke="black" stroke-width="1.6" x1="543.153846166779" x2="543.153846166779" y1="274.8461538461538" y2="314.8461538461538"></line><line stroke="black" stroke-width="5" x1="550.453846166779" x2="550.453846166779" y1="274.8461538461538" y2="314.8461538461538"></line></g><g><path d="M444.242 289.206L444.242 285.526C444.242 284.926 443.762 284.486 443.202 284.486L434.002 284.486C433.402 284.486 432.962 284.926 432.962 285.526L432.962 289.206C432.962 289.766 433.402 290.246 434.002 290.246L443.202 290.246C443.762 290.246 444.242 289.766 444.242 289.206Z"></path></g></g></svg>