<?xml version="1.0" encoding="UTF-8" standalone="no"?><svg xmlns="http://www.w3.org/2000/svg" class="" height="279.4mm" viewBox="0 0 1328.6153846153845 1719.3846153846152" width="215.9mm"><g><g><g><line stroke="#6A6A6A" stroke-width="1.3" x1="93.84615384615385" x2="810.165702688642" y1="183.8461538461538" y2="183.8461538461538"></line><line stroke="#6A6A6A" stroke-width="1.3" x1="93.84615384615385" x2="810.165702688642" y1="173.8461538461538" y2="173.8461538461538"></line><line stroke="#6A6A6A" stroke-width="1.3" x1="93.84615384615385" x2="810.165702688642" y1="163.8461538461538" y2="163.8461538461538"></line><line stroke="#6A6A6A" stroke-width="1.3" x1="93.84615384615385" x2="810.165702688642" y1="153.8461538461538" y2="153.8461538461538"></line><line stroke="#6A6A6A" stroke-width="1.3" x1="93.84615384615385" x2="810.165702688642" y1="143.8461538461538" y2="143.8461538461538"></line></g><g><path d="M119.046 129.926C118.486 129.926 117.246 130.966 116.446 131.846C113.486 135.126 112.526 140.126 112.526 144.286C112.526 146.606 112.806 149.206 113.086 150.846C113.166 151.326 113.206 151.406 112.726 151.806C110.166 153.926 107.406 156.366 105.326 158.926C102.566 162.366 100.846 166.086 100.846 170.366C100.846 177.326 105.606 183.926 115.406 183.926C116.326 183.926 117.366 183.846 118.166 183.686C118.606 183.606 118.686 183.566 118.766 184.046C119.246 186.726 119.846 190.206 119.846 192.086C119.846 198.006 115.846 198.726 113.486 198.726C111.326 198.726 110.286 198.086 110.286 197.566C110.286 197.126 110.646 197.166 111.566 196.886C112.806 196.526 114.246 195.446 114.246 193.126C114.246 190.926 112.846 189.046 110.406 189.046C107.726 189.046 106.126 191.166 106.126 193.646C106.126 196.246 107.686 200.166 113.726 200.166C116.406 200.166 121.606 198.966 121.606 192.166C121.606 189.886 120.886 186.086 120.446 183.606C120.366 183.126 120.406 183.166 120.966 182.926C125.006 181.326 127.686 177.926 127.686 173.406C127.686 168.286 123.926 163.766 118.046 163.766C116.926 163.766 117.046 163.966 116.886 163.046L115.886 157.246C115.806 156.766 115.886 156.726 116.126 156.486C116.766 155.886 117.606 155.046 118.366 154.206C121.726 150.526 123.726 145.766 123.726 141.246C123.726 137.766 122.766 134.326 121.126 131.926C120.526 131.046 119.486 129.926 119.046 129.926ZM113.886 158.086C114.286 157.766 114.366 157.806 114.446 158.246L115.286 163.366C115.406 164.126 115.406 164.086 114.686 164.326C111.166 165.526 108.886 168.686 108.886 172.086C108.886 175.686 110.766 178.246 113.486 179.166C113.806 179.286 114.286 179.406 114.566 179.406C114.886 179.406 115.046 179.206 115.046 178.966C115.046 178.686 114.726 178.566 114.446 178.446C112.766 177.726 111.566 176.006 111.566 174.166C111.566 171.886 113.126 170.166 115.566 169.486C116.206 169.326 116.286 169.366 116.366 169.806L118.366 181.726C118.446 182.166 118.406 182.166 117.806 182.286C117.166 182.406 116.366 182.486 115.566 182.486C108.566 182.486 104.046 178.606 104.046 173.046C104.046 170.686 104.446 167.526 107.766 163.766C110.166 161.086 112.006 159.606 113.886 158.086ZM118.486 169.166C121.726 169.446 124.406 172.166 124.406 175.686C124.406 178.206 122.886 180.246 120.646 181.366C120.166 181.606 120.086 181.606 120.006 181.126L118.046 169.726C117.966 169.246 118.006 169.126 118.486 169.166ZM119.646 136.126C120.966 136.126 122.046 137.206 122.046 139.406C122.046 142.166 120.726 144.726 117.606 147.846C116.966 148.486 116.006 149.406 115.086 150.206C114.806 150.446 114.646 150.406 114.566 149.886C114.406 148.846 114.326 147.486 114.326 146.206C114.326 139.966 117.206 136.126 119.646 136.126Z"></path></g><g></g><g><g><path d="M150.226 143.926C150.026 143.926 149.826 143.886 149.626 143.886C146.186 143.886 142.746 146.166 142.746 148.286C142.746 149.606 143.506 151.366 145.986 151.526L146.186 151.526C147.946 151.526 148.826 150.246 148.826 148.926L148.826 148.606C148.706 147.126 147.706 147.046 147.506 146.966C147.306 146.886 146.706 146.966 146.706 146.406L146.706 146.246C146.786 145.566 148.026 145.246 148.386 145.246C151.786 145.246 152.106 147.366 152.106 148.326L152.106 148.606C152.106 151.566 149.746 152.726 147.226 152.846C146.826 152.886 146.266 153.086 146.266 153.526C146.266 154.006 146.946 154.006 147.266 154.006C151.866 154.006 152.226 157.126 152.226 157.646C152.226 161.886 150.066 162.366 149.186 162.366C149.026 162.366 148.866 162.326 148.826 162.326C148.506 162.286 147.746 162.286 147.706 161.686L147.706 161.486C147.706 160.606 148.586 160.006 148.626 158.846C148.626 158.446 148.586 158.006 148.426 157.606C147.986 156.606 146.826 155.966 145.746 155.966C145.586 155.966 145.466 155.966 145.306 156.006C144.626 156.126 143.866 156.526 143.386 157.046C142.706 157.646 142.506 158.606 142.506 159.486C142.586 162.606 145.426 163.806 149.346 163.886L149.706 163.886C153.666 163.886 157.746 161.846 157.746 158.326L157.746 158.046C157.706 157.486 157.626 156.926 157.386 156.406C157.226 156.006 156.946 155.606 156.626 155.246C156.386 154.926 156.066 154.646 155.666 154.406L154.826 153.926L153.506 153.566C153.306 153.526 153.186 153.526 153.106 153.366C153.066 153.286 153.066 153.246 153.066 153.166C153.066 153.006 153.106 152.846 153.226 152.806C153.666 152.686 154.106 152.646 154.466 152.446C155.066 152.166 155.586 151.886 156.026 151.366C156.666 150.646 156.906 149.726 156.906 148.806C156.906 145.126 151.906 144.046 150.226 143.926Z"></path></g><g><path d="M154.666 172.406C156.106 171.486 157.066 170.166 157.066 168.166C157.066 164.086 151.186 163.486 150.106 163.486C145.466 163.486 142.306 165.606 142.306 168.966C142.306 171.726 143.866 173.206 145.786 174.286C143.706 175.286 142.106 176.606 142.106 179.126C142.106 182.606 145.706 184.206 149.666 184.206C153.666 184.206 157.946 182.486 157.946 177.086C157.946 174.686 156.546 173.366 154.666 172.406ZM149.506 182.886C146.826 182.886 144.386 181.526 144.386 178.926C144.386 177.326 145.786 175.846 147.546 175.166C150.466 176.446 153.426 177.286 153.426 179.926C153.426 181.526 152.186 182.886 149.506 182.886ZM152.586 171.486C149.386 170.366 145.986 169.686 145.986 167.166C145.986 165.486 148.266 164.646 150.026 164.646C151.306 164.646 154.706 165.286 154.706 168.086C154.706 169.686 153.906 170.726 152.586 171.486Z"></path></g></g></g><g><line stroke="black" stroke-width="1.6" x1="285.9262007688758" x2="285.9262007688758" y1="143.8461538461538" y2="183.8461538461538"></line></g><g><g><path d="M187.206 169.486C191.206 169.486 196.126 165.766 196.126 161.966C196.126 159.686 194.326 158.206 191.726 158.206C186.806 158.206 182.846 161.846 182.846 165.726C182.846 168.086 184.766 169.486 187.206 169.486Z"></path><g><circle cx="202.12615384615387" cy="158.8461538461538" r="2.4"></circle></g></g><line stroke="#000000" stroke-width="1.2" x1="183.44615384615386" x2="183.44615384615386" y1="165.68615384615381" y2="200.68615384615381"></line></g></g><g><g><g><g><path d="M309.606 143.926C309.406 143.926 309.206 143.886 309.006 143.886C305.566 143.886 302.126 146.166 302.126 148.286C302.126 149.606 302.886 151.366 305.366 151.526L305.566 151.526C307.326 151.526 308.206 150.246 308.206 148.926L308.206 148.606C308.086 147.126 307.086 147.046 306.886 146.966C306.686 146.886 306.086 146.966 306.086 146.406L306.086 146.246C306.166 145.566 307.406 145.246 307.766 145.246C311.166 145.246 311.486 147.366 311.486 148.326L311.486 148.606C311.486 151.566 309.126 152.726 306.606 152.846C306.206 152.886 305.646 153.086 305.646 153.526C305.646 154.006 306.326 154.006 306.646 154.006C311.246 154.006 311.606 157.126 311.606 157.646C311.606 161.886 309.446 162.366 308.566 162.366C308.406 162.366 308.246 162.326 308.206 162.326C307.886 162.286 307.126 162.286 307.086 161.686L307.086 161.486C307.086 160.606 307.966 160.006 308.006 158.846C308.006 158.446 307.966 158.006 307.806 157.606C307.366 156.606 306.206 155.966 305.126 155.966C304.966 155.966 304.846 155.966 304.686 156.006C304.006 156.126 303.246 156.526 302.766 157.046C302.086 157.646 301.886 158.606 301.886 159.486C301.966 162.606 304.806 163.806 308.726 163.886L309.086 163.886C313.046 163.886 317.126 161.846 317.126 158.326L317.126 158.046C317.086 157.486 317.006 156.926 316.766 156.406C316.606 156.006 316.326 155.606 316.006 155.246C315.766 154.926 315.446 154.646 315.046 154.406L314.206 153.926L312.886 153.566C312.686 153.526 312.566 153.526 312.486 153.366C312.446 153.286 312.446 153.246 312.446 153.166C312.446 153.006 312.486 152.846 312.606 152.806C313.046 152.686 313.486 152.646 313.846 152.446C314.446 152.166 314.966 151.886 315.406 151.366C316.046 150.646 316.286 149.726 316.286 148.806C316.286 145.126 311.286 144.046 309.606 143.926Z"></path></g><path d="M328.606 153.286C328.606 153.286 325.006 153.286 324.846 153.286C324.686 153.286 324.566 153.126 324.566 152.926C324.566 152.686 324.566 149.246 324.566 149.246C324.566 149.086 324.446 148.966 324.286 148.966L323.326 148.966C323.166 148.966 323.046 149.086 323.046 149.246C323.046 149.246 323.046 152.726 323.046 152.926C323.046 153.126 322.886 153.286 322.726 153.286C322.606 153.286 319.006 153.286 319.006 153.286C318.846 153.286 318.686 153.406 318.686 153.566L318.686 154.526C318.686 154.686 318.846 154.806 319.006 154.806C319.006 154.806 322.526 154.806 322.726 154.806C322.966 154.806 323.046 155.006 323.046 155.126C323.046 155.206 323.046 158.846 323.046 158.846C323.046 159.006 323.166 159.166 323.326 159.166L324.286 159.166C324.446 159.166 324.566 159.006 324.566 158.846C324.566 158.846 324.566 155.366 324.566 155.166C324.566 154.926 324.726 154.806 324.886 154.806C325.006 154.806 328.606 154.806 328.606 154.806C328.766 154.806 328.886 154.686 328.886 154.526L328.886 153.566C328.886 153.406 328.766 153.286 328.606 153.286Z"></path><g><path d="M346.086 157.486C346.086 157.006 345.886 156.926 345.606 156.926C345.286 156.926 345.166 157.086 345.086 157.326C345.086 157.366 345.046 157.406 345.046 157.446C344.646 158.406 344.326 159.166 343.486 159.166C343.286 159.166 343.086 159.126 342.806 159.046C342.286 158.846 342.006 158.806 341.606 158.606C340.806 158.286 338.926 157.646 337.286 157.646C336.766 157.646 336.246 157.726 335.806 157.886C336.686 156.446 340.086 155.246 340.966 155.006C341.566 154.846 343.246 154.526 344.566 153.446C345.526 152.686 346.286 151.526 346.286 149.766C346.286 147.886 345.486 146.526 344.446 145.646C342.406 143.926 339.286 143.686 338.406 143.686C337.326 143.686 335.966 143.726 334.926 143.966C333.526 144.246 332.126 145.086 331.166 146.206C330.486 147.046 330.046 148.046 330.046 149.126C330.046 149.686 330.166 150.246 330.406 150.846C331.006 152.086 332.246 153.046 333.686 153.046C336.126 153.046 336.486 150.526 336.486 149.526C336.486 147.126 333.726 147.006 333.726 146.206C333.806 145.646 334.526 144.686 336.886 144.686C340.446 144.686 340.486 147.366 340.486 148.526C340.486 150.046 340.006 151.446 339.126 152.606C337.686 154.526 336.566 155.486 334.606 156.686C332.406 158.086 330.846 160.046 330.166 162.566C330.166 162.646 330.126 162.726 330.126 162.806C330.126 163.246 330.406 163.766 330.846 164.046C330.966 164.126 331.086 164.126 331.166 164.126C332.046 164.126 332.526 161.686 334.886 161.686C336.486 161.686 337.086 163.846 340.646 163.846C342.366 163.846 345.446 163.686 346.086 157.486Z"></path></g><g><path d="M328.046 172.406C329.486 171.486 330.446 170.166 330.446 168.166C330.446 164.086 324.566 163.486 323.486 163.486C318.846 163.486 315.686 165.606 315.686 168.966C315.686 171.726 317.246 173.206 319.166 174.286C317.086 175.286 315.486 176.606 315.486 179.126C315.486 182.606 319.086 184.206 323.046 184.206C327.046 184.206 331.326 182.486 331.326 177.086C331.326 174.686 329.926 173.366 328.046 172.406ZM322.886 182.886C320.206 182.886 317.766 181.526 317.766 178.926C317.766 177.326 319.166 175.846 320.926 175.166C323.846 176.446 326.806 177.286 326.806 179.926C326.806 181.526 325.566 182.886 322.886 182.886ZM325.966 171.486C322.766 170.366 319.366 169.686 319.366 167.166C319.366 165.486 321.646 164.646 323.406 164.646C324.686 164.646 328.086 165.286 328.086 168.086C328.086 169.686 327.286 170.726 325.966 171.486Z"></path></g></g></g><g><line stroke="black" stroke-width="1.6" x1="537.1459517287589" x2="537.1459517287589" y1="143.8461538461538" y2="183.8461538461538"></line></g><g><g><path d="M374.586 169.486C378.586 169.486 383.506 165.766 383.506 161.966C383.506 159.686 381.706 158.206 379.106 158.206C374.186 158.206 370.226 161.846 370.226 165.726C370.226 168.086 372.146 169.486 374.586 169.486Z"></path></g><line stroke="#000000" stroke-width="1.2" x1="370.8262007688758" x2="370.8262007688758" y1="165.68615384615381" y2="200.68615384615381"></line><path d="M379.826 175.806C380.386 177.486 380.666 179.486 380.666 181.286C380.666 183.646 379.666 187.006 379.066 188.366C377.586 191.726 375.586 194.966 370.226 196.766L370.226 206.166C370.226 206.646 370.426 206.766 370.666 206.766C371.426 206.766 371.746 206.526 371.826 205.886C372.506 202.086 375.466 198.606 377.506 195.446C380.026 191.486 382.466 186.726 382.466 181.726C382.466 178.606 381.666 175.766 381.346 174.486C381.026 173.206 379.226 174.086 379.826 175.806Z"></path></g><g><g><path d="M424.909 169.646C432.549 169.646 434.069 163.446 434.069 161.926C434.069 159.566 432.189 158.046 429.509 158.046C422.589 158.046 420.429 163.406 420.429 165.806C420.429 168.246 422.389 169.646 424.909 169.646ZM428.429 165.966C426.349 167.366 424.909 167.846 423.909 167.846C422.949 167.846 422.389 167.366 422.069 166.806C421.909 166.526 421.789 166.206 421.789 165.886C421.789 164.886 422.789 163.606 425.989 161.766C428.269 160.446 429.709 159.966 430.669 159.966C431.549 159.966 432.029 160.366 432.349 160.926C432.509 161.206 432.629 161.486 432.629 161.806C432.629 162.726 431.669 163.846 428.429 165.966Z"></path></g><line stroke="#000000" stroke-width="1.2" x1="421.0289761456736" x2="421.0289761456736" y1="165.80615384615382" y2="200.80615384615382"></line></g></g><g><g><g><g><path d="M554.066 153.326C554.066 153.326 553.906 153.566 553.906 153.846C553.906 154.046 554.026 154.286 554.346 154.406C554.506 154.446 554.586 154.486 554.706 154.486C555.106 154.486 555.266 154.126 555.266 154.126C555.266 154.126 556.986 151.366 557.426 150.606C557.586 150.326 557.746 150.206 557.826 150.206C557.986 150.206 558.066 150.526 558.066 150.766L558.066 161.086C558.066 162.006 557.146 162.606 556.306 162.606C556.026 162.606 555.626 162.726 555.626 163.206C555.626 163.646 555.986 163.846 556.506 163.846L565.026 163.846C565.666 163.846 565.666 163.206 565.666 163.206C565.666 163.206 565.666 162.606 565.066 162.606C564.506 162.606 563.786 161.886 563.786 161.206C563.786 161.206 563.786 145.366 563.786 144.726C563.786 144.086 563.546 143.846 562.986 143.806C562.426 143.806 561.426 143.966 560.906 143.966C560.146 143.966 559.426 143.926 558.826 143.846C558.746 143.846 558.666 143.806 558.626 143.806C558.186 143.806 558.066 144.206 557.906 144.566Z"></path></g><g><path d="M565.266 172.406C566.706 171.486 567.666 170.166 567.666 168.166C567.666 164.086 561.786 163.486 560.706 163.486C556.066 163.486 552.906 165.606 552.906 168.966C552.906 171.726 554.466 173.206 556.386 174.286C554.306 175.286 552.706 176.606 552.706 179.126C552.706 182.606 556.306 184.206 560.266 184.206C564.266 184.206 568.546 182.486 568.546 177.086C568.546 174.686 567.146 173.366 565.266 172.406ZM560.106 182.886C557.426 182.886 554.986 181.526 554.986 178.926C554.986 177.326 556.386 175.846 558.146 175.166C561.066 176.446 564.026 177.286 564.026 179.926C564.026 181.526 562.786 182.886 560.106 182.886ZM563.186 171.486C559.986 170.366 556.586 169.686 556.586 167.166C556.586 165.486 558.866 164.646 560.626 164.646C561.906 164.646 565.306 165.286 565.306 168.086C565.306 169.686 564.506 170.726 563.186 171.486Z"></path></g><path d="M590.346 162.366C590.346 162.366 583.226 162.366 582.946 162.366C582.626 162.366 582.426 162.046 582.426 161.646C582.426 161.206 582.426 154.406 582.426 154.406C582.426 154.126 582.186 153.846 581.826 153.846L579.986 153.846C579.626 153.846 579.426 154.126 579.426 154.406C579.426 154.406 579.426 161.246 579.426 161.646C579.426 162.006 579.066 162.366 578.826 162.366C578.586 162.366 571.466 162.366 571.466 162.366C571.186 162.366 570.906 162.566 570.906 162.926L570.906 164.766C570.906 165.126 571.186 165.366 571.466 165.366C571.466 165.366 578.426 165.366 578.826 165.366C579.226 165.366 579.426 165.726 579.426 165.926C579.426 166.086 579.426 173.286 579.426 173.286C579.426 173.566 579.626 173.846 579.986 173.846L581.826 173.846C582.186 173.846 582.426 173.566 582.426 173.286C582.426 173.286 582.426 166.446 582.426 166.006C582.426 165.606 582.706 165.366 582.986 165.366C583.226 165.366 590.346 165.366 590.346 165.366C590.626 165.366 590.906 165.126 590.906 164.766L590.906 162.926C590.906 162.566 590.626 162.366 590.346 162.366Z"></path><g><path d="M609.306 157.486C609.306 157.006 609.106 156.926 608.826 156.926C608.506 156.926 608.386 157.086 608.306 157.326C608.306 157.366 608.266 157.406 608.266 157.446C607.866 158.406 607.546 159.166 606.706 159.166C606.506 159.166 606.306 159.126 606.026 159.046C605.506 158.846 605.226 158.806 604.826 158.606C604.026 158.286 602.146 157.646 600.506 157.646C599.986 157.646 599.466 157.726 599.026 157.886C599.906 156.446 603.306 155.246 604.186 155.006C604.786 154.846 606.466 154.526 607.786 153.446C608.746 152.686 609.506 151.526 609.506 149.766C609.506 147.886 608.706 146.526 607.666 145.646C605.626 143.926 602.506 143.686 601.626 143.686C600.546 143.686 599.186 143.726 598.146 143.966C596.746 144.246 595.346 145.086 594.386 146.206C593.706 147.046 593.266 148.046 593.266 149.126C593.266 149.686 593.386 150.246 593.626 150.846C594.226 152.086 595.466 153.046 596.906 153.046C599.346 153.046 599.706 150.526 599.706 149.526C599.706 147.126 596.946 147.006 596.946 146.206C597.026 145.646 597.746 144.686 600.106 144.686C603.666 144.686 603.706 147.366 603.706 148.526C603.706 150.046 603.226 151.446 602.346 152.606C600.906 154.526 599.786 155.486 597.826 156.686C595.626 158.086 594.066 160.046 593.386 162.566C593.386 162.646 593.346 162.726 593.346 162.806C593.346 163.246 593.626 163.766 594.066 164.046C594.186 164.126 594.306 164.126 594.386 164.126C595.266 164.126 595.746 161.686 598.106 161.686C599.706 161.686 600.306 163.846 603.866 163.846C605.586 163.846 608.666 163.686 609.306 157.486Z"></path></g><g><path d="M609.626 176.806L606.706 176.806L606.706 168.246C606.706 167.926 606.666 167.566 606.226 167.566C605.866 167.566 605.666 167.646 605.426 167.926L601.626 172.526C601.466 172.726 601.266 172.966 601.266 173.446C601.266 173.446 601.266 175.046 601.266 176.806L595.866 176.806C599.066 174.086 605.466 165.006 605.586 164.566C605.586 164.486 605.626 164.446 605.626 164.366C605.626 164.046 605.346 163.806 605.026 163.806C604.666 163.806 603.026 163.886 602.306 163.886C601.586 163.886 599.786 163.806 599.466 163.806C599.106 163.806 598.546 163.926 598.546 164.566C598.546 169.526 594.626 175.086 593.426 176.766L593.186 177.086C593.186 177.126 593.146 177.166 593.146 177.206C593.066 177.366 593.026 177.526 593.026 177.646C593.026 178.046 593.346 178.326 593.826 178.326L601.266 178.326L601.266 180.846C601.266 181.926 600.386 182.246 599.666 182.246C599.026 182.246 598.746 182.606 598.746 183.006C598.746 183.406 598.906 183.846 599.506 183.846C600.146 183.846 608.026 183.846 608.026 183.846C608.426 183.846 608.826 183.566 608.826 183.006C608.826 182.446 608.346 182.206 607.946 182.206C607.546 182.206 606.706 181.966 606.706 180.686L606.706 178.326C608.426 178.326 609.626 178.326 609.626 178.326C610.026 178.326 610.226 178.046 610.226 177.566C610.226 177.086 610.066 176.806 609.626 176.806Z"></path></g></g></g><g><line stroke="#000000" stroke-width="1.6" x1="800.365702688642" x2="800.365702688642" y1="143.8461538461538" y2="183.8461538461538"></line><line stroke="#000000" stroke-width="5" x1="807.6657026886421" x2="807.6657026886421" y1="143.8461538461538" y2="183.8461538461538"></line></g><g><g><path d="M637.806 169.486C641.806 169.486 646.726 165.766 646.726 161.966C646.726 159.686 644.926 158.206 642.326 158.206C637.406 158.206 633.446 161.846 633.446 165.726C633.446 168.086 635.366 169.486 637.806 169.486Z"></path></g><line stroke="#000000" stroke-width="1.2" x1="634.045951728759" x2="634.045951728759" y1="165.68615384615381" y2="200.68615384615381"></line><path d="M643.046 175.806C643.606 177.486 643.886 179.486 643.886 181.286C643.886 183.646 642.886 187.006 642.286 188.366C640.806 191.726 638.806 194.966 633.446 196.766L633.446 206.166C633.446 206.646 633.646 206.766 633.886 206.766C634.646 206.766 634.966 206.526 635.046 205.886C635.726 202.086 638.686 198.606 640.726 195.446C643.246 191.486 645.686 186.726 645.686 181.726C645.686 178.606 644.886 175.766 644.566 174.486C644.246 173.206 642.446 174.086 643.046 175.806Z"></path></g><g><g><path d="M688.129 169.646C695.769 169.646 697.289 163.446 697.289 161.926C697.289 159.566 695.409 158.046 692.729 158.046C685.809 158.046 683.649 163.406 683.649 165.806C683.649 168.246 685.609 169.646 688.129 169.646ZM691.649 165.966C689.569 167.366 688.129 167.846 687.129 167.846C686.169 167.846 685.609 167.366 685.289 166.806C685.129 166.526 685.009 166.206 685.009 165.886C685.009 164.886 686.009 163.606 689.209 161.766C691.489 160.446 692.929 159.966 693.889 159.966C694.769 159.966 695.249 160.366 695.569 160.926C695.729 161.206 695.849 161.486 695.849 161.806C695.849 162.726 694.889 163.846 691.649 165.966Z"></path></g><line stroke="#000000" stroke-width="1.2" x1="684.2487271055567" x2="684.2487271055567" y1="165.80615384615382" y2="200.80615384615382"></line></g></g></svg>