<?xml version="1.0" encoding="UTF-8" standalone="no"?><svg xmlns="http://www.w3.org/2000/svg" height="279.4mm" viewBox="0 0 1328.6153846153845 1719.3846153846152" width="215.9mm"><g transform="translate(93.84615384615385)"><g><g><line stroke="#6A6A6A" stroke-width="1.3" x1="0" x2="893.9528610448342" y1="183.8461538461538" y2="183.8461538461538"></line><line stroke="#6A6A6A" stroke-width="1.3" x1="0" x2="893.9528610448342" y1="173.8461538461538" y2="173.8461538461538"></line><line stroke="#6A6A6A" stroke-width="1.3" x1="0" x2="893.9528610448342" y1="163.8461538461538" y2="163.8461538461538"></line><line stroke="#6A6A6A" stroke-width="1.3" x1="0" x2="893.9528610448342" y1="153.8461538461538" y2="153.8461538461538"></line><line stroke="#6A6A6A" stroke-width="1.3" x1="0" x2="893.9528610448342" y1="143.8461538461538" y2="143.8461538461538"></line></g><g><path d="M25.200 129.926C24.640 129.926 23.400 130.966 22.600 131.846C19.640 135.126 18.680 140.126 18.680 144.286C18.680 146.606 18.960 149.206 19.240 150.846C19.320 151.326 19.360 151.406 18.880 151.806C16.320 153.926 13.560 156.366 11.480 158.926C8.720 162.366 7 166.086 7 170.366C7 177.326 11.760 183.926 21.560 183.926C22.480 183.926 23.520 183.846 24.320 183.686C24.760 183.606 24.840 183.566 24.920 184.046C25.400 186.726 26 190.206 26 192.086C26 198.006 22 198.726 19.640 198.726C17.480 198.726 16.440 198.086 16.440 197.566C16.440 197.126 16.800 197.166 17.720 196.886C18.960 196.526 20.400 195.446 20.400 193.126C20.400 190.926 19 189.046 16.560 189.046C13.880 189.046 12.280 191.166 12.280 193.646C12.280 196.246 13.840 200.166 19.880 200.166C22.560 200.166 27.760 198.966 27.760 192.166C27.760 189.886 27.040 186.086 26.600 183.606C26.520 183.126 26.560 183.166 27.120 182.926C31.160 181.326 33.840 177.926 33.840 173.406C33.840 168.286 30.080 163.766 24.200 163.766C23.080 163.766 23.200 163.966 23.040 163.046L22.040 157.246C21.960 156.766 22.040 156.726 22.280 156.486C22.920 155.886 23.760 155.046 24.520 154.206C27.880 150.526 29.880 145.766 29.880 141.246C29.880 137.766 28.920 134.326 27.280 131.926C26.680 131.046 25.640 129.926 25.200 129.926ZM20.040 158.086C20.440 157.766 20.520 157.806 20.600 158.246L21.440 163.366C21.560 164.126 21.560 164.086 20.840 164.326C17.320 165.526 15.040 168.686 15.040 172.086C15.040 175.686 16.920 178.246 19.640 179.166C19.960 179.286 20.440 179.406 20.720 179.406C21.040 179.406 21.200 179.206 21.200 178.966C21.200 178.686 20.880 178.566 20.600 178.446C18.920 177.726 17.720 176.006 17.720 174.166C17.720 171.886 19.280 170.166 21.720 169.486C22.360 169.326 22.440 169.366 22.520 169.806L24.520 181.726C24.600 182.166 24.560 182.166 23.960 182.286C23.320 182.406 22.520 182.486 21.720 182.486C14.720 182.486 10.200 178.606 10.200 173.046C10.200 170.686 10.600 167.526 13.920 163.766C16.320 161.086 18.160 159.606 20.040 158.086ZM24.640 169.166C27.880 169.446 30.560 172.166 30.560 175.686C30.560 178.206 29.040 180.246 26.800 181.366C26.320 181.606 26.240 181.606 26.160 181.126L24.200 169.726C24.120 169.246 24.160 169.126 24.640 169.166ZM25.800 136.126C27.120 136.126 28.200 137.206 28.200 139.406C28.200 142.166 26.880 144.726 23.760 147.846C23.120 148.486 22.160 149.406 21.240 150.206C20.960 150.446 20.800 150.406 20.720 149.886C20.560 148.846 20.480 147.486 20.480 146.206C20.480 139.966 23.360 136.126 25.800 136.126Z"></path></g><g></g><g><g><path d="M65.180 156.806L62.260 156.806L62.260 148.246C62.260 147.926 62.220 147.566 61.780 147.566C61.420 147.566 61.220 147.646 60.980 147.926L57.180 152.526C57.020 152.726 56.820 152.966 56.820 153.446C56.820 153.446 56.820 155.046 56.820 156.806L51.420 156.806C54.620 154.086 61.020 145.006 61.140 144.566C61.140 144.486 61.180 144.446 61.180 144.366C61.180 144.046 60.900 143.806 60.580 143.806C60.220 143.806 58.580 143.886 57.860 143.886C57.140 143.886 55.340 143.806 55.020 143.806C54.660 143.806 54.100 143.926 54.100 144.566C54.100 149.526 50.180 155.086 48.980 156.766L48.740 157.086C48.740 157.126 48.700 157.166 48.700 157.206C48.620 157.366 48.580 157.526 48.580 157.646C48.580 158.046 48.900 158.326 49.380 158.326L56.820 158.326L56.820 160.846C56.820 161.926 55.940 162.246 55.220 162.246C54.580 162.246 54.300 162.606 54.300 163.006C54.300 163.406 54.460 163.846 55.060 163.846C55.700 163.846 63.580 163.846 63.580 163.846C63.980 163.846 64.380 163.566 64.380 163.006C64.380 162.446 63.900 162.206 63.500 162.206C63.100 162.206 62.260 161.966 62.260 160.686L62.260 158.326C63.980 158.326 65.180 158.326 65.180 158.326C65.580 158.326 65.780 158.046 65.780 157.566C65.780 157.086 65.620 156.806 65.180 156.806Z"></path></g><g><path d="M65.180 176.806L62.260 176.806L62.260 168.246C62.260 167.926 62.220 167.566 61.780 167.566C61.420 167.566 61.220 167.646 60.980 167.926L57.180 172.526C57.020 172.726 56.820 172.966 56.820 173.446C56.820 173.446 56.820 175.046 56.820 176.806L51.420 176.806C54.620 174.086 61.020 165.006 61.140 164.566C61.140 164.486 61.180 164.446 61.180 164.366C61.180 164.046 60.900 163.806 60.580 163.806C60.220 163.806 58.580 163.886 57.860 163.886C57.140 163.886 55.340 163.806 55.020 163.806C54.660 163.806 54.100 163.926 54.100 164.566C54.100 169.526 50.180 175.086 48.980 176.766L48.740 177.086C48.740 177.126 48.700 177.166 48.700 177.206C48.620 177.366 48.580 177.526 48.580 177.646C48.580 178.046 48.900 178.326 49.380 178.326L56.820 178.326L56.820 180.846C56.820 181.926 55.940 182.246 55.220 182.246C54.580 182.246 54.300 182.606 54.300 183.006C54.300 183.406 54.460 183.846 55.060 183.846C55.700 183.846 63.580 183.846 63.580 183.846C63.980 183.846 64.380 183.566 64.380 183.006C64.380 182.446 63.900 182.206 63.500 182.206C63.100 182.206 62.260 181.966 62.260 180.686L62.260 178.326C63.980 178.326 65.180 178.326 65.180 178.326C65.580 178.326 65.780 178.046 65.780 177.566C65.780 177.086 65.620 176.806 65.180 176.806Z"></path></g></g></g><g><line stroke="black" stroke-width="1.6" x1="500.6658324161964" x2="500.6658324161964" y1="143.8461538461538" y2="183.8461538461538"></line></g><g><g><path d="M162.677 184.486C166.677 184.486 171.597 180.766 171.597 176.966C171.597 174.686 169.797 173.206 167.197 173.206C162.277 173.206 158.317 176.846 158.317 180.726C158.317 183.086 160.237 184.486 162.677 184.486Z"></path><g><circle cx="177.5966090849307" cy="178.8461538461538" fill="#000000" r="2.4"></circle></g></g><g><path d="M162.677 174.486C166.677 174.486 171.597 170.766 171.597 166.966C171.597 164.686 169.797 163.206 167.197 163.206C162.277 163.206 158.317 166.846 158.317 170.726C158.317 173.086 160.237 174.486 162.677 174.486Z"></path><g><circle cx="177.5966090849307" cy="168.8461538461538" fill="#000000" r="2.4"></circle></g></g><g><path d="M162.677 164.486C166.677 164.486 171.597 160.766 171.597 156.966C171.597 154.686 169.797 153.206 167.197 153.206C162.277 153.206 158.317 156.846 158.317 160.726C158.317 163.086 160.237 164.486 162.677 164.486Z"></path><g><circle cx="177.5966090849307" cy="158.8461538461538" fill="#000000" r="2.4"></circle></g></g><line stroke="#000000" stroke-width="1.2" x1="170.9966090849307" x2="170.9966090849307" y1="177.0061538461538" y2="127.00615384615381"></line></g><g><g><path d="M276.676 174.486C280.676 174.486 285.596 170.766 285.596 166.966C285.596 164.686 283.796 163.206 281.196 163.206C276.276 163.206 272.316 166.846 272.316 170.726C272.316 173.086 274.236 174.486 276.676 174.486Z"></path></g><g><path d="M276.676 144.486C280.676 144.486 285.596 140.766 285.596 136.966C285.596 134.686 283.796 133.206 281.196 133.206C276.276 133.206 272.316 136.846 272.316 140.726C272.316 143.086 274.236 144.486 276.676 144.486Z"></path></g><line stroke="#000000" stroke-width="1.2" x1="272.91641175736567" x2="272.91641175736567" y1="140.68615384615381" y2="205.68615384615381"></line><path d="M281.916 173.806C282.476 175.486 282.756 177.486 282.756 179.286C282.756 181.646 281.756 185.006 281.156 186.366C279.676 189.726 277.676 192.966 272.316 194.766L272.316 204.166C272.316 204.646 272.516 204.766 272.756 204.766C273.516 204.766 273.836 204.526 273.916 203.886C274.596 200.086 277.556 196.606 279.596 193.446C282.116 189.486 284.556 184.726 284.556 179.726C284.556 176.606 283.756 173.766 283.436 172.486C283.116 171.206 281.316 172.086 281.916 173.806Z"></path></g><g><g><path d="M329.186 174.486C333.186 174.486 338.106 170.766 338.106 166.966C338.106 164.686 336.306 163.206 333.706 163.206C328.786 163.206 324.826 166.846 324.826 170.726C324.826 173.086 326.746 174.486 329.186 174.486Z"></path></g><g><path d="M329.186 184.486C333.186 184.486 338.106 180.766 338.106 176.966C338.106 174.686 336.306 173.206 333.706 173.206C328.786 173.206 324.826 176.846 324.826 180.726C324.826 183.086 326.746 184.486 329.186 184.486Z"></path></g><g><path d="M329.186 164.486C333.186 164.486 338.106 160.766 338.106 156.966C338.106 154.686 336.306 153.206 333.706 153.206C328.786 153.206 324.826 156.846 324.826 160.726C324.826 163.086 326.746 164.486 329.186 164.486Z"></path></g><line stroke="#000000" stroke-width="1.2" x1="337.5058856820171" x2="337.5058856820171" y1="177.0061538461538" y2="127.00615384615381"></line></g><g><g><path d="M416.706 174.486C420.706 174.486 425.626 170.766 425.626 166.966C425.626 164.686 423.826 163.206 421.226 163.206C416.306 163.206 412.346 166.846 412.346 170.726C412.346 173.086 414.266 174.486 416.706 174.486Z"></path></g><g><path d="M416.706 184.486C420.706 184.486 425.626 180.766 425.626 176.966C425.626 174.686 423.826 173.206 421.226 173.206C416.306 173.206 412.346 176.846 412.346 180.726C412.346 183.086 414.266 184.486 416.706 184.486Z"></path></g><g><path d="M416.706 164.486C420.706 164.486 425.626 160.766 425.626 156.966C425.626 154.686 423.826 153.206 421.226 153.206C416.306 153.206 412.346 156.846 412.346 160.726C412.346 163.086 414.266 164.486 416.706 164.486Z"></path></g><line stroke="#000000" stroke-width="1.2" x1="425.0258590491067" x2="425.0258590491067" y1="177.0061538461538" y2="127.00615384615381"></line></g></g><g transform="translate(610.3119862623503)"><g></g><g><line stroke="black" stroke-width="1.6" x1="367.6870286286378" x2="367.6870286286378" y1="143.8461538461538" y2="183.8461538461538"></line><line stroke="black" stroke-width="5" x1="374.9870286286378" x2="374.9870286286378" y1="143.8461538461538" y2="183.8461538461538"></line></g><g><g><path d="M73.677 174.486C77.677 174.486 82.597 170.766 82.597 166.966C82.597 164.686 80.797 163.206 78.197 163.206C73.277 163.206 69.317 166.846 69.317 170.726C69.317 173.086 71.237 174.486 73.677 174.486Z"></path></g><g><path d="M73.677 184.486C77.677 184.486 82.597 180.766 82.597 176.966C82.597 174.686 80.797 173.206 78.197 173.206C73.277 173.206 69.317 176.846 69.317 180.726C69.317 183.086 71.237 184.486 73.677 184.486Z"></path></g><g><path d="M73.677 154.486C77.677 154.486 82.597 150.766 82.597 146.966C82.597 144.686 80.797 143.206 78.197 143.206C73.277 143.206 69.317 146.846 69.317 150.726C69.317 153.086 71.237 154.486 73.677 154.486Z"></path></g><line stroke="#000000" stroke-width="1.2" x1="81.9966090849307" x2="81.9966090849307" y1="177.0061538461538" y2="117.00615384615381"></line></g><g><g><path d="M161.197 174.486C165.197 174.486 170.117 170.766 170.117 166.966C170.117 164.686 168.317 163.206 165.717 163.206C160.797 163.206 156.837 166.846 156.837 170.726C156.837 173.086 158.757 174.486 161.197 174.486Z"></path></g><g><path d="M161.197 184.486C165.197 184.486 170.117 180.766 170.117 176.966C170.117 174.686 168.317 173.206 165.717 173.206C160.797 173.206 156.837 176.846 156.837 180.726C156.837 183.086 158.757 184.486 161.197 184.486Z"></path></g><g><path d="M161.197 149.486C165.197 149.486 170.117 145.766 170.117 141.966C170.117 139.686 168.317 138.206 165.717 138.206C160.797 138.206 156.837 141.846 156.837 145.726C156.837 148.086 158.757 149.486 161.197 149.486Z"></path></g><line stroke="#000000" stroke-width="1.2" x1="169.51658245202032" x2="169.51658245202032" y1="177.0061538461538" y2="112.00615384615381"></line></g><g><g><path d="M248.837 174.646C256.477 174.646 257.997 168.446 257.997 166.926C257.997 164.566 256.117 163.046 253.437 163.046C246.517 163.046 244.357 168.406 244.357 170.806C244.357 173.246 246.317 174.646 248.837 174.646ZM252.357 170.966C250.277 172.366 248.837 172.846 247.837 172.846C246.877 172.846 246.317 172.366 245.997 171.806C245.837 171.526 245.717 171.206 245.717 170.886C245.717 169.886 246.717 168.606 249.917 166.766C252.197 165.446 253.637 164.966 254.597 164.966C255.477 164.966 255.957 165.366 256.277 165.926C256.437 166.206 256.557 166.486 256.557 166.806C256.557 167.726 255.597 168.846 252.357 170.966Z"></path></g><g><path d="M248.837 184.646C256.477 184.646 257.997 178.446 257.997 176.926C257.997 174.566 256.117 173.046 253.437 173.046C246.517 173.046 244.357 178.406 244.357 180.806C244.357 183.246 246.317 184.646 248.837 184.646ZM252.357 180.966C250.277 182.366 248.837 182.846 247.837 182.846C246.877 182.846 246.317 182.366 245.997 181.806C245.837 181.526 245.717 181.206 245.717 180.886C245.717 179.886 246.717 178.606 249.917 176.766C252.197 175.446 253.637 174.966 254.597 174.966C255.477 174.966 255.957 175.366 256.277 175.926C256.437 176.206 256.557 176.486 256.557 176.806C256.557 177.726 255.597 178.846 252.357 180.966Z"></path></g><g><path d="M248.837 159.646C256.477 159.646 257.997 153.446 257.997 151.926C257.997 149.566 256.117 148.046 253.437 148.046C246.517 148.046 244.357 153.406 244.357 155.806C244.357 158.246 246.317 159.646 248.837 159.646ZM252.357 155.966C250.277 157.366 248.837 157.846 247.837 157.846C246.877 157.846 246.317 157.366 245.997 156.806C245.837 156.526 245.717 156.206 245.717 155.886C245.717 154.886 246.717 153.606 249.917 151.766C252.197 150.446 253.637 149.966 254.597 149.966C255.477 149.966 255.957 150.366 256.277 150.926C256.437 151.206 256.557 151.486 256.557 151.806C256.557 152.726 255.597 153.846 252.357 155.966Z"></path></g><line stroke="#000000" stroke-width="1.2" x1="257.39655581910995" x2="257.39655581910995" y1="176.92615384615382" y2="121.92615384615382"></line></g></g></svg>