<?xml version="1.0" encoding="UTF-8" standalone="no"?><svg xmlns="http://www.w3.org/2000/svg" height="279.4mm" viewBox="0 0 1328.6153846153845 1719.3846153846152" width="215.9mm"><g transform="translate(163.84615384615387)"><g><g><line stroke="#6A6A6A" stroke-width="1.3" x1="0" x2="775.9003899496787" y1="198.8461538461538" y2="198.8461538461538"></line><line stroke="#6A6A6A" stroke-width="1.3" x1="0" x2="775.9003899496787" y1="188.8461538461538" y2="188.8461538461538"></line><line stroke="#6A6A6A" stroke-width="1.3" x1="0" x2="775.9003899496787" y1="178.8461538461538" y2="178.8461538461538"></line><line stroke="#6A6A6A" stroke-width="1.3" x1="0" x2="775.9003899496787" y1="168.8461538461538" y2="168.8461538461538"></line><line stroke="#6A6A6A" stroke-width="1.3" x1="0" x2="775.9003899496787" y1="158.8461538461538" y2="158.8461538461538"></line></g><g><path d="M25.200 144.926C24.640 144.926 23.400 145.966 22.600 146.846C19.640 150.126 18.680 155.126 18.680 159.286C18.680 161.606 18.960 164.206 19.240 165.846C19.320 166.326 19.360 166.406 18.880 166.806C16.320 168.926 13.560 171.366 11.480 173.926C8.720 177.366 7 181.086 7 185.366C7 192.326 11.760 198.926 21.560 198.926C22.480 198.926 23.520 198.846 24.320 198.686C24.760 198.606 24.840 198.566 24.920 199.046C25.400 201.726 26 205.206 26 207.086C26 213.006 22 213.726 19.640 213.726C17.480 213.726 16.440 213.086 16.440 212.566C16.440 212.126 16.800 212.166 17.720 211.886C18.960 211.526 20.400 210.446 20.400 208.126C20.400 205.926 19 204.046 16.560 204.046C13.880 204.046 12.280 206.166 12.280 208.646C12.280 211.246 13.840 215.166 19.880 215.166C22.560 215.166 27.760 213.966 27.760 207.166C27.760 204.886 27.040 201.086 26.600 198.606C26.520 198.126 26.560 198.166 27.120 197.926C31.160 196.326 33.840 192.926 33.840 188.406C33.840 183.286 30.080 178.766 24.200 178.766C23.080 178.766 23.200 178.966 23.040 178.046L22.040 172.246C21.960 171.766 22.040 171.726 22.280 171.486C22.920 170.886 23.760 170.046 24.520 169.206C27.880 165.526 29.880 160.766 29.880 156.246C29.880 152.766 28.920 149.326 27.280 146.926C26.680 146.046 25.640 144.926 25.200 144.926ZM20.040 173.086C20.440 172.766 20.520 172.806 20.600 173.246L21.440 178.366C21.560 179.126 21.560 179.086 20.840 179.326C17.320 180.526 15.040 183.686 15.040 187.086C15.040 190.686 16.920 193.246 19.640 194.166C19.960 194.286 20.440 194.406 20.720 194.406C21.040 194.406 21.200 194.206 21.200 193.966C21.200 193.686 20.880 193.566 20.600 193.446C18.920 192.726 17.720 191.006 17.720 189.166C17.720 186.886 19.280 185.166 21.720 184.486C22.360 184.326 22.440 184.366 22.520 184.806L24.520 196.726C24.600 197.166 24.560 197.166 23.960 197.286C23.320 197.406 22.520 197.486 21.720 197.486C14.720 197.486 10.200 193.606 10.200 188.046C10.200 185.686 10.600 182.526 13.920 178.766C16.320 176.086 18.160 174.606 20.040 173.086ZM24.640 184.166C27.880 184.446 30.560 187.166 30.560 190.686C30.560 193.206 29.040 195.246 26.800 196.366C26.320 196.606 26.240 196.606 26.160 196.126L24.200 184.726C24.120 184.246 24.160 184.126 24.640 184.166ZM25.800 151.126C27.120 151.126 28.200 152.206 28.200 154.406C28.200 157.166 26.880 159.726 23.760 162.846C23.120 163.486 22.160 164.406 21.240 165.206C20.960 165.446 20.800 165.406 20.720 164.886C20.560 163.846 20.480 162.486 20.480 161.206C20.480 154.966 23.360 151.126 25.800 151.126Z"></path></g><g></g><path d="M57.820 168.806C56.620 168.806 55.220 169.126 54.140 169.606C50.580 171.166 48.700 175.446 48.700 179.246C48.700 179.606 48.700 179.966 48.740 180.326C48.940 182.486 49.980 184.526 51.300 186.126C52.820 187.966 55.020 188.806 57.420 188.806C64.420 188.806 65.460 182.446 65.460 181.286C65.460 180.406 65.020 180.406 64.860 180.406C64.540 180.406 64.260 180.446 64.260 181.126C64.260 186.286 59.860 187.486 58.580 187.486C55.340 187.486 53.620 184.326 53.620 177.726C53.620 171.126 56.660 169.766 58.820 169.766C60.900 169.766 61.740 170.726 61.740 171.126C61.740 171.486 61.620 172.006 61.020 172.006C59.420 172.006 58.500 173.726 58.500 174.966C58.500 177.246 60.460 177.966 61.580 177.966C61.580 177.966 64.620 177.846 64.620 174.526C64.620 169.286 58.580 168.806 57.820 168.806Z"></path></g><g><line stroke="#000000" stroke-width="1.6" x1="766.1003899496786" x2="766.1003899496786" y1="158.8461538461538" y2="198.8461538461538"></line><line stroke="#000000" stroke-width="5" x1="773.4003899496787" x2="773.4003899496787" y1="158.8461538461538" y2="198.8461538461538"></line></g><g><g><path d="M93.360 189.486C97.360 189.486 102.280 185.766 102.280 181.966C102.280 179.686 100.480 178.206 97.880 178.206C92.960 178.206 89 181.846 89 185.726C89 188.086 90.920 189.486 93.360 189.486Z"></path></g><line stroke="#000000" stroke-width="1.2" x1="101.68" x2="101.68" y1="182.0061538461538" y2="82.00615384615381"></line><g><polygon fill="black" points="101.68,86.84615384615381 184.14469925119988,86.84615384615381 184.14469925119988,81.84615384615381 101.68,81.84615384615381" stroke="black" stroke-width="0"></polygon><polygon fill="black" points="184.14469925119988,86.84615384615381 266.60939850239976,86.84615384615381 266.60939850239976,81.84615384615381 184.14469925119988,81.84615384615381" stroke="black" stroke-width="0"></polygon><polygon fill="black" points="266.60939850239976,86.84615384615381 349.07409775359963,86.84615384615381 349.07409775359963,81.84615384615381 266.60939850239976,81.84615384615381" stroke="black" stroke-width="0"></polygon></g></g><g><g><path d="M175.825 179.486C179.825 179.486 184.745 175.766 184.745 171.966C184.745 169.686 182.945 168.206 180.345 168.206C175.425 168.206 171.465 171.846 171.465 175.726C171.465 178.086 173.385 179.486 175.825 179.486Z"></path></g><line stroke="#000000" stroke-width="1.2" x1="184.14469925119988" x2="184.14469925119988" y1="172.0061538461538" y2="82.00615384615381"></line></g><g><g><path d="M258.289 119.486C262.289 119.486 267.209 115.766 267.209 111.966C267.209 109.686 265.409 108.206 262.809 108.206C257.889 108.206 253.929 111.846 253.929 115.726C253.929 118.086 255.849 119.486 258.289 119.486Z"></path></g><line stroke="#000000" stroke-width="1.2" x1="266.60939850239976" x2="266.60939850239976" y1="112.00615384615381" y2="82.00615384615381"></line><line stroke="#000000" stroke-width="2.2" x1="250.7293985023998" x2="272.6493985023998" y1="148.8461538461538" y2="148.8461538461538"></line><line stroke="#000000" stroke-width="2.2" x1="250.7293985023998" x2="272.6493985023998" y1="138.8461538461538" y2="138.8461538461538"></line><line stroke="#000000" stroke-width="2.2" x1="250.7293985023998" x2="272.6493985023998" y1="128.8461538461538" y2="128.8461538461538"></line><line stroke="#000000" stroke-width="2.2" x1="250.7293985023998" x2="272.6493985023998" y1="118.84615384615381" y2="118.84615384615381"></line></g><g><g><path d="M340.754 249.486C344.754 249.486 349.674 245.766 349.674 241.966C349.674 239.686 347.874 238.206 345.274 238.206C340.354 238.206 336.394 241.846 336.394 245.726C336.394 248.086 338.314 249.486 340.754 249.486Z"></path></g><line stroke="#000000" stroke-width="1.2" x1="349.0740977535997" x2="349.0740977535997" y1="242.0061538461538" y2="82.00615384615381"></line><line stroke="#000000" stroke-width="2.2" x1="333.1940977535997" x2="355.1140977535997" y1="208.8461538461538" y2="208.8461538461538"></line><line stroke="#000000" stroke-width="2.2" x1="333.1940977535997" x2="355.1140977535997" y1="218.8461538461538" y2="218.8461538461538"></line><line stroke="#000000" stroke-width="2.2" x1="333.1940977535997" x2="355.1140977535997" y1="228.8461538461538" y2="228.8461538461538"></line><line stroke="#000000" stroke-width="2.2" x1="333.1940977535997" x2="355.1140977535997" y1="238.8461538461538" y2="238.8461538461538"></line></g><g><g><path d="M423.219 254.486C427.219 254.486 432.139 250.766 432.139 246.966C432.139 244.686 430.339 243.206 427.739 243.206C422.819 243.206 418.859 246.846 418.859 250.726C418.859 253.086 420.779 254.486 423.219 254.486Z"></path></g><line stroke="#000000" stroke-width="1.2" x1="431.53879700479956" x2="431.53879700479956" y1="247.0061538461538" y2="117.00615384615381"></line><line stroke="#000000" stroke-width="2.2" x1="415.65879700479957" x2="437.5787970047996" y1="208.8461538461538" y2="208.8461538461538"></line><line stroke="#000000" stroke-width="2.2" x1="415.65879700479957" x2="437.5787970047996" y1="218.8461538461538" y2="218.8461538461538"></line><line stroke="#000000" stroke-width="2.2" x1="415.65879700479957" x2="437.5787970047996" y1="228.8461538461538" y2="228.8461538461538"></line><line stroke="#000000" stroke-width="2.2" x1="415.65879700479957" x2="437.5787970047996" y1="238.8461538461538" y2="238.8461538461538"></line><line stroke="#000000" stroke-width="2.2" x1="415.65879700479957" x2="437.5787970047996" y1="248.8461538461538" y2="248.8461538461538"></line><g><polygon fill="black" points="431.53879700479956,121.84615384615381 514.0034962559994,121.84615384615381 514.0034962559994,116.84615384615381 431.53879700479956,116.84615384615381" stroke="black" stroke-width="0"></polygon></g></g><g><g><path d="M505.683 154.486C509.683 154.486 514.603 150.766 514.603 146.966C514.603 144.686 512.803 143.206 510.203 143.206C505.283 143.206 501.323 146.846 501.323 150.726C501.323 153.086 503.243 154.486 505.683 154.486Z"></path></g><line stroke="#000000" stroke-width="1.2" x1="514.0034962559994" x2="514.0034962559994" y1="147.0061538461538" y2="117.00615384615381"></line><line stroke="#000000" stroke-width="2.2" x1="498.12349625599944" x2="520.0434962559993" y1="148.8461538461538" y2="148.8461538461538"></line></g><g><g><path d="M588.148 154.486C592.148 154.486 597.068 150.766 597.068 146.966C597.068 144.686 595.268 143.206 592.668 143.206C587.748 143.206 583.788 146.846 583.788 150.726C583.788 153.086 585.708 154.486 588.148 154.486Z"></path></g><line stroke="#000000" stroke-width="1.2" x1="584.3881955071994" x2="584.3881955071994" y1="150.68615384615381" y2="251.68615384615381"></line><line stroke="#000000" stroke-width="2.2" x1="580.5881955071993" x2="602.5081955071993" y1="148.8461538461538" y2="148.8461538461538"></line><g><polygon fill="black" points="584.3881955071994,252.8461538461538 666.8528947583992,252.8461538461538 666.8528947583992,247.8461538461538 584.3881955071994,247.8461538461538" stroke="black" stroke-width="0"></polygon><polygon fill="black" points="666.8528947583992,252.8461538461538 716.376642354039,252.8461538461538 716.376642354039,247.8461538461538 666.8528947583992,247.8461538461538" stroke="black" stroke-width="0"></polygon><polygon fill="black" points="666.8528947583992,244.0461538461538 716.376642354039,244.0461538461538 716.376642354039,239.0461538461538 666.8528947583992,239.0461538461538" stroke="black" stroke-width="0"></polygon></g></g><g><g><path d="M670.613 219.486C674.613 219.486 679.533 215.766 679.533 211.966C679.533 209.686 677.733 208.206 675.133 208.206C670.213 208.206 666.253 211.846 666.253 215.726C666.253 218.086 668.173 219.486 670.613 219.486Z"></path></g><line stroke="#000000" stroke-width="1.2" x1="666.8528947583992" x2="666.8528947583992" y1="215.68615384615381" y2="251.68615384615381"></line><line stroke="#000000" stroke-width="2.2" x1="663.0528947583991" x2="684.9728947583991" y1="208.8461538461538" y2="208.8461538461538"></line></g><g><g><path d="M720.137 214.486C724.137 214.486 729.057 210.766 729.057 206.966C729.057 204.686 727.257 203.206 724.657 203.206C719.737 203.206 715.777 206.846 715.777 210.726C715.777 213.086 717.697 214.486 720.137 214.486Z"></path></g><line stroke="#000000" stroke-width="1.2" x1="716.376642354039" x2="716.376642354039" y1="210.68615384615381" y2="251.68615384615381"></line><line stroke="#000000" stroke-width="2.2" x1="712.5766423540389" x2="734.4966423540388" y1="208.8461538461538" y2="208.8461538461538"></line></g></g></svg>