<?xml version="1.0" encoding="UTF-8" standalone="no"?><svg xmlns="http://www.w3.org/2000/svg" height="279.4mm" viewBox="0 0 1328.6153846153845 1719.3846153846152" width="215.9mm"><g transform="translate(163.84615384615387)"><g><g><line stroke="#6A6A6A" stroke-width="1.3" x1="0" x2="126.81292340943352" y1="183.8461538461538" y2="183.8461538461538"></line><line stroke="#6A6A6A" stroke-width="1.3" x1="0" x2="126.81292340943352" y1="173.8461538461538" y2="173.8461538461538"></line><line stroke="#6A6A6A" stroke-width="1.3" x1="0" x2="126.81292340943352" y1="163.8461538461538" y2="163.8461538461538"></line><line stroke="#6A6A6A" stroke-width="1.3" x1="0" x2="126.81292340943352" y1="153.8461538461538" y2="153.8461538461538"></line><line stroke="#6A6A6A" stroke-width="1.3" x1="0" x2="126.81292340943352" y1="143.8461538461538" y2="143.8461538461538"></line></g><g><path d="M25.200 129.926C24.640 129.926 23.400 130.966 22.600 131.846C19.640 135.126 18.680 140.126 18.680 144.286C18.680 146.606 18.960 149.206 19.240 150.846C19.320 151.326 19.360 151.406 18.880 151.806C16.320 153.926 13.560 156.366 11.480 158.926C8.720 162.366 7 166.086 7 170.366C7 177.326 11.760 183.926 21.560 183.926C22.480 183.926 23.520 183.846 24.320 183.686C24.760 183.606 24.840 183.566 24.920 184.046C25.400 186.726 26 190.206 26 192.086C26 198.006 22 198.726 19.640 198.726C17.480 198.726 16.440 198.086 16.440 197.566C16.440 197.126 16.800 197.166 17.720 196.886C18.960 196.526 20.400 195.446 20.400 193.126C20.400 190.926 19 189.046 16.560 189.046C13.880 189.046 12.280 191.166 12.280 193.646C12.280 196.246 13.840 200.166 19.880 200.166C22.560 200.166 27.760 198.966 27.760 192.166C27.760 189.886 27.040 186.086 26.600 183.606C26.520 183.126 26.560 183.166 27.120 182.926C31.160 181.326 33.840 177.926 33.840 173.406C33.840 168.286 30.080 163.766 24.200 163.766C23.080 163.766 23.200 163.966 23.040 163.046L22.040 157.246C21.960 156.766 22.040 156.726 22.280 156.486C22.920 155.886 23.760 155.046 24.520 154.206C27.880 150.526 29.880 145.766 29.880 141.246C29.880 137.766 28.920 134.326 27.280 131.926C26.680 131.046 25.640 129.926 25.200 129.926ZM20.040 158.086C20.440 157.766 20.520 157.806 20.600 158.246L21.440 163.366C21.560 164.126 21.560 164.086 20.840 164.326C17.320 165.526 15.040 168.686 15.040 172.086C15.040 175.686 16.920 178.246 19.640 179.166C19.960 179.286 20.440 179.406 20.720 179.406C21.040 179.406 21.200 179.206 21.200 178.966C21.200 178.686 20.880 178.566 20.600 178.446C18.920 177.726 17.720 176.006 17.720 174.166C17.720 171.886 19.280 170.166 21.720 169.486C22.360 169.326 22.440 169.366 22.520 169.806L24.520 181.726C24.600 182.166 24.560 182.166 23.960 182.286C23.320 182.406 22.520 182.486 21.720 182.486C14.720 182.486 10.200 178.606 10.200 173.046C10.200 170.686 10.600 167.526 13.920 163.766C16.320 161.086 18.160 159.606 20.040 158.086ZM24.640 169.166C27.880 169.446 30.560 172.166 30.560 175.686C30.560 178.206 29.040 180.246 26.800 181.366C26.320 181.606 26.240 181.606 26.160 181.126L24.200 169.726C24.120 169.246 24.160 169.126 24.640 169.166ZM25.800 136.126C27.120 136.126 28.200 137.206 28.200 139.406C28.200 142.166 26.880 144.726 23.760 147.846C23.120 148.486 22.160 149.406 21.240 150.206C20.960 150.446 20.800 150.406 20.720 149.886C20.560 148.846 20.480 147.486 20.480 146.206C20.480 139.966 23.360 136.126 25.800 136.126Z"></path></g><g></g><path d="M57.820 153.806C56.620 153.806 55.220 154.126 54.140 154.606C50.580 156.166 48.700 160.446 48.700 164.246C48.700 164.606 48.700 164.966 48.740 165.326C48.940 167.486 49.980 169.526 51.300 171.126C52.820 172.966 55.020 173.806 57.420 173.806C64.420 173.806 65.460 167.446 65.460 166.286C65.460 165.406 65.020 165.406 64.860 165.406C64.540 165.406 64.260 165.446 64.260 166.126C64.260 171.286 59.860 172.486 58.580 172.486C55.340 172.486 53.620 169.326 53.620 162.726C53.620 156.126 56.660 154.766 58.820 154.766C60.900 154.766 61.740 155.726 61.740 156.126C61.740 156.486 61.620 157.006 61.020 157.006C59.420 157.006 58.500 158.726 58.500 159.966C58.500 162.246 60.460 162.966 61.580 162.966C61.580 162.966 64.620 162.846 64.620 159.526C64.620 154.286 58.580 153.806 57.820 153.806Z"></path></g><g><line stroke="black" stroke-width="1.6" x1="127.61292340943352" x2="127.61292340943352" y1="143.8461538461538" y2="183.8461538461538"></line></g><g><g><path d="M98.400 188.366C92.600 188.366 89 190.806 89 193.766C89 196.686 91.480 199.286 97.960 199.286C105.080 199.286 107.360 196.806 107.360 193.766C107.360 190.686 102.440 188.366 98.400 188.366ZM93.840 191.086C94.320 189.606 95.920 189.366 97.280 189.366C100.240 189.366 102.640 192.566 102.640 195.206C102.640 195.486 102.600 195.766 102.560 196.006C102.360 197.086 101.720 197.846 100.640 198.126C100.200 198.246 99.760 198.286 99.320 198.286C98.920 198.286 98.560 198.246 98.160 198.126C97.440 197.886 96.720 197.486 96.120 196.966C95.800 196.686 95.480 196.366 95.200 196.006C94.360 195.006 93.680 193.526 93.680 192.166C93.680 191.806 93.720 191.446 93.840 191.086Z"></path></g><line stroke="#000000" stroke-width="2.2" x1="85.8" x2="112.6" y1="193.8461538461538" y2="193.8461538461538"></line></g></g><g transform="translate(307.2590772555874)"><g><g><line stroke="#6A6A6A" stroke-width="1.3" x1="-16.599999999999994" x2="927.5101535136442" y1="183.8461538461538" y2="183.8461538461538"></line><line stroke="#6A6A6A" stroke-width="1.3" x1="-16.599999999999994" x2="927.5101535136442" y1="173.8461538461538" y2="173.8461538461538"></line><line stroke="#6A6A6A" stroke-width="1.3" x1="-16.599999999999994" x2="927.5101535136442" y1="163.8461538461538" y2="163.8461538461538"></line><line stroke="#6A6A6A" stroke-width="1.3" x1="-16.599999999999994" x2="927.5101535136442" y1="153.8461538461538" y2="153.8461538461538"></line><line stroke="#6A6A6A" stroke-width="1.3" x1="-16.599999999999994" x2="927.5101535136442" y1="143.8461538461538" y2="143.8461538461538"></line></g></g><g><line stroke="black" stroke-width="1.6" x1="38.61292340943352" x2="38.61292340943352" y1="143.8461538461538" y2="183.8461538461538"></line></g><g><g><path d="M9.400 188.366C3.600 188.366 0 190.806 0 193.766C0 196.686 2.480 199.286 8.960 199.286C16.080 199.286 18.360 196.806 18.360 193.766C18.360 190.686 13.440 188.366 9.400 188.366ZM4.840 191.086C5.320 189.606 6.920 189.366 8.280 189.366C11.240 189.366 13.640 192.566 13.640 195.206C13.640 195.486 13.600 195.766 13.560 196.006C13.360 197.086 12.720 197.846 11.640 198.126C11.200 198.246 10.760 198.286 10.320 198.286C9.920 198.286 9.560 198.246 9.160 198.126C8.440 197.886 7.720 197.486 7.120 196.966C6.800 196.686 6.480 196.366 6.200 196.006C5.360 195.006 4.680 193.526 4.680 192.166C4.680 191.806 4.720 191.446 4.840 191.086Z"></path></g><line stroke="#000000" stroke-width="2.2" x1="-3.2" x2="23.599999999999998" y1="193.8461538461538" y2="193.8461538461538"></line></g></g><g transform="translate(361.67200066502096)"><g></g><g></g><g><line stroke="black" stroke-width="1.6" x1="47.10337896270746" x2="47.10337896270746" y1="143.8461538461538" y2="183.8461538461538"></line></g><g><g><path d="M4.480 199.646C12.120 199.646 13.640 193.446 13.640 191.926C13.640 189.566 11.760 188.046 9.080 188.046C2.160 188.046 0 193.406 0 195.806C0 198.246 1.960 199.646 4.480 199.646ZM8 195.966C5.920 197.366 4.480 197.846 3.480 197.846C2.520 197.846 1.960 197.366 1.640 196.806C1.480 196.526 1.360 196.206 1.360 195.886C1.360 194.886 2.360 193.606 5.560 191.766C7.840 190.446 9.280 189.966 10.240 189.966C11.120 189.966 11.600 190.366 11.920 190.926C12.080 191.206 12.200 191.486 12.200 191.806C12.200 192.726 11.240 193.846 8 195.966Z"></path></g><line stroke="#000000" stroke-width="1.2" x1="13.040000000000001" x2="13.040000000000001" y1="191.92615384615382" y2="156.92615384615382"></line><line stroke="#000000" stroke-width="2.2" x1="-3.2" x2="19.24" y1="193.8461538461538" y2="193.8461538461538"></line></g><g><g><path d="M27.632 199.646C35.272 199.646 36.792 193.446 36.792 191.926C36.792 189.566 34.912 188.046 32.232 188.046C25.312 188.046 23.152 193.406 23.152 195.806C23.152 198.246 25.112 199.646 27.632 199.646ZM31.152 195.966C29.072 197.366 27.632 197.846 26.632 197.846C25.672 197.846 25.112 197.366 24.792 196.806C24.632 196.526 24.512 196.206 24.512 195.886C24.512 194.886 25.512 193.606 28.712 191.766C30.992 190.446 32.432 189.966 33.392 189.966C34.272 189.966 34.752 190.366 35.072 190.926C35.232 191.206 35.352 191.486 35.352 191.806C35.352 192.726 34.392 193.846 31.152 195.966Z"></path></g><line stroke="#000000" stroke-width="1.2" x1="36.191689481353734" x2="36.191689481353734" y1="191.92615384615382" y2="156.92615384615382"></line><line stroke="#000000" stroke-width="2.2" x1="19.951689481353732" x2="42.39168948135372" y1="193.8461538461538" y2="193.8461538461538"></line></g></g><g transform="translate(424.57537962772835)"><g></g><g><line stroke="black" stroke-width="1.6" x1="38.61292340943352" x2="38.61292340943352" y1="143.8461538461538" y2="183.8461538461538"></line></g><g><g><path d="M9.400 188.366C3.600 188.366 0 190.806 0 193.766C0 196.686 2.480 199.286 8.960 199.286C16.080 199.286 18.360 196.806 18.360 193.766C18.360 190.686 13.440 188.366 9.400 188.366ZM4.840 191.086C5.320 189.606 6.920 189.366 8.280 189.366C11.240 189.366 13.640 192.566 13.640 195.206C13.640 195.486 13.600 195.766 13.560 196.006C13.360 197.086 12.720 197.846 11.640 198.126C11.200 198.246 10.760 198.286 10.320 198.286C9.920 198.286 9.560 198.246 9.160 198.126C8.440 197.886 7.720 197.486 7.120 196.966C6.800 196.686 6.480 196.366 6.200 196.006C5.360 195.006 4.680 193.526 4.680 192.166C4.680 191.806 4.720 191.446 4.840 191.086Z"></path></g><line stroke="#000000" stroke-width="2.2" x1="-3.2" x2="23.599999999999998" y1="193.8461538461538" y2="193.8461538461538"></line></g></g><g transform="translate(478.98830303716187)"><g></g><g><line stroke="black" stroke-width="1.6" x1="38.61292340943352" x2="38.61292340943352" y1="143.8461538461538" y2="183.8461538461538"></line></g><g><g><path d="M9.400 188.366C3.600 188.366 0 190.806 0 193.766C0 196.686 2.480 199.286 8.960 199.286C16.080 199.286 18.360 196.806 18.360 193.766C18.360 190.686 13.440 188.366 9.400 188.366ZM4.840 191.086C5.320 189.606 6.920 189.366 8.280 189.366C11.240 189.366 13.640 192.566 13.640 195.206C13.640 195.486 13.600 195.766 13.560 196.006C13.360 197.086 12.720 197.846 11.640 198.126C11.200 198.246 10.760 198.286 10.320 198.286C9.920 198.286 9.560 198.246 9.160 198.126C8.440 197.886 7.720 197.486 7.120 196.966C6.800 196.686 6.480 196.366 6.200 196.006C5.360 195.006 4.680 193.526 4.680 192.166C4.680 191.806 4.720 191.446 4.840 191.086Z"></path></g><line stroke="#000000" stroke-width="2.2" x1="-3.2" x2="23.599999999999998" y1="193.8461538461538" y2="193.8461538461538"></line></g></g><g transform="translate(533.4012264465954)"><g></g><g><line stroke="black" stroke-width="1.6" x1="38.61292340943352" x2="38.61292340943352" y1="143.8461538461538" y2="183.8461538461538"></line></g><g><g><path d="M9.400 188.366C3.600 188.366 0 190.806 0 193.766C0 196.686 2.480 199.286 8.960 199.286C16.080 199.286 18.360 196.806 18.360 193.766C18.360 190.686 13.440 188.366 9.400 188.366ZM4.840 191.086C5.320 189.606 6.920 189.366 8.280 189.366C11.240 189.366 13.640 192.566 13.640 195.206C13.640 195.486 13.600 195.766 13.560 196.006C13.360 197.086 12.720 197.846 11.640 198.126C11.200 198.246 10.760 198.286 10.320 198.286C9.920 198.286 9.560 198.246 9.160 198.126C8.440 197.886 7.720 197.486 7.120 196.966C6.800 196.686 6.480 196.366 6.200 196.006C5.360 195.006 4.680 193.526 4.680 192.166C4.680 191.806 4.720 191.446 4.840 191.086Z"></path></g><line stroke="#000000" stroke-width="2.2" x1="-3.2" x2="23.599999999999998" y1="193.8461538461538" y2="193.8461538461538"></line></g></g><g transform="translate(587.8141498560288)"><g></g><g><line stroke="black" stroke-width="1.6" x1="38.61292340943352" x2="38.61292340943352" y1="143.8461538461538" y2="183.8461538461538"></line></g><g><g><path d="M9.400 188.366C3.600 188.366 0 190.806 0 193.766C0 196.686 2.480 199.286 8.960 199.286C16.080 199.286 18.360 196.806 18.360 193.766C18.360 190.686 13.440 188.366 9.400 188.366ZM4.840 191.086C5.320 189.606 6.920 189.366 8.280 189.366C11.240 189.366 13.640 192.566 13.640 195.206C13.640 195.486 13.600 195.766 13.560 196.006C13.360 197.086 12.720 197.846 11.640 198.126C11.200 198.246 10.760 198.286 10.320 198.286C9.920 198.286 9.560 198.246 9.160 198.126C8.440 197.886 7.720 197.486 7.120 196.966C6.800 196.686 6.480 196.366 6.200 196.006C5.360 195.006 4.680 193.526 4.680 192.166C4.680 191.806 4.720 191.446 4.840 191.086Z"></path></g><line stroke="#000000" stroke-width="2.2" x1="-3.2" x2="23.599999999999998" y1="193.8461538461538" y2="193.8461538461538"></line></g></g><g transform="translate(642.2270732654623)"><g></g><g><line stroke="black" stroke-width="1.6" x1="38.61292340943352" x2="38.61292340943352" y1="143.8461538461538" y2="183.8461538461538"></line></g><g><g><path d="M9.400 188.366C3.600 188.366 0 190.806 0 193.766C0 196.686 2.480 199.286 8.960 199.286C16.080 199.286 18.360 196.806 18.360 193.766C18.360 190.686 13.440 188.366 9.400 188.366ZM4.840 191.086C5.320 189.606 6.920 189.366 8.280 189.366C11.240 189.366 13.640 192.566 13.640 195.206C13.640 195.486 13.600 195.766 13.560 196.006C13.360 197.086 12.720 197.846 11.640 198.126C11.200 198.246 10.760 198.286 10.320 198.286C9.920 198.286 9.560 198.246 9.160 198.126C8.440 197.886 7.720 197.486 7.120 196.966C6.800 196.686 6.480 196.366 6.200 196.006C5.360 195.006 4.680 193.526 4.680 192.166C4.680 191.806 4.720 191.446 4.840 191.086Z"></path></g><line stroke="#000000" stroke-width="2.2" x1="-3.2" x2="23.599999999999998" y1="193.8461538461538" y2="193.8461538461538"></line></g></g><g transform="translate(696.6399966748958)"><g></g><g><line stroke="black" stroke-width="1.6" x1="38.61292340943352" x2="38.61292340943352" y1="143.8461538461538" y2="183.8461538461538"></line></g><g><g><path d="M9.400 188.366C3.600 188.366 0 190.806 0 193.766C0 196.686 2.480 199.286 8.960 199.286C16.080 199.286 18.360 196.806 18.360 193.766C18.360 190.686 13.440 188.366 9.400 188.366ZM4.840 191.086C5.320 189.606 6.920 189.366 8.280 189.366C11.240 189.366 13.640 192.566 13.640 195.206C13.640 195.486 13.600 195.766 13.560 196.006C13.360 197.086 12.720 197.846 11.640 198.126C11.200 198.246 10.760 198.286 10.320 198.286C9.920 198.286 9.560 198.246 9.160 198.126C8.440 197.886 7.720 197.486 7.120 196.966C6.800 196.686 6.480 196.366 6.200 196.006C5.360 195.006 4.680 193.526 4.680 192.166C4.680 191.806 4.720 191.446 4.840 191.086Z"></path></g><line stroke="#000000" stroke-width="2.2" x1="-3.2" x2="23.599999999999998" y1="193.8461538461538" y2="193.8461538461538"></line></g></g><g transform="translate(751.0529200843293)"><g></g><g><line stroke="black" stroke-width="1.6" x1="38.61292340943352" x2="38.61292340943352" y1="143.8461538461538" y2="183.8461538461538"></line></g><g><g><path d="M9.400 188.366C3.600 188.366 0 190.806 0 193.766C0 196.686 2.480 199.286 8.960 199.286C16.080 199.286 18.360 196.806 18.360 193.766C18.360 190.686 13.440 188.366 9.400 188.366ZM4.840 191.086C5.320 189.606 6.920 189.366 8.280 189.366C11.240 189.366 13.640 192.566 13.640 195.206C13.640 195.486 13.600 195.766 13.560 196.006C13.360 197.086 12.720 197.846 11.640 198.126C11.200 198.246 10.760 198.286 10.320 198.286C9.920 198.286 9.560 198.246 9.160 198.126C8.440 197.886 7.720 197.486 7.120 196.966C6.800 196.686 6.480 196.366 6.200 196.006C5.360 195.006 4.680 193.526 4.680 192.166C4.680 191.806 4.720 191.446 4.840 191.086Z"></path></g><line stroke="#000000" stroke-width="2.2" x1="-3.2" x2="23.599999999999998" y1="193.8461538461538" y2="193.8461538461538"></line></g></g><g transform="translate(805.4658434937628)"><g></g><g><line stroke="black" stroke-width="1.6" x1="38.61292340943352" x2="38.61292340943352" y1="143.8461538461538" y2="183.8461538461538"></line></g><g><g><path d="M9.400 188.366C3.600 188.366 0 190.806 0 193.766C0 196.686 2.480 199.286 8.960 199.286C16.080 199.286 18.360 196.806 18.360 193.766C18.360 190.686 13.440 188.366 9.400 188.366ZM4.840 191.086C5.320 189.606 6.920 189.366 8.280 189.366C11.240 189.366 13.640 192.566 13.640 195.206C13.640 195.486 13.600 195.766 13.560 196.006C13.360 197.086 12.720 197.846 11.640 198.126C11.200 198.246 10.760 198.286 10.320 198.286C9.920 198.286 9.560 198.246 9.160 198.126C8.440 197.886 7.720 197.486 7.120 196.966C6.800 196.686 6.480 196.366 6.200 196.006C5.360 195.006 4.680 193.526 4.680 192.166C4.680 191.806 4.720 191.446 4.840 191.086Z"></path></g><line stroke="#000000" stroke-width="2.2" x1="-3.2" x2="23.599999999999998" y1="193.8461538461538" y2="193.8461538461538"></line></g></g><g transform="translate(859.8787669031963)"><g></g><g><line stroke="black" stroke-width="1.6" x1="38.61292340943352" x2="38.61292340943352" y1="143.8461538461538" y2="183.8461538461538"></line></g><g><g><path d="M9.400 188.366C3.600 188.366 0 190.806 0 193.766C0 196.686 2.480 199.286 8.960 199.286C16.080 199.286 18.360 196.806 18.360 193.766C18.360 190.686 13.440 188.366 9.400 188.366ZM4.840 191.086C5.320 189.606 6.920 189.366 8.280 189.366C11.240 189.366 13.640 192.566 13.640 195.206C13.640 195.486 13.600 195.766 13.560 196.006C13.360 197.086 12.720 197.846 11.640 198.126C11.200 198.246 10.760 198.286 10.320 198.286C9.920 198.286 9.560 198.246 9.160 198.126C8.440 197.886 7.720 197.486 7.120 196.966C6.800 196.686 6.480 196.366 6.200 196.006C5.360 195.006 4.680 193.526 4.680 192.166C4.680 191.806 4.720 191.446 4.840 191.086Z"></path></g><line stroke="#000000" stroke-width="2.2" x1="-3.2" x2="23.599999999999998" y1="193.8461538461538" y2="193.8461538461538"></line></g></g><g transform="translate(914.2916903126297)"><g></g><g><line stroke="black" stroke-width="1.6" x1="38.61292340943352" x2="38.61292340943352" y1="143.8461538461538" y2="183.8461538461538"></line></g><g><g><path d="M9.400 188.366C3.600 188.366 0 190.806 0 193.766C0 196.686 2.480 199.286 8.960 199.286C16.080 199.286 18.360 196.806 18.360 193.766C18.360 190.686 13.440 188.366 9.400 188.366ZM4.840 191.086C5.320 189.606 6.920 189.366 8.280 189.366C11.240 189.366 13.640 192.566 13.640 195.206C13.640 195.486 13.600 195.766 13.560 196.006C13.360 197.086 12.720 197.846 11.640 198.126C11.200 198.246 10.760 198.286 10.320 198.286C9.920 198.286 9.560 198.246 9.160 198.126C8.440 197.886 7.720 197.486 7.120 196.966C6.800 196.686 6.480 196.366 6.200 196.006C5.360 195.006 4.680 193.526 4.680 192.166C4.680 191.806 4.720 191.446 4.840 191.086Z"></path></g><line stroke="#000000" stroke-width="2.2" x1="-3.2" x2="23.599999999999998" y1="193.8461538461538" y2="193.8461538461538"></line></g></g><g transform="translate(968.7046137220632)"><g></g><g><line stroke="black" stroke-width="1.6" x1="38.61292340943352" x2="38.61292340943352" y1="143.8461538461538" y2="183.8461538461538"></line></g><g><g><path d="M9.400 188.366C3.600 188.366 0 190.806 0 193.766C0 196.686 2.480 199.286 8.960 199.286C16.080 199.286 18.360 196.806 18.360 193.766C18.360 190.686 13.440 188.366 9.400 188.366ZM4.840 191.086C5.320 189.606 6.920 189.366 8.280 189.366C11.240 189.366 13.640 192.566 13.640 195.206C13.640 195.486 13.600 195.766 13.560 196.006C13.360 197.086 12.720 197.846 11.640 198.126C11.200 198.246 10.760 198.286 10.320 198.286C9.920 198.286 9.560 198.246 9.160 198.126C8.440 197.886 7.720 197.486 7.120 196.966C6.800 196.686 6.480 196.366 6.200 196.006C5.360 195.006 4.680 193.526 4.680 192.166C4.680 191.806 4.720 191.446 4.840 191.086Z"></path></g><line stroke="#000000" stroke-width="2.2" x1="-3.2" x2="23.599999999999998" y1="193.8461538461538" y2="193.8461538461538"></line></g></g><g transform="translate(1023.1175371314968)"><g></g><g><line stroke="black" stroke-width="1.6" x1="38.61292340943352" x2="38.61292340943352" y1="143.8461538461538" y2="183.8461538461538"></line></g><g><g><path d="M9.400 188.366C3.600 188.366 0 190.806 0 193.766C0 196.686 2.480 199.286 8.960 199.286C16.080 199.286 18.360 196.806 18.360 193.766C18.360 190.686 13.440 188.366 9.400 188.366ZM4.840 191.086C5.320 189.606 6.920 189.366 8.280 189.366C11.240 189.366 13.640 192.566 13.640 195.206C13.640 195.486 13.600 195.766 13.560 196.006C13.360 197.086 12.720 197.846 11.640 198.126C11.200 198.246 10.760 198.286 10.320 198.286C9.920 198.286 9.560 198.246 9.160 198.126C8.440 197.886 7.720 197.486 7.120 196.966C6.800 196.686 6.480 196.366 6.200 196.006C5.360 195.006 4.680 193.526 4.680 192.166C4.680 191.806 4.720 191.446 4.840 191.086Z"></path></g><line stroke="#000000" stroke-width="2.2" x1="-3.2" x2="23.599999999999998" y1="193.8461538461538" y2="193.8461538461538"></line></g></g><g transform="translate(1077.53046054093)"><g></g><g><line stroke="black" stroke-width="1.6" x1="38.61292340943352" x2="38.61292340943352" y1="143.8461538461538" y2="183.8461538461538"></line></g><g><g><path d="M9.400 188.366C3.600 188.366 0 190.806 0 193.766C0 196.686 2.480 199.286 8.960 199.286C16.080 199.286 18.360 196.806 18.360 193.766C18.360 190.686 13.440 188.366 9.400 188.366ZM4.840 191.086C5.320 189.606 6.920 189.366 8.280 189.366C11.240 189.366 13.640 192.566 13.640 195.206C13.640 195.486 13.600 195.766 13.560 196.006C13.360 197.086 12.720 197.846 11.640 198.126C11.200 198.246 10.760 198.286 10.320 198.286C9.920 198.286 9.560 198.246 9.160 198.126C8.440 197.886 7.720 197.486 7.120 196.966C6.800 196.686 6.480 196.366 6.200 196.006C5.360 195.006 4.680 193.526 4.680 192.166C4.680 191.806 4.720 191.446 4.840 191.086Z"></path></g><line stroke="#000000" stroke-width="2.2" x1="-3.2" x2="23.599999999999998" y1="193.8461538461538" y2="193.8461538461538"></line></g></g><g transform="translate(1131.9433839503638)"><g></g><g><line stroke="black" stroke-width="1.6" x1="38.61292340943352" x2="38.61292340943352" y1="143.8461538461538" y2="183.8461538461538"></line></g><g><g><path d="M9.400 188.366C3.600 188.366 0 190.806 0 193.766C0 196.686 2.480 199.286 8.960 199.286C16.080 199.286 18.360 196.806 18.360 193.766C18.360 190.686 13.440 188.366 9.400 188.366ZM4.840 191.086C5.320 189.606 6.920 189.366 8.280 189.366C11.240 189.366 13.640 192.566 13.640 195.206C13.640 195.486 13.600 195.766 13.560 196.006C13.360 197.086 12.720 197.846 11.640 198.126C11.200 198.246 10.760 198.286 10.320 198.286C9.920 198.286 9.560 198.246 9.160 198.126C8.440 197.886 7.720 197.486 7.120 196.966C6.800 196.686 6.480 196.366 6.200 196.006C5.360 195.006 4.680 193.526 4.680 192.166C4.680 191.806 4.720 191.446 4.840 191.086Z"></path></g><line stroke="#000000" stroke-width="2.2" x1="-3.2" x2="23.599999999999998" y1="193.8461538461538" y2="193.8461538461538"></line></g></g><g transform="translate(1186.3563073597973)"><g></g><g><line stroke="#000000" stroke-width="1.6" x1="38.61292340943352" x2="38.61292340943352" y1="143.8461538461538" y2="183.8461538461538"></line><line stroke="#000000" stroke-width="5" x1="45.912923409433525" x2="45.912923409433525" y1="143.8461538461538" y2="183.8461538461538"></line></g><g><g><path d="M9.400 188.366C3.600 188.366 0 190.806 0 193.766C0 196.686 2.480 199.286 8.960 199.286C16.080 199.286 18.360 196.806 18.360 193.766C18.360 190.686 13.440 188.366 9.400 188.366ZM4.840 191.086C5.320 189.606 6.920 189.366 8.280 189.366C11.240 189.366 13.640 192.566 13.640 195.206C13.640 195.486 13.600 195.766 13.560 196.006C13.360 197.086 12.720 197.846 11.640 198.126C11.200 198.246 10.760 198.286 10.320 198.286C9.920 198.286 9.560 198.246 9.160 198.126C8.440 197.886 7.720 197.486 7.120 196.966C6.800 196.686 6.480 196.366 6.200 196.006C5.360 195.006 4.680 193.526 4.680 192.166C4.680 191.806 4.720 191.446 4.840 191.086Z"></path></g><line stroke="#000000" stroke-width="2.2" x1="-3.2" x2="23.599999999999998" y1="193.8461538461538" y2="193.8461538461538"></line></g></g></svg>