<?xml version="1.0" encoding="UTF-8" standalone="no"?><svg xmlns="http://www.w3.org/2000/svg" height="279.4mm" viewBox="0 0 1328.6153846153845 1719.3846153846152" width="215.9mm"><g transform="translate(93.84615384615385)"><g><g><line stroke="#6A6A6A" stroke-width="1.3" x1="0" x2="2000.5039257520714" y1="183.8461538461538" y2="183.8461538461538"></line><line stroke="#6A6A6A" stroke-width="1.3" x1="0" x2="2000.5039257520714" y1="173.8461538461538" y2="173.8461538461538"></line><line stroke="#6A6A6A" stroke-width="1.3" x1="0" x2="2000.5039257520714" y1="163.8461538461538" y2="163.8461538461538"></line><line stroke="#6A6A6A" stroke-width="1.3" x1="0" x2="2000.5039257520714" y1="153.8461538461538" y2="153.8461538461538"></line><line stroke="#6A6A6A" stroke-width="1.3" x1="0" x2="2000.5039257520714" y1="143.8461538461538" y2="143.8461538461538"></line></g><g><path d="M25.200 129.926C24.640 129.926 23.400 130.966 22.600 131.846C19.640 135.126 18.680 140.126 18.680 144.286C18.680 146.606 18.960 149.206 19.240 150.846C19.320 151.326 19.360 151.406 18.880 151.806C16.320 153.926 13.560 156.366 11.480 158.926C8.720 162.366 7 166.086 7 170.366C7 177.326 11.760 183.926 21.560 183.926C22.480 183.926 23.520 183.846 24.320 183.686C24.760 183.606 24.840 183.566 24.920 184.046C25.400 186.726 26 190.206 26 192.086C26 198.006 22 198.726 19.640 198.726C17.480 198.726 16.440 198.086 16.440 197.566C16.440 197.126 16.800 197.166 17.720 196.886C18.960 196.526 20.400 195.446 20.400 193.126C20.400 190.926 19 189.046 16.560 189.046C13.880 189.046 12.280 191.166 12.280 193.646C12.280 196.246 13.840 200.166 19.880 200.166C22.560 200.166 27.760 198.966 27.760 192.166C27.760 189.886 27.040 186.086 26.600 183.606C26.520 183.126 26.560 183.166 27.120 182.926C31.160 181.326 33.840 177.926 33.840 173.406C33.840 168.286 30.080 163.766 24.200 163.766C23.080 163.766 23.200 163.966 23.040 163.046L22.040 157.246C21.960 156.766 22.040 156.726 22.280 156.486C22.920 155.886 23.760 155.046 24.520 154.206C27.880 150.526 29.880 145.766 29.880 141.246C29.880 137.766 28.920 134.326 27.280 131.926C26.680 131.046 25.640 129.926 25.200 129.926ZM20.040 158.086C20.440 157.766 20.520 157.806 20.600 158.246L21.440 163.366C21.560 164.126 21.560 164.086 20.840 164.326C17.320 165.526 15.040 168.686 15.040 172.086C15.040 175.686 16.920 178.246 19.640 179.166C19.960 179.286 20.440 179.406 20.720 179.406C21.040 179.406 21.200 179.206 21.200 178.966C21.200 178.686 20.880 178.566 20.600 178.446C18.920 177.726 17.720 176.006 17.720 174.166C17.720 171.886 19.280 170.166 21.720 169.486C22.360 169.326 22.440 169.366 22.520 169.806L24.520 181.726C24.600 182.166 24.560 182.166 23.960 182.286C23.320 182.406 22.520 182.486 21.720 182.486C14.720 182.486 10.200 178.606 10.200 173.046C10.200 170.686 10.600 167.526 13.920 163.766C16.320 161.086 18.160 159.606 20.040 158.086ZM24.640 169.166C27.880 169.446 30.560 172.166 30.560 175.686C30.560 178.206 29.040 180.246 26.800 181.366C26.320 181.606 26.240 181.606 26.160 181.126L24.200 169.726C24.120 169.246 24.160 169.126 24.640 169.166ZM25.800 136.126C27.120 136.126 28.200 137.206 28.200 139.406C28.200 142.166 26.880 144.726 23.760 147.846C23.120 148.486 22.160 149.406 21.240 150.206C20.960 150.446 20.800 150.406 20.720 149.886C20.560 148.846 20.480 147.486 20.480 146.206C20.480 139.966 23.360 136.126 25.800 136.126Z"></path></g><g></g><path d="M57.820 153.806C56.620 153.806 55.220 154.126 54.140 154.606C50.580 156.166 48.700 160.446 48.700 164.246C48.700 164.606 48.700 164.966 48.740 165.326C48.940 167.486 49.980 169.526 51.300 171.126C52.820 172.966 55.020 173.806 57.420 173.806C64.420 173.806 65.460 167.446 65.460 166.286C65.460 165.406 65.020 165.406 64.860 165.406C64.540 165.406 64.260 165.446 64.260 166.126C64.260 171.286 59.860 172.486 58.580 172.486C55.340 172.486 53.620 169.326 53.620 162.726C53.620 156.126 56.660 154.766 58.820 154.766C60.900 154.766 61.740 155.726 61.740 156.126C61.740 156.486 61.620 157.006 61.020 157.006C59.420 157.006 58.500 158.726 58.500 159.966C58.500 162.246 60.460 162.966 61.580 162.966C61.580 162.966 64.620 162.846 64.620 159.526C64.620 154.286 58.580 153.806 57.820 153.806Z"></path></g><g><line stroke="black" stroke-width="1.6" x1="1708.7908993543508" x2="1708.7908993543508" y1="143.8461538461538" y2="183.8461538461538"></line></g><g><path d="M900.135 158.206L900.135 154.526C900.135 153.926 899.655 153.486 899.095 153.486L889.895 153.486C889.295 153.486 888.855 153.926 888.855 154.526L888.855 158.206C888.855 158.766 889.295 159.246 889.895 159.246L899.095 159.246C899.655 159.246 900.135 158.766 900.135 158.206Z"></path></g></g><g transform="translate(1818.4370532005046)"><g></g><g><line stroke="#000000" stroke-width="5" x1="111.03899542363285" x2="111.03899542363285" y1="143.8461538461538" y2="183.8461538461538"></line><line stroke="#000000" stroke-width="1.6" x1="118.33899542363285" x2="118.33899542363285" y1="143.8461538461538" y2="183.8461538461538"></line></g><g><path d="M96.065 116.326C94.585 116.926 93.785 119.206 91.905 119.206C91.905 117.286 90.785 115.966 89.265 115.966C87.705 115.966 86.385 117.286 86.385 118.806C86.385 119.526 86.945 120.326 87.545 120.926L88.665 121.486C89.065 121.486 89.425 121.646 89.825 121.646C90.345 121.646 90.905 121.486 91.345 121.246L92.865 120.686C93.225 120.686 93.425 120.926 93.425 121.086C93.425 122.966 92.305 125.806 91.745 127.686C91.505 128.446 90.025 129.406 89.265 129.406C89.265 127.446 88.105 126.366 86.625 126.366C85.105 126.366 83.785 127.446 83.785 129.006C83.785 129.766 84.385 130.566 84.945 131.126C85.345 131.206 85.625 131.446 86.065 131.446C86.385 131.646 86.785 131.646 87.185 131.646C87.705 131.646 88.305 131.646 88.665 131.446L90.185 130.886C90.345 130.886 90.585 130.686 90.785 130.686C90.825 130.686 90.905 130.806 90.905 130.886C90.905 131.126 90.785 131.646 90.785 131.646C90.785 131.646 89.425 136.966 89.265 137.526C88.865 138.646 87.545 139.406 86.785 139.406C86.785 137.526 85.625 136.406 84.145 136.406C82.665 136.406 81.305 137.526 81.305 139.086C81.305 139.806 81.865 140.566 82.425 141.126C82.865 141.326 83.225 141.526 83.585 141.526C83.985 141.686 84.385 141.686 84.705 141.686C85.305 141.686 85.825 141.686 86.185 141.526L87.705 140.966C88.305 140.966 88.305 141.326 88.305 141.526L86.785 147.966C86.385 149.046 85.105 149.646 84.385 149.646C84.385 147.766 83.225 146.606 81.705 146.606C80.185 146.606 78.865 147.766 78.865 149.246C78.865 150.006 79.425 150.726 79.985 151.326L81.145 151.886L81.865 151.886C82.425 151.886 83.225 151.886 83.785 151.726L85.305 151.166C85.825 151.166 85.825 151.726 85.825 151.886L84.385 158.166C83.985 159.286 82.865 159.686 82.265 159.846C81.865 159.846 80.945 156.646 79.425 156.646C77.905 156.646 76.545 157.966 76.545 159.286C76.545 160.246 77.145 160.966 77.705 161.366L78.865 161.926C79.225 161.926 79.625 162.126 79.985 162.126C80.545 162.126 81.145 161.926 81.505 161.766C82.105 161.566 82.425 161.566 82.985 161.206C83.225 161.206 83.425 161.566 83.425 161.766C83.425 161.926 82.665 166.126 81.865 168.206C81.505 169.166 80.385 169.526 79.785 169.726C79.785 167.646 78.265 166.526 76.985 166.526C75.625 166.526 74.305 167.806 74.305 169.166C74.305 170.086 74.905 170.846 75.465 171.206L76.545 171.766C76.985 171.766 77.345 172.006 77.705 172.006C78.265 172.006 78.865 171.766 79.225 171.566C79.785 171.406 80.185 171.406 80.545 171.006C80.745 171.006 80.945 171.406 80.945 171.566C80.945 172.126 79.785 177.086 79.625 177.686C79.225 178.806 77.905 179.366 77.345 179.526C77.345 177.446 76.025 176.286 74.705 176.286C73.185 176.286 72.025 177.686 72.025 178.966C72.025 179.966 72.425 180.686 72.985 181.046L74.145 181.646C74.465 181.646 74.905 181.806 75.265 181.806C75.825 181.806 76.425 181.646 76.745 181.446C77.345 181.246 77.705 181.246 78.265 180.846C78.465 180.846 78.705 181.246 78.705 181.446C78.465 181.646 77.145 187.926 76.985 188.446C76.545 189.406 75.625 189.766 75.025 189.766C75.025 187.686 73.745 186.526 72.425 186.526C70.905 186.526 69.745 187.926 69.745 189.206C69.745 190.166 70.185 190.926 70.745 191.286L71.825 191.886C72.225 191.886 72.585 192.046 72.985 192.046C73.545 192.046 74.145 191.886 74.465 191.646L75.825 191.286C76.185 191.286 76.185 191.486 76.185 191.646C76.025 192.206 73.545 202.406 73.345 202.646C73.345 202.806 74.145 203.566 74.465 203.566C75.625 203.566 75.825 203.366 76.025 202.806C76.025 202.406 90.185 142.246 92.305 132.406C92.305 132.406 96.465 117.286 96.465 116.926C96.465 116.526 96.065 116.326 96.065 116.326Z"></path></g></g><g transform="translate(1963.8992950718261)"><g></g><g><line stroke="#000000" stroke-width="1.6" x1="120.65078452639922" x2="120.65078452639922" y1="143.8461538461538" y2="183.8461538461538"></line><line stroke="#000000" stroke-width="5" x1="127.95078452639922" x2="127.95078452639922" y1="143.8461538461538" y2="183.8461538461538"></line></g><g><path d="M37.643 116.326C36.163 116.926 35.363 119.206 33.483 119.206C33.483 117.286 32.363 115.966 30.843 115.966C29.283 115.966 27.963 117.286 27.963 118.806C27.963 119.526 28.523 120.326 29.123 120.926L30.243 121.486C30.643 121.486 31.003 121.646 31.403 121.646C31.923 121.646 32.483 121.486 32.923 121.246L34.443 120.686C34.803 120.686 35.003 120.926 35.003 121.086C35.003 122.966 33.883 125.806 33.323 127.686C33.083 128.446 31.603 129.406 30.843 129.406C30.843 127.446 29.683 126.366 28.203 126.366C26.683 126.366 25.363 127.446 25.363 129.006C25.363 129.766 25.963 130.566 26.523 131.126C26.923 131.206 27.203 131.446 27.643 131.446C27.963 131.646 28.363 131.646 28.763 131.646C29.283 131.646 29.883 131.646 30.243 131.446L31.763 130.886C31.923 130.886 32.163 130.686 32.363 130.686C32.403 130.686 32.483 130.806 32.483 130.886C32.483 131.126 32.363 131.646 32.363 131.646C32.363 131.646 31.003 136.966 30.843 137.526C30.443 138.646 29.123 139.406 28.363 139.406C28.363 137.526 27.203 136.406 25.723 136.406C24.243 136.406 22.883 137.526 22.883 139.086C22.883 139.806 23.443 140.566 24.003 141.126C24.443 141.326 24.803 141.526 25.163 141.526C25.563 141.686 25.963 141.686 26.283 141.686C26.883 141.686 27.403 141.686 27.763 141.526L29.283 140.966C29.883 140.966 29.883 141.326 29.883 141.526L28.363 147.966C27.963 149.046 26.683 149.646 25.963 149.646C25.963 147.766 24.803 146.606 23.283 146.606C21.763 146.606 20.443 147.766 20.443 149.246C20.443 150.006 21.003 150.726 21.563 151.326L22.723 151.886L23.443 151.886C24.003 151.886 24.803 151.886 25.363 151.726L26.883 151.166C27.403 151.166 27.403 151.726 27.403 151.886L25.963 158.166C25.563 159.286 24.443 159.686 23.843 159.846C23.443 159.846 22.523 156.646 21.003 156.646C19.483 156.646 18.123 157.966 18.123 159.286C18.123 160.246 18.723 160.966 19.283 161.366L20.443 161.926C20.803 161.926 21.203 162.126 21.563 162.126C22.123 162.126 22.723 161.926 23.083 161.766C23.683 161.566 24.003 161.566 24.563 161.206C24.803 161.206 25.003 161.566 25.003 161.766C25.003 161.926 24.243 166.126 23.443 168.206C23.083 169.166 21.963 169.526 21.363 169.726C21.363 167.646 19.843 166.526 18.563 166.526C17.203 166.526 15.883 167.806 15.883 169.166C15.883 170.086 16.483 170.846 17.043 171.206L18.123 171.766C18.563 171.766 18.923 172.006 19.283 172.006C19.843 172.006 20.443 171.766 20.803 171.566C21.363 171.406 21.763 171.406 22.123 171.006C22.323 171.006 22.523 171.406 22.523 171.566C22.523 172.126 21.363 177.086 21.203 177.686C20.803 178.806 19.483 179.366 18.923 179.526C18.923 177.446 17.603 176.286 16.283 176.286C14.763 176.286 13.603 177.686 13.603 178.966C13.603 179.966 14.003 180.686 14.563 181.046L15.723 181.646C16.043 181.646 16.483 181.806 16.843 181.806C17.403 181.806 18.003 181.646 18.323 181.446C18.923 181.246 19.283 181.246 19.843 180.846C20.043 180.846 20.283 181.246 20.283 181.446C20.043 181.646 18.723 187.926 18.563 188.446C18.123 189.406 17.203 189.766 16.603 189.766C16.603 187.686 15.323 186.526 14.003 186.526C12.483 186.526 11.323 187.926 11.323 189.206C11.323 190.166 11.763 190.926 12.323 191.286L13.403 191.886C13.803 191.886 14.163 192.046 14.563 192.046C15.123 192.046 15.723 191.886 16.043 191.646L17.403 191.286C17.763 191.286 17.763 191.486 17.763 191.646C17.603 192.206 15.123 202.406 14.923 202.646C14.923 202.806 15.723 203.566 16.043 203.566C17.203 203.566 17.403 203.366 17.603 202.806C17.603 202.406 31.763 142.246 33.883 132.406C33.883 132.406 38.043 117.286 38.043 116.926C38.043 116.526 37.643 116.326 37.643 116.326Z"></path></g></g><g transform="translate(93.84615384615385)"><g><g><line stroke="#6A6A6A" stroke-width="1.3" x1="0" x2="9547.815859559283" y1="314.8461538461538" y2="314.8461538461538"></line><line stroke="#6A6A6A" stroke-width="1.3" x1="0" x2="9547.815859559283" y1="304.8461538461538" y2="304.8461538461538"></line><line stroke="#6A6A6A" stroke-width="1.3" x1="0" x2="9547.815859559283" y1="294.8461538461538" y2="294.8461538461538"></line><line stroke="#6A6A6A" stroke-width="1.3" x1="0" x2="9547.815859559283" y1="284.8461538461538" y2="284.8461538461538"></line><line stroke="#6A6A6A" stroke-width="1.3" x1="0" x2="9547.815859559283" y1="274.8461538461538" y2="274.8461538461538"></line></g><g><path d="M25.200 260.926C24.640 260.926 23.400 261.966 22.600 262.846C19.640 266.126 18.680 271.126 18.680 275.286C18.680 277.606 18.960 280.206 19.240 281.846C19.320 282.326 19.360 282.406 18.880 282.806C16.320 284.926 13.560 287.366 11.480 289.926C8.720 293.366 7 297.086 7 301.366C7 308.326 11.760 314.926 21.560 314.926C22.480 314.926 23.520 314.846 24.320 314.686C24.760 314.606 24.840 314.566 24.920 315.046C25.400 317.726 26 321.206 26 323.086C26 329.006 22 329.726 19.640 329.726C17.480 329.726 16.440 329.086 16.440 328.566C16.440 328.126 16.800 328.166 17.720 327.886C18.960 327.526 20.400 326.446 20.400 324.126C20.400 321.926 19 320.046 16.560 320.046C13.880 320.046 12.280 322.166 12.280 324.646C12.280 327.246 13.840 331.166 19.880 331.166C22.560 331.166 27.760 329.966 27.760 323.166C27.760 320.886 27.040 317.086 26.600 314.606C26.520 314.126 26.560 314.166 27.120 313.926C31.160 312.326 33.840 308.926 33.840 304.406C33.840 299.286 30.080 294.766 24.200 294.766C23.080 294.766 23.200 294.966 23.040 294.046L22.040 288.246C21.960 287.766 22.040 287.726 22.280 287.486C22.920 286.886 23.760 286.046 24.520 285.206C27.880 281.526 29.880 276.766 29.880 272.246C29.880 268.766 28.920 265.326 27.280 262.926C26.680 262.046 25.640 260.926 25.200 260.926ZM20.040 289.086C20.440 288.766 20.520 288.806 20.600 289.246L21.440 294.366C21.560 295.126 21.560 295.086 20.840 295.326C17.320 296.526 15.040 299.686 15.040 303.086C15.040 306.686 16.920 309.246 19.640 310.166C19.960 310.286 20.440 310.406 20.720 310.406C21.040 310.406 21.200 310.206 21.200 309.966C21.200 309.686 20.880 309.566 20.600 309.446C18.920 308.726 17.720 307.006 17.720 305.166C17.720 302.886 19.280 301.166 21.720 300.486C22.360 300.326 22.440 300.366 22.520 300.806L24.520 312.726C24.600 313.166 24.560 313.166 23.960 313.286C23.320 313.406 22.520 313.486 21.720 313.486C14.720 313.486 10.200 309.606 10.200 304.046C10.200 301.686 10.600 298.526 13.920 294.766C16.320 292.086 18.160 290.606 20.040 289.086ZM24.640 300.166C27.880 300.446 30.560 303.166 30.560 306.686C30.560 309.206 29.040 311.246 26.800 312.366C26.320 312.606 26.240 312.606 26.160 312.126L24.200 300.726C24.120 300.246 24.160 300.126 24.640 300.166ZM25.800 267.126C27.120 267.126 28.200 268.206 28.200 270.406C28.200 273.166 26.880 275.726 23.760 278.846C23.120 279.486 22.160 280.406 21.240 281.206C20.960 281.446 20.800 281.406 20.720 280.886C20.560 279.846 20.480 278.486 20.480 277.206C20.480 270.966 23.360 267.126 25.800 267.126Z"></path></g><g></g><text font-family='Alegreya' font-style='italic' text-anchor='end' stroke='#7a7a7a' font-size="24" x="0" y="264.8461538461538">4</text></g><g><line stroke="black" stroke-width="1.6" x1="2409.028964889821" x2="2409.028964889821" y1="274.8461538461538" y2="314.8461538461538"></line></g><g><path d="M368.419 247.326C366.939 247.926 366.139 250.206 364.259 250.206C364.259 248.286 363.139 246.966 361.619 246.966C360.059 246.966 358.739 248.286 358.739 249.806C358.739 250.526 359.299 251.326 359.899 251.926L361.019 252.486C361.419 252.486 361.779 252.646 362.179 252.646C362.699 252.646 363.259 252.486 363.699 252.246L365.219 251.686C365.579 251.686 365.779 251.926 365.779 252.086C365.779 253.966 364.659 256.806 364.099 258.686C363.859 259.446 362.379 260.406 361.619 260.406C361.619 258.446 360.459 257.366 358.979 257.366C357.459 257.366 356.139 258.446 356.139 260.006C356.139 260.766 356.739 261.566 357.299 262.126C357.699 262.206 357.979 262.446 358.419 262.446C358.739 262.646 359.139 262.646 359.539 262.646C360.059 262.646 360.659 262.646 361.019 262.446L362.539 261.886C362.699 261.886 362.939 261.686 363.139 261.686C363.179 261.686 363.259 261.806 363.259 261.886C363.259 262.126 363.139 262.646 363.139 262.646C363.139 262.646 361.779 267.966 361.619 268.526C361.219 269.646 359.899 270.406 359.139 270.406C359.139 268.526 357.979 267.406 356.499 267.406C355.019 267.406 353.659 268.526 353.659 270.086C353.659 270.806 354.219 271.566 354.779 272.126C355.219 272.326 355.579 272.526 355.939 272.526C356.339 272.686 356.739 272.686 357.059 272.686C357.659 272.686 358.179 272.686 358.539 272.526L360.059 271.966C360.659 271.966 360.659 272.326 360.659 272.526L359.139 278.966C358.739 280.046 357.459 280.646 356.739 280.646C356.739 278.766 355.579 277.606 354.059 277.606C352.539 277.606 351.219 278.766 351.219 280.246C351.219 281.006 351.779 281.726 352.339 282.326L353.499 282.886L354.219 282.886C354.779 282.886 355.579 282.886 356.139 282.726L357.659 282.166C358.179 282.166 358.179 282.726 358.179 282.886L356.739 289.166C356.339 290.286 355.219 290.686 354.619 290.846C354.219 290.846 353.299 287.646 351.779 287.646C350.259 287.646 348.899 288.966 348.899 290.286C348.899 291.246 349.499 291.966 350.059 292.366L351.219 292.926C351.579 292.926 351.979 293.126 352.339 293.126C352.899 293.126 353.499 292.926 353.859 292.766C354.459 292.566 354.779 292.566 355.339 292.206C355.579 292.206 355.779 292.566 355.779 292.766C355.779 292.926 355.019 297.126 354.219 299.206C353.859 300.166 352.739 300.526 352.139 300.726C352.139 298.646 350.619 297.526 349.339 297.526C347.979 297.526 346.659 298.806 346.659 300.166C346.659 301.086 347.259 301.846 347.819 302.206L348.899 302.766C349.339 302.766 349.699 303.006 350.059 303.006C350.619 303.006 351.219 302.766 351.579 302.566C352.139 302.406 352.539 302.406 352.899 302.006C353.099 302.006 353.299 302.406 353.299 302.566C353.299 303.126 352.139 308.086 351.979 308.686C351.579 309.806 350.259 310.366 349.699 310.526C349.699 308.446 348.379 307.286 347.059 307.286C345.539 307.286 344.379 308.686 344.379 309.966C344.379 310.966 344.779 311.686 345.339 312.046L346.499 312.646C346.819 312.646 347.259 312.806 347.619 312.806C348.179 312.806 348.779 312.646 349.099 312.446C349.699 312.246 350.059 312.246 350.619 311.846C350.819 311.846 351.059 312.246 351.059 312.446C350.819 312.646 349.499 318.926 349.339 319.446C348.899 320.406 347.979 320.766 347.379 320.766C347.379 318.686 346.099 317.526 344.779 317.526C343.259 317.526 342.099 318.926 342.099 320.206C342.099 321.166 342.539 321.926 343.099 322.286L344.179 322.886C344.579 322.886 344.939 323.046 345.339 323.046C345.899 323.046 346.499 322.886 346.819 322.646L348.179 322.286C348.539 322.286 348.539 322.486 348.539 322.646C348.379 323.206 345.899 333.406 345.699 333.646C345.699 333.806 346.499 334.566 346.819 334.566C347.979 334.566 348.179 334.366 348.379 333.806C348.379 333.406 362.539 273.246 364.659 263.406C364.659 263.406 368.819 248.286 368.819 247.926C368.819 247.526 368.419 247.326 368.419 247.326Z"></path></g></g><g transform="translate(2518.6751187359746)"><g></g><g><line stroke="black" stroke-width="1.6" x1="2360.528964889821" x2="2360.528964889821" y1="274.8461538461538" y2="314.8461538461538"></line></g><g><path d="M319.919 247.326C318.439 247.926 317.639 250.206 315.759 250.206C315.759 248.286 314.639 246.966 313.119 246.966C311.559 246.966 310.239 248.286 310.239 249.806C310.239 250.526 310.799 251.326 311.399 251.926L312.519 252.486C312.919 252.486 313.279 252.646 313.679 252.646C314.199 252.646 314.759 252.486 315.199 252.246L316.719 251.686C317.079 251.686 317.279 251.926 317.279 252.086C317.279 253.966 316.159 256.806 315.599 258.686C315.359 259.446 313.879 260.406 313.119 260.406C313.119 258.446 311.959 257.366 310.479 257.366C308.959 257.366 307.639 258.446 307.639 260.006C307.639 260.766 308.239 261.566 308.799 262.126C309.199 262.206 309.479 262.446 309.919 262.446C310.239 262.646 310.639 262.646 311.039 262.646C311.559 262.646 312.159 262.646 312.519 262.446L314.039 261.886C314.199 261.886 314.439 261.686 314.639 261.686C314.679 261.686 314.759 261.806 314.759 261.886C314.759 262.126 314.639 262.646 314.639 262.646C314.639 262.646 313.279 267.966 313.119 268.526C312.719 269.646 311.399 270.406 310.639 270.406C310.639 268.526 309.479 267.406 307.999 267.406C306.519 267.406 305.159 268.526 305.159 270.086C305.159 270.806 305.719 271.566 306.279 272.126C306.719 272.326 307.079 272.526 307.439 272.526C307.839 272.686 308.239 272.686 308.559 272.686C309.159 272.686 309.679 272.686 310.039 272.526L311.559 271.966C312.159 271.966 312.159 272.326 312.159 272.526L310.639 278.966C310.239 280.046 308.959 280.646 308.239 280.646C308.239 278.766 307.079 277.606 305.559 277.606C304.039 277.606 302.719 278.766 302.719 280.246C302.719 281.006 303.279 281.726 303.839 282.326L304.999 282.886L305.719 282.886C306.279 282.886 307.079 282.886 307.639 282.726L309.159 282.166C309.679 282.166 309.679 282.726 309.679 282.886L308.239 289.166C307.839 290.286 306.719 290.686 306.119 290.846C305.719 290.846 304.799 287.646 303.279 287.646C301.759 287.646 300.399 288.966 300.399 290.286C300.399 291.246 300.999 291.966 301.559 292.366L302.719 292.926C303.079 292.926 303.479 293.126 303.839 293.126C304.399 293.126 304.999 292.926 305.359 292.766C305.959 292.566 306.279 292.566 306.839 292.206C307.079 292.206 307.279 292.566 307.279 292.766C307.279 292.926 306.519 297.126 305.719 299.206C305.359 300.166 304.239 300.526 303.639 300.726C303.639 298.646 302.119 297.526 300.839 297.526C299.479 297.526 298.159 298.806 298.159 300.166C298.159 301.086 298.759 301.846 299.319 302.206L300.399 302.766C300.839 302.766 301.199 303.006 301.559 303.006C302.119 303.006 302.719 302.766 303.079 302.566C303.639 302.406 304.039 302.406 304.399 302.006C304.599 302.006 304.799 302.406 304.799 302.566C304.799 303.126 303.639 308.086 303.479 308.686C303.079 309.806 301.759 310.366 301.199 310.526C301.199 308.446 299.879 307.286 298.559 307.286C297.039 307.286 295.879 308.686 295.879 309.966C295.879 310.966 296.279 311.686 296.839 312.046L297.999 312.646C298.319 312.646 298.759 312.806 299.119 312.806C299.679 312.806 300.279 312.646 300.599 312.446C301.199 312.246 301.559 312.246 302.119 311.846C302.319 311.846 302.559 312.246 302.559 312.446C302.319 312.646 300.999 318.926 300.839 319.446C300.399 320.406 299.479 320.766 298.879 320.766C298.879 318.686 297.599 317.526 296.279 317.526C294.759 317.526 293.599 318.926 293.599 320.206C293.599 321.166 294.039 321.926 294.599 322.286L295.679 322.886C296.079 322.886 296.439 323.046 296.839 323.046C297.399 323.046 297.999 322.886 298.319 322.646L299.679 322.286C300.039 322.286 300.039 322.486 300.039 322.646C299.879 323.206 297.399 333.406 297.199 333.646C297.199 333.806 297.999 334.566 298.319 334.566C299.479 334.566 299.679 334.366 299.879 333.806C299.879 333.406 314.039 273.246 316.159 263.406C316.159 263.406 320.319 248.286 320.319 247.926C320.319 247.526 319.919 247.326 319.919 247.326Z"></path></g></g><g transform="translate(4895.004083625796)"><g></g><g><line stroke="black" stroke-width="1.6" x1="2360.528964889821" x2="2360.528964889821" y1="274.8461538461538" y2="314.8461538461538"></line></g><g><path d="M319.919 247.326C318.439 247.926 317.639 250.206 315.759 250.206C315.759 248.286 314.639 246.966 313.119 246.966C311.559 246.966 310.239 248.286 310.239 249.806C310.239 250.526 310.799 251.326 311.399 251.926L312.519 252.486C312.919 252.486 313.279 252.646 313.679 252.646C314.199 252.646 314.759 252.486 315.199 252.246L316.719 251.686C317.079 251.686 317.279 251.926 317.279 252.086C317.279 253.966 316.159 256.806 315.599 258.686C315.359 259.446 313.879 260.406 313.119 260.406C313.119 258.446 311.959 257.366 310.479 257.366C308.959 257.366 307.639 258.446 307.639 260.006C307.639 260.766 308.239 261.566 308.799 262.126C309.199 262.206 309.479 262.446 309.919 262.446C310.239 262.646 310.639 262.646 311.039 262.646C311.559 262.646 312.159 262.646 312.519 262.446L314.039 261.886C314.199 261.886 314.439 261.686 314.639 261.686C314.679 261.686 314.759 261.806 314.759 261.886C314.759 262.126 314.639 262.646 314.639 262.646C314.639 262.646 313.279 267.966 313.119 268.526C312.719 269.646 311.399 270.406 310.639 270.406C310.639 268.526 309.479 267.406 307.999 267.406C306.519 267.406 305.159 268.526 305.159 270.086C305.159 270.806 305.719 271.566 306.279 272.126C306.719 272.326 307.079 272.526 307.439 272.526C307.839 272.686 308.239 272.686 308.559 272.686C309.159 272.686 309.679 272.686 310.039 272.526L311.559 271.966C312.159 271.966 312.159 272.326 312.159 272.526L310.639 278.966C310.239 280.046 308.959 280.646 308.239 280.646C308.239 278.766 307.079 277.606 305.559 277.606C304.039 277.606 302.719 278.766 302.719 280.246C302.719 281.006 303.279 281.726 303.839 282.326L304.999 282.886L305.719 282.886C306.279 282.886 307.079 282.886 307.639 282.726L309.159 282.166C309.679 282.166 309.679 282.726 309.679 282.886L308.239 289.166C307.839 290.286 306.719 290.686 306.119 290.846C305.719 290.846 304.799 287.646 303.279 287.646C301.759 287.646 300.399 288.966 300.399 290.286C300.399 291.246 300.999 291.966 301.559 292.366L302.719 292.926C303.079 292.926 303.479 293.126 303.839 293.126C304.399 293.126 304.999 292.926 305.359 292.766C305.959 292.566 306.279 292.566 306.839 292.206C307.079 292.206 307.279 292.566 307.279 292.766C307.279 292.926 306.519 297.126 305.719 299.206C305.359 300.166 304.239 300.526 303.639 300.726C303.639 298.646 302.119 297.526 300.839 297.526C299.479 297.526 298.159 298.806 298.159 300.166C298.159 301.086 298.759 301.846 299.319 302.206L300.399 302.766C300.839 302.766 301.199 303.006 301.559 303.006C302.119 303.006 302.719 302.766 303.079 302.566C303.639 302.406 304.039 302.406 304.399 302.006C304.599 302.006 304.799 302.406 304.799 302.566C304.799 303.126 303.639 308.086 303.479 308.686C303.079 309.806 301.759 310.366 301.199 310.526C301.199 308.446 299.879 307.286 298.559 307.286C297.039 307.286 295.879 308.686 295.879 309.966C295.879 310.966 296.279 311.686 296.839 312.046L297.999 312.646C298.319 312.646 298.759 312.806 299.119 312.806C299.679 312.806 300.279 312.646 300.599 312.446C301.199 312.246 301.559 312.246 302.119 311.846C302.319 311.846 302.559 312.246 302.559 312.446C302.319 312.646 300.999 318.926 300.839 319.446C300.399 320.406 299.479 320.766 298.879 320.766C298.879 318.686 297.599 317.526 296.279 317.526C294.759 317.526 293.599 318.926 293.599 320.206C293.599 321.166 294.039 321.926 294.599 322.286L295.679 322.886C296.079 322.886 296.439 323.046 296.839 323.046C297.399 323.046 297.999 322.886 298.319 322.646L299.679 322.286C300.039 322.286 300.039 322.486 300.039 322.646C299.879 323.206 297.399 333.406 297.199 333.646C297.199 333.806 297.999 334.566 298.319 334.566C299.479 334.566 299.679 334.366 299.879 333.806C299.879 333.406 314.039 273.246 316.159 263.406C316.159 263.406 320.319 248.286 320.319 247.926C320.319 247.526 319.919 247.326 319.919 247.326Z"></path></g></g><g transform="translate(7271.333048515617)"><g></g><g><line stroke="#000000" stroke-width="1.6" x1="2360.528964889821" x2="2360.528964889821" y1="274.8461538461538" y2="314.8461538461538"></line><line stroke="#000000" stroke-width="5" x1="2367.828964889821" x2="2367.828964889821" y1="274.8461538461538" y2="314.8461538461538"></line></g><g><path d="M319.919 247.326C318.439 247.926 317.639 250.206 315.759 250.206C315.759 248.286 314.639 246.966 313.119 246.966C311.559 246.966 310.239 248.286 310.239 249.806C310.239 250.526 310.799 251.326 311.399 251.926L312.519 252.486C312.919 252.486 313.279 252.646 313.679 252.646C314.199 252.646 314.759 252.486 315.199 252.246L316.719 251.686C317.079 251.686 317.279 251.926 317.279 252.086C317.279 253.966 316.159 256.806 315.599 258.686C315.359 259.446 313.879 260.406 313.119 260.406C313.119 258.446 311.959 257.366 310.479 257.366C308.959 257.366 307.639 258.446 307.639 260.006C307.639 260.766 308.239 261.566 308.799 262.126C309.199 262.206 309.479 262.446 309.919 262.446C310.239 262.646 310.639 262.646 311.039 262.646C311.559 262.646 312.159 262.646 312.519 262.446L314.039 261.886C314.199 261.886 314.439 261.686 314.639 261.686C314.679 261.686 314.759 261.806 314.759 261.886C314.759 262.126 314.639 262.646 314.639 262.646C314.639 262.646 313.279 267.966 313.119 268.526C312.719 269.646 311.399 270.406 310.639 270.406C310.639 268.526 309.479 267.406 307.999 267.406C306.519 267.406 305.159 268.526 305.159 270.086C305.159 270.806 305.719 271.566 306.279 272.126C306.719 272.326 307.079 272.526 307.439 272.526C307.839 272.686 308.239 272.686 308.559 272.686C309.159 272.686 309.679 272.686 310.039 272.526L311.559 271.966C312.159 271.966 312.159 272.326 312.159 272.526L310.639 278.966C310.239 280.046 308.959 280.646 308.239 280.646C308.239 278.766 307.079 277.606 305.559 277.606C304.039 277.606 302.719 278.766 302.719 280.246C302.719 281.006 303.279 281.726 303.839 282.326L304.999 282.886L305.719 282.886C306.279 282.886 307.079 282.886 307.639 282.726L309.159 282.166C309.679 282.166 309.679 282.726 309.679 282.886L308.239 289.166C307.839 290.286 306.719 290.686 306.119 290.846C305.719 290.846 304.799 287.646 303.279 287.646C301.759 287.646 300.399 288.966 300.399 290.286C300.399 291.246 300.999 291.966 301.559 292.366L302.719 292.926C303.079 292.926 303.479 293.126 303.839 293.126C304.399 293.126 304.999 292.926 305.359 292.766C305.959 292.566 306.279 292.566 306.839 292.206C307.079 292.206 307.279 292.566 307.279 292.766C307.279 292.926 306.519 297.126 305.719 299.206C305.359 300.166 304.239 300.526 303.639 300.726C303.639 298.646 302.119 297.526 300.839 297.526C299.479 297.526 298.159 298.806 298.159 300.166C298.159 301.086 298.759 301.846 299.319 302.206L300.399 302.766C300.839 302.766 301.199 303.006 301.559 303.006C302.119 303.006 302.719 302.766 303.079 302.566C303.639 302.406 304.039 302.406 304.399 302.006C304.599 302.006 304.799 302.406 304.799 302.566C304.799 303.126 303.639 308.086 303.479 308.686C303.079 309.806 301.759 310.366 301.199 310.526C301.199 308.446 299.879 307.286 298.559 307.286C297.039 307.286 295.879 308.686 295.879 309.966C295.879 310.966 296.279 311.686 296.839 312.046L297.999 312.646C298.319 312.646 298.759 312.806 299.119 312.806C299.679 312.806 300.279 312.646 300.599 312.446C301.199 312.246 301.559 312.246 302.119 311.846C302.319 311.846 302.559 312.246 302.559 312.446C302.319 312.646 300.999 318.926 300.839 319.446C300.399 320.406 299.479 320.766 298.879 320.766C298.879 318.686 297.599 317.526 296.279 317.526C294.759 317.526 293.599 318.926 293.599 320.206C293.599 321.166 294.039 321.926 294.599 322.286L295.679 322.886C296.079 322.886 296.439 323.046 296.839 323.046C297.399 323.046 297.999 322.886 298.319 322.646L299.679 322.286C300.039 322.286 300.039 322.486 300.039 322.646C299.879 323.206 297.399 333.406 297.199 333.646C297.199 333.806 297.999 334.566 298.319 334.566C299.479 334.566 299.679 334.366 299.879 333.806C299.879 333.406 314.039 273.246 316.159 263.406C316.159 263.406 320.319 248.286 320.319 247.926C320.319 247.526 319.919 247.326 319.919 247.326Z"></path></g></g><g transform="translate(93.84615384615385)"><g><g><line stroke="#6A6A6A" stroke-width="1.3" x1="0" x2="154.07011979543745" y1="445.8461538461538" y2="445.8461538461538"></line><line stroke="#6A6A6A" stroke-width="1.3" x1="0" x2="154.07011979543745" y1="435.8461538461538" y2="435.8461538461538"></line><line stroke="#6A6A6A" stroke-width="1.3" x1="0" x2="154.07011979543745" y1="425.8461538461538" y2="425.8461538461538"></line><line stroke="#6A6A6A" stroke-width="1.3" x1="0" x2="154.07011979543745" y1="415.8461538461538" y2="415.8461538461538"></line><line stroke="#6A6A6A" stroke-width="1.3" x1="0" x2="154.07011979543745" y1="405.8461538461538" y2="405.8461538461538"></line></g><g><path d="M25.200 391.926C24.640 391.926 23.400 392.966 22.600 393.846C19.640 397.126 18.680 402.126 18.680 406.286C18.680 408.606 18.960 411.206 19.240 412.846C19.320 413.326 19.360 413.406 18.880 413.806C16.320 415.926 13.560 418.366 11.480 420.926C8.720 424.366 7 428.086 7 432.366C7 439.326 11.760 445.926 21.560 445.926C22.480 445.926 23.520 445.846 24.320 445.686C24.760 445.606 24.840 445.566 24.920 446.046C25.400 448.726 26 452.206 26 454.086C26 460.006 22 460.726 19.640 460.726C17.480 460.726 16.440 460.086 16.440 459.566C16.440 459.126 16.800 459.166 17.720 458.886C18.960 458.526 20.400 457.446 20.400 455.126C20.400 452.926 19 451.046 16.560 451.046C13.880 451.046 12.280 453.166 12.280 455.646C12.280 458.246 13.840 462.166 19.880 462.166C22.560 462.166 27.760 460.966 27.760 454.166C27.760 451.886 27.040 448.086 26.600 445.606C26.520 445.126 26.560 445.166 27.120 444.926C31.160 443.326 33.840 439.926 33.840 435.406C33.840 430.286 30.080 425.766 24.200 425.766C23.080 425.766 23.200 425.966 23.040 425.046L22.040 419.246C21.960 418.766 22.040 418.726 22.280 418.486C22.920 417.886 23.760 417.046 24.520 416.206C27.880 412.526 29.880 407.766 29.880 403.246C29.880 399.766 28.920 396.326 27.280 393.926C26.680 393.046 25.640 391.926 25.200 391.926ZM20.040 420.086C20.440 419.766 20.520 419.806 20.600 420.246L21.440 425.366C21.560 426.126 21.560 426.086 20.840 426.326C17.320 427.526 15.040 430.686 15.040 434.086C15.040 437.686 16.920 440.246 19.640 441.166C19.960 441.286 20.440 441.406 20.720 441.406C21.040 441.406 21.200 441.206 21.200 440.966C21.200 440.686 20.880 440.566 20.600 440.446C18.920 439.726 17.720 438.006 17.720 436.166C17.720 433.886 19.280 432.166 21.720 431.486C22.360 431.326 22.440 431.366 22.520 431.806L24.520 443.726C24.600 444.166 24.560 444.166 23.960 444.286C23.320 444.406 22.520 444.486 21.720 444.486C14.720 444.486 10.200 440.606 10.200 435.046C10.200 432.686 10.600 429.526 13.920 425.766C16.320 423.086 18.160 421.606 20.040 420.086ZM24.640 431.166C27.880 431.446 30.560 434.166 30.560 437.686C30.560 440.206 29.040 442.246 26.800 443.366C26.320 443.606 26.240 443.606 26.160 443.126L24.200 431.726C24.120 431.246 24.160 431.126 24.640 431.166ZM25.800 398.126C27.120 398.126 28.200 399.206 28.200 401.406C28.200 404.166 26.880 406.726 23.760 409.846C23.120 410.486 22.160 411.406 21.240 412.206C20.960 412.446 20.800 412.406 20.720 411.886C20.560 410.846 20.480 409.486 20.480 408.206C20.480 401.966 23.360 398.126 25.800 398.126Z"></path></g><g></g><text font-family='Alegreya' font-style='italic' text-anchor='end' stroke='#7a7a7a' font-size="24" x="0" y="395.8461538461538">8</text></g><g><line stroke="#000000" stroke-width="1.6" x1="144.2701197954375" x2="144.2701197954375" y1="405.8461538461538" y2="445.8461538461538"></line><line stroke="#000000" stroke-width="5" x1="151.57011979543748" x2="151.57011979543748" y1="405.8461538461538" y2="445.8461538461538"></line></g><g><path d="M83.008 378.326C81.528 378.926 80.728 381.206 78.848 381.206C78.848 379.286 77.728 377.966 76.208 377.966C74.648 377.966 73.328 379.286 73.328 380.806C73.328 381.526 73.888 382.326 74.488 382.926L75.608 383.486C76.008 383.486 76.368 383.646 76.768 383.646C77.288 383.646 77.848 383.486 78.288 383.246L79.808 382.686C80.168 382.686 80.368 382.926 80.368 383.086C80.368 384.966 79.248 387.806 78.688 389.686C78.448 390.446 76.968 391.406 76.208 391.406C76.208 389.446 75.048 388.366 73.568 388.366C72.048 388.366 70.728 389.446 70.728 391.006C70.728 391.766 71.328 392.566 71.888 393.126C72.288 393.206 72.568 393.446 73.008 393.446C73.328 393.646 73.728 393.646 74.128 393.646C74.648 393.646 75.248 393.646 75.608 393.446L77.128 392.886C77.288 392.886 77.528 392.686 77.728 392.686C77.768 392.686 77.848 392.806 77.848 392.886C77.848 393.126 77.728 393.646 77.728 393.646C77.728 393.646 76.368 398.966 76.208 399.526C75.808 400.646 74.488 401.406 73.728 401.406C73.728 399.526 72.568 398.406 71.088 398.406C69.608 398.406 68.248 399.526 68.248 401.086C68.248 401.806 68.808 402.566 69.368 403.126C69.808 403.326 70.168 403.526 70.528 403.526C70.928 403.686 71.328 403.686 71.648 403.686C72.248 403.686 72.768 403.686 73.128 403.526L74.648 402.966C75.248 402.966 75.248 403.326 75.248 403.526L73.728 409.966C73.328 411.046 72.048 411.646 71.328 411.646C71.328 409.766 70.168 408.606 68.648 408.606C67.128 408.606 65.808 409.766 65.808 411.246C65.808 412.006 66.368 412.726 66.928 413.326L68.088 413.886L68.808 413.886C69.368 413.886 70.168 413.886 70.728 413.726L72.248 413.166C72.768 413.166 72.768 413.726 72.768 413.886L71.328 420.166C70.928 421.286 69.808 421.686 69.208 421.846C68.808 421.846 67.888 418.646 66.368 418.646C64.848 418.646 63.488 419.966 63.488 421.286C63.488 422.246 64.088 422.966 64.648 423.366L65.808 423.926C66.168 423.926 66.568 424.126 66.928 424.126C67.488 424.126 68.088 423.926 68.448 423.766C69.048 423.566 69.368 423.566 69.928 423.206C70.168 423.206 70.368 423.566 70.368 423.766C70.368 423.926 69.608 428.126 68.808 430.206C68.448 431.166 67.328 431.526 66.728 431.726C66.728 429.646 65.208 428.526 63.928 428.526C62.568 428.526 61.248 429.806 61.248 431.166C61.248 432.086 61.848 432.846 62.408 433.206L63.488 433.766C63.928 433.766 64.288 434.006 64.648 434.006C65.208 434.006 65.808 433.766 66.168 433.566C66.728 433.406 67.128 433.406 67.488 433.006C67.688 433.006 67.888 433.406 67.888 433.566C67.888 434.126 66.728 439.086 66.568 439.686C66.168 440.806 64.848 441.366 64.288 441.526C64.288 439.446 62.968 438.286 61.648 438.286C60.128 438.286 58.968 439.686 58.968 440.966C58.968 441.966 59.368 442.686 59.928 443.046L61.088 443.646C61.408 443.646 61.848 443.806 62.208 443.806C62.768 443.806 63.368 443.646 63.688 443.446C64.288 443.246 64.648 443.246 65.208 442.846C65.408 442.846 65.648 443.246 65.648 443.446C65.408 443.646 64.088 449.926 63.928 450.446C63.488 451.406 62.568 451.766 61.968 451.766C61.968 449.686 60.688 448.526 59.368 448.526C57.848 448.526 56.688 449.926 56.688 451.206C56.688 452.166 57.128 452.926 57.688 453.286L58.768 453.886C59.168 453.886 59.528 454.046 59.928 454.046C60.488 454.046 61.088 453.886 61.408 453.646L62.768 453.286C63.128 453.286 63.128 453.486 63.128 453.646C62.968 454.206 60.488 464.406 60.288 464.646C60.288 464.806 61.088 465.566 61.408 465.566C62.568 465.566 62.768 465.366 62.968 464.806C62.968 464.406 77.128 404.246 79.248 394.406C79.248 394.406 83.408 379.286 83.408 378.926C83.408 378.526 83.008 378.326 83.008 378.326Z"></path></g></g></svg>