<?xml version="1.0" encoding="UTF-8" standalone="no"?><svg xmlns="http://www.w3.org/2000/svg" height="279.4mm" viewBox="0 0 1328.6153846153845 1719.3846153846152" width="215.9mm"><g transform="translate(93.84615384615385)"><g><g><line stroke="#6A6A6A" stroke-width="1.3" x1="0" x2="255.4891316563686" y1="183.8461538461538" y2="183.8461538461538"></line><line stroke="#6A6A6A" stroke-width="1.3" x1="0" x2="255.4891316563686" y1="173.8461538461538" y2="173.8461538461538"></line><line stroke="#6A6A6A" stroke-width="1.3" x1="0" x2="255.4891316563686" y1="163.8461538461538" y2="163.8461538461538"></line><line stroke="#6A6A6A" stroke-width="1.3" x1="0" x2="255.4891316563686" y1="153.8461538461538" y2="153.8461538461538"></line><line stroke="#6A6A6A" stroke-width="1.3" x1="0" x2="255.4891316563686" y1="143.8461538461538" y2="143.8461538461538"></line></g><g><path d="M25.200 129.926C24.640 129.926 23.400 130.966 22.600 131.846C19.640 135.126 18.680 140.126 18.680 144.286C18.680 146.606 18.960 149.206 19.240 150.846C19.320 151.326 19.360 151.406 18.880 151.806C16.320 153.926 13.560 156.366 11.480 158.926C8.720 162.366 7 166.086 7 170.366C7 177.326 11.760 183.926 21.560 183.926C22.480 183.926 23.520 183.846 24.320 183.686C24.760 183.606 24.840 183.566 24.920 184.046C25.400 186.726 26 190.206 26 192.086C26 198.006 22 198.726 19.640 198.726C17.480 198.726 16.440 198.086 16.440 197.566C16.440 197.126 16.800 197.166 17.720 196.886C18.960 196.526 20.400 195.446 20.400 193.126C20.400 190.926 19 189.046 16.560 189.046C13.880 189.046 12.280 191.166 12.280 193.646C12.280 196.246 13.840 200.166 19.880 200.166C22.560 200.166 27.760 198.966 27.760 192.166C27.760 189.886 27.040 186.086 26.600 183.606C26.520 183.126 26.560 183.166 27.120 182.926C31.160 181.326 33.840 177.926 33.840 173.406C33.840 168.286 30.080 163.766 24.200 163.766C23.080 163.766 23.200 163.966 23.040 163.046L22.040 157.246C21.960 156.766 22.040 156.726 22.280 156.486C22.920 155.886 23.760 155.046 24.520 154.206C27.880 150.526 29.880 145.766 29.880 141.246C29.880 137.766 28.920 134.326 27.280 131.926C26.680 131.046 25.640 129.926 25.200 129.926ZM20.040 158.086C20.440 157.766 20.520 157.806 20.600 158.246L21.440 163.366C21.560 164.126 21.560 164.086 20.840 164.326C17.320 165.526 15.040 168.686 15.040 172.086C15.040 175.686 16.920 178.246 19.640 179.166C19.960 179.286 20.440 179.406 20.720 179.406C21.040 179.406 21.200 179.206 21.200 178.966C21.200 178.686 20.880 178.566 20.600 178.446C18.920 177.726 17.720 176.006 17.720 174.166C17.720 171.886 19.280 170.166 21.720 169.486C22.360 169.326 22.440 169.366 22.520 169.806L24.520 181.726C24.600 182.166 24.560 182.166 23.960 182.286C23.320 182.406 22.520 182.486 21.720 182.486C14.720 182.486 10.200 178.606 10.200 173.046C10.200 170.686 10.600 167.526 13.920 163.766C16.320 161.086 18.160 159.606 20.040 158.086ZM24.640 169.166C27.880 169.446 30.560 172.166 30.560 175.686C30.560 178.206 29.040 180.246 26.800 181.366C26.320 181.606 26.240 181.606 26.160 181.126L24.200 169.726C24.120 169.246 24.160 169.126 24.640 169.166ZM25.800 136.126C27.120 136.126 28.200 137.206 28.200 139.406C28.200 142.166 26.880 144.726 23.760 147.846C23.120 148.486 22.160 149.406 21.240 150.206C20.960 150.446 20.800 150.406 20.720 149.886C20.560 148.846 20.480 147.486 20.480 146.206C20.480 139.966 23.360 136.126 25.800 136.126Z"></path></g><g></g><path d="M57.820 153.806C56.620 153.806 55.220 154.126 54.140 154.606C50.580 156.166 48.700 160.446 48.700 164.246C48.700 164.606 48.700 164.966 48.740 165.326C48.940 167.486 49.980 169.526 51.300 171.126C52.820 172.966 55.020 173.806 57.420 173.806C64.420 173.806 65.460 167.446 65.460 166.286C65.460 165.406 65.020 165.406 64.860 165.406C64.540 165.406 64.260 165.446 64.260 166.126C64.260 171.286 59.860 172.486 58.580 172.486C55.340 172.486 53.620 169.326 53.620 162.726C53.620 156.126 56.660 154.766 58.820 154.766C60.900 154.766 61.740 155.726 61.740 156.126C61.740 156.486 61.620 157.006 61.020 157.006C59.420 157.006 58.500 158.726 58.500 159.966C58.500 162.246 60.460 162.966 61.580 162.966C61.580 162.966 64.620 162.846 64.620 159.526C64.620 154.286 58.580 153.806 57.820 153.806Z"></path></g><g><line stroke="black" stroke-width="1.6" x1="256.2891316563686" x2="256.2891316563686" y1="143.8461538461538" y2="183.8461538461538"></line></g><g><g><path d="M93.360 199.486C97.360 199.486 102.280 195.766 102.280 191.966C102.280 189.686 100.480 188.206 97.880 188.206C92.960 188.206 89 191.846 89 195.726C89 198.086 90.920 199.486 93.360 199.486Z"></path></g><line stroke="#000000" stroke-width="1.2" x1="101.68" x2="101.68" y1="192.0061538461538" y2="157.0061538461538"></line><line stroke="#000000" stroke-width="2.2" x1="85.8" x2="107.72" y1="193.8461538461538" y2="193.8461538461538"></line><text font-family="Alegreya" font-size="22" text-anchor="middle" x="95.64" y="223.8461538461538">0/0/1</text></g><g><g><path d="M138.924 199.486C142.924 199.486 147.844 195.766 147.844 191.966C147.844 189.686 146.044 188.206 143.444 188.206C138.524 188.206 134.564 191.846 134.564 195.726C134.564 198.086 136.484 199.486 138.924 199.486Z"></path></g><line stroke="#000000" stroke-width="1.2" x1="147.24378291409215" x2="147.24378291409215" y1="192.0061538461538" y2="157.0061538461538"></line><line stroke="#000000" stroke-width="2.2" x1="131.36378291409216" x2="153.28378291409214" y1="193.8461538461538" y2="193.8461538461538"></line><text font-family="Alegreya" font-size="22" text-anchor="middle" x="141.20378291409213" y="223.8461538461538">0/1/0</text></g><g><g><path d="M182.519 199.486C186.519 199.486 191.439 195.766 191.439 191.966C191.439 189.686 189.639 188.206 187.039 188.206C182.119 188.206 178.159 191.846 178.159 195.726C178.159 198.086 180.079 199.486 182.519 199.486Z"></path></g><line stroke="#000000" stroke-width="1.2" x1="190.8385658281843" x2="190.8385658281843" y1="192.0061538461538" y2="157.0061538461538"></line><line stroke="#000000" stroke-width="2.2" x1="174.9585658281843" x2="196.8785658281843" y1="193.8461538461538" y2="193.8461538461538"></line><text font-family="Alegreya" font-size="22" text-anchor="middle" x="184.79856582818428" y="223.8461538461538">0/1/1</text></g><g><g><path d="M227.444 199.486C231.444 199.486 236.364 195.766 236.364 191.966C236.364 189.686 234.564 188.206 231.964 188.206C227.044 188.206 223.084 191.846 223.084 195.726C223.084 198.086 225.004 199.486 227.444 199.486Z"></path></g><line stroke="#000000" stroke-width="1.2" x1="235.76434874227647" x2="235.76434874227647" y1="192.0061538461538" y2="157.0061538461538"></line><line stroke="#000000" stroke-width="2.2" x1="219.88434874227647" x2="241.80434874227646" y1="193.8461538461538" y2="193.8461538461538"></line><text font-family="Alegreya" font-size="22" text-anchor="middle" x="229.72434874227645" y="223.8461538461538">0/2/0</text></g></g><g transform="translate(365.9352855025225)"><g><g><line stroke="#6A6A6A" stroke-width="1.3" x1="-16.600000000000023" x2="175.5301316563686" y1="183.8461538461538" y2="183.8461538461538"></line><line stroke="#6A6A6A" stroke-width="1.3" x1="-16.600000000000023" x2="175.5301316563686" y1="173.8461538461538" y2="173.8461538461538"></line><line stroke="#6A6A6A" stroke-width="1.3" x1="-16.600000000000023" x2="175.5301316563686" y1="163.8461538461538" y2="163.8461538461538"></line><line stroke="#6A6A6A" stroke-width="1.3" x1="-16.600000000000023" x2="175.5301316563686" y1="153.8461538461538" y2="153.8461538461538"></line><line stroke="#6A6A6A" stroke-width="1.3" x1="-16.600000000000023" x2="175.5301316563686" y1="143.8461538461538" y2="143.8461538461538"></line></g></g><g><line stroke="black" stroke-width="1.6" x1="176.33013165636862" x2="176.33013165636862" y1="143.8461538461538" y2="183.8461538461538"></line></g><g><g><path d="M12.686 199.486C16.686 199.486 21.606 195.766 21.606 191.966C21.606 189.686 19.806 188.206 17.206 188.206C12.286 188.206 8.326 191.846 8.326 195.726C8.326 198.086 10.246 199.486 12.686 199.486Z"></path></g><line stroke="#000000" stroke-width="1.2" x1="21.006" x2="21.006" y1="192.0061538461538" y2="157.0061538461538"></line><line stroke="#000000" stroke-width="2.2" x1="5.125999999999997" x2="27.045999999999996" y1="193.8461538461538" y2="193.8461538461538"></line><text font-family="Alegreya" font-size="22" text-anchor="middle" x="14.965999999999998" y="223.8461538461538">0/2/1</text></g><g><g><path d="M58.283 199.486C62.283 199.486 67.203 195.766 67.203 191.966C67.203 189.686 65.403 188.206 62.803 188.206C57.883 188.206 53.923 191.846 53.923 195.726C53.923 198.086 55.843 199.486 58.283 199.486Z"></path></g><line stroke="#000000" stroke-width="1.2" x1="66.60278291409215" x2="66.60278291409215" y1="192.0061538461538" y2="157.0061538461538"></line><line stroke="#000000" stroke-width="2.2" x1="50.72278291409214" x2="72.64278291409214" y1="193.8461538461538" y2="193.8461538461538"></line><text font-family="Alegreya" font-size="22" text-anchor="middle" x="60.562782914092146" y="223.8461538461538">0/3/0</text></g><g><g><path d="M103.220 199.486C107.220 199.486 112.140 195.766 112.140 191.966C112.140 189.686 110.340 188.206 107.740 188.206C102.820 188.206 98.860 191.846 98.860 195.726C98.860 198.086 100.780 199.486 103.220 199.486Z"></path></g><line stroke="#000000" stroke-width="1.2" x1="111.5395658281843" x2="111.5395658281843" y1="192.0061538461538" y2="157.0061538461538"></line><line stroke="#000000" stroke-width="2.2" x1="95.65956582818428" x2="117.57956582818429" y1="193.8461538461538" y2="193.8461538461538"></line><text font-family="Alegreya" font-size="22" text-anchor="middle" x="105.49956582818429" y="223.8461538461538">0/3/1</text></g><g><g><path d="M147.485 199.486C151.485 199.486 156.405 195.766 156.405 191.966C156.405 189.686 154.605 188.206 152.005 188.206C147.085 188.206 143.125 191.846 143.125 195.726C143.125 198.086 145.045 199.486 147.485 199.486Z"></path></g><line stroke="#000000" stroke-width="1.2" x1="155.80534874227646" x2="155.80534874227646" y1="192.0061538461538" y2="157.0061538461538"></line><line stroke="#000000" stroke-width="2.2" x1="139.92534874227647" x2="161.84534874227646" y1="193.8461538461538" y2="193.8461538461538"></line><text font-family="Alegreya" font-size="22" text-anchor="middle" x="149.76534874227644" y="223.8461538461538">1/0/1</text></g></g><g transform="translate(558.065417158891)"><g><g><line stroke="#6A6A6A" stroke-width="1.3" x1="-16.599999999999966" x2="161.67013165636854" y1="183.8461538461538" y2="183.8461538461538"></line><line stroke="#6A6A6A" stroke-width="1.3" x1="-16.599999999999966" x2="161.67013165636854" y1="173.8461538461538" y2="173.8461538461538"></line><line stroke="#6A6A6A" stroke-width="1.3" x1="-16.599999999999966" x2="161.67013165636854" y1="163.8461538461538" y2="163.8461538461538"></line><line stroke="#6A6A6A" stroke-width="1.3" x1="-16.599999999999966" x2="161.67013165636854" y1="153.8461538461538" y2="153.8461538461538"></line><line stroke="#6A6A6A" stroke-width="1.3" x1="-16.599999999999966" x2="161.67013165636854" y1="143.8461538461538" y2="143.8461538461538"></line></g></g><g><line stroke="black" stroke-width="1.6" x1="162.4701316563686" x2="162.4701316563686" y1="143.8461538461538" y2="183.8461538461538"></line></g><g><g><path d="M11.355 199.486C15.355 199.486 20.275 195.766 20.275 191.966C20.275 189.686 18.475 188.206 15.875 188.206C10.955 188.206 6.995 191.846 6.995 195.726C6.995 198.086 8.915 199.486 11.355 199.486Z"></path></g><line stroke="#000000" stroke-width="1.2" x1="19.674999999999997" x2="19.674999999999997" y1="192.0061538461538" y2="157.0061538461538"></line><line stroke="#000000" stroke-width="2.2" x1="3.7949999999999973" x2="25.714999999999996" y1="193.8461538461538" y2="193.8461538461538"></line><text font-family="Alegreya" font-size="22" text-anchor="middle" x="13.634999999999998" y="223.8461538461538">1/0/0</text></g><g><g><path d="M52.981 199.486C56.981 199.486 61.901 195.766 61.901 191.966C61.901 189.686 60.101 188.206 57.501 188.206C52.581 188.206 48.621 191.846 48.621 195.726C48.621 198.086 50.541 199.486 52.981 199.486Z"></path></g><line stroke="#000000" stroke-width="1.2" x1="61.300782914092146" x2="61.300782914092146" y1="192.0061538461538" y2="157.0061538461538"></line><line stroke="#000000" stroke-width="2.2" x1="45.42078291409214" x2="67.34078291409215" y1="193.8461538461538" y2="193.8461538461538"></line><text font-family="Alegreya" font-size="22" text-anchor="middle" x="55.26078291409215" y="223.8461538461538">1/1/0</text></g><g><g><path d="M92.638 199.486C96.638 199.486 101.558 195.766 101.558 191.966C101.558 189.686 99.758 188.206 97.158 188.206C92.238 188.206 88.278 191.846 88.278 195.726C88.278 198.086 90.198 199.486 92.638 199.486Z"></path></g><line stroke="#000000" stroke-width="1.2" x1="100.9575658281843" x2="100.9575658281843" y1="192.0061538461538" y2="157.0061538461538"></line><line stroke="#000000" stroke-width="2.2" x1="85.07756582818429" x2="106.99756582818429" y1="193.8461538461538" y2="193.8461538461538"></line><text font-family="Alegreya" font-size="22" text-anchor="middle" x="94.9175658281843" y="223.8461538461538">1/1/1</text></g><g><g><path d="M133.625 199.486C137.625 199.486 142.545 195.766 142.545 191.966C142.545 189.686 140.745 188.206 138.145 188.206C133.225 188.206 129.265 191.846 129.265 195.726C129.265 198.086 131.185 199.486 133.625 199.486Z"></path></g><line stroke="#000000" stroke-width="1.2" x1="141.94534874227645" x2="141.94534874227645" y1="192.0061538461538" y2="157.0061538461538"></line><line stroke="#000000" stroke-width="2.2" x1="126.06534874227644" x2="147.98534874227644" y1="193.8461538461538" y2="193.8461538461538"></line><text font-family="Alegreya" font-size="22" text-anchor="middle" x="135.90534874227643" y="223.8461538461538">1/2/0</text></g></g><g transform="translate(736.3355488152597)"><g><g><line stroke="#6A6A6A" stroke-width="1.3" x1="-16.600000000000023" x2="170.2391316563686" y1="183.8461538461538" y2="183.8461538461538"></line><line stroke="#6A6A6A" stroke-width="1.3" x1="-16.600000000000023" x2="170.2391316563686" y1="173.8461538461538" y2="173.8461538461538"></line><line stroke="#6A6A6A" stroke-width="1.3" x1="-16.600000000000023" x2="170.2391316563686" y1="163.8461538461538" y2="163.8461538461538"></line><line stroke="#6A6A6A" stroke-width="1.3" x1="-16.600000000000023" x2="170.2391316563686" y1="153.8461538461538" y2="153.8461538461538"></line><line stroke="#6A6A6A" stroke-width="1.3" x1="-16.600000000000023" x2="170.2391316563686" y1="143.8461538461538" y2="143.8461538461538"></line></g></g><g><line stroke="black" stroke-width="1.6" x1="171.03913165636862" x2="171.03913165636862" y1="143.8461538461538" y2="183.8461538461538"></line></g><g><g><path d="M10.717 199.486C14.717 199.486 19.637 195.766 19.637 191.966C19.637 189.686 17.837 188.206 15.237 188.206C10.317 188.206 6.357 191.846 6.357 195.726C6.357 198.086 8.277 199.486 10.717 199.486Z"></path></g><line stroke="#000000" stroke-width="1.2" x1="19.037" x2="19.037" y1="192.0061538461538" y2="157.0061538461538"></line><line stroke="#000000" stroke-width="2.2" x1="3.1569999999999956" x2="25.076999999999995" y1="193.8461538461538" y2="193.8461538461538"></line><text font-family="Alegreya" font-size="22" text-anchor="middle" x="12.996999999999996" y="223.8461538461538">1/2/1</text></g><g><g><path d="M52.376 199.486C56.376 199.486 61.296 195.766 61.296 191.966C61.296 189.686 59.496 188.206 56.896 188.206C51.976 188.206 48.016 191.846 48.016 195.726C48.016 198.086 49.936 199.486 52.376 199.486Z"></path></g><line stroke="#000000" stroke-width="1.2" x1="60.69578291409214" x2="60.69578291409214" y1="192.0061538461538" y2="157.0061538461538"></line><line stroke="#000000" stroke-width="2.2" x1="44.81578291409214" x2="66.73578291409214" y1="193.8461538461538" y2="193.8461538461538"></line><text font-family="Alegreya" font-size="22" text-anchor="middle" x="54.65578291409214" y="223.8461538461538">1/3/0</text></g><g><g><path d="M93.375 199.486C97.375 199.486 102.295 195.766 102.295 191.966C102.295 189.686 100.495 188.206 97.895 188.206C92.975 188.206 89.015 191.846 89.015 195.726C89.015 198.086 90.935 199.486 93.375 199.486Z"></path></g><line stroke="#000000" stroke-width="1.2" x1="101.6945658281843" x2="101.6945658281843" y1="192.0061538461538" y2="157.0061538461538"></line><line stroke="#000000" stroke-width="2.2" x1="85.81456582818429" x2="107.73456582818429" y1="193.8461538461538" y2="193.8461538461538"></line><text font-family="Alegreya" font-size="22" text-anchor="middle" x="95.65456582818429" y="223.8461538461538">1/3/1</text></g><g><g><path d="M142.194 199.486C146.194 199.486 151.114 195.766 151.114 191.966C151.114 189.686 149.314 188.206 146.714 188.206C141.794 188.206 137.834 191.846 137.834 195.726C137.834 198.086 139.754 199.486 142.194 199.486Z"></path></g><line stroke="#000000" stroke-width="1.2" x1="150.51434874227647" x2="150.51434874227647" y1="192.0061538461538" y2="157.0061538461538"></line><line stroke="#000000" stroke-width="2.2" x1="134.63434874227647" x2="156.55434874227646" y1="193.8461538461538" y2="193.8461538461538"></line><text font-family="Alegreya" font-size="22" text-anchor="middle" x="144.47434874227645" y="223.8461538461538">empty</text></g></g><g transform="translate(923.1746804716282)"><g><g><line stroke="#6A6A6A" stroke-width="1.3" x1="-16.59999999999991" x2="216.97413165636863" y1="183.8461538461538" y2="183.8461538461538"></line><line stroke="#6A6A6A" stroke-width="1.3" x1="-16.59999999999991" x2="216.97413165636863" y1="173.8461538461538" y2="173.8461538461538"></line><line stroke="#6A6A6A" stroke-width="1.3" x1="-16.59999999999991" x2="216.97413165636863" y1="163.8461538461538" y2="163.8461538461538"></line><line stroke="#6A6A6A" stroke-width="1.3" x1="-16.59999999999991" x2="216.97413165636863" y1="153.8461538461538" y2="153.8461538461538"></line><line stroke="#6A6A6A" stroke-width="1.3" x1="-16.59999999999991" x2="216.97413165636863" y1="143.8461538461538" y2="143.8461538461538"></line></g></g><g><line stroke="#000000" stroke-width="1.6" x1="207.17413165636862" x2="207.17413165636862" y1="143.8461538461538" y2="183.8461538461538"></line><line stroke="#000000" stroke-width="5" x1="214.4741316563686" x2="214.4741316563686" y1="143.8461538461538" y2="183.8461538461538"></line></g><g><g><path d="M25.006 199.486C29.006 199.486 33.926 195.766 33.926 191.966C33.926 189.686 32.126 188.206 29.526 188.206C24.606 188.206 20.646 191.846 20.646 195.726C20.646 198.086 22.566 199.486 25.006 199.486Z"></path></g><line stroke="#000000" stroke-width="1.2" x1="33.32599999999999" x2="33.32599999999999" y1="192.0061538461538" y2="157.0061538461538"></line><line stroke="#000000" stroke-width="2.2" x1="17.445999999999994" x2="39.365999999999985" y1="193.8461538461538" y2="193.8461538461538"></line><text font-family="Alegreya" font-size="22" text-anchor="middle" x="27.285999999999994" y="223.8461538461538">empty M</text></g><g><g><path d="M89.864 199.486C93.864 199.486 98.784 195.766 98.784 191.966C98.784 189.686 96.984 188.206 94.384 188.206C89.464 188.206 85.504 191.846 85.504 195.726C85.504 198.086 87.424 199.486 89.864 199.486Z"></path></g><line stroke="#000000" stroke-width="1.2" x1="98.18378291409215" x2="98.18378291409215" y1="192.0061538461538" y2="157.0061538461538"></line><line stroke="#000000" stroke-width="2.2" x1="82.30378291409214" x2="104.22378291409214" y1="193.8461538461538" y2="193.8461538461538"></line><text font-family="Alegreya" font-size="22" text-anchor="middle" x="92.14378291409214" y="223.8461538461538">inval.M</text></g><g><g><path d="M138.959 199.486C142.959 199.486 147.879 195.766 147.879 191.966C147.879 189.686 146.079 188.206 143.479 188.206C138.559 188.206 134.599 191.846 134.599 195.726C134.599 198.086 136.519 199.486 138.959 199.486Z"></path></g><line stroke="#000000" stroke-width="1.2" x1="147.2785658281843" x2="147.2785658281843" y1="192.0061538461538" y2="157.0061538461538"></line><line stroke="#000000" stroke-width="2.2" x1="131.3985658281843" x2="153.3185658281843" y1="193.8461538461538" y2="193.8461538461538"></line><text font-family="Alegreya" font-size="22" text-anchor="middle" x="141.23856582818428" y="223.8461538461538">M=0</text></g><g><g><path d="M178.329 199.486C182.329 199.486 187.249 195.766 187.249 191.966C187.249 189.686 185.449 188.206 182.849 188.206C177.929 188.206 173.969 191.846 173.969 195.726C173.969 198.086 175.889 199.486 178.329 199.486Z"></path></g><line stroke="#000000" stroke-width="1.2" x1="186.64934874227646" x2="186.64934874227646" y1="192.0061538461538" y2="157.0061538461538"></line><line stroke="#000000" stroke-width="2.2" x1="170.76934874227646" x2="192.68934874227645" y1="193.8461538461538" y2="193.8461538461538"></line><text font-family="Alegreya" font-size="22" text-anchor="middle" x="180.60934874227644" y="223.8461538461538">M=5</text></g></g></svg>