<?xml version="1.0" encoding="UTF-8" standalone="no"?><svg xmlns="http://www.w3.org/2000/svg" height="279.4mm" viewBox="0 0 1328.6153846153845 1719.3846153846152" width="215.9mm"><g transform="translate(93.84615384615385)"><g><g><line stroke="#6A6A6A" stroke-width="1.3" x1="0" x2="524.4915997747311" y1="183.8461538461538" y2="183.8461538461538"></line><line stroke="#6A6A6A" stroke-width="1.3" x1="0" x2="524.4915997747311" y1="173.8461538461538" y2="173.8461538461538"></line><line stroke="#6A6A6A" stroke-width="1.3" x1="0" x2="524.4915997747311" y1="163.8461538461538" y2="163.8461538461538"></line><line stroke="#6A6A6A" stroke-width="1.3" x1="0" x2="524.4915997747311" y1="153.8461538461538" y2="153.8461538461538"></line><line stroke="#6A6A6A" stroke-width="1.3" x1="0" x2="524.4915997747311" y1="143.8461538461538" y2="143.8461538461538"></line></g><g><path d="M25.200 129.926C24.640 129.926 23.400 130.966 22.600 131.846C19.640 135.126 18.680 140.126 18.680 144.286C18.680 146.606 18.960 149.206 19.240 150.846C19.320 151.326 19.360 151.406 18.880 151.806C16.320 153.926 13.560 156.366 11.480 158.926C8.720 162.366 7 166.086 7 170.366C7 177.326 11.760 183.926 21.560 183.926C22.480 183.926 23.520 183.846 24.320 183.686C24.760 183.606 24.840 183.566 24.920 184.046C25.400 186.726 26 190.206 26 192.086C26 198.006 22 198.726 19.640 198.726C17.480 198.726 16.440 198.086 16.440 197.566C16.440 197.126 16.800 197.166 17.720 196.886C18.960 196.526 20.400 195.446 20.400 193.126C20.400 190.926 19 189.046 16.560 189.046C13.880 189.046 12.280 191.166 12.280 193.646C12.280 196.246 13.840 200.166 19.880 200.166C22.560 200.166 27.760 198.966 27.760 192.166C27.760 189.886 27.040 186.086 26.600 183.606C26.520 183.126 26.560 183.166 27.120 182.926C31.160 181.326 33.840 177.926 33.840 173.406C33.840 168.286 30.080 163.766 24.200 163.766C23.080 163.766 23.200 163.966 23.040 163.046L22.040 157.246C21.960 156.766 22.040 156.726 22.280 156.486C22.920 155.886 23.760 155.046 24.520 154.206C27.880 150.526 29.880 145.766 29.880 141.246C29.880 137.766 28.920 134.326 27.280 131.926C26.680 131.046 25.640 129.926 25.200 129.926ZM20.040 158.086C20.440 157.766 20.520 157.806 20.600 158.246L21.440 163.366C21.560 164.126 21.560 164.086 20.840 164.326C17.320 165.526 15.040 168.686 15.040 172.086C15.040 175.686 16.920 178.246 19.640 179.166C19.960 179.286 20.440 179.406 20.720 179.406C21.040 179.406 21.200 179.206 21.200 178.966C21.200 178.686 20.880 178.566 20.600 178.446C18.920 177.726 17.720 176.006 17.720 174.166C17.720 171.886 19.280 170.166 21.720 169.486C22.360 169.326 22.440 169.366 22.520 169.806L24.520 181.726C24.600 182.166 24.560 182.166 23.960 182.286C23.320 182.406 22.520 182.486 21.720 182.486C14.720 182.486 10.200 178.606 10.200 173.046C10.200 170.686 10.600 167.526 13.920 163.766C16.320 161.086 18.160 159.606 20.040 158.086ZM24.640 169.166C27.880 169.446 30.560 172.166 30.560 175.686C30.560 178.206 29.040 180.246 26.800 181.366C26.320 181.606 26.240 181.606 26.160 181.126L24.200 169.726C24.120 169.246 24.160 169.126 24.640 169.166ZM25.800 136.126C27.120 136.126 28.200 137.206 28.200 139.406C28.200 142.166 26.880 144.726 23.760 147.846C23.120 148.486 22.160 149.406 21.240 150.206C20.960 150.446 20.800 150.406 20.720 149.886C20.560 148.846 20.480 147.486 20.480 146.206C20.480 139.966 23.360 136.126 25.800 136.126Z"></path></g><g></g><g><g><path d="M65.180 156.806L62.260 156.806L62.260 148.246C62.260 147.926 62.220 147.566 61.780 147.566C61.420 147.566 61.220 147.646 60.980 147.926L57.180 152.526C57.020 152.726 56.820 152.966 56.820 153.446C56.820 153.446 56.820 155.046 56.820 156.806L51.420 156.806C54.620 154.086 61.020 145.006 61.140 144.566C61.140 144.486 61.180 144.446 61.180 144.366C61.180 144.046 60.900 143.806 60.580 143.806C60.220 143.806 58.580 143.886 57.860 143.886C57.140 143.886 55.340 143.806 55.020 143.806C54.660 143.806 54.100 143.926 54.100 144.566C54.100 149.526 50.180 155.086 48.980 156.766L48.740 157.086C48.740 157.126 48.700 157.166 48.700 157.206C48.620 157.366 48.580 157.526 48.580 157.646C48.580 158.046 48.900 158.326 49.380 158.326L56.820 158.326L56.820 160.846C56.820 161.926 55.940 162.246 55.220 162.246C54.580 162.246 54.300 162.606 54.300 163.006C54.300 163.406 54.460 163.846 55.060 163.846C55.700 163.846 63.580 163.846 63.580 163.846C63.980 163.846 64.380 163.566 64.380 163.006C64.380 162.446 63.900 162.206 63.500 162.206C63.100 162.206 62.260 161.966 62.260 160.686L62.260 158.326C63.980 158.326 65.180 158.326 65.180 158.326C65.580 158.326 65.780 158.046 65.780 157.566C65.780 157.086 65.620 156.806 65.180 156.806Z"></path></g><g><path d="M65.180 176.806L62.260 176.806L62.260 168.246C62.260 167.926 62.220 167.566 61.780 167.566C61.420 167.566 61.220 167.646 60.980 167.926L57.180 172.526C57.020 172.726 56.820 172.966 56.820 173.446C56.820 173.446 56.820 175.046 56.820 176.806L51.420 176.806C54.620 174.086 61.020 165.006 61.140 164.566C61.140 164.486 61.180 164.446 61.180 164.366C61.180 164.046 60.900 163.806 60.580 163.806C60.220 163.806 58.580 163.886 57.860 163.886C57.140 163.886 55.340 163.806 55.020 163.806C54.660 163.806 54.100 163.926 54.100 164.566C54.100 169.526 50.180 175.086 48.980 176.766L48.740 177.086C48.740 177.126 48.700 177.166 48.700 177.206C48.620 177.366 48.580 177.526 48.580 177.646C48.580 178.046 48.900 178.326 49.380 178.326L56.820 178.326L56.820 180.846C56.820 181.926 55.940 182.246 55.220 182.246C54.580 182.246 54.300 182.606 54.300 183.006C54.300 183.406 54.460 183.846 55.060 183.846C55.700 183.846 63.580 183.846 63.580 183.846C63.980 183.846 64.380 183.566 64.380 183.006C64.380 182.446 63.900 182.206 63.500 182.206C63.100 182.206 62.260 181.966 62.260 180.686L62.260 178.326C63.980 178.326 65.180 178.326 65.180 178.326C65.580 178.326 65.780 178.046 65.780 177.566C65.780 177.086 65.620 176.806 65.180 176.806Z"></path></g></g></g><g><path d="M197.412 85.206C197.412 86.446 198.452 87.486 199.692 87.486C200.972 87.486 201.972 86.446 201.972 85.206C201.972 83.926 200.972 82.926 199.692 82.926C198.452 82.926 197.412 83.926 197.412 85.206ZM186.412 93.286C186.412 92.046 185.412 91.006 184.132 91.006C182.892 91.006 181.852 92.046 181.852 93.286C181.852 94.566 182.892 95.566 184.132 95.566C185.412 95.566 186.412 94.566 186.412 93.286ZM186.212 77.246C186.452 77.246 186.732 77.326 186.852 77.766L186.932 78.046C187.212 79.126 187.812 81.486 189.852 81.486C190.212 81.486 190.572 81.446 191.012 81.286C192.172 80.886 192.612 79.926 192.612 78.806C192.612 78.206 192.492 77.566 192.292 76.926C191.652 75.086 188.972 74.406 186.932 74.406C184.132 74.406 180.972 77.846 180.972 81.806C180.972 82.766 181.172 83.766 181.612 84.766C182.892 87.686 188.692 91.246 189.012 91.366C189.172 91.446 189.252 91.526 189.252 91.686C189.252 91.846 189.172 92.046 189.012 92.326C188.732 92.886 182.972 103.246 182.972 103.246C182.892 103.406 182.852 103.606 182.852 103.766C182.852 104.166 183.052 104.566 183.412 104.766C183.612 104.886 183.772 104.926 183.972 104.926C184.372 104.926 184.772 104.686 184.972 104.326C184.972 104.326 191.172 93.126 191.292 92.886C191.292 92.926 191.612 92.686 191.772 92.686C192.372 92.806 200.372 95.166 200.372 98.966C200.372 100.526 199.412 101.566 198.132 101.766C198.052 101.766 197.932 101.806 197.852 101.806C197.092 101.806 196.412 101.246 196.412 100.006L196.412 99.566C196.412 98.046 195.412 96.926 194.292 96.926C194.132 96.926 193.972 96.966 193.812 97.006C192.332 97.366 190.972 98.006 190.972 99.606C190.972 99.766 190.972 99.926 191.012 100.126C191.292 101.846 193.092 104.166 195.812 104.166C196.332 104.166 196.892 104.086 197.492 103.886C200.692 102.806 202.812 100.206 202.812 96.886C202.812 96.526 202.772 96.126 202.732 95.726C202.132 91.326 195.812 87.766 195.332 87.526C194.852 87.246 194.652 87.086 194.652 86.886C194.652 86.806 194.692 86.726 194.732 86.646C194.932 86.326 201.132 75.166 201.132 75.166C201.252 74.966 201.292 74.806 201.292 74.606C201.292 74.206 201.052 73.806 200.692 73.606C200.532 73.526 200.332 73.486 200.172 73.486C199.772 73.486 199.372 73.686 199.172 74.046C199.172 74.046 192.812 85.526 192.572 85.886C192.452 86.086 192.372 86.206 192.212 86.206C192.092 86.206 191.972 86.166 191.812 86.086C191.452 85.966 185.412 83.646 184.372 81.846C184.132 81.406 183.812 80.566 183.812 79.726C183.812 78.646 184.292 77.526 185.972 77.246Z"></path></g><path d="M211.012 217.806C211.012 217.806 210.812 218.046 210.812 218.286C210.812 218.446 210.892 218.606 211.092 218.726C211.132 218.766 211.212 218.766 211.252 218.766C211.612 218.766 211.812 218.286 211.812 218.286C211.812 218.286 213.492 215.166 214.732 214.446C214.932 214.326 215.132 214.326 215.252 214.326C215.572 214.326 215.692 214.646 215.692 215.046C215.692 215.406 215.572 215.846 215.532 215.966C215.532 215.966 210.532 227.566 210.412 227.766C210.292 228.086 210.012 228.166 209.692 228.166L207.892 228.166C207.492 228.166 207.252 228.406 207.252 228.686C207.252 228.926 207.492 229.206 207.892 229.206L216.172 229.206C216.612 229.206 216.772 228.926 216.772 228.646C216.772 228.406 216.612 228.166 216.252 228.166L214.972 228.166C214.692 228.166 214.492 228.086 214.492 227.846C214.492 227.686 214.572 227.526 214.692 227.246C214.972 226.526 216.292 223.286 216.292 223.286C216.452 222.806 216.572 222.646 216.732 222.646C216.892 222.646 217.092 222.846 217.372 223.126C218.172 223.726 219.372 223.806 219.892 223.806L220.052 223.806C223.012 223.806 225.132 220.526 225.612 219.566C225.892 218.966 226.332 217.766 226.332 216.446C226.332 215.486 226.092 214.446 225.412 213.566C224.932 212.886 224.252 212.646 223.492 212.646C221.812 212.646 219.852 213.846 219.252 214.566C219.132 214.766 219.012 214.806 218.932 214.806C218.772 214.806 218.692 214.646 218.532 214.286L218.452 214.166C217.972 213.206 217.292 212.766 216.292 212.766C216.092 212.766 215.852 212.766 215.652 212.806C213.932 213.046 211.652 216.686 211.012 217.806ZM222.252 214.166C222.612 214.326 222.772 214.846 222.772 215.526C222.772 216.446 222.452 217.726 221.852 219.006C220.932 221.046 219.532 222.486 218.692 222.486C218.572 222.486 218.492 222.486 218.412 222.446C218.052 222.246 217.852 221.766 217.852 221.086C217.852 220.166 218.172 218.886 218.772 217.566C219.732 215.526 221.092 214.126 221.932 214.126C222.052 214.126 222.132 214.126 222.252 214.166Z"></path><g><line stroke="black" stroke-width="1.6" x1="514.691599774731" x2="514.691599774731" y1="143.8461538461538" y2="183.8461538461538"></line><line stroke="black" stroke-width="5" x1="521.9915997747311" x2="521.9915997747311" y1="143.8461538461538" y2="183.8461538461538"></line></g><g><g><path d="M102.120 174.486C106.120 174.486 111.040 170.766 111.040 166.966C111.040 164.686 109.240 163.206 106.640 163.206C101.720 163.206 97.760 166.846 97.760 170.726C97.760 173.086 99.680 174.486 102.120 174.486Z"></path><path d="M95.240 164.126C95.520 164.006 95.720 163.686 95.720 163.446L95.720 160.606C95.720 160.406 95.600 160.286 95.440 160.286C95.360 160.286 95.320 160.286 95.240 160.326C95.240 160.326 94.440 160.646 94.240 160.686C93.960 160.686 93.680 160.486 93.680 160.166C93.680 159.766 93.680 155.286 93.680 155.286C93.680 155.046 93.440 154.846 93.120 154.846C92.720 154.846 92.480 155.046 92.480 155.286C92.480 155.286 92.480 160.086 92.480 160.486C92.440 160.886 92.320 161.406 91.960 161.646C91.480 161.926 90.120 162.486 89.440 162.646C89.080 162.646 88.960 162.166 88.960 161.846C88.960 161.446 88.960 157.046 88.960 157.046C88.960 156.806 88.680 156.606 88.400 156.606C88 156.606 87.760 156.806 87.760 157.046C87.760 157.046 87.760 159.206 87.760 160.806L87.760 162.446C87.760 163.006 87.520 163.406 87.280 163.526C87.040 163.646 86.240 163.966 86.240 163.966C85.960 164.046 85.760 164.366 85.760 164.606L85.760 167.446C85.760 167.686 85.880 167.806 86.080 167.806C86.120 167.806 86.200 167.766 86.240 167.766C86.240 167.766 86.840 167.526 87.120 167.366C87.160 167.366 87.200 167.326 87.240 167.326C87.520 167.326 87.760 167.726 87.760 168.046L87.760 172.006C87.760 172.446 87.560 172.806 87.320 172.926C87.080 173.006 86.240 173.366 86.240 173.366C85.960 173.446 85.760 173.766 85.760 174.006L85.760 176.846C85.760 177.086 85.880 177.206 86.080 177.206C86.120 177.206 86.200 177.166 86.240 177.166C86.240 177.166 86.800 176.926 87.160 176.806C87.200 176.766 87.240 176.766 87.280 176.766C87.560 176.766 87.760 177.206 87.760 177.406C87.760 177.646 87.760 182.326 87.760 182.326C87.760 182.566 88 182.766 88.280 182.766C88.680 182.766 88.960 182.566 88.960 182.326C88.960 182.326 88.960 177.246 88.960 176.766C88.960 176.246 89.160 175.966 89.360 175.886L91.800 174.886C91.840 174.886 91.920 174.846 91.960 174.846C92.280 174.846 92.480 175.326 92.480 175.566C92.480 175.846 92.480 180.566 92.480 180.566C92.480 180.806 92.720 181.006 93 181.006C93.440 181.006 93.680 180.806 93.680 180.566C93.680 180.566 93.680 175.166 93.680 174.886C93.680 174.566 93.840 174.086 94.120 173.966C94.400 173.846 95.240 173.526 95.240 173.526C95.520 173.406 95.720 173.086 95.720 172.846L95.720 170.006C95.720 169.806 95.600 169.686 95.440 169.686C95.360 169.686 95.320 169.686 95.240 169.726C95.240 169.726 94.400 170.046 94.200 170.126C93.960 170.126 93.680 169.886 93.680 169.406L93.680 165.686C93.680 165.406 93.880 164.646 94.200 164.526C94.520 164.406 95.240 164.126 95.240 164.126ZM92.480 170.646C92.240 171.446 90.360 172.246 89.440 172.246C89.200 172.246 89 172.166 88.960 172.046C88.880 171.886 88.840 171.006 88.840 170.046C88.840 168.806 88.880 167.406 88.960 167.086C89.040 166.406 90.880 165.566 91.880 165.566C92.160 165.566 92.400 165.646 92.480 165.806C92.560 166.006 92.640 167.006 92.640 168.086C92.640 169.166 92.560 170.286 92.480 170.646Z"></path></g><g><path d="M102.120 184.486C106.120 184.486 111.040 180.766 111.040 176.966C111.040 174.686 109.240 173.206 106.640 173.206C101.720 173.206 97.760 176.846 97.760 180.726C97.760 183.086 99.680 184.486 102.120 184.486Z"></path></g><g><path d="M102.120 194.486C106.120 194.486 111.040 190.766 111.040 186.966C111.040 184.686 109.240 183.206 106.640 183.206C101.720 183.206 97.760 186.846 97.760 190.726C97.760 193.086 99.680 194.486 102.120 194.486Z"></path></g><line stroke="#000000" stroke-width="1.2" x1="110.44000000000001" x2="110.44000000000001" y1="187.0061538461538" y2="137.0061538461538"></line></g><g><path d="M220.132 170.286C218.612 168.446 217.372 166.966 217.372 164.726C217.372 164.566 217.412 164.366 217.412 164.206C217.572 161.886 219.012 159.966 220.052 158.326C220.172 158.126 220.212 157.926 220.212 157.726C220.212 157.326 220.052 156.966 220.052 156.966C220.052 156.966 214.132 149.926 213.452 149.246C213.252 149.046 212.972 148.926 212.732 148.926C212.332 148.926 211.932 149.206 211.932 149.766C211.932 149.966 211.972 150.166 212.092 150.406C212.252 150.846 214.532 152.886 214.532 155.766C214.532 157.246 213.932 158.966 212.132 160.846C211.732 161.246 211.572 161.686 211.572 162.006C211.572 162.566 211.972 162.966 211.972 162.966L213.932 165.366C214.572 166.166 215.132 166.926 215.652 167.766C215.732 167.926 215.892 168.126 215.892 168.326C215.892 168.366 215.892 168.446 215.852 168.486C215.772 168.646 215.612 168.686 215.412 168.686C215.172 168.686 214.932 168.606 214.772 168.566C214.572 168.566 214.332 168.446 214.132 168.446C212.412 168.446 210.852 170.166 210.852 172.286C210.852 174.286 212.572 176.246 215.492 178.486C215.812 178.726 216.212 178.846 216.532 178.846C216.812 178.846 217.092 178.766 217.132 178.606C217.172 178.486 217.212 178.406 217.212 178.326C217.212 177.966 216.892 177.646 216.572 177.366C216.052 177.366 215.612 176.286 215.532 175.926C215.412 175.606 215.372 175.246 215.372 174.886C215.372 173.646 215.972 172.246 217.252 172.006C217.452 171.966 217.652 171.966 217.892 171.966C219.052 171.966 220.372 172.406 221.012 172.646C221.052 172.646 221.092 172.686 221.132 172.686C221.252 172.726 221.332 172.726 221.412 172.726C221.532 172.726 221.612 172.686 221.612 172.566C221.612 172.086 220.572 170.766 220.132 170.286Z"></path></g><g><path d="M335.144 162.886L335.144 159.206C335.144 158.606 334.664 158.166 334.104 158.166L324.904 158.166C324.304 158.166 323.864 158.606 323.864 159.206L323.864 162.886C323.864 163.446 324.304 163.926 324.904 163.926L334.104 163.926C334.664 163.926 335.144 163.446 335.144 162.886Z"></path></g></g></svg>