<?xml version="1.0" encoding="UTF-8" standalone="no"?><svg xmlns="http://www.w3.org/2000/svg" height="279.4mm" viewBox="0 0 1328.6153846153845 1719.3846153846152" width="215.9mm"><text x="664.3076923076923" y="61.53846153846143"><tspan alignment-baseline="hanging" fill="black" direction="inherit" dx="0" dy="0" font-style="normal" font-weight="normal" font-family="Alegreya" font-size="29.30769230769231" letter-spacing="normal" text-decoration="none" text-anchor="middle">MusicXML notations (attached to note)</tspan></text><g transform="translate(93.84615384615385)"><g><g><line stroke="#6A6A6A" stroke-width="1.3" x1="0" x2="1302.762799531685" y1="183.8461538461538" y2="183.8461538461538"></line><line stroke="#6A6A6A" stroke-width="1.3" x1="0" x2="1302.762799531685" y1="173.8461538461538" y2="173.8461538461538"></line><line stroke="#6A6A6A" stroke-width="1.3" x1="0" x2="1302.762799531685" y1="163.8461538461538" y2="163.8461538461538"></line><line stroke="#6A6A6A" stroke-width="1.3" x1="0" x2="1302.762799531685" y1="153.8461538461538" y2="153.8461538461538"></line><line stroke="#6A6A6A" stroke-width="1.3" x1="0" x2="1302.762799531685" y1="143.8461538461538" y2="143.8461538461538"></line></g><g><path d="M25.200 129.926C24.640 129.926 23.400 130.966 22.600 131.846C19.640 135.126 18.680 140.126 18.680 144.286C18.680 146.606 18.960 149.206 19.240 150.846C19.320 151.326 19.360 151.406 18.880 151.806C16.320 153.926 13.560 156.366 11.480 158.926C8.720 162.366 7 166.086 7 170.366C7 177.326 11.760 183.926 21.560 183.926C22.480 183.926 23.520 183.846 24.320 183.686C24.760 183.606 24.840 183.566 24.920 184.046C25.400 186.726 26 190.206 26 192.086C26 198.006 22 198.726 19.640 198.726C17.480 198.726 16.440 198.086 16.440 197.566C16.440 197.126 16.800 197.166 17.720 196.886C18.960 196.526 20.400 195.446 20.400 193.126C20.400 190.926 19 189.046 16.560 189.046C13.880 189.046 12.280 191.166 12.280 193.646C12.280 196.246 13.840 200.166 19.880 200.166C22.560 200.166 27.760 198.966 27.760 192.166C27.760 189.886 27.040 186.086 26.600 183.606C26.520 183.126 26.560 183.166 27.120 182.926C31.160 181.326 33.840 177.926 33.840 173.406C33.840 168.286 30.080 163.766 24.200 163.766C23.080 163.766 23.200 163.966 23.040 163.046L22.040 157.246C21.960 156.766 22.040 156.726 22.280 156.486C22.920 155.886 23.760 155.046 24.520 154.206C27.880 150.526 29.880 145.766 29.880 141.246C29.880 137.766 28.920 134.326 27.280 131.926C26.680 131.046 25.640 129.926 25.200 129.926ZM20.040 158.086C20.440 157.766 20.520 157.806 20.600 158.246L21.440 163.366C21.560 164.126 21.560 164.086 20.840 164.326C17.320 165.526 15.040 168.686 15.040 172.086C15.040 175.686 16.920 178.246 19.640 179.166C19.960 179.286 20.440 179.406 20.720 179.406C21.040 179.406 21.200 179.206 21.200 178.966C21.200 178.686 20.880 178.566 20.600 178.446C18.920 177.726 17.720 176.006 17.720 174.166C17.720 171.886 19.280 170.166 21.720 169.486C22.360 169.326 22.440 169.366 22.520 169.806L24.520 181.726C24.600 182.166 24.560 182.166 23.960 182.286C23.320 182.406 22.520 182.486 21.720 182.486C14.720 182.486 10.200 178.606 10.200 173.046C10.200 170.686 10.600 167.526 13.920 163.766C16.320 161.086 18.160 159.606 20.040 158.086ZM24.640 169.166C27.880 169.446 30.560 172.166 30.560 175.686C30.560 178.206 29.040 180.246 26.800 181.366C26.320 181.606 26.240 181.606 26.160 181.126L24.200 169.726C24.120 169.246 24.160 169.126 24.640 169.166ZM25.800 136.126C27.120 136.126 28.200 137.206 28.200 139.406C28.200 142.166 26.880 144.726 23.760 147.846C23.120 148.486 22.160 149.406 21.240 150.206C20.960 150.446 20.800 150.406 20.720 149.886C20.560 148.846 20.480 147.486 20.480 146.206C20.480 139.966 23.360 136.126 25.800 136.126Z"></path></g><g></g><path d="M57.820 153.806C56.620 153.806 55.220 154.126 54.140 154.606C50.580 156.166 48.700 160.446 48.700 164.246C48.700 164.606 48.700 164.966 48.740 165.326C48.940 167.486 49.980 169.526 51.300 171.126C52.820 172.966 55.020 173.806 57.420 173.806C64.420 173.806 65.460 167.446 65.460 166.286C65.460 165.406 65.020 165.406 64.860 165.406C64.540 165.406 64.260 165.446 64.260 166.126C64.260 171.286 59.860 172.486 58.580 172.486C55.340 172.486 53.620 169.326 53.620 162.726C53.620 156.126 56.660 154.766 58.820 154.766C60.900 154.766 61.740 155.726 61.740 156.126C61.740 156.486 61.620 157.006 61.020 157.006C59.420 157.006 58.500 158.726 58.500 159.966C58.500 162.246 60.460 162.966 61.580 162.966C61.580 162.966 64.620 162.846 64.620 159.526C64.620 154.286 58.580 153.806 57.820 153.806Z"></path></g><g><line stroke="black" stroke-width="1.6" x1="563.5499331772282" x2="563.5499331772282" y1="143.8461538461538" y2="183.8461538461538"></line></g><g><g><path d="M147.307 164.486C151.307 164.486 156.227 160.766 156.227 156.966C156.227 154.686 154.427 153.206 151.827 153.206C146.907 153.206 142.947 156.846 142.947 160.726C142.947 163.086 144.867 164.486 147.307 164.486Z"></path></g><line stroke="#000000" stroke-width="1.2" x1="143.54657420286932" x2="143.54657420286932" y1="160.68615384615381" y2="195.68615384615381"></line><path d="M163.907 101.946C163.907 100.786 162.907 99.786 161.707 99.786C160.547 99.786 159.547 100.786 159.547 101.946C159.547 103.146 160.547 104.146 161.707 104.146C162.907 104.146 163.907 103.146 163.907 101.946ZM161.667 95.186C170.187 95.186 171.907 101.506 172.307 103.026C172.347 103.146 172.347 103.266 172.387 103.306C172.667 103.866 172.747 104.146 173.227 104.146C173.587 104.146 173.787 103.986 173.787 103.586C173.787 103.466 173.787 103.346 173.747 103.186C171.267 90.946 162.907 90.866 161.747 90.866C160.467 90.866 152.187 90.946 149.747 103.186C149.707 103.346 149.707 103.506 149.707 103.626C149.707 104.026 149.907 104.146 150.227 104.146C150.587 104.146 150.787 103.866 151.027 103.306C151.067 103.266 151.107 103.106 151.147 102.946C151.627 101.306 153.347 95.186 161.667 95.186Z"></path><text font-family="Alegreya" font-size="22" text-anchor="middle" x="149.58657420286931" y="223.8461538461538">ferm.</text></g><g><g><path d="M248.816 164.486C252.816 164.486 257.736 160.766 257.736 156.966C257.736 154.686 255.936 153.206 253.336 153.206C248.416 153.206 244.456 156.846 244.456 160.726C244.456 163.086 246.376 164.486 248.816 164.486Z"></path></g><line stroke="#000000" stroke-width="1.2" x1="245.05641394645906" x2="245.05641394645906" y1="160.68615384615381" y2="195.68615384615381"></line><path d="M265.416 101.946C265.416 100.786 264.416 99.786 263.216 99.786C262.056 99.786 261.056 100.786 261.056 101.946C261.056 103.146 262.056 104.146 263.216 104.146C264.416 104.146 265.416 103.146 265.416 101.946ZM263.176 95.186C271.696 95.186 273.416 101.506 273.816 103.026C273.856 103.146 273.856 103.266 273.896 103.306C274.176 103.866 274.256 104.146 274.736 104.146C275.096 104.146 275.296 103.986 275.296 103.586C275.296 103.466 275.296 103.346 275.256 103.186C272.776 90.946 264.416 90.866 263.256 90.866C261.976 90.866 253.696 90.946 251.256 103.186C251.216 103.346 251.216 103.506 251.216 103.626C251.216 104.026 251.416 104.146 251.736 104.146C252.096 104.146 252.296 103.866 252.536 103.306C252.576 103.266 252.616 103.106 252.656 102.946C253.136 101.306 254.856 95.186 263.176 95.186Z"></path><text font-family="Alegreya" font-size="22" text-anchor="middle" x="251.09641394645905" y="223.8461538461538">normal ferm.</text></g><g><g><path d="M382.919 164.486C386.919 164.486 391.839 160.766 391.839 156.966C391.839 154.686 390.039 153.206 387.439 153.206C382.519 153.206 378.559 156.846 378.559 160.726C378.559 163.086 380.479 164.486 382.919 164.486Z"></path></g><line stroke="#000000" stroke-width="1.2" x1="379.1592536900488" x2="379.1592536900488" y1="160.68615384615381" y2="195.68615384615381"></line><path d="M399.519 101.946C399.519 100.786 398.519 99.786 397.319 99.786C396.159 99.786 395.159 100.786 395.159 101.946C395.159 103.146 396.159 104.146 397.319 104.146C398.519 104.146 399.519 103.146 399.519 101.946ZM397.279 95.186C405.799 95.186 407.519 101.506 407.919 103.026C407.959 103.146 407.959 103.266 407.999 103.306C408.279 103.866 408.359 104.146 408.839 104.146C409.199 104.146 409.399 103.986 409.399 103.586C409.399 103.466 409.399 103.346 409.359 103.186C406.879 90.946 398.519 90.866 397.359 90.866C396.079 90.866 387.799 90.946 385.359 103.186C385.319 103.346 385.319 103.506 385.319 103.626C385.319 104.026 385.519 104.146 385.839 104.146C386.199 104.146 386.399 103.866 386.639 103.306C386.679 103.266 386.719 103.106 386.759 102.946C387.239 101.306 388.959 95.186 397.279 95.186Z"></path><text font-family="Alegreya" font-size="22" text-anchor="middle" x="385.19925369004875" y="223.8461538461538">angled ferm.</text></g><g><g><path d="M514.503 164.486C518.503 164.486 523.423 160.766 523.423 156.966C523.423 154.686 521.623 153.206 519.023 153.206C514.103 153.206 510.143 156.846 510.143 160.726C510.143 163.086 512.063 164.486 514.503 164.486Z"></path></g><line stroke="#000000" stroke-width="1.2" x1="510.74309343363853" x2="510.74309343363853" y1="160.68615384615381" y2="195.68615384615381"></line><path d="M531.103 101.946C531.103 100.786 530.103 99.786 528.903 99.786C527.743 99.786 526.743 100.786 526.743 101.946C526.743 103.146 527.743 104.146 528.903 104.146C530.103 104.146 531.103 103.146 531.103 101.946ZM528.863 95.186C537.383 95.186 539.103 101.506 539.503 103.026C539.543 103.146 539.543 103.266 539.583 103.306C539.863 103.866 539.943 104.146 540.423 104.146C540.783 104.146 540.983 103.986 540.983 103.586C540.983 103.466 540.983 103.346 540.943 103.186C538.463 90.946 530.103 90.866 528.943 90.866C527.663 90.866 519.383 90.946 516.943 103.186C516.903 103.346 516.903 103.506 516.903 103.626C516.903 104.026 517.103 104.146 517.423 104.146C517.783 104.146 517.983 103.866 518.223 103.306C518.263 103.266 518.303 103.106 518.343 102.946C518.823 101.306 520.543 95.186 528.863 95.186Z"></path><text font-family="Alegreya" font-size="22" text-anchor="middle" x="516.7830934336386" y="223.8461538461538">square ferm.</text></g></g><g transform="translate(673.1960870233821)"><g></g><g><line stroke="#000000" stroke-width="1.6" x1="381.5769331772284" x2="381.5769331772284" y1="143.8461538461538" y2="183.8461538461538"></line><line stroke="#000000" stroke-width="1.6" x1="387.1769331772284" x2="387.1769331772284" y1="143.8461538461538" y2="183.8461538461538"></line></g><g><g><path d="M87.027 164.486C91.027 164.486 95.947 160.766 95.947 156.966C95.947 154.686 94.147 153.206 91.547 153.206C86.627 153.206 82.667 156.846 82.667 160.726C82.667 163.086 84.587 164.486 87.027 164.486Z"></path></g><line stroke="#000000" stroke-width="1.2" x1="83.26657420286931" x2="83.26657420286931" y1="160.68615384615381" y2="195.68615384615381"></line><path d="M103.627 196.226C103.627 195.026 102.627 194.026 101.427 194.026C100.267 194.026 99.267 195.026 99.267 196.226C99.267 197.386 100.267 198.386 101.427 198.386C102.627 198.386 103.627 197.386 103.627 196.226ZM101.387 202.986C93.067 202.986 91.347 196.866 90.867 195.226C90.827 195.066 90.787 194.906 90.747 194.866C90.507 194.306 90.307 194.026 89.947 194.026C89.627 194.026 89.427 194.146 89.427 194.546C89.427 194.666 89.427 194.826 89.467 194.986C91.907 207.226 100.187 207.306 101.467 207.306C102.627 207.306 110.987 207.226 113.467 194.986C113.507 194.826 113.507 194.706 113.507 194.586C113.507 194.186 113.307 194.026 112.947 194.026C112.467 194.026 112.387 194.306 112.107 194.866C112.067 194.906 112.067 195.026 112.027 195.146C111.627 196.666 109.907 202.986 101.387 202.986Z"></path><text font-family="Alegreya" font-size="22" text-anchor="middle" x="89.30657420286931" y="223.8461538461538">inv.ferm.</text></g><g><g><path d="M163.500 164.486C167.500 164.486 172.420 160.766 172.420 156.966C172.420 154.686 170.620 153.206 168.020 153.206C163.100 153.206 159.140 156.846 159.140 160.726C159.140 163.086 161.060 164.486 163.500 164.486Z"></path></g><g><path d="M163.500 154.486C167.500 154.486 172.420 150.766 172.420 146.966C172.420 144.686 170.620 143.206 168.020 143.206C163.100 143.206 159.140 146.846 159.140 150.726C159.140 153.086 161.060 154.486 163.500 154.486Z"></path></g><g><path d="M163.500 144.486C167.500 144.486 172.420 140.766 172.420 136.966C172.420 134.686 170.620 133.206 168.020 133.206C163.100 133.206 159.140 136.846 159.140 140.726C159.140 143.086 161.060 144.486 163.500 144.486Z"></path></g><line stroke="#000000" stroke-width="1.2" x1="159.74041394645909" x2="159.74041394645909" y1="140.68615384615381" y2="195.68615384615381"></line><text font-family="Alegreya" font-size="22" text-anchor="middle" x="165.78041394645908" y="223.8461538461538">arp.</text></g><g><g><path d="M237.807 164.486C241.807 164.486 246.727 160.766 246.727 156.966C246.727 154.686 244.927 153.206 242.327 153.206C237.407 153.206 233.447 156.846 233.447 160.726C233.447 163.086 235.367 164.486 237.807 164.486Z"></path></g><g><path d="M237.807 154.486C241.807 154.486 246.727 150.766 246.727 146.966C246.727 144.686 244.927 143.206 242.327 143.206C237.407 143.206 233.447 146.846 233.447 150.726C233.447 153.086 235.367 154.486 237.807 154.486Z"></path></g><g><path d="M237.807 144.486C241.807 144.486 246.727 140.766 246.727 136.966C246.727 134.686 244.927 133.206 242.327 133.206C237.407 133.206 233.447 136.846 233.447 140.726C233.447 143.086 235.367 144.486 237.807 144.486Z"></path></g><line stroke="#000000" stroke-width="1.2" x1="234.04725369004885" x2="234.04725369004885" y1="140.68615384615381" y2="195.68615384615381"></line><text font-family="Alegreya" font-size="22" text-anchor="middle" x="240.08725369004884" y="223.8461538461538">non-arp.</text></g><g><g><path d="M332.530 164.486C336.530 164.486 341.450 160.766 341.450 156.966C341.450 154.686 339.650 153.206 337.050 153.206C332.130 153.206 328.170 156.846 328.170 160.726C328.170 163.086 330.090 164.486 332.530 164.486Z"></path></g><line stroke="#000000" stroke-width="1.2" x1="328.77009343363864" x2="328.77009343363864" y1="160.68615384615381" y2="195.68615384615381"></line><text font-family="Alegreya" font-size="22" text-anchor="middle" x="334.8100934336386" y="223.8461538461538">acc.mark</text></g></g><g transform="translate(1076.1730202006104)"><g></g><g><line stroke="black" stroke-width="1.6" x1="319.6359331772284" x2="319.6359331772284" y1="143.8461538461538" y2="183.8461538461538"></line></g><g><g><path d="M62.761 164.486C66.761 164.486 71.681 160.766 71.681 156.966C71.681 154.686 69.881 153.206 67.281 153.206C62.361 153.206 58.401 156.846 58.401 160.726C58.401 163.086 60.321 164.486 62.761 164.486Z"></path></g><line stroke="#000000" stroke-width="1.2" x1="59.00057420286931" x2="59.00057420286931" y1="160.68615384615381" y2="195.68615384615381"></line><path d="M58.561 149.766C58.681 149.726 70.801 145.646 70.801 145.646C71.321 145.526 71.321 145.246 71.321 144.926C71.321 144.606 71.321 144.366 70.801 144.206L58.801 140.126C58.641 140.086 58.561 140.046 58.441 140.046C58.081 140.046 57.961 140.286 57.841 140.606C57.801 140.766 57.761 140.886 57.761 141.006C57.761 141.206 57.881 141.406 58.321 141.566C58.321 141.566 66.961 144.486 67.361 144.646C67.561 144.686 67.641 144.806 67.641 144.926C67.641 145.046 67.561 145.126 67.321 145.206C66.881 145.326 58.321 148.246 58.321 148.246C57.881 148.446 57.761 148.646 57.761 148.846C57.761 148.966 57.801 149.086 57.841 149.206C57.961 149.486 58.121 149.806 58.401 149.806C58.441 149.806 58.521 149.806 58.561 149.766Z"></path><text font-family="Alegreya" font-size="22" text-anchor="middle" x="65.04057420286931" y="223.8461538461538">acc.</text></g><g><g><path d="M132.722 164.486C136.722 164.486 141.642 160.766 141.642 156.966C141.642 154.686 139.842 153.206 137.242 153.206C132.322 153.206 128.362 156.846 128.362 160.726C128.362 163.086 130.282 164.486 132.722 164.486Z"></path></g><line stroke="#000000" stroke-width="1.2" x1="128.96241394645907" x2="128.96241394645907" y1="160.68615384615381" y2="195.68615384615381"></line><path d="M139.182 149.206L134.862 139.966C134.742 139.806 134.622 139.726 134.462 139.726C134.182 139.726 134.062 139.966 134.062 139.966C134.062 139.966 129.822 149.206 129.822 149.206C129.782 149.286 129.782 149.326 129.782 149.406C129.782 149.606 129.862 149.806 130.062 149.846C130.102 149.886 130.222 149.886 130.262 149.886C130.422 149.886 130.622 149.806 130.702 149.606C130.702 149.606 132.862 144.846 132.942 144.686C132.982 144.606 133.022 144.566 133.102 144.566C133.182 144.566 133.262 144.606 133.342 144.686C133.382 144.846 135.622 149.606 135.622 149.606C135.742 149.766 135.902 149.846 136.062 149.846L138.782 149.846C139.062 149.806 139.222 149.646 139.222 149.406C139.222 149.326 139.222 149.246 139.182 149.206Z"></path><text font-family="Alegreya" font-size="22" text-anchor="middle" x="135.00241394645906" y="223.8461538461538">str.-acc.</text></g><g><g><path d="M210.736 164.486C214.736 164.486 219.656 160.766 219.656 156.966C219.656 154.686 217.856 153.206 215.256 153.206C210.336 153.206 206.376 156.846 206.376 160.726C206.376 163.086 208.296 164.486 210.736 164.486Z"></path></g><line stroke="#000000" stroke-width="1.2" x1="206.97625369004882" x2="206.97625369004882" y1="160.68615384615381" y2="195.68615384615381"></line><path d="M214.196 148.166C214.196 147.246 213.436 146.486 212.516 146.486C211.596 146.486 210.836 147.246 210.836 148.166C210.836 149.086 211.596 149.846 212.516 149.846C213.436 149.846 214.196 149.086 214.196 148.166Z"></path><text font-family="Alegreya" font-size="22" text-anchor="middle" x="213.0162536900488" y="223.8461538461538">stacc.</text></g><g><g><path d="M270.589 164.486C274.589 164.486 279.509 160.766 279.509 156.966C279.509 154.686 277.709 153.206 275.109 153.206C270.189 153.206 266.229 156.846 266.229 160.726C266.229 163.086 268.149 164.486 270.589 164.486Z"></path></g><line stroke="#000000" stroke-width="1.2" x1="266.82909343363866" x2="266.82909343363866" y1="160.68615384615381" y2="195.68615384615381"></line><path d="M278.189 149.846C279.109 149.846 279.149 149.406 279.149 148.886C279.149 148.366 279.149 147.926 278.189 147.926L266.549 147.926C265.589 147.926 265.589 148.366 265.589 148.886C265.589 149.406 265.589 149.846 266.549 149.846Z"></path><text font-family="Alegreya" font-size="22" text-anchor="middle" x="272.8690934336386" y="223.8461538461538">ten.</text></g></g><g transform="translate(93.84615384615385)"><g><g><line stroke="#6A6A6A" stroke-width="1.3" x1="0" x2="1366.7888669613021" y1="314.8461538461538" y2="314.8461538461538"></line><line stroke="#6A6A6A" stroke-width="1.3" x1="0" x2="1366.7888669613021" y1="304.8461538461538" y2="304.8461538461538"></line><line stroke="#6A6A6A" stroke-width="1.3" x1="0" x2="1366.7888669613021" y1="294.8461538461538" y2="294.8461538461538"></line><line stroke="#6A6A6A" stroke-width="1.3" x1="0" x2="1366.7888669613021" y1="284.8461538461538" y2="284.8461538461538"></line><line stroke="#6A6A6A" stroke-width="1.3" x1="0" x2="1366.7888669613021" y1="274.8461538461538" y2="274.8461538461538"></line></g><g><path d="M25.200 260.926C24.640 260.926 23.400 261.966 22.600 262.846C19.640 266.126 18.680 271.126 18.680 275.286C18.680 277.606 18.960 280.206 19.240 281.846C19.320 282.326 19.360 282.406 18.880 282.806C16.320 284.926 13.560 287.366 11.480 289.926C8.720 293.366 7 297.086 7 301.366C7 308.326 11.760 314.926 21.560 314.926C22.480 314.926 23.520 314.846 24.320 314.686C24.760 314.606 24.840 314.566 24.920 315.046C25.400 317.726 26 321.206 26 323.086C26 329.006 22 329.726 19.640 329.726C17.480 329.726 16.440 329.086 16.440 328.566C16.440 328.126 16.800 328.166 17.720 327.886C18.960 327.526 20.400 326.446 20.400 324.126C20.400 321.926 19 320.046 16.560 320.046C13.880 320.046 12.280 322.166 12.280 324.646C12.280 327.246 13.840 331.166 19.880 331.166C22.560 331.166 27.760 329.966 27.760 323.166C27.760 320.886 27.040 317.086 26.600 314.606C26.520 314.126 26.560 314.166 27.120 313.926C31.160 312.326 33.840 308.926 33.840 304.406C33.840 299.286 30.080 294.766 24.200 294.766C23.080 294.766 23.200 294.966 23.040 294.046L22.040 288.246C21.960 287.766 22.040 287.726 22.280 287.486C22.920 286.886 23.760 286.046 24.520 285.206C27.880 281.526 29.880 276.766 29.880 272.246C29.880 268.766 28.920 265.326 27.280 262.926C26.680 262.046 25.640 260.926 25.200 260.926ZM20.040 289.086C20.440 288.766 20.520 288.806 20.600 289.246L21.440 294.366C21.560 295.126 21.560 295.086 20.840 295.326C17.320 296.526 15.040 299.686 15.040 303.086C15.040 306.686 16.920 309.246 19.640 310.166C19.960 310.286 20.440 310.406 20.720 310.406C21.040 310.406 21.200 310.206 21.200 309.966C21.200 309.686 20.880 309.566 20.600 309.446C18.920 308.726 17.720 307.006 17.720 305.166C17.720 302.886 19.280 301.166 21.720 300.486C22.360 300.326 22.440 300.366 22.520 300.806L24.520 312.726C24.600 313.166 24.560 313.166 23.960 313.286C23.320 313.406 22.520 313.486 21.720 313.486C14.720 313.486 10.200 309.606 10.200 304.046C10.200 301.686 10.600 298.526 13.920 294.766C16.320 292.086 18.160 290.606 20.040 289.086ZM24.640 300.166C27.880 300.446 30.560 303.166 30.560 306.686C30.560 309.206 29.040 311.246 26.800 312.366C26.320 312.606 26.240 312.606 26.160 312.126L24.200 300.726C24.120 300.246 24.160 300.126 24.640 300.166ZM25.800 267.126C27.120 267.126 28.200 268.206 28.200 270.406C28.200 273.166 26.880 275.726 23.760 278.846C23.120 279.486 22.160 280.406 21.240 281.206C20.960 281.446 20.800 281.406 20.720 280.886C20.560 279.846 20.480 278.486 20.480 277.206C20.480 270.966 23.360 267.126 25.800 267.126Z"></path></g><g></g><text font-family='Alegreya' font-style='italic' text-anchor='end' stroke='#7a7a7a' font-size="24" x="0" y="264.8461538461538">4</text></g><g><line stroke="black" stroke-width="1.6" x1="388.67471674032555" x2="388.67471674032555" y1="274.8461538461538" y2="314.8461538461538"></line></g><g><g><path d="M109.326 295.486C113.326 295.486 118.246 291.766 118.246 287.966C118.246 285.686 116.446 284.206 113.846 284.206C108.926 284.206 104.966 287.846 104.966 291.726C104.966 294.086 106.886 295.486 109.326 295.486Z"></path></g><line stroke="#000000" stroke-width="1.2" x1="105.56644750955633" x2="105.56644750955633" y1="291.6861538461538" y2="326.6861538461538"></line><path d="M116.926 273.166C117.846 273.166 117.886 272.726 117.886 272.206C117.886 271.686 117.886 271.246 116.926 271.246L105.286 271.246C104.326 271.246 104.326 271.686 104.326 272.206C104.326 272.726 104.326 273.166 105.286 273.166ZM112.926 279.166C112.926 280.086 112.166 280.846 111.246 280.846C110.326 280.846 109.566 280.086 109.566 279.166C109.566 278.246 110.326 277.486 111.246 277.486C112.166 277.486 112.926 278.246 112.926 279.166Z"></path><text font-family="Alegreya" font-size="22" text-anchor="middle" x="111.60644750955633" y="354.8461538461538">det.-leg.</text></g><g><g><path d="M196.338 295.486C200.338 295.486 205.258 291.766 205.258 287.966C205.258 285.686 203.458 284.206 200.858 284.206C195.938 284.206 191.978 287.846 191.978 291.726C191.978 294.086 193.898 295.486 196.338 295.486Z"></path></g><line stroke="#000000" stroke-width="1.2" x1="192.57826481724862" x2="192.57826481724862" y1="291.6861538461538" y2="326.6861538461538"></line><path d="M198.098 269.126C197.058 269.126 196.178 269.486 196.138 270.006C196.138 270.606 197.178 280.926 198.098 280.926C199.098 280.926 200.098 270.966 200.098 270.046C200.098 269.446 199.178 269.126 198.098 269.126Z"></path><text font-family="Alegreya" font-size="22" text-anchor="middle" x="198.61826481724864" y="354.8461538461538">stacc.ss</text></g><g><g><path d="M272.207 295.486C276.207 295.486 281.127 291.766 281.127 287.966C281.127 285.686 279.327 284.206 276.727 284.206C271.807 284.206 267.847 287.846 267.847 291.726C267.847 294.086 269.767 295.486 272.207 295.486Z"></path></g><line stroke="#000000" stroke-width="1.2" x1="268.44708212494095" x2="268.44708212494095" y1="291.6861538461538" y2="326.6861538461538"></line><path d="M272.227 269.366C272.907 271.046 273.627 276.766 273.707 280.726C273.707 280.846 273.947 280.846 273.987 280.846C274.027 280.846 274.267 280.846 274.267 280.726C274.347 276.806 275.067 271.086 275.747 269.366C275.747 269.326 275.747 269.246 275.667 269.246C275.627 269.246 274.787 269.406 273.987 269.406C273.147 269.406 272.347 269.246 272.307 269.246C272.227 269.246 272.227 269.286 272.227 269.366Z"></path><text font-family="Alegreya" font-size="22" text-anchor="middle" x="274.4870821249409" y="354.8461538461538">spicc.</text></g><g><g><path d="M338.572 295.486C342.572 295.486 347.492 291.766 347.492 287.966C347.492 285.686 345.692 284.206 343.092 284.206C338.172 284.206 334.212 287.846 334.212 291.726C334.212 294.086 336.132 295.486 338.572 295.486Z"></path></g><line stroke="#000000" stroke-width="1.2" x1="334.81189943263325" x2="334.81189943263325" y1="291.6861538461538" y2="326.6861538461538"></line><text font-family="Alegreya" font-size="22" text-anchor="middle" x="340.8518994326332" y="354.8461538461538">scoop</text></g></g><g transform="translate(498.3208705864794)"><g></g><g><line stroke="black" stroke-width="1.6" x1="300.32371674032555" x2="300.32371674032555" y1="274.8461538461538" y2="314.8461538461538"></line></g><g><g><path d="M64.796 295.486C68.796 295.486 73.716 291.766 73.716 287.966C73.716 285.686 71.916 284.206 69.316 284.206C64.396 284.206 60.436 287.846 60.436 291.726C60.436 294.086 62.356 295.486 64.796 295.486Z"></path></g><line stroke="#000000" stroke-width="1.2" x1="61.03644750955632" x2="61.03644750955632" y1="291.6861538461538" y2="326.6861538461538"></line><text font-family="Alegreya" font-size="22" text-anchor="middle" x="67.07644750955632" y="354.8461538461538">plop</text></g><g><g><path d="M118.459 295.486C122.459 295.486 127.379 291.766 127.379 287.966C127.379 285.686 125.579 284.206 122.979 284.206C118.059 284.206 114.099 287.846 114.099 291.726C114.099 294.086 116.019 295.486 118.459 295.486Z"></path></g><line stroke="#000000" stroke-width="1.2" x1="114.69926481724863" x2="114.69926481724863" y1="291.6861538461538" y2="326.6861538461538"></line><text font-family="Alegreya" font-size="22" text-anchor="middle" x="120.73926481724864" y="354.8461538461538">doit</text></g><g><g><path d="M179.841 295.486C183.841 295.486 188.761 291.766 188.761 287.966C188.761 285.686 186.961 284.206 184.361 284.206C179.441 284.206 175.481 287.846 175.481 291.726C175.481 294.086 177.401 295.486 179.841 295.486Z"></path></g><line stroke="#000000" stroke-width="1.2" x1="176.08108212494093" x2="176.08108212494093" y1="291.6861538461538" y2="326.6861538461538"></line><text font-family="Alegreya" font-size="22" text-anchor="middle" x="182.12108212494093" y="354.8461538461538">falloff</text></g><g><g><path d="M250.221 295.486C254.221 295.486 259.141 291.766 259.141 287.966C259.141 285.686 257.341 284.206 254.741 284.206C249.821 284.206 245.861 287.846 245.861 291.726C245.861 294.086 247.781 295.486 250.221 295.486Z"></path></g><line stroke="#000000" stroke-width="1.2" x1="246.46089943263323" x2="246.46089943263323" y1="291.6861538461538" y2="326.6861538461538"></line><path d="M251.821 270.806C250.101 270.806 248.981 271.926 248.981 273.326C248.981 274.686 249.901 275.566 251.221 275.566C252.221 275.566 252.341 276.406 252.341 276.406C252.381 276.566 252.421 276.686 252.421 276.846C252.421 277.406 252.141 277.926 251.781 278.406C251.101 279.286 250.061 279.886 249.981 279.966C249.821 280.046 249.661 280.126 249.661 280.326C249.661 280.366 249.701 280.406 249.701 280.446C249.741 280.686 249.861 280.766 249.981 280.766C251.301 280.766 253.341 279.006 253.981 278.006C254.781 276.766 255.021 275.366 255.021 274.206L255.021 273.926C255.021 272.766 254.541 271.966 253.901 271.486C253.301 271.046 252.541 270.806 251.821 270.806Z"></path><text font-family="Alegreya" font-size="22" text-anchor="middle" x="252.50089943263322" y="354.8461538461538">breath</text></g></g><g transform="translate(814.444587326805)"><g></g><g><line stroke="#000000" stroke-width="1.6" x1="307.8257167403255" x2="307.8257167403255" y1="274.8461538461538" y2="314.8461538461538"></line><line stroke="#000000" stroke-width="1.6" x1="313.4257167403255" x2="313.4257167403255" y1="274.8461538461538" y2="314.8461538461538"></line></g><g><g><path d="M69.966 295.486C73.966 295.486 78.886 291.766 78.886 287.966C78.886 285.686 77.086 284.206 74.486 284.206C69.566 284.206 65.606 287.846 65.606 291.726C65.606 294.086 67.526 295.486 69.966 295.486Z"></path></g><line stroke="#000000" stroke-width="1.2" x1="66.20644750955631" x2="66.20644750955631" y1="291.6861538461538" y2="326.6861538461538"></line><path d="M65.186 280.886C65.666 280.886 66.066 280.606 66.226 280.126L72.986 261.046C73.026 260.926 73.026 260.806 73.026 260.686C73.026 260.246 72.746 259.806 72.306 259.646C72.186 259.606 72.026 259.566 71.906 259.566C71.426 259.566 71.026 259.846 70.866 260.326L64.146 279.406C64.106 279.526 64.066 279.686 64.066 279.806C64.066 280.246 64.346 280.646 64.826 280.806C64.946 280.886 65.066 280.886 65.186 280.886ZM72.626 280.126L79.386 261.046C79.426 260.926 79.426 260.806 79.426 260.686C79.426 260.246 79.146 259.806 78.706 259.646C78.586 259.606 78.426 259.566 78.306 259.566C77.826 259.566 77.426 259.846 77.266 260.326L70.506 279.406C70.466 279.526 70.466 279.646 70.466 279.766C70.466 280.206 70.746 280.646 71.226 280.806C71.346 280.886 71.466 280.886 71.586 280.886C72.026 280.886 72.466 280.606 72.626 280.126Z"></path><text font-family="Alegreya" font-size="22" text-anchor="middle" x="72.24644750955632" y="354.8461538461538">caes.</text></g><g><g><path d="M134.384 295.486C138.384 295.486 143.304 291.766 143.304 287.966C143.304 285.686 141.504 284.206 138.904 284.206C133.984 284.206 130.024 287.846 130.024 291.726C130.024 294.086 131.944 295.486 134.384 295.486Z"></path></g><line stroke="#000000" stroke-width="1.2" x1="130.62426481724862" x2="130.62426481724862" y1="291.6861538461538" y2="326.6861538461538"></line><path d="M139.904 272.286C139.344 271.726 138.704 271.366 138.264 271.366C138.104 271.366 137.984 271.446 137.864 271.526C137.464 271.926 131.504 279.246 131.504 280.486C131.504 280.526 131.544 280.606 131.544 280.606C131.584 280.646 131.624 280.646 131.704 280.646C133.064 280.646 140.304 274.726 140.664 274.326C140.784 274.206 140.824 274.086 140.824 273.926C140.824 273.486 140.424 272.806 139.904 272.286Z"></path><text font-family="Alegreya" font-size="22" text-anchor="middle" x="136.66426481724864" y="354.8461538461538">stress</text></g><g><g><path d="M204.060 295.486C208.060 295.486 212.980 291.766 212.980 287.966C212.980 285.686 211.180 284.206 208.580 284.206C203.660 284.206 199.700 287.846 199.700 291.726C199.700 294.086 201.620 295.486 204.060 295.486Z"></path></g><line stroke="#000000" stroke-width="1.2" x1="200.30008212494093" x2="200.30008212494093" y1="291.6861538461538" y2="326.6861538461538"></line><path d="M198.200 272.566L198.200 273.206C198.200 277.406 201.640 280.846 205.840 280.846C210.080 280.846 213.480 277.406 213.480 273.206L213.480 272.566L212.200 272.566L212.200 273.206C212.200 276.726 209.360 279.566 205.840 279.566C202.360 279.566 199.480 276.726 199.480 273.206L199.480 272.566Z"></path><text font-family="Alegreya" font-size="22" text-anchor="middle" x="206.34008212494092" y="354.8461538461538">unstr.</text></g><g><path d="M262.683 301.286C261.163 299.446 259.923 297.966 259.923 295.726C259.923 295.566 259.963 295.366 259.963 295.206C260.123 292.886 261.563 290.966 262.603 289.326C262.723 289.126 262.763 288.926 262.763 288.726C262.763 288.326 262.603 287.966 262.603 287.966C262.603 287.966 256.683 280.926 256.003 280.246C255.803 280.046 255.523 279.926 255.283 279.926C254.883 279.926 254.483 280.206 254.483 280.766C254.483 280.966 254.523 281.166 254.643 281.406C254.803 281.846 257.083 283.886 257.083 286.766C257.083 288.246 256.483 289.966 254.683 291.846C254.283 292.246 254.123 292.686 254.123 293.006C254.123 293.566 254.523 293.966 254.523 293.966L256.483 296.366C257.123 297.166 257.683 297.926 258.203 298.766C258.283 298.926 258.443 299.126 258.443 299.326C258.443 299.366 258.443 299.446 258.403 299.486C258.323 299.646 258.163 299.686 257.963 299.686C257.723 299.686 257.483 299.606 257.323 299.566C257.123 299.566 256.883 299.446 256.683 299.446C254.963 299.446 253.403 301.166 253.403 303.286C253.403 305.286 255.123 307.246 258.043 309.486C258.363 309.726 258.763 309.846 259.083 309.846C259.363 309.846 259.643 309.766 259.683 309.606C259.723 309.486 259.763 309.406 259.763 309.326C259.763 308.966 259.443 308.646 259.123 308.366C258.603 308.366 258.163 307.286 258.083 306.926C257.963 306.606 257.923 306.246 257.923 305.886C257.923 304.646 258.523 303.246 259.803 303.006C260.003 302.966 260.203 302.966 260.443 302.966C261.603 302.966 262.923 303.406 263.563 303.646C263.603 303.646 263.643 303.686 263.683 303.686C263.803 303.726 263.883 303.726 263.963 303.726C264.083 303.726 264.163 303.686 264.163 303.566C264.163 303.086 263.123 301.766 262.683 301.286Z"></path></g></g><g transform="translate(1143.6703040671305)"><g></g><g><line stroke="black" stroke-width="1.6" x1="316.16471674032556" x2="316.16471674032556" y1="274.8461538461538" y2="314.8461538461538"></line></g><g><g><path d="M60.826 295.486C64.826 295.486 69.746 291.766 69.746 287.966C69.746 285.686 67.946 284.206 65.346 284.206C60.426 284.206 56.466 287.846 56.466 291.726C56.466 294.086 58.386 295.486 60.826 295.486Z"></path></g><line stroke="#000000" stroke-width="1.2" x1="57.066447509556326" x2="57.066447509556326" y1="291.6861538461538" y2="326.6861538461538"></line><text font-family="Alegreya" font-size="22" text-anchor="middle" x="63.106447509556325" y="354.8461538461538">tr.</text></g><g><g><path d="M114.489 295.486C118.489 295.486 123.409 291.766 123.409 287.966C123.409 285.686 121.609 284.206 119.009 284.206C114.089 284.206 110.129 287.846 110.129 291.726C110.129 294.086 112.049 295.486 114.489 295.486Z"></path></g><line stroke="#000000" stroke-width="1.2" x1="110.72926481724863" x2="110.72926481724863" y1="291.6861538461538" y2="326.6861538461538"></line><text font-family="Alegreya" font-size="22" text-anchor="middle" x="116.76926481724864" y="354.8461538461538">turn</text></g><g><g><path d="M181.877 295.486C185.877 295.486 190.797 291.766 190.797 287.966C190.797 285.686 188.997 284.206 186.397 284.206C181.477 284.206 177.517 287.846 177.517 291.726C177.517 294.086 179.437 295.486 181.877 295.486Z"></path></g><line stroke="#000000" stroke-width="1.2" x1="178.11708212494094" x2="178.11708212494094" y1="291.6861538461538" y2="326.6861538461538"></line><text font-family="Alegreya" font-size="22" text-anchor="middle" x="184.15708212494093" y="354.8461538461538">del.turn</text></g><g><g><path d="M266.062 295.486C270.062 295.486 274.982 291.766 274.982 287.966C274.982 285.686 273.182 284.206 270.582 284.206C265.662 284.206 261.702 287.846 261.702 291.726C261.702 294.086 263.622 295.486 266.062 295.486Z"></path></g><line stroke="#000000" stroke-width="1.2" x1="262.30189943263326" x2="262.30189943263326" y1="291.6861538461538" y2="326.6861538461538"></line><text font-family="Alegreya" font-size="22" text-anchor="middle" x="268.3418994326332" y="354.8461538461538">inv.turn</text></g></g><g transform="translate(93.84615384615385)"><g><g><line stroke="#6A6A6A" stroke-width="1.3" x1="0" x2="1226.766801057769" y1="445.8461538461538" y2="445.8461538461538"></line><line stroke="#6A6A6A" stroke-width="1.3" x1="0" x2="1226.766801057769" y1="435.8461538461538" y2="435.8461538461538"></line><line stroke="#6A6A6A" stroke-width="1.3" x1="0" x2="1226.766801057769" y1="425.8461538461538" y2="425.8461538461538"></line><line stroke="#6A6A6A" stroke-width="1.3" x1="0" x2="1226.766801057769" y1="415.8461538461538" y2="415.8461538461538"></line><line stroke="#6A6A6A" stroke-width="1.3" x1="0" x2="1226.766801057769" y1="405.8461538461538" y2="405.8461538461538"></line></g><g><path d="M25.200 391.926C24.640 391.926 23.400 392.966 22.600 393.846C19.640 397.126 18.680 402.126 18.680 406.286C18.680 408.606 18.960 411.206 19.240 412.846C19.320 413.326 19.360 413.406 18.880 413.806C16.320 415.926 13.560 418.366 11.480 420.926C8.720 424.366 7 428.086 7 432.366C7 439.326 11.760 445.926 21.560 445.926C22.480 445.926 23.520 445.846 24.320 445.686C24.760 445.606 24.840 445.566 24.920 446.046C25.400 448.726 26 452.206 26 454.086C26 460.006 22 460.726 19.640 460.726C17.480 460.726 16.440 460.086 16.440 459.566C16.440 459.126 16.800 459.166 17.720 458.886C18.960 458.526 20.400 457.446 20.400 455.126C20.400 452.926 19 451.046 16.560 451.046C13.880 451.046 12.280 453.166 12.280 455.646C12.280 458.246 13.840 462.166 19.880 462.166C22.560 462.166 27.760 460.966 27.760 454.166C27.760 451.886 27.040 448.086 26.600 445.606C26.520 445.126 26.560 445.166 27.120 444.926C31.160 443.326 33.840 439.926 33.840 435.406C33.840 430.286 30.080 425.766 24.200 425.766C23.080 425.766 23.200 425.966 23.040 425.046L22.040 419.246C21.960 418.766 22.040 418.726 22.280 418.486C22.920 417.886 23.760 417.046 24.520 416.206C27.880 412.526 29.880 407.766 29.880 403.246C29.880 399.766 28.920 396.326 27.280 393.926C26.680 393.046 25.640 391.926 25.200 391.926ZM20.040 420.086C20.440 419.766 20.520 419.806 20.600 420.246L21.440 425.366C21.560 426.126 21.560 426.086 20.840 426.326C17.320 427.526 15.040 430.686 15.040 434.086C15.040 437.686 16.920 440.246 19.640 441.166C19.960 441.286 20.440 441.406 20.720 441.406C21.040 441.406 21.200 441.206 21.200 440.966C21.200 440.686 20.880 440.566 20.600 440.446C18.920 439.726 17.720 438.006 17.720 436.166C17.720 433.886 19.280 432.166 21.720 431.486C22.360 431.326 22.440 431.366 22.520 431.806L24.520 443.726C24.600 444.166 24.560 444.166 23.960 444.286C23.320 444.406 22.520 444.486 21.720 444.486C14.720 444.486 10.200 440.606 10.200 435.046C10.200 432.686 10.600 429.526 13.920 425.766C16.320 423.086 18.160 421.606 20.040 420.086ZM24.640 431.166C27.880 431.446 30.560 434.166 30.560 437.686C30.560 440.206 29.040 442.246 26.800 443.366C26.320 443.606 26.240 443.606 26.160 443.126L24.200 431.726C24.120 431.246 24.160 431.126 24.640 431.166ZM25.800 398.126C27.120 398.126 28.200 399.206 28.200 401.406C28.200 404.166 26.880 406.726 23.760 409.846C23.120 410.486 22.160 411.406 21.240 412.206C20.960 412.446 20.800 412.406 20.720 411.886C20.560 410.846 20.480 409.486 20.480 408.206C20.480 401.966 23.360 398.126 25.800 398.126Z"></path></g><g></g><text font-family='Alegreya' font-style='italic' text-anchor='end' stroke='#7a7a7a' font-size="24" x="0" y="395.8461538461538">8</text></g><g><line stroke="black" stroke-width="1.6" x1="290.6955835441729" x2="290.6955835441729" y1="405.8461538461538" y2="445.8461538461538"></line></g><g><g><path d="M74.321 426.486C78.321 426.486 83.241 422.766 83.241 418.966C83.241 416.686 81.441 415.206 78.841 415.206C73.921 415.206 69.961 418.846 69.961 422.726C69.961 425.086 71.881 426.486 74.321 426.486Z"></path></g><line stroke="#000000" stroke-width="1.2" x1="70.56093103367304" x2="70.56093103367304" y1="422.6861538461538" y2="457.6861538461538"></line><text font-family="Alegreya" font-size="22" text-anchor="middle" x="76.60093103367305" y="485.8461538461538">shake</text></g><g><g><path d="M131.979 426.486C135.979 426.486 140.899 422.766 140.899 418.966C140.899 416.686 139.099 415.206 136.499 415.206C131.579 415.206 127.619 418.846 127.619 422.726C127.619 425.086 129.539 426.486 131.979 426.486Z"></path></g><line stroke="#000000" stroke-width="1.2" x1="128.219344161298" x2="128.219344161298" y1="422.6861538461538" y2="457.6861538461538"></line><text font-family="Alegreya" font-size="22" text-anchor="middle" x="134.25934416129803" y="485.8461538461538">wavy</text></g><g><g><path d="M196.525 426.486C200.525 426.486 205.445 422.766 205.445 418.966C205.445 416.686 203.645 415.206 201.045 415.206C196.125 415.206 192.165 418.846 192.165 422.726C192.165 425.086 194.085 426.486 196.525 426.486Z"></path></g><line stroke="#000000" stroke-width="1.2" x1="192.76475728892297" x2="192.76475728892297" y1="422.6861538461538" y2="457.6861538461538"></line><text font-family="Alegreya" font-size="22" text-anchor="middle" x="198.80475728892299" y="485.8461538461538">wavy</text></g><g><g><path d="M255.262 426.486C259.262 426.486 264.182 422.766 264.182 418.966C264.182 416.686 262.382 415.206 259.782 415.206C254.862 415.206 250.902 418.846 250.902 422.726C250.902 425.086 252.822 426.486 255.262 426.486Z"></path></g><line stroke="#000000" stroke-width="1.2" x1="251.50217041654793" x2="251.50217041654793" y1="422.6861538461538" y2="457.6861538461538"></line><text font-family="Alegreya" font-size="22" text-anchor="middle" x="257.54217041654795" y="485.8461538461538">line</text></g></g><g transform="translate(400.3417373903267)"><g></g><g><line stroke="black" stroke-width="1.6" x1="268.03958354417284" x2="268.03958354417284" y1="405.8461538461538" y2="445.8461538461538"></line></g><g><g><path d="M40.571 426.486C44.571 426.486 49.491 422.766 49.491 418.966C49.491 416.686 47.691 415.206 45.091 415.206C40.171 415.206 36.211 418.846 36.211 422.726C36.211 425.086 38.131 426.486 40.571 426.486Z"></path></g><line stroke="#000000" stroke-width="1.2" x1="36.81093103367305" x2="36.81093103367305" y1="422.6861538461538" y2="457.6861538461538"></line><text font-family="Alegreya" font-size="22" text-anchor="middle" x="42.85093103367305" y="485.8461538461538">mord.</text></g><g><g><path d="M115.861 426.486C119.861 426.486 124.781 422.766 124.781 418.966C124.781 416.686 122.981 415.206 120.381 415.206C115.461 415.206 111.501 418.846 111.501 422.726C111.501 425.086 113.421 426.486 115.861 426.486Z"></path></g><line stroke="#000000" stroke-width="1.2" x1="112.10134416129799" x2="112.10134416129799" y1="422.6861538461538" y2="457.6861538461538"></line><text font-family="Alegreya" font-size="22" text-anchor="middle" x="118.141344161298" y="485.8461538461538">inv.mord.</text></g><g><g><path d="M184.046 426.486C188.046 426.486 192.966 422.766 192.966 418.966C192.966 416.686 191.166 415.206 188.566 415.206C183.646 415.206 179.686 418.846 179.686 422.726C179.686 425.086 181.606 426.486 184.046 426.486Z"></path></g><line stroke="#000000" stroke-width="1.2" x1="180.28575728892292" x2="180.28575728892292" y1="422.6861538461538" y2="457.6861538461538"></line><text font-family="Alegreya" font-size="22" text-anchor="middle" x="186.32575728892294" y="485.8461538461538">schl.</text></g><g><g><path d="M232.606 426.486C236.606 426.486 241.526 422.766 241.526 418.966C241.526 416.686 239.726 415.206 237.126 415.206C232.206 415.206 228.246 418.846 228.246 422.726C228.246 425.086 230.166 426.486 232.606 426.486Z"></path></g><g><line stroke="#000000" stroke-width="1.2" x1="228.8461704165479" x2="228.8461704165479" y1="422.6861538461538" y2="457.6861538461538"></line><path d="M234.846 442.726L234.846 437.726L222.846 440.246L222.846 445.246ZM234.846 445.206L222.846 447.686L222.846 452.686L234.846 450.206ZM234.846 452.566L222.846 455.046L222.846 460.046L234.846 457.566Z"></path></g><text font-family="Alegreya" font-size="22" text-anchor="middle" x="234.88617041654788" y="485.8461538461538">trem.</text></g></g><g transform="translate(684.1813209344996)"><g></g><g><line stroke="#000000" stroke-width="1.6" x1="334.5760504252504" x2="334.5760504252504" y1="405.8461538461538" y2="445.8461538461538"></line><line stroke="#000000" stroke-width="1.6" x1="340.1760504252504" x2="340.1760504252504" y1="405.8461538461538" y2="445.8461538461538"></line></g><g><g><path d="M55.817 426.486C59.817 426.486 64.737 422.766 64.737 418.966C64.737 416.686 62.937 415.206 60.337 415.206C55.417 415.206 51.457 418.846 51.457 422.726C51.457 425.086 53.377 426.486 55.817 426.486Z"></path></g><line stroke="#000000" stroke-width="1.2" x1="52.056931033673045" x2="52.056931033673045" y1="422.6861538461538" y2="457.6861538461538"></line><text font-family="Alegreya" font-size="22" text-anchor="middle" x="58.096931033673044" y="485.8461538461538">turn+acc.</text></g><g><g><path d="M234.507 426.486C238.507 426.486 243.427 422.766 243.427 418.966C243.427 416.686 241.627 415.206 239.027 415.206C234.107 415.206 230.147 418.846 230.147 422.726C230.147 425.086 232.067 426.486 234.507 426.486Z"></path></g><line stroke="#000000" stroke-width="1.2" x1="230.74734416129795" x2="230.74734416129795" y1="422.6861538461538" y2="457.6861538461538"></line><text font-family="Alegreya" font-size="22" text-anchor="middle" x="236.78734416129794" y="485.8461538461538">turn+acc.(ab.+bel./rel to turn)</text></g><g><path d="M280.421 424.886L280.421 421.206C280.421 420.606 279.941 420.166 279.381 420.166L270.181 420.166C269.581 420.166 269.141 420.606 269.141 421.206L269.141 424.886C269.141 425.446 269.581 425.926 270.181 425.926L279.381 425.926C279.941 425.926 280.421 425.446 280.421 424.886Z"></path></g></g><g transform="translate(1040.15737135975)"><g></g><g><line stroke="black" stroke-width="1.6" x1="279.6555835441729" x2="279.6555835441729" y1="405.8461538461538" y2="445.8461538461538"></line></g><g><g><path d="M36.732 426.486C40.732 426.486 45.652 422.766 45.652 418.966C45.652 416.686 43.852 415.206 41.252 415.206C36.332 415.206 32.372 418.846 32.372 422.726C32.372 425.086 34.292 426.486 36.732 426.486Z"></path></g><line stroke="#000000" stroke-width="1.2" x1="32.97193103367305" x2="32.97193103367305" y1="422.6861538461538" y2="457.6861538461538"></line><text font-family="Alegreya" font-size="22" text-anchor="middle" x="39.01193103367305" y="485.8461538461538">up-b.</text></g><g><g><path d="M101.110 426.486C105.110 426.486 110.030 422.766 110.030 418.966C110.030 416.686 108.230 415.206 105.630 415.206C100.710 415.206 96.750 418.846 96.750 422.726C96.750 425.086 98.670 426.486 101.110 426.486Z"></path></g><line stroke="#000000" stroke-width="1.2" x1="97.35034416129801" x2="97.35034416129801" y1="422.6861538461538" y2="457.6861538461538"></line><text font-family="Alegreya" font-size="22" text-anchor="middle" x="103.39034416129802" y="485.8461538461538">down-b.</text></g><g><g><path d="M168.943 426.486C172.943 426.486 177.863 422.766 177.863 418.966C177.863 416.686 176.063 415.206 173.463 415.206C168.543 415.206 164.583 418.846 164.583 422.726C164.583 425.086 166.503 426.486 168.943 426.486Z"></path></g><line stroke="#000000" stroke-width="1.2" x1="165.18275728892294" x2="165.18275728892294" y1="422.6861538461538" y2="457.6861538461538"></line><text font-family="Alegreya" font-size="22" text-anchor="middle" x="171.22275728892294" y="485.8461538461538">harm.</text></g><g><g><path d="M244.222 426.486C248.222 426.486 253.142 422.766 253.142 418.966C253.142 416.686 251.342 415.206 248.742 415.206C243.822 415.206 239.862 418.846 239.862 422.726C239.862 425.086 241.782 426.486 244.222 426.486Z"></path></g><line stroke="#000000" stroke-width="1.2" x1="240.4621704165479" x2="240.4621704165479" y1="422.6861538461538" y2="457.6861538461538"></line><text font-family="Alegreya" font-size="22" text-anchor="middle" x="246.50217041654793" y="485.8461538461538">nat.harm.</text></g></g><g transform="translate(93.84615384615385)"><g><g><line stroke="#6A6A6A" stroke-width="1.3" x1="0" x2="1082.450558935652" y1="576.8461538461538" y2="576.8461538461538"></line><line stroke="#6A6A6A" stroke-width="1.3" x1="0" x2="1082.450558935652" y1="566.8461538461538" y2="566.8461538461538"></line><line stroke="#6A6A6A" stroke-width="1.3" x1="0" x2="1082.450558935652" y1="556.8461538461538" y2="556.8461538461538"></line><line stroke="#6A6A6A" stroke-width="1.3" x1="0" x2="1082.450558935652" y1="546.8461538461538" y2="546.8461538461538"></line><line stroke="#6A6A6A" stroke-width="1.3" x1="0" x2="1082.450558935652" y1="536.8461538461538" y2="536.8461538461538"></line></g><g><path d="M25.200 522.926C24.640 522.926 23.400 523.966 22.600 524.846C19.640 528.126 18.680 533.126 18.680 537.286C18.680 539.606 18.960 542.206 19.240 543.846C19.320 544.326 19.360 544.406 18.880 544.806C16.320 546.926 13.560 549.366 11.480 551.926C8.720 555.366 7 559.086 7 563.366C7 570.326 11.760 576.926 21.560 576.926C22.480 576.926 23.520 576.846 24.320 576.686C24.760 576.606 24.840 576.566 24.920 577.046C25.400 579.726 26 583.206 26 585.086C26 591.006 22 591.726 19.640 591.726C17.480 591.726 16.440 591.086 16.440 590.566C16.440 590.126 16.800 590.166 17.720 589.886C18.960 589.526 20.400 588.446 20.400 586.126C20.400 583.926 19 582.046 16.560 582.046C13.880 582.046 12.280 584.166 12.280 586.646C12.280 589.246 13.840 593.166 19.880 593.166C22.560 593.166 27.760 591.966 27.760 585.166C27.760 582.886 27.040 579.086 26.600 576.606C26.520 576.126 26.560 576.166 27.120 575.926C31.160 574.326 33.840 570.926 33.840 566.406C33.840 561.286 30.080 556.766 24.200 556.766C23.080 556.766 23.200 556.966 23.040 556.046L22.040 550.246C21.960 549.766 22.040 549.726 22.280 549.486C22.920 548.886 23.760 548.046 24.520 547.206C27.880 543.526 29.880 538.766 29.880 534.246C29.880 530.766 28.920 527.326 27.280 524.926C26.680 524.046 25.640 522.926 25.200 522.926ZM20.040 551.086C20.440 550.766 20.520 550.806 20.600 551.246L21.440 556.366C21.560 557.126 21.560 557.086 20.840 557.326C17.320 558.526 15.040 561.686 15.040 565.086C15.040 568.686 16.920 571.246 19.640 572.166C19.960 572.286 20.440 572.406 20.720 572.406C21.040 572.406 21.200 572.206 21.200 571.966C21.200 571.686 20.880 571.566 20.600 571.446C18.920 570.726 17.720 569.006 17.720 567.166C17.720 564.886 19.280 563.166 21.720 562.486C22.360 562.326 22.440 562.366 22.520 562.806L24.520 574.726C24.600 575.166 24.560 575.166 23.960 575.286C23.320 575.406 22.520 575.486 21.720 575.486C14.720 575.486 10.200 571.606 10.200 566.046C10.200 563.686 10.600 560.526 13.920 556.766C16.320 554.086 18.160 552.606 20.040 551.086ZM24.640 562.166C27.880 562.446 30.560 565.166 30.560 568.686C30.560 571.206 29.040 573.246 26.800 574.366C26.320 574.606 26.240 574.606 26.160 574.126L24.200 562.726C24.120 562.246 24.160 562.126 24.640 562.166ZM25.800 529.126C27.120 529.126 28.200 530.206 28.200 532.406C28.200 535.166 26.880 537.726 23.760 540.846C23.120 541.486 22.160 542.406 21.240 543.206C20.960 543.446 20.800 543.406 20.720 542.886C20.560 541.846 20.480 540.486 20.480 539.206C20.480 532.966 23.360 529.126 25.800 529.126Z"></path></g><g></g><text font-family='Alegreya' font-style='italic' text-anchor='end' stroke='#7a7a7a' font-size="24" x="0" y="526.8461538461538">12</text></g><g><line stroke="black" stroke-width="1.6" x1="365.723389733913" x2="365.723389733913" y1="536.8461538461538" y2="576.8461538461538"></line></g><g><g><path d="M38.242 557.486C42.242 557.486 47.162 553.766 47.162 549.966C47.162 547.686 45.362 546.206 42.762 546.206C37.842 546.206 33.882 549.846 33.882 553.726C33.882 556.086 35.802 557.486 38.242 557.486Z"></path></g><line stroke="#000000" stroke-width="1.2" x1="34.48187050314378" x2="34.48187050314378" y1="553.6861538461538" y2="588.6861538461538"></line><text font-family="Alegreya" font-size="22" text-anchor="middle" x="40.52187050314378" y="616.8461538461538">art.harm.</text></g><g><g><path d="M116.871 557.486C120.871 557.486 125.791 553.766 125.791 549.966C125.791 547.686 123.991 546.206 121.391 546.206C116.471 546.206 112.511 549.846 112.511 553.726C112.511 556.086 114.431 557.486 116.871 557.486Z"></path></g><line stroke="#000000" stroke-width="1.2" x1="113.11100031083606" x2="113.11100031083606" y1="553.6861538461538" y2="588.6861538461538"></line><text font-family="Alegreya" font-size="22" text-anchor="middle" x="119.15100031083607" y="616.8461538461538">nat.h./base</text></g><g><g><path d="M220.096 557.486C224.096 557.486 229.016 553.766 229.016 549.966C229.016 547.686 227.216 546.206 224.616 546.206C219.696 546.206 215.736 549.846 215.736 553.726C215.736 556.086 217.656 557.486 220.096 557.486Z"></path></g><line stroke="#000000" stroke-width="1.2" x1="216.33613011852836" x2="216.33613011852836" y1="553.6861538461538" y2="588.6861538461538"></line><text font-family="Alegreya" font-size="22" text-anchor="middle" x="222.37613011852835" y="616.8461538461538">nat.h./touching</text></g><g><g><path d="M345.409 557.486C349.409 557.486 354.329 553.766 354.329 549.966C354.329 547.686 352.529 546.206 349.929 546.206C345.009 546.206 341.049 549.846 341.049 553.726C341.049 556.086 342.969 557.486 345.409 557.486Z"></path></g><line stroke="#000000" stroke-width="1.2" x1="341.6492599262207" x2="341.6492599262207" y1="553.6861538461538" y2="588.6861538461538"></line><text font-family="Alegreya" font-size="22" text-anchor="middle" x="347.68925992622064" y="616.8461538461538">nat.h./sounding</text></g></g><g transform="translate(475.3695435800669)"><g></g><g><line stroke="black" stroke-width="1.6" x1="276.3463897339131" x2="276.3463897339131" y1="536.8461538461538" y2="576.8461538461538"></line></g><g><g><path d="M17.967 557.486C21.967 557.486 26.887 553.766 26.887 549.966C26.887 547.686 25.087 546.206 22.487 546.206C17.567 546.206 13.607 549.846 13.607 553.726C13.607 556.086 15.527 557.486 17.967 557.486Z"></path></g><line stroke="#000000" stroke-width="1.2" x1="14.206870503143781" x2="14.206870503143781" y1="553.6861538461538" y2="588.6861538461538"></line><text font-family="Alegreya" font-size="22" text-anchor="middle" x="20.246870503143782" y="616.8461538461538">open-str.</text></g><g><g><path d="M99.533 557.486C103.533 557.486 108.453 553.766 108.453 549.966C108.453 547.686 106.653 546.206 104.053 546.206C99.133 546.206 95.173 549.846 95.173 553.726C95.173 556.086 97.093 557.486 99.533 557.486Z"></path></g><line stroke="#000000" stroke-width="1.2" x1="95.7730003108361" x2="95.7730003108361" y1="553.6861538461538" y2="588.6861538461538"></line><text font-family="Alegreya" font-size="22" text-anchor="middle" x="101.8130003108361" y="616.8461538461538">thumb-pos.</text></g><g><g><path d="M191.978 557.486C195.978 557.486 200.898 553.766 200.898 549.966C200.898 547.686 199.098 546.206 196.498 546.206C191.578 546.206 187.618 549.846 187.618 553.726C187.618 556.086 189.538 557.486 191.978 557.486Z"></path></g><line stroke="#000000" stroke-width="1.2" x1="188.2181301185284" x2="188.2181301185284" y1="553.6861538461538" y2="588.6861538461538"></line><text font-family="Alegreya" font-size="22" text-anchor="middle" x="194.2581301185284" y="616.8461538461538">empty fing.</text></g><g><g><path d="M256.032 557.486C260.032 557.486 264.952 553.766 264.952 549.966C264.952 547.686 263.152 546.206 260.552 546.206C255.632 546.206 251.672 549.846 251.672 553.726C251.672 556.086 253.592 557.486 256.032 557.486Z"></path></g><line stroke="#000000" stroke-width="1.2" x1="252.27225992622076" x2="252.27225992622076" y1="553.6861538461538" y2="588.6861538461538"></line><text font-family="Alegreya" font-size="22" text-anchor="middle" x="258.31225992622075" y="616.8461538461538">fing.1</text></g></g><g transform="translate(767.5159333139799)"><g></g><g><line stroke="black" stroke-width="1.6" x1="129.21038973391308" x2="129.21038973391308" y1="536.8461538461538" y2="576.8461538461538"></line></g><g><g><path d="M0.818 557.486C4.818 557.486 9.738 553.766 9.738 549.966C9.738 547.686 7.938 546.206 5.338 546.206C0.418 546.206-3.542 549.846-3.542 553.726C-3.542 556.086-1.622 557.486 0.818 557.486Z"></path></g><line stroke="#000000" stroke-width="1.2" x1="-2.942129496856223" x2="-2.942129496856223" y1="553.6861538461538" y2="588.6861538461538"></line><text font-family="Alegreya" font-size="22" text-anchor="middle" x="3.0978705031437777" y="616.8461538461538">fing.2</text></g><g><g><path d="M36.844 557.486C40.844 557.486 45.764 553.766 45.764 549.966C45.764 547.686 43.964 546.206 41.364 546.206C36.444 546.206 32.484 549.846 32.484 553.726C32.484 556.086 34.404 557.486 36.844 557.486Z"></path></g><line stroke="#000000" stroke-width="1.2" x1="33.0840003108361" x2="33.0840003108361" y1="553.6861538461538" y2="588.6861538461538"></line><text font-family="Alegreya" font-size="22" text-anchor="middle" x="39.1240003108361" y="616.8461538461538">fing.3</text></g><g><g><path d="M72.870 557.486C76.870 557.486 81.790 553.766 81.790 549.966C81.790 547.686 79.990 546.206 77.390 546.206C72.470 546.206 68.510 549.846 68.510 553.726C68.510 556.086 70.430 557.486 72.870 557.486Z"></path></g><line stroke="#000000" stroke-width="1.2" x1="69.11013011852842" x2="69.11013011852842" y1="553.6861538461538" y2="588.6861538461538"></line><text font-family="Alegreya" font-size="22" text-anchor="middle" x="75.15013011852842" y="616.8461538461538">fing.4</text></g><g><g><path d="M108.896 557.486C112.896 557.486 117.816 553.766 117.816 549.966C117.816 547.686 116.016 546.206 113.416 546.206C108.496 546.206 104.536 549.846 104.536 553.726C104.536 556.086 106.456 557.486 108.896 557.486Z"></path></g><line stroke="#000000" stroke-width="1.2" x1="105.13625992622073" x2="105.13625992622073" y1="553.6861538461538" y2="588.6861538461538"></line><text font-family="Alegreya" font-size="22" text-anchor="middle" x="111.17625992622074" y="616.8461538461538">fing.5</text></g></g><g transform="translate(912.5263230478929)"><g></g><g><line stroke="black" stroke-width="1.6" x1="262.970389733913" x2="262.970389733913" y1="536.8461538461538" y2="576.8461538461538"></line></g><g><g><path d="M14.744 557.486C18.744 557.486 23.664 553.766 23.664 549.966C23.664 547.686 21.864 546.206 19.264 546.206C14.344 546.206 10.384 549.846 10.384 553.726C10.384 556.086 12.304 557.486 14.744 557.486Z"></path></g><line stroke="#000000" stroke-width="1.2" x1="10.983870503143775" x2="10.983870503143775" y1="553.6861538461538" y2="588.6861538461538"></line><text font-family="Alegreya" font-size="22" text-anchor="middle" x="17.023870503143776" y="616.8461538461538">fing.sth.</text></g><g><g><path d="M86.113 557.486C90.113 557.486 95.033 553.766 95.033 549.966C95.033 547.686 93.233 546.206 90.633 546.206C85.713 546.206 81.753 549.846 81.753 553.726C81.753 556.086 83.673 557.486 86.113 557.486Z"></path></g><line stroke="#000000" stroke-width="1.2" x1="82.35300031083608" x2="82.35300031083608" y1="553.6861538461538" y2="588.6861538461538"></line><text font-family="Alegreya" font-size="22" text-anchor="middle" x="88.39300031083609" y="616.8461538461538">mult.fing.</text></g><g><g><path d="M172.233 557.486C176.233 557.486 181.153 553.766 181.153 549.966C181.153 547.686 179.353 546.206 176.753 546.206C171.833 546.206 167.873 549.846 167.873 553.726C167.873 556.086 169.793 557.486 172.233 557.486Z"></path></g><line stroke="#000000" stroke-width="1.2" x1="168.4731301185284" x2="168.4731301185284" y1="553.6861538461538" y2="588.6861538461538"></line><text font-family="Alegreya" font-size="22" text-anchor="middle" x="174.5131301185284" y="616.8461538461538">empty pluck</text></g><g><g><path d="M242.656 557.486C246.656 557.486 251.576 553.766 251.576 549.966C251.576 547.686 249.776 546.206 247.176 546.206C242.256 546.206 238.296 549.846 238.296 553.726C238.296 556.086 240.216 557.486 242.656 557.486Z"></path></g><line stroke="#000000" stroke-width="1.2" x1="238.89625992622067" x2="238.89625992622067" y1="553.6861538461538" y2="588.6861538461538"></line><text font-family="Alegreya" font-size="22" text-anchor="middle" x="244.93625992622066" y="616.8461538461538">pluck a</text></g></g><g transform="translate(93.84615384615385)"><g><g><line stroke="#6A6A6A" stroke-width="1.3" x1="0" x2="1186.4852376238052" y1="707.8461538461538" y2="707.8461538461538"></line><line stroke="#6A6A6A" stroke-width="1.3" x1="0" x2="1186.4852376238052" y1="697.8461538461538" y2="697.8461538461538"></line><line stroke="#6A6A6A" stroke-width="1.3" x1="0" x2="1186.4852376238052" y1="687.8461538461538" y2="687.8461538461538"></line><line stroke="#6A6A6A" stroke-width="1.3" x1="0" x2="1186.4852376238052" y1="677.8461538461538" y2="677.8461538461538"></line><line stroke="#6A6A6A" stroke-width="1.3" x1="0" x2="1186.4852376238052" y1="667.8461538461538" y2="667.8461538461538"></line></g><g><path d="M25.200 653.926C24.640 653.926 23.400 654.966 22.600 655.846C19.640 659.126 18.680 664.126 18.680 668.286C18.680 670.606 18.960 673.206 19.240 674.846C19.320 675.326 19.360 675.406 18.880 675.806C16.320 677.926 13.560 680.366 11.480 682.926C8.720 686.366 7 690.086 7 694.366C7 701.326 11.760 707.926 21.560 707.926C22.480 707.926 23.520 707.846 24.320 707.686C24.760 707.606 24.840 707.566 24.920 708.046C25.400 710.726 26 714.206 26 716.086C26 722.006 22 722.726 19.640 722.726C17.480 722.726 16.440 722.086 16.440 721.566C16.440 721.126 16.800 721.166 17.720 720.886C18.960 720.526 20.400 719.446 20.400 717.126C20.400 714.926 19 713.046 16.560 713.046C13.880 713.046 12.280 715.166 12.280 717.646C12.280 720.246 13.840 724.166 19.880 724.166C22.560 724.166 27.760 722.966 27.760 716.166C27.760 713.886 27.040 710.086 26.600 707.606C26.520 707.126 26.560 707.166 27.120 706.926C31.160 705.326 33.840 701.926 33.840 697.406C33.840 692.286 30.080 687.766 24.200 687.766C23.080 687.766 23.200 687.966 23.040 687.046L22.040 681.246C21.960 680.766 22.040 680.726 22.280 680.486C22.920 679.886 23.760 679.046 24.520 678.206C27.880 674.526 29.880 669.766 29.880 665.246C29.880 661.766 28.920 658.326 27.280 655.926C26.680 655.046 25.640 653.926 25.200 653.926ZM20.040 682.086C20.440 681.766 20.520 681.806 20.600 682.246L21.440 687.366C21.560 688.126 21.560 688.086 20.840 688.326C17.320 689.526 15.040 692.686 15.040 696.086C15.040 699.686 16.920 702.246 19.640 703.166C19.960 703.286 20.440 703.406 20.720 703.406C21.040 703.406 21.200 703.206 21.200 702.966C21.200 702.686 20.880 702.566 20.600 702.446C18.920 701.726 17.720 700.006 17.720 698.166C17.720 695.886 19.280 694.166 21.720 693.486C22.360 693.326 22.440 693.366 22.520 693.806L24.520 705.726C24.600 706.166 24.560 706.166 23.960 706.286C23.320 706.406 22.520 706.486 21.720 706.486C14.720 706.486 10.200 702.606 10.200 697.046C10.200 694.686 10.600 691.526 13.920 687.766C16.320 685.086 18.160 683.606 20.040 682.086ZM24.640 693.166C27.880 693.446 30.560 696.166 30.560 699.686C30.560 702.206 29.040 704.246 26.800 705.366C26.320 705.606 26.240 705.606 26.160 705.126L24.200 693.726C24.120 693.246 24.160 693.126 24.640 693.166ZM25.800 660.126C27.120 660.126 28.200 661.206 28.200 663.406C28.200 666.166 26.880 668.726 23.760 671.846C23.120 672.486 22.160 673.406 21.240 674.206C20.960 674.446 20.800 674.406 20.720 673.886C20.560 672.846 20.480 671.486 20.480 670.206C20.480 663.966 23.360 660.126 25.800 660.126Z"></path></g><g></g><text font-family='Alegreya' font-style='italic' text-anchor='end' stroke='#7a7a7a' font-size="24" x="0" y="657.8461538461538">16</text></g><g><line stroke="black" stroke-width="1.6" x1="308.7628094059514" x2="308.7628094059514" y1="667.8461538461538" y2="707.8461538461538"></line></g><g><g><path d="M64.251 688.486C68.251 688.486 73.171 684.766 73.171 680.966C73.171 678.686 71.371 677.206 68.771 677.206C63.851 677.206 59.891 680.846 59.891 684.726C59.891 687.086 61.811 688.486 64.251 688.486Z"></path></g><line stroke="#000000" stroke-width="1.2" x1="60.49054017518214" x2="60.49054017518214" y1="684.6861538461538" y2="719.6861538461538"></line><text font-family="Alegreya" font-size="22" text-anchor="middle" x="66.53054017518214" y="747.8461538461538">dbl.tng.</text></g><g><g><path d="M135.486 688.486C139.486 688.486 144.406 684.766 144.406 680.966C144.406 678.686 142.606 677.206 140.006 677.206C135.086 677.206 131.126 680.846 131.126 684.726C131.126 687.086 133.046 688.486 135.486 688.486Z"></path></g><line stroke="#000000" stroke-width="1.2" x1="131.72585748287443" x2="131.72585748287443" y1="684.6861538461538" y2="719.6861538461538"></line><text font-family="Alegreya" font-size="22" text-anchor="middle" x="137.76585748287442" y="747.8461538461538">trpl.tng.</text></g><g><g><path d="M204.642 688.486C208.642 688.486 213.562 684.766 213.562 680.966C213.562 678.686 211.762 677.206 209.162 677.206C204.242 677.206 200.282 680.846 200.282 684.726C200.282 687.086 202.202 688.486 204.642 688.486Z"></path></g><line stroke="#000000" stroke-width="1.2" x1="200.88217479056672" x2="200.88217479056672" y1="684.6861538461538" y2="719.6861538461538"></line><text font-family="Alegreya" font-size="22" text-anchor="middle" x="206.92217479056671" y="747.8461538461538">stopped</text></g><g><g><path d="M277.549 688.486C281.549 688.486 286.469 684.766 286.469 680.966C286.469 678.686 284.669 677.206 282.069 677.206C277.149 677.206 273.189 680.846 273.189 684.726C273.189 687.086 275.109 688.486 277.549 688.486Z"></path></g><line stroke="#000000" stroke-width="1.2" x1="273.7894920982591" x2="273.7894920982591" y1="684.6861538461538" y2="719.6861538461538"></line><text font-family="Alegreya" font-size="22" text-anchor="middle" x="279.82949209825904" y="747.8461538461538">snp.pizz.</text></g></g><g transform="translate(418.4089632521052)"><g></g><g><line stroke="black" stroke-width="1.6" x1="273.8468094059514" x2="273.8468094059514" y1="667.8461538461538" y2="707.8461538461538"></line></g><g><g><path d="M49.168 688.486C53.168 688.486 58.088 684.766 58.088 680.966C58.088 678.686 56.288 677.206 53.688 677.206C48.768 677.206 44.808 680.846 44.808 684.726C44.808 687.086 46.728 688.486 49.168 688.486Z"></path></g><line stroke="#000000" stroke-width="1.2" x1="45.407540175182135" x2="45.407540175182135" y1="684.6861538461538" y2="719.6861538461538"></line><text font-family="Alegreya" font-size="22" text-anchor="middle" x="51.447540175182134" y="747.8461538461538">empty fret</text></g><g><g><path d="M113.759 688.486C117.759 688.486 122.679 684.766 122.679 680.966C122.679 678.686 120.879 677.206 118.279 677.206C113.359 677.206 109.399 680.846 109.399 684.726C109.399 687.086 111.319 688.486 113.759 688.486Z"></path></g><line stroke="#000000" stroke-width="1.2" x1="109.99885748287443" x2="109.99885748287443" y1="684.6861538461538" y2="719.6861538461538"></line><text font-family="Alegreya" font-size="22" text-anchor="middle" x="116.03885748287443" y="747.8461538461538">fret0</text></g><g><g><path d="M177.844 688.486C181.844 688.486 186.764 684.766 186.764 680.966C186.764 678.686 184.964 677.206 182.364 677.206C177.444 677.206 173.484 680.846 173.484 684.726C173.484 687.086 175.404 688.486 177.844 688.486Z"></path></g><line stroke="#000000" stroke-width="1.2" x1="174.08417479056672" x2="174.08417479056672" y1="684.6861538461538" y2="719.6861538461538"></line><text font-family="Alegreya" font-size="22" text-anchor="middle" x="180.1241747905667" y="747.8461538461538">empty str.</text></g><g><g><path d="M242.633 688.486C246.633 688.486 251.553 684.766 251.553 680.966C251.553 678.686 249.753 677.206 247.153 677.206C242.233 677.206 238.273 680.846 238.273 684.726C238.273 687.086 240.193 688.486 242.633 688.486Z"></path></g><line stroke="#000000" stroke-width="1.2" x1="238.87349209825902" x2="238.87349209825902" y1="684.6861538461538" y2="719.6861538461538"></line><text font-family="Alegreya" font-size="22" text-anchor="middle" x="244.91349209825904" y="747.8461538461538">str. 5</text></g></g><g transform="translate(708.0557726580565)"><g></g><g><line stroke="black" stroke-width="1.6" x1="238.69780940595138" x2="238.69780940595138" y1="667.8461538461538" y2="707.8461538461538"></line></g><g><g><path d="M49.983 688.486C53.983 688.486 58.903 684.766 58.903 680.966C58.903 678.686 57.103 677.206 54.503 677.206C49.583 677.206 45.623 680.846 45.623 684.726C45.623 687.086 47.543 688.486 49.983 688.486Z"></path></g><line stroke="#000000" stroke-width="1.2" x1="46.22254017518213" x2="46.22254017518213" y1="684.6861538461538" y2="719.6861538461538"></line><text font-family="Alegreya" font-size="22" text-anchor="middle" x="52.26254017518213" y="747.8461538461538">hammer</text></g><g><g><path d="M114.466 688.486C118.466 688.486 123.386 684.766 123.386 680.966C123.386 678.686 121.586 677.206 118.986 677.206C114.066 677.206 110.106 680.846 110.106 684.726C110.106 687.086 112.026 688.486 114.466 688.486Z"></path></g><line stroke="#000000" stroke-width="1.2" x1="110.70585748287442" x2="110.70585748287442" y1="684.6861538461538" y2="719.6861538461538"></line><text font-family="Alegreya" font-size="22" text-anchor="middle" x="116.74585748287443" y="747.8461538461538">on</text></g><g><g><path d="M159.160 688.486C163.160 688.486 168.080 684.766 168.080 680.966C168.080 678.686 166.280 677.206 163.680 677.206C158.760 677.206 154.800 680.846 154.800 684.726C154.800 687.086 156.720 688.486 159.160 688.486Z"></path></g><line stroke="#000000" stroke-width="1.2" x1="155.40017479056672" x2="155.40017479056672" y1="684.6861538461538" y2="719.6861538461538"></line><text font-family="Alegreya" font-size="22" text-anchor="middle" x="161.44017479056674" y="747.8461538461538">pull</text></g><g><g><path d="M207.484 688.486C211.484 688.486 216.404 684.766 216.404 680.966C216.404 678.686 214.604 677.206 212.004 677.206C207.084 677.206 203.124 680.846 203.124 684.726C203.124 687.086 205.044 688.486 207.484 688.486Z"></path></g><line stroke="#000000" stroke-width="1.2" x1="203.72449209825905" x2="203.72449209825905" y1="684.6861538461538" y2="719.6861538461538"></line><text font-family="Alegreya" font-size="22" text-anchor="middle" x="209.76449209825904" y="747.8461538461538">off</text></g></g><g transform="translate(962.553582064008)"><g></g><g><line stroke="black" stroke-width="1.6" x1="316.97780940595135" x2="316.97780940595135" y1="667.8461538461538" y2="707.8461538461538"></line></g><g><g><path d="M22.449 688.486C26.449 688.486 31.369 684.766 31.369 680.966C31.369 678.686 29.569 677.206 26.969 677.206C22.049 677.206 18.089 680.846 18.089 684.726C18.089 687.086 20.009 688.486 22.449 688.486Z"></path></g><line stroke="#000000" stroke-width="1.2" x1="18.688540175182133" x2="18.688540175182133" y1="684.6861538461538" y2="719.6861538461538"></line><text font-family="Alegreya" font-size="22" text-anchor="middle" x="24.728540175182133" y="747.8461538461538">bend</text></g><g><g><path d="M93.552 688.486C97.552 688.486 102.472 684.766 102.472 680.966C102.472 678.686 100.672 677.206 98.072 677.206C93.152 677.206 89.192 680.846 89.192 684.726C89.192 687.086 91.112 688.486 93.552 688.486Z"></path></g><line stroke="#000000" stroke-width="1.2" x1="89.79185748287443" x2="89.79185748287443" y1="684.6861538461538" y2="719.6861538461538"></line><text font-family="Alegreya" font-size="22" text-anchor="middle" x="95.83185748287444" y="747.8461538461538">b.3 with-bar</text></g><g><g><path d="M188.943 688.486C192.943 688.486 197.863 684.766 197.863 680.966C197.863 678.686 196.063 677.206 193.463 677.206C188.543 677.206 184.583 680.846 184.583 684.726C184.583 687.086 186.503 688.486 188.943 688.486Z"></path></g><line stroke="#000000" stroke-width="1.2" x1="185.1831747905667" x2="185.1831747905667" y1="684.6861538461538" y2="719.6861538461538"></line><text font-family="Alegreya" font-size="22" text-anchor="middle" x="191.2231747905667" y="747.8461538461538">pre-b. -0.5</text></g><g><g><path d="M285.764 688.486C289.764 688.486 294.684 684.766 294.684 680.966C294.684 678.686 292.884 677.206 290.284 677.206C285.364 677.206 281.404 680.846 281.404 684.726C281.404 687.086 283.324 688.486 285.764 688.486Z"></path></g><line stroke="#000000" stroke-width="1.2" x1="282.004492098259" x2="282.004492098259" y1="684.6861538461538" y2="719.6861538461538"></line><text font-family="Alegreya" font-size="22" text-anchor="middle" x="288.04449209825896" y="747.8461538461538">b. release 3.5</text></g></g><g transform="translate(93.84615384615385)"><g><g><line stroke="#6A6A6A" stroke-width="1.3" x1="0" x2="1103.675983274742" y1="838.8461538461538" y2="838.8461538461538"></line><line stroke="#6A6A6A" stroke-width="1.3" x1="0" x2="1103.675983274742" y1="828.8461538461538" y2="828.8461538461538"></line><line stroke="#6A6A6A" stroke-width="1.3" x1="0" x2="1103.675983274742" y1="818.8461538461538" y2="818.8461538461538"></line><line stroke="#6A6A6A" stroke-width="1.3" x1="0" x2="1103.675983274742" y1="808.8461538461538" y2="808.8461538461538"></line><line stroke="#6A6A6A" stroke-width="1.3" x1="0" x2="1103.675983274742" y1="798.8461538461538" y2="798.8461538461538"></line></g><g><path d="M25.200 784.926C24.640 784.926 23.400 785.966 22.600 786.846C19.640 790.126 18.680 795.126 18.680 799.286C18.680 801.606 18.960 804.206 19.240 805.846C19.320 806.326 19.360 806.406 18.880 806.806C16.320 808.926 13.560 811.366 11.480 813.926C8.720 817.366 7 821.086 7 825.366C7 832.326 11.760 838.926 21.560 838.926C22.480 838.926 23.520 838.846 24.320 838.686C24.760 838.606 24.840 838.566 24.920 839.046C25.400 841.726 26 845.206 26 847.086C26 853.006 22 853.726 19.640 853.726C17.480 853.726 16.440 853.086 16.440 852.566C16.440 852.126 16.800 852.166 17.720 851.886C18.960 851.526 20.400 850.446 20.400 848.126C20.400 845.926 19 844.046 16.560 844.046C13.880 844.046 12.280 846.166 12.280 848.646C12.280 851.246 13.840 855.166 19.880 855.166C22.560 855.166 27.760 853.966 27.760 847.166C27.760 844.886 27.040 841.086 26.600 838.606C26.520 838.126 26.560 838.166 27.120 837.926C31.160 836.326 33.840 832.926 33.840 828.406C33.840 823.286 30.080 818.766 24.200 818.766C23.080 818.766 23.200 818.966 23.040 818.046L22.040 812.246C21.960 811.766 22.040 811.726 22.280 811.486C22.920 810.886 23.760 810.046 24.520 809.206C27.880 805.526 29.880 800.766 29.880 796.246C29.880 792.766 28.920 789.326 27.280 786.926C26.680 786.046 25.640 784.926 25.200 784.926ZM20.040 813.086C20.440 812.766 20.520 812.806 20.600 813.246L21.440 818.366C21.560 819.126 21.560 819.086 20.840 819.326C17.320 820.526 15.040 823.686 15.040 827.086C15.040 830.686 16.920 833.246 19.640 834.166C19.960 834.286 20.440 834.406 20.720 834.406C21.040 834.406 21.200 834.206 21.200 833.966C21.200 833.686 20.880 833.566 20.600 833.446C18.920 832.726 17.720 831.006 17.720 829.166C17.720 826.886 19.280 825.166 21.720 824.486C22.360 824.326 22.440 824.366 22.520 824.806L24.520 836.726C24.600 837.166 24.560 837.166 23.960 837.286C23.320 837.406 22.520 837.486 21.720 837.486C14.720 837.486 10.200 833.606 10.200 828.046C10.200 825.686 10.600 822.526 13.920 818.766C16.320 816.086 18.160 814.606 20.040 813.086ZM24.640 824.166C27.880 824.446 30.560 827.166 30.560 830.686C30.560 833.206 29.040 835.246 26.800 836.366C26.320 836.606 26.240 836.606 26.160 836.126L24.200 824.726C24.120 824.246 24.160 824.126 24.640 824.166ZM25.800 791.126C27.120 791.126 28.200 792.206 28.200 794.406C28.200 797.166 26.880 799.726 23.760 802.846C23.120 803.486 22.160 804.406 21.240 805.206C20.960 805.446 20.800 805.406 20.720 804.886C20.560 803.846 20.480 802.486 20.480 801.206C20.480 794.966 23.360 791.126 25.800 791.126Z"></path></g><g></g><text font-family='Alegreya' font-style='italic' text-anchor='end' stroke='#7a7a7a' font-size="24" x="0" y="788.8461538461538">20</text></g><g><line stroke="black" stroke-width="1.6" x1="272.21187847962153" x2="272.21187847962153" y1="798.8461538461538" y2="838.8461538461538"></line></g><g><g><path d="M90.374 819.486C94.374 819.486 99.294 815.766 99.294 811.966C99.294 809.686 97.494 808.206 94.894 808.206C89.974 808.206 86.014 811.846 86.014 815.726C86.014 818.086 87.934 819.486 90.374 819.486Z"></path></g><line stroke="#000000" stroke-width="1.2" x1="86.61379205978022" x2="86.61379205978022" y1="815.6861538461538" y2="850.6861538461538"></line><text font-family="Alegreya" font-size="22" text-anchor="middle" x="92.65379205978023" y="878.8461538461538">tap</text></g><g><g><path d="M136.094 819.486C140.094 819.486 145.014 815.766 145.014 811.966C145.014 809.686 143.214 808.206 140.614 808.206C135.694 808.206 131.734 811.846 131.734 815.726C131.734 818.086 133.654 819.486 136.094 819.486Z"></path></g><line stroke="#000000" stroke-width="1.2" x1="132.33431366474056" x2="132.33431366474056" y1="815.6861538461538" y2="850.6861538461538"></line><text font-family="Alegreya" font-size="22" text-anchor="middle" x="138.37431366474055" y="878.8461538461538">tap T</text></g><g><g><path d="M184.331 819.486C188.331 819.486 193.251 815.766 193.251 811.966C193.251 809.686 191.451 808.206 188.851 808.206C183.931 808.206 179.971 811.846 179.971 815.726C179.971 818.086 181.891 819.486 184.331 819.486Z"></path></g><line stroke="#000000" stroke-width="1.2" x1="180.57083526970086" x2="180.57083526970086" y1="815.6861538461538" y2="850.6861538461538"></line><text font-family="Alegreya" font-size="22" text-anchor="middle" x="186.61083526970089" y="878.8461538461538">heel</text></g><g><g><path d="M230.051 819.486C234.051 819.486 238.971 815.766 238.971 811.966C238.971 809.686 237.171 808.206 234.571 808.206C229.651 808.206 225.691 811.846 225.691 815.726C225.691 818.086 227.611 819.486 230.051 819.486Z"></path></g><line stroke="#000000" stroke-width="1.2" x1="226.2913568746612" x2="226.2913568746612" y1="815.6861538461538" y2="850.6861538461538"></line><text font-family="Alegreya" font-size="22" text-anchor="middle" x="232.3313568746612" y="878.8461538461538">toe</text></g></g><g transform="translate(381.8580323257753)"><g></g><g><line stroke="#000000" stroke-width="1.6" x1="229.56111315774965" x2="229.56111315774965" y1="798.8461538461538" y2="838.8461538461538"></line><line stroke="#000000" stroke-width="1.6" x1="235.16111315774964" x2="235.16111315774964" y1="798.8461538461538" y2="838.8461538461538"></line></g><g><g><path d="M65.655 819.486C69.655 819.486 74.575 815.766 74.575 811.966C74.575 809.686 72.775 808.206 70.175 808.206C65.255 808.206 61.295 811.846 61.295 815.726C61.295 818.086 63.215 819.486 65.655 819.486Z"></path></g><line stroke="#000000" stroke-width="1.2" x1="61.89479205978023" x2="61.89479205978023" y1="815.6861538461538" y2="850.6861538461538"></line><text font-family="Alegreya" font-size="22" text-anchor="middle" x="67.93479205978022" y="878.8461538461538">fingern.</text></g><g><path d="M116.335 825.286C114.815 823.446 113.575 821.966 113.575 819.726C113.575 819.566 113.615 819.366 113.615 819.206C113.775 816.886 115.215 814.966 116.255 813.326C116.375 813.126 116.415 812.926 116.415 812.726C116.415 812.326 116.255 811.966 116.255 811.966C116.255 811.966 110.335 804.926 109.655 804.246C109.455 804.046 109.175 803.926 108.935 803.926C108.535 803.926 108.135 804.206 108.135 804.766C108.135 804.966 108.175 805.166 108.295 805.406C108.455 805.846 110.735 807.886 110.735 810.766C110.735 812.246 110.135 813.966 108.335 815.846C107.935 816.246 107.775 816.686 107.775 817.006C107.775 817.566 108.175 817.966 108.175 817.966L110.135 820.366C110.775 821.166 111.335 821.926 111.855 822.766C111.935 822.926 112.095 823.126 112.095 823.326C112.095 823.366 112.095 823.446 112.055 823.486C111.975 823.646 111.815 823.686 111.615 823.686C111.375 823.686 111.135 823.606 110.975 823.566C110.775 823.566 110.535 823.446 110.335 823.446C108.615 823.446 107.055 825.166 107.055 827.286C107.055 829.286 108.775 831.246 111.695 833.486C112.015 833.726 112.415 833.846 112.735 833.846C113.015 833.846 113.295 833.766 113.335 833.606C113.375 833.486 113.415 833.406 113.415 833.326C113.415 832.966 113.095 832.646 112.775 832.366C112.255 832.366 111.815 831.286 111.735 830.926C111.615 830.606 111.575 830.246 111.575 829.886C111.575 828.646 112.175 827.246 113.455 827.006C113.655 826.966 113.855 826.966 114.095 826.966C115.255 826.966 116.575 827.406 117.215 827.646C117.255 827.646 117.295 827.686 117.335 827.686C117.455 827.726 117.535 827.726 117.615 827.726C117.735 827.726 117.815 827.686 117.815 827.566C117.815 827.086 116.775 825.766 116.335 825.286Z"></path></g><g><path d="M164.016 817.886L164.016 814.206C164.016 813.606 163.536 813.166 162.976 813.166L153.776 813.166C153.176 813.166 152.736 813.606 152.736 814.206L152.736 817.886C152.736 818.446 153.176 818.926 153.776 818.926L162.976 818.926C163.536 818.926 164.016 818.446 164.016 817.886Z"></path></g></g><g transform="translate(632.819145483525)"><g></g><g><line stroke="black" stroke-width="1.6" x1="235.97687847962152" x2="235.97687847962152" y1="798.8461538461538" y2="838.8461538461538"></line></g><g><g><path d="M41.874 819.486C45.874 819.486 50.794 815.766 50.794 811.966C50.794 809.686 48.994 808.206 46.394 808.206C41.474 808.206 37.514 811.846 37.514 815.726C37.514 818.086 39.434 819.486 41.874 819.486Z"></path></g><line stroke="#000000" stroke-width="1.2" x1="38.11379205978024" x2="38.11379205978024" y1="815.6861538461538" y2="850.6861538461538"></line><text font-family="Alegreya" font-size="22" text-anchor="middle" x="44.15379205978024" y="878.8461538461538">f</text></g><g><g><path d="M87.594 819.486C91.594 819.486 96.514 815.766 96.514 811.966C96.514 809.686 94.714 808.206 92.114 808.206C87.194 808.206 83.234 811.846 83.234 815.726C83.234 818.086 85.154 819.486 87.594 819.486Z"></path></g><line stroke="#000000" stroke-width="1.2" x1="83.83431366474056" x2="83.83431366474056" y1="815.6861538461538" y2="850.6861538461538"></line><text font-family="Alegreya" font-size="22" text-anchor="middle" x="89.87431366474057" y="878.8461538461538">ppp</text></g><g><g><path d="M133.315 819.486C137.315 819.486 142.235 815.766 142.235 811.966C142.235 809.686 140.435 808.206 137.835 808.206C132.915 808.206 128.955 811.846 128.955 815.726C128.955 818.086 130.875 819.486 133.315 819.486Z"></path></g><line stroke="#000000" stroke-width="1.2" x1="129.55483526970087" x2="129.55483526970087" y1="815.6861538461538" y2="850.6861538461538"></line><text font-family="Alegreya" font-size="22" text-anchor="middle" x="135.59483526970087" y="878.8461538461538">sfp</text></g><g><g><path d="M193.816 819.486C197.816 819.486 202.736 815.766 202.736 811.966C202.736 809.686 200.936 808.206 198.336 808.206C193.416 808.206 189.456 811.846 189.456 815.726C189.456 818.086 191.376 819.486 193.816 819.486Z"></path></g><line stroke="#000000" stroke-width="1.2" x1="190.0563568746612" x2="190.0563568746612" y1="815.6861538461538" y2="850.6861538461538"></line><text font-family="Alegreya" font-size="22" text-anchor="middle" x="196.09635687466118" y="878.8461538461538">Oth.dyn.</text></g></g><g transform="translate(884.5960239631465)"><g></g><g><line stroke="#000000" stroke-width="1.6" x1="303.1261131577496" x2="303.1261131577496" y1="798.8461538461538" y2="838.8461538461538"></line><line stroke="#000000" stroke-width="5" x1="310.4261131577496" x2="310.4261131577496" y1="798.8461538461538" y2="838.8461538461538"></line></g><g><g><path d="M75.753 834.486C79.753 834.486 84.673 830.766 84.673 826.966C84.673 824.686 82.873 823.206 80.273 823.206C75.353 823.206 71.393 826.846 71.393 830.726C71.393 833.086 73.313 834.486 75.753 834.486Z"></path></g><line stroke="#000000" stroke-width="1.2" x1="84.07279205978023" x2="84.07279205978023" y1="827.0061538461538" y2="792.0061538461538"></line><g><path d="M79.213 775.166C79.213 774.246 78.453 773.486 77.533 773.486C76.613 773.486 75.853 774.246 75.853 775.166C75.853 776.086 76.613 776.846 77.533 776.846C78.453 776.846 79.213 776.086 79.213 775.166Z"></path><path d="M85.213 776.206L80.893 766.966C80.773 766.806 80.653 766.726 80.493 766.726C80.213 766.726 80.093 766.966 80.093 766.966C80.093 766.966 75.853 776.206 75.853 776.206C75.813 776.286 75.813 776.326 75.813 776.406C75.813 776.606 75.893 776.806 76.093 776.846C76.133 776.886 76.253 776.886 76.293 776.886C76.453 776.886 76.653 776.806 76.733 776.606C76.733 776.606 78.893 771.846 78.973 771.686C79.013 771.606 79.053 771.566 79.133 771.566C79.213 771.566 79.293 771.606 79.373 771.686C79.413 771.846 81.653 776.606 81.653 776.606C81.773 776.766 81.933 776.846 82.093 776.846L84.813 776.846C85.093 776.806 85.253 776.646 85.253 776.406C85.253 776.326 85.253 776.246 85.213 776.206Z"></path></g><text font-family="Alegreya" font-size="22" text-anchor="middle" x="78.03279205978022" y="878.8461538461538">both above</text></g><g><g><path d="M184.940 834.486C188.940 834.486 193.860 830.766 193.860 826.966C193.860 824.686 192.060 823.206 189.460 823.206C184.540 823.206 180.580 826.846 180.580 830.726C180.580 833.086 182.500 834.486 184.940 834.486Z"></path></g><line stroke="#000000" stroke-width="1.2" x1="193.26031366474055" x2="193.26031366474055" y1="827.0061538461538" y2="792.0061538461538"></line><g><path d="M180.740 852.566C180.860 852.526 192.980 848.446 192.980 848.446C193.500 848.326 193.500 848.046 193.500 847.726C193.500 847.406 193.500 847.166 192.980 847.006L180.980 842.926C180.820 842.886 180.740 842.846 180.620 842.846C180.260 842.846 180.140 843.086 180.020 843.406C179.980 843.566 179.940 843.686 179.940 843.806C179.940 844.006 180.060 844.206 180.500 844.366C180.500 844.366 189.140 847.286 189.540 847.446C189.740 847.486 189.820 847.606 189.820 847.726C189.820 847.846 189.740 847.926 189.500 848.006C189.060 848.126 180.500 851.046 180.500 851.046C180.060 851.246 179.940 851.446 179.940 851.646C179.940 851.766 179.980 851.886 180.020 852.006C180.140 852.286 180.300 852.606 180.580 852.606C180.620 852.606 180.700 852.606 180.740 852.566Z"></path><path d="M183.300 775.166C183.300 774.246 182.540 773.486 181.620 773.486C180.700 773.486 179.940 774.246 179.940 775.166C179.940 776.086 180.700 776.846 181.620 776.846C182.540 776.846 183.300 776.086 183.300 775.166Z"></path><path d="M192.500 844.766C193.420 844.766 193.460 844.326 193.460 843.806C193.460 843.286 193.460 842.846 192.500 842.846L180.860 842.846C179.900 842.846 179.900 843.286 179.900 843.806C179.900 844.326 179.900 844.766 180.860 844.766Z"></path></g><text font-family="Alegreya" font-size="22" text-anchor="middle" x="187.22031366474056" y="878.8461538461538">ab./bel./bel.</text></g><g><path d="M237.581 817.886L237.581 814.206C237.581 813.606 237.101 813.166 236.541 813.166L227.341 813.166C226.741 813.166 226.301 813.606 226.301 814.206L226.301 817.886C226.301 818.446 226.741 818.926 227.341 818.926L236.541 818.926C237.101 818.926 237.581 818.446 237.581 817.886Z"></path></g></g></svg>