<?xml version="1.0" encoding="UTF-8" standalone="no"?><svg xmlns="http://www.w3.org/2000/svg" height="279.4mm" viewBox="0 0 1328.6153846153845 1719.3846153846152" width="215.9mm"><g transform="translate(163.84615384615387)"><g><g><line stroke="#6A6A6A" stroke-width="1.3" x1="0" x2="174.35659608856062" y1="216.3461538461538" y2="216.3461538461538"></line><line stroke="#6A6A6A" stroke-width="1.3" x1="0" x2="174.35659608856062" y1="206.3461538461538" y2="206.3461538461538"></line><line stroke="#6A6A6A" stroke-width="1.3" x1="0" x2="174.35659608856062" y1="196.3461538461538" y2="196.3461538461538"></line><line stroke="#6A6A6A" stroke-width="1.3" x1="0" x2="174.35659608856062" y1="186.3461538461538" y2="186.3461538461538"></line><line stroke="#6A6A6A" stroke-width="1.3" x1="0" x2="174.35659608856062" y1="176.3461538461538" y2="176.3461538461538"></line></g><g><path d="M25.200 162.426C24.640 162.426 23.400 163.466 22.600 164.346C19.640 167.626 18.680 172.626 18.680 176.786C18.680 179.106 18.960 181.706 19.240 183.346C19.320 183.826 19.360 183.906 18.880 184.306C16.320 186.426 13.560 188.866 11.480 191.426C8.720 194.866 7 198.586 7 202.866C7 209.826 11.760 216.426 21.560 216.426C22.480 216.426 23.520 216.346 24.320 216.186C24.760 216.106 24.840 216.066 24.920 216.546C25.400 219.226 26 222.706 26 224.586C26 230.506 22 231.226 19.640 231.226C17.480 231.226 16.440 230.586 16.440 230.066C16.440 229.626 16.800 229.666 17.720 229.386C18.960 229.026 20.400 227.946 20.400 225.626C20.400 223.426 19 221.546 16.560 221.546C13.880 221.546 12.280 223.666 12.280 226.146C12.280 228.746 13.840 232.666 19.880 232.666C22.560 232.666 27.760 231.466 27.760 224.666C27.760 222.386 27.040 218.586 26.600 216.106C26.520 215.626 26.560 215.666 27.120 215.426C31.160 213.826 33.840 210.426 33.840 205.906C33.840 200.786 30.080 196.266 24.200 196.266C23.080 196.266 23.200 196.466 23.040 195.546L22.040 189.746C21.960 189.266 22.040 189.226 22.280 188.986C22.920 188.386 23.760 187.546 24.520 186.706C27.880 183.026 29.880 178.266 29.880 173.746C29.880 170.266 28.920 166.826 27.280 164.426C26.680 163.546 25.640 162.426 25.200 162.426ZM20.040 190.586C20.440 190.266 20.520 190.306 20.600 190.746L21.440 195.866C21.560 196.626 21.560 196.586 20.840 196.826C17.320 198.026 15.040 201.186 15.040 204.586C15.040 208.186 16.920 210.746 19.640 211.666C19.960 211.786 20.440 211.906 20.720 211.906C21.040 211.906 21.200 211.706 21.200 211.466C21.200 211.186 20.880 211.066 20.600 210.946C18.920 210.226 17.720 208.506 17.720 206.666C17.720 204.386 19.280 202.666 21.720 201.986C22.360 201.826 22.440 201.866 22.520 202.306L24.520 214.226C24.600 214.666 24.560 214.666 23.960 214.786C23.320 214.906 22.520 214.986 21.720 214.986C14.720 214.986 10.200 211.106 10.200 205.546C10.200 203.186 10.600 200.026 13.920 196.266C16.320 193.586 18.160 192.106 20.040 190.586ZM24.640 201.666C27.880 201.946 30.560 204.666 30.560 208.186C30.560 210.706 29.040 212.746 26.800 213.866C26.320 214.106 26.240 214.106 26.160 213.626L24.200 202.226C24.120 201.746 24.160 201.626 24.640 201.666ZM25.800 168.626C27.120 168.626 28.200 169.706 28.200 171.906C28.200 174.666 26.880 177.226 23.760 180.346C23.120 180.986 22.160 181.906 21.240 182.706C20.960 182.946 20.800 182.906 20.720 182.386C20.560 181.346 20.480 179.986 20.480 178.706C20.480 172.466 23.360 168.626 25.800 168.626Z"></path></g><g></g><path d="M57.820 186.306C56.620 186.306 55.220 186.626 54.140 187.106C50.580 188.666 48.700 192.946 48.700 196.746C48.700 197.106 48.700 197.466 48.740 197.826C48.940 199.986 49.980 202.026 51.300 203.626C52.820 205.466 55.020 206.306 57.420 206.306C64.420 206.306 65.460 199.946 65.460 198.786C65.460 197.906 65.020 197.906 64.860 197.906C64.540 197.906 64.260 197.946 64.260 198.626C64.260 203.786 59.860 204.986 58.580 204.986C55.340 204.986 53.620 201.826 53.620 195.226C53.620 188.626 56.660 187.266 58.820 187.266C60.900 187.266 61.740 188.226 61.740 188.626C61.740 188.986 61.620 189.506 61.020 189.506C59.420 189.506 58.500 191.226 58.500 192.466C58.500 194.746 60.460 195.466 61.580 195.466C61.580 195.466 64.620 195.346 64.620 192.026C64.620 186.786 58.580 186.306 57.820 186.306Z"></path></g><g><line stroke="black" stroke-width="1.6" x1="175.15659608856063" x2="175.15659608856063" y1="176.3461538461538" y2="216.3461538461538"></line></g><g><g><path d="M93.360 221.986C97.360 221.986 102.280 218.266 102.280 214.466C102.280 212.186 100.480 210.706 97.880 210.706C92.960 210.706 89 214.346 89 218.226C89 220.586 90.920 221.986 93.360 221.986Z"></path></g><line stroke="#000000" stroke-width="1.2" x1="101.68" x2="101.68" y1="214.5061538461538" y2="179.5061538461538"></line></g><g><g><path d="M146.508 221.986C150.508 221.986 155.428 218.266 155.428 214.466C155.428 212.186 153.628 210.706 151.028 210.706C146.108 210.706 142.148 214.346 142.148 218.226C142.148 220.586 144.068 221.986 146.508 221.986Z"></path></g><line stroke="#000000" stroke-width="1.2" x1="154.8278512134865" x2="154.8278512134865" y1="214.5061538461538" y2="179.5061538461538"></line><path d="M163.748 212.586C163.748 212.586 164.788 208.786 164.788 205.666C164.788 200.666 162.708 195.946 160.188 191.946C158.148 188.786 156.468 185.346 155.828 181.506C155.708 180.866 155.388 180.626 154.628 180.626C154.388 180.626 154.228 180.746 154.228 181.226L154.228 190.786C156.868 191.266 160.668 196.706 162.108 200.106C162.708 201.466 163.068 203.746 163.068 206.106C163.068 207.906 162.788 209.786 162.108 211.586C162.028 211.826 161.988 212.026 161.988 212.186C161.988 212.826 162.388 213.186 162.628 213.346C162.868 213.506 163.548 213.266 163.748 212.586Z"></path></g></g><g transform="translate(354.80274993471454)"><g><g><line stroke="#6A6A6A" stroke-width="1.3" x1="-16.599999999999994" x2="414.2349584944053" y1="216.3461538461538" y2="216.3461538461538"></line><line stroke="#6A6A6A" stroke-width="1.3" x1="-16.599999999999994" x2="414.2349584944053" y1="206.3461538461538" y2="206.3461538461538"></line><line stroke="#6A6A6A" stroke-width="1.3" x1="-16.599999999999994" x2="414.2349584944053" y1="196.3461538461538" y2="196.3461538461538"></line><line stroke="#6A6A6A" stroke-width="1.3" x1="-16.599999999999994" x2="414.2349584944053" y1="186.3461538461538" y2="186.3461538461538"></line><line stroke="#6A6A6A" stroke-width="1.3" x1="-16.599999999999994" x2="414.2349584944053" y1="176.3461538461538" y2="176.3461538461538"></line></g></g><g></g><g><g><path d="M4.360 216.986C8.360 216.986 13.280 213.266 13.280 209.466C13.280 207.186 11.480 205.706 8.880 205.706C3.960 205.706 0 209.346 0 213.226C0 215.586 1.920 216.986 4.360 216.986Z"></path></g><line stroke="#000000" stroke-width="1.2" x1="12.680000000000001" x2="12.680000000000001" y1="209.5061538461538" y2="174.5061538461538"></line></g><g><g><path d="M57.508 211.986C61.508 211.986 66.428 208.266 66.428 204.466C66.428 202.186 64.628 200.706 62.028 200.706C57.108 200.706 53.148 204.346 53.148 208.226C53.148 210.586 55.068 211.986 57.508 211.986Z"></path></g><line stroke="#000000" stroke-width="1.2" x1="65.8278512134865" x2="65.8278512134865" y1="204.5061538461538" y2="169.5061538461538"></line></g></g><g transform="translate(476.09845236168746)"><g></g><g><line stroke="black" stroke-width="1.6" x1="107.09570242697298" x2="107.09570242697298" y1="176.3461538461538" y2="216.3461538461538"></line></g><g><g><path d="M4.360 206.986C8.360 206.986 13.280 203.266 13.280 199.466C13.280 197.186 11.480 195.706 8.880 195.706C3.960 195.706 0 199.346 0 203.226C0 205.586 1.920 206.986 4.360 206.986Z"></path></g><line stroke="#000000" stroke-width="1.2" x1="12.680000000000001" x2="12.680000000000001" y1="199.5061538461538" y2="164.5061538461538"></line></g><g><g><path d="M57.508 201.986C61.508 201.986 66.428 198.266 66.428 194.466C66.428 192.186 64.628 190.706 62.028 190.706C57.108 190.706 53.148 194.346 53.148 198.226C53.148 200.586 55.068 201.986 57.508 201.986Z"></path></g><line stroke="#000000" stroke-width="1.2" x1="65.8278512134865" x2="65.8278512134865" y1="194.5061538461538" y2="159.5061538461538"></line></g></g><g transform="translate(598.9941547886605)"><g></g><g><line stroke="#000000" stroke-width="1.6" x1="160.24355364045948" x2="160.24355364045948" y1="176.3461538461538" y2="216.3461538461538"></line><line stroke="#000000" stroke-width="5" x1="167.54355364045946" x2="167.54355364045946" y1="176.3461538461538" y2="216.3461538461538"></line></g><g><g><path d="M4.360 196.986C8.360 196.986 13.280 193.266 13.280 189.466C13.280 187.186 11.480 185.706 8.880 185.706C3.960 185.706 0 189.346 0 193.226C0 195.586 1.920 196.986 4.360 196.986Z"></path></g><line stroke="#000000" stroke-width="1.2" x1="0.6" x2="0.6" y1="193.18615384615381" y2="228.18615384615381"></line></g><g><g><path d="M57.508 191.986C61.508 191.986 66.428 188.266 66.428 184.466C66.428 182.186 64.628 180.706 62.028 180.706C57.108 180.706 53.148 184.346 53.148 188.226C53.148 190.586 55.068 191.986 57.508 191.986Z"></path></g><line stroke="#000000" stroke-width="1.2" x1="53.74785121348649" x2="53.74785121348649" y1="188.18615384615381" y2="223.18615384615381"></line></g><g><path d="M115.616 202.786C114.096 200.946 112.856 199.466 112.856 197.226C112.856 197.066 112.896 196.866 112.896 196.706C113.056 194.386 114.496 192.466 115.536 190.826C115.656 190.626 115.696 190.426 115.696 190.226C115.696 189.826 115.536 189.466 115.536 189.466C115.536 189.466 109.616 182.426 108.936 181.746C108.736 181.546 108.456 181.426 108.216 181.426C107.816 181.426 107.416 181.706 107.416 182.266C107.416 182.466 107.456 182.666 107.576 182.906C107.736 183.346 110.016 185.386 110.016 188.266C110.016 189.746 109.416 191.466 107.616 193.346C107.216 193.746 107.056 194.186 107.056 194.506C107.056 195.066 107.456 195.466 107.456 195.466L109.416 197.866C110.056 198.666 110.616 199.426 111.136 200.266C111.216 200.426 111.376 200.626 111.376 200.826C111.376 200.866 111.376 200.946 111.336 200.986C111.256 201.146 111.096 201.186 110.896 201.186C110.656 201.186 110.416 201.106 110.256 201.066C110.056 201.066 109.816 200.946 109.616 200.946C107.896 200.946 106.336 202.666 106.336 204.786C106.336 206.786 108.056 208.746 110.976 210.986C111.296 211.226 111.696 211.346 112.016 211.346C112.296 211.346 112.576 211.266 112.616 211.106C112.656 210.986 112.696 210.906 112.696 210.826C112.696 210.466 112.376 210.146 112.056 209.866C111.536 209.866 111.096 208.786 111.016 208.426C110.896 208.106 110.856 207.746 110.856 207.386C110.856 206.146 111.456 204.746 112.736 204.506C112.936 204.466 113.136 204.466 113.376 204.466C114.536 204.466 115.856 204.906 116.496 205.146C116.536 205.146 116.576 205.186 116.616 205.186C116.736 205.226 116.816 205.226 116.896 205.226C117.016 205.226 117.096 205.186 117.096 205.066C117.096 204.586 116.056 203.266 115.616 202.786Z"></path></g></g></svg>