<?xml version="1.0" encoding="UTF-8" standalone="no"?><svg xmlns="http://www.w3.org/2000/svg" height="279.4mm" viewBox="0 0 1328.6153846153845 1719.3846153846152" width="215.9mm"><g transform="translate(93.84615384615385)"><g><g><line stroke="#6A6A6A" stroke-width="1.3" x1="0" x2="1061.728611035121" y1="183.8461538461538" y2="183.8461538461538"></line><line stroke="#6A6A6A" stroke-width="1.3" x1="0" x2="1061.728611035121" y1="173.8461538461538" y2="173.8461538461538"></line><line stroke="#6A6A6A" stroke-width="1.3" x1="0" x2="1061.728611035121" y1="163.8461538461538" y2="163.8461538461538"></line><line stroke="#6A6A6A" stroke-width="1.3" x1="0" x2="1061.728611035121" y1="153.8461538461538" y2="153.8461538461538"></line><line stroke="#6A6A6A" stroke-width="1.3" x1="0" x2="1061.728611035121" y1="143.8461538461538" y2="143.8461538461538"></line></g><g><path d="M25.200 129.926C24.640 129.926 23.400 130.966 22.600 131.846C19.640 135.126 18.680 140.126 18.680 144.286C18.680 146.606 18.960 149.206 19.240 150.846C19.320 151.326 19.360 151.406 18.880 151.806C16.320 153.926 13.560 156.366 11.480 158.926C8.720 162.366 7 166.086 7 170.366C7 177.326 11.760 183.926 21.560 183.926C22.480 183.926 23.520 183.846 24.320 183.686C24.760 183.606 24.840 183.566 24.920 184.046C25.400 186.726 26 190.206 26 192.086C26 198.006 22 198.726 19.640 198.726C17.480 198.726 16.440 198.086 16.440 197.566C16.440 197.126 16.800 197.166 17.720 196.886C18.960 196.526 20.400 195.446 20.400 193.126C20.400 190.926 19 189.046 16.560 189.046C13.880 189.046 12.280 191.166 12.280 193.646C12.280 196.246 13.840 200.166 19.880 200.166C22.560 200.166 27.760 198.966 27.760 192.166C27.760 189.886 27.040 186.086 26.600 183.606C26.520 183.126 26.560 183.166 27.120 182.926C31.160 181.326 33.840 177.926 33.840 173.406C33.840 168.286 30.080 163.766 24.200 163.766C23.080 163.766 23.200 163.966 23.040 163.046L22.040 157.246C21.960 156.766 22.040 156.726 22.280 156.486C22.920 155.886 23.760 155.046 24.520 154.206C27.880 150.526 29.880 145.766 29.880 141.246C29.880 137.766 28.920 134.326 27.280 131.926C26.680 131.046 25.640 129.926 25.200 129.926ZM20.040 158.086C20.440 157.766 20.520 157.806 20.600 158.246L21.440 163.366C21.560 164.126 21.560 164.086 20.840 164.326C17.320 165.526 15.040 168.686 15.040 172.086C15.040 175.686 16.920 178.246 19.640 179.166C19.960 179.286 20.440 179.406 20.720 179.406C21.040 179.406 21.200 179.206 21.200 178.966C21.200 178.686 20.880 178.566 20.600 178.446C18.920 177.726 17.720 176.006 17.720 174.166C17.720 171.886 19.280 170.166 21.720 169.486C22.360 169.326 22.440 169.366 22.520 169.806L24.520 181.726C24.600 182.166 24.560 182.166 23.960 182.286C23.320 182.406 22.520 182.486 21.720 182.486C14.720 182.486 10.200 178.606 10.200 173.046C10.200 170.686 10.600 167.526 13.920 163.766C16.320 161.086 18.160 159.606 20.040 158.086ZM24.640 169.166C27.880 169.446 30.560 172.166 30.560 175.686C30.560 178.206 29.040 180.246 26.800 181.366C26.320 181.606 26.240 181.606 26.160 181.126L24.200 169.726C24.120 169.246 24.160 169.126 24.640 169.166ZM25.800 136.126C27.120 136.126 28.200 137.206 28.200 139.406C28.200 142.166 26.880 144.726 23.760 147.846C23.120 148.486 22.160 149.406 21.240 150.206C20.960 150.446 20.800 150.406 20.720 149.886C20.560 148.846 20.480 147.486 20.480 146.206C20.480 139.966 23.360 136.126 25.800 136.126Z"></path></g><g></g><path d="M57.820 153.806C56.620 153.806 55.220 154.126 54.140 154.606C50.580 156.166 48.700 160.446 48.700 164.246C48.700 164.606 48.700 164.966 48.740 165.326C48.940 167.486 49.980 169.526 51.300 171.126C52.820 172.966 55.020 173.806 57.420 173.806C64.420 173.806 65.460 167.446 65.460 166.286C65.460 165.406 65.020 165.406 64.860 165.406C64.540 165.406 64.260 165.446 64.260 166.126C64.260 171.286 59.860 172.486 58.580 172.486C55.340 172.486 53.620 169.326 53.620 162.726C53.620 156.126 56.660 154.766 58.820 154.766C60.900 154.766 61.740 155.726 61.740 156.126C61.740 156.486 61.620 157.006 61.020 157.006C59.420 157.006 58.500 158.726 58.500 159.966C58.500 162.246 60.460 162.966 61.580 162.966C61.580 162.966 64.620 162.846 64.620 159.526C64.620 154.286 58.580 153.806 57.820 153.806Z"></path></g><g><line stroke="black" stroke-width="1.6" x1="259.3275222070243" x2="259.3275222070243" y1="143.8461538461538" y2="183.8461538461538"></line></g><g><g><path d="M93.360 199.486C97.360 199.486 102.280 195.766 102.280 191.966C102.280 189.686 100.480 188.206 97.880 188.206C92.960 188.206 89 191.846 89 195.726C89 198.086 90.920 199.486 93.360 199.486Z"></path></g><line stroke="#000000" stroke-width="1.2" x1="101.68" x2="101.68" y1="192.0061538461538" y2="157.0061538461538"></line><line stroke="#000000" stroke-width="2.2" x1="85.8" x2="107.72" y1="193.8461538461538" y2="193.8461538461538"></line><text font-family="Alegreya" font-size="22" text-anchor="middle" x="95.64" y="223.8461538461538">0/0/1</text></g><g><g><path d="M137.883 199.486C141.883 199.486 146.803 195.766 146.803 191.966C146.803 189.686 145.003 188.206 142.403 188.206C137.483 188.206 133.523 191.846 133.523 195.726C133.523 198.086 135.443 199.486 137.883 199.486Z"></path></g><line stroke="#000000" stroke-width="1.2" x1="146.20338055175608" x2="146.20338055175608" y1="192.0061538461538" y2="157.0061538461538"></line><line stroke="#000000" stroke-width="2.2" x1="130.3233805517561" x2="152.24338055175608" y1="193.8461538461538" y2="193.8461538461538"></line><text font-family="Alegreya" font-size="22" text-anchor="middle" x="140.16338055175606" y="223.8461538461538">0/1/0</text></g><g><g><path d="M180.438 199.486C184.438 199.486 189.358 195.766 189.358 191.966C189.358 189.686 187.558 188.206 184.958 188.206C180.038 188.206 176.078 191.846 176.078 195.726C176.078 198.086 177.998 199.486 180.438 199.486Z"></path></g><line stroke="#000000" stroke-width="1.2" x1="188.75776110351214" x2="188.75776110351214" y1="192.0061538461538" y2="157.0061538461538"></line><line stroke="#000000" stroke-width="2.2" x1="172.87776110351214" x2="194.79776110351213" y1="193.8461538461538" y2="193.8461538461538"></line><text font-family="Alegreya" font-size="22" text-anchor="middle" x="182.71776110351215" y="223.8461538461538">0/1/1</text></g><g><g><path d="M224.323 199.486C228.323 199.486 233.243 195.766 233.243 191.966C233.243 189.686 231.443 188.206 228.843 188.206C223.923 188.206 219.963 191.846 219.963 195.726C219.963 198.086 221.883 199.486 224.323 199.486Z"></path></g><line stroke="#000000" stroke-width="1.2" x1="232.6431416552682" x2="232.6431416552682" y1="192.0061538461538" y2="157.0061538461538"></line><line stroke="#000000" stroke-width="2.2" x1="216.7631416552682" x2="238.6831416552682" y1="193.8461538461538" y2="193.8461538461538"></line><text font-family="Alegreya" font-size="22" text-anchor="middle" x="226.6031416552682" y="223.8461538461538">0/2/0</text></g></g><g transform="translate(368.97367605317805)"><g></g><g><line stroke="black" stroke-width="1.6" x1="179.36852220702423" x2="179.36852220702423" y1="143.8461538461538" y2="183.8461538461538"></line></g><g><g><path d="M12.686 199.486C16.686 199.486 21.606 195.766 21.606 191.966C21.606 189.686 19.806 188.206 17.206 188.206C12.286 188.206 8.326 191.846 8.326 195.726C8.326 198.086 10.246 199.486 12.686 199.486Z"></path></g><line stroke="#000000" stroke-width="1.2" x1="21.006" x2="21.006" y1="192.0061538461538" y2="157.0061538461538"></line><line stroke="#000000" stroke-width="2.2" x1="5.125999999999997" x2="27.045999999999996" y1="193.8461538461538" y2="193.8461538461538"></line><text font-family="Alegreya" font-size="22" text-anchor="middle" x="14.965999999999998" y="223.8461538461538">0/2/1</text></g><g><g><path d="M57.242 199.486C61.242 199.486 66.162 195.766 66.162 191.966C66.162 189.686 64.362 188.206 61.762 188.206C56.842 188.206 52.882 191.846 52.882 195.726C52.882 198.086 54.802 199.486 57.242 199.486Z"></path></g><line stroke="#000000" stroke-width="1.2" x1="65.56238055175605" x2="65.56238055175605" y1="192.0061538461538" y2="157.0061538461538"></line><line stroke="#000000" stroke-width="2.2" x1="49.68238055175605" x2="71.60238055175604" y1="193.8461538461538" y2="193.8461538461538"></line><text font-family="Alegreya" font-size="22" text-anchor="middle" x="59.52238055175605" y="223.8461538461538">0/3/0</text></g><g><g><path d="M101.139 199.486C105.139 199.486 110.059 195.766 110.059 191.966C110.059 189.686 108.259 188.206 105.659 188.206C100.739 188.206 96.779 191.846 96.779 195.726C96.779 198.086 98.699 199.486 101.139 199.486Z"></path></g><line stroke="#000000" stroke-width="1.2" x1="109.4587611035121" x2="109.4587611035121" y1="192.0061538461538" y2="157.0061538461538"></line><line stroke="#000000" stroke-width="2.2" x1="93.5787611035121" x2="115.4987611035121" y1="193.8461538461538" y2="193.8461538461538"></line><text font-family="Alegreya" font-size="22" text-anchor="middle" x="103.4187611035121" y="223.8461538461538">0/3/1</text></g><g><g><path d="M144.364 199.486C148.364 199.486 153.284 195.766 153.284 191.966C153.284 189.686 151.484 188.206 148.884 188.206C143.964 188.206 140.004 191.846 140.004 195.726C140.004 198.086 141.924 199.486 144.364 199.486Z"></path></g><line stroke="#000000" stroke-width="1.2" x1="152.68414165526815" x2="152.68414165526815" y1="192.0061538461538" y2="157.0061538461538"></line><line stroke="#000000" stroke-width="2.2" x1="136.80414165526815" x2="158.72414165526814" y1="193.8461538461538" y2="193.8461538461538"></line><text font-family="Alegreya" font-size="22" text-anchor="middle" x="146.64414165526813" y="223.8461538461538">1/0/1</text></g></g><g transform="translate(564.1421982602023)"><g></g><g><line stroke="black" stroke-width="1.6" x1="165.5085222070242" x2="165.5085222070242" y1="143.8461538461538" y2="183.8461538461538"></line></g><g><g><path d="M11.355 199.486C15.355 199.486 20.275 195.766 20.275 191.966C20.275 189.686 18.475 188.206 15.875 188.206C10.955 188.206 6.995 191.846 6.995 195.726C6.995 198.086 8.915 199.486 11.355 199.486Z"></path></g><line stroke="#000000" stroke-width="1.2" x1="19.674999999999997" x2="19.674999999999997" y1="192.0061538461538" y2="157.0061538461538"></line><line stroke="#000000" stroke-width="2.2" x1="3.7949999999999973" x2="25.714999999999996" y1="193.8461538461538" y2="193.8461538461538"></line><text font-family="Alegreya" font-size="22" text-anchor="middle" x="13.634999999999998" y="223.8461538461538">1/0/0</text></g><g><g><path d="M51.940 199.486C55.940 199.486 60.860 195.766 60.860 191.966C60.860 189.686 59.060 188.206 56.460 188.206C51.540 188.206 47.580 191.846 47.580 195.726C47.580 198.086 49.500 199.486 51.940 199.486Z"></path></g><line stroke="#000000" stroke-width="1.2" x1="60.26038055175605" x2="60.26038055175605" y1="192.0061538461538" y2="157.0061538461538"></line><line stroke="#000000" stroke-width="2.2" x1="44.38038055175605" x2="66.30038055175605" y1="193.8461538461538" y2="193.8461538461538"></line><text font-family="Alegreya" font-size="22" text-anchor="middle" x="54.22038055175605" y="223.8461538461538">1/1/0</text></g><g><g><path d="M90.557 199.486C94.557 199.486 99.477 195.766 99.477 191.966C99.477 189.686 97.677 188.206 95.077 188.206C90.157 188.206 86.197 191.846 86.197 195.726C86.197 198.086 88.117 199.486 90.557 199.486Z"></path></g><line stroke="#000000" stroke-width="1.2" x1="98.87676110351211" x2="98.87676110351211" y1="192.0061538461538" y2="157.0061538461538"></line><line stroke="#000000" stroke-width="2.2" x1="82.9967611035121" x2="104.9167611035121" y1="193.8461538461538" y2="193.8461538461538"></line><text font-family="Alegreya" font-size="22" text-anchor="middle" x="92.8367611035121" y="223.8461538461538">1/1/1</text></g><g><g><path d="M130.504 199.486C134.504 199.486 139.424 195.766 139.424 191.966C139.424 189.686 137.624 188.206 135.024 188.206C130.104 188.206 126.144 191.846 126.144 195.726C126.144 198.086 128.064 199.486 130.504 199.486Z"></path></g><line stroke="#000000" stroke-width="1.2" x1="138.82414165526816" x2="138.82414165526816" y1="192.0061538461538" y2="157.0061538461538"></line><line stroke="#000000" stroke-width="2.2" x1="122.94414165526815" x2="144.86414165526816" y1="193.8461538461538" y2="193.8461538461538"></line><text font-family="Alegreya" font-size="22" text-anchor="middle" x="132.78414165526817" y="223.8461538461538">1/2/0</text></g></g><g transform="translate(745.4507204672266)"><g></g><g><line stroke="black" stroke-width="1.6" x1="174.07752220702423" x2="174.07752220702423" y1="143.8461538461538" y2="183.8461538461538"></line></g><g><g><path d="M10.717 199.486C14.717 199.486 19.637 195.766 19.637 191.966C19.637 189.686 17.837 188.206 15.237 188.206C10.317 188.206 6.357 191.846 6.357 195.726C6.357 198.086 8.277 199.486 10.717 199.486Z"></path></g><line stroke="#000000" stroke-width="1.2" x1="19.037" x2="19.037" y1="192.0061538461538" y2="157.0061538461538"></line><line stroke="#000000" stroke-width="2.2" x1="3.1569999999999956" x2="25.076999999999995" y1="193.8461538461538" y2="193.8461538461538"></line><text font-family="Alegreya" font-size="22" text-anchor="middle" x="12.996999999999996" y="223.8461538461538">1/2/1</text></g><g><g><path d="M51.335 199.486C55.335 199.486 60.255 195.766 60.255 191.966C60.255 189.686 58.455 188.206 55.855 188.206C50.935 188.206 46.975 191.846 46.975 195.726C46.975 198.086 48.895 199.486 51.335 199.486Z"></path></g><line stroke="#000000" stroke-width="1.2" x1="59.655380551756046" x2="59.655380551756046" y1="192.0061538461538" y2="157.0061538461538"></line><line stroke="#000000" stroke-width="2.2" x1="43.775380551756044" x2="65.69538055175605" y1="193.8461538461538" y2="193.8461538461538"></line><text font-family="Alegreya" font-size="22" text-anchor="middle" x="53.61538055175605" y="223.8461538461538">1/3/0</text></g><g><g><path d="M91.294 199.486C95.294 199.486 100.214 195.766 100.214 191.966C100.214 189.686 98.414 188.206 95.814 188.206C90.894 188.206 86.934 191.846 86.934 195.726C86.934 198.086 88.854 199.486 91.294 199.486Z"></path></g><line stroke="#000000" stroke-width="1.2" x1="99.6137611035121" x2="99.6137611035121" y1="192.0061538461538" y2="157.0061538461538"></line><line stroke="#000000" stroke-width="2.2" x1="83.7337611035121" x2="105.6537611035121" y1="193.8461538461538" y2="193.8461538461538"></line><text font-family="Alegreya" font-size="22" text-anchor="middle" x="93.5737611035121" y="223.8461538461538">1/3/1</text></g><g><g><path d="M139.073 199.486C143.073 199.486 147.993 195.766 147.993 191.966C147.993 189.686 146.193 188.206 143.593 188.206C138.673 188.206 134.713 191.846 134.713 195.726C134.713 198.086 136.633 199.486 139.073 199.486Z"></path></g><line stroke="#000000" stroke-width="1.2" x1="147.39314165526815" x2="147.39314165526815" y1="192.0061538461538" y2="157.0061538461538"></line><line stroke="#000000" stroke-width="2.2" x1="131.51314165526816" x2="153.43314165526814" y1="193.8461538461538" y2="193.8461538461538"></line><text font-family="Alegreya" font-size="22" text-anchor="middle" x="141.35314165526813" y="223.8461538461538">empty</text></g></g><g transform="translate(935.3282426742508)"><g></g><g><line stroke="#000000" stroke-width="1.6" x1="210.44652220702423" x2="210.44652220702423" y1="143.8461538461538" y2="183.8461538461538"></line><line stroke="#000000" stroke-width="5" x1="217.7465222070242" x2="217.7465222070242" y1="143.8461538461538" y2="183.8461538461538"></line></g><g><g><path d="M25.006 199.486C29.006 199.486 33.926 195.766 33.926 191.966C33.926 189.686 32.126 188.206 29.526 188.206C24.606 188.206 20.646 191.846 20.646 195.726C20.646 198.086 22.566 199.486 25.006 199.486Z"></path></g><line stroke="#000000" stroke-width="1.2" x1="33.32599999999999" x2="33.32599999999999" y1="192.0061538461538" y2="157.0061538461538"></line><line stroke="#000000" stroke-width="2.2" x1="17.445999999999994" x2="39.365999999999985" y1="193.8461538461538" y2="193.8461538461538"></line><text font-family="Alegreya" font-size="22" text-anchor="middle" x="27.285999999999994" y="223.8461538461538">empty M</text></g><g><g><path d="M88.823 199.486C92.823 199.486 97.743 195.766 97.743 191.966C97.743 189.686 95.943 188.206 93.343 188.206C88.423 188.206 84.463 191.846 84.463 195.726C84.463 198.086 86.383 199.486 88.823 199.486Z"></path></g><line stroke="#000000" stroke-width="1.2" x1="97.14338055175605" x2="97.14338055175605" y1="192.0061538461538" y2="157.0061538461538"></line><line stroke="#000000" stroke-width="2.2" x1="81.26338055175604" x2="103.18338055175604" y1="193.8461538461538" y2="193.8461538461538"></line><text font-family="Alegreya" font-size="22" text-anchor="middle" x="91.10338055175605" y="223.8461538461538">inval.M</text></g><g><g><path d="M136.878 199.486C140.878 199.486 145.798 195.766 145.798 191.966C145.798 189.686 143.998 188.206 141.398 188.206C136.478 188.206 132.518 191.846 132.518 195.726C132.518 198.086 134.438 199.486 136.878 199.486Z"></path></g><line stroke="#000000" stroke-width="1.2" x1="145.1977611035121" x2="145.1977611035121" y1="192.0061538461538" y2="157.0061538461538"></line><line stroke="#000000" stroke-width="2.2" x1="129.3177611035121" x2="151.2377611035121" y1="193.8461538461538" y2="193.8461538461538"></line><text font-family="Alegreya" font-size="22" text-anchor="middle" x="139.1577611035121" y="223.8461538461538">M=0</text></g><g><g><path d="M175.442 199.486C179.442 199.486 184.362 195.766 184.362 191.966C184.362 189.686 182.562 188.206 179.962 188.206C175.042 188.206 171.082 191.846 171.082 195.726C171.082 198.086 173.002 199.486 175.442 199.486Z"></path></g><line stroke="#000000" stroke-width="1.2" x1="183.76214165526818" x2="183.76214165526818" y1="192.0061538461538" y2="157.0061538461538"></line><line stroke="#000000" stroke-width="2.2" x1="167.88214165526819" x2="189.80214165526817" y1="193.8461538461538" y2="193.8461538461538"></line><text font-family="Alegreya" font-size="22" text-anchor="middle" x="177.72214165526816" y="223.8461538461538">M=5</text></g></g></svg>