<?xml version="1.0" encoding="UTF-8" standalone="no"?><svg xmlns="http://www.w3.org/2000/svg" height="279.4mm" viewBox="0 0 1328.6153846153845 1719.3846153846152" width="215.9mm"><g transform="translate(93.84615384615385)"><g><g><line stroke="#6A6A6A" stroke-width="1.3" x1="0" x2="215.8804165818279" y1="183.8461538461538" y2="183.8461538461538"></line><line stroke="#6A6A6A" stroke-width="1.3" x1="0" x2="215.8804165818279" y1="173.8461538461538" y2="173.8461538461538"></line><line stroke="#6A6A6A" stroke-width="1.3" x1="0" x2="215.8804165818279" y1="163.8461538461538" y2="163.8461538461538"></line><line stroke="#6A6A6A" stroke-width="1.3" x1="0" x2="215.8804165818279" y1="153.8461538461538" y2="153.8461538461538"></line><line stroke="#6A6A6A" stroke-width="1.3" x1="0" x2="215.8804165818279" y1="143.8461538461538" y2="143.8461538461538"></line></g><g><path d="M25.200 129.926C24.640 129.926 23.400 130.966 22.600 131.846C19.640 135.126 18.680 140.126 18.680 144.286C18.680 146.606 18.960 149.206 19.240 150.846C19.320 151.326 19.360 151.406 18.880 151.806C16.320 153.926 13.560 156.366 11.480 158.926C8.720 162.366 7 166.086 7 170.366C7 177.326 11.760 183.926 21.560 183.926C22.480 183.926 23.520 183.846 24.320 183.686C24.760 183.606 24.840 183.566 24.920 184.046C25.400 186.726 26 190.206 26 192.086C26 198.006 22 198.726 19.640 198.726C17.480 198.726 16.440 198.086 16.440 197.566C16.440 197.126 16.800 197.166 17.720 196.886C18.960 196.526 20.400 195.446 20.400 193.126C20.400 190.926 19 189.046 16.560 189.046C13.880 189.046 12.280 191.166 12.280 193.646C12.280 196.246 13.840 200.166 19.880 200.166C22.560 200.166 27.760 198.966 27.760 192.166C27.760 189.886 27.040 186.086 26.600 183.606C26.520 183.126 26.560 183.166 27.120 182.926C31.160 181.326 33.840 177.926 33.840 173.406C33.840 168.286 30.080 163.766 24.200 163.766C23.080 163.766 23.200 163.966 23.040 163.046L22.040 157.246C21.960 156.766 22.040 156.726 22.280 156.486C22.920 155.886 23.760 155.046 24.520 154.206C27.880 150.526 29.880 145.766 29.880 141.246C29.880 137.766 28.920 134.326 27.280 131.926C26.680 131.046 25.640 129.926 25.200 129.926ZM20.040 158.086C20.440 157.766 20.520 157.806 20.600 158.246L21.440 163.366C21.560 164.126 21.560 164.086 20.840 164.326C17.320 165.526 15.040 168.686 15.040 172.086C15.040 175.686 16.920 178.246 19.640 179.166C19.960 179.286 20.440 179.406 20.720 179.406C21.040 179.406 21.200 179.206 21.200 178.966C21.200 178.686 20.880 178.566 20.600 178.446C18.920 177.726 17.720 176.006 17.720 174.166C17.720 171.886 19.280 170.166 21.720 169.486C22.360 169.326 22.440 169.366 22.520 169.806L24.520 181.726C24.600 182.166 24.560 182.166 23.960 182.286C23.320 182.406 22.520 182.486 21.720 182.486C14.720 182.486 10.200 178.606 10.200 173.046C10.200 170.686 10.600 167.526 13.920 163.766C16.320 161.086 18.160 159.606 20.040 158.086ZM24.640 169.166C27.880 169.446 30.560 172.166 30.560 175.686C30.560 178.206 29.040 180.246 26.800 181.366C26.320 181.606 26.240 181.606 26.160 181.126L24.200 169.726C24.120 169.246 24.160 169.126 24.640 169.166ZM25.800 136.126C27.120 136.126 28.200 137.206 28.200 139.406C28.200 142.166 26.880 144.726 23.760 147.846C23.120 148.486 22.160 149.406 21.240 150.206C20.960 150.446 20.800 150.406 20.720 149.886C20.560 148.846 20.480 147.486 20.480 146.206C20.480 139.966 23.360 136.126 25.800 136.126Z"></path></g><g></g><path d="M57.820 153.806C56.620 153.806 55.220 154.126 54.140 154.606C50.580 156.166 48.700 160.446 48.700 164.246C48.700 164.606 48.700 164.966 48.740 165.326C48.940 167.486 49.980 169.526 51.300 171.126C52.820 172.966 55.020 173.806 57.420 173.806C64.420 173.806 65.460 167.446 65.460 166.286C65.460 165.406 65.020 165.406 64.860 165.406C64.540 165.406 64.260 165.446 64.260 166.126C64.260 171.286 59.860 172.486 58.580 172.486C55.340 172.486 53.620 169.326 53.620 162.726C53.620 156.126 56.660 154.766 58.820 154.766C60.900 154.766 61.740 155.726 61.740 156.126C61.740 156.486 61.620 157.006 61.020 157.006C59.420 157.006 58.500 158.726 58.500 159.966C58.500 162.246 60.460 162.966 61.580 162.966C61.580 162.966 64.620 162.846 64.620 159.526C64.620 154.286 58.580 153.806 57.820 153.806Z"></path></g><g><line stroke="black" stroke-width="1.6" x1="216.6804165818279" x2="216.6804165818279" y1="143.8461538461538" y2="183.8461538461538"></line></g><g><g><line stroke="#6A6A6A" stroke-width="1.3" x1="0" x2="215.8804165818279" y1="283.8461538461538" y2="283.8461538461538"></line><line stroke="#6A6A6A" stroke-width="1.3" x1="0" x2="215.8804165818279" y1="273.8461538461538" y2="273.8461538461538"></line><line stroke="#6A6A6A" stroke-width="1.3" x1="0" x2="215.8804165818279" y1="263.8461538461538" y2="263.8461538461538"></line><line stroke="#6A6A6A" stroke-width="1.3" x1="0" x2="215.8804165818279" y1="253.8461538461538" y2="253.8461538461538"></line><line stroke="#6A6A6A" stroke-width="1.3" x1="0" x2="215.8804165818279" y1="243.8461538461538" y2="243.8461538461538"></line></g><g><path d="M25.200 229.926C24.640 229.926 23.400 230.966 22.600 231.846C19.640 235.126 18.680 240.126 18.680 244.286C18.680 246.606 18.960 249.206 19.240 250.846C19.320 251.326 19.360 251.406 18.880 251.806C16.320 253.926 13.560 256.366 11.480 258.926C8.720 262.366 7 266.086 7 270.366C7 277.326 11.760 283.926 21.560 283.926C22.480 283.926 23.520 283.846 24.320 283.686C24.760 283.606 24.840 283.566 24.920 284.046C25.400 286.726 26 290.206 26 292.086C26 298.006 22 298.726 19.640 298.726C17.480 298.726 16.440 298.086 16.440 297.566C16.440 297.126 16.800 297.166 17.720 296.886C18.960 296.526 20.400 295.446 20.400 293.126C20.400 290.926 19 289.046 16.560 289.046C13.880 289.046 12.280 291.166 12.280 293.646C12.280 296.246 13.840 300.166 19.880 300.166C22.560 300.166 27.760 298.966 27.760 292.166C27.760 289.886 27.040 286.086 26.600 283.606C26.520 283.126 26.560 283.166 27.120 282.926C31.160 281.326 33.840 277.926 33.840 273.406C33.840 268.286 30.080 263.766 24.200 263.766C23.080 263.766 23.200 263.966 23.040 263.046L22.040 257.246C21.960 256.766 22.040 256.726 22.280 256.486C22.920 255.886 23.760 255.046 24.520 254.206C27.880 250.526 29.880 245.766 29.880 241.246C29.880 237.766 28.920 234.326 27.280 231.926C26.680 231.046 25.640 229.926 25.200 229.926ZM20.040 258.086C20.440 257.766 20.520 257.806 20.600 258.246L21.440 263.366C21.560 264.126 21.560 264.086 20.840 264.326C17.320 265.526 15.040 268.686 15.040 272.086C15.040 275.686 16.920 278.246 19.640 279.166C19.960 279.286 20.440 279.406 20.720 279.406C21.040 279.406 21.200 279.206 21.200 278.966C21.200 278.686 20.880 278.566 20.600 278.446C18.920 277.726 17.720 276.006 17.720 274.166C17.720 271.886 19.280 270.166 21.720 269.486C22.360 269.326 22.440 269.366 22.520 269.806L24.520 281.726C24.600 282.166 24.560 282.166 23.960 282.286C23.320 282.406 22.520 282.486 21.720 282.486C14.720 282.486 10.200 278.606 10.200 273.046C10.200 270.686 10.600 267.526 13.920 263.766C16.320 261.086 18.160 259.606 20.040 258.086ZM24.640 269.166C27.880 269.446 30.560 272.166 30.560 275.686C30.560 278.206 29.040 280.246 26.800 281.366C26.320 281.606 26.240 281.606 26.160 281.126L24.200 269.726C24.120 269.246 24.160 269.126 24.640 269.166ZM25.800 236.126C27.120 236.126 28.200 237.206 28.200 239.406C28.200 242.166 26.880 244.726 23.760 247.846C23.120 248.486 22.160 249.406 21.240 250.206C20.960 250.446 20.800 250.406 20.720 249.886C20.560 248.846 20.480 247.486 20.480 246.206C20.480 239.966 23.360 236.126 25.800 236.126Z"></path></g><g></g><path d="M57.820 253.806C56.620 253.806 55.220 254.126 54.140 254.606C50.580 256.166 48.700 260.446 48.700 264.246C48.700 264.606 48.700 264.966 48.740 265.326C48.940 267.486 49.980 269.526 51.300 271.126C52.820 272.966 55.020 273.806 57.420 273.806C64.420 273.806 65.460 267.446 65.460 266.286C65.460 265.406 65.020 265.406 64.860 265.406C64.540 265.406 64.260 265.446 64.260 266.126C64.260 271.286 59.860 272.486 58.580 272.486C55.340 272.486 53.620 269.326 53.620 262.726C53.620 256.126 56.660 254.766 58.820 254.766C60.900 254.766 61.740 255.726 61.740 256.126C61.740 256.486 61.620 257.006 61.020 257.006C59.420 257.006 58.500 258.726 58.500 259.966C58.500 262.246 60.460 262.966 61.580 262.966C61.580 262.966 64.620 262.846 64.620 259.526C64.620 254.286 58.580 253.806 57.820 253.806Z"></path><g><line stroke="#000000" stroke-width="5" x1="-7.5" x2="-7.5" y1="138.3461538461538" y2="589.3461538461538"></line><path d="M-10 141.346L-5 141.346C1.400 140.146 7.120 137.186 8.720 130.506C8.760 130.346 8.760 130.226 8.760 130.106C8.760 129.786 8.640 129.626 8.440 129.546C8.080 129.546 7.640 129.826 7.440 130.106C7.040 130.546 2 135.826-5.640 136.386L-9.680 136.386C-9.920 136.386-10 136.426-10 136.666Z"></path><path d="M-10 591.026C-10 591.266-9.920 591.306-9.680 591.306L-5.640 591.306C2 591.866 7.040 597.146 7.440 597.586C7.640 597.866 8.080 598.146 8.440 598.146C8.640 598.066 8.760 597.906 8.760 597.586C8.760 597.466 8.760 597.346 8.720 597.186C7.120 590.506 1.400 587.546-5 586.346L-10 586.346Z"></path><line stroke="#000000" stroke-width="1.6" x1="0" x2="0" y1="143.3461538461538" y2="584.3461538461538"></line></g></g><g><line stroke="black" stroke-width="1.6" x1="216.6804165818279" x2="216.6804165818279" y1="143.3461538461538" y2="584.3461538461538"></line></g><g><g><line stroke="#6A6A6A" stroke-width="1.3" x1="0" x2="215.8804165818279" y1="383.8461538461538" y2="383.8461538461538"></line><line stroke="#6A6A6A" stroke-width="1.3" x1="0" x2="215.8804165818279" y1="373.8461538461538" y2="373.8461538461538"></line><line stroke="#6A6A6A" stroke-width="1.3" x1="0" x2="215.8804165818279" y1="363.8461538461538" y2="363.8461538461538"></line><line stroke="#6A6A6A" stroke-width="1.3" x1="0" x2="215.8804165818279" y1="353.8461538461538" y2="353.8461538461538"></line><line stroke="#6A6A6A" stroke-width="1.3" x1="0" x2="215.8804165818279" y1="343.8461538461538" y2="343.8461538461538"></line></g><g><path d="M25.200 329.926C24.640 329.926 23.400 330.966 22.600 331.846C19.640 335.126 18.680 340.126 18.680 344.286C18.680 346.606 18.960 349.206 19.240 350.846C19.320 351.326 19.360 351.406 18.880 351.806C16.320 353.926 13.560 356.366 11.480 358.926C8.720 362.366 7 366.086 7 370.366C7 377.326 11.760 383.926 21.560 383.926C22.480 383.926 23.520 383.846 24.320 383.686C24.760 383.606 24.840 383.566 24.920 384.046C25.400 386.726 26 390.206 26 392.086C26 398.006 22 398.726 19.640 398.726C17.480 398.726 16.440 398.086 16.440 397.566C16.440 397.126 16.800 397.166 17.720 396.886C18.960 396.526 20.400 395.446 20.400 393.126C20.400 390.926 19 389.046 16.560 389.046C13.880 389.046 12.280 391.166 12.280 393.646C12.280 396.246 13.840 400.166 19.880 400.166C22.560 400.166 27.760 398.966 27.760 392.166C27.760 389.886 27.040 386.086 26.600 383.606C26.520 383.126 26.560 383.166 27.120 382.926C31.160 381.326 33.840 377.926 33.840 373.406C33.840 368.286 30.080 363.766 24.200 363.766C23.080 363.766 23.200 363.966 23.040 363.046L22.040 357.246C21.960 356.766 22.040 356.726 22.280 356.486C22.920 355.886 23.760 355.046 24.520 354.206C27.880 350.526 29.880 345.766 29.880 341.246C29.880 337.766 28.920 334.326 27.280 331.926C26.680 331.046 25.640 329.926 25.200 329.926ZM20.040 358.086C20.440 357.766 20.520 357.806 20.600 358.246L21.440 363.366C21.560 364.126 21.560 364.086 20.840 364.326C17.320 365.526 15.040 368.686 15.040 372.086C15.040 375.686 16.920 378.246 19.640 379.166C19.960 379.286 20.440 379.406 20.720 379.406C21.040 379.406 21.200 379.206 21.200 378.966C21.200 378.686 20.880 378.566 20.600 378.446C18.920 377.726 17.720 376.006 17.720 374.166C17.720 371.886 19.280 370.166 21.720 369.486C22.360 369.326 22.440 369.366 22.520 369.806L24.520 381.726C24.600 382.166 24.560 382.166 23.960 382.286C23.320 382.406 22.520 382.486 21.720 382.486C14.720 382.486 10.200 378.606 10.200 373.046C10.200 370.686 10.600 367.526 13.920 363.766C16.320 361.086 18.160 359.606 20.040 358.086ZM24.640 369.166C27.880 369.446 30.560 372.166 30.560 375.686C30.560 378.206 29.040 380.246 26.800 381.366C26.320 381.606 26.240 381.606 26.160 381.126L24.200 369.726C24.120 369.246 24.160 369.126 24.640 369.166ZM25.800 336.126C27.120 336.126 28.200 337.206 28.200 339.406C28.200 342.166 26.880 344.726 23.760 347.846C23.120 348.486 22.160 349.406 21.240 350.206C20.960 350.446 20.800 350.406 20.720 349.886C20.560 348.846 20.480 347.486 20.480 346.206C20.480 339.966 23.360 336.126 25.800 336.126Z"></path></g><g></g><path d="M57.820 353.806C56.620 353.806 55.220 354.126 54.140 354.606C50.580 356.166 48.700 360.446 48.700 364.246C48.700 364.606 48.700 364.966 48.740 365.326C48.940 367.486 49.980 369.526 51.300 371.126C52.820 372.966 55.020 373.806 57.420 373.806C64.420 373.806 65.460 367.446 65.460 366.286C65.460 365.406 65.020 365.406 64.860 365.406C64.540 365.406 64.260 365.446 64.260 366.126C64.260 371.286 59.860 372.486 58.580 372.486C55.340 372.486 53.620 369.326 53.620 362.726C53.620 356.126 56.660 354.766 58.820 354.766C60.900 354.766 61.740 355.726 61.740 356.126C61.740 356.486 61.620 357.006 61.020 357.006C59.420 357.006 58.500 358.726 58.500 359.966C58.500 362.246 60.460 362.966 61.580 362.966C61.580 362.966 64.620 362.846 64.620 359.526C64.620 354.286 58.580 353.806 57.820 353.806Z"></path><g><line stroke="#000000" stroke-width="5" x1="-7.5" x2="-7.5" y1="138.3461538461538" y2="589.3461538461538"></line><path d="M-10 141.346L-5 141.346C1.400 140.146 7.120 137.186 8.720 130.506C8.760 130.346 8.760 130.226 8.760 130.106C8.760 129.786 8.640 129.626 8.440 129.546C8.080 129.546 7.640 129.826 7.440 130.106C7.040 130.546 2 135.826-5.640 136.386L-9.680 136.386C-9.920 136.386-10 136.426-10 136.666Z"></path><path d="M-10 591.026C-10 591.266-9.920 591.306-9.680 591.306L-5.640 591.306C2 591.866 7.040 597.146 7.440 597.586C7.640 597.866 8.080 598.146 8.440 598.146C8.640 598.066 8.760 597.906 8.760 597.586C8.760 597.466 8.760 597.346 8.720 597.186C7.120 590.506 1.400 587.546-5 586.346L-10 586.346Z"></path><line stroke="#000000" stroke-width="1.6" x1="0" x2="0" y1="143.3461538461538" y2="584.3461538461538"></line></g></g><g><line stroke="black" stroke-width="1.6" x1="216.6804165818279" x2="216.6804165818279" y1="143.3461538461538" y2="584.3461538461538"></line></g><g><g><line stroke="#6A6A6A" stroke-width="1.3" x1="0" x2="215.8804165818279" y1="483.8461538461538" y2="483.8461538461538"></line><line stroke="#6A6A6A" stroke-width="1.3" x1="0" x2="215.8804165818279" y1="473.8461538461538" y2="473.8461538461538"></line><line stroke="#6A6A6A" stroke-width="1.3" x1="0" x2="215.8804165818279" y1="463.8461538461538" y2="463.8461538461538"></line><line stroke="#6A6A6A" stroke-width="1.3" x1="0" x2="215.8804165818279" y1="453.8461538461538" y2="453.8461538461538"></line><line stroke="#6A6A6A" stroke-width="1.3" x1="0" x2="215.8804165818279" y1="443.8461538461538" y2="443.8461538461538"></line></g><g><path d="M25.200 429.926C24.640 429.926 23.400 430.966 22.600 431.846C19.640 435.126 18.680 440.126 18.680 444.286C18.680 446.606 18.960 449.206 19.240 450.846C19.320 451.326 19.360 451.406 18.880 451.806C16.320 453.926 13.560 456.366 11.480 458.926C8.720 462.366 7 466.086 7 470.366C7 477.326 11.760 483.926 21.560 483.926C22.480 483.926 23.520 483.846 24.320 483.686C24.760 483.606 24.840 483.566 24.920 484.046C25.400 486.726 26 490.206 26 492.086C26 498.006 22 498.726 19.640 498.726C17.480 498.726 16.440 498.086 16.440 497.566C16.440 497.126 16.800 497.166 17.720 496.886C18.960 496.526 20.400 495.446 20.400 493.126C20.400 490.926 19 489.046 16.560 489.046C13.880 489.046 12.280 491.166 12.280 493.646C12.280 496.246 13.840 500.166 19.880 500.166C22.560 500.166 27.760 498.966 27.760 492.166C27.760 489.886 27.040 486.086 26.600 483.606C26.520 483.126 26.560 483.166 27.120 482.926C31.160 481.326 33.840 477.926 33.840 473.406C33.840 468.286 30.080 463.766 24.200 463.766C23.080 463.766 23.200 463.966 23.040 463.046L22.040 457.246C21.960 456.766 22.040 456.726 22.280 456.486C22.920 455.886 23.760 455.046 24.520 454.206C27.880 450.526 29.880 445.766 29.880 441.246C29.880 437.766 28.920 434.326 27.280 431.926C26.680 431.046 25.640 429.926 25.200 429.926ZM20.040 458.086C20.440 457.766 20.520 457.806 20.600 458.246L21.440 463.366C21.560 464.126 21.560 464.086 20.840 464.326C17.320 465.526 15.040 468.686 15.040 472.086C15.040 475.686 16.920 478.246 19.640 479.166C19.960 479.286 20.440 479.406 20.720 479.406C21.040 479.406 21.200 479.206 21.200 478.966C21.200 478.686 20.880 478.566 20.600 478.446C18.920 477.726 17.720 476.006 17.720 474.166C17.720 471.886 19.280 470.166 21.720 469.486C22.360 469.326 22.440 469.366 22.520 469.806L24.520 481.726C24.600 482.166 24.560 482.166 23.960 482.286C23.320 482.406 22.520 482.486 21.720 482.486C14.720 482.486 10.200 478.606 10.200 473.046C10.200 470.686 10.600 467.526 13.920 463.766C16.320 461.086 18.160 459.606 20.040 458.086ZM24.640 469.166C27.880 469.446 30.560 472.166 30.560 475.686C30.560 478.206 29.040 480.246 26.800 481.366C26.320 481.606 26.240 481.606 26.160 481.126L24.200 469.726C24.120 469.246 24.160 469.126 24.640 469.166ZM25.800 436.126C27.120 436.126 28.200 437.206 28.200 439.406C28.200 442.166 26.880 444.726 23.760 447.846C23.120 448.486 22.160 449.406 21.240 450.206C20.960 450.446 20.800 450.406 20.720 449.886C20.560 448.846 20.480 447.486 20.480 446.206C20.480 439.966 23.360 436.126 25.800 436.126Z"></path></g><g></g><path d="M57.820 453.806C56.620 453.806 55.220 454.126 54.140 454.606C50.580 456.166 48.700 460.446 48.700 464.246C48.700 464.606 48.700 464.966 48.740 465.326C48.940 467.486 49.980 469.526 51.300 471.126C52.820 472.966 55.020 473.806 57.420 473.806C64.420 473.806 65.460 467.446 65.460 466.286C65.460 465.406 65.020 465.406 64.860 465.406C64.540 465.406 64.260 465.446 64.260 466.126C64.260 471.286 59.860 472.486 58.580 472.486C55.340 472.486 53.620 469.326 53.620 462.726C53.620 456.126 56.660 454.766 58.820 454.766C60.900 454.766 61.740 455.726 61.740 456.126C61.740 456.486 61.620 457.006 61.020 457.006C59.420 457.006 58.500 458.726 58.500 459.966C58.500 462.246 60.460 462.966 61.580 462.966C61.580 462.966 64.620 462.846 64.620 459.526C64.620 454.286 58.580 453.806 57.820 453.806Z"></path><g><line stroke="#000000" stroke-width="5" x1="-7.5" x2="-7.5" y1="138.3461538461538" y2="589.3461538461538"></line><path d="M-10 141.346L-5 141.346C1.400 140.146 7.120 137.186 8.720 130.506C8.760 130.346 8.760 130.226 8.760 130.106C8.760 129.786 8.640 129.626 8.440 129.546C8.080 129.546 7.640 129.826 7.440 130.106C7.040 130.546 2 135.826-5.640 136.386L-9.680 136.386C-9.920 136.386-10 136.426-10 136.666Z"></path><path d="M-10 591.026C-10 591.266-9.920 591.306-9.680 591.306L-5.640 591.306C2 591.866 7.040 597.146 7.440 597.586C7.640 597.866 8.080 598.146 8.440 598.146C8.640 598.066 8.760 597.906 8.760 597.586C8.760 597.466 8.760 597.346 8.720 597.186C7.120 590.506 1.400 587.546-5 586.346L-10 586.346Z"></path><line stroke="#000000" stroke-width="1.6" x1="0" x2="0" y1="143.3461538461538" y2="584.3461538461538"></line></g></g><g><line stroke="black" stroke-width="1.6" x1="216.6804165818279" x2="216.6804165818279" y1="143.3461538461538" y2="584.3461538461538"></line></g><g><g><line stroke="#6A6A6A" stroke-width="1.3" x1="0" x2="215.8804165818279" y1="583.8461538461538" y2="583.8461538461538"></line><line stroke="#6A6A6A" stroke-width="1.3" x1="0" x2="215.8804165818279" y1="573.8461538461538" y2="573.8461538461538"></line><line stroke="#6A6A6A" stroke-width="1.3" x1="0" x2="215.8804165818279" y1="563.8461538461538" y2="563.8461538461538"></line><line stroke="#6A6A6A" stroke-width="1.3" x1="0" x2="215.8804165818279" y1="553.8461538461538" y2="553.8461538461538"></line><line stroke="#6A6A6A" stroke-width="1.3" x1="0" x2="215.8804165818279" y1="543.8461538461538" y2="543.8461538461538"></line></g><g><path d="M25.200 529.926C24.640 529.926 23.400 530.966 22.600 531.846C19.640 535.126 18.680 540.126 18.680 544.286C18.680 546.606 18.960 549.206 19.240 550.846C19.320 551.326 19.360 551.406 18.880 551.806C16.320 553.926 13.560 556.366 11.480 558.926C8.720 562.366 7 566.086 7 570.366C7 577.326 11.760 583.926 21.560 583.926C22.480 583.926 23.520 583.846 24.320 583.686C24.760 583.606 24.840 583.566 24.920 584.046C25.400 586.726 26 590.206 26 592.086C26 598.006 22 598.726 19.640 598.726C17.480 598.726 16.440 598.086 16.440 597.566C16.440 597.126 16.800 597.166 17.720 596.886C18.960 596.526 20.400 595.446 20.400 593.126C20.400 590.926 19 589.046 16.560 589.046C13.880 589.046 12.280 591.166 12.280 593.646C12.280 596.246 13.840 600.166 19.880 600.166C22.560 600.166 27.760 598.966 27.760 592.166C27.760 589.886 27.040 586.086 26.600 583.606C26.520 583.126 26.560 583.166 27.120 582.926C31.160 581.326 33.840 577.926 33.840 573.406C33.840 568.286 30.080 563.766 24.200 563.766C23.080 563.766 23.200 563.966 23.040 563.046L22.040 557.246C21.960 556.766 22.040 556.726 22.280 556.486C22.920 555.886 23.760 555.046 24.520 554.206C27.880 550.526 29.880 545.766 29.880 541.246C29.880 537.766 28.920 534.326 27.280 531.926C26.680 531.046 25.640 529.926 25.200 529.926ZM20.040 558.086C20.440 557.766 20.520 557.806 20.600 558.246L21.440 563.366C21.560 564.126 21.560 564.086 20.840 564.326C17.320 565.526 15.040 568.686 15.040 572.086C15.040 575.686 16.920 578.246 19.640 579.166C19.960 579.286 20.440 579.406 20.720 579.406C21.040 579.406 21.200 579.206 21.200 578.966C21.200 578.686 20.880 578.566 20.600 578.446C18.920 577.726 17.720 576.006 17.720 574.166C17.720 571.886 19.280 570.166 21.720 569.486C22.360 569.326 22.440 569.366 22.520 569.806L24.520 581.726C24.600 582.166 24.560 582.166 23.960 582.286C23.320 582.406 22.520 582.486 21.720 582.486C14.720 582.486 10.200 578.606 10.200 573.046C10.200 570.686 10.600 567.526 13.920 563.766C16.320 561.086 18.160 559.606 20.040 558.086ZM24.640 569.166C27.880 569.446 30.560 572.166 30.560 575.686C30.560 578.206 29.040 580.246 26.800 581.366C26.320 581.606 26.240 581.606 26.160 581.126L24.200 569.726C24.120 569.246 24.160 569.126 24.640 569.166ZM25.800 536.126C27.120 536.126 28.200 537.206 28.200 539.406C28.200 542.166 26.880 544.726 23.760 547.846C23.120 548.486 22.160 549.406 21.240 550.206C20.960 550.446 20.800 550.406 20.720 549.886C20.560 548.846 20.480 547.486 20.480 546.206C20.480 539.966 23.360 536.126 25.800 536.126Z"></path></g><g></g><path d="M57.820 553.806C56.620 553.806 55.220 554.126 54.140 554.606C50.580 556.166 48.700 560.446 48.700 564.246C48.700 564.606 48.700 564.966 48.740 565.326C48.940 567.486 49.980 569.526 51.300 571.126C52.820 572.966 55.020 573.806 57.420 573.806C64.420 573.806 65.460 567.446 65.460 566.286C65.460 565.406 65.020 565.406 64.860 565.406C64.540 565.406 64.260 565.446 64.260 566.126C64.260 571.286 59.860 572.486 58.580 572.486C55.340 572.486 53.620 569.326 53.620 562.726C53.620 556.126 56.660 554.766 58.820 554.766C60.900 554.766 61.740 555.726 61.740 556.126C61.740 556.486 61.620 557.006 61.020 557.006C59.420 557.006 58.500 558.726 58.500 559.966C58.500 562.246 60.460 562.966 61.580 562.966C61.580 562.966 64.620 562.846 64.620 559.526C64.620 554.286 58.580 553.806 57.820 553.806Z"></path></g><g><line stroke="black" stroke-width="1.6" x1="216.6804165818279" x2="216.6804165818279" y1="543.8461538461538" y2="583.8461538461538"></line></g><g><g><path d="M98.400 158.366C92.600 158.366 89 160.806 89 163.766C89 166.686 91.480 169.286 97.960 169.286C105.080 169.286 107.360 166.806 107.360 163.766C107.360 160.686 102.440 158.366 98.400 158.366ZM93.840 161.086C94.320 159.606 95.920 159.366 97.280 159.366C100.240 159.366 102.640 162.566 102.640 165.206C102.640 165.486 102.600 165.766 102.560 166.006C102.360 167.086 101.720 167.846 100.640 168.126C100.200 168.246 99.760 168.286 99.320 168.286C98.920 168.286 98.560 168.246 98.160 168.126C97.440 167.886 96.720 167.486 96.120 166.966C95.800 166.686 95.480 166.366 95.200 166.006C94.360 165.006 93.680 163.526 93.680 162.166C93.680 161.806 93.720 161.446 93.840 161.086Z"></path></g></g><g><g><path d="M98.400 263.366C92.600 263.366 89 265.806 89 268.766C89 271.686 91.480 274.286 97.960 274.286C105.080 274.286 107.360 271.806 107.360 268.766C107.360 265.686 102.440 263.366 98.400 263.366ZM93.840 266.086C94.320 264.606 95.920 264.366 97.280 264.366C100.240 264.366 102.640 267.566 102.640 270.206C102.640 270.486 102.600 270.766 102.560 271.006C102.360 272.086 101.720 272.846 100.640 273.126C100.200 273.246 99.760 273.286 99.320 273.286C98.920 273.286 98.560 273.246 98.160 273.126C97.440 272.886 96.720 272.486 96.120 271.966C95.800 271.686 95.480 271.366 95.200 271.006C94.360 270.006 93.680 268.526 93.680 267.166C93.680 266.806 93.720 266.446 93.840 266.086Z"></path></g></g><g><g><path d="M98.400 363.366C92.600 363.366 89 365.806 89 368.766C89 371.686 91.480 374.286 97.960 374.286C105.080 374.286 107.360 371.806 107.360 368.766C107.360 365.686 102.440 363.366 98.400 363.366ZM93.840 366.086C94.320 364.606 95.920 364.366 97.280 364.366C100.240 364.366 102.640 367.566 102.640 370.206C102.640 370.486 102.600 370.766 102.560 371.006C102.360 372.086 101.720 372.846 100.640 373.126C100.200 373.246 99.760 373.286 99.320 373.286C98.920 373.286 98.560 373.246 98.160 373.126C97.440 372.886 96.720 372.486 96.120 371.966C95.800 371.686 95.480 371.366 95.200 371.006C94.360 370.006 93.680 368.526 93.680 367.166C93.680 366.806 93.720 366.446 93.840 366.086Z"></path></g></g><g><g><path d="M98.400 473.366C92.600 473.366 89 475.806 89 478.766C89 481.686 91.480 484.286 97.960 484.286C105.080 484.286 107.360 481.806 107.360 478.766C107.360 475.686 102.440 473.366 98.400 473.366ZM93.840 476.086C94.320 474.606 95.920 474.366 97.280 474.366C100.240 474.366 102.640 477.566 102.640 480.206C102.640 480.486 102.600 480.766 102.560 481.006C102.360 482.086 101.720 482.846 100.640 483.126C100.200 483.246 99.760 483.286 99.320 483.286C98.920 483.286 98.560 483.246 98.160 483.126C97.440 482.886 96.720 482.486 96.120 481.966C95.800 481.686 95.480 481.366 95.200 481.006C94.360 480.006 93.680 478.526 93.680 477.166C93.680 476.806 93.720 476.446 93.840 476.086Z"></path></g></g><g><g><path d="M98.400 548.366C92.600 548.366 89 550.806 89 553.766C89 556.686 91.480 559.286 97.960 559.286C105.080 559.286 107.360 556.806 107.360 553.766C107.360 550.686 102.440 548.366 98.400 548.366ZM93.840 551.086C94.320 549.606 95.920 549.366 97.280 549.366C100.240 549.366 102.640 552.566 102.640 555.206C102.640 555.486 102.600 555.766 102.560 556.006C102.360 557.086 101.720 557.846 100.640 558.126C100.200 558.246 99.760 558.286 99.320 558.286C98.920 558.286 98.560 558.246 98.160 558.126C97.440 557.886 96.720 557.486 96.120 556.966C95.800 556.686 95.480 556.366 95.200 556.006C94.360 555.006 93.680 553.526 93.680 552.166C93.680 551.806 93.720 551.446 93.840 551.086Z"></path></g></g></g><g transform="translate(326.3265704279818)"><g><g><line stroke="#6A6A6A" stroke-width="1.3" x1="-16.599999999999994" x2="126.88041658182792" y1="183.8461538461538" y2="183.8461538461538"></line><line stroke="#6A6A6A" stroke-width="1.3" x1="-16.599999999999994" x2="126.88041658182792" y1="173.8461538461538" y2="173.8461538461538"></line><line stroke="#6A6A6A" stroke-width="1.3" x1="-16.599999999999994" x2="126.88041658182792" y1="163.8461538461538" y2="163.8461538461538"></line><line stroke="#6A6A6A" stroke-width="1.3" x1="-16.599999999999994" x2="126.88041658182792" y1="153.8461538461538" y2="153.8461538461538"></line><line stroke="#6A6A6A" stroke-width="1.3" x1="-16.599999999999994" x2="126.88041658182792" y1="143.8461538461538" y2="143.8461538461538"></line></g></g><g><line stroke="black" stroke-width="1.6" x1="127.6804165818279" x2="127.6804165818279" y1="143.8461538461538" y2="183.8461538461538"></line></g><g><g><line stroke="#6A6A6A" stroke-width="1.3" x1="-16.599999999999994" x2="126.88041658182792" y1="283.8461538461538" y2="283.8461538461538"></line><line stroke="#6A6A6A" stroke-width="1.3" x1="-16.599999999999994" x2="126.88041658182792" y1="273.8461538461538" y2="273.8461538461538"></line><line stroke="#6A6A6A" stroke-width="1.3" x1="-16.599999999999994" x2="126.88041658182792" y1="263.8461538461538" y2="263.8461538461538"></line><line stroke="#6A6A6A" stroke-width="1.3" x1="-16.599999999999994" x2="126.88041658182792" y1="253.8461538461538" y2="253.8461538461538"></line><line stroke="#6A6A6A" stroke-width="1.3" x1="-16.599999999999994" x2="126.88041658182792" y1="243.8461538461538" y2="243.8461538461538"></line></g></g><g><line stroke="black" stroke-width="1.6" x1="127.6804165818279" x2="127.6804165818279" y1="143.3461538461538" y2="584.3461538461538"></line></g><g><g><line stroke="#6A6A6A" stroke-width="1.3" x1="-16.599999999999994" x2="126.88041658182792" y1="383.8461538461538" y2="383.8461538461538"></line><line stroke="#6A6A6A" stroke-width="1.3" x1="-16.599999999999994" x2="126.88041658182792" y1="373.8461538461538" y2="373.8461538461538"></line><line stroke="#6A6A6A" stroke-width="1.3" x1="-16.599999999999994" x2="126.88041658182792" y1="363.8461538461538" y2="363.8461538461538"></line><line stroke="#6A6A6A" stroke-width="1.3" x1="-16.599999999999994" x2="126.88041658182792" y1="353.8461538461538" y2="353.8461538461538"></line><line stroke="#6A6A6A" stroke-width="1.3" x1="-16.599999999999994" x2="126.88041658182792" y1="343.8461538461538" y2="343.8461538461538"></line></g></g><g><line stroke="black" stroke-width="1.6" x1="127.6804165818279" x2="127.6804165818279" y1="143.3461538461538" y2="584.3461538461538"></line></g><g><g><line stroke="#6A6A6A" stroke-width="1.3" x1="-16.599999999999994" x2="126.88041658182792" y1="483.8461538461538" y2="483.8461538461538"></line><line stroke="#6A6A6A" stroke-width="1.3" x1="-16.599999999999994" x2="126.88041658182792" y1="473.8461538461538" y2="473.8461538461538"></line><line stroke="#6A6A6A" stroke-width="1.3" x1="-16.599999999999994" x2="126.88041658182792" y1="463.8461538461538" y2="463.8461538461538"></line><line stroke="#6A6A6A" stroke-width="1.3" x1="-16.599999999999994" x2="126.88041658182792" y1="453.8461538461538" y2="453.8461538461538"></line><line stroke="#6A6A6A" stroke-width="1.3" x1="-16.599999999999994" x2="126.88041658182792" y1="443.8461538461538" y2="443.8461538461538"></line></g></g><g><line stroke="black" stroke-width="1.6" x1="127.6804165818279" x2="127.6804165818279" y1="143.3461538461538" y2="584.3461538461538"></line></g><g><g><line stroke="#6A6A6A" stroke-width="1.3" x1="-16.599999999999994" x2="126.88041658182792" y1="583.8461538461538" y2="583.8461538461538"></line><line stroke="#6A6A6A" stroke-width="1.3" x1="-16.599999999999994" x2="126.88041658182792" y1="573.8461538461538" y2="573.8461538461538"></line><line stroke="#6A6A6A" stroke-width="1.3" x1="-16.599999999999994" x2="126.88041658182792" y1="563.8461538461538" y2="563.8461538461538"></line><line stroke="#6A6A6A" stroke-width="1.3" x1="-16.599999999999994" x2="126.88041658182792" y1="553.8461538461538" y2="553.8461538461538"></line><line stroke="#6A6A6A" stroke-width="1.3" x1="-16.599999999999994" x2="126.88041658182792" y1="543.8461538461538" y2="543.8461538461538"></line></g></g><g><line stroke="black" stroke-width="1.6" x1="127.6804165818279" x2="127.6804165818279" y1="543.8461538461538" y2="583.8461538461538"></line></g><g><g><path d="M9.400 163.366C3.600 163.366 0 165.806 0 168.766C0 171.686 2.480 174.286 8.960 174.286C16.080 174.286 18.360 171.806 18.360 168.766C18.360 165.686 13.440 163.366 9.400 163.366ZM4.840 166.086C5.320 164.606 6.920 164.366 8.280 164.366C11.240 164.366 13.640 167.566 13.640 170.206C13.640 170.486 13.600 170.766 13.560 171.006C13.360 172.086 12.720 172.846 11.640 173.126C11.200 173.246 10.760 173.286 10.320 173.286C9.920 173.286 9.560 173.246 9.160 173.126C8.440 172.886 7.720 172.486 7.120 171.966C6.800 171.686 6.480 171.366 6.200 171.006C5.360 170.006 4.680 168.526 4.680 167.166C4.680 166.806 4.720 166.446 4.840 166.086Z"></path></g></g><g><g><path d="M9.400 263.366C3.600 263.366 0 265.806 0 268.766C0 271.686 2.480 274.286 8.960 274.286C16.080 274.286 18.360 271.806 18.360 268.766C18.360 265.686 13.440 263.366 9.400 263.366ZM4.840 266.086C5.320 264.606 6.920 264.366 8.280 264.366C11.240 264.366 13.640 267.566 13.640 270.206C13.640 270.486 13.600 270.766 13.560 271.006C13.360 272.086 12.720 272.846 11.640 273.126C11.200 273.246 10.760 273.286 10.320 273.286C9.920 273.286 9.560 273.246 9.160 273.126C8.440 272.886 7.720 272.486 7.120 271.966C6.800 271.686 6.480 271.366 6.200 271.006C5.360 270.006 4.680 268.526 4.680 267.166C4.680 266.806 4.720 266.446 4.840 266.086Z"></path></g></g><g><g><path d="M9.400 363.366C3.600 363.366 0 365.806 0 368.766C0 371.686 2.480 374.286 8.960 374.286C16.080 374.286 18.360 371.806 18.360 368.766C18.360 365.686 13.440 363.366 9.400 363.366ZM4.840 366.086C5.320 364.606 6.920 364.366 8.280 364.366C11.240 364.366 13.640 367.566 13.640 370.206C13.640 370.486 13.600 370.766 13.560 371.006C13.360 372.086 12.720 372.846 11.640 373.126C11.200 373.246 10.760 373.286 10.320 373.286C9.920 373.286 9.560 373.246 9.160 373.126C8.440 372.886 7.720 372.486 7.120 371.966C6.800 371.686 6.480 371.366 6.200 371.006C5.360 370.006 4.680 368.526 4.680 367.166C4.680 366.806 4.720 366.446 4.840 366.086Z"></path></g></g><g><g><path d="M9.400 458.366C3.600 458.366 0 460.806 0 463.766C0 466.686 2.480 469.286 8.960 469.286C16.080 469.286 18.360 466.806 18.360 463.766C18.360 460.686 13.440 458.366 9.400 458.366ZM4.840 461.086C5.320 459.606 6.920 459.366 8.280 459.366C11.240 459.366 13.640 462.566 13.640 465.206C13.640 465.486 13.600 465.766 13.560 466.006C13.360 467.086 12.720 467.846 11.640 468.126C11.200 468.246 10.760 468.286 10.320 468.286C9.920 468.286 9.560 468.246 9.160 468.126C8.440 467.886 7.720 467.486 7.120 466.966C6.800 466.686 6.480 466.366 6.200 466.006C5.360 465.006 4.680 463.526 4.680 462.166C4.680 461.806 4.720 461.446 4.840 461.086Z"></path></g></g><g><g><path d="M9.400 573.366C3.600 573.366 0 575.806 0 578.766C0 581.686 2.480 584.286 8.960 584.286C16.080 584.286 18.360 581.806 18.360 578.766C18.360 575.686 13.440 573.366 9.400 573.366ZM4.840 576.086C5.320 574.606 6.920 574.366 8.280 574.366C11.240 574.366 13.640 577.566 13.640 580.206C13.640 580.486 13.600 580.766 13.560 581.006C13.360 582.086 12.720 582.846 11.640 583.126C11.200 583.246 10.760 583.286 10.320 583.286C9.920 583.286 9.560 583.246 9.160 583.126C8.440 582.886 7.720 582.486 7.120 581.966C6.800 581.686 6.480 581.366 6.200 581.006C5.360 580.006 4.680 578.526 4.680 577.166C4.680 576.806 4.720 576.446 4.840 576.086Z"></path></g></g></g><g transform="translate(469.8069870098097)"><g><g><line stroke="#6A6A6A" stroke-width="1.3" x1="-16.600000000000023" x2="137.48041658182785" y1="183.8461538461538" y2="183.8461538461538"></line><line stroke="#6A6A6A" stroke-width="1.3" x1="-16.600000000000023" x2="137.48041658182785" y1="173.8461538461538" y2="173.8461538461538"></line><line stroke="#6A6A6A" stroke-width="1.3" x1="-16.600000000000023" x2="137.48041658182785" y1="163.8461538461538" y2="163.8461538461538"></line><line stroke="#6A6A6A" stroke-width="1.3" x1="-16.600000000000023" x2="137.48041658182785" y1="153.8461538461538" y2="153.8461538461538"></line><line stroke="#6A6A6A" stroke-width="1.3" x1="-16.600000000000023" x2="137.48041658182785" y1="143.8461538461538" y2="143.8461538461538"></line></g></g><g><line stroke="#000000" stroke-width="1.6" x1="127.6804165818279" x2="127.6804165818279" y1="143.8461538461538" y2="183.8461538461538"></line><line stroke="#000000" stroke-width="5" x1="134.9804165818279" x2="134.9804165818279" y1="143.8461538461538" y2="183.8461538461538"></line></g><g><g><line stroke="#6A6A6A" stroke-width="1.3" x1="-16.600000000000023" x2="137.48041658182785" y1="283.8461538461538" y2="283.8461538461538"></line><line stroke="#6A6A6A" stroke-width="1.3" x1="-16.600000000000023" x2="137.48041658182785" y1="273.8461538461538" y2="273.8461538461538"></line><line stroke="#6A6A6A" stroke-width="1.3" x1="-16.600000000000023" x2="137.48041658182785" y1="263.8461538461538" y2="263.8461538461538"></line><line stroke="#6A6A6A" stroke-width="1.3" x1="-16.600000000000023" x2="137.48041658182785" y1="253.8461538461538" y2="253.8461538461538"></line><line stroke="#6A6A6A" stroke-width="1.3" x1="-16.600000000000023" x2="137.48041658182785" y1="243.8461538461538" y2="243.8461538461538"></line></g></g><g><line stroke="#000000" stroke-width="1.6" x1="127.6804165818279" x2="127.6804165818279" y1="143.3461538461538" y2="584.3461538461538"></line><line stroke="#000000" stroke-width="5" x1="134.9804165818279" x2="134.9804165818279" y1="143.3461538461538" y2="584.3461538461538"></line></g><g><g><line stroke="#6A6A6A" stroke-width="1.3" x1="-16.600000000000023" x2="137.48041658182785" y1="383.8461538461538" y2="383.8461538461538"></line><line stroke="#6A6A6A" stroke-width="1.3" x1="-16.600000000000023" x2="137.48041658182785" y1="373.8461538461538" y2="373.8461538461538"></line><line stroke="#6A6A6A" stroke-width="1.3" x1="-16.600000000000023" x2="137.48041658182785" y1="363.8461538461538" y2="363.8461538461538"></line><line stroke="#6A6A6A" stroke-width="1.3" x1="-16.600000000000023" x2="137.48041658182785" y1="353.8461538461538" y2="353.8461538461538"></line><line stroke="#6A6A6A" stroke-width="1.3" x1="-16.600000000000023" x2="137.48041658182785" y1="343.8461538461538" y2="343.8461538461538"></line></g></g><g><line stroke="#000000" stroke-width="1.6" x1="127.6804165818279" x2="127.6804165818279" y1="143.3461538461538" y2="584.3461538461538"></line><line stroke="#000000" stroke-width="5" x1="134.9804165818279" x2="134.9804165818279" y1="143.3461538461538" y2="584.3461538461538"></line></g><g><g><line stroke="#6A6A6A" stroke-width="1.3" x1="-16.600000000000023" x2="137.48041658182785" y1="483.8461538461538" y2="483.8461538461538"></line><line stroke="#6A6A6A" stroke-width="1.3" x1="-16.600000000000023" x2="137.48041658182785" y1="473.8461538461538" y2="473.8461538461538"></line><line stroke="#6A6A6A" stroke-width="1.3" x1="-16.600000000000023" x2="137.48041658182785" y1="463.8461538461538" y2="463.8461538461538"></line><line stroke="#6A6A6A" stroke-width="1.3" x1="-16.600000000000023" x2="137.48041658182785" y1="453.8461538461538" y2="453.8461538461538"></line><line stroke="#6A6A6A" stroke-width="1.3" x1="-16.600000000000023" x2="137.48041658182785" y1="443.8461538461538" y2="443.8461538461538"></line></g></g><g><line stroke="#000000" stroke-width="1.6" x1="127.6804165818279" x2="127.6804165818279" y1="143.3461538461538" y2="584.3461538461538"></line><line stroke="#000000" stroke-width="5" x1="134.9804165818279" x2="134.9804165818279" y1="143.3461538461538" y2="584.3461538461538"></line></g><g><g><line stroke="#6A6A6A" stroke-width="1.3" x1="-16.600000000000023" x2="137.48041658182785" y1="583.8461538461538" y2="583.8461538461538"></line><line stroke="#6A6A6A" stroke-width="1.3" x1="-16.600000000000023" x2="137.48041658182785" y1="573.8461538461538" y2="573.8461538461538"></line><line stroke="#6A6A6A" stroke-width="1.3" x1="-16.600000000000023" x2="137.48041658182785" y1="563.8461538461538" y2="563.8461538461538"></line><line stroke="#6A6A6A" stroke-width="1.3" x1="-16.600000000000023" x2="137.48041658182785" y1="553.8461538461538" y2="553.8461538461538"></line><line stroke="#6A6A6A" stroke-width="1.3" x1="-16.600000000000023" x2="137.48041658182785" y1="543.8461538461538" y2="543.8461538461538"></line></g></g><g><line stroke="#000000" stroke-width="1.6" x1="127.6804165818279" x2="127.6804165818279" y1="543.8461538461538" y2="583.8461538461538"></line><line stroke="#000000" stroke-width="5" x1="134.9804165818279" x2="134.9804165818279" y1="543.8461538461538" y2="583.8461538461538"></line></g><g><path d="M60.780 158.206L60.780 154.526C60.780 153.926 60.300 153.486 59.740 153.486L50.540 153.486C49.940 153.486 49.500 153.926 49.500 154.526L49.500 158.206C49.500 158.766 49.940 159.246 50.540 159.246L59.740 159.246C60.300 159.246 60.780 158.766 60.780 158.206Z"></path></g><g><path d="M60.780 258.206L60.780 254.526C60.780 253.926 60.300 253.486 59.740 253.486L50.540 253.486C49.940 253.486 49.500 253.926 49.500 254.526L49.500 258.206C49.500 258.766 49.940 259.246 50.540 259.246L59.740 259.246C60.300 259.246 60.780 258.766 60.780 258.206Z"></path></g><g><path d="M60.780 358.206L60.780 354.526C60.780 353.926 60.300 353.486 59.740 353.486L50.540 353.486C49.940 353.486 49.500 353.926 49.500 354.526L49.500 358.206C49.500 358.766 49.940 359.246 50.540 359.246L59.740 359.246C60.300 359.246 60.780 358.766 60.780 358.206Z"></path></g><g><path d="M60.780 458.206L60.780 454.526C60.780 453.926 60.300 453.486 59.740 453.486L50.540 453.486C49.940 453.486 49.500 453.926 49.500 454.526L49.500 458.206C49.500 458.766 49.940 459.246 50.540 459.246L59.740 459.246C60.300 459.246 60.780 458.766 60.780 458.206Z"></path></g><g><path d="M60.780 558.206L60.780 554.526C60.780 553.926 60.300 553.486 59.740 553.486L50.540 553.486C49.940 553.486 49.500 553.926 49.500 554.526L49.500 558.206C49.500 558.766 49.940 559.246 50.540 559.246L59.740 559.246C60.300 559.246 60.780 558.766 60.780 558.206Z"></path></g></g></svg>