<?xml version="1.0" encoding="UTF-8" standalone="no"?><svg xmlns="http://www.w3.org/2000/svg" height="279.4mm" viewBox="0 0 1328.6153846153845 1719.3846153846152" width="215.9mm"><g transform="translate(163.84615384615387)"><g><g><line stroke="#6A6A6A" stroke-width="1.3" x1="0" x2="285.3040819203123" y1="216.3461538461538" y2="216.3461538461538"></line><line stroke="#6A6A6A" stroke-width="1.3" x1="0" x2="285.3040819203123" y1="206.3461538461538" y2="206.3461538461538"></line><line stroke="#6A6A6A" stroke-width="1.3" x1="0" x2="285.3040819203123" y1="196.3461538461538" y2="196.3461538461538"></line><line stroke="#6A6A6A" stroke-width="1.3" x1="0" x2="285.3040819203123" y1="186.3461538461538" y2="186.3461538461538"></line><line stroke="#6A6A6A" stroke-width="1.3" x1="0" x2="285.3040819203123" y1="176.3461538461538" y2="176.3461538461538"></line></g><g><path d="M25.200 162.426C24.640 162.426 23.400 163.466 22.600 164.346C19.640 167.626 18.680 172.626 18.680 176.786C18.680 179.106 18.960 181.706 19.240 183.346C19.320 183.826 19.360 183.906 18.880 184.306C16.320 186.426 13.560 188.866 11.480 191.426C8.720 194.866 7 198.586 7 202.866C7 209.826 11.760 216.426 21.560 216.426C22.480 216.426 23.520 216.346 24.320 216.186C24.760 216.106 24.840 216.066 24.920 216.546C25.400 219.226 26 222.706 26 224.586C26 230.506 22 231.226 19.640 231.226C17.480 231.226 16.440 230.586 16.440 230.066C16.440 229.626 16.800 229.666 17.720 229.386C18.960 229.026 20.400 227.946 20.400 225.626C20.400 223.426 19 221.546 16.560 221.546C13.880 221.546 12.280 223.666 12.280 226.146C12.280 228.746 13.840 232.666 19.880 232.666C22.560 232.666 27.760 231.466 27.760 224.666C27.760 222.386 27.040 218.586 26.600 216.106C26.520 215.626 26.560 215.666 27.120 215.426C31.160 213.826 33.840 210.426 33.840 205.906C33.840 200.786 30.080 196.266 24.200 196.266C23.080 196.266 23.200 196.466 23.040 195.546L22.040 189.746C21.960 189.266 22.040 189.226 22.280 188.986C22.920 188.386 23.760 187.546 24.520 186.706C27.880 183.026 29.880 178.266 29.880 173.746C29.880 170.266 28.920 166.826 27.280 164.426C26.680 163.546 25.640 162.426 25.200 162.426ZM20.040 190.586C20.440 190.266 20.520 190.306 20.600 190.746L21.440 195.866C21.560 196.626 21.560 196.586 20.840 196.826C17.320 198.026 15.040 201.186 15.040 204.586C15.040 208.186 16.920 210.746 19.640 211.666C19.960 211.786 20.440 211.906 20.720 211.906C21.040 211.906 21.200 211.706 21.200 211.466C21.200 211.186 20.880 211.066 20.600 210.946C18.920 210.226 17.720 208.506 17.720 206.666C17.720 204.386 19.280 202.666 21.720 201.986C22.360 201.826 22.440 201.866 22.520 202.306L24.520 214.226C24.600 214.666 24.560 214.666 23.960 214.786C23.320 214.906 22.520 214.986 21.720 214.986C14.720 214.986 10.200 211.106 10.200 205.546C10.200 203.186 10.600 200.026 13.920 196.266C16.320 193.586 18.160 192.106 20.040 190.586ZM24.640 201.666C27.880 201.946 30.560 204.666 30.560 208.186C30.560 210.706 29.040 212.746 26.800 213.866C26.320 214.106 26.240 214.106 26.160 213.626L24.200 202.226C24.120 201.746 24.160 201.626 24.640 201.666ZM25.800 168.626C27.120 168.626 28.200 169.706 28.200 171.906C28.200 174.666 26.880 177.226 23.760 180.346C23.120 180.986 22.160 181.906 21.240 182.706C20.960 182.946 20.800 182.906 20.720 182.386C20.560 181.346 20.480 179.986 20.480 178.706C20.480 172.466 23.360 168.626 25.800 168.626Z"></path></g><g><path d="M52.980 171.626C53.260 171.506 53.460 171.186 53.460 170.946L53.460 168.106C53.460 167.906 53.340 167.786 53.180 167.786C53.100 167.786 53.060 167.786 52.980 167.826C52.980 167.826 52.180 168.146 51.980 168.186C51.700 168.186 51.420 167.986 51.420 167.666C51.420 167.266 51.420 162.786 51.420 162.786C51.420 162.546 51.180 162.346 50.860 162.346C50.460 162.346 50.220 162.546 50.220 162.786C50.220 162.786 50.220 167.586 50.220 167.986C50.180 168.386 50.060 168.906 49.700 169.146C49.220 169.426 47.860 169.986 47.180 170.146C46.820 170.146 46.700 169.666 46.700 169.346C46.700 168.946 46.700 164.546 46.700 164.546C46.700 164.306 46.420 164.106 46.140 164.106C45.740 164.106 45.500 164.306 45.500 164.546C45.500 164.546 45.500 166.706 45.500 168.306L45.500 169.946C45.500 170.506 45.260 170.906 45.020 171.026C44.780 171.146 43.980 171.466 43.980 171.466C43.700 171.546 43.500 171.866 43.500 172.106L43.500 174.946C43.500 175.186 43.620 175.306 43.820 175.306C43.860 175.306 43.940 175.266 43.980 175.266C43.980 175.266 44.580 175.026 44.860 174.866C44.900 174.866 44.940 174.826 44.980 174.826C45.260 174.826 45.500 175.226 45.500 175.546L45.500 179.506C45.500 179.946 45.300 180.306 45.060 180.426C44.820 180.506 43.980 180.866 43.980 180.866C43.700 180.946 43.500 181.266 43.500 181.506L43.500 184.346C43.500 184.586 43.620 184.706 43.820 184.706C43.860 184.706 43.940 184.666 43.980 184.666C43.980 184.666 44.540 184.426 44.900 184.306C44.940 184.266 44.980 184.266 45.020 184.266C45.300 184.266 45.500 184.706 45.500 184.906C45.500 185.146 45.500 189.826 45.500 189.826C45.500 190.066 45.740 190.266 46.020 190.266C46.420 190.266 46.700 190.066 46.700 189.826C46.700 189.826 46.700 184.746 46.700 184.266C46.700 183.746 46.900 183.466 47.100 183.386L49.540 182.386C49.580 182.386 49.660 182.346 49.700 182.346C50.020 182.346 50.220 182.826 50.220 183.066C50.220 183.346 50.220 188.066 50.220 188.066C50.220 188.306 50.460 188.506 50.740 188.506C51.180 188.506 51.420 188.306 51.420 188.066C51.420 188.066 51.420 182.666 51.420 182.386C51.420 182.066 51.580 181.586 51.860 181.466C52.140 181.346 52.980 181.026 52.980 181.026C53.260 180.906 53.460 180.586 53.460 180.346L53.460 177.506C53.460 177.306 53.340 177.186 53.180 177.186C53.100 177.186 53.060 177.186 52.980 177.226C52.980 177.226 52.140 177.546 51.940 177.626C51.700 177.626 51.420 177.386 51.420 176.906L51.420 173.186C51.420 172.906 51.620 172.146 51.940 172.026C52.260 171.906 52.980 171.626 52.980 171.626ZM50.220 178.146C49.980 178.946 48.100 179.746 47.180 179.746C46.940 179.746 46.740 179.666 46.700 179.546C46.620 179.386 46.580 178.506 46.580 177.546C46.580 176.306 46.620 174.906 46.700 174.586C46.780 173.906 48.620 173.066 49.620 173.066C49.900 173.066 50.140 173.146 50.220 173.306C50.300 173.506 50.380 174.506 50.380 175.586C50.380 176.666 50.300 177.786 50.220 178.146Z"></path><path d="M54.980 208.146C55.100 208.306 55.220 208.346 55.340 208.346C55.460 208.346 55.580 208.266 55.580 208.266C56.780 207.586 57.740 206.506 58.740 205.826C62.300 203.346 63.540 200.906 63.540 199.066C63.540 196.786 61.780 195.346 59.940 195.226C59.660 195.226 59.380 195.266 59.100 195.346C58.660 195.466 58.180 195.626 57.740 195.906C57.500 196.106 57.220 196.466 56.860 196.466C56.780 196.466 56.740 196.466 56.660 196.426C56.380 196.306 56.220 196.026 56.220 195.746C56.260 194.866 56.500 185.266 56.500 184.466C56.500 184.026 56.140 183.786 55.740 183.786C55.180 183.786 54.540 184.186 54.500 184.906C54.500 184.906 54.660 207.746 54.980 208.146ZM56.380 204.586C56.380 204.586 56.260 202.186 56.260 200.586C56.260 199.946 56.300 199.466 56.340 199.306C56.500 198.826 57.540 197.946 58.100 197.626C58.460 197.426 58.820 197.346 59.140 197.346C59.540 197.346 59.900 197.506 60.140 197.786C60.540 198.226 60.780 198.906 60.780 199.666C60.780 200.386 60.580 201.226 60.100 202.066C59.580 203.026 58.420 204.306 57.220 205.066C57.060 205.146 56.940 205.186 56.820 205.186C56.460 205.186 56.380 204.786 56.380 204.586Z"></path><path d="M64.980 203.146C65.100 203.306 65.220 203.346 65.340 203.346C65.460 203.346 65.580 203.266 65.580 203.266C66.780 202.586 67.740 201.506 68.740 200.826C72.300 198.346 73.540 195.906 73.540 194.066C73.540 191.786 71.780 190.346 69.940 190.226C69.660 190.226 69.380 190.266 69.100 190.346C68.660 190.466 68.180 190.626 67.740 190.906C67.500 191.106 67.220 191.466 66.860 191.466C66.780 191.466 66.740 191.466 66.660 191.426C66.380 191.306 66.220 191.026 66.220 190.746C66.260 189.866 66.500 180.266 66.500 179.466C66.500 179.026 66.140 178.786 65.740 178.786C65.180 178.786 64.540 179.186 64.500 179.906C64.500 179.906 64.660 202.746 64.980 203.146ZM66.380 199.586C66.380 199.586 66.260 197.186 66.260 195.586C66.260 194.946 66.300 194.466 66.340 194.306C66.500 193.826 67.540 192.946 68.100 192.626C68.460 192.426 68.820 192.346 69.140 192.346C69.540 192.346 69.900 192.506 70.140 192.786C70.540 193.226 70.780 193.906 70.780 194.666C70.780 195.386 70.580 196.226 70.100 197.066C69.580 198.026 68.420 199.306 67.220 200.066C67.060 200.146 66.940 200.186 66.820 200.186C66.460 200.186 66.380 199.786 66.380 199.586Z"></path></g><g><g><path d="M102.860 189.986C102.860 189.506 102.660 189.426 102.380 189.426C102.060 189.426 101.940 189.586 101.860 189.826C101.860 189.866 101.820 189.906 101.820 189.946C101.420 190.906 101.100 191.666 100.260 191.666C100.060 191.666 99.860 191.626 99.580 191.546C99.060 191.346 98.780 191.306 98.380 191.106C97.580 190.786 95.700 190.146 94.060 190.146C93.540 190.146 93.020 190.226 92.580 190.386C93.460 188.946 96.860 187.746 97.740 187.506C98.340 187.346 100.020 187.026 101.340 185.946C102.300 185.186 103.060 184.026 103.060 182.266C103.060 180.386 102.260 179.026 101.220 178.146C99.180 176.426 96.060 176.186 95.180 176.186C94.100 176.186 92.740 176.226 91.700 176.466C90.300 176.746 88.900 177.586 87.940 178.706C87.260 179.546 86.820 180.546 86.820 181.626C86.820 182.186 86.940 182.746 87.180 183.346C87.780 184.586 89.020 185.546 90.460 185.546C92.900 185.546 93.260 183.026 93.260 182.026C93.260 179.626 90.500 179.506 90.500 178.706C90.580 178.146 91.300 177.186 93.660 177.186C97.220 177.186 97.260 179.866 97.260 181.026C97.260 182.546 96.780 183.946 95.900 185.106C94.460 187.026 93.340 187.986 91.380 189.186C89.180 190.586 87.620 192.546 86.940 195.066C86.940 195.146 86.900 195.226 86.900 195.306C86.900 195.746 87.180 196.266 87.620 196.546C87.740 196.626 87.860 196.626 87.940 196.626C88.820 196.626 89.300 194.186 91.660 194.186C93.260 194.186 93.860 196.346 97.420 196.346C99.140 196.346 102.220 196.186 102.860 189.986Z"></path></g><g><path d="M103.180 209.306L100.260 209.306L100.260 200.746C100.260 200.426 100.220 200.066 99.780 200.066C99.420 200.066 99.220 200.146 98.980 200.426L95.180 205.026C95.020 205.226 94.820 205.466 94.820 205.946C94.820 205.946 94.820 207.546 94.820 209.306L89.420 209.306C92.620 206.586 99.020 197.506 99.140 197.066C99.140 196.986 99.180 196.946 99.180 196.866C99.180 196.546 98.900 196.306 98.580 196.306C98.220 196.306 96.580 196.386 95.860 196.386C95.140 196.386 93.340 196.306 93.020 196.306C92.660 196.306 92.100 196.426 92.100 197.066C92.100 202.026 88.180 207.586 86.980 209.266L86.740 209.586C86.740 209.626 86.700 209.666 86.700 209.706C86.620 209.866 86.580 210.026 86.580 210.146C86.580 210.546 86.900 210.826 87.380 210.826L94.820 210.826L94.820 213.346C94.820 214.426 93.940 214.746 93.220 214.746C92.580 214.746 92.300 215.106 92.300 215.506C92.300 215.906 92.460 216.346 93.060 216.346C93.700 216.346 101.580 216.346 101.580 216.346C101.980 216.346 102.380 216.066 102.380 215.506C102.380 214.946 101.900 214.706 101.500 214.706C101.100 214.706 100.260 214.466 100.260 213.186L100.260 210.826C101.980 210.826 103.180 210.826 103.180 210.826C103.580 210.826 103.780 210.546 103.780 210.066C103.780 209.586 103.620 209.306 103.180 209.306Z"></path></g></g></g><g><line stroke="black" stroke-width="1.6" x1="286.1040819203123" x2="286.1040819203123" y1="176.3461538461538" y2="216.3461538461538"></line></g><g><g><path d="M131.480 232.146C139.120 232.146 140.640 225.946 140.640 224.426C140.640 222.066 138.760 220.546 136.080 220.546C129.160 220.546 127 225.906 127 228.306C127 230.746 128.960 232.146 131.480 232.146ZM135 228.466C132.920 229.866 131.480 230.346 130.480 230.346C129.520 230.346 128.960 229.866 128.640 229.306C128.480 229.026 128.360 228.706 128.360 228.386C128.360 227.386 129.360 226.106 132.560 224.266C134.840 222.946 136.280 222.466 137.240 222.466C138.120 222.466 138.600 222.866 138.920 223.426C139.080 223.706 139.200 223.986 139.200 224.306C139.200 225.226 138.240 226.346 135 228.466Z"></path></g><line stroke="#000000" stroke-width="1.2" x1="140.04" x2="140.04" y1="224.42615384615382" y2="189.42615384615382"></line><line stroke="#000000" stroke-width="2.2" x1="123.8" x2="146.24" y1="226.3461538461538" y2="226.3461538461538"></line></g></g><g transform="translate(465.7502357664661)"><g><g><line stroke="#6A6A6A" stroke-width="1.3" x1="-16.599999999999966" x2="252.80268192031224" y1="216.3461538461538" y2="216.3461538461538"></line><line stroke="#6A6A6A" stroke-width="1.3" x1="-16.599999999999966" x2="252.80268192031224" y1="206.3461538461538" y2="206.3461538461538"></line><line stroke="#6A6A6A" stroke-width="1.3" x1="-16.599999999999966" x2="252.80268192031224" y1="196.3461538461538" y2="196.3461538461538"></line><line stroke="#6A6A6A" stroke-width="1.3" x1="-16.599999999999966" x2="252.80268192031224" y1="186.3461538461538" y2="186.3461538461538"></line><line stroke="#6A6A6A" stroke-width="1.3" x1="-16.599999999999966" x2="252.80268192031224" y1="176.3461538461538" y2="176.3461538461538"></line></g><g><path d="M12.560 290.306C12.360 290.306 12.200 290.306 12 290.346C11.520 290.466 11.080 290.706 10.680 290.946C10.400 291.106 10.080 291.466 9.720 291.466C9.640 291.466 9.560 291.466 9.520 291.426C9.240 291.346 9.120 291.066 9.120 290.746C9.120 289.906 9.360 280.266 9.360 279.506C9.360 279.066 9 278.866 8.600 278.866C8.080 278.866 7.440 279.226 7.360 279.906C7.360 279.906 7.400 285.386 7.480 290.946C6.880 290.546 6.200 290.306 5.440 290.306L5.200 290.306C5 290.306 4.800 290.306 4.640 290.346C4.160 290.466 3.720 290.706 3.320 290.946C3 291.106 2.720 291.466 2.360 291.466C2.280 291.466 2.240 291.466 2.160 291.426C1.880 291.346 1.720 291.066 1.720 290.746C1.720 289.906 2 280.266 2 279.506C2 279.066 1.640 278.866 1.240 278.866C0.680 278.866 0.040 279.226 0 279.906C0 279.906 0.200 302.786 0.480 303.146C0.600 303.306 0.720 303.346 0.840 303.346C0.960 303.346 1.080 303.266 1.080 303.266C2.320 302.626 3.320 301.506 4.240 300.826C5.720 299.786 6.840 298.706 7.600 297.746C7.680 300.746 7.760 303.026 7.880 303.146C8 303.306 8.120 303.346 8.200 303.346C8.320 303.346 8.440 303.266 8.440 303.266C9.680 302.626 10.640 301.506 11.560 300.866C15.160 298.346 16.440 295.906 16.440 294.066C16.440 291.826 14.680 290.346 12.800 290.306ZM5.640 297.066C5.120 298.026 3.960 299.266 2.680 300.066C2.560 300.146 2.400 300.186 2.320 300.186C2 300.186 1.880 299.786 1.880 299.546C1.880 299.546 1.760 297.186 1.760 295.626C1.760 294.986 1.800 294.506 1.840 294.346C2 293.826 3.080 292.946 3.640 292.626C4 292.426 4.360 292.346 4.680 292.346C5.080 292.346 5.400 292.466 5.640 292.746C6.040 293.226 6.280 293.906 6.280 294.706C6.280 295.426 6.080 296.266 5.640 297.066ZM12.960 297.066C12.480 298.026 11.320 299.266 10.040 300.066C9.880 300.146 9.760 300.186 9.680 300.186C9.360 300.186 9.240 299.786 9.240 299.546C9.240 299.546 9.120 296.786 9.120 295.266C9.120 294.826 9.120 294.466 9.160 294.346C9.320 293.826 10.400 292.946 11 292.626C11.360 292.426 11.720 292.346 12.040 292.346C12.440 292.346 12.760 292.466 13 292.746C13.360 293.226 13.600 293.906 13.600 294.706C13.600 295.426 13.400 296.226 12.960 297.066Z"></path><path d="M26.600 242.626C26.160 242.386 24.720 241.826 24.720 241.306C24.720 240.746 26.040 240.146 26.600 239.946C26.760 239.946 26.920 239.986 27.080 239.986C27.720 239.986 28.320 239.826 28.600 239.586C28.800 239.386 28.880 238.786 28.880 238.146C28.880 237.466 28.760 236.746 28.600 236.546C28.440 236.346 27.800 236.266 27.120 236.266C26.400 236.266 25.680 236.346 25.480 236.546C25.320 236.666 25.280 237.386 25.280 238.106C25.080 238.546 24.520 239.986 23.960 239.986C23.400 239.986 22.760 238.666 22.600 238.106C22.600 237.426 22.480 236.706 22.280 236.546C22.120 236.346 21.480 236.266 20.840 236.266C20.160 236.266 19.440 236.346 19.200 236.546C19.080 236.626 19 237.306 19 238.026C19 238.746 19.080 239.466 19.200 239.586C19.480 239.826 20.200 239.986 20.880 239.986C21.040 239.986 21.160 239.946 21.280 239.946C21.720 240.186 23.160 240.746 23.160 241.266C23.160 241.786 21.880 242.426 21.320 242.626L20.920 242.626C20.200 242.626 19.440 242.706 19.200 242.906C19.080 243.026 19 243.706 19 244.426C19 245.146 19.080 245.866 19.200 245.946C19.480 246.186 20.120 246.346 20.800 246.346C21.400 246.346 22.040 246.226 22.280 245.946C22.520 245.746 22.600 245.066 22.600 244.426C22.600 244.386 22.640 244.306 22.680 244.266C22.920 243.706 23.400 242.586 23.920 242.586C24.440 242.586 25.120 243.866 25.280 244.426C25.280 245.146 25.320 245.826 25.480 245.946C25.760 246.186 26.400 246.346 27.080 246.346C27.720 246.346 28.320 246.226 28.600 245.946C28.800 245.746 28.880 245.146 28.880 244.506C28.880 243.826 28.760 243.106 28.600 242.906C28.400 242.706 27.680 242.626 27 242.626Z"></path><path d="M32.480 228.146C32.600 228.306 32.720 228.346 32.840 228.346C32.960 228.346 33.080 228.266 33.080 228.266C34.280 227.586 35.240 226.506 36.240 225.826C39.800 223.346 41.040 220.906 41.040 219.066C41.040 216.786 39.280 215.346 37.440 215.226C37.160 215.226 36.880 215.266 36.600 215.346C36.160 215.466 35.680 215.626 35.240 215.906C35 216.106 34.720 216.466 34.360 216.466C34.280 216.466 34.240 216.466 34.160 216.426C33.880 216.306 33.720 216.026 33.720 215.746C33.760 214.866 34 205.266 34 204.466C34 204.026 33.640 203.786 33.240 203.786C32.680 203.786 32.040 204.186 32 204.906C32 204.906 32.160 227.746 32.480 228.146ZM33.880 224.586C33.880 224.586 33.760 222.186 33.760 220.586C33.760 219.946 33.800 219.466 33.840 219.306C34 218.826 35.040 217.946 35.600 217.626C35.960 217.426 36.320 217.346 36.640 217.346C37.040 217.346 37.400 217.506 37.640 217.786C38.040 218.226 38.280 218.906 38.280 219.666C38.280 220.386 38.080 221.226 37.600 222.066C37.080 223.026 35.920 224.306 34.720 225.066C34.560 225.146 34.440 225.186 34.320 225.186C33.960 225.186 33.880 224.786 33.880 224.586Z"></path><path d="M51.480 156.626C51.760 156.506 51.960 156.186 51.960 155.946L51.960 153.106C51.960 152.906 51.840 152.786 51.680 152.786C51.600 152.786 51.560 152.786 51.480 152.826C51.480 152.826 50.680 153.146 50.480 153.186C50.200 153.186 49.920 152.986 49.920 152.666C49.920 152.266 49.920 147.786 49.920 147.786C49.920 147.546 49.680 147.346 49.360 147.346C48.960 147.346 48.720 147.546 48.720 147.786C48.720 147.786 48.720 152.586 48.720 152.986C48.680 153.386 48.560 153.906 48.200 154.146C47.720 154.426 46.360 154.986 45.680 155.146C45.320 155.146 45.200 154.666 45.200 154.346C45.200 153.946 45.200 149.546 45.200 149.546C45.200 149.306 44.920 149.106 44.640 149.106C44.240 149.106 44 149.306 44 149.546C44 149.546 44 151.706 44 153.306L44 154.946C44 155.506 43.760 155.906 43.520 156.026C43.280 156.146 42.480 156.466 42.480 156.466C42.200 156.546 42 156.866 42 157.106L42 159.946C42 160.186 42.120 160.306 42.320 160.306C42.360 160.306 42.440 160.266 42.480 160.266C42.480 160.266 43.080 160.026 43.360 159.866C43.400 159.866 43.440 159.826 43.480 159.826C43.760 159.826 44 160.226 44 160.546L44 164.506C44 164.946 43.800 165.306 43.560 165.426C43.320 165.506 42.480 165.866 42.480 165.866C42.200 165.946 42 166.266 42 166.506L42 169.346C42 169.586 42.120 169.706 42.320 169.706C42.360 169.706 42.440 169.666 42.480 169.666C42.480 169.666 43.040 169.426 43.400 169.306C43.440 169.266 43.480 169.266 43.520 169.266C43.800 169.266 44 169.706 44 169.906C44 170.146 44 174.826 44 174.826C44 175.066 44.240 175.266 44.520 175.266C44.920 175.266 45.200 175.066 45.200 174.826C45.200 174.826 45.200 169.746 45.200 169.266C45.200 168.746 45.400 168.466 45.600 168.386L48.040 167.386C48.080 167.386 48.160 167.346 48.200 167.346C48.520 167.346 48.720 167.826 48.720 168.066C48.720 168.346 48.720 173.066 48.720 173.066C48.720 173.306 48.960 173.506 49.240 173.506C49.680 173.506 49.920 173.306 49.920 173.066C49.920 173.066 49.920 167.666 49.920 167.386C49.920 167.066 50.080 166.586 50.360 166.466C50.640 166.346 51.480 166.026 51.480 166.026C51.760 165.906 51.960 165.586 51.960 165.346L51.960 162.506C51.960 162.306 51.840 162.186 51.680 162.186C51.600 162.186 51.560 162.186 51.480 162.226C51.480 162.226 50.640 162.546 50.440 162.626C50.200 162.626 49.920 162.386 49.920 161.906L49.920 158.186C49.920 157.906 50.120 157.146 50.440 157.026C50.760 156.906 51.480 156.626 51.480 156.626ZM48.720 163.146C48.480 163.946 46.600 164.746 45.680 164.746C45.440 164.746 45.240 164.666 45.200 164.546C45.120 164.386 45.080 163.506 45.080 162.546C45.080 161.306 45.120 159.906 45.200 159.586C45.280 158.906 47.120 158.066 48.120 158.066C48.400 158.066 48.640 158.146 48.720 158.306C48.800 158.506 48.880 159.506 48.880 160.586C48.880 161.666 48.800 162.786 48.720 163.146Z"></path><path d="M59.240 133.906L58.640 134.106C58.560 134.106 58.520 134.146 58.480 134.146C58.480 134.146 55.920 135.066 54.880 135.066C54.640 135.066 54.480 135.026 54.480 134.866C54.480 134.186 54.480 128.186 54.480 128.186C54.480 127.906 54.240 127.706 54 127.706L53.480 127.706C53.200 127.706 53 127.906 53 128.186L53 148.786C53 149.026 53.120 149.146 53.320 149.146C53.360 149.146 53.440 149.106 53.480 149.106C53.480 149.106 53.560 149.106 53.600 149.066C54.160 148.826 56.400 147.866 57.560 147.866C57.960 147.866 58.240 147.986 58.240 148.306C58.240 149.146 58.240 154.266 58.240 154.266C58.240 154.546 58.440 154.746 58.720 154.746L59.240 154.746C59.480 154.746 59.720 154.546 59.720 154.266L59.720 134.186C59.720 133.986 59.560 133.866 59.400 133.866C59.360 133.866 59.280 133.866 59.240 133.906ZM54.480 139.786C54.480 139.226 56.920 138.186 57.880 138.186C58.120 138.186 58.240 138.226 58.240 138.386L58.240 142.506C58.240 143.226 55.960 144.146 54.960 144.146C54.680 144.146 54.480 144.066 54.480 143.906Z"></path></g></g><g><line stroke="#000000" stroke-width="1.6" x1="243.00268192031228" x2="243.00268192031228" y1="176.3461538461538" y2="216.3461538461538"></line><line stroke="#000000" stroke-width="5" x1="250.30268192031227" x2="250.30268192031227" y1="176.3461538461538" y2="216.3461538461538"></line></g><g><g><path d="M88.379 232.146C96.019 232.146 97.539 225.946 97.539 224.426C97.539 222.066 95.659 220.546 92.979 220.546C86.059 220.546 83.899 225.906 83.899 228.306C83.899 230.746 85.859 232.146 88.379 232.146ZM91.899 228.466C89.819 229.866 88.379 230.346 87.379 230.346C86.419 230.346 85.859 229.866 85.539 229.306C85.379 229.026 85.259 228.706 85.259 228.386C85.259 227.386 86.259 226.106 89.459 224.266C91.739 222.946 93.179 222.466 94.139 222.466C95.019 222.466 95.499 222.866 95.819 223.426C95.979 223.706 96.099 223.986 96.099 224.306C96.099 225.226 95.139 226.346 91.899 228.466Z"></path><path d="M79.319 218.906L78.719 219.106C78.639 219.106 78.599 219.146 78.559 219.146C78.559 219.146 75.999 220.066 74.959 220.066C74.719 220.066 74.559 220.026 74.559 219.866C74.559 219.186 74.559 213.186 74.559 213.186C74.559 212.906 74.319 212.706 74.079 212.706L73.559 212.706C73.279 212.706 73.079 212.906 73.079 213.186L73.079 233.786C73.079 234.026 73.199 234.146 73.399 234.146C73.439 234.146 73.519 234.106 73.559 234.106C73.559 234.106 73.639 234.106 73.679 234.066C74.239 233.826 76.479 232.866 77.639 232.866C78.039 232.866 78.319 232.986 78.319 233.306C78.319 234.146 78.319 239.266 78.319 239.266C78.319 239.546 78.519 239.746 78.799 239.746L79.319 239.746C79.559 239.746 79.799 239.546 79.799 239.266L79.799 219.186C79.799 218.986 79.639 218.866 79.479 218.866C79.439 218.866 79.359 218.866 79.319 218.906ZM74.559 224.786C74.559 224.226 76.999 223.186 77.959 223.186C78.199 223.186 78.319 223.226 78.319 223.386L78.319 227.506C78.319 228.226 76.039 229.146 75.039 229.146C74.759 229.146 74.559 229.066 74.559 228.906Z"></path></g><line stroke="#000000" stroke-width="1.2" x1="96.93860000000001" x2="96.93860000000001" y1="224.42615384615382" y2="189.42615384615382"></line><line stroke="#000000" stroke-width="2.2" x1="80.6986" x2="103.1386" y1="226.3461538461538" y2="226.3461538461538"></line></g></g></svg>