<?xml version="1.0" encoding="UTF-8" standalone="no"?><svg xmlns="http://www.w3.org/2000/svg" height="279.4mm" viewBox="0 0 1328.6153846153845 1719.3846153846152" width="215.9mm"><g transform="translate(93.84615384615385)"><g><g><line stroke="#6A6A6A" stroke-width="1.3" x1="0" x2="428.0410256410257" y1="183.8461538461538" y2="183.8461538461538"></line><line stroke="#6A6A6A" stroke-width="1.3" x1="0" x2="428.0410256410257" y1="173.8461538461538" y2="173.8461538461538"></line><line stroke="#6A6A6A" stroke-width="1.3" x1="0" x2="428.0410256410257" y1="163.8461538461538" y2="163.8461538461538"></line><line stroke="#6A6A6A" stroke-width="1.3" x1="0" x2="428.0410256410257" y1="153.8461538461538" y2="153.8461538461538"></line><line stroke="#6A6A6A" stroke-width="1.3" x1="0" x2="428.0410256410257" y1="143.8461538461538" y2="143.8461538461538"></line></g><g><path d="M25.200 129.926C24.640 129.926 23.400 130.966 22.600 131.846C19.640 135.126 18.680 140.126 18.680 144.286C18.680 146.606 18.960 149.206 19.240 150.846C19.320 151.326 19.360 151.406 18.880 151.806C16.320 153.926 13.560 156.366 11.480 158.926C8.720 162.366 7 166.086 7 170.366C7 177.326 11.760 183.926 21.560 183.926C22.480 183.926 23.520 183.846 24.320 183.686C24.760 183.606 24.840 183.566 24.920 184.046C25.400 186.726 26 190.206 26 192.086C26 198.006 22 198.726 19.640 198.726C17.480 198.726 16.440 198.086 16.440 197.566C16.440 197.126 16.800 197.166 17.720 196.886C18.960 196.526 20.400 195.446 20.400 193.126C20.400 190.926 19 189.046 16.560 189.046C13.880 189.046 12.280 191.166 12.280 193.646C12.280 196.246 13.840 200.166 19.880 200.166C22.560 200.166 27.760 198.966 27.760 192.166C27.760 189.886 27.040 186.086 26.600 183.606C26.520 183.126 26.560 183.166 27.120 182.926C31.160 181.326 33.840 177.926 33.840 173.406C33.840 168.286 30.080 163.766 24.200 163.766C23.080 163.766 23.200 163.966 23.040 163.046L22.040 157.246C21.960 156.766 22.040 156.726 22.280 156.486C22.920 155.886 23.760 155.046 24.520 154.206C27.880 150.526 29.880 145.766 29.880 141.246C29.880 137.766 28.920 134.326 27.280 131.926C26.680 131.046 25.640 129.926 25.200 129.926ZM20.040 158.086C20.440 157.766 20.520 157.806 20.600 158.246L21.440 163.366C21.560 164.126 21.560 164.086 20.840 164.326C17.320 165.526 15.040 168.686 15.040 172.086C15.040 175.686 16.920 178.246 19.640 179.166C19.960 179.286 20.440 179.406 20.720 179.406C21.040 179.406 21.200 179.206 21.200 178.966C21.200 178.686 20.880 178.566 20.600 178.446C18.920 177.726 17.720 176.006 17.720 174.166C17.720 171.886 19.280 170.166 21.720 169.486C22.360 169.326 22.440 169.366 22.520 169.806L24.520 181.726C24.600 182.166 24.560 182.166 23.960 182.286C23.320 182.406 22.520 182.486 21.720 182.486C14.720 182.486 10.200 178.606 10.200 173.046C10.200 170.686 10.600 167.526 13.920 163.766C16.320 161.086 18.160 159.606 20.040 158.086ZM24.640 169.166C27.880 169.446 30.560 172.166 30.560 175.686C30.560 178.206 29.040 180.246 26.800 181.366C26.320 181.606 26.240 181.606 26.160 181.126L24.200 169.726C24.120 169.246 24.160 169.126 24.640 169.166ZM25.800 136.126C27.120 136.126 28.200 137.206 28.200 139.406C28.200 142.166 26.880 144.726 23.760 147.846C23.120 148.486 22.160 149.406 21.240 150.206C20.960 150.446 20.800 150.406 20.720 149.886C20.560 148.846 20.480 147.486 20.480 146.206C20.480 139.966 23.360 136.126 25.800 136.126Z"></path></g><g></g><path d="M57.820 153.806C56.620 153.806 55.220 154.126 54.140 154.606C50.580 156.166 48.700 160.446 48.700 164.246C48.700 164.606 48.700 164.966 48.740 165.326C48.940 167.486 49.980 169.526 51.300 171.126C52.820 172.966 55.020 173.806 57.420 173.806C64.420 173.806 65.460 167.446 65.460 166.286C65.460 165.406 65.020 165.406 64.860 165.406C64.540 165.406 64.260 165.446 64.260 166.126C64.260 171.286 59.860 172.486 58.580 172.486C55.340 172.486 53.620 169.326 53.620 162.726C53.620 156.126 56.660 154.766 58.820 154.766C60.900 154.766 61.740 155.726 61.740 156.126C61.740 156.486 61.620 157.006 61.020 157.006C59.420 157.006 58.500 158.726 58.500 159.966C58.500 162.246 60.460 162.966 61.580 162.966C61.580 162.966 64.620 162.846 64.620 159.526C64.620 154.286 58.580 153.806 57.820 153.806Z"></path></g><g><line stroke="black" stroke-width="1.6" x1="428.84102564102574" x2="428.84102564102574" y1="143.8461538461538" y2="183.8461538461538"></line></g><g><g><path d="M93.360 164.486C97.360 164.486 102.280 160.766 102.280 156.966C102.280 154.686 100.480 153.206 97.880 153.206C92.960 153.206 89 156.846 89 160.726C89 163.086 90.920 164.486 93.360 164.486Z"></path></g><line stroke="#000000" stroke-width="1.2" x1="89.6" x2="89.6" y1="160.68615384615381" y2="194.68615384615381"></line><path d="M98.600 169.806C99.160 171.486 99.440 173.486 99.440 175.286C99.440 177.646 98.440 181.006 97.840 182.366C96.360 185.726 94.360 188.966 89 190.766L89 200.166C89 200.646 89.200 200.766 89.440 200.766C90.200 200.766 90.520 200.526 90.600 199.886C91.280 196.086 94.240 192.606 96.280 189.446C98.800 185.486 101.240 180.726 101.240 175.726C101.240 172.606 100.440 169.766 100.120 168.486C99.800 167.206 98 168.086 98.600 169.806Z"></path><g><polygon fill="black" points="85.6,214.0061538461538 164.65747952046385,214.0061538461538 164.65747952046385,212.4061538461538 85.6,212.4061538461538" stroke="black" stroke-width="0"></polygon><line fill="black" stroke="black" stroke-width="1.6" x1="86.1" x2="86.1" y1="212.4061538461538" y2="206.0061538461538"></line><line fill="black" stroke="black" stroke-width="1.6" x1="164.15747952046385" x2="164.15747952046385" y1="212.4061538461538" y2="206.0061538461538"></line><g><polygon fill="white" points="113.20873976023192,206.9061538461538 113.20873976023192,221.58615384615382 137.0487397602319,221.58615384615382 137.0487397602319,206.9061538461538" stroke="white" stroke-width="0"></polygon><path d="M122.609 221.186C121.809 221.186 121.169 220.866 121.169 220.466C121.169 220.226 121.369 220.146 121.689 219.986C122.129 219.786 122.689 219.306 122.689 218.266C122.689 217.306 122.009 216.826 121.169 216.826C120.049 216.826 119.209 217.826 119.209 219.146C119.209 220.746 120.489 222.226 123.329 222.226C126.729 222.226 129.529 220.186 129.529 217.026C129.529 216.026 129.009 215.066 127.969 214.546C127.689 214.426 127.529 214.386 127.529 214.186C127.529 213.986 127.689 213.986 128.009 213.826C129.689 213.146 131.049 211.866 131.049 210.266C131.049 208.186 129.049 206.906 126.609 206.906C124.089 206.906 122.009 208.226 121.929 210.386C121.889 211.426 122.529 212.106 123.449 212.106C124.449 212.106 125.249 211.306 125.249 210.226C125.249 209.786 125.089 209.466 124.889 209.226C124.609 208.986 124.409 208.946 124.409 208.706C124.409 208.426 124.889 208.146 125.729 208.146C127.289 208.146 127.809 209.106 127.809 209.986C127.809 212.106 126.449 213.626 124.129 213.626L123.689 213.626C123.169 213.626 122.889 213.866 122.889 214.226C122.889 214.586 123.169 214.826 123.689 214.826L124.089 214.826C125.569 214.826 126.289 215.706 126.289 216.986C126.289 218.746 125.049 221.186 122.609 221.186Z"></path></g></g></g><g><g><path d="M128.889 164.486C132.889 164.486 137.809 160.766 137.809 156.966C137.809 154.686 136.009 153.206 133.409 153.206C128.489 153.206 124.529 156.846 124.529 160.726C124.529 163.086 126.449 164.486 128.889 164.486Z"></path></g><line stroke="#000000" stroke-width="1.2" x1="125.12873976023192" x2="125.12873976023192" y1="160.68615384615381" y2="198.68615384615381"></line><path d="M134.129 173.806C134.689 175.486 134.969 177.486 134.969 179.286C134.969 181.646 133.969 185.006 133.369 186.366C131.889 189.726 129.889 192.966 124.529 194.766L124.529 204.166C124.529 204.646 124.729 204.766 124.969 204.766C125.729 204.766 126.049 204.526 126.129 203.886C126.809 200.086 129.769 196.606 131.809 193.446C134.329 189.486 136.769 184.726 136.769 179.726C136.769 176.606 135.969 173.766 135.649 172.486C135.329 171.206 133.529 172.086 134.129 173.806Z"></path></g><g><g><path d="M164.417 164.486C168.417 164.486 173.337 160.766 173.337 156.966C173.337 154.686 171.537 153.206 168.937 153.206C164.017 153.206 160.057 156.846 160.057 160.726C160.057 163.086 161.977 164.486 164.417 164.486Z"></path></g><line stroke="#000000" stroke-width="1.2" x1="160.65747952046385" x2="160.65747952046385" y1="160.68615384615381" y2="194.68615384615381"></line><path d="M169.657 169.806C170.217 171.486 170.497 173.486 170.497 175.286C170.497 177.646 169.497 181.006 168.897 182.366C167.417 185.726 165.417 188.966 160.057 190.766L160.057 200.166C160.057 200.646 160.257 200.766 160.497 200.766C161.257 200.766 161.577 200.526 161.657 199.886C162.337 196.086 165.297 192.606 167.337 189.446C169.857 185.486 172.297 180.726 172.297 175.726C172.297 172.606 171.497 169.766 171.177 168.486C170.857 167.206 169.057 168.086 169.657 169.806Z"></path></g><g><g><path d="M199.946 164.486C203.946 164.486 208.866 160.766 208.866 156.966C208.866 154.686 207.066 153.206 204.466 153.206C199.546 153.206 195.586 156.846 195.586 160.726C195.586 163.086 197.506 164.486 199.946 164.486Z"></path><g><circle cx="214.86621928069582" cy="158.8461538461538" r="2.4"></circle></g></g><line stroke="#000000" stroke-width="1.2" x1="196.1862192806958" x2="196.1862192806958" y1="160.68615384615381" y2="194.68615384615381"></line><g><polygon fill="black" points="192.1862192806958,214.0061538461538 355.15609018758244,214.0061538461538 355.15609018758244,212.4061538461538 192.1862192806958,212.4061538461538" stroke="black" stroke-width="0"></polygon><line fill="black" stroke="black" stroke-width="1.6" x1="192.6862192806958" x2="192.6862192806958" y1="212.4061538461538" y2="206.0061538461538"></line><line fill="black" stroke="black" stroke-width="1.6" x1="354.65609018758244" x2="354.65609018758244" y1="212.4061538461538" y2="206.0061538461538"></line><g><polygon fill="white" points="261.7511547341391,206.9061538461538 261.7511547341391,221.58615384615382 285.59115473413914,221.58615384615382 285.59115473413914,206.9061538461538" stroke="white" stroke-width="0"></polygon><path d="M271.151 221.186C270.351 221.186 269.711 220.866 269.711 220.466C269.711 220.226 269.911 220.146 270.231 219.986C270.671 219.786 271.231 219.306 271.231 218.266C271.231 217.306 270.551 216.826 269.711 216.826C268.591 216.826 267.751 217.826 267.751 219.146C267.751 220.746 269.031 222.226 271.871 222.226C275.271 222.226 278.071 220.186 278.071 217.026C278.071 216.026 277.551 215.066 276.511 214.546C276.231 214.426 276.071 214.386 276.071 214.186C276.071 213.986 276.231 213.986 276.551 213.826C278.231 213.146 279.591 211.866 279.591 210.266C279.591 208.186 277.591 206.906 275.151 206.906C272.631 206.906 270.551 208.226 270.471 210.386C270.431 211.426 271.071 212.106 271.991 212.106C272.991 212.106 273.791 211.306 273.791 210.226C273.791 209.786 273.631 209.466 273.431 209.226C273.151 208.986 272.951 208.946 272.951 208.706C272.951 208.426 273.431 208.146 274.271 208.146C275.831 208.146 276.351 209.106 276.351 209.986C276.351 212.106 274.991 213.626 272.671 213.626L272.231 213.626C271.711 213.626 271.431 213.866 271.431 214.226C271.431 214.586 271.711 214.826 272.231 214.826L272.631 214.826C274.111 214.826 274.831 215.706 274.831 216.986C274.831 218.746 273.591 221.186 271.151 221.186Z"></path></g></g></g><g><g><path d="M277.431 164.486C281.431 164.486 286.351 160.766 286.351 156.966C286.351 154.686 284.551 153.206 281.951 153.206C277.031 153.206 273.071 156.846 273.071 160.726C273.071 163.086 274.991 164.486 277.431 164.486Z"></path><g><circle cx="292.3511547341391" cy="158.8461538461538" r="2.4"></circle></g></g><line stroke="#000000" stroke-width="1.2" x1="273.6711547341391" x2="273.6711547341391" y1="160.68615384615381" y2="198.68615384615381"></line></g><g><g><path d="M354.916 164.486C358.916 164.486 363.836 160.766 363.836 156.966C363.836 154.686 362.036 153.206 359.436 153.206C354.516 153.206 350.556 156.846 350.556 160.726C350.556 163.086 352.476 164.486 354.916 164.486Z"></path><g><circle cx="369.8360901875824" cy="158.8461538461538" r="2.4"></circle></g></g><line stroke="#000000" stroke-width="1.2" x1="351.15609018758244" x2="351.15609018758244" y1="160.68615384615381" y2="194.68615384615381"></line></g></g><g transform="translate(538.4871794871797)"><g><g><line stroke="#6A6A6A" stroke-width="1.3" x1="-16.600000000000023" x2="339.0410256410256" y1="183.8461538461538" y2="183.8461538461538"></line><line stroke="#6A6A6A" stroke-width="1.3" x1="-16.600000000000023" x2="339.0410256410256" y1="173.8461538461538" y2="173.8461538461538"></line><line stroke="#6A6A6A" stroke-width="1.3" x1="-16.600000000000023" x2="339.0410256410256" y1="163.8461538461538" y2="163.8461538461538"></line><line stroke="#6A6A6A" stroke-width="1.3" x1="-16.600000000000023" x2="339.0410256410256" y1="153.8461538461538" y2="153.8461538461538"></line><line stroke="#6A6A6A" stroke-width="1.3" x1="-16.600000000000023" x2="339.0410256410256" y1="143.8461538461538" y2="143.8461538461538"></line></g></g><g><line stroke="black" stroke-width="1.6" x1="339.8410256410257" x2="339.8410256410257" y1="143.8461538461538" y2="183.8461538461538"></line></g><g><g><path d="M4.360 164.486C8.360 164.486 13.280 160.766 13.280 156.966C13.280 154.686 11.480 153.206 8.880 153.206C3.960 153.206 0 156.846 0 160.726C0 163.086 1.920 164.486 4.360 164.486Z"></path></g><line stroke="#000000" stroke-width="1.2" x1="0.6" x2="0.6" y1="160.68615384615381" y2="194.68615384615381"></line><path d="M9.600 169.806C10.160 171.486 10.440 173.486 10.440 175.286C10.440 177.646 9.440 181.006 8.840 182.366C7.360 185.726 5.360 188.966 0 190.766L0 200.166C0 200.646 0.200 200.766 0.440 200.766C1.200 200.766 1.520 200.526 1.600 199.886C2.280 196.086 5.240 192.606 7.280 189.446C9.800 185.486 12.240 180.726 12.240 175.726C12.240 172.606 11.440 169.766 11.120 168.486C10.800 167.206 9 168.086 9.600 169.806Z"></path><g><polygon fill="black" points="-3.4,214.0061538461538 75.65747952046387,214.0061538461538 75.65747952046387,212.4061538461538 -3.4,212.4061538461538" stroke="black" stroke-width="0"></polygon><line fill="black" stroke="black" stroke-width="1.6" x1="-2.9" x2="-2.9" y1="212.4061538461538" y2="206.0061538461538"></line><line fill="black" stroke="black" stroke-width="1.6" x1="75.15747952046387" x2="75.15747952046387" y1="212.4061538461538" y2="206.0061538461538"></line><g><polygon fill="white" points="24.20873976023193,206.9061538461538 24.20873976023193,221.58615384615382 48.04873976023193,221.58615384615382 48.04873976023193,206.9061538461538" stroke="white" stroke-width="0"></polygon><path d="M33.609 221.186C32.809 221.186 32.169 220.866 32.169 220.466C32.169 220.226 32.369 220.146 32.689 219.986C33.129 219.786 33.689 219.306 33.689 218.266C33.689 217.306 33.009 216.826 32.169 216.826C31.049 216.826 30.209 217.826 30.209 219.146C30.209 220.746 31.489 222.226 34.329 222.226C37.729 222.226 40.529 220.186 40.529 217.026C40.529 216.026 40.009 215.066 38.969 214.546C38.689 214.426 38.529 214.386 38.529 214.186C38.529 213.986 38.689 213.986 39.009 213.826C40.689 213.146 42.049 211.866 42.049 210.266C42.049 208.186 40.049 206.906 37.609 206.906C35.089 206.906 33.009 208.226 32.929 210.386C32.889 211.426 33.529 212.106 34.449 212.106C35.449 212.106 36.249 211.306 36.249 210.226C36.249 209.786 36.089 209.466 35.889 209.226C35.609 208.986 35.409 208.946 35.409 208.706C35.409 208.426 35.889 208.146 36.729 208.146C38.289 208.146 38.809 209.106 38.809 209.986C38.809 212.106 37.449 213.626 35.129 213.626L34.689 213.626C34.169 213.626 33.889 213.866 33.889 214.226C33.889 214.586 34.169 214.826 34.689 214.826L35.089 214.826C36.569 214.826 37.289 215.706 37.289 216.986C37.289 218.746 36.049 221.186 33.609 221.186Z"></path></g></g></g><g><g><path d="M39.889 164.486C43.889 164.486 48.809 160.766 48.809 156.966C48.809 154.686 47.009 153.206 44.409 153.206C39.489 153.206 35.529 156.846 35.529 160.726C35.529 163.086 37.449 164.486 39.889 164.486Z"></path></g><line stroke="#000000" stroke-width="1.2" x1="36.12873976023194" x2="36.12873976023194" y1="160.68615384615381" y2="198.68615384615381"></line><path d="M45.129 173.806C45.689 175.486 45.969 177.486 45.969 179.286C45.969 181.646 44.969 185.006 44.369 186.366C42.889 189.726 40.889 192.966 35.529 194.766L35.529 204.166C35.529 204.646 35.729 204.766 35.969 204.766C36.729 204.766 37.049 204.526 37.129 203.886C37.809 200.086 40.769 196.606 42.809 193.446C45.329 189.486 47.769 184.726 47.769 179.726C47.769 176.606 46.969 173.766 46.649 172.486C46.329 171.206 44.529 172.086 45.129 173.806Z"></path></g><g><g><path d="M75.417 164.486C79.417 164.486 84.337 160.766 84.337 156.966C84.337 154.686 82.537 153.206 79.937 153.206C75.017 153.206 71.057 156.846 71.057 160.726C71.057 163.086 72.977 164.486 75.417 164.486Z"></path></g><line stroke="#000000" stroke-width="1.2" x1="71.65747952046387" x2="71.65747952046387" y1="160.68615384615381" y2="194.68615384615381"></line><path d="M80.657 169.806C81.217 171.486 81.497 173.486 81.497 175.286C81.497 177.646 80.497 181.006 79.897 182.366C78.417 185.726 76.417 188.966 71.057 190.766L71.057 200.166C71.057 200.646 71.257 200.766 71.497 200.766C72.257 200.766 72.577 200.526 72.657 199.886C73.337 196.086 76.297 192.606 78.337 189.446C80.857 185.486 83.297 180.726 83.297 175.726C83.297 172.606 82.497 169.766 82.177 168.486C81.857 167.206 80.057 168.086 80.657 169.806Z"></path></g><g><g><path d="M110.946 164.486C114.946 164.486 119.866 160.766 119.866 156.966C119.866 154.686 118.066 153.206 115.466 153.206C110.546 153.206 106.586 156.846 106.586 160.726C106.586 163.086 108.506 164.486 110.946 164.486Z"></path><g><circle cx="125.86621928069582" cy="158.8461538461538" r="2.4"></circle></g></g><line stroke="#000000" stroke-width="1.2" x1="107.18621928069581" x2="107.18621928069581" y1="160.68615384615381" y2="194.68615384615381"></line><g><polygon fill="black" points="103.18621928069581,214.0061538461538 266.15609018758244,214.0061538461538 266.15609018758244,212.4061538461538 103.18621928069581,212.4061538461538" stroke="black" stroke-width="0"></polygon><line fill="black" stroke="black" stroke-width="1.6" x1="103.68621928069581" x2="103.68621928069581" y1="212.4061538461538" y2="206.0061538461538"></line><line fill="black" stroke="black" stroke-width="1.6" x1="265.65609018758244" x2="265.65609018758244" y1="212.4061538461538" y2="206.0061538461538"></line><g><polygon fill="white" points="172.75115473413913,206.9061538461538 172.75115473413913,221.58615384615382 196.5911547341391,221.58615384615382 196.5911547341391,206.9061538461538" stroke="white" stroke-width="0"></polygon><path d="M182.151 221.186C181.351 221.186 180.711 220.866 180.711 220.466C180.711 220.226 180.911 220.146 181.231 219.986C181.671 219.786 182.231 219.306 182.231 218.266C182.231 217.306 181.551 216.826 180.711 216.826C179.591 216.826 178.751 217.826 178.751 219.146C178.751 220.746 180.031 222.226 182.871 222.226C186.271 222.226 189.071 220.186 189.071 217.026C189.071 216.026 188.551 215.066 187.511 214.546C187.231 214.426 187.071 214.386 187.071 214.186C187.071 213.986 187.231 213.986 187.551 213.826C189.231 213.146 190.591 211.866 190.591 210.266C190.591 208.186 188.591 206.906 186.151 206.906C183.631 206.906 181.551 208.226 181.471 210.386C181.431 211.426 182.071 212.106 182.991 212.106C183.991 212.106 184.791 211.306 184.791 210.226C184.791 209.786 184.631 209.466 184.431 209.226C184.151 208.986 183.951 208.946 183.951 208.706C183.951 208.426 184.431 208.146 185.271 208.146C186.831 208.146 187.351 209.106 187.351 209.986C187.351 212.106 185.991 213.626 183.671 213.626L183.231 213.626C182.711 213.626 182.431 213.866 182.431 214.226C182.431 214.586 182.711 214.826 183.231 214.826L183.631 214.826C185.111 214.826 185.831 215.706 185.831 216.986C185.831 218.746 184.591 221.186 182.151 221.186Z"></path></g></g></g><g><g><path d="M188.431 164.486C192.431 164.486 197.351 160.766 197.351 156.966C197.351 154.686 195.551 153.206 192.951 153.206C188.031 153.206 184.071 156.846 184.071 160.726C184.071 163.086 185.991 164.486 188.431 164.486Z"></path><g><circle cx="203.3511547341391" cy="158.8461538461538" r="2.4"></circle></g></g><line stroke="#000000" stroke-width="1.2" x1="184.6711547341391" x2="184.6711547341391" y1="160.68615384615381" y2="198.68615384615381"></line></g><g><g><path d="M265.916 164.486C269.916 164.486 274.836 160.766 274.836 156.966C274.836 154.686 273.036 153.206 270.436 153.206C265.516 153.206 261.556 156.846 261.556 160.726C261.556 163.086 263.476 164.486 265.916 164.486Z"></path><g><circle cx="280.8360901875824" cy="158.8461538461538" r="2.4"></circle></g></g><line stroke="#000000" stroke-width="1.2" x1="262.15609018758244" x2="262.15609018758244" y1="160.68615384615381" y2="194.68615384615381"></line></g></g><g transform="translate(894.1282051282053)"><g><g><line stroke="#6A6A6A" stroke-width="1.3" x1="-16.600000000000023" x2="340.64102564102575" y1="183.8461538461538" y2="183.8461538461538"></line><line stroke="#6A6A6A" stroke-width="1.3" x1="-16.600000000000023" x2="340.64102564102575" y1="173.8461538461538" y2="173.8461538461538"></line><line stroke="#6A6A6A" stroke-width="1.3" x1="-16.600000000000023" x2="340.64102564102575" y1="163.8461538461538" y2="163.8461538461538"></line><line stroke="#6A6A6A" stroke-width="1.3" x1="-16.600000000000023" x2="340.64102564102575" y1="153.8461538461538" y2="153.8461538461538"></line><line stroke="#6A6A6A" stroke-width="1.3" x1="-16.600000000000023" x2="340.64102564102575" y1="143.8461538461538" y2="143.8461538461538"></line></g></g><g><line stroke="black" stroke-width="1.6" x1="339.8410256410257" x2="339.8410256410257" y1="143.8461538461538" y2="183.8461538461538"></line></g><g><g><path d="M4.360 164.486C8.360 164.486 13.280 160.766 13.280 156.966C13.280 154.686 11.480 153.206 8.880 153.206C3.960 153.206 0 156.846 0 160.726C0 163.086 1.920 164.486 4.360 164.486Z"></path></g><line stroke="#000000" stroke-width="1.2" x1="0.6" x2="0.6" y1="160.68615384615381" y2="194.68615384615381"></line><path d="M9.600 169.806C10.160 171.486 10.440 173.486 10.440 175.286C10.440 177.646 9.440 181.006 8.840 182.366C7.360 185.726 5.360 188.966 0 190.766L0 200.166C0 200.646 0.200 200.766 0.440 200.766C1.200 200.766 1.520 200.526 1.600 199.886C2.280 196.086 5.240 192.606 7.280 189.446C9.800 185.486 12.240 180.726 12.240 175.726C12.240 172.606 11.440 169.766 11.120 168.486C10.800 167.206 9 168.086 9.600 169.806Z"></path><g><polygon fill="black" points="-3.4,214.0061538461538 75.65747952046387,214.0061538461538 75.65747952046387,212.4061538461538 -3.4,212.4061538461538" stroke="black" stroke-width="0"></polygon><line fill="black" stroke="black" stroke-width="1.6" x1="-2.9" x2="-2.9" y1="212.4061538461538" y2="206.0061538461538"></line><line fill="black" stroke="black" stroke-width="1.6" x1="75.15747952046387" x2="75.15747952046387" y1="212.4061538461538" y2="206.0061538461538"></line><g><polygon fill="white" points="24.06873976023193,207.02615384615382 24.06873976023193,221.74615384615382 48.18873976023193,221.74615384615382 48.18873976023193,207.02615384615382" stroke="white" stroke-width="0"></polygon><path d="M31.029 222.066C31.629 222.066 32.229 221.706 32.869 221.706C33.469 221.706 33.989 222.066 34.589 222.066C34.949 222.066 35.069 221.906 35.109 221.626C35.709 219.106 36.309 216.826 38.509 214.306C39.869 212.746 41.269 210.946 42.109 208.186C42.149 207.986 42.189 207.786 42.189 207.586C42.189 207.226 41.909 207.146 41.589 207.146C41.109 207.146 40.949 207.266 40.789 207.666C40.549 208.346 40.149 208.666 39.549 208.666C38.229 208.666 37.469 207.026 35.509 207.026C34.629 207.026 33.869 207.466 33.229 208.026C32.949 208.306 32.869 208.466 32.709 208.466C32.669 208.466 32.589 208.426 32.589 208.306C32.589 208.066 32.749 207.826 32.749 207.506C32.749 207.266 32.549 207.146 32.229 207.146C31.869 207.146 31.669 207.226 31.509 207.626L30.149 211.946C30.109 212.066 30.069 212.186 30.069 212.266C30.069 212.546 30.229 212.666 30.549 212.666C30.909 212.666 31.149 212.586 31.269 212.146C31.629 211.066 32.109 210.226 33.069 210.226C34.189 210.226 35.509 210.986 36.989 210.986C37.789 210.986 38.669 210.706 39.469 210.186C39.789 209.986 39.989 210.226 39.789 210.506C38.629 212.226 37.189 213.146 35.509 214.506C33.069 216.426 31.549 218.826 30.749 221.386C30.709 221.466 30.669 221.626 30.669 221.746C30.669 221.946 30.789 222.066 31.029 222.066Z"></path></g></g></g><g><g><path d="M39.889 164.486C43.889 164.486 48.809 160.766 48.809 156.966C48.809 154.686 47.009 153.206 44.409 153.206C39.489 153.206 35.529 156.846 35.529 160.726C35.529 163.086 37.449 164.486 39.889 164.486Z"></path></g><line stroke="#000000" stroke-width="1.2" x1="36.12873976023194" x2="36.12873976023194" y1="160.68615384615381" y2="198.68615384615381"></line><path d="M45.129 173.806C45.689 175.486 45.969 177.486 45.969 179.286C45.969 181.646 44.969 185.006 44.369 186.366C42.889 189.726 40.889 192.966 35.529 194.766L35.529 204.166C35.529 204.646 35.729 204.766 35.969 204.766C36.729 204.766 37.049 204.526 37.129 203.886C37.809 200.086 40.769 196.606 42.809 193.446C45.329 189.486 47.769 184.726 47.769 179.726C47.769 176.606 46.969 173.766 46.649 172.486C46.329 171.206 44.529 172.086 45.129 173.806Z"></path></g><g><g><path d="M75.417 164.486C79.417 164.486 84.337 160.766 84.337 156.966C84.337 154.686 82.537 153.206 79.937 153.206C75.017 153.206 71.057 156.846 71.057 160.726C71.057 163.086 72.977 164.486 75.417 164.486Z"></path></g><line stroke="#000000" stroke-width="1.2" x1="71.65747952046387" x2="71.65747952046387" y1="160.68615384615381" y2="194.68615384615381"></line><path d="M80.657 169.806C81.217 171.486 81.497 173.486 81.497 175.286C81.497 177.646 80.497 181.006 79.897 182.366C78.417 185.726 76.417 188.966 71.057 190.766L71.057 200.166C71.057 200.646 71.257 200.766 71.497 200.766C72.257 200.766 72.577 200.526 72.657 199.886C73.337 196.086 76.297 192.606 78.337 189.446C80.857 185.486 83.297 180.726 83.297 175.726C83.297 172.606 82.497 169.766 82.177 168.486C81.857 167.206 80.057 168.086 80.657 169.806Z"></path></g><g><g><path d="M110.946 164.486C114.946 164.486 119.866 160.766 119.866 156.966C119.866 154.686 118.066 153.206 115.466 153.206C110.546 153.206 106.586 156.846 106.586 160.726C106.586 163.086 108.506 164.486 110.946 164.486Z"></path><g><circle cx="125.86621928069582" cy="158.8461538461538" r="2.4"></circle></g></g><line stroke="#000000" stroke-width="1.2" x1="107.18621928069581" x2="107.18621928069581" y1="160.68615384615381" y2="194.68615384615381"></line><g><polygon fill="black" points="103.18621928069581,214.0061538461538 266.15609018758244,214.0061538461538 266.15609018758244,212.4061538461538 103.18621928069581,212.4061538461538" stroke="black" stroke-width="0"></polygon><line fill="black" stroke="black" stroke-width="1.6" x1="103.68621928069581" x2="103.68621928069581" y1="212.4061538461538" y2="206.0061538461538"></line><line fill="black" stroke="black" stroke-width="1.6" x1="265.65609018758244" x2="265.65609018758244" y1="212.4061538461538" y2="206.0061538461538"></line><g><polygon fill="white" points="172.61115473413912,207.02615384615382 172.61115473413912,221.74615384615382 196.73115473413912,221.74615384615382 196.73115473413912,207.02615384615382" stroke="white" stroke-width="0"></polygon><path d="M179.571 222.066C180.171 222.066 180.771 221.706 181.411 221.706C182.011 221.706 182.531 222.066 183.131 222.066C183.491 222.066 183.611 221.906 183.651 221.626C184.251 219.106 184.851 216.826 187.051 214.306C188.411 212.746 189.811 210.946 190.651 208.186C190.691 207.986 190.731 207.786 190.731 207.586C190.731 207.226 190.451 207.146 190.131 207.146C189.651 207.146 189.491 207.266 189.331 207.666C189.091 208.346 188.691 208.666 188.091 208.666C186.771 208.666 186.011 207.026 184.051 207.026C183.171 207.026 182.411 207.466 181.771 208.026C181.491 208.306 181.411 208.466 181.251 208.466C181.211 208.466 181.131 208.426 181.131 208.306C181.131 208.066 181.291 207.826 181.291 207.506C181.291 207.266 181.091 207.146 180.771 207.146C180.411 207.146 180.211 207.226 180.051 207.626L178.691 211.946C178.651 212.066 178.611 212.186 178.611 212.266C178.611 212.546 178.771 212.666 179.091 212.666C179.451 212.666 179.691 212.586 179.811 212.146C180.171 211.066 180.651 210.226 181.611 210.226C182.731 210.226 184.051 210.986 185.531 210.986C186.331 210.986 187.211 210.706 188.011 210.186C188.331 209.986 188.531 210.226 188.331 210.506C187.171 212.226 185.731 213.146 184.051 214.506C181.611 216.426 180.091 218.826 179.291 221.386C179.251 221.466 179.211 221.626 179.211 221.746C179.211 221.946 179.331 222.066 179.571 222.066Z"></path></g></g></g><g><g><path d="M188.431 164.486C192.431 164.486 197.351 160.766 197.351 156.966C197.351 154.686 195.551 153.206 192.951 153.206C188.031 153.206 184.071 156.846 184.071 160.726C184.071 163.086 185.991 164.486 188.431 164.486Z"></path><g><circle cx="203.3511547341391" cy="158.8461538461538" r="2.4"></circle></g></g><line stroke="#000000" stroke-width="1.2" x1="184.6711547341391" x2="184.6711547341391" y1="160.68615384615381" y2="198.68615384615381"></line></g><g><g><path d="M265.916 164.486C269.916 164.486 274.836 160.766 274.836 156.966C274.836 154.686 273.036 153.206 270.436 153.206C265.516 153.206 261.556 156.846 261.556 160.726C261.556 163.086 263.476 164.486 265.916 164.486Z"></path><g><circle cx="280.8360901875824" cy="158.8461538461538" r="2.4"></circle></g></g><line stroke="#000000" stroke-width="1.2" x1="262.15609018758244" x2="262.15609018758244" y1="160.68615384615381" y2="194.68615384615381"></line></g></g><g transform="translate(93.84615384615385)"><g><g><line stroke="#6A6A6A" stroke-width="1.3" x1="0" x2="432.5881996580075" y1="314.8461538461538" y2="314.8461538461538"></line><line stroke="#6A6A6A" stroke-width="1.3" x1="0" x2="432.5881996580075" y1="304.8461538461538" y2="304.8461538461538"></line><line stroke="#6A6A6A" stroke-width="1.3" x1="0" x2="432.5881996580075" y1="294.8461538461538" y2="294.8461538461538"></line><line stroke="#6A6A6A" stroke-width="1.3" x1="0" x2="432.5881996580075" y1="284.8461538461538" y2="284.8461538461538"></line><line stroke="#6A6A6A" stroke-width="1.3" x1="0" x2="432.5881996580075" y1="274.8461538461538" y2="274.8461538461538"></line></g><g><path d="M25.200 260.926C24.640 260.926 23.400 261.966 22.600 262.846C19.640 266.126 18.680 271.126 18.680 275.286C18.680 277.606 18.960 280.206 19.240 281.846C19.320 282.326 19.360 282.406 18.880 282.806C16.320 284.926 13.560 287.366 11.480 289.926C8.720 293.366 7 297.086 7 301.366C7 308.326 11.760 314.926 21.560 314.926C22.480 314.926 23.520 314.846 24.320 314.686C24.760 314.606 24.840 314.566 24.920 315.046C25.400 317.726 26 321.206 26 323.086C26 329.006 22 329.726 19.640 329.726C17.480 329.726 16.440 329.086 16.440 328.566C16.440 328.126 16.800 328.166 17.720 327.886C18.960 327.526 20.400 326.446 20.400 324.126C20.400 321.926 19 320.046 16.560 320.046C13.880 320.046 12.280 322.166 12.280 324.646C12.280 327.246 13.840 331.166 19.880 331.166C22.560 331.166 27.760 329.966 27.760 323.166C27.760 320.886 27.040 317.086 26.600 314.606C26.520 314.126 26.560 314.166 27.120 313.926C31.160 312.326 33.840 308.926 33.840 304.406C33.840 299.286 30.080 294.766 24.200 294.766C23.080 294.766 23.200 294.966 23.040 294.046L22.040 288.246C21.960 287.766 22.040 287.726 22.280 287.486C22.920 286.886 23.760 286.046 24.520 285.206C27.880 281.526 29.880 276.766 29.880 272.246C29.880 268.766 28.920 265.326 27.280 262.926C26.680 262.046 25.640 260.926 25.200 260.926ZM20.040 289.086C20.440 288.766 20.520 288.806 20.600 289.246L21.440 294.366C21.560 295.126 21.560 295.086 20.840 295.326C17.320 296.526 15.040 299.686 15.040 303.086C15.040 306.686 16.920 309.246 19.640 310.166C19.960 310.286 20.440 310.406 20.720 310.406C21.040 310.406 21.200 310.206 21.200 309.966C21.200 309.686 20.880 309.566 20.600 309.446C18.920 308.726 17.720 307.006 17.720 305.166C17.720 302.886 19.280 301.166 21.720 300.486C22.360 300.326 22.440 300.366 22.520 300.806L24.520 312.726C24.600 313.166 24.560 313.166 23.960 313.286C23.320 313.406 22.520 313.486 21.720 313.486C14.720 313.486 10.200 309.606 10.200 304.046C10.200 301.686 10.600 298.526 13.920 294.766C16.320 292.086 18.160 290.606 20.040 289.086ZM24.640 300.166C27.880 300.446 30.560 303.166 30.560 306.686C30.560 309.206 29.040 311.246 26.800 312.366C26.320 312.606 26.240 312.606 26.160 312.126L24.200 300.726C24.120 300.246 24.160 300.126 24.640 300.166ZM25.800 267.126C27.120 267.126 28.200 268.206 28.200 270.406C28.200 273.166 26.880 275.726 23.760 278.846C23.120 279.486 22.160 280.406 21.240 281.206C20.960 281.446 20.800 281.406 20.720 280.886C20.560 279.846 20.480 278.486 20.480 277.206C20.480 270.966 23.360 267.126 25.800 267.126Z"></path></g><g></g><text font-family='Alegreya' font-style='italic' text-anchor='end' stroke='#7a7a7a' font-size="24" x="0" y="264.8461538461538">4</text></g><g><line stroke="black" stroke-width="1.6" x1="433.3881996580075" x2="433.3881996580075" y1="274.8461538461538" y2="314.8461538461538"></line></g><g><g><path d="M52.860 295.486C56.860 295.486 61.780 291.766 61.780 287.966C61.780 285.686 59.980 284.206 57.380 284.206C52.460 284.206 48.500 287.846 48.500 291.726C48.500 294.086 50.420 295.486 52.860 295.486Z"></path></g><line stroke="#000000" stroke-width="1.2" x1="49.1" x2="49.1" y1="291.6861538461538" y2="325.6861538461538"></line><path d="M58.100 300.806C58.660 302.486 58.940 304.486 58.940 306.286C58.940 308.646 57.940 312.006 57.340 313.366C55.860 316.726 53.860 319.966 48.500 321.766L48.500 331.166C48.500 331.646 48.700 331.766 48.940 331.766C49.700 331.766 50.020 331.526 50.100 330.886C50.780 327.086 53.740 323.606 55.780 320.446C58.300 316.486 60.740 311.726 60.740 306.726C60.740 303.606 59.940 300.766 59.620 299.486C59.300 298.206 57.500 299.086 58.100 300.806Z"></path><g><polygon fill="black" points="45.1,345.00615384615384 133.84938239404445,345.00615384615384 133.84938239404445,343.4061538461538 45.1,343.4061538461538" stroke="black" stroke-width="0"></polygon><line fill="black" stroke="black" stroke-width="1.6" x1="45.6" x2="45.6" y1="343.4061538461538" y2="337.00615384615384"></line><line fill="black" stroke="black" stroke-width="1.6" x1="133.34938239404445" x2="133.34938239404445" y1="343.4061538461538" y2="337.00615384615384"></line><g><polygon fill="white" points="77.55469119702222,337.9061538461538 77.55469119702222,352.5861538461538 101.39469119702223,352.5861538461538 101.39469119702223,337.9061538461538" stroke="white" stroke-width="0"></polygon><path d="M86.955 352.186C86.155 352.186 85.515 351.866 85.515 351.466C85.515 351.226 85.715 351.146 86.035 350.986C86.475 350.786 87.035 350.306 87.035 349.266C87.035 348.306 86.355 347.826 85.515 347.826C84.395 347.826 83.555 348.826 83.555 350.146C83.555 351.746 84.835 353.226 87.675 353.226C91.075 353.226 93.875 351.186 93.875 348.026C93.875 347.026 93.355 346.066 92.315 345.546C92.035 345.426 91.875 345.386 91.875 345.186C91.875 344.986 92.035 344.986 92.355 344.826C94.035 344.146 95.395 342.866 95.395 341.266C95.395 339.186 93.395 337.906 90.955 337.906C88.435 337.906 86.355 339.226 86.275 341.386C86.235 342.426 86.875 343.106 87.795 343.106C88.795 343.106 89.595 342.306 89.595 341.226C89.595 340.786 89.435 340.466 89.235 340.226C88.955 339.986 88.755 339.946 88.755 339.706C88.755 339.426 89.235 339.146 90.075 339.146C91.635 339.146 92.155 340.106 92.155 340.986C92.155 343.106 90.795 344.626 88.475 344.626L88.035 344.626C87.515 344.626 87.235 344.866 87.235 345.226C87.235 345.586 87.515 345.826 88.035 345.826L88.435 345.826C89.915 345.826 90.635 346.706 90.635 347.986C90.635 349.746 89.395 352.186 86.955 352.186Z"></path></g></g></g><g><g><path d="M93.235 295.486C97.235 295.486 102.155 291.766 102.155 287.966C102.155 285.686 100.355 284.206 97.755 284.206C92.835 284.206 88.875 287.846 88.875 291.726C88.875 294.086 90.795 295.486 93.235 295.486Z"></path></g><line stroke="#000000" stroke-width="1.2" x1="89.47469119702222" x2="89.47469119702222" y1="291.6861538461538" y2="329.6861538461538"></line><path d="M98.475 304.806C99.035 306.486 99.315 308.486 99.315 310.286C99.315 312.646 98.315 316.006 97.715 317.366C96.235 320.726 94.235 323.966 88.875 325.766L88.875 335.166C88.875 335.646 89.075 335.766 89.315 335.766C90.075 335.766 90.395 335.526 90.475 334.886C91.155 331.086 94.115 327.606 96.155 324.446C98.675 320.486 101.115 315.726 101.115 310.726C101.115 307.606 100.315 304.766 99.995 303.486C99.675 302.206 97.875 303.086 98.475 304.806Z"></path></g><g><g><path d="M133.609 295.486C137.609 295.486 142.529 291.766 142.529 287.966C142.529 285.686 140.729 284.206 138.129 284.206C133.209 284.206 129.249 287.846 129.249 291.726C129.249 294.086 131.169 295.486 133.609 295.486Z"></path></g><line stroke="#000000" stroke-width="1.2" x1="129.84938239404445" x2="129.84938239404445" y1="291.6861538461538" y2="325.6861538461538"></line><path d="M138.849 300.806C139.409 302.486 139.689 304.486 139.689 306.286C139.689 308.646 138.689 312.006 138.089 313.366C136.609 316.726 134.609 319.966 129.249 321.766L129.249 331.166C129.249 331.646 129.449 331.766 129.689 331.766C130.449 331.766 130.769 331.526 130.849 330.886C131.529 327.086 134.489 323.606 136.529 320.446C139.049 316.486 141.489 311.726 141.489 306.726C141.489 303.606 140.689 300.766 140.369 299.486C140.049 298.206 138.249 299.086 138.849 300.806Z"></path></g><g><g><path d="M173.984 295.486C177.984 295.486 182.904 291.766 182.904 287.966C182.904 285.686 181.104 284.206 178.504 284.206C173.584 284.206 169.624 287.846 169.624 291.726C169.624 294.086 171.544 295.486 173.984 295.486Z"></path><g><circle cx="188.90407359106666" cy="289.8461538461538" r="2.4"></circle></g></g><line stroke="#000000" stroke-width="1.2" x1="170.22407359106666" x2="170.22407359106666" y1="291.6861538461538" y2="325.6861538461538"></line><g><polygon fill="black" points="166.22407359106666,345.00615384615384 349.53349096902724,345.00615384615384 349.53349096902724,343.4061538461538 166.22407359106666,343.4061538461538" stroke="black" stroke-width="0"></polygon><line fill="black" stroke="black" stroke-width="1.6" x1="166.72407359106666" x2="166.72407359106666" y1="343.4061538461538" y2="337.00615384615384"></line><line fill="black" stroke="black" stroke-width="1.6" x1="349.03349096902724" x2="349.03349096902724" y1="343.4061538461538" y2="337.00615384615384"></line><g><polygon fill="white" points="245.95878228004696,337.9061538461538 245.95878228004696,352.5861538461538 269.79878228004696,352.5861538461538 269.79878228004696,337.9061538461538" stroke="white" stroke-width="0"></polygon><path d="M255.359 352.186C254.559 352.186 253.919 351.866 253.919 351.466C253.919 351.226 254.119 351.146 254.439 350.986C254.879 350.786 255.439 350.306 255.439 349.266C255.439 348.306 254.759 347.826 253.919 347.826C252.799 347.826 251.959 348.826 251.959 350.146C251.959 351.746 253.239 353.226 256.079 353.226C259.479 353.226 262.279 351.186 262.279 348.026C262.279 347.026 261.759 346.066 260.719 345.546C260.439 345.426 260.279 345.386 260.279 345.186C260.279 344.986 260.439 344.986 260.759 344.826C262.439 344.146 263.799 342.866 263.799 341.266C263.799 339.186 261.799 337.906 259.359 337.906C256.839 337.906 254.759 339.226 254.679 341.386C254.639 342.426 255.279 343.106 256.199 343.106C257.199 343.106 257.999 342.306 257.999 341.226C257.999 340.786 257.839 340.466 257.639 340.226C257.359 339.986 257.159 339.946 257.159 339.706C257.159 339.426 257.639 339.146 258.479 339.146C260.039 339.146 260.559 340.106 260.559 340.986C260.559 343.106 259.199 344.626 256.879 344.626L256.439 344.626C255.919 344.626 255.639 344.866 255.639 345.226C255.639 345.586 255.919 345.826 256.439 345.826L256.839 345.826C258.319 345.826 259.039 346.706 259.039 347.986C259.039 349.746 257.799 352.186 255.359 352.186Z"></path></g></g></g><g><g><path d="M261.639 295.486C265.639 295.486 270.559 291.766 270.559 287.966C270.559 285.686 268.759 284.206 266.159 284.206C261.239 284.206 257.279 287.846 257.279 291.726C257.279 294.086 259.199 295.486 261.639 295.486Z"></path><g><circle cx="276.5587822800469" cy="289.8461538461538" r="2.4"></circle></g></g><line stroke="#000000" stroke-width="1.2" x1="257.87878228004695" x2="257.87878228004695" y1="291.6861538461538" y2="329.6861538461538"></line></g><g><g><path d="M349.293 295.486C353.293 295.486 358.213 291.766 358.213 287.966C358.213 285.686 356.413 284.206 353.813 284.206C348.893 284.206 344.933 287.846 344.933 291.726C344.933 294.086 346.853 295.486 349.293 295.486Z"></path><g><circle cx="364.21349096902725" cy="289.8461538461538" r="2.4"></circle></g></g><line stroke="#000000" stroke-width="1.2" x1="345.53349096902724" x2="345.53349096902724" y1="291.6861538461538" y2="325.6861538461538"></line></g></g><g transform="translate(543.0343535041613)"><g><g><line stroke="#6A6A6A" stroke-width="1.3" x1="-16.600000000000023" x2="394.68819965800753" y1="314.8461538461538" y2="314.8461538461538"></line><line stroke="#6A6A6A" stroke-width="1.3" x1="-16.600000000000023" x2="394.68819965800753" y1="304.8461538461538" y2="304.8461538461538"></line><line stroke="#6A6A6A" stroke-width="1.3" x1="-16.600000000000023" x2="394.68819965800753" y1="294.8461538461538" y2="294.8461538461538"></line><line stroke="#6A6A6A" stroke-width="1.3" x1="-16.600000000000023" x2="394.68819965800753" y1="284.8461538461538" y2="284.8461538461538"></line><line stroke="#6A6A6A" stroke-width="1.3" x1="-16.600000000000023" x2="394.68819965800753" y1="274.8461538461538" y2="274.8461538461538"></line></g></g><g><line stroke="#000000" stroke-width="1.6" x1="384.8881996580075" x2="384.8881996580075" y1="274.8461538461538" y2="314.8461538461538"></line><line stroke="#000000" stroke-width="5" x1="392.18819965800753" x2="392.18819965800753" y1="274.8461538461538" y2="314.8461538461538"></line></g><g><g><path d="M4.360 295.486C8.360 295.486 13.280 291.766 13.280 287.966C13.280 285.686 11.480 284.206 8.880 284.206C3.960 284.206 0 287.846 0 291.726C0 294.086 1.920 295.486 4.360 295.486Z"></path></g><line stroke="#000000" stroke-width="1.2" x1="0.6" x2="0.6" y1="291.6861538461538" y2="325.6861538461538"></line><path d="M9.600 300.806C10.160 302.486 10.440 304.486 10.440 306.286C10.440 308.646 9.440 312.006 8.840 313.366C7.360 316.726 5.360 319.966 0 321.766L0 331.166C0 331.646 0.200 331.766 0.440 331.766C1.200 331.766 1.520 331.526 1.600 330.886C2.280 327.086 5.240 323.606 7.280 320.446C9.800 316.486 12.240 311.726 12.240 306.726C12.240 303.606 11.440 300.766 11.120 299.486C10.800 298.206 9 299.086 9.600 300.806Z"></path><g><polygon fill="black" points="-3.4,345.00615384615384 85.34938239404445,345.00615384615384 85.34938239404445,343.4061538461538 -3.4,343.4061538461538" stroke="black" stroke-width="0"></polygon><line fill="black" stroke="black" stroke-width="1.6" x1="-2.9" x2="-2.9" y1="343.4061538461538" y2="337.00615384615384"></line><line fill="black" stroke="black" stroke-width="1.6" x1="84.84938239404445" x2="84.84938239404445" y1="343.4061538461538" y2="337.00615384615384"></line><g><polygon fill="white" points="28.914691197022222,338.0261538461538 28.914691197022222,352.7461538461538 53.03469119702223,352.7461538461538 53.03469119702223,338.0261538461538" stroke="white" stroke-width="0"></polygon><path d="M35.875 353.066C36.475 353.066 37.075 352.706 37.715 352.706C38.315 352.706 38.835 353.066 39.435 353.066C39.795 353.066 39.915 352.906 39.955 352.626C40.555 350.106 41.155 347.826 43.355 345.306C44.715 343.746 46.115 341.946 46.955 339.186C46.995 338.986 47.035 338.786 47.035 338.586C47.035 338.226 46.755 338.146 46.435 338.146C45.955 338.146 45.795 338.266 45.635 338.666C45.395 339.346 44.995 339.666 44.395 339.666C43.075 339.666 42.315 338.026 40.355 338.026C39.475 338.026 38.715 338.466 38.075 339.026C37.795 339.306 37.715 339.466 37.555 339.466C37.515 339.466 37.435 339.426 37.435 339.306C37.435 339.066 37.595 338.826 37.595 338.506C37.595 338.266 37.395 338.146 37.075 338.146C36.715 338.146 36.515 338.226 36.355 338.626L34.995 342.946C34.955 343.066 34.915 343.186 34.915 343.266C34.915 343.546 35.075 343.666 35.395 343.666C35.755 343.666 35.995 343.586 36.115 343.146C36.475 342.066 36.955 341.226 37.915 341.226C39.035 341.226 40.355 341.986 41.835 341.986C42.635 341.986 43.515 341.706 44.315 341.186C44.635 340.986 44.835 341.226 44.635 341.506C43.475 343.226 42.035 344.146 40.355 345.506C37.915 347.426 36.395 349.826 35.595 352.386C35.555 352.466 35.515 352.626 35.515 352.746C35.515 352.946 35.635 353.066 35.875 353.066Z"></path></g></g></g><g><g><path d="M44.735 295.486C48.735 295.486 53.655 291.766 53.655 287.966C53.655 285.686 51.855 284.206 49.255 284.206C44.335 284.206 40.375 287.846 40.375 291.726C40.375 294.086 42.295 295.486 44.735 295.486Z"></path></g><line stroke="#000000" stroke-width="1.2" x1="40.97469119702223" x2="40.97469119702223" y1="291.6861538461538" y2="329.6861538461538"></line><path d="M49.975 304.806C50.535 306.486 50.815 308.486 50.815 310.286C50.815 312.646 49.815 316.006 49.215 317.366C47.735 320.726 45.735 323.966 40.375 325.766L40.375 335.166C40.375 335.646 40.575 335.766 40.815 335.766C41.575 335.766 41.895 335.526 41.975 334.886C42.655 331.086 45.615 327.606 47.655 324.446C50.175 320.486 52.615 315.726 52.615 310.726C52.615 307.606 51.815 304.766 51.495 303.486C51.175 302.206 49.375 303.086 49.975 304.806Z"></path></g><g><g><path d="M85.109 295.486C89.109 295.486 94.029 291.766 94.029 287.966C94.029 285.686 92.229 284.206 89.629 284.206C84.709 284.206 80.749 287.846 80.749 291.726C80.749 294.086 82.669 295.486 85.109 295.486Z"></path></g><line stroke="#000000" stroke-width="1.2" x1="81.34938239404445" x2="81.34938239404445" y1="291.6861538461538" y2="325.6861538461538"></line><path d="M90.349 300.806C90.909 302.486 91.189 304.486 91.189 306.286C91.189 308.646 90.189 312.006 89.589 313.366C88.109 316.726 86.109 319.966 80.749 321.766L80.749 331.166C80.749 331.646 80.949 331.766 81.189 331.766C81.949 331.766 82.269 331.526 82.349 330.886C83.029 327.086 85.989 323.606 88.029 320.446C90.549 316.486 92.989 311.726 92.989 306.726C92.989 303.606 92.189 300.766 91.869 299.486C91.549 298.206 89.749 299.086 90.349 300.806Z"></path></g><g><g><path d="M125.484 295.486C129.484 295.486 134.404 291.766 134.404 287.966C134.404 285.686 132.604 284.206 130.004 284.206C125.084 284.206 121.124 287.846 121.124 291.726C121.124 294.086 123.044 295.486 125.484 295.486Z"></path><g><circle cx="140.4040735910667" cy="289.8461538461538" r="2.4"></circle></g></g><line stroke="#000000" stroke-width="1.2" x1="121.72407359106668" x2="121.72407359106668" y1="291.6861538461538" y2="325.6861538461538"></line><g><polygon fill="black" points="117.72407359106668,345.00615384615384 301.03349096902724,345.00615384615384 301.03349096902724,343.4061538461538 117.72407359106668,343.4061538461538" stroke="black" stroke-width="0"></polygon><line fill="black" stroke="black" stroke-width="1.6" x1="118.22407359106668" x2="118.22407359106668" y1="343.4061538461538" y2="337.00615384615384"></line><line fill="black" stroke="black" stroke-width="1.6" x1="300.53349096902724" x2="300.53349096902724" y1="343.4061538461538" y2="337.00615384615384"></line><g><polygon fill="white" points="197.31878228004695,338.0261538461538 197.31878228004695,352.7461538461538 221.43878228004695,352.7461538461538 221.43878228004695,338.0261538461538" stroke="white" stroke-width="0"></polygon><path d="M204.279 353.066C204.879 353.066 205.479 352.706 206.119 352.706C206.719 352.706 207.239 353.066 207.839 353.066C208.199 353.066 208.319 352.906 208.359 352.626C208.959 350.106 209.559 347.826 211.759 345.306C213.119 343.746 214.519 341.946 215.359 339.186C215.399 338.986 215.439 338.786 215.439 338.586C215.439 338.226 215.159 338.146 214.839 338.146C214.359 338.146 214.199 338.266 214.039 338.666C213.799 339.346 213.399 339.666 212.799 339.666C211.479 339.666 210.719 338.026 208.759 338.026C207.879 338.026 207.119 338.466 206.479 339.026C206.199 339.306 206.119 339.466 205.959 339.466C205.919 339.466 205.839 339.426 205.839 339.306C205.839 339.066 205.999 338.826 205.999 338.506C205.999 338.266 205.799 338.146 205.479 338.146C205.119 338.146 204.919 338.226 204.759 338.626L203.399 342.946C203.359 343.066 203.319 343.186 203.319 343.266C203.319 343.546 203.479 343.666 203.799 343.666C204.159 343.666 204.399 343.586 204.519 343.146C204.879 342.066 205.359 341.226 206.319 341.226C207.439 341.226 208.759 341.986 210.239 341.986C211.039 341.986 211.919 341.706 212.719 341.186C213.039 340.986 213.239 341.226 213.039 341.506C211.879 343.226 210.439 344.146 208.759 345.506C206.319 347.426 204.799 349.826 203.999 352.386C203.959 352.466 203.919 352.626 203.919 352.746C203.919 352.946 204.039 353.066 204.279 353.066Z"></path></g></g></g><g><g><path d="M213.139 295.486C217.139 295.486 222.059 291.766 222.059 287.966C222.059 285.686 220.259 284.206 217.659 284.206C212.739 284.206 208.779 287.846 208.779 291.726C208.779 294.086 210.699 295.486 213.139 295.486Z"></path><g><circle cx="228.05878228004696" cy="289.8461538461538" r="2.4"></circle></g></g><line stroke="#000000" stroke-width="1.2" x1="209.37878228004695" x2="209.37878228004695" y1="291.6861538461538" y2="329.6861538461538"></line></g><g><g><path d="M300.793 295.486C304.793 295.486 309.713 291.766 309.713 287.966C309.713 285.686 307.913 284.206 305.313 284.206C300.393 284.206 296.433 287.846 296.433 291.726C296.433 294.086 298.353 295.486 300.793 295.486Z"></path><g><circle cx="315.71349096902725" cy="289.8461538461538" r="2.4"></circle></g></g><line stroke="#000000" stroke-width="1.2" x1="297.03349096902724" x2="297.03349096902724" y1="291.6861538461538" y2="325.6861538461538"></line></g></g></svg>