<?xml version="1.0" encoding="UTF-8" standalone="no"?><svg xmlns="http://www.w3.org/2000/svg" height="279.4mm" viewBox="0 0 1328.6153846153845 1719.3846153846152" width="215.9mm"><g transform="translate(163.84615384615387)"><g><g><line stroke="#6A6A6A" stroke-width="1.3" x1="0" x2="377.5397348331239" y1="183.8461538461538" y2="183.8461538461538"></line><line stroke="#6A6A6A" stroke-width="1.3" x1="0" x2="377.5397348331239" y1="173.8461538461538" y2="173.8461538461538"></line><line stroke="#6A6A6A" stroke-width="1.3" x1="0" x2="377.5397348331239" y1="163.8461538461538" y2="163.8461538461538"></line><line stroke="#6A6A6A" stroke-width="1.3" x1="0" x2="377.5397348331239" y1="153.8461538461538" y2="153.8461538461538"></line><line stroke="#6A6A6A" stroke-width="1.3" x1="0" x2="377.5397348331239" y1="143.8461538461538" y2="143.8461538461538"></line></g><g><path d="M25.200 129.926C24.640 129.926 23.400 130.966 22.600 131.846C19.640 135.126 18.680 140.126 18.680 144.286C18.680 146.606 18.960 149.206 19.240 150.846C19.320 151.326 19.360 151.406 18.880 151.806C16.320 153.926 13.560 156.366 11.480 158.926C8.720 162.366 7 166.086 7 170.366C7 177.326 11.760 183.926 21.560 183.926C22.480 183.926 23.520 183.846 24.320 183.686C24.760 183.606 24.840 183.566 24.920 184.046C25.400 186.726 26 190.206 26 192.086C26 198.006 22 198.726 19.640 198.726C17.480 198.726 16.440 198.086 16.440 197.566C16.440 197.126 16.800 197.166 17.720 196.886C18.960 196.526 20.400 195.446 20.400 193.126C20.400 190.926 19 189.046 16.560 189.046C13.880 189.046 12.280 191.166 12.280 193.646C12.280 196.246 13.840 200.166 19.880 200.166C22.560 200.166 27.760 198.966 27.760 192.166C27.760 189.886 27.040 186.086 26.600 183.606C26.520 183.126 26.560 183.166 27.120 182.926C31.160 181.326 33.840 177.926 33.840 173.406C33.840 168.286 30.080 163.766 24.200 163.766C23.080 163.766 23.200 163.966 23.040 163.046L22.040 157.246C21.960 156.766 22.040 156.726 22.280 156.486C22.920 155.886 23.760 155.046 24.520 154.206C27.880 150.526 29.880 145.766 29.880 141.246C29.880 137.766 28.920 134.326 27.280 131.926C26.680 131.046 25.640 129.926 25.200 129.926ZM20.040 158.086C20.440 157.766 20.520 157.806 20.600 158.246L21.440 163.366C21.560 164.126 21.560 164.086 20.840 164.326C17.320 165.526 15.040 168.686 15.040 172.086C15.040 175.686 16.920 178.246 19.640 179.166C19.960 179.286 20.440 179.406 20.720 179.406C21.040 179.406 21.200 179.206 21.200 178.966C21.200 178.686 20.880 178.566 20.600 178.446C18.920 177.726 17.720 176.006 17.720 174.166C17.720 171.886 19.280 170.166 21.720 169.486C22.360 169.326 22.440 169.366 22.520 169.806L24.520 181.726C24.600 182.166 24.560 182.166 23.960 182.286C23.320 182.406 22.520 182.486 21.720 182.486C14.720 182.486 10.200 178.606 10.200 173.046C10.200 170.686 10.600 167.526 13.920 163.766C16.320 161.086 18.160 159.606 20.040 158.086ZM24.640 169.166C27.880 169.446 30.560 172.166 30.560 175.686C30.560 178.206 29.040 180.246 26.800 181.366C26.320 181.606 26.240 181.606 26.160 181.126L24.200 169.726C24.120 169.246 24.160 169.126 24.640 169.166ZM25.800 136.126C27.120 136.126 28.200 137.206 28.200 139.406C28.200 142.166 26.880 144.726 23.760 147.846C23.120 148.486 22.160 149.406 21.240 150.206C20.960 150.446 20.800 150.406 20.720 149.886C20.560 148.846 20.480 147.486 20.480 146.206C20.480 139.966 23.360 136.126 25.800 136.126Z"></path></g><g></g></g><path d="M187.599 212.926C186.599 212.926 185.719 213.566 185.119 214.326L184.959 214.526C184.439 215.126 183.839 215.846 183.479 216.526C183.199 217.006 182.759 217.566 182.559 218.046C182.519 218.126 182.519 218.206 182.519 218.246C182.519 218.406 182.639 218.526 182.759 218.606C182.799 218.646 182.879 218.646 182.919 218.646C183.079 218.646 183.239 218.566 183.479 218.206C184.119 217.326 184.599 216.446 185.159 215.766C185.959 214.806 186.599 214.246 186.919 214.246C187.239 214.246 187.359 214.526 187.359 214.886C187.359 215.526 187.079 216.366 186.999 216.526C186.279 218.606 184.719 221.926 184.199 223.086C184.079 223.326 184.039 223.486 184.039 223.606C184.039 223.806 184.239 223.846 184.679 223.846L186.239 223.846C186.759 223.846 186.799 223.646 187.079 223.166C188.279 220.926 189.119 218.606 190.279 216.446C190.479 216.126 190.599 215.726 191.279 215.726C191.879 215.726 191.879 216.246 191.879 216.446C191.879 216.806 189.519 222.526 189.279 223.086C189.199 223.286 189.159 223.446 189.159 223.566C189.159 223.806 189.319 223.846 189.519 223.846L191.519 223.846C191.879 223.846 191.999 223.726 192.279 223.166C192.559 222.646 194.439 217.646 195.159 216.286C195.479 215.726 195.639 215.646 196.079 215.646C196.519 215.646 196.679 215.966 196.679 216.246C196.679 216.366 196.639 216.486 196.599 216.566C196.559 216.846 196.439 217.086 196.359 217.366C196.039 218.326 195.679 219.286 195.359 220.286L194.879 221.606C194.759 221.926 194.639 222.286 194.639 222.646C194.639 222.766 194.639 222.926 194.679 223.046C194.999 223.926 195.959 224.286 196.799 224.286C198.919 224.286 200.959 220.646 201.159 220.166C201.239 220.006 201.279 219.846 201.279 219.726C201.279 219.526 201.119 219.406 200.999 219.406C200.839 219.446 200.679 219.486 200.399 219.886C200.239 220.166 199.479 221.246 199.319 221.446C199.079 221.806 198.439 222.566 198.079 222.566C197.879 222.486 197.759 222.366 197.759 222.206C197.759 222.006 197.839 221.766 197.919 221.526C197.919 221.526 197.999 221.326 198.039 221.246C198.479 220.166 199.919 216.446 199.919 215.046C199.919 213.486 198.759 212.926 197.559 212.926C196.279 212.926 195.439 214.326 195.039 214.326C194.679 214.326 194.479 212.926 192.839 212.926C191.319 212.926 190.279 214.406 189.919 214.406C189.479 214.406 189.239 212.926 187.599 212.926ZM196.639 225.886C196.439 225.886 196.279 225.926 196.159 225.966C195.799 226.086 195.399 226.326 195.159 226.606C194.759 227.086 194.519 227.766 194.519 228.406C194.519 229.126 194.759 229.806 195.239 230.286C195.479 230.526 195.839 230.766 196.119 230.886C196.519 231.006 196.999 231.086 197.439 231.086C198.599 231.086 199.759 230.606 200.719 229.966C201.959 229.166 202.879 228.046 203.719 226.726C204.319 225.806 204.719 224.806 205.159 223.806L205.319 223.486C205.759 222.486 206.119 221.446 206.479 220.446L207.319 218.126C207.599 217.366 207.879 216.526 208.239 215.806C208.759 214.806 208.759 214.806 210.119 214.806C211.759 214.806 211.759 214.806 211.759 214.806C212.519 214.806 212.519 214.766 212.519 213.886C212.519 213.046 212.519 213.046 211.799 213.046C210.439 213.046 210.439 213.046 210.439 213.046C209.559 213.046 209.199 213.046 209.199 212.646C209.199 212.406 209.319 211.966 209.559 211.326C210.319 209.286 210.959 207.566 213.399 207.446L213.559 207.446C213.719 207.446 213.879 207.486 213.919 207.686C213.919 207.966 213.919 208.086 213.799 208.166C213.679 208.286 213.479 208.326 213.359 208.366C212.999 208.526 212.759 208.806 212.599 209.086C212.359 209.406 212.239 209.806 212.239 210.206C212.239 211.366 212.839 211.686 213.719 211.686C214.559 211.686 215.879 210.446 215.959 208.966C215.959 207.406 214.959 206.246 212.959 206.166L212.719 206.166C210.439 206.166 208.799 207.086 207.559 208.326C206.239 209.686 205.639 210.646 205.039 212.086C204.679 213.006 204.559 213.046 203.679 213.046L201.799 213.046C200.799 213.046 200.719 213.166 200.719 213.886C200.719 214.806 200.719 214.806 201.439 214.806C202.799 214.806 202.799 214.806 202.799 214.806C203.279 214.806 203.479 214.806 203.479 215.166C203.479 215.406 203.359 215.886 203.119 216.766C203.039 217.086 200.639 225.966 200.399 226.606C200.039 227.526 199.399 228.446 198.639 229.086C198.439 229.246 198.239 229.406 197.959 229.486C197.799 229.566 197.639 229.566 197.519 229.566C197.159 229.566 196.959 229.446 196.919 229.446C197.479 229.326 197.839 228.966 197.959 228.886C198.199 228.606 198.399 228.166 198.399 227.766C198.399 227.166 198.159 226.446 197.639 226.166C197.359 226.006 196.999 225.886 196.639 225.886Z"></path><g><line stroke="black" stroke-width="1.6" x1="378.3397348331239" x2="378.3397348331239" y1="143.8461538461538" y2="183.8461538461538"></line></g><g><g><path d="M52.980 154.646C60.620 154.646 62.140 148.446 62.140 146.926C62.140 144.566 60.260 143.046 57.580 143.046C50.660 143.046 48.500 148.406 48.500 150.806C48.500 153.246 50.460 154.646 52.980 154.646ZM56.500 150.966C54.420 152.366 52.980 152.846 51.980 152.846C51.020 152.846 50.460 152.366 50.140 151.806C49.980 151.526 49.860 151.206 49.860 150.886C49.860 149.886 50.860 148.606 54.060 146.766C56.340 145.446 57.780 144.966 58.740 144.966C59.620 144.966 60.100 145.366 60.420 145.926C60.580 146.206 60.700 146.486 60.700 146.806C60.700 147.726 59.740 148.846 56.500 150.966Z"></path></g><line stroke="#000000" stroke-width="1.2" x1="49.1" x2="49.1" y1="150.80615384615382" y2="185.80615384615382"></line><g><path d="M48.840 167.566C48.960 167.526 61.080 163.446 61.080 163.446C61.600 163.326 61.600 163.046 61.600 162.726C61.600 162.406 61.600 162.166 61.080 162.006L49.080 157.926C48.920 157.886 48.840 157.846 48.720 157.846C48.360 157.846 48.240 158.086 48.120 158.406C48.080 158.566 48.040 158.686 48.040 158.806C48.040 159.006 48.160 159.206 48.600 159.366C48.600 159.366 57.240 162.286 57.640 162.446C57.840 162.486 57.920 162.606 57.920 162.726C57.920 162.846 57.840 162.926 57.600 163.006C57.160 163.126 48.600 166.046 48.600 166.046C48.160 166.246 48.040 166.446 48.040 166.646C48.040 166.766 48.080 166.886 48.120 167.006C48.240 167.286 48.400 167.606 48.680 167.606C48.720 167.606 48.800 167.606 48.840 167.566Z"></path><path d="M69.640 101.946C69.640 100.786 68.640 99.786 67.440 99.786C66.280 99.786 65.280 100.786 65.280 101.946C65.280 103.146 66.280 104.146 67.440 104.146C68.640 104.146 69.640 103.146 69.640 101.946ZM67.400 95.186C75.920 95.186 77.640 101.506 78.040 103.026C78.080 103.146 78.080 103.266 78.120 103.306C78.400 103.866 78.480 104.146 78.960 104.146C79.320 104.146 79.520 103.986 79.520 103.586C79.520 103.466 79.520 103.346 79.480 103.186C77 90.946 68.640 90.866 67.480 90.866C66.200 90.866 57.920 90.946 55.480 103.186C55.440 103.346 55.440 103.506 55.440 103.626C55.440 104.026 55.640 104.146 55.960 104.146C56.320 104.146 56.520 103.866 56.760 103.306C56.800 103.266 56.840 103.106 56.880 102.946C57.360 101.306 59.080 95.186 67.400 95.186Z"></path></g><text font-family="Alegreya" font-size="22" text-anchor="middle" x="55.32" y="223.8461538461538">This</text></g><g><g><path d="M188.399 159.486C192.399 159.486 197.319 155.766 197.319 151.966C197.319 149.686 195.519 148.206 192.919 148.206C187.999 148.206 184.039 151.846 184.039 155.726C184.039 158.086 185.959 159.486 188.399 159.486Z"></path></g><line stroke="#000000" stroke-width="1.2" x1="184.63937630790528" x2="184.63937630790528" y1="155.68615384615381" y2="190.68615384615381"></line><text font-family="Alegreya" font-size="22" text-anchor="middle" x="190.67937630790527" y="223.8461538461538">is</text></g><g><g><path d="M285.150 169.486C289.150 169.486 294.070 165.766 294.070 161.966C294.070 159.686 292.270 158.206 289.670 158.206C284.750 158.206 280.790 161.846 280.790 165.726C280.790 168.086 282.710 169.486 285.150 169.486Z"></path></g><line stroke="#000000" stroke-width="1.2" x1="281.38955557051463" x2="281.38955557051463" y1="165.68615384615381" y2="200.68615384615381"></line><text font-family="Alegreya" font-size="22" text-anchor="middle" x="287.4295555705146" y="223.8461538461538">the</text></g><g><g><path d="M52.980 164.646C60.620 164.646 62.140 158.446 62.140 156.926C62.140 154.566 60.260 153.046 57.580 153.046C50.660 153.046 48.500 158.406 48.500 160.806C48.500 163.246 50.460 164.646 52.980 164.646ZM56.500 160.966C54.420 162.366 52.980 162.846 51.980 162.846C51.020 162.846 50.460 162.366 50.140 161.806C49.980 161.526 49.860 161.206 49.860 160.886C49.860 159.886 50.860 158.606 54.060 156.766C56.340 155.446 57.780 154.966 58.740 154.966C59.620 154.966 60.100 155.366 60.420 155.926C60.580 156.206 60.700 156.486 60.700 156.806C60.700 157.726 59.740 158.846 56.500 160.966Z"></path></g><line stroke="#000000" stroke-width="1.2" x1="49.1" x2="49.1" y1="160.80615384615382" y2="195.80615384615382"></line><g><path d="M48.840 145.566C48.960 145.526 61.080 141.446 61.080 141.446C61.600 141.326 61.600 141.046 61.600 140.726C61.600 140.406 61.600 140.166 61.080 140.006L49.080 135.926C48.920 135.886 48.840 135.846 48.720 135.846C48.360 135.846 48.240 136.086 48.120 136.406C48.080 136.566 48.040 136.686 48.040 136.806C48.040 137.006 48.160 137.206 48.600 137.366C48.600 137.366 57.240 140.286 57.640 140.446C57.840 140.486 57.920 140.606 57.920 140.726C57.920 140.846 57.840 140.926 57.600 141.006C57.160 141.126 48.600 144.046 48.600 144.046C48.160 144.246 48.040 144.446 48.040 144.646C48.040 144.766 48.080 144.886 48.120 145.006C48.240 145.286 48.400 145.606 48.680 145.606C48.720 145.606 48.800 145.606 48.840 145.566Z"></path><path d="M69.640 101.946C69.640 100.786 68.640 99.786 67.440 99.786C66.280 99.786 65.280 100.786 65.280 101.946C65.280 103.146 66.280 104.146 67.440 104.146C68.640 104.146 69.640 103.146 69.640 101.946ZM67.400 95.186C75.920 95.186 77.640 101.506 78.040 103.026C78.080 103.146 78.080 103.266 78.120 103.306C78.400 103.866 78.480 104.146 78.960 104.146C79.320 104.146 79.520 103.986 79.520 103.586C79.520 103.466 79.520 103.346 79.480 103.186C77 90.946 68.640 90.866 67.480 90.866C66.200 90.866 57.920 90.946 55.480 103.186C55.440 103.346 55.440 103.506 55.440 103.626C55.440 104.026 55.640 104.146 55.960 104.146C56.320 104.146 56.520 103.866 56.760 103.306C56.800 103.266 56.840 103.106 56.880 102.946C57.360 101.306 59.080 95.186 67.400 95.186Z"></path></g><text font-family="Alegreya" font-size="22" text-anchor="middle" x="55.32" y="223.8461538461538">This</text></g><g><g><path d="M188.399 169.486C192.399 169.486 197.319 165.766 197.319 161.966C197.319 159.686 195.519 158.206 192.919 158.206C187.999 158.206 184.039 161.846 184.039 165.726C184.039 168.086 185.959 169.486 188.399 169.486Z"></path></g><line stroke="#000000" stroke-width="1.2" x1="184.63937630790528" x2="184.63937630790528" y1="165.68615384615381" y2="200.68615384615381"></line><text font-family="Alegreya" font-size="22" text-anchor="middle" x="190.67937630790527" y="223.8461538461538">is</text></g><g><g><path d="M285.150 179.486C289.150 179.486 294.070 175.766 294.070 171.966C294.070 169.686 292.270 168.206 289.670 168.206C284.750 168.206 280.790 171.846 280.790 175.726C280.790 178.086 282.710 179.486 285.150 179.486Z"></path></g><line stroke="#000000" stroke-width="1.2" x1="293.4695555705146" x2="293.4695555705146" y1="172.0061538461538" y2="137.0061538461538"></line><text font-family="Alegreya" font-size="22" text-anchor="middle" x="287.4295555705146" y="223.8461538461538">the</text></g></g><g transform="translate(557.9858886792778)"><g><g><line stroke="#6A6A6A" stroke-width="1.3" x1="-16.599999999999966" x2="772.0034914194466" y1="183.8461538461538" y2="183.8461538461538"></line><line stroke="#6A6A6A" stroke-width="1.3" x1="-16.599999999999966" x2="772.0034914194466" y1="173.8461538461538" y2="173.8461538461538"></line><line stroke="#6A6A6A" stroke-width="1.3" x1="-16.599999999999966" x2="772.0034914194466" y1="163.8461538461538" y2="163.8461538461538"></line><line stroke="#6A6A6A" stroke-width="1.3" x1="-16.599999999999966" x2="772.0034914194466" y1="153.8461538461538" y2="153.8461538461538"></line><line stroke="#6A6A6A" stroke-width="1.3" x1="-16.599999999999966" x2="772.0034914194466" y1="143.8461538461538" y2="143.8461538461538"></line></g></g><g><line stroke="black" stroke-width="1.6" x1="377.7017457097233" x2="377.7017457097233" y1="143.8461538461538" y2="183.8461538461538"></line></g><g><path d="M9.320 140.286C7.800 138.446 6.560 136.966 6.560 134.726C6.560 134.566 6.600 134.366 6.600 134.206C6.760 131.886 8.200 129.966 9.240 128.326C9.360 128.126 9.400 127.926 9.400 127.726C9.400 127.326 9.240 126.966 9.240 126.966C9.240 126.966 3.320 119.926 2.640 119.246C2.440 119.046 2.160 118.926 1.920 118.926C1.520 118.926 1.120 119.206 1.120 119.766C1.120 119.966 1.160 120.166 1.280 120.406C1.440 120.846 3.720 122.886 3.720 125.766C3.720 127.246 3.120 128.966 1.320 130.846C0.920 131.246 0.760 131.686 0.760 132.006C0.760 132.566 1.160 132.966 1.160 132.966L3.120 135.366C3.760 136.166 4.320 136.926 4.840 137.766C4.920 137.926 5.080 138.126 5.080 138.326C5.080 138.366 5.080 138.446 5.040 138.486C4.960 138.646 4.800 138.686 4.600 138.686C4.360 138.686 4.120 138.606 3.960 138.566C3.760 138.566 3.520 138.446 3.320 138.446C1.600 138.446 0.040 140.166 0.040 142.286C0.040 144.286 1.760 146.246 4.680 148.486C5 148.726 5.400 148.846 5.720 148.846C6 148.846 6.280 148.766 6.320 148.606C6.360 148.486 6.400 148.406 6.400 148.326C6.400 147.966 6.080 147.646 5.760 147.366C5.240 147.366 4.800 146.286 4.720 145.926C4.600 145.606 4.560 145.246 4.560 144.886C4.560 143.646 5.160 142.246 6.440 142.006C6.640 141.966 6.840 141.966 7.080 141.966C8.240 141.966 9.560 142.406 10.200 142.646C10.240 142.646 10.280 142.686 10.320 142.686C10.440 142.726 10.520 142.726 10.600 142.726C10.720 142.726 10.800 142.686 10.800 142.566C10.800 142.086 9.760 140.766 9.320 140.286Z"></path></g><g><g><path d="M101.110 159.486C105.110 159.486 110.030 155.766 110.030 151.966C110.030 149.686 108.230 148.206 105.630 148.206C100.710 148.206 96.750 151.846 96.750 155.726C96.750 158.086 98.670 159.486 101.110 159.486Z"></path></g><line stroke="#000000" stroke-width="1.2" x1="97.35017926260929" x2="97.35017926260929" y1="155.68615384615381" y2="190.68615384615381"></line><text font-family="Alegreya" font-size="22" text-anchor="middle" x="103.3901792626093" y="223.8461538461538">lyrics</text></g><g><g><path d="M197.860 204.486C201.860 204.486 206.780 200.766 206.780 196.966C206.780 194.686 204.980 193.206 202.380 193.206C197.460 193.206 193.500 196.846 193.500 200.726C193.500 203.086 195.420 204.486 197.860 204.486Z"></path><g><circle cx="212.7803585252186" cy="198.8461538461538" fill="#000000" r="2.4"></circle></g></g><line stroke="#000000" stroke-width="1.2" x1="206.1803585252186" x2="206.1803585252186" y1="197.0061538461538" y2="162.0061538461538"></line><line stroke="#000000" stroke-width="2.2" x1="190.3003585252186" x2="212.2203585252186" y1="193.8461538461538" y2="193.8461538461538"></line><text font-family="Alegreya" font-size="22" text-anchor="middle" x="200.14035852521857" y="223.8461538461538">of</text></g><g><g><path d="M323.301 164.486C327.301 164.486 332.221 160.766 332.221 156.966C332.221 154.686 330.421 153.206 327.821 153.206C322.901 153.206 318.941 156.846 318.941 160.726C318.941 163.086 320.861 164.486 323.301 164.486Z"></path></g><line stroke="#000000" stroke-width="1.2" x1="319.54076349240995" x2="319.54076349240995" y1="160.68615384615381" y2="195.68615384615381"></line><path d="M328.541 163.806C329.101 165.486 329.381 167.486 329.381 169.286C329.381 171.646 328.381 175.006 327.781 176.366C326.301 179.726 324.301 182.966 318.941 184.766L318.941 194.166C318.941 194.646 319.141 194.766 319.381 194.766C320.141 194.766 320.461 194.526 320.541 193.886C321.221 190.086 324.181 186.606 326.221 183.446C328.741 179.486 331.181 174.726 331.181 169.726C331.181 166.606 330.381 163.766 330.061 162.486C329.741 161.206 327.941 162.086 328.541 163.806Z"></path><text font-family="Alegreya" font-size="22" text-anchor="middle" x="325.5807634924099" y="223.8461538461538">Voice1</text></g></g><g transform="translate(951.487634389001)"><g></g><g><line stroke="black" stroke-width="1.6" x1="377.7017457097233" x2="377.7017457097233" y1="143.8461538461538" y2="183.8461538461538"></line></g><g><path d="M9.320 200.286C7.800 198.446 6.560 196.966 6.560 194.726C6.560 194.566 6.600 194.366 6.600 194.206C6.760 191.886 8.200 189.966 9.240 188.326C9.360 188.126 9.400 187.926 9.400 187.726C9.400 187.326 9.240 186.966 9.240 186.966C9.240 186.966 3.320 179.926 2.640 179.246C2.440 179.046 2.160 178.926 1.920 178.926C1.520 178.926 1.120 179.206 1.120 179.766C1.120 179.966 1.160 180.166 1.280 180.406C1.440 180.846 3.720 182.886 3.720 185.766C3.720 187.246 3.120 188.966 1.320 190.846C0.920 191.246 0.760 191.686 0.760 192.006C0.760 192.566 1.160 192.966 1.160 192.966L3.120 195.366C3.760 196.166 4.320 196.926 4.840 197.766C4.920 197.926 5.080 198.126 5.080 198.326C5.080 198.366 5.080 198.446 5.040 198.486C4.960 198.646 4.800 198.686 4.600 198.686C4.360 198.686 4.120 198.606 3.960 198.566C3.760 198.566 3.520 198.446 3.320 198.446C1.600 198.446 0.040 200.166 0.040 202.286C0.040 204.286 1.760 206.246 4.680 208.486C5 208.726 5.400 208.846 5.720 208.846C6 208.846 6.280 208.766 6.320 208.606C6.360 208.486 6.400 208.406 6.400 208.326C6.400 207.966 6.080 207.646 5.760 207.366C5.240 207.366 4.800 206.286 4.720 205.926C4.600 205.606 4.560 205.246 4.560 204.886C4.560 203.646 5.160 202.246 6.440 202.006C6.640 201.966 6.840 201.966 7.080 201.966C8.240 201.966 9.560 202.406 10.200 202.646C10.240 202.646 10.280 202.686 10.320 202.686C10.440 202.726 10.520 202.726 10.600 202.726C10.720 202.726 10.800 202.686 10.800 202.566C10.800 202.086 9.760 200.766 9.320 200.286Z"></path></g><g><g><path d="M101.110 169.486C105.110 169.486 110.030 165.766 110.030 161.966C110.030 159.686 108.230 158.206 105.630 158.206C100.710 158.206 96.750 161.846 96.750 165.726C96.750 168.086 98.670 169.486 101.110 169.486Z"></path></g><line stroke="#000000" stroke-width="1.2" x1="109.4301792626093" x2="109.4301792626093" y1="162.0061538461538" y2="127.00615384615381"></line><text font-family="Alegreya" font-size="22" text-anchor="middle" x="103.3901792626093" y="223.8461538461538">lyrics</text></g><g><g><path d="M197.860 214.486C201.860 214.486 206.780 210.766 206.780 206.966C206.780 204.686 204.980 203.206 202.380 203.206C197.460 203.206 193.500 206.846 193.500 210.726C193.500 213.086 195.420 214.486 197.860 214.486Z"></path><g><circle cx="212.7803585252186" cy="208.8461538461538" fill="#000000" r="2.4"></circle></g></g><line stroke="#000000" stroke-width="1.2" x1="206.1803585252186" x2="206.1803585252186" y1="207.0061538461538" y2="162.0061538461538"></line><line stroke="#000000" stroke-width="2.2" x1="190.3003585252186" x2="212.2203585252186" y1="193.8461538461538" y2="193.8461538461538"></line><line stroke="#000000" stroke-width="2.2" x1="190.3003585252186" x2="212.2203585252186" y1="203.8461538461538" y2="203.8461538461538"></line><text font-family="Alegreya" font-size="22" text-anchor="middle" x="200.14035852521857" y="223.8461538461538">of</text></g><g><g><path d="M323.301 174.486C327.301 174.486 332.221 170.766 332.221 166.966C332.221 164.686 330.421 163.206 327.821 163.206C322.901 163.206 318.941 166.846 318.941 170.726C318.941 173.086 320.861 174.486 323.301 174.486Z"></path></g><line stroke="#000000" stroke-width="1.2" x1="331.62076349240994" x2="331.62076349240994" y1="167.0061538461538" y2="132.0061538461538"></line><path d="M340.541 165.086C340.541 165.086 341.581 161.286 341.581 158.166C341.581 153.166 339.501 148.446 336.981 144.446C334.941 141.286 333.261 137.846 332.621 134.006C332.501 133.366 332.181 133.126 331.421 133.126C331.181 133.126 331.021 133.246 331.021 133.726L331.021 143.286C333.661 143.766 337.461 149.206 338.901 152.606C339.501 153.966 339.861 156.246 339.861 158.606C339.861 160.406 339.581 162.286 338.901 164.086C338.821 164.326 338.781 164.526 338.781 164.686C338.781 165.326 339.181 165.686 339.421 165.846C339.661 166.006 340.341 165.766 340.541 165.086Z"></path><text font-family="Alegreya" font-size="22" text-anchor="middle" x="325.5807634924099" y="223.8461538461538">Voice1</text></g></g><g transform="translate(93.84615384615385)"><g><g><line stroke="#6A6A6A" stroke-width="1.3" x1="0" x2="523.9088585484253" y1="334.8461538461538" y2="334.8461538461538"></line><line stroke="#6A6A6A" stroke-width="1.3" x1="0" x2="523.9088585484253" y1="324.8461538461538" y2="324.8461538461538"></line><line stroke="#6A6A6A" stroke-width="1.3" x1="0" x2="523.9088585484253" y1="314.8461538461538" y2="314.8461538461538"></line><line stroke="#6A6A6A" stroke-width="1.3" x1="0" x2="523.9088585484253" y1="304.8461538461538" y2="304.8461538461538"></line><line stroke="#6A6A6A" stroke-width="1.3" x1="0" x2="523.9088585484253" y1="294.8461538461538" y2="294.8461538461538"></line></g><g><path d="M25.200 280.926C24.640 280.926 23.400 281.966 22.600 282.846C19.640 286.126 18.680 291.126 18.680 295.286C18.680 297.606 18.960 300.206 19.240 301.846C19.320 302.326 19.360 302.406 18.880 302.806C16.320 304.926 13.560 307.366 11.480 309.926C8.720 313.366 7 317.086 7 321.366C7 328.326 11.760 334.926 21.560 334.926C22.480 334.926 23.520 334.846 24.320 334.686C24.760 334.606 24.840 334.566 24.920 335.046C25.400 337.726 26 341.206 26 343.086C26 349.006 22 349.726 19.640 349.726C17.480 349.726 16.440 349.086 16.440 348.566C16.440 348.126 16.800 348.166 17.720 347.886C18.960 347.526 20.400 346.446 20.400 344.126C20.400 341.926 19 340.046 16.560 340.046C13.880 340.046 12.280 342.166 12.280 344.646C12.280 347.246 13.840 351.166 19.880 351.166C22.560 351.166 27.760 349.966 27.760 343.166C27.760 340.886 27.040 337.086 26.600 334.606C26.520 334.126 26.560 334.166 27.120 333.926C31.160 332.326 33.840 328.926 33.840 324.406C33.840 319.286 30.080 314.766 24.200 314.766C23.080 314.766 23.200 314.966 23.040 314.046L22.040 308.246C21.960 307.766 22.040 307.726 22.280 307.486C22.920 306.886 23.760 306.046 24.520 305.206C27.880 301.526 29.880 296.766 29.880 292.246C29.880 288.766 28.920 285.326 27.280 282.926C26.680 282.046 25.640 280.926 25.200 280.926ZM20.040 309.086C20.440 308.766 20.520 308.806 20.600 309.246L21.440 314.366C21.560 315.126 21.560 315.086 20.840 315.326C17.320 316.526 15.040 319.686 15.040 323.086C15.040 326.686 16.920 329.246 19.640 330.166C19.960 330.286 20.440 330.406 20.720 330.406C21.040 330.406 21.200 330.206 21.200 329.966C21.200 329.686 20.880 329.566 20.600 329.446C18.920 328.726 17.720 327.006 17.720 325.166C17.720 322.886 19.280 321.166 21.720 320.486C22.360 320.326 22.440 320.366 22.520 320.806L24.520 332.726C24.600 333.166 24.560 333.166 23.960 333.286C23.320 333.406 22.520 333.486 21.720 333.486C14.720 333.486 10.200 329.606 10.200 324.046C10.200 321.686 10.600 318.526 13.920 314.766C16.320 312.086 18.160 310.606 20.040 309.086ZM24.640 320.166C27.880 320.446 30.560 323.166 30.560 326.686C30.560 329.206 29.040 331.246 26.800 332.366C26.320 332.606 26.240 332.606 26.160 332.126L24.200 320.726C24.120 320.246 24.160 320.126 24.640 320.166ZM25.800 287.126C27.120 287.126 28.200 288.206 28.200 290.406C28.200 293.166 26.880 295.726 23.760 298.846C23.120 299.486 22.160 300.406 21.240 301.206C20.960 301.446 20.800 301.406 20.720 300.886C20.560 299.846 20.480 298.486 20.480 297.206C20.480 290.966 23.360 287.126 25.800 287.126Z"></path></g><g></g><text font-family='Alegreya' font-style='italic' text-anchor='end' stroke='#7a7a7a' font-size="24" x="0" y="284.8461538461538">4</text></g><g><line stroke="#000000" stroke-width="1.6" x1="514.1088585484252" x2="514.1088585484252" y1="294.8461538461538" y2="334.8461538461538"></line><line stroke="#000000" stroke-width="5" x1="521.4088585484253" x2="521.4088585484253" y1="294.8461538461538" y2="334.8461538461538"></line></g><g><path d="M282.544 309.206L282.544 305.526C282.544 304.926 282.064 304.486 281.504 304.486L272.304 304.486C271.704 304.486 271.264 304.926 271.264 305.526L271.264 309.206C271.264 309.766 271.704 310.246 272.304 310.246L281.504 310.246C282.064 310.246 282.544 309.766 282.544 309.206Z"></path></g></g></svg>