<?xml version="1.0" encoding="UTF-8" standalone="no"?><svg xmlns="http://www.w3.org/2000/svg" height="279.4mm" viewBox="0 0 1328.6153846153845 1719.3846153846152" width="215.9mm"><g transform="translate(93.84615384615385)"><g><g><line stroke="#6A6A6A" stroke-width="1.3" x1="0" x2="821.869029603986" y1="183.8461538461538" y2="183.8461538461538"></line><line stroke="#6A6A6A" stroke-width="1.3" x1="0" x2="821.869029603986" y1="173.8461538461538" y2="173.8461538461538"></line><line stroke="#6A6A6A" stroke-width="1.3" x1="0" x2="821.869029603986" y1="163.8461538461538" y2="163.8461538461538"></line><line stroke="#6A6A6A" stroke-width="1.3" x1="0" x2="821.869029603986" y1="153.8461538461538" y2="153.8461538461538"></line><line stroke="#6A6A6A" stroke-width="1.3" x1="0" x2="821.869029603986" y1="143.8461538461538" y2="143.8461538461538"></line></g><g><path d="M25.200 129.926C24.640 129.926 23.400 130.966 22.600 131.846C19.640 135.126 18.680 140.126 18.680 144.286C18.680 146.606 18.960 149.206 19.240 150.846C19.320 151.326 19.360 151.406 18.880 151.806C16.320 153.926 13.560 156.366 11.480 158.926C8.720 162.366 7 166.086 7 170.366C7 177.326 11.760 183.926 21.560 183.926C22.480 183.926 23.520 183.846 24.320 183.686C24.760 183.606 24.840 183.566 24.920 184.046C25.400 186.726 26 190.206 26 192.086C26 198.006 22 198.726 19.640 198.726C17.480 198.726 16.440 198.086 16.440 197.566C16.440 197.126 16.800 197.166 17.720 196.886C18.960 196.526 20.400 195.446 20.400 193.126C20.400 190.926 19 189.046 16.560 189.046C13.880 189.046 12.280 191.166 12.280 193.646C12.280 196.246 13.840 200.166 19.880 200.166C22.560 200.166 27.760 198.966 27.760 192.166C27.760 189.886 27.040 186.086 26.600 183.606C26.520 183.126 26.560 183.166 27.120 182.926C31.160 181.326 33.840 177.926 33.840 173.406C33.840 168.286 30.080 163.766 24.200 163.766C23.080 163.766 23.200 163.966 23.040 163.046L22.040 157.246C21.960 156.766 22.040 156.726 22.280 156.486C22.920 155.886 23.760 155.046 24.520 154.206C27.880 150.526 29.880 145.766 29.880 141.246C29.880 137.766 28.920 134.326 27.280 131.926C26.680 131.046 25.640 129.926 25.200 129.926ZM20.040 158.086C20.440 157.766 20.520 157.806 20.600 158.246L21.440 163.366C21.560 164.126 21.560 164.086 20.840 164.326C17.320 165.526 15.040 168.686 15.040 172.086C15.040 175.686 16.920 178.246 19.640 179.166C19.960 179.286 20.440 179.406 20.720 179.406C21.040 179.406 21.200 179.206 21.200 178.966C21.200 178.686 20.880 178.566 20.600 178.446C18.920 177.726 17.720 176.006 17.720 174.166C17.720 171.886 19.280 170.166 21.720 169.486C22.360 169.326 22.440 169.366 22.520 169.806L24.520 181.726C24.600 182.166 24.560 182.166 23.960 182.286C23.320 182.406 22.520 182.486 21.720 182.486C14.720 182.486 10.200 178.606 10.200 173.046C10.200 170.686 10.600 167.526 13.920 163.766C16.320 161.086 18.160 159.606 20.040 158.086ZM24.640 169.166C27.880 169.446 30.560 172.166 30.560 175.686C30.560 178.206 29.040 180.246 26.800 181.366C26.320 181.606 26.240 181.606 26.160 181.126L24.200 169.726C24.120 169.246 24.160 169.126 24.640 169.166ZM25.800 136.126C27.120 136.126 28.200 137.206 28.200 139.406C28.200 142.166 26.880 144.726 23.760 147.846C23.120 148.486 22.160 149.406 21.240 150.206C20.960 150.446 20.800 150.406 20.720 149.886C20.560 148.846 20.480 147.486 20.480 146.206C20.480 139.966 23.360 136.126 25.800 136.126Z"></path></g><g></g><path d="M57.820 153.806C56.620 153.806 55.220 154.126 54.140 154.606C50.580 156.166 48.700 160.446 48.700 164.246C48.700 164.606 48.700 164.966 48.740 165.326C48.940 167.486 49.980 169.526 51.300 171.126C52.820 172.966 55.020 173.806 57.420 173.806C64.420 173.806 65.460 167.446 65.460 166.286C65.460 165.406 65.020 165.406 64.860 165.406C64.540 165.406 64.260 165.446 64.260 166.126C64.260 171.286 59.860 172.486 58.580 172.486C55.340 172.486 53.620 169.326 53.620 162.726C53.620 156.126 56.660 154.766 58.820 154.766C60.900 154.766 61.740 155.726 61.740 156.126C61.740 156.486 61.620 157.006 61.020 157.006C59.420 157.006 58.500 158.726 58.500 159.966C58.500 162.246 60.460 162.966 61.580 162.966C61.580 162.966 64.620 162.846 64.620 159.526C64.620 154.286 58.580 153.806 57.820 153.806Z"></path></g><g><line stroke="black" stroke-width="1.6" x1="447.11072515500416" x2="447.11072515500416" y1="143.8461538461538" y2="183.8461538461538"></line></g><g><path d="M269.295 158.206L269.295 154.526C269.295 153.926 268.815 153.486 268.255 153.486L259.055 153.486C258.455 153.486 258.015 153.926 258.015 154.526L258.015 158.206C258.015 158.766 258.455 159.246 259.055 159.246L268.255 159.246C268.815 159.246 269.295 158.766 269.295 158.206Z"></path></g></g><g transform="translate(556.756879001158)"><g></g><g><line stroke="#000000" stroke-width="5" x1="34.179757778425966" x2="34.179757778425966" y1="143.8461538461538" y2="183.8461538461538"></line><line stroke="#000000" stroke-width="1.6" x1="41.47975777842596" x2="41.47975777842596" y1="143.8461538461538" y2="183.8461538461538"></line></g><g><path d="M26.320 116.326C24.840 116.926 24.040 119.206 22.160 119.206C22.160 117.286 21.040 115.966 19.520 115.966C17.960 115.966 16.640 117.286 16.640 118.806C16.640 119.526 17.200 120.326 17.800 120.926L18.920 121.486C19.320 121.486 19.680 121.646 20.080 121.646C20.600 121.646 21.160 121.486 21.600 121.246L23.120 120.686C23.480 120.686 23.680 120.926 23.680 121.086C23.680 122.966 22.560 125.806 22 127.686C21.760 128.446 20.280 129.406 19.520 129.406C19.520 127.446 18.360 126.366 16.880 126.366C15.360 126.366 14.040 127.446 14.040 129.006C14.040 129.766 14.640 130.566 15.200 131.126C15.600 131.206 15.880 131.446 16.320 131.446C16.640 131.646 17.040 131.646 17.440 131.646C17.960 131.646 18.560 131.646 18.920 131.446L20.440 130.886C20.600 130.886 20.840 130.686 21.040 130.686C21.080 130.686 21.160 130.806 21.160 130.886C21.160 131.126 21.040 131.646 21.040 131.646C21.040 131.646 19.680 136.966 19.520 137.526C19.120 138.646 17.800 139.406 17.040 139.406C17.040 137.526 15.880 136.406 14.400 136.406C12.920 136.406 11.560 137.526 11.560 139.086C11.560 139.806 12.120 140.566 12.680 141.126C13.120 141.326 13.480 141.526 13.840 141.526C14.240 141.686 14.640 141.686 14.960 141.686C15.560 141.686 16.080 141.686 16.440 141.526L17.960 140.966C18.560 140.966 18.560 141.326 18.560 141.526L17.040 147.966C16.640 149.046 15.360 149.646 14.640 149.646C14.640 147.766 13.480 146.606 11.960 146.606C10.440 146.606 9.120 147.766 9.120 149.246C9.120 150.006 9.680 150.726 10.240 151.326L11.400 151.886L12.120 151.886C12.680 151.886 13.480 151.886 14.040 151.726L15.560 151.166C16.080 151.166 16.080 151.726 16.080 151.886L14.640 158.166C14.240 159.286 13.120 159.686 12.520 159.846C12.120 159.846 11.200 156.646 9.680 156.646C8.160 156.646 6.800 157.966 6.800 159.286C6.800 160.246 7.400 160.966 7.960 161.366L9.120 161.926C9.480 161.926 9.880 162.126 10.240 162.126C10.800 162.126 11.400 161.926 11.760 161.766C12.360 161.566 12.680 161.566 13.240 161.206C13.480 161.206 13.680 161.566 13.680 161.766C13.680 161.926 12.920 166.126 12.120 168.206C11.760 169.166 10.640 169.526 10.040 169.726C10.040 167.646 8.520 166.526 7.240 166.526C5.880 166.526 4.560 167.806 4.560 169.166C4.560 170.086 5.160 170.846 5.720 171.206L6.800 171.766C7.240 171.766 7.600 172.006 7.960 172.006C8.520 172.006 9.120 171.766 9.480 171.566C10.040 171.406 10.440 171.406 10.800 171.006C11 171.006 11.200 171.406 11.200 171.566C11.200 172.126 10.040 177.086 9.880 177.686C9.480 178.806 8.160 179.366 7.600 179.526C7.600 177.446 6.280 176.286 4.960 176.286C3.440 176.286 2.280 177.686 2.280 178.966C2.280 179.966 2.680 180.686 3.240 181.046L4.400 181.646C4.720 181.646 5.160 181.806 5.520 181.806C6.080 181.806 6.680 181.646 7 181.446C7.600 181.246 7.960 181.246 8.520 180.846C8.720 180.846 8.960 181.246 8.960 181.446C8.720 181.646 7.400 187.926 7.240 188.446C6.800 189.406 5.880 189.766 5.280 189.766C5.280 187.686 4 186.526 2.680 186.526C1.160 186.526 0 187.926 0 189.206C0 190.166 0.440 190.926 1 191.286L2.080 191.886C2.480 191.886 2.840 192.046 3.240 192.046C3.800 192.046 4.400 191.886 4.720 191.646L6.080 191.286C6.440 191.286 6.440 191.486 6.440 191.646C6.280 192.206 3.800 202.406 3.600 202.646C3.600 202.806 4.400 203.566 4.720 203.566C5.880 203.566 6.080 203.366 6.280 202.806C6.280 202.406 20.440 142.246 22.560 132.406C22.560 132.406 26.720 117.286 26.720 116.926C26.720 116.526 26.320 116.326 26.320 116.326Z"></path></g></g><g transform="translate(614.036636779584)"><g></g><g><line stroke="#000000" stroke-width="1.6" x1="32.47975777842597" x2="32.47975777842597" y1="143.8461538461538" y2="183.8461538461538"></line><line stroke="#000000" stroke-width="5" x1="39.77975777842597" x2="39.77975777842597" y1="143.8461538461538" y2="183.8461538461538"></line></g><g><path d="M26.320 116.326C24.840 116.926 24.040 119.206 22.160 119.206C22.160 117.286 21.040 115.966 19.520 115.966C17.960 115.966 16.640 117.286 16.640 118.806C16.640 119.526 17.200 120.326 17.800 120.926L18.920 121.486C19.320 121.486 19.680 121.646 20.080 121.646C20.600 121.646 21.160 121.486 21.600 121.246L23.120 120.686C23.480 120.686 23.680 120.926 23.680 121.086C23.680 122.966 22.560 125.806 22 127.686C21.760 128.446 20.280 129.406 19.520 129.406C19.520 127.446 18.360 126.366 16.880 126.366C15.360 126.366 14.040 127.446 14.040 129.006C14.040 129.766 14.640 130.566 15.200 131.126C15.600 131.206 15.880 131.446 16.320 131.446C16.640 131.646 17.040 131.646 17.440 131.646C17.960 131.646 18.560 131.646 18.920 131.446L20.440 130.886C20.600 130.886 20.840 130.686 21.040 130.686C21.080 130.686 21.160 130.806 21.160 130.886C21.160 131.126 21.040 131.646 21.040 131.646C21.040 131.646 19.680 136.966 19.520 137.526C19.120 138.646 17.800 139.406 17.040 139.406C17.040 137.526 15.880 136.406 14.400 136.406C12.920 136.406 11.560 137.526 11.560 139.086C11.560 139.806 12.120 140.566 12.680 141.126C13.120 141.326 13.480 141.526 13.840 141.526C14.240 141.686 14.640 141.686 14.960 141.686C15.560 141.686 16.080 141.686 16.440 141.526L17.960 140.966C18.560 140.966 18.560 141.326 18.560 141.526L17.040 147.966C16.640 149.046 15.360 149.646 14.640 149.646C14.640 147.766 13.480 146.606 11.960 146.606C10.440 146.606 9.120 147.766 9.120 149.246C9.120 150.006 9.680 150.726 10.240 151.326L11.400 151.886L12.120 151.886C12.680 151.886 13.480 151.886 14.040 151.726L15.560 151.166C16.080 151.166 16.080 151.726 16.080 151.886L14.640 158.166C14.240 159.286 13.120 159.686 12.520 159.846C12.120 159.846 11.200 156.646 9.680 156.646C8.160 156.646 6.800 157.966 6.800 159.286C6.800 160.246 7.400 160.966 7.960 161.366L9.120 161.926C9.480 161.926 9.880 162.126 10.240 162.126C10.800 162.126 11.400 161.926 11.760 161.766C12.360 161.566 12.680 161.566 13.240 161.206C13.480 161.206 13.680 161.566 13.680 161.766C13.680 161.926 12.920 166.126 12.120 168.206C11.760 169.166 10.640 169.526 10.040 169.726C10.040 167.646 8.520 166.526 7.240 166.526C5.880 166.526 4.560 167.806 4.560 169.166C4.560 170.086 5.160 170.846 5.720 171.206L6.800 171.766C7.240 171.766 7.600 172.006 7.960 172.006C8.520 172.006 9.120 171.766 9.480 171.566C10.040 171.406 10.440 171.406 10.800 171.006C11 171.006 11.200 171.406 11.200 171.566C11.200 172.126 10.040 177.086 9.880 177.686C9.480 178.806 8.160 179.366 7.600 179.526C7.600 177.446 6.280 176.286 4.960 176.286C3.440 176.286 2.280 177.686 2.280 178.966C2.280 179.966 2.680 180.686 3.240 181.046L4.400 181.646C4.720 181.646 5.160 181.806 5.520 181.806C6.080 181.806 6.680 181.646 7 181.446C7.600 181.246 7.960 181.246 8.520 180.846C8.720 180.846 8.960 181.246 8.960 181.446C8.720 181.646 7.400 187.926 7.240 188.446C6.800 189.406 5.880 189.766 5.280 189.766C5.280 187.686 4 186.526 2.680 186.526C1.160 186.526 0 187.926 0 189.206C0 190.166 0.440 190.926 1 191.286L2.080 191.886C2.480 191.886 2.840 192.046 3.240 192.046C3.800 192.046 4.400 191.886 4.720 191.646L6.080 191.286C6.440 191.286 6.440 191.486 6.440 191.646C6.280 192.206 3.800 202.406 3.600 202.646C3.600 202.806 4.400 203.566 4.720 203.566C5.880 203.566 6.080 203.366 6.280 202.806C6.280 202.406 20.440 142.246 22.560 132.406C22.560 132.406 26.720 117.286 26.720 116.926C26.720 116.526 26.320 116.326 26.320 116.326Z"></path></g></g><g transform="translate(671.31639455801)"><g></g><g><line stroke="black" stroke-width="1.6" x1="32.47975777842597" x2="32.47975777842597" y1="143.8461538461538" y2="183.8461538461538"></line></g><g><path d="M26.320 116.326C24.840 116.926 24.040 119.206 22.160 119.206C22.160 117.286 21.040 115.966 19.520 115.966C17.960 115.966 16.640 117.286 16.640 118.806C16.640 119.526 17.200 120.326 17.800 120.926L18.920 121.486C19.320 121.486 19.680 121.646 20.080 121.646C20.600 121.646 21.160 121.486 21.600 121.246L23.120 120.686C23.480 120.686 23.680 120.926 23.680 121.086C23.680 122.966 22.560 125.806 22 127.686C21.760 128.446 20.280 129.406 19.520 129.406C19.520 127.446 18.360 126.366 16.880 126.366C15.360 126.366 14.040 127.446 14.040 129.006C14.040 129.766 14.640 130.566 15.200 131.126C15.600 131.206 15.880 131.446 16.320 131.446C16.640 131.646 17.040 131.646 17.440 131.646C17.960 131.646 18.560 131.646 18.920 131.446L20.440 130.886C20.600 130.886 20.840 130.686 21.040 130.686C21.080 130.686 21.160 130.806 21.160 130.886C21.160 131.126 21.040 131.646 21.040 131.646C21.040 131.646 19.680 136.966 19.520 137.526C19.120 138.646 17.800 139.406 17.040 139.406C17.040 137.526 15.880 136.406 14.400 136.406C12.920 136.406 11.560 137.526 11.560 139.086C11.560 139.806 12.120 140.566 12.680 141.126C13.120 141.326 13.480 141.526 13.840 141.526C14.240 141.686 14.640 141.686 14.960 141.686C15.560 141.686 16.080 141.686 16.440 141.526L17.960 140.966C18.560 140.966 18.560 141.326 18.560 141.526L17.040 147.966C16.640 149.046 15.360 149.646 14.640 149.646C14.640 147.766 13.480 146.606 11.960 146.606C10.440 146.606 9.120 147.766 9.120 149.246C9.120 150.006 9.680 150.726 10.240 151.326L11.400 151.886L12.120 151.886C12.680 151.886 13.480 151.886 14.040 151.726L15.560 151.166C16.080 151.166 16.080 151.726 16.080 151.886L14.640 158.166C14.240 159.286 13.120 159.686 12.520 159.846C12.120 159.846 11.200 156.646 9.680 156.646C8.160 156.646 6.800 157.966 6.800 159.286C6.800 160.246 7.400 160.966 7.960 161.366L9.120 161.926C9.480 161.926 9.880 162.126 10.240 162.126C10.800 162.126 11.400 161.926 11.760 161.766C12.360 161.566 12.680 161.566 13.240 161.206C13.480 161.206 13.680 161.566 13.680 161.766C13.680 161.926 12.920 166.126 12.120 168.206C11.760 169.166 10.640 169.526 10.040 169.726C10.040 167.646 8.520 166.526 7.240 166.526C5.880 166.526 4.560 167.806 4.560 169.166C4.560 170.086 5.160 170.846 5.720 171.206L6.800 171.766C7.240 171.766 7.600 172.006 7.960 172.006C8.520 172.006 9.120 171.766 9.480 171.566C10.040 171.406 10.440 171.406 10.800 171.006C11 171.006 11.200 171.406 11.200 171.566C11.200 172.126 10.040 177.086 9.880 177.686C9.480 178.806 8.160 179.366 7.600 179.526C7.600 177.446 6.280 176.286 4.960 176.286C3.440 176.286 2.280 177.686 2.280 178.966C2.280 179.966 2.680 180.686 3.240 181.046L4.400 181.646C4.720 181.646 5.160 181.806 5.520 181.806C6.080 181.806 6.680 181.646 7 181.446C7.600 181.246 7.960 181.246 8.520 180.846C8.720 180.846 8.960 181.246 8.960 181.446C8.720 181.646 7.400 187.926 7.240 188.446C6.800 189.406 5.880 189.766 5.280 189.766C5.280 187.686 4 186.526 2.680 186.526C1.160 186.526 0 187.926 0 189.206C0 190.166 0.440 190.926 1 191.286L2.080 191.886C2.480 191.886 2.840 192.046 3.240 192.046C3.800 192.046 4.400 191.886 4.720 191.646L6.080 191.286C6.440 191.286 6.440 191.486 6.440 191.646C6.280 192.206 3.800 202.406 3.600 202.646C3.600 202.806 4.400 203.566 4.720 203.566C5.880 203.566 6.080 203.366 6.280 202.806C6.280 202.406 20.440 142.246 22.560 132.406C22.560 132.406 26.720 117.286 26.720 116.926C26.720 116.526 26.320 116.326 26.320 116.326Z"></path></g></g><g transform="translate(719.596152336436)"><g></g><g><line stroke="black" stroke-width="1.6" x1="32.47975777842597" x2="32.47975777842597" y1="143.8461538461538" y2="183.8461538461538"></line></g><g><path d="M26.320 116.326C24.840 116.926 24.040 119.206 22.160 119.206C22.160 117.286 21.040 115.966 19.520 115.966C17.960 115.966 16.640 117.286 16.640 118.806C16.640 119.526 17.200 120.326 17.800 120.926L18.920 121.486C19.320 121.486 19.680 121.646 20.080 121.646C20.600 121.646 21.160 121.486 21.600 121.246L23.120 120.686C23.480 120.686 23.680 120.926 23.680 121.086C23.680 122.966 22.560 125.806 22 127.686C21.760 128.446 20.280 129.406 19.520 129.406C19.520 127.446 18.360 126.366 16.880 126.366C15.360 126.366 14.040 127.446 14.040 129.006C14.040 129.766 14.640 130.566 15.200 131.126C15.600 131.206 15.880 131.446 16.320 131.446C16.640 131.646 17.040 131.646 17.440 131.646C17.960 131.646 18.560 131.646 18.920 131.446L20.440 130.886C20.600 130.886 20.840 130.686 21.040 130.686C21.080 130.686 21.160 130.806 21.160 130.886C21.160 131.126 21.040 131.646 21.040 131.646C21.040 131.646 19.680 136.966 19.520 137.526C19.120 138.646 17.800 139.406 17.040 139.406C17.040 137.526 15.880 136.406 14.400 136.406C12.920 136.406 11.560 137.526 11.560 139.086C11.560 139.806 12.120 140.566 12.680 141.126C13.120 141.326 13.480 141.526 13.840 141.526C14.240 141.686 14.640 141.686 14.960 141.686C15.560 141.686 16.080 141.686 16.440 141.526L17.960 140.966C18.560 140.966 18.560 141.326 18.560 141.526L17.040 147.966C16.640 149.046 15.360 149.646 14.640 149.646C14.640 147.766 13.480 146.606 11.960 146.606C10.440 146.606 9.120 147.766 9.120 149.246C9.120 150.006 9.680 150.726 10.240 151.326L11.400 151.886L12.120 151.886C12.680 151.886 13.480 151.886 14.040 151.726L15.560 151.166C16.080 151.166 16.080 151.726 16.080 151.886L14.640 158.166C14.240 159.286 13.120 159.686 12.520 159.846C12.120 159.846 11.200 156.646 9.680 156.646C8.160 156.646 6.800 157.966 6.800 159.286C6.800 160.246 7.400 160.966 7.960 161.366L9.120 161.926C9.480 161.926 9.880 162.126 10.240 162.126C10.800 162.126 11.400 161.926 11.760 161.766C12.360 161.566 12.680 161.566 13.240 161.206C13.480 161.206 13.680 161.566 13.680 161.766C13.680 161.926 12.920 166.126 12.120 168.206C11.760 169.166 10.640 169.526 10.040 169.726C10.040 167.646 8.520 166.526 7.240 166.526C5.880 166.526 4.560 167.806 4.560 169.166C4.560 170.086 5.160 170.846 5.720 171.206L6.800 171.766C7.240 171.766 7.600 172.006 7.960 172.006C8.520 172.006 9.120 171.766 9.480 171.566C10.040 171.406 10.440 171.406 10.800 171.006C11 171.006 11.200 171.406 11.200 171.566C11.200 172.126 10.040 177.086 9.880 177.686C9.480 178.806 8.160 179.366 7.600 179.526C7.600 177.446 6.280 176.286 4.960 176.286C3.440 176.286 2.280 177.686 2.280 178.966C2.280 179.966 2.680 180.686 3.240 181.046L4.400 181.646C4.720 181.646 5.160 181.806 5.520 181.806C6.080 181.806 6.680 181.646 7 181.446C7.600 181.246 7.960 181.246 8.520 180.846C8.720 180.846 8.960 181.246 8.960 181.446C8.720 181.646 7.400 187.926 7.240 188.446C6.800 189.406 5.880 189.766 5.280 189.766C5.280 187.686 4 186.526 2.680 186.526C1.160 186.526 0 187.926 0 189.206C0 190.166 0.440 190.926 1 191.286L2.080 191.886C2.480 191.886 2.840 192.046 3.240 192.046C3.800 192.046 4.400 191.886 4.720 191.646L6.080 191.286C6.440 191.286 6.440 191.486 6.440 191.646C6.280 192.206 3.800 202.406 3.600 202.646C3.600 202.806 4.400 203.566 4.720 203.566C5.880 203.566 6.080 203.366 6.280 202.806C6.280 202.406 20.440 142.246 22.560 132.406C22.560 132.406 26.720 117.286 26.720 116.926C26.720 116.526 26.320 116.326 26.320 116.326Z"></path></g></g><g transform="translate(767.875910114862)"><g></g><g><line stroke="black" stroke-width="1.6" x1="32.47975777842597" x2="32.47975777842597" y1="143.8461538461538" y2="183.8461538461538"></line></g><g><path d="M26.320 116.326C24.840 116.926 24.040 119.206 22.160 119.206C22.160 117.286 21.040 115.966 19.520 115.966C17.960 115.966 16.640 117.286 16.640 118.806C16.640 119.526 17.200 120.326 17.800 120.926L18.920 121.486C19.320 121.486 19.680 121.646 20.080 121.646C20.600 121.646 21.160 121.486 21.600 121.246L23.120 120.686C23.480 120.686 23.680 120.926 23.680 121.086C23.680 122.966 22.560 125.806 22 127.686C21.760 128.446 20.280 129.406 19.520 129.406C19.520 127.446 18.360 126.366 16.880 126.366C15.360 126.366 14.040 127.446 14.040 129.006C14.040 129.766 14.640 130.566 15.200 131.126C15.600 131.206 15.880 131.446 16.320 131.446C16.640 131.646 17.040 131.646 17.440 131.646C17.960 131.646 18.560 131.646 18.920 131.446L20.440 130.886C20.600 130.886 20.840 130.686 21.040 130.686C21.080 130.686 21.160 130.806 21.160 130.886C21.160 131.126 21.040 131.646 21.040 131.646C21.040 131.646 19.680 136.966 19.520 137.526C19.120 138.646 17.800 139.406 17.040 139.406C17.040 137.526 15.880 136.406 14.400 136.406C12.920 136.406 11.560 137.526 11.560 139.086C11.560 139.806 12.120 140.566 12.680 141.126C13.120 141.326 13.480 141.526 13.840 141.526C14.240 141.686 14.640 141.686 14.960 141.686C15.560 141.686 16.080 141.686 16.440 141.526L17.960 140.966C18.560 140.966 18.560 141.326 18.560 141.526L17.040 147.966C16.640 149.046 15.360 149.646 14.640 149.646C14.640 147.766 13.480 146.606 11.960 146.606C10.440 146.606 9.120 147.766 9.120 149.246C9.120 150.006 9.680 150.726 10.240 151.326L11.400 151.886L12.120 151.886C12.680 151.886 13.480 151.886 14.040 151.726L15.560 151.166C16.080 151.166 16.080 151.726 16.080 151.886L14.640 158.166C14.240 159.286 13.120 159.686 12.520 159.846C12.120 159.846 11.200 156.646 9.680 156.646C8.160 156.646 6.800 157.966 6.800 159.286C6.800 160.246 7.400 160.966 7.960 161.366L9.120 161.926C9.480 161.926 9.880 162.126 10.240 162.126C10.800 162.126 11.400 161.926 11.760 161.766C12.360 161.566 12.680 161.566 13.240 161.206C13.480 161.206 13.680 161.566 13.680 161.766C13.680 161.926 12.920 166.126 12.120 168.206C11.760 169.166 10.640 169.526 10.040 169.726C10.040 167.646 8.520 166.526 7.240 166.526C5.880 166.526 4.560 167.806 4.560 169.166C4.560 170.086 5.160 170.846 5.720 171.206L6.800 171.766C7.240 171.766 7.600 172.006 7.960 172.006C8.520 172.006 9.120 171.766 9.480 171.566C10.040 171.406 10.440 171.406 10.800 171.006C11 171.006 11.200 171.406 11.200 171.566C11.200 172.126 10.040 177.086 9.880 177.686C9.480 178.806 8.160 179.366 7.600 179.526C7.600 177.446 6.280 176.286 4.960 176.286C3.440 176.286 2.280 177.686 2.280 178.966C2.280 179.966 2.680 180.686 3.240 181.046L4.400 181.646C4.720 181.646 5.160 181.806 5.520 181.806C6.080 181.806 6.680 181.646 7 181.446C7.600 181.246 7.960 181.246 8.520 180.846C8.720 180.846 8.960 181.246 8.960 181.446C8.720 181.646 7.400 187.926 7.240 188.446C6.800 189.406 5.880 189.766 5.280 189.766C5.280 187.686 4 186.526 2.680 186.526C1.160 186.526 0 187.926 0 189.206C0 190.166 0.440 190.926 1 191.286L2.080 191.886C2.480 191.886 2.840 192.046 3.240 192.046C3.800 192.046 4.400 191.886 4.720 191.646L6.080 191.286C6.440 191.286 6.440 191.486 6.440 191.646C6.280 192.206 3.800 202.406 3.600 202.646C3.600 202.806 4.400 203.566 4.720 203.566C5.880 203.566 6.080 203.366 6.280 202.806C6.280 202.406 20.440 142.246 22.560 132.406C22.560 132.406 26.720 117.286 26.720 116.926C26.720 116.526 26.320 116.326 26.320 116.326Z"></path></g></g><g transform="translate(816.155667893288)"><g></g><g><line stroke="#000000" stroke-width="1.6" x1="32.47975777842597" x2="32.47975777842597" y1="143.8461538461538" y2="183.8461538461538"></line><line stroke="#000000" stroke-width="5" x1="39.77975777842597" x2="39.77975777842597" y1="143.8461538461538" y2="183.8461538461538"></line></g><g><path d="M26.320 116.326C24.840 116.926 24.040 119.206 22.160 119.206C22.160 117.286 21.040 115.966 19.520 115.966C17.960 115.966 16.640 117.286 16.640 118.806C16.640 119.526 17.200 120.326 17.800 120.926L18.920 121.486C19.320 121.486 19.680 121.646 20.080 121.646C20.600 121.646 21.160 121.486 21.600 121.246L23.120 120.686C23.480 120.686 23.680 120.926 23.680 121.086C23.680 122.966 22.560 125.806 22 127.686C21.760 128.446 20.280 129.406 19.520 129.406C19.520 127.446 18.360 126.366 16.880 126.366C15.360 126.366 14.040 127.446 14.040 129.006C14.040 129.766 14.640 130.566 15.200 131.126C15.600 131.206 15.880 131.446 16.320 131.446C16.640 131.646 17.040 131.646 17.440 131.646C17.960 131.646 18.560 131.646 18.920 131.446L20.440 130.886C20.600 130.886 20.840 130.686 21.040 130.686C21.080 130.686 21.160 130.806 21.160 130.886C21.160 131.126 21.040 131.646 21.040 131.646C21.040 131.646 19.680 136.966 19.520 137.526C19.120 138.646 17.800 139.406 17.040 139.406C17.040 137.526 15.880 136.406 14.400 136.406C12.920 136.406 11.560 137.526 11.560 139.086C11.560 139.806 12.120 140.566 12.680 141.126C13.120 141.326 13.480 141.526 13.840 141.526C14.240 141.686 14.640 141.686 14.960 141.686C15.560 141.686 16.080 141.686 16.440 141.526L17.960 140.966C18.560 140.966 18.560 141.326 18.560 141.526L17.040 147.966C16.640 149.046 15.360 149.646 14.640 149.646C14.640 147.766 13.480 146.606 11.960 146.606C10.440 146.606 9.120 147.766 9.120 149.246C9.120 150.006 9.680 150.726 10.240 151.326L11.400 151.886L12.120 151.886C12.680 151.886 13.480 151.886 14.040 151.726L15.560 151.166C16.080 151.166 16.080 151.726 16.080 151.886L14.640 158.166C14.240 159.286 13.120 159.686 12.520 159.846C12.120 159.846 11.200 156.646 9.680 156.646C8.160 156.646 6.800 157.966 6.800 159.286C6.800 160.246 7.400 160.966 7.960 161.366L9.120 161.926C9.480 161.926 9.880 162.126 10.240 162.126C10.800 162.126 11.400 161.926 11.760 161.766C12.360 161.566 12.680 161.566 13.240 161.206C13.480 161.206 13.680 161.566 13.680 161.766C13.680 161.926 12.920 166.126 12.120 168.206C11.760 169.166 10.640 169.526 10.040 169.726C10.040 167.646 8.520 166.526 7.240 166.526C5.880 166.526 4.560 167.806 4.560 169.166C4.560 170.086 5.160 170.846 5.720 171.206L6.800 171.766C7.240 171.766 7.600 172.006 7.960 172.006C8.520 172.006 9.120 171.766 9.480 171.566C10.040 171.406 10.440 171.406 10.800 171.006C11 171.006 11.200 171.406 11.200 171.566C11.200 172.126 10.040 177.086 9.880 177.686C9.480 178.806 8.160 179.366 7.600 179.526C7.600 177.446 6.280 176.286 4.960 176.286C3.440 176.286 2.280 177.686 2.280 178.966C2.280 179.966 2.680 180.686 3.240 181.046L4.400 181.646C4.720 181.646 5.160 181.806 5.520 181.806C6.080 181.806 6.680 181.646 7 181.446C7.600 181.246 7.960 181.246 8.520 180.846C8.720 180.846 8.960 181.246 8.960 181.446C8.720 181.646 7.400 187.926 7.240 188.446C6.800 189.406 5.880 189.766 5.280 189.766C5.280 187.686 4 186.526 2.680 186.526C1.160 186.526 0 187.926 0 189.206C0 190.166 0.440 190.926 1 191.286L2.080 191.886C2.480 191.886 2.840 192.046 3.240 192.046C3.800 192.046 4.400 191.886 4.720 191.646L6.080 191.286C6.440 191.286 6.440 191.486 6.440 191.646C6.280 192.206 3.800 202.406 3.600 202.646C3.600 202.806 4.400 203.566 4.720 203.566C5.880 203.566 6.080 203.366 6.280 202.806C6.280 202.406 20.440 142.246 22.560 132.406C22.560 132.406 26.720 117.286 26.720 116.926C26.720 116.526 26.320 116.326 26.320 116.326Z"></path></g></g><g transform="translate(873.435425671714)"><g></g><g><line stroke="#000000" stroke-width="1.6" x1="32.47975777842597" x2="32.47975777842597" y1="143.8461538461538" y2="183.8461538461538"></line><line stroke="#000000" stroke-width="5" x1="39.77975777842597" x2="39.77975777842597" y1="143.8461538461538" y2="183.8461538461538"></line></g><g><path d="M26.320 116.326C24.840 116.926 24.040 119.206 22.160 119.206C22.160 117.286 21.040 115.966 19.520 115.966C17.960 115.966 16.640 117.286 16.640 118.806C16.640 119.526 17.200 120.326 17.800 120.926L18.920 121.486C19.320 121.486 19.680 121.646 20.080 121.646C20.600 121.646 21.160 121.486 21.600 121.246L23.120 120.686C23.480 120.686 23.680 120.926 23.680 121.086C23.680 122.966 22.560 125.806 22 127.686C21.760 128.446 20.280 129.406 19.520 129.406C19.520 127.446 18.360 126.366 16.880 126.366C15.360 126.366 14.040 127.446 14.040 129.006C14.040 129.766 14.640 130.566 15.200 131.126C15.600 131.206 15.880 131.446 16.320 131.446C16.640 131.646 17.040 131.646 17.440 131.646C17.960 131.646 18.560 131.646 18.920 131.446L20.440 130.886C20.600 130.886 20.840 130.686 21.040 130.686C21.080 130.686 21.160 130.806 21.160 130.886C21.160 131.126 21.040 131.646 21.040 131.646C21.040 131.646 19.680 136.966 19.520 137.526C19.120 138.646 17.800 139.406 17.040 139.406C17.040 137.526 15.880 136.406 14.400 136.406C12.920 136.406 11.560 137.526 11.560 139.086C11.560 139.806 12.120 140.566 12.680 141.126C13.120 141.326 13.480 141.526 13.840 141.526C14.240 141.686 14.640 141.686 14.960 141.686C15.560 141.686 16.080 141.686 16.440 141.526L17.960 140.966C18.560 140.966 18.560 141.326 18.560 141.526L17.040 147.966C16.640 149.046 15.360 149.646 14.640 149.646C14.640 147.766 13.480 146.606 11.960 146.606C10.440 146.606 9.120 147.766 9.120 149.246C9.120 150.006 9.680 150.726 10.240 151.326L11.400 151.886L12.120 151.886C12.680 151.886 13.480 151.886 14.040 151.726L15.560 151.166C16.080 151.166 16.080 151.726 16.080 151.886L14.640 158.166C14.240 159.286 13.120 159.686 12.520 159.846C12.120 159.846 11.200 156.646 9.680 156.646C8.160 156.646 6.800 157.966 6.800 159.286C6.800 160.246 7.400 160.966 7.960 161.366L9.120 161.926C9.480 161.926 9.880 162.126 10.240 162.126C10.800 162.126 11.400 161.926 11.760 161.766C12.360 161.566 12.680 161.566 13.240 161.206C13.480 161.206 13.680 161.566 13.680 161.766C13.680 161.926 12.920 166.126 12.120 168.206C11.760 169.166 10.640 169.526 10.040 169.726C10.040 167.646 8.520 166.526 7.240 166.526C5.880 166.526 4.560 167.806 4.560 169.166C4.560 170.086 5.160 170.846 5.720 171.206L6.800 171.766C7.240 171.766 7.600 172.006 7.960 172.006C8.520 172.006 9.120 171.766 9.480 171.566C10.040 171.406 10.440 171.406 10.800 171.006C11 171.006 11.200 171.406 11.200 171.566C11.200 172.126 10.040 177.086 9.880 177.686C9.480 178.806 8.160 179.366 7.600 179.526C7.600 177.446 6.280 176.286 4.960 176.286C3.440 176.286 2.280 177.686 2.280 178.966C2.280 179.966 2.680 180.686 3.240 181.046L4.400 181.646C4.720 181.646 5.160 181.806 5.520 181.806C6.080 181.806 6.680 181.646 7 181.446C7.600 181.246 7.960 181.246 8.520 180.846C8.720 180.846 8.960 181.246 8.960 181.446C8.720 181.646 7.400 187.926 7.240 188.446C6.800 189.406 5.880 189.766 5.280 189.766C5.280 187.686 4 186.526 2.680 186.526C1.160 186.526 0 187.926 0 189.206C0 190.166 0.440 190.926 1 191.286L2.080 191.886C2.480 191.886 2.840 192.046 3.240 192.046C3.800 192.046 4.400 191.886 4.720 191.646L6.080 191.286C6.440 191.286 6.440 191.486 6.440 191.646C6.280 192.206 3.800 202.406 3.600 202.646C3.600 202.806 4.400 203.566 4.720 203.566C5.880 203.566 6.080 203.366 6.280 202.806C6.280 202.406 20.440 142.246 22.560 132.406C22.560 132.406 26.720 117.286 26.720 116.926C26.720 116.526 26.320 116.326 26.320 116.326Z"></path></g></g></svg>