<?xml version="1.0" encoding="UTF-8" standalone="no"?><svg xmlns="http://www.w3.org/2000/svg" height="279.4mm" viewBox="0 0 1328.6153846153845 1719.3846153846152" width="215.9mm"><g transform="translate(163.84615384615387)"><g><g><line stroke="#6A6A6A" stroke-width="1.3" x1="0" x2="526.838277153555" y1="183.8461538461538" y2="183.8461538461538"></line><line stroke="#6A6A6A" stroke-width="1.3" x1="0" x2="526.838277153555" y1="173.8461538461538" y2="173.8461538461538"></line><line stroke="#6A6A6A" stroke-width="1.3" x1="0" x2="526.838277153555" y1="163.8461538461538" y2="163.8461538461538"></line><line stroke="#6A6A6A" stroke-width="1.3" x1="0" x2="526.838277153555" y1="153.8461538461538" y2="153.8461538461538"></line><line stroke="#6A6A6A" stroke-width="1.3" x1="0" x2="526.838277153555" y1="143.8461538461538" y2="143.8461538461538"></line></g><g><path d="M25.200 129.926C24.640 129.926 23.400 130.966 22.600 131.846C19.640 135.126 18.680 140.126 18.680 144.286C18.680 146.606 18.960 149.206 19.240 150.846C19.320 151.326 19.360 151.406 18.880 151.806C16.320 153.926 13.560 156.366 11.480 158.926C8.720 162.366 7 166.086 7 170.366C7 177.326 11.760 183.926 21.560 183.926C22.480 183.926 23.520 183.846 24.320 183.686C24.760 183.606 24.840 183.566 24.920 184.046C25.400 186.726 26 190.206 26 192.086C26 198.006 22 198.726 19.640 198.726C17.480 198.726 16.440 198.086 16.440 197.566C16.440 197.126 16.800 197.166 17.720 196.886C18.960 196.526 20.400 195.446 20.400 193.126C20.400 190.926 19 189.046 16.560 189.046C13.880 189.046 12.280 191.166 12.280 193.646C12.280 196.246 13.840 200.166 19.880 200.166C22.560 200.166 27.760 198.966 27.760 192.166C27.760 189.886 27.040 186.086 26.600 183.606C26.520 183.126 26.560 183.166 27.120 182.926C31.160 181.326 33.840 177.926 33.840 173.406C33.840 168.286 30.080 163.766 24.200 163.766C23.080 163.766 23.200 163.966 23.040 163.046L22.040 157.246C21.960 156.766 22.040 156.726 22.280 156.486C22.920 155.886 23.760 155.046 24.520 154.206C27.880 150.526 29.880 145.766 29.880 141.246C29.880 137.766 28.920 134.326 27.280 131.926C26.680 131.046 25.640 129.926 25.200 129.926ZM20.040 158.086C20.440 157.766 20.520 157.806 20.600 158.246L21.440 163.366C21.560 164.126 21.560 164.086 20.840 164.326C17.320 165.526 15.040 168.686 15.040 172.086C15.040 175.686 16.920 178.246 19.640 179.166C19.960 179.286 20.440 179.406 20.720 179.406C21.040 179.406 21.200 179.206 21.200 178.966C21.200 178.686 20.880 178.566 20.600 178.446C18.920 177.726 17.720 176.006 17.720 174.166C17.720 171.886 19.280 170.166 21.720 169.486C22.360 169.326 22.440 169.366 22.520 169.806L24.520 181.726C24.600 182.166 24.560 182.166 23.960 182.286C23.320 182.406 22.520 182.486 21.720 182.486C14.720 182.486 10.200 178.606 10.200 173.046C10.200 170.686 10.600 167.526 13.920 163.766C16.320 161.086 18.160 159.606 20.040 158.086ZM24.640 169.166C27.880 169.446 30.560 172.166 30.560 175.686C30.560 178.206 29.040 180.246 26.800 181.366C26.320 181.606 26.240 181.606 26.160 181.126L24.200 169.726C24.120 169.246 24.160 169.126 24.640 169.166ZM25.800 136.126C27.120 136.126 28.200 137.206 28.200 139.406C28.200 142.166 26.880 144.726 23.760 147.846C23.120 148.486 22.160 149.406 21.240 150.206C20.960 150.446 20.800 150.406 20.720 149.886C20.560 148.846 20.480 147.486 20.480 146.206C20.480 139.966 23.360 136.126 25.800 136.126Z"></path></g><g></g><path d="M57.820 153.806C56.620 153.806 55.220 154.126 54.140 154.606C50.580 156.166 48.700 160.446 48.700 164.246C48.700 164.606 48.700 164.966 48.740 165.326C48.940 167.486 49.980 169.526 51.300 171.126C52.820 172.966 55.020 173.806 57.420 173.806C64.420 173.806 65.460 167.446 65.460 166.286C65.460 165.406 65.020 165.406 64.860 165.406C64.540 165.406 64.260 165.446 64.260 166.126C64.260 171.286 59.860 172.486 58.580 172.486C55.340 172.486 53.620 169.326 53.620 162.726C53.620 156.126 56.660 154.766 58.820 154.766C60.900 154.766 61.740 155.726 61.740 156.126C61.740 156.486 61.620 157.006 61.020 157.006C59.420 157.006 58.500 158.726 58.500 159.966C58.500 162.246 60.460 162.966 61.580 162.966C61.580 162.966 64.620 162.846 64.620 159.526C64.620 154.286 58.580 153.806 57.820 153.806Z"></path></g><g><line stroke="#000000" stroke-width="1.6" x1="517.0382771535551" x2="517.0382771535551" y1="143.8461538461538" y2="183.8461538461538"></line><line stroke="#000000" stroke-width="5" x1="524.3382771535552" x2="524.3382771535552" y1="143.8461538461538" y2="183.8461538461538"></line></g><g><g><path d="M93.360 189.486C97.360 189.486 102.280 185.766 102.280 181.966C102.280 179.686 100.480 178.206 97.880 178.206C92.960 178.206 89 181.846 89 185.726C89 188.086 90.920 189.486 93.360 189.486Z"></path></g><g><path d="M93.360 164.486C97.360 164.486 102.280 160.766 102.280 156.966C102.280 154.686 100.480 153.206 97.880 153.206C92.960 153.206 89 156.846 89 160.726C89 163.086 90.920 164.486 93.360 164.486Z"></path></g><line stroke="#000000" stroke-width="1.2" x1="101.68" x2="101.68" y1="182.0061538461538" y2="127.00615384615381"></line><text font-family="Alegreya" font-size="22" text-anchor="middle" x="95.64" y="223.8461538461538">Ly</text></g><g><g><path d="M198.569 174.486C202.569 174.486 207.489 170.766 207.489 166.966C207.489 164.686 205.689 163.206 203.089 163.206C198.169 163.206 194.209 166.846 194.209 170.726C194.209 173.086 196.129 174.486 198.569 174.486Z"></path></g><g><path d="M198.569 164.486C202.569 164.486 207.489 160.766 207.489 156.966C207.489 154.686 205.689 153.206 203.089 153.206C198.169 153.206 194.209 156.846 194.209 160.726C194.209 163.086 196.129 164.486 198.569 164.486Z"></path></g><line stroke="#000000" stroke-width="1.2" x1="206.8888192883888" x2="206.8888192883888" y1="167.0061538461538" y2="127.00615384615381"></line><text font-family="Alegreya" font-size="22" text-anchor="middle" x="200.84881928838877" y="223.8461538461538">rics</text></g><g><g><path d="M303.679 189.486C307.679 189.486 312.599 185.766 312.599 181.966C312.599 179.686 310.799 178.206 308.199 178.206C303.279 178.206 299.319 181.846 299.319 185.726C299.319 188.086 301.239 189.486 303.679 189.486Z"></path></g><g><path d="M303.679 164.486C307.679 164.486 312.599 160.766 312.599 156.966C312.599 154.686 310.799 153.206 308.199 153.206C303.279 153.206 299.319 156.846 299.319 160.726C299.319 163.086 301.239 164.486 303.679 164.486Z"></path></g><line stroke="#000000" stroke-width="1.2" x1="311.9986385767776" x2="311.9986385767776" y1="182.0061538461538" y2="127.00615384615381"></line><text font-family="Alegreya" font-size="22" text-anchor="middle" x="305.95863857677756" y="223.8461538461538">on</text></g><g><g><path d="M422.945 174.486C426.945 174.486 431.865 170.766 431.865 166.966C431.865 164.686 430.065 163.206 427.465 163.206C422.545 163.206 418.585 166.846 418.585 170.726C418.585 173.086 420.505 174.486 422.945 174.486Z"></path></g><g><path d="M422.945 164.486C426.945 164.486 431.865 160.766 431.865 156.966C431.865 154.686 430.065 153.206 427.465 153.206C422.545 153.206 418.585 156.846 418.585 160.726C418.585 163.086 420.505 164.486 422.945 164.486Z"></path></g><line stroke="#000000" stroke-width="1.2" x1="431.26545786516635" x2="431.26545786516635" y1="167.0061538461538" y2="127.00615384615381"></line><text font-family="Alegreya" font-size="22" text-anchor="middle" x="425.22545786516633" y="223.8461538461538">chords</text></g></g></svg>