<?xml version="1.0" encoding="UTF-8" standalone="no"?><svg xmlns="http://www.w3.org/2000/svg" height="279.4mm" viewBox="0 0 1328.6153846153845 1719.3846153846152" width="215.9mm"><g transform="translate(93.84615384615385)"><g><g><line stroke="#6A6A6A" stroke-width="1.3" x1="0" x2="525.7213938631353" y1="183.8461538461538" y2="183.8461538461538"></line><line stroke="#6A6A6A" stroke-width="1.3" x1="0" x2="525.7213938631353" y1="173.8461538461538" y2="173.8461538461538"></line><line stroke="#6A6A6A" stroke-width="1.3" x1="0" x2="525.7213938631353" y1="163.8461538461538" y2="163.8461538461538"></line><line stroke="#6A6A6A" stroke-width="1.3" x1="0" x2="525.7213938631353" y1="153.8461538461538" y2="153.8461538461538"></line><line stroke="#6A6A6A" stroke-width="1.3" x1="0" x2="525.7213938631353" y1="143.8461538461538" y2="143.8461538461538"></line></g><g><path d="M25.200 129.926C24.640 129.926 23.400 130.966 22.600 131.846C19.640 135.126 18.680 140.126 18.680 144.286C18.680 146.606 18.960 149.206 19.240 150.846C19.320 151.326 19.360 151.406 18.880 151.806C16.320 153.926 13.560 156.366 11.480 158.926C8.720 162.366 7 166.086 7 170.366C7 177.326 11.760 183.926 21.560 183.926C22.480 183.926 23.520 183.846 24.320 183.686C24.760 183.606 24.840 183.566 24.920 184.046C25.400 186.726 26 190.206 26 192.086C26 198.006 22 198.726 19.640 198.726C17.480 198.726 16.440 198.086 16.440 197.566C16.440 197.126 16.800 197.166 17.720 196.886C18.960 196.526 20.400 195.446 20.400 193.126C20.400 190.926 19 189.046 16.560 189.046C13.880 189.046 12.280 191.166 12.280 193.646C12.280 196.246 13.840 200.166 19.880 200.166C22.560 200.166 27.760 198.966 27.760 192.166C27.760 189.886 27.040 186.086 26.600 183.606C26.520 183.126 26.560 183.166 27.120 182.926C31.160 181.326 33.840 177.926 33.840 173.406C33.840 168.286 30.080 163.766 24.200 163.766C23.080 163.766 23.200 163.966 23.040 163.046L22.040 157.246C21.960 156.766 22.040 156.726 22.280 156.486C22.920 155.886 23.760 155.046 24.520 154.206C27.880 150.526 29.880 145.766 29.880 141.246C29.880 137.766 28.920 134.326 27.280 131.926C26.680 131.046 25.640 129.926 25.200 129.926ZM20.040 158.086C20.440 157.766 20.520 157.806 20.600 158.246L21.440 163.366C21.560 164.126 21.560 164.086 20.840 164.326C17.320 165.526 15.040 168.686 15.040 172.086C15.040 175.686 16.920 178.246 19.640 179.166C19.960 179.286 20.440 179.406 20.720 179.406C21.040 179.406 21.200 179.206 21.200 178.966C21.200 178.686 20.880 178.566 20.600 178.446C18.920 177.726 17.720 176.006 17.720 174.166C17.720 171.886 19.280 170.166 21.720 169.486C22.360 169.326 22.440 169.366 22.520 169.806L24.520 181.726C24.600 182.166 24.560 182.166 23.960 182.286C23.320 182.406 22.520 182.486 21.720 182.486C14.720 182.486 10.200 178.606 10.200 173.046C10.200 170.686 10.600 167.526 13.920 163.766C16.320 161.086 18.160 159.606 20.040 158.086ZM24.640 169.166C27.880 169.446 30.560 172.166 30.560 175.686C30.560 178.206 29.040 180.246 26.800 181.366C26.320 181.606 26.240 181.606 26.160 181.126L24.200 169.726C24.120 169.246 24.160 169.126 24.640 169.166ZM25.800 136.126C27.120 136.126 28.200 137.206 28.200 139.406C28.200 142.166 26.880 144.726 23.760 147.846C23.120 148.486 22.160 149.406 21.240 150.206C20.960 150.446 20.800 150.406 20.720 149.886C20.560 148.846 20.480 147.486 20.480 146.206C20.480 139.966 23.360 136.126 25.800 136.126Z"></path></g><g></g><path d="M57.820 153.806C56.620 153.806 55.220 154.126 54.140 154.606C50.580 156.166 48.700 160.446 48.700 164.246C48.700 164.606 48.700 164.966 48.740 165.326C48.940 167.486 49.980 169.526 51.300 171.126C52.820 172.966 55.020 173.806 57.420 173.806C64.420 173.806 65.460 167.446 65.460 166.286C65.460 165.406 65.020 165.406 64.860 165.406C64.540 165.406 64.260 165.446 64.260 166.126C64.260 171.286 59.860 172.486 58.580 172.486C55.340 172.486 53.620 169.326 53.620 162.726C53.620 156.126 56.660 154.766 58.820 154.766C60.900 154.766 61.740 155.726 61.740 156.126C61.740 156.486 61.620 157.006 61.020 157.006C59.420 157.006 58.500 158.726 58.500 159.966C58.500 162.246 60.460 162.966 61.580 162.966C61.580 162.966 64.620 162.846 64.620 159.526C64.620 154.286 58.580 153.806 57.820 153.806Z"></path></g><g><line stroke="#000000" stroke-width="1.6" x1="515.9213938631352" x2="515.9213938631352" y1="143.8461538461538" y2="183.8461538461538"></line><line stroke="#000000" stroke-width="5" x1="523.2213938631353" x2="523.2213938631353" y1="143.8461538461538" y2="183.8461538461538"></line></g><g><g><path d="M93.360 179.486C97.360 179.486 102.280 175.766 102.280 171.966C102.280 169.686 100.480 168.206 97.880 168.206C92.960 168.206 89 171.846 89 175.726C89 178.086 90.920 179.486 93.360 179.486Z"></path></g><g><path d="M93.360 164.486C97.360 164.486 102.280 160.766 102.280 156.966C102.280 154.686 100.480 153.206 97.880 153.206C92.960 153.206 89 156.846 89 160.726C89 163.086 90.920 164.486 93.360 164.486Z"></path></g><g><path d="M93.360 144.486C97.360 144.486 102.280 140.766 102.280 136.966C102.280 134.686 100.480 133.206 97.880 133.206C92.960 133.206 89 136.846 89 140.726C89 143.086 90.920 144.486 93.360 144.486Z"></path></g><line stroke="#000000" stroke-width="1.2" x1="89.6" x2="89.6" y1="140.68615384615381" y2="205.68615384615381"></line></g><g><g><path d="M199.890 174.486C203.890 174.486 208.810 170.766 208.810 166.966C208.810 164.686 207.010 163.206 204.410 163.206C199.490 163.206 195.530 166.846 195.530 170.726C195.530 173.086 197.450 174.486 199.890 174.486Z"></path></g><g><path d="M199.890 159.486C203.890 159.486 208.810 155.766 208.810 151.966C208.810 149.686 207.010 148.206 204.410 148.206C199.490 148.206 195.530 151.846 195.530 155.726C195.530 158.086 197.450 159.486 199.890 159.486Z"></path></g><line stroke="#000000" stroke-width="1.2" x1="196.1303484657838" x2="196.1303484657838" y1="155.68615384615381" y2="203.68615384615381"></line></g><g><g><path d="M306.421 179.486C310.421 179.486 315.341 175.766 315.341 171.966C315.341 169.686 313.541 168.206 310.941 168.206C306.021 168.206 302.061 171.846 302.061 175.726C302.061 178.086 303.981 179.486 306.421 179.486Z"></path></g><g><path d="M306.421 159.486C310.421 159.486 315.341 155.766 315.341 151.966C315.341 149.686 313.541 148.206 310.941 148.206C306.021 148.206 302.061 151.846 302.061 155.726C302.061 158.086 303.981 159.486 306.421 159.486Z"></path></g><line stroke="#000000" stroke-width="1.2" x1="302.66069693156766" x2="302.66069693156766" y1="155.68615384615381" y2="208.68615384615381"></line></g><g><g><path d="M412.951 164.486C416.951 164.486 421.871 160.766 421.871 156.966C421.871 154.686 420.071 153.206 417.471 153.206C412.551 153.206 408.591 156.846 408.591 160.726C408.591 163.086 410.511 164.486 412.951 164.486Z"></path></g><line stroke="#000000" stroke-width="1.2" x1="409.19104539735144" x2="409.19104539735144" y1="160.68615384615381" y2="198.68615384615381"></line></g></g></svg>