<?xml version="1.0" encoding="UTF-8" standalone="no"?><svg xmlns="http://www.w3.org/2000/svg" height="279.4mm" viewBox="0 0 1328.6153846153845 1719.3846153846152" width="215.9mm"><g transform="translate(93.84615384615385)"><g><g><line stroke="#6A6A6A" stroke-width="1.3" x1="0" x2="1140.9230769230767" y1="183.8461538461538" y2="183.8461538461538"></line><line stroke="#6A6A6A" stroke-width="1.3" x1="0" x2="1140.9230769230767" y1="173.8461538461538" y2="173.8461538461538"></line><line stroke="#6A6A6A" stroke-width="1.3" x1="0" x2="1140.9230769230767" y1="163.8461538461538" y2="163.8461538461538"></line><line stroke="#6A6A6A" stroke-width="1.3" x1="0" x2="1140.9230769230767" y1="153.8461538461538" y2="153.8461538461538"></line><line stroke="#6A6A6A" stroke-width="1.3" x1="0" x2="1140.9230769230767" y1="143.8461538461538" y2="143.8461538461538"></line></g><g><path d="M25.200 129.926C24.640 129.926 23.400 130.966 22.600 131.846C19.640 135.126 18.680 140.126 18.680 144.286C18.680 146.606 18.960 149.206 19.240 150.846C19.320 151.326 19.360 151.406 18.880 151.806C16.320 153.926 13.560 156.366 11.480 158.926C8.720 162.366 7 166.086 7 170.366C7 177.326 11.760 183.926 21.560 183.926C22.480 183.926 23.520 183.846 24.320 183.686C24.760 183.606 24.840 183.566 24.920 184.046C25.400 186.726 26 190.206 26 192.086C26 198.006 22 198.726 19.640 198.726C17.480 198.726 16.440 198.086 16.440 197.566C16.440 197.126 16.800 197.166 17.720 196.886C18.960 196.526 20.400 195.446 20.400 193.126C20.400 190.926 19 189.046 16.560 189.046C13.880 189.046 12.280 191.166 12.280 193.646C12.280 196.246 13.840 200.166 19.880 200.166C22.560 200.166 27.760 198.966 27.760 192.166C27.760 189.886 27.040 186.086 26.600 183.606C26.520 183.126 26.560 183.166 27.120 182.926C31.160 181.326 33.840 177.926 33.840 173.406C33.840 168.286 30.080 163.766 24.200 163.766C23.080 163.766 23.200 163.966 23.040 163.046L22.040 157.246C21.960 156.766 22.040 156.726 22.280 156.486C22.920 155.886 23.760 155.046 24.520 154.206C27.880 150.526 29.880 145.766 29.880 141.246C29.880 137.766 28.920 134.326 27.280 131.926C26.680 131.046 25.640 129.926 25.200 129.926ZM20.040 158.086C20.440 157.766 20.520 157.806 20.600 158.246L21.440 163.366C21.560 164.126 21.560 164.086 20.840 164.326C17.320 165.526 15.040 168.686 15.040 172.086C15.040 175.686 16.920 178.246 19.640 179.166C19.960 179.286 20.440 179.406 20.720 179.406C21.040 179.406 21.200 179.206 21.200 178.966C21.200 178.686 20.880 178.566 20.600 178.446C18.920 177.726 17.720 176.006 17.720 174.166C17.720 171.886 19.280 170.166 21.720 169.486C22.360 169.326 22.440 169.366 22.520 169.806L24.520 181.726C24.600 182.166 24.560 182.166 23.960 182.286C23.320 182.406 22.520 182.486 21.720 182.486C14.720 182.486 10.200 178.606 10.200 173.046C10.200 170.686 10.600 167.526 13.920 163.766C16.320 161.086 18.160 159.606 20.040 158.086ZM24.640 169.166C27.880 169.446 30.560 172.166 30.560 175.686C30.560 178.206 29.040 180.246 26.800 181.366C26.320 181.606 26.240 181.606 26.160 181.126L24.200 169.726C24.120 169.246 24.160 169.126 24.640 169.166ZM25.800 136.126C27.120 136.126 28.200 137.206 28.200 139.406C28.200 142.166 26.880 144.726 23.760 147.846C23.120 148.486 22.160 149.406 21.240 150.206C20.960 150.446 20.800 150.406 20.720 149.886C20.560 148.846 20.480 147.486 20.480 146.206C20.480 139.966 23.360 136.126 25.800 136.126Z"></path></g><g></g><g><g><path d="M56.380 143.926C56.180 143.926 55.980 143.886 55.780 143.886C52.340 143.886 48.900 146.166 48.900 148.286C48.900 149.606 49.660 151.366 52.140 151.526L52.340 151.526C54.100 151.526 54.980 150.246 54.980 148.926L54.980 148.606C54.860 147.126 53.860 147.046 53.660 146.966C53.460 146.886 52.860 146.966 52.860 146.406L52.860 146.246C52.940 145.566 54.180 145.246 54.540 145.246C57.940 145.246 58.260 147.366 58.260 148.326L58.260 148.606C58.260 151.566 55.900 152.726 53.380 152.846C52.980 152.886 52.420 153.086 52.420 153.526C52.420 154.006 53.100 154.006 53.420 154.006C58.020 154.006 58.380 157.126 58.380 157.646C58.380 161.886 56.220 162.366 55.340 162.366C55.180 162.366 55.020 162.326 54.980 162.326C54.660 162.286 53.900 162.286 53.860 161.686L53.860 161.486C53.860 160.606 54.740 160.006 54.780 158.846C54.780 158.446 54.740 158.006 54.580 157.606C54.140 156.606 52.980 155.966 51.900 155.966C51.740 155.966 51.620 155.966 51.460 156.006C50.780 156.126 50.020 156.526 49.540 157.046C48.860 157.646 48.660 158.606 48.660 159.486C48.740 162.606 51.580 163.806 55.500 163.886L55.860 163.886C59.820 163.886 63.900 161.846 63.900 158.326L63.900 158.046C63.860 157.486 63.780 156.926 63.540 156.406C63.380 156.006 63.100 155.606 62.780 155.246C62.540 154.926 62.220 154.646 61.820 154.406L60.980 153.926L59.660 153.566C59.460 153.526 59.340 153.526 59.260 153.366C59.220 153.286 59.220 153.246 59.220 153.166C59.220 153.006 59.260 152.846 59.380 152.806C59.820 152.686 60.260 152.646 60.620 152.446C61.220 152.166 61.740 151.886 62.180 151.366C62.820 150.646 63.060 149.726 63.060 148.806C63.060 145.126 58.060 144.046 56.380 143.926Z"></path></g><g><path d="M65.180 176.806L62.260 176.806L62.260 168.246C62.260 167.926 62.220 167.566 61.780 167.566C61.420 167.566 61.220 167.646 60.980 167.926L57.180 172.526C57.020 172.726 56.820 172.966 56.820 173.446C56.820 173.446 56.820 175.046 56.820 176.806L51.420 176.806C54.620 174.086 61.020 165.006 61.140 164.566C61.140 164.486 61.180 164.446 61.180 164.366C61.180 164.046 60.900 163.806 60.580 163.806C60.220 163.806 58.580 163.886 57.860 163.886C57.140 163.886 55.340 163.806 55.020 163.806C54.660 163.806 54.100 163.926 54.100 164.566C54.100 169.526 50.180 175.086 48.980 176.766L48.740 177.086C48.740 177.126 48.700 177.166 48.700 177.206C48.620 177.366 48.580 177.526 48.580 177.646C48.580 178.046 48.900 178.326 49.380 178.326L56.820 178.326L56.820 180.846C56.820 181.926 55.940 182.246 55.220 182.246C54.580 182.246 54.300 182.606 54.300 183.006C54.300 183.406 54.460 183.846 55.060 183.846C55.700 183.846 63.580 183.846 63.580 183.846C63.980 183.846 64.380 183.566 64.380 183.006C64.380 182.446 63.900 182.206 63.500 182.206C63.100 182.206 62.260 181.966 62.260 180.686L62.260 178.326C63.980 178.326 65.180 178.326 65.180 178.326C65.580 178.326 65.780 178.046 65.780 177.566C65.780 177.086 65.620 176.806 65.180 176.806Z"></path></g></g></g><g><line stroke="black" stroke-width="1.6" x1="215.35584057090122" x2="215.35584057090122" y1="143.8461538461538" y2="183.8461538461538"></line></g><g><g><path d="M93.360 169.486C97.360 169.486 102.280 165.766 102.280 161.966C102.280 159.686 100.480 158.206 97.880 158.206C92.960 158.206 89 161.846 89 165.726C89 168.086 90.920 169.486 93.360 169.486Z"></path></g><line stroke="#000000" stroke-width="1.2" x1="89.6" x2="89.6" y1="165.68615384615381" y2="199.68615384615381"></line><g><polygon fill="black" points="85.6,219.0061538461538 150.9681859627226,219.0061538461538 150.9681859627226,217.4061538461538 85.6,217.4061538461538" stroke="black" stroke-width="0"></polygon><line fill="black" stroke="black" stroke-width="1.6" x1="86.1" x2="86.1" y1="217.4061538461538" y2="211.0061538461538"></line><line fill="black" stroke="black" stroke-width="1.6" x1="150.4681859627226" x2="150.4681859627226" y1="217.4061538461538" y2="211.0061538461538"></line><g><polygon fill="white" points="106.3640929813613,211.9061538461538 106.3640929813613,226.58615384615382 130.2040929813613,226.58615384615382 130.2040929813613,211.9061538461538" stroke="white" stroke-width="0"></polygon><path d="M115.764 226.186C114.964 226.186 114.324 225.866 114.324 225.466C114.324 225.226 114.524 225.146 114.844 224.986C115.284 224.786 115.844 224.306 115.844 223.266C115.844 222.306 115.164 221.826 114.324 221.826C113.204 221.826 112.364 222.826 112.364 224.146C112.364 225.746 113.644 227.226 116.484 227.226C119.884 227.226 122.684 225.186 122.684 222.026C122.684 221.026 122.164 220.066 121.124 219.546C120.844 219.426 120.684 219.386 120.684 219.186C120.684 218.986 120.844 218.986 121.164 218.826C122.844 218.146 124.204 216.866 124.204 215.266C124.204 213.186 122.204 211.906 119.764 211.906C117.244 211.906 115.164 213.226 115.084 215.386C115.044 216.426 115.684 217.106 116.604 217.106C117.604 217.106 118.404 216.306 118.404 215.226C118.404 214.786 118.244 214.466 118.044 214.226C117.764 213.986 117.564 213.946 117.564 213.706C117.564 213.426 118.044 213.146 118.884 213.146C120.444 213.146 120.964 214.106 120.964 214.986C120.964 217.106 119.604 218.626 117.284 218.626L116.844 218.626C116.324 218.626 116.044 218.866 116.044 219.226C116.044 219.586 116.324 219.826 116.844 219.826L117.244 219.826C118.724 219.826 119.444 220.706 119.444 221.986C119.444 223.746 118.204 226.186 115.764 226.186Z"></path></g></g></g><g><g><path d="M122.044 169.486C126.044 169.486 130.964 165.766 130.964 161.966C130.964 159.686 129.164 158.206 126.564 158.206C121.644 158.206 117.684 161.846 117.684 165.726C117.684 168.086 119.604 169.486 122.044 169.486Z"></path></g><line stroke="#000000" stroke-width="1.2" x1="118.2840929813613" x2="118.2840929813613" y1="165.68615384615381" y2="200.68615384615381"></line></g><g><g><path d="M150.728 169.486C154.728 169.486 159.648 165.766 159.648 161.966C159.648 159.686 157.848 158.206 155.248 158.206C150.328 158.206 146.368 161.846 146.368 165.726C146.368 168.086 148.288 169.486 150.728 169.486Z"></path></g><line stroke="#000000" stroke-width="1.2" x1="146.9681859627226" x2="146.9681859627226" y1="165.68615384615381" y2="199.68615384615381"></line></g><g><path d="M184.372 170.286C182.852 168.446 181.612 166.966 181.612 164.726C181.612 164.566 181.652 164.366 181.652 164.206C181.812 161.886 183.252 159.966 184.292 158.326C184.412 158.126 184.452 157.926 184.452 157.726C184.452 157.326 184.292 156.966 184.292 156.966C184.292 156.966 178.372 149.926 177.692 149.246C177.492 149.046 177.212 148.926 176.972 148.926C176.572 148.926 176.172 149.206 176.172 149.766C176.172 149.966 176.212 150.166 176.332 150.406C176.492 150.846 178.772 152.886 178.772 155.766C178.772 157.246 178.172 158.966 176.372 160.846C175.972 161.246 175.812 161.686 175.812 162.006C175.812 162.566 176.212 162.966 176.212 162.966L178.172 165.366C178.812 166.166 179.372 166.926 179.892 167.766C179.972 167.926 180.132 168.126 180.132 168.326C180.132 168.366 180.132 168.446 180.092 168.486C180.012 168.646 179.852 168.686 179.652 168.686C179.412 168.686 179.172 168.606 179.012 168.566C178.812 168.566 178.572 168.446 178.372 168.446C176.652 168.446 175.092 170.166 175.092 172.286C175.092 174.286 176.812 176.246 179.732 178.486C180.052 178.726 180.452 178.846 180.772 178.846C181.052 178.846 181.332 178.766 181.372 178.606C181.412 178.486 181.452 178.406 181.452 178.326C181.452 177.966 181.132 177.646 180.812 177.366C180.292 177.366 179.852 176.286 179.772 175.926C179.652 175.606 179.612 175.246 179.612 174.886C179.612 173.646 180.212 172.246 181.492 172.006C181.692 171.966 181.892 171.966 182.132 171.966C183.292 171.966 184.612 172.406 185.252 172.646C185.292 172.646 185.332 172.686 185.372 172.686C185.492 172.726 185.572 172.726 185.652 172.726C185.772 172.726 185.852 172.686 185.852 172.566C185.852 172.086 184.812 170.766 184.372 170.286Z"></path></g></g><g transform="translate(325.001994417055)"><g></g><g><line stroke="black" stroke-width="1.6" x1="119.31068488045187" x2="119.31068488045187" y1="143.8461538461538" y2="183.8461538461538"></line></g><g><g><path d="M4.360 169.486C8.360 169.486 13.280 165.766 13.280 161.966C13.280 159.686 11.480 158.206 8.880 158.206C3.960 158.206 0 161.846 0 165.726C0 168.086 1.920 169.486 4.360 169.486Z"></path></g><line stroke="#000000" stroke-width="1.2" x1="0.6" x2="0.6" y1="165.68615384615381" y2="200.68615384615381"></line></g><g><g><path d="M43.864 169.486C47.864 169.486 52.784 165.766 52.784 161.966C52.784 159.686 50.984 158.206 48.384 158.206C43.464 158.206 39.504 161.846 39.504 165.726C39.504 168.086 41.424 169.486 43.864 169.486Z"></path></g><line stroke="#000000" stroke-width="1.2" x1="40.103561626817296" x2="40.103561626817296" y1="165.68615384615381" y2="200.68615384615381"></line></g><g><g><path d="M83.367 169.486C87.367 169.486 92.287 165.766 92.287 161.966C92.287 159.686 90.487 158.206 87.887 158.206C82.967 158.206 79.007 161.846 79.007 165.726C79.007 168.086 80.927 169.486 83.367 169.486Z"></path></g><line stroke="#000000" stroke-width="1.2" x1="79.60712325363458" x2="79.60712325363458" y1="165.68615384615381" y2="200.68615384615381"></line></g></g><g transform="translate(460.1126792975069)"><g></g><g><line stroke="black" stroke-width="1.6" x1="119.31068488045187" x2="119.31068488045187" y1="143.8461538461538" y2="183.8461538461538"></line></g><g><g><path d="M4.360 169.486C8.360 169.486 13.280 165.766 13.280 161.966C13.280 159.686 11.480 158.206 8.880 158.206C3.960 158.206 0 161.846 0 165.726C0 168.086 1.920 169.486 4.360 169.486Z"></path></g><line stroke="#000000" stroke-width="1.2" x1="0.6" x2="0.6" y1="165.68615384615381" y2="200.68615384615381"></line></g><g><g><path d="M43.864 169.486C47.864 169.486 52.784 165.766 52.784 161.966C52.784 159.686 50.984 158.206 48.384 158.206C43.464 158.206 39.504 161.846 39.504 165.726C39.504 168.086 41.424 169.486 43.864 169.486Z"></path></g><line stroke="#000000" stroke-width="1.2" x1="40.103561626817296" x2="40.103561626817296" y1="165.68615384615381" y2="200.68615384615381"></line></g><g><g><path d="M83.367 169.486C87.367 169.486 92.287 165.766 92.287 161.966C92.287 159.686 90.487 158.206 87.887 158.206C82.967 158.206 79.007 161.846 79.007 165.726C79.007 168.086 80.927 169.486 83.367 169.486Z"></path></g><line stroke="#000000" stroke-width="1.2" x1="79.60712325363458" x2="79.60712325363458" y1="165.68615384615381" y2="200.68615384615381"></line></g></g><g transform="translate(595.2233641779587)"><g></g><g><line stroke="black" stroke-width="1.6" x1="119.31068488045187" x2="119.31068488045187" y1="143.8461538461538" y2="183.8461538461538"></line></g><g><g><path d="M4.360 169.486C8.360 169.486 13.280 165.766 13.280 161.966C13.280 159.686 11.480 158.206 8.880 158.206C3.960 158.206 0 161.846 0 165.726C0 168.086 1.920 169.486 4.360 169.486Z"></path></g><line stroke="#000000" stroke-width="1.2" x1="0.6" x2="0.6" y1="165.68615384615381" y2="200.68615384615381"></line></g><g><g><path d="M43.864 169.486C47.864 169.486 52.784 165.766 52.784 161.966C52.784 159.686 50.984 158.206 48.384 158.206C43.464 158.206 39.504 161.846 39.504 165.726C39.504 168.086 41.424 169.486 43.864 169.486Z"></path></g><line stroke="#000000" stroke-width="1.2" x1="40.103561626817296" x2="40.103561626817296" y1="165.68615384615381" y2="200.68615384615381"></line></g><g><g><path d="M83.367 169.486C87.367 169.486 92.287 165.766 92.287 161.966C92.287 159.686 90.487 158.206 87.887 158.206C82.967 158.206 79.007 161.846 79.007 165.726C79.007 168.086 80.927 169.486 83.367 169.486Z"></path></g><line stroke="#000000" stroke-width="1.2" x1="79.60712325363458" x2="79.60712325363458" y1="165.68615384615381" y2="200.68615384615381"></line></g></g><g transform="translate(730.3340490584106)"><g></g><g><line stroke="black" stroke-width="1.6" x1="119.31068488045187" x2="119.31068488045187" y1="143.8461538461538" y2="183.8461538461538"></line></g><g><g><path d="M4.360 169.486C8.360 169.486 13.280 165.766 13.280 161.966C13.280 159.686 11.480 158.206 8.880 158.206C3.960 158.206 0 161.846 0 165.726C0 168.086 1.920 169.486 4.360 169.486Z"></path></g><line stroke="#000000" stroke-width="1.2" x1="0.6" x2="0.6" y1="165.68615384615381" y2="200.68615384615381"></line></g><g><g><path d="M43.864 169.486C47.864 169.486 52.784 165.766 52.784 161.966C52.784 159.686 50.984 158.206 48.384 158.206C43.464 158.206 39.504 161.846 39.504 165.726C39.504 168.086 41.424 169.486 43.864 169.486Z"></path></g><line stroke="#000000" stroke-width="1.2" x1="40.103561626817296" x2="40.103561626817296" y1="165.68615384615381" y2="200.68615384615381"></line></g><g><g><path d="M83.367 169.486C87.367 169.486 92.287 165.766 92.287 161.966C92.287 159.686 90.487 158.206 87.887 158.206C82.967 158.206 79.007 161.846 79.007 165.726C79.007 168.086 80.927 169.486 83.367 169.486Z"></path></g><line stroke="#000000" stroke-width="1.2" x1="79.60712325363458" x2="79.60712325363458" y1="165.68615384615381" y2="200.68615384615381"></line></g></g><g transform="translate(865.4447339388624)"><g></g><g><line stroke="black" stroke-width="1.6" x1="119.31068488045187" x2="119.31068488045187" y1="143.8461538461538" y2="183.8461538461538"></line></g><g><g><path d="M4.360 169.486C8.360 169.486 13.280 165.766 13.280 161.966C13.280 159.686 11.480 158.206 8.880 158.206C3.960 158.206 0 161.846 0 165.726C0 168.086 1.920 169.486 4.360 169.486Z"></path></g><line stroke="#000000" stroke-width="1.2" x1="0.6" x2="0.6" y1="165.68615384615381" y2="200.68615384615381"></line></g><g><g><path d="M43.864 169.486C47.864 169.486 52.784 165.766 52.784 161.966C52.784 159.686 50.984 158.206 48.384 158.206C43.464 158.206 39.504 161.846 39.504 165.726C39.504 168.086 41.424 169.486 43.864 169.486Z"></path></g><line stroke="#000000" stroke-width="1.2" x1="40.103561626817296" x2="40.103561626817296" y1="165.68615384615381" y2="200.68615384615381"></line></g><g><g><path d="M83.367 169.486C87.367 169.486 92.287 165.766 92.287 161.966C92.287 159.686 90.487 158.206 87.887 158.206C82.967 158.206 79.007 161.846 79.007 165.726C79.007 168.086 80.927 169.486 83.367 169.486Z"></path></g><line stroke="#000000" stroke-width="1.2" x1="79.60712325363458" x2="79.60712325363458" y1="165.68615384615381" y2="200.68615384615381"></line></g></g><g transform="translate(1000.5554188193144)"><g></g><g><line stroke="black" stroke-width="1.6" x1="98.3031270694646" x2="98.3031270694646" y1="143.8461538461538" y2="183.8461538461538"></line></g><g><g><path d="M4.360 169.486C8.360 169.486 13.280 165.766 13.280 161.966C13.280 159.686 11.480 158.206 8.880 158.206C3.960 158.206 0 161.846 0 165.726C0 168.086 1.920 169.486 4.360 169.486Z"></path></g><line stroke="#000000" stroke-width="1.2" x1="0.6" x2="0.6" y1="165.68615384615381" y2="200.68615384615381"></line></g><g><path d="M50.784 162.886L50.784 159.206C50.784 158.606 50.304 158.166 49.744 158.166L40.544 158.166C39.944 158.166 39.504 158.606 39.504 159.206L39.504 162.886C39.504 163.446 39.944 163.926 40.544 163.926L49.744 163.926C50.304 163.926 50.784 163.446 50.784 162.886Z"></path></g></g><g transform="translate(1114.658545888779)"><g></g><g><line stroke="black" stroke-width="1.6" x1="119.31068488045187" x2="119.31068488045187" y1="143.8461538461538" y2="183.8461538461538"></line></g><g><g><path d="M4.360 134.486C8.360 134.486 13.280 130.766 13.280 126.966C13.280 124.686 11.480 123.206 8.880 123.206C3.960 123.206 0 126.846 0 130.726C0 133.086 1.920 134.486 4.360 134.486Z"></path></g><line stroke="#000000" stroke-width="1.2" x1="0.6" x2="0.6" y1="130.68615384615381" y2="168.68615384615381"></line><line stroke="#000000" stroke-width="2.2" x1="-3.2" x2="18.72" y1="133.8461538461538" y2="133.8461538461538"></line></g><g><g><path d="M43.864 134.486C47.864 134.486 52.784 130.766 52.784 126.966C52.784 124.686 50.984 123.206 48.384 123.206C43.464 123.206 39.504 126.846 39.504 130.726C39.504 133.086 41.424 134.486 43.864 134.486Z"></path></g><line stroke="#000000" stroke-width="1.2" x1="40.103561626817296" x2="40.103561626817296" y1="130.68615384615381" y2="168.68615384615381"></line><line stroke="#000000" stroke-width="2.2" x1="36.30356162681729" x2="58.223561626817286" y1="133.8461538461538" y2="133.8461538461538"></line></g><g><g><path d="M83.367 134.486C87.367 134.486 92.287 130.766 92.287 126.966C92.287 124.686 90.487 123.206 87.887 123.206C82.967 123.206 79.007 126.846 79.007 130.726C79.007 133.086 80.927 134.486 83.367 134.486Z"></path></g><line stroke="#000000" stroke-width="1.2" x1="79.60712325363458" x2="79.60712325363458" y1="130.68615384615381" y2="168.68615384615381"></line><line stroke="#000000" stroke-width="2.2" x1="75.80712325363459" x2="97.72712325363459" y1="133.8461538461538" y2="133.8461538461538"></line></g></g><g transform="translate(93.84615384615385)"><g><g><line stroke="#6A6A6A" stroke-width="1.3" x1="0" x2="1140.923076923077" y1="314.8461538461538" y2="314.8461538461538"></line><line stroke="#6A6A6A" stroke-width="1.3" x1="0" x2="1140.923076923077" y1="304.8461538461538" y2="304.8461538461538"></line><line stroke="#6A6A6A" stroke-width="1.3" x1="0" x2="1140.923076923077" y1="294.8461538461538" y2="294.8461538461538"></line><line stroke="#6A6A6A" stroke-width="1.3" x1="0" x2="1140.923076923077" y1="284.8461538461538" y2="284.8461538461538"></line><line stroke="#6A6A6A" stroke-width="1.3" x1="0" x2="1140.923076923077" y1="274.8461538461538" y2="274.8461538461538"></line></g><g><path d="M25.200 260.926C24.640 260.926 23.400 261.966 22.600 262.846C19.640 266.126 18.680 271.126 18.680 275.286C18.680 277.606 18.960 280.206 19.240 281.846C19.320 282.326 19.360 282.406 18.880 282.806C16.320 284.926 13.560 287.366 11.480 289.926C8.720 293.366 7 297.086 7 301.366C7 308.326 11.760 314.926 21.560 314.926C22.480 314.926 23.520 314.846 24.320 314.686C24.760 314.606 24.840 314.566 24.920 315.046C25.400 317.726 26 321.206 26 323.086C26 329.006 22 329.726 19.640 329.726C17.480 329.726 16.440 329.086 16.440 328.566C16.440 328.126 16.800 328.166 17.720 327.886C18.960 327.526 20.400 326.446 20.400 324.126C20.400 321.926 19 320.046 16.560 320.046C13.880 320.046 12.280 322.166 12.280 324.646C12.280 327.246 13.840 331.166 19.880 331.166C22.560 331.166 27.760 329.966 27.760 323.166C27.760 320.886 27.040 317.086 26.600 314.606C26.520 314.126 26.560 314.166 27.120 313.926C31.160 312.326 33.840 308.926 33.840 304.406C33.840 299.286 30.080 294.766 24.200 294.766C23.080 294.766 23.200 294.966 23.040 294.046L22.040 288.246C21.960 287.766 22.040 287.726 22.280 287.486C22.920 286.886 23.760 286.046 24.520 285.206C27.880 281.526 29.880 276.766 29.880 272.246C29.880 268.766 28.920 265.326 27.280 262.926C26.680 262.046 25.640 260.926 25.200 260.926ZM20.040 289.086C20.440 288.766 20.520 288.806 20.600 289.246L21.440 294.366C21.560 295.126 21.560 295.086 20.840 295.326C17.320 296.526 15.040 299.686 15.040 303.086C15.040 306.686 16.920 309.246 19.640 310.166C19.960 310.286 20.440 310.406 20.720 310.406C21.040 310.406 21.200 310.206 21.200 309.966C21.200 309.686 20.880 309.566 20.600 309.446C18.920 308.726 17.720 307.006 17.720 305.166C17.720 302.886 19.280 301.166 21.720 300.486C22.360 300.326 22.440 300.366 22.520 300.806L24.520 312.726C24.600 313.166 24.560 313.166 23.960 313.286C23.320 313.406 22.520 313.486 21.720 313.486C14.720 313.486 10.200 309.606 10.200 304.046C10.200 301.686 10.600 298.526 13.920 294.766C16.320 292.086 18.160 290.606 20.040 289.086ZM24.640 300.166C27.880 300.446 30.560 303.166 30.560 306.686C30.560 309.206 29.040 311.246 26.800 312.366C26.320 312.606 26.240 312.606 26.160 312.126L24.200 300.726C24.120 300.246 24.160 300.126 24.640 300.166ZM25.800 267.126C27.120 267.126 28.200 268.206 28.200 270.406C28.200 273.166 26.880 275.726 23.760 278.846C23.120 279.486 22.160 280.406 21.240 281.206C20.960 281.446 20.800 281.406 20.720 280.886C20.560 279.846 20.480 278.486 20.480 277.206C20.480 270.966 23.360 267.126 25.800 267.126Z"></path></g><g></g><text font-family='Alegreya' font-style='italic' text-anchor='end' stroke='#7a7a7a' font-size="24" x="0" y="264.8461538461538">9</text></g><g><line stroke="black" stroke-width="1.6" x1="155.74700854700853" x2="155.74700854700853" y1="274.8461538461538" y2="314.8461538461538"></line></g><g><g><path d="M52.860 370.486C56.860 370.486 61.780 366.766 61.780 362.966C61.780 360.686 59.980 359.206 57.380 359.206C52.460 359.206 48.500 362.846 48.500 366.726C48.500 369.086 50.420 370.486 52.860 370.486Z"></path></g><line stroke="#000000" stroke-width="1.2" x1="61.18" x2="61.18" y1="363.00615384615384" y2="290.00615384615384"></line><line stroke="#000000" stroke-width="2.2" x1="45.3" x2="67.22" y1="324.8461538461538" y2="324.8461538461538"></line><line stroke="#000000" stroke-width="2.2" x1="45.3" x2="67.22" y1="334.8461538461538" y2="334.8461538461538"></line><line stroke="#000000" stroke-width="2.2" x1="45.3" x2="67.22" y1="344.8461538461538" y2="344.8461538461538"></line><line stroke="#000000" stroke-width="2.2" x1="45.3" x2="67.22" y1="354.8461538461538" y2="354.8461538461538"></line><line stroke="#000000" stroke-width="2.2" x1="45.3" x2="67.22" y1="364.8461538461538" y2="364.8461538461538"></line></g><g><g><path d="M88.342 370.486C92.342 370.486 97.262 366.766 97.262 362.966C97.262 360.686 95.462 359.206 92.862 359.206C87.942 359.206 83.982 362.846 83.982 366.726C83.982 369.086 85.902 370.486 88.342 370.486Z"></path></g><line stroke="#000000" stroke-width="1.2" x1="96.66233618233619" x2="96.66233618233619" y1="363.00615384615384" y2="290.00615384615384"></line><line stroke="#000000" stroke-width="2.2" x1="80.78233618233618" x2="102.70233618233618" y1="324.8461538461538" y2="324.8461538461538"></line><line stroke="#000000" stroke-width="2.2" x1="80.78233618233618" x2="102.70233618233618" y1="334.8461538461538" y2="334.8461538461538"></line><line stroke="#000000" stroke-width="2.2" x1="80.78233618233618" x2="102.70233618233618" y1="344.8461538461538" y2="344.8461538461538"></line><line stroke="#000000" stroke-width="2.2" x1="80.78233618233618" x2="102.70233618233618" y1="354.8461538461538" y2="354.8461538461538"></line><line stroke="#000000" stroke-width="2.2" x1="80.78233618233618" x2="102.70233618233618" y1="364.8461538461538" y2="364.8461538461538"></line></g><g><g><path d="M123.825 370.486C127.825 370.486 132.745 366.766 132.745 362.966C132.745 360.686 130.945 359.206 128.345 359.206C123.425 359.206 119.465 362.846 119.465 366.726C119.465 369.086 121.385 370.486 123.825 370.486Z"></path></g><line stroke="#000000" stroke-width="1.2" x1="132.14467236467235" x2="132.14467236467235" y1="363.00615384615384" y2="290.00615384615384"></line><line stroke="#000000" stroke-width="2.2" x1="116.26467236467235" x2="138.18467236467237" y1="324.8461538461538" y2="324.8461538461538"></line><line stroke="#000000" stroke-width="2.2" x1="116.26467236467235" x2="138.18467236467237" y1="334.8461538461538" y2="334.8461538461538"></line><line stroke="#000000" stroke-width="2.2" x1="116.26467236467235" x2="138.18467236467237" y1="344.8461538461538" y2="344.8461538461538"></line><line stroke="#000000" stroke-width="2.2" x1="116.26467236467235" x2="138.18467236467237" y1="354.8461538461538" y2="354.8461538461538"></line><line stroke="#000000" stroke-width="2.2" x1="116.26467236467235" x2="138.18467236467237" y1="364.8461538461538" y2="364.8461538461538"></line></g></g><g transform="translate(265.39316239316236)"><g></g><g><line stroke="black" stroke-width="1.6" x1="107.24700854700853" x2="107.24700854700853" y1="274.8461538461538" y2="314.8461538461538"></line></g><g><g><path d="M4.360 300.486C8.360 300.486 13.280 296.766 13.280 292.966C13.280 290.686 11.480 289.206 8.880 289.206C3.960 289.206 0 292.846 0 296.726C0 299.086 1.920 300.486 4.360 300.486Z"></path></g><line stroke="#000000" stroke-width="1.2" x1="0.6" x2="0.6" y1="296.6861538461538" y2="331.6861538461538"></line></g><g><g><path d="M39.842 300.486C43.842 300.486 48.762 296.766 48.762 292.966C48.762 290.686 46.962 289.206 44.362 289.206C39.442 289.206 35.482 292.846 35.482 296.726C35.482 299.086 37.402 300.486 39.842 300.486Z"></path></g><line stroke="#000000" stroke-width="1.2" x1="36.08233618233618" x2="36.08233618233618" y1="296.6861538461538" y2="331.6861538461538"></line></g><g><g><path d="M75.325 300.486C79.325 300.486 84.245 296.766 84.245 292.966C84.245 290.686 82.445 289.206 79.845 289.206C74.925 289.206 70.965 292.846 70.965 296.726C70.965 299.086 72.885 300.486 75.325 300.486Z"></path></g><line stroke="#000000" stroke-width="1.2" x1="71.56467236467235" x2="71.56467236467235" y1="296.6861538461538" y2="331.6861538461538"></line></g></g><g transform="translate(388.4401709401709)"><g></g><g><line stroke="black" stroke-width="1.6" x1="107.24700854700853" x2="107.24700854700853" y1="274.8461538461538" y2="314.8461538461538"></line></g><g><g><path d="M4.360 300.486C8.360 300.486 13.280 296.766 13.280 292.966C13.280 290.686 11.480 289.206 8.880 289.206C3.960 289.206 0 292.846 0 296.726C0 299.086 1.920 300.486 4.360 300.486Z"></path></g><line stroke="#000000" stroke-width="1.2" x1="0.6" x2="0.6" y1="296.6861538461538" y2="331.6861538461538"></line></g><g><g><path d="M39.842 300.486C43.842 300.486 48.762 296.766 48.762 292.966C48.762 290.686 46.962 289.206 44.362 289.206C39.442 289.206 35.482 292.846 35.482 296.726C35.482 299.086 37.402 300.486 39.842 300.486Z"></path></g><line stroke="#000000" stroke-width="1.2" x1="36.08233618233618" x2="36.08233618233618" y1="296.6861538461538" y2="331.6861538461538"></line></g><g><g><path d="M75.325 300.486C79.325 300.486 84.245 296.766 84.245 292.966C84.245 290.686 82.445 289.206 79.845 289.206C74.925 289.206 70.965 292.846 70.965 296.726C70.965 299.086 72.885 300.486 75.325 300.486Z"></path></g><line stroke="#000000" stroke-width="1.2" x1="71.56467236467235" x2="71.56467236467235" y1="296.6861538461538" y2="331.6861538461538"></line></g></g><g transform="translate(511.4871794871795)"><g></g><g><line stroke="black" stroke-width="1.6" x1="107.24700854700853" x2="107.24700854700853" y1="274.8461538461538" y2="314.8461538461538"></line></g><g><g><path d="M4.360 300.486C8.360 300.486 13.280 296.766 13.280 292.966C13.280 290.686 11.480 289.206 8.880 289.206C3.960 289.206 0 292.846 0 296.726C0 299.086 1.920 300.486 4.360 300.486Z"></path></g><line stroke="#000000" stroke-width="1.2" x1="0.6" x2="0.6" y1="296.6861538461538" y2="331.6861538461538"></line></g><g><g><path d="M39.842 300.486C43.842 300.486 48.762 296.766 48.762 292.966C48.762 290.686 46.962 289.206 44.362 289.206C39.442 289.206 35.482 292.846 35.482 296.726C35.482 299.086 37.402 300.486 39.842 300.486Z"></path></g><line stroke="#000000" stroke-width="1.2" x1="36.08233618233618" x2="36.08233618233618" y1="296.6861538461538" y2="331.6861538461538"></line></g><g><g><path d="M75.325 300.486C79.325 300.486 84.245 296.766 84.245 292.966C84.245 290.686 82.445 289.206 79.845 289.206C74.925 289.206 70.965 292.846 70.965 296.726C70.965 299.086 72.885 300.486 75.325 300.486Z"></path></g><line stroke="#000000" stroke-width="1.2" x1="71.56467236467235" x2="71.56467236467235" y1="296.6861538461538" y2="331.6861538461538"></line></g></g><g transform="translate(634.534188034188)"><g></g><g><line stroke="black" stroke-width="1.6" x1="107.24700854700853" x2="107.24700854700853" y1="274.8461538461538" y2="314.8461538461538"></line></g><g><g><path d="M4.360 300.486C8.360 300.486 13.280 296.766 13.280 292.966C13.280 290.686 11.480 289.206 8.880 289.206C3.960 289.206 0 292.846 0 296.726C0 299.086 1.920 300.486 4.360 300.486Z"></path></g><line stroke="#000000" stroke-width="1.2" x1="0.6" x2="0.6" y1="296.6861538461538" y2="331.6861538461538"></line></g><g><g><path d="M39.842 300.486C43.842 300.486 48.762 296.766 48.762 292.966C48.762 290.686 46.962 289.206 44.362 289.206C39.442 289.206 35.482 292.846 35.482 296.726C35.482 299.086 37.402 300.486 39.842 300.486Z"></path></g><line stroke="#000000" stroke-width="1.2" x1="36.08233618233618" x2="36.08233618233618" y1="296.6861538461538" y2="331.6861538461538"></line></g><g><g><path d="M75.325 300.486C79.325 300.486 84.245 296.766 84.245 292.966C84.245 290.686 82.445 289.206 79.845 289.206C74.925 289.206 70.965 292.846 70.965 296.726C70.965 299.086 72.885 300.486 75.325 300.486Z"></path></g><line stroke="#000000" stroke-width="1.2" x1="71.56467236467235" x2="71.56467236467235" y1="296.6861538461538" y2="331.6861538461538"></line></g></g><g transform="translate(757.5811965811967)"><g></g><g><line stroke="black" stroke-width="1.6" x1="107.24700854700853" x2="107.24700854700853" y1="274.8461538461538" y2="314.8461538461538"></line></g><g><g><path d="M4.360 300.486C8.360 300.486 13.280 296.766 13.280 292.966C13.280 290.686 11.480 289.206 8.880 289.206C3.960 289.206 0 292.846 0 296.726C0 299.086 1.920 300.486 4.360 300.486Z"></path></g><line stroke="#000000" stroke-width="1.2" x1="0.6" x2="0.6" y1="296.6861538461538" y2="331.6861538461538"></line></g><g><g><path d="M39.842 300.486C43.842 300.486 48.762 296.766 48.762 292.966C48.762 290.686 46.962 289.206 44.362 289.206C39.442 289.206 35.482 292.846 35.482 296.726C35.482 299.086 37.402 300.486 39.842 300.486Z"></path></g><line stroke="#000000" stroke-width="1.2" x1="36.08233618233618" x2="36.08233618233618" y1="296.6861538461538" y2="331.6861538461538"></line></g><g><g><path d="M75.325 300.486C79.325 300.486 84.245 296.766 84.245 292.966C84.245 290.686 82.445 289.206 79.845 289.206C74.925 289.206 70.965 292.846 70.965 296.726C70.965 299.086 72.885 300.486 75.325 300.486Z"></path></g><line stroke="#000000" stroke-width="1.2" x1="71.56467236467235" x2="71.56467236467235" y1="296.6861538461538" y2="331.6861538461538"></line></g></g><g transform="translate(880.6282051282052)"><g></g><g><line stroke="black" stroke-width="1.6" x1="107.24700854700853" x2="107.24700854700853" y1="274.8461538461538" y2="314.8461538461538"></line></g><g><g><path d="M4.360 300.486C8.360 300.486 13.280 296.766 13.280 292.966C13.280 290.686 11.480 289.206 8.880 289.206C3.960 289.206 0 292.846 0 296.726C0 299.086 1.920 300.486 4.360 300.486Z"></path></g><line stroke="#000000" stroke-width="1.2" x1="0.6" x2="0.6" y1="296.6861538461538" y2="331.6861538461538"></line></g><g><g><path d="M39.842 300.486C43.842 300.486 48.762 296.766 48.762 292.966C48.762 290.686 46.962 289.206 44.362 289.206C39.442 289.206 35.482 292.846 35.482 296.726C35.482 299.086 37.402 300.486 39.842 300.486Z"></path></g><line stroke="#000000" stroke-width="1.2" x1="36.08233618233618" x2="36.08233618233618" y1="296.6861538461538" y2="331.6861538461538"></line></g><g><g><path d="M75.325 300.486C79.325 300.486 84.245 296.766 84.245 292.966C84.245 290.686 82.445 289.206 79.845 289.206C74.925 289.206 70.965 292.846 70.965 296.726C70.965 299.086 72.885 300.486 75.325 300.486Z"></path></g><line stroke="#000000" stroke-width="1.2" x1="71.56467236467235" x2="71.56467236467235" y1="296.6861538461538" y2="331.6861538461538"></line></g></g><g transform="translate(1003.6752136752137)"><g></g><g><line stroke="black" stroke-width="1.6" x1="107.24700854700853" x2="107.24700854700853" y1="274.8461538461538" y2="314.8461538461538"></line></g><g><g><path d="M4.360 300.486C8.360 300.486 13.280 296.766 13.280 292.966C13.280 290.686 11.480 289.206 8.880 289.206C3.960 289.206 0 292.846 0 296.726C0 299.086 1.920 300.486 4.360 300.486Z"></path></g><line stroke="#000000" stroke-width="1.2" x1="0.6" x2="0.6" y1="296.6861538461538" y2="331.6861538461538"></line></g><g><g><path d="M39.842 280.486C43.842 280.486 48.762 276.766 48.762 272.966C48.762 270.686 46.962 269.206 44.362 269.206C39.442 269.206 35.482 272.846 35.482 276.726C35.482 279.086 37.402 280.486 39.842 280.486Z"></path></g><line stroke="#000000" stroke-width="1.2" x1="36.08233618233618" x2="36.08233618233618" y1="276.6861538461538" y2="311.6861538461538"></line></g><g><path d="M80.285 301.286C78.765 299.446 77.525 297.966 77.525 295.726C77.525 295.566 77.565 295.366 77.565 295.206C77.725 292.886 79.165 290.966 80.205 289.326C80.325 289.126 80.365 288.926 80.365 288.726C80.365 288.326 80.205 287.966 80.205 287.966C80.205 287.966 74.285 280.926 73.605 280.246C73.405 280.046 73.125 279.926 72.885 279.926C72.485 279.926 72.085 280.206 72.085 280.766C72.085 280.966 72.125 281.166 72.245 281.406C72.405 281.846 74.685 283.886 74.685 286.766C74.685 288.246 74.085 289.966 72.285 291.846C71.885 292.246 71.725 292.686 71.725 293.006C71.725 293.566 72.125 293.966 72.125 293.966L74.085 296.366C74.725 297.166 75.285 297.926 75.805 298.766C75.885 298.926 76.045 299.126 76.045 299.326C76.045 299.366 76.045 299.446 76.005 299.486C75.925 299.646 75.765 299.686 75.565 299.686C75.325 299.686 75.085 299.606 74.925 299.566C74.725 299.566 74.485 299.446 74.285 299.446C72.565 299.446 71.005 301.166 71.005 303.286C71.005 305.286 72.725 307.246 75.645 309.486C75.965 309.726 76.365 309.846 76.685 309.846C76.965 309.846 77.245 309.766 77.285 309.606C77.325 309.486 77.365 309.406 77.365 309.326C77.365 308.966 77.045 308.646 76.725 308.366C76.205 308.366 75.765 307.286 75.685 306.926C75.565 306.606 75.525 306.246 75.525 305.886C75.525 304.646 76.125 303.246 77.405 303.006C77.605 302.966 77.805 302.966 78.045 302.966C79.205 302.966 80.525 303.406 81.165 303.646C81.205 303.646 81.245 303.686 81.285 303.686C81.405 303.726 81.485 303.726 81.565 303.726C81.685 303.726 81.765 303.686 81.765 303.566C81.765 303.086 80.725 301.766 80.285 301.286Z"></path></g></g><g transform="translate(1126.7222222222222)"><g></g><g><line stroke="black" stroke-width="1.6" x1="107.24700854700853" x2="107.24700854700853" y1="274.8461538461538" y2="314.8461538461538"></line></g><g><g><path d="M4.360 300.486C8.360 300.486 13.280 296.766 13.280 292.966C13.280 290.686 11.480 289.206 8.880 289.206C3.960 289.206 0 292.846 0 296.726C0 299.086 1.920 300.486 4.360 300.486Z"></path></g><line stroke="#000000" stroke-width="1.2" x1="0.6" x2="0.6" y1="296.6861538461538" y2="331.6861538461538"></line></g><g><g><path d="M39.842 295.486C43.842 295.486 48.762 291.766 48.762 287.966C48.762 285.686 46.962 284.206 44.362 284.206C39.442 284.206 35.482 287.846 35.482 291.726C35.482 294.086 37.402 295.486 39.842 295.486Z"></path></g><line stroke="#000000" stroke-width="1.2" x1="36.08233618233618" x2="36.08233618233618" y1="291.6861538461538" y2="329.6861538461538"></line></g><g><path d="M80.285 301.286C78.765 299.446 77.525 297.966 77.525 295.726C77.525 295.566 77.565 295.366 77.565 295.206C77.725 292.886 79.165 290.966 80.205 289.326C80.325 289.126 80.365 288.926 80.365 288.726C80.365 288.326 80.205 287.966 80.205 287.966C80.205 287.966 74.285 280.926 73.605 280.246C73.405 280.046 73.125 279.926 72.885 279.926C72.485 279.926 72.085 280.206 72.085 280.766C72.085 280.966 72.125 281.166 72.245 281.406C72.405 281.846 74.685 283.886 74.685 286.766C74.685 288.246 74.085 289.966 72.285 291.846C71.885 292.246 71.725 292.686 71.725 293.006C71.725 293.566 72.125 293.966 72.125 293.966L74.085 296.366C74.725 297.166 75.285 297.926 75.805 298.766C75.885 298.926 76.045 299.126 76.045 299.326C76.045 299.366 76.045 299.446 76.005 299.486C75.925 299.646 75.765 299.686 75.565 299.686C75.325 299.686 75.085 299.606 74.925 299.566C74.725 299.566 74.485 299.446 74.285 299.446C72.565 299.446 71.005 301.166 71.005 303.286C71.005 305.286 72.725 307.246 75.645 309.486C75.965 309.726 76.365 309.846 76.685 309.846C76.965 309.846 77.245 309.766 77.285 309.606C77.325 309.486 77.365 309.406 77.365 309.326C77.365 308.966 77.045 308.646 76.725 308.366C76.205 308.366 75.765 307.286 75.685 306.926C75.565 306.606 75.525 306.246 75.525 305.886C75.525 304.646 76.125 303.246 77.405 303.006C77.605 302.966 77.805 302.966 78.045 302.966C79.205 302.966 80.525 303.406 81.165 303.646C81.205 303.646 81.245 303.686 81.285 303.686C81.405 303.726 81.485 303.726 81.565 303.726C81.685 303.726 81.765 303.686 81.765 303.566C81.765 303.086 80.725 301.766 80.285 301.286Z"></path></g></g><g transform="translate(93.84615384615385)"><g><g><line stroke="#6A6A6A" stroke-width="1.3" x1="0" x2="949.1658687618633" y1="490.8461538461538" y2="490.8461538461538"></line><line stroke="#6A6A6A" stroke-width="1.3" x1="0" x2="949.1658687618633" y1="480.8461538461538" y2="480.8461538461538"></line><line stroke="#6A6A6A" stroke-width="1.3" x1="0" x2="949.1658687618633" y1="470.8461538461538" y2="470.8461538461538"></line><line stroke="#6A6A6A" stroke-width="1.3" x1="0" x2="949.1658687618633" y1="460.8461538461538" y2="460.8461538461538"></line><line stroke="#6A6A6A" stroke-width="1.3" x1="0" x2="949.1658687618633" y1="450.8461538461538" y2="450.8461538461538"></line></g><g><path d="M25.200 436.926C24.640 436.926 23.400 437.966 22.600 438.846C19.640 442.126 18.680 447.126 18.680 451.286C18.680 453.606 18.960 456.206 19.240 457.846C19.320 458.326 19.360 458.406 18.880 458.806C16.320 460.926 13.560 463.366 11.480 465.926C8.720 469.366 7 473.086 7 477.366C7 484.326 11.760 490.926 21.560 490.926C22.480 490.926 23.520 490.846 24.320 490.686C24.760 490.606 24.840 490.566 24.920 491.046C25.400 493.726 26 497.206 26 499.086C26 505.006 22 505.726 19.640 505.726C17.480 505.726 16.440 505.086 16.440 504.566C16.440 504.126 16.800 504.166 17.720 503.886C18.960 503.526 20.400 502.446 20.400 500.126C20.400 497.926 19 496.046 16.560 496.046C13.880 496.046 12.280 498.166 12.280 500.646C12.280 503.246 13.840 507.166 19.880 507.166C22.560 507.166 27.760 505.966 27.760 499.166C27.760 496.886 27.040 493.086 26.600 490.606C26.520 490.126 26.560 490.166 27.120 489.926C31.160 488.326 33.840 484.926 33.840 480.406C33.840 475.286 30.080 470.766 24.200 470.766C23.080 470.766 23.200 470.966 23.040 470.046L22.040 464.246C21.960 463.766 22.040 463.726 22.280 463.486C22.920 462.886 23.760 462.046 24.520 461.206C27.880 457.526 29.880 452.766 29.880 448.246C29.880 444.766 28.920 441.326 27.280 438.926C26.680 438.046 25.640 436.926 25.200 436.926ZM20.040 465.086C20.440 464.766 20.520 464.806 20.600 465.246L21.440 470.366C21.560 471.126 21.560 471.086 20.840 471.326C17.320 472.526 15.040 475.686 15.040 479.086C15.040 482.686 16.920 485.246 19.640 486.166C19.960 486.286 20.440 486.406 20.720 486.406C21.040 486.406 21.200 486.206 21.200 485.966C21.200 485.686 20.880 485.566 20.600 485.446C18.920 484.726 17.720 483.006 17.720 481.166C17.720 478.886 19.280 477.166 21.720 476.486C22.360 476.326 22.440 476.366 22.520 476.806L24.520 488.726C24.600 489.166 24.560 489.166 23.960 489.286C23.320 489.406 22.520 489.486 21.720 489.486C14.720 489.486 10.200 485.606 10.200 480.046C10.200 477.686 10.600 474.526 13.920 470.766C16.320 468.086 18.160 466.606 20.040 465.086ZM24.640 476.166C27.880 476.446 30.560 479.166 30.560 482.686C30.560 485.206 29.040 487.246 26.800 488.366C26.320 488.606 26.240 488.606 26.160 488.126L24.200 476.726C24.120 476.246 24.160 476.126 24.640 476.166ZM25.800 443.126C27.120 443.126 28.200 444.206 28.200 446.406C28.200 449.166 26.880 451.726 23.760 454.846C23.120 455.486 22.160 456.406 21.240 457.206C20.960 457.446 20.800 457.406 20.720 456.886C20.560 455.846 20.480 454.486 20.480 453.206C20.480 446.966 23.360 443.126 25.800 443.126Z"></path></g><g></g><text font-family='Alegreya' font-style='italic' text-anchor='end' stroke='#7a7a7a' font-size="24" x="0" y="440.8461538461538">18</text></g><g><line stroke="black" stroke-width="1.6" x1="183.8109781269772" x2="183.8109781269772" y1="450.8461538461538" y2="490.8461538461538"></line></g><g><g><path d="M52.860 476.486C56.860 476.486 61.780 472.766 61.780 468.966C61.780 466.686 59.980 465.206 57.380 465.206C52.460 465.206 48.500 468.846 48.500 472.726C48.500 475.086 50.420 476.486 52.860 476.486Z"></path></g><line stroke="#000000" stroke-width="1.2" x1="61.18" x2="61.18" y1="469.00615384615384" y2="434.00615384615384"></line></g><g><g><path d="M97.697 506.486C101.697 506.486 106.617 502.766 106.617 498.966C106.617 496.686 104.817 495.206 102.217 495.206C97.297 495.206 93.337 498.846 93.337 502.726C93.337 505.086 95.257 506.486 97.697 506.486Z"></path></g><line stroke="#000000" stroke-width="1.2" x1="106.0169927089924" x2="106.0169927089924" y1="499.00615384615384" y2="464.00615384615384"></line><line stroke="#000000" stroke-width="2.2" x1="90.1369927089924" x2="112.0569927089924" y1="500.8461538461538" y2="500.8461538461538"></line></g><g><path d="M147.494 477.286C145.974 475.446 144.734 473.966 144.734 471.726C144.734 471.566 144.774 471.366 144.774 471.206C144.934 468.886 146.374 466.966 147.414 465.326C147.534 465.126 147.574 464.926 147.574 464.726C147.574 464.326 147.414 463.966 147.414 463.966C147.414 463.966 141.494 456.926 140.814 456.246C140.614 456.046 140.334 455.926 140.094 455.926C139.694 455.926 139.294 456.206 139.294 456.766C139.294 456.966 139.334 457.166 139.454 457.406C139.614 457.846 141.894 459.886 141.894 462.766C141.894 464.246 141.294 465.966 139.494 467.846C139.094 468.246 138.934 468.686 138.934 469.006C138.934 469.566 139.334 469.966 139.334 469.966L141.294 472.366C141.934 473.166 142.494 473.926 143.014 474.766C143.094 474.926 143.254 475.126 143.254 475.326C143.254 475.366 143.254 475.446 143.214 475.486C143.134 475.646 142.974 475.686 142.774 475.686C142.534 475.686 142.294 475.606 142.134 475.566C141.934 475.566 141.694 475.446 141.494 475.446C139.774 475.446 138.214 477.166 138.214 479.286C138.214 481.286 139.934 483.246 142.854 485.486C143.174 485.726 143.574 485.846 143.894 485.846C144.174 485.846 144.454 485.766 144.494 485.606C144.534 485.486 144.574 485.406 144.574 485.326C144.574 484.966 144.254 484.646 143.934 484.366C143.414 484.366 142.974 483.286 142.894 482.926C142.774 482.606 142.734 482.246 142.734 481.886C142.734 480.646 143.334 479.246 144.614 479.006C144.814 478.966 145.014 478.966 145.254 478.966C146.414 478.966 147.734 479.406 148.374 479.646C148.414 479.646 148.454 479.686 148.494 479.686C148.614 479.726 148.694 479.726 148.774 479.726C148.894 479.726 148.974 479.686 148.974 479.566C148.974 479.086 147.934 477.766 147.494 477.286Z"></path></g></g><g transform="translate(293.457131973131)"><g></g><g><line stroke="black" stroke-width="1.6" x1="135.3109781269772" x2="135.3109781269772" y1="450.8461538461538" y2="490.8461538461538"></line></g><g><g><path d="M4.360 476.486C8.360 476.486 13.280 472.766 13.280 468.966C13.280 466.686 11.480 465.206 8.880 465.206C3.960 465.206 0 468.846 0 472.726C0 475.086 1.920 476.486 4.360 476.486Z"></path></g><line stroke="#000000" stroke-width="1.2" x1="0.6" x2="0.6" y1="472.6861538461538" y2="507.6861538461538"></line></g><g><g><path d="M49.197 476.486C53.197 476.486 58.117 472.766 58.117 468.966C58.117 466.686 56.317 465.206 53.717 465.206C48.797 465.206 44.837 468.846 44.837 472.726C44.837 475.086 46.757 476.486 49.197 476.486Z"></path></g><line stroke="#000000" stroke-width="1.2" x1="45.436992708992406" x2="45.436992708992406" y1="472.6861538461538" y2="507.6861538461538"></line></g><g><g><path d="M94.034 476.486C98.034 476.486 102.954 472.766 102.954 468.966C102.954 466.686 101.154 465.206 98.554 465.206C93.634 465.206 89.674 468.846 89.674 472.726C89.674 475.086 91.594 476.486 94.034 476.486Z"></path></g><line stroke="#000000" stroke-width="1.2" x1="90.2739854179848" x2="90.2739854179848" y1="472.6861538461538" y2="507.6861538461538"></line></g></g><g transform="translate(444.56811010010824)"><g></g><g><line stroke="black" stroke-width="1.6" x1="135.3109781269772" x2="135.3109781269772" y1="450.8461538461538" y2="490.8461538461538"></line></g><g><g><path d="M4.360 476.486C8.360 476.486 13.280 472.766 13.280 468.966C13.280 466.686 11.480 465.206 8.880 465.206C3.960 465.206 0 468.846 0 472.726C0 475.086 1.920 476.486 4.360 476.486Z"></path></g><g><line stroke="#000000" stroke-width="1.2" x1="0.6" x2="0.6" y1="472.6861538461538" y2="507.6861538461538"></line><path d="M6.560 496.366L6.560 491.366L-5.440 493.846L-5.440 498.846ZM6.560 498.806L-5.440 501.326L-5.440 506.326L6.560 503.806Z"></path></g></g><g><g><path d="M49.197 476.486C53.197 476.486 58.117 472.766 58.117 468.966C58.117 466.686 56.317 465.206 53.717 465.206C48.797 465.206 44.837 468.846 44.837 472.726C44.837 475.086 46.757 476.486 49.197 476.486Z"></path></g><g><line stroke="#000000" stroke-width="1.2" x1="45.436992708992406" x2="45.436992708992406" y1="472.6861538461538" y2="507.6861538461538"></line><path d="M51.397 496.366L51.397 491.366L39.397 493.846L39.397 498.846ZM51.397 498.806L39.397 501.326L39.397 506.326L51.397 503.806Z"></path></g></g><g><path d="M98.994 477.286C97.474 475.446 96.234 473.966 96.234 471.726C96.234 471.566 96.274 471.366 96.274 471.206C96.434 468.886 97.874 466.966 98.914 465.326C99.034 465.126 99.074 464.926 99.074 464.726C99.074 464.326 98.914 463.966 98.914 463.966C98.914 463.966 92.994 456.926 92.314 456.246C92.114 456.046 91.834 455.926 91.594 455.926C91.194 455.926 90.794 456.206 90.794 456.766C90.794 456.966 90.834 457.166 90.954 457.406C91.114 457.846 93.394 459.886 93.394 462.766C93.394 464.246 92.794 465.966 90.994 467.846C90.594 468.246 90.434 468.686 90.434 469.006C90.434 469.566 90.834 469.966 90.834 469.966L92.794 472.366C93.434 473.166 93.994 473.926 94.514 474.766C94.594 474.926 94.754 475.126 94.754 475.326C94.754 475.366 94.754 475.446 94.714 475.486C94.634 475.646 94.474 475.686 94.274 475.686C94.034 475.686 93.794 475.606 93.634 475.566C93.434 475.566 93.194 475.446 92.994 475.446C91.274 475.446 89.714 477.166 89.714 479.286C89.714 481.286 91.434 483.246 94.354 485.486C94.674 485.726 95.074 485.846 95.394 485.846C95.674 485.846 95.954 485.766 95.994 485.606C96.034 485.486 96.074 485.406 96.074 485.326C96.074 484.966 95.754 484.646 95.434 484.366C94.914 484.366 94.474 483.286 94.394 482.926C94.274 482.606 94.234 482.246 94.234 481.886C94.234 480.646 94.834 479.246 96.114 479.006C96.314 478.966 96.514 478.966 96.754 478.966C97.914 478.966 99.234 479.406 99.874 479.646C99.914 479.646 99.954 479.686 99.994 479.686C100.114 479.726 100.194 479.726 100.274 479.726C100.394 479.726 100.474 479.686 100.474 479.566C100.474 479.086 99.434 477.766 98.994 477.286Z"></path></g></g><g transform="translate(595.6790882270855)"><g></g><g><line stroke="black" stroke-width="1.6" x1="135.3109781269772" x2="135.3109781269772" y1="450.8461538461538" y2="490.8461538461538"></line></g><g><g><path d="M4.360 476.486C8.360 476.486 13.280 472.766 13.280 468.966C13.280 466.686 11.480 465.206 8.880 465.206C3.960 465.206 0 468.846 0 472.726C0 475.086 1.920 476.486 4.360 476.486Z"></path></g><line stroke="#000000" stroke-width="1.2" x1="0.6" x2="0.6" y1="472.6861538461538" y2="507.6861538461538"></line></g><g><g><path d="M49.197 476.486C53.197 476.486 58.117 472.766 58.117 468.966C58.117 466.686 56.317 465.206 53.717 465.206C48.797 465.206 44.837 468.846 44.837 472.726C44.837 475.086 46.757 476.486 49.197 476.486Z"></path></g><line stroke="#000000" stroke-width="1.2" x1="45.436992708992406" x2="45.436992708992406" y1="472.6861538461538" y2="507.6861538461538"></line></g><g><path d="M98.994 477.286C97.474 475.446 96.234 473.966 96.234 471.726C96.234 471.566 96.274 471.366 96.274 471.206C96.434 468.886 97.874 466.966 98.914 465.326C99.034 465.126 99.074 464.926 99.074 464.726C99.074 464.326 98.914 463.966 98.914 463.966C98.914 463.966 92.994 456.926 92.314 456.246C92.114 456.046 91.834 455.926 91.594 455.926C91.194 455.926 90.794 456.206 90.794 456.766C90.794 456.966 90.834 457.166 90.954 457.406C91.114 457.846 93.394 459.886 93.394 462.766C93.394 464.246 92.794 465.966 90.994 467.846C90.594 468.246 90.434 468.686 90.434 469.006C90.434 469.566 90.834 469.966 90.834 469.966L92.794 472.366C93.434 473.166 93.994 473.926 94.514 474.766C94.594 474.926 94.754 475.126 94.754 475.326C94.754 475.366 94.754 475.446 94.714 475.486C94.634 475.646 94.474 475.686 94.274 475.686C94.034 475.686 93.794 475.606 93.634 475.566C93.434 475.566 93.194 475.446 92.994 475.446C91.274 475.446 89.714 477.166 89.714 479.286C89.714 481.286 91.434 483.246 94.354 485.486C94.674 485.726 95.074 485.846 95.394 485.846C95.674 485.846 95.954 485.766 95.994 485.606C96.034 485.486 96.074 485.406 96.074 485.326C96.074 484.966 95.754 484.646 95.434 484.366C94.914 484.366 94.474 483.286 94.394 482.926C94.274 482.606 94.234 482.246 94.234 481.886C94.234 480.646 94.834 479.246 96.114 479.006C96.314 478.966 96.514 478.966 96.754 478.966C97.914 478.966 99.234 479.406 99.874 479.646C99.914 479.646 99.954 479.686 99.994 479.686C100.114 479.726 100.194 479.726 100.274 479.726C100.394 479.726 100.474 479.686 100.474 479.566C100.474 479.086 99.434 477.766 98.994 477.286Z"></path></g></g><g transform="translate(746.7900663540627)"><g></g><g><line stroke="black" stroke-width="1.6" x1="135.3109781269772" x2="135.3109781269772" y1="450.8461538461538" y2="490.8461538461538"></line></g><g><g><path d="M4.360 476.486C8.360 476.486 13.280 472.766 13.280 468.966C13.280 466.686 11.480 465.206 8.880 465.206C3.960 465.206 0 468.846 0 472.726C0 475.086 1.920 476.486 4.360 476.486Z"></path></g><line stroke="#000000" stroke-width="1.2" x1="0.6" x2="0.6" y1="472.6861538461538" y2="507.6861538461538"></line></g><g><g><path d="M49.197 476.486C53.197 476.486 58.117 472.766 58.117 468.966C58.117 466.686 56.317 465.206 53.717 465.206C48.797 465.206 44.837 468.846 44.837 472.726C44.837 475.086 46.757 476.486 49.197 476.486Z"></path></g><line stroke="#000000" stroke-width="1.2" x1="45.436992708992406" x2="45.436992708992406" y1="472.6861538461538" y2="507.6861538461538"></line></g><g><path d="M98.994 477.286C97.474 475.446 96.234 473.966 96.234 471.726C96.234 471.566 96.274 471.366 96.274 471.206C96.434 468.886 97.874 466.966 98.914 465.326C99.034 465.126 99.074 464.926 99.074 464.726C99.074 464.326 98.914 463.966 98.914 463.966C98.914 463.966 92.994 456.926 92.314 456.246C92.114 456.046 91.834 455.926 91.594 455.926C91.194 455.926 90.794 456.206 90.794 456.766C90.794 456.966 90.834 457.166 90.954 457.406C91.114 457.846 93.394 459.886 93.394 462.766C93.394 464.246 92.794 465.966 90.994 467.846C90.594 468.246 90.434 468.686 90.434 469.006C90.434 469.566 90.834 469.966 90.834 469.966L92.794 472.366C93.434 473.166 93.994 473.926 94.514 474.766C94.594 474.926 94.754 475.126 94.754 475.326C94.754 475.366 94.754 475.446 94.714 475.486C94.634 475.646 94.474 475.686 94.274 475.686C94.034 475.686 93.794 475.606 93.634 475.566C93.434 475.566 93.194 475.446 92.994 475.446C91.274 475.446 89.714 477.166 89.714 479.286C89.714 481.286 91.434 483.246 94.354 485.486C94.674 485.726 95.074 485.846 95.394 485.846C95.674 485.846 95.954 485.766 95.994 485.606C96.034 485.486 96.074 485.406 96.074 485.326C96.074 484.966 95.754 484.646 95.434 484.366C94.914 484.366 94.474 483.286 94.394 482.926C94.274 482.606 94.234 482.246 94.234 481.886C94.234 480.646 94.834 479.246 96.114 479.006C96.314 478.966 96.514 478.966 96.754 478.966C97.914 478.966 99.234 479.406 99.874 479.646C99.914 479.646 99.954 479.686 99.994 479.686C100.114 479.726 100.194 479.726 100.274 479.726C100.394 479.726 100.474 479.686 100.474 479.566C100.474 479.086 99.434 477.766 98.994 477.286Z"></path></g></g><g transform="translate(897.9010444810399)"><g></g><g><line stroke="#000000" stroke-width="1.6" x1="135.3109781269772" x2="135.3109781269772" y1="450.8461538461538" y2="490.8461538461538"></line><line stroke="#000000" stroke-width="5" x1="142.6109781269772" x2="142.6109781269772" y1="450.8461538461538" y2="490.8461538461538"></line></g><g><g><path d="M4.360 476.486C8.360 476.486 13.280 472.766 13.280 468.966C13.280 466.686 11.480 465.206 8.880 465.206C3.960 465.206 0 468.846 0 472.726C0 475.086 1.920 476.486 4.360 476.486Z"></path></g><line stroke="#000000" stroke-width="1.2" x1="0.6" x2="0.6" y1="472.6861538461538" y2="507.6861538461538"></line></g><g><g><path d="M49.197 476.486C53.197 476.486 58.117 472.766 58.117 468.966C58.117 466.686 56.317 465.206 53.717 465.206C48.797 465.206 44.837 468.846 44.837 472.726C44.837 475.086 46.757 476.486 49.197 476.486Z"></path></g><line stroke="#000000" stroke-width="1.2" x1="45.436992708992406" x2="45.436992708992406" y1="472.6861538461538" y2="507.6861538461538"></line></g><g><g><path d="M94.034 476.486C98.034 476.486 102.954 472.766 102.954 468.966C102.954 466.686 101.154 465.206 98.554 465.206C93.634 465.206 89.674 468.846 89.674 472.726C89.674 475.086 91.594 476.486 94.034 476.486Z"></path></g><line stroke="#000000" stroke-width="1.2" x1="90.2739854179848" x2="90.2739854179848" y1="472.6861538461538" y2="507.6861538461538"></line></g></g></svg>