<?xml version="1.0" encoding="UTF-8" standalone="no"?><svg xmlns="http://www.w3.org/2000/svg" height="279.4mm" viewBox="0 0 1328.6153846153845 1719.3846153846152" width="215.9mm"><g transform="translate(163.84615384615387)"><g><g><line stroke="#6A6A6A" stroke-width="1.3" x1="0" x2="214.70957261856222" y1="163.8461538461538" y2="163.8461538461538"></line></g><g><path d="M25.200 129.926C24.640 129.926 23.400 130.966 22.600 131.846C19.640 135.126 18.680 140.126 18.680 144.286C18.680 146.606 18.960 149.206 19.240 150.846C19.320 151.326 19.360 151.406 18.880 151.806C16.320 153.926 13.560 156.366 11.480 158.926C8.720 162.366 7 166.086 7 170.366C7 177.326 11.760 183.926 21.560 183.926C22.480 183.926 23.520 183.846 24.320 183.686C24.760 183.606 24.840 183.566 24.920 184.046C25.400 186.726 26 190.206 26 192.086C26 198.006 22 198.726 19.640 198.726C17.480 198.726 16.440 198.086 16.440 197.566C16.440 197.126 16.800 197.166 17.720 196.886C18.960 196.526 20.400 195.446 20.400 193.126C20.400 190.926 19 189.046 16.560 189.046C13.880 189.046 12.280 191.166 12.280 193.646C12.280 196.246 13.840 200.166 19.880 200.166C22.560 200.166 27.760 198.966 27.760 192.166C27.760 189.886 27.040 186.086 26.600 183.606C26.520 183.126 26.560 183.166 27.120 182.926C31.160 181.326 33.840 177.926 33.840 173.406C33.840 168.286 30.080 163.766 24.200 163.766C23.080 163.766 23.200 163.966 23.040 163.046L22.040 157.246C21.960 156.766 22.040 156.726 22.280 156.486C22.920 155.886 23.760 155.046 24.520 154.206C27.880 150.526 29.880 145.766 29.880 141.246C29.880 137.766 28.920 134.326 27.280 131.926C26.680 131.046 25.640 129.926 25.200 129.926ZM20.040 158.086C20.440 157.766 20.520 157.806 20.600 158.246L21.440 163.366C21.560 164.126 21.560 164.086 20.840 164.326C17.320 165.526 15.040 168.686 15.040 172.086C15.040 175.686 16.920 178.246 19.640 179.166C19.960 179.286 20.440 179.406 20.720 179.406C21.040 179.406 21.200 179.206 21.200 178.966C21.200 178.686 20.880 178.566 20.600 178.446C18.920 177.726 17.720 176.006 17.720 174.166C17.720 171.886 19.280 170.166 21.720 169.486C22.360 169.326 22.440 169.366 22.520 169.806L24.520 181.726C24.600 182.166 24.560 182.166 23.960 182.286C23.320 182.406 22.520 182.486 21.720 182.486C14.720 182.486 10.200 178.606 10.200 173.046C10.200 170.686 10.600 167.526 13.920 163.766C16.320 161.086 18.160 159.606 20.040 158.086ZM24.640 169.166C27.880 169.446 30.560 172.166 30.560 175.686C30.560 178.206 29.040 180.246 26.800 181.366C26.320 181.606 26.240 181.606 26.160 181.126L24.200 169.726C24.120 169.246 24.160 169.126 24.640 169.166ZM25.800 136.126C27.120 136.126 28.200 137.206 28.200 139.406C28.200 142.166 26.880 144.726 23.760 147.846C23.120 148.486 22.160 149.406 21.240 150.206C20.960 150.446 20.800 150.406 20.720 149.886C20.560 148.846 20.480 147.486 20.480 146.206C20.480 139.966 23.360 136.126 25.800 136.126Z"></path></g><g></g><path d="M57.820 153.806C56.620 153.806 55.220 154.126 54.140 154.606C50.580 156.166 48.700 160.446 48.700 164.246C48.700 164.606 48.700 164.966 48.740 165.326C48.940 167.486 49.980 169.526 51.300 171.126C52.820 172.966 55.020 173.806 57.420 173.806C64.420 173.806 65.460 167.446 65.460 166.286C65.460 165.406 65.020 165.406 64.860 165.406C64.540 165.406 64.260 165.446 64.260 166.126C64.260 171.286 59.860 172.486 58.580 172.486C55.340 172.486 53.620 169.326 53.620 162.726C53.620 156.126 56.660 154.766 58.820 154.766C60.900 154.766 61.740 155.726 61.740 156.126C61.740 156.486 61.620 157.006 61.020 157.006C59.420 157.006 58.500 158.726 58.500 159.966C58.500 162.246 60.460 162.966 61.580 162.966C61.580 162.966 64.620 162.846 64.620 159.526C64.620 154.286 58.580 153.806 57.820 153.806Z"></path><g><line stroke="#000000" stroke-width="5" x1="-7.5" x2="-7.5" y1="138.3461538461538" y2="289.3461538461538"></line><path d="M-10 141.346L-5 141.346C1.400 140.146 7.120 137.186 8.720 130.506C8.760 130.346 8.760 130.226 8.760 130.106C8.760 129.786 8.640 129.626 8.440 129.546C8.080 129.546 7.640 129.826 7.440 130.106C7.040 130.546 2 135.826-5.640 136.386L-9.680 136.386C-9.920 136.386-10 136.426-10 136.666Z"></path><path d="M-10 291.026C-10 291.266-9.920 291.306-9.680 291.306L-5.640 291.306C2 291.866 7.040 297.146 7.440 297.586C7.640 297.866 8.080 298.146 8.440 298.146C8.640 298.066 8.760 297.906 8.760 297.586C8.760 297.466 8.760 297.346 8.720 297.186C7.120 290.506 1.400 287.546-5 286.346L-10 286.346Z"></path><line stroke="#000000" stroke-width="1.6" x1="0" x2="0" y1="143.3461538461538" y2="284.3461538461538"></line></g></g><g><line stroke="black" stroke-width="1.6" x1="215.50957261856223" x2="215.50957261856223" y1="143.3461538461538" y2="284.3461538461538"></line></g><g><g><line stroke="#6A6A6A" stroke-width="1.3" x1="0" x2="214.70957261856222" y1="283.8461538461538" y2="283.8461538461538"></line><line stroke="#6A6A6A" stroke-width="1.3" x1="0" x2="214.70957261856222" y1="273.8461538461538" y2="273.8461538461538"></line><line stroke="#6A6A6A" stroke-width="1.3" x1="0" x2="214.70957261856222" y1="263.8461538461538" y2="263.8461538461538"></line><line stroke="#6A6A6A" stroke-width="1.3" x1="0" x2="214.70957261856222" y1="253.8461538461538" y2="253.8461538461538"></line><line stroke="#6A6A6A" stroke-width="1.3" x1="0" x2="214.70957261856222" y1="243.8461538461538" y2="243.8461538461538"></line></g><g><path d="M25.200 229.926C24.640 229.926 23.400 230.966 22.600 231.846C19.640 235.126 18.680 240.126 18.680 244.286C18.680 246.606 18.960 249.206 19.240 250.846C19.320 251.326 19.360 251.406 18.880 251.806C16.320 253.926 13.560 256.366 11.480 258.926C8.720 262.366 7 266.086 7 270.366C7 277.326 11.760 283.926 21.560 283.926C22.480 283.926 23.520 283.846 24.320 283.686C24.760 283.606 24.840 283.566 24.920 284.046C25.400 286.726 26 290.206 26 292.086C26 298.006 22 298.726 19.640 298.726C17.480 298.726 16.440 298.086 16.440 297.566C16.440 297.126 16.800 297.166 17.720 296.886C18.960 296.526 20.400 295.446 20.400 293.126C20.400 290.926 19 289.046 16.560 289.046C13.880 289.046 12.280 291.166 12.280 293.646C12.280 296.246 13.840 300.166 19.880 300.166C22.560 300.166 27.760 298.966 27.760 292.166C27.760 289.886 27.040 286.086 26.600 283.606C26.520 283.126 26.560 283.166 27.120 282.926C31.160 281.326 33.840 277.926 33.840 273.406C33.840 268.286 30.080 263.766 24.200 263.766C23.080 263.766 23.200 263.966 23.040 263.046L22.040 257.246C21.960 256.766 22.040 256.726 22.280 256.486C22.920 255.886 23.760 255.046 24.520 254.206C27.880 250.526 29.880 245.766 29.880 241.246C29.880 237.766 28.920 234.326 27.280 231.926C26.680 231.046 25.640 229.926 25.200 229.926ZM20.040 258.086C20.440 257.766 20.520 257.806 20.600 258.246L21.440 263.366C21.560 264.126 21.560 264.086 20.840 264.326C17.320 265.526 15.040 268.686 15.040 272.086C15.040 275.686 16.920 278.246 19.640 279.166C19.960 279.286 20.440 279.406 20.720 279.406C21.040 279.406 21.200 279.206 21.200 278.966C21.200 278.686 20.880 278.566 20.600 278.446C18.920 277.726 17.720 276.006 17.720 274.166C17.720 271.886 19.280 270.166 21.720 269.486C22.360 269.326 22.440 269.366 22.520 269.806L24.520 281.726C24.600 282.166 24.560 282.166 23.960 282.286C23.320 282.406 22.520 282.486 21.720 282.486C14.720 282.486 10.200 278.606 10.200 273.046C10.200 270.686 10.600 267.526 13.920 263.766C16.320 261.086 18.160 259.606 20.040 258.086ZM24.640 269.166C27.880 269.446 30.560 272.166 30.560 275.686C30.560 278.206 29.040 280.246 26.800 281.366C26.320 281.606 26.240 281.606 26.160 281.126L24.200 269.726C24.120 269.246 24.160 269.126 24.640 269.166ZM25.800 236.126C27.120 236.126 28.200 237.206 28.200 239.406C28.200 242.166 26.880 244.726 23.760 247.846C23.120 248.486 22.160 249.406 21.240 250.206C20.960 250.446 20.800 250.406 20.720 249.886C20.560 248.846 20.480 247.486 20.480 246.206C20.480 239.966 23.360 236.126 25.800 236.126Z"></path></g><g></g><path d="M57.820 253.806C56.620 253.806 55.220 254.126 54.140 254.606C50.580 256.166 48.700 260.446 48.700 264.246C48.700 264.606 48.700 264.966 48.740 265.326C48.940 267.486 49.980 269.526 51.300 271.126C52.820 272.966 55.020 273.806 57.420 273.806C64.420 273.806 65.460 267.446 65.460 266.286C65.460 265.406 65.020 265.406 64.860 265.406C64.540 265.406 64.260 265.446 64.260 266.126C64.260 271.286 59.860 272.486 58.580 272.486C55.340 272.486 53.620 269.326 53.620 262.726C53.620 256.126 56.660 254.766 58.820 254.766C60.900 254.766 61.740 255.726 61.740 256.126C61.740 256.486 61.620 257.006 61.020 257.006C59.420 257.006 58.500 258.726 58.500 259.966C58.500 262.246 60.460 262.966 61.580 262.966C61.580 262.966 64.620 262.846 64.620 259.526C64.620 254.286 58.580 253.806 57.820 253.806Z"></path><g><line stroke="#000000" stroke-width="5" x1="-7.5" x2="-7.5" y1="138.3461538461538" y2="289.3461538461538"></line><path d="M-10 141.346L-5 141.346C1.400 140.146 7.120 137.186 8.720 130.506C8.760 130.346 8.760 130.226 8.760 130.106C8.760 129.786 8.640 129.626 8.440 129.546C8.080 129.546 7.640 129.826 7.440 130.106C7.040 130.546 2 135.826-5.640 136.386L-9.680 136.386C-9.920 136.386-10 136.426-10 136.666Z"></path><path d="M-10 291.026C-10 291.266-9.920 291.306-9.680 291.306L-5.640 291.306C2 291.866 7.040 297.146 7.440 297.586C7.640 297.866 8.080 298.146 8.440 298.146C8.640 298.066 8.760 297.906 8.760 297.586C8.760 297.466 8.760 297.346 8.720 297.186C7.120 290.506 1.400 287.546-5 286.346L-10 286.346Z"></path><line stroke="#000000" stroke-width="1.6" x1="0" x2="0" y1="143.3461538461538" y2="284.3461538461538"></line></g></g><g><line stroke="black" stroke-width="1.6" x1="215.50957261856223" x2="215.50957261856223" y1="143.3461538461538" y2="284.3461538461538"></line></g><g><g><path d="M98.400 148.366C92.600 148.366 89 150.806 89 153.766C89 156.686 91.480 159.286 97.960 159.286C105.080 159.286 107.360 156.806 107.360 153.766C107.360 150.686 102.440 148.366 98.400 148.366ZM93.840 151.086C94.320 149.606 95.920 149.366 97.280 149.366C100.240 149.366 102.640 152.566 102.640 155.206C102.640 155.486 102.600 155.766 102.560 156.006C102.360 157.086 101.720 157.846 100.640 158.126C100.200 158.246 99.760 158.286 99.320 158.286C98.920 158.286 98.560 158.246 98.160 158.126C97.440 157.886 96.720 157.486 96.120 156.966C95.800 156.686 95.480 156.366 95.200 156.006C94.360 155.006 93.680 153.526 93.680 152.166C93.680 151.806 93.720 151.446 93.840 151.086Z"></path></g></g><g><g><path d="M98.400 268.366C92.600 268.366 89 270.806 89 273.766C89 276.686 91.480 279.286 97.960 279.286C105.080 279.286 107.360 276.806 107.360 273.766C107.360 270.686 102.440 268.366 98.400 268.366ZM93.840 271.086C94.320 269.606 95.920 269.366 97.280 269.366C100.240 269.366 102.640 272.566 102.640 275.206C102.640 275.486 102.600 275.766 102.560 276.006C102.360 277.086 101.720 277.846 100.640 278.126C100.200 278.246 99.760 278.286 99.320 278.286C98.920 278.286 98.560 278.246 98.160 278.126C97.440 277.886 96.720 277.486 96.120 276.966C95.800 276.686 95.480 276.366 95.200 276.006C94.360 275.006 93.680 273.526 93.680 272.166C93.680 271.806 93.720 271.446 93.840 271.086Z"></path></g></g></g><g transform="translate(395.1557264647161)"><g><g><line stroke="#6A6A6A" stroke-width="1.3" x1="-16.599999999999994" x2="327.45946577816085" y1="163.8461538461538" y2="163.8461538461538"></line></g></g><g><line stroke="black" stroke-width="1.6" x1="150.92973288908044" x2="150.92973288908044" y1="143.3461538461538" y2="284.3461538461538"></line></g><g><g><line stroke="#6A6A6A" stroke-width="1.3" x1="-16.599999999999994" x2="150.12973288908043" y1="278.8461538461538" y2="278.8461538461538"></line><line stroke="#6A6A6A" stroke-width="1.3" x1="-16.599999999999994" x2="150.12973288908043" y1="268.8461538461538" y2="268.8461538461538"></line><line stroke="#6A6A6A" stroke-width="1.3" x1="-16.599999999999994" x2="150.12973288908043" y1="258.8461538461538" y2="258.8461538461538"></line><line stroke="#6A6A6A" stroke-width="1.3" x1="-16.599999999999994" x2="150.12973288908043" y1="248.8461538461538" y2="248.8461538461538"></line></g></g><g><line stroke="black" stroke-width="1.6" x1="150.92973288908044" x2="150.92973288908044" y1="143.3461538461538" y2="284.3461538461538"></line></g><g><g><path d="M9.400 148.366C3.600 148.366 0 150.806 0 153.766C0 156.686 2.480 159.286 8.960 159.286C16.080 159.286 18.360 156.806 18.360 153.766C18.360 150.686 13.440 148.366 9.400 148.366ZM4.840 151.086C5.320 149.606 6.920 149.366 8.280 149.366C11.240 149.366 13.640 152.566 13.640 155.206C13.640 155.486 13.600 155.766 13.560 156.006C13.360 157.086 12.720 157.846 11.640 158.126C11.200 158.246 10.760 158.286 10.320 158.286C9.920 158.286 9.560 158.246 9.160 158.126C8.440 157.886 7.720 157.486 7.120 156.966C6.800 156.686 6.480 156.366 6.200 156.006C5.360 155.006 4.680 153.526 4.680 152.166C4.680 151.806 4.720 151.446 4.840 151.086Z"></path></g></g><g><g><path d="M4.480 279.646C12.120 279.646 13.640 273.446 13.640 271.926C13.640 269.566 11.760 268.046 9.080 268.046C2.160 268.046 0 273.406 0 275.806C0 278.246 1.960 279.646 4.480 279.646ZM8 275.966C5.920 277.366 4.480 277.846 3.480 277.846C2.520 277.846 1.960 277.366 1.640 276.806C1.480 276.526 1.360 276.206 1.360 275.886C1.360 274.886 2.360 273.606 5.560 271.766C7.840 270.446 9.280 269.966 10.240 269.966C11.120 269.966 11.600 270.366 11.920 270.926C12.080 271.206 12.200 271.486 12.200 271.806C12.200 272.726 11.240 273.846 8 275.966Z"></path></g><line stroke="#000000" stroke-width="1.2" x1="13.040000000000001" x2="13.040000000000001" y1="271.9261538461538" y2="236.9261538461538"></line></g><g><g><path d="M79.545 279.646C87.185 279.646 88.705 273.446 88.705 271.926C88.705 269.566 86.825 268.046 84.145 268.046C77.225 268.046 75.065 273.406 75.065 275.806C75.065 278.246 77.025 279.646 79.545 279.646ZM83.065 275.966C80.985 277.366 79.545 277.846 78.545 277.846C77.585 277.846 77.025 277.366 76.705 276.806C76.545 276.526 76.425 276.206 76.425 275.886C76.425 274.886 77.425 273.606 80.625 271.766C82.905 270.446 84.345 269.966 85.305 269.966C86.185 269.966 86.665 270.366 86.985 270.926C87.145 271.206 87.265 271.486 87.265 271.806C87.265 272.726 86.305 273.846 83.065 275.966Z"></path></g><line stroke="#000000" stroke-width="1.2" x1="88.10486644454022" x2="88.10486644454022" y1="271.9261538461538" y2="236.9261538461538"></line></g></g><g transform="translate(561.8854593537966)"><g></g><g><line stroke="black" stroke-width="1.6" x1="150.92973288908044" x2="150.92973288908044" y1="143.3461538461538" y2="284.3461538461538"></line><line stroke="black" stroke-width="5" x1="158.22973288908042" x2="158.22973288908042" y1="143.3461538461538" y2="284.3461538461538"></line></g><g><g><line stroke="#6A6A6A" stroke-width="1.3" x1="-16.600000000000023" x2="75.0648664445402" y1="278.8461538461538" y2="278.8461538461538"></line><line stroke="#6A6A6A" stroke-width="1.3" x1="-16.600000000000023" x2="75.0648664445402" y1="268.8461538461538" y2="268.8461538461538"></line><line stroke="#6A6A6A" stroke-width="1.3" x1="-16.600000000000023" x2="75.0648664445402" y1="258.8461538461538" y2="258.8461538461538"></line><line stroke="#6A6A6A" stroke-width="1.3" x1="-16.600000000000023" x2="75.0648664445402" y1="248.8461538461538" y2="248.8461538461538"></line></g></g><g><g><line stroke="#6A6A6A" stroke-width="1.3" x1="1.4210854715202004e-14" x2="160.72973288908042" y1="268.8461538461538" y2="268.8461538461538"></line><line stroke="#6A6A6A" stroke-width="1.3" x1="1.4210854715202004e-14" x2="160.72973288908042" y1="258.8461538461538" y2="258.8461538461538"></line></g></g><g><line stroke="black" stroke-width="1.6" x1="150.92973288908044" x2="150.92973288908044" y1="143.3461538461538" y2="284.3461538461538"></line><line stroke="black" stroke-width="5" x1="158.22973288908042" x2="158.22973288908042" y1="143.3461538461538" y2="284.3461538461538"></line></g><g><g><path d="M9.400 148.366C3.600 148.366 0 150.806 0 153.766C0 156.686 2.480 159.286 8.960 159.286C16.080 159.286 18.360 156.806 18.360 153.766C18.360 150.686 13.440 148.366 9.400 148.366ZM4.840 151.086C5.320 149.606 6.920 149.366 8.280 149.366C11.240 149.366 13.640 152.566 13.640 155.206C13.640 155.486 13.600 155.766 13.560 156.006C13.360 157.086 12.720 157.846 11.640 158.126C11.200 158.246 10.760 158.286 10.320 158.286C9.920 158.286 9.560 158.246 9.160 158.126C8.440 157.886 7.720 157.486 7.120 156.966C6.800 156.686 6.480 156.366 6.200 156.006C5.360 155.006 4.680 153.526 4.680 152.166C4.680 151.806 4.720 151.446 4.840 151.086Z"></path></g></g><g><g><path d="M4.480 279.646C12.120 279.646 13.640 273.446 13.640 271.926C13.640 269.566 11.760 268.046 9.080 268.046C2.160 268.046 0 273.406 0 275.806C0 278.246 1.960 279.646 4.480 279.646ZM8 275.966C5.920 277.366 4.480 277.846 3.480 277.846C2.520 277.846 1.960 277.366 1.640 276.806C1.480 276.526 1.360 276.206 1.360 275.886C1.360 274.886 2.360 273.606 5.560 271.766C7.840 270.446 9.280 269.966 10.240 269.966C11.120 269.966 11.600 270.366 11.920 270.926C12.080 271.206 12.200 271.486 12.200 271.806C12.200 272.726 11.240 273.846 8 275.966Z"></path></g><line stroke="#000000" stroke-width="1.2" x1="13.040000000000001" x2="13.040000000000001" y1="271.9261538461538" y2="236.9261538461538"></line></g><g><g><path d="M79.545 279.646C87.185 279.646 88.705 273.446 88.705 271.926C88.705 269.566 86.825 268.046 84.145 268.046C77.225 268.046 75.065 273.406 75.065 275.806C75.065 278.246 77.025 279.646 79.545 279.646ZM83.065 275.966C80.985 277.366 79.545 277.846 78.545 277.846C77.585 277.846 77.025 277.366 76.705 276.806C76.545 276.526 76.425 276.206 76.425 275.886C76.425 274.886 77.425 273.606 80.625 271.766C82.905 270.446 84.345 269.966 85.305 269.966C86.185 269.966 86.665 270.366 86.985 270.926C87.145 271.206 87.265 271.486 87.265 271.806C87.265 272.726 86.305 273.846 83.065 275.966Z"></path></g><line stroke="#000000" stroke-width="1.2" x1="88.10486644454022" x2="88.10486644454022" y1="271.9261538461538" y2="236.9261538461538"></line></g></g></svg>