<?xml version="1.0" encoding="UTF-8" standalone="no"?><svg xmlns="http://www.w3.org/2000/svg" height="279.4mm" viewBox="0 0 1328.6153846153845 1719.3846153846152" width="215.9mm"><g transform="translate(93.84615384615385)"><g><g><line stroke="#6A6A6A" stroke-width="1.3" x1="0" x2="376.3040234461272" y1="183.8461538461538" y2="183.8461538461538"></line><line stroke="#6A6A6A" stroke-width="1.3" x1="0" x2="376.3040234461272" y1="173.8461538461538" y2="173.8461538461538"></line><line stroke="#6A6A6A" stroke-width="1.3" x1="0" x2="376.3040234461272" y1="163.8461538461538" y2="163.8461538461538"></line><line stroke="#6A6A6A" stroke-width="1.3" x1="0" x2="376.3040234461272" y1="153.8461538461538" y2="153.8461538461538"></line><line stroke="#6A6A6A" stroke-width="1.3" x1="0" x2="376.3040234461272" y1="143.8461538461538" y2="143.8461538461538"></line></g><g><path d="M25.200 129.926C24.640 129.926 23.400 130.966 22.600 131.846C19.640 135.126 18.680 140.126 18.680 144.286C18.680 146.606 18.960 149.206 19.240 150.846C19.320 151.326 19.360 151.406 18.880 151.806C16.320 153.926 13.560 156.366 11.480 158.926C8.720 162.366 7 166.086 7 170.366C7 177.326 11.760 183.926 21.560 183.926C22.480 183.926 23.520 183.846 24.320 183.686C24.760 183.606 24.840 183.566 24.920 184.046C25.400 186.726 26 190.206 26 192.086C26 198.006 22 198.726 19.640 198.726C17.480 198.726 16.440 198.086 16.440 197.566C16.440 197.126 16.800 197.166 17.720 196.886C18.960 196.526 20.400 195.446 20.400 193.126C20.400 190.926 19 189.046 16.560 189.046C13.880 189.046 12.280 191.166 12.280 193.646C12.280 196.246 13.840 200.166 19.880 200.166C22.560 200.166 27.760 198.966 27.760 192.166C27.760 189.886 27.040 186.086 26.600 183.606C26.520 183.126 26.560 183.166 27.120 182.926C31.160 181.326 33.840 177.926 33.840 173.406C33.840 168.286 30.080 163.766 24.200 163.766C23.080 163.766 23.200 163.966 23.040 163.046L22.040 157.246C21.960 156.766 22.040 156.726 22.280 156.486C22.920 155.886 23.760 155.046 24.520 154.206C27.880 150.526 29.880 145.766 29.880 141.246C29.880 137.766 28.920 134.326 27.280 131.926C26.680 131.046 25.640 129.926 25.200 129.926ZM20.040 158.086C20.440 157.766 20.520 157.806 20.600 158.246L21.440 163.366C21.560 164.126 21.560 164.086 20.840 164.326C17.320 165.526 15.040 168.686 15.040 172.086C15.040 175.686 16.920 178.246 19.640 179.166C19.960 179.286 20.440 179.406 20.720 179.406C21.040 179.406 21.200 179.206 21.200 178.966C21.200 178.686 20.880 178.566 20.600 178.446C18.920 177.726 17.720 176.006 17.720 174.166C17.720 171.886 19.280 170.166 21.720 169.486C22.360 169.326 22.440 169.366 22.520 169.806L24.520 181.726C24.600 182.166 24.560 182.166 23.960 182.286C23.320 182.406 22.520 182.486 21.720 182.486C14.720 182.486 10.200 178.606 10.200 173.046C10.200 170.686 10.600 167.526 13.920 163.766C16.320 161.086 18.160 159.606 20.040 158.086ZM24.640 169.166C27.880 169.446 30.560 172.166 30.560 175.686C30.560 178.206 29.040 180.246 26.800 181.366C26.320 181.606 26.240 181.606 26.160 181.126L24.200 169.726C24.120 169.246 24.160 169.126 24.640 169.166ZM25.800 136.126C27.120 136.126 28.200 137.206 28.200 139.406C28.200 142.166 26.880 144.726 23.760 147.846C23.120 148.486 22.160 149.406 21.240 150.206C20.960 150.446 20.800 150.406 20.720 149.886C20.560 148.846 20.480 147.486 20.480 146.206C20.480 139.966 23.360 136.126 25.800 136.126Z"></path></g><g></g><path d="M57.820 153.806C56.620 153.806 55.220 154.126 54.140 154.606C50.580 156.166 48.700 160.446 48.700 164.246C48.700 164.606 48.700 164.966 48.740 165.326C48.940 167.486 49.980 169.526 51.300 171.126C52.820 172.966 55.020 173.806 57.420 173.806C64.420 173.806 65.460 167.446 65.460 166.286C65.460 165.406 65.020 165.406 64.860 165.406C64.540 165.406 64.260 165.446 64.260 166.126C64.260 171.286 59.860 172.486 58.580 172.486C55.340 172.486 53.620 169.326 53.620 162.726C53.620 156.126 56.660 154.766 58.820 154.766C60.900 154.766 61.740 155.726 61.740 156.126C61.740 156.486 61.620 157.006 61.020 157.006C59.420 157.006 58.500 158.726 58.500 159.966C58.500 162.246 60.460 162.966 61.580 162.966C61.580 162.966 64.620 162.846 64.620 159.526C64.620 154.286 58.580 153.806 57.820 153.806Z"></path></g><g><line stroke="black" stroke-width="1.6" x1="377.1040234461272" x2="377.1040234461272" y1="143.8461538461538" y2="183.8461538461538"></line></g><g><g><path d="M93.360 159.486C97.360 159.486 102.280 155.766 102.280 151.966C102.280 149.686 100.480 148.206 97.880 148.206C92.960 148.206 89 151.846 89 155.726C89 158.086 90.920 159.486 93.360 159.486Z"></path></g><line stroke="#000000" stroke-width="1.2" x1="89.6" x2="89.6" y1="155.68615384615381" y2="181.93615384615381"></line><path d="M98.600 156.016C99.200 159.376 99.200 163.016 97.680 166.136C94.920 171.736 91.680 171.856 89.200 171.936L89 171.936L89 187.776C89 187.776 89.440 187.816 89.680 187.816C89.920 187.816 90.400 187.736 90.480 187.296C91.440 181.136 99.320 179.416 100.280 173.136C100.360 172.696 100.400 172.216 100.400 171.696C100.400 169.256 99.520 166.856 99.400 166.616C99.360 166.536 99.360 166.456 99.360 166.336C99.360 166.176 99.400 166.096 99.400 165.976C100.840 162.976 100.880 159.056 100.240 155.856C100.040 154.936 99.760 154.976 99.280 154.976C98.800 155.016 98.480 155.336 98.600 156.016ZM98.040 169.216C98.240 169.216 98.520 169.336 98.560 169.496C98.760 169.776 98.760 170.176 98.840 170.496C98.880 170.776 98.880 171.056 98.880 171.296C98.880 172.616 98.520 173.816 97.800 174.856C96.480 176.816 93.920 179.056 91.480 179.056L91.160 179.056C90.840 179.056 90.600 178.856 90.600 178.656C90.600 178.616 90.600 178.576 90.640 178.536C91.480 175.256 93.720 174.336 95.600 172.136C96.440 171.216 97.120 170.416 97.760 169.376C97.840 169.256 97.920 169.216 98.040 169.216Z"></path></g><g><g><path d="M104.760 164.486C108.760 164.486 113.680 160.766 113.680 156.966C113.680 154.686 111.880 153.206 109.280 153.206C104.360 153.206 100.400 156.846 100.400 160.726C100.400 163.086 102.320 164.486 104.760 164.486Z"></path></g><line stroke="#000000" stroke-width="1.2" x1="101" x2="101" y1="160.68615384615381" y2="198.68615384615381"></line></g><g><g><path d="M162.336 154.486C166.336 154.486 171.256 150.766 171.256 146.966C171.256 144.686 169.456 143.206 166.856 143.206C161.936 143.206 157.976 146.846 157.976 150.726C157.976 153.086 159.896 154.486 162.336 154.486Z"></path></g><line stroke="#000000" stroke-width="1.2" x1="158.57600586153177" x2="158.57600586153177" y1="150.68615384615381" y2="176.93615384615381"></line><path d="M167.576 151.016C168.176 154.376 168.176 158.016 166.656 161.136C163.896 166.736 160.656 166.856 158.176 166.936L157.976 166.936L157.976 182.776C157.976 182.776 158.416 182.816 158.656 182.816C158.896 182.816 159.376 182.736 159.456 182.296C160.416 176.136 168.296 174.416 169.256 168.136C169.336 167.696 169.376 167.216 169.376 166.696C169.376 164.256 168.496 161.856 168.376 161.616C168.336 161.536 168.336 161.456 168.336 161.336C168.336 161.176 168.376 161.096 168.376 160.976C169.816 157.976 169.856 154.056 169.216 150.856C169.016 149.936 168.736 149.976 168.256 149.976C167.776 150.016 167.456 150.336 167.576 151.016ZM167.016 164.216C167.216 164.216 167.496 164.336 167.536 164.496C167.736 164.776 167.736 165.176 167.816 165.496C167.856 165.776 167.856 166.056 167.856 166.296C167.856 167.616 167.496 168.816 166.776 169.856C165.456 171.816 162.896 174.056 160.456 174.056L160.136 174.056C159.816 174.056 159.576 173.856 159.576 173.656C159.576 173.616 159.576 173.576 159.616 173.536C160.456 170.256 162.696 169.336 164.576 167.136C165.416 166.216 166.096 165.416 166.736 164.376C166.816 164.256 166.896 164.216 167.016 164.216Z"></path></g><g><g><path d="M173.736 159.486C177.736 159.486 182.656 155.766 182.656 151.966C182.656 149.686 180.856 148.206 178.256 148.206C173.336 148.206 169.376 151.846 169.376 155.726C169.376 158.086 171.296 159.486 173.736 159.486Z"></path></g><line stroke="#000000" stroke-width="1.2" x1="169.97600586153177" x2="169.97600586153177" y1="155.68615384615381" y2="181.93615384615381"></line><path d="M178.976 156.016C179.576 159.376 179.576 163.016 178.056 166.136C175.296 171.736 172.056 171.856 169.576 171.936L169.376 171.936L169.376 187.776C169.376 187.776 169.816 187.816 170.056 187.816C170.296 187.816 170.776 187.736 170.856 187.296C171.816 181.136 179.696 179.416 180.656 173.136C180.736 172.696 180.776 172.216 180.776 171.696C180.776 169.256 179.896 166.856 179.776 166.616C179.736 166.536 179.736 166.456 179.736 166.336C179.736 166.176 179.776 166.096 179.776 165.976C181.216 162.976 181.256 159.056 180.616 155.856C180.416 154.936 180.136 154.976 179.656 154.976C179.176 155.016 178.856 155.336 178.976 156.016ZM178.416 169.216C178.616 169.216 178.896 169.336 178.936 169.496C179.136 169.776 179.136 170.176 179.216 170.496C179.256 170.776 179.256 171.056 179.256 171.296C179.256 172.616 178.896 173.816 178.176 174.856C176.856 176.816 174.296 179.056 171.856 179.056L171.536 179.056C171.216 179.056 170.976 178.856 170.976 178.656C170.976 178.616 170.976 178.576 171.016 178.536C171.856 175.256 174.096 174.336 175.976 172.136C176.816 171.216 177.496 170.416 178.136 169.376C178.216 169.256 178.296 169.216 178.416 169.216Z"></path></g><g><g><path d="M185.136 164.486C189.136 164.486 194.056 160.766 194.056 156.966C194.056 154.686 192.256 153.206 189.656 153.206C184.736 153.206 180.776 156.846 180.776 160.726C180.776 163.086 182.696 164.486 185.136 164.486Z"></path></g><line stroke="#000000" stroke-width="1.2" x1="181.37600586153178" x2="181.37600586153178" y1="160.68615384615381" y2="198.68615384615381"></line></g><g><g><path d="M242.712 159.486C246.712 159.486 251.632 155.766 251.632 151.966C251.632 149.686 249.832 148.206 247.232 148.206C242.312 148.206 238.352 151.846 238.352 155.726C238.352 158.086 240.272 159.486 242.712 159.486Z"></path></g><line stroke="#000000" stroke-width="1.2" x1="238.95201172306358" x2="238.95201172306358" y1="155.68615384615381" y2="181.93615384615381"></line><path d="M247.952 156.016C248.552 159.376 248.552 163.016 247.032 166.136C244.272 171.736 241.032 171.856 238.552 171.936L238.352 171.936L238.352 187.776C238.352 187.776 238.792 187.816 239.032 187.816C239.272 187.816 239.752 187.736 239.832 187.296C240.792 181.136 248.672 179.416 249.632 173.136C249.712 172.696 249.752 172.216 249.752 171.696C249.752 169.256 248.872 166.856 248.752 166.616C248.712 166.536 248.712 166.456 248.712 166.336C248.712 166.176 248.752 166.096 248.752 165.976C250.192 162.976 250.232 159.056 249.592 155.856C249.392 154.936 249.112 154.976 248.632 154.976C248.152 155.016 247.832 155.336 247.952 156.016ZM247.392 169.216C247.592 169.216 247.872 169.336 247.912 169.496C248.112 169.776 248.112 170.176 248.192 170.496C248.232 170.776 248.232 171.056 248.232 171.296C248.232 172.616 247.872 173.816 247.152 174.856C245.832 176.816 243.272 179.056 240.832 179.056L240.512 179.056C240.192 179.056 239.952 178.856 239.952 178.656C239.952 178.616 239.952 178.576 239.992 178.536C240.832 175.256 243.072 174.336 244.952 172.136C245.792 171.216 246.472 170.416 247.112 169.376C247.192 169.256 247.272 169.216 247.392 169.216Z"></path></g><g><g><path d="M254.112 164.486C258.112 164.486 263.032 160.766 263.032 156.966C263.032 154.686 261.232 153.206 258.632 153.206C253.712 153.206 249.752 156.846 249.752 160.726C249.752 163.086 251.672 164.486 254.112 164.486Z"></path></g><line stroke="#000000" stroke-width="1.2" x1="250.35201172306358" x2="250.35201172306358" y1="160.68615384615381" y2="198.68615384615381"></line></g><g><g><path d="M311.688 159.486C315.688 159.486 320.608 155.766 320.608 151.966C320.608 149.686 318.808 148.206 316.208 148.206C311.288 148.206 307.328 151.846 307.328 155.726C307.328 158.086 309.248 159.486 311.688 159.486Z"></path></g><line stroke="#000000" stroke-width="1.2" x1="307.9280175845954" x2="307.9280175845954" y1="155.68615384615381" y2="181.93615384615381"></line><path d="M316.928 157.056C317.488 158.736 317.768 160.736 317.768 162.536C317.768 164.896 316.768 168.256 316.168 169.616C314.688 172.976 312.688 176.216 307.328 178.016L307.328 187.416C307.328 187.896 307.528 188.016 307.768 188.016C308.528 188.016 308.848 187.776 308.928 187.136C309.608 183.336 312.568 179.856 314.608 176.696C317.128 172.736 319.568 167.976 319.568 162.976C319.568 159.856 318.768 157.016 318.448 155.736C318.128 154.456 316.328 155.336 316.928 157.056Z"></path></g><g><g><path d="M323.088 164.486C327.088 164.486 332.008 160.766 332.008 156.966C332.008 154.686 330.208 153.206 327.608 153.206C322.688 153.206 318.728 156.846 318.728 160.726C318.728 163.086 320.648 164.486 323.088 164.486Z"></path></g><line stroke="#000000" stroke-width="1.2" x1="319.3280175845954" x2="319.3280175845954" y1="160.68615384615381" y2="198.68615384615381"></line></g></g><g transform="translate(486.7501772922811)"><g><g><line stroke="#6A6A6A" stroke-width="1.3" x1="-16.600000000000023" x2="276.2796090412912" y1="183.8461538461538" y2="183.8461538461538"></line><line stroke="#6A6A6A" stroke-width="1.3" x1="-16.600000000000023" x2="276.2796090412912" y1="173.8461538461538" y2="173.8461538461538"></line><line stroke="#6A6A6A" stroke-width="1.3" x1="-16.600000000000023" x2="276.2796090412912" y1="163.8461538461538" y2="163.8461538461538"></line><line stroke="#6A6A6A" stroke-width="1.3" x1="-16.600000000000023" x2="276.2796090412912" y1="153.8461538461538" y2="153.8461538461538"></line><line stroke="#6A6A6A" stroke-width="1.3" x1="-16.600000000000023" x2="276.2796090412912" y1="143.8461538461538" y2="143.8461538461538"></line></g></g><g><line stroke="black" stroke-width="1.6" x1="277.07960904129123" x2="277.07960904129123" y1="143.8461538461538" y2="183.8461538461538"></line></g><g><g><path d="M4.360 159.486C8.360 159.486 13.280 155.766 13.280 151.966C13.280 149.686 11.480 148.206 8.880 148.206C3.960 148.206 0 151.846 0 155.726C0 158.086 1.920 159.486 4.360 159.486Z"></path></g><line stroke="#000000" stroke-width="1.2" x1="0.6" x2="0.6" y1="155.68615384615381" y2="181.93615384615381"></line><path d="M9.600 156.016C10.200 159.376 10.200 163.016 8.680 166.136C5.920 171.736 2.680 171.856 0.200 171.936L0 171.936L0 187.776C0 187.776 0.440 187.816 0.680 187.816C0.920 187.816 1.400 187.736 1.480 187.296C2.440 181.136 10.320 179.416 11.280 173.136C11.360 172.696 11.400 172.216 11.400 171.696C11.400 169.256 10.520 166.856 10.400 166.616C10.360 166.536 10.360 166.456 10.360 166.336C10.360 166.176 10.400 166.096 10.400 165.976C11.840 162.976 11.880 159.056 11.240 155.856C11.040 154.936 10.760 154.976 10.280 154.976C9.800 155.016 9.480 155.336 9.600 156.016ZM9.040 169.216C9.240 169.216 9.520 169.336 9.560 169.496C9.760 169.776 9.760 170.176 9.840 170.496C9.880 170.776 9.880 171.056 9.880 171.296C9.880 172.616 9.520 173.816 8.800 174.856C7.480 176.816 4.920 179.056 2.480 179.056L2.160 179.056C1.840 179.056 1.600 178.856 1.600 178.656C1.600 178.616 1.600 178.576 1.640 178.536C2.480 175.256 4.720 174.336 6.600 172.136C7.440 171.216 8.120 170.416 8.760 169.376C8.840 169.256 8.920 169.216 9.040 169.216Z"></path></g><g><g><path d="M15.760 164.486C19.760 164.486 24.680 160.766 24.680 156.966C24.680 154.686 22.880 153.206 20.280 153.206C15.360 153.206 11.400 156.846 11.400 160.726C11.400 163.086 13.320 164.486 15.760 164.486Z"></path></g><line stroke="#000000" stroke-width="1.2" x1="12" x2="12" y1="160.68615384615381" y2="198.68615384615381"></line></g><g><g><path d="M73.336 154.486C77.336 154.486 82.256 150.766 82.256 146.966C82.256 144.686 80.456 143.206 77.856 143.206C72.936 143.206 68.976 146.846 68.976 150.726C68.976 153.086 70.896 154.486 73.336 154.486Z"></path></g><line stroke="#000000" stroke-width="1.2" x1="69.57600586153178" x2="69.57600586153178" y1="150.68615384615381" y2="176.93615384615381"></line><path d="M78.576 151.016C79.176 154.376 79.176 158.016 77.656 161.136C74.896 166.736 71.656 166.856 69.176 166.936L68.976 166.936L68.976 182.776C68.976 182.776 69.416 182.816 69.656 182.816C69.896 182.816 70.376 182.736 70.456 182.296C71.416 176.136 79.296 174.416 80.256 168.136C80.336 167.696 80.376 167.216 80.376 166.696C80.376 164.256 79.496 161.856 79.376 161.616C79.336 161.536 79.336 161.456 79.336 161.336C79.336 161.176 79.376 161.096 79.376 160.976C80.816 157.976 80.856 154.056 80.216 150.856C80.016 149.936 79.736 149.976 79.256 149.976C78.776 150.016 78.456 150.336 78.576 151.016ZM78.016 164.216C78.216 164.216 78.496 164.336 78.536 164.496C78.736 164.776 78.736 165.176 78.816 165.496C78.856 165.776 78.856 166.056 78.856 166.296C78.856 167.616 78.496 168.816 77.776 169.856C76.456 171.816 73.896 174.056 71.456 174.056L71.136 174.056C70.816 174.056 70.576 173.856 70.576 173.656C70.576 173.616 70.576 173.576 70.616 173.536C71.456 170.256 73.696 169.336 75.576 167.136C76.416 166.216 77.096 165.416 77.736 164.376C77.816 164.256 77.896 164.216 78.016 164.216Z"></path></g><g><g><path d="M84.736 159.486C88.736 159.486 93.656 155.766 93.656 151.966C93.656 149.686 91.856 148.206 89.256 148.206C84.336 148.206 80.376 151.846 80.376 155.726C80.376 158.086 82.296 159.486 84.736 159.486Z"></path></g><line stroke="#000000" stroke-width="1.2" x1="80.97600586153177" x2="80.97600586153177" y1="155.68615384615381" y2="181.93615384615381"></line><path d="M89.976 156.016C90.576 159.376 90.576 163.016 89.056 166.136C86.296 171.736 83.056 171.856 80.576 171.936L80.376 171.936L80.376 187.776C80.376 187.776 80.816 187.816 81.056 187.816C81.296 187.816 81.776 187.736 81.856 187.296C82.816 181.136 90.696 179.416 91.656 173.136C91.736 172.696 91.776 172.216 91.776 171.696C91.776 169.256 90.896 166.856 90.776 166.616C90.736 166.536 90.736 166.456 90.736 166.336C90.736 166.176 90.776 166.096 90.776 165.976C92.216 162.976 92.256 159.056 91.616 155.856C91.416 154.936 91.136 154.976 90.656 154.976C90.176 155.016 89.856 155.336 89.976 156.016ZM89.416 169.216C89.616 169.216 89.896 169.336 89.936 169.496C90.136 169.776 90.136 170.176 90.216 170.496C90.256 170.776 90.256 171.056 90.256 171.296C90.256 172.616 89.896 173.816 89.176 174.856C87.856 176.816 85.296 179.056 82.856 179.056L82.536 179.056C82.216 179.056 81.976 178.856 81.976 178.656C81.976 178.616 81.976 178.576 82.016 178.536C82.856 175.256 85.096 174.336 86.976 172.136C87.816 171.216 88.496 170.416 89.136 169.376C89.216 169.256 89.296 169.216 89.416 169.216Z"></path></g><g><g><path d="M96.256 164.646C103.896 164.646 105.416 158.446 105.416 156.926C105.416 154.566 103.536 153.046 100.856 153.046C93.936 153.046 91.776 158.406 91.776 160.806C91.776 163.246 93.736 164.646 96.256 164.646ZM99.776 160.966C97.696 162.366 96.256 162.846 95.256 162.846C94.296 162.846 93.736 162.366 93.416 161.806C93.256 161.526 93.136 161.206 93.136 160.886C93.136 159.886 94.136 158.606 97.336 156.766C99.616 155.446 101.056 154.966 102.016 154.966C102.896 154.966 103.376 155.366 103.696 155.926C103.856 156.206 103.976 156.486 103.976 156.806C103.976 157.726 103.016 158.846 99.776 160.966Z"></path></g><line stroke="#000000" stroke-width="1.2" x1="92.37600586153178" x2="92.37600586153178" y1="160.80615384615382" y2="198.80615384615382"></line></g><g><g><path d="M176.136 159.486C180.136 159.486 185.056 155.766 185.056 151.966C185.056 149.686 183.256 148.206 180.656 148.206C175.736 148.206 171.776 151.846 171.776 155.726C171.776 158.086 173.696 159.486 176.136 159.486Z"></path></g><line stroke="#000000" stroke-width="1.2" x1="172.3764261278995" x2="172.3764261278995" y1="155.68615384615381" y2="181.93615384615381"></line><path d="M181.376 156.016C181.976 159.376 181.976 163.016 180.456 166.136C177.696 171.736 174.456 171.856 171.976 171.936L171.776 171.936L171.776 187.776C171.776 187.776 172.216 187.816 172.456 187.816C172.696 187.816 173.176 187.736 173.256 187.296C174.216 181.136 182.096 179.416 183.056 173.136C183.136 172.696 183.176 172.216 183.176 171.696C183.176 169.256 182.296 166.856 182.176 166.616C182.136 166.536 182.136 166.456 182.136 166.336C182.136 166.176 182.176 166.096 182.176 165.976C183.616 162.976 183.656 159.056 183.016 155.856C182.816 154.936 182.536 154.976 182.056 154.976C181.576 155.016 181.256 155.336 181.376 156.016ZM180.816 169.216C181.016 169.216 181.296 169.336 181.336 169.496C181.536 169.776 181.536 170.176 181.616 170.496C181.656 170.776 181.656 171.056 181.656 171.296C181.656 172.616 181.296 173.816 180.576 174.856C179.256 176.816 176.696 179.056 174.256 179.056L173.936 179.056C173.616 179.056 173.376 178.856 173.376 178.656C173.376 178.616 173.376 178.576 173.416 178.536C174.256 175.256 176.496 174.336 178.376 172.136C179.216 171.216 179.896 170.416 180.536 169.376C180.616 169.256 180.696 169.216 180.816 169.216Z"></path></g><g><g><path d="M187.536 164.486C191.536 164.486 196.456 160.766 196.456 156.966C196.456 154.686 194.656 153.206 192.056 153.206C187.136 153.206 183.176 156.846 183.176 160.726C183.176 163.086 185.096 164.486 187.536 164.486Z"></path></g><line stroke="#000000" stroke-width="1.2" x1="183.7764261278995" x2="183.7764261278995" y1="160.68615384615381" y2="194.68615384615381"></line><g><polygon fill="black" points="183.7764261278995,195.8461538461538 230.32801758459536,195.8461538461538 230.32801758459536,190.8461538461538 183.7764261278995,190.8461538461538" stroke="black" stroke-width="0"></polygon></g></g><g><g><path d="M222.688 159.486C226.688 159.486 231.608 155.766 231.608 151.966C231.608 149.686 229.808 148.206 227.208 148.206C222.288 148.206 218.328 151.846 218.328 155.726C218.328 158.086 220.248 159.486 222.688 159.486Z"></path></g><line stroke="#000000" stroke-width="1.2" x1="218.92801758459535" x2="218.92801758459535" y1="155.68615384615381" y2="181.93615384615381"></line><path d="M227.928 156.016C228.528 159.376 228.528 163.016 227.008 166.136C224.248 171.736 221.008 171.856 218.528 171.936L218.328 171.936L218.328 187.776C218.328 187.776 218.768 187.816 219.008 187.816C219.248 187.816 219.728 187.736 219.808 187.296C220.768 181.136 228.648 179.416 229.608 173.136C229.688 172.696 229.728 172.216 229.728 171.696C229.728 169.256 228.848 166.856 228.728 166.616C228.688 166.536 228.688 166.456 228.688 166.336C228.688 166.176 228.728 166.096 228.728 165.976C230.168 162.976 230.208 159.056 229.568 155.856C229.368 154.936 229.088 154.976 228.608 154.976C228.128 155.016 227.808 155.336 227.928 156.016ZM227.368 169.216C227.568 169.216 227.848 169.336 227.888 169.496C228.088 169.776 228.088 170.176 228.168 170.496C228.208 170.776 228.208 171.056 228.208 171.296C228.208 172.616 227.848 173.816 227.128 174.856C225.808 176.816 223.248 179.056 220.808 179.056L220.488 179.056C220.168 179.056 219.928 178.856 219.928 178.656C219.928 178.616 219.928 178.576 219.968 178.536C220.808 175.256 223.048 174.336 224.928 172.136C225.768 171.216 226.448 170.416 227.088 169.376C227.168 169.256 227.248 169.216 227.368 169.216Z"></path></g><g><g><path d="M234.088 164.486C238.088 164.486 243.008 160.766 243.008 156.966C243.008 154.686 241.208 153.206 238.608 153.206C233.688 153.206 229.728 156.846 229.728 160.726C229.728 163.086 231.648 164.486 234.088 164.486Z"></path></g><line stroke="#000000" stroke-width="1.2" x1="230.32801758459536" x2="230.32801758459536" y1="160.68615384615381" y2="194.68615384615381"></line></g><g><g><path d="M269.240 154.486C273.240 154.486 278.160 150.766 278.160 146.966C278.160 144.686 276.360 143.206 273.760 143.206C268.840 143.206 264.880 146.846 264.880 150.726C264.880 153.086 266.800 154.486 269.240 154.486Z"></path></g><line stroke="#000000" stroke-width="1.2" x1="265.47960904129127" x2="265.47960904129127" y1="150.68615384615381" y2="176.93615384615381"></line><path d="M274.480 151.016C275.080 154.376 275.080 158.016 273.560 161.136C270.800 166.736 267.560 166.856 265.080 166.936L264.880 166.936L264.880 182.776C264.880 182.776 265.320 182.816 265.560 182.816C265.800 182.816 266.280 182.736 266.360 182.296C267.320 176.136 275.200 174.416 276.160 168.136C276.240 167.696 276.280 167.216 276.280 166.696C276.280 164.256 275.400 161.856 275.280 161.616C275.240 161.536 275.240 161.456 275.240 161.336C275.240 161.176 275.280 161.096 275.280 160.976C276.720 157.976 276.760 154.056 276.120 150.856C275.920 149.936 275.640 149.976 275.160 149.976C274.680 150.016 274.360 150.336 274.480 151.016ZM273.920 164.216C274.120 164.216 274.400 164.336 274.440 164.496C274.640 164.776 274.640 165.176 274.720 165.496C274.760 165.776 274.760 166.056 274.760 166.296C274.760 167.616 274.400 168.816 273.680 169.856C272.360 171.816 269.800 174.056 267.360 174.056L267.040 174.056C266.720 174.056 266.480 173.856 266.480 173.656C266.480 173.616 266.480 173.576 266.520 173.536C267.360 170.256 269.600 169.336 271.480 167.136C272.320 166.216 273.000 165.416 273.640 164.376C273.720 164.256 273.800 164.216 273.920 164.216Z"></path></g></g><g transform="translate(779.6297863335724)"><g><g><line stroke="#6A6A6A" stroke-width="1.3" x1="-16.600000000000023" x2="311.4408234461272" y1="183.8461538461538" y2="183.8461538461538"></line><line stroke="#6A6A6A" stroke-width="1.3" x1="-16.600000000000023" x2="311.4408234461272" y1="173.8461538461538" y2="173.8461538461538"></line><line stroke="#6A6A6A" stroke-width="1.3" x1="-16.600000000000023" x2="311.4408234461272" y1="163.8461538461538" y2="163.8461538461538"></line><line stroke="#6A6A6A" stroke-width="1.3" x1="-16.600000000000023" x2="311.4408234461272" y1="153.8461538461538" y2="153.8461538461538"></line><line stroke="#6A6A6A" stroke-width="1.3" x1="-16.600000000000023" x2="311.4408234461272" y1="143.8461538461538" y2="143.8461538461538"></line></g></g><g><line stroke="#000000" stroke-width="1.6" x1="301.6408234461271" x2="301.6408234461271" y1="143.8461538461538" y2="183.8461538461538"></line><line stroke="#000000" stroke-width="5" x1="308.9408234461271" x2="308.9408234461271" y1="143.8461538461538" y2="183.8461538461538"></line></g><g><g><path d="M4.360 154.486C8.360 154.486 13.280 150.766 13.280 146.966C13.280 144.686 11.480 143.206 8.880 143.206C3.960 143.206 0 146.846 0 150.726C0 153.086 1.920 154.486 4.360 154.486Z"></path></g><line stroke="#000000" stroke-width="1.2" x1="0.6" x2="0.6" y1="150.68615384615381" y2="176.93615384615381"></line><path d="M9.600 151.016C10.200 154.376 10.200 158.016 8.680 161.136C5.920 166.736 2.680 166.856 0.200 166.936L0 166.936L0 182.776C0 182.776 0.440 182.816 0.680 182.816C0.920 182.816 1.400 182.736 1.480 182.296C2.440 176.136 10.320 174.416 11.280 168.136C11.360 167.696 11.400 167.216 11.400 166.696C11.400 164.256 10.520 161.856 10.400 161.616C10.360 161.536 10.360 161.456 10.360 161.336C10.360 161.176 10.400 161.096 10.400 160.976C11.840 157.976 11.880 154.056 11.240 150.856C11.040 149.936 10.760 149.976 10.280 149.976C9.800 150.016 9.480 150.336 9.600 151.016ZM9.040 164.216C9.240 164.216 9.520 164.336 9.560 164.496C9.760 164.776 9.760 165.176 9.840 165.496C9.880 165.776 9.880 166.056 9.880 166.296C9.880 167.616 9.520 168.816 8.800 169.856C7.480 171.816 4.920 174.056 2.480 174.056L2.160 174.056C1.840 174.056 1.600 173.856 1.600 173.656C1.600 173.616 1.600 173.576 1.640 173.536C2.480 170.256 4.720 169.336 6.600 167.136C7.440 166.216 8.120 165.416 8.760 164.376C8.840 164.256 8.920 164.216 9.040 164.216Z"></path></g><g><g><path d="M15.760 184.486C19.760 184.486 24.680 180.766 24.680 176.966C24.680 174.686 22.880 173.206 20.280 173.206C15.360 173.206 11.400 176.846 11.400 180.726C11.400 183.086 13.320 184.486 15.760 184.486Z"></path></g><g><path d="M15.760 164.486C19.760 164.486 24.680 160.766 24.680 156.966C24.680 154.686 22.880 153.206 20.280 153.206C15.360 153.206 11.400 156.846 11.400 160.726C11.400 163.086 13.320 164.486 15.760 164.486Z"></path></g><line stroke="#000000" stroke-width="1.2" x1="24.080000000000002" x2="24.080000000000002" y1="177.0061538461538" y2="127.00615384615381"></line></g><g><g><path d="M82.096 159.486C86.096 159.486 91.016 155.766 91.016 151.966C91.016 149.686 89.216 148.206 86.616 148.206C81.696 148.206 77.736 151.846 77.736 155.726C77.736 158.086 79.656 159.486 82.096 159.486Z"></path><path d="M75.216 149.126C75.496 149.006 75.696 148.686 75.696 148.446L75.696 145.606C75.696 145.406 75.576 145.286 75.416 145.286C75.336 145.286 75.296 145.286 75.216 145.326C75.216 145.326 74.416 145.646 74.216 145.686C73.936 145.686 73.656 145.486 73.656 145.166C73.656 144.766 73.656 140.286 73.656 140.286C73.656 140.046 73.416 139.846 73.096 139.846C72.696 139.846 72.456 140.046 72.456 140.286C72.456 140.286 72.456 145.086 72.456 145.486C72.416 145.886 72.296 146.406 71.936 146.646C71.456 146.926 70.096 147.486 69.416 147.646C69.056 147.646 68.936 147.166 68.936 146.846C68.936 146.446 68.936 142.046 68.936 142.046C68.936 141.806 68.656 141.606 68.376 141.606C67.976 141.606 67.736 141.806 67.736 142.046C67.736 142.046 67.736 144.206 67.736 145.806L67.736 147.446C67.736 148.006 67.496 148.406 67.256 148.526C67.016 148.646 66.216 148.966 66.216 148.966C65.936 149.046 65.736 149.366 65.736 149.606L65.736 152.446C65.736 152.686 65.856 152.806 66.056 152.806C66.096 152.806 66.176 152.766 66.216 152.766C66.216 152.766 66.816 152.526 67.096 152.366C67.136 152.366 67.176 152.326 67.216 152.326C67.496 152.326 67.736 152.726 67.736 153.046L67.736 157.006C67.736 157.446 67.536 157.806 67.296 157.926C67.056 158.006 66.216 158.366 66.216 158.366C65.936 158.446 65.736 158.766 65.736 159.006L65.736 161.846C65.736 162.086 65.856 162.206 66.056 162.206C66.096 162.206 66.176 162.166 66.216 162.166C66.216 162.166 66.776 161.926 67.136 161.806C67.176 161.766 67.216 161.766 67.256 161.766C67.536 161.766 67.736 162.206 67.736 162.406C67.736 162.646 67.736 167.326 67.736 167.326C67.736 167.566 67.976 167.766 68.256 167.766C68.656 167.766 68.936 167.566 68.936 167.326C68.936 167.326 68.936 162.246 68.936 161.766C68.936 161.246 69.136 160.966 69.336 160.886L71.776 159.886C71.816 159.886 71.896 159.846 71.936 159.846C72.256 159.846 72.456 160.326 72.456 160.566C72.456 160.846 72.456 165.566 72.456 165.566C72.456 165.806 72.696 166.006 72.976 166.006C73.416 166.006 73.656 165.806 73.656 165.566C73.656 165.566 73.656 160.166 73.656 159.886C73.656 159.566 73.816 159.086 74.096 158.966C74.376 158.846 75.216 158.526 75.216 158.526C75.496 158.406 75.696 158.086 75.696 157.846L75.696 155.006C75.696 154.806 75.576 154.686 75.416 154.686C75.336 154.686 75.296 154.686 75.216 154.726C75.216 154.726 74.376 155.046 74.176 155.126C73.936 155.126 73.656 154.886 73.656 154.406L73.656 150.686C73.656 150.406 73.856 149.646 74.176 149.526C74.496 149.406 75.216 149.126 75.216 149.126ZM72.456 155.646C72.216 156.446 70.336 157.246 69.416 157.246C69.176 157.246 68.976 157.166 68.936 157.046C68.856 156.886 68.816 156.006 68.816 155.046C68.816 153.806 68.856 152.406 68.936 152.086C69.016 151.406 70.856 150.566 71.856 150.566C72.136 150.566 72.376 150.646 72.456 150.806C72.536 151.006 72.616 152.006 72.616 153.086C72.616 154.166 72.536 155.286 72.456 155.646Z"></path></g><line stroke="#000000" stroke-width="1.2" x1="78.33600586153177" x2="78.33600586153177" y1="155.68615384615381" y2="181.93615384615381"></line></g><g><g><path d="M93.496 164.486C97.496 164.486 102.416 160.766 102.416 156.966C102.416 154.686 100.616 153.206 98.016 153.206C93.096 153.206 89.136 156.846 89.136 160.726C89.136 163.086 91.056 164.486 93.496 164.486Z"></path></g><line stroke="#000000" stroke-width="1.2" x1="89.73600586153178" x2="89.73600586153178" y1="160.68615384615381" y2="198.68615384615381"></line></g><g><g><path d="M159.160 159.486C163.160 159.486 168.080 155.766 168.080 151.966C168.080 149.686 166.280 148.206 163.680 148.206C158.760 148.206 154.800 151.846 154.800 155.726C154.800 158.086 156.720 159.486 159.160 159.486Z"></path><path d="M144.200 160.646C144.320 160.806 144.440 160.846 144.560 160.846C144.680 160.846 144.800 160.766 144.800 160.766C146.000 160.086 146.960 159.006 147.960 158.326C151.520 155.846 152.760 153.406 152.760 151.566C152.760 149.286 151.000 147.846 149.160 147.726C148.880 147.726 148.600 147.766 148.320 147.846C147.880 147.966 147.400 148.126 146.960 148.406C146.720 148.606 146.440 148.966 146.080 148.966C146.000 148.966 145.960 148.966 145.880 148.926C145.600 148.806 145.440 148.526 145.440 148.246C145.480 147.366 145.720 137.766 145.720 136.966C145.720 136.526 145.360 136.286 144.960 136.286C144.400 136.286 143.760 136.686 143.720 137.406C143.720 137.406 143.880 160.246 144.200 160.646ZM145.600 157.086C145.600 157.086 145.480 154.686 145.480 153.086C145.480 152.446 145.520 151.966 145.560 151.806C145.720 151.326 146.760 150.446 147.320 150.126C147.680 149.926 148.040 149.846 148.360 149.846C148.760 149.846 149.120 150.006 149.360 150.286C149.760 150.726 150.000 151.406 150.000 152.166C150.000 152.886 149.800 153.726 149.320 154.566C148.800 155.526 147.640 156.806 146.440 157.566C146.280 157.646 146.160 157.686 146.040 157.686C145.680 157.686 145.600 157.286 145.600 157.086Z"></path></g><line stroke="#000000" stroke-width="1.2" x1="155.40041172306357" x2="155.40041172306357" y1="155.68615384615381" y2="181.93615384615381"></line></g><g><g><path d="M178.649 174.486C182.649 174.486 187.569 170.766 187.569 166.966C187.569 164.686 185.769 163.206 183.169 163.206C178.249 163.206 174.289 166.846 174.289 170.726C174.289 173.086 176.209 174.486 178.649 174.486Z"></path><path d="M163.689 175.646C163.809 175.806 163.929 175.846 164.049 175.846C164.169 175.846 164.289 175.766 164.289 175.766C165.489 175.086 166.449 174.006 167.449 173.326C171.009 170.846 172.249 168.406 172.249 166.566C172.249 164.286 170.489 162.846 168.649 162.726C168.369 162.726 168.089 162.766 167.809 162.846C167.369 162.966 166.889 163.126 166.449 163.406C166.209 163.606 165.929 163.966 165.569 163.966C165.489 163.966 165.449 163.966 165.369 163.926C165.089 163.806 164.929 163.526 164.929 163.246C164.969 162.366 165.209 152.766 165.209 151.966C165.209 151.526 164.849 151.286 164.449 151.286C163.889 151.286 163.249 151.686 163.209 152.406C163.209 152.406 163.369 175.246 163.689 175.646ZM165.089 172.086C165.089 172.086 164.969 169.686 164.969 168.086C164.969 167.446 165.009 166.966 165.049 166.806C165.209 166.326 166.249 165.446 166.809 165.126C167.169 164.926 167.529 164.846 167.849 164.846C168.249 164.846 168.609 165.006 168.849 165.286C169.249 165.726 169.489 166.406 169.489 167.166C169.489 167.886 169.289 168.726 168.809 169.566C168.289 170.526 167.129 171.806 165.929 172.566C165.769 172.646 165.649 172.686 165.529 172.686C165.169 172.686 165.089 172.286 165.089 172.086Z"></path></g><line stroke="#000000" stroke-width="1.2" x1="186.96881172306357" x2="186.96881172306357" y1="167.0061538461538" y2="140.7561538461538"></line></g><g><g><path d="M190.049 164.486C194.049 164.486 198.969 160.766 198.969 156.966C198.969 154.686 197.169 153.206 194.569 153.206C189.649 153.206 185.689 156.846 185.689 160.726C185.689 163.086 187.609 164.486 190.049 164.486Z"></path></g><line stroke="#000000" stroke-width="1.2" x1="186.28881172306356" x2="186.28881172306356" y1="160.68615384615381" y2="198.68615384615381"></line></g><g><g><path d="M247.625 164.486C251.625 164.486 256.545 160.766 256.545 156.966C256.545 154.686 254.745 153.206 252.145 153.206C247.225 153.206 243.265 156.846 243.265 160.726C243.265 163.086 245.185 164.486 247.625 164.486Z"></path></g><line stroke="#000000" stroke-width="1.2" x1="243.86481758459533" x2="243.86481758459533" y1="160.68615384615381" y2="198.68615384615381"></line></g></g></svg>