<?xml version="1.0" encoding="UTF-8" standalone="no"?><svg xmlns="http://www.w3.org/2000/svg" height="279.4mm" viewBox="0 0 1328.6153846153845 1719.3846153846152" width="215.9mm"><text x="664.3076923076923" y="61.53846153846143"><tspan alignment-baseline="hanging" fill="black" direction="inherit" dx="0" dy="0" font-style="normal" font-weight="normal" font-family="Alegreya" font-size="29.30769230769231" letter-spacing="normal" text-decoration="none" text-anchor="middle">All MusicXML chord names/types with &lt;root&gt;</tspan></text><g transform="translate(163.84615384615387)"><g><g><line stroke="#6A6A6A" stroke-width="1.3" x1="0" x2="117.70872596153856" y1="183.8461538461538" y2="183.8461538461538"></line><line stroke="#6A6A6A" stroke-width="1.3" x1="0" x2="117.70872596153856" y1="173.8461538461538" y2="173.8461538461538"></line><line stroke="#6A6A6A" stroke-width="1.3" x1="0" x2="117.70872596153856" y1="163.8461538461538" y2="163.8461538461538"></line><line stroke="#6A6A6A" stroke-width="1.3" x1="0" x2="117.70872596153856" y1="153.8461538461538" y2="153.8461538461538"></line><line stroke="#6A6A6A" stroke-width="1.3" x1="0" x2="117.70872596153856" y1="143.8461538461538" y2="143.8461538461538"></line></g><g><path d="M25.200 129.926C24.640 129.926 23.400 130.966 22.600 131.846C19.640 135.126 18.680 140.126 18.680 144.286C18.680 146.606 18.960 149.206 19.240 150.846C19.320 151.326 19.360 151.406 18.880 151.806C16.320 153.926 13.560 156.366 11.480 158.926C8.720 162.366 7 166.086 7 170.366C7 177.326 11.760 183.926 21.560 183.926C22.480 183.926 23.520 183.846 24.320 183.686C24.760 183.606 24.840 183.566 24.920 184.046C25.400 186.726 26 190.206 26 192.086C26 198.006 22 198.726 19.640 198.726C17.480 198.726 16.440 198.086 16.440 197.566C16.440 197.126 16.800 197.166 17.720 196.886C18.960 196.526 20.400 195.446 20.400 193.126C20.400 190.926 19 189.046 16.560 189.046C13.880 189.046 12.280 191.166 12.280 193.646C12.280 196.246 13.840 200.166 19.880 200.166C22.560 200.166 27.760 198.966 27.760 192.166C27.760 189.886 27.040 186.086 26.600 183.606C26.520 183.126 26.560 183.166 27.120 182.926C31.160 181.326 33.840 177.926 33.840 173.406C33.840 168.286 30.080 163.766 24.200 163.766C23.080 163.766 23.200 163.966 23.040 163.046L22.040 157.246C21.960 156.766 22.040 156.726 22.280 156.486C22.920 155.886 23.760 155.046 24.520 154.206C27.880 150.526 29.880 145.766 29.880 141.246C29.880 137.766 28.920 134.326 27.280 131.926C26.680 131.046 25.640 129.926 25.200 129.926ZM20.040 158.086C20.440 157.766 20.520 157.806 20.600 158.246L21.440 163.366C21.560 164.126 21.560 164.086 20.840 164.326C17.320 165.526 15.040 168.686 15.040 172.086C15.040 175.686 16.920 178.246 19.640 179.166C19.960 179.286 20.440 179.406 20.720 179.406C21.040 179.406 21.200 179.206 21.200 178.966C21.200 178.686 20.880 178.566 20.600 178.446C18.920 177.726 17.720 176.006 17.720 174.166C17.720 171.886 19.280 170.166 21.720 169.486C22.360 169.326 22.440 169.366 22.520 169.806L24.520 181.726C24.600 182.166 24.560 182.166 23.960 182.286C23.320 182.406 22.520 182.486 21.720 182.486C14.720 182.486 10.200 178.606 10.200 173.046C10.200 170.686 10.600 167.526 13.920 163.766C16.320 161.086 18.160 159.606 20.040 158.086ZM24.640 169.166C27.880 169.446 30.560 172.166 30.560 175.686C30.560 178.206 29.040 180.246 26.800 181.366C26.320 181.606 26.240 181.606 26.160 181.126L24.200 169.726C24.120 169.246 24.160 169.126 24.640 169.166ZM25.800 136.126C27.120 136.126 28.200 137.206 28.200 139.406C28.200 142.166 26.880 144.726 23.760 147.846C23.120 148.486 22.160 149.406 21.240 150.206C20.960 150.446 20.800 150.406 20.720 149.886C20.560 148.846 20.480 147.486 20.480 146.206C20.480 139.966 23.360 136.126 25.800 136.126Z"></path></g><g></g><path d="M57.820 153.806C56.620 153.806 55.220 154.126 54.140 154.606C50.580 156.166 48.700 160.446 48.700 164.246C48.700 164.606 48.700 164.966 48.740 165.326C48.940 167.486 49.980 169.526 51.300 171.126C52.820 172.966 55.020 173.806 57.420 173.806C64.420 173.806 65.460 167.446 65.460 166.286C65.460 165.406 65.020 165.406 64.860 165.406C64.540 165.406 64.260 165.446 64.260 166.126C64.260 171.286 59.860 172.486 58.580 172.486C55.340 172.486 53.620 169.326 53.620 162.726C53.620 156.126 56.660 154.766 58.820 154.766C60.900 154.766 61.740 155.726 61.740 156.126C61.740 156.486 61.620 157.006 61.020 157.006C59.420 157.006 58.500 158.726 58.500 159.966C58.500 162.246 60.460 162.966 61.580 162.966C61.580 162.966 64.620 162.846 64.620 159.526C64.620 154.286 58.580 153.806 57.820 153.806Z"></path></g><g><line stroke="black" stroke-width="1.6" x1="89.08263461538469" x2="89.08263461538469" y1="143.8461538461538" y2="183.8461538461538"></line></g><g><g><path d="M93.360 199.486C97.360 199.486 102.280 195.766 102.280 191.966C102.280 189.686 100.480 188.206 97.880 188.206C92.960 188.206 89 191.846 89 195.726C89 198.086 90.920 199.486 93.360 199.486Z"></path></g><line stroke="#000000" stroke-width="1.2" x1="101.68" x2="101.68" y1="192.0061538461538" y2="157.0061538461538"></line><line stroke="#000000" stroke-width="2.2" x1="85.8" x2="107.72" y1="193.8461538461538" y2="193.8461538461538"></line><text font-family="Alegreya" font-size="22" text-anchor="middle" x="95.64" y="223.8461538461538">major</text></g><g><g><path d="M80.354 199.486C84.354 199.486 89.274 195.766 89.274 191.966C89.274 189.686 87.474 188.206 84.874 188.206C79.954 188.206 75.994 191.846 75.994 195.726C75.994 198.086 77.914 199.486 80.354 199.486Z"></path></g><line stroke="#000000" stroke-width="1.2" x1="88.67390865384618" x2="88.67390865384618" y1="192.0061538461538" y2="157.0061538461538"></line><line stroke="#000000" stroke-width="2.2" x1="72.79390865384617" x2="94.71390865384618" y1="193.8461538461538" y2="193.8461538461538"></line><text font-family="Alegreya" font-size="22" text-anchor="middle" x="82.63390865384618" y="223.8461538461538">minor</text></g><g><g><path d="M90.283 199.486C94.283 199.486 99.203 195.766 99.203 191.966C99.203 189.686 97.403 188.206 94.803 188.206C89.883 188.206 85.923 191.846 85.923 195.726C85.923 198.086 87.843 199.486 90.283 199.486Z"></path></g><line stroke="#000000" stroke-width="1.2" x1="98.60281730769238" x2="98.60281730769238" y1="192.0061538461538" y2="157.0061538461538"></line><line stroke="#000000" stroke-width="2.2" x1="82.72281730769237" x2="104.64281730769237" y1="193.8461538461538" y2="193.8461538461538"></line><text font-family="Alegreya" font-size="22" text-anchor="middle" x="92.56281730769237" y="223.8461538461538">augmented</text></g><g><g><path d="M122.069 199.486C126.069 199.486 130.989 195.766 130.989 191.966C130.989 189.686 129.189 188.206 126.589 188.206C121.669 188.206 117.709 191.846 117.709 195.726C117.709 198.086 119.629 199.486 122.069 199.486Z"></path></g><line stroke="#000000" stroke-width="1.2" x1="130.38872596153857" x2="130.38872596153857" y1="192.0061538461538" y2="157.0061538461538"></line><line stroke="#000000" stroke-width="2.2" x1="114.50872596153856" x2="136.42872596153856" y1="193.8461538461538" y2="193.8461538461538"></line><text font-family="Alegreya" font-size="22" text-anchor="middle" x="124.34872596153856" y="223.8461538461538">diminished</text></g></g><g transform="translate(268.72878846153856)"><g><g><line stroke="#6A6A6A" stroke-width="1.3" x1="-15.882634615384717" x2="966.0404423076928" y1="183.8461538461538" y2="183.8461538461538"></line><line stroke="#6A6A6A" stroke-width="1.3" x1="-15.882634615384717" x2="966.0404423076928" y1="173.8461538461538" y2="173.8461538461538"></line><line stroke="#6A6A6A" stroke-width="1.3" x1="-15.882634615384717" x2="966.0404423076928" y1="163.8461538461538" y2="163.8461538461538"></line><line stroke="#6A6A6A" stroke-width="1.3" x1="-15.882634615384717" x2="966.0404423076928" y1="153.8461538461538" y2="153.8461538461538"></line><line stroke="#6A6A6A" stroke-width="1.3" x1="-15.882634615384717" x2="966.0404423076928" y1="143.8461538461538" y2="143.8461538461538"></line></g></g><g><line stroke="black" stroke-width="1.6" x1="189.46863461538467" x2="189.46863461538467" y1="143.8461538461538" y2="183.8461538461538"></line></g><g><g><path d="M35.489 199.486C39.489 199.486 44.409 195.766 44.409 191.966C44.409 189.686 42.609 188.206 40.009 188.206C35.089 188.206 31.129 191.846 31.129 195.726C31.129 198.086 33.049 199.486 35.489 199.486Z"></path></g><line stroke="#000000" stroke-width="1.2" x1="43.80899999999999" x2="43.80899999999999" y1="192.0061538461538" y2="157.0061538461538"></line><line stroke="#000000" stroke-width="2.2" x1="27.92899999999999" x2="49.84899999999999" y1="193.8461538461538" y2="193.8461538461538"></line><text font-family="Alegreya" font-size="22" text-anchor="middle" x="37.76899999999999" y="223.8461538461538">dominant</text></g><g><g><path d="M76.460 199.486C80.460 199.486 85.380 195.766 85.380 191.966C85.380 189.686 83.580 188.206 80.980 188.206C76.060 188.206 72.100 191.846 72.100 195.726C72.100 198.086 74.020 199.486 76.460 199.486Z"></path></g><line stroke="#000000" stroke-width="1.2" x1="84.77990865384615" x2="84.77990865384615" y1="192.0061538461538" y2="157.0061538461538"></line><line stroke="#000000" stroke-width="2.2" x1="68.89990865384614" x2="90.81990865384614" y1="193.8461538461538" y2="193.8461538461538"></line><text font-family="Alegreya" font-size="22" text-anchor="middle" x="78.73990865384614" y="223.8461538461538">major-seventh</text></g><g><g><path d="M136.978 199.486C140.978 199.486 145.898 195.766 145.898 191.966C145.898 189.686 144.098 188.206 141.498 188.206C136.578 188.206 132.618 191.846 132.618 195.726C132.618 198.086 134.538 199.486 136.978 199.486Z"></path></g><line stroke="#000000" stroke-width="1.2" x1="145.2978173076923" x2="145.2978173076923" y1="192.0061538461538" y2="157.0061538461538"></line><line stroke="#000000" stroke-width="2.2" x1="129.4178173076923" x2="151.3378173076923" y1="193.8461538461538" y2="193.8461538461538"></line><text font-family="Alegreya" font-size="22" text-anchor="middle" x="139.25781730769228" y="223.8461538461538">minor-seventh</text></g><g><g><path d="M222.455 199.486C226.455 199.486 231.375 195.766 231.375 191.966C231.375 189.686 229.575 188.206 226.975 188.206C222.055 188.206 218.095 191.846 218.095 195.726C218.095 198.086 220.015 199.486 222.455 199.486Z"></path></g><line stroke="#000000" stroke-width="1.2" x1="230.77472596153848" x2="230.77472596153848" y1="192.0061538461538" y2="157.0061538461538"></line><line stroke="#000000" stroke-width="2.2" x1="214.89472596153848" x2="236.81472596153847" y1="193.8461538461538" y2="193.8461538461538"></line><text font-family="Alegreya" font-size="22" text-anchor="middle" x="224.73472596153846" y="223.8461538461538">diminished-seventh</text></g></g><g transform="translate(473.9974230769232)"><g></g><g><line stroke="black" stroke-width="1.6" x1="239.24363461538465" x2="239.24363461538465" y1="143.8461538461538" y2="183.8461538461538"></line></g><g><g><path d="M78.257 199.486C82.257 199.486 87.177 195.766 87.177 191.966C87.177 189.686 85.377 188.206 82.777 188.206C77.857 188.206 73.897 191.846 73.897 195.726C73.897 198.086 75.817 199.486 78.257 199.486Z"></path></g><line stroke="#000000" stroke-width="1.2" x1="86.57699999999998" x2="86.57699999999998" y1="192.0061538461538" y2="157.0061538461538"></line><line stroke="#000000" stroke-width="2.2" x1="70.69699999999997" x2="92.61699999999998" y1="193.8461538461538" y2="193.8461538461538"></line><text font-family="Alegreya" font-size="22" text-anchor="middle" x="80.53699999999998" y="223.8461538461538">augmented-seventh</text></g><g><g><path d="M169.377 199.486C173.377 199.486 178.297 195.766 178.297 191.966C178.297 189.686 176.497 188.206 173.897 188.206C168.977 188.206 165.017 191.846 165.017 195.726C165.017 198.086 166.937 199.486 169.377 199.486Z"></path></g><line stroke="#000000" stroke-width="1.2" x1="177.69690865384612" x2="177.69690865384612" y1="192.0061538461538" y2="157.0061538461538"></line><line stroke="#000000" stroke-width="2.2" x1="161.81690865384613" x2="183.73690865384611" y1="193.8461538461538" y2="193.8461538461538"></line><text font-family="Alegreya" font-size="22" text-anchor="middle" x="171.65690865384613" y="223.8461538461538">half-diminished</text></g><g><g><path d="M230.797 199.486C234.797 199.486 239.717 195.766 239.717 191.966C239.717 189.686 237.917 188.206 235.317 188.206C230.397 188.206 226.437 191.846 226.437 195.726C226.437 198.086 228.357 199.486 230.797 199.486Z"></path></g><line stroke="#000000" stroke-width="1.2" x1="239.11681730769226" x2="239.11681730769226" y1="192.0061538461538" y2="157.0061538461538"></line><line stroke="#000000" stroke-width="2.2" x1="223.23681730769226" x2="245.15681730769225" y1="193.8461538461538" y2="193.8461538461538"></line><text font-family="Alegreya" font-size="22" text-anchor="middle" x="233.07681730769224" y="223.8461538461538">major-minor</text></g><g><g><path d="M272.230 199.486C276.230 199.486 281.150 195.766 281.150 191.966C281.150 189.686 279.350 188.206 276.750 188.206C271.830 188.206 267.870 191.846 267.870 195.726C267.870 198.086 269.790 199.486 272.230 199.486Z"></path></g><line stroke="#000000" stroke-width="1.2" x1="280.54972596153846" x2="280.54972596153846" y1="192.0061538461538" y2="157.0061538461538"></line><line stroke="#000000" stroke-width="2.2" x1="264.66972596153846" x2="286.5897259615385" y1="193.8461538461538" y2="193.8461538461538"></line><text font-family="Alegreya" font-size="22" text-anchor="middle" x="274.50972596153844" y="223.8461538461538">major-sixth</text></g></g><g transform="translate(729.0410576923077)"><g></g><g><line stroke="black" stroke-width="1.6" x1="163.61863461538465" x2="163.61863461538465" y1="143.8461538461538" y2="183.8461538461538"></line></g><g><g><path d="M42.430 199.486C46.430 199.486 51.350 195.766 51.350 191.966C51.350 189.686 49.550 188.206 46.950 188.206C42.030 188.206 38.070 191.846 38.070 195.726C38.070 198.086 39.990 199.486 42.430 199.486Z"></path></g><line stroke="#000000" stroke-width="1.2" x1="50.74999999999999" x2="50.74999999999999" y1="192.0061538461538" y2="157.0061538461538"></line><line stroke="#000000" stroke-width="2.2" x1="34.86999999999999" x2="56.78999999999999" y1="193.8461538461538" y2="193.8461538461538"></line><text font-family="Alegreya" font-size="22" text-anchor="middle" x="44.709999999999994" y="223.8461538461538">minor-sixth</text></g><g><g><path d="M98.493 199.486C102.493 199.486 107.413 195.766 107.413 191.966C107.413 189.686 105.613 188.206 103.013 188.206C98.093 188.206 94.133 191.846 94.133 195.726C94.133 198.086 96.053 199.486 98.493 199.486Z"></path></g><line stroke="#000000" stroke-width="1.2" x1="106.81290865384616" x2="106.81290865384616" y1="192.0061538461538" y2="157.0061538461538"></line><line stroke="#000000" stroke-width="2.2" x1="90.93290865384616" x2="112.85290865384616" y1="193.8461538461538" y2="193.8461538461538"></line><text font-family="Alegreya" font-size="22" text-anchor="middle" x="100.77290865384616" y="223.8461538461538">dominant-ninth</text></g><g><g><path d="M155.865 199.486C159.865 199.486 164.785 195.766 164.785 191.966C164.785 189.686 162.985 188.206 160.385 188.206C155.465 188.206 151.505 191.846 151.505 195.726C151.505 198.086 153.425 199.486 155.865 199.486Z"></path></g><line stroke="#000000" stroke-width="1.2" x1="164.1848173076923" x2="164.1848173076923" y1="192.0061538461538" y2="157.0061538461538"></line><line stroke="#000000" stroke-width="2.2" x1="148.3048173076923" x2="170.2248173076923" y1="193.8461538461538" y2="193.8461538461538"></line><text font-family="Alegreya" font-size="22" text-anchor="middle" x="158.14481730769228" y="223.8461538461538">major-ninth</text></g><g><g><path d="M196.605 199.486C200.605 199.486 205.525 195.766 205.525 191.966C205.525 189.686 203.725 188.206 201.125 188.206C196.205 188.206 192.245 191.846 192.245 195.726C192.245 198.086 194.165 199.486 196.605 199.486Z"></path></g><line stroke="#000000" stroke-width="1.2" x1="204.92472596153846" x2="204.92472596153846" y1="192.0061538461538" y2="157.0061538461538"></line><line stroke="#000000" stroke-width="2.2" x1="189.04472596153846" x2="210.96472596153845" y1="193.8461538461538" y2="193.8461538461538"></line><text font-family="Alegreya" font-size="22" text-anchor="middle" x="198.88472596153844" y="223.8461538461538">minor-ninth</text></g></g><g transform="translate(908.4596923076925)"><g></g><g><line stroke="black" stroke-width="1.6" x1="132.6096346153848" x2="132.6096346153848" y1="143.8461538461538" y2="183.8461538461538"></line></g><g><g><path d="M54.101 199.486C58.101 199.486 63.021 195.766 63.021 191.966C63.021 189.686 61.221 188.206 58.621 188.206C53.701 188.206 49.741 191.846 49.741 195.726C49.741 198.086 51.661 199.486 54.101 199.486Z"></path></g><line stroke="#000000" stroke-width="1.2" x1="62.420999999999985" x2="62.420999999999985" y1="192.0061538461538" y2="157.0061538461538"></line><line stroke="#000000" stroke-width="2.2" x1="46.54099999999998" x2="68.46099999999998" y1="193.8461538461538" y2="193.8461538461538"></line><text font-family="Alegreya" font-size="22" text-anchor="middle" x="56.380999999999986" y="223.8461538461538">dominant-11th</text></g><g><g><path d="M96.117 199.486C100.117 199.486 105.037 195.766 105.037 191.966C105.037 189.686 103.237 188.206 100.637 188.206C95.717 188.206 91.757 191.846 91.757 195.726C91.757 198.086 93.677 199.486 96.117 199.486Z"></path></g><line stroke="#000000" stroke-width="1.2" x1="104.43690865384616" x2="104.43690865384616" y1="192.0061538461538" y2="157.0061538461538"></line><line stroke="#000000" stroke-width="2.2" x1="88.55690865384615" x2="110.47690865384615" y1="193.8461538461538" y2="193.8461538461538"></line><text font-family="Alegreya" font-size="22" text-anchor="middle" x="98.39690865384615" y="223.8461538461538">major-11th</text></g><g><g><path d="M121.501 199.486C125.501 199.486 130.421 195.766 130.421 191.966C130.421 189.686 128.621 188.206 126.021 188.206C121.101 188.206 117.141 191.846 117.141 195.726C117.141 198.086 119.061 199.486 121.501 199.486Z"></path></g><line stroke="#000000" stroke-width="1.2" x1="129.82081730769235" x2="129.82081730769235" y1="192.0061538461538" y2="157.0061538461538"></line><line stroke="#000000" stroke-width="2.2" x1="113.94081730769236" x2="135.86081730769237" y1="193.8461538461538" y2="193.8461538461538"></line><text font-family="Alegreya" font-size="22" text-anchor="middle" x="123.78081730769236" y="223.8461538461538">minor-11th</text></g><g><g><path d="M165.596 199.486C169.596 199.486 174.516 195.766 174.516 191.966C174.516 189.686 172.716 188.206 170.116 188.206C165.196 188.206 161.236 191.846 161.236 195.726C161.236 198.086 163.156 199.486 165.596 199.486Z"></path></g><line stroke="#000000" stroke-width="1.2" x1="173.91572596153856" x2="173.91572596153856" y1="192.0061538461538" y2="157.0061538461538"></line><line stroke="#000000" stroke-width="2.2" x1="158.03572596153856" x2="179.95572596153855" y1="193.8461538461538" y2="193.8461538461538"></line><text font-family="Alegreya" font-size="22" text-anchor="middle" x="167.87572596153854" y="223.8461538461538">dominant-13th</text></g></g><g transform="translate(1056.8693269230773)"><g></g><g><line stroke="black" stroke-width="1.6" x1="185.70663461538467" x2="185.70663461538467" y1="143.8461538461538" y2="183.8461538461538"></line></g><g><g><path d="M36.732 199.486C40.732 199.486 45.652 195.766 45.652 191.966C45.652 189.686 43.852 188.206 41.252 188.206C36.332 188.206 32.372 191.846 32.372 195.726C32.372 198.086 34.292 199.486 36.732 199.486Z"></path></g><line stroke="#000000" stroke-width="1.2" x1="45.051999999999985" x2="45.051999999999985" y1="192.0061538461538" y2="157.0061538461538"></line><line stroke="#000000" stroke-width="2.2" x1="29.171999999999986" x2="51.091999999999985" y1="193.8461538461538" y2="193.8461538461538"></line><text font-family="Alegreya" font-size="22" text-anchor="middle" x="39.011999999999986" y="223.8461538461538">major-13th</text></g><g><g><path d="M63.458 199.486C67.458 199.486 72.378 195.766 72.378 191.966C72.378 189.686 70.578 188.206 67.978 188.206C63.058 188.206 59.098 191.846 59.098 195.726C59.098 198.086 61.018 199.486 63.458 199.486Z"></path></g><line stroke="#000000" stroke-width="1.2" x1="71.77790865384615" x2="71.77790865384615" y1="192.0061538461538" y2="157.0061538461538"></line><line stroke="#000000" stroke-width="2.2" x1="55.89790865384615" x2="77.81790865384615" y1="193.8461538461538" y2="193.8461538461538"></line><text font-family="Alegreya" font-size="22" text-anchor="middle" x="65.73790865384615" y="223.8461538461538">minor-13th</text></g><g><g><path d="M125.505 199.486C129.505 199.486 134.425 195.766 134.425 191.966C134.425 189.686 132.625 188.206 130.025 188.206C125.105 188.206 121.145 191.846 121.145 195.726C121.145 198.086 123.065 199.486 125.505 199.486Z"></path></g><line stroke="#000000" stroke-width="1.2" x1="133.82481730769229" x2="133.82481730769229" y1="192.0061538461538" y2="157.0061538461538"></line><line stroke="#000000" stroke-width="2.2" x1="117.94481730769229" x2="139.8648173076923" y1="193.8461538461538" y2="193.8461538461538"></line><text font-family="Alegreya" font-size="22" text-anchor="middle" x="127.7848173076923" y="223.8461538461538">suspended-second</text></g><g><g><path d="M218.693 199.486C222.693 199.486 227.613 195.766 227.613 191.966C227.613 189.686 225.813 188.206 223.213 188.206C218.293 188.206 214.333 191.846 214.333 195.726C214.333 198.086 216.253 199.486 218.693 199.486Z"></path></g><line stroke="#000000" stroke-width="1.2" x1="227.01272596153848" x2="227.01272596153848" y1="192.0061538461538" y2="157.0061538461538"></line><line stroke="#000000" stroke-width="2.2" x1="211.13272596153848" x2="233.05272596153847" y1="193.8461538461538" y2="193.8461538461538"></line><text font-family="Alegreya" font-size="22" text-anchor="middle" x="220.97272596153846" y="223.8461538461538">suspended-fourth</text></g></g><g transform="translate(1258.375961538462)"><g></g><g><line stroke="black" stroke-width="1.6" x1="12.313634615384746" x2="12.313634615384746" y1="143.8461538461538" y2="183.8461538461538"></line></g><g><g><path d="M38.151 199.486C42.151 199.486 47.071 195.766 47.071 191.966C47.071 189.686 45.271 188.206 42.671 188.206C37.751 188.206 33.791 191.846 33.791 195.726C33.791 198.086 35.711 199.486 38.151 199.486Z"></path></g><line stroke="#000000" stroke-width="1.2" x1="46.47099999999999" x2="46.47099999999999" y1="192.0061538461538" y2="157.0061538461538"></line><line stroke="#000000" stroke-width="2.2" x1="30.59099999999999" x2="52.51099999999998" y1="193.8461538461538" y2="193.8461538461538"></line><text font-family="Alegreya" font-size="22" text-anchor="middle" x="40.43099999999999" y="223.8461538461538">Neapolitan</text></g><g><g><path d="M52.337 199.486C56.337 199.486 61.257 195.766 61.257 191.966C61.257 189.686 59.457 188.206 56.857 188.206C51.937 188.206 47.977 191.846 47.977 195.726C47.977 198.086 49.897 199.486 52.337 199.486Z"></path></g><line stroke="#000000" stroke-width="1.2" x1="60.65690865384616" x2="60.65690865384616" y1="192.0061538461538" y2="157.0061538461538"></line><line stroke="#000000" stroke-width="2.2" x1="44.77690865384616" x2="66.69690865384615" y1="193.8461538461538" y2="193.8461538461538"></line><text font-family="Alegreya" font-size="22" text-anchor="middle" x="54.61690865384616" y="223.8461538461538">Italians</text></g><g><g><path d="M48.351 199.486C52.351 199.486 57.271 195.766 57.271 191.966C57.271 189.686 55.471 188.206 52.871 188.206C47.951 188.206 43.991 191.846 43.991 195.726C43.991 198.086 45.911 199.486 48.351 199.486Z"></path></g><line stroke="#000000" stroke-width="1.2" x1="56.67081730769235" x2="56.67081730769235" y1="192.0061538461538" y2="157.0061538461538"></line><line stroke="#000000" stroke-width="2.2" x1="40.79081730769235" x2="62.71081730769235" y1="193.8461538461538" y2="193.8461538461538"></line><text font-family="Alegreya" font-size="22" text-anchor="middle" x="50.630817307692354" y="223.8461538461538">French</text></g><g><g><path d="M45.300 199.486C49.300 199.486 54.220 195.766 54.220 191.966C54.220 189.686 52.420 188.206 49.820 188.206C44.900 188.206 40.940 191.846 40.940 195.726C40.940 198.086 42.860 199.486 45.300 199.486Z"></path></g><line stroke="#000000" stroke-width="1.2" x1="53.619725961538556" x2="53.619725961538556" y1="192.0061538461538" y2="157.0061538461538"></line><line stroke="#000000" stroke-width="2.2" x1="37.739725961538554" x2="59.659725961538555" y1="193.8461538461538" y2="193.8461538461538"></line><text font-family="Alegreya" font-size="22" text-anchor="middle" x="47.57972596153856" y="223.8461538461538">German</text></g></g><g transform="translate(1286.4895961538466)"><g></g><g><line stroke="black" stroke-width="1.6" x1="-52.52036538461526" x2="-52.52036538461526" y1="143.8461538461538" y2="183.8461538461538"></line></g><g><g><path d="M16.129 199.486C20.129 199.486 25.049 195.766 25.049 191.966C25.049 189.686 23.249 188.206 20.649 188.206C15.729 188.206 11.769 191.846 11.769 195.726C11.769 198.086 13.689 199.486 16.129 199.486Z"></path></g><line stroke="#000000" stroke-width="1.2" x1="24.448999999999998" x2="24.448999999999998" y1="192.0061538461538" y2="157.0061538461538"></line><line stroke="#000000" stroke-width="2.2" x1="8.568999999999996" x2="30.488999999999994" y1="193.8461538461538" y2="193.8461538461538"></line><text font-family="Alegreya" font-size="22" text-anchor="middle" x="18.408999999999995" y="223.8461538461538">pedal</text></g><g><g><path d="M2.441 199.486C6.441 199.486 11.361 195.766 11.361 191.966C11.361 189.686 9.561 188.206 6.961 188.206C2.041 188.206-1.919 191.846-1.919 195.726C-1.919 198.086 0.001 199.486 2.441 199.486Z"></path></g><line stroke="#000000" stroke-width="1.2" x1="10.760908653846181" x2="10.760908653846181" y1="192.0061538461538" y2="157.0061538461538"></line><line stroke="#000000" stroke-width="2.2" x1="-5.11909134615382" x2="16.80090865384618" y1="193.8461538461538" y2="193.8461538461538"></line><text font-family="Alegreya" font-size="22" text-anchor="middle" x="4.72090865384618" y="223.8461538461538">power</text></g><g><g><path d="M-6.517 199.486C-2.517 199.486 2.403 195.766 2.403 191.966C2.403 189.686 0.603 188.206-1.997 188.206C-6.917 188.206-10.877 191.846-10.877 195.726C-10.877 198.086-8.957 199.486-6.517 199.486Z"></path></g><line stroke="#000000" stroke-width="1.2" x1="1.8028173076923597" x2="1.8028173076923597" y1="192.0061538461538" y2="157.0061538461538"></line><line stroke="#000000" stroke-width="2.2" x1="-14.077182692307641" x2="7.842817307692356" y1="193.8461538461538" y2="193.8461538461538"></line><text font-family="Alegreya" font-size="22" text-anchor="middle" x="-4.237182692307641" y="223.8461538461538">Tristan</text></g><g><g><path d="M-19.534 199.486C-15.534 199.486-10.614 195.766-10.614 191.966C-10.614 189.686-12.414 188.206-15.014 188.206C-19.934 188.206-23.894 191.846-23.894 195.726C-23.894 198.086-21.974 199.486-19.534 199.486Z"></path></g><line stroke="#000000" stroke-width="1.2" x1="-11.214274038461445" x2="-11.214274038461445" y1="192.0061538461538" y2="157.0061538461538"></line><line stroke="#000000" stroke-width="2.2" x1="-27.094274038461446" x2="-5.174274038461449" y1="193.8461538461538" y2="193.8461538461538"></line><text font-family="Alegreya" font-size="22" text-anchor="middle" x="-17.254274038461446" y="223.8461538461538">other</text></g></g><g transform="translate(93.84615384615385)"><g><g><line stroke="#6A6A6A" stroke-width="1.3" x1="0" x2="588.3849600049476" y1="319.8461538461538" y2="319.8461538461538"></line><line stroke="#6A6A6A" stroke-width="1.3" x1="0" x2="588.3849600049476" y1="309.8461538461538" y2="309.8461538461538"></line><line stroke="#6A6A6A" stroke-width="1.3" x1="0" x2="588.3849600049476" y1="299.8461538461538" y2="299.8461538461538"></line><line stroke="#6A6A6A" stroke-width="1.3" x1="0" x2="588.3849600049476" y1="289.8461538461538" y2="289.8461538461538"></line><line stroke="#6A6A6A" stroke-width="1.3" x1="0" x2="588.3849600049476" y1="279.8461538461538" y2="279.8461538461538"></line></g><g><path d="M25.200 265.926C24.640 265.926 23.400 266.966 22.600 267.846C19.640 271.126 18.680 276.126 18.680 280.286C18.680 282.606 18.960 285.206 19.240 286.846C19.320 287.326 19.360 287.406 18.880 287.806C16.320 289.926 13.560 292.366 11.480 294.926C8.720 298.366 7 302.086 7 306.366C7 313.326 11.760 319.926 21.560 319.926C22.480 319.926 23.520 319.846 24.320 319.686C24.760 319.606 24.840 319.566 24.920 320.046C25.400 322.726 26 326.206 26 328.086C26 334.006 22 334.726 19.640 334.726C17.480 334.726 16.440 334.086 16.440 333.566C16.440 333.126 16.800 333.166 17.720 332.886C18.960 332.526 20.400 331.446 20.400 329.126C20.400 326.926 19 325.046 16.560 325.046C13.880 325.046 12.280 327.166 12.280 329.646C12.280 332.246 13.840 336.166 19.880 336.166C22.560 336.166 27.760 334.966 27.760 328.166C27.760 325.886 27.040 322.086 26.600 319.606C26.520 319.126 26.560 319.166 27.120 318.926C31.160 317.326 33.840 313.926 33.840 309.406C33.840 304.286 30.080 299.766 24.200 299.766C23.080 299.766 23.200 299.966 23.040 299.046L22.040 293.246C21.960 292.766 22.040 292.726 22.280 292.486C22.920 291.886 23.760 291.046 24.520 290.206C27.880 286.526 29.880 281.766 29.880 277.246C29.880 273.766 28.920 270.326 27.280 267.926C26.680 267.046 25.640 265.926 25.200 265.926ZM20.040 294.086C20.440 293.766 20.520 293.806 20.600 294.246L21.440 299.366C21.560 300.126 21.560 300.086 20.840 300.326C17.320 301.526 15.040 304.686 15.040 308.086C15.040 311.686 16.920 314.246 19.640 315.166C19.960 315.286 20.440 315.406 20.720 315.406C21.040 315.406 21.200 315.206 21.200 314.966C21.200 314.686 20.880 314.566 20.600 314.446C18.920 313.726 17.720 312.006 17.720 310.166C17.720 307.886 19.280 306.166 21.720 305.486C22.360 305.326 22.440 305.366 22.520 305.806L24.520 317.726C24.600 318.166 24.560 318.166 23.960 318.286C23.320 318.406 22.520 318.486 21.720 318.486C14.720 318.486 10.200 314.606 10.200 309.046C10.200 306.686 10.600 303.526 13.920 299.766C16.320 297.086 18.160 295.606 20.040 294.086ZM24.640 305.166C27.880 305.446 30.560 308.166 30.560 311.686C30.560 314.206 29.040 316.246 26.800 317.366C26.320 317.606 26.240 317.606 26.160 317.126L24.200 305.726C24.120 305.246 24.160 305.126 24.640 305.166ZM25.800 272.126C27.120 272.126 28.200 273.206 28.200 275.406C28.200 278.166 26.880 280.726 23.760 283.846C23.120 284.486 22.160 285.406 21.240 286.206C20.960 286.446 20.800 286.406 20.720 285.886C20.560 284.846 20.480 283.486 20.480 282.206C20.480 275.966 23.360 272.126 25.800 272.126Z"></path></g><g></g><text font-family='Alegreya' font-style='italic' text-anchor='end' stroke='#7a7a7a' font-size="24" x="0" y="269.8461538461538">9</text></g><g><line stroke="black" stroke-width="1.6" x1="436.13402180480335" x2="436.13402180480335" y1="279.8461538461538" y2="319.8461538461538"></line></g><g><g><path d="M52.980 335.646C60.620 335.646 62.140 329.446 62.140 327.926C62.140 325.566 60.260 324.046 57.580 324.046C50.660 324.046 48.500 329.406 48.500 331.806C48.500 334.246 50.460 335.646 52.980 335.646ZM56.500 331.966C54.420 333.366 52.980 333.846 51.980 333.846C51.020 333.846 50.460 333.366 50.140 332.806C49.980 332.526 49.860 332.206 49.860 331.886C49.860 330.886 50.860 329.606 54.060 327.766C56.340 326.446 57.780 325.966 58.740 325.966C59.620 325.966 60.100 326.366 60.420 326.926C60.580 327.206 60.700 327.486 60.700 327.806C60.700 328.726 59.740 329.846 56.500 331.966Z"></path></g><line stroke="#000000" stroke-width="1.2" x1="61.54" x2="61.54" y1="327.9261538461538" y2="292.9261538461538"></line><line stroke="#000000" stroke-width="2.2" x1="45.3" x2="67.74" y1="329.8461538461538" y2="329.8461538461538"></line><text font-family="Alegreya" font-size="22" text-anchor="middle" x="55.32" y="359.8461538461538">Inversion</text></g><g><g><path d="M197.831 335.486C201.831 335.486 206.751 331.766 206.751 327.966C206.751 325.686 204.951 324.206 202.351 324.206C197.431 324.206 193.471 327.846 193.471 331.726C193.471 334.086 195.391 335.486 197.831 335.486Z"></path></g><line stroke="#000000" stroke-width="1.2" x1="206.15101208523515" x2="206.15101208523515" y1="328.00615384615384" y2="293.00615384615384"></line><line stroke="#000000" stroke-width="2.2" x1="190.27101208523516" x2="212.19101208523514" y1="329.8461538461538" y2="329.8461538461538"></line><path d="M215.071 326.086C215.071 326.086 216.111 322.286 216.111 319.166C216.111 314.166 214.031 309.446 211.511 305.446C209.471 302.286 207.791 298.846 207.151 295.006C207.031 294.366 206.711 294.126 205.951 294.126C205.711 294.126 205.551 294.246 205.551 294.726L205.551 304.286C208.191 304.766 211.991 310.206 213.431 313.606C214.031 314.966 214.391 317.246 214.391 319.606C214.391 321.406 214.111 323.286 213.431 325.086C213.351 325.326 213.311 325.526 213.311 325.686C213.311 326.326 213.711 326.686 213.951 326.846C214.191 327.006 214.871 326.766 215.071 326.086Z"></path><text font-family="Alegreya" font-size="22" text-anchor="middle" x="200.11101208523513" y="359.8461538461538">Fbb/C</text></g><g><g><path d="M274.338 335.486C278.338 335.486 283.258 331.766 283.258 327.966C283.258 325.686 281.458 324.206 278.858 324.206C273.938 324.206 269.978 327.846 269.978 331.726C269.978 334.086 271.898 335.486 274.338 335.486Z"></path></g><line stroke="#000000" stroke-width="1.2" x1="282.65841355601543" x2="282.65841355601543" y1="328.00615384615384" y2="293.00615384615384"></line><line stroke="#000000" stroke-width="2.2" x1="266.77841355601544" x2="288.69841355601545" y1="329.8461538461538" y2="329.8461538461538"></line><path d="M291.578 326.086C291.578 326.086 292.618 322.286 292.618 319.166C292.618 314.166 290.538 309.446 288.018 305.446C285.978 302.286 284.298 298.846 283.658 295.006C283.538 294.366 283.218 294.126 282.458 294.126C282.218 294.126 282.058 294.246 282.058 294.726L282.058 304.286C284.698 304.766 288.498 310.206 289.938 313.606C290.538 314.966 290.898 317.246 290.898 319.606C290.898 321.406 290.618 323.286 289.938 325.086C289.858 325.326 289.818 325.526 289.818 325.686C289.818 326.326 290.218 326.686 290.458 326.846C290.698 327.006 291.378 326.766 291.578 326.086Z"></path><text font-family="Alegreya" font-size="22" text-anchor="middle" x="276.6184135560154" y="359.8461538461538">G#/D#</text></g><g><path d="M341.212 306.286C339.692 304.446 338.452 302.966 338.452 300.726C338.452 300.566 338.492 300.366 338.492 300.206C338.652 297.886 340.092 295.966 341.132 294.326C341.252 294.126 341.292 293.926 341.292 293.726C341.292 293.326 341.132 292.966 341.132 292.966C341.132 292.966 335.212 285.926 334.532 285.246C334.332 285.046 334.052 284.926 333.812 284.926C333.412 284.926 333.012 285.206 333.012 285.766C333.012 285.966 333.052 286.166 333.172 286.406C333.332 286.846 335.612 288.886 335.612 291.766C335.612 293.246 335.012 294.966 333.212 296.846C332.812 297.246 332.652 297.686 332.652 298.006C332.652 298.566 333.052 298.966 333.052 298.966L335.012 301.366C335.652 302.166 336.212 302.926 336.732 303.766C336.812 303.926 336.972 304.126 336.972 304.326C336.972 304.366 336.972 304.446 336.932 304.486C336.852 304.646 336.692 304.686 336.492 304.686C336.252 304.686 336.012 304.606 335.852 304.566C335.652 304.566 335.412 304.446 335.212 304.446C333.492 304.446 331.932 306.166 331.932 308.286C331.932 310.286 333.652 312.246 336.572 314.486C336.892 314.726 337.292 314.846 337.612 314.846C337.892 314.846 338.172 314.766 338.212 314.606C338.252 314.486 338.292 314.406 338.292 314.326C338.292 313.966 337.972 313.646 337.652 313.366C337.132 313.366 336.692 312.286 336.612 311.926C336.492 311.606 336.452 311.246 336.452 310.886C336.452 309.646 337.052 308.246 338.332 308.006C338.532 307.966 338.732 307.966 338.972 307.966C340.132 307.966 341.452 308.406 342.092 308.646C342.132 308.646 342.172 308.686 342.212 308.686C342.332 308.726 342.412 308.726 342.492 308.726C342.612 308.726 342.692 308.686 342.692 308.566C342.692 308.086 341.652 306.766 341.212 306.286Z"></path></g></g><g transform="translate(545.7801756509572)"><g></g><g><line stroke="#000000" stroke-width="1.6" x1="126.6509382001443" x2="126.6509382001443" y1="279.8461538461538" y2="319.8461538461538"></line><line stroke="#000000" stroke-width="5" x1="133.9509382001443" x2="133.9509382001443" y1="279.8461538461538" y2="319.8461538461538"></line></g><g><g><path d="M19.704 335.486C23.704 335.486 28.624 331.766 28.624 327.966C28.624 325.686 26.824 324.206 24.224 324.206C19.304 324.206 15.344 327.846 15.344 331.726C15.344 334.086 17.264 335.486 19.704 335.486Z"></path></g><line stroke="#000000" stroke-width="1.2" x1="28.023999999999994" x2="28.023999999999994" y1="328.00615384615384" y2="293.00615384615384"></line><line stroke="#000000" stroke-width="2.2" x1="12.143999999999995" x2="34.06399999999999" y1="329.8461538461538" y2="329.8461538461538"></line><text font-family="Alegreya" font-size="22" text-anchor="middle" x="21.983999999999995" y="359.8461538461538">C-3+5b</text></g><g><g><path d="M75.399 335.486C79.399 335.486 84.319 331.766 84.319 327.966C84.319 325.686 82.519 324.206 79.919 324.206C74.999 324.206 71.039 327.846 71.039 331.726C71.039 334.086 72.959 335.486 75.399 335.486Z"></path></g><line stroke="#000000" stroke-width="1.2" x1="83.71940857223291" x2="83.71940857223291" y1="328.00615384615384" y2="293.00615384615384"></line><line stroke="#000000" stroke-width="2.2" x1="67.8394085722329" x2="89.7594085722329" y1="329.8461538461538" y2="329.8461538461538"></line><text font-family="Alegreya" font-size="22" text-anchor="middle" x="77.6794085722329" y="359.8461538461538">C-1+6b</text></g></g></svg>