<?xml version="1.0" encoding="UTF-8" standalone="no"?><svg xmlns="http://www.w3.org/2000/svg" height="279.4mm" viewBox="0 0 1328.6153846153845 1719.3846153846152" width="215.9mm"><g transform="translate(93.84615384615385)"><g><g><line stroke="#6A6A6A" stroke-width="1.3" x1="0" x2="1140.923076923077" y1="183.8461538461538" y2="183.8461538461538"></line><line stroke="#6A6A6A" stroke-width="1.3" x1="0" x2="1140.923076923077" y1="173.8461538461538" y2="173.8461538461538"></line><line stroke="#6A6A6A" stroke-width="1.3" x1="0" x2="1140.923076923077" y1="163.8461538461538" y2="163.8461538461538"></line><line stroke="#6A6A6A" stroke-width="1.3" x1="0" x2="1140.923076923077" y1="153.8461538461538" y2="153.8461538461538"></line><line stroke="#6A6A6A" stroke-width="1.3" x1="0" x2="1140.923076923077" y1="143.8461538461538" y2="143.8461538461538"></line></g><g><path d="M25.200 129.926C24.640 129.926 23.400 130.966 22.600 131.846C19.640 135.126 18.680 140.126 18.680 144.286C18.680 146.606 18.960 149.206 19.240 150.846C19.320 151.326 19.360 151.406 18.880 151.806C16.320 153.926 13.560 156.366 11.480 158.926C8.720 162.366 7 166.086 7 170.366C7 177.326 11.760 183.926 21.560 183.926C22.480 183.926 23.520 183.846 24.320 183.686C24.760 183.606 24.840 183.566 24.920 184.046C25.400 186.726 26 190.206 26 192.086C26 198.006 22 198.726 19.640 198.726C17.480 198.726 16.440 198.086 16.440 197.566C16.440 197.126 16.800 197.166 17.720 196.886C18.960 196.526 20.400 195.446 20.400 193.126C20.400 190.926 19 189.046 16.560 189.046C13.880 189.046 12.280 191.166 12.280 193.646C12.280 196.246 13.840 200.166 19.880 200.166C22.560 200.166 27.760 198.966 27.760 192.166C27.760 189.886 27.040 186.086 26.600 183.606C26.520 183.126 26.560 183.166 27.120 182.926C31.160 181.326 33.840 177.926 33.840 173.406C33.840 168.286 30.080 163.766 24.200 163.766C23.080 163.766 23.200 163.966 23.040 163.046L22.040 157.246C21.960 156.766 22.040 156.726 22.280 156.486C22.920 155.886 23.760 155.046 24.520 154.206C27.880 150.526 29.880 145.766 29.880 141.246C29.880 137.766 28.920 134.326 27.280 131.926C26.680 131.046 25.640 129.926 25.200 129.926ZM20.040 158.086C20.440 157.766 20.520 157.806 20.600 158.246L21.440 163.366C21.560 164.126 21.560 164.086 20.840 164.326C17.320 165.526 15.040 168.686 15.040 172.086C15.040 175.686 16.920 178.246 19.640 179.166C19.960 179.286 20.440 179.406 20.720 179.406C21.040 179.406 21.200 179.206 21.200 178.966C21.200 178.686 20.880 178.566 20.600 178.446C18.920 177.726 17.720 176.006 17.720 174.166C17.720 171.886 19.280 170.166 21.720 169.486C22.360 169.326 22.440 169.366 22.520 169.806L24.520 181.726C24.600 182.166 24.560 182.166 23.960 182.286C23.320 182.406 22.520 182.486 21.720 182.486C14.720 182.486 10.200 178.606 10.200 173.046C10.200 170.686 10.600 167.526 13.920 163.766C16.320 161.086 18.160 159.606 20.040 158.086ZM24.640 169.166C27.880 169.446 30.560 172.166 30.560 175.686C30.560 178.206 29.040 180.246 26.800 181.366C26.320 181.606 26.240 181.606 26.160 181.126L24.200 169.726C24.120 169.246 24.160 169.126 24.640 169.166ZM25.800 136.126C27.120 136.126 28.200 137.206 28.200 139.406C28.200 142.166 26.880 144.726 23.760 147.846C23.120 148.486 22.160 149.406 21.240 150.206C20.960 150.446 20.800 150.406 20.720 149.886C20.560 148.846 20.480 147.486 20.480 146.206C20.480 139.966 23.360 136.126 25.800 136.126Z"></path></g><g></g><path d="M57.820 153.806C56.620 153.806 55.220 154.126 54.140 154.606C50.580 156.166 48.700 160.446 48.700 164.246C48.700 164.606 48.700 164.966 48.740 165.326C48.940 167.486 49.980 169.526 51.300 171.126C52.820 172.966 55.020 173.806 57.420 173.806C64.420 173.806 65.460 167.446 65.460 166.286C65.460 165.406 65.020 165.406 64.860 165.406C64.540 165.406 64.260 165.446 64.260 166.126C64.260 171.286 59.860 172.486 58.580 172.486C55.340 172.486 53.620 169.326 53.620 162.726C53.620 156.126 56.660 154.766 58.820 154.766C60.900 154.766 61.740 155.726 61.740 156.126C61.740 156.486 61.620 157.006 61.020 157.006C59.420 157.006 58.500 158.726 58.500 159.966C58.500 162.246 60.460 162.966 61.580 162.966C61.580 162.966 64.620 162.846 64.620 159.526C64.620 154.286 58.580 153.806 57.820 153.806Z"></path></g><g><line stroke="black" stroke-width="1.6" x1="428.8410256410256" x2="428.8410256410256" y1="143.8461538461538" y2="183.8461538461538"></line></g><g><g><path d="M93.360 164.486C97.360 164.486 102.280 160.766 102.280 156.966C102.280 154.686 100.480 153.206 97.880 153.206C92.960 153.206 89 156.846 89 160.726C89 163.086 90.920 164.486 93.360 164.486Z"></path></g><line stroke="#000000" stroke-width="1.2" x1="89.6" x2="89.6" y1="160.68615384615381" y2="194.68615384615381"></line><g><polygon fill="black" points="89.6,195.8461538461538 124.8450999405137,195.8461538461538 124.8450999405137,190.8461538461538 89.6,190.8461538461538" stroke="black" stroke-width="0"></polygon><polygon fill="black" points="124.8450999405137,195.8461538461538 160.09019988102742,195.8461538461538 160.09019988102742,190.8461538461538 124.8450999405137,190.8461538461538" stroke="black" stroke-width="0"></polygon><g><polygon fill="white" points="112.9250999405137,200.94615384615383 112.9250999405137,215.62615384615384 136.7650999405137,215.62615384615384 136.7650999405137,200.94615384615383" stroke="white" stroke-width="0"></polygon><path d="M122.325 215.226C121.525 215.226 120.885 214.906 120.885 214.506C120.885 214.266 121.085 214.186 121.405 214.026C121.845 213.826 122.405 213.346 122.405 212.306C122.405 211.346 121.725 210.866 120.885 210.866C119.765 210.866 118.925 211.866 118.925 213.186C118.925 214.786 120.205 216.266 123.045 216.266C126.445 216.266 129.245 214.226 129.245 211.066C129.245 210.066 128.725 209.106 127.685 208.586C127.405 208.466 127.245 208.426 127.245 208.226C127.245 208.026 127.405 208.026 127.725 207.866C129.405 207.186 130.765 205.906 130.765 204.306C130.765 202.226 128.765 200.946 126.325 200.946C123.805 200.946 121.725 202.266 121.645 204.426C121.605 205.466 122.245 206.146 123.165 206.146C124.165 206.146 124.965 205.346 124.965 204.266C124.965 203.826 124.805 203.506 124.605 203.266C124.325 203.026 124.125 202.986 124.125 202.746C124.125 202.466 124.605 202.186 125.445 202.186C127.005 202.186 127.525 203.146 127.525 204.026C127.525 206.146 126.165 207.666 123.845 207.666L123.405 207.666C122.885 207.666 122.605 207.906 122.605 208.266C122.605 208.626 122.885 208.866 123.405 208.866L123.805 208.866C125.285 208.866 126.005 209.746 126.005 211.026C126.005 212.786 124.765 215.226 122.325 215.226Z"></path></g></g></g><g><g><path d="M128.605 164.486C132.605 164.486 137.525 160.766 137.525 156.966C137.525 154.686 135.725 153.206 133.125 153.206C128.205 153.206 124.245 156.846 124.245 160.726C124.245 163.086 126.165 164.486 128.605 164.486Z"></path></g><line stroke="#000000" stroke-width="1.2" x1="124.8450999405137" x2="124.8450999405137" y1="160.68615384615381" y2="194.68615384615381"></line></g><g><g><path d="M163.850 164.486C167.850 164.486 172.770 160.766 172.770 156.966C172.770 154.686 170.970 153.206 168.370 153.206C163.450 153.206 159.490 156.846 159.490 160.726C159.490 163.086 161.410 164.486 163.850 164.486Z"></path></g><line stroke="#000000" stroke-width="1.2" x1="160.09019988102742" x2="160.09019988102742" y1="160.68615384615381" y2="194.68615384615381"></line></g><g><g><path d="M199.095 164.486C203.095 164.486 208.015 160.766 208.015 156.966C208.015 154.686 206.215 153.206 203.615 153.206C198.695 153.206 194.735 156.846 194.735 160.726C194.735 163.086 196.655 164.486 199.095 164.486Z"></path><g><circle cx="214.0152998215411" cy="158.8461538461538" r="2.4"></circle></g></g><line stroke="#000000" stroke-width="1.2" x1="195.3352998215411" x2="195.3352998215411" y1="160.68615384615381" y2="194.68615384615381"></line><g><polygon fill="black" points="191.3352998215411,214.0061538461538 354.87245036786413,214.0061538461538 354.87245036786413,212.4061538461538 191.3352998215411,212.4061538461538" stroke="black" stroke-width="0"></polygon><line fill="black" stroke="black" stroke-width="1.6" x1="191.8352998215411" x2="191.8352998215411" y1="212.4061538461538" y2="206.0061538461538"></line><line fill="black" stroke="black" stroke-width="1.6" x1="354.37245036786413" x2="354.37245036786413" y1="212.4061538461538" y2="206.0061538461538"></line><g><polygon fill="white" points="261.1838750947026,206.9061538461538 261.1838750947026,221.58615384615382 285.02387509470265,221.58615384615382 285.02387509470265,206.9061538461538" stroke="white" stroke-width="0"></polygon><path d="M270.584 221.186C269.784 221.186 269.144 220.866 269.144 220.466C269.144 220.226 269.344 220.146 269.664 219.986C270.104 219.786 270.664 219.306 270.664 218.266C270.664 217.306 269.984 216.826 269.144 216.826C268.024 216.826 267.184 217.826 267.184 219.146C267.184 220.746 268.464 222.226 271.304 222.226C274.704 222.226 277.504 220.186 277.504 217.026C277.504 216.026 276.984 215.066 275.944 214.546C275.664 214.426 275.504 214.386 275.504 214.186C275.504 213.986 275.664 213.986 275.984 213.826C277.664 213.146 279.024 211.866 279.024 210.266C279.024 208.186 277.024 206.906 274.584 206.906C272.064 206.906 269.984 208.226 269.904 210.386C269.864 211.426 270.504 212.106 271.424 212.106C272.424 212.106 273.224 211.306 273.224 210.226C273.224 209.786 273.064 209.466 272.864 209.226C272.584 208.986 272.384 208.946 272.384 208.706C272.384 208.426 272.864 208.146 273.704 208.146C275.264 208.146 275.784 209.106 275.784 209.986C275.784 212.106 274.424 213.626 272.104 213.626L271.664 213.626C271.144 213.626 270.864 213.866 270.864 214.226C270.864 214.586 271.144 214.826 271.664 214.826L272.064 214.826C273.544 214.826 274.264 215.706 274.264 216.986C274.264 218.746 273.024 221.186 270.584 221.186Z"></path></g></g></g><g><g><path d="M276.864 164.486C280.864 164.486 285.784 160.766 285.784 156.966C285.784 154.686 283.984 153.206 281.384 153.206C276.464 153.206 272.504 156.846 272.504 160.726C272.504 163.086 274.424 164.486 276.864 164.486Z"></path><g><circle cx="291.7838750947026" cy="158.8461538461538" r="2.4"></circle></g></g><line stroke="#000000" stroke-width="1.2" x1="273.10387509470263" x2="273.10387509470263" y1="160.68615384615381" y2="198.68615384615381"></line></g><g><g><path d="M354.632 164.486C358.632 164.486 363.552 160.766 363.552 156.966C363.552 154.686 361.752 153.206 359.152 153.206C354.232 153.206 350.272 156.846 350.272 160.726C350.272 163.086 352.192 164.486 354.632 164.486Z"></path><g><circle cx="369.55245036786414" cy="158.8461538461538" r="2.4"></circle></g></g><line stroke="#000000" stroke-width="1.2" x1="350.87245036786413" x2="350.87245036786413" y1="160.68615384615381" y2="194.68615384615381"></line></g></g><g transform="translate(538.4871794871794)"><g></g><g><line stroke="black" stroke-width="1.6" x1="339.8410256410256" x2="339.8410256410256" y1="143.8461538461538" y2="183.8461538461538"></line></g><g><g><path d="M4.360 164.486C8.360 164.486 13.280 160.766 13.280 156.966C13.280 154.686 11.480 153.206 8.880 153.206C3.960 153.206 0 156.846 0 160.726C0 163.086 1.920 164.486 4.360 164.486Z"></path></g><line stroke="#000000" stroke-width="1.2" x1="0.6" x2="0.6" y1="160.68615384615381" y2="194.68615384615381"></line><g><polygon fill="black" points="0.6,195.8461538461538 35.845099940513705,195.8461538461538 35.845099940513705,190.8461538461538 0.6,190.8461538461538" stroke="black" stroke-width="0"></polygon><polygon fill="black" points="35.845099940513705,195.8461538461538 71.0901998810274,195.8461538461538 71.0901998810274,190.8461538461538 35.845099940513705,190.8461538461538" stroke="black" stroke-width="0"></polygon><g><polygon fill="white" points="23.925099940513697,200.94615384615383 23.925099940513697,215.62615384615384 47.7650999405137,215.62615384615384 47.7650999405137,200.94615384615383" stroke="white" stroke-width="0"></polygon><path d="M33.325 215.226C32.525 215.226 31.885 214.906 31.885 214.506C31.885 214.266 32.085 214.186 32.405 214.026C32.845 213.826 33.405 213.346 33.405 212.306C33.405 211.346 32.725 210.866 31.885 210.866C30.765 210.866 29.925 211.866 29.925 213.186C29.925 214.786 31.205 216.266 34.045 216.266C37.445 216.266 40.245 214.226 40.245 211.066C40.245 210.066 39.725 209.106 38.685 208.586C38.405 208.466 38.245 208.426 38.245 208.226C38.245 208.026 38.405 208.026 38.725 207.866C40.405 207.186 41.765 205.906 41.765 204.306C41.765 202.226 39.765 200.946 37.325 200.946C34.805 200.946 32.725 202.266 32.645 204.426C32.605 205.466 33.245 206.146 34.165 206.146C35.165 206.146 35.965 205.346 35.965 204.266C35.965 203.826 35.805 203.506 35.605 203.266C35.325 203.026 35.125 202.986 35.125 202.746C35.125 202.466 35.605 202.186 36.445 202.186C38.005 202.186 38.525 203.146 38.525 204.026C38.525 206.146 37.165 207.666 34.845 207.666L34.405 207.666C33.885 207.666 33.605 207.906 33.605 208.266C33.605 208.626 33.885 208.866 34.405 208.866L34.805 208.866C36.285 208.866 37.005 209.746 37.005 211.026C37.005 212.786 35.765 215.226 33.325 215.226Z"></path></g></g></g><g><g><path d="M39.605 164.486C43.605 164.486 48.525 160.766 48.525 156.966C48.525 154.686 46.725 153.206 44.125 153.206C39.205 153.206 35.245 156.846 35.245 160.726C35.245 163.086 37.165 164.486 39.605 164.486Z"></path></g><line stroke="#000000" stroke-width="1.2" x1="35.845099940513705" x2="35.845099940513705" y1="160.68615384615381" y2="194.68615384615381"></line></g><g><g><path d="M74.850 164.486C78.850 164.486 83.770 160.766 83.770 156.966C83.770 154.686 81.970 153.206 79.370 153.206C74.450 153.206 70.490 156.846 70.490 160.726C70.490 163.086 72.410 164.486 74.850 164.486Z"></path></g><line stroke="#000000" stroke-width="1.2" x1="71.0901998810274" x2="71.0901998810274" y1="160.68615384615381" y2="194.68615384615381"></line></g><g><g><path d="M110.095 164.486C114.095 164.486 119.015 160.766 119.015 156.966C119.015 154.686 117.215 153.206 114.615 153.206C109.695 153.206 105.735 156.846 105.735 160.726C105.735 163.086 107.655 164.486 110.095 164.486Z"></path><g><circle cx="125.01529982154112" cy="158.8461538461538" r="2.4"></circle></g></g><line stroke="#000000" stroke-width="1.2" x1="106.33529982154111" x2="106.33529982154111" y1="160.68615384615381" y2="194.68615384615381"></line><g><polygon fill="black" points="102.33529982154111,214.0061538461538 265.87245036786413,214.0061538461538 265.87245036786413,212.4061538461538 102.33529982154111,212.4061538461538" stroke="black" stroke-width="0"></polygon><line fill="black" stroke="black" stroke-width="1.6" x1="102.83529982154111" x2="102.83529982154111" y1="212.4061538461538" y2="206.0061538461538"></line><line fill="black" stroke="black" stroke-width="1.6" x1="265.37245036786413" x2="265.37245036786413" y1="212.4061538461538" y2="206.0061538461538"></line><g><polygon fill="white" points="172.18387509470264,206.9061538461538 172.18387509470264,221.58615384615382 196.02387509470262,221.58615384615382 196.02387509470262,206.9061538461538" stroke="white" stroke-width="0"></polygon><path d="M181.584 221.186C180.784 221.186 180.144 220.866 180.144 220.466C180.144 220.226 180.344 220.146 180.664 219.986C181.104 219.786 181.664 219.306 181.664 218.266C181.664 217.306 180.984 216.826 180.144 216.826C179.024 216.826 178.184 217.826 178.184 219.146C178.184 220.746 179.464 222.226 182.304 222.226C185.704 222.226 188.504 220.186 188.504 217.026C188.504 216.026 187.984 215.066 186.944 214.546C186.664 214.426 186.504 214.386 186.504 214.186C186.504 213.986 186.664 213.986 186.984 213.826C188.664 213.146 190.024 211.866 190.024 210.266C190.024 208.186 188.024 206.906 185.584 206.906C183.064 206.906 180.984 208.226 180.904 210.386C180.864 211.426 181.504 212.106 182.424 212.106C183.424 212.106 184.224 211.306 184.224 210.226C184.224 209.786 184.064 209.466 183.864 209.226C183.584 208.986 183.384 208.946 183.384 208.706C183.384 208.426 183.864 208.146 184.704 208.146C186.264 208.146 186.784 209.106 186.784 209.986C186.784 212.106 185.424 213.626 183.104 213.626L182.664 213.626C182.144 213.626 181.864 213.866 181.864 214.226C181.864 214.586 182.144 214.826 182.664 214.826L183.064 214.826C184.544 214.826 185.264 215.706 185.264 216.986C185.264 218.746 184.024 221.186 181.584 221.186Z"></path></g></g></g><g><g><path d="M187.864 164.486C191.864 164.486 196.784 160.766 196.784 156.966C196.784 154.686 194.984 153.206 192.384 153.206C187.464 153.206 183.504 156.846 183.504 160.726C183.504 163.086 185.424 164.486 187.864 164.486Z"></path><g><circle cx="202.7838750947026" cy="158.8461538461538" r="2.4"></circle></g></g><line stroke="#000000" stroke-width="1.2" x1="184.1038750947026" x2="184.1038750947026" y1="160.68615384615381" y2="198.68615384615381"></line></g><g><g><path d="M265.632 164.486C269.632 164.486 274.552 160.766 274.552 156.966C274.552 154.686 272.752 153.206 270.152 153.206C265.232 153.206 261.272 156.846 261.272 160.726C261.272 163.086 263.192 164.486 265.632 164.486Z"></path><g><circle cx="280.55245036786414" cy="158.8461538461538" r="2.4"></circle></g></g><line stroke="#000000" stroke-width="1.2" x1="261.87245036786413" x2="261.87245036786413" y1="160.68615384615381" y2="194.68615384615381"></line></g></g><g transform="translate(894.1282051282052)"><g></g><g><line stroke="black" stroke-width="1.6" x1="339.8410256410256" x2="339.8410256410256" y1="143.8461538461538" y2="183.8461538461538"></line></g><g><g><path d="M4.360 164.486C8.360 164.486 13.280 160.766 13.280 156.966C13.280 154.686 11.480 153.206 8.880 153.206C3.960 153.206 0 156.846 0 160.726C0 163.086 1.920 164.486 4.360 164.486Z"></path></g><line stroke="#000000" stroke-width="1.2" x1="0.6" x2="0.6" y1="160.68615384615381" y2="194.68615384615381"></line><g><polygon fill="black" points="0.6,195.8461538461538 35.845099940513705,195.8461538461538 35.845099940513705,190.8461538461538 0.6,190.8461538461538" stroke="black" stroke-width="0"></polygon><polygon fill="black" points="35.845099940513705,195.8461538461538 71.0901998810274,195.8461538461538 71.0901998810274,190.8461538461538 35.845099940513705,190.8461538461538" stroke="black" stroke-width="0"></polygon><g><polygon fill="white" points="23.7850999405137,201.06615384615384 23.7850999405137,215.78615384615384 47.9050999405137,215.78615384615384 47.9050999405137,201.06615384615384" stroke="white" stroke-width="0"></polygon><path d="M30.745 216.106C31.345 216.106 31.945 215.746 32.585 215.746C33.185 215.746 33.705 216.106 34.305 216.106C34.665 216.106 34.785 215.946 34.825 215.666C35.425 213.146 36.025 210.866 38.225 208.346C39.585 206.786 40.985 204.986 41.825 202.226C41.865 202.026 41.905 201.826 41.905 201.626C41.905 201.266 41.625 201.186 41.305 201.186C40.825 201.186 40.665 201.306 40.505 201.706C40.265 202.386 39.865 202.706 39.265 202.706C37.945 202.706 37.185 201.066 35.225 201.066C34.345 201.066 33.585 201.506 32.945 202.066C32.665 202.346 32.585 202.506 32.425 202.506C32.385 202.506 32.305 202.466 32.305 202.346C32.305 202.106 32.465 201.866 32.465 201.546C32.465 201.306 32.265 201.186 31.945 201.186C31.585 201.186 31.385 201.266 31.225 201.666L29.865 205.986C29.825 206.106 29.785 206.226 29.785 206.306C29.785 206.586 29.945 206.706 30.265 206.706C30.625 206.706 30.865 206.626 30.985 206.186C31.345 205.106 31.825 204.266 32.785 204.266C33.905 204.266 35.225 205.026 36.705 205.026C37.505 205.026 38.385 204.746 39.185 204.226C39.505 204.026 39.705 204.266 39.505 204.546C38.345 206.266 36.905 207.186 35.225 208.546C32.785 210.466 31.265 212.866 30.465 215.426C30.425 215.506 30.385 215.666 30.385 215.786C30.385 215.986 30.505 216.106 30.745 216.106Z"></path></g></g></g><g><g><path d="M39.605 164.486C43.605 164.486 48.525 160.766 48.525 156.966C48.525 154.686 46.725 153.206 44.125 153.206C39.205 153.206 35.245 156.846 35.245 160.726C35.245 163.086 37.165 164.486 39.605 164.486Z"></path></g><line stroke="#000000" stroke-width="1.2" x1="35.845099940513705" x2="35.845099940513705" y1="160.68615384615381" y2="194.68615384615381"></line></g><g><g><path d="M74.850 164.486C78.850 164.486 83.770 160.766 83.770 156.966C83.770 154.686 81.970 153.206 79.370 153.206C74.450 153.206 70.490 156.846 70.490 160.726C70.490 163.086 72.410 164.486 74.850 164.486Z"></path></g><line stroke="#000000" stroke-width="1.2" x1="71.0901998810274" x2="71.0901998810274" y1="160.68615384615381" y2="194.68615384615381"></line></g><g><g><path d="M110.095 164.486C114.095 164.486 119.015 160.766 119.015 156.966C119.015 154.686 117.215 153.206 114.615 153.206C109.695 153.206 105.735 156.846 105.735 160.726C105.735 163.086 107.655 164.486 110.095 164.486Z"></path><g><circle cx="125.01529982154112" cy="158.8461538461538" r="2.4"></circle></g></g><line stroke="#000000" stroke-width="1.2" x1="106.33529982154111" x2="106.33529982154111" y1="160.68615384615381" y2="194.68615384615381"></line><g><polygon fill="black" points="102.33529982154111,214.0061538461538 265.87245036786413,214.0061538461538 265.87245036786413,212.4061538461538 102.33529982154111,212.4061538461538" stroke="black" stroke-width="0"></polygon><line fill="black" stroke="black" stroke-width="1.6" x1="102.83529982154111" x2="102.83529982154111" y1="212.4061538461538" y2="206.0061538461538"></line><line fill="black" stroke="black" stroke-width="1.6" x1="265.37245036786413" x2="265.37245036786413" y1="212.4061538461538" y2="206.0061538461538"></line><g><polygon fill="white" points="172.04387509470263,207.02615384615382 172.04387509470263,221.74615384615382 196.16387509470263,221.74615384615382 196.16387509470263,207.02615384615382" stroke="white" stroke-width="0"></polygon><path d="M179.004 222.066C179.604 222.066 180.204 221.706 180.844 221.706C181.444 221.706 181.964 222.066 182.564 222.066C182.924 222.066 183.044 221.906 183.084 221.626C183.684 219.106 184.284 216.826 186.484 214.306C187.844 212.746 189.244 210.946 190.084 208.186C190.124 207.986 190.164 207.786 190.164 207.586C190.164 207.226 189.884 207.146 189.564 207.146C189.084 207.146 188.924 207.266 188.764 207.666C188.524 208.346 188.124 208.666 187.524 208.666C186.204 208.666 185.444 207.026 183.484 207.026C182.604 207.026 181.844 207.466 181.204 208.026C180.924 208.306 180.844 208.466 180.684 208.466C180.644 208.466 180.564 208.426 180.564 208.306C180.564 208.066 180.724 207.826 180.724 207.506C180.724 207.266 180.524 207.146 180.204 207.146C179.844 207.146 179.644 207.226 179.484 207.626L178.124 211.946C178.084 212.066 178.044 212.186 178.044 212.266C178.044 212.546 178.204 212.666 178.524 212.666C178.884 212.666 179.124 212.586 179.244 212.146C179.604 211.066 180.084 210.226 181.044 210.226C182.164 210.226 183.484 210.986 184.964 210.986C185.764 210.986 186.644 210.706 187.444 210.186C187.764 209.986 187.964 210.226 187.764 210.506C186.604 212.226 185.164 213.146 183.484 214.506C181.044 216.426 179.524 218.826 178.724 221.386C178.684 221.466 178.644 221.626 178.644 221.746C178.644 221.946 178.764 222.066 179.004 222.066Z"></path></g></g></g><g><g><path d="M187.864 164.486C191.864 164.486 196.784 160.766 196.784 156.966C196.784 154.686 194.984 153.206 192.384 153.206C187.464 153.206 183.504 156.846 183.504 160.726C183.504 163.086 185.424 164.486 187.864 164.486Z"></path><g><circle cx="202.7838750947026" cy="158.8461538461538" r="2.4"></circle></g></g><line stroke="#000000" stroke-width="1.2" x1="184.1038750947026" x2="184.1038750947026" y1="160.68615384615381" y2="198.68615384615381"></line></g><g><g><path d="M265.632 164.486C269.632 164.486 274.552 160.766 274.552 156.966C274.552 154.686 272.752 153.206 270.152 153.206C265.232 153.206 261.272 156.846 261.272 160.726C261.272 163.086 263.192 164.486 265.632 164.486Z"></path><g><circle cx="280.55245036786414" cy="158.8461538461538" r="2.4"></circle></g></g><line stroke="#000000" stroke-width="1.2" x1="261.87245036786413" x2="261.87245036786413" y1="160.68615384615381" y2="194.68615384615381"></line></g></g><g transform="translate(93.84615384615385)"><g><g><line stroke="#6A6A6A" stroke-width="1.3" x1="0" x2="936.2713602954507" y1="314.8461538461538" y2="314.8461538461538"></line><line stroke="#6A6A6A" stroke-width="1.3" x1="0" x2="936.2713602954507" y1="304.8461538461538" y2="304.8461538461538"></line><line stroke="#6A6A6A" stroke-width="1.3" x1="0" x2="936.2713602954507" y1="294.8461538461538" y2="294.8461538461538"></line><line stroke="#6A6A6A" stroke-width="1.3" x1="0" x2="936.2713602954507" y1="284.8461538461538" y2="284.8461538461538"></line><line stroke="#6A6A6A" stroke-width="1.3" x1="0" x2="936.2713602954507" y1="274.8461538461538" y2="274.8461538461538"></line></g><g><path d="M25.200 260.926C24.640 260.926 23.400 261.966 22.600 262.846C19.640 266.126 18.680 271.126 18.680 275.286C18.680 277.606 18.960 280.206 19.240 281.846C19.320 282.326 19.360 282.406 18.880 282.806C16.320 284.926 13.560 287.366 11.480 289.926C8.720 293.366 7 297.086 7 301.366C7 308.326 11.760 314.926 21.560 314.926C22.480 314.926 23.520 314.846 24.320 314.686C24.760 314.606 24.840 314.566 24.920 315.046C25.400 317.726 26 321.206 26 323.086C26 329.006 22 329.726 19.640 329.726C17.480 329.726 16.440 329.086 16.440 328.566C16.440 328.126 16.800 328.166 17.720 327.886C18.960 327.526 20.400 326.446 20.400 324.126C20.400 321.926 19 320.046 16.560 320.046C13.880 320.046 12.280 322.166 12.280 324.646C12.280 327.246 13.840 331.166 19.880 331.166C22.560 331.166 27.760 329.966 27.760 323.166C27.760 320.886 27.040 317.086 26.600 314.606C26.520 314.126 26.560 314.166 27.120 313.926C31.160 312.326 33.840 308.926 33.840 304.406C33.840 299.286 30.080 294.766 24.200 294.766C23.080 294.766 23.200 294.966 23.040 294.046L22.040 288.246C21.960 287.766 22.040 287.726 22.280 287.486C22.920 286.886 23.760 286.046 24.520 285.206C27.880 281.526 29.880 276.766 29.880 272.246C29.880 268.766 28.920 265.326 27.280 262.926C26.680 262.046 25.640 260.926 25.200 260.926ZM20.040 289.086C20.440 288.766 20.520 288.806 20.600 289.246L21.440 294.366C21.560 295.126 21.560 295.086 20.840 295.326C17.320 296.526 15.040 299.686 15.040 303.086C15.040 306.686 16.920 309.246 19.640 310.166C19.960 310.286 20.440 310.406 20.720 310.406C21.040 310.406 21.200 310.206 21.200 309.966C21.200 309.686 20.880 309.566 20.600 309.446C18.920 308.726 17.720 307.006 17.720 305.166C17.720 302.886 19.280 301.166 21.720 300.486C22.360 300.326 22.440 300.366 22.520 300.806L24.520 312.726C24.600 313.166 24.560 313.166 23.960 313.286C23.320 313.406 22.520 313.486 21.720 313.486C14.720 313.486 10.200 309.606 10.200 304.046C10.200 301.686 10.600 298.526 13.920 294.766C16.320 292.086 18.160 290.606 20.040 289.086ZM24.640 300.166C27.880 300.446 30.560 303.166 30.560 306.686C30.560 309.206 29.040 311.246 26.800 312.366C26.320 312.606 26.240 312.606 26.160 312.126L24.200 300.726C24.120 300.246 24.160 300.126 24.640 300.166ZM25.800 267.126C27.120 267.126 28.200 268.206 28.200 270.406C28.200 273.166 26.880 275.726 23.760 278.846C23.120 279.486 22.160 280.406 21.240 281.206C20.960 281.446 20.800 281.406 20.720 280.886C20.560 279.846 20.480 278.486 20.480 277.206C20.480 270.966 23.360 267.126 25.800 267.126Z"></path></g><g></g><text font-family='Alegreya' font-style='italic' text-anchor='end' stroke='#7a7a7a' font-size="24" x="0" y="264.8461538461538">4</text></g><g><line stroke="black" stroke-width="1.6" x1="479.5856801477253" x2="479.5856801477253" y1="274.8461538461538" y2="314.8461538461538"></line></g><g><g><path d="M52.860 295.486C56.860 295.486 61.780 291.766 61.780 287.966C61.780 285.686 59.980 284.206 57.380 284.206C52.460 284.206 48.500 287.846 48.500 291.726C48.500 294.086 50.420 295.486 52.860 295.486Z"></path></g><line stroke="#000000" stroke-width="1.2" x1="49.1" x2="49.1" y1="291.6861538461538" y2="325.6861538461538"></line><g><polygon fill="black" points="49.1,326.8461538461538 94.16074707610288,326.8461538461538 94.16074707610288,321.8461538461538 49.1,321.8461538461538" stroke="black" stroke-width="0"></polygon><polygon fill="black" points="94.16074707610288,326.8461538461538 139.22149415220576,326.8461538461538 139.22149415220576,321.8461538461538 94.16074707610288,321.8461538461538" stroke="black" stroke-width="0"></polygon><g><polygon fill="white" points="82.24074707610288,331.94615384615383 82.24074707610288,346.62615384615384 106.08074707610288,346.62615384615384 106.08074707610288,331.94615384615383" stroke="white" stroke-width="0"></polygon><path d="M91.641 346.226C90.841 346.226 90.201 345.906 90.201 345.506C90.201 345.266 90.401 345.186 90.721 345.026C91.161 344.826 91.721 344.346 91.721 343.306C91.721 342.346 91.041 341.866 90.201 341.866C89.081 341.866 88.241 342.866 88.241 344.186C88.241 345.786 89.521 347.266 92.361 347.266C95.761 347.266 98.561 345.226 98.561 342.066C98.561 341.066 98.041 340.106 97.001 339.586C96.721 339.466 96.561 339.426 96.561 339.226C96.561 339.026 96.721 339.026 97.041 338.866C98.721 338.186 100.081 336.906 100.081 335.306C100.081 333.226 98.081 331.946 95.641 331.946C93.121 331.946 91.041 333.266 90.961 335.426C90.921 336.466 91.561 337.146 92.481 337.146C93.481 337.146 94.281 336.346 94.281 335.266C94.281 334.826 94.121 334.506 93.921 334.266C93.641 334.026 93.441 333.986 93.441 333.746C93.441 333.466 93.921 333.186 94.761 333.186C96.321 333.186 96.841 334.146 96.841 335.026C96.841 337.146 95.481 338.666 93.161 338.666L92.721 338.666C92.201 338.666 91.921 338.906 91.921 339.266C91.921 339.626 92.201 339.866 92.721 339.866L93.121 339.866C94.601 339.866 95.321 340.746 95.321 342.026C95.321 343.786 94.081 346.226 91.641 346.226Z"></path></g></g></g><g><g><path d="M97.921 295.486C101.921 295.486 106.841 291.766 106.841 287.966C106.841 285.686 105.041 284.206 102.441 284.206C97.521 284.206 93.561 287.846 93.561 291.726C93.561 294.086 95.481 295.486 97.921 295.486Z"></path></g><line stroke="#000000" stroke-width="1.2" x1="94.16074707610288" x2="94.16074707610288" y1="291.6861538461538" y2="325.6861538461538"></line></g><g><g><path d="M142.981 295.486C146.981 295.486 151.901 291.766 151.901 287.966C151.901 285.686 150.101 284.206 147.501 284.206C142.581 284.206 138.621 287.846 138.621 291.726C138.621 294.086 140.541 295.486 142.981 295.486Z"></path></g><line stroke="#000000" stroke-width="1.2" x1="139.22149415220576" x2="139.22149415220576" y1="291.6861538461538" y2="325.6861538461538"></line></g><g><g><path d="M188.042 295.486C192.042 295.486 196.962 291.766 196.962 287.966C196.962 285.686 195.162 284.206 192.562 284.206C187.642 284.206 183.682 287.846 183.682 291.726C183.682 294.086 185.602 295.486 188.042 295.486Z"></path><g><circle cx="202.96224122830867" cy="289.8461538461538" r="2.4"></circle></g></g><line stroke="#000000" stroke-width="1.2" x1="184.28224122830866" x2="184.28224122830866" y1="291.6861538461538" y2="325.6861538461538"></line><g><polygon fill="black" points="180.28224122830866,345.00615384615384 385.0178671745864,345.00615384615384 385.0178671745864,343.4061538461538 180.28224122830866,343.4061538461538" stroke="black" stroke-width="0"></polygon><line fill="black" stroke="black" stroke-width="1.6" x1="180.78224122830866" x2="180.78224122830866" y1="343.4061538461538" y2="337.00615384615384"></line><line fill="black" stroke="black" stroke-width="1.6" x1="384.5178671745864" x2="384.5178671745864" y1="343.4061538461538" y2="337.00615384615384"></line><g><polygon fill="white" points="270.7300542014475,337.9061538461538 270.7300542014475,352.5861538461538 294.57005420144753,352.5861538461538 294.57005420144753,337.9061538461538" stroke="white" stroke-width="0"></polygon><path d="M280.130 352.186C279.330 352.186 278.690 351.866 278.690 351.466C278.690 351.226 278.890 351.146 279.210 350.986C279.650 350.786 280.210 350.306 280.210 349.266C280.210 348.306 279.530 347.826 278.690 347.826C277.570 347.826 276.730 348.826 276.730 350.146C276.730 351.746 278.010 353.226 280.850 353.226C284.250 353.226 287.050 351.186 287.050 348.026C287.050 347.026 286.530 346.066 285.490 345.546C285.210 345.426 285.050 345.386 285.050 345.186C285.050 344.986 285.210 344.986 285.530 344.826C287.210 344.146 288.570 342.866 288.570 341.266C288.570 339.186 286.570 337.906 284.130 337.906C281.610 337.906 279.530 339.226 279.450 341.386C279.410 342.426 280.050 343.106 280.970 343.106C281.970 343.106 282.770 342.306 282.770 341.226C282.770 340.786 282.610 340.466 282.410 340.226C282.130 339.986 281.930 339.946 281.930 339.706C281.930 339.426 282.410 339.146 283.250 339.146C284.810 339.146 285.330 340.106 285.330 340.986C285.330 343.106 283.970 344.626 281.650 344.626L281.210 344.626C280.690 344.626 280.410 344.866 280.410 345.226C280.410 345.586 280.690 345.826 281.210 345.826L281.610 345.826C283.090 345.826 283.810 346.706 283.810 347.986C283.810 349.746 282.570 352.186 280.130 352.186Z"></path></g></g></g><g><g><path d="M286.410 295.486C290.410 295.486 295.330 291.766 295.330 287.966C295.330 285.686 293.530 284.206 290.930 284.206C286.010 284.206 282.050 287.846 282.050 291.726C282.050 294.086 283.970 295.486 286.410 295.486Z"></path><g><circle cx="301.3300542014475" cy="289.8461538461538" r="2.4"></circle></g></g><line stroke="#000000" stroke-width="1.2" x1="282.6500542014476" x2="282.6500542014476" y1="291.6861538461538" y2="329.6861538461538"></line></g><g><g><path d="M384.778 295.486C388.778 295.486 393.698 291.766 393.698 287.966C393.698 285.686 391.898 284.206 389.298 284.206C384.378 284.206 380.418 287.846 380.418 291.726C380.418 294.086 382.338 295.486 384.778 295.486Z"></path><g><circle cx="399.69786717458635" cy="289.8461538461538" r="2.4"></circle></g></g><line stroke="#000000" stroke-width="1.2" x1="381.0178671745864" x2="381.0178671745864" y1="291.6861538461538" y2="325.6861538461538"></line></g></g><g transform="translate(589.2318339938791)"><g></g><g><line stroke="#000000" stroke-width="1.6" x1="431.0856801477253" x2="431.0856801477253" y1="274.8461538461538" y2="314.8461538461538"></line><line stroke="#000000" stroke-width="5" x1="438.38568014772534" x2="438.38568014772534" y1="274.8461538461538" y2="314.8461538461538"></line></g><g><g><path d="M4.360 295.486C8.360 295.486 13.280 291.766 13.280 287.966C13.280 285.686 11.480 284.206 8.880 284.206C3.960 284.206 0 287.846 0 291.726C0 294.086 1.920 295.486 4.360 295.486Z"></path></g><line stroke="#000000" stroke-width="1.2" x1="0.6" x2="0.6" y1="291.6861538461538" y2="325.6861538461538"></line><g><polygon fill="black" points="0.6,326.8461538461538 45.660747076102886,326.8461538461538 45.660747076102886,321.8461538461538 0.6,321.8461538461538" stroke="black" stroke-width="0"></polygon><polygon fill="black" points="45.660747076102886,326.8461538461538 90.72149415220576,326.8461538461538 90.72149415220576,321.8461538461538 45.660747076102886,321.8461538461538" stroke="black" stroke-width="0"></polygon><g><polygon fill="white" points="33.60074707610288,332.06615384615384 33.60074707610288,346.7861538461538 57.72074707610288,346.7861538461538 57.72074707610288,332.06615384615384" stroke="white" stroke-width="0"></polygon><path d="M40.561 347.106C41.161 347.106 41.761 346.746 42.401 346.746C43.001 346.746 43.521 347.106 44.121 347.106C44.481 347.106 44.601 346.946 44.641 346.666C45.241 344.146 45.841 341.866 48.041 339.346C49.401 337.786 50.801 335.986 51.641 333.226C51.681 333.026 51.721 332.826 51.721 332.626C51.721 332.266 51.441 332.186 51.121 332.186C50.641 332.186 50.481 332.306 50.321 332.706C50.081 333.386 49.681 333.706 49.081 333.706C47.761 333.706 47.001 332.066 45.041 332.066C44.161 332.066 43.401 332.506 42.761 333.066C42.481 333.346 42.401 333.506 42.241 333.506C42.201 333.506 42.121 333.466 42.121 333.346C42.121 333.106 42.281 332.866 42.281 332.546C42.281 332.306 42.081 332.186 41.761 332.186C41.401 332.186 41.201 332.266 41.041 332.666L39.681 336.986C39.641 337.106 39.601 337.226 39.601 337.306C39.601 337.586 39.761 337.706 40.081 337.706C40.441 337.706 40.681 337.626 40.801 337.186C41.161 336.106 41.641 335.266 42.601 335.266C43.721 335.266 45.041 336.026 46.521 336.026C47.321 336.026 48.201 335.746 49.001 335.226C49.321 335.026 49.521 335.266 49.321 335.546C48.161 337.266 46.721 338.186 45.041 339.546C42.601 341.466 41.081 343.866 40.281 346.426C40.241 346.506 40.201 346.666 40.201 346.786C40.201 346.986 40.321 347.106 40.561 347.106Z"></path></g></g></g><g><g><path d="M49.421 295.486C53.421 295.486 58.341 291.766 58.341 287.966C58.341 285.686 56.541 284.206 53.941 284.206C49.021 284.206 45.061 287.846 45.061 291.726C45.061 294.086 46.981 295.486 49.421 295.486Z"></path></g><line stroke="#000000" stroke-width="1.2" x1="45.660747076102886" x2="45.660747076102886" y1="291.6861538461538" y2="325.6861538461538"></line></g><g><g><path d="M94.481 295.486C98.481 295.486 103.401 291.766 103.401 287.966C103.401 285.686 101.601 284.206 99.001 284.206C94.081 284.206 90.121 287.846 90.121 291.726C90.121 294.086 92.041 295.486 94.481 295.486Z"></path></g><line stroke="#000000" stroke-width="1.2" x1="90.72149415220576" x2="90.72149415220576" y1="291.6861538461538" y2="325.6861538461538"></line></g><g><g><path d="M139.542 295.486C143.542 295.486 148.462 291.766 148.462 287.966C148.462 285.686 146.662 284.206 144.062 284.206C139.142 284.206 135.182 287.846 135.182 291.726C135.182 294.086 137.102 295.486 139.542 295.486Z"></path><g><circle cx="154.46224122830867" cy="289.8461538461538" r="2.4"></circle></g></g><line stroke="#000000" stroke-width="1.2" x1="135.78224122830866" x2="135.78224122830866" y1="291.6861538461538" y2="325.6861538461538"></line><g><polygon fill="black" points="131.78224122830866,345.00615384615384 336.5178671745864,345.00615384615384 336.5178671745864,343.4061538461538 131.78224122830866,343.4061538461538" stroke="black" stroke-width="0"></polygon><line fill="black" stroke="black" stroke-width="1.6" x1="132.28224122830866" x2="132.28224122830866" y1="343.4061538461538" y2="337.00615384615384"></line><line fill="black" stroke="black" stroke-width="1.6" x1="336.0178671745864" x2="336.0178671745864" y1="343.4061538461538" y2="337.00615384615384"></line><g><polygon fill="white" points="222.09005420144751,338.0261538461538 222.09005420144751,352.7461538461538 246.21005420144752,352.7461538461538 246.21005420144752,338.0261538461538" stroke="white" stroke-width="0"></polygon><path d="M229.050 353.066C229.650 353.066 230.250 352.706 230.890 352.706C231.490 352.706 232.010 353.066 232.610 353.066C232.970 353.066 233.090 352.906 233.130 352.626C233.730 350.106 234.330 347.826 236.530 345.306C237.890 343.746 239.290 341.946 240.130 339.186C240.170 338.986 240.210 338.786 240.210 338.586C240.210 338.226 239.930 338.146 239.610 338.146C239.130 338.146 238.970 338.266 238.810 338.666C238.570 339.346 238.170 339.666 237.570 339.666C236.250 339.666 235.490 338.026 233.530 338.026C232.650 338.026 231.890 338.466 231.250 339.026C230.970 339.306 230.890 339.466 230.730 339.466C230.690 339.466 230.610 339.426 230.610 339.306C230.610 339.066 230.770 338.826 230.770 338.506C230.770 338.266 230.570 338.146 230.250 338.146C229.890 338.146 229.690 338.226 229.530 338.626L228.170 342.946C228.130 343.066 228.090 343.186 228.090 343.266C228.090 343.546 228.250 343.666 228.570 343.666C228.930 343.666 229.170 343.586 229.290 343.146C229.650 342.066 230.130 341.226 231.090 341.226C232.210 341.226 233.530 341.986 235.010 341.986C235.810 341.986 236.690 341.706 237.490 341.186C237.810 340.986 238.010 341.226 237.810 341.506C236.650 343.226 235.210 344.146 233.530 345.506C231.090 347.426 229.570 349.826 228.770 352.386C228.730 352.466 228.690 352.626 228.690 352.746C228.690 352.946 228.810 353.066 229.050 353.066Z"></path></g></g></g><g><g><path d="M237.910 295.486C241.910 295.486 246.830 291.766 246.830 287.966C246.830 285.686 245.030 284.206 242.430 284.206C237.510 284.206 233.550 287.846 233.550 291.726C233.550 294.086 235.470 295.486 237.910 295.486Z"></path><g><circle cx="252.83005420144755" cy="289.8461538461538" r="2.4"></circle></g></g><line stroke="#000000" stroke-width="1.2" x1="234.15005420144755" x2="234.15005420144755" y1="291.6861538461538" y2="329.6861538461538"></line></g><g><g><path d="M336.278 295.486C340.278 295.486 345.198 291.766 345.198 287.966C345.198 285.686 343.398 284.206 340.798 284.206C335.878 284.206 331.918 287.846 331.918 291.726C331.918 294.086 333.838 295.486 336.278 295.486Z"></path><g><circle cx="351.19786717458635" cy="289.8461538461538" r="2.4"></circle></g></g><line stroke="#000000" stroke-width="1.2" x1="332.5178671745864" x2="332.5178671745864" y1="291.6861538461538" y2="325.6861538461538"></line></g></g></svg>