<?xml version="1.0" encoding="UTF-8" standalone="no"?><svg xmlns="http://www.w3.org/2000/svg" height="279.4mm" viewBox="0 0 1328.6153846153845 1719.3846153846152" width="215.9mm"><g transform="translate(163.84615384615387)"><g><g><line stroke="#6A6A6A" stroke-width="1.3" x1="0" x2="214.70957261856222" y1="196.3461538461538" y2="196.3461538461538"></line></g><g><path d="M25.200 162.426C24.640 162.426 23.400 163.466 22.600 164.346C19.640 167.626 18.680 172.626 18.680 176.786C18.680 179.106 18.960 181.706 19.240 183.346C19.320 183.826 19.360 183.906 18.880 184.306C16.320 186.426 13.560 188.866 11.480 191.426C8.720 194.866 7 198.586 7 202.866C7 209.826 11.760 216.426 21.560 216.426C22.480 216.426 23.520 216.346 24.320 216.186C24.760 216.106 24.840 216.066 24.920 216.546C25.400 219.226 26 222.706 26 224.586C26 230.506 22 231.226 19.640 231.226C17.480 231.226 16.440 230.586 16.440 230.066C16.440 229.626 16.800 229.666 17.720 229.386C18.960 229.026 20.400 227.946 20.400 225.626C20.400 223.426 19 221.546 16.560 221.546C13.880 221.546 12.280 223.666 12.280 226.146C12.280 228.746 13.840 232.666 19.880 232.666C22.560 232.666 27.760 231.466 27.760 224.666C27.760 222.386 27.040 218.586 26.600 216.106C26.520 215.626 26.560 215.666 27.120 215.426C31.160 213.826 33.840 210.426 33.840 205.906C33.840 200.786 30.080 196.266 24.200 196.266C23.080 196.266 23.200 196.466 23.040 195.546L22.040 189.746C21.960 189.266 22.040 189.226 22.280 188.986C22.920 188.386 23.760 187.546 24.520 186.706C27.880 183.026 29.880 178.266 29.880 173.746C29.880 170.266 28.920 166.826 27.280 164.426C26.680 163.546 25.640 162.426 25.200 162.426ZM20.040 190.586C20.440 190.266 20.520 190.306 20.600 190.746L21.440 195.866C21.560 196.626 21.560 196.586 20.840 196.826C17.320 198.026 15.040 201.186 15.040 204.586C15.040 208.186 16.920 210.746 19.640 211.666C19.960 211.786 20.440 211.906 20.720 211.906C21.040 211.906 21.200 211.706 21.200 211.466C21.200 211.186 20.880 211.066 20.600 210.946C18.920 210.226 17.720 208.506 17.720 206.666C17.720 204.386 19.280 202.666 21.720 201.986C22.360 201.826 22.440 201.866 22.520 202.306L24.520 214.226C24.600 214.666 24.560 214.666 23.960 214.786C23.320 214.906 22.520 214.986 21.720 214.986C14.720 214.986 10.200 211.106 10.200 205.546C10.200 203.186 10.600 200.026 13.920 196.266C16.320 193.586 18.160 192.106 20.040 190.586ZM24.640 201.666C27.880 201.946 30.560 204.666 30.560 208.186C30.560 210.706 29.040 212.746 26.800 213.866C26.320 214.106 26.240 214.106 26.160 213.626L24.200 202.226C24.120 201.746 24.160 201.626 24.640 201.666ZM25.800 168.626C27.120 168.626 28.200 169.706 28.200 171.906C28.200 174.666 26.880 177.226 23.760 180.346C23.120 180.986 22.160 181.906 21.240 182.706C20.960 182.946 20.800 182.906 20.720 182.386C20.560 181.346 20.480 179.986 20.480 178.706C20.480 172.466 23.360 168.626 25.800 168.626Z"></path></g><g></g><path d="M57.820 186.306C56.620 186.306 55.220 186.626 54.140 187.106C50.580 188.666 48.700 192.946 48.700 196.746C48.700 197.106 48.700 197.466 48.740 197.826C48.940 199.986 49.980 202.026 51.300 203.626C52.820 205.466 55.020 206.306 57.420 206.306C64.420 206.306 65.460 199.946 65.460 198.786C65.460 197.906 65.020 197.906 64.860 197.906C64.540 197.906 64.260 197.946 64.260 198.626C64.260 203.786 59.860 204.986 58.580 204.986C55.340 204.986 53.620 201.826 53.620 195.226C53.620 188.626 56.660 187.266 58.820 187.266C60.900 187.266 61.740 188.226 61.740 188.626C61.740 188.986 61.620 189.506 61.020 189.506C59.420 189.506 58.500 191.226 58.500 192.466C58.500 194.746 60.460 195.466 61.580 195.466C61.580 195.466 64.620 195.346 64.620 192.026C64.620 186.786 58.580 186.306 57.820 186.306Z"></path><g><line stroke="#000000" stroke-width="5" x1="-7.5" x2="-7.5" y1="170.8461538461538" y2="321.8461538461538"></line><path d="M-10 173.846L-5 173.846C1.400 172.646 7.120 169.686 8.720 163.006C8.760 162.846 8.760 162.726 8.760 162.606C8.760 162.286 8.640 162.126 8.440 162.046C8.080 162.046 7.640 162.326 7.440 162.606C7.040 163.046 2 168.326-5.640 168.886L-9.680 168.886C-9.920 168.886-10 168.926-10 169.166Z"></path><path d="M-10 323.526C-10 323.766-9.920 323.806-9.680 323.806L-5.640 323.806C2 324.366 7.040 329.646 7.440 330.086C7.640 330.366 8.080 330.646 8.440 330.646C8.640 330.566 8.760 330.406 8.760 330.086C8.760 329.966 8.760 329.846 8.720 329.686C7.120 323.006 1.400 320.046-5 318.846L-10 318.846Z"></path><line stroke="#000000" stroke-width="1.6" x1="0" x2="0" y1="175.8461538461538" y2="316.8461538461538"></line></g></g><g><line stroke="black" stroke-width="1.6" x1="215.50957261856223" x2="215.50957261856223" y1="175.8461538461538" y2="316.8461538461538"></line></g><g><g><line stroke="#6A6A6A" stroke-width="1.3" x1="0" x2="214.70957261856222" y1="316.3461538461538" y2="316.3461538461538"></line><line stroke="#6A6A6A" stroke-width="1.3" x1="0" x2="214.70957261856222" y1="306.3461538461538" y2="306.3461538461538"></line><line stroke="#6A6A6A" stroke-width="1.3" x1="0" x2="214.70957261856222" y1="296.3461538461538" y2="296.3461538461538"></line><line stroke="#6A6A6A" stroke-width="1.3" x1="0" x2="214.70957261856222" y1="286.3461538461538" y2="286.3461538461538"></line><line stroke="#6A6A6A" stroke-width="1.3" x1="0" x2="214.70957261856222" y1="276.3461538461538" y2="276.3461538461538"></line></g><g><path d="M25.200 262.426C24.640 262.426 23.400 263.466 22.600 264.346C19.640 267.626 18.680 272.626 18.680 276.786C18.680 279.106 18.960 281.706 19.240 283.346C19.320 283.826 19.360 283.906 18.880 284.306C16.320 286.426 13.560 288.866 11.480 291.426C8.720 294.866 7 298.586 7 302.866C7 309.826 11.760 316.426 21.560 316.426C22.480 316.426 23.520 316.346 24.320 316.186C24.760 316.106 24.840 316.066 24.920 316.546C25.400 319.226 26 322.706 26 324.586C26 330.506 22 331.226 19.640 331.226C17.480 331.226 16.440 330.586 16.440 330.066C16.440 329.626 16.800 329.666 17.720 329.386C18.960 329.026 20.400 327.946 20.400 325.626C20.400 323.426 19 321.546 16.560 321.546C13.880 321.546 12.280 323.666 12.280 326.146C12.280 328.746 13.840 332.666 19.880 332.666C22.560 332.666 27.760 331.466 27.760 324.666C27.760 322.386 27.040 318.586 26.600 316.106C26.520 315.626 26.560 315.666 27.120 315.426C31.160 313.826 33.840 310.426 33.840 305.906C33.840 300.786 30.080 296.266 24.200 296.266C23.080 296.266 23.200 296.466 23.040 295.546L22.040 289.746C21.960 289.266 22.040 289.226 22.280 288.986C22.920 288.386 23.760 287.546 24.520 286.706C27.880 283.026 29.880 278.266 29.880 273.746C29.880 270.266 28.920 266.826 27.280 264.426C26.680 263.546 25.640 262.426 25.200 262.426ZM20.040 290.586C20.440 290.266 20.520 290.306 20.600 290.746L21.440 295.866C21.560 296.626 21.560 296.586 20.840 296.826C17.320 298.026 15.040 301.186 15.040 304.586C15.040 308.186 16.920 310.746 19.640 311.666C19.960 311.786 20.440 311.906 20.720 311.906C21.040 311.906 21.200 311.706 21.200 311.466C21.200 311.186 20.880 311.066 20.600 310.946C18.920 310.226 17.720 308.506 17.720 306.666C17.720 304.386 19.280 302.666 21.720 301.986C22.360 301.826 22.440 301.866 22.520 302.306L24.520 314.226C24.600 314.666 24.560 314.666 23.960 314.786C23.320 314.906 22.520 314.986 21.720 314.986C14.720 314.986 10.200 311.106 10.200 305.546C10.200 303.186 10.600 300.026 13.920 296.266C16.320 293.586 18.160 292.106 20.040 290.586ZM24.640 301.666C27.880 301.946 30.560 304.666 30.560 308.186C30.560 310.706 29.040 312.746 26.800 313.866C26.320 314.106 26.240 314.106 26.160 313.626L24.200 302.226C24.120 301.746 24.160 301.626 24.640 301.666ZM25.800 268.626C27.120 268.626 28.200 269.706 28.200 271.906C28.200 274.666 26.880 277.226 23.760 280.346C23.120 280.986 22.160 281.906 21.240 282.706C20.960 282.946 20.800 282.906 20.720 282.386C20.560 281.346 20.480 279.986 20.480 278.706C20.480 272.466 23.360 268.626 25.800 268.626Z"></path></g><g></g><path d="M57.820 286.306C56.620 286.306 55.220 286.626 54.140 287.106C50.580 288.666 48.700 292.946 48.700 296.746C48.700 297.106 48.700 297.466 48.740 297.826C48.940 299.986 49.980 302.026 51.300 303.626C52.820 305.466 55.020 306.306 57.420 306.306C64.420 306.306 65.460 299.946 65.460 298.786C65.460 297.906 65.020 297.906 64.860 297.906C64.540 297.906 64.260 297.946 64.260 298.626C64.260 303.786 59.860 304.986 58.580 304.986C55.340 304.986 53.620 301.826 53.620 295.226C53.620 288.626 56.660 287.266 58.820 287.266C60.900 287.266 61.740 288.226 61.740 288.626C61.740 288.986 61.620 289.506 61.020 289.506C59.420 289.506 58.500 291.226 58.500 292.466C58.500 294.746 60.460 295.466 61.580 295.466C61.580 295.466 64.620 295.346 64.620 292.026C64.620 286.786 58.580 286.306 57.820 286.306Z"></path><g><line stroke="#000000" stroke-width="5" x1="-7.5" x2="-7.5" y1="170.8461538461538" y2="321.8461538461538"></line><path d="M-10 173.846L-5 173.846C1.400 172.646 7.120 169.686 8.720 163.006C8.760 162.846 8.760 162.726 8.760 162.606C8.760 162.286 8.640 162.126 8.440 162.046C8.080 162.046 7.640 162.326 7.440 162.606C7.040 163.046 2 168.326-5.640 168.886L-9.680 168.886C-9.920 168.886-10 168.926-10 169.166Z"></path><path d="M-10 323.526C-10 323.766-9.920 323.806-9.680 323.806L-5.640 323.806C2 324.366 7.040 329.646 7.440 330.086C7.640 330.366 8.080 330.646 8.440 330.646C8.640 330.566 8.760 330.406 8.760 330.086C8.760 329.966 8.760 329.846 8.720 329.686C7.120 323.006 1.400 320.046-5 318.846L-10 318.846Z"></path><line stroke="#000000" stroke-width="1.6" x1="0" x2="0" y1="175.8461538461538" y2="316.8461538461538"></line></g></g><g><line stroke="black" stroke-width="1.6" x1="215.50957261856223" x2="215.50957261856223" y1="175.8461538461538" y2="316.8461538461538"></line></g><g><g><path d="M98.400 180.866C92.600 180.866 89 183.306 89 186.266C89 189.186 91.480 191.786 97.960 191.786C105.080 191.786 107.360 189.306 107.360 186.266C107.360 183.186 102.440 180.866 98.400 180.866ZM93.840 183.586C94.320 182.106 95.920 181.866 97.280 181.866C100.240 181.866 102.640 185.066 102.640 187.706C102.640 187.986 102.600 188.266 102.560 188.506C102.360 189.586 101.720 190.346 100.640 190.626C100.200 190.746 99.760 190.786 99.320 190.786C98.920 190.786 98.560 190.746 98.160 190.626C97.440 190.386 96.720 189.986 96.120 189.466C95.800 189.186 95.480 188.866 95.200 188.506C94.360 187.506 93.680 186.026 93.680 184.666C93.680 184.306 93.720 183.946 93.840 183.586Z"></path></g></g><g><g><path d="M98.400 300.866C92.600 300.866 89 303.306 89 306.266C89 309.186 91.480 311.786 97.960 311.786C105.080 311.786 107.360 309.306 107.360 306.266C107.360 303.186 102.440 300.866 98.400 300.866ZM93.840 303.586C94.320 302.106 95.920 301.866 97.280 301.866C100.240 301.866 102.640 305.066 102.640 307.706C102.640 307.986 102.600 308.266 102.560 308.506C102.360 309.586 101.720 310.346 100.640 310.626C100.200 310.746 99.760 310.786 99.320 310.786C98.920 310.786 98.560 310.746 98.160 310.626C97.440 310.386 96.720 309.986 96.120 309.466C95.800 309.186 95.480 308.866 95.200 308.506C94.360 307.506 93.680 306.026 93.680 304.666C93.680 304.306 93.720 303.946 93.840 303.586Z"></path></g></g></g><g transform="translate(395.1557264647161)"><g><g><line stroke="#6A6A6A" stroke-width="1.3" x1="-16.599999999999994" x2="327.45946577816085" y1="196.3461538461538" y2="196.3461538461538"></line></g></g><g><line stroke="black" stroke-width="1.6" x1="150.92973288908044" x2="150.92973288908044" y1="175.8461538461538" y2="316.8461538461538"></line></g><g><g><line stroke="#6A6A6A" stroke-width="1.3" x1="-16.599999999999994" x2="150.12973288908043" y1="311.3461538461538" y2="311.3461538461538"></line><line stroke="#6A6A6A" stroke-width="1.3" x1="-16.599999999999994" x2="150.12973288908043" y1="301.3461538461538" y2="301.3461538461538"></line><line stroke="#6A6A6A" stroke-width="1.3" x1="-16.599999999999994" x2="150.12973288908043" y1="291.3461538461538" y2="291.3461538461538"></line><line stroke="#6A6A6A" stroke-width="1.3" x1="-16.599999999999994" x2="150.12973288908043" y1="281.3461538461538" y2="281.3461538461538"></line></g></g><g><line stroke="black" stroke-width="1.6" x1="150.92973288908044" x2="150.92973288908044" y1="175.8461538461538" y2="316.8461538461538"></line></g><g><g><path d="M9.400 180.866C3.600 180.866 0 183.306 0 186.266C0 189.186 2.480 191.786 8.960 191.786C16.080 191.786 18.360 189.306 18.360 186.266C18.360 183.186 13.440 180.866 9.400 180.866ZM4.840 183.586C5.320 182.106 6.920 181.866 8.280 181.866C11.240 181.866 13.640 185.066 13.640 187.706C13.640 187.986 13.600 188.266 13.560 188.506C13.360 189.586 12.720 190.346 11.640 190.626C11.200 190.746 10.760 190.786 10.320 190.786C9.920 190.786 9.560 190.746 9.160 190.626C8.440 190.386 7.720 189.986 7.120 189.466C6.800 189.186 6.480 188.866 6.200 188.506C5.360 187.506 4.680 186.026 4.680 184.666C4.680 184.306 4.720 183.946 4.840 183.586Z"></path></g></g><g><g><path d="M4.480 312.146C12.120 312.146 13.640 305.946 13.640 304.426C13.640 302.066 11.760 300.546 9.080 300.546C2.160 300.546 0 305.906 0 308.306C0 310.746 1.960 312.146 4.480 312.146ZM8 308.466C5.920 309.866 4.480 310.346 3.480 310.346C2.520 310.346 1.960 309.866 1.640 309.306C1.480 309.026 1.360 308.706 1.360 308.386C1.360 307.386 2.360 306.106 5.560 304.266C7.840 302.946 9.280 302.466 10.240 302.466C11.120 302.466 11.600 302.866 11.920 303.426C12.080 303.706 12.200 303.986 12.200 304.306C12.200 305.226 11.240 306.346 8 308.466Z"></path></g><line stroke="#000000" stroke-width="1.2" x1="13.040000000000001" x2="13.040000000000001" y1="304.4261538461538" y2="269.4261538461538"></line></g><g><g><path d="M79.545 312.146C87.185 312.146 88.705 305.946 88.705 304.426C88.705 302.066 86.825 300.546 84.145 300.546C77.225 300.546 75.065 305.906 75.065 308.306C75.065 310.746 77.025 312.146 79.545 312.146ZM83.065 308.466C80.985 309.866 79.545 310.346 78.545 310.346C77.585 310.346 77.025 309.866 76.705 309.306C76.545 309.026 76.425 308.706 76.425 308.386C76.425 307.386 77.425 306.106 80.625 304.266C82.905 302.946 84.345 302.466 85.305 302.466C86.185 302.466 86.665 302.866 86.985 303.426C87.145 303.706 87.265 303.986 87.265 304.306C87.265 305.226 86.305 306.346 83.065 308.466Z"></path></g><line stroke="#000000" stroke-width="1.2" x1="88.10486644454022" x2="88.10486644454022" y1="304.4261538461538" y2="269.4261538461538"></line></g></g><g transform="translate(561.8854593537966)"><g></g><g><line stroke="black" stroke-width="1.6" x1="150.92973288908044" x2="150.92973288908044" y1="175.8461538461538" y2="316.8461538461538"></line><line stroke="black" stroke-width="5" x1="158.22973288908042" x2="158.22973288908042" y1="175.8461538461538" y2="316.8461538461538"></line></g><g><g><line stroke="#6A6A6A" stroke-width="1.3" x1="-16.600000000000023" x2="75.0648664445402" y1="311.3461538461538" y2="311.3461538461538"></line><line stroke="#6A6A6A" stroke-width="1.3" x1="-16.600000000000023" x2="75.0648664445402" y1="301.3461538461538" y2="301.3461538461538"></line><line stroke="#6A6A6A" stroke-width="1.3" x1="-16.600000000000023" x2="75.0648664445402" y1="291.3461538461538" y2="291.3461538461538"></line><line stroke="#6A6A6A" stroke-width="1.3" x1="-16.600000000000023" x2="75.0648664445402" y1="281.3461538461538" y2="281.3461538461538"></line></g></g><g><g><line stroke="#6A6A6A" stroke-width="1.3" x1="1.4210854715202004e-14" x2="160.72973288908042" y1="301.3461538461538" y2="301.3461538461538"></line><line stroke="#6A6A6A" stroke-width="1.3" x1="1.4210854715202004e-14" x2="160.72973288908042" y1="291.3461538461538" y2="291.3461538461538"></line></g></g><g><line stroke="black" stroke-width="1.6" x1="150.92973288908044" x2="150.92973288908044" y1="175.8461538461538" y2="316.8461538461538"></line><line stroke="black" stroke-width="5" x1="158.22973288908042" x2="158.22973288908042" y1="175.8461538461538" y2="316.8461538461538"></line></g><g><g><path d="M9.400 180.866C3.600 180.866 0 183.306 0 186.266C0 189.186 2.480 191.786 8.960 191.786C16.080 191.786 18.360 189.306 18.360 186.266C18.360 183.186 13.440 180.866 9.400 180.866ZM4.840 183.586C5.320 182.106 6.920 181.866 8.280 181.866C11.240 181.866 13.640 185.066 13.640 187.706C13.640 187.986 13.600 188.266 13.560 188.506C13.360 189.586 12.720 190.346 11.640 190.626C11.200 190.746 10.760 190.786 10.320 190.786C9.920 190.786 9.560 190.746 9.160 190.626C8.440 190.386 7.720 189.986 7.120 189.466C6.800 189.186 6.480 188.866 6.200 188.506C5.360 187.506 4.680 186.026 4.680 184.666C4.680 184.306 4.720 183.946 4.840 183.586Z"></path></g></g><g><g><path d="M4.480 312.146C12.120 312.146 13.640 305.946 13.640 304.426C13.640 302.066 11.760 300.546 9.080 300.546C2.160 300.546 0 305.906 0 308.306C0 310.746 1.960 312.146 4.480 312.146ZM8 308.466C5.920 309.866 4.480 310.346 3.480 310.346C2.520 310.346 1.960 309.866 1.640 309.306C1.480 309.026 1.360 308.706 1.360 308.386C1.360 307.386 2.360 306.106 5.560 304.266C7.840 302.946 9.280 302.466 10.240 302.466C11.120 302.466 11.600 302.866 11.920 303.426C12.080 303.706 12.200 303.986 12.200 304.306C12.200 305.226 11.240 306.346 8 308.466Z"></path></g><line stroke="#000000" stroke-width="1.2" x1="13.040000000000001" x2="13.040000000000001" y1="304.4261538461538" y2="269.4261538461538"></line></g><g><g><path d="M79.545 312.146C87.185 312.146 88.705 305.946 88.705 304.426C88.705 302.066 86.825 300.546 84.145 300.546C77.225 300.546 75.065 305.906 75.065 308.306C75.065 310.746 77.025 312.146 79.545 312.146ZM83.065 308.466C80.985 309.866 79.545 310.346 78.545 310.346C77.585 310.346 77.025 309.866 76.705 309.306C76.545 309.026 76.425 308.706 76.425 308.386C76.425 307.386 77.425 306.106 80.625 304.266C82.905 302.946 84.345 302.466 85.305 302.466C86.185 302.466 86.665 302.866 86.985 303.426C87.145 303.706 87.265 303.986 87.265 304.306C87.265 305.226 86.305 306.346 83.065 308.466Z"></path></g><line stroke="#000000" stroke-width="1.2" x1="88.10486644454022" x2="88.10486644454022" y1="304.4261538461538" y2="269.4261538461538"></line></g></g></svg>