<?xml version="1.0" encoding="UTF-8" standalone="no"?><svg xmlns="http://www.w3.org/2000/svg" height="279.4mm" viewBox="0 0 1328.6153846153845 1719.3846153846152" width="215.9mm"><g transform="translate(93.84615384615385)"><g><g><line stroke="#6A6A6A" stroke-width="1.3" x1="0" x2="680.6491497947068" y1="183.8461538461538" y2="183.8461538461538"></line><line stroke="#6A6A6A" stroke-width="1.3" x1="0" x2="680.6491497947068" y1="173.8461538461538" y2="173.8461538461538"></line><line stroke="#6A6A6A" stroke-width="1.3" x1="0" x2="680.6491497947068" y1="163.8461538461538" y2="163.8461538461538"></line><line stroke="#6A6A6A" stroke-width="1.3" x1="0" x2="680.6491497947068" y1="153.8461538461538" y2="153.8461538461538"></line><line stroke="#6A6A6A" stroke-width="1.3" x1="0" x2="680.6491497947068" y1="143.8461538461538" y2="143.8461538461538"></line></g><g><path d="M25.200 129.926C24.640 129.926 23.400 130.966 22.600 131.846C19.640 135.126 18.680 140.126 18.680 144.286C18.680 146.606 18.960 149.206 19.240 150.846C19.320 151.326 19.360 151.406 18.880 151.806C16.320 153.926 13.560 156.366 11.480 158.926C8.720 162.366 7 166.086 7 170.366C7 177.326 11.760 183.926 21.560 183.926C22.480 183.926 23.520 183.846 24.320 183.686C24.760 183.606 24.840 183.566 24.920 184.046C25.400 186.726 26 190.206 26 192.086C26 198.006 22 198.726 19.640 198.726C17.480 198.726 16.440 198.086 16.440 197.566C16.440 197.126 16.800 197.166 17.720 196.886C18.960 196.526 20.400 195.446 20.400 193.126C20.400 190.926 19 189.046 16.560 189.046C13.880 189.046 12.280 191.166 12.280 193.646C12.280 196.246 13.840 200.166 19.880 200.166C22.560 200.166 27.760 198.966 27.760 192.166C27.760 189.886 27.040 186.086 26.600 183.606C26.520 183.126 26.560 183.166 27.120 182.926C31.160 181.326 33.840 177.926 33.840 173.406C33.840 168.286 30.080 163.766 24.200 163.766C23.080 163.766 23.200 163.966 23.040 163.046L22.040 157.246C21.960 156.766 22.040 156.726 22.280 156.486C22.920 155.886 23.760 155.046 24.520 154.206C27.880 150.526 29.880 145.766 29.880 141.246C29.880 137.766 28.920 134.326 27.280 131.926C26.680 131.046 25.640 129.926 25.200 129.926ZM20.040 158.086C20.440 157.766 20.520 157.806 20.600 158.246L21.440 163.366C21.560 164.126 21.560 164.086 20.840 164.326C17.320 165.526 15.040 168.686 15.040 172.086C15.040 175.686 16.920 178.246 19.640 179.166C19.960 179.286 20.440 179.406 20.720 179.406C21.040 179.406 21.200 179.206 21.200 178.966C21.200 178.686 20.880 178.566 20.600 178.446C18.920 177.726 17.720 176.006 17.720 174.166C17.720 171.886 19.280 170.166 21.720 169.486C22.360 169.326 22.440 169.366 22.520 169.806L24.520 181.726C24.600 182.166 24.560 182.166 23.960 182.286C23.320 182.406 22.520 182.486 21.720 182.486C14.720 182.486 10.200 178.606 10.200 173.046C10.200 170.686 10.600 167.526 13.920 163.766C16.320 161.086 18.160 159.606 20.040 158.086ZM24.640 169.166C27.880 169.446 30.560 172.166 30.560 175.686C30.560 178.206 29.040 180.246 26.800 181.366C26.320 181.606 26.240 181.606 26.160 181.126L24.200 169.726C24.120 169.246 24.160 169.126 24.640 169.166ZM25.800 136.126C27.120 136.126 28.200 137.206 28.200 139.406C28.200 142.166 26.880 144.726 23.760 147.846C23.120 148.486 22.160 149.406 21.240 150.206C20.960 150.446 20.800 150.406 20.720 149.886C20.560 148.846 20.480 147.486 20.480 146.206C20.480 139.966 23.360 136.126 25.800 136.126Z"></path></g><g></g><g><g><path d="M64.860 157.486C64.860 157.006 64.660 156.926 64.380 156.926C64.060 156.926 63.940 157.086 63.860 157.326C63.860 157.366 63.820 157.406 63.820 157.446C63.420 158.406 63.100 159.166 62.260 159.166C62.060 159.166 61.860 159.126 61.580 159.046C61.060 158.846 60.780 158.806 60.380 158.606C59.580 158.286 57.700 157.646 56.060 157.646C55.540 157.646 55.020 157.726 54.580 157.886C55.460 156.446 58.860 155.246 59.740 155.006C60.340 154.846 62.020 154.526 63.340 153.446C64.300 152.686 65.060 151.526 65.060 149.766C65.060 147.886 64.260 146.526 63.220 145.646C61.180 143.926 58.060 143.686 57.180 143.686C56.100 143.686 54.740 143.726 53.700 143.966C52.300 144.246 50.900 145.086 49.940 146.206C49.260 147.046 48.820 148.046 48.820 149.126C48.820 149.686 48.940 150.246 49.180 150.846C49.780 152.086 51.020 153.046 52.460 153.046C54.900 153.046 55.260 150.526 55.260 149.526C55.260 147.126 52.500 147.006 52.500 146.206C52.580 145.646 53.300 144.686 55.660 144.686C59.220 144.686 59.260 147.366 59.260 148.526C59.260 150.046 58.780 151.446 57.900 152.606C56.460 154.526 55.340 155.486 53.380 156.686C51.180 158.086 49.620 160.046 48.940 162.566C48.940 162.646 48.900 162.726 48.900 162.806C48.900 163.246 49.180 163.766 49.620 164.046C49.740 164.126 49.860 164.126 49.940 164.126C50.820 164.126 51.300 161.686 53.660 161.686C55.260 161.686 55.860 163.846 59.420 163.846C61.140 163.846 64.220 163.686 64.860 157.486Z"></path></g><g><path d="M65.180 176.806L62.260 176.806L62.260 168.246C62.260 167.926 62.220 167.566 61.780 167.566C61.420 167.566 61.220 167.646 60.980 167.926L57.180 172.526C57.020 172.726 56.820 172.966 56.820 173.446C56.820 173.446 56.820 175.046 56.820 176.806L51.420 176.806C54.620 174.086 61.020 165.006 61.140 164.566C61.140 164.486 61.180 164.446 61.180 164.366C61.180 164.046 60.900 163.806 60.580 163.806C60.220 163.806 58.580 163.886 57.860 163.886C57.140 163.886 55.340 163.806 55.020 163.806C54.660 163.806 54.100 163.926 54.100 164.566C54.100 169.526 50.180 175.086 48.980 176.766L48.740 177.086C48.740 177.126 48.700 177.166 48.700 177.206C48.620 177.366 48.580 177.526 48.580 177.646C48.580 178.046 48.900 178.326 49.380 178.326L56.820 178.326L56.820 180.846C56.820 181.926 55.940 182.246 55.220 182.246C54.580 182.246 54.300 182.606 54.300 183.006C54.300 183.406 54.460 183.846 55.060 183.846C55.700 183.846 63.580 183.846 63.580 183.846C63.980 183.846 64.380 183.566 64.380 183.006C64.380 182.446 63.900 182.206 63.500 182.206C63.100 182.206 62.260 181.966 62.260 180.686L62.260 178.326C63.980 178.326 65.180 178.326 65.180 178.326C65.580 178.326 65.780 178.046 65.780 177.566C65.780 177.086 65.620 176.806 65.180 176.806Z"></path></g></g></g><g><line stroke="#000000" stroke-width="1.6" x1="670.8491497947066" x2="670.8491497947066" y1="143.8461538461538" y2="183.8461538461538"></line><line stroke="#000000" stroke-width="5" x1="678.1491497947067" x2="678.1491497947067" y1="143.8461538461538" y2="183.8461538461538"></line></g><g><g><path d="M93.360 169.486C97.360 169.486 102.280 165.766 102.280 161.966C102.280 159.686 100.480 158.206 97.880 158.206C92.960 158.206 89 161.846 89 165.726C89 168.086 90.920 169.486 93.360 169.486Z"></path></g><line stroke="#000000" stroke-width="1.2" x1="89.6" x2="89.6" y1="165.68615384615381" y2="199.68615384615381"></line><g><polygon fill="black" points="89.6,200.8461538461538 176.50224015035744,200.8461538461538 176.50224015035744,195.8461538461538 89.6,195.8461538461538" stroke="black" stroke-width="0"></polygon></g><g><polygon fill="black" points="85.6,219.0061538461538 587.7469096443492,219.0061538461538 587.7469096443492,217.4061538461538 85.6,217.4061538461538" stroke="black" stroke-width="0"></polygon><line fill="black" stroke="black" stroke-width="1.6" x1="86.1" x2="86.1" y1="217.4061538461538" y2="211.0061538461538"></line><line fill="black" stroke="black" stroke-width="1.6" x1="587.2469096443492" x2="587.2469096443492" y1="217.4061538461538" y2="211.0061538461538"></line><g><polygon fill="white" points="324.7534548221746,211.9061538461538 324.7534548221746,226.58615384615382 348.59345482217464,226.58615384615382 348.59345482217464,211.9061538461538" stroke="white" stroke-width="0"></polygon><path d="M334.153 226.186C333.353 226.186 332.713 225.866 332.713 225.466C332.713 225.226 332.913 225.146 333.233 224.986C333.673 224.786 334.233 224.306 334.233 223.266C334.233 222.306 333.553 221.826 332.713 221.826C331.593 221.826 330.753 222.826 330.753 224.146C330.753 225.746 332.033 227.226 334.873 227.226C338.273 227.226 341.073 225.186 341.073 222.026C341.073 221.026 340.553 220.066 339.513 219.546C339.233 219.426 339.073 219.386 339.073 219.186C339.073 218.986 339.233 218.986 339.553 218.826C341.233 218.146 342.593 216.866 342.593 215.266C342.593 213.186 340.593 211.906 338.153 211.906C335.633 211.906 333.553 213.226 333.473 215.386C333.433 216.426 334.073 217.106 334.993 217.106C335.993 217.106 336.793 216.306 336.793 215.226C336.793 214.786 336.633 214.466 336.433 214.226C336.153 213.986 335.953 213.946 335.953 213.706C335.953 213.426 336.433 213.146 337.273 213.146C338.833 213.146 339.353 214.106 339.353 214.986C339.353 217.106 337.993 218.626 335.673 218.626L335.233 218.626C334.713 218.626 334.433 218.866 334.433 219.226C334.433 219.586 334.713 219.826 335.233 219.826L335.633 219.826C337.113 219.826 337.833 220.706 337.833 221.986C337.833 223.746 336.593 226.186 334.153 226.186Z"></path></g></g></g><g><g><path d="M180.262 169.486C184.262 169.486 189.182 165.766 189.182 161.966C189.182 159.686 187.382 158.206 184.782 158.206C179.862 158.206 175.902 161.846 175.902 165.726C175.902 168.086 177.822 169.486 180.262 169.486Z"></path></g><line stroke="#000000" stroke-width="1.2" x1="176.50224015035744" x2="176.50224015035744" y1="165.68615384615381" y2="199.68615384615381"></line></g><g><g><path d="M267.164 169.486C271.164 169.486 276.084 165.766 276.084 161.966C276.084 159.686 274.284 158.206 271.684 158.206C266.764 158.206 262.804 161.846 262.804 165.726C262.804 168.086 264.724 169.486 267.164 169.486Z"></path></g><line stroke="#000000" stroke-width="1.2" x1="263.4044803007149" x2="263.4044803007149" y1="165.68615384615381" y2="199.68615384615381"></line><g><polygon fill="black" points="263.4044803007149,200.8461538461538 310.09251813937027,200.8461538461538 310.09251813937027,195.8461538461538 263.4044803007149,195.8461538461538" stroke="black" stroke-width="0"></polygon><polygon fill="black" points="310.09251813937027,200.8461538461538 356.78055597802563,200.8461538461538 356.78055597802563,195.8461538461538 310.09251813937027,195.8461538461538" stroke="black" stroke-width="0"></polygon><polygon fill="black" points="356.78055597802563,200.8461538461538 403.468593816681,200.8461538461538 403.468593816681,195.8461538461538 356.78055597802563,195.8461538461538" stroke="black" stroke-width="0"></polygon><polygon fill="black" points="403.468593816681,200.8461538461538 450.15663165533635,200.8461538461538 450.15663165533635,195.8461538461538 403.468593816681,195.8461538461538" stroke="black" stroke-width="0"></polygon><g><polygon fill="white" points="344.44055597802566,206.02615384615385 344.44055597802566,220.62615384615384 369.1205559780256,220.62615384615384 369.1205559780256,206.02615384615385" stroke="white" stroke-width="0"></polygon><path d="M362.761 206.026C362.521 206.026 362.321 206.146 361.761 206.306C360.961 206.546 359.961 206.666 358.801 206.666C357.681 206.666 356.881 206.506 356.401 206.346C355.841 206.186 355.601 206.146 355.321 206.146C354.881 206.146 354.601 206.346 354.441 206.826L352.241 213.266C352.121 213.666 352.081 213.786 352.081 214.026C352.081 214.386 352.361 214.626 352.721 214.626C353.001 214.626 353.201 214.506 353.481 214.226C353.841 213.866 354.641 213.026 355.881 213.026C357.241 213.026 357.721 213.906 357.721 215.066C357.721 216.986 356.441 220.226 353.841 220.226C353.041 220.226 352.401 219.906 352.401 219.506C352.401 219.266 352.601 219.186 352.921 219.026C353.361 218.826 353.921 218.346 353.921 217.306C353.921 216.346 353.201 215.866 352.361 215.866C351.281 215.866 350.441 216.866 350.441 218.186C350.441 219.786 351.721 221.266 354.561 221.266C358.241 221.266 360.961 218.746 360.961 214.986C360.961 212.666 359.361 211.706 356.761 211.706C355.961 211.706 355.401 211.826 354.881 211.986C354.281 212.146 354.201 211.906 354.321 211.506L354.921 209.706C355.081 209.306 355.241 209.306 355.641 209.386C356.081 209.426 356.681 209.506 357.201 209.506C359.521 209.506 361.361 208.426 362.601 207.266C362.961 206.906 363.121 206.666 363.121 206.386C363.121 206.186 362.961 206.026 362.761 206.026Z"></path></g></g></g><g><g><path d="M313.853 169.486C317.853 169.486 322.773 165.766 322.773 161.966C322.773 159.686 320.973 158.206 318.373 158.206C313.453 158.206 309.493 161.846 309.493 165.726C309.493 168.086 311.413 169.486 313.853 169.486Z"></path></g><line stroke="#000000" stroke-width="1.2" x1="310.09251813937027" x2="310.09251813937027" y1="165.68615384615381" y2="199.68615384615381"></line></g><g><g><path d="M360.541 169.486C364.541 169.486 369.461 165.766 369.461 161.966C369.461 159.686 367.661 158.206 365.061 158.206C360.141 158.206 356.181 161.846 356.181 165.726C356.181 168.086 358.101 169.486 360.541 169.486Z"></path></g><line stroke="#000000" stroke-width="1.2" x1="356.78055597802563" x2="356.78055597802563" y1="165.68615384615381" y2="199.68615384615381"></line></g><g><g><path d="M407.229 169.486C411.229 169.486 416.149 165.766 416.149 161.966C416.149 159.686 414.349 158.206 411.749 158.206C406.829 158.206 402.869 161.846 402.869 165.726C402.869 168.086 404.789 169.486 407.229 169.486Z"></path></g><line stroke="#000000" stroke-width="1.2" x1="403.468593816681" x2="403.468593816681" y1="165.68615384615381" y2="199.68615384615381"></line></g><g><g><path d="M453.917 169.486C457.917 169.486 462.837 165.766 462.837 161.966C462.837 159.686 461.037 158.206 458.437 158.206C453.517 158.206 449.557 161.846 449.557 165.726C449.557 168.086 451.477 169.486 453.917 169.486Z"></path></g><line stroke="#000000" stroke-width="1.2" x1="450.15663165533635" x2="450.15663165533635" y1="165.68615384615381" y2="199.68615384615381"></line></g><g><g><path d="M500.605 169.486C504.605 169.486 509.525 165.766 509.525 161.966C509.525 159.686 507.725 158.206 505.125 158.206C500.205 158.206 496.245 161.846 496.245 165.726C496.245 168.086 498.165 169.486 500.605 169.486Z"></path></g><line stroke="#000000" stroke-width="1.2" x1="496.8446694939917" x2="496.8446694939917" y1="165.68615384615381" y2="199.68615384615381"></line><g><polygon fill="black" points="496.8446694939917,200.8461538461538 583.7469096443492,200.8461538461538 583.7469096443492,195.8461538461538 496.8446694939917,195.8461538461538" stroke="black" stroke-width="0"></polygon></g></g><g><g><path d="M587.507 169.486C591.507 169.486 596.427 165.766 596.427 161.966C596.427 159.686 594.627 158.206 592.027 158.206C587.107 158.206 583.147 161.846 583.147 165.726C583.147 168.086 585.067 169.486 587.507 169.486Z"></path></g><line stroke="#000000" stroke-width="1.2" x1="583.7469096443492" x2="583.7469096443492" y1="165.68615384615381" y2="199.68615384615381"></line></g></g></svg>