<?xml version="1.0" encoding="UTF-8" standalone="no"?><svg xmlns="http://www.w3.org/2000/svg" class="" height="279.4mm" viewBox="0 0 1328.6153846153845 1719.3846153846152" width="215.9mm"><g><g><g><line stroke="#6A6A6A" stroke-width="1.3" x1="93.84615384615385" x2="942.4768659270443" y1="183.8461538461538" y2="183.8461538461538"></line><line stroke="#6A6A6A" stroke-width="1.3" x1="93.84615384615385" x2="942.4768659270443" y1="173.8461538461538" y2="173.8461538461538"></line><line stroke="#6A6A6A" stroke-width="1.3" x1="93.84615384615385" x2="942.4768659270443" y1="163.8461538461538" y2="163.8461538461538"></line><line stroke="#6A6A6A" stroke-width="1.3" x1="93.84615384615385" x2="942.4768659270443" y1="153.8461538461538" y2="153.8461538461538"></line><line stroke="#6A6A6A" stroke-width="1.3" x1="93.84615384615385" x2="942.4768659270443" y1="143.8461538461538" y2="143.8461538461538"></line></g><g><path d="M119.046 129.926C118.486 129.926 117.246 130.966 116.446 131.846C113.486 135.126 112.526 140.126 112.526 144.286C112.526 146.606 112.806 149.206 113.086 150.846C113.166 151.326 113.206 151.406 112.726 151.806C110.166 153.926 107.406 156.366 105.326 158.926C102.566 162.366 100.846 166.086 100.846 170.366C100.846 177.326 105.606 183.926 115.406 183.926C116.326 183.926 117.366 183.846 118.166 183.686C118.606 183.606 118.686 183.566 118.766 184.046C119.246 186.726 119.846 190.206 119.846 192.086C119.846 198.006 115.846 198.726 113.486 198.726C111.326 198.726 110.286 198.086 110.286 197.566C110.286 197.126 110.646 197.166 111.566 196.886C112.806 196.526 114.246 195.446 114.246 193.126C114.246 190.926 112.846 189.046 110.406 189.046C107.726 189.046 106.126 191.166 106.126 193.646C106.126 196.246 107.686 200.166 113.726 200.166C116.406 200.166 121.606 198.966 121.606 192.166C121.606 189.886 120.886 186.086 120.446 183.606C120.366 183.126 120.406 183.166 120.966 182.926C125.006 181.326 127.686 177.926 127.686 173.406C127.686 168.286 123.926 163.766 118.046 163.766C116.926 163.766 117.046 163.966 116.886 163.046L115.886 157.246C115.806 156.766 115.886 156.726 116.126 156.486C116.766 155.886 117.606 155.046 118.366 154.206C121.726 150.526 123.726 145.766 123.726 141.246C123.726 137.766 122.766 134.326 121.126 131.926C120.526 131.046 119.486 129.926 119.046 129.926ZM113.886 158.086C114.286 157.766 114.366 157.806 114.446 158.246L115.286 163.366C115.406 164.126 115.406 164.086 114.686 164.326C111.166 165.526 108.886 168.686 108.886 172.086C108.886 175.686 110.766 178.246 113.486 179.166C113.806 179.286 114.286 179.406 114.566 179.406C114.886 179.406 115.046 179.206 115.046 178.966C115.046 178.686 114.726 178.566 114.446 178.446C112.766 177.726 111.566 176.006 111.566 174.166C111.566 171.886 113.126 170.166 115.566 169.486C116.206 169.326 116.286 169.366 116.366 169.806L118.366 181.726C118.446 182.166 118.406 182.166 117.806 182.286C117.166 182.406 116.366 182.486 115.566 182.486C108.566 182.486 104.046 178.606 104.046 173.046C104.046 170.686 104.446 167.526 107.766 163.766C110.166 161.086 112.006 159.606 113.886 158.086ZM118.486 169.166C121.726 169.446 124.406 172.166 124.406 175.686C124.406 178.206 122.886 180.246 120.646 181.366C120.166 181.606 120.086 181.606 120.006 181.126L118.046 169.726C117.966 169.246 118.006 169.126 118.486 169.166ZM119.646 136.126C120.966 136.126 122.046 137.206 122.046 139.406C122.046 142.166 120.726 144.726 117.606 147.846C116.966 148.486 116.006 149.406 115.086 150.206C114.806 150.446 114.646 150.406 114.566 149.886C114.406 148.846 114.326 147.486 114.326 146.206C114.326 139.966 117.206 136.126 119.646 136.126Z"></path></g><g></g><path d="M151.666 153.806C150.466 153.806 149.066 154.126 147.986 154.606C144.426 156.166 142.546 160.446 142.546 164.246C142.546 164.606 142.546 164.966 142.586 165.326C142.786 167.486 143.826 169.526 145.146 171.126C146.666 172.966 148.866 173.806 151.266 173.806C158.266 173.806 159.306 167.446 159.306 166.286C159.306 165.406 158.866 165.406 158.706 165.406C158.386 165.406 158.106 165.446 158.106 166.126C158.106 171.286 153.706 172.486 152.426 172.486C149.186 172.486 147.466 169.326 147.466 162.726C147.466 156.126 150.506 154.766 152.666 154.766C154.746 154.766 155.586 155.726 155.586 156.126C155.586 156.486 155.466 157.006 154.866 157.006C153.266 157.006 152.346 158.726 152.346 159.966C152.346 162.246 154.306 162.966 155.426 162.966C155.426 162.966 158.466 162.846 158.466 159.526C158.466 154.286 152.426 153.806 151.666 153.806Z"></path><g><path d="M80.646 264.426C81.806 263.706 83.126 260.866 83.126 258.506C83.126 258.306 83.126 258.066 83.086 257.866C82.806 255.466 81.606 251.746 81.606 249.586C81.606 247.506 82.526 245.506 82.726 245.146C82.886 244.986 82.926 244.866 82.926 244.746C82.926 244.666 82.886 244.586 82.846 244.586C82.806 244.546 82.766 244.466 82.686 244.466C82.606 244.466 82.526 244.546 82.366 244.746C81.486 245.826 80.406 248.146 80.406 252.146C80.406 256.106 81.806 257.706 81.806 260.226C81.806 262.106 81.046 263.146 79.926 264.426C80.646 265.226 81.806 265.866 81.806 268.466C81.806 271.266 80.406 273.746 80.406 276.666C80.406 280.666 81.486 282.986 82.366 284.106C82.526 284.306 82.606 284.346 82.686 284.346C82.766 284.346 82.806 284.306 82.846 284.266C82.886 284.226 82.926 284.186 82.926 284.106C82.926 283.986 82.886 283.866 82.726 283.666C82.526 283.346 81.606 281.346 81.606 279.226C81.606 277.106 82.806 273.346 83.086 270.986C83.126 270.786 83.126 270.586 83.126 270.346C83.126 267.986 81.806 265.146 80.646 264.426Z"></path><line stroke="#000000" stroke-width="1.6" x1="93.84615384615385" x2="93.84615384615385" y1="143.3461538461538" y2="284.3461538461538"></line></g></g><path d="M228.286 205.646C226.006 205.646 224.366 206.566 223.126 207.806C221.806 209.166 221.206 210.126 220.606 211.566C220.246 212.486 220.126 212.526 219.246 212.526L216.846 212.526C215.686 212.526 214.886 212.526 214.886 212.526C214.686 212.526 213.766 212.486 213.766 212.126C213.766 211.886 213.886 211.446 214.126 210.806C214.886 208.766 215.526 207.046 217.966 206.926L218.126 206.926C218.286 206.926 218.446 206.966 218.486 207.166C218.486 207.446 218.486 207.566 218.366 207.646C218.246 207.766 218.046 207.806 217.926 207.846C217.566 208.006 217.326 208.286 217.166 208.566C216.926 208.886 216.806 209.286 216.806 209.686C216.806 210.846 217.406 211.166 218.286 211.166C219.126 211.166 220.446 209.926 220.526 208.446C220.526 206.886 219.526 205.726 217.526 205.646L217.286 205.646C215.006 205.646 213.366 206.566 212.126 207.806C210.806 209.166 210.206 210.126 209.606 211.566C209.246 212.486 209.126 212.526 208.246 212.526C205.886 212.526 203.966 212.526 203.966 212.526C203.766 212.526 202.846 212.486 202.846 212.126C202.846 211.886 202.966 211.446 203.206 210.806C203.966 208.766 204.606 207.046 207.046 206.926L207.206 206.926C207.366 206.926 207.526 206.966 207.566 207.166C207.566 207.446 207.566 207.566 207.446 207.646C207.326 207.766 207.126 207.806 207.006 207.846C206.646 208.006 206.406 208.286 206.246 208.566C206.006 208.886 205.886 209.286 205.886 209.686C205.886 210.846 206.486 211.166 207.366 211.166C208.206 211.166 209.526 209.926 209.606 208.446C209.606 206.886 208.606 205.726 206.606 205.646L206.366 205.646C204.086 205.646 202.446 206.566 201.206 207.806C199.886 209.166 199.286 210.126 198.686 211.566C198.326 212.486 198.206 212.526 197.326 212.526L193.086 212.526C192.206 212.526 191.846 212.526 191.846 212.126C191.846 211.886 191.966 211.446 192.206 210.806C192.966 208.766 193.606 207.046 196.046 206.926L196.206 206.926C196.366 206.926 196.526 206.966 196.566 207.166C196.566 207.446 196.566 207.566 196.446 207.646C196.326 207.766 196.126 207.806 196.006 207.846C195.646 208.006 195.406 208.286 195.246 208.566C195.006 208.886 194.886 209.286 194.886 209.686C194.886 210.846 195.486 211.166 196.366 211.166C197.206 211.166 198.526 209.926 198.606 208.446C198.606 206.886 197.606 205.726 195.606 205.646L195.366 205.646C193.086 205.646 191.446 206.566 190.206 207.806C188.886 209.166 188.286 210.126 187.686 211.566C187.326 212.486 187.206 212.526 186.326 212.526L184.446 212.526C183.446 212.526 183.366 212.646 183.366 213.366C183.366 214.286 183.366 214.286 184.086 214.286C185.446 214.286 185.446 214.286 185.446 214.286C185.926 214.286 186.126 214.286 186.126 214.646C186.126 214.886 186.006 215.366 185.766 216.246C185.686 216.566 183.286 225.446 183.046 226.086C182.686 227.006 182.046 227.926 181.286 228.566C181.086 228.726 180.886 228.886 180.606 228.966C180.446 229.046 180.286 229.046 180.166 229.046C179.806 229.046 179.606 228.926 179.566 228.926C180.126 228.806 180.486 228.446 180.606 228.366C180.846 228.086 181.046 227.646 181.046 227.246C181.046 226.646 180.806 225.926 180.286 225.646C180.006 225.486 179.646 225.366 179.286 225.366C179.086 225.366 178.926 225.406 178.806 225.446C178.446 225.566 178.046 225.806 177.806 226.086C177.406 226.566 177.166 227.246 177.166 227.886C177.166 228.606 177.406 229.286 177.886 229.766C178.126 230.006 178.486 230.246 178.766 230.366C179.166 230.486 179.646 230.566 180.086 230.566C181.246 230.566 182.406 230.086 183.366 229.446C184.606 228.646 185.526 227.526 186.366 226.206C186.966 225.286 187.366 224.286 187.806 223.286L187.966 222.966C188.406 221.966 188.766 220.926 189.126 219.926L189.966 217.606C190.246 216.846 190.526 216.006 190.886 215.286C191.406 214.286 191.406 214.286 192.766 214.286C196.446 214.286 196.446 214.286 196.446 214.286C196.926 214.286 197.126 214.286 197.126 214.646C197.126 214.886 197.006 215.366 196.766 216.246C196.686 216.566 194.286 225.446 194.046 226.086C193.686 227.006 193.046 227.926 192.286 228.566C192.086 228.726 191.886 228.886 191.606 228.966C191.446 229.046 191.286 229.046 191.166 229.046C190.806 229.046 190.606 228.926 190.566 228.926C191.126 228.806 191.486 228.446 191.606 228.366C191.846 228.086 192.046 227.646 192.046 227.246C192.046 226.646 191.806 225.926 191.286 225.646C191.006 225.486 190.646 225.366 190.286 225.366C190.086 225.366 189.926 225.406 189.806 225.446C189.446 225.566 189.046 225.806 188.806 226.086C188.406 226.566 188.166 227.246 188.166 227.886C188.166 228.606 188.406 229.286 188.886 229.766C189.126 230.006 189.486 230.246 189.766 230.366C190.166 230.486 190.646 230.566 191.086 230.566C192.246 230.566 193.406 230.086 194.366 229.446C195.606 228.646 196.526 227.526 197.366 226.206C197.966 225.286 198.366 224.286 198.806 223.286L198.966 222.966C199.406 221.966 199.766 220.926 200.126 219.926L200.966 217.606C201.246 216.846 201.526 216.006 201.886 215.286C202.406 214.286 202.406 214.286 203.766 214.286C207.366 214.286 207.366 214.286 207.366 214.286C207.846 214.286 208.046 214.286 208.046 214.646C208.046 214.886 207.926 215.366 207.686 216.246C207.606 216.566 205.206 225.446 204.966 226.086C204.606 227.006 203.966 227.926 203.206 228.566C203.006 228.726 202.806 228.886 202.526 228.966C202.366 229.046 202.206 229.046 202.086 229.046C201.726 229.046 201.526 228.926 201.486 228.926C202.046 228.806 202.406 228.446 202.526 228.366C202.766 228.086 202.966 227.646 202.966 227.246C202.966 226.646 202.726 225.926 202.206 225.646C201.926 225.486 201.566 225.366 201.206 225.366C201.006 225.366 200.846 225.406 200.726 225.446C200.366 225.566 199.966 225.806 199.726 226.086C199.326 226.566 199.086 227.246 199.086 227.886C199.086 228.606 199.326 229.286 199.806 229.766C200.046 230.006 200.406 230.246 200.686 230.366C201.086 230.486 201.566 230.566 202.006 230.566C203.166 230.566 204.326 230.086 205.286 229.446C206.526 228.646 207.446 227.526 208.286 226.206C208.886 225.286 209.286 224.286 209.726 223.286L209.886 222.966C210.326 221.966 210.686 220.926 211.046 219.926L211.886 217.606C212.166 216.846 212.446 216.006 212.806 215.286C213.326 214.286 213.326 214.286 214.686 214.286C218.366 214.286 218.366 214.286 218.366 214.286C218.846 214.286 219.046 214.286 219.046 214.646C219.046 214.886 218.926 215.366 218.686 216.246C218.606 216.566 216.206 225.446 215.966 226.086C215.606 227.006 214.966 227.926 214.206 228.566C214.006 228.726 213.806 228.886 213.526 228.966C213.366 229.046 213.206 229.046 213.086 229.046C212.726 229.046 212.526 228.926 212.486 228.926C213.046 228.806 213.406 228.446 213.526 228.366C213.766 228.086 213.966 227.646 213.966 227.246C213.966 226.646 213.726 225.926 213.206 225.646C212.926 225.486 212.566 225.366 212.206 225.366C212.006 225.366 211.846 225.406 211.726 225.446C211.366 225.566 210.966 225.806 210.726 226.086C210.326 226.566 210.086 227.246 210.086 227.886C210.086 228.606 210.326 229.286 210.806 229.766C211.046 230.006 211.406 230.246 211.686 230.366C212.086 230.486 212.566 230.566 213.006 230.566C214.166 230.566 215.326 230.086 216.286 229.446C217.526 228.646 218.446 227.526 219.286 226.206C219.886 225.286 220.286 224.286 220.726 223.286L220.886 222.966C221.326 221.966 221.686 220.926 222.046 219.926L222.886 217.606C223.166 216.846 223.446 216.006 223.806 215.286C224.326 214.286 224.326 214.286 225.686 214.286C227.326 214.286 227.326 214.286 227.326 214.286C228.086 214.286 228.086 214.246 228.086 213.366C228.086 212.526 228.086 212.526 227.366 212.526C226.006 212.526 226.006 212.526 226.006 212.526C225.126 212.526 224.766 212.526 224.766 212.126C224.766 211.886 224.886 211.446 225.126 210.806C225.886 208.766 226.526 207.046 228.966 206.926L229.126 206.926C229.286 206.926 229.446 206.966 229.486 207.166C229.486 207.446 229.486 207.566 229.366 207.646C229.246 207.766 229.046 207.806 228.926 207.846C228.566 208.006 228.326 208.286 228.166 208.566C227.926 208.886 227.806 209.286 227.806 209.686C227.806 210.846 228.406 211.166 229.286 211.166C230.126 211.166 231.446 209.926 231.526 208.446C231.526 206.886 230.526 205.726 228.526 205.646Z"></path><path d="M309.039 217.806C309.039 217.806 308.839 218.046 308.839 218.286C308.839 218.446 308.919 218.606 309.119 218.726C309.159 218.766 309.239 218.766 309.279 218.766C309.639 218.766 309.839 218.286 309.839 218.286C309.839 218.286 311.519 215.166 312.759 214.446C312.959 214.326 313.159 214.326 313.279 214.326C313.599 214.326 313.719 214.646 313.719 215.046C313.719 215.406 313.599 215.846 313.559 215.966C313.559 215.966 308.559 227.566 308.439 227.766C308.319 228.086 308.039 228.166 307.719 228.166L305.919 228.166C305.519 228.166 305.279 228.406 305.279 228.686C305.279 228.926 305.519 229.206 305.919 229.206L314.199 229.206C314.639 229.206 314.799 228.926 314.799 228.646C314.799 228.406 314.639 228.166 314.279 228.166L312.999 228.166C312.719 228.166 312.519 228.086 312.519 227.846C312.519 227.686 312.599 227.526 312.719 227.246C312.999 226.526 314.319 223.286 314.319 223.286C314.479 222.806 314.599 222.646 314.759 222.646C314.919 222.646 315.119 222.846 315.399 223.126C316.199 223.726 317.399 223.806 317.919 223.806L318.079 223.806C321.039 223.806 323.159 220.526 323.639 219.566C323.919 218.966 324.359 217.766 324.359 216.446C324.359 215.486 324.119 214.446 323.439 213.566C322.959 212.886 322.279 212.646 321.519 212.646C319.839 212.646 317.879 213.846 317.279 214.566C317.159 214.766 317.039 214.806 316.959 214.806C316.799 214.806 316.719 214.646 316.559 214.286L316.479 214.166C315.999 213.206 315.319 212.766 314.319 212.766C314.119 212.766 313.879 212.766 313.679 212.806C311.959 213.046 309.679 216.686 309.039 217.806ZM320.279 214.166C320.639 214.326 320.799 214.846 320.799 215.526C320.799 216.446 320.479 217.726 319.879 219.006C318.959 221.046 317.559 222.486 316.719 222.486C316.599 222.486 316.519 222.486 316.439 222.446C316.079 222.246 315.879 221.766 315.879 221.086C315.879 220.166 316.199 218.886 316.799 217.566C317.759 215.526 319.119 214.126 319.959 214.126C320.079 214.126 320.159 214.126 320.279 214.166Z"></path><g><line stroke="black" stroke-width="1.6" x1="351.63724901654166" x2="351.63724901654166" y1="143.3461538461538" y2="284.3461538461538"></line></g><g><g><line stroke="#6A6A6A" stroke-width="1.3" x1="93.84615384615385" x2="942.4768659270443" y1="283.8461538461538" y2="283.8461538461538"></line><line stroke="#6A6A6A" stroke-width="1.3" x1="93.84615384615385" x2="942.4768659270443" y1="273.8461538461538" y2="273.8461538461538"></line><line stroke="#6A6A6A" stroke-width="1.3" x1="93.84615384615385" x2="942.4768659270443" y1="263.8461538461538" y2="263.8461538461538"></line><line stroke="#6A6A6A" stroke-width="1.3" x1="93.84615384615385" x2="942.4768659270443" y1="253.8461538461538" y2="253.8461538461538"></line><line stroke="#6A6A6A" stroke-width="1.3" x1="93.84615384615385" x2="942.4768659270443" y1="243.8461538461538" y2="243.8461538461538"></line></g><g><path d="M110.926 243.366C103.966 243.366 100.846 248.446 100.846 252.286C100.846 255.486 102.526 258.246 105.766 258.246C108.286 258.246 110.006 256.486 110.006 254.006C110.006 251.446 108.126 249.846 106.166 249.846C105.086 249.846 104.686 250.126 104.166 250.126C103.646 250.126 103.526 249.806 103.526 249.406C103.526 247.806 105.926 244.886 110.006 244.886C114.246 244.886 116.086 249.046 116.086 255.326C116.086 259.446 115.206 264.246 112.726 268.086C110.326 271.806 106.206 275.206 101.246 278.046C100.886 278.246 100.646 278.446 100.646 278.766C100.646 279.006 100.806 279.246 101.166 279.246C101.366 279.246 101.606 279.166 101.846 279.046C107.166 276.446 112.286 273.406 116.526 268.846C120.006 265.086 122.086 260.206 122.086 254.966C122.086 248.006 117.846 243.366 110.926 243.366ZM126.046 256.686C124.806 256.686 123.886 257.606 123.886 258.846C123.886 260.086 124.806 261.006 126.046 261.006C127.286 261.006 128.206 260.086 128.206 258.846C128.206 257.606 127.286 256.686 126.046 256.686ZM126.006 246.646C124.766 246.646 123.806 247.606 123.806 248.846C123.806 250.086 124.766 251.046 126.006 251.046C127.246 251.046 128.206 250.086 128.206 248.846C128.206 247.606 127.246 246.646 126.006 246.646Z"></path></g><g></g><path d="M151.666 253.806C150.466 253.806 149.066 254.126 147.986 254.606C144.426 256.166 142.546 260.446 142.546 264.246C142.546 264.606 142.546 264.966 142.586 265.326C142.786 267.486 143.826 269.526 145.146 271.126C146.666 272.966 148.866 273.806 151.266 273.806C158.266 273.806 159.306 267.446 159.306 266.286C159.306 265.406 158.866 265.406 158.706 265.406C158.386 265.406 158.106 265.446 158.106 266.126C158.106 271.286 153.706 272.486 152.426 272.486C149.186 272.486 147.466 269.326 147.466 262.726C147.466 256.126 150.506 254.766 152.666 254.766C154.746 254.766 155.586 255.726 155.586 256.126C155.586 256.486 155.466 257.006 154.866 257.006C153.266 257.006 152.346 258.726 152.346 259.966C152.346 262.246 154.306 262.966 155.426 262.966C155.426 262.966 158.466 262.846 158.466 259.526C158.466 254.286 152.426 253.806 151.666 253.806Z"></path></g><g><line stroke="black" stroke-width="1.6" x1="351.63724901654166" x2="351.63724901654166" y1="143.3461538461538" y2="284.3461538461538"></line></g><g><g><path d="M187.206 164.486C191.206 164.486 196.126 160.766 196.126 156.966C196.126 154.686 194.326 153.206 191.726 153.206C186.806 153.206 182.846 156.846 182.846 160.726C182.846 163.086 184.766 164.486 187.206 164.486Z"></path></g><line stroke="#000000" stroke-width="1.2" x1="183.44615384615386" x2="183.44615384615386" y1="160.68615384615381" y2="198.68615384615381"></line></g><g><g><path d="M229.204 169.486C233.204 169.486 238.124 165.766 238.124 161.966C238.124 159.686 236.324 158.206 233.724 158.206C228.804 158.206 224.844 161.846 224.844 165.726C224.844 168.086 226.764 169.486 229.204 169.486Z"></path></g><line stroke="#000000" stroke-width="1.2" x1="225.4439276387508" x2="225.4439276387508" y1="165.68615384615381" y2="200.68615384615381"></line></g><g><g><path d="M271.202 174.486C275.202 174.486 280.122 170.766 280.122 166.966C280.122 164.686 278.322 163.206 275.722 163.206C270.802 163.206 266.842 166.846 266.842 170.726C266.842 173.086 268.762 174.486 271.202 174.486Z"></path></g><line stroke="#000000" stroke-width="1.2" x1="279.52170143134776" x2="279.52170143134776" y1="167.0061538461538" y2="129.0061538461538"></line></g><g><g><path d="M313.199 179.486C317.199 179.486 322.119 175.766 322.119 171.966C322.119 169.686 320.319 168.206 317.719 168.206C312.799 168.206 308.839 171.846 308.839 175.726C308.839 178.086 310.759 179.486 313.199 179.486Z"></path></g><line stroke="#000000" stroke-width="1.2" x1="321.5194752239447" x2="321.5194752239447" y1="172.0061538461538" y2="137.0061538461538"></line></g><g><g><path d="M187.206 284.486C191.206 284.486 196.126 280.766 196.126 276.966C196.126 274.686 194.326 273.206 191.726 273.206C186.806 273.206 182.846 276.846 182.846 280.726C182.846 283.086 184.766 284.486 187.206 284.486Z"></path></g><line stroke="#000000" stroke-width="1.2" x1="195.52615384615387" x2="195.52615384615387" y1="277.00615384615384" y2="239.00615384615384"></line></g><g><g><path d="M229.204 279.486C233.204 279.486 238.124 275.766 238.124 271.966C238.124 269.686 236.324 268.206 233.724 268.206C228.804 268.206 224.844 271.846 224.844 275.726C224.844 278.086 226.764 279.486 229.204 279.486Z"></path></g><line stroke="#000000" stroke-width="1.2" x1="237.52392763875082" x2="237.52392763875082" y1="272.00615384615384" y2="237.00615384615384"></line></g><g><g><path d="M271.202 274.486C275.202 274.486 280.122 270.766 280.122 266.966C280.122 264.686 278.322 263.206 275.722 263.206C270.802 263.206 266.842 266.846 266.842 270.726C266.842 273.086 268.762 274.486 271.202 274.486Z"></path></g><line stroke="#000000" stroke-width="1.2" x1="279.52170143134776" x2="279.52170143134776" y1="267.00615384615384" y2="229.00615384615384"></line></g><g><g><path d="M313.199 269.486C317.199 269.486 322.119 265.766 322.119 261.966C322.119 259.686 320.319 258.206 317.719 258.206C312.799 258.206 308.839 261.846 308.839 265.726C308.839 268.086 310.759 269.486 313.199 269.486Z"></path></g><line stroke="#000000" stroke-width="1.2" x1="321.5194752239447" x2="321.5194752239447" y1="262.00615384615384" y2="227.00615384615384"></line></g></g><g><g><g><path d="M383.917 139.126C384.197 139.006 384.397 138.686 384.397 138.446L384.397 135.606C384.397 135.406 384.277 135.286 384.117 135.286C384.037 135.286 383.997 135.286 383.917 135.326C383.917 135.326 383.117 135.646 382.917 135.686C382.637 135.686 382.357 135.486 382.357 135.166C382.357 134.766 382.357 130.286 382.357 130.286C382.357 130.046 382.117 129.846 381.797 129.846C381.397 129.846 381.157 130.046 381.157 130.286C381.157 130.286 381.157 135.086 381.157 135.486C381.117 135.886 380.997 136.406 380.637 136.646C380.157 136.926 378.797 137.486 378.117 137.646C377.757 137.646 377.637 137.166 377.637 136.846C377.637 136.446 377.637 132.046 377.637 132.046C377.637 131.806 377.357 131.606 377.077 131.606C376.677 131.606 376.437 131.806 376.437 132.046C376.437 132.046 376.437 134.206 376.437 135.806L376.437 137.446C376.437 138.006 376.197 138.406 375.957 138.526C375.717 138.646 374.917 138.966 374.917 138.966C374.637 139.046 374.437 139.366 374.437 139.606L374.437 142.446C374.437 142.686 374.557 142.806 374.757 142.806C374.797 142.806 374.877 142.766 374.917 142.766C374.917 142.766 375.517 142.526 375.797 142.366C375.837 142.366 375.877 142.326 375.917 142.326C376.197 142.326 376.437 142.726 376.437 143.046L376.437 147.006C376.437 147.446 376.237 147.806 375.997 147.926C375.757 148.006 374.917 148.366 374.917 148.366C374.637 148.446 374.437 148.766 374.437 149.006L374.437 151.846C374.437 152.086 374.557 152.206 374.757 152.206C374.797 152.206 374.877 152.166 374.917 152.166C374.917 152.166 375.477 151.926 375.837 151.806C375.877 151.766 375.917 151.766 375.957 151.766C376.237 151.766 376.437 152.206 376.437 152.406C376.437 152.646 376.437 157.326 376.437 157.326C376.437 157.566 376.677 157.766 376.957 157.766C377.357 157.766 377.637 157.566 377.637 157.326C377.637 157.326 377.637 152.246 377.637 151.766C377.637 151.246 377.837 150.966 378.037 150.886L380.477 149.886C380.517 149.886 380.597 149.846 380.637 149.846C380.957 149.846 381.157 150.326 381.157 150.566C381.157 150.846 381.157 155.566 381.157 155.566C381.157 155.806 381.397 156.006 381.677 156.006C382.117 156.006 382.357 155.806 382.357 155.566C382.357 155.566 382.357 150.166 382.357 149.886C382.357 149.566 382.517 149.086 382.797 148.966C383.077 148.846 383.917 148.526 383.917 148.526C384.197 148.406 384.397 148.086 384.397 147.846L384.397 145.006C384.397 144.806 384.277 144.686 384.117 144.686C384.037 144.686 383.997 144.686 383.917 144.726C383.917 144.726 383.077 145.046 382.877 145.126C382.637 145.126 382.357 144.886 382.357 144.406L382.357 140.686C382.357 140.406 382.557 139.646 382.877 139.526C383.197 139.406 383.917 139.126 383.917 139.126ZM381.157 145.646C380.917 146.446 379.037 147.246 378.117 147.246C377.877 147.246 377.677 147.166 377.637 147.046C377.557 146.886 377.517 146.006 377.517 145.046C377.517 143.806 377.557 142.406 377.637 142.086C377.717 141.406 379.557 140.566 380.557 140.566C380.837 140.566 381.077 140.646 381.157 140.806C381.237 141.006 381.317 142.006 381.317 143.086C381.317 144.166 381.237 145.286 381.157 145.646Z"></path><path d="M394.917 154.126C395.197 154.006 395.397 153.686 395.397 153.446L395.397 150.606C395.397 150.406 395.277 150.286 395.117 150.286C395.037 150.286 394.997 150.286 394.917 150.326C394.917 150.326 394.117 150.646 393.917 150.686C393.637 150.686 393.357 150.486 393.357 150.166C393.357 149.766 393.357 145.286 393.357 145.286C393.357 145.046 393.117 144.846 392.797 144.846C392.397 144.846 392.157 145.046 392.157 145.286C392.157 145.286 392.157 150.086 392.157 150.486C392.117 150.886 391.997 151.406 391.637 151.646C391.157 151.926 389.797 152.486 389.117 152.646C388.757 152.646 388.637 152.166 388.637 151.846C388.637 151.446 388.637 147.046 388.637 147.046C388.637 146.806 388.357 146.606 388.077 146.606C387.677 146.606 387.437 146.806 387.437 147.046C387.437 147.046 387.437 149.206 387.437 150.806L387.437 152.446C387.437 153.006 387.197 153.406 386.957 153.526C386.717 153.646 385.917 153.966 385.917 153.966C385.637 154.046 385.437 154.366 385.437 154.606L385.437 157.446C385.437 157.686 385.557 157.806 385.757 157.806C385.797 157.806 385.877 157.766 385.917 157.766C385.917 157.766 386.517 157.526 386.797 157.366C386.837 157.366 386.877 157.326 386.917 157.326C387.197 157.326 387.437 157.726 387.437 158.046L387.437 162.006C387.437 162.446 387.237 162.806 386.997 162.926C386.757 163.006 385.917 163.366 385.917 163.366C385.637 163.446 385.437 163.766 385.437 164.006L385.437 166.846C385.437 167.086 385.557 167.206 385.757 167.206C385.797 167.206 385.877 167.166 385.917 167.166C385.917 167.166 386.477 166.926 386.837 166.806C386.877 166.766 386.917 166.766 386.957 166.766C387.237 166.766 387.437 167.206 387.437 167.406C387.437 167.646 387.437 172.326 387.437 172.326C387.437 172.566 387.677 172.766 387.957 172.766C388.357 172.766 388.637 172.566 388.637 172.326C388.637 172.326 388.637 167.246 388.637 166.766C388.637 166.246 388.837 165.966 389.037 165.886L391.477 164.886C391.517 164.886 391.597 164.846 391.637 164.846C391.957 164.846 392.157 165.326 392.157 165.566C392.157 165.846 392.157 170.566 392.157 170.566C392.157 170.806 392.397 171.006 392.677 171.006C393.117 171.006 393.357 170.806 393.357 170.566C393.357 170.566 393.357 165.166 393.357 164.886C393.357 164.566 393.517 164.086 393.797 163.966C394.077 163.846 394.917 163.526 394.917 163.526C395.197 163.406 395.397 163.086 395.397 162.846L395.397 160.006C395.397 159.806 395.277 159.686 395.117 159.686C395.037 159.686 394.997 159.686 394.917 159.726C394.917 159.726 394.077 160.046 393.877 160.126C393.637 160.126 393.357 159.886 393.357 159.406L393.357 155.686C393.357 155.406 393.557 154.646 393.877 154.526C394.197 154.406 394.917 154.126 394.917 154.126ZM392.157 160.646C391.917 161.446 390.037 162.246 389.117 162.246C388.877 162.246 388.677 162.166 388.637 162.046C388.557 161.886 388.517 161.006 388.517 160.046C388.517 158.806 388.557 157.406 388.637 157.086C388.717 156.406 390.557 155.566 391.557 155.566C391.837 155.566 392.077 155.646 392.157 155.806C392.237 156.006 392.317 157.006 392.317 158.086C392.317 159.166 392.237 160.286 392.157 160.646Z"></path></g></g><g><line stroke="black" stroke-width="1.6" x1="602.6883441869294" x2="602.6883441869294" y1="143.3461538461538" y2="284.3461538461538"></line></g><g><g><path d="M381.537 273.806C381.297 270.446 378.817 267.806 375.457 267.806L375.177 267.806C375.097 267.806 374.937 267.806 374.857 267.846C374.577 266.126 374.457 265.726 374.177 264.286C377.697 261.046 378.977 257.726 378.977 253.086C378.977 251.446 378.577 249.766 377.817 248.086C376.817 245.726 375.857 245.566 375.857 245.566C373.377 246.686 371.617 250.646 371.617 255.406C371.617 256.246 371.657 257.126 371.817 258.046L372.137 259.726C368.257 263.006 363.937 266.886 363.937 271.926C363.937 272.166 363.937 272.446 363.977 272.726C364.457 279.086 369.417 281.086 373.697 281.086C374.497 281.086 375.057 280.966 375.617 280.966L376.137 283.806C376.257 284.446 376.417 285.926 376.417 286.446C376.417 290.726 373.217 290.766 372.897 290.766L372.377 290.766C371.497 290.766 370.737 290.646 370.177 290.246C370.017 290.126 369.937 290.046 369.937 289.966C369.937 289.846 370.057 289.806 370.177 289.726C370.417 289.686 370.617 289.686 370.857 289.566C371.937 289.246 373.377 288.406 373.377 286.846C373.377 286.846 373.377 286.646 373.377 286.646C373.377 285.526 372.897 284.486 371.817 284.046C371.417 283.846 371.057 283.766 370.657 283.766C369.097 283.766 367.657 285.006 367.457 286.646C367.417 286.646 367.337 287.046 367.337 287.566C367.337 289.046 368.017 292.046 372.337 292.046C372.497 292.046 372.737 292.006 372.937 292.006C374.777 291.886 377.737 290.446 377.737 286.326C377.737 284.326 377.177 282.446 376.897 280.606C379.817 279.526 381.537 277.126 381.537 274.206ZM376.057 250.726C376.937 250.726 377.497 251.406 377.497 252.846C377.497 253.006 377.497 253.206 377.457 253.406C377.137 255.566 376.017 256.566 373.217 258.726C373.137 258.086 373.017 257.566 373.017 257.406C372.977 257.126 372.977 256.806 372.977 256.486C372.977 253.766 373.977 250.806 376.057 250.726ZM366.377 274.046C366.377 269.686 369.537 267.446 372.977 264.886L373.457 268.046C371.097 268.726 369.257 270.966 369.257 273.326C369.257 273.726 369.297 274.126 369.417 274.486C369.817 276.246 370.977 277.566 372.217 277.966C372.457 278.046 372.657 278.086 372.777 278.086C372.977 278.086 373.097 277.966 373.097 277.846C373.097 277.686 372.897 277.486 372.697 277.366C372.177 277.166 371.257 276.126 371.217 275.046L371.217 274.806C371.217 272.966 372.657 272.326 374.057 272.046L375.417 279.566C375.017 279.726 374.457 279.806 373.697 279.806C370.857 279.806 366.537 278.846 366.377 274.286ZM376.697 279.286C376.297 276.926 376.137 274.886 375.577 271.926C377.777 271.926 379.257 273.206 379.377 275.406L379.377 275.686C379.377 277.526 378.577 278.486 376.697 279.286Z"></path></g><g><path d="M400.617 239.126C400.897 239.006 401.097 238.686 401.097 238.446L401.097 235.606C401.097 235.406 400.977 235.286 400.817 235.286C400.737 235.286 400.697 235.286 400.617 235.326C400.617 235.326 399.817 235.646 399.617 235.686C399.337 235.686 399.057 235.486 399.057 235.166C399.057 234.766 399.057 230.286 399.057 230.286C399.057 230.046 398.817 229.846 398.497 229.846C398.097 229.846 397.857 230.046 397.857 230.286C397.857 230.286 397.857 235.086 397.857 235.486C397.817 235.886 397.697 236.406 397.337 236.646C396.857 236.926 395.497 237.486 394.817 237.646C394.457 237.646 394.337 237.166 394.337 236.846C394.337 236.446 394.337 232.046 394.337 232.046C394.337 231.806 394.057 231.606 393.777 231.606C393.377 231.606 393.137 231.806 393.137 232.046C393.137 232.046 393.137 234.206 393.137 235.806L393.137 237.446C393.137 238.006 392.897 238.406 392.657 238.526C392.417 238.646 391.617 238.966 391.617 238.966C391.337 239.046 391.137 239.366 391.137 239.606L391.137 242.446C391.137 242.686 391.257 242.806 391.457 242.806C391.497 242.806 391.577 242.766 391.617 242.766C391.617 242.766 392.217 242.526 392.497 242.366C392.537 242.366 392.577 242.326 392.617 242.326C392.897 242.326 393.137 242.726 393.137 243.046L393.137 247.006C393.137 247.446 392.937 247.806 392.697 247.926C392.457 248.006 391.617 248.366 391.617 248.366C391.337 248.446 391.137 248.766 391.137 249.006L391.137 251.846C391.137 252.086 391.257 252.206 391.457 252.206C391.497 252.206 391.577 252.166 391.617 252.166C391.617 252.166 392.177 251.926 392.537 251.806C392.577 251.766 392.617 251.766 392.657 251.766C392.937 251.766 393.137 252.206 393.137 252.406C393.137 252.646 393.137 257.326 393.137 257.326C393.137 257.566 393.377 257.766 393.657 257.766C394.057 257.766 394.337 257.566 394.337 257.326C394.337 257.326 394.337 252.246 394.337 251.766C394.337 251.246 394.537 250.966 394.737 250.886L397.177 249.886C397.217 249.886 397.297 249.846 397.337 249.846C397.657 249.846 397.857 250.326 397.857 250.566C397.857 250.846 397.857 255.566 397.857 255.566C397.857 255.806 398.097 256.006 398.377 256.006C398.817 256.006 399.057 255.806 399.057 255.566C399.057 255.566 399.057 250.166 399.057 249.886C399.057 249.566 399.217 249.086 399.497 248.966C399.777 248.846 400.617 248.526 400.617 248.526C400.897 248.406 401.097 248.086 401.097 247.846L401.097 245.006C401.097 244.806 400.977 244.686 400.817 244.686C400.737 244.686 400.697 244.686 400.617 244.726C400.617 244.726 399.777 245.046 399.577 245.126C399.337 245.126 399.057 244.886 399.057 244.406L399.057 240.686C399.057 240.406 399.257 239.646 399.577 239.526C399.897 239.406 400.617 239.126 400.617 239.126ZM397.857 245.646C397.617 246.446 395.737 247.246 394.817 247.246C394.577 247.246 394.377 247.166 394.337 247.046C394.257 246.886 394.217 246.006 394.217 245.046C394.217 243.806 394.257 242.406 394.337 242.086C394.417 241.406 396.257 240.566 397.257 240.566C397.537 240.566 397.777 240.646 397.857 240.806C397.937 241.006 398.017 242.006 398.017 243.086C398.017 244.166 397.937 245.286 397.857 245.646Z"></path><path d="M411.617 254.126C411.897 254.006 412.097 253.686 412.097 253.446L412.097 250.606C412.097 250.406 411.977 250.286 411.817 250.286C411.737 250.286 411.697 250.286 411.617 250.326C411.617 250.326 410.817 250.646 410.617 250.686C410.337 250.686 410.057 250.486 410.057 250.166C410.057 249.766 410.057 245.286 410.057 245.286C410.057 245.046 409.817 244.846 409.497 244.846C409.097 244.846 408.857 245.046 408.857 245.286C408.857 245.286 408.857 250.086 408.857 250.486C408.817 250.886 408.697 251.406 408.337 251.646C407.857 251.926 406.497 252.486 405.817 252.646C405.457 252.646 405.337 252.166 405.337 251.846C405.337 251.446 405.337 247.046 405.337 247.046C405.337 246.806 405.057 246.606 404.777 246.606C404.377 246.606 404.137 246.806 404.137 247.046C404.137 247.046 404.137 249.206 404.137 250.806L404.137 252.446C404.137 253.006 403.897 253.406 403.657 253.526C403.417 253.646 402.617 253.966 402.617 253.966C402.337 254.046 402.137 254.366 402.137 254.606L402.137 257.446C402.137 257.686 402.257 257.806 402.457 257.806C402.497 257.806 402.577 257.766 402.617 257.766C402.617 257.766 403.217 257.526 403.497 257.366C403.537 257.366 403.577 257.326 403.617 257.326C403.897 257.326 404.137 257.726 404.137 258.046L404.137 262.006C404.137 262.446 403.937 262.806 403.697 262.926C403.457 263.006 402.617 263.366 402.617 263.366C402.337 263.446 402.137 263.766 402.137 264.006L402.137 266.846C402.137 267.086 402.257 267.206 402.457 267.206C402.497 267.206 402.577 267.166 402.617 267.166C402.617 267.166 403.177 266.926 403.537 266.806C403.577 266.766 403.617 266.766 403.657 266.766C403.937 266.766 404.137 267.206 404.137 267.406C404.137 267.646 404.137 272.326 404.137 272.326C404.137 272.566 404.377 272.766 404.657 272.766C405.057 272.766 405.337 272.566 405.337 272.326C405.337 272.326 405.337 267.246 405.337 266.766C405.337 266.246 405.537 265.966 405.737 265.886L408.177 264.886C408.217 264.886 408.297 264.846 408.337 264.846C408.657 264.846 408.857 265.326 408.857 265.566C408.857 265.846 408.857 270.566 408.857 270.566C408.857 270.806 409.097 271.006 409.377 271.006C409.817 271.006 410.057 270.806 410.057 270.566C410.057 270.566 410.057 265.166 410.057 264.886C410.057 264.566 410.217 264.086 410.497 263.966C410.777 263.846 411.617 263.526 411.617 263.526C411.897 263.406 412.097 263.086 412.097 262.846L412.097 260.006C412.097 259.806 411.977 259.686 411.817 259.686C411.737 259.686 411.697 259.686 411.617 259.726C411.617 259.726 410.777 260.046 410.577 260.126C410.337 260.126 410.057 259.886 410.057 259.406L410.057 255.686C410.057 255.406 410.257 254.646 410.577 254.526C410.897 254.406 411.617 254.126 411.617 254.126ZM408.857 260.646C408.617 261.446 406.737 262.246 405.817 262.246C405.577 262.246 405.377 262.166 405.337 262.046C405.257 261.886 405.217 261.006 405.217 260.046C405.217 258.806 405.257 257.406 405.337 257.086C405.417 256.406 407.257 255.566 408.257 255.566C408.537 255.566 408.777 255.646 408.857 255.806C408.937 256.006 409.017 257.006 409.017 258.086C409.017 259.166 408.937 260.286 408.857 260.646Z"></path></g></g><g><line stroke="black" stroke-width="1.6" x1="602.6883441869294" x2="602.6883441869294" y1="143.3461538461538" y2="284.3461538461538"></line></g><g><g><path d="M438.257 174.486C442.257 174.486 447.177 170.766 447.177 166.966C447.177 164.686 445.377 163.206 442.777 163.206C437.857 163.206 433.897 166.846 433.897 170.726C433.897 173.086 435.817 174.486 438.257 174.486Z"></path></g><line stroke="#000000" stroke-width="1.2" x1="446.57724901654166" x2="446.57724901654166" y1="167.0061538461538" y2="129.0061538461538"></line></g><g><g><path d="M480.255 169.486C484.255 169.486 489.175 165.766 489.175 161.966C489.175 159.686 487.375 158.206 484.775 158.206C479.855 158.206 475.895 161.846 475.895 165.726C475.895 168.086 477.815 169.486 480.255 169.486Z"></path></g><line stroke="#000000" stroke-width="1.2" x1="488.5750228091386" x2="488.5750228091386" y1="162.0061538461538" y2="127.00615384615381"></line></g><g><g><path d="M522.253 164.486C526.253 164.486 531.173 160.766 531.173 156.966C531.173 154.686 529.373 153.206 526.773 153.206C521.853 153.206 517.893 156.846 517.893 160.726C517.893 163.086 519.813 164.486 522.253 164.486Z"></path><path d="M515.373 154.126C515.653 154.006 515.853 153.686 515.853 153.446L515.853 150.606C515.853 150.406 515.733 150.286 515.573 150.286C515.493 150.286 515.453 150.286 515.373 150.326C515.373 150.326 514.573 150.646 514.373 150.686C514.093 150.686 513.813 150.486 513.813 150.166C513.813 149.766 513.813 145.286 513.813 145.286C513.813 145.046 513.573 144.846 513.253 144.846C512.853 144.846 512.613 145.046 512.613 145.286C512.613 145.286 512.613 150.086 512.613 150.486C512.573 150.886 512.453 151.406 512.093 151.646C511.613 151.926 510.253 152.486 509.573 152.646C509.213 152.646 509.093 152.166 509.093 151.846C509.093 151.446 509.093 147.046 509.093 147.046C509.093 146.806 508.813 146.606 508.533 146.606C508.133 146.606 507.893 146.806 507.893 147.046C507.893 147.046 507.893 149.206 507.893 150.806L507.893 152.446C507.893 153.006 507.653 153.406 507.413 153.526C507.173 153.646 506.373 153.966 506.373 153.966C506.093 154.046 505.893 154.366 505.893 154.606L505.893 157.446C505.893 157.686 506.013 157.806 506.213 157.806C506.253 157.806 506.333 157.766 506.373 157.766C506.373 157.766 506.973 157.526 507.253 157.366C507.293 157.366 507.333 157.326 507.373 157.326C507.653 157.326 507.893 157.726 507.893 158.046L507.893 162.006C507.893 162.446 507.693 162.806 507.453 162.926C507.213 163.006 506.373 163.366 506.373 163.366C506.093 163.446 505.893 163.766 505.893 164.006L505.893 166.846C505.893 167.086 506.013 167.206 506.213 167.206C506.253 167.206 506.333 167.166 506.373 167.166C506.373 167.166 506.933 166.926 507.293 166.806C507.333 166.766 507.373 166.766 507.413 166.766C507.693 166.766 507.893 167.206 507.893 167.406C507.893 167.646 507.893 172.326 507.893 172.326C507.893 172.566 508.133 172.766 508.413 172.766C508.813 172.766 509.093 172.566 509.093 172.326C509.093 172.326 509.093 167.246 509.093 166.766C509.093 166.246 509.293 165.966 509.493 165.886L511.933 164.886C511.973 164.886 512.053 164.846 512.093 164.846C512.413 164.846 512.613 165.326 512.613 165.566C512.613 165.846 512.613 170.566 512.613 170.566C512.613 170.806 512.853 171.006 513.133 171.006C513.573 171.006 513.813 170.806 513.813 170.566C513.813 170.566 513.813 165.166 513.813 164.886C513.813 164.566 513.973 164.086 514.253 163.966C514.533 163.846 515.373 163.526 515.373 163.526C515.653 163.406 515.853 163.086 515.853 162.846L515.853 160.006C515.853 159.806 515.733 159.686 515.573 159.686C515.493 159.686 515.453 159.686 515.373 159.726C515.373 159.726 514.533 160.046 514.333 160.126C514.093 160.126 513.813 159.886 513.813 159.406L513.813 155.686C513.813 155.406 514.013 154.646 514.333 154.526C514.653 154.406 515.373 154.126 515.373 154.126ZM512.613 160.646C512.373 161.446 510.493 162.246 509.573 162.246C509.333 162.246 509.133 162.166 509.093 162.046C509.013 161.886 508.973 161.006 508.973 160.046C508.973 158.806 509.013 157.406 509.093 157.086C509.173 156.406 511.013 155.566 512.013 155.566C512.293 155.566 512.533 155.646 512.613 155.806C512.693 156.006 512.773 157.006 512.773 158.086C512.773 159.166 512.693 160.286 512.613 160.646Z"></path></g><line stroke="#000000" stroke-width="1.2" x1="518.4927966017354" x2="518.4927966017354" y1="160.68615384615381" y2="198.68615384615381"></line></g><g><g><path d="M564.251 159.486C568.251 159.486 573.171 155.766 573.171 151.966C573.171 149.686 571.371 148.206 568.771 148.206C563.851 148.206 559.891 151.846 559.891 155.726C559.891 158.086 561.811 159.486 564.251 159.486Z"></path></g><line stroke="#000000" stroke-width="1.2" x1="560.4905703943325" x2="560.4905703943325" y1="155.68615384615381" y2="190.68615384615381"></line></g><g><g><path d="M438.257 284.486C442.257 284.486 447.177 280.766 447.177 276.966C447.177 274.686 445.377 273.206 442.777 273.206C437.857 273.206 433.897 276.846 433.897 280.726C433.897 283.086 435.817 284.486 438.257 284.486Z"></path><path d="M431.377 274.126C431.657 274.006 431.857 273.686 431.857 273.446L431.857 270.606C431.857 270.406 431.737 270.286 431.577 270.286C431.497 270.286 431.457 270.286 431.377 270.326C431.377 270.326 430.577 270.646 430.377 270.686C430.097 270.686 429.817 270.486 429.817 270.166C429.817 269.766 429.817 265.286 429.817 265.286C429.817 265.046 429.577 264.846 429.257 264.846C428.857 264.846 428.617 265.046 428.617 265.286C428.617 265.286 428.617 270.086 428.617 270.486C428.577 270.886 428.457 271.406 428.097 271.646C427.617 271.926 426.257 272.486 425.577 272.646C425.217 272.646 425.097 272.166 425.097 271.846C425.097 271.446 425.097 267.046 425.097 267.046C425.097 266.806 424.817 266.606 424.537 266.606C424.137 266.606 423.897 266.806 423.897 267.046C423.897 267.046 423.897 269.206 423.897 270.806L423.897 272.446C423.897 273.006 423.657 273.406 423.417 273.526C423.177 273.646 422.377 273.966 422.377 273.966C422.097 274.046 421.897 274.366 421.897 274.606L421.897 277.446C421.897 277.686 422.017 277.806 422.217 277.806C422.257 277.806 422.337 277.766 422.377 277.766C422.377 277.766 422.977 277.526 423.257 277.366C423.297 277.366 423.337 277.326 423.377 277.326C423.657 277.326 423.897 277.726 423.897 278.046L423.897 282.006C423.897 282.446 423.697 282.806 423.457 282.926C423.217 283.006 422.377 283.366 422.377 283.366C422.097 283.446 421.897 283.766 421.897 284.006L421.897 286.846C421.897 287.086 422.017 287.206 422.217 287.206C422.257 287.206 422.337 287.166 422.377 287.166C422.377 287.166 422.937 286.926 423.297 286.806C423.337 286.766 423.377 286.766 423.417 286.766C423.697 286.766 423.897 287.206 423.897 287.406C423.897 287.646 423.897 292.326 423.897 292.326C423.897 292.566 424.137 292.766 424.417 292.766C424.817 292.766 425.097 292.566 425.097 292.326C425.097 292.326 425.097 287.246 425.097 286.766C425.097 286.246 425.297 285.966 425.497 285.886L427.937 284.886C427.977 284.886 428.057 284.846 428.097 284.846C428.417 284.846 428.617 285.326 428.617 285.566C428.617 285.846 428.617 290.566 428.617 290.566C428.617 290.806 428.857 291.006 429.137 291.006C429.577 291.006 429.817 290.806 429.817 290.566C429.817 290.566 429.817 285.166 429.817 284.886C429.817 284.566 429.977 284.086 430.257 283.966C430.537 283.846 431.377 283.526 431.377 283.526C431.657 283.406 431.857 283.086 431.857 282.846L431.857 280.006C431.857 279.806 431.737 279.686 431.577 279.686C431.497 279.686 431.457 279.686 431.377 279.726C431.377 279.726 430.537 280.046 430.337 280.126C430.097 280.126 429.817 279.886 429.817 279.406L429.817 275.686C429.817 275.406 430.017 274.646 430.337 274.526C430.657 274.406 431.377 274.126 431.377 274.126ZM428.617 280.646C428.377 281.446 426.497 282.246 425.577 282.246C425.337 282.246 425.137 282.166 425.097 282.046C425.017 281.886 424.977 281.006 424.977 280.046C424.977 278.806 425.017 277.406 425.097 277.086C425.177 276.406 427.017 275.566 428.017 275.566C428.297 275.566 428.537 275.646 428.617 275.806C428.697 276.006 428.777 277.006 428.777 278.086C428.777 279.166 428.697 280.286 428.617 280.646Z"></path></g><line stroke="#000000" stroke-width="1.2" x1="446.57724901654166" x2="446.57724901654166" y1="277.00615384615384" y2="239.00615384615384"></line></g><g><g><path d="M480.255 279.486C484.255 279.486 489.175 275.766 489.175 271.966C489.175 269.686 487.375 268.206 484.775 268.206C479.855 268.206 475.895 271.846 475.895 275.726C475.895 278.086 477.815 279.486 480.255 279.486Z"></path></g><line stroke="#000000" stroke-width="1.2" x1="488.5750228091386" x2="488.5750228091386" y1="272.00615384615384" y2="237.00615384615384"></line></g><g><g><path d="M522.253 274.486C526.253 274.486 531.173 270.766 531.173 266.966C531.173 264.686 529.373 263.206 526.773 263.206C521.853 263.206 517.893 266.846 517.893 270.726C517.893 273.086 519.813 274.486 522.253 274.486Z"></path></g><line stroke="#000000" stroke-width="1.2" x1="530.5727966017354" x2="530.5727966017354" y1="267.00615384615384" y2="229.00615384615384"></line></g><g><g><path d="M564.251 269.486C568.251 269.486 573.171 265.766 573.171 261.966C573.171 259.686 571.371 258.206 568.771 258.206C563.851 258.206 559.891 261.846 559.891 265.726C559.891 268.086 561.811 269.486 564.251 269.486Z"></path></g><line stroke="#000000" stroke-width="1.2" x1="572.5705703943324" x2="572.5705703943324" y1="262.00615384615384" y2="227.00615384615384"></line></g></g><g><g><g><path d="M635.228 181.006C635.228 177.926 633.228 174.846 629.388 174.846C628.108 174.846 627.668 175.686 627.308 175.686C626.908 175.686 626.508 175.086 626.268 174.686C626.148 174.366 625.948 174.126 625.948 173.846C625.948 173.606 626.068 173.486 626.228 173.126C626.268 173.046 626.348 173.046 626.348 172.966C626.588 172.606 626.988 172.046 627.308 172.046C627.668 172.046 628.108 172.806 629.388 172.806C633.228 172.806 635.228 169.766 635.228 166.726C635.228 163.686 632.668 160.566 628.868 160.566C625.028 160.566 623.868 163.086 623.868 164.166C623.868 165.286 624.748 166.486 625.908 166.486C627.028 166.486 628.108 165.526 628.108 164.486C628.108 163.566 626.908 162.926 626.668 162.726C626.588 162.646 626.188 162.566 626.188 162.406C626.188 162.366 626.188 162.326 626.268 162.286C626.788 161.766 627.388 161.606 627.988 161.606C630.268 161.606 630.788 163.566 630.788 165.206L630.788 168.366C630.788 170.406 630.708 171.126 628.948 171.126C627.228 171.126 626.548 170.406 626.148 169.086C625.948 168.526 625.748 168.326 625.548 168.326C625.268 168.326 625.028 168.726 624.948 169.086C624.268 172.246 623.228 172.406 622.468 172.486L622.468 161.166C622.468 160.806 621.868 160.566 621.548 160.566C621.228 160.566 620.988 160.806 620.988 161.166L620.988 186.566C620.988 186.886 621.228 187.126 621.548 187.126C621.868 187.126 622.468 186.886 622.468 186.566L622.468 175.206C623.228 175.286 624.268 175.446 624.948 178.606C625.028 178.966 625.268 179.366 625.548 179.366C625.748 179.366 625.948 179.166 626.148 178.606C626.548 177.286 627.228 176.526 628.948 176.526C630.708 176.526 630.788 177.286 630.788 179.366L630.788 182.486C630.788 184.166 630.268 186.046 627.988 186.046C626.908 186.046 626.548 185.686 626.308 185.446C626.228 185.366 626.188 185.326 626.188 185.286C626.188 185.126 626.508 185.046 626.588 184.966C626.868 184.686 628.108 184.246 628.108 183.166C628.108 182.126 627.028 181.166 625.908 181.166C624.748 181.166 623.868 182.406 623.868 183.486C623.868 184.566 625.028 187.126 628.868 187.126C632.668 187.126 635.228 184.006 635.228 181.006ZM619.068 161.166C619.068 160.846 618.828 160.566 618.468 160.566L615.588 160.566C615.268 160.566 614.988 160.846 614.988 161.166L614.988 186.526C614.988 186.846 615.268 187.126 615.588 187.126L618.468 187.126C618.828 187.126 619.068 186.846 619.068 186.526Z"></path></g></g><g><line stroke="black" stroke-width="1.6" x1="819.7394393573172" x2="819.7394393573172" y1="143.3461538461538" y2="284.3461538461538"></line></g><g></g><g><line stroke="black" stroke-width="1.6" x1="819.7394393573172" x2="819.7394393573172" y1="143.3461538461538" y2="284.3461538461538"></line></g><g><g><path d="M646.548 139.486C650.548 139.486 655.468 135.766 655.468 131.966C655.468 129.686 653.668 128.206 651.068 128.206C646.148 128.206 642.188 131.846 642.188 135.726C642.188 138.086 644.108 139.486 646.548 139.486Z"></path></g><line stroke="#000000" stroke-width="1.2" x1="642.7883441869295" x2="642.7883441869295" y1="135.68615384615381" y2="170.68615384615381"></line><line stroke="#000000" stroke-width="2.2" x1="638.9883441869295" x2="660.9083441869294" y1="133.8461538461538" y2="133.8461538461538"></line></g><g><g><path d="M697.306 144.486C701.306 144.486 706.226 140.766 706.226 136.966C706.226 134.686 704.426 133.206 701.826 133.206C696.906 133.206 692.946 136.846 692.946 140.726C692.946 143.086 694.866 144.486 697.306 144.486Z"></path><path d="M690.426 134.126C690.706 134.006 690.906 133.686 690.906 133.446L690.906 130.606C690.906 130.406 690.786 130.286 690.626 130.286C690.546 130.286 690.506 130.286 690.426 130.326C690.426 130.326 689.626 130.646 689.426 130.686C689.146 130.686 688.866 130.486 688.866 130.166C688.866 129.766 688.866 125.286 688.866 125.286C688.866 125.046 688.626 124.846 688.306 124.846C687.906 124.846 687.666 125.046 687.666 125.286C687.666 125.286 687.666 130.086 687.666 130.486C687.626 130.886 687.506 131.406 687.146 131.646C686.666 131.926 685.306 132.486 684.626 132.646C684.266 132.646 684.146 132.166 684.146 131.846C684.146 131.446 684.146 127.046 684.146 127.046C684.146 126.806 683.866 126.606 683.586 126.606C683.186 126.606 682.946 126.806 682.946 127.046C682.946 127.046 682.946 129.206 682.946 130.806L682.946 132.446C682.946 133.006 682.706 133.406 682.466 133.526C682.226 133.646 681.426 133.966 681.426 133.966C681.146 134.046 680.946 134.366 680.946 134.606L680.946 137.446C680.946 137.686 681.066 137.806 681.266 137.806C681.306 137.806 681.386 137.766 681.426 137.766C681.426 137.766 682.026 137.526 682.306 137.366C682.346 137.366 682.386 137.326 682.426 137.326C682.706 137.326 682.946 137.726 682.946 138.046L682.946 142.006C682.946 142.446 682.746 142.806 682.506 142.926C682.266 143.006 681.426 143.366 681.426 143.366C681.146 143.446 680.946 143.766 680.946 144.006L680.946 146.846C680.946 147.086 681.066 147.206 681.266 147.206C681.306 147.206 681.386 147.166 681.426 147.166C681.426 147.166 681.986 146.926 682.346 146.806C682.386 146.766 682.426 146.766 682.466 146.766C682.746 146.766 682.946 147.206 682.946 147.406C682.946 147.646 682.946 152.326 682.946 152.326C682.946 152.566 683.186 152.766 683.466 152.766C683.866 152.766 684.146 152.566 684.146 152.326C684.146 152.326 684.146 147.246 684.146 146.766C684.146 146.246 684.346 145.966 684.546 145.886L686.986 144.886C687.026 144.886 687.106 144.846 687.146 144.846C687.466 144.846 687.666 145.326 687.666 145.566C687.666 145.846 687.666 150.566 687.666 150.566C687.666 150.806 687.906 151.006 688.186 151.006C688.626 151.006 688.866 150.806 688.866 150.566C688.866 150.566 688.866 145.166 688.866 144.886C688.866 144.566 689.026 144.086 689.306 143.966C689.586 143.846 690.426 143.526 690.426 143.526C690.706 143.406 690.906 143.086 690.906 142.846L690.906 140.006C690.906 139.806 690.786 139.686 690.626 139.686C690.546 139.686 690.506 139.686 690.426 139.726C690.426 139.726 689.586 140.046 689.386 140.126C689.146 140.126 688.866 139.886 688.866 139.406L688.866 135.686C688.866 135.406 689.066 134.646 689.386 134.526C689.706 134.406 690.426 134.126 690.426 134.126ZM687.666 140.646C687.426 141.446 685.546 142.246 684.626 142.246C684.386 142.246 684.186 142.166 684.146 142.046C684.066 141.886 684.026 141.006 684.026 140.046C684.026 138.806 684.066 137.406 684.146 137.086C684.226 136.406 686.066 135.566 687.066 135.566C687.346 135.566 687.586 135.646 687.666 135.806C687.746 136.006 687.826 137.006 687.826 138.086C687.826 139.166 687.746 140.286 687.666 140.646Z"></path></g><line stroke="#000000" stroke-width="1.2" x1="693.5461179795265" x2="693.5461179795265" y1="140.68615384615381" y2="178.68615384615381"></line></g><g><g><path d="M739.304 149.486C743.304 149.486 748.224 145.766 748.224 141.966C748.224 139.686 746.424 138.206 743.824 138.206C738.904 138.206 734.944 141.846 734.944 145.726C734.944 148.086 736.864 149.486 739.304 149.486Z"></path></g><line stroke="#000000" stroke-width="1.2" x1="735.5438917721234" x2="735.5438917721234" y1="145.68615384615381" y2="180.68615384615381"></line></g><g><g><path d="M781.302 154.486C785.302 154.486 790.222 150.766 790.222 146.966C790.222 144.686 788.422 143.206 785.822 143.206C780.902 143.206 776.942 146.846 776.942 150.726C776.942 153.086 778.862 154.486 781.302 154.486Z"></path></g><line stroke="#000000" stroke-width="1.2" x1="777.5416655647203" x2="777.5416655647203" y1="150.68615384615381" y2="188.68615384615381"></line></g><g><g><path d="M646.548 274.486C650.548 274.486 655.468 270.766 655.468 266.966C655.468 264.686 653.668 263.206 651.068 263.206C646.148 263.206 642.188 266.846 642.188 270.726C642.188 273.086 644.108 274.486 646.548 274.486Z"></path></g><line stroke="#000000" stroke-width="1.2" x1="654.8683441869294" x2="654.8683441869294" y1="267.00615384615384" y2="229.00615384615384"></line></g><g><g><path d="M697.306 269.486C701.306 269.486 706.226 265.766 706.226 261.966C706.226 259.686 704.426 258.206 701.826 258.206C696.906 258.206 692.946 261.846 692.946 265.726C692.946 268.086 694.866 269.486 697.306 269.486Z"></path></g><line stroke="#000000" stroke-width="1.2" x1="705.6261179795264" x2="705.6261179795264" y1="262.00615384615384" y2="227.00615384615384"></line></g><g><g><path d="M739.304 264.486C743.304 264.486 748.224 260.766 748.224 256.966C748.224 254.686 746.424 253.206 743.824 253.206C738.904 253.206 734.944 256.846 734.944 260.726C734.944 263.086 736.864 264.486 739.304 264.486Z"></path><path d="M732.424 254.126C732.704 254.006 732.904 253.686 732.904 253.446L732.904 250.606C732.904 250.406 732.784 250.286 732.624 250.286C732.544 250.286 732.504 250.286 732.424 250.326C732.424 250.326 731.624 250.646 731.424 250.686C731.144 250.686 730.864 250.486 730.864 250.166C730.864 249.766 730.864 245.286 730.864 245.286C730.864 245.046 730.624 244.846 730.304 244.846C729.904 244.846 729.664 245.046 729.664 245.286C729.664 245.286 729.664 250.086 729.664 250.486C729.624 250.886 729.504 251.406 729.144 251.646C728.664 251.926 727.304 252.486 726.624 252.646C726.264 252.646 726.144 252.166 726.144 251.846C726.144 251.446 726.144 247.046 726.144 247.046C726.144 246.806 725.864 246.606 725.584 246.606C725.184 246.606 724.944 246.806 724.944 247.046C724.944 247.046 724.944 249.206 724.944 250.806L724.944 252.446C724.944 253.006 724.704 253.406 724.464 253.526C724.224 253.646 723.424 253.966 723.424 253.966C723.144 254.046 722.944 254.366 722.944 254.606L722.944 257.446C722.944 257.686 723.064 257.806 723.264 257.806C723.304 257.806 723.384 257.766 723.424 257.766C723.424 257.766 724.024 257.526 724.304 257.366C724.344 257.366 724.384 257.326 724.424 257.326C724.704 257.326 724.944 257.726 724.944 258.046L724.944 262.006C724.944 262.446 724.744 262.806 724.504 262.926C724.264 263.006 723.424 263.366 723.424 263.366C723.144 263.446 722.944 263.766 722.944 264.006L722.944 266.846C722.944 267.086 723.064 267.206 723.264 267.206C723.304 267.206 723.384 267.166 723.424 267.166C723.424 267.166 723.984 266.926 724.344 266.806C724.384 266.766 724.424 266.766 724.464 266.766C724.744 266.766 724.944 267.206 724.944 267.406C724.944 267.646 724.944 272.326 724.944 272.326C724.944 272.566 725.184 272.766 725.464 272.766C725.864 272.766 726.144 272.566 726.144 272.326C726.144 272.326 726.144 267.246 726.144 266.766C726.144 266.246 726.344 265.966 726.544 265.886L728.984 264.886C729.024 264.886 729.104 264.846 729.144 264.846C729.464 264.846 729.664 265.326 729.664 265.566C729.664 265.846 729.664 270.566 729.664 270.566C729.664 270.806 729.904 271.006 730.184 271.006C730.624 271.006 730.864 270.806 730.864 270.566C730.864 270.566 730.864 265.166 730.864 264.886C730.864 264.566 731.024 264.086 731.304 263.966C731.584 263.846 732.424 263.526 732.424 263.526C732.704 263.406 732.904 263.086 732.904 262.846L732.904 260.006C732.904 259.806 732.784 259.686 732.624 259.686C732.544 259.686 732.504 259.686 732.424 259.726C732.424 259.726 731.584 260.046 731.384 260.126C731.144 260.126 730.864 259.886 730.864 259.406L730.864 255.686C730.864 255.406 731.064 254.646 731.384 254.526C731.704 254.406 732.424 254.126 732.424 254.126ZM729.664 260.646C729.424 261.446 727.544 262.246 726.624 262.246C726.384 262.246 726.184 262.166 726.144 262.046C726.064 261.886 726.024 261.006 726.024 260.046C726.024 258.806 726.064 257.406 726.144 257.086C726.224 256.406 728.064 255.566 729.064 255.566C729.344 255.566 729.584 255.646 729.664 255.806C729.744 256.006 729.824 257.006 729.824 258.086C729.824 259.166 729.744 260.286 729.664 260.646Z"></path></g><line stroke="#000000" stroke-width="1.2" x1="735.5438917721234" x2="735.5438917721234" y1="260.6861538461538" y2="298.6861538461538"></line></g><g><g><path d="M781.302 259.486C785.302 259.486 790.222 255.766 790.222 251.966C790.222 249.686 788.422 248.206 785.822 248.206C780.902 248.206 776.942 251.846 776.942 255.726C776.942 258.086 778.862 259.486 781.302 259.486Z"></path></g><line stroke="#000000" stroke-width="1.2" x1="777.5416655647203" x2="777.5416655647203" y1="255.68615384615381" y2="290.68615384615384"></line></g></g><g><g></g><g><line stroke="#000000" stroke-width="1.6" x1="932.6768659270442" x2="932.6768659270442" y1="143.3461538461538" y2="284.3461538461538"></line><line stroke="#000000" stroke-width="5" x1="939.9768659270443" x2="939.9768659270443" y1="143.3461538461538" y2="284.3461538461538"></line></g><g></g><g><line stroke="black" stroke-width="1.6" x1="932.6768659270442" x2="932.6768659270442" y1="143.3461538461538" y2="284.3461538461538"></line><line stroke="black" stroke-width="5" x1="939.9768659270443" x2="939.9768659270443" y1="143.3461538461538" y2="284.3461538461538"></line></g><g><path d="M881.048 158.206L881.048 154.526C881.048 153.926 880.568 153.486 880.008 153.486L870.808 153.486C870.208 153.486 869.768 153.926 869.768 154.526L869.768 158.206C869.768 158.766 870.208 159.246 870.808 159.246L880.008 159.246C880.568 159.246 881.048 158.766 881.048 158.206Z"></path></g><g><path d="M881.048 258.206L881.048 254.526C881.048 253.926 880.568 253.486 880.008 253.486L870.808 253.486C870.208 253.486 869.768 253.926 869.768 254.526L869.768 258.206C869.768 258.766 870.208 259.246 870.808 259.246L880.008 259.246C880.568 259.246 881.048 258.766 881.048 258.206Z"></path></g></g></svg>