<?xml version="1.0" encoding="UTF-8" standalone="no"?><svg xmlns="http://www.w3.org/2000/svg" height="279.4mm" viewBox="0 0 1328.6153846153845 1719.3846153846152" width="215.9mm"><g transform="translate(93.84615384615385)"><g><g><line stroke="#6A6A6A" stroke-width="1.3" x1="0" x2="369.1232102339104" y1="183.8461538461538" y2="183.8461538461538"></line><line stroke="#6A6A6A" stroke-width="1.3" x1="0" x2="369.1232102339104" y1="173.8461538461538" y2="173.8461538461538"></line><line stroke="#6A6A6A" stroke-width="1.3" x1="0" x2="369.1232102339104" y1="163.8461538461538" y2="163.8461538461538"></line><line stroke="#6A6A6A" stroke-width="1.3" x1="0" x2="369.1232102339104" y1="153.8461538461538" y2="153.8461538461538"></line><line stroke="#6A6A6A" stroke-width="1.3" x1="0" x2="369.1232102339104" y1="143.8461538461538" y2="143.8461538461538"></line></g><g><path d="M25.200 129.926C24.640 129.926 23.400 130.966 22.600 131.846C19.640 135.126 18.680 140.126 18.680 144.286C18.680 146.606 18.960 149.206 19.240 150.846C19.320 151.326 19.360 151.406 18.880 151.806C16.320 153.926 13.560 156.366 11.480 158.926C8.720 162.366 7 166.086 7 170.366C7 177.326 11.760 183.926 21.560 183.926C22.480 183.926 23.520 183.846 24.320 183.686C24.760 183.606 24.840 183.566 24.920 184.046C25.400 186.726 26 190.206 26 192.086C26 198.006 22 198.726 19.640 198.726C17.480 198.726 16.440 198.086 16.440 197.566C16.440 197.126 16.800 197.166 17.720 196.886C18.960 196.526 20.400 195.446 20.400 193.126C20.400 190.926 19 189.046 16.560 189.046C13.880 189.046 12.280 191.166 12.280 193.646C12.280 196.246 13.840 200.166 19.880 200.166C22.560 200.166 27.760 198.966 27.760 192.166C27.760 189.886 27.040 186.086 26.600 183.606C26.520 183.126 26.560 183.166 27.120 182.926C31.160 181.326 33.840 177.926 33.840 173.406C33.840 168.286 30.080 163.766 24.200 163.766C23.080 163.766 23.200 163.966 23.040 163.046L22.040 157.246C21.960 156.766 22.040 156.726 22.280 156.486C22.920 155.886 23.760 155.046 24.520 154.206C27.880 150.526 29.880 145.766 29.880 141.246C29.880 137.766 28.920 134.326 27.280 131.926C26.680 131.046 25.640 129.926 25.200 129.926ZM20.040 158.086C20.440 157.766 20.520 157.806 20.600 158.246L21.440 163.366C21.560 164.126 21.560 164.086 20.840 164.326C17.320 165.526 15.040 168.686 15.040 172.086C15.040 175.686 16.920 178.246 19.640 179.166C19.960 179.286 20.440 179.406 20.720 179.406C21.040 179.406 21.200 179.206 21.200 178.966C21.200 178.686 20.880 178.566 20.600 178.446C18.920 177.726 17.720 176.006 17.720 174.166C17.720 171.886 19.280 170.166 21.720 169.486C22.360 169.326 22.440 169.366 22.520 169.806L24.520 181.726C24.600 182.166 24.560 182.166 23.960 182.286C23.320 182.406 22.520 182.486 21.720 182.486C14.720 182.486 10.200 178.606 10.200 173.046C10.200 170.686 10.600 167.526 13.920 163.766C16.320 161.086 18.160 159.606 20.040 158.086ZM24.640 169.166C27.880 169.446 30.560 172.166 30.560 175.686C30.560 178.206 29.040 180.246 26.800 181.366C26.320 181.606 26.240 181.606 26.160 181.126L24.200 169.726C24.120 169.246 24.160 169.126 24.640 169.166ZM25.800 136.126C27.120 136.126 28.200 137.206 28.200 139.406C28.200 142.166 26.880 144.726 23.760 147.846C23.120 148.486 22.160 149.406 21.240 150.206C20.960 150.446 20.800 150.406 20.720 149.886C20.560 148.846 20.480 147.486 20.480 146.206C20.480 139.966 23.360 136.126 25.800 136.126Z"></path></g><g></g><path d="M57.820 153.806C56.620 153.806 55.220 154.126 54.140 154.606C50.580 156.166 48.700 160.446 48.700 164.246C48.700 164.606 48.700 164.966 48.740 165.326C48.940 167.486 49.980 169.526 51.300 171.126C52.820 172.966 55.020 173.806 57.420 173.806C64.420 173.806 65.460 167.446 65.460 166.286C65.460 165.406 65.020 165.406 64.860 165.406C64.540 165.406 64.260 165.446 64.260 166.126C64.260 171.286 59.860 172.486 58.580 172.486C55.340 172.486 53.620 169.326 53.620 162.726C53.620 156.126 56.660 154.766 58.820 154.766C60.900 154.766 61.740 155.726 61.740 156.126C61.740 156.486 61.620 157.006 61.020 157.006C59.420 157.006 58.500 158.726 58.500 159.966C58.500 162.246 60.460 162.966 61.580 162.966C61.580 162.966 64.620 162.846 64.620 159.526C64.620 154.286 58.580 153.806 57.820 153.806Z"></path></g><g><line stroke="#000000" stroke-width="1.6" x1="369.9232102339104" x2="369.9232102339104" y1="143.8461538461538" y2="183.8461538461538"></line><line stroke="#000000" stroke-width="5" x1="377.22321023391044" x2="377.22321023391044" y1="143.8461538461538" y2="183.8461538461538"></line></g><g><g><path d="M93.360 199.486C97.360 199.486 102.280 195.766 102.280 191.966C102.280 189.686 100.480 188.206 97.880 188.206C92.960 188.206 89 191.846 89 195.726C89 198.086 90.920 199.486 93.360 199.486Z"></path></g><g><path d="M93.360 154.486C97.360 154.486 102.280 150.766 102.280 146.966C102.280 144.686 100.480 143.206 97.880 143.206C92.960 143.206 89 146.846 89 150.726C89 153.086 90.920 154.486 93.360 154.486Z"></path></g><g><path d="M93.360 144.486C97.360 144.486 102.280 140.766 102.280 136.966C102.280 134.686 100.480 133.206 97.880 133.206C92.960 133.206 89 136.846 89 140.726C89 143.086 90.920 144.486 93.360 144.486Z"></path></g><line stroke="#000000" stroke-width="1.2" x1="89.6" x2="89.6" y1="140.68615384615381" y2="225.68615384615381"></line><line stroke="#000000" stroke-width="2.2" x1="85.8" x2="107.72" y1="193.8461538461538" y2="193.8461538461538"></line><text font-family="Alegreya" font-size="22" text-anchor="middle" x="95.64" y="223.8461538461538">normal</text></g><g><g><path d="M163.419 199.486C167.419 199.486 172.339 195.766 172.339 191.966C172.339 189.686 170.539 188.206 167.939 188.206C163.019 188.206 159.059 191.846 159.059 195.726C159.059 198.086 160.979 199.486 163.419 199.486Z"></path></g><g><path d="M163.419 154.486C167.419 154.486 172.339 150.766 172.339 146.966C172.339 144.686 170.539 143.206 167.939 143.206C163.019 143.206 159.059 146.846 159.059 150.726C159.059 153.086 160.979 154.486 163.419 154.486Z"></path></g><g><path d="M163.419 144.486C167.419 144.486 172.339 140.766 172.339 136.966C172.339 134.686 170.539 133.206 167.939 133.206C163.019 133.206 159.059 136.846 159.059 140.726C159.059 143.086 160.979 144.486 163.419 144.486Z"></path></g><line stroke="#000000" stroke-width="1.2" x1="159.65905255847758" x2="159.65905255847758" y1="140.68615384615381" y2="225.68615384615381"></line><line stroke="#000000" stroke-width="2.2" x1="155.8590525584776" x2="177.7790525584776" y1="193.8461538461538" y2="193.8461538461538"></line><text font-family="Alegreya" font-size="22" text-anchor="middle" x="165.6990525584776" y="223.8461538461538">up</text></g><g><g><path d="M233.478 199.486C237.478 199.486 242.398 195.766 242.398 191.966C242.398 189.686 240.598 188.206 237.998 188.206C233.078 188.206 229.118 191.846 229.118 195.726C229.118 198.086 231.038 199.486 233.478 199.486Z"></path></g><g><path d="M233.478 154.486C237.478 154.486 242.398 150.766 242.398 146.966C242.398 144.686 240.598 143.206 237.998 143.206C233.078 143.206 229.118 146.846 229.118 150.726C229.118 153.086 231.038 154.486 233.478 154.486Z"></path></g><g><path d="M233.478 144.486C237.478 144.486 242.398 140.766 242.398 136.966C242.398 134.686 240.598 133.206 237.998 133.206C233.078 133.206 229.118 136.846 229.118 140.726C229.118 143.086 231.038 144.486 233.478 144.486Z"></path></g><line stroke="#000000" stroke-width="1.2" x1="229.71810511695517" x2="229.71810511695517" y1="140.68615384615381" y2="225.68615384615381"></line><line stroke="#000000" stroke-width="2.2" x1="225.9181051169552" x2="247.83810511695518" y1="193.8461538461538" y2="193.8461538461538"></line><text font-family="Alegreya" font-size="22" text-anchor="middle" x="235.75810511695516" y="223.8461538461538">normal</text></g><g><g><path d="M316.726 199.486C320.726 199.486 325.646 195.766 325.646 191.966C325.646 189.686 323.846 188.206 321.246 188.206C316.326 188.206 312.366 191.846 312.366 195.726C312.366 198.086 314.286 199.486 316.726 199.486Z"></path></g><g><path d="M316.726 154.486C320.726 154.486 325.646 150.766 325.646 146.966C325.646 144.686 323.846 143.206 321.246 143.206C316.326 143.206 312.366 146.846 312.366 150.726C312.366 153.086 314.286 154.486 316.726 154.486Z"></path></g><g><path d="M316.726 144.486C320.726 144.486 325.646 140.766 325.646 136.966C325.646 134.686 323.846 133.206 321.246 133.206C316.326 133.206 312.366 136.846 312.366 140.726C312.366 143.086 314.286 144.486 316.726 144.486Z"></path></g><line stroke="#000000" stroke-width="1.2" x1="312.9661576754328" x2="312.9661576754328" y1="140.68615384615381" y2="225.68615384615381"></line><line stroke="#000000" stroke-width="2.2" x1="309.16615767543277" x2="331.0861576754328" y1="193.8461538461538" y2="193.8461538461538"></line><text font-family="Alegreya" font-size="22" text-anchor="middle" x="319.00615767543275" y="223.8461538461538">down</text></g></g><g transform="translate(488.56936408006425)"><g><g><line stroke="#6A6A6A" stroke-width="1.3" x1="-25.600000000000023" x2="197.14611576754317" y1="183.8461538461538" y2="183.8461538461538"></line><line stroke="#6A6A6A" stroke-width="1.3" x1="-25.600000000000023" x2="197.14611576754317" y1="173.8461538461538" y2="173.8461538461538"></line><line stroke="#6A6A6A" stroke-width="1.3" x1="-25.600000000000023" x2="197.14611576754317" y1="163.8461538461538" y2="163.8461538461538"></line><line stroke="#6A6A6A" stroke-width="1.3" x1="-25.600000000000023" x2="197.14611576754317" y1="153.8461538461538" y2="153.8461538461538"></line><line stroke="#6A6A6A" stroke-width="1.3" x1="-25.600000000000023" x2="197.14611576754317" y1="143.8461538461538" y2="143.8461538461538"></line></g></g><g><line stroke="black" stroke-width="1.6" x1="187.3461157675432" x2="187.3461157675432" y1="143.8461538461538" y2="183.8461538461538"></line><line stroke="black" stroke-width="5" x1="194.6461157675432" x2="194.6461157675432" y1="143.8461538461538" y2="183.8461538461538"></line></g><g><g><path d="M24.511 199.486C28.511 199.486 33.431 195.766 33.431 191.966C33.431 189.686 31.631 188.206 29.031 188.206C24.111 188.206 20.151 191.846 20.151 195.726C20.151 198.086 22.071 199.486 24.511 199.486Z"></path></g><g><path d="M24.511 154.486C28.511 154.486 33.431 150.766 33.431 146.966C33.431 144.686 31.631 143.206 29.031 143.206C24.111 143.206 20.151 146.846 20.151 150.726C20.151 153.086 22.071 154.486 24.511 154.486Z"></path></g><g><path d="M24.511 144.486C28.511 144.486 33.431 140.766 33.431 136.966C33.431 134.686 31.631 133.206 29.031 133.206C24.111 133.206 20.151 136.846 20.151 140.726C20.151 143.086 22.071 144.486 24.511 144.486Z"></path></g><line stroke="#000000" stroke-width="1.2" x1="20.75099999999999" x2="20.75099999999999" y1="140.68615384615381" y2="225.68615384615381"></line><line stroke="#000000" stroke-width="2.2" x1="16.95099999999999" x2="38.87099999999998" y1="193.8461538461538" y2="193.8461538461538"></line><text font-family="Alegreya" font-size="22" text-anchor="middle" x="26.79099999999999" y="223.8461538461538">normal</text></g><g><g><path d="M94.611 199.486C98.611 199.486 103.531 195.766 103.531 191.966C103.531 189.686 101.731 188.206 99.131 188.206C94.211 188.206 90.251 191.846 90.251 195.726C90.251 198.086 92.171 199.486 94.611 199.486Z"></path></g><g><path d="M94.611 154.486C98.611 154.486 103.531 150.766 103.531 146.966C103.531 144.686 101.731 143.206 99.131 143.206C94.211 143.206 90.251 146.846 90.251 150.726C90.251 153.086 92.171 154.486 94.611 154.486Z"></path></g><g><path d="M94.611 144.486C98.611 144.486 103.531 140.766 103.531 136.966C103.531 134.686 101.731 133.206 99.131 133.206C94.211 133.206 90.251 136.846 90.251 140.726C90.251 143.086 92.171 144.486 94.611 144.486Z"></path></g><line stroke="#000000" stroke-width="1.2" x1="90.85070525584771" x2="90.85070525584771" y1="140.68615384615381" y2="225.68615384615381"></line><line stroke="#000000" stroke-width="2.2" x1="87.05070525584772" x2="108.97070525584772" y1="193.8461538461538" y2="193.8461538461538"></line><text font-family="Alegreya" font-size="22" text-anchor="middle" x="96.89070525584772" y="223.8461538461538">non-arp.</text></g><g><g><path d="M164.710 199.486C168.710 199.486 173.630 195.766 173.630 191.966C173.630 189.686 171.830 188.206 169.230 188.206C164.310 188.206 160.350 191.846 160.350 195.726C160.350 198.086 162.270 199.486 164.710 199.486Z"></path></g><g><path d="M164.710 154.486C168.710 154.486 173.630 150.766 173.630 146.966C173.630 144.686 171.830 143.206 169.230 143.206C164.310 143.206 160.350 146.846 160.350 150.726C160.350 153.086 162.270 154.486 164.710 154.486Z"></path></g><g><path d="M164.710 144.486C168.710 144.486 173.630 140.766 173.630 136.966C173.630 134.686 171.830 133.206 169.230 133.206C164.310 133.206 160.350 136.846 160.350 140.726C160.350 143.086 162.270 144.486 164.710 144.486Z"></path></g><line stroke="#000000" stroke-width="1.2" x1="160.95041051169545" x2="160.95041051169545" y1="140.68615384615381" y2="225.68615384615381"></line><line stroke="#000000" stroke-width="2.2" x1="157.15041051169547" x2="179.07041051169546" y1="193.8461538461538" y2="193.8461538461538"></line><text font-family="Alegreya" font-size="22" text-anchor="middle" x="166.99041051169547" y="223.8461538461538">normal</text></g></g></svg>