<?xml version="1.0" encoding="UTF-8" standalone="no"?><svg xmlns="http://www.w3.org/2000/svg" height="279.4mm" viewBox="0 0 1328.6153846153845 1719.3846153846152" width="215.9mm"><g transform="translate(163.84615384615387)"><g><g><line stroke="#6A6A6A" stroke-width="1.3" x1="0" x2="364.00609673205145" y1="183.8461538461538" y2="183.8461538461538"></line><line stroke="#6A6A6A" stroke-width="1.3" x1="0" x2="364.00609673205145" y1="173.8461538461538" y2="173.8461538461538"></line><line stroke="#6A6A6A" stroke-width="1.3" x1="0" x2="364.00609673205145" y1="163.8461538461538" y2="163.8461538461538"></line><line stroke="#6A6A6A" stroke-width="1.3" x1="0" x2="364.00609673205145" y1="153.8461538461538" y2="153.8461538461538"></line><line stroke="#6A6A6A" stroke-width="1.3" x1="0" x2="364.00609673205145" y1="143.8461538461538" y2="143.8461538461538"></line></g><g><path d="M25.200 129.926C24.640 129.926 23.400 130.966 22.600 131.846C19.640 135.126 18.680 140.126 18.680 144.286C18.680 146.606 18.960 149.206 19.240 150.846C19.320 151.326 19.360 151.406 18.880 151.806C16.320 153.926 13.560 156.366 11.480 158.926C8.720 162.366 7 166.086 7 170.366C7 177.326 11.760 183.926 21.560 183.926C22.480 183.926 23.520 183.846 24.320 183.686C24.760 183.606 24.840 183.566 24.920 184.046C25.400 186.726 26 190.206 26 192.086C26 198.006 22 198.726 19.640 198.726C17.480 198.726 16.440 198.086 16.440 197.566C16.440 197.126 16.800 197.166 17.720 196.886C18.960 196.526 20.400 195.446 20.400 193.126C20.400 190.926 19 189.046 16.560 189.046C13.880 189.046 12.280 191.166 12.280 193.646C12.280 196.246 13.840 200.166 19.880 200.166C22.560 200.166 27.760 198.966 27.760 192.166C27.760 189.886 27.040 186.086 26.600 183.606C26.520 183.126 26.560 183.166 27.120 182.926C31.160 181.326 33.840 177.926 33.840 173.406C33.840 168.286 30.080 163.766 24.200 163.766C23.080 163.766 23.200 163.966 23.040 163.046L22.040 157.246C21.960 156.766 22.040 156.726 22.280 156.486C22.920 155.886 23.760 155.046 24.520 154.206C27.880 150.526 29.880 145.766 29.880 141.246C29.880 137.766 28.920 134.326 27.280 131.926C26.680 131.046 25.640 129.926 25.200 129.926ZM20.040 158.086C20.440 157.766 20.520 157.806 20.600 158.246L21.440 163.366C21.560 164.126 21.560 164.086 20.840 164.326C17.320 165.526 15.040 168.686 15.040 172.086C15.040 175.686 16.920 178.246 19.640 179.166C19.960 179.286 20.440 179.406 20.720 179.406C21.040 179.406 21.200 179.206 21.200 178.966C21.200 178.686 20.880 178.566 20.600 178.446C18.920 177.726 17.720 176.006 17.720 174.166C17.720 171.886 19.280 170.166 21.720 169.486C22.360 169.326 22.440 169.366 22.520 169.806L24.520 181.726C24.600 182.166 24.560 182.166 23.960 182.286C23.320 182.406 22.520 182.486 21.720 182.486C14.720 182.486 10.200 178.606 10.200 173.046C10.200 170.686 10.600 167.526 13.920 163.766C16.320 161.086 18.160 159.606 20.040 158.086ZM24.640 169.166C27.880 169.446 30.560 172.166 30.560 175.686C30.560 178.206 29.040 180.246 26.800 181.366C26.320 181.606 26.240 181.606 26.160 181.126L24.200 169.726C24.120 169.246 24.160 169.126 24.640 169.166ZM25.800 136.126C27.120 136.126 28.200 137.206 28.200 139.406C28.200 142.166 26.880 144.726 23.760 147.846C23.120 148.486 22.160 149.406 21.240 150.206C20.960 150.446 20.800 150.406 20.720 149.886C20.560 148.846 20.480 147.486 20.480 146.206C20.480 139.966 23.360 136.126 25.800 136.126Z"></path></g><g></g><path d="M57.820 153.806C56.620 153.806 55.220 154.126 54.140 154.606C50.580 156.166 48.700 160.446 48.700 164.246C48.700 164.606 48.700 164.966 48.740 165.326C48.940 167.486 49.980 169.526 51.300 171.126C52.820 172.966 55.020 173.806 57.420 173.806C64.420 173.806 65.460 167.446 65.460 166.286C65.460 165.406 65.020 165.406 64.860 165.406C64.540 165.406 64.260 165.446 64.260 166.126C64.260 171.286 59.860 172.486 58.580 172.486C55.340 172.486 53.620 169.326 53.620 162.726C53.620 156.126 56.660 154.766 58.820 154.766C60.900 154.766 61.740 155.726 61.740 156.126C61.740 156.486 61.620 157.006 61.020 157.006C59.420 157.006 58.500 158.726 58.500 159.966C58.500 162.246 60.460 162.966 61.580 162.966C61.580 162.966 64.620 162.846 64.620 159.526C64.620 154.286 58.580 153.806 57.820 153.806Z"></path></g><g><line stroke="black" stroke-width="1.6" x1="364.80609673205146" x2="364.80609673205146" y1="143.8461538461538" y2="183.8461538461538"></line></g><g><g><path d="M93.360 199.486C97.360 199.486 102.280 195.766 102.280 191.966C102.280 189.686 100.480 188.206 97.880 188.206C92.960 188.206 89 191.846 89 195.726C89 198.086 90.920 199.486 93.360 199.486Z"></path></g><g><path d="M93.360 154.486C97.360 154.486 102.280 150.766 102.280 146.966C102.280 144.686 100.480 143.206 97.880 143.206C92.960 143.206 89 146.846 89 150.726C89 153.086 90.920 154.486 93.360 154.486Z"></path></g><g><path d="M93.360 144.486C97.360 144.486 102.280 140.766 102.280 136.966C102.280 134.686 100.480 133.206 97.880 133.206C92.960 133.206 89 136.846 89 140.726C89 143.086 90.920 144.486 93.360 144.486Z"></path></g><line stroke="#000000" stroke-width="1.2" x1="89.6" x2="89.6" y1="140.68615384615381" y2="225.68615384615381"></line><line stroke="#000000" stroke-width="2.2" x1="85.8" x2="107.72" y1="193.8461538461538" y2="193.8461538461538"></line><text font-family="Alegreya" font-size="22" text-anchor="middle" x="95.64" y="223.8461538461538">normal</text></g><g><g><path d="M160.340 199.486C164.340 199.486 169.260 195.766 169.260 191.966C169.260 189.686 167.460 188.206 164.860 188.206C159.940 188.206 155.980 191.846 155.980 195.726C155.980 198.086 157.900 199.486 160.340 199.486Z"></path></g><g><path d="M160.340 154.486C164.340 154.486 169.260 150.766 169.260 146.966C169.260 144.686 167.460 143.206 164.860 143.206C159.940 143.206 155.980 146.846 155.980 150.726C155.980 153.086 157.900 154.486 160.340 154.486Z"></path></g><g><path d="M160.340 144.486C164.340 144.486 169.260 140.766 169.260 136.966C169.260 134.686 167.460 133.206 164.860 133.206C159.940 133.206 155.980 136.846 155.980 140.726C155.980 143.086 157.900 144.486 160.340 144.486Z"></path></g><line stroke="#000000" stroke-width="1.2" x1="156.57977418301286" x2="156.57977418301286" y1="140.68615384615381" y2="225.68615384615381"></line><line stroke="#000000" stroke-width="2.2" x1="152.77977418301288" x2="174.69977418301286" y1="193.8461538461538" y2="193.8461538461538"></line><text font-family="Alegreya" font-size="22" text-anchor="middle" x="162.61977418301285" y="223.8461538461538">up</text></g><g><g><path d="M227.320 199.486C231.320 199.486 236.240 195.766 236.240 191.966C236.240 189.686 234.440 188.206 231.840 188.206C226.920 188.206 222.960 191.846 222.960 195.726C222.960 198.086 224.880 199.486 227.320 199.486Z"></path></g><g><path d="M227.320 154.486C231.320 154.486 236.240 150.766 236.240 146.966C236.240 144.686 234.440 143.206 231.840 143.206C226.920 143.206 222.960 146.846 222.960 150.726C222.960 153.086 224.880 154.486 227.320 154.486Z"></path></g><g><path d="M227.320 144.486C231.320 144.486 236.240 140.766 236.240 136.966C236.240 134.686 234.440 133.206 231.840 133.206C226.920 133.206 222.960 136.846 222.960 140.726C222.960 143.086 224.880 144.486 227.320 144.486Z"></path></g><line stroke="#000000" stroke-width="1.2" x1="223.5595483660257" x2="223.5595483660257" y1="140.68615384615381" y2="225.68615384615381"></line><line stroke="#000000" stroke-width="2.2" x1="219.7595483660257" x2="241.6795483660257" y1="193.8461538461538" y2="193.8461538461538"></line><text font-family="Alegreya" font-size="22" text-anchor="middle" x="229.59954836602572" y="223.8461538461538">normal</text></g><g><g><path d="M307.488 199.486C311.488 199.486 316.408 195.766 316.408 191.966C316.408 189.686 314.608 188.206 312.008 188.206C307.088 188.206 303.128 191.846 303.128 195.726C303.128 198.086 305.048 199.486 307.488 199.486Z"></path></g><g><path d="M307.488 154.486C311.488 154.486 316.408 150.766 316.408 146.966C316.408 144.686 314.608 143.206 312.008 143.206C307.088 143.206 303.128 146.846 303.128 150.726C303.128 153.086 305.048 154.486 307.488 154.486Z"></path></g><g><path d="M307.488 144.486C311.488 144.486 316.408 140.766 316.408 136.966C316.408 134.686 314.608 133.206 312.008 133.206C307.088 133.206 303.128 136.846 303.128 140.726C303.128 143.086 305.048 144.486 307.488 144.486Z"></path></g><line stroke="#000000" stroke-width="1.2" x1="303.7283225490386" x2="303.7283225490386" y1="140.68615384615381" y2="225.68615384615381"></line><line stroke="#000000" stroke-width="2.2" x1="299.92832254903857" x2="321.8483225490386" y1="193.8461538461538" y2="193.8461538461538"></line><text font-family="Alegreya" font-size="22" text-anchor="middle" x="309.76832254903854" y="223.8461538461538">down</text></g></g><g transform="translate(544.4522505782052)"><g><g><line stroke="#6A6A6A" stroke-width="1.3" x1="-16.599999999999966" x2="203.42233225490378" y1="183.8461538461538" y2="183.8461538461538"></line><line stroke="#6A6A6A" stroke-width="1.3" x1="-16.599999999999966" x2="203.42233225490378" y1="173.8461538461538" y2="173.8461538461538"></line><line stroke="#6A6A6A" stroke-width="1.3" x1="-16.599999999999966" x2="203.42233225490378" y1="163.8461538461538" y2="163.8461538461538"></line><line stroke="#6A6A6A" stroke-width="1.3" x1="-16.599999999999966" x2="203.42233225490378" y1="153.8461538461538" y2="153.8461538461538"></line><line stroke="#6A6A6A" stroke-width="1.3" x1="-16.599999999999966" x2="203.42233225490378" y1="143.8461538461538" y2="143.8461538461538"></line></g></g><g><line stroke="#000000" stroke-width="1.6" x1="193.62233225490382" x2="193.62233225490382" y1="143.8461538461538" y2="183.8461538461538"></line><line stroke="#000000" stroke-width="5" x1="200.9223322549038" x2="200.9223322549038" y1="143.8461538461538" y2="183.8461538461538"></line></g><g><g><path d="M24.511 199.486C28.511 199.486 33.431 195.766 33.431 191.966C33.431 189.686 31.631 188.206 29.031 188.206C24.111 188.206 20.151 191.846 20.151 195.726C20.151 198.086 22.071 199.486 24.511 199.486Z"></path></g><g><path d="M24.511 154.486C28.511 154.486 33.431 150.766 33.431 146.966C33.431 144.686 31.631 143.206 29.031 143.206C24.111 143.206 20.151 146.846 20.151 150.726C20.151 153.086 22.071 154.486 24.511 154.486Z"></path></g><g><path d="M24.511 144.486C28.511 144.486 33.431 140.766 33.431 136.966C33.431 134.686 31.631 133.206 29.031 133.206C24.111 133.206 20.151 136.846 20.151 140.726C20.151 143.086 22.071 144.486 24.511 144.486Z"></path></g><line stroke="#000000" stroke-width="1.2" x1="20.75099999999999" x2="20.75099999999999" y1="140.68615384615381" y2="225.68615384615381"></line><line stroke="#000000" stroke-width="2.2" x1="16.95099999999999" x2="38.87099999999998" y1="193.8461538461538" y2="193.8461538461538"></line><text font-family="Alegreya" font-size="22" text-anchor="middle" x="26.79099999999999" y="223.8461538461538">normal</text></g><g><g><path d="M94.303 199.486C98.303 199.486 103.223 195.766 103.223 191.966C103.223 189.686 101.423 188.206 98.823 188.206C93.903 188.206 89.943 191.846 89.943 195.726C89.943 198.086 91.863 199.486 94.303 199.486Z"></path></g><g><path d="M94.303 154.486C98.303 154.486 103.223 150.766 103.223 146.966C103.223 144.686 101.423 143.206 98.823 143.206C93.903 143.206 89.943 146.846 89.943 150.726C89.943 153.086 91.863 154.486 94.303 154.486Z"></path></g><g><path d="M94.303 144.486C98.303 144.486 103.223 140.766 103.223 136.966C103.223 134.686 101.423 133.206 98.823 133.206C93.903 133.206 89.943 136.846 89.943 140.726C89.943 143.086 91.863 144.486 94.303 144.486Z"></path></g><line stroke="#000000" stroke-width="1.2" x1="90.54277741830124" x2="90.54277741830124" y1="140.68615384615381" y2="225.68615384615381"></line><line stroke="#000000" stroke-width="2.2" x1="86.74277741830124" x2="108.66277741830125" y1="193.8461538461538" y2="193.8461538461538"></line><text font-family="Alegreya" font-size="22" text-anchor="middle" x="96.58277741830125" y="223.8461538461538">non-arp.</text></g><g><g><path d="M164.095 199.486C168.095 199.486 173.015 195.766 173.015 191.966C173.015 189.686 171.215 188.206 168.615 188.206C163.695 188.206 159.735 191.846 159.735 195.726C159.735 198.086 161.655 199.486 164.095 199.486Z"></path></g><g><path d="M164.095 154.486C168.095 154.486 173.015 150.766 173.015 146.966C173.015 144.686 171.215 143.206 168.615 143.206C163.695 143.206 159.735 146.846 159.735 150.726C159.735 153.086 161.655 154.486 164.095 154.486Z"></path></g><g><path d="M164.095 144.486C168.095 144.486 173.015 140.766 173.015 136.966C173.015 134.686 171.215 133.206 168.615 133.206C163.695 133.206 159.735 136.846 159.735 140.726C159.735 143.086 161.655 144.486 164.095 144.486Z"></path></g><line stroke="#000000" stroke-width="1.2" x1="160.3345548366025" x2="160.3345548366025" y1="140.68615384615381" y2="225.68615384615381"></line><line stroke="#000000" stroke-width="2.2" x1="156.53455483660252" x2="178.4545548366025" y1="193.8461538461538" y2="193.8461538461538"></line><text font-family="Alegreya" font-size="22" text-anchor="middle" x="166.3745548366025" y="223.8461538461538">normal</text></g></g></svg>