<?xml version="1.0" encoding="UTF-8" standalone="no"?><svg xmlns="http://www.w3.org/2000/svg" class="" height="279.4mm" viewBox="0 0 1328.6153846153845 1719.3846153846152" width="215.9mm"><g><g><g><line stroke="#6A6A6A" stroke-width="1.3" x1="93.84615384615385" x2="1020.004327930041" y1="183.8461538461538" y2="183.8461538461538"></line><line stroke="#6A6A6A" stroke-width="1.3" x1="93.84615384615385" x2="1020.004327930041" y1="173.8461538461538" y2="173.8461538461538"></line><line stroke="#6A6A6A" stroke-width="1.3" x1="93.84615384615385" x2="1020.004327930041" y1="163.8461538461538" y2="163.8461538461538"></line><line stroke="#6A6A6A" stroke-width="1.3" x1="93.84615384615385" x2="1020.004327930041" y1="153.8461538461538" y2="153.8461538461538"></line><line stroke="#6A6A6A" stroke-width="1.3" x1="93.84615384615385" x2="1020.004327930041" y1="143.8461538461538" y2="143.8461538461538"></line></g><g><path d="M119.046 129.926C118.486 129.926 117.246 130.966 116.446 131.846C113.486 135.126 112.526 140.126 112.526 144.286C112.526 146.606 112.806 149.206 113.086 150.846C113.166 151.326 113.206 151.406 112.726 151.806C110.166 153.926 107.406 156.366 105.326 158.926C102.566 162.366 100.846 166.086 100.846 170.366C100.846 177.326 105.606 183.926 115.406 183.926C116.326 183.926 117.366 183.846 118.166 183.686C118.606 183.606 118.686 183.566 118.766 184.046C119.246 186.726 119.846 190.206 119.846 192.086C119.846 198.006 115.846 198.726 113.486 198.726C111.326 198.726 110.286 198.086 110.286 197.566C110.286 197.126 110.646 197.166 111.566 196.886C112.806 196.526 114.246 195.446 114.246 193.126C114.246 190.926 112.846 189.046 110.406 189.046C107.726 189.046 106.126 191.166 106.126 193.646C106.126 196.246 107.686 200.166 113.726 200.166C116.406 200.166 121.606 198.966 121.606 192.166C121.606 189.886 120.886 186.086 120.446 183.606C120.366 183.126 120.406 183.166 120.966 182.926C125.006 181.326 127.686 177.926 127.686 173.406C127.686 168.286 123.926 163.766 118.046 163.766C116.926 163.766 117.046 163.966 116.886 163.046L115.886 157.246C115.806 156.766 115.886 156.726 116.126 156.486C116.766 155.886 117.606 155.046 118.366 154.206C121.726 150.526 123.726 145.766 123.726 141.246C123.726 137.766 122.766 134.326 121.126 131.926C120.526 131.046 119.486 129.926 119.046 129.926ZM113.886 158.086C114.286 157.766 114.366 157.806 114.446 158.246L115.286 163.366C115.406 164.126 115.406 164.086 114.686 164.326C111.166 165.526 108.886 168.686 108.886 172.086C108.886 175.686 110.766 178.246 113.486 179.166C113.806 179.286 114.286 179.406 114.566 179.406C114.886 179.406 115.046 179.206 115.046 178.966C115.046 178.686 114.726 178.566 114.446 178.446C112.766 177.726 111.566 176.006 111.566 174.166C111.566 171.886 113.126 170.166 115.566 169.486C116.206 169.326 116.286 169.366 116.366 169.806L118.366 181.726C118.446 182.166 118.406 182.166 117.806 182.286C117.166 182.406 116.366 182.486 115.566 182.486C108.566 182.486 104.046 178.606 104.046 173.046C104.046 170.686 104.446 167.526 107.766 163.766C110.166 161.086 112.006 159.606 113.886 158.086ZM118.486 169.166C121.726 169.446 124.406 172.166 124.406 175.686C124.406 178.206 122.886 180.246 120.646 181.366C120.166 181.606 120.086 181.606 120.006 181.126L118.046 169.726C117.966 169.246 118.006 169.126 118.486 169.166ZM119.646 136.126C120.966 136.126 122.046 137.206 122.046 139.406C122.046 142.166 120.726 144.726 117.606 147.846C116.966 148.486 116.006 149.406 115.086 150.206C114.806 150.446 114.646 150.406 114.566 149.886C114.406 148.846 114.326 147.486 114.326 146.206C114.326 139.966 117.206 136.126 119.646 136.126Z"></path></g><g></g><g><g><path d="M150.226 143.926C150.026 143.926 149.826 143.886 149.626 143.886C146.186 143.886 142.746 146.166 142.746 148.286C142.746 149.606 143.506 151.366 145.986 151.526L146.186 151.526C147.946 151.526 148.826 150.246 148.826 148.926L148.826 148.606C148.706 147.126 147.706 147.046 147.506 146.966C147.306 146.886 146.706 146.966 146.706 146.406L146.706 146.246C146.786 145.566 148.026 145.246 148.386 145.246C151.786 145.246 152.106 147.366 152.106 148.326L152.106 148.606C152.106 151.566 149.746 152.726 147.226 152.846C146.826 152.886 146.266 153.086 146.266 153.526C146.266 154.006 146.946 154.006 147.266 154.006C151.866 154.006 152.226 157.126 152.226 157.646C152.226 161.886 150.066 162.366 149.186 162.366C149.026 162.366 148.866 162.326 148.826 162.326C148.506 162.286 147.746 162.286 147.706 161.686L147.706 161.486C147.706 160.606 148.586 160.006 148.626 158.846C148.626 158.446 148.586 158.006 148.426 157.606C147.986 156.606 146.826 155.966 145.746 155.966C145.586 155.966 145.466 155.966 145.306 156.006C144.626 156.126 143.866 156.526 143.386 157.046C142.706 157.646 142.506 158.606 142.506 159.486C142.586 162.606 145.426 163.806 149.346 163.886L149.706 163.886C153.666 163.886 157.746 161.846 157.746 158.326L157.746 158.046C157.706 157.486 157.626 156.926 157.386 156.406C157.226 156.006 156.946 155.606 156.626 155.246C156.386 154.926 156.066 154.646 155.666 154.406L154.826 153.926L153.506 153.566C153.306 153.526 153.186 153.526 153.106 153.366C153.066 153.286 153.066 153.246 153.066 153.166C153.066 153.006 153.106 152.846 153.226 152.806C153.666 152.686 154.106 152.646 154.466 152.446C155.066 152.166 155.586 151.886 156.026 151.366C156.666 150.646 156.906 149.726 156.906 148.806C156.906 145.126 151.906 144.046 150.226 143.926Z"></path></g><g><path d="M154.666 172.406C156.106 171.486 157.066 170.166 157.066 168.166C157.066 164.086 151.186 163.486 150.106 163.486C145.466 163.486 142.306 165.606 142.306 168.966C142.306 171.726 143.866 173.206 145.786 174.286C143.706 175.286 142.106 176.606 142.106 179.126C142.106 182.606 145.706 184.206 149.666 184.206C153.666 184.206 157.946 182.486 157.946 177.086C157.946 174.686 156.546 173.366 154.666 172.406ZM149.506 182.886C146.826 182.886 144.386 181.526 144.386 178.926C144.386 177.326 145.786 175.846 147.546 175.166C150.466 176.446 153.426 177.286 153.426 179.926C153.426 181.526 152.186 182.886 149.506 182.886ZM152.586 171.486C149.386 170.366 145.986 169.686 145.986 167.166C145.986 165.486 148.266 164.646 150.026 164.646C151.306 164.646 154.706 165.286 154.706 168.086C154.706 169.686 153.906 170.726 152.586 171.486Z"></path></g><path d="M179.746 162.366C179.746 162.366 172.626 162.366 172.346 162.366C172.026 162.366 171.826 162.046 171.826 161.646C171.826 161.206 171.826 154.406 171.826 154.406C171.826 154.126 171.586 153.846 171.226 153.846L169.386 153.846C169.026 153.846 168.826 154.126 168.826 154.406C168.826 154.406 168.826 161.246 168.826 161.646C168.826 162.006 168.466 162.366 168.226 162.366C167.986 162.366 160.866 162.366 160.866 162.366C160.586 162.366 160.306 162.566 160.306 162.926L160.306 164.766C160.306 165.126 160.586 165.366 160.866 165.366C160.866 165.366 167.826 165.366 168.226 165.366C168.626 165.366 168.826 165.726 168.826 165.926C168.826 166.086 168.826 173.286 168.826 173.286C168.826 173.566 169.026 173.846 169.386 173.846L171.226 173.846C171.586 173.846 171.826 173.566 171.826 173.286C171.826 173.286 171.826 166.446 171.826 166.006C171.826 165.606 172.106 165.366 172.386 165.366C172.626 165.366 179.746 165.366 179.746 165.366C180.026 165.366 180.306 165.126 180.306 164.766L180.306 162.926C180.306 162.566 180.026 162.366 179.746 162.366Z"></path><g><path d="M198.706 157.486C198.706 157.006 198.506 156.926 198.226 156.926C197.906 156.926 197.786 157.086 197.706 157.326C197.706 157.366 197.666 157.406 197.666 157.446C197.266 158.406 196.946 159.166 196.106 159.166C195.906 159.166 195.706 159.126 195.426 159.046C194.906 158.846 194.626 158.806 194.226 158.606C193.426 158.286 191.546 157.646 189.906 157.646C189.386 157.646 188.866 157.726 188.426 157.886C189.306 156.446 192.706 155.246 193.586 155.006C194.186 154.846 195.866 154.526 197.186 153.446C198.146 152.686 198.906 151.526 198.906 149.766C198.906 147.886 198.106 146.526 197.066 145.646C195.026 143.926 191.906 143.686 191.026 143.686C189.946 143.686 188.586 143.726 187.546 143.966C186.146 144.246 184.746 145.086 183.786 146.206C183.106 147.046 182.666 148.046 182.666 149.126C182.666 149.686 182.786 150.246 183.026 150.846C183.626 152.086 184.866 153.046 186.306 153.046C188.746 153.046 189.106 150.526 189.106 149.526C189.106 147.126 186.346 147.006 186.346 146.206C186.426 145.646 187.146 144.686 189.506 144.686C193.066 144.686 193.106 147.366 193.106 148.526C193.106 150.046 192.626 151.446 191.746 152.606C190.306 154.526 189.186 155.486 187.226 156.686C185.026 158.086 183.466 160.046 182.786 162.566C182.786 162.646 182.746 162.726 182.746 162.806C182.746 163.246 183.026 163.766 183.466 164.046C183.586 164.126 183.706 164.126 183.786 164.126C184.666 164.126 185.146 161.686 187.506 161.686C189.106 161.686 189.706 163.846 193.266 163.846C194.986 163.846 198.066 163.686 198.706 157.486Z"></path></g><g><path d="M194.666 172.406C196.106 171.486 197.066 170.166 197.066 168.166C197.066 164.086 191.186 163.486 190.106 163.486C185.466 163.486 182.306 165.606 182.306 168.966C182.306 171.726 183.866 173.206 185.786 174.286C183.706 175.286 182.106 176.606 182.106 179.126C182.106 182.606 185.706 184.206 189.666 184.206C193.666 184.206 197.946 182.486 197.946 177.086C197.946 174.686 196.546 173.366 194.666 172.406ZM189.506 182.886C186.826 182.886 184.386 181.526 184.386 178.926C184.386 177.326 185.786 175.846 187.546 175.166C190.466 176.446 193.426 177.286 193.426 179.926C193.426 181.526 192.186 182.886 189.506 182.886ZM192.586 171.486C189.386 170.366 185.986 169.686 185.986 167.166C185.986 165.486 188.266 164.646 190.026 164.646C191.306 164.646 194.706 165.286 194.706 168.086C194.706 169.686 193.906 170.726 192.586 171.486Z"></path></g><path d="M219.746 162.366C219.746 162.366 212.626 162.366 212.346 162.366C212.026 162.366 211.826 162.046 211.826 161.646C211.826 161.206 211.826 154.406 211.826 154.406C211.826 154.126 211.586 153.846 211.226 153.846L209.386 153.846C209.026 153.846 208.826 154.126 208.826 154.406C208.826 154.406 208.826 161.246 208.826 161.646C208.826 162.006 208.466 162.366 208.226 162.366C207.986 162.366 200.866 162.366 200.866 162.366C200.586 162.366 200.306 162.566 200.306 162.926L200.306 164.766C200.306 165.126 200.586 165.366 200.866 165.366C200.866 165.366 207.826 165.366 208.226 165.366C208.626 165.366 208.826 165.726 208.826 165.926C208.826 166.086 208.826 173.286 208.826 173.286C208.826 173.566 209.026 173.846 209.386 173.846L211.226 173.846C211.586 173.846 211.826 173.566 211.826 173.286C211.826 173.286 211.826 166.446 211.826 166.006C211.826 165.606 212.106 165.366 212.386 165.366C212.626 165.366 219.746 165.366 219.746 165.366C220.026 165.366 220.306 165.126 220.306 164.766L220.306 162.926C220.306 162.566 220.026 162.366 219.746 162.366Z"></path><g><path d="M230.226 143.926C230.026 143.926 229.826 143.886 229.626 143.886C226.186 143.886 222.746 146.166 222.746 148.286C222.746 149.606 223.506 151.366 225.986 151.526L226.186 151.526C227.946 151.526 228.826 150.246 228.826 148.926L228.826 148.606C228.706 147.126 227.706 147.046 227.506 146.966C227.306 146.886 226.706 146.966 226.706 146.406L226.706 146.246C226.786 145.566 228.026 145.246 228.386 145.246C231.786 145.246 232.106 147.366 232.106 148.326L232.106 148.606C232.106 151.566 229.746 152.726 227.226 152.846C226.826 152.886 226.266 153.086 226.266 153.526C226.266 154.006 226.946 154.006 227.266 154.006C231.866 154.006 232.226 157.126 232.226 157.646C232.226 161.886 230.066 162.366 229.186 162.366C229.026 162.366 228.866 162.326 228.826 162.326C228.506 162.286 227.746 162.286 227.706 161.686L227.706 161.486C227.706 160.606 228.586 160.006 228.626 158.846C228.626 158.446 228.586 158.006 228.426 157.606C227.986 156.606 226.826 155.966 225.746 155.966C225.586 155.966 225.466 155.966 225.306 156.006C224.626 156.126 223.866 156.526 223.386 157.046C222.706 157.646 222.506 158.606 222.506 159.486C222.586 162.606 225.426 163.806 229.346 163.886L229.706 163.886C233.666 163.886 237.746 161.846 237.746 158.326L237.746 158.046C237.706 157.486 237.626 156.926 237.386 156.406C237.226 156.006 236.946 155.606 236.626 155.246C236.386 154.926 236.066 154.646 235.666 154.406L234.826 153.926L233.506 153.566C233.306 153.526 233.186 153.526 233.106 153.366C233.066 153.286 233.066 153.246 233.066 153.166C233.066 153.006 233.106 152.846 233.226 152.806C233.666 152.686 234.106 152.646 234.466 152.446C235.066 152.166 235.586 151.886 236.026 151.366C236.666 150.646 236.906 149.726 236.906 148.806C236.906 145.126 231.906 144.046 230.226 143.926Z"></path></g><g><path d="M239.026 176.806L236.106 176.806L236.106 168.246C236.106 167.926 236.066 167.566 235.626 167.566C235.266 167.566 235.066 167.646 234.826 167.926L231.026 172.526C230.866 172.726 230.666 172.966 230.666 173.446C230.666 173.446 230.666 175.046 230.666 176.806L225.266 176.806C228.466 174.086 234.866 165.006 234.986 164.566C234.986 164.486 235.026 164.446 235.026 164.366C235.026 164.046 234.746 163.806 234.426 163.806C234.066 163.806 232.426 163.886 231.706 163.886C230.986 163.886 229.186 163.806 228.866 163.806C228.506 163.806 227.946 163.926 227.946 164.566C227.946 169.526 224.026 175.086 222.826 176.766L222.586 177.086C222.586 177.126 222.546 177.166 222.546 177.206C222.466 177.366 222.426 177.526 222.426 177.646C222.426 178.046 222.746 178.326 223.226 178.326L230.666 178.326L230.666 180.846C230.666 181.926 229.786 182.246 229.066 182.246C228.426 182.246 228.146 182.606 228.146 183.006C228.146 183.406 228.306 183.846 228.906 183.846C229.546 183.846 237.426 183.846 237.426 183.846C237.826 183.846 238.226 183.566 238.226 183.006C238.226 182.446 237.746 182.206 237.346 182.206C236.946 182.206 236.106 181.966 236.106 180.686L236.106 178.326C237.826 178.326 239.026 178.326 239.026 178.326C239.426 178.326 239.626 178.046 239.626 177.566C239.626 177.086 239.466 176.806 239.026 176.806Z"></path></g></g></g><g><line stroke="black" stroke-width="1.6" x1="647.7825195080017" x2="647.7825195080017" y1="143.8461538461538" y2="183.8461538461538"></line></g><g><g><path d="M267.206 169.486C271.206 169.486 276.126 165.766 276.126 161.966C276.126 159.686 274.326 158.206 271.726 158.206C266.806 158.206 262.846 161.846 262.846 165.726C262.846 168.086 264.766 169.486 267.206 169.486Z"></path></g><line stroke="#000000" stroke-width="1.2" x1="263.4461538461539" x2="263.4461538461539" y1="165.68615384615381" y2="200.68615384615381"></line><path d="M272.446 175.806C273.006 177.486 273.286 179.486 273.286 181.286C273.286 183.646 272.286 187.006 271.686 188.366C270.206 191.726 268.206 194.966 262.846 196.766L262.846 206.166C262.846 206.646 263.046 206.766 263.286 206.766C264.046 206.766 264.366 206.526 264.446 205.886C265.126 202.086 268.086 198.606 270.126 195.446C272.646 191.486 275.086 186.726 275.086 181.726C275.086 178.606 274.286 175.766 273.966 174.486C273.646 173.206 271.846 174.086 272.446 175.806Z"></path></g><g><g><path d="M305.895 169.486C309.895 169.486 314.815 165.766 314.815 161.966C314.815 159.686 313.015 158.206 310.415 158.206C305.495 158.206 301.535 161.846 301.535 165.726C301.535 168.086 303.455 169.486 305.895 169.486Z"></path></g><line stroke="#000000" stroke-width="1.2" x1="302.1346863770505" x2="302.1346863770505" y1="165.68615384615381" y2="200.68615384615381"></line><path d="M311.135 175.806C311.695 177.486 311.975 179.486 311.975 181.286C311.975 183.646 310.975 187.006 310.375 188.366C308.895 191.726 306.895 194.966 301.535 196.766L301.535 206.166C301.535 206.646 301.735 206.766 301.975 206.766C302.735 206.766 303.055 206.526 303.135 205.886C303.815 202.086 306.775 198.606 308.815 195.446C311.335 191.486 313.775 186.726 313.775 181.726C313.775 178.606 312.975 175.766 312.655 174.486C312.335 173.206 310.535 174.086 311.135 175.806Z"></path></g><g><g><path d="M344.583 169.486C348.583 169.486 353.503 165.766 353.503 161.966C353.503 159.686 351.703 158.206 349.103 158.206C344.183 158.206 340.223 161.846 340.223 165.726C340.223 168.086 342.143 169.486 344.583 169.486Z"></path></g><line stroke="#000000" stroke-width="1.2" x1="340.8232189079472" x2="340.8232189079472" y1="165.68615384615381" y2="200.68615384615381"></line><path d="M349.823 175.806C350.383 177.486 350.663 179.486 350.663 181.286C350.663 183.646 349.663 187.006 349.063 188.366C347.583 191.726 345.583 194.966 340.223 196.766L340.223 206.166C340.223 206.646 340.423 206.766 340.663 206.766C341.423 206.766 341.743 206.526 341.823 205.886C342.503 202.086 345.463 198.606 347.503 195.446C350.023 191.486 352.463 186.726 352.463 181.726C352.463 178.606 351.663 175.766 351.343 174.486C351.023 173.206 349.223 174.086 349.823 175.806Z"></path></g><g><g><path d="M383.272 169.486C387.272 169.486 392.192 165.766 392.192 161.966C392.192 159.686 390.392 158.206 387.792 158.206C382.872 158.206 378.912 161.846 378.912 165.726C378.912 168.086 380.832 169.486 383.272 169.486Z"></path></g><line stroke="#000000" stroke-width="1.2" x1="379.5117514388439" x2="379.5117514388439" y1="165.68615384615381" y2="200.68615384615381"></line><path d="M388.512 175.806C389.072 177.486 389.352 179.486 389.352 181.286C389.352 183.646 388.352 187.006 387.752 188.366C386.272 191.726 384.272 194.966 378.912 196.766L378.912 206.166C378.912 206.646 379.112 206.766 379.352 206.766C380.112 206.766 380.432 206.526 380.512 205.886C381.192 202.086 384.152 198.606 386.192 195.446C388.712 191.486 391.152 186.726 391.152 181.726C391.152 178.606 390.352 175.766 390.032 174.486C389.712 173.206 387.912 174.086 388.512 175.806Z"></path></g><g><g><path d="M421.960 169.486C425.960 169.486 430.880 165.766 430.880 161.966C430.880 159.686 429.080 158.206 426.480 158.206C421.560 158.206 417.600 161.846 417.600 165.726C417.600 168.086 419.520 169.486 421.960 169.486Z"></path></g><line stroke="#000000" stroke-width="1.2" x1="418.2002839697405" x2="418.2002839697405" y1="165.68615384615381" y2="200.68615384615381"></line><path d="M427.200 175.806C427.760 177.486 428.040 179.486 428.040 181.286C428.040 183.646 427.040 187.006 426.440 188.366C424.960 191.726 422.960 194.966 417.600 196.766L417.600 206.166C417.600 206.646 417.800 206.766 418.040 206.766C418.800 206.766 419.120 206.526 419.200 205.886C419.880 202.086 422.840 198.606 424.880 195.446C427.400 191.486 429.840 186.726 429.840 181.726C429.840 178.606 429.040 175.766 428.720 174.486C428.400 173.206 426.600 174.086 427.200 175.806Z"></path></g><g><g><path d="M460.649 169.486C464.649 169.486 469.569 165.766 469.569 161.966C469.569 159.686 467.769 158.206 465.169 158.206C460.249 158.206 456.289 161.846 456.289 165.726C456.289 168.086 458.209 169.486 460.649 169.486Z"></path></g><line stroke="#000000" stroke-width="1.2" x1="456.8888165006372" x2="456.8888165006372" y1="165.68615384615381" y2="200.68615384615381"></line></g><g><g><path d="M524.213 169.486C528.213 169.486 533.133 165.766 533.133 161.966C533.133 159.686 531.333 158.206 528.733 158.206C523.813 158.206 519.853 161.846 519.853 165.726C519.853 168.086 521.773 169.486 524.213 169.486Z"></path></g><line stroke="#000000" stroke-width="1.2" x1="520.4533841697587" x2="520.4533841697587" y1="165.68615384615381" y2="200.68615384615381"></line></g><g><g><path d="M587.778 169.486C591.778 169.486 596.698 165.766 596.698 161.966C596.698 159.686 594.898 158.206 592.298 158.206C587.378 158.206 583.418 161.846 583.418 165.726C583.418 168.086 585.338 169.486 587.778 169.486Z"></path></g><line stroke="#000000" stroke-width="1.2" x1="584.0179518388802" x2="584.0179518388802" y1="165.68615384615381" y2="200.68615384615381"></line></g></g><g><g><g><g><path d="M671.503 150.726C669.183 150.726 667.463 151.126 666.183 151.886C666.103 151.926 666.023 151.926 665.983 151.926C665.823 151.926 665.823 151.766 665.823 151.646C665.823 151.566 665.823 151.486 665.823 151.486C665.823 151.486 665.983 149.246 666.023 148.886C666.063 148.566 666.263 148.366 666.623 148.366L666.783 148.366C667.183 148.446 669.063 148.726 670.703 148.726C676.263 148.726 676.463 145.526 676.463 144.886C676.463 144.366 676.343 144.046 675.903 144.046C675.383 144.046 672.263 144.406 670.983 144.406C669.703 144.406 666.263 144.086 665.583 144.006C664.863 144.006 664.663 144.366 664.623 144.686L664.183 153.566C664.183 153.606 664.183 153.606 664.183 153.646C664.183 154.166 664.583 154.246 664.983 154.246C665.383 154.246 665.423 153.886 665.863 153.446C666.263 153.046 667.223 152.126 668.583 152.126C669.943 152.126 672.703 152.886 672.703 157.326C672.703 161.726 670.343 162.286 669.303 162.286C668.983 162.286 668.663 162.286 668.383 162.166C668.183 162.046 667.943 161.886 667.903 161.606C667.903 161.326 668.183 161.166 668.383 161.046C669.303 160.486 669.903 159.486 669.903 158.366C669.903 156.606 668.503 155.246 666.783 155.246C664.623 155.246 663.743 156.806 663.623 158.206C663.583 158.446 663.583 158.686 663.583 158.926C663.583 162.246 665.743 163.886 670.663 163.886C675.463 163.886 678.103 160.926 678.103 157.326C678.103 153.686 675.143 150.726 671.503 150.726Z"></path></g><g><path d="M679.943 177.486C679.943 177.006 679.743 176.926 679.463 176.926C679.143 176.926 679.023 177.086 678.943 177.326C678.943 177.366 678.903 177.406 678.903 177.446C678.503 178.406 678.183 179.166 677.343 179.166C677.143 179.166 676.943 179.126 676.663 179.046C676.143 178.846 675.863 178.806 675.463 178.606C674.663 178.286 672.783 177.646 671.143 177.646C670.623 177.646 670.103 177.726 669.663 177.886C670.543 176.446 673.943 175.246 674.823 175.006C675.423 174.846 677.103 174.526 678.423 173.446C679.383 172.686 680.143 171.526 680.143 169.766C680.143 167.886 679.343 166.526 678.303 165.646C676.263 163.926 673.143 163.686 672.263 163.686C671.183 163.686 669.823 163.726 668.783 163.966C667.383 164.246 665.983 165.086 665.023 166.206C664.343 167.046 663.903 168.046 663.903 169.126C663.903 169.686 664.023 170.246 664.263 170.846C664.863 172.086 666.103 173.046 667.543 173.046C669.983 173.046 670.343 170.526 670.343 169.526C670.343 167.126 667.583 167.006 667.583 166.206C667.663 165.646 668.383 164.686 670.743 164.686C674.303 164.686 674.343 167.366 674.343 168.526C674.343 170.046 673.863 171.446 672.983 172.606C671.543 174.526 670.423 175.486 668.463 176.686C666.263 178.086 664.703 180.046 664.023 182.566C664.023 182.646 663.983 182.726 663.983 182.806C663.983 183.246 664.263 183.766 664.703 184.046C664.823 184.126 664.943 184.126 665.023 184.126C665.903 184.126 666.383 181.686 668.743 181.686C670.343 181.686 670.943 183.846 674.503 183.846C676.223 183.846 679.303 183.686 679.943 177.486Z"></path></g><path d="M700.983 162.366C700.983 162.366 693.863 162.366 693.583 162.366C693.263 162.366 693.063 162.046 693.063 161.646C693.063 161.206 693.063 154.406 693.063 154.406C693.063 154.126 692.823 153.846 692.463 153.846L690.623 153.846C690.263 153.846 690.063 154.126 690.063 154.406C690.063 154.406 690.063 161.246 690.063 161.646C690.063 162.006 689.703 162.366 689.463 162.366C689.223 162.366 682.103 162.366 682.103 162.366C681.823 162.366 681.543 162.566 681.543 162.926L681.543 164.766C681.543 165.126 681.823 165.366 682.103 165.366C682.103 165.366 689.063 165.366 689.463 165.366C689.863 165.366 690.063 165.726 690.063 165.926C690.063 166.086 690.063 173.286 690.063 173.286C690.063 173.566 690.263 173.846 690.623 173.846L692.463 173.846C692.823 173.846 693.063 173.566 693.063 173.286C693.063 173.286 693.063 166.446 693.063 166.006C693.063 165.606 693.343 165.366 693.623 165.366C693.863 165.366 700.983 165.366 700.983 165.366C701.263 165.366 701.543 165.126 701.543 164.766L701.543 162.926C701.543 162.566 701.263 162.366 700.983 162.366Z"></path><g><path d="M704.703 153.326C704.703 153.326 704.543 153.566 704.543 153.846C704.543 154.046 704.663 154.286 704.983 154.406C705.143 154.446 705.223 154.486 705.343 154.486C705.743 154.486 705.903 154.126 705.903 154.126C705.903 154.126 707.623 151.366 708.063 150.606C708.223 150.326 708.383 150.206 708.463 150.206C708.623 150.206 708.703 150.526 708.703 150.766L708.703 161.086C708.703 162.006 707.783 162.606 706.943 162.606C706.663 162.606 706.263 162.726 706.263 163.206C706.263 163.646 706.623 163.846 707.143 163.846L715.663 163.846C716.303 163.846 716.303 163.206 716.303 163.206C716.303 163.206 716.303 162.606 715.703 162.606C715.143 162.606 714.423 161.886 714.423 161.206C714.423 161.206 714.423 145.366 714.423 144.726C714.423 144.086 714.183 143.846 713.623 143.806C713.063 143.806 712.063 143.966 711.543 143.966C710.783 143.966 710.063 143.926 709.463 143.846C709.383 143.846 709.303 143.806 709.263 143.806C708.823 143.806 708.703 144.206 708.543 144.566Z"></path></g><g><path d="M715.903 172.406C717.343 171.486 718.303 170.166 718.303 168.166C718.303 164.086 712.423 163.486 711.343 163.486C706.703 163.486 703.543 165.606 703.543 168.966C703.543 171.726 705.103 173.206 707.023 174.286C704.943 175.286 703.343 176.606 703.343 179.126C703.343 182.606 706.943 184.206 710.903 184.206C714.903 184.206 719.183 182.486 719.183 177.086C719.183 174.686 717.783 173.366 715.903 172.406ZM710.743 182.886C708.063 182.886 705.623 181.526 705.623 178.926C705.623 177.326 707.023 175.846 708.783 175.166C711.703 176.446 714.663 177.286 714.663 179.926C714.663 181.526 713.423 182.886 710.743 182.886ZM713.823 171.486C710.623 170.366 707.223 169.686 707.223 167.166C707.223 165.486 709.503 164.646 711.263 164.646C712.543 164.646 715.943 165.286 715.943 168.086C715.943 169.686 715.143 170.726 713.823 171.486Z"></path></g></g></g><g><line stroke="#000000" stroke-width="1.6" x1="1010.2043279300409" x2="1010.2043279300409" y1="143.8461538461538" y2="183.8461538461538"></line><line stroke="#000000" stroke-width="5" x1="1017.504327930041" x2="1017.504327930041" y1="143.8461538461538" y2="183.8461538461538"></line></g><g><g><path d="M745.443 175.406L745.443 162.486C745.443 162.326 745.283 162.166 745.043 162.166L744.483 162.166C744.243 162.166 744.083 162.326 744.083 162.486L744.083 175.406C744.083 175.566 744.243 175.686 744.483 175.686L745.043 175.686C745.283 175.686 745.443 175.566 745.443 175.406ZM747.963 175.406L747.963 162.486C747.963 162.326 747.763 162.166 747.563 162.166L747.003 162.166C746.763 162.166 746.603 162.326 746.603 162.486L746.603 175.406C746.603 175.566 746.763 175.686 747.003 175.686L747.563 175.686C747.763 175.686 747.963 175.566 747.963 175.406ZM757.363 163.486C751.603 163.486 748.003 165.926 748.003 168.926C748.003 171.766 750.483 174.406 756.923 174.406C764.043 174.406 766.323 171.926 766.323 168.926C766.323 165.806 761.443 163.486 757.363 163.486ZM752.803 166.206C753.283 164.726 754.883 164.526 756.243 164.526C759.203 164.526 761.603 167.686 761.603 170.326C761.603 170.606 761.563 170.886 761.523 171.126C761.323 172.206 760.683 172.966 759.603 173.246C759.203 173.366 758.763 173.406 758.323 173.406C757.923 173.406 757.563 173.366 757.163 173.246C756.403 173.006 755.683 172.606 755.083 172.086C754.763 171.806 754.443 171.446 754.163 171.126C753.363 170.086 752.683 168.606 752.683 167.206C752.683 166.846 752.723 166.526 752.803 166.206ZM767.763 175.406L767.763 162.486C767.763 162.326 767.563 162.166 767.363 162.166L766.763 162.166C766.563 162.166 766.363 162.326 766.363 162.486L766.363 175.406C766.363 175.566 766.563 175.686 766.763 175.686L767.363 175.686C767.563 175.686 767.763 175.566 767.763 175.406ZM770.283 175.406L770.283 162.486C770.283 162.326 770.083 162.166 769.843 162.166L769.283 162.166C769.083 162.166 768.843 162.326 768.843 162.486L768.843 175.406C768.843 175.566 769.083 175.686 769.283 175.686L769.843 175.686C770.083 175.686 770.283 175.566 770.283 175.406Z"></path></g></g><g><g><path d="M886.755 174.646C894.395 174.646 895.915 168.446 895.915 166.926C895.915 164.566 894.035 163.046 891.355 163.046C884.435 163.046 882.275 168.406 882.275 170.806C882.275 173.246 884.235 174.646 886.755 174.646ZM890.275 170.966C888.195 172.366 886.755 172.846 885.755 172.846C884.795 172.846 884.235 172.366 883.915 171.806C883.755 171.526 883.635 171.206 883.635 170.886C883.635 169.886 884.635 168.606 887.835 166.766C890.115 165.446 891.555 164.966 892.515 164.966C893.395 164.966 893.875 165.366 894.195 165.926C894.355 166.206 894.475 166.486 894.475 166.806C894.475 167.726 893.515 168.846 890.275 170.966Z"></path></g><line stroke="#000000" stroke-width="1.2" x1="895.3151925917979" x2="895.3151925917979" y1="166.92615384615382" y2="128.92615384615382"></line></g><g><g><path d="M975.076 174.486C979.076 174.486 983.996 170.766 983.996 166.966C983.996 164.686 982.196 163.206 979.596 163.206C974.676 163.206 970.716 166.846 970.716 170.726C970.716 173.086 972.636 174.486 975.076 174.486Z"></path></g><line stroke="#000000" stroke-width="1.2" x1="983.3957953991443" x2="983.3957953991443" y1="167.0061538461538" y2="129.0061538461538"></line><path d="M992.316 155.086C992.316 155.086 993.356 151.286 993.356 148.166C993.356 143.166 991.276 138.446 988.756 134.446C986.716 131.286 985.036 127.846 984.396 124.006C984.276 123.366 983.956 123.126 983.196 123.126C982.956 123.126 982.796 123.246 982.796 123.726L982.796 133.286C985.436 133.766 989.236 139.206 990.676 142.606C991.276 143.966 991.636 146.246 991.636 148.606C991.636 150.406 991.356 152.286 990.676 154.086C990.596 154.326 990.556 154.526 990.556 154.686C990.556 155.326 990.956 155.686 991.196 155.846C991.436 156.006 992.116 155.766 992.316 155.086Z"></path></g></g></svg>