<?xml version="1.0" encoding="UTF-8" standalone="no"?><svg xmlns="http://www.w3.org/2000/svg" class="" height="279.4mm" viewBox="0 0 1328.6153846153845 1719.3846153846152" width="215.9mm"><g><g><g><line stroke="#6A6A6A" stroke-width="1.3" x1="93.84615384615385" x2="255.02693015449444" y1="183.8461538461538" y2="183.8461538461538"></line><line stroke="#6A6A6A" stroke-width="1.3" x1="93.84615384615385" x2="255.02693015449444" y1="173.8461538461538" y2="173.8461538461538"></line><line stroke="#6A6A6A" stroke-width="1.3" x1="93.84615384615385" x2="255.02693015449444" y1="163.8461538461538" y2="163.8461538461538"></line><line stroke="#6A6A6A" stroke-width="1.3" x1="93.84615384615385" x2="255.02693015449444" y1="153.8461538461538" y2="153.8461538461538"></line><line stroke="#6A6A6A" stroke-width="1.3" x1="93.84615384615385" x2="255.02693015449444" y1="143.8461538461538" y2="143.8461538461538"></line></g><g><path d="M119.046 129.926C118.486 129.926 117.246 130.966 116.446 131.846C113.486 135.126 112.526 140.126 112.526 144.286C112.526 146.606 112.806 149.206 113.086 150.846C113.166 151.326 113.206 151.406 112.726 151.806C110.166 153.926 107.406 156.366 105.326 158.926C102.566 162.366 100.846 166.086 100.846 170.366C100.846 177.326 105.606 183.926 115.406 183.926C116.326 183.926 117.366 183.846 118.166 183.686C118.606 183.606 118.686 183.566 118.766 184.046C119.246 186.726 119.846 190.206 119.846 192.086C119.846 198.006 115.846 198.726 113.486 198.726C111.326 198.726 110.286 198.086 110.286 197.566C110.286 197.126 110.646 197.166 111.566 196.886C112.806 196.526 114.246 195.446 114.246 193.126C114.246 190.926 112.846 189.046 110.406 189.046C107.726 189.046 106.126 191.166 106.126 193.646C106.126 196.246 107.686 200.166 113.726 200.166C116.406 200.166 121.606 198.966 121.606 192.166C121.606 189.886 120.886 186.086 120.446 183.606C120.366 183.126 120.406 183.166 120.966 182.926C125.006 181.326 127.686 177.926 127.686 173.406C127.686 168.286 123.926 163.766 118.046 163.766C116.926 163.766 117.046 163.966 116.886 163.046L115.886 157.246C115.806 156.766 115.886 156.726 116.126 156.486C116.766 155.886 117.606 155.046 118.366 154.206C121.726 150.526 123.726 145.766 123.726 141.246C123.726 137.766 122.766 134.326 121.126 131.926C120.526 131.046 119.486 129.926 119.046 129.926ZM113.886 158.086C114.286 157.766 114.366 157.806 114.446 158.246L115.286 163.366C115.406 164.126 115.406 164.086 114.686 164.326C111.166 165.526 108.886 168.686 108.886 172.086C108.886 175.686 110.766 178.246 113.486 179.166C113.806 179.286 114.286 179.406 114.566 179.406C114.886 179.406 115.046 179.206 115.046 178.966C115.046 178.686 114.726 178.566 114.446 178.446C112.766 177.726 111.566 176.006 111.566 174.166C111.566 171.886 113.126 170.166 115.566 169.486C116.206 169.326 116.286 169.366 116.366 169.806L118.366 181.726C118.446 182.166 118.406 182.166 117.806 182.286C117.166 182.406 116.366 182.486 115.566 182.486C108.566 182.486 104.046 178.606 104.046 173.046C104.046 170.686 104.446 167.526 107.766 163.766C110.166 161.086 112.006 159.606 113.886 158.086ZM118.486 169.166C121.726 169.446 124.406 172.166 124.406 175.686C124.406 178.206 122.886 180.246 120.646 181.366C120.166 181.606 120.086 181.606 120.006 181.126L118.046 169.726C117.966 169.246 118.006 169.126 118.486 169.166ZM119.646 136.126C120.966 136.126 122.046 137.206 122.046 139.406C122.046 142.166 120.726 144.726 117.606 147.846C116.966 148.486 116.006 149.406 115.086 150.206C114.806 150.446 114.646 150.406 114.566 149.886C114.406 148.846 114.326 147.486 114.326 146.206C114.326 139.966 117.206 136.126 119.646 136.126Z"></path></g><g></g></g><g><line stroke="#000000" stroke-width="1.6" x1="245.22693015449443" x2="245.22693015449443" y1="143.8461538461538" y2="183.8461538461538"></line><line stroke="#000000" stroke-width="5" x1="252.5269301544944" x2="252.5269301544944" y1="143.8461538461538" y2="183.8461538461538"></line></g><g><g><path d="M146.706 169.486C150.706 169.486 155.626 165.766 155.626 161.966C155.626 159.686 153.826 158.206 151.226 158.206C146.306 158.206 142.346 161.846 142.346 165.726C142.346 168.086 144.266 169.486 146.706 169.486Z"></path></g><line stroke="#000000" stroke-width="1.2" x1="142.94615384615386" x2="142.94615384615386" y1="165.68615384615381" y2="200.68615384615381"></line><path d="M151.946 175.806C152.506 177.486 152.786 179.486 152.786 181.286C152.786 183.646 151.786 187.006 151.186 188.366C149.706 191.726 147.706 194.966 142.346 196.766L142.346 206.166C142.346 206.646 142.546 206.766 142.786 206.766C143.546 206.766 143.866 206.526 143.946 205.886C144.626 202.086 147.586 198.606 149.626 195.446C152.146 191.486 154.586 186.726 154.586 181.726C154.586 178.606 153.786 175.766 153.466 174.486C153.146 173.206 151.346 174.086 151.946 175.806Z"></path></g><g><g><path d="M180.733 169.486C184.733 169.486 189.653 165.766 189.653 161.966C189.653 159.686 187.853 158.206 185.253 158.206C180.333 158.206 176.373 161.846 176.373 165.726C176.373 168.086 178.293 169.486 180.733 169.486Z"></path></g><line stroke="#000000" stroke-width="1.2" x1="176.97307928226738" x2="176.97307928226738" y1="165.68615384615381" y2="200.68615384615381"></line><path d="M185.973 175.806C186.533 177.486 186.813 179.486 186.813 181.286C186.813 183.646 185.813 187.006 185.213 188.366C183.733 191.726 181.733 194.966 176.373 196.766L176.373 206.166C176.373 206.646 176.573 206.766 176.813 206.766C177.573 206.766 177.893 206.526 177.973 205.886C178.653 202.086 181.613 198.606 183.653 195.446C186.173 191.486 188.613 186.726 188.613 181.726C188.613 178.606 187.813 175.766 187.493 174.486C187.173 173.206 185.373 174.086 185.973 175.806Z"></path></g><g><g><path d="M214.760 169.486C218.760 169.486 223.680 165.766 223.680 161.966C223.680 159.686 221.880 158.206 219.280 158.206C214.360 158.206 210.400 161.846 210.400 165.726C210.400 168.086 212.320 169.486 214.760 169.486Z"></path></g><line stroke="#000000" stroke-width="1.2" x1="211.0000047183809" x2="211.0000047183809" y1="165.68615384615381" y2="200.68615384615381"></line><path d="M220.000 175.806C220.560 177.486 220.840 179.486 220.840 181.286C220.840 183.646 219.840 187.006 219.240 188.366C217.760 191.726 215.760 194.966 210.400 196.766L210.400 206.166C210.400 206.646 210.600 206.766 210.840 206.766C211.600 206.766 211.920 206.526 212.000 205.886C212.680 202.086 215.640 198.606 217.680 195.446C220.200 191.486 222.640 186.726 222.640 181.726C222.640 178.606 221.840 175.766 221.520 174.486C221.200 173.206 219.400 174.086 220.000 175.806Z"></path></g></g></svg>