<?xml version="1.0" encoding="UTF-8" standalone="no"?><svg xmlns="http://www.w3.org/2000/svg" height="279.4mm" viewBox="0 0 1328.6153846153845 1719.3846153846152" width="215.9mm"><g transform="translate(93.84615384615385)"><g><g><line stroke="#6A6A6A" stroke-width="1.3" x1="0" x2="301.6593833716229" y1="183.8461538461538" y2="183.8461538461538"></line><line stroke="#6A6A6A" stroke-width="1.3" x1="0" x2="301.6593833716229" y1="173.8461538461538" y2="173.8461538461538"></line><line stroke="#6A6A6A" stroke-width="1.3" x1="0" x2="301.6593833716229" y1="163.8461538461538" y2="163.8461538461538"></line><line stroke="#6A6A6A" stroke-width="1.3" x1="0" x2="301.6593833716229" y1="153.8461538461538" y2="153.8461538461538"></line><line stroke="#6A6A6A" stroke-width="1.3" x1="0" x2="301.6593833716229" y1="143.8461538461538" y2="143.8461538461538"></line></g><g><path d="M25.200 129.926C24.640 129.926 23.400 130.966 22.600 131.846C19.640 135.126 18.680 140.126 18.680 144.286C18.680 146.606 18.960 149.206 19.240 150.846C19.320 151.326 19.360 151.406 18.880 151.806C16.320 153.926 13.560 156.366 11.480 158.926C8.720 162.366 7 166.086 7 170.366C7 177.326 11.760 183.926 21.560 183.926C22.480 183.926 23.520 183.846 24.320 183.686C24.760 183.606 24.840 183.566 24.920 184.046C25.400 186.726 26 190.206 26 192.086C26 198.006 22 198.726 19.640 198.726C17.480 198.726 16.440 198.086 16.440 197.566C16.440 197.126 16.800 197.166 17.720 196.886C18.960 196.526 20.400 195.446 20.400 193.126C20.400 190.926 19 189.046 16.560 189.046C13.880 189.046 12.280 191.166 12.280 193.646C12.280 196.246 13.840 200.166 19.880 200.166C22.560 200.166 27.760 198.966 27.760 192.166C27.760 189.886 27.040 186.086 26.600 183.606C26.520 183.126 26.560 183.166 27.120 182.926C31.160 181.326 33.840 177.926 33.840 173.406C33.840 168.286 30.080 163.766 24.200 163.766C23.080 163.766 23.200 163.966 23.040 163.046L22.040 157.246C21.960 156.766 22.040 156.726 22.280 156.486C22.920 155.886 23.760 155.046 24.520 154.206C27.880 150.526 29.880 145.766 29.880 141.246C29.880 137.766 28.920 134.326 27.280 131.926C26.680 131.046 25.640 129.926 25.200 129.926ZM20.040 158.086C20.440 157.766 20.520 157.806 20.600 158.246L21.440 163.366C21.560 164.126 21.560 164.086 20.840 164.326C17.320 165.526 15.040 168.686 15.040 172.086C15.040 175.686 16.920 178.246 19.640 179.166C19.960 179.286 20.440 179.406 20.720 179.406C21.040 179.406 21.200 179.206 21.200 178.966C21.200 178.686 20.880 178.566 20.600 178.446C18.920 177.726 17.720 176.006 17.720 174.166C17.720 171.886 19.280 170.166 21.720 169.486C22.360 169.326 22.440 169.366 22.520 169.806L24.520 181.726C24.600 182.166 24.560 182.166 23.960 182.286C23.320 182.406 22.520 182.486 21.720 182.486C14.720 182.486 10.200 178.606 10.200 173.046C10.200 170.686 10.600 167.526 13.920 163.766C16.320 161.086 18.160 159.606 20.040 158.086ZM24.640 169.166C27.880 169.446 30.560 172.166 30.560 175.686C30.560 178.206 29.040 180.246 26.800 181.366C26.320 181.606 26.240 181.606 26.160 181.126L24.200 169.726C24.120 169.246 24.160 169.126 24.640 169.166ZM25.800 136.126C27.120 136.126 28.200 137.206 28.200 139.406C28.200 142.166 26.880 144.726 23.760 147.846C23.120 148.486 22.160 149.406 21.240 150.206C20.960 150.446 20.800 150.406 20.720 149.886C20.560 148.846 20.480 147.486 20.480 146.206C20.480 139.966 23.360 136.126 25.800 136.126Z"></path></g><g></g><path d="M57.820 153.806C56.620 153.806 55.220 154.126 54.140 154.606C50.580 156.166 48.700 160.446 48.700 164.246C48.700 164.606 48.700 164.966 48.740 165.326C48.940 167.486 49.980 169.526 51.300 171.126C52.820 172.966 55.020 173.806 57.420 173.806C64.420 173.806 65.460 167.446 65.460 166.286C65.460 165.406 65.020 165.406 64.860 165.406C64.540 165.406 64.260 165.446 64.260 166.126C64.260 171.286 59.860 172.486 58.580 172.486C55.340 172.486 53.620 169.326 53.620 162.726C53.620 156.126 56.660 154.766 58.820 154.766C60.900 154.766 61.740 155.726 61.740 156.126C61.740 156.486 61.620 157.006 61.020 157.006C59.420 157.006 58.500 158.726 58.500 159.966C58.500 162.246 60.460 162.966 61.580 162.966C61.580 162.966 64.620 162.846 64.620 159.526C64.620 154.286 58.580 153.806 57.820 153.806Z"></path></g><g><line stroke="black" stroke-width="1.6" x1="302.4593833716229" x2="302.4593833716229" y1="143.8461538461538" y2="183.8461538461538"></line></g><g><g><path d="M101.448 194.486C105.448 194.486 110.368 190.766 110.368 186.966C110.368 184.686 108.568 183.206 105.968 183.206C101.048 183.206 97.088 186.846 97.088 190.726C97.088 193.086 99.008 194.486 101.448 194.486Z"></path><path d="M86.488 195.646C86.608 195.806 86.728 195.846 86.848 195.846C86.968 195.846 87.088 195.766 87.088 195.766C88.288 195.086 89.248 194.006 90.248 193.326C93.808 190.846 95.048 188.406 95.048 186.566C95.048 184.286 93.288 182.846 91.448 182.726C91.168 182.726 90.888 182.766 90.608 182.846C90.168 182.966 89.688 183.126 89.248 183.406C89.008 183.606 88.728 183.966 88.368 183.966C88.288 183.966 88.248 183.966 88.168 183.926C87.888 183.806 87.728 183.526 87.728 183.246C87.768 182.366 88.008 172.766 88.008 171.966C88.008 171.526 87.648 171.286 87.248 171.286C86.688 171.286 86.048 171.686 86.008 172.406C86.008 172.406 86.168 195.246 86.488 195.646ZM87.888 192.086C87.888 192.086 87.768 189.686 87.768 188.086C87.768 187.446 87.808 186.966 87.848 186.806C88.008 186.326 89.048 185.446 89.608 185.126C89.968 184.926 90.328 184.846 90.648 184.846C91.048 184.846 91.408 185.006 91.648 185.286C92.048 185.726 92.288 186.406 92.288 187.166C92.288 187.886 92.088 188.726 91.608 189.566C91.088 190.526 89.928 191.806 88.728 192.566C88.568 192.646 88.448 192.686 88.328 192.686C87.968 192.686 87.888 192.286 87.888 192.086Z"></path></g><line stroke="#000000" stroke-width="1.2" x1="109.76840000000001" x2="109.76840000000001" y1="187.0061538461538" y2="149.0061538461538"></line></g><g><g><path d="M158.263 194.486C162.263 194.486 167.183 190.766 167.183 186.966C167.183 184.686 165.383 183.206 162.783 183.206C157.863 183.206 153.903 186.846 153.903 190.726C153.903 193.086 155.823 194.486 158.263 194.486Z"></path><g><path d="M136.343 198.206C136.343 198.086 136.303 198.006 136.183 197.966C133.663 195.926 132.183 193.286 132.183 188.846C132.183 184.406 133.543 181.726 136.223 179.766C136.343 179.646 136.343 179.446 136.343 179.446C136.343 179.446 136.343 179.166 136.343 179.006C136.343 178.926 136.303 178.846 136.183 178.846C136.183 178.846 136.183 178.886 136.183 178.886C131.823 181.286 129.823 184.766 129.823 188.846C129.823 192.886 131.743 196.406 136.183 198.846C136.183 198.886 136.223 198.886 136.303 198.886C136.303 198.886 136.343 198.766 136.343 198.726Z"></path><path d="M137.303 195.646C137.423 195.806 137.543 195.846 137.663 195.846C137.783 195.846 137.903 195.766 137.903 195.766C139.103 195.086 140.063 194.006 141.063 193.326C144.623 190.846 145.863 188.406 145.863 186.566C145.863 184.286 144.103 182.846 142.263 182.726C141.983 182.726 141.703 182.766 141.423 182.846C140.983 182.966 140.503 183.126 140.063 183.406C139.823 183.606 139.543 183.966 139.183 183.966C139.103 183.966 139.063 183.966 138.983 183.926C138.703 183.806 138.543 183.526 138.543 183.246C138.583 182.366 138.823 172.766 138.823 171.966C138.823 171.526 138.463 171.286 138.063 171.286C137.503 171.286 136.863 171.686 136.823 172.406C136.823 172.406 136.983 195.246 137.303 195.646ZM138.703 192.086C138.703 192.086 138.583 189.686 138.583 188.086C138.583 187.446 138.623 186.966 138.663 186.806C138.823 186.326 139.863 185.446 140.423 185.126C140.783 184.926 141.143 184.846 141.463 184.846C141.863 184.846 142.223 185.006 142.463 185.286C142.863 185.726 143.103 186.406 143.103 187.166C143.103 187.886 142.903 188.726 142.423 189.566C141.903 190.526 140.743 191.806 139.543 192.566C139.383 192.646 139.263 192.686 139.143 192.686C138.783 192.686 138.703 192.286 138.703 192.086Z"></path><path d="M145.863 198.726C145.863 198.766 145.903 198.886 145.903 198.886C145.983 198.886 146.023 198.886 146.023 198.846C150.463 196.406 152.383 192.886 152.383 188.846C152.383 184.766 150.383 181.286 146.023 178.886C146.023 178.886 146.023 178.846 146.023 178.846C145.903 178.846 145.863 178.926 145.863 179.006C145.863 179.166 145.863 179.446 145.863 179.446C145.863 179.446 145.863 179.646 145.983 179.766C148.663 181.726 150.023 184.406 150.023 188.846C150.023 193.286 148.543 195.926 146.023 197.966C145.903 198.006 145.863 198.086 145.863 198.206Z"></path></g></g><line stroke="#000000" stroke-width="1.2" x1="166.5832458429057" x2="166.5832458429057" y1="187.0061538461538" y2="149.0061538461538"></line></g><g><g><path d="M207.778 194.486C211.778 194.486 216.698 190.766 216.698 186.966C216.698 184.686 214.898 183.206 212.298 183.206C207.378 183.206 203.418 186.846 203.418 190.726C203.418 193.086 205.338 194.486 207.778 194.486Z"></path><path d="M192.818 195.646C192.938 195.806 193.058 195.846 193.178 195.846C193.298 195.846 193.418 195.766 193.418 195.766C194.618 195.086 195.578 194.006 196.578 193.326C200.138 190.846 201.378 188.406 201.378 186.566C201.378 184.286 199.618 182.846 197.778 182.726C197.498 182.726 197.218 182.766 196.938 182.846C196.498 182.966 196.018 183.126 195.578 183.406C195.338 183.606 195.058 183.966 194.698 183.966C194.618 183.966 194.578 183.966 194.498 183.926C194.218 183.806 194.058 183.526 194.058 183.246C194.098 182.366 194.338 172.766 194.338 171.966C194.338 171.526 193.978 171.286 193.578 171.286C193.018 171.286 192.378 171.686 192.338 172.406C192.338 172.406 192.498 195.246 192.818 195.646ZM194.218 192.086C194.218 192.086 194.098 189.686 194.098 188.086C194.098 187.446 194.138 186.966 194.178 186.806C194.338 186.326 195.378 185.446 195.938 185.126C196.298 184.926 196.658 184.846 196.978 184.846C197.378 184.846 197.738 185.006 197.978 185.286C198.378 185.726 198.618 186.406 198.618 187.166C198.618 187.886 198.418 188.726 197.938 189.566C197.418 190.526 196.258 191.806 195.058 192.566C194.898 192.646 194.778 192.686 194.658 192.686C194.298 192.686 194.218 192.286 194.218 192.086Z"></path></g><line stroke="#000000" stroke-width="1.2" x1="216.09809168581145" x2="216.09809168581145" y1="187.0061538461538" y2="149.0061538461538"></line></g><g><g><path d="M264.593 194.486C268.593 194.486 273.513 190.766 273.513 186.966C273.513 184.686 271.713 183.206 269.113 183.206C264.193 183.206 260.233 186.846 260.233 190.726C260.233 193.086 262.153 194.486 264.593 194.486Z"></path><g><path d="M242.673 198.206C242.673 198.086 242.633 198.006 242.513 197.966C239.993 195.926 238.513 193.286 238.513 188.846C238.513 184.406 239.873 181.726 242.553 179.766C242.673 179.646 242.673 179.446 242.673 179.446C242.673 179.446 242.673 179.166 242.673 179.006C242.673 178.926 242.633 178.846 242.513 178.846C242.513 178.846 242.513 178.886 242.513 178.886C238.153 181.286 236.153 184.766 236.153 188.846C236.153 192.886 238.073 196.406 242.513 198.846C242.513 198.886 242.553 198.886 242.633 198.886C242.633 198.886 242.673 198.766 242.673 198.726Z"></path><path d="M243.633 195.646C243.753 195.806 243.873 195.846 243.993 195.846C244.113 195.846 244.233 195.766 244.233 195.766C245.433 195.086 246.393 194.006 247.393 193.326C250.953 190.846 252.193 188.406 252.193 186.566C252.193 184.286 250.433 182.846 248.593 182.726C248.313 182.726 248.033 182.766 247.753 182.846C247.313 182.966 246.833 183.126 246.393 183.406C246.153 183.606 245.873 183.966 245.513 183.966C245.433 183.966 245.393 183.966 245.313 183.926C245.033 183.806 244.873 183.526 244.873 183.246C244.913 182.366 245.153 172.766 245.153 171.966C245.153 171.526 244.793 171.286 244.393 171.286C243.833 171.286 243.193 171.686 243.153 172.406C243.153 172.406 243.313 195.246 243.633 195.646ZM245.033 192.086C245.033 192.086 244.913 189.686 244.913 188.086C244.913 187.446 244.953 186.966 244.993 186.806C245.153 186.326 246.193 185.446 246.753 185.126C247.113 184.926 247.473 184.846 247.793 184.846C248.193 184.846 248.553 185.006 248.793 185.286C249.193 185.726 249.433 186.406 249.433 187.166C249.433 187.886 249.233 188.726 248.753 189.566C248.233 190.526 247.073 191.806 245.873 192.566C245.713 192.646 245.593 192.686 245.473 192.686C245.113 192.686 245.033 192.286 245.033 192.086Z"></path><path d="M252.193 198.726C252.193 198.766 252.233 198.886 252.233 198.886C252.313 198.886 252.353 198.886 252.353 198.846C256.793 196.406 258.713 192.886 258.713 188.846C258.713 184.766 256.713 181.286 252.353 178.886C252.353 178.886 252.353 178.846 252.353 178.846C252.233 178.846 252.193 178.926 252.193 179.006C252.193 179.166 252.193 179.446 252.193 179.446C252.193 179.446 252.193 179.646 252.313 179.766C254.993 181.726 256.353 184.406 256.353 188.846C256.353 193.286 254.873 195.926 252.353 197.966C252.233 198.006 252.193 198.086 252.193 198.206Z"></path></g></g><line stroke="#000000" stroke-width="1.2" x1="272.9129375287171" x2="272.9129375287171" y1="187.0061538461538" y2="149.0061538461538"></line></g></g><g transform="translate(412.10553721777677)"><g><g><line stroke="#6A6A6A" stroke-width="1.3" x1="-16.600000000000023" x2="221.36098337162286" y1="183.8461538461538" y2="183.8461538461538"></line><line stroke="#6A6A6A" stroke-width="1.3" x1="-16.600000000000023" x2="221.36098337162286" y1="173.8461538461538" y2="173.8461538461538"></line><line stroke="#6A6A6A" stroke-width="1.3" x1="-16.600000000000023" x2="221.36098337162286" y1="163.8461538461538" y2="163.8461538461538"></line><line stroke="#6A6A6A" stroke-width="1.3" x1="-16.600000000000023" x2="221.36098337162286" y1="153.8461538461538" y2="153.8461538461538"></line><line stroke="#6A6A6A" stroke-width="1.3" x1="-16.600000000000023" x2="221.36098337162286" y1="143.8461538461538" y2="143.8461538461538"></line></g></g><g><line stroke="black" stroke-width="1.6" x1="222.16098337162288" x2="222.16098337162288" y1="143.8461538461538" y2="183.8461538461538"></line></g><g><g><path d="M14.624 199.486C18.624 199.486 23.544 195.766 23.544 191.966C23.544 189.686 21.744 188.206 19.144 188.206C14.224 188.206 10.264 191.846 10.264 195.726C10.264 198.086 12.184 199.486 14.624 199.486Z"></path><path d="M5.684 189.126C5.964 189.006 6.164 188.686 6.164 188.446L6.164 185.606C6.164 185.406 6.044 185.286 5.884 185.286C5.804 185.286 5.764 185.286 5.684 185.326C5.684 185.326 4.884 185.646 4.684 185.686C4.404 185.686 4.124 185.486 4.124 185.166C4.124 184.766 4.124 180.286 4.124 180.286C4.124 180.046 3.884 179.846 3.564 179.846C3.164 179.846 2.924 180.046 2.924 180.286C2.924 180.286 2.924 185.086 2.924 185.486C2.884 185.886 2.764 186.406 2.404 186.646C1.924 186.926 0.564 187.486-0.116 187.646C-0.476 187.646-0.596 187.166-0.596 186.846C-0.596 186.446-0.596 182.046-0.596 182.046C-0.596 181.806-0.876 181.606-1.156 181.606C-1.556 181.606-1.796 181.806-1.796 182.046C-1.796 182.046-1.796 184.206-1.796 185.806L-1.796 187.446C-1.796 188.006-2.036 188.406-2.276 188.526C-2.516 188.646-3.316 188.966-3.316 188.966C-3.596 189.046-3.796 189.366-3.796 189.606L-3.796 192.446C-3.796 192.686-3.676 192.806-3.476 192.806C-3.436 192.806-3.356 192.766-3.316 192.766C-3.316 192.766-2.716 192.526-2.436 192.366C-2.396 192.366-2.356 192.326-2.316 192.326C-2.036 192.326-1.796 192.726-1.796 193.046L-1.796 197.006C-1.796 197.446-1.996 197.806-2.236 197.926C-2.476 198.006-3.316 198.366-3.316 198.366C-3.596 198.446-3.796 198.766-3.796 199.006L-3.796 201.846C-3.796 202.086-3.676 202.206-3.476 202.206C-3.436 202.206-3.356 202.166-3.316 202.166C-3.316 202.166-2.756 201.926-2.396 201.806C-2.356 201.766-2.316 201.766-2.276 201.766C-1.996 201.766-1.796 202.206-1.796 202.406C-1.796 202.646-1.796 207.326-1.796 207.326C-1.796 207.566-1.556 207.766-1.276 207.766C-0.876 207.766-0.596 207.566-0.596 207.326C-0.596 207.326-0.596 202.246-0.596 201.766C-0.596 201.246-0.396 200.966-0.196 200.886L2.244 199.886C2.284 199.886 2.364 199.846 2.404 199.846C2.724 199.846 2.924 200.326 2.924 200.566C2.924 200.846 2.924 205.566 2.924 205.566C2.924 205.806 3.164 206.006 3.444 206.006C3.884 206.006 4.124 205.806 4.124 205.566C4.124 205.566 4.124 200.166 4.124 199.886C4.124 199.566 4.284 199.086 4.564 198.966C4.844 198.846 5.684 198.526 5.684 198.526C5.964 198.406 6.164 198.086 6.164 197.846L6.164 195.006C6.164 194.806 6.044 194.686 5.884 194.686C5.804 194.686 5.764 194.686 5.684 194.726C5.684 194.726 4.844 195.046 4.644 195.126C4.404 195.126 4.124 194.886 4.124 194.406L4.124 190.686C4.124 190.406 4.324 189.646 4.644 189.526C4.964 189.406 5.684 189.126 5.684 189.126ZM2.924 195.646C2.684 196.446 0.804 197.246-0.116 197.246C-0.356 197.246-0.556 197.166-0.596 197.046C-0.676 196.886-0.716 196.006-0.716 195.046C-0.716 193.806-0.676 192.406-0.596 192.086C-0.516 191.406 1.324 190.566 2.324 190.566C2.604 190.566 2.844 190.646 2.924 190.806C3.004 191.006 3.084 192.006 3.084 193.086C3.084 194.166 3.004 195.286 2.924 195.646Z"></path></g><line stroke="#000000" stroke-width="1.2" x1="22.943800000000003" x2="22.943800000000003" y1="192.0061538461538" y2="157.0061538461538"></line><line stroke="#000000" stroke-width="2.2" x1="7.0638" x2="28.9838" y1="193.8461538461538" y2="193.8461538461538"></line></g><g><g><path d="M73.614 199.486C77.614 199.486 82.534 195.766 82.534 191.966C82.534 189.686 80.734 188.206 78.134 188.206C73.214 188.206 69.254 191.846 69.254 195.726C69.254 198.086 71.174 199.486 73.614 199.486Z"></path><g><path d="M48.714 203.206C48.714 203.086 48.674 203.006 48.554 202.966C46.034 200.926 44.554 198.286 44.554 193.846C44.554 189.406 45.914 186.726 48.594 184.766C48.714 184.646 48.714 184.446 48.714 184.446C48.714 184.446 48.714 184.166 48.714 184.006C48.714 183.926 48.674 183.846 48.554 183.846C48.554 183.846 48.554 183.886 48.554 183.886C44.194 186.286 42.194 189.766 42.194 193.846C42.194 197.886 44.114 201.406 48.554 203.846C48.554 203.886 48.594 203.886 48.674 203.886C48.674 203.886 48.714 203.766 48.714 203.726Z"></path><path d="M58.674 189.126C58.954 189.006 59.154 188.686 59.154 188.446L59.154 185.606C59.154 185.406 59.034 185.286 58.874 185.286C58.794 185.286 58.754 185.286 58.674 185.326C58.674 185.326 57.874 185.646 57.674 185.686C57.394 185.686 57.114 185.486 57.114 185.166C57.114 184.766 57.114 180.286 57.114 180.286C57.114 180.046 56.874 179.846 56.554 179.846C56.154 179.846 55.914 180.046 55.914 180.286C55.914 180.286 55.914 185.086 55.914 185.486C55.874 185.886 55.754 186.406 55.394 186.646C54.914 186.926 53.554 187.486 52.874 187.646C52.514 187.646 52.394 187.166 52.394 186.846C52.394 186.446 52.394 182.046 52.394 182.046C52.394 181.806 52.114 181.606 51.834 181.606C51.434 181.606 51.194 181.806 51.194 182.046C51.194 182.046 51.194 184.206 51.194 185.806L51.194 187.446C51.194 188.006 50.954 188.406 50.714 188.526C50.474 188.646 49.674 188.966 49.674 188.966C49.394 189.046 49.194 189.366 49.194 189.606L49.194 192.446C49.194 192.686 49.314 192.806 49.514 192.806C49.554 192.806 49.634 192.766 49.674 192.766C49.674 192.766 50.274 192.526 50.554 192.366C50.594 192.366 50.634 192.326 50.674 192.326C50.954 192.326 51.194 192.726 51.194 193.046L51.194 197.006C51.194 197.446 50.994 197.806 50.754 197.926C50.514 198.006 49.674 198.366 49.674 198.366C49.394 198.446 49.194 198.766 49.194 199.006L49.194 201.846C49.194 202.086 49.314 202.206 49.514 202.206C49.554 202.206 49.634 202.166 49.674 202.166C49.674 202.166 50.234 201.926 50.594 201.806C50.634 201.766 50.674 201.766 50.714 201.766C50.994 201.766 51.194 202.206 51.194 202.406C51.194 202.646 51.194 207.326 51.194 207.326C51.194 207.566 51.434 207.766 51.714 207.766C52.114 207.766 52.394 207.566 52.394 207.326C52.394 207.326 52.394 202.246 52.394 201.766C52.394 201.246 52.594 200.966 52.794 200.886L55.234 199.886C55.274 199.886 55.354 199.846 55.394 199.846C55.714 199.846 55.914 200.326 55.914 200.566C55.914 200.846 55.914 205.566 55.914 205.566C55.914 205.806 56.154 206.006 56.434 206.006C56.874 206.006 57.114 205.806 57.114 205.566C57.114 205.566 57.114 200.166 57.114 199.886C57.114 199.566 57.274 199.086 57.554 198.966C57.834 198.846 58.674 198.526 58.674 198.526C58.954 198.406 59.154 198.086 59.154 197.846L59.154 195.006C59.154 194.806 59.034 194.686 58.874 194.686C58.794 194.686 58.754 194.686 58.674 194.726C58.674 194.726 57.834 195.046 57.634 195.126C57.394 195.126 57.114 194.886 57.114 194.406L57.114 190.686C57.114 190.406 57.314 189.646 57.634 189.526C57.954 189.406 58.674 189.126 58.674 189.126ZM55.914 195.646C55.674 196.446 53.794 197.246 52.874 197.246C52.634 197.246 52.434 197.166 52.394 197.046C52.314 196.886 52.274 196.006 52.274 195.046C52.274 193.806 52.314 192.406 52.394 192.086C52.474 191.406 54.314 190.566 55.314 190.566C55.594 190.566 55.834 190.646 55.914 190.806C55.994 191.006 56.074 192.006 56.074 193.086C56.074 194.166 55.994 195.286 55.914 195.646Z"></path><path d="M59.154 203.726C59.154 203.766 59.194 203.886 59.194 203.886C59.274 203.886 59.314 203.886 59.314 203.846C63.754 201.406 65.674 197.886 65.674 193.846C65.674 189.766 63.674 186.286 59.314 183.886C59.314 183.886 59.314 183.846 59.314 183.846C59.194 183.846 59.154 183.926 59.154 184.006C59.154 184.166 59.154 184.446 59.154 184.446C59.154 184.446 59.154 184.646 59.274 184.766C61.954 186.726 63.314 189.406 63.314 193.846C63.314 198.286 61.834 200.926 59.314 202.966C59.194 203.006 59.154 203.086 59.154 203.206Z"></path></g></g><line stroke="#000000" stroke-width="1.2" x1="81.93404584290572" x2="81.93404584290572" y1="192.0061538461538" y2="157.0061538461538"></line><line stroke="#000000" stroke-width="2.2" x1="66.05404584290571" x2="87.97404584290571" y1="193.8461538461538" y2="193.8461538461538"></line></g><g><g><path d="M125.304 199.486C129.304 199.486 134.224 195.766 134.224 191.966C134.224 189.686 132.424 188.206 129.824 188.206C124.904 188.206 120.944 191.846 120.944 195.726C120.944 198.086 122.864 199.486 125.304 199.486Z"></path><path d="M116.364 189.126C116.644 189.006 116.844 188.686 116.844 188.446L116.844 185.606C116.844 185.406 116.724 185.286 116.564 185.286C116.484 185.286 116.444 185.286 116.364 185.326C116.364 185.326 115.564 185.646 115.364 185.686C115.084 185.686 114.804 185.486 114.804 185.166C114.804 184.766 114.804 180.286 114.804 180.286C114.804 180.046 114.564 179.846 114.244 179.846C113.844 179.846 113.604 180.046 113.604 180.286C113.604 180.286 113.604 185.086 113.604 185.486C113.564 185.886 113.444 186.406 113.084 186.646C112.604 186.926 111.244 187.486 110.564 187.646C110.204 187.646 110.084 187.166 110.084 186.846C110.084 186.446 110.084 182.046 110.084 182.046C110.084 181.806 109.804 181.606 109.524 181.606C109.124 181.606 108.884 181.806 108.884 182.046C108.884 182.046 108.884 184.206 108.884 185.806L108.884 187.446C108.884 188.006 108.644 188.406 108.404 188.526C108.164 188.646 107.364 188.966 107.364 188.966C107.084 189.046 106.884 189.366 106.884 189.606L106.884 192.446C106.884 192.686 107.004 192.806 107.204 192.806C107.244 192.806 107.324 192.766 107.364 192.766C107.364 192.766 107.964 192.526 108.244 192.366C108.284 192.366 108.324 192.326 108.364 192.326C108.644 192.326 108.884 192.726 108.884 193.046L108.884 197.006C108.884 197.446 108.684 197.806 108.444 197.926C108.204 198.006 107.364 198.366 107.364 198.366C107.084 198.446 106.884 198.766 106.884 199.006L106.884 201.846C106.884 202.086 107.004 202.206 107.204 202.206C107.244 202.206 107.324 202.166 107.364 202.166C107.364 202.166 107.924 201.926 108.284 201.806C108.324 201.766 108.364 201.766 108.404 201.766C108.684 201.766 108.884 202.206 108.884 202.406C108.884 202.646 108.884 207.326 108.884 207.326C108.884 207.566 109.124 207.766 109.404 207.766C109.804 207.766 110.084 207.566 110.084 207.326C110.084 207.326 110.084 202.246 110.084 201.766C110.084 201.246 110.284 200.966 110.484 200.886L112.924 199.886C112.964 199.886 113.044 199.846 113.084 199.846C113.404 199.846 113.604 200.326 113.604 200.566C113.604 200.846 113.604 205.566 113.604 205.566C113.604 205.806 113.844 206.006 114.124 206.006C114.564 206.006 114.804 205.806 114.804 205.566C114.804 205.566 114.804 200.166 114.804 199.886C114.804 199.566 114.964 199.086 115.244 198.966C115.524 198.846 116.364 198.526 116.364 198.526C116.644 198.406 116.844 198.086 116.844 197.846L116.844 195.006C116.844 194.806 116.724 194.686 116.564 194.686C116.484 194.686 116.444 194.686 116.364 194.726C116.364 194.726 115.524 195.046 115.324 195.126C115.084 195.126 114.804 194.886 114.804 194.406L114.804 190.686C114.804 190.406 115.004 189.646 115.324 189.526C115.644 189.406 116.364 189.126 116.364 189.126ZM113.604 195.646C113.364 196.446 111.484 197.246 110.564 197.246C110.324 197.246 110.124 197.166 110.084 197.046C110.004 196.886 109.964 196.006 109.964 195.046C109.964 193.806 110.004 192.406 110.084 192.086C110.164 191.406 112.004 190.566 113.004 190.566C113.284 190.566 113.524 190.646 113.604 190.806C113.684 191.006 113.764 192.006 113.764 193.086C113.764 194.166 113.684 195.286 113.604 195.646Z"></path></g><line stroke="#000000" stroke-width="1.2" x1="133.62429168581141" x2="133.62429168581141" y1="192.0061538461538" y2="157.0061538461538"></line><line stroke="#000000" stroke-width="2.2" x1="117.7442916858114" x2="139.6642916858114" y1="193.8461538461538" y2="193.8461538461538"></line></g><g><g><path d="M184.295 199.486C188.295 199.486 193.215 195.766 193.215 191.966C193.215 189.686 191.415 188.206 188.815 188.206C183.895 188.206 179.935 191.846 179.935 195.726C179.935 198.086 181.855 199.486 184.295 199.486Z"></path><g><path d="M159.395 203.206C159.395 203.086 159.355 203.006 159.235 202.966C156.715 200.926 155.235 198.286 155.235 193.846C155.235 189.406 156.595 186.726 159.275 184.766C159.395 184.646 159.395 184.446 159.395 184.446C159.395 184.446 159.395 184.166 159.395 184.006C159.395 183.926 159.355 183.846 159.235 183.846C159.235 183.846 159.235 183.886 159.235 183.886C154.875 186.286 152.875 189.766 152.875 193.846C152.875 197.886 154.795 201.406 159.235 203.846C159.235 203.886 159.275 203.886 159.355 203.886C159.355 203.886 159.395 203.766 159.395 203.726Z"></path><path d="M169.355 189.126C169.635 189.006 169.835 188.686 169.835 188.446L169.835 185.606C169.835 185.406 169.715 185.286 169.555 185.286C169.475 185.286 169.435 185.286 169.355 185.326C169.355 185.326 168.555 185.646 168.355 185.686C168.075 185.686 167.795 185.486 167.795 185.166C167.795 184.766 167.795 180.286 167.795 180.286C167.795 180.046 167.555 179.846 167.235 179.846C166.835 179.846 166.595 180.046 166.595 180.286C166.595 180.286 166.595 185.086 166.595 185.486C166.555 185.886 166.435 186.406 166.075 186.646C165.595 186.926 164.235 187.486 163.555 187.646C163.195 187.646 163.075 187.166 163.075 186.846C163.075 186.446 163.075 182.046 163.075 182.046C163.075 181.806 162.795 181.606 162.515 181.606C162.115 181.606 161.875 181.806 161.875 182.046C161.875 182.046 161.875 184.206 161.875 185.806L161.875 187.446C161.875 188.006 161.635 188.406 161.395 188.526C161.155 188.646 160.355 188.966 160.355 188.966C160.075 189.046 159.875 189.366 159.875 189.606L159.875 192.446C159.875 192.686 159.995 192.806 160.195 192.806C160.235 192.806 160.315 192.766 160.355 192.766C160.355 192.766 160.955 192.526 161.235 192.366C161.275 192.366 161.315 192.326 161.355 192.326C161.635 192.326 161.875 192.726 161.875 193.046L161.875 197.006C161.875 197.446 161.675 197.806 161.435 197.926C161.195 198.006 160.355 198.366 160.355 198.366C160.075 198.446 159.875 198.766 159.875 199.006L159.875 201.846C159.875 202.086 159.995 202.206 160.195 202.206C160.235 202.206 160.315 202.166 160.355 202.166C160.355 202.166 160.915 201.926 161.275 201.806C161.315 201.766 161.355 201.766 161.395 201.766C161.675 201.766 161.875 202.206 161.875 202.406C161.875 202.646 161.875 207.326 161.875 207.326C161.875 207.566 162.115 207.766 162.395 207.766C162.795 207.766 163.075 207.566 163.075 207.326C163.075 207.326 163.075 202.246 163.075 201.766C163.075 201.246 163.275 200.966 163.475 200.886L165.915 199.886C165.955 199.886 166.035 199.846 166.075 199.846C166.395 199.846 166.595 200.326 166.595 200.566C166.595 200.846 166.595 205.566 166.595 205.566C166.595 205.806 166.835 206.006 167.115 206.006C167.555 206.006 167.795 205.806 167.795 205.566C167.795 205.566 167.795 200.166 167.795 199.886C167.795 199.566 167.955 199.086 168.235 198.966C168.515 198.846 169.355 198.526 169.355 198.526C169.635 198.406 169.835 198.086 169.835 197.846L169.835 195.006C169.835 194.806 169.715 194.686 169.555 194.686C169.475 194.686 169.435 194.686 169.355 194.726C169.355 194.726 168.515 195.046 168.315 195.126C168.075 195.126 167.795 194.886 167.795 194.406L167.795 190.686C167.795 190.406 167.995 189.646 168.315 189.526C168.635 189.406 169.355 189.126 169.355 189.126ZM166.595 195.646C166.355 196.446 164.475 197.246 163.555 197.246C163.315 197.246 163.115 197.166 163.075 197.046C162.995 196.886 162.955 196.006 162.955 195.046C162.955 193.806 162.995 192.406 163.075 192.086C163.155 191.406 164.995 190.566 165.995 190.566C166.275 190.566 166.515 190.646 166.595 190.806C166.675 191.006 166.755 192.006 166.755 193.086C166.755 194.166 166.675 195.286 166.595 195.646Z"></path><path d="M169.835 203.726C169.835 203.766 169.875 203.886 169.875 203.886C169.955 203.886 169.995 203.886 169.995 203.846C174.435 201.406 176.355 197.886 176.355 193.846C176.355 189.766 174.355 186.286 169.995 183.886C169.995 183.886 169.995 183.846 169.995 183.846C169.875 183.846 169.835 183.926 169.835 184.006C169.835 184.166 169.835 184.446 169.835 184.446C169.835 184.446 169.835 184.646 169.955 184.766C172.635 186.726 173.995 189.406 173.995 193.846C173.995 198.286 172.515 200.926 169.995 202.966C169.875 203.006 169.835 203.086 169.835 203.206Z"></path></g></g><line stroke="#000000" stroke-width="1.2" x1="192.61453752871716" x2="192.61453752871716" y1="192.0061538461538" y2="157.0061538461538"></line><line stroke="#000000" stroke-width="2.2" x1="176.73453752871717" x2="198.65453752871716" y1="193.8461538461538" y2="193.8461538461538"></line></g></g><g transform="translate(650.0665205893996)"><g><g><line stroke="#6A6A6A" stroke-width="1.3" x1="-16.59999999999991" x2="234.26738337162283" y1="183.8461538461538" y2="183.8461538461538"></line><line stroke="#6A6A6A" stroke-width="1.3" x1="-16.59999999999991" x2="234.26738337162283" y1="173.8461538461538" y2="173.8461538461538"></line><line stroke="#6A6A6A" stroke-width="1.3" x1="-16.59999999999991" x2="234.26738337162283" y1="163.8461538461538" y2="163.8461538461538"></line><line stroke="#6A6A6A" stroke-width="1.3" x1="-16.59999999999991" x2="234.26738337162283" y1="153.8461538461538" y2="153.8461538461538"></line><line stroke="#6A6A6A" stroke-width="1.3" x1="-16.59999999999991" x2="234.26738337162283" y1="143.8461538461538" y2="143.8461538461538"></line></g></g><g><line stroke="black" stroke-width="1.6" x1="235.06738337162284" x2="235.06738337162284" y1="143.8461538461538" y2="183.8461538461538"></line></g><g><g><path d="M17.850 194.486C21.850 194.486 26.770 190.766 26.770 186.966C26.770 184.686 24.970 183.206 22.370 183.206C17.450 183.206 13.490 186.846 13.490 190.726C13.490 193.086 15.410 194.486 17.850 194.486Z"></path><path d="M7.570 182.806C7.370 182.806 7.210 182.806 7.010 182.846C6.530 182.966 6.090 183.206 5.690 183.446C5.410 183.606 5.090 183.966 4.730 183.966C4.650 183.966 4.570 183.966 4.530 183.926C4.250 183.846 4.130 183.566 4.130 183.246C4.130 182.406 4.370 172.766 4.370 172.006C4.370 171.566 4.010 171.366 3.610 171.366C3.090 171.366 2.450 171.726 2.370 172.406C2.370 172.406 2.410 177.886 2.490 183.446C1.890 183.046 1.210 182.806 0.450 182.806L0.210 182.806C0.010 182.806-0.190 182.806-0.350 182.846C-0.830 182.966-1.270 183.206-1.670 183.446C-1.990 183.606-2.270 183.966-2.630 183.966C-2.710 183.966-2.750 183.966-2.830 183.926C-3.110 183.846-3.270 183.566-3.270 183.246C-3.270 182.406-2.990 172.766-2.990 172.006C-2.990 171.566-3.350 171.366-3.750 171.366C-4.310 171.366-4.950 171.726-4.990 172.406C-4.990 172.406-4.790 195.286-4.510 195.646C-4.390 195.806-4.270 195.846-4.150 195.846C-4.030 195.846-3.910 195.766-3.910 195.766C-2.670 195.126-1.670 194.006-0.750 193.326C0.730 192.286 1.850 191.206 2.610 190.246C2.690 193.246 2.770 195.526 2.890 195.646C3.010 195.806 3.130 195.846 3.210 195.846C3.330 195.846 3.450 195.766 3.450 195.766C4.690 195.126 5.650 194.006 6.570 193.366C10.170 190.846 11.450 188.406 11.450 186.566C11.450 184.326 9.690 182.846 7.810 182.806ZM0.650 189.566C0.130 190.526-1.030 191.766-2.310 192.566C-2.430 192.646-2.590 192.686-2.670 192.686C-2.990 192.686-3.110 192.286-3.110 192.046C-3.110 192.046-3.230 189.686-3.230 188.126C-3.230 187.486-3.190 187.006-3.150 186.846C-2.990 186.326-1.910 185.446-1.350 185.126C-0.990 184.926-0.630 184.846-0.310 184.846C0.090 184.846 0.410 184.966 0.650 185.246C1.050 185.726 1.290 186.406 1.290 187.206C1.290 187.926 1.090 188.766 0.650 189.566ZM7.970 189.566C7.490 190.526 6.330 191.766 5.050 192.566C4.890 192.646 4.770 192.686 4.690 192.686C4.370 192.686 4.250 192.286 4.250 192.046C4.250 192.046 4.130 189.286 4.130 187.766C4.130 187.326 4.130 186.966 4.170 186.846C4.330 186.326 5.410 185.446 6.010 185.126C6.370 184.926 6.730 184.846 7.050 184.846C7.450 184.846 7.770 184.966 8.010 185.246C8.370 185.726 8.610 186.406 8.610 187.206C8.610 187.926 8.410 188.726 7.970 189.566Z"></path></g><line stroke="#000000" stroke-width="1.2" x1="26.1704" x2="26.1704" y1="187.0061538461538" y2="149.0061538461538"></line></g><g><g><path d="M80.067 194.486C84.067 194.486 88.987 190.766 88.987 186.966C88.987 184.686 87.187 183.206 84.587 183.206C79.667 183.206 75.707 186.846 75.707 190.726C75.707 193.086 77.627 194.486 80.067 194.486Z"></path><g><path d="M50.747 198.206C50.747 198.086 50.707 198.006 50.587 197.966C48.067 195.926 46.587 193.286 46.587 188.846C46.587 184.406 47.947 181.726 50.627 179.766C50.747 179.646 50.747 179.446 50.747 179.446C50.747 179.446 50.747 179.166 50.747 179.006C50.747 178.926 50.707 178.846 50.587 178.846C50.587 178.846 50.587 178.886 50.587 178.886C46.227 181.286 44.227 184.766 44.227 188.846C44.227 192.886 46.147 196.406 50.587 198.846C50.587 198.886 50.627 198.886 50.707 198.886C50.707 198.886 50.747 198.766 50.747 198.726Z"></path><path d="M63.787 182.806C63.587 182.806 63.427 182.806 63.227 182.846C62.747 182.966 62.307 183.206 61.907 183.446C61.627 183.606 61.307 183.966 60.947 183.966C60.867 183.966 60.787 183.966 60.747 183.926C60.467 183.846 60.347 183.566 60.347 183.246C60.347 182.406 60.587 172.766 60.587 172.006C60.587 171.566 60.227 171.366 59.827 171.366C59.307 171.366 58.667 171.726 58.587 172.406C58.587 172.406 58.627 177.886 58.707 183.446C58.107 183.046 57.427 182.806 56.667 182.806L56.427 182.806C56.227 182.806 56.027 182.806 55.867 182.846C55.387 182.966 54.947 183.206 54.547 183.446C54.227 183.606 53.947 183.966 53.587 183.966C53.507 183.966 53.467 183.966 53.387 183.926C53.107 183.846 52.947 183.566 52.947 183.246C52.947 182.406 53.227 172.766 53.227 172.006C53.227 171.566 52.867 171.366 52.467 171.366C51.907 171.366 51.267 171.726 51.227 172.406C51.227 172.406 51.427 195.286 51.707 195.646C51.827 195.806 51.947 195.846 52.067 195.846C52.187 195.846 52.307 195.766 52.307 195.766C53.547 195.126 54.547 194.006 55.467 193.326C56.947 192.286 58.067 191.206 58.827 190.246C58.907 193.246 58.987 195.526 59.107 195.646C59.227 195.806 59.347 195.846 59.427 195.846C59.547 195.846 59.667 195.766 59.667 195.766C60.907 195.126 61.867 194.006 62.787 193.366C66.387 190.846 67.667 188.406 67.667 186.566C67.667 184.326 65.907 182.846 64.027 182.806ZM56.867 189.566C56.347 190.526 55.187 191.766 53.907 192.566C53.787 192.646 53.627 192.686 53.547 192.686C53.227 192.686 53.107 192.286 53.107 192.046C53.107 192.046 52.987 189.686 52.987 188.126C52.987 187.486 53.027 187.006 53.067 186.846C53.227 186.326 54.307 185.446 54.867 185.126C55.227 184.926 55.587 184.846 55.907 184.846C56.307 184.846 56.627 184.966 56.867 185.246C57.267 185.726 57.507 186.406 57.507 187.206C57.507 187.926 57.307 188.766 56.867 189.566ZM64.187 189.566C63.707 190.526 62.547 191.766 61.267 192.566C61.107 192.646 60.987 192.686 60.907 192.686C60.587 192.686 60.467 192.286 60.467 192.046C60.467 192.046 60.347 189.286 60.347 187.766C60.347 187.326 60.347 186.966 60.387 186.846C60.547 186.326 61.627 185.446 62.227 185.126C62.587 184.926 62.947 184.846 63.267 184.846C63.667 184.846 63.987 184.966 64.227 185.246C64.587 185.726 64.827 186.406 64.827 187.206C64.827 187.926 64.627 188.726 64.187 189.566Z"></path><path d="M67.667 198.726C67.667 198.766 67.707 198.886 67.707 198.886C67.787 198.886 67.827 198.886 67.827 198.846C72.267 196.406 74.187 192.886 74.187 188.846C74.187 184.766 72.187 181.286 67.827 178.886C67.827 178.886 67.827 178.846 67.827 178.846C67.707 178.846 67.667 178.926 67.667 179.006C67.667 179.166 67.667 179.446 67.667 179.446C67.667 179.446 67.667 179.646 67.787 179.766C70.467 181.726 71.827 184.406 71.827 188.846C71.827 193.286 70.347 195.926 67.827 197.966C67.707 198.006 67.667 198.086 67.667 198.206Z"></path></g></g><line stroke="#000000" stroke-width="1.2" x1="88.38724584290571" x2="88.38724584290571" y1="187.0061538461538" y2="149.0061538461538"></line></g><g><g><path d="M134.984 194.486C138.984 194.486 143.904 190.766 143.904 186.966C143.904 184.686 142.104 183.206 139.504 183.206C134.584 183.206 130.624 186.846 130.624 190.726C130.624 193.086 132.544 194.486 134.984 194.486Z"></path><path d="M124.704 182.806C124.504 182.806 124.344 182.806 124.144 182.846C123.664 182.966 123.224 183.206 122.824 183.446C122.544 183.606 122.224 183.966 121.864 183.966C121.784 183.966 121.704 183.966 121.664 183.926C121.384 183.846 121.264 183.566 121.264 183.246C121.264 182.406 121.504 172.766 121.504 172.006C121.504 171.566 121.144 171.366 120.744 171.366C120.224 171.366 119.584 171.726 119.504 172.406C119.504 172.406 119.544 177.886 119.624 183.446C119.024 183.046 118.344 182.806 117.584 182.806L117.344 182.806C117.144 182.806 116.944 182.806 116.784 182.846C116.304 182.966 115.864 183.206 115.464 183.446C115.144 183.606 114.864 183.966 114.504 183.966C114.424 183.966 114.384 183.966 114.304 183.926C114.024 183.846 113.864 183.566 113.864 183.246C113.864 182.406 114.144 172.766 114.144 172.006C114.144 171.566 113.784 171.366 113.384 171.366C112.824 171.366 112.184 171.726 112.144 172.406C112.144 172.406 112.344 195.286 112.624 195.646C112.744 195.806 112.864 195.846 112.984 195.846C113.104 195.846 113.224 195.766 113.224 195.766C114.464 195.126 115.464 194.006 116.384 193.326C117.864 192.286 118.984 191.206 119.744 190.246C119.824 193.246 119.904 195.526 120.024 195.646C120.144 195.806 120.264 195.846 120.344 195.846C120.464 195.846 120.584 195.766 120.584 195.766C121.824 195.126 122.784 194.006 123.704 193.366C127.304 190.846 128.584 188.406 128.584 186.566C128.584 184.326 126.824 182.846 124.944 182.806ZM117.784 189.566C117.264 190.526 116.104 191.766 114.824 192.566C114.704 192.646 114.544 192.686 114.464 192.686C114.144 192.686 114.024 192.286 114.024 192.046C114.024 192.046 113.904 189.686 113.904 188.126C113.904 187.486 113.944 187.006 113.984 186.846C114.144 186.326 115.224 185.446 115.784 185.126C116.144 184.926 116.504 184.846 116.824 184.846C117.224 184.846 117.544 184.966 117.784 185.246C118.184 185.726 118.424 186.406 118.424 187.206C118.424 187.926 118.224 188.766 117.784 189.566ZM125.104 189.566C124.624 190.526 123.464 191.766 122.184 192.566C122.024 192.646 121.904 192.686 121.824 192.686C121.504 192.686 121.384 192.286 121.384 192.046C121.384 192.046 121.264 189.286 121.264 187.766C121.264 187.326 121.264 186.966 121.304 186.846C121.464 186.326 122.544 185.446 123.144 185.126C123.504 184.926 123.864 184.846 124.184 184.846C124.584 184.846 124.904 184.966 125.144 185.246C125.504 185.726 125.744 186.406 125.744 187.206C125.744 187.926 125.544 188.726 125.104 189.566Z"></path></g><line stroke="#000000" stroke-width="1.2" x1="143.30409168581141" x2="143.30409168581141" y1="187.0061538461538" y2="149.0061538461538"></line></g><g><g><path d="M197.201 194.486C201.201 194.486 206.121 190.766 206.121 186.966C206.121 184.686 204.321 183.206 201.721 183.206C196.801 183.206 192.841 186.846 192.841 190.726C192.841 193.086 194.761 194.486 197.201 194.486Z"></path><g><path d="M167.881 198.206C167.881 198.086 167.841 198.006 167.721 197.966C165.201 195.926 163.721 193.286 163.721 188.846C163.721 184.406 165.081 181.726 167.761 179.766C167.881 179.646 167.881 179.446 167.881 179.446C167.881 179.446 167.881 179.166 167.881 179.006C167.881 178.926 167.841 178.846 167.721 178.846C167.721 178.846 167.721 178.886 167.721 178.886C163.361 181.286 161.361 184.766 161.361 188.846C161.361 192.886 163.281 196.406 167.721 198.846C167.721 198.886 167.761 198.886 167.841 198.886C167.841 198.886 167.881 198.766 167.881 198.726Z"></path><path d="M180.921 182.806C180.721 182.806 180.561 182.806 180.361 182.846C179.881 182.966 179.441 183.206 179.041 183.446C178.761 183.606 178.441 183.966 178.081 183.966C178.001 183.966 177.921 183.966 177.881 183.926C177.601 183.846 177.481 183.566 177.481 183.246C177.481 182.406 177.721 172.766 177.721 172.006C177.721 171.566 177.361 171.366 176.961 171.366C176.441 171.366 175.801 171.726 175.721 172.406C175.721 172.406 175.761 177.886 175.841 183.446C175.241 183.046 174.561 182.806 173.801 182.806L173.561 182.806C173.361 182.806 173.161 182.806 173.001 182.846C172.521 182.966 172.081 183.206 171.681 183.446C171.361 183.606 171.081 183.966 170.721 183.966C170.641 183.966 170.601 183.966 170.521 183.926C170.241 183.846 170.081 183.566 170.081 183.246C170.081 182.406 170.361 172.766 170.361 172.006C170.361 171.566 170.001 171.366 169.601 171.366C169.041 171.366 168.401 171.726 168.361 172.406C168.361 172.406 168.561 195.286 168.841 195.646C168.961 195.806 169.081 195.846 169.201 195.846C169.321 195.846 169.441 195.766 169.441 195.766C170.681 195.126 171.681 194.006 172.601 193.326C174.081 192.286 175.201 191.206 175.961 190.246C176.041 193.246 176.121 195.526 176.241 195.646C176.361 195.806 176.481 195.846 176.561 195.846C176.681 195.846 176.801 195.766 176.801 195.766C178.041 195.126 179.001 194.006 179.921 193.366C183.521 190.846 184.801 188.406 184.801 186.566C184.801 184.326 183.041 182.846 181.161 182.806ZM174.001 189.566C173.481 190.526 172.321 191.766 171.041 192.566C170.921 192.646 170.761 192.686 170.681 192.686C170.361 192.686 170.241 192.286 170.241 192.046C170.241 192.046 170.121 189.686 170.121 188.126C170.121 187.486 170.161 187.006 170.201 186.846C170.361 186.326 171.441 185.446 172.001 185.126C172.361 184.926 172.721 184.846 173.041 184.846C173.441 184.846 173.761 184.966 174.001 185.246C174.401 185.726 174.641 186.406 174.641 187.206C174.641 187.926 174.441 188.766 174.001 189.566ZM181.321 189.566C180.841 190.526 179.681 191.766 178.401 192.566C178.241 192.646 178.121 192.686 178.041 192.686C177.721 192.686 177.601 192.286 177.601 192.046C177.601 192.046 177.481 189.286 177.481 187.766C177.481 187.326 177.481 186.966 177.521 186.846C177.681 186.326 178.761 185.446 179.361 185.126C179.721 184.926 180.081 184.846 180.401 184.846C180.801 184.846 181.121 184.966 181.361 185.246C181.721 185.726 181.961 186.406 181.961 187.206C181.961 187.926 181.761 188.726 181.321 189.566Z"></path><path d="M184.801 198.726C184.801 198.766 184.841 198.886 184.841 198.886C184.921 198.886 184.961 198.886 184.961 198.846C189.401 196.406 191.321 192.886 191.321 188.846C191.321 184.766 189.321 181.286 184.961 178.886C184.961 178.886 184.961 178.846 184.961 178.846C184.841 178.846 184.801 178.926 184.801 179.006C184.801 179.166 184.801 179.446 184.801 179.446C184.801 179.446 184.801 179.646 184.921 179.766C187.601 181.726 188.961 184.406 188.961 188.846C188.961 193.286 187.481 195.926 184.961 197.966C184.841 198.006 184.801 198.086 184.801 198.206Z"></path></g></g><line stroke="#000000" stroke-width="1.2" x1="205.52093752871713" x2="205.52093752871713" y1="187.0061538461538" y2="149.0061538461538"></line></g></g><g transform="translate(900.9339039610225)"><g><g><line stroke="#6A6A6A" stroke-width="1.3" x1="-16.59999999999991" x2="231.72738337162286" y1="183.8461538461538" y2="183.8461538461538"></line><line stroke="#6A6A6A" stroke-width="1.3" x1="-16.59999999999991" x2="231.72738337162286" y1="173.8461538461538" y2="173.8461538461538"></line><line stroke="#6A6A6A" stroke-width="1.3" x1="-16.59999999999991" x2="231.72738337162286" y1="163.8461538461538" y2="163.8461538461538"></line><line stroke="#6A6A6A" stroke-width="1.3" x1="-16.59999999999991" x2="231.72738337162286" y1="153.8461538461538" y2="153.8461538461538"></line><line stroke="#6A6A6A" stroke-width="1.3" x1="-16.59999999999991" x2="231.72738337162286" y1="143.8461538461538" y2="143.8461538461538"></line></g></g><g><line stroke="black" stroke-width="1.6" x1="221.9273833716228" x2="221.9273833716228" y1="143.8461538461538" y2="183.8461538461538"></line><line stroke="black" stroke-width="5" x1="229.22738337162278" x2="229.22738337162278" y1="143.8461538461538" y2="183.8461538461538"></line></g><g><g><path d="M14.565 199.486C18.565 199.486 23.485 195.766 23.485 191.966C23.485 189.686 21.685 188.206 19.085 188.206C14.165 188.206 10.205 191.846 10.205 195.726C10.205 198.086 12.125 199.486 14.565 199.486Z"></path><path d="M3.825 195.126C3.385 194.886 1.945 194.326 1.945 193.806C1.945 193.246 3.265 192.646 3.825 192.446C3.985 192.446 4.145 192.486 4.305 192.486C4.945 192.486 5.545 192.326 5.825 192.086C6.025 191.886 6.105 191.286 6.105 190.646C6.105 189.966 5.985 189.246 5.825 189.046C5.665 188.846 5.025 188.766 4.345 188.766C3.625 188.766 2.905 188.846 2.705 189.046C2.545 189.166 2.505 189.886 2.505 190.606C2.305 191.046 1.745 192.486 1.185 192.486C0.625 192.486-0.015 191.166-0.175 190.606C-0.175 189.926-0.295 189.206-0.495 189.046C-0.655 188.846-1.295 188.766-1.935 188.766C-2.615 188.766-3.335 188.846-3.575 189.046C-3.695 189.126-3.775 189.806-3.775 190.526C-3.775 191.246-3.695 191.966-3.575 192.086C-3.295 192.326-2.575 192.486-1.895 192.486C-1.735 192.486-1.615 192.446-1.495 192.446C-1.055 192.686 0.385 193.246 0.385 193.766C0.385 194.286-0.895 194.926-1.455 195.126L-1.855 195.126C-2.575 195.126-3.335 195.206-3.575 195.406C-3.695 195.526-3.775 196.206-3.775 196.926C-3.775 197.646-3.695 198.366-3.575 198.446C-3.295 198.686-2.655 198.846-1.975 198.846C-1.375 198.846-0.735 198.726-0.495 198.446C-0.255 198.246-0.175 197.566-0.175 196.926C-0.175 196.886-0.135 196.806-0.095 196.766C0.145 196.206 0.625 195.086 1.145 195.086C1.665 195.086 2.345 196.366 2.505 196.926C2.505 197.646 2.545 198.326 2.705 198.446C2.985 198.686 3.625 198.846 4.305 198.846C4.945 198.846 5.545 198.726 5.825 198.446C6.025 198.246 6.105 197.646 6.105 197.006C6.105 196.326 5.985 195.606 5.825 195.406C5.625 195.206 4.905 195.126 4.225 195.126Z"></path></g><line stroke="#000000" stroke-width="1.2" x1="22.8854" x2="22.8854" y1="192.0061538461538" y2="157.0061538461538"></line><line stroke="#000000" stroke-width="2.2" x1="7.005399999999999" x2="28.9254" y1="193.8461538461538" y2="193.8461538461538"></line></g><g><g><path d="M73.497 199.486C77.497 199.486 82.417 195.766 82.417 191.966C82.417 189.686 80.617 188.206 78.017 188.206C73.097 188.206 69.137 191.846 69.137 195.726C69.137 198.086 71.057 199.486 73.497 199.486Z"></path><g><path d="M48.677 203.206C48.677 203.086 48.637 203.006 48.517 202.966C45.997 200.926 44.517 198.286 44.517 193.846C44.517 189.406 45.877 186.726 48.557 184.766C48.677 184.646 48.677 184.446 48.677 184.446C48.677 184.446 48.677 184.166 48.677 184.006C48.677 183.926 48.637 183.846 48.517 183.846C48.517 183.846 48.517 183.886 48.517 183.886C44.157 186.286 42.157 189.766 42.157 193.846C42.157 197.886 44.077 201.406 48.517 203.846C48.517 203.886 48.557 203.886 48.637 203.886C48.637 203.886 48.677 203.766 48.677 203.726Z"></path><path d="M56.757 195.126C56.317 194.886 54.877 194.326 54.877 193.806C54.877 193.246 56.197 192.646 56.757 192.446C56.917 192.446 57.077 192.486 57.237 192.486C57.877 192.486 58.477 192.326 58.757 192.086C58.957 191.886 59.037 191.286 59.037 190.646C59.037 189.966 58.917 189.246 58.757 189.046C58.597 188.846 57.957 188.766 57.277 188.766C56.557 188.766 55.837 188.846 55.637 189.046C55.477 189.166 55.437 189.886 55.437 190.606C55.237 191.046 54.677 192.486 54.117 192.486C53.557 192.486 52.917 191.166 52.757 190.606C52.757 189.926 52.637 189.206 52.437 189.046C52.277 188.846 51.637 188.766 50.997 188.766C50.317 188.766 49.597 188.846 49.357 189.046C49.237 189.126 49.157 189.806 49.157 190.526C49.157 191.246 49.237 191.966 49.357 192.086C49.637 192.326 50.357 192.486 51.037 192.486C51.197 192.486 51.317 192.446 51.437 192.446C51.877 192.686 53.317 193.246 53.317 193.766C53.317 194.286 52.037 194.926 51.477 195.126L51.077 195.126C50.357 195.126 49.597 195.206 49.357 195.406C49.237 195.526 49.157 196.206 49.157 196.926C49.157 197.646 49.237 198.366 49.357 198.446C49.637 198.686 50.277 198.846 50.957 198.846C51.557 198.846 52.197 198.726 52.437 198.446C52.677 198.246 52.757 197.566 52.757 196.926C52.757 196.886 52.797 196.806 52.837 196.766C53.077 196.206 53.557 195.086 54.077 195.086C54.597 195.086 55.277 196.366 55.437 196.926C55.437 197.646 55.477 198.326 55.637 198.446C55.917 198.686 56.557 198.846 57.237 198.846C57.877 198.846 58.477 198.726 58.757 198.446C58.957 198.246 59.037 197.646 59.037 197.006C59.037 196.326 58.917 195.606 58.757 195.406C58.557 195.206 57.837 195.126 57.157 195.126Z"></path><path d="M59.037 203.726C59.037 203.766 59.077 203.886 59.077 203.886C59.157 203.886 59.197 203.886 59.197 203.846C63.637 201.406 65.557 197.886 65.557 193.846C65.557 189.766 63.557 186.286 59.197 183.886C59.197 183.886 59.197 183.846 59.197 183.846C59.077 183.846 59.037 183.926 59.037 184.006C59.037 184.166 59.037 184.446 59.037 184.446C59.037 184.446 59.037 184.646 59.157 184.766C61.837 186.726 63.197 189.406 63.197 193.846C63.197 198.286 61.717 200.926 59.197 202.966C59.077 203.006 59.037 203.086 59.037 203.206Z"></path></g></g><line stroke="#000000" stroke-width="1.2" x1="81.8172458429057" x2="81.8172458429057" y1="192.0061538461538" y2="157.0061538461538"></line><line stroke="#000000" stroke-width="2.2" x1="65.9372458429057" x2="87.8572458429057" y1="193.8461538461538" y2="193.8461538461538"></line></g><g><g><path d="M125.129 199.486C129.129 199.486 134.049 195.766 134.049 191.966C134.049 189.686 132.249 188.206 129.649 188.206C124.729 188.206 120.769 191.846 120.769 195.726C120.769 198.086 122.689 199.486 125.129 199.486Z"></path><path d="M114.389 195.126C113.949 194.886 112.509 194.326 112.509 193.806C112.509 193.246 113.829 192.646 114.389 192.446C114.549 192.446 114.709 192.486 114.869 192.486C115.509 192.486 116.109 192.326 116.389 192.086C116.589 191.886 116.669 191.286 116.669 190.646C116.669 189.966 116.549 189.246 116.389 189.046C116.229 188.846 115.589 188.766 114.909 188.766C114.189 188.766 113.469 188.846 113.269 189.046C113.109 189.166 113.069 189.886 113.069 190.606C112.869 191.046 112.309 192.486 111.749 192.486C111.189 192.486 110.549 191.166 110.389 190.606C110.389 189.926 110.269 189.206 110.069 189.046C109.909 188.846 109.269 188.766 108.629 188.766C107.949 188.766 107.229 188.846 106.989 189.046C106.869 189.126 106.789 189.806 106.789 190.526C106.789 191.246 106.869 191.966 106.989 192.086C107.269 192.326 107.989 192.486 108.669 192.486C108.829 192.486 108.949 192.446 109.069 192.446C109.509 192.686 110.949 193.246 110.949 193.766C110.949 194.286 109.669 194.926 109.109 195.126L108.709 195.126C107.989 195.126 107.229 195.206 106.989 195.406C106.869 195.526 106.789 196.206 106.789 196.926C106.789 197.646 106.869 198.366 106.989 198.446C107.269 198.686 107.909 198.846 108.589 198.846C109.189 198.846 109.829 198.726 110.069 198.446C110.309 198.246 110.389 197.566 110.389 196.926C110.389 196.886 110.429 196.806 110.469 196.766C110.709 196.206 111.189 195.086 111.709 195.086C112.229 195.086 112.909 196.366 113.069 196.926C113.069 197.646 113.109 198.326 113.269 198.446C113.549 198.686 114.189 198.846 114.869 198.846C115.509 198.846 116.109 198.726 116.389 198.446C116.589 198.246 116.669 197.646 116.669 197.006C116.669 196.326 116.549 195.606 116.389 195.406C116.189 195.206 115.469 195.126 114.789 195.126Z"></path></g><line stroke="#000000" stroke-width="1.2" x1="133.4490916858114" x2="133.4490916858114" y1="192.0061538461538" y2="157.0061538461538"></line><line stroke="#000000" stroke-width="2.2" x1="117.56909168581139" x2="139.4890916858114" y1="193.8461538461538" y2="193.8461538461538"></line></g><g><g><path d="M184.061 199.486C188.061 199.486 192.981 195.766 192.981 191.966C192.981 189.686 191.181 188.206 188.581 188.206C183.661 188.206 179.701 191.846 179.701 195.726C179.701 198.086 181.621 199.486 184.061 199.486Z"></path><g><path d="M159.241 203.206C159.241 203.086 159.201 203.006 159.081 202.966C156.561 200.926 155.081 198.286 155.081 193.846C155.081 189.406 156.441 186.726 159.121 184.766C159.241 184.646 159.241 184.446 159.241 184.446C159.241 184.446 159.241 184.166 159.241 184.006C159.241 183.926 159.201 183.846 159.081 183.846C159.081 183.846 159.081 183.886 159.081 183.886C154.721 186.286 152.721 189.766 152.721 193.846C152.721 197.886 154.641 201.406 159.081 203.846C159.081 203.886 159.121 203.886 159.201 203.886C159.201 203.886 159.241 203.766 159.241 203.726Z"></path><path d="M167.321 195.126C166.881 194.886 165.441 194.326 165.441 193.806C165.441 193.246 166.761 192.646 167.321 192.446C167.481 192.446 167.641 192.486 167.801 192.486C168.441 192.486 169.041 192.326 169.321 192.086C169.521 191.886 169.601 191.286 169.601 190.646C169.601 189.966 169.481 189.246 169.321 189.046C169.161 188.846 168.521 188.766 167.841 188.766C167.121 188.766 166.401 188.846 166.201 189.046C166.041 189.166 166.001 189.886 166.001 190.606C165.801 191.046 165.241 192.486 164.681 192.486C164.121 192.486 163.481 191.166 163.321 190.606C163.321 189.926 163.201 189.206 163.001 189.046C162.841 188.846 162.201 188.766 161.561 188.766C160.881 188.766 160.161 188.846 159.921 189.046C159.801 189.126 159.721 189.806 159.721 190.526C159.721 191.246 159.801 191.966 159.921 192.086C160.201 192.326 160.921 192.486 161.601 192.486C161.761 192.486 161.881 192.446 162.001 192.446C162.441 192.686 163.881 193.246 163.881 193.766C163.881 194.286 162.601 194.926 162.041 195.126L161.641 195.126C160.921 195.126 160.161 195.206 159.921 195.406C159.801 195.526 159.721 196.206 159.721 196.926C159.721 197.646 159.801 198.366 159.921 198.446C160.201 198.686 160.841 198.846 161.521 198.846C162.121 198.846 162.761 198.726 163.001 198.446C163.241 198.246 163.321 197.566 163.321 196.926C163.321 196.886 163.361 196.806 163.401 196.766C163.641 196.206 164.121 195.086 164.641 195.086C165.161 195.086 165.841 196.366 166.001 196.926C166.001 197.646 166.041 198.326 166.201 198.446C166.481 198.686 167.121 198.846 167.801 198.846C168.441 198.846 169.041 198.726 169.321 198.446C169.521 198.246 169.601 197.646 169.601 197.006C169.601 196.326 169.481 195.606 169.321 195.406C169.121 195.206 168.401 195.126 167.721 195.126Z"></path><path d="M169.601 203.726C169.601 203.766 169.641 203.886 169.641 203.886C169.721 203.886 169.761 203.886 169.761 203.846C174.201 201.406 176.121 197.886 176.121 193.846C176.121 189.766 174.121 186.286 169.761 183.886C169.761 183.886 169.761 183.846 169.761 183.846C169.641 183.846 169.601 183.926 169.601 184.006C169.601 184.166 169.601 184.446 169.601 184.446C169.601 184.446 169.601 184.646 169.721 184.766C172.401 186.726 173.761 189.406 173.761 193.846C173.761 198.286 172.281 200.926 169.761 202.966C169.641 203.006 169.601 203.086 169.601 203.206Z"></path></g></g><line stroke="#000000" stroke-width="1.2" x1="192.38093752871708" x2="192.38093752871708" y1="192.0061538461538" y2="157.0061538461538"></line><line stroke="#000000" stroke-width="2.2" x1="176.5009375287171" x2="198.42093752871708" y1="193.8461538461538" y2="193.8461538461538"></line></g></g></svg>