<?xml version="1.0" encoding="UTF-8" standalone="no"?><svg xmlns="http://www.w3.org/2000/svg" class="" height="279.4mm" viewBox="0 0 1328.6153846153845 1719.3846153846152" width="215.9mm"><g><g><g><line stroke="#6A6A6A" stroke-width="1.3" x1="93.84615384615385" x2="607.9538462473287" y1="183.8461538461538" y2="183.8461538461538"></line><line stroke="#6A6A6A" stroke-width="1.3" x1="93.84615384615385" x2="607.9538462473287" y1="173.8461538461538" y2="173.8461538461538"></line><line stroke="#6A6A6A" stroke-width="1.3" x1="93.84615384615385" x2="607.9538462473287" y1="163.8461538461538" y2="163.8461538461538"></line><line stroke="#6A6A6A" stroke-width="1.3" x1="93.84615384615385" x2="607.9538462473287" y1="153.8461538461538" y2="153.8461538461538"></line><line stroke="#6A6A6A" stroke-width="1.3" x1="93.84615384615385" x2="607.9538462473287" y1="143.8461538461538" y2="143.8461538461538"></line></g><g><path d="M119.046 129.926C118.486 129.926 117.246 130.966 116.446 131.846C113.486 135.126 112.526 140.126 112.526 144.286C112.526 146.606 112.806 149.206 113.086 150.846C113.166 151.326 113.206 151.406 112.726 151.806C110.166 153.926 107.406 156.366 105.326 158.926C102.566 162.366 100.846 166.086 100.846 170.366C100.846 177.326 105.606 183.926 115.406 183.926C116.326 183.926 117.366 183.846 118.166 183.686C118.606 183.606 118.686 183.566 118.766 184.046C119.246 186.726 119.846 190.206 119.846 192.086C119.846 198.006 115.846 198.726 113.486 198.726C111.326 198.726 110.286 198.086 110.286 197.566C110.286 197.126 110.646 197.166 111.566 196.886C112.806 196.526 114.246 195.446 114.246 193.126C114.246 190.926 112.846 189.046 110.406 189.046C107.726 189.046 106.126 191.166 106.126 193.646C106.126 196.246 107.686 200.166 113.726 200.166C116.406 200.166 121.606 198.966 121.606 192.166C121.606 189.886 120.886 186.086 120.446 183.606C120.366 183.126 120.406 183.166 120.966 182.926C125.006 181.326 127.686 177.926 127.686 173.406C127.686 168.286 123.926 163.766 118.046 163.766C116.926 163.766 117.046 163.966 116.886 163.046L115.886 157.246C115.806 156.766 115.886 156.726 116.126 156.486C116.766 155.886 117.606 155.046 118.366 154.206C121.726 150.526 123.726 145.766 123.726 141.246C123.726 137.766 122.766 134.326 121.126 131.926C120.526 131.046 119.486 129.926 119.046 129.926ZM113.886 158.086C114.286 157.766 114.366 157.806 114.446 158.246L115.286 163.366C115.406 164.126 115.406 164.086 114.686 164.326C111.166 165.526 108.886 168.686 108.886 172.086C108.886 175.686 110.766 178.246 113.486 179.166C113.806 179.286 114.286 179.406 114.566 179.406C114.886 179.406 115.046 179.206 115.046 178.966C115.046 178.686 114.726 178.566 114.446 178.446C112.766 177.726 111.566 176.006 111.566 174.166C111.566 171.886 113.126 170.166 115.566 169.486C116.206 169.326 116.286 169.366 116.366 169.806L118.366 181.726C118.446 182.166 118.406 182.166 117.806 182.286C117.166 182.406 116.366 182.486 115.566 182.486C108.566 182.486 104.046 178.606 104.046 173.046C104.046 170.686 104.446 167.526 107.766 163.766C110.166 161.086 112.006 159.606 113.886 158.086ZM118.486 169.166C121.726 169.446 124.406 172.166 124.406 175.686C124.406 178.206 122.886 180.246 120.646 181.366C120.166 181.606 120.086 181.606 120.006 181.126L118.046 169.726C117.966 169.246 118.006 169.126 118.486 169.166ZM119.646 136.126C120.966 136.126 122.046 137.206 122.046 139.406C122.046 142.166 120.726 144.726 117.606 147.846C116.966 148.486 116.006 149.406 115.086 150.206C114.806 150.446 114.646 150.406 114.566 149.886C114.406 148.846 114.326 147.486 114.326 146.206C114.326 139.966 117.206 136.126 119.646 136.126Z"></path></g><g></g><g><g><path d="M159.026 156.806L156.106 156.806L156.106 148.246C156.106 147.926 156.066 147.566 155.626 147.566C155.266 147.566 155.066 147.646 154.826 147.926L151.026 152.526C150.866 152.726 150.666 152.966 150.666 153.446C150.666 153.446 150.666 155.046 150.666 156.806L145.266 156.806C148.466 154.086 154.866 145.006 154.986 144.566C154.986 144.486 155.026 144.446 155.026 144.366C155.026 144.046 154.746 143.806 154.426 143.806C154.066 143.806 152.426 143.886 151.706 143.886C150.986 143.886 149.186 143.806 148.866 143.806C148.506 143.806 147.946 143.926 147.946 144.566C147.946 149.526 144.026 155.086 142.826 156.766L142.586 157.086C142.586 157.126 142.546 157.166 142.546 157.206C142.466 157.366 142.426 157.526 142.426 157.646C142.426 158.046 142.746 158.326 143.226 158.326L150.666 158.326L150.666 160.846C150.666 161.926 149.786 162.246 149.066 162.246C148.426 162.246 148.146 162.606 148.146 163.006C148.146 163.406 148.306 163.846 148.906 163.846C149.546 163.846 157.426 163.846 157.426 163.846C157.826 163.846 158.226 163.566 158.226 163.006C158.226 162.446 157.746 162.206 157.346 162.206C156.946 162.206 156.106 161.966 156.106 160.686L156.106 158.326C157.826 158.326 159.026 158.326 159.026 158.326C159.426 158.326 159.626 158.046 159.626 157.566C159.626 157.086 159.466 156.806 159.026 156.806Z"></path></g><g><path d="M159.026 176.806L156.106 176.806L156.106 168.246C156.106 167.926 156.066 167.566 155.626 167.566C155.266 167.566 155.066 167.646 154.826 167.926L151.026 172.526C150.866 172.726 150.666 172.966 150.666 173.446C150.666 173.446 150.666 175.046 150.666 176.806L145.266 176.806C148.466 174.086 154.866 165.006 154.986 164.566C154.986 164.486 155.026 164.446 155.026 164.366C155.026 164.046 154.746 163.806 154.426 163.806C154.066 163.806 152.426 163.886 151.706 163.886C150.986 163.886 149.186 163.806 148.866 163.806C148.506 163.806 147.946 163.926 147.946 164.566C147.946 169.526 144.026 175.086 142.826 176.766L142.586 177.086C142.586 177.126 142.546 177.166 142.546 177.206C142.466 177.366 142.426 177.526 142.426 177.646C142.426 178.046 142.746 178.326 143.226 178.326L150.666 178.326L150.666 180.846C150.666 181.926 149.786 182.246 149.066 182.246C148.426 182.246 148.146 182.606 148.146 183.006C148.146 183.406 148.306 183.846 148.906 183.846C149.546 183.846 157.426 183.846 157.426 183.846C157.826 183.846 158.226 183.566 158.226 183.006C158.226 182.446 157.746 182.206 157.346 182.206C156.946 182.206 156.106 181.966 156.106 180.686L156.106 178.326C157.826 178.326 159.026 178.326 159.026 178.326C159.426 178.326 159.626 178.046 159.626 177.566C159.626 177.086 159.466 176.806 159.026 176.806Z"></path></g></g><text font-family='Alegreya' font-style='italic' text-anchor='end' stroke='#7a7a7a' font-size="24" x="93.84615384615385" y="133.8461538461538">25</text></g><g><line stroke="black" stroke-width="1.6" x1="598.1538462473287" x2="598.1538462473287" y1="143.8461538461538" y2="183.8461538461538"></line><line stroke="black" stroke-width="5" x1="605.4538462473288" x2="605.4538462473288" y1="143.8461538461538" y2="183.8461538461538"></line></g><g><g><path d="M187.326 154.646C194.966 154.646 196.486 148.446 196.486 146.926C196.486 144.566 194.606 143.046 191.926 143.046C185.006 143.046 182.846 148.406 182.846 150.806C182.846 153.246 184.806 154.646 187.326 154.646ZM190.846 150.966C188.766 152.366 187.326 152.846 186.326 152.846C185.366 152.846 184.806 152.366 184.486 151.806C184.326 151.526 184.206 151.206 184.206 150.886C184.206 149.886 185.206 148.606 188.406 146.766C190.686 145.446 192.126 144.966 193.086 144.966C193.966 144.966 194.446 145.366 194.766 145.926C194.926 146.206 195.046 146.486 195.046 146.806C195.046 147.726 194.086 148.846 190.846 150.966Z"></path></g><line stroke="#000000" stroke-width="1.2" x1="183.44615384615386" x2="183.44615384615386" y1="150.80615384615382" y2="188.80615384615382"></line></g><g><g><path d="M365.960 144.486C369.960 144.486 374.880 140.766 374.880 136.966C374.880 134.686 373.080 133.206 370.480 133.206C365.560 133.206 361.600 136.846 361.600 140.726C361.600 143.086 363.520 144.486 365.960 144.486Z"></path></g><line stroke="#000000" stroke-width="1.2" x1="362.2000000467413" x2="362.2000000467413" y1="140.68615384615381" y2="166.93615384615381"></line><path d="M371.200 141.016C371.800 144.376 371.800 148.016 370.280 151.136C367.520 156.736 364.280 156.856 361.800 156.936L361.600 156.936L361.600 172.776C361.600 172.776 362.040 172.816 362.280 172.816C362.520 172.816 363.000 172.736 363.080 172.296C364.040 166.136 371.920 164.416 372.880 158.136C372.960 157.696 373.000 157.216 373.000 156.696C373.000 154.256 372.120 151.856 372.000 151.616C371.960 151.536 371.960 151.456 371.960 151.336C371.960 151.176 372.000 151.096 372.000 150.976C373.440 147.976 373.480 144.056 372.840 140.856C372.640 139.936 372.360 139.976 371.880 139.976C371.400 140.016 371.080 140.336 371.200 141.016ZM370.640 154.216C370.840 154.216 371.120 154.336 371.160 154.496C371.360 154.776 371.360 155.176 371.440 155.496C371.480 155.776 371.480 156.056 371.480 156.296C371.480 157.616 371.120 158.816 370.400 159.856C369.080 161.816 366.520 164.056 364.080 164.056L363.760 164.056C363.440 164.056 363.200 163.856 363.200 163.656C363.200 163.616 363.200 163.576 363.240 163.536C364.080 160.256 366.320 159.336 368.200 157.136C369.040 156.216 369.720 155.416 370.360 154.376C370.440 154.256 370.520 154.216 370.640 154.216Z"></path></g><g><g><path d="M377.360 139.486C381.360 139.486 386.280 135.766 386.280 131.966C386.280 129.686 384.480 128.206 381.880 128.206C376.960 128.206 373.000 131.846 373.000 135.726C373.000 138.086 374.920 139.486 377.360 139.486Z"></path></g><line stroke="#000000" stroke-width="1.2" x1="373.60000004674134" x2="373.60000004674134" y1="135.68615384615381" y2="161.93615384615381"></line><line stroke="#000000" stroke-width="2.2" x1="369.80000004674133" x2="391.72000004674135" y1="133.8461538461538" y2="133.8461538461538"></line><path d="M382.600 136.016C383.200 139.376 383.200 143.016 381.680 146.136C378.920 151.736 375.680 151.856 373.200 151.936L373.000 151.936L373.000 167.776C373.000 167.776 373.440 167.816 373.680 167.816C373.920 167.816 374.400 167.736 374.480 167.296C375.440 161.136 383.320 159.416 384.280 153.136C384.360 152.696 384.400 152.216 384.400 151.696C384.400 149.256 383.520 146.856 383.400 146.616C383.360 146.536 383.360 146.456 383.360 146.336C383.360 146.176 383.400 146.096 383.400 145.976C384.840 142.976 384.880 139.056 384.240 135.856C384.040 134.936 383.760 134.976 383.280 134.976C382.800 135.016 382.480 135.336 382.600 136.016ZM382.040 149.216C382.240 149.216 382.520 149.336 382.560 149.496C382.760 149.776 382.760 150.176 382.840 150.496C382.880 150.776 382.880 151.056 382.880 151.296C382.880 152.616 382.520 153.816 381.800 154.856C380.480 156.816 377.920 159.056 375.480 159.056L375.160 159.056C374.840 159.056 374.600 158.856 374.600 158.656C374.600 158.616 374.600 158.576 374.640 158.536C375.480 155.256 377.720 154.336 379.600 152.136C380.440 151.216 381.120 150.416 381.760 149.376C381.840 149.256 381.920 149.216 382.040 149.216Z"></path></g><g><g><path d="M388.760 139.486C392.760 139.486 397.680 135.766 397.680 131.966C397.680 129.686 395.880 128.206 393.280 128.206C388.360 128.206 384.400 131.846 384.400 135.726C384.400 138.086 386.320 139.486 388.760 139.486Z"></path></g><line stroke="#000000" stroke-width="1.2" x1="385.0000000467413" x2="385.0000000467413" y1="135.68615384615381" y2="161.93615384615381"></line><line stroke="#000000" stroke-width="2.2" x1="381.2000000467413" x2="403.1200000467413" y1="133.8461538461538" y2="133.8461538461538"></line><path d="M394.000 136.016C394.600 139.376 394.600 143.016 393.080 146.136C390.320 151.736 387.080 151.856 384.600 151.936L384.400 151.936L384.400 167.776C384.400 167.776 384.840 167.816 385.080 167.816C385.320 167.816 385.800 167.736 385.880 167.296C386.840 161.136 394.720 159.416 395.680 153.136C395.760 152.696 395.800 152.216 395.800 151.696C395.800 149.256 394.920 146.856 394.800 146.616C394.760 146.536 394.760 146.456 394.760 146.336C394.760 146.176 394.800 146.096 394.800 145.976C396.240 142.976 396.280 139.056 395.640 135.856C395.440 134.936 395.160 134.976 394.680 134.976C394.200 135.016 393.880 135.336 394.000 136.016ZM393.440 149.216C393.640 149.216 393.920 149.336 393.960 149.496C394.160 149.776 394.160 150.176 394.240 150.496C394.280 150.776 394.280 151.056 394.280 151.296C394.280 152.616 393.920 153.816 393.200 154.856C391.880 156.816 389.320 159.056 386.880 159.056L386.560 159.056C386.240 159.056 386.000 158.856 386.000 158.656C386.000 158.616 386.000 158.576 386.040 158.536C386.880 155.256 389.120 154.336 391.000 152.136C391.840 151.216 392.520 150.416 393.160 149.376C393.240 149.256 393.320 149.216 393.440 149.216Z"></path></g><g><g><path d="M400.280 154.646C407.920 154.646 409.440 148.446 409.440 146.926C409.440 144.566 407.560 143.046 404.880 143.046C397.960 143.046 395.800 148.406 395.800 150.806C395.800 153.246 397.760 154.646 400.280 154.646ZM403.800 150.966C401.720 152.366 400.280 152.846 399.280 152.846C398.320 152.846 397.760 152.366 397.440 151.806C397.280 151.526 397.160 151.206 397.160 150.886C397.160 149.886 398.160 148.606 401.360 146.766C403.640 145.446 405.080 144.966 406.040 144.966C406.920 144.966 407.400 145.366 407.720 145.926C407.880 146.206 408.000 146.486 408.000 146.806C408.000 147.726 407.040 148.846 403.800 150.966Z"></path></g><line stroke="#000000" stroke-width="1.2" x1="396.40000004674135" x2="396.40000004674135" y1="150.80615384615382" y2="188.80615384615382"></line></g><g><g><path d="M578.914 144.486C582.914 144.486 587.834 140.766 587.834 136.966C587.834 134.686 586.034 133.206 583.434 133.206C578.514 133.206 574.554 136.846 574.554 140.726C574.554 143.086 576.474 144.486 578.914 144.486Z"></path></g><line stroke="#000000" stroke-width="1.2" x1="575.1538462473287" x2="575.1538462473287" y1="140.68615384615381" y2="166.93615384615381"></line><path d="M584.154 141.016C584.754 144.376 584.754 148.016 583.234 151.136C580.474 156.736 577.234 156.856 574.754 156.936L574.554 156.936L574.554 172.776C574.554 172.776 574.994 172.816 575.234 172.816C575.474 172.816 575.954 172.736 576.034 172.296C576.994 166.136 584.874 164.416 585.834 158.136C585.914 157.696 585.954 157.216 585.954 156.696C585.954 154.256 585.074 151.856 584.954 151.616C584.914 151.536 584.914 151.456 584.914 151.336C584.914 151.176 584.954 151.096 584.954 150.976C586.394 147.976 586.434 144.056 585.794 140.856C585.594 139.936 585.314 139.976 584.834 139.976C584.354 140.016 584.034 140.336 584.154 141.016ZM583.594 154.216C583.794 154.216 584.074 154.336 584.114 154.496C584.314 154.776 584.314 155.176 584.394 155.496C584.434 155.776 584.434 156.056 584.434 156.296C584.434 157.616 584.074 158.816 583.354 159.856C582.034 161.816 579.474 164.056 577.034 164.056L576.714 164.056C576.394 164.056 576.154 163.856 576.154 163.656C576.154 163.616 576.154 163.576 576.194 163.536C577.034 160.256 579.274 159.336 581.154 157.136C581.994 156.216 582.674 155.416 583.314 154.376C583.394 154.256 583.474 154.216 583.594 154.216Z"></path></g><g><g><path d="M590.314 139.486C594.314 139.486 599.234 135.766 599.234 131.966C599.234 129.686 597.434 128.206 594.834 128.206C589.914 128.206 585.954 131.846 585.954 135.726C585.954 138.086 587.874 139.486 590.314 139.486Z"></path></g><line stroke="#000000" stroke-width="1.2" x1="586.5538462473287" x2="586.5538462473287" y1="135.68615384615381" y2="161.93615384615381"></line><line stroke="#000000" stroke-width="2.2" x1="582.7538462473286" x2="604.6738462473286" y1="133.8461538461538" y2="133.8461538461538"></line><path d="M595.554 136.016C596.154 139.376 596.154 143.016 594.634 146.136C591.874 151.736 588.634 151.856 586.154 151.936L585.954 151.936L585.954 167.776C585.954 167.776 586.394 167.816 586.634 167.816C586.874 167.816 587.354 167.736 587.434 167.296C588.394 161.136 596.274 159.416 597.234 153.136C597.314 152.696 597.354 152.216 597.354 151.696C597.354 149.256 596.474 146.856 596.354 146.616C596.314 146.536 596.314 146.456 596.314 146.336C596.314 146.176 596.354 146.096 596.354 145.976C597.794 142.976 597.834 139.056 597.194 135.856C596.994 134.936 596.714 134.976 596.234 134.976C595.754 135.016 595.434 135.336 595.554 136.016ZM594.994 149.216C595.194 149.216 595.474 149.336 595.514 149.496C595.714 149.776 595.714 150.176 595.794 150.496C595.834 150.776 595.834 151.056 595.834 151.296C595.834 152.616 595.474 153.816 594.754 154.856C593.434 156.816 590.874 159.056 588.434 159.056L588.114 159.056C587.794 159.056 587.554 158.856 587.554 158.656C587.554 158.616 587.554 158.576 587.594 158.536C588.434 155.256 590.674 154.336 592.554 152.136C593.394 151.216 594.074 150.416 594.714 149.376C594.794 149.256 594.874 149.216 594.994 149.216Z"></path></g></g></svg>