<?xml version="1.0" encoding="UTF-8" standalone="no"?><svg xmlns="http://www.w3.org/2000/svg" height="279.4mm" viewBox="0 0 1328.6153846153845 1719.3846153846152" width="215.9mm"><g transform="translate(93.84615384615385)"><g><g><line stroke="#6A6A6A" stroke-width="1.3" x1="0" x2="285.71594035671126" y1="183.8461538461538" y2="183.8461538461538"></line><line stroke="#6A6A6A" stroke-width="1.3" x1="0" x2="285.71594035671126" y1="173.8461538461538" y2="173.8461538461538"></line><line stroke="#6A6A6A" stroke-width="1.3" x1="0" x2="285.71594035671126" y1="163.8461538461538" y2="163.8461538461538"></line><line stroke="#6A6A6A" stroke-width="1.3" x1="0" x2="285.71594035671126" y1="153.8461538461538" y2="153.8461538461538"></line><line stroke="#6A6A6A" stroke-width="1.3" x1="0" x2="285.71594035671126" y1="143.8461538461538" y2="143.8461538461538"></line></g><g><path d="M25.200 129.926C24.640 129.926 23.400 130.966 22.600 131.846C19.640 135.126 18.680 140.126 18.680 144.286C18.680 146.606 18.960 149.206 19.240 150.846C19.320 151.326 19.360 151.406 18.880 151.806C16.320 153.926 13.560 156.366 11.480 158.926C8.720 162.366 7 166.086 7 170.366C7 177.326 11.760 183.926 21.560 183.926C22.480 183.926 23.520 183.846 24.320 183.686C24.760 183.606 24.840 183.566 24.920 184.046C25.400 186.726 26 190.206 26 192.086C26 198.006 22 198.726 19.640 198.726C17.480 198.726 16.440 198.086 16.440 197.566C16.440 197.126 16.800 197.166 17.720 196.886C18.960 196.526 20.400 195.446 20.400 193.126C20.400 190.926 19 189.046 16.560 189.046C13.880 189.046 12.280 191.166 12.280 193.646C12.280 196.246 13.840 200.166 19.880 200.166C22.560 200.166 27.760 198.966 27.760 192.166C27.760 189.886 27.040 186.086 26.600 183.606C26.520 183.126 26.560 183.166 27.120 182.926C31.160 181.326 33.840 177.926 33.840 173.406C33.840 168.286 30.080 163.766 24.200 163.766C23.080 163.766 23.200 163.966 23.040 163.046L22.040 157.246C21.960 156.766 22.040 156.726 22.280 156.486C22.920 155.886 23.760 155.046 24.520 154.206C27.880 150.526 29.880 145.766 29.880 141.246C29.880 137.766 28.920 134.326 27.280 131.926C26.680 131.046 25.640 129.926 25.200 129.926ZM20.040 158.086C20.440 157.766 20.520 157.806 20.600 158.246L21.440 163.366C21.560 164.126 21.560 164.086 20.840 164.326C17.320 165.526 15.040 168.686 15.040 172.086C15.040 175.686 16.920 178.246 19.640 179.166C19.960 179.286 20.440 179.406 20.720 179.406C21.040 179.406 21.200 179.206 21.200 178.966C21.200 178.686 20.880 178.566 20.600 178.446C18.920 177.726 17.720 176.006 17.720 174.166C17.720 171.886 19.280 170.166 21.720 169.486C22.360 169.326 22.440 169.366 22.520 169.806L24.520 181.726C24.600 182.166 24.560 182.166 23.960 182.286C23.320 182.406 22.520 182.486 21.720 182.486C14.720 182.486 10.200 178.606 10.200 173.046C10.200 170.686 10.600 167.526 13.920 163.766C16.320 161.086 18.160 159.606 20.040 158.086ZM24.640 169.166C27.880 169.446 30.560 172.166 30.560 175.686C30.560 178.206 29.040 180.246 26.800 181.366C26.320 181.606 26.240 181.606 26.160 181.126L24.200 169.726C24.120 169.246 24.160 169.126 24.640 169.166ZM25.800 136.126C27.120 136.126 28.200 137.206 28.200 139.406C28.200 142.166 26.880 144.726 23.760 147.846C23.120 148.486 22.160 149.406 21.240 150.206C20.960 150.446 20.800 150.406 20.720 149.886C20.560 148.846 20.480 147.486 20.480 146.206C20.480 139.966 23.360 136.126 25.800 136.126Z"></path></g><g></g><path d="M57.820 153.806C56.620 153.806 55.220 154.126 54.140 154.606C50.580 156.166 48.700 160.446 48.700 164.246C48.700 164.606 48.700 164.966 48.740 165.326C48.940 167.486 49.980 169.526 51.300 171.126C52.820 172.966 55.020 173.806 57.420 173.806C64.420 173.806 65.460 167.446 65.460 166.286C65.460 165.406 65.020 165.406 64.860 165.406C64.540 165.406 64.260 165.446 64.260 166.126C64.260 171.286 59.860 172.486 58.580 172.486C55.340 172.486 53.620 169.326 53.620 162.726C53.620 156.126 56.660 154.766 58.820 154.766C60.900 154.766 61.740 155.726 61.740 156.126C61.740 156.486 61.620 157.006 61.020 157.006C59.420 157.006 58.500 158.726 58.500 159.966C58.500 162.246 60.460 162.966 61.580 162.966C61.580 162.966 64.620 162.846 64.620 159.526C64.620 154.286 58.580 153.806 57.820 153.806Z"></path></g><g><line stroke="black" stroke-width="1.6" x1="286.51594035671127" x2="286.51594035671127" y1="143.8461538461538" y2="183.8461538461538"></line></g><g><g><path d="M101.448 194.486C105.448 194.486 110.368 190.766 110.368 186.966C110.368 184.686 108.568 183.206 105.968 183.206C101.048 183.206 97.088 186.846 97.088 190.726C97.088 193.086 99.008 194.486 101.448 194.486Z"></path><path d="M86.488 195.646C86.608 195.806 86.728 195.846 86.848 195.846C86.968 195.846 87.088 195.766 87.088 195.766C88.288 195.086 89.248 194.006 90.248 193.326C93.808 190.846 95.048 188.406 95.048 186.566C95.048 184.286 93.288 182.846 91.448 182.726C91.168 182.726 90.888 182.766 90.608 182.846C90.168 182.966 89.688 183.126 89.248 183.406C89.008 183.606 88.728 183.966 88.368 183.966C88.288 183.966 88.248 183.966 88.168 183.926C87.888 183.806 87.728 183.526 87.728 183.246C87.768 182.366 88.008 172.766 88.008 171.966C88.008 171.526 87.648 171.286 87.248 171.286C86.688 171.286 86.048 171.686 86.008 172.406C86.008 172.406 86.168 195.246 86.488 195.646ZM87.888 192.086C87.888 192.086 87.768 189.686 87.768 188.086C87.768 187.446 87.808 186.966 87.848 186.806C88.008 186.326 89.048 185.446 89.608 185.126C89.968 184.926 90.328 184.846 90.648 184.846C91.048 184.846 91.408 185.006 91.648 185.286C92.048 185.726 92.288 186.406 92.288 187.166C92.288 187.886 92.088 188.726 91.608 189.566C91.088 190.526 89.928 191.806 88.728 192.566C88.568 192.646 88.448 192.686 88.328 192.686C87.968 192.686 87.888 192.286 87.888 192.086Z"></path></g><line stroke="#000000" stroke-width="1.2" x1="109.76840000000001" x2="109.76840000000001" y1="187.0061538461538" y2="149.0061538461538"></line></g><g><g><path d="M154.277 194.486C158.277 194.486 163.197 190.766 163.197 186.966C163.197 184.686 161.397 183.206 158.797 183.206C153.877 183.206 149.917 186.846 149.917 190.726C149.917 193.086 151.837 194.486 154.277 194.486Z"></path><g><path d="M132.357 198.206C132.357 198.086 132.317 198.006 132.197 197.966C129.677 195.926 128.197 193.286 128.197 188.846C128.197 184.406 129.557 181.726 132.237 179.766C132.357 179.646 132.357 179.446 132.357 179.446C132.357 179.446 132.357 179.166 132.357 179.006C132.357 178.926 132.317 178.846 132.197 178.846C132.197 178.846 132.197 178.886 132.197 178.886C127.837 181.286 125.837 184.766 125.837 188.846C125.837 192.886 127.757 196.406 132.197 198.846C132.197 198.886 132.237 198.886 132.317 198.886C132.317 198.886 132.357 198.766 132.357 198.726Z"></path><path d="M133.317 195.646C133.437 195.806 133.557 195.846 133.677 195.846C133.797 195.846 133.917 195.766 133.917 195.766C135.117 195.086 136.077 194.006 137.077 193.326C140.637 190.846 141.877 188.406 141.877 186.566C141.877 184.286 140.117 182.846 138.277 182.726C137.997 182.726 137.717 182.766 137.437 182.846C136.997 182.966 136.517 183.126 136.077 183.406C135.837 183.606 135.557 183.966 135.197 183.966C135.117 183.966 135.077 183.966 134.997 183.926C134.717 183.806 134.557 183.526 134.557 183.246C134.597 182.366 134.837 172.766 134.837 171.966C134.837 171.526 134.477 171.286 134.077 171.286C133.517 171.286 132.877 171.686 132.837 172.406C132.837 172.406 132.997 195.246 133.317 195.646ZM134.717 192.086C134.717 192.086 134.597 189.686 134.597 188.086C134.597 187.446 134.637 186.966 134.677 186.806C134.837 186.326 135.877 185.446 136.437 185.126C136.797 184.926 137.157 184.846 137.477 184.846C137.877 184.846 138.237 185.006 138.477 185.286C138.877 185.726 139.117 186.406 139.117 187.166C139.117 187.886 138.917 188.726 138.437 189.566C137.917 190.526 136.757 191.806 135.557 192.566C135.397 192.646 135.277 192.686 135.157 192.686C134.797 192.686 134.717 192.286 134.717 192.086Z"></path><path d="M141.877 198.726C141.877 198.766 141.917 198.886 141.917 198.886C141.997 198.886 142.037 198.886 142.037 198.846C146.477 196.406 148.397 192.886 148.397 188.846C148.397 184.766 146.397 181.286 142.037 178.886C142.037 178.886 142.037 178.846 142.037 178.846C141.917 178.846 141.877 178.926 141.877 179.006C141.877 179.166 141.877 179.446 141.877 179.446C141.877 179.446 141.877 179.646 141.997 179.766C144.677 181.726 146.037 184.406 146.037 188.846C146.037 193.286 144.557 195.926 142.037 197.966C141.917 198.006 141.877 198.086 141.877 198.206Z"></path></g></g><line stroke="#000000" stroke-width="1.2" x1="162.59738508917783" x2="162.59738508917783" y1="187.0061538461538" y2="149.0061538461538"></line></g><g><g><path d="M199.806 194.486C203.806 194.486 208.726 190.766 208.726 186.966C208.726 184.686 206.926 183.206 204.326 183.206C199.406 183.206 195.446 186.846 195.446 190.726C195.446 193.086 197.366 194.486 199.806 194.486Z"></path><path d="M184.846 195.646C184.966 195.806 185.086 195.846 185.206 195.846C185.326 195.846 185.446 195.766 185.446 195.766C186.646 195.086 187.606 194.006 188.606 193.326C192.166 190.846 193.406 188.406 193.406 186.566C193.406 184.286 191.646 182.846 189.806 182.726C189.526 182.726 189.246 182.766 188.966 182.846C188.526 182.966 188.046 183.126 187.606 183.406C187.366 183.606 187.086 183.966 186.726 183.966C186.646 183.966 186.606 183.966 186.526 183.926C186.246 183.806 186.086 183.526 186.086 183.246C186.126 182.366 186.366 172.766 186.366 171.966C186.366 171.526 186.006 171.286 185.606 171.286C185.046 171.286 184.406 171.686 184.366 172.406C184.366 172.406 184.526 195.246 184.846 195.646ZM186.246 192.086C186.246 192.086 186.126 189.686 186.126 188.086C186.126 187.446 186.166 186.966 186.206 186.806C186.366 186.326 187.406 185.446 187.966 185.126C188.326 184.926 188.686 184.846 189.006 184.846C189.406 184.846 189.766 185.006 190.006 185.286C190.406 185.726 190.646 186.406 190.646 187.166C190.646 187.886 190.446 188.726 189.966 189.566C189.446 190.526 188.286 191.806 187.086 192.566C186.926 192.646 186.806 192.686 186.686 192.686C186.326 192.686 186.246 192.286 186.246 192.086Z"></path></g><line stroke="#000000" stroke-width="1.2" x1="208.12637017835564" x2="208.12637017835564" y1="187.0061538461538" y2="149.0061538461538"></line></g><g><g><path d="M252.635 194.486C256.635 194.486 261.555 190.766 261.555 186.966C261.555 184.686 259.755 183.206 257.155 183.206C252.235 183.206 248.275 186.846 248.275 190.726C248.275 193.086 250.195 194.486 252.635 194.486Z"></path><g><path d="M230.715 198.206C230.715 198.086 230.675 198.006 230.555 197.966C228.035 195.926 226.555 193.286 226.555 188.846C226.555 184.406 227.915 181.726 230.595 179.766C230.715 179.646 230.715 179.446 230.715 179.446C230.715 179.446 230.715 179.166 230.715 179.006C230.715 178.926 230.675 178.846 230.555 178.846C230.555 178.846 230.555 178.886 230.555 178.886C226.195 181.286 224.195 184.766 224.195 188.846C224.195 192.886 226.115 196.406 230.555 198.846C230.555 198.886 230.595 198.886 230.675 198.886C230.675 198.886 230.715 198.766 230.715 198.726Z"></path><path d="M231.675 195.646C231.795 195.806 231.915 195.846 232.035 195.846C232.155 195.846 232.275 195.766 232.275 195.766C233.475 195.086 234.435 194.006 235.435 193.326C238.995 190.846 240.235 188.406 240.235 186.566C240.235 184.286 238.475 182.846 236.635 182.726C236.355 182.726 236.075 182.766 235.795 182.846C235.355 182.966 234.875 183.126 234.435 183.406C234.195 183.606 233.915 183.966 233.555 183.966C233.475 183.966 233.435 183.966 233.355 183.926C233.075 183.806 232.915 183.526 232.915 183.246C232.955 182.366 233.195 172.766 233.195 171.966C233.195 171.526 232.835 171.286 232.435 171.286C231.875 171.286 231.235 171.686 231.195 172.406C231.195 172.406 231.355 195.246 231.675 195.646ZM233.075 192.086C233.075 192.086 232.955 189.686 232.955 188.086C232.955 187.446 232.995 186.966 233.035 186.806C233.195 186.326 234.235 185.446 234.795 185.126C235.155 184.926 235.515 184.846 235.835 184.846C236.235 184.846 236.595 185.006 236.835 185.286C237.235 185.726 237.475 186.406 237.475 187.166C237.475 187.886 237.275 188.726 236.795 189.566C236.275 190.526 235.115 191.806 233.915 192.566C233.755 192.646 233.635 192.686 233.515 192.686C233.155 192.686 233.075 192.286 233.075 192.086Z"></path><path d="M240.235 198.726C240.235 198.766 240.275 198.886 240.275 198.886C240.355 198.886 240.395 198.886 240.395 198.846C244.835 196.406 246.755 192.886 246.755 188.846C246.755 184.766 244.755 181.286 240.395 178.886C240.395 178.886 240.395 178.846 240.395 178.846C240.275 178.846 240.235 178.926 240.235 179.006C240.235 179.166 240.235 179.446 240.235 179.446C240.235 179.446 240.235 179.646 240.355 179.766C243.035 181.726 244.395 184.406 244.395 188.846C244.395 193.286 242.915 195.926 240.395 197.966C240.275 198.006 240.235 198.086 240.235 198.206Z"></path></g></g><line stroke="#000000" stroke-width="1.2" x1="260.95535526753343" x2="260.95535526753343" y1="187.0061538461538" y2="149.0061538461538"></line></g></g><g transform="translate(396.1620942028651)"><g><g><line stroke="#6A6A6A" stroke-width="1.3" x1="-16.600000000000023" x2="205.4175403567113" y1="183.8461538461538" y2="183.8461538461538"></line><line stroke="#6A6A6A" stroke-width="1.3" x1="-16.600000000000023" x2="205.4175403567113" y1="173.8461538461538" y2="173.8461538461538"></line><line stroke="#6A6A6A" stroke-width="1.3" x1="-16.600000000000023" x2="205.4175403567113" y1="163.8461538461538" y2="163.8461538461538"></line><line stroke="#6A6A6A" stroke-width="1.3" x1="-16.600000000000023" x2="205.4175403567113" y1="153.8461538461538" y2="153.8461538461538"></line><line stroke="#6A6A6A" stroke-width="1.3" x1="-16.600000000000023" x2="205.4175403567113" y1="143.8461538461538" y2="143.8461538461538"></line></g></g><g><line stroke="black" stroke-width="1.6" x1="206.2175403567113" x2="206.2175403567113" y1="143.8461538461538" y2="183.8461538461538"></line></g><g><g><path d="M14.624 199.486C18.624 199.486 23.544 195.766 23.544 191.966C23.544 189.686 21.744 188.206 19.144 188.206C14.224 188.206 10.264 191.846 10.264 195.726C10.264 198.086 12.184 199.486 14.624 199.486Z"></path><path d="M5.684 189.126C5.964 189.006 6.164 188.686 6.164 188.446L6.164 185.606C6.164 185.406 6.044 185.286 5.884 185.286C5.804 185.286 5.764 185.286 5.684 185.326C5.684 185.326 4.884 185.646 4.684 185.686C4.404 185.686 4.124 185.486 4.124 185.166C4.124 184.766 4.124 180.286 4.124 180.286C4.124 180.046 3.884 179.846 3.564 179.846C3.164 179.846 2.924 180.046 2.924 180.286C2.924 180.286 2.924 185.086 2.924 185.486C2.884 185.886 2.764 186.406 2.404 186.646C1.924 186.926 0.564 187.486-0.116 187.646C-0.476 187.646-0.596 187.166-0.596 186.846C-0.596 186.446-0.596 182.046-0.596 182.046C-0.596 181.806-0.876 181.606-1.156 181.606C-1.556 181.606-1.796 181.806-1.796 182.046C-1.796 182.046-1.796 184.206-1.796 185.806L-1.796 187.446C-1.796 188.006-2.036 188.406-2.276 188.526C-2.516 188.646-3.316 188.966-3.316 188.966C-3.596 189.046-3.796 189.366-3.796 189.606L-3.796 192.446C-3.796 192.686-3.676 192.806-3.476 192.806C-3.436 192.806-3.356 192.766-3.316 192.766C-3.316 192.766-2.716 192.526-2.436 192.366C-2.396 192.366-2.356 192.326-2.316 192.326C-2.036 192.326-1.796 192.726-1.796 193.046L-1.796 197.006C-1.796 197.446-1.996 197.806-2.236 197.926C-2.476 198.006-3.316 198.366-3.316 198.366C-3.596 198.446-3.796 198.766-3.796 199.006L-3.796 201.846C-3.796 202.086-3.676 202.206-3.476 202.206C-3.436 202.206-3.356 202.166-3.316 202.166C-3.316 202.166-2.756 201.926-2.396 201.806C-2.356 201.766-2.316 201.766-2.276 201.766C-1.996 201.766-1.796 202.206-1.796 202.406C-1.796 202.646-1.796 207.326-1.796 207.326C-1.796 207.566-1.556 207.766-1.276 207.766C-0.876 207.766-0.596 207.566-0.596 207.326C-0.596 207.326-0.596 202.246-0.596 201.766C-0.596 201.246-0.396 200.966-0.196 200.886L2.244 199.886C2.284 199.886 2.364 199.846 2.404 199.846C2.724 199.846 2.924 200.326 2.924 200.566C2.924 200.846 2.924 205.566 2.924 205.566C2.924 205.806 3.164 206.006 3.444 206.006C3.884 206.006 4.124 205.806 4.124 205.566C4.124 205.566 4.124 200.166 4.124 199.886C4.124 199.566 4.284 199.086 4.564 198.966C4.844 198.846 5.684 198.526 5.684 198.526C5.964 198.406 6.164 198.086 6.164 197.846L6.164 195.006C6.164 194.806 6.044 194.686 5.884 194.686C5.804 194.686 5.764 194.686 5.684 194.726C5.684 194.726 4.844 195.046 4.644 195.126C4.404 195.126 4.124 194.886 4.124 194.406L4.124 190.686C4.124 190.406 4.324 189.646 4.644 189.526C4.964 189.406 5.684 189.126 5.684 189.126ZM2.924 195.646C2.684 196.446 0.804 197.246-0.116 197.246C-0.356 197.246-0.556 197.166-0.596 197.046C-0.676 196.886-0.716 196.006-0.716 195.046C-0.716 193.806-0.676 192.406-0.596 192.086C-0.516 191.406 1.324 190.566 2.324 190.566C2.604 190.566 2.844 190.646 2.924 190.806C3.004 191.006 3.084 192.006 3.084 193.086C3.084 194.166 3.004 195.286 2.924 195.646Z"></path></g><line stroke="#000000" stroke-width="1.2" x1="22.943800000000003" x2="22.943800000000003" y1="192.0061538461538" y2="157.0061538461538"></line><line stroke="#000000" stroke-width="2.2" x1="7.0638" x2="28.9838" y1="193.8461538461538" y2="193.8461538461538"></line></g><g><g><path d="M69.628 199.486C73.628 199.486 78.548 195.766 78.548 191.966C78.548 189.686 76.748 188.206 74.148 188.206C69.228 188.206 65.268 191.846 65.268 195.726C65.268 198.086 67.188 199.486 69.628 199.486Z"></path><g><path d="M44.728 203.206C44.728 203.086 44.688 203.006 44.568 202.966C42.048 200.926 40.568 198.286 40.568 193.846C40.568 189.406 41.928 186.726 44.608 184.766C44.728 184.646 44.728 184.446 44.728 184.446C44.728 184.446 44.728 184.166 44.728 184.006C44.728 183.926 44.688 183.846 44.568 183.846C44.568 183.846 44.568 183.886 44.568 183.886C40.208 186.286 38.208 189.766 38.208 193.846C38.208 197.886 40.128 201.406 44.568 203.846C44.568 203.886 44.608 203.886 44.688 203.886C44.688 203.886 44.728 203.766 44.728 203.726Z"></path><path d="M54.688 189.126C54.968 189.006 55.168 188.686 55.168 188.446L55.168 185.606C55.168 185.406 55.048 185.286 54.888 185.286C54.808 185.286 54.768 185.286 54.688 185.326C54.688 185.326 53.888 185.646 53.688 185.686C53.408 185.686 53.128 185.486 53.128 185.166C53.128 184.766 53.128 180.286 53.128 180.286C53.128 180.046 52.888 179.846 52.568 179.846C52.168 179.846 51.928 180.046 51.928 180.286C51.928 180.286 51.928 185.086 51.928 185.486C51.888 185.886 51.768 186.406 51.408 186.646C50.928 186.926 49.568 187.486 48.888 187.646C48.528 187.646 48.408 187.166 48.408 186.846C48.408 186.446 48.408 182.046 48.408 182.046C48.408 181.806 48.128 181.606 47.848 181.606C47.448 181.606 47.208 181.806 47.208 182.046C47.208 182.046 47.208 184.206 47.208 185.806L47.208 187.446C47.208 188.006 46.968 188.406 46.728 188.526C46.488 188.646 45.688 188.966 45.688 188.966C45.408 189.046 45.208 189.366 45.208 189.606L45.208 192.446C45.208 192.686 45.328 192.806 45.528 192.806C45.568 192.806 45.648 192.766 45.688 192.766C45.688 192.766 46.288 192.526 46.568 192.366C46.608 192.366 46.648 192.326 46.688 192.326C46.968 192.326 47.208 192.726 47.208 193.046L47.208 197.006C47.208 197.446 47.008 197.806 46.768 197.926C46.528 198.006 45.688 198.366 45.688 198.366C45.408 198.446 45.208 198.766 45.208 199.006L45.208 201.846C45.208 202.086 45.328 202.206 45.528 202.206C45.568 202.206 45.648 202.166 45.688 202.166C45.688 202.166 46.248 201.926 46.608 201.806C46.648 201.766 46.688 201.766 46.728 201.766C47.008 201.766 47.208 202.206 47.208 202.406C47.208 202.646 47.208 207.326 47.208 207.326C47.208 207.566 47.448 207.766 47.728 207.766C48.128 207.766 48.408 207.566 48.408 207.326C48.408 207.326 48.408 202.246 48.408 201.766C48.408 201.246 48.608 200.966 48.808 200.886L51.248 199.886C51.288 199.886 51.368 199.846 51.408 199.846C51.728 199.846 51.928 200.326 51.928 200.566C51.928 200.846 51.928 205.566 51.928 205.566C51.928 205.806 52.168 206.006 52.448 206.006C52.888 206.006 53.128 205.806 53.128 205.566C53.128 205.566 53.128 200.166 53.128 199.886C53.128 199.566 53.288 199.086 53.568 198.966C53.848 198.846 54.688 198.526 54.688 198.526C54.968 198.406 55.168 198.086 55.168 197.846L55.168 195.006C55.168 194.806 55.048 194.686 54.888 194.686C54.808 194.686 54.768 194.686 54.688 194.726C54.688 194.726 53.848 195.046 53.648 195.126C53.408 195.126 53.128 194.886 53.128 194.406L53.128 190.686C53.128 190.406 53.328 189.646 53.648 189.526C53.968 189.406 54.688 189.126 54.688 189.126ZM51.928 195.646C51.688 196.446 49.808 197.246 48.888 197.246C48.648 197.246 48.448 197.166 48.408 197.046C48.328 196.886 48.288 196.006 48.288 195.046C48.288 193.806 48.328 192.406 48.408 192.086C48.488 191.406 50.328 190.566 51.328 190.566C51.608 190.566 51.848 190.646 51.928 190.806C52.008 191.006 52.088 192.006 52.088 193.086C52.088 194.166 52.008 195.286 51.928 195.646Z"></path><path d="M55.168 203.726C55.168 203.766 55.208 203.886 55.208 203.886C55.288 203.886 55.328 203.886 55.328 203.846C59.768 201.406 61.688 197.886 61.688 193.846C61.688 189.766 59.688 186.286 55.328 183.886C55.328 183.886 55.328 183.846 55.328 183.846C55.208 183.846 55.168 183.926 55.168 184.006C55.168 184.166 55.168 184.446 55.168 184.446C55.168 184.446 55.168 184.646 55.288 184.766C57.968 186.726 59.328 189.406 59.328 193.846C59.328 198.286 57.848 200.926 55.328 202.966C55.208 203.006 55.168 203.086 55.168 203.206Z"></path></g></g><line stroke="#000000" stroke-width="1.2" x1="77.94818508917783" x2="77.94818508917783" y1="192.0061538461538" y2="157.0061538461538"></line><line stroke="#000000" stroke-width="2.2" x1="62.06818508917782" x2="83.98818508917782" y1="193.8461538461538" y2="193.8461538461538"></line></g><g><g><path d="M117.333 199.486C121.333 199.486 126.253 195.766 126.253 191.966C126.253 189.686 124.453 188.206 121.853 188.206C116.933 188.206 112.973 191.846 112.973 195.726C112.973 198.086 114.893 199.486 117.333 199.486Z"></path><path d="M108.393 189.126C108.673 189.006 108.873 188.686 108.873 188.446L108.873 185.606C108.873 185.406 108.753 185.286 108.593 185.286C108.513 185.286 108.473 185.286 108.393 185.326C108.393 185.326 107.593 185.646 107.393 185.686C107.113 185.686 106.833 185.486 106.833 185.166C106.833 184.766 106.833 180.286 106.833 180.286C106.833 180.046 106.593 179.846 106.273 179.846C105.873 179.846 105.633 180.046 105.633 180.286C105.633 180.286 105.633 185.086 105.633 185.486C105.593 185.886 105.473 186.406 105.113 186.646C104.633 186.926 103.273 187.486 102.593 187.646C102.233 187.646 102.113 187.166 102.113 186.846C102.113 186.446 102.113 182.046 102.113 182.046C102.113 181.806 101.833 181.606 101.553 181.606C101.153 181.606 100.913 181.806 100.913 182.046C100.913 182.046 100.913 184.206 100.913 185.806L100.913 187.446C100.913 188.006 100.673 188.406 100.433 188.526C100.193 188.646 99.393 188.966 99.393 188.966C99.113 189.046 98.913 189.366 98.913 189.606L98.913 192.446C98.913 192.686 99.033 192.806 99.233 192.806C99.273 192.806 99.353 192.766 99.393 192.766C99.393 192.766 99.993 192.526 100.273 192.366C100.313 192.366 100.353 192.326 100.393 192.326C100.673 192.326 100.913 192.726 100.913 193.046L100.913 197.006C100.913 197.446 100.713 197.806 100.473 197.926C100.233 198.006 99.393 198.366 99.393 198.366C99.113 198.446 98.913 198.766 98.913 199.006L98.913 201.846C98.913 202.086 99.033 202.206 99.233 202.206C99.273 202.206 99.353 202.166 99.393 202.166C99.393 202.166 99.953 201.926 100.313 201.806C100.353 201.766 100.393 201.766 100.433 201.766C100.713 201.766 100.913 202.206 100.913 202.406C100.913 202.646 100.913 207.326 100.913 207.326C100.913 207.566 101.153 207.766 101.433 207.766C101.833 207.766 102.113 207.566 102.113 207.326C102.113 207.326 102.113 202.246 102.113 201.766C102.113 201.246 102.313 200.966 102.513 200.886L104.953 199.886C104.993 199.886 105.073 199.846 105.113 199.846C105.433 199.846 105.633 200.326 105.633 200.566C105.633 200.846 105.633 205.566 105.633 205.566C105.633 205.806 105.873 206.006 106.153 206.006C106.593 206.006 106.833 205.806 106.833 205.566C106.833 205.566 106.833 200.166 106.833 199.886C106.833 199.566 106.993 199.086 107.273 198.966C107.553 198.846 108.393 198.526 108.393 198.526C108.673 198.406 108.873 198.086 108.873 197.846L108.873 195.006C108.873 194.806 108.753 194.686 108.593 194.686C108.513 194.686 108.473 194.686 108.393 194.726C108.393 194.726 107.553 195.046 107.353 195.126C107.113 195.126 106.833 194.886 106.833 194.406L106.833 190.686C106.833 190.406 107.033 189.646 107.353 189.526C107.673 189.406 108.393 189.126 108.393 189.126ZM105.633 195.646C105.393 196.446 103.513 197.246 102.593 197.246C102.353 197.246 102.153 197.166 102.113 197.046C102.033 196.886 101.993 196.006 101.993 195.046C101.993 193.806 102.033 192.406 102.113 192.086C102.193 191.406 104.033 190.566 105.033 190.566C105.313 190.566 105.553 190.646 105.633 190.806C105.713 191.006 105.793 192.006 105.793 193.086C105.793 194.166 105.713 195.286 105.633 195.646Z"></path></g><line stroke="#000000" stroke-width="1.2" x1="125.65257017835566" x2="125.65257017835566" y1="192.0061538461538" y2="157.0061538461538"></line><line stroke="#000000" stroke-width="2.2" x1="109.77257017835565" x2="131.69257017835565" y1="193.8461538461538" y2="193.8461538461538"></line></g><g><g><path d="M172.337 199.486C176.337 199.486 181.257 195.766 181.257 191.966C181.257 189.686 179.457 188.206 176.857 188.206C171.937 188.206 167.977 191.846 167.977 195.726C167.977 198.086 169.897 199.486 172.337 199.486Z"></path><g><path d="M147.437 203.206C147.437 203.086 147.397 203.006 147.277 202.966C144.757 200.926 143.277 198.286 143.277 193.846C143.277 189.406 144.637 186.726 147.317 184.766C147.437 184.646 147.437 184.446 147.437 184.446C147.437 184.446 147.437 184.166 147.437 184.006C147.437 183.926 147.397 183.846 147.277 183.846C147.277 183.846 147.277 183.886 147.277 183.886C142.917 186.286 140.917 189.766 140.917 193.846C140.917 197.886 142.837 201.406 147.277 203.846C147.277 203.886 147.317 203.886 147.397 203.886C147.397 203.886 147.437 203.766 147.437 203.726Z"></path><path d="M157.397 189.126C157.677 189.006 157.877 188.686 157.877 188.446L157.877 185.606C157.877 185.406 157.757 185.286 157.597 185.286C157.517 185.286 157.477 185.286 157.397 185.326C157.397 185.326 156.597 185.646 156.397 185.686C156.117 185.686 155.837 185.486 155.837 185.166C155.837 184.766 155.837 180.286 155.837 180.286C155.837 180.046 155.597 179.846 155.277 179.846C154.877 179.846 154.637 180.046 154.637 180.286C154.637 180.286 154.637 185.086 154.637 185.486C154.597 185.886 154.477 186.406 154.117 186.646C153.637 186.926 152.277 187.486 151.597 187.646C151.237 187.646 151.117 187.166 151.117 186.846C151.117 186.446 151.117 182.046 151.117 182.046C151.117 181.806 150.837 181.606 150.557 181.606C150.157 181.606 149.917 181.806 149.917 182.046C149.917 182.046 149.917 184.206 149.917 185.806L149.917 187.446C149.917 188.006 149.677 188.406 149.437 188.526C149.197 188.646 148.397 188.966 148.397 188.966C148.117 189.046 147.917 189.366 147.917 189.606L147.917 192.446C147.917 192.686 148.037 192.806 148.237 192.806C148.277 192.806 148.357 192.766 148.397 192.766C148.397 192.766 148.997 192.526 149.277 192.366C149.317 192.366 149.357 192.326 149.397 192.326C149.677 192.326 149.917 192.726 149.917 193.046L149.917 197.006C149.917 197.446 149.717 197.806 149.477 197.926C149.237 198.006 148.397 198.366 148.397 198.366C148.117 198.446 147.917 198.766 147.917 199.006L147.917 201.846C147.917 202.086 148.037 202.206 148.237 202.206C148.277 202.206 148.357 202.166 148.397 202.166C148.397 202.166 148.957 201.926 149.317 201.806C149.357 201.766 149.397 201.766 149.437 201.766C149.717 201.766 149.917 202.206 149.917 202.406C149.917 202.646 149.917 207.326 149.917 207.326C149.917 207.566 150.157 207.766 150.437 207.766C150.837 207.766 151.117 207.566 151.117 207.326C151.117 207.326 151.117 202.246 151.117 201.766C151.117 201.246 151.317 200.966 151.517 200.886L153.957 199.886C153.997 199.886 154.077 199.846 154.117 199.846C154.437 199.846 154.637 200.326 154.637 200.566C154.637 200.846 154.637 205.566 154.637 205.566C154.637 205.806 154.877 206.006 155.157 206.006C155.597 206.006 155.837 205.806 155.837 205.566C155.837 205.566 155.837 200.166 155.837 199.886C155.837 199.566 155.997 199.086 156.277 198.966C156.557 198.846 157.397 198.526 157.397 198.526C157.677 198.406 157.877 198.086 157.877 197.846L157.877 195.006C157.877 194.806 157.757 194.686 157.597 194.686C157.517 194.686 157.477 194.686 157.397 194.726C157.397 194.726 156.557 195.046 156.357 195.126C156.117 195.126 155.837 194.886 155.837 194.406L155.837 190.686C155.837 190.406 156.037 189.646 156.357 189.526C156.677 189.406 157.397 189.126 157.397 189.126ZM154.637 195.646C154.397 196.446 152.517 197.246 151.597 197.246C151.357 197.246 151.157 197.166 151.117 197.046C151.037 196.886 150.997 196.006 150.997 195.046C150.997 193.806 151.037 192.406 151.117 192.086C151.197 191.406 153.037 190.566 154.037 190.566C154.317 190.566 154.557 190.646 154.637 190.806C154.717 191.006 154.797 192.006 154.797 193.086C154.797 194.166 154.717 195.286 154.637 195.646Z"></path><path d="M157.877 203.726C157.877 203.766 157.917 203.886 157.917 203.886C157.997 203.886 158.037 203.886 158.037 203.846C162.477 201.406 164.397 197.886 164.397 193.846C164.397 189.766 162.397 186.286 158.037 183.886C158.037 183.886 158.037 183.846 158.037 183.846C157.917 183.846 157.877 183.926 157.877 184.006C157.877 184.166 157.877 184.446 157.877 184.446C157.877 184.446 157.877 184.646 157.997 184.766C160.677 186.726 162.037 189.406 162.037 193.846C162.037 198.286 160.557 200.926 158.037 202.966C157.917 203.006 157.877 203.086 157.877 203.206Z"></path></g></g><line stroke="#000000" stroke-width="1.2" x1="180.65695526753348" x2="180.65695526753348" y1="192.0061538461538" y2="157.0061538461538"></line><line stroke="#000000" stroke-width="2.2" x1="164.77695526753348" x2="186.69695526753347" y1="193.8461538461538" y2="193.8461538461538"></line></g></g><g transform="translate(618.1796345595764)"><g><g><line stroke="#6A6A6A" stroke-width="1.3" x1="-16.599999999999966" x2="218.3239403567112" y1="183.8461538461538" y2="183.8461538461538"></line><line stroke="#6A6A6A" stroke-width="1.3" x1="-16.599999999999966" x2="218.3239403567112" y1="173.8461538461538" y2="173.8461538461538"></line><line stroke="#6A6A6A" stroke-width="1.3" x1="-16.599999999999966" x2="218.3239403567112" y1="163.8461538461538" y2="163.8461538461538"></line><line stroke="#6A6A6A" stroke-width="1.3" x1="-16.599999999999966" x2="218.3239403567112" y1="153.8461538461538" y2="153.8461538461538"></line><line stroke="#6A6A6A" stroke-width="1.3" x1="-16.599999999999966" x2="218.3239403567112" y1="143.8461538461538" y2="143.8461538461538"></line></g></g><g><line stroke="black" stroke-width="1.6" x1="219.12394035671127" x2="219.12394035671127" y1="143.8461538461538" y2="183.8461538461538"></line></g><g><g><path d="M17.850 194.486C21.850 194.486 26.770 190.766 26.770 186.966C26.770 184.686 24.970 183.206 22.370 183.206C17.450 183.206 13.490 186.846 13.490 190.726C13.490 193.086 15.410 194.486 17.850 194.486Z"></path><path d="M7.570 182.806C7.370 182.806 7.210 182.806 7.010 182.846C6.530 182.966 6.090 183.206 5.690 183.446C5.410 183.606 5.090 183.966 4.730 183.966C4.650 183.966 4.570 183.966 4.530 183.926C4.250 183.846 4.130 183.566 4.130 183.246C4.130 182.406 4.370 172.766 4.370 172.006C4.370 171.566 4.010 171.366 3.610 171.366C3.090 171.366 2.450 171.726 2.370 172.406C2.370 172.406 2.410 177.886 2.490 183.446C1.890 183.046 1.210 182.806 0.450 182.806L0.210 182.806C0.010 182.806-0.190 182.806-0.350 182.846C-0.830 182.966-1.270 183.206-1.670 183.446C-1.990 183.606-2.270 183.966-2.630 183.966C-2.710 183.966-2.750 183.966-2.830 183.926C-3.110 183.846-3.270 183.566-3.270 183.246C-3.270 182.406-2.990 172.766-2.990 172.006C-2.990 171.566-3.350 171.366-3.750 171.366C-4.310 171.366-4.950 171.726-4.990 172.406C-4.990 172.406-4.790 195.286-4.510 195.646C-4.390 195.806-4.270 195.846-4.150 195.846C-4.030 195.846-3.910 195.766-3.910 195.766C-2.670 195.126-1.670 194.006-0.750 193.326C0.730 192.286 1.850 191.206 2.610 190.246C2.690 193.246 2.770 195.526 2.890 195.646C3.010 195.806 3.130 195.846 3.210 195.846C3.330 195.846 3.450 195.766 3.450 195.766C4.690 195.126 5.650 194.006 6.570 193.366C10.170 190.846 11.450 188.406 11.450 186.566C11.450 184.326 9.690 182.846 7.810 182.806ZM0.650 189.566C0.130 190.526-1.030 191.766-2.310 192.566C-2.430 192.646-2.590 192.686-2.670 192.686C-2.990 192.686-3.110 192.286-3.110 192.046C-3.110 192.046-3.230 189.686-3.230 188.126C-3.230 187.486-3.190 187.006-3.150 186.846C-2.990 186.326-1.910 185.446-1.350 185.126C-0.990 184.926-0.630 184.846-0.310 184.846C0.090 184.846 0.410 184.966 0.650 185.246C1.050 185.726 1.290 186.406 1.290 187.206C1.290 187.926 1.090 188.766 0.650 189.566ZM7.970 189.566C7.490 190.526 6.330 191.766 5.050 192.566C4.890 192.646 4.770 192.686 4.690 192.686C4.370 192.686 4.250 192.286 4.250 192.046C4.250 192.046 4.130 189.286 4.130 187.766C4.130 187.326 4.130 186.966 4.170 186.846C4.330 186.326 5.410 185.446 6.010 185.126C6.370 184.926 6.730 184.846 7.050 184.846C7.450 184.846 7.770 184.966 8.010 185.246C8.370 185.726 8.610 186.406 8.610 187.206C8.610 187.926 8.410 188.726 7.970 189.566Z"></path></g><line stroke="#000000" stroke-width="1.2" x1="26.1704" x2="26.1704" y1="187.0061538461538" y2="149.0061538461538"></line></g><g><g><path d="M76.081 194.486C80.081 194.486 85.001 190.766 85.001 186.966C85.001 184.686 83.201 183.206 80.601 183.206C75.681 183.206 71.721 186.846 71.721 190.726C71.721 193.086 73.641 194.486 76.081 194.486Z"></path><g><path d="M46.761 198.206C46.761 198.086 46.721 198.006 46.601 197.966C44.081 195.926 42.601 193.286 42.601 188.846C42.601 184.406 43.961 181.726 46.641 179.766C46.761 179.646 46.761 179.446 46.761 179.446C46.761 179.446 46.761 179.166 46.761 179.006C46.761 178.926 46.721 178.846 46.601 178.846C46.601 178.846 46.601 178.886 46.601 178.886C42.241 181.286 40.241 184.766 40.241 188.846C40.241 192.886 42.161 196.406 46.601 198.846C46.601 198.886 46.641 198.886 46.721 198.886C46.721 198.886 46.761 198.766 46.761 198.726Z"></path><path d="M59.801 182.806C59.601 182.806 59.441 182.806 59.241 182.846C58.761 182.966 58.321 183.206 57.921 183.446C57.641 183.606 57.321 183.966 56.961 183.966C56.881 183.966 56.801 183.966 56.761 183.926C56.481 183.846 56.361 183.566 56.361 183.246C56.361 182.406 56.601 172.766 56.601 172.006C56.601 171.566 56.241 171.366 55.841 171.366C55.321 171.366 54.681 171.726 54.601 172.406C54.601 172.406 54.641 177.886 54.721 183.446C54.121 183.046 53.441 182.806 52.681 182.806L52.441 182.806C52.241 182.806 52.041 182.806 51.881 182.846C51.401 182.966 50.961 183.206 50.561 183.446C50.241 183.606 49.961 183.966 49.601 183.966C49.521 183.966 49.481 183.966 49.401 183.926C49.121 183.846 48.961 183.566 48.961 183.246C48.961 182.406 49.241 172.766 49.241 172.006C49.241 171.566 48.881 171.366 48.481 171.366C47.921 171.366 47.281 171.726 47.241 172.406C47.241 172.406 47.441 195.286 47.721 195.646C47.841 195.806 47.961 195.846 48.081 195.846C48.201 195.846 48.321 195.766 48.321 195.766C49.561 195.126 50.561 194.006 51.481 193.326C52.961 192.286 54.081 191.206 54.841 190.246C54.921 193.246 55.001 195.526 55.121 195.646C55.241 195.806 55.361 195.846 55.441 195.846C55.561 195.846 55.681 195.766 55.681 195.766C56.921 195.126 57.881 194.006 58.801 193.366C62.401 190.846 63.681 188.406 63.681 186.566C63.681 184.326 61.921 182.846 60.041 182.806ZM52.881 189.566C52.361 190.526 51.201 191.766 49.921 192.566C49.801 192.646 49.641 192.686 49.561 192.686C49.241 192.686 49.121 192.286 49.121 192.046C49.121 192.046 49.001 189.686 49.001 188.126C49.001 187.486 49.041 187.006 49.081 186.846C49.241 186.326 50.321 185.446 50.881 185.126C51.241 184.926 51.601 184.846 51.921 184.846C52.321 184.846 52.641 184.966 52.881 185.246C53.281 185.726 53.521 186.406 53.521 187.206C53.521 187.926 53.321 188.766 52.881 189.566ZM60.201 189.566C59.721 190.526 58.561 191.766 57.281 192.566C57.121 192.646 57.001 192.686 56.921 192.686C56.601 192.686 56.481 192.286 56.481 192.046C56.481 192.046 56.361 189.286 56.361 187.766C56.361 187.326 56.361 186.966 56.401 186.846C56.561 186.326 57.641 185.446 58.241 185.126C58.601 184.926 58.961 184.846 59.281 184.846C59.681 184.846 60.001 184.966 60.241 185.246C60.601 185.726 60.841 186.406 60.841 187.206C60.841 187.926 60.641 188.726 60.201 189.566Z"></path><path d="M63.681 198.726C63.681 198.766 63.721 198.886 63.721 198.886C63.801 198.886 63.841 198.886 63.841 198.846C68.281 196.406 70.201 192.886 70.201 188.846C70.201 184.766 68.201 181.286 63.841 178.886C63.841 178.886 63.841 178.846 63.841 178.846C63.721 178.846 63.681 178.926 63.681 179.006C63.681 179.166 63.681 179.446 63.681 179.446C63.681 179.446 63.681 179.646 63.801 179.766C66.481 181.726 67.841 184.406 67.841 188.846C67.841 193.286 66.361 195.926 63.841 197.966C63.721 198.006 63.681 198.086 63.681 198.206Z"></path></g></g><line stroke="#000000" stroke-width="1.2" x1="84.40138508917782" x2="84.40138508917782" y1="187.0061538461538" y2="149.0061538461538"></line></g><g><g><path d="M127.012 194.486C131.012 194.486 135.932 190.766 135.932 186.966C135.932 184.686 134.132 183.206 131.532 183.206C126.612 183.206 122.652 186.846 122.652 190.726C122.652 193.086 124.572 194.486 127.012 194.486Z"></path><path d="M116.732 182.806C116.532 182.806 116.372 182.806 116.172 182.846C115.692 182.966 115.252 183.206 114.852 183.446C114.572 183.606 114.252 183.966 113.892 183.966C113.812 183.966 113.732 183.966 113.692 183.926C113.412 183.846 113.292 183.566 113.292 183.246C113.292 182.406 113.532 172.766 113.532 172.006C113.532 171.566 113.172 171.366 112.772 171.366C112.252 171.366 111.612 171.726 111.532 172.406C111.532 172.406 111.572 177.886 111.652 183.446C111.052 183.046 110.372 182.806 109.612 182.806L109.372 182.806C109.172 182.806 108.972 182.806 108.812 182.846C108.332 182.966 107.892 183.206 107.492 183.446C107.172 183.606 106.892 183.966 106.532 183.966C106.452 183.966 106.412 183.966 106.332 183.926C106.052 183.846 105.892 183.566 105.892 183.246C105.892 182.406 106.172 172.766 106.172 172.006C106.172 171.566 105.812 171.366 105.412 171.366C104.852 171.366 104.212 171.726 104.172 172.406C104.172 172.406 104.372 195.286 104.652 195.646C104.772 195.806 104.892 195.846 105.012 195.846C105.132 195.846 105.252 195.766 105.252 195.766C106.492 195.126 107.492 194.006 108.412 193.326C109.892 192.286 111.012 191.206 111.772 190.246C111.852 193.246 111.932 195.526 112.052 195.646C112.172 195.806 112.292 195.846 112.372 195.846C112.492 195.846 112.612 195.766 112.612 195.766C113.852 195.126 114.812 194.006 115.732 193.366C119.332 190.846 120.612 188.406 120.612 186.566C120.612 184.326 118.852 182.846 116.972 182.806ZM109.812 189.566C109.292 190.526 108.132 191.766 106.852 192.566C106.732 192.646 106.572 192.686 106.492 192.686C106.172 192.686 106.052 192.286 106.052 192.046C106.052 192.046 105.932 189.686 105.932 188.126C105.932 187.486 105.972 187.006 106.012 186.846C106.172 186.326 107.252 185.446 107.812 185.126C108.172 184.926 108.532 184.846 108.852 184.846C109.252 184.846 109.572 184.966 109.812 185.246C110.212 185.726 110.452 186.406 110.452 187.206C110.452 187.926 110.252 188.766 109.812 189.566ZM117.132 189.566C116.652 190.526 115.492 191.766 114.212 192.566C114.052 192.646 113.932 192.686 113.852 192.686C113.532 192.686 113.412 192.286 113.412 192.046C113.412 192.046 113.292 189.286 113.292 187.766C113.292 187.326 113.292 186.966 113.332 186.846C113.492 186.326 114.572 185.446 115.172 185.126C115.532 184.926 115.892 184.846 116.212 184.846C116.612 184.846 116.932 184.966 117.172 185.246C117.532 185.726 117.772 186.406 117.772 187.206C117.772 187.926 117.572 188.726 117.132 189.566Z"></path></g><line stroke="#000000" stroke-width="1.2" x1="135.33237017835563" x2="135.33237017835563" y1="187.0061538461538" y2="149.0061538461538"></line></g><g><g><path d="M185.243 194.486C189.243 194.486 194.163 190.766 194.163 186.966C194.163 184.686 192.363 183.206 189.763 183.206C184.843 183.206 180.883 186.846 180.883 190.726C180.883 193.086 182.803 194.486 185.243 194.486Z"></path><g><path d="M155.923 198.206C155.923 198.086 155.883 198.006 155.763 197.966C153.243 195.926 151.763 193.286 151.763 188.846C151.763 184.406 153.123 181.726 155.803 179.766C155.923 179.646 155.923 179.446 155.923 179.446C155.923 179.446 155.923 179.166 155.923 179.006C155.923 178.926 155.883 178.846 155.763 178.846C155.763 178.846 155.763 178.886 155.763 178.886C151.403 181.286 149.403 184.766 149.403 188.846C149.403 192.886 151.323 196.406 155.763 198.846C155.763 198.886 155.803 198.886 155.883 198.886C155.883 198.886 155.923 198.766 155.923 198.726Z"></path><path d="M168.963 182.806C168.763 182.806 168.603 182.806 168.403 182.846C167.923 182.966 167.483 183.206 167.083 183.446C166.803 183.606 166.483 183.966 166.123 183.966C166.043 183.966 165.963 183.966 165.923 183.926C165.643 183.846 165.523 183.566 165.523 183.246C165.523 182.406 165.763 172.766 165.763 172.006C165.763 171.566 165.403 171.366 165.003 171.366C164.483 171.366 163.843 171.726 163.763 172.406C163.763 172.406 163.803 177.886 163.883 183.446C163.283 183.046 162.603 182.806 161.843 182.806L161.603 182.806C161.403 182.806 161.203 182.806 161.043 182.846C160.563 182.966 160.123 183.206 159.723 183.446C159.403 183.606 159.123 183.966 158.763 183.966C158.683 183.966 158.643 183.966 158.563 183.926C158.283 183.846 158.123 183.566 158.123 183.246C158.123 182.406 158.403 172.766 158.403 172.006C158.403 171.566 158.043 171.366 157.643 171.366C157.083 171.366 156.443 171.726 156.403 172.406C156.403 172.406 156.603 195.286 156.883 195.646C157.003 195.806 157.123 195.846 157.243 195.846C157.363 195.846 157.483 195.766 157.483 195.766C158.723 195.126 159.723 194.006 160.643 193.326C162.123 192.286 163.243 191.206 164.003 190.246C164.083 193.246 164.163 195.526 164.283 195.646C164.403 195.806 164.523 195.846 164.603 195.846C164.723 195.846 164.843 195.766 164.843 195.766C166.083 195.126 167.043 194.006 167.963 193.366C171.563 190.846 172.843 188.406 172.843 186.566C172.843 184.326 171.083 182.846 169.203 182.806ZM162.043 189.566C161.523 190.526 160.363 191.766 159.083 192.566C158.963 192.646 158.803 192.686 158.723 192.686C158.403 192.686 158.283 192.286 158.283 192.046C158.283 192.046 158.163 189.686 158.163 188.126C158.163 187.486 158.203 187.006 158.243 186.846C158.403 186.326 159.483 185.446 160.043 185.126C160.403 184.926 160.763 184.846 161.083 184.846C161.483 184.846 161.803 184.966 162.043 185.246C162.443 185.726 162.683 186.406 162.683 187.206C162.683 187.926 162.483 188.766 162.043 189.566ZM169.363 189.566C168.883 190.526 167.723 191.766 166.443 192.566C166.283 192.646 166.163 192.686 166.083 192.686C165.763 192.686 165.643 192.286 165.643 192.046C165.643 192.046 165.523 189.286 165.523 187.766C165.523 187.326 165.523 186.966 165.563 186.846C165.723 186.326 166.803 185.446 167.403 185.126C167.763 184.926 168.123 184.846 168.443 184.846C168.843 184.846 169.163 184.966 169.403 185.246C169.763 185.726 170.003 186.406 170.003 187.206C170.003 187.926 169.803 188.726 169.363 189.566Z"></path><path d="M172.843 198.726C172.843 198.766 172.883 198.886 172.883 198.886C172.963 198.886 173.003 198.886 173.003 198.846C177.443 196.406 179.363 192.886 179.363 188.846C179.363 184.766 177.363 181.286 173.003 178.886C173.003 178.886 173.003 178.846 173.003 178.846C172.883 178.846 172.843 178.926 172.843 179.006C172.843 179.166 172.843 179.446 172.843 179.446C172.843 179.446 172.843 179.646 172.963 179.766C175.643 181.726 177.003 184.406 177.003 188.846C177.003 193.286 175.523 195.926 173.003 197.966C172.883 198.006 172.843 198.086 172.843 198.206Z"></path></g></g><line stroke="#000000" stroke-width="1.2" x1="193.5633552675335" x2="193.5633552675335" y1="187.0061538461538" y2="149.0061538461538"></line></g></g><g transform="translate(853.1035749162877)"><g><g><line stroke="#6A6A6A" stroke-width="1.3" x1="-16.600000000000136" x2="215.78394035671135" y1="183.8461538461538" y2="183.8461538461538"></line><line stroke="#6A6A6A" stroke-width="1.3" x1="-16.600000000000136" x2="215.78394035671135" y1="173.8461538461538" y2="173.8461538461538"></line><line stroke="#6A6A6A" stroke-width="1.3" x1="-16.600000000000136" x2="215.78394035671135" y1="163.8461538461538" y2="163.8461538461538"></line><line stroke="#6A6A6A" stroke-width="1.3" x1="-16.600000000000136" x2="215.78394035671135" y1="153.8461538461538" y2="153.8461538461538"></line><line stroke="#6A6A6A" stroke-width="1.3" x1="-16.600000000000136" x2="215.78394035671135" y1="143.8461538461538" y2="143.8461538461538"></line></g></g><g><line stroke="black" stroke-width="1.6" x1="205.9839403567113" x2="205.9839403567113" y1="143.8461538461538" y2="183.8461538461538"></line><line stroke="black" stroke-width="5" x1="213.28394035671127" x2="213.28394035671127" y1="143.8461538461538" y2="183.8461538461538"></line></g><g><g><path d="M14.565 199.486C18.565 199.486 23.485 195.766 23.485 191.966C23.485 189.686 21.685 188.206 19.085 188.206C14.165 188.206 10.205 191.846 10.205 195.726C10.205 198.086 12.125 199.486 14.565 199.486Z"></path><path d="M3.825 195.126C3.385 194.886 1.945 194.326 1.945 193.806C1.945 193.246 3.265 192.646 3.825 192.446C3.985 192.446 4.145 192.486 4.305 192.486C4.945 192.486 5.545 192.326 5.825 192.086C6.025 191.886 6.105 191.286 6.105 190.646C6.105 189.966 5.985 189.246 5.825 189.046C5.665 188.846 5.025 188.766 4.345 188.766C3.625 188.766 2.905 188.846 2.705 189.046C2.545 189.166 2.505 189.886 2.505 190.606C2.305 191.046 1.745 192.486 1.185 192.486C0.625 192.486-0.015 191.166-0.175 190.606C-0.175 189.926-0.295 189.206-0.495 189.046C-0.655 188.846-1.295 188.766-1.935 188.766C-2.615 188.766-3.335 188.846-3.575 189.046C-3.695 189.126-3.775 189.806-3.775 190.526C-3.775 191.246-3.695 191.966-3.575 192.086C-3.295 192.326-2.575 192.486-1.895 192.486C-1.735 192.486-1.615 192.446-1.495 192.446C-1.055 192.686 0.385 193.246 0.385 193.766C0.385 194.286-0.895 194.926-1.455 195.126L-1.855 195.126C-2.575 195.126-3.335 195.206-3.575 195.406C-3.695 195.526-3.775 196.206-3.775 196.926C-3.775 197.646-3.695 198.366-3.575 198.446C-3.295 198.686-2.655 198.846-1.975 198.846C-1.375 198.846-0.735 198.726-0.495 198.446C-0.255 198.246-0.175 197.566-0.175 196.926C-0.175 196.886-0.135 196.806-0.095 196.766C0.145 196.206 0.625 195.086 1.145 195.086C1.665 195.086 2.345 196.366 2.505 196.926C2.505 197.646 2.545 198.326 2.705 198.446C2.985 198.686 3.625 198.846 4.305 198.846C4.945 198.846 5.545 198.726 5.825 198.446C6.025 198.246 6.105 197.646 6.105 197.006C6.105 196.326 5.985 195.606 5.825 195.406C5.625 195.206 4.905 195.126 4.225 195.126Z"></path></g><line stroke="#000000" stroke-width="1.2" x1="22.8854" x2="22.8854" y1="192.0061538461538" y2="157.0061538461538"></line><line stroke="#000000" stroke-width="2.2" x1="7.005399999999999" x2="28.9254" y1="193.8461538461538" y2="193.8461538461538"></line></g><g><g><path d="M69.511 199.486C73.511 199.486 78.431 195.766 78.431 191.966C78.431 189.686 76.631 188.206 74.031 188.206C69.111 188.206 65.151 191.846 65.151 195.726C65.151 198.086 67.071 199.486 69.511 199.486Z"></path><g><path d="M44.691 203.206C44.691 203.086 44.651 203.006 44.531 202.966C42.011 200.926 40.531 198.286 40.531 193.846C40.531 189.406 41.891 186.726 44.571 184.766C44.691 184.646 44.691 184.446 44.691 184.446C44.691 184.446 44.691 184.166 44.691 184.006C44.691 183.926 44.651 183.846 44.531 183.846C44.531 183.846 44.531 183.886 44.531 183.886C40.171 186.286 38.171 189.766 38.171 193.846C38.171 197.886 40.091 201.406 44.531 203.846C44.531 203.886 44.571 203.886 44.651 203.886C44.651 203.886 44.691 203.766 44.691 203.726Z"></path><path d="M52.771 195.126C52.331 194.886 50.891 194.326 50.891 193.806C50.891 193.246 52.211 192.646 52.771 192.446C52.931 192.446 53.091 192.486 53.251 192.486C53.891 192.486 54.491 192.326 54.771 192.086C54.971 191.886 55.051 191.286 55.051 190.646C55.051 189.966 54.931 189.246 54.771 189.046C54.611 188.846 53.971 188.766 53.291 188.766C52.571 188.766 51.851 188.846 51.651 189.046C51.491 189.166 51.451 189.886 51.451 190.606C51.251 191.046 50.691 192.486 50.131 192.486C49.571 192.486 48.931 191.166 48.771 190.606C48.771 189.926 48.651 189.206 48.451 189.046C48.291 188.846 47.651 188.766 47.011 188.766C46.331 188.766 45.611 188.846 45.371 189.046C45.251 189.126 45.171 189.806 45.171 190.526C45.171 191.246 45.251 191.966 45.371 192.086C45.651 192.326 46.371 192.486 47.051 192.486C47.211 192.486 47.331 192.446 47.451 192.446C47.891 192.686 49.331 193.246 49.331 193.766C49.331 194.286 48.051 194.926 47.491 195.126L47.091 195.126C46.371 195.126 45.611 195.206 45.371 195.406C45.251 195.526 45.171 196.206 45.171 196.926C45.171 197.646 45.251 198.366 45.371 198.446C45.651 198.686 46.291 198.846 46.971 198.846C47.571 198.846 48.211 198.726 48.451 198.446C48.691 198.246 48.771 197.566 48.771 196.926C48.771 196.886 48.811 196.806 48.851 196.766C49.091 196.206 49.571 195.086 50.091 195.086C50.611 195.086 51.291 196.366 51.451 196.926C51.451 197.646 51.491 198.326 51.651 198.446C51.931 198.686 52.571 198.846 53.251 198.846C53.891 198.846 54.491 198.726 54.771 198.446C54.971 198.246 55.051 197.646 55.051 197.006C55.051 196.326 54.931 195.606 54.771 195.406C54.571 195.206 53.851 195.126 53.171 195.126Z"></path><path d="M55.051 203.726C55.051 203.766 55.091 203.886 55.091 203.886C55.171 203.886 55.211 203.886 55.211 203.846C59.651 201.406 61.571 197.886 61.571 193.846C61.571 189.766 59.571 186.286 55.211 183.886C55.211 183.886 55.211 183.846 55.211 183.846C55.091 183.846 55.051 183.926 55.051 184.006C55.051 184.166 55.051 184.446 55.051 184.446C55.051 184.446 55.051 184.646 55.171 184.766C57.851 186.726 59.211 189.406 59.211 193.846C59.211 198.286 57.731 200.926 55.211 202.966C55.091 203.006 55.051 203.086 55.051 203.206Z"></path></g></g><line stroke="#000000" stroke-width="1.2" x1="77.83138508917783" x2="77.83138508917783" y1="192.0061538461538" y2="157.0061538461538"></line><line stroke="#000000" stroke-width="2.2" x1="61.95138508917782" x2="83.87138508917782" y1="193.8461538461538" y2="193.8461538461538"></line></g><g><g><path d="M117.157 199.486C121.157 199.486 126.077 195.766 126.077 191.966C126.077 189.686 124.277 188.206 121.677 188.206C116.757 188.206 112.797 191.846 112.797 195.726C112.797 198.086 114.717 199.486 117.157 199.486Z"></path><path d="M106.417 195.126C105.977 194.886 104.537 194.326 104.537 193.806C104.537 193.246 105.857 192.646 106.417 192.446C106.577 192.446 106.737 192.486 106.897 192.486C107.537 192.486 108.137 192.326 108.417 192.086C108.617 191.886 108.697 191.286 108.697 190.646C108.697 189.966 108.577 189.246 108.417 189.046C108.257 188.846 107.617 188.766 106.937 188.766C106.217 188.766 105.497 188.846 105.297 189.046C105.137 189.166 105.097 189.886 105.097 190.606C104.897 191.046 104.337 192.486 103.777 192.486C103.217 192.486 102.577 191.166 102.417 190.606C102.417 189.926 102.297 189.206 102.097 189.046C101.937 188.846 101.297 188.766 100.657 188.766C99.977 188.766 99.257 188.846 99.017 189.046C98.897 189.126 98.817 189.806 98.817 190.526C98.817 191.246 98.897 191.966 99.017 192.086C99.297 192.326 100.017 192.486 100.697 192.486C100.857 192.486 100.977 192.446 101.097 192.446C101.537 192.686 102.977 193.246 102.977 193.766C102.977 194.286 101.697 194.926 101.137 195.126L100.737 195.126C100.017 195.126 99.257 195.206 99.017 195.406C98.897 195.526 98.817 196.206 98.817 196.926C98.817 197.646 98.897 198.366 99.017 198.446C99.297 198.686 99.937 198.846 100.617 198.846C101.217 198.846 101.857 198.726 102.097 198.446C102.337 198.246 102.417 197.566 102.417 196.926C102.417 196.886 102.457 196.806 102.497 196.766C102.737 196.206 103.217 195.086 103.737 195.086C104.257 195.086 104.937 196.366 105.097 196.926C105.097 197.646 105.137 198.326 105.297 198.446C105.577 198.686 106.217 198.846 106.897 198.846C107.537 198.846 108.137 198.726 108.417 198.446C108.617 198.246 108.697 197.646 108.697 197.006C108.697 196.326 108.577 195.606 108.417 195.406C108.217 195.206 107.497 195.126 106.817 195.126Z"></path></g><line stroke="#000000" stroke-width="1.2" x1="125.47737017835564" x2="125.47737017835564" y1="192.0061538461538" y2="157.0061538461538"></line><line stroke="#000000" stroke-width="2.2" x1="109.59737017835563" x2="131.51737017835563" y1="193.8461538461538" y2="193.8461538461538"></line></g><g><g><path d="M172.103 199.486C176.103 199.486 181.023 195.766 181.023 191.966C181.023 189.686 179.223 188.206 176.623 188.206C171.703 188.206 167.743 191.846 167.743 195.726C167.743 198.086 169.663 199.486 172.103 199.486Z"></path><g><path d="M147.283 203.206C147.283 203.086 147.243 203.006 147.123 202.966C144.603 200.926 143.123 198.286 143.123 193.846C143.123 189.406 144.483 186.726 147.163 184.766C147.283 184.646 147.283 184.446 147.283 184.446C147.283 184.446 147.283 184.166 147.283 184.006C147.283 183.926 147.243 183.846 147.123 183.846C147.123 183.846 147.123 183.886 147.123 183.886C142.763 186.286 140.763 189.766 140.763 193.846C140.763 197.886 142.683 201.406 147.123 203.846C147.123 203.886 147.163 203.886 147.243 203.886C147.243 203.886 147.283 203.766 147.283 203.726Z"></path><path d="M155.363 195.126C154.923 194.886 153.483 194.326 153.483 193.806C153.483 193.246 154.803 192.646 155.363 192.446C155.523 192.446 155.683 192.486 155.843 192.486C156.483 192.486 157.083 192.326 157.363 192.086C157.563 191.886 157.643 191.286 157.643 190.646C157.643 189.966 157.523 189.246 157.363 189.046C157.203 188.846 156.563 188.766 155.883 188.766C155.163 188.766 154.443 188.846 154.243 189.046C154.083 189.166 154.043 189.886 154.043 190.606C153.843 191.046 153.283 192.486 152.723 192.486C152.163 192.486 151.523 191.166 151.363 190.606C151.363 189.926 151.243 189.206 151.043 189.046C150.883 188.846 150.243 188.766 149.603 188.766C148.923 188.766 148.203 188.846 147.963 189.046C147.843 189.126 147.763 189.806 147.763 190.526C147.763 191.246 147.843 191.966 147.963 192.086C148.243 192.326 148.963 192.486 149.643 192.486C149.803 192.486 149.923 192.446 150.043 192.446C150.483 192.686 151.923 193.246 151.923 193.766C151.923 194.286 150.643 194.926 150.083 195.126L149.683 195.126C148.963 195.126 148.203 195.206 147.963 195.406C147.843 195.526 147.763 196.206 147.763 196.926C147.763 197.646 147.843 198.366 147.963 198.446C148.243 198.686 148.883 198.846 149.563 198.846C150.163 198.846 150.803 198.726 151.043 198.446C151.283 198.246 151.363 197.566 151.363 196.926C151.363 196.886 151.403 196.806 151.443 196.766C151.683 196.206 152.163 195.086 152.683 195.086C153.203 195.086 153.883 196.366 154.043 196.926C154.043 197.646 154.083 198.326 154.243 198.446C154.523 198.686 155.163 198.846 155.843 198.846C156.483 198.846 157.083 198.726 157.363 198.446C157.563 198.246 157.643 197.646 157.643 197.006C157.643 196.326 157.523 195.606 157.363 195.406C157.163 195.206 156.443 195.126 155.763 195.126Z"></path><path d="M157.643 203.726C157.643 203.766 157.683 203.886 157.683 203.886C157.763 203.886 157.803 203.886 157.803 203.846C162.243 201.406 164.163 197.886 164.163 193.846C164.163 189.766 162.163 186.286 157.803 183.886C157.803 183.886 157.803 183.846 157.803 183.846C157.683 183.846 157.643 183.926 157.643 184.006C157.643 184.166 157.643 184.446 157.643 184.446C157.643 184.446 157.643 184.646 157.763 184.766C160.443 186.726 161.803 189.406 161.803 193.846C161.803 198.286 160.323 200.926 157.803 202.966C157.683 203.006 157.643 203.086 157.643 203.206Z"></path></g></g><line stroke="#000000" stroke-width="1.2" x1="180.42335526753348" x2="180.42335526753348" y1="192.0061538461538" y2="157.0061538461538"></line><line stroke="#000000" stroke-width="2.2" x1="164.54335526753349" x2="186.46335526753347" y1="193.8461538461538" y2="193.8461538461538"></line></g></g></svg>