<?xml version="1.0" encoding="UTF-8" standalone="no"?><svg xmlns="http://www.w3.org/2000/svg" class="" height="279.4mm" viewBox="0 0 1328.6153846153845 1719.3846153846152" width="215.9mm"><g><g><g><line stroke="#6A6A6A" stroke-width="1.3" x1="93.84615384615385" x2="795.865097612934" y1="183.8461538461538" y2="183.8461538461538"></line><line stroke="#6A6A6A" stroke-width="1.3" x1="93.84615384615385" x2="795.865097612934" y1="173.8461538461538" y2="173.8461538461538"></line><line stroke="#6A6A6A" stroke-width="1.3" x1="93.84615384615385" x2="795.865097612934" y1="163.8461538461538" y2="163.8461538461538"></line><line stroke="#6A6A6A" stroke-width="1.3" x1="93.84615384615385" x2="795.865097612934" y1="153.8461538461538" y2="153.8461538461538"></line><line stroke="#6A6A6A" stroke-width="1.3" x1="93.84615384615385" x2="795.865097612934" y1="143.8461538461538" y2="143.8461538461538"></line></g><g><path d="M119.046 129.926C118.486 129.926 117.246 130.966 116.446 131.846C113.486 135.126 112.526 140.126 112.526 144.286C112.526 146.606 112.806 149.206 113.086 150.846C113.166 151.326 113.206 151.406 112.726 151.806C110.166 153.926 107.406 156.366 105.326 158.926C102.566 162.366 100.846 166.086 100.846 170.366C100.846 177.326 105.606 183.926 115.406 183.926C116.326 183.926 117.366 183.846 118.166 183.686C118.606 183.606 118.686 183.566 118.766 184.046C119.246 186.726 119.846 190.206 119.846 192.086C119.846 198.006 115.846 198.726 113.486 198.726C111.326 198.726 110.286 198.086 110.286 197.566C110.286 197.126 110.646 197.166 111.566 196.886C112.806 196.526 114.246 195.446 114.246 193.126C114.246 190.926 112.846 189.046 110.406 189.046C107.726 189.046 106.126 191.166 106.126 193.646C106.126 196.246 107.686 200.166 113.726 200.166C116.406 200.166 121.606 198.966 121.606 192.166C121.606 189.886 120.886 186.086 120.446 183.606C120.366 183.126 120.406 183.166 120.966 182.926C125.006 181.326 127.686 177.926 127.686 173.406C127.686 168.286 123.926 163.766 118.046 163.766C116.926 163.766 117.046 163.966 116.886 163.046L115.886 157.246C115.806 156.766 115.886 156.726 116.126 156.486C116.766 155.886 117.606 155.046 118.366 154.206C121.726 150.526 123.726 145.766 123.726 141.246C123.726 137.766 122.766 134.326 121.126 131.926C120.526 131.046 119.486 129.926 119.046 129.926ZM113.886 158.086C114.286 157.766 114.366 157.806 114.446 158.246L115.286 163.366C115.406 164.126 115.406 164.086 114.686 164.326C111.166 165.526 108.886 168.686 108.886 172.086C108.886 175.686 110.766 178.246 113.486 179.166C113.806 179.286 114.286 179.406 114.566 179.406C114.886 179.406 115.046 179.206 115.046 178.966C115.046 178.686 114.726 178.566 114.446 178.446C112.766 177.726 111.566 176.006 111.566 174.166C111.566 171.886 113.126 170.166 115.566 169.486C116.206 169.326 116.286 169.366 116.366 169.806L118.366 181.726C118.446 182.166 118.406 182.166 117.806 182.286C117.166 182.406 116.366 182.486 115.566 182.486C108.566 182.486 104.046 178.606 104.046 173.046C104.046 170.686 104.446 167.526 107.766 163.766C110.166 161.086 112.006 159.606 113.886 158.086ZM118.486 169.166C121.726 169.446 124.406 172.166 124.406 175.686C124.406 178.206 122.886 180.246 120.646 181.366C120.166 181.606 120.086 181.606 120.006 181.126L118.046 169.726C117.966 169.246 118.006 169.126 118.486 169.166ZM119.646 136.126C120.966 136.126 122.046 137.206 122.046 139.406C122.046 142.166 120.726 144.726 117.606 147.846C116.966 148.486 116.006 149.406 115.086 150.206C114.806 150.446 114.646 150.406 114.566 149.886C114.406 148.846 114.326 147.486 114.326 146.206C114.326 139.966 117.206 136.126 119.646 136.126Z"></path></g><g></g><path d="M151.666 153.806C150.466 153.806 149.066 154.126 147.986 154.606C144.426 156.166 142.546 160.446 142.546 164.246C142.546 164.606 142.546 164.966 142.586 165.326C142.786 167.486 143.826 169.526 145.146 171.126C146.666 172.966 148.866 173.806 151.266 173.806C158.266 173.806 159.306 167.446 159.306 166.286C159.306 165.406 158.866 165.406 158.706 165.406C158.386 165.406 158.106 165.446 158.106 166.126C158.106 171.286 153.706 172.486 152.426 172.486C149.186 172.486 147.466 169.326 147.466 162.726C147.466 156.126 150.506 154.766 152.666 154.766C154.746 154.766 155.586 155.726 155.586 156.126C155.586 156.486 155.466 157.006 154.866 157.006C153.266 157.006 152.346 158.726 152.346 159.966C152.346 162.246 154.306 162.966 155.426 162.966C155.426 162.966 158.466 162.846 158.466 159.526C158.466 154.286 152.426 153.806 151.666 153.806Z"></path></g><g><line stroke="black" stroke-width="1.6" x1="393.0280910946427" x2="393.0280910946427" y1="143.8461538461538" y2="183.8461538461538"></line></g><g><g><path d="M187.206 174.486C191.206 174.486 196.126 170.766 196.126 166.966C196.126 164.686 194.326 163.206 191.726 163.206C186.806 163.206 182.846 166.846 182.846 170.726C182.846 173.086 184.766 174.486 187.206 174.486Z"></path></g><line stroke="#000000" stroke-width="1.2" x1="195.52615384615387" x2="195.52615384615387" y1="167.0061538461538" y2="129.0061538461538"></line><text font-family="Alegreya" font-size="22" text-anchor="middle" x="189.48615384615385" y="223.8461538461538">Tra</text></g><g><g><path d="M244.335 174.486C248.335 174.486 253.255 170.766 253.255 166.966C253.255 164.686 251.455 163.206 248.855 163.206C243.935 163.206 239.975 166.846 239.975 170.726C239.975 173.086 241.895 174.486 244.335 174.486Z"></path></g><line stroke="#000000" stroke-width="1.2" x1="252.6551381582761" x2="252.6551381582761" y1="167.0061538461538" y2="129.0061538461538"></line><text font-family="Alegreya" font-size="22" text-anchor="middle" x="246.61513815827607" y="223.8461538461538">la</text></g><g><g><path d="M293.929 174.486C297.929 174.486 302.849 170.766 302.849 166.966C302.849 164.686 301.049 163.206 298.449 163.206C293.529 163.206 289.569 166.846 289.569 170.726C289.569 173.086 291.489 174.486 293.929 174.486Z"></path></g><line stroke="#000000" stroke-width="1.2" x1="302.2491224703983" x2="302.2491224703983" y1="167.0061538461538" y2="129.0061538461538"></line><text font-family="Alegreya" font-size="22" text-anchor="middle" x="296.20912247039826" y="223.8461538461538">li</text></g><g><g><path d="M349.562 174.486C353.562 174.486 358.482 170.766 358.482 166.966C358.482 164.686 356.682 163.206 354.082 163.206C349.162 163.206 345.202 166.846 345.202 170.726C345.202 173.086 347.122 174.486 349.562 174.486Z"></path></g><line stroke="#000000" stroke-width="1.2" x1="357.8821067825205" x2="357.8821067825205" y1="167.0061538461538" y2="129.0061538461538"></line><text font-family="Alegreya" font-size="22" text-anchor="middle" x="351.8421067825205" y="223.8461538461538">Ja!</text></g></g><g><g></g><g><line stroke="black" stroke-width="1.6" x1="597.7320283431314" x2="597.7320283431314" y1="143.8461538461538" y2="183.8461538461538"></line></g><g><g><path d="M413.188 174.486C417.188 174.486 422.108 170.766 422.108 166.966C422.108 164.686 420.308 163.206 417.708 163.206C412.788 163.206 408.828 166.846 408.828 170.726C408.828 173.086 410.748 174.486 413.188 174.486Z"></path></g><line stroke="#000000" stroke-width="1.2" x1="421.5080910946427" x2="421.5080910946427" y1="167.0061538461538" y2="129.0061538461538"></line></g><g><g><path d="M460.214 174.486C464.214 174.486 469.134 170.766 469.134 166.966C469.134 164.686 467.334 163.206 464.734 163.206C459.814 163.206 455.854 166.846 455.854 170.726C455.854 173.086 457.774 174.486 460.214 174.486Z"></path></g><line stroke="#000000" stroke-width="1.2" x1="468.5340754067649" x2="468.5340754067649" y1="167.0061538461538" y2="129.0061538461538"></line><text font-family="Alegreya" font-size="22" text-anchor="middle" x="462.49407540676486" y="223.8461538461538">Tra</text></g><g><g><path d="M507.240 174.486C511.240 174.486 516.160 170.766 516.160 166.966C516.160 164.686 514.360 163.206 511.760 163.206C506.840 163.206 502.880 166.846 502.880 170.726C502.880 173.086 504.800 174.486 507.240 174.486Z"></path></g><line stroke="#000000" stroke-width="1.2" x1="515.560059718887" x2="515.560059718887" y1="167.0061538461538" y2="129.0061538461538"></line></g><g><g><path d="M554.266 174.486C558.266 174.486 563.186 170.766 563.186 166.966C563.186 164.686 561.386 163.206 558.786 163.206C553.866 163.206 549.906 166.846 549.906 170.726C549.906 173.086 551.826 174.486 554.266 174.486Z"></path></g><line stroke="#000000" stroke-width="1.2" x1="562.5860440310092" x2="562.5860440310092" y1="167.0061538461538" y2="129.0061538461538"></line><text font-family="Alegreya" font-size="22" text-anchor="middle" x="556.5460440310093" y="223.8461538461538">ra!</text></g></g><g><g></g><g><line stroke="#000000" stroke-width="1.6" x1="786.065097612934" x2="786.065097612934" y1="143.8461538461538" y2="183.8461538461538"></line><line stroke="#000000" stroke-width="5" x1="793.365097612934" x2="793.365097612934" y1="143.8461538461538" y2="183.8461538461538"></line></g><g><g><path d="M617.892 174.486C621.892 174.486 626.812 170.766 626.812 166.966C626.812 164.686 625.012 163.206 622.412 163.206C617.492 163.206 613.532 166.846 613.532 170.726C613.532 173.086 615.452 174.486 617.892 174.486Z"></path></g><line stroke="#000000" stroke-width="1.2" x1="626.2120283431315" x2="626.2120283431315" y1="167.0061538461538" y2="129.0061538461538"></line></g><g><g><path d="M664.918 174.486C668.918 174.486 673.838 170.766 673.838 166.966C673.838 164.686 672.038 163.206 669.438 163.206C664.518 163.206 660.558 166.846 660.558 170.726C660.558 173.086 662.478 174.486 664.918 174.486Z"></path></g><line stroke="#000000" stroke-width="1.2" x1="673.2380126552537" x2="673.2380126552537" y1="167.0061538461538" y2="129.0061538461538"></line><text font-family="Alegreya" font-size="22" text-anchor="middle" x="667.1980126552537" y="223.8461538461538">Bah!</text></g><g><g><path d="M712.064 174.646C719.704 174.646 721.224 168.446 721.224 166.926C721.224 164.566 719.344 163.046 716.664 163.046C709.744 163.046 707.584 168.406 707.584 170.806C707.584 173.246 709.544 174.646 712.064 174.646ZM715.584 170.966C713.504 172.366 712.064 172.846 711.064 172.846C710.104 172.846 709.544 172.366 709.224 171.806C709.064 171.526 708.944 171.206 708.944 170.886C708.944 169.886 709.944 168.606 713.144 166.766C715.424 165.446 716.864 164.966 717.824 164.966C718.704 164.966 719.184 165.366 719.504 165.926C719.664 166.206 719.784 166.486 719.784 166.806C719.784 167.726 718.824 168.846 715.584 170.966Z"></path></g><line stroke="#000000" stroke-width="1.2" x1="720.6239969673759" x2="720.6239969673759" y1="166.92615384615382" y2="128.92615384615382"></line></g></g></svg>