<?xml version="1.0" encoding="UTF-8" standalone="no"?><svg xmlns="http://www.w3.org/2000/svg" height="279.4mm" viewBox="0 0 1328.6153846153845 1719.3846153846152" width="215.9mm"><text x="664.3076923076923" y="61.53846153846143"><tspan fill="black" dx="0" dy="0" font-family="Alegreya" font-size="29.30769230769231" text-anchor="middle">Rest unit test</tspan></text><g transform="translate(93.84615384615385)"><g><g><line stroke="#6A6A6A" stroke-width="1.3" x1="0" x2="273.1914929551227" y1="183.8461538461538" y2="183.8461538461538"></line><line stroke="#6A6A6A" stroke-width="1.3" x1="0" x2="273.1914929551227" y1="173.8461538461538" y2="173.8461538461538"></line><line stroke="#6A6A6A" stroke-width="1.3" x1="0" x2="273.1914929551227" y1="163.8461538461538" y2="163.8461538461538"></line><line stroke="#6A6A6A" stroke-width="1.3" x1="0" x2="273.1914929551227" y1="153.8461538461538" y2="153.8461538461538"></line><line stroke="#6A6A6A" stroke-width="1.3" x1="0" x2="273.1914929551227" y1="143.8461538461538" y2="143.8461538461538"></line></g><g><path d="M25.200 129.926C24.640 129.926 23.400 130.966 22.600 131.846C19.640 135.126 18.680 140.126 18.680 144.286C18.680 146.606 18.960 149.206 19.240 150.846C19.320 151.326 19.360 151.406 18.880 151.806C16.320 153.926 13.560 156.366 11.480 158.926C8.720 162.366 7 166.086 7 170.366C7 177.326 11.760 183.926 21.560 183.926C22.480 183.926 23.520 183.846 24.320 183.686C24.760 183.606 24.840 183.566 24.920 184.046C25.400 186.726 26 190.206 26 192.086C26 198.006 22 198.726 19.640 198.726C17.480 198.726 16.440 198.086 16.440 197.566C16.440 197.126 16.800 197.166 17.720 196.886C18.960 196.526 20.400 195.446 20.400 193.126C20.400 190.926 19 189.046 16.560 189.046C13.880 189.046 12.280 191.166 12.280 193.646C12.280 196.246 13.840 200.166 19.880 200.166C22.560 200.166 27.760 198.966 27.760 192.166C27.760 189.886 27.040 186.086 26.600 183.606C26.520 183.126 26.560 183.166 27.120 182.926C31.160 181.326 33.840 177.926 33.840 173.406C33.840 168.286 30.080 163.766 24.200 163.766C23.080 163.766 23.200 163.966 23.040 163.046L22.040 157.246C21.960 156.766 22.040 156.726 22.280 156.486C22.920 155.886 23.760 155.046 24.520 154.206C27.880 150.526 29.880 145.766 29.880 141.246C29.880 137.766 28.920 134.326 27.280 131.926C26.680 131.046 25.640 129.926 25.200 129.926ZM20.040 158.086C20.440 157.766 20.520 157.806 20.600 158.246L21.440 163.366C21.560 164.126 21.560 164.086 20.840 164.326C17.320 165.526 15.040 168.686 15.040 172.086C15.040 175.686 16.920 178.246 19.640 179.166C19.960 179.286 20.440 179.406 20.720 179.406C21.040 179.406 21.200 179.206 21.200 178.966C21.200 178.686 20.880 178.566 20.600 178.446C18.920 177.726 17.720 176.006 17.720 174.166C17.720 171.886 19.280 170.166 21.720 169.486C22.360 169.326 22.440 169.366 22.520 169.806L24.520 181.726C24.600 182.166 24.560 182.166 23.960 182.286C23.320 182.406 22.520 182.486 21.720 182.486C14.720 182.486 10.200 178.606 10.200 173.046C10.200 170.686 10.600 167.526 13.920 163.766C16.320 161.086 18.160 159.606 20.040 158.086ZM24.640 169.166C27.880 169.446 30.560 172.166 30.560 175.686C30.560 178.206 29.040 180.246 26.800 181.366C26.320 181.606 26.240 181.606 26.160 181.126L24.200 169.726C24.120 169.246 24.160 169.126 24.640 169.166ZM25.800 136.126C27.120 136.126 28.200 137.206 28.200 139.406C28.200 142.166 26.880 144.726 23.760 147.846C23.120 148.486 22.160 149.406 21.240 150.206C20.960 150.446 20.800 150.406 20.720 149.886C20.560 148.846 20.480 147.486 20.480 146.206C20.480 139.966 23.360 136.126 25.800 136.126Z"></path></g><g></g><path d="M57.820 153.806C56.620 153.806 55.220 154.126 54.140 154.606C50.580 156.166 48.700 160.446 48.700 164.246C48.700 164.606 48.700 164.966 48.740 165.326C48.940 167.486 49.980 169.526 51.300 171.126C52.820 172.966 55.020 173.806 57.420 173.806C64.420 173.806 65.460 167.446 65.460 166.286C65.460 165.406 65.020 165.406 64.860 165.406C64.540 165.406 64.260 165.446 64.260 166.126C64.260 171.286 59.860 172.486 58.580 172.486C55.340 172.486 53.620 169.326 53.620 162.726C53.620 156.126 56.660 154.766 58.820 154.766C60.900 154.766 61.740 155.726 61.740 156.126C61.740 156.486 61.620 157.006 61.020 157.006C59.420 157.006 58.500 158.726 58.500 159.966C58.500 162.246 60.460 162.966 61.580 162.966C61.580 162.966 64.620 162.846 64.620 159.526C64.620 154.286 58.580 153.806 57.820 153.806Z"></path></g><g><path d="M184.596 143.406C184.236 143.406 183.956 143.686 183.956 144.046L183.956 150.046L155.236 150.046L155.236 144.046C155.236 143.686 154.956 143.406 154.596 143.406C154.236 143.406 153.956 143.686 153.956 144.046L153.956 164.046C153.956 164.406 154.236 164.686 154.596 164.686C154.956 164.686 155.236 164.406 155.236 164.046L155.236 158.046L183.956 158.046L183.956 164.046C183.956 164.406 184.236 164.686 184.596 164.686C184.956 164.686 185.236 164.406 185.236 164.046L185.236 144.046C185.236 143.686 184.956 143.406 184.596 143.406Z"></path><text font-family='Alegreya' font-style='italic' stroke='#7a7a7a' font-size="48" text-anchor="middle" x="169.59574647756136" y="123.84615384615381">2</text></g></g><g transform="translate(367.0376468012766)"><g><g><line stroke="#6A6A6A" stroke-width="1.3" x1="-119.23574647756135" x2="0" y1="183.8461538461538" y2="183.8461538461538"></line><line stroke="#6A6A6A" stroke-width="1.3" x1="-119.23574647756135" x2="0" y1="173.8461538461538" y2="173.8461538461538"></line><line stroke="#6A6A6A" stroke-width="1.3" x1="-119.23574647756135" x2="0" y1="163.8461538461538" y2="163.8461538461538"></line><line stroke="#6A6A6A" stroke-width="1.3" x1="-119.23574647756135" x2="0" y1="153.8461538461538" y2="153.8461538461538"></line><line stroke="#6A6A6A" stroke-width="1.3" x1="-119.23574647756135" x2="0" y1="143.8461538461538" y2="143.8461538461538"></line></g></g><g><line stroke="black" stroke-width="1.6" x1="0.8" x2="0.8" y1="143.8461538461538" y2="183.8461538461538"></line></g></g><g transform="translate(383.6376468012766)"><g><g><line stroke="#6A6A6A" stroke-width="1.3" x1="-16.600000000000023" x2="169.19149295512273" y1="183.8461538461538" y2="183.8461538461538"></line><line stroke="#6A6A6A" stroke-width="1.3" x1="-16.600000000000023" x2="169.19149295512273" y1="173.8461538461538" y2="173.8461538461538"></line><line stroke="#6A6A6A" stroke-width="1.3" x1="-16.600000000000023" x2="169.19149295512273" y1="163.8461538461538" y2="163.8461538461538"></line><line stroke="#6A6A6A" stroke-width="1.3" x1="-16.600000000000023" x2="169.19149295512273" y1="153.8461538461538" y2="153.8461538461538"></line><line stroke="#6A6A6A" stroke-width="1.3" x1="-16.600000000000023" x2="169.19149295512273" y1="143.8461538461538" y2="143.8461538461538"></line></g></g><g><line stroke="black" stroke-width="1.6" x1="169.99149295512274" x2="169.99149295512274" y1="143.8461538461538" y2="183.8461538461538"></line></g><g><path d="M81.936 158.206L81.936 154.526C81.936 153.926 81.456 153.486 80.896 153.486L71.696 153.486C71.096 153.486 70.656 153.926 70.656 154.526L70.656 158.206C70.656 158.766 71.096 159.246 71.696 159.246L80.896 159.246C81.456 159.246 81.936 158.766 81.936 158.206Z"></path></g></g><g transform="translate(569.4291397563993)"><g><g><line stroke="#6A6A6A" stroke-width="1.3" x1="-16.600000000000023" x2="665.3400910128316" y1="183.8461538461538" y2="183.8461538461538"></line><line stroke="#6A6A6A" stroke-width="1.3" x1="-16.600000000000023" x2="665.3400910128316" y1="173.8461538461538" y2="173.8461538461538"></line><line stroke="#6A6A6A" stroke-width="1.3" x1="-16.600000000000023" x2="665.3400910128316" y1="163.8461538461538" y2="163.8461538461538"></line><line stroke="#6A6A6A" stroke-width="1.3" x1="-16.600000000000023" x2="665.3400910128316" y1="153.8461538461538" y2="153.8461538461538"></line><line stroke="#6A6A6A" stroke-width="1.3" x1="-16.600000000000023" x2="665.3400910128316" y1="143.8461538461538" y2="143.8461538461538"></line></g></g><g><line stroke="black" stroke-width="1.6" x1="664.5400910128315" x2="664.5400910128315" y1="143.8461538461538" y2="183.8461538461538"></line></g><g><path d="M11.280 162.886L11.280 159.206C11.280 158.606 10.800 158.166 10.240 158.166L1.040 158.166C0.440 158.166 0 158.606 0 159.206L0 162.886C0 163.446 0.440 163.926 1.040 163.926L10.240 163.926C10.800 163.926 11.280 163.446 11.280 162.886Z"></path></g><g><path d="M158.803 170.286C157.283 168.446 156.043 166.966 156.043 164.726C156.043 164.566 156.083 164.366 156.083 164.206C156.243 161.886 157.683 159.966 158.723 158.326C158.843 158.126 158.883 157.926 158.883 157.726C158.883 157.326 158.723 156.966 158.723 156.966C158.723 156.966 152.803 149.926 152.123 149.246C151.923 149.046 151.643 148.926 151.403 148.926C151.003 148.926 150.603 149.206 150.603 149.766C150.603 149.966 150.643 150.166 150.763 150.406C150.923 150.846 153.203 152.886 153.203 155.766C153.203 157.246 152.603 158.966 150.803 160.846C150.403 161.246 150.243 161.686 150.243 162.006C150.243 162.566 150.643 162.966 150.643 162.966L152.603 165.366C153.243 166.166 153.803 166.926 154.323 167.766C154.403 167.926 154.563 168.126 154.563 168.326C154.563 168.366 154.563 168.446 154.523 168.486C154.443 168.646 154.283 168.686 154.083 168.686C153.843 168.686 153.603 168.606 153.443 168.566C153.243 168.566 153.003 168.446 152.803 168.446C151.083 168.446 149.523 170.166 149.523 172.286C149.523 174.286 151.243 176.246 154.163 178.486C154.483 178.726 154.883 178.846 155.203 178.846C155.483 178.846 155.763 178.766 155.803 178.606C155.843 178.486 155.883 178.406 155.883 178.326C155.883 177.966 155.563 177.646 155.243 177.366C154.723 177.366 154.283 176.286 154.203 175.926C154.083 175.606 154.043 175.246 154.043 174.886C154.043 173.646 154.643 172.246 155.923 172.006C156.123 171.966 156.323 171.966 156.563 171.966C157.723 171.966 159.043 172.406 159.683 172.646C159.723 172.646 159.763 172.686 159.803 172.686C159.923 172.726 160.003 172.726 160.083 172.726C160.203 172.726 160.283 172.686 160.283 172.566C160.283 172.086 159.243 170.766 158.803 170.286Z"></path></g><g><path d="M288.658 157.166C288.578 157.166 288.458 157.166 288.218 157.326C287.938 157.566 285.938 159.966 284.618 159.966L284.618 159.566C284.618 158.086 283.418 156.886 281.938 156.886C280.458 156.886 279.258 158.086 279.258 159.566C279.258 160.406 279.738 161.126 280.338 161.606C280.698 161.846 281.058 162.046 281.458 162.126C281.778 162.206 282.138 162.286 282.498 162.286C283.058 162.286 283.618 162.166 284.058 162.006C284.618 161.846 284.978 161.686 285.498 161.406C285.578 161.366 285.658 161.366 285.698 161.366C285.858 161.366 285.898 161.526 285.898 161.726C285.898 161.846 285.898 162.006 285.858 162.166C285.738 162.766 282.858 170.726 282.138 173.366C282.138 173.846 283.058 173.886 283.298 173.886C283.738 173.886 284.298 173.806 284.698 173.486C284.818 173.406 288.738 159.366 288.738 159.366C288.898 158.646 289.098 158.006 289.138 157.806C289.138 157.286 288.738 157.206 288.658 157.166Z"></path></g><g><path d="M401.724 156.966C401.524 156.966 401.404 157.046 401.284 157.126C401.004 157.366 399.004 159.766 397.644 159.806L397.644 159.406C397.644 157.886 396.444 156.686 394.924 156.686C393.444 156.686 392.204 157.886 392.204 159.406C392.204 160.206 392.684 160.966 393.324 161.446C393.644 161.686 394.044 161.886 394.444 162.006C394.724 162.086 395.044 162.126 395.404 162.126C395.964 162.126 396.604 162.006 397.084 161.846C397.644 161.686 398.004 161.526 398.524 161.246C398.644 161.206 398.724 161.166 398.804 161.166C398.924 161.166 399.004 161.246 399.004 161.446C399.004 161.566 398.964 161.766 398.884 162.046C398.804 162.366 397.044 167.886 396.684 168.646C396.364 169.406 395.284 169.886 394.724 169.886C394.764 169.726 394.764 169.606 394.764 169.486C394.764 167.966 393.524 166.766 392.044 166.766C390.524 166.766 389.324 167.966 389.324 169.486C389.324 170.286 389.804 171.046 390.444 171.526C390.764 171.766 391.124 171.966 391.524 172.086C391.844 172.166 392.164 172.206 392.524 172.206C393.084 172.206 393.724 172.086 394.204 171.926C394.764 171.766 395.004 171.646 395.524 171.366C395.604 171.366 395.684 171.446 395.684 171.566C395.684 171.606 395.644 171.646 395.644 171.686L391.844 183.006C391.844 183.046 391.804 183.086 391.804 183.126C391.804 183.446 392.164 183.846 393.044 183.846C394.204 183.846 394.404 183.366 394.564 182.926L399.204 167.686C400.244 164.286 401.004 161.606 401.004 161.606C401.004 161.606 402.004 158.086 402.084 157.566C402.084 157.486 402.124 157.446 402.124 157.406C402.124 157.086 401.804 157.006 401.724 156.966Z"></path></g><g><path d="M493.803 147.086C493.603 147.086 493.483 147.166 493.363 147.246C493.083 147.446 491.083 149.886 489.723 149.886L489.723 149.526C489.723 148.006 488.523 146.806 487.003 146.806C485.523 146.806 484.283 148.006 484.283 149.526C484.283 150.326 484.763 151.046 485.403 151.526C485.723 151.806 486.123 151.966 486.523 152.086C486.843 152.166 487.163 152.246 487.563 152.246C488.123 152.246 488.723 152.126 489.203 151.966C489.763 151.766 490.083 151.646 490.603 151.366C490.643 151.326 490.723 151.326 490.763 151.326C491.043 151.326 491.203 151.726 491.203 151.966C491.203 152.006 491.163 152.086 491.163 152.126L489.603 158.526C489.403 159.166 488.083 159.966 487.443 159.966C487.483 159.846 487.483 159.726 487.483 159.606C487.483 158.086 486.243 156.886 484.763 156.886C483.243 156.886 482.043 158.086 482.043 159.606C482.043 160.406 482.523 161.126 483.163 161.606C483.483 161.886 483.843 162.046 484.243 162.166C484.563 162.246 484.923 162.326 485.323 162.326C485.883 162.326 486.483 162.206 486.923 162.046C487.483 161.846 487.803 161.726 488.323 161.446C488.363 161.406 488.403 161.406 488.443 161.406C488.643 161.406 488.723 161.726 488.723 161.926L487.123 168.486C486.923 169.326 485.683 169.846 485.083 169.886C485.123 169.726 485.123 169.606 485.123 169.486C485.123 167.966 483.923 166.766 482.403 166.766C480.923 166.766 479.683 167.966 479.683 169.486C479.683 170.286 480.163 171.046 480.803 171.526C481.123 171.766 481.523 171.966 481.923 172.086C482.203 172.166 482.523 172.206 482.883 172.206C483.443 172.206 484.083 172.086 484.563 171.926C485.123 171.766 485.483 171.606 486.003 171.326C486.043 171.286 486.083 171.286 486.123 171.286C486.243 171.286 486.363 171.406 486.363 171.526C486.363 171.686 483.603 182.686 483.523 182.966C483.483 183.046 483.483 183.126 483.483 183.206C483.483 183.526 483.723 183.846 484.563 183.846C485.843 183.846 485.963 183.446 486.123 183.006C486.243 182.526 493.123 151.726 493.123 151.726C493.123 151.726 494.083 148.166 494.163 147.686C494.163 147.606 494.203 147.566 494.203 147.526C494.203 147.166 493.883 147.086 493.803 147.086Z"></path></g><g><path d="M566.892 146.926C566.692 146.926 566.572 147.006 566.452 147.086C566.132 147.326 564.132 149.766 562.772 149.766C562.812 149.646 562.812 149.526 562.812 149.366C562.812 147.886 561.572 146.646 560.092 146.646C558.572 146.646 557.372 147.886 557.372 149.366C557.372 150.206 557.852 150.926 558.492 151.406C558.812 151.646 559.172 151.846 559.572 151.966C559.892 152.046 560.252 152.126 560.652 152.126C561.212 152.126 561.812 152.006 562.252 151.846C562.812 151.646 563.172 151.486 563.692 151.246C563.772 151.206 563.892 151.166 563.972 151.166C564.172 151.166 564.332 151.326 564.332 151.606C564.332 151.726 564.292 151.846 564.252 152.006C564.212 152.126 562.852 157.806 562.692 158.246C562.412 159.006 560.972 159.846 560.292 159.846L560.292 159.446C560.292 157.966 559.092 156.726 557.572 156.726C556.092 156.726 554.852 157.966 554.852 159.446C554.852 160.286 555.332 161.006 555.972 161.486C556.292 161.726 556.692 161.926 557.092 162.046C557.412 162.126 557.732 162.166 558.092 162.166C558.652 162.166 559.292 162.086 559.772 161.926C560.332 161.726 560.852 161.566 561.372 161.326C561.452 161.286 561.492 161.286 561.532 161.286C561.692 161.286 561.772 161.446 561.772 161.646C561.772 161.726 561.772 161.766 561.732 161.846C561.652 162.206 560.212 168.006 560.092 168.326C559.772 169.366 558.692 169.726 558.132 169.726L558.132 169.326C558.132 167.846 556.932 166.606 555.412 166.606C553.932 166.606 552.692 167.846 552.692 169.326C552.692 170.166 553.172 170.886 553.812 171.366C554.172 171.606 554.532 171.806 554.932 171.926C555.252 172.006 555.652 172.086 556.012 172.086C556.572 172.086 557.132 171.966 557.612 171.806C558.172 171.606 558.292 171.446 558.812 171.206C558.852 171.166 558.892 171.166 558.932 171.166C559.132 171.166 559.172 171.486 559.172 171.726C559.172 171.846 559.132 172.006 559.132 172.046C559.092 172.246 557.692 177.966 557.532 178.406C557.292 179.246 556.252 179.606 555.732 179.606C555.772 179.486 555.772 179.366 555.772 179.246C555.772 177.726 554.572 176.526 553.052 176.526C551.572 176.526 550.332 177.726 550.332 179.246C550.332 180.046 550.812 180.766 551.452 181.246C551.772 181.526 552.132 181.686 552.532 181.806C552.852 181.886 553.212 181.966 553.612 181.966C554.172 181.966 554.772 181.846 555.212 181.686C555.772 181.486 555.652 181.606 556.172 181.326C556.252 181.286 556.292 181.286 556.332 181.286C556.532 181.286 556.652 181.486 556.652 181.726C556.652 181.806 556.612 181.886 556.612 181.966L553.732 193.126C553.692 193.246 553.692 193.326 553.692 193.406C553.692 193.766 554.052 193.966 554.972 193.966C555.932 193.966 556.132 193.726 556.292 193.286C556.372 192.926 556.692 192.206 561.492 171.566C561.532 171.566 562.292 168.326 562.452 167.606L566.172 151.606C566.172 151.606 567.132 148.046 567.252 147.526C567.252 147.086 567.052 146.966 566.892 146.926Z"></path></g><g><path d="M616.194 139.006C616.194 137.486 614.994 136.286 613.474 136.286C611.994 136.286 610.754 137.486 610.754 139.006C610.754 139.806 611.234 140.526 611.874 141.006C612.194 141.286 612.594 141.486 612.994 141.566C613.314 141.646 613.674 141.726 614.034 141.726C614.594 141.726 615.194 141.606 615.634 141.446C615.674 141.446 615.714 141.406 615.754 141.406C616.234 141.246 616.594 141.086 617.074 140.846C617.154 140.806 617.314 140.766 617.394 140.766C617.634 140.766 617.874 140.926 617.874 141.286C617.874 141.366 617.874 141.486 617.834 141.606C617.674 142.366 616.434 147.326 616.274 147.886C616.114 148.486 614.474 149.686 613.714 149.686L613.714 149.286C613.714 147.806 612.514 146.566 610.994 146.566C609.514 146.566 608.274 147.806 608.274 149.286C608.274 150.126 608.754 150.846 609.394 151.326C609.754 151.566 610.114 151.766 610.514 151.886C610.834 151.966 611.154 152.006 611.514 152.006C612.074 152.006 612.714 151.926 613.194 151.766C613.754 151.566 614.474 151.206 614.994 150.966C615.034 150.926 615.074 150.926 615.114 150.926C615.274 150.926 615.314 151.166 615.314 151.446C615.314 151.646 615.274 151.846 615.234 152.006L613.674 158.246C613.474 159.046 612.074 159.846 611.434 159.846L611.434 159.446C611.434 157.966 610.234 156.726 608.714 156.726C607.234 156.726 605.994 157.966 605.994 159.446C605.994 160.286 606.474 161.006 607.114 161.486C607.434 161.726 607.834 161.926 608.234 162.046C608.554 162.126 608.954 162.206 609.314 162.206C609.874 162.206 610.434 162.086 610.914 161.926C611.474 161.726 611.794 161.566 612.314 161.326C612.394 161.286 612.474 161.246 612.554 161.246C612.714 161.246 612.794 161.406 612.794 161.646C612.794 161.766 612.754 161.926 612.714 162.086C612.594 162.686 611.394 167.566 611.194 168.206C610.874 169.286 609.674 169.726 609.074 169.726C609.074 169.606 609.114 169.486 609.114 169.326C609.114 167.846 607.874 166.606 606.394 166.606C604.874 166.606 603.674 167.846 603.674 169.326C603.674 170.166 604.154 170.886 604.794 171.366C605.114 171.606 605.474 171.806 605.874 171.926C606.194 172.006 606.594 172.086 606.954 172.086C607.514 172.086 608.074 171.966 608.554 171.806C609.114 171.606 609.434 171.446 609.954 171.206C609.994 171.166 610.074 171.166 610.114 171.166C610.274 171.166 610.354 171.326 610.354 171.486C610.274 171.806 608.994 177.446 608.674 178.206C608.154 179.566 607.394 179.606 606.834 179.646L606.714 179.246C606.714 177.726 605.514 176.526 603.994 176.526C602.514 176.526 601.274 177.726 601.274 179.246C601.274 180.046 601.754 180.766 602.394 181.286C602.714 181.526 603.114 181.726 603.514 181.806C603.834 181.886 604.194 181.966 604.554 181.966C605.114 181.966 605.714 181.846 606.154 181.686C606.194 181.686 606.234 181.646 606.274 181.646C606.754 181.486 607.114 181.326 607.594 181.086C607.634 181.086 607.674 181.046 607.714 181.046C607.834 181.046 607.914 181.126 607.914 181.246C607.914 181.286 607.914 181.366 607.874 181.406C607.794 181.686 604.994 193.006 604.914 193.206C604.914 193.606 605.154 193.846 606.074 193.846C607.354 193.846 607.514 193.686 607.674 193.206L619.554 141.206C619.554 141.206 620.554 137.686 620.634 137.166C620.634 137.086 620.674 137.046 620.674 137.006C620.674 136.646 620.354 136.606 620.274 136.566C620.074 136.566 619.954 136.646 619.834 136.726C619.554 136.926 617.554 139.366 616.194 139.406Z"></path></g><g><path d="M647.427 139.006C647.427 137.486 646.227 136.286 644.707 136.286C643.227 136.286 641.987 137.486 641.987 139.006C641.987 139.806 642.467 140.526 643.107 141.006C643.427 141.286 643.827 141.486 644.227 141.566C644.547 141.646 644.907 141.726 645.267 141.726C645.827 141.726 646.427 141.606 646.867 141.446C646.907 141.446 646.947 141.406 646.987 141.406C647.467 141.246 647.827 141.086 648.307 140.846C648.387 140.806 648.547 140.766 648.627 140.766C648.867 140.766 649.107 140.926 649.107 141.286C649.107 141.366 649.107 141.486 649.067 141.606C648.907 142.366 647.667 147.326 647.507 147.886C647.347 148.486 645.707 149.686 644.947 149.686L644.947 149.286C644.947 147.806 643.747 146.566 642.227 146.566C640.747 146.566 639.507 147.806 639.507 149.286C639.507 150.126 639.987 150.846 640.627 151.326C640.987 151.566 641.347 151.766 641.747 151.886C642.067 151.966 642.387 152.006 642.747 152.006C643.307 152.006 643.947 151.926 644.427 151.766C644.987 151.566 645.707 151.206 646.227 150.966C646.267 150.926 646.307 150.926 646.347 150.926C646.507 150.926 646.547 151.166 646.547 151.446C646.547 151.646 646.507 151.846 646.467 152.006L644.907 158.246C644.707 159.046 643.307 159.846 642.667 159.846L642.667 159.446C642.667 157.966 641.467 156.726 639.947 156.726C638.467 156.726 637.227 157.966 637.227 159.446C637.227 160.286 637.707 161.006 638.347 161.486C638.667 161.726 639.067 161.926 639.467 162.046C639.787 162.126 640.187 162.206 640.547 162.206C641.107 162.206 641.667 162.086 642.147 161.926C642.707 161.726 643.027 161.566 643.547 161.326C643.627 161.286 643.707 161.246 643.787 161.246C643.947 161.246 644.027 161.406 644.027 161.646C644.027 161.766 643.987 161.926 643.947 162.086C643.827 162.686 642.627 167.566 642.427 168.206C642.107 169.286 640.907 169.726 640.307 169.726C640.307 169.606 640.347 169.486 640.347 169.326C640.347 167.846 639.107 166.606 637.627 166.606C636.107 166.606 634.907 167.846 634.907 169.326C634.907 170.166 635.387 170.886 636.027 171.366C636.347 171.606 636.707 171.806 637.107 171.926C637.427 172.006 637.827 172.086 638.187 172.086C638.747 172.086 639.307 171.966 639.787 171.806C640.347 171.606 640.667 171.446 641.187 171.206C641.227 171.166 641.307 171.166 641.347 171.166C641.507 171.166 641.587 171.326 641.587 171.486C641.507 171.806 640.227 177.446 639.907 178.206C639.387 179.566 638.627 179.606 638.067 179.646L637.947 179.246C637.947 177.726 636.747 176.526 635.227 176.526C633.747 176.526 632.507 177.726 632.507 179.246C632.507 180.046 632.987 180.766 633.627 181.286C633.947 181.526 634.347 181.726 634.747 181.806C635.067 181.886 635.427 181.966 635.787 181.966C636.347 181.966 636.947 181.846 637.387 181.686C637.427 181.686 637.467 181.646 637.507 181.646C637.987 181.486 638.347 181.326 638.827 181.086C638.867 181.086 638.907 181.046 638.947 181.046C639.067 181.046 639.147 181.126 639.147 181.246C639.147 181.286 639.147 181.366 639.107 181.406C639.027 181.686 636.227 193.006 636.147 193.206C636.147 193.606 636.387 193.846 637.307 193.846C638.587 193.846 638.747 193.686 638.907 193.206L650.787 141.206C650.787 141.206 651.787 137.686 651.867 137.166C651.867 137.086 651.907 137.046 651.907 137.006C651.907 136.646 651.587 136.606 651.507 136.566C651.307 136.566 651.187 136.646 651.067 136.726C650.787 136.926 648.787 139.366 647.427 139.406Z"></path></g></g><g transform="translate(93.84615384615385)"><g><g><line stroke="#6A6A6A" stroke-width="1.3" x1="0" x2="396.2782281123222" y1="314.8461538461538" y2="314.8461538461538"></line><line stroke="#6A6A6A" stroke-width="1.3" x1="0" x2="396.2782281123222" y1="304.8461538461538" y2="304.8461538461538"></line><line stroke="#6A6A6A" stroke-width="1.3" x1="0" x2="396.2782281123222" y1="294.8461538461538" y2="294.8461538461538"></line><line stroke="#6A6A6A" stroke-width="1.3" x1="0" x2="396.2782281123222" y1="284.8461538461538" y2="284.8461538461538"></line><line stroke="#6A6A6A" stroke-width="1.3" x1="0" x2="396.2782281123222" y1="274.8461538461538" y2="274.8461538461538"></line></g><g><path d="M25.200 260.926C24.640 260.926 23.400 261.966 22.600 262.846C19.640 266.126 18.680 271.126 18.680 275.286C18.680 277.606 18.960 280.206 19.240 281.846C19.320 282.326 19.360 282.406 18.880 282.806C16.320 284.926 13.560 287.366 11.480 289.926C8.720 293.366 7 297.086 7 301.366C7 308.326 11.760 314.926 21.560 314.926C22.480 314.926 23.520 314.846 24.320 314.686C24.760 314.606 24.840 314.566 24.920 315.046C25.400 317.726 26 321.206 26 323.086C26 329.006 22 329.726 19.640 329.726C17.480 329.726 16.440 329.086 16.440 328.566C16.440 328.126 16.800 328.166 17.720 327.886C18.960 327.526 20.400 326.446 20.400 324.126C20.400 321.926 19 320.046 16.560 320.046C13.880 320.046 12.280 322.166 12.280 324.646C12.280 327.246 13.840 331.166 19.880 331.166C22.560 331.166 27.760 329.966 27.760 323.166C27.760 320.886 27.040 317.086 26.600 314.606C26.520 314.126 26.560 314.166 27.120 313.926C31.160 312.326 33.840 308.926 33.840 304.406C33.840 299.286 30.080 294.766 24.200 294.766C23.080 294.766 23.200 294.966 23.040 294.046L22.040 288.246C21.960 287.766 22.040 287.726 22.280 287.486C22.920 286.886 23.760 286.046 24.520 285.206C27.880 281.526 29.880 276.766 29.880 272.246C29.880 268.766 28.920 265.326 27.280 262.926C26.680 262.046 25.640 260.926 25.200 260.926ZM20.040 289.086C20.440 288.766 20.520 288.806 20.600 289.246L21.440 294.366C21.560 295.126 21.560 295.086 20.840 295.326C17.320 296.526 15.040 299.686 15.040 303.086C15.040 306.686 16.920 309.246 19.640 310.166C19.960 310.286 20.440 310.406 20.720 310.406C21.040 310.406 21.200 310.206 21.200 309.966C21.200 309.686 20.880 309.566 20.600 309.446C18.920 308.726 17.720 307.006 17.720 305.166C17.720 302.886 19.280 301.166 21.720 300.486C22.360 300.326 22.440 300.366 22.520 300.806L24.520 312.726C24.600 313.166 24.560 313.166 23.960 313.286C23.320 313.406 22.520 313.486 21.720 313.486C14.720 313.486 10.200 309.606 10.200 304.046C10.200 301.686 10.600 298.526 13.920 294.766C16.320 292.086 18.160 290.606 20.040 289.086ZM24.640 300.166C27.880 300.446 30.560 303.166 30.560 306.686C30.560 309.206 29.040 311.246 26.800 312.366C26.320 312.606 26.240 312.606 26.160 312.126L24.200 300.726C24.120 300.246 24.160 300.126 24.640 300.166ZM25.800 267.126C27.120 267.126 28.200 268.206 28.200 270.406C28.200 273.166 26.880 275.726 23.760 278.846C23.120 279.486 22.160 280.406 21.240 281.206C20.960 281.446 20.800 281.406 20.720 280.886C20.560 279.846 20.480 278.486 20.480 277.206C20.480 270.966 23.360 267.126 25.800 267.126Z"></path></g><g></g><text font-family='Alegreya' font-style='italic' text-anchor='end' stroke='#7a7a7a' font-size="24" x="0" y="264.8461538461538">5</text></g><g><line stroke="black" stroke-width="1.6" x1="397.0782281123222" x2="397.0782281123222" y1="274.8461538461538" y2="314.8461538461538"></line></g><g><path d="M59.780 293.886L59.780 290.206C59.780 289.606 59.300 289.166 58.740 289.166L49.540 289.166C48.940 289.166 48.500 289.606 48.500 290.206L48.500 293.886C48.500 294.446 48.940 294.926 49.540 294.926L58.740 294.926C59.300 294.926 59.780 294.446 59.780 293.886Z"></path><g><circle cx="65.78" cy="289.8461538461538" r="2.4"></circle></g></g><g><path d="M254.740 301.286C253.220 299.446 251.980 297.966 251.980 295.726C251.980 295.566 252.020 295.366 252.020 295.206C252.180 292.886 253.620 290.966 254.660 289.326C254.780 289.126 254.820 288.926 254.820 288.726C254.820 288.326 254.660 287.966 254.660 287.966C254.660 287.966 248.740 280.926 248.060 280.246C247.860 280.046 247.580 279.926 247.340 279.926C246.940 279.926 246.540 280.206 246.540 280.766C246.540 280.966 246.580 281.166 246.700 281.406C246.860 281.846 249.140 283.886 249.140 286.766C249.140 288.246 248.540 289.966 246.740 291.846C246.340 292.246 246.180 292.686 246.180 293.006C246.180 293.566 246.580 293.966 246.580 293.966L248.540 296.366C249.180 297.166 249.740 297.926 250.260 298.766C250.340 298.926 250.500 299.126 250.500 299.326C250.500 299.366 250.500 299.446 250.460 299.486C250.380 299.646 250.220 299.686 250.020 299.686C249.780 299.686 249.540 299.606 249.380 299.566C249.180 299.566 248.940 299.446 248.740 299.446C247.020 299.446 245.460 301.166 245.460 303.286C245.460 305.286 247.180 307.246 250.100 309.486C250.420 309.726 250.820 309.846 251.140 309.846C251.420 309.846 251.700 309.766 251.740 309.606C251.780 309.486 251.820 309.406 251.820 309.326C251.820 308.966 251.500 308.646 251.180 308.366C250.660 308.366 250.220 307.286 250.140 306.926C250.020 306.606 249.980 306.246 249.980 305.886C249.980 304.646 250.580 303.246 251.860 303.006C252.060 302.966 252.260 302.966 252.500 302.966C253.660 302.966 254.980 303.406 255.620 303.646C255.660 303.646 255.700 303.686 255.740 303.686C255.860 303.726 255.940 303.726 256.020 303.726C256.140 303.726 256.220 303.686 256.220 303.566C256.220 303.086 255.180 301.766 254.740 301.286Z"></path></g></g><g transform="translate(506.72438195847604)"><g><g><line stroke="#6A6A6A" stroke-width="1.3" x1="-16.599999999999966" x2="418.34247359774326" y1="314.8461538461538" y2="314.8461538461538"></line><line stroke="#6A6A6A" stroke-width="1.3" x1="-16.599999999999966" x2="418.34247359774326" y1="304.8461538461538" y2="304.8461538461538"></line><line stroke="#6A6A6A" stroke-width="1.3" x1="-16.599999999999966" x2="418.34247359774326" y1="294.8461538461538" y2="294.8461538461538"></line><line stroke="#6A6A6A" stroke-width="1.3" x1="-16.599999999999966" x2="418.34247359774326" y1="284.8461538461538" y2="284.8461538461538"></line><line stroke="#6A6A6A" stroke-width="1.3" x1="-16.599999999999966" x2="418.34247359774326" y1="274.8461538461538" y2="274.8461538461538"></line></g></g><g><line stroke="#000000" stroke-width="1.6" x1="408.5424735977433" x2="408.5424735977433" y1="274.8461538461538" y2="314.8461538461538"></line><line stroke="#000000" stroke-width="5" x1="415.8424735977433" x2="415.8424735977433" y1="274.8461538461538" y2="314.8461538461538"></line></g><g><path d="M9.320 301.286C7.800 299.446 6.560 297.966 6.560 295.726C6.560 295.566 6.600 295.366 6.600 295.206C6.760 292.886 8.200 290.966 9.240 289.326C9.360 289.126 9.400 288.926 9.400 288.726C9.400 288.326 9.240 287.966 9.240 287.966C9.240 287.966 3.320 280.926 2.640 280.246C2.440 280.046 2.160 279.926 1.920 279.926C1.520 279.926 1.120 280.206 1.120 280.766C1.120 280.966 1.160 281.166 1.280 281.406C1.440 281.846 3.720 283.886 3.720 286.766C3.720 288.246 3.120 289.966 1.320 291.846C0.920 292.246 0.760 292.686 0.760 293.006C0.760 293.566 1.160 293.966 1.160 293.966L3.120 296.366C3.760 297.166 4.320 297.926 4.840 298.766C4.920 298.926 5.080 299.126 5.080 299.326C5.080 299.366 5.080 299.446 5.040 299.486C4.960 299.646 4.800 299.686 4.600 299.686C4.360 299.686 4.120 299.606 3.960 299.566C3.760 299.566 3.520 299.446 3.320 299.446C1.600 299.446 0.040 301.166 0.040 303.286C0.040 305.286 1.760 307.246 4.680 309.486C5 309.726 5.400 309.846 5.720 309.846C6 309.846 6.280 309.766 6.320 309.606C6.360 309.486 6.400 309.406 6.400 309.326C6.400 308.966 6.080 308.646 5.760 308.366C5.240 308.366 4.800 307.286 4.720 306.926C4.600 306.606 4.560 306.246 4.560 305.886C4.560 304.646 5.160 303.246 6.440 303.006C6.640 302.966 6.840 302.966 7.080 302.966C8.240 302.966 9.560 303.406 10.200 303.646C10.240 303.646 10.280 303.686 10.320 303.686C10.440 303.726 10.520 303.726 10.600 303.726C10.720 303.726 10.800 303.686 10.800 303.566C10.800 303.086 9.760 301.766 9.320 301.286Z"></path><g><circle cx="16.8" cy="289.8461538461538" r="2.4"></circle></g></g><g><path d="M114.868 288.166C114.788 288.166 114.668 288.166 114.428 288.326C114.148 288.566 112.148 290.966 110.828 290.966L110.828 290.566C110.828 289.086 109.628 287.886 108.148 287.886C106.668 287.886 105.468 289.086 105.468 290.566C105.468 291.406 105.948 292.126 106.548 292.606C106.908 292.846 107.268 293.046 107.668 293.126C107.988 293.206 108.348 293.286 108.708 293.286C109.268 293.286 109.828 293.166 110.268 293.006C110.828 292.846 111.188 292.686 111.708 292.406C111.788 292.366 111.868 292.366 111.908 292.366C112.068 292.366 112.108 292.526 112.108 292.726C112.108 292.846 112.108 293.006 112.068 293.166C111.948 293.766 109.068 301.726 108.348 304.366C108.348 304.846 109.268 304.886 109.508 304.886C109.948 304.886 110.508 304.806 110.908 304.486C111.028 304.406 114.948 290.366 114.948 290.366C115.108 289.646 115.308 289.006 115.348 288.806C115.348 288.286 114.948 288.206 114.868 288.166Z"></path><g><circle cx="121.34763853714297" cy="289.8461538461538" r="2.4"></circle></g></g><g><path d="M208.331 287.966C208.131 287.966 208.011 288.046 207.891 288.126C207.611 288.366 205.611 290.766 204.251 290.806L204.251 290.406C204.251 288.886 203.051 287.686 201.531 287.686C200.051 287.686 198.811 288.886 198.811 290.406C198.811 291.206 199.291 291.966 199.931 292.446C200.251 292.686 200.651 292.886 201.051 293.006C201.331 293.086 201.651 293.126 202.011 293.126C202.571 293.126 203.211 293.006 203.691 292.846C204.251 292.686 204.611 292.526 205.131 292.246C205.251 292.206 205.331 292.166 205.411 292.166C205.531 292.166 205.611 292.246 205.611 292.446C205.611 292.566 205.571 292.766 205.491 293.046C205.411 293.366 203.651 298.886 203.291 299.646C202.971 300.406 201.891 300.886 201.331 300.886C201.371 300.726 201.371 300.606 201.371 300.486C201.371 298.966 200.131 297.766 198.651 297.766C197.131 297.766 195.931 298.966 195.931 300.486C195.931 301.286 196.411 302.046 197.051 302.526C197.371 302.766 197.731 302.966 198.131 303.086C198.451 303.166 198.771 303.206 199.131 303.206C199.691 303.206 200.331 303.086 200.811 302.926C201.371 302.766 201.611 302.646 202.131 302.366C202.211 302.366 202.291 302.446 202.291 302.566C202.291 302.606 202.251 302.646 202.251 302.686L198.451 314.006C198.451 314.046 198.411 314.086 198.411 314.126C198.411 314.446 198.771 314.846 199.651 314.846C200.811 314.846 201.011 314.366 201.171 313.926L205.811 298.686C206.851 295.286 207.611 292.606 207.611 292.606C207.611 292.606 208.611 289.086 208.691 288.566C208.691 288.486 208.731 288.446 208.731 288.406C208.731 288.086 208.411 288.006 208.331 287.966Z"></path><g><circle cx="214.73105323261166" cy="289.8461538461538" r="2.4"></circle></g></g><g><path d="M285.510 278.086C285.310 278.086 285.190 278.166 285.070 278.246C284.790 278.446 282.790 280.886 281.430 280.886L281.430 280.526C281.430 279.006 280.230 277.806 278.710 277.806C277.230 277.806 275.990 279.006 275.990 280.526C275.990 281.326 276.470 282.046 277.110 282.526C277.430 282.806 277.830 282.966 278.230 283.086C278.550 283.166 278.870 283.246 279.270 283.246C279.830 283.246 280.430 283.126 280.910 282.966C281.470 282.766 281.790 282.646 282.310 282.366C282.350 282.326 282.430 282.326 282.470 282.326C282.750 282.326 282.910 282.726 282.910 282.966C282.910 283.006 282.870 283.086 282.870 283.126L281.310 289.526C281.110 290.166 279.790 290.966 279.150 290.966C279.190 290.846 279.190 290.726 279.190 290.606C279.190 289.086 277.950 287.886 276.470 287.886C274.950 287.886 273.750 289.086 273.750 290.606C273.750 291.406 274.230 292.126 274.870 292.606C275.190 292.886 275.550 293.046 275.950 293.166C276.270 293.246 276.630 293.326 277.030 293.326C277.590 293.326 278.190 293.206 278.630 293.046C279.190 292.846 279.510 292.726 280.030 292.446C280.070 292.406 280.110 292.406 280.150 292.406C280.350 292.406 280.430 292.726 280.430 292.926L278.830 299.486C278.630 300.326 277.390 300.846 276.790 300.886C276.830 300.726 276.830 300.606 276.830 300.486C276.830 298.966 275.630 297.766 274.110 297.766C272.630 297.766 271.390 298.966 271.390 300.486C271.390 301.286 271.870 302.046 272.510 302.526C272.830 302.766 273.230 302.966 273.630 303.086C273.910 303.166 274.230 303.206 274.590 303.206C275.150 303.206 275.790 303.086 276.270 302.926C276.830 302.766 277.190 302.606 277.710 302.326C277.750 302.286 277.790 302.286 277.830 302.286C277.950 302.286 278.070 302.406 278.070 302.526C278.070 302.686 275.310 313.686 275.230 313.966C275.190 314.046 275.190 314.126 275.190 314.206C275.190 314.526 275.430 314.846 276.270 314.846C277.550 314.846 277.670 314.446 277.830 314.006C277.950 313.526 284.830 282.726 284.830 282.726C284.830 282.726 285.790 279.166 285.870 278.686C285.870 278.606 285.910 278.566 285.910 278.526C285.910 278.166 285.590 278.086 285.510 278.086Z"></path><g><circle cx="291.910244086406" cy="289.8461538461538" r="2.4"></circle></g></g><g><path d="M348.405 277.926C348.205 277.926 348.085 278.006 347.965 278.086C347.645 278.326 345.645 280.766 344.285 280.766C344.325 280.646 344.325 280.526 344.325 280.366C344.325 278.886 343.085 277.646 341.605 277.646C340.085 277.646 338.885 278.886 338.885 280.366C338.885 281.206 339.365 281.926 340.005 282.406C340.325 282.646 340.685 282.846 341.085 282.966C341.405 283.046 341.765 283.126 342.165 283.126C342.725 283.126 343.325 283.006 343.765 282.846C344.325 282.646 344.685 282.486 345.205 282.246C345.285 282.206 345.405 282.166 345.485 282.166C345.685 282.166 345.845 282.326 345.845 282.606C345.845 282.726 345.805 282.846 345.765 283.006C345.725 283.126 344.365 288.806 344.205 289.246C343.925 290.006 342.485 290.846 341.805 290.846L341.805 290.446C341.805 288.966 340.605 287.726 339.085 287.726C337.605 287.726 336.365 288.966 336.365 290.446C336.365 291.286 336.845 292.006 337.485 292.486C337.805 292.726 338.205 292.926 338.605 293.046C338.925 293.126 339.245 293.166 339.605 293.166C340.165 293.166 340.805 293.086 341.285 292.926C341.845 292.726 342.365 292.566 342.885 292.326C342.965 292.286 343.005 292.286 343.045 292.286C343.205 292.286 343.285 292.446 343.285 292.646C343.285 292.726 343.285 292.766 343.245 292.846C343.165 293.206 341.725 299.006 341.605 299.326C341.285 300.366 340.205 300.726 339.645 300.726L339.645 300.326C339.645 298.846 338.445 297.606 336.925 297.606C335.445 297.606 334.205 298.846 334.205 300.326C334.205 301.166 334.685 301.886 335.325 302.366C335.685 302.606 336.045 302.806 336.445 302.926C336.765 303.006 337.165 303.086 337.525 303.086C338.085 303.086 338.645 302.966 339.125 302.806C339.685 302.606 339.805 302.446 340.325 302.206C340.365 302.166 340.405 302.166 340.445 302.166C340.645 302.166 340.685 302.486 340.685 302.726C340.685 302.846 340.645 303.006 340.645 303.046C340.605 303.246 339.205 308.966 339.045 309.406C338.805 310.246 337.765 310.606 337.245 310.606C337.285 310.486 337.285 310.366 337.285 310.246C337.285 308.726 336.085 307.526 334.565 307.526C333.085 307.526 331.845 308.726 331.845 310.246C331.845 311.046 332.325 311.766 332.965 312.246C333.285 312.526 333.645 312.686 334.045 312.806C334.365 312.886 334.725 312.966 335.125 312.966C335.685 312.966 336.285 312.846 336.725 312.686C337.285 312.486 337.165 312.606 337.685 312.326C337.765 312.286 337.805 312.286 337.845 312.286C338.045 312.286 338.165 312.486 338.165 312.726C338.165 312.806 338.125 312.886 338.125 312.966L335.245 324.126C335.205 324.246 335.205 324.326 335.205 324.406C335.205 324.766 335.565 324.966 336.485 324.966C337.445 324.966 337.645 324.726 337.805 324.286C337.885 323.926 338.205 323.206 343.005 302.566C343.045 302.566 343.805 299.326 343.965 298.606L347.685 282.606C347.685 282.606 348.645 279.046 348.765 278.526C348.765 278.086 348.565 277.966 348.405 277.926Z"></path><g><circle cx="354.7652110985261" cy="289.8461538461538" r="2.4"></circle></g></g><g><path d="M392.216 270.006C392.216 268.486 391.016 267.286 389.496 267.286C388.016 267.286 386.776 268.486 386.776 270.006C386.776 270.806 387.256 271.526 387.896 272.006C388.216 272.286 388.616 272.486 389.016 272.566C389.336 272.646 389.696 272.726 390.056 272.726C390.616 272.726 391.216 272.606 391.656 272.446C391.696 272.446 391.736 272.406 391.776 272.406C392.256 272.246 392.616 272.086 393.096 271.846C393.176 271.806 393.336 271.766 393.416 271.766C393.656 271.766 393.896 271.926 393.896 272.286C393.896 272.366 393.896 272.486 393.856 272.606C393.696 273.366 392.456 278.326 392.296 278.886C392.136 279.486 390.496 280.686 389.736 280.686L389.736 280.286C389.736 278.806 388.536 277.566 387.016 277.566C385.536 277.566 384.296 278.806 384.296 280.286C384.296 281.126 384.776 281.846 385.416 282.326C385.776 282.566 386.136 282.766 386.536 282.886C386.856 282.966 387.176 283.006 387.536 283.006C388.096 283.006 388.736 282.926 389.216 282.766C389.776 282.566 390.496 282.206 391.016 281.966C391.056 281.926 391.096 281.926 391.136 281.926C391.296 281.926 391.336 282.166 391.336 282.446C391.336 282.646 391.296 282.846 391.256 283.006L389.696 289.246C389.496 290.046 388.096 290.846 387.456 290.846L387.456 290.446C387.456 288.966 386.256 287.726 384.736 287.726C383.256 287.726 382.016 288.966 382.016 290.446C382.016 291.286 382.496 292.006 383.136 292.486C383.456 292.726 383.856 292.926 384.256 293.046C384.576 293.126 384.976 293.206 385.336 293.206C385.896 293.206 386.456 293.086 386.936 292.926C387.496 292.726 387.816 292.566 388.336 292.326C388.416 292.286 388.496 292.246 388.576 292.246C388.736 292.246 388.816 292.406 388.816 292.646C388.816 292.766 388.776 292.926 388.736 293.086C388.616 293.686 387.416 298.566 387.216 299.206C386.896 300.286 385.696 300.726 385.096 300.726C385.096 300.606 385.136 300.486 385.136 300.326C385.136 298.846 383.896 297.606 382.416 297.606C380.896 297.606 379.696 298.846 379.696 300.326C379.696 301.166 380.176 301.886 380.816 302.366C381.136 302.606 381.496 302.806 381.896 302.926C382.216 303.006 382.616 303.086 382.976 303.086C383.536 303.086 384.096 302.966 384.576 302.806C385.136 302.606 385.456 302.446 385.976 302.206C386.016 302.166 386.096 302.166 386.136 302.166C386.296 302.166 386.376 302.326 386.376 302.486C386.296 302.806 385.016 308.446 384.696 309.206C384.176 310.566 383.416 310.606 382.856 310.646L382.736 310.246C382.736 308.726 381.536 307.526 380.016 307.526C378.536 307.526 377.296 308.726 377.296 310.246C377.296 311.046 377.776 311.766 378.416 312.286C378.736 312.526 379.136 312.726 379.536 312.806C379.856 312.886 380.216 312.966 380.576 312.966C381.136 312.966 381.736 312.846 382.176 312.686C382.216 312.686 382.256 312.646 382.296 312.646C382.776 312.486 383.136 312.326 383.616 312.086C383.656 312.086 383.696 312.046 383.736 312.046C383.856 312.046 383.936 312.126 383.936 312.246C383.936 312.286 383.936 312.366 383.896 312.406C383.816 312.686 381.016 324.006 380.936 324.206C380.936 324.606 381.176 324.846 382.096 324.846C383.376 324.846 383.536 324.686 383.696 324.206L395.576 272.206C395.576 272.206 396.576 268.686 396.656 268.166C396.656 268.086 396.696 268.046 396.696 268.006C396.696 267.646 396.376 267.606 396.296 267.566C396.096 267.566 395.976 267.646 395.856 267.726C395.576 267.926 393.576 270.366 392.216 270.406Z"></path><g><circle cx="402.6959542689718" cy="289.8461538461538" r="2.4"></circle></g></g></g></svg>