<?xml version="1.0" encoding="UTF-8" standalone="no"?><svg xmlns="http://www.w3.org/2000/svg" height="279.4mm" viewBox="0 0 1328.6153846153845 1719.3846153846152" width="215.9mm"><g transform="translate(93.84615384615385)"><g><g><line stroke="#6A6A6A" stroke-width="1.3" x1="0" x2="1133.7003378107208" y1="183.8461538461538" y2="183.8461538461538"></line><line stroke="#6A6A6A" stroke-width="1.3" x1="0" x2="1133.7003378107208" y1="173.8461538461538" y2="173.8461538461538"></line><line stroke="#6A6A6A" stroke-width="1.3" x1="0" x2="1133.7003378107208" y1="163.8461538461538" y2="163.8461538461538"></line><line stroke="#6A6A6A" stroke-width="1.3" x1="0" x2="1133.7003378107208" y1="153.8461538461538" y2="153.8461538461538"></line><line stroke="#6A6A6A" stroke-width="1.3" x1="0" x2="1133.7003378107208" y1="143.8461538461538" y2="143.8461538461538"></line></g><g><path d="M25.200 129.926C24.640 129.926 23.400 130.966 22.600 131.846C19.640 135.126 18.680 140.126 18.680 144.286C18.680 146.606 18.960 149.206 19.240 150.846C19.320 151.326 19.360 151.406 18.880 151.806C16.320 153.926 13.560 156.366 11.480 158.926C8.720 162.366 7 166.086 7 170.366C7 177.326 11.760 183.926 21.560 183.926C22.480 183.926 23.520 183.846 24.320 183.686C24.760 183.606 24.840 183.566 24.920 184.046C25.400 186.726 26 190.206 26 192.086C26 198.006 22 198.726 19.640 198.726C17.480 198.726 16.440 198.086 16.440 197.566C16.440 197.126 16.800 197.166 17.720 196.886C18.960 196.526 20.400 195.446 20.400 193.126C20.400 190.926 19 189.046 16.560 189.046C13.880 189.046 12.280 191.166 12.280 193.646C12.280 196.246 13.840 200.166 19.880 200.166C22.560 200.166 27.760 198.966 27.760 192.166C27.760 189.886 27.040 186.086 26.600 183.606C26.520 183.126 26.560 183.166 27.120 182.926C31.160 181.326 33.840 177.926 33.840 173.406C33.840 168.286 30.080 163.766 24.200 163.766C23.080 163.766 23.200 163.966 23.040 163.046L22.040 157.246C21.960 156.766 22.040 156.726 22.280 156.486C22.920 155.886 23.760 155.046 24.520 154.206C27.880 150.526 29.880 145.766 29.880 141.246C29.880 137.766 28.920 134.326 27.280 131.926C26.680 131.046 25.640 129.926 25.200 129.926ZM20.040 158.086C20.440 157.766 20.520 157.806 20.600 158.246L21.440 163.366C21.560 164.126 21.560 164.086 20.840 164.326C17.320 165.526 15.040 168.686 15.040 172.086C15.040 175.686 16.920 178.246 19.640 179.166C19.960 179.286 20.440 179.406 20.720 179.406C21.040 179.406 21.200 179.206 21.200 178.966C21.200 178.686 20.880 178.566 20.600 178.446C18.920 177.726 17.720 176.006 17.720 174.166C17.720 171.886 19.280 170.166 21.720 169.486C22.360 169.326 22.440 169.366 22.520 169.806L24.520 181.726C24.600 182.166 24.560 182.166 23.960 182.286C23.320 182.406 22.520 182.486 21.720 182.486C14.720 182.486 10.200 178.606 10.200 173.046C10.200 170.686 10.600 167.526 13.920 163.766C16.320 161.086 18.160 159.606 20.040 158.086ZM24.640 169.166C27.880 169.446 30.560 172.166 30.560 175.686C30.560 178.206 29.040 180.246 26.800 181.366C26.320 181.606 26.240 181.606 26.160 181.126L24.200 169.726C24.120 169.246 24.160 169.126 24.640 169.166ZM25.800 136.126C27.120 136.126 28.200 137.206 28.200 139.406C28.200 142.166 26.880 144.726 23.760 147.846C23.120 148.486 22.160 149.406 21.240 150.206C20.960 150.446 20.800 150.406 20.720 149.886C20.560 148.846 20.480 147.486 20.480 146.206C20.480 139.966 23.360 136.126 25.800 136.126Z"></path></g><g></g><g><g><path d="M56.380 143.926C56.180 143.926 55.980 143.886 55.780 143.886C52.340 143.886 48.900 146.166 48.900 148.286C48.900 149.606 49.660 151.366 52.140 151.526L52.340 151.526C54.100 151.526 54.980 150.246 54.980 148.926L54.980 148.606C54.860 147.126 53.860 147.046 53.660 146.966C53.460 146.886 52.860 146.966 52.860 146.406L52.860 146.246C52.940 145.566 54.180 145.246 54.540 145.246C57.940 145.246 58.260 147.366 58.260 148.326L58.260 148.606C58.260 151.566 55.900 152.726 53.380 152.846C52.980 152.886 52.420 153.086 52.420 153.526C52.420 154.006 53.100 154.006 53.420 154.006C58.020 154.006 58.380 157.126 58.380 157.646C58.380 161.886 56.220 162.366 55.340 162.366C55.180 162.366 55.020 162.326 54.980 162.326C54.660 162.286 53.900 162.286 53.860 161.686L53.860 161.486C53.860 160.606 54.740 160.006 54.780 158.846C54.780 158.446 54.740 158.006 54.580 157.606C54.140 156.606 52.980 155.966 51.900 155.966C51.740 155.966 51.620 155.966 51.460 156.006C50.780 156.126 50.020 156.526 49.540 157.046C48.860 157.646 48.660 158.606 48.660 159.486C48.740 162.606 51.580 163.806 55.500 163.886L55.860 163.886C59.820 163.886 63.900 161.846 63.900 158.326L63.900 158.046C63.860 157.486 63.780 156.926 63.540 156.406C63.380 156.006 63.100 155.606 62.780 155.246C62.540 154.926 62.220 154.646 61.820 154.406L60.980 153.926L59.660 153.566C59.460 153.526 59.340 153.526 59.260 153.366C59.220 153.286 59.220 153.246 59.220 153.166C59.220 153.006 59.260 152.846 59.380 152.806C59.820 152.686 60.260 152.646 60.620 152.446C61.220 152.166 61.740 151.886 62.180 151.366C62.820 150.646 63.060 149.726 63.060 148.806C63.060 145.126 58.060 144.046 56.380 143.926Z"></path></g><g><path d="M65.180 176.806L62.260 176.806L62.260 168.246C62.260 167.926 62.220 167.566 61.780 167.566C61.420 167.566 61.220 167.646 60.980 167.926L57.180 172.526C57.020 172.726 56.820 172.966 56.820 173.446C56.820 173.446 56.820 175.046 56.820 176.806L51.420 176.806C54.620 174.086 61.020 165.006 61.140 164.566C61.140 164.486 61.180 164.446 61.180 164.366C61.180 164.046 60.900 163.806 60.580 163.806C60.220 163.806 58.580 163.886 57.860 163.886C57.140 163.886 55.340 163.806 55.020 163.806C54.660 163.806 54.100 163.926 54.100 164.566C54.100 169.526 50.180 175.086 48.980 176.766L48.740 177.086C48.740 177.126 48.700 177.166 48.700 177.206C48.620 177.366 48.580 177.526 48.580 177.646C48.580 178.046 48.900 178.326 49.380 178.326L56.820 178.326L56.820 180.846C56.820 181.926 55.940 182.246 55.220 182.246C54.580 182.246 54.300 182.606 54.300 183.006C54.300 183.406 54.460 183.846 55.060 183.846C55.700 183.846 63.580 183.846 63.580 183.846C63.980 183.846 64.380 183.566 64.380 183.006C64.380 182.446 63.900 182.206 63.500 182.206C63.100 182.206 62.260 181.966 62.260 180.686L62.260 178.326C63.980 178.326 65.180 178.326 65.180 178.326C65.580 178.326 65.780 178.046 65.780 177.566C65.780 177.086 65.620 176.806 65.180 176.806Z"></path></g></g></g><g><line stroke="black" stroke-width="1.6" x1="364.28619519243966" x2="364.28619519243966" y1="143.8461538461538" y2="183.8461538461538"></line></g><g><g><path d="M93.360 174.486C97.360 174.486 102.280 170.766 102.280 166.966C102.280 164.686 100.480 163.206 97.880 163.206C92.960 163.206 89 166.846 89 170.726C89 173.086 90.920 174.486 93.360 174.486Z"></path></g><line stroke="#000000" stroke-width="1.2" x1="101.68" x2="101.68" y1="167.0061538461538" y2="132.0061538461538"></line><g><polygon fill="black" points="101.68,136.8461538461538 132.1784661324933,136.8461538461538 132.1784661324933,131.8461538461538 101.68,131.8461538461538" stroke="black" stroke-width="0"></polygon><polygon fill="black" points="132.1784661324933,136.8461538461538 162.6769322649866,136.8461538461538 162.6769322649866,131.8461538461538 132.1784661324933,131.8461538461538" stroke="black" stroke-width="0"></polygon><g><polygon fill="white" points="120.2584661324933,114.0461538461538 120.2584661324933,128.7261538461538 144.0984661324933,128.7261538461538 144.0984661324933,114.0461538461538" stroke="white" stroke-width="0"></polygon><path d="M129.658 128.326C128.858 128.326 128.218 128.006 128.218 127.606C128.218 127.366 128.418 127.286 128.738 127.126C129.178 126.926 129.738 126.446 129.738 125.406C129.738 124.446 129.058 123.966 128.218 123.966C127.098 123.966 126.258 124.966 126.258 126.286C126.258 127.886 127.538 129.366 130.378 129.366C133.778 129.366 136.578 127.326 136.578 124.166C136.578 123.166 136.058 122.206 135.018 121.686C134.738 121.566 134.578 121.526 134.578 121.326C134.578 121.126 134.738 121.126 135.058 120.966C136.738 120.286 138.098 119.006 138.098 117.406C138.098 115.326 136.098 114.046 133.658 114.046C131.138 114.046 129.058 115.366 128.978 117.526C128.938 118.566 129.578 119.246 130.498 119.246C131.498 119.246 132.298 118.446 132.298 117.366C132.298 116.926 132.138 116.606 131.938 116.366C131.658 116.126 131.458 116.086 131.458 115.846C131.458 115.566 131.938 115.286 132.778 115.286C134.338 115.286 134.858 116.246 134.858 117.126C134.858 119.246 133.498 120.766 131.178 120.766L130.738 120.766C130.218 120.766 129.938 121.006 129.938 121.366C129.938 121.726 130.218 121.966 130.738 121.966L131.138 121.966C132.618 121.966 133.338 122.846 133.338 124.126C133.338 125.886 132.098 128.326 129.658 128.326Z"></path></g></g><path d="M96.820 179.526C96.820 178.606 96.060 177.846 95.140 177.846C94.220 177.846 93.460 178.606 93.460 179.526C93.460 180.446 94.220 181.206 95.140 181.206C96.060 181.206 96.820 180.446 96.820 179.526Z"></path></g><g><g><path d="M123.858 174.486C127.858 174.486 132.778 170.766 132.778 166.966C132.778 164.686 130.978 163.206 128.378 163.206C123.458 163.206 119.498 166.846 119.498 170.726C119.498 173.086 121.418 174.486 123.858 174.486Z"></path></g><line stroke="#000000" stroke-width="1.2" x1="132.1784661324933" x2="132.1784661324933" y1="167.0061538461538" y2="132.0061538461538"></line><path d="M127.318 179.526C127.318 178.606 126.558 177.846 125.638 177.846C124.718 177.846 123.958 178.606 123.958 179.526C123.958 180.446 124.718 181.206 125.638 181.206C126.558 181.206 127.318 180.446 127.318 179.526Z"></path></g><g><g><path d="M154.357 174.486C158.357 174.486 163.277 170.766 163.277 166.966C163.277 164.686 161.477 163.206 158.877 163.206C153.957 163.206 149.997 166.846 149.997 170.726C149.997 173.086 151.917 174.486 154.357 174.486Z"></path></g><line stroke="#000000" stroke-width="1.2" x1="162.6769322649866" x2="162.6769322649866" y1="167.0061538461538" y2="132.0061538461538"></line><path d="M157.817 179.526C157.817 178.606 157.057 177.846 156.137 177.846C155.217 177.846 154.457 178.606 154.457 179.526C154.457 180.446 155.217 181.206 156.137 181.206C157.057 181.206 157.817 180.446 157.817 179.526Z"></path></g><g><g><path d="M184.855 174.486C188.855 174.486 193.775 170.766 193.775 166.966C193.775 164.686 191.975 163.206 189.375 163.206C184.455 163.206 180.495 166.846 180.495 170.726C180.495 173.086 182.415 174.486 184.855 174.486Z"></path></g><line stroke="#000000" stroke-width="1.2" x1="193.17539839747988" x2="193.17539839747988" y1="167.0061538461538" y2="132.0061538461538"></line><g><polygon fill="black" points="193.17539839747988,136.8461538461538 223.6738645299732,136.8461538461538 223.6738645299732,131.8461538461538 193.17539839747988,131.8461538461538" stroke="black" stroke-width="0"></polygon><polygon fill="black" points="223.6738645299732,136.8461538461538 254.1723306624665,136.8461538461538 254.1723306624665,131.8461538461538 223.6738645299732,131.8461538461538" stroke="black" stroke-width="0"></polygon><g><polygon fill="white" points="211.75386452997319,114.0461538461538 211.75386452997319,128.7261538461538 235.59386452997316,128.7261538461538 235.59386452997316,114.0461538461538" stroke="white" stroke-width="0"></polygon><path d="M221.154 128.326C220.354 128.326 219.714 128.006 219.714 127.606C219.714 127.366 219.914 127.286 220.234 127.126C220.674 126.926 221.234 126.446 221.234 125.406C221.234 124.446 220.554 123.966 219.714 123.966C218.594 123.966 217.754 124.966 217.754 126.286C217.754 127.886 219.034 129.366 221.874 129.366C225.274 129.366 228.074 127.326 228.074 124.166C228.074 123.166 227.554 122.206 226.514 121.686C226.234 121.566 226.074 121.526 226.074 121.326C226.074 121.126 226.234 121.126 226.554 120.966C228.234 120.286 229.594 119.006 229.594 117.406C229.594 115.326 227.594 114.046 225.154 114.046C222.634 114.046 220.554 115.366 220.474 117.526C220.434 118.566 221.074 119.246 221.994 119.246C222.994 119.246 223.794 118.446 223.794 117.366C223.794 116.926 223.634 116.606 223.434 116.366C223.154 116.126 222.954 116.086 222.954 115.846C222.954 115.566 223.434 115.286 224.274 115.286C225.834 115.286 226.354 116.246 226.354 117.126C226.354 119.246 224.994 120.766 222.674 120.766L222.234 120.766C221.714 120.766 221.434 121.006 221.434 121.366C221.434 121.726 221.714 121.966 222.234 121.966L222.634 121.966C224.114 121.966 224.834 122.846 224.834 124.126C224.834 125.886 223.594 128.326 221.154 128.326Z"></path></g></g><path d="M188.315 179.526C188.315 178.606 187.555 177.846 186.635 177.846C185.715 177.846 184.955 178.606 184.955 179.526C184.955 180.446 185.715 181.206 186.635 181.206C187.555 181.206 188.315 180.446 188.315 179.526Z"></path></g><g><g><path d="M215.354 174.486C219.354 174.486 224.274 170.766 224.274 166.966C224.274 164.686 222.474 163.206 219.874 163.206C214.954 163.206 210.994 166.846 210.994 170.726C210.994 173.086 212.914 174.486 215.354 174.486Z"></path></g><line stroke="#000000" stroke-width="1.2" x1="223.6738645299732" x2="223.6738645299732" y1="167.0061538461538" y2="132.0061538461538"></line><path d="M218.814 179.526C218.814 178.606 218.054 177.846 217.134 177.846C216.214 177.846 215.454 178.606 215.454 179.526C215.454 180.446 216.214 181.206 217.134 181.206C218.054 181.206 218.814 180.446 218.814 179.526Z"></path></g><g><g><path d="M245.852 174.486C249.852 174.486 254.772 170.766 254.772 166.966C254.772 164.686 252.972 163.206 250.372 163.206C245.452 163.206 241.492 166.846 241.492 170.726C241.492 173.086 243.412 174.486 245.852 174.486Z"></path></g><line stroke="#000000" stroke-width="1.2" x1="254.1723306624665" x2="254.1723306624665" y1="167.0061538461538" y2="132.0061538461538"></line><path d="M249.312 179.526C249.312 178.606 248.552 177.846 247.632 177.846C246.712 177.846 245.952 178.606 245.952 179.526C245.952 180.446 246.712 181.206 247.632 181.206C248.552 181.206 249.312 180.446 249.312 179.526Z"></path></g><g><g><path d="M276.351 174.486C280.351 174.486 285.271 170.766 285.271 166.966C285.271 164.686 283.471 163.206 280.871 163.206C275.951 163.206 271.991 166.846 271.991 170.726C271.991 173.086 273.911 174.486 276.351 174.486Z"></path></g><line stroke="#000000" stroke-width="1.2" x1="284.67079679495976" x2="284.67079679495976" y1="167.0061538461538" y2="132.0061538461538"></line><g><polygon fill="black" points="284.67079679495976,136.8461538461538 315.169262927453,136.8461538461538 315.169262927453,131.8461538461538 284.67079679495976,131.8461538461538" stroke="black" stroke-width="0"></polygon><polygon fill="black" points="315.169262927453,136.8461538461538 345.6677290599464,136.8461538461538 345.6677290599464,131.8461538461538 315.169262927453,131.8461538461538" stroke="black" stroke-width="0"></polygon><g><polygon fill="white" points="303.24926292745306,114.0461538461538 303.24926292745306,128.7261538461538 327.0892629274531,128.7261538461538 327.0892629274531,114.0461538461538" stroke="white" stroke-width="0"></polygon><path d="M312.649 128.326C311.849 128.326 311.209 128.006 311.209 127.606C311.209 127.366 311.409 127.286 311.729 127.126C312.169 126.926 312.729 126.446 312.729 125.406C312.729 124.446 312.049 123.966 311.209 123.966C310.089 123.966 309.249 124.966 309.249 126.286C309.249 127.886 310.529 129.366 313.369 129.366C316.769 129.366 319.569 127.326 319.569 124.166C319.569 123.166 319.049 122.206 318.009 121.686C317.729 121.566 317.569 121.526 317.569 121.326C317.569 121.126 317.729 121.126 318.049 120.966C319.729 120.286 321.089 119.006 321.089 117.406C321.089 115.326 319.089 114.046 316.649 114.046C314.129 114.046 312.049 115.366 311.969 117.526C311.929 118.566 312.569 119.246 313.489 119.246C314.489 119.246 315.289 118.446 315.289 117.366C315.289 116.926 315.129 116.606 314.929 116.366C314.649 116.126 314.449 116.086 314.449 115.846C314.449 115.566 314.929 115.286 315.769 115.286C317.329 115.286 317.849 116.246 317.849 117.126C317.849 119.246 316.489 120.766 314.169 120.766L313.729 120.766C313.209 120.766 312.929 121.006 312.929 121.366C312.929 121.726 313.209 121.966 313.729 121.966L314.129 121.966C315.609 121.966 316.329 122.846 316.329 124.126C316.329 125.886 315.089 128.326 312.649 128.326Z"></path></g></g><path d="M279.811 179.526C279.811 178.606 279.051 177.846 278.131 177.846C277.211 177.846 276.451 178.606 276.451 179.526C276.451 180.446 277.211 181.206 278.131 181.206C279.051 181.206 279.811 180.446 279.811 179.526Z"></path></g><g><g><path d="M306.849 174.486C310.849 174.486 315.769 170.766 315.769 166.966C315.769 164.686 313.969 163.206 311.369 163.206C306.449 163.206 302.489 166.846 302.489 170.726C302.489 173.086 304.409 174.486 306.849 174.486Z"></path></g><line stroke="#000000" stroke-width="1.2" x1="315.1692629274531" x2="315.1692629274531" y1="167.0061538461538" y2="132.0061538461538"></line><path d="M310.309 179.526C310.309 178.606 309.549 177.846 308.629 177.846C307.709 177.846 306.949 178.606 306.949 179.526C306.949 180.446 307.709 181.206 308.629 181.206C309.549 181.206 310.309 180.446 310.309 179.526Z"></path></g><g><g><path d="M337.348 174.486C341.348 174.486 346.268 170.766 346.268 166.966C346.268 164.686 344.468 163.206 341.868 163.206C336.948 163.206 332.988 166.846 332.988 170.726C332.988 173.086 334.908 174.486 337.348 174.486Z"></path></g><line stroke="#000000" stroke-width="1.2" x1="345.6677290599464" x2="345.6677290599464" y1="167.0061538461538" y2="132.0061538461538"></line><path d="M340.808 179.526C340.808 178.606 340.048 177.846 339.128 177.846C338.208 177.846 337.448 178.606 337.448 179.526C337.448 180.446 338.208 181.206 339.128 181.206C340.048 181.206 340.808 180.446 340.808 179.526Z"></path></g></g><g transform="translate(473.93234903859354)"><g></g><g><line stroke="black" stroke-width="1.6" x1="204.2216937015271" x2="204.2216937015271" y1="143.8461538461538" y2="183.8461538461538"></line></g><g><g><path d="M4.360 179.486C8.360 179.486 13.280 175.766 13.280 171.966C13.280 169.686 11.480 168.206 8.880 168.206C3.960 168.206 0 171.846 0 175.726C0 178.086 1.920 179.486 4.360 179.486Z"></path><g><circle cx="19.28" cy="168.8461538461538" r="2.4"></circle></g></g><g><line stroke="#000000" stroke-width="1.2" x1="12.680000000000001" x2="12.680000000000001" y1="172.0061538461538" y2="NaN"></line><path d="M18.680NaNL18.680NaNL6.680NaNL6.680NaNZ"></path></g><g><g><polygon fill="white" points="0.7599999999999998,NaN 0.7599999999999998,NaN 24.6,NaN 24.6,NaN" stroke="white" stroke-width="0"></polygon><path d="M10.160NaNC9.360NaN 8.720NaN 8.720NaNC8.720NaN 8.920NaN 9.240NaNC9.680NaN 10.240NaN 10.240NaNC10.240NaN 9.560NaN 8.720NaNC7.600NaN 6.760NaN 6.760NaNC6.760NaN 8.040NaN 10.880NaNC14.280NaN 17.080NaN 17.080NaNC17.080NaN 16.560NaN 15.520NaNC15.240NaN 15.080NaN 15.080NaNC15.080NaN 15.240NaN 15.560NaNC17.240NaN 18.600NaN 18.600NaNC18.600NaN 16.600NaN 14.160NaNC11.640NaN 9.560NaN 9.480NaNC9.440NaN 10.080NaN 11NaNC12NaN 12.800NaN 12.800NaNC12.800NaN 12.640NaN 12.440NaNC12.160NaN 11.960NaN 11.960NaNC11.960NaN 12.440NaN 13.280NaNC14.840NaN 15.360NaN 15.360NaNC15.360NaN 14NaN 11.680NaNL11.240NaNC10.720NaN 10.440NaN 10.440NaNC10.440NaN 10.720NaN 11.240NaNL11.640NaNC13.120NaN 13.840NaN 13.840NaNC13.840NaN 12.600NaN 10.160NaNZ"></path></g></g></g><g><g><path d="M72.167 179.486C76.167 179.486 81.087 175.766 81.087 171.966C81.087 169.686 79.287 168.206 76.687 168.206C71.767 168.206 67.807 171.846 67.807 175.726C67.807 178.086 69.727 179.486 72.167 179.486Z"></path><g><circle cx="87.08723123384236" cy="168.8461538461538" r="2.4"></circle></g></g><g><line stroke="#000000" stroke-width="1.2" x1="80.48723123384237" x2="80.48723123384237" y1="172.0061538461538" y2="NaN"></line><path d="M86.487NaNL86.487NaNL74.487NaNL74.487NaNZ"></path></g><g><g><polygon fill="white" points="68.56723123384236,NaN 68.56723123384236,NaN 92.40723123384237,NaN 92.40723123384237,NaN" stroke="white" stroke-width="0"></polygon><path d="M77.967NaNC77.167NaN 76.527NaN 76.527NaNC76.527NaN 76.727NaN 77.047NaNC77.487NaN 78.047NaN 78.047NaNC78.047NaN 77.367NaN 76.527NaNC75.407NaN 74.567NaN 74.567NaNC74.567NaN 75.847NaN 78.687NaNC82.087NaN 84.887NaN 84.887NaNC84.887NaN 84.367NaN 83.327NaNC83.047NaN 82.887NaN 82.887NaNC82.887NaN 83.047NaN 83.367NaNC85.047NaN 86.407NaN 86.407NaNC86.407NaN 84.407NaN 81.967NaNC79.447NaN 77.367NaN 77.287NaNC77.247NaN 77.887NaN 78.807NaNC79.807NaN 80.607NaN 80.607NaNC80.607NaN 80.447NaN 80.247NaNC79.967NaN 79.767NaN 79.767NaNC79.767NaN 80.247NaN 81.087NaNC82.647NaN 83.167NaN 83.167NaNC83.167NaN 81.807NaN 79.487NaNL79.047NaNC78.527NaN 78.247NaN 78.247NaNC78.247NaN 78.527NaN 79.047NaNL79.447NaNC80.927NaN 81.647NaN 81.647NaNC81.647NaN 80.407NaN 77.967NaNZ"></path></g></g></g><g><g><path d="M139.974 179.486C143.974 179.486 148.894 175.766 148.894 171.966C148.894 169.686 147.094 168.206 144.494 168.206C139.574 168.206 135.614 171.846 135.614 175.726C135.614 178.086 137.534 179.486 139.974 179.486Z"></path><g><circle cx="154.89446246768472" cy="168.8461538461538" r="2.4"></circle></g></g><g><line stroke="#000000" stroke-width="1.2" x1="148.29446246768472" x2="148.29446246768472" y1="172.0061538461538" y2="NaN"></line><path d="M154.294NaNL154.294NaNL142.294NaNL142.294NaNZ"></path></g><g><g><polygon fill="white" points="136.37446246768474,NaN 136.37446246768474,NaN 160.2144624676847,NaN 160.2144624676847,NaN" stroke="white" stroke-width="0"></polygon><path d="M145.774NaNC144.974NaN 144.334NaN 144.334NaNC144.334NaN 144.534NaN 144.854NaNC145.294NaN 145.854NaN 145.854NaNC145.854NaN 145.174NaN 144.334NaNC143.214NaN 142.374NaN 142.374NaNC142.374NaN 143.654NaN 146.494NaNC149.894NaN 152.694NaN 152.694NaNC152.694NaN 152.174NaN 151.134NaNC150.854NaN 150.694NaN 150.694NaNC150.694NaN 150.854NaN 151.174NaNC152.854NaN 154.214NaN 154.214NaNC154.214NaN 152.214NaN 149.774NaNC147.254NaN 145.174NaN 145.094NaNC145.054NaN 145.694NaN 146.614NaNC147.614NaN 148.414NaN 148.414NaNC148.414NaN 148.254NaN 148.054NaNC147.774NaN 147.574NaN 147.574NaNC147.574NaN 148.054NaN 148.894NaNC150.454NaN 150.974NaN 150.974NaNC150.974NaN 149.614NaN 147.294NaNL146.854NaNC146.334NaN 146.054NaN 146.054NaNC146.054NaN 146.334NaN 146.854NaNL147.254NaNC148.734NaN 149.454NaN 149.454NaNC149.454NaN 148.214NaN 145.774NaNZ"></path></g></g></g></g><g transform="translate(693.9540427401206)"><g></g><g><line stroke="black" stroke-width="1.6" x1="156.16809391770553" x2="156.16809391770553" y1="143.8461538461538" y2="183.8461538461538"></line></g><g><g><path d="M4.480 179.646C12.120 179.646 13.640 173.446 13.640 171.926C13.640 169.566 11.760 168.046 9.080 168.046C2.160 168.046 0 173.406 0 175.806C0 178.246 1.960 179.646 4.480 179.646ZM8 175.966C5.920 177.366 4.480 177.846 3.480 177.846C2.520 177.846 1.960 177.366 1.640 176.806C1.480 176.526 1.360 176.206 1.360 175.886C1.360 174.886 2.360 173.606 5.560 171.766C7.840 170.446 9.280 169.966 10.240 169.966C11.120 169.966 11.600 170.366 11.920 170.926C12.080 171.206 12.200 171.486 12.200 171.806C12.200 172.726 11.240 173.846 8 175.966Z"></path><g><circle cx="19.64" cy="168.8461538461538" r="2.4"></circle></g></g><g><line stroke="#000000" stroke-width="1.2" x1="13.040000000000001" x2="13.040000000000001" y1="171.92615384615382" y2="NaN"></line><path d="M19.040NaNL19.040NaNL7.040NaNL7.040NaNZ"></path></g><g><g><polygon fill="white" points="0.5999999999999996,NaN 0.5999999999999996,NaN 24.759999999999998,NaN 24.759999999999998,NaN" stroke="white" stroke-width="0"></polygon><path d="M15.360NaNC16.120NaN 16.760NaN 16.760NaNC16.760NaN 16.400NaN 16.200NaNC15.600NaN 15.120NaN 15.120NaNC15.120NaN 15.920NaN 16.800NaNC17.960NaN 18.760NaN 18.760NaNC18.760NaN 17.320NaN 14.960NaNC11.520NaN 8.760NaN 7.320NaNC5.880NaN 6.360NaN 11.320NaNC14.240NaN 17.520NaN 17.520NaNC17.520NaN 16.280NaN 13.960NaNC12.880NaN 11.920NaN 11.120NaNC10.760NaN 10.400NaN 10.640NaNC11.480NaN 13NaN 15.360NaNZM12.800NaNC13.960NaN 14.280NaN 14.280NaNC14.280NaN 12.760NaN 11.200NaNC9.320NaN 9.440NaN 9.720NaNC10.120NaN 11.400NaN 12.800NaNZ"></path></g></g></g><g><g><path d="M91.921 179.486C95.921 179.486 100.841 175.766 100.841 171.966C100.841 169.686 99.041 168.206 96.441 168.206C91.521 168.206 87.561 171.846 87.561 175.726C87.561 178.086 89.481 179.486 91.921 179.486Z"></path><g><circle cx="106.84086268386318" cy="168.8461538461538" r="2.4"></circle></g></g><g><line stroke="#000000" stroke-width="1.2" x1="100.24086268386318" x2="100.24086268386318" y1="172.0061538461538" y2="NaN"></line><path d="M106.241NaNL106.241NaNL94.241NaNL94.241NaNZ"></path></g><g><g><polygon fill="white" points="88.32086268386318,NaN 88.32086268386318,NaN 112.16086268386319,NaN 112.16086268386319,NaN" stroke="white" stroke-width="0"></polygon><path d="M97.721NaNC96.921NaN 96.281NaN 96.281NaNC96.281NaN 96.481NaN 96.801NaNC97.241NaN 97.801NaN 97.801NaNC97.801NaN 97.121NaN 96.281NaNC95.161NaN 94.321NaN 94.321NaNC94.321NaN 95.601NaN 98.441NaNC101.841NaN 104.641NaN 104.641NaNC104.641NaN 104.121NaN 103.081NaNC102.801NaN 102.641NaN 102.641NaNC102.641NaN 102.801NaN 103.121NaNC104.801NaN 106.161NaN 106.161NaNC106.161NaN 104.161NaN 101.721NaNC99.201NaN 97.121NaN 97.041NaNC97.001NaN 97.641NaN 98.561NaNC99.561NaN 100.361NaN 100.361NaNC100.361NaN 100.201NaN 100.001NaNC99.721NaN 99.521NaN 99.521NaNC99.521NaN 100.001NaN 100.841NaNC102.401NaN 102.921NaN 102.921NaNC102.921NaN 101.561NaN 99.241NaNL98.801NaNC98.281NaN 98.001NaN 98.001NaNC98.001NaN 98.281NaN 98.801NaNL99.201NaNC100.681NaN 101.401NaN 101.401NaNC101.401NaN 100.161NaN 97.721NaNZ"></path></g></g></g></g><g transform="translate(865.9221366578262)"><g></g><path d="M87.935 225.366C87.735 225.366 87.575 225.406 87.455 225.446C87.095 225.566 86.695 225.806 86.455 226.086C86.055 226.566 85.815 227.246 85.815 227.886C85.815 228.606 86.055 229.286 86.535 229.766C86.775 230.006 87.135 230.246 87.415 230.366C87.815 230.486 88.295 230.566 88.735 230.566C89.895 230.566 91.055 230.086 92.015 229.446C93.255 228.646 94.175 227.526 95.015 226.206C95.615 225.286 96.015 224.286 96.455 223.286L96.615 222.966C97.055 221.966 97.415 220.926 97.775 219.926L98.615 217.606C98.895 216.846 99.175 216.006 99.535 215.286C100.055 214.286 100.055 214.286 101.415 214.286C103.055 214.286 103.055 214.286 103.055 214.286C103.815 214.286 103.815 214.246 103.815 213.366C103.815 212.526 103.815 212.526 103.095 212.526C101.735 212.526 101.735 212.526 101.735 212.526C100.855 212.526 100.495 212.526 100.495 212.126C100.495 211.886 100.615 211.446 100.855 210.806C101.615 208.766 102.255 207.046 104.695 206.926L104.855 206.926C105.015 206.926 105.175 206.966 105.215 207.166C105.215 207.446 105.215 207.566 105.095 207.646C104.975 207.766 104.775 207.806 104.655 207.846C104.295 208.006 104.055 208.286 103.895 208.566C103.655 208.886 103.535 209.286 103.535 209.686C103.535 210.846 104.135 211.166 105.015 211.166C105.855 211.166 107.175 209.926 107.255 208.446C107.255 206.886 106.255 205.726 104.255 205.646L104.015 205.646C101.735 205.646 100.095 206.566 98.855 207.806C97.535 209.166 96.935 210.126 96.335 211.566C95.975 212.486 95.855 212.526 94.975 212.526L93.095 212.526C92.095 212.526 92.015 212.646 92.015 213.366C92.015 214.286 92.015 214.286 92.735 214.286C94.095 214.286 94.095 214.286 94.095 214.286C94.575 214.286 94.775 214.286 94.775 214.646C94.775 214.886 94.655 215.366 94.415 216.246C94.335 216.566 91.935 225.446 91.695 226.086C91.335 227.006 90.695 227.926 89.935 228.566C89.735 228.726 89.535 228.886 89.255 228.966C89.095 229.046 88.935 229.046 88.815 229.046C88.455 229.046 88.255 228.926 88.215 228.926C88.775 228.806 89.135 228.446 89.255 228.366C89.495 228.086 89.695 227.646 89.695 227.246C89.695 226.646 89.455 225.926 88.935 225.646C88.655 225.486 88.295 225.366 87.935 225.366ZM102.615 217.806C102.615 217.806 102.415 218.046 102.415 218.286C102.415 218.446 102.495 218.606 102.695 218.726C102.735 218.766 102.815 218.766 102.855 218.766C103.215 218.766 103.415 218.286 103.415 218.286C103.415 218.286 105.095 215.166 106.335 214.446C106.535 214.326 106.735 214.326 106.855 214.326C107.175 214.326 107.295 214.646 107.295 215.046C107.295 215.406 107.175 215.846 107.135 215.966C107.135 215.966 102.135 227.566 102.015 227.766C101.895 228.086 101.615 228.166 101.295 228.166L99.495 228.166C99.095 228.166 98.855 228.406 98.855 228.686C98.855 228.926 99.095 229.206 99.495 229.206L107.775 229.206C108.215 229.206 108.375 228.926 108.375 228.646C108.375 228.406 108.215 228.166 107.855 228.166L106.575 228.166C106.295 228.166 106.095 228.086 106.095 227.846C106.095 227.686 106.175 227.526 106.295 227.246C106.575 226.526 107.895 223.286 107.895 223.286C108.055 222.806 108.175 222.646 108.335 222.646C108.495 222.646 108.695 222.846 108.975 223.126C109.775 223.726 110.975 223.806 111.495 223.806L111.655 223.806C114.615 223.806 116.735 220.526 117.215 219.566C117.495 218.966 117.935 217.766 117.935 216.446C117.935 215.486 117.695 214.446 117.015 213.566C116.535 212.886 115.855 212.646 115.095 212.646C113.415 212.646 111.455 213.846 110.855 214.566C110.735 214.766 110.615 214.806 110.535 214.806C110.375 214.806 110.295 214.646 110.135 214.286L110.055 214.166C109.575 213.206 108.895 212.766 107.895 212.766C107.695 212.766 107.455 212.766 107.255 212.806C105.535 213.046 103.255 216.686 102.615 217.806ZM113.855 214.166C114.215 214.326 114.375 214.846 114.375 215.526C114.375 216.446 114.055 217.726 113.455 219.006C112.535 221.046 111.135 222.486 110.295 222.486C110.175 222.486 110.095 222.486 110.015 222.446C109.655 222.246 109.455 221.766 109.455 221.086C109.455 220.166 109.775 218.886 110.375 217.566C111.335 215.526 112.695 214.126 113.535 214.126C113.655 214.126 113.735 214.126 113.855 214.166Z"></path><g><line stroke="black" stroke-width="1.6" x1="179.85626108134306" x2="179.85626108134306" y1="143.8461538461538" y2="183.8461538461538"></line></g><g><g><path d="M4.360 184.486C8.360 184.486 13.280 180.766 13.280 176.966C13.280 174.686 11.480 173.206 8.880 173.206C3.960 173.206 0 176.846 0 180.726C0 183.086 1.920 184.486 4.360 184.486Z"></path></g><line stroke="#000000" stroke-width="1.2" x1="12.680000000000001" x2="12.680000000000001" y1="177.0061538461538" y2="142.0061538461538"></line><g><polygon fill="black" points="12.680000000000001,146.8461538461538 43.17846613249329,141.8461538461538 43.17846613249329,136.8461538461538 12.680000000000001,141.8461538461538" stroke="black" stroke-width="0"></polygon><polygon fill="black" points="43.17846613249329,141.8461538461538 73.67693226498659,136.8461538461538 73.67693226498659,131.8461538461538 43.17846613249329,136.8461538461538" stroke="black" stroke-width="0"></polygon><g><polygon fill="white" points="31.258466132493297,119.0461538461538 31.258466132493297,133.7261538461538 55.0984661324933,133.7261538461538 55.0984661324933,119.0461538461538" stroke="white" stroke-width="0"></polygon><path d="M40.658 133.326C39.858 133.326 39.218 133.006 39.218 132.606C39.218 132.366 39.418 132.286 39.738 132.126C40.178 131.926 40.738 131.446 40.738 130.406C40.738 129.446 40.058 128.966 39.218 128.966C38.098 128.966 37.258 129.966 37.258 131.286C37.258 132.886 38.538 134.366 41.378 134.366C44.778 134.366 47.578 132.326 47.578 129.166C47.578 128.166 47.058 127.206 46.018 126.686C45.738 126.566 45.578 126.526 45.578 126.326C45.578 126.126 45.738 126.126 46.058 125.966C47.738 125.286 49.098 124.006 49.098 122.406C49.098 120.326 47.098 119.046 44.658 119.046C42.138 119.046 40.058 120.366 39.978 122.526C39.938 123.566 40.578 124.246 41.498 124.246C42.498 124.246 43.298 123.446 43.298 122.366C43.298 121.926 43.138 121.606 42.938 121.366C42.658 121.126 42.458 121.086 42.458 120.846C42.458 120.566 42.938 120.286 43.778 120.286C45.338 120.286 45.858 121.246 45.858 122.126C45.858 124.246 44.498 125.766 42.178 125.766L41.738 125.766C41.218 125.766 40.938 126.006 40.938 126.366C40.938 126.726 41.218 126.966 41.738 126.966L42.138 126.966C43.618 126.966 44.338 127.846 44.338 129.126C44.338 130.886 43.098 133.326 40.658 133.326Z"></path></g></g></g><g><g><path d="M34.858 174.486C38.858 174.486 43.778 170.766 43.778 166.966C43.778 164.686 41.978 163.206 39.378 163.206C34.458 163.206 30.498 166.846 30.498 170.726C30.498 173.086 32.418 174.486 34.858 174.486Z"></path></g><line stroke="#000000" stroke-width="1.2" x1="43.1784661324933" x2="43.1784661324933" y1="167.0061538461538" y2="137.0061538461538"></line></g><g><g><path d="M65.357 174.486C69.357 174.486 74.277 170.766 74.277 166.966C74.277 164.686 72.477 163.206 69.877 163.206C64.957 163.206 60.997 166.846 60.997 170.726C60.997 173.086 62.917 174.486 65.357 174.486Z"></path></g><line stroke="#000000" stroke-width="1.2" x1="73.67693226498659" x2="73.67693226498659" y1="167.0061538461538" y2="132.0061538461538"></line></g><g><g><path d="M95.975 174.646C103.615 174.646 105.135 168.446 105.135 166.926C105.135 164.566 103.255 163.046 100.575 163.046C93.655 163.046 91.495 168.406 91.495 170.806C91.495 173.246 93.455 174.646 95.975 174.646ZM99.495 170.966C97.415 172.366 95.975 172.846 94.975 172.846C94.015 172.846 93.455 172.366 93.135 171.806C92.975 171.526 92.855 171.206 92.855 170.886C92.855 169.886 93.855 168.606 97.055 166.766C99.335 165.446 100.775 164.966 101.735 164.966C102.615 164.966 103.095 165.366 103.415 165.926C103.575 166.206 103.695 166.486 103.695 166.806C103.695 167.726 102.735 168.846 99.495 170.966Z"></path><g><circle cx="111.13539839747989" cy="168.8461538461538" r="2.4"></circle></g></g><g><line stroke="#000000" stroke-width="1.2" x1="104.5353983974799" x2="104.5353983974799" y1="166.92615384615382" y2="NaN"></line><path d="M110.535NaNL110.535NaNL98.535NaNL98.535NaNZ"></path></g><g><g><polygon fill="white" points="92.0953983974799,NaN 92.0953983974799,NaN 116.2553983974799,NaN 116.2553983974799,NaN" stroke="white" stroke-width="0"></polygon><path d="M106.855NaNC107.615NaN 108.255NaN 108.255NaNC108.255NaN 107.895NaN 107.695NaNC107.095NaN 106.615NaN 106.615NaNC106.615NaN 107.415NaN 108.295NaNC109.455NaN 110.255NaN 110.255NaNC110.255NaN 108.815NaN 106.455NaNC103.015NaN 100.255NaN 98.815NaNC97.375NaN 97.855NaN 102.815NaNC105.735NaN 109.015NaN 109.015NaNC109.015NaN 107.775NaN 105.455NaNC104.375NaN 103.415NaN 102.615NaNC102.255NaN 101.895NaN 102.135NaNC102.975NaN 104.495NaN 106.855NaNZM104.295NaNC105.455NaN 105.775NaN 105.775NaNC105.775NaN 104.255NaN 102.695NaNC100.815NaN 100.935NaN 101.215NaNC101.615NaN 102.895NaN 104.295NaNZ"></path></g></g></g></g><g transform="translate(1061.5783977391693)"><g></g><g><line stroke="#000000" stroke-width="1.6" x1="156.16809391770553" x2="156.16809391770553" y1="143.8461538461538" y2="183.8461538461538"></line><line stroke="#000000" stroke-width="5" x1="163.46809391770552" x2="163.46809391770552" y1="143.8461538461538" y2="183.8461538461538"></line></g><g><g><path d="M4.480 179.646C12.120 179.646 13.640 173.446 13.640 171.926C13.640 169.566 11.760 168.046 9.080 168.046C2.160 168.046 0 173.406 0 175.806C0 178.246 1.960 179.646 4.480 179.646ZM8 175.966C5.920 177.366 4.480 177.846 3.480 177.846C2.520 177.846 1.960 177.366 1.640 176.806C1.480 176.526 1.360 176.206 1.360 175.886C1.360 174.886 2.360 173.606 5.560 171.766C7.840 170.446 9.280 169.966 10.240 169.966C11.120 169.966 11.600 170.366 11.920 170.926C12.080 171.206 12.200 171.486 12.200 171.806C12.200 172.726 11.240 173.846 8 175.966Z"></path><g><circle cx="19.64" cy="168.8461538461538" r="2.4"></circle></g></g><g><line stroke="#000000" stroke-width="1.2" x1="13.040000000000001" x2="13.040000000000001" y1="171.92615384615382" y2="NaN"></line><path d="M19.040NaNL19.040NaNL7.040NaNL7.040NaNZ"></path></g><g><g><polygon fill="white" points="0.5999999999999996,NaN 0.5999999999999996,NaN 24.759999999999998,NaN 24.759999999999998,NaN" stroke="white" stroke-width="0"></polygon><path d="M15.360NaNC16.120NaN 16.760NaN 16.760NaNC16.760NaN 16.400NaN 16.200NaNC15.600NaN 15.120NaN 15.120NaNC15.120NaN 15.920NaN 16.800NaNC17.960NaN 18.760NaN 18.760NaNC18.760NaN 17.320NaN 14.960NaNC11.520NaN 8.760NaN 7.320NaNC5.880NaN 6.360NaN 11.320NaNC14.240NaN 17.520NaN 17.520NaNC17.520NaN 16.280NaN 13.960NaNC12.880NaN 11.920NaN 11.120NaNC10.760NaN 10.400NaN 10.640NaNC11.480NaN 13NaN 15.360NaNZM12.800NaNC13.960NaN 14.280NaN 14.280NaNC14.280NaN 12.760NaN 11.200NaNC9.320NaN 9.440NaN 9.720NaNC10.120NaN 11.400NaN 12.800NaNZ"></path></g></g></g><g><g><path d="M91.921 179.486C95.921 179.486 100.841 175.766 100.841 171.966C100.841 169.686 99.041 168.206 96.441 168.206C91.521 168.206 87.561 171.846 87.561 175.726C87.561 178.086 89.481 179.486 91.921 179.486Z"></path><g><circle cx="106.84086268386318" cy="168.8461538461538" r="2.4"></circle></g></g><g><line stroke="#000000" stroke-width="1.2" x1="100.24086268386318" x2="100.24086268386318" y1="172.0061538461538" y2="NaN"></line><path d="M106.241NaNL106.241NaNL94.241NaNL94.241NaNZ"></path></g><g><g><polygon fill="white" points="88.32086268386318,NaN 88.32086268386318,NaN 112.16086268386319,NaN 112.16086268386319,NaN" stroke="white" stroke-width="0"></polygon><path d="M97.721NaNC96.921NaN 96.281NaN 96.281NaNC96.281NaN 96.481NaN 96.801NaNC97.241NaN 97.801NaN 97.801NaNC97.801NaN 97.121NaN 96.281NaNC95.161NaN 94.321NaN 94.321NaNC94.321NaN 95.601NaN 98.441NaNC101.841NaN 104.641NaN 104.641NaNC104.641NaN 104.121NaN 103.081NaNC102.801NaN 102.641NaN 102.641NaNC102.641NaN 102.801NaN 103.121NaNC104.801NaN 106.161NaN 106.161NaNC106.161NaN 104.161NaN 101.721NaNC99.201NaN 97.121NaN 97.041NaNC97.001NaN 97.641NaN 98.561NaNC99.561NaN 100.361NaN 100.361NaNC100.361NaN 100.201NaN 100.001NaNC99.721NaN 99.521NaN 99.521NaNC99.521NaN 100.001NaN 100.841NaNC102.401NaN 102.921NaN 102.921NaNC102.921NaN 101.561NaN 99.241NaNL98.801NaNC98.281NaN 98.001NaN 98.001NaNC98.001NaN 98.281NaN 98.801NaNL99.201NaNC100.681NaN 101.401NaN 101.401NaNC101.401NaN 100.161NaN 97.721NaNZ"></path></g></g></g></g></svg>