<?xml version="1.0" encoding="UTF-8" standalone="no"?><svg xmlns="http://www.w3.org/2000/svg" height="279.4mm" viewBox="0 0 1328.6153846153845 1719.3846153846152" width="215.9mm"><g transform="translate(93.84615384615385)"><g><g><line stroke="#6A6A6A" stroke-width="1.3" x1="0" x2="353.1920179407049" y1="183.8461538461538" y2="183.8461538461538"></line><line stroke="#6A6A6A" stroke-width="1.3" x1="0" x2="353.1920179407049" y1="173.8461538461538" y2="173.8461538461538"></line><line stroke="#6A6A6A" stroke-width="1.3" x1="0" x2="353.1920179407049" y1="163.8461538461538" y2="163.8461538461538"></line><line stroke="#6A6A6A" stroke-width="1.3" x1="0" x2="353.1920179407049" y1="153.8461538461538" y2="153.8461538461538"></line><line stroke="#6A6A6A" stroke-width="1.3" x1="0" x2="353.1920179407049" y1="143.8461538461538" y2="143.8461538461538"></line></g><g><path d="M25.200 129.926C24.640 129.926 23.400 130.966 22.600 131.846C19.640 135.126 18.680 140.126 18.680 144.286C18.680 146.606 18.960 149.206 19.240 150.846C19.320 151.326 19.360 151.406 18.880 151.806C16.320 153.926 13.560 156.366 11.480 158.926C8.720 162.366 7 166.086 7 170.366C7 177.326 11.760 183.926 21.560 183.926C22.480 183.926 23.520 183.846 24.320 183.686C24.760 183.606 24.840 183.566 24.920 184.046C25.400 186.726 26 190.206 26 192.086C26 198.006 22 198.726 19.640 198.726C17.480 198.726 16.440 198.086 16.440 197.566C16.440 197.126 16.800 197.166 17.720 196.886C18.960 196.526 20.400 195.446 20.400 193.126C20.400 190.926 19 189.046 16.560 189.046C13.880 189.046 12.280 191.166 12.280 193.646C12.280 196.246 13.840 200.166 19.880 200.166C22.560 200.166 27.760 198.966 27.760 192.166C27.760 189.886 27.040 186.086 26.600 183.606C26.520 183.126 26.560 183.166 27.120 182.926C31.160 181.326 33.840 177.926 33.840 173.406C33.840 168.286 30.080 163.766 24.200 163.766C23.080 163.766 23.200 163.966 23.040 163.046L22.040 157.246C21.960 156.766 22.040 156.726 22.280 156.486C22.920 155.886 23.760 155.046 24.520 154.206C27.880 150.526 29.880 145.766 29.880 141.246C29.880 137.766 28.920 134.326 27.280 131.926C26.680 131.046 25.640 129.926 25.200 129.926ZM20.040 158.086C20.440 157.766 20.520 157.806 20.600 158.246L21.440 163.366C21.560 164.126 21.560 164.086 20.840 164.326C17.320 165.526 15.040 168.686 15.040 172.086C15.040 175.686 16.920 178.246 19.640 179.166C19.960 179.286 20.440 179.406 20.720 179.406C21.040 179.406 21.200 179.206 21.200 178.966C21.200 178.686 20.880 178.566 20.600 178.446C18.920 177.726 17.720 176.006 17.720 174.166C17.720 171.886 19.280 170.166 21.720 169.486C22.360 169.326 22.440 169.366 22.520 169.806L24.520 181.726C24.600 182.166 24.560 182.166 23.960 182.286C23.320 182.406 22.520 182.486 21.720 182.486C14.720 182.486 10.200 178.606 10.200 173.046C10.200 170.686 10.600 167.526 13.920 163.766C16.320 161.086 18.160 159.606 20.040 158.086ZM24.640 169.166C27.880 169.446 30.560 172.166 30.560 175.686C30.560 178.206 29.040 180.246 26.800 181.366C26.320 181.606 26.240 181.606 26.160 181.126L24.200 169.726C24.120 169.246 24.160 169.126 24.640 169.166ZM25.800 136.126C27.120 136.126 28.200 137.206 28.200 139.406C28.200 142.166 26.880 144.726 23.760 147.846C23.120 148.486 22.160 149.406 21.240 150.206C20.960 150.446 20.800 150.406 20.720 149.886C20.560 148.846 20.480 147.486 20.480 146.206C20.480 139.966 23.360 136.126 25.800 136.126Z"></path></g><g></g><path d="M57.820 153.806C56.620 153.806 55.220 154.126 54.140 154.606C50.580 156.166 48.700 160.446 48.700 164.246C48.700 164.606 48.700 164.966 48.740 165.326C48.940 167.486 49.980 169.526 51.300 171.126C52.820 172.966 55.020 173.806 57.420 173.806C64.420 173.806 65.460 167.446 65.460 166.286C65.460 165.406 65.020 165.406 64.860 165.406C64.540 165.406 64.260 165.446 64.260 166.126C64.260 171.286 59.860 172.486 58.580 172.486C55.340 172.486 53.620 169.326 53.620 162.726C53.620 156.126 56.660 154.766 58.820 154.766C60.900 154.766 61.740 155.726 61.740 156.126C61.740 156.486 61.620 157.006 61.020 157.006C59.420 157.006 58.500 158.726 58.500 159.966C58.500 162.246 60.460 162.966 61.580 162.966C61.580 162.966 64.620 162.846 64.620 159.526C64.620 154.286 58.580 153.806 57.820 153.806Z"></path></g><g><line stroke="black" stroke-width="1.6" x1="353.9920179407049" x2="353.9920179407049" y1="143.8461538461538" y2="183.8461538461538"></line></g><g><g><path d="M109.960 199.486C113.960 199.486 118.880 195.766 118.880 191.966C118.880 189.686 117.080 188.206 114.480 188.206C109.560 188.206 105.600 191.846 105.600 195.726C105.600 198.086 107.520 199.486 109.960 199.486Z"></path><path d="M90.900 200.766C90.900 200.766 90.980 200.846 91.100 200.846C91.180 200.846 91.340 200.806 91.460 200.646C91.780 200.246 91.980 177.406 91.980 177.406C91.940 176.686 91.260 176.326 90.700 176.326C90.300 176.326 89.940 176.526 89.940 176.966L90.260 188.246C90.260 188.566 90.100 188.846 89.820 188.926C89.740 188.966 89.700 188.966 89.620 188.966C89.300 188.966 89.020 188.606 88.700 188.406C88.300 188.166 87.860 188.006 87.460 187.846C87.420 187.846 87.380 187.806 87.340 187.806C87.060 187.766 86.820 187.726 86.540 187.726C84.660 187.806 82.900 189.326 82.900 191.526C82.900 193.406 84.180 195.846 87.780 198.366C88.700 199.006 89.660 200.126 90.900 200.766ZM90.140 191.846C90.180 192.006 90.220 192.486 90.220 193.126C90.220 194.686 90.100 197.046 90.100 197.046C90.100 197.286 90.020 197.686 89.660 197.686C89.540 197.686 89.420 197.646 89.260 197.566C88.020 196.766 86.900 195.526 86.340 194.566C85.900 193.726 85.700 192.886 85.700 192.166C85.700 191.406 85.940 190.726 86.300 190.286C86.580 190.006 86.940 189.846 87.340 189.846C87.660 189.846 87.980 189.926 88.380 190.126C88.940 190.446 89.980 191.286 90.140 191.846ZM92.940 200.646C93.060 200.806 93.180 200.846 93.300 200.846C93.420 200.846 93.540 200.766 93.540 200.766C94.740 200.126 95.740 199.006 96.660 198.326C100.220 195.846 101.500 193.406 101.500 191.526C101.500 189.286 99.700 187.806 97.900 187.726C97.620 187.726 97.380 187.766 97.100 187.806C96.620 187.966 96.180 188.126 95.740 188.406C95.420 188.606 95.140 188.966 94.820 188.966C94.740 188.966 94.700 188.966 94.620 188.926C94.340 188.846 94.180 188.566 94.180 188.246L94.500 176.966C94.500 176.486 94.140 176.286 93.740 176.286C93.180 176.286 92.500 176.686 92.460 177.406C92.460 177.406 92.620 200.246 92.940 200.646ZM94.340 197.046C94.340 197.046 94.220 194.686 94.220 193.126C94.220 192.486 94.260 192.006 94.300 191.846C94.460 191.286 95.500 190.446 96.100 190.126C96.460 189.926 96.820 189.846 97.140 189.846C97.540 189.846 97.900 190.006 98.140 190.286C98.500 190.726 98.700 191.366 98.700 192.166C98.700 192.886 98.540 193.726 98.100 194.566C97.540 195.526 96.380 196.766 95.140 197.566C94.980 197.646 94.900 197.686 94.780 197.686C94.460 197.686 94.340 197.286 94.340 197.046Z"></path></g><line stroke="#000000" stroke-width="1.2" x1="118.28020000000001" x2="118.28020000000001" y1="192.0061538461538" y2="157.0061538461538"></line><line stroke="#000000" stroke-width="2.2" x1="102.4002" x2="124.3202" y1="193.8461538461538" y2="193.8461538461538"></line></g><g><g><path d="M173.581 194.486C177.581 194.486 182.501 190.766 182.501 186.966C182.501 184.686 180.701 183.206 178.101 183.206C173.181 183.206 169.221 186.846 169.221 190.726C169.221 193.086 171.141 194.486 173.581 194.486Z"></path><path d="M166.701 195.646C167.021 195.246 167.181 172.406 167.181 172.406C167.141 171.686 166.501 171.286 165.941 171.286C165.541 171.286 165.181 171.526 165.181 171.966C165.181 172.766 165.421 182.366 165.461 183.246C165.461 183.526 165.301 183.806 165.021 183.926C164.941 183.966 164.901 183.966 164.821 183.966C164.461 183.966 164.181 183.606 163.941 183.406C163.501 183.126 163.021 182.966 162.581 182.846C162.301 182.766 162.021 182.726 161.741 182.726C159.901 182.846 158.141 184.286 158.141 186.486C158.141 188.406 159.381 190.846 162.941 193.326C163.941 194.006 164.901 195.086 166.101 195.766C166.101 195.766 166.221 195.846 166.341 195.846C166.461 195.846 166.581 195.806 166.701 195.646ZM165.301 192.086C165.301 192.286 165.221 192.686 164.861 192.686C164.741 192.686 164.621 192.646 164.461 192.566C163.261 191.806 162.101 190.526 161.581 189.566C161.101 188.726 160.901 187.886 160.901 187.166C160.901 186.406 161.141 185.726 161.541 185.286C161.781 185.006 162.141 184.846 162.541 184.846C162.861 184.846 163.221 184.926 163.581 185.126C164.141 185.446 165.181 186.326 165.341 186.806C165.381 186.966 165.421 187.446 165.421 188.086C165.421 189.686 165.301 192.086 165.301 192.086Z"></path></g><line stroke="#000000" stroke-width="1.2" x1="181.90095448517621" x2="181.90095448517621" y1="187.0061538461538" y2="149.0061538461538"></line></g><g><g><path d="M235.800 189.486C239.800 189.486 244.720 185.766 244.720 181.966C244.720 179.686 242.920 178.206 240.320 178.206C235.400 178.206 231.440 181.846 231.440 185.726C231.440 188.086 233.360 189.486 235.800 189.486Z"></path><path d="M229.400 177.166C229.400 176.966 229.240 176.846 229.080 176.846C229.040 176.846 228.960 176.846 228.920 176.886C228.920 176.886 227.000 177.606 226.920 177.606C226.560 177.606 226.400 177.166 226.400 176.806L226.400 172.006C226.400 171.766 226.160 171.566 225.840 171.566C225.240 171.566 225.160 171.926 225.160 172.246L225.160 175.926L225.160 177.446C225.160 177.766 225.040 178.246 224.760 178.486C224.040 178.766 223.400 179.086 222.720 179.366C222.480 179.446 222.240 179.766 222.240 180.006L222.240 182.846C222.240 183.086 222.360 183.206 222.560 183.206C222.600 183.206 222.680 183.166 222.720 183.166C222.720 183.166 224.280 182.486 224.600 182.366C224.640 182.366 224.680 182.326 224.720 182.326C224.960 182.326 225.200 182.686 225.200 183.006L225.200 187.006C225.200 187.446 225.040 187.806 224.800 187.886C224.520 188.006 222.720 188.766 222.720 188.766C222.480 188.846 222.240 189.166 222.240 189.406L222.240 192.246C222.240 192.486 222.360 192.606 222.560 192.606C222.600 192.606 222.680 192.566 222.720 192.566C222.720 192.566 224.240 191.926 224.600 191.766L224.600 191.766C224.800 191.686 225.160 192.206 225.160 192.526L225.160 197.526C225.160 197.766 225.400 197.966 225.720 197.966C226.320 197.966 226.400 197.686 226.400 197.286L226.400 191.766C226.400 191.646 226.400 191.566 226.440 191.446C226.480 191.206 226.640 190.966 226.800 190.886C227.120 190.806 228.920 190.086 228.920 190.086C229.160 190.006 229.400 189.686 229.400 189.446L229.400 186.606C229.400 186.366 229.280 186.246 229.080 186.246C229.040 186.246 228.960 186.286 228.920 186.286C228.920 186.286 227.080 187.006 226.920 187.046C226.640 187.046 226.360 186.806 226.360 186.366L226.360 182.646C226.360 182.326 226.560 181.606 226.880 181.486C227.240 181.326 228.920 180.686 228.920 180.686C229.160 180.566 229.400 180.286 229.400 180.006Z"></path></g><line stroke="#000000" stroke-width="1.2" x1="244.12010897035242" x2="244.12010897035242" y1="182.0061538461538" y2="147.0061538461538"></line></g><g><g><path d="M302.049 184.486C306.049 184.486 310.969 180.766 310.969 176.966C310.969 174.686 309.169 173.206 306.569 173.206C301.649 173.206 297.689 176.846 297.689 180.726C297.689 183.086 299.609 184.486 302.049 184.486Z"></path><path d="M295.329 173.246C295.529 173.206 295.649 173.086 295.649 172.926L295.649 169.846C295.649 169.686 295.569 169.526 295.409 169.526C295.329 169.526 294.089 169.966 293.889 170.046C293.849 170.086 293.809 170.086 293.769 170.086C293.689 170.086 293.609 170.006 293.609 169.806C293.609 169.526 293.609 164.726 293.609 164.726C293.609 164.166 293.489 164.086 292.969 164.086C292.449 164.086 292.329 164.206 292.329 164.726C292.329 164.726 292.329 169.486 292.329 170.006C292.329 170.526 292.249 170.686 292.009 170.766C291.849 170.846 290.929 171.166 290.409 171.406C290.089 171.406 290.009 171.246 290.009 171.046C290.009 170.806 290.009 165.966 290.009 165.966C290.009 165.406 289.889 165.326 289.369 165.326C288.849 165.326 288.729 165.446 288.729 165.966C288.729 165.966 288.729 171.246 288.729 171.526C288.729 171.806 288.649 172.046 288.369 172.166L286.649 172.806C286.609 172.806 286.569 172.846 286.529 172.846C286.369 172.846 286.249 172.726 286.249 172.486C286.249 172.246 286.249 167.166 286.249 167.166C286.249 166.646 286.129 166.526 285.609 166.526C285.089 166.526 284.969 166.646 284.969 167.166C284.969 167.166 284.969 172.566 284.969 172.966C284.969 173.366 284.849 173.486 284.649 173.566C284.449 173.646 283.409 174.046 283.409 174.046C283.209 174.126 283.089 174.206 283.089 174.366L283.089 177.446C283.089 177.606 283.209 177.766 283.329 177.766C283.409 177.766 284.249 177.486 284.569 177.326C284.649 177.286 284.689 177.286 284.729 177.286C284.929 177.286 284.969 177.446 284.969 177.686L284.969 182.326C284.969 182.646 284.769 182.926 284.569 183.006C284.369 183.086 283.409 183.446 283.409 183.446C283.209 183.526 283.089 183.606 283.089 183.766L283.089 186.886C283.089 187.046 283.209 187.206 283.369 187.206C283.409 187.206 284.089 186.926 284.449 186.806C284.529 186.766 284.609 186.766 284.689 186.766C284.889 186.766 284.969 186.886 284.969 187.126C284.969 187.486 284.969 192.086 284.969 192.086C284.969 192.606 285.089 192.726 285.609 192.726C286.129 192.726 286.249 192.606 286.249 192.086C286.249 192.086 286.249 186.806 286.249 186.566C286.249 186.326 286.329 186.086 286.489 186.046L288.409 185.286C288.649 185.286 288.729 185.366 288.729 185.606C288.729 185.926 288.729 190.846 288.729 190.846C288.729 191.406 288.849 191.486 289.369 191.486C289.889 191.486 290.009 191.366 290.009 190.846C290.009 190.846 290.009 185.486 290.009 185.166C290.009 184.846 290.169 184.606 290.409 184.526L291.849 184.006C291.929 183.966 292.009 183.926 292.089 183.926C292.249 183.926 292.329 184.046 292.329 184.246C292.329 184.526 292.329 189.606 292.329 189.606C292.329 190.166 292.449 190.246 292.969 190.246C293.489 190.246 293.609 190.126 293.609 189.606C293.609 189.606 293.609 183.926 293.609 183.686C293.609 183.446 293.809 183.246 293.929 183.206C294.049 183.166 295.329 182.686 295.329 182.686C295.529 182.606 295.649 182.526 295.649 182.366L295.649 179.246C295.649 179.126 295.569 178.926 295.409 178.926C295.329 178.926 294.289 179.326 294.049 179.446C294.009 179.446 293.969 179.486 293.929 179.486C293.729 179.486 293.609 179.286 293.609 179.006L293.609 174.326C293.609 174.046 293.649 173.886 293.849 173.806C294.009 173.766 295.329 173.246 295.329 173.246ZM286.249 182.366C286.129 182.206 286.129 181.246 286.129 180.166C286.129 178.686 286.169 176.966 286.249 176.686C286.369 176.326 287.969 175.686 288.529 175.686C288.649 175.686 288.689 175.726 288.729 175.766C288.809 175.886 288.849 177.006 288.849 178.246C288.849 179.646 288.809 181.206 288.729 181.446C288.609 181.846 287.089 182.446 286.489 182.446C286.369 182.446 286.289 182.406 286.249 182.366ZM292.329 180.086C292.209 180.406 290.929 181.006 290.369 181.006C290.249 181.006 290.169 180.966 290.129 180.926C290.049 180.806 290.009 179.606 290.009 178.326C290.009 176.926 290.049 175.446 290.129 175.246C290.289 174.926 291.729 174.326 292.209 174.326C292.249 174.326 292.329 174.366 292.329 174.366C292.409 174.486 292.449 175.526 292.449 176.686C292.449 178.166 292.409 179.886 292.329 180.086Z"></path></g><line stroke="#000000" stroke-width="1.2" x1="310.36886345552864" x2="310.36886345552864" y1="177.0061538461538" y2="139.0061538461538"></line></g></g><g transform="translate(463.6381717868587)"><g><g><line stroke="#6A6A6A" stroke-width="1.3" x1="-16.599999999999966" x2="273.2882179407048" y1="183.8461538461538" y2="183.8461538461538"></line><line stroke="#6A6A6A" stroke-width="1.3" x1="-16.599999999999966" x2="273.2882179407048" y1="173.8461538461538" y2="173.8461538461538"></line><line stroke="#6A6A6A" stroke-width="1.3" x1="-16.599999999999966" x2="273.2882179407048" y1="163.8461538461538" y2="163.8461538461538"></line><line stroke="#6A6A6A" stroke-width="1.3" x1="-16.599999999999966" x2="273.2882179407048" y1="153.8461538461538" y2="153.8461538461538"></line><line stroke="#6A6A6A" stroke-width="1.3" x1="-16.599999999999966" x2="273.2882179407048" y1="143.8461538461538" y2="143.8461538461538"></line></g></g><g><line stroke="#000000" stroke-width="1.6" x1="263.4882179407049" x2="263.4882179407049" y1="143.8461538461538" y2="183.8461538461538"></line><line stroke="#000000" stroke-width="5" x1="270.7882179407049" x2="270.7882179407049" y1="143.8461538461538" y2="183.8461538461538"></line></g><g><g><path d="M19.456 164.486C23.456 164.486 28.376 160.766 28.376 156.966C28.376 154.686 26.576 153.206 23.976 153.206C19.056 153.206 15.096 156.846 15.096 160.726C15.096 163.086 17.016 164.486 19.456 164.486Z"></path><path d="M2.456 165.766C2.456 165.766 2.536 165.846 2.656 165.846C2.736 165.846 2.896 165.806 3.016 165.646C3.336 165.246 3.536 142.406 3.536 142.406C3.496 141.686 2.816 141.326 2.256 141.326C1.856 141.326 1.496 141.526 1.496 141.966L1.816 153.246C1.816 153.566 1.656 153.846 1.376 153.926C1.296 153.966 1.256 153.966 1.176 153.966C0.856 153.966 0.576 153.606 0.256 153.406C-0.144 153.166-0.584 153.006-0.984 152.846C-1.024 152.846-1.064 152.806-1.104 152.806C-1.384 152.766-1.624 152.726-1.904 152.726C-3.784 152.806-5.544 154.326-5.544 156.526C-5.544 158.406-4.264 160.846-0.664 163.366C0.256 164.006 1.216 165.126 2.456 165.766ZM1.696 156.846C1.736 157.006 1.776 157.486 1.776 158.126C1.776 159.686 1.656 162.046 1.656 162.046C1.656 162.286 1.576 162.686 1.216 162.686C1.096 162.686 0.976 162.646 0.816 162.566C-0.424 161.766-1.544 160.526-2.104 159.566C-2.544 158.726-2.744 157.886-2.744 157.166C-2.744 156.406-2.504 155.726-2.144 155.286C-1.864 155.006-1.504 154.846-1.104 154.846C-0.784 154.846-0.464 154.926-0.064 155.126C0.496 155.446 1.536 156.286 1.696 156.846ZM4.496 165.646C4.616 165.806 4.736 165.846 4.856 165.846C4.976 165.846 5.096 165.766 5.096 165.766C6.296 165.126 7.296 164.006 8.216 163.326C11.776 160.846 13.056 158.406 13.056 156.526C13.056 154.286 11.256 152.806 9.456 152.726C9.176 152.726 8.936 152.766 8.656 152.806C8.176 152.966 7.736 153.126 7.296 153.406C6.976 153.606 6.696 153.966 6.376 153.966C6.296 153.966 6.256 153.966 6.176 153.926C5.896 153.846 5.736 153.566 5.736 153.246L6.056 141.966C6.056 141.486 5.696 141.286 5.296 141.286C4.736 141.286 4.056 141.686 4.016 142.406C4.016 142.406 4.176 165.246 4.496 165.646ZM5.896 162.046C5.896 162.046 5.776 159.686 5.776 158.126C5.776 157.486 5.816 157.006 5.856 156.846C6.016 156.286 7.056 155.446 7.656 155.126C8.016 154.926 8.376 154.846 8.696 154.846C9.096 154.846 9.456 155.006 9.696 155.286C10.056 155.726 10.256 156.366 10.256 157.166C10.256 157.886 10.096 158.726 9.656 159.566C9.096 160.526 7.936 161.766 6.696 162.566C6.536 162.646 6.456 162.686 6.336 162.686C6.016 162.686 5.896 162.286 5.896 162.046Z"></path></g><line stroke="#000000" stroke-width="1.2" x1="15.696399999999999" x2="15.696399999999999" y1="160.68615384615381" y2="198.68615384615381"></line></g><g><g><path d="M83.077 159.486C87.077 159.486 91.997 155.766 91.997 151.966C91.997 149.686 90.197 148.206 87.597 148.206C82.677 148.206 78.717 151.846 78.717 155.726C78.717 158.086 80.637 159.486 83.077 159.486Z"></path><path d="M76.197 160.646C76.517 160.246 76.677 137.406 76.677 137.406C76.637 136.686 75.997 136.286 75.437 136.286C75.037 136.286 74.677 136.526 74.677 136.966C74.677 137.766 74.917 147.366 74.957 148.246C74.957 148.526 74.797 148.806 74.517 148.926C74.437 148.966 74.397 148.966 74.317 148.966C73.957 148.966 73.677 148.606 73.437 148.406C72.997 148.126 72.517 147.966 72.077 147.846C71.797 147.766 71.517 147.726 71.237 147.726C69.397 147.846 67.637 149.286 67.637 151.486C67.637 153.406 68.877 155.846 72.437 158.326C73.437 159.006 74.397 160.086 75.597 160.766C75.597 160.766 75.717 160.846 75.837 160.846C75.957 160.846 76.077 160.806 76.197 160.646ZM74.797 157.086C74.797 157.286 74.717 157.686 74.357 157.686C74.237 157.686 74.117 157.646 73.957 157.566C72.757 156.806 71.597 155.526 71.077 154.566C70.597 153.726 70.397 152.886 70.397 152.166C70.397 151.406 70.637 150.726 71.037 150.286C71.277 150.006 71.637 149.846 72.037 149.846C72.357 149.846 72.717 149.926 73.077 150.126C73.637 150.446 74.677 151.326 74.837 151.806C74.877 151.966 74.917 152.446 74.917 153.086C74.917 154.686 74.797 157.086 74.797 157.086Z"></path></g><line stroke="#000000" stroke-width="1.2" x1="79.31715448517622" x2="79.31715448517622" y1="155.68615384615381" y2="190.68615384615381"></line></g><g><g><path d="M145.296 154.486C149.296 154.486 154.216 150.766 154.216 146.966C154.216 144.686 152.416 143.206 149.816 143.206C144.896 143.206 140.936 146.846 140.936 150.726C140.936 153.086 142.856 154.486 145.296 154.486Z"></path><path d="M138.896 142.166C138.896 141.966 138.736 141.846 138.576 141.846C138.536 141.846 138.456 141.846 138.416 141.886C138.416 141.886 136.496 142.606 136.416 142.606C136.056 142.606 135.896 142.166 135.896 141.806L135.896 137.006C135.896 136.766 135.656 136.566 135.336 136.566C134.736 136.566 134.656 136.926 134.656 137.246L134.656 140.926L134.656 142.446C134.656 142.766 134.536 143.246 134.256 143.486C133.536 143.766 132.896 144.086 132.216 144.366C131.976 144.446 131.736 144.766 131.736 145.006L131.736 147.846C131.736 148.086 131.856 148.206 132.056 148.206C132.096 148.206 132.176 148.166 132.216 148.166C132.216 148.166 133.776 147.486 134.096 147.366C134.136 147.366 134.176 147.326 134.216 147.326C134.456 147.326 134.696 147.686 134.696 148.006L134.696 152.006C134.696 152.446 134.536 152.806 134.296 152.886C134.016 153.006 132.216 153.766 132.216 153.766C131.976 153.846 131.736 154.166 131.736 154.406L131.736 157.246C131.736 157.486 131.856 157.606 132.056 157.606C132.096 157.606 132.176 157.566 132.216 157.566C132.216 157.566 133.736 156.926 134.096 156.766L134.096 156.766C134.296 156.686 134.656 157.206 134.656 157.526L134.656 162.526C134.656 162.766 134.896 162.966 135.216 162.966C135.816 162.966 135.896 162.686 135.896 162.286L135.896 156.766C135.896 156.646 135.896 156.566 135.936 156.446C135.976 156.206 136.136 155.966 136.296 155.886C136.616 155.806 138.416 155.086 138.416 155.086C138.656 155.006 138.896 154.686 138.896 154.446L138.896 151.606C138.896 151.366 138.776 151.246 138.576 151.246C138.536 151.246 138.456 151.286 138.416 151.286C138.416 151.286 136.576 152.006 136.416 152.046C136.136 152.046 135.856 151.806 135.856 151.366L135.856 147.646C135.856 147.326 136.056 146.606 136.376 146.486C136.736 146.326 138.416 145.686 138.416 145.686C138.656 145.566 138.896 145.286 138.896 145.006Z"></path></g><line stroke="#000000" stroke-width="1.2" x1="141.53630897035242" x2="141.53630897035242" y1="150.68615384615381" y2="188.68615384615381"></line></g><g><g><path d="M211.545 149.486C215.545 149.486 220.465 145.766 220.465 141.966C220.465 139.686 218.665 138.206 216.065 138.206C211.145 138.206 207.185 141.846 207.185 145.726C207.185 148.086 209.105 149.486 211.545 149.486Z"></path><path d="M204.825 138.246C205.025 138.206 205.145 138.086 205.145 137.926L205.145 134.846C205.145 134.686 205.065 134.526 204.905 134.526C204.825 134.526 203.585 134.966 203.385 135.046C203.345 135.086 203.305 135.086 203.265 135.086C203.185 135.086 203.105 135.006 203.105 134.806C203.105 134.526 203.105 129.726 203.105 129.726C203.105 129.166 202.985 129.086 202.465 129.086C201.945 129.086 201.825 129.206 201.825 129.726C201.825 129.726 201.825 134.486 201.825 135.006C201.825 135.526 201.745 135.686 201.505 135.766C201.345 135.846 200.425 136.166 199.905 136.406C199.585 136.406 199.505 136.246 199.505 136.046C199.505 135.806 199.505 130.966 199.505 130.966C199.505 130.406 199.385 130.326 198.865 130.326C198.345 130.326 198.225 130.446 198.225 130.966C198.225 130.966 198.225 136.246 198.225 136.526C198.225 136.806 198.145 137.046 197.865 137.166L196.145 137.806C196.105 137.806 196.065 137.846 196.025 137.846C195.865 137.846 195.745 137.726 195.745 137.486C195.745 137.246 195.745 132.166 195.745 132.166C195.745 131.646 195.625 131.526 195.105 131.526C194.585 131.526 194.465 131.646 194.465 132.166C194.465 132.166 194.465 137.566 194.465 137.966C194.465 138.366 194.345 138.486 194.145 138.566C193.945 138.646 192.905 139.046 192.905 139.046C192.705 139.126 192.585 139.206 192.585 139.366L192.585 142.446C192.585 142.606 192.705 142.766 192.825 142.766C192.905 142.766 193.745 142.486 194.065 142.326C194.145 142.286 194.185 142.286 194.225 142.286C194.425 142.286 194.465 142.446 194.465 142.686L194.465 147.326C194.465 147.646 194.265 147.926 194.065 148.006C193.865 148.086 192.905 148.446 192.905 148.446C192.705 148.526 192.585 148.606 192.585 148.766L192.585 151.886C192.585 152.046 192.705 152.206 192.865 152.206C192.905 152.206 193.585 151.926 193.945 151.806C194.025 151.766 194.105 151.766 194.185 151.766C194.385 151.766 194.465 151.886 194.465 152.126C194.465 152.486 194.465 157.086 194.465 157.086C194.465 157.606 194.585 157.726 195.105 157.726C195.625 157.726 195.745 157.606 195.745 157.086C195.745 157.086 195.745 151.806 195.745 151.566C195.745 151.326 195.825 151.086 195.985 151.046L197.905 150.286C198.145 150.286 198.225 150.366 198.225 150.606C198.225 150.926 198.225 155.846 198.225 155.846C198.225 156.406 198.345 156.486 198.865 156.486C199.385 156.486 199.505 156.366 199.505 155.846C199.505 155.846 199.505 150.486 199.505 150.166C199.505 149.846 199.665 149.606 199.905 149.526L201.345 149.006C201.425 148.966 201.505 148.926 201.585 148.926C201.745 148.926 201.825 149.046 201.825 149.246C201.825 149.526 201.825 154.606 201.825 154.606C201.825 155.166 201.945 155.246 202.465 155.246C202.985 155.246 203.105 155.126 203.105 154.606C203.105 154.606 203.105 148.926 203.105 148.686C203.105 148.446 203.305 148.246 203.425 148.206C203.545 148.166 204.825 147.686 204.825 147.686C205.025 147.606 205.145 147.526 205.145 147.366L205.145 144.246C205.145 144.126 205.065 143.926 204.905 143.926C204.825 143.926 203.785 144.326 203.545 144.446C203.505 144.446 203.465 144.486 203.425 144.486C203.225 144.486 203.105 144.286 203.105 144.006L203.105 139.326C203.105 139.046 203.145 138.886 203.345 138.806C203.505 138.766 204.825 138.246 204.825 138.246ZM195.745 147.366C195.625 147.206 195.625 146.246 195.625 145.166C195.625 143.686 195.665 141.966 195.745 141.686C195.865 141.326 197.465 140.686 198.025 140.686C198.145 140.686 198.185 140.726 198.225 140.766C198.305 140.886 198.345 142.006 198.345 143.246C198.345 144.646 198.305 146.206 198.225 146.446C198.105 146.846 196.585 147.446 195.985 147.446C195.865 147.446 195.785 147.406 195.745 147.366ZM201.825 145.086C201.705 145.406 200.425 146.006 199.865 146.006C199.745 146.006 199.665 145.966 199.625 145.926C199.545 145.806 199.505 144.606 199.505 143.326C199.505 141.926 199.545 140.446 199.625 140.246C199.785 139.926 201.225 139.326 201.705 139.326C201.745 139.326 201.825 139.366 201.825 139.366C201.905 139.486 201.945 140.526 201.945 141.686C201.945 143.166 201.905 144.886 201.825 145.086Z"></path></g><line stroke="#000000" stroke-width="1.2" x1="207.78506345552864" x2="207.78506345552864" y1="145.68615384615381" y2="180.68615384615381"></line></g></g></svg>