<?xml version="1.0" encoding="UTF-8" standalone="no"?><svg xmlns="http://www.w3.org/2000/svg" height="279.4mm" viewBox="0 0 1328.6153846153845 1719.3846153846152" width="215.9mm"><g transform="translate(163.84615384615387)"><g><g><line stroke="#6A6A6A" stroke-width="1.3" x1="0" x2="364.5328805171556" y1="183.8461538461538" y2="183.8461538461538"></line><line stroke="#6A6A6A" stroke-width="1.3" x1="0" x2="364.5328805171556" y1="173.8461538461538" y2="173.8461538461538"></line><line stroke="#6A6A6A" stroke-width="1.3" x1="0" x2="364.5328805171556" y1="163.8461538461538" y2="163.8461538461538"></line><line stroke="#6A6A6A" stroke-width="1.3" x1="0" x2="364.5328805171556" y1="153.8461538461538" y2="153.8461538461538"></line><line stroke="#6A6A6A" stroke-width="1.3" x1="0" x2="364.5328805171556" y1="143.8461538461538" y2="143.8461538461538"></line></g><g><path d="M25.200 129.926C24.640 129.926 23.400 130.966 22.600 131.846C19.640 135.126 18.680 140.126 18.680 144.286C18.680 146.606 18.960 149.206 19.240 150.846C19.320 151.326 19.360 151.406 18.880 151.806C16.320 153.926 13.560 156.366 11.480 158.926C8.720 162.366 7 166.086 7 170.366C7 177.326 11.760 183.926 21.560 183.926C22.480 183.926 23.520 183.846 24.320 183.686C24.760 183.606 24.840 183.566 24.920 184.046C25.400 186.726 26 190.206 26 192.086C26 198.006 22 198.726 19.640 198.726C17.480 198.726 16.440 198.086 16.440 197.566C16.440 197.126 16.800 197.166 17.720 196.886C18.960 196.526 20.400 195.446 20.400 193.126C20.400 190.926 19 189.046 16.560 189.046C13.880 189.046 12.280 191.166 12.280 193.646C12.280 196.246 13.840 200.166 19.880 200.166C22.560 200.166 27.760 198.966 27.760 192.166C27.760 189.886 27.040 186.086 26.600 183.606C26.520 183.126 26.560 183.166 27.120 182.926C31.160 181.326 33.840 177.926 33.840 173.406C33.840 168.286 30.080 163.766 24.200 163.766C23.080 163.766 23.200 163.966 23.040 163.046L22.040 157.246C21.960 156.766 22.040 156.726 22.280 156.486C22.920 155.886 23.760 155.046 24.520 154.206C27.880 150.526 29.880 145.766 29.880 141.246C29.880 137.766 28.920 134.326 27.280 131.926C26.680 131.046 25.640 129.926 25.200 129.926ZM20.040 158.086C20.440 157.766 20.520 157.806 20.600 158.246L21.440 163.366C21.560 164.126 21.560 164.086 20.840 164.326C17.320 165.526 15.040 168.686 15.040 172.086C15.040 175.686 16.920 178.246 19.640 179.166C19.960 179.286 20.440 179.406 20.720 179.406C21.040 179.406 21.200 179.206 21.200 178.966C21.200 178.686 20.880 178.566 20.600 178.446C18.920 177.726 17.720 176.006 17.720 174.166C17.720 171.886 19.280 170.166 21.720 169.486C22.360 169.326 22.440 169.366 22.520 169.806L24.520 181.726C24.600 182.166 24.560 182.166 23.960 182.286C23.320 182.406 22.520 182.486 21.720 182.486C14.720 182.486 10.200 178.606 10.200 173.046C10.200 170.686 10.600 167.526 13.920 163.766C16.320 161.086 18.160 159.606 20.040 158.086ZM24.640 169.166C27.880 169.446 30.560 172.166 30.560 175.686C30.560 178.206 29.040 180.246 26.800 181.366C26.320 181.606 26.240 181.606 26.160 181.126L24.200 169.726C24.120 169.246 24.160 169.126 24.640 169.166ZM25.800 136.126C27.120 136.126 28.200 137.206 28.200 139.406C28.200 142.166 26.880 144.726 23.760 147.846C23.120 148.486 22.160 149.406 21.240 150.206C20.960 150.446 20.800 150.406 20.720 149.886C20.560 148.846 20.480 147.486 20.480 146.206C20.480 139.966 23.360 136.126 25.800 136.126Z"></path></g><g></g><path d="M57.820 153.806C56.620 153.806 55.220 154.126 54.140 154.606C50.580 156.166 48.700 160.446 48.700 164.246C48.700 164.606 48.700 164.966 48.740 165.326C48.940 167.486 49.980 169.526 51.300 171.126C52.820 172.966 55.020 173.806 57.420 173.806C64.420 173.806 65.460 167.446 65.460 166.286C65.460 165.406 65.020 165.406 64.860 165.406C64.540 165.406 64.260 165.446 64.260 166.126C64.260 171.286 59.860 172.486 58.580 172.486C55.340 172.486 53.620 169.326 53.620 162.726C53.620 156.126 56.660 154.766 58.820 154.766C60.900 154.766 61.740 155.726 61.740 156.126C61.740 156.486 61.620 157.006 61.020 157.006C59.420 157.006 58.500 158.726 58.500 159.966C58.500 162.246 60.460 162.966 61.580 162.966C61.580 162.966 64.620 162.846 64.620 159.526C64.620 154.286 58.580 153.806 57.820 153.806Z"></path></g><g><line stroke="black" stroke-width="1.6" x1="365.3328805171556" x2="365.3328805171556" y1="143.8461538461538" y2="183.8461538461538"></line></g><g><g><path d="M109.960 199.486C113.960 199.486 118.880 195.766 118.880 191.966C118.880 189.686 117.080 188.206 114.480 188.206C109.560 188.206 105.600 191.846 105.600 195.726C105.600 198.086 107.520 199.486 109.960 199.486Z"></path><path d="M90.900 200.766C90.900 200.766 90.980 200.846 91.100 200.846C91.180 200.846 91.340 200.806 91.460 200.646C91.780 200.246 91.980 177.406 91.980 177.406C91.940 176.686 91.260 176.326 90.700 176.326C90.300 176.326 89.940 176.526 89.940 176.966L90.260 188.246C90.260 188.566 90.100 188.846 89.820 188.926C89.740 188.966 89.700 188.966 89.620 188.966C89.300 188.966 89.020 188.606 88.700 188.406C88.300 188.166 87.860 188.006 87.460 187.846C87.420 187.846 87.380 187.806 87.340 187.806C87.060 187.766 86.820 187.726 86.540 187.726C84.660 187.806 82.900 189.326 82.900 191.526C82.900 193.406 84.180 195.846 87.780 198.366C88.700 199.006 89.660 200.126 90.900 200.766ZM90.140 191.846C90.180 192.006 90.220 192.486 90.220 193.126C90.220 194.686 90.100 197.046 90.100 197.046C90.100 197.286 90.020 197.686 89.660 197.686C89.540 197.686 89.420 197.646 89.260 197.566C88.020 196.766 86.900 195.526 86.340 194.566C85.900 193.726 85.700 192.886 85.700 192.166C85.700 191.406 85.940 190.726 86.300 190.286C86.580 190.006 86.940 189.846 87.340 189.846C87.660 189.846 87.980 189.926 88.380 190.126C88.940 190.446 89.980 191.286 90.140 191.846ZM92.940 200.646C93.060 200.806 93.180 200.846 93.300 200.846C93.420 200.846 93.540 200.766 93.540 200.766C94.740 200.126 95.740 199.006 96.660 198.326C100.220 195.846 101.500 193.406 101.500 191.526C101.500 189.286 99.700 187.806 97.900 187.726C97.620 187.726 97.380 187.766 97.100 187.806C96.620 187.966 96.180 188.126 95.740 188.406C95.420 188.606 95.140 188.966 94.820 188.966C94.740 188.966 94.700 188.966 94.620 188.926C94.340 188.846 94.180 188.566 94.180 188.246L94.500 176.966C94.500 176.486 94.140 176.286 93.740 176.286C93.180 176.286 92.500 176.686 92.460 177.406C92.460 177.406 92.620 200.246 92.940 200.646ZM94.340 197.046C94.340 197.046 94.220 194.686 94.220 193.126C94.220 192.486 94.260 192.006 94.300 191.846C94.460 191.286 95.500 190.446 96.100 190.126C96.460 189.926 96.820 189.846 97.140 189.846C97.540 189.846 97.900 190.006 98.140 190.286C98.500 190.726 98.700 191.366 98.700 192.166C98.700 192.886 98.540 193.726 98.100 194.566C97.540 195.526 96.380 196.766 95.140 197.566C94.980 197.646 94.900 197.686 94.780 197.686C94.460 197.686 94.340 197.286 94.340 197.046Z"></path></g><line stroke="#000000" stroke-width="1.2" x1="118.28020000000001" x2="118.28020000000001" y1="192.0061538461538" y2="157.0061538461538"></line><line stroke="#000000" stroke-width="2.2" x1="102.4002" x2="124.3202" y1="193.8461538461538" y2="193.8461538461538"></line></g><g><g><path d="M176.416 194.486C180.416 194.486 185.336 190.766 185.336 186.966C185.336 184.686 183.536 183.206 180.936 183.206C176.016 183.206 172.056 186.846 172.056 190.726C172.056 193.086 173.976 194.486 176.416 194.486Z"></path><path d="M169.536 195.646C169.856 195.246 170.016 172.406 170.016 172.406C169.976 171.686 169.336 171.286 168.776 171.286C168.376 171.286 168.016 171.526 168.016 171.966C168.016 172.766 168.256 182.366 168.296 183.246C168.296 183.526 168.136 183.806 167.856 183.926C167.776 183.966 167.736 183.966 167.656 183.966C167.296 183.966 167.016 183.606 166.776 183.406C166.336 183.126 165.856 182.966 165.416 182.846C165.136 182.766 164.856 182.726 164.576 182.726C162.736 182.846 160.976 184.286 160.976 186.486C160.976 188.406 162.216 190.846 165.776 193.326C166.776 194.006 167.736 195.086 168.936 195.766C168.936 195.766 169.056 195.846 169.176 195.846C169.296 195.846 169.416 195.806 169.536 195.646ZM168.136 192.086C168.136 192.286 168.056 192.686 167.696 192.686C167.576 192.686 167.456 192.646 167.296 192.566C166.096 191.806 164.936 190.526 164.416 189.566C163.936 188.726 163.736 187.886 163.736 187.166C163.736 186.406 163.976 185.726 164.376 185.286C164.616 185.006 164.976 184.846 165.376 184.846C165.696 184.846 166.056 184.926 166.416 185.126C166.976 185.446 168.016 186.326 168.176 186.806C168.216 186.966 168.256 187.446 168.256 188.086C168.256 189.686 168.136 192.086 168.136 192.086Z"></path></g><line stroke="#000000" stroke-width="1.2" x1="184.73617012928892" x2="184.73617012928892" y1="187.0061538461538" y2="152.0061538461538"></line></g><g><g><path d="M241.471 189.486C245.471 189.486 250.391 185.766 250.391 181.966C250.391 179.686 248.591 178.206 245.991 178.206C241.071 178.206 237.111 181.846 237.111 185.726C237.111 188.086 239.031 189.486 241.471 189.486Z"></path><path d="M235.071 177.166C235.071 176.966 234.911 176.846 234.751 176.846C234.711 176.846 234.631 176.846 234.591 176.886C234.591 176.886 232.671 177.606 232.591 177.606C232.231 177.606 232.071 177.166 232.071 176.806L232.071 172.006C232.071 171.766 231.831 171.566 231.511 171.566C230.911 171.566 230.831 171.926 230.831 172.246L230.831 175.926L230.831 177.446C230.831 177.766 230.711 178.246 230.431 178.486C229.711 178.766 229.071 179.086 228.391 179.366C228.151 179.446 227.911 179.766 227.911 180.006L227.911 182.846C227.911 183.086 228.031 183.206 228.231 183.206C228.271 183.206 228.351 183.166 228.391 183.166C228.391 183.166 229.951 182.486 230.271 182.366C230.311 182.366 230.351 182.326 230.391 182.326C230.631 182.326 230.871 182.686 230.871 183.006L230.871 187.006C230.871 187.446 230.711 187.806 230.471 187.886C230.191 188.006 228.391 188.766 228.391 188.766C228.151 188.846 227.911 189.166 227.911 189.406L227.911 192.246C227.911 192.486 228.031 192.606 228.231 192.606C228.271 192.606 228.351 192.566 228.391 192.566C228.391 192.566 229.911 191.926 230.271 191.766L230.271 191.766C230.471 191.686 230.831 192.206 230.831 192.526L230.831 197.526C230.831 197.766 231.071 197.966 231.391 197.966C231.991 197.966 232.071 197.686 232.071 197.286L232.071 191.766C232.071 191.646 232.071 191.566 232.111 191.446C232.151 191.206 232.311 190.966 232.471 190.886C232.791 190.806 234.591 190.086 234.591 190.086C234.831 190.006 235.071 189.686 235.071 189.446L235.071 186.606C235.071 186.366 234.951 186.246 234.751 186.246C234.711 186.246 234.631 186.286 234.591 186.286C234.591 186.286 232.751 187.006 232.591 187.046C232.311 187.046 232.031 186.806 232.031 186.366L232.031 182.646C232.031 182.326 232.231 181.606 232.551 181.486C232.911 181.326 234.591 180.686 234.591 180.686C234.831 180.566 235.071 180.286 235.071 180.006Z"></path></g><line stroke="#000000" stroke-width="1.2" x1="249.79054025857783" x2="249.79054025857783" y1="182.0061538461538" y2="147.0061538461538"></line></g><g><g><path d="M310.555 184.486C314.555 184.486 319.475 180.766 319.475 176.966C319.475 174.686 317.675 173.206 315.075 173.206C310.155 173.206 306.195 176.846 306.195 180.726C306.195 183.086 308.115 184.486 310.555 184.486Z"></path><path d="M303.835 173.246C304.035 173.206 304.155 173.086 304.155 172.926L304.155 169.846C304.155 169.686 304.075 169.526 303.915 169.526C303.835 169.526 302.595 169.966 302.395 170.046C302.355 170.086 302.315 170.086 302.275 170.086C302.195 170.086 302.115 170.006 302.115 169.806C302.115 169.526 302.115 164.726 302.115 164.726C302.115 164.166 301.995 164.086 301.475 164.086C300.955 164.086 300.835 164.206 300.835 164.726C300.835 164.726 300.835 169.486 300.835 170.006C300.835 170.526 300.755 170.686 300.515 170.766C300.355 170.846 299.435 171.166 298.915 171.406C298.595 171.406 298.515 171.246 298.515 171.046C298.515 170.806 298.515 165.966 298.515 165.966C298.515 165.406 298.395 165.326 297.875 165.326C297.355 165.326 297.235 165.446 297.235 165.966C297.235 165.966 297.235 171.246 297.235 171.526C297.235 171.806 297.155 172.046 296.875 172.166L295.155 172.806C295.115 172.806 295.075 172.846 295.035 172.846C294.875 172.846 294.755 172.726 294.755 172.486C294.755 172.246 294.755 167.166 294.755 167.166C294.755 166.646 294.635 166.526 294.115 166.526C293.595 166.526 293.475 166.646 293.475 167.166C293.475 167.166 293.475 172.566 293.475 172.966C293.475 173.366 293.355 173.486 293.155 173.566C292.955 173.646 291.915 174.046 291.915 174.046C291.715 174.126 291.595 174.206 291.595 174.366L291.595 177.446C291.595 177.606 291.715 177.766 291.835 177.766C291.915 177.766 292.755 177.486 293.075 177.326C293.155 177.286 293.195 177.286 293.235 177.286C293.435 177.286 293.475 177.446 293.475 177.686L293.475 182.326C293.475 182.646 293.275 182.926 293.075 183.006C292.875 183.086 291.915 183.446 291.915 183.446C291.715 183.526 291.595 183.606 291.595 183.766L291.595 186.886C291.595 187.046 291.715 187.206 291.875 187.206C291.915 187.206 292.595 186.926 292.955 186.806C293.035 186.766 293.115 186.766 293.195 186.766C293.395 186.766 293.475 186.886 293.475 187.126C293.475 187.486 293.475 192.086 293.475 192.086C293.475 192.606 293.595 192.726 294.115 192.726C294.635 192.726 294.755 192.606 294.755 192.086C294.755 192.086 294.755 186.806 294.755 186.566C294.755 186.326 294.835 186.086 294.995 186.046L296.915 185.286C297.155 185.286 297.235 185.366 297.235 185.606C297.235 185.926 297.235 190.846 297.235 190.846C297.235 191.406 297.355 191.486 297.875 191.486C298.395 191.486 298.515 191.366 298.515 190.846C298.515 190.846 298.515 185.486 298.515 185.166C298.515 184.846 298.675 184.606 298.915 184.526L300.355 184.006C300.435 183.966 300.515 183.926 300.595 183.926C300.755 183.926 300.835 184.046 300.835 184.246C300.835 184.526 300.835 189.606 300.835 189.606C300.835 190.166 300.955 190.246 301.475 190.246C301.995 190.246 302.115 190.126 302.115 189.606C302.115 189.606 302.115 183.926 302.115 183.686C302.115 183.446 302.315 183.246 302.435 183.206C302.555 183.166 303.835 182.686 303.835 182.686C304.035 182.606 304.155 182.526 304.155 182.366L304.155 179.246C304.155 179.126 304.075 178.926 303.915 178.926C303.835 178.926 302.795 179.326 302.555 179.446C302.515 179.446 302.475 179.486 302.435 179.486C302.235 179.486 302.115 179.286 302.115 179.006L302.115 174.326C302.115 174.046 302.155 173.886 302.355 173.806C302.515 173.766 303.835 173.246 303.835 173.246ZM294.755 182.366C294.635 182.206 294.635 181.246 294.635 180.166C294.635 178.686 294.675 176.966 294.755 176.686C294.875 176.326 296.475 175.686 297.035 175.686C297.155 175.686 297.195 175.726 297.235 175.766C297.315 175.886 297.355 177.006 297.355 178.246C297.355 179.646 297.315 181.206 297.235 181.446C297.115 181.846 295.595 182.446 294.995 182.446C294.875 182.446 294.795 182.406 294.755 182.366ZM300.835 180.086C300.715 180.406 299.435 181.006 298.875 181.006C298.755 181.006 298.675 180.966 298.635 180.926C298.555 180.806 298.515 179.606 298.515 178.326C298.515 176.926 298.555 175.446 298.635 175.246C298.795 174.926 300.235 174.326 300.715 174.326C300.755 174.326 300.835 174.366 300.835 174.366C300.915 174.486 300.955 175.526 300.955 176.686C300.955 178.166 300.915 179.886 300.835 180.086Z"></path></g><line stroke="#000000" stroke-width="1.2" x1="318.87451038786674" x2="318.87451038786674" y1="177.0061538461538" y2="142.0061538461538"></line></g></g><g transform="translate(544.9790343633094)"><g><g><line stroke="#6A6A6A" stroke-width="1.3" x1="-16.600000000000023" x2="284.62908051715567" y1="183.8461538461538" y2="183.8461538461538"></line><line stroke="#6A6A6A" stroke-width="1.3" x1="-16.600000000000023" x2="284.62908051715567" y1="173.8461538461538" y2="173.8461538461538"></line><line stroke="#6A6A6A" stroke-width="1.3" x1="-16.600000000000023" x2="284.62908051715567" y1="163.8461538461538" y2="163.8461538461538"></line><line stroke="#6A6A6A" stroke-width="1.3" x1="-16.600000000000023" x2="284.62908051715567" y1="153.8461538461538" y2="153.8461538461538"></line><line stroke="#6A6A6A" stroke-width="1.3" x1="-16.600000000000023" x2="284.62908051715567" y1="143.8461538461538" y2="143.8461538461538"></line></g></g><g><line stroke="#000000" stroke-width="1.6" x1="274.8290805171556" x2="274.8290805171556" y1="143.8461538461538" y2="183.8461538461538"></line><line stroke="#000000" stroke-width="5" x1="282.1290805171556" x2="282.1290805171556" y1="143.8461538461538" y2="183.8461538461538"></line></g><g><g><path d="M19.456 164.486C23.456 164.486 28.376 160.766 28.376 156.966C28.376 154.686 26.576 153.206 23.976 153.206C19.056 153.206 15.096 156.846 15.096 160.726C15.096 163.086 17.016 164.486 19.456 164.486Z"></path><path d="M2.456 165.766C2.456 165.766 2.536 165.846 2.656 165.846C2.736 165.846 2.896 165.806 3.016 165.646C3.336 165.246 3.536 142.406 3.536 142.406C3.496 141.686 2.816 141.326 2.256 141.326C1.856 141.326 1.496 141.526 1.496 141.966L1.816 153.246C1.816 153.566 1.656 153.846 1.376 153.926C1.296 153.966 1.256 153.966 1.176 153.966C0.856 153.966 0.576 153.606 0.256 153.406C-0.144 153.166-0.584 153.006-0.984 152.846C-1.024 152.846-1.064 152.806-1.104 152.806C-1.384 152.766-1.624 152.726-1.904 152.726C-3.784 152.806-5.544 154.326-5.544 156.526C-5.544 158.406-4.264 160.846-0.664 163.366C0.256 164.006 1.216 165.126 2.456 165.766ZM1.696 156.846C1.736 157.006 1.776 157.486 1.776 158.126C1.776 159.686 1.656 162.046 1.656 162.046C1.656 162.286 1.576 162.686 1.216 162.686C1.096 162.686 0.976 162.646 0.816 162.566C-0.424 161.766-1.544 160.526-2.104 159.566C-2.544 158.726-2.744 157.886-2.744 157.166C-2.744 156.406-2.504 155.726-2.144 155.286C-1.864 155.006-1.504 154.846-1.104 154.846C-0.784 154.846-0.464 154.926-0.064 155.126C0.496 155.446 1.536 156.286 1.696 156.846ZM4.496 165.646C4.616 165.806 4.736 165.846 4.856 165.846C4.976 165.846 5.096 165.766 5.096 165.766C6.296 165.126 7.296 164.006 8.216 163.326C11.776 160.846 13.056 158.406 13.056 156.526C13.056 154.286 11.256 152.806 9.456 152.726C9.176 152.726 8.936 152.766 8.656 152.806C8.176 152.966 7.736 153.126 7.296 153.406C6.976 153.606 6.696 153.966 6.376 153.966C6.296 153.966 6.256 153.966 6.176 153.926C5.896 153.846 5.736 153.566 5.736 153.246L6.056 141.966C6.056 141.486 5.696 141.286 5.296 141.286C4.736 141.286 4.056 141.686 4.016 142.406C4.016 142.406 4.176 165.246 4.496 165.646ZM5.896 162.046C5.896 162.046 5.776 159.686 5.776 158.126C5.776 157.486 5.816 157.006 5.856 156.846C6.016 156.286 7.056 155.446 7.656 155.126C8.016 154.926 8.376 154.846 8.696 154.846C9.096 154.846 9.456 155.006 9.696 155.286C10.056 155.726 10.256 156.366 10.256 157.166C10.256 157.886 10.096 158.726 9.656 159.566C9.096 160.526 7.936 161.766 6.696 162.566C6.536 162.646 6.456 162.686 6.336 162.686C6.016 162.686 5.896 162.286 5.896 162.046Z"></path></g><line stroke="#000000" stroke-width="1.2" x1="15.696399999999999" x2="15.696399999999999" y1="160.68615384615381" y2="195.68615384615381"></line></g><g><g><path d="M85.912 159.486C89.912 159.486 94.832 155.766 94.832 151.966C94.832 149.686 93.032 148.206 90.432 148.206C85.512 148.206 81.552 151.846 81.552 155.726C81.552 158.086 83.472 159.486 85.912 159.486Z"></path><path d="M79.032 160.646C79.352 160.246 79.512 137.406 79.512 137.406C79.472 136.686 78.832 136.286 78.272 136.286C77.872 136.286 77.512 136.526 77.512 136.966C77.512 137.766 77.752 147.366 77.792 148.246C77.792 148.526 77.632 148.806 77.352 148.926C77.272 148.966 77.232 148.966 77.152 148.966C76.792 148.966 76.512 148.606 76.272 148.406C75.832 148.126 75.352 147.966 74.912 147.846C74.632 147.766 74.352 147.726 74.072 147.726C72.232 147.846 70.472 149.286 70.472 151.486C70.472 153.406 71.712 155.846 75.272 158.326C76.272 159.006 77.232 160.086 78.432 160.766C78.432 160.766 78.552 160.846 78.672 160.846C78.792 160.846 78.912 160.806 79.032 160.646ZM77.632 157.086C77.632 157.286 77.552 157.686 77.192 157.686C77.072 157.686 76.952 157.646 76.792 157.566C75.592 156.806 74.432 155.526 73.912 154.566C73.432 153.726 73.232 152.886 73.232 152.166C73.232 151.406 73.472 150.726 73.872 150.286C74.112 150.006 74.472 149.846 74.872 149.846C75.192 149.846 75.552 149.926 75.912 150.126C76.472 150.446 77.512 151.326 77.672 151.806C77.712 151.966 77.752 152.446 77.752 153.086C77.752 154.686 77.632 157.086 77.632 157.086Z"></path></g><line stroke="#000000" stroke-width="1.2" x1="82.1523701292889" x2="82.1523701292889" y1="155.68615384615381" y2="190.68615384615381"></line></g><g><g><path d="M150.967 154.486C154.967 154.486 159.887 150.766 159.887 146.966C159.887 144.686 158.087 143.206 155.487 143.206C150.567 143.206 146.607 146.846 146.607 150.726C146.607 153.086 148.527 154.486 150.967 154.486Z"></path><path d="M144.567 142.166C144.567 141.966 144.407 141.846 144.247 141.846C144.207 141.846 144.127 141.846 144.087 141.886C144.087 141.886 142.167 142.606 142.087 142.606C141.727 142.606 141.567 142.166 141.567 141.806L141.567 137.006C141.567 136.766 141.327 136.566 141.007 136.566C140.407 136.566 140.327 136.926 140.327 137.246L140.327 140.926L140.327 142.446C140.327 142.766 140.207 143.246 139.927 143.486C139.207 143.766 138.567 144.086 137.887 144.366C137.647 144.446 137.407 144.766 137.407 145.006L137.407 147.846C137.407 148.086 137.527 148.206 137.727 148.206C137.767 148.206 137.847 148.166 137.887 148.166C137.887 148.166 139.447 147.486 139.767 147.366C139.807 147.366 139.847 147.326 139.887 147.326C140.127 147.326 140.367 147.686 140.367 148.006L140.367 152.006C140.367 152.446 140.207 152.806 139.967 152.886C139.687 153.006 137.887 153.766 137.887 153.766C137.647 153.846 137.407 154.166 137.407 154.406L137.407 157.246C137.407 157.486 137.527 157.606 137.727 157.606C137.767 157.606 137.847 157.566 137.887 157.566C137.887 157.566 139.407 156.926 139.767 156.766L139.767 156.766C139.967 156.686 140.327 157.206 140.327 157.526L140.327 162.526C140.327 162.766 140.567 162.966 140.887 162.966C141.487 162.966 141.567 162.686 141.567 162.286L141.567 156.766C141.567 156.646 141.567 156.566 141.607 156.446C141.647 156.206 141.807 155.966 141.967 155.886C142.287 155.806 144.087 155.086 144.087 155.086C144.327 155.006 144.567 154.686 144.567 154.446L144.567 151.606C144.567 151.366 144.447 151.246 144.247 151.246C144.207 151.246 144.127 151.286 144.087 151.286C144.087 151.286 142.247 152.006 142.087 152.046C141.807 152.046 141.527 151.806 141.527 151.366L141.527 147.646C141.527 147.326 141.727 146.606 142.047 146.486C142.407 146.326 144.087 145.686 144.087 145.686C144.327 145.566 144.567 145.286 144.567 145.006Z"></path></g><line stroke="#000000" stroke-width="1.2" x1="147.20674025857778" x2="147.20674025857778" y1="150.68615384615381" y2="185.68615384615381"></line></g><g><g><path d="M220.051 149.486C224.051 149.486 228.971 145.766 228.971 141.966C228.971 139.686 227.171 138.206 224.571 138.206C219.651 138.206 215.691 141.846 215.691 145.726C215.691 148.086 217.611 149.486 220.051 149.486Z"></path><path d="M213.331 138.246C213.531 138.206 213.651 138.086 213.651 137.926L213.651 134.846C213.651 134.686 213.571 134.526 213.411 134.526C213.331 134.526 212.091 134.966 211.891 135.046C211.851 135.086 211.811 135.086 211.771 135.086C211.691 135.086 211.611 135.006 211.611 134.806C211.611 134.526 211.611 129.726 211.611 129.726C211.611 129.166 211.491 129.086 210.971 129.086C210.451 129.086 210.331 129.206 210.331 129.726C210.331 129.726 210.331 134.486 210.331 135.006C210.331 135.526 210.251 135.686 210.011 135.766C209.851 135.846 208.931 136.166 208.411 136.406C208.091 136.406 208.011 136.246 208.011 136.046C208.011 135.806 208.011 130.966 208.011 130.966C208.011 130.406 207.891 130.326 207.371 130.326C206.851 130.326 206.731 130.446 206.731 130.966C206.731 130.966 206.731 136.246 206.731 136.526C206.731 136.806 206.651 137.046 206.371 137.166L204.651 137.806C204.611 137.806 204.571 137.846 204.531 137.846C204.371 137.846 204.251 137.726 204.251 137.486C204.251 137.246 204.251 132.166 204.251 132.166C204.251 131.646 204.131 131.526 203.611 131.526C203.091 131.526 202.971 131.646 202.971 132.166C202.971 132.166 202.971 137.566 202.971 137.966C202.971 138.366 202.851 138.486 202.651 138.566C202.451 138.646 201.411 139.046 201.411 139.046C201.211 139.126 201.091 139.206 201.091 139.366L201.091 142.446C201.091 142.606 201.211 142.766 201.331 142.766C201.411 142.766 202.251 142.486 202.571 142.326C202.651 142.286 202.691 142.286 202.731 142.286C202.931 142.286 202.971 142.446 202.971 142.686L202.971 147.326C202.971 147.646 202.771 147.926 202.571 148.006C202.371 148.086 201.411 148.446 201.411 148.446C201.211 148.526 201.091 148.606 201.091 148.766L201.091 151.886C201.091 152.046 201.211 152.206 201.371 152.206C201.411 152.206 202.091 151.926 202.451 151.806C202.531 151.766 202.611 151.766 202.691 151.766C202.891 151.766 202.971 151.886 202.971 152.126C202.971 152.486 202.971 157.086 202.971 157.086C202.971 157.606 203.091 157.726 203.611 157.726C204.131 157.726 204.251 157.606 204.251 157.086C204.251 157.086 204.251 151.806 204.251 151.566C204.251 151.326 204.331 151.086 204.491 151.046L206.411 150.286C206.651 150.286 206.731 150.366 206.731 150.606C206.731 150.926 206.731 155.846 206.731 155.846C206.731 156.406 206.851 156.486 207.371 156.486C207.891 156.486 208.011 156.366 208.011 155.846C208.011 155.846 208.011 150.486 208.011 150.166C208.011 149.846 208.171 149.606 208.411 149.526L209.851 149.006C209.931 148.966 210.011 148.926 210.091 148.926C210.251 148.926 210.331 149.046 210.331 149.246C210.331 149.526 210.331 154.606 210.331 154.606C210.331 155.166 210.451 155.246 210.971 155.246C211.491 155.246 211.611 155.126 211.611 154.606C211.611 154.606 211.611 148.926 211.611 148.686C211.611 148.446 211.811 148.246 211.931 148.206C212.051 148.166 213.331 147.686 213.331 147.686C213.531 147.606 213.651 147.526 213.651 147.366L213.651 144.246C213.651 144.126 213.571 143.926 213.411 143.926C213.331 143.926 212.291 144.326 212.051 144.446C212.011 144.446 211.971 144.486 211.931 144.486C211.731 144.486 211.611 144.286 211.611 144.006L211.611 139.326C211.611 139.046 211.651 138.886 211.851 138.806C212.011 138.766 213.331 138.246 213.331 138.246ZM204.251 147.366C204.131 147.206 204.131 146.246 204.131 145.166C204.131 143.686 204.171 141.966 204.251 141.686C204.371 141.326 205.971 140.686 206.531 140.686C206.651 140.686 206.691 140.726 206.731 140.766C206.811 140.886 206.851 142.006 206.851 143.246C206.851 144.646 206.811 146.206 206.731 146.446C206.611 146.846 205.091 147.446 204.491 147.446C204.371 147.446 204.291 147.406 204.251 147.366ZM210.331 145.086C210.211 145.406 208.931 146.006 208.371 146.006C208.251 146.006 208.171 145.966 208.131 145.926C208.051 145.806 208.011 144.606 208.011 143.326C208.011 141.926 208.051 140.446 208.131 140.246C208.291 139.926 209.731 139.326 210.211 139.326C210.251 139.326 210.331 139.366 210.331 139.366C210.411 139.486 210.451 140.526 210.451 141.686C210.451 143.166 210.411 144.886 210.331 145.086Z"></path></g><line stroke="#000000" stroke-width="1.2" x1="216.2907103878667" x2="216.2907103878667" y1="145.68615384615381" y2="180.68615384615381"></line></g></g></svg>