<?xml version="1.0" encoding="UTF-8" standalone="no"?><svg xmlns="http://www.w3.org/2000/svg" class="" height="279.4mm" viewBox="0 0 1328.6153846153845 1719.3846153846152" width="215.9mm"><g><g><g><line stroke="#6A6A6A" stroke-width="1.3" x1="93.84615384615385" x2="660.0530146332262" y1="183.8461538461538" y2="183.8461538461538"></line><line stroke="#6A6A6A" stroke-width="1.3" x1="93.84615384615385" x2="660.0530146332262" y1="173.8461538461538" y2="173.8461538461538"></line><line stroke="#6A6A6A" stroke-width="1.3" x1="93.84615384615385" x2="660.0530146332262" y1="163.8461538461538" y2="163.8461538461538"></line><line stroke="#6A6A6A" stroke-width="1.3" x1="93.84615384615385" x2="660.0530146332262" y1="153.8461538461538" y2="153.8461538461538"></line><line stroke="#6A6A6A" stroke-width="1.3" x1="93.84615384615385" x2="660.0530146332262" y1="143.8461538461538" y2="143.8461538461538"></line></g><g><path d="M119.046 129.926C118.486 129.926 117.246 130.966 116.446 131.846C113.486 135.126 112.526 140.126 112.526 144.286C112.526 146.606 112.806 149.206 113.086 150.846C113.166 151.326 113.206 151.406 112.726 151.806C110.166 153.926 107.406 156.366 105.326 158.926C102.566 162.366 100.846 166.086 100.846 170.366C100.846 177.326 105.606 183.926 115.406 183.926C116.326 183.926 117.366 183.846 118.166 183.686C118.606 183.606 118.686 183.566 118.766 184.046C119.246 186.726 119.846 190.206 119.846 192.086C119.846 198.006 115.846 198.726 113.486 198.726C111.326 198.726 110.286 198.086 110.286 197.566C110.286 197.126 110.646 197.166 111.566 196.886C112.806 196.526 114.246 195.446 114.246 193.126C114.246 190.926 112.846 189.046 110.406 189.046C107.726 189.046 106.126 191.166 106.126 193.646C106.126 196.246 107.686 200.166 113.726 200.166C116.406 200.166 121.606 198.966 121.606 192.166C121.606 189.886 120.886 186.086 120.446 183.606C120.366 183.126 120.406 183.166 120.966 182.926C125.006 181.326 127.686 177.926 127.686 173.406C127.686 168.286 123.926 163.766 118.046 163.766C116.926 163.766 117.046 163.966 116.886 163.046L115.886 157.246C115.806 156.766 115.886 156.726 116.126 156.486C116.766 155.886 117.606 155.046 118.366 154.206C121.726 150.526 123.726 145.766 123.726 141.246C123.726 137.766 122.766 134.326 121.126 131.926C120.526 131.046 119.486 129.926 119.046 129.926ZM113.886 158.086C114.286 157.766 114.366 157.806 114.446 158.246L115.286 163.366C115.406 164.126 115.406 164.086 114.686 164.326C111.166 165.526 108.886 168.686 108.886 172.086C108.886 175.686 110.766 178.246 113.486 179.166C113.806 179.286 114.286 179.406 114.566 179.406C114.886 179.406 115.046 179.206 115.046 178.966C115.046 178.686 114.726 178.566 114.446 178.446C112.766 177.726 111.566 176.006 111.566 174.166C111.566 171.886 113.126 170.166 115.566 169.486C116.206 169.326 116.286 169.366 116.366 169.806L118.366 181.726C118.446 182.166 118.406 182.166 117.806 182.286C117.166 182.406 116.366 182.486 115.566 182.486C108.566 182.486 104.046 178.606 104.046 173.046C104.046 170.686 104.446 167.526 107.766 163.766C110.166 161.086 112.006 159.606 113.886 158.086ZM118.486 169.166C121.726 169.446 124.406 172.166 124.406 175.686C124.406 178.206 122.886 180.246 120.646 181.366C120.166 181.606 120.086 181.606 120.006 181.126L118.046 169.726C117.966 169.246 118.006 169.126 118.486 169.166ZM119.646 136.126C120.966 136.126 122.046 137.206 122.046 139.406C122.046 142.166 120.726 144.726 117.606 147.846C116.966 148.486 116.006 149.406 115.086 150.206C114.806 150.446 114.646 150.406 114.566 149.886C114.406 148.846 114.326 147.486 114.326 146.206C114.326 139.966 117.206 136.126 119.646 136.126Z"></path></g><g></g><path d="M151.666 153.806C150.466 153.806 149.066 154.126 147.986 154.606C144.426 156.166 142.546 160.446 142.546 164.246C142.546 164.606 142.546 164.966 142.586 165.326C142.786 167.486 143.826 169.526 145.146 171.126C146.666 172.966 148.866 173.806 151.266 173.806C158.266 173.806 159.306 167.446 159.306 166.286C159.306 165.406 158.866 165.406 158.706 165.406C158.386 165.406 158.106 165.446 158.106 166.126C158.106 171.286 153.706 172.486 152.426 172.486C149.186 172.486 147.466 169.326 147.466 162.726C147.466 156.126 150.506 154.766 152.666 154.766C154.746 154.766 155.586 155.726 155.586 156.126C155.586 156.486 155.466 157.006 154.866 157.006C153.266 157.006 152.346 158.726 152.346 159.966C152.346 162.246 154.306 162.966 155.426 162.966C155.426 162.966 158.466 162.846 158.466 159.526C158.466 154.286 152.426 153.806 151.666 153.806Z"></path></g><g><line stroke="black" stroke-width="1.6" x1="263.6875260035684" x2="263.6875260035684" y1="143.8461538461538" y2="183.8461538461538"></line></g><g><g><path d="M192.246 153.366C186.446 153.366 182.846 155.806 182.846 158.766C182.846 161.686 185.326 164.286 191.806 164.286C198.926 164.286 201.206 161.806 201.206 158.766C201.206 155.686 196.286 153.366 192.246 153.366ZM187.686 156.086C188.166 154.606 189.766 154.366 191.126 154.366C194.086 154.366 196.486 157.566 196.486 160.206C196.486 160.486 196.446 160.766 196.406 161.006C196.206 162.086 195.566 162.846 194.486 163.126C194.046 163.246 193.606 163.286 193.166 163.286C192.766 163.286 192.406 163.246 192.006 163.126C191.286 162.886 190.566 162.486 189.966 161.966C189.646 161.686 189.326 161.366 189.046 161.006C188.206 160.006 187.526 158.526 187.526 157.166C187.526 156.806 187.566 156.446 187.686 156.086Z"></path></g><text font-family="Alegreya" font-size="22" text-anchor="middle" x="192.02615384615387" y="223.8461538461538">A</text></g></g><g><g></g><g><line stroke="black" stroke-width="1.6" x1="360.3288981609829" x2="360.3288981609829" y1="143.8461538461538" y2="183.8461538461538"></line></g><g><g><path d="M288.888 153.366C283.088 153.366 279.488 155.806 279.488 158.766C279.488 161.686 281.968 164.286 288.448 164.286C295.568 164.286 297.848 161.806 297.848 158.766C297.848 155.686 292.928 153.366 288.888 153.366ZM284.328 156.086C284.808 154.606 286.408 154.366 287.768 154.366C290.728 154.366 293.128 157.566 293.128 160.206C293.128 160.486 293.088 160.766 293.048 161.006C292.848 162.086 292.208 162.846 291.128 163.126C290.688 163.246 290.248 163.286 289.808 163.286C289.408 163.286 289.048 163.246 288.648 163.126C287.928 162.886 287.208 162.486 286.608 161.966C286.288 161.686 285.968 161.366 285.688 161.006C284.848 160.006 284.168 158.526 284.168 157.166C284.168 156.806 284.208 156.446 284.328 156.086Z"></path></g><text font-family="Alegreya" font-size="22" text-anchor="middle" x="288.66752600356836" y="223.8461538461538">B</text></g></g><g><g></g><g><line stroke="black" stroke-width="1.6" x1="456.9702703183974" x2="456.9702703183974" y1="143.8461538461538" y2="183.8461538461538"></line></g><g><g><path d="M385.529 153.366C379.729 153.366 376.129 155.806 376.129 158.766C376.129 161.686 378.609 164.286 385.089 164.286C392.209 164.286 394.489 161.806 394.489 158.766C394.489 155.686 389.569 153.366 385.529 153.366ZM380.969 156.086C381.449 154.606 383.049 154.366 384.409 154.366C387.369 154.366 389.769 157.566 389.769 160.206C389.769 160.486 389.729 160.766 389.689 161.006C389.489 162.086 388.849 162.846 387.769 163.126C387.329 163.246 386.889 163.286 386.449 163.286C386.049 163.286 385.689 163.246 385.289 163.126C384.569 162.886 383.849 162.486 383.249 161.966C382.929 161.686 382.609 161.366 382.329 161.006C381.489 160.006 380.809 158.526 380.809 157.166C380.809 156.806 380.849 156.446 380.969 156.086Z"></path></g><text font-family="Alegreya" font-size="22" text-anchor="middle" x="385.3088981609829" y="223.8461538461538">C</text></g></g><g><g></g><g><line stroke="black" stroke-width="1.6" x1="553.6116424758118" x2="553.6116424758118" y1="143.8461538461538" y2="183.8461538461538"></line></g><g><g><path d="M482.170 153.366C476.370 153.366 472.770 155.806 472.770 158.766C472.770 161.686 475.250 164.286 481.730 164.286C488.850 164.286 491.130 161.806 491.130 158.766C491.130 155.686 486.210 153.366 482.170 153.366ZM477.610 156.086C478.090 154.606 479.690 154.366 481.050 154.366C484.010 154.366 486.410 157.566 486.410 160.206C486.410 160.486 486.370 160.766 486.330 161.006C486.130 162.086 485.490 162.846 484.410 163.126C483.970 163.246 483.530 163.286 483.090 163.286C482.690 163.286 482.330 163.246 481.930 163.126C481.210 162.886 480.490 162.486 479.890 161.966C479.570 161.686 479.250 161.366 478.970 161.006C478.130 160.006 477.450 158.526 477.450 157.166C477.450 156.806 477.490 156.446 477.610 156.086Z"></path></g><text font-family="Alegreya" font-size="22" text-anchor="middle" x="481.9502703183974" y="223.8461538461538">D</text></g></g><g><g></g><g><line stroke="#000000" stroke-width="1.6" x1="650.2530146332263" x2="650.2530146332263" y1="143.8461538461538" y2="183.8461538461538"></line><line stroke="#000000" stroke-width="5" x1="657.5530146332263" x2="657.5530146332263" y1="143.8461538461538" y2="183.8461538461538"></line></g><g><g><path d="M578.812 153.366C573.012 153.366 569.412 155.806 569.412 158.766C569.412 161.686 571.892 164.286 578.372 164.286C585.492 164.286 587.772 161.806 587.772 158.766C587.772 155.686 582.852 153.366 578.812 153.366ZM574.252 156.086C574.732 154.606 576.332 154.366 577.692 154.366C580.652 154.366 583.052 157.566 583.052 160.206C583.052 160.486 583.012 160.766 582.972 161.006C582.772 162.086 582.132 162.846 581.052 163.126C580.612 163.246 580.172 163.286 579.732 163.286C579.332 163.286 578.972 163.246 578.572 163.126C577.852 162.886 577.132 162.486 576.532 161.966C576.212 161.686 575.892 161.366 575.612 161.006C574.772 160.006 574.092 158.526 574.092 157.166C574.092 156.806 574.132 156.446 574.252 156.086Z"></path></g><text font-family="Alegreya" font-size="22" text-anchor="middle" x="578.5916424758118" y="223.8461538461538">E</text></g></g></svg>