<?xml version="1.0" encoding="UTF-8" standalone="no"?><svg xmlns="http://www.w3.org/2000/svg" class="" height="279.4mm" viewBox="0 0 1328.6153846153845 1719.3846153846152" width="215.9mm"><g><g><g><line stroke="#6A6A6A" stroke-width="1.3" x1="93.84615384615385" x2="554.7538461538461" y1="183.8461538461538" y2="183.8461538461538"></line><line stroke="#6A6A6A" stroke-width="1.3" x1="93.84615384615385" x2="554.7538461538461" y1="173.8461538461538" y2="173.8461538461538"></line><line stroke="#6A6A6A" stroke-width="1.3" x1="93.84615384615385" x2="554.7538461538461" y1="163.8461538461538" y2="163.8461538461538"></line><line stroke="#6A6A6A" stroke-width="1.3" x1="93.84615384615385" x2="554.7538461538461" y1="153.8461538461538" y2="153.8461538461538"></line><line stroke="#6A6A6A" stroke-width="1.3" x1="93.84615384615385" x2="554.7538461538461" y1="143.8461538461538" y2="143.8461538461538"></line></g><g><path d="M119.046 129.926C118.486 129.926 117.246 130.966 116.446 131.846C113.486 135.126 112.526 140.126 112.526 144.286C112.526 146.606 112.806 149.206 113.086 150.846C113.166 151.326 113.206 151.406 112.726 151.806C110.166 153.926 107.406 156.366 105.326 158.926C102.566 162.366 100.846 166.086 100.846 170.366C100.846 177.326 105.606 183.926 115.406 183.926C116.326 183.926 117.366 183.846 118.166 183.686C118.606 183.606 118.686 183.566 118.766 184.046C119.246 186.726 119.846 190.206 119.846 192.086C119.846 198.006 115.846 198.726 113.486 198.726C111.326 198.726 110.286 198.086 110.286 197.566C110.286 197.126 110.646 197.166 111.566 196.886C112.806 196.526 114.246 195.446 114.246 193.126C114.246 190.926 112.846 189.046 110.406 189.046C107.726 189.046 106.126 191.166 106.126 193.646C106.126 196.246 107.686 200.166 113.726 200.166C116.406 200.166 121.606 198.966 121.606 192.166C121.606 189.886 120.886 186.086 120.446 183.606C120.366 183.126 120.406 183.166 120.966 182.926C125.006 181.326 127.686 177.926 127.686 173.406C127.686 168.286 123.926 163.766 118.046 163.766C116.926 163.766 117.046 163.966 116.886 163.046L115.886 157.246C115.806 156.766 115.886 156.726 116.126 156.486C116.766 155.886 117.606 155.046 118.366 154.206C121.726 150.526 123.726 145.766 123.726 141.246C123.726 137.766 122.766 134.326 121.126 131.926C120.526 131.046 119.486 129.926 119.046 129.926ZM113.886 158.086C114.286 157.766 114.366 157.806 114.446 158.246L115.286 163.366C115.406 164.126 115.406 164.086 114.686 164.326C111.166 165.526 108.886 168.686 108.886 172.086C108.886 175.686 110.766 178.246 113.486 179.166C113.806 179.286 114.286 179.406 114.566 179.406C114.886 179.406 115.046 179.206 115.046 178.966C115.046 178.686 114.726 178.566 114.446 178.446C112.766 177.726 111.566 176.006 111.566 174.166C111.566 171.886 113.126 170.166 115.566 169.486C116.206 169.326 116.286 169.366 116.366 169.806L118.366 181.726C118.446 182.166 118.406 182.166 117.806 182.286C117.166 182.406 116.366 182.486 115.566 182.486C108.566 182.486 104.046 178.606 104.046 173.046C104.046 170.686 104.446 167.526 107.766 163.766C110.166 161.086 112.006 159.606 113.886 158.086ZM118.486 169.166C121.726 169.446 124.406 172.166 124.406 175.686C124.406 178.206 122.886 180.246 120.646 181.366C120.166 181.606 120.086 181.606 120.006 181.126L118.046 169.726C117.966 169.246 118.006 169.126 118.486 169.166ZM119.646 136.126C120.966 136.126 122.046 137.206 122.046 139.406C122.046 142.166 120.726 144.726 117.606 147.846C116.966 148.486 116.006 149.406 115.086 150.206C114.806 150.446 114.646 150.406 114.566 149.886C114.406 148.846 114.326 147.486 114.326 146.206C114.326 139.966 117.206 136.126 119.646 136.126Z"></path></g><g></g><path d="M151.666 153.806C150.466 153.806 149.066 154.126 147.986 154.606C144.426 156.166 142.546 160.446 142.546 164.246C142.546 164.606 142.546 164.966 142.586 165.326C142.786 167.486 143.826 169.526 145.146 171.126C146.666 172.966 148.866 173.806 151.266 173.806C158.266 173.806 159.306 167.446 159.306 166.286C159.306 165.406 158.866 165.406 158.706 165.406C158.386 165.406 158.106 165.446 158.106 166.126C158.106 171.286 153.706 172.486 152.426 172.486C149.186 172.486 147.466 169.326 147.466 162.726C147.466 156.126 150.506 154.766 152.666 154.766C154.746 154.766 155.586 155.726 155.586 156.126C155.586 156.486 155.466 157.006 154.866 157.006C153.266 157.006 152.346 158.726 152.346 159.966C152.346 162.246 154.306 162.966 155.426 162.966C155.426 162.966 158.466 162.846 158.466 159.526C158.466 154.286 152.426 153.806 151.666 153.806Z"></path></g><g><line stroke="#000000" stroke-width="1.6" x1="544.9538461538461" x2="544.9538461538461" y1="143.8461538461538" y2="183.8461538461538"></line><line stroke="#000000" stroke-width="5" x1="552.2538461538462" x2="552.2538461538462" y1="143.8461538461538" y2="183.8461538461538"></line></g><g><g><path d="M192.246 168.366C186.446 168.366 182.846 170.806 182.846 173.766C182.846 176.686 185.326 179.286 191.806 179.286C198.926 179.286 201.206 176.806 201.206 173.766C201.206 170.686 196.286 168.366 192.246 168.366ZM187.686 171.086C188.166 169.606 189.766 169.366 191.126 169.366C194.086 169.366 196.486 172.566 196.486 175.206C196.486 175.486 196.446 175.766 196.406 176.006C196.206 177.086 195.566 177.846 194.486 178.126C194.046 178.246 193.606 178.286 193.166 178.286C192.766 178.286 192.406 178.246 192.006 178.126C191.286 177.886 190.566 177.486 189.966 176.966C189.646 176.686 189.326 176.366 189.046 176.006C188.206 175.006 187.526 173.526 187.526 172.166C187.526 171.806 187.566 171.446 187.686 171.086Z"></path></g><text font-family="Alegreya" font-size="22" text-anchor="middle" x="192.02615384615387" y="223.8461538461538">A</text></g></g></svg>