<?xml version="1.0" encoding="UTF-8" standalone="no"?><svg xmlns="http://www.w3.org/2000/svg" height="279.4mm" viewBox="0 0 1328.6153846153845 1719.3846153846152" width="215.9mm"><g transform="translate(93.84615384615385)"><g><g><line stroke="#6A6A6A" stroke-width="1.3" x1="0" x2="508.82789347547146" y1="183.8461538461538" y2="183.8461538461538"></line><line stroke="#6A6A6A" stroke-width="1.3" x1="0" x2="508.82789347547146" y1="173.8461538461538" y2="173.8461538461538"></line><line stroke="#6A6A6A" stroke-width="1.3" x1="0" x2="508.82789347547146" y1="163.8461538461538" y2="163.8461538461538"></line><line stroke="#6A6A6A" stroke-width="1.3" x1="0" x2="508.82789347547146" y1="153.8461538461538" y2="153.8461538461538"></line><line stroke="#6A6A6A" stroke-width="1.3" x1="0" x2="508.82789347547146" y1="143.8461538461538" y2="143.8461538461538"></line></g><g><path d="M25.200 129.926C24.640 129.926 23.400 130.966 22.600 131.846C19.640 135.126 18.680 140.126 18.680 144.286C18.680 146.606 18.960 149.206 19.240 150.846C19.320 151.326 19.360 151.406 18.880 151.806C16.320 153.926 13.560 156.366 11.480 158.926C8.720 162.366 7 166.086 7 170.366C7 177.326 11.760 183.926 21.560 183.926C22.480 183.926 23.520 183.846 24.320 183.686C24.760 183.606 24.840 183.566 24.920 184.046C25.400 186.726 26 190.206 26 192.086C26 198.006 22 198.726 19.640 198.726C17.480 198.726 16.440 198.086 16.440 197.566C16.440 197.126 16.800 197.166 17.720 196.886C18.960 196.526 20.400 195.446 20.400 193.126C20.400 190.926 19 189.046 16.560 189.046C13.880 189.046 12.280 191.166 12.280 193.646C12.280 196.246 13.840 200.166 19.880 200.166C22.560 200.166 27.760 198.966 27.760 192.166C27.760 189.886 27.040 186.086 26.600 183.606C26.520 183.126 26.560 183.166 27.120 182.926C31.160 181.326 33.840 177.926 33.840 173.406C33.840 168.286 30.080 163.766 24.200 163.766C23.080 163.766 23.200 163.966 23.040 163.046L22.040 157.246C21.960 156.766 22.040 156.726 22.280 156.486C22.920 155.886 23.760 155.046 24.520 154.206C27.880 150.526 29.880 145.766 29.880 141.246C29.880 137.766 28.920 134.326 27.280 131.926C26.680 131.046 25.640 129.926 25.200 129.926ZM20.040 158.086C20.440 157.766 20.520 157.806 20.600 158.246L21.440 163.366C21.560 164.126 21.560 164.086 20.840 164.326C17.320 165.526 15.040 168.686 15.040 172.086C15.040 175.686 16.920 178.246 19.640 179.166C19.960 179.286 20.440 179.406 20.720 179.406C21.040 179.406 21.200 179.206 21.200 178.966C21.200 178.686 20.880 178.566 20.600 178.446C18.920 177.726 17.720 176.006 17.720 174.166C17.720 171.886 19.280 170.166 21.720 169.486C22.360 169.326 22.440 169.366 22.520 169.806L24.520 181.726C24.600 182.166 24.560 182.166 23.960 182.286C23.320 182.406 22.520 182.486 21.720 182.486C14.720 182.486 10.200 178.606 10.200 173.046C10.200 170.686 10.600 167.526 13.920 163.766C16.320 161.086 18.160 159.606 20.040 158.086ZM24.640 169.166C27.880 169.446 30.560 172.166 30.560 175.686C30.560 178.206 29.040 180.246 26.800 181.366C26.320 181.606 26.240 181.606 26.160 181.126L24.200 169.726C24.120 169.246 24.160 169.126 24.640 169.166ZM25.800 136.126C27.120 136.126 28.200 137.206 28.200 139.406C28.200 142.166 26.880 144.726 23.760 147.846C23.120 148.486 22.160 149.406 21.240 150.206C20.960 150.446 20.800 150.406 20.720 149.886C20.560 148.846 20.480 147.486 20.480 146.206C20.480 139.966 23.360 136.126 25.800 136.126Z"></path></g><g></g><g><g><path d="M56.380 143.926C56.180 143.926 55.980 143.886 55.780 143.886C52.340 143.886 48.900 146.166 48.900 148.286C48.900 149.606 49.660 151.366 52.140 151.526L52.340 151.526C54.100 151.526 54.980 150.246 54.980 148.926L54.980 148.606C54.860 147.126 53.860 147.046 53.660 146.966C53.460 146.886 52.860 146.966 52.860 146.406L52.860 146.246C52.940 145.566 54.180 145.246 54.540 145.246C57.940 145.246 58.260 147.366 58.260 148.326L58.260 148.606C58.260 151.566 55.900 152.726 53.380 152.846C52.980 152.886 52.420 153.086 52.420 153.526C52.420 154.006 53.100 154.006 53.420 154.006C58.020 154.006 58.380 157.126 58.380 157.646C58.380 161.886 56.220 162.366 55.340 162.366C55.180 162.366 55.020 162.326 54.980 162.326C54.660 162.286 53.900 162.286 53.860 161.686L53.860 161.486C53.860 160.606 54.740 160.006 54.780 158.846C54.780 158.446 54.740 158.006 54.580 157.606C54.140 156.606 52.980 155.966 51.900 155.966C51.740 155.966 51.620 155.966 51.460 156.006C50.780 156.126 50.020 156.526 49.540 157.046C48.860 157.646 48.660 158.606 48.660 159.486C48.740 162.606 51.580 163.806 55.500 163.886L55.860 163.886C59.820 163.886 63.900 161.846 63.900 158.326L63.900 158.046C63.860 157.486 63.780 156.926 63.540 156.406C63.380 156.006 63.100 155.606 62.780 155.246C62.540 154.926 62.220 154.646 61.820 154.406L60.980 153.926L59.660 153.566C59.460 153.526 59.340 153.526 59.260 153.366C59.220 153.286 59.220 153.246 59.220 153.166C59.220 153.006 59.260 152.846 59.380 152.806C59.820 152.686 60.260 152.646 60.620 152.446C61.220 152.166 61.740 151.886 62.180 151.366C62.820 150.646 63.060 149.726 63.060 148.806C63.060 145.126 58.060 144.046 56.380 143.926Z"></path></g><g><path d="M65.180 176.806L62.260 176.806L62.260 168.246C62.260 167.926 62.220 167.566 61.780 167.566C61.420 167.566 61.220 167.646 60.980 167.926L57.180 172.526C57.020 172.726 56.820 172.966 56.820 173.446C56.820 173.446 56.820 175.046 56.820 176.806L51.420 176.806C54.620 174.086 61.020 165.006 61.140 164.566C61.140 164.486 61.180 164.446 61.180 164.366C61.180 164.046 60.900 163.806 60.580 163.806C60.220 163.806 58.580 163.886 57.860 163.886C57.140 163.886 55.340 163.806 55.020 163.806C54.660 163.806 54.100 163.926 54.100 164.566C54.100 169.526 50.180 175.086 48.980 176.766L48.740 177.086C48.740 177.126 48.700 177.166 48.700 177.206C48.620 177.366 48.580 177.526 48.580 177.646C48.580 178.046 48.900 178.326 49.380 178.326L56.820 178.326L56.820 180.846C56.820 181.926 55.940 182.246 55.220 182.246C54.580 182.246 54.300 182.606 54.300 183.006C54.300 183.406 54.460 183.846 55.060 183.846C55.700 183.846 63.580 183.846 63.580 183.846C63.980 183.846 64.380 183.566 64.380 183.006C64.380 182.446 63.900 182.206 63.500 182.206C63.100 182.206 62.260 181.966 62.260 180.686L62.260 178.326C63.980 178.326 65.180 178.326 65.180 178.326C65.580 178.326 65.780 178.046 65.780 177.566C65.780 177.086 65.620 176.806 65.180 176.806Z"></path></g></g></g><g><line stroke="black" stroke-width="1.6" x1="499.0278934754715" x2="499.0278934754715" y1="143.8461538461538" y2="183.8461538461538"></line><line stroke="black" stroke-width="5" x1="506.3278934754715" x2="506.3278934754715" y1="143.8461538461538" y2="183.8461538461538"></line></g><g><g><path d="M102.120 174.486C106.120 174.486 111.040 170.766 111.040 166.966C111.040 164.686 109.240 163.206 106.640 163.206C101.720 163.206 97.760 166.846 97.760 170.726C97.760 173.086 99.680 174.486 102.120 174.486Z"></path><path d="M95.240 164.126C95.520 164.006 95.720 163.686 95.720 163.446L95.720 160.606C95.720 160.406 95.600 160.286 95.440 160.286C95.360 160.286 95.320 160.286 95.240 160.326C95.240 160.326 94.440 160.646 94.240 160.686C93.960 160.686 93.680 160.486 93.680 160.166C93.680 159.766 93.680 155.286 93.680 155.286C93.680 155.046 93.440 154.846 93.120 154.846C92.720 154.846 92.480 155.046 92.480 155.286C92.480 155.286 92.480 160.086 92.480 160.486C92.440 160.886 92.320 161.406 91.960 161.646C91.480 161.926 90.120 162.486 89.440 162.646C89.080 162.646 88.960 162.166 88.960 161.846C88.960 161.446 88.960 157.046 88.960 157.046C88.960 156.806 88.680 156.606 88.400 156.606C88 156.606 87.760 156.806 87.760 157.046C87.760 157.046 87.760 159.206 87.760 160.806L87.760 162.446C87.760 163.006 87.520 163.406 87.280 163.526C87.040 163.646 86.240 163.966 86.240 163.966C85.960 164.046 85.760 164.366 85.760 164.606L85.760 167.446C85.760 167.686 85.880 167.806 86.080 167.806C86.120 167.806 86.200 167.766 86.240 167.766C86.240 167.766 86.840 167.526 87.120 167.366C87.160 167.366 87.200 167.326 87.240 167.326C87.520 167.326 87.760 167.726 87.760 168.046L87.760 172.006C87.760 172.446 87.560 172.806 87.320 172.926C87.080 173.006 86.240 173.366 86.240 173.366C85.960 173.446 85.760 173.766 85.760 174.006L85.760 176.846C85.760 177.086 85.880 177.206 86.080 177.206C86.120 177.206 86.200 177.166 86.240 177.166C86.240 177.166 86.800 176.926 87.160 176.806C87.200 176.766 87.240 176.766 87.280 176.766C87.560 176.766 87.760 177.206 87.760 177.406C87.760 177.646 87.760 182.326 87.760 182.326C87.760 182.566 88 182.766 88.280 182.766C88.680 182.766 88.960 182.566 88.960 182.326C88.960 182.326 88.960 177.246 88.960 176.766C88.960 176.246 89.160 175.966 89.360 175.886L91.800 174.886C91.840 174.886 91.920 174.846 91.960 174.846C92.280 174.846 92.480 175.326 92.480 175.566C92.480 175.846 92.480 180.566 92.480 180.566C92.480 180.806 92.720 181.006 93 181.006C93.440 181.006 93.680 180.806 93.680 180.566C93.680 180.566 93.680 175.166 93.680 174.886C93.680 174.566 93.840 174.086 94.120 173.966C94.400 173.846 95.240 173.526 95.240 173.526C95.520 173.406 95.720 173.086 95.720 172.846L95.720 170.006C95.720 169.806 95.600 169.686 95.440 169.686C95.360 169.686 95.320 169.686 95.240 169.726C95.240 169.726 94.400 170.046 94.200 170.126C93.960 170.126 93.680 169.886 93.680 169.406L93.680 165.686C93.680 165.406 93.880 164.646 94.200 164.526C94.520 164.406 95.240 164.126 95.240 164.126ZM92.480 170.646C92.240 171.446 90.360 172.246 89.440 172.246C89.200 172.246 89 172.166 88.960 172.046C88.880 171.886 88.840 171.006 88.840 170.046C88.840 168.806 88.880 167.406 88.960 167.086C89.040 166.406 90.880 165.566 91.880 165.566C92.160 165.566 92.400 165.646 92.480 165.806C92.560 166.006 92.640 167.006 92.640 168.086C92.640 169.166 92.560 170.286 92.480 170.646Z"></path></g><line stroke="#000000" stroke-width="1.2" x1="110.44000000000001" x2="110.44000000000001" y1="167.0061538461538" y2="129.0061538461538"></line><g><path d="M97.920 118.766C98.040 118.726 110.160 114.646 110.160 114.646C110.680 114.526 110.680 114.246 110.680 113.926C110.680 113.606 110.680 113.366 110.160 113.206L98.160 109.126C98 109.086 97.920 109.046 97.800 109.046C97.440 109.046 97.320 109.286 97.200 109.606C97.160 109.766 97.120 109.886 97.120 110.006C97.120 110.206 97.240 110.406 97.680 110.566C97.680 110.566 106.320 113.486 106.720 113.646C106.920 113.686 107 113.806 107 113.926C107 114.046 106.920 114.126 106.680 114.206C106.240 114.326 97.680 117.246 97.680 117.246C97.240 117.446 97.120 117.646 97.120 117.846C97.120 117.966 97.160 118.086 97.200 118.206C97.320 118.486 97.480 118.806 97.760 118.806C97.800 118.806 97.880 118.806 97.920 118.766Z"></path><path d="M100.480 117.166C100.480 116.246 99.720 115.486 98.800 115.486C97.880 115.486 97.120 116.246 97.120 117.166C97.120 118.086 97.880 118.846 98.800 118.846C99.720 118.846 100.480 118.086 100.480 117.166Z"></path></g></g><g><g><path d="M238.529 174.486C242.529 174.486 247.449 170.766 247.449 166.966C247.449 164.686 245.649 163.206 243.049 163.206C238.129 163.206 234.169 166.846 234.169 170.726C234.169 173.086 236.089 174.486 238.529 174.486Z"></path><path d="M231.649 164.126C231.929 164.006 232.129 163.686 232.129 163.446L232.129 160.606C232.129 160.406 232.009 160.286 231.849 160.286C231.769 160.286 231.729 160.286 231.649 160.326C231.649 160.326 230.849 160.646 230.649 160.686C230.369 160.686 230.089 160.486 230.089 160.166C230.089 159.766 230.089 155.286 230.089 155.286C230.089 155.046 229.849 154.846 229.529 154.846C229.129 154.846 228.889 155.046 228.889 155.286C228.889 155.286 228.889 160.086 228.889 160.486C228.849 160.886 228.729 161.406 228.369 161.646C227.889 161.926 226.529 162.486 225.849 162.646C225.489 162.646 225.369 162.166 225.369 161.846C225.369 161.446 225.369 157.046 225.369 157.046C225.369 156.806 225.089 156.606 224.809 156.606C224.409 156.606 224.169 156.806 224.169 157.046C224.169 157.046 224.169 159.206 224.169 160.806L224.169 162.446C224.169 163.006 223.929 163.406 223.689 163.526C223.449 163.646 222.649 163.966 222.649 163.966C222.369 164.046 222.169 164.366 222.169 164.606L222.169 167.446C222.169 167.686 222.289 167.806 222.489 167.806C222.529 167.806 222.609 167.766 222.649 167.766C222.649 167.766 223.249 167.526 223.529 167.366C223.569 167.366 223.609 167.326 223.649 167.326C223.929 167.326 224.169 167.726 224.169 168.046L224.169 172.006C224.169 172.446 223.969 172.806 223.729 172.926C223.489 173.006 222.649 173.366 222.649 173.366C222.369 173.446 222.169 173.766 222.169 174.006L222.169 176.846C222.169 177.086 222.289 177.206 222.489 177.206C222.529 177.206 222.609 177.166 222.649 177.166C222.649 177.166 223.209 176.926 223.569 176.806C223.609 176.766 223.649 176.766 223.689 176.766C223.969 176.766 224.169 177.206 224.169 177.406C224.169 177.646 224.169 182.326 224.169 182.326C224.169 182.566 224.409 182.766 224.689 182.766C225.089 182.766 225.369 182.566 225.369 182.326C225.369 182.326 225.369 177.246 225.369 176.766C225.369 176.246 225.569 175.966 225.769 175.886L228.209 174.886C228.249 174.886 228.329 174.846 228.369 174.846C228.689 174.846 228.889 175.326 228.889 175.566C228.889 175.846 228.889 180.566 228.889 180.566C228.889 180.806 229.129 181.006 229.409 181.006C229.849 181.006 230.089 180.806 230.089 180.566C230.089 180.566 230.089 175.166 230.089 174.886C230.089 174.566 230.249 174.086 230.529 173.966C230.809 173.846 231.649 173.526 231.649 173.526C231.929 173.406 232.129 173.086 232.129 172.846L232.129 170.006C232.129 169.806 232.009 169.686 231.849 169.686C231.769 169.686 231.729 169.686 231.649 169.726C231.649 169.726 230.809 170.046 230.609 170.126C230.369 170.126 230.089 169.886 230.089 169.406L230.089 165.686C230.089 165.406 230.289 164.646 230.609 164.526C230.929 164.406 231.649 164.126 231.649 164.126ZM228.889 170.646C228.649 171.446 226.769 172.246 225.849 172.246C225.609 172.246 225.409 172.166 225.369 172.046C225.289 171.886 225.249 171.006 225.249 170.046C225.249 168.806 225.289 167.406 225.369 167.086C225.449 166.406 227.289 165.566 228.289 165.566C228.569 165.566 228.809 165.646 228.889 165.806C228.969 166.006 229.049 167.006 229.049 168.086C229.049 169.166 228.969 170.286 228.889 170.646Z"></path></g><line stroke="#000000" stroke-width="1.2" x1="246.84929782515718" x2="246.84929782515718" y1="167.0061538461538" y2="129.0061538461538"></line><g><path d="M234.329 118.766C234.449 118.726 246.569 114.646 246.569 114.646C247.089 114.526 247.089 114.246 247.089 113.926C247.089 113.606 247.089 113.366 246.569 113.206L234.569 109.126C234.409 109.086 234.329 109.046 234.209 109.046C233.849 109.046 233.729 109.286 233.609 109.606C233.569 109.766 233.529 109.886 233.529 110.006C233.529 110.206 233.649 110.406 234.089 110.566C234.089 110.566 242.729 113.486 243.129 113.646C243.329 113.686 243.409 113.806 243.409 113.926C243.409 114.046 243.329 114.126 243.089 114.206C242.649 114.326 234.089 117.246 234.089 117.246C233.649 117.446 233.529 117.646 233.529 117.846C233.529 117.966 233.569 118.086 233.609 118.206C233.729 118.486 233.889 118.806 234.169 118.806C234.209 118.806 234.289 118.806 234.329 118.766Z"></path><path d="M236.889 117.166C236.889 116.246 236.129 115.486 235.209 115.486C234.289 115.486 233.529 116.246 233.529 117.166C233.529 118.086 234.289 118.846 235.209 118.846C236.129 118.846 236.889 118.086 236.889 117.166Z"></path></g></g><g><g><path d="M374.939 174.486C378.939 174.486 383.859 170.766 383.859 166.966C383.859 164.686 382.059 163.206 379.459 163.206C374.539 163.206 370.579 166.846 370.579 170.726C370.579 173.086 372.499 174.486 374.939 174.486Z"></path><path d="M368.059 164.126C368.339 164.006 368.539 163.686 368.539 163.446L368.539 160.606C368.539 160.406 368.419 160.286 368.259 160.286C368.179 160.286 368.139 160.286 368.059 160.326C368.059 160.326 367.259 160.646 367.059 160.686C366.779 160.686 366.499 160.486 366.499 160.166C366.499 159.766 366.499 155.286 366.499 155.286C366.499 155.046 366.259 154.846 365.939 154.846C365.539 154.846 365.299 155.046 365.299 155.286C365.299 155.286 365.299 160.086 365.299 160.486C365.259 160.886 365.139 161.406 364.779 161.646C364.299 161.926 362.939 162.486 362.259 162.646C361.899 162.646 361.779 162.166 361.779 161.846C361.779 161.446 361.779 157.046 361.779 157.046C361.779 156.806 361.499 156.606 361.219 156.606C360.819 156.606 360.579 156.806 360.579 157.046C360.579 157.046 360.579 159.206 360.579 160.806L360.579 162.446C360.579 163.006 360.339 163.406 360.099 163.526C359.859 163.646 359.059 163.966 359.059 163.966C358.779 164.046 358.579 164.366 358.579 164.606L358.579 167.446C358.579 167.686 358.699 167.806 358.899 167.806C358.939 167.806 359.019 167.766 359.059 167.766C359.059 167.766 359.659 167.526 359.939 167.366C359.979 167.366 360.019 167.326 360.059 167.326C360.339 167.326 360.579 167.726 360.579 168.046L360.579 172.006C360.579 172.446 360.379 172.806 360.139 172.926C359.899 173.006 359.059 173.366 359.059 173.366C358.779 173.446 358.579 173.766 358.579 174.006L358.579 176.846C358.579 177.086 358.699 177.206 358.899 177.206C358.939 177.206 359.019 177.166 359.059 177.166C359.059 177.166 359.619 176.926 359.979 176.806C360.019 176.766 360.059 176.766 360.099 176.766C360.379 176.766 360.579 177.206 360.579 177.406C360.579 177.646 360.579 182.326 360.579 182.326C360.579 182.566 360.819 182.766 361.099 182.766C361.499 182.766 361.779 182.566 361.779 182.326C361.779 182.326 361.779 177.246 361.779 176.766C361.779 176.246 361.979 175.966 362.179 175.886L364.619 174.886C364.659 174.886 364.739 174.846 364.779 174.846C365.099 174.846 365.299 175.326 365.299 175.566C365.299 175.846 365.299 180.566 365.299 180.566C365.299 180.806 365.539 181.006 365.819 181.006C366.259 181.006 366.499 180.806 366.499 180.566C366.499 180.566 366.499 175.166 366.499 174.886C366.499 174.566 366.659 174.086 366.939 173.966C367.219 173.846 368.059 173.526 368.059 173.526C368.339 173.406 368.539 173.086 368.539 172.846L368.539 170.006C368.539 169.806 368.419 169.686 368.259 169.686C368.179 169.686 368.139 169.686 368.059 169.726C368.059 169.726 367.219 170.046 367.019 170.126C366.779 170.126 366.499 169.886 366.499 169.406L366.499 165.686C366.499 165.406 366.699 164.646 367.019 164.526C367.339 164.406 368.059 164.126 368.059 164.126ZM365.299 170.646C365.059 171.446 363.179 172.246 362.259 172.246C362.019 172.246 361.819 172.166 361.779 172.046C361.699 171.886 361.659 171.006 361.659 170.046C361.659 168.806 361.699 167.406 361.779 167.086C361.859 166.406 363.699 165.566 364.699 165.566C364.979 165.566 365.219 165.646 365.299 165.806C365.379 166.006 365.459 167.006 365.459 168.086C365.459 169.166 365.379 170.286 365.299 170.646Z"></path></g><line stroke="#000000" stroke-width="1.2" x1="383.25859565031436" x2="383.25859565031436" y1="167.0061538461538" y2="129.0061538461538"></line><g><path d="M370.739 118.766C370.859 118.726 382.979 114.646 382.979 114.646C383.499 114.526 383.499 114.246 383.499 113.926C383.499 113.606 383.499 113.366 382.979 113.206L370.979 109.126C370.819 109.086 370.739 109.046 370.619 109.046C370.259 109.046 370.139 109.286 370.019 109.606C369.979 109.766 369.939 109.886 369.939 110.006C369.939 110.206 370.059 110.406 370.499 110.566C370.499 110.566 379.139 113.486 379.539 113.646C379.739 113.686 379.819 113.806 379.819 113.926C379.819 114.046 379.739 114.126 379.499 114.206C379.059 114.326 370.499 117.246 370.499 117.246C370.059 117.446 369.939 117.646 369.939 117.846C369.939 117.966 369.979 118.086 370.019 118.206C370.139 118.486 370.299 118.806 370.579 118.806C370.619 118.806 370.699 118.806 370.739 118.766Z"></path><path d="M373.299 117.166C373.299 116.246 372.539 115.486 371.619 115.486C370.699 115.486 369.939 116.246 369.939 117.166C369.939 118.086 370.699 118.846 371.619 118.846C372.539 118.846 373.299 118.086 373.299 117.166Z"></path></g></g></g></svg>