<?xml version="1.0" encoding="UTF-8" standalone="no"?><svg xmlns="http://www.w3.org/2000/svg" class="" height="279.4mm" viewBox="0 0 1328.6153846153845 1719.3846153846152" width="215.9mm"><g><g><g><line stroke="#6A6A6A" stroke-width="1.3" x1="93.84615384615385" x2="1234.7692307692307" y1="198.8461538461538" y2="198.8461538461538"></line><line stroke="#6A6A6A" stroke-width="1.3" x1="93.84615384615385" x2="1234.7692307692307" y1="188.8461538461538" y2="188.8461538461538"></line><line stroke="#6A6A6A" stroke-width="1.3" x1="93.84615384615385" x2="1234.7692307692307" y1="178.8461538461538" y2="178.8461538461538"></line><line stroke="#6A6A6A" stroke-width="1.3" x1="93.84615384615385" x2="1234.7692307692307" y1="168.8461538461538" y2="168.8461538461538"></line><line stroke="#6A6A6A" stroke-width="1.3" x1="93.84615384615385" x2="1234.7692307692307" y1="158.8461538461538" y2="158.8461538461538"></line></g><g><path d="M119.046 144.926C118.486 144.926 117.246 145.966 116.446 146.846C113.486 150.126 112.526 155.126 112.526 159.286C112.526 161.606 112.806 164.206 113.086 165.846C113.166 166.326 113.206 166.406 112.726 166.806C110.166 168.926 107.406 171.366 105.326 173.926C102.566 177.366 100.846 181.086 100.846 185.366C100.846 192.326 105.606 198.926 115.406 198.926C116.326 198.926 117.366 198.846 118.166 198.686C118.606 198.606 118.686 198.566 118.766 199.046C119.246 201.726 119.846 205.206 119.846 207.086C119.846 213.006 115.846 213.726 113.486 213.726C111.326 213.726 110.286 213.086 110.286 212.566C110.286 212.126 110.646 212.166 111.566 211.886C112.806 211.526 114.246 210.446 114.246 208.126C114.246 205.926 112.846 204.046 110.406 204.046C107.726 204.046 106.126 206.166 106.126 208.646C106.126 211.246 107.686 215.166 113.726 215.166C116.406 215.166 121.606 213.966 121.606 207.166C121.606 204.886 120.886 201.086 120.446 198.606C120.366 198.126 120.406 198.166 120.966 197.926C125.006 196.326 127.686 192.926 127.686 188.406C127.686 183.286 123.926 178.766 118.046 178.766C116.926 178.766 117.046 178.966 116.886 178.046L115.886 172.246C115.806 171.766 115.886 171.726 116.126 171.486C116.766 170.886 117.606 170.046 118.366 169.206C121.726 165.526 123.726 160.766 123.726 156.246C123.726 152.766 122.766 149.326 121.126 146.926C120.526 146.046 119.486 144.926 119.046 144.926ZM113.886 173.086C114.286 172.766 114.366 172.806 114.446 173.246L115.286 178.366C115.406 179.126 115.406 179.086 114.686 179.326C111.166 180.526 108.886 183.686 108.886 187.086C108.886 190.686 110.766 193.246 113.486 194.166C113.806 194.286 114.286 194.406 114.566 194.406C114.886 194.406 115.046 194.206 115.046 193.966C115.046 193.686 114.726 193.566 114.446 193.446C112.766 192.726 111.566 191.006 111.566 189.166C111.566 186.886 113.126 185.166 115.566 184.486C116.206 184.326 116.286 184.366 116.366 184.806L118.366 196.726C118.446 197.166 118.406 197.166 117.806 197.286C117.166 197.406 116.366 197.486 115.566 197.486C108.566 197.486 104.046 193.606 104.046 188.046C104.046 185.686 104.446 182.526 107.766 178.766C110.166 176.086 112.006 174.606 113.886 173.086ZM118.486 184.166C121.726 184.446 124.406 187.166 124.406 190.686C124.406 193.206 122.886 195.246 120.646 196.366C120.166 196.606 120.086 196.606 120.006 196.126L118.046 184.726C117.966 184.246 118.006 184.126 118.486 184.166ZM119.646 151.126C120.966 151.126 122.046 152.206 122.046 154.406C122.046 157.166 120.726 159.726 117.606 162.846C116.966 163.486 116.006 164.406 115.086 165.206C114.806 165.446 114.646 165.406 114.566 164.886C114.406 163.846 114.326 162.486 114.326 161.206C114.326 154.966 117.206 151.126 119.646 151.126Z"></path></g><g></g><path d="M151.666 168.806C150.466 168.806 149.066 169.126 147.986 169.606C144.426 171.166 142.546 175.446 142.546 179.246C142.546 179.606 142.546 179.966 142.586 180.326C142.786 182.486 143.826 184.526 145.146 186.126C146.666 187.966 148.866 188.806 151.266 188.806C158.266 188.806 159.306 182.446 159.306 181.286C159.306 180.406 158.866 180.406 158.706 180.406C158.386 180.406 158.106 180.446 158.106 181.126C158.106 186.286 153.706 187.486 152.426 187.486C149.186 187.486 147.466 184.326 147.466 177.726C147.466 171.126 150.506 169.766 152.666 169.766C154.746 169.766 155.586 170.726 155.586 171.126C155.586 171.486 155.466 172.006 154.866 172.006C153.266 172.006 152.346 173.726 152.346 174.966C152.346 177.246 154.306 177.966 155.426 177.966C155.426 177.966 158.466 177.846 158.466 174.526C158.466 169.286 152.426 168.806 151.666 168.806Z"></path></g><g><line stroke="black" stroke-width="1.6" x1="248.63146337923087" x2="248.63146337923087" y1="158.8461538461538" y2="198.8461538461538"></line></g><g><g><path d="M192.246 203.366C186.446 203.366 182.846 205.806 182.846 208.766C182.846 211.686 185.326 214.286 191.806 214.286C198.926 214.286 201.206 211.806 201.206 208.766C201.206 205.686 196.286 203.366 192.246 203.366ZM187.686 206.086C188.166 204.606 189.766 204.366 191.126 204.366C194.086 204.366 196.486 207.566 196.486 210.206C196.486 210.486 196.446 210.766 196.406 211.006C196.206 212.086 195.566 212.846 194.486 213.126C194.046 213.246 193.606 213.286 193.166 213.286C192.766 213.286 192.406 213.246 192.006 213.126C191.286 212.886 190.566 212.486 189.966 211.966C189.646 211.686 189.326 211.366 189.046 211.006C188.206 210.006 187.526 208.526 187.526 207.166C187.526 206.806 187.566 206.446 187.686 206.086Z"></path></g><line stroke="#000000" stroke-width="2.2" x1="179.64615384615388" x2="206.4461538461539" y1="208.8461538461538" y2="208.8461538461538"></line></g></g><g><g><g><path d="M281.171 186.006C281.171 182.926 279.171 179.846 275.331 179.846C274.051 179.846 273.611 180.686 273.251 180.686C272.851 180.686 272.451 180.086 272.211 179.686C272.091 179.366 271.891 179.126 271.891 178.846C271.891 178.606 272.011 178.486 272.171 178.126C272.211 178.046 272.291 178.046 272.291 177.966C272.531 177.606 272.931 177.046 273.251 177.046C273.611 177.046 274.051 177.806 275.331 177.806C279.171 177.806 281.171 174.766 281.171 171.726C281.171 168.686 278.611 165.566 274.811 165.566C270.971 165.566 269.811 168.086 269.811 169.166C269.811 170.286 270.691 171.486 271.851 171.486C272.971 171.486 274.051 170.526 274.051 169.486C274.051 168.566 272.851 167.926 272.611 167.726C272.531 167.646 272.131 167.566 272.131 167.406C272.131 167.366 272.131 167.326 272.211 167.286C272.731 166.766 273.331 166.606 273.931 166.606C276.211 166.606 276.731 168.566 276.731 170.206L276.731 173.366C276.731 175.406 276.651 176.126 274.891 176.126C273.171 176.126 272.491 175.406 272.091 174.086C271.891 173.526 271.691 173.326 271.491 173.326C271.211 173.326 270.971 173.726 270.891 174.086C270.211 177.246 269.171 177.406 268.411 177.486L268.411 166.166C268.411 165.806 267.811 165.566 267.491 165.566C267.171 165.566 266.931 165.806 266.931 166.166L266.931 191.566C266.931 191.886 267.171 192.126 267.491 192.126C267.811 192.126 268.411 191.886 268.411 191.566L268.411 180.206C269.171 180.286 270.211 180.446 270.891 183.606C270.971 183.966 271.211 184.366 271.491 184.366C271.691 184.366 271.891 184.166 272.091 183.606C272.491 182.286 273.171 181.526 274.891 181.526C276.651 181.526 276.731 182.286 276.731 184.366L276.731 187.486C276.731 189.166 276.211 191.046 273.931 191.046C272.851 191.046 272.491 190.686 272.251 190.446C272.171 190.366 272.131 190.326 272.131 190.286C272.131 190.126 272.451 190.046 272.531 189.966C272.811 189.686 274.051 189.246 274.051 188.166C274.051 187.126 272.971 186.166 271.851 186.166C270.691 186.166 269.811 187.406 269.811 188.486C269.811 189.566 270.971 192.126 274.811 192.126C278.611 192.126 281.171 189.006 281.171 186.006ZM265.011 166.166C265.011 165.846 264.771 165.566 264.411 165.566L261.531 165.566C261.211 165.566 260.931 165.846 260.931 166.166L260.931 191.526C260.931 191.846 261.211 192.126 261.531 192.126L264.411 192.126C264.771 192.126 265.011 191.846 265.011 191.526Z"></path></g></g><g><line stroke="black" stroke-width="1.6" x1="353.9167729123078" x2="353.9167729123078" y1="158.8461538461538" y2="198.8461538461538"></line></g><g><g><path d="M297.531 173.366C291.731 173.366 288.131 175.806 288.131 178.766C288.131 181.686 290.611 184.286 297.091 184.286C304.211 184.286 306.491 181.806 306.491 178.766C306.491 175.686 301.571 173.366 297.531 173.366ZM292.971 176.086C293.451 174.606 295.051 174.366 296.411 174.366C299.371 174.366 301.771 177.566 301.771 180.206C301.771 180.486 301.731 180.766 301.691 181.006C301.491 182.086 300.851 182.846 299.771 183.126C299.331 183.246 298.891 183.286 298.451 183.286C298.051 183.286 297.691 183.246 297.291 183.126C296.571 182.886 295.851 182.486 295.251 181.966C294.931 181.686 294.611 181.366 294.331 181.006C293.491 180.006 292.811 178.526 292.811 177.166C292.811 176.806 292.851 176.446 292.971 176.086Z"></path></g></g></g><g><g></g><g><g><path d="M425.984 176.006C425.984 172.926 423.984 169.846 420.144 169.846C418.864 169.846 418.424 170.686 418.064 170.686C417.664 170.686 417.264 170.086 417.024 169.686C416.904 169.366 416.704 169.126 416.704 168.846C416.704 168.606 416.824 168.486 416.984 168.126C417.024 168.046 417.104 168.046 417.104 167.966C417.344 167.606 417.744 167.046 418.064 167.046C418.424 167.046 418.864 167.806 420.144 167.806C423.984 167.806 425.984 164.766 425.984 161.726C425.984 158.686 423.424 155.566 419.624 155.566C415.784 155.566 414.624 158.086 414.624 159.166C414.624 160.286 415.504 161.486 416.664 161.486C417.784 161.486 418.864 160.526 418.864 159.486C418.864 158.566 417.664 157.926 417.424 157.726C417.344 157.646 416.944 157.566 416.944 157.406C416.944 157.366 416.944 157.326 417.024 157.286C417.544 156.766 418.144 156.606 418.744 156.606C421.024 156.606 421.544 158.566 421.544 160.206L421.544 163.366C421.544 165.406 421.464 166.126 419.704 166.126C417.984 166.126 417.304 165.406 416.904 164.086C416.704 163.526 416.504 163.326 416.304 163.326C416.024 163.326 415.784 163.726 415.704 164.086C415.024 167.246 413.984 167.406 413.224 167.486L413.224 156.166C413.224 155.806 412.624 155.566 412.304 155.566C411.984 155.566 411.744 155.806 411.744 156.166L411.744 181.566C411.744 181.886 411.984 182.126 412.304 182.126C412.624 182.126 413.224 181.886 413.224 181.566L413.224 170.206C413.984 170.286 415.024 170.446 415.704 173.606C415.784 173.966 416.024 174.366 416.304 174.366C416.504 174.366 416.704 174.166 416.904 173.606C417.304 172.286 417.984 171.526 419.704 171.526C421.464 171.526 421.544 172.286 421.544 174.366L421.544 177.486C421.544 179.166 421.024 181.046 418.744 181.046C417.664 181.046 417.304 180.686 417.064 180.446C416.984 180.366 416.944 180.326 416.944 180.286C416.944 180.126 417.264 180.046 417.344 179.966C417.624 179.686 418.864 179.246 418.864 178.166C418.864 177.126 417.784 176.166 416.664 176.166C415.504 176.166 414.624 177.406 414.624 178.486C414.624 179.566 415.784 182.126 419.624 182.126C423.424 182.126 425.984 179.006 425.984 176.006ZM409.824 156.166C409.824 155.846 409.584 155.566 409.224 155.566L406.344 155.566C406.024 155.566 405.744 155.846 405.744 156.166L405.744 181.526C405.744 181.846 406.024 182.126 406.344 182.126L409.224 182.126C409.584 182.126 409.824 181.846 409.824 181.526Z"></path></g></g><g><line stroke="black" stroke-width="1.6" x1="473.2720640376919" x2="473.2720640376919" y1="158.8461538461538" y2="198.8461538461538"></line></g><g><g><path d="M374.197 184.646C381.837 184.646 383.357 178.446 383.357 176.926C383.357 174.566 381.477 173.046 378.797 173.046C371.877 173.046 369.717 178.406 369.717 180.806C369.717 183.246 371.677 184.646 374.197 184.646ZM377.717 180.966C375.637 182.366 374.197 182.846 373.197 182.846C372.237 182.846 371.677 182.366 371.357 181.806C371.197 181.526 371.077 181.206 371.077 180.886C371.077 179.886 372.077 178.606 375.277 176.766C377.557 175.446 378.997 174.966 379.957 174.966C380.837 174.966 381.317 175.366 381.637 175.926C381.797 176.206 381.917 176.486 381.917 176.806C381.917 177.726 380.957 178.846 377.717 180.966Z"></path></g><line stroke="#000000" stroke-width="1.2" x1="370.31677291230784" x2="370.31677291230784" y1="180.80615384615382" y2="215.80615384615382"></line></g><g><g><path d="M437.424 174.646C445.064 174.646 446.584 168.446 446.584 166.926C446.584 164.566 444.704 163.046 442.024 163.046C435.104 163.046 432.944 168.406 432.944 170.806C432.944 173.246 434.904 174.646 437.424 174.646ZM440.944 170.966C438.864 172.366 437.424 172.846 436.424 172.846C435.464 172.846 434.904 172.366 434.584 171.806C434.424 171.526 434.304 171.206 434.304 170.886C434.304 169.886 435.304 168.606 438.504 166.766C440.784 165.446 442.224 164.966 443.184 164.966C444.064 164.966 444.544 165.366 444.864 165.926C445.024 166.206 445.144 166.486 445.144 166.806C445.144 167.726 444.184 168.846 440.944 170.966Z"></path></g><line stroke="#000000" stroke-width="1.2" x1="433.5444184749999" x2="433.5444184749999" y1="170.80615384615382" y2="205.80615384615382"></line></g></g><g><g><g><path d="M492.052 162.046C487.572 162.046 485.572 166.166 485.572 168.606C485.572 168.726 485.572 168.846 485.612 168.966C485.892 171.366 487.412 172.606 488.932 172.606L489.092 172.606C490.692 172.606 492.332 170.846 492.332 169.246C492.332 166.886 490.252 166.486 489.132 166.486L488.372 166.486C487.812 166.486 487.732 166.166 487.732 165.926C487.732 165.846 487.772 165.766 487.772 165.766C488.692 163.646 490.332 163.406 491.052 163.406C491.292 163.406 491.452 163.446 491.452 163.446C492.292 163.446 492.972 163.806 493.572 164.446C494.532 165.566 494.652 166.806 494.812 168.166C494.812 168.206 494.852 168.286 494.852 168.486C494.932 168.966 494.932 169.486 494.932 169.966C494.932 171.926 494.612 173.966 494.012 175.806C493.092 178.486 491.732 180.206 489.492 181.926C488.252 182.886 486.852 183.486 485.492 184.246C485.092 184.486 484.972 184.846 484.972 184.966C484.972 185.166 485.332 185.406 485.492 185.406C488.572 185.406 492.172 182.646 494.172 180.646C496.052 178.766 497.532 176.566 498.452 174.406C499.172 172.766 499.572 171.126 499.572 169.726L499.572 169.566C499.492 166.806 498.412 165.046 497.092 163.966C494.932 162.206 492.212 162.046 492.212 162.046ZM502.292 170.486C501.372 170.486 500.572 171.286 500.572 172.246C500.572 173.206 501.372 174.006 502.292 174.006C503.292 174.006 504.092 173.206 504.092 172.246C504.092 171.286 503.292 170.486 502.292 170.486ZM502.292 163.766C501.292 163.766 500.532 164.526 500.532 165.486C500.532 166.486 501.292 167.286 502.292 167.286C503.252 167.286 504.052 166.486 504.052 165.486C504.052 164.526 503.252 163.766 502.292 163.766Z"></path></g></g><g><line stroke="black" stroke-width="1.6" x1="578.5573735707688" x2="578.5573735707688" y1="158.8461538461538" y2="198.8461538461538"></line></g><g><g><path d="M522.172 143.366C516.372 143.366 512.772 145.806 512.772 148.766C512.772 151.686 515.252 154.286 521.732 154.286C528.852 154.286 531.132 151.806 531.132 148.766C531.132 145.686 526.212 143.366 522.172 143.366ZM517.612 146.086C518.092 144.606 519.692 144.366 521.052 144.366C524.012 144.366 526.412 147.566 526.412 150.206C526.412 150.486 526.372 150.766 526.332 151.006C526.132 152.086 525.492 152.846 524.412 153.126C523.972 153.246 523.532 153.286 523.092 153.286C522.692 153.286 522.332 153.246 521.932 153.126C521.212 152.886 520.492 152.486 519.892 151.966C519.572 151.686 519.252 151.366 518.972 151.006C518.132 150.006 517.452 148.526 517.452 147.166C517.452 146.806 517.492 146.446 517.612 146.086Z"></path></g><line stroke="#000000" stroke-width="2.2" x1="509.57206403769186" x2="536.3720640376918" y1="148.8461538461538" y2="148.8461538461538"></line></g></g><g><g><g><path d="M597.257 188.246L597.257 169.446C597.257 169.126 597.017 168.846 596.697 168.846L591.417 168.846C591.097 168.846 590.857 169.126 590.857 169.446L590.857 188.246C590.857 188.566 591.097 188.846 591.417 188.846L596.697 188.846C597.017 188.846 597.257 188.566 597.257 188.246ZM606.137 169.446C606.137 169.126 605.897 168.846 605.577 168.846L600.297 168.846C599.977 168.846 599.737 169.126 599.737 169.446L599.737 188.246C599.737 188.566 599.977 188.846 600.297 188.846L605.577 188.846C605.897 188.846 606.137 188.566 606.137 188.246Z"></path></g></g><g><line stroke="black" stroke-width="1.6" x1="683.8426831038458" x2="683.8426831038458" y1="158.8461538461538" y2="198.8461538461538"></line></g><g><g><path d="M627.457 173.366C621.657 173.366 618.057 175.806 618.057 178.766C618.057 181.686 620.537 184.286 627.017 184.286C634.137 184.286 636.417 181.806 636.417 178.766C636.417 175.686 631.497 173.366 627.457 173.366ZM622.897 176.086C623.377 174.606 624.977 174.366 626.337 174.366C629.297 174.366 631.697 177.566 631.697 180.206C631.697 180.486 631.657 180.766 631.617 181.006C631.417 182.086 630.777 182.846 629.697 183.126C629.257 183.246 628.817 183.286 628.377 183.286C627.977 183.286 627.617 183.246 627.217 183.126C626.497 182.886 625.777 182.486 625.177 181.966C624.857 181.686 624.537 181.366 624.257 181.006C623.417 180.006 622.737 178.526 622.737 177.166C622.737 176.806 622.777 176.446 622.897 176.086Z"></path></g></g></g><g><g><g><path d="M713.743 188.806C713.503 185.446 711.023 182.806 707.663 182.806L707.383 182.806C707.303 182.806 707.143 182.806 707.063 182.846C706.783 181.126 706.663 180.726 706.383 179.286C709.903 176.046 711.183 172.726 711.183 168.086C711.183 166.446 710.783 164.766 710.023 163.086C709.023 160.726 708.063 160.566 708.063 160.566C705.583 161.686 703.823 165.646 703.823 170.406C703.823 171.246 703.863 172.126 704.023 173.046L704.343 174.726C700.463 178.006 696.143 181.886 696.143 186.926C696.143 187.166 696.143 187.446 696.183 187.726C696.663 194.086 701.623 196.086 705.903 196.086C706.703 196.086 707.263 195.966 707.823 195.966L708.343 198.806C708.463 199.446 708.623 200.926 708.623 201.446C708.623 205.726 705.423 205.766 705.103 205.766L704.583 205.766C703.703 205.766 702.943 205.646 702.383 205.246C702.223 205.126 702.143 205.046 702.143 204.966C702.143 204.846 702.263 204.806 702.383 204.726C702.623 204.686 702.823 204.686 703.063 204.566C704.143 204.246 705.583 203.406 705.583 201.846C705.583 201.846 705.583 201.646 705.583 201.646C705.583 200.526 705.103 199.486 704.023 199.046C703.623 198.846 703.263 198.766 702.863 198.766C701.303 198.766 699.863 200.006 699.663 201.646C699.623 201.646 699.543 202.046 699.543 202.566C699.543 204.046 700.223 207.046 704.543 207.046C704.703 207.046 704.943 207.006 705.143 207.006C706.983 206.886 709.943 205.446 709.943 201.326C709.943 199.326 709.383 197.446 709.103 195.606C712.023 194.526 713.743 192.126 713.743 189.206ZM708.263 165.726C709.143 165.726 709.703 166.406 709.703 167.846C709.703 168.006 709.703 168.206 709.663 168.406C709.343 170.566 708.223 171.566 705.423 173.726C705.343 173.086 705.223 172.566 705.223 172.406C705.183 172.126 705.183 171.806 705.183 171.486C705.183 168.766 706.183 165.806 708.263 165.726ZM698.583 189.046C698.583 184.686 701.743 182.446 705.183 179.886L705.663 183.046C703.303 183.726 701.463 185.966 701.463 188.326C701.463 188.726 701.503 189.126 701.623 189.486C702.023 191.246 703.183 192.566 704.423 192.966C704.663 193.046 704.863 193.086 704.983 193.086C705.183 193.086 705.303 192.966 705.303 192.846C705.303 192.686 705.103 192.486 704.903 192.366C704.383 192.166 703.463 191.126 703.423 190.046L703.423 189.806C703.423 187.966 704.863 187.326 706.263 187.046L707.623 194.566C707.223 194.726 706.663 194.806 705.903 194.806C703.063 194.806 698.743 193.846 698.583 189.286ZM708.903 194.286C708.503 191.926 708.343 189.886 707.783 186.926C709.983 186.926 711.463 188.206 711.583 190.406L711.583 190.686C711.583 192.526 710.783 193.486 708.903 194.286Z"></path><path d="M705.363 207.046C704.883 207.046 704.403 207.086 704.003 207.286C702.963 207.686 702.403 208.566 702.403 209.526C702.403 210.086 702.603 210.646 703.043 211.166C703.083 211.166 703.123 211.206 703.123 211.286C703.123 211.406 703.043 211.446 702.883 211.486C701.843 211.846 700.843 213.006 700.843 214.126C700.843 214.286 700.883 214.406 700.923 214.606C701.243 216.086 703.163 216.926 704.523 216.926C705.083 216.926 705.723 216.846 706.163 216.686C707.283 216.206 708.003 215.166 708.003 214.086C708.003 213.606 707.883 213.166 707.643 212.726C707.483 212.526 707.483 212.326 707.483 212.086C707.483 211.846 707.563 211.646 707.803 211.446C708.163 211.166 709.043 210.846 709.043 209.446C709.043 207.446 706.163 207.046 705.523 207.046ZM704.403 208.726C704.483 208.046 705.043 207.766 705.643 207.726C706.323 207.726 706.923 207.926 707.243 208.286C707.483 208.526 707.603 208.966 707.603 209.326C707.563 210.046 707.363 211.246 706.683 211.246C706.563 211.246 706.363 211.166 706.163 211.086C705.763 210.806 705.443 210.406 705.123 210.086C704.803 209.726 704.403 209.286 704.403 208.726ZM703.043 212.566C703.163 212.406 703.363 212.286 703.603 212.286C703.803 212.286 704.003 212.446 704.163 212.526C704.403 212.686 704.603 212.886 704.843 213.086C705.283 213.486 705.643 213.926 705.843 214.446C705.923 214.646 706.003 214.806 706.003 215.006C706.003 215.646 705.323 216.446 704.523 216.446C703.763 216.446 702.683 215.646 702.403 214.366C702.363 214.246 702.363 214.166 702.363 214.086C702.363 213.646 702.523 213.206 702.763 212.886C702.803 212.766 702.923 212.646 703.043 212.566Z"></path></g></g><g><line stroke="black" stroke-width="1.6" x1="789.1279926369228" x2="789.1279926369228" y1="158.8461538461538" y2="198.8461538461538"></line></g><g><g><path d="M732.743 168.366C726.943 168.366 723.343 170.806 723.343 173.766C723.343 176.686 725.823 179.286 732.303 179.286C739.423 179.286 741.703 176.806 741.703 173.766C741.703 170.686 736.783 168.366 732.743 168.366ZM728.183 171.086C728.663 169.606 730.263 169.366 731.623 169.366C734.583 169.366 736.983 172.566 736.983 175.206C736.983 175.486 736.943 175.766 736.903 176.006C736.703 177.086 736.063 177.846 734.983 178.126C734.543 178.246 734.103 178.286 733.663 178.286C733.263 178.286 732.903 178.246 732.503 178.126C731.783 177.886 731.063 177.486 730.463 176.966C730.143 176.686 729.823 176.366 729.543 176.006C728.703 175.006 728.023 173.526 728.023 172.166C728.023 171.806 728.063 171.446 728.183 171.086Z"></path></g></g></g><g><g><g><path d="M807.908 162.046C803.428 162.046 801.428 166.166 801.428 168.606C801.428 168.726 801.428 168.846 801.468 168.966C801.748 171.366 803.268 172.606 804.788 172.606L804.948 172.606C806.548 172.606 808.188 170.846 808.188 169.246C808.188 166.886 806.108 166.486 804.988 166.486L804.228 166.486C803.668 166.486 803.588 166.166 803.588 165.926C803.588 165.846 803.628 165.766 803.628 165.766C804.548 163.646 806.188 163.406 806.908 163.406C807.148 163.406 807.308 163.446 807.308 163.446C808.148 163.446 808.828 163.806 809.428 164.446C810.388 165.566 810.508 166.806 810.668 168.166C810.668 168.206 810.708 168.286 810.708 168.486C810.788 168.966 810.788 169.486 810.788 169.966C810.788 171.926 810.468 173.966 809.868 175.806C808.948 178.486 807.588 180.206 805.348 181.926C804.108 182.886 802.708 183.486 801.348 184.246C800.948 184.486 800.828 184.846 800.828 184.966C800.828 185.166 801.188 185.406 801.348 185.406C804.428 185.406 808.028 182.646 810.028 180.646C811.908 178.766 813.388 176.566 814.308 174.406C815.028 172.766 815.428 171.126 815.428 169.726L815.428 169.566C815.348 166.806 814.268 165.046 812.948 163.966C810.788 162.206 808.068 162.046 808.068 162.046ZM818.148 170.486C817.228 170.486 816.428 171.286 816.428 172.246C816.428 173.206 817.228 174.006 818.148 174.006C819.148 174.006 819.948 173.206 819.948 172.246C819.948 171.286 819.148 170.486 818.148 170.486ZM818.148 163.766C817.148 163.766 816.388 164.526 816.388 165.486C816.388 166.486 817.148 167.286 818.148 167.286C819.108 167.286 819.908 166.486 819.908 165.486C819.908 164.526 819.108 163.766 818.148 163.766Z"></path><path d="M810.808 180.438C810.328 180.438 809.848 180.478 809.448 180.678C808.408 181.078 807.848 181.958 807.848 182.918C807.848 183.478 808.048 184.038 808.488 184.558C808.528 184.558 808.568 184.598 808.568 184.678C808.568 184.798 808.488 184.838 808.328 184.878C807.288 185.238 806.288 186.398 806.288 187.518C806.288 187.678 806.328 187.798 806.368 187.998C806.688 189.478 808.608 190.318 809.968 190.318C810.528 190.318 811.168 190.238 811.608 190.078C812.728 189.598 813.448 188.558 813.448 187.478C813.448 186.998 813.328 186.558 813.088 186.118C812.928 185.918 812.928 185.718 812.928 185.478C812.928 185.238 813.008 185.038 813.248 184.838C813.608 184.558 814.488 184.238 814.488 182.838C814.488 180.838 811.608 180.438 810.968 180.438ZM809.848 182.118C809.928 181.438 810.488 181.158 811.088 181.118C811.768 181.118 812.368 181.318 812.688 181.678C812.928 181.918 813.048 182.358 813.048 182.718C813.008 183.438 812.808 184.638 812.128 184.638C812.008 184.638 811.808 184.558 811.608 184.478C811.208 184.198 810.888 183.798 810.568 183.478C810.248 183.118 809.848 182.678 809.848 182.118ZM808.488 185.958C808.608 185.798 808.808 185.678 809.048 185.678C809.248 185.678 809.448 185.838 809.608 185.918C809.848 186.078 810.048 186.278 810.288 186.478C810.728 186.878 811.088 187.318 811.288 187.838C811.368 188.038 811.448 188.198 811.448 188.398C811.448 189.038 810.768 189.838 809.968 189.838C809.208 189.838 808.128 189.038 807.848 187.758C807.808 187.638 807.808 187.558 807.808 187.478C807.808 187.038 807.968 186.598 808.208 186.278C808.248 186.158 808.368 186.038 808.488 185.958Z"></path></g></g><g><line stroke="black" stroke-width="1.6" x1="894.4133021699998" x2="894.4133021699998" y1="158.8461538461538" y2="198.8461538461538"></line></g><g><g><path d="M838.028 108.366C832.228 108.366 828.628 110.806 828.628 113.766C828.628 116.686 831.108 119.286 837.588 119.286C844.708 119.286 846.988 116.806 846.988 113.766C846.988 110.686 842.068 108.366 838.028 108.366ZM833.468 111.086C833.948 109.606 835.548 109.366 836.908 109.366C839.868 109.366 842.268 112.566 842.268 115.206C842.268 115.486 842.228 115.766 842.188 116.006C841.988 117.086 841.348 117.846 840.268 118.126C839.828 118.246 839.388 118.286 838.948 118.286C838.548 118.286 838.188 118.246 837.788 118.126C837.068 117.886 836.348 117.486 835.748 116.966C835.428 116.686 835.108 116.366 834.828 116.006C833.988 115.006 833.308 113.526 833.308 112.166C833.308 111.806 833.348 111.446 833.468 111.086Z"></path></g><line stroke="#000000" stroke-width="2.2" x1="825.4279926369229" x2="852.2279926369229" y1="148.8461538461538" y2="148.8461538461538"></line><line stroke="#000000" stroke-width="2.2" x1="825.4279926369229" x2="852.2279926369229" y1="138.8461538461538" y2="138.8461538461538"></line><line stroke="#000000" stroke-width="2.2" x1="825.4279926369229" x2="852.2279926369229" y1="128.8461538461538" y2="128.8461538461538"></line><line stroke="#000000" stroke-width="2.2" x1="825.4279926369229" x2="852.2279926369229" y1="118.84615384615381" y2="118.84615384615381"></line></g></g><g><g><g><path d="M913.193 172.046C908.713 172.046 906.713 176.166 906.713 178.606C906.713 178.726 906.713 178.846 906.753 178.966C907.033 181.366 908.553 182.606 910.073 182.606L910.233 182.606C911.833 182.606 913.473 180.846 913.473 179.246C913.473 176.886 911.393 176.486 910.273 176.486L909.513 176.486C908.953 176.486 908.873 176.166 908.873 175.926C908.873 175.846 908.913 175.766 908.913 175.766C909.833 173.646 911.473 173.406 912.193 173.406C912.433 173.406 912.593 173.446 912.593 173.446C913.433 173.446 914.113 173.806 914.713 174.446C915.673 175.566 915.793 176.806 915.953 178.166C915.953 178.206 915.993 178.286 915.993 178.486C916.073 178.966 916.073 179.486 916.073 179.966C916.073 181.926 915.753 183.966 915.153 185.806C914.233 188.486 912.873 190.206 910.633 191.926C909.393 192.886 907.993 193.486 906.633 194.246C906.233 194.486 906.113 194.846 906.113 194.966C906.113 195.166 906.473 195.406 906.633 195.406C909.713 195.406 913.313 192.646 915.313 190.646C917.193 188.766 918.673 186.566 919.593 184.406C920.313 182.766 920.713 181.126 920.713 179.726L920.713 179.566C920.633 176.806 919.553 175.046 918.233 173.966C916.073 172.206 913.353 172.046 913.353 172.046ZM923.433 180.486C922.513 180.486 921.713 181.286 921.713 182.246C921.713 183.206 922.513 184.006 923.433 184.006C924.433 184.006 925.233 183.206 925.233 182.246C925.233 181.286 924.433 180.486 923.433 180.486ZM923.433 173.766C922.433 173.766 921.673 174.526 921.673 175.486C921.673 176.486 922.433 177.286 923.433 177.286C924.393 177.286 925.193 176.486 925.193 175.486C925.193 174.526 924.393 173.766 923.433 173.766Z"></path></g></g><g><line stroke="black" stroke-width="1.6" x1="999.6986117030767" x2="999.6986117030767" y1="158.8461538461538" y2="198.8461538461538"></line></g><g><g><path d="M943.313 153.366C937.513 153.366 933.913 155.806 933.913 158.766C933.913 161.686 936.393 164.286 942.873 164.286C949.993 164.286 952.273 161.806 952.273 158.766C952.273 155.686 947.353 153.366 943.313 153.366ZM938.753 156.086C939.233 154.606 940.833 154.366 942.193 154.366C945.153 154.366 947.553 157.566 947.553 160.206C947.553 160.486 947.513 160.766 947.473 161.006C947.273 162.086 946.633 162.846 945.553 163.126C945.113 163.246 944.673 163.286 944.233 163.286C943.833 163.286 943.473 163.246 943.073 163.126C942.353 162.886 941.633 162.486 941.033 161.966C940.713 161.686 940.393 161.366 940.113 161.006C939.273 160.006 938.593 158.526 938.593 157.166C938.593 156.806 938.633 156.446 938.753 156.086Z"></path></g></g></g><g><g><g><path d="M1029.599 198.806C1029.359 195.446 1026.879 192.806 1023.519 192.806L1023.239 192.806C1023.159 192.806 1022.999 192.806 1022.919 192.846C1022.639 191.126 1022.519 190.726 1022.239 189.286C1025.759 186.046 1027.039 182.726 1027.039 178.086C1027.039 176.446 1026.639 174.766 1025.879 173.086C1024.879 170.726 1023.919 170.566 1023.919 170.566C1021.439 171.686 1019.679 175.646 1019.679 180.406C1019.679 181.246 1019.719 182.126 1019.879 183.046L1020.199 184.726C1016.319 188.006 1011.999 191.886 1011.999 196.926C1011.999 197.166 1011.999 197.446 1012.039 197.726C1012.519 204.086 1017.479 206.086 1021.759 206.086C1022.559 206.086 1023.119 205.966 1023.679 205.966L1024.199 208.806C1024.319 209.446 1024.479 210.926 1024.479 211.446C1024.479 215.726 1021.279 215.766 1020.959 215.766L1020.439 215.766C1019.559 215.766 1018.799 215.646 1018.239 215.246C1018.079 215.126 1017.999 215.046 1017.999 214.966C1017.999 214.846 1018.119 214.806 1018.239 214.726C1018.479 214.686 1018.679 214.686 1018.919 214.566C1019.999 214.246 1021.439 213.406 1021.439 211.846C1021.439 211.846 1021.439 211.646 1021.439 211.646C1021.439 210.526 1020.959 209.486 1019.879 209.046C1019.479 208.846 1019.119 208.766 1018.719 208.766C1017.159 208.766 1015.719 210.006 1015.519 211.646C1015.479 211.646 1015.399 212.046 1015.399 212.566C1015.399 214.046 1016.079 217.046 1020.399 217.046C1020.559 217.046 1020.799 217.006 1020.999 217.006C1022.839 216.886 1025.799 215.446 1025.799 211.326C1025.799 209.326 1025.239 207.446 1024.959 205.606C1027.879 204.526 1029.599 202.126 1029.599 199.206ZM1024.119 175.726C1024.999 175.726 1025.559 176.406 1025.559 177.846C1025.559 178.006 1025.559 178.206 1025.519 178.406C1025.199 180.566 1024.079 181.566 1021.279 183.726C1021.199 183.086 1021.079 182.566 1021.079 182.406C1021.039 182.126 1021.039 181.806 1021.039 181.486C1021.039 178.766 1022.039 175.806 1024.119 175.726ZM1014.439 199.046C1014.439 194.686 1017.599 192.446 1021.039 189.886L1021.519 193.046C1019.159 193.726 1017.319 195.966 1017.319 198.326C1017.319 198.726 1017.359 199.126 1017.479 199.486C1017.879 201.246 1019.039 202.566 1020.279 202.966C1020.519 203.046 1020.719 203.086 1020.839 203.086C1021.039 203.086 1021.159 202.966 1021.159 202.846C1021.159 202.686 1020.959 202.486 1020.759 202.366C1020.239 202.166 1019.319 201.126 1019.279 200.046L1019.279 199.806C1019.279 197.966 1020.719 197.326 1022.119 197.046L1023.479 204.566C1023.079 204.726 1022.519 204.806 1021.759 204.806C1018.919 204.806 1014.599 203.846 1014.439 199.286ZM1024.759 204.286C1024.359 201.926 1024.199 199.886 1023.639 196.926C1025.839 196.926 1027.319 198.206 1027.439 200.406L1027.439 200.686C1027.439 202.526 1026.639 203.486 1024.759 204.286Z"></path></g></g><g><line stroke="black" stroke-width="1.6" x1="1104.9839212361537" x2="1104.9839212361537" y1="158.8461538461538" y2="198.8461538461538"></line></g><g><g><path d="M1048.599 213.366C1042.799 213.366 1039.199 215.806 1039.199 218.766C1039.199 221.686 1041.679 224.286 1048.159 224.286C1055.279 224.286 1057.559 221.806 1057.559 218.766C1057.559 215.686 1052.639 213.366 1048.599 213.366ZM1044.039 216.086C1044.519 214.606 1046.119 214.366 1047.479 214.366C1050.439 214.366 1052.839 217.566 1052.839 220.206C1052.839 220.486 1052.799 220.766 1052.759 221.006C1052.559 222.086 1051.919 222.846 1050.839 223.126C1050.399 223.246 1049.959 223.286 1049.519 223.286C1049.119 223.286 1048.759 223.246 1048.359 223.126C1047.639 222.886 1046.919 222.486 1046.319 221.966C1045.999 221.686 1045.679 221.366 1045.399 221.006C1044.559 220.006 1043.879 218.526 1043.879 217.166C1043.879 216.806 1043.919 216.446 1044.039 216.086Z"></path></g><line stroke="#000000" stroke-width="2.2" x1="1035.9986117030767" x2="1062.7986117030766" y1="208.8461538461538" y2="208.8461538461538"></line><line stroke="#000000" stroke-width="2.2" x1="1035.9986117030767" x2="1062.7986117030766" y1="218.8461538461538" y2="218.8461538461538"></line></g></g><g><g><g><path d="M1137.524 166.006C1137.524 162.926 1135.524 159.846 1131.684 159.846C1130.404 159.846 1129.964 160.686 1129.604 160.686C1129.204 160.686 1128.804 160.086 1128.564 159.686C1128.444 159.366 1128.244 159.126 1128.244 158.846C1128.244 158.606 1128.364 158.486 1128.524 158.126C1128.564 158.046 1128.644 158.046 1128.644 157.966C1128.884 157.606 1129.284 157.046 1129.604 157.046C1129.964 157.046 1130.404 157.806 1131.684 157.806C1135.524 157.806 1137.524 154.766 1137.524 151.726C1137.524 148.686 1134.964 145.566 1131.164 145.566C1127.324 145.566 1126.164 148.086 1126.164 149.166C1126.164 150.286 1127.044 151.486 1128.204 151.486C1129.324 151.486 1130.404 150.526 1130.404 149.486C1130.404 148.566 1129.204 147.926 1128.964 147.726C1128.884 147.646 1128.484 147.566 1128.484 147.406C1128.484 147.366 1128.484 147.326 1128.564 147.286C1129.084 146.766 1129.684 146.606 1130.284 146.606C1132.564 146.606 1133.084 148.566 1133.084 150.206L1133.084 153.366C1133.084 155.406 1133.004 156.126 1131.244 156.126C1129.524 156.126 1128.844 155.406 1128.444 154.086C1128.244 153.526 1128.044 153.326 1127.844 153.326C1127.564 153.326 1127.324 153.726 1127.244 154.086C1126.564 157.246 1125.524 157.406 1124.764 157.486L1124.764 146.166C1124.764 145.806 1124.164 145.566 1123.844 145.566C1123.524 145.566 1123.284 145.806 1123.284 146.166L1123.284 171.566C1123.284 171.886 1123.524 172.126 1123.844 172.126C1124.164 172.126 1124.764 171.886 1124.764 171.566L1124.764 160.206C1125.524 160.286 1126.564 160.446 1127.244 163.606C1127.324 163.966 1127.564 164.366 1127.844 164.366C1128.044 164.366 1128.244 164.166 1128.444 163.606C1128.844 162.286 1129.524 161.526 1131.244 161.526C1133.004 161.526 1133.084 162.286 1133.084 164.366L1133.084 167.486C1133.084 169.166 1132.564 171.046 1130.284 171.046C1129.204 171.046 1128.844 170.686 1128.604 170.446C1128.524 170.366 1128.484 170.326 1128.484 170.286C1128.484 170.126 1128.804 170.046 1128.884 169.966C1129.164 169.686 1130.404 169.246 1130.404 168.166C1130.404 167.126 1129.324 166.166 1128.204 166.166C1127.044 166.166 1126.164 167.406 1126.164 168.486C1126.164 169.566 1127.324 172.126 1131.164 172.126C1134.964 172.126 1137.524 169.006 1137.524 166.006ZM1121.364 146.166C1121.364 145.846 1121.124 145.566 1120.764 145.566L1117.884 145.566C1117.564 145.566 1117.284 145.846 1117.284 146.166L1117.284 171.526C1117.284 171.846 1117.564 172.126 1117.884 172.126L1120.764 172.126C1121.124 172.126 1121.364 171.846 1121.364 171.526Z"></path></g></g><g><line stroke="black" stroke-width="1.6" x1="1210.2692307692307" x2="1210.2692307692307" y1="158.8461538461538" y2="198.8461538461538"></line><g><g><path d="M1235.809 196.006C1235.809 192.926 1233.809 189.846 1229.969 189.846C1228.689 189.846 1228.249 190.686 1227.889 190.686C1227.489 190.686 1227.089 190.086 1226.849 189.686C1226.729 189.366 1226.529 189.126 1226.529 188.846C1226.529 188.606 1226.649 188.486 1226.809 188.126C1226.849 188.046 1226.929 188.046 1226.929 187.966C1227.169 187.606 1227.569 187.046 1227.889 187.046C1228.249 187.046 1228.689 187.806 1229.969 187.806C1233.809 187.806 1235.809 184.766 1235.809 181.726C1235.809 178.686 1233.249 175.566 1229.449 175.566C1225.609 175.566 1224.449 178.086 1224.449 179.166C1224.449 180.286 1225.329 181.486 1226.489 181.486C1227.609 181.486 1228.689 180.526 1228.689 179.486C1228.689 178.566 1227.489 177.926 1227.249 177.726C1227.169 177.646 1226.769 177.566 1226.769 177.406C1226.769 177.366 1226.769 177.326 1226.849 177.286C1227.369 176.766 1227.969 176.606 1228.569 176.606C1230.849 176.606 1231.369 178.566 1231.369 180.206L1231.369 183.366C1231.369 185.406 1231.289 186.126 1229.529 186.126C1227.809 186.126 1227.129 185.406 1226.729 184.086C1226.529 183.526 1226.329 183.326 1226.129 183.326C1225.849 183.326 1225.609 183.726 1225.529 184.086C1224.849 187.246 1223.809 187.406 1223.049 187.486L1223.049 176.166C1223.049 175.806 1222.449 175.566 1222.129 175.566C1221.809 175.566 1221.569 175.806 1221.569 176.166L1221.569 201.566C1221.569 201.886 1221.809 202.126 1222.129 202.126C1222.449 202.126 1223.049 201.886 1223.049 201.566L1223.049 190.206C1223.809 190.286 1224.849 190.446 1225.529 193.606C1225.609 193.966 1225.849 194.366 1226.129 194.366C1226.329 194.366 1226.529 194.166 1226.729 193.606C1227.129 192.286 1227.809 191.526 1229.529 191.526C1231.289 191.526 1231.369 192.286 1231.369 194.366L1231.369 197.486C1231.369 199.166 1230.849 201.046 1228.569 201.046C1227.489 201.046 1227.129 200.686 1226.889 200.446C1226.809 200.366 1226.769 200.326 1226.769 200.286C1226.769 200.126 1227.089 200.046 1227.169 199.966C1227.449 199.686 1228.689 199.246 1228.689 198.166C1228.689 197.126 1227.609 196.166 1226.489 196.166C1225.329 196.166 1224.449 197.406 1224.449 198.486C1224.449 199.566 1225.609 202.126 1229.449 202.126C1233.249 202.126 1235.809 199.006 1235.809 196.006ZM1219.649 176.166C1219.649 175.846 1219.409 175.566 1219.049 175.566L1216.169 175.566C1215.849 175.566 1215.569 175.846 1215.569 176.166L1215.569 201.526C1215.569 201.846 1215.849 202.126 1216.169 202.126L1219.049 202.126C1219.409 202.126 1219.649 201.846 1219.649 201.526Z"></path></g></g></g><g><g><path d="M1153.884 153.366C1148.084 153.366 1144.484 155.806 1144.484 158.766C1144.484 161.686 1146.964 164.286 1153.444 164.286C1160.564 164.286 1162.844 161.806 1162.844 158.766C1162.844 155.686 1157.924 153.366 1153.884 153.366ZM1149.324 156.086C1149.804 154.606 1151.404 154.366 1152.764 154.366C1155.724 154.366 1158.124 157.566 1158.124 160.206C1158.124 160.486 1158.084 160.766 1158.044 161.006C1157.844 162.086 1157.204 162.846 1156.124 163.126C1155.684 163.246 1155.244 163.286 1154.804 163.286C1154.404 163.286 1154.044 163.246 1153.644 163.126C1152.924 162.886 1152.204 162.486 1151.604 161.966C1151.284 161.686 1150.964 161.366 1150.684 161.006C1149.844 160.006 1149.164 158.526 1149.164 157.166C1149.164 156.806 1149.204 156.446 1149.324 156.086Z"></path></g></g></g><g><g><g><line stroke="#6A6A6A" stroke-width="1.3" x1="93.84615384615385" x2="840.4272786538191" y1="344.8461538461538" y2="344.8461538461538"></line><line stroke="#6A6A6A" stroke-width="1.3" x1="93.84615384615385" x2="840.4272786538191" y1="334.8461538461538" y2="334.8461538461538"></line><line stroke="#6A6A6A" stroke-width="1.3" x1="93.84615384615385" x2="840.4272786538191" y1="324.8461538461538" y2="324.8461538461538"></line><line stroke="#6A6A6A" stroke-width="1.3" x1="93.84615384615385" x2="840.4272786538191" y1="314.8461538461538" y2="314.8461538461538"></line><line stroke="#6A6A6A" stroke-width="1.3" x1="93.84615384615385" x2="840.4272786538191" y1="304.8461538461538" y2="304.8461538461538"></line></g><g><path d="M119.366 314.606C114.606 314.606 112.406 317.126 112.406 319.646C112.406 321.766 113.766 322.926 115.486 322.926C117.046 322.926 118.206 321.926 118.206 320.166C118.206 318.646 117.406 317.846 116.606 317.566C116.166 317.406 115.526 317.406 115.526 316.966C115.526 316.686 115.926 316.406 116.606 316.206C117.246 316.006 118.046 315.886 118.926 315.886C122.246 315.886 123.166 318.246 123.166 323.486C123.166 328.726 122.446 331.286 119.846 331.286C117.006 331.286 116.086 329.326 115.566 327.566C115.366 326.886 115.166 326.486 114.726 326.486C114.326 326.486 114.086 326.846 113.966 327.486C113.126 332.006 111.446 333.046 110.406 333.326C110.246 333.366 110.046 333.406 110.046 333.086L110.046 315.566C110.046 315.006 109.766 314.726 109.206 314.726L109.166 314.726C108.606 314.726 108.326 315.006 108.326 315.566L108.326 354.126C108.326 354.686 108.606 354.966 109.166 354.966L109.206 354.966C109.766 354.966 110.046 354.686 110.046 354.126L110.046 336.606C110.046 336.286 110.246 336.326 110.406 336.366C111.446 336.646 113.126 337.686 113.966 342.206C114.086 342.846 114.326 343.206 114.726 343.206C115.166 343.206 115.366 342.806 115.566 342.126C116.086 340.366 117.006 338.406 119.846 338.406C122.446 338.406 123.166 340.966 123.166 346.206C123.166 351.446 122.246 353.806 118.926 353.806C118.046 353.806 117.246 353.686 116.606 353.486C115.926 353.286 115.526 353.006 115.526 352.726C115.526 352.286 116.166 352.286 116.606 352.126C117.406 351.846 118.206 351.046 118.206 349.526C118.206 347.766 117.046 346.766 115.486 346.766C113.766 346.766 112.406 347.926 112.406 350.046C112.406 352.566 114.606 355.086 119.366 355.086C125.926 355.086 128.806 350.486 128.806 346.326C128.806 340.806 125.766 336.966 120.446 336.966C119.286 336.966 118.526 337.166 118.006 337.326C117.606 337.446 117.206 337.526 116.846 337.286C116.286 336.926 115.406 335.646 115.406 334.846C115.406 334.046 116.286 332.766 116.846 332.406C117.206 332.166 117.606 332.246 118.006 332.366C118.526 332.526 119.286 332.726 120.446 332.726C125.766 332.726 128.806 328.886 128.806 323.366C128.806 319.206 125.926 314.606 119.366 314.606ZM101.686 314.726C101.126 314.726 100.846 315.006 100.846 315.566L100.846 354.126C100.846 354.686 101.126 354.966 101.686 354.966L105.126 354.966C105.686 354.966 105.966 354.686 105.966 354.126L105.966 315.566C105.966 315.006 105.686 314.726 105.126 314.726Z"></path></g><g></g><text font-family='Alegreya' font-style='italic' text-anchor='end' stroke='#7a7a7a' font-size="24" x="93.84615384615385" y="294.8461538461538">11</text></g><g><line stroke="black" stroke-width="1.6" x1="193.81879444711205" x2="193.81879444711205" y1="304.8461538461538" y2="344.8461538461538"></line></g><g><g><path d="M151.746 329.366C145.946 329.366 142.346 331.806 142.346 334.766C142.346 337.686 144.826 340.286 151.306 340.286C158.426 340.286 160.706 337.806 160.706 334.766C160.706 331.686 155.786 329.366 151.746 329.366ZM147.186 332.086C147.666 330.606 149.266 330.366 150.626 330.366C153.586 330.366 155.986 333.566 155.986 336.206C155.986 336.486 155.946 336.766 155.906 337.006C155.706 338.086 155.066 338.846 153.986 339.126C153.546 339.246 153.106 339.286 152.666 339.286C152.266 339.286 151.906 339.246 151.506 339.126C150.786 338.886 150.066 338.486 149.466 337.966C149.146 337.686 148.826 337.366 148.546 337.006C147.706 336.006 147.026 334.526 147.026 333.166C147.026 332.806 147.066 332.446 147.186 332.086Z"></path></g></g></g><g><g><g><path d="M226.359 352.006C226.359 348.926 224.359 345.846 220.519 345.846C219.239 345.846 218.799 346.686 218.439 346.686C218.039 346.686 217.639 346.086 217.399 345.686C217.279 345.366 217.079 345.126 217.079 344.846C217.079 344.606 217.199 344.486 217.359 344.126C217.399 344.046 217.479 344.046 217.479 343.966C217.719 343.606 218.119 343.046 218.439 343.046C218.799 343.046 219.239 343.806 220.519 343.806C224.359 343.806 226.359 340.766 226.359 337.726C226.359 334.686 223.799 331.566 219.999 331.566C216.159 331.566 214.999 334.086 214.999 335.166C214.999 336.286 215.879 337.486 217.039 337.486C218.159 337.486 219.239 336.526 219.239 335.486C219.239 334.566 218.039 333.926 217.799 333.726C217.719 333.646 217.319 333.566 217.319 333.406C217.319 333.366 217.319 333.326 217.399 333.286C217.919 332.766 218.519 332.606 219.119 332.606C221.399 332.606 221.919 334.566 221.919 336.206L221.919 339.366C221.919 341.406 221.839 342.126 220.079 342.126C218.359 342.126 217.679 341.406 217.279 340.086C217.079 339.526 216.879 339.326 216.679 339.326C216.399 339.326 216.159 339.726 216.079 340.086C215.399 343.246 214.359 343.406 213.599 343.486L213.599 332.166C213.599 331.806 212.999 331.566 212.679 331.566C212.359 331.566 212.119 331.806 212.119 332.166L212.119 357.566C212.119 357.886 212.359 358.126 212.679 358.126C212.999 358.126 213.599 357.886 213.599 357.566L213.599 346.206C214.359 346.286 215.399 346.446 216.079 349.606C216.159 349.966 216.399 350.366 216.679 350.366C216.879 350.366 217.079 350.166 217.279 349.606C217.679 348.286 218.359 347.526 220.079 347.526C221.839 347.526 221.919 348.286 221.919 350.366L221.919 353.486C221.919 355.166 221.399 357.046 219.119 357.046C218.039 357.046 217.679 356.686 217.439 356.446C217.359 356.366 217.319 356.326 217.319 356.286C217.319 356.126 217.639 356.046 217.719 355.966C217.999 355.686 219.239 355.246 219.239 354.166C219.239 353.126 218.159 352.166 217.039 352.166C215.879 352.166 214.999 353.406 214.999 354.486C214.999 355.566 216.159 358.126 219.999 358.126C223.799 358.126 226.359 355.006 226.359 352.006ZM210.199 332.166C210.199 331.846 209.959 331.566 209.599 331.566L206.719 331.566C206.399 331.566 206.119 331.846 206.119 332.166L206.119 357.526C206.119 357.846 206.399 358.126 206.719 358.126L209.599 358.126C209.959 358.126 210.199 357.846 210.199 357.526Z"></path></g></g><g><line stroke="black" stroke-width="1.6" x1="284.7914350480702" x2="284.7914350480702" y1="304.8461538461538" y2="344.8461538461538"></line></g><g><g><path d="M242.719 339.366C236.919 339.366 233.319 341.806 233.319 344.766C233.319 347.686 235.799 350.286 242.279 350.286C249.399 350.286 251.679 347.806 251.679 344.766C251.679 341.686 246.759 339.366 242.719 339.366ZM238.159 342.086C238.639 340.606 240.239 340.366 241.599 340.366C244.559 340.366 246.959 343.566 246.959 346.206C246.959 346.486 246.919 346.766 246.879 347.006C246.679 348.086 246.039 348.846 244.959 349.126C244.519 349.246 244.079 349.286 243.639 349.286C243.239 349.286 242.879 349.246 242.479 349.126C241.759 348.886 241.039 348.486 240.439 347.966C240.119 347.686 239.799 347.366 239.519 347.006C238.679 346.006 237.999 344.526 237.999 343.166C237.999 342.806 238.039 342.446 238.159 342.086Z"></path></g></g></g><g><g><g><path d="M303.491 334.246L303.491 315.446C303.491 315.126 303.251 314.846 302.931 314.846L297.651 314.846C297.331 314.846 297.091 315.126 297.091 315.446L297.091 334.246C297.091 334.566 297.331 334.846 297.651 334.846L302.931 334.846C303.251 334.846 303.491 334.566 303.491 334.246ZM312.371 315.446C312.371 315.126 312.131 314.846 311.811 314.846L306.531 314.846C306.211 314.846 305.971 315.126 305.971 315.446L305.971 334.246C305.971 334.566 306.211 334.846 306.531 334.846L311.811 334.846C312.131 334.846 312.371 334.566 312.371 334.246Z"></path></g></g><g><line stroke="black" stroke-width="1.6" x1="375.76407564902837" x2="375.76407564902837" y1="304.8461538461538" y2="344.8461538461538"></line></g><g><g><path d="M333.691 319.366C327.891 319.366 324.291 321.806 324.291 324.766C324.291 327.686 326.771 330.286 333.251 330.286C340.371 330.286 342.651 327.806 342.651 324.766C342.651 321.686 337.731 319.366 333.691 319.366ZM329.131 322.086C329.611 320.606 331.211 320.366 332.571 320.366C335.531 320.366 337.931 323.566 337.931 326.206C337.931 326.486 337.891 326.766 337.851 327.006C337.651 328.086 337.011 328.846 335.931 329.126C335.491 329.246 335.051 329.286 334.611 329.286C334.211 329.286 333.851 329.246 333.451 329.126C332.731 328.886 332.011 328.486 331.411 327.966C331.091 327.686 330.771 327.366 330.491 327.006C329.651 326.006 328.971 324.526 328.971 323.166C328.971 322.806 329.011 322.446 329.131 322.086Z"></path></g></g></g><g><g><g><path d="M405.664 334.806C405.424 331.446 402.944 328.806 399.584 328.806L399.304 328.806C399.224 328.806 399.064 328.806 398.984 328.846C398.704 327.126 398.584 326.726 398.304 325.286C401.824 322.046 403.104 318.726 403.104 314.086C403.104 312.446 402.704 310.766 401.944 309.086C400.944 306.726 399.984 306.566 399.984 306.566C397.504 307.686 395.744 311.646 395.744 316.406C395.744 317.246 395.784 318.126 395.944 319.046L396.264 320.726C392.384 324.006 388.064 327.886 388.064 332.926C388.064 333.166 388.064 333.446 388.104 333.726C388.584 340.086 393.544 342.086 397.824 342.086C398.624 342.086 399.184 341.966 399.744 341.966L400.264 344.806C400.384 345.446 400.544 346.926 400.544 347.446C400.544 351.726 397.344 351.766 397.024 351.766L396.504 351.766C395.624 351.766 394.864 351.646 394.304 351.246C394.144 351.126 394.064 351.046 394.064 350.966C394.064 350.846 394.184 350.806 394.304 350.726C394.544 350.686 394.744 350.686 394.984 350.566C396.064 350.246 397.504 349.406 397.504 347.846C397.504 347.846 397.504 347.646 397.504 347.646C397.504 346.526 397.024 345.486 395.944 345.046C395.544 344.846 395.184 344.766 394.784 344.766C393.224 344.766 391.784 346.006 391.584 347.646C391.544 347.646 391.464 348.046 391.464 348.566C391.464 350.046 392.144 353.046 396.464 353.046C396.624 353.046 396.864 353.006 397.064 353.006C398.904 352.886 401.864 351.446 401.864 347.326C401.864 345.326 401.304 343.446 401.024 341.606C403.944 340.526 405.664 338.126 405.664 335.206ZM400.184 311.726C401.064 311.726 401.624 312.406 401.624 313.846C401.624 314.006 401.624 314.206 401.584 314.406C401.264 316.566 400.144 317.566 397.344 319.726C397.264 319.086 397.144 318.566 397.144 318.406C397.104 318.126 397.104 317.806 397.104 317.486C397.104 314.766 398.104 311.806 400.184 311.726ZM390.504 335.046C390.504 330.686 393.664 328.446 397.104 325.886L397.584 329.046C395.224 329.726 393.384 331.966 393.384 334.326C393.384 334.726 393.424 335.126 393.544 335.486C393.944 337.246 395.104 338.566 396.344 338.966C396.584 339.046 396.784 339.086 396.904 339.086C397.104 339.086 397.224 338.966 397.224 338.846C397.224 338.686 397.024 338.486 396.824 338.366C396.304 338.166 395.384 337.126 395.344 336.046L395.344 335.806C395.344 333.966 396.784 333.326 398.184 333.046L399.544 340.566C399.144 340.726 398.584 340.806 397.824 340.806C394.984 340.806 390.664 339.846 390.504 335.286ZM400.824 340.286C400.424 337.926 400.264 335.886 399.704 332.926C401.904 332.926 403.384 334.206 403.504 336.406L403.504 336.686C403.504 338.526 402.704 339.486 400.824 340.286Z"></path><path d="M400.804 296.686C400.324 296.686 399.844 296.726 399.444 296.926C398.404 297.326 397.844 298.206 397.844 299.166C397.844 299.726 398.044 300.286 398.484 300.806C398.524 300.806 398.564 300.846 398.564 300.926C398.564 301.046 398.484 301.086 398.324 301.126C397.284 301.486 396.284 302.646 396.284 303.766C396.284 303.926 396.324 304.046 396.364 304.246C396.684 305.726 398.604 306.566 399.964 306.566C400.524 306.566 401.164 306.486 401.604 306.326C402.724 305.846 403.444 304.806 403.444 303.726C403.444 303.246 403.324 302.806 403.084 302.366C402.924 302.166 402.924 301.966 402.924 301.726C402.924 301.486 403.004 301.286 403.244 301.086C403.604 300.806 404.484 300.486 404.484 299.086C404.484 297.086 401.604 296.686 400.964 296.686ZM399.844 298.366C399.924 297.686 400.484 297.406 401.084 297.366C401.764 297.366 402.364 297.566 402.684 297.926C402.924 298.166 403.044 298.606 403.044 298.966C403.004 299.686 402.804 300.886 402.124 300.886C402.004 300.886 401.804 300.806 401.604 300.726C401.204 300.446 400.884 300.046 400.564 299.726C400.244 299.366 399.844 298.926 399.844 298.366ZM398.484 302.206C398.604 302.046 398.804 301.926 399.044 301.926C399.244 301.926 399.444 302.086 399.604 302.166C399.844 302.326 400.044 302.526 400.284 302.726C400.724 303.126 401.084 303.566 401.284 304.086C401.364 304.286 401.444 304.446 401.444 304.646C401.444 305.286 400.764 306.086 399.964 306.086C399.204 306.086 398.124 305.286 397.844 304.006C397.804 303.886 397.804 303.806 397.804 303.726C397.804 303.286 397.964 302.846 398.204 302.526C398.244 302.406 398.364 302.286 398.484 302.206Z"></path></g></g><g><line stroke="black" stroke-width="1.6" x1="466.73671624998656" x2="466.73671624998656" y1="304.8461538461538" y2="344.8461538461538"></line></g><g><g><path d="M424.664 384.366C418.864 384.366 415.264 386.806 415.264 389.766C415.264 392.686 417.744 395.286 424.224 395.286C431.344 395.286 433.624 392.806 433.624 389.766C433.624 386.686 428.704 384.366 424.664 384.366ZM420.104 387.086C420.584 385.606 422.184 385.366 423.544 385.366C426.504 385.366 428.904 388.566 428.904 391.206C428.904 391.486 428.864 391.766 428.824 392.006C428.624 393.086 427.984 393.846 426.904 394.126C426.464 394.246 426.024 394.286 425.584 394.286C425.184 394.286 424.824 394.246 424.424 394.126C423.704 393.886 422.984 393.486 422.384 392.966C422.064 392.686 421.744 392.366 421.464 392.006C420.624 391.006 419.944 389.526 419.944 388.166C419.944 387.806 419.984 387.446 420.104 387.086Z"></path></g><line stroke="#000000" stroke-width="2.2" x1="412.0640756490284" x2="438.8640756490284" y1="354.8461538461538" y2="354.8461538461538"></line><line stroke="#000000" stroke-width="2.2" x1="412.0640756490284" x2="438.8640756490284" y1="364.8461538461538" y2="364.8461538461538"></line><line stroke="#000000" stroke-width="2.2" x1="412.0640756490284" x2="438.8640756490284" y1="374.8461538461538" y2="374.8461538461538"></line><line stroke="#000000" stroke-width="2.2" x1="412.0640756490284" x2="438.8640756490284" y1="384.8461538461538" y2="384.8461538461538"></line></g></g><g><g><g><path d="M485.517 308.046C481.037 308.046 479.037 312.166 479.037 314.606C479.037 314.726 479.037 314.846 479.077 314.966C479.357 317.366 480.877 318.606 482.397 318.606L482.557 318.606C484.157 318.606 485.797 316.846 485.797 315.246C485.797 312.886 483.717 312.486 482.597 312.486L481.837 312.486C481.277 312.486 481.197 312.166 481.197 311.926C481.197 311.846 481.237 311.766 481.237 311.766C482.157 309.646 483.797 309.406 484.517 309.406C484.757 309.406 484.917 309.446 484.917 309.446C485.757 309.446 486.437 309.806 487.037 310.446C487.997 311.566 488.117 312.806 488.277 314.166C488.277 314.206 488.317 314.286 488.317 314.486C488.397 314.966 488.397 315.486 488.397 315.966C488.397 317.926 488.077 319.966 487.477 321.806C486.557 324.486 485.197 326.206 482.957 327.926C481.717 328.886 480.317 329.486 478.957 330.246C478.557 330.486 478.437 330.846 478.437 330.966C478.437 331.166 478.797 331.406 478.957 331.406C482.037 331.406 485.637 328.646 487.637 326.646C489.517 324.766 490.997 322.566 491.917 320.406C492.637 318.766 493.037 317.126 493.037 315.726L493.037 315.566C492.957 312.806 491.877 311.046 490.557 309.966C488.397 308.206 485.677 308.046 485.677 308.046ZM495.757 316.486C494.837 316.486 494.037 317.286 494.037 318.246C494.037 319.206 494.837 320.006 495.757 320.006C496.757 320.006 497.557 319.206 497.557 318.246C497.557 317.286 496.757 316.486 495.757 316.486ZM495.757 309.766C494.757 309.766 493.997 310.526 493.997 311.486C493.997 312.486 494.757 313.286 495.757 313.286C496.717 313.286 497.517 312.486 497.517 311.486C497.517 310.526 496.717 309.766 495.757 309.766Z"></path><path d="M488.417 298.166C487.937 298.166 487.457 298.206 487.057 298.406C486.017 298.806 485.457 299.686 485.457 300.646C485.457 301.206 485.657 301.766 486.097 302.286C486.137 302.286 486.177 302.326 486.177 302.406C486.177 302.526 486.097 302.566 485.937 302.606C484.897 302.966 483.897 304.126 483.897 305.246C483.897 305.406 483.937 305.526 483.977 305.726C484.297 307.206 486.217 308.046 487.577 308.046C488.137 308.046 488.777 307.966 489.217 307.806C490.337 307.326 491.057 306.286 491.057 305.206C491.057 304.726 490.937 304.286 490.697 303.846C490.537 303.646 490.537 303.446 490.537 303.206C490.537 302.966 490.617 302.766 490.857 302.566C491.217 302.286 492.097 301.966 492.097 300.566C492.097 298.566 489.217 298.166 488.577 298.166ZM487.457 299.846C487.537 299.166 488.097 298.886 488.697 298.846C489.377 298.846 489.977 299.046 490.297 299.406C490.537 299.646 490.657 300.086 490.657 300.446C490.617 301.166 490.417 302.366 489.737 302.366C489.617 302.366 489.417 302.286 489.217 302.206C488.817 301.926 488.497 301.526 488.177 301.206C487.857 300.846 487.457 300.406 487.457 299.846ZM486.097 303.686C486.217 303.526 486.417 303.406 486.657 303.406C486.857 303.406 487.057 303.566 487.217 303.646C487.457 303.806 487.657 304.006 487.897 304.206C488.337 304.606 488.697 305.046 488.897 305.566C488.977 305.766 489.057 305.926 489.057 306.126C489.057 306.766 488.377 307.566 487.577 307.566C486.817 307.566 485.737 306.766 485.457 305.486C485.417 305.366 485.417 305.286 485.417 305.206C485.417 304.766 485.577 304.326 485.817 304.006C485.857 303.886 485.977 303.766 486.097 303.686Z"></path></g></g><g><line stroke="black" stroke-width="1.6" x1="557.7093568509447" x2="557.7093568509447" y1="304.8461538461538" y2="344.8461538461538"></line></g><g><g><path d="M515.637 324.366C509.837 324.366 506.237 326.806 506.237 329.766C506.237 332.686 508.717 335.286 515.197 335.286C522.317 335.286 524.597 332.806 524.597 329.766C524.597 326.686 519.677 324.366 515.637 324.366ZM511.077 327.086C511.557 325.606 513.157 325.366 514.517 325.366C517.477 325.366 519.877 328.566 519.877 331.206C519.877 331.486 519.837 331.766 519.797 332.006C519.597 333.086 518.957 333.846 517.877 334.126C517.437 334.246 516.997 334.286 516.557 334.286C516.157 334.286 515.797 334.246 515.397 334.126C514.677 333.886 513.957 333.486 513.357 332.966C513.037 332.686 512.717 332.366 512.437 332.006C511.597 331.006 510.917 329.526 510.917 328.166C510.917 327.806 510.957 327.446 511.077 327.086Z"></path></g></g></g><g><g><g><path d="M585.489 296.406L585.489 294.286L570.729 294.286L570.729 296.406L576.929 296.406L576.929 313.126L579.329 313.126L579.329 296.406ZM586.329 333.966L579.729 315.166L576.609 315.166L569.889 333.966L572.449 333.966L574.449 328.326L581.689 328.326L583.649 333.966ZM581.049 326.286L575.049 326.286L578.129 317.726ZM585.129 349.366C585.129 347.126 584.089 345.726 581.689 344.806C583.409 344.006 584.289 342.606 584.289 340.726C584.289 337.966 582.289 335.926 578.729 335.926L571.089 335.926L571.089 354.766L579.569 354.766C582.969 354.766 585.129 352.486 585.129 349.366ZM581.889 341.046C581.889 342.966 580.809 344.046 578.129 344.046L573.489 344.046L573.489 338.046L578.129 338.046C580.809 338.046 581.889 339.126 581.889 341.046ZM582.729 349.406C582.729 351.206 581.609 352.646 579.369 352.646L573.489 352.646L573.489 346.166L579.369 346.166C581.609 346.166 582.729 347.566 582.729 349.406Z"></path></g></g><g><line stroke="black" stroke-width="1.6" x1="648.6819974519028" x2="648.6819974519028" y1="304.8461538461538" y2="344.8461538461538"></line></g><g><g><path d="M606.609 319.366C600.809 319.366 597.209 321.806 597.209 324.766C597.209 327.686 599.689 330.286 606.169 330.286C613.289 330.286 615.569 327.806 615.569 324.766C615.569 321.686 610.649 319.366 606.609 319.366ZM602.049 322.086C602.529 320.606 604.129 320.366 605.489 320.366C608.449 320.366 610.849 323.566 610.849 326.206C610.849 326.486 610.809 326.766 610.769 327.006C610.569 328.086 609.929 328.846 608.849 329.126C608.409 329.246 607.969 329.286 607.529 329.286C607.129 329.286 606.769 329.246 606.369 329.126C605.649 328.886 604.929 328.486 604.329 327.966C604.009 327.686 603.689 327.366 603.409 327.006C602.569 326.006 601.889 324.526 601.889 323.166C601.889 322.806 601.929 322.446 602.049 322.086Z"></path></g></g></g><g><g></g><g><line stroke="black" stroke-width="1.6" x1="739.654638052861" x2="739.654638052861" y1="304.8461538461538" y2="344.8461538461538"></line></g><g><g><path d="M697.582 329.366C691.782 329.366 688.182 331.806 688.182 334.766C688.182 337.686 690.662 340.286 697.142 340.286C704.262 340.286 706.542 337.806 706.542 334.766C706.542 331.686 701.622 329.366 697.582 329.366ZM693.022 332.086C693.502 330.606 695.102 330.366 696.462 330.366C699.422 330.366 701.822 333.566 701.822 336.206C701.822 336.486 701.782 336.766 701.742 337.006C701.542 338.086 700.902 338.846 699.822 339.126C699.382 339.246 698.942 339.286 698.502 339.286C698.102 339.286 697.742 339.246 697.342 339.126C696.622 338.886 695.902 338.486 695.302 337.966C694.982 337.686 694.662 337.366 694.382 337.006C693.542 336.006 692.862 334.526 692.862 333.166C692.862 332.806 692.902 332.446 693.022 332.086Z"></path></g></g></g><g><g><g><path d="M769.555 334.806C769.315 331.446 766.835 328.806 763.475 328.806L763.195 328.806C763.115 328.806 762.955 328.806 762.875 328.846C762.595 327.126 762.475 326.726 762.195 325.286C765.715 322.046 766.995 318.726 766.995 314.086C766.995 312.446 766.595 310.766 765.835 309.086C764.835 306.726 763.875 306.566 763.875 306.566C761.395 307.686 759.635 311.646 759.635 316.406C759.635 317.246 759.675 318.126 759.835 319.046L760.155 320.726C756.275 324.006 751.955 327.886 751.955 332.926C751.955 333.166 751.955 333.446 751.995 333.726C752.475 340.086 757.435 342.086 761.715 342.086C762.515 342.086 763.075 341.966 763.635 341.966L764.155 344.806C764.275 345.446 764.435 346.926 764.435 347.446C764.435 351.726 761.235 351.766 760.915 351.766L760.395 351.766C759.515 351.766 758.755 351.646 758.195 351.246C758.035 351.126 757.955 351.046 757.955 350.966C757.955 350.846 758.075 350.806 758.195 350.726C758.435 350.686 758.635 350.686 758.875 350.566C759.955 350.246 761.395 349.406 761.395 347.846C761.395 347.846 761.395 347.646 761.395 347.646C761.395 346.526 760.915 345.486 759.835 345.046C759.435 344.846 759.075 344.766 758.675 344.766C757.115 344.766 755.675 346.006 755.475 347.646C755.435 347.646 755.355 348.046 755.355 348.566C755.355 350.046 756.035 353.046 760.355 353.046C760.515 353.046 760.755 353.006 760.955 353.006C762.795 352.886 765.755 351.446 765.755 347.326C765.755 345.326 765.195 343.446 764.915 341.606C767.835 340.526 769.555 338.126 769.555 335.206ZM764.075 311.726C764.955 311.726 765.515 312.406 765.515 313.846C765.515 314.006 765.515 314.206 765.475 314.406C765.155 316.566 764.035 317.566 761.235 319.726C761.155 319.086 761.035 318.566 761.035 318.406C760.995 318.126 760.995 317.806 760.995 317.486C760.995 314.766 761.995 311.806 764.075 311.726ZM754.395 335.046C754.395 330.686 757.555 328.446 760.995 325.886L761.475 329.046C759.115 329.726 757.275 331.966 757.275 334.326C757.275 334.726 757.315 335.126 757.435 335.486C757.835 337.246 758.995 338.566 760.235 338.966C760.475 339.046 760.675 339.086 760.795 339.086C760.995 339.086 761.115 338.966 761.115 338.846C761.115 338.686 760.915 338.486 760.715 338.366C760.195 338.166 759.275 337.126 759.235 336.046L759.235 335.806C759.235 333.966 760.675 333.326 762.075 333.046L763.435 340.566C763.035 340.726 762.475 340.806 761.715 340.806C758.875 340.806 754.555 339.846 754.395 335.286ZM764.715 340.286C764.315 337.926 764.155 335.886 763.595 332.926C765.795 332.926 767.275 334.206 767.395 336.406L767.395 336.686C767.395 338.526 766.595 339.486 764.715 340.286Z"></path></g></g><g><line stroke="#000000" stroke-width="1.6" x1="830.6272786538193" x2="830.6272786538193" y1="304.8461538461538" y2="344.8461538461538"></line><line stroke="#000000" stroke-width="5" x1="837.9272786538194" x2="837.9272786538194" y1="304.8461538461538" y2="344.8461538461538"></line></g><g><g><path d="M788.555 349.366C782.755 349.366 779.155 351.806 779.155 354.766C779.155 357.686 781.635 360.286 788.115 360.286C795.235 360.286 797.515 357.806 797.515 354.766C797.515 351.686 792.595 349.366 788.555 349.366ZM783.995 352.086C784.475 350.606 786.075 350.366 787.435 350.366C790.395 350.366 792.795 353.566 792.795 356.206C792.795 356.486 792.755 356.766 792.715 357.006C792.515 358.086 791.875 358.846 790.795 359.126C790.355 359.246 789.915 359.286 789.475 359.286C789.075 359.286 788.715 359.246 788.315 359.126C787.595 358.886 786.875 358.486 786.275 357.966C785.955 357.686 785.635 357.366 785.355 357.006C784.515 356.006 783.835 354.526 783.835 353.166C783.835 352.806 783.875 352.446 783.995 352.086Z"></path></g><line stroke="#000000" stroke-width="2.2" x1="775.9546380528611" x2="802.7546380528611" y1="354.8461538461538" y2="354.8461538461538"></line></g></g></svg>