<?xml version="1.0" encoding="UTF-8" standalone="no"?><svg xmlns="http://www.w3.org/2000/svg" height="279.4mm" viewBox="0 0 1328.6153846153845 1719.3846153846152" width="215.9mm"><g transform="translate(93.84615384615385)"><g><g><line stroke="#6A6A6A" stroke-width="1.3" x1="0" x2="329.08963767313253" y1="183.8461538461538" y2="183.8461538461538"></line><line stroke="#6A6A6A" stroke-width="1.3" x1="0" x2="329.08963767313253" y1="173.8461538461538" y2="173.8461538461538"></line><line stroke="#6A6A6A" stroke-width="1.3" x1="0" x2="329.08963767313253" y1="163.8461538461538" y2="163.8461538461538"></line><line stroke="#6A6A6A" stroke-width="1.3" x1="0" x2="329.08963767313253" y1="153.8461538461538" y2="153.8461538461538"></line><line stroke="#6A6A6A" stroke-width="1.3" x1="0" x2="329.08963767313253" y1="143.8461538461538" y2="143.8461538461538"></line></g><g><path d="M25.200 129.926C24.640 129.926 23.400 130.966 22.600 131.846C19.640 135.126 18.680 140.126 18.680 144.286C18.680 146.606 18.960 149.206 19.240 150.846C19.320 151.326 19.360 151.406 18.880 151.806C16.320 153.926 13.560 156.366 11.480 158.926C8.720 162.366 7 166.086 7 170.366C7 177.326 11.760 183.926 21.560 183.926C22.480 183.926 23.520 183.846 24.320 183.686C24.760 183.606 24.840 183.566 24.920 184.046C25.400 186.726 26 190.206 26 192.086C26 198.006 22 198.726 19.640 198.726C17.480 198.726 16.440 198.086 16.440 197.566C16.440 197.126 16.800 197.166 17.720 196.886C18.960 196.526 20.400 195.446 20.400 193.126C20.400 190.926 19 189.046 16.560 189.046C13.880 189.046 12.280 191.166 12.280 193.646C12.280 196.246 13.840 200.166 19.880 200.166C22.560 200.166 27.760 198.966 27.760 192.166C27.760 189.886 27.040 186.086 26.600 183.606C26.520 183.126 26.560 183.166 27.120 182.926C31.160 181.326 33.840 177.926 33.840 173.406C33.840 168.286 30.080 163.766 24.200 163.766C23.080 163.766 23.200 163.966 23.040 163.046L22.040 157.246C21.960 156.766 22.040 156.726 22.280 156.486C22.920 155.886 23.760 155.046 24.520 154.206C27.880 150.526 29.880 145.766 29.880 141.246C29.880 137.766 28.920 134.326 27.280 131.926C26.680 131.046 25.640 129.926 25.200 129.926ZM20.040 158.086C20.440 157.766 20.520 157.806 20.600 158.246L21.440 163.366C21.560 164.126 21.560 164.086 20.840 164.326C17.320 165.526 15.040 168.686 15.040 172.086C15.040 175.686 16.920 178.246 19.640 179.166C19.960 179.286 20.440 179.406 20.720 179.406C21.040 179.406 21.200 179.206 21.200 178.966C21.200 178.686 20.880 178.566 20.600 178.446C18.920 177.726 17.720 176.006 17.720 174.166C17.720 171.886 19.280 170.166 21.720 169.486C22.360 169.326 22.440 169.366 22.520 169.806L24.520 181.726C24.600 182.166 24.560 182.166 23.960 182.286C23.320 182.406 22.520 182.486 21.720 182.486C14.720 182.486 10.200 178.606 10.200 173.046C10.200 170.686 10.600 167.526 13.920 163.766C16.320 161.086 18.160 159.606 20.040 158.086ZM24.640 169.166C27.880 169.446 30.560 172.166 30.560 175.686C30.560 178.206 29.040 180.246 26.800 181.366C26.320 181.606 26.240 181.606 26.160 181.126L24.200 169.726C24.120 169.246 24.160 169.126 24.640 169.166ZM25.800 136.126C27.120 136.126 28.200 137.206 28.200 139.406C28.200 142.166 26.880 144.726 23.760 147.846C23.120 148.486 22.160 149.406 21.240 150.206C20.960 150.446 20.800 150.406 20.720 149.886C20.560 148.846 20.480 147.486 20.480 146.206C20.480 139.966 23.360 136.126 25.800 136.126Z"></path></g><g></g><path d="M57.820 153.806C56.620 153.806 55.220 154.126 54.140 154.606C50.580 156.166 48.700 160.446 48.700 164.246C48.700 164.606 48.700 164.966 48.740 165.326C48.940 167.486 49.980 169.526 51.300 171.126C52.820 172.966 55.020 173.806 57.420 173.806C64.420 173.806 65.460 167.446 65.460 166.286C65.460 165.406 65.020 165.406 64.860 165.406C64.540 165.406 64.260 165.446 64.260 166.126C64.260 171.286 59.860 172.486 58.580 172.486C55.340 172.486 53.620 169.326 53.620 162.726C53.620 156.126 56.660 154.766 58.820 154.766C60.900 154.766 61.740 155.726 61.740 156.126C61.740 156.486 61.620 157.006 61.020 157.006C59.420 157.006 58.500 158.726 58.500 159.966C58.500 162.246 60.460 162.966 61.580 162.966C61.580 162.966 64.620 162.846 64.620 159.526C64.620 154.286 58.580 153.806 57.820 153.806Z"></path></g><path d="M191.137 212.926C190.137 212.926 189.257 213.566 188.657 214.326L188.497 214.526C187.977 215.126 187.377 215.846 187.017 216.526C186.737 217.006 186.297 217.566 186.097 218.046C186.057 218.126 186.057 218.206 186.057 218.246C186.057 218.406 186.177 218.526 186.297 218.606C186.337 218.646 186.417 218.646 186.457 218.646C186.617 218.646 186.777 218.566 187.017 218.206C187.657 217.326 188.137 216.446 188.697 215.766C189.497 214.806 190.137 214.246 190.457 214.246C190.777 214.246 190.897 214.526 190.897 214.886C190.897 215.526 190.617 216.366 190.537 216.526C189.817 218.606 188.257 221.926 187.737 223.086C187.617 223.326 187.577 223.486 187.577 223.606C187.577 223.806 187.777 223.846 188.217 223.846L189.777 223.846C190.297 223.846 190.337 223.646 190.617 223.166C191.817 220.926 192.657 218.606 193.817 216.446C194.017 216.126 194.137 215.726 194.817 215.726C195.417 215.726 195.417 216.246 195.417 216.446C195.417 216.806 193.057 222.526 192.817 223.086C192.737 223.286 192.697 223.446 192.697 223.566C192.697 223.806 192.857 223.846 193.057 223.846L195.057 223.846C195.417 223.846 195.537 223.726 195.817 223.166C196.097 222.646 197.977 217.646 198.697 216.286C199.017 215.726 199.177 215.646 199.617 215.646C200.057 215.646 200.217 215.966 200.217 216.246C200.217 216.366 200.177 216.486 200.137 216.566C200.097 216.846 199.977 217.086 199.897 217.366C199.577 218.326 199.217 219.286 198.897 220.286L198.417 221.606C198.297 221.926 198.177 222.286 198.177 222.646C198.177 222.766 198.177 222.926 198.217 223.046C198.537 223.926 199.497 224.286 200.337 224.286C202.457 224.286 204.497 220.646 204.697 220.166C204.777 220.006 204.817 219.846 204.817 219.726C204.817 219.526 204.657 219.406 204.537 219.406C204.377 219.446 204.217 219.486 203.937 219.886C203.777 220.166 203.017 221.246 202.857 221.446C202.617 221.806 201.977 222.566 201.617 222.566C201.417 222.486 201.297 222.366 201.297 222.206C201.297 222.006 201.377 221.766 201.457 221.526C201.457 221.526 201.537 221.326 201.577 221.246C202.017 220.166 203.457 216.446 203.457 215.046C203.457 213.486 202.297 212.926 201.097 212.926C199.817 212.926 198.977 214.326 198.577 214.326C198.217 214.326 198.017 212.926 196.377 212.926C194.857 212.926 193.817 214.406 193.457 214.406C193.017 214.406 192.777 212.926 191.137 212.926ZM200.177 225.886C199.977 225.886 199.817 225.926 199.697 225.966C199.337 226.086 198.937 226.326 198.697 226.606C198.297 227.086 198.057 227.766 198.057 228.406C198.057 229.126 198.297 229.806 198.777 230.286C199.017 230.526 199.377 230.766 199.657 230.886C200.057 231.006 200.537 231.086 200.977 231.086C202.137 231.086 203.297 230.606 204.257 229.966C205.497 229.166 206.417 228.046 207.257 226.726C207.857 225.806 208.257 224.806 208.697 223.806L208.857 223.486C209.297 222.486 209.657 221.446 210.017 220.446L210.857 218.126C211.137 217.366 211.417 216.526 211.777 215.806C212.297 214.806 212.297 214.806 213.657 214.806C215.297 214.806 215.297 214.806 215.297 214.806C216.057 214.806 216.057 214.766 216.057 213.886C216.057 213.046 216.057 213.046 215.337 213.046C213.977 213.046 213.977 213.046 213.977 213.046C213.097 213.046 212.737 213.046 212.737 212.646C212.737 212.406 212.857 211.966 213.097 211.326C213.857 209.286 214.497 207.566 216.937 207.446L217.097 207.446C217.257 207.446 217.417 207.486 217.457 207.686C217.457 207.966 217.457 208.086 217.337 208.166C217.217 208.286 217.017 208.326 216.897 208.366C216.537 208.526 216.297 208.806 216.137 209.086C215.897 209.406 215.777 209.806 215.777 210.206C215.777 211.366 216.377 211.686 217.257 211.686C218.097 211.686 219.417 210.446 219.497 208.966C219.497 207.406 218.497 206.246 216.497 206.166L216.257 206.166C213.977 206.166 212.337 207.086 211.097 208.326C209.777 209.686 209.177 210.646 208.577 212.086C208.217 213.006 208.097 213.046 207.217 213.046L205.337 213.046C204.337 213.046 204.257 213.166 204.257 213.886C204.257 214.806 204.257 214.806 204.977 214.806C206.337 214.806 206.337 214.806 206.337 214.806C206.817 214.806 207.017 214.806 207.017 215.166C207.017 215.406 206.897 215.886 206.657 216.766C206.577 217.086 204.177 225.966 203.937 226.606C203.577 227.526 202.937 228.446 202.177 229.086C201.977 229.246 201.777 229.406 201.497 229.486C201.337 229.566 201.177 229.566 201.057 229.566C200.697 229.566 200.497 229.446 200.457 229.446C201.017 229.326 201.377 228.966 201.497 228.886C201.737 228.606 201.937 228.166 201.937 227.766C201.937 227.166 201.697 226.446 201.177 226.166C200.897 226.006 200.537 225.886 200.177 225.886Z"></path><g><line stroke="black" stroke-width="1.6" x1="329.88963767313254" x2="329.88963767313254" y1="143.8461538461538" y2="183.8461538461538"></line></g><g><g><path d="M93.480 154.646C101.120 154.646 102.640 148.446 102.640 146.926C102.640 144.566 100.760 143.046 98.080 143.046C91.160 143.046 89 148.406 89 150.806C89 153.246 90.960 154.646 93.480 154.646ZM97 150.966C94.920 152.366 93.480 152.846 92.480 152.846C91.520 152.846 90.960 152.366 90.640 151.806C90.480 151.526 90.360 151.206 90.360 150.886C90.360 149.886 91.360 148.606 94.560 146.766C96.840 145.446 98.280 144.966 99.240 144.966C100.120 144.966 100.600 145.366 100.920 145.926C101.080 146.206 101.200 146.486 101.200 146.806C101.200 147.726 100.240 148.846 97 150.966Z"></path></g><line stroke="#000000" stroke-width="1.2" x1="89.6" x2="89.6" y1="150.80615384615382" y2="188.80615384615382"></line><g><path d="M89.340 167.566C89.460 167.526 101.580 163.446 101.580 163.446C102.100 163.326 102.100 163.046 102.100 162.726C102.100 162.406 102.100 162.166 101.580 162.006L89.580 157.926C89.420 157.886 89.340 157.846 89.220 157.846C88.860 157.846 88.740 158.086 88.620 158.406C88.580 158.566 88.540 158.686 88.540 158.806C88.540 159.006 88.660 159.206 89.100 159.366C89.100 159.366 97.740 162.286 98.140 162.446C98.340 162.486 98.420 162.606 98.420 162.726C98.420 162.846 98.340 162.926 98.100 163.006C97.660 163.126 89.100 166.046 89.100 166.046C88.660 166.246 88.540 166.446 88.540 166.646C88.540 166.766 88.580 166.886 88.620 167.006C88.740 167.286 88.900 167.606 89.180 167.606C89.220 167.606 89.300 167.606 89.340 167.566Z"></path><path d="M110.140 101.946C110.140 100.786 109.140 99.786 107.940 99.786C106.780 99.786 105.780 100.786 105.780 101.946C105.780 103.146 106.780 104.146 107.940 104.146C109.140 104.146 110.140 103.146 110.140 101.946ZM107.900 95.186C116.420 95.186 118.140 101.506 118.540 103.026C118.580 103.146 118.580 103.266 118.620 103.306C118.900 103.866 118.980 104.146 119.460 104.146C119.820 104.146 120.020 103.986 120.020 103.586C120.020 103.466 120.020 103.346 119.980 103.186C117.500 90.946 109.140 90.866 107.980 90.866C106.700 90.866 98.420 90.946 95.980 103.186C95.940 103.346 95.940 103.506 95.940 103.626C95.940 104.026 96.140 104.146 96.460 104.146C96.820 104.146 97.020 103.866 97.260 103.306C97.300 103.266 97.340 103.106 97.380 102.946C97.860 101.306 99.580 95.186 107.900 95.186Z"></path></g><text font-family="Alegreya" font-size="22" text-anchor="middle" x="95.82" y="223.8461538461538">This</text></g><g><g><path d="M191.937 159.486C195.937 159.486 200.857 155.766 200.857 151.966C200.857 149.686 199.057 148.206 196.457 148.206C191.537 148.206 187.577 151.846 187.577 155.726C187.577 158.086 189.497 159.486 191.937 159.486Z"></path></g><line stroke="#000000" stroke-width="1.2" x1="188.17673077232286" x2="188.17673077232286" y1="155.68615384615381" y2="190.68615384615381"></line><text font-family="Alegreya" font-size="22" text-anchor="middle" x="194.21673077232288" y="223.8461538461538">is</text></g><g><g><path d="M262.693 169.486C266.693 169.486 271.613 165.766 271.613 161.966C271.613 159.686 269.813 158.206 267.213 158.206C262.293 158.206 258.333 161.846 258.333 165.726C258.333 168.086 260.253 169.486 262.693 169.486Z"></path></g><line stroke="#000000" stroke-width="1.2" x1="258.93318422272773" x2="258.93318422272773" y1="165.68615384615381" y2="200.68615384615381"></line><text font-family="Alegreya" font-size="22" text-anchor="middle" x="264.9731842227277" y="223.8461538461538">the</text></g><g><g><path d="M93.480 164.646C101.120 164.646 102.640 158.446 102.640 156.926C102.640 154.566 100.760 153.046 98.080 153.046C91.160 153.046 89 158.406 89 160.806C89 163.246 90.960 164.646 93.480 164.646ZM97 160.966C94.920 162.366 93.480 162.846 92.480 162.846C91.520 162.846 90.960 162.366 90.640 161.806C90.480 161.526 90.360 161.206 90.360 160.886C90.360 159.886 91.360 158.606 94.560 156.766C96.840 155.446 98.280 154.966 99.240 154.966C100.120 154.966 100.600 155.366 100.920 155.926C101.080 156.206 101.200 156.486 101.200 156.806C101.200 157.726 100.240 158.846 97 160.966Z"></path></g><line stroke="#000000" stroke-width="1.2" x1="89.6" x2="89.6" y1="160.80615384615382" y2="198.80615384615382"></line><g><path d="M89.340 142.566C89.460 142.526 101.580 138.446 101.580 138.446C102.100 138.326 102.100 138.046 102.100 137.726C102.100 137.406 102.100 137.166 101.580 137.006L89.580 132.926C89.420 132.886 89.340 132.846 89.220 132.846C88.860 132.846 88.740 133.086 88.620 133.406C88.580 133.566 88.540 133.686 88.540 133.806C88.540 134.006 88.660 134.206 89.100 134.366C89.100 134.366 97.740 137.286 98.140 137.446C98.340 137.486 98.420 137.606 98.420 137.726C98.420 137.846 98.340 137.926 98.100 138.006C97.660 138.126 89.100 141.046 89.100 141.046C88.660 141.246 88.540 141.446 88.540 141.646C88.540 141.766 88.580 141.886 88.620 142.006C88.740 142.286 88.900 142.606 89.180 142.606C89.220 142.606 89.300 142.606 89.340 142.566Z"></path><path d="M110.140 101.946C110.140 100.786 109.140 99.786 107.940 99.786C106.780 99.786 105.780 100.786 105.780 101.946C105.780 103.146 106.780 104.146 107.940 104.146C109.140 104.146 110.140 103.146 110.140 101.946ZM107.900 95.186C116.420 95.186 118.140 101.506 118.540 103.026C118.580 103.146 118.580 103.266 118.620 103.306C118.900 103.866 118.980 104.146 119.460 104.146C119.820 104.146 120.020 103.986 120.020 103.586C120.020 103.466 120.020 103.346 119.980 103.186C117.500 90.946 109.140 90.866 107.980 90.866C106.700 90.866 98.420 90.946 95.980 103.186C95.940 103.346 95.940 103.506 95.940 103.626C95.940 104.026 96.140 104.146 96.460 104.146C96.820 104.146 97.020 103.866 97.260 103.306C97.300 103.266 97.340 103.106 97.380 102.946C97.860 101.306 99.580 95.186 107.900 95.186Z"></path></g><text font-family="Alegreya" font-size="22" text-anchor="middle" x="95.82" y="223.8461538461538">This</text></g><g><g><path d="M191.937 169.486C195.937 169.486 200.857 165.766 200.857 161.966C200.857 159.686 199.057 158.206 196.457 158.206C191.537 158.206 187.577 161.846 187.577 165.726C187.577 168.086 189.497 169.486 191.937 169.486Z"></path></g><line stroke="#000000" stroke-width="1.2" x1="188.17673077232286" x2="188.17673077232286" y1="165.68615384615381" y2="200.68615384615381"></line><text font-family="Alegreya" font-size="22" text-anchor="middle" x="194.21673077232288" y="223.8461538461538">is</text></g><g><g><path d="M262.693 179.486C266.693 179.486 271.613 175.766 271.613 171.966C271.613 169.686 269.813 168.206 267.213 168.206C262.293 168.206 258.333 171.846 258.333 175.726C258.333 178.086 260.253 179.486 262.693 179.486Z"></path></g><line stroke="#000000" stroke-width="1.2" x1="271.0131842227277" x2="271.0131842227277" y1="172.0061538461538" y2="137.0061538461538"></line><text font-family="Alegreya" font-size="22" text-anchor="middle" x="264.9731842227277" y="223.8461538461538">the</text></g></g><g transform="translate(439.53579151928636)"><g><g><line stroke="#6A6A6A" stroke-width="1.3" x1="-16.599999999999966" x2="285.8634118614877" y1="183.8461538461538" y2="183.8461538461538"></line><line stroke="#6A6A6A" stroke-width="1.3" x1="-16.599999999999966" x2="285.8634118614877" y1="173.8461538461538" y2="173.8461538461538"></line><line stroke="#6A6A6A" stroke-width="1.3" x1="-16.599999999999966" x2="285.8634118614877" y1="163.8461538461538" y2="163.8461538461538"></line><line stroke="#6A6A6A" stroke-width="1.3" x1="-16.599999999999966" x2="285.8634118614877" y1="153.8461538461538" y2="153.8461538461538"></line><line stroke="#6A6A6A" stroke-width="1.3" x1="-16.599999999999966" x2="285.8634118614877" y1="143.8461538461538" y2="143.8461538461538"></line></g></g><g><line stroke="black" stroke-width="1.6" x1="286.66341186148765" x2="286.66341186148765" y1="143.8461538461538" y2="183.8461538461538"></line></g><g><path d="M9.320 140.286C7.800 138.446 6.560 136.966 6.560 134.726C6.560 134.566 6.600 134.366 6.600 134.206C6.760 131.886 8.200 129.966 9.240 128.326C9.360 128.126 9.400 127.926 9.400 127.726C9.400 127.326 9.240 126.966 9.240 126.966C9.240 126.966 3.320 119.926 2.640 119.246C2.440 119.046 2.160 118.926 1.920 118.926C1.520 118.926 1.120 119.206 1.120 119.766C1.120 119.966 1.160 120.166 1.280 120.406C1.440 120.846 3.720 122.886 3.720 125.766C3.720 127.246 3.120 128.966 1.320 130.846C0.920 131.246 0.760 131.686 0.760 132.006C0.760 132.566 1.160 132.966 1.160 132.966L3.120 135.366C3.760 136.166 4.320 136.926 4.840 137.766C4.920 137.926 5.080 138.126 5.080 138.326C5.080 138.366 5.080 138.446 5.040 138.486C4.960 138.646 4.800 138.686 4.600 138.686C4.360 138.686 4.120 138.606 3.960 138.566C3.760 138.566 3.520 138.446 3.320 138.446C1.600 138.446 0.040 140.166 0.040 142.286C0.040 144.286 1.760 146.246 4.680 148.486C5 148.726 5.400 148.846 5.720 148.846C6 148.846 6.280 148.766 6.320 148.606C6.360 148.486 6.400 148.406 6.400 148.326C6.400 147.966 6.080 147.646 5.760 147.366C5.240 147.366 4.800 146.286 4.720 145.926C4.600 145.606 4.560 145.246 4.560 144.886C4.560 143.646 5.160 142.246 6.440 142.006C6.640 141.966 6.840 141.966 7.080 141.966C8.240 141.966 9.560 142.406 10.200 142.646C10.240 142.646 10.280 142.686 10.320 142.686C10.440 142.726 10.520 142.726 10.600 142.726C10.720 142.726 10.800 142.686 10.800 142.566C10.800 142.086 9.760 140.766 9.320 140.286Z"></path></g><g><g><path d="M75.116 159.486C79.116 159.486 84.036 155.766 84.036 151.966C84.036 149.686 82.236 148.206 79.636 148.206C74.716 148.206 70.756 151.846 70.756 155.726C70.756 158.086 72.676 159.486 75.116 159.486Z"></path></g><line stroke="#000000" stroke-width="1.2" x1="71.35645345040483" x2="71.35645345040483" y1="155.68615384615381" y2="190.68615384615381"></line><text font-family="Alegreya" font-size="22" text-anchor="middle" x="77.39645345040483" y="223.8461538461538">lyrics</text></g><g><g><path d="M154.257 204.486C158.257 204.486 163.177 200.766 163.177 196.966C163.177 194.686 161.377 193.206 158.777 193.206C153.857 193.206 149.897 196.846 149.897 200.726C149.897 203.086 151.817 204.486 154.257 204.486Z"></path><g><circle cx="169.17696328961077" cy="198.8461538461538" r="2.4"></circle></g></g><line stroke="#000000" stroke-width="1.2" x1="162.57696328961077" x2="162.57696328961077" y1="197.0061538461538" y2="159.0061538461538"></line><line stroke="#000000" stroke-width="2.2" x1="146.69696328961078" x2="168.61696328961077" y1="193.8461538461538" y2="193.8461538461538"></line><text font-family="Alegreya" font-size="22" text-anchor="middle" x="156.53696328961075" y="223.8461538461538">of</text></g><g><g><path d="M247.287 164.486C251.287 164.486 256.207 160.766 256.207 156.966C256.207 154.686 254.407 153.206 251.807 153.206C246.887 153.206 242.927 156.846 242.927 160.726C242.927 163.086 244.847 164.486 247.287 164.486Z"></path></g><line stroke="#000000" stroke-width="1.2" x1="243.52723573300082" x2="243.52723573300082" y1="160.68615384615381" y2="198.68615384615381"></line><path d="M252.527 173.806C253.087 175.486 253.367 177.486 253.367 179.286C253.367 181.646 252.367 185.006 251.767 186.366C250.287 189.726 248.287 192.966 242.927 194.766L242.927 204.166C242.927 204.646 243.127 204.766 243.367 204.766C244.127 204.766 244.447 204.526 244.527 203.886C245.207 200.086 248.167 196.606 250.207 193.446C252.727 189.486 255.167 184.726 255.167 179.726C255.167 176.606 254.367 173.766 254.047 172.486C253.727 171.206 251.927 172.086 252.527 173.806Z"></path><text font-family="Alegreya" font-size="22" text-anchor="middle" x="249.5672357330008" y="223.8461538461538">Voice1</text></g><g><path d="M9.320 200.286C7.800 198.446 6.560 196.966 6.560 194.726C6.560 194.566 6.600 194.366 6.600 194.206C6.760 191.886 8.200 189.966 9.240 188.326C9.360 188.126 9.400 187.926 9.400 187.726C9.400 187.326 9.240 186.966 9.240 186.966C9.240 186.966 3.320 179.926 2.640 179.246C2.440 179.046 2.160 178.926 1.920 178.926C1.520 178.926 1.120 179.206 1.120 179.766C1.120 179.966 1.160 180.166 1.280 180.406C1.440 180.846 3.720 182.886 3.720 185.766C3.720 187.246 3.120 188.966 1.320 190.846C0.920 191.246 0.760 191.686 0.760 192.006C0.760 192.566 1.160 192.966 1.160 192.966L3.120 195.366C3.760 196.166 4.320 196.926 4.840 197.766C4.920 197.926 5.080 198.126 5.080 198.326C5.080 198.366 5.080 198.446 5.040 198.486C4.960 198.646 4.800 198.686 4.600 198.686C4.360 198.686 4.120 198.606 3.960 198.566C3.760 198.566 3.520 198.446 3.320 198.446C1.600 198.446 0.040 200.166 0.040 202.286C0.040 204.286 1.760 206.246 4.680 208.486C5 208.726 5.400 208.846 5.720 208.846C6 208.846 6.280 208.766 6.320 208.606C6.360 208.486 6.400 208.406 6.400 208.326C6.400 207.966 6.080 207.646 5.760 207.366C5.240 207.366 4.800 206.286 4.720 205.926C4.600 205.606 4.560 205.246 4.560 204.886C4.560 203.646 5.160 202.246 6.440 202.006C6.640 201.966 6.840 201.966 7.080 201.966C8.240 201.966 9.560 202.406 10.200 202.646C10.240 202.646 10.280 202.686 10.320 202.686C10.440 202.726 10.520 202.726 10.600 202.726C10.720 202.726 10.800 202.686 10.800 202.566C10.800 202.086 9.760 200.766 9.320 200.286Z"></path></g><g><g><path d="M75.116 169.486C79.116 169.486 84.036 165.766 84.036 161.966C84.036 159.686 82.236 158.206 79.636 158.206C74.716 158.206 70.756 161.846 70.756 165.726C70.756 168.086 72.676 169.486 75.116 169.486Z"></path></g><line stroke="#000000" stroke-width="1.2" x1="83.43645345040484" x2="83.43645345040484" y1="162.0061538461538" y2="127.00615384615381"></line><text font-family="Alegreya" font-size="22" text-anchor="middle" x="77.39645345040483" y="223.8461538461538">lyrics</text></g><g><g><path d="M154.257 214.486C158.257 214.486 163.177 210.766 163.177 206.966C163.177 204.686 161.377 203.206 158.777 203.206C153.857 203.206 149.897 206.846 149.897 210.726C149.897 213.086 151.817 214.486 154.257 214.486Z"></path><g><circle cx="169.17696328961077" cy="208.8461538461538" r="2.4"></circle></g></g><line stroke="#000000" stroke-width="1.2" x1="162.57696328961077" x2="162.57696328961077" y1="207.0061538461538" y2="159.0061538461538"></line><line stroke="#000000" stroke-width="2.2" x1="146.69696328961078" x2="168.61696328961077" y1="193.8461538461538" y2="193.8461538461538"></line><line stroke="#000000" stroke-width="2.2" x1="146.69696328961078" x2="168.61696328961077" y1="203.8461538461538" y2="203.8461538461538"></line><text font-family="Alegreya" font-size="22" text-anchor="middle" x="156.53696328961075" y="223.8461538461538">of</text></g><g><g><path d="M247.287 174.486C251.287 174.486 256.207 170.766 256.207 166.966C256.207 164.686 254.407 163.206 251.807 163.206C246.887 163.206 242.927 166.846 242.927 170.726C242.927 173.086 244.847 174.486 247.287 174.486Z"></path></g><line stroke="#000000" stroke-width="1.2" x1="255.60723573300083" x2="255.60723573300083" y1="167.0061538461538" y2="129.0061538461538"></line><path d="M264.527 155.086C264.527 155.086 265.567 151.286 265.567 148.166C265.567 143.166 263.487 138.446 260.967 134.446C258.927 131.286 257.247 127.846 256.607 124.006C256.487 123.366 256.167 123.126 255.407 123.126C255.167 123.126 255.007 123.246 255.007 123.726L255.007 133.286C257.647 133.766 261.447 139.206 262.887 142.606C263.487 143.966 263.847 146.246 263.847 148.606C263.847 150.406 263.567 152.286 262.887 154.086C262.807 154.326 262.767 154.526 262.767 154.686C262.767 155.326 263.167 155.686 263.407 155.846C263.647 156.006 264.327 155.766 264.527 155.086Z"></path><text font-family="Alegreya" font-size="22" text-anchor="middle" x="249.5672357330008" y="223.8461538461538">Voice1</text></g></g><g transform="translate(741.999203380774)"><g><g><line stroke="#6A6A6A" stroke-width="1.3" x1="-16.59999999999991" x2="136.99700809424087" y1="183.8461538461538" y2="183.8461538461538"></line><line stroke="#6A6A6A" stroke-width="1.3" x1="-16.59999999999991" x2="136.99700809424087" y1="173.8461538461538" y2="173.8461538461538"></line><line stroke="#6A6A6A" stroke-width="1.3" x1="-16.59999999999991" x2="136.99700809424087" y1="163.8461538461538" y2="163.8461538461538"></line><line stroke="#6A6A6A" stroke-width="1.3" x1="-16.59999999999991" x2="136.99700809424087" y1="153.8461538461538" y2="153.8461538461538"></line><line stroke="#6A6A6A" stroke-width="1.3" x1="-16.59999999999991" x2="136.99700809424087" y1="143.8461538461538" y2="143.8461538461538"></line></g></g><g><line stroke="#000000" stroke-width="1.6" x1="127.19700809424089" x2="127.19700809424089" y1="143.8461538461538" y2="183.8461538461538"></line><line stroke="#000000" stroke-width="5" x1="134.4970080942409" x2="134.4970080942409" y1="143.8461538461538" y2="183.8461538461538"></line></g><g><path d="M60.539 158.206L60.539 154.526C60.539 153.926 60.059 153.486 59.499 153.486L50.299 153.486C49.699 153.486 49.259 153.926 49.259 154.526L49.259 158.206C49.259 158.766 49.699 159.246 50.299 159.246L59.499 159.246C60.059 159.246 60.539 158.766 60.539 158.206Z"></path></g></g></svg>