<?xml version="1.0" encoding="UTF-8" standalone="no"?><svg xmlns="http://www.w3.org/2000/svg" height="279.4mm" viewBox="0 0 1328.6153846153845 1719.3846153846152" width="215.9mm"><g transform="translate(93.84615384615385)"><g><g><line stroke="#6A6A6A" stroke-width="1.3" x1="0" x2="622.5302178188165" y1="183.8461538461538" y2="183.8461538461538"></line><line stroke="#6A6A6A" stroke-width="1.3" x1="0" x2="622.5302178188165" y1="173.8461538461538" y2="173.8461538461538"></line><line stroke="#6A6A6A" stroke-width="1.3" x1="0" x2="622.5302178188165" y1="163.8461538461538" y2="163.8461538461538"></line><line stroke="#6A6A6A" stroke-width="1.3" x1="0" x2="622.5302178188165" y1="153.8461538461538" y2="153.8461538461538"></line><line stroke="#6A6A6A" stroke-width="1.3" x1="0" x2="622.5302178188165" y1="143.8461538461538" y2="143.8461538461538"></line></g><g><path d="M25.200 129.926C24.640 129.926 23.400 130.966 22.600 131.846C19.640 135.126 18.680 140.126 18.680 144.286C18.680 146.606 18.960 149.206 19.240 150.846C19.320 151.326 19.360 151.406 18.880 151.806C16.320 153.926 13.560 156.366 11.480 158.926C8.720 162.366 7 166.086 7 170.366C7 177.326 11.760 183.926 21.560 183.926C22.480 183.926 23.520 183.846 24.320 183.686C24.760 183.606 24.840 183.566 24.920 184.046C25.400 186.726 26 190.206 26 192.086C26 198.006 22 198.726 19.640 198.726C17.480 198.726 16.440 198.086 16.440 197.566C16.440 197.126 16.800 197.166 17.720 196.886C18.960 196.526 20.400 195.446 20.400 193.126C20.400 190.926 19 189.046 16.560 189.046C13.880 189.046 12.280 191.166 12.280 193.646C12.280 196.246 13.840 200.166 19.880 200.166C22.560 200.166 27.760 198.966 27.760 192.166C27.760 189.886 27.040 186.086 26.600 183.606C26.520 183.126 26.560 183.166 27.120 182.926C31.160 181.326 33.840 177.926 33.840 173.406C33.840 168.286 30.080 163.766 24.200 163.766C23.080 163.766 23.200 163.966 23.040 163.046L22.040 157.246C21.960 156.766 22.040 156.726 22.280 156.486C22.920 155.886 23.760 155.046 24.520 154.206C27.880 150.526 29.880 145.766 29.880 141.246C29.880 137.766 28.920 134.326 27.280 131.926C26.680 131.046 25.640 129.926 25.200 129.926ZM20.040 158.086C20.440 157.766 20.520 157.806 20.600 158.246L21.440 163.366C21.560 164.126 21.560 164.086 20.840 164.326C17.320 165.526 15.040 168.686 15.040 172.086C15.040 175.686 16.920 178.246 19.640 179.166C19.960 179.286 20.440 179.406 20.720 179.406C21.040 179.406 21.200 179.206 21.200 178.966C21.200 178.686 20.880 178.566 20.600 178.446C18.920 177.726 17.720 176.006 17.720 174.166C17.720 171.886 19.280 170.166 21.720 169.486C22.360 169.326 22.440 169.366 22.520 169.806L24.520 181.726C24.600 182.166 24.560 182.166 23.960 182.286C23.320 182.406 22.520 182.486 21.720 182.486C14.720 182.486 10.200 178.606 10.200 173.046C10.200 170.686 10.600 167.526 13.920 163.766C16.320 161.086 18.160 159.606 20.040 158.086ZM24.640 169.166C27.880 169.446 30.560 172.166 30.560 175.686C30.560 178.206 29.040 180.246 26.800 181.366C26.320 181.606 26.240 181.606 26.160 181.126L24.200 169.726C24.120 169.246 24.160 169.126 24.640 169.166ZM25.800 136.126C27.120 136.126 28.200 137.206 28.200 139.406C28.200 142.166 26.880 144.726 23.760 147.846C23.120 148.486 22.160 149.406 21.240 150.206C20.960 150.446 20.800 150.406 20.720 149.886C20.560 148.846 20.480 147.486 20.480 146.206C20.480 139.966 23.360 136.126 25.800 136.126Z"></path></g><g></g><g><g><path d="M58.060 149.846C58.540 150.326 59.220 150.526 59.860 150.526C60.180 150.526 60.540 150.446 60.860 150.366C62.100 150.046 63.060 148.766 63.060 147.486C63.060 147.326 63.060 147.206 63.020 147.046C62.820 145.726 61.700 144.766 60.500 144.326C59.540 143.926 58.380 143.806 57.340 143.806C54.300 143.846 51.460 145.326 50.020 148.046C49.140 149.726 48.460 151.846 48.460 153.726L48.460 153.886C48.500 155.726 48.820 157.806 49.700 159.406C50.540 160.926 51.900 162.566 53.460 163.246C54.460 163.686 55.660 163.806 56.660 163.806C58.460 163.806 60.460 163.526 61.900 162.366C63.300 161.246 64.220 159.446 64.220 157.646C64.220 157.446 64.180 157.286 64.180 157.086C64.020 155.446 63.020 154.046 61.740 153.086C60.660 152.286 59.420 151.846 58.180 151.846C56.900 151.846 55.580 152.326 54.540 153.246C54.460 153.326 54.380 153.326 54.300 153.326C54.060 153.326 53.940 153.006 53.940 152.366C54.060 144.966 56.420 144.766 57.260 144.766C58.060 144.766 58.580 144.966 58.580 145.366C58.580 145.926 57.820 146.406 57.580 146.886C57.380 147.246 57.300 147.646 57.300 148.046C57.300 148.646 57.500 149.246 57.900 149.686C57.940 149.766 58.020 149.806 58.060 149.846ZM56.540 153.766C57.820 153.766 58.900 155.766 58.900 158.246C58.900 160.726 57.820 162.726 56.540 162.726C55.260 162.726 54.220 160.726 54.220 158.246C54.220 155.766 55.260 153.766 56.540 153.766Z"></path></g><g><path d="M60.820 172.406C62.260 171.486 63.220 170.166 63.220 168.166C63.220 164.086 57.340 163.486 56.260 163.486C51.620 163.486 48.460 165.606 48.460 168.966C48.460 171.726 50.020 173.206 51.940 174.286C49.860 175.286 48.260 176.606 48.260 179.126C48.260 182.606 51.860 184.206 55.820 184.206C59.820 184.206 64.100 182.486 64.100 177.086C64.100 174.686 62.700 173.366 60.820 172.406ZM55.660 182.886C52.980 182.886 50.540 181.526 50.540 178.926C50.540 177.326 51.940 175.846 53.700 175.166C56.620 176.446 59.580 177.286 59.580 179.926C59.580 181.526 58.340 182.886 55.660 182.886ZM58.740 171.486C55.540 170.366 52.140 169.686 52.140 167.166C52.140 165.486 54.420 164.646 56.180 164.646C57.460 164.646 60.860 165.286 60.860 168.086C60.860 169.686 60.060 170.726 58.740 171.486Z"></path></g></g><text font-family='Alegreya' font-style='italic' text-anchor='end' stroke='#7a7a7a' font-size="24" x="0" y="133.8461538461538">25</text><g><path d="M-13.200 164.426C-12.040 163.706-10.720 160.866-10.720 158.506C-10.720 158.306-10.720 158.066-10.760 157.866C-11.040 155.466-12.240 151.746-12.240 149.586C-12.240 147.506-11.320 145.506-11.120 145.146C-10.960 144.986-10.920 144.866-10.920 144.746C-10.920 144.666-10.960 144.586-11 144.586C-11.040 144.546-11.080 144.466-11.160 144.466C-11.240 144.466-11.320 144.546-11.480 144.746C-12.360 145.826-13.440 148.146-13.440 152.146C-13.440 156.106-12.040 157.706-12.040 160.226C-12.040 162.106-12.800 163.146-13.920 164.426C-13.200 165.226-12.040 165.866-12.040 168.466C-12.040 171.266-13.440 173.746-13.440 176.666C-13.440 180.666-12.360 182.986-11.480 184.106C-11.320 184.306-11.240 184.346-11.160 184.346C-11.080 184.346-11.040 184.306-11 184.266C-10.960 184.226-10.920 184.186-10.920 184.106C-10.920 183.986-10.960 183.866-11.120 183.666C-11.320 183.346-12.240 181.346-12.240 179.226C-12.240 177.106-11.040 173.346-10.760 170.986C-10.720 170.786-10.720 170.586-10.720 170.346C-10.720 167.986-12.040 165.146-13.200 164.426Z"></path><line stroke="#000000" stroke-width="1.6" x1="0" x2="0" y1="143.3461538461538" y2="184.3461538461538"></line></g></g><g><line stroke="black" stroke-width="1.6" x1="612.7302178188163" x2="612.7302178188163" y1="143.3461538461538" y2="184.3461538461538"></line><line stroke="black" stroke-width="5" x1="620.0302178188164" x2="620.0302178188164" y1="143.3461538461538" y2="184.3461538461538"></line></g><g><g><path d="M93.360 154.486C97.360 154.486 102.280 150.766 102.280 146.966C102.280 144.686 100.480 143.206 97.880 143.206C92.960 143.206 89 146.846 89 150.726C89 153.086 90.920 154.486 93.360 154.486Z"></path></g><line stroke="#000000" stroke-width="1.2" x1="89.6" x2="89.6" y1="150.68615384615381" y2="188.68615384615381"></line></g><g><g><path d="M259.029 149.486C263.029 149.486 267.949 145.766 267.949 141.966C267.949 139.686 266.149 138.206 263.549 138.206C258.629 138.206 254.669 141.846 254.669 145.726C254.669 148.086 256.589 149.486 259.029 149.486Z"></path><path d="M252.149 139.126C252.429 139.006 252.629 138.686 252.629 138.446L252.629 135.606C252.629 135.406 252.509 135.286 252.349 135.286C252.269 135.286 252.229 135.286 252.149 135.326C252.149 135.326 251.349 135.646 251.149 135.686C250.869 135.686 250.589 135.486 250.589 135.166C250.589 134.766 250.589 130.286 250.589 130.286C250.589 130.046 250.349 129.846 250.029 129.846C249.629 129.846 249.389 130.046 249.389 130.286C249.389 130.286 249.389 135.086 249.389 135.486C249.349 135.886 249.229 136.406 248.869 136.646C248.389 136.926 247.029 137.486 246.349 137.646C245.989 137.646 245.869 137.166 245.869 136.846C245.869 136.446 245.869 132.046 245.869 132.046C245.869 131.806 245.589 131.606 245.309 131.606C244.909 131.606 244.669 131.806 244.669 132.046C244.669 132.046 244.669 134.206 244.669 135.806L244.669 137.446C244.669 138.006 244.429 138.406 244.189 138.526C243.949 138.646 243.149 138.966 243.149 138.966C242.869 139.046 242.669 139.366 242.669 139.606L242.669 142.446C242.669 142.686 242.789 142.806 242.989 142.806C243.029 142.806 243.109 142.766 243.149 142.766C243.149 142.766 243.749 142.526 244.029 142.366C244.069 142.366 244.109 142.326 244.149 142.326C244.429 142.326 244.669 142.726 244.669 143.046L244.669 147.006C244.669 147.446 244.469 147.806 244.229 147.926C243.989 148.006 243.149 148.366 243.149 148.366C242.869 148.446 242.669 148.766 242.669 149.006L242.669 151.846C242.669 152.086 242.789 152.206 242.989 152.206C243.029 152.206 243.109 152.166 243.149 152.166C243.149 152.166 243.709 151.926 244.069 151.806C244.109 151.766 244.149 151.766 244.189 151.766C244.469 151.766 244.669 152.206 244.669 152.406C244.669 152.646 244.669 157.326 244.669 157.326C244.669 157.566 244.909 157.766 245.189 157.766C245.589 157.766 245.869 157.566 245.869 157.326C245.869 157.326 245.869 152.246 245.869 151.766C245.869 151.246 246.069 150.966 246.269 150.886L248.709 149.886C248.749 149.886 248.829 149.846 248.869 149.846C249.189 149.846 249.389 150.326 249.389 150.566C249.389 150.846 249.389 155.566 249.389 155.566C249.389 155.806 249.629 156.006 249.909 156.006C250.349 156.006 250.589 155.806 250.589 155.566C250.589 155.566 250.589 150.166 250.589 149.886C250.589 149.566 250.749 149.086 251.029 148.966C251.309 148.846 252.149 148.526 252.149 148.526C252.429 148.406 252.629 148.086 252.629 147.846L252.629 145.006C252.629 144.806 252.509 144.686 252.349 144.686C252.269 144.686 252.229 144.686 252.149 144.726C252.149 144.726 251.309 145.046 251.109 145.126C250.869 145.126 250.589 144.886 250.589 144.406L250.589 140.686C250.589 140.406 250.789 139.646 251.109 139.526C251.429 139.406 252.149 139.126 252.149 139.126ZM249.389 145.646C249.149 146.446 247.269 147.246 246.349 147.246C246.109 147.246 245.909 147.166 245.869 147.046C245.789 146.886 245.749 146.006 245.749 145.046C245.749 143.806 245.789 142.406 245.869 142.086C245.949 141.406 247.789 140.566 248.789 140.566C249.069 140.566 249.309 140.646 249.389 140.806C249.469 141.006 249.549 142.006 249.549 143.086C249.549 144.166 249.469 145.286 249.389 145.646Z"></path></g><line stroke="#000000" stroke-width="1.2" x1="255.2685768247783" x2="255.2685768247783" y1="145.68615384615381" y2="179.68615384615381"></line><g><polygon fill="black" points="255.2685768247783,180.8461538461538 322.1845315991422,175.8461538461538 322.1845315991422,170.8461538461538 255.2685768247783,175.8461538461538" stroke="black" stroke-width="0"></polygon><polygon fill="black" points="255.2685768247783,172.0461538461538 322.1845315991422,167.0461538461538 322.1845315991422,162.0461538461538 255.2685768247783,167.0461538461538" stroke="black" stroke-width="0"></polygon></g></g><g><g><path d="M325.945 144.486C329.945 144.486 334.865 140.766 334.865 136.966C334.865 134.686 333.065 133.206 330.465 133.206C325.545 133.206 321.585 136.846 321.585 140.726C321.585 143.086 323.505 144.486 325.945 144.486Z"></path></g><line stroke="#000000" stroke-width="1.2" x1="322.1845315991422" x2="322.1845315991422" y1="140.68615384615381" y2="174.68615384615381"></line></g><g><g><path d="M392.860 134.486C396.860 134.486 401.780 130.766 401.780 126.966C401.780 124.686 399.980 123.206 397.380 123.206C392.460 123.206 388.500 126.846 388.500 130.726C388.500 133.086 390.420 134.486 392.860 134.486Z"></path></g><line stroke="#000000" stroke-width="1.2" x1="389.10048637350604" x2="389.10048637350604" y1="130.68615384615381" y2="156.93615384615381"></line><line stroke="#000000" stroke-width="2.2" x1="385.30048637350603" x2="407.22048637350605" y1="133.8461538461538" y2="133.8461538461538"></line><path d="M398.100 131.016C398.700 134.376 398.700 138.016 397.180 141.136C394.420 146.736 391.180 146.856 388.700 146.936L388.500 146.936L388.500 162.776C388.500 162.776 388.940 162.816 389.180 162.816C389.420 162.816 389.900 162.736 389.980 162.296C390.940 156.136 398.820 154.416 399.780 148.136C399.860 147.696 399.900 147.216 399.900 146.696C399.900 144.256 399.020 141.856 398.900 141.616C398.860 141.536 398.860 141.456 398.860 141.336C398.860 141.176 398.900 141.096 398.900 140.976C400.340 137.976 400.380 134.056 399.740 130.856C399.540 129.936 399.260 129.976 398.780 129.976C398.300 130.016 397.980 130.336 398.100 131.016ZM397.540 144.216C397.740 144.216 398.020 144.336 398.060 144.496C398.260 144.776 398.260 145.176 398.340 145.496C398.380 145.776 398.380 146.056 398.380 146.296C398.380 147.616 398.020 148.816 397.300 149.856C395.980 151.816 393.420 154.056 390.980 154.056L390.660 154.056C390.340 154.056 390.100 153.856 390.100 153.656C390.100 153.616 390.100 153.576 390.140 153.536C390.980 150.256 393.220 149.336 395.100 147.136C395.940 146.216 396.620 145.416 397.260 144.376C397.340 144.256 397.420 144.216 397.540 144.216Z"></path></g><g><g><path d="M404.260 139.486C408.260 139.486 413.180 135.766 413.180 131.966C413.180 129.686 411.380 128.206 408.780 128.206C403.860 128.206 399.900 131.846 399.900 135.726C399.900 138.086 401.820 139.486 404.260 139.486Z"></path><g><circle cx="419.180486373506" cy="128.8461538461538" r="2.4"></circle></g></g><line stroke="#000000" stroke-width="1.2" x1="400.5004863735061" x2="400.5004863735061" y1="135.68615384615381" y2="170.68615384615381"></line><line stroke="#000000" stroke-width="2.2" x1="396.70048637350607" x2="418.6204863735061" y1="133.8461538461538" y2="133.8461538461538"></line></g><g><g><path d="M593.490 144.486C597.490 144.486 602.410 140.766 602.410 136.966C602.410 134.686 600.610 133.206 598.010 133.206C593.090 133.206 589.130 136.846 589.130 140.726C589.130 143.086 591.050 144.486 593.490 144.486Z"></path></g><line stroke="#000000" stroke-width="1.2" x1="589.7302178188164" x2="589.7302178188164" y1="140.68615384615381" y2="166.93615384615381"></line><path d="M598.730 141.016C599.330 144.376 599.330 148.016 597.810 151.136C595.050 156.736 591.810 156.856 589.330 156.936L589.130 156.936L589.130 172.776C589.130 172.776 589.570 172.816 589.810 172.816C590.050 172.816 590.530 172.736 590.610 172.296C591.570 166.136 599.450 164.416 600.410 158.136C600.490 157.696 600.530 157.216 600.530 156.696C600.530 154.256 599.650 151.856 599.530 151.616C599.490 151.536 599.490 151.456 599.490 151.336C599.490 151.176 599.530 151.096 599.530 150.976C600.970 147.976 601.010 144.056 600.370 140.856C600.170 139.936 599.890 139.976 599.410 139.976C598.930 140.016 598.610 140.336 598.730 141.016ZM598.170 154.216C598.370 154.216 598.650 154.336 598.690 154.496C598.890 154.776 598.890 155.176 598.970 155.496C599.010 155.776 599.010 156.056 599.010 156.296C599.010 157.616 598.650 158.816 597.930 159.856C596.610 161.816 594.050 164.056 591.610 164.056L591.290 164.056C590.970 164.056 590.730 163.856 590.730 163.656C590.730 163.616 590.730 163.576 590.770 163.536C591.610 160.256 593.850 159.336 595.730 157.136C596.570 156.216 597.250 155.416 597.890 154.376C597.970 154.256 598.050 154.216 598.170 154.216Z"></path></g><g><g><path d="M604.890 139.486C608.890 139.486 613.810 135.766 613.810 131.966C613.810 129.686 612.010 128.206 609.410 128.206C604.490 128.206 600.530 131.846 600.530 135.726C600.530 138.086 602.450 139.486 604.890 139.486Z"></path></g><line stroke="#000000" stroke-width="1.2" x1="601.1302178188165" x2="601.1302178188165" y1="135.68615384615381" y2="161.93615384615381"></line><line stroke="#000000" stroke-width="2.2" x1="597.3302178188164" x2="619.2502178188164" y1="133.8461538461538" y2="133.8461538461538"></line><path d="M610.130 136.016C610.730 139.376 610.730 143.016 609.210 146.136C606.450 151.736 603.210 151.856 600.730 151.936L600.530 151.936L600.530 167.776C600.530 167.776 600.970 167.816 601.210 167.816C601.450 167.816 601.930 167.736 602.010 167.296C602.970 161.136 610.850 159.416 611.810 153.136C611.890 152.696 611.930 152.216 611.930 151.696C611.930 149.256 611.050 146.856 610.930 146.616C610.890 146.536 610.890 146.456 610.890 146.336C610.890 146.176 610.930 146.096 610.930 145.976C612.370 142.976 612.410 139.056 611.770 135.856C611.570 134.936 611.290 134.976 610.810 134.976C610.330 135.016 610.010 135.336 610.130 136.016ZM609.570 149.216C609.770 149.216 610.050 149.336 610.090 149.496C610.290 149.776 610.290 150.176 610.370 150.496C610.410 150.776 610.410 151.056 610.410 151.296C610.410 152.616 610.050 153.816 609.330 154.856C608.010 156.816 605.450 159.056 603.010 159.056L602.690 159.056C602.370 159.056 602.130 158.856 602.130 158.656C602.130 158.616 602.130 158.576 602.170 158.536C603.010 155.256 605.250 154.336 607.130 152.136C607.970 151.216 608.650 150.416 609.290 149.376C609.370 149.256 609.450 149.216 609.570 149.216Z"></path></g></g></svg>