<?xml version="1.0" encoding="UTF-8" standalone="no"?><svg xmlns="http://www.w3.org/2000/svg" height="279.4mm" viewBox="0 0 1328.6153846153845 1719.3846153846152" width="215.9mm"><g transform="translate(93.84615384615385)"><g><g><line stroke="#6A6A6A" stroke-width="1.3" x1="0" x2="1747.1875995042149" y1="183.8461538461538" y2="183.8461538461538"></line><line stroke="#6A6A6A" stroke-width="1.3" x1="0" x2="1747.1875995042149" y1="173.8461538461538" y2="173.8461538461538"></line><line stroke="#6A6A6A" stroke-width="1.3" x1="0" x2="1747.1875995042149" y1="163.8461538461538" y2="163.8461538461538"></line><line stroke="#6A6A6A" stroke-width="1.3" x1="0" x2="1747.1875995042149" y1="153.8461538461538" y2="153.8461538461538"></line><line stroke="#6A6A6A" stroke-width="1.3" x1="0" x2="1747.1875995042149" y1="143.8461538461538" y2="143.8461538461538"></line></g><g><path d="M25.200 129.926C24.640 129.926 23.400 130.966 22.600 131.846C19.640 135.126 18.680 140.126 18.680 144.286C18.680 146.606 18.960 149.206 19.240 150.846C19.320 151.326 19.360 151.406 18.880 151.806C16.320 153.926 13.560 156.366 11.480 158.926C8.720 162.366 7 166.086 7 170.366C7 177.326 11.760 183.926 21.560 183.926C22.480 183.926 23.520 183.846 24.320 183.686C24.760 183.606 24.840 183.566 24.920 184.046C25.400 186.726 26 190.206 26 192.086C26 198.006 22 198.726 19.640 198.726C17.480 198.726 16.440 198.086 16.440 197.566C16.440 197.126 16.800 197.166 17.720 196.886C18.960 196.526 20.400 195.446 20.400 193.126C20.400 190.926 19 189.046 16.560 189.046C13.880 189.046 12.280 191.166 12.280 193.646C12.280 196.246 13.840 200.166 19.880 200.166C22.560 200.166 27.760 198.966 27.760 192.166C27.760 189.886 27.040 186.086 26.600 183.606C26.520 183.126 26.560 183.166 27.120 182.926C31.160 181.326 33.840 177.926 33.840 173.406C33.840 168.286 30.080 163.766 24.200 163.766C23.080 163.766 23.200 163.966 23.040 163.046L22.040 157.246C21.960 156.766 22.040 156.726 22.280 156.486C22.920 155.886 23.760 155.046 24.520 154.206C27.880 150.526 29.880 145.766 29.880 141.246C29.880 137.766 28.920 134.326 27.280 131.926C26.680 131.046 25.640 129.926 25.200 129.926ZM20.040 158.086C20.440 157.766 20.520 157.806 20.600 158.246L21.440 163.366C21.560 164.126 21.560 164.086 20.840 164.326C17.320 165.526 15.040 168.686 15.040 172.086C15.040 175.686 16.920 178.246 19.640 179.166C19.960 179.286 20.440 179.406 20.720 179.406C21.040 179.406 21.200 179.206 21.200 178.966C21.200 178.686 20.880 178.566 20.600 178.446C18.920 177.726 17.720 176.006 17.720 174.166C17.720 171.886 19.280 170.166 21.720 169.486C22.360 169.326 22.440 169.366 22.520 169.806L24.520 181.726C24.600 182.166 24.560 182.166 23.960 182.286C23.320 182.406 22.520 182.486 21.720 182.486C14.720 182.486 10.200 178.606 10.200 173.046C10.200 170.686 10.600 167.526 13.920 163.766C16.320 161.086 18.160 159.606 20.040 158.086ZM24.640 169.166C27.880 169.446 30.560 172.166 30.560 175.686C30.560 178.206 29.040 180.246 26.800 181.366C26.320 181.606 26.240 181.606 26.160 181.126L24.200 169.726C24.120 169.246 24.160 169.126 24.640 169.166ZM25.800 136.126C27.120 136.126 28.200 137.206 28.200 139.406C28.200 142.166 26.880 144.726 23.760 147.846C23.120 148.486 22.160 149.406 21.240 150.206C20.960 150.446 20.800 150.406 20.720 149.886C20.560 148.846 20.480 147.486 20.480 146.206C20.480 139.966 23.360 136.126 25.800 136.126Z"></path></g><g></g><path d="M57.820 153.806C56.620 153.806 55.220 154.126 54.140 154.606C50.580 156.166 48.700 160.446 48.700 164.246C48.700 164.606 48.700 164.966 48.740 165.326C48.940 167.486 49.980 169.526 51.300 171.126C52.820 172.966 55.020 173.806 57.420 173.806C64.420 173.806 65.460 167.446 65.460 166.286C65.460 165.406 65.020 165.406 64.860 165.406C64.540 165.406 64.260 165.446 64.260 166.126C64.260 171.286 59.860 172.486 58.580 172.486C55.340 172.486 53.620 169.326 53.620 162.726C53.620 156.126 56.660 154.766 58.820 154.766C60.900 154.766 61.740 155.726 61.740 156.126C61.740 156.486 61.620 157.006 61.020 157.006C59.420 157.006 58.500 158.726 58.500 159.966C58.500 162.246 60.460 162.966 61.580 162.966C61.580 162.966 64.620 162.846 64.620 159.526C64.620 154.286 58.580 153.806 57.820 153.806Z"></path></g><g><path d="M486.883 143.406C486.523 143.406 486.243 143.686 486.243 144.046L486.243 150.046L457.523 150.046L457.523 144.046C457.523 143.686 457.243 143.406 456.883 143.406C456.523 143.406 456.243 143.686 456.243 144.046L456.243 164.046C456.243 164.406 456.523 164.686 456.883 164.686C457.243 164.686 457.523 164.406 457.523 164.046L457.523 158.046L486.243 158.046L486.243 164.046C486.243 164.406 486.523 164.686 486.883 164.686C487.243 164.686 487.523 164.406 487.523 164.046L487.523 144.046C487.523 143.686 487.243 143.406 486.883 143.406Z"></path><text font-family='Alegreya' font-style='italic' stroke='#7a7a7a' font-weight="bold" font-size="48" text-anchor="middle" x="471.8828783250344" y="123.84615384615381">2</text></g></g><g transform="translate(971.6119104962227)"><g></g><g><line stroke="black" stroke-width="1.6" x1="32.741803094977215" x2="32.741803094977215" y1="143.8461538461538" y2="183.8461538461538"></line></g></g><g transform="translate(1020.1537135911999)"><g><g><g><path d="M7.880 143.926C7.680 143.926 7.480 143.886 7.280 143.886C3.840 143.886 0.400 146.166 0.400 148.286C0.400 149.606 1.160 151.366 3.640 151.526L3.840 151.526C5.600 151.526 6.480 150.246 6.480 148.926L6.480 148.606C6.360 147.126 5.360 147.046 5.160 146.966C4.960 146.886 4.360 146.966 4.360 146.406L4.360 146.246C4.440 145.566 5.680 145.246 6.040 145.246C9.440 145.246 9.760 147.366 9.760 148.326L9.760 148.606C9.760 151.566 7.400 152.726 4.880 152.846C4.480 152.886 3.920 153.086 3.920 153.526C3.920 154.006 4.600 154.006 4.920 154.006C9.520 154.006 9.880 157.126 9.880 157.646C9.880 161.886 7.720 162.366 6.840 162.366C6.680 162.366 6.520 162.326 6.480 162.326C6.160 162.286 5.400 162.286 5.360 161.686L5.360 161.486C5.360 160.606 6.240 160.006 6.280 158.846C6.280 158.446 6.240 158.006 6.080 157.606C5.640 156.606 4.480 155.966 3.400 155.966C3.240 155.966 3.120 155.966 2.960 156.006C2.280 156.126 1.520 156.526 1.040 157.046C0.360 157.646 0.160 158.606 0.160 159.486C0.240 162.606 3.080 163.806 7 163.886L7.360 163.886C11.320 163.886 15.400 161.846 15.400 158.326L15.400 158.046C15.360 157.486 15.280 156.926 15.040 156.406C14.880 156.006 14.600 155.606 14.280 155.246C14.040 154.926 13.720 154.646 13.320 154.406L12.480 153.926L11.160 153.566C10.960 153.526 10.840 153.526 10.760 153.366C10.720 153.286 10.720 153.246 10.720 153.166C10.720 153.006 10.760 152.846 10.880 152.806C11.320 152.686 11.760 152.646 12.120 152.446C12.720 152.166 13.240 151.886 13.680 151.366C14.320 150.646 14.560 149.726 14.560 148.806C14.560 145.126 9.560 144.046 7.880 143.926Z"></path></g><g><path d="M16.680 176.806L13.760 176.806L13.760 168.246C13.760 167.926 13.720 167.566 13.280 167.566C12.920 167.566 12.720 167.646 12.480 167.926L8.680 172.526C8.520 172.726 8.320 172.966 8.320 173.446C8.320 173.446 8.320 175.046 8.320 176.806L2.920 176.806C6.120 174.086 12.520 165.006 12.640 164.566C12.640 164.486 12.680 164.446 12.680 164.366C12.680 164.046 12.400 163.806 12.080 163.806C11.720 163.806 10.080 163.886 9.360 163.886C8.640 163.886 6.840 163.806 6.520 163.806C6.160 163.806 5.600 163.926 5.600 164.566C5.600 169.526 1.680 175.086 0.480 176.766L0.240 177.086C0.240 177.126 0.200 177.166 0.200 177.206C0.120 177.366 0.080 177.526 0.080 177.646C0.080 178.046 0.400 178.326 0.880 178.326L8.320 178.326L8.320 180.846C8.320 181.926 7.440 182.246 6.720 182.246C6.080 182.246 5.800 182.606 5.800 183.006C5.800 183.406 5.960 183.846 6.560 183.846C7.200 183.846 15.080 183.846 15.080 183.846C15.480 183.846 15.880 183.566 15.880 183.006C15.880 182.446 15.400 182.206 15 182.206C14.600 182.206 13.760 181.966 13.760 180.686L13.760 178.326C15.480 178.326 16.680 178.326 16.680 178.326C17.080 178.326 17.280 178.046 17.280 177.566C17.280 177.086 17.120 176.806 16.680 176.806Z"></path></g></g></g><g><path d="M441.690 143.406C441.330 143.406 441.050 143.686 441.050 144.046L441.050 150.046L412.330 150.046L412.330 144.046C412.330 143.686 412.050 143.406 411.690 143.406C411.330 143.406 411.050 143.686 411.050 144.046L411.050 164.046C411.050 164.406 411.330 164.686 411.690 164.686C412.050 164.686 412.330 164.406 412.330 164.046L412.330 158.046L441.050 158.046L441.050 164.046C441.050 164.406 441.330 164.686 441.690 164.686C442.050 164.686 442.330 164.406 442.330 164.046L442.330 144.046C442.330 143.686 442.050 143.406 441.690 143.406Z"></path><text font-family='Alegreya' font-style='italic' stroke='#7a7a7a' font-weight="bold" font-size="48" text-anchor="middle" x="426.6900198795844" y="123.84615384615381">3</text></g></g><g transform="translate(93.84615384615385)"><g><g><line stroke="#6A6A6A" stroke-width="1.3" x1="0" x2="3065.7515518290625" y1="314.8461538461538" y2="314.8461538461538"></line><line stroke="#6A6A6A" stroke-width="1.3" x1="0" x2="3065.7515518290625" y1="304.8461538461538" y2="304.8461538461538"></line><line stroke="#6A6A6A" stroke-width="1.3" x1="0" x2="3065.7515518290625" y1="294.8461538461538" y2="294.8461538461538"></line><line stroke="#6A6A6A" stroke-width="1.3" x1="0" x2="3065.7515518290625" y1="284.8461538461538" y2="284.8461538461538"></line><line stroke="#6A6A6A" stroke-width="1.3" x1="0" x2="3065.7515518290625" y1="274.8461538461538" y2="274.8461538461538"></line></g><g><path d="M25.200 260.926C24.640 260.926 23.400 261.966 22.600 262.846C19.640 266.126 18.680 271.126 18.680 275.286C18.680 277.606 18.960 280.206 19.240 281.846C19.320 282.326 19.360 282.406 18.880 282.806C16.320 284.926 13.560 287.366 11.480 289.926C8.720 293.366 7 297.086 7 301.366C7 308.326 11.760 314.926 21.560 314.926C22.480 314.926 23.520 314.846 24.320 314.686C24.760 314.606 24.840 314.566 24.920 315.046C25.400 317.726 26 321.206 26 323.086C26 329.006 22 329.726 19.640 329.726C17.480 329.726 16.440 329.086 16.440 328.566C16.440 328.126 16.800 328.166 17.720 327.886C18.960 327.526 20.400 326.446 20.400 324.126C20.400 321.926 19 320.046 16.560 320.046C13.880 320.046 12.280 322.166 12.280 324.646C12.280 327.246 13.840 331.166 19.880 331.166C22.560 331.166 27.760 329.966 27.760 323.166C27.760 320.886 27.040 317.086 26.600 314.606C26.520 314.126 26.560 314.166 27.120 313.926C31.160 312.326 33.840 308.926 33.840 304.406C33.840 299.286 30.080 294.766 24.200 294.766C23.080 294.766 23.200 294.966 23.040 294.046L22.040 288.246C21.960 287.766 22.040 287.726 22.280 287.486C22.920 286.886 23.760 286.046 24.520 285.206C27.880 281.526 29.880 276.766 29.880 272.246C29.880 268.766 28.920 265.326 27.280 262.926C26.680 262.046 25.640 260.926 25.200 260.926ZM20.040 289.086C20.440 288.766 20.520 288.806 20.600 289.246L21.440 294.366C21.560 295.126 21.560 295.086 20.840 295.326C17.320 296.526 15.040 299.686 15.040 303.086C15.040 306.686 16.920 309.246 19.640 310.166C19.960 310.286 20.440 310.406 20.720 310.406C21.040 310.406 21.200 310.206 21.200 309.966C21.200 309.686 20.880 309.566 20.600 309.446C18.920 308.726 17.720 307.006 17.720 305.166C17.720 302.886 19.280 301.166 21.720 300.486C22.360 300.326 22.440 300.366 22.520 300.806L24.520 312.726C24.600 313.166 24.560 313.166 23.960 313.286C23.320 313.406 22.520 313.486 21.720 313.486C14.720 313.486 10.200 309.606 10.200 304.046C10.200 301.686 10.600 298.526 13.920 294.766C16.320 292.086 18.160 290.606 20.040 289.086ZM24.640 300.166C27.880 300.446 30.560 303.166 30.560 306.686C30.560 309.206 29.040 311.246 26.800 312.366C26.320 312.606 26.240 312.606 26.160 312.126L24.200 300.726C24.120 300.246 24.160 300.126 24.640 300.166ZM25.800 267.126C27.120 267.126 28.200 268.206 28.200 270.406C28.200 273.166 26.880 275.726 23.760 278.846C23.120 279.486 22.160 280.406 21.240 281.206C20.960 281.446 20.800 281.406 20.720 280.886C20.560 279.846 20.480 278.486 20.480 277.206C20.480 270.966 23.360 267.126 25.800 267.126Z"></path></g><g></g><text font-family='Alegreya' font-style='italic' text-anchor='end' stroke='#7a7a7a' font-size="24" x="0" y="264.8461538461538">4</text></g></g><g transform="translate(1071.4759954369451)"><g></g><g><line stroke="black" stroke-width="1.6" x1="92.21298415907914" x2="92.21298415907914" y1="274.8461538461538" y2="314.8461538461538"></line></g></g><g transform="translate(1179.4889795960244)"><g><g><g><path d="M16.360 288.486C16.360 288.006 16.160 287.926 15.880 287.926C15.560 287.926 15.440 288.086 15.360 288.326C15.360 288.366 15.320 288.406 15.320 288.446C14.920 289.406 14.600 290.166 13.760 290.166C13.560 290.166 13.360 290.126 13.080 290.046C12.560 289.846 12.280 289.806 11.880 289.606C11.080 289.286 9.200 288.646 7.560 288.646C7.040 288.646 6.520 288.726 6.080 288.886C6.960 287.446 10.360 286.246 11.240 286.006C11.840 285.846 13.520 285.526 14.840 284.446C15.800 283.686 16.560 282.526 16.560 280.766C16.560 278.886 15.760 277.526 14.720 276.646C12.680 274.926 9.560 274.686 8.680 274.686C7.600 274.686 6.240 274.726 5.200 274.966C3.800 275.246 2.400 276.086 1.440 277.206C0.760 278.046 0.320 279.046 0.320 280.126C0.320 280.686 0.440 281.246 0.680 281.846C1.280 283.086 2.520 284.046 3.960 284.046C6.400 284.046 6.760 281.526 6.760 280.526C6.760 278.126 4 278.006 4 277.206C4.080 276.646 4.800 275.686 7.160 275.686C10.720 275.686 10.760 278.366 10.760 279.526C10.760 281.046 10.280 282.446 9.400 283.606C7.960 285.526 6.840 286.486 4.880 287.686C2.680 289.086 1.120 291.046 0.440 293.566C0.440 293.646 0.400 293.726 0.400 293.806C0.400 294.246 0.680 294.766 1.120 295.046C1.240 295.126 1.360 295.126 1.440 295.126C2.320 295.126 2.800 292.686 5.160 292.686C6.760 292.686 7.360 294.846 10.920 294.846C12.640 294.846 15.720 294.686 16.360 288.486Z"></path></g><g><path d="M16.680 307.806L13.760 307.806L13.760 299.246C13.760 298.926 13.720 298.566 13.280 298.566C12.920 298.566 12.720 298.646 12.480 298.926L8.680 303.526C8.520 303.726 8.320 303.966 8.320 304.446C8.320 304.446 8.320 306.046 8.320 307.806L2.920 307.806C6.120 305.086 12.520 296.006 12.640 295.566C12.640 295.486 12.680 295.446 12.680 295.366C12.680 295.046 12.400 294.806 12.080 294.806C11.720 294.806 10.080 294.886 9.360 294.886C8.640 294.886 6.840 294.806 6.520 294.806C6.160 294.806 5.600 294.926 5.600 295.566C5.600 300.526 1.680 306.086 0.480 307.766L0.240 308.086C0.240 308.126 0.200 308.166 0.200 308.206C0.120 308.366 0.080 308.526 0.080 308.646C0.080 309.046 0.400 309.326 0.880 309.326L8.320 309.326L8.320 311.846C8.320 312.926 7.440 313.246 6.720 313.246C6.080 313.246 5.800 313.606 5.800 314.006C5.800 314.406 5.960 314.846 6.560 314.846C7.200 314.846 15.080 314.846 15.080 314.846C15.480 314.846 15.880 314.566 15.880 314.006C15.880 313.446 15.400 313.206 15 313.206C14.600 313.206 13.760 312.966 13.760 311.686L13.760 309.326C15.480 309.326 16.680 309.326 16.680 309.326C17.080 309.326 17.280 309.046 17.280 308.566C17.280 308.086 17.120 307.806 16.680 307.806Z"></path></g></g></g><g><path d="M950.969 274.406C950.609 274.406 950.329 274.686 950.329 275.046L950.329 281.046L921.609 281.046L921.609 275.046C921.609 274.686 921.329 274.406 920.969 274.406C920.609 274.406 920.329 274.686 920.329 275.046L920.329 295.046C920.329 295.406 920.609 295.686 920.969 295.686C921.329 295.686 921.609 295.406 921.609 295.046L921.609 289.046L950.329 289.046L950.329 295.046C950.329 295.406 950.609 295.686 950.969 295.686C951.329 295.686 951.609 295.406 951.609 295.046L951.609 275.046C951.609 274.686 951.329 274.406 950.969 274.406Z"></path><text font-family='Alegreya' font-style='italic' stroke='#7a7a7a' font-weight="bold" font-size="48" text-anchor="middle" x="935.968651714318" y="254.8461538461538">2</text></g></g><g transform="translate(3033.92628302466)"><g></g><g><line stroke="black" stroke-width="1.6" x1="84.37142265055589" x2="84.37142265055589" y1="274.8461538461538" y2="314.8461538461538"></line><g><path d="M102.491 284.806C101.291 284.806 99.891 285.126 98.811 285.606C95.251 287.166 93.371 291.446 93.371 295.246C93.371 295.606 93.371 295.966 93.411 296.326C93.611 298.486 94.651 300.526 95.971 302.126C97.491 303.966 99.691 304.806 102.091 304.806C109.091 304.806 110.131 298.446 110.131 297.286C110.131 296.406 109.691 296.406 109.531 296.406C109.211 296.406 108.931 296.446 108.931 297.126C108.931 302.286 104.531 303.486 103.251 303.486C100.011 303.486 98.291 300.326 98.291 293.726C98.291 287.126 101.331 285.766 103.491 285.766C105.571 285.766 106.411 286.726 106.411 287.126C106.411 287.486 106.291 288.006 105.691 288.006C104.091 288.006 103.171 289.726 103.171 290.966C103.171 293.246 105.131 293.966 106.251 293.966C106.251 293.966 109.291 293.846 109.291 290.526C109.291 285.286 103.251 284.806 102.491 284.806Z"></path></g></g></g><g transform="translate(93.84615384615385)"><g><g><line stroke="#6A6A6A" stroke-width="1.3" x1="0" x2="1081.1113395596146" y1="445.8461538461538" y2="445.8461538461538"></line><line stroke="#6A6A6A" stroke-width="1.3" x1="0" x2="1081.1113395596146" y1="435.8461538461538" y2="435.8461538461538"></line><line stroke="#6A6A6A" stroke-width="1.3" x1="0" x2="1081.1113395596146" y1="425.8461538461538" y2="425.8461538461538"></line><line stroke="#6A6A6A" stroke-width="1.3" x1="0" x2="1081.1113395596146" y1="415.8461538461538" y2="415.8461538461538"></line><line stroke="#6A6A6A" stroke-width="1.3" x1="0" x2="1081.1113395596146" y1="405.8461538461538" y2="405.8461538461538"></line></g><g><path d="M25.200 391.926C24.640 391.926 23.400 392.966 22.600 393.846C19.640 397.126 18.680 402.126 18.680 406.286C18.680 408.606 18.960 411.206 19.240 412.846C19.320 413.326 19.360 413.406 18.880 413.806C16.320 415.926 13.560 418.366 11.480 420.926C8.720 424.366 7 428.086 7 432.366C7 439.326 11.760 445.926 21.560 445.926C22.480 445.926 23.520 445.846 24.320 445.686C24.760 445.606 24.840 445.566 24.920 446.046C25.400 448.726 26 452.206 26 454.086C26 460.006 22 460.726 19.640 460.726C17.480 460.726 16.440 460.086 16.440 459.566C16.440 459.126 16.800 459.166 17.720 458.886C18.960 458.526 20.400 457.446 20.400 455.126C20.400 452.926 19 451.046 16.560 451.046C13.880 451.046 12.280 453.166 12.280 455.646C12.280 458.246 13.840 462.166 19.880 462.166C22.560 462.166 27.760 460.966 27.760 454.166C27.760 451.886 27.040 448.086 26.600 445.606C26.520 445.126 26.560 445.166 27.120 444.926C31.160 443.326 33.840 439.926 33.840 435.406C33.840 430.286 30.080 425.766 24.200 425.766C23.080 425.766 23.200 425.966 23.040 425.046L22.040 419.246C21.960 418.766 22.040 418.726 22.280 418.486C22.920 417.886 23.760 417.046 24.520 416.206C27.880 412.526 29.880 407.766 29.880 403.246C29.880 399.766 28.920 396.326 27.280 393.926C26.680 393.046 25.640 391.926 25.200 391.926ZM20.040 420.086C20.440 419.766 20.520 419.806 20.600 420.246L21.440 425.366C21.560 426.126 21.560 426.086 20.840 426.326C17.320 427.526 15.040 430.686 15.040 434.086C15.040 437.686 16.920 440.246 19.640 441.166C19.960 441.286 20.440 441.406 20.720 441.406C21.040 441.406 21.200 441.206 21.200 440.966C21.200 440.686 20.880 440.566 20.600 440.446C18.920 439.726 17.720 438.006 17.720 436.166C17.720 433.886 19.280 432.166 21.720 431.486C22.360 431.326 22.440 431.366 22.520 431.806L24.520 443.726C24.600 444.166 24.560 444.166 23.960 444.286C23.320 444.406 22.520 444.486 21.720 444.486C14.720 444.486 10.200 440.606 10.200 435.046C10.200 432.686 10.600 429.526 13.920 425.766C16.320 423.086 18.160 421.606 20.040 420.086ZM24.640 431.166C27.880 431.446 30.560 434.166 30.560 437.686C30.560 440.206 29.040 442.246 26.800 443.366C26.320 443.606 26.240 443.606 26.160 443.126L24.200 431.726C24.120 431.246 24.160 431.126 24.640 431.166ZM25.800 398.126C27.120 398.126 28.200 399.206 28.200 401.406C28.200 404.166 26.880 406.726 23.760 409.846C23.120 410.486 22.160 411.406 21.240 412.206C20.960 412.446 20.800 412.406 20.720 411.886C20.560 410.846 20.480 409.486 20.480 408.206C20.480 401.966 23.360 398.126 25.800 398.126Z"></path></g><g></g><path d="M57.820 415.806C56.620 415.806 55.220 416.126 54.140 416.606C50.580 418.166 48.700 422.446 48.700 426.246C48.700 426.606 48.700 426.966 48.740 427.326C48.940 429.486 49.980 431.526 51.300 433.126C52.820 434.966 55.020 435.806 57.420 435.806C64.420 435.806 65.460 429.446 65.460 428.286C65.460 427.406 65.020 427.406 64.860 427.406C64.540 427.406 64.260 427.446 64.260 428.126C64.260 433.286 59.860 434.486 58.580 434.486C55.340 434.486 53.620 431.326 53.620 424.726C53.620 418.126 56.660 416.766 58.820 416.766C60.900 416.766 61.740 417.726 61.740 418.126C61.740 418.486 61.620 419.006 61.020 419.006C59.420 419.006 58.500 420.726 58.500 421.966C58.500 424.246 60.460 424.966 61.580 424.966C61.580 424.966 64.620 424.846 64.620 421.526C64.620 416.286 58.580 415.806 57.820 415.806Z"></path><text font-family='Alegreya' font-style='italic' text-anchor='end' stroke='#7a7a7a' font-size="24" x="0" y="395.8461538461538">8</text></g><g><path d="M337.998 405.406C337.638 405.406 337.358 405.686 337.358 406.046L337.358 412.046L308.638 412.046L308.638 406.046C308.638 405.686 308.358 405.406 307.998 405.406C307.638 405.406 307.358 405.686 307.358 406.046L307.358 426.046C307.358 426.406 307.638 426.686 307.998 426.686C308.358 426.686 308.638 426.406 308.638 426.046L308.638 420.046L337.358 420.046L337.358 426.046C337.358 426.406 337.638 426.686 337.998 426.686C338.358 426.686 338.638 426.406 338.638 426.046L338.638 406.046C338.638 405.686 338.358 405.406 337.998 405.406Z"></path><text font-family='Alegreya' font-style='italic' stroke='#7a7a7a' font-weight="bold" font-size="48" text-anchor="middle" x="322.9977429885033" y="385.8461538461538">2</text></g></g><g transform="translate(673.8416398231604)"><g></g><g><line stroke="black" stroke-width="1.6" x1="14.16810041129581" x2="14.16810041129581" y1="405.8461538461538" y2="445.8461538461538"></line></g></g><g transform="translate(703.8097402344563)"><g></g><g><line stroke="#000000" stroke-width="1.6" x1="461.34775317131226" x2="461.34775317131226" y1="405.8461538461538" y2="445.8461538461538"></line><line stroke="#000000" stroke-width="5" x1="468.6477531713123" x2="468.6477531713123" y1="405.8461538461538" y2="445.8461538461538"></line></g><g><g><path d="M127.633 415.366C121.833 415.366 118.233 417.806 118.233 420.766C118.233 423.686 120.713 426.286 127.193 426.286C134.313 426.286 136.593 423.806 136.593 420.766C136.593 417.686 131.673 415.366 127.633 415.366ZM123.073 418.086C123.553 416.606 125.153 416.366 126.513 416.366C129.473 416.366 131.873 419.566 131.873 422.206C131.873 422.486 131.833 422.766 131.793 423.006C131.593 424.086 130.953 424.846 129.873 425.126C129.433 425.246 128.993 425.286 128.553 425.286C128.153 425.286 127.793 425.246 127.393 425.126C126.673 424.886 125.953 424.486 125.353 423.966C125.033 423.686 124.713 423.366 124.433 423.006C123.593 422.006 122.913 420.526 122.913 419.166C122.913 418.806 122.953 418.446 123.073 418.086Z"></path></g></g></g></svg>