<?xml version="1.0" encoding="UTF-8" standalone="no"?><svg xmlns="http://www.w3.org/2000/svg" class="" height="279.4mm" viewBox="0 0 1328.6153846153845 1719.3846153846152" width="215.9mm"><g><g><g><line stroke="#6A6A6A" stroke-width="1.3" x1="93.84615384615385" x2="754.3683190984774" y1="183.8461538461538" y2="183.8461538461538"></line><line stroke="#6A6A6A" stroke-width="1.3" x1="93.84615384615385" x2="754.3683190984774" y1="173.8461538461538" y2="173.8461538461538"></line><line stroke="#6A6A6A" stroke-width="1.3" x1="93.84615384615385" x2="754.3683190984774" y1="163.8461538461538" y2="163.8461538461538"></line><line stroke="#6A6A6A" stroke-width="1.3" x1="93.84615384615385" x2="754.3683190984774" y1="153.8461538461538" y2="153.8461538461538"></line><line stroke="#6A6A6A" stroke-width="1.3" x1="93.84615384615385" x2="754.3683190984774" y1="143.8461538461538" y2="143.8461538461538"></line></g><g><path d="M119.046 129.926C118.486 129.926 117.246 130.966 116.446 131.846C113.486 135.126 112.526 140.126 112.526 144.286C112.526 146.606 112.806 149.206 113.086 150.846C113.166 151.326 113.206 151.406 112.726 151.806C110.166 153.926 107.406 156.366 105.326 158.926C102.566 162.366 100.846 166.086 100.846 170.366C100.846 177.326 105.606 183.926 115.406 183.926C116.326 183.926 117.366 183.846 118.166 183.686C118.606 183.606 118.686 183.566 118.766 184.046C119.246 186.726 119.846 190.206 119.846 192.086C119.846 198.006 115.846 198.726 113.486 198.726C111.326 198.726 110.286 198.086 110.286 197.566C110.286 197.126 110.646 197.166 111.566 196.886C112.806 196.526 114.246 195.446 114.246 193.126C114.246 190.926 112.846 189.046 110.406 189.046C107.726 189.046 106.126 191.166 106.126 193.646C106.126 196.246 107.686 200.166 113.726 200.166C116.406 200.166 121.606 198.966 121.606 192.166C121.606 189.886 120.886 186.086 120.446 183.606C120.366 183.126 120.406 183.166 120.966 182.926C125.006 181.326 127.686 177.926 127.686 173.406C127.686 168.286 123.926 163.766 118.046 163.766C116.926 163.766 117.046 163.966 116.886 163.046L115.886 157.246C115.806 156.766 115.886 156.726 116.126 156.486C116.766 155.886 117.606 155.046 118.366 154.206C121.726 150.526 123.726 145.766 123.726 141.246C123.726 137.766 122.766 134.326 121.126 131.926C120.526 131.046 119.486 129.926 119.046 129.926ZM113.886 158.086C114.286 157.766 114.366 157.806 114.446 158.246L115.286 163.366C115.406 164.126 115.406 164.086 114.686 164.326C111.166 165.526 108.886 168.686 108.886 172.086C108.886 175.686 110.766 178.246 113.486 179.166C113.806 179.286 114.286 179.406 114.566 179.406C114.886 179.406 115.046 179.206 115.046 178.966C115.046 178.686 114.726 178.566 114.446 178.446C112.766 177.726 111.566 176.006 111.566 174.166C111.566 171.886 113.126 170.166 115.566 169.486C116.206 169.326 116.286 169.366 116.366 169.806L118.366 181.726C118.446 182.166 118.406 182.166 117.806 182.286C117.166 182.406 116.366 182.486 115.566 182.486C108.566 182.486 104.046 178.606 104.046 173.046C104.046 170.686 104.446 167.526 107.766 163.766C110.166 161.086 112.006 159.606 113.886 158.086ZM118.486 169.166C121.726 169.446 124.406 172.166 124.406 175.686C124.406 178.206 122.886 180.246 120.646 181.366C120.166 181.606 120.086 181.606 120.006 181.126L118.046 169.726C117.966 169.246 118.006 169.126 118.486 169.166ZM119.646 136.126C120.966 136.126 122.046 137.206 122.046 139.406C122.046 142.166 120.726 144.726 117.606 147.846C116.966 148.486 116.006 149.406 115.086 150.206C114.806 150.446 114.646 150.406 114.566 149.886C114.406 148.846 114.326 147.486 114.326 146.206C114.326 139.966 117.206 136.126 119.646 136.126Z"></path></g><g><path d="M137.826 170.646C137.946 170.806 138.066 170.846 138.186 170.846C138.306 170.846 138.426 170.766 138.426 170.766C139.626 170.086 140.586 169.006 141.586 168.326C145.146 165.846 146.386 163.406 146.386 161.566C146.386 159.286 144.626 157.846 142.786 157.726C142.506 157.726 142.226 157.766 141.946 157.846C141.506 157.966 141.026 158.126 140.586 158.406C140.346 158.606 140.066 158.966 139.706 158.966C139.626 158.966 139.586 158.966 139.506 158.926C139.226 158.806 139.066 158.526 139.066 158.246C139.106 157.366 139.346 147.766 139.346 146.966C139.346 146.526 138.986 146.286 138.586 146.286C138.026 146.286 137.386 146.686 137.346 147.406C137.346 147.406 137.506 170.246 137.826 170.646ZM139.226 167.086C139.226 167.086 139.106 164.686 139.106 163.086C139.106 162.446 139.146 161.966 139.186 161.806C139.346 161.326 140.386 160.446 140.946 160.126C141.306 159.926 141.666 159.846 141.986 159.846C142.386 159.846 142.746 160.006 142.986 160.286C143.386 160.726 143.626 161.406 143.626 162.166C143.626 162.886 143.426 163.726 142.946 164.566C142.426 165.526 141.266 166.806 140.066 167.566C139.906 167.646 139.786 167.686 139.666 167.686C139.306 167.686 139.226 167.286 139.226 167.086Z"></path><path d="M147.826 155.646C147.946 155.806 148.066 155.846 148.186 155.846C148.306 155.846 148.426 155.766 148.426 155.766C149.626 155.086 150.586 154.006 151.586 153.326C155.146 150.846 156.386 148.406 156.386 146.566C156.386 144.286 154.626 142.846 152.786 142.726C152.506 142.726 152.226 142.766 151.946 142.846C151.506 142.966 151.026 143.126 150.586 143.406C150.346 143.606 150.066 143.966 149.706 143.966C149.626 143.966 149.586 143.966 149.506 143.926C149.226 143.806 149.066 143.526 149.066 143.246C149.106 142.366 149.346 132.766 149.346 131.966C149.346 131.526 148.986 131.286 148.586 131.286C148.026 131.286 147.386 131.686 147.346 132.406C147.346 132.406 147.506 155.246 147.826 155.646ZM149.226 152.086C149.226 152.086 149.106 149.686 149.106 148.086C149.106 147.446 149.146 146.966 149.186 146.806C149.346 146.326 150.386 145.446 150.946 145.126C151.306 144.926 151.666 144.846 151.986 144.846C152.386 144.846 152.746 145.006 152.986 145.286C153.386 145.726 153.626 146.406 153.626 147.166C153.626 147.886 153.426 148.726 152.946 149.566C152.426 150.526 151.266 151.806 150.066 152.566C149.906 152.646 149.786 152.686 149.666 152.686C149.306 152.686 149.226 152.286 149.226 152.086Z"></path><path d="M157.826 175.646C157.946 175.806 158.066 175.846 158.186 175.846C158.306 175.846 158.426 175.766 158.426 175.766C159.626 175.086 160.586 174.006 161.586 173.326C165.146 170.846 166.386 168.406 166.386 166.566C166.386 164.286 164.626 162.846 162.786 162.726C162.506 162.726 162.226 162.766 161.946 162.846C161.506 162.966 161.026 163.126 160.586 163.406C160.346 163.606 160.066 163.966 159.706 163.966C159.626 163.966 159.586 163.966 159.506 163.926C159.226 163.806 159.066 163.526 159.066 163.246C159.106 162.366 159.346 152.766 159.346 151.966C159.346 151.526 158.986 151.286 158.586 151.286C158.026 151.286 157.386 151.686 157.346 152.406C157.346 152.406 157.506 175.246 157.826 175.646ZM159.226 172.086C159.226 172.086 159.106 169.686 159.106 168.086C159.106 167.446 159.146 166.966 159.186 166.806C159.346 166.326 160.386 165.446 160.946 165.126C161.306 164.926 161.666 164.846 161.986 164.846C162.386 164.846 162.746 165.006 162.986 165.286C163.386 165.726 163.626 166.406 163.626 167.166C163.626 167.886 163.426 168.726 162.946 169.566C162.426 170.526 161.266 171.806 160.066 172.566C159.906 172.646 159.786 172.686 159.666 172.686C159.306 172.686 159.226 172.286 159.226 172.086Z"></path><path d="M167.826 160.646C167.946 160.806 168.066 160.846 168.186 160.846C168.306 160.846 168.426 160.766 168.426 160.766C169.626 160.086 170.586 159.006 171.586 158.326C175.146 155.846 176.386 153.406 176.386 151.566C176.386 149.286 174.626 147.846 172.786 147.726C172.506 147.726 172.226 147.766 171.946 147.846C171.506 147.966 171.026 148.126 170.586 148.406C170.346 148.606 170.066 148.966 169.706 148.966C169.626 148.966 169.586 148.966 169.506 148.926C169.226 148.806 169.066 148.526 169.066 148.246C169.106 147.366 169.346 137.766 169.346 136.966C169.346 136.526 168.986 136.286 168.586 136.286C168.026 136.286 167.386 136.686 167.346 137.406C167.346 137.406 167.506 160.246 167.826 160.646ZM169.226 157.086C169.226 157.086 169.106 154.686 169.106 153.086C169.106 152.446 169.146 151.966 169.186 151.806C169.346 151.326 170.386 150.446 170.946 150.126C171.306 149.926 171.666 149.846 171.986 149.846C172.386 149.846 172.746 150.006 172.986 150.286C173.386 150.726 173.626 151.406 173.626 152.166C173.626 152.886 173.426 153.726 172.946 154.566C172.426 155.526 171.266 156.806 170.066 157.566C169.906 157.646 169.786 157.686 169.666 157.686C169.306 157.686 169.226 157.286 169.226 157.086Z"></path></g><path d="M198.666 153.806C197.466 153.806 196.066 154.126 194.986 154.606C191.426 156.166 189.546 160.446 189.546 164.246C189.546 164.606 189.546 164.966 189.586 165.326C189.786 167.486 190.826 169.526 192.146 171.126C193.666 172.966 195.866 173.806 198.266 173.806C205.266 173.806 206.306 167.446 206.306 166.286C206.306 165.406 205.866 165.406 205.706 165.406C205.386 165.406 205.106 165.446 205.106 166.126C205.106 171.286 200.706 172.486 199.426 172.486C196.186 172.486 194.466 169.326 194.466 162.726C194.466 156.126 197.506 154.766 199.666 154.766C201.746 154.766 202.586 155.726 202.586 156.126C202.586 156.486 202.466 157.006 201.866 157.006C200.266 157.006 199.346 158.726 199.346 159.966C199.346 162.246 201.306 162.966 202.426 162.966C202.426 162.966 205.466 162.846 205.466 159.526C205.466 154.286 199.426 153.806 198.666 153.806Z"></path></g><text x="229.84615384615387" y="109.18383366191193"><tspan fill="#000000" dx="0" dy="0" font-family="Alegreya" font-size="29.30769230769231" text-anchor="start">Largo</tspan></text><path d="M226.286 227.246C226.086 227.246 225.926 227.286 225.806 227.326C225.446 227.446 225.046 227.686 224.806 227.966C224.406 228.446 224.166 229.126 224.166 229.766C224.166 230.486 224.406 231.166 224.886 231.646C225.126 231.886 225.486 232.126 225.766 232.246C226.166 232.366 226.646 232.446 227.086 232.446C228.246 232.446 229.406 231.966 230.366 231.326C231.606 230.526 232.526 229.406 233.366 228.086C233.966 227.166 234.366 226.166 234.806 225.166L234.966 224.846C235.406 223.846 235.766 222.806 236.126 221.806L236.966 219.486C237.246 218.726 237.526 217.886 237.886 217.166C238.406 216.166 238.406 216.166 239.766 216.166C241.406 216.166 241.406 216.166 241.406 216.166C242.166 216.166 242.166 216.126 242.166 215.246C242.166 214.406 242.166 214.406 241.446 214.406C240.086 214.406 240.086 214.406 240.086 214.406C239.206 214.406 238.846 214.406 238.846 214.006C238.846 213.766 238.966 213.326 239.206 212.686C239.966 210.646 240.606 208.926 243.046 208.806L243.206 208.806C243.366 208.806 243.526 208.846 243.566 209.046C243.566 209.326 243.566 209.446 243.446 209.526C243.326 209.646 243.126 209.686 243.006 209.726C242.646 209.886 242.406 210.166 242.246 210.446C242.006 210.766 241.886 211.166 241.886 211.566C241.886 212.726 242.486 213.046 243.366 213.046C244.206 213.046 245.526 211.806 245.606 210.326C245.606 208.766 244.606 207.606 242.606 207.526L242.366 207.526C240.086 207.526 238.446 208.446 237.206 209.686C235.886 211.046 235.286 212.006 234.686 213.446C234.326 214.366 234.206 214.406 233.326 214.406L231.446 214.406C230.446 214.406 230.366 214.526 230.366 215.246C230.366 216.166 230.366 216.166 231.086 216.166C232.446 216.166 232.446 216.166 232.446 216.166C232.926 216.166 233.126 216.166 233.126 216.526C233.126 216.766 233.006 217.246 232.766 218.126C232.686 218.446 230.286 227.326 230.046 227.966C229.686 228.886 229.046 229.806 228.286 230.446C228.086 230.606 227.886 230.766 227.606 230.846C227.446 230.926 227.286 230.926 227.166 230.926C226.806 230.926 226.606 230.806 226.566 230.806C227.126 230.686 227.486 230.326 227.606 230.246C227.846 229.966 228.046 229.526 228.046 229.126C228.046 228.526 227.806 227.806 227.286 227.526C227.006 227.366 226.646 227.246 226.286 227.246ZM240.966 219.686C240.966 219.686 240.766 219.926 240.766 220.166C240.766 220.326 240.846 220.486 241.046 220.606C241.086 220.646 241.166 220.646 241.206 220.646C241.566 220.646 241.766 220.166 241.766 220.166C241.766 220.166 243.446 217.046 244.686 216.326C244.886 216.206 245.086 216.206 245.206 216.206C245.526 216.206 245.646 216.526 245.646 216.926C245.646 217.286 245.526 217.726 245.486 217.846C245.486 217.846 240.486 229.446 240.366 229.646C240.246 229.966 239.966 230.046 239.646 230.046L237.846 230.046C237.446 230.046 237.206 230.286 237.206 230.566C237.206 230.806 237.446 231.086 237.846 231.086L246.126 231.086C246.566 231.086 246.726 230.806 246.726 230.526C246.726 230.286 246.566 230.046 246.206 230.046L244.926 230.046C244.646 230.046 244.446 229.966 244.446 229.726C244.446 229.566 244.526 229.406 244.646 229.126C244.926 228.406 246.246 225.166 246.246 225.166C246.406 224.686 246.526 224.526 246.686 224.526C246.846 224.526 247.046 224.726 247.326 225.006C248.126 225.606 249.326 225.686 249.846 225.686L250.006 225.686C252.966 225.686 255.086 222.406 255.566 221.446C255.846 220.846 256.286 219.646 256.286 218.326C256.286 217.366 256.046 216.326 255.366 215.446C254.886 214.766 254.206 214.526 253.446 214.526C251.766 214.526 249.806 215.726 249.206 216.446C249.086 216.646 248.966 216.686 248.886 216.686C248.726 216.686 248.646 216.526 248.486 216.166L248.406 216.046C247.926 215.086 247.246 214.646 246.246 214.646C246.046 214.646 245.806 214.646 245.606 214.686C243.886 214.926 241.606 218.566 240.966 219.686ZM252.206 216.046C252.566 216.206 252.726 216.726 252.726 217.406C252.726 218.326 252.406 219.606 251.806 220.886C250.886 222.926 249.486 224.366 248.646 224.366C248.526 224.366 248.446 224.366 248.366 224.326C248.006 224.126 247.806 223.646 247.806 222.966C247.806 222.046 248.126 220.766 248.726 219.446C249.686 217.406 251.046 216.006 251.886 216.006C252.006 216.006 252.086 216.006 252.206 216.046Z"></path><g><line stroke="black" stroke-width="1.6" x1="381.92152990763424" x2="381.92152990763424" y1="143.8461538461538" y2="183.8461538461538"></line></g><g><g><path d="M239.246 173.366C233.446 173.366 229.846 175.806 229.846 178.766C229.846 181.686 232.326 184.286 238.806 184.286C245.926 184.286 248.206 181.806 248.206 178.766C248.206 175.686 243.286 173.366 239.246 173.366ZM234.686 176.086C235.166 174.606 236.766 174.366 238.126 174.366C241.086 174.366 243.486 177.566 243.486 180.206C243.486 180.486 243.446 180.766 243.406 181.006C243.206 182.086 242.566 182.846 241.486 183.126C241.046 183.246 240.606 183.286 240.166 183.286C239.766 183.286 239.406 183.246 239.006 183.126C238.286 182.886 237.566 182.486 236.966 181.966C236.646 181.686 236.326 181.366 236.046 181.006C235.206 180.006 234.526 178.526 234.526 177.166C234.526 176.806 234.566 176.446 234.686 176.086Z"></path></g><g><path d="M232.546 195.686C232.666 195.646 244.786 191.566 244.786 191.566C245.306 191.446 245.306 191.166 245.306 190.846C245.306 190.526 245.306 190.286 244.786 190.126L232.786 186.046C232.626 186.006 232.546 185.966 232.426 185.966C232.066 185.966 231.946 186.206 231.826 186.526C231.786 186.686 231.746 186.806 231.746 186.926C231.746 187.126 231.866 187.326 232.306 187.486C232.306 187.486 240.946 190.406 241.346 190.566C241.546 190.606 241.626 190.726 241.626 190.846C241.626 190.966 241.546 191.046 241.306 191.126C240.866 191.246 232.306 194.166 232.306 194.166C231.866 194.366 231.746 194.566 231.746 194.766C231.746 194.886 231.786 195.006 231.826 195.126C231.946 195.406 232.106 195.726 232.386 195.726C232.426 195.726 232.506 195.726 232.546 195.686Z"></path><path d="M253.346 96.608C253.346 95.448 252.346 94.448 251.146 94.448C249.986 94.448 248.986 95.448 248.986 96.608C248.986 97.808 249.986 98.808 251.146 98.808C252.346 98.808 253.346 97.808 253.346 96.608ZM251.106 89.848C259.626 89.848 261.346 96.168 261.746 97.688C261.786 97.808 261.786 97.928 261.826 97.968C262.106 98.528 262.186 98.808 262.666 98.808C263.026 98.808 263.226 98.648 263.226 98.248C263.226 98.128 263.226 98.008 263.186 97.848C260.706 85.608 252.346 85.528 251.186 85.528C249.906 85.528 241.626 85.608 239.186 97.848C239.146 98.008 239.146 98.168 239.146 98.288C239.146 98.688 239.346 98.808 239.666 98.808C240.026 98.808 240.226 98.528 240.466 97.968C240.506 97.928 240.546 97.768 240.586 97.608C241.066 95.968 242.786 89.848 251.106 89.848Z"></path></g></g></g><g><g></g><path d="M397.922 217.806C397.922 217.806 397.722 218.046 397.722 218.286C397.722 218.446 397.802 218.606 398.002 218.726C398.042 218.766 398.122 218.766 398.162 218.766C398.522 218.766 398.722 218.286 398.722 218.286C398.722 218.286 400.402 215.166 401.642 214.446C401.842 214.326 402.042 214.326 402.162 214.326C402.482 214.326 402.602 214.646 402.602 215.046C402.602 215.406 402.482 215.846 402.442 215.966C402.442 215.966 397.442 227.566 397.322 227.766C397.202 228.086 396.922 228.166 396.602 228.166L394.802 228.166C394.402 228.166 394.162 228.406 394.162 228.686C394.162 228.926 394.402 229.206 394.802 229.206L403.082 229.206C403.522 229.206 403.682 228.926 403.682 228.646C403.682 228.406 403.522 228.166 403.162 228.166L401.882 228.166C401.602 228.166 401.402 228.086 401.402 227.846C401.402 227.686 401.482 227.526 401.602 227.246C401.882 226.526 403.202 223.286 403.202 223.286C403.362 222.806 403.482 222.646 403.642 222.646C403.802 222.646 404.002 222.846 404.282 223.126C405.082 223.726 406.282 223.806 406.802 223.806L406.962 223.806C409.922 223.806 412.042 220.526 412.522 219.566C412.802 218.966 413.242 217.766 413.242 216.446C413.242 215.486 413.002 214.446 412.322 213.566C411.842 212.886 411.162 212.646 410.402 212.646C408.722 212.646 406.762 213.846 406.162 214.566C406.042 214.766 405.922 214.806 405.842 214.806C405.682 214.806 405.602 214.646 405.442 214.286L405.362 214.166C404.882 213.206 404.202 212.766 403.202 212.766C403.002 212.766 402.762 212.766 402.562 212.806C400.842 213.046 398.562 216.686 397.922 217.806ZM409.162 214.166C409.522 214.326 409.682 214.846 409.682 215.526C409.682 216.446 409.362 217.726 408.762 219.006C407.842 221.046 406.442 222.486 405.602 222.486C405.482 222.486 405.402 222.486 405.322 222.446C404.962 222.246 404.762 221.766 404.762 221.086C404.762 220.166 405.082 218.886 405.682 217.566C406.642 215.526 408.002 214.126 408.842 214.126C408.962 214.126 409.042 214.126 409.162 214.166Z"></path><g><line stroke="black" stroke-width="1.6" x1="744.5683190984773" x2="744.5683190984773" y1="143.8461538461538" y2="183.8461538461538"></line><line stroke="black" stroke-width="5" x1="751.8683190984774" x2="751.8683190984774" y1="143.8461538461538" y2="183.8461538461538"></line></g><g><g><path d="M410.170 184.486C414.170 184.486 419.090 180.766 419.090 176.966C419.090 174.686 417.290 173.206 414.690 173.206C409.770 173.206 405.810 176.846 405.810 180.726C405.810 183.086 407.730 184.486 410.170 184.486Z"></path><g><circle cx="425.0899299076342" cy="178.8461538461538" r="2.4"></circle></g></g><g><path d="M410.170 174.486C414.170 174.486 419.090 170.766 419.090 166.966C419.090 164.686 417.290 163.206 414.690 163.206C409.770 163.206 405.810 166.846 405.810 170.726C405.810 173.086 407.730 174.486 410.170 174.486Z"></path><g><circle cx="425.0899299076342" cy="168.8461538461538" r="2.4"></circle></g><path d="M395.210 175.646C395.330 175.806 395.450 175.846 395.570 175.846C395.690 175.846 395.810 175.766 395.810 175.766C397.010 175.086 397.970 174.006 398.970 173.326C402.530 170.846 403.770 168.406 403.770 166.566C403.770 164.286 402.010 162.846 400.170 162.726C399.890 162.726 399.610 162.766 399.330 162.846C398.890 162.966 398.410 163.126 397.970 163.406C397.730 163.606 397.450 163.966 397.090 163.966C397.010 163.966 396.970 163.966 396.890 163.926C396.610 163.806 396.450 163.526 396.450 163.246C396.490 162.366 396.730 152.766 396.730 151.966C396.730 151.526 396.370 151.286 395.970 151.286C395.410 151.286 394.770 151.686 394.730 152.406C394.730 152.406 394.890 175.246 395.210 175.646ZM396.610 172.086C396.610 172.086 396.490 169.686 396.490 168.086C396.490 167.446 396.530 166.966 396.570 166.806C396.730 166.326 397.770 165.446 398.330 165.126C398.690 164.926 399.050 164.846 399.370 164.846C399.770 164.846 400.130 165.006 400.370 165.286C400.770 165.726 401.010 166.406 401.010 167.166C401.010 167.886 400.810 168.726 400.330 169.566C399.810 170.526 398.650 171.806 397.450 172.566C397.290 172.646 397.170 172.686 397.050 172.686C396.690 172.686 396.610 172.286 396.610 172.086Z"></path></g><line stroke="#000000" stroke-width="1.2" x1="418.4899299076342" x2="418.4899299076342" y1="177.0061538461538" y2="137.0061538461538"></line></g><g><g><path d="M520.155 184.486C524.155 184.486 529.075 180.766 529.075 176.966C529.075 174.686 527.275 173.206 524.675 173.206C519.755 173.206 515.795 176.846 515.795 180.726C515.795 183.086 517.715 184.486 520.155 184.486Z"></path></g><g><path d="M520.155 174.486C524.155 174.486 529.075 170.766 529.075 166.966C529.075 164.686 527.275 163.206 524.675 163.206C519.755 163.206 515.795 166.846 515.795 170.726C515.795 173.086 517.715 174.486 520.155 174.486Z"></path></g><line stroke="#000000" stroke-width="1.2" x1="528.4745910060449" x2="528.4745910060449" y1="177.0061538461538" y2="137.0061538461538"></line><path d="M537.395 163.086C537.395 163.086 538.435 159.286 538.435 156.166C538.435 151.166 536.355 146.446 533.835 142.446C531.795 139.286 530.115 135.846 529.475 132.006C529.355 131.366 529.035 131.126 528.275 131.126C528.035 131.126 527.875 131.246 527.875 131.726L527.875 141.286C530.515 141.766 534.315 147.206 535.755 150.606C536.355 151.966 536.715 154.246 536.715 156.606C536.715 158.406 536.435 160.286 535.755 162.086C535.675 162.326 535.635 162.526 535.635 162.686C535.635 163.326 536.035 163.686 536.275 163.846C536.515 164.006 537.195 163.766 537.395 163.086Z"></path></g><g><g><path d="M579.258 179.486C583.258 179.486 588.178 175.766 588.178 171.966C588.178 169.686 586.378 168.206 583.778 168.206C578.858 168.206 574.898 171.846 574.898 175.726C574.898 178.086 576.818 179.486 579.258 179.486Z"></path></g><g><path d="M579.258 169.486C583.258 169.486 588.178 165.766 588.178 161.966C588.178 159.686 586.378 158.206 583.778 158.206C578.858 158.206 574.898 161.846 574.898 165.726C574.898 168.086 576.818 169.486 579.258 169.486Z"></path><path d="M564.298 170.646C564.418 170.806 564.538 170.846 564.658 170.846C564.778 170.846 564.898 170.766 564.898 170.766C566.098 170.086 567.058 169.006 568.058 168.326C571.618 165.846 572.858 163.406 572.858 161.566C572.858 159.286 571.098 157.846 569.258 157.726C568.978 157.726 568.698 157.766 568.418 157.846C567.978 157.966 567.498 158.126 567.058 158.406C566.818 158.606 566.538 158.966 566.178 158.966C566.098 158.966 566.058 158.966 565.978 158.926C565.698 158.806 565.538 158.526 565.538 158.246C565.578 157.366 565.818 147.766 565.818 146.966C565.818 146.526 565.458 146.286 565.058 146.286C564.498 146.286 563.858 146.686 563.818 147.406C563.818 147.406 563.978 170.246 564.298 170.646ZM565.698 167.086C565.698 167.086 565.578 164.686 565.578 163.086C565.578 162.446 565.618 161.966 565.658 161.806C565.818 161.326 566.858 160.446 567.418 160.126C567.778 159.926 568.138 159.846 568.458 159.846C568.858 159.846 569.218 160.006 569.458 160.286C569.858 160.726 570.098 161.406 570.098 162.166C570.098 162.886 569.898 163.726 569.418 164.566C568.898 165.526 567.738 166.806 566.538 167.566C566.378 167.646 566.258 167.686 566.138 167.686C565.778 167.686 565.698 167.286 565.698 167.086Z"></path></g><line stroke="#000000" stroke-width="1.2" x1="587.5780241709501" x2="587.5780241709501" y1="172.0061538461538" y2="129.0061538461538"></line></g><g><g><path d="M663.693 179.486C667.693 179.486 672.613 175.766 672.613 171.966C672.613 169.686 670.813 168.206 668.213 168.206C663.293 168.206 659.333 171.846 659.333 175.726C659.333 178.086 661.253 179.486 663.693 179.486Z"></path></g><g><path d="M663.693 169.486C667.693 169.486 672.613 165.766 672.613 161.966C672.613 159.686 670.813 158.206 668.213 158.206C663.293 158.206 659.333 161.846 659.333 165.726C659.333 168.086 661.253 169.486 663.693 169.486Z"></path></g><line stroke="#000000" stroke-width="1.2" x1="672.0131716347138" x2="672.0131716347138" y1="172.0061538461538" y2="129.0061538461538"></line></g></g></svg>