<?xml version="1.0" encoding="UTF-8" standalone="no"?><svg xmlns="http://www.w3.org/2000/svg" height="279.4mm" viewBox="0 0 1328.6153846153845 1719.3846153846152" width="215.9mm"><text x="664.3076923076923" y="61.53846153846143"><tspan alignment-baseline="hanging" fill="black" direction="inherit" dx="0" dy="0" font-style="normal" font-weight="normal" font-family="Alegreya" font-size="29.30769230769231" letter-spacing="normal" text-decoration="none" text-anchor="middle">MusicXML notations (attached to note)</tspan></text><g transform="translate(93.84615384615385)"><g><g><line stroke="#6A6A6A" stroke-width="1.3" x1="0" x2="1140.9230769230771" y1="183.8461538461538" y2="183.8461538461538"></line><line stroke="#6A6A6A" stroke-width="1.3" x1="0" x2="1140.9230769230771" y1="173.8461538461538" y2="173.8461538461538"></line><line stroke="#6A6A6A" stroke-width="1.3" x1="0" x2="1140.9230769230771" y1="163.8461538461538" y2="163.8461538461538"></line><line stroke="#6A6A6A" stroke-width="1.3" x1="0" x2="1140.9230769230771" y1="153.8461538461538" y2="153.8461538461538"></line><line stroke="#6A6A6A" stroke-width="1.3" x1="0" x2="1140.9230769230771" y1="143.8461538461538" y2="143.8461538461538"></line></g><g><path d="M25.200 129.926C24.640 129.926 23.400 130.966 22.600 131.846C19.640 135.126 18.680 140.126 18.680 144.286C18.680 146.606 18.960 149.206 19.240 150.846C19.320 151.326 19.360 151.406 18.880 151.806C16.320 153.926 13.560 156.366 11.480 158.926C8.720 162.366 7 166.086 7 170.366C7 177.326 11.760 183.926 21.560 183.926C22.480 183.926 23.520 183.846 24.320 183.686C24.760 183.606 24.840 183.566 24.920 184.046C25.400 186.726 26 190.206 26 192.086C26 198.006 22 198.726 19.640 198.726C17.480 198.726 16.440 198.086 16.440 197.566C16.440 197.126 16.800 197.166 17.720 196.886C18.960 196.526 20.400 195.446 20.400 193.126C20.400 190.926 19 189.046 16.560 189.046C13.880 189.046 12.280 191.166 12.280 193.646C12.280 196.246 13.840 200.166 19.880 200.166C22.560 200.166 27.760 198.966 27.760 192.166C27.760 189.886 27.040 186.086 26.600 183.606C26.520 183.126 26.560 183.166 27.120 182.926C31.160 181.326 33.840 177.926 33.840 173.406C33.840 168.286 30.080 163.766 24.200 163.766C23.080 163.766 23.200 163.966 23.040 163.046L22.040 157.246C21.960 156.766 22.040 156.726 22.280 156.486C22.920 155.886 23.760 155.046 24.520 154.206C27.880 150.526 29.880 145.766 29.880 141.246C29.880 137.766 28.920 134.326 27.280 131.926C26.680 131.046 25.640 129.926 25.200 129.926ZM20.040 158.086C20.440 157.766 20.520 157.806 20.600 158.246L21.440 163.366C21.560 164.126 21.560 164.086 20.840 164.326C17.320 165.526 15.040 168.686 15.040 172.086C15.040 175.686 16.920 178.246 19.640 179.166C19.960 179.286 20.440 179.406 20.720 179.406C21.040 179.406 21.200 179.206 21.200 178.966C21.200 178.686 20.880 178.566 20.600 178.446C18.920 177.726 17.720 176.006 17.720 174.166C17.720 171.886 19.280 170.166 21.720 169.486C22.360 169.326 22.440 169.366 22.520 169.806L24.520 181.726C24.600 182.166 24.560 182.166 23.960 182.286C23.320 182.406 22.520 182.486 21.720 182.486C14.720 182.486 10.200 178.606 10.200 173.046C10.200 170.686 10.600 167.526 13.920 163.766C16.320 161.086 18.160 159.606 20.040 158.086ZM24.640 169.166C27.880 169.446 30.560 172.166 30.560 175.686C30.560 178.206 29.040 180.246 26.800 181.366C26.320 181.606 26.240 181.606 26.160 181.126L24.200 169.726C24.120 169.246 24.160 169.126 24.640 169.166ZM25.800 136.126C27.120 136.126 28.200 137.206 28.200 139.406C28.200 142.166 26.880 144.726 23.760 147.846C23.120 148.486 22.160 149.406 21.240 150.206C20.960 150.446 20.800 150.406 20.720 149.886C20.560 148.846 20.480 147.486 20.480 146.206C20.480 139.966 23.360 136.126 25.800 136.126Z"></path></g><g></g><path d="M57.820 153.806C56.620 153.806 55.220 154.126 54.140 154.606C50.580 156.166 48.700 160.446 48.700 164.246C48.700 164.606 48.700 164.966 48.740 165.326C48.940 167.486 49.980 169.526 51.300 171.126C52.820 172.966 55.020 173.806 57.420 173.806C64.420 173.806 65.460 167.446 65.460 166.286C65.460 165.406 65.020 165.406 64.860 165.406C64.540 165.406 64.260 165.446 64.260 166.126C64.260 171.286 59.860 172.486 58.580 172.486C55.340 172.486 53.620 169.326 53.620 162.726C53.620 156.126 56.660 154.766 58.820 154.766C60.900 154.766 61.740 155.726 61.740 156.126C61.740 156.486 61.620 157.006 61.020 157.006C59.420 157.006 58.500 158.726 58.500 159.966C58.500 162.246 60.460 162.966 61.580 162.966C61.580 162.966 64.620 162.846 64.620 159.526C64.620 154.286 58.580 153.806 57.820 153.806Z"></path></g><g><line stroke="black" stroke-width="1.6" x1="350.4132967032967" x2="350.4132967032967" y1="143.8461538461538" y2="183.8461538461538"></line></g><g><g><path d="M93.360 164.486C97.360 164.486 102.280 160.766 102.280 156.966C102.280 154.686 100.480 153.206 97.880 153.206C92.960 153.206 89 156.846 89 160.726C89 163.086 90.920 164.486 93.360 164.486Z"></path></g><line stroke="#000000" stroke-width="1.2" x1="89.6" x2="89.6" y1="160.68615384615381" y2="198.68615384615381"></line><path d="M109.960 101.946C109.960 100.786 108.960 99.786 107.760 99.786C106.600 99.786 105.600 100.786 105.600 101.946C105.600 103.146 106.600 104.146 107.760 104.146C108.960 104.146 109.960 103.146 109.960 101.946ZM107.720 95.186C116.240 95.186 117.960 101.506 118.360 103.026C118.400 103.146 118.400 103.266 118.440 103.306C118.720 103.866 118.800 104.146 119.280 104.146C119.640 104.146 119.840 103.986 119.840 103.586C119.840 103.466 119.840 103.346 119.800 103.186C117.320 90.946 108.960 90.866 107.800 90.866C106.520 90.866 98.240 90.946 95.800 103.186C95.760 103.346 95.760 103.506 95.760 103.626C95.760 104.026 95.960 104.146 96.280 104.146C96.640 104.146 96.840 103.866 97.080 103.306C97.120 103.266 97.160 103.106 97.200 102.946C97.680 101.306 99.400 95.186 107.720 95.186Z"></path><text font-family="Alegreya" font-size="22" text-anchor="middle" x="95.64" y="223.8461538461538">ferm.</text></g><g><g><path d="M155.072 164.486C159.072 164.486 163.992 160.766 163.992 156.966C163.992 154.686 162.192 153.206 159.592 153.206C154.672 153.206 150.712 156.846 150.712 160.726C150.712 163.086 152.632 164.486 155.072 164.486Z"></path></g><line stroke="#000000" stroke-width="1.2" x1="151.31232417582416" x2="151.31232417582416" y1="160.68615384615381" y2="198.68615384615381"></line><path d="M171.672 101.946C171.672 100.786 170.672 99.786 169.472 99.786C168.312 99.786 167.312 100.786 167.312 101.946C167.312 103.146 168.312 104.146 169.472 104.146C170.672 104.146 171.672 103.146 171.672 101.946ZM169.432 95.186C177.952 95.186 179.672 101.506 180.072 103.026C180.112 103.146 180.112 103.266 180.152 103.306C180.432 103.866 180.512 104.146 180.992 104.146C181.352 104.146 181.552 103.986 181.552 103.586C181.552 103.466 181.552 103.346 181.512 103.186C179.032 90.946 170.672 90.866 169.512 90.866C168.232 90.866 159.952 90.946 157.512 103.186C157.472 103.346 157.472 103.506 157.472 103.626C157.472 104.026 157.672 104.146 157.992 104.146C158.352 104.146 158.552 103.866 158.792 103.306C158.832 103.266 158.872 103.106 158.912 102.946C159.392 101.306 161.112 95.186 169.432 95.186Z"></path><text font-family="Alegreya" font-size="22" text-anchor="middle" x="157.35232417582415" y="223.8461538461538">normal ferm.</text></g><g><g><path d="M249.378 164.486C253.378 164.486 258.298 160.766 258.298 156.966C258.298 154.686 256.498 153.206 253.898 153.206C248.978 153.206 245.018 156.846 245.018 160.726C245.018 163.086 246.938 164.486 249.378 164.486Z"></path></g><line stroke="#000000" stroke-width="1.2" x1="245.61764835164828" x2="245.61764835164828" y1="160.68615384615381" y2="198.68615384615381"></line><path d="M265.978 101.946C265.978 100.786 264.978 99.786 263.778 99.786C262.618 99.786 261.618 100.786 261.618 101.946C261.618 103.146 262.618 104.146 263.778 104.146C264.978 104.146 265.978 103.146 265.978 101.946ZM263.738 95.186C272.258 95.186 273.978 101.506 274.378 103.026C274.418 103.146 274.418 103.266 274.458 103.306C274.738 103.866 274.818 104.146 275.298 104.146C275.658 104.146 275.858 103.986 275.858 103.586C275.858 103.466 275.858 103.346 275.818 103.186C273.338 90.946 264.978 90.866 263.818 90.866C262.538 90.866 254.258 90.946 251.818 103.186C251.778 103.346 251.778 103.506 251.778 103.626C251.778 104.026 251.978 104.146 252.298 104.146C252.658 104.146 252.858 103.866 253.098 103.306C253.138 103.266 253.178 103.106 253.218 102.946C253.698 101.306 255.418 95.186 263.738 95.186Z"></path><text font-family="Alegreya" font-size="22" text-anchor="middle" x="251.65764835164828" y="223.8461538461538">angled ferm.</text></g><g><g><path d="M341.164 164.486C345.164 164.486 350.084 160.766 350.084 156.966C350.084 154.686 348.284 153.206 345.684 153.206C340.764 153.206 336.804 156.846 336.804 160.726C336.804 163.086 338.724 164.486 341.164 164.486Z"></path></g><line stroke="#000000" stroke-width="1.2" x1="337.4039725274725" x2="337.4039725274725" y1="160.68615384615381" y2="198.68615384615381"></line><path d="M357.764 101.946C357.764 100.786 356.764 99.786 355.564 99.786C354.404 99.786 353.404 100.786 353.404 101.946C353.404 103.146 354.404 104.146 355.564 104.146C356.764 104.146 357.764 103.146 357.764 101.946ZM355.524 95.186C364.044 95.186 365.764 101.506 366.164 103.026C366.204 103.146 366.204 103.266 366.244 103.306C366.524 103.866 366.604 104.146 367.084 104.146C367.444 104.146 367.644 103.986 367.644 103.586C367.644 103.466 367.644 103.346 367.604 103.186C365.124 90.946 356.764 90.866 355.604 90.866C354.324 90.866 346.044 90.946 343.604 103.186C343.564 103.346 343.564 103.506 343.564 103.626C343.564 104.026 343.764 104.146 344.084 104.146C344.444 104.146 344.644 103.866 344.884 103.306C344.924 103.266 344.964 103.106 345.004 102.946C345.484 101.306 347.204 95.186 355.524 95.186Z"></path><text font-family="Alegreya" font-size="22" text-anchor="middle" x="343.44397252747245" y="223.8461538461538">square ferm.</text></g></g><g transform="translate(460.0594505494505)"><g></g><g><line stroke="#000000" stroke-width="1.6" x1="168.44029670329675" x2="168.44029670329675" y1="143.8461538461538" y2="183.8461538461538"></line><line stroke="#000000" stroke-width="1.6" x1="174.04029670329675" x2="174.04029670329675" y1="143.8461538461538" y2="183.8461538461538"></line></g><g><g><path d="M33.080 164.486C37.080 164.486 42 160.766 42 156.966C42 154.686 40.200 153.206 37.600 153.206C32.680 153.206 28.720 156.846 28.720 160.726C28.720 163.086 30.640 164.486 33.080 164.486Z"></path></g><line stroke="#000000" stroke-width="1.2" x1="29.32" x2="29.32" y1="160.68615384615381" y2="198.68615384615381"></line><path d="M49.680 196.226C49.680 195.026 48.680 194.026 47.480 194.026C46.320 194.026 45.320 195.026 45.320 196.226C45.320 197.386 46.320 198.386 47.480 198.386C48.680 198.386 49.680 197.386 49.680 196.226ZM47.440 202.986C39.120 202.986 37.400 196.866 36.920 195.226C36.880 195.066 36.840 194.906 36.800 194.866C36.560 194.306 36.360 194.026 36 194.026C35.680 194.026 35.480 194.146 35.480 194.546C35.480 194.666 35.480 194.826 35.520 194.986C37.960 207.226 46.240 207.306 47.520 207.306C48.680 207.306 57.040 207.226 59.520 194.986C59.560 194.826 59.560 194.706 59.560 194.586C59.560 194.186 59.360 194.026 59 194.026C58.520 194.026 58.440 194.306 58.160 194.866C58.120 194.906 58.120 195.026 58.080 195.146C57.680 196.666 55.960 202.986 47.440 202.986Z"></path><text font-family="Alegreya" font-size="22" text-anchor="middle" x="35.36" y="223.8461538461538">inv.ferm.</text></g><g><g><path d="M69.756 164.486C73.756 164.486 78.676 160.766 78.676 156.966C78.676 154.686 76.876 153.206 74.276 153.206C69.356 153.206 65.396 156.846 65.396 160.726C65.396 163.086 67.316 164.486 69.756 164.486Z"></path></g><g><path d="M69.756 154.486C73.756 154.486 78.676 150.766 78.676 146.966C78.676 144.686 76.876 143.206 74.276 143.206C69.356 143.206 65.396 146.846 65.396 150.726C65.396 153.086 67.316 154.486 69.756 154.486Z"></path></g><g><path d="M69.756 144.486C73.756 144.486 78.676 140.766 78.676 136.966C78.676 134.686 76.876 133.206 74.276 133.206C69.356 133.206 65.396 136.846 65.396 140.726C65.396 143.086 67.316 144.486 69.756 144.486Z"></path></g><line stroke="#000000" stroke-width="1.2" x1="65.99632417582418" x2="65.99632417582418" y1="140.68615384615381" y2="190.68615384615381"></line><text font-family="Alegreya" font-size="22" text-anchor="middle" x="72.03632417582419" y="223.8461538461538">arp.</text></g><g><g><path d="M104.266 164.486C108.266 164.486 113.186 160.766 113.186 156.966C113.186 154.686 111.386 153.206 108.786 153.206C103.866 153.206 99.906 156.846 99.906 160.726C99.906 163.086 101.826 164.486 104.266 164.486Z"></path></g><g><path d="M104.266 154.486C108.266 154.486 113.186 150.766 113.186 146.966C113.186 144.686 111.386 143.206 108.786 143.206C103.866 143.206 99.906 146.846 99.906 150.726C99.906 153.086 101.826 154.486 104.266 154.486Z"></path></g><g><path d="M104.266 144.486C108.266 144.486 113.186 140.766 113.186 136.966C113.186 134.686 111.386 133.206 108.786 133.206C103.866 133.206 99.906 136.846 99.906 140.726C99.906 143.086 101.826 144.486 104.266 144.486Z"></path></g><line stroke="#000000" stroke-width="1.2" x1="100.50564835164836" x2="100.50564835164836" y1="140.68615384615381" y2="190.68615384615381"></line><text font-family="Alegreya" font-size="22" text-anchor="middle" x="106.54564835164837" y="223.8461538461538">non-arp.</text></g><g><g><path d="M159.191 164.486C163.191 164.486 168.111 160.766 168.111 156.966C168.111 154.686 166.311 153.206 163.711 153.206C158.791 153.206 154.831 156.846 154.831 160.726C154.831 163.086 156.751 164.486 159.191 164.486Z"></path></g><line stroke="#000000" stroke-width="1.2" x1="155.43097252747253" x2="155.43097252747253" y1="160.68615384615381" y2="198.68615384615381"></line><text font-family="Alegreya" font-size="22" text-anchor="middle" x="161.47097252747255" y="223.8461538461538">acc.mark</text></g></g><g transform="translate(649.8997472527471)"><g></g><g><line stroke="black" stroke-width="1.6" x1="106.49929670329676" x2="106.49929670329676" y1="143.8461538461538" y2="183.8461538461538"></line></g><g><g><path d="M8.814 164.486C12.814 164.486 17.734 160.766 17.734 156.966C17.734 154.686 15.934 153.206 13.334 153.206C8.414 153.206 4.454 156.846 4.454 160.726C4.454 163.086 6.374 164.486 8.814 164.486Z"></path></g><line stroke="#000000" stroke-width="1.2" x1="5.053999999999997" x2="5.053999999999997" y1="160.68615384615381" y2="198.68615384615381"></line><path d="M4.614 149.766C4.734 149.726 16.854 145.646 16.854 145.646C17.374 145.526 17.374 145.246 17.374 144.926C17.374 144.606 17.374 144.366 16.854 144.206L4.854 140.126C4.694 140.086 4.614 140.046 4.494 140.046C4.134 140.046 4.014 140.286 3.894 140.606C3.854 140.766 3.814 140.886 3.814 141.006C3.814 141.206 3.934 141.406 4.374 141.566C4.374 141.566 13.014 144.486 13.414 144.646C13.614 144.686 13.694 144.806 13.694 144.926C13.694 145.046 13.614 145.126 13.374 145.206C12.934 145.326 4.374 148.246 4.374 148.246C3.934 148.446 3.814 148.646 3.814 148.846C3.814 148.966 3.854 149.086 3.894 149.206C4.014 149.486 4.174 149.806 4.454 149.806C4.494 149.806 4.574 149.806 4.614 149.766Z"></path><text font-family="Alegreya" font-size="22" text-anchor="middle" x="11.093999999999998" y="223.8461538461538">acc.</text></g><g><g><path d="M38.978 164.486C42.978 164.486 47.898 160.766 47.898 156.966C47.898 154.686 46.098 153.206 43.498 153.206C38.578 153.206 34.618 156.846 34.618 160.726C34.618 163.086 36.538 164.486 38.978 164.486Z"></path></g><line stroke="#000000" stroke-width="1.2" x1="35.21832417582418" x2="35.21832417582418" y1="160.68615384615381" y2="198.68615384615381"></line><path d="M45.438 149.206L41.118 139.966C40.998 139.806 40.878 139.726 40.718 139.726C40.438 139.726 40.318 139.966 40.318 139.966C40.318 139.966 36.078 149.206 36.078 149.206C36.038 149.286 36.038 149.326 36.038 149.406C36.038 149.606 36.118 149.806 36.318 149.846C36.358 149.886 36.478 149.886 36.518 149.886C36.678 149.886 36.878 149.806 36.958 149.606C36.958 149.606 39.118 144.846 39.198 144.686C39.238 144.606 39.278 144.566 39.358 144.566C39.438 144.566 39.518 144.606 39.598 144.686C39.638 144.846 41.878 149.606 41.878 149.606C41.998 149.766 42.158 149.846 42.318 149.846L45.038 149.846C45.318 149.806 45.478 149.646 45.478 149.406C45.478 149.326 45.478 149.246 45.438 149.206Z"></path><text font-family="Alegreya" font-size="22" text-anchor="middle" x="41.25832417582418" y="223.8461538461538">str.-acc.</text></g><g><g><path d="M77.195 164.486C81.195 164.486 86.115 160.766 86.115 156.966C86.115 154.686 84.315 153.206 81.715 153.206C76.795 153.206 72.835 156.846 72.835 160.726C72.835 163.086 74.755 164.486 77.195 164.486Z"></path></g><line stroke="#000000" stroke-width="1.2" x1="73.43464835164836" x2="73.43464835164836" y1="160.68615384615381" y2="198.68615384615381"></line><path d="M80.655 148.166C80.655 147.246 79.895 146.486 78.975 146.486C78.055 146.486 77.295 147.246 77.295 148.166C77.295 149.086 78.055 149.846 78.975 149.846C79.895 149.846 80.655 149.086 80.655 148.166Z"></path><text font-family="Alegreya" font-size="22" text-anchor="middle" x="79.47464835164837" y="223.8461538461538">stacc.</text></g><g><g><path d="M97.250 164.486C101.250 164.486 106.170 160.766 106.170 156.966C106.170 154.686 104.370 153.206 101.770 153.206C96.850 153.206 92.890 156.846 92.890 160.726C92.890 163.086 94.810 164.486 97.250 164.486Z"></path></g><line stroke="#000000" stroke-width="1.2" x1="93.48997252747256" x2="93.48997252747256" y1="160.68615384615381" y2="198.68615384615381"></line><path d="M104.850 149.846C105.770 149.846 105.810 149.406 105.810 148.886C105.810 148.366 105.810 147.926 104.850 147.926L93.210 147.926C92.250 147.926 92.250 148.366 92.250 148.886C92.250 149.406 92.250 149.846 93.210 149.846Z"></path><text font-family="Alegreya" font-size="22" text-anchor="middle" x="99.52997252747257" y="223.8461538461538">ten.</text></g></g><g transform="translate(772.1990439560439)"><g></g><g><line stroke="black" stroke-width="1.6" x1="144.09729670329673" x2="144.09729670329673" y1="143.8461538461538" y2="183.8461538461538"></line></g><g><g><path d="M28.163 164.486C32.163 164.486 37.083 160.766 37.083 156.966C37.083 154.686 35.283 153.206 32.683 153.206C27.763 153.206 23.803 156.846 23.803 160.726C23.803 163.086 25.723 164.486 28.163 164.486Z"></path></g><line stroke="#000000" stroke-width="1.2" x1="24.40299999999999" x2="24.40299999999999" y1="160.68615384615381" y2="198.68615384615381"></line><path d="M35.763 142.166C36.683 142.166 36.723 141.726 36.723 141.206C36.723 140.686 36.723 140.246 35.763 140.246L24.123 140.246C23.163 140.246 23.163 140.686 23.163 141.206C23.163 141.726 23.163 142.166 24.123 142.166ZM31.763 148.166C31.763 149.086 31.003 149.846 30.083 149.846C29.163 149.846 28.403 149.086 28.403 148.166C28.403 147.246 29.163 146.486 30.083 146.486C31.003 146.486 31.763 147.246 31.763 148.166Z"></path><text font-family="Alegreya" font-size="22" text-anchor="middle" x="30.44299999999999" y="223.8461538461538">det.-leg.</text></g><g><g><path d="M74.321 164.486C78.321 164.486 83.241 160.766 83.241 156.966C83.241 154.686 81.441 153.206 78.841 153.206C73.921 153.206 69.961 156.846 69.961 160.726C69.961 163.086 71.881 164.486 74.321 164.486Z"></path></g><line stroke="#000000" stroke-width="1.2" x1="70.56132417582415" x2="70.56132417582415" y1="160.68615384615381" y2="198.68615384615381"></line><path d="M76.081 138.126C75.041 138.126 74.161 138.486 74.121 139.006C74.121 139.606 75.161 149.926 76.081 149.926C77.081 149.926 78.081 139.966 78.081 139.046C78.081 138.446 77.161 138.126 76.081 138.126Z"></path><text font-family="Alegreya" font-size="22" text-anchor="middle" x="76.60132417582416" y="223.8461538461538">stacc.ss</text></g><g><g><path d="M109.337 164.486C113.337 164.486 118.257 160.766 118.257 156.966C118.257 154.686 116.457 153.206 113.857 153.206C108.937 153.206 104.977 156.846 104.977 160.726C104.977 163.086 106.897 164.486 109.337 164.486Z"></path></g><line stroke="#000000" stroke-width="1.2" x1="105.57664835164833" x2="105.57664835164833" y1="160.68615384615381" y2="198.68615384615381"></line><path d="M109.357 138.366C110.037 140.046 110.757 145.766 110.837 149.726C110.837 149.846 111.077 149.846 111.117 149.846C111.157 149.846 111.397 149.846 111.397 149.726C111.477 145.806 112.197 140.086 112.877 138.366C112.877 138.326 112.877 138.246 112.797 138.246C112.757 138.246 111.917 138.406 111.117 138.406C110.277 138.406 109.477 138.246 109.437 138.246C109.357 138.246 109.357 138.286 109.357 138.366Z"></path><text font-family="Alegreya" font-size="22" text-anchor="middle" x="111.61664835164834" y="223.8461538461538">spicc.</text></g><g><g><path d="M134.848 164.486C138.848 164.486 143.768 160.766 143.768 156.966C143.768 154.686 141.968 153.206 139.368 153.206C134.448 153.206 130.488 156.846 130.488 160.726C130.488 163.086 132.408 164.486 134.848 164.486Z"></path></g><line stroke="#000000" stroke-width="1.2" x1="131.08797252747252" x2="131.08797252747252" y1="160.68615384615381" y2="198.68615384615381"></line><text font-family="Alegreya" font-size="22" text-anchor="middle" x="137.12797252747254" y="223.8461538461538">scoop</text></g></g><g transform="translate(932.0963406593406)"><g></g><g><line stroke="black" stroke-width="1.6" x1="80.44329670329678" x2="80.44329670329678" y1="143.8461538461538" y2="183.8461538461538"></line></g><g><g><path d="M8.330 164.486C12.330 164.486 17.250 160.766 17.250 156.966C17.250 154.686 15.450 153.206 12.850 153.206C7.930 153.206 3.970 156.846 3.970 160.726C3.970 163.086 5.890 164.486 8.330 164.486Z"></path></g><line stroke="#000000" stroke-width="1.2" x1="4.569999999999995" x2="4.569999999999995" y1="160.68615384615381" y2="198.68615384615381"></line><text font-family="Alegreya" font-size="22" text-anchor="middle" x="10.609999999999996" y="223.8461538461538">plop</text></g><g><g><path d="M21.139 164.486C25.139 164.486 30.059 160.766 30.059 156.966C30.059 154.686 28.259 153.206 25.659 153.206C20.739 153.206 16.779 156.846 16.779 160.726C16.779 163.086 18.699 164.486 21.139 164.486Z"></path></g><line stroke="#000000" stroke-width="1.2" x1="17.379324175824195" x2="17.379324175824195" y1="160.68615384615381" y2="198.68615384615381"></line><text font-family="Alegreya" font-size="22" text-anchor="middle" x="23.419324175824194" y="223.8461538461538">doit</text></g><g><g><path d="M41.668 164.486C45.668 164.486 50.588 160.766 50.588 156.966C50.588 154.686 48.788 153.206 46.188 153.206C41.268 153.206 37.308 156.846 37.308 160.726C37.308 163.086 39.228 164.486 41.668 164.486Z"></path></g><line stroke="#000000" stroke-width="1.2" x1="37.90764835164838" x2="37.90764835164838" y1="160.68615384615381" y2="198.68615384615381"></line><text font-family="Alegreya" font-size="22" text-anchor="middle" x="43.94764835164838" y="223.8461538461538">falloff</text></g><g><g><path d="M71.194 164.486C75.194 164.486 80.114 160.766 80.114 156.966C80.114 154.686 78.314 153.206 75.714 153.206C70.794 153.206 66.834 156.846 66.834 160.726C66.834 163.086 68.754 164.486 71.194 164.486Z"></path></g><line stroke="#000000" stroke-width="1.2" x1="67.43397252747258" x2="67.43397252747258" y1="160.68615384615381" y2="198.68615384615381"></line><path d="M72.794 139.806C71.074 139.806 69.954 140.926 69.954 142.326C69.954 143.686 70.874 144.566 72.194 144.566C73.194 144.566 73.314 145.406 73.314 145.406C73.354 145.566 73.394 145.686 73.394 145.846C73.394 146.406 73.114 146.926 72.754 147.406C72.074 148.286 71.034 148.886 70.954 148.966C70.794 149.046 70.634 149.126 70.634 149.326C70.634 149.366 70.674 149.406 70.674 149.446C70.714 149.686 70.834 149.766 70.954 149.766C72.274 149.766 74.314 148.006 74.954 147.006C75.754 145.766 75.994 144.366 75.994 143.206L75.994 142.926C75.994 141.766 75.514 140.966 74.874 140.486C74.274 140.046 73.514 139.806 72.794 139.806Z"></path><text font-family="Alegreya" font-size="22" text-anchor="middle" x="73.47397252747258" y="223.8461538461538">breath</text></g></g><g transform="translate(1028.3396373626374)"><g></g><g><line stroke="#000000" stroke-width="1.6" x1="87.94529670329673" x2="87.94529670329673" y1="143.8461538461538" y2="183.8461538461538"></line><line stroke="#000000" stroke-width="1.6" x1="93.54529670329673" x2="93.54529670329673" y1="143.8461538461538" y2="183.8461538461538"></line></g><g><g><path d="M13.500 164.486C17.500 164.486 22.420 160.766 22.420 156.966C22.420 154.686 20.620 153.206 18.020 153.206C13.100 153.206 9.140 156.846 9.140 160.726C9.140 163.086 11.060 164.486 13.500 164.486Z"></path></g><line stroke="#000000" stroke-width="1.2" x1="9.739999999999993" x2="9.739999999999993" y1="160.68615384615381" y2="198.68615384615381"></line><path d="M8.720 149.886C9.200 149.886 9.600 149.606 9.760 149.126L16.520 130.046C16.560 129.926 16.560 129.806 16.560 129.686C16.560 129.246 16.280 128.806 15.840 128.646C15.720 128.606 15.560 128.566 15.440 128.566C14.960 128.566 14.560 128.846 14.400 129.326L7.680 148.406C7.640 148.526 7.600 148.686 7.600 148.806C7.600 149.246 7.880 149.646 8.360 149.806C8.480 149.886 8.600 149.886 8.720 149.886ZM16.160 149.126L22.920 130.046C22.960 129.926 22.960 129.806 22.960 129.686C22.960 129.246 22.680 128.806 22.240 128.646C22.120 128.606 21.960 128.566 21.840 128.566C21.360 128.566 20.960 128.846 20.800 129.326L14.040 148.406C14.000 148.526 14.000 148.646 14.000 148.766C14.000 149.206 14.280 149.646 14.760 149.806C14.880 149.886 15.000 149.886 15.120 149.886C15.560 149.886 16.000 149.606 16.160 149.126Z"></path><text font-family="Alegreya" font-size="22" text-anchor="middle" x="15.779999999999994" y="223.8461538461538">caes.</text></g><g><g><path d="M37.064 164.486C41.064 164.486 45.984 160.766 45.984 156.966C45.984 154.686 44.184 153.206 41.584 153.206C36.664 153.206 32.704 156.846 32.704 160.726C32.704 163.086 34.624 164.486 37.064 164.486Z"></path></g><line stroke="#000000" stroke-width="1.2" x1="33.30432417582418" x2="33.30432417582418" y1="160.68615384615381" y2="198.68615384615381"></line><path d="M42.584 141.286C42.024 140.726 41.384 140.366 40.944 140.366C40.784 140.366 40.664 140.446 40.544 140.526C40.144 140.926 34.184 148.246 34.184 149.486C34.184 149.526 34.224 149.606 34.224 149.606C34.264 149.646 34.304 149.646 34.384 149.646C35.744 149.646 42.984 143.726 43.344 143.326C43.464 143.206 43.504 143.086 43.504 142.926C43.504 142.486 43.104 141.806 42.584 141.286Z"></path><text font-family="Alegreya" font-size="22" text-anchor="middle" x="39.34432417582418" y="223.8461538461538">stress</text></g><g><g><path d="M65.887 164.486C69.887 164.486 74.807 160.766 74.807 156.966C74.807 154.686 73.007 153.206 70.407 153.206C65.487 153.206 61.527 156.846 61.527 160.726C61.527 163.086 63.447 164.486 65.887 164.486Z"></path></g><line stroke="#000000" stroke-width="1.2" x1="62.12664835164836" x2="62.12664835164836" y1="160.68615384615381" y2="198.68615384615381"></line><path d="M60.027 141.566L60.027 142.206C60.027 146.406 63.467 149.846 67.667 149.846C71.907 149.846 75.307 146.406 75.307 142.206L75.307 141.566L74.027 141.566L74.027 142.206C74.027 145.726 71.187 148.566 67.667 148.566C64.187 148.566 61.307 145.726 61.307 142.206L61.307 141.566Z"></path><text font-family="Alegreya" font-size="22" text-anchor="middle" x="68.16664835164836" y="223.8461538461538">unstr.</text></g><g><path d="M83.656 170.286C82.136 168.446 80.896 166.966 80.896 164.726C80.896 164.566 80.936 164.366 80.936 164.206C81.096 161.886 82.536 159.966 83.576 158.326C83.696 158.126 83.736 157.926 83.736 157.726C83.736 157.326 83.576 156.966 83.576 156.966C83.576 156.966 77.656 149.926 76.976 149.246C76.776 149.046 76.496 148.926 76.256 148.926C75.856 148.926 75.456 149.206 75.456 149.766C75.456 149.966 75.496 150.166 75.616 150.406C75.776 150.846 78.056 152.886 78.056 155.766C78.056 157.246 77.456 158.966 75.656 160.846C75.256 161.246 75.096 161.686 75.096 162.006C75.096 162.566 75.496 162.966 75.496 162.966L77.456 165.366C78.096 166.166 78.656 166.926 79.176 167.766C79.256 167.926 79.416 168.126 79.416 168.326C79.416 168.366 79.416 168.446 79.376 168.486C79.296 168.646 79.136 168.686 78.936 168.686C78.696 168.686 78.456 168.606 78.296 168.566C78.096 168.566 77.856 168.446 77.656 168.446C75.936 168.446 74.376 170.166 74.376 172.286C74.376 174.286 76.096 176.246 79.016 178.486C79.336 178.726 79.736 178.846 80.056 178.846C80.336 178.846 80.616 178.766 80.656 178.606C80.696 178.486 80.736 178.406 80.736 178.326C80.736 177.966 80.416 177.646 80.096 177.366C79.576 177.366 79.136 176.286 79.056 175.926C78.936 175.606 78.896 175.246 78.896 174.886C78.896 173.646 79.496 172.246 80.776 172.006C80.976 171.966 81.176 171.966 81.416 171.966C82.576 171.966 83.896 172.406 84.536 172.646C84.576 172.646 84.616 172.686 84.656 172.686C84.776 172.726 84.856 172.726 84.936 172.726C85.056 172.726 85.136 172.686 85.136 172.566C85.136 172.086 84.096 170.766 83.656 170.286Z"></path></g></g><g transform="translate(1137.6849340659342)"><g></g><g><line stroke="black" stroke-width="1.6" x1="96.28429670329676" x2="96.28429670329676" y1="143.8461538461538" y2="183.8461538461538"></line></g><g><g><path d="M4.360 164.486C8.360 164.486 13.280 160.766 13.280 156.966C13.280 154.686 11.480 153.206 8.880 153.206C3.960 153.206 0 156.846 0 160.726C0 163.086 1.920 164.486 4.360 164.486Z"></path></g><line stroke="#000000" stroke-width="1.2" x1="0.6" x2="0.6" y1="160.68615384615381" y2="198.68615384615381"></line><text font-family="Alegreya" font-size="22" text-anchor="middle" x="6.640000000000001" y="223.8461538461538">tr.</text></g><g><g><path d="M17.169 164.486C21.169 164.486 26.089 160.766 26.089 156.966C26.089 154.686 24.289 153.206 21.689 153.206C16.769 153.206 12.809 156.846 12.809 160.726C12.809 163.086 14.729 164.486 17.169 164.486Z"></path></g><line stroke="#000000" stroke-width="1.2" x1="13.409324175824194" x2="13.409324175824194" y1="160.68615384615381" y2="198.68615384615381"></line><text font-family="Alegreya" font-size="22" text-anchor="middle" x="19.449324175824195" y="223.8461538461538">turn</text></g><g><g><path d="M43.704 164.486C47.704 164.486 52.624 160.766 52.624 156.966C52.624 154.686 50.824 153.206 48.224 153.206C43.304 153.206 39.344 156.846 39.344 160.726C39.344 163.086 41.264 164.486 43.704 164.486Z"></path></g><line stroke="#000000" stroke-width="1.2" x1="39.943648351648385" x2="39.943648351648385" y1="160.68615384615381" y2="198.68615384615381"></line><text font-family="Alegreya" font-size="22" text-anchor="middle" x="45.983648351648384" y="223.8461538461538">del.turn</text></g><g><g><path d="M87.035 164.486C91.035 164.486 95.955 160.766 95.955 156.966C95.955 154.686 94.155 153.206 91.555 153.206C86.635 153.206 82.675 156.846 82.675 160.726C82.675 163.086 84.595 164.486 87.035 164.486Z"></path></g><line stroke="#000000" stroke-width="1.2" x1="83.27497252747256" x2="83.27497252747256" y1="160.68615384615381" y2="198.68615384615381"></line><text font-family="Alegreya" font-size="22" text-anchor="middle" x="89.31497252747256" y="223.8461538461538">inv.turn</text></g></g><g transform="translate(93.84615384615385)"><g><g><line stroke="#6A6A6A" stroke-width="1.3" x1="0" x2="1140.9230769230767" y1="314.8461538461538" y2="314.8461538461538"></line><line stroke="#6A6A6A" stroke-width="1.3" x1="0" x2="1140.9230769230767" y1="304.8461538461538" y2="304.8461538461538"></line><line stroke="#6A6A6A" stroke-width="1.3" x1="0" x2="1140.9230769230767" y1="294.8461538461538" y2="294.8461538461538"></line><line stroke="#6A6A6A" stroke-width="1.3" x1="0" x2="1140.9230769230767" y1="284.8461538461538" y2="284.8461538461538"></line><line stroke="#6A6A6A" stroke-width="1.3" x1="0" x2="1140.9230769230767" y1="274.8461538461538" y2="274.8461538461538"></line></g><g><path d="M25.200 260.926C24.640 260.926 23.400 261.966 22.600 262.846C19.640 266.126 18.680 271.126 18.680 275.286C18.680 277.606 18.960 280.206 19.240 281.846C19.320 282.326 19.360 282.406 18.880 282.806C16.320 284.926 13.560 287.366 11.480 289.926C8.720 293.366 7 297.086 7 301.366C7 308.326 11.760 314.926 21.560 314.926C22.480 314.926 23.520 314.846 24.320 314.686C24.760 314.606 24.840 314.566 24.920 315.046C25.400 317.726 26 321.206 26 323.086C26 329.006 22 329.726 19.640 329.726C17.480 329.726 16.440 329.086 16.440 328.566C16.440 328.126 16.800 328.166 17.720 327.886C18.960 327.526 20.400 326.446 20.400 324.126C20.400 321.926 19 320.046 16.560 320.046C13.880 320.046 12.280 322.166 12.280 324.646C12.280 327.246 13.840 331.166 19.880 331.166C22.560 331.166 27.760 329.966 27.760 323.166C27.760 320.886 27.040 317.086 26.600 314.606C26.520 314.126 26.560 314.166 27.120 313.926C31.160 312.326 33.840 308.926 33.840 304.406C33.840 299.286 30.080 294.766 24.200 294.766C23.080 294.766 23.200 294.966 23.040 294.046L22.040 288.246C21.960 287.766 22.040 287.726 22.280 287.486C22.920 286.886 23.760 286.046 24.520 285.206C27.880 281.526 29.880 276.766 29.880 272.246C29.880 268.766 28.920 265.326 27.280 262.926C26.680 262.046 25.640 260.926 25.200 260.926ZM20.040 289.086C20.440 288.766 20.520 288.806 20.600 289.246L21.440 294.366C21.560 295.126 21.560 295.086 20.840 295.326C17.320 296.526 15.040 299.686 15.040 303.086C15.040 306.686 16.920 309.246 19.640 310.166C19.960 310.286 20.440 310.406 20.720 310.406C21.040 310.406 21.200 310.206 21.200 309.966C21.200 309.686 20.880 309.566 20.600 309.446C18.920 308.726 17.720 307.006 17.720 305.166C17.720 302.886 19.280 301.166 21.720 300.486C22.360 300.326 22.440 300.366 22.520 300.806L24.520 312.726C24.600 313.166 24.560 313.166 23.960 313.286C23.320 313.406 22.520 313.486 21.720 313.486C14.720 313.486 10.200 309.606 10.200 304.046C10.200 301.686 10.600 298.526 13.920 294.766C16.320 292.086 18.160 290.606 20.040 289.086ZM24.640 300.166C27.880 300.446 30.560 303.166 30.560 306.686C30.560 309.206 29.040 311.246 26.800 312.366C26.320 312.606 26.240 312.606 26.160 312.126L24.200 300.726C24.120 300.246 24.160 300.126 24.640 300.166ZM25.800 267.126C27.120 267.126 28.200 268.206 28.200 270.406C28.200 273.166 26.880 275.726 23.760 278.846C23.120 279.486 22.160 280.406 21.240 281.206C20.960 281.446 20.800 281.406 20.720 280.886C20.560 279.846 20.480 278.486 20.480 277.206C20.480 270.966 23.360 267.126 25.800 267.126Z"></path></g><g></g><text font-family='Alegreya' font-style='italic' text-anchor='end' stroke='#7a7a7a' font-size="24" x="0" y="264.8461538461538">8</text></g><g><line stroke="black" stroke-width="1.6" x1="121.1232152880345" x2="121.1232152880345" y1="274.8461538461538" y2="314.8461538461538"></line></g><g><g><path d="M52.860 295.486C56.860 295.486 61.780 291.766 61.780 287.966C61.780 285.686 59.980 284.206 57.380 284.206C52.460 284.206 48.500 287.846 48.500 291.726C48.500 294.086 50.420 295.486 52.860 295.486Z"></path></g><line stroke="#000000" stroke-width="1.2" x1="49.1" x2="49.1" y1="291.6861538461538" y2="329.6861538461538"></line><text font-family="Alegreya" font-size="22" text-anchor="middle" x="55.14" y="354.8461538461538">shake</text></g><g><g><path d="M73.491 295.486C77.491 295.486 82.411 291.766 82.411 287.966C82.411 285.686 80.611 284.206 78.011 284.206C73.091 284.206 69.131 287.846 69.131 291.726C69.131 294.086 71.051 295.486 73.491 295.486Z"></path></g><line stroke="#000000" stroke-width="1.2" x1="69.73055382200862" x2="69.73055382200862" y1="291.6861538461538" y2="329.6861538461538"></line><text font-family="Alegreya" font-size="22" text-anchor="middle" x="75.77055382200862" y="354.8461538461538">wavy</text></g><g><g><path d="M101.008 295.486C105.008 295.486 109.928 291.766 109.928 287.966C109.928 285.686 108.128 284.206 105.528 284.206C100.608 284.206 96.648 287.846 96.648 291.726C96.648 294.086 98.568 295.486 101.008 295.486Z"></path></g><line stroke="#000000" stroke-width="1.2" x1="97.24810764401724" x2="97.24810764401724" y1="291.6861538461538" y2="329.6861538461538"></line><text font-family="Alegreya" font-size="22" text-anchor="middle" x="103.28810764401724" y="354.8461538461538">wavy</text></g><g><g><path d="M122.718 295.486C126.718 295.486 131.638 291.766 131.638 287.966C131.638 285.686 129.838 284.206 127.238 284.206C122.318 284.206 118.358 287.846 118.358 291.726C118.358 294.086 120.278 295.486 122.718 295.486Z"></path></g><line stroke="#000000" stroke-width="1.2" x1="118.95766146602587" x2="118.95766146602587" y1="291.6861538461538" y2="329.6861538461538"></line><text font-family="Alegreya" font-size="22" text-anchor="middle" x="124.99766146602587" y="354.8461538461538">line</text></g></g><g transform="translate(230.76936913418837)"><g></g><g><line stroke="black" stroke-width="1.6" x1="98.46721528803447" x2="98.46721528803447" y1="274.8461538461538" y2="314.8461538461538"></line></g><g><g><path d="M19.110 295.486C23.110 295.486 28.030 291.766 28.030 287.966C28.030 285.686 26.230 284.206 23.630 284.206C18.710 284.206 14.750 287.846 14.750 291.726C14.750 294.086 16.670 295.486 19.110 295.486Z"></path></g><line stroke="#000000" stroke-width="1.2" x1="15.349999999999996" x2="15.349999999999996" y1="291.6861538461538" y2="329.6861538461538"></line><text font-family="Alegreya" font-size="22" text-anchor="middle" x="21.389999999999997" y="354.8461538461538">mord.</text></g><g><g><path d="M57.373 295.486C61.373 295.486 66.293 291.766 66.293 287.966C66.293 285.686 64.493 284.206 61.893 284.206C56.973 284.206 53.013 287.846 53.013 291.726C53.013 294.086 54.933 295.486 57.373 295.486Z"></path></g><line stroke="#000000" stroke-width="1.2" x1="53.612553822008614" x2="53.612553822008614" y1="291.6861538461538" y2="329.6861538461538"></line><text font-family="Alegreya" font-size="22" text-anchor="middle" x="59.65255382200861" y="354.8461538461538">inv.mord.</text></g><g><g><path d="M88.529 295.486C92.529 295.486 97.449 291.766 97.449 287.966C97.449 285.686 95.649 284.206 93.049 284.206C88.129 284.206 84.169 287.846 84.169 291.726C84.169 294.086 86.089 295.486 88.529 295.486Z"></path></g><line stroke="#000000" stroke-width="1.2" x1="84.7691076440172" x2="84.7691076440172" y1="291.6861538461538" y2="329.6861538461538"></line><text font-family="Alegreya" font-size="22" text-anchor="middle" x="90.8091076440172" y="354.8461538461538">schl.</text></g><g><g><path d="M100.062 295.486C104.062 295.486 108.982 291.766 108.982 287.966C108.982 285.686 107.182 284.206 104.582 284.206C99.662 284.206 95.702 287.846 95.702 291.726C95.702 294.086 97.622 295.486 100.062 295.486Z"></path></g><g><line stroke="#000000" stroke-width="1.2" x1="96.30166146602583" x2="96.30166146602583" y1="291.6861538461538" y2="329.6861538461538"></line><path d="M102.302 314.126L102.302 309.126L90.302 311.646L90.302 316.646ZM102.302 316.606L90.302 319.086L90.302 324.086L102.302 321.606ZM102.302 323.966L90.302 326.446L90.302 331.446L102.302 328.966Z"></path></g><text font-family="Alegreya" font-size="22" text-anchor="middle" x="102.34166146602584" y="354.8461538461538">trem.</text></g></g><g transform="translate(345.03658442222286)"><g></g><g><line stroke="#000000" stroke-width="1.6" x1="176.36578519487003" x2="176.36578519487003" y1="274.8461538461538" y2="314.8461538461538"></line><line stroke="#000000" stroke-width="1.6" x1="181.96578519487002" x2="181.96578519487002" y1="274.8461538461538" y2="314.8461538461538"></line></g><g><g><path d="M34.356 295.486C38.356 295.486 43.276 291.766 43.276 287.966C43.276 285.686 41.476 284.206 38.876 284.206C33.956 284.206 29.996 287.846 29.996 291.726C29.996 294.086 31.916 295.486 34.356 295.486Z"></path></g><line stroke="#000000" stroke-width="1.2" x1="30.595999999999997" x2="30.595999999999997" y1="291.6861538461538" y2="329.6861538461538"></line><text font-family="Alegreya" font-size="22" text-anchor="middle" x="36.635999999999996" y="354.8461538461538">turn+acc.</text></g><g><g><path d="M176.019 295.486C180.019 295.486 184.939 291.766 184.939 287.966C184.939 285.686 183.139 284.206 180.539 284.206C175.619 284.206 171.659 287.846 171.659 291.726C171.659 294.086 173.579 295.486 176.019 295.486Z"></path></g><line stroke="#000000" stroke-width="1.2" x1="172.25855382200857" x2="172.25855382200857" y1="291.6861538461538" y2="329.6861538461538"></line><text font-family="Alegreya" font-size="22" text-anchor="middle" x="178.29855382200856" y="354.8461538461538">turn+acc.(ab.+bel./rel to turn)</text></g><g><path d="M184.904 293.886L184.904 290.206C184.904 289.606 184.424 289.166 183.864 289.166L174.664 289.166C174.064 289.166 173.624 289.606 173.624 290.206L173.624 293.886C173.624 294.446 174.064 294.926 174.664 294.926L183.864 294.926C184.424 294.926 184.904 294.446 184.904 293.886Z"></path></g></g><g transform="translate(542.802369617093)"><g></g><g><line stroke="black" stroke-width="1.6" x1="110.08321528803448" x2="110.08321528803448" y1="274.8461538461538" y2="314.8461538461538"></line></g><g><g><path d="M15.271 295.486C19.271 295.486 24.191 291.766 24.191 287.966C24.191 285.686 22.391 284.206 19.791 284.206C14.871 284.206 10.911 287.846 10.911 291.726C10.911 294.086 12.831 295.486 15.271 295.486Z"></path></g><line stroke="#000000" stroke-width="1.2" x1="11.510999999999994" x2="11.510999999999994" y1="291.6861538461538" y2="329.6861538461538"></line><text font-family="Alegreya" font-size="22" text-anchor="middle" x="17.550999999999995" y="354.8461538461538">up-b.</text></g><g><g><path d="M42.622 295.486C46.622 295.486 51.542 291.766 51.542 287.966C51.542 285.686 49.742 284.206 47.142 284.206C42.222 284.206 38.262 287.846 38.262 291.726C38.262 294.086 40.182 295.486 42.622 295.486Z"></path></g><line stroke="#000000" stroke-width="1.2" x1="38.861553822008624" x2="38.861553822008624" y1="291.6861538461538" y2="329.6861538461538"></line><text font-family="Alegreya" font-size="22" text-anchor="middle" x="44.90155382200862" y="354.8461538461538">down-b.</text></g><g><g><path d="M73.426 295.486C77.426 295.486 82.346 291.766 82.346 287.966C82.346 285.686 80.546 284.206 77.946 284.206C73.026 284.206 69.066 287.846 69.066 291.726C69.066 294.086 70.986 295.486 73.426 295.486Z"></path></g><line stroke="#000000" stroke-width="1.2" x1="69.66610764401723" x2="69.66610764401723" y1="291.6861538461538" y2="329.6861538461538"></line><text font-family="Alegreya" font-size="22" text-anchor="middle" x="75.70610764401724" y="354.8461538461538">harm.</text></g><g><g><path d="M111.678 295.486C115.678 295.486 120.598 291.766 120.598 287.966C120.598 285.686 118.798 284.206 116.198 284.206C111.278 284.206 107.318 287.846 107.318 291.726C107.318 294.086 109.238 295.486 111.678 295.486Z"></path></g><line stroke="#000000" stroke-width="1.2" x1="107.91766146602585" x2="107.91766146602585" y1="291.6861538461538" y2="329.6861538461538"></line><text font-family="Alegreya" font-size="22" text-anchor="middle" x="113.95766146602585" y="354.8461538461538">nat.harm.</text></g></g><g transform="translate(668.6855849051274)"><g></g><g><line stroke="black" stroke-width="1.6" x1="274.15921528803443" x2="274.15921528803443" y1="274.8461538461538" y2="314.8461538461538"></line></g><g><g><path d="M34.312 295.486C38.312 295.486 43.232 291.766 43.232 287.966C43.232 285.686 41.432 284.206 38.832 284.206C33.912 284.206 29.952 287.846 29.952 291.726C29.952 294.086 31.872 295.486 34.312 295.486Z"></path></g><line stroke="#000000" stroke-width="1.2" x1="30.551999999999985" x2="30.551999999999985" y1="291.6861538461538" y2="329.6861538461538"></line><text font-family="Alegreya" font-size="22" text-anchor="middle" x="36.591999999999985" y="354.8461538461538">art.harm.</text></g><g><g><path d="M91.033 295.486C95.033 295.486 99.953 291.766 99.953 287.966C99.953 285.686 98.153 284.206 95.553 284.206C90.633 284.206 86.673 287.846 86.673 291.726C86.673 294.086 88.593 295.486 91.033 295.486Z"></path></g><line stroke="#000000" stroke-width="1.2" x1="87.27255382200858" x2="87.27255382200858" y1="291.6861538461538" y2="329.6861538461538"></line><text font-family="Alegreya" font-size="22" text-anchor="middle" x="93.31255382200858" y="354.8461538461538">nat.h./base</text></g><g><g><path d="M172.349 295.486C176.349 295.486 181.269 291.766 181.269 287.966C181.269 285.686 179.469 284.206 176.869 284.206C171.949 284.206 167.989 287.846 167.989 291.726C167.989 294.086 169.909 295.486 172.349 295.486Z"></path></g><line stroke="#000000" stroke-width="1.2" x1="168.5891076440172" x2="168.5891076440172" y1="291.6861538461538" y2="329.6861538461538"></line><text font-family="Alegreya" font-size="22" text-anchor="middle" x="174.6291076440172" y="354.8461538461538">nat.h./touching</text></g><g><g><path d="M275.754 295.486C279.754 295.486 284.674 291.766 284.674 287.966C284.674 285.686 282.874 284.206 280.274 284.206C275.354 284.206 271.394 287.846 271.394 291.726C271.394 294.086 273.314 295.486 275.754 295.486Z"></path></g><line stroke="#000000" stroke-width="1.2" x1="271.9936614660258" x2="271.9936614660258" y1="291.6861538461538" y2="329.6861538461538"></line><text font-family="Alegreya" font-size="22" text-anchor="middle" x="278.03366146602576" y="354.8461538461538">nat.h./sounding</text></g></g><g transform="translate(958.6448001931617)"><g></g><g><line stroke="black" stroke-width="1.6" x1="203.33021528803454" x2="203.33021528803454" y1="274.8461538461538" y2="314.8461538461538"></line></g><g><g><path d="M32.585 295.486C36.585 295.486 41.505 291.766 41.505 287.966C41.505 285.686 39.705 284.206 37.105 284.206C32.185 284.206 28.225 287.846 28.225 291.726C28.225 294.086 30.145 295.486 32.585 295.486Z"></path></g><line stroke="#000000" stroke-width="1.2" x1="28.825000000000003" x2="28.825000000000003" y1="291.6861538461538" y2="329.6861538461538"></line><text font-family="Alegreya" font-size="22" text-anchor="middle" x="34.865" y="354.8461538461538">open-str.</text></g><g><g><path d="M92.243 295.486C96.243 295.486 101.163 291.766 101.163 287.966C101.163 285.686 99.363 284.206 96.763 284.206C91.843 284.206 87.883 287.846 87.883 291.726C87.883 294.086 89.803 295.486 92.243 295.486Z"></path></g><line stroke="#000000" stroke-width="1.2" x1="88.48255382200863" x2="88.48255382200863" y1="291.6861538461538" y2="329.6861538461538"></line><text font-family="Alegreya" font-size="22" text-anchor="middle" x="94.52255382200863" y="354.8461538461538">thumb-pos.</text></g><g><g><path d="M162.779 295.486C166.779 295.486 171.699 291.766 171.699 287.966C171.699 285.686 169.899 284.206 167.299 284.206C162.379 284.206 158.419 287.846 158.419 291.726C158.419 294.086 160.339 295.486 162.779 295.486Z"></path></g><line stroke="#000000" stroke-width="1.2" x1="159.01910764401723" x2="159.01910764401723" y1="291.6861538461538" y2="329.6861538461538"></line><text font-family="Alegreya" font-size="22" text-anchor="middle" x="165.05910764401722" y="354.8461538461538">empty fing.</text></g><g><g><path d="M204.925 295.486C208.925 295.486 213.845 291.766 213.845 287.966C213.845 285.686 212.045 284.206 209.445 284.206C204.525 284.206 200.565 287.846 200.565 291.726C200.565 294.086 202.485 295.486 204.925 295.486Z"></path></g><line stroke="#000000" stroke-width="1.2" x1="201.16466146602588" x2="201.16466146602588" y1="291.6861538461538" y2="329.6861538461538"></line><text font-family="Alegreya" font-size="22" text-anchor="middle" x="207.20466146602587" y="354.8461538461538">fing.1</text></g></g><g transform="translate(1177.7750154811963)"><g></g><g><line stroke="black" stroke-width="1.6" x1="56.1942152880345" x2="56.1942152880345" y1="274.8461538461538" y2="314.8461538461538"></line></g><g><g><path d="M15.436 295.486C19.436 295.486 24.356 291.766 24.356 287.966C24.356 285.686 22.556 284.206 19.956 284.206C15.036 284.206 11.076 287.846 11.076 291.726C11.076 294.086 12.996 295.486 15.436 295.486Z"></path></g><line stroke="#000000" stroke-width="1.2" x1="11.675999999999997" x2="11.675999999999997" y1="291.6861538461538" y2="329.6861538461538"></line><text font-family="Alegreya" font-size="22" text-anchor="middle" x="17.715999999999998" y="354.8461538461538">fing.2</text></g><g><g><path d="M29.554 295.486C33.554 295.486 38.474 291.766 38.474 287.966C38.474 285.686 36.674 284.206 34.074 284.206C29.154 284.206 25.194 287.846 25.194 291.726C25.194 294.086 27.114 295.486 29.554 295.486Z"></path></g><line stroke="#000000" stroke-width="1.2" x1="25.793553822008626" x2="25.793553822008626" y1="291.6861538461538" y2="329.6861538461538"></line><text font-family="Alegreya" font-size="22" text-anchor="middle" x="31.833553822008625" y="354.8461538461538">fing.3</text></g><g><g><path d="M43.671 295.486C47.671 295.486 52.591 291.766 52.591 287.966C52.591 285.686 50.791 284.206 48.191 284.206C43.271 284.206 39.311 287.846 39.311 291.726C39.311 294.086 41.231 295.486 43.671 295.486Z"></path></g><line stroke="#000000" stroke-width="1.2" x1="39.91110764401724" x2="39.91110764401724" y1="291.6861538461538" y2="329.6861538461538"></line><text font-family="Alegreya" font-size="22" text-anchor="middle" x="45.95110764401724" y="354.8461538461538">fing.4</text></g><g><g><path d="M57.789 295.486C61.789 295.486 66.709 291.766 66.709 287.966C66.709 285.686 64.909 284.206 62.309 284.206C57.389 284.206 53.429 287.846 53.429 291.726C53.429 294.086 55.349 295.486 57.789 295.486Z"></path></g><line stroke="#000000" stroke-width="1.2" x1="54.02866146602587" x2="54.02866146602587" y1="291.6861538461538" y2="329.6861538461538"></line><text font-family="Alegreya" font-size="22" text-anchor="middle" x="60.06866146602587" y="354.8461538461538">fing.5</text></g></g><g transform="translate(93.84615384615385)"><g><g><line stroke="#6A6A6A" stroke-width="1.3" x1="0" x2="1140.9230769230771" y1="445.8461538461538" y2="445.8461538461538"></line><line stroke="#6A6A6A" stroke-width="1.3" x1="0" x2="1140.9230769230771" y1="435.8461538461538" y2="435.8461538461538"></line><line stroke="#6A6A6A" stroke-width="1.3" x1="0" x2="1140.9230769230771" y1="425.8461538461538" y2="425.8461538461538"></line><line stroke="#6A6A6A" stroke-width="1.3" x1="0" x2="1140.9230769230771" y1="415.8461538461538" y2="415.8461538461538"></line><line stroke="#6A6A6A" stroke-width="1.3" x1="0" x2="1140.9230769230771" y1="405.8461538461538" y2="405.8461538461538"></line></g><g><path d="M25.200 391.926C24.640 391.926 23.400 392.966 22.600 393.846C19.640 397.126 18.680 402.126 18.680 406.286C18.680 408.606 18.960 411.206 19.240 412.846C19.320 413.326 19.360 413.406 18.880 413.806C16.320 415.926 13.560 418.366 11.480 420.926C8.720 424.366 7 428.086 7 432.366C7 439.326 11.760 445.926 21.560 445.926C22.480 445.926 23.520 445.846 24.320 445.686C24.760 445.606 24.840 445.566 24.920 446.046C25.400 448.726 26 452.206 26 454.086C26 460.006 22 460.726 19.640 460.726C17.480 460.726 16.440 460.086 16.440 459.566C16.440 459.126 16.800 459.166 17.720 458.886C18.960 458.526 20.400 457.446 20.400 455.126C20.400 452.926 19 451.046 16.560 451.046C13.880 451.046 12.280 453.166 12.280 455.646C12.280 458.246 13.840 462.166 19.880 462.166C22.560 462.166 27.760 460.966 27.760 454.166C27.760 451.886 27.040 448.086 26.600 445.606C26.520 445.126 26.560 445.166 27.120 444.926C31.160 443.326 33.840 439.926 33.840 435.406C33.840 430.286 30.080 425.766 24.200 425.766C23.080 425.766 23.200 425.966 23.040 425.046L22.040 419.246C21.960 418.766 22.040 418.726 22.280 418.486C22.920 417.886 23.760 417.046 24.520 416.206C27.880 412.526 29.880 407.766 29.880 403.246C29.880 399.766 28.920 396.326 27.280 393.926C26.680 393.046 25.640 391.926 25.200 391.926ZM20.040 420.086C20.440 419.766 20.520 419.806 20.600 420.246L21.440 425.366C21.560 426.126 21.560 426.086 20.840 426.326C17.320 427.526 15.040 430.686 15.040 434.086C15.040 437.686 16.920 440.246 19.640 441.166C19.960 441.286 20.440 441.406 20.720 441.406C21.040 441.406 21.200 441.206 21.200 440.966C21.200 440.686 20.880 440.566 20.600 440.446C18.920 439.726 17.720 438.006 17.720 436.166C17.720 433.886 19.280 432.166 21.720 431.486C22.360 431.326 22.440 431.366 22.520 431.806L24.520 443.726C24.600 444.166 24.560 444.166 23.960 444.286C23.320 444.406 22.520 444.486 21.720 444.486C14.720 444.486 10.200 440.606 10.200 435.046C10.200 432.686 10.600 429.526 13.920 425.766C16.320 423.086 18.160 421.606 20.040 420.086ZM24.640 431.166C27.880 431.446 30.560 434.166 30.560 437.686C30.560 440.206 29.040 442.246 26.800 443.366C26.320 443.606 26.240 443.606 26.160 443.126L24.200 431.726C24.120 431.246 24.160 431.126 24.640 431.166ZM25.800 398.126C27.120 398.126 28.200 399.206 28.200 401.406C28.200 404.166 26.880 406.726 23.760 409.846C23.120 410.486 22.160 411.406 21.240 412.206C20.960 412.446 20.800 412.406 20.720 411.886C20.560 410.846 20.480 409.486 20.480 408.206C20.480 401.966 23.360 398.126 25.800 398.126Z"></path></g><g></g><text font-family='Alegreya' font-style='italic' text-anchor='end' stroke='#7a7a7a' font-size="24" x="0" y="395.8461538461538">15</text></g><g><line stroke="black" stroke-width="1.6" x1="248.5781615612284" x2="248.5781615612284" y1="405.8461538461538" y2="445.8461538461538"></line></g><g><g><path d="M52.860 426.486C56.860 426.486 61.780 422.766 61.780 418.966C61.780 416.686 59.980 415.206 57.380 415.206C52.460 415.206 48.500 418.846 48.500 422.726C48.500 425.086 50.420 426.486 52.860 426.486Z"></path></g><line stroke="#000000" stroke-width="1.2" x1="49.1" x2="49.1" y1="422.6861538461538" y2="460.6861538461538"></line><text font-family="Alegreya" font-size="22" text-anchor="middle" x="55.14" y="485.8461538461538">fing.sth.</text></g><g><g><path d="M111.102 426.486C115.102 426.486 120.022 422.766 120.022 418.966C120.022 416.686 118.222 415.206 115.622 415.206C110.702 415.206 106.742 418.846 106.742 422.726C106.742 425.086 108.662 426.486 111.102 426.486Z"></path></g><line stroke="#000000" stroke-width="1.2" x1="107.34204039030708" x2="107.34204039030708" y1="422.6861538461538" y2="460.6861538461538"></line><text font-family="Alegreya" font-size="22" text-anchor="middle" x="113.38204039030708" y="485.8461538461538">mult.fing.</text></g><g><g><path d="M184.095 426.486C188.095 426.486 193.015 422.766 193.015 418.966C193.015 416.686 191.215 415.206 188.615 415.206C183.695 415.206 179.735 418.846 179.735 422.726C179.735 425.086 181.655 426.486 184.095 426.486Z"></path></g><line stroke="#000000" stroke-width="1.2" x1="180.33508078061416" x2="180.33508078061416" y1="422.6861538461538" y2="460.6861538461538"></line><text font-family="Alegreya" font-size="22" text-anchor="middle" x="186.37508078061416" y="485.8461538461538">empty pluck</text></g><g><g><path d="M241.391 426.486C245.391 426.486 250.311 422.766 250.311 418.966C250.311 416.686 248.511 415.206 245.911 415.206C240.991 415.206 237.031 418.846 237.031 422.726C237.031 425.086 238.951 426.486 241.391 426.486Z"></path></g><line stroke="#000000" stroke-width="1.2" x1="237.63112117092126" x2="237.63112117092126" y1="422.6861538461538" y2="460.6861538461538"></line><text font-family="Alegreya" font-size="22" text-anchor="middle" x="243.67112117092125" y="485.8461538461538">pluck a</text></g></g><g transform="translate(358.2243154073822)"><g></g><g><line stroke="black" stroke-width="1.6" x1="174.92016156122838" x2="174.92016156122838" y1="405.8461538461538" y2="445.8461538461538"></line></g><g><g><path d="M26.513 426.486C30.513 426.486 35.433 422.766 35.433 418.966C35.433 416.686 33.633 415.206 31.033 415.206C26.113 415.206 22.153 418.846 22.153 422.726C22.153 425.086 24.073 426.486 26.513 426.486Z"></path></g><line stroke="#000000" stroke-width="1.2" x1="22.752999999999993" x2="22.752999999999993" y1="422.6861538461538" y2="460.6861538461538"></line><text font-family="Alegreya" font-size="22" text-anchor="middle" x="28.792999999999992" y="485.8461538461538">dbl.tng.</text></g><g><g><path d="M73.722 426.486C77.722 426.486 82.642 422.766 82.642 418.966C82.642 416.686 80.842 415.206 78.242 415.206C73.322 415.206 69.362 418.846 69.362 422.726C69.362 425.086 71.282 426.486 73.722 426.486Z"></path></g><line stroke="#000000" stroke-width="1.2" x1="69.96204039030708" x2="69.96204039030708" y1="422.6861538461538" y2="460.6861538461538"></line><text font-family="Alegreya" font-size="22" text-anchor="middle" x="76.00204039030709" y="485.8461538461538">trpl.tng.</text></g><g><g><path d="M118.852 426.486C122.852 426.486 127.772 422.766 127.772 418.966C127.772 416.686 125.972 415.206 123.372 415.206C118.452 415.206 114.492 418.846 114.492 422.726C114.492 425.086 116.412 426.486 118.852 426.486Z"></path></g><line stroke="#000000" stroke-width="1.2" x1="115.0920807806142" x2="115.0920807806142" y1="422.6861538461538" y2="460.6861538461538"></line><text font-family="Alegreya" font-size="22" text-anchor="middle" x="121.1320807806142" y="485.8461538461538">stopped</text></g><g><g><path d="M167.733 426.486C171.733 426.486 176.653 422.766 176.653 418.966C176.653 416.686 174.853 415.206 172.253 415.206C167.333 415.206 163.373 418.846 163.373 422.726C163.373 425.086 165.293 426.486 167.733 426.486Z"></path></g><line stroke="#000000" stroke-width="1.2" x1="163.97312117092127" x2="163.97312117092127" y1="422.6861538461538" y2="460.6861538461538"></line><text font-family="Alegreya" font-size="22" text-anchor="middle" x="170.0131211709213" y="485.8461538461538">snp.pizz.</text></g></g><g transform="translate(548.9444769686106)"><g></g><g><line stroke="black" stroke-width="1.6" x1="166.35116156122842" x2="166.35116156122842" y1="405.8461538461538" y2="445.8461538461538"></line></g><g><g><path d="M37.777 426.486C41.777 426.486 46.697 422.766 46.697 418.966C46.697 416.686 44.897 415.206 42.297 415.206C37.377 415.206 33.417 418.846 33.417 422.726C33.417 425.086 35.337 426.486 37.777 426.486Z"></path></g><line stroke="#000000" stroke-width="1.2" x1="34.016999999999996" x2="34.016999999999996" y1="422.6861538461538" y2="460.6861538461538"></line><text font-family="Alegreya" font-size="22" text-anchor="middle" x="40.056999999999995" y="485.8461538461538">empty fret</text></g><g><g><path d="M78.342 426.486C82.342 426.486 87.262 422.766 87.262 418.966C87.262 416.686 85.462 415.206 82.862 415.206C77.942 415.206 73.982 418.846 73.982 422.726C73.982 425.086 75.902 426.486 78.342 426.486Z"></path></g><line stroke="#000000" stroke-width="1.2" x1="74.58204039030709" x2="74.58204039030709" y1="422.6861538461538" y2="460.6861538461538"></line><text font-family="Alegreya" font-size="22" text-anchor="middle" x="80.62204039030709" y="485.8461538461538">fret0</text></g><g><g><path d="M118.401 426.486C122.401 426.486 127.321 422.766 127.321 418.966C127.321 416.686 125.521 415.206 122.921 415.206C118.001 415.206 114.041 418.846 114.041 422.726C114.041 425.086 115.961 426.486 118.401 426.486Z"></path></g><line stroke="#000000" stroke-width="1.2" x1="114.64108078061417" x2="114.64108078061417" y1="422.6861538461538" y2="460.6861538461538"></line><text font-family="Alegreya" font-size="22" text-anchor="middle" x="120.68108078061418" y="485.8461538461538">empty str.</text></g><g><g><path d="M159.164 426.486C163.164 426.486 168.084 422.766 168.084 418.966C168.084 416.686 166.284 415.206 163.684 415.206C158.764 415.206 154.804 418.846 154.804 422.726C154.804 425.086 156.724 426.486 159.164 426.486Z"></path></g><line stroke="#000000" stroke-width="1.2" x1="155.40412117092126" x2="155.40412117092126" y1="422.6861538461538" y2="460.6861538461538"></line><text font-family="Alegreya" font-size="22" text-anchor="middle" x="161.44412117092128" y="485.8461538461538">str. 5</text></g></g><g transform="translate(731.095638529839)"><g></g><g><line stroke="black" stroke-width="1.6" x1="131.20216156122842" x2="131.20216156122842" y1="405.8461538461538" y2="445.8461538461538"></line></g><g><g><path d="M38.592 426.486C42.592 426.486 47.512 422.766 47.512 418.966C47.512 416.686 45.712 415.206 43.112 415.206C38.192 415.206 34.232 418.846 34.232 422.726C34.232 425.086 36.152 426.486 38.592 426.486Z"></path></g><line stroke="#000000" stroke-width="1.2" x1="34.831999999999994" x2="34.831999999999994" y1="422.6861538461538" y2="460.6861538461538"></line><text font-family="Alegreya" font-size="22" text-anchor="middle" x="40.87199999999999" y="485.8461538461538">hammer</text></g><g><g><path d="M79.049 426.486C83.049 426.486 87.969 422.766 87.969 418.966C87.969 416.686 86.169 415.206 83.569 415.206C78.649 415.206 74.689 418.846 74.689 422.726C74.689 425.086 76.609 426.486 79.049 426.486Z"></path></g><line stroke="#000000" stroke-width="1.2" x1="75.28904039030708" x2="75.28904039030708" y1="422.6861538461538" y2="460.6861538461538"></line><text font-family="Alegreya" font-size="22" text-anchor="middle" x="81.32904039030709" y="485.8461538461538">on</text></g><g><g><path d="M99.717 426.486C103.717 426.486 108.637 422.766 108.637 418.966C108.637 416.686 106.837 415.206 104.237 415.206C99.317 415.206 95.357 418.846 95.357 422.726C95.357 425.086 97.277 426.486 99.717 426.486Z"></path></g><line stroke="#000000" stroke-width="1.2" x1="95.95708078061418" x2="95.95708078061418" y1="422.6861538461538" y2="460.6861538461538"></line><text font-family="Alegreya" font-size="22" text-anchor="middle" x="101.99708078061418" y="485.8461538461538">pull</text></g><g><g><path d="M124.015 426.486C128.015 426.486 132.935 422.766 132.935 418.966C132.935 416.686 131.135 415.206 128.535 415.206C123.615 415.206 119.655 418.846 119.655 422.726C119.655 425.086 121.575 426.486 124.015 426.486Z"></path></g><line stroke="#000000" stroke-width="1.2" x1="120.25512117092129" x2="120.25512117092129" y1="422.6861538461538" y2="460.6861538461538"></line><text font-family="Alegreya" font-size="22" text-anchor="middle" x="126.29512117092129" y="485.8461538461538">off</text></g></g><g transform="translate(878.0978000910675)"><g></g><g><line stroke="black" stroke-width="1.6" x1="209.4821615612284" x2="209.4821615612284" y1="405.8461538461538" y2="445.8461538461538"></line></g><g><g><path d="M11.058 426.486C15.058 426.486 19.978 422.766 19.978 418.966C19.978 416.686 18.178 415.206 15.578 415.206C10.658 415.206 6.698 418.846 6.698 422.726C6.698 425.086 8.618 426.486 11.058 426.486Z"></path></g><line stroke="#000000" stroke-width="1.2" x1="7.2979999999999965" x2="7.2979999999999965" y1="422.6861538461538" y2="460.6861538461538"></line><text font-family="Alegreya" font-size="22" text-anchor="middle" x="13.337999999999997" y="485.8461538461538">bend</text></g><g><g><path d="M58.135 426.486C62.135 426.486 67.055 422.766 67.055 418.966C67.055 416.686 65.255 415.206 62.655 415.206C57.735 415.206 53.775 418.846 53.775 422.726C53.775 425.086 55.695 426.486 58.135 426.486Z"></path></g><line stroke="#000000" stroke-width="1.2" x1="54.3750403903071" x2="54.3750403903071" y1="422.6861538461538" y2="460.6861538461538"></line><text font-family="Alegreya" font-size="22" text-anchor="middle" x="60.4150403903071" y="485.8461538461538">b.3 with-bar</text></g><g><g><path d="M129.500 426.486C133.500 426.486 138.420 422.766 138.420 418.966C138.420 416.686 136.620 415.206 134.020 415.206C129.100 415.206 125.140 418.846 125.140 422.726C125.140 425.086 127.060 426.486 129.500 426.486Z"></path></g><line stroke="#000000" stroke-width="1.2" x1="125.74008078061416" x2="125.74008078061416" y1="422.6861538461538" y2="460.6861538461538"></line><text font-family="Alegreya" font-size="22" text-anchor="middle" x="131.78008078061418" y="485.8461538461538">pre-b. -0.5</text></g><g><g><path d="M202.295 426.486C206.295 426.486 211.215 422.766 211.215 418.966C211.215 416.686 209.415 415.206 206.815 415.206C201.895 415.206 197.935 418.846 197.935 422.726C197.935 425.086 199.855 426.486 202.295 426.486Z"></path></g><line stroke="#000000" stroke-width="1.2" x1="198.53512117092123" x2="198.53512117092123" y1="422.6861538461538" y2="460.6861538461538"></line><text font-family="Alegreya" font-size="22" text-anchor="middle" x="204.57512117092125" y="485.8461538461538">b. release 3.5</text></g></g><g transform="translate(1103.3799616522956)"><g></g><g><line stroke="black" stroke-width="1.6" x1="46.3041615612284" x2="46.3041615612284" y1="405.8461538461538" y2="445.8461538461538"></line></g><g><g><path d="M4.360 426.486C8.360 426.486 13.280 422.766 13.280 418.966C13.280 416.686 11.480 415.206 8.880 415.206C3.960 415.206 0 418.846 0 422.726C0 425.086 1.920 426.486 4.360 426.486Z"></path></g><line stroke="#000000" stroke-width="1.2" x1="0.6" x2="0.6" y1="422.6861538461538" y2="460.6861538461538"></line><text font-family="Alegreya" font-size="22" text-anchor="middle" x="6.640000000000001" y="485.8461538461538">tap</text></g><g><g><path d="M15.107 426.486C19.107 426.486 24.027 422.766 24.027 418.966C24.027 416.686 22.227 415.206 19.627 415.206C14.707 415.206 10.747 418.846 10.747 422.726C10.747 425.086 12.667 426.486 15.107 426.486Z"></path></g><line stroke="#000000" stroke-width="1.2" x1="11.347040390307102" x2="11.347040390307102" y1="422.6861538461538" y2="460.6861538461538"></line><text font-family="Alegreya" font-size="22" text-anchor="middle" x="17.387040390307103" y="485.8461538461538">tap T</text></g><g><g><path d="M28.370 426.486C32.370 426.486 37.290 422.766 37.290 418.966C37.290 416.686 35.490 415.206 32.890 415.206C27.970 415.206 24.010 418.846 24.010 422.726C24.010 425.086 25.930 426.486 28.370 426.486Z"></path></g><line stroke="#000000" stroke-width="1.2" x1="24.610080780614197" x2="24.610080780614197" y1="422.6861538461538" y2="460.6861538461538"></line><text font-family="Alegreya" font-size="22" text-anchor="middle" x="30.650080780614196" y="485.8461538461538">heel</text></g><g><g><path d="M39.117 426.486C43.117 426.486 48.037 422.766 48.037 418.966C48.037 416.686 46.237 415.206 43.637 415.206C38.717 415.206 34.757 418.846 34.757 422.726C34.757 425.086 36.677 426.486 39.117 426.486Z"></path></g><line stroke="#000000" stroke-width="1.2" x1="35.357121170921296" x2="35.357121170921296" y1="422.6861538461538" y2="460.6861538461538"></line><text font-family="Alegreya" font-size="22" text-anchor="middle" x="41.397121170921295" y="485.8461538461538">toe</text></g></g><g transform="translate(1165.484123213524)"><g></g><g><line stroke="#000000" stroke-width="1.6" x1="62.885107555706625" x2="62.885107555706625" y1="405.8461538461538" y2="445.8461538461538"></line><line stroke="#000000" stroke-width="1.6" x1="68.48510755570662" x2="68.48510755570662" y1="405.8461538461538" y2="445.8461538461538"></line></g><g><g><path d="M28.141 426.486C32.141 426.486 37.061 422.766 37.061 418.966C37.061 416.686 35.261 415.206 32.661 415.206C27.741 415.206 23.781 418.846 23.781 422.726C23.781 425.086 25.701 426.486 28.141 426.486Z"></path></g><line stroke="#000000" stroke-width="1.2" x1="24.380999999999993" x2="24.380999999999993" y1="422.6861538461538" y2="460.6861538461538"></line><text font-family="Alegreya" font-size="22" text-anchor="middle" x="30.420999999999992" y="485.8461538461538">fingern.</text></g><g><path d="M43.848 432.286C42.328 430.446 41.088 428.966 41.088 426.726C41.088 426.566 41.128 426.366 41.128 426.206C41.288 423.886 42.728 421.966 43.768 420.326C43.888 420.126 43.928 419.926 43.928 419.726C43.928 419.326 43.768 418.966 43.768 418.966C43.768 418.966 37.848 411.926 37.168 411.246C36.968 411.046 36.688 410.926 36.448 410.926C36.048 410.926 35.648 411.206 35.648 411.766C35.648 411.966 35.688 412.166 35.808 412.406C35.968 412.846 38.248 414.886 38.248 417.766C38.248 419.246 37.648 420.966 35.848 422.846C35.448 423.246 35.288 423.686 35.288 424.006C35.288 424.566 35.688 424.966 35.688 424.966L37.648 427.366C38.288 428.166 38.848 428.926 39.368 429.766C39.448 429.926 39.608 430.126 39.608 430.326C39.608 430.366 39.608 430.446 39.568 430.486C39.488 430.646 39.328 430.686 39.128 430.686C38.888 430.686 38.648 430.606 38.488 430.566C38.288 430.566 38.048 430.446 37.848 430.446C36.128 430.446 34.568 432.166 34.568 434.286C34.568 436.286 36.288 438.246 39.208 440.486C39.528 440.726 39.928 440.846 40.248 440.846C40.528 440.846 40.808 440.766 40.848 440.606C40.888 440.486 40.928 440.406 40.928 440.326C40.928 439.966 40.608 439.646 40.288 439.366C39.768 439.366 39.328 438.286 39.248 437.926C39.128 437.606 39.088 437.246 39.088 436.886C39.088 435.646 39.688 434.246 40.968 434.006C41.168 433.966 41.368 433.966 41.608 433.966C42.768 433.966 44.088 434.406 44.728 434.646C44.768 434.646 44.808 434.686 44.848 434.686C44.968 434.726 45.048 434.726 45.128 434.726C45.248 434.726 45.328 434.686 45.328 434.566C45.328 434.086 44.288 432.766 43.848 432.286Z"></path></g><g><path d="M56.555 424.886L56.555 421.206C56.555 420.606 56.075 420.166 55.515 420.166L46.315 420.166C45.715 420.166 45.275 420.606 45.275 421.206L45.275 424.886C45.275 425.446 45.715 425.926 46.315 425.926L55.515 425.926C56.075 425.926 56.555 425.446 56.555 424.886Z"></path></g></g><g transform="translate(93.84615384615385)"><g><g><line stroke="#6A6A6A" stroke-width="1.3" x1="0" x2="666.8832878030976" y1="576.8461538461538" y2="576.8461538461538"></line><line stroke="#6A6A6A" stroke-width="1.3" x1="0" x2="666.8832878030976" y1="566.8461538461538" y2="566.8461538461538"></line><line stroke="#6A6A6A" stroke-width="1.3" x1="0" x2="666.8832878030976" y1="556.8461538461538" y2="556.8461538461538"></line><line stroke="#6A6A6A" stroke-width="1.3" x1="0" x2="666.8832878030976" y1="546.8461538461538" y2="546.8461538461538"></line><line stroke="#6A6A6A" stroke-width="1.3" x1="0" x2="666.8832878030976" y1="536.8461538461538" y2="536.8461538461538"></line></g><g><path d="M25.200 522.926C24.640 522.926 23.400 523.966 22.600 524.846C19.640 528.126 18.680 533.126 18.680 537.286C18.680 539.606 18.960 542.206 19.240 543.846C19.320 544.326 19.360 544.406 18.880 544.806C16.320 546.926 13.560 549.366 11.480 551.926C8.720 555.366 7 559.086 7 563.366C7 570.326 11.760 576.926 21.560 576.926C22.480 576.926 23.520 576.846 24.320 576.686C24.760 576.606 24.840 576.566 24.920 577.046C25.400 579.726 26 583.206 26 585.086C26 591.006 22 591.726 19.640 591.726C17.480 591.726 16.440 591.086 16.440 590.566C16.440 590.126 16.800 590.166 17.720 589.886C18.960 589.526 20.400 588.446 20.400 586.126C20.400 583.926 19 582.046 16.560 582.046C13.880 582.046 12.280 584.166 12.280 586.646C12.280 589.246 13.840 593.166 19.880 593.166C22.560 593.166 27.760 591.966 27.760 585.166C27.760 582.886 27.040 579.086 26.600 576.606C26.520 576.126 26.560 576.166 27.120 575.926C31.160 574.326 33.840 570.926 33.840 566.406C33.840 561.286 30.080 556.766 24.200 556.766C23.080 556.766 23.200 556.966 23.040 556.046L22.040 550.246C21.960 549.766 22.040 549.726 22.280 549.486C22.920 548.886 23.760 548.046 24.520 547.206C27.880 543.526 29.880 538.766 29.880 534.246C29.880 530.766 28.920 527.326 27.280 524.926C26.680 524.046 25.640 522.926 25.200 522.926ZM20.040 551.086C20.440 550.766 20.520 550.806 20.600 551.246L21.440 556.366C21.560 557.126 21.560 557.086 20.840 557.326C17.320 558.526 15.040 561.686 15.040 565.086C15.040 568.686 16.920 571.246 19.640 572.166C19.960 572.286 20.440 572.406 20.720 572.406C21.040 572.406 21.200 572.206 21.200 571.966C21.200 571.686 20.880 571.566 20.600 571.446C18.920 570.726 17.720 569.006 17.720 567.166C17.720 564.886 19.280 563.166 21.720 562.486C22.360 562.326 22.440 562.366 22.520 562.806L24.520 574.726C24.600 575.166 24.560 575.166 23.960 575.286C23.320 575.406 22.520 575.486 21.720 575.486C14.720 575.486 10.200 571.606 10.200 566.046C10.200 563.686 10.600 560.526 13.920 556.766C16.320 554.086 18.160 552.606 20.040 551.086ZM24.640 562.166C27.880 562.446 30.560 565.166 30.560 568.686C30.560 571.206 29.040 573.246 26.800 574.366C26.320 574.606 26.240 574.606 26.160 574.126L24.200 562.726C24.120 562.246 24.160 562.126 24.640 562.166ZM25.800 529.126C27.120 529.126 28.200 530.206 28.200 532.406C28.200 535.166 26.880 537.726 23.760 540.846C23.120 541.486 22.160 542.406 21.240 543.206C20.960 543.446 20.800 543.406 20.720 542.886C20.560 541.846 20.480 540.486 20.480 539.206C20.480 532.966 23.360 529.126 25.800 529.126Z"></path></g><g></g><text font-family='Alegreya' font-style='italic' text-anchor='end' stroke='#7a7a7a' font-size="24" x="0" y="526.8461538461538">22</text></g><g><line stroke="black" stroke-width="1.6" x1="313.88388086949016" x2="313.88388086949016" y1="536.8461538461538" y2="576.8461538461538"></line></g><g><g><path d="M52.860 557.486C56.860 557.486 61.780 553.766 61.780 549.966C61.780 547.686 59.980 546.206 57.380 546.206C52.460 546.206 48.500 549.846 48.500 553.726C48.500 556.086 50.420 557.486 52.860 557.486Z"></path></g><line stroke="#000000" stroke-width="1.2" x1="49.1" x2="49.1" y1="553.6861538461538" y2="591.6861538461538"></line><text font-family="Alegreya" font-size="22" text-anchor="middle" x="55.14" y="616.8461538461538">f</text></g><g><g><path d="M115.311 557.486C119.311 557.486 124.231 553.766 124.231 549.966C124.231 547.686 122.431 546.206 119.831 546.206C114.911 546.206 110.951 549.846 110.951 553.726C110.951 556.086 112.871 557.486 115.311 557.486Z"></path></g><line stroke="#000000" stroke-width="1.2" x1="111.55072021737254" x2="111.55072021737254" y1="553.6861538461538" y2="591.6861538461538"></line><text font-family="Alegreya" font-size="22" text-anchor="middle" x="117.59072021737255" y="616.8461538461538">ppp</text></g><g><g><path d="M177.761 557.486C181.761 557.486 186.681 553.766 186.681 549.966C186.681 547.686 184.881 546.206 182.281 546.206C177.361 546.206 173.401 549.846 173.401 553.726C173.401 556.086 175.321 557.486 177.761 557.486Z"></path></g><line stroke="#000000" stroke-width="1.2" x1="174.0014404347451" x2="174.0014404347451" y1="553.6861538461538" y2="591.6861538461538"></line><text font-family="Alegreya" font-size="22" text-anchor="middle" x="180.04144043474508" y="616.8461538461538">sfp</text></g><g><g><path d="M254.993 557.486C258.993 557.486 263.913 553.766 263.913 549.966C263.913 547.686 262.113 546.206 259.513 546.206C254.593 546.206 250.633 549.846 250.633 553.726C250.633 556.086 252.553 557.486 254.993 557.486Z"></path></g><line stroke="#000000" stroke-width="1.2" x1="251.23316065211762" x2="251.23316065211762" y1="553.6861538461538" y2="591.6861538461538"></line><text font-family="Alegreya" font-size="22" text-anchor="middle" x="257.2731606521176" y="616.8461538461538">Oth.dyn.</text></g></g><g transform="translate(423.530034715644)"><g></g><g><line stroke="#000000" stroke-width="1.6" x1="327.3994069336075" x2="327.3994069336075" y1="536.8461538461538" y2="576.8461538461538"></line><line stroke="#000000" stroke-width="5" x1="334.6994069336075" x2="334.6994069336075" y1="536.8461538461538" y2="576.8461538461538"></line></g><g><g><path d="M38.239 572.486C42.239 572.486 47.159 568.766 47.159 564.966C47.159 562.686 45.359 561.206 42.759 561.206C37.839 561.206 33.879 564.846 33.879 568.726C33.879 571.086 35.799 572.486 38.239 572.486Z"></path></g><line stroke="#000000" stroke-width="1.2" x1="46.55899999999999" x2="46.55899999999999" y1="565.0061538461538" y2="530.0061538461538"></line><g><path d="M41.699 513.166C41.699 512.246 40.939 511.486 40.019 511.486C39.099 511.486 38.339 512.246 38.339 513.166C38.339 514.086 39.099 514.846 40.019 514.846C40.939 514.846 41.699 514.086 41.699 513.166Z"></path><path d="M47.699 514.206L43.379 504.966C43.259 504.806 43.139 504.726 42.979 504.726C42.699 504.726 42.579 504.966 42.579 504.966C42.579 504.966 38.339 514.206 38.339 514.206C38.299 514.286 38.299 514.326 38.299 514.406C38.299 514.606 38.379 514.806 38.579 514.846C38.619 514.886 38.739 514.886 38.779 514.886C38.939 514.886 39.139 514.806 39.219 514.606C39.219 514.606 41.379 509.846 41.459 509.686C41.499 509.606 41.539 509.566 41.619 509.566C41.699 509.566 41.779 509.606 41.859 509.686C41.899 509.846 44.139 514.606 44.139 514.606C44.259 514.766 44.419 514.846 44.579 514.846L47.299 514.846C47.579 514.806 47.739 514.646 47.739 514.406C47.739 514.326 47.739 514.246 47.699 514.206Z"></path></g><text font-family="Alegreya" font-size="22" text-anchor="middle" x="40.51899999999999" y="616.8461538461538">both above</text></g><g><g><path d="M164.157 572.486C168.157 572.486 173.077 568.766 173.077 564.966C173.077 562.686 171.277 561.206 168.677 561.206C163.757 561.206 159.797 564.846 159.797 568.726C159.797 571.086 161.717 572.486 164.157 572.486Z"></path></g><line stroke="#000000" stroke-width="1.2" x1="172.47672021737253" x2="172.47672021737253" y1="565.0061538461538" y2="530.0061538461538"></line><g><path d="M159.957 590.566C160.077 590.526 172.197 586.446 172.197 586.446C172.717 586.326 172.717 586.046 172.717 585.726C172.717 585.406 172.717 585.166 172.197 585.006L160.197 580.926C160.037 580.886 159.957 580.846 159.837 580.846C159.477 580.846 159.357 581.086 159.237 581.406C159.197 581.566 159.157 581.686 159.157 581.806C159.157 582.006 159.277 582.206 159.717 582.366C159.717 582.366 168.357 585.286 168.757 585.446C168.957 585.486 169.037 585.606 169.037 585.726C169.037 585.846 168.957 585.926 168.717 586.006C168.277 586.126 159.717 589.046 159.717 589.046C159.277 589.246 159.157 589.446 159.157 589.646C159.157 589.766 159.197 589.886 159.237 590.006C159.357 590.286 159.517 590.606 159.797 590.606C159.837 590.606 159.917 590.606 159.957 590.566Z"></path><path d="M162.517 513.166C162.517 512.246 161.757 511.486 160.837 511.486C159.917 511.486 159.157 512.246 159.157 513.166C159.157 514.086 159.917 514.846 160.837 514.846C161.757 514.846 162.517 514.086 162.517 513.166Z"></path><path d="M171.717 582.766C172.637 582.766 172.677 582.326 172.677 581.806C172.677 581.286 172.677 580.846 171.717 580.846L160.077 580.846C159.117 580.846 159.117 581.286 159.117 581.806C159.117 582.326 159.117 582.766 160.077 582.766Z"></path></g><text font-family="Alegreya" font-size="22" text-anchor="middle" x="166.4367202173725" y="616.8461538461538">ab./bel./bel.</text></g><g><path d="M233.527 555.886L233.527 552.206C233.527 551.606 233.047 551.166 232.487 551.166L223.287 551.166C222.687 551.166 222.247 551.606 222.247 552.206L222.247 555.886C222.247 556.446 222.687 556.926 223.287 556.926L232.487 556.926C233.047 556.926 233.527 556.446 233.527 555.886Z"></path></g></g></svg>