<?xml version="1.0" encoding="UTF-8" standalone="no"?><svg xmlns="http://www.w3.org/2000/svg" height="279.4mm" viewBox="0 0 1328.6153846153845 1719.3846153846152" width="215.9mm"><g transform="translate(93.84615384615385)"><g><g><line stroke="#6A6A6A" stroke-width="1.3" x1="0" x2="139.35911060254546" y1="183.8461538461538" y2="183.8461538461538"></line><line stroke="#6A6A6A" stroke-width="1.3" x1="0" x2="139.35911060254546" y1="173.8461538461538" y2="173.8461538461538"></line><line stroke="#6A6A6A" stroke-width="1.3" x1="0" x2="139.35911060254546" y1="163.8461538461538" y2="163.8461538461538"></line><line stroke="#6A6A6A" stroke-width="1.3" x1="0" x2="139.35911060254546" y1="153.8461538461538" y2="153.8461538461538"></line><line stroke="#6A6A6A" stroke-width="1.3" x1="0" x2="139.35911060254546" y1="143.8461538461538" y2="143.8461538461538"></line></g><g><path d="M25.200 129.926C24.640 129.926 23.400 130.966 22.600 131.846C19.640 135.126 18.680 140.126 18.680 144.286C18.680 146.606 18.960 149.206 19.240 150.846C19.320 151.326 19.360 151.406 18.880 151.806C16.320 153.926 13.560 156.366 11.480 158.926C8.720 162.366 7 166.086 7 170.366C7 177.326 11.760 183.926 21.560 183.926C22.480 183.926 23.520 183.846 24.320 183.686C24.760 183.606 24.840 183.566 24.920 184.046C25.400 186.726 26 190.206 26 192.086C26 198.006 22 198.726 19.640 198.726C17.480 198.726 16.440 198.086 16.440 197.566C16.440 197.126 16.800 197.166 17.720 196.886C18.960 196.526 20.400 195.446 20.400 193.126C20.400 190.926 19 189.046 16.560 189.046C13.880 189.046 12.280 191.166 12.280 193.646C12.280 196.246 13.840 200.166 19.880 200.166C22.560 200.166 27.760 198.966 27.760 192.166C27.760 189.886 27.040 186.086 26.600 183.606C26.520 183.126 26.560 183.166 27.120 182.926C31.160 181.326 33.840 177.926 33.840 173.406C33.840 168.286 30.080 163.766 24.200 163.766C23.080 163.766 23.200 163.966 23.040 163.046L22.040 157.246C21.960 156.766 22.040 156.726 22.280 156.486C22.920 155.886 23.760 155.046 24.520 154.206C27.880 150.526 29.880 145.766 29.880 141.246C29.880 137.766 28.920 134.326 27.280 131.926C26.680 131.046 25.640 129.926 25.200 129.926ZM20.040 158.086C20.440 157.766 20.520 157.806 20.600 158.246L21.440 163.366C21.560 164.126 21.560 164.086 20.840 164.326C17.320 165.526 15.040 168.686 15.040 172.086C15.040 175.686 16.920 178.246 19.640 179.166C19.960 179.286 20.440 179.406 20.720 179.406C21.040 179.406 21.200 179.206 21.200 178.966C21.200 178.686 20.880 178.566 20.600 178.446C18.920 177.726 17.720 176.006 17.720 174.166C17.720 171.886 19.280 170.166 21.720 169.486C22.360 169.326 22.440 169.366 22.520 169.806L24.520 181.726C24.600 182.166 24.560 182.166 23.960 182.286C23.320 182.406 22.520 182.486 21.720 182.486C14.720 182.486 10.200 178.606 10.200 173.046C10.200 170.686 10.600 167.526 13.920 163.766C16.320 161.086 18.160 159.606 20.040 158.086ZM24.640 169.166C27.880 169.446 30.560 172.166 30.560 175.686C30.560 178.206 29.040 180.246 26.800 181.366C26.320 181.606 26.240 181.606 26.160 181.126L24.200 169.726C24.120 169.246 24.160 169.126 24.640 169.166ZM25.800 136.126C27.120 136.126 28.200 137.206 28.200 139.406C28.200 142.166 26.880 144.726 23.760 147.846C23.120 148.486 22.160 149.406 21.240 150.206C20.960 150.446 20.800 150.406 20.720 149.886C20.560 148.846 20.480 147.486 20.480 146.206C20.480 139.966 23.360 136.126 25.800 136.126Z"></path></g><g></g><g><g><path d="M65.180 156.806L62.260 156.806L62.260 148.246C62.260 147.926 62.220 147.566 61.780 147.566C61.420 147.566 61.220 147.646 60.980 147.926L57.180 152.526C57.020 152.726 56.820 152.966 56.820 153.446C56.820 153.446 56.820 155.046 56.820 156.806L51.420 156.806C54.620 154.086 61.020 145.006 61.140 144.566C61.140 144.486 61.180 144.446 61.180 144.366C61.180 144.046 60.900 143.806 60.580 143.806C60.220 143.806 58.580 143.886 57.860 143.886C57.140 143.886 55.340 143.806 55.020 143.806C54.660 143.806 54.100 143.926 54.100 144.566C54.100 149.526 50.180 155.086 48.980 156.766L48.740 157.086C48.740 157.126 48.700 157.166 48.700 157.206C48.620 157.366 48.580 157.526 48.580 157.646C48.580 158.046 48.900 158.326 49.380 158.326L56.820 158.326L56.820 160.846C56.820 161.926 55.940 162.246 55.220 162.246C54.580 162.246 54.300 162.606 54.300 163.006C54.300 163.406 54.460 163.846 55.060 163.846C55.700 163.846 63.580 163.846 63.580 163.846C63.980 163.846 64.380 163.566 64.380 163.006C64.380 162.446 63.900 162.206 63.500 162.206C63.100 162.206 62.260 161.966 62.260 160.686L62.260 158.326C63.980 158.326 65.180 158.326 65.180 158.326C65.580 158.326 65.780 158.046 65.780 157.566C65.780 157.086 65.620 156.806 65.180 156.806Z"></path></g><g><path d="M65.180 176.806L62.260 176.806L62.260 168.246C62.260 167.926 62.220 167.566 61.780 167.566C61.420 167.566 61.220 167.646 60.980 167.926L57.180 172.526C57.020 172.726 56.820 172.966 56.820 173.446C56.820 173.446 56.820 175.046 56.820 176.806L51.420 176.806C54.620 174.086 61.020 165.006 61.140 164.566C61.140 164.486 61.180 164.446 61.180 164.366C61.180 164.046 60.900 163.806 60.580 163.806C60.220 163.806 58.580 163.886 57.860 163.886C57.140 163.886 55.340 163.806 55.020 163.806C54.660 163.806 54.100 163.926 54.100 164.566C54.100 169.526 50.180 175.086 48.980 176.766L48.740 177.086C48.740 177.126 48.700 177.166 48.700 177.206C48.620 177.366 48.580 177.526 48.580 177.646C48.580 178.046 48.900 178.326 49.380 178.326L56.820 178.326L56.820 180.846C56.820 181.926 55.940 182.246 55.220 182.246C54.580 182.246 54.300 182.606 54.300 183.006C54.300 183.406 54.460 183.846 55.060 183.846C55.700 183.846 63.580 183.846 63.580 183.846C63.980 183.846 64.380 183.566 64.380 183.006C64.380 182.446 63.900 182.206 63.500 182.206C63.100 182.206 62.260 181.966 62.260 180.686L62.260 178.326C63.980 178.326 65.180 178.326 65.180 178.326C65.580 178.326 65.780 178.046 65.780 177.566C65.780 177.086 65.620 176.806 65.180 176.806Z"></path></g></g></g><g><line stroke="black" stroke-width="1.6" x1="140.15911060254547" x2="140.15911060254547" y1="143.8461538461538" y2="183.8461538461538"></line></g><g><g><path d="M93.360 174.486C97.360 174.486 102.280 170.766 102.280 166.966C102.280 164.686 100.480 163.206 97.880 163.206C92.960 163.206 89 166.846 89 170.726C89 173.086 90.920 174.486 93.360 174.486Z"></path></g><line stroke="#000000" stroke-width="1.2" x1="101.68" x2="101.68" y1="167.0061538461538" y2="129.0061538461538"></line></g><g><g><path d="M118.540 174.486C122.540 174.486 127.460 170.766 127.460 166.966C127.460 164.686 125.660 163.206 123.060 163.206C118.140 163.206 114.180 166.846 114.180 170.726C114.180 173.086 116.100 174.486 118.540 174.486Z"></path></g><line stroke="#000000" stroke-width="1.2" x1="126.85955530127274" x2="126.85955530127274" y1="167.0061538461538" y2="129.0061538461538"></line></g></g><g transform="translate(249.80526444869932)"><g><g><line stroke="#6A6A6A" stroke-width="1.3" x1="-16.599999999999994" x2="186.38221205090898" y1="183.8461538461538" y2="183.8461538461538"></line><line stroke="#6A6A6A" stroke-width="1.3" x1="-16.599999999999994" x2="186.38221205090898" y1="173.8461538461538" y2="173.8461538461538"></line><line stroke="#6A6A6A" stroke-width="1.3" x1="-16.599999999999994" x2="186.38221205090898" y1="163.8461538461538" y2="163.8461538461538"></line><line stroke="#6A6A6A" stroke-width="1.3" x1="-16.599999999999994" x2="186.38221205090898" y1="153.8461538461538" y2="153.8461538461538"></line><line stroke="#6A6A6A" stroke-width="1.3" x1="-16.599999999999994" x2="186.38221205090898" y1="143.8461538461538" y2="143.8461538461538"></line></g></g><g><line stroke="black" stroke-width="1.6" x1="187.182212050909" x2="187.182212050909" y1="143.8461538461538" y2="183.8461538461538"></line></g><g><g><path d="M4.360 174.486C8.360 174.486 13.280 170.766 13.280 166.966C13.280 164.686 11.480 163.206 8.880 163.206C3.960 163.206 0 166.846 0 170.726C0 173.086 1.920 174.486 4.360 174.486Z"></path></g><line stroke="#000000" stroke-width="1.2" x1="12.680000000000001" x2="12.680000000000001" y1="167.0061538461538" y2="129.0061538461538"></line></g><g><g><path d="M50.956 174.486C54.956 174.486 59.876 170.766 59.876 166.966C59.876 164.686 58.076 163.206 55.476 163.206C50.556 163.206 46.596 166.846 46.596 170.726C46.596 173.086 48.516 174.486 50.956 174.486Z"></path></g><line stroke="#000000" stroke-width="1.2" x1="59.275553012727244" x2="59.275553012727244" y1="167.0061538461538" y2="129.0061538461538"></line></g><g><g><path d="M97.551 174.486C101.551 174.486 106.471 170.766 106.471 166.966C106.471 164.686 104.671 163.206 102.071 163.206C97.151 163.206 93.191 166.846 93.191 170.726C93.191 173.086 95.111 174.486 97.551 174.486Z"></path></g><line stroke="#000000" stroke-width="1.2" x1="105.8711060254545" x2="105.8711060254545" y1="167.0061538461538" y2="129.0061538461538"></line></g><g><g><path d="M144.147 174.486C148.147 174.486 153.067 170.766 153.067 166.966C153.067 164.686 151.267 163.206 148.667 163.206C143.747 163.206 139.787 166.846 139.787 170.726C139.787 173.086 141.707 174.486 144.147 174.486Z"></path></g><line stroke="#000000" stroke-width="1.2" x1="152.46665903818175" x2="152.46665903818175" y1="167.0061538461538" y2="129.0061538461538"></line></g></g><g transform="translate(452.78747649960826)"><g><g><line stroke="#6A6A6A" stroke-width="1.3" x1="-16.600000000000023" x2="50.35911060254546" y1="183.8461538461538" y2="183.8461538461538"></line><line stroke="#6A6A6A" stroke-width="1.3" x1="-16.600000000000023" x2="50.35911060254546" y1="173.8461538461538" y2="173.8461538461538"></line><line stroke="#6A6A6A" stroke-width="1.3" x1="-16.600000000000023" x2="50.35911060254546" y1="163.8461538461538" y2="163.8461538461538"></line><line stroke="#6A6A6A" stroke-width="1.3" x1="-16.600000000000023" x2="50.35911060254546" y1="153.8461538461538" y2="153.8461538461538"></line><line stroke="#6A6A6A" stroke-width="1.3" x1="-16.600000000000023" x2="50.35911060254546" y1="143.8461538461538" y2="143.8461538461538"></line></g></g><g><line stroke="black" stroke-width="1.6" x1="51.15911060254545" x2="51.15911060254545" y1="143.8461538461538" y2="183.8461538461538"></line></g><g><g><path d="M4.360 174.486C8.360 174.486 13.280 170.766 13.280 166.966C13.280 164.686 11.480 163.206 8.880 163.206C3.960 163.206 0 166.846 0 170.726C0 173.086 1.920 174.486 4.360 174.486Z"></path></g><line stroke="#000000" stroke-width="1.2" x1="12.680000000000001" x2="12.680000000000001" y1="167.0061538461538" y2="129.0061538461538"></line></g><g><g><path d="M29.540 174.486C33.540 174.486 38.460 170.766 38.460 166.966C38.460 164.686 36.660 163.206 34.060 163.206C29.140 163.206 25.180 166.846 25.180 170.726C25.180 173.086 27.100 174.486 29.540 174.486Z"></path></g><line stroke="#000000" stroke-width="1.2" x1="37.85955530127273" x2="37.85955530127273" y1="167.0061538461538" y2="129.0061538461538"></line></g></g><g transform="translate(519.7465871021537)"><g><g><line stroke="#6A6A6A" stroke-width="1.3" x1="-16.600000000000023" x2="196.98221205090897" y1="183.8461538461538" y2="183.8461538461538"></line><line stroke="#6A6A6A" stroke-width="1.3" x1="-16.600000000000023" x2="196.98221205090897" y1="173.8461538461538" y2="173.8461538461538"></line><line stroke="#6A6A6A" stroke-width="1.3" x1="-16.600000000000023" x2="196.98221205090897" y1="163.8461538461538" y2="163.8461538461538"></line><line stroke="#6A6A6A" stroke-width="1.3" x1="-16.600000000000023" x2="196.98221205090897" y1="153.8461538461538" y2="153.8461538461538"></line><line stroke="#6A6A6A" stroke-width="1.3" x1="-16.600000000000023" x2="196.98221205090897" y1="143.8461538461538" y2="143.8461538461538"></line></g></g><g><line stroke="black" stroke-width="1.6" x1="187.182212050909" x2="187.182212050909" y1="143.8461538461538" y2="183.8461538461538"></line><line stroke="black" stroke-width="5" x1="194.48221205090897" x2="194.48221205090897" y1="143.8461538461538" y2="183.8461538461538"></line></g><g><g><path d="M4.360 174.486C8.360 174.486 13.280 170.766 13.280 166.966C13.280 164.686 11.480 163.206 8.880 163.206C3.960 163.206 0 166.846 0 170.726C0 173.086 1.920 174.486 4.360 174.486Z"></path></g><line stroke="#000000" stroke-width="1.2" x1="12.680000000000001" x2="12.680000000000001" y1="167.0061538461538" y2="129.0061538461538"></line></g><g><g><path d="M50.956 174.486C54.956 174.486 59.876 170.766 59.876 166.966C59.876 164.686 58.076 163.206 55.476 163.206C50.556 163.206 46.596 166.846 46.596 170.726C46.596 173.086 48.516 174.486 50.956 174.486Z"></path></g><line stroke="#000000" stroke-width="1.2" x1="59.275553012727244" x2="59.275553012727244" y1="167.0061538461538" y2="129.0061538461538"></line></g><g><g><path d="M97.551 174.486C101.551 174.486 106.471 170.766 106.471 166.966C106.471 164.686 104.671 163.206 102.071 163.206C97.151 163.206 93.191 166.846 93.191 170.726C93.191 173.086 95.111 174.486 97.551 174.486Z"></path></g><line stroke="#000000" stroke-width="1.2" x1="105.8711060254545" x2="105.8711060254545" y1="167.0061538461538" y2="129.0061538461538"></line></g><g><g><path d="M144.147 174.486C148.147 174.486 153.067 170.766 153.067 166.966C153.067 164.686 151.267 163.206 148.667 163.206C143.747 163.206 139.787 166.846 139.787 170.726C139.787 173.086 141.707 174.486 144.147 174.486Z"></path></g><line stroke="#000000" stroke-width="1.2" x1="152.46665903818175" x2="152.46665903818175" y1="167.0061538461538" y2="129.0061538461538"></line></g></g></svg>