<?xml version="1.0" encoding="UTF-8" standalone="no"?><svg xmlns="http://www.w3.org/2000/svg" class="" height="279.4mm" viewBox="0 0 1328.6153846153845 1719.3846153846152" width="215.9mm"><g><g><g><line stroke="#6A6A6A" stroke-width="1.3" x1="93.84615384615385" x2="1068.887515272999" y1="183.8461538461538" y2="183.8461538461538"></line><line stroke="#6A6A6A" stroke-width="1.3" x1="93.84615384615385" x2="1068.887515272999" y1="173.8461538461538" y2="173.8461538461538"></line><line stroke="#6A6A6A" stroke-width="1.3" x1="93.84615384615385" x2="1068.887515272999" y1="163.8461538461538" y2="163.8461538461538"></line><line stroke="#6A6A6A" stroke-width="1.3" x1="93.84615384615385" x2="1068.887515272999" y1="153.8461538461538" y2="153.8461538461538"></line><line stroke="#6A6A6A" stroke-width="1.3" x1="93.84615384615385" x2="1068.887515272999" y1="143.8461538461538" y2="143.8461538461538"></line></g><g><path d="M119.046 129.926C118.486 129.926 117.246 130.966 116.446 131.846C113.486 135.126 112.526 140.126 112.526 144.286C112.526 146.606 112.806 149.206 113.086 150.846C113.166 151.326 113.206 151.406 112.726 151.806C110.166 153.926 107.406 156.366 105.326 158.926C102.566 162.366 100.846 166.086 100.846 170.366C100.846 177.326 105.606 183.926 115.406 183.926C116.326 183.926 117.366 183.846 118.166 183.686C118.606 183.606 118.686 183.566 118.766 184.046C119.246 186.726 119.846 190.206 119.846 192.086C119.846 198.006 115.846 198.726 113.486 198.726C111.326 198.726 110.286 198.086 110.286 197.566C110.286 197.126 110.646 197.166 111.566 196.886C112.806 196.526 114.246 195.446 114.246 193.126C114.246 190.926 112.846 189.046 110.406 189.046C107.726 189.046 106.126 191.166 106.126 193.646C106.126 196.246 107.686 200.166 113.726 200.166C116.406 200.166 121.606 198.966 121.606 192.166C121.606 189.886 120.886 186.086 120.446 183.606C120.366 183.126 120.406 183.166 120.966 182.926C125.006 181.326 127.686 177.926 127.686 173.406C127.686 168.286 123.926 163.766 118.046 163.766C116.926 163.766 117.046 163.966 116.886 163.046L115.886 157.246C115.806 156.766 115.886 156.726 116.126 156.486C116.766 155.886 117.606 155.046 118.366 154.206C121.726 150.526 123.726 145.766 123.726 141.246C123.726 137.766 122.766 134.326 121.126 131.926C120.526 131.046 119.486 129.926 119.046 129.926ZM113.886 158.086C114.286 157.766 114.366 157.806 114.446 158.246L115.286 163.366C115.406 164.126 115.406 164.086 114.686 164.326C111.166 165.526 108.886 168.686 108.886 172.086C108.886 175.686 110.766 178.246 113.486 179.166C113.806 179.286 114.286 179.406 114.566 179.406C114.886 179.406 115.046 179.206 115.046 178.966C115.046 178.686 114.726 178.566 114.446 178.446C112.766 177.726 111.566 176.006 111.566 174.166C111.566 171.886 113.126 170.166 115.566 169.486C116.206 169.326 116.286 169.366 116.366 169.806L118.366 181.726C118.446 182.166 118.406 182.166 117.806 182.286C117.166 182.406 116.366 182.486 115.566 182.486C108.566 182.486 104.046 178.606 104.046 173.046C104.046 170.686 104.446 167.526 107.766 163.766C110.166 161.086 112.006 159.606 113.886 158.086ZM118.486 169.166C121.726 169.446 124.406 172.166 124.406 175.686C124.406 178.206 122.886 180.246 120.646 181.366C120.166 181.606 120.086 181.606 120.006 181.126L118.046 169.726C117.966 169.246 118.006 169.126 118.486 169.166ZM119.646 136.126C120.966 136.126 122.046 137.206 122.046 139.406C122.046 142.166 120.726 144.726 117.606 147.846C116.966 148.486 116.006 149.406 115.086 150.206C114.806 150.446 114.646 150.406 114.566 149.886C114.406 148.846 114.326 147.486 114.326 146.206C114.326 139.966 117.206 136.126 119.646 136.126Z"></path></g><g></g><path d="M151.666 153.806C150.466 153.806 149.066 154.126 147.986 154.606C144.426 156.166 142.546 160.446 142.546 164.246C142.546 164.606 142.546 164.966 142.586 165.326C142.786 167.486 143.826 169.526 145.146 171.126C146.666 172.966 148.866 173.806 151.266 173.806C158.266 173.806 159.306 167.446 159.306 166.286C159.306 165.406 158.866 165.406 158.706 165.406C158.386 165.406 158.106 165.446 158.106 166.126C158.106 171.286 153.706 172.486 152.426 172.486C149.186 172.486 147.466 169.326 147.466 162.726C147.466 156.126 150.506 154.766 152.666 154.766C154.746 154.766 155.586 155.726 155.586 156.126C155.586 156.486 155.466 157.006 154.866 157.006C153.266 157.006 152.346 158.726 152.346 159.966C152.346 162.246 154.306 162.966 155.426 162.966C155.426 162.966 158.466 162.846 158.466 159.526C158.466 154.286 152.426 153.806 151.666 153.806Z"></path></g><g><line stroke="black" stroke-width="1.6" x1="380.36209420286514" x2="380.36209420286514" y1="143.8461538461538" y2="183.8461538461538"></line></g><g><g><path d="M195.295 194.486C199.295 194.486 204.215 190.766 204.215 186.966C204.215 184.686 202.415 183.206 199.815 183.206C194.895 183.206 190.935 186.846 190.935 190.726C190.935 193.086 192.855 194.486 195.295 194.486Z"></path><path d="M180.335 195.646C180.455 195.806 180.575 195.846 180.695 195.846C180.815 195.846 180.935 195.766 180.935 195.766C182.135 195.086 183.095 194.006 184.095 193.326C187.655 190.846 188.895 188.406 188.895 186.566C188.895 184.286 187.135 182.846 185.295 182.726C185.015 182.726 184.735 182.766 184.455 182.846C184.015 182.966 183.535 183.126 183.095 183.406C182.855 183.606 182.575 183.966 182.215 183.966C182.135 183.966 182.095 183.966 182.015 183.926C181.735 183.806 181.575 183.526 181.575 183.246C181.615 182.366 181.855 172.766 181.855 171.966C181.855 171.526 181.495 171.286 181.095 171.286C180.535 171.286 179.895 171.686 179.855 172.406C179.855 172.406 180.015 195.246 180.335 195.646ZM181.735 192.086C181.735 192.086 181.615 189.686 181.615 188.086C181.615 187.446 181.655 186.966 181.695 186.806C181.855 186.326 182.895 185.446 183.455 185.126C183.815 184.926 184.175 184.846 184.495 184.846C184.895 184.846 185.255 185.006 185.495 185.286C185.895 185.726 186.135 186.406 186.135 187.166C186.135 187.886 185.935 188.726 185.455 189.566C184.935 190.526 183.775 191.806 182.575 192.566C182.415 192.646 182.295 192.686 182.175 192.686C181.815 192.686 181.735 192.286 181.735 192.086Z"></path></g><line stroke="#000000" stroke-width="1.2" x1="203.61455384615385" x2="203.61455384615385" y1="187.0061538461538" y2="149.0061538461538"></line></g><g><g><path d="M248.124 194.486C252.124 194.486 257.044 190.766 257.044 186.966C257.044 184.686 255.244 183.206 252.644 183.206C247.724 183.206 243.764 186.846 243.764 190.726C243.764 193.086 245.684 194.486 248.124 194.486Z"></path><g><path d="M226.204 198.206C226.204 198.086 226.164 198.006 226.044 197.966C223.524 195.926 222.044 193.286 222.044 188.846C222.044 184.406 223.404 181.726 226.084 179.766C226.204 179.646 226.204 179.446 226.204 179.446C226.204 179.446 226.204 179.166 226.204 179.006C226.204 178.926 226.164 178.846 226.044 178.846C226.044 178.846 226.044 178.886 226.044 178.886C221.684 181.286 219.684 184.766 219.684 188.846C219.684 192.886 221.604 196.406 226.044 198.846C226.044 198.886 226.084 198.886 226.164 198.886C226.164 198.886 226.204 198.766 226.204 198.726Z"></path><path d="M227.164 195.646C227.284 195.806 227.404 195.846 227.524 195.846C227.644 195.846 227.764 195.766 227.764 195.766C228.964 195.086 229.924 194.006 230.924 193.326C234.484 190.846 235.724 188.406 235.724 186.566C235.724 184.286 233.964 182.846 232.124 182.726C231.844 182.726 231.564 182.766 231.284 182.846C230.844 182.966 230.364 183.126 229.924 183.406C229.684 183.606 229.404 183.966 229.044 183.966C228.964 183.966 228.924 183.966 228.844 183.926C228.564 183.806 228.404 183.526 228.404 183.246C228.444 182.366 228.684 172.766 228.684 171.966C228.684 171.526 228.324 171.286 227.924 171.286C227.364 171.286 226.724 171.686 226.684 172.406C226.684 172.406 226.844 195.246 227.164 195.646ZM228.564 192.086C228.564 192.086 228.444 189.686 228.444 188.086C228.444 187.446 228.484 186.966 228.524 186.806C228.684 186.326 229.724 185.446 230.284 185.126C230.644 184.926 231.004 184.846 231.324 184.846C231.724 184.846 232.084 185.006 232.324 185.286C232.724 185.726 232.964 186.406 232.964 187.166C232.964 187.886 232.764 188.726 232.284 189.566C231.764 190.526 230.604 191.806 229.404 192.566C229.244 192.646 229.124 192.686 229.004 192.686C228.644 192.686 228.564 192.286 228.564 192.086Z"></path><path d="M235.724 198.726C235.724 198.766 235.764 198.886 235.764 198.886C235.844 198.886 235.884 198.886 235.884 198.846C240.324 196.406 242.244 192.886 242.244 188.846C242.244 184.766 240.244 181.286 235.884 178.886C235.884 178.886 235.884 178.846 235.884 178.846C235.764 178.846 235.724 178.926 235.724 179.006C235.724 179.166 235.724 179.446 235.724 179.446C235.724 179.446 235.724 179.646 235.844 179.766C238.524 181.726 239.884 184.406 239.884 188.846C239.884 193.286 238.404 195.926 235.884 197.966C235.764 198.006 235.724 198.086 235.724 198.206Z"></path></g></g><line stroke="#000000" stroke-width="1.2" x1="256.4435389353317" x2="256.4435389353317" y1="187.0061538461538" y2="149.0061538461538"></line></g><g><g><path d="M293.653 194.486C297.653 194.486 302.573 190.766 302.573 186.966C302.573 184.686 300.773 183.206 298.173 183.206C293.253 183.206 289.293 186.846 289.293 190.726C289.293 193.086 291.213 194.486 293.653 194.486Z"></path><path d="M278.693 195.646C278.813 195.806 278.933 195.846 279.053 195.846C279.173 195.846 279.293 195.766 279.293 195.766C280.493 195.086 281.453 194.006 282.453 193.326C286.013 190.846 287.253 188.406 287.253 186.566C287.253 184.286 285.493 182.846 283.653 182.726C283.373 182.726 283.093 182.766 282.813 182.846C282.373 182.966 281.893 183.126 281.453 183.406C281.213 183.606 280.933 183.966 280.573 183.966C280.493 183.966 280.453 183.966 280.373 183.926C280.093 183.806 279.933 183.526 279.933 183.246C279.973 182.366 280.213 172.766 280.213 171.966C280.213 171.526 279.853 171.286 279.453 171.286C278.893 171.286 278.253 171.686 278.213 172.406C278.213 172.406 278.373 195.246 278.693 195.646ZM280.093 192.086C280.093 192.086 279.973 189.686 279.973 188.086C279.973 187.446 280.013 186.966 280.053 186.806C280.213 186.326 281.253 185.446 281.813 185.126C282.173 184.926 282.533 184.846 282.853 184.846C283.253 184.846 283.613 185.006 283.853 185.286C284.253 185.726 284.493 186.406 284.493 187.166C284.493 187.886 284.293 188.726 283.813 189.566C283.293 190.526 282.133 191.806 280.933 192.566C280.773 192.646 280.653 192.686 280.533 192.686C280.173 192.686 280.093 192.286 280.093 192.086Z"></path></g><line stroke="#000000" stroke-width="1.2" x1="301.9725240245095" x2="301.9725240245095" y1="187.0061538461538" y2="149.0061538461538"></line></g><g><g><path d="M346.482 194.486C350.482 194.486 355.402 190.766 355.402 186.966C355.402 184.686 353.602 183.206 351.002 183.206C346.082 183.206 342.122 186.846 342.122 190.726C342.122 193.086 344.042 194.486 346.482 194.486Z"></path><g><path d="M324.562 198.206C324.562 198.086 324.522 198.006 324.402 197.966C321.882 195.926 320.402 193.286 320.402 188.846C320.402 184.406 321.762 181.726 324.442 179.766C324.562 179.646 324.562 179.446 324.562 179.446C324.562 179.446 324.562 179.166 324.562 179.006C324.562 178.926 324.522 178.846 324.402 178.846C324.402 178.846 324.402 178.886 324.402 178.886C320.042 181.286 318.042 184.766 318.042 188.846C318.042 192.886 319.962 196.406 324.402 198.846C324.402 198.886 324.442 198.886 324.522 198.886C324.522 198.886 324.562 198.766 324.562 198.726Z"></path><path d="M325.522 195.646C325.642 195.806 325.762 195.846 325.882 195.846C326.002 195.846 326.122 195.766 326.122 195.766C327.322 195.086 328.282 194.006 329.282 193.326C332.842 190.846 334.082 188.406 334.082 186.566C334.082 184.286 332.322 182.846 330.482 182.726C330.202 182.726 329.922 182.766 329.642 182.846C329.202 182.966 328.722 183.126 328.282 183.406C328.042 183.606 327.762 183.966 327.402 183.966C327.322 183.966 327.282 183.966 327.202 183.926C326.922 183.806 326.762 183.526 326.762 183.246C326.802 182.366 327.042 172.766 327.042 171.966C327.042 171.526 326.682 171.286 326.282 171.286C325.722 171.286 325.082 171.686 325.042 172.406C325.042 172.406 325.202 195.246 325.522 195.646ZM326.922 192.086C326.922 192.086 326.802 189.686 326.802 188.086C326.802 187.446 326.842 186.966 326.882 186.806C327.042 186.326 328.082 185.446 328.642 185.126C329.002 184.926 329.362 184.846 329.682 184.846C330.082 184.846 330.442 185.006 330.682 185.286C331.082 185.726 331.322 186.406 331.322 187.166C331.322 187.886 331.122 188.726 330.642 189.566C330.122 190.526 328.962 191.806 327.762 192.566C327.602 192.646 327.482 192.686 327.362 192.686C327.002 192.686 326.922 192.286 326.922 192.086Z"></path><path d="M334.082 198.726C334.082 198.766 334.122 198.886 334.122 198.886C334.202 198.886 334.242 198.886 334.242 198.846C338.682 196.406 340.602 192.886 340.602 188.846C340.602 184.766 338.602 181.286 334.242 178.886C334.242 178.886 334.242 178.846 334.242 178.846C334.122 178.846 334.082 178.926 334.082 179.006C334.082 179.166 334.082 179.446 334.082 179.446C334.082 179.446 334.082 179.646 334.202 179.766C336.882 181.726 338.242 184.406 338.242 188.846C338.242 193.286 336.762 195.926 334.242 197.966C334.122 198.006 334.082 198.086 334.082 198.206Z"></path></g></g><line stroke="#000000" stroke-width="1.2" x1="354.8015091136873" x2="354.8015091136873" y1="187.0061538461538" y2="149.0061538461538"></line></g></g><g><g></g><g><line stroke="black" stroke-width="1.6" x1="602.3796345595763" x2="602.3796345595763" y1="143.8461538461538" y2="183.8461538461538"></line></g><g><g><path d="M410.786 199.486C414.786 199.486 419.706 195.766 419.706 191.966C419.706 189.686 417.906 188.206 415.306 188.206C410.386 188.206 406.426 191.846 406.426 195.726C406.426 198.086 408.346 199.486 410.786 199.486Z"></path><path d="M401.846 189.126C402.126 189.006 402.326 188.686 402.326 188.446L402.326 185.606C402.326 185.406 402.206 185.286 402.046 185.286C401.966 185.286 401.926 185.286 401.846 185.326C401.846 185.326 401.046 185.646 400.846 185.686C400.566 185.686 400.286 185.486 400.286 185.166C400.286 184.766 400.286 180.286 400.286 180.286C400.286 180.046 400.046 179.846 399.726 179.846C399.326 179.846 399.086 180.046 399.086 180.286C399.086 180.286 399.086 185.086 399.086 185.486C399.046 185.886 398.926 186.406 398.566 186.646C398.086 186.926 396.726 187.486 396.046 187.646C395.686 187.646 395.566 187.166 395.566 186.846C395.566 186.446 395.566 182.046 395.566 182.046C395.566 181.806 395.286 181.606 395.006 181.606C394.606 181.606 394.366 181.806 394.366 182.046C394.366 182.046 394.366 184.206 394.366 185.806L394.366 187.446C394.366 188.006 394.126 188.406 393.886 188.526C393.646 188.646 392.846 188.966 392.846 188.966C392.566 189.046 392.366 189.366 392.366 189.606L392.366 192.446C392.366 192.686 392.486 192.806 392.686 192.806C392.726 192.806 392.806 192.766 392.846 192.766C392.846 192.766 393.446 192.526 393.726 192.366C393.766 192.366 393.806 192.326 393.846 192.326C394.126 192.326 394.366 192.726 394.366 193.046L394.366 197.006C394.366 197.446 394.166 197.806 393.926 197.926C393.686 198.006 392.846 198.366 392.846 198.366C392.566 198.446 392.366 198.766 392.366 199.006L392.366 201.846C392.366 202.086 392.486 202.206 392.686 202.206C392.726 202.206 392.806 202.166 392.846 202.166C392.846 202.166 393.406 201.926 393.766 201.806C393.806 201.766 393.846 201.766 393.886 201.766C394.166 201.766 394.366 202.206 394.366 202.406C394.366 202.646 394.366 207.326 394.366 207.326C394.366 207.566 394.606 207.766 394.886 207.766C395.286 207.766 395.566 207.566 395.566 207.326C395.566 207.326 395.566 202.246 395.566 201.766C395.566 201.246 395.766 200.966 395.966 200.886L398.406 199.886C398.446 199.886 398.526 199.846 398.566 199.846C398.886 199.846 399.086 200.326 399.086 200.566C399.086 200.846 399.086 205.566 399.086 205.566C399.086 205.806 399.326 206.006 399.606 206.006C400.046 206.006 400.286 205.806 400.286 205.566C400.286 205.566 400.286 200.166 400.286 199.886C400.286 199.566 400.446 199.086 400.726 198.966C401.006 198.846 401.846 198.526 401.846 198.526C402.126 198.406 402.326 198.086 402.326 197.846L402.326 195.006C402.326 194.806 402.206 194.686 402.046 194.686C401.966 194.686 401.926 194.686 401.846 194.726C401.846 194.726 401.006 195.046 400.806 195.126C400.566 195.126 400.286 194.886 400.286 194.406L400.286 190.686C400.286 190.406 400.486 189.646 400.806 189.526C401.126 189.406 401.846 189.126 401.846 189.126ZM399.086 195.646C398.846 196.446 396.966 197.246 396.046 197.246C395.806 197.246 395.606 197.166 395.566 197.046C395.486 196.886 395.446 196.006 395.446 195.046C395.446 193.806 395.486 192.406 395.566 192.086C395.646 191.406 397.486 190.566 398.486 190.566C398.766 190.566 399.006 190.646 399.086 190.806C399.166 191.006 399.246 192.006 399.246 193.086C399.246 194.166 399.166 195.286 399.086 195.646Z"></path></g><line stroke="#000000" stroke-width="1.2" x1="419.1058942028651" x2="419.1058942028651" y1="192.0061538461538" y2="157.0061538461538"></line><line stroke="#000000" stroke-width="2.2" x1="403.2258942028651" x2="425.1458942028651" y1="193.8461538461538" y2="193.8461538461538"></line></g><g><g><path d="M465.790 199.486C469.790 199.486 474.710 195.766 474.710 191.966C474.710 189.686 472.910 188.206 470.310 188.206C465.390 188.206 461.430 191.846 461.430 195.726C461.430 198.086 463.350 199.486 465.790 199.486Z"></path><g><path d="M440.890 203.206C440.890 203.086 440.850 203.006 440.730 202.966C438.210 200.926 436.730 198.286 436.730 193.846C436.730 189.406 438.090 186.726 440.770 184.766C440.890 184.646 440.890 184.446 440.890 184.446C440.890 184.446 440.890 184.166 440.890 184.006C440.890 183.926 440.850 183.846 440.730 183.846C440.730 183.846 440.730 183.886 440.730 183.886C436.370 186.286 434.370 189.766 434.370 193.846C434.370 197.886 436.290 201.406 440.730 203.846C440.730 203.886 440.770 203.886 440.850 203.886C440.850 203.886 440.890 203.766 440.890 203.726Z"></path><path d="M450.850 189.126C451.130 189.006 451.330 188.686 451.330 188.446L451.330 185.606C451.330 185.406 451.210 185.286 451.050 185.286C450.970 185.286 450.930 185.286 450.850 185.326C450.850 185.326 450.050 185.646 449.850 185.686C449.570 185.686 449.290 185.486 449.290 185.166C449.290 184.766 449.290 180.286 449.290 180.286C449.290 180.046 449.050 179.846 448.730 179.846C448.330 179.846 448.090 180.046 448.090 180.286C448.090 180.286 448.090 185.086 448.090 185.486C448.050 185.886 447.930 186.406 447.570 186.646C447.090 186.926 445.730 187.486 445.050 187.646C444.690 187.646 444.570 187.166 444.570 186.846C444.570 186.446 444.570 182.046 444.570 182.046C444.570 181.806 444.290 181.606 444.010 181.606C443.610 181.606 443.370 181.806 443.370 182.046C443.370 182.046 443.370 184.206 443.370 185.806L443.370 187.446C443.370 188.006 443.130 188.406 442.890 188.526C442.650 188.646 441.850 188.966 441.850 188.966C441.570 189.046 441.370 189.366 441.370 189.606L441.370 192.446C441.370 192.686 441.490 192.806 441.690 192.806C441.730 192.806 441.810 192.766 441.850 192.766C441.850 192.766 442.450 192.526 442.730 192.366C442.770 192.366 442.810 192.326 442.850 192.326C443.130 192.326 443.370 192.726 443.370 193.046L443.370 197.006C443.370 197.446 443.170 197.806 442.930 197.926C442.690 198.006 441.850 198.366 441.850 198.366C441.570 198.446 441.370 198.766 441.370 199.006L441.370 201.846C441.370 202.086 441.490 202.206 441.690 202.206C441.730 202.206 441.810 202.166 441.850 202.166C441.850 202.166 442.410 201.926 442.770 201.806C442.810 201.766 442.850 201.766 442.890 201.766C443.170 201.766 443.370 202.206 443.370 202.406C443.370 202.646 443.370 207.326 443.370 207.326C443.370 207.566 443.610 207.766 443.890 207.766C444.290 207.766 444.570 207.566 444.570 207.326C444.570 207.326 444.570 202.246 444.570 201.766C444.570 201.246 444.770 200.966 444.970 200.886L447.410 199.886C447.450 199.886 447.530 199.846 447.570 199.846C447.890 199.846 448.090 200.326 448.090 200.566C448.090 200.846 448.090 205.566 448.090 205.566C448.090 205.806 448.330 206.006 448.610 206.006C449.050 206.006 449.290 205.806 449.290 205.566C449.290 205.566 449.290 200.166 449.290 199.886C449.290 199.566 449.450 199.086 449.730 198.966C450.010 198.846 450.850 198.526 450.850 198.526C451.130 198.406 451.330 198.086 451.330 197.846L451.330 195.006C451.330 194.806 451.210 194.686 451.050 194.686C450.970 194.686 450.930 194.686 450.850 194.726C450.850 194.726 450.010 195.046 449.810 195.126C449.570 195.126 449.290 194.886 449.290 194.406L449.290 190.686C449.290 190.406 449.490 189.646 449.810 189.526C450.130 189.406 450.850 189.126 450.850 189.126ZM448.090 195.646C447.850 196.446 445.970 197.246 445.050 197.246C444.810 197.246 444.610 197.166 444.570 197.046C444.490 196.886 444.450 196.006 444.450 195.046C444.450 193.806 444.490 192.406 444.570 192.086C444.650 191.406 446.490 190.566 447.490 190.566C447.770 190.566 448.010 190.646 448.090 190.806C448.170 191.006 448.250 192.006 448.250 193.086C448.250 194.166 448.170 195.286 448.090 195.646Z"></path><path d="M451.330 203.726C451.330 203.766 451.370 203.886 451.370 203.886C451.450 203.886 451.490 203.886 451.490 203.846C455.930 201.406 457.850 197.886 457.850 193.846C457.850 189.766 455.850 186.286 451.490 183.886C451.490 183.886 451.490 183.846 451.490 183.846C451.370 183.846 451.330 183.926 451.330 184.006C451.330 184.166 451.330 184.446 451.330 184.446C451.330 184.446 451.330 184.646 451.450 184.766C454.130 186.726 455.490 189.406 455.490 193.846C455.490 198.286 454.010 200.926 451.490 202.966C451.370 203.006 451.330 203.086 451.330 203.206Z"></path></g></g><line stroke="#000000" stroke-width="1.2" x1="474.1102792920429" x2="474.1102792920429" y1="192.0061538461538" y2="157.0061538461538"></line><line stroke="#000000" stroke-width="2.2" x1="458.2302792920429" x2="480.1502792920429" y1="193.8461538461538" y2="193.8461538461538"></line></g><g><g><path d="M513.495 199.486C517.495 199.486 522.415 195.766 522.415 191.966C522.415 189.686 520.615 188.206 518.015 188.206C513.095 188.206 509.135 191.846 509.135 195.726C509.135 198.086 511.055 199.486 513.495 199.486Z"></path><path d="M504.555 189.126C504.835 189.006 505.035 188.686 505.035 188.446L505.035 185.606C505.035 185.406 504.915 185.286 504.755 185.286C504.675 185.286 504.635 185.286 504.555 185.326C504.555 185.326 503.755 185.646 503.555 185.686C503.275 185.686 502.995 185.486 502.995 185.166C502.995 184.766 502.995 180.286 502.995 180.286C502.995 180.046 502.755 179.846 502.435 179.846C502.035 179.846 501.795 180.046 501.795 180.286C501.795 180.286 501.795 185.086 501.795 185.486C501.755 185.886 501.635 186.406 501.275 186.646C500.795 186.926 499.435 187.486 498.755 187.646C498.395 187.646 498.275 187.166 498.275 186.846C498.275 186.446 498.275 182.046 498.275 182.046C498.275 181.806 497.995 181.606 497.715 181.606C497.315 181.606 497.075 181.806 497.075 182.046C497.075 182.046 497.075 184.206 497.075 185.806L497.075 187.446C497.075 188.006 496.835 188.406 496.595 188.526C496.355 188.646 495.555 188.966 495.555 188.966C495.275 189.046 495.075 189.366 495.075 189.606L495.075 192.446C495.075 192.686 495.195 192.806 495.395 192.806C495.435 192.806 495.515 192.766 495.555 192.766C495.555 192.766 496.155 192.526 496.435 192.366C496.475 192.366 496.515 192.326 496.555 192.326C496.835 192.326 497.075 192.726 497.075 193.046L497.075 197.006C497.075 197.446 496.875 197.806 496.635 197.926C496.395 198.006 495.555 198.366 495.555 198.366C495.275 198.446 495.075 198.766 495.075 199.006L495.075 201.846C495.075 202.086 495.195 202.206 495.395 202.206C495.435 202.206 495.515 202.166 495.555 202.166C495.555 202.166 496.115 201.926 496.475 201.806C496.515 201.766 496.555 201.766 496.595 201.766C496.875 201.766 497.075 202.206 497.075 202.406C497.075 202.646 497.075 207.326 497.075 207.326C497.075 207.566 497.315 207.766 497.595 207.766C497.995 207.766 498.275 207.566 498.275 207.326C498.275 207.326 498.275 202.246 498.275 201.766C498.275 201.246 498.475 200.966 498.675 200.886L501.115 199.886C501.155 199.886 501.235 199.846 501.275 199.846C501.595 199.846 501.795 200.326 501.795 200.566C501.795 200.846 501.795 205.566 501.795 205.566C501.795 205.806 502.035 206.006 502.315 206.006C502.755 206.006 502.995 205.806 502.995 205.566C502.995 205.566 502.995 200.166 502.995 199.886C502.995 199.566 503.155 199.086 503.435 198.966C503.715 198.846 504.555 198.526 504.555 198.526C504.835 198.406 505.035 198.086 505.035 197.846L505.035 195.006C505.035 194.806 504.915 194.686 504.755 194.686C504.675 194.686 504.635 194.686 504.555 194.726C504.555 194.726 503.715 195.046 503.515 195.126C503.275 195.126 502.995 194.886 502.995 194.406L502.995 190.686C502.995 190.406 503.195 189.646 503.515 189.526C503.835 189.406 504.555 189.126 504.555 189.126ZM501.795 195.646C501.555 196.446 499.675 197.246 498.755 197.246C498.515 197.246 498.315 197.166 498.275 197.046C498.195 196.886 498.155 196.006 498.155 195.046C498.155 193.806 498.195 192.406 498.275 192.086C498.355 191.406 500.195 190.566 501.195 190.566C501.475 190.566 501.715 190.646 501.795 190.806C501.875 191.006 501.955 192.006 501.955 193.086C501.955 194.166 501.875 195.286 501.795 195.646Z"></path></g><line stroke="#000000" stroke-width="1.2" x1="521.8146643812207" x2="521.8146643812207" y1="192.0061538461538" y2="157.0061538461538"></line><line stroke="#000000" stroke-width="2.2" x1="505.9346643812208" x2="527.8546643812207" y1="193.8461538461538" y2="193.8461538461538"></line></g><g><g><path d="M568.499 199.486C572.499 199.486 577.419 195.766 577.419 191.966C577.419 189.686 575.619 188.206 573.019 188.206C568.099 188.206 564.139 191.846 564.139 195.726C564.139 198.086 566.059 199.486 568.499 199.486Z"></path><g><path d="M543.599 203.206C543.599 203.086 543.559 203.006 543.439 202.966C540.919 200.926 539.439 198.286 539.439 193.846C539.439 189.406 540.799 186.726 543.479 184.766C543.599 184.646 543.599 184.446 543.599 184.446C543.599 184.446 543.599 184.166 543.599 184.006C543.599 183.926 543.559 183.846 543.439 183.846C543.439 183.846 543.439 183.886 543.439 183.886C539.079 186.286 537.079 189.766 537.079 193.846C537.079 197.886 538.999 201.406 543.439 203.846C543.439 203.886 543.479 203.886 543.559 203.886C543.559 203.886 543.599 203.766 543.599 203.726Z"></path><path d="M553.559 189.126C553.839 189.006 554.039 188.686 554.039 188.446L554.039 185.606C554.039 185.406 553.919 185.286 553.759 185.286C553.679 185.286 553.639 185.286 553.559 185.326C553.559 185.326 552.759 185.646 552.559 185.686C552.279 185.686 551.999 185.486 551.999 185.166C551.999 184.766 551.999 180.286 551.999 180.286C551.999 180.046 551.759 179.846 551.439 179.846C551.039 179.846 550.799 180.046 550.799 180.286C550.799 180.286 550.799 185.086 550.799 185.486C550.759 185.886 550.639 186.406 550.279 186.646C549.799 186.926 548.439 187.486 547.759 187.646C547.399 187.646 547.279 187.166 547.279 186.846C547.279 186.446 547.279 182.046 547.279 182.046C547.279 181.806 546.999 181.606 546.719 181.606C546.319 181.606 546.079 181.806 546.079 182.046C546.079 182.046 546.079 184.206 546.079 185.806L546.079 187.446C546.079 188.006 545.839 188.406 545.599 188.526C545.359 188.646 544.559 188.966 544.559 188.966C544.279 189.046 544.079 189.366 544.079 189.606L544.079 192.446C544.079 192.686 544.199 192.806 544.399 192.806C544.439 192.806 544.519 192.766 544.559 192.766C544.559 192.766 545.159 192.526 545.439 192.366C545.479 192.366 545.519 192.326 545.559 192.326C545.839 192.326 546.079 192.726 546.079 193.046L546.079 197.006C546.079 197.446 545.879 197.806 545.639 197.926C545.399 198.006 544.559 198.366 544.559 198.366C544.279 198.446 544.079 198.766 544.079 199.006L544.079 201.846C544.079 202.086 544.199 202.206 544.399 202.206C544.439 202.206 544.519 202.166 544.559 202.166C544.559 202.166 545.119 201.926 545.479 201.806C545.519 201.766 545.559 201.766 545.599 201.766C545.879 201.766 546.079 202.206 546.079 202.406C546.079 202.646 546.079 207.326 546.079 207.326C546.079 207.566 546.319 207.766 546.599 207.766C546.999 207.766 547.279 207.566 547.279 207.326C547.279 207.326 547.279 202.246 547.279 201.766C547.279 201.246 547.479 200.966 547.679 200.886L550.119 199.886C550.159 199.886 550.239 199.846 550.279 199.846C550.599 199.846 550.799 200.326 550.799 200.566C550.799 200.846 550.799 205.566 550.799 205.566C550.799 205.806 551.039 206.006 551.319 206.006C551.759 206.006 551.999 205.806 551.999 205.566C551.999 205.566 551.999 200.166 551.999 199.886C551.999 199.566 552.159 199.086 552.439 198.966C552.719 198.846 553.559 198.526 553.559 198.526C553.839 198.406 554.039 198.086 554.039 197.846L554.039 195.006C554.039 194.806 553.919 194.686 553.759 194.686C553.679 194.686 553.639 194.686 553.559 194.726C553.559 194.726 552.719 195.046 552.519 195.126C552.279 195.126 551.999 194.886 551.999 194.406L551.999 190.686C551.999 190.406 552.199 189.646 552.519 189.526C552.839 189.406 553.559 189.126 553.559 189.126ZM550.799 195.646C550.559 196.446 548.679 197.246 547.759 197.246C547.519 197.246 547.319 197.166 547.279 197.046C547.199 196.886 547.159 196.006 547.159 195.046C547.159 193.806 547.199 192.406 547.279 192.086C547.359 191.406 549.199 190.566 550.199 190.566C550.479 190.566 550.719 190.646 550.799 190.806C550.879 191.006 550.959 192.006 550.959 193.086C550.959 194.166 550.879 195.286 550.799 195.646Z"></path><path d="M554.039 203.726C554.039 203.766 554.079 203.886 554.079 203.886C554.159 203.886 554.199 203.886 554.199 203.846C558.639 201.406 560.559 197.886 560.559 193.846C560.559 189.766 558.559 186.286 554.199 183.886C554.199 183.886 554.199 183.846 554.199 183.846C554.079 183.846 554.039 183.926 554.039 184.006C554.039 184.166 554.039 184.446 554.039 184.446C554.039 184.446 554.039 184.646 554.159 184.766C556.839 186.726 558.199 189.406 558.199 193.846C558.199 198.286 556.719 200.926 554.199 202.966C554.079 203.006 554.039 203.086 554.039 203.206Z"></path></g></g><line stroke="#000000" stroke-width="1.2" x1="576.8190494703985" x2="576.8190494703985" y1="192.0061538461538" y2="157.0061538461538"></line><line stroke="#000000" stroke-width="2.2" x1="560.9390494703985" x2="582.8590494703984" y1="193.8461538461538" y2="193.8461538461538"></line></g></g><g><g></g><g><line stroke="black" stroke-width="1.6" x1="837.3035749162875" x2="837.3035749162875" y1="143.8461538461538" y2="183.8461538461538"></line></g><g><g><path d="M636.030 194.486C640.030 194.486 644.950 190.766 644.950 186.966C644.950 184.686 643.150 183.206 640.550 183.206C635.630 183.206 631.670 186.846 631.670 190.726C631.670 193.086 633.590 194.486 636.030 194.486Z"></path><path d="M625.750 182.806C625.550 182.806 625.390 182.806 625.190 182.846C624.710 182.966 624.270 183.206 623.870 183.446C623.590 183.606 623.270 183.966 622.910 183.966C622.830 183.966 622.750 183.966 622.710 183.926C622.430 183.846 622.310 183.566 622.310 183.246C622.310 182.406 622.550 172.766 622.550 172.006C622.550 171.566 622.190 171.366 621.790 171.366C621.270 171.366 620.630 171.726 620.550 172.406C620.550 172.406 620.590 177.886 620.670 183.446C620.070 183.046 619.390 182.806 618.630 182.806L618.390 182.806C618.190 182.806 617.990 182.806 617.830 182.846C617.350 182.966 616.910 183.206 616.510 183.446C616.190 183.606 615.910 183.966 615.550 183.966C615.470 183.966 615.430 183.966 615.350 183.926C615.070 183.846 614.910 183.566 614.910 183.246C614.910 182.406 615.190 172.766 615.190 172.006C615.190 171.566 614.830 171.366 614.430 171.366C613.870 171.366 613.230 171.726 613.190 172.406C613.190 172.406 613.390 195.286 613.670 195.646C613.790 195.806 613.910 195.846 614.030 195.846C614.150 195.846 614.270 195.766 614.270 195.766C615.510 195.126 616.510 194.006 617.430 193.326C618.910 192.286 620.030 191.206 620.790 190.246C620.870 193.246 620.950 195.526 621.070 195.646C621.190 195.806 621.310 195.846 621.390 195.846C621.510 195.846 621.630 195.766 621.630 195.766C622.870 195.126 623.830 194.006 624.750 193.366C628.350 190.846 629.630 188.406 629.630 186.566C629.630 184.326 627.870 182.846 625.990 182.806ZM618.830 189.566C618.310 190.526 617.150 191.766 615.870 192.566C615.750 192.646 615.590 192.686 615.510 192.686C615.190 192.686 615.070 192.286 615.070 192.046C615.070 192.046 614.950 189.686 614.950 188.126C614.950 187.486 614.990 187.006 615.030 186.846C615.190 186.326 616.270 185.446 616.830 185.126C617.190 184.926 617.550 184.846 617.870 184.846C618.270 184.846 618.590 184.966 618.830 185.246C619.230 185.726 619.470 186.406 619.470 187.206C619.470 187.926 619.270 188.766 618.830 189.566ZM626.150 189.566C625.670 190.526 624.510 191.766 623.230 192.566C623.070 192.646 622.950 192.686 622.870 192.686C622.550 192.686 622.430 192.286 622.430 192.046C622.430 192.046 622.310 189.286 622.310 187.766C622.310 187.326 622.310 186.966 622.350 186.846C622.510 186.326 623.590 185.446 624.190 185.126C624.550 184.926 624.910 184.846 625.230 184.846C625.630 184.846 625.950 184.966 626.190 185.246C626.550 185.726 626.790 186.406 626.790 187.206C626.790 187.926 626.590 188.726 626.150 189.566Z"></path></g><line stroke="#000000" stroke-width="1.2" x1="644.3500345595763" x2="644.3500345595763" y1="187.0061538461538" y2="149.0061538461538"></line></g><g><g><path d="M694.261 194.486C698.261 194.486 703.181 190.766 703.181 186.966C703.181 184.686 701.381 183.206 698.781 183.206C693.861 183.206 689.901 186.846 689.901 190.726C689.901 193.086 691.821 194.486 694.261 194.486Z"></path><g><path d="M664.941 198.206C664.941 198.086 664.901 198.006 664.781 197.966C662.261 195.926 660.781 193.286 660.781 188.846C660.781 184.406 662.141 181.726 664.821 179.766C664.941 179.646 664.941 179.446 664.941 179.446C664.941 179.446 664.941 179.166 664.941 179.006C664.941 178.926 664.901 178.846 664.781 178.846C664.781 178.846 664.781 178.886 664.781 178.886C660.421 181.286 658.421 184.766 658.421 188.846C658.421 192.886 660.341 196.406 664.781 198.846C664.781 198.886 664.821 198.886 664.901 198.886C664.901 198.886 664.941 198.766 664.941 198.726Z"></path><path d="M677.981 182.806C677.781 182.806 677.621 182.806 677.421 182.846C676.941 182.966 676.501 183.206 676.101 183.446C675.821 183.606 675.501 183.966 675.141 183.966C675.061 183.966 674.981 183.966 674.941 183.926C674.661 183.846 674.541 183.566 674.541 183.246C674.541 182.406 674.781 172.766 674.781 172.006C674.781 171.566 674.421 171.366 674.021 171.366C673.501 171.366 672.861 171.726 672.781 172.406C672.781 172.406 672.821 177.886 672.901 183.446C672.301 183.046 671.621 182.806 670.861 182.806L670.621 182.806C670.421 182.806 670.221 182.806 670.061 182.846C669.581 182.966 669.141 183.206 668.741 183.446C668.421 183.606 668.141 183.966 667.781 183.966C667.701 183.966 667.661 183.966 667.581 183.926C667.301 183.846 667.141 183.566 667.141 183.246C667.141 182.406 667.421 172.766 667.421 172.006C667.421 171.566 667.061 171.366 666.661 171.366C666.101 171.366 665.461 171.726 665.421 172.406C665.421 172.406 665.621 195.286 665.901 195.646C666.021 195.806 666.141 195.846 666.261 195.846C666.381 195.846 666.501 195.766 666.501 195.766C667.741 195.126 668.741 194.006 669.661 193.326C671.141 192.286 672.261 191.206 673.021 190.246C673.101 193.246 673.181 195.526 673.301 195.646C673.421 195.806 673.541 195.846 673.621 195.846C673.741 195.846 673.861 195.766 673.861 195.766C675.101 195.126 676.061 194.006 676.981 193.366C680.581 190.846 681.861 188.406 681.861 186.566C681.861 184.326 680.101 182.846 678.221 182.806ZM671.061 189.566C670.541 190.526 669.381 191.766 668.101 192.566C667.981 192.646 667.821 192.686 667.741 192.686C667.421 192.686 667.301 192.286 667.301 192.046C667.301 192.046 667.181 189.686 667.181 188.126C667.181 187.486 667.221 187.006 667.261 186.846C667.421 186.326 668.501 185.446 669.061 185.126C669.421 184.926 669.781 184.846 670.101 184.846C670.501 184.846 670.821 184.966 671.061 185.246C671.461 185.726 671.701 186.406 671.701 187.206C671.701 187.926 671.501 188.766 671.061 189.566ZM678.381 189.566C677.901 190.526 676.741 191.766 675.461 192.566C675.301 192.646 675.181 192.686 675.101 192.686C674.781 192.686 674.661 192.286 674.661 192.046C674.661 192.046 674.541 189.286 674.541 187.766C674.541 187.326 674.541 186.966 674.581 186.846C674.741 186.326 675.821 185.446 676.421 185.126C676.781 184.926 677.141 184.846 677.461 184.846C677.861 184.846 678.181 184.966 678.421 185.246C678.781 185.726 679.021 186.406 679.021 187.206C679.021 187.926 678.821 188.726 678.381 189.566Z"></path><path d="M681.861 198.726C681.861 198.766 681.901 198.886 681.901 198.886C681.981 198.886 682.021 198.886 682.021 198.846C686.461 196.406 688.381 192.886 688.381 188.846C688.381 184.766 686.381 181.286 682.021 178.886C682.021 178.886 682.021 178.846 682.021 178.846C681.901 178.846 681.861 178.926 681.861 179.006C681.861 179.166 681.861 179.446 681.861 179.446C681.861 179.446 681.861 179.646 681.981 179.766C684.661 181.726 686.021 184.406 686.021 188.846C686.021 193.286 684.541 195.926 682.021 197.966C681.901 198.006 681.861 198.086 681.861 198.206Z"></path></g></g><line stroke="#000000" stroke-width="1.2" x1="702.5810196487541" x2="702.5810196487541" y1="187.0061538461538" y2="149.0061538461538"></line></g><g><g><path d="M745.192 194.486C749.192 194.486 754.112 190.766 754.112 186.966C754.112 184.686 752.312 183.206 749.712 183.206C744.792 183.206 740.832 186.846 740.832 190.726C740.832 193.086 742.752 194.486 745.192 194.486Z"></path><path d="M734.912 182.806C734.712 182.806 734.552 182.806 734.352 182.846C733.872 182.966 733.432 183.206 733.032 183.446C732.752 183.606 732.432 183.966 732.072 183.966C731.992 183.966 731.912 183.966 731.872 183.926C731.592 183.846 731.472 183.566 731.472 183.246C731.472 182.406 731.712 172.766 731.712 172.006C731.712 171.566 731.352 171.366 730.952 171.366C730.432 171.366 729.792 171.726 729.712 172.406C729.712 172.406 729.752 177.886 729.832 183.446C729.232 183.046 728.552 182.806 727.792 182.806L727.552 182.806C727.352 182.806 727.152 182.806 726.992 182.846C726.512 182.966 726.072 183.206 725.672 183.446C725.352 183.606 725.072 183.966 724.712 183.966C724.632 183.966 724.592 183.966 724.512 183.926C724.232 183.846 724.072 183.566 724.072 183.246C724.072 182.406 724.352 172.766 724.352 172.006C724.352 171.566 723.992 171.366 723.592 171.366C723.032 171.366 722.392 171.726 722.352 172.406C722.352 172.406 722.552 195.286 722.832 195.646C722.952 195.806 723.072 195.846 723.192 195.846C723.312 195.846 723.432 195.766 723.432 195.766C724.672 195.126 725.672 194.006 726.592 193.326C728.072 192.286 729.192 191.206 729.952 190.246C730.032 193.246 730.112 195.526 730.232 195.646C730.352 195.806 730.472 195.846 730.552 195.846C730.672 195.846 730.792 195.766 730.792 195.766C732.032 195.126 732.992 194.006 733.912 193.366C737.512 190.846 738.792 188.406 738.792 186.566C738.792 184.326 737.032 182.846 735.152 182.806ZM727.992 189.566C727.472 190.526 726.312 191.766 725.032 192.566C724.912 192.646 724.752 192.686 724.672 192.686C724.352 192.686 724.232 192.286 724.232 192.046C724.232 192.046 724.112 189.686 724.112 188.126C724.112 187.486 724.152 187.006 724.192 186.846C724.352 186.326 725.432 185.446 725.992 185.126C726.352 184.926 726.712 184.846 727.032 184.846C727.432 184.846 727.752 184.966 727.992 185.246C728.392 185.726 728.632 186.406 728.632 187.206C728.632 187.926 728.432 188.766 727.992 189.566ZM735.312 189.566C734.832 190.526 733.672 191.766 732.392 192.566C732.232 192.646 732.112 192.686 732.032 192.686C731.712 192.686 731.592 192.286 731.592 192.046C731.592 192.046 731.472 189.286 731.472 187.766C731.472 187.326 731.472 186.966 731.512 186.846C731.672 186.326 732.752 185.446 733.352 185.126C733.712 184.926 734.072 184.846 734.392 184.846C734.792 184.846 735.112 184.966 735.352 185.246C735.712 185.726 735.952 186.406 735.952 187.206C735.952 187.926 735.752 188.726 735.312 189.566Z"></path></g><line stroke="#000000" stroke-width="1.2" x1="753.512004737932" x2="753.512004737932" y1="187.0061538461538" y2="149.0061538461538"></line></g><g><g><path d="M803.423 194.486C807.423 194.486 812.343 190.766 812.343 186.966C812.343 184.686 810.543 183.206 807.943 183.206C803.023 183.206 799.063 186.846 799.063 190.726C799.063 193.086 800.983 194.486 803.423 194.486Z"></path><g><path d="M774.103 198.206C774.103 198.086 774.063 198.006 773.943 197.966C771.423 195.926 769.943 193.286 769.943 188.846C769.943 184.406 771.303 181.726 773.983 179.766C774.103 179.646 774.103 179.446 774.103 179.446C774.103 179.446 774.103 179.166 774.103 179.006C774.103 178.926 774.063 178.846 773.943 178.846C773.943 178.846 773.943 178.886 773.943 178.886C769.583 181.286 767.583 184.766 767.583 188.846C767.583 192.886 769.503 196.406 773.943 198.846C773.943 198.886 773.983 198.886 774.063 198.886C774.063 198.886 774.103 198.766 774.103 198.726Z"></path><path d="M787.143 182.806C786.943 182.806 786.783 182.806 786.583 182.846C786.103 182.966 785.663 183.206 785.263 183.446C784.983 183.606 784.663 183.966 784.303 183.966C784.223 183.966 784.143 183.966 784.103 183.926C783.823 183.846 783.703 183.566 783.703 183.246C783.703 182.406 783.943 172.766 783.943 172.006C783.943 171.566 783.583 171.366 783.183 171.366C782.663 171.366 782.023 171.726 781.943 172.406C781.943 172.406 781.983 177.886 782.063 183.446C781.463 183.046 780.783 182.806 780.023 182.806L779.783 182.806C779.583 182.806 779.383 182.806 779.223 182.846C778.743 182.966 778.303 183.206 777.903 183.446C777.583 183.606 777.303 183.966 776.943 183.966C776.863 183.966 776.823 183.966 776.743 183.926C776.463 183.846 776.303 183.566 776.303 183.246C776.303 182.406 776.583 172.766 776.583 172.006C776.583 171.566 776.223 171.366 775.823 171.366C775.263 171.366 774.623 171.726 774.583 172.406C774.583 172.406 774.783 195.286 775.063 195.646C775.183 195.806 775.303 195.846 775.423 195.846C775.543 195.846 775.663 195.766 775.663 195.766C776.903 195.126 777.903 194.006 778.823 193.326C780.303 192.286 781.423 191.206 782.183 190.246C782.263 193.246 782.343 195.526 782.463 195.646C782.583 195.806 782.703 195.846 782.783 195.846C782.903 195.846 783.023 195.766 783.023 195.766C784.263 195.126 785.223 194.006 786.143 193.366C789.743 190.846 791.023 188.406 791.023 186.566C791.023 184.326 789.263 182.846 787.383 182.806ZM780.223 189.566C779.703 190.526 778.543 191.766 777.263 192.566C777.143 192.646 776.983 192.686 776.903 192.686C776.583 192.686 776.463 192.286 776.463 192.046C776.463 192.046 776.343 189.686 776.343 188.126C776.343 187.486 776.383 187.006 776.423 186.846C776.583 186.326 777.663 185.446 778.223 185.126C778.583 184.926 778.943 184.846 779.263 184.846C779.663 184.846 779.983 184.966 780.223 185.246C780.623 185.726 780.863 186.406 780.863 187.206C780.863 187.926 780.663 188.766 780.223 189.566ZM787.543 189.566C787.063 190.526 785.903 191.766 784.623 192.566C784.463 192.646 784.343 192.686 784.263 192.686C783.943 192.686 783.823 192.286 783.823 192.046C783.823 192.046 783.703 189.286 783.703 187.766C783.703 187.326 783.703 186.966 783.743 186.846C783.903 186.326 784.983 185.446 785.583 185.126C785.943 184.926 786.303 184.846 786.623 184.846C787.023 184.846 787.343 184.966 787.583 185.246C787.943 185.726 788.183 186.406 788.183 187.206C788.183 187.926 787.983 188.726 787.543 189.566Z"></path><path d="M791.023 198.726C791.023 198.766 791.063 198.886 791.063 198.886C791.143 198.886 791.183 198.886 791.183 198.846C795.623 196.406 797.543 192.886 797.543 188.846C797.543 184.766 795.543 181.286 791.183 178.886C791.183 178.886 791.183 178.846 791.183 178.846C791.063 178.846 791.023 178.926 791.023 179.006C791.023 179.166 791.023 179.446 791.023 179.446C791.023 179.446 791.023 179.646 791.143 179.766C793.823 181.726 795.183 184.406 795.183 188.846C795.183 193.286 793.703 195.926 791.183 197.966C791.063 198.006 791.023 198.086 791.023 198.206Z"></path></g></g><line stroke="#000000" stroke-width="1.2" x1="811.7429898271098" x2="811.7429898271098" y1="187.0061538461538" y2="149.0061538461538"></line></g></g><g><g></g><g><line stroke="black" stroke-width="1.6" x1="1059.0875152729989" x2="1059.0875152729989" y1="143.8461538461538" y2="183.8461538461538"></line><line stroke="black" stroke-width="5" x1="1066.3875152729988" x2="1066.3875152729988" y1="143.8461538461538" y2="183.8461538461538"></line></g><g><g><path d="M867.669 199.486C871.669 199.486 876.589 195.766 876.589 191.966C876.589 189.686 874.789 188.206 872.189 188.206C867.269 188.206 863.309 191.846 863.309 195.726C863.309 198.086 865.229 199.486 867.669 199.486Z"></path><path d="M856.929 195.126C856.489 194.886 855.049 194.326 855.049 193.806C855.049 193.246 856.369 192.646 856.929 192.446C857.089 192.446 857.249 192.486 857.409 192.486C858.049 192.486 858.649 192.326 858.929 192.086C859.129 191.886 859.209 191.286 859.209 190.646C859.209 189.966 859.089 189.246 858.929 189.046C858.769 188.846 858.129 188.766 857.449 188.766C856.729 188.766 856.009 188.846 855.809 189.046C855.649 189.166 855.609 189.886 855.609 190.606C855.409 191.046 854.849 192.486 854.289 192.486C853.729 192.486 853.089 191.166 852.929 190.606C852.929 189.926 852.809 189.206 852.609 189.046C852.449 188.846 851.809 188.766 851.169 188.766C850.489 188.766 849.769 188.846 849.529 189.046C849.409 189.126 849.329 189.806 849.329 190.526C849.329 191.246 849.409 191.966 849.529 192.086C849.809 192.326 850.529 192.486 851.209 192.486C851.369 192.486 851.489 192.446 851.609 192.446C852.049 192.686 853.489 193.246 853.489 193.766C853.489 194.286 852.209 194.926 851.649 195.126L851.249 195.126C850.529 195.126 849.769 195.206 849.529 195.406C849.409 195.526 849.329 196.206 849.329 196.926C849.329 197.646 849.409 198.366 849.529 198.446C849.809 198.686 850.449 198.846 851.129 198.846C851.729 198.846 852.369 198.726 852.609 198.446C852.849 198.246 852.929 197.566 852.929 196.926C852.929 196.886 852.969 196.806 853.009 196.766C853.249 196.206 853.729 195.086 854.249 195.086C854.769 195.086 855.449 196.366 855.609 196.926C855.609 197.646 855.649 198.326 855.809 198.446C856.089 198.686 856.729 198.846 857.409 198.846C858.049 198.846 858.649 198.726 858.929 198.446C859.129 198.246 859.209 197.646 859.209 197.006C859.209 196.326 859.089 195.606 858.929 195.406C858.729 195.206 858.009 195.126 857.329 195.126Z"></path></g><line stroke="#000000" stroke-width="1.2" x1="875.9889749162877" x2="875.9889749162877" y1="192.0061538461538" y2="157.0061538461538"></line><line stroke="#000000" stroke-width="2.2" x1="860.1089749162877" x2="882.0289749162877" y1="193.8461538461538" y2="193.8461538461538"></line></g><g><g><path d="M922.615 199.486C926.615 199.486 931.535 195.766 931.535 191.966C931.535 189.686 929.735 188.206 927.135 188.206C922.215 188.206 918.255 191.846 918.255 195.726C918.255 198.086 920.175 199.486 922.615 199.486Z"></path><g><path d="M897.795 203.206C897.795 203.086 897.755 203.006 897.635 202.966C895.115 200.926 893.635 198.286 893.635 193.846C893.635 189.406 894.995 186.726 897.675 184.766C897.795 184.646 897.795 184.446 897.795 184.446C897.795 184.446 897.795 184.166 897.795 184.006C897.795 183.926 897.755 183.846 897.635 183.846C897.635 183.846 897.635 183.886 897.635 183.886C893.275 186.286 891.275 189.766 891.275 193.846C891.275 197.886 893.195 201.406 897.635 203.846C897.635 203.886 897.675 203.886 897.755 203.886C897.755 203.886 897.795 203.766 897.795 203.726Z"></path><path d="M905.875 195.126C905.435 194.886 903.995 194.326 903.995 193.806C903.995 193.246 905.315 192.646 905.875 192.446C906.035 192.446 906.195 192.486 906.355 192.486C906.995 192.486 907.595 192.326 907.875 192.086C908.075 191.886 908.155 191.286 908.155 190.646C908.155 189.966 908.035 189.246 907.875 189.046C907.715 188.846 907.075 188.766 906.395 188.766C905.675 188.766 904.955 188.846 904.755 189.046C904.595 189.166 904.555 189.886 904.555 190.606C904.355 191.046 903.795 192.486 903.235 192.486C902.675 192.486 902.035 191.166 901.875 190.606C901.875 189.926 901.755 189.206 901.555 189.046C901.395 188.846 900.755 188.766 900.115 188.766C899.435 188.766 898.715 188.846 898.475 189.046C898.355 189.126 898.275 189.806 898.275 190.526C898.275 191.246 898.355 191.966 898.475 192.086C898.755 192.326 899.475 192.486 900.155 192.486C900.315 192.486 900.435 192.446 900.555 192.446C900.995 192.686 902.435 193.246 902.435 193.766C902.435 194.286 901.155 194.926 900.595 195.126L900.195 195.126C899.475 195.126 898.715 195.206 898.475 195.406C898.355 195.526 898.275 196.206 898.275 196.926C898.275 197.646 898.355 198.366 898.475 198.446C898.755 198.686 899.395 198.846 900.075 198.846C900.675 198.846 901.315 198.726 901.555 198.446C901.795 198.246 901.875 197.566 901.875 196.926C901.875 196.886 901.915 196.806 901.955 196.766C902.195 196.206 902.675 195.086 903.195 195.086C903.715 195.086 904.395 196.366 904.555 196.926C904.555 197.646 904.595 198.326 904.755 198.446C905.035 198.686 905.675 198.846 906.355 198.846C906.995 198.846 907.595 198.726 907.875 198.446C908.075 198.246 908.155 197.646 908.155 197.006C908.155 196.326 908.035 195.606 907.875 195.406C907.675 195.206 906.955 195.126 906.275 195.126Z"></path><path d="M908.155 203.726C908.155 203.766 908.195 203.886 908.195 203.886C908.275 203.886 908.315 203.886 908.315 203.846C912.755 201.406 914.675 197.886 914.675 193.846C914.675 189.766 912.675 186.286 908.315 183.886C908.315 183.886 908.315 183.846 908.315 183.846C908.195 183.846 908.155 183.926 908.155 184.006C908.155 184.166 908.155 184.446 908.155 184.446C908.155 184.446 908.155 184.646 908.275 184.766C910.955 186.726 912.315 189.406 912.315 193.846C912.315 198.286 910.835 200.926 908.315 202.966C908.195 203.006 908.155 203.086 908.155 203.206Z"></path></g></g><line stroke="#000000" stroke-width="1.2" x1="930.9349600054654" x2="930.9349600054654" y1="192.0061538461538" y2="157.0061538461538"></line><line stroke="#000000" stroke-width="2.2" x1="915.0549600054654" x2="936.9749600054654" y1="193.8461538461538" y2="193.8461538461538"></line></g><g><g><path d="M970.261 199.486C974.261 199.486 979.181 195.766 979.181 191.966C979.181 189.686 977.381 188.206 974.781 188.206C969.861 188.206 965.901 191.846 965.901 195.726C965.901 198.086 967.821 199.486 970.261 199.486Z"></path><path d="M959.521 195.126C959.081 194.886 957.641 194.326 957.641 193.806C957.641 193.246 958.961 192.646 959.521 192.446C959.681 192.446 959.841 192.486 960.001 192.486C960.641 192.486 961.241 192.326 961.521 192.086C961.721 191.886 961.801 191.286 961.801 190.646C961.801 189.966 961.681 189.246 961.521 189.046C961.361 188.846 960.721 188.766 960.041 188.766C959.321 188.766 958.601 188.846 958.401 189.046C958.241 189.166 958.201 189.886 958.201 190.606C958.001 191.046 957.441 192.486 956.881 192.486C956.321 192.486 955.681 191.166 955.521 190.606C955.521 189.926 955.401 189.206 955.201 189.046C955.041 188.846 954.401 188.766 953.761 188.766C953.081 188.766 952.361 188.846 952.121 189.046C952.001 189.126 951.921 189.806 951.921 190.526C951.921 191.246 952.001 191.966 952.121 192.086C952.401 192.326 953.121 192.486 953.801 192.486C953.961 192.486 954.081 192.446 954.201 192.446C954.641 192.686 956.081 193.246 956.081 193.766C956.081 194.286 954.801 194.926 954.241 195.126L953.841 195.126C953.121 195.126 952.361 195.206 952.121 195.406C952.001 195.526 951.921 196.206 951.921 196.926C951.921 197.646 952.001 198.366 952.121 198.446C952.401 198.686 953.041 198.846 953.721 198.846C954.321 198.846 954.961 198.726 955.201 198.446C955.441 198.246 955.521 197.566 955.521 196.926C955.521 196.886 955.561 196.806 955.601 196.766C955.841 196.206 956.321 195.086 956.841 195.086C957.361 195.086 958.041 196.366 958.201 196.926C958.201 197.646 958.241 198.326 958.401 198.446C958.681 198.686 959.321 198.846 960.001 198.846C960.641 198.846 961.241 198.726 961.521 198.446C961.721 198.246 961.801 197.646 961.801 197.006C961.801 196.326 961.681 195.606 961.521 195.406C961.321 195.206 960.601 195.126 959.921 195.126Z"></path></g><line stroke="#000000" stroke-width="1.2" x1="978.5809450946433" x2="978.5809450946433" y1="192.0061538461538" y2="157.0061538461538"></line><line stroke="#000000" stroke-width="2.2" x1="962.7009450946433" x2="984.6209450946433" y1="193.8461538461538" y2="193.8461538461538"></line></g><g><g><path d="M1025.207 199.486C1029.207 199.486 1034.127 195.766 1034.127 191.966C1034.127 189.686 1032.327 188.206 1029.727 188.206C1024.807 188.206 1020.847 191.846 1020.847 195.726C1020.847 198.086 1022.767 199.486 1025.207 199.486Z"></path><g><path d="M1000.387 203.206C1000.387 203.086 1000.347 203.006 1000.227 202.966C997.707 200.926 996.227 198.286 996.227 193.846C996.227 189.406 997.587 186.726 1000.267 184.766C1000.387 184.646 1000.387 184.446 1000.387 184.446C1000.387 184.446 1000.387 184.166 1000.387 184.006C1000.387 183.926 1000.347 183.846 1000.227 183.846C1000.227 183.846 1000.227 183.886 1000.227 183.886C995.867 186.286 993.867 189.766 993.867 193.846C993.867 197.886 995.787 201.406 1000.227 203.846C1000.227 203.886 1000.267 203.886 1000.347 203.886C1000.347 203.886 1000.387 203.766 1000.387 203.726Z"></path><path d="M1008.467 195.126C1008.027 194.886 1006.587 194.326 1006.587 193.806C1006.587 193.246 1007.907 192.646 1008.467 192.446C1008.627 192.446 1008.787 192.486 1008.947 192.486C1009.587 192.486 1010.187 192.326 1010.467 192.086C1010.667 191.886 1010.747 191.286 1010.747 190.646C1010.747 189.966 1010.627 189.246 1010.467 189.046C1010.307 188.846 1009.667 188.766 1008.987 188.766C1008.267 188.766 1007.547 188.846 1007.347 189.046C1007.187 189.166 1007.147 189.886 1007.147 190.606C1006.947 191.046 1006.387 192.486 1005.827 192.486C1005.267 192.486 1004.627 191.166 1004.467 190.606C1004.467 189.926 1004.347 189.206 1004.147 189.046C1003.987 188.846 1003.347 188.766 1002.707 188.766C1002.027 188.766 1001.307 188.846 1001.067 189.046C1000.947 189.126 1000.867 189.806 1000.867 190.526C1000.867 191.246 1000.947 191.966 1001.067 192.086C1001.347 192.326 1002.067 192.486 1002.747 192.486C1002.907 192.486 1003.027 192.446 1003.147 192.446C1003.587 192.686 1005.027 193.246 1005.027 193.766C1005.027 194.286 1003.747 194.926 1003.187 195.126L1002.787 195.126C1002.067 195.126 1001.307 195.206 1001.067 195.406C1000.947 195.526 1000.867 196.206 1000.867 196.926C1000.867 197.646 1000.947 198.366 1001.067 198.446C1001.347 198.686 1001.987 198.846 1002.667 198.846C1003.267 198.846 1003.907 198.726 1004.147 198.446C1004.387 198.246 1004.467 197.566 1004.467 196.926C1004.467 196.886 1004.507 196.806 1004.547 196.766C1004.787 196.206 1005.267 195.086 1005.787 195.086C1006.307 195.086 1006.987 196.366 1007.147 196.926C1007.147 197.646 1007.187 198.326 1007.347 198.446C1007.627 198.686 1008.267 198.846 1008.947 198.846C1009.587 198.846 1010.187 198.726 1010.467 198.446C1010.667 198.246 1010.747 197.646 1010.747 197.006C1010.747 196.326 1010.627 195.606 1010.467 195.406C1010.267 195.206 1009.547 195.126 1008.867 195.126Z"></path><path d="M1010.747 203.726C1010.747 203.766 1010.787 203.886 1010.787 203.886C1010.867 203.886 1010.907 203.886 1010.907 203.846C1015.347 201.406 1017.267 197.886 1017.267 193.846C1017.267 189.766 1015.267 186.286 1010.907 183.886C1010.907 183.886 1010.907 183.846 1010.907 183.846C1010.787 183.846 1010.747 183.926 1010.747 184.006C1010.747 184.166 1010.747 184.446 1010.747 184.446C1010.747 184.446 1010.747 184.646 1010.867 184.766C1013.547 186.726 1014.907 189.406 1014.907 193.846C1014.907 198.286 1013.427 200.926 1010.907 202.966C1010.787 203.006 1010.747 203.086 1010.747 203.206Z"></path></g></g><line stroke="#000000" stroke-width="1.2" x1="1033.5269301838212" x2="1033.5269301838212" y1="192.0061538461538" y2="157.0061538461538"></line><line stroke="#000000" stroke-width="2.2" x1="1017.6469301838212" x2="1039.5669301838211" y1="193.8461538461538" y2="193.8461538461538"></line></g></g></svg>