<?xml version="1.0" encoding="UTF-8" standalone="no"?><svg xmlns="http://www.w3.org/2000/svg" height="279.4mm" viewBox="0 0 1328.6153846153845 1719.3846153846152" width="215.9mm"><g transform="translate(93.84615384615385)"><g><g><line stroke="#6A6A6A" stroke-width="1.3" x1="0" x2="1140.923076923077" y1="183.8461538461538" y2="183.8461538461538"></line><line stroke="#6A6A6A" stroke-width="1.3" x1="0" x2="1140.923076923077" y1="173.8461538461538" y2="173.8461538461538"></line><line stroke="#6A6A6A" stroke-width="1.3" x1="0" x2="1140.923076923077" y1="163.8461538461538" y2="163.8461538461538"></line><line stroke="#6A6A6A" stroke-width="1.3" x1="0" x2="1140.923076923077" y1="153.8461538461538" y2="153.8461538461538"></line><line stroke="#6A6A6A" stroke-width="1.3" x1="0" x2="1140.923076923077" y1="143.8461538461538" y2="143.8461538461538"></line></g><g><path d="M25.200 129.926C24.640 129.926 23.400 130.966 22.600 131.846C19.640 135.126 18.680 140.126 18.680 144.286C18.680 146.606 18.960 149.206 19.240 150.846C19.320 151.326 19.360 151.406 18.880 151.806C16.320 153.926 13.560 156.366 11.480 158.926C8.720 162.366 7 166.086 7 170.366C7 177.326 11.760 183.926 21.560 183.926C22.480 183.926 23.520 183.846 24.320 183.686C24.760 183.606 24.840 183.566 24.920 184.046C25.400 186.726 26 190.206 26 192.086C26 198.006 22 198.726 19.640 198.726C17.480 198.726 16.440 198.086 16.440 197.566C16.440 197.126 16.800 197.166 17.720 196.886C18.960 196.526 20.400 195.446 20.400 193.126C20.400 190.926 19 189.046 16.560 189.046C13.880 189.046 12.280 191.166 12.280 193.646C12.280 196.246 13.840 200.166 19.880 200.166C22.560 200.166 27.760 198.966 27.760 192.166C27.760 189.886 27.040 186.086 26.600 183.606C26.520 183.126 26.560 183.166 27.120 182.926C31.160 181.326 33.840 177.926 33.840 173.406C33.840 168.286 30.080 163.766 24.200 163.766C23.080 163.766 23.200 163.966 23.040 163.046L22.040 157.246C21.960 156.766 22.040 156.726 22.280 156.486C22.920 155.886 23.760 155.046 24.520 154.206C27.880 150.526 29.880 145.766 29.880 141.246C29.880 137.766 28.920 134.326 27.280 131.926C26.680 131.046 25.640 129.926 25.200 129.926ZM20.040 158.086C20.440 157.766 20.520 157.806 20.600 158.246L21.440 163.366C21.560 164.126 21.560 164.086 20.840 164.326C17.320 165.526 15.040 168.686 15.040 172.086C15.040 175.686 16.920 178.246 19.640 179.166C19.960 179.286 20.440 179.406 20.720 179.406C21.040 179.406 21.200 179.206 21.200 178.966C21.200 178.686 20.880 178.566 20.600 178.446C18.920 177.726 17.720 176.006 17.720 174.166C17.720 171.886 19.280 170.166 21.720 169.486C22.360 169.326 22.440 169.366 22.520 169.806L24.520 181.726C24.600 182.166 24.560 182.166 23.960 182.286C23.320 182.406 22.520 182.486 21.720 182.486C14.720 182.486 10.200 178.606 10.200 173.046C10.200 170.686 10.600 167.526 13.920 163.766C16.320 161.086 18.160 159.606 20.040 158.086ZM24.640 169.166C27.880 169.446 30.560 172.166 30.560 175.686C30.560 178.206 29.040 180.246 26.800 181.366C26.320 181.606 26.240 181.606 26.160 181.126L24.200 169.726C24.120 169.246 24.160 169.126 24.640 169.166ZM25.800 136.126C27.120 136.126 28.200 137.206 28.200 139.406C28.200 142.166 26.880 144.726 23.760 147.846C23.120 148.486 22.160 149.406 21.240 150.206C20.960 150.446 20.800 150.406 20.720 149.886C20.560 148.846 20.480 147.486 20.480 146.206C20.480 139.966 23.360 136.126 25.800 136.126Z"></path></g><g></g><g><g><path d="M47.620 153.326C47.620 153.326 47.460 153.566 47.460 153.846C47.460 154.046 47.580 154.286 47.900 154.406C48.060 154.446 48.140 154.486 48.260 154.486C48.660 154.486 48.820 154.126 48.820 154.126C48.820 154.126 50.540 151.366 50.980 150.606C51.140 150.326 51.300 150.206 51.380 150.206C51.540 150.206 51.620 150.526 51.620 150.766L51.620 161.086C51.620 162.006 50.700 162.606 49.860 162.606C49.580 162.606 49.180 162.726 49.180 163.206C49.180 163.646 49.540 163.846 50.060 163.846L58.580 163.846C59.220 163.846 59.220 163.206 59.220 163.206C59.220 163.206 59.220 162.606 58.620 162.606C58.060 162.606 57.340 161.886 57.340 161.206C57.340 161.206 57.340 145.366 57.340 144.726C57.340 144.086 57.100 143.846 56.540 143.806C55.980 143.806 54.980 143.966 54.460 143.966C53.700 143.966 52.980 143.926 52.380 143.846C52.300 143.846 52.220 143.806 52.180 143.806C51.740 143.806 51.620 144.206 51.460 144.566Z"></path><path d="M70.060 149.846C70.540 150.326 71.220 150.526 71.860 150.526C72.180 150.526 72.540 150.446 72.860 150.366C74.100 150.046 75.060 148.766 75.060 147.486C75.060 147.326 75.060 147.206 75.020 147.046C74.820 145.726 73.700 144.766 72.500 144.326C71.540 143.926 70.380 143.806 69.340 143.806C66.300 143.846 63.460 145.326 62.020 148.046C61.140 149.726 60.460 151.846 60.460 153.726L60.460 153.886C60.500 155.726 60.820 157.806 61.700 159.406C62.540 160.926 63.900 162.566 65.460 163.246C66.460 163.686 67.660 163.806 68.660 163.806C70.460 163.806 72.460 163.526 73.900 162.366C75.300 161.246 76.220 159.446 76.220 157.646C76.220 157.446 76.180 157.286 76.180 157.086C76.020 155.446 75.020 154.046 73.740 153.086C72.660 152.286 71.420 151.846 70.180 151.846C68.900 151.846 67.580 152.326 66.540 153.246C66.460 153.326 66.380 153.326 66.300 153.326C66.060 153.326 65.940 153.006 65.940 152.366C66.060 144.966 68.420 144.766 69.260 144.766C70.060 144.766 70.580 144.966 70.580 145.366C70.580 145.926 69.820 146.406 69.580 146.886C69.380 147.246 69.300 147.646 69.300 148.046C69.300 148.646 69.500 149.246 69.900 149.686C69.940 149.766 70.020 149.806 70.060 149.846ZM68.540 153.766C69.820 153.766 70.900 155.766 70.900 158.246C70.900 160.726 69.820 162.726 68.540 162.726C67.260 162.726 66.220 160.726 66.220 158.246C66.220 155.766 67.260 153.766 68.540 153.766Z"></path></g><g><path d="M72.180 176.806L69.260 176.806L69.260 168.246C69.260 167.926 69.220 167.566 68.780 167.566C68.420 167.566 68.220 167.646 67.980 167.926L64.180 172.526C64.020 172.726 63.820 172.966 63.820 173.446C63.820 173.446 63.820 175.046 63.820 176.806L58.420 176.806C61.620 174.086 68.020 165.006 68.140 164.566C68.140 164.486 68.180 164.446 68.180 164.366C68.180 164.046 67.900 163.806 67.580 163.806C67.220 163.806 65.580 163.886 64.860 163.886C64.140 163.886 62.340 163.806 62.020 163.806C61.660 163.806 61.100 163.926 61.100 164.566C61.100 169.526 57.180 175.086 55.980 176.766L55.740 177.086C55.740 177.126 55.700 177.166 55.700 177.206C55.620 177.366 55.580 177.526 55.580 177.646C55.580 178.046 55.900 178.326 56.380 178.326L63.820 178.326L63.820 180.846C63.820 181.926 62.940 182.246 62.220 182.246C61.580 182.246 61.300 182.606 61.300 183.006C61.300 183.406 61.460 183.846 62.060 183.846C62.700 183.846 70.580 183.846 70.580 183.846C70.980 183.846 71.380 183.566 71.380 183.006C71.380 182.446 70.900 182.206 70.500 182.206C70.100 182.206 69.260 181.966 69.260 180.686L69.260 178.326C70.980 178.326 72.180 178.326 72.180 178.326C72.580 178.326 72.780 178.046 72.780 177.566C72.780 177.086 72.620 176.806 72.180 176.806Z"></path></g></g></g><g><line stroke="black" stroke-width="1.6" x1="1140.1230769230767" x2="1140.1230769230767" y1="143.8461538461538" y2="183.8461538461538"></line></g><g><g><path d="M90.360 165.406L90.360 152.486C90.360 152.326 90.200 152.166 89.960 152.166L89.400 152.166C89.160 152.166 89 152.326 89 152.486L89 165.406C89 165.566 89.160 165.686 89.400 165.686L89.960 165.686C90.200 165.686 90.360 165.566 90.360 165.406ZM92.880 165.406L92.880 152.486C92.880 152.326 92.680 152.166 92.480 152.166L91.920 152.166C91.680 152.166 91.520 152.326 91.520 152.486L91.520 165.406C91.520 165.566 91.680 165.686 91.920 165.686L92.480 165.686C92.680 165.686 92.880 165.566 92.880 165.406ZM102.280 153.486C96.520 153.486 92.920 155.926 92.920 158.926C92.920 161.766 95.400 164.406 101.840 164.406C108.960 164.406 111.240 161.926 111.240 158.926C111.240 155.806 106.360 153.486 102.280 153.486ZM97.720 156.206C98.200 154.726 99.800 154.526 101.160 154.526C104.120 154.526 106.520 157.686 106.520 160.326C106.520 160.606 106.480 160.886 106.440 161.126C106.240 162.206 105.600 162.966 104.520 163.246C104.120 163.366 103.680 163.406 103.240 163.406C102.840 163.406 102.480 163.366 102.080 163.246C101.320 163.006 100.600 162.606 100 162.086C99.680 161.806 99.360 161.446 99.080 161.126C98.280 160.086 97.600 158.606 97.600 157.206C97.600 156.846 97.640 156.526 97.720 156.206ZM112.680 165.406L112.680 152.486C112.680 152.326 112.480 152.166 112.280 152.166L111.680 152.166C111.480 152.166 111.280 152.326 111.280 152.486L111.280 165.406C111.280 165.566 111.480 165.686 111.680 165.686L112.280 165.686C112.480 165.686 112.680 165.566 112.680 165.406ZM115.200 165.406L115.200 152.486C115.200 152.326 115 152.166 114.760 152.166L114.200 152.166C114 152.166 113.760 152.326 113.760 152.486L113.760 165.406C113.760 165.566 114 165.686 114.200 165.686L114.760 165.686C115 165.686 115.200 165.566 115.200 165.406Z"></path></g></g></g><g transform="translate(93.84615384615385)"><g><g><line stroke="#6A6A6A" stroke-width="1.3" x1="0" x2="1140.923076923077" y1="314.8461538461538" y2="314.8461538461538"></line><line stroke="#6A6A6A" stroke-width="1.3" x1="0" x2="1140.923076923077" y1="304.8461538461538" y2="304.8461538461538"></line><line stroke="#6A6A6A" stroke-width="1.3" x1="0" x2="1140.923076923077" y1="294.8461538461538" y2="294.8461538461538"></line><line stroke="#6A6A6A" stroke-width="1.3" x1="0" x2="1140.923076923077" y1="284.8461538461538" y2="284.8461538461538"></line><line stroke="#6A6A6A" stroke-width="1.3" x1="0" x2="1140.923076923077" y1="274.8461538461538" y2="274.8461538461538"></line></g><g><path d="M25.200 260.926C24.640 260.926 23.400 261.966 22.600 262.846C19.640 266.126 18.680 271.126 18.680 275.286C18.680 277.606 18.960 280.206 19.240 281.846C19.320 282.326 19.360 282.406 18.880 282.806C16.320 284.926 13.560 287.366 11.480 289.926C8.720 293.366 7 297.086 7 301.366C7 308.326 11.760 314.926 21.560 314.926C22.480 314.926 23.520 314.846 24.320 314.686C24.760 314.606 24.840 314.566 24.920 315.046C25.400 317.726 26 321.206 26 323.086C26 329.006 22 329.726 19.640 329.726C17.480 329.726 16.440 329.086 16.440 328.566C16.440 328.126 16.800 328.166 17.720 327.886C18.960 327.526 20.400 326.446 20.400 324.126C20.400 321.926 19 320.046 16.560 320.046C13.880 320.046 12.280 322.166 12.280 324.646C12.280 327.246 13.840 331.166 19.880 331.166C22.560 331.166 27.760 329.966 27.760 323.166C27.760 320.886 27.040 317.086 26.600 314.606C26.520 314.126 26.560 314.166 27.120 313.926C31.160 312.326 33.840 308.926 33.840 304.406C33.840 299.286 30.080 294.766 24.200 294.766C23.080 294.766 23.200 294.966 23.040 294.046L22.040 288.246C21.960 287.766 22.040 287.726 22.280 287.486C22.920 286.886 23.760 286.046 24.520 285.206C27.880 281.526 29.880 276.766 29.880 272.246C29.880 268.766 28.920 265.326 27.280 262.926C26.680 262.046 25.640 260.926 25.200 260.926ZM20.040 289.086C20.440 288.766 20.520 288.806 20.600 289.246L21.440 294.366C21.560 295.126 21.560 295.086 20.840 295.326C17.320 296.526 15.040 299.686 15.040 303.086C15.040 306.686 16.920 309.246 19.640 310.166C19.960 310.286 20.440 310.406 20.720 310.406C21.040 310.406 21.200 310.206 21.200 309.966C21.200 309.686 20.880 309.566 20.600 309.446C18.920 308.726 17.720 307.006 17.720 305.166C17.720 302.886 19.280 301.166 21.720 300.486C22.360 300.326 22.440 300.366 22.520 300.806L24.520 312.726C24.600 313.166 24.560 313.166 23.960 313.286C23.320 313.406 22.520 313.486 21.720 313.486C14.720 313.486 10.200 309.606 10.200 304.046C10.200 301.686 10.600 298.526 13.920 294.766C16.320 292.086 18.160 290.606 20.040 289.086ZM24.640 300.166C27.880 300.446 30.560 303.166 30.560 306.686C30.560 309.206 29.040 311.246 26.800 312.366C26.320 312.606 26.240 312.606 26.160 312.126L24.200 300.726C24.120 300.246 24.160 300.126 24.640 300.166ZM25.800 267.126C27.120 267.126 28.200 268.206 28.200 270.406C28.200 273.166 26.880 275.726 23.760 278.846C23.120 279.486 22.160 280.406 21.240 281.206C20.960 281.446 20.800 281.406 20.720 280.886C20.560 279.846 20.480 278.486 20.480 277.206C20.480 270.966 23.360 267.126 25.800 267.126Z"></path></g><g></g><text font-family='Alegreya' font-style='italic' text-anchor='end' stroke='#7a7a7a' font-size="24" x="0" y="264.8461538461538">2</text></g><g><line stroke="black" stroke-width="1.6" x1="1099.623076923077" x2="1099.623076923077" y1="274.8461538461538" y2="314.8461538461538"></line><g><g><g><path d="M1124.783 288.486C1124.783 288.006 1124.583 287.926 1124.303 287.926C1123.983 287.926 1123.863 288.086 1123.783 288.326C1123.783 288.366 1123.743 288.406 1123.743 288.446C1123.343 289.406 1123.023 290.166 1122.183 290.166C1121.983 290.166 1121.783 290.126 1121.503 290.046C1120.983 289.846 1120.703 289.806 1120.303 289.606C1119.503 289.286 1117.623 288.646 1115.983 288.646C1115.463 288.646 1114.943 288.726 1114.503 288.886C1115.383 287.446 1118.783 286.246 1119.663 286.006C1120.263 285.846 1121.943 285.526 1123.263 284.446C1124.223 283.686 1124.983 282.526 1124.983 280.766C1124.983 278.886 1124.183 277.526 1123.143 276.646C1121.103 274.926 1117.983 274.686 1117.103 274.686C1116.023 274.686 1114.663 274.726 1113.623 274.966C1112.223 275.246 1110.823 276.086 1109.863 277.206C1109.183 278.046 1108.743 279.046 1108.743 280.126C1108.743 280.686 1108.863 281.246 1109.103 281.846C1109.703 283.086 1110.943 284.046 1112.383 284.046C1114.823 284.046 1115.183 281.526 1115.183 280.526C1115.183 278.126 1112.423 278.006 1112.423 277.206C1112.503 276.646 1113.223 275.686 1115.583 275.686C1119.143 275.686 1119.183 278.366 1119.183 279.526C1119.183 281.046 1118.703 282.446 1117.823 283.606C1116.383 285.526 1115.263 286.486 1113.303 287.686C1111.103 289.086 1109.543 291.046 1108.863 293.566C1108.863 293.646 1108.823 293.726 1108.823 293.806C1108.823 294.246 1109.103 294.766 1109.543 295.046C1109.663 295.126 1109.783 295.126 1109.863 295.126C1110.743 295.126 1111.223 292.686 1113.583 292.686C1115.183 292.686 1115.783 294.846 1119.343 294.846C1121.063 294.846 1124.143 294.686 1124.783 288.486Z"></path><path d="M1137.103 287.806L1134.183 287.806L1134.183 279.246C1134.183 278.926 1134.143 278.566 1133.703 278.566C1133.343 278.566 1133.143 278.646 1132.903 278.926L1129.103 283.526C1128.943 283.726 1128.743 283.966 1128.743 284.446C1128.743 284.446 1128.743 286.046 1128.743 287.806L1123.343 287.806C1126.543 285.086 1132.943 276.006 1133.063 275.566C1133.063 275.486 1133.103 275.446 1133.103 275.366C1133.103 275.046 1132.823 274.806 1132.503 274.806C1132.143 274.806 1130.503 274.886 1129.783 274.886C1129.063 274.886 1127.263 274.806 1126.943 274.806C1126.583 274.806 1126.023 274.926 1126.023 275.566C1126.023 280.526 1122.103 286.086 1120.903 287.766L1120.663 288.086C1120.663 288.126 1120.623 288.166 1120.623 288.206C1120.543 288.366 1120.503 288.526 1120.503 288.646C1120.503 289.046 1120.823 289.326 1121.303 289.326L1128.743 289.326L1128.743 291.846C1128.743 292.926 1127.863 293.246 1127.143 293.246C1126.503 293.246 1126.223 293.606 1126.223 294.006C1126.223 294.406 1126.383 294.846 1126.983 294.846C1127.623 294.846 1135.503 294.846 1135.503 294.846C1135.903 294.846 1136.303 294.566 1136.303 294.006C1136.303 293.446 1135.823 293.206 1135.423 293.206C1135.023 293.206 1134.183 292.966 1134.183 291.686L1134.183 289.326C1135.903 289.326 1137.103 289.326 1137.103 289.326C1137.503 289.326 1137.703 289.046 1137.703 288.566C1137.703 288.086 1137.543 287.806 1137.103 287.806Z"></path></g><g><path d="M1132.103 307.806L1129.183 307.806L1129.183 299.246C1129.183 298.926 1129.143 298.566 1128.703 298.566C1128.343 298.566 1128.143 298.646 1127.903 298.926L1124.103 303.526C1123.943 303.726 1123.743 303.966 1123.743 304.446C1123.743 304.446 1123.743 306.046 1123.743 307.806L1118.343 307.806C1121.543 305.086 1127.943 296.006 1128.063 295.566C1128.063 295.486 1128.103 295.446 1128.103 295.366C1128.103 295.046 1127.823 294.806 1127.503 294.806C1127.143 294.806 1125.503 294.886 1124.783 294.886C1124.063 294.886 1122.263 294.806 1121.943 294.806C1121.583 294.806 1121.023 294.926 1121.023 295.566C1121.023 300.526 1117.103 306.086 1115.903 307.766L1115.663 308.086C1115.663 308.126 1115.623 308.166 1115.623 308.206C1115.543 308.366 1115.503 308.526 1115.503 308.646C1115.503 309.046 1115.823 309.326 1116.303 309.326L1123.743 309.326L1123.743 311.846C1123.743 312.926 1122.863 313.246 1122.143 313.246C1121.503 313.246 1121.223 313.606 1121.223 314.006C1121.223 314.406 1121.383 314.846 1121.983 314.846C1122.623 314.846 1130.503 314.846 1130.503 314.846C1130.903 314.846 1131.303 314.566 1131.303 314.006C1131.303 313.446 1130.823 313.206 1130.423 313.206C1130.023 313.206 1129.183 312.966 1129.183 311.686L1129.183 309.326C1130.903 309.326 1132.103 309.326 1132.103 309.326C1132.503 309.326 1132.703 309.046 1132.703 308.566C1132.703 308.086 1132.543 307.806 1132.103 307.806Z"></path></g></g></g></g><g><g><path d="M49.860 296.406L49.860 283.486C49.860 283.326 49.700 283.166 49.460 283.166L48.900 283.166C48.660 283.166 48.500 283.326 48.500 283.486L48.500 296.406C48.500 296.566 48.660 296.686 48.900 296.686L49.460 296.686C49.700 296.686 49.860 296.566 49.860 296.406ZM52.380 296.406L52.380 283.486C52.380 283.326 52.180 283.166 51.980 283.166L51.420 283.166C51.180 283.166 51.020 283.326 51.020 283.486L51.020 296.406C51.020 296.566 51.180 296.686 51.420 296.686L51.980 296.686C52.180 296.686 52.380 296.566 52.380 296.406ZM61.780 284.486C56.020 284.486 52.420 286.926 52.420 289.926C52.420 292.766 54.900 295.406 61.340 295.406C68.460 295.406 70.740 292.926 70.740 289.926C70.740 286.806 65.860 284.486 61.780 284.486ZM57.220 287.206C57.700 285.726 59.300 285.526 60.660 285.526C63.620 285.526 66.020 288.686 66.020 291.326C66.020 291.606 65.980 291.886 65.940 292.126C65.740 293.206 65.100 293.966 64.020 294.246C63.620 294.366 63.180 294.406 62.740 294.406C62.340 294.406 61.980 294.366 61.580 294.246C60.820 294.006 60.100 293.606 59.500 293.086C59.180 292.806 58.860 292.446 58.580 292.126C57.780 291.086 57.100 289.606 57.100 288.206C57.100 287.846 57.140 287.526 57.220 287.206ZM72.180 296.406L72.180 283.486C72.180 283.326 71.980 283.166 71.780 283.166L71.180 283.166C70.980 283.166 70.780 283.326 70.780 283.486L70.780 296.406C70.780 296.566 70.980 296.686 71.180 296.686L71.780 296.686C71.980 296.686 72.180 296.566 72.180 296.406ZM74.700 296.406L74.700 283.486C74.700 283.326 74.500 283.166 74.260 283.166L73.700 283.166C73.500 283.166 73.260 283.326 73.260 283.486L73.260 296.406C73.260 296.566 73.500 296.686 73.700 296.686L74.260 296.686C74.500 296.686 74.700 296.566 74.700 296.406Z"></path></g></g><g><g><path d="M252.135 284.366C246.335 284.366 242.735 286.806 242.735 289.766C242.735 292.686 245.215 295.286 251.695 295.286C258.815 295.286 261.095 292.806 261.095 289.766C261.095 286.686 256.175 284.366 252.135 284.366ZM247.575 287.086C248.055 285.606 249.655 285.366 251.015 285.366C253.975 285.366 256.375 288.566 256.375 291.206C256.375 291.486 256.335 291.766 256.295 292.006C256.095 293.086 255.455 293.846 254.375 294.126C253.935 294.246 253.495 294.286 253.055 294.286C252.655 294.286 252.295 294.246 251.895 294.126C251.175 293.886 250.455 293.486 249.855 292.966C249.535 292.686 249.215 292.366 248.935 292.006C248.095 291.006 247.415 289.526 247.415 288.166C247.415 287.806 247.455 287.446 247.575 287.086Z"></path></g></g><g><g><path d="M421.177 295.646C428.817 295.646 430.337 289.446 430.337 287.926C430.337 285.566 428.457 284.046 425.777 284.046C418.857 284.046 416.697 289.406 416.697 291.806C416.697 294.246 418.657 295.646 421.177 295.646ZM424.697 291.966C422.617 293.366 421.177 293.846 420.177 293.846C419.217 293.846 418.657 293.366 418.337 292.806C418.177 292.526 418.057 292.206 418.057 291.886C418.057 290.886 419.057 289.606 422.257 287.766C424.537 286.446 425.977 285.966 426.937 285.966C427.817 285.966 428.297 286.366 428.617 286.926C428.777 287.206 428.897 287.486 428.897 287.806C428.897 288.726 427.937 289.846 424.697 291.966Z"></path></g><line stroke="#000000" stroke-width="1.2" x1="417.29672401584185" x2="417.29672401584185" y1="291.8061538461538" y2="329.8061538461538"></line></g><g><g><path d="M574.745 295.486C578.745 295.486 583.665 291.766 583.665 287.966C583.665 285.686 581.865 284.206 579.265 284.206C574.345 284.206 570.385 287.846 570.385 291.726C570.385 294.086 572.305 295.486 574.745 295.486Z"></path></g><line stroke="#000000" stroke-width="1.2" x1="570.9850651331423" x2="570.9850651331423" y1="291.6861538461538" y2="329.6861538461538"></line></g><g><g><path d="M708.160 295.486C712.160 295.486 717.080 291.766 717.080 287.966C717.080 285.686 715.280 284.206 712.680 284.206C707.760 284.206 703.800 287.846 703.800 291.726C703.800 294.086 705.720 295.486 708.160 295.486Z"></path></g><line stroke="#000000" stroke-width="1.2" x1="704.400058990029" x2="704.400058990029" y1="291.6861538461538" y2="329.6861538461538"></line><path d="M713.400 304.806C713.960 306.486 714.240 308.486 714.240 310.286C714.240 312.646 713.240 316.006 712.640 317.366C711.160 320.726 709.160 323.966 703.800 325.766L703.800 335.166C703.800 335.646 704.000 335.766 704.240 335.766C705.000 335.766 705.320 335.526 705.400 334.886C706.080 331.086 709.040 327.606 711.080 324.446C713.600 320.486 716.040 315.726 716.040 310.726C716.040 307.606 715.240 304.766 714.920 303.486C714.600 302.206 712.800 303.086 713.400 304.806Z"></path></g><g><g><path d="M821.302 295.486C825.302 295.486 830.222 291.766 830.222 287.966C830.222 285.686 828.422 284.206 825.822 284.206C820.902 284.206 816.942 287.846 816.942 291.726C816.942 294.086 818.862 295.486 821.302 295.486Z"></path></g><line stroke="#000000" stroke-width="1.2" x1="817.5417055865022" x2="817.5417055865022" y1="291.6861538461538" y2="329.6861538461538"></line><path d="M826.542 303.766C827.142 307.126 827.142 310.766 825.622 313.886C822.862 319.486 819.622 319.606 817.142 319.686L816.942 319.686L816.942 335.526C816.942 335.526 817.382 335.566 817.622 335.566C817.862 335.566 818.342 335.486 818.422 335.046C819.382 328.886 827.262 327.166 828.222 320.886C828.302 320.446 828.342 319.966 828.342 319.446C828.342 317.006 827.462 314.606 827.342 314.366C827.302 314.286 827.302 314.206 827.302 314.086C827.302 313.926 827.342 313.846 827.342 313.726C828.782 310.726 828.822 306.806 828.182 303.606C827.982 302.686 827.702 302.726 827.222 302.726C826.742 302.766 826.422 303.086 826.542 303.766ZM825.982 316.966C826.182 316.966 826.462 317.086 826.502 317.246C826.702 317.526 826.702 317.926 826.782 318.246C826.822 318.526 826.822 318.806 826.822 319.046C826.822 320.366 826.462 321.566 825.742 322.606C824.422 324.566 821.862 326.806 819.422 326.806L819.102 326.806C818.782 326.806 818.542 326.606 818.542 326.406C818.542 326.366 818.542 326.326 818.582 326.286C819.422 323.006 821.662 322.086 823.542 319.886C824.382 318.966 825.062 318.166 825.702 317.126C825.782 317.006 825.862 316.966 825.982 316.966Z"></path></g><g><g><path d="M914.170 295.486C918.170 295.486 923.090 291.766 923.090 287.966C923.090 285.686 921.290 284.206 918.690 284.206C913.770 284.206 909.810 287.846 909.810 291.726C909.810 294.086 911.730 295.486 914.170 295.486Z"></path></g><line stroke="#000000" stroke-width="1.2" x1="910.4100049225616" x2="910.4100049225616" y1="291.6861538461538" y2="329.6861538461538"></line><path d="M920.730 308.166C920.730 306.166 920.050 303.646 919.890 303.366C919.610 302.886 919.330 302.726 919.050 302.726C918.970 302.726 918.890 302.726 918.810 302.766C918.530 302.886 918.250 303.286 918.250 303.806C918.250 303.886 918.290 303.966 918.290 304.086C918.610 305.886 919.090 307.126 919.090 308.486C919.090 309.606 918.770 310.766 917.850 312.406C914.810 317.846 912.250 317.926 909.810 318.006L909.810 341.566C909.810 341.566 910.050 342.086 910.290 342.086C910.570 342.086 911.090 341.646 911.130 341.286C911.810 337.126 914.090 336.486 916.170 334.206C918.970 331.166 919.930 330.046 920.370 327.486C920.450 327.126 920.450 326.726 920.450 326.326C920.450 324.606 919.930 322.846 919.570 321.766C919.970 321.046 920.210 320.246 920.370 319.286C920.450 318.766 920.490 318.246 920.490 317.726C920.490 315.646 919.850 313.926 919.690 313.526C919.690 313.406 919.570 313.286 919.570 313.166C919.570 313.086 919.610 313.006 919.690 312.886L919.850 312.606C920.370 311.606 920.570 311.166 920.730 308.606ZM911.370 324.486C912.210 321.286 914.050 320.406 915.850 318.286C916.650 317.366 917.290 316.606 917.930 315.606C918.010 315.486 918.130 315.446 918.250 315.446C918.450 315.446 918.690 315.566 918.730 315.686C918.850 315.966 918.850 316.286 918.930 316.606C918.970 316.926 919.010 317.286 919.010 317.606C919.010 318.806 918.610 319.966 917.930 320.966C916.690 322.886 914.570 325.006 912.090 325.006L911.890 325.006C911.530 325.006 911.370 324.686 911.370 324.486ZM918.970 325.486C919.010 325.766 919.090 326.006 919.090 326.326C919.090 326.846 918.930 327.486 918.450 328.326C916.170 332.166 913.730 333.206 911.450 333.206C911.370 333.166 911.370 333.126 911.370 333.086C912.050 328.926 914.090 328.286 916.170 326.006C917.130 324.966 917.850 324.166 918.410 323.446C918.650 324.206 918.850 325.046 918.970 325.486Z"></path></g><g><g><path d="M986.765 295.486C990.765 295.486 995.685 291.766 995.685 287.966C995.685 285.686 993.885 284.206 991.285 284.206C986.365 284.206 982.405 287.846 982.405 291.726C982.405 294.086 984.325 295.486 986.765 295.486Z"></path></g><line stroke="#000000" stroke-width="1.2" x1="983.0049569982076" x2="983.0049569982076" y1="291.6861538461538" y2="329.6861538461538"></line><path d="M993.325 308.166C993.325 306.166 992.645 303.646 992.485 303.366C992.205 302.886 991.925 302.726 991.645 302.726C991.565 302.726 991.485 302.726 991.405 302.766C991.125 302.886 990.845 303.286 990.845 303.806C990.845 303.886 990.885 303.966 990.885 304.086C991.205 305.886 991.685 307.126 991.685 308.486C991.685 309.606 991.365 310.766 990.445 312.406C987.405 317.846 984.845 317.926 982.405 318.006L982.405 349.726C982.405 349.726 982.645 350.246 982.885 350.246C983.165 350.246 983.685 349.806 983.725 349.446C984.405 345.286 986.685 344.646 988.765 342.366C991.565 339.326 992.525 338.206 992.965 335.646C993.045 335.246 993.085 334.846 993.085 334.446C993.085 332.766 992.565 331.006 992.165 329.966C992.565 329.206 992.805 328.446 992.965 327.486C993.045 327.126 993.045 326.726 993.045 326.326C993.045 324.606 992.525 322.846 992.165 321.766C992.565 321.046 992.805 320.246 992.965 319.286C993.045 318.766 993.085 318.246 993.085 317.726C993.085 315.646 992.445 313.926 992.285 313.526C992.285 313.406 992.165 313.286 992.165 313.166C992.165 313.086 992.205 313.006 992.285 312.886L992.445 312.606C992.965 311.606 993.165 311.166 993.325 308.606ZM983.965 324.486C984.805 321.286 986.645 320.406 988.445 318.286C989.245 317.366 989.885 316.606 990.525 315.606C990.605 315.486 990.725 315.446 990.845 315.446C991.045 315.446 991.285 315.566 991.325 315.686C991.445 315.966 991.445 316.286 991.525 316.606C991.565 316.926 991.605 317.286 991.605 317.606C991.605 318.806 991.205 319.966 990.525 320.966C989.285 322.886 987.165 325.006 984.685 325.006L984.485 325.006C984.125 325.006 983.965 324.686 983.965 324.486ZM991.565 333.646C991.605 333.926 991.685 334.166 991.685 334.486C991.685 335.006 991.525 335.646 991.045 336.486C988.765 340.326 986.205 341.366 983.965 341.366C984.485 337.606 986.445 336.726 988.765 334.206C989.725 333.166 990.445 332.366 991.045 331.646ZM991.565 325.486C991.605 325.766 991.685 326.006 991.685 326.326C991.685 326.846 991.525 327.486 991.045 328.326C988.765 332.166 986.325 333.206 984.045 333.206C983.965 333.166 983.965 333.126 983.965 333.086C984.645 328.926 986.685 328.286 988.765 326.006C989.725 324.966 990.445 324.166 991.005 323.446C991.245 324.206 991.445 325.046 991.565 325.486Z"></path></g><g><g><path d="M1039.087 295.486C1043.087 295.486 1048.007 291.766 1048.007 287.966C1048.007 285.686 1046.207 284.206 1043.607 284.206C1038.687 284.206 1034.727 287.846 1034.727 291.726C1034.727 294.086 1036.647 295.486 1039.087 295.486Z"></path></g><line stroke="#000000" stroke-width="1.2" x1="1035.3265618134396" x2="1035.3265618134396" y1="291.6861538461538" y2="329.6861538461538"></line><path d="M1045.647 308.166C1045.647 306.166 1044.967 303.646 1044.807 303.366C1044.527 302.886 1044.247 302.726 1043.967 302.726C1043.887 302.726 1043.807 302.726 1043.727 302.766C1043.447 302.886 1043.167 303.286 1043.167 303.806C1043.167 303.886 1043.207 303.966 1043.207 304.086C1043.527 305.886 1044.007 307.126 1044.007 308.486C1044.007 309.606 1043.687 310.766 1042.767 312.406C1039.727 317.846 1037.167 317.926 1034.727 318.006L1034.727 357.886C1034.727 357.886 1034.967 358.406 1035.207 358.406C1035.487 358.406 1036.007 357.966 1036.047 357.606C1036.727 353.446 1039.007 352.806 1041.087 350.526C1043.887 347.486 1044.847 346.366 1045.287 343.806C1045.367 343.406 1045.407 343.006 1045.407 342.606C1045.407 340.926 1044.887 339.166 1044.487 338.126C1044.887 337.366 1045.127 336.606 1045.287 335.646C1045.367 335.246 1045.407 334.846 1045.407 334.446C1045.407 332.766 1044.887 331.006 1044.487 329.966C1044.887 329.206 1045.127 328.446 1045.287 327.486C1045.367 327.126 1045.367 326.726 1045.367 326.326C1045.367 324.606 1044.847 322.846 1044.487 321.766C1044.887 321.046 1045.127 320.246 1045.287 319.286C1045.367 318.766 1045.407 318.246 1045.407 317.726C1045.407 315.646 1044.767 313.926 1044.607 313.526C1044.607 313.406 1044.487 313.286 1044.487 313.166C1044.487 313.086 1044.527 313.006 1044.607 312.886L1044.767 312.606C1045.287 311.606 1045.487 311.166 1045.647 308.606ZM1036.287 324.486C1037.127 321.286 1038.967 320.406 1040.767 318.286C1041.567 317.366 1042.207 316.606 1042.847 315.606C1042.927 315.486 1043.047 315.446 1043.167 315.446C1043.367 315.446 1043.607 315.566 1043.647 315.686C1043.767 315.966 1043.767 316.286 1043.847 316.606C1043.887 316.926 1043.927 317.286 1043.927 317.606C1043.927 318.806 1043.527 319.966 1042.847 320.966C1041.607 322.886 1039.487 325.006 1037.007 325.006L1036.807 325.006C1036.447 325.006 1036.287 324.686 1036.287 324.486ZM1043.887 341.806C1043.927 342.086 1044.007 342.326 1044.007 342.646C1044.007 343.166 1043.847 343.806 1043.367 344.646C1041.087 348.486 1038.527 349.526 1036.287 349.526C1036.807 345.766 1038.767 344.886 1041.087 342.366C1042.047 341.326 1042.767 340.526 1043.367 339.806ZM1043.887 333.646C1043.927 333.926 1044.007 334.166 1044.007 334.486C1044.007 335.006 1043.847 335.646 1043.367 336.486C1041.087 340.326 1038.527 341.366 1036.287 341.366C1036.807 337.606 1038.767 336.726 1041.087 334.206C1042.047 333.166 1042.767 332.366 1043.367 331.646ZM1043.887 325.486C1043.927 325.766 1044.007 326.006 1044.007 326.326C1044.007 326.846 1043.847 327.486 1043.367 328.326C1041.087 332.166 1038.647 333.206 1036.367 333.206C1036.287 333.166 1036.287 333.126 1036.287 333.086C1036.967 328.926 1039.007 328.286 1041.087 326.006C1042.047 324.966 1042.767 324.166 1043.327 323.446C1043.567 324.206 1043.767 325.046 1043.887 325.486Z"></path></g><g><g><path d="M1071.135 295.486C1075.135 295.486 1080.055 291.766 1080.055 287.966C1080.055 285.686 1078.255 284.206 1075.655 284.206C1070.735 284.206 1066.775 287.846 1066.775 291.726C1066.775 294.086 1068.695 295.486 1071.135 295.486Z"></path></g><line stroke="#000000" stroke-width="1.2" x1="1067.3748193682582" x2="1067.3748193682582" y1="291.6861538461538" y2="329.6861538461538"></line><path d="M1077.695 308.166C1077.695 306.166 1077.015 303.646 1076.855 303.366C1076.575 302.886 1076.295 302.726 1076.015 302.726C1075.935 302.726 1075.855 302.726 1075.775 302.766C1075.495 302.886 1075.215 303.286 1075.215 303.806C1075.215 303.886 1075.255 303.966 1075.255 304.086C1075.575 305.886 1076.055 307.126 1076.055 308.486C1076.055 309.606 1075.735 310.766 1074.815 312.406C1071.775 317.846 1069.215 317.926 1066.775 318.006L1066.775 357.886C1066.775 357.886 1067.015 358.406 1067.255 358.406C1067.535 358.406 1068.055 357.966 1068.095 357.606C1068.775 353.446 1071.055 352.806 1073.135 350.526C1075.935 347.486 1076.895 346.366 1077.335 343.806C1077.415 343.406 1077.455 343.006 1077.455 342.606C1077.455 340.926 1076.935 339.166 1076.535 338.126C1076.935 337.366 1077.175 336.606 1077.335 335.646C1077.415 335.246 1077.455 334.846 1077.455 334.446C1077.455 332.766 1076.935 331.006 1076.535 329.966C1076.935 329.206 1077.175 328.446 1077.335 327.486C1077.415 327.126 1077.415 326.726 1077.415 326.326C1077.415 324.606 1076.895 322.846 1076.535 321.766C1076.935 321.046 1077.175 320.246 1077.335 319.286C1077.415 318.766 1077.455 318.246 1077.455 317.726C1077.455 315.646 1076.815 313.926 1076.655 313.526C1076.655 313.406 1076.535 313.286 1076.535 313.166C1076.535 313.086 1076.575 313.006 1076.655 312.886L1076.815 312.606C1077.335 311.606 1077.535 311.166 1077.695 308.606ZM1068.335 324.486C1069.175 321.286 1071.015 320.406 1072.815 318.286C1073.615 317.366 1074.255 316.606 1074.895 315.606C1074.975 315.486 1075.095 315.446 1075.215 315.446C1075.415 315.446 1075.655 315.566 1075.695 315.686C1075.815 315.966 1075.815 316.286 1075.895 316.606C1075.935 316.926 1075.975 317.286 1075.975 317.606C1075.975 318.806 1075.575 319.966 1074.895 320.966C1073.655 322.886 1071.535 325.006 1069.055 325.006L1068.855 325.006C1068.495 325.006 1068.335 324.686 1068.335 324.486ZM1075.935 341.806C1075.975 342.086 1076.055 342.326 1076.055 342.646C1076.055 343.166 1075.895 343.806 1075.415 344.646C1073.135 348.486 1070.575 349.526 1068.335 349.526C1068.855 345.766 1070.815 344.886 1073.135 342.366C1074.095 341.326 1074.815 340.526 1075.415 339.806ZM1075.935 333.646C1075.975 333.926 1076.055 334.166 1076.055 334.486C1076.055 335.006 1075.895 335.646 1075.415 336.486C1073.135 340.326 1070.575 341.366 1068.335 341.366C1068.855 337.606 1070.815 336.726 1073.135 334.206C1074.095 333.166 1074.815 332.366 1075.415 331.646ZM1075.935 325.486C1075.975 325.766 1076.055 326.006 1076.055 326.326C1076.055 326.846 1075.895 327.486 1075.415 328.326C1073.135 332.166 1070.695 333.206 1068.415 333.206C1068.335 333.166 1068.335 333.126 1068.335 333.086C1069.015 328.926 1071.055 328.286 1073.135 326.006C1074.095 324.966 1074.815 324.166 1075.375 323.446C1075.615 324.206 1075.815 325.046 1075.935 325.486Z"></path></g></g><g transform="translate(93.84615384615385)"><g><g><line stroke="#6A6A6A" stroke-width="1.3" x1="0" x2="1140.923076923077" y1="445.8461538461538" y2="445.8461538461538"></line><line stroke="#6A6A6A" stroke-width="1.3" x1="0" x2="1140.923076923077" y1="435.8461538461538" y2="435.8461538461538"></line><line stroke="#6A6A6A" stroke-width="1.3" x1="0" x2="1140.923076923077" y1="425.8461538461538" y2="425.8461538461538"></line><line stroke="#6A6A6A" stroke-width="1.3" x1="0" x2="1140.923076923077" y1="415.8461538461538" y2="415.8461538461538"></line><line stroke="#6A6A6A" stroke-width="1.3" x1="0" x2="1140.923076923077" y1="405.8461538461538" y2="405.8461538461538"></line></g><g><path d="M25.200 391.926C24.640 391.926 23.400 392.966 22.600 393.846C19.640 397.126 18.680 402.126 18.680 406.286C18.680 408.606 18.960 411.206 19.240 412.846C19.320 413.326 19.360 413.406 18.880 413.806C16.320 415.926 13.560 418.366 11.480 420.926C8.720 424.366 7 428.086 7 432.366C7 439.326 11.760 445.926 21.560 445.926C22.480 445.926 23.520 445.846 24.320 445.686C24.760 445.606 24.840 445.566 24.920 446.046C25.400 448.726 26 452.206 26 454.086C26 460.006 22 460.726 19.640 460.726C17.480 460.726 16.440 460.086 16.440 459.566C16.440 459.126 16.800 459.166 17.720 458.886C18.960 458.526 20.400 457.446 20.400 455.126C20.400 452.926 19 451.046 16.560 451.046C13.880 451.046 12.280 453.166 12.280 455.646C12.280 458.246 13.840 462.166 19.880 462.166C22.560 462.166 27.760 460.966 27.760 454.166C27.760 451.886 27.040 448.086 26.600 445.606C26.520 445.126 26.560 445.166 27.120 444.926C31.160 443.326 33.840 439.926 33.840 435.406C33.840 430.286 30.080 425.766 24.200 425.766C23.080 425.766 23.200 425.966 23.040 425.046L22.040 419.246C21.960 418.766 22.040 418.726 22.280 418.486C22.920 417.886 23.760 417.046 24.520 416.206C27.880 412.526 29.880 407.766 29.880 403.246C29.880 399.766 28.920 396.326 27.280 393.926C26.680 393.046 25.640 391.926 25.200 391.926ZM20.040 420.086C20.440 419.766 20.520 419.806 20.600 420.246L21.440 425.366C21.560 426.126 21.560 426.086 20.840 426.326C17.320 427.526 15.040 430.686 15.040 434.086C15.040 437.686 16.920 440.246 19.640 441.166C19.960 441.286 20.440 441.406 20.720 441.406C21.040 441.406 21.200 441.206 21.200 440.966C21.200 440.686 20.880 440.566 20.600 440.446C18.920 439.726 17.720 438.006 17.720 436.166C17.720 433.886 19.280 432.166 21.720 431.486C22.360 431.326 22.440 431.366 22.520 431.806L24.520 443.726C24.600 444.166 24.560 444.166 23.960 444.286C23.320 444.406 22.520 444.486 21.720 444.486C14.720 444.486 10.200 440.606 10.200 435.046C10.200 432.686 10.600 429.526 13.920 425.766C16.320 423.086 18.160 421.606 20.040 420.086ZM24.640 431.166C27.880 431.446 30.560 434.166 30.560 437.686C30.560 440.206 29.040 442.246 26.800 443.366C26.320 443.606 26.240 443.606 26.160 443.126L24.200 431.726C24.120 431.246 24.160 431.126 24.640 431.166ZM25.800 398.126C27.120 398.126 28.200 399.206 28.200 401.406C28.200 404.166 26.880 406.726 23.760 409.846C23.120 410.486 22.160 411.406 21.240 412.206C20.960 412.446 20.800 412.406 20.720 411.886C20.560 410.846 20.480 409.486 20.480 408.206C20.480 401.966 23.360 398.126 25.800 398.126Z"></path></g><g></g><g><g><path d="M64.860 419.486C64.860 419.006 64.660 418.926 64.380 418.926C64.060 418.926 63.940 419.086 63.860 419.326C63.860 419.366 63.820 419.406 63.820 419.446C63.420 420.406 63.100 421.166 62.260 421.166C62.060 421.166 61.860 421.126 61.580 421.046C61.060 420.846 60.780 420.806 60.380 420.606C59.580 420.286 57.700 419.646 56.060 419.646C55.540 419.646 55.020 419.726 54.580 419.886C55.460 418.446 58.860 417.246 59.740 417.006C60.340 416.846 62.020 416.526 63.340 415.446C64.300 414.686 65.060 413.526 65.060 411.766C65.060 409.886 64.260 408.526 63.220 407.646C61.180 405.926 58.060 405.686 57.180 405.686C56.100 405.686 54.740 405.726 53.700 405.966C52.300 406.246 50.900 407.086 49.940 408.206C49.260 409.046 48.820 410.046 48.820 411.126C48.820 411.686 48.940 412.246 49.180 412.846C49.780 414.086 51.020 415.046 52.460 415.046C54.900 415.046 55.260 412.526 55.260 411.526C55.260 409.126 52.500 409.006 52.500 408.206C52.580 407.646 53.300 406.686 55.660 406.686C59.220 406.686 59.260 409.366 59.260 410.526C59.260 412.046 58.780 413.446 57.900 414.606C56.460 416.526 55.340 417.486 53.380 418.686C51.180 420.086 49.620 422.046 48.940 424.566C48.940 424.646 48.900 424.726 48.900 424.806C48.900 425.246 49.180 425.766 49.620 426.046C49.740 426.126 49.860 426.126 49.940 426.126C50.820 426.126 51.300 423.686 53.660 423.686C55.260 423.686 55.860 425.846 59.420 425.846C61.140 425.846 64.220 425.686 64.860 419.486Z"></path><path d="M77.180 418.806L74.260 418.806L74.260 410.246C74.260 409.926 74.220 409.566 73.780 409.566C73.420 409.566 73.220 409.646 72.980 409.926L69.180 414.526C69.020 414.726 68.820 414.966 68.820 415.446C68.820 415.446 68.820 417.046 68.820 418.806L63.420 418.806C66.620 416.086 73.020 407.006 73.140 406.566C73.140 406.486 73.180 406.446 73.180 406.366C73.180 406.046 72.900 405.806 72.580 405.806C72.220 405.806 70.580 405.886 69.860 405.886C69.140 405.886 67.340 405.806 67.020 405.806C66.660 405.806 66.100 405.926 66.100 406.566C66.100 411.526 62.180 417.086 60.980 418.766L60.740 419.086C60.740 419.126 60.700 419.166 60.700 419.206C60.620 419.366 60.580 419.526 60.580 419.646C60.580 420.046 60.900 420.326 61.380 420.326L68.820 420.326L68.820 422.846C68.820 423.926 67.940 424.246 67.220 424.246C66.580 424.246 66.300 424.606 66.300 425.006C66.300 425.406 66.460 425.846 67.060 425.846C67.700 425.846 75.580 425.846 75.580 425.846C75.980 425.846 76.380 425.566 76.380 425.006C76.380 424.446 75.900 424.206 75.500 424.206C75.100 424.206 74.260 423.966 74.260 422.686L74.260 420.326C75.980 420.326 77.180 420.326 77.180 420.326C77.580 420.326 77.780 420.046 77.780 419.566C77.780 419.086 77.620 418.806 77.180 418.806Z"></path></g><g><path d="M72.180 438.806L69.260 438.806L69.260 430.246C69.260 429.926 69.220 429.566 68.780 429.566C68.420 429.566 68.220 429.646 67.980 429.926L64.180 434.526C64.020 434.726 63.820 434.966 63.820 435.446C63.820 435.446 63.820 437.046 63.820 438.806L58.420 438.806C61.620 436.086 68.020 427.006 68.140 426.566C68.140 426.486 68.180 426.446 68.180 426.366C68.180 426.046 67.900 425.806 67.580 425.806C67.220 425.806 65.580 425.886 64.860 425.886C64.140 425.886 62.340 425.806 62.020 425.806C61.660 425.806 61.100 425.926 61.100 426.566C61.100 431.526 57.180 437.086 55.980 438.766L55.740 439.086C55.740 439.126 55.700 439.166 55.700 439.206C55.620 439.366 55.580 439.526 55.580 439.646C55.580 440.046 55.900 440.326 56.380 440.326L63.820 440.326L63.820 442.846C63.820 443.926 62.940 444.246 62.220 444.246C61.580 444.246 61.300 444.606 61.300 445.006C61.300 445.406 61.460 445.846 62.060 445.846C62.700 445.846 70.580 445.846 70.580 445.846C70.980 445.846 71.380 445.566 71.380 445.006C71.380 444.446 70.900 444.206 70.500 444.206C70.100 444.206 69.260 443.966 69.260 442.686L69.260 440.326C70.980 440.326 72.180 440.326 72.180 440.326C72.580 440.326 72.780 440.046 72.780 439.566C72.780 439.086 72.620 438.806 72.180 438.806Z"></path></g></g><text font-family='Alegreya' font-style='italic' text-anchor='end' stroke='#7a7a7a' font-size="24" x="0" y="395.8461538461538">3</text></g><g><line stroke="black" stroke-width="1.6" x1="1140.1230769230767" x2="1140.1230769230767" y1="405.8461538461538" y2="445.8461538461538"></line></g><g><g><path d="M90.360 427.406L90.360 414.486C90.360 414.326 90.200 414.166 89.960 414.166L89.400 414.166C89.160 414.166 89 414.326 89 414.486L89 427.406C89 427.566 89.160 427.686 89.400 427.686L89.960 427.686C90.200 427.686 90.360 427.566 90.360 427.406ZM92.880 427.406L92.880 414.486C92.880 414.326 92.680 414.166 92.480 414.166L91.920 414.166C91.680 414.166 91.520 414.326 91.520 414.486L91.520 427.406C91.520 427.566 91.680 427.686 91.920 427.686L92.480 427.686C92.680 427.686 92.880 427.566 92.880 427.406ZM102.280 415.486C96.520 415.486 92.920 417.926 92.920 420.926C92.920 423.766 95.400 426.406 101.840 426.406C108.960 426.406 111.240 423.926 111.240 420.926C111.240 417.806 106.360 415.486 102.280 415.486ZM97.720 418.206C98.200 416.726 99.800 416.526 101.160 416.526C104.120 416.526 106.520 419.686 106.520 422.326C106.520 422.606 106.480 422.886 106.440 423.126C106.240 424.206 105.600 424.966 104.520 425.246C104.120 425.366 103.680 425.406 103.240 425.406C102.840 425.406 102.480 425.366 102.080 425.246C101.320 425.006 100.600 424.606 100 424.086C99.680 423.806 99.360 423.446 99.080 423.126C98.280 422.086 97.600 420.606 97.600 419.206C97.600 418.846 97.640 418.526 97.720 418.206ZM112.680 427.406L112.680 414.486C112.680 414.326 112.480 414.166 112.280 414.166L111.680 414.166C111.480 414.166 111.280 414.326 111.280 414.486L111.280 427.406C111.280 427.566 111.480 427.686 111.680 427.686L112.280 427.686C112.480 427.686 112.680 427.566 112.680 427.406ZM115.200 427.406L115.200 414.486C115.200 414.326 115 414.166 114.760 414.166L114.200 414.166C114 414.166 113.760 414.326 113.760 414.486L113.760 427.406C113.760 427.566 114 427.686 114.200 427.686L114.760 427.686C115 427.686 115.200 427.566 115.200 427.406Z"></path><g><circle cx="121.2" cy="420.8461538461538" r="2.4"></circle></g></g></g></g><g transform="translate(93.84615384615385)"><g><g><line stroke="#6A6A6A" stroke-width="1.3" x1="0" x2="1140.923076923077" y1="576.8461538461538" y2="576.8461538461538"></line><line stroke="#6A6A6A" stroke-width="1.3" x1="0" x2="1140.923076923077" y1="566.8461538461538" y2="566.8461538461538"></line><line stroke="#6A6A6A" stroke-width="1.3" x1="0" x2="1140.923076923077" y1="556.8461538461538" y2="556.8461538461538"></line><line stroke="#6A6A6A" stroke-width="1.3" x1="0" x2="1140.923076923077" y1="546.8461538461538" y2="546.8461538461538"></line><line stroke="#6A6A6A" stroke-width="1.3" x1="0" x2="1140.923076923077" y1="536.8461538461538" y2="536.8461538461538"></line></g><g><path d="M25.200 522.926C24.640 522.926 23.400 523.966 22.600 524.846C19.640 528.126 18.680 533.126 18.680 537.286C18.680 539.606 18.960 542.206 19.240 543.846C19.320 544.326 19.360 544.406 18.880 544.806C16.320 546.926 13.560 549.366 11.480 551.926C8.720 555.366 7 559.086 7 563.366C7 570.326 11.760 576.926 21.560 576.926C22.480 576.926 23.520 576.846 24.320 576.686C24.760 576.606 24.840 576.566 24.920 577.046C25.400 579.726 26 583.206 26 585.086C26 591.006 22 591.726 19.640 591.726C17.480 591.726 16.440 591.086 16.440 590.566C16.440 590.126 16.800 590.166 17.720 589.886C18.960 589.526 20.400 588.446 20.400 586.126C20.400 583.926 19 582.046 16.560 582.046C13.880 582.046 12.280 584.166 12.280 586.646C12.280 589.246 13.840 593.166 19.880 593.166C22.560 593.166 27.760 591.966 27.760 585.166C27.760 582.886 27.040 579.086 26.600 576.606C26.520 576.126 26.560 576.166 27.120 575.926C31.160 574.326 33.840 570.926 33.840 566.406C33.840 561.286 30.080 556.766 24.200 556.766C23.080 556.766 23.200 556.966 23.040 556.046L22.040 550.246C21.960 549.766 22.040 549.726 22.280 549.486C22.920 548.886 23.760 548.046 24.520 547.206C27.880 543.526 29.880 538.766 29.880 534.246C29.880 530.766 28.920 527.326 27.280 524.926C26.680 524.046 25.640 522.926 25.200 522.926ZM20.040 551.086C20.440 550.766 20.520 550.806 20.600 551.246L21.440 556.366C21.560 557.126 21.560 557.086 20.840 557.326C17.320 558.526 15.040 561.686 15.040 565.086C15.040 568.686 16.920 571.246 19.640 572.166C19.960 572.286 20.440 572.406 20.720 572.406C21.040 572.406 21.200 572.206 21.200 571.966C21.200 571.686 20.880 571.566 20.600 571.446C18.920 570.726 17.720 569.006 17.720 567.166C17.720 564.886 19.280 563.166 21.720 562.486C22.360 562.326 22.440 562.366 22.520 562.806L24.520 574.726C24.600 575.166 24.560 575.166 23.960 575.286C23.320 575.406 22.520 575.486 21.720 575.486C14.720 575.486 10.200 571.606 10.200 566.046C10.200 563.686 10.600 560.526 13.920 556.766C16.320 554.086 18.160 552.606 20.040 551.086ZM24.640 562.166C27.880 562.446 30.560 565.166 30.560 568.686C30.560 571.206 29.040 573.246 26.800 574.366C26.320 574.606 26.240 574.606 26.160 574.126L24.200 562.726C24.120 562.246 24.160 562.126 24.640 562.166ZM25.800 529.126C27.120 529.126 28.200 530.206 28.200 532.406C28.200 535.166 26.880 537.726 23.760 540.846C23.120 541.486 22.160 542.406 21.240 543.206C20.960 543.446 20.800 543.406 20.720 542.886C20.560 541.846 20.480 540.486 20.480 539.206C20.480 532.966 23.360 529.126 25.800 529.126Z"></path></g><g></g><text font-family='Alegreya' font-style='italic' text-anchor='end' stroke='#7a7a7a' font-size="24" x="0" y="526.8461538461538">4</text></g><g><line stroke="black" stroke-width="1.6" x1="1099.6230769230767" x2="1099.6230769230767" y1="536.8461538461538" y2="576.8461538461538"></line><g><g><g><path d="M1124.783 550.486C1124.783 550.006 1124.583 549.926 1124.303 549.926C1123.983 549.926 1123.863 550.086 1123.783 550.326C1123.783 550.366 1123.743 550.406 1123.743 550.446C1123.343 551.406 1123.023 552.166 1122.183 552.166C1121.983 552.166 1121.783 552.126 1121.503 552.046C1120.983 551.846 1120.703 551.806 1120.303 551.606C1119.503 551.286 1117.623 550.646 1115.983 550.646C1115.463 550.646 1114.943 550.726 1114.503 550.886C1115.383 549.446 1118.783 548.246 1119.663 548.006C1120.263 547.846 1121.943 547.526 1123.263 546.446C1124.223 545.686 1124.983 544.526 1124.983 542.766C1124.983 540.886 1124.183 539.526 1123.143 538.646C1121.103 536.926 1117.983 536.686 1117.103 536.686C1116.023 536.686 1114.663 536.726 1113.623 536.966C1112.223 537.246 1110.823 538.086 1109.863 539.206C1109.183 540.046 1108.743 541.046 1108.743 542.126C1108.743 542.686 1108.863 543.246 1109.103 543.846C1109.703 545.086 1110.943 546.046 1112.383 546.046C1114.823 546.046 1115.183 543.526 1115.183 542.526C1115.183 540.126 1112.423 540.006 1112.423 539.206C1112.503 538.646 1113.223 537.686 1115.583 537.686C1119.143 537.686 1119.183 540.366 1119.183 541.526C1119.183 543.046 1118.703 544.446 1117.823 545.606C1116.383 547.526 1115.263 548.486 1113.303 549.686C1111.103 551.086 1109.543 553.046 1108.863 555.566C1108.863 555.646 1108.823 555.726 1108.823 555.806C1108.823 556.246 1109.103 556.766 1109.543 557.046C1109.663 557.126 1109.783 557.126 1109.863 557.126C1110.743 557.126 1111.223 554.686 1113.583 554.686C1115.183 554.686 1115.783 556.846 1119.343 556.846C1121.063 556.846 1124.143 556.686 1124.783 550.486Z"></path><path d="M1132.743 545.406C1134.183 544.486 1135.143 543.166 1135.143 541.166C1135.143 537.086 1129.263 536.486 1128.183 536.486C1123.543 536.486 1120.383 538.606 1120.383 541.966C1120.383 544.726 1121.943 546.206 1123.863 547.286C1121.783 548.286 1120.183 549.606 1120.183 552.126C1120.183 555.606 1123.783 557.206 1127.743 557.206C1131.743 557.206 1136.023 555.486 1136.023 550.086C1136.023 547.686 1134.623 546.366 1132.743 545.406ZM1127.583 555.886C1124.903 555.886 1122.463 554.526 1122.463 551.926C1122.463 550.326 1123.863 548.846 1125.623 548.166C1128.543 549.446 1131.503 550.286 1131.503 552.926C1131.503 554.526 1130.263 555.886 1127.583 555.886ZM1130.663 544.486C1127.463 543.366 1124.063 542.686 1124.063 540.166C1124.063 538.486 1126.343 537.646 1128.103 537.646C1129.383 537.646 1132.783 538.286 1132.783 541.086C1132.783 542.686 1131.983 543.726 1130.663 544.486Z"></path></g><g><path d="M1132.103 569.806L1129.183 569.806L1129.183 561.246C1129.183 560.926 1129.143 560.566 1128.703 560.566C1128.343 560.566 1128.143 560.646 1127.903 560.926L1124.103 565.526C1123.943 565.726 1123.743 565.966 1123.743 566.446C1123.743 566.446 1123.743 568.046 1123.743 569.806L1118.343 569.806C1121.543 567.086 1127.943 558.006 1128.063 557.566C1128.063 557.486 1128.103 557.446 1128.103 557.366C1128.103 557.046 1127.823 556.806 1127.503 556.806C1127.143 556.806 1125.503 556.886 1124.783 556.886C1124.063 556.886 1122.263 556.806 1121.943 556.806C1121.583 556.806 1121.023 556.926 1121.023 557.566C1121.023 562.526 1117.103 568.086 1115.903 569.766L1115.663 570.086C1115.663 570.126 1115.623 570.166 1115.623 570.206C1115.543 570.366 1115.503 570.526 1115.503 570.646C1115.503 571.046 1115.823 571.326 1116.303 571.326L1123.743 571.326L1123.743 573.846C1123.743 574.926 1122.863 575.246 1122.143 575.246C1121.503 575.246 1121.223 575.606 1121.223 576.006C1121.223 576.406 1121.383 576.846 1121.983 576.846C1122.623 576.846 1130.503 576.846 1130.503 576.846C1130.903 576.846 1131.303 576.566 1131.303 576.006C1131.303 575.446 1130.823 575.206 1130.423 575.206C1130.023 575.206 1129.183 574.966 1129.183 573.686L1129.183 571.326C1130.903 571.326 1132.103 571.326 1132.103 571.326C1132.503 571.326 1132.703 571.046 1132.703 570.566C1132.703 570.086 1132.543 569.806 1132.103 569.806Z"></path></g></g></g></g><g><g><path d="M49.860 558.406L49.860 545.486C49.860 545.326 49.700 545.166 49.460 545.166L48.900 545.166C48.660 545.166 48.500 545.326 48.500 545.486L48.500 558.406C48.500 558.566 48.660 558.686 48.900 558.686L49.460 558.686C49.700 558.686 49.860 558.566 49.860 558.406ZM52.380 558.406L52.380 545.486C52.380 545.326 52.180 545.166 51.980 545.166L51.420 545.166C51.180 545.166 51.020 545.326 51.020 545.486L51.020 558.406C51.020 558.566 51.180 558.686 51.420 558.686L51.980 558.686C52.180 558.686 52.380 558.566 52.380 558.406ZM61.780 546.486C56.020 546.486 52.420 548.926 52.420 551.926C52.420 554.766 54.900 557.406 61.340 557.406C68.460 557.406 70.740 554.926 70.740 551.926C70.740 548.806 65.860 546.486 61.780 546.486ZM57.220 549.206C57.700 547.726 59.300 547.526 60.660 547.526C63.620 547.526 66.020 550.686 66.020 553.326C66.020 553.606 65.980 553.886 65.940 554.126C65.740 555.206 65.100 555.966 64.020 556.246C63.620 556.366 63.180 556.406 62.740 556.406C62.340 556.406 61.980 556.366 61.580 556.246C60.820 556.006 60.100 555.606 59.500 555.086C59.180 554.806 58.860 554.446 58.580 554.126C57.780 553.086 57.100 551.606 57.100 550.206C57.100 549.846 57.140 549.526 57.220 549.206ZM72.180 558.406L72.180 545.486C72.180 545.326 71.980 545.166 71.780 545.166L71.180 545.166C70.980 545.166 70.780 545.326 70.780 545.486L70.780 558.406C70.780 558.566 70.980 558.686 71.180 558.686L71.780 558.686C71.980 558.686 72.180 558.566 72.180 558.406ZM74.700 558.406L74.700 545.486C74.700 545.326 74.500 545.166 74.260 545.166L73.700 545.166C73.500 545.166 73.260 545.326 73.260 545.486L73.260 558.406C73.260 558.566 73.500 558.686 73.700 558.686L74.260 558.686C74.500 558.686 74.700 558.566 74.700 558.406Z"></path><g><circle cx="80.7" cy="551.8461538461538" r="2.4"></circle></g></g></g><g><g><path d="M250.151 546.366C244.351 546.366 240.751 548.806 240.751 551.766C240.751 554.686 243.231 557.286 249.711 557.286C256.831 557.286 259.111 554.806 259.111 551.766C259.111 548.686 254.191 546.366 250.151 546.366ZM245.591 549.086C246.071 547.606 247.671 547.366 249.031 547.366C251.991 547.366 254.391 550.566 254.391 553.206C254.391 553.486 254.351 553.766 254.311 554.006C254.111 555.086 253.471 555.846 252.391 556.126C251.951 556.246 251.511 556.286 251.071 556.286C250.671 556.286 250.311 556.246 249.911 556.126C249.191 555.886 248.471 555.486 247.871 554.966C247.551 554.686 247.231 554.366 246.951 554.006C246.111 553.006 245.431 551.526 245.431 550.166C245.431 549.806 245.471 549.446 245.591 549.086Z"></path></g></g><g><g><path d="M400.690 557.646C408.330 557.646 409.850 551.446 409.850 549.926C409.850 547.566 407.970 546.046 405.290 546.046C398.370 546.046 396.210 551.406 396.210 553.806C396.210 556.246 398.170 557.646 400.690 557.646ZM404.210 553.966C402.130 555.366 400.690 555.846 399.690 555.846C398.730 555.846 398.170 555.366 397.850 554.806C397.690 554.526 397.570 554.206 397.570 553.886C397.570 552.886 398.570 551.606 401.770 549.766C404.050 548.446 405.490 547.966 406.450 547.966C407.330 547.966 407.810 548.366 408.130 548.926C408.290 549.206 408.410 549.486 408.410 549.806C408.410 550.726 407.450 551.846 404.210 553.966Z"></path><g><circle cx="415.8502550371641" cy="551.8461538461538" r="2.4"></circle></g></g><line stroke="#000000" stroke-width="1.2" x1="396.81025503716415" x2="396.81025503716415" y1="553.8061538461538" y2="591.8061538461538"></line></g><g><g><path d="M553.966 557.486C557.966 557.486 562.886 553.766 562.886 549.966C562.886 547.686 561.086 546.206 558.486 546.206C553.566 546.206 549.606 549.846 549.606 553.726C549.606 556.086 551.526 557.486 553.966 557.486Z"></path><g><circle cx="568.8858794306407" cy="551.8461538461538" r="2.4"></circle></g></g><line stroke="#000000" stroke-width="1.2" x1="550.2058794306407" x2="550.2058794306407" y1="553.6861538461538" y2="591.6861538461538"></line></g><g><g><path d="M687.934 557.486C691.934 557.486 696.854 553.766 696.854 549.966C696.854 547.686 695.054 546.206 692.454 546.206C687.534 546.206 683.574 549.846 683.574 553.726C683.574 556.086 685.494 557.486 687.934 557.486Z"></path><g><circle cx="702.8536455551579" cy="551.8461538461538" r="2.4"></circle></g></g><line stroke="#000000" stroke-width="1.2" x1="684.1736455551579" x2="684.1736455551579" y1="553.6861538461538" y2="591.6861538461538"></line><path d="M693.174 566.806C693.734 568.486 694.014 570.486 694.014 572.286C694.014 574.646 693.014 578.006 692.414 579.366C690.934 582.726 688.934 585.966 683.574 587.766L683.574 597.166C683.574 597.646 683.774 597.766 684.014 597.766C684.774 597.766 685.094 597.526 685.174 596.886C685.854 593.086 688.814 589.606 690.854 586.446C693.374 582.486 695.814 577.726 695.814 572.726C695.814 569.606 695.014 566.766 694.694 565.486C694.374 564.206 692.574 565.086 693.174 566.806Z"></path></g><g><g><path d="M802.474 557.486C806.474 557.486 811.394 553.766 811.394 549.966C811.394 547.686 809.594 546.206 806.994 546.206C802.074 546.206 798.114 549.846 798.114 553.726C798.114 556.086 800.034 557.486 802.474 557.486Z"></path><g><circle cx="817.3935534107159" cy="551.8461538461538" r="2.4"></circle></g></g><line stroke="#000000" stroke-width="1.2" x1="798.7135534107159" x2="798.7135534107159" y1="553.6861538461538" y2="591.6861538461538"></line><path d="M807.714 565.766C808.314 569.126 808.314 572.766 806.794 575.886C804.034 581.486 800.794 581.606 798.314 581.686L798.114 581.686L798.114 597.526C798.114 597.526 798.554 597.566 798.794 597.566C799.034 597.566 799.514 597.486 799.594 597.046C800.554 590.886 808.434 589.166 809.394 582.886C809.474 582.446 809.514 581.966 809.514 581.446C809.514 579.006 808.634 576.606 808.514 576.366C808.474 576.286 808.474 576.206 808.474 576.086C808.474 575.926 808.514 575.846 808.514 575.726C809.954 572.726 809.994 568.806 809.354 565.606C809.154 564.686 808.874 564.726 808.394 564.726C807.914 564.766 807.594 565.086 807.714 565.766ZM807.154 578.966C807.354 578.966 807.634 579.086 807.674 579.246C807.874 579.526 807.874 579.926 807.954 580.246C807.994 580.526 807.994 580.806 807.994 581.046C807.994 582.366 807.634 583.566 806.914 584.606C805.594 586.566 803.034 588.806 800.594 588.806L800.274 588.806C799.954 588.806 799.714 588.606 799.714 588.406C799.714 588.366 799.714 588.326 799.754 588.286C800.594 585.006 802.834 584.086 804.714 581.886C805.554 580.966 806.234 580.166 806.874 579.126C806.954 579.006 807.034 578.966 807.154 578.966Z"></path></g><g><g><path d="M897.586 557.486C901.586 557.486 906.506 553.766 906.506 549.966C906.506 547.686 904.706 546.206 902.106 546.206C897.186 546.206 893.226 549.846 893.226 553.726C893.226 556.086 895.146 557.486 897.586 557.486Z"></path><g><circle cx="912.5056029973147" cy="551.8461538461538" r="2.4"></circle></g></g><line stroke="#000000" stroke-width="1.2" x1="893.8256029973147" x2="893.8256029973147" y1="553.6861538461538" y2="591.6861538461538"></line><path d="M904.146 570.166C904.146 568.166 903.466 565.646 903.306 565.366C903.026 564.886 902.746 564.726 902.466 564.726C902.386 564.726 902.306 564.726 902.226 564.766C901.946 564.886 901.666 565.286 901.666 565.806C901.666 565.886 901.706 565.966 901.706 566.086C902.026 567.886 902.506 569.126 902.506 570.486C902.506 571.606 902.186 572.766 901.266 574.406C898.226 579.846 895.666 579.926 893.226 580.006L893.226 603.566C893.226 603.566 893.466 604.086 893.706 604.086C893.986 604.086 894.506 603.646 894.546 603.286C895.226 599.126 897.506 598.486 899.586 596.206C902.386 593.166 903.346 592.046 903.786 589.486C903.866 589.126 903.866 588.726 903.866 588.326C903.866 586.606 903.346 584.846 902.986 583.766C903.386 583.046 903.626 582.246 903.786 581.286C903.866 580.766 903.906 580.246 903.906 579.726C903.906 577.646 903.266 575.926 903.106 575.526C903.106 575.406 902.986 575.286 902.986 575.166C902.986 575.086 903.026 575.006 903.106 574.886L903.266 574.606C903.786 573.606 903.986 573.166 904.146 570.606ZM894.786 586.486C895.626 583.286 897.466 582.406 899.266 580.286C900.066 579.366 900.706 578.606 901.346 577.606C901.426 577.486 901.546 577.446 901.666 577.446C901.866 577.446 902.106 577.566 902.146 577.686C902.266 577.966 902.266 578.286 902.346 578.606C902.386 578.926 902.426 579.286 902.426 579.606C902.426 580.806 902.026 581.966 901.346 582.966C900.106 584.886 897.986 587.006 895.506 587.006L895.306 587.006C894.946 587.006 894.786 586.686 894.786 586.486ZM902.386 587.486C902.426 587.766 902.506 588.006 902.506 588.326C902.506 588.846 902.346 589.486 901.866 590.326C899.586 594.166 897.146 595.206 894.866 595.206C894.786 595.166 894.786 595.126 894.786 595.086C895.466 590.926 897.506 590.286 899.586 588.006C900.546 586.966 901.266 586.166 901.826 585.446C902.066 586.206 902.266 587.046 902.386 587.486Z"></path></g><g><g><path d="M973.270 557.486C977.270 557.486 982.190 553.766 982.190 549.966C982.190 547.686 980.390 546.206 977.790 546.206C972.870 546.206 968.910 549.846 968.910 553.726C968.910 556.086 970.830 557.486 973.270 557.486Z"></path><g><circle cx="988.1897943149543" cy="551.8461538461538" r="2.4"></circle></g></g><line stroke="#000000" stroke-width="1.2" x1="969.5097943149543" x2="969.5097943149543" y1="553.6861538461538" y2="591.6861538461538"></line><path d="M979.830 570.166C979.830 568.166 979.150 565.646 978.990 565.366C978.710 564.886 978.430 564.726 978.150 564.726C978.070 564.726 977.990 564.726 977.910 564.766C977.630 564.886 977.350 565.286 977.350 565.806C977.350 565.886 977.390 565.966 977.390 566.086C977.710 567.886 978.190 569.126 978.190 570.486C978.190 571.606 977.870 572.766 976.950 574.406C973.910 579.846 971.350 579.926 968.910 580.006L968.910 611.726C968.910 611.726 969.150 612.246 969.390 612.246C969.670 612.246 970.190 611.806 970.230 611.446C970.910 607.286 973.190 606.646 975.270 604.366C978.070 601.326 979.030 600.206 979.470 597.646C979.550 597.246 979.590 596.846 979.590 596.446C979.590 594.766 979.070 593.006 978.670 591.966C979.070 591.206 979.310 590.446 979.470 589.486C979.550 589.126 979.550 588.726 979.550 588.326C979.550 586.606 979.030 584.846 978.670 583.766C979.070 583.046 979.310 582.246 979.470 581.286C979.550 580.766 979.590 580.246 979.590 579.726C979.590 577.646 978.950 575.926 978.790 575.526C978.790 575.406 978.670 575.286 978.670 575.166C978.670 575.086 978.710 575.006 978.790 574.886L978.950 574.606C979.470 573.606 979.670 573.166 979.830 570.606ZM970.470 586.486C971.310 583.286 973.150 582.406 974.950 580.286C975.750 579.366 976.390 578.606 977.030 577.606C977.110 577.486 977.230 577.446 977.350 577.446C977.550 577.446 977.790 577.566 977.830 577.686C977.950 577.966 977.950 578.286 978.030 578.606C978.070 578.926 978.110 579.286 978.110 579.606C978.110 580.806 977.710 581.966 977.030 582.966C975.790 584.886 973.670 587.006 971.190 587.006L970.990 587.006C970.630 587.006 970.470 586.686 970.470 586.486ZM978.070 595.646C978.110 595.926 978.190 596.166 978.190 596.486C978.190 597.006 978.030 597.646 977.550 598.486C975.270 602.326 972.710 603.366 970.470 603.366C970.990 599.606 972.950 598.726 975.270 596.206C976.230 595.166 976.950 594.366 977.550 593.646ZM978.070 587.486C978.110 587.766 978.190 588.006 978.190 588.326C978.190 588.846 978.030 589.486 977.550 590.326C975.270 594.166 972.830 595.206 970.550 595.206C970.470 595.166 970.470 595.126 970.470 595.086C971.150 590.926 973.190 590.286 975.270 588.006C976.230 586.966 976.950 586.166 977.510 585.446C977.750 586.206 977.950 587.046 978.070 587.486Z"></path></g><g><g><path d="M1029.526 557.486C1033.526 557.486 1038.446 553.766 1038.446 549.966C1038.446 547.686 1036.646 546.206 1034.046 546.206C1029.126 546.206 1025.166 549.846 1025.166 553.726C1025.166 556.086 1027.086 557.486 1029.526 557.486Z"></path><g><circle cx="1044.4461273636346" cy="551.8461538461538" r="2.4"></circle></g></g><line stroke="#000000" stroke-width="1.2" x1="1025.7661273636345" x2="1025.7661273636345" y1="553.6861538461538" y2="591.6861538461538"></line><path d="M1036.086 570.166C1036.086 568.166 1035.406 565.646 1035.246 565.366C1034.966 564.886 1034.686 564.726 1034.406 564.726C1034.326 564.726 1034.246 564.726 1034.166 564.766C1033.886 564.886 1033.606 565.286 1033.606 565.806C1033.606 565.886 1033.646 565.966 1033.646 566.086C1033.966 567.886 1034.446 569.126 1034.446 570.486C1034.446 571.606 1034.126 572.766 1033.206 574.406C1030.166 579.846 1027.606 579.926 1025.166 580.006L1025.166 619.886C1025.166 619.886 1025.406 620.406 1025.646 620.406C1025.926 620.406 1026.446 619.966 1026.486 619.606C1027.166 615.446 1029.446 614.806 1031.526 612.526C1034.326 609.486 1035.286 608.366 1035.726 605.806C1035.806 605.406 1035.846 605.006 1035.846 604.606C1035.846 602.926 1035.326 601.166 1034.926 600.126C1035.326 599.366 1035.566 598.606 1035.726 597.646C1035.806 597.246 1035.846 596.846 1035.846 596.446C1035.846 594.766 1035.326 593.006 1034.926 591.966C1035.326 591.206 1035.566 590.446 1035.726 589.486C1035.806 589.126 1035.806 588.726 1035.806 588.326C1035.806 586.606 1035.286 584.846 1034.926 583.766C1035.326 583.046 1035.566 582.246 1035.726 581.286C1035.806 580.766 1035.846 580.246 1035.846 579.726C1035.846 577.646 1035.206 575.926 1035.046 575.526C1035.046 575.406 1034.926 575.286 1034.926 575.166C1034.926 575.086 1034.966 575.006 1035.046 574.886L1035.206 574.606C1035.726 573.606 1035.926 573.166 1036.086 570.606ZM1026.726 586.486C1027.566 583.286 1029.406 582.406 1031.206 580.286C1032.006 579.366 1032.646 578.606 1033.286 577.606C1033.366 577.486 1033.486 577.446 1033.606 577.446C1033.806 577.446 1034.046 577.566 1034.086 577.686C1034.206 577.966 1034.206 578.286 1034.286 578.606C1034.326 578.926 1034.366 579.286 1034.366 579.606C1034.366 580.806 1033.966 581.966 1033.286 582.966C1032.046 584.886 1029.926 587.006 1027.446 587.006L1027.246 587.006C1026.886 587.006 1026.726 586.686 1026.726 586.486ZM1034.326 603.806C1034.366 604.086 1034.446 604.326 1034.446 604.646C1034.446 605.166 1034.286 605.806 1033.806 606.646C1031.526 610.486 1028.966 611.526 1026.726 611.526C1027.246 607.766 1029.206 606.886 1031.526 604.366C1032.486 603.326 1033.206 602.526 1033.806 601.806ZM1034.326 595.646C1034.366 595.926 1034.446 596.166 1034.446 596.486C1034.446 597.006 1034.286 597.646 1033.806 598.486C1031.526 602.326 1028.966 603.366 1026.726 603.366C1027.246 599.606 1029.206 598.726 1031.526 596.206C1032.486 595.166 1033.206 594.366 1033.806 593.646ZM1034.326 587.486C1034.366 587.766 1034.446 588.006 1034.446 588.326C1034.446 588.846 1034.286 589.486 1033.806 590.326C1031.526 594.166 1029.086 595.206 1026.806 595.206C1026.726 595.166 1026.726 595.126 1026.726 595.086C1027.406 590.926 1029.446 590.286 1031.526 588.006C1032.486 586.966 1033.206 586.166 1033.766 585.446C1034.006 586.206 1034.206 587.046 1034.326 587.486Z"></path></g><g><g><path d="M1066.355 557.486C1070.355 557.486 1075.275 553.766 1075.275 549.966C1075.275 547.686 1073.475 546.206 1070.875 546.206C1065.955 546.206 1061.995 549.846 1061.995 553.726C1061.995 556.086 1063.915 557.486 1066.355 557.486Z"></path><g><circle cx="1081.2746021433557" cy="551.8461538461538" r="2.4"></circle></g></g><line stroke="#000000" stroke-width="1.2" x1="1062.5946021433556" x2="1062.5946021433556" y1="553.6861538461538" y2="591.6861538461538"></line><path d="M1072.915 570.166C1072.915 568.166 1072.235 565.646 1072.075 565.366C1071.795 564.886 1071.515 564.726 1071.235 564.726C1071.155 564.726 1071.075 564.726 1070.995 564.766C1070.715 564.886 1070.435 565.286 1070.435 565.806C1070.435 565.886 1070.475 565.966 1070.475 566.086C1070.795 567.886 1071.275 569.126 1071.275 570.486C1071.275 571.606 1070.955 572.766 1070.035 574.406C1066.995 579.846 1064.435 579.926 1061.995 580.006L1061.995 619.886C1061.995 619.886 1062.235 620.406 1062.475 620.406C1062.755 620.406 1063.275 619.966 1063.315 619.606C1063.995 615.446 1066.275 614.806 1068.355 612.526C1071.155 609.486 1072.115 608.366 1072.555 605.806C1072.635 605.406 1072.675 605.006 1072.675 604.606C1072.675 602.926 1072.155 601.166 1071.755 600.126C1072.155 599.366 1072.395 598.606 1072.555 597.646C1072.635 597.246 1072.675 596.846 1072.675 596.446C1072.675 594.766 1072.155 593.006 1071.755 591.966C1072.155 591.206 1072.395 590.446 1072.555 589.486C1072.635 589.126 1072.635 588.726 1072.635 588.326C1072.635 586.606 1072.115 584.846 1071.755 583.766C1072.155 583.046 1072.395 582.246 1072.555 581.286C1072.635 580.766 1072.675 580.246 1072.675 579.726C1072.675 577.646 1072.035 575.926 1071.875 575.526C1071.875 575.406 1071.755 575.286 1071.755 575.166C1071.755 575.086 1071.795 575.006 1071.875 574.886L1072.035 574.606C1072.555 573.606 1072.755 573.166 1072.915 570.606ZM1063.555 586.486C1064.395 583.286 1066.235 582.406 1068.035 580.286C1068.835 579.366 1069.475 578.606 1070.115 577.606C1070.195 577.486 1070.315 577.446 1070.435 577.446C1070.635 577.446 1070.875 577.566 1070.915 577.686C1071.035 577.966 1071.035 578.286 1071.115 578.606C1071.155 578.926 1071.195 579.286 1071.195 579.606C1071.195 580.806 1070.795 581.966 1070.115 582.966C1068.875 584.886 1066.755 587.006 1064.275 587.006L1064.075 587.006C1063.715 587.006 1063.555 586.686 1063.555 586.486ZM1071.155 603.806C1071.195 604.086 1071.275 604.326 1071.275 604.646C1071.275 605.166 1071.115 605.806 1070.635 606.646C1068.355 610.486 1065.795 611.526 1063.555 611.526C1064.075 607.766 1066.035 606.886 1068.355 604.366C1069.315 603.326 1070.035 602.526 1070.635 601.806ZM1071.155 595.646C1071.195 595.926 1071.275 596.166 1071.275 596.486C1071.275 597.006 1071.115 597.646 1070.635 598.486C1068.355 602.326 1065.795 603.366 1063.555 603.366C1064.075 599.606 1066.035 598.726 1068.355 596.206C1069.315 595.166 1070.035 594.366 1070.635 593.646ZM1071.155 587.486C1071.195 587.766 1071.275 588.006 1071.275 588.326C1071.275 588.846 1071.115 589.486 1070.635 590.326C1068.355 594.166 1065.915 595.206 1063.635 595.206C1063.555 595.166 1063.555 595.126 1063.555 595.086C1064.235 590.926 1066.275 590.286 1068.355 588.006C1069.315 586.966 1070.035 586.166 1070.595 585.446C1070.835 586.206 1071.035 587.046 1071.155 587.486Z"></path></g></g><g transform="translate(93.84615384615385)"><g><g><line stroke="#6A6A6A" stroke-width="1.3" x1="0" x2="1140.923076923077" y1="707.8461538461538" y2="707.8461538461538"></line><line stroke="#6A6A6A" stroke-width="1.3" x1="0" x2="1140.923076923077" y1="697.8461538461538" y2="697.8461538461538"></line><line stroke="#6A6A6A" stroke-width="1.3" x1="0" x2="1140.923076923077" y1="687.8461538461538" y2="687.8461538461538"></line><line stroke="#6A6A6A" stroke-width="1.3" x1="0" x2="1140.923076923077" y1="677.8461538461538" y2="677.8461538461538"></line><line stroke="#6A6A6A" stroke-width="1.3" x1="0" x2="1140.923076923077" y1="667.8461538461538" y2="667.8461538461538"></line></g><g><path d="M25.200 653.926C24.640 653.926 23.400 654.966 22.600 655.846C19.640 659.126 18.680 664.126 18.680 668.286C18.680 670.606 18.960 673.206 19.240 674.846C19.320 675.326 19.360 675.406 18.880 675.806C16.320 677.926 13.560 680.366 11.480 682.926C8.720 686.366 7 690.086 7 694.366C7 701.326 11.760 707.926 21.560 707.926C22.480 707.926 23.520 707.846 24.320 707.686C24.760 707.606 24.840 707.566 24.920 708.046C25.400 710.726 26 714.206 26 716.086C26 722.006 22 722.726 19.640 722.726C17.480 722.726 16.440 722.086 16.440 721.566C16.440 721.126 16.800 721.166 17.720 720.886C18.960 720.526 20.400 719.446 20.400 717.126C20.400 714.926 19 713.046 16.560 713.046C13.880 713.046 12.280 715.166 12.280 717.646C12.280 720.246 13.840 724.166 19.880 724.166C22.560 724.166 27.760 722.966 27.760 716.166C27.760 713.886 27.040 710.086 26.600 707.606C26.520 707.126 26.560 707.166 27.120 706.926C31.160 705.326 33.840 701.926 33.840 697.406C33.840 692.286 30.080 687.766 24.200 687.766C23.080 687.766 23.200 687.966 23.040 687.046L22.040 681.246C21.960 680.766 22.040 680.726 22.280 680.486C22.920 679.886 23.760 679.046 24.520 678.206C27.880 674.526 29.880 669.766 29.880 665.246C29.880 661.766 28.920 658.326 27.280 655.926C26.680 655.046 25.640 653.926 25.200 653.926ZM20.040 682.086C20.440 681.766 20.520 681.806 20.600 682.246L21.440 687.366C21.560 688.126 21.560 688.086 20.840 688.326C17.320 689.526 15.040 692.686 15.040 696.086C15.040 699.686 16.920 702.246 19.640 703.166C19.960 703.286 20.440 703.406 20.720 703.406C21.040 703.406 21.200 703.206 21.200 702.966C21.200 702.686 20.880 702.566 20.600 702.446C18.920 701.726 17.720 700.006 17.720 698.166C17.720 695.886 19.280 694.166 21.720 693.486C22.360 693.326 22.440 693.366 22.520 693.806L24.520 705.726C24.600 706.166 24.560 706.166 23.960 706.286C23.320 706.406 22.520 706.486 21.720 706.486C14.720 706.486 10.200 702.606 10.200 697.046C10.200 694.686 10.600 691.526 13.920 687.766C16.320 685.086 18.160 683.606 20.040 682.086ZM24.640 693.166C27.880 693.446 30.560 696.166 30.560 699.686C30.560 702.206 29.040 704.246 26.800 705.366C26.320 705.606 26.240 705.606 26.160 705.126L24.200 693.726C24.120 693.246 24.160 693.126 24.640 693.166ZM25.800 660.126C27.120 660.126 28.200 661.206 28.200 663.406C28.200 666.166 26.880 668.726 23.760 671.846C23.120 672.486 22.160 673.406 21.240 674.206C20.960 674.446 20.800 674.406 20.720 673.886C20.560 672.846 20.480 671.486 20.480 670.206C20.480 663.966 23.360 660.126 25.800 660.126Z"></path></g><g></g><g><g><path d="M64.860 681.486C64.860 681.006 64.660 680.926 64.380 680.926C64.060 680.926 63.940 681.086 63.860 681.326C63.860 681.366 63.820 681.406 63.820 681.446C63.420 682.406 63.100 683.166 62.260 683.166C62.060 683.166 61.860 683.126 61.580 683.046C61.060 682.846 60.780 682.806 60.380 682.606C59.580 682.286 57.700 681.646 56.060 681.646C55.540 681.646 55.020 681.726 54.580 681.886C55.460 680.446 58.860 679.246 59.740 679.006C60.340 678.846 62.020 678.526 63.340 677.446C64.300 676.686 65.060 675.526 65.060 673.766C65.060 671.886 64.260 670.526 63.220 669.646C61.180 667.926 58.060 667.686 57.180 667.686C56.100 667.686 54.740 667.726 53.700 667.966C52.300 668.246 50.900 669.086 49.940 670.206C49.260 671.046 48.820 672.046 48.820 673.126C48.820 673.686 48.940 674.246 49.180 674.846C49.780 676.086 51.020 677.046 52.460 677.046C54.900 677.046 55.260 674.526 55.260 673.526C55.260 671.126 52.500 671.006 52.500 670.206C52.580 669.646 53.300 668.686 55.660 668.686C59.220 668.686 59.260 671.366 59.260 672.526C59.260 674.046 58.780 675.446 57.900 676.606C56.460 678.526 55.340 679.486 53.380 680.686C51.180 682.086 49.620 684.046 48.940 686.566C48.940 686.646 48.900 686.726 48.900 686.806C48.900 687.246 49.180 687.766 49.620 688.046C49.740 688.126 49.860 688.126 49.940 688.126C50.820 688.126 51.300 685.686 53.660 685.686C55.260 685.686 55.860 687.846 59.420 687.846C61.140 687.846 64.220 687.686 64.860 681.486Z"></path><path d="M72.820 676.406C74.260 675.486 75.220 674.166 75.220 672.166C75.220 668.086 69.340 667.486 68.260 667.486C63.620 667.486 60.460 669.606 60.460 672.966C60.460 675.726 62.020 677.206 63.940 678.286C61.860 679.286 60.260 680.606 60.260 683.126C60.260 686.606 63.860 688.206 67.820 688.206C71.820 688.206 76.100 686.486 76.100 681.086C76.100 678.686 74.700 677.366 72.820 676.406ZM67.660 686.886C64.980 686.886 62.540 685.526 62.540 682.926C62.540 681.326 63.940 679.846 65.700 679.166C68.620 680.446 71.580 681.286 71.580 683.926C71.580 685.526 70.340 686.886 67.660 686.886ZM70.740 675.486C67.540 674.366 64.140 673.686 64.140 671.166C64.140 669.486 66.420 668.646 68.180 668.646C69.460 668.646 72.860 669.286 72.860 672.086C72.860 673.686 72.060 674.726 70.740 675.486Z"></path></g><g><path d="M72.180 700.806L69.260 700.806L69.260 692.246C69.260 691.926 69.220 691.566 68.780 691.566C68.420 691.566 68.220 691.646 67.980 691.926L64.180 696.526C64.020 696.726 63.820 696.966 63.820 697.446C63.820 697.446 63.820 699.046 63.820 700.806L58.420 700.806C61.620 698.086 68.020 689.006 68.140 688.566C68.140 688.486 68.180 688.446 68.180 688.366C68.180 688.046 67.900 687.806 67.580 687.806C67.220 687.806 65.580 687.886 64.860 687.886C64.140 687.886 62.340 687.806 62.020 687.806C61.660 687.806 61.100 687.926 61.100 688.566C61.100 693.526 57.180 699.086 55.980 700.766L55.740 701.086C55.740 701.126 55.700 701.166 55.700 701.206C55.620 701.366 55.580 701.526 55.580 701.646C55.580 702.046 55.900 702.326 56.380 702.326L63.820 702.326L63.820 704.846C63.820 705.926 62.940 706.246 62.220 706.246C61.580 706.246 61.300 706.606 61.300 707.006C61.300 707.406 61.460 707.846 62.060 707.846C62.700 707.846 70.580 707.846 70.580 707.846C70.980 707.846 71.380 707.566 71.380 707.006C71.380 706.446 70.900 706.206 70.500 706.206C70.100 706.206 69.260 705.966 69.260 704.686L69.260 702.326C70.980 702.326 72.180 702.326 72.180 702.326C72.580 702.326 72.780 702.046 72.780 701.566C72.780 701.086 72.620 700.806 72.180 700.806Z"></path></g></g><text font-family='Alegreya' font-style='italic' text-anchor='end' stroke='#7a7a7a' font-size="24" x="0" y="657.8461538461538">5</text></g><g><line stroke="black" stroke-width="1.6" x1="1140.1230769230767" x2="1140.1230769230767" y1="667.8461538461538" y2="707.8461538461538"></line></g><g><g><path d="M90.360 689.406L90.360 676.486C90.360 676.326 90.200 676.166 89.960 676.166L89.400 676.166C89.160 676.166 89 676.326 89 676.486L89 689.406C89 689.566 89.160 689.686 89.400 689.686L89.960 689.686C90.200 689.686 90.360 689.566 90.360 689.406ZM92.880 689.406L92.880 676.486C92.880 676.326 92.680 676.166 92.480 676.166L91.920 676.166C91.680 676.166 91.520 676.326 91.520 676.486L91.520 689.406C91.520 689.566 91.680 689.686 91.920 689.686L92.480 689.686C92.680 689.686 92.880 689.566 92.880 689.406ZM102.280 677.486C96.520 677.486 92.920 679.926 92.920 682.926C92.920 685.766 95.400 688.406 101.840 688.406C108.960 688.406 111.240 685.926 111.240 682.926C111.240 679.806 106.360 677.486 102.280 677.486ZM97.720 680.206C98.200 678.726 99.800 678.526 101.160 678.526C104.120 678.526 106.520 681.686 106.520 684.326C106.520 684.606 106.480 684.886 106.440 685.126C106.240 686.206 105.600 686.966 104.520 687.246C104.120 687.366 103.680 687.406 103.240 687.406C102.840 687.406 102.480 687.366 102.080 687.246C101.320 687.006 100.600 686.606 100 686.086C99.680 685.806 99.360 685.446 99.080 685.126C98.280 684.086 97.600 682.606 97.600 681.206C97.600 680.846 97.640 680.526 97.720 680.206ZM112.680 689.406L112.680 676.486C112.680 676.326 112.480 676.166 112.280 676.166L111.680 676.166C111.480 676.166 111.280 676.326 111.280 676.486L111.280 689.406C111.280 689.566 111.480 689.686 111.680 689.686L112.280 689.686C112.480 689.686 112.680 689.566 112.680 689.406ZM115.200 689.406L115.200 676.486C115.200 676.326 115 676.166 114.760 676.166L114.200 676.166C114 676.166 113.760 676.326 113.760 676.486L113.760 689.406C113.760 689.566 114 689.686 114.200 689.686L114.760 689.686C115 689.686 115.200 689.566 115.200 689.406Z"></path><g><circle cx="121.2" cy="682.8461538461538" r="2.4"></circle></g><g><circle cx="127.2" cy="682.8461538461538" r="2.4"></circle></g></g></g></g><g transform="translate(93.84615384615385)"><g><g><line stroke="#6A6A6A" stroke-width="1.3" x1="0" x2="788.909257001322" y1="838.8461538461538" y2="838.8461538461538"></line><line stroke="#6A6A6A" stroke-width="1.3" x1="0" x2="788.909257001322" y1="828.8461538461538" y2="828.8461538461538"></line><line stroke="#6A6A6A" stroke-width="1.3" x1="0" x2="788.909257001322" y1="818.8461538461538" y2="818.8461538461538"></line><line stroke="#6A6A6A" stroke-width="1.3" x1="0" x2="788.909257001322" y1="808.8461538461538" y2="808.8461538461538"></line><line stroke="#6A6A6A" stroke-width="1.3" x1="0" x2="788.909257001322" y1="798.8461538461538" y2="798.8461538461538"></line></g><g><path d="M25.200 784.926C24.640 784.926 23.400 785.966 22.600 786.846C19.640 790.126 18.680 795.126 18.680 799.286C18.680 801.606 18.960 804.206 19.240 805.846C19.320 806.326 19.360 806.406 18.880 806.806C16.320 808.926 13.560 811.366 11.480 813.926C8.720 817.366 7 821.086 7 825.366C7 832.326 11.760 838.926 21.560 838.926C22.480 838.926 23.520 838.846 24.320 838.686C24.760 838.606 24.840 838.566 24.920 839.046C25.400 841.726 26 845.206 26 847.086C26 853.006 22 853.726 19.640 853.726C17.480 853.726 16.440 853.086 16.440 852.566C16.440 852.126 16.800 852.166 17.720 851.886C18.960 851.526 20.400 850.446 20.400 848.126C20.400 845.926 19 844.046 16.560 844.046C13.880 844.046 12.280 846.166 12.280 848.646C12.280 851.246 13.840 855.166 19.880 855.166C22.560 855.166 27.760 853.966 27.760 847.166C27.760 844.886 27.040 841.086 26.600 838.606C26.520 838.126 26.560 838.166 27.120 837.926C31.160 836.326 33.840 832.926 33.840 828.406C33.840 823.286 30.080 818.766 24.200 818.766C23.080 818.766 23.200 818.966 23.040 818.046L22.040 812.246C21.960 811.766 22.040 811.726 22.280 811.486C22.920 810.886 23.760 810.046 24.520 809.206C27.880 805.526 29.880 800.766 29.880 796.246C29.880 792.766 28.920 789.326 27.280 786.926C26.680 786.046 25.640 784.926 25.200 784.926ZM20.040 813.086C20.440 812.766 20.520 812.806 20.600 813.246L21.440 818.366C21.560 819.126 21.560 819.086 20.840 819.326C17.320 820.526 15.040 823.686 15.040 827.086C15.040 830.686 16.920 833.246 19.640 834.166C19.960 834.286 20.440 834.406 20.720 834.406C21.040 834.406 21.200 834.206 21.200 833.966C21.200 833.686 20.880 833.566 20.600 833.446C18.920 832.726 17.720 831.006 17.720 829.166C17.720 826.886 19.280 825.166 21.720 824.486C22.360 824.326 22.440 824.366 22.520 824.806L24.520 836.726C24.600 837.166 24.560 837.166 23.960 837.286C23.320 837.406 22.520 837.486 21.720 837.486C14.720 837.486 10.200 833.606 10.200 828.046C10.200 825.686 10.600 822.526 13.920 818.766C16.320 816.086 18.160 814.606 20.040 813.086ZM24.640 824.166C27.880 824.446 30.560 827.166 30.560 830.686C30.560 833.206 29.040 835.246 26.800 836.366C26.320 836.606 26.240 836.606 26.160 836.126L24.200 824.726C24.120 824.246 24.160 824.126 24.640 824.166ZM25.800 791.126C27.120 791.126 28.200 792.206 28.200 794.406C28.200 797.166 26.880 799.726 23.760 802.846C23.120 803.486 22.160 804.406 21.240 805.206C20.960 805.446 20.800 805.406 20.720 804.886C20.560 803.846 20.480 802.486 20.480 801.206C20.480 794.966 23.360 791.126 25.800 791.126Z"></path></g><g></g><text font-family='Alegreya' font-style='italic' text-anchor='end' stroke='#7a7a7a' font-size="24" x="0" y="788.8461538461538">6</text></g><g><line stroke="#000000" stroke-width="1.6" x1="779.1092570013219" x2="779.1092570013219" y1="798.8461538461538" y2="838.8461538461538"></line><line stroke="#000000" stroke-width="5" x1="786.409257001322" x2="786.409257001322" y1="798.8461538461538" y2="838.8461538461538"></line></g><g><g><path d="M49.860 820.406L49.860 807.486C49.860 807.326 49.700 807.166 49.460 807.166L48.900 807.166C48.660 807.166 48.500 807.326 48.500 807.486L48.500 820.406C48.500 820.566 48.660 820.686 48.900 820.686L49.460 820.686C49.700 820.686 49.860 820.566 49.860 820.406ZM52.380 820.406L52.380 807.486C52.380 807.326 52.180 807.166 51.980 807.166L51.420 807.166C51.180 807.166 51.020 807.326 51.020 807.486L51.020 820.406C51.020 820.566 51.180 820.686 51.420 820.686L51.980 820.686C52.180 820.686 52.380 820.566 52.380 820.406ZM61.780 808.486C56.020 808.486 52.420 810.926 52.420 813.926C52.420 816.766 54.900 819.406 61.340 819.406C68.460 819.406 70.740 816.926 70.740 813.926C70.740 810.806 65.860 808.486 61.780 808.486ZM57.220 811.206C57.700 809.726 59.300 809.526 60.660 809.526C63.620 809.526 66.020 812.686 66.020 815.326C66.020 815.606 65.980 815.886 65.940 816.126C65.740 817.206 65.100 817.966 64.020 818.246C63.620 818.366 63.180 818.406 62.740 818.406C62.340 818.406 61.980 818.366 61.580 818.246C60.820 818.006 60.100 817.606 59.500 817.086C59.180 816.806 58.860 816.446 58.580 816.126C57.780 815.086 57.100 813.606 57.100 812.206C57.100 811.846 57.140 811.526 57.220 811.206ZM72.180 820.406L72.180 807.486C72.180 807.326 71.980 807.166 71.780 807.166L71.180 807.166C70.980 807.166 70.780 807.326 70.780 807.486L70.780 820.406C70.780 820.566 70.980 820.686 71.180 820.686L71.780 820.686C71.980 820.686 72.180 820.566 72.180 820.406ZM74.700 820.406L74.700 807.486C74.700 807.326 74.500 807.166 74.260 807.166L73.700 807.166C73.500 807.166 73.260 807.326 73.260 807.486L73.260 820.406C73.260 820.566 73.500 820.686 73.700 820.686L74.260 820.686C74.500 820.686 74.700 820.566 74.700 820.406Z"></path><g><circle cx="80.7" cy="813.8461538461538" r="2.4"></circle></g><g><circle cx="86.7" cy="813.8461538461538" r="2.4"></circle></g></g></g><g><g><path d="M200.592 808.366C194.792 808.366 191.192 810.806 191.192 813.766C191.192 816.686 193.672 819.286 200.152 819.286C207.272 819.286 209.552 816.806 209.552 813.766C209.552 810.686 204.632 808.366 200.592 808.366ZM196.032 811.086C196.512 809.606 198.112 809.366 199.472 809.366C202.432 809.366 204.832 812.566 204.832 815.206C204.832 815.486 204.792 815.766 204.752 816.006C204.552 817.086 203.912 817.846 202.832 818.126C202.392 818.246 201.952 818.286 201.512 818.286C201.112 818.286 200.752 818.246 200.352 818.126C199.632 817.886 198.912 817.486 198.312 816.966C197.992 816.686 197.672 816.366 197.392 816.006C196.552 815.006 195.872 813.526 195.872 812.166C195.872 811.806 195.912 811.446 196.032 811.086Z"></path></g></g><g><g><path d="M298.986 819.646C306.626 819.646 308.146 813.446 308.146 811.926C308.146 809.566 306.266 808.046 303.586 808.046C296.666 808.046 294.506 813.406 294.506 815.806C294.506 818.246 296.466 819.646 298.986 819.646ZM302.506 815.966C300.426 817.366 298.986 817.846 297.986 817.846C297.026 817.846 296.466 817.366 296.146 816.806C295.986 816.526 295.866 816.206 295.866 815.886C295.866 814.886 296.866 813.606 300.066 811.766C302.346 810.446 303.786 809.966 304.746 809.966C305.626 809.966 306.106 810.366 306.426 810.926C306.586 811.206 306.706 811.486 306.706 811.806C306.706 812.726 305.746 813.846 302.506 815.966Z"></path><g><circle cx="314.1456677777845" cy="813.8461538461538" r="2.4"></circle></g><g><circle cx="320.1456677777845" cy="813.8461538461538" r="2.4"></circle></g></g><line stroke="#000000" stroke-width="1.2" x1="295.10566777778456" x2="295.10566777778456" y1="815.8061538461538" y2="853.8061538461538"></line></g><g><g><path d="M411.261 819.486C415.261 819.486 420.181 815.766 420.181 811.966C420.181 809.686 418.381 808.206 415.781 808.206C410.861 808.206 406.901 811.846 406.901 815.726C406.901 818.086 408.821 819.486 411.261 819.486Z"></path><g><circle cx="426.18114673209675" cy="813.8461538461538" r="2.4"></circle></g><g><circle cx="432.18114673209675" cy="813.8461538461538" r="2.4"></circle></g></g><line stroke="#000000" stroke-width="1.2" x1="407.50114673209674" x2="407.50114673209674" y1="815.6861538461538" y2="853.6861538461538"></line></g><g><g><path d="M508.508 819.486C512.508 819.486 517.428 815.766 517.428 811.966C517.428 809.686 515.628 808.206 513.028 808.206C508.108 808.206 504.148 811.846 504.148 815.726C504.148 818.086 506.068 819.486 508.508 819.486Z"></path><g><circle cx="523.4283875135766" cy="813.8461538461538" r="2.4"></circle></g><g><circle cx="529.4283875135766" cy="813.8461538461538" r="2.4"></circle></g></g><line stroke="#000000" stroke-width="1.2" x1="504.7483875135766" x2="504.7483875135766" y1="815.6861538461538" y2="853.6861538461538"></line><path d="M513.748 828.806C514.308 830.486 514.588 832.486 514.588 834.286C514.588 836.646 513.588 840.006 512.988 841.366C511.508 844.726 509.508 847.966 504.148 849.766L504.148 859.166C504.148 859.646 504.348 859.766 504.588 859.766C505.348 859.766 505.668 859.526 505.748 858.886C506.428 855.086 509.388 851.606 511.428 848.446C513.948 844.486 516.388 839.726 516.388 834.726C516.388 831.606 515.588 828.766 515.268 827.486C514.948 826.206 513.148 827.086 513.748 828.806Z"></path></g><g><g><path d="M590.607 819.486C594.607 819.486 599.527 815.766 599.527 811.966C599.527 809.686 597.727 808.206 595.127 808.206C590.207 808.206 586.247 811.846 586.247 815.726C586.247 818.086 588.167 819.486 590.607 819.486Z"></path><g><circle cx="605.527390122224" cy="813.8461538461538" r="2.4"></circle></g><g><circle cx="611.527390122224" cy="813.8461538461538" r="2.4"></circle></g></g><line stroke="#000000" stroke-width="1.2" x1="586.847390122224" x2="586.847390122224" y1="815.6861538461538" y2="853.6861538461538"></line><path d="M595.847 827.766C596.447 831.126 596.447 834.766 594.927 837.886C592.167 843.486 588.927 843.606 586.447 843.686L586.247 843.686L586.247 859.526C586.247 859.526 586.687 859.566 586.927 859.566C587.167 859.566 587.647 859.486 587.727 859.046C588.687 852.886 596.567 851.166 597.527 844.886C597.607 844.446 597.647 843.966 597.647 843.446C597.647 841.006 596.767 838.606 596.647 838.366C596.607 838.286 596.607 838.206 596.607 838.086C596.607 837.926 596.647 837.846 596.647 837.726C598.087 834.726 598.127 830.806 597.487 827.606C597.287 826.686 597.007 826.726 596.527 826.726C596.047 826.766 595.727 827.086 595.847 827.766ZM595.287 840.966C595.487 840.966 595.767 841.086 595.807 841.246C596.007 841.526 596.007 841.926 596.087 842.246C596.127 842.526 596.127 842.806 596.127 843.046C596.127 844.366 595.767 845.566 595.047 846.606C593.727 848.566 591.167 850.806 588.727 850.806L588.407 850.806C588.087 850.806 587.847 850.606 587.847 850.406C587.847 850.366 587.847 850.326 587.887 850.286C588.727 847.006 590.967 846.086 592.847 843.886C593.687 842.966 594.367 842.166 595.007 841.126C595.087 841.006 595.167 840.966 595.287 840.966Z"></path></g><g><g><path d="M657.558 819.486C661.558 819.486 666.478 815.766 666.478 811.966C666.478 809.686 664.678 808.206 662.078 808.206C657.158 808.206 653.198 811.846 653.198 815.726C653.198 818.086 655.118 819.486 657.558 819.486Z"></path><g><circle cx="672.478154558039" cy="813.8461538461538" r="2.4"></circle></g><g><circle cx="678.478154558039" cy="813.8461538461538" r="2.4"></circle></g></g><line stroke="#000000" stroke-width="1.2" x1="653.7981545580391" x2="653.7981545580391" y1="815.6861538461538" y2="853.6861538461538"></line><path d="M664.118 832.166C664.118 830.166 663.438 827.646 663.278 827.366C662.998 826.886 662.718 826.726 662.438 826.726C662.358 826.726 662.278 826.726 662.198 826.766C661.918 826.886 661.638 827.286 661.638 827.806C661.638 827.886 661.678 827.966 661.678 828.086C661.998 829.886 662.478 831.126 662.478 832.486C662.478 833.606 662.158 834.766 661.238 836.406C658.198 841.846 655.638 841.926 653.198 842.006L653.198 865.566C653.198 865.566 653.438 866.086 653.678 866.086C653.958 866.086 654.478 865.646 654.518 865.286C655.198 861.126 657.478 860.486 659.558 858.206C662.358 855.166 663.318 854.046 663.758 851.486C663.838 851.126 663.838 850.726 663.838 850.326C663.838 848.606 663.318 846.846 662.958 845.766C663.358 845.046 663.598 844.246 663.758 843.286C663.838 842.766 663.878 842.246 663.878 841.726C663.878 839.646 663.238 837.926 663.078 837.526C663.078 837.406 662.958 837.286 662.958 837.166C662.958 837.086 662.998 837.006 663.078 836.886L663.238 836.606C663.758 835.606 663.958 835.166 664.118 832.606ZM654.758 848.486C655.598 845.286 657.438 844.406 659.238 842.286C660.038 841.366 660.678 840.606 661.318 839.606C661.398 839.486 661.518 839.446 661.638 839.446C661.838 839.446 662.078 839.566 662.118 839.686C662.238 839.966 662.238 840.286 662.318 840.606C662.358 840.926 662.398 841.286 662.398 841.606C662.398 842.806 661.998 843.966 661.318 844.966C660.078 846.886 657.958 849.006 655.478 849.006L655.278 849.006C654.918 849.006 654.758 848.686 654.758 848.486ZM662.358 849.486C662.398 849.766 662.478 850.006 662.478 850.326C662.478 850.846 662.318 851.486 661.838 852.326C659.558 856.166 657.118 857.206 654.838 857.206C654.758 857.166 654.758 857.126 654.758 857.086C655.438 852.926 657.478 852.286 659.558 850.006C660.518 848.966 661.238 848.166 661.798 847.446C662.038 848.206 662.238 849.046 662.358 849.486Z"></path></g><g><g><path d="M709.361 819.486C713.361 819.486 718.281 815.766 718.281 811.966C718.281 809.686 716.481 808.206 713.881 808.206C708.961 808.206 705.001 811.846 705.001 815.726C705.001 818.086 706.921 819.486 709.361 819.486Z"></path><g><circle cx="724.2806808210216" cy="813.8461538461538" r="2.4"></circle></g><g><circle cx="730.2806808210216" cy="813.8461538461538" r="2.4"></circle></g></g><line stroke="#000000" stroke-width="1.2" x1="705.6006808210217" x2="705.6006808210217" y1="815.6861538461538" y2="853.6861538461538"></line><path d="M715.921 832.166C715.921 830.166 715.241 827.646 715.081 827.366C714.801 826.886 714.521 826.726 714.241 826.726C714.161 826.726 714.081 826.726 714.001 826.766C713.721 826.886 713.441 827.286 713.441 827.806C713.441 827.886 713.481 827.966 713.481 828.086C713.801 829.886 714.281 831.126 714.281 832.486C714.281 833.606 713.961 834.766 713.041 836.406C710.001 841.846 707.441 841.926 705.001 842.006L705.001 873.726C705.001 873.726 705.241 874.246 705.481 874.246C705.761 874.246 706.281 873.806 706.321 873.446C707.001 869.286 709.281 868.646 711.361 866.366C714.161 863.326 715.121 862.206 715.561 859.646C715.641 859.246 715.681 858.846 715.681 858.446C715.681 856.766 715.161 855.006 714.761 853.966C715.161 853.206 715.401 852.446 715.561 851.486C715.641 851.126 715.641 850.726 715.641 850.326C715.641 848.606 715.121 846.846 714.761 845.766C715.161 845.046 715.401 844.246 715.561 843.286C715.641 842.766 715.681 842.246 715.681 841.726C715.681 839.646 715.041 837.926 714.881 837.526C714.881 837.406 714.761 837.286 714.761 837.166C714.761 837.086 714.801 837.006 714.881 836.886L715.041 836.606C715.561 835.606 715.761 835.166 715.921 832.606ZM706.561 848.486C707.401 845.286 709.241 844.406 711.041 842.286C711.841 841.366 712.481 840.606 713.121 839.606C713.201 839.486 713.321 839.446 713.441 839.446C713.641 839.446 713.881 839.566 713.921 839.686C714.041 839.966 714.041 840.286 714.121 840.606C714.161 840.926 714.201 841.286 714.201 841.606C714.201 842.806 713.801 843.966 713.121 844.966C711.881 846.886 709.761 849.006 707.281 849.006L707.081 849.006C706.721 849.006 706.561 848.686 706.561 848.486ZM714.161 857.646C714.201 857.926 714.281 858.166 714.281 858.486C714.281 859.006 714.121 859.646 713.641 860.486C711.361 864.326 708.801 865.366 706.561 865.366C707.081 861.606 709.041 860.726 711.361 858.206C712.321 857.166 713.041 856.366 713.641 855.646ZM714.161 849.486C714.201 849.766 714.281 850.006 714.281 850.326C714.281 850.846 714.121 851.486 713.641 852.326C711.361 856.166 708.921 857.206 706.641 857.206C706.561 857.166 706.561 857.126 706.561 857.086C707.241 852.926 709.281 852.286 711.361 850.006C712.321 848.966 713.041 848.166 713.601 847.446C713.841 848.206 714.041 849.046 714.161 849.486Z"></path></g><g><g><path d="M746.015 819.486C750.015 819.486 754.935 815.766 754.935 811.966C754.935 809.686 753.135 808.206 750.535 808.206C745.615 808.206 741.655 811.846 741.655 815.726C741.655 818.086 743.575 819.486 746.015 819.486Z"></path><g><circle cx="760.9349689111717" cy="813.8461538461538" r="2.4"></circle></g><g><circle cx="766.9349689111717" cy="813.8461538461538" r="2.4"></circle></g></g><line stroke="#000000" stroke-width="1.2" x1="742.2549689111718" x2="742.2549689111718" y1="815.6861538461538" y2="853.6861538461538"></line><path d="M752.575 832.166C752.575 830.166 751.895 827.646 751.735 827.366C751.455 826.886 751.175 826.726 750.895 826.726C750.815 826.726 750.735 826.726 750.655 826.766C750.375 826.886 750.095 827.286 750.095 827.806C750.095 827.886 750.135 827.966 750.135 828.086C750.455 829.886 750.935 831.126 750.935 832.486C750.935 833.606 750.615 834.766 749.695 836.406C746.655 841.846 744.095 841.926 741.655 842.006L741.655 873.726C741.655 873.726 741.895 874.246 742.135 874.246C742.415 874.246 742.935 873.806 742.975 873.446C743.655 869.286 745.935 868.646 748.015 866.366C750.815 863.326 751.775 862.206 752.215 859.646C752.295 859.246 752.335 858.846 752.335 858.446C752.335 856.766 751.815 855.006 751.415 853.966C751.815 853.206 752.055 852.446 752.215 851.486C752.295 851.126 752.295 850.726 752.295 850.326C752.295 848.606 751.775 846.846 751.415 845.766C751.815 845.046 752.055 844.246 752.215 843.286C752.295 842.766 752.335 842.246 752.335 841.726C752.335 839.646 751.695 837.926 751.535 837.526C751.535 837.406 751.415 837.286 751.415 837.166C751.415 837.086 751.455 837.006 751.535 836.886L751.695 836.606C752.215 835.606 752.415 835.166 752.575 832.606ZM743.215 848.486C744.055 845.286 745.895 844.406 747.695 842.286C748.495 841.366 749.135 840.606 749.775 839.606C749.855 839.486 749.975 839.446 750.095 839.446C750.295 839.446 750.535 839.566 750.575 839.686C750.695 839.966 750.695 840.286 750.775 840.606C750.815 840.926 750.855 841.286 750.855 841.606C750.855 842.806 750.455 843.966 749.775 844.966C748.535 846.886 746.415 849.006 743.935 849.006L743.735 849.006C743.375 849.006 743.215 848.686 743.215 848.486ZM750.815 857.646C750.855 857.926 750.935 858.166 750.935 858.486C750.935 859.006 750.775 859.646 750.295 860.486C748.015 864.326 745.455 865.366 743.215 865.366C743.735 861.606 745.695 860.726 748.015 858.206C748.975 857.166 749.695 856.366 750.295 855.646ZM750.815 849.486C750.855 849.766 750.935 850.006 750.935 850.326C750.935 850.846 750.775 851.486 750.295 852.326C748.015 856.166 745.575 857.206 743.295 857.206C743.215 857.166 743.215 857.126 743.215 857.086C743.895 852.926 745.935 852.286 748.015 850.006C748.975 848.966 749.695 848.166 750.255 847.446C750.495 848.206 750.695 849.046 750.815 849.486Z"></path></g></g></svg>