<?xml version="1.0" encoding="UTF-8" standalone="no"?><svg xmlns="http://www.w3.org/2000/svg" height="279.4mm" viewBox="0 0 1328.6153846153845 1719.3846153846152" width="215.9mm"><g transform="translate(93.84615384615385)"><g><g><line stroke="#6A6A6A" stroke-width="1.3" x1="0" x2="928.9376136614925" y1="163.8461538461538" y2="163.8461538461538"></line></g><g><path d="M25.200 129.926C24.640 129.926 23.400 130.966 22.600 131.846C19.640 135.126 18.680 140.126 18.680 144.286C18.680 146.606 18.960 149.206 19.240 150.846C19.320 151.326 19.360 151.406 18.880 151.806C16.320 153.926 13.560 156.366 11.480 158.926C8.720 162.366 7 166.086 7 170.366C7 177.326 11.760 183.926 21.560 183.926C22.480 183.926 23.520 183.846 24.320 183.686C24.760 183.606 24.840 183.566 24.920 184.046C25.400 186.726 26 190.206 26 192.086C26 198.006 22 198.726 19.640 198.726C17.480 198.726 16.440 198.086 16.440 197.566C16.440 197.126 16.800 197.166 17.720 196.886C18.960 196.526 20.400 195.446 20.400 193.126C20.400 190.926 19 189.046 16.560 189.046C13.880 189.046 12.280 191.166 12.280 193.646C12.280 196.246 13.840 200.166 19.880 200.166C22.560 200.166 27.760 198.966 27.760 192.166C27.760 189.886 27.040 186.086 26.600 183.606C26.520 183.126 26.560 183.166 27.120 182.926C31.160 181.326 33.840 177.926 33.840 173.406C33.840 168.286 30.080 163.766 24.200 163.766C23.080 163.766 23.200 163.966 23.040 163.046L22.040 157.246C21.960 156.766 22.040 156.726 22.280 156.486C22.920 155.886 23.760 155.046 24.520 154.206C27.880 150.526 29.880 145.766 29.880 141.246C29.880 137.766 28.920 134.326 27.280 131.926C26.680 131.046 25.640 129.926 25.200 129.926ZM20.040 158.086C20.440 157.766 20.520 157.806 20.600 158.246L21.440 163.366C21.560 164.126 21.560 164.086 20.840 164.326C17.320 165.526 15.040 168.686 15.040 172.086C15.040 175.686 16.920 178.246 19.640 179.166C19.960 179.286 20.440 179.406 20.720 179.406C21.040 179.406 21.200 179.206 21.200 178.966C21.200 178.686 20.880 178.566 20.600 178.446C18.920 177.726 17.720 176.006 17.720 174.166C17.720 171.886 19.280 170.166 21.720 169.486C22.360 169.326 22.440 169.366 22.520 169.806L24.520 181.726C24.600 182.166 24.560 182.166 23.960 182.286C23.320 182.406 22.520 182.486 21.720 182.486C14.720 182.486 10.200 178.606 10.200 173.046C10.200 170.686 10.600 167.526 13.920 163.766C16.320 161.086 18.160 159.606 20.040 158.086ZM24.640 169.166C27.880 169.446 30.560 172.166 30.560 175.686C30.560 178.206 29.040 180.246 26.800 181.366C26.320 181.606 26.240 181.606 26.160 181.126L24.200 169.726C24.120 169.246 24.160 169.126 24.640 169.166ZM25.800 136.126C27.120 136.126 28.200 137.206 28.200 139.406C28.200 142.166 26.880 144.726 23.760 147.846C23.120 148.486 22.160 149.406 21.240 150.206C20.960 150.446 20.800 150.406 20.720 149.886C20.560 148.846 20.480 147.486 20.480 146.206C20.480 139.966 23.360 136.126 25.800 136.126Z"></path></g><g></g><path d="M57.820 153.806C56.620 153.806 55.220 154.126 54.140 154.606C50.580 156.166 48.700 160.446 48.700 164.246C48.700 164.606 48.700 164.966 48.740 165.326C48.940 167.486 49.980 169.526 51.300 171.126C52.820 172.966 55.020 173.806 57.420 173.806C64.420 173.806 65.460 167.446 65.460 166.286C65.460 165.406 65.020 165.406 64.860 165.406C64.540 165.406 64.260 165.446 64.260 166.126C64.260 171.286 59.860 172.486 58.580 172.486C55.340 172.486 53.620 169.326 53.620 162.726C53.620 156.126 56.660 154.766 58.820 154.766C60.900 154.766 61.740 155.726 61.740 156.126C61.740 156.486 61.620 157.006 61.020 157.006C59.420 157.006 58.500 158.726 58.500 159.966C58.500 162.246 60.460 162.966 61.580 162.966C61.580 162.966 64.620 162.846 64.620 159.526C64.620 154.286 58.580 153.806 57.820 153.806Z"></path><g><line stroke="#000000" stroke-width="5" x1="-7.5" x2="-7.5" y1="138.3461538461538" y2="289.3461538461538"></line><path d="M-10 141.346L-5 141.346C1.400 140.146 7.120 137.186 8.720 130.506C8.760 130.346 8.760 130.226 8.760 130.106C8.760 129.786 8.640 129.626 8.440 129.546C8.080 129.546 7.640 129.826 7.440 130.106C7.040 130.546 2 135.826-5.640 136.386L-9.680 136.386C-9.920 136.386-10 136.426-10 136.666Z"></path><path d="M-10 291.026C-10 291.266-9.920 291.306-9.680 291.306L-5.640 291.306C2 291.866 7.040 297.146 7.440 297.586C7.640 297.866 8.080 298.146 8.440 298.146C8.640 298.066 8.760 297.906 8.760 297.586C8.760 297.466 8.760 297.346 8.720 297.186C7.120 290.506 1.400 287.546-5 286.346L-10 286.346Z"></path><line stroke="#000000" stroke-width="1.6" x1="0" x2="0" y1="143.3461538461538" y2="284.3461538461538"></line></g></g><g><line stroke="black" stroke-width="1.6" x1="305.3679022019422" x2="305.3679022019422" y1="143.3461538461538" y2="284.3461538461538"></line></g><g><g><line stroke="#6A6A6A" stroke-width="1.3" x1="0" x2="304.56790220194216" y1="283.8461538461538" y2="283.8461538461538"></line><line stroke="#6A6A6A" stroke-width="1.3" x1="0" x2="304.56790220194216" y1="273.8461538461538" y2="273.8461538461538"></line><line stroke="#6A6A6A" stroke-width="1.3" x1="0" x2="304.56790220194216" y1="263.8461538461538" y2="263.8461538461538"></line><line stroke="#6A6A6A" stroke-width="1.3" x1="0" x2="304.56790220194216" y1="253.8461538461538" y2="253.8461538461538"></line><line stroke="#6A6A6A" stroke-width="1.3" x1="0" x2="304.56790220194216" y1="243.8461538461538" y2="243.8461538461538"></line></g><g><path d="M25.200 229.926C24.640 229.926 23.400 230.966 22.600 231.846C19.640 235.126 18.680 240.126 18.680 244.286C18.680 246.606 18.960 249.206 19.240 250.846C19.320 251.326 19.360 251.406 18.880 251.806C16.320 253.926 13.560 256.366 11.480 258.926C8.720 262.366 7 266.086 7 270.366C7 277.326 11.760 283.926 21.560 283.926C22.480 283.926 23.520 283.846 24.320 283.686C24.760 283.606 24.840 283.566 24.920 284.046C25.400 286.726 26 290.206 26 292.086C26 298.006 22 298.726 19.640 298.726C17.480 298.726 16.440 298.086 16.440 297.566C16.440 297.126 16.800 297.166 17.720 296.886C18.960 296.526 20.400 295.446 20.400 293.126C20.400 290.926 19 289.046 16.560 289.046C13.880 289.046 12.280 291.166 12.280 293.646C12.280 296.246 13.840 300.166 19.880 300.166C22.560 300.166 27.760 298.966 27.760 292.166C27.760 289.886 27.040 286.086 26.600 283.606C26.520 283.126 26.560 283.166 27.120 282.926C31.160 281.326 33.840 277.926 33.840 273.406C33.840 268.286 30.080 263.766 24.200 263.766C23.080 263.766 23.200 263.966 23.040 263.046L22.040 257.246C21.960 256.766 22.040 256.726 22.280 256.486C22.920 255.886 23.760 255.046 24.520 254.206C27.880 250.526 29.880 245.766 29.880 241.246C29.880 237.766 28.920 234.326 27.280 231.926C26.680 231.046 25.640 229.926 25.200 229.926ZM20.040 258.086C20.440 257.766 20.520 257.806 20.600 258.246L21.440 263.366C21.560 264.126 21.560 264.086 20.840 264.326C17.320 265.526 15.040 268.686 15.040 272.086C15.040 275.686 16.920 278.246 19.640 279.166C19.960 279.286 20.440 279.406 20.720 279.406C21.040 279.406 21.200 279.206 21.200 278.966C21.200 278.686 20.880 278.566 20.600 278.446C18.920 277.726 17.720 276.006 17.720 274.166C17.720 271.886 19.280 270.166 21.720 269.486C22.360 269.326 22.440 269.366 22.520 269.806L24.520 281.726C24.600 282.166 24.560 282.166 23.960 282.286C23.320 282.406 22.520 282.486 21.720 282.486C14.720 282.486 10.200 278.606 10.200 273.046C10.200 270.686 10.600 267.526 13.920 263.766C16.320 261.086 18.160 259.606 20.040 258.086ZM24.640 269.166C27.880 269.446 30.560 272.166 30.560 275.686C30.560 278.206 29.040 280.246 26.800 281.366C26.320 281.606 26.240 281.606 26.160 281.126L24.200 269.726C24.120 269.246 24.160 269.126 24.640 269.166ZM25.800 236.126C27.120 236.126 28.200 237.206 28.200 239.406C28.200 242.166 26.880 244.726 23.760 247.846C23.120 248.486 22.160 249.406 21.240 250.206C20.960 250.446 20.800 250.406 20.720 249.886C20.560 248.846 20.480 247.486 20.480 246.206C20.480 239.966 23.360 236.126 25.800 236.126Z"></path></g><g></g><path d="M57.820 253.806C56.620 253.806 55.220 254.126 54.140 254.606C50.580 256.166 48.700 260.446 48.700 264.246C48.700 264.606 48.700 264.966 48.740 265.326C48.940 267.486 49.980 269.526 51.300 271.126C52.820 272.966 55.020 273.806 57.420 273.806C64.420 273.806 65.460 267.446 65.460 266.286C65.460 265.406 65.020 265.406 64.860 265.406C64.540 265.406 64.260 265.446 64.260 266.126C64.260 271.286 59.860 272.486 58.580 272.486C55.340 272.486 53.620 269.326 53.620 262.726C53.620 256.126 56.660 254.766 58.820 254.766C60.900 254.766 61.740 255.726 61.740 256.126C61.740 256.486 61.620 257.006 61.020 257.006C59.420 257.006 58.500 258.726 58.500 259.966C58.500 262.246 60.460 262.966 61.580 262.966C61.580 262.966 64.620 262.846 64.620 259.526C64.620 254.286 58.580 253.806 57.820 253.806Z"></path><g><line stroke="#000000" stroke-width="5" x1="-7.5" x2="-7.5" y1="138.3461538461538" y2="289.3461538461538"></line><path d="M-10 141.346L-5 141.346C1.400 140.146 7.120 137.186 8.720 130.506C8.760 130.346 8.760 130.226 8.760 130.106C8.760 129.786 8.640 129.626 8.440 129.546C8.080 129.546 7.640 129.826 7.440 130.106C7.040 130.546 2 135.826-5.640 136.386L-9.680 136.386C-9.920 136.386-10 136.426-10 136.666Z"></path><path d="M-10 291.026C-10 291.266-9.920 291.306-9.680 291.306L-5.640 291.306C2 291.866 7.040 297.146 7.440 297.586C7.640 297.866 8.080 298.146 8.440 298.146C8.640 298.066 8.760 297.906 8.760 297.586C8.760 297.466 8.760 297.346 8.720 297.186C7.120 290.506 1.400 287.546-5 286.346L-10 286.346Z"></path><line stroke="#000000" stroke-width="1.6" x1="0" x2="0" y1="143.3461538461538" y2="284.3461538461538"></line></g></g><g><line stroke="black" stroke-width="1.6" x1="305.3679022019422" x2="305.3679022019422" y1="143.3461538461538" y2="284.3461538461538"></line></g><g><g><path d="M181.480 148.366C175.680 148.366 172.080 150.806 172.080 153.766C172.080 156.686 174.560 159.286 181.040 159.286C188.160 159.286 190.440 156.806 190.440 153.766C190.440 150.686 185.520 148.366 181.480 148.366ZM176.920 151.086C177.400 149.606 179.000 149.366 180.360 149.366C183.320 149.366 185.720 152.566 185.720 155.206C185.720 155.486 185.680 155.766 185.640 156.006C185.440 157.086 184.800 157.846 183.720 158.126C183.280 158.246 182.840 158.286 182.400 158.286C182.000 158.286 181.640 158.246 181.240 158.126C180.520 157.886 179.800 157.486 179.200 156.966C178.880 156.686 178.560 156.366 178.280 156.006C177.440 155.006 176.760 153.526 176.760 152.166C176.760 151.806 176.800 151.446 176.920 151.086Z"></path></g></g><g><g><path d="M181.480 268.366C175.680 268.366 172.080 270.806 172.080 273.766C172.080 276.686 174.560 279.286 181.040 279.286C188.160 279.286 190.440 276.806 190.440 273.766C190.440 270.686 185.520 268.366 181.480 268.366ZM176.920 271.086C177.400 269.606 179.000 269.366 180.360 269.366C183.320 269.366 185.720 272.566 185.720 275.206C185.720 275.486 185.680 275.766 185.640 276.006C185.440 277.086 184.800 277.846 183.720 278.126C183.280 278.246 182.840 278.286 182.400 278.286C182.000 278.286 181.640 278.246 181.240 278.126C180.520 277.886 179.800 277.486 179.200 276.966C178.880 276.686 178.560 276.366 178.280 276.006C177.440 275.006 176.760 273.526 176.760 272.166C176.760 271.806 176.800 271.446 176.920 271.086Z"></path></g></g></g><g transform="translate(415.014056048096)"><g></g><g><line stroke="black" stroke-width="1.6" x1="325.0964245840259" x2="325.0964245840259" y1="143.3461538461538" y2="284.3461538461538"></line></g><g><g><line stroke="#6A6A6A" stroke-width="1.3" x1="-16.600000000000023" x2="518.1013897406692" y1="278.8461538461538" y2="278.8461538461538"></line><line stroke="#6A6A6A" stroke-width="1.3" x1="-16.600000000000023" x2="518.1013897406692" y1="268.8461538461538" y2="268.8461538461538"></line><line stroke="#6A6A6A" stroke-width="1.3" x1="-16.600000000000023" x2="518.1013897406692" y1="258.8461538461538" y2="258.8461538461538"></line><line stroke="#6A6A6A" stroke-width="1.3" x1="-16.600000000000023" x2="518.1013897406692" y1="248.8461538461538" y2="248.8461538461538"></line></g></g><g><line stroke="black" stroke-width="1.6" x1="325.0964245840259" x2="325.0964245840259" y1="143.3461538461538" y2="284.3461538461538"></line></g><g><g><path d="M175.560 148.366C169.760 148.366 166.160 150.806 166.160 153.766C166.160 156.686 168.640 159.286 175.120 159.286C182.240 159.286 184.520 156.806 184.520 153.766C184.520 150.686 179.600 148.366 175.560 148.366ZM171.000 151.086C171.480 149.606 173.080 149.366 174.440 149.366C177.400 149.366 179.800 152.566 179.800 155.206C179.800 155.486 179.760 155.766 179.720 156.006C179.520 157.086 178.880 157.846 177.800 158.126C177.360 158.246 176.920 158.286 176.480 158.286C176.080 158.286 175.720 158.246 175.320 158.126C174.600 157.886 173.880 157.486 173.280 156.966C172.960 156.686 172.640 156.366 172.360 156.006C171.520 155.006 170.840 153.526 170.840 152.166C170.840 151.806 170.880 151.446 171.000 151.086Z"></path></g></g><g><g><path d="M170.640 279.646C178.280 279.646 179.800 273.446 179.800 271.926C179.800 269.566 177.920 268.046 175.240 268.046C168.320 268.046 166.160 273.406 166.160 275.806C166.160 278.246 168.120 279.646 170.640 279.646ZM174.160 275.966C172.080 277.366 170.640 277.846 169.640 277.846C168.680 277.846 168.120 277.366 167.800 276.806C167.640 276.526 167.520 276.206 167.520 275.886C167.520 274.886 168.520 273.606 171.720 271.766C174.000 270.446 175.440 269.966 176.400 269.966C177.280 269.966 177.760 270.366 178.080 270.926C178.240 271.206 178.360 271.486 178.360 271.806C178.360 272.726 177.400 273.846 174.160 275.966Z"></path></g><line stroke="#000000" stroke-width="1.2" x1="179.19978114626372" x2="179.19978114626372" y1="271.9261538461538" y2="236.9261538461538"></line></g><g><g><path d="M249.708 279.646C257.348 279.646 258.868 273.446 258.868 271.926C258.868 269.566 256.988 268.046 254.308 268.046C247.388 268.046 245.228 273.406 245.228 275.806C245.228 278.246 247.188 279.646 249.708 279.646ZM253.228 275.966C251.148 277.366 249.708 277.846 248.708 277.846C247.748 277.846 247.188 277.366 246.868 276.806C246.708 276.526 246.588 276.206 246.588 275.886C246.588 274.886 247.588 273.606 250.788 271.766C253.068 270.446 254.508 269.966 255.468 269.966C256.348 269.966 256.828 270.366 257.148 270.926C257.308 271.206 257.428 271.486 257.428 271.806C257.428 272.726 256.468 273.846 253.228 275.966Z"></path></g><line stroke="#000000" stroke-width="1.2" x1="258.26810286514484" x2="258.26810286514484" y1="271.9261538461538" y2="236.9261538461538"></line></g></g><g transform="translate(755.9104806321219)"><g></g><g><line stroke="black" stroke-width="1.6" x1="257.0732868755244" x2="257.0732868755244" y1="143.3461538461538" y2="284.3461538461538"></line><line stroke="black" stroke-width="5" x1="264.3732868755244" x2="264.3732868755244" y1="143.3461538461538" y2="284.3461538461538"></line></g><g></g><g><g><line stroke="#6A6A6A" stroke-width="1.3" x1="49.06832171888101" x2="266.87328687552434" y1="268.8461538461538" y2="268.8461538461538"></line><line stroke="#6A6A6A" stroke-width="1.3" x1="49.06832171888101" x2="266.87328687552434" y1="258.8461538461538" y2="258.8461538461538"></line></g></g><g><line stroke="black" stroke-width="1.6" x1="257.0732868755244" x2="257.0732868755244" y1="143.3461538461538" y2="284.3461538461538"></line><line stroke="black" stroke-width="5" x1="264.3732868755244" x2="264.3732868755244" y1="143.3461538461538" y2="284.3461538461538"></line></g><g><g><path d="M58.468 148.366C52.668 148.366 49.068 150.806 49.068 153.766C49.068 156.686 51.548 159.286 58.028 159.286C65.148 159.286 67.428 156.806 67.428 153.766C67.428 150.686 62.508 148.366 58.468 148.366ZM53.908 151.086C54.388 149.606 55.988 149.366 57.348 149.366C60.308 149.366 62.708 152.566 62.708 155.206C62.708 155.486 62.668 155.766 62.628 156.006C62.428 157.086 61.788 157.846 60.708 158.126C60.268 158.246 59.828 158.286 59.388 158.286C58.988 158.286 58.628 158.246 58.228 158.126C57.508 157.886 56.788 157.486 56.188 156.966C55.868 156.686 55.548 156.366 55.268 156.006C54.428 155.006 53.748 153.526 53.748 152.166C53.748 151.806 53.788 151.446 53.908 151.086Z"></path></g></g><g><g><path d="M53.548 279.646C61.188 279.646 62.708 273.446 62.708 271.926C62.708 269.566 60.828 268.046 58.148 268.046C51.228 268.046 49.068 273.406 49.068 275.806C49.068 278.246 51.028 279.646 53.548 279.646ZM57.068 275.966C54.988 277.366 53.548 277.846 52.548 277.846C51.588 277.846 51.028 277.366 50.708 276.806C50.548 276.526 50.428 276.206 50.428 275.886C50.428 274.886 51.428 273.606 54.628 271.766C56.908 270.446 58.348 269.966 59.308 269.966C60.188 269.966 60.668 270.366 60.988 270.926C61.148 271.206 61.268 271.486 61.268 271.806C61.268 272.726 60.308 273.846 57.068 275.966Z"></path></g><line stroke="#000000" stroke-width="1.2" x1="62.10832171888109" x2="62.10832171888109" y1="271.9261538461538" y2="236.9261538461538"></line></g><g><g><path d="M181.685 279.646C189.325 279.646 190.845 273.446 190.845 271.926C190.845 269.566 188.965 268.046 186.285 268.046C179.365 268.046 177.205 273.406 177.205 275.806C177.205 278.246 179.165 279.646 181.685 279.646ZM185.205 275.966C183.125 277.366 181.685 277.846 180.685 277.846C179.725 277.846 179.165 277.366 178.845 276.806C178.685 276.526 178.565 276.206 178.565 275.886C178.565 274.886 179.565 273.606 182.765 271.766C185.045 270.446 186.485 269.966 187.445 269.966C188.325 269.966 188.805 270.366 189.125 270.926C189.285 271.206 189.405 271.486 189.405 271.806C189.405 272.726 188.445 273.846 185.205 275.966Z"></path></g><line stroke="#000000" stroke-width="1.2" x1="190.24496515664327" x2="190.24496515664327" y1="271.9261538461538" y2="236.9261538461538"></line></g></g></svg>