<?xml version="1.0" encoding="UTF-8" standalone="no"?><svg xmlns="http://www.w3.org/2000/svg" height="279.4mm" viewBox="0 0 1328.6153846153845 1719.3846153846152" width="215.9mm"><g transform="translate(163.84615384615387)"><g><g><line stroke="#6A6A6A" stroke-width="1.3" x1="0" x2="269.6646153846154" y1="183.8461538461538" y2="183.8461538461538"></line><line stroke="#6A6A6A" stroke-width="1.3" x1="0" x2="269.6646153846154" y1="173.8461538461538" y2="173.8461538461538"></line><line stroke="#6A6A6A" stroke-width="1.3" x1="0" x2="269.6646153846154" y1="163.8461538461538" y2="163.8461538461538"></line><line stroke="#6A6A6A" stroke-width="1.3" x1="0" x2="269.6646153846154" y1="153.8461538461538" y2="153.8461538461538"></line><line stroke="#6A6A6A" stroke-width="1.3" x1="0" x2="269.6646153846154" y1="143.8461538461538" y2="143.8461538461538"></line></g><g><path d="M25.200 129.926C24.640 129.926 23.400 130.966 22.600 131.846C19.640 135.126 18.680 140.126 18.680 144.286C18.680 146.606 18.960 149.206 19.240 150.846C19.320 151.326 19.360 151.406 18.880 151.806C16.320 153.926 13.560 156.366 11.480 158.926C8.720 162.366 7 166.086 7 170.366C7 177.326 11.760 183.926 21.560 183.926C22.480 183.926 23.520 183.846 24.320 183.686C24.760 183.606 24.840 183.566 24.920 184.046C25.400 186.726 26 190.206 26 192.086C26 198.006 22 198.726 19.640 198.726C17.480 198.726 16.440 198.086 16.440 197.566C16.440 197.126 16.800 197.166 17.720 196.886C18.960 196.526 20.400 195.446 20.400 193.126C20.400 190.926 19 189.046 16.560 189.046C13.880 189.046 12.280 191.166 12.280 193.646C12.280 196.246 13.840 200.166 19.880 200.166C22.560 200.166 27.760 198.966 27.760 192.166C27.760 189.886 27.040 186.086 26.600 183.606C26.520 183.126 26.560 183.166 27.120 182.926C31.160 181.326 33.840 177.926 33.840 173.406C33.840 168.286 30.080 163.766 24.200 163.766C23.080 163.766 23.200 163.966 23.040 163.046L22.040 157.246C21.960 156.766 22.040 156.726 22.280 156.486C22.920 155.886 23.760 155.046 24.520 154.206C27.880 150.526 29.880 145.766 29.880 141.246C29.880 137.766 28.920 134.326 27.280 131.926C26.680 131.046 25.640 129.926 25.200 129.926ZM20.040 158.086C20.440 157.766 20.520 157.806 20.600 158.246L21.440 163.366C21.560 164.126 21.560 164.086 20.840 164.326C17.320 165.526 15.040 168.686 15.040 172.086C15.040 175.686 16.920 178.246 19.640 179.166C19.960 179.286 20.440 179.406 20.720 179.406C21.040 179.406 21.200 179.206 21.200 178.966C21.200 178.686 20.880 178.566 20.600 178.446C18.920 177.726 17.720 176.006 17.720 174.166C17.720 171.886 19.280 170.166 21.720 169.486C22.360 169.326 22.440 169.366 22.520 169.806L24.520 181.726C24.600 182.166 24.560 182.166 23.960 182.286C23.320 182.406 22.520 182.486 21.720 182.486C14.720 182.486 10.200 178.606 10.200 173.046C10.200 170.686 10.600 167.526 13.920 163.766C16.320 161.086 18.160 159.606 20.040 158.086ZM24.640 169.166C27.880 169.446 30.560 172.166 30.560 175.686C30.560 178.206 29.040 180.246 26.800 181.366C26.320 181.606 26.240 181.606 26.160 181.126L24.200 169.726C24.120 169.246 24.160 169.126 24.640 169.166ZM25.800 136.126C27.120 136.126 28.200 137.206 28.200 139.406C28.200 142.166 26.880 144.726 23.760 147.846C23.120 148.486 22.160 149.406 21.240 150.206C20.960 150.446 20.800 150.406 20.720 149.886C20.560 148.846 20.480 147.486 20.480 146.206C20.480 139.966 23.360 136.126 25.800 136.126Z"></path></g><g></g><path d="M57.820 153.806C56.620 153.806 55.220 154.126 54.140 154.606C50.580 156.166 48.700 160.446 48.700 164.246C48.700 164.606 48.700 164.966 48.740 165.326C48.940 167.486 49.980 169.526 51.300 171.126C52.820 172.966 55.020 173.806 57.420 173.806C64.420 173.806 65.460 167.446 65.460 166.286C65.460 165.406 65.020 165.406 64.860 165.406C64.540 165.406 64.260 165.446 64.260 166.126C64.260 171.286 59.860 172.486 58.580 172.486C55.340 172.486 53.620 169.326 53.620 162.726C53.620 156.126 56.660 154.766 58.820 154.766C60.900 154.766 61.740 155.726 61.740 156.126C61.740 156.486 61.620 157.006 61.020 157.006C59.420 157.006 58.500 158.726 58.500 159.966C58.500 162.246 60.460 162.966 61.580 162.966C61.580 162.966 64.620 162.846 64.620 159.526C64.620 154.286 58.580 153.806 57.820 153.806Z"></path></g><g><line stroke="black" stroke-width="1.6" x1="270.4646153846154" x2="270.4646153846154" y1="143.8461538461538" y2="183.8461538461538"></line></g><g><path d="M180.972 158.206L180.972 154.526C180.972 153.926 180.492 153.486 179.932 153.486L170.732 153.486C170.132 153.486 169.692 153.926 169.692 154.526L169.692 158.206C169.692 158.766 170.132 159.246 170.732 159.246L179.932 159.246C180.492 159.246 180.972 158.766 180.972 158.206Z"></path></g></g><g transform="translate(450.1107692307693)"><g><g><line stroke="#6A6A6A" stroke-width="1.3" x1="-16.600000000000023" x2="784.6584615384614" y1="183.8461538461538" y2="183.8461538461538"></line><line stroke="#6A6A6A" stroke-width="1.3" x1="-16.600000000000023" x2="784.6584615384614" y1="173.8461538461538" y2="173.8461538461538"></line><line stroke="#6A6A6A" stroke-width="1.3" x1="-16.600000000000023" x2="784.6584615384614" y1="163.8461538461538" y2="163.8461538461538"></line><line stroke="#6A6A6A" stroke-width="1.3" x1="-16.600000000000023" x2="784.6584615384614" y1="153.8461538461538" y2="153.8461538461538"></line><line stroke="#6A6A6A" stroke-width="1.3" x1="-16.600000000000023" x2="784.6584615384614" y1="143.8461538461538" y2="143.8461538461538"></line></g></g><g><line stroke="black" stroke-width="1.6" x1="181.4646153846154" x2="181.4646153846154" y1="143.8461538461538" y2="183.8461538461538"></line></g><g><line stroke="#000000" stroke-width="1.6" x1="183.06461538461537" x2="183.06461538461537" y1="143.8461538461538" y2="183.8461538461538"></line><line stroke="#000000" stroke-width="5" x1="190.36461538461535" x2="190.36461538461535" y1="143.8461538461538" y2="183.8461538461538"></line></g><g><path d="M88.472 158.206L88.472 154.526C88.472 153.926 87.992 153.486 87.432 153.486L78.232 153.486C77.632 153.486 77.192 153.926 77.192 154.526L77.192 158.206C77.192 158.766 77.632 159.246 78.232 159.246L87.432 159.246C87.992 159.246 88.472 158.766 88.472 158.206Z"></path></g></g><g transform="translate(657.9753846153847)"><g></g><g><line stroke="black" stroke-width="1.6" x1="181.4646153846154" x2="181.4646153846154" y1="143.8461538461538" y2="183.8461538461538"></line></g><g><path d="M83.172 158.206L83.172 154.526C83.172 153.926 82.692 153.486 82.132 153.486L72.932 153.486C72.332 153.486 71.892 153.926 71.892 154.526L71.892 158.206C71.892 158.766 72.332 159.246 72.932 159.246L82.132 159.246C82.692 159.246 83.172 158.766 83.172 158.206Z"></path></g></g><g transform="translate(855.24)"><g></g><g><line stroke="black" stroke-width="1.6" x1="181.4646153846154" x2="181.4646153846154" y1="143.8461538461538" y2="183.8461538461538"></line></g><g><path d="M87.672 158.206L87.672 154.526C87.672 153.926 87.192 153.486 86.632 153.486L77.432 153.486C76.832 153.486 76.392 153.926 76.392 154.526L76.392 158.206C76.392 158.766 76.832 159.246 77.432 159.246L86.632 159.246C87.192 159.246 87.672 158.766 87.672 158.206Z"></path></g></g><g transform="translate(1052.5046153846154)"><g></g><g><line stroke="black" stroke-width="1.6" x1="181.4646153846154" x2="181.4646153846154" y1="143.8461538461538" y2="183.8461538461538"></line></g><g><path d="M87.672 158.206L87.672 154.526C87.672 153.926 87.192 153.486 86.632 153.486L77.432 153.486C76.832 153.486 76.392 153.926 76.392 154.526L76.392 158.206C76.392 158.766 76.832 159.246 77.432 159.246L86.632 159.246C87.192 159.246 87.672 158.766 87.672 158.206Z"></path></g></g><g transform="translate(93.84615384615385)"><g><g><line stroke="#6A6A6A" stroke-width="1.3" x1="0" x2="1140.923076923077" y1="314.8461538461538" y2="314.8461538461538"></line><line stroke="#6A6A6A" stroke-width="1.3" x1="0" x2="1140.923076923077" y1="304.8461538461538" y2="304.8461538461538"></line><line stroke="#6A6A6A" stroke-width="1.3" x1="0" x2="1140.923076923077" y1="294.8461538461538" y2="294.8461538461538"></line><line stroke="#6A6A6A" stroke-width="1.3" x1="0" x2="1140.923076923077" y1="284.8461538461538" y2="284.8461538461538"></line><line stroke="#6A6A6A" stroke-width="1.3" x1="0" x2="1140.923076923077" y1="274.8461538461538" y2="274.8461538461538"></line></g><g><path d="M25.200 260.926C24.640 260.926 23.400 261.966 22.600 262.846C19.640 266.126 18.680 271.126 18.680 275.286C18.680 277.606 18.960 280.206 19.240 281.846C19.320 282.326 19.360 282.406 18.880 282.806C16.320 284.926 13.560 287.366 11.480 289.926C8.720 293.366 7 297.086 7 301.366C7 308.326 11.760 314.926 21.560 314.926C22.480 314.926 23.520 314.846 24.320 314.686C24.760 314.606 24.840 314.566 24.920 315.046C25.400 317.726 26 321.206 26 323.086C26 329.006 22 329.726 19.640 329.726C17.480 329.726 16.440 329.086 16.440 328.566C16.440 328.126 16.800 328.166 17.720 327.886C18.960 327.526 20.400 326.446 20.400 324.126C20.400 321.926 19 320.046 16.560 320.046C13.880 320.046 12.280 322.166 12.280 324.646C12.280 327.246 13.840 331.166 19.880 331.166C22.560 331.166 27.760 329.966 27.760 323.166C27.760 320.886 27.040 317.086 26.600 314.606C26.520 314.126 26.560 314.166 27.120 313.926C31.160 312.326 33.840 308.926 33.840 304.406C33.840 299.286 30.080 294.766 24.200 294.766C23.080 294.766 23.200 294.966 23.040 294.046L22.040 288.246C21.960 287.766 22.040 287.726 22.280 287.486C22.920 286.886 23.760 286.046 24.520 285.206C27.880 281.526 29.880 276.766 29.880 272.246C29.880 268.766 28.920 265.326 27.280 262.926C26.680 262.046 25.640 260.926 25.200 260.926ZM20.040 289.086C20.440 288.766 20.520 288.806 20.600 289.246L21.440 294.366C21.560 295.126 21.560 295.086 20.840 295.326C17.320 296.526 15.040 299.686 15.040 303.086C15.040 306.686 16.920 309.246 19.640 310.166C19.960 310.286 20.440 310.406 20.720 310.406C21.040 310.406 21.200 310.206 21.200 309.966C21.200 309.686 20.880 309.566 20.600 309.446C18.920 308.726 17.720 307.006 17.720 305.166C17.720 302.886 19.280 301.166 21.720 300.486C22.360 300.326 22.440 300.366 22.520 300.806L24.520 312.726C24.600 313.166 24.560 313.166 23.960 313.286C23.320 313.406 22.520 313.486 21.720 313.486C14.720 313.486 10.200 309.606 10.200 304.046C10.200 301.686 10.600 298.526 13.920 294.766C16.320 292.086 18.160 290.606 20.040 289.086ZM24.640 300.166C27.880 300.446 30.560 303.166 30.560 306.686C30.560 309.206 29.040 311.246 26.800 312.366C26.320 312.606 26.240 312.606 26.160 312.126L24.200 300.726C24.120 300.246 24.160 300.126 24.640 300.166ZM25.800 267.126C27.120 267.126 28.200 268.206 28.200 270.406C28.200 273.166 26.880 275.726 23.760 278.846C23.120 279.486 22.160 280.406 21.240 281.206C20.960 281.446 20.800 281.406 20.720 280.886C20.560 279.846 20.480 278.486 20.480 277.206C20.480 270.966 23.360 267.126 25.800 267.126Z"></path></g><g></g><text font-family='Alegreya' font-style='italic' text-anchor='end' stroke='#7a7a7a' font-size="24" x="0" y="264.8461538461538">6</text></g><g><line stroke="black" stroke-width="1.6" x1="253.54461538461535" x2="253.54461538461535" y1="274.8461538461538" y2="314.8461538461538"></line></g><g><line stroke="black" stroke-width="1.6" x1="255.14461538461538" x2="255.14461538461538" y1="274.8461538461538" y2="314.8461538461538"></line></g><g><path d="M153.062 289.206L153.062 285.526C153.062 284.926 152.582 284.486 152.022 284.486L142.822 284.486C142.222 284.486 141.782 284.926 141.782 285.526L141.782 289.206C141.782 289.766 142.222 290.246 142.822 290.246L152.022 290.246C152.582 290.246 153.062 289.766 153.062 289.206Z"></path></g></g><g transform="translate(364.7907692307693)"><g></g><g><line stroke="black" stroke-width="1.6" x1="205.04461538461535" x2="205.04461538461535" y1="274.8461538461538" y2="314.8461538461538"></line></g><g><path d="M99.462 289.206L99.462 285.526C99.462 284.926 98.982 284.486 98.422 284.486L89.222 284.486C88.622 284.486 88.182 284.926 88.182 285.526L88.182 289.206C88.182 289.766 88.622 290.246 89.222 290.246L98.422 290.246C98.982 290.246 99.462 289.766 99.462 289.206Z"></path></g></g><g transform="translate(585.6353846153846)"><g></g><g><line stroke="black" stroke-width="1.6" x1="205.04461538461535" x2="205.04461538461535" y1="274.8461538461538" y2="314.8461538461538"></line></g><g><path d="M99.462 289.206L99.462 285.526C99.462 284.926 98.982 284.486 98.422 284.486L89.222 284.486C88.622 284.486 88.182 284.926 88.182 285.526L88.182 289.206C88.182 289.766 88.622 290.246 89.222 290.246L98.422 290.246C98.982 290.246 99.462 289.766 99.462 289.206Z"></path></g></g><g transform="translate(806.4799999999999)"><g></g><g><line stroke="black" stroke-width="1.6" x1="205.04461538461535" x2="205.04461538461535" y1="274.8461538461538" y2="314.8461538461538"></line></g><g><path d="M99.462 289.206L99.462 285.526C99.462 284.926 98.982 284.486 98.422 284.486L89.222 284.486C88.622 284.486 88.182 284.926 88.182 285.526L88.182 289.206C88.182 289.766 88.622 290.246 89.222 290.246L98.422 290.246C98.982 290.246 99.462 289.766 99.462 289.206Z"></path></g></g><g transform="translate(1027.3246153846153)"><g></g><g><line stroke="black" stroke-width="1.6" x1="205.04461538461535" x2="205.04461538461535" y1="274.8461538461538" y2="314.8461538461538"></line></g><g><line stroke="black" stroke-width="1.6" x1="206.64461538461535" x2="206.64461538461535" y1="274.8461538461538" y2="314.8461538461538"></line></g><g><path d="M100.262 289.206L100.262 285.526C100.262 284.926 99.782 284.486 99.222 284.486L90.022 284.486C89.422 284.486 88.982 284.926 88.982 285.526L88.982 289.206C88.982 289.766 89.422 290.246 90.022 290.246L99.222 290.246C99.782 290.246 100.262 289.766 100.262 289.206Z"></path></g></g><g transform="translate(93.84615384615385)"><g><g><line stroke="#6A6A6A" stroke-width="1.3" x1="0" x2="724.876009937059" y1="445.8461538461538" y2="445.8461538461538"></line><line stroke="#6A6A6A" stroke-width="1.3" x1="0" x2="724.876009937059" y1="435.8461538461538" y2="435.8461538461538"></line><line stroke="#6A6A6A" stroke-width="1.3" x1="0" x2="724.876009937059" y1="425.8461538461538" y2="425.8461538461538"></line><line stroke="#6A6A6A" stroke-width="1.3" x1="0" x2="724.876009937059" y1="415.8461538461538" y2="415.8461538461538"></line><line stroke="#6A6A6A" stroke-width="1.3" x1="0" x2="724.876009937059" y1="405.8461538461538" y2="405.8461538461538"></line></g><g><path d="M25.200 391.926C24.640 391.926 23.400 392.966 22.600 393.846C19.640 397.126 18.680 402.126 18.680 406.286C18.680 408.606 18.960 411.206 19.240 412.846C19.320 413.326 19.360 413.406 18.880 413.806C16.320 415.926 13.560 418.366 11.480 420.926C8.720 424.366 7 428.086 7 432.366C7 439.326 11.760 445.926 21.560 445.926C22.480 445.926 23.520 445.846 24.320 445.686C24.760 445.606 24.840 445.566 24.920 446.046C25.400 448.726 26 452.206 26 454.086C26 460.006 22 460.726 19.640 460.726C17.480 460.726 16.440 460.086 16.440 459.566C16.440 459.126 16.800 459.166 17.720 458.886C18.960 458.526 20.400 457.446 20.400 455.126C20.400 452.926 19 451.046 16.560 451.046C13.880 451.046 12.280 453.166 12.280 455.646C12.280 458.246 13.840 462.166 19.880 462.166C22.560 462.166 27.760 460.966 27.760 454.166C27.760 451.886 27.040 448.086 26.600 445.606C26.520 445.126 26.560 445.166 27.120 444.926C31.160 443.326 33.840 439.926 33.840 435.406C33.840 430.286 30.080 425.766 24.200 425.766C23.080 425.766 23.200 425.966 23.040 425.046L22.040 419.246C21.960 418.766 22.040 418.726 22.280 418.486C22.920 417.886 23.760 417.046 24.520 416.206C27.880 412.526 29.880 407.766 29.880 403.246C29.880 399.766 28.920 396.326 27.280 393.926C26.680 393.046 25.640 391.926 25.200 391.926ZM20.040 420.086C20.440 419.766 20.520 419.806 20.600 420.246L21.440 425.366C21.560 426.126 21.560 426.086 20.840 426.326C17.320 427.526 15.040 430.686 15.040 434.086C15.040 437.686 16.920 440.246 19.640 441.166C19.960 441.286 20.440 441.406 20.720 441.406C21.040 441.406 21.200 441.206 21.200 440.966C21.200 440.686 20.880 440.566 20.600 440.446C18.920 439.726 17.720 438.006 17.720 436.166C17.720 433.886 19.280 432.166 21.720 431.486C22.360 431.326 22.440 431.366 22.520 431.806L24.520 443.726C24.600 444.166 24.560 444.166 23.960 444.286C23.320 444.406 22.520 444.486 21.720 444.486C14.720 444.486 10.200 440.606 10.200 435.046C10.200 432.686 10.600 429.526 13.920 425.766C16.320 423.086 18.160 421.606 20.040 420.086ZM24.640 431.166C27.880 431.446 30.560 434.166 30.560 437.686C30.560 440.206 29.040 442.246 26.800 443.366C26.320 443.606 26.240 443.606 26.160 443.126L24.200 431.726C24.120 431.246 24.160 431.126 24.640 431.166ZM25.800 398.126C27.120 398.126 28.200 399.206 28.200 401.406C28.200 404.166 26.880 406.726 23.760 409.846C23.120 410.486 22.160 411.406 21.240 412.206C20.960 412.446 20.800 412.406 20.720 411.886C20.560 410.846 20.480 409.486 20.480 408.206C20.480 401.966 23.360 398.126 25.800 398.126Z"></path></g><g></g><text font-family='Alegreya' font-style='italic' text-anchor='end' stroke='#7a7a7a' font-size="24" x="0" y="395.8461538461538">11</text></g><g><line stroke="black" stroke-width="1.6" x1="368.5880049685295" x2="368.5880049685295" y1="405.8461538461538" y2="445.8461538461538"></line></g><g><line stroke="#000000" stroke-width="1.6" x1="370.1880049685295" x2="370.1880049685295" y1="405.8461538461538" y2="445.8461538461538"></line><line stroke="#000000" stroke-width="5" x1="377.48800496852954" x2="377.48800496852954" y1="405.8461538461538" y2="445.8461538461538"></line></g><g><path d="M210.584 420.206L210.584 416.526C210.584 415.926 210.104 415.486 209.544 415.486L200.344 415.486C199.744 415.486 199.304 415.926 199.304 416.526L199.304 420.206C199.304 420.766 199.744 421.246 200.344 421.246L209.544 421.246C210.104 421.246 210.584 420.766 210.584 420.206Z"></path></g></g><g transform="translate(488.8341588146834)"><g></g><g><line stroke="#000000" stroke-width="1.6" x1="320.0880049685295" x2="320.0880049685295" y1="405.8461538461538" y2="445.8461538461538"></line><line stroke="#000000" stroke-width="5" x1="327.3880049685295" x2="327.3880049685295" y1="405.8461538461538" y2="445.8461538461538"></line></g><g><path d="M152.484 420.206L152.484 416.526C152.484 415.926 152.004 415.486 151.444 415.486L142.244 415.486C141.644 415.486 141.204 415.926 141.204 416.526L141.204 420.206C141.204 420.766 141.644 421.246 142.244 421.246L151.444 421.246C152.004 421.246 152.484 420.766 152.484 420.206Z"></path></g></g></svg>