<?xml version="1.0" encoding="UTF-8" standalone="no"?><svg xmlns="http://www.w3.org/2000/svg" height="279.4mm" viewBox="0 0 1328.6153846153845 1719.3846153846152" width="215.9mm"><g transform="translate(93.84615384615385)"><g><g><line stroke="#6A6A6A" stroke-width="1.3" x1="0" x2="483.1743590051176" y1="183.8461538461538" y2="183.8461538461538"></line><line stroke="#6A6A6A" stroke-width="1.3" x1="0" x2="483.1743590051176" y1="173.8461538461538" y2="173.8461538461538"></line><line stroke="#6A6A6A" stroke-width="1.3" x1="0" x2="483.1743590051176" y1="163.8461538461538" y2="163.8461538461538"></line><line stroke="#6A6A6A" stroke-width="1.3" x1="0" x2="483.1743590051176" y1="153.8461538461538" y2="153.8461538461538"></line><line stroke="#6A6A6A" stroke-width="1.3" x1="0" x2="483.1743590051176" y1="143.8461538461538" y2="143.8461538461538"></line></g><g><path d="M25.200 129.926C24.640 129.926 23.400 130.966 22.600 131.846C19.640 135.126 18.680 140.126 18.680 144.286C18.680 146.606 18.960 149.206 19.240 150.846C19.320 151.326 19.360 151.406 18.880 151.806C16.320 153.926 13.560 156.366 11.480 158.926C8.720 162.366 7 166.086 7 170.366C7 177.326 11.760 183.926 21.560 183.926C22.480 183.926 23.520 183.846 24.320 183.686C24.760 183.606 24.840 183.566 24.920 184.046C25.400 186.726 26 190.206 26 192.086C26 198.006 22 198.726 19.640 198.726C17.480 198.726 16.440 198.086 16.440 197.566C16.440 197.126 16.800 197.166 17.720 196.886C18.960 196.526 20.400 195.446 20.400 193.126C20.400 190.926 19 189.046 16.560 189.046C13.880 189.046 12.280 191.166 12.280 193.646C12.280 196.246 13.840 200.166 19.880 200.166C22.560 200.166 27.760 198.966 27.760 192.166C27.760 189.886 27.040 186.086 26.600 183.606C26.520 183.126 26.560 183.166 27.120 182.926C31.160 181.326 33.840 177.926 33.840 173.406C33.840 168.286 30.080 163.766 24.200 163.766C23.080 163.766 23.200 163.966 23.040 163.046L22.040 157.246C21.960 156.766 22.040 156.726 22.280 156.486C22.920 155.886 23.760 155.046 24.520 154.206C27.880 150.526 29.880 145.766 29.880 141.246C29.880 137.766 28.920 134.326 27.280 131.926C26.680 131.046 25.640 129.926 25.200 129.926ZM20.040 158.086C20.440 157.766 20.520 157.806 20.600 158.246L21.440 163.366C21.560 164.126 21.560 164.086 20.840 164.326C17.320 165.526 15.040 168.686 15.040 172.086C15.040 175.686 16.920 178.246 19.640 179.166C19.960 179.286 20.440 179.406 20.720 179.406C21.040 179.406 21.200 179.206 21.200 178.966C21.200 178.686 20.880 178.566 20.600 178.446C18.920 177.726 17.720 176.006 17.720 174.166C17.720 171.886 19.280 170.166 21.720 169.486C22.360 169.326 22.440 169.366 22.520 169.806L24.520 181.726C24.600 182.166 24.560 182.166 23.960 182.286C23.320 182.406 22.520 182.486 21.720 182.486C14.720 182.486 10.200 178.606 10.200 173.046C10.200 170.686 10.600 167.526 13.920 163.766C16.320 161.086 18.160 159.606 20.040 158.086ZM24.640 169.166C27.880 169.446 30.560 172.166 30.560 175.686C30.560 178.206 29.040 180.246 26.800 181.366C26.320 181.606 26.240 181.606 26.160 181.126L24.200 169.726C24.120 169.246 24.160 169.126 24.640 169.166ZM25.800 136.126C27.120 136.126 28.200 137.206 28.200 139.406C28.200 142.166 26.880 144.726 23.760 147.846C23.120 148.486 22.160 149.406 21.240 150.206C20.960 150.446 20.800 150.406 20.720 149.886C20.560 148.846 20.480 147.486 20.480 146.206C20.480 139.966 23.360 136.126 25.800 136.126Z"></path></g><g></g><g><g><path d="M65.180 156.806L62.260 156.806L62.260 148.246C62.260 147.926 62.220 147.566 61.780 147.566C61.420 147.566 61.220 147.646 60.980 147.926L57.180 152.526C57.020 152.726 56.820 152.966 56.820 153.446C56.820 153.446 56.820 155.046 56.820 156.806L51.420 156.806C54.620 154.086 61.020 145.006 61.140 144.566C61.140 144.486 61.180 144.446 61.180 144.366C61.180 144.046 60.900 143.806 60.580 143.806C60.220 143.806 58.580 143.886 57.860 143.886C57.140 143.886 55.340 143.806 55.020 143.806C54.660 143.806 54.100 143.926 54.100 144.566C54.100 149.526 50.180 155.086 48.980 156.766L48.740 157.086C48.740 157.126 48.700 157.166 48.700 157.206C48.620 157.366 48.580 157.526 48.580 157.646C48.580 158.046 48.900 158.326 49.380 158.326L56.820 158.326L56.820 160.846C56.820 161.926 55.940 162.246 55.220 162.246C54.580 162.246 54.300 162.606 54.300 163.006C54.300 163.406 54.460 163.846 55.060 163.846C55.700 163.846 63.580 163.846 63.580 163.846C63.980 163.846 64.380 163.566 64.380 163.006C64.380 162.446 63.900 162.206 63.500 162.206C63.100 162.206 62.260 161.966 62.260 160.686L62.260 158.326C63.980 158.326 65.180 158.326 65.180 158.326C65.580 158.326 65.780 158.046 65.780 157.566C65.780 157.086 65.620 156.806 65.180 156.806Z"></path></g><g><path d="M65.180 176.806L62.260 176.806L62.260 168.246C62.260 167.926 62.220 167.566 61.780 167.566C61.420 167.566 61.220 167.646 60.980 167.926L57.180 172.526C57.020 172.726 56.820 172.966 56.820 173.446C56.820 173.446 56.820 175.046 56.820 176.806L51.420 176.806C54.620 174.086 61.020 165.006 61.140 164.566C61.140 164.486 61.180 164.446 61.180 164.366C61.180 164.046 60.900 163.806 60.580 163.806C60.220 163.806 58.580 163.886 57.860 163.886C57.140 163.886 55.340 163.806 55.020 163.806C54.660 163.806 54.100 163.926 54.100 164.566C54.100 169.526 50.180 175.086 48.980 176.766L48.740 177.086C48.740 177.126 48.700 177.166 48.700 177.206C48.620 177.366 48.580 177.526 48.580 177.646C48.580 178.046 48.900 178.326 49.380 178.326L56.820 178.326L56.820 180.846C56.820 181.926 55.940 182.246 55.220 182.246C54.580 182.246 54.300 182.606 54.300 183.006C54.300 183.406 54.460 183.846 55.060 183.846C55.700 183.846 63.580 183.846 63.580 183.846C63.980 183.846 64.380 183.566 64.380 183.006C64.380 182.446 63.900 182.206 63.500 182.206C63.100 182.206 62.260 181.966 62.260 180.686L62.260 178.326C63.980 178.326 65.180 178.326 65.180 178.326C65.580 178.326 65.780 178.046 65.780 177.566C65.780 177.086 65.620 176.806 65.180 176.806Z"></path></g></g><text font-family='Alegreya' font-style='italic' text-anchor='end' stroke='#7a7a7a' font-size="24" x="0" y="133.8461538461538">25</text><g><path d="M-13.200 264.426C-12.040 263.706-10.720 260.866-10.720 258.506C-10.720 258.306-10.720 258.066-10.760 257.866C-11.040 255.466-12.240 251.746-12.240 249.586C-12.240 247.506-11.320 245.506-11.120 245.146C-10.960 244.986-10.920 244.866-10.920 244.746C-10.920 244.666-10.960 244.586-11 244.586C-11.040 244.546-11.080 244.466-11.160 244.466C-11.240 244.466-11.320 244.546-11.480 244.746C-12.360 245.826-13.440 248.146-13.440 252.146C-13.440 256.106-12.040 257.706-12.040 260.226C-12.040 262.106-12.800 263.146-13.920 264.426C-13.200 265.226-12.040 265.866-12.040 268.466C-12.040 271.266-13.440 273.746-13.440 276.666C-13.440 280.666-12.360 282.986-11.480 284.106C-11.320 284.306-11.240 284.346-11.160 284.346C-11.080 284.346-11.040 284.306-11 284.266C-10.960 284.226-10.920 284.186-10.920 284.106C-10.920 283.986-10.960 283.866-11.120 283.666C-11.320 283.346-12.240 281.346-12.240 279.226C-12.240 277.106-11.040 273.346-10.760 270.986C-10.720 270.786-10.720 270.586-10.720 270.346C-10.720 267.986-12.040 265.146-13.200 264.426Z"></path><line stroke="#000000" stroke-width="1.6" x1="0" x2="0" y1="143.3461538461538" y2="284.3461538461538"></line></g></g><g><line stroke="black" stroke-width="1.6" x1="473.3743590051176" x2="473.3743590051176" y1="143.3461538461538" y2="284.3461538461538"></line><line stroke="black" stroke-width="5" x1="480.6743590051176" x2="480.6743590051176" y1="143.3461538461538" y2="284.3461538461538"></line></g><g><g><line stroke="#6A6A6A" stroke-width="1.3" x1="0" x2="483.1743590051176" y1="283.8461538461538" y2="283.8461538461538"></line><line stroke="#6A6A6A" stroke-width="1.3" x1="0" x2="483.1743590051176" y1="273.8461538461538" y2="273.8461538461538"></line><line stroke="#6A6A6A" stroke-width="1.3" x1="0" x2="483.1743590051176" y1="263.8461538461538" y2="263.8461538461538"></line><line stroke="#6A6A6A" stroke-width="1.3" x1="0" x2="483.1743590051176" y1="253.8461538461538" y2="253.8461538461538"></line><line stroke="#6A6A6A" stroke-width="1.3" x1="0" x2="483.1743590051176" y1="243.8461538461538" y2="243.8461538461538"></line></g><g><path d="M25.200 229.926C24.640 229.926 23.400 230.966 22.600 231.846C19.640 235.126 18.680 240.126 18.680 244.286C18.680 246.606 18.960 249.206 19.240 250.846C19.320 251.326 19.360 251.406 18.880 251.806C16.320 253.926 13.560 256.366 11.480 258.926C8.720 262.366 7 266.086 7 270.366C7 277.326 11.760 283.926 21.560 283.926C22.480 283.926 23.520 283.846 24.320 283.686C24.760 283.606 24.840 283.566 24.920 284.046C25.400 286.726 26 290.206 26 292.086C26 298.006 22 298.726 19.640 298.726C17.480 298.726 16.440 298.086 16.440 297.566C16.440 297.126 16.800 297.166 17.720 296.886C18.960 296.526 20.400 295.446 20.400 293.126C20.400 290.926 19 289.046 16.560 289.046C13.880 289.046 12.280 291.166 12.280 293.646C12.280 296.246 13.840 300.166 19.880 300.166C22.560 300.166 27.760 298.966 27.760 292.166C27.760 289.886 27.040 286.086 26.600 283.606C26.520 283.126 26.560 283.166 27.120 282.926C31.160 281.326 33.840 277.926 33.840 273.406C33.840 268.286 30.080 263.766 24.200 263.766C23.080 263.766 23.200 263.966 23.040 263.046L22.040 257.246C21.960 256.766 22.040 256.726 22.280 256.486C22.920 255.886 23.760 255.046 24.520 254.206C27.880 250.526 29.880 245.766 29.880 241.246C29.880 237.766 28.920 234.326 27.280 231.926C26.680 231.046 25.640 229.926 25.200 229.926ZM20.040 258.086C20.440 257.766 20.520 257.806 20.600 258.246L21.440 263.366C21.560 264.126 21.560 264.086 20.840 264.326C17.320 265.526 15.040 268.686 15.040 272.086C15.040 275.686 16.920 278.246 19.640 279.166C19.960 279.286 20.440 279.406 20.720 279.406C21.040 279.406 21.200 279.206 21.200 278.966C21.200 278.686 20.880 278.566 20.600 278.446C18.920 277.726 17.720 276.006 17.720 274.166C17.720 271.886 19.280 270.166 21.720 269.486C22.360 269.326 22.440 269.366 22.520 269.806L24.520 281.726C24.600 282.166 24.560 282.166 23.960 282.286C23.320 282.406 22.520 282.486 21.720 282.486C14.720 282.486 10.200 278.606 10.200 273.046C10.200 270.686 10.600 267.526 13.920 263.766C16.320 261.086 18.160 259.606 20.040 258.086ZM24.640 269.166C27.880 269.446 30.560 272.166 30.560 275.686C30.560 278.206 29.040 280.246 26.800 281.366C26.320 281.606 26.240 281.606 26.160 281.126L24.200 269.726C24.120 269.246 24.160 269.126 24.640 269.166ZM25.800 236.126C27.120 236.126 28.200 237.206 28.200 239.406C28.200 242.166 26.880 244.726 23.760 247.846C23.120 248.486 22.160 249.406 21.240 250.206C20.960 250.446 20.800 250.406 20.720 249.886C20.560 248.846 20.480 247.486 20.480 246.206C20.480 239.966 23.360 236.126 25.800 236.126Z"></path></g><g></g><g><g><path d="M65.180 256.806L62.260 256.806L62.260 248.246C62.260 247.926 62.220 247.566 61.780 247.566C61.420 247.566 61.220 247.646 60.980 247.926L57.180 252.526C57.020 252.726 56.820 252.966 56.820 253.446C56.820 253.446 56.820 255.046 56.820 256.806L51.420 256.806C54.620 254.086 61.020 245.006 61.140 244.566C61.140 244.486 61.180 244.446 61.180 244.366C61.180 244.046 60.900 243.806 60.580 243.806C60.220 243.806 58.580 243.886 57.860 243.886C57.140 243.886 55.340 243.806 55.020 243.806C54.660 243.806 54.100 243.926 54.100 244.566C54.100 249.526 50.180 255.086 48.980 256.766L48.740 257.086C48.740 257.126 48.700 257.166 48.700 257.206C48.620 257.366 48.580 257.526 48.580 257.646C48.580 258.046 48.900 258.326 49.380 258.326L56.820 258.326L56.820 260.846C56.820 261.926 55.940 262.246 55.220 262.246C54.580 262.246 54.300 262.606 54.300 263.006C54.300 263.406 54.460 263.846 55.060 263.846C55.700 263.846 63.580 263.846 63.580 263.846C63.980 263.846 64.380 263.566 64.380 263.006C64.380 262.446 63.900 262.206 63.500 262.206C63.100 262.206 62.260 261.966 62.260 260.686L62.260 258.326C63.980 258.326 65.180 258.326 65.180 258.326C65.580 258.326 65.780 258.046 65.780 257.566C65.780 257.086 65.620 256.806 65.180 256.806Z"></path></g><g><path d="M65.180 276.806L62.260 276.806L62.260 268.246C62.260 267.926 62.220 267.566 61.780 267.566C61.420 267.566 61.220 267.646 60.980 267.926L57.180 272.526C57.020 272.726 56.820 272.966 56.820 273.446C56.820 273.446 56.820 275.046 56.820 276.806L51.420 276.806C54.620 274.086 61.020 265.006 61.140 264.566C61.140 264.486 61.180 264.446 61.180 264.366C61.180 264.046 60.900 263.806 60.580 263.806C60.220 263.806 58.580 263.886 57.860 263.886C57.140 263.886 55.340 263.806 55.020 263.806C54.660 263.806 54.100 263.926 54.100 264.566C54.100 269.526 50.180 275.086 48.980 276.766L48.740 277.086C48.740 277.126 48.700 277.166 48.700 277.206C48.620 277.366 48.580 277.526 48.580 277.646C48.580 278.046 48.900 278.326 49.380 278.326L56.820 278.326L56.820 280.846C56.820 281.926 55.940 282.246 55.220 282.246C54.580 282.246 54.300 282.606 54.300 283.006C54.300 283.406 54.460 283.846 55.060 283.846C55.700 283.846 63.580 283.846 63.580 283.846C63.980 283.846 64.380 283.566 64.380 283.006C64.380 282.446 63.900 282.206 63.500 282.206C63.100 282.206 62.260 281.966 62.260 280.686L62.260 278.326C63.980 278.326 65.180 278.326 65.180 278.326C65.580 278.326 65.780 278.046 65.780 277.566C65.780 277.086 65.620 276.806 65.180 276.806Z"></path></g></g><text font-family='Alegreya' font-style='italic' text-anchor='end' stroke='#7a7a7a' font-size="24" x="0" y="233.8461538461538">25</text></g><g><line stroke="black" stroke-width="1.6" x1="473.3743590051176" x2="473.3743590051176" y1="143.3461538461538" y2="284.3461538461538"></line><line stroke="black" stroke-width="5" x1="480.6743590051176" x2="480.6743590051176" y1="143.3461538461538" y2="284.3461538461538"></line></g><g><g><path d="M93.480 154.646C101.120 154.646 102.640 148.446 102.640 146.926C102.640 144.566 100.760 143.046 98.080 143.046C91.160 143.046 89 148.406 89 150.806C89 153.246 90.960 154.646 93.480 154.646ZM97 150.966C94.920 152.366 93.480 152.846 92.480 152.846C91.520 152.846 90.960 152.366 90.640 151.806C90.480 151.526 90.360 151.206 90.360 150.886C90.360 149.886 91.360 148.606 94.560 146.766C96.840 145.446 98.280 144.966 99.240 144.966C100.120 144.966 100.600 145.366 100.920 145.926C101.080 146.206 101.200 146.486 101.200 146.806C101.200 147.726 100.240 148.846 97 150.966Z"></path></g><line stroke="#000000" stroke-width="1.2" x1="89.6" x2="89.6" y1="150.80615384615382" y2="188.80615384615382"></line></g><g><g><path d="M277.047 244.486C281.047 244.486 285.967 240.766 285.967 236.966C285.967 234.686 284.167 233.206 281.567 233.206C276.647 233.206 272.687 236.846 272.687 240.726C272.687 243.086 274.607 244.486 277.047 244.486Z"></path></g><line stroke="#000000" stroke-width="1.2" x1="273.28717950255884" x2="273.28717950255884" y1="240.68615384615381" y2="266.93615384615384"></line><path d="M282.287 241.016C282.887 244.376 282.887 248.016 281.367 251.136C278.607 256.736 275.367 256.856 272.887 256.936L272.687 256.936L272.687 272.776C272.687 272.776 273.127 272.816 273.367 272.816C273.607 272.816 274.087 272.736 274.167 272.296C275.127 266.136 283.007 264.416 283.967 258.136C284.047 257.696 284.087 257.216 284.087 256.696C284.087 254.256 283.207 251.856 283.087 251.616C283.047 251.536 283.047 251.456 283.047 251.336C283.047 251.176 283.087 251.096 283.087 250.976C284.527 247.976 284.567 244.056 283.927 240.856C283.727 239.936 283.447 239.976 282.967 239.976C282.487 240.016 282.167 240.336 282.287 241.016ZM281.727 254.216C281.927 254.216 282.207 254.336 282.247 254.496C282.447 254.776 282.447 255.176 282.527 255.496C282.567 255.776 282.567 256.056 282.567 256.296C282.567 257.616 282.207 258.816 281.487 259.856C280.167 261.816 277.607 264.056 275.167 264.056L274.847 264.056C274.527 264.056 274.287 263.856 274.287 263.656C274.287 263.616 274.287 263.576 274.327 263.536C275.167 260.256 277.407 259.336 279.287 257.136C280.127 256.216 280.807 255.416 281.447 254.376C281.527 254.256 281.607 254.216 281.727 254.216Z"></path></g><g><g><path d="M277.047 239.486C281.047 239.486 285.967 235.766 285.967 231.966C285.967 229.686 284.167 228.206 281.567 228.206C276.647 228.206 272.687 231.846 272.687 235.726C272.687 238.086 274.607 239.486 277.047 239.486Z"></path></g><line stroke="#000000" stroke-width="1.2" x1="273.28717950255884" x2="273.28717950255884" y1="235.68615384615381" y2="261.93615384615384"></line><line stroke="#000000" stroke-width="2.2" x1="269.48717950255883" x2="291.40717950255885" y1="233.8461538461538" y2="233.8461538461538"></line><path d="M282.287 236.016C282.887 239.376 282.887 243.016 281.367 246.136C278.607 251.736 275.367 251.856 272.887 251.936L272.687 251.936L272.687 267.776C272.687 267.776 273.127 267.816 273.367 267.816C273.607 267.816 274.087 267.736 274.167 267.296C275.127 261.136 283.007 259.416 283.967 253.136C284.047 252.696 284.087 252.216 284.087 251.696C284.087 249.256 283.207 246.856 283.087 246.616C283.047 246.536 283.047 246.456 283.047 246.336C283.047 246.176 283.087 246.096 283.087 245.976C284.527 242.976 284.567 239.056 283.927 235.856C283.727 234.936 283.447 234.976 282.967 234.976C282.487 235.016 282.167 235.336 282.287 236.016ZM281.727 249.216C281.927 249.216 282.207 249.336 282.247 249.496C282.447 249.776 282.447 250.176 282.527 250.496C282.567 250.776 282.567 251.056 282.567 251.296C282.567 252.616 282.207 253.816 281.487 254.856C280.167 256.816 277.607 259.056 275.167 259.056L274.847 259.056C274.527 259.056 274.287 258.856 274.287 258.656C274.287 258.616 274.287 258.576 274.327 258.536C275.167 255.256 277.407 254.336 279.287 252.136C280.127 251.216 280.807 250.416 281.447 249.376C281.527 249.256 281.607 249.216 281.727 249.216Z"></path></g><g><g><path d="M279.967 154.646C287.607 154.646 289.127 148.446 289.127 146.926C289.127 144.566 287.247 143.046 284.567 143.046C277.647 143.046 275.487 148.406 275.487 150.806C275.487 153.246 277.447 154.646 279.967 154.646ZM283.487 150.966C281.407 152.366 279.967 152.846 278.967 152.846C278.007 152.846 277.447 152.366 277.127 151.806C276.967 151.526 276.847 151.206 276.847 150.886C276.847 149.886 277.847 148.606 281.047 146.766C283.327 145.446 284.767 144.966 285.727 144.966C286.607 144.966 287.087 145.366 287.407 145.926C287.567 146.206 287.687 146.486 287.687 146.806C287.687 147.726 286.727 148.846 283.487 150.966Z"></path></g><line stroke="#000000" stroke-width="1.2" x1="276.0871795025588" x2="276.0871795025588" y1="150.80615384615382" y2="188.80615384615382"></line></g></g></svg>