<?xml version="1.0" encoding="UTF-8" standalone="no"?><svg xmlns="http://www.w3.org/2000/svg" height="279.4mm" viewBox="0 0 1328.6153846153845 1719.3846153846152" width="215.9mm"><g transform="translate(93.84615384615385)"><g><g><line stroke="#6A6A6A" stroke-width="1.3" x1="0" x2="392.65481890593674" y1="183.8461538461538" y2="183.8461538461538"></line><line stroke="#6A6A6A" stroke-width="1.3" x1="0" x2="392.65481890593674" y1="173.8461538461538" y2="173.8461538461538"></line><line stroke="#6A6A6A" stroke-width="1.3" x1="0" x2="392.65481890593674" y1="163.8461538461538" y2="163.8461538461538"></line><line stroke="#6A6A6A" stroke-width="1.3" x1="0" x2="392.65481890593674" y1="153.8461538461538" y2="153.8461538461538"></line><line stroke="#6A6A6A" stroke-width="1.3" x1="0" x2="392.65481890593674" y1="143.8461538461538" y2="143.8461538461538"></line></g><g><path d="M25.200 129.926C24.640 129.926 23.400 130.966 22.600 131.846C19.640 135.126 18.680 140.126 18.680 144.286C18.680 146.606 18.960 149.206 19.240 150.846C19.320 151.326 19.360 151.406 18.880 151.806C16.320 153.926 13.560 156.366 11.480 158.926C8.720 162.366 7 166.086 7 170.366C7 177.326 11.760 183.926 21.560 183.926C22.480 183.926 23.520 183.846 24.320 183.686C24.760 183.606 24.840 183.566 24.920 184.046C25.400 186.726 26 190.206 26 192.086C26 198.006 22 198.726 19.640 198.726C17.480 198.726 16.440 198.086 16.440 197.566C16.440 197.126 16.800 197.166 17.720 196.886C18.960 196.526 20.400 195.446 20.400 193.126C20.400 190.926 19 189.046 16.560 189.046C13.880 189.046 12.280 191.166 12.280 193.646C12.280 196.246 13.840 200.166 19.880 200.166C22.560 200.166 27.760 198.966 27.760 192.166C27.760 189.886 27.040 186.086 26.600 183.606C26.520 183.126 26.560 183.166 27.120 182.926C31.160 181.326 33.840 177.926 33.840 173.406C33.840 168.286 30.080 163.766 24.200 163.766C23.080 163.766 23.200 163.966 23.040 163.046L22.040 157.246C21.960 156.766 22.040 156.726 22.280 156.486C22.920 155.886 23.760 155.046 24.520 154.206C27.880 150.526 29.880 145.766 29.880 141.246C29.880 137.766 28.920 134.326 27.280 131.926C26.680 131.046 25.640 129.926 25.200 129.926ZM20.040 158.086C20.440 157.766 20.520 157.806 20.600 158.246L21.440 163.366C21.560 164.126 21.560 164.086 20.840 164.326C17.320 165.526 15.040 168.686 15.040 172.086C15.040 175.686 16.920 178.246 19.640 179.166C19.960 179.286 20.440 179.406 20.720 179.406C21.040 179.406 21.200 179.206 21.200 178.966C21.200 178.686 20.880 178.566 20.600 178.446C18.920 177.726 17.720 176.006 17.720 174.166C17.720 171.886 19.280 170.166 21.720 169.486C22.360 169.326 22.440 169.366 22.520 169.806L24.520 181.726C24.600 182.166 24.560 182.166 23.960 182.286C23.320 182.406 22.520 182.486 21.720 182.486C14.720 182.486 10.200 178.606 10.200 173.046C10.200 170.686 10.600 167.526 13.920 163.766C16.320 161.086 18.160 159.606 20.040 158.086ZM24.640 169.166C27.880 169.446 30.560 172.166 30.560 175.686C30.560 178.206 29.040 180.246 26.800 181.366C26.320 181.606 26.240 181.606 26.160 181.126L24.200 169.726C24.120 169.246 24.160 169.126 24.640 169.166ZM25.800 136.126C27.120 136.126 28.200 137.206 28.200 139.406C28.200 142.166 26.880 144.726 23.760 147.846C23.120 148.486 22.160 149.406 21.240 150.206C20.960 150.446 20.800 150.406 20.720 149.886C20.560 148.846 20.480 147.486 20.480 146.206C20.480 139.966 23.360 136.126 25.800 136.126Z"></path></g><g></g><g><g><path d="M65.180 156.806L62.260 156.806L62.260 148.246C62.260 147.926 62.220 147.566 61.780 147.566C61.420 147.566 61.220 147.646 60.980 147.926L57.180 152.526C57.020 152.726 56.820 152.966 56.820 153.446C56.820 153.446 56.820 155.046 56.820 156.806L51.420 156.806C54.620 154.086 61.020 145.006 61.140 144.566C61.140 144.486 61.180 144.446 61.180 144.366C61.180 144.046 60.900 143.806 60.580 143.806C60.220 143.806 58.580 143.886 57.860 143.886C57.140 143.886 55.340 143.806 55.020 143.806C54.660 143.806 54.100 143.926 54.100 144.566C54.100 149.526 50.180 155.086 48.980 156.766L48.740 157.086C48.740 157.126 48.700 157.166 48.700 157.206C48.620 157.366 48.580 157.526 48.580 157.646C48.580 158.046 48.900 158.326 49.380 158.326L56.820 158.326L56.820 160.846C56.820 161.926 55.940 162.246 55.220 162.246C54.580 162.246 54.300 162.606 54.300 163.006C54.300 163.406 54.460 163.846 55.060 163.846C55.700 163.846 63.580 163.846 63.580 163.846C63.980 163.846 64.380 163.566 64.380 163.006C64.380 162.446 63.900 162.206 63.500 162.206C63.100 162.206 62.260 161.966 62.260 160.686L62.260 158.326C63.980 158.326 65.180 158.326 65.180 158.326C65.580 158.326 65.780 158.046 65.780 157.566C65.780 157.086 65.620 156.806 65.180 156.806Z"></path></g><g><path d="M65.180 176.806L62.260 176.806L62.260 168.246C62.260 167.926 62.220 167.566 61.780 167.566C61.420 167.566 61.220 167.646 60.980 167.926L57.180 172.526C57.020 172.726 56.820 172.966 56.820 173.446C56.820 173.446 56.820 175.046 56.820 176.806L51.420 176.806C54.620 174.086 61.020 165.006 61.140 164.566C61.140 164.486 61.180 164.446 61.180 164.366C61.180 164.046 60.900 163.806 60.580 163.806C60.220 163.806 58.580 163.886 57.860 163.886C57.140 163.886 55.340 163.806 55.020 163.806C54.660 163.806 54.100 163.926 54.100 164.566C54.100 169.526 50.180 175.086 48.980 176.766L48.740 177.086C48.740 177.126 48.700 177.166 48.700 177.206C48.620 177.366 48.580 177.526 48.580 177.646C48.580 178.046 48.900 178.326 49.380 178.326L56.820 178.326L56.820 180.846C56.820 181.926 55.940 182.246 55.220 182.246C54.580 182.246 54.300 182.606 54.300 183.006C54.300 183.406 54.460 183.846 55.060 183.846C55.700 183.846 63.580 183.846 63.580 183.846C63.980 183.846 64.380 183.566 64.380 183.006C64.380 182.446 63.900 182.206 63.500 182.206C63.100 182.206 62.260 181.966 62.260 180.686L62.260 178.326C63.980 178.326 65.180 178.326 65.180 178.326C65.580 178.326 65.780 178.046 65.780 177.566C65.780 177.086 65.620 176.806 65.180 176.806Z"></path></g></g></g><g><line stroke="black" stroke-width="1.6" x1="393.45481890593675" x2="393.45481890593675" y1="143.8461538461538" y2="183.8461538461538"></line></g><g><g><path d="M93.360 184.486C97.360 184.486 102.280 180.766 102.280 176.966C102.280 174.686 100.480 173.206 97.880 173.206C92.960 173.206 89 176.846 89 180.726C89 183.086 90.920 184.486 93.360 184.486Z"></path><g><circle cx="108.28" cy="178.8461538461538" r="2.4"></circle></g></g><g><path d="M93.360 174.486C97.360 174.486 102.280 170.766 102.280 166.966C102.280 164.686 100.480 163.206 97.880 163.206C92.960 163.206 89 166.846 89 170.726C89 173.086 90.920 174.486 93.360 174.486Z"></path><g><circle cx="108.28" cy="168.8461538461538" r="2.4"></circle></g></g><g><path d="M93.360 164.486C97.360 164.486 102.280 160.766 102.280 156.966C102.280 154.686 100.480 153.206 97.880 153.206C92.960 153.206 89 156.846 89 160.726C89 163.086 90.920 164.486 93.360 164.486Z"></path><g><circle cx="108.28" cy="158.8461538461538" r="2.4"></circle></g></g><line stroke="#000000" stroke-width="1.2" x1="101.68" x2="101.68" y1="177.0061538461538" y2="127.00615384615381"></line></g><g><g><path d="M194.861 174.486C198.861 174.486 203.781 170.766 203.781 166.966C203.781 164.686 201.981 163.206 199.381 163.206C194.461 163.206 190.501 166.846 190.501 170.726C190.501 173.086 192.421 174.486 194.861 174.486Z"></path></g><g><path d="M194.861 144.486C198.861 144.486 203.781 140.766 203.781 136.966C203.781 134.686 201.981 133.206 199.381 133.206C194.461 133.206 190.501 136.846 190.501 140.726C190.501 143.086 192.421 144.486 194.861 144.486Z"></path></g><line stroke="#000000" stroke-width="1.2" x1="191.1010419068792" x2="191.1010419068792" y1="140.68615384615381" y2="200.68615384615381"></line><path d="M200.101 175.806C200.661 177.486 200.941 179.486 200.941 181.286C200.941 183.646 199.941 187.006 199.341 188.366C197.861 191.726 195.861 194.966 190.501 196.766L190.501 206.166C190.501 206.646 190.701 206.766 190.941 206.766C191.701 206.766 192.021 206.526 192.101 205.886C192.781 202.086 195.741 198.606 197.781 195.446C200.301 191.486 202.741 186.726 202.741 181.726C202.741 178.606 201.941 175.766 201.621 174.486C201.301 173.206 199.501 174.086 200.101 175.806Z"></path></g><g><g><path d="M241.834 174.486C245.834 174.486 250.754 170.766 250.754 166.966C250.754 164.686 248.954 163.206 246.354 163.206C241.434 163.206 237.474 166.846 237.474 170.726C237.474 173.086 239.394 174.486 241.834 174.486Z"></path></g><g><path d="M241.834 184.486C245.834 184.486 250.754 180.766 250.754 176.966C250.754 174.686 248.954 173.206 246.354 173.206C241.434 173.206 237.474 176.846 237.474 180.726C237.474 183.086 239.394 184.486 241.834 184.486Z"></path></g><g><path d="M241.834 164.486C245.834 164.486 250.754 160.766 250.754 156.966C250.754 154.686 248.954 153.206 246.354 153.206C241.434 153.206 237.474 156.846 237.474 160.726C237.474 163.086 239.394 164.486 241.834 164.486Z"></path></g><line stroke="#000000" stroke-width="1.2" x1="250.15358507144447" x2="250.15358507144447" y1="177.0061538461538" y2="127.00615384615381"></line></g><g><g><path d="M319.424 174.486C323.424 174.486 328.344 170.766 328.344 166.966C328.344 164.686 326.544 163.206 323.944 163.206C319.024 163.206 315.064 166.846 315.064 170.726C315.064 173.086 316.984 174.486 319.424 174.486Z"></path></g><g><path d="M319.424 184.486C323.424 184.486 328.344 180.766 328.344 176.966C328.344 174.686 326.544 173.206 323.944 173.206C319.024 173.206 315.064 176.846 315.064 180.726C315.064 183.086 316.984 184.486 319.424 184.486Z"></path></g><g><path d="M319.424 164.486C323.424 164.486 328.344 160.766 328.344 156.966C328.344 154.686 326.544 153.206 323.944 153.206C319.024 153.206 315.064 156.846 315.064 160.726C315.064 163.086 316.984 164.486 319.424 164.486Z"></path></g><line stroke="#000000" stroke-width="1.2" x1="327.74420198869063" x2="327.74420198869063" y1="177.0061538461538" y2="127.00615384615381"></line></g></g><g transform="translate(503.10097275209057)"><g><g><line stroke="#6A6A6A" stroke-width="1.3" x1="-16.600000000000023" x2="273.9899245044194" y1="183.8461538461538" y2="183.8461538461538"></line><line stroke="#6A6A6A" stroke-width="1.3" x1="-16.600000000000023" x2="273.9899245044194" y1="173.8461538461538" y2="173.8461538461538"></line><line stroke="#6A6A6A" stroke-width="1.3" x1="-16.600000000000023" x2="273.9899245044194" y1="163.8461538461538" y2="163.8461538461538"></line><line stroke="#6A6A6A" stroke-width="1.3" x1="-16.600000000000023" x2="273.9899245044194" y1="153.8461538461538" y2="153.8461538461538"></line><line stroke="#6A6A6A" stroke-width="1.3" x1="-16.600000000000023" x2="273.9899245044194" y1="143.8461538461538" y2="143.8461538461538"></line></g></g><g><line stroke="black" stroke-width="1.6" x1="264.18992450441937" x2="264.18992450441937" y1="143.8461538461538" y2="183.8461538461538"></line><line stroke="black" stroke-width="5" x1="271.4899245044194" x2="271.4899245044194" y1="143.8461538461538" y2="183.8461538461538"></line></g><g><g><path d="M4.360 174.486C8.360 174.486 13.280 170.766 13.280 166.966C13.280 164.686 11.480 163.206 8.880 163.206C3.960 163.206 0 166.846 0 170.726C0 173.086 1.920 174.486 4.360 174.486Z"></path></g><g><path d="M4.360 184.486C8.360 184.486 13.280 180.766 13.280 176.966C13.280 174.686 11.480 173.206 8.880 173.206C3.960 173.206 0 176.846 0 180.726C0 183.086 1.920 184.486 4.360 184.486Z"></path></g><g><path d="M4.360 154.486C8.360 154.486 13.280 150.766 13.280 146.966C13.280 144.686 11.480 143.206 8.880 143.206C3.960 143.206 0 146.846 0 150.726C0 153.086 1.920 154.486 4.360 154.486Z"></path></g><line stroke="#000000" stroke-width="1.2" x1="12.680000000000001" x2="12.680000000000001" y1="177.0061538461538" y2="117.00615384615381"></line></g><g><g><path d="M81.951 174.486C85.951 174.486 90.871 170.766 90.871 166.966C90.871 164.686 89.071 163.206 86.471 163.206C81.551 163.206 77.591 166.846 77.591 170.726C77.591 173.086 79.511 174.486 81.951 174.486Z"></path></g><g><path d="M81.951 184.486C85.951 184.486 90.871 180.766 90.871 176.966C90.871 174.686 89.071 173.206 86.471 173.206C81.551 173.206 77.591 176.846 77.591 180.726C77.591 183.086 79.511 184.486 81.951 184.486Z"></path></g><g><path d="M81.951 149.486C85.951 149.486 90.871 145.766 90.871 141.966C90.871 139.686 89.071 138.206 86.471 138.206C81.551 138.206 77.591 141.846 77.591 145.726C77.591 148.086 79.511 149.486 81.951 149.486Z"></path></g><line stroke="#000000" stroke-width="1.2" x1="90.27061691724617" x2="90.27061691724617" y1="177.0061538461538" y2="112.00615384615381"></line></g><g><g><path d="M159.661 174.646C167.301 174.646 168.821 168.446 168.821 166.926C168.821 164.566 166.941 163.046 164.261 163.046C157.341 163.046 155.181 168.406 155.181 170.806C155.181 173.246 157.141 174.646 159.661 174.646ZM163.181 170.966C161.101 172.366 159.661 172.846 158.661 172.846C157.701 172.846 157.141 172.366 156.821 171.806C156.661 171.526 156.541 171.206 156.541 170.886C156.541 169.886 157.541 168.606 160.741 166.766C163.021 165.446 164.461 164.966 165.421 164.966C166.301 164.966 166.781 165.366 167.101 165.926C167.261 166.206 167.381 166.486 167.381 166.806C167.381 167.726 166.421 168.846 163.181 170.966Z"></path></g><g><path d="M159.661 184.646C167.301 184.646 168.821 178.446 168.821 176.926C168.821 174.566 166.941 173.046 164.261 173.046C157.341 173.046 155.181 178.406 155.181 180.806C155.181 183.246 157.141 184.646 159.661 184.646ZM163.181 180.966C161.101 182.366 159.661 182.846 158.661 182.846C157.701 182.846 157.141 182.366 156.821 181.806C156.661 181.526 156.541 181.206 156.541 180.886C156.541 179.886 157.541 178.606 160.741 176.766C163.021 175.446 164.461 174.966 165.421 174.966C166.301 174.966 166.781 175.366 167.101 175.926C167.261 176.206 167.381 176.486 167.381 176.806C167.381 177.726 166.421 178.846 163.181 180.966Z"></path></g><g><path d="M159.661 159.646C167.301 159.646 168.821 153.446 168.821 151.926C168.821 149.566 166.941 148.046 164.261 148.046C157.341 148.046 155.181 153.406 155.181 155.806C155.181 158.246 157.141 159.646 159.661 159.646ZM163.181 155.966C161.101 157.366 159.661 157.846 158.661 157.846C157.701 157.846 157.141 157.366 156.821 156.806C156.661 156.526 156.541 156.206 156.541 155.886C156.541 154.886 157.541 153.606 160.741 151.766C163.021 150.446 164.461 149.966 165.421 149.966C166.301 149.966 166.781 150.366 167.101 150.926C167.261 151.206 167.381 151.486 167.381 151.806C167.381 152.726 166.421 153.846 163.181 155.966Z"></path></g><line stroke="#000000" stroke-width="1.2" x1="168.22123383449232" x2="168.22123383449232" y1="176.92615384615382" y2="121.92615384615382"></line></g></g></svg>