<?xml version="1.0" encoding="UTF-8" standalone="no"?><svg xmlns="http://www.w3.org/2000/svg" height="279.4mm" viewBox="0 0 1328.6153846153845 1719.3846153846152" width="215.9mm"><g transform="translate(93.84615384615385)"><g><g><line stroke="#6A6A6A" stroke-width="1.3" x1="0" x2="865.6686416338418" y1="183.8461538461538" y2="183.8461538461538"></line><line stroke="#6A6A6A" stroke-width="1.3" x1="0" x2="865.6686416338418" y1="173.8461538461538" y2="173.8461538461538"></line><line stroke="#6A6A6A" stroke-width="1.3" x1="0" x2="865.6686416338418" y1="163.8461538461538" y2="163.8461538461538"></line><line stroke="#6A6A6A" stroke-width="1.3" x1="0" x2="865.6686416338418" y1="153.8461538461538" y2="153.8461538461538"></line><line stroke="#6A6A6A" stroke-width="1.3" x1="0" x2="865.6686416338418" y1="143.8461538461538" y2="143.8461538461538"></line></g><g><path d="M25.200 129.926C24.640 129.926 23.400 130.966 22.600 131.846C19.640 135.126 18.680 140.126 18.680 144.286C18.680 146.606 18.960 149.206 19.240 150.846C19.320 151.326 19.360 151.406 18.880 151.806C16.320 153.926 13.560 156.366 11.480 158.926C8.720 162.366 7 166.086 7 170.366C7 177.326 11.760 183.926 21.560 183.926C22.480 183.926 23.520 183.846 24.320 183.686C24.760 183.606 24.840 183.566 24.920 184.046C25.400 186.726 26 190.206 26 192.086C26 198.006 22 198.726 19.640 198.726C17.480 198.726 16.440 198.086 16.440 197.566C16.440 197.126 16.800 197.166 17.720 196.886C18.960 196.526 20.400 195.446 20.400 193.126C20.400 190.926 19 189.046 16.560 189.046C13.880 189.046 12.280 191.166 12.280 193.646C12.280 196.246 13.840 200.166 19.880 200.166C22.560 200.166 27.760 198.966 27.760 192.166C27.760 189.886 27.040 186.086 26.600 183.606C26.520 183.126 26.560 183.166 27.120 182.926C31.160 181.326 33.840 177.926 33.840 173.406C33.840 168.286 30.080 163.766 24.200 163.766C23.080 163.766 23.200 163.966 23.040 163.046L22.040 157.246C21.960 156.766 22.040 156.726 22.280 156.486C22.920 155.886 23.760 155.046 24.520 154.206C27.880 150.526 29.880 145.766 29.880 141.246C29.880 137.766 28.920 134.326 27.280 131.926C26.680 131.046 25.640 129.926 25.200 129.926ZM20.040 158.086C20.440 157.766 20.520 157.806 20.600 158.246L21.440 163.366C21.560 164.126 21.560 164.086 20.840 164.326C17.320 165.526 15.040 168.686 15.040 172.086C15.040 175.686 16.920 178.246 19.640 179.166C19.960 179.286 20.440 179.406 20.720 179.406C21.040 179.406 21.200 179.206 21.200 178.966C21.200 178.686 20.880 178.566 20.600 178.446C18.920 177.726 17.720 176.006 17.720 174.166C17.720 171.886 19.280 170.166 21.720 169.486C22.360 169.326 22.440 169.366 22.520 169.806L24.520 181.726C24.600 182.166 24.560 182.166 23.960 182.286C23.320 182.406 22.520 182.486 21.720 182.486C14.720 182.486 10.200 178.606 10.200 173.046C10.200 170.686 10.600 167.526 13.920 163.766C16.320 161.086 18.160 159.606 20.040 158.086ZM24.640 169.166C27.880 169.446 30.560 172.166 30.560 175.686C30.560 178.206 29.040 180.246 26.800 181.366C26.320 181.606 26.240 181.606 26.160 181.126L24.200 169.726C24.120 169.246 24.160 169.126 24.640 169.166ZM25.800 136.126C27.120 136.126 28.200 137.206 28.200 139.406C28.200 142.166 26.880 144.726 23.760 147.846C23.120 148.486 22.160 149.406 21.240 150.206C20.960 150.446 20.800 150.406 20.720 149.886C20.560 148.846 20.480 147.486 20.480 146.206C20.480 139.966 23.360 136.126 25.800 136.126Z"></path></g><g></g><path d="M57.820 153.806C56.620 153.806 55.220 154.126 54.140 154.606C50.580 156.166 48.700 160.446 48.700 164.246C48.700 164.606 48.700 164.966 48.740 165.326C48.940 167.486 49.980 169.526 51.300 171.126C52.820 172.966 55.020 173.806 57.420 173.806C64.420 173.806 65.460 167.446 65.460 166.286C65.460 165.406 65.020 165.406 64.860 165.406C64.540 165.406 64.260 165.446 64.260 166.126C64.260 171.286 59.860 172.486 58.580 172.486C55.340 172.486 53.620 169.326 53.620 162.726C53.620 156.126 56.660 154.766 58.820 154.766C60.900 154.766 61.740 155.726 61.740 156.126C61.740 156.486 61.620 157.006 61.020 157.006C59.420 157.006 58.500 158.726 58.500 159.966C58.500 162.246 60.460 162.966 61.580 162.966C61.580 162.966 64.620 162.846 64.620 159.526C64.620 154.286 58.580 153.806 57.820 153.806Z"></path></g><path d="M205.165 212.926C204.165 212.926 203.285 213.566 202.685 214.326L202.525 214.526C202.005 215.126 201.405 215.846 201.045 216.526C200.765 217.006 200.325 217.566 200.125 218.046C200.085 218.126 200.085 218.206 200.085 218.246C200.085 218.406 200.205 218.526 200.325 218.606C200.365 218.646 200.445 218.646 200.485 218.646C200.645 218.646 200.805 218.566 201.045 218.206C201.685 217.326 202.165 216.446 202.725 215.766C203.525 214.806 204.165 214.246 204.485 214.246C204.805 214.246 204.925 214.526 204.925 214.886C204.925 215.526 204.645 216.366 204.565 216.526C203.845 218.606 202.285 221.926 201.765 223.086C201.645 223.326 201.605 223.486 201.605 223.606C201.605 223.806 201.805 223.846 202.245 223.846L203.805 223.846C204.325 223.846 204.365 223.646 204.645 223.166C205.845 220.926 206.685 218.606 207.845 216.446C208.045 216.126 208.165 215.726 208.845 215.726C209.445 215.726 209.445 216.246 209.445 216.446C209.445 216.806 207.085 222.526 206.845 223.086C206.765 223.286 206.725 223.446 206.725 223.566C206.725 223.806 206.885 223.846 207.085 223.846L209.085 223.846C209.445 223.846 209.565 223.726 209.845 223.166C210.125 222.646 212.005 217.646 212.725 216.286C213.045 215.726 213.205 215.646 213.645 215.646C214.085 215.646 214.245 215.966 214.245 216.246C214.245 216.366 214.205 216.486 214.165 216.566C214.125 216.846 214.005 217.086 213.925 217.366C213.605 218.326 213.245 219.286 212.925 220.286L212.445 221.606C212.325 221.926 212.205 222.286 212.205 222.646C212.205 222.766 212.205 222.926 212.245 223.046C212.565 223.926 213.525 224.286 214.365 224.286C216.485 224.286 218.525 220.646 218.725 220.166C218.805 220.006 218.845 219.846 218.845 219.726C218.845 219.526 218.685 219.406 218.565 219.406C218.405 219.446 218.245 219.486 217.965 219.886C217.805 220.166 217.045 221.246 216.885 221.446C216.645 221.806 216.005 222.566 215.645 222.566C215.445 222.486 215.325 222.366 215.325 222.206C215.325 222.006 215.405 221.766 215.485 221.526C215.485 221.526 215.565 221.326 215.605 221.246C216.045 220.166 217.485 216.446 217.485 215.046C217.485 213.486 216.325 212.926 215.125 212.926C213.845 212.926 213.005 214.326 212.605 214.326C212.245 214.326 212.045 212.926 210.405 212.926C208.885 212.926 207.845 214.406 207.485 214.406C207.045 214.406 206.805 212.926 205.165 212.926ZM214.205 225.886C214.005 225.886 213.845 225.926 213.725 225.966C213.365 226.086 212.965 226.326 212.725 226.606C212.325 227.086 212.085 227.766 212.085 228.406C212.085 229.126 212.325 229.806 212.805 230.286C213.045 230.526 213.405 230.766 213.685 230.886C214.085 231.006 214.565 231.086 215.005 231.086C216.165 231.086 217.325 230.606 218.285 229.966C219.525 229.166 220.445 228.046 221.285 226.726C221.885 225.806 222.285 224.806 222.725 223.806L222.885 223.486C223.325 222.486 223.685 221.446 224.045 220.446L224.885 218.126C225.165 217.366 225.445 216.526 225.805 215.806C226.325 214.806 226.325 214.806 227.685 214.806C229.325 214.806 229.325 214.806 229.325 214.806C230.085 214.806 230.085 214.766 230.085 213.886C230.085 213.046 230.085 213.046 229.365 213.046C228.005 213.046 228.005 213.046 228.005 213.046C227.125 213.046 226.765 213.046 226.765 212.646C226.765 212.406 226.885 211.966 227.125 211.326C227.885 209.286 228.525 207.566 230.965 207.446L231.125 207.446C231.285 207.446 231.445 207.486 231.485 207.686C231.485 207.966 231.485 208.086 231.365 208.166C231.245 208.286 231.045 208.326 230.925 208.366C230.565 208.526 230.325 208.806 230.165 209.086C229.925 209.406 229.805 209.806 229.805 210.206C229.805 211.366 230.405 211.686 231.285 211.686C232.125 211.686 233.445 210.446 233.525 208.966C233.525 207.406 232.525 206.246 230.525 206.166L230.285 206.166C228.005 206.166 226.365 207.086 225.125 208.326C223.805 209.686 223.205 210.646 222.605 212.086C222.245 213.006 222.125 213.046 221.245 213.046L219.365 213.046C218.365 213.046 218.285 213.166 218.285 213.886C218.285 214.806 218.285 214.806 219.005 214.806C220.365 214.806 220.365 214.806 220.365 214.806C220.845 214.806 221.045 214.806 221.045 215.166C221.045 215.406 220.925 215.886 220.685 216.766C220.605 217.086 218.205 225.966 217.965 226.606C217.605 227.526 216.965 228.446 216.205 229.086C216.005 229.246 215.805 229.406 215.525 229.486C215.365 229.566 215.205 229.566 215.085 229.566C214.725 229.566 214.525 229.446 214.485 229.446C215.045 229.326 215.405 228.966 215.525 228.886C215.765 228.606 215.965 228.166 215.965 227.766C215.965 227.166 215.725 226.446 215.205 226.166C214.925 226.006 214.565 225.886 214.205 225.886Z"></path><g><line stroke="black" stroke-width="1.6" x1="363.36009539439505" x2="363.36009539439505" y1="143.8461538461538" y2="183.8461538461538"></line></g><g><g><path d="M93.480 154.646C101.120 154.646 102.640 148.446 102.640 146.926C102.640 144.566 100.760 143.046 98.080 143.046C91.160 143.046 89 148.406 89 150.806C89 153.246 90.960 154.646 93.480 154.646ZM97 150.966C94.920 152.366 93.480 152.846 92.480 152.846C91.520 152.846 90.960 152.366 90.640 151.806C90.480 151.526 90.360 151.206 90.360 150.886C90.360 149.886 91.360 148.606 94.560 146.766C96.840 145.446 98.280 144.966 99.240 144.966C100.120 144.966 100.600 145.366 100.920 145.926C101.080 146.206 101.200 146.486 101.200 146.806C101.200 147.726 100.240 148.846 97 150.966Z"></path></g><line stroke="#000000" stroke-width="1.2" x1="89.6" x2="89.6" y1="150.80615384615382" y2="188.80615384615382"></line><g><path d="M89.340 167.566C89.460 167.526 101.580 163.446 101.580 163.446C102.100 163.326 102.100 163.046 102.100 162.726C102.100 162.406 102.100 162.166 101.580 162.006L89.580 157.926C89.420 157.886 89.340 157.846 89.220 157.846C88.860 157.846 88.740 158.086 88.620 158.406C88.580 158.566 88.540 158.686 88.540 158.806C88.540 159.006 88.660 159.206 89.100 159.366C89.100 159.366 97.740 162.286 98.140 162.446C98.340 162.486 98.420 162.606 98.420 162.726C98.420 162.846 98.340 162.926 98.100 163.006C97.660 163.126 89.100 166.046 89.100 166.046C88.660 166.246 88.540 166.446 88.540 166.646C88.540 166.766 88.580 166.886 88.620 167.006C88.740 167.286 88.900 167.606 89.180 167.606C89.220 167.606 89.300 167.606 89.340 167.566Z"></path><path d="M110.140 101.946C110.140 100.786 109.140 99.786 107.940 99.786C106.780 99.786 105.780 100.786 105.780 101.946C105.780 103.146 106.780 104.146 107.940 104.146C109.140 104.146 110.140 103.146 110.140 101.946ZM107.900 95.186C116.420 95.186 118.140 101.506 118.540 103.026C118.580 103.146 118.580 103.266 118.620 103.306C118.900 103.866 118.980 104.146 119.460 104.146C119.820 104.146 120.020 103.986 120.020 103.586C120.020 103.466 120.020 103.346 119.980 103.186C117.500 90.946 109.140 90.866 107.980 90.866C106.700 90.866 98.420 90.946 95.980 103.186C95.940 103.346 95.940 103.506 95.940 103.626C95.940 104.026 96.140 104.146 96.460 104.146C96.820 104.146 97.020 103.866 97.260 103.306C97.300 103.266 97.340 103.106 97.380 102.946C97.860 101.306 99.580 95.186 107.900 95.186Z"></path></g><text font-family="Alegreya" font-size="22" text-anchor="middle" x="95.82" y="223.8461538461538">This</text></g><g><g><path d="M205.965 159.486C209.965 159.486 214.885 155.766 214.885 151.966C214.885 149.686 213.085 148.206 210.485 148.206C205.565 148.206 201.605 151.846 201.605 155.726C201.605 158.086 203.525 159.486 205.965 159.486Z"></path></g><line stroke="#000000" stroke-width="1.2" x1="202.20499502424516" x2="202.20499502424516" y1="155.68615384615381" y2="190.68615384615381"></line><text font-family="Alegreya" font-size="22" text-anchor="middle" x="208.24499502424516" y="223.8461538461538">is</text></g><g><g><path d="M286.443 169.486C290.443 169.486 295.363 165.766 295.363 161.966C295.363 159.686 293.563 158.206 290.963 158.206C286.043 158.206 282.083 161.846 282.083 165.726C282.083 168.086 284.003 169.486 286.443 169.486Z"></path></g><line stroke="#000000" stroke-width="1.2" x1="282.6825452093201" x2="282.6825452093201" y1="165.68615384615381" y2="200.68615384615381"></line><text font-family="Alegreya" font-size="22" text-anchor="middle" x="288.72254520932006" y="223.8461538461538">the</text></g><g><g><path d="M93.480 164.646C101.120 164.646 102.640 158.446 102.640 156.926C102.640 154.566 100.760 153.046 98.080 153.046C91.160 153.046 89 158.406 89 160.806C89 163.246 90.960 164.646 93.480 164.646ZM97 160.966C94.920 162.366 93.480 162.846 92.480 162.846C91.520 162.846 90.960 162.366 90.640 161.806C90.480 161.526 90.360 161.206 90.360 160.886C90.360 159.886 91.360 158.606 94.560 156.766C96.840 155.446 98.280 154.966 99.240 154.966C100.120 154.966 100.600 155.366 100.920 155.926C101.080 156.206 101.200 156.486 101.200 156.806C101.200 157.726 100.240 158.846 97 160.966Z"></path></g><line stroke="#000000" stroke-width="1.2" x1="89.6" x2="89.6" y1="160.80615384615382" y2="198.80615384615382"></line><g><path d="M89.340 142.566C89.460 142.526 101.580 138.446 101.580 138.446C102.100 138.326 102.100 138.046 102.100 137.726C102.100 137.406 102.100 137.166 101.580 137.006L89.580 132.926C89.420 132.886 89.340 132.846 89.220 132.846C88.860 132.846 88.740 133.086 88.620 133.406C88.580 133.566 88.540 133.686 88.540 133.806C88.540 134.006 88.660 134.206 89.100 134.366C89.100 134.366 97.740 137.286 98.140 137.446C98.340 137.486 98.420 137.606 98.420 137.726C98.420 137.846 98.340 137.926 98.100 138.006C97.660 138.126 89.100 141.046 89.100 141.046C88.660 141.246 88.540 141.446 88.540 141.646C88.540 141.766 88.580 141.886 88.620 142.006C88.740 142.286 88.900 142.606 89.180 142.606C89.220 142.606 89.300 142.606 89.340 142.566Z"></path><path d="M110.140 101.946C110.140 100.786 109.140 99.786 107.940 99.786C106.780 99.786 105.780 100.786 105.780 101.946C105.780 103.146 106.780 104.146 107.940 104.146C109.140 104.146 110.140 103.146 110.140 101.946ZM107.900 95.186C116.420 95.186 118.140 101.506 118.540 103.026C118.580 103.146 118.580 103.266 118.620 103.306C118.900 103.866 118.980 104.146 119.460 104.146C119.820 104.146 120.020 103.986 120.020 103.586C120.020 103.466 120.020 103.346 119.980 103.186C117.500 90.946 109.140 90.866 107.980 90.866C106.700 90.866 98.420 90.946 95.980 103.186C95.940 103.346 95.940 103.506 95.940 103.626C95.940 104.026 96.140 104.146 96.460 104.146C96.820 104.146 97.020 103.866 97.260 103.306C97.300 103.266 97.340 103.106 97.380 102.946C97.860 101.306 99.580 95.186 107.900 95.186Z"></path></g><text font-family="Alegreya" font-size="22" text-anchor="middle" x="95.82" y="223.8461538461538">This</text></g><g><g><path d="M205.965 169.486C209.965 169.486 214.885 165.766 214.885 161.966C214.885 159.686 213.085 158.206 210.485 158.206C205.565 158.206 201.605 161.846 201.605 165.726C201.605 168.086 203.525 169.486 205.965 169.486Z"></path></g><line stroke="#000000" stroke-width="1.2" x1="202.20499502424516" x2="202.20499502424516" y1="165.68615384615381" y2="200.68615384615381"></line><text font-family="Alegreya" font-size="22" text-anchor="middle" x="208.24499502424516" y="223.8461538461538">is</text></g><g><g><path d="M286.443 179.486C290.443 179.486 295.363 175.766 295.363 171.966C295.363 169.686 293.563 168.206 290.963 168.206C286.043 168.206 282.083 171.846 282.083 175.726C282.083 178.086 284.003 179.486 286.443 179.486Z"></path></g><line stroke="#000000" stroke-width="1.2" x1="294.7625452093201" x2="294.7625452093201" y1="172.0061538461538" y2="137.0061538461538"></line><text font-family="Alegreya" font-size="22" text-anchor="middle" x="288.72254520932006" y="223.8461538461538">the</text></g></g><g transform="translate(473.00624924054887)"><g></g><g><line stroke="black" stroke-width="1.6" x1="315.3761063760315" x2="315.3761063760315" y1="143.8461538461538" y2="183.8461538461538"></line></g><g><path d="M9.320 140.286C7.800 138.446 6.560 136.966 6.560 134.726C6.560 134.566 6.600 134.366 6.600 134.206C6.760 131.886 8.200 129.966 9.240 128.326C9.360 128.126 9.400 127.926 9.400 127.726C9.400 127.326 9.240 126.966 9.240 126.966C9.240 126.966 3.320 119.926 2.640 119.246C2.440 119.046 2.160 118.926 1.920 118.926C1.520 118.926 1.120 119.206 1.120 119.766C1.120 119.966 1.160 120.166 1.280 120.406C1.440 120.846 3.720 122.886 3.720 125.766C3.720 127.246 3.120 128.966 1.320 130.846C0.920 131.246 0.760 131.686 0.760 132.006C0.760 132.566 1.160 132.966 1.160 132.966L3.120 135.366C3.760 136.166 4.320 136.926 4.840 137.766C4.920 137.926 5.080 138.126 5.080 138.326C5.080 138.366 5.080 138.446 5.040 138.486C4.960 138.646 4.800 138.686 4.600 138.686C4.360 138.686 4.120 138.606 3.960 138.566C3.760 138.566 3.520 138.446 3.320 138.446C1.600 138.446 0.040 140.166 0.040 142.286C0.040 144.286 1.760 146.246 4.680 148.486C5 148.726 5.400 148.846 5.720 148.846C6 148.846 6.280 148.766 6.320 148.606C6.360 148.486 6.400 148.406 6.400 148.326C6.400 147.966 6.080 147.646 5.760 147.366C5.240 147.366 4.800 146.286 4.720 145.926C4.600 145.606 4.560 145.246 4.560 144.886C4.560 143.646 5.160 142.246 6.440 142.006C6.640 141.966 6.840 141.966 7.080 141.966C8.240 141.966 9.560 142.406 10.200 142.646C10.240 142.646 10.280 142.686 10.320 142.686C10.440 142.726 10.520 142.726 10.600 142.726C10.720 142.726 10.800 142.686 10.800 142.566C10.800 142.086 9.760 140.766 9.320 140.286Z"></path></g><g><g><path d="M84.838 159.486C88.838 159.486 93.758 155.766 93.758 151.966C93.758 149.686 91.958 148.206 89.358 148.206C84.438 148.206 80.478 151.846 80.478 155.726C80.478 158.086 82.398 159.486 84.838 159.486Z"></path></g><line stroke="#000000" stroke-width="1.2" x1="81.07755018507491" x2="81.07755018507491" y1="155.68615384615381" y2="190.68615384615381"></line><text font-family="Alegreya" font-size="22" text-anchor="middle" x="87.11755018507492" y="223.8461538461538">lyrics</text></g><g><g><path d="M165.315 204.486C169.315 204.486 174.235 200.766 174.235 196.966C174.235 194.686 172.435 193.206 169.835 193.206C164.915 193.206 160.955 196.846 160.955 200.726C160.955 203.086 162.875 204.486 165.315 204.486Z"></path><g><circle cx="180.23510037014984" cy="198.8461538461538" r="2.4"></circle></g></g><line stroke="#000000" stroke-width="1.2" x1="173.63510037014984" x2="173.63510037014984" y1="197.0061538461538" y2="159.0061538461538"></line><line stroke="#000000" stroke-width="2.2" x1="157.75510037014985" x2="179.67510037014983" y1="193.8461538461538" y2="193.8461538461538"></line><text font-family="Alegreya" font-size="22" text-anchor="middle" x="167.59510037014985" y="223.8461538461538">of</text></g><g><g><path d="M270.586 164.486C274.586 164.486 279.506 160.766 279.506 156.966C279.506 154.686 277.706 153.206 275.106 153.206C270.186 153.206 266.226 156.846 266.226 160.726C266.226 163.086 268.146 164.486 270.586 164.486Z"></path></g><line stroke="#000000" stroke-width="1.2" x1="266.8260010301268" x2="266.8260010301268" y1="160.68615384615381" y2="198.68615384615381"></line><path d="M275.826 173.806C276.386 175.486 276.666 177.486 276.666 179.286C276.666 181.646 275.666 185.006 275.066 186.366C273.586 189.726 271.586 192.966 266.226 194.766L266.226 204.166C266.226 204.646 266.426 204.766 266.666 204.766C267.426 204.766 267.746 204.526 267.826 203.886C268.506 200.086 271.466 196.606 273.506 193.446C276.026 189.486 278.466 184.726 278.466 179.726C278.466 176.606 277.666 173.766 277.346 172.486C277.026 171.206 275.226 172.086 275.826 173.806Z"></path><text font-family="Alegreya" font-size="22" text-anchor="middle" x="272.86600103012677" y="223.8461538461538">Voice1</text></g><g><path d="M9.320 200.286C7.800 198.446 6.560 196.966 6.560 194.726C6.560 194.566 6.600 194.366 6.600 194.206C6.760 191.886 8.200 189.966 9.240 188.326C9.360 188.126 9.400 187.926 9.400 187.726C9.400 187.326 9.240 186.966 9.240 186.966C9.240 186.966 3.320 179.926 2.640 179.246C2.440 179.046 2.160 178.926 1.920 178.926C1.520 178.926 1.120 179.206 1.120 179.766C1.120 179.966 1.160 180.166 1.280 180.406C1.440 180.846 3.720 182.886 3.720 185.766C3.720 187.246 3.120 188.966 1.320 190.846C0.920 191.246 0.760 191.686 0.760 192.006C0.760 192.566 1.160 192.966 1.160 192.966L3.120 195.366C3.760 196.166 4.320 196.926 4.840 197.766C4.920 197.926 5.080 198.126 5.080 198.326C5.080 198.366 5.080 198.446 5.040 198.486C4.960 198.646 4.800 198.686 4.600 198.686C4.360 198.686 4.120 198.606 3.960 198.566C3.760 198.566 3.520 198.446 3.320 198.446C1.600 198.446 0.040 200.166 0.040 202.286C0.040 204.286 1.760 206.246 4.680 208.486C5 208.726 5.400 208.846 5.720 208.846C6 208.846 6.280 208.766 6.320 208.606C6.360 208.486 6.400 208.406 6.400 208.326C6.400 207.966 6.080 207.646 5.760 207.366C5.240 207.366 4.800 206.286 4.720 205.926C4.600 205.606 4.560 205.246 4.560 204.886C4.560 203.646 5.160 202.246 6.440 202.006C6.640 201.966 6.840 201.966 7.080 201.966C8.240 201.966 9.560 202.406 10.200 202.646C10.240 202.646 10.280 202.686 10.320 202.686C10.440 202.726 10.520 202.726 10.600 202.726C10.720 202.726 10.800 202.686 10.800 202.566C10.800 202.086 9.760 200.766 9.320 200.286Z"></path></g><g><g><path d="M84.838 169.486C88.838 169.486 93.758 165.766 93.758 161.966C93.758 159.686 91.958 158.206 89.358 158.206C84.438 158.206 80.478 161.846 80.478 165.726C80.478 168.086 82.398 169.486 84.838 169.486Z"></path></g><line stroke="#000000" stroke-width="1.2" x1="93.15755018507492" x2="93.15755018507492" y1="162.0061538461538" y2="127.00615384615381"></line><text font-family="Alegreya" font-size="22" text-anchor="middle" x="87.11755018507492" y="223.8461538461538">lyrics</text></g><g><g><path d="M165.315 214.486C169.315 214.486 174.235 210.766 174.235 206.966C174.235 204.686 172.435 203.206 169.835 203.206C164.915 203.206 160.955 206.846 160.955 210.726C160.955 213.086 162.875 214.486 165.315 214.486Z"></path><g><circle cx="180.23510037014984" cy="208.8461538461538" r="2.4"></circle></g></g><line stroke="#000000" stroke-width="1.2" x1="173.63510037014984" x2="173.63510037014984" y1="207.0061538461538" y2="159.0061538461538"></line><line stroke="#000000" stroke-width="2.2" x1="157.75510037014985" x2="179.67510037014983" y1="193.8461538461538" y2="193.8461538461538"></line><line stroke="#000000" stroke-width="2.2" x1="157.75510037014985" x2="179.67510037014983" y1="203.8461538461538" y2="203.8461538461538"></line><text font-family="Alegreya" font-size="22" text-anchor="middle" x="167.59510037014985" y="223.8461538461538">of</text></g><g><g><path d="M270.586 174.486C274.586 174.486 279.506 170.766 279.506 166.966C279.506 164.686 277.706 163.206 275.106 163.206C270.186 163.206 266.226 166.846 266.226 170.726C266.226 173.086 268.146 174.486 270.586 174.486Z"></path></g><line stroke="#000000" stroke-width="1.2" x1="278.9060010301268" x2="278.9060010301268" y1="167.0061538461538" y2="129.0061538461538"></line><path d="M287.826 155.086C287.826 155.086 288.866 151.286 288.866 148.166C288.866 143.166 286.786 138.446 284.266 134.446C282.226 131.286 280.546 127.846 279.906 124.006C279.786 123.366 279.466 123.126 278.706 123.126C278.466 123.126 278.306 123.246 278.306 123.726L278.306 133.286C280.946 133.766 284.746 139.206 286.186 142.606C286.786 143.966 287.146 146.246 287.146 148.606C287.146 150.406 286.866 152.286 286.186 154.086C286.106 154.326 286.066 154.526 286.066 154.686C286.066 155.326 286.466 155.686 286.706 155.846C286.946 156.006 287.626 155.766 287.826 155.086Z"></path><text font-family="Alegreya" font-size="22" text-anchor="middle" x="272.86600103012677" y="223.8461538461538">Voice1</text></g></g><g transform="translate(804.1823556165804)"><g></g><g><line stroke="#000000" stroke-width="1.6" x1="145.53243986341548" x2="145.53243986341548" y1="143.8461538461538" y2="183.8461538461538"></line><line stroke="#000000" stroke-width="5" x1="152.83243986341546" x2="152.83243986341546" y1="143.8461538461538" y2="183.8461538461538"></line></g><g><path d="M69.706 158.206L69.706 154.526C69.706 153.926 69.226 153.486 68.666 153.486L59.466 153.486C58.866 153.486 58.426 153.926 58.426 154.526L58.426 158.206C58.426 158.766 58.866 159.246 59.466 159.246L68.666 159.246C69.226 159.246 69.706 158.766 69.706 158.206Z"></path></g></g></svg>