<?xml version="1.0" encoding="UTF-8" standalone="no"?><svg xmlns="http://www.w3.org/2000/svg" class="" height="279.4mm" viewBox="0 0 1328.6153846153845 1719.3846153846152" width="215.9mm"><g><g><g><line stroke="#6A6A6A" stroke-width="1.3" x1="93.84615384615385" x2="622.6208335459079" y1="183.8461538461538" y2="183.8461538461538"></line><line stroke="#6A6A6A" stroke-width="1.3" x1="93.84615384615385" x2="622.6208335459079" y1="173.8461538461538" y2="173.8461538461538"></line><line stroke="#6A6A6A" stroke-width="1.3" x1="93.84615384615385" x2="622.6208335459079" y1="163.8461538461538" y2="163.8461538461538"></line><line stroke="#6A6A6A" stroke-width="1.3" x1="93.84615384615385" x2="622.6208335459079" y1="153.8461538461538" y2="153.8461538461538"></line><line stroke="#6A6A6A" stroke-width="1.3" x1="93.84615384615385" x2="622.6208335459079" y1="143.8461538461538" y2="143.8461538461538"></line></g><g><path d="M119.046 129.926C118.486 129.926 117.246 130.966 116.446 131.846C113.486 135.126 112.526 140.126 112.526 144.286C112.526 146.606 112.806 149.206 113.086 150.846C113.166 151.326 113.206 151.406 112.726 151.806C110.166 153.926 107.406 156.366 105.326 158.926C102.566 162.366 100.846 166.086 100.846 170.366C100.846 177.326 105.606 183.926 115.406 183.926C116.326 183.926 117.366 183.846 118.166 183.686C118.606 183.606 118.686 183.566 118.766 184.046C119.246 186.726 119.846 190.206 119.846 192.086C119.846 198.006 115.846 198.726 113.486 198.726C111.326 198.726 110.286 198.086 110.286 197.566C110.286 197.126 110.646 197.166 111.566 196.886C112.806 196.526 114.246 195.446 114.246 193.126C114.246 190.926 112.846 189.046 110.406 189.046C107.726 189.046 106.126 191.166 106.126 193.646C106.126 196.246 107.686 200.166 113.726 200.166C116.406 200.166 121.606 198.966 121.606 192.166C121.606 189.886 120.886 186.086 120.446 183.606C120.366 183.126 120.406 183.166 120.966 182.926C125.006 181.326 127.686 177.926 127.686 173.406C127.686 168.286 123.926 163.766 118.046 163.766C116.926 163.766 117.046 163.966 116.886 163.046L115.886 157.246C115.806 156.766 115.886 156.726 116.126 156.486C116.766 155.886 117.606 155.046 118.366 154.206C121.726 150.526 123.726 145.766 123.726 141.246C123.726 137.766 122.766 134.326 121.126 131.926C120.526 131.046 119.486 129.926 119.046 129.926ZM113.886 158.086C114.286 157.766 114.366 157.806 114.446 158.246L115.286 163.366C115.406 164.126 115.406 164.086 114.686 164.326C111.166 165.526 108.886 168.686 108.886 172.086C108.886 175.686 110.766 178.246 113.486 179.166C113.806 179.286 114.286 179.406 114.566 179.406C114.886 179.406 115.046 179.206 115.046 178.966C115.046 178.686 114.726 178.566 114.446 178.446C112.766 177.726 111.566 176.006 111.566 174.166C111.566 171.886 113.126 170.166 115.566 169.486C116.206 169.326 116.286 169.366 116.366 169.806L118.366 181.726C118.446 182.166 118.406 182.166 117.806 182.286C117.166 182.406 116.366 182.486 115.566 182.486C108.566 182.486 104.046 178.606 104.046 173.046C104.046 170.686 104.446 167.526 107.766 163.766C110.166 161.086 112.006 159.606 113.886 158.086ZM118.486 169.166C121.726 169.446 124.406 172.166 124.406 175.686C124.406 178.206 122.886 180.246 120.646 181.366C120.166 181.606 120.086 181.606 120.006 181.126L118.046 169.726C117.966 169.246 118.006 169.126 118.486 169.166ZM119.646 136.126C120.966 136.126 122.046 137.206 122.046 139.406C122.046 142.166 120.726 144.726 117.606 147.846C116.966 148.486 116.006 149.406 115.086 150.206C114.806 150.446 114.646 150.406 114.566 149.886C114.406 148.846 114.326 147.486 114.326 146.206C114.326 139.966 117.206 136.126 119.646 136.126Z"></path></g><g><path d="M146.826 139.126C147.106 139.006 147.306 138.686 147.306 138.446L147.306 135.606C147.306 135.406 147.186 135.286 147.026 135.286C146.946 135.286 146.906 135.286 146.826 135.326C146.826 135.326 146.026 135.646 145.826 135.686C145.546 135.686 145.266 135.486 145.266 135.166C145.266 134.766 145.266 130.286 145.266 130.286C145.266 130.046 145.026 129.846 144.706 129.846C144.306 129.846 144.066 130.046 144.066 130.286C144.066 130.286 144.066 135.086 144.066 135.486C144.026 135.886 143.906 136.406 143.546 136.646C143.066 136.926 141.706 137.486 141.026 137.646C140.666 137.646 140.546 137.166 140.546 136.846C140.546 136.446 140.546 132.046 140.546 132.046C140.546 131.806 140.266 131.606 139.986 131.606C139.586 131.606 139.346 131.806 139.346 132.046C139.346 132.046 139.346 134.206 139.346 135.806L139.346 137.446C139.346 138.006 139.106 138.406 138.866 138.526C138.626 138.646 137.826 138.966 137.826 138.966C137.546 139.046 137.346 139.366 137.346 139.606L137.346 142.446C137.346 142.686 137.466 142.806 137.666 142.806C137.706 142.806 137.786 142.766 137.826 142.766C137.826 142.766 138.426 142.526 138.706 142.366C138.746 142.366 138.786 142.326 138.826 142.326C139.106 142.326 139.346 142.726 139.346 143.046L139.346 147.006C139.346 147.446 139.146 147.806 138.906 147.926C138.666 148.006 137.826 148.366 137.826 148.366C137.546 148.446 137.346 148.766 137.346 149.006L137.346 151.846C137.346 152.086 137.466 152.206 137.666 152.206C137.706 152.206 137.786 152.166 137.826 152.166C137.826 152.166 138.386 151.926 138.746 151.806C138.786 151.766 138.826 151.766 138.866 151.766C139.146 151.766 139.346 152.206 139.346 152.406C139.346 152.646 139.346 157.326 139.346 157.326C139.346 157.566 139.586 157.766 139.866 157.766C140.266 157.766 140.546 157.566 140.546 157.326C140.546 157.326 140.546 152.246 140.546 151.766C140.546 151.246 140.746 150.966 140.946 150.886L143.386 149.886C143.426 149.886 143.506 149.846 143.546 149.846C143.866 149.846 144.066 150.326 144.066 150.566C144.066 150.846 144.066 155.566 144.066 155.566C144.066 155.806 144.306 156.006 144.586 156.006C145.026 156.006 145.266 155.806 145.266 155.566C145.266 155.566 145.266 150.166 145.266 149.886C145.266 149.566 145.426 149.086 145.706 148.966C145.986 148.846 146.826 148.526 146.826 148.526C147.106 148.406 147.306 148.086 147.306 147.846L147.306 145.006C147.306 144.806 147.186 144.686 147.026 144.686C146.946 144.686 146.906 144.686 146.826 144.726C146.826 144.726 145.986 145.046 145.786 145.126C145.546 145.126 145.266 144.886 145.266 144.406L145.266 140.686C145.266 140.406 145.466 139.646 145.786 139.526C146.106 139.406 146.826 139.126 146.826 139.126ZM144.066 145.646C143.826 146.446 141.946 147.246 141.026 147.246C140.786 147.246 140.586 147.166 140.546 147.046C140.466 146.886 140.426 146.006 140.426 145.046C140.426 143.806 140.466 142.406 140.546 142.086C140.626 141.406 142.466 140.566 143.466 140.566C143.746 140.566 143.986 140.646 144.066 140.806C144.146 141.006 144.226 142.006 144.226 143.086C144.226 144.166 144.146 145.286 144.066 145.646Z"></path></g><path d="M169.666 153.806C168.466 153.806 167.066 154.126 165.986 154.606C162.426 156.166 160.546 160.446 160.546 164.246C160.546 164.606 160.546 164.966 160.586 165.326C160.786 167.486 161.826 169.526 163.146 171.126C164.666 172.966 166.866 173.806 169.266 173.806C176.266 173.806 177.306 167.446 177.306 166.286C177.306 165.406 176.866 165.406 176.706 165.406C176.386 165.406 176.106 165.446 176.106 166.126C176.106 171.286 171.706 172.486 170.426 172.486C167.186 172.486 165.466 169.326 165.466 162.726C165.466 156.126 168.506 154.766 170.666 154.766C172.746 154.766 173.586 155.726 173.586 156.126C173.586 156.486 173.466 157.006 172.866 157.006C171.266 157.006 170.346 158.726 170.346 159.966C170.346 162.246 172.306 162.966 173.426 162.966C173.426 162.966 176.466 162.846 176.466 159.526C176.466 154.286 170.426 153.806 169.666 153.806Z"></path></g><g><line stroke="black" stroke-width="1.6" x1="325.97104707940525" x2="325.97104707940525" y1="143.8461538461538" y2="183.8461538461538"></line></g><g><g><path d="M210.246 188.366C204.446 188.366 200.846 190.806 200.846 193.766C200.846 196.686 203.326 199.286 209.806 199.286C216.926 199.286 219.206 196.806 219.206 193.766C219.206 190.686 214.286 188.366 210.246 188.366ZM205.686 191.086C206.166 189.606 207.766 189.366 209.126 189.366C212.086 189.366 214.486 192.566 214.486 195.206C214.486 195.486 214.446 195.766 214.406 196.006C214.206 197.086 213.566 197.846 212.486 198.126C212.046 198.246 211.606 198.286 211.166 198.286C210.766 198.286 210.406 198.246 210.006 198.126C209.286 197.886 208.566 197.486 207.966 196.966C207.646 196.686 207.326 196.366 207.046 196.006C206.206 195.006 205.526 193.526 205.526 192.166C205.526 191.806 205.566 191.446 205.686 191.086Z"></path></g><line stroke="#000000" stroke-width="2.2" x1="197.64615384615388" x2="224.4461538461539" y1="193.8461538461538" y2="193.8461538461538"></line></g></g><g><g><g></g></g><g><line stroke="black" stroke-width="1.6" x1="471.8959403126566" x2="471.8959403126566" y1="143.8461538461538" y2="183.8461538461538"></line></g><g><g><path d="M356.171 188.366C350.371 188.366 346.771 190.806 346.771 193.766C346.771 196.686 349.251 199.286 355.731 199.286C362.851 199.286 365.131 196.806 365.131 193.766C365.131 190.686 360.211 188.366 356.171 188.366ZM351.611 191.086C352.091 189.606 353.691 189.366 355.051 189.366C358.011 189.366 360.411 192.566 360.411 195.206C360.411 195.486 360.371 195.766 360.331 196.006C360.131 197.086 359.491 197.846 358.411 198.126C357.971 198.246 357.531 198.286 357.091 198.286C356.691 198.286 356.331 198.246 355.931 198.126C355.211 197.886 354.491 197.486 353.891 196.966C353.571 196.686 353.251 196.366 352.971 196.006C352.131 195.006 351.451 193.526 351.451 192.166C351.451 191.806 351.491 191.446 351.611 191.086Z"></path></g><line stroke="#000000" stroke-width="2.2" x1="343.5710470794052" x2="370.37104707940523" y1="193.8461538461538" y2="193.8461538461538"></line></g></g><g><g></g><g><line stroke="#000000" stroke-width="1.6" x1="612.8208335459079" x2="612.8208335459079" y1="143.8461538461538" y2="183.8461538461538"></line><line stroke="#000000" stroke-width="5" x1="620.120833545908" x2="620.120833545908" y1="143.8461538461538" y2="183.8461538461538"></line></g><g><g><path d="M497.096 188.366C491.296 188.366 487.696 190.806 487.696 193.766C487.696 196.686 490.176 199.286 496.656 199.286C503.776 199.286 506.056 196.806 506.056 193.766C506.056 190.686 501.136 188.366 497.096 188.366ZM492.536 191.086C493.016 189.606 494.616 189.366 495.976 189.366C498.936 189.366 501.336 192.566 501.336 195.206C501.336 195.486 501.296 195.766 501.256 196.006C501.056 197.086 500.416 197.846 499.336 198.126C498.896 198.246 498.456 198.286 498.016 198.286C497.616 198.286 497.256 198.246 496.856 198.126C496.136 197.886 495.416 197.486 494.816 196.966C494.496 196.686 494.176 196.366 493.896 196.006C493.056 195.006 492.376 193.526 492.376 192.166C492.376 191.806 492.416 191.446 492.536 191.086Z"></path></g><line stroke="#000000" stroke-width="2.2" x1="484.4959403126566" x2="511.2959403126566" y1="193.8461538461538" y2="193.8461538461538"></line></g></g></svg>