<?xml version="1.0" encoding="UTF-8" standalone="no"?><svg xmlns="http://www.w3.org/2000/svg" height="279.4mm" viewBox="0 0 1328.6153846153845 1719.3846153846152" width="215.9mm"><g transform="translate(93.84615384615385)"><g><g><line stroke="#6A6A6A" stroke-width="1.3" x1="0" x2="596.2953722649548" y1="183.8461538461538" y2="183.8461538461538"></line><line stroke="#6A6A6A" stroke-width="1.3" x1="0" x2="596.2953722649548" y1="173.8461538461538" y2="173.8461538461538"></line><line stroke="#6A6A6A" stroke-width="1.3" x1="0" x2="596.2953722649548" y1="163.8461538461538" y2="163.8461538461538"></line><line stroke="#6A6A6A" stroke-width="1.3" x1="0" x2="596.2953722649548" y1="153.8461538461538" y2="153.8461538461538"></line><line stroke="#6A6A6A" stroke-width="1.3" x1="0" x2="596.2953722649548" y1="143.8461538461538" y2="143.8461538461538"></line></g><g><path d="M25.200 129.926C24.640 129.926 23.400 130.966 22.600 131.846C19.640 135.126 18.680 140.126 18.680 144.286C18.680 146.606 18.960 149.206 19.240 150.846C19.320 151.326 19.360 151.406 18.880 151.806C16.320 153.926 13.560 156.366 11.480 158.926C8.720 162.366 7 166.086 7 170.366C7 177.326 11.760 183.926 21.560 183.926C22.480 183.926 23.520 183.846 24.320 183.686C24.760 183.606 24.840 183.566 24.920 184.046C25.400 186.726 26 190.206 26 192.086C26 198.006 22 198.726 19.640 198.726C17.480 198.726 16.440 198.086 16.440 197.566C16.440 197.126 16.800 197.166 17.720 196.886C18.960 196.526 20.400 195.446 20.400 193.126C20.400 190.926 19 189.046 16.560 189.046C13.880 189.046 12.280 191.166 12.280 193.646C12.280 196.246 13.840 200.166 19.880 200.166C22.560 200.166 27.760 198.966 27.760 192.166C27.760 189.886 27.040 186.086 26.600 183.606C26.520 183.126 26.560 183.166 27.120 182.926C31.160 181.326 33.840 177.926 33.840 173.406C33.840 168.286 30.080 163.766 24.200 163.766C23.080 163.766 23.200 163.966 23.040 163.046L22.040 157.246C21.960 156.766 22.040 156.726 22.280 156.486C22.920 155.886 23.760 155.046 24.520 154.206C27.880 150.526 29.880 145.766 29.880 141.246C29.880 137.766 28.920 134.326 27.280 131.926C26.680 131.046 25.640 129.926 25.200 129.926ZM20.040 158.086C20.440 157.766 20.520 157.806 20.600 158.246L21.440 163.366C21.560 164.126 21.560 164.086 20.840 164.326C17.320 165.526 15.040 168.686 15.040 172.086C15.040 175.686 16.920 178.246 19.640 179.166C19.960 179.286 20.440 179.406 20.720 179.406C21.040 179.406 21.200 179.206 21.200 178.966C21.200 178.686 20.880 178.566 20.600 178.446C18.920 177.726 17.720 176.006 17.720 174.166C17.720 171.886 19.280 170.166 21.720 169.486C22.360 169.326 22.440 169.366 22.520 169.806L24.520 181.726C24.600 182.166 24.560 182.166 23.960 182.286C23.320 182.406 22.520 182.486 21.720 182.486C14.720 182.486 10.200 178.606 10.200 173.046C10.200 170.686 10.600 167.526 13.920 163.766C16.320 161.086 18.160 159.606 20.040 158.086ZM24.640 169.166C27.880 169.446 30.560 172.166 30.560 175.686C30.560 178.206 29.040 180.246 26.800 181.366C26.320 181.606 26.240 181.606 26.160 181.126L24.200 169.726C24.120 169.246 24.160 169.126 24.640 169.166ZM25.800 136.126C27.120 136.126 28.200 137.206 28.200 139.406C28.200 142.166 26.880 144.726 23.760 147.846C23.120 148.486 22.160 149.406 21.240 150.206C20.960 150.446 20.800 150.406 20.720 149.886C20.560 148.846 20.480 147.486 20.480 146.206C20.480 139.966 23.360 136.126 25.800 136.126Z"></path></g><g></g><path d="M57.820 153.806C56.620 153.806 55.220 154.126 54.140 154.606C50.580 156.166 48.700 160.446 48.700 164.246C48.700 164.606 48.700 164.966 48.740 165.326C48.940 167.486 49.980 169.526 51.300 171.126C52.820 172.966 55.020 173.806 57.420 173.806C64.420 173.806 65.460 167.446 65.460 166.286C65.460 165.406 65.020 165.406 64.860 165.406C64.540 165.406 64.260 165.446 64.260 166.126C64.260 171.286 59.860 172.486 58.580 172.486C55.340 172.486 53.620 169.326 53.620 162.726C53.620 156.126 56.660 154.766 58.820 154.766C60.900 154.766 61.740 155.726 61.740 156.126C61.740 156.486 61.620 157.006 61.020 157.006C59.420 157.006 58.500 158.726 58.500 159.966C58.500 162.246 60.460 162.966 61.580 162.966C61.580 162.966 64.620 162.846 64.620 159.526C64.620 154.286 58.580 153.806 57.820 153.806Z"></path></g><g><line stroke="black" stroke-width="1.6" x1="376.2172067580976" x2="376.2172067580976" y1="143.8461538461538" y2="183.8461538461538"></line></g><g><g><path d="M93.360 199.486C97.360 199.486 102.280 195.766 102.280 191.966C102.280 189.686 100.480 188.206 97.880 188.206C92.960 188.206 89 191.846 89 195.726C89 198.086 90.920 199.486 93.360 199.486Z"></path></g><g><path d="M93.360 154.486C97.360 154.486 102.280 150.766 102.280 146.966C102.280 144.686 100.480 143.206 97.880 143.206C92.960 143.206 89 146.846 89 150.726C89 153.086 90.920 154.486 93.360 154.486Z"></path></g><g><path d="M93.360 144.486C97.360 144.486 102.280 140.766 102.280 136.966C102.280 134.686 100.480 133.206 97.880 133.206C92.960 133.206 89 136.846 89 140.726C89 143.086 90.920 144.486 93.360 144.486Z"></path></g><line stroke="#000000" stroke-width="1.2" x1="89.6" x2="89.6" y1="140.68615384615381" y2="225.68615384615381"></line><line stroke="#000000" stroke-width="2.2" x1="85.8" x2="107.72" y1="193.8461538461538" y2="193.8461538461538"></line><text font-family="Alegreya" font-size="22" text-anchor="middle" x="95.64" y="223.8461538461538">normal</text></g><g><g><path d="M163.193 199.486C167.193 199.486 172.113 195.766 172.113 191.966C172.113 189.686 170.313 188.206 167.713 188.206C162.793 188.206 158.833 191.846 158.833 195.726C158.833 198.086 160.753 199.486 163.193 199.486Z"></path></g><g><path d="M163.193 154.486C167.193 154.486 172.113 150.766 172.113 146.966C172.113 144.686 170.313 143.206 167.713 143.206C162.793 143.206 158.833 146.846 158.833 150.726C158.833 153.086 160.753 154.486 163.193 154.486Z"></path></g><g><path d="M163.193 144.486C167.193 144.486 172.113 140.766 172.113 136.966C172.113 134.686 170.313 133.206 167.713 133.206C162.793 133.206 158.833 136.846 158.833 140.726C158.833 143.086 160.753 144.486 163.193 144.486Z"></path></g><line stroke="#000000" stroke-width="1.2" x1="159.4325516895244" x2="159.4325516895244" y1="140.68615384615381" y2="225.68615384615381"></line><line stroke="#000000" stroke-width="2.2" x1="155.6325516895244" x2="177.5525516895244" y1="193.8461538461538" y2="193.8461538461538"></line><text font-family="Alegreya" font-size="22" text-anchor="middle" x="165.47255168952438" y="223.8461538461538">up</text></g><g><g><path d="M233.025 199.486C237.025 199.486 241.945 195.766 241.945 191.966C241.945 189.686 240.145 188.206 237.545 188.206C232.625 188.206 228.665 191.846 228.665 195.726C228.665 198.086 230.585 199.486 233.025 199.486Z"></path></g><g><path d="M233.025 154.486C237.025 154.486 241.945 150.766 241.945 146.966C241.945 144.686 240.145 143.206 237.545 143.206C232.625 143.206 228.665 146.846 228.665 150.726C228.665 153.086 230.585 154.486 233.025 154.486Z"></path></g><g><path d="M233.025 144.486C237.025 144.486 241.945 140.766 241.945 136.966C241.945 134.686 240.145 133.206 237.545 133.206C232.625 133.206 228.665 136.846 228.665 140.726C228.665 143.086 230.585 144.486 233.025 144.486Z"></path></g><line stroke="#000000" stroke-width="1.2" x1="229.26510337904878" x2="229.26510337904878" y1="140.68615384615381" y2="225.68615384615381"></line><line stroke="#000000" stroke-width="2.2" x1="225.4651033790488" x2="247.3851033790488" y1="193.8461538461538" y2="193.8461538461538"></line><text font-family="Alegreya" font-size="22" text-anchor="middle" x="235.30510337904877" y="223.8461538461538">normal</text></g><g><g><path d="M316.047 199.486C320.047 199.486 324.967 195.766 324.967 191.966C324.967 189.686 323.167 188.206 320.567 188.206C315.647 188.206 311.687 191.846 311.687 195.726C311.687 198.086 313.607 199.486 316.047 199.486Z"></path></g><g><path d="M316.047 154.486C320.047 154.486 324.967 150.766 324.967 146.966C324.967 144.686 323.167 143.206 320.567 143.206C315.647 143.206 311.687 146.846 311.687 150.726C311.687 153.086 313.607 154.486 316.047 154.486Z"></path></g><g><path d="M316.047 144.486C320.047 144.486 324.967 140.766 324.967 136.966C324.967 134.686 323.167 133.206 320.567 133.206C315.647 133.206 311.687 136.846 311.687 140.726C311.687 143.086 313.607 144.486 316.047 144.486Z"></path></g><line stroke="#000000" stroke-width="1.2" x1="312.28665506857317" x2="312.28665506857317" y1="140.68615384615381" y2="225.68615384615381"></line><line stroke="#000000" stroke-width="2.2" x1="308.48665506857316" x2="330.4066550685732" y1="193.8461538461538" y2="193.8461538461538"></line><text font-family="Alegreya" font-size="22" text-anchor="middle" x="318.32665506857313" y="223.8461538461538">down</text></g></g><g transform="translate(485.8633606042514)"><g></g><g><line stroke="#000000" stroke-width="1.6" x1="194.47816550685727" x2="194.47816550685727" y1="143.8461538461538" y2="183.8461538461538"></line><line stroke="#000000" stroke-width="5" x1="201.77816550685725" x2="201.77816550685725" y1="143.8461538461538" y2="183.8461538461538"></line></g><g><g><path d="M24.511 199.486C28.511 199.486 33.431 195.766 33.431 191.966C33.431 189.686 31.631 188.206 29.031 188.206C24.111 188.206 20.151 191.846 20.151 195.726C20.151 198.086 22.071 199.486 24.511 199.486Z"></path></g><g><path d="M24.511 154.486C28.511 154.486 33.431 150.766 33.431 146.966C33.431 144.686 31.631 143.206 29.031 143.206C24.111 143.206 20.151 146.846 20.151 150.726C20.151 153.086 22.071 154.486 24.511 154.486Z"></path></g><g><path d="M24.511 144.486C28.511 144.486 33.431 140.766 33.431 136.966C33.431 134.686 31.631 133.206 29.031 133.206C24.111 133.206 20.151 136.846 20.151 140.726C20.151 143.086 22.071 144.486 24.511 144.486Z"></path></g><line stroke="#000000" stroke-width="1.2" x1="20.75099999999999" x2="20.75099999999999" y1="140.68615384615381" y2="225.68615384615381"></line><line stroke="#000000" stroke-width="2.2" x1="16.95099999999999" x2="38.87099999999998" y1="193.8461538461538" y2="193.8461538461538"></line><text font-family="Alegreya" font-size="22" text-anchor="middle" x="26.79099999999999" y="223.8461538461538">normal</text></g><g><g><path d="M94.588 199.486C98.588 199.486 103.508 195.766 103.508 191.966C103.508 189.686 101.708 188.206 99.108 188.206C94.188 188.206 90.228 191.846 90.228 195.726C90.228 198.086 92.148 199.486 94.588 199.486Z"></path></g><g><path d="M94.588 154.486C98.588 154.486 103.508 150.766 103.508 146.966C103.508 144.686 101.708 143.206 99.108 143.206C94.188 143.206 90.228 146.846 90.228 150.726C90.228 153.086 92.148 154.486 94.588 154.486Z"></path></g><g><path d="M94.588 144.486C98.588 144.486 103.508 140.766 103.508 136.966C103.508 134.686 101.708 133.206 99.108 133.206C94.188 133.206 90.228 136.846 90.228 140.726C90.228 143.086 92.148 144.486 94.588 144.486Z"></path></g><line stroke="#000000" stroke-width="1.2" x1="90.8280551689524" x2="90.8280551689524" y1="140.68615384615381" y2="225.68615384615381"></line><line stroke="#000000" stroke-width="2.2" x1="87.0280551689524" x2="108.94805516895241" y1="193.8461538461538" y2="193.8461538461538"></line><text font-family="Alegreya" font-size="22" text-anchor="middle" x="96.86805516895241" y="223.8461538461538">non-arp.</text></g><g><g><path d="M164.665 199.486C168.665 199.486 173.585 195.766 173.585 191.966C173.585 189.686 171.785 188.206 169.185 188.206C164.265 188.206 160.305 191.846 160.305 195.726C160.305 198.086 162.225 199.486 164.665 199.486Z"></path></g><g><path d="M164.665 154.486C168.665 154.486 173.585 150.766 173.585 146.966C173.585 144.686 171.785 143.206 169.185 143.206C164.265 143.206 160.305 146.846 160.305 150.726C160.305 153.086 162.225 154.486 164.665 154.486Z"></path></g><g><path d="M164.665 144.486C168.665 144.486 173.585 140.766 173.585 136.966C173.585 134.686 171.785 133.206 169.185 133.206C164.265 133.206 160.305 136.846 160.305 140.726C160.305 143.086 162.225 144.486 164.665 144.486Z"></path></g><line stroke="#000000" stroke-width="1.2" x1="160.90511033790483" x2="160.90511033790483" y1="140.68615384615381" y2="225.68615384615381"></line><line stroke="#000000" stroke-width="2.2" x1="157.10511033790485" x2="179.02511033790483" y1="193.8461538461538" y2="193.8461538461538"></line><text font-family="Alegreya" font-size="22" text-anchor="middle" x="166.94511033790485" y="223.8461538461538">normal</text></g></g></svg>