<?xml version="1.0" encoding="UTF-8" standalone="no"?><svg xmlns="http://www.w3.org/2000/svg" height="279.4mm" viewBox="0 0 1328.6153846153845 1719.3846153846152" width="215.9mm"><g transform="translate(93.84615384615385)"><g><g><line stroke="#6A6A6A" stroke-width="1.3" x1="0" x2="817.3487180490342" y1="183.8461538461538" y2="183.8461538461538"></line><line stroke="#6A6A6A" stroke-width="1.3" x1="0" x2="817.3487180490342" y1="173.8461538461538" y2="173.8461538461538"></line><line stroke="#6A6A6A" stroke-width="1.3" x1="0" x2="817.3487180490342" y1="163.8461538461538" y2="163.8461538461538"></line><line stroke="#6A6A6A" stroke-width="1.3" x1="0" x2="817.3487180490342" y1="153.8461538461538" y2="153.8461538461538"></line><line stroke="#6A6A6A" stroke-width="1.3" x1="0" x2="817.3487180490342" y1="143.8461538461538" y2="143.8461538461538"></line></g><g><path d="M25.200 129.926C24.640 129.926 23.400 130.966 22.600 131.846C19.640 135.126 18.680 140.126 18.680 144.286C18.680 146.606 18.960 149.206 19.240 150.846C19.320 151.326 19.360 151.406 18.880 151.806C16.320 153.926 13.560 156.366 11.480 158.926C8.720 162.366 7 166.086 7 170.366C7 177.326 11.760 183.926 21.560 183.926C22.480 183.926 23.520 183.846 24.320 183.686C24.760 183.606 24.840 183.566 24.920 184.046C25.400 186.726 26 190.206 26 192.086C26 198.006 22 198.726 19.640 198.726C17.480 198.726 16.440 198.086 16.440 197.566C16.440 197.126 16.800 197.166 17.720 196.886C18.960 196.526 20.400 195.446 20.400 193.126C20.400 190.926 19 189.046 16.560 189.046C13.880 189.046 12.280 191.166 12.280 193.646C12.280 196.246 13.840 200.166 19.880 200.166C22.560 200.166 27.760 198.966 27.760 192.166C27.760 189.886 27.040 186.086 26.600 183.606C26.520 183.126 26.560 183.166 27.120 182.926C31.160 181.326 33.840 177.926 33.840 173.406C33.840 168.286 30.080 163.766 24.200 163.766C23.080 163.766 23.200 163.966 23.040 163.046L22.040 157.246C21.960 156.766 22.040 156.726 22.280 156.486C22.920 155.886 23.760 155.046 24.520 154.206C27.880 150.526 29.880 145.766 29.880 141.246C29.880 137.766 28.920 134.326 27.280 131.926C26.680 131.046 25.640 129.926 25.200 129.926ZM20.040 158.086C20.440 157.766 20.520 157.806 20.600 158.246L21.440 163.366C21.560 164.126 21.560 164.086 20.840 164.326C17.320 165.526 15.040 168.686 15.040 172.086C15.040 175.686 16.920 178.246 19.640 179.166C19.960 179.286 20.440 179.406 20.720 179.406C21.040 179.406 21.200 179.206 21.200 178.966C21.200 178.686 20.880 178.566 20.600 178.446C18.920 177.726 17.720 176.006 17.720 174.166C17.720 171.886 19.280 170.166 21.720 169.486C22.360 169.326 22.440 169.366 22.520 169.806L24.520 181.726C24.600 182.166 24.560 182.166 23.960 182.286C23.320 182.406 22.520 182.486 21.720 182.486C14.720 182.486 10.200 178.606 10.200 173.046C10.200 170.686 10.600 167.526 13.920 163.766C16.320 161.086 18.160 159.606 20.040 158.086ZM24.640 169.166C27.880 169.446 30.560 172.166 30.560 175.686C30.560 178.206 29.040 180.246 26.800 181.366C26.320 181.606 26.240 181.606 26.160 181.126L24.200 169.726C24.120 169.246 24.160 169.126 24.640 169.166ZM25.800 136.126C27.120 136.126 28.200 137.206 28.200 139.406C28.200 142.166 26.880 144.726 23.760 147.846C23.120 148.486 22.160 149.406 21.240 150.206C20.960 150.446 20.800 150.406 20.720 149.886C20.560 148.846 20.480 147.486 20.480 146.206C20.480 139.966 23.360 136.126 25.800 136.126Z"></path></g><g></g><path d="M57.820 153.806C56.620 153.806 55.220 154.126 54.140 154.606C50.580 156.166 48.700 160.446 48.700 164.246C48.700 164.606 48.700 164.966 48.740 165.326C48.940 167.486 49.980 169.526 51.300 171.126C52.820 172.966 55.020 173.806 57.420 173.806C64.420 173.806 65.460 167.446 65.460 166.286C65.460 165.406 65.020 165.406 64.860 165.406C64.540 165.406 64.260 165.446 64.260 166.126C64.260 171.286 59.860 172.486 58.580 172.486C55.340 172.486 53.620 169.326 53.620 162.726C53.620 156.126 56.660 154.766 58.820 154.766C60.900 154.766 61.740 155.726 61.740 156.126C61.740 156.486 61.620 157.006 61.020 157.006C59.420 157.006 58.500 158.726 58.500 159.966C58.500 162.246 60.460 162.966 61.580 162.966C61.580 162.966 64.620 162.846 64.620 159.526C64.620 154.286 58.580 153.806 57.820 153.806Z"></path></g><g><line stroke="black" stroke-width="1.6" x1="440.3743590245171" x2="440.3743590245171" y1="143.8461538461538" y2="183.8461538461538"></line></g><g><g><line stroke="#6A6A6A" stroke-width="1.3" x1="0" x2="817.3487180490342" y1="288.8461538461538" y2="288.8461538461538"></line><line stroke="#6A6A6A" stroke-width="1.3" x1="0" x2="817.3487180490342" y1="278.8461538461538" y2="278.8461538461538"></line><line stroke="#6A6A6A" stroke-width="1.3" x1="0" x2="817.3487180490342" y1="268.8461538461538" y2="268.8461538461538"></line><line stroke="#6A6A6A" stroke-width="1.3" x1="0" x2="817.3487180490342" y1="258.8461538461538" y2="258.8461538461538"></line><line stroke="#6A6A6A" stroke-width="1.3" x1="0" x2="817.3487180490342" y1="248.8461538461538" y2="248.8461538461538"></line></g><g><path d="M25.200 234.926C24.640 234.926 23.400 235.966 22.600 236.846C19.640 240.126 18.680 245.126 18.680 249.286C18.680 251.606 18.960 254.206 19.240 255.846C19.320 256.326 19.360 256.406 18.880 256.806C16.320 258.926 13.560 261.366 11.480 263.926C8.720 267.366 7 271.086 7 275.366C7 282.326 11.760 288.926 21.560 288.926C22.480 288.926 23.520 288.846 24.320 288.686C24.760 288.606 24.840 288.566 24.920 289.046C25.400 291.726 26 295.206 26 297.086C26 303.006 22 303.726 19.640 303.726C17.480 303.726 16.440 303.086 16.440 302.566C16.440 302.126 16.800 302.166 17.720 301.886C18.960 301.526 20.400 300.446 20.400 298.126C20.400 295.926 19 294.046 16.560 294.046C13.880 294.046 12.280 296.166 12.280 298.646C12.280 301.246 13.840 305.166 19.880 305.166C22.560 305.166 27.760 303.966 27.760 297.166C27.760 294.886 27.040 291.086 26.600 288.606C26.520 288.126 26.560 288.166 27.120 287.926C31.160 286.326 33.840 282.926 33.840 278.406C33.840 273.286 30.080 268.766 24.200 268.766C23.080 268.766 23.200 268.966 23.040 268.046L22.040 262.246C21.960 261.766 22.040 261.726 22.280 261.486C22.920 260.886 23.760 260.046 24.520 259.206C27.880 255.526 29.880 250.766 29.880 246.246C29.880 242.766 28.920 239.326 27.280 236.926C26.680 236.046 25.640 234.926 25.200 234.926ZM20.040 263.086C20.440 262.766 20.520 262.806 20.600 263.246L21.440 268.366C21.560 269.126 21.560 269.086 20.840 269.326C17.320 270.526 15.040 273.686 15.040 277.086C15.040 280.686 16.920 283.246 19.640 284.166C19.960 284.286 20.440 284.406 20.720 284.406C21.040 284.406 21.200 284.206 21.200 283.966C21.200 283.686 20.880 283.566 20.600 283.446C18.920 282.726 17.720 281.006 17.720 279.166C17.720 276.886 19.280 275.166 21.720 274.486C22.360 274.326 22.440 274.366 22.520 274.806L24.520 286.726C24.600 287.166 24.560 287.166 23.960 287.286C23.320 287.406 22.520 287.486 21.720 287.486C14.720 287.486 10.200 283.606 10.200 278.046C10.200 275.686 10.600 272.526 13.920 268.766C16.320 266.086 18.160 264.606 20.040 263.086ZM24.640 274.166C27.880 274.446 30.560 277.166 30.560 280.686C30.560 283.206 29.040 285.246 26.800 286.366C26.320 286.606 26.240 286.606 26.160 286.126L24.200 274.726C24.120 274.246 24.160 274.126 24.640 274.166ZM25.800 241.126C27.120 241.126 28.200 242.206 28.200 244.406C28.200 247.166 26.880 249.726 23.760 252.846C23.120 253.486 22.160 254.406 21.240 255.206C20.960 255.446 20.800 255.406 20.720 254.886C20.560 253.846 20.480 252.486 20.480 251.206C20.480 244.966 23.360 241.126 25.800 241.126Z"></path></g><g></g><path d="M57.820 258.806C56.620 258.806 55.220 259.126 54.140 259.606C50.580 261.166 48.700 265.446 48.700 269.246C48.700 269.606 48.700 269.966 48.740 270.326C48.940 272.486 49.980 274.526 51.300 276.126C52.820 277.966 55.020 278.806 57.420 278.806C64.420 278.806 65.460 272.446 65.460 271.286C65.460 270.406 65.020 270.406 64.860 270.406C64.540 270.406 64.260 270.446 64.260 271.126C64.260 276.286 59.860 277.486 58.580 277.486C55.340 277.486 53.620 274.326 53.620 267.726C53.620 261.126 56.660 259.766 58.820 259.766C60.900 259.766 61.740 260.726 61.740 261.126C61.740 261.486 61.620 262.006 61.020 262.006C59.420 262.006 58.500 263.726 58.500 264.966C58.500 267.246 60.460 267.966 61.580 267.966C61.580 267.966 64.620 267.846 64.620 264.526C64.620 259.286 58.580 258.806 57.820 258.806Z"></path></g><g><line stroke="black" stroke-width="1.6" x1="440.3743590245171" x2="440.3743590245171" y1="248.8461538461538" y2="288.8461538461538"></line></g><g><g><path d="M258.687 188.366C252.887 188.366 249.287 190.806 249.287 193.766C249.287 196.686 251.767 199.286 258.247 199.286C265.367 199.286 267.647 196.806 267.647 193.766C267.647 190.686 262.727 188.366 258.687 188.366ZM254.127 191.086C254.607 189.606 256.207 189.366 257.567 189.366C260.527 189.366 262.927 192.566 262.927 195.206C262.927 195.486 262.887 195.766 262.847 196.006C262.647 197.086 262.007 197.846 260.927 198.126C260.487 198.246 260.047 198.286 259.607 198.286C259.207 198.286 258.847 198.246 258.447 198.126C257.727 197.886 257.007 197.486 256.407 196.966C256.087 196.686 255.767 196.366 255.487 196.006C254.647 195.006 253.967 193.526 253.967 192.166C253.967 191.806 254.007 191.446 254.127 191.086Z"></path></g><line stroke="#000000" stroke-width="2.2" x1="246.08717951225856" x2="272.88717951225857" y1="193.8461538461538" y2="193.8461538461538"></line></g><g><g><path d="M258.687 293.366C252.887 293.366 249.287 295.806 249.287 298.766C249.287 301.686 251.767 304.286 258.247 304.286C265.367 304.286 267.647 301.806 267.647 298.766C267.647 295.686 262.727 293.366 258.687 293.366ZM254.127 296.086C254.607 294.606 256.207 294.366 257.567 294.366C260.527 294.366 262.927 297.566 262.927 300.206C262.927 300.486 262.887 300.766 262.847 301.006C262.647 302.086 262.007 302.846 260.927 303.126C260.487 303.246 260.047 303.286 259.607 303.286C259.207 303.286 258.847 303.246 258.447 303.126C257.727 302.886 257.007 302.486 256.407 301.966C256.087 301.686 255.767 301.366 255.487 301.006C254.647 300.006 253.967 298.526 253.967 297.166C253.967 296.806 254.007 296.446 254.127 296.086Z"></path></g><line stroke="#000000" stroke-width="2.2" x1="246.08717951225856" x2="272.88717951225857" y1="298.8461538461538" y2="298.8461538461538"></line></g></g><g transform="translate(550.0205128706709)"><g></g><g><line stroke="black" stroke-width="1.6" x1="351.3743590245171" x2="351.3743590245171" y1="143.8461538461538" y2="183.8461538461538"></line><line stroke="black" stroke-width="5" x1="358.6743590245171" x2="358.6743590245171" y1="143.8461538461538" y2="183.8461538461538"></line></g><g></g><g><line stroke="black" stroke-width="1.6" x1="351.3743590245171" x2="351.3743590245171" y1="248.8461538461538" y2="288.8461538461538"></line><line stroke="black" stroke-width="5" x1="358.6743590245171" x2="358.6743590245171" y1="248.8461538461538" y2="288.8461538461538"></line></g><g><g><path d="M169.687 188.366C163.887 188.366 160.287 190.806 160.287 193.766C160.287 196.686 162.767 199.286 169.247 199.286C176.367 199.286 178.647 196.806 178.647 193.766C178.647 190.686 173.727 188.366 169.687 188.366ZM165.127 191.086C165.607 189.606 167.207 189.366 168.567 189.366C171.527 189.366 173.927 192.566 173.927 195.206C173.927 195.486 173.887 195.766 173.847 196.006C173.647 197.086 173.007 197.846 171.927 198.126C171.487 198.246 171.047 198.286 170.607 198.286C170.207 198.286 169.847 198.246 169.447 198.126C168.727 197.886 168.007 197.486 167.407 196.966C167.087 196.686 166.767 196.366 166.487 196.006C165.647 195.006 164.967 193.526 164.967 192.166C164.967 191.806 165.007 191.446 165.127 191.086Z"></path></g><line stroke="#000000" stroke-width="2.2" x1="157.08717951225856" x2="183.88717951225857" y1="193.8461538461538" y2="193.8461538461538"></line></g><g><g><path d="M169.687 293.366C163.887 293.366 160.287 295.806 160.287 298.766C160.287 301.686 162.767 304.286 169.247 304.286C176.367 304.286 178.647 301.806 178.647 298.766C178.647 295.686 173.727 293.366 169.687 293.366ZM165.127 296.086C165.607 294.606 167.207 294.366 168.567 294.366C171.527 294.366 173.927 297.566 173.927 300.206C173.927 300.486 173.887 300.766 173.847 301.006C173.647 302.086 173.007 302.846 171.927 303.126C171.487 303.246 171.047 303.286 170.607 303.286C170.207 303.286 169.847 303.246 169.447 303.126C168.727 302.886 168.007 302.486 167.407 301.966C167.087 301.686 166.767 301.366 166.487 301.006C165.647 300.006 164.967 298.526 164.967 297.166C164.967 296.806 165.007 296.446 165.127 296.086Z"></path></g><line stroke="#000000" stroke-width="2.2" x1="157.08717951225856" x2="183.88717951225857" y1="298.8461538461538" y2="298.8461538461538"></line></g></g></svg>