<?xml version="1.0" encoding="UTF-8" standalone="no"?><svg xmlns="http://www.w3.org/2000/svg" height="279.4mm" viewBox="0 0 1328.6153846153845 1719.3846153846152" width="215.9mm"><g transform="translate(93.84615384615385)"><g><g><line stroke="#6A6A6A" stroke-width="1.3" x1="0" x2="373.8763343436294" y1="183.8461538461538" y2="183.8461538461538"></line><line stroke="#6A6A6A" stroke-width="1.3" x1="0" x2="373.8763343436294" y1="173.8461538461538" y2="173.8461538461538"></line><line stroke="#6A6A6A" stroke-width="1.3" x1="0" x2="373.8763343436294" y1="163.8461538461538" y2="163.8461538461538"></line><line stroke="#6A6A6A" stroke-width="1.3" x1="0" x2="373.8763343436294" y1="153.8461538461538" y2="153.8461538461538"></line><line stroke="#6A6A6A" stroke-width="1.3" x1="0" x2="373.8763343436294" y1="143.8461538461538" y2="143.8461538461538"></line></g><g><path d="M25.200 129.926C24.640 129.926 23.400 130.966 22.600 131.846C19.640 135.126 18.680 140.126 18.680 144.286C18.680 146.606 18.960 149.206 19.240 150.846C19.320 151.326 19.360 151.406 18.880 151.806C16.320 153.926 13.560 156.366 11.480 158.926C8.720 162.366 7 166.086 7 170.366C7 177.326 11.760 183.926 21.560 183.926C22.480 183.926 23.520 183.846 24.320 183.686C24.760 183.606 24.840 183.566 24.920 184.046C25.400 186.726 26 190.206 26 192.086C26 198.006 22 198.726 19.640 198.726C17.480 198.726 16.440 198.086 16.440 197.566C16.440 197.126 16.800 197.166 17.720 196.886C18.960 196.526 20.400 195.446 20.400 193.126C20.400 190.926 19 189.046 16.560 189.046C13.880 189.046 12.280 191.166 12.280 193.646C12.280 196.246 13.840 200.166 19.880 200.166C22.560 200.166 27.760 198.966 27.760 192.166C27.760 189.886 27.040 186.086 26.600 183.606C26.520 183.126 26.560 183.166 27.120 182.926C31.160 181.326 33.840 177.926 33.840 173.406C33.840 168.286 30.080 163.766 24.200 163.766C23.080 163.766 23.200 163.966 23.040 163.046L22.040 157.246C21.960 156.766 22.040 156.726 22.280 156.486C22.920 155.886 23.760 155.046 24.520 154.206C27.880 150.526 29.880 145.766 29.880 141.246C29.880 137.766 28.920 134.326 27.280 131.926C26.680 131.046 25.640 129.926 25.200 129.926ZM20.040 158.086C20.440 157.766 20.520 157.806 20.600 158.246L21.440 163.366C21.560 164.126 21.560 164.086 20.840 164.326C17.320 165.526 15.040 168.686 15.040 172.086C15.040 175.686 16.920 178.246 19.640 179.166C19.960 179.286 20.440 179.406 20.720 179.406C21.040 179.406 21.200 179.206 21.200 178.966C21.200 178.686 20.880 178.566 20.600 178.446C18.920 177.726 17.720 176.006 17.720 174.166C17.720 171.886 19.280 170.166 21.720 169.486C22.360 169.326 22.440 169.366 22.520 169.806L24.520 181.726C24.600 182.166 24.560 182.166 23.960 182.286C23.320 182.406 22.520 182.486 21.720 182.486C14.720 182.486 10.200 178.606 10.200 173.046C10.200 170.686 10.600 167.526 13.920 163.766C16.320 161.086 18.160 159.606 20.040 158.086ZM24.640 169.166C27.880 169.446 30.560 172.166 30.560 175.686C30.560 178.206 29.040 180.246 26.800 181.366C26.320 181.606 26.240 181.606 26.160 181.126L24.200 169.726C24.120 169.246 24.160 169.126 24.640 169.166ZM25.800 136.126C27.120 136.126 28.200 137.206 28.200 139.406C28.200 142.166 26.880 144.726 23.760 147.846C23.120 148.486 22.160 149.406 21.240 150.206C20.960 150.446 20.800 150.406 20.720 149.886C20.560 148.846 20.480 147.486 20.480 146.206C20.480 139.966 23.360 136.126 25.800 136.126Z"></path></g><g></g><path d="M57.820 153.806C56.620 153.806 55.220 154.126 54.140 154.606C50.580 156.166 48.700 160.446 48.700 164.246C48.700 164.606 48.700 164.966 48.740 165.326C48.940 167.486 49.980 169.526 51.300 171.126C52.820 172.966 55.020 173.806 57.420 173.806C64.420 173.806 65.460 167.446 65.460 166.286C65.460 165.406 65.020 165.406 64.860 165.406C64.540 165.406 64.260 165.446 64.260 166.126C64.260 171.286 59.860 172.486 58.580 172.486C55.340 172.486 53.620 169.326 53.620 162.726C53.620 156.126 56.660 154.766 58.820 154.766C60.900 154.766 61.740 155.726 61.740 156.126C61.740 156.486 61.620 157.006 61.020 157.006C59.420 157.006 58.500 158.726 58.500 159.966C58.500 162.246 60.460 162.966 61.580 162.966C61.580 162.966 64.620 162.846 64.620 159.526C64.620 154.286 58.580 153.806 57.820 153.806Z"></path></g><g><line stroke="black" stroke-width="1.6" x1="374.67633434362943" x2="374.67633434362943" y1="143.8461538461538" y2="183.8461538461538"></line></g><g><g><path d="M109.960 199.486C113.960 199.486 118.880 195.766 118.880 191.966C118.880 189.686 117.080 188.206 114.480 188.206C109.560 188.206 105.600 191.846 105.600 195.726C105.600 198.086 107.520 199.486 109.960 199.486Z"></path><path d="M90.900 200.766C90.900 200.766 90.980 200.846 91.100 200.846C91.180 200.846 91.340 200.806 91.460 200.646C91.780 200.246 91.980 177.406 91.980 177.406C91.940 176.686 91.260 176.326 90.700 176.326C90.300 176.326 89.940 176.526 89.940 176.966L90.260 188.246C90.260 188.566 90.100 188.846 89.820 188.926C89.740 188.966 89.700 188.966 89.620 188.966C89.300 188.966 89.020 188.606 88.700 188.406C88.300 188.166 87.860 188.006 87.460 187.846C87.420 187.846 87.380 187.806 87.340 187.806C87.060 187.766 86.820 187.726 86.540 187.726C84.660 187.806 82.900 189.326 82.900 191.526C82.900 193.406 84.180 195.846 87.780 198.366C88.700 199.006 89.660 200.126 90.900 200.766ZM90.140 191.846C90.180 192.006 90.220 192.486 90.220 193.126C90.220 194.686 90.100 197.046 90.100 197.046C90.100 197.286 90.020 197.686 89.660 197.686C89.540 197.686 89.420 197.646 89.260 197.566C88.020 196.766 86.900 195.526 86.340 194.566C85.900 193.726 85.700 192.886 85.700 192.166C85.700 191.406 85.940 190.726 86.300 190.286C86.580 190.006 86.940 189.846 87.340 189.846C87.660 189.846 87.980 189.926 88.380 190.126C88.940 190.446 89.980 191.286 90.140 191.846ZM92.940 200.646C93.060 200.806 93.180 200.846 93.300 200.846C93.420 200.846 93.540 200.766 93.540 200.766C94.740 200.126 95.740 199.006 96.660 198.326C100.220 195.846 101.500 193.406 101.500 191.526C101.500 189.286 99.700 187.806 97.900 187.726C97.620 187.726 97.380 187.766 97.100 187.806C96.620 187.966 96.180 188.126 95.740 188.406C95.420 188.606 95.140 188.966 94.820 188.966C94.740 188.966 94.700 188.966 94.620 188.926C94.340 188.846 94.180 188.566 94.180 188.246L94.500 176.966C94.500 176.486 94.140 176.286 93.740 176.286C93.180 176.286 92.500 176.686 92.460 177.406C92.460 177.406 92.620 200.246 92.940 200.646ZM94.340 197.046C94.340 197.046 94.220 194.686 94.220 193.126C94.220 192.486 94.260 192.006 94.300 191.846C94.460 191.286 95.500 190.446 96.100 190.126C96.460 189.926 96.820 189.846 97.140 189.846C97.540 189.846 97.900 190.006 98.140 190.286C98.500 190.726 98.700 191.366 98.700 192.166C98.700 192.886 98.540 193.726 98.100 194.566C97.540 195.526 96.380 196.766 95.140 197.566C94.980 197.646 94.900 197.686 94.780 197.686C94.460 197.686 94.340 197.286 94.340 197.046Z"></path></g><line stroke="#000000" stroke-width="1.2" x1="118.28020000000001" x2="118.28020000000001" y1="192.0061538461538" y2="157.0061538461538"></line><line stroke="#000000" stroke-width="2.2" x1="102.4002" x2="124.3202" y1="193.8461538461538" y2="193.8461538461538"></line></g><g><g><path d="M178.752 194.486C182.752 194.486 187.672 190.766 187.672 186.966C187.672 184.686 185.872 183.206 183.272 183.206C178.352 183.206 174.392 186.846 174.392 190.726C174.392 193.086 176.312 194.486 178.752 194.486Z"></path><path d="M171.872 195.646C172.192 195.246 172.352 172.406 172.352 172.406C172.312 171.686 171.672 171.286 171.112 171.286C170.712 171.286 170.352 171.526 170.352 171.966C170.352 172.766 170.592 182.366 170.632 183.246C170.632 183.526 170.472 183.806 170.192 183.926C170.112 183.966 170.072 183.966 169.992 183.966C169.632 183.966 169.352 183.606 169.112 183.406C168.672 183.126 168.192 182.966 167.752 182.846C167.472 182.766 167.192 182.726 166.912 182.726C165.072 182.846 163.312 184.286 163.312 186.486C163.312 188.406 164.552 190.846 168.112 193.326C169.112 194.006 170.072 195.086 171.272 195.766C171.272 195.766 171.392 195.846 171.512 195.846C171.632 195.846 171.752 195.806 171.872 195.646ZM170.472 192.086C170.472 192.286 170.392 192.686 170.032 192.686C169.912 192.686 169.792 192.646 169.632 192.566C168.432 191.806 167.272 190.526 166.752 189.566C166.272 188.726 166.072 187.886 166.072 187.166C166.072 186.406 166.312 185.726 166.712 185.286C166.952 185.006 167.312 184.846 167.712 184.846C168.032 184.846 168.392 184.926 168.752 185.126C169.312 185.446 170.352 186.326 170.512 186.806C170.552 186.966 170.592 187.446 170.592 188.086C170.592 189.686 170.472 192.086 170.472 192.086Z"></path></g><line stroke="#000000" stroke-width="1.2" x1="187.07203358590738" x2="187.07203358590738" y1="187.0061538461538" y2="149.0061538461538"></line></g><g><g><path d="M246.142 189.486C250.142 189.486 255.062 185.766 255.062 181.966C255.062 179.686 253.262 178.206 250.662 178.206C245.742 178.206 241.782 181.846 241.782 185.726C241.782 188.086 243.702 189.486 246.142 189.486Z"></path><path d="M239.742 177.166C239.742 176.966 239.582 176.846 239.422 176.846C239.382 176.846 239.302 176.846 239.262 176.886C239.262 176.886 237.342 177.606 237.262 177.606C236.902 177.606 236.742 177.166 236.742 176.806L236.742 172.006C236.742 171.766 236.502 171.566 236.182 171.566C235.582 171.566 235.502 171.926 235.502 172.246L235.502 175.926L235.502 177.446C235.502 177.766 235.382 178.246 235.102 178.486C234.382 178.766 233.742 179.086 233.062 179.366C232.822 179.446 232.582 179.766 232.582 180.006L232.582 182.846C232.582 183.086 232.702 183.206 232.902 183.206C232.942 183.206 233.022 183.166 233.062 183.166C233.062 183.166 234.622 182.486 234.942 182.366C234.982 182.366 235.022 182.326 235.062 182.326C235.302 182.326 235.542 182.686 235.542 183.006L235.542 187.006C235.542 187.446 235.382 187.806 235.142 187.886C234.862 188.006 233.062 188.766 233.062 188.766C232.822 188.846 232.582 189.166 232.582 189.406L232.582 192.246C232.582 192.486 232.702 192.606 232.902 192.606C232.942 192.606 233.022 192.566 233.062 192.566C233.062 192.566 234.582 191.926 234.942 191.766L234.942 191.766C235.142 191.686 235.502 192.206 235.502 192.526L235.502 197.526C235.502 197.766 235.742 197.966 236.062 197.966C236.662 197.966 236.742 197.686 236.742 197.286L236.742 191.766C236.742 191.646 236.742 191.566 236.782 191.446C236.822 191.206 236.982 190.966 237.142 190.886C237.462 190.806 239.262 190.086 239.262 190.086C239.502 190.006 239.742 189.686 239.742 189.446L239.742 186.606C239.742 186.366 239.622 186.246 239.422 186.246C239.382 186.246 239.302 186.286 239.262 186.286C239.262 186.286 237.422 187.006 237.262 187.046C236.982 187.046 236.702 186.806 236.702 186.366L236.702 182.646C236.702 182.326 236.902 181.606 237.222 181.486C237.582 181.326 239.262 180.686 239.262 180.686C239.502 180.566 239.742 180.286 239.742 180.006Z"></path></g><line stroke="#000000" stroke-width="1.2" x1="254.46226717181474" x2="254.46226717181474" y1="182.0061538461538" y2="147.0061538461538"></line></g><g><g><path d="M317.562 184.486C321.562 184.486 326.482 180.766 326.482 176.966C326.482 174.686 324.682 173.206 322.082 173.206C317.162 173.206 313.202 176.846 313.202 180.726C313.202 183.086 315.122 184.486 317.562 184.486Z"></path><path d="M310.842 173.246C311.042 173.206 311.162 173.086 311.162 172.926L311.162 169.846C311.162 169.686 311.082 169.526 310.922 169.526C310.842 169.526 309.602 169.966 309.402 170.046C309.362 170.086 309.322 170.086 309.282 170.086C309.202 170.086 309.122 170.006 309.122 169.806C309.122 169.526 309.122 164.726 309.122 164.726C309.122 164.166 309.002 164.086 308.482 164.086C307.962 164.086 307.842 164.206 307.842 164.726C307.842 164.726 307.842 169.486 307.842 170.006C307.842 170.526 307.762 170.686 307.522 170.766C307.362 170.846 306.442 171.166 305.922 171.406C305.602 171.406 305.522 171.246 305.522 171.046C305.522 170.806 305.522 165.966 305.522 165.966C305.522 165.406 305.402 165.326 304.882 165.326C304.362 165.326 304.242 165.446 304.242 165.966C304.242 165.966 304.242 171.246 304.242 171.526C304.242 171.806 304.162 172.046 303.882 172.166L302.162 172.806C302.122 172.806 302.082 172.846 302.042 172.846C301.882 172.846 301.762 172.726 301.762 172.486C301.762 172.246 301.762 167.166 301.762 167.166C301.762 166.646 301.642 166.526 301.122 166.526C300.602 166.526 300.482 166.646 300.482 167.166C300.482 167.166 300.482 172.566 300.482 172.966C300.482 173.366 300.362 173.486 300.162 173.566C299.962 173.646 298.922 174.046 298.922 174.046C298.722 174.126 298.602 174.206 298.602 174.366L298.602 177.446C298.602 177.606 298.722 177.766 298.842 177.766C298.922 177.766 299.762 177.486 300.082 177.326C300.162 177.286 300.202 177.286 300.242 177.286C300.442 177.286 300.482 177.446 300.482 177.686L300.482 182.326C300.482 182.646 300.282 182.926 300.082 183.006C299.882 183.086 298.922 183.446 298.922 183.446C298.722 183.526 298.602 183.606 298.602 183.766L298.602 186.886C298.602 187.046 298.722 187.206 298.882 187.206C298.922 187.206 299.602 186.926 299.962 186.806C300.042 186.766 300.122 186.766 300.202 186.766C300.402 186.766 300.482 186.886 300.482 187.126C300.482 187.486 300.482 192.086 300.482 192.086C300.482 192.606 300.602 192.726 301.122 192.726C301.642 192.726 301.762 192.606 301.762 192.086C301.762 192.086 301.762 186.806 301.762 186.566C301.762 186.326 301.842 186.086 302.002 186.046L303.922 185.286C304.162 185.286 304.242 185.366 304.242 185.606C304.242 185.926 304.242 190.846 304.242 190.846C304.242 191.406 304.362 191.486 304.882 191.486C305.402 191.486 305.522 191.366 305.522 190.846C305.522 190.846 305.522 185.486 305.522 185.166C305.522 184.846 305.682 184.606 305.922 184.526L307.362 184.006C307.442 183.966 307.522 183.926 307.602 183.926C307.762 183.926 307.842 184.046 307.842 184.246C307.842 184.526 307.842 189.606 307.842 189.606C307.842 190.166 307.962 190.246 308.482 190.246C309.002 190.246 309.122 190.126 309.122 189.606C309.122 189.606 309.122 183.926 309.122 183.686C309.122 183.446 309.322 183.246 309.442 183.206C309.562 183.166 310.842 182.686 310.842 182.686C311.042 182.606 311.162 182.526 311.162 182.366L311.162 179.246C311.162 179.126 311.082 178.926 310.922 178.926C310.842 178.926 309.802 179.326 309.562 179.446C309.522 179.446 309.482 179.486 309.442 179.486C309.242 179.486 309.122 179.286 309.122 179.006L309.122 174.326C309.122 174.046 309.162 173.886 309.362 173.806C309.522 173.766 310.842 173.246 310.842 173.246ZM301.762 182.366C301.642 182.206 301.642 181.246 301.642 180.166C301.642 178.686 301.682 176.966 301.762 176.686C301.882 176.326 303.482 175.686 304.042 175.686C304.162 175.686 304.202 175.726 304.242 175.766C304.322 175.886 304.362 177.006 304.362 178.246C304.362 179.646 304.322 181.206 304.242 181.446C304.122 181.846 302.602 182.446 302.002 182.446C301.882 182.446 301.802 182.406 301.762 182.366ZM307.842 180.086C307.722 180.406 306.442 181.006 305.882 181.006C305.762 181.006 305.682 180.966 305.642 180.926C305.562 180.806 305.522 179.606 305.522 178.326C305.522 176.926 305.562 175.446 305.642 175.246C305.802 174.926 307.242 174.326 307.722 174.326C307.762 174.326 307.842 174.366 307.842 174.366C307.922 174.486 307.962 175.526 307.962 176.686C307.962 178.166 307.922 179.886 307.842 180.086Z"></path></g><line stroke="#000000" stroke-width="1.2" x1="325.88210075772207" x2="325.88210075772207" y1="177.0061538461538" y2="139.0061538461538"></line></g></g><g transform="translate(484.3224881897833)"><g><g><line stroke="#6A6A6A" stroke-width="1.3" x1="-16.600000000000023" x2="293.9725343436295" y1="183.8461538461538" y2="183.8461538461538"></line><line stroke="#6A6A6A" stroke-width="1.3" x1="-16.600000000000023" x2="293.9725343436295" y1="173.8461538461538" y2="173.8461538461538"></line><line stroke="#6A6A6A" stroke-width="1.3" x1="-16.600000000000023" x2="293.9725343436295" y1="163.8461538461538" y2="163.8461538461538"></line><line stroke="#6A6A6A" stroke-width="1.3" x1="-16.600000000000023" x2="293.9725343436295" y1="153.8461538461538" y2="153.8461538461538"></line><line stroke="#6A6A6A" stroke-width="1.3" x1="-16.600000000000023" x2="293.9725343436295" y1="143.8461538461538" y2="143.8461538461538"></line></g></g><g><line stroke="#000000" stroke-width="1.6" x1="284.1725343436294" x2="284.1725343436294" y1="143.8461538461538" y2="183.8461538461538"></line><line stroke="#000000" stroke-width="5" x1="291.47253434362943" x2="291.47253434362943" y1="143.8461538461538" y2="183.8461538461538"></line></g><g><g><path d="M19.456 164.486C23.456 164.486 28.376 160.766 28.376 156.966C28.376 154.686 26.576 153.206 23.976 153.206C19.056 153.206 15.096 156.846 15.096 160.726C15.096 163.086 17.016 164.486 19.456 164.486Z"></path><path d="M2.456 165.766C2.456 165.766 2.536 165.846 2.656 165.846C2.736 165.846 2.896 165.806 3.016 165.646C3.336 165.246 3.536 142.406 3.536 142.406C3.496 141.686 2.816 141.326 2.256 141.326C1.856 141.326 1.496 141.526 1.496 141.966L1.816 153.246C1.816 153.566 1.656 153.846 1.376 153.926C1.296 153.966 1.256 153.966 1.176 153.966C0.856 153.966 0.576 153.606 0.256 153.406C-0.144 153.166-0.584 153.006-0.984 152.846C-1.024 152.846-1.064 152.806-1.104 152.806C-1.384 152.766-1.624 152.726-1.904 152.726C-3.784 152.806-5.544 154.326-5.544 156.526C-5.544 158.406-4.264 160.846-0.664 163.366C0.256 164.006 1.216 165.126 2.456 165.766ZM1.696 156.846C1.736 157.006 1.776 157.486 1.776 158.126C1.776 159.686 1.656 162.046 1.656 162.046C1.656 162.286 1.576 162.686 1.216 162.686C1.096 162.686 0.976 162.646 0.816 162.566C-0.424 161.766-1.544 160.526-2.104 159.566C-2.544 158.726-2.744 157.886-2.744 157.166C-2.744 156.406-2.504 155.726-2.144 155.286C-1.864 155.006-1.504 154.846-1.104 154.846C-0.784 154.846-0.464 154.926-0.064 155.126C0.496 155.446 1.536 156.286 1.696 156.846ZM4.496 165.646C4.616 165.806 4.736 165.846 4.856 165.846C4.976 165.846 5.096 165.766 5.096 165.766C6.296 165.126 7.296 164.006 8.216 163.326C11.776 160.846 13.056 158.406 13.056 156.526C13.056 154.286 11.256 152.806 9.456 152.726C9.176 152.726 8.936 152.766 8.656 152.806C8.176 152.966 7.736 153.126 7.296 153.406C6.976 153.606 6.696 153.966 6.376 153.966C6.296 153.966 6.256 153.966 6.176 153.926C5.896 153.846 5.736 153.566 5.736 153.246L6.056 141.966C6.056 141.486 5.696 141.286 5.296 141.286C4.736 141.286 4.056 141.686 4.016 142.406C4.016 142.406 4.176 165.246 4.496 165.646ZM5.896 162.046C5.896 162.046 5.776 159.686 5.776 158.126C5.776 157.486 5.816 157.006 5.856 156.846C6.016 156.286 7.056 155.446 7.656 155.126C8.016 154.926 8.376 154.846 8.696 154.846C9.096 154.846 9.456 155.006 9.696 155.286C10.056 155.726 10.256 156.366 10.256 157.166C10.256 157.886 10.096 158.726 9.656 159.566C9.096 160.526 7.936 161.766 6.696 162.566C6.536 162.646 6.456 162.686 6.336 162.686C6.016 162.686 5.896 162.286 5.896 162.046Z"></path></g><line stroke="#000000" stroke-width="1.2" x1="15.696399999999999" x2="15.696399999999999" y1="160.68615384615381" y2="198.68615384615381"></line></g><g><g><path d="M88.248 159.486C92.248 159.486 97.168 155.766 97.168 151.966C97.168 149.686 95.368 148.206 92.768 148.206C87.848 148.206 83.888 151.846 83.888 155.726C83.888 158.086 85.808 159.486 88.248 159.486Z"></path><path d="M81.368 160.646C81.688 160.246 81.848 137.406 81.848 137.406C81.808 136.686 81.168 136.286 80.608 136.286C80.208 136.286 79.848 136.526 79.848 136.966C79.848 137.766 80.088 147.366 80.128 148.246C80.128 148.526 79.968 148.806 79.688 148.926C79.608 148.966 79.568 148.966 79.488 148.966C79.128 148.966 78.848 148.606 78.608 148.406C78.168 148.126 77.688 147.966 77.248 147.846C76.968 147.766 76.688 147.726 76.408 147.726C74.568 147.846 72.808 149.286 72.808 151.486C72.808 153.406 74.048 155.846 77.608 158.326C78.608 159.006 79.568 160.086 80.768 160.766C80.768 160.766 80.888 160.846 81.008 160.846C81.128 160.846 81.248 160.806 81.368 160.646ZM79.968 157.086C79.968 157.286 79.888 157.686 79.528 157.686C79.408 157.686 79.288 157.646 79.128 157.566C77.928 156.806 76.768 155.526 76.248 154.566C75.768 153.726 75.568 152.886 75.568 152.166C75.568 151.406 75.808 150.726 76.208 150.286C76.448 150.006 76.808 149.846 77.208 149.846C77.528 149.846 77.888 149.926 78.248 150.126C78.808 150.446 79.848 151.326 80.008 151.806C80.048 151.966 80.088 152.446 80.088 153.086C80.088 154.686 79.968 157.086 79.968 157.086Z"></path></g><line stroke="#000000" stroke-width="1.2" x1="84.48823358590735" x2="84.48823358590735" y1="155.68615384615381" y2="190.68615384615381"></line></g><g><g><path d="M155.638 154.486C159.638 154.486 164.558 150.766 164.558 146.966C164.558 144.686 162.758 143.206 160.158 143.206C155.238 143.206 151.278 146.846 151.278 150.726C151.278 153.086 153.198 154.486 155.638 154.486Z"></path><path d="M149.238 142.166C149.238 141.966 149.078 141.846 148.918 141.846C148.878 141.846 148.798 141.846 148.758 141.886C148.758 141.886 146.838 142.606 146.758 142.606C146.398 142.606 146.238 142.166 146.238 141.806L146.238 137.006C146.238 136.766 145.998 136.566 145.678 136.566C145.078 136.566 144.998 136.926 144.998 137.246L144.998 140.926L144.998 142.446C144.998 142.766 144.878 143.246 144.598 143.486C143.878 143.766 143.238 144.086 142.558 144.366C142.318 144.446 142.078 144.766 142.078 145.006L142.078 147.846C142.078 148.086 142.198 148.206 142.398 148.206C142.438 148.206 142.518 148.166 142.558 148.166C142.558 148.166 144.118 147.486 144.438 147.366C144.478 147.366 144.518 147.326 144.558 147.326C144.798 147.326 145.038 147.686 145.038 148.006L145.038 152.006C145.038 152.446 144.878 152.806 144.638 152.886C144.358 153.006 142.558 153.766 142.558 153.766C142.318 153.846 142.078 154.166 142.078 154.406L142.078 157.246C142.078 157.486 142.198 157.606 142.398 157.606C142.438 157.606 142.518 157.566 142.558 157.566C142.558 157.566 144.078 156.926 144.438 156.766L144.438 156.766C144.638 156.686 144.998 157.206 144.998 157.526L144.998 162.526C144.998 162.766 145.238 162.966 145.558 162.966C146.158 162.966 146.238 162.686 146.238 162.286L146.238 156.766C146.238 156.646 146.238 156.566 146.278 156.446C146.318 156.206 146.478 155.966 146.638 155.886C146.958 155.806 148.758 155.086 148.758 155.086C148.998 155.006 149.238 154.686 149.238 154.446L149.238 151.606C149.238 151.366 149.118 151.246 148.918 151.246C148.878 151.246 148.798 151.286 148.758 151.286C148.758 151.286 146.918 152.006 146.758 152.046C146.478 152.046 146.198 151.806 146.198 151.366L146.198 147.646C146.198 147.326 146.398 146.606 146.718 146.486C147.078 146.326 148.758 145.686 148.758 145.686C148.998 145.566 149.238 145.286 149.238 145.006Z"></path></g><line stroke="#000000" stroke-width="1.2" x1="151.8784671718147" x2="151.8784671718147" y1="150.68615384615381" y2="188.68615384615381"></line></g><g><g><path d="M227.058 149.486C231.058 149.486 235.978 145.766 235.978 141.966C235.978 139.686 234.178 138.206 231.578 138.206C226.658 138.206 222.698 141.846 222.698 145.726C222.698 148.086 224.618 149.486 227.058 149.486Z"></path><path d="M220.338 138.246C220.538 138.206 220.658 138.086 220.658 137.926L220.658 134.846C220.658 134.686 220.578 134.526 220.418 134.526C220.338 134.526 219.098 134.966 218.898 135.046C218.858 135.086 218.818 135.086 218.778 135.086C218.698 135.086 218.618 135.006 218.618 134.806C218.618 134.526 218.618 129.726 218.618 129.726C218.618 129.166 218.498 129.086 217.978 129.086C217.458 129.086 217.338 129.206 217.338 129.726C217.338 129.726 217.338 134.486 217.338 135.006C217.338 135.526 217.258 135.686 217.018 135.766C216.858 135.846 215.938 136.166 215.418 136.406C215.098 136.406 215.018 136.246 215.018 136.046C215.018 135.806 215.018 130.966 215.018 130.966C215.018 130.406 214.898 130.326 214.378 130.326C213.858 130.326 213.738 130.446 213.738 130.966C213.738 130.966 213.738 136.246 213.738 136.526C213.738 136.806 213.658 137.046 213.378 137.166L211.658 137.806C211.618 137.806 211.578 137.846 211.538 137.846C211.378 137.846 211.258 137.726 211.258 137.486C211.258 137.246 211.258 132.166 211.258 132.166C211.258 131.646 211.138 131.526 210.618 131.526C210.098 131.526 209.978 131.646 209.978 132.166C209.978 132.166 209.978 137.566 209.978 137.966C209.978 138.366 209.858 138.486 209.658 138.566C209.458 138.646 208.418 139.046 208.418 139.046C208.218 139.126 208.098 139.206 208.098 139.366L208.098 142.446C208.098 142.606 208.218 142.766 208.338 142.766C208.418 142.766 209.258 142.486 209.578 142.326C209.658 142.286 209.698 142.286 209.738 142.286C209.938 142.286 209.978 142.446 209.978 142.686L209.978 147.326C209.978 147.646 209.778 147.926 209.578 148.006C209.378 148.086 208.418 148.446 208.418 148.446C208.218 148.526 208.098 148.606 208.098 148.766L208.098 151.886C208.098 152.046 208.218 152.206 208.378 152.206C208.418 152.206 209.098 151.926 209.458 151.806C209.538 151.766 209.618 151.766 209.698 151.766C209.898 151.766 209.978 151.886 209.978 152.126C209.978 152.486 209.978 157.086 209.978 157.086C209.978 157.606 210.098 157.726 210.618 157.726C211.138 157.726 211.258 157.606 211.258 157.086C211.258 157.086 211.258 151.806 211.258 151.566C211.258 151.326 211.338 151.086 211.498 151.046L213.418 150.286C213.658 150.286 213.738 150.366 213.738 150.606C213.738 150.926 213.738 155.846 213.738 155.846C213.738 156.406 213.858 156.486 214.378 156.486C214.898 156.486 215.018 156.366 215.018 155.846C215.018 155.846 215.018 150.486 215.018 150.166C215.018 149.846 215.178 149.606 215.418 149.526L216.858 149.006C216.938 148.966 217.018 148.926 217.098 148.926C217.258 148.926 217.338 149.046 217.338 149.246C217.338 149.526 217.338 154.606 217.338 154.606C217.338 155.166 217.458 155.246 217.978 155.246C218.498 155.246 218.618 155.126 218.618 154.606C218.618 154.606 218.618 148.926 218.618 148.686C218.618 148.446 218.818 148.246 218.938 148.206C219.058 148.166 220.338 147.686 220.338 147.686C220.538 147.606 220.658 147.526 220.658 147.366L220.658 144.246C220.658 144.126 220.578 143.926 220.418 143.926C220.338 143.926 219.298 144.326 219.058 144.446C219.018 144.446 218.978 144.486 218.938 144.486C218.738 144.486 218.618 144.286 218.618 144.006L218.618 139.326C218.618 139.046 218.658 138.886 218.858 138.806C219.018 138.766 220.338 138.246 220.338 138.246ZM211.258 147.366C211.138 147.206 211.138 146.246 211.138 145.166C211.138 143.686 211.178 141.966 211.258 141.686C211.378 141.326 212.978 140.686 213.538 140.686C213.658 140.686 213.698 140.726 213.738 140.766C213.818 140.886 213.858 142.006 213.858 143.246C213.858 144.646 213.818 146.206 213.738 146.446C213.618 146.846 212.098 147.446 211.498 147.446C211.378 147.446 211.298 147.406 211.258 147.366ZM217.338 145.086C217.218 145.406 215.938 146.006 215.378 146.006C215.258 146.006 215.178 145.966 215.138 145.926C215.058 145.806 215.018 144.606 215.018 143.326C215.018 141.926 215.058 140.446 215.138 140.246C215.298 139.926 216.738 139.326 217.218 139.326C217.258 139.326 217.338 139.366 217.338 139.366C217.418 139.486 217.458 140.526 217.458 141.686C217.458 143.166 217.418 144.886 217.338 145.086Z"></path></g><line stroke="#000000" stroke-width="1.2" x1="223.29830075772205" x2="223.29830075772205" y1="145.68615384615381" y2="180.68615384615381"></line></g></g></svg>