<?xml version="1.0" encoding="UTF-8" standalone="no"?><svg xmlns="http://www.w3.org/2000/svg" class="" height="279.4mm" viewBox="0 0 1328.6153846153845 1719.3846153846152" width="215.9mm"><g><g><g><line stroke="#6A6A6A" stroke-width="1.3" x1="93.84615384615385" x2="832.5257665300071" y1="183.8461538461538" y2="183.8461538461538"></line><line stroke="#6A6A6A" stroke-width="1.3" x1="93.84615384615385" x2="832.5257665300071" y1="173.8461538461538" y2="173.8461538461538"></line><line stroke="#6A6A6A" stroke-width="1.3" x1="93.84615384615385" x2="832.5257665300071" y1="163.8461538461538" y2="163.8461538461538"></line><line stroke="#6A6A6A" stroke-width="1.3" x1="93.84615384615385" x2="832.5257665300071" y1="153.8461538461538" y2="153.8461538461538"></line><line stroke="#6A6A6A" stroke-width="1.3" x1="93.84615384615385" x2="832.5257665300071" y1="143.8461538461538" y2="143.8461538461538"></line></g><g><path d="M119.046 129.926C118.486 129.926 117.246 130.966 116.446 131.846C113.486 135.126 112.526 140.126 112.526 144.286C112.526 146.606 112.806 149.206 113.086 150.846C113.166 151.326 113.206 151.406 112.726 151.806C110.166 153.926 107.406 156.366 105.326 158.926C102.566 162.366 100.846 166.086 100.846 170.366C100.846 177.326 105.606 183.926 115.406 183.926C116.326 183.926 117.366 183.846 118.166 183.686C118.606 183.606 118.686 183.566 118.766 184.046C119.246 186.726 119.846 190.206 119.846 192.086C119.846 198.006 115.846 198.726 113.486 198.726C111.326 198.726 110.286 198.086 110.286 197.566C110.286 197.126 110.646 197.166 111.566 196.886C112.806 196.526 114.246 195.446 114.246 193.126C114.246 190.926 112.846 189.046 110.406 189.046C107.726 189.046 106.126 191.166 106.126 193.646C106.126 196.246 107.686 200.166 113.726 200.166C116.406 200.166 121.606 198.966 121.606 192.166C121.606 189.886 120.886 186.086 120.446 183.606C120.366 183.126 120.406 183.166 120.966 182.926C125.006 181.326 127.686 177.926 127.686 173.406C127.686 168.286 123.926 163.766 118.046 163.766C116.926 163.766 117.046 163.966 116.886 163.046L115.886 157.246C115.806 156.766 115.886 156.726 116.126 156.486C116.766 155.886 117.606 155.046 118.366 154.206C121.726 150.526 123.726 145.766 123.726 141.246C123.726 137.766 122.766 134.326 121.126 131.926C120.526 131.046 119.486 129.926 119.046 129.926ZM113.886 158.086C114.286 157.766 114.366 157.806 114.446 158.246L115.286 163.366C115.406 164.126 115.406 164.086 114.686 164.326C111.166 165.526 108.886 168.686 108.886 172.086C108.886 175.686 110.766 178.246 113.486 179.166C113.806 179.286 114.286 179.406 114.566 179.406C114.886 179.406 115.046 179.206 115.046 178.966C115.046 178.686 114.726 178.566 114.446 178.446C112.766 177.726 111.566 176.006 111.566 174.166C111.566 171.886 113.126 170.166 115.566 169.486C116.206 169.326 116.286 169.366 116.366 169.806L118.366 181.726C118.446 182.166 118.406 182.166 117.806 182.286C117.166 182.406 116.366 182.486 115.566 182.486C108.566 182.486 104.046 178.606 104.046 173.046C104.046 170.686 104.446 167.526 107.766 163.766C110.166 161.086 112.006 159.606 113.886 158.086ZM118.486 169.166C121.726 169.446 124.406 172.166 124.406 175.686C124.406 178.206 122.886 180.246 120.646 181.366C120.166 181.606 120.086 181.606 120.006 181.126L118.046 169.726C117.966 169.246 118.006 169.126 118.486 169.166ZM119.646 136.126C120.966 136.126 122.046 137.206 122.046 139.406C122.046 142.166 120.726 144.726 117.606 147.846C116.966 148.486 116.006 149.406 115.086 150.206C114.806 150.446 114.646 150.406 114.566 149.886C114.406 148.846 114.326 147.486 114.326 146.206C114.326 139.966 117.206 136.126 119.646 136.126Z"></path></g><g></g><g><g><path d="M151.906 149.846C152.386 150.326 153.066 150.526 153.706 150.526C154.026 150.526 154.386 150.446 154.706 150.366C155.946 150.046 156.906 148.766 156.906 147.486C156.906 147.326 156.906 147.206 156.866 147.046C156.666 145.726 155.546 144.766 154.346 144.326C153.386 143.926 152.226 143.806 151.186 143.806C148.146 143.846 145.306 145.326 143.866 148.046C142.986 149.726 142.306 151.846 142.306 153.726L142.306 153.886C142.346 155.726 142.666 157.806 143.546 159.406C144.386 160.926 145.746 162.566 147.306 163.246C148.306 163.686 149.506 163.806 150.506 163.806C152.306 163.806 154.306 163.526 155.746 162.366C157.146 161.246 158.066 159.446 158.066 157.646C158.066 157.446 158.026 157.286 158.026 157.086C157.866 155.446 156.866 154.046 155.586 153.086C154.506 152.286 153.266 151.846 152.026 151.846C150.746 151.846 149.426 152.326 148.386 153.246C148.306 153.326 148.226 153.326 148.146 153.326C147.906 153.326 147.786 153.006 147.786 152.366C147.906 144.966 150.266 144.766 151.106 144.766C151.906 144.766 152.426 144.966 152.426 145.366C152.426 145.926 151.666 146.406 151.426 146.886C151.226 147.246 151.146 147.646 151.146 148.046C151.146 148.646 151.346 149.246 151.746 149.686C151.786 149.766 151.866 149.806 151.906 149.846ZM150.386 153.766C151.666 153.766 152.746 155.766 152.746 158.246C152.746 160.726 151.666 162.726 150.386 162.726C149.106 162.726 148.066 160.726 148.066 158.246C148.066 155.766 149.106 153.766 150.386 153.766Z"></path></g><g><path d="M159.026 176.806L156.106 176.806L156.106 168.246C156.106 167.926 156.066 167.566 155.626 167.566C155.266 167.566 155.066 167.646 154.826 167.926L151.026 172.526C150.866 172.726 150.666 172.966 150.666 173.446C150.666 173.446 150.666 175.046 150.666 176.806L145.266 176.806C148.466 174.086 154.866 165.006 154.986 164.566C154.986 164.486 155.026 164.446 155.026 164.366C155.026 164.046 154.746 163.806 154.426 163.806C154.066 163.806 152.426 163.886 151.706 163.886C150.986 163.886 149.186 163.806 148.866 163.806C148.506 163.806 147.946 163.926 147.946 164.566C147.946 169.526 144.026 175.086 142.826 176.766L142.586 177.086C142.586 177.126 142.546 177.166 142.546 177.206C142.466 177.366 142.426 177.526 142.426 177.646C142.426 178.046 142.746 178.326 143.226 178.326L150.666 178.326L150.666 180.846C150.666 181.926 149.786 182.246 149.066 182.246C148.426 182.246 148.146 182.606 148.146 183.006C148.146 183.406 148.306 183.846 148.906 183.846C149.546 183.846 157.426 183.846 157.426 183.846C157.826 183.846 158.226 183.566 158.226 183.006C158.226 182.446 157.746 182.206 157.346 182.206C156.946 182.206 156.106 181.966 156.106 180.686L156.106 178.326C157.826 178.326 159.026 178.326 159.026 178.326C159.426 178.326 159.626 178.046 159.626 177.566C159.626 177.086 159.466 176.806 159.026 176.806Z"></path></g></g></g><g><line stroke="#000000" stroke-width="1.6" x1="822.725766530007" x2="822.725766530007" y1="143.8461538461538" y2="183.8461538461538"></line><line stroke="#000000" stroke-width="5" x1="830.0257665300071" x2="830.0257665300071" y1="143.8461538461538" y2="183.8461538461538"></line></g><g><g><path d="M187.206 179.486C191.206 179.486 196.126 175.766 196.126 171.966C196.126 169.686 194.326 168.206 191.726 168.206C186.806 168.206 182.846 171.846 182.846 175.726C182.846 178.086 184.766 179.486 187.206 179.486Z"></path></g><line stroke="#000000" stroke-width="1.2" x1="195.52615384615387" x2="195.52615384615387" y1="172.0061538461538" y2="137.0061538461538"></line><text font-family="Alegreya" font-size="22" text-anchor="middle" x="189.48615384615385" y="223.8461538461538">Verse1A</text><text font-family="Alegreya" font-size="22" text-anchor="middle" x="189.48615384615385" y="223.8461538461538">Chorus1A</text><text font-family="Alegreya" font-size="22" text-anchor="middle" x="189.48615384615385" y="223.8461538461538">AnotherChorus1A</text><text font-family="Alegreya" font-size="22" text-anchor="middle" x="189.48615384615385" y="223.8461538461538">Chorus1A</text></g><g><g><path d="M320.487 179.486C324.487 179.486 329.407 175.766 329.407 171.966C329.407 169.686 327.607 168.206 325.007 168.206C320.087 168.206 316.127 171.846 316.127 175.726C316.127 178.086 318.047 179.486 320.487 179.486Z"></path></g><line stroke="#000000" stroke-width="1.2" x1="328.80692262679605" x2="328.80692262679605" y1="172.0061538461538" y2="137.0061538461538"></line><text font-family="Alegreya" font-size="22" text-anchor="middle" x="322.76692262679603" y="223.8461538461538">1B</text><text font-family="Alegreya" font-size="22" text-anchor="middle" x="322.76692262679603" y="223.8461538461538">2B</text></g><g><g><path d="M418.436 179.486C422.436 179.486 427.356 175.766 427.356 171.966C427.356 169.686 425.556 168.206 422.956 168.206C418.036 168.206 414.076 171.846 414.076 175.726C414.076 178.086 415.996 179.486 418.436 179.486Z"></path></g><line stroke="#000000" stroke-width="1.2" x1="426.7556914074383" x2="426.7556914074383" y1="172.0061538461538" y2="137.0061538461538"></line><text font-family="Alegreya" font-size="22" text-anchor="middle" x="420.71569140743827" y="223.8461538461538">Verse1C</text><text font-family="Alegreya" font-size="22" text-anchor="middle" x="420.71569140743827" y="223.8461538461538">Chorus2C</text></g><g><g><path d="M547.910 179.486C551.910 179.486 556.830 175.766 556.830 171.966C556.830 169.686 555.030 168.206 552.430 168.206C547.510 168.206 543.550 171.846 543.550 175.726C543.550 178.086 545.470 179.486 547.910 179.486Z"></path></g><line stroke="#000000" stroke-width="1.2" x1="556.2304601880804" x2="556.2304601880804" y1="172.0061538461538" y2="137.0061538461538"></line><text font-family="Alegreya" font-size="22" text-anchor="middle" x="550.1904601880805" y="223.8461538461538">Chorus1D</text></g><g><g><path d="M664.504 179.486C668.504 179.486 673.424 175.766 673.424 171.966C673.424 169.686 671.624 168.206 669.024 168.206C664.104 168.206 660.144 171.846 660.144 175.726C660.144 178.086 662.064 179.486 664.504 179.486Z"></path></g><line stroke="#000000" stroke-width="1.2" x1="672.8242289687227" x2="672.8242289687227" y1="172.0061538461538" y2="137.0061538461538"></line><text font-family="Alegreya" font-size="22" text-anchor="middle" x="666.7842289687227" y="223.8461538461538">VerseE</text></g><g><g><path d="M768.844 179.486C772.844 179.486 777.764 175.766 777.764 171.966C777.764 169.686 775.964 168.206 773.364 168.206C768.444 168.206 764.484 171.846 764.484 175.726C764.484 178.086 766.404 179.486 768.844 179.486Z"></path></g><line stroke="#000000" stroke-width="1.2" x1="777.1639977493649" x2="777.1639977493649" y1="172.0061538461538" y2="137.0061538461538"></line><text font-family="Alegreya" font-size="22" text-anchor="middle" x="771.1239977493649" y="223.8461538461538">NoneF</text></g></g></svg>