<?xml version="1.0" encoding="UTF-8" standalone="no"?><svg xmlns="http://www.w3.org/2000/svg" class="" height="279.4mm" viewBox="0 0 1328.6153846153845 1719.3846153846152" width="215.9mm"><g><g><g><line stroke="#6A6A6A" stroke-width="1.3" x1="93.84615384615385" x2="585.1539795880049" y1="183.8461538461538" y2="183.8461538461538"></line><line stroke="#6A6A6A" stroke-width="1.3" x1="93.84615384615385" x2="585.1539795880049" y1="173.8461538461538" y2="173.8461538461538"></line><line stroke="#6A6A6A" stroke-width="1.3" x1="93.84615384615385" x2="585.1539795880049" y1="163.8461538461538" y2="163.8461538461538"></line><line stroke="#6A6A6A" stroke-width="1.3" x1="93.84615384615385" x2="585.1539795880049" y1="153.8461538461538" y2="153.8461538461538"></line><line stroke="#6A6A6A" stroke-width="1.3" x1="93.84615384615385" x2="585.1539795880049" y1="143.8461538461538" y2="143.8461538461538"></line></g><g><path d="M119.046 129.926C118.486 129.926 117.246 130.966 116.446 131.846C113.486 135.126 112.526 140.126 112.526 144.286C112.526 146.606 112.806 149.206 113.086 150.846C113.166 151.326 113.206 151.406 112.726 151.806C110.166 153.926 107.406 156.366 105.326 158.926C102.566 162.366 100.846 166.086 100.846 170.366C100.846 177.326 105.606 183.926 115.406 183.926C116.326 183.926 117.366 183.846 118.166 183.686C118.606 183.606 118.686 183.566 118.766 184.046C119.246 186.726 119.846 190.206 119.846 192.086C119.846 198.006 115.846 198.726 113.486 198.726C111.326 198.726 110.286 198.086 110.286 197.566C110.286 197.126 110.646 197.166 111.566 196.886C112.806 196.526 114.246 195.446 114.246 193.126C114.246 190.926 112.846 189.046 110.406 189.046C107.726 189.046 106.126 191.166 106.126 193.646C106.126 196.246 107.686 200.166 113.726 200.166C116.406 200.166 121.606 198.966 121.606 192.166C121.606 189.886 120.886 186.086 120.446 183.606C120.366 183.126 120.406 183.166 120.966 182.926C125.006 181.326 127.686 177.926 127.686 173.406C127.686 168.286 123.926 163.766 118.046 163.766C116.926 163.766 117.046 163.966 116.886 163.046L115.886 157.246C115.806 156.766 115.886 156.726 116.126 156.486C116.766 155.886 117.606 155.046 118.366 154.206C121.726 150.526 123.726 145.766 123.726 141.246C123.726 137.766 122.766 134.326 121.126 131.926C120.526 131.046 119.486 129.926 119.046 129.926ZM113.886 158.086C114.286 157.766 114.366 157.806 114.446 158.246L115.286 163.366C115.406 164.126 115.406 164.086 114.686 164.326C111.166 165.526 108.886 168.686 108.886 172.086C108.886 175.686 110.766 178.246 113.486 179.166C113.806 179.286 114.286 179.406 114.566 179.406C114.886 179.406 115.046 179.206 115.046 178.966C115.046 178.686 114.726 178.566 114.446 178.446C112.766 177.726 111.566 176.006 111.566 174.166C111.566 171.886 113.126 170.166 115.566 169.486C116.206 169.326 116.286 169.366 116.366 169.806L118.366 181.726C118.446 182.166 118.406 182.166 117.806 182.286C117.166 182.406 116.366 182.486 115.566 182.486C108.566 182.486 104.046 178.606 104.046 173.046C104.046 170.686 104.446 167.526 107.766 163.766C110.166 161.086 112.006 159.606 113.886 158.086ZM118.486 169.166C121.726 169.446 124.406 172.166 124.406 175.686C124.406 178.206 122.886 180.246 120.646 181.366C120.166 181.606 120.086 181.606 120.006 181.126L118.046 169.726C117.966 169.246 118.006 169.126 118.486 169.166ZM119.646 136.126C120.966 136.126 122.046 137.206 122.046 139.406C122.046 142.166 120.726 144.726 117.606 147.846C116.966 148.486 116.006 149.406 115.086 150.206C114.806 150.446 114.646 150.406 114.566 149.886C114.406 148.846 114.326 147.486 114.326 146.206C114.326 139.966 117.206 136.126 119.646 136.126Z"></path></g><g></g><g><path d="M150.226 153.926C150.026 153.926 149.826 153.886 149.626 153.886C146.186 153.886 142.746 156.166 142.746 158.286C142.746 159.606 143.506 161.366 145.986 161.526L146.186 161.526C147.946 161.526 148.826 160.246 148.826 158.926L148.826 158.606C148.706 157.126 147.706 157.046 147.506 156.966C147.306 156.886 146.706 156.966 146.706 156.406L146.706 156.246C146.786 155.566 148.026 155.246 148.386 155.246C151.786 155.246 152.106 157.366 152.106 158.326L152.106 158.606C152.106 161.566 149.746 162.726 147.226 162.846C146.826 162.886 146.266 163.086 146.266 163.526C146.266 164.006 146.946 164.006 147.266 164.006C151.866 164.006 152.226 167.126 152.226 167.646C152.226 171.886 150.066 172.366 149.186 172.366C149.026 172.366 148.866 172.326 148.826 172.326C148.506 172.286 147.746 172.286 147.706 171.686L147.706 171.486C147.706 170.606 148.586 170.006 148.626 168.846C148.626 168.446 148.586 168.006 148.426 167.606C147.986 166.606 146.826 165.966 145.746 165.966C145.586 165.966 145.466 165.966 145.306 166.006C144.626 166.126 143.866 166.526 143.386 167.046C142.706 167.646 142.506 168.606 142.506 169.486C142.586 172.606 145.426 173.806 149.346 173.886L149.706 173.886C153.666 173.886 157.746 171.846 157.746 168.326L157.746 168.046C157.706 167.486 157.626 166.926 157.386 166.406C157.226 166.006 156.946 165.606 156.626 165.246C156.386 164.926 156.066 164.646 155.666 164.406L154.826 163.926L153.506 163.566C153.306 163.526 153.186 163.526 153.106 163.366C153.066 163.286 153.066 163.246 153.066 163.166C153.066 163.006 153.106 162.846 153.226 162.806C153.666 162.686 154.106 162.646 154.466 162.446C155.066 162.166 155.586 161.886 156.026 161.366C156.666 160.646 156.906 159.726 156.906 158.806C156.906 155.126 151.906 154.046 150.226 153.926Z"></path></g></g><g><line stroke="#000000" stroke-width="1.6" x1="575.3539795880048" x2="575.3539795880048" y1="143.8461538461538" y2="183.8461538461538"></line><line stroke="#000000" stroke-width="5" x1="582.6539795880049" x2="582.6539795880049" y1="143.8461538461538" y2="183.8461538461538"></line></g><g><g><path d="M187.206 169.486C191.206 169.486 196.126 165.766 196.126 161.966C196.126 159.686 194.326 158.206 191.726 158.206C186.806 158.206 182.846 161.846 182.846 165.726C182.846 168.086 184.766 169.486 187.206 169.486Z"></path></g><line stroke="#000000" stroke-width="1.2" x1="183.44615384615386" x2="183.44615384615386" y1="165.68615384615381" y2="200.68615384615381"></line><path d="M192.446 175.806C193.006 177.486 193.286 179.486 193.286 181.286C193.286 183.646 192.286 187.006 191.686 188.366C190.206 191.726 188.206 194.966 182.846 196.766L182.846 206.166C182.846 206.646 183.046 206.766 183.286 206.766C184.046 206.766 184.366 206.526 184.446 205.886C185.126 202.086 188.086 198.606 190.126 195.446C192.646 191.486 195.086 186.726 195.086 181.726C195.086 178.606 194.286 175.766 193.966 174.486C193.646 173.206 191.846 174.086 192.446 175.806Z"></path></g><g><g><path d="M317.775 169.486C321.775 169.486 326.695 165.766 326.695 161.966C326.695 159.686 324.895 158.206 322.295 158.206C317.375 158.206 313.415 161.846 313.415 165.726C313.415 168.086 315.335 169.486 317.775 169.486Z"></path></g><line stroke="#000000" stroke-width="1.2" x1="314.01542909343755" x2="314.01542909343755" y1="165.68615384615381" y2="200.68615384615381"></line><path d="M323.015 175.806C323.575 177.486 323.855 179.486 323.855 181.286C323.855 183.646 322.855 187.006 322.255 188.366C320.775 191.726 318.775 194.966 313.415 196.766L313.415 206.166C313.415 206.646 313.615 206.766 313.855 206.766C314.615 206.766 314.935 206.526 315.015 205.886C315.695 202.086 318.655 198.606 320.695 195.446C323.215 191.486 325.655 186.726 325.655 181.726C325.655 178.606 324.855 175.766 324.535 174.486C324.215 173.206 322.415 174.086 323.015 175.806Z"></path></g><g><g><path d="M448.345 169.486C452.345 169.486 457.265 165.766 457.265 161.966C457.265 159.686 455.465 158.206 452.865 158.206C447.945 158.206 443.985 161.846 443.985 165.726C443.985 168.086 445.905 169.486 448.345 169.486Z"></path></g><line stroke="#000000" stroke-width="1.2" x1="444.58470434072126" x2="444.58470434072126" y1="165.68615384615381" y2="200.68615384615381"></line><path d="M453.585 175.806C454.145 177.486 454.425 179.486 454.425 181.286C454.425 183.646 453.425 187.006 452.825 188.366C451.345 191.726 449.345 194.966 443.985 196.766L443.985 206.166C443.985 206.646 444.185 206.766 444.425 206.766C445.185 206.766 445.505 206.526 445.585 205.886C446.265 202.086 449.225 198.606 451.265 195.446C453.785 191.486 456.225 186.726 456.225 181.726C456.225 178.606 455.425 175.766 455.105 174.486C454.785 173.206 452.985 174.086 453.585 175.806Z"></path></g></g></svg>