<?xml version="1.0" encoding="UTF-8" standalone="no"?><svg xmlns="http://www.w3.org/2000/svg" height="279.4mm" viewBox="0 0 1328.6153846153845 1719.3846153846152" width="215.9mm"><g transform="translate(93.84615384615385)"><g><g><line stroke="#6A6A6A" stroke-width="1.3" x1="0" x2="201.09161725416442" y1="183.8461538461538" y2="183.8461538461538"></line><line stroke="#6A6A6A" stroke-width="1.3" x1="0" x2="201.09161725416442" y1="173.8461538461538" y2="173.8461538461538"></line><line stroke="#6A6A6A" stroke-width="1.3" x1="0" x2="201.09161725416442" y1="163.8461538461538" y2="163.8461538461538"></line><line stroke="#6A6A6A" stroke-width="1.3" x1="0" x2="201.09161725416442" y1="153.8461538461538" y2="153.8461538461538"></line><line stroke="#6A6A6A" stroke-width="1.3" x1="0" x2="201.09161725416442" y1="143.8461538461538" y2="143.8461538461538"></line></g><g><path d="M25.200 129.926C24.640 129.926 23.400 130.966 22.600 131.846C19.640 135.126 18.680 140.126 18.680 144.286C18.680 146.606 18.960 149.206 19.240 150.846C19.320 151.326 19.360 151.406 18.880 151.806C16.320 153.926 13.560 156.366 11.480 158.926C8.720 162.366 7 166.086 7 170.366C7 177.326 11.760 183.926 21.560 183.926C22.480 183.926 23.520 183.846 24.320 183.686C24.760 183.606 24.840 183.566 24.920 184.046C25.400 186.726 26 190.206 26 192.086C26 198.006 22 198.726 19.640 198.726C17.480 198.726 16.440 198.086 16.440 197.566C16.440 197.126 16.800 197.166 17.720 196.886C18.960 196.526 20.400 195.446 20.400 193.126C20.400 190.926 19 189.046 16.560 189.046C13.880 189.046 12.280 191.166 12.280 193.646C12.280 196.246 13.840 200.166 19.880 200.166C22.560 200.166 27.760 198.966 27.760 192.166C27.760 189.886 27.040 186.086 26.600 183.606C26.520 183.126 26.560 183.166 27.120 182.926C31.160 181.326 33.840 177.926 33.840 173.406C33.840 168.286 30.080 163.766 24.200 163.766C23.080 163.766 23.200 163.966 23.040 163.046L22.040 157.246C21.960 156.766 22.040 156.726 22.280 156.486C22.920 155.886 23.760 155.046 24.520 154.206C27.880 150.526 29.880 145.766 29.880 141.246C29.880 137.766 28.920 134.326 27.280 131.926C26.680 131.046 25.640 129.926 25.200 129.926ZM20.040 158.086C20.440 157.766 20.520 157.806 20.600 158.246L21.440 163.366C21.560 164.126 21.560 164.086 20.840 164.326C17.320 165.526 15.040 168.686 15.040 172.086C15.040 175.686 16.920 178.246 19.640 179.166C19.960 179.286 20.440 179.406 20.720 179.406C21.040 179.406 21.200 179.206 21.200 178.966C21.200 178.686 20.880 178.566 20.600 178.446C18.920 177.726 17.720 176.006 17.720 174.166C17.720 171.886 19.280 170.166 21.720 169.486C22.360 169.326 22.440 169.366 22.520 169.806L24.520 181.726C24.600 182.166 24.560 182.166 23.960 182.286C23.320 182.406 22.520 182.486 21.720 182.486C14.720 182.486 10.200 178.606 10.200 173.046C10.200 170.686 10.600 167.526 13.920 163.766C16.320 161.086 18.160 159.606 20.040 158.086ZM24.640 169.166C27.880 169.446 30.560 172.166 30.560 175.686C30.560 178.206 29.040 180.246 26.800 181.366C26.320 181.606 26.240 181.606 26.160 181.126L24.200 169.726C24.120 169.246 24.160 169.126 24.640 169.166ZM25.800 136.126C27.120 136.126 28.200 137.206 28.200 139.406C28.200 142.166 26.880 144.726 23.760 147.846C23.120 148.486 22.160 149.406 21.240 150.206C20.960 150.446 20.800 150.406 20.720 149.886C20.560 148.846 20.480 147.486 20.480 146.206C20.480 139.966 23.360 136.126 25.800 136.126Z"></path></g><g></g><path d="M57.820 153.806C56.620 153.806 55.220 154.126 54.140 154.606C50.580 156.166 48.700 160.446 48.700 164.246C48.700 164.606 48.700 164.966 48.740 165.326C48.940 167.486 49.980 169.526 51.300 171.126C52.820 172.966 55.020 173.806 57.420 173.806C64.420 173.806 65.460 167.446 65.460 166.286C65.460 165.406 65.020 165.406 64.860 165.406C64.540 165.406 64.260 165.446 64.260 166.126C64.260 171.286 59.860 172.486 58.580 172.486C55.340 172.486 53.620 169.326 53.620 162.726C53.620 156.126 56.660 154.766 58.820 154.766C60.900 154.766 61.740 155.726 61.740 156.126C61.740 156.486 61.620 157.006 61.020 157.006C59.420 157.006 58.500 158.726 58.500 159.966C58.500 162.246 60.460 162.966 61.580 162.966C61.580 162.966 64.620 162.846 64.620 159.526C64.620 154.286 58.580 153.806 57.820 153.806Z"></path></g><g><line stroke="black" stroke-width="1.6" x1="201.89161725416443" x2="201.89161725416443" y1="143.8461538461538" y2="183.8461538461538"></line></g><g><path d="M146.686 158.206L146.686 154.526C146.686 153.926 146.206 153.486 145.646 153.486L136.446 153.486C135.846 153.486 135.406 153.926 135.406 154.526L135.406 158.206C135.406 158.766 135.846 159.246 136.446 159.246L145.646 159.246C146.206 159.246 146.686 158.766 146.686 158.206Z"></path></g></g><g transform="translate(311.5377711003183)"><g><g><line stroke="#6A6A6A" stroke-width="1.3" x1="-16.600000000000023" x2="50.75994430820123" y1="183.8461538461538" y2="183.8461538461538"></line><line stroke="#6A6A6A" stroke-width="1.3" x1="-16.600000000000023" x2="50.75994430820123" y1="173.8461538461538" y2="173.8461538461538"></line><line stroke="#6A6A6A" stroke-width="1.3" x1="-16.600000000000023" x2="50.75994430820123" y1="163.8461538461538" y2="163.8461538461538"></line><line stroke="#6A6A6A" stroke-width="1.3" x1="-16.600000000000023" x2="50.75994430820123" y1="153.8461538461538" y2="153.8461538461538"></line><line stroke="#6A6A6A" stroke-width="1.3" x1="-16.600000000000023" x2="50.75994430820123" y1="143.8461538461538" y2="143.8461538461538"></line></g></g><g></g><g><g><path d="M4.360 164.486C8.360 164.486 13.280 160.766 13.280 156.966C13.280 154.686 11.480 153.206 8.880 153.206C3.960 153.206 0 156.846 0 160.726C0 163.086 1.920 164.486 4.360 164.486Z"></path></g><line stroke="#000000" stroke-width="1.2" x1="0.6" x2="0.6" y1="160.68615384615381" y2="198.68615384615381"></line></g><g><g><path d="M29.740 164.486C33.740 164.486 38.660 160.766 38.660 156.966C38.660 154.686 36.860 153.206 34.260 153.206C29.340 153.206 25.380 156.846 25.380 160.726C25.380 163.086 27.300 164.486 29.740 164.486Z"></path></g><line stroke="#000000" stroke-width="1.2" x1="25.97997215410063" x2="25.97997215410063" y1="160.68615384615381" y2="198.68615384615381"></line></g></g><g transform="translate(377.2977154085196)"><g><g><line stroke="#6A6A6A" stroke-width="1.3" x1="-15" x2="74.45994430820122" y1="183.8461538461538" y2="183.8461538461538"></line><line stroke="#6A6A6A" stroke-width="1.3" x1="-15" x2="74.45994430820122" y1="173.8461538461538" y2="173.8461538461538"></line><line stroke="#6A6A6A" stroke-width="1.3" x1="-15" x2="74.45994430820122" y1="163.8461538461538" y2="163.8461538461538"></line><line stroke="#6A6A6A" stroke-width="1.3" x1="-15" x2="74.45994430820122" y1="153.8461538461538" y2="153.8461538461538"></line><line stroke="#6A6A6A" stroke-width="1.3" x1="-15" x2="74.45994430820122" y1="143.8461538461538" y2="143.8461538461538"></line></g><g><path d="M16.740 181.006C16.740 177.926 14.740 174.846 10.900 174.846C9.620 174.846 9.180 175.686 8.820 175.686C8.420 175.686 8.020 175.086 7.780 174.686C7.660 174.366 7.460 174.126 7.460 173.846C7.460 173.606 7.580 173.486 7.740 173.126C7.780 173.046 7.860 173.046 7.860 172.966C8.100 172.606 8.500 172.046 8.820 172.046C9.180 172.046 9.620 172.806 10.900 172.806C14.740 172.806 16.740 169.766 16.740 166.726C16.740 163.686 14.180 160.566 10.380 160.566C6.540 160.566 5.380 163.086 5.380 164.166C5.380 165.286 6.260 166.486 7.420 166.486C8.540 166.486 9.620 165.526 9.620 164.486C9.620 163.566 8.420 162.926 8.180 162.726C8.100 162.646 7.700 162.566 7.700 162.406C7.700 162.366 7.700 162.326 7.780 162.286C8.300 161.766 8.900 161.606 9.500 161.606C11.780 161.606 12.300 163.566 12.300 165.206L12.300 168.366C12.300 170.406 12.220 171.126 10.460 171.126C8.740 171.126 8.060 170.406 7.660 169.086C7.460 168.526 7.260 168.326 7.060 168.326C6.780 168.326 6.540 168.726 6.460 169.086C5.780 172.246 4.740 172.406 3.980 172.486L3.980 161.166C3.980 160.806 3.380 160.566 3.060 160.566C2.740 160.566 2.500 160.806 2.500 161.166L2.500 186.566C2.500 186.886 2.740 187.126 3.060 187.126C3.380 187.126 3.980 186.886 3.980 186.566L3.980 175.206C4.740 175.286 5.780 175.446 6.460 178.606C6.540 178.966 6.780 179.366 7.060 179.366C7.260 179.366 7.460 179.166 7.660 178.606C8.060 177.286 8.740 176.526 10.460 176.526C12.220 176.526 12.300 177.286 12.300 179.366L12.300 182.486C12.300 184.166 11.780 186.046 9.500 186.046C8.420 186.046 8.060 185.686 7.820 185.446C7.740 185.366 7.700 185.326 7.700 185.286C7.700 185.126 8.020 185.046 8.100 184.966C8.380 184.686 9.620 184.246 9.620 183.166C9.620 182.126 8.540 181.166 7.420 181.166C6.260 181.166 5.380 182.406 5.380 183.486C5.380 184.566 6.540 187.126 10.380 187.126C14.180 187.126 16.740 184.006 16.740 181.006ZM0.580 161.166C0.580 160.846 0.340 160.566-0.020 160.566L-2.900 160.566C-3.220 160.566-3.500 160.846-3.500 161.166L-3.500 186.526C-3.500 186.846-3.220 187.126-2.900 187.126L-0.020 187.126C0.340 187.126 0.580 186.846 0.580 186.526Z"></path></g></g><g><line stroke="black" stroke-width="1.6" x1="75.25994430820124" x2="75.25994430820124" y1="143.8461538461538" y2="183.8461538461538"></line></g><g><g><path d="M28.060 144.486C32.060 144.486 36.980 140.766 36.980 136.966C36.980 134.686 35.180 133.206 32.580 133.206C27.660 133.206 23.700 136.846 23.700 140.726C23.700 143.086 25.620 144.486 28.060 144.486Z"></path></g><line stroke="#000000" stroke-width="1.2" x1="24.3" x2="24.3" y1="140.68615384615381" y2="178.68615384615381"></line></g><g><g><path d="M53.440 144.486C57.440 144.486 62.360 140.766 62.360 136.966C62.360 134.686 60.560 133.206 57.960 133.206C53.040 133.206 49.080 136.846 49.080 140.726C49.080 143.086 51.000 144.486 53.440 144.486Z"></path></g><line stroke="#000000" stroke-width="1.2" x1="49.679972154100625" x2="49.679972154100625" y1="140.68615384615381" y2="178.68615384615381"></line></g></g><g transform="translate(468.3576597167208)"><g><g><line stroke="#6A6A6A" stroke-width="1.3" x1="-16.600000000000023" x2="120.89944308201251" y1="183.8461538461538" y2="183.8461538461538"></line><line stroke="#6A6A6A" stroke-width="1.3" x1="-16.600000000000023" x2="120.89944308201251" y1="173.8461538461538" y2="173.8461538461538"></line><line stroke="#6A6A6A" stroke-width="1.3" x1="-16.600000000000023" x2="120.89944308201251" y1="163.8461538461538" y2="163.8461538461538"></line><line stroke="#6A6A6A" stroke-width="1.3" x1="-16.600000000000023" x2="120.89944308201251" y1="153.8461538461538" y2="153.8461538461538"></line><line stroke="#6A6A6A" stroke-width="1.3" x1="-16.600000000000023" x2="120.89944308201251" y1="143.8461538461538" y2="143.8461538461538"></line></g></g><g><g><line stroke="#6A6A6A" stroke-width="1.3" x1="48.59972154100626" x2="228.698886164025" y1="183.8461538461538" y2="183.8461538461538"></line><line stroke="#6A6A6A" stroke-width="1.3" x1="48.59972154100626" x2="228.698886164025" y1="173.8461538461538" y2="173.8461538461538"></line><line stroke="#6A6A6A" stroke-width="1.3" x1="48.59972154100626" x2="228.698886164025" y1="163.8461538461538" y2="163.8461538461538"></line><line stroke="#6A6A6A" stroke-width="1.3" x1="48.59972154100626" x2="228.698886164025" y1="153.8461538461538" y2="153.8461538461538"></line><line stroke="#6A6A6A" stroke-width="1.3" x1="48.59972154100626" x2="228.698886164025" y1="143.8461538461538" y2="143.8461538461538"></line></g><g><path d="M111.299 173.806C111.059 170.446 108.579 167.806 105.219 167.806L104.939 167.806C104.859 167.806 104.699 167.806 104.619 167.846C104.339 166.126 104.219 165.726 103.939 164.286C107.459 161.046 108.739 157.726 108.739 153.086C108.739 151.446 108.339 149.766 107.579 148.086C106.579 145.726 105.619 145.566 105.619 145.566C103.139 146.686 101.379 150.646 101.379 155.406C101.379 156.246 101.419 157.126 101.579 158.046L101.899 159.726C98.019 163.006 93.699 166.886 93.699 171.926C93.699 172.166 93.699 172.446 93.739 172.726C94.219 179.086 99.179 181.086 103.459 181.086C104.259 181.086 104.819 180.966 105.379 180.966L105.899 183.806C106.019 184.446 106.179 185.926 106.179 186.446C106.179 190.726 102.979 190.766 102.659 190.766L102.139 190.766C101.259 190.766 100.499 190.646 99.939 190.246C99.779 190.126 99.699 190.046 99.699 189.966C99.699 189.846 99.819 189.806 99.939 189.726C100.179 189.686 100.379 189.686 100.619 189.566C101.699 189.246 103.139 188.406 103.139 186.846C103.139 186.846 103.139 186.646 103.139 186.646C103.139 185.526 102.659 184.486 101.579 184.046C101.179 183.846 100.819 183.766 100.419 183.766C98.859 183.766 97.419 185.006 97.219 186.646C97.179 186.646 97.099 187.046 97.099 187.566C97.099 189.046 97.779 192.046 102.099 192.046C102.259 192.046 102.499 192.006 102.699 192.006C104.539 191.886 107.499 190.446 107.499 186.326C107.499 184.326 106.939 182.446 106.659 180.606C109.579 179.526 111.299 177.126 111.299 174.206ZM105.819 150.726C106.699 150.726 107.259 151.406 107.259 152.846C107.259 153.006 107.259 153.206 107.219 153.406C106.899 155.566 105.779 156.566 102.979 158.726C102.899 158.086 102.779 157.566 102.779 157.406C102.739 157.126 102.739 156.806 102.739 156.486C102.739 153.766 103.739 150.806 105.819 150.726ZM96.139 174.046C96.139 169.686 99.299 167.446 102.739 164.886L103.219 168.046C100.859 168.726 99.019 170.966 99.019 173.326C99.019 173.726 99.059 174.126 99.179 174.486C99.579 176.246 100.739 177.566 101.979 177.966C102.219 178.046 102.419 178.086 102.539 178.086C102.739 178.086 102.859 177.966 102.859 177.846C102.859 177.686 102.659 177.486 102.459 177.366C101.939 177.166 101.019 176.126 100.979 175.046L100.979 174.806C100.979 172.966 102.419 172.326 103.819 172.046L105.179 179.566C104.779 179.726 104.219 179.806 103.459 179.806C100.619 179.806 96.299 178.846 96.139 174.286ZM106.459 179.286C106.059 176.926 105.899 174.886 105.339 171.926C107.539 171.926 109.019 173.206 109.139 175.406L109.139 175.686C109.139 177.526 108.339 178.486 106.459 179.286Z"></path></g></g><g><line stroke="#000000" stroke-width="1.6" x1="218.89888616402504" x2="218.89888616402504" y1="143.8461538461538" y2="183.8461538461538"></line><line stroke="#000000" stroke-width="5" x1="226.19888616402503" x2="226.19888616402503" y1="143.8461538461538" y2="183.8461538461538"></line></g><g><g><path d="M4.360 144.486C8.360 144.486 13.280 140.766 13.280 136.966C13.280 134.686 11.480 133.206 8.880 133.206C3.960 133.206 0 136.846 0 140.726C0 143.086 1.920 144.486 4.360 144.486Z"></path></g><line stroke="#000000" stroke-width="1.2" x1="0.6" x2="0.6" y1="140.68615384615381" y2="178.68615384615381"></line></g><g><g><path d="M52.960 144.486C56.960 144.486 61.880 140.766 61.880 136.966C61.880 134.686 60.080 133.206 57.480 133.206C52.560 133.206 48.600 136.846 48.600 140.726C48.600 143.086 50.520 144.486 52.960 144.486Z"></path></g><line stroke="#000000" stroke-width="1.2" x1="49.19972154100626" x2="49.19972154100626" y1="140.68615384615381" y2="178.68615384615381"></line></g><g><g><path d="M125.259 164.486C129.259 164.486 134.179 160.766 134.179 156.966C134.179 154.686 132.379 153.206 129.779 153.206C124.859 153.206 120.899 156.846 120.899 160.726C120.899 163.086 122.819 164.486 125.259 164.486Z"></path></g><line stroke="#000000" stroke-width="1.2" x1="121.4994430820125" x2="121.4994430820125" y1="160.68615384615381" y2="198.68615384615381"></line></g><g><g><path d="M173.859 164.486C177.859 164.486 182.779 160.766 182.779 156.966C182.779 154.686 180.979 153.206 178.379 153.206C173.459 153.206 169.499 156.846 169.499 160.726C169.499 163.086 171.419 164.486 173.859 164.486Z"></path></g><line stroke="#000000" stroke-width="1.2" x1="170.09916462301877" x2="170.09916462301877" y1="160.68615384615381" y2="198.68615384615381"></line></g></g></svg>