<?xml version="1.0" encoding="UTF-8" standalone="no"?><svg xmlns="http://www.w3.org/2000/svg" height="279.4mm" viewBox="0 0 1328.6153846153845 1719.3846153846152" width="215.9mm"><g transform="translate(93.84615384615385)"><g><g><line stroke="#6A6A6A" stroke-width="1.3" x1="0" x2="774.7062673293034" y1="183.8461538461538" y2="183.8461538461538"></line><line stroke="#6A6A6A" stroke-width="1.3" x1="0" x2="774.7062673293034" y1="173.8461538461538" y2="173.8461538461538"></line><line stroke="#6A6A6A" stroke-width="1.3" x1="0" x2="774.7062673293034" y1="163.8461538461538" y2="163.8461538461538"></line><line stroke="#6A6A6A" stroke-width="1.3" x1="0" x2="774.7062673293034" y1="153.8461538461538" y2="153.8461538461538"></line><line stroke="#6A6A6A" stroke-width="1.3" x1="0" x2="774.7062673293034" y1="143.8461538461538" y2="143.8461538461538"></line></g><g><path d="M25.200 129.926C24.640 129.926 23.400 130.966 22.600 131.846C19.640 135.126 18.680 140.126 18.680 144.286C18.680 146.606 18.960 149.206 19.240 150.846C19.320 151.326 19.360 151.406 18.880 151.806C16.320 153.926 13.560 156.366 11.480 158.926C8.720 162.366 7 166.086 7 170.366C7 177.326 11.760 183.926 21.560 183.926C22.480 183.926 23.520 183.846 24.320 183.686C24.760 183.606 24.840 183.566 24.920 184.046C25.400 186.726 26 190.206 26 192.086C26 198.006 22 198.726 19.640 198.726C17.480 198.726 16.440 198.086 16.440 197.566C16.440 197.126 16.800 197.166 17.720 196.886C18.960 196.526 20.400 195.446 20.400 193.126C20.400 190.926 19 189.046 16.560 189.046C13.880 189.046 12.280 191.166 12.280 193.646C12.280 196.246 13.840 200.166 19.880 200.166C22.560 200.166 27.760 198.966 27.760 192.166C27.760 189.886 27.040 186.086 26.600 183.606C26.520 183.126 26.560 183.166 27.120 182.926C31.160 181.326 33.840 177.926 33.840 173.406C33.840 168.286 30.080 163.766 24.200 163.766C23.080 163.766 23.200 163.966 23.040 163.046L22.040 157.246C21.960 156.766 22.040 156.726 22.280 156.486C22.920 155.886 23.760 155.046 24.520 154.206C27.880 150.526 29.880 145.766 29.880 141.246C29.880 137.766 28.920 134.326 27.280 131.926C26.680 131.046 25.640 129.926 25.200 129.926ZM20.040 158.086C20.440 157.766 20.520 157.806 20.600 158.246L21.440 163.366C21.560 164.126 21.560 164.086 20.840 164.326C17.320 165.526 15.040 168.686 15.040 172.086C15.040 175.686 16.920 178.246 19.640 179.166C19.960 179.286 20.440 179.406 20.720 179.406C21.040 179.406 21.200 179.206 21.200 178.966C21.200 178.686 20.880 178.566 20.600 178.446C18.920 177.726 17.720 176.006 17.720 174.166C17.720 171.886 19.280 170.166 21.720 169.486C22.360 169.326 22.440 169.366 22.520 169.806L24.520 181.726C24.600 182.166 24.560 182.166 23.960 182.286C23.320 182.406 22.520 182.486 21.720 182.486C14.720 182.486 10.200 178.606 10.200 173.046C10.200 170.686 10.600 167.526 13.920 163.766C16.320 161.086 18.160 159.606 20.040 158.086ZM24.640 169.166C27.880 169.446 30.560 172.166 30.560 175.686C30.560 178.206 29.040 180.246 26.800 181.366C26.320 181.606 26.240 181.606 26.160 181.126L24.200 169.726C24.120 169.246 24.160 169.126 24.640 169.166ZM25.800 136.126C27.120 136.126 28.200 137.206 28.200 139.406C28.200 142.166 26.880 144.726 23.760 147.846C23.120 148.486 22.160 149.406 21.240 150.206C20.960 150.446 20.800 150.406 20.720 149.886C20.560 148.846 20.480 147.486 20.480 146.206C20.480 139.966 23.360 136.126 25.800 136.126Z"></path></g><g></g><path d="M57.820 153.806C56.620 153.806 55.220 154.126 54.140 154.606C50.580 156.166 48.700 160.446 48.700 164.246C48.700 164.606 48.700 164.966 48.740 165.326C48.940 167.486 49.980 169.526 51.300 171.126C52.820 172.966 55.020 173.806 57.420 173.806C64.420 173.806 65.460 167.446 65.460 166.286C65.460 165.406 65.020 165.406 64.860 165.406C64.540 165.406 64.260 165.446 64.260 166.126C64.260 171.286 59.860 172.486 58.580 172.486C55.340 172.486 53.620 169.326 53.620 162.726C53.620 156.126 56.660 154.766 58.820 154.766C60.900 154.766 61.740 155.726 61.740 156.126C61.740 156.486 61.620 157.006 61.020 157.006C59.420 157.006 58.500 158.726 58.500 159.966C58.500 162.246 60.460 162.966 61.580 162.966C61.580 162.966 64.620 162.846 64.620 159.526C64.620 154.286 58.580 153.806 57.820 153.806Z"></path></g><g><path d="M148.188 143.406C147.828 143.406 147.548 143.686 147.548 144.046L147.548 150.046L118.828 150.046L118.828 144.046C118.828 143.686 118.548 143.406 118.188 143.406C117.828 143.406 117.548 143.686 117.548 144.046L117.548 164.046C117.548 164.406 117.828 164.686 118.188 164.686C118.548 164.686 118.828 164.406 118.828 164.046L118.828 158.046L147.548 158.046L147.548 164.046C147.548 164.406 147.828 164.686 148.188 164.686C148.548 164.686 148.828 164.406 148.828 164.046L148.828 144.046C148.828 143.686 148.548 143.406 148.188 143.406Z"></path><text font-family='Alegreya' font-style='italic' stroke='#7a7a7a' font-weight="bold" font-size="48" text-anchor="middle" x="133.18773715504898" y="123.84615384615381">2</text></g></g><g transform="translate(294.2216281562518)"><g></g><g><line stroke="black" stroke-width="1.6" x1="0.8" x2="0.8" y1="143.8461538461538" y2="183.8461538461538"></line></g></g><g transform="translate(310.82162815625185)"><g><g><g><path d="M7.880 143.926C7.680 143.926 7.480 143.886 7.280 143.886C3.840 143.886 0.400 146.166 0.400 148.286C0.400 149.606 1.160 151.366 3.640 151.526L3.840 151.526C5.600 151.526 6.480 150.246 6.480 148.926L6.480 148.606C6.360 147.126 5.360 147.046 5.160 146.966C4.960 146.886 4.360 146.966 4.360 146.406L4.360 146.246C4.440 145.566 5.680 145.246 6.040 145.246C9.440 145.246 9.760 147.366 9.760 148.326L9.760 148.606C9.760 151.566 7.400 152.726 4.880 152.846C4.480 152.886 3.920 153.086 3.920 153.526C3.920 154.006 4.600 154.006 4.920 154.006C9.520 154.006 9.880 157.126 9.880 157.646C9.880 161.886 7.720 162.366 6.840 162.366C6.680 162.366 6.520 162.326 6.480 162.326C6.160 162.286 5.400 162.286 5.360 161.686L5.360 161.486C5.360 160.606 6.240 160.006 6.280 158.846C6.280 158.446 6.240 158.006 6.080 157.606C5.640 156.606 4.480 155.966 3.400 155.966C3.240 155.966 3.120 155.966 2.960 156.006C2.280 156.126 1.520 156.526 1.040 157.046C0.360 157.646 0.160 158.606 0.160 159.486C0.240 162.606 3.080 163.806 7 163.886L7.360 163.886C11.320 163.886 15.400 161.846 15.400 158.326L15.400 158.046C15.360 157.486 15.280 156.926 15.040 156.406C14.880 156.006 14.600 155.606 14.280 155.246C14.040 154.926 13.720 154.646 13.320 154.406L12.480 153.926L11.160 153.566C10.960 153.526 10.840 153.526 10.760 153.366C10.720 153.286 10.720 153.246 10.720 153.166C10.720 153.006 10.760 152.846 10.880 152.806C11.320 152.686 11.760 152.646 12.120 152.446C12.720 152.166 13.240 151.886 13.680 151.366C14.320 150.646 14.560 149.726 14.560 148.806C14.560 145.126 9.560 144.046 7.880 143.926Z"></path></g><g><path d="M16.680 176.806L13.760 176.806L13.760 168.246C13.760 167.926 13.720 167.566 13.280 167.566C12.920 167.566 12.720 167.646 12.480 167.926L8.680 172.526C8.520 172.726 8.320 172.966 8.320 173.446C8.320 173.446 8.320 175.046 8.320 176.806L2.920 176.806C6.120 174.086 12.520 165.006 12.640 164.566C12.640 164.486 12.680 164.446 12.680 164.366C12.680 164.046 12.400 163.806 12.080 163.806C11.720 163.806 10.080 163.886 9.360 163.886C8.640 163.886 6.840 163.806 6.520 163.806C6.160 163.806 5.600 163.926 5.600 164.566C5.600 169.526 1.680 175.086 0.480 176.766L0.240 177.086C0.240 177.126 0.200 177.166 0.200 177.206C0.120 177.366 0.080 177.526 0.080 177.646C0.080 178.046 0.400 178.326 0.880 178.326L8.320 178.326L8.320 180.846C8.320 181.926 7.440 182.246 6.720 182.246C6.080 182.246 5.800 182.606 5.800 183.006C5.800 183.406 5.960 183.846 6.560 183.846C7.200 183.846 15.080 183.846 15.080 183.846C15.480 183.846 15.880 183.566 15.880 183.006C15.880 182.446 15.400 182.206 15 182.206C14.600 182.206 13.760 181.966 13.760 180.686L13.760 178.326C15.480 178.326 16.680 178.326 16.680 178.326C17.080 178.326 17.280 178.046 17.280 177.566C17.280 177.086 17.120 176.806 16.680 176.806Z"></path></g></g></g><g><path d="M99.970 143.406C99.610 143.406 99.330 143.686 99.330 144.046L99.330 150.046L70.610 150.046L70.610 144.046C70.610 143.686 70.330 143.406 69.970 143.406C69.610 143.406 69.330 143.686 69.330 144.046L69.330 164.046C69.330 164.406 69.610 164.686 69.970 164.686C70.330 164.686 70.610 164.406 70.610 164.046L70.610 158.046L99.330 158.046L99.330 164.046C99.330 164.406 99.610 164.686 99.970 164.686C100.330 164.686 100.610 164.406 100.610 164.046L100.610 144.046C100.610 143.686 100.330 143.406 99.970 143.406Z"></path><text font-family='Alegreya' font-style='italic' stroke='#7a7a7a' font-weight="bold" font-size="48" text-anchor="middle" x="84.97008448141374" y="123.84615384615381">3</text></g></g><g transform="translate(446.6617971190793)"><g></g></g><g transform="translate(446.6617971190793)"><g></g><g><line stroke="black" stroke-width="1.6" x1="0.8" x2="0.8" y1="143.8461538461538" y2="183.8461538461538"></line></g></g><g transform="translate(463.26179711907935)"><g><g><g><path d="M16.360 157.486C16.360 157.006 16.160 156.926 15.880 156.926C15.560 156.926 15.440 157.086 15.360 157.326C15.360 157.366 15.320 157.406 15.320 157.446C14.920 158.406 14.600 159.166 13.760 159.166C13.560 159.166 13.360 159.126 13.080 159.046C12.560 158.846 12.280 158.806 11.880 158.606C11.080 158.286 9.200 157.646 7.560 157.646C7.040 157.646 6.520 157.726 6.080 157.886C6.960 156.446 10.360 155.246 11.240 155.006C11.840 154.846 13.520 154.526 14.840 153.446C15.800 152.686 16.560 151.526 16.560 149.766C16.560 147.886 15.760 146.526 14.720 145.646C12.680 143.926 9.560 143.686 8.680 143.686C7.600 143.686 6.240 143.726 5.200 143.966C3.800 144.246 2.400 145.086 1.440 146.206C0.760 147.046 0.320 148.046 0.320 149.126C0.320 149.686 0.440 150.246 0.680 150.846C1.280 152.086 2.520 153.046 3.960 153.046C6.400 153.046 6.760 150.526 6.760 149.526C6.760 147.126 4 147.006 4 146.206C4.080 145.646 4.800 144.686 7.160 144.686C10.720 144.686 10.760 147.366 10.760 148.526C10.760 150.046 10.280 151.446 9.400 152.606C7.960 154.526 6.840 155.486 4.880 156.686C2.680 158.086 1.120 160.046 0.440 162.566C0.440 162.646 0.400 162.726 0.400 162.806C0.400 163.246 0.680 163.766 1.120 164.046C1.240 164.126 1.360 164.126 1.440 164.126C2.320 164.126 2.800 161.686 5.160 161.686C6.760 161.686 7.360 163.846 10.920 163.846C12.640 163.846 15.720 163.686 16.360 157.486Z"></path></g><g><path d="M16.680 176.806L13.760 176.806L13.760 168.246C13.760 167.926 13.720 167.566 13.280 167.566C12.920 167.566 12.720 167.646 12.480 167.926L8.680 172.526C8.520 172.726 8.320 172.966 8.320 173.446C8.320 173.446 8.320 175.046 8.320 176.806L2.920 176.806C6.120 174.086 12.520 165.006 12.640 164.566C12.640 164.486 12.680 164.446 12.680 164.366C12.680 164.046 12.400 163.806 12.080 163.806C11.720 163.806 10.080 163.886 9.360 163.886C8.640 163.886 6.840 163.806 6.520 163.806C6.160 163.806 5.600 163.926 5.600 164.566C5.600 169.526 1.680 175.086 0.480 176.766L0.240 177.086C0.240 177.126 0.200 177.166 0.200 177.206C0.120 177.366 0.080 177.526 0.080 177.646C0.080 178.046 0.400 178.326 0.880 178.326L8.320 178.326L8.320 180.846C8.320 181.926 7.440 182.246 6.720 182.246C6.080 182.246 5.800 182.606 5.800 183.006C5.800 183.406 5.960 183.846 6.560 183.846C7.200 183.846 15.080 183.846 15.080 183.846C15.480 183.846 15.880 183.566 15.880 183.006C15.880 182.446 15.400 182.206 15 182.206C14.600 182.206 13.760 181.966 13.760 180.686L13.760 178.326C15.480 178.326 16.680 178.326 16.680 178.326C17.080 178.326 17.280 178.046 17.280 177.566C17.280 177.086 17.120 176.806 16.680 176.806Z"></path></g></g></g><g><path d="M80.370 143.406C80.010 143.406 79.730 143.686 79.730 144.046L79.730 150.046L51.010 150.046L51.010 144.046C51.010 143.686 50.730 143.406 50.370 143.406C50.010 143.406 49.730 143.686 49.730 144.046L49.730 164.046C49.730 164.406 50.010 164.686 50.370 164.686C50.730 164.686 51.010 164.406 51.010 164.046L51.010 158.046L79.730 158.046L79.730 164.046C79.730 164.406 80.010 164.686 80.370 164.686C80.730 164.686 81.010 164.406 81.010 164.046L81.010 144.046C81.010 143.686 80.730 143.406 80.370 143.406Z"></path><text font-family='Alegreya' font-style='italic' stroke='#7a7a7a' font-weight="bold" font-size="48" text-anchor="middle" x="65.36983771809099" y="123.84615384615381">2</text></g></g><g transform="translate(576.5014725552613)"><g></g><g><line stroke="black" stroke-width="1.6" x1="0.8" x2="0.8" y1="143.8461538461538" y2="183.8461538461538"></line></g></g><g transform="translate(593.1014725552614)"><g><path d="M9.320 153.806C8.120 153.806 6.720 154.126 5.640 154.606C2.080 156.166 0.200 160.446 0.200 164.246C0.200 164.606 0.200 164.966 0.240 165.326C0.440 167.486 1.480 169.526 2.800 171.126C4.320 172.966 6.520 173.806 8.920 173.806C15.920 173.806 16.960 167.446 16.960 166.286C16.960 165.406 16.520 165.406 16.360 165.406C16.040 165.406 15.760 165.446 15.760 166.126C15.760 171.286 11.360 172.486 10.080 172.486C6.840 172.486 5.120 169.326 5.120 162.726C5.120 156.126 8.160 154.766 10.320 154.766C12.400 154.766 13.240 155.726 13.240 156.126C13.240 156.486 13.120 157.006 12.520 157.006C10.920 157.006 10 158.726 10 159.966C10 162.246 11.960 162.966 13.080 162.966C13.080 162.966 16.120 162.846 16.120 159.526C16.120 154.286 10.080 153.806 9.320 153.806Z"></path></g><g><path d="M99.688 143.406C99.328 143.406 99.048 143.686 99.048 144.046L99.048 150.046L70.328 150.046L70.328 144.046C70.328 143.686 70.048 143.406 69.688 143.406C69.328 143.406 69.048 143.686 69.048 144.046L69.048 164.046C69.048 164.406 69.328 164.686 69.688 164.686C70.048 164.686 70.328 164.406 70.328 164.046L70.328 158.046L99.048 158.046L99.048 164.046C99.048 164.406 99.328 164.686 99.688 164.686C100.048 164.686 100.328 164.406 100.328 164.046L100.328 144.046C100.328 143.686 100.048 143.406 99.688 143.406Z"></path><text font-family='Alegreya' font-style='italic' stroke='#7a7a7a' font-weight="bold" font-size="48" text-anchor="middle" x="84.68773715504898" y="123.84615384615381">2</text></g></g><g transform="translate(744.9769468653593)"><g></g><g><line stroke="black" stroke-width="1.6" x1="0.8" x2="0.8" y1="143.8461538461538" y2="183.8461538461538"></line></g></g><g transform="translate(761.5769468653593)"><g></g><g><line stroke="#000000" stroke-width="1.6" x1="97.17547431009794" x2="97.17547431009794" y1="143.8461538461538" y2="183.8461538461538"></line><line stroke="#000000" stroke-width="5" x1="104.47547431009794" x2="104.47547431009794" y1="143.8461538461538" y2="183.8461538461538"></line></g><g><g><path d="M9.400 153.366C3.600 153.366 0 155.806 0 158.766C0 161.686 2.480 164.286 8.960 164.286C16.080 164.286 18.360 161.806 18.360 158.766C18.360 155.686 13.440 153.366 9.400 153.366ZM4.840 156.086C5.320 154.606 6.920 154.366 8.280 154.366C11.240 154.366 13.640 157.566 13.640 160.206C13.640 160.486 13.600 160.766 13.560 161.006C13.360 162.086 12.720 162.846 11.640 163.126C11.200 163.246 10.760 163.286 10.320 163.286C9.920 163.286 9.560 163.246 9.160 163.126C8.440 162.886 7.720 162.486 7.120 161.966C6.800 161.686 6.480 161.366 6.200 161.006C5.360 160.006 4.680 158.526 4.680 157.166C4.680 156.806 4.720 156.446 4.840 156.086Z"></path></g></g></g></svg>