<?xml version="1.0" encoding="UTF-8" standalone="no"?><svg xmlns="http://www.w3.org/2000/svg" height="89.92165500000002mm" viewBox="0 0 1804 954" width="170.04053000000002mm"><g transform="translate(388)"><g><g><line stroke="#6A6A6A" stroke-width="1.3" x1="0" x2="351.9355295978572" y1="527.8515" y2="527.8515"></line><line stroke="#6A6A6A" stroke-width="1.3" x1="0" x2="351.9355295978572" y1="517.8515" y2="517.8515"></line><line stroke="#6A6A6A" stroke-width="1.3" x1="0" x2="351.9355295978572" y1="507.8515" y2="507.8515"></line><line stroke="#6A6A6A" stroke-width="1.3" x1="0" x2="351.9355295978572" y1="497.8515" y2="497.8515"></line><line stroke="#6A6A6A" stroke-width="1.3" x1="0" x2="351.9355295978572" y1="487.8515" y2="487.8515"></line></g><g><path d="M25.200 473.931C24.640 473.931 23.400 474.971 22.600 475.851C19.640 479.131 18.680 484.131 18.680 488.291C18.680 490.611 18.960 493.212 19.240 494.851C19.320 495.332 19.360 495.411 18.880 495.811C16.320 497.931 13.560 500.371 11.480 502.931C8.720 506.371 7 510.091 7 514.371C7 521.332 11.760 527.932 21.560 527.932C22.480 527.932 23.520 527.851 24.320 527.692C24.760 527.611 24.840 527.572 24.920 528.052C25.400 530.731 26 534.212 26 536.091C26 542.011 22 542.731 19.640 542.731C17.480 542.731 16.440 542.091 16.440 541.572C16.440 541.131 16.800 541.172 17.720 540.891C18.960 540.531 20.400 539.452 20.400 537.131C20.400 534.932 19 533.052 16.560 533.052C13.880 533.052 12.280 535.172 12.280 537.651C12.280 540.251 13.840 544.172 19.880 544.172C22.560 544.172 27.760 542.971 27.760 536.172C27.760 533.891 27.040 530.091 26.600 527.611C26.520 527.131 26.560 527.172 27.120 526.932C31.160 525.332 33.840 521.932 33.840 517.411C33.840 512.292 30.080 507.772 24.200 507.772C23.080 507.772 23.200 507.971 23.040 507.051L22.040 501.251C21.960 500.772 22.040 500.731 22.280 500.491C22.920 499.892 23.760 499.051 24.520 498.212C27.880 494.531 29.880 489.772 29.880 485.251C29.880 481.772 28.920 478.332 27.280 475.931C26.680 475.051 25.640 473.931 25.200 473.931ZM20.040 502.091C20.440 501.772 20.520 501.811 20.600 502.251L21.440 507.371C21.560 508.131 21.560 508.091 20.840 508.332C17.320 509.531 15.040 512.692 15.040 516.091C15.040 519.692 16.920 522.251 19.640 523.172C19.960 523.292 20.440 523.411 20.720 523.411C21.040 523.411 21.200 523.212 21.200 522.971C21.200 522.692 20.880 522.572 20.600 522.452C18.920 521.731 17.720 520.011 17.720 518.172C17.720 515.891 19.280 514.172 21.720 513.491C22.360 513.332 22.440 513.371 22.520 513.812L24.520 525.731C24.600 526.172 24.560 526.172 23.960 526.292C23.320 526.411 22.520 526.491 21.720 526.491C14.720 526.491 10.200 522.611 10.200 517.052C10.200 514.692 10.600 511.531 13.920 507.772C16.320 505.091 18.160 503.611 20.040 502.091ZM24.640 513.172C27.880 513.452 30.560 516.172 30.560 519.692C30.560 522.212 29.040 524.251 26.800 525.371C26.320 525.611 26.240 525.611 26.160 525.131L24.200 513.731C24.120 513.251 24.160 513.131 24.640 513.172ZM25.800 480.131C27.120 480.131 28.200 481.212 28.200 483.411C28.200 486.171 26.880 488.731 23.760 491.851C23.120 492.491 22.160 493.411 21.240 494.212C20.960 494.452 20.800 494.411 20.720 493.892C20.560 492.851 20.480 491.491 20.480 490.212C20.480 483.971 23.360 480.131 25.800 480.131Z"></path></g><g></g><path d="M57.820 497.811C56.620 497.811 55.220 498.131 54.140 498.611C50.580 500.171 48.700 504.452 48.700 508.251C48.700 508.611 48.700 508.971 48.740 509.332C48.940 511.491 49.980 513.531 51.300 515.131C52.820 516.971 55.020 517.812 57.420 517.812C64.420 517.812 65.460 511.452 65.460 510.291C65.460 509.411 65.020 509.411 64.860 509.411C64.540 509.411 64.260 509.452 64.260 510.131C64.260 515.292 59.860 516.491 58.580 516.491C55.340 516.491 53.620 513.332 53.620 506.731C53.620 500.131 56.660 498.772 58.820 498.772C60.900 498.772 61.740 499.731 61.740 500.131C61.740 500.491 61.620 501.012 61.020 501.012C59.420 501.012 58.500 502.731 58.500 503.971C58.500 506.251 60.460 506.971 61.580 506.971C61.580 506.971 64.620 506.851 64.620 503.531C64.620 498.291 58.580 497.811 57.820 497.811Z"></path></g><g><line stroke="black" stroke-width="1.6" x1="352.73552959785724" x2="352.73552959785724" y1="487.8515" y2="527.8515"></line></g><g><path d="M222.108 502.212L222.108 498.531C222.108 497.931 221.628 497.491 221.068 497.491L211.868 497.491C211.268 497.491 210.828 497.931 210.828 498.531L210.828 502.212C210.828 502.772 211.268 503.251 211.868 503.251L221.068 503.251C221.628 503.251 222.108 502.772 222.108 502.212Z"></path></g></g><g transform="translate(756.5355295978572)"><g><g><line stroke="#6A6A6A" stroke-width="1.3" x1="-16.600000000000023" x2="553.0710591957145" y1="527.8515" y2="527.8515"></line><line stroke="#6A6A6A" stroke-width="1.3" x1="-16.600000000000023" x2="553.0710591957145" y1="517.8515" y2="517.8515"></line><line stroke="#6A6A6A" stroke-width="1.3" x1="-16.600000000000023" x2="553.0710591957145" y1="507.8515" y2="507.8515"></line><line stroke="#6A6A6A" stroke-width="1.3" x1="-16.600000000000023" x2="553.0710591957145" y1="497.8515" y2="497.8515"></line><line stroke="#6A6A6A" stroke-width="1.3" x1="-16.600000000000023" x2="553.0710591957145" y1="487.8515" y2="487.8515"></line></g></g><g><line stroke="black" stroke-width="1.6" x1="263.73552959785724" x2="263.73552959785724" y1="487.8515" y2="527.8515"></line></g><g><path d="M128.808 502.212L128.808 498.531C128.808 497.931 128.328 497.491 127.768 497.491L118.568 497.491C117.968 497.491 117.528 497.931 117.528 498.531L117.528 502.212C117.528 502.772 117.968 503.251 118.568 503.251L127.768 503.251C128.328 503.251 128.808 502.772 128.808 502.212Z"></path></g></g><g transform="translate(1036.0710591957145)"><g></g><g><line stroke="#000000" stroke-width="1.6" x1="263.73552959785724" x2="263.73552959785724" y1="487.8515" y2="527.8515"></line><line stroke="#000000" stroke-width="5" x1="271.03552959785725" x2="271.03552959785725" y1="487.8515" y2="527.8515"></line></g><g><path d="M128.808 502.212L128.808 498.531C128.808 497.931 128.328 497.491 127.768 497.491L118.568 497.491C117.968 497.491 117.528 497.931 117.528 498.531L117.528 502.212C117.528 502.772 117.968 503.251 118.568 503.251L127.768 503.251C128.328 503.251 128.808 502.772 128.808 502.212Z"></path></g></g></svg>