<?xml version="1.0" encoding="UTF-8" standalone="no"?><svg xmlns="http://www.w3.org/2000/svg" height="279.4mm" viewBox="0 0 1328.6153846153845 1719.3846153846152" width="215.9mm"><g transform="translate(93.84615384615385)"><g><g><line stroke="#6A6A6A" stroke-width="1.3" x1="0" x2="2009.4113420119763" y1="183.8461538461538" y2="183.8461538461538"></line><line stroke="#6A6A6A" stroke-width="1.3" x1="0" x2="2009.4113420119763" y1="173.8461538461538" y2="173.8461538461538"></line><line stroke="#6A6A6A" stroke-width="1.3" x1="0" x2="2009.4113420119763" y1="163.8461538461538" y2="163.8461538461538"></line><line stroke="#6A6A6A" stroke-width="1.3" x1="0" x2="2009.4113420119763" y1="153.8461538461538" y2="153.8461538461538"></line><line stroke="#6A6A6A" stroke-width="1.3" x1="0" x2="2009.4113420119763" y1="143.8461538461538" y2="143.8461538461538"></line></g><g><path d="M25.200 129.926C24.640 129.926 23.400 130.966 22.600 131.846C19.640 135.126 18.680 140.126 18.680 144.286C18.680 146.606 18.960 149.206 19.240 150.846C19.320 151.326 19.360 151.406 18.880 151.806C16.320 153.926 13.560 156.366 11.480 158.926C8.720 162.366 7 166.086 7 170.366C7 177.326 11.760 183.926 21.560 183.926C22.480 183.926 23.520 183.846 24.320 183.686C24.760 183.606 24.840 183.566 24.920 184.046C25.400 186.726 26 190.206 26 192.086C26 198.006 22 198.726 19.640 198.726C17.480 198.726 16.440 198.086 16.440 197.566C16.440 197.126 16.800 197.166 17.720 196.886C18.960 196.526 20.400 195.446 20.400 193.126C20.400 190.926 19 189.046 16.560 189.046C13.880 189.046 12.280 191.166 12.280 193.646C12.280 196.246 13.840 200.166 19.880 200.166C22.560 200.166 27.760 198.966 27.760 192.166C27.760 189.886 27.040 186.086 26.600 183.606C26.520 183.126 26.560 183.166 27.120 182.926C31.160 181.326 33.840 177.926 33.840 173.406C33.840 168.286 30.080 163.766 24.200 163.766C23.080 163.766 23.200 163.966 23.040 163.046L22.040 157.246C21.960 156.766 22.040 156.726 22.280 156.486C22.920 155.886 23.760 155.046 24.520 154.206C27.880 150.526 29.880 145.766 29.880 141.246C29.880 137.766 28.920 134.326 27.280 131.926C26.680 131.046 25.640 129.926 25.200 129.926ZM20.040 158.086C20.440 157.766 20.520 157.806 20.600 158.246L21.440 163.366C21.560 164.126 21.560 164.086 20.840 164.326C17.320 165.526 15.040 168.686 15.040 172.086C15.040 175.686 16.920 178.246 19.640 179.166C19.960 179.286 20.440 179.406 20.720 179.406C21.040 179.406 21.200 179.206 21.200 178.966C21.200 178.686 20.880 178.566 20.600 178.446C18.920 177.726 17.720 176.006 17.720 174.166C17.720 171.886 19.280 170.166 21.720 169.486C22.360 169.326 22.440 169.366 22.520 169.806L24.520 181.726C24.600 182.166 24.560 182.166 23.960 182.286C23.320 182.406 22.520 182.486 21.720 182.486C14.720 182.486 10.200 178.606 10.200 173.046C10.200 170.686 10.600 167.526 13.920 163.766C16.320 161.086 18.160 159.606 20.040 158.086ZM24.640 169.166C27.880 169.446 30.560 172.166 30.560 175.686C30.560 178.206 29.040 180.246 26.800 181.366C26.320 181.606 26.240 181.606 26.160 181.126L24.200 169.726C24.120 169.246 24.160 169.126 24.640 169.166ZM25.800 136.126C27.120 136.126 28.200 137.206 28.200 139.406C28.200 142.166 26.880 144.726 23.760 147.846C23.120 148.486 22.160 149.406 21.240 150.206C20.960 150.446 20.800 150.406 20.720 149.886C20.560 148.846 20.480 147.486 20.480 146.206C20.480 139.966 23.360 136.126 25.800 136.126Z"></path></g><g></g><path d="M57.820 153.806C56.620 153.806 55.220 154.126 54.140 154.606C50.580 156.166 48.700 160.446 48.700 164.246C48.700 164.606 48.700 164.966 48.740 165.326C48.940 167.486 49.980 169.526 51.300 171.126C52.820 172.966 55.020 173.806 57.420 173.806C64.420 173.806 65.460 167.446 65.460 166.286C65.460 165.406 65.020 165.406 64.860 165.406C64.540 165.406 64.260 165.446 64.260 166.126C64.260 171.286 59.860 172.486 58.580 172.486C55.340 172.486 53.620 169.326 53.620 162.726C53.620 156.126 56.660 154.766 58.820 154.766C60.900 154.766 61.740 155.726 61.740 156.126C61.740 156.486 61.620 157.006 61.020 157.006C59.420 157.006 58.500 158.726 58.500 159.966C58.500 162.246 60.460 162.966 61.580 162.966C61.580 162.966 64.620 162.846 64.620 159.526C64.620 154.286 58.580 153.806 57.820 153.806Z"></path></g><g><line stroke="black" stroke-width="1.6" x1="1723.2268816130656" x2="1723.2268816130656" y1="143.8461538461538" y2="183.8461538461538"></line></g><g><path d="M907.353 158.206L907.353 154.526C907.353 153.926 906.873 153.486 906.313 153.486L897.113 153.486C896.513 153.486 896.073 153.926 896.073 154.526L896.073 158.206C896.073 158.766 896.513 159.246 897.113 159.246L906.313 159.246C906.873 159.246 907.353 158.766 907.353 158.206Z"></path></g></g><g transform="translate(1832.8730354592194)"><g></g><g><line stroke="black" stroke-width="1.6" x1="110.15179897188995" x2="110.15179897188995" y1="143.8461538461538" y2="183.8461538461538"></line></g><g><line stroke="#000000" stroke-width="1.6" x1="123.19223019945538" x2="123.19223019945538" y1="143.8461538461538" y2="183.8461538461538"></line><line stroke="#000000" stroke-width="5" x1="130.49223019945538" x2="130.49223019945538" y1="143.8461538461538" y2="183.8461538461538"></line></g><g><path d="M96.787 116.326C95.307 116.926 94.507 119.206 92.627 119.206C92.627 117.286 91.507 115.966 89.987 115.966C88.427 115.966 87.107 117.286 87.107 118.806C87.107 119.526 87.667 120.326 88.267 120.926L89.387 121.486C89.787 121.486 90.147 121.646 90.547 121.646C91.067 121.646 91.627 121.486 92.067 121.246L93.587 120.686C93.947 120.686 94.147 120.926 94.147 121.086C94.147 122.966 93.027 125.806 92.467 127.686C92.227 128.446 90.747 129.406 89.987 129.406C89.987 127.446 88.827 126.366 87.347 126.366C85.827 126.366 84.507 127.446 84.507 129.006C84.507 129.766 85.107 130.566 85.667 131.126C86.067 131.206 86.347 131.446 86.787 131.446C87.107 131.646 87.507 131.646 87.907 131.646C88.427 131.646 89.027 131.646 89.387 131.446L90.907 130.886C91.067 130.886 91.307 130.686 91.507 130.686C91.547 130.686 91.627 130.806 91.627 130.886C91.627 131.126 91.507 131.646 91.507 131.646C91.507 131.646 90.147 136.966 89.987 137.526C89.587 138.646 88.267 139.406 87.507 139.406C87.507 137.526 86.347 136.406 84.867 136.406C83.387 136.406 82.027 137.526 82.027 139.086C82.027 139.806 82.587 140.566 83.147 141.126C83.587 141.326 83.947 141.526 84.307 141.526C84.707 141.686 85.107 141.686 85.427 141.686C86.027 141.686 86.547 141.686 86.907 141.526L88.427 140.966C89.027 140.966 89.027 141.326 89.027 141.526L87.507 147.966C87.107 149.046 85.827 149.646 85.107 149.646C85.107 147.766 83.947 146.606 82.427 146.606C80.907 146.606 79.587 147.766 79.587 149.246C79.587 150.006 80.147 150.726 80.707 151.326L81.867 151.886L82.587 151.886C83.147 151.886 83.947 151.886 84.507 151.726L86.027 151.166C86.547 151.166 86.547 151.726 86.547 151.886L85.107 158.166C84.707 159.286 83.587 159.686 82.987 159.846C82.587 159.846 81.667 156.646 80.147 156.646C78.627 156.646 77.267 157.966 77.267 159.286C77.267 160.246 77.867 160.966 78.427 161.366L79.587 161.926C79.947 161.926 80.347 162.126 80.707 162.126C81.267 162.126 81.867 161.926 82.227 161.766C82.827 161.566 83.147 161.566 83.707 161.206C83.947 161.206 84.147 161.566 84.147 161.766C84.147 161.926 83.387 166.126 82.587 168.206C82.227 169.166 81.107 169.526 80.507 169.726C80.507 167.646 78.987 166.526 77.707 166.526C76.347 166.526 75.027 167.806 75.027 169.166C75.027 170.086 75.627 170.846 76.187 171.206L77.267 171.766C77.707 171.766 78.067 172.006 78.427 172.006C78.987 172.006 79.587 171.766 79.947 171.566C80.507 171.406 80.907 171.406 81.267 171.006C81.467 171.006 81.667 171.406 81.667 171.566C81.667 172.126 80.507 177.086 80.347 177.686C79.947 178.806 78.627 179.366 78.067 179.526C78.067 177.446 76.747 176.286 75.427 176.286C73.907 176.286 72.747 177.686 72.747 178.966C72.747 179.966 73.147 180.686 73.707 181.046L74.867 181.646C75.187 181.646 75.627 181.806 75.987 181.806C76.547 181.806 77.147 181.646 77.467 181.446C78.067 181.246 78.427 181.246 78.987 180.846C79.187 180.846 79.427 181.246 79.427 181.446C79.187 181.646 77.867 187.926 77.707 188.446C77.267 189.406 76.347 189.766 75.747 189.766C75.747 187.686 74.467 186.526 73.147 186.526C71.627 186.526 70.467 187.926 70.467 189.206C70.467 190.166 70.907 190.926 71.467 191.286L72.547 191.886C72.947 191.886 73.307 192.046 73.707 192.046C74.267 192.046 74.867 191.886 75.187 191.646L76.547 191.286C76.907 191.286 76.907 191.486 76.907 191.646C76.747 192.206 74.267 202.406 74.067 202.646C74.067 202.806 74.867 203.566 75.187 203.566C76.347 203.566 76.547 203.366 76.747 202.806C76.747 202.406 90.907 142.246 93.027 132.406C93.027 132.406 97.187 117.286 97.187 116.926C97.187 116.526 96.787 116.326 96.787 116.326Z"></path></g></g><g transform="translate(1980.8652656586748)"><g></g><g><line stroke="black" stroke-width="1.6" x1="110.15179897188995" x2="110.15179897188995" y1="143.8461538461538" y2="183.8461538461538"></line></g><g><path d="M96.787 116.326C95.307 116.926 94.507 119.206 92.627 119.206C92.627 117.286 91.507 115.966 89.987 115.966C88.427 115.966 87.107 117.286 87.107 118.806C87.107 119.526 87.667 120.326 88.267 120.926L89.387 121.486C89.787 121.486 90.147 121.646 90.547 121.646C91.067 121.646 91.627 121.486 92.067 121.246L93.587 120.686C93.947 120.686 94.147 120.926 94.147 121.086C94.147 122.966 93.027 125.806 92.467 127.686C92.227 128.446 90.747 129.406 89.987 129.406C89.987 127.446 88.827 126.366 87.347 126.366C85.827 126.366 84.507 127.446 84.507 129.006C84.507 129.766 85.107 130.566 85.667 131.126C86.067 131.206 86.347 131.446 86.787 131.446C87.107 131.646 87.507 131.646 87.907 131.646C88.427 131.646 89.027 131.646 89.387 131.446L90.907 130.886C91.067 130.886 91.307 130.686 91.507 130.686C91.547 130.686 91.627 130.806 91.627 130.886C91.627 131.126 91.507 131.646 91.507 131.646C91.507 131.646 90.147 136.966 89.987 137.526C89.587 138.646 88.267 139.406 87.507 139.406C87.507 137.526 86.347 136.406 84.867 136.406C83.387 136.406 82.027 137.526 82.027 139.086C82.027 139.806 82.587 140.566 83.147 141.126C83.587 141.326 83.947 141.526 84.307 141.526C84.707 141.686 85.107 141.686 85.427 141.686C86.027 141.686 86.547 141.686 86.907 141.526L88.427 140.966C89.027 140.966 89.027 141.326 89.027 141.526L87.507 147.966C87.107 149.046 85.827 149.646 85.107 149.646C85.107 147.766 83.947 146.606 82.427 146.606C80.907 146.606 79.587 147.766 79.587 149.246C79.587 150.006 80.147 150.726 80.707 151.326L81.867 151.886L82.587 151.886C83.147 151.886 83.947 151.886 84.507 151.726L86.027 151.166C86.547 151.166 86.547 151.726 86.547 151.886L85.107 158.166C84.707 159.286 83.587 159.686 82.987 159.846C82.587 159.846 81.667 156.646 80.147 156.646C78.627 156.646 77.267 157.966 77.267 159.286C77.267 160.246 77.867 160.966 78.427 161.366L79.587 161.926C79.947 161.926 80.347 162.126 80.707 162.126C81.267 162.126 81.867 161.926 82.227 161.766C82.827 161.566 83.147 161.566 83.707 161.206C83.947 161.206 84.147 161.566 84.147 161.766C84.147 161.926 83.387 166.126 82.587 168.206C82.227 169.166 81.107 169.526 80.507 169.726C80.507 167.646 78.987 166.526 77.707 166.526C76.347 166.526 75.027 167.806 75.027 169.166C75.027 170.086 75.627 170.846 76.187 171.206L77.267 171.766C77.707 171.766 78.067 172.006 78.427 172.006C78.987 172.006 79.587 171.766 79.947 171.566C80.507 171.406 80.907 171.406 81.267 171.006C81.467 171.006 81.667 171.406 81.667 171.566C81.667 172.126 80.507 177.086 80.347 177.686C79.947 178.806 78.627 179.366 78.067 179.526C78.067 177.446 76.747 176.286 75.427 176.286C73.907 176.286 72.747 177.686 72.747 178.966C72.747 179.966 73.147 180.686 73.707 181.046L74.867 181.646C75.187 181.646 75.627 181.806 75.987 181.806C76.547 181.806 77.147 181.646 77.467 181.446C78.067 181.246 78.427 181.246 78.987 180.846C79.187 180.846 79.427 181.246 79.427 181.446C79.187 181.646 77.867 187.926 77.707 188.446C77.267 189.406 76.347 189.766 75.747 189.766C75.747 187.686 74.467 186.526 73.147 186.526C71.627 186.526 70.467 187.926 70.467 189.206C70.467 190.166 70.907 190.926 71.467 191.286L72.547 191.886C72.947 191.886 73.307 192.046 73.707 192.046C74.267 192.046 74.867 191.886 75.187 191.646L76.547 191.286C76.907 191.286 76.907 191.486 76.907 191.646C76.747 192.206 74.267 202.406 74.067 202.646C74.067 202.806 74.867 203.566 75.187 203.566C76.347 203.566 76.547 203.366 76.747 202.806C76.747 202.406 90.907 142.246 93.027 132.406C93.027 132.406 97.187 117.286 97.187 116.926C97.187 116.526 96.787 116.326 96.787 116.326Z"></path></g></g><g transform="translate(93.84615384615385)"><g><g><line stroke="#6A6A6A" stroke-width="1.3" x1="0" x2="9616.32744294833" y1="314.8461538461538" y2="314.8461538461538"></line><line stroke="#6A6A6A" stroke-width="1.3" x1="0" x2="9616.32744294833" y1="304.8461538461538" y2="304.8461538461538"></line><line stroke="#6A6A6A" stroke-width="1.3" x1="0" x2="9616.32744294833" y1="294.8461538461538" y2="294.8461538461538"></line><line stroke="#6A6A6A" stroke-width="1.3" x1="0" x2="9616.32744294833" y1="284.8461538461538" y2="284.8461538461538"></line><line stroke="#6A6A6A" stroke-width="1.3" x1="0" x2="9616.32744294833" y1="274.8461538461538" y2="274.8461538461538"></line></g><g><path d="M25.200 260.926C24.640 260.926 23.400 261.966 22.600 262.846C19.640 266.126 18.680 271.126 18.680 275.286C18.680 277.606 18.960 280.206 19.240 281.846C19.320 282.326 19.360 282.406 18.880 282.806C16.320 284.926 13.560 287.366 11.480 289.926C8.720 293.366 7 297.086 7 301.366C7 308.326 11.760 314.926 21.560 314.926C22.480 314.926 23.520 314.846 24.320 314.686C24.760 314.606 24.840 314.566 24.920 315.046C25.400 317.726 26 321.206 26 323.086C26 329.006 22 329.726 19.640 329.726C17.480 329.726 16.440 329.086 16.440 328.566C16.440 328.126 16.800 328.166 17.720 327.886C18.960 327.526 20.400 326.446 20.400 324.126C20.400 321.926 19 320.046 16.560 320.046C13.880 320.046 12.280 322.166 12.280 324.646C12.280 327.246 13.840 331.166 19.880 331.166C22.560 331.166 27.760 329.966 27.760 323.166C27.760 320.886 27.040 317.086 26.600 314.606C26.520 314.126 26.560 314.166 27.120 313.926C31.160 312.326 33.840 308.926 33.840 304.406C33.840 299.286 30.080 294.766 24.200 294.766C23.080 294.766 23.200 294.966 23.040 294.046L22.040 288.246C21.960 287.766 22.040 287.726 22.280 287.486C22.920 286.886 23.760 286.046 24.520 285.206C27.880 281.526 29.880 276.766 29.880 272.246C29.880 268.766 28.920 265.326 27.280 262.926C26.680 262.046 25.640 260.926 25.200 260.926ZM20.040 289.086C20.440 288.766 20.520 288.806 20.600 289.246L21.440 294.366C21.560 295.126 21.560 295.086 20.840 295.326C17.320 296.526 15.040 299.686 15.040 303.086C15.040 306.686 16.920 309.246 19.640 310.166C19.960 310.286 20.440 310.406 20.720 310.406C21.040 310.406 21.200 310.206 21.200 309.966C21.200 309.686 20.880 309.566 20.600 309.446C18.920 308.726 17.720 307.006 17.720 305.166C17.720 302.886 19.280 301.166 21.720 300.486C22.360 300.326 22.440 300.366 22.520 300.806L24.520 312.726C24.600 313.166 24.560 313.166 23.960 313.286C23.320 313.406 22.520 313.486 21.720 313.486C14.720 313.486 10.200 309.606 10.200 304.046C10.200 301.686 10.600 298.526 13.920 294.766C16.320 292.086 18.160 290.606 20.040 289.086ZM24.640 300.166C27.880 300.446 30.560 303.166 30.560 306.686C30.560 309.206 29.040 311.246 26.800 312.366C26.320 312.606 26.240 312.606 26.160 312.126L24.200 300.726C24.120 300.246 24.160 300.126 24.640 300.166ZM25.800 267.126C27.120 267.126 28.200 268.206 28.200 270.406C28.200 273.166 26.880 275.726 23.760 278.846C23.120 279.486 22.160 280.406 21.240 281.206C20.960 281.446 20.800 281.406 20.720 280.886C20.560 279.846 20.480 278.486 20.480 277.206C20.480 270.966 23.360 267.126 25.800 267.126Z"></path></g><g></g><text font-family='Alegreya' font-style='italic' text-anchor='end' stroke='#7a7a7a' font-size="24" x="0" y="264.8461538461538">4</text></g><g><line stroke="black" stroke-width="1.6" x1="2427.931989140422" x2="2427.931989140422" y1="274.8461538461538" y2="314.8461538461538"></line></g><g><path d="M370.801 247.326C369.321 247.926 368.521 250.206 366.641 250.206C366.641 248.286 365.521 246.966 364.001 246.966C362.441 246.966 361.121 248.286 361.121 249.806C361.121 250.526 361.681 251.326 362.281 251.926L363.401 252.486C363.801 252.486 364.161 252.646 364.561 252.646C365.081 252.646 365.641 252.486 366.081 252.246L367.601 251.686C367.961 251.686 368.161 251.926 368.161 252.086C368.161 253.966 367.041 256.806 366.481 258.686C366.241 259.446 364.761 260.406 364.001 260.406C364.001 258.446 362.841 257.366 361.361 257.366C359.841 257.366 358.521 258.446 358.521 260.006C358.521 260.766 359.121 261.566 359.681 262.126C360.081 262.206 360.361 262.446 360.801 262.446C361.121 262.646 361.521 262.646 361.921 262.646C362.441 262.646 363.041 262.646 363.401 262.446L364.921 261.886C365.081 261.886 365.321 261.686 365.521 261.686C365.561 261.686 365.641 261.806 365.641 261.886C365.641 262.126 365.521 262.646 365.521 262.646C365.521 262.646 364.161 267.966 364.001 268.526C363.601 269.646 362.281 270.406 361.521 270.406C361.521 268.526 360.361 267.406 358.881 267.406C357.401 267.406 356.041 268.526 356.041 270.086C356.041 270.806 356.601 271.566 357.161 272.126C357.601 272.326 357.961 272.526 358.321 272.526C358.721 272.686 359.121 272.686 359.441 272.686C360.041 272.686 360.561 272.686 360.921 272.526L362.441 271.966C363.041 271.966 363.041 272.326 363.041 272.526L361.521 278.966C361.121 280.046 359.841 280.646 359.121 280.646C359.121 278.766 357.961 277.606 356.441 277.606C354.921 277.606 353.601 278.766 353.601 280.246C353.601 281.006 354.161 281.726 354.721 282.326L355.881 282.886L356.601 282.886C357.161 282.886 357.961 282.886 358.521 282.726L360.041 282.166C360.561 282.166 360.561 282.726 360.561 282.886L359.121 289.166C358.721 290.286 357.601 290.686 357.001 290.846C356.601 290.846 355.681 287.646 354.161 287.646C352.641 287.646 351.281 288.966 351.281 290.286C351.281 291.246 351.881 291.966 352.441 292.366L353.601 292.926C353.961 292.926 354.361 293.126 354.721 293.126C355.281 293.126 355.881 292.926 356.241 292.766C356.841 292.566 357.161 292.566 357.721 292.206C357.961 292.206 358.161 292.566 358.161 292.766C358.161 292.926 357.401 297.126 356.601 299.206C356.241 300.166 355.121 300.526 354.521 300.726C354.521 298.646 353.001 297.526 351.721 297.526C350.361 297.526 349.041 298.806 349.041 300.166C349.041 301.086 349.641 301.846 350.201 302.206L351.281 302.766C351.721 302.766 352.081 303.006 352.441 303.006C353.001 303.006 353.601 302.766 353.961 302.566C354.521 302.406 354.921 302.406 355.281 302.006C355.481 302.006 355.681 302.406 355.681 302.566C355.681 303.126 354.521 308.086 354.361 308.686C353.961 309.806 352.641 310.366 352.081 310.526C352.081 308.446 350.761 307.286 349.441 307.286C347.921 307.286 346.761 308.686 346.761 309.966C346.761 310.966 347.161 311.686 347.721 312.046L348.881 312.646C349.201 312.646 349.641 312.806 350.001 312.806C350.561 312.806 351.161 312.646 351.481 312.446C352.081 312.246 352.441 312.246 353.001 311.846C353.201 311.846 353.441 312.246 353.441 312.446C353.201 312.646 351.881 318.926 351.721 319.446C351.281 320.406 350.361 320.766 349.761 320.766C349.761 318.686 348.481 317.526 347.161 317.526C345.641 317.526 344.481 318.926 344.481 320.206C344.481 321.166 344.921 321.926 345.481 322.286L346.561 322.886C346.961 322.886 347.321 323.046 347.721 323.046C348.281 323.046 348.881 322.886 349.201 322.646L350.561 322.286C350.921 322.286 350.921 322.486 350.921 322.646C350.761 323.206 348.281 333.406 348.081 333.646C348.081 333.806 348.881 334.566 349.201 334.566C350.361 334.566 350.561 334.366 350.761 333.806C350.761 333.406 364.921 273.246 367.041 263.406C367.041 263.406 371.201 248.286 371.201 247.926C371.201 247.526 370.801 247.326 370.801 247.326Z"></path></g></g><g transform="translate(2537.5781429865756)"><g></g><g><line stroke="black" stroke-width="1.6" x1="2379.431989140422" x2="2379.431989140422" y1="274.8461538461538" y2="314.8461538461538"></line></g><g><path d="M322.301 247.326C320.821 247.926 320.021 250.206 318.141 250.206C318.141 248.286 317.021 246.966 315.501 246.966C313.941 246.966 312.621 248.286 312.621 249.806C312.621 250.526 313.181 251.326 313.781 251.926L314.901 252.486C315.301 252.486 315.661 252.646 316.061 252.646C316.581 252.646 317.141 252.486 317.581 252.246L319.101 251.686C319.461 251.686 319.661 251.926 319.661 252.086C319.661 253.966 318.541 256.806 317.981 258.686C317.741 259.446 316.261 260.406 315.501 260.406C315.501 258.446 314.341 257.366 312.861 257.366C311.341 257.366 310.021 258.446 310.021 260.006C310.021 260.766 310.621 261.566 311.181 262.126C311.581 262.206 311.861 262.446 312.301 262.446C312.621 262.646 313.021 262.646 313.421 262.646C313.941 262.646 314.541 262.646 314.901 262.446L316.421 261.886C316.581 261.886 316.821 261.686 317.021 261.686C317.061 261.686 317.141 261.806 317.141 261.886C317.141 262.126 317.021 262.646 317.021 262.646C317.021 262.646 315.661 267.966 315.501 268.526C315.101 269.646 313.781 270.406 313.021 270.406C313.021 268.526 311.861 267.406 310.381 267.406C308.901 267.406 307.541 268.526 307.541 270.086C307.541 270.806 308.101 271.566 308.661 272.126C309.101 272.326 309.461 272.526 309.821 272.526C310.221 272.686 310.621 272.686 310.941 272.686C311.541 272.686 312.061 272.686 312.421 272.526L313.941 271.966C314.541 271.966 314.541 272.326 314.541 272.526L313.021 278.966C312.621 280.046 311.341 280.646 310.621 280.646C310.621 278.766 309.461 277.606 307.941 277.606C306.421 277.606 305.101 278.766 305.101 280.246C305.101 281.006 305.661 281.726 306.221 282.326L307.381 282.886L308.101 282.886C308.661 282.886 309.461 282.886 310.021 282.726L311.541 282.166C312.061 282.166 312.061 282.726 312.061 282.886L310.621 289.166C310.221 290.286 309.101 290.686 308.501 290.846C308.101 290.846 307.181 287.646 305.661 287.646C304.141 287.646 302.781 288.966 302.781 290.286C302.781 291.246 303.381 291.966 303.941 292.366L305.101 292.926C305.461 292.926 305.861 293.126 306.221 293.126C306.781 293.126 307.381 292.926 307.741 292.766C308.341 292.566 308.661 292.566 309.221 292.206C309.461 292.206 309.661 292.566 309.661 292.766C309.661 292.926 308.901 297.126 308.101 299.206C307.741 300.166 306.621 300.526 306.021 300.726C306.021 298.646 304.501 297.526 303.221 297.526C301.861 297.526 300.541 298.806 300.541 300.166C300.541 301.086 301.141 301.846 301.701 302.206L302.781 302.766C303.221 302.766 303.581 303.006 303.941 303.006C304.501 303.006 305.101 302.766 305.461 302.566C306.021 302.406 306.421 302.406 306.781 302.006C306.981 302.006 307.181 302.406 307.181 302.566C307.181 303.126 306.021 308.086 305.861 308.686C305.461 309.806 304.141 310.366 303.581 310.526C303.581 308.446 302.261 307.286 300.941 307.286C299.421 307.286 298.261 308.686 298.261 309.966C298.261 310.966 298.661 311.686 299.221 312.046L300.381 312.646C300.701 312.646 301.141 312.806 301.501 312.806C302.061 312.806 302.661 312.646 302.981 312.446C303.581 312.246 303.941 312.246 304.501 311.846C304.701 311.846 304.941 312.246 304.941 312.446C304.701 312.646 303.381 318.926 303.221 319.446C302.781 320.406 301.861 320.766 301.261 320.766C301.261 318.686 299.981 317.526 298.661 317.526C297.141 317.526 295.981 318.926 295.981 320.206C295.981 321.166 296.421 321.926 296.981 322.286L298.061 322.886C298.461 322.886 298.821 323.046 299.221 323.046C299.781 323.046 300.381 322.886 300.701 322.646L302.061 322.286C302.421 322.286 302.421 322.486 302.421 322.646C302.261 323.206 299.781 333.406 299.581 333.646C299.581 333.806 300.381 334.566 300.701 334.566C301.861 334.566 302.061 334.366 302.261 333.806C302.261 333.406 316.421 273.246 318.541 263.406C318.541 263.406 322.701 248.286 322.701 247.926C322.701 247.526 322.301 247.326 322.301 247.326Z"></path></g></g><g transform="translate(4932.810132126998)"><g></g><g><line stroke="black" stroke-width="1.6" x1="2083.75032223899" x2="2083.75032223899" y1="274.8461538461538" y2="314.8461538461538"></line></g><g><line stroke="black" stroke-width="1.6" x1="2381.3314755270653" x2="2381.3314755270653" y1="274.8461538461538" y2="314.8461538461538"></line></g><g><path d="M1849.415 247.326C1847.935 247.926 1847.135 250.206 1845.255 250.206C1845.255 248.286 1844.135 246.966 1842.615 246.966C1841.055 246.966 1839.735 248.286 1839.735 249.806C1839.735 250.526 1840.295 251.326 1840.895 251.926L1842.015 252.486C1842.415 252.486 1842.775 252.646 1843.175 252.646C1843.695 252.646 1844.255 252.486 1844.695 252.246L1846.215 251.686C1846.575 251.686 1846.775 251.926 1846.775 252.086C1846.775 253.966 1845.655 256.806 1845.095 258.686C1844.855 259.446 1843.375 260.406 1842.615 260.406C1842.615 258.446 1841.455 257.366 1839.975 257.366C1838.455 257.366 1837.135 258.446 1837.135 260.006C1837.135 260.766 1837.735 261.566 1838.295 262.126C1838.695 262.206 1838.975 262.446 1839.415 262.446C1839.735 262.646 1840.135 262.646 1840.535 262.646C1841.055 262.646 1841.655 262.646 1842.015 262.446L1843.535 261.886C1843.695 261.886 1843.935 261.686 1844.135 261.686C1844.175 261.686 1844.255 261.806 1844.255 261.886C1844.255 262.126 1844.135 262.646 1844.135 262.646C1844.135 262.646 1842.775 267.966 1842.615 268.526C1842.215 269.646 1840.895 270.406 1840.135 270.406C1840.135 268.526 1838.975 267.406 1837.495 267.406C1836.015 267.406 1834.655 268.526 1834.655 270.086C1834.655 270.806 1835.215 271.566 1835.775 272.126C1836.215 272.326 1836.575 272.526 1836.935 272.526C1837.335 272.686 1837.735 272.686 1838.055 272.686C1838.655 272.686 1839.175 272.686 1839.535 272.526L1841.055 271.966C1841.655 271.966 1841.655 272.326 1841.655 272.526L1840.135 278.966C1839.735 280.046 1838.455 280.646 1837.735 280.646C1837.735 278.766 1836.575 277.606 1835.055 277.606C1833.535 277.606 1832.215 278.766 1832.215 280.246C1832.215 281.006 1832.775 281.726 1833.335 282.326L1834.495 282.886L1835.215 282.886C1835.775 282.886 1836.575 282.886 1837.135 282.726L1838.655 282.166C1839.175 282.166 1839.175 282.726 1839.175 282.886L1837.735 289.166C1837.335 290.286 1836.215 290.686 1835.615 290.846C1835.215 290.846 1834.295 287.646 1832.775 287.646C1831.255 287.646 1829.895 288.966 1829.895 290.286C1829.895 291.246 1830.495 291.966 1831.055 292.366L1832.215 292.926C1832.575 292.926 1832.975 293.126 1833.335 293.126C1833.895 293.126 1834.495 292.926 1834.855 292.766C1835.455 292.566 1835.775 292.566 1836.335 292.206C1836.575 292.206 1836.775 292.566 1836.775 292.766C1836.775 292.926 1836.015 297.126 1835.215 299.206C1834.855 300.166 1833.735 300.526 1833.135 300.726C1833.135 298.646 1831.615 297.526 1830.335 297.526C1828.975 297.526 1827.655 298.806 1827.655 300.166C1827.655 301.086 1828.255 301.846 1828.815 302.206L1829.895 302.766C1830.335 302.766 1830.695 303.006 1831.055 303.006C1831.615 303.006 1832.215 302.766 1832.575 302.566C1833.135 302.406 1833.535 302.406 1833.895 302.006C1834.095 302.006 1834.295 302.406 1834.295 302.566C1834.295 303.126 1833.135 308.086 1832.975 308.686C1832.575 309.806 1831.255 310.366 1830.695 310.526C1830.695 308.446 1829.375 307.286 1828.055 307.286C1826.535 307.286 1825.375 308.686 1825.375 309.966C1825.375 310.966 1825.775 311.686 1826.335 312.046L1827.495 312.646C1827.815 312.646 1828.255 312.806 1828.615 312.806C1829.175 312.806 1829.775 312.646 1830.095 312.446C1830.695 312.246 1831.055 312.246 1831.615 311.846C1831.815 311.846 1832.055 312.246 1832.055 312.446C1831.815 312.646 1830.495 318.926 1830.335 319.446C1829.895 320.406 1828.975 320.766 1828.375 320.766C1828.375 318.686 1827.095 317.526 1825.775 317.526C1824.255 317.526 1823.095 318.926 1823.095 320.206C1823.095 321.166 1823.535 321.926 1824.095 322.286L1825.175 322.886C1825.575 322.886 1825.935 323.046 1826.335 323.046C1826.895 323.046 1827.495 322.886 1827.815 322.646L1829.175 322.286C1829.535 322.286 1829.535 322.486 1829.535 322.646C1829.375 323.206 1826.895 333.406 1826.695 333.646C1826.695 333.806 1827.495 334.566 1827.815 334.566C1828.975 334.566 1829.175 334.366 1829.375 333.806C1829.375 333.406 1843.535 273.246 1845.655 263.406C1845.655 263.406 1849.815 248.286 1849.815 247.926C1849.815 247.526 1849.415 247.326 1849.415 247.326Z"></path></g></g><g transform="translate(7329.941607654063)"><g></g><g><line stroke="black" stroke-width="1.6" x1="2379.431989140422" x2="2379.431989140422" y1="274.8461538461538" y2="314.8461538461538"></line></g><g><path d="M322.301 247.326C320.821 247.926 320.021 250.206 318.141 250.206C318.141 248.286 317.021 246.966 315.501 246.966C313.941 246.966 312.621 248.286 312.621 249.806C312.621 250.526 313.181 251.326 313.781 251.926L314.901 252.486C315.301 252.486 315.661 252.646 316.061 252.646C316.581 252.646 317.141 252.486 317.581 252.246L319.101 251.686C319.461 251.686 319.661 251.926 319.661 252.086C319.661 253.966 318.541 256.806 317.981 258.686C317.741 259.446 316.261 260.406 315.501 260.406C315.501 258.446 314.341 257.366 312.861 257.366C311.341 257.366 310.021 258.446 310.021 260.006C310.021 260.766 310.621 261.566 311.181 262.126C311.581 262.206 311.861 262.446 312.301 262.446C312.621 262.646 313.021 262.646 313.421 262.646C313.941 262.646 314.541 262.646 314.901 262.446L316.421 261.886C316.581 261.886 316.821 261.686 317.021 261.686C317.061 261.686 317.141 261.806 317.141 261.886C317.141 262.126 317.021 262.646 317.021 262.646C317.021 262.646 315.661 267.966 315.501 268.526C315.101 269.646 313.781 270.406 313.021 270.406C313.021 268.526 311.861 267.406 310.381 267.406C308.901 267.406 307.541 268.526 307.541 270.086C307.541 270.806 308.101 271.566 308.661 272.126C309.101 272.326 309.461 272.526 309.821 272.526C310.221 272.686 310.621 272.686 310.941 272.686C311.541 272.686 312.061 272.686 312.421 272.526L313.941 271.966C314.541 271.966 314.541 272.326 314.541 272.526L313.021 278.966C312.621 280.046 311.341 280.646 310.621 280.646C310.621 278.766 309.461 277.606 307.941 277.606C306.421 277.606 305.101 278.766 305.101 280.246C305.101 281.006 305.661 281.726 306.221 282.326L307.381 282.886L308.101 282.886C308.661 282.886 309.461 282.886 310.021 282.726L311.541 282.166C312.061 282.166 312.061 282.726 312.061 282.886L310.621 289.166C310.221 290.286 309.101 290.686 308.501 290.846C308.101 290.846 307.181 287.646 305.661 287.646C304.141 287.646 302.781 288.966 302.781 290.286C302.781 291.246 303.381 291.966 303.941 292.366L305.101 292.926C305.461 292.926 305.861 293.126 306.221 293.126C306.781 293.126 307.381 292.926 307.741 292.766C308.341 292.566 308.661 292.566 309.221 292.206C309.461 292.206 309.661 292.566 309.661 292.766C309.661 292.926 308.901 297.126 308.101 299.206C307.741 300.166 306.621 300.526 306.021 300.726C306.021 298.646 304.501 297.526 303.221 297.526C301.861 297.526 300.541 298.806 300.541 300.166C300.541 301.086 301.141 301.846 301.701 302.206L302.781 302.766C303.221 302.766 303.581 303.006 303.941 303.006C304.501 303.006 305.101 302.766 305.461 302.566C306.021 302.406 306.421 302.406 306.781 302.006C306.981 302.006 307.181 302.406 307.181 302.566C307.181 303.126 306.021 308.086 305.861 308.686C305.461 309.806 304.141 310.366 303.581 310.526C303.581 308.446 302.261 307.286 300.941 307.286C299.421 307.286 298.261 308.686 298.261 309.966C298.261 310.966 298.661 311.686 299.221 312.046L300.381 312.646C300.701 312.646 301.141 312.806 301.501 312.806C302.061 312.806 302.661 312.646 302.981 312.446C303.581 312.246 303.941 312.246 304.501 311.846C304.701 311.846 304.941 312.246 304.941 312.446C304.701 312.646 303.381 318.926 303.221 319.446C302.781 320.406 301.861 320.766 301.261 320.766C301.261 318.686 299.981 317.526 298.661 317.526C297.141 317.526 295.981 318.926 295.981 320.206C295.981 321.166 296.421 321.926 296.981 322.286L298.061 322.886C298.461 322.886 298.821 323.046 299.221 323.046C299.781 323.046 300.381 322.886 300.701 322.646L302.061 322.286C302.421 322.286 302.421 322.486 302.421 322.646C302.261 323.206 299.781 333.406 299.581 333.646C299.581 333.806 300.381 334.566 300.701 334.566C301.861 334.566 302.061 334.366 302.261 333.806C302.261 333.406 316.421 273.246 318.541 263.406C318.541 263.406 322.701 248.286 322.701 247.926C322.701 247.526 322.301 247.326 322.301 247.326Z"></path></g></g><g transform="translate(93.84615384615385)"><g><g><line stroke="#6A6A6A" stroke-width="1.3" x1="0" x2="9518.910803766066" y1="445.8461538461538" y2="445.8461538461538"></line><line stroke="#6A6A6A" stroke-width="1.3" x1="0" x2="9518.910803766066" y1="435.8461538461538" y2="435.8461538461538"></line><line stroke="#6A6A6A" stroke-width="1.3" x1="0" x2="9518.910803766066" y1="425.8461538461538" y2="425.8461538461538"></line><line stroke="#6A6A6A" stroke-width="1.3" x1="0" x2="9518.910803766066" y1="415.8461538461538" y2="415.8461538461538"></line><line stroke="#6A6A6A" stroke-width="1.3" x1="0" x2="9518.910803766066" y1="405.8461538461538" y2="405.8461538461538"></line></g><g><path d="M25.200 391.926C24.640 391.926 23.400 392.966 22.600 393.846C19.640 397.126 18.680 402.126 18.680 406.286C18.680 408.606 18.960 411.206 19.240 412.846C19.320 413.326 19.360 413.406 18.880 413.806C16.320 415.926 13.560 418.366 11.480 420.926C8.720 424.366 7 428.086 7 432.366C7 439.326 11.760 445.926 21.560 445.926C22.480 445.926 23.520 445.846 24.320 445.686C24.760 445.606 24.840 445.566 24.920 446.046C25.400 448.726 26 452.206 26 454.086C26 460.006 22 460.726 19.640 460.726C17.480 460.726 16.440 460.086 16.440 459.566C16.440 459.126 16.800 459.166 17.720 458.886C18.960 458.526 20.400 457.446 20.400 455.126C20.400 452.926 19 451.046 16.560 451.046C13.880 451.046 12.280 453.166 12.280 455.646C12.280 458.246 13.840 462.166 19.880 462.166C22.560 462.166 27.760 460.966 27.760 454.166C27.760 451.886 27.040 448.086 26.600 445.606C26.520 445.126 26.560 445.166 27.120 444.926C31.160 443.326 33.840 439.926 33.840 435.406C33.840 430.286 30.080 425.766 24.200 425.766C23.080 425.766 23.200 425.966 23.040 425.046L22.040 419.246C21.960 418.766 22.040 418.726 22.280 418.486C22.920 417.886 23.760 417.046 24.520 416.206C27.880 412.526 29.880 407.766 29.880 403.246C29.880 399.766 28.920 396.326 27.280 393.926C26.680 393.046 25.640 391.926 25.200 391.926ZM20.040 420.086C20.440 419.766 20.520 419.806 20.600 420.246L21.440 425.366C21.560 426.126 21.560 426.086 20.840 426.326C17.320 427.526 15.040 430.686 15.040 434.086C15.040 437.686 16.920 440.246 19.640 441.166C19.960 441.286 20.440 441.406 20.720 441.406C21.040 441.406 21.200 441.206 21.200 440.966C21.200 440.686 20.880 440.566 20.600 440.446C18.920 439.726 17.720 438.006 17.720 436.166C17.720 433.886 19.280 432.166 21.720 431.486C22.360 431.326 22.440 431.366 22.520 431.806L24.520 443.726C24.600 444.166 24.560 444.166 23.960 444.286C23.320 444.406 22.520 444.486 21.720 444.486C14.720 444.486 10.200 440.606 10.200 435.046C10.200 432.686 10.600 429.526 13.920 425.766C16.320 423.086 18.160 421.606 20.040 420.086ZM24.640 431.166C27.880 431.446 30.560 434.166 30.560 437.686C30.560 440.206 29.040 442.246 26.800 443.366C26.320 443.606 26.240 443.606 26.160 443.126L24.200 431.726C24.120 431.246 24.160 431.126 24.640 431.166ZM25.800 398.126C27.120 398.126 28.200 399.206 28.200 401.406C28.200 404.166 26.880 406.726 23.760 409.846C23.120 410.486 22.160 411.406 21.240 412.206C20.960 412.446 20.800 412.406 20.720 411.886C20.560 410.846 20.480 409.486 20.480 408.206C20.480 401.966 23.360 398.126 25.800 398.126Z"></path></g><g></g><text font-family='Alegreya' font-style='italic' text-anchor='end' stroke='#7a7a7a' font-size="24" x="0" y="395.8461538461538">8</text></g><g><line stroke="black" stroke-width="1.6" x1="2400.8546841328043" x2="2400.8546841328043" y1="405.8461538461538" y2="445.8461538461538"></line></g><g><path d="M367.389 378.326C365.909 378.926 365.109 381.206 363.229 381.206C363.229 379.286 362.109 377.966 360.589 377.966C359.029 377.966 357.709 379.286 357.709 380.806C357.709 381.526 358.269 382.326 358.869 382.926L359.989 383.486C360.389 383.486 360.749 383.646 361.149 383.646C361.669 383.646 362.229 383.486 362.669 383.246L364.189 382.686C364.549 382.686 364.749 382.926 364.749 383.086C364.749 384.966 363.629 387.806 363.069 389.686C362.829 390.446 361.349 391.406 360.589 391.406C360.589 389.446 359.429 388.366 357.949 388.366C356.429 388.366 355.109 389.446 355.109 391.006C355.109 391.766 355.709 392.566 356.269 393.126C356.669 393.206 356.949 393.446 357.389 393.446C357.709 393.646 358.109 393.646 358.509 393.646C359.029 393.646 359.629 393.646 359.989 393.446L361.509 392.886C361.669 392.886 361.909 392.686 362.109 392.686C362.149 392.686 362.229 392.806 362.229 392.886C362.229 393.126 362.109 393.646 362.109 393.646C362.109 393.646 360.749 398.966 360.589 399.526C360.189 400.646 358.869 401.406 358.109 401.406C358.109 399.526 356.949 398.406 355.469 398.406C353.989 398.406 352.629 399.526 352.629 401.086C352.629 401.806 353.189 402.566 353.749 403.126C354.189 403.326 354.549 403.526 354.909 403.526C355.309 403.686 355.709 403.686 356.029 403.686C356.629 403.686 357.149 403.686 357.509 403.526L359.029 402.966C359.629 402.966 359.629 403.326 359.629 403.526L358.109 409.966C357.709 411.046 356.429 411.646 355.709 411.646C355.709 409.766 354.549 408.606 353.029 408.606C351.509 408.606 350.189 409.766 350.189 411.246C350.189 412.006 350.749 412.726 351.309 413.326L352.469 413.886L353.189 413.886C353.749 413.886 354.549 413.886 355.109 413.726L356.629 413.166C357.149 413.166 357.149 413.726 357.149 413.886L355.709 420.166C355.309 421.286 354.189 421.686 353.589 421.846C353.189 421.846 352.269 418.646 350.749 418.646C349.229 418.646 347.869 419.966 347.869 421.286C347.869 422.246 348.469 422.966 349.029 423.366L350.189 423.926C350.549 423.926 350.949 424.126 351.309 424.126C351.869 424.126 352.469 423.926 352.829 423.766C353.429 423.566 353.749 423.566 354.309 423.206C354.549 423.206 354.749 423.566 354.749 423.766C354.749 423.926 353.989 428.126 353.189 430.206C352.829 431.166 351.709 431.526 351.109 431.726C351.109 429.646 349.589 428.526 348.309 428.526C346.949 428.526 345.629 429.806 345.629 431.166C345.629 432.086 346.229 432.846 346.789 433.206L347.869 433.766C348.309 433.766 348.669 434.006 349.029 434.006C349.589 434.006 350.189 433.766 350.549 433.566C351.109 433.406 351.509 433.406 351.869 433.006C352.069 433.006 352.269 433.406 352.269 433.566C352.269 434.126 351.109 439.086 350.949 439.686C350.549 440.806 349.229 441.366 348.669 441.526C348.669 439.446 347.349 438.286 346.029 438.286C344.509 438.286 343.349 439.686 343.349 440.966C343.349 441.966 343.749 442.686 344.309 443.046L345.469 443.646C345.789 443.646 346.229 443.806 346.589 443.806C347.149 443.806 347.749 443.646 348.069 443.446C348.669 443.246 349.029 443.246 349.589 442.846C349.789 442.846 350.029 443.246 350.029 443.446C349.789 443.646 348.469 449.926 348.309 450.446C347.869 451.406 346.949 451.766 346.349 451.766C346.349 449.686 345.069 448.526 343.749 448.526C342.229 448.526 341.069 449.926 341.069 451.206C341.069 452.166 341.509 452.926 342.069 453.286L343.149 453.886C343.549 453.886 343.909 454.046 344.309 454.046C344.869 454.046 345.469 453.886 345.789 453.646L347.149 453.286C347.509 453.286 347.509 453.486 347.509 453.646C347.349 454.206 344.869 464.406 344.669 464.646C344.669 464.806 345.469 465.566 345.789 465.566C346.949 465.566 347.149 465.366 347.349 464.806C347.349 464.406 361.509 404.246 363.629 394.406C363.629 394.406 367.789 379.286 367.789 378.926C367.789 378.526 367.389 378.326 367.389 378.326Z"></path></g></g><g transform="translate(2510.500837978958)"><g></g><g><line stroke="black" stroke-width="1.6" x1="2352.3546841328043" x2="2352.3546841328043" y1="405.8461538461538" y2="445.8461538461538"></line></g><g><path d="M318.889 378.326C317.409 378.926 316.609 381.206 314.729 381.206C314.729 379.286 313.609 377.966 312.089 377.966C310.529 377.966 309.209 379.286 309.209 380.806C309.209 381.526 309.769 382.326 310.369 382.926L311.489 383.486C311.889 383.486 312.249 383.646 312.649 383.646C313.169 383.646 313.729 383.486 314.169 383.246L315.689 382.686C316.049 382.686 316.249 382.926 316.249 383.086C316.249 384.966 315.129 387.806 314.569 389.686C314.329 390.446 312.849 391.406 312.089 391.406C312.089 389.446 310.929 388.366 309.449 388.366C307.929 388.366 306.609 389.446 306.609 391.006C306.609 391.766 307.209 392.566 307.769 393.126C308.169 393.206 308.449 393.446 308.889 393.446C309.209 393.646 309.609 393.646 310.009 393.646C310.529 393.646 311.129 393.646 311.489 393.446L313.009 392.886C313.169 392.886 313.409 392.686 313.609 392.686C313.649 392.686 313.729 392.806 313.729 392.886C313.729 393.126 313.609 393.646 313.609 393.646C313.609 393.646 312.249 398.966 312.089 399.526C311.689 400.646 310.369 401.406 309.609 401.406C309.609 399.526 308.449 398.406 306.969 398.406C305.489 398.406 304.129 399.526 304.129 401.086C304.129 401.806 304.689 402.566 305.249 403.126C305.689 403.326 306.049 403.526 306.409 403.526C306.809 403.686 307.209 403.686 307.529 403.686C308.129 403.686 308.649 403.686 309.009 403.526L310.529 402.966C311.129 402.966 311.129 403.326 311.129 403.526L309.609 409.966C309.209 411.046 307.929 411.646 307.209 411.646C307.209 409.766 306.049 408.606 304.529 408.606C303.009 408.606 301.689 409.766 301.689 411.246C301.689 412.006 302.249 412.726 302.809 413.326L303.969 413.886L304.689 413.886C305.249 413.886 306.049 413.886 306.609 413.726L308.129 413.166C308.649 413.166 308.649 413.726 308.649 413.886L307.209 420.166C306.809 421.286 305.689 421.686 305.089 421.846C304.689 421.846 303.769 418.646 302.249 418.646C300.729 418.646 299.369 419.966 299.369 421.286C299.369 422.246 299.969 422.966 300.529 423.366L301.689 423.926C302.049 423.926 302.449 424.126 302.809 424.126C303.369 424.126 303.969 423.926 304.329 423.766C304.929 423.566 305.249 423.566 305.809 423.206C306.049 423.206 306.249 423.566 306.249 423.766C306.249 423.926 305.489 428.126 304.689 430.206C304.329 431.166 303.209 431.526 302.609 431.726C302.609 429.646 301.089 428.526 299.809 428.526C298.449 428.526 297.129 429.806 297.129 431.166C297.129 432.086 297.729 432.846 298.289 433.206L299.369 433.766C299.809 433.766 300.169 434.006 300.529 434.006C301.089 434.006 301.689 433.766 302.049 433.566C302.609 433.406 303.009 433.406 303.369 433.006C303.569 433.006 303.769 433.406 303.769 433.566C303.769 434.126 302.609 439.086 302.449 439.686C302.049 440.806 300.729 441.366 300.169 441.526C300.169 439.446 298.849 438.286 297.529 438.286C296.009 438.286 294.849 439.686 294.849 440.966C294.849 441.966 295.249 442.686 295.809 443.046L296.969 443.646C297.289 443.646 297.729 443.806 298.089 443.806C298.649 443.806 299.249 443.646 299.569 443.446C300.169 443.246 300.529 443.246 301.089 442.846C301.289 442.846 301.529 443.246 301.529 443.446C301.289 443.646 299.969 449.926 299.809 450.446C299.369 451.406 298.449 451.766 297.849 451.766C297.849 449.686 296.569 448.526 295.249 448.526C293.729 448.526 292.569 449.926 292.569 451.206C292.569 452.166 293.009 452.926 293.569 453.286L294.649 453.886C295.049 453.886 295.409 454.046 295.809 454.046C296.369 454.046 296.969 453.886 297.289 453.646L298.649 453.286C299.009 453.286 299.009 453.486 299.009 453.646C298.849 454.206 296.369 464.406 296.169 464.646C296.169 464.806 296.969 465.566 297.289 465.566C298.449 465.566 298.649 465.366 298.849 464.806C298.849 464.406 313.009 404.246 315.129 394.406C315.129 394.406 319.289 379.286 319.289 378.926C319.289 378.526 318.889 378.326 318.889 378.326Z"></path></g></g><g transform="translate(4878.655522111762)"><g></g><g><line stroke="black" stroke-width="1.6" x1="2060.0819219541513" x2="2060.0819219541513" y1="405.8461538461538" y2="445.8461538461538"></line></g><g><line stroke="black" stroke-width="1.6" x1="2354.2507177502293" x2="2354.2507177502293" y1="405.8461538461538" y2="445.8461538461538"></line></g><g><path d="M1828.396 378.326C1826.916 378.926 1826.116 381.206 1824.236 381.206C1824.236 379.286 1823.116 377.966 1821.596 377.966C1820.036 377.966 1818.716 379.286 1818.716 380.806C1818.716 381.526 1819.276 382.326 1819.876 382.926L1820.996 383.486C1821.396 383.486 1821.756 383.646 1822.156 383.646C1822.676 383.646 1823.236 383.486 1823.676 383.246L1825.196 382.686C1825.556 382.686 1825.756 382.926 1825.756 383.086C1825.756 384.966 1824.636 387.806 1824.076 389.686C1823.836 390.446 1822.356 391.406 1821.596 391.406C1821.596 389.446 1820.436 388.366 1818.956 388.366C1817.436 388.366 1816.116 389.446 1816.116 391.006C1816.116 391.766 1816.716 392.566 1817.276 393.126C1817.676 393.206 1817.956 393.446 1818.396 393.446C1818.716 393.646 1819.116 393.646 1819.516 393.646C1820.036 393.646 1820.636 393.646 1820.996 393.446L1822.516 392.886C1822.676 392.886 1822.916 392.686 1823.116 392.686C1823.156 392.686 1823.236 392.806 1823.236 392.886C1823.236 393.126 1823.116 393.646 1823.116 393.646C1823.116 393.646 1821.756 398.966 1821.596 399.526C1821.196 400.646 1819.876 401.406 1819.116 401.406C1819.116 399.526 1817.956 398.406 1816.476 398.406C1814.996 398.406 1813.636 399.526 1813.636 401.086C1813.636 401.806 1814.196 402.566 1814.756 403.126C1815.196 403.326 1815.556 403.526 1815.916 403.526C1816.316 403.686 1816.716 403.686 1817.036 403.686C1817.636 403.686 1818.156 403.686 1818.516 403.526L1820.036 402.966C1820.636 402.966 1820.636 403.326 1820.636 403.526L1819.116 409.966C1818.716 411.046 1817.436 411.646 1816.716 411.646C1816.716 409.766 1815.556 408.606 1814.036 408.606C1812.516 408.606 1811.196 409.766 1811.196 411.246C1811.196 412.006 1811.756 412.726 1812.316 413.326L1813.476 413.886L1814.196 413.886C1814.756 413.886 1815.556 413.886 1816.116 413.726L1817.636 413.166C1818.156 413.166 1818.156 413.726 1818.156 413.886L1816.716 420.166C1816.316 421.286 1815.196 421.686 1814.596 421.846C1814.196 421.846 1813.276 418.646 1811.756 418.646C1810.236 418.646 1808.876 419.966 1808.876 421.286C1808.876 422.246 1809.476 422.966 1810.036 423.366L1811.196 423.926C1811.556 423.926 1811.956 424.126 1812.316 424.126C1812.876 424.126 1813.476 423.926 1813.836 423.766C1814.436 423.566 1814.756 423.566 1815.316 423.206C1815.556 423.206 1815.756 423.566 1815.756 423.766C1815.756 423.926 1814.996 428.126 1814.196 430.206C1813.836 431.166 1812.716 431.526 1812.116 431.726C1812.116 429.646 1810.596 428.526 1809.316 428.526C1807.956 428.526 1806.636 429.806 1806.636 431.166C1806.636 432.086 1807.236 432.846 1807.796 433.206L1808.876 433.766C1809.316 433.766 1809.676 434.006 1810.036 434.006C1810.596 434.006 1811.196 433.766 1811.556 433.566C1812.116 433.406 1812.516 433.406 1812.876 433.006C1813.076 433.006 1813.276 433.406 1813.276 433.566C1813.276 434.126 1812.116 439.086 1811.956 439.686C1811.556 440.806 1810.236 441.366 1809.676 441.526C1809.676 439.446 1808.356 438.286 1807.036 438.286C1805.516 438.286 1804.356 439.686 1804.356 440.966C1804.356 441.966 1804.756 442.686 1805.316 443.046L1806.476 443.646C1806.796 443.646 1807.236 443.806 1807.596 443.806C1808.156 443.806 1808.756 443.646 1809.076 443.446C1809.676 443.246 1810.036 443.246 1810.596 442.846C1810.796 442.846 1811.036 443.246 1811.036 443.446C1810.796 443.646 1809.476 449.926 1809.316 450.446C1808.876 451.406 1807.956 451.766 1807.356 451.766C1807.356 449.686 1806.076 448.526 1804.756 448.526C1803.236 448.526 1802.076 449.926 1802.076 451.206C1802.076 452.166 1802.516 452.926 1803.076 453.286L1804.156 453.886C1804.556 453.886 1804.916 454.046 1805.316 454.046C1805.876 454.046 1806.476 453.886 1806.796 453.646L1808.156 453.286C1808.516 453.286 1808.516 453.486 1808.516 453.646C1808.356 454.206 1805.876 464.406 1805.676 464.646C1805.676 464.806 1806.476 465.566 1806.796 465.566C1807.956 465.566 1808.156 465.366 1808.356 464.806C1808.356 464.406 1822.516 404.246 1824.636 394.406C1824.636 394.406 1828.796 379.286 1828.796 378.926C1828.796 378.526 1828.396 378.326 1828.396 378.326Z"></path></g></g><g transform="translate(7248.706239861991)"><g></g><g><line stroke="black" stroke-width="1.6" x1="2060.0819219541513" x2="2060.0819219541513" y1="405.8461538461538" y2="445.8461538461538"></line></g><g><line stroke="#000000" stroke-width="1.6" x1="2354.2507177502293" x2="2354.2507177502293" y1="405.8461538461538" y2="445.8461538461538"></line><line stroke="#000000" stroke-width="5" x1="2361.550717750229" x2="2361.550717750229" y1="405.8461538461538" y2="445.8461538461538"></line></g><g><path d="M1828.396 378.326C1826.916 378.926 1826.116 381.206 1824.236 381.206C1824.236 379.286 1823.116 377.966 1821.596 377.966C1820.036 377.966 1818.716 379.286 1818.716 380.806C1818.716 381.526 1819.276 382.326 1819.876 382.926L1820.996 383.486C1821.396 383.486 1821.756 383.646 1822.156 383.646C1822.676 383.646 1823.236 383.486 1823.676 383.246L1825.196 382.686C1825.556 382.686 1825.756 382.926 1825.756 383.086C1825.756 384.966 1824.636 387.806 1824.076 389.686C1823.836 390.446 1822.356 391.406 1821.596 391.406C1821.596 389.446 1820.436 388.366 1818.956 388.366C1817.436 388.366 1816.116 389.446 1816.116 391.006C1816.116 391.766 1816.716 392.566 1817.276 393.126C1817.676 393.206 1817.956 393.446 1818.396 393.446C1818.716 393.646 1819.116 393.646 1819.516 393.646C1820.036 393.646 1820.636 393.646 1820.996 393.446L1822.516 392.886C1822.676 392.886 1822.916 392.686 1823.116 392.686C1823.156 392.686 1823.236 392.806 1823.236 392.886C1823.236 393.126 1823.116 393.646 1823.116 393.646C1823.116 393.646 1821.756 398.966 1821.596 399.526C1821.196 400.646 1819.876 401.406 1819.116 401.406C1819.116 399.526 1817.956 398.406 1816.476 398.406C1814.996 398.406 1813.636 399.526 1813.636 401.086C1813.636 401.806 1814.196 402.566 1814.756 403.126C1815.196 403.326 1815.556 403.526 1815.916 403.526C1816.316 403.686 1816.716 403.686 1817.036 403.686C1817.636 403.686 1818.156 403.686 1818.516 403.526L1820.036 402.966C1820.636 402.966 1820.636 403.326 1820.636 403.526L1819.116 409.966C1818.716 411.046 1817.436 411.646 1816.716 411.646C1816.716 409.766 1815.556 408.606 1814.036 408.606C1812.516 408.606 1811.196 409.766 1811.196 411.246C1811.196 412.006 1811.756 412.726 1812.316 413.326L1813.476 413.886L1814.196 413.886C1814.756 413.886 1815.556 413.886 1816.116 413.726L1817.636 413.166C1818.156 413.166 1818.156 413.726 1818.156 413.886L1816.716 420.166C1816.316 421.286 1815.196 421.686 1814.596 421.846C1814.196 421.846 1813.276 418.646 1811.756 418.646C1810.236 418.646 1808.876 419.966 1808.876 421.286C1808.876 422.246 1809.476 422.966 1810.036 423.366L1811.196 423.926C1811.556 423.926 1811.956 424.126 1812.316 424.126C1812.876 424.126 1813.476 423.926 1813.836 423.766C1814.436 423.566 1814.756 423.566 1815.316 423.206C1815.556 423.206 1815.756 423.566 1815.756 423.766C1815.756 423.926 1814.996 428.126 1814.196 430.206C1813.836 431.166 1812.716 431.526 1812.116 431.726C1812.116 429.646 1810.596 428.526 1809.316 428.526C1807.956 428.526 1806.636 429.806 1806.636 431.166C1806.636 432.086 1807.236 432.846 1807.796 433.206L1808.876 433.766C1809.316 433.766 1809.676 434.006 1810.036 434.006C1810.596 434.006 1811.196 433.766 1811.556 433.566C1812.116 433.406 1812.516 433.406 1812.876 433.006C1813.076 433.006 1813.276 433.406 1813.276 433.566C1813.276 434.126 1812.116 439.086 1811.956 439.686C1811.556 440.806 1810.236 441.366 1809.676 441.526C1809.676 439.446 1808.356 438.286 1807.036 438.286C1805.516 438.286 1804.356 439.686 1804.356 440.966C1804.356 441.966 1804.756 442.686 1805.316 443.046L1806.476 443.646C1806.796 443.646 1807.236 443.806 1807.596 443.806C1808.156 443.806 1808.756 443.646 1809.076 443.446C1809.676 443.246 1810.036 443.246 1810.596 442.846C1810.796 442.846 1811.036 443.246 1811.036 443.446C1810.796 443.646 1809.476 449.926 1809.316 450.446C1808.876 451.406 1807.956 451.766 1807.356 451.766C1807.356 449.686 1806.076 448.526 1804.756 448.526C1803.236 448.526 1802.076 449.926 1802.076 451.206C1802.076 452.166 1802.516 452.926 1803.076 453.286L1804.156 453.886C1804.556 453.886 1804.916 454.046 1805.316 454.046C1805.876 454.046 1806.476 453.886 1806.796 453.646L1808.156 453.286C1808.516 453.286 1808.516 453.486 1808.516 453.646C1808.356 454.206 1805.876 464.406 1805.676 464.646C1805.676 464.806 1806.476 465.566 1806.796 465.566C1807.956 465.566 1808.156 465.366 1808.356 464.806C1808.356 464.406 1822.516 404.246 1824.636 394.406C1824.636 394.406 1828.796 379.286 1828.796 378.926C1828.796 378.526 1828.396 378.326 1828.396 378.326Z"></path></g></g><g transform="translate(93.84615384615385)"><g><g><line stroke="#6A6A6A" stroke-width="1.3" x1="0" x2="154.07011979543745" y1="576.8461538461538" y2="576.8461538461538"></line><line stroke="#6A6A6A" stroke-width="1.3" x1="0" x2="154.07011979543745" y1="566.8461538461538" y2="566.8461538461538"></line><line stroke="#6A6A6A" stroke-width="1.3" x1="0" x2="154.07011979543745" y1="556.8461538461538" y2="556.8461538461538"></line><line stroke="#6A6A6A" stroke-width="1.3" x1="0" x2="154.07011979543745" y1="546.8461538461538" y2="546.8461538461538"></line><line stroke="#6A6A6A" stroke-width="1.3" x1="0" x2="154.07011979543745" y1="536.8461538461538" y2="536.8461538461538"></line></g><g><path d="M25.200 522.926C24.640 522.926 23.400 523.966 22.600 524.846C19.640 528.126 18.680 533.126 18.680 537.286C18.680 539.606 18.960 542.206 19.240 543.846C19.320 544.326 19.360 544.406 18.880 544.806C16.320 546.926 13.560 549.366 11.480 551.926C8.720 555.366 7 559.086 7 563.366C7 570.326 11.760 576.926 21.560 576.926C22.480 576.926 23.520 576.846 24.320 576.686C24.760 576.606 24.840 576.566 24.920 577.046C25.400 579.726 26 583.206 26 585.086C26 591.006 22 591.726 19.640 591.726C17.480 591.726 16.440 591.086 16.440 590.566C16.440 590.126 16.800 590.166 17.720 589.886C18.960 589.526 20.400 588.446 20.400 586.126C20.400 583.926 19 582.046 16.560 582.046C13.880 582.046 12.280 584.166 12.280 586.646C12.280 589.246 13.840 593.166 19.880 593.166C22.560 593.166 27.760 591.966 27.760 585.166C27.760 582.886 27.040 579.086 26.600 576.606C26.520 576.126 26.560 576.166 27.120 575.926C31.160 574.326 33.840 570.926 33.840 566.406C33.840 561.286 30.080 556.766 24.200 556.766C23.080 556.766 23.200 556.966 23.040 556.046L22.040 550.246C21.960 549.766 22.040 549.726 22.280 549.486C22.920 548.886 23.760 548.046 24.520 547.206C27.880 543.526 29.880 538.766 29.880 534.246C29.880 530.766 28.920 527.326 27.280 524.926C26.680 524.046 25.640 522.926 25.200 522.926ZM20.040 551.086C20.440 550.766 20.520 550.806 20.600 551.246L21.440 556.366C21.560 557.126 21.560 557.086 20.840 557.326C17.320 558.526 15.040 561.686 15.040 565.086C15.040 568.686 16.920 571.246 19.640 572.166C19.960 572.286 20.440 572.406 20.720 572.406C21.040 572.406 21.200 572.206 21.200 571.966C21.200 571.686 20.880 571.566 20.600 571.446C18.920 570.726 17.720 569.006 17.720 567.166C17.720 564.886 19.280 563.166 21.720 562.486C22.360 562.326 22.440 562.366 22.520 562.806L24.520 574.726C24.600 575.166 24.560 575.166 23.960 575.286C23.320 575.406 22.520 575.486 21.720 575.486C14.720 575.486 10.200 571.606 10.200 566.046C10.200 563.686 10.600 560.526 13.920 556.766C16.320 554.086 18.160 552.606 20.040 551.086ZM24.640 562.166C27.880 562.446 30.560 565.166 30.560 568.686C30.560 571.206 29.040 573.246 26.800 574.366C26.320 574.606 26.240 574.606 26.160 574.126L24.200 562.726C24.120 562.246 24.160 562.126 24.640 562.166ZM25.800 529.126C27.120 529.126 28.200 530.206 28.200 532.406C28.200 535.166 26.880 537.726 23.760 540.846C23.120 541.486 22.160 542.406 21.240 543.206C20.960 543.446 20.800 543.406 20.720 542.886C20.560 541.846 20.480 540.486 20.480 539.206C20.480 532.966 23.360 529.126 25.800 529.126Z"></path></g><g></g><text font-family='Alegreya' font-style='italic' text-anchor='end' stroke='#7a7a7a' font-size="24" x="0" y="526.8461538461538">12</text></g><g><line stroke="#000000" stroke-width="1.6" x1="144.2701197954375" x2="144.2701197954375" y1="536.8461538461538" y2="576.8461538461538"></line><line stroke="#000000" stroke-width="5" x1="151.57011979543748" x2="151.57011979543748" y1="536.8461538461538" y2="576.8461538461538"></line></g><g><path d="M83.008 509.326C81.528 509.926 80.728 512.206 78.848 512.206C78.848 510.286 77.728 508.966 76.208 508.966C74.648 508.966 73.328 510.286 73.328 511.806C73.328 512.526 73.888 513.326 74.488 513.926L75.608 514.486C76.008 514.486 76.368 514.646 76.768 514.646C77.288 514.646 77.848 514.486 78.288 514.246L79.808 513.686C80.168 513.686 80.368 513.926 80.368 514.086C80.368 515.966 79.248 518.806 78.688 520.686C78.448 521.446 76.968 522.406 76.208 522.406C76.208 520.446 75.048 519.366 73.568 519.366C72.048 519.366 70.728 520.446 70.728 522.006C70.728 522.766 71.328 523.566 71.888 524.126C72.288 524.206 72.568 524.446 73.008 524.446C73.328 524.646 73.728 524.646 74.128 524.646C74.648 524.646 75.248 524.646 75.608 524.446L77.128 523.886C77.288 523.886 77.528 523.686 77.728 523.686C77.768 523.686 77.848 523.806 77.848 523.886C77.848 524.126 77.728 524.646 77.728 524.646C77.728 524.646 76.368 529.966 76.208 530.526C75.808 531.646 74.488 532.406 73.728 532.406C73.728 530.526 72.568 529.406 71.088 529.406C69.608 529.406 68.248 530.526 68.248 532.086C68.248 532.806 68.808 533.566 69.368 534.126C69.808 534.326 70.168 534.526 70.528 534.526C70.928 534.686 71.328 534.686 71.648 534.686C72.248 534.686 72.768 534.686 73.128 534.526L74.648 533.966C75.248 533.966 75.248 534.326 75.248 534.526L73.728 540.966C73.328 542.046 72.048 542.646 71.328 542.646C71.328 540.766 70.168 539.606 68.648 539.606C67.128 539.606 65.808 540.766 65.808 542.246C65.808 543.006 66.368 543.726 66.928 544.326L68.088 544.886L68.808 544.886C69.368 544.886 70.168 544.886 70.728 544.726L72.248 544.166C72.768 544.166 72.768 544.726 72.768 544.886L71.328 551.166C70.928 552.286 69.808 552.686 69.208 552.846C68.808 552.846 67.888 549.646 66.368 549.646C64.848 549.646 63.488 550.966 63.488 552.286C63.488 553.246 64.088 553.966 64.648 554.366L65.808 554.926C66.168 554.926 66.568 555.126 66.928 555.126C67.488 555.126 68.088 554.926 68.448 554.766C69.048 554.566 69.368 554.566 69.928 554.206C70.168 554.206 70.368 554.566 70.368 554.766C70.368 554.926 69.608 559.126 68.808 561.206C68.448 562.166 67.328 562.526 66.728 562.726C66.728 560.646 65.208 559.526 63.928 559.526C62.568 559.526 61.248 560.806 61.248 562.166C61.248 563.086 61.848 563.846 62.408 564.206L63.488 564.766C63.928 564.766 64.288 565.006 64.648 565.006C65.208 565.006 65.808 564.766 66.168 564.566C66.728 564.406 67.128 564.406 67.488 564.006C67.688 564.006 67.888 564.406 67.888 564.566C67.888 565.126 66.728 570.086 66.568 570.686C66.168 571.806 64.848 572.366 64.288 572.526C64.288 570.446 62.968 569.286 61.648 569.286C60.128 569.286 58.968 570.686 58.968 571.966C58.968 572.966 59.368 573.686 59.928 574.046L61.088 574.646C61.408 574.646 61.848 574.806 62.208 574.806C62.768 574.806 63.368 574.646 63.688 574.446C64.288 574.246 64.648 574.246 65.208 573.846C65.408 573.846 65.648 574.246 65.648 574.446C65.408 574.646 64.088 580.926 63.928 581.446C63.488 582.406 62.568 582.766 61.968 582.766C61.968 580.686 60.688 579.526 59.368 579.526C57.848 579.526 56.688 580.926 56.688 582.206C56.688 583.166 57.128 583.926 57.688 584.286L58.768 584.886C59.168 584.886 59.528 585.046 59.928 585.046C60.488 585.046 61.088 584.886 61.408 584.646L62.768 584.286C63.128 584.286 63.128 584.486 63.128 584.646C62.968 585.206 60.488 595.406 60.288 595.646C60.288 595.806 61.088 596.566 61.408 596.566C62.568 596.566 62.768 596.366 62.968 595.806C62.968 595.406 77.128 535.246 79.248 525.406C79.248 525.406 83.408 510.286 83.408 509.926C83.408 509.526 83.008 509.326 83.008 509.326Z"></path></g></g></svg>