<?xml version="1.0" encoding="UTF-8" standalone="no"?><svg xmlns="http://www.w3.org/2000/svg" height="279.4mm" viewBox="0 0 1328.6153846153845 1719.3846153846152" width="215.9mm"><g transform="translate(93.84615384615385)"><g><g><line stroke="#6A6A6A" stroke-width="1.3" x1="0" x2="153.985309533077" y1="198.8461538461538" y2="198.8461538461538"></line><line stroke="#6A6A6A" stroke-width="1.3" x1="0" x2="153.985309533077" y1="188.8461538461538" y2="188.8461538461538"></line><line stroke="#6A6A6A" stroke-width="1.3" x1="0" x2="153.985309533077" y1="178.8461538461538" y2="178.8461538461538"></line><line stroke="#6A6A6A" stroke-width="1.3" x1="0" x2="153.985309533077" y1="168.8461538461538" y2="168.8461538461538"></line><line stroke="#6A6A6A" stroke-width="1.3" x1="0" x2="153.985309533077" y1="158.8461538461538" y2="158.8461538461538"></line></g><g><path d="M25.200 144.926C24.640 144.926 23.400 145.966 22.600 146.846C19.640 150.126 18.680 155.126 18.680 159.286C18.680 161.606 18.960 164.206 19.240 165.846C19.320 166.326 19.360 166.406 18.880 166.806C16.320 168.926 13.560 171.366 11.480 173.926C8.720 177.366 7 181.086 7 185.366C7 192.326 11.760 198.926 21.560 198.926C22.480 198.926 23.520 198.846 24.320 198.686C24.760 198.606 24.840 198.566 24.920 199.046C25.400 201.726 26 205.206 26 207.086C26 213.006 22 213.726 19.640 213.726C17.480 213.726 16.440 213.086 16.440 212.566C16.440 212.126 16.800 212.166 17.720 211.886C18.960 211.526 20.400 210.446 20.400 208.126C20.400 205.926 19 204.046 16.560 204.046C13.880 204.046 12.280 206.166 12.280 208.646C12.280 211.246 13.840 215.166 19.880 215.166C22.560 215.166 27.760 213.966 27.760 207.166C27.760 204.886 27.040 201.086 26.600 198.606C26.520 198.126 26.560 198.166 27.120 197.926C31.160 196.326 33.840 192.926 33.840 188.406C33.840 183.286 30.080 178.766 24.200 178.766C23.080 178.766 23.200 178.966 23.040 178.046L22.040 172.246C21.960 171.766 22.040 171.726 22.280 171.486C22.920 170.886 23.760 170.046 24.520 169.206C27.880 165.526 29.880 160.766 29.880 156.246C29.880 152.766 28.920 149.326 27.280 146.926C26.680 146.046 25.640 144.926 25.200 144.926ZM20.040 173.086C20.440 172.766 20.520 172.806 20.600 173.246L21.440 178.366C21.560 179.126 21.560 179.086 20.840 179.326C17.320 180.526 15.040 183.686 15.040 187.086C15.040 190.686 16.920 193.246 19.640 194.166C19.960 194.286 20.440 194.406 20.720 194.406C21.040 194.406 21.200 194.206 21.200 193.966C21.200 193.686 20.880 193.566 20.600 193.446C18.920 192.726 17.720 191.006 17.720 189.166C17.720 186.886 19.280 185.166 21.720 184.486C22.360 184.326 22.440 184.366 22.520 184.806L24.520 196.726C24.600 197.166 24.560 197.166 23.960 197.286C23.320 197.406 22.520 197.486 21.720 197.486C14.720 197.486 10.200 193.606 10.200 188.046C10.200 185.686 10.600 182.526 13.920 178.766C16.320 176.086 18.160 174.606 20.040 173.086ZM24.640 184.166C27.880 184.446 30.560 187.166 30.560 190.686C30.560 193.206 29.040 195.246 26.800 196.366C26.320 196.606 26.240 196.606 26.160 196.126L24.200 184.726C24.120 184.246 24.160 184.126 24.640 184.166ZM25.800 151.126C27.120 151.126 28.200 152.206 28.200 154.406C28.200 157.166 26.880 159.726 23.760 162.846C23.120 163.486 22.160 164.406 21.240 165.206C20.960 165.446 20.800 165.406 20.720 164.886C20.560 163.846 20.480 162.486 20.480 161.206C20.480 154.966 23.360 151.126 25.800 151.126Z"></path></g><g></g><path d="M57.820 168.806C56.620 168.806 55.220 169.126 54.140 169.606C50.580 171.166 48.700 175.446 48.700 179.246C48.700 179.606 48.700 179.966 48.740 180.326C48.940 182.486 49.980 184.526 51.300 186.126C52.820 187.966 55.020 188.806 57.420 188.806C64.420 188.806 65.460 182.446 65.460 181.286C65.460 180.406 65.020 180.406 64.860 180.406C64.540 180.406 64.260 180.446 64.260 181.126C64.260 186.286 59.860 187.486 58.580 187.486C55.340 187.486 53.620 184.326 53.620 177.726C53.620 171.126 56.660 169.766 58.820 169.766C60.900 169.766 61.740 170.726 61.740 171.126C61.740 171.486 61.620 172.006 61.020 172.006C59.420 172.006 58.500 173.726 58.500 174.966C58.500 177.246 60.460 177.966 61.580 177.966C61.580 177.966 64.620 177.846 64.620 174.526C64.620 169.286 58.580 168.806 57.820 168.806Z"></path></g><g><line stroke="black" stroke-width="1.6" x1="154.785309533077" x2="154.785309533077" y1="158.8461538461538" y2="198.8461538461538"></line></g><g><g><path d="M98.400 203.366C92.600 203.366 89 205.806 89 208.766C89 211.686 91.480 214.286 97.960 214.286C105.080 214.286 107.360 211.806 107.360 208.766C107.360 205.686 102.440 203.366 98.400 203.366ZM93.840 206.086C94.320 204.606 95.920 204.366 97.280 204.366C100.240 204.366 102.640 207.566 102.640 210.206C102.640 210.486 102.600 210.766 102.560 211.006C102.360 212.086 101.720 212.846 100.640 213.126C100.200 213.246 99.760 213.286 99.320 213.286C98.920 213.286 98.560 213.246 98.160 213.126C97.440 212.886 96.720 212.486 96.120 211.966C95.800 211.686 95.480 211.366 95.200 211.006C94.360 210.006 93.680 208.526 93.680 207.166C93.680 206.806 93.720 206.446 93.840 206.086Z"></path></g><line stroke="#000000" stroke-width="2.2" x1="85.8" x2="112.6" y1="208.8461538461538" y2="208.8461538461538"></line></g></g><g transform="translate(264.4314633792308)"><g><g><line stroke="#6A6A6A" stroke-width="1.3" x1="-16.599999999999994" x2="88.685309533077" y1="198.8461538461538" y2="198.8461538461538"></line><line stroke="#6A6A6A" stroke-width="1.3" x1="-16.599999999999994" x2="88.685309533077" y1="188.8461538461538" y2="188.8461538461538"></line><line stroke="#6A6A6A" stroke-width="1.3" x1="-16.599999999999994" x2="88.685309533077" y1="178.8461538461538" y2="178.8461538461538"></line><line stroke="#6A6A6A" stroke-width="1.3" x1="-16.599999999999994" x2="88.685309533077" y1="168.8461538461538" y2="168.8461538461538"></line><line stroke="#6A6A6A" stroke-width="1.3" x1="-16.599999999999994" x2="88.685309533077" y1="158.8461538461538" y2="158.8461538461538"></line></g><g><path d="M16.740 186.006C16.740 182.926 14.740 179.846 10.900 179.846C9.620 179.846 9.180 180.686 8.820 180.686C8.420 180.686 8.020 180.086 7.780 179.686C7.660 179.366 7.460 179.126 7.460 178.846C7.460 178.606 7.580 178.486 7.740 178.126C7.780 178.046 7.860 178.046 7.860 177.966C8.100 177.606 8.500 177.046 8.820 177.046C9.180 177.046 9.620 177.806 10.900 177.806C14.740 177.806 16.740 174.766 16.740 171.726C16.740 168.686 14.180 165.566 10.380 165.566C6.540 165.566 5.380 168.086 5.380 169.166C5.380 170.286 6.260 171.486 7.420 171.486C8.540 171.486 9.620 170.526 9.620 169.486C9.620 168.566 8.420 167.926 8.180 167.726C8.100 167.646 7.700 167.566 7.700 167.406C7.700 167.366 7.700 167.326 7.780 167.286C8.300 166.766 8.900 166.606 9.500 166.606C11.780 166.606 12.300 168.566 12.300 170.206L12.300 173.366C12.300 175.406 12.220 176.126 10.460 176.126C8.740 176.126 8.060 175.406 7.660 174.086C7.460 173.526 7.260 173.326 7.060 173.326C6.780 173.326 6.540 173.726 6.460 174.086C5.780 177.246 4.740 177.406 3.980 177.486L3.980 166.166C3.980 165.806 3.380 165.566 3.060 165.566C2.740 165.566 2.500 165.806 2.500 166.166L2.500 191.566C2.500 191.886 2.740 192.126 3.060 192.126C3.380 192.126 3.980 191.886 3.980 191.566L3.980 180.206C4.740 180.286 5.780 180.446 6.460 183.606C6.540 183.966 6.780 184.366 7.060 184.366C7.260 184.366 7.460 184.166 7.660 183.606C8.060 182.286 8.740 181.526 10.460 181.526C12.220 181.526 12.300 182.286 12.300 184.366L12.300 187.486C12.300 189.166 11.780 191.046 9.500 191.046C8.420 191.046 8.060 190.686 7.820 190.446C7.740 190.366 7.700 190.326 7.700 190.286C7.700 190.126 8.020 190.046 8.100 189.966C8.380 189.686 9.620 189.246 9.620 188.166C9.620 187.126 8.540 186.166 7.420 186.166C6.260 186.166 5.380 187.406 5.380 188.486C5.380 189.566 6.540 192.126 10.380 192.126C14.180 192.126 16.740 189.006 16.740 186.006ZM0.580 166.166C0.580 165.846 0.340 165.566-0.020 165.566L-2.900 165.566C-3.220 165.566-3.500 165.846-3.500 166.166L-3.500 191.526C-3.500 191.846-3.220 192.126-2.900 192.126L-0.020 192.126C0.340 192.126 0.580 191.846 0.580 191.526Z"></path></g></g><g><line stroke="black" stroke-width="1.6" x1="89.48530953307699" x2="89.48530953307699" y1="158.8461538461538" y2="198.8461538461538"></line></g><g><g><path d="M33.100 173.366C27.300 173.366 23.700 175.806 23.700 178.766C23.700 181.686 26.180 184.286 32.660 184.286C39.780 184.286 42.060 181.806 42.060 178.766C42.060 175.686 37.140 173.366 33.100 173.366ZM28.540 176.086C29.020 174.606 30.620 174.366 31.980 174.366C34.940 174.366 37.340 177.566 37.340 180.206C37.340 180.486 37.300 180.766 37.260 181.006C37.060 182.086 36.420 182.846 35.340 183.126C34.900 183.246 34.460 183.286 34.020 183.286C33.620 183.286 33.260 183.246 32.860 183.126C32.140 182.886 31.420 182.486 30.820 181.966C30.500 181.686 30.180 181.366 29.900 181.006C29.060 180.006 28.380 178.526 28.380 177.166C28.380 176.806 28.420 176.446 28.540 176.086Z"></path></g></g></g><g transform="translate(369.7167729123078)"><g><g><line stroke="#6A6A6A" stroke-width="1.3" x1="-16.599999999999966" x2="63.22764556269203" y1="198.8461538461538" y2="198.8461538461538"></line><line stroke="#6A6A6A" stroke-width="1.3" x1="-16.599999999999966" x2="63.22764556269203" y1="188.8461538461538" y2="188.8461538461538"></line><line stroke="#6A6A6A" stroke-width="1.3" x1="-16.599999999999966" x2="63.22764556269203" y1="178.8461538461538" y2="178.8461538461538"></line><line stroke="#6A6A6A" stroke-width="1.3" x1="-16.599999999999966" x2="63.22764556269203" y1="168.8461538461538" y2="168.8461538461538"></line><line stroke="#6A6A6A" stroke-width="1.3" x1="-16.599999999999966" x2="63.22764556269203" y1="158.8461538461538" y2="158.8461538461538"></line></g></g><g><g><line stroke="#6A6A6A" stroke-width="1.3" x1="-1.4210854715202004e-14" x2="102.755291125384" y1="198.8461538461538" y2="198.8461538461538"></line><line stroke="#6A6A6A" stroke-width="1.3" x1="-1.4210854715202004e-14" x2="102.755291125384" y1="188.8461538461538" y2="188.8461538461538"></line><line stroke="#6A6A6A" stroke-width="1.3" x1="-1.4210854715202004e-14" x2="102.755291125384" y1="178.8461538461538" y2="178.8461538461538"></line><line stroke="#6A6A6A" stroke-width="1.3" x1="-1.4210854715202004e-14" x2="102.755291125384" y1="168.8461538461538" y2="168.8461538461538"></line><line stroke="#6A6A6A" stroke-width="1.3" x1="-1.4210854715202004e-14" x2="102.755291125384" y1="158.8461538461538" y2="158.8461538461538"></line></g><g><path d="M56.268 176.006C56.268 172.926 54.268 169.846 50.428 169.846C49.148 169.846 48.708 170.686 48.348 170.686C47.948 170.686 47.548 170.086 47.308 169.686C47.188 169.366 46.988 169.126 46.988 168.846C46.988 168.606 47.108 168.486 47.268 168.126C47.308 168.046 47.388 168.046 47.388 167.966C47.628 167.606 48.028 167.046 48.348 167.046C48.708 167.046 49.148 167.806 50.428 167.806C54.268 167.806 56.268 164.766 56.268 161.726C56.268 158.686 53.708 155.566 49.908 155.566C46.068 155.566 44.908 158.086 44.908 159.166C44.908 160.286 45.788 161.486 46.948 161.486C48.068 161.486 49.148 160.526 49.148 159.486C49.148 158.566 47.948 157.926 47.708 157.726C47.628 157.646 47.228 157.566 47.228 157.406C47.228 157.366 47.228 157.326 47.308 157.286C47.828 156.766 48.428 156.606 49.028 156.606C51.308 156.606 51.828 158.566 51.828 160.206L51.828 163.366C51.828 165.406 51.748 166.126 49.988 166.126C48.268 166.126 47.588 165.406 47.188 164.086C46.988 163.526 46.788 163.326 46.588 163.326C46.308 163.326 46.068 163.726 45.988 164.086C45.308 167.246 44.268 167.406 43.508 167.486L43.508 156.166C43.508 155.806 42.908 155.566 42.588 155.566C42.268 155.566 42.028 155.806 42.028 156.166L42.028 181.566C42.028 181.886 42.268 182.126 42.588 182.126C42.908 182.126 43.508 181.886 43.508 181.566L43.508 170.206C44.268 170.286 45.308 170.446 45.988 173.606C46.068 173.966 46.308 174.366 46.588 174.366C46.788 174.366 46.988 174.166 47.188 173.606C47.588 172.286 48.268 171.526 49.988 171.526C51.748 171.526 51.828 172.286 51.828 174.366L51.828 177.486C51.828 179.166 51.308 181.046 49.028 181.046C47.948 181.046 47.588 180.686 47.348 180.446C47.268 180.366 47.228 180.326 47.228 180.286C47.228 180.126 47.548 180.046 47.628 179.966C47.908 179.686 49.148 179.246 49.148 178.166C49.148 177.126 48.068 176.166 46.948 176.166C45.788 176.166 44.908 177.406 44.908 178.486C44.908 179.566 46.068 182.126 49.908 182.126C53.708 182.126 56.268 179.006 56.268 176.006ZM40.108 156.166C40.108 155.846 39.868 155.566 39.508 155.566L36.628 155.566C36.308 155.566 36.028 155.846 36.028 156.166L36.028 181.526C36.028 181.846 36.308 182.126 36.628 182.126L39.508 182.126C39.868 182.126 40.108 181.846 40.108 181.526Z"></path></g></g><g><line stroke="black" stroke-width="1.6" x1="103.55529112538404" x2="103.55529112538404" y1="158.8461538461538" y2="198.8461538461538"></line></g><g><g><path d="M4.480 184.646C12.120 184.646 13.640 178.446 13.640 176.926C13.640 174.566 11.760 173.046 9.080 173.046C2.160 173.046 0 178.406 0 180.806C0 183.246 1.960 184.646 4.480 184.646ZM8 180.966C5.920 182.366 4.480 182.846 3.480 182.846C2.520 182.846 1.960 182.366 1.640 181.806C1.480 181.526 1.360 181.206 1.360 180.886C1.360 179.886 2.360 178.606 5.560 176.766C7.840 175.446 9.280 174.966 10.240 174.966C11.120 174.966 11.600 175.366 11.920 175.926C12.080 176.206 12.200 176.486 12.200 176.806C12.200 177.726 11.240 178.846 8 180.966Z"></path></g><line stroke="#000000" stroke-width="1.2" x1="0.6" x2="0.6" y1="180.80615384615382" y2="215.80615384615382"></line></g><g><g><path d="M67.708 174.646C75.348 174.646 76.868 168.446 76.868 166.926C76.868 164.566 74.988 163.046 72.308 163.046C65.388 163.046 63.228 168.406 63.228 170.806C63.228 173.246 65.188 174.646 67.708 174.646ZM71.228 170.966C69.148 172.366 67.708 172.846 66.708 172.846C65.748 172.846 65.188 172.366 64.868 171.806C64.708 171.526 64.588 171.206 64.588 170.886C64.588 169.886 65.588 168.606 68.788 166.766C71.068 165.446 72.508 164.966 73.468 164.966C74.348 164.966 74.828 165.366 75.148 165.926C75.308 166.206 75.428 166.486 75.428 166.806C75.428 167.726 74.468 168.846 71.228 170.966Z"></path></g><line stroke="#000000" stroke-width="1.2" x1="63.827645562692034" x2="63.827645562692034" y1="170.80615384615382" y2="205.80615384615382"></line></g></g><g transform="translate(489.07206403769186)"><g><g><line stroke="#6A6A6A" stroke-width="1.3" x1="-16.600000000000023" x2="88.68530953307697" y1="198.8461538461538" y2="198.8461538461538"></line><line stroke="#6A6A6A" stroke-width="1.3" x1="-16.600000000000023" x2="88.68530953307697" y1="188.8461538461538" y2="188.8461538461538"></line><line stroke="#6A6A6A" stroke-width="1.3" x1="-16.600000000000023" x2="88.68530953307697" y1="178.8461538461538" y2="178.8461538461538"></line><line stroke="#6A6A6A" stroke-width="1.3" x1="-16.600000000000023" x2="88.68530953307697" y1="168.8461538461538" y2="168.8461538461538"></line><line stroke="#6A6A6A" stroke-width="1.3" x1="-16.600000000000023" x2="88.68530953307697" y1="158.8461538461538" y2="158.8461538461538"></line></g><g><path d="M2.980 162.046C-1.500 162.046-3.500 166.166-3.500 168.606C-3.500 168.726-3.500 168.846-3.460 168.966C-3.180 171.366-1.660 172.606-0.140 172.606L0.020 172.606C1.620 172.606 3.260 170.846 3.260 169.246C3.260 166.886 1.180 166.486 0.060 166.486L-0.700 166.486C-1.260 166.486-1.340 166.166-1.340 165.926C-1.340 165.846-1.300 165.766-1.300 165.766C-0.380 163.646 1.260 163.406 1.980 163.406C2.220 163.406 2.380 163.446 2.380 163.446C3.220 163.446 3.900 163.806 4.500 164.446C5.460 165.566 5.580 166.806 5.740 168.166C5.740 168.206 5.780 168.286 5.780 168.486C5.860 168.966 5.860 169.486 5.860 169.966C5.860 171.926 5.540 173.966 4.940 175.806C4.020 178.486 2.660 180.206 0.420 181.926C-0.820 182.886-2.220 183.486-3.580 184.246C-3.980 184.486-4.100 184.846-4.100 184.966C-4.100 185.166-3.740 185.406-3.580 185.406C-0.500 185.406 3.100 182.646 5.100 180.646C6.980 178.766 8.460 176.566 9.380 174.406C10.100 172.766 10.500 171.126 10.500 169.726L10.500 169.566C10.420 166.806 9.340 165.046 8.020 163.966C5.860 162.206 3.140 162.046 3.140 162.046ZM13.220 170.486C12.300 170.486 11.500 171.286 11.500 172.246C11.500 173.206 12.300 174.006 13.220 174.006C14.220 174.006 15.020 173.206 15.020 172.246C15.020 171.286 14.220 170.486 13.220 170.486ZM13.220 163.766C12.220 163.766 11.460 164.526 11.460 165.486C11.460 166.486 12.220 167.286 13.220 167.286C14.180 167.286 14.980 166.486 14.980 165.486C14.980 164.526 14.180 163.766 13.220 163.766Z"></path></g></g><g><line stroke="black" stroke-width="1.6" x1="89.48530953307699" x2="89.48530953307699" y1="158.8461538461538" y2="198.8461538461538"></line></g><g><g><path d="M33.100 143.366C27.300 143.366 23.700 145.806 23.700 148.766C23.700 151.686 26.180 154.286 32.660 154.286C39.780 154.286 42.060 151.806 42.060 148.766C42.060 145.686 37.140 143.366 33.100 143.366ZM28.540 146.086C29.020 144.606 30.620 144.366 31.980 144.366C34.940 144.366 37.340 147.566 37.340 150.206C37.340 150.486 37.300 150.766 37.260 151.006C37.060 152.086 36.420 152.846 35.340 153.126C34.900 153.246 34.460 153.286 34.020 153.286C33.620 153.286 33.260 153.246 32.860 153.126C32.140 152.886 31.420 152.486 30.820 151.966C30.500 151.686 30.180 151.366 29.900 151.006C29.060 150.006 28.380 148.526 28.380 147.166C28.380 146.806 28.420 146.446 28.540 146.086Z"></path></g><line stroke="#000000" stroke-width="2.2" x1="20.5" x2="47.3" y1="148.8461538461538" y2="148.8461538461538"></line></g></g><g transform="translate(594.3573735707689)"><g><g><line stroke="#6A6A6A" stroke-width="1.3" x1="-16.600000000000023" x2="88.68530953307697" y1="198.8461538461538" y2="198.8461538461538"></line><line stroke="#6A6A6A" stroke-width="1.3" x1="-16.600000000000023" x2="88.68530953307697" y1="188.8461538461538" y2="188.8461538461538"></line><line stroke="#6A6A6A" stroke-width="1.3" x1="-16.600000000000023" x2="88.68530953307697" y1="178.8461538461538" y2="178.8461538461538"></line><line stroke="#6A6A6A" stroke-width="1.3" x1="-16.600000000000023" x2="88.68530953307697" y1="168.8461538461538" y2="168.8461538461538"></line><line stroke="#6A6A6A" stroke-width="1.3" x1="-16.600000000000023" x2="88.68530953307697" y1="158.8461538461538" y2="158.8461538461538"></line></g><g><path d="M2.900 188.246L2.900 169.446C2.900 169.126 2.660 168.846 2.340 168.846L-2.940 168.846C-3.260 168.846-3.500 169.126-3.500 169.446L-3.500 188.246C-3.500 188.566-3.260 188.846-2.940 188.846L2.340 188.846C2.660 188.846 2.900 188.566 2.900 188.246ZM11.780 169.446C11.780 169.126 11.540 168.846 11.220 168.846L5.940 168.846C5.620 168.846 5.380 169.126 5.380 169.446L5.380 188.246C5.380 188.566 5.620 188.846 5.940 188.846L11.220 188.846C11.540 188.846 11.780 188.566 11.780 188.246Z"></path></g></g><g><line stroke="black" stroke-width="1.6" x1="89.48530953307699" x2="89.48530953307699" y1="158.8461538461538" y2="198.8461538461538"></line></g><g><g><path d="M33.100 173.366C27.300 173.366 23.700 175.806 23.700 178.766C23.700 181.686 26.180 184.286 32.660 184.286C39.780 184.286 42.060 181.806 42.060 178.766C42.060 175.686 37.140 173.366 33.100 173.366ZM28.540 176.086C29.020 174.606 30.620 174.366 31.980 174.366C34.940 174.366 37.340 177.566 37.340 180.206C37.340 180.486 37.300 180.766 37.260 181.006C37.060 182.086 36.420 182.846 35.340 183.126C34.900 183.246 34.460 183.286 34.020 183.286C33.620 183.286 33.260 183.246 32.860 183.126C32.140 182.886 31.420 182.486 30.820 181.966C30.500 181.686 30.180 181.366 29.900 181.006C29.060 180.006 28.380 178.526 28.380 177.166C28.380 176.806 28.420 176.446 28.540 176.086Z"></path></g></g></g><g transform="translate(699.6426831038459)"><g><g><line stroke="#6A6A6A" stroke-width="1.3" x1="-16.600000000000023" x2="88.68530953307697" y1="198.8461538461538" y2="198.8461538461538"></line><line stroke="#6A6A6A" stroke-width="1.3" x1="-16.600000000000023" x2="88.68530953307697" y1="188.8461538461538" y2="188.8461538461538"></line><line stroke="#6A6A6A" stroke-width="1.3" x1="-16.600000000000023" x2="88.68530953307697" y1="178.8461538461538" y2="178.8461538461538"></line><line stroke="#6A6A6A" stroke-width="1.3" x1="-16.600000000000023" x2="88.68530953307697" y1="168.8461538461538" y2="168.8461538461538"></line><line stroke="#6A6A6A" stroke-width="1.3" x1="-16.600000000000023" x2="88.68530953307697" y1="158.8461538461538" y2="158.8461538461538"></line></g><g><path d="M14.100 188.806C13.860 185.446 11.380 182.806 8.020 182.806L7.740 182.806C7.660 182.806 7.500 182.806 7.420 182.846C7.140 181.126 7.020 180.726 6.740 179.286C10.260 176.046 11.540 172.726 11.540 168.086C11.540 166.446 11.140 164.766 10.380 163.086C9.380 160.726 8.420 160.566 8.420 160.566C5.940 161.686 4.180 165.646 4.180 170.406C4.180 171.246 4.220 172.126 4.380 173.046L4.700 174.726C0.820 178.006-3.500 181.886-3.500 186.926C-3.500 187.166-3.500 187.446-3.460 187.726C-2.980 194.086 1.980 196.086 6.260 196.086C7.060 196.086 7.620 195.966 8.180 195.966L8.700 198.806C8.820 199.446 8.980 200.926 8.980 201.446C8.980 205.726 5.780 205.766 5.460 205.766L4.940 205.766C4.060 205.766 3.300 205.646 2.740 205.246C2.580 205.126 2.500 205.046 2.500 204.966C2.500 204.846 2.620 204.806 2.740 204.726C2.980 204.686 3.180 204.686 3.420 204.566C4.500 204.246 5.940 203.406 5.940 201.846C5.940 201.846 5.940 201.646 5.940 201.646C5.940 200.526 5.460 199.486 4.380 199.046C3.980 198.846 3.620 198.766 3.220 198.766C1.660 198.766 0.220 200.006 0.020 201.646C-0.020 201.646-0.100 202.046-0.100 202.566C-0.100 204.046 0.580 207.046 4.900 207.046C5.060 207.046 5.300 207.006 5.500 207.006C7.340 206.886 10.300 205.446 10.300 201.326C10.300 199.326 9.740 197.446 9.460 195.606C12.380 194.526 14.100 192.126 14.100 189.206ZM8.620 165.726C9.500 165.726 10.060 166.406 10.060 167.846C10.060 168.006 10.060 168.206 10.020 168.406C9.700 170.566 8.580 171.566 5.780 173.726C5.700 173.086 5.580 172.566 5.580 172.406C5.540 172.126 5.540 171.806 5.540 171.486C5.540 168.766 6.540 165.806 8.620 165.726ZM-1.060 189.046C-1.060 184.686 2.100 182.446 5.540 179.886L6.020 183.046C3.660 183.726 1.820 185.966 1.820 188.326C1.820 188.726 1.860 189.126 1.980 189.486C2.380 191.246 3.540 192.566 4.780 192.966C5.020 193.046 5.220 193.086 5.340 193.086C5.540 193.086 5.660 192.966 5.660 192.846C5.660 192.686 5.460 192.486 5.260 192.366C4.740 192.166 3.820 191.126 3.780 190.046L3.780 189.806C3.780 187.966 5.220 187.326 6.620 187.046L7.980 194.566C7.580 194.726 7.020 194.806 6.260 194.806C3.420 194.806-0.900 193.846-1.060 189.286ZM9.260 194.286C8.860 191.926 8.700 189.886 8.140 186.926C10.340 186.926 11.820 188.206 11.940 190.406L11.940 190.686C11.940 192.526 11.140 193.486 9.260 194.286Z"></path><path d="M5.720 207.046C5.240 207.046 4.760 207.086 4.360 207.286C3.320 207.686 2.760 208.566 2.760 209.526C2.760 210.086 2.960 210.646 3.400 211.166C3.440 211.166 3.480 211.206 3.480 211.286C3.480 211.406 3.400 211.446 3.240 211.486C2.200 211.846 1.200 213.006 1.200 214.126C1.200 214.286 1.240 214.406 1.280 214.606C1.600 216.086 3.520 216.926 4.880 216.926C5.440 216.926 6.080 216.846 6.520 216.686C7.640 216.206 8.360 215.166 8.360 214.086C8.360 213.606 8.240 213.166 8 212.726C7.840 212.526 7.840 212.326 7.840 212.086C7.840 211.846 7.920 211.646 8.160 211.446C8.520 211.166 9.400 210.846 9.400 209.446C9.400 207.446 6.520 207.046 5.880 207.046ZM4.760 208.726C4.840 208.046 5.400 207.766 6.000 207.726C6.680 207.726 7.280 207.926 7.600 208.286C7.840 208.526 7.960 208.966 7.960 209.326C7.920 210.046 7.720 211.246 7.040 211.246C6.920 211.246 6.720 211.166 6.520 211.086C6.120 210.806 5.800 210.406 5.480 210.086C5.160 209.726 4.760 209.286 4.760 208.726ZM3.400 212.566C3.520 212.406 3.720 212.286 3.960 212.286C4.160 212.286 4.360 212.446 4.520 212.526C4.760 212.686 4.960 212.886 5.200 213.086C5.640 213.486 6.000 213.926 6.200 214.446C6.280 214.646 6.360 214.806 6.360 215.006C6.360 215.646 5.680 216.446 4.880 216.446C4.120 216.446 3.040 215.646 2.760 214.366C2.720 214.246 2.720 214.166 2.720 214.086C2.720 213.646 2.880 213.206 3.120 212.886C3.160 212.766 3.280 212.646 3.400 212.566Z"></path></g></g><g><line stroke="black" stroke-width="1.6" x1="89.48530953307699" x2="89.48530953307699" y1="158.8461538461538" y2="198.8461538461538"></line></g><g><g><path d="M33.100 168.366C27.300 168.366 23.700 170.806 23.700 173.766C23.700 176.686 26.180 179.286 32.660 179.286C39.780 179.286 42.060 176.806 42.060 173.766C42.060 170.686 37.140 168.366 33.100 168.366ZM28.540 171.086C29.020 169.606 30.620 169.366 31.980 169.366C34.940 169.366 37.340 172.566 37.340 175.206C37.340 175.486 37.300 175.766 37.260 176.006C37.060 177.086 36.420 177.846 35.340 178.126C34.900 178.246 34.460 178.286 34.020 178.286C33.620 178.286 33.260 178.246 32.860 178.126C32.140 177.886 31.420 177.486 30.820 176.966C30.500 176.686 30.180 176.366 29.900 176.006C29.060 175.006 28.380 173.526 28.380 172.166C28.380 171.806 28.420 171.446 28.540 171.086Z"></path></g></g></g><g transform="translate(804.9279926369229)"><g><g><line stroke="#6A6A6A" stroke-width="1.3" x1="-16.600000000000023" x2="88.68530953307697" y1="198.8461538461538" y2="198.8461538461538"></line><line stroke="#6A6A6A" stroke-width="1.3" x1="-16.600000000000023" x2="88.68530953307697" y1="188.8461538461538" y2="188.8461538461538"></line><line stroke="#6A6A6A" stroke-width="1.3" x1="-16.600000000000023" x2="88.68530953307697" y1="178.8461538461538" y2="178.8461538461538"></line><line stroke="#6A6A6A" stroke-width="1.3" x1="-16.600000000000023" x2="88.68530953307697" y1="168.8461538461538" y2="168.8461538461538"></line><line stroke="#6A6A6A" stroke-width="1.3" x1="-16.600000000000023" x2="88.68530953307697" y1="158.8461538461538" y2="158.8461538461538"></line></g><g><path d="M2.980 162.046C-1.500 162.046-3.500 166.166-3.500 168.606C-3.500 168.726-3.500 168.846-3.460 168.966C-3.180 171.366-1.660 172.606-0.140 172.606L0.020 172.606C1.620 172.606 3.260 170.846 3.260 169.246C3.260 166.886 1.180 166.486 0.060 166.486L-0.700 166.486C-1.260 166.486-1.340 166.166-1.340 165.926C-1.340 165.846-1.300 165.766-1.300 165.766C-0.380 163.646 1.260 163.406 1.980 163.406C2.220 163.406 2.380 163.446 2.380 163.446C3.220 163.446 3.900 163.806 4.500 164.446C5.460 165.566 5.580 166.806 5.740 168.166C5.740 168.206 5.780 168.286 5.780 168.486C5.860 168.966 5.860 169.486 5.860 169.966C5.860 171.926 5.540 173.966 4.940 175.806C4.020 178.486 2.660 180.206 0.420 181.926C-0.820 182.886-2.220 183.486-3.580 184.246C-3.980 184.486-4.100 184.846-4.100 184.966C-4.100 185.166-3.740 185.406-3.580 185.406C-0.500 185.406 3.100 182.646 5.100 180.646C6.980 178.766 8.460 176.566 9.380 174.406C10.100 172.766 10.500 171.126 10.500 169.726L10.500 169.566C10.420 166.806 9.340 165.046 8.020 163.966C5.860 162.206 3.140 162.046 3.140 162.046ZM13.220 170.486C12.300 170.486 11.500 171.286 11.500 172.246C11.500 173.206 12.300 174.006 13.220 174.006C14.220 174.006 15.020 173.206 15.020 172.246C15.020 171.286 14.220 170.486 13.220 170.486ZM13.220 163.766C12.220 163.766 11.460 164.526 11.460 165.486C11.460 166.486 12.220 167.286 13.220 167.286C14.180 167.286 14.980 166.486 14.980 165.486C14.980 164.526 14.180 163.766 13.220 163.766Z"></path><path d="M5.880 180.438C5.400 180.438 4.920 180.478 4.520 180.678C3.480 181.078 2.920 181.958 2.920 182.918C2.920 183.478 3.120 184.038 3.560 184.558C3.600 184.558 3.640 184.598 3.640 184.678C3.640 184.798 3.560 184.838 3.400 184.878C2.360 185.238 1.360 186.398 1.360 187.518C1.360 187.678 1.400 187.798 1.440 187.998C1.760 189.478 3.680 190.318 5.040 190.318C5.600 190.318 6.240 190.238 6.680 190.078C7.800 189.598 8.520 188.558 8.520 187.478C8.520 186.998 8.400 186.558 8.160 186.118C8 185.918 8 185.718 8 185.478C8 185.238 8.080 185.038 8.320 184.838C8.680 184.558 9.560 184.238 9.560 182.838C9.560 180.838 6.680 180.438 6.040 180.438ZM4.920 182.118C5 181.438 5.560 181.158 6.160 181.118C6.840 181.118 7.440 181.318 7.760 181.678C8 181.918 8.120 182.358 8.120 182.718C8.080 183.438 7.880 184.638 7.200 184.638C7.080 184.638 6.880 184.558 6.680 184.478C6.280 184.198 5.960 183.798 5.640 183.478C5.320 183.118 4.920 182.678 4.920 182.118ZM3.560 185.958C3.680 185.798 3.880 185.678 4.120 185.678C4.320 185.678 4.520 185.838 4.680 185.918C4.920 186.078 5.120 186.278 5.360 186.478C5.800 186.878 6.160 187.318 6.360 187.838C6.440 188.038 6.520 188.198 6.520 188.398C6.520 189.038 5.840 189.838 5.040 189.838C4.280 189.838 3.200 189.038 2.920 187.758C2.880 187.638 2.880 187.558 2.880 187.478C2.880 187.038 3.040 186.598 3.280 186.278C3.320 186.158 3.440 186.038 3.560 185.958Z"></path></g></g><g><line stroke="black" stroke-width="1.6" x1="89.48530953307699" x2="89.48530953307699" y1="158.8461538461538" y2="198.8461538461538"></line></g><g><g><path d="M33.100 108.366C27.300 108.366 23.700 110.806 23.700 113.766C23.700 116.686 26.180 119.286 32.660 119.286C39.780 119.286 42.060 116.806 42.060 113.766C42.060 110.686 37.140 108.366 33.100 108.366ZM28.540 111.086C29.020 109.606 30.620 109.366 31.980 109.366C34.940 109.366 37.340 112.566 37.340 115.206C37.340 115.486 37.300 115.766 37.260 116.006C37.060 117.086 36.420 117.846 35.340 118.126C34.900 118.246 34.460 118.286 34.020 118.286C33.620 118.286 33.260 118.246 32.860 118.126C32.140 117.886 31.420 117.486 30.820 116.966C30.500 116.686 30.180 116.366 29.900 116.006C29.060 115.006 28.380 113.526 28.380 112.166C28.380 111.806 28.420 111.446 28.540 111.086Z"></path></g><line stroke="#000000" stroke-width="2.2" x1="20.5" x2="47.3" y1="148.8461538461538" y2="148.8461538461538"></line><line stroke="#000000" stroke-width="2.2" x1="20.5" x2="47.3" y1="138.8461538461538" y2="138.8461538461538"></line><line stroke="#000000" stroke-width="2.2" x1="20.5" x2="47.3" y1="128.8461538461538" y2="128.8461538461538"></line><line stroke="#000000" stroke-width="2.2" x1="20.5" x2="47.3" y1="118.84615384615381" y2="118.84615384615381"></line></g></g><g transform="translate(910.2133021699998)"><g><g><line stroke="#6A6A6A" stroke-width="1.3" x1="-16.600000000000023" x2="88.68530953307697" y1="198.8461538461538" y2="198.8461538461538"></line><line stroke="#6A6A6A" stroke-width="1.3" x1="-16.600000000000023" x2="88.68530953307697" y1="188.8461538461538" y2="188.8461538461538"></line><line stroke="#6A6A6A" stroke-width="1.3" x1="-16.600000000000023" x2="88.68530953307697" y1="178.8461538461538" y2="178.8461538461538"></line><line stroke="#6A6A6A" stroke-width="1.3" x1="-16.600000000000023" x2="88.68530953307697" y1="168.8461538461538" y2="168.8461538461538"></line><line stroke="#6A6A6A" stroke-width="1.3" x1="-16.600000000000023" x2="88.68530953307697" y1="158.8461538461538" y2="158.8461538461538"></line></g><g><path d="M2.980 172.046C-1.500 172.046-3.500 176.166-3.500 178.606C-3.500 178.726-3.500 178.846-3.460 178.966C-3.180 181.366-1.660 182.606-0.140 182.606L0.020 182.606C1.620 182.606 3.260 180.846 3.260 179.246C3.260 176.886 1.180 176.486 0.060 176.486L-0.700 176.486C-1.260 176.486-1.340 176.166-1.340 175.926C-1.340 175.846-1.300 175.766-1.300 175.766C-0.380 173.646 1.260 173.406 1.980 173.406C2.220 173.406 2.380 173.446 2.380 173.446C3.220 173.446 3.900 173.806 4.500 174.446C5.460 175.566 5.580 176.806 5.740 178.166C5.740 178.206 5.780 178.286 5.780 178.486C5.860 178.966 5.860 179.486 5.860 179.966C5.860 181.926 5.540 183.966 4.940 185.806C4.020 188.486 2.660 190.206 0.420 191.926C-0.820 192.886-2.220 193.486-3.580 194.246C-3.980 194.486-4.100 194.846-4.100 194.966C-4.100 195.166-3.740 195.406-3.580 195.406C-0.500 195.406 3.100 192.646 5.100 190.646C6.980 188.766 8.460 186.566 9.380 184.406C10.100 182.766 10.500 181.126 10.500 179.726L10.500 179.566C10.420 176.806 9.340 175.046 8.020 173.966C5.860 172.206 3.140 172.046 3.140 172.046ZM13.220 180.486C12.300 180.486 11.500 181.286 11.500 182.246C11.500 183.206 12.300 184.006 13.220 184.006C14.220 184.006 15.020 183.206 15.020 182.246C15.020 181.286 14.220 180.486 13.220 180.486ZM13.220 173.766C12.220 173.766 11.460 174.526 11.460 175.486C11.460 176.486 12.220 177.286 13.220 177.286C14.180 177.286 14.980 176.486 14.980 175.486C14.980 174.526 14.180 173.766 13.220 173.766Z"></path></g></g><g><line stroke="black" stroke-width="1.6" x1="89.48530953307699" x2="89.48530953307699" y1="158.8461538461538" y2="198.8461538461538"></line></g><g><g><path d="M33.100 153.366C27.300 153.366 23.700 155.806 23.700 158.766C23.700 161.686 26.180 164.286 32.660 164.286C39.780 164.286 42.060 161.806 42.060 158.766C42.060 155.686 37.140 153.366 33.100 153.366ZM28.540 156.086C29.020 154.606 30.620 154.366 31.980 154.366C34.940 154.366 37.340 157.566 37.340 160.206C37.340 160.486 37.300 160.766 37.260 161.006C37.060 162.086 36.420 162.846 35.340 163.126C34.900 163.246 34.460 163.286 34.020 163.286C33.620 163.286 33.260 163.246 32.860 163.126C32.140 162.886 31.420 162.486 30.820 161.966C30.500 161.686 30.180 161.366 29.900 161.006C29.060 160.006 28.380 158.526 28.380 157.166C28.380 156.806 28.420 156.446 28.540 156.086Z"></path></g></g></g><g transform="translate(1015.4986117030767)"><g><g><line stroke="#6A6A6A" stroke-width="1.3" x1="-16.600000000000023" x2="88.68530953307697" y1="198.8461538461538" y2="198.8461538461538"></line><line stroke="#6A6A6A" stroke-width="1.3" x1="-16.600000000000023" x2="88.68530953307697" y1="188.8461538461538" y2="188.8461538461538"></line><line stroke="#6A6A6A" stroke-width="1.3" x1="-16.600000000000023" x2="88.68530953307697" y1="178.8461538461538" y2="178.8461538461538"></line><line stroke="#6A6A6A" stroke-width="1.3" x1="-16.600000000000023" x2="88.68530953307697" y1="168.8461538461538" y2="168.8461538461538"></line><line stroke="#6A6A6A" stroke-width="1.3" x1="-16.600000000000023" x2="88.68530953307697" y1="158.8461538461538" y2="158.8461538461538"></line></g><g><path d="M14.100 198.806C13.860 195.446 11.380 192.806 8.020 192.806L7.740 192.806C7.660 192.806 7.500 192.806 7.420 192.846C7.140 191.126 7.020 190.726 6.740 189.286C10.260 186.046 11.540 182.726 11.540 178.086C11.540 176.446 11.140 174.766 10.380 173.086C9.380 170.726 8.420 170.566 8.420 170.566C5.940 171.686 4.180 175.646 4.180 180.406C4.180 181.246 4.220 182.126 4.380 183.046L4.700 184.726C0.820 188.006-3.500 191.886-3.500 196.926C-3.500 197.166-3.500 197.446-3.460 197.726C-2.980 204.086 1.980 206.086 6.260 206.086C7.060 206.086 7.620 205.966 8.180 205.966L8.700 208.806C8.820 209.446 8.980 210.926 8.980 211.446C8.980 215.726 5.780 215.766 5.460 215.766L4.940 215.766C4.060 215.766 3.300 215.646 2.740 215.246C2.580 215.126 2.500 215.046 2.500 214.966C2.500 214.846 2.620 214.806 2.740 214.726C2.980 214.686 3.180 214.686 3.420 214.566C4.500 214.246 5.940 213.406 5.940 211.846C5.940 211.846 5.940 211.646 5.940 211.646C5.940 210.526 5.460 209.486 4.380 209.046C3.980 208.846 3.620 208.766 3.220 208.766C1.660 208.766 0.220 210.006 0.020 211.646C-0.020 211.646-0.100 212.046-0.100 212.566C-0.100 214.046 0.580 217.046 4.900 217.046C5.060 217.046 5.300 217.006 5.500 217.006C7.340 216.886 10.300 215.446 10.300 211.326C10.300 209.326 9.740 207.446 9.460 205.606C12.380 204.526 14.100 202.126 14.100 199.206ZM8.620 175.726C9.500 175.726 10.060 176.406 10.060 177.846C10.060 178.006 10.060 178.206 10.020 178.406C9.700 180.566 8.580 181.566 5.780 183.726C5.700 183.086 5.580 182.566 5.580 182.406C5.540 182.126 5.540 181.806 5.540 181.486C5.540 178.766 6.540 175.806 8.620 175.726ZM-1.060 199.046C-1.060 194.686 2.100 192.446 5.540 189.886L6.020 193.046C3.660 193.726 1.820 195.966 1.820 198.326C1.820 198.726 1.860 199.126 1.980 199.486C2.380 201.246 3.540 202.566 4.780 202.966C5.020 203.046 5.220 203.086 5.340 203.086C5.540 203.086 5.660 202.966 5.660 202.846C5.660 202.686 5.460 202.486 5.260 202.366C4.740 202.166 3.820 201.126 3.780 200.046L3.780 199.806C3.780 197.966 5.220 197.326 6.620 197.046L7.980 204.566C7.580 204.726 7.020 204.806 6.260 204.806C3.420 204.806-0.900 203.846-1.060 199.286ZM9.260 204.286C8.860 201.926 8.700 199.886 8.140 196.926C10.340 196.926 11.820 198.206 11.940 200.406L11.940 200.686C11.940 202.526 11.140 203.486 9.260 204.286Z"></path></g></g><g><line stroke="black" stroke-width="1.6" x1="89.48530953307699" x2="89.48530953307699" y1="158.8461538461538" y2="198.8461538461538"></line></g><g><g><path d="M33.100 213.366C27.300 213.366 23.700 215.806 23.700 218.766C23.700 221.686 26.180 224.286 32.660 224.286C39.780 224.286 42.060 221.806 42.060 218.766C42.060 215.686 37.140 213.366 33.100 213.366ZM28.540 216.086C29.020 214.606 30.620 214.366 31.980 214.366C34.940 214.366 37.340 217.566 37.340 220.206C37.340 220.486 37.300 220.766 37.260 221.006C37.060 222.086 36.420 222.846 35.340 223.126C34.900 223.246 34.460 223.286 34.020 223.286C33.620 223.286 33.260 223.246 32.860 223.126C32.140 222.886 31.420 222.486 30.820 221.966C30.500 221.686 30.180 221.366 29.900 221.006C29.060 220.006 28.380 218.526 28.380 217.166C28.380 216.806 28.420 216.446 28.540 216.086Z"></path></g><line stroke="#000000" stroke-width="2.2" x1="20.5" x2="47.3" y1="208.8461538461538" y2="208.8461538461538"></line><line stroke="#000000" stroke-width="2.2" x1="20.5" x2="47.3" y1="218.8461538461538" y2="218.8461538461538"></line></g></g><g transform="translate(1120.7839212361537)"><g><g><line stroke="#6A6A6A" stroke-width="1.3" x1="-16.59999999999991" x2="113.98530953307704" y1="198.8461538461538" y2="198.8461538461538"></line><line stroke="#6A6A6A" stroke-width="1.3" x1="-16.59999999999991" x2="113.98530953307704" y1="188.8461538461538" y2="188.8461538461538"></line><line stroke="#6A6A6A" stroke-width="1.3" x1="-16.59999999999991" x2="113.98530953307704" y1="178.8461538461538" y2="178.8461538461538"></line><line stroke="#6A6A6A" stroke-width="1.3" x1="-16.59999999999991" x2="113.98530953307704" y1="168.8461538461538" y2="168.8461538461538"></line><line stroke="#6A6A6A" stroke-width="1.3" x1="-16.59999999999991" x2="113.98530953307704" y1="158.8461538461538" y2="158.8461538461538"></line></g><g><path d="M16.740 166.006C16.740 162.926 14.740 159.846 10.900 159.846C9.620 159.846 9.180 160.686 8.820 160.686C8.420 160.686 8.020 160.086 7.780 159.686C7.660 159.366 7.460 159.126 7.460 158.846C7.460 158.606 7.580 158.486 7.740 158.126C7.780 158.046 7.860 158.046 7.860 157.966C8.100 157.606 8.500 157.046 8.820 157.046C9.180 157.046 9.620 157.806 10.900 157.806C14.740 157.806 16.740 154.766 16.740 151.726C16.740 148.686 14.180 145.566 10.380 145.566C6.540 145.566 5.380 148.086 5.380 149.166C5.380 150.286 6.260 151.486 7.420 151.486C8.540 151.486 9.620 150.526 9.620 149.486C9.620 148.566 8.420 147.926 8.180 147.726C8.100 147.646 7.700 147.566 7.700 147.406C7.700 147.366 7.700 147.326 7.780 147.286C8.300 146.766 8.900 146.606 9.500 146.606C11.780 146.606 12.300 148.566 12.300 150.206L12.300 153.366C12.300 155.406 12.220 156.126 10.460 156.126C8.740 156.126 8.060 155.406 7.660 154.086C7.460 153.526 7.260 153.326 7.060 153.326C6.780 153.326 6.540 153.726 6.460 154.086C5.780 157.246 4.740 157.406 3.980 157.486L3.980 146.166C3.980 145.806 3.380 145.566 3.060 145.566C2.740 145.566 2.500 145.806 2.500 146.166L2.500 171.566C2.500 171.886 2.740 172.126 3.060 172.126C3.380 172.126 3.980 171.886 3.980 171.566L3.980 160.206C4.740 160.286 5.780 160.446 6.460 163.606C6.540 163.966 6.780 164.366 7.060 164.366C7.260 164.366 7.460 164.166 7.660 163.606C8.060 162.286 8.740 161.526 10.460 161.526C12.220 161.526 12.300 162.286 12.300 164.366L12.300 167.486C12.300 169.166 11.780 171.046 9.500 171.046C8.420 171.046 8.060 170.686 7.820 170.446C7.740 170.366 7.700 170.326 7.700 170.286C7.700 170.126 8.020 170.046 8.100 169.966C8.380 169.686 9.620 169.246 9.620 168.166C9.620 167.126 8.540 166.166 7.420 166.166C6.260 166.166 5.380 167.406 5.380 168.486C5.380 169.566 6.540 172.126 10.380 172.126C14.180 172.126 16.740 169.006 16.740 166.006ZM0.580 146.166C0.580 145.846 0.340 145.566-0.020 145.566L-2.900 145.566C-3.220 145.566-3.500 145.846-3.500 146.166L-3.500 171.526C-3.500 171.846-3.220 172.126-2.900 172.126L-0.020 172.126C0.340 172.126 0.580 171.846 0.580 171.526Z"></path></g></g><g><line stroke="black" stroke-width="1.6" x1="89.48530953307699" x2="89.48530953307699" y1="158.8461538461538" y2="198.8461538461538"></line><g><g><path d="M115.025 196.006C115.025 192.926 113.025 189.846 109.185 189.846C107.905 189.846 107.465 190.686 107.105 190.686C106.705 190.686 106.305 190.086 106.065 189.686C105.945 189.366 105.745 189.126 105.745 188.846C105.745 188.606 105.865 188.486 106.025 188.126C106.065 188.046 106.145 188.046 106.145 187.966C106.385 187.606 106.785 187.046 107.105 187.046C107.465 187.046 107.905 187.806 109.185 187.806C113.025 187.806 115.025 184.766 115.025 181.726C115.025 178.686 112.465 175.566 108.665 175.566C104.825 175.566 103.665 178.086 103.665 179.166C103.665 180.286 104.545 181.486 105.705 181.486C106.825 181.486 107.905 180.526 107.905 179.486C107.905 178.566 106.705 177.926 106.465 177.726C106.385 177.646 105.985 177.566 105.985 177.406C105.985 177.366 105.985 177.326 106.065 177.286C106.585 176.766 107.185 176.606 107.785 176.606C110.065 176.606 110.585 178.566 110.585 180.206L110.585 183.366C110.585 185.406 110.505 186.126 108.745 186.126C107.025 186.126 106.345 185.406 105.945 184.086C105.745 183.526 105.545 183.326 105.345 183.326C105.065 183.326 104.825 183.726 104.745 184.086C104.065 187.246 103.025 187.406 102.265 187.486L102.265 176.166C102.265 175.806 101.665 175.566 101.345 175.566C101.025 175.566 100.785 175.806 100.785 176.166L100.785 201.566C100.785 201.886 101.025 202.126 101.345 202.126C101.665 202.126 102.265 201.886 102.265 201.566L102.265 190.206C103.025 190.286 104.065 190.446 104.745 193.606C104.825 193.966 105.065 194.366 105.345 194.366C105.545 194.366 105.745 194.166 105.945 193.606C106.345 192.286 107.025 191.526 108.745 191.526C110.505 191.526 110.585 192.286 110.585 194.366L110.585 197.486C110.585 199.166 110.065 201.046 107.785 201.046C106.705 201.046 106.345 200.686 106.105 200.446C106.025 200.366 105.985 200.326 105.985 200.286C105.985 200.126 106.305 200.046 106.385 199.966C106.665 199.686 107.905 199.246 107.905 198.166C107.905 197.126 106.825 196.166 105.705 196.166C104.545 196.166 103.665 197.406 103.665 198.486C103.665 199.566 104.825 202.126 108.665 202.126C112.465 202.126 115.025 199.006 115.025 196.006ZM98.865 176.166C98.865 175.846 98.625 175.566 98.265 175.566L95.385 175.566C95.065 175.566 94.785 175.846 94.785 176.166L94.785 201.526C94.785 201.846 95.065 202.126 95.385 202.126L98.265 202.126C98.625 202.126 98.865 201.846 98.865 201.526Z"></path></g></g></g><g><g><path d="M33.100 153.366C27.300 153.366 23.700 155.806 23.700 158.766C23.700 161.686 26.180 164.286 32.660 164.286C39.780 164.286 42.060 161.806 42.060 158.766C42.060 155.686 37.140 153.366 33.100 153.366ZM28.540 156.086C29.020 154.606 30.620 154.366 31.980 154.366C34.940 154.366 37.340 157.566 37.340 160.206C37.340 160.486 37.300 160.766 37.260 161.006C37.060 162.086 36.420 162.846 35.340 163.126C34.900 163.246 34.460 163.286 34.020 163.286C33.620 163.286 33.260 163.246 32.860 163.126C32.140 162.886 31.420 162.486 30.820 161.966C30.500 161.686 30.180 161.366 29.900 161.006C29.060 160.006 28.380 158.526 28.380 157.166C28.380 156.806 28.420 156.446 28.540 156.086Z"></path></g></g></g><g transform="translate(93.84615384615385)"><g><g><line stroke="#6A6A6A" stroke-width="1.3" x1="0" x2="99.17264060095818" y1="344.8461538461538" y2="344.8461538461538"></line><line stroke="#6A6A6A" stroke-width="1.3" x1="0" x2="99.17264060095818" y1="334.8461538461538" y2="334.8461538461538"></line><line stroke="#6A6A6A" stroke-width="1.3" x1="0" x2="99.17264060095818" y1="324.8461538461538" y2="324.8461538461538"></line><line stroke="#6A6A6A" stroke-width="1.3" x1="0" x2="99.17264060095818" y1="314.8461538461538" y2="314.8461538461538"></line><line stroke="#6A6A6A" stroke-width="1.3" x1="0" x2="99.17264060095818" y1="304.8461538461538" y2="304.8461538461538"></line></g><g><path d="M25.520 314.606C20.760 314.606 18.560 317.126 18.560 319.646C18.560 321.766 19.920 322.926 21.640 322.926C23.200 322.926 24.360 321.926 24.360 320.166C24.360 318.646 23.560 317.846 22.760 317.566C22.320 317.406 21.680 317.406 21.680 316.966C21.680 316.686 22.080 316.406 22.760 316.206C23.400 316.006 24.200 315.886 25.080 315.886C28.400 315.886 29.320 318.246 29.320 323.486C29.320 328.726 28.600 331.286 26 331.286C23.160 331.286 22.240 329.326 21.720 327.566C21.520 326.886 21.320 326.486 20.880 326.486C20.480 326.486 20.240 326.846 20.120 327.486C19.280 332.006 17.600 333.046 16.560 333.326C16.400 333.366 16.200 333.406 16.200 333.086L16.200 315.566C16.200 315.006 15.920 314.726 15.360 314.726L15.320 314.726C14.760 314.726 14.480 315.006 14.480 315.566L14.480 354.126C14.480 354.686 14.760 354.966 15.320 354.966L15.360 354.966C15.920 354.966 16.200 354.686 16.200 354.126L16.200 336.606C16.200 336.286 16.400 336.326 16.560 336.366C17.600 336.646 19.280 337.686 20.120 342.206C20.240 342.846 20.480 343.206 20.880 343.206C21.320 343.206 21.520 342.806 21.720 342.126C22.240 340.366 23.160 338.406 26 338.406C28.600 338.406 29.320 340.966 29.320 346.206C29.320 351.446 28.400 353.806 25.080 353.806C24.200 353.806 23.400 353.686 22.760 353.486C22.080 353.286 21.680 353.006 21.680 352.726C21.680 352.286 22.320 352.286 22.760 352.126C23.560 351.846 24.360 351.046 24.360 349.526C24.360 347.766 23.200 346.766 21.640 346.766C19.920 346.766 18.560 347.926 18.560 350.046C18.560 352.566 20.760 355.086 25.520 355.086C32.080 355.086 34.960 350.486 34.960 346.326C34.960 340.806 31.920 336.966 26.600 336.966C25.440 336.966 24.680 337.166 24.160 337.326C23.760 337.446 23.360 337.526 23 337.286C22.440 336.926 21.560 335.646 21.560 334.846C21.560 334.046 22.440 332.766 23 332.406C23.360 332.166 23.760 332.246 24.160 332.366C24.680 332.526 25.440 332.726 26.600 332.726C31.920 332.726 34.960 328.886 34.960 323.366C34.960 319.206 32.080 314.606 25.520 314.606ZM7.840 314.726C7.280 314.726 7 315.006 7 315.566L7 354.126C7 354.686 7.280 354.966 7.840 354.966L11.280 354.966C11.840 354.966 12.120 354.686 12.120 354.126L12.120 315.566C12.120 315.006 11.840 314.726 11.280 314.726Z"></path></g><g></g><text font-family='Alegreya' font-style='italic' text-anchor='end' stroke='#7a7a7a' font-size="24" x="0" y="294.8461538461538">11</text></g><g><line stroke="black" stroke-width="1.6" x1="99.97264060095817" x2="99.97264060095817" y1="304.8461538461538" y2="344.8461538461538"></line></g><g><g><path d="M57.900 329.366C52.100 329.366 48.500 331.806 48.500 334.766C48.500 337.686 50.980 340.286 57.460 340.286C64.580 340.286 66.860 337.806 66.860 334.766C66.860 331.686 61.940 329.366 57.900 329.366ZM53.340 332.086C53.820 330.606 55.420 330.366 56.780 330.366C59.740 330.366 62.140 333.566 62.140 336.206C62.140 336.486 62.100 336.766 62.060 337.006C61.860 338.086 61.220 338.846 60.140 339.126C59.700 339.246 59.260 339.286 58.820 339.286C58.420 339.286 58.060 339.246 57.660 339.126C56.940 338.886 56.220 338.486 55.620 337.966C55.300 337.686 54.980 337.366 54.700 337.006C53.860 336.006 53.180 334.526 53.180 333.166C53.180 332.806 53.220 332.446 53.340 332.086Z"></path></g></g></g><g transform="translate(209.618794447112)"><g><g><line stroke="#6A6A6A" stroke-width="1.3" x1="-16.599999999999994" x2="74.37264060095816" y1="344.8461538461538" y2="344.8461538461538"></line><line stroke="#6A6A6A" stroke-width="1.3" x1="-16.599999999999994" x2="74.37264060095816" y1="334.8461538461538" y2="334.8461538461538"></line><line stroke="#6A6A6A" stroke-width="1.3" x1="-16.599999999999994" x2="74.37264060095816" y1="324.8461538461538" y2="324.8461538461538"></line><line stroke="#6A6A6A" stroke-width="1.3" x1="-16.599999999999994" x2="74.37264060095816" y1="314.8461538461538" y2="314.8461538461538"></line><line stroke="#6A6A6A" stroke-width="1.3" x1="-16.599999999999994" x2="74.37264060095816" y1="304.8461538461538" y2="304.8461538461538"></line></g><g><path d="M16.740 352.006C16.740 348.926 14.740 345.846 10.900 345.846C9.620 345.846 9.180 346.686 8.820 346.686C8.420 346.686 8.020 346.086 7.780 345.686C7.660 345.366 7.460 345.126 7.460 344.846C7.460 344.606 7.580 344.486 7.740 344.126C7.780 344.046 7.860 344.046 7.860 343.966C8.100 343.606 8.500 343.046 8.820 343.046C9.180 343.046 9.620 343.806 10.900 343.806C14.740 343.806 16.740 340.766 16.740 337.726C16.740 334.686 14.180 331.566 10.380 331.566C6.540 331.566 5.380 334.086 5.380 335.166C5.380 336.286 6.260 337.486 7.420 337.486C8.540 337.486 9.620 336.526 9.620 335.486C9.620 334.566 8.420 333.926 8.180 333.726C8.100 333.646 7.700 333.566 7.700 333.406C7.700 333.366 7.700 333.326 7.780 333.286C8.300 332.766 8.900 332.606 9.500 332.606C11.780 332.606 12.300 334.566 12.300 336.206L12.300 339.366C12.300 341.406 12.220 342.126 10.460 342.126C8.740 342.126 8.060 341.406 7.660 340.086C7.460 339.526 7.260 339.326 7.060 339.326C6.780 339.326 6.540 339.726 6.460 340.086C5.780 343.246 4.740 343.406 3.980 343.486L3.980 332.166C3.980 331.806 3.380 331.566 3.060 331.566C2.740 331.566 2.500 331.806 2.500 332.166L2.500 357.566C2.500 357.886 2.740 358.126 3.060 358.126C3.380 358.126 3.980 357.886 3.980 357.566L3.980 346.206C4.740 346.286 5.780 346.446 6.460 349.606C6.540 349.966 6.780 350.366 7.060 350.366C7.260 350.366 7.460 350.166 7.660 349.606C8.060 348.286 8.740 347.526 10.460 347.526C12.220 347.526 12.300 348.286 12.300 350.366L12.300 353.486C12.300 355.166 11.780 357.046 9.500 357.046C8.420 357.046 8.060 356.686 7.820 356.446C7.740 356.366 7.700 356.326 7.700 356.286C7.700 356.126 8.020 356.046 8.100 355.966C8.380 355.686 9.620 355.246 9.620 354.166C9.620 353.126 8.540 352.166 7.420 352.166C6.260 352.166 5.380 353.406 5.380 354.486C5.380 355.566 6.540 358.126 10.380 358.126C14.180 358.126 16.740 355.006 16.740 352.006ZM0.580 332.166C0.580 331.846 0.340 331.566-0.020 331.566L-2.900 331.566C-3.220 331.566-3.500 331.846-3.500 332.166L-3.500 357.526C-3.500 357.846-3.220 358.126-2.900 358.126L-0.020 358.126C0.340 358.126 0.580 357.846 0.580 357.526Z"></path></g></g><g><line stroke="black" stroke-width="1.6" x1="75.17264060095816" x2="75.17264060095816" y1="304.8461538461538" y2="344.8461538461538"></line></g><g><g><path d="M33.100 339.366C27.300 339.366 23.700 341.806 23.700 344.766C23.700 347.686 26.180 350.286 32.660 350.286C39.780 350.286 42.060 347.806 42.060 344.766C42.060 341.686 37.140 339.366 33.100 339.366ZM28.540 342.086C29.020 340.606 30.620 340.366 31.980 340.366C34.940 340.366 37.340 343.566 37.340 346.206C37.340 346.486 37.300 346.766 37.260 347.006C37.060 348.086 36.420 348.846 35.340 349.126C34.900 349.246 34.460 349.286 34.020 349.286C33.620 349.286 33.260 349.246 32.860 349.126C32.140 348.886 31.420 348.486 30.820 347.966C30.500 347.686 30.180 347.366 29.900 347.006C29.060 346.006 28.380 344.526 28.380 343.166C28.380 342.806 28.420 342.446 28.540 342.086Z"></path></g></g></g><g transform="translate(300.5914350480702)"><g><g><line stroke="#6A6A6A" stroke-width="1.3" x1="-16.599999999999994" x2="74.37264060095816" y1="344.8461538461538" y2="344.8461538461538"></line><line stroke="#6A6A6A" stroke-width="1.3" x1="-16.599999999999994" x2="74.37264060095816" y1="334.8461538461538" y2="334.8461538461538"></line><line stroke="#6A6A6A" stroke-width="1.3" x1="-16.599999999999994" x2="74.37264060095816" y1="324.8461538461538" y2="324.8461538461538"></line><line stroke="#6A6A6A" stroke-width="1.3" x1="-16.599999999999994" x2="74.37264060095816" y1="314.8461538461538" y2="314.8461538461538"></line><line stroke="#6A6A6A" stroke-width="1.3" x1="-16.599999999999994" x2="74.37264060095816" y1="304.8461538461538" y2="304.8461538461538"></line></g><g><path d="M2.900 334.246L2.900 315.446C2.900 315.126 2.660 314.846 2.340 314.846L-2.940 314.846C-3.260 314.846-3.500 315.126-3.500 315.446L-3.500 334.246C-3.500 334.566-3.260 334.846-2.940 334.846L2.340 334.846C2.660 334.846 2.900 334.566 2.900 334.246ZM11.780 315.446C11.780 315.126 11.540 314.846 11.220 314.846L5.940 314.846C5.620 314.846 5.380 315.126 5.380 315.446L5.380 334.246C5.380 334.566 5.620 334.846 5.940 334.846L11.220 334.846C11.540 334.846 11.780 334.566 11.780 334.246Z"></path></g></g><g><line stroke="black" stroke-width="1.6" x1="75.17264060095816" x2="75.17264060095816" y1="304.8461538461538" y2="344.8461538461538"></line></g><g><g><path d="M33.100 319.366C27.300 319.366 23.700 321.806 23.700 324.766C23.700 327.686 26.180 330.286 32.660 330.286C39.780 330.286 42.060 327.806 42.060 324.766C42.060 321.686 37.140 319.366 33.100 319.366ZM28.540 322.086C29.020 320.606 30.620 320.366 31.980 320.366C34.940 320.366 37.340 323.566 37.340 326.206C37.340 326.486 37.300 326.766 37.260 327.006C37.060 328.086 36.420 328.846 35.340 329.126C34.900 329.246 34.460 329.286 34.020 329.286C33.620 329.286 33.260 329.246 32.860 329.126C32.140 328.886 31.420 328.486 30.820 327.966C30.500 327.686 30.180 327.366 29.900 327.006C29.060 326.006 28.380 324.526 28.380 323.166C28.380 322.806 28.420 322.446 28.540 322.086Z"></path></g></g></g><g transform="translate(391.5640756490284)"><g><g><line stroke="#6A6A6A" stroke-width="1.3" x1="-16.600000000000023" x2="74.37264060095816" y1="344.8461538461538" y2="344.8461538461538"></line><line stroke="#6A6A6A" stroke-width="1.3" x1="-16.600000000000023" x2="74.37264060095816" y1="334.8461538461538" y2="334.8461538461538"></line><line stroke="#6A6A6A" stroke-width="1.3" x1="-16.600000000000023" x2="74.37264060095816" y1="324.8461538461538" y2="324.8461538461538"></line><line stroke="#6A6A6A" stroke-width="1.3" x1="-16.600000000000023" x2="74.37264060095816" y1="314.8461538461538" y2="314.8461538461538"></line><line stroke="#6A6A6A" stroke-width="1.3" x1="-16.600000000000023" x2="74.37264060095816" y1="304.8461538461538" y2="304.8461538461538"></line></g><g><path d="M14.100 334.806C13.860 331.446 11.380 328.806 8.020 328.806L7.740 328.806C7.660 328.806 7.500 328.806 7.420 328.846C7.140 327.126 7.020 326.726 6.740 325.286C10.260 322.046 11.540 318.726 11.540 314.086C11.540 312.446 11.140 310.766 10.380 309.086C9.380 306.726 8.420 306.566 8.420 306.566C5.940 307.686 4.180 311.646 4.180 316.406C4.180 317.246 4.220 318.126 4.380 319.046L4.700 320.726C0.820 324.006-3.500 327.886-3.500 332.926C-3.500 333.166-3.500 333.446-3.460 333.726C-2.980 340.086 1.980 342.086 6.260 342.086C7.060 342.086 7.620 341.966 8.180 341.966L8.700 344.806C8.820 345.446 8.980 346.926 8.980 347.446C8.980 351.726 5.780 351.766 5.460 351.766L4.940 351.766C4.060 351.766 3.300 351.646 2.740 351.246C2.580 351.126 2.500 351.046 2.500 350.966C2.500 350.846 2.620 350.806 2.740 350.726C2.980 350.686 3.180 350.686 3.420 350.566C4.500 350.246 5.940 349.406 5.940 347.846C5.940 347.846 5.940 347.646 5.940 347.646C5.940 346.526 5.460 345.486 4.380 345.046C3.980 344.846 3.620 344.766 3.220 344.766C1.660 344.766 0.220 346.006 0.020 347.646C-0.020 347.646-0.100 348.046-0.100 348.566C-0.100 350.046 0.580 353.046 4.900 353.046C5.060 353.046 5.300 353.006 5.500 353.006C7.340 352.886 10.300 351.446 10.300 347.326C10.300 345.326 9.740 343.446 9.460 341.606C12.380 340.526 14.100 338.126 14.100 335.206ZM8.620 311.726C9.500 311.726 10.060 312.406 10.060 313.846C10.060 314.006 10.060 314.206 10.020 314.406C9.700 316.566 8.580 317.566 5.780 319.726C5.700 319.086 5.580 318.566 5.580 318.406C5.540 318.126 5.540 317.806 5.540 317.486C5.540 314.766 6.540 311.806 8.620 311.726ZM-1.060 335.046C-1.060 330.686 2.100 328.446 5.540 325.886L6.020 329.046C3.660 329.726 1.820 331.966 1.820 334.326C1.820 334.726 1.860 335.126 1.980 335.486C2.380 337.246 3.540 338.566 4.780 338.966C5.020 339.046 5.220 339.086 5.340 339.086C5.540 339.086 5.660 338.966 5.660 338.846C5.660 338.686 5.460 338.486 5.260 338.366C4.740 338.166 3.820 337.126 3.780 336.046L3.780 335.806C3.780 333.966 5.220 333.326 6.620 333.046L7.980 340.566C7.580 340.726 7.020 340.806 6.260 340.806C3.420 340.806-0.900 339.846-1.060 335.286ZM9.260 340.286C8.860 337.926 8.700 335.886 8.140 332.926C10.340 332.926 11.820 334.206 11.940 336.406L11.940 336.686C11.940 338.526 11.140 339.486 9.260 340.286Z"></path><path d="M9.240 296.686C8.760 296.686 8.280 296.726 7.880 296.926C6.840 297.326 6.280 298.206 6.280 299.166C6.280 299.726 6.480 300.286 6.920 300.806C6.960 300.806 7.000 300.846 7.000 300.926C7.000 301.046 6.920 301.086 6.760 301.126C5.720 301.486 4.720 302.646 4.720 303.766C4.720 303.926 4.760 304.046 4.800 304.246C5.120 305.726 7.040 306.566 8.400 306.566C8.960 306.566 9.600 306.486 10.040 306.326C11.160 305.846 11.880 304.806 11.880 303.726C11.880 303.246 11.760 302.806 11.520 302.366C11.360 302.166 11.360 301.966 11.360 301.726C11.360 301.486 11.440 301.286 11.680 301.086C12.040 300.806 12.920 300.486 12.920 299.086C12.920 297.086 10.040 296.686 9.400 296.686ZM8.280 298.366C8.360 297.686 8.920 297.406 9.520 297.366C10.200 297.366 10.800 297.566 11.120 297.926C11.360 298.166 11.480 298.606 11.480 298.966C11.440 299.686 11.240 300.886 10.560 300.886C10.440 300.886 10.240 300.806 10.040 300.726C9.640 300.446 9.320 300.046 9 299.726C8.680 299.366 8.280 298.926 8.280 298.366ZM6.920 302.206C7.040 302.046 7.240 301.926 7.480 301.926C7.680 301.926 7.880 302.086 8.040 302.166C8.280 302.326 8.480 302.526 8.720 302.726C9.160 303.126 9.520 303.566 9.720 304.086C9.800 304.286 9.880 304.446 9.880 304.646C9.880 305.286 9.200 306.086 8.400 306.086C7.640 306.086 6.560 305.286 6.280 304.006C6.240 303.886 6.240 303.806 6.240 303.726C6.240 303.286 6.400 302.846 6.640 302.526C6.680 302.406 6.800 302.286 6.920 302.206Z"></path></g></g><g><line stroke="black" stroke-width="1.6" x1="75.17264060095816" x2="75.17264060095816" y1="304.8461538461538" y2="344.8461538461538"></line></g><g><g><path d="M33.100 384.366C27.300 384.366 23.700 386.806 23.700 389.766C23.700 392.686 26.180 395.286 32.660 395.286C39.780 395.286 42.060 392.806 42.060 389.766C42.060 386.686 37.140 384.366 33.100 384.366ZM28.540 387.086C29.020 385.606 30.620 385.366 31.980 385.366C34.940 385.366 37.340 388.566 37.340 391.206C37.340 391.486 37.300 391.766 37.260 392.006C37.060 393.086 36.420 393.846 35.340 394.126C34.900 394.246 34.460 394.286 34.020 394.286C33.620 394.286 33.260 394.246 32.860 394.126C32.140 393.886 31.420 393.486 30.820 392.966C30.500 392.686 30.180 392.366 29.900 392.006C29.060 391.006 28.380 389.526 28.380 388.166C28.380 387.806 28.420 387.446 28.540 387.086Z"></path></g><line stroke="#000000" stroke-width="2.2" x1="20.5" x2="47.3" y1="354.8461538461538" y2="354.8461538461538"></line><line stroke="#000000" stroke-width="2.2" x1="20.5" x2="47.3" y1="364.8461538461538" y2="364.8461538461538"></line><line stroke="#000000" stroke-width="2.2" x1="20.5" x2="47.3" y1="374.8461538461538" y2="374.8461538461538"></line><line stroke="#000000" stroke-width="2.2" x1="20.5" x2="47.3" y1="384.8461538461538" y2="384.8461538461538"></line></g></g><g transform="translate(482.5367162499865)"><g><g><line stroke="#6A6A6A" stroke-width="1.3" x1="-16.600000000000023" x2="74.37264060095816" y1="344.8461538461538" y2="344.8461538461538"></line><line stroke="#6A6A6A" stroke-width="1.3" x1="-16.600000000000023" x2="74.37264060095816" y1="334.8461538461538" y2="334.8461538461538"></line><line stroke="#6A6A6A" stroke-width="1.3" x1="-16.600000000000023" x2="74.37264060095816" y1="324.8461538461538" y2="324.8461538461538"></line><line stroke="#6A6A6A" stroke-width="1.3" x1="-16.600000000000023" x2="74.37264060095816" y1="314.8461538461538" y2="314.8461538461538"></line><line stroke="#6A6A6A" stroke-width="1.3" x1="-16.600000000000023" x2="74.37264060095816" y1="304.8461538461538" y2="304.8461538461538"></line></g><g><path d="M2.980 308.046C-1.500 308.046-3.500 312.166-3.500 314.606C-3.500 314.726-3.500 314.846-3.460 314.966C-3.180 317.366-1.660 318.606-0.140 318.606L0.020 318.606C1.620 318.606 3.260 316.846 3.260 315.246C3.260 312.886 1.180 312.486 0.060 312.486L-0.700 312.486C-1.260 312.486-1.340 312.166-1.340 311.926C-1.340 311.846-1.300 311.766-1.300 311.766C-0.380 309.646 1.260 309.406 1.980 309.406C2.220 309.406 2.380 309.446 2.380 309.446C3.220 309.446 3.900 309.806 4.500 310.446C5.460 311.566 5.580 312.806 5.740 314.166C5.740 314.206 5.780 314.286 5.780 314.486C5.860 314.966 5.860 315.486 5.860 315.966C5.860 317.926 5.540 319.966 4.940 321.806C4.020 324.486 2.660 326.206 0.420 327.926C-0.820 328.886-2.220 329.486-3.580 330.246C-3.980 330.486-4.100 330.846-4.100 330.966C-4.100 331.166-3.740 331.406-3.580 331.406C-0.500 331.406 3.100 328.646 5.100 326.646C6.980 324.766 8.460 322.566 9.380 320.406C10.100 318.766 10.500 317.126 10.500 315.726L10.500 315.566C10.420 312.806 9.340 311.046 8.020 309.966C5.860 308.206 3.140 308.046 3.140 308.046ZM13.220 316.486C12.300 316.486 11.500 317.286 11.500 318.246C11.500 319.206 12.300 320.006 13.220 320.006C14.220 320.006 15.020 319.206 15.020 318.246C15.020 317.286 14.220 316.486 13.220 316.486ZM13.220 309.766C12.220 309.766 11.460 310.526 11.460 311.486C11.460 312.486 12.220 313.286 13.220 313.286C14.180 313.286 14.980 312.486 14.980 311.486C14.980 310.526 14.180 309.766 13.220 309.766Z"></path><path d="M5.880 298.166C5.400 298.166 4.920 298.206 4.520 298.406C3.480 298.806 2.920 299.686 2.920 300.646C2.920 301.206 3.120 301.766 3.560 302.286C3.600 302.286 3.640 302.326 3.640 302.406C3.640 302.526 3.560 302.566 3.400 302.606C2.360 302.966 1.360 304.126 1.360 305.246C1.360 305.406 1.400 305.526 1.440 305.726C1.760 307.206 3.680 308.046 5.040 308.046C5.600 308.046 6.240 307.966 6.680 307.806C7.800 307.326 8.520 306.286 8.520 305.206C8.520 304.726 8.400 304.286 8.160 303.846C8 303.646 8 303.446 8 303.206C8 302.966 8.080 302.766 8.320 302.566C8.680 302.286 9.560 301.966 9.560 300.566C9.560 298.566 6.680 298.166 6.040 298.166ZM4.920 299.846C5 299.166 5.560 298.886 6.160 298.846C6.840 298.846 7.440 299.046 7.760 299.406C8 299.646 8.120 300.086 8.120 300.446C8.080 301.166 7.880 302.366 7.200 302.366C7.080 302.366 6.880 302.286 6.680 302.206C6.280 301.926 5.960 301.526 5.640 301.206C5.320 300.846 4.920 300.406 4.920 299.846ZM3.560 303.686C3.680 303.526 3.880 303.406 4.120 303.406C4.320 303.406 4.520 303.566 4.680 303.646C4.920 303.806 5.120 304.006 5.360 304.206C5.800 304.606 6.160 305.046 6.360 305.566C6.440 305.766 6.520 305.926 6.520 306.126C6.520 306.766 5.840 307.566 5.040 307.566C4.280 307.566 3.200 306.766 2.920 305.486C2.880 305.366 2.880 305.286 2.880 305.206C2.880 304.766 3.040 304.326 3.280 304.006C3.320 303.886 3.440 303.766 3.560 303.686Z"></path></g></g><g><line stroke="black" stroke-width="1.6" x1="75.17264060095816" x2="75.17264060095816" y1="304.8461538461538" y2="344.8461538461538"></line></g><g><g><path d="M33.100 324.366C27.300 324.366 23.700 326.806 23.700 329.766C23.700 332.686 26.180 335.286 32.660 335.286C39.780 335.286 42.060 332.806 42.060 329.766C42.060 326.686 37.140 324.366 33.100 324.366ZM28.540 327.086C29.020 325.606 30.620 325.366 31.980 325.366C34.940 325.366 37.340 328.566 37.340 331.206C37.340 331.486 37.300 331.766 37.260 332.006C37.060 333.086 36.420 333.846 35.340 334.126C34.900 334.246 34.460 334.286 34.020 334.286C33.620 334.286 33.260 334.246 32.860 334.126C32.140 333.886 31.420 333.486 30.820 332.966C30.500 332.686 30.180 332.366 29.900 332.006C29.060 331.006 28.380 329.526 28.380 328.166C28.380 327.806 28.420 327.446 28.540 327.086Z"></path></g></g></g><g transform="translate(573.5093568509448)"><g><g><line stroke="#6A6A6A" stroke-width="1.3" x1="-16.600000000000023" x2="74.37264060095816" y1="344.8461538461538" y2="344.8461538461538"></line><line stroke="#6A6A6A" stroke-width="1.3" x1="-16.600000000000023" x2="74.37264060095816" y1="334.8461538461538" y2="334.8461538461538"></line><line stroke="#6A6A6A" stroke-width="1.3" x1="-16.600000000000023" x2="74.37264060095816" y1="324.8461538461538" y2="324.8461538461538"></line><line stroke="#6A6A6A" stroke-width="1.3" x1="-16.600000000000023" x2="74.37264060095816" y1="314.8461538461538" y2="314.8461538461538"></line><line stroke="#6A6A6A" stroke-width="1.3" x1="-16.600000000000023" x2="74.37264060095816" y1="304.8461538461538" y2="304.8461538461538"></line></g><g><path d="M11.980 296.406L11.980 294.286L-2.780 294.286L-2.780 296.406L3.420 296.406L3.420 313.126L5.820 313.126L5.820 296.406ZM12.820 333.966L6.220 315.166L3.100 315.166L-3.620 333.966L-1.060 333.966L0.940 328.326L8.180 328.326L10.140 333.966ZM7.540 326.286L1.540 326.286L4.620 317.726ZM11.620 349.366C11.620 347.126 10.580 345.726 8.180 344.806C9.900 344.006 10.780 342.606 10.780 340.726C10.780 337.966 8.780 335.926 5.220 335.926L-2.420 335.926L-2.420 354.766L6.060 354.766C9.460 354.766 11.620 352.486 11.620 349.366ZM8.380 341.046C8.380 342.966 7.300 344.046 4.620 344.046L-0.020 344.046L-0.020 338.046L4.620 338.046C7.300 338.046 8.380 339.126 8.380 341.046ZM9.220 349.406C9.220 351.206 8.100 352.646 5.860 352.646L-0.020 352.646L-0.020 346.166L5.860 346.166C8.100 346.166 9.220 347.566 9.220 349.406Z"></path></g></g><g><line stroke="black" stroke-width="1.6" x1="75.17264060095816" x2="75.17264060095816" y1="304.8461538461538" y2="344.8461538461538"></line></g><g><g><path d="M33.100 319.366C27.300 319.366 23.700 321.806 23.700 324.766C23.700 327.686 26.180 330.286 32.660 330.286C39.780 330.286 42.060 327.806 42.060 324.766C42.060 321.686 37.140 319.366 33.100 319.366ZM28.540 322.086C29.020 320.606 30.620 320.366 31.980 320.366C34.940 320.366 37.340 323.566 37.340 326.206C37.340 326.486 37.300 326.766 37.260 327.006C37.060 328.086 36.420 328.846 35.340 329.126C34.900 329.246 34.460 329.286 34.020 329.286C33.620 329.286 33.260 329.246 32.860 329.126C32.140 328.886 31.420 328.486 30.820 327.966C30.500 327.686 30.180 327.366 29.900 327.006C29.060 326.006 28.380 324.526 28.380 323.166C28.380 322.806 28.420 322.446 28.540 322.086Z"></path></g></g></g><g transform="translate(664.4819974519029)"><g><g><line stroke="#6A6A6A" stroke-width="1.3" x1="-16.600000000000023" x2="74.3726406009581" y1="344.8461538461538" y2="344.8461538461538"></line><line stroke="#6A6A6A" stroke-width="1.3" x1="-16.600000000000023" x2="74.3726406009581" y1="334.8461538461538" y2="334.8461538461538"></line><line stroke="#6A6A6A" stroke-width="1.3" x1="-16.600000000000023" x2="74.3726406009581" y1="324.8461538461538" y2="324.8461538461538"></line><line stroke="#6A6A6A" stroke-width="1.3" x1="-16.600000000000023" x2="74.3726406009581" y1="314.8461538461538" y2="314.8461538461538"></line><line stroke="#6A6A6A" stroke-width="1.3" x1="-16.600000000000023" x2="74.3726406009581" y1="304.8461538461538" y2="304.8461538461538"></line></g></g><g><line stroke="black" stroke-width="1.6" x1="75.17264060095816" x2="75.17264060095816" y1="304.8461538461538" y2="344.8461538461538"></line></g><g><g><path d="M33.100 329.366C27.300 329.366 23.700 331.806 23.700 334.766C23.700 337.686 26.180 340.286 32.660 340.286C39.780 340.286 42.060 337.806 42.060 334.766C42.060 331.686 37.140 329.366 33.100 329.366ZM28.540 332.086C29.020 330.606 30.620 330.366 31.980 330.366C34.940 330.366 37.340 333.566 37.340 336.206C37.340 336.486 37.300 336.766 37.260 337.006C37.060 338.086 36.420 338.846 35.340 339.126C34.900 339.246 34.460 339.286 34.020 339.286C33.620 339.286 33.260 339.246 32.860 339.126C32.140 338.886 31.420 338.486 30.820 337.966C30.500 337.686 30.180 337.366 29.900 337.006C29.060 336.006 28.380 334.526 28.380 333.166C28.380 332.806 28.420 332.446 28.540 332.086Z"></path></g></g></g><g transform="translate(755.4546380528611)"><g><g><line stroke="#6A6A6A" stroke-width="1.3" x1="-16.600000000000023" x2="84.97264060095813" y1="344.8461538461538" y2="344.8461538461538"></line><line stroke="#6A6A6A" stroke-width="1.3" x1="-16.600000000000023" x2="84.97264060095813" y1="334.8461538461538" y2="334.8461538461538"></line><line stroke="#6A6A6A" stroke-width="1.3" x1="-16.600000000000023" x2="84.97264060095813" y1="324.8461538461538" y2="324.8461538461538"></line><line stroke="#6A6A6A" stroke-width="1.3" x1="-16.600000000000023" x2="84.97264060095813" y1="314.8461538461538" y2="314.8461538461538"></line><line stroke="#6A6A6A" stroke-width="1.3" x1="-16.600000000000023" x2="84.97264060095813" y1="304.8461538461538" y2="304.8461538461538"></line></g><g><path d="M14.100 334.806C13.860 331.446 11.380 328.806 8.020 328.806L7.740 328.806C7.660 328.806 7.500 328.806 7.420 328.846C7.140 327.126 7.020 326.726 6.740 325.286C10.260 322.046 11.540 318.726 11.540 314.086C11.540 312.446 11.140 310.766 10.380 309.086C9.380 306.726 8.420 306.566 8.420 306.566C5.940 307.686 4.180 311.646 4.180 316.406C4.180 317.246 4.220 318.126 4.380 319.046L4.700 320.726C0.820 324.006-3.500 327.886-3.500 332.926C-3.500 333.166-3.500 333.446-3.460 333.726C-2.980 340.086 1.980 342.086 6.260 342.086C7.060 342.086 7.620 341.966 8.180 341.966L8.700 344.806C8.820 345.446 8.980 346.926 8.980 347.446C8.980 351.726 5.780 351.766 5.460 351.766L4.940 351.766C4.060 351.766 3.300 351.646 2.740 351.246C2.580 351.126 2.500 351.046 2.500 350.966C2.500 350.846 2.620 350.806 2.740 350.726C2.980 350.686 3.180 350.686 3.420 350.566C4.500 350.246 5.940 349.406 5.940 347.846C5.940 347.846 5.940 347.646 5.940 347.646C5.940 346.526 5.460 345.486 4.380 345.046C3.980 344.846 3.620 344.766 3.220 344.766C1.660 344.766 0.220 346.006 0.020 347.646C-0.020 347.646-0.100 348.046-0.100 348.566C-0.100 350.046 0.580 353.046 4.900 353.046C5.060 353.046 5.300 353.006 5.500 353.006C7.340 352.886 10.300 351.446 10.300 347.326C10.300 345.326 9.740 343.446 9.460 341.606C12.380 340.526 14.100 338.126 14.100 335.206ZM8.620 311.726C9.500 311.726 10.060 312.406 10.060 313.846C10.060 314.006 10.060 314.206 10.020 314.406C9.700 316.566 8.580 317.566 5.780 319.726C5.700 319.086 5.580 318.566 5.580 318.406C5.540 318.126 5.540 317.806 5.540 317.486C5.540 314.766 6.540 311.806 8.620 311.726ZM-1.060 335.046C-1.060 330.686 2.100 328.446 5.540 325.886L6.020 329.046C3.660 329.726 1.820 331.966 1.820 334.326C1.820 334.726 1.860 335.126 1.980 335.486C2.380 337.246 3.540 338.566 4.780 338.966C5.020 339.046 5.220 339.086 5.340 339.086C5.540 339.086 5.660 338.966 5.660 338.846C5.660 338.686 5.460 338.486 5.260 338.366C4.740 338.166 3.820 337.126 3.780 336.046L3.780 335.806C3.780 333.966 5.220 333.326 6.620 333.046L7.980 340.566C7.580 340.726 7.020 340.806 6.260 340.806C3.420 340.806-0.900 339.846-1.060 335.286ZM9.260 340.286C8.860 337.926 8.700 335.886 8.140 332.926C10.340 332.926 11.820 334.206 11.940 336.406L11.940 336.686C11.940 338.526 11.140 339.486 9.260 340.286Z"></path></g></g><g><line stroke="#000000" stroke-width="1.6" x1="75.17264060095816" x2="75.17264060095816" y1="304.8461538461538" y2="344.8461538461538"></line><line stroke="#000000" stroke-width="5" x1="82.47264060095816" x2="82.47264060095816" y1="304.8461538461538" y2="344.8461538461538"></line></g><g><g><path d="M33.100 349.366C27.300 349.366 23.700 351.806 23.700 354.766C23.700 357.686 26.180 360.286 32.660 360.286C39.780 360.286 42.060 357.806 42.060 354.766C42.060 351.686 37.140 349.366 33.100 349.366ZM28.540 352.086C29.020 350.606 30.620 350.366 31.980 350.366C34.940 350.366 37.340 353.566 37.340 356.206C37.340 356.486 37.300 356.766 37.260 357.006C37.060 358.086 36.420 358.846 35.340 359.126C34.900 359.246 34.460 359.286 34.020 359.286C33.620 359.286 33.260 359.246 32.860 359.126C32.140 358.886 31.420 358.486 30.820 357.966C30.500 357.686 30.180 357.366 29.900 357.006C29.060 356.006 28.380 354.526 28.380 353.166C28.380 352.806 28.420 352.446 28.540 352.086Z"></path></g><line stroke="#000000" stroke-width="2.2" x1="20.5" x2="47.3" y1="354.8461538461538" y2="354.8461538461538"></line></g></g></svg>