<?xml version="1.0" encoding="UTF-8" standalone="no"?><svg xmlns="http://www.w3.org/2000/svg" height="279.4mm" viewBox="0 0 1328.6153846153845 1719.3846153846152" width="215.9mm"><text x="664.3076923076923" y="61.53846153846143"><tspan alignment-baseline="hanging" fill="black" direction="inherit" dx="0" dy="0" font-style="normal" font-weight="normal" font-family="Alegreya" font-size="29.30769230769231" letter-spacing="normal" text-decoration="none" text-anchor="middle">MusicXML notations (attached to note)</tspan></text><g transform="translate(93.84615384615385)"><g><g><line stroke="#6A6A6A" stroke-width="1.3" x1="0" x2="369.75117948717934" y1="183.8461538461538" y2="183.8461538461538"></line><line stroke="#6A6A6A" stroke-width="1.3" x1="0" x2="369.75117948717934" y1="173.8461538461538" y2="173.8461538461538"></line><line stroke="#6A6A6A" stroke-width="1.3" x1="0" x2="369.75117948717934" y1="163.8461538461538" y2="163.8461538461538"></line><line stroke="#6A6A6A" stroke-width="1.3" x1="0" x2="369.75117948717934" y1="153.8461538461538" y2="153.8461538461538"></line><line stroke="#6A6A6A" stroke-width="1.3" x1="0" x2="369.75117948717934" y1="143.8461538461538" y2="143.8461538461538"></line></g><g><path d="M25.200 129.926C24.640 129.926 23.400 130.966 22.600 131.846C19.640 135.126 18.680 140.126 18.680 144.286C18.680 146.606 18.960 149.206 19.240 150.846C19.320 151.326 19.360 151.406 18.880 151.806C16.320 153.926 13.560 156.366 11.480 158.926C8.720 162.366 7 166.086 7 170.366C7 177.326 11.760 183.926 21.560 183.926C22.480 183.926 23.520 183.846 24.320 183.686C24.760 183.606 24.840 183.566 24.920 184.046C25.400 186.726 26 190.206 26 192.086C26 198.006 22 198.726 19.640 198.726C17.480 198.726 16.440 198.086 16.440 197.566C16.440 197.126 16.800 197.166 17.720 196.886C18.960 196.526 20.400 195.446 20.400 193.126C20.400 190.926 19 189.046 16.560 189.046C13.880 189.046 12.280 191.166 12.280 193.646C12.280 196.246 13.840 200.166 19.880 200.166C22.560 200.166 27.760 198.966 27.760 192.166C27.760 189.886 27.040 186.086 26.600 183.606C26.520 183.126 26.560 183.166 27.120 182.926C31.160 181.326 33.840 177.926 33.840 173.406C33.840 168.286 30.080 163.766 24.200 163.766C23.080 163.766 23.200 163.966 23.040 163.046L22.040 157.246C21.960 156.766 22.040 156.726 22.280 156.486C22.920 155.886 23.760 155.046 24.520 154.206C27.880 150.526 29.880 145.766 29.880 141.246C29.880 137.766 28.920 134.326 27.280 131.926C26.680 131.046 25.640 129.926 25.200 129.926ZM20.040 158.086C20.440 157.766 20.520 157.806 20.600 158.246L21.440 163.366C21.560 164.126 21.560 164.086 20.840 164.326C17.320 165.526 15.040 168.686 15.040 172.086C15.040 175.686 16.920 178.246 19.640 179.166C19.960 179.286 20.440 179.406 20.720 179.406C21.040 179.406 21.200 179.206 21.200 178.966C21.200 178.686 20.880 178.566 20.600 178.446C18.920 177.726 17.720 176.006 17.720 174.166C17.720 171.886 19.280 170.166 21.720 169.486C22.360 169.326 22.440 169.366 22.520 169.806L24.520 181.726C24.600 182.166 24.560 182.166 23.960 182.286C23.320 182.406 22.520 182.486 21.720 182.486C14.720 182.486 10.200 178.606 10.200 173.046C10.200 170.686 10.600 167.526 13.920 163.766C16.320 161.086 18.160 159.606 20.040 158.086ZM24.640 169.166C27.880 169.446 30.560 172.166 30.560 175.686C30.560 178.206 29.040 180.246 26.800 181.366C26.320 181.606 26.240 181.606 26.160 181.126L24.200 169.726C24.120 169.246 24.160 169.126 24.640 169.166ZM25.800 136.126C27.120 136.126 28.200 137.206 28.200 139.406C28.200 142.166 26.880 144.726 23.760 147.846C23.120 148.486 22.160 149.406 21.240 150.206C20.960 150.446 20.800 150.406 20.720 149.886C20.560 148.846 20.480 147.486 20.480 146.206C20.480 139.966 23.360 136.126 25.800 136.126Z"></path></g><g></g><path d="M57.820 153.806C56.620 153.806 55.220 154.126 54.140 154.606C50.580 156.166 48.700 160.446 48.700 164.246C48.700 164.606 48.700 164.966 48.740 165.326C48.940 167.486 49.980 169.526 51.300 171.126C52.820 172.966 55.020 173.806 57.420 173.806C64.420 173.806 65.460 167.446 65.460 166.286C65.460 165.406 65.020 165.406 64.860 165.406C64.540 165.406 64.260 165.446 64.260 166.126C64.260 171.286 59.860 172.486 58.580 172.486C55.340 172.486 53.620 169.326 53.620 162.726C53.620 156.126 56.660 154.766 58.820 154.766C60.900 154.766 61.740 155.726 61.740 156.126C61.740 156.486 61.620 157.006 61.020 157.006C59.420 157.006 58.500 158.726 58.500 159.966C58.500 162.246 60.460 162.966 61.580 162.966C61.580 162.966 64.620 162.846 64.620 159.526C64.620 154.286 58.580 153.806 57.820 153.806Z"></path></g><g><line stroke="black" stroke-width="1.6" x1="370.55117948717935" x2="370.55117948717935" y1="143.8461538461538" y2="183.8461538461538"></line></g><g><g><path d="M93.360 164.486C97.360 164.486 102.280 160.766 102.280 156.966C102.280 154.686 100.480 153.206 97.880 153.206C92.960 153.206 89 156.846 89 160.726C89 163.086 90.920 164.486 93.360 164.486Z"></path></g><line stroke="#000000" stroke-width="1.2" x1="89.6" x2="89.6" y1="160.68615384615381" y2="198.68615384615381"></line><path d="M109.960 101.946C109.960 100.786 108.960 99.786 107.760 99.786C106.600 99.786 105.600 100.786 105.600 101.946C105.600 103.146 106.600 104.146 107.760 104.146C108.960 104.146 109.960 103.146 109.960 101.946ZM107.720 95.186C116.240 95.186 117.960 101.506 118.360 103.026C118.400 103.146 118.400 103.266 118.440 103.306C118.720 103.866 118.800 104.146 119.280 104.146C119.640 104.146 119.840 103.986 119.840 103.586C119.840 103.466 119.840 103.346 119.800 103.186C117.320 90.946 108.960 90.866 107.800 90.866C106.520 90.866 98.240 90.946 95.800 103.186C95.760 103.346 95.760 103.506 95.760 103.626C95.760 104.026 95.960 104.146 96.280 104.146C96.640 104.146 96.840 103.866 97.080 103.306C97.120 103.266 97.160 103.106 97.200 102.946C97.680 101.306 99.400 95.186 107.720 95.186Z"></path><text font-family="Alegreya" font-size="22" text-anchor="middle" x="95.64" y="223.8461538461538">ferm.</text></g><g><g><path d="M161.907 164.486C165.907 164.486 170.827 160.766 170.827 156.966C170.827 154.686 169.027 153.206 166.427 153.206C161.507 153.206 157.547 156.846 157.547 160.726C157.547 163.086 159.467 164.486 161.907 164.486Z"></path></g><line stroke="#000000" stroke-width="1.2" x1="158.14679487179484" x2="158.14679487179484" y1="160.68615384615381" y2="198.68615384615381"></line><path d="M178.507 101.946C178.507 100.786 177.507 99.786 176.307 99.786C175.147 99.786 174.147 100.786 174.147 101.946C174.147 103.146 175.147 104.146 176.307 104.146C177.507 104.146 178.507 103.146 178.507 101.946ZM176.267 95.186C184.787 95.186 186.507 101.506 186.907 103.026C186.947 103.146 186.947 103.266 186.987 103.306C187.267 103.866 187.347 104.146 187.827 104.146C188.187 104.146 188.387 103.986 188.387 103.586C188.387 103.466 188.387 103.346 188.347 103.186C185.867 90.946 177.507 90.866 176.347 90.866C175.067 90.866 166.787 90.946 164.347 103.186C164.307 103.346 164.307 103.506 164.307 103.626C164.307 104.026 164.507 104.146 164.827 104.146C165.187 104.146 165.387 103.866 165.627 103.306C165.667 103.266 165.707 103.106 165.747 102.946C166.227 101.306 167.947 95.186 176.267 95.186Z"></path><text font-family="Alegreya" font-size="22" text-anchor="middle" x="164.18679487179486" y="223.8461538461538">normal ferm.</text></g><g><g><path d="M263.047 164.486C267.047 164.486 271.967 160.766 271.967 156.966C271.967 154.686 270.167 153.206 267.567 153.206C262.647 153.206 258.687 156.846 258.687 160.726C258.687 163.086 260.607 164.486 263.047 164.486Z"></path></g><line stroke="#000000" stroke-width="1.2" x1="259.2865897435897" x2="259.2865897435897" y1="160.68615384615381" y2="198.68615384615381"></line><path d="M279.647 101.946C279.647 100.786 278.647 99.786 277.447 99.786C276.287 99.786 275.287 100.786 275.287 101.946C275.287 103.146 276.287 104.146 277.447 104.146C278.647 104.146 279.647 103.146 279.647 101.946ZM277.407 95.186C285.927 95.186 287.647 101.506 288.047 103.026C288.087 103.146 288.087 103.266 288.127 103.306C288.407 103.866 288.487 104.146 288.967 104.146C289.327 104.146 289.527 103.986 289.527 103.586C289.527 103.466 289.527 103.346 289.487 103.186C287.007 90.946 278.647 90.866 277.487 90.866C276.207 90.866 267.927 90.946 265.487 103.186C265.447 103.346 265.447 103.506 265.447 103.626C265.447 104.026 265.647 104.146 265.967 104.146C266.327 104.146 266.527 103.866 266.767 103.306C266.807 103.266 266.847 103.106 266.887 102.946C267.367 101.306 269.087 95.186 277.407 95.186Z"></path><text font-family="Alegreya" font-size="22" text-anchor="middle" x="265.32658974358964" y="223.8461538461538">angled ferm.</text></g><g><g><path d="M361.667 164.486C365.667 164.486 370.587 160.766 370.587 156.966C370.587 154.686 368.787 153.206 366.187 153.206C361.267 153.206 357.307 156.846 357.307 160.726C357.307 163.086 359.227 164.486 361.667 164.486Z"></path></g><line stroke="#000000" stroke-width="1.2" x1="357.90738461538456" x2="357.90738461538456" y1="160.68615384615381" y2="198.68615384615381"></line><path d="M378.267 101.946C378.267 100.786 377.267 99.786 376.067 99.786C374.907 99.786 373.907 100.786 373.907 101.946C373.907 103.146 374.907 104.146 376.067 104.146C377.267 104.146 378.267 103.146 378.267 101.946ZM376.027 95.186C384.547 95.186 386.267 101.506 386.667 103.026C386.707 103.146 386.707 103.266 386.747 103.306C387.027 103.866 387.107 104.146 387.587 104.146C387.947 104.146 388.147 103.986 388.147 103.586C388.147 103.466 388.147 103.346 388.107 103.186C385.627 90.946 377.267 90.866 376.107 90.866C374.827 90.866 366.547 90.946 364.107 103.186C364.067 103.346 364.067 103.506 364.067 103.626C364.067 104.026 364.267 104.146 364.587 104.146C364.947 104.146 365.147 103.866 365.387 103.306C365.427 103.266 365.467 103.106 365.507 102.946C365.987 101.306 367.707 95.186 376.027 95.186Z"></path><text font-family="Alegreya" font-size="22" text-anchor="middle" x="363.9473846153845" y="223.8461538461538">square ferm.</text></g></g><g transform="translate(480.1973333333332)"><g><g><line stroke="#6A6A6A" stroke-width="1.3" x1="-16.600000000000023" x2="187.7781794871795" y1="183.8461538461538" y2="183.8461538461538"></line><line stroke="#6A6A6A" stroke-width="1.3" x1="-16.600000000000023" x2="187.7781794871795" y1="173.8461538461538" y2="173.8461538461538"></line><line stroke="#6A6A6A" stroke-width="1.3" x1="-16.600000000000023" x2="187.7781794871795" y1="163.8461538461538" y2="163.8461538461538"></line><line stroke="#6A6A6A" stroke-width="1.3" x1="-16.600000000000023" x2="187.7781794871795" y1="153.8461538461538" y2="153.8461538461538"></line><line stroke="#6A6A6A" stroke-width="1.3" x1="-16.600000000000023" x2="187.7781794871795" y1="143.8461538461538" y2="143.8461538461538"></line></g></g><g><line stroke="#000000" stroke-width="1.6" x1="188.5781794871795" x2="188.5781794871795" y1="143.8461538461538" y2="183.8461538461538"></line><line stroke="#000000" stroke-width="1.6" x1="194.1781794871795" x2="194.1781794871795" y1="143.8461538461538" y2="183.8461538461538"></line></g><g><g><path d="M33.080 164.486C37.080 164.486 42 160.766 42 156.966C42 154.686 40.200 153.206 37.600 153.206C32.680 153.206 28.720 156.846 28.720 160.726C28.720 163.086 30.640 164.486 33.080 164.486Z"></path></g><line stroke="#000000" stroke-width="1.2" x1="29.32" x2="29.32" y1="160.68615384615381" y2="198.68615384615381"></line><path d="M49.680 196.226C49.680 195.026 48.680 194.026 47.480 194.026C46.320 194.026 45.320 195.026 45.320 196.226C45.320 197.386 46.320 198.386 47.480 198.386C48.680 198.386 49.680 197.386 49.680 196.226ZM47.440 202.986C39.120 202.986 37.400 196.866 36.920 195.226C36.880 195.066 36.840 194.906 36.800 194.866C36.560 194.306 36.360 194.026 36 194.026C35.680 194.026 35.480 194.146 35.480 194.546C35.480 194.666 35.480 194.826 35.520 194.986C37.960 207.226 46.240 207.306 47.520 207.306C48.680 207.306 57.040 207.226 59.520 194.986C59.560 194.826 59.560 194.706 59.560 194.586C59.560 194.186 59.360 194.026 59 194.026C58.520 194.026 58.440 194.306 58.160 194.866C58.120 194.906 58.120 195.026 58.080 195.146C57.680 196.666 55.960 202.986 47.440 202.986Z"></path><text font-family="Alegreya" font-size="22" text-anchor="middle" x="35.36" y="223.8461538461538">inv.ferm.</text></g><g><g><path d="M76.591 164.486C80.591 164.486 85.511 160.766 85.511 156.966C85.511 154.686 83.711 153.206 81.111 153.206C76.191 153.206 72.231 156.846 72.231 160.726C72.231 163.086 74.151 164.486 76.591 164.486Z"></path></g><g><path d="M76.591 154.486C80.591 154.486 85.511 150.766 85.511 146.966C85.511 144.686 83.711 143.206 81.111 143.206C76.191 143.206 72.231 146.846 72.231 150.726C72.231 153.086 74.151 154.486 76.591 154.486Z"></path></g><g><path d="M76.591 144.486C80.591 144.486 85.511 140.766 85.511 136.966C85.511 134.686 83.711 133.206 81.111 133.206C76.191 133.206 72.231 136.846 72.231 140.726C72.231 143.086 74.151 144.486 76.591 144.486Z"></path></g><line stroke="#000000" stroke-width="1.2" x1="72.83079487179486" x2="72.83079487179486" y1="140.68615384615381" y2="190.68615384615381"></line><text font-family="Alegreya" font-size="22" text-anchor="middle" x="78.87079487179487" y="223.8461538461538">arp.</text></g><g><g><path d="M117.935 164.486C121.935 164.486 126.855 160.766 126.855 156.966C126.855 154.686 125.055 153.206 122.455 153.206C117.535 153.206 113.575 156.846 113.575 160.726C113.575 163.086 115.495 164.486 117.935 164.486Z"></path></g><g><path d="M117.935 154.486C121.935 154.486 126.855 150.766 126.855 146.966C126.855 144.686 125.055 143.206 122.455 143.206C117.535 143.206 113.575 146.846 113.575 150.726C113.575 153.086 115.495 154.486 117.935 154.486Z"></path></g><g><path d="M117.935 144.486C121.935 144.486 126.855 140.766 126.855 136.966C126.855 134.686 125.055 133.206 122.455 133.206C117.535 133.206 113.575 136.846 113.575 140.726C113.575 143.086 115.495 144.486 117.935 144.486Z"></path></g><line stroke="#000000" stroke-width="1.2" x1="114.17458974358973" x2="114.17458974358973" y1="140.68615384615381" y2="190.68615384615381"></line><text font-family="Alegreya" font-size="22" text-anchor="middle" x="120.21458974358974" y="223.8461538461538">non-arp.</text></g><g><g><path d="M179.694 164.486C183.694 164.486 188.614 160.766 188.614 156.966C188.614 154.686 186.814 153.206 184.214 153.206C179.294 153.206 175.334 156.846 175.334 160.726C175.334 163.086 177.254 164.486 179.694 164.486Z"></path></g><line stroke="#000000" stroke-width="1.2" x1="175.9343846153846" x2="175.9343846153846" y1="160.68615384615381" y2="198.68615384615381"></line><text font-family="Alegreya" font-size="22" text-anchor="middle" x="181.97438461538462" y="223.8461538461538">acc.mark</text></g></g><g transform="translate(690.1755128205127)"><g><g><line stroke="#6A6A6A" stroke-width="1.3" x1="-22.200000000000045" x2="125.83717948717958" y1="183.8461538461538" y2="183.8461538461538"></line><line stroke="#6A6A6A" stroke-width="1.3" x1="-22.200000000000045" x2="125.83717948717958" y1="173.8461538461538" y2="173.8461538461538"></line><line stroke="#6A6A6A" stroke-width="1.3" x1="-22.200000000000045" x2="125.83717948717958" y1="163.8461538461538" y2="163.8461538461538"></line><line stroke="#6A6A6A" stroke-width="1.3" x1="-22.200000000000045" x2="125.83717948717958" y1="153.8461538461538" y2="153.8461538461538"></line><line stroke="#6A6A6A" stroke-width="1.3" x1="-22.200000000000045" x2="125.83717948717958" y1="143.8461538461538" y2="143.8461538461538"></line></g></g><g><line stroke="black" stroke-width="1.6" x1="126.63717948717952" x2="126.63717948717952" y1="143.8461538461538" y2="183.8461538461538"></line></g><g><g><path d="M8.814 164.486C12.814 164.486 17.734 160.766 17.734 156.966C17.734 154.686 15.934 153.206 13.334 153.206C8.414 153.206 4.454 156.846 4.454 160.726C4.454 163.086 6.374 164.486 8.814 164.486Z"></path></g><line stroke="#000000" stroke-width="1.2" x1="5.053999999999997" x2="5.053999999999997" y1="160.68615384615381" y2="198.68615384615381"></line><path d="M4.614 149.766C4.734 149.726 16.854 145.646 16.854 145.646C17.374 145.526 17.374 145.246 17.374 144.926C17.374 144.606 17.374 144.366 16.854 144.206L4.854 140.126C4.694 140.086 4.614 140.046 4.494 140.046C4.134 140.046 4.014 140.286 3.894 140.606C3.854 140.766 3.814 140.886 3.814 141.006C3.814 141.206 3.934 141.406 4.374 141.566C4.374 141.566 13.014 144.486 13.414 144.646C13.614 144.686 13.694 144.806 13.694 144.926C13.694 145.046 13.614 145.126 13.374 145.206C12.934 145.326 4.374 148.246 4.374 148.246C3.934 148.446 3.814 148.646 3.814 148.846C3.814 148.966 3.854 149.086 3.894 149.206C4.014 149.486 4.174 149.806 4.454 149.806C4.494 149.806 4.574 149.806 4.614 149.766Z"></path><text font-family="Alegreya" font-size="22" text-anchor="middle" x="11.093999999999998" y="223.8461538461538">acc.</text></g><g><g><path d="M45.813 164.486C49.813 164.486 54.733 160.766 54.733 156.966C54.733 154.686 52.933 153.206 50.333 153.206C45.413 153.206 41.453 156.846 41.453 160.726C41.453 163.086 43.373 164.486 45.813 164.486Z"></path></g><line stroke="#000000" stroke-width="1.2" x1="42.052794871794866" x2="42.052794871794866" y1="160.68615384615381" y2="198.68615384615381"></line><path d="M52.273 149.206L47.953 139.966C47.833 139.806 47.713 139.726 47.553 139.726C47.273 139.726 47.153 139.966 47.153 139.966C47.153 139.966 42.913 149.206 42.913 149.206C42.873 149.286 42.873 149.326 42.873 149.406C42.873 149.606 42.953 149.806 43.153 149.846C43.193 149.886 43.313 149.886 43.353 149.886C43.513 149.886 43.713 149.806 43.793 149.606C43.793 149.606 45.953 144.846 46.033 144.686C46.073 144.606 46.113 144.566 46.193 144.566C46.273 144.566 46.353 144.606 46.433 144.686C46.473 144.846 48.713 149.606 48.713 149.606C48.833 149.766 48.993 149.846 49.153 149.846L51.873 149.846C52.153 149.806 52.313 149.646 52.313 149.406C52.313 149.326 52.313 149.246 52.273 149.206Z"></path><text font-family="Alegreya" font-size="22" text-anchor="middle" x="48.092794871794865" y="223.8461538461538">str.-acc.</text></g><g><g><path d="M90.864 164.486C94.864 164.486 99.784 160.766 99.784 156.966C99.784 154.686 97.984 153.206 95.384 153.206C90.464 153.206 86.504 156.846 86.504 160.726C86.504 163.086 88.424 164.486 90.864 164.486Z"></path></g><line stroke="#000000" stroke-width="1.2" x1="87.10358974358974" x2="87.10358974358974" y1="160.68615384615381" y2="198.68615384615381"></line><path d="M94.324 148.166C94.324 147.246 93.564 146.486 92.644 146.486C91.724 146.486 90.964 147.246 90.964 148.166C90.964 149.086 91.724 149.846 92.644 149.846C93.564 149.846 94.324 149.086 94.324 148.166Z"></path><text font-family="Alegreya" font-size="22" text-anchor="middle" x="93.14358974358974" y="223.8461538461538">stacc.</text></g><g><g><path d="M117.753 164.486C121.753 164.486 126.673 160.766 126.673 156.966C126.673 154.686 124.873 153.206 122.273 153.206C117.353 153.206 113.393 156.846 113.393 160.726C113.393 163.086 115.313 164.486 117.753 164.486Z"></path></g><line stroke="#000000" stroke-width="1.2" x1="113.99338461538463" x2="113.99338461538463" y1="160.68615384615381" y2="198.68615384615381"></line><path d="M125.353 149.846C126.273 149.846 126.313 149.406 126.313 148.886C126.313 148.366 126.313 147.926 125.353 147.926L113.713 147.926C112.753 147.926 112.753 148.366 112.753 148.886C112.753 149.406 112.753 149.846 113.713 149.846Z"></path><text font-family="Alegreya" font-size="22" text-anchor="middle" x="120.03338461538463" y="223.8461538461538">ten.</text></g></g><g transform="translate(832.6126923076923)"><g><g><line stroke="#6A6A6A" stroke-width="1.3" x1="-16.59999999999991" x2="163.43517948717954" y1="183.8461538461538" y2="183.8461538461538"></line><line stroke="#6A6A6A" stroke-width="1.3" x1="-16.59999999999991" x2="163.43517948717954" y1="173.8461538461538" y2="173.8461538461538"></line><line stroke="#6A6A6A" stroke-width="1.3" x1="-16.59999999999991" x2="163.43517948717954" y1="163.8461538461538" y2="163.8461538461538"></line><line stroke="#6A6A6A" stroke-width="1.3" x1="-16.59999999999991" x2="163.43517948717954" y1="153.8461538461538" y2="153.8461538461538"></line><line stroke="#6A6A6A" stroke-width="1.3" x1="-16.59999999999991" x2="163.43517948717954" y1="143.8461538461538" y2="143.8461538461538"></line></g></g><g><line stroke="black" stroke-width="1.6" x1="164.2351794871795" x2="164.2351794871795" y1="143.8461538461538" y2="183.8461538461538"></line></g><g><g><path d="M28.163 164.486C32.163 164.486 37.083 160.766 37.083 156.966C37.083 154.686 35.283 153.206 32.683 153.206C27.763 153.206 23.803 156.846 23.803 160.726C23.803 163.086 25.723 164.486 28.163 164.486Z"></path></g><line stroke="#000000" stroke-width="1.2" x1="24.40299999999999" x2="24.40299999999999" y1="160.68615384615381" y2="198.68615384615381"></line><path d="M35.763 142.166C36.683 142.166 36.723 141.726 36.723 141.206C36.723 140.686 36.723 140.246 35.763 140.246L24.123 140.246C23.163 140.246 23.163 140.686 23.163 141.206C23.163 141.726 23.163 142.166 24.123 142.166ZM31.763 148.166C31.763 149.086 31.003 149.846 30.083 149.846C29.163 149.846 28.403 149.086 28.403 148.166C28.403 147.246 29.163 146.486 30.083 146.486C31.003 146.486 31.763 147.246 31.763 148.166Z"></path><text font-family="Alegreya" font-size="22" text-anchor="middle" x="30.44299999999999" y="223.8461538461538">det.-leg.</text></g><g><g><path d="M81.156 164.486C85.156 164.486 90.076 160.766 90.076 156.966C90.076 154.686 88.276 153.206 85.676 153.206C80.756 153.206 76.796 156.846 76.796 160.726C76.796 163.086 78.716 164.486 81.156 164.486Z"></path></g><line stroke="#000000" stroke-width="1.2" x1="77.39579487179485" x2="77.39579487179485" y1="160.68615384615381" y2="198.68615384615381"></line><path d="M82.916 138.126C81.876 138.126 80.996 138.486 80.956 139.006C80.956 139.606 81.996 149.926 82.916 149.926C83.916 149.926 84.916 139.966 84.916 139.046C84.916 138.446 83.996 138.126 82.916 138.126Z"></path><text font-family="Alegreya" font-size="22" text-anchor="middle" x="83.43579487179485" y="223.8461538461538">stacc.ss</text></g><g><g><path d="M123.006 164.486C127.006 164.486 131.926 160.766 131.926 156.966C131.926 154.686 130.126 153.206 127.526 153.206C122.606 153.206 118.646 156.846 118.646 160.726C118.646 163.086 120.566 164.486 123.006 164.486Z"></path></g><line stroke="#000000" stroke-width="1.2" x1="119.2455897435897" x2="119.2455897435897" y1="160.68615384615381" y2="198.68615384615381"></line><path d="M123.026 138.366C123.706 140.046 124.426 145.766 124.506 149.726C124.506 149.846 124.746 149.846 124.786 149.846C124.826 149.846 125.066 149.846 125.066 149.726C125.146 145.806 125.866 140.086 126.546 138.366C126.546 138.326 126.546 138.246 126.466 138.246C126.426 138.246 125.586 138.406 124.786 138.406C123.946 138.406 123.146 138.246 123.106 138.246C123.026 138.246 123.026 138.286 123.026 138.366Z"></path><text font-family="Alegreya" font-size="22" text-anchor="middle" x="125.28558974358971" y="223.8461538461538">spicc.</text></g><g><g><path d="M155.351 164.486C159.351 164.486 164.271 160.766 164.271 156.966C164.271 154.686 162.471 153.206 159.871 153.206C154.951 153.206 150.991 156.846 150.991 160.726C150.991 163.086 152.911 164.486 155.351 164.486Z"></path></g><line stroke="#000000" stroke-width="1.2" x1="151.59138461538458" x2="151.59138461538458" y1="160.68615384615381" y2="198.68615384615381"></line><text font-family="Alegreya" font-size="22" text-anchor="middle" x="157.6313846153846" y="223.8461538461538">scoop</text></g></g><g transform="translate(1012.6478717948717)"><g><g><line stroke="#6A6A6A" stroke-width="1.3" x1="-16.59999999999991" x2="98.23817948717954" y1="183.8461538461538" y2="183.8461538461538"></line><line stroke="#6A6A6A" stroke-width="1.3" x1="-16.59999999999991" x2="98.23817948717954" y1="173.8461538461538" y2="173.8461538461538"></line><line stroke="#6A6A6A" stroke-width="1.3" x1="-16.59999999999991" x2="98.23817948717954" y1="163.8461538461538" y2="163.8461538461538"></line><line stroke="#6A6A6A" stroke-width="1.3" x1="-16.59999999999991" x2="98.23817948717954" y1="153.8461538461538" y2="153.8461538461538"></line><line stroke="#6A6A6A" stroke-width="1.3" x1="-16.59999999999991" x2="98.23817948717954" y1="143.8461538461538" y2="143.8461538461538"></line></g></g><g><line stroke="black" stroke-width="1.6" x1="99.0381794871795" x2="99.0381794871795" y1="143.8461538461538" y2="183.8461538461538"></line></g><g><g><path d="M8.330 164.486C12.330 164.486 17.250 160.766 17.250 156.966C17.250 154.686 15.450 153.206 12.850 153.206C7.930 153.206 3.970 156.846 3.970 160.726C3.970 163.086 5.890 164.486 8.330 164.486Z"></path></g><line stroke="#000000" stroke-width="1.2" x1="4.569999999999995" x2="4.569999999999995" y1="160.68615384615381" y2="198.68615384615381"></line><text font-family="Alegreya" font-size="22" text-anchor="middle" x="10.609999999999996" y="223.8461538461538">plop</text></g><g><g><path d="M26.431 164.486C30.431 164.486 35.351 160.766 35.351 156.966C35.351 154.686 33.551 153.206 30.951 153.206C26.031 153.206 22.071 156.846 22.071 160.726C22.071 163.086 23.991 164.486 26.431 164.486Z"></path></g><line stroke="#000000" stroke-width="1.2" x1="22.670794871794875" x2="22.670794871794875" y1="160.68615384615381" y2="198.68615384615381"></line><text font-family="Alegreya" font-size="22" text-anchor="middle" x="28.710794871794874" y="223.8461538461538">doit</text></g><g><g><path d="M53.794 164.486C57.794 164.486 62.714 160.766 62.714 156.966C62.714 154.686 60.914 153.206 58.314 153.206C53.394 153.206 49.434 156.846 49.434 160.726C49.434 163.086 51.354 164.486 53.794 164.486Z"></path></g><line stroke="#000000" stroke-width="1.2" x1="50.03358974358975" x2="50.03358974358975" y1="160.68615384615381" y2="198.68615384615381"></line><text font-family="Alegreya" font-size="22" text-anchor="middle" x="56.07358974358975" y="223.8461538461538">falloff</text></g><g><g><path d="M90.154 164.486C94.154 164.486 99.074 160.766 99.074 156.966C99.074 154.686 97.274 153.206 94.674 153.206C89.754 153.206 85.794 156.846 85.794 160.726C85.794 163.086 87.714 164.486 90.154 164.486Z"></path></g><line stroke="#000000" stroke-width="1.2" x1="86.39438461538462" x2="86.39438461538462" y1="160.68615384615381" y2="198.68615384615381"></line><path d="M91.754 139.806C90.034 139.806 88.914 140.926 88.914 142.326C88.914 143.686 89.834 144.566 91.154 144.566C92.154 144.566 92.274 145.406 92.274 145.406C92.314 145.566 92.354 145.686 92.354 145.846C92.354 146.406 92.074 146.926 91.714 147.406C91.034 148.286 89.994 148.886 89.914 148.966C89.754 149.046 89.594 149.126 89.594 149.326C89.594 149.366 89.634 149.406 89.634 149.446C89.674 149.686 89.794 149.766 89.914 149.766C91.234 149.766 93.274 148.006 93.914 147.006C94.714 145.766 94.954 144.366 94.954 143.206L94.954 142.926C94.954 141.766 94.474 140.966 93.834 140.486C93.234 140.046 92.474 139.806 91.754 139.806Z"></path><text font-family="Alegreya" font-size="22" text-anchor="middle" x="92.43438461538463" y="223.8461538461538">breath</text></g></g><g transform="translate(1127.486051282051)"><g><g><line stroke="#6A6A6A" stroke-width="1.3" x1="-16.600000000000023" x2="107.2831794871795" y1="183.8461538461538" y2="183.8461538461538"></line><line stroke="#6A6A6A" stroke-width="1.3" x1="-16.600000000000023" x2="107.2831794871795" y1="173.8461538461538" y2="173.8461538461538"></line><line stroke="#6A6A6A" stroke-width="1.3" x1="-16.600000000000023" x2="107.2831794871795" y1="163.8461538461538" y2="163.8461538461538"></line><line stroke="#6A6A6A" stroke-width="1.3" x1="-16.600000000000023" x2="107.2831794871795" y1="153.8461538461538" y2="153.8461538461538"></line><line stroke="#6A6A6A" stroke-width="1.3" x1="-16.600000000000023" x2="107.2831794871795" y1="143.8461538461538" y2="143.8461538461538"></line></g></g><g><line stroke="#000000" stroke-width="1.6" x1="100.8831794871795" x2="100.8831794871795" y1="143.8461538461538" y2="183.8461538461538"></line><line stroke="#000000" stroke-width="1.6" x1="106.4831794871795" x2="106.4831794871795" y1="143.8461538461538" y2="183.8461538461538"></line></g><g><g><path d="M13.500 164.486C17.500 164.486 22.420 160.766 22.420 156.966C22.420 154.686 20.620 153.206 18.020 153.206C13.100 153.206 9.140 156.846 9.140 160.726C9.140 163.086 11.060 164.486 13.500 164.486Z"></path></g><line stroke="#000000" stroke-width="1.2" x1="9.739999999999993" x2="9.739999999999993" y1="160.68615384615381" y2="198.68615384615381"></line><path d="M8.720 149.886C9.200 149.886 9.600 149.606 9.760 149.126L16.520 130.046C16.560 129.926 16.560 129.806 16.560 129.686C16.560 129.246 16.280 128.806 15.840 128.646C15.720 128.606 15.560 128.566 15.440 128.566C14.960 128.566 14.560 128.846 14.400 129.326L7.680 148.406C7.640 148.526 7.600 148.686 7.600 148.806C7.600 149.246 7.880 149.646 8.360 149.806C8.480 149.886 8.600 149.886 8.720 149.886ZM16.160 149.126L22.920 130.046C22.960 129.926 22.960 129.806 22.960 129.686C22.960 129.246 22.680 128.806 22.240 128.646C22.120 128.606 21.960 128.566 21.840 128.566C21.360 128.566 20.960 128.846 20.800 129.326L14.040 148.406C14.000 148.526 14.000 148.646 14.000 148.766C14.000 149.206 14.280 149.646 14.760 149.806C14.880 149.886 15.000 149.886 15.120 149.886C15.560 149.886 16.000 149.606 16.160 149.126Z"></path><text font-family="Alegreya" font-size="22" text-anchor="middle" x="15.779999999999994" y="223.8461538461538">caes.</text></g><g><g><path d="M43.899 164.486C47.899 164.486 52.819 160.766 52.819 156.966C52.819 154.686 51.019 153.206 48.419 153.206C43.499 153.206 39.539 156.846 39.539 160.726C39.539 163.086 41.459 164.486 43.899 164.486Z"></path></g><line stroke="#000000" stroke-width="1.2" x1="40.138794871794865" x2="40.138794871794865" y1="160.68615384615381" y2="198.68615384615381"></line><path d="M49.419 141.286C48.859 140.726 48.219 140.366 47.779 140.366C47.619 140.366 47.499 140.446 47.379 140.526C46.979 140.926 41.019 148.246 41.019 149.486C41.019 149.526 41.059 149.606 41.059 149.606C41.099 149.646 41.139 149.646 41.219 149.646C42.579 149.646 49.819 143.726 50.179 143.326C50.299 143.206 50.339 143.086 50.339 142.926C50.339 142.486 49.939 141.806 49.419 141.286Z"></path><text font-family="Alegreya" font-size="22" text-anchor="middle" x="46.178794871794864" y="223.8461538461538">stress</text></g><g><g><path d="M79.556 164.486C83.556 164.486 88.476 160.766 88.476 156.966C88.476 154.686 86.676 153.206 84.076 153.206C79.156 153.206 75.196 156.846 75.196 160.726C75.196 163.086 77.116 164.486 79.556 164.486Z"></path></g><line stroke="#000000" stroke-width="1.2" x1="75.79558974358973" x2="75.79558974358973" y1="160.68615384615381" y2="198.68615384615381"></line><path d="M73.696 141.566L73.696 142.206C73.696 146.406 77.136 149.846 81.336 149.846C85.576 149.846 88.976 146.406 88.976 142.206L88.976 141.566L87.696 141.566L87.696 142.206C87.696 145.726 84.856 148.566 81.336 148.566C77.856 148.566 74.976 145.726 74.976 142.206L74.976 141.566Z"></path><text font-family="Alegreya" font-size="22" text-anchor="middle" x="81.83558974358974" y="223.8461538461538">unstr.</text></g><g><path d="M96.959 170.286C95.439 168.446 94.199 166.966 94.199 164.726C94.199 164.566 94.239 164.366 94.239 164.206C94.399 161.886 95.839 159.966 96.879 158.326C96.999 158.126 97.039 157.926 97.039 157.726C97.039 157.326 96.879 156.966 96.879 156.966C96.879 156.966 90.959 149.926 90.279 149.246C90.079 149.046 89.799 148.926 89.559 148.926C89.159 148.926 88.759 149.206 88.759 149.766C88.759 149.966 88.799 150.166 88.919 150.406C89.079 150.846 91.359 152.886 91.359 155.766C91.359 157.246 90.759 158.966 88.959 160.846C88.559 161.246 88.399 161.686 88.399 162.006C88.399 162.566 88.799 162.966 88.799 162.966L90.759 165.366C91.399 166.166 91.959 166.926 92.479 167.766C92.559 167.926 92.719 168.126 92.719 168.326C92.719 168.366 92.719 168.446 92.679 168.486C92.599 168.646 92.439 168.686 92.239 168.686C91.999 168.686 91.759 168.606 91.599 168.566C91.399 168.566 91.159 168.446 90.959 168.446C89.239 168.446 87.679 170.166 87.679 172.286C87.679 174.286 89.399 176.246 92.319 178.486C92.639 178.726 93.039 178.846 93.359 178.846C93.639 178.846 93.919 178.766 93.959 178.606C93.999 178.486 94.039 178.406 94.039 178.326C94.039 177.966 93.719 177.646 93.399 177.366C92.879 177.366 92.439 176.286 92.359 175.926C92.239 175.606 92.199 175.246 92.199 174.886C92.199 173.646 92.799 172.246 94.079 172.006C94.279 171.966 94.479 171.966 94.719 171.966C95.879 171.966 97.199 172.406 97.839 172.646C97.879 172.646 97.919 172.686 97.959 172.686C98.079 172.726 98.159 172.726 98.239 172.726C98.359 172.726 98.439 172.686 98.439 172.566C98.439 172.086 97.399 170.766 96.959 170.286Z"></path></g></g><g transform="translate(93.84615384615385)"><g><g><line stroke="#6A6A6A" stroke-width="1.3" x1="0" x2="132.5806644905077" y1="314.8461538461538" y2="314.8461538461538"></line><line stroke="#6A6A6A" stroke-width="1.3" x1="0" x2="132.5806644905077" y1="304.8461538461538" y2="304.8461538461538"></line><line stroke="#6A6A6A" stroke-width="1.3" x1="0" x2="132.5806644905077" y1="294.8461538461538" y2="294.8461538461538"></line><line stroke="#6A6A6A" stroke-width="1.3" x1="0" x2="132.5806644905077" y1="284.8461538461538" y2="284.8461538461538"></line><line stroke="#6A6A6A" stroke-width="1.3" x1="0" x2="132.5806644905077" y1="274.8461538461538" y2="274.8461538461538"></line></g><g><path d="M25.200 260.926C24.640 260.926 23.400 261.966 22.600 262.846C19.640 266.126 18.680 271.126 18.680 275.286C18.680 277.606 18.960 280.206 19.240 281.846C19.320 282.326 19.360 282.406 18.880 282.806C16.320 284.926 13.560 287.366 11.480 289.926C8.720 293.366 7 297.086 7 301.366C7 308.326 11.760 314.926 21.560 314.926C22.480 314.926 23.520 314.846 24.320 314.686C24.760 314.606 24.840 314.566 24.920 315.046C25.400 317.726 26 321.206 26 323.086C26 329.006 22 329.726 19.640 329.726C17.480 329.726 16.440 329.086 16.440 328.566C16.440 328.126 16.800 328.166 17.720 327.886C18.960 327.526 20.400 326.446 20.400 324.126C20.400 321.926 19 320.046 16.560 320.046C13.880 320.046 12.280 322.166 12.280 324.646C12.280 327.246 13.840 331.166 19.880 331.166C22.560 331.166 27.760 329.966 27.760 323.166C27.760 320.886 27.040 317.086 26.600 314.606C26.520 314.126 26.560 314.166 27.120 313.926C31.160 312.326 33.840 308.926 33.840 304.406C33.840 299.286 30.080 294.766 24.200 294.766C23.080 294.766 23.200 294.966 23.040 294.046L22.040 288.246C21.960 287.766 22.040 287.726 22.280 287.486C22.920 286.886 23.760 286.046 24.520 285.206C27.880 281.526 29.880 276.766 29.880 272.246C29.880 268.766 28.920 265.326 27.280 262.926C26.680 262.046 25.640 260.926 25.200 260.926ZM20.040 289.086C20.440 288.766 20.520 288.806 20.600 289.246L21.440 294.366C21.560 295.126 21.560 295.086 20.840 295.326C17.320 296.526 15.040 299.686 15.040 303.086C15.040 306.686 16.920 309.246 19.640 310.166C19.960 310.286 20.440 310.406 20.720 310.406C21.040 310.406 21.200 310.206 21.200 309.966C21.200 309.686 20.880 309.566 20.600 309.446C18.920 308.726 17.720 307.006 17.720 305.166C17.720 302.886 19.280 301.166 21.720 300.486C22.360 300.326 22.440 300.366 22.520 300.806L24.520 312.726C24.600 313.166 24.560 313.166 23.960 313.286C23.320 313.406 22.520 313.486 21.720 313.486C14.720 313.486 10.200 309.606 10.200 304.046C10.200 301.686 10.600 298.526 13.920 294.766C16.320 292.086 18.160 290.606 20.040 289.086ZM24.640 300.166C27.880 300.446 30.560 303.166 30.560 306.686C30.560 309.206 29.040 311.246 26.800 312.366C26.320 312.606 26.240 312.606 26.160 312.126L24.200 300.726C24.120 300.246 24.160 300.126 24.640 300.166ZM25.800 267.126C27.120 267.126 28.200 268.206 28.200 270.406C28.200 273.166 26.880 275.726 23.760 278.846C23.120 279.486 22.160 280.406 21.240 281.206C20.960 281.446 20.800 281.406 20.720 280.886C20.560 279.846 20.480 278.486 20.480 277.206C20.480 270.966 23.360 267.126 25.800 267.126Z"></path></g><g></g><text font-family='Alegreya' font-style='italic' text-anchor='end' stroke='#7a7a7a' font-size="24" x="0" y="264.8461538461538">7</text></g><g><line stroke="black" stroke-width="1.6" x1="133.3806644905077" x2="133.3806644905077" y1="274.8461538461538" y2="314.8461538461538"></line></g><g><g><path d="M52.860 295.486C56.860 295.486 61.780 291.766 61.780 287.966C61.780 285.686 59.980 284.206 57.380 284.206C52.460 284.206 48.500 287.846 48.500 291.726C48.500 294.086 50.420 295.486 52.860 295.486Z"></path></g><line stroke="#000000" stroke-width="1.2" x1="49.1" x2="49.1" y1="291.6861538461538" y2="329.6861538461538"></line><text font-family="Alegreya" font-size="22" text-anchor="middle" x="55.14" y="354.8461538461538">tr.</text></g><g><g><path d="M59.218 295.486C63.218 295.486 68.138 291.766 68.138 287.966C68.138 285.686 66.338 284.206 63.738 284.206C58.818 284.206 54.858 287.846 54.858 291.726C54.858 294.086 56.778 295.486 59.218 295.486Z"></path></g><line stroke="#000000" stroke-width="1.2" x1="55.45841612262693" x2="55.45841612262693" y1="291.6861538461538" y2="329.6861538461538"></line><text font-family="Alegreya" font-size="22" text-anchor="middle" x="61.49841612262693" y="354.8461538461538">turn</text></g><g><g><path d="M86.502 295.486C90.502 295.486 95.422 291.766 95.422 287.966C95.422 285.686 93.622 284.206 91.022 284.206C86.102 284.206 82.142 287.846 82.142 291.726C82.142 294.086 84.062 295.486 86.502 295.486Z"></path></g><line stroke="#000000" stroke-width="1.2" x1="82.74183224525385" x2="82.74183224525385" y1="291.6861538461538" y2="329.6861538461538"></line><text font-family="Alegreya" font-size="22" text-anchor="middle" x="88.78183224525385" y="354.8461538461538">del.turn</text></g><g><g><path d="M130.582 295.486C134.582 295.486 139.502 291.766 139.502 287.966C139.502 285.686 137.702 284.206 135.102 284.206C130.182 284.206 126.222 287.846 126.222 291.726C126.222 294.086 128.142 295.486 130.582 295.486Z"></path></g><line stroke="#000000" stroke-width="1.2" x1="126.82224836788075" x2="126.82224836788075" y1="291.6861538461538" y2="329.6861538461538"></line><text font-family="Alegreya" font-size="22" text-anchor="middle" x="132.86224836788074" y="354.8461538461538">inv.turn</text></g></g><g transform="translate(243.02681833666153)"><g><g><line stroke="#6A6A6A" stroke-width="1.3" x1="-16.599999999999994" x2="121.88366449050767" y1="314.8461538461538" y2="314.8461538461538"></line><line stroke="#6A6A6A" stroke-width="1.3" x1="-16.599999999999994" x2="121.88366449050767" y1="304.8461538461538" y2="304.8461538461538"></line><line stroke="#6A6A6A" stroke-width="1.3" x1="-16.599999999999994" x2="121.88366449050767" y1="294.8461538461538" y2="294.8461538461538"></line><line stroke="#6A6A6A" stroke-width="1.3" x1="-16.599999999999994" x2="121.88366449050767" y1="284.8461538461538" y2="284.8461538461538"></line><line stroke="#6A6A6A" stroke-width="1.3" x1="-16.599999999999994" x2="121.88366449050767" y1="274.8461538461538" y2="274.8461538461538"></line></g></g><g><line stroke="black" stroke-width="1.6" x1="122.68366449050767" x2="122.68366449050767" y1="274.8461538461538" y2="314.8461538461538"></line></g><g><g><path d="M15.249 295.486C19.249 295.486 24.169 291.766 24.169 287.966C24.169 285.686 22.369 284.206 19.769 284.206C14.849 284.206 10.889 287.846 10.889 291.726C10.889 294.086 12.809 295.486 15.249 295.486Z"></path></g><line stroke="#000000" stroke-width="1.2" x1="11.488999999999995" x2="11.488999999999995" y1="291.6861538461538" y2="329.6861538461538"></line><text font-family="Alegreya" font-size="22" text-anchor="middle" x="17.528999999999996" y="354.8461538461538">shake</text></g><g><g><path d="M47.472 295.486C51.472 295.486 56.392 291.766 56.392 287.966C56.392 285.686 54.592 284.206 51.992 284.206C47.072 284.206 43.112 287.846 43.112 291.726C43.112 294.086 45.032 295.486 47.472 295.486Z"></path></g><line stroke="#000000" stroke-width="1.2" x1="43.71241612262692" x2="43.71241612262692" y1="291.6861538461538" y2="329.6861538461538"></line><text font-family="Alegreya" font-size="22" text-anchor="middle" x="49.75241612262692" y="354.8461538461538">wavy</text></g><g><g><path d="M86.583 295.486C90.583 295.486 95.503 291.766 95.503 287.966C95.503 285.686 93.703 284.206 91.103 284.206C86.183 284.206 82.223 287.846 82.223 291.726C82.223 294.086 84.143 295.486 86.583 295.486Z"></path></g><line stroke="#000000" stroke-width="1.2" x1="82.82283224525384" x2="82.82283224525384" y1="291.6861538461538" y2="329.6861538461538"></line><text font-family="Alegreya" font-size="22" text-anchor="middle" x="88.86283224525384" y="354.8461538461538">wavy</text></g><g><g><path d="M119.885 295.486C123.885 295.486 128.805 291.766 128.805 287.966C128.805 285.686 127.005 284.206 124.405 284.206C119.485 284.206 115.525 287.846 115.525 291.726C115.525 294.086 117.445 295.486 119.885 295.486Z"></path></g><line stroke="#000000" stroke-width="1.2" x1="116.12524836788074" x2="116.12524836788074" y1="291.6861538461538" y2="329.6861538461538"></line><text font-family="Alegreya" font-size="22" text-anchor="middle" x="122.16524836788075" y="354.8461538461538">line</text></g></g><g transform="translate(381.51048282716914)"><g><g><line stroke="#6A6A6A" stroke-width="1.3" x1="-16.600000000000023" x2="136.83866449050765" y1="314.8461538461538" y2="314.8461538461538"></line><line stroke="#6A6A6A" stroke-width="1.3" x1="-16.600000000000023" x2="136.83866449050765" y1="304.8461538461538" y2="304.8461538461538"></line><line stroke="#6A6A6A" stroke-width="1.3" x1="-16.600000000000023" x2="136.83866449050765" y1="294.8461538461538" y2="294.8461538461538"></line><line stroke="#6A6A6A" stroke-width="1.3" x1="-16.600000000000023" x2="136.83866449050765" y1="284.8461538461538" y2="284.8461538461538"></line><line stroke="#6A6A6A" stroke-width="1.3" x1="-16.600000000000023" x2="136.83866449050765" y1="274.8461538461538" y2="274.8461538461538"></line></g></g><g><line stroke="black" stroke-width="1.6" x1="137.6386644905077" x2="137.6386644905077" y1="274.8461538461538" y2="314.8461538461538"></line></g><g><g><path d="M19.110 295.486C23.110 295.486 28.030 291.766 28.030 287.966C28.030 285.686 26.230 284.206 23.630 284.206C18.710 284.206 14.750 287.846 14.750 291.726C14.750 294.086 16.670 295.486 19.110 295.486Z"></path></g><line stroke="#000000" stroke-width="1.2" x1="15.349999999999996" x2="15.349999999999996" y1="291.6861538461538" y2="329.6861538461538"></line><text font-family="Alegreya" font-size="22" text-anchor="middle" x="21.389999999999997" y="354.8461538461538">mord.</text></g><g><g><path d="M68.965 295.486C72.965 295.486 77.885 291.766 77.885 287.966C77.885 285.686 76.085 284.206 73.485 284.206C68.565 284.206 64.605 287.846 64.605 291.726C64.605 294.086 66.525 295.486 68.965 295.486Z"></path></g><line stroke="#000000" stroke-width="1.2" x1="65.2054161226269" x2="65.2054161226269" y1="291.6861538461538" y2="329.6861538461538"></line><text font-family="Alegreya" font-size="22" text-anchor="middle" x="71.2454161226269" y="354.8461538461538">inv.mord.</text></g><g><g><path d="M111.715 295.486C115.715 295.486 120.635 291.766 120.635 287.966C120.635 285.686 118.835 284.206 116.235 284.206C111.315 284.206 107.355 287.846 107.355 291.726C107.355 294.086 109.275 295.486 111.715 295.486Z"></path></g><line stroke="#000000" stroke-width="1.2" x1="107.95483224525383" x2="107.95483224525383" y1="291.6861538461538" y2="329.6861538461538"></line><text font-family="Alegreya" font-size="22" text-anchor="middle" x="113.99483224525383" y="354.8461538461538">schl.</text></g><g><g><path d="M134.840 295.486C138.840 295.486 143.760 291.766 143.760 287.966C143.760 285.686 141.960 284.206 139.360 284.206C134.440 284.206 130.480 287.846 130.480 291.726C130.480 294.086 132.400 295.486 134.840 295.486Z"></path></g><g><line stroke="#000000" stroke-width="1.2" x1="131.08024836788076" x2="131.08024836788076" y1="291.6861538461538" y2="329.6861538461538"></line><path d="M137.080 314.126L137.080 309.126L125.080 311.646L125.080 316.646ZM137.080 316.606L125.080 319.086L125.080 324.086L137.080 321.606ZM137.080 323.966L125.080 326.446L125.080 331.446L137.080 328.966Z"></path></g><text font-family="Alegreya" font-size="22" text-anchor="middle" x="137.12024836788078" y="354.8461538461538">trem.</text></g></g><g transform="translate(534.9491473176769)"><g><g><line stroke="#6A6A6A" stroke-width="1.3" x1="-16.600000000000023" x2="198.43475447053868" y1="314.8461538461538" y2="314.8461538461538"></line><line stroke="#6A6A6A" stroke-width="1.3" x1="-16.600000000000023" x2="198.43475447053868" y1="304.8461538461538" y2="304.8461538461538"></line><line stroke="#6A6A6A" stroke-width="1.3" x1="-16.600000000000023" x2="198.43475447053868" y1="294.8461538461538" y2="294.8461538461538"></line><line stroke="#6A6A6A" stroke-width="1.3" x1="-16.600000000000023" x2="198.43475447053868" y1="284.8461538461538" y2="284.8461538461538"></line><line stroke="#6A6A6A" stroke-width="1.3" x1="-16.600000000000023" x2="198.43475447053868" y1="274.8461538461538" y2="274.8461538461538"></line></g></g><g><line stroke="#000000" stroke-width="1.6" x1="199.23475447053863" x2="199.23475447053863" y1="274.8461538461538" y2="314.8461538461538"></line><line stroke="#000000" stroke-width="1.6" x1="204.83475447053863" x2="204.83475447053863" y1="274.8461538461538" y2="314.8461538461538"></line></g><g><g><path d="M34.356 295.486C38.356 295.486 43.276 291.766 43.276 287.966C43.276 285.686 41.476 284.206 38.876 284.206C33.956 284.206 29.996 287.846 29.996 291.726C29.996 294.086 31.916 295.486 34.356 295.486Z"></path></g><line stroke="#000000" stroke-width="1.2" x1="30.595999999999997" x2="30.595999999999997" y1="291.6861538461538" y2="329.6861538461538"></line><text font-family="Alegreya" font-size="22" text-anchor="middle" x="36.635999999999996" y="354.8461538461538">turn+acc.</text></g><g><g><path d="M187.611 295.486C191.611 295.486 196.531 291.766 196.531 287.966C196.531 285.686 194.731 284.206 192.131 284.206C187.211 284.206 183.251 287.846 183.251 291.726C183.251 294.086 185.171 295.486 187.611 295.486Z"></path></g><line stroke="#000000" stroke-width="1.2" x1="183.85141612262686" x2="183.85141612262686" y1="291.6861538461538" y2="329.6861538461538"></line><text font-family="Alegreya" font-size="22" text-anchor="middle" x="189.89141612262688" y="354.8461538461538">turn+acc.(ab.+bel./rel to turn)</text></g><g><path d="M200.890 293.886L200.890 290.206C200.890 289.606 200.410 289.166 199.850 289.166L190.650 289.166C190.050 289.166 189.610 289.606 189.610 290.206L189.610 293.886C189.610 294.446 190.050 294.926 190.650 294.926L199.850 294.926C200.410 294.926 200.890 294.446 200.890 293.886Z"></path></g></g><g transform="translate(755.5839017882155)"><g><g><line stroke="#6A6A6A" stroke-width="1.3" x1="-22.199999999999932" x2="148.45466449050764" y1="314.8461538461538" y2="314.8461538461538"></line><line stroke="#6A6A6A" stroke-width="1.3" x1="-22.199999999999932" x2="148.45466449050764" y1="304.8461538461538" y2="304.8461538461538"></line><line stroke="#6A6A6A" stroke-width="1.3" x1="-22.199999999999932" x2="148.45466449050764" y1="294.8461538461538" y2="294.8461538461538"></line><line stroke="#6A6A6A" stroke-width="1.3" x1="-22.199999999999932" x2="148.45466449050764" y1="284.8461538461538" y2="284.8461538461538"></line><line stroke="#6A6A6A" stroke-width="1.3" x1="-22.199999999999932" x2="148.45466449050764" y1="274.8461538461538" y2="274.8461538461538"></line></g></g><g><line stroke="black" stroke-width="1.6" x1="149.25466449050768" x2="149.25466449050768" y1="274.8461538461538" y2="314.8461538461538"></line></g><g><g><path d="M15.271 295.486C19.271 295.486 24.191 291.766 24.191 287.966C24.191 285.686 22.391 284.206 19.791 284.206C14.871 284.206 10.911 287.846 10.911 291.726C10.911 294.086 12.831 295.486 15.271 295.486Z"></path></g><line stroke="#000000" stroke-width="1.2" x1="11.510999999999994" x2="11.510999999999994" y1="291.6861538461538" y2="329.6861538461538"></line><text font-family="Alegreya" font-size="22" text-anchor="middle" x="17.550999999999995" y="354.8461538461538">up-b.</text></g><g><g><path d="M54.214 295.486C58.214 295.486 63.134 291.766 63.134 287.966C63.134 285.686 61.334 284.206 58.734 284.206C53.814 284.206 49.854 287.846 49.854 291.726C49.854 294.086 51.774 295.486 54.214 295.486Z"></path></g><line stroke="#000000" stroke-width="1.2" x1="50.454416122626924" x2="50.454416122626924" y1="291.6861538461538" y2="329.6861538461538"></line><text font-family="Alegreya" font-size="22" text-anchor="middle" x="56.49441612262692" y="354.8461538461538">down-b.</text></g><g><g><path d="M96.612 295.486C100.612 295.486 105.532 291.766 105.532 287.966C105.532 285.686 103.732 284.206 101.132 284.206C96.212 284.206 92.252 287.846 92.252 291.726C92.252 294.086 94.172 295.486 96.612 295.486Z"></path></g><line stroke="#000000" stroke-width="1.2" x1="92.85183224525383" x2="92.85183224525383" y1="291.6861538461538" y2="329.6861538461538"></line><text font-family="Alegreya" font-size="22" text-anchor="middle" x="98.89183224525384" y="354.8461538461538">harm.</text></g><g><g><path d="M146.456 295.486C150.456 295.486 155.376 291.766 155.376 287.966C155.376 285.686 153.576 284.206 150.976 284.206C146.056 284.206 142.096 287.846 142.096 291.726C142.096 294.086 144.016 295.486 146.456 295.486Z"></path></g><line stroke="#000000" stroke-width="1.2" x1="142.69624836788074" x2="142.69624836788074" y1="291.6861538461538" y2="329.6861538461538"></line><text font-family="Alegreya" font-size="22" text-anchor="middle" x="148.73624836788076" y="354.8461538461538">nat.harm.</text></g></g><g transform="translate(920.6385662787231)"><g><g><line stroke="#6A6A6A" stroke-width="1.3" x1="-16.600000000000023" x2="314.1306644905078" y1="314.8461538461538" y2="314.8461538461538"></line><line stroke="#6A6A6A" stroke-width="1.3" x1="-16.600000000000023" x2="314.1306644905078" y1="304.8461538461538" y2="304.8461538461538"></line><line stroke="#6A6A6A" stroke-width="1.3" x1="-16.600000000000023" x2="314.1306644905078" y1="294.8461538461538" y2="294.8461538461538"></line><line stroke="#6A6A6A" stroke-width="1.3" x1="-16.600000000000023" x2="314.1306644905078" y1="284.8461538461538" y2="284.8461538461538"></line><line stroke="#6A6A6A" stroke-width="1.3" x1="-16.600000000000023" x2="314.1306644905078" y1="274.8461538461538" y2="274.8461538461538"></line></g></g><g><line stroke="black" stroke-width="1.6" x1="313.3306644905077" x2="313.3306644905077" y1="274.8461538461538" y2="314.8461538461538"></line></g><g><g><path d="M34.312 295.486C38.312 295.486 43.232 291.766 43.232 287.966C43.232 285.686 41.432 284.206 38.832 284.206C33.912 284.206 29.952 287.846 29.952 291.726C29.952 294.086 31.872 295.486 34.312 295.486Z"></path></g><line stroke="#000000" stroke-width="1.2" x1="30.551999999999985" x2="30.551999999999985" y1="291.6861538461538" y2="329.6861538461538"></line><text font-family="Alegreya" font-size="22" text-anchor="middle" x="36.591999999999985" y="354.8461538461538">art.harm.</text></g><g><g><path d="M102.625 295.486C106.625 295.486 111.545 291.766 111.545 287.966C111.545 285.686 109.745 284.206 107.145 284.206C102.225 284.206 98.265 287.846 98.265 291.726C98.265 294.086 100.185 295.486 102.625 295.486Z"></path></g><line stroke="#000000" stroke-width="1.2" x1="98.86541612262687" x2="98.86541612262687" y1="291.6861538461538" y2="329.6861538461538"></line><text font-family="Alegreya" font-size="22" text-anchor="middle" x="104.90541612262687" y="354.8461538461538">nat.h./base</text></g><g><g><path d="M195.535 295.486C199.535 295.486 204.455 291.766 204.455 287.966C204.455 285.686 202.655 284.206 200.055 284.206C195.135 284.206 191.175 287.846 191.175 291.726C191.175 294.086 193.095 295.486 195.535 295.486Z"></path></g><line stroke="#000000" stroke-width="1.2" x1="191.7748322452538" x2="191.7748322452538" y1="291.6861538461538" y2="329.6861538461538"></line><text font-family="Alegreya" font-size="22" text-anchor="middle" x="197.8148322452538" y="354.8461538461538">nat.h./touching</text></g><g><g><path d="M310.532 295.486C314.532 295.486 319.452 291.766 319.452 287.966C319.452 285.686 317.652 284.206 315.052 284.206C310.132 284.206 306.172 287.846 306.172 291.726C306.172 294.086 308.092 295.486 310.532 295.486Z"></path></g><line stroke="#000000" stroke-width="1.2" x1="306.77224836788076" x2="306.77224836788076" y1="291.6861538461538" y2="329.6861538461538"></line><text font-family="Alegreya" font-size="22" text-anchor="middle" x="312.8122483678807" y="354.8461538461538">nat.h./sounding</text></g></g><g transform="translate(93.84615384615385)"><g><g><line stroke="#6A6A6A" stroke-width="1.3" x1="0" x2="260.18417948717945" y1="445.8461538461538" y2="445.8461538461538"></line><line stroke="#6A6A6A" stroke-width="1.3" x1="0" x2="260.18417948717945" y1="435.8461538461538" y2="435.8461538461538"></line><line stroke="#6A6A6A" stroke-width="1.3" x1="0" x2="260.18417948717945" y1="425.8461538461538" y2="425.8461538461538"></line><line stroke="#6A6A6A" stroke-width="1.3" x1="0" x2="260.18417948717945" y1="415.8461538461538" y2="415.8461538461538"></line><line stroke="#6A6A6A" stroke-width="1.3" x1="0" x2="260.18417948717945" y1="405.8461538461538" y2="405.8461538461538"></line></g><g><path d="M25.200 391.926C24.640 391.926 23.400 392.966 22.600 393.846C19.640 397.126 18.680 402.126 18.680 406.286C18.680 408.606 18.960 411.206 19.240 412.846C19.320 413.326 19.360 413.406 18.880 413.806C16.320 415.926 13.560 418.366 11.480 420.926C8.720 424.366 7 428.086 7 432.366C7 439.326 11.760 445.926 21.560 445.926C22.480 445.926 23.520 445.846 24.320 445.686C24.760 445.606 24.840 445.566 24.920 446.046C25.400 448.726 26 452.206 26 454.086C26 460.006 22 460.726 19.640 460.726C17.480 460.726 16.440 460.086 16.440 459.566C16.440 459.126 16.800 459.166 17.720 458.886C18.960 458.526 20.400 457.446 20.400 455.126C20.400 452.926 19 451.046 16.560 451.046C13.880 451.046 12.280 453.166 12.280 455.646C12.280 458.246 13.840 462.166 19.880 462.166C22.560 462.166 27.760 460.966 27.760 454.166C27.760 451.886 27.040 448.086 26.600 445.606C26.520 445.126 26.560 445.166 27.120 444.926C31.160 443.326 33.840 439.926 33.840 435.406C33.840 430.286 30.080 425.766 24.200 425.766C23.080 425.766 23.200 425.966 23.040 425.046L22.040 419.246C21.960 418.766 22.040 418.726 22.280 418.486C22.920 417.886 23.760 417.046 24.520 416.206C27.880 412.526 29.880 407.766 29.880 403.246C29.880 399.766 28.920 396.326 27.280 393.926C26.680 393.046 25.640 391.926 25.200 391.926ZM20.040 420.086C20.440 419.766 20.520 419.806 20.600 420.246L21.440 425.366C21.560 426.126 21.560 426.086 20.840 426.326C17.320 427.526 15.040 430.686 15.040 434.086C15.040 437.686 16.920 440.246 19.640 441.166C19.960 441.286 20.440 441.406 20.720 441.406C21.040 441.406 21.200 441.206 21.200 440.966C21.200 440.686 20.880 440.566 20.600 440.446C18.920 439.726 17.720 438.006 17.720 436.166C17.720 433.886 19.280 432.166 21.720 431.486C22.360 431.326 22.440 431.366 22.520 431.806L24.520 443.726C24.600 444.166 24.560 444.166 23.960 444.286C23.320 444.406 22.520 444.486 21.720 444.486C14.720 444.486 10.200 440.606 10.200 435.046C10.200 432.686 10.600 429.526 13.920 425.766C16.320 423.086 18.160 421.606 20.040 420.086ZM24.640 431.166C27.880 431.446 30.560 434.166 30.560 437.686C30.560 440.206 29.040 442.246 26.800 443.366C26.320 443.606 26.240 443.606 26.160 443.126L24.200 431.726C24.120 431.246 24.160 431.126 24.640 431.166ZM25.800 398.126C27.120 398.126 28.200 399.206 28.200 401.406C28.200 404.166 26.880 406.726 23.760 409.846C23.120 410.486 22.160 411.406 21.240 412.206C20.960 412.446 20.800 412.406 20.720 411.886C20.560 410.846 20.480 409.486 20.480 408.206C20.480 401.966 23.360 398.126 25.800 398.126Z"></path></g><g></g><text font-family='Alegreya' font-style='italic' text-anchor='end' stroke='#7a7a7a' font-size="24" x="0" y="395.8461538461538">13</text></g><g><line stroke="black" stroke-width="1.6" x1="260.98417948717946" x2="260.98417948717946" y1="405.8461538461538" y2="445.8461538461538"></line></g><g><g><path d="M52.860 426.486C56.860 426.486 61.780 422.766 61.780 418.966C61.780 416.686 59.980 415.206 57.380 415.206C52.460 415.206 48.500 418.846 48.500 422.726C48.500 425.086 50.420 426.486 52.860 426.486Z"></path></g><line stroke="#000000" stroke-width="1.2" x1="49.1" x2="49.1" y1="422.6861538461538" y2="460.6861538461538"></line><text font-family="Alegreya" font-size="22" text-anchor="middle" x="55.14" y="485.8461538461538">open-str.</text></g><g><g><path d="M123.662 426.486C127.662 426.486 132.582 422.766 132.582 418.966C132.582 416.686 130.782 415.206 128.182 415.206C123.262 415.206 119.302 418.846 119.302 422.726C119.302 425.086 121.222 426.486 123.662 426.486Z"></path></g><line stroke="#000000" stroke-width="1.2" x1="119.90229487179488" x2="119.90229487179488" y1="422.6861538461538" y2="460.6861538461538"></line><text font-family="Alegreya" font-size="22" text-anchor="middle" x="125.94229487179489" y="485.8461538461538">thumb-pos.</text></g><g><g><path d="M205.344 426.486C209.344 426.486 214.264 422.766 214.264 418.966C214.264 416.686 212.464 415.206 209.864 415.206C204.944 415.206 200.984 418.846 200.984 422.726C200.984 425.086 202.904 426.486 205.344 426.486Z"></path></g><line stroke="#000000" stroke-width="1.2" x1="201.58358974358973" x2="201.58358974358973" y1="422.6861538461538" y2="460.6861538461538"></line><text font-family="Alegreya" font-size="22" text-anchor="middle" x="207.62358974358972" y="485.8461538461538">empty fing.</text></g><g><g><path d="M258.634 426.486C262.634 426.486 267.554 422.766 267.554 418.966C267.554 416.686 265.754 415.206 263.154 415.206C258.234 415.206 254.274 418.846 254.274 422.726C254.274 425.086 256.194 426.486 258.634 426.486Z"></path></g><line stroke="#000000" stroke-width="1.2" x1="254.8738846153846" x2="254.8738846153846" y1="422.6861538461538" y2="460.6861538461538"></line><text font-family="Alegreya" font-size="22" text-anchor="middle" x="260.91388461538463" y="485.8461538461538">fing.1</text></g></g><g transform="translate(370.6303333333333)"><g><g><line stroke="#6A6A6A" stroke-width="1.3" x1="-16.600000000000023" x2="92.7731794871795" y1="445.8461538461538" y2="445.8461538461538"></line><line stroke="#6A6A6A" stroke-width="1.3" x1="-16.600000000000023" x2="92.7731794871795" y1="435.8461538461538" y2="435.8461538461538"></line><line stroke="#6A6A6A" stroke-width="1.3" x1="-16.600000000000023" x2="92.7731794871795" y1="425.8461538461538" y2="425.8461538461538"></line><line stroke="#6A6A6A" stroke-width="1.3" x1="-16.600000000000023" x2="92.7731794871795" y1="415.8461538461538" y2="415.8461538461538"></line><line stroke="#6A6A6A" stroke-width="1.3" x1="-16.600000000000023" x2="92.7731794871795" y1="405.8461538461538" y2="405.8461538461538"></line></g></g><g><line stroke="black" stroke-width="1.6" x1="93.5731794871795" x2="93.5731794871795" y1="405.8461538461538" y2="445.8461538461538"></line></g><g><g><path d="M15.436 426.486C19.436 426.486 24.356 422.766 24.356 418.966C24.356 416.686 22.556 415.206 19.956 415.206C15.036 415.206 11.076 418.846 11.076 422.726C11.076 425.086 12.996 426.486 15.436 426.486Z"></path></g><line stroke="#000000" stroke-width="1.2" x1="11.675999999999997" x2="11.675999999999997" y1="422.6861538461538" y2="460.6861538461538"></line><text font-family="Alegreya" font-size="22" text-anchor="middle" x="17.715999999999998" y="485.8461538461538">fing.2</text></g><g><g><path d="M40.698 426.486C44.698 426.486 49.618 422.766 49.618 418.966C49.618 416.686 47.818 415.206 45.218 415.206C40.298 415.206 36.338 418.846 36.338 422.726C36.338 425.086 38.258 426.486 40.698 426.486Z"></path></g><line stroke="#000000" stroke-width="1.2" x1="36.938294871794874" x2="36.938294871794874" y1="422.6861538461538" y2="460.6861538461538"></line><text font-family="Alegreya" font-size="22" text-anchor="middle" x="42.97829487179487" y="485.8461538461538">fing.3</text></g><g><g><path d="M65.961 426.486C69.961 426.486 74.881 422.766 74.881 418.966C74.881 416.686 73.081 415.206 70.481 415.206C65.561 415.206 61.601 418.846 61.601 422.726C61.601 425.086 63.521 426.486 65.961 426.486Z"></path></g><line stroke="#000000" stroke-width="1.2" x1="62.20058974358974" x2="62.20058974358974" y1="422.6861538461538" y2="460.6861538461538"></line><text font-family="Alegreya" font-size="22" text-anchor="middle" x="68.24058974358974" y="485.8461538461538">fing.4</text></g><g><g><path d="M91.223 426.486C95.223 426.486 100.143 422.766 100.143 418.966C100.143 416.686 98.343 415.206 95.743 415.206C90.823 415.206 86.863 418.846 86.863 422.726C86.863 425.086 88.783 426.486 91.223 426.486Z"></path></g><line stroke="#000000" stroke-width="1.2" x1="87.46288461538461" x2="87.46288461538461" y1="422.6861538461538" y2="460.6861538461538"></line><text font-family="Alegreya" font-size="22" text-anchor="middle" x="93.50288461538462" y="485.8461538461538">fing.5</text></g></g><g transform="translate(480.0035128205128)"><g><g><line stroke="#6A6A6A" stroke-width="1.3" x1="-16.599999999999966" x2="226.53317948717944" y1="445.8461538461538" y2="445.8461538461538"></line><line stroke="#6A6A6A" stroke-width="1.3" x1="-16.599999999999966" x2="226.53317948717944" y1="435.8461538461538" y2="435.8461538461538"></line><line stroke="#6A6A6A" stroke-width="1.3" x1="-16.599999999999966" x2="226.53317948717944" y1="425.8461538461538" y2="425.8461538461538"></line><line stroke="#6A6A6A" stroke-width="1.3" x1="-16.599999999999966" x2="226.53317948717944" y1="415.8461538461538" y2="415.8461538461538"></line><line stroke="#6A6A6A" stroke-width="1.3" x1="-16.599999999999966" x2="226.53317948717944" y1="405.8461538461538" y2="405.8461538461538"></line></g></g><g><line stroke="black" stroke-width="1.6" x1="227.33317948717945" x2="227.33317948717945" y1="405.8461538461538" y2="445.8461538461538"></line></g><g><g><path d="M29.362 426.486C33.362 426.486 38.282 422.766 38.282 418.966C38.282 416.686 36.482 415.206 33.882 415.206C28.962 415.206 25.002 418.846 25.002 422.726C25.002 425.086 26.922 426.486 29.362 426.486Z"></path></g><line stroke="#000000" stroke-width="1.2" x1="25.601999999999997" x2="25.601999999999997" y1="422.6861538461538" y2="460.6861538461538"></line><text font-family="Alegreya" font-size="22" text-anchor="middle" x="31.641999999999996" y="485.8461538461538">fing.sth.</text></g><g><g><path d="M89.967 426.486C93.967 426.486 98.887 422.766 98.887 418.966C98.887 416.686 97.087 415.206 94.487 415.206C89.567 415.206 85.607 418.846 85.607 422.726C85.607 425.086 87.527 426.486 89.967 426.486Z"></path></g><line stroke="#000000" stroke-width="1.2" x1="86.20729487179486" x2="86.20729487179486" y1="422.6861538461538" y2="460.6861538461538"></line><text font-family="Alegreya" font-size="22" text-anchor="middle" x="92.24729487179486" y="485.8461538461538">mult.fing.</text></g><g><g><path d="M165.324 426.486C169.324 426.486 174.244 422.766 174.244 418.966C174.244 416.686 172.444 415.206 169.844 415.206C164.924 415.206 160.964 418.846 160.964 422.726C160.964 425.086 162.884 426.486 165.324 426.486Z"></path></g><line stroke="#000000" stroke-width="1.2" x1="161.56358974358972" x2="161.56358974358972" y1="422.6861538461538" y2="460.6861538461538"></line><text font-family="Alegreya" font-size="22" text-anchor="middle" x="167.60358974358974" y="485.8461538461538">empty pluck</text></g><g><g><path d="M224.983 426.486C228.983 426.486 233.903 422.766 233.903 418.966C233.903 416.686 232.103 415.206 229.503 415.206C224.583 415.206 220.623 418.846 220.623 422.726C220.623 425.086 222.543 426.486 224.983 426.486Z"></path></g><line stroke="#000000" stroke-width="1.2" x1="221.22288461538454" x2="221.22288461538454" y1="422.6861538461538" y2="460.6861538461538"></line><text font-family="Alegreya" font-size="22" text-anchor="middle" x="227.26288461538456" y="485.8461538461538">pluck a</text></g></g><g transform="translate(723.1366923076922)"><g><g><line stroke="#6A6A6A" stroke-width="1.3" x1="-16.600000000000023" x2="176.37317948717953" y1="445.8461538461538" y2="445.8461538461538"></line><line stroke="#6A6A6A" stroke-width="1.3" x1="-16.600000000000023" x2="176.37317948717953" y1="435.8461538461538" y2="435.8461538461538"></line><line stroke="#6A6A6A" stroke-width="1.3" x1="-16.600000000000023" x2="176.37317948717953" y1="425.8461538461538" y2="425.8461538461538"></line><line stroke="#6A6A6A" stroke-width="1.3" x1="-16.600000000000023" x2="176.37317948717953" y1="415.8461538461538" y2="415.8461538461538"></line><line stroke="#6A6A6A" stroke-width="1.3" x1="-16.600000000000023" x2="176.37317948717953" y1="405.8461538461538" y2="405.8461538461538"></line></g></g><g><line stroke="black" stroke-width="1.6" x1="177.17317948717948" x2="177.17317948717948" y1="405.8461538461538" y2="445.8461538461538"></line></g><g><g><path d="M26.513 426.486C30.513 426.486 35.433 422.766 35.433 418.966C35.433 416.686 33.633 415.206 31.033 415.206C26.113 415.206 22.153 418.846 22.153 422.726C22.153 425.086 24.073 426.486 26.513 426.486Z"></path></g><line stroke="#000000" stroke-width="1.2" x1="22.752999999999993" x2="22.752999999999993" y1="422.6861538461538" y2="460.6861538461538"></line><text font-family="Alegreya" font-size="22" text-anchor="middle" x="28.792999999999992" y="485.8461538461538">dbl.tng.</text></g><g><g><path d="M76.085 426.486C80.085 426.486 85.005 422.766 85.005 418.966C85.005 416.686 83.205 415.206 80.605 415.206C75.685 415.206 71.725 418.846 71.725 422.726C71.725 425.086 73.645 426.486 76.085 426.486Z"></path></g><line stroke="#000000" stroke-width="1.2" x1="72.32529487179485" x2="72.32529487179485" y1="422.6861538461538" y2="460.6861538461538"></line><text font-family="Alegreya" font-size="22" text-anchor="middle" x="78.36529487179486" y="485.8461538461538">trpl.tng.</text></g><g><g><path d="M123.579 426.486C127.579 426.486 132.499 422.766 132.499 418.966C132.499 416.686 130.699 415.206 128.099 415.206C123.179 415.206 119.219 418.846 119.219 422.726C119.219 425.086 121.139 426.486 123.579 426.486Z"></path></g><line stroke="#000000" stroke-width="1.2" x1="119.81858974358974" x2="119.81858974358974" y1="422.6861538461538" y2="460.6861538461538"></line><text font-family="Alegreya" font-size="22" text-anchor="middle" x="125.85858974358975" y="485.8461538461538">stopped</text></g><g><g><path d="M174.823 426.486C178.823 426.486 183.743 422.766 183.743 418.966C183.743 416.686 181.943 415.206 179.343 415.206C174.423 415.206 170.463 418.846 170.463 422.726C170.463 425.086 172.383 426.486 174.823 426.486Z"></path></g><line stroke="#000000" stroke-width="1.2" x1="171.06288461538463" x2="171.06288461538463" y1="422.6861538461538" y2="460.6861538461538"></line><text font-family="Alegreya" font-size="22" text-anchor="middle" x="177.10288461538465" y="485.8461538461538">snp.pizz.</text></g></g><g transform="translate(916.1098717948717)"><g><g><line stroke="#6A6A6A" stroke-width="1.3" x1="-16.59999999999991" x2="167.80417948717945" y1="445.8461538461538" y2="445.8461538461538"></line><line stroke="#6A6A6A" stroke-width="1.3" x1="-16.59999999999991" x2="167.80417948717945" y1="435.8461538461538" y2="435.8461538461538"></line><line stroke="#6A6A6A" stroke-width="1.3" x1="-16.59999999999991" x2="167.80417948717945" y1="425.8461538461538" y2="425.8461538461538"></line><line stroke="#6A6A6A" stroke-width="1.3" x1="-16.59999999999991" x2="167.80417948717945" y1="415.8461538461538" y2="415.8461538461538"></line><line stroke="#6A6A6A" stroke-width="1.3" x1="-16.59999999999991" x2="167.80417948717945" y1="405.8461538461538" y2="405.8461538461538"></line></g></g><g><line stroke="black" stroke-width="1.6" x1="168.60417948717947" x2="168.60417948717947" y1="405.8461538461538" y2="445.8461538461538"></line></g><g><g><path d="M37.777 426.486C41.777 426.486 46.697 422.766 46.697 418.966C46.697 416.686 44.897 415.206 42.297 415.206C37.377 415.206 33.417 418.846 33.417 422.726C33.417 425.086 35.337 426.486 37.777 426.486Z"></path></g><line stroke="#000000" stroke-width="1.2" x1="34.016999999999996" x2="34.016999999999996" y1="422.6861538461538" y2="460.6861538461538"></line><text font-family="Alegreya" font-size="22" text-anchor="middle" x="40.056999999999995" y="485.8461538461538">empty fret</text></g><g><g><path d="M80.705 426.486C84.705 426.486 89.625 422.766 89.625 418.966C89.625 416.686 87.825 415.206 85.225 415.206C80.305 415.206 76.345 418.846 76.345 422.726C76.345 425.086 78.265 426.486 80.705 426.486Z"></path></g><line stroke="#000000" stroke-width="1.2" x1="76.94529487179486" x2="76.94529487179486" y1="422.6861538461538" y2="460.6861538461538"></line><text font-family="Alegreya" font-size="22" text-anchor="middle" x="82.98529487179486" y="485.8461538461538">fret0</text></g><g><g><path d="M123.128 426.486C127.128 426.486 132.048 422.766 132.048 418.966C132.048 416.686 130.248 415.206 127.648 415.206C122.728 415.206 118.768 418.846 118.768 422.726C118.768 425.086 120.688 426.486 123.128 426.486Z"></path></g><line stroke="#000000" stroke-width="1.2" x1="119.36758974358972" x2="119.36758974358972" y1="422.6861538461538" y2="460.6861538461538"></line><text font-family="Alegreya" font-size="22" text-anchor="middle" x="125.40758974358972" y="485.8461538461538">empty str.</text></g><g><g><path d="M166.254 426.486C170.254 426.486 175.174 422.766 175.174 418.966C175.174 416.686 173.374 415.206 170.774 415.206C165.854 415.206 161.894 418.846 161.894 422.726C161.894 425.086 163.814 426.486 166.254 426.486Z"></path></g><line stroke="#000000" stroke-width="1.2" x1="162.4938846153846" x2="162.4938846153846" y1="422.6861538461538" y2="460.6861538461538"></line><text font-family="Alegreya" font-size="22" text-anchor="middle" x="168.53388461538458" y="485.8461538461538">str. 5</text></g></g><g transform="translate(1100.5140512820512)"><g><g><line stroke="#6A6A6A" stroke-width="1.3" x1="-16.600000000000023" x2="134.25517948717936" y1="445.8461538461538" y2="445.8461538461538"></line><line stroke="#6A6A6A" stroke-width="1.3" x1="-16.600000000000023" x2="134.25517948717936" y1="435.8461538461538" y2="435.8461538461538"></line><line stroke="#6A6A6A" stroke-width="1.3" x1="-16.600000000000023" x2="134.25517948717936" y1="425.8461538461538" y2="425.8461538461538"></line><line stroke="#6A6A6A" stroke-width="1.3" x1="-16.600000000000023" x2="134.25517948717936" y1="415.8461538461538" y2="415.8461538461538"></line><line stroke="#6A6A6A" stroke-width="1.3" x1="-16.600000000000023" x2="134.25517948717936" y1="405.8461538461538" y2="405.8461538461538"></line></g></g><g><line stroke="black" stroke-width="1.6" x1="133.45517948717952" x2="133.45517948717952" y1="405.8461538461538" y2="445.8461538461538"></line></g><g><g><path d="M38.592 426.486C42.592 426.486 47.512 422.766 47.512 418.966C47.512 416.686 45.712 415.206 43.112 415.206C38.192 415.206 34.232 418.846 34.232 422.726C34.232 425.086 36.152 426.486 38.592 426.486Z"></path></g><line stroke="#000000" stroke-width="1.2" x1="34.831999999999994" x2="34.831999999999994" y1="422.6861538461538" y2="460.6861538461538"></line><text font-family="Alegreya" font-size="22" text-anchor="middle" x="40.87199999999999" y="485.8461538461538">hammer</text></g><g><g><path d="M81.412 426.486C85.412 426.486 90.332 422.766 90.332 418.966C90.332 416.686 88.532 415.206 85.932 415.206C81.012 415.206 77.052 418.846 77.052 422.726C77.052 425.086 78.972 426.486 81.412 426.486Z"></path></g><line stroke="#000000" stroke-width="1.2" x1="77.65229487179485" x2="77.65229487179485" y1="422.6861538461538" y2="460.6861538461538"></line><text font-family="Alegreya" font-size="22" text-anchor="middle" x="83.69229487179486" y="485.8461538461538">on</text></g><g><g><path d="M104.444 426.486C108.444 426.486 113.364 422.766 113.364 418.966C113.364 416.686 111.564 415.206 108.964 415.206C104.044 415.206 100.084 418.846 100.084 422.726C100.084 425.086 102.004 426.486 104.444 426.486Z"></path></g><line stroke="#000000" stroke-width="1.2" x1="100.68358974358972" x2="100.68358974358972" y1="422.6861538461538" y2="460.6861538461538"></line><text font-family="Alegreya" font-size="22" text-anchor="middle" x="106.72358974358973" y="485.8461538461538">pull</text></g><g><g><path d="M131.105 426.486C135.105 426.486 140.025 422.766 140.025 418.966C140.025 416.686 138.225 415.206 135.625 415.206C130.705 415.206 126.745 418.846 126.745 422.726C126.745 425.086 128.665 426.486 131.105 426.486Z"></path></g><line stroke="#000000" stroke-width="1.2" x1="127.34488461538461" x2="127.34488461538461" y1="422.6861538461538" y2="460.6861538461538"></line><text font-family="Alegreya" font-size="22" text-anchor="middle" x="133.38488461538464" y="485.8461538461538">off</text></g></g><g transform="translate(93.84615384615385)"><g><g><line stroke="#6A6A6A" stroke-width="1.3" x1="0" x2="352.5103279910522" y1="576.8461538461538" y2="576.8461538461538"></line><line stroke="#6A6A6A" stroke-width="1.3" x1="0" x2="352.5103279910522" y1="566.8461538461538" y2="566.8461538461538"></line><line stroke="#6A6A6A" stroke-width="1.3" x1="0" x2="352.5103279910522" y1="556.8461538461538" y2="556.8461538461538"></line><line stroke="#6A6A6A" stroke-width="1.3" x1="0" x2="352.5103279910522" y1="546.8461538461538" y2="546.8461538461538"></line><line stroke="#6A6A6A" stroke-width="1.3" x1="0" x2="352.5103279910522" y1="536.8461538461538" y2="536.8461538461538"></line></g><g><path d="M25.200 522.926C24.640 522.926 23.400 523.966 22.600 524.846C19.640 528.126 18.680 533.126 18.680 537.286C18.680 539.606 18.960 542.206 19.240 543.846C19.320 544.326 19.360 544.406 18.880 544.806C16.320 546.926 13.560 549.366 11.480 551.926C8.720 555.366 7 559.086 7 563.366C7 570.326 11.760 576.926 21.560 576.926C22.480 576.926 23.520 576.846 24.320 576.686C24.760 576.606 24.840 576.566 24.920 577.046C25.400 579.726 26 583.206 26 585.086C26 591.006 22 591.726 19.640 591.726C17.480 591.726 16.440 591.086 16.440 590.566C16.440 590.126 16.800 590.166 17.720 589.886C18.960 589.526 20.400 588.446 20.400 586.126C20.400 583.926 19 582.046 16.560 582.046C13.880 582.046 12.280 584.166 12.280 586.646C12.280 589.246 13.840 593.166 19.880 593.166C22.560 593.166 27.760 591.966 27.760 585.166C27.760 582.886 27.040 579.086 26.600 576.606C26.520 576.126 26.560 576.166 27.120 575.926C31.160 574.326 33.840 570.926 33.840 566.406C33.840 561.286 30.080 556.766 24.200 556.766C23.080 556.766 23.200 556.966 23.040 556.046L22.040 550.246C21.960 549.766 22.040 549.726 22.280 549.486C22.920 548.886 23.760 548.046 24.520 547.206C27.880 543.526 29.880 538.766 29.880 534.246C29.880 530.766 28.920 527.326 27.280 524.926C26.680 524.046 25.640 522.926 25.200 522.926ZM20.040 551.086C20.440 550.766 20.520 550.806 20.600 551.246L21.440 556.366C21.560 557.126 21.560 557.086 20.840 557.326C17.320 558.526 15.040 561.686 15.040 565.086C15.040 568.686 16.920 571.246 19.640 572.166C19.960 572.286 20.440 572.406 20.720 572.406C21.040 572.406 21.200 572.206 21.200 571.966C21.200 571.686 20.880 571.566 20.600 571.446C18.920 570.726 17.720 569.006 17.720 567.166C17.720 564.886 19.280 563.166 21.720 562.486C22.360 562.326 22.440 562.366 22.520 562.806L24.520 574.726C24.600 575.166 24.560 575.166 23.960 575.286C23.320 575.406 22.520 575.486 21.720 575.486C14.720 575.486 10.200 571.606 10.200 566.046C10.200 563.686 10.600 560.526 13.920 556.766C16.320 554.086 18.160 552.606 20.040 551.086ZM24.640 562.166C27.880 562.446 30.560 565.166 30.560 568.686C30.560 571.206 29.040 573.246 26.800 574.366C26.320 574.606 26.240 574.606 26.160 574.126L24.200 562.726C24.120 562.246 24.160 562.126 24.640 562.166ZM25.800 529.126C27.120 529.126 28.200 530.206 28.200 532.406C28.200 535.166 26.880 537.726 23.760 540.846C23.120 541.486 22.160 542.406 21.240 543.206C20.960 543.446 20.800 543.406 20.720 542.886C20.560 541.846 20.480 540.486 20.480 539.206C20.480 532.966 23.360 529.126 25.800 529.126Z"></path></g><g></g><text font-family='Alegreya' font-style='italic' text-anchor='end' stroke='#7a7a7a' font-size="24" x="0" y="526.8461538461538">19</text></g><g><line stroke="black" stroke-width="1.6" x1="353.3103279910522" x2="353.3103279910522" y1="536.8461538461538" y2="576.8461538461538"></line></g><g><g><path d="M52.860 557.486C56.860 557.486 61.780 553.766 61.780 549.966C61.780 547.686 59.980 546.206 57.380 546.206C52.460 546.206 48.500 549.846 48.500 553.726C48.500 556.086 50.420 557.486 52.860 557.486Z"></path></g><line stroke="#000000" stroke-width="1.2" x1="49.1" x2="49.1" y1="553.6861538461538" y2="591.6861538461538"></line><text font-family="Alegreya" font-size="22" text-anchor="middle" x="55.14" y="616.8461538461538">bend</text></g><g><g><path d="M127.244 557.486C131.244 557.486 136.164 553.766 136.164 549.966C136.164 547.686 134.364 546.206 131.764 546.206C126.844 546.206 122.884 549.846 122.884 553.726C122.884 556.086 124.804 557.486 127.244 557.486Z"></path></g><line stroke="#000000" stroke-width="1.2" x1="123.48358199776304" x2="123.48358199776304" y1="553.6861538461538" y2="591.6861538461538"></line><text font-family="Alegreya" font-size="22" text-anchor="middle" x="129.52358199776305" y="616.8461538461538">b.3 with-bar</text></g><g><g><path d="M225.915 557.486C229.915 557.486 234.835 553.766 234.835 549.966C234.835 547.686 233.035 546.206 230.435 546.206C225.515 546.206 221.555 549.846 221.555 553.726C221.555 556.086 223.475 557.486 225.915 557.486Z"></path></g><line stroke="#000000" stroke-width="1.2" x1="222.1551639955261" x2="222.1551639955261" y1="553.6861538461538" y2="591.6861538461538"></line><text font-family="Alegreya" font-size="22" text-anchor="middle" x="228.19516399552612" y="616.8461538461538">pre-b. -0.5</text></g><g><g><path d="M326.017 557.486C330.017 557.486 334.937 553.766 334.937 549.966C334.937 547.686 333.137 546.206 330.537 546.206C325.617 546.206 321.657 549.846 321.657 553.726C321.657 556.086 323.577 557.486 326.017 557.486Z"></path></g><line stroke="#000000" stroke-width="1.2" x1="322.2567459932892" x2="322.2567459932892" y1="553.6861538461538" y2="591.6861538461538"></line><text font-family="Alegreya" font-size="22" text-anchor="middle" x="328.29674599328916" y="616.8461538461538">b. release 3.5</text></g></g><g transform="translate(462.956481837206)"><g><g><line stroke="#6A6A6A" stroke-width="1.3" x1="-16.600000000000023" x2="137.9103279910522" y1="576.8461538461538" y2="576.8461538461538"></line><line stroke="#6A6A6A" stroke-width="1.3" x1="-16.600000000000023" x2="137.9103279910522" y1="566.8461538461538" y2="566.8461538461538"></line><line stroke="#6A6A6A" stroke-width="1.3" x1="-16.600000000000023" x2="137.9103279910522" y1="556.8461538461538" y2="556.8461538461538"></line><line stroke="#6A6A6A" stroke-width="1.3" x1="-16.600000000000023" x2="137.9103279910522" y1="546.8461538461538" y2="546.8461538461538"></line><line stroke="#6A6A6A" stroke-width="1.3" x1="-16.600000000000023" x2="137.9103279910522" y1="536.8461538461538" y2="536.8461538461538"></line></g></g><g><line stroke="black" stroke-width="1.6" x1="138.71032799105222" x2="138.71032799105222" y1="536.8461538461538" y2="576.8461538461538"></line></g><g><g><path d="M4.360 557.486C8.360 557.486 13.280 553.766 13.280 549.966C13.280 547.686 11.480 546.206 8.880 546.206C3.960 546.206 0 549.846 0 553.726C0 556.086 1.920 557.486 4.360 557.486Z"></path></g><line stroke="#000000" stroke-width="1.2" x1="0.6" x2="0.6" y1="553.6861538461538" y2="591.6861538461538"></line><text font-family="Alegreya" font-size="22" text-anchor="middle" x="6.640000000000001" y="616.8461538461538">tap</text></g><g><g><path d="M37.956 557.486C41.956 557.486 46.876 553.766 46.876 549.966C46.876 547.686 45.076 546.206 42.476 546.206C37.556 546.206 33.596 549.846 33.596 553.726C33.596 556.086 35.516 557.486 37.956 557.486Z"></path></g><line stroke="#000000" stroke-width="1.2" x1="34.19558199776305" x2="34.19558199776305" y1="553.6861538461538" y2="591.6861538461538"></line><text font-family="Alegreya" font-size="22" text-anchor="middle" x="40.23558199776305" y="616.8461538461538">tap T</text></g><g><g><path d="M78.525 557.486C82.525 557.486 87.445 553.766 87.445 549.966C87.445 547.686 85.645 546.206 83.045 546.206C78.125 546.206 74.165 549.846 74.165 553.726C74.165 556.086 76.085 557.486 78.525 557.486Z"></path></g><line stroke="#000000" stroke-width="1.2" x1="74.7651639955261" x2="74.7651639955261" y1="553.6861538461538" y2="591.6861538461538"></line><text font-family="Alegreya" font-size="22" text-anchor="middle" x="80.8051639955261" y="616.8461538461538">heel</text></g><g><g><path d="M111.417 557.486C115.417 557.486 120.337 553.766 120.337 549.966C120.337 547.686 118.537 546.206 115.937 546.206C111.017 546.206 107.057 549.846 107.057 553.726C107.057 556.086 108.977 557.486 111.417 557.486Z"></path></g><line stroke="#000000" stroke-width="1.2" x1="107.65674599328915" x2="107.65674599328915" y1="553.6861538461538" y2="591.6861538461538"></line><text font-family="Alegreya" font-size="22" text-anchor="middle" x="113.69674599328916" y="616.8461538461538">toe</text></g></g><g transform="translate(617.4668098282583)"><g><g><line stroke="#6A6A6A" stroke-width="1.3" x1="-16.599999999999966" x2="135.78700725964586" y1="576.8461538461538" y2="576.8461538461538"></line><line stroke="#6A6A6A" stroke-width="1.3" x1="-16.599999999999966" x2="135.78700725964586" y1="566.8461538461538" y2="566.8461538461538"></line><line stroke="#6A6A6A" stroke-width="1.3" x1="-16.599999999999966" x2="135.78700725964586" y1="556.8461538461538" y2="556.8461538461538"></line><line stroke="#6A6A6A" stroke-width="1.3" x1="-16.599999999999966" x2="135.78700725964586" y1="546.8461538461538" y2="546.8461538461538"></line><line stroke="#6A6A6A" stroke-width="1.3" x1="-16.599999999999966" x2="135.78700725964586" y1="536.8461538461538" y2="536.8461538461538"></line></g></g><g><line stroke="#000000" stroke-width="1.6" x1="136.58700725964587" x2="136.58700725964587" y1="536.8461538461538" y2="576.8461538461538"></line><line stroke="#000000" stroke-width="1.6" x1="142.18700725964587" x2="142.18700725964587" y1="536.8461538461538" y2="576.8461538461538"></line></g><g><g><path d="M28.141 557.486C32.141 557.486 37.061 553.766 37.061 549.966C37.061 547.686 35.261 546.206 32.661 546.206C27.741 546.206 23.781 549.846 23.781 553.726C23.781 556.086 25.701 557.486 28.141 557.486Z"></path></g><line stroke="#000000" stroke-width="1.2" x1="24.380999999999993" x2="24.380999999999993" y1="553.6861538461538" y2="591.6861538461538"></line><text font-family="Alegreya" font-size="22" text-anchor="middle" x="30.420999999999992" y="616.8461538461538">fingern.</text></g><g><path d="M63.955 563.286C62.435 561.446 61.195 559.966 61.195 557.726C61.195 557.566 61.235 557.366 61.235 557.206C61.395 554.886 62.835 552.966 63.875 551.326C63.995 551.126 64.035 550.926 64.035 550.726C64.035 550.326 63.875 549.966 63.875 549.966C63.875 549.966 57.955 542.926 57.275 542.246C57.075 542.046 56.795 541.926 56.555 541.926C56.155 541.926 55.755 542.206 55.755 542.766C55.755 542.966 55.795 543.166 55.915 543.406C56.075 543.846 58.355 545.886 58.355 548.766C58.355 550.246 57.755 551.966 55.955 553.846C55.555 554.246 55.395 554.686 55.395 555.006C55.395 555.566 55.795 555.966 55.795 555.966L57.755 558.366C58.395 559.166 58.955 559.926 59.475 560.766C59.555 560.926 59.715 561.126 59.715 561.326C59.715 561.366 59.715 561.446 59.675 561.486C59.595 561.646 59.435 561.686 59.235 561.686C58.995 561.686 58.755 561.606 58.595 561.566C58.395 561.566 58.155 561.446 57.955 561.446C56.235 561.446 54.675 563.166 54.675 565.286C54.675 567.286 56.395 569.246 59.315 571.486C59.635 571.726 60.035 571.846 60.355 571.846C60.635 571.846 60.915 571.766 60.955 571.606C60.995 571.486 61.035 571.406 61.035 571.326C61.035 570.966 60.715 570.646 60.395 570.366C59.875 570.366 59.435 569.286 59.355 568.926C59.235 568.606 59.195 568.246 59.195 567.886C59.195 566.646 59.795 565.246 61.075 565.006C61.275 564.966 61.475 564.966 61.715 564.966C62.875 564.966 64.195 565.406 64.835 565.646C64.875 565.646 64.915 565.686 64.955 565.686C65.075 565.726 65.155 565.726 65.235 565.726C65.355 565.726 65.435 565.686 65.435 565.566C65.435 565.086 64.395 563.766 63.955 563.286Z"></path></g><g><path d="M96.768 555.886L96.768 552.206C96.768 551.606 96.288 551.166 95.728 551.166L86.528 551.166C85.928 551.166 85.488 551.606 85.488 552.206L85.488 555.886C85.488 556.446 85.928 556.926 86.528 556.926L95.728 556.926C96.288 556.926 96.768 556.446 96.768 555.886Z"></path></g></g><g transform="translate(775.4538170879041)"><g><g><line stroke="#6A6A6A" stroke-width="1.3" x1="-22.200000000000045" x2="145.39532799105223" y1="576.8461538461538" y2="576.8461538461538"></line><line stroke="#6A6A6A" stroke-width="1.3" x1="-22.200000000000045" x2="145.39532799105223" y1="566.8461538461538" y2="566.8461538461538"></line><line stroke="#6A6A6A" stroke-width="1.3" x1="-22.200000000000045" x2="145.39532799105223" y1="556.8461538461538" y2="556.8461538461538"></line><line stroke="#6A6A6A" stroke-width="1.3" x1="-22.200000000000045" x2="145.39532799105223" y1="546.8461538461538" y2="546.8461538461538"></line><line stroke="#6A6A6A" stroke-width="1.3" x1="-22.200000000000045" x2="145.39532799105223" y1="536.8461538461538" y2="536.8461538461538"></line></g></g><g><line stroke="black" stroke-width="1.6" x1="146.19532799105224" x2="146.19532799105224" y1="536.8461538461538" y2="576.8461538461538"></line></g><g><g><path d="M4.360 557.486C8.360 557.486 13.280 553.766 13.280 549.966C13.280 547.686 11.480 546.206 8.880 546.206C3.960 546.206 0 549.846 0 553.726C0 556.086 1.920 557.486 4.360 557.486Z"></path></g><line stroke="#000000" stroke-width="1.2" x1="0.6" x2="0.6" y1="553.6861538461538" y2="591.6861538461538"></line><text font-family="Alegreya" font-size="22" text-anchor="middle" x="6.640000000000001" y="616.8461538461538">f</text></g><g><g><path d="M35.214 557.486C39.214 557.486 44.134 553.766 44.134 549.966C44.134 547.686 42.334 546.206 39.734 546.206C34.814 546.206 30.854 549.846 30.854 553.726C30.854 556.086 32.774 557.486 35.214 557.486Z"></path></g><line stroke="#000000" stroke-width="1.2" x1="31.45358199776306" x2="31.45358199776306" y1="553.6861538461538" y2="591.6861538461538"></line><text font-family="Alegreya" font-size="22" text-anchor="middle" x="37.49358199776306" y="616.8461538461538">ppp</text></g><g><g><path d="M66.067 557.486C70.067 557.486 74.987 553.766 74.987 549.966C74.987 547.686 73.187 546.206 70.587 546.206C65.667 546.206 61.707 549.846 61.707 553.726C61.707 556.086 63.627 557.486 66.067 557.486Z"></path></g><line stroke="#000000" stroke-width="1.2" x1="62.30716399552612" x2="62.30716399552612" y1="553.6861538461538" y2="591.6861538461538"></line><text font-family="Alegreya" font-size="22" text-anchor="middle" x="68.34716399552612" y="616.8461538461538">sfp</text></g><g><g><path d="M118.902 557.486C122.902 557.486 127.822 553.766 127.822 549.966C127.822 547.686 126.022 546.206 123.422 546.206C118.502 546.206 114.542 549.846 114.542 553.726C114.542 556.086 116.462 557.486 118.902 557.486Z"></path></g><line stroke="#000000" stroke-width="1.2" x1="115.14174599328916" x2="115.14174599328916" y1="553.6861538461538" y2="591.6861538461538"></line><text font-family="Alegreya" font-size="22" text-anchor="middle" x="121.18174599328917" y="616.8461538461538">Oth.dyn.</text></g></g><g transform="translate(937.4491450789563)"><g><g><line stroke="#6A6A6A" stroke-width="1.3" x1="-16.600000000000023" x2="227.15200725964576" y1="576.8461538461538" y2="576.8461538461538"></line><line stroke="#6A6A6A" stroke-width="1.3" x1="-16.600000000000023" x2="227.15200725964576" y1="566.8461538461538" y2="566.8461538461538"></line><line stroke="#6A6A6A" stroke-width="1.3" x1="-16.600000000000023" x2="227.15200725964576" y1="556.8461538461538" y2="556.8461538461538"></line><line stroke="#6A6A6A" stroke-width="1.3" x1="-16.600000000000023" x2="227.15200725964576" y1="546.8461538461538" y2="546.8461538461538"></line><line stroke="#6A6A6A" stroke-width="1.3" x1="-16.600000000000023" x2="227.15200725964576" y1="536.8461538461538" y2="536.8461538461538"></line></g></g><g><line stroke="#000000" stroke-width="1.6" x1="217.35200725964583" x2="217.35200725964583" y1="536.8461538461538" y2="576.8461538461538"></line><line stroke="#000000" stroke-width="5" x1="224.6520072596458" x2="224.6520072596458" y1="536.8461538461538" y2="576.8461538461538"></line></g><g><g><path d="M38.239 572.486C42.239 572.486 47.159 568.766 47.159 564.966C47.159 562.686 45.359 561.206 42.759 561.206C37.839 561.206 33.879 564.846 33.879 568.726C33.879 571.086 35.799 572.486 38.239 572.486Z"></path></g><line stroke="#000000" stroke-width="1.2" x1="46.55899999999999" x2="46.55899999999999" y1="565.0061538461538" y2="530.0061538461538"></line><g><path d="M41.699 513.166C41.699 512.246 40.939 511.486 40.019 511.486C39.099 511.486 38.339 512.246 38.339 513.166C38.339 514.086 39.099 514.846 40.019 514.846C40.939 514.846 41.699 514.086 41.699 513.166Z"></path><path d="M47.699 514.206L43.379 504.966C43.259 504.806 43.139 504.726 42.979 504.726C42.699 504.726 42.579 504.966 42.579 504.966C42.579 504.966 38.339 514.206 38.339 514.206C38.299 514.286 38.299 514.326 38.299 514.406C38.299 514.606 38.379 514.806 38.579 514.846C38.619 514.886 38.739 514.886 38.779 514.886C38.939 514.886 39.139 514.806 39.219 514.606C39.219 514.606 41.379 509.846 41.459 509.686C41.499 509.606 41.539 509.566 41.619 509.566C41.699 509.566 41.779 509.606 41.859 509.686C41.899 509.846 44.139 514.606 44.139 514.606C44.259 514.766 44.419 514.846 44.579 514.846L47.299 514.846C47.579 514.806 47.739 514.646 47.739 514.406C47.739 514.326 47.739 514.246 47.699 514.206Z"></path></g><text font-family="Alegreya" font-size="22" text-anchor="middle" x="40.51899999999999" y="616.8461538461538">both above</text></g><g><g><path d="M139.760 572.486C143.760 572.486 148.680 568.766 148.680 564.966C148.680 562.686 146.880 561.206 144.280 561.206C139.360 561.206 135.400 564.846 135.400 568.726C135.400 571.086 137.320 572.486 139.760 572.486Z"></path></g><line stroke="#000000" stroke-width="1.2" x1="148.07958199776303" x2="148.07958199776303" y1="565.0061538461538" y2="530.0061538461538"></line><g><path d="M135.560 590.566C135.680 590.526 147.800 586.446 147.800 586.446C148.320 586.326 148.320 586.046 148.320 585.726C148.320 585.406 148.320 585.166 147.800 585.006L135.800 580.926C135.640 580.886 135.560 580.846 135.440 580.846C135.080 580.846 134.960 581.086 134.840 581.406C134.800 581.566 134.760 581.686 134.760 581.806C134.760 582.006 134.880 582.206 135.320 582.366C135.320 582.366 143.960 585.286 144.360 585.446C144.560 585.486 144.640 585.606 144.640 585.726C144.640 585.846 144.560 585.926 144.320 586.006C143.880 586.126 135.320 589.046 135.320 589.046C134.880 589.246 134.760 589.446 134.760 589.646C134.760 589.766 134.800 589.886 134.840 590.006C134.960 590.286 135.120 590.606 135.400 590.606C135.440 590.606 135.520 590.606 135.560 590.566Z"></path><path d="M138.120 513.166C138.120 512.246 137.360 511.486 136.440 511.486C135.520 511.486 134.760 512.246 134.760 513.166C134.760 514.086 135.520 514.846 136.440 514.846C137.360 514.846 138.120 514.086 138.120 513.166Z"></path><path d="M147.320 582.766C148.240 582.766 148.280 582.326 148.280 581.806C148.280 581.286 148.280 580.846 147.320 580.846L135.680 580.846C134.720 580.846 134.720 581.286 134.720 581.806C134.720 582.326 134.720 582.766 135.680 582.766Z"></path></g><text font-family="Alegreya" font-size="22" text-anchor="middle" x="142.03958199776304" y="616.8461538461538">ab./bel./bel.</text></g><g><path d="M177.533 555.886L177.533 552.206C177.533 551.606 177.053 551.166 176.493 551.166L167.293 551.166C166.693 551.166 166.253 551.606 166.253 552.206L166.253 555.886C166.253 556.446 166.693 556.926 167.293 556.926L176.493 556.926C177.053 556.926 177.533 556.446 177.533 555.886Z"></path></g></g></svg>