<?xml version="1.0" encoding="UTF-8" standalone="no"?><svg xmlns="http://www.w3.org/2000/svg" class="" height="279.4mm" viewBox="0 0 1328.6153846153845 1719.3846153846152" width="215.9mm"><g><g><g><line stroke="#6A6A6A" stroke-width="1.3" x1="93.84615384615385" x2="1229.1452424279528" y1="183.8461538461538" y2="183.8461538461538"></line><line stroke="#6A6A6A" stroke-width="1.3" x1="93.84615384615385" x2="1229.1452424279528" y1="173.8461538461538" y2="173.8461538461538"></line><line stroke="#6A6A6A" stroke-width="1.3" x1="93.84615384615385" x2="1229.1452424279528" y1="163.8461538461538" y2="163.8461538461538"></line><line stroke="#6A6A6A" stroke-width="1.3" x1="93.84615384615385" x2="1229.1452424279528" y1="153.8461538461538" y2="153.8461538461538"></line><line stroke="#6A6A6A" stroke-width="1.3" x1="93.84615384615385" x2="1229.1452424279528" y1="143.8461538461538" y2="143.8461538461538"></line></g><g><path d="M119.046 129.926C118.486 129.926 117.246 130.966 116.446 131.846C113.486 135.126 112.526 140.126 112.526 144.286C112.526 146.606 112.806 149.206 113.086 150.846C113.166 151.326 113.206 151.406 112.726 151.806C110.166 153.926 107.406 156.366 105.326 158.926C102.566 162.366 100.846 166.086 100.846 170.366C100.846 177.326 105.606 183.926 115.406 183.926C116.326 183.926 117.366 183.846 118.166 183.686C118.606 183.606 118.686 183.566 118.766 184.046C119.246 186.726 119.846 190.206 119.846 192.086C119.846 198.006 115.846 198.726 113.486 198.726C111.326 198.726 110.286 198.086 110.286 197.566C110.286 197.126 110.646 197.166 111.566 196.886C112.806 196.526 114.246 195.446 114.246 193.126C114.246 190.926 112.846 189.046 110.406 189.046C107.726 189.046 106.126 191.166 106.126 193.646C106.126 196.246 107.686 200.166 113.726 200.166C116.406 200.166 121.606 198.966 121.606 192.166C121.606 189.886 120.886 186.086 120.446 183.606C120.366 183.126 120.406 183.166 120.966 182.926C125.006 181.326 127.686 177.926 127.686 173.406C127.686 168.286 123.926 163.766 118.046 163.766C116.926 163.766 117.046 163.966 116.886 163.046L115.886 157.246C115.806 156.766 115.886 156.726 116.126 156.486C116.766 155.886 117.606 155.046 118.366 154.206C121.726 150.526 123.726 145.766 123.726 141.246C123.726 137.766 122.766 134.326 121.126 131.926C120.526 131.046 119.486 129.926 119.046 129.926ZM113.886 158.086C114.286 157.766 114.366 157.806 114.446 158.246L115.286 163.366C115.406 164.126 115.406 164.086 114.686 164.326C111.166 165.526 108.886 168.686 108.886 172.086C108.886 175.686 110.766 178.246 113.486 179.166C113.806 179.286 114.286 179.406 114.566 179.406C114.886 179.406 115.046 179.206 115.046 178.966C115.046 178.686 114.726 178.566 114.446 178.446C112.766 177.726 111.566 176.006 111.566 174.166C111.566 171.886 113.126 170.166 115.566 169.486C116.206 169.326 116.286 169.366 116.366 169.806L118.366 181.726C118.446 182.166 118.406 182.166 117.806 182.286C117.166 182.406 116.366 182.486 115.566 182.486C108.566 182.486 104.046 178.606 104.046 173.046C104.046 170.686 104.446 167.526 107.766 163.766C110.166 161.086 112.006 159.606 113.886 158.086ZM118.486 169.166C121.726 169.446 124.406 172.166 124.406 175.686C124.406 178.206 122.886 180.246 120.646 181.366C120.166 181.606 120.086 181.606 120.006 181.126L118.046 169.726C117.966 169.246 118.006 169.126 118.486 169.166ZM119.646 136.126C120.966 136.126 122.046 137.206 122.046 139.406C122.046 142.166 120.726 144.726 117.606 147.846C116.966 148.486 116.006 149.406 115.086 150.206C114.806 150.446 114.646 150.406 114.566 149.886C114.406 148.846 114.326 147.486 114.326 146.206C114.326 139.966 117.206 136.126 119.646 136.126Z"></path></g><g></g><g><g><path d="M141.466 153.326C141.466 153.326 141.306 153.566 141.306 153.846C141.306 154.046 141.426 154.286 141.746 154.406C141.906 154.446 141.986 154.486 142.106 154.486C142.506 154.486 142.666 154.126 142.666 154.126C142.666 154.126 144.386 151.366 144.826 150.606C144.986 150.326 145.146 150.206 145.226 150.206C145.386 150.206 145.466 150.526 145.466 150.766L145.466 161.086C145.466 162.006 144.546 162.606 143.706 162.606C143.426 162.606 143.026 162.726 143.026 163.206C143.026 163.646 143.386 163.846 143.906 163.846L152.426 163.846C153.066 163.846 153.066 163.206 153.066 163.206C153.066 163.206 153.066 162.606 152.466 162.606C151.906 162.606 151.186 161.886 151.186 161.206C151.186 161.206 151.186 145.366 151.186 144.726C151.186 144.086 150.946 143.846 150.386 143.806C149.826 143.806 148.826 143.966 148.306 143.966C147.546 143.966 146.826 143.926 146.226 143.846C146.146 143.846 146.066 143.806 146.026 143.806C145.586 143.806 145.466 144.206 145.306 144.566Z"></path><path d="M171.026 156.806L168.106 156.806L168.106 148.246C168.106 147.926 168.066 147.566 167.626 147.566C167.266 147.566 167.066 147.646 166.826 147.926L163.026 152.526C162.866 152.726 162.666 152.966 162.666 153.446C162.666 153.446 162.666 155.046 162.666 156.806L157.266 156.806C160.466 154.086 166.866 145.006 166.986 144.566C166.986 144.486 167.026 144.446 167.026 144.366C167.026 144.046 166.746 143.806 166.426 143.806C166.066 143.806 164.426 143.886 163.706 143.886C162.986 143.886 161.186 143.806 160.866 143.806C160.506 143.806 159.946 143.926 159.946 144.566C159.946 149.526 156.026 155.086 154.826 156.766L154.586 157.086C154.586 157.126 154.546 157.166 154.546 157.206C154.466 157.366 154.426 157.526 154.426 157.646C154.426 158.046 154.746 158.326 155.226 158.326L162.666 158.326L162.666 160.846C162.666 161.926 161.786 162.246 161.066 162.246C160.426 162.246 160.146 162.606 160.146 163.006C160.146 163.406 160.306 163.846 160.906 163.846C161.546 163.846 169.426 163.846 169.426 163.846C169.826 163.846 170.226 163.566 170.226 163.006C170.226 162.446 169.746 162.206 169.346 162.206C168.946 162.206 168.106 161.966 168.106 160.686L168.106 158.326C169.826 158.326 171.026 158.326 171.026 158.326C171.426 158.326 171.626 158.046 171.626 157.566C171.626 157.086 171.466 156.806 171.026 156.806Z"></path></g><g><path d="M166.026 176.806L163.106 176.806L163.106 168.246C163.106 167.926 163.066 167.566 162.626 167.566C162.266 167.566 162.066 167.646 161.826 167.926L158.026 172.526C157.866 172.726 157.666 172.966 157.666 173.446C157.666 173.446 157.666 175.046 157.666 176.806L152.266 176.806C155.466 174.086 161.866 165.006 161.986 164.566C161.986 164.486 162.026 164.446 162.026 164.366C162.026 164.046 161.746 163.806 161.426 163.806C161.066 163.806 159.426 163.886 158.706 163.886C157.986 163.886 156.186 163.806 155.866 163.806C155.506 163.806 154.946 163.926 154.946 164.566C154.946 169.526 151.026 175.086 149.826 176.766L149.586 177.086C149.586 177.126 149.546 177.166 149.546 177.206C149.466 177.366 149.426 177.526 149.426 177.646C149.426 178.046 149.746 178.326 150.226 178.326L157.666 178.326L157.666 180.846C157.666 181.926 156.786 182.246 156.066 182.246C155.426 182.246 155.146 182.606 155.146 183.006C155.146 183.406 155.306 183.846 155.906 183.846C156.546 183.846 164.426 183.846 164.426 183.846C164.826 183.846 165.226 183.566 165.226 183.006C165.226 182.446 164.746 182.206 164.346 182.206C163.946 182.206 163.106 181.966 163.106 180.686L163.106 178.326C164.826 178.326 166.026 178.326 166.026 178.326C166.426 178.326 166.626 178.046 166.626 177.566C166.626 177.086 166.466 176.806 166.026 176.806Z"></path></g></g></g><g><line stroke="#000000" stroke-width="1.6" x1="1219.3452424279528" x2="1219.3452424279528" y1="143.8461538461538" y2="183.8461538461538"></line><line stroke="#000000" stroke-width="5" x1="1226.6452424279528" x2="1226.6452424279528" y1="143.8461538461538" y2="183.8461538461538"></line></g><g><g><path d="M187.206 199.486C191.206 199.486 196.126 195.766 196.126 191.966C196.126 189.686 194.326 188.206 191.726 188.206C186.806 188.206 182.846 191.846 182.846 195.726C182.846 198.086 184.766 199.486 187.206 199.486Z"></path></g><line stroke="#000000" stroke-width="1.2" x1="195.52615384615387" x2="195.52615384615387" y1="192.0061538461538" y2="157.0061538461538"></line><line stroke="#000000" stroke-width="2.2" x1="179.64615384615388" x2="201.56615384615387" y1="193.8461538461538" y2="193.8461538461538"></line></g><g><g><path d="M230.031 194.486C234.031 194.486 238.951 190.766 238.951 186.966C238.951 184.686 237.151 183.206 234.551 183.206C229.631 183.206 225.671 186.846 225.671 190.726C225.671 193.086 227.591 194.486 230.031 194.486Z"></path></g><line stroke="#000000" stroke-width="1.2" x1="238.35138992618187" x2="238.35138992618187" y1="187.0061538461538" y2="149.0061538461538"></line></g><g><g><path d="M272.857 189.486C276.857 189.486 281.777 185.766 281.777 181.966C281.777 179.686 279.977 178.206 277.377 178.206C272.457 178.206 268.497 181.846 268.497 185.726C268.497 188.086 270.417 189.486 272.857 189.486Z"></path></g><line stroke="#000000" stroke-width="1.2" x1="281.1766260062098" x2="281.1766260062098" y1="182.0061538461538" y2="147.0061538461538"></line></g><g><g><path d="M315.682 184.486C319.682 184.486 324.602 180.766 324.602 176.966C324.602 174.686 322.802 173.206 320.202 173.206C315.282 173.206 311.322 176.846 311.322 180.726C311.322 183.086 313.242 184.486 315.682 184.486Z"></path></g><line stroke="#000000" stroke-width="1.2" x1="324.0018620862378" x2="324.0018620862378" y1="177.0061538461538" y2="139.0061538461538"></line></g><g><g><path d="M358.507 179.486C362.507 179.486 367.427 175.766 367.427 171.966C367.427 169.686 365.627 168.206 363.027 168.206C358.107 168.206 354.147 171.846 354.147 175.726C354.147 178.086 356.067 179.486 358.507 179.486Z"></path></g><line stroke="#000000" stroke-width="1.2" x1="366.8270981662658" x2="366.8270981662658" y1="172.0061538461538" y2="137.0061538461538"></line></g><g><g><path d="M401.332 174.486C405.332 174.486 410.252 170.766 410.252 166.966C410.252 164.686 408.452 163.206 405.852 163.206C400.932 163.206 396.972 166.846 396.972 170.726C396.972 173.086 398.892 174.486 401.332 174.486Z"></path></g><line stroke="#000000" stroke-width="1.2" x1="409.6523342462938" x2="409.6523342462938" y1="167.0061538461538" y2="129.0061538461538"></line></g><g><g><path d="M444.158 169.486C448.158 169.486 453.078 165.766 453.078 161.966C453.078 159.686 451.278 158.206 448.678 158.206C443.758 158.206 439.798 161.846 439.798 165.726C439.798 168.086 441.718 169.486 444.158 169.486Z"></path></g><line stroke="#000000" stroke-width="1.2" x1="452.47757032632177" x2="452.47757032632177" y1="162.0061538461538" y2="127.00615384615381"></line></g><g><g><path d="M486.983 164.486C490.983 164.486 495.903 160.766 495.903 156.966C495.903 154.686 494.103 153.206 491.503 153.206C486.583 153.206 482.623 156.846 482.623 160.726C482.623 163.086 484.543 164.486 486.983 164.486Z"></path></g><line stroke="#000000" stroke-width="1.2" x1="483.2228064063498" x2="483.2228064063498" y1="160.68615384615381" y2="198.68615384615381"></line></g><g><g><path d="M529.808 159.486C533.808 159.486 538.728 155.766 538.728 151.966C538.728 149.686 536.928 148.206 534.328 148.206C529.408 148.206 525.448 151.846 525.448 155.726C525.448 158.086 527.368 159.486 529.808 159.486Z"></path></g><line stroke="#000000" stroke-width="1.2" x1="526.0480424863777" x2="526.0480424863777" y1="155.68615384615381" y2="190.68615384615381"></line></g><g><g><path d="M572.633 154.486C576.633 154.486 581.553 150.766 581.553 146.966C581.553 144.686 579.753 143.206 577.153 143.206C572.233 143.206 568.273 146.846 568.273 150.726C568.273 153.086 570.193 154.486 572.633 154.486Z"></path></g><line stroke="#000000" stroke-width="1.2" x1="568.8732785664057" x2="568.8732785664057" y1="150.68615384615381" y2="188.68615384615381"></line></g><g><g><path d="M609.646 149.486C613.646 149.486 618.566 145.766 618.566 141.966C618.566 139.686 616.766 138.206 614.166 138.206C609.246 138.206 605.286 141.846 605.286 145.726C605.286 148.086 607.206 149.486 609.646 149.486Z"></path></g><line stroke="#000000" stroke-width="1.2" x1="605.8855235224551" x2="605.8855235224551" y1="145.68615384615381" y2="180.68615384615381"></line></g><g><g><path d="M646.658 144.486C650.658 144.486 655.578 140.766 655.578 136.966C655.578 134.686 653.778 133.206 651.178 133.206C646.258 133.206 642.298 136.846 642.298 140.726C642.298 143.086 644.218 144.486 646.658 144.486Z"></path></g><line stroke="#000000" stroke-width="1.2" x1="642.8977684785045" x2="642.8977684785045" y1="140.68615384615381" y2="178.68615384615381"></line></g><g><g><path d="M683.670 139.486C687.670 139.486 692.590 135.766 692.590 131.966C692.590 129.686 690.790 128.206 688.190 128.206C683.270 128.206 679.310 131.846 679.310 135.726C679.310 138.086 681.230 139.486 683.670 139.486Z"></path></g><line stroke="#000000" stroke-width="1.2" x1="679.9100134345539" x2="679.9100134345539" y1="135.68615384615381" y2="170.68615384615381"></line><line stroke="#000000" stroke-width="2.2" x1="676.1100134345538" x2="698.0300134345538" y1="133.8461538461538" y2="133.8461538461538"></line></g><g><g><path d="M720.682 134.486C724.682 134.486 729.602 130.766 729.602 126.966C729.602 124.686 727.802 123.206 725.202 123.206C720.282 123.206 716.322 126.846 716.322 130.726C716.322 133.086 718.242 134.486 720.682 134.486Z"></path></g><line stroke="#000000" stroke-width="1.2" x1="716.9222583906032" x2="716.9222583906032" y1="130.68615384615381" y2="168.68615384615381"></line><line stroke="#000000" stroke-width="2.2" x1="713.1222583906032" x2="735.0422583906031" y1="133.8461538461538" y2="133.8461538461538"></line></g><g><g><path d="M743.689 129.486C747.689 129.486 752.609 125.766 752.609 121.966C752.609 119.686 750.809 118.206 748.209 118.206C743.289 118.206 739.329 121.846 739.329 125.726C739.329 128.086 741.249 129.486 743.689 129.486Z"></path></g><line stroke="#000000" stroke-width="1.2" x1="739.9285613918196" x2="739.9285613918196" y1="125.68615384615381" y2="168.68615384615381"></line><line stroke="#000000" stroke-width="2.2" x1="736.1285613918195" x2="758.0485613918195" y1="133.8461538461538" y2="133.8461538461538"></line><line stroke="#000000" stroke-width="2.2" x1="736.1285613918195" x2="758.0485613918195" y1="123.84615384615381" y2="123.84615384615381"></line></g><g><g><path d="M766.695 129.486C770.695 129.486 775.615 125.766 775.615 121.966C775.615 119.686 773.815 118.206 771.215 118.206C766.295 118.206 762.335 121.846 762.335 125.726C762.335 128.086 764.255 129.486 766.695 129.486Z"></path></g><line stroke="#000000" stroke-width="1.2" x1="762.9348643930359" x2="762.9348643930359" y1="125.68615384615381" y2="168.68615384615381"></line><line stroke="#000000" stroke-width="2.2" x1="759.1348643930359" x2="781.0548643930358" y1="133.8461538461538" y2="133.8461538461538"></line><line stroke="#000000" stroke-width="2.2" x1="759.1348643930359" x2="781.0548643930358" y1="123.84615384615381" y2="123.84615384615381"></line></g><g><g><path d="M789.701 134.486C793.701 134.486 798.621 130.766 798.621 126.966C798.621 124.686 796.821 123.206 794.221 123.206C789.301 123.206 785.341 126.846 785.341 130.726C785.341 133.086 787.261 134.486 789.701 134.486Z"></path></g><line stroke="#000000" stroke-width="1.2" x1="785.9411673942523" x2="785.9411673942523" y1="130.68615384615381" y2="168.68615384615381"></line><line stroke="#000000" stroke-width="2.2" x1="782.1411673942522" x2="804.0611673942522" y1="133.8461538461538" y2="133.8461538461538"></line></g><g><g><path d="M812.707 139.486C816.707 139.486 821.627 135.766 821.627 131.966C821.627 129.686 819.827 128.206 817.227 128.206C812.307 128.206 808.347 131.846 808.347 135.726C808.347 138.086 810.267 139.486 812.707 139.486Z"></path></g><line stroke="#000000" stroke-width="1.2" x1="808.9474703954685" x2="808.9474703954685" y1="135.68615384615381" y2="170.68615384615381"></line><line stroke="#000000" stroke-width="2.2" x1="805.1474703954684" x2="827.0674703954684" y1="133.8461538461538" y2="133.8461538461538"></line></g><g><g><path d="M846.605 144.486C850.605 144.486 855.525 140.766 855.525 136.966C855.525 134.686 853.725 133.206 851.125 133.206C846.205 133.206 842.245 136.846 842.245 140.726C842.245 143.086 844.165 144.486 846.605 144.486Z"></path></g><line stroke="#000000" stroke-width="1.2" x1="842.8449000070849" x2="842.8449000070849" y1="140.68615384615381" y2="178.68615384615381"></line></g><g><g><path d="M880.502 149.486C884.502 149.486 889.422 145.766 889.422 141.966C889.422 139.686 887.622 138.206 885.022 138.206C880.102 138.206 876.142 141.846 876.142 145.726C876.142 148.086 878.062 149.486 880.502 149.486Z"></path></g><line stroke="#000000" stroke-width="1.2" x1="876.7423296187013" x2="876.7423296187013" y1="145.68615384615381" y2="180.68615384615381"></line></g><g><g><path d="M914.400 154.486C918.400 154.486 923.320 150.766 923.320 146.966C923.320 144.686 921.520 143.206 918.920 143.206C914.000 143.206 910.040 146.846 910.040 150.726C910.040 153.086 911.960 154.486 914.400 154.486Z"></path></g><line stroke="#000000" stroke-width="1.2" x1="910.6397592303176" x2="910.6397592303176" y1="150.68615384615381" y2="188.68615384615381"></line></g><g><g><path d="M948.297 159.486C952.297 159.486 957.217 155.766 957.217 151.966C957.217 149.686 955.417 148.206 952.817 148.206C947.897 148.206 943.937 151.846 943.937 155.726C943.937 158.086 945.857 159.486 948.297 159.486Z"></path></g><line stroke="#000000" stroke-width="1.2" x1="944.537188841934" x2="944.537188841934" y1="155.68615384615381" y2="190.68615384615381"></line></g><g><g><path d="M982.195 164.486C986.195 164.486 991.115 160.766 991.115 156.966C991.115 154.686 989.315 153.206 986.715 153.206C981.795 153.206 977.835 156.846 977.835 160.726C977.835 163.086 979.755 164.486 982.195 164.486Z"></path></g><line stroke="#000000" stroke-width="1.2" x1="978.4346184535505" x2="978.4346184535505" y1="160.68615384615381" y2="198.68615384615381"></line></g><g><g><path d="M1016.092 169.486C1020.092 169.486 1025.012 165.766 1025.012 161.966C1025.012 159.686 1023.212 158.206 1020.612 158.206C1015.692 158.206 1011.732 161.846 1011.732 165.726C1011.732 168.086 1013.652 169.486 1016.092 169.486Z"></path></g><line stroke="#000000" stroke-width="1.2" x1="1012.3320480651668" x2="1012.3320480651668" y1="165.68615384615381" y2="200.68615384615381"></line></g><g><g><path d="M1049.989 174.486C1053.989 174.486 1058.909 170.766 1058.909 166.966C1058.909 164.686 1057.109 163.206 1054.509 163.206C1049.589 163.206 1045.629 166.846 1045.629 170.726C1045.629 173.086 1047.549 174.486 1049.989 174.486Z"></path></g><line stroke="#000000" stroke-width="1.2" x1="1058.3094776767832" x2="1058.3094776767832" y1="167.0061538461538" y2="129.0061538461538"></line></g><g><g><path d="M1078.809 179.486C1082.809 179.486 1087.729 175.766 1087.729 171.966C1087.729 169.686 1085.929 168.206 1083.329 168.206C1078.409 168.206 1074.449 171.846 1074.449 175.726C1074.449 178.086 1076.369 179.486 1078.809 179.486Z"></path></g><line stroke="#000000" stroke-width="1.2" x1="1087.1287718019782" x2="1087.1287718019782" y1="172.0061538461538" y2="137.0061538461538"></line></g><g><g><path d="M1107.628 184.486C1111.628 184.486 1116.548 180.766 1116.548 176.966C1116.548 174.686 1114.748 173.206 1112.148 173.206C1107.228 173.206 1103.268 176.846 1103.268 180.726C1103.268 183.086 1105.188 184.486 1107.628 184.486Z"></path></g><line stroke="#000000" stroke-width="1.2" x1="1115.948065927173" x2="1115.948065927173" y1="177.0061538461538" y2="139.0061538461538"></line></g><g><g><path d="M1136.447 189.486C1140.447 189.486 1145.367 185.766 1145.367 181.966C1145.367 179.686 1143.567 178.206 1140.967 178.206C1136.047 178.206 1132.087 181.846 1132.087 185.726C1132.087 188.086 1134.007 189.486 1136.447 189.486Z"></path></g><line stroke="#000000" stroke-width="1.2" x1="1144.7673600523678" x2="1144.7673600523678" y1="182.0061538461538" y2="147.0061538461538"></line></g><g><g><path d="M1165.267 194.486C1169.267 194.486 1174.187 190.766 1174.187 186.966C1174.187 184.686 1172.387 183.206 1169.787 183.206C1164.867 183.206 1160.907 186.846 1160.907 190.726C1160.907 193.086 1162.827 194.486 1165.267 194.486Z"></path></g><line stroke="#000000" stroke-width="1.2" x1="1173.5866541775629" x2="1173.5866541775629" y1="187.0061538461538" y2="149.0061538461538"></line></g><g><g><path d="M1194.086 199.486C1198.086 199.486 1203.006 195.766 1203.006 191.966C1203.006 189.686 1201.206 188.206 1198.606 188.206C1193.686 188.206 1189.726 191.846 1189.726 195.726C1189.726 198.086 1191.646 199.486 1194.086 199.486Z"></path></g><line stroke="#000000" stroke-width="1.2" x1="1202.405948302758" x2="1202.405948302758" y1="192.0061538461538" y2="157.0061538461538"></line><line stroke="#000000" stroke-width="2.2" x1="1186.5259483027578" x2="1208.4459483027579" y1="193.8461538461538" y2="193.8461538461538"></line></g></g></svg>