<?xml version="1.0" encoding="UTF-8" standalone="no"?><svg xmlns="http://www.w3.org/2000/svg" height="279.4mm" viewBox="0 0 1328.6153846153845 1719.3846153846152" width="215.9mm"><g transform="translate(163.84615384615387)"><g><g><line stroke="#6A6A6A" stroke-width="1.3" x1="0" x2="338.05344197616773" y1="216.3461538461538" y2="216.3461538461538"></line><line stroke="#6A6A6A" stroke-width="1.3" x1="0" x2="338.05344197616773" y1="206.3461538461538" y2="206.3461538461538"></line><line stroke="#6A6A6A" stroke-width="1.3" x1="0" x2="338.05344197616773" y1="196.3461538461538" y2="196.3461538461538"></line><line stroke="#6A6A6A" stroke-width="1.3" x1="0" x2="338.05344197616773" y1="186.3461538461538" y2="186.3461538461538"></line><line stroke="#6A6A6A" stroke-width="1.3" x1="0" x2="338.05344197616773" y1="176.3461538461538" y2="176.3461538461538"></line></g><g><path d="M25.200 162.426C24.640 162.426 23.400 163.466 22.600 164.346C19.640 167.626 18.680 172.626 18.680 176.786C18.680 179.106 18.960 181.706 19.240 183.346C19.320 183.826 19.360 183.906 18.880 184.306C16.320 186.426 13.560 188.866 11.480 191.426C8.720 194.866 7 198.586 7 202.866C7 209.826 11.760 216.426 21.560 216.426C22.480 216.426 23.520 216.346 24.320 216.186C24.760 216.106 24.840 216.066 24.920 216.546C25.400 219.226 26 222.706 26 224.586C26 230.506 22 231.226 19.640 231.226C17.480 231.226 16.440 230.586 16.440 230.066C16.440 229.626 16.800 229.666 17.720 229.386C18.960 229.026 20.400 227.946 20.400 225.626C20.400 223.426 19 221.546 16.560 221.546C13.880 221.546 12.280 223.666 12.280 226.146C12.280 228.746 13.840 232.666 19.880 232.666C22.560 232.666 27.760 231.466 27.760 224.666C27.760 222.386 27.040 218.586 26.600 216.106C26.520 215.626 26.560 215.666 27.120 215.426C31.160 213.826 33.840 210.426 33.840 205.906C33.840 200.786 30.080 196.266 24.200 196.266C23.080 196.266 23.200 196.466 23.040 195.546L22.040 189.746C21.960 189.266 22.040 189.226 22.280 188.986C22.920 188.386 23.760 187.546 24.520 186.706C27.880 183.026 29.880 178.266 29.880 173.746C29.880 170.266 28.920 166.826 27.280 164.426C26.680 163.546 25.640 162.426 25.200 162.426ZM20.040 190.586C20.440 190.266 20.520 190.306 20.600 190.746L21.440 195.866C21.560 196.626 21.560 196.586 20.840 196.826C17.320 198.026 15.040 201.186 15.040 204.586C15.040 208.186 16.920 210.746 19.640 211.666C19.960 211.786 20.440 211.906 20.720 211.906C21.040 211.906 21.200 211.706 21.200 211.466C21.200 211.186 20.880 211.066 20.600 210.946C18.920 210.226 17.720 208.506 17.720 206.666C17.720 204.386 19.280 202.666 21.720 201.986C22.360 201.826 22.440 201.866 22.520 202.306L24.520 214.226C24.600 214.666 24.560 214.666 23.960 214.786C23.320 214.906 22.520 214.986 21.720 214.986C14.720 214.986 10.200 211.106 10.200 205.546C10.200 203.186 10.600 200.026 13.920 196.266C16.320 193.586 18.160 192.106 20.040 190.586ZM24.640 201.666C27.880 201.946 30.560 204.666 30.560 208.186C30.560 210.706 29.040 212.746 26.800 213.866C26.320 214.106 26.240 214.106 26.160 213.626L24.200 202.226C24.120 201.746 24.160 201.626 24.640 201.666ZM25.800 168.626C27.120 168.626 28.200 169.706 28.200 171.906C28.200 174.666 26.880 177.226 23.760 180.346C23.120 180.986 22.160 181.906 21.240 182.706C20.960 182.946 20.800 182.906 20.720 182.386C20.560 181.346 20.480 179.986 20.480 178.706C20.480 172.466 23.360 168.626 25.800 168.626Z"></path></g><g></g><path d="M57.820 186.306C56.620 186.306 55.220 186.626 54.140 187.106C50.580 188.666 48.700 192.946 48.700 196.746C48.700 197.106 48.700 197.466 48.740 197.826C48.940 199.986 49.980 202.026 51.300 203.626C52.820 205.466 55.020 206.306 57.420 206.306C64.420 206.306 65.460 199.946 65.460 198.786C65.460 197.906 65.020 197.906 64.860 197.906C64.540 197.906 64.260 197.946 64.260 198.626C64.260 203.786 59.860 204.986 58.580 204.986C55.340 204.986 53.620 201.826 53.620 195.226C53.620 188.626 56.660 187.266 58.820 187.266C60.900 187.266 61.740 188.226 61.740 188.626C61.740 188.986 61.620 189.506 61.020 189.506C59.420 189.506 58.500 191.226 58.500 192.466C58.500 194.746 60.460 195.466 61.580 195.466C61.580 195.466 64.620 195.346 64.620 192.026C64.620 186.786 58.580 186.306 57.820 186.306Z"></path></g><g><line stroke="black" stroke-width="1.6" x1="338.85344197616774" x2="338.85344197616774" y1="176.3461538461538" y2="216.3461538461538"></line></g><g><g><line stroke="#6A6A6A" stroke-width="1.3" x1="0" x2="338.05344197616773" y1="316.3461538461538" y2="316.3461538461538"></line><line stroke="#6A6A6A" stroke-width="1.3" x1="0" x2="338.05344197616773" y1="306.3461538461538" y2="306.3461538461538"></line><line stroke="#6A6A6A" stroke-width="1.3" x1="0" x2="338.05344197616773" y1="296.3461538461538" y2="296.3461538461538"></line><line stroke="#6A6A6A" stroke-width="1.3" x1="0" x2="338.05344197616773" y1="286.3461538461538" y2="286.3461538461538"></line><line stroke="#6A6A6A" stroke-width="1.3" x1="0" x2="338.05344197616773" y1="276.3461538461538" y2="276.3461538461538"></line></g><g><path d="M25.200 262.426C24.640 262.426 23.400 263.466 22.600 264.346C19.640 267.626 18.680 272.626 18.680 276.786C18.680 279.106 18.960 281.706 19.240 283.346C19.320 283.826 19.360 283.906 18.880 284.306C16.320 286.426 13.560 288.866 11.480 291.426C8.720 294.866 7 298.586 7 302.866C7 309.826 11.760 316.426 21.560 316.426C22.480 316.426 23.520 316.346 24.320 316.186C24.760 316.106 24.840 316.066 24.920 316.546C25.400 319.226 26 322.706 26 324.586C26 330.506 22 331.226 19.640 331.226C17.480 331.226 16.440 330.586 16.440 330.066C16.440 329.626 16.800 329.666 17.720 329.386C18.960 329.026 20.400 327.946 20.400 325.626C20.400 323.426 19 321.546 16.560 321.546C13.880 321.546 12.280 323.666 12.280 326.146C12.280 328.746 13.840 332.666 19.880 332.666C22.560 332.666 27.760 331.466 27.760 324.666C27.760 322.386 27.040 318.586 26.600 316.106C26.520 315.626 26.560 315.666 27.120 315.426C31.160 313.826 33.840 310.426 33.840 305.906C33.840 300.786 30.080 296.266 24.200 296.266C23.080 296.266 23.200 296.466 23.040 295.546L22.040 289.746C21.960 289.266 22.040 289.226 22.280 288.986C22.920 288.386 23.760 287.546 24.520 286.706C27.880 283.026 29.880 278.266 29.880 273.746C29.880 270.266 28.920 266.826 27.280 264.426C26.680 263.546 25.640 262.426 25.200 262.426ZM20.040 290.586C20.440 290.266 20.520 290.306 20.600 290.746L21.440 295.866C21.560 296.626 21.560 296.586 20.840 296.826C17.320 298.026 15.040 301.186 15.040 304.586C15.040 308.186 16.920 310.746 19.640 311.666C19.960 311.786 20.440 311.906 20.720 311.906C21.040 311.906 21.200 311.706 21.200 311.466C21.200 311.186 20.880 311.066 20.600 310.946C18.920 310.226 17.720 308.506 17.720 306.666C17.720 304.386 19.280 302.666 21.720 301.986C22.360 301.826 22.440 301.866 22.520 302.306L24.520 314.226C24.600 314.666 24.560 314.666 23.960 314.786C23.320 314.906 22.520 314.986 21.720 314.986C14.720 314.986 10.200 311.106 10.200 305.546C10.200 303.186 10.600 300.026 13.920 296.266C16.320 293.586 18.160 292.106 20.040 290.586ZM24.640 301.666C27.880 301.946 30.560 304.666 30.560 308.186C30.560 310.706 29.040 312.746 26.800 313.866C26.320 314.106 26.240 314.106 26.160 313.626L24.200 302.226C24.120 301.746 24.160 301.626 24.640 301.666ZM25.800 268.626C27.120 268.626 28.200 269.706 28.200 271.906C28.200 274.666 26.880 277.226 23.760 280.346C23.120 280.986 22.160 281.906 21.240 282.706C20.960 282.946 20.800 282.906 20.720 282.386C20.560 281.346 20.480 279.986 20.480 278.706C20.480 272.466 23.360 268.626 25.800 268.626Z"></path></g><g></g><path d="M57.820 286.306C56.620 286.306 55.220 286.626 54.140 287.106C50.580 288.666 48.700 292.946 48.700 296.746C48.700 297.106 48.700 297.466 48.740 297.826C48.940 299.986 49.980 302.026 51.300 303.626C52.820 305.466 55.020 306.306 57.420 306.306C64.420 306.306 65.460 299.946 65.460 298.786C65.460 297.906 65.020 297.906 64.860 297.906C64.540 297.906 64.260 297.946 64.260 298.626C64.260 303.786 59.860 304.986 58.580 304.986C55.340 304.986 53.620 301.826 53.620 295.226C53.620 288.626 56.660 287.266 58.820 287.266C60.900 287.266 61.740 288.226 61.740 288.626C61.740 288.986 61.620 289.506 61.020 289.506C59.420 289.506 58.500 291.226 58.500 292.466C58.500 294.746 60.460 295.466 61.580 295.466C61.580 295.466 64.620 295.346 64.620 292.026C64.620 286.786 58.580 286.306 57.820 286.306Z"></path><g><line stroke="#000000" stroke-width="5" x1="-7.5" x2="-7.5" y1="170.8461538461538" y2="621.8461538461538"></line><path d="M-10 173.846L-5 173.846C1.400 172.646 7.120 169.686 8.720 163.006C8.760 162.846 8.760 162.726 8.760 162.606C8.760 162.286 8.640 162.126 8.440 162.046C8.080 162.046 7.640 162.326 7.440 162.606C7.040 163.046 2 168.326-5.640 168.886L-9.680 168.886C-9.920 168.886-10 168.926-10 169.166Z"></path><path d="M-10 623.526C-10 623.766-9.920 623.806-9.680 623.806L-5.640 623.806C2 624.366 7.040 629.646 7.440 630.086C7.640 630.366 8.080 630.646 8.440 630.646C8.640 630.566 8.760 630.406 8.760 630.086C8.760 629.966 8.760 629.846 8.720 629.686C7.120 623.006 1.400 620.046-5 618.846L-10 618.846Z"></path><line stroke="#000000" stroke-width="1.6" x1="0" x2="0" y1="175.8461538461538" y2="616.8461538461538"></line></g></g><g><line stroke="black" stroke-width="1.6" x1="338.85344197616774" x2="338.85344197616774" y1="175.8461538461538" y2="616.8461538461538"></line></g><g><g><line stroke="#6A6A6A" stroke-width="1.3" x1="0" x2="338.05344197616773" y1="416.3461538461538" y2="416.3461538461538"></line><line stroke="#6A6A6A" stroke-width="1.3" x1="0" x2="338.05344197616773" y1="406.3461538461538" y2="406.3461538461538"></line><line stroke="#6A6A6A" stroke-width="1.3" x1="0" x2="338.05344197616773" y1="396.3461538461538" y2="396.3461538461538"></line><line stroke="#6A6A6A" stroke-width="1.3" x1="0" x2="338.05344197616773" y1="386.3461538461538" y2="386.3461538461538"></line><line stroke="#6A6A6A" stroke-width="1.3" x1="0" x2="338.05344197616773" y1="376.3461538461538" y2="376.3461538461538"></line></g><g><path d="M25.200 362.426C24.640 362.426 23.400 363.466 22.600 364.346C19.640 367.626 18.680 372.626 18.680 376.786C18.680 379.106 18.960 381.706 19.240 383.346C19.320 383.826 19.360 383.906 18.880 384.306C16.320 386.426 13.560 388.866 11.480 391.426C8.720 394.866 7 398.586 7 402.866C7 409.826 11.760 416.426 21.560 416.426C22.480 416.426 23.520 416.346 24.320 416.186C24.760 416.106 24.840 416.066 24.920 416.546C25.400 419.226 26 422.706 26 424.586C26 430.506 22 431.226 19.640 431.226C17.480 431.226 16.440 430.586 16.440 430.066C16.440 429.626 16.800 429.666 17.720 429.386C18.960 429.026 20.400 427.946 20.400 425.626C20.400 423.426 19 421.546 16.560 421.546C13.880 421.546 12.280 423.666 12.280 426.146C12.280 428.746 13.840 432.666 19.880 432.666C22.560 432.666 27.760 431.466 27.760 424.666C27.760 422.386 27.040 418.586 26.600 416.106C26.520 415.626 26.560 415.666 27.120 415.426C31.160 413.826 33.840 410.426 33.840 405.906C33.840 400.786 30.080 396.266 24.200 396.266C23.080 396.266 23.200 396.466 23.040 395.546L22.040 389.746C21.960 389.266 22.040 389.226 22.280 388.986C22.920 388.386 23.760 387.546 24.520 386.706C27.880 383.026 29.880 378.266 29.880 373.746C29.880 370.266 28.920 366.826 27.280 364.426C26.680 363.546 25.640 362.426 25.200 362.426ZM20.040 390.586C20.440 390.266 20.520 390.306 20.600 390.746L21.440 395.866C21.560 396.626 21.560 396.586 20.840 396.826C17.320 398.026 15.040 401.186 15.040 404.586C15.040 408.186 16.920 410.746 19.640 411.666C19.960 411.786 20.440 411.906 20.720 411.906C21.040 411.906 21.200 411.706 21.200 411.466C21.200 411.186 20.880 411.066 20.600 410.946C18.920 410.226 17.720 408.506 17.720 406.666C17.720 404.386 19.280 402.666 21.720 401.986C22.360 401.826 22.440 401.866 22.520 402.306L24.520 414.226C24.600 414.666 24.560 414.666 23.960 414.786C23.320 414.906 22.520 414.986 21.720 414.986C14.720 414.986 10.200 411.106 10.200 405.546C10.200 403.186 10.600 400.026 13.920 396.266C16.320 393.586 18.160 392.106 20.040 390.586ZM24.640 401.666C27.880 401.946 30.560 404.666 30.560 408.186C30.560 410.706 29.040 412.746 26.800 413.866C26.320 414.106 26.240 414.106 26.160 413.626L24.200 402.226C24.120 401.746 24.160 401.626 24.640 401.666ZM25.800 368.626C27.120 368.626 28.200 369.706 28.200 371.906C28.200 374.666 26.880 377.226 23.760 380.346C23.120 380.986 22.160 381.906 21.240 382.706C20.960 382.946 20.800 382.906 20.720 382.386C20.560 381.346 20.480 379.986 20.480 378.706C20.480 372.466 23.360 368.626 25.800 368.626Z"></path></g><g></g><path d="M57.820 386.306C56.620 386.306 55.220 386.626 54.140 387.106C50.580 388.666 48.700 392.946 48.700 396.746C48.700 397.106 48.700 397.466 48.740 397.826C48.940 399.986 49.980 402.026 51.300 403.626C52.820 405.466 55.020 406.306 57.420 406.306C64.420 406.306 65.460 399.946 65.460 398.786C65.460 397.906 65.020 397.906 64.860 397.906C64.540 397.906 64.260 397.946 64.260 398.626C64.260 403.786 59.860 404.986 58.580 404.986C55.340 404.986 53.620 401.826 53.620 395.226C53.620 388.626 56.660 387.266 58.820 387.266C60.900 387.266 61.740 388.226 61.740 388.626C61.740 388.986 61.620 389.506 61.020 389.506C59.420 389.506 58.500 391.226 58.500 392.466C58.500 394.746 60.460 395.466 61.580 395.466C61.580 395.466 64.620 395.346 64.620 392.026C64.620 386.786 58.580 386.306 57.820 386.306Z"></path><g><line stroke="#000000" stroke-width="5" x1="-7.5" x2="-7.5" y1="170.8461538461538" y2="621.8461538461538"></line><path d="M-10 173.846L-5 173.846C1.400 172.646 7.120 169.686 8.720 163.006C8.760 162.846 8.760 162.726 8.760 162.606C8.760 162.286 8.640 162.126 8.440 162.046C8.080 162.046 7.640 162.326 7.440 162.606C7.040 163.046 2 168.326-5.640 168.886L-9.680 168.886C-9.920 168.886-10 168.926-10 169.166Z"></path><path d="M-10 623.526C-10 623.766-9.920 623.806-9.680 623.806L-5.640 623.806C2 624.366 7.040 629.646 7.440 630.086C7.640 630.366 8.080 630.646 8.440 630.646C8.640 630.566 8.760 630.406 8.760 630.086C8.760 629.966 8.760 629.846 8.720 629.686C7.120 623.006 1.400 620.046-5 618.846L-10 618.846Z"></path><line stroke="#000000" stroke-width="1.6" x1="0" x2="0" y1="175.8461538461538" y2="616.8461538461538"></line></g></g><g><line stroke="black" stroke-width="1.6" x1="338.85344197616774" x2="338.85344197616774" y1="175.8461538461538" y2="616.8461538461538"></line></g><g><g><line stroke="#6A6A6A" stroke-width="1.3" x1="0" x2="338.05344197616773" y1="516.3461538461538" y2="516.3461538461538"></line><line stroke="#6A6A6A" stroke-width="1.3" x1="0" x2="338.05344197616773" y1="506.3461538461538" y2="506.3461538461538"></line><line stroke="#6A6A6A" stroke-width="1.3" x1="0" x2="338.05344197616773" y1="496.3461538461538" y2="496.3461538461538"></line><line stroke="#6A6A6A" stroke-width="1.3" x1="0" x2="338.05344197616773" y1="486.3461538461538" y2="486.3461538461538"></line><line stroke="#6A6A6A" stroke-width="1.3" x1="0" x2="338.05344197616773" y1="476.3461538461538" y2="476.3461538461538"></line></g><g><path d="M25.200 462.426C24.640 462.426 23.400 463.466 22.600 464.346C19.640 467.626 18.680 472.626 18.680 476.786C18.680 479.106 18.960 481.706 19.240 483.346C19.320 483.826 19.360 483.906 18.880 484.306C16.320 486.426 13.560 488.866 11.480 491.426C8.720 494.866 7 498.586 7 502.866C7 509.826 11.760 516.426 21.560 516.426C22.480 516.426 23.520 516.346 24.320 516.186C24.760 516.106 24.840 516.066 24.920 516.546C25.400 519.226 26 522.706 26 524.586C26 530.506 22 531.226 19.640 531.226C17.480 531.226 16.440 530.586 16.440 530.066C16.440 529.626 16.800 529.666 17.720 529.386C18.960 529.026 20.400 527.946 20.400 525.626C20.400 523.426 19 521.546 16.560 521.546C13.880 521.546 12.280 523.666 12.280 526.146C12.280 528.746 13.840 532.666 19.880 532.666C22.560 532.666 27.760 531.466 27.760 524.666C27.760 522.386 27.040 518.586 26.600 516.106C26.520 515.626 26.560 515.666 27.120 515.426C31.160 513.826 33.840 510.426 33.840 505.906C33.840 500.786 30.080 496.266 24.200 496.266C23.080 496.266 23.200 496.466 23.040 495.546L22.040 489.746C21.960 489.266 22.040 489.226 22.280 488.986C22.920 488.386 23.760 487.546 24.520 486.706C27.880 483.026 29.880 478.266 29.880 473.746C29.880 470.266 28.920 466.826 27.280 464.426C26.680 463.546 25.640 462.426 25.200 462.426ZM20.040 490.586C20.440 490.266 20.520 490.306 20.600 490.746L21.440 495.866C21.560 496.626 21.560 496.586 20.840 496.826C17.320 498.026 15.040 501.186 15.040 504.586C15.040 508.186 16.920 510.746 19.640 511.666C19.960 511.786 20.440 511.906 20.720 511.906C21.040 511.906 21.200 511.706 21.200 511.466C21.200 511.186 20.880 511.066 20.600 510.946C18.920 510.226 17.720 508.506 17.720 506.666C17.720 504.386 19.280 502.666 21.720 501.986C22.360 501.826 22.440 501.866 22.520 502.306L24.520 514.226C24.600 514.666 24.560 514.666 23.960 514.786C23.320 514.906 22.520 514.986 21.720 514.986C14.720 514.986 10.200 511.106 10.200 505.546C10.200 503.186 10.600 500.026 13.920 496.266C16.320 493.586 18.160 492.106 20.040 490.586ZM24.640 501.666C27.880 501.946 30.560 504.666 30.560 508.186C30.560 510.706 29.040 512.746 26.800 513.866C26.320 514.106 26.240 514.106 26.160 513.626L24.200 502.226C24.120 501.746 24.160 501.626 24.640 501.666ZM25.800 468.626C27.120 468.626 28.200 469.706 28.200 471.906C28.200 474.666 26.880 477.226 23.760 480.346C23.120 480.986 22.160 481.906 21.240 482.706C20.960 482.946 20.800 482.906 20.720 482.386C20.560 481.346 20.480 479.986 20.480 478.706C20.480 472.466 23.360 468.626 25.800 468.626Z"></path></g><g></g><path d="M57.820 486.306C56.620 486.306 55.220 486.626 54.140 487.106C50.580 488.666 48.700 492.946 48.700 496.746C48.700 497.106 48.700 497.466 48.740 497.826C48.940 499.986 49.980 502.026 51.300 503.626C52.820 505.466 55.020 506.306 57.420 506.306C64.420 506.306 65.460 499.946 65.460 498.786C65.460 497.906 65.020 497.906 64.860 497.906C64.540 497.906 64.260 497.946 64.260 498.626C64.260 503.786 59.860 504.986 58.580 504.986C55.340 504.986 53.620 501.826 53.620 495.226C53.620 488.626 56.660 487.266 58.820 487.266C60.900 487.266 61.740 488.226 61.740 488.626C61.740 488.986 61.620 489.506 61.020 489.506C59.420 489.506 58.500 491.226 58.500 492.466C58.500 494.746 60.460 495.466 61.580 495.466C61.580 495.466 64.620 495.346 64.620 492.026C64.620 486.786 58.580 486.306 57.820 486.306Z"></path><g><line stroke="#000000" stroke-width="5" x1="-7.5" x2="-7.5" y1="170.8461538461538" y2="621.8461538461538"></line><path d="M-10 173.846L-5 173.846C1.400 172.646 7.120 169.686 8.720 163.006C8.760 162.846 8.760 162.726 8.760 162.606C8.760 162.286 8.640 162.126 8.440 162.046C8.080 162.046 7.640 162.326 7.440 162.606C7.040 163.046 2 168.326-5.640 168.886L-9.680 168.886C-9.920 168.886-10 168.926-10 169.166Z"></path><path d="M-10 623.526C-10 623.766-9.920 623.806-9.680 623.806L-5.640 623.806C2 624.366 7.040 629.646 7.440 630.086C7.640 630.366 8.080 630.646 8.440 630.646C8.640 630.566 8.760 630.406 8.760 630.086C8.760 629.966 8.760 629.846 8.720 629.686C7.120 623.006 1.400 620.046-5 618.846L-10 618.846Z"></path><line stroke="#000000" stroke-width="1.6" x1="0" x2="0" y1="175.8461538461538" y2="616.8461538461538"></line></g></g><g><line stroke="black" stroke-width="1.6" x1="338.85344197616774" x2="338.85344197616774" y1="175.8461538461538" y2="616.8461538461538"></line></g><g><g><line stroke="#6A6A6A" stroke-width="1.3" x1="0" x2="338.05344197616773" y1="616.3461538461538" y2="616.3461538461538"></line><line stroke="#6A6A6A" stroke-width="1.3" x1="0" x2="338.05344197616773" y1="606.3461538461538" y2="606.3461538461538"></line><line stroke="#6A6A6A" stroke-width="1.3" x1="0" x2="338.05344197616773" y1="596.3461538461538" y2="596.3461538461538"></line><line stroke="#6A6A6A" stroke-width="1.3" x1="0" x2="338.05344197616773" y1="586.3461538461538" y2="586.3461538461538"></line><line stroke="#6A6A6A" stroke-width="1.3" x1="0" x2="338.05344197616773" y1="576.3461538461538" y2="576.3461538461538"></line></g><g><path d="M25.200 562.426C24.640 562.426 23.400 563.466 22.600 564.346C19.640 567.626 18.680 572.626 18.680 576.786C18.680 579.106 18.960 581.706 19.240 583.346C19.320 583.826 19.360 583.906 18.880 584.306C16.320 586.426 13.560 588.866 11.480 591.426C8.720 594.866 7 598.586 7 602.866C7 609.826 11.760 616.426 21.560 616.426C22.480 616.426 23.520 616.346 24.320 616.186C24.760 616.106 24.840 616.066 24.920 616.546C25.400 619.226 26 622.706 26 624.586C26 630.506 22 631.226 19.640 631.226C17.480 631.226 16.440 630.586 16.440 630.066C16.440 629.626 16.800 629.666 17.720 629.386C18.960 629.026 20.400 627.946 20.400 625.626C20.400 623.426 19 621.546 16.560 621.546C13.880 621.546 12.280 623.666 12.280 626.146C12.280 628.746 13.840 632.666 19.880 632.666C22.560 632.666 27.760 631.466 27.760 624.666C27.760 622.386 27.040 618.586 26.600 616.106C26.520 615.626 26.560 615.666 27.120 615.426C31.160 613.826 33.840 610.426 33.840 605.906C33.840 600.786 30.080 596.266 24.200 596.266C23.080 596.266 23.200 596.466 23.040 595.546L22.040 589.746C21.960 589.266 22.040 589.226 22.280 588.986C22.920 588.386 23.760 587.546 24.520 586.706C27.880 583.026 29.880 578.266 29.880 573.746C29.880 570.266 28.920 566.826 27.280 564.426C26.680 563.546 25.640 562.426 25.200 562.426ZM20.040 590.586C20.440 590.266 20.520 590.306 20.600 590.746L21.440 595.866C21.560 596.626 21.560 596.586 20.840 596.826C17.320 598.026 15.040 601.186 15.040 604.586C15.040 608.186 16.920 610.746 19.640 611.666C19.960 611.786 20.440 611.906 20.720 611.906C21.040 611.906 21.200 611.706 21.200 611.466C21.200 611.186 20.880 611.066 20.600 610.946C18.920 610.226 17.720 608.506 17.720 606.666C17.720 604.386 19.280 602.666 21.720 601.986C22.360 601.826 22.440 601.866 22.520 602.306L24.520 614.226C24.600 614.666 24.560 614.666 23.960 614.786C23.320 614.906 22.520 614.986 21.720 614.986C14.720 614.986 10.200 611.106 10.200 605.546C10.200 603.186 10.600 600.026 13.920 596.266C16.320 593.586 18.160 592.106 20.040 590.586ZM24.640 601.666C27.880 601.946 30.560 604.666 30.560 608.186C30.560 610.706 29.040 612.746 26.800 613.866C26.320 614.106 26.240 614.106 26.160 613.626L24.200 602.226C24.120 601.746 24.160 601.626 24.640 601.666ZM25.800 568.626C27.120 568.626 28.200 569.706 28.200 571.906C28.200 574.666 26.880 577.226 23.760 580.346C23.120 580.986 22.160 581.906 21.240 582.706C20.960 582.946 20.800 582.906 20.720 582.386C20.560 581.346 20.480 579.986 20.480 578.706C20.480 572.466 23.360 568.626 25.800 568.626Z"></path></g><g></g><path d="M57.820 586.306C56.620 586.306 55.220 586.626 54.140 587.106C50.580 588.666 48.700 592.946 48.700 596.746C48.700 597.106 48.700 597.466 48.740 597.826C48.940 599.986 49.980 602.026 51.300 603.626C52.820 605.466 55.020 606.306 57.420 606.306C64.420 606.306 65.460 599.946 65.460 598.786C65.460 597.906 65.020 597.906 64.860 597.906C64.540 597.906 64.260 597.946 64.260 598.626C64.260 603.786 59.860 604.986 58.580 604.986C55.340 604.986 53.620 601.826 53.620 595.226C53.620 588.626 56.660 587.266 58.820 587.266C60.900 587.266 61.740 588.226 61.740 588.626C61.740 588.986 61.620 589.506 61.020 589.506C59.420 589.506 58.500 591.226 58.500 592.466C58.500 594.746 60.460 595.466 61.580 595.466C61.580 595.466 64.620 595.346 64.620 592.026C64.620 586.786 58.580 586.306 57.820 586.306Z"></path></g><g><line stroke="black" stroke-width="1.6" x1="338.85344197616774" x2="338.85344197616774" y1="576.3461538461538" y2="616.3461538461538"></line></g><g><g><path d="M98.400 190.866C92.600 190.866 89 193.306 89 196.266C89 199.186 91.480 201.786 97.960 201.786C105.080 201.786 107.360 199.306 107.360 196.266C107.360 193.186 102.440 190.866 98.400 190.866ZM93.840 193.586C94.320 192.106 95.920 191.866 97.280 191.866C100.240 191.866 102.640 195.066 102.640 197.706C102.640 197.986 102.600 198.266 102.560 198.506C102.360 199.586 101.720 200.346 100.640 200.626C100.200 200.746 99.760 200.786 99.320 200.786C98.920 200.786 98.560 200.746 98.160 200.626C97.440 200.386 96.720 199.986 96.120 199.466C95.800 199.186 95.480 198.866 95.200 198.506C94.360 197.506 93.680 196.026 93.680 194.666C93.680 194.306 93.720 193.946 93.840 193.586Z"></path></g></g><g><g><path d="M98.400 295.866C92.600 295.866 89 298.306 89 301.266C89 304.186 91.480 306.786 97.960 306.786C105.080 306.786 107.360 304.306 107.360 301.266C107.360 298.186 102.440 295.866 98.400 295.866ZM93.840 298.586C94.320 297.106 95.920 296.866 97.280 296.866C100.240 296.866 102.640 300.066 102.640 302.706C102.640 302.986 102.600 303.266 102.560 303.506C102.360 304.586 101.720 305.346 100.640 305.626C100.200 305.746 99.760 305.786 99.320 305.786C98.920 305.786 98.560 305.746 98.160 305.626C97.440 305.386 96.720 304.986 96.120 304.466C95.800 304.186 95.480 303.866 95.200 303.506C94.360 302.506 93.680 301.026 93.680 299.666C93.680 299.306 93.720 298.946 93.840 298.586Z"></path></g></g><g><g><path d="M98.400 395.866C92.600 395.866 89 398.306 89 401.266C89 404.186 91.480 406.786 97.960 406.786C105.080 406.786 107.360 404.306 107.360 401.266C107.360 398.186 102.440 395.866 98.400 395.866ZM93.840 398.586C94.320 397.106 95.920 396.866 97.280 396.866C100.240 396.866 102.640 400.066 102.640 402.706C102.640 402.986 102.600 403.266 102.560 403.506C102.360 404.586 101.720 405.346 100.640 405.626C100.200 405.746 99.760 405.786 99.320 405.786C98.920 405.786 98.560 405.746 98.160 405.626C97.440 405.386 96.720 404.986 96.120 404.466C95.800 404.186 95.480 403.866 95.200 403.506C94.360 402.506 93.680 401.026 93.680 399.666C93.680 399.306 93.720 398.946 93.840 398.586Z"></path></g></g><g><g><path d="M98.400 505.866C92.600 505.866 89 508.306 89 511.266C89 514.186 91.480 516.786 97.960 516.786C105.080 516.786 107.360 514.306 107.360 511.266C107.360 508.186 102.440 505.866 98.400 505.866ZM93.840 508.586C94.320 507.106 95.920 506.866 97.280 506.866C100.240 506.866 102.640 510.066 102.640 512.706C102.640 512.986 102.600 513.266 102.560 513.506C102.360 514.586 101.720 515.346 100.640 515.626C100.200 515.746 99.760 515.786 99.320 515.786C98.920 515.786 98.560 515.746 98.160 515.626C97.440 515.386 96.720 514.986 96.120 514.466C95.800 514.186 95.480 513.866 95.200 513.506C94.360 512.506 93.680 511.026 93.680 509.666C93.680 509.306 93.720 508.946 93.840 508.586Z"></path></g></g><g><g><path d="M98.400 580.866C92.600 580.866 89 583.306 89 586.266C89 589.186 91.480 591.786 97.960 591.786C105.080 591.786 107.360 589.306 107.360 586.266C107.360 583.186 102.440 580.866 98.400 580.866ZM93.840 583.586C94.320 582.106 95.920 581.866 97.280 581.866C100.240 581.866 102.640 585.066 102.640 587.706C102.640 587.986 102.600 588.266 102.560 588.506C102.360 589.586 101.720 590.346 100.640 590.626C100.200 590.746 99.760 590.786 99.320 590.786C98.920 590.786 98.560 590.746 98.160 590.626C97.440 590.386 96.720 589.986 96.120 589.466C95.800 589.186 95.480 588.866 95.200 588.506C94.360 587.506 93.680 586.026 93.680 584.666C93.680 584.306 93.720 583.946 93.840 583.586Z"></path></g></g></g><g transform="translate(518.4995958223217)"><g><g><line stroke="#6A6A6A" stroke-width="1.3" x1="-16.600000000000023" x2="525.3068839523355" y1="216.3461538461538" y2="216.3461538461538"></line><line stroke="#6A6A6A" stroke-width="1.3" x1="-16.600000000000023" x2="525.3068839523355" y1="206.3461538461538" y2="206.3461538461538"></line><line stroke="#6A6A6A" stroke-width="1.3" x1="-16.600000000000023" x2="525.3068839523355" y1="196.3461538461538" y2="196.3461538461538"></line><line stroke="#6A6A6A" stroke-width="1.3" x1="-16.600000000000023" x2="525.3068839523355" y1="186.3461538461538" y2="186.3461538461538"></line><line stroke="#6A6A6A" stroke-width="1.3" x1="-16.600000000000023" x2="525.3068839523355" y1="176.3461538461538" y2="176.3461538461538"></line></g></g><g><line stroke="black" stroke-width="1.6" x1="249.85344197616777" x2="249.85344197616777" y1="176.3461538461538" y2="216.3461538461538"></line></g><g><g><line stroke="#6A6A6A" stroke-width="1.3" x1="-16.600000000000023" x2="525.3068839523355" y1="316.3461538461538" y2="316.3461538461538"></line><line stroke="#6A6A6A" stroke-width="1.3" x1="-16.600000000000023" x2="525.3068839523355" y1="306.3461538461538" y2="306.3461538461538"></line><line stroke="#6A6A6A" stroke-width="1.3" x1="-16.600000000000023" x2="525.3068839523355" y1="296.3461538461538" y2="296.3461538461538"></line><line stroke="#6A6A6A" stroke-width="1.3" x1="-16.600000000000023" x2="525.3068839523355" y1="286.3461538461538" y2="286.3461538461538"></line><line stroke="#6A6A6A" stroke-width="1.3" x1="-16.600000000000023" x2="525.3068839523355" y1="276.3461538461538" y2="276.3461538461538"></line></g></g><g><line stroke="black" stroke-width="1.6" x1="249.85344197616777" x2="249.85344197616777" y1="175.8461538461538" y2="616.8461538461538"></line></g><g><g><line stroke="#6A6A6A" stroke-width="1.3" x1="-16.600000000000023" x2="525.3068839523355" y1="416.3461538461538" y2="416.3461538461538"></line><line stroke="#6A6A6A" stroke-width="1.3" x1="-16.600000000000023" x2="525.3068839523355" y1="406.3461538461538" y2="406.3461538461538"></line><line stroke="#6A6A6A" stroke-width="1.3" x1="-16.600000000000023" x2="525.3068839523355" y1="396.3461538461538" y2="396.3461538461538"></line><line stroke="#6A6A6A" stroke-width="1.3" x1="-16.600000000000023" x2="525.3068839523355" y1="386.3461538461538" y2="386.3461538461538"></line><line stroke="#6A6A6A" stroke-width="1.3" x1="-16.600000000000023" x2="525.3068839523355" y1="376.3461538461538" y2="376.3461538461538"></line></g></g><g><line stroke="black" stroke-width="1.6" x1="249.85344197616777" x2="249.85344197616777" y1="175.8461538461538" y2="616.8461538461538"></line></g><g><g><line stroke="#6A6A6A" stroke-width="1.3" x1="-16.600000000000023" x2="525.3068839523355" y1="516.3461538461538" y2="516.3461538461538"></line><line stroke="#6A6A6A" stroke-width="1.3" x1="-16.600000000000023" x2="525.3068839523355" y1="506.3461538461538" y2="506.3461538461538"></line><line stroke="#6A6A6A" stroke-width="1.3" x1="-16.600000000000023" x2="525.3068839523355" y1="496.3461538461538" y2="496.3461538461538"></line><line stroke="#6A6A6A" stroke-width="1.3" x1="-16.600000000000023" x2="525.3068839523355" y1="486.3461538461538" y2="486.3461538461538"></line><line stroke="#6A6A6A" stroke-width="1.3" x1="-16.600000000000023" x2="525.3068839523355" y1="476.3461538461538" y2="476.3461538461538"></line></g></g><g><line stroke="black" stroke-width="1.6" x1="249.85344197616777" x2="249.85344197616777" y1="175.8461538461538" y2="616.8461538461538"></line></g><g><g><line stroke="#6A6A6A" stroke-width="1.3" x1="-16.600000000000023" x2="525.3068839523355" y1="616.3461538461538" y2="616.3461538461538"></line><line stroke="#6A6A6A" stroke-width="1.3" x1="-16.600000000000023" x2="525.3068839523355" y1="606.3461538461538" y2="606.3461538461538"></line><line stroke="#6A6A6A" stroke-width="1.3" x1="-16.600000000000023" x2="525.3068839523355" y1="596.3461538461538" y2="596.3461538461538"></line><line stroke="#6A6A6A" stroke-width="1.3" x1="-16.600000000000023" x2="525.3068839523355" y1="586.3461538461538" y2="586.3461538461538"></line><line stroke="#6A6A6A" stroke-width="1.3" x1="-16.600000000000023" x2="525.3068839523355" y1="576.3461538461538" y2="576.3461538461538"></line></g></g><g><line stroke="black" stroke-width="1.6" x1="249.85344197616777" x2="249.85344197616777" y1="576.3461538461538" y2="616.3461538461538"></line></g><g><g><path d="M9.400 195.866C3.600 195.866 0 198.306 0 201.266C0 204.186 2.480 206.786 8.960 206.786C16.080 206.786 18.360 204.306 18.360 201.266C18.360 198.186 13.440 195.866 9.400 195.866ZM4.840 198.586C5.320 197.106 6.920 196.866 8.280 196.866C11.240 196.866 13.640 200.066 13.640 202.706C13.640 202.986 13.600 203.266 13.560 203.506C13.360 204.586 12.720 205.346 11.640 205.626C11.200 205.746 10.760 205.786 10.320 205.786C9.920 205.786 9.560 205.746 9.160 205.626C8.440 205.386 7.720 204.986 7.120 204.466C6.800 204.186 6.480 203.866 6.200 203.506C5.360 202.506 4.680 201.026 4.680 199.666C4.680 199.306 4.720 198.946 4.840 198.586Z"></path></g></g><g><g><path d="M9.400 295.866C3.600 295.866 0 298.306 0 301.266C0 304.186 2.480 306.786 8.960 306.786C16.080 306.786 18.360 304.306 18.360 301.266C18.360 298.186 13.440 295.866 9.400 295.866ZM4.840 298.586C5.320 297.106 6.920 296.866 8.280 296.866C11.240 296.866 13.640 300.066 13.640 302.706C13.640 302.986 13.600 303.266 13.560 303.506C13.360 304.586 12.720 305.346 11.640 305.626C11.200 305.746 10.760 305.786 10.320 305.786C9.920 305.786 9.560 305.746 9.160 305.626C8.440 305.386 7.720 304.986 7.120 304.466C6.800 304.186 6.480 303.866 6.200 303.506C5.360 302.506 4.680 301.026 4.680 299.666C4.680 299.306 4.720 298.946 4.840 298.586Z"></path></g></g><g><g><path d="M9.400 395.866C3.600 395.866 0 398.306 0 401.266C0 404.186 2.480 406.786 8.960 406.786C16.080 406.786 18.360 404.306 18.360 401.266C18.360 398.186 13.440 395.866 9.400 395.866ZM4.840 398.586C5.320 397.106 6.920 396.866 8.280 396.866C11.240 396.866 13.640 400.066 13.640 402.706C13.640 402.986 13.600 403.266 13.560 403.506C13.360 404.586 12.720 405.346 11.640 405.626C11.200 405.746 10.760 405.786 10.320 405.786C9.920 405.786 9.560 405.746 9.160 405.626C8.440 405.386 7.720 404.986 7.120 404.466C6.800 404.186 6.480 403.866 6.200 403.506C5.360 402.506 4.680 401.026 4.680 399.666C4.680 399.306 4.720 398.946 4.840 398.586Z"></path></g></g><g><g><path d="M9.400 490.866C3.600 490.866 0 493.306 0 496.266C0 499.186 2.480 501.786 8.960 501.786C16.080 501.786 18.360 499.306 18.360 496.266C18.360 493.186 13.440 490.866 9.400 490.866ZM4.840 493.586C5.320 492.106 6.920 491.866 8.280 491.866C11.240 491.866 13.640 495.066 13.640 497.706C13.640 497.986 13.600 498.266 13.560 498.506C13.360 499.586 12.720 500.346 11.640 500.626C11.200 500.746 10.760 500.786 10.320 500.786C9.920 500.786 9.560 500.746 9.160 500.626C8.440 500.386 7.720 499.986 7.120 499.466C6.800 499.186 6.480 498.866 6.200 498.506C5.360 497.506 4.680 496.026 4.680 494.666C4.680 494.306 4.720 493.946 4.840 493.586Z"></path></g></g><g><g><path d="M9.400 605.866C3.600 605.866 0 608.306 0 611.266C0 614.186 2.480 616.786 8.960 616.786C16.080 616.786 18.360 614.306 18.360 611.266C18.360 608.186 13.440 605.866 9.400 605.866ZM4.840 608.586C5.320 607.106 6.920 606.866 8.280 606.866C11.240 606.866 13.640 610.066 13.640 612.706C13.640 612.986 13.600 613.266 13.560 613.506C13.360 614.586 12.720 615.346 11.640 615.626C11.200 615.746 10.760 615.786 10.320 615.786C9.920 615.786 9.560 615.746 9.160 615.626C8.440 615.386 7.720 614.986 7.120 614.466C6.800 614.186 6.480 613.866 6.200 613.506C5.360 612.506 4.680 611.026 4.680 609.666C4.680 609.306 4.720 608.946 4.840 608.586Z"></path></g></g></g><g transform="translate(784.1530377984893)"><g></g><g><line stroke="#000000" stroke-width="1.6" x1="249.85344197616777" x2="249.85344197616777" y1="176.3461538461538" y2="216.3461538461538"></line><line stroke="#000000" stroke-width="5" x1="257.15344197616776" x2="257.15344197616776" y1="176.3461538461538" y2="216.3461538461538"></line></g><g></g><g><line stroke="#000000" stroke-width="1.6" x1="249.85344197616777" x2="249.85344197616777" y1="175.8461538461538" y2="616.8461538461538"></line><line stroke="#000000" stroke-width="5" x1="257.15344197616776" x2="257.15344197616776" y1="175.8461538461538" y2="616.8461538461538"></line></g><g></g><g><line stroke="#000000" stroke-width="1.6" x1="249.85344197616777" x2="249.85344197616777" y1="175.8461538461538" y2="616.8461538461538"></line><line stroke="#000000" stroke-width="5" x1="257.15344197616776" x2="257.15344197616776" y1="175.8461538461538" y2="616.8461538461538"></line></g><g></g><g><line stroke="#000000" stroke-width="1.6" x1="249.85344197616777" x2="249.85344197616777" y1="175.8461538461538" y2="616.8461538461538"></line><line stroke="#000000" stroke-width="5" x1="257.15344197616776" x2="257.15344197616776" y1="175.8461538461538" y2="616.8461538461538"></line></g><g></g><g><line stroke="#000000" stroke-width="1.6" x1="249.85344197616777" x2="249.85344197616777" y1="576.3461538461538" y2="616.3461538461538"></line><line stroke="#000000" stroke-width="5" x1="257.15344197616776" x2="257.15344197616776" y1="576.3461538461538" y2="616.3461538461538"></line></g><g><path d="M121.867 190.706L121.867 187.026C121.867 186.426 121.387 185.986 120.827 185.986L111.627 185.986C111.027 185.986 110.587 186.426 110.587 187.026L110.587 190.706C110.587 191.266 111.027 191.746 111.627 191.746L120.827 191.746C121.387 191.746 121.867 191.266 121.867 190.706Z"></path></g><g><path d="M121.867 290.706L121.867 287.026C121.867 286.426 121.387 285.986 120.827 285.986L111.627 285.986C111.027 285.986 110.587 286.426 110.587 287.026L110.587 290.706C110.587 291.266 111.027 291.746 111.627 291.746L120.827 291.746C121.387 291.746 121.867 291.266 121.867 290.706Z"></path></g><g><path d="M121.867 390.706L121.867 387.026C121.867 386.426 121.387 385.986 120.827 385.986L111.627 385.986C111.027 385.986 110.587 386.426 110.587 387.026L110.587 390.706C110.587 391.266 111.027 391.746 111.627 391.746L120.827 391.746C121.387 391.746 121.867 391.266 121.867 390.706Z"></path></g><g><path d="M121.867 490.706L121.867 487.026C121.867 486.426 121.387 485.986 120.827 485.986L111.627 485.986C111.027 485.986 110.587 486.426 110.587 487.026L110.587 490.706C110.587 491.266 111.027 491.746 111.627 491.746L120.827 491.746C121.387 491.746 121.867 491.266 121.867 490.706Z"></path></g><g><path d="M121.867 590.706L121.867 587.026C121.867 586.426 121.387 585.986 120.827 585.986L111.627 585.986C111.027 585.986 110.587 586.426 110.587 587.026L110.587 590.706C110.587 591.266 111.027 591.746 111.627 591.746L120.827 591.746C121.387 591.746 121.867 591.266 121.867 590.706Z"></path></g></g></svg>