<?xml version="1.0" encoding="UTF-8" standalone="no"?><svg xmlns="http://www.w3.org/2000/svg" height="279.4mm" viewBox="0 0 1328.6153846153845 1719.3846153846152" width="215.9mm"><g transform="translate(93.84615384615385)"><g><g><line stroke="#6A6A6A" stroke-width="1.3" x1="0" x2="256.9910951703878" y1="183.8461538461538" y2="183.8461538461538"></line><line stroke="#6A6A6A" stroke-width="1.3" x1="0" x2="256.9910951703878" y1="173.8461538461538" y2="173.8461538461538"></line><line stroke="#6A6A6A" stroke-width="1.3" x1="0" x2="256.9910951703878" y1="163.8461538461538" y2="163.8461538461538"></line><line stroke="#6A6A6A" stroke-width="1.3" x1="0" x2="256.9910951703878" y1="153.8461538461538" y2="153.8461538461538"></line><line stroke="#6A6A6A" stroke-width="1.3" x1="0" x2="256.9910951703878" y1="143.8461538461538" y2="143.8461538461538"></line></g><g><path d="M25.200 129.926C24.640 129.926 23.400 130.966 22.600 131.846C19.640 135.126 18.680 140.126 18.680 144.286C18.680 146.606 18.960 149.206 19.240 150.846C19.320 151.326 19.360 151.406 18.880 151.806C16.320 153.926 13.560 156.366 11.480 158.926C8.720 162.366 7 166.086 7 170.366C7 177.326 11.760 183.926 21.560 183.926C22.480 183.926 23.520 183.846 24.320 183.686C24.760 183.606 24.840 183.566 24.920 184.046C25.400 186.726 26 190.206 26 192.086C26 198.006 22 198.726 19.640 198.726C17.480 198.726 16.440 198.086 16.440 197.566C16.440 197.126 16.800 197.166 17.720 196.886C18.960 196.526 20.400 195.446 20.400 193.126C20.400 190.926 19 189.046 16.560 189.046C13.880 189.046 12.280 191.166 12.280 193.646C12.280 196.246 13.840 200.166 19.880 200.166C22.560 200.166 27.760 198.966 27.760 192.166C27.760 189.886 27.040 186.086 26.600 183.606C26.520 183.126 26.560 183.166 27.120 182.926C31.160 181.326 33.840 177.926 33.840 173.406C33.840 168.286 30.080 163.766 24.200 163.766C23.080 163.766 23.200 163.966 23.040 163.046L22.040 157.246C21.960 156.766 22.040 156.726 22.280 156.486C22.920 155.886 23.760 155.046 24.520 154.206C27.880 150.526 29.880 145.766 29.880 141.246C29.880 137.766 28.920 134.326 27.280 131.926C26.680 131.046 25.640 129.926 25.200 129.926ZM20.040 158.086C20.440 157.766 20.520 157.806 20.600 158.246L21.440 163.366C21.560 164.126 21.560 164.086 20.840 164.326C17.320 165.526 15.040 168.686 15.040 172.086C15.040 175.686 16.920 178.246 19.640 179.166C19.960 179.286 20.440 179.406 20.720 179.406C21.040 179.406 21.200 179.206 21.200 178.966C21.200 178.686 20.880 178.566 20.600 178.446C18.920 177.726 17.720 176.006 17.720 174.166C17.720 171.886 19.280 170.166 21.720 169.486C22.360 169.326 22.440 169.366 22.520 169.806L24.520 181.726C24.600 182.166 24.560 182.166 23.960 182.286C23.320 182.406 22.520 182.486 21.720 182.486C14.720 182.486 10.200 178.606 10.200 173.046C10.200 170.686 10.600 167.526 13.920 163.766C16.320 161.086 18.160 159.606 20.040 158.086ZM24.640 169.166C27.880 169.446 30.560 172.166 30.560 175.686C30.560 178.206 29.040 180.246 26.800 181.366C26.320 181.606 26.240 181.606 26.160 181.126L24.200 169.726C24.120 169.246 24.160 169.126 24.640 169.166ZM25.800 136.126C27.120 136.126 28.200 137.206 28.200 139.406C28.200 142.166 26.880 144.726 23.760 147.846C23.120 148.486 22.160 149.406 21.240 150.206C20.960 150.446 20.800 150.406 20.720 149.886C20.560 148.846 20.480 147.486 20.480 146.206C20.480 139.966 23.360 136.126 25.800 136.126Z"></path></g><g></g><path d="M57.820 153.806C56.620 153.806 55.220 154.126 54.140 154.606C50.580 156.166 48.700 160.446 48.700 164.246C48.700 164.606 48.700 164.966 48.740 165.326C48.940 167.486 49.980 169.526 51.300 171.126C52.820 172.966 55.020 173.806 57.420 173.806C64.420 173.806 65.460 167.446 65.460 166.286C65.460 165.406 65.020 165.406 64.860 165.406C64.540 165.406 64.260 165.446 64.260 166.126C64.260 171.286 59.860 172.486 58.580 172.486C55.340 172.486 53.620 169.326 53.620 162.726C53.620 156.126 56.660 154.766 58.820 154.766C60.900 154.766 61.740 155.726 61.740 156.126C61.740 156.486 61.620 157.006 61.020 157.006C59.420 157.006 58.500 158.726 58.500 159.966C58.500 162.246 60.460 162.966 61.580 162.966C61.580 162.966 64.620 162.846 64.620 159.526C64.620 154.286 58.580 153.806 57.820 153.806Z"></path><g><path d="M-13.200 264.426C-12.040 263.706-10.720 260.866-10.720 258.506C-10.720 258.306-10.720 258.066-10.760 257.866C-11.040 255.466-12.240 251.746-12.240 249.586C-12.240 247.506-11.320 245.506-11.120 245.146C-10.960 244.986-10.920 244.866-10.920 244.746C-10.920 244.666-10.960 244.586-11 244.586C-11.040 244.546-11.080 244.466-11.160 244.466C-11.240 244.466-11.320 244.546-11.480 244.746C-12.360 245.826-13.440 248.146-13.440 252.146C-13.440 256.106-12.040 257.706-12.040 260.226C-12.040 262.106-12.800 263.146-13.920 264.426C-13.200 265.226-12.040 265.866-12.040 268.466C-12.040 271.266-13.440 273.746-13.440 276.666C-13.440 280.666-12.360 282.986-11.480 284.106C-11.320 284.306-11.240 284.346-11.160 284.346C-11.080 284.346-11.040 284.306-11 284.266C-10.960 284.226-10.920 284.186-10.920 284.106C-10.920 283.986-10.960 283.866-11.120 283.666C-11.320 283.346-12.240 281.346-12.240 279.226C-12.240 277.106-11.040 273.346-10.760 270.986C-10.720 270.786-10.720 270.586-10.720 270.346C-10.720 267.986-12.040 265.146-13.200 264.426Z"></path><line stroke="#000000" stroke-width="1.6" x1="0" x2="0" y1="143.3461538461538" y2="284.3461538461538"></line></g></g><path d="M134.440 205.646C132.160 205.646 130.520 206.566 129.280 207.806C127.960 209.166 127.360 210.126 126.760 211.566C126.400 212.486 126.280 212.526 125.400 212.526L123 212.526C121.840 212.526 121.040 212.526 121.040 212.526C120.840 212.526 119.920 212.486 119.920 212.126C119.920 211.886 120.040 211.446 120.280 210.806C121.040 208.766 121.680 207.046 124.120 206.926L124.280 206.926C124.440 206.926 124.600 206.966 124.640 207.166C124.640 207.446 124.640 207.566 124.520 207.646C124.400 207.766 124.200 207.806 124.080 207.846C123.720 208.006 123.480 208.286 123.320 208.566C123.080 208.886 122.960 209.286 122.960 209.686C122.960 210.846 123.560 211.166 124.440 211.166C125.280 211.166 126.600 209.926 126.680 208.446C126.680 206.886 125.680 205.726 123.680 205.646L123.440 205.646C121.160 205.646 119.520 206.566 118.280 207.806C116.960 209.166 116.360 210.126 115.760 211.566C115.400 212.486 115.280 212.526 114.400 212.526C112.040 212.526 110.120 212.526 110.120 212.526C109.920 212.526 109 212.486 109 212.126C109 211.886 109.120 211.446 109.360 210.806C110.120 208.766 110.760 207.046 113.200 206.926L113.360 206.926C113.520 206.926 113.680 206.966 113.720 207.166C113.720 207.446 113.720 207.566 113.600 207.646C113.480 207.766 113.280 207.806 113.160 207.846C112.800 208.006 112.560 208.286 112.400 208.566C112.160 208.886 112.040 209.286 112.040 209.686C112.040 210.846 112.640 211.166 113.520 211.166C114.360 211.166 115.680 209.926 115.760 208.446C115.760 206.886 114.760 205.726 112.760 205.646L112.520 205.646C110.240 205.646 108.600 206.566 107.360 207.806C106.040 209.166 105.440 210.126 104.840 211.566C104.480 212.486 104.360 212.526 103.480 212.526L99.240 212.526C98.360 212.526 98 212.526 98 212.126C98 211.886 98.120 211.446 98.360 210.806C99.120 208.766 99.760 207.046 102.200 206.926L102.360 206.926C102.520 206.926 102.680 206.966 102.720 207.166C102.720 207.446 102.720 207.566 102.600 207.646C102.480 207.766 102.280 207.806 102.160 207.846C101.800 208.006 101.560 208.286 101.400 208.566C101.160 208.886 101.040 209.286 101.040 209.686C101.040 210.846 101.640 211.166 102.520 211.166C103.360 211.166 104.680 209.926 104.760 208.446C104.760 206.886 103.760 205.726 101.760 205.646L101.520 205.646C99.240 205.646 97.600 206.566 96.360 207.806C95.040 209.166 94.440 210.126 93.840 211.566C93.480 212.486 93.360 212.526 92.480 212.526L90.600 212.526C89.600 212.526 89.520 212.646 89.520 213.366C89.520 214.286 89.520 214.286 90.240 214.286C91.600 214.286 91.600 214.286 91.600 214.286C92.080 214.286 92.280 214.286 92.280 214.646C92.280 214.886 92.160 215.366 91.920 216.246C91.840 216.566 89.440 225.446 89.200 226.086C88.840 227.006 88.200 227.926 87.440 228.566C87.240 228.726 87.040 228.886 86.760 228.966C86.600 229.046 86.440 229.046 86.320 229.046C85.960 229.046 85.760 228.926 85.720 228.926C86.280 228.806 86.640 228.446 86.760 228.366C87 228.086 87.200 227.646 87.200 227.246C87.200 226.646 86.960 225.926 86.440 225.646C86.160 225.486 85.800 225.366 85.440 225.366C85.240 225.366 85.080 225.406 84.960 225.446C84.600 225.566 84.200 225.806 83.960 226.086C83.560 226.566 83.320 227.246 83.320 227.886C83.320 228.606 83.560 229.286 84.040 229.766C84.280 230.006 84.640 230.246 84.920 230.366C85.320 230.486 85.800 230.566 86.240 230.566C87.400 230.566 88.560 230.086 89.520 229.446C90.760 228.646 91.680 227.526 92.520 226.206C93.120 225.286 93.520 224.286 93.960 223.286L94.120 222.966C94.560 221.966 94.920 220.926 95.280 219.926L96.120 217.606C96.400 216.846 96.680 216.006 97.040 215.286C97.560 214.286 97.560 214.286 98.920 214.286C102.600 214.286 102.600 214.286 102.600 214.286C103.080 214.286 103.280 214.286 103.280 214.646C103.280 214.886 103.160 215.366 102.920 216.246C102.840 216.566 100.440 225.446 100.200 226.086C99.840 227.006 99.200 227.926 98.440 228.566C98.240 228.726 98.040 228.886 97.760 228.966C97.600 229.046 97.440 229.046 97.320 229.046C96.960 229.046 96.760 228.926 96.720 228.926C97.280 228.806 97.640 228.446 97.760 228.366C98 228.086 98.200 227.646 98.200 227.246C98.200 226.646 97.960 225.926 97.440 225.646C97.160 225.486 96.800 225.366 96.440 225.366C96.240 225.366 96.080 225.406 95.960 225.446C95.600 225.566 95.200 225.806 94.960 226.086C94.560 226.566 94.320 227.246 94.320 227.886C94.320 228.606 94.560 229.286 95.040 229.766C95.280 230.006 95.640 230.246 95.920 230.366C96.320 230.486 96.800 230.566 97.240 230.566C98.400 230.566 99.560 230.086 100.520 229.446C101.760 228.646 102.680 227.526 103.520 226.206C104.120 225.286 104.520 224.286 104.960 223.286L105.120 222.966C105.560 221.966 105.920 220.926 106.280 219.926L107.120 217.606C107.400 216.846 107.680 216.006 108.040 215.286C108.560 214.286 108.560 214.286 109.920 214.286C113.520 214.286 113.520 214.286 113.520 214.286C114 214.286 114.200 214.286 114.200 214.646C114.200 214.886 114.080 215.366 113.840 216.246C113.760 216.566 111.360 225.446 111.120 226.086C110.760 227.006 110.120 227.926 109.360 228.566C109.160 228.726 108.960 228.886 108.680 228.966C108.520 229.046 108.360 229.046 108.240 229.046C107.880 229.046 107.680 228.926 107.640 228.926C108.200 228.806 108.560 228.446 108.680 228.366C108.920 228.086 109.120 227.646 109.120 227.246C109.120 226.646 108.880 225.926 108.360 225.646C108.080 225.486 107.720 225.366 107.360 225.366C107.160 225.366 107 225.406 106.880 225.446C106.520 225.566 106.120 225.806 105.880 226.086C105.480 226.566 105.240 227.246 105.240 227.886C105.240 228.606 105.480 229.286 105.960 229.766C106.200 230.006 106.560 230.246 106.840 230.366C107.240 230.486 107.720 230.566 108.160 230.566C109.320 230.566 110.480 230.086 111.440 229.446C112.680 228.646 113.600 227.526 114.440 226.206C115.040 225.286 115.440 224.286 115.880 223.286L116.040 222.966C116.480 221.966 116.840 220.926 117.200 219.926L118.040 217.606C118.320 216.846 118.600 216.006 118.960 215.286C119.480 214.286 119.480 214.286 120.840 214.286C124.520 214.286 124.520 214.286 124.520 214.286C125 214.286 125.200 214.286 125.200 214.646C125.200 214.886 125.080 215.366 124.840 216.246C124.760 216.566 122.360 225.446 122.120 226.086C121.760 227.006 121.120 227.926 120.360 228.566C120.160 228.726 119.960 228.886 119.680 228.966C119.520 229.046 119.360 229.046 119.240 229.046C118.880 229.046 118.680 228.926 118.640 228.926C119.200 228.806 119.560 228.446 119.680 228.366C119.920 228.086 120.120 227.646 120.120 227.246C120.120 226.646 119.880 225.926 119.360 225.646C119.080 225.486 118.720 225.366 118.360 225.366C118.160 225.366 118 225.406 117.880 225.446C117.520 225.566 117.120 225.806 116.880 226.086C116.480 226.566 116.240 227.246 116.240 227.886C116.240 228.606 116.480 229.286 116.960 229.766C117.200 230.006 117.560 230.246 117.840 230.366C118.240 230.486 118.720 230.566 119.160 230.566C120.320 230.566 121.480 230.086 122.440 229.446C123.680 228.646 124.600 227.526 125.440 226.206C126.040 225.286 126.440 224.286 126.880 223.286L127.040 222.966C127.480 221.966 127.840 220.926 128.200 219.926L129.040 217.606C129.320 216.846 129.600 216.006 129.960 215.286C130.480 214.286 130.480 214.286 131.840 214.286C133.480 214.286 133.480 214.286 133.480 214.286C134.240 214.286 134.240 214.246 134.240 213.366C134.240 212.526 134.240 212.526 133.520 212.526C132.160 212.526 132.160 212.526 132.160 212.526C131.280 212.526 130.920 212.526 130.920 212.126C130.920 211.886 131.040 211.446 131.280 210.806C132.040 208.766 132.680 207.046 135.120 206.926L135.280 206.926C135.440 206.926 135.600 206.966 135.640 207.166C135.640 207.446 135.640 207.566 135.520 207.646C135.400 207.766 135.200 207.806 135.080 207.846C134.720 208.006 134.480 208.286 134.320 208.566C134.080 208.886 133.960 209.286 133.960 209.686C133.960 210.846 134.560 211.166 135.440 211.166C136.280 211.166 137.600 209.926 137.680 208.446C137.680 206.886 136.680 205.726 134.680 205.646Z"></path><path d="M215.193 217.806C215.193 217.806 214.993 218.046 214.993 218.286C214.993 218.446 215.073 218.606 215.273 218.726C215.313 218.766 215.393 218.766 215.433 218.766C215.793 218.766 215.993 218.286 215.993 218.286C215.993 218.286 217.673 215.166 218.913 214.446C219.113 214.326 219.313 214.326 219.433 214.326C219.753 214.326 219.873 214.646 219.873 215.046C219.873 215.406 219.753 215.846 219.713 215.966C219.713 215.966 214.713 227.566 214.593 227.766C214.473 228.086 214.193 228.166 213.873 228.166L212.073 228.166C211.673 228.166 211.433 228.406 211.433 228.686C211.433 228.926 211.673 229.206 212.073 229.206L220.353 229.206C220.793 229.206 220.953 228.926 220.953 228.646C220.953 228.406 220.793 228.166 220.433 228.166L219.153 228.166C218.873 228.166 218.673 228.086 218.673 227.846C218.673 227.686 218.753 227.526 218.873 227.246C219.153 226.526 220.473 223.286 220.473 223.286C220.633 222.806 220.753 222.646 220.913 222.646C221.073 222.646 221.273 222.846 221.553 223.126C222.353 223.726 223.553 223.806 224.073 223.806L224.233 223.806C227.193 223.806 229.313 220.526 229.793 219.566C230.073 218.966 230.513 217.766 230.513 216.446C230.513 215.486 230.273 214.446 229.593 213.566C229.113 212.886 228.433 212.646 227.673 212.646C225.993 212.646 224.033 213.846 223.433 214.566C223.313 214.766 223.193 214.806 223.113 214.806C222.953 214.806 222.873 214.646 222.713 214.286L222.633 214.166C222.153 213.206 221.473 212.766 220.473 212.766C220.273 212.766 220.033 212.766 219.833 212.806C218.113 213.046 215.833 216.686 215.193 217.806ZM226.433 214.166C226.793 214.326 226.953 214.846 226.953 215.526C226.953 216.446 226.633 217.726 226.033 219.006C225.113 221.046 223.713 222.486 222.873 222.486C222.753 222.486 222.673 222.486 222.593 222.446C222.233 222.246 222.033 221.766 222.033 221.086C222.033 220.166 222.353 218.886 222.953 217.566C223.913 215.526 225.273 214.126 226.113 214.126C226.233 214.126 226.313 214.126 226.433 214.166Z"></path><g><line stroke="black" stroke-width="1.6" x1="257.7910951703878" x2="257.7910951703878" y1="143.3461538461538" y2="284.3461538461538"></line></g><g><g><line stroke="#6A6A6A" stroke-width="1.3" x1="0" x2="256.9910951703878" y1="283.8461538461538" y2="283.8461538461538"></line><line stroke="#6A6A6A" stroke-width="1.3" x1="0" x2="256.9910951703878" y1="273.8461538461538" y2="273.8461538461538"></line><line stroke="#6A6A6A" stroke-width="1.3" x1="0" x2="256.9910951703878" y1="263.8461538461538" y2="263.8461538461538"></line><line stroke="#6A6A6A" stroke-width="1.3" x1="0" x2="256.9910951703878" y1="253.8461538461538" y2="253.8461538461538"></line><line stroke="#6A6A6A" stroke-width="1.3" x1="0" x2="256.9910951703878" y1="243.8461538461538" y2="243.8461538461538"></line></g><g><path d="M17.080 243.366C10.120 243.366 7 248.446 7 252.286C7 255.486 8.680 258.246 11.920 258.246C14.440 258.246 16.160 256.486 16.160 254.006C16.160 251.446 14.280 249.846 12.320 249.846C11.240 249.846 10.840 250.126 10.320 250.126C9.800 250.126 9.680 249.806 9.680 249.406C9.680 247.806 12.080 244.886 16.160 244.886C20.400 244.886 22.240 249.046 22.240 255.326C22.240 259.446 21.360 264.246 18.880 268.086C16.480 271.806 12.360 275.206 7.400 278.046C7.040 278.246 6.800 278.446 6.800 278.766C6.800 279.006 6.960 279.246 7.320 279.246C7.520 279.246 7.760 279.166 8 279.046C13.320 276.446 18.440 273.406 22.680 268.846C26.160 265.086 28.240 260.206 28.240 254.966C28.240 248.006 24 243.366 17.080 243.366ZM32.200 256.686C30.960 256.686 30.040 257.606 30.040 258.846C30.040 260.086 30.960 261.006 32.200 261.006C33.440 261.006 34.360 260.086 34.360 258.846C34.360 257.606 33.440 256.686 32.200 256.686ZM32.160 246.646C30.920 246.646 29.960 247.606 29.960 248.846C29.960 250.086 30.920 251.046 32.160 251.046C33.400 251.046 34.360 250.086 34.360 248.846C34.360 247.606 33.400 246.646 32.160 246.646Z"></path></g><g></g><path d="M57.820 253.806C56.620 253.806 55.220 254.126 54.140 254.606C50.580 256.166 48.700 260.446 48.700 264.246C48.700 264.606 48.700 264.966 48.740 265.326C48.940 267.486 49.980 269.526 51.300 271.126C52.820 272.966 55.020 273.806 57.420 273.806C64.420 273.806 65.460 267.446 65.460 266.286C65.460 265.406 65.020 265.406 64.860 265.406C64.540 265.406 64.260 265.446 64.260 266.126C64.260 271.286 59.860 272.486 58.580 272.486C55.340 272.486 53.620 269.326 53.620 262.726C53.620 256.126 56.660 254.766 58.820 254.766C60.900 254.766 61.740 255.726 61.740 256.126C61.740 256.486 61.620 257.006 61.020 257.006C59.420 257.006 58.500 258.726 58.500 259.966C58.500 262.246 60.460 262.966 61.580 262.966C61.580 262.966 64.620 262.846 64.620 259.526C64.620 254.286 58.580 253.806 57.820 253.806Z"></path></g><g><line stroke="black" stroke-width="1.6" x1="257.7910951703878" x2="257.7910951703878" y1="143.3461538461538" y2="284.3461538461538"></line></g><g><g><path d="M93.360 164.486C97.360 164.486 102.280 160.766 102.280 156.966C102.280 154.686 100.480 153.206 97.880 153.206C92.960 153.206 89 156.846 89 160.726C89 163.086 90.920 164.486 93.360 164.486Z"></path></g><line stroke="#000000" stroke-width="1.2" x1="89.6" x2="89.6" y1="160.68615384615381" y2="198.68615384615381"></line></g><g><g><path d="M135.358 169.486C139.358 169.486 144.278 165.766 144.278 161.966C144.278 159.686 142.478 158.206 139.878 158.206C134.958 158.206 130.998 161.846 130.998 165.726C130.998 168.086 132.918 169.486 135.358 169.486Z"></path></g><line stroke="#000000" stroke-width="1.2" x1="131.59777379259694" x2="131.59777379259694" y1="165.68615384615381" y2="200.68615384615381"></line></g><g><g><path d="M177.356 174.486C181.356 174.486 186.276 170.766 186.276 166.966C186.276 164.686 184.476 163.206 181.876 163.206C176.956 163.206 172.996 166.846 172.996 170.726C172.996 173.086 174.916 174.486 177.356 174.486Z"></path></g><line stroke="#000000" stroke-width="1.2" x1="185.6755475851939" x2="185.6755475851939" y1="167.0061538461538" y2="129.0061538461538"></line></g><g><g><path d="M219.353 179.486C223.353 179.486 228.273 175.766 228.273 171.966C228.273 169.686 226.473 168.206 223.873 168.206C218.953 168.206 214.993 171.846 214.993 175.726C214.993 178.086 216.913 179.486 219.353 179.486Z"></path></g><line stroke="#000000" stroke-width="1.2" x1="227.67332137779084" x2="227.67332137779084" y1="172.0061538461538" y2="137.0061538461538"></line></g><g><g><path d="M93.360 284.486C97.360 284.486 102.280 280.766 102.280 276.966C102.280 274.686 100.480 273.206 97.880 273.206C92.960 273.206 89 276.846 89 280.726C89 283.086 90.920 284.486 93.360 284.486Z"></path></g><line stroke="#000000" stroke-width="1.2" x1="101.68" x2="101.68" y1="277.00615384615384" y2="239.00615384615384"></line></g><g><g><path d="M135.358 279.486C139.358 279.486 144.278 275.766 144.278 271.966C144.278 269.686 142.478 268.206 139.878 268.206C134.958 268.206 130.998 271.846 130.998 275.726C130.998 278.086 132.918 279.486 135.358 279.486Z"></path></g><line stroke="#000000" stroke-width="1.2" x1="143.67777379259695" x2="143.67777379259695" y1="272.00615384615384" y2="237.00615384615384"></line></g><g><g><path d="M177.356 274.486C181.356 274.486 186.276 270.766 186.276 266.966C186.276 264.686 184.476 263.206 181.876 263.206C176.956 263.206 172.996 266.846 172.996 270.726C172.996 273.086 174.916 274.486 177.356 274.486Z"></path></g><line stroke="#000000" stroke-width="1.2" x1="185.6755475851939" x2="185.6755475851939" y1="267.00615384615384" y2="229.00615384615384"></line></g><g><g><path d="M219.353 269.486C223.353 269.486 228.273 265.766 228.273 261.966C228.273 259.686 226.473 258.206 223.873 258.206C218.953 258.206 214.993 261.846 214.993 265.726C214.993 268.086 216.913 269.486 219.353 269.486Z"></path></g><line stroke="#000000" stroke-width="1.2" x1="227.67332137779084" x2="227.67332137779084" y1="262.00615384615384" y2="227.00615384615384"></line></g></g><g transform="translate(367.4372490165416)"><g><g><line stroke="#6A6A6A" stroke-width="1.3" x1="-16.600000000000023" x2="234.45109517038782" y1="183.8461538461538" y2="183.8461538461538"></line><line stroke="#6A6A6A" stroke-width="1.3" x1="-16.600000000000023" x2="234.45109517038782" y1="173.8461538461538" y2="173.8461538461538"></line><line stroke="#6A6A6A" stroke-width="1.3" x1="-16.600000000000023" x2="234.45109517038782" y1="163.8461538461538" y2="163.8461538461538"></line><line stroke="#6A6A6A" stroke-width="1.3" x1="-16.600000000000023" x2="234.45109517038782" y1="153.8461538461538" y2="153.8461538461538"></line><line stroke="#6A6A6A" stroke-width="1.3" x1="-16.600000000000023" x2="234.45109517038782" y1="143.8461538461538" y2="143.8461538461538"></line></g><g><path d="M16.480 139.126C16.760 139.006 16.960 138.686 16.960 138.446L16.960 135.606C16.960 135.406 16.840 135.286 16.680 135.286C16.600 135.286 16.560 135.286 16.480 135.326C16.480 135.326 15.680 135.646 15.480 135.686C15.200 135.686 14.920 135.486 14.920 135.166C14.920 134.766 14.920 130.286 14.920 130.286C14.920 130.046 14.680 129.846 14.360 129.846C13.960 129.846 13.720 130.046 13.720 130.286C13.720 130.286 13.720 135.086 13.720 135.486C13.680 135.886 13.560 136.406 13.200 136.646C12.720 136.926 11.360 137.486 10.680 137.646C10.320 137.646 10.200 137.166 10.200 136.846C10.200 136.446 10.200 132.046 10.200 132.046C10.200 131.806 9.920 131.606 9.640 131.606C9.240 131.606 9 131.806 9 132.046C9 132.046 9 134.206 9 135.806L9 137.446C9 138.006 8.760 138.406 8.520 138.526C8.280 138.646 7.480 138.966 7.480 138.966C7.200 139.046 7 139.366 7 139.606L7 142.446C7 142.686 7.120 142.806 7.320 142.806C7.360 142.806 7.440 142.766 7.480 142.766C7.480 142.766 8.080 142.526 8.360 142.366C8.400 142.366 8.440 142.326 8.480 142.326C8.760 142.326 9 142.726 9 143.046L9 147.006C9 147.446 8.800 147.806 8.560 147.926C8.320 148.006 7.480 148.366 7.480 148.366C7.200 148.446 7 148.766 7 149.006L7 151.846C7 152.086 7.120 152.206 7.320 152.206C7.360 152.206 7.440 152.166 7.480 152.166C7.480 152.166 8.040 151.926 8.400 151.806C8.440 151.766 8.480 151.766 8.520 151.766C8.800 151.766 9 152.206 9 152.406C9 152.646 9 157.326 9 157.326C9 157.566 9.240 157.766 9.520 157.766C9.920 157.766 10.200 157.566 10.200 157.326C10.200 157.326 10.200 152.246 10.200 151.766C10.200 151.246 10.400 150.966 10.600 150.886L13.040 149.886C13.080 149.886 13.160 149.846 13.200 149.846C13.520 149.846 13.720 150.326 13.720 150.566C13.720 150.846 13.720 155.566 13.720 155.566C13.720 155.806 13.960 156.006 14.240 156.006C14.680 156.006 14.920 155.806 14.920 155.566C14.920 155.566 14.920 150.166 14.920 149.886C14.920 149.566 15.080 149.086 15.360 148.966C15.640 148.846 16.480 148.526 16.480 148.526C16.760 148.406 16.960 148.086 16.960 147.846L16.960 145.006C16.960 144.806 16.840 144.686 16.680 144.686C16.600 144.686 16.560 144.686 16.480 144.726C16.480 144.726 15.640 145.046 15.440 145.126C15.200 145.126 14.920 144.886 14.920 144.406L14.920 140.686C14.920 140.406 15.120 139.646 15.440 139.526C15.760 139.406 16.480 139.126 16.480 139.126ZM13.720 145.646C13.480 146.446 11.600 147.246 10.680 147.246C10.440 147.246 10.240 147.166 10.200 147.046C10.120 146.886 10.080 146.006 10.080 145.046C10.080 143.806 10.120 142.406 10.200 142.086C10.280 141.406 12.120 140.566 13.120 140.566C13.400 140.566 13.640 140.646 13.720 140.806C13.800 141.006 13.880 142.006 13.880 143.086C13.880 144.166 13.800 145.286 13.720 145.646Z"></path><path d="M27.480 154.126C27.760 154.006 27.960 153.686 27.960 153.446L27.960 150.606C27.960 150.406 27.840 150.286 27.680 150.286C27.600 150.286 27.560 150.286 27.480 150.326C27.480 150.326 26.680 150.646 26.480 150.686C26.200 150.686 25.920 150.486 25.920 150.166C25.920 149.766 25.920 145.286 25.920 145.286C25.920 145.046 25.680 144.846 25.360 144.846C24.960 144.846 24.720 145.046 24.720 145.286C24.720 145.286 24.720 150.086 24.720 150.486C24.680 150.886 24.560 151.406 24.200 151.646C23.720 151.926 22.360 152.486 21.680 152.646C21.320 152.646 21.200 152.166 21.200 151.846C21.200 151.446 21.200 147.046 21.200 147.046C21.200 146.806 20.920 146.606 20.640 146.606C20.240 146.606 20 146.806 20 147.046C20 147.046 20 149.206 20 150.806L20 152.446C20 153.006 19.760 153.406 19.520 153.526C19.280 153.646 18.480 153.966 18.480 153.966C18.200 154.046 18 154.366 18 154.606L18 157.446C18 157.686 18.120 157.806 18.320 157.806C18.360 157.806 18.440 157.766 18.480 157.766C18.480 157.766 19.080 157.526 19.360 157.366C19.400 157.366 19.440 157.326 19.480 157.326C19.760 157.326 20 157.726 20 158.046L20 162.006C20 162.446 19.800 162.806 19.560 162.926C19.320 163.006 18.480 163.366 18.480 163.366C18.200 163.446 18 163.766 18 164.006L18 166.846C18 167.086 18.120 167.206 18.320 167.206C18.360 167.206 18.440 167.166 18.480 167.166C18.480 167.166 19.040 166.926 19.400 166.806C19.440 166.766 19.480 166.766 19.520 166.766C19.800 166.766 20 167.206 20 167.406C20 167.646 20 172.326 20 172.326C20 172.566 20.240 172.766 20.520 172.766C20.920 172.766 21.200 172.566 21.200 172.326C21.200 172.326 21.200 167.246 21.200 166.766C21.200 166.246 21.400 165.966 21.600 165.886L24.040 164.886C24.080 164.886 24.160 164.846 24.200 164.846C24.520 164.846 24.720 165.326 24.720 165.566C24.720 165.846 24.720 170.566 24.720 170.566C24.720 170.806 24.960 171.006 25.240 171.006C25.680 171.006 25.920 170.806 25.920 170.566C25.920 170.566 25.920 165.166 25.920 164.886C25.920 164.566 26.080 164.086 26.360 163.966C26.640 163.846 27.480 163.526 27.480 163.526C27.760 163.406 27.960 163.086 27.960 162.846L27.960 160.006C27.960 159.806 27.840 159.686 27.680 159.686C27.600 159.686 27.560 159.686 27.480 159.726C27.480 159.726 26.640 160.046 26.440 160.126C26.200 160.126 25.920 159.886 25.920 159.406L25.920 155.686C25.920 155.406 26.120 154.646 26.440 154.526C26.760 154.406 27.480 154.126 27.480 154.126ZM24.720 160.646C24.480 161.446 22.600 162.246 21.680 162.246C21.440 162.246 21.240 162.166 21.200 162.046C21.120 161.886 21.080 161.006 21.080 160.046C21.080 158.806 21.120 157.406 21.200 157.086C21.280 156.406 23.120 155.566 24.120 155.566C24.400 155.566 24.640 155.646 24.720 155.806C24.800 156.006 24.880 157.006 24.880 158.086C24.880 159.166 24.800 160.286 24.720 160.646Z"></path></g></g><g><line stroke="black" stroke-width="1.6" x1="235.2510951703878" x2="235.2510951703878" y1="143.3461538461538" y2="284.3461538461538"></line></g><g><g><line stroke="#6A6A6A" stroke-width="1.3" x1="-16.600000000000023" x2="234.45109517038782" y1="283.8461538461538" y2="283.8461538461538"></line><line stroke="#6A6A6A" stroke-width="1.3" x1="-16.600000000000023" x2="234.45109517038782" y1="273.8461538461538" y2="273.8461538461538"></line><line stroke="#6A6A6A" stroke-width="1.3" x1="-16.600000000000023" x2="234.45109517038782" y1="263.8461538461538" y2="263.8461538461538"></line><line stroke="#6A6A6A" stroke-width="1.3" x1="-16.600000000000023" x2="234.45109517038782" y1="253.8461538461538" y2="253.8461538461538"></line><line stroke="#6A6A6A" stroke-width="1.3" x1="-16.600000000000023" x2="234.45109517038782" y1="243.8461538461538" y2="243.8461538461538"></line></g><g><path d="M14.100 273.806C13.860 270.446 11.380 267.806 8.020 267.806L7.740 267.806C7.660 267.806 7.500 267.806 7.420 267.846C7.140 266.126 7.020 265.726 6.740 264.286C10.260 261.046 11.540 257.726 11.540 253.086C11.540 251.446 11.140 249.766 10.380 248.086C9.380 245.726 8.420 245.566 8.420 245.566C5.940 246.686 4.180 250.646 4.180 255.406C4.180 256.246 4.220 257.126 4.380 258.046L4.700 259.726C0.820 263.006-3.500 266.886-3.500 271.926C-3.500 272.166-3.500 272.446-3.460 272.726C-2.980 279.086 1.980 281.086 6.260 281.086C7.060 281.086 7.620 280.966 8.180 280.966L8.700 283.806C8.820 284.446 8.980 285.926 8.980 286.446C8.980 290.726 5.780 290.766 5.460 290.766L4.940 290.766C4.060 290.766 3.300 290.646 2.740 290.246C2.580 290.126 2.500 290.046 2.500 289.966C2.500 289.846 2.620 289.806 2.740 289.726C2.980 289.686 3.180 289.686 3.420 289.566C4.500 289.246 5.940 288.406 5.940 286.846C5.940 286.846 5.940 286.646 5.940 286.646C5.940 285.526 5.460 284.486 4.380 284.046C3.980 283.846 3.620 283.766 3.220 283.766C1.660 283.766 0.220 285.006 0.020 286.646C-0.020 286.646-0.100 287.046-0.100 287.566C-0.100 289.046 0.580 292.046 4.900 292.046C5.060 292.046 5.300 292.006 5.500 292.006C7.340 291.886 10.300 290.446 10.300 286.326C10.300 284.326 9.740 282.446 9.460 280.606C12.380 279.526 14.100 277.126 14.100 274.206ZM8.620 250.726C9.500 250.726 10.060 251.406 10.060 252.846C10.060 253.006 10.060 253.206 10.020 253.406C9.700 255.566 8.580 256.566 5.780 258.726C5.700 258.086 5.580 257.566 5.580 257.406C5.540 257.126 5.540 256.806 5.540 256.486C5.540 253.766 6.540 250.806 8.620 250.726ZM-1.060 274.046C-1.060 269.686 2.100 267.446 5.540 264.886L6.020 268.046C3.660 268.726 1.820 270.966 1.820 273.326C1.820 273.726 1.860 274.126 1.980 274.486C2.380 276.246 3.540 277.566 4.780 277.966C5.020 278.046 5.220 278.086 5.340 278.086C5.540 278.086 5.660 277.966 5.660 277.846C5.660 277.686 5.460 277.486 5.260 277.366C4.740 277.166 3.820 276.126 3.780 275.046L3.780 274.806C3.780 272.966 5.220 272.326 6.620 272.046L7.980 279.566C7.580 279.726 7.020 279.806 6.260 279.806C3.420 279.806-0.900 278.846-1.060 274.286ZM9.260 279.286C8.860 276.926 8.700 274.886 8.140 271.926C10.340 271.926 11.820 273.206 11.940 275.406L11.940 275.686C11.940 277.526 11.140 278.486 9.260 279.286Z"></path></g><g><path d="M33.180 239.126C33.460 239.006 33.660 238.686 33.660 238.446L33.660 235.606C33.660 235.406 33.540 235.286 33.380 235.286C33.300 235.286 33.260 235.286 33.180 235.326C33.180 235.326 32.380 235.646 32.180 235.686C31.900 235.686 31.620 235.486 31.620 235.166C31.620 234.766 31.620 230.286 31.620 230.286C31.620 230.046 31.380 229.846 31.060 229.846C30.660 229.846 30.420 230.046 30.420 230.286C30.420 230.286 30.420 235.086 30.420 235.486C30.380 235.886 30.260 236.406 29.900 236.646C29.420 236.926 28.060 237.486 27.380 237.646C27.020 237.646 26.900 237.166 26.900 236.846C26.900 236.446 26.900 232.046 26.900 232.046C26.900 231.806 26.620 231.606 26.340 231.606C25.940 231.606 25.700 231.806 25.700 232.046C25.700 232.046 25.700 234.206 25.700 235.806L25.700 237.446C25.700 238.006 25.460 238.406 25.220 238.526C24.980 238.646 24.180 238.966 24.180 238.966C23.900 239.046 23.700 239.366 23.700 239.606L23.700 242.446C23.700 242.686 23.820 242.806 24.020 242.806C24.060 242.806 24.140 242.766 24.180 242.766C24.180 242.766 24.780 242.526 25.060 242.366C25.100 242.366 25.140 242.326 25.180 242.326C25.460 242.326 25.700 242.726 25.700 243.046L25.700 247.006C25.700 247.446 25.500 247.806 25.260 247.926C25.020 248.006 24.180 248.366 24.180 248.366C23.900 248.446 23.700 248.766 23.700 249.006L23.700 251.846C23.700 252.086 23.820 252.206 24.020 252.206C24.060 252.206 24.140 252.166 24.180 252.166C24.180 252.166 24.740 251.926 25.100 251.806C25.140 251.766 25.180 251.766 25.220 251.766C25.500 251.766 25.700 252.206 25.700 252.406C25.700 252.646 25.700 257.326 25.700 257.326C25.700 257.566 25.940 257.766 26.220 257.766C26.620 257.766 26.900 257.566 26.900 257.326C26.900 257.326 26.900 252.246 26.900 251.766C26.900 251.246 27.100 250.966 27.300 250.886L29.740 249.886C29.780 249.886 29.860 249.846 29.900 249.846C30.220 249.846 30.420 250.326 30.420 250.566C30.420 250.846 30.420 255.566 30.420 255.566C30.420 255.806 30.660 256.006 30.940 256.006C31.380 256.006 31.620 255.806 31.620 255.566C31.620 255.566 31.620 250.166 31.620 249.886C31.620 249.566 31.780 249.086 32.060 248.966C32.340 248.846 33.180 248.526 33.180 248.526C33.460 248.406 33.660 248.086 33.660 247.846L33.660 245.006C33.660 244.806 33.540 244.686 33.380 244.686C33.300 244.686 33.260 244.686 33.180 244.726C33.180 244.726 32.340 245.046 32.140 245.126C31.900 245.126 31.620 244.886 31.620 244.406L31.620 240.686C31.620 240.406 31.820 239.646 32.140 239.526C32.460 239.406 33.180 239.126 33.180 239.126ZM30.420 245.646C30.180 246.446 28.300 247.246 27.380 247.246C27.140 247.246 26.940 247.166 26.900 247.046C26.820 246.886 26.780 246.006 26.780 245.046C26.780 243.806 26.820 242.406 26.900 242.086C26.980 241.406 28.820 240.566 29.820 240.566C30.100 240.566 30.340 240.646 30.420 240.806C30.500 241.006 30.580 242.006 30.580 243.086C30.580 244.166 30.500 245.286 30.420 245.646Z"></path><path d="M44.180 254.126C44.460 254.006 44.660 253.686 44.660 253.446L44.660 250.606C44.660 250.406 44.540 250.286 44.380 250.286C44.300 250.286 44.260 250.286 44.180 250.326C44.180 250.326 43.380 250.646 43.180 250.686C42.900 250.686 42.620 250.486 42.620 250.166C42.620 249.766 42.620 245.286 42.620 245.286C42.620 245.046 42.380 244.846 42.060 244.846C41.660 244.846 41.420 245.046 41.420 245.286C41.420 245.286 41.420 250.086 41.420 250.486C41.380 250.886 41.260 251.406 40.900 251.646C40.420 251.926 39.060 252.486 38.380 252.646C38.020 252.646 37.900 252.166 37.900 251.846C37.900 251.446 37.900 247.046 37.900 247.046C37.900 246.806 37.620 246.606 37.340 246.606C36.940 246.606 36.700 246.806 36.700 247.046C36.700 247.046 36.700 249.206 36.700 250.806L36.700 252.446C36.700 253.006 36.460 253.406 36.220 253.526C35.980 253.646 35.180 253.966 35.180 253.966C34.900 254.046 34.700 254.366 34.700 254.606L34.700 257.446C34.700 257.686 34.820 257.806 35.020 257.806C35.060 257.806 35.140 257.766 35.180 257.766C35.180 257.766 35.780 257.526 36.060 257.366C36.100 257.366 36.140 257.326 36.180 257.326C36.460 257.326 36.700 257.726 36.700 258.046L36.700 262.006C36.700 262.446 36.500 262.806 36.260 262.926C36.020 263.006 35.180 263.366 35.180 263.366C34.900 263.446 34.700 263.766 34.700 264.006L34.700 266.846C34.700 267.086 34.820 267.206 35.020 267.206C35.060 267.206 35.140 267.166 35.180 267.166C35.180 267.166 35.740 266.926 36.100 266.806C36.140 266.766 36.180 266.766 36.220 266.766C36.500 266.766 36.700 267.206 36.700 267.406C36.700 267.646 36.700 272.326 36.700 272.326C36.700 272.566 36.940 272.766 37.220 272.766C37.620 272.766 37.900 272.566 37.900 272.326C37.900 272.326 37.900 267.246 37.900 266.766C37.900 266.246 38.100 265.966 38.300 265.886L40.740 264.886C40.780 264.886 40.860 264.846 40.900 264.846C41.220 264.846 41.420 265.326 41.420 265.566C41.420 265.846 41.420 270.566 41.420 270.566C41.420 270.806 41.660 271.006 41.940 271.006C42.380 271.006 42.620 270.806 42.620 270.566C42.620 270.566 42.620 265.166 42.620 264.886C42.620 264.566 42.780 264.086 43.060 263.966C43.340 263.846 44.180 263.526 44.180 263.526C44.460 263.406 44.660 263.086 44.660 262.846L44.660 260.006C44.660 259.806 44.540 259.686 44.380 259.686C44.300 259.686 44.260 259.686 44.180 259.726C44.180 259.726 43.340 260.046 43.140 260.126C42.900 260.126 42.620 259.886 42.620 259.406L42.620 255.686C42.620 255.406 42.820 254.646 43.140 254.526C43.460 254.406 44.180 254.126 44.180 254.126ZM41.420 260.646C41.180 261.446 39.300 262.246 38.380 262.246C38.140 262.246 37.940 262.166 37.900 262.046C37.820 261.886 37.780 261.006 37.780 260.046C37.780 258.806 37.820 257.406 37.900 257.086C37.980 256.406 39.820 255.566 40.820 255.566C41.100 255.566 41.340 255.646 41.420 255.806C41.500 256.006 41.580 257.006 41.580 258.086C41.580 259.166 41.500 260.286 41.420 260.646Z"></path></g></g><g><line stroke="black" stroke-width="1.6" x1="235.2510951703878" x2="235.2510951703878" y1="143.3461538461538" y2="284.3461538461538"></line></g><g><g><path d="M70.820 174.486C74.820 174.486 79.740 170.766 79.740 166.966C79.740 164.686 77.940 163.206 75.340 163.206C70.420 163.206 66.460 166.846 66.460 170.726C66.460 173.086 68.380 174.486 70.820 174.486Z"></path></g><line stroke="#000000" stroke-width="1.2" x1="79.14000000000001" x2="79.14000000000001" y1="167.0061538461538" y2="129.0061538461538"></line></g><g><g><path d="M112.818 169.486C116.818 169.486 121.738 165.766 121.738 161.966C121.738 159.686 119.938 158.206 117.338 158.206C112.418 158.206 108.458 161.846 108.458 165.726C108.458 168.086 110.378 169.486 112.818 169.486Z"></path></g><line stroke="#000000" stroke-width="1.2" x1="121.13777379259696" x2="121.13777379259696" y1="162.0061538461538" y2="127.00615384615381"></line></g><g><g><path d="M154.816 164.486C158.816 164.486 163.736 160.766 163.736 156.966C163.736 154.686 161.936 153.206 159.336 153.206C154.416 153.206 150.456 156.846 150.456 160.726C150.456 163.086 152.376 164.486 154.816 164.486Z"></path><path d="M147.936 154.126C148.216 154.006 148.416 153.686 148.416 153.446L148.416 150.606C148.416 150.406 148.296 150.286 148.136 150.286C148.056 150.286 148.016 150.286 147.936 150.326C147.936 150.326 147.136 150.646 146.936 150.686C146.656 150.686 146.376 150.486 146.376 150.166C146.376 149.766 146.376 145.286 146.376 145.286C146.376 145.046 146.136 144.846 145.816 144.846C145.416 144.846 145.176 145.046 145.176 145.286C145.176 145.286 145.176 150.086 145.176 150.486C145.136 150.886 145.016 151.406 144.656 151.646C144.176 151.926 142.816 152.486 142.136 152.646C141.776 152.646 141.656 152.166 141.656 151.846C141.656 151.446 141.656 147.046 141.656 147.046C141.656 146.806 141.376 146.606 141.096 146.606C140.696 146.606 140.456 146.806 140.456 147.046C140.456 147.046 140.456 149.206 140.456 150.806L140.456 152.446C140.456 153.006 140.216 153.406 139.976 153.526C139.736 153.646 138.936 153.966 138.936 153.966C138.656 154.046 138.456 154.366 138.456 154.606L138.456 157.446C138.456 157.686 138.576 157.806 138.776 157.806C138.816 157.806 138.896 157.766 138.936 157.766C138.936 157.766 139.536 157.526 139.816 157.366C139.856 157.366 139.896 157.326 139.936 157.326C140.216 157.326 140.456 157.726 140.456 158.046L140.456 162.006C140.456 162.446 140.256 162.806 140.016 162.926C139.776 163.006 138.936 163.366 138.936 163.366C138.656 163.446 138.456 163.766 138.456 164.006L138.456 166.846C138.456 167.086 138.576 167.206 138.776 167.206C138.816 167.206 138.896 167.166 138.936 167.166C138.936 167.166 139.496 166.926 139.856 166.806C139.896 166.766 139.936 166.766 139.976 166.766C140.256 166.766 140.456 167.206 140.456 167.406C140.456 167.646 140.456 172.326 140.456 172.326C140.456 172.566 140.696 172.766 140.976 172.766C141.376 172.766 141.656 172.566 141.656 172.326C141.656 172.326 141.656 167.246 141.656 166.766C141.656 166.246 141.856 165.966 142.056 165.886L144.496 164.886C144.536 164.886 144.616 164.846 144.656 164.846C144.976 164.846 145.176 165.326 145.176 165.566C145.176 165.846 145.176 170.566 145.176 170.566C145.176 170.806 145.416 171.006 145.696 171.006C146.136 171.006 146.376 170.806 146.376 170.566C146.376 170.566 146.376 165.166 146.376 164.886C146.376 164.566 146.536 164.086 146.816 163.966C147.096 163.846 147.936 163.526 147.936 163.526C148.216 163.406 148.416 163.086 148.416 162.846L148.416 160.006C148.416 159.806 148.296 159.686 148.136 159.686C148.056 159.686 148.016 159.686 147.936 159.726C147.936 159.726 147.096 160.046 146.896 160.126C146.656 160.126 146.376 159.886 146.376 159.406L146.376 155.686C146.376 155.406 146.576 154.646 146.896 154.526C147.216 154.406 147.936 154.126 147.936 154.126ZM145.176 160.646C144.936 161.446 143.056 162.246 142.136 162.246C141.896 162.246 141.696 162.166 141.656 162.046C141.576 161.886 141.536 161.006 141.536 160.046C141.536 158.806 141.576 157.406 141.656 157.086C141.736 156.406 143.576 155.566 144.576 155.566C144.856 155.566 145.096 155.646 145.176 155.806C145.256 156.006 145.336 157.006 145.336 158.086C145.336 159.166 145.256 160.286 145.176 160.646Z"></path></g><line stroke="#000000" stroke-width="1.2" x1="151.05554758519386" x2="151.05554758519386" y1="160.68615384615381" y2="198.68615384615381"></line></g><g><g><path d="M196.813 159.486C200.813 159.486 205.733 155.766 205.733 151.966C205.733 149.686 203.933 148.206 201.333 148.206C196.413 148.206 192.453 151.846 192.453 155.726C192.453 158.086 194.373 159.486 196.813 159.486Z"></path></g><line stroke="#000000" stroke-width="1.2" x1="193.05332137779084" x2="193.05332137779084" y1="155.68615384615381" y2="190.68615384615381"></line></g><g><g><path d="M70.820 284.486C74.820 284.486 79.740 280.766 79.740 276.966C79.740 274.686 77.940 273.206 75.340 273.206C70.420 273.206 66.460 276.846 66.460 280.726C66.460 283.086 68.380 284.486 70.820 284.486Z"></path><path d="M63.940 274.126C64.220 274.006 64.420 273.686 64.420 273.446L64.420 270.606C64.420 270.406 64.300 270.286 64.140 270.286C64.060 270.286 64.020 270.286 63.940 270.326C63.940 270.326 63.140 270.646 62.940 270.686C62.660 270.686 62.380 270.486 62.380 270.166C62.380 269.766 62.380 265.286 62.380 265.286C62.380 265.046 62.140 264.846 61.820 264.846C61.420 264.846 61.180 265.046 61.180 265.286C61.180 265.286 61.180 270.086 61.180 270.486C61.140 270.886 61.020 271.406 60.660 271.646C60.180 271.926 58.820 272.486 58.140 272.646C57.780 272.646 57.660 272.166 57.660 271.846C57.660 271.446 57.660 267.046 57.660 267.046C57.660 266.806 57.380 266.606 57.100 266.606C56.700 266.606 56.460 266.806 56.460 267.046C56.460 267.046 56.460 269.206 56.460 270.806L56.460 272.446C56.460 273.006 56.220 273.406 55.980 273.526C55.740 273.646 54.940 273.966 54.940 273.966C54.660 274.046 54.460 274.366 54.460 274.606L54.460 277.446C54.460 277.686 54.580 277.806 54.780 277.806C54.820 277.806 54.900 277.766 54.940 277.766C54.940 277.766 55.540 277.526 55.820 277.366C55.860 277.366 55.900 277.326 55.940 277.326C56.220 277.326 56.460 277.726 56.460 278.046L56.460 282.006C56.460 282.446 56.260 282.806 56.020 282.926C55.780 283.006 54.940 283.366 54.940 283.366C54.660 283.446 54.460 283.766 54.460 284.006L54.460 286.846C54.460 287.086 54.580 287.206 54.780 287.206C54.820 287.206 54.900 287.166 54.940 287.166C54.940 287.166 55.500 286.926 55.860 286.806C55.900 286.766 55.940 286.766 55.980 286.766C56.260 286.766 56.460 287.206 56.460 287.406C56.460 287.646 56.460 292.326 56.460 292.326C56.460 292.566 56.700 292.766 56.980 292.766C57.380 292.766 57.660 292.566 57.660 292.326C57.660 292.326 57.660 287.246 57.660 286.766C57.660 286.246 57.860 285.966 58.060 285.886L60.500 284.886C60.540 284.886 60.620 284.846 60.660 284.846C60.980 284.846 61.180 285.326 61.180 285.566C61.180 285.846 61.180 290.566 61.180 290.566C61.180 290.806 61.420 291.006 61.700 291.006C62.140 291.006 62.380 290.806 62.380 290.566C62.380 290.566 62.380 285.166 62.380 284.886C62.380 284.566 62.540 284.086 62.820 283.966C63.100 283.846 63.940 283.526 63.940 283.526C64.220 283.406 64.420 283.086 64.420 282.846L64.420 280.006C64.420 279.806 64.300 279.686 64.140 279.686C64.060 279.686 64.020 279.686 63.940 279.726C63.940 279.726 63.100 280.046 62.900 280.126C62.660 280.126 62.380 279.886 62.380 279.406L62.380 275.686C62.380 275.406 62.580 274.646 62.900 274.526C63.220 274.406 63.940 274.126 63.940 274.126ZM61.180 280.646C60.940 281.446 59.060 282.246 58.140 282.246C57.900 282.246 57.700 282.166 57.660 282.046C57.580 281.886 57.540 281.006 57.540 280.046C57.540 278.806 57.580 277.406 57.660 277.086C57.740 276.406 59.580 275.566 60.580 275.566C60.860 275.566 61.100 275.646 61.180 275.806C61.260 276.006 61.340 277.006 61.340 278.086C61.340 279.166 61.260 280.286 61.180 280.646Z"></path></g><line stroke="#000000" stroke-width="1.2" x1="79.14000000000001" x2="79.14000000000001" y1="277.00615384615384" y2="239.00615384615384"></line></g><g><g><path d="M112.818 279.486C116.818 279.486 121.738 275.766 121.738 271.966C121.738 269.686 119.938 268.206 117.338 268.206C112.418 268.206 108.458 271.846 108.458 275.726C108.458 278.086 110.378 279.486 112.818 279.486Z"></path></g><line stroke="#000000" stroke-width="1.2" x1="121.13777379259696" x2="121.13777379259696" y1="272.00615384615384" y2="237.00615384615384"></line></g><g><g><path d="M154.816 274.486C158.816 274.486 163.736 270.766 163.736 266.966C163.736 264.686 161.936 263.206 159.336 263.206C154.416 263.206 150.456 266.846 150.456 270.726C150.456 273.086 152.376 274.486 154.816 274.486Z"></path></g><line stroke="#000000" stroke-width="1.2" x1="163.13554758519388" x2="163.13554758519388" y1="267.00615384615384" y2="229.00615384615384"></line></g><g><g><path d="M196.813 269.486C200.813 269.486 205.733 265.766 205.733 261.966C205.733 259.686 203.933 258.206 201.333 258.206C196.413 258.206 192.453 261.846 192.453 265.726C192.453 268.086 194.373 269.486 196.813 269.486Z"></path></g><line stroke="#000000" stroke-width="1.2" x1="205.13332137779085" x2="205.13332137779085" y1="262.00615384615384" y2="227.00615384615384"></line></g></g><g transform="translate(618.4883441869295)"><g><g><line stroke="#6A6A6A" stroke-width="1.3" x1="-16.600000000000023" x2="200.45109517038782" y1="183.8461538461538" y2="183.8461538461538"></line><line stroke="#6A6A6A" stroke-width="1.3" x1="-16.600000000000023" x2="200.45109517038782" y1="173.8461538461538" y2="173.8461538461538"></line><line stroke="#6A6A6A" stroke-width="1.3" x1="-16.600000000000023" x2="200.45109517038782" y1="163.8461538461538" y2="163.8461538461538"></line><line stroke="#6A6A6A" stroke-width="1.3" x1="-16.600000000000023" x2="200.45109517038782" y1="153.8461538461538" y2="153.8461538461538"></line><line stroke="#6A6A6A" stroke-width="1.3" x1="-16.600000000000023" x2="200.45109517038782" y1="143.8461538461538" y2="143.8461538461538"></line></g><g><path d="M16.740 181.006C16.740 177.926 14.740 174.846 10.900 174.846C9.620 174.846 9.180 175.686 8.820 175.686C8.420 175.686 8.020 175.086 7.780 174.686C7.660 174.366 7.460 174.126 7.460 173.846C7.460 173.606 7.580 173.486 7.740 173.126C7.780 173.046 7.860 173.046 7.860 172.966C8.100 172.606 8.500 172.046 8.820 172.046C9.180 172.046 9.620 172.806 10.900 172.806C14.740 172.806 16.740 169.766 16.740 166.726C16.740 163.686 14.180 160.566 10.380 160.566C6.540 160.566 5.380 163.086 5.380 164.166C5.380 165.286 6.260 166.486 7.420 166.486C8.540 166.486 9.620 165.526 9.620 164.486C9.620 163.566 8.420 162.926 8.180 162.726C8.100 162.646 7.700 162.566 7.700 162.406C7.700 162.366 7.700 162.326 7.780 162.286C8.300 161.766 8.900 161.606 9.500 161.606C11.780 161.606 12.300 163.566 12.300 165.206L12.300 168.366C12.300 170.406 12.220 171.126 10.460 171.126C8.740 171.126 8.060 170.406 7.660 169.086C7.460 168.526 7.260 168.326 7.060 168.326C6.780 168.326 6.540 168.726 6.460 169.086C5.780 172.246 4.740 172.406 3.980 172.486L3.980 161.166C3.980 160.806 3.380 160.566 3.060 160.566C2.740 160.566 2.500 160.806 2.500 161.166L2.500 186.566C2.500 186.886 2.740 187.126 3.060 187.126C3.380 187.126 3.980 186.886 3.980 186.566L3.980 175.206C4.740 175.286 5.780 175.446 6.460 178.606C6.540 178.966 6.780 179.366 7.060 179.366C7.260 179.366 7.460 179.166 7.660 178.606C8.060 177.286 8.740 176.526 10.460 176.526C12.220 176.526 12.300 177.286 12.300 179.366L12.300 182.486C12.300 184.166 11.780 186.046 9.500 186.046C8.420 186.046 8.060 185.686 7.820 185.446C7.740 185.366 7.700 185.326 7.700 185.286C7.700 185.126 8.020 185.046 8.100 184.966C8.380 184.686 9.620 184.246 9.620 183.166C9.620 182.126 8.540 181.166 7.420 181.166C6.260 181.166 5.380 182.406 5.380 183.486C5.380 184.566 6.540 187.126 10.380 187.126C14.180 187.126 16.740 184.006 16.740 181.006ZM0.580 161.166C0.580 160.846 0.340 160.566-0.020 160.566L-2.900 160.566C-3.220 160.566-3.500 160.846-3.500 161.166L-3.500 186.526C-3.500 186.846-3.220 187.126-2.900 187.126L-0.020 187.126C0.340 187.126 0.580 186.846 0.580 186.526Z"></path></g></g><g><line stroke="black" stroke-width="1.6" x1="201.25109517038777" x2="201.25109517038777" y1="143.3461538461538" y2="284.3461538461538"></line></g><g><g><line stroke="#6A6A6A" stroke-width="1.3" x1="-16.600000000000023" x2="200.45109517038782" y1="283.8461538461538" y2="283.8461538461538"></line><line stroke="#6A6A6A" stroke-width="1.3" x1="-16.600000000000023" x2="200.45109517038782" y1="273.8461538461538" y2="273.8461538461538"></line><line stroke="#6A6A6A" stroke-width="1.3" x1="-16.600000000000023" x2="200.45109517038782" y1="263.8461538461538" y2="263.8461538461538"></line><line stroke="#6A6A6A" stroke-width="1.3" x1="-16.600000000000023" x2="200.45109517038782" y1="253.8461538461538" y2="253.8461538461538"></line><line stroke="#6A6A6A" stroke-width="1.3" x1="-16.600000000000023" x2="200.45109517038782" y1="243.8461538461538" y2="243.8461538461538"></line></g></g><g><line stroke="black" stroke-width="1.6" x1="201.25109517038777" x2="201.25109517038777" y1="143.3461538461538" y2="284.3461538461538"></line></g><g><g><path d="M28.060 139.486C32.060 139.486 36.980 135.766 36.980 131.966C36.980 129.686 35.180 128.206 32.580 128.206C27.660 128.206 23.700 131.846 23.700 135.726C23.700 138.086 25.620 139.486 28.060 139.486Z"></path></g><line stroke="#000000" stroke-width="1.2" x1="24.3" x2="24.3" y1="135.68615384615381" y2="170.68615384615381"></line><line stroke="#000000" stroke-width="2.2" x1="20.5" x2="42.419999999999995" y1="133.8461538461538" y2="133.8461538461538"></line></g><g><g><path d="M78.818 144.486C82.818 144.486 87.738 140.766 87.738 136.966C87.738 134.686 85.938 133.206 83.338 133.206C78.418 133.206 74.458 136.846 74.458 140.726C74.458 143.086 76.378 144.486 78.818 144.486Z"></path><path d="M71.938 134.126C72.218 134.006 72.418 133.686 72.418 133.446L72.418 130.606C72.418 130.406 72.298 130.286 72.138 130.286C72.058 130.286 72.018 130.286 71.938 130.326C71.938 130.326 71.138 130.646 70.938 130.686C70.658 130.686 70.378 130.486 70.378 130.166C70.378 129.766 70.378 125.286 70.378 125.286C70.378 125.046 70.138 124.846 69.818 124.846C69.418 124.846 69.178 125.046 69.178 125.286C69.178 125.286 69.178 130.086 69.178 130.486C69.138 130.886 69.018 131.406 68.658 131.646C68.178 131.926 66.818 132.486 66.138 132.646C65.778 132.646 65.658 132.166 65.658 131.846C65.658 131.446 65.658 127.046 65.658 127.046C65.658 126.806 65.378 126.606 65.098 126.606C64.698 126.606 64.458 126.806 64.458 127.046C64.458 127.046 64.458 129.206 64.458 130.806L64.458 132.446C64.458 133.006 64.218 133.406 63.978 133.526C63.738 133.646 62.938 133.966 62.938 133.966C62.658 134.046 62.458 134.366 62.458 134.606L62.458 137.446C62.458 137.686 62.578 137.806 62.778 137.806C62.818 137.806 62.898 137.766 62.938 137.766C62.938 137.766 63.538 137.526 63.818 137.366C63.858 137.366 63.898 137.326 63.938 137.326C64.218 137.326 64.458 137.726 64.458 138.046L64.458 142.006C64.458 142.446 64.258 142.806 64.018 142.926C63.778 143.006 62.938 143.366 62.938 143.366C62.658 143.446 62.458 143.766 62.458 144.006L62.458 146.846C62.458 147.086 62.578 147.206 62.778 147.206C62.818 147.206 62.898 147.166 62.938 147.166C62.938 147.166 63.498 146.926 63.858 146.806C63.898 146.766 63.938 146.766 63.978 146.766C64.258 146.766 64.458 147.206 64.458 147.406C64.458 147.646 64.458 152.326 64.458 152.326C64.458 152.566 64.698 152.766 64.978 152.766C65.378 152.766 65.658 152.566 65.658 152.326C65.658 152.326 65.658 147.246 65.658 146.766C65.658 146.246 65.858 145.966 66.058 145.886L68.498 144.886C68.538 144.886 68.618 144.846 68.658 144.846C68.978 144.846 69.178 145.326 69.178 145.566C69.178 145.846 69.178 150.566 69.178 150.566C69.178 150.806 69.418 151.006 69.698 151.006C70.138 151.006 70.378 150.806 70.378 150.566C70.378 150.566 70.378 145.166 70.378 144.886C70.378 144.566 70.538 144.086 70.818 143.966C71.098 143.846 71.938 143.526 71.938 143.526C72.218 143.406 72.418 143.086 72.418 142.846L72.418 140.006C72.418 139.806 72.298 139.686 72.138 139.686C72.058 139.686 72.018 139.686 71.938 139.726C71.938 139.726 71.098 140.046 70.898 140.126C70.658 140.126 70.378 139.886 70.378 139.406L70.378 135.686C70.378 135.406 70.578 134.646 70.898 134.526C71.218 134.406 71.938 134.126 71.938 134.126ZM69.178 140.646C68.938 141.446 67.058 142.246 66.138 142.246C65.898 142.246 65.698 142.166 65.658 142.046C65.578 141.886 65.538 141.006 65.538 140.046C65.538 138.806 65.578 137.406 65.658 137.086C65.738 136.406 67.578 135.566 68.578 135.566C68.858 135.566 69.098 135.646 69.178 135.806C69.258 136.006 69.338 137.006 69.338 138.086C69.338 139.166 69.258 140.286 69.178 140.646Z"></path></g><line stroke="#000000" stroke-width="1.2" x1="75.05777379259693" x2="75.05777379259693" y1="140.68615384615381" y2="178.68615384615381"></line></g><g><g><path d="M120.816 149.486C124.816 149.486 129.736 145.766 129.736 141.966C129.736 139.686 127.936 138.206 125.336 138.206C120.416 138.206 116.456 141.846 116.456 145.726C116.456 148.086 118.376 149.486 120.816 149.486Z"></path></g><line stroke="#000000" stroke-width="1.2" x1="117.05554758519388" x2="117.05554758519388" y1="145.68615384615381" y2="180.68615384615381"></line></g><g><g><path d="M162.813 154.486C166.813 154.486 171.733 150.766 171.733 146.966C171.733 144.686 169.933 143.206 167.333 143.206C162.413 143.206 158.453 146.846 158.453 150.726C158.453 153.086 160.373 154.486 162.813 154.486Z"></path></g><line stroke="#000000" stroke-width="1.2" x1="159.0533213777908" x2="159.0533213777908" y1="150.68615384615381" y2="188.68615384615381"></line></g><g><g><path d="M28.060 274.486C32.060 274.486 36.980 270.766 36.980 266.966C36.980 264.686 35.180 263.206 32.580 263.206C27.660 263.206 23.700 266.846 23.700 270.726C23.700 273.086 25.620 274.486 28.060 274.486Z"></path></g><line stroke="#000000" stroke-width="1.2" x1="36.38" x2="36.38" y1="267.00615384615384" y2="229.00615384615384"></line></g><g><g><path d="M78.818 269.486C82.818 269.486 87.738 265.766 87.738 261.966C87.738 259.686 85.938 258.206 83.338 258.206C78.418 258.206 74.458 261.846 74.458 265.726C74.458 268.086 76.378 269.486 78.818 269.486Z"></path></g><line stroke="#000000" stroke-width="1.2" x1="87.13777379259695" x2="87.13777379259695" y1="262.00615384615384" y2="227.00615384615384"></line></g><g><g><path d="M120.816 264.486C124.816 264.486 129.736 260.766 129.736 256.966C129.736 254.686 127.936 253.206 125.336 253.206C120.416 253.206 116.456 256.846 116.456 260.726C116.456 263.086 118.376 264.486 120.816 264.486Z"></path><path d="M113.936 254.126C114.216 254.006 114.416 253.686 114.416 253.446L114.416 250.606C114.416 250.406 114.296 250.286 114.136 250.286C114.056 250.286 114.016 250.286 113.936 250.326C113.936 250.326 113.136 250.646 112.936 250.686C112.656 250.686 112.376 250.486 112.376 250.166C112.376 249.766 112.376 245.286 112.376 245.286C112.376 245.046 112.136 244.846 111.816 244.846C111.416 244.846 111.176 245.046 111.176 245.286C111.176 245.286 111.176 250.086 111.176 250.486C111.136 250.886 111.016 251.406 110.656 251.646C110.176 251.926 108.816 252.486 108.136 252.646C107.776 252.646 107.656 252.166 107.656 251.846C107.656 251.446 107.656 247.046 107.656 247.046C107.656 246.806 107.376 246.606 107.096 246.606C106.696 246.606 106.456 246.806 106.456 247.046C106.456 247.046 106.456 249.206 106.456 250.806L106.456 252.446C106.456 253.006 106.216 253.406 105.976 253.526C105.736 253.646 104.936 253.966 104.936 253.966C104.656 254.046 104.456 254.366 104.456 254.606L104.456 257.446C104.456 257.686 104.576 257.806 104.776 257.806C104.816 257.806 104.896 257.766 104.936 257.766C104.936 257.766 105.536 257.526 105.816 257.366C105.856 257.366 105.896 257.326 105.936 257.326C106.216 257.326 106.456 257.726 106.456 258.046L106.456 262.006C106.456 262.446 106.256 262.806 106.016 262.926C105.776 263.006 104.936 263.366 104.936 263.366C104.656 263.446 104.456 263.766 104.456 264.006L104.456 266.846C104.456 267.086 104.576 267.206 104.776 267.206C104.816 267.206 104.896 267.166 104.936 267.166C104.936 267.166 105.496 266.926 105.856 266.806C105.896 266.766 105.936 266.766 105.976 266.766C106.256 266.766 106.456 267.206 106.456 267.406C106.456 267.646 106.456 272.326 106.456 272.326C106.456 272.566 106.696 272.766 106.976 272.766C107.376 272.766 107.656 272.566 107.656 272.326C107.656 272.326 107.656 267.246 107.656 266.766C107.656 266.246 107.856 265.966 108.056 265.886L110.496 264.886C110.536 264.886 110.616 264.846 110.656 264.846C110.976 264.846 111.176 265.326 111.176 265.566C111.176 265.846 111.176 270.566 111.176 270.566C111.176 270.806 111.416 271.006 111.696 271.006C112.136 271.006 112.376 270.806 112.376 270.566C112.376 270.566 112.376 265.166 112.376 264.886C112.376 264.566 112.536 264.086 112.816 263.966C113.096 263.846 113.936 263.526 113.936 263.526C114.216 263.406 114.416 263.086 114.416 262.846L114.416 260.006C114.416 259.806 114.296 259.686 114.136 259.686C114.056 259.686 114.016 259.686 113.936 259.726C113.936 259.726 113.096 260.046 112.896 260.126C112.656 260.126 112.376 259.886 112.376 259.406L112.376 255.686C112.376 255.406 112.576 254.646 112.896 254.526C113.216 254.406 113.936 254.126 113.936 254.126ZM111.176 260.646C110.936 261.446 109.056 262.246 108.136 262.246C107.896 262.246 107.696 262.166 107.656 262.046C107.576 261.886 107.536 261.006 107.536 260.046C107.536 258.806 107.576 257.406 107.656 257.086C107.736 256.406 109.576 255.566 110.576 255.566C110.856 255.566 111.096 255.646 111.176 255.806C111.256 256.006 111.336 257.006 111.336 258.086C111.336 259.166 111.256 260.286 111.176 260.646Z"></path></g><line stroke="#000000" stroke-width="1.2" x1="117.05554758519388" x2="117.05554758519388" y1="260.6861538461538" y2="298.6861538461538"></line></g><g><g><path d="M162.813 259.486C166.813 259.486 171.733 255.766 171.733 251.966C171.733 249.686 169.933 248.206 167.333 248.206C162.413 248.206 158.453 251.846 158.453 255.726C158.453 258.086 160.373 259.486 162.813 259.486Z"></path></g><line stroke="#000000" stroke-width="1.2" x1="159.0533213777908" x2="159.0533213777908" y1="255.68615384615381" y2="290.68615384615384"></line></g></g><g transform="translate(835.5394393573172)"><g><g><line stroke="#6A6A6A" stroke-width="1.3" x1="-16.59999999999991" x2="106.93742656972711" y1="183.8461538461538" y2="183.8461538461538"></line><line stroke="#6A6A6A" stroke-width="1.3" x1="-16.59999999999991" x2="106.93742656972711" y1="173.8461538461538" y2="173.8461538461538"></line><line stroke="#6A6A6A" stroke-width="1.3" x1="-16.59999999999991" x2="106.93742656972711" y1="163.8461538461538" y2="163.8461538461538"></line><line stroke="#6A6A6A" stroke-width="1.3" x1="-16.59999999999991" x2="106.93742656972711" y1="153.8461538461538" y2="153.8461538461538"></line><line stroke="#6A6A6A" stroke-width="1.3" x1="-16.59999999999991" x2="106.93742656972711" y1="143.8461538461538" y2="143.8461538461538"></line></g></g><g><line stroke="#000000" stroke-width="1.6" x1="97.13742656972711" x2="97.13742656972711" y1="143.3461538461538" y2="284.3461538461538"></line><line stroke="#000000" stroke-width="5" x1="104.43742656972711" x2="104.43742656972711" y1="143.3461538461538" y2="284.3461538461538"></line></g><g><g><line stroke="#6A6A6A" stroke-width="1.3" x1="-16.59999999999991" x2="106.93742656972711" y1="283.8461538461538" y2="283.8461538461538"></line><line stroke="#6A6A6A" stroke-width="1.3" x1="-16.59999999999991" x2="106.93742656972711" y1="273.8461538461538" y2="273.8461538461538"></line><line stroke="#6A6A6A" stroke-width="1.3" x1="-16.59999999999991" x2="106.93742656972711" y1="263.8461538461538" y2="263.8461538461538"></line><line stroke="#6A6A6A" stroke-width="1.3" x1="-16.59999999999991" x2="106.93742656972711" y1="253.8461538461538" y2="253.8461538461538"></line><line stroke="#6A6A6A" stroke-width="1.3" x1="-16.59999999999991" x2="106.93742656972711" y1="243.8461538461538" y2="243.8461538461538"></line></g></g><g><line stroke="black" stroke-width="1.6" x1="97.13742656972711" x2="97.13742656972711" y1="143.3461538461538" y2="284.3461538461538"></line><line stroke="black" stroke-width="5" x1="104.43742656972711" x2="104.43742656972711" y1="143.3461538461538" y2="284.3461538461538"></line></g><g><path d="M45.509 158.206L45.509 154.526C45.509 153.926 45.029 153.486 44.469 153.486L35.269 153.486C34.669 153.486 34.229 153.926 34.229 154.526L34.229 158.206C34.229 158.766 34.669 159.246 35.269 159.246L44.469 159.246C45.029 159.246 45.509 158.766 45.509 158.206Z"></path></g><g><path d="M45.509 258.206L45.509 254.526C45.509 253.926 45.029 253.486 44.469 253.486L35.269 253.486C34.669 253.486 34.229 253.926 34.229 254.526L34.229 258.206C34.229 258.766 34.669 259.246 35.269 259.246L44.469 259.246C45.029 259.246 45.509 258.766 45.509 258.206Z"></path></g></g></svg>