<?xml version="1.0" encoding="UTF-8" standalone="no"?><svg xmlns="http://www.w3.org/2000/svg" height="279.4mm" viewBox="0 0 1328.6153846153845 1719.3846153846152" width="215.9mm"><g transform="translate(93.84615384615385)"><g><g><line stroke="#6A6A6A" stroke-width="1.3" x1="0" x2="506.39333328624275" y1="183.8461538461538" y2="183.8461538461538"></line><line stroke="#6A6A6A" stroke-width="1.3" x1="0" x2="506.39333328624275" y1="173.8461538461538" y2="173.8461538461538"></line><line stroke="#6A6A6A" stroke-width="1.3" x1="0" x2="506.39333328624275" y1="163.8461538461538" y2="163.8461538461538"></line><line stroke="#6A6A6A" stroke-width="1.3" x1="0" x2="506.39333328624275" y1="153.8461538461538" y2="153.8461538461538"></line><line stroke="#6A6A6A" stroke-width="1.3" x1="0" x2="506.39333328624275" y1="143.8461538461538" y2="143.8461538461538"></line></g><g><path d="M25.200 129.926C24.640 129.926 23.400 130.966 22.600 131.846C19.640 135.126 18.680 140.126 18.680 144.286C18.680 146.606 18.960 149.206 19.240 150.846C19.320 151.326 19.360 151.406 18.880 151.806C16.320 153.926 13.560 156.366 11.480 158.926C8.720 162.366 7 166.086 7 170.366C7 177.326 11.760 183.926 21.560 183.926C22.480 183.926 23.520 183.846 24.320 183.686C24.760 183.606 24.840 183.566 24.920 184.046C25.400 186.726 26 190.206 26 192.086C26 198.006 22 198.726 19.640 198.726C17.480 198.726 16.440 198.086 16.440 197.566C16.440 197.126 16.800 197.166 17.720 196.886C18.960 196.526 20.400 195.446 20.400 193.126C20.400 190.926 19 189.046 16.560 189.046C13.880 189.046 12.280 191.166 12.280 193.646C12.280 196.246 13.840 200.166 19.880 200.166C22.560 200.166 27.760 198.966 27.760 192.166C27.760 189.886 27.040 186.086 26.600 183.606C26.520 183.126 26.560 183.166 27.120 182.926C31.160 181.326 33.840 177.926 33.840 173.406C33.840 168.286 30.080 163.766 24.200 163.766C23.080 163.766 23.200 163.966 23.040 163.046L22.040 157.246C21.960 156.766 22.040 156.726 22.280 156.486C22.920 155.886 23.760 155.046 24.520 154.206C27.880 150.526 29.880 145.766 29.880 141.246C29.880 137.766 28.920 134.326 27.280 131.926C26.680 131.046 25.640 129.926 25.200 129.926ZM20.040 158.086C20.440 157.766 20.520 157.806 20.600 158.246L21.440 163.366C21.560 164.126 21.560 164.086 20.840 164.326C17.320 165.526 15.040 168.686 15.040 172.086C15.040 175.686 16.920 178.246 19.640 179.166C19.960 179.286 20.440 179.406 20.720 179.406C21.040 179.406 21.200 179.206 21.200 178.966C21.200 178.686 20.880 178.566 20.600 178.446C18.920 177.726 17.720 176.006 17.720 174.166C17.720 171.886 19.280 170.166 21.720 169.486C22.360 169.326 22.440 169.366 22.520 169.806L24.520 181.726C24.600 182.166 24.560 182.166 23.960 182.286C23.320 182.406 22.520 182.486 21.720 182.486C14.720 182.486 10.200 178.606 10.200 173.046C10.200 170.686 10.600 167.526 13.920 163.766C16.320 161.086 18.160 159.606 20.040 158.086ZM24.640 169.166C27.880 169.446 30.560 172.166 30.560 175.686C30.560 178.206 29.040 180.246 26.800 181.366C26.320 181.606 26.240 181.606 26.160 181.126L24.200 169.726C24.120 169.246 24.160 169.126 24.640 169.166ZM25.800 136.126C27.120 136.126 28.200 137.206 28.200 139.406C28.200 142.166 26.880 144.726 23.760 147.846C23.120 148.486 22.160 149.406 21.240 150.206C20.960 150.446 20.800 150.406 20.720 149.886C20.560 148.846 20.480 147.486 20.480 146.206C20.480 139.966 23.360 136.126 25.800 136.126Z"></path></g><g></g><g><g><path d="M65.180 156.806L62.260 156.806L62.260 148.246C62.260 147.926 62.220 147.566 61.780 147.566C61.420 147.566 61.220 147.646 60.980 147.926L57.180 152.526C57.020 152.726 56.820 152.966 56.820 153.446C56.820 153.446 56.820 155.046 56.820 156.806L51.420 156.806C54.620 154.086 61.020 145.006 61.140 144.566C61.140 144.486 61.180 144.446 61.180 144.366C61.180 144.046 60.900 143.806 60.580 143.806C60.220 143.806 58.580 143.886 57.860 143.886C57.140 143.886 55.340 143.806 55.020 143.806C54.660 143.806 54.100 143.926 54.100 144.566C54.100 149.526 50.180 155.086 48.980 156.766L48.740 157.086C48.740 157.126 48.700 157.166 48.700 157.206C48.620 157.366 48.580 157.526 48.580 157.646C48.580 158.046 48.900 158.326 49.380 158.326L56.820 158.326L56.820 160.846C56.820 161.926 55.940 162.246 55.220 162.246C54.580 162.246 54.300 162.606 54.300 163.006C54.300 163.406 54.460 163.846 55.060 163.846C55.700 163.846 63.580 163.846 63.580 163.846C63.980 163.846 64.380 163.566 64.380 163.006C64.380 162.446 63.900 162.206 63.500 162.206C63.100 162.206 62.260 161.966 62.260 160.686L62.260 158.326C63.980 158.326 65.180 158.326 65.180 158.326C65.580 158.326 65.780 158.046 65.780 157.566C65.780 157.086 65.620 156.806 65.180 156.806Z"></path></g><g><path d="M65.180 176.806L62.260 176.806L62.260 168.246C62.260 167.926 62.220 167.566 61.780 167.566C61.420 167.566 61.220 167.646 60.980 167.926L57.180 172.526C57.020 172.726 56.820 172.966 56.820 173.446C56.820 173.446 56.820 175.046 56.820 176.806L51.420 176.806C54.620 174.086 61.020 165.006 61.140 164.566C61.140 164.486 61.180 164.446 61.180 164.366C61.180 164.046 60.900 163.806 60.580 163.806C60.220 163.806 58.580 163.886 57.860 163.886C57.140 163.886 55.340 163.806 55.020 163.806C54.660 163.806 54.100 163.926 54.100 164.566C54.100 169.526 50.180 175.086 48.980 176.766L48.740 177.086C48.740 177.126 48.700 177.166 48.700 177.206C48.620 177.366 48.580 177.526 48.580 177.646C48.580 178.046 48.900 178.326 49.380 178.326L56.820 178.326L56.820 180.846C56.820 181.926 55.940 182.246 55.220 182.246C54.580 182.246 54.300 182.606 54.300 183.006C54.300 183.406 54.460 183.846 55.060 183.846C55.700 183.846 63.580 183.846 63.580 183.846C63.980 183.846 64.380 183.566 64.380 183.006C64.380 182.446 63.900 182.206 63.500 182.206C63.100 182.206 62.260 181.966 62.260 180.686L62.260 178.326C63.980 178.326 65.180 178.326 65.180 178.326C65.580 178.326 65.780 178.046 65.780 177.566C65.780 177.086 65.620 176.806 65.180 176.806Z"></path></g></g></g><g><path d="M192.662 85.206C192.662 86.446 193.702 87.486 194.942 87.486C196.222 87.486 197.222 86.446 197.222 85.206C197.222 83.926 196.222 82.926 194.942 82.926C193.702 82.926 192.662 83.926 192.662 85.206ZM181.662 93.286C181.662 92.046 180.662 91.006 179.382 91.006C178.142 91.006 177.102 92.046 177.102 93.286C177.102 94.566 178.142 95.566 179.382 95.566C180.662 95.566 181.662 94.566 181.662 93.286ZM181.462 77.246C181.702 77.246 181.982 77.326 182.102 77.766L182.182 78.046C182.462 79.126 183.062 81.486 185.102 81.486C185.462 81.486 185.822 81.446 186.262 81.286C187.422 80.886 187.862 79.926 187.862 78.806C187.862 78.206 187.742 77.566 187.542 76.926C186.902 75.086 184.222 74.406 182.182 74.406C179.382 74.406 176.222 77.846 176.222 81.806C176.222 82.766 176.422 83.766 176.862 84.766C178.142 87.686 183.942 91.246 184.262 91.366C184.422 91.446 184.502 91.526 184.502 91.686C184.502 91.846 184.422 92.046 184.262 92.326C183.982 92.886 178.222 103.246 178.222 103.246C178.142 103.406 178.102 103.606 178.102 103.766C178.102 104.166 178.302 104.566 178.662 104.766C178.862 104.886 179.022 104.926 179.222 104.926C179.622 104.926 180.022 104.686 180.222 104.326C180.222 104.326 186.422 93.126 186.542 92.886C186.542 92.926 186.862 92.686 187.022 92.686C187.622 92.806 195.622 95.166 195.622 98.966C195.622 100.526 194.662 101.566 193.382 101.766C193.302 101.766 193.182 101.806 193.102 101.806C192.342 101.806 191.662 101.246 191.662 100.006L191.662 99.566C191.662 98.046 190.662 96.926 189.542 96.926C189.382 96.926 189.222 96.966 189.062 97.006C187.582 97.366 186.222 98.006 186.222 99.606C186.222 99.766 186.222 99.926 186.262 100.126C186.542 101.846 188.342 104.166 191.062 104.166C191.582 104.166 192.142 104.086 192.742 103.886C195.942 102.806 198.062 100.206 198.062 96.886C198.062 96.526 198.022 96.126 197.982 95.726C197.382 91.326 191.062 87.766 190.582 87.526C190.102 87.246 189.902 87.086 189.902 86.886C189.902 86.806 189.942 86.726 189.982 86.646C190.182 86.326 196.382 75.166 196.382 75.166C196.502 74.966 196.542 74.806 196.542 74.606C196.542 74.206 196.302 73.806 195.942 73.606C195.782 73.526 195.582 73.486 195.422 73.486C195.022 73.486 194.622 73.686 194.422 74.046C194.422 74.046 188.062 85.526 187.822 85.886C187.702 86.086 187.622 86.206 187.462 86.206C187.342 86.206 187.222 86.166 187.062 86.086C186.702 85.966 180.662 83.646 179.622 81.846C179.382 81.406 179.062 80.566 179.062 79.726C179.062 78.646 179.542 77.526 181.222 77.246Z"></path></g><path d="M206.262 217.806C206.262 217.806 206.062 218.046 206.062 218.286C206.062 218.446 206.142 218.606 206.342 218.726C206.382 218.766 206.462 218.766 206.502 218.766C206.862 218.766 207.062 218.286 207.062 218.286C207.062 218.286 208.742 215.166 209.982 214.446C210.182 214.326 210.382 214.326 210.502 214.326C210.822 214.326 210.942 214.646 210.942 215.046C210.942 215.406 210.822 215.846 210.782 215.966C210.782 215.966 205.782 227.566 205.662 227.766C205.542 228.086 205.262 228.166 204.942 228.166L203.142 228.166C202.742 228.166 202.502 228.406 202.502 228.686C202.502 228.926 202.742 229.206 203.142 229.206L211.422 229.206C211.862 229.206 212.022 228.926 212.022 228.646C212.022 228.406 211.862 228.166 211.502 228.166L210.222 228.166C209.942 228.166 209.742 228.086 209.742 227.846C209.742 227.686 209.822 227.526 209.942 227.246C210.222 226.526 211.542 223.286 211.542 223.286C211.702 222.806 211.822 222.646 211.982 222.646C212.142 222.646 212.342 222.846 212.622 223.126C213.422 223.726 214.622 223.806 215.142 223.806L215.302 223.806C218.262 223.806 220.382 220.526 220.862 219.566C221.142 218.966 221.582 217.766 221.582 216.446C221.582 215.486 221.342 214.446 220.662 213.566C220.182 212.886 219.502 212.646 218.742 212.646C217.062 212.646 215.102 213.846 214.502 214.566C214.382 214.766 214.262 214.806 214.182 214.806C214.022 214.806 213.942 214.646 213.782 214.286L213.702 214.166C213.222 213.206 212.542 212.766 211.542 212.766C211.342 212.766 211.102 212.766 210.902 212.806C209.182 213.046 206.902 216.686 206.262 217.806ZM217.502 214.166C217.862 214.326 218.022 214.846 218.022 215.526C218.022 216.446 217.702 217.726 217.102 219.006C216.182 221.046 214.782 222.486 213.942 222.486C213.822 222.486 213.742 222.486 213.662 222.446C213.302 222.246 213.102 221.766 213.102 221.086C213.102 220.166 213.422 218.886 214.022 217.566C214.982 215.526 216.342 214.126 217.182 214.126C217.302 214.126 217.382 214.126 217.502 214.166Z"></path><g><line stroke="black" stroke-width="1.6" x1="496.59333328624274" x2="496.59333328624274" y1="143.8461538461538" y2="183.8461538461538"></line><line stroke="black" stroke-width="5" x1="503.89333328624275" x2="503.89333328624275" y1="143.8461538461538" y2="183.8461538461538"></line></g><g><g><path d="M102.120 174.486C106.120 174.486 111.040 170.766 111.040 166.966C111.040 164.686 109.240 163.206 106.640 163.206C101.720 163.206 97.760 166.846 97.760 170.726C97.760 173.086 99.680 174.486 102.120 174.486Z"></path><path d="M95.240 164.126C95.520 164.006 95.720 163.686 95.720 163.446L95.720 160.606C95.720 160.406 95.600 160.286 95.440 160.286C95.360 160.286 95.320 160.286 95.240 160.326C95.240 160.326 94.440 160.646 94.240 160.686C93.960 160.686 93.680 160.486 93.680 160.166C93.680 159.766 93.680 155.286 93.680 155.286C93.680 155.046 93.440 154.846 93.120 154.846C92.720 154.846 92.480 155.046 92.480 155.286C92.480 155.286 92.480 160.086 92.480 160.486C92.440 160.886 92.320 161.406 91.960 161.646C91.480 161.926 90.120 162.486 89.440 162.646C89.080 162.646 88.960 162.166 88.960 161.846C88.960 161.446 88.960 157.046 88.960 157.046C88.960 156.806 88.680 156.606 88.400 156.606C88 156.606 87.760 156.806 87.760 157.046C87.760 157.046 87.760 159.206 87.760 160.806L87.760 162.446C87.760 163.006 87.520 163.406 87.280 163.526C87.040 163.646 86.240 163.966 86.240 163.966C85.960 164.046 85.760 164.366 85.760 164.606L85.760 167.446C85.760 167.686 85.880 167.806 86.080 167.806C86.120 167.806 86.200 167.766 86.240 167.766C86.240 167.766 86.840 167.526 87.120 167.366C87.160 167.366 87.200 167.326 87.240 167.326C87.520 167.326 87.760 167.726 87.760 168.046L87.760 172.006C87.760 172.446 87.560 172.806 87.320 172.926C87.080 173.006 86.240 173.366 86.240 173.366C85.960 173.446 85.760 173.766 85.760 174.006L85.760 176.846C85.760 177.086 85.880 177.206 86.080 177.206C86.120 177.206 86.200 177.166 86.240 177.166C86.240 177.166 86.800 176.926 87.160 176.806C87.200 176.766 87.240 176.766 87.280 176.766C87.560 176.766 87.760 177.206 87.760 177.406C87.760 177.646 87.760 182.326 87.760 182.326C87.760 182.566 88 182.766 88.280 182.766C88.680 182.766 88.960 182.566 88.960 182.326C88.960 182.326 88.960 177.246 88.960 176.766C88.960 176.246 89.160 175.966 89.360 175.886L91.800 174.886C91.840 174.886 91.920 174.846 91.960 174.846C92.280 174.846 92.480 175.326 92.480 175.566C92.480 175.846 92.480 180.566 92.480 180.566C92.480 180.806 92.720 181.006 93 181.006C93.440 181.006 93.680 180.806 93.680 180.566C93.680 180.566 93.680 175.166 93.680 174.886C93.680 174.566 93.840 174.086 94.120 173.966C94.400 173.846 95.240 173.526 95.240 173.526C95.520 173.406 95.720 173.086 95.720 172.846L95.720 170.006C95.720 169.806 95.600 169.686 95.440 169.686C95.360 169.686 95.320 169.686 95.240 169.726C95.240 169.726 94.400 170.046 94.200 170.126C93.960 170.126 93.680 169.886 93.680 169.406L93.680 165.686C93.680 165.406 93.880 164.646 94.200 164.526C94.520 164.406 95.240 164.126 95.240 164.126ZM92.480 170.646C92.240 171.446 90.360 172.246 89.440 172.246C89.200 172.246 89 172.166 88.960 172.046C88.880 171.886 88.840 171.006 88.840 170.046C88.840 168.806 88.880 167.406 88.960 167.086C89.040 166.406 90.880 165.566 91.880 165.566C92.160 165.566 92.400 165.646 92.480 165.806C92.560 166.006 92.640 167.006 92.640 168.086C92.640 169.166 92.560 170.286 92.480 170.646Z"></path></g><g><path d="M102.120 184.486C106.120 184.486 111.040 180.766 111.040 176.966C111.040 174.686 109.240 173.206 106.640 173.206C101.720 173.206 97.760 176.846 97.760 180.726C97.760 183.086 99.680 184.486 102.120 184.486Z"></path></g><g><path d="M102.120 194.486C106.120 194.486 111.040 190.766 111.040 186.966C111.040 184.686 109.240 183.206 106.640 183.206C101.720 183.206 97.760 186.846 97.760 190.726C97.760 193.086 99.680 194.486 102.120 194.486Z"></path></g><line stroke="#000000" stroke-width="1.2" x1="110.44000000000001" x2="110.44000000000001" y1="187.0061538461538" y2="137.0061538461538"></line></g><g><path d="M215.382 170.286C213.862 168.446 212.622 166.966 212.622 164.726C212.622 164.566 212.662 164.366 212.662 164.206C212.822 161.886 214.262 159.966 215.302 158.326C215.422 158.126 215.462 157.926 215.462 157.726C215.462 157.326 215.302 156.966 215.302 156.966C215.302 156.966 209.382 149.926 208.702 149.246C208.502 149.046 208.222 148.926 207.982 148.926C207.582 148.926 207.182 149.206 207.182 149.766C207.182 149.966 207.222 150.166 207.342 150.406C207.502 150.846 209.782 152.886 209.782 155.766C209.782 157.246 209.182 158.966 207.382 160.846C206.982 161.246 206.822 161.686 206.822 162.006C206.822 162.566 207.222 162.966 207.222 162.966L209.182 165.366C209.822 166.166 210.382 166.926 210.902 167.766C210.982 167.926 211.142 168.126 211.142 168.326C211.142 168.366 211.142 168.446 211.102 168.486C211.022 168.646 210.862 168.686 210.662 168.686C210.422 168.686 210.182 168.606 210.022 168.566C209.822 168.566 209.582 168.446 209.382 168.446C207.662 168.446 206.102 170.166 206.102 172.286C206.102 174.286 207.822 176.246 210.742 178.486C211.062 178.726 211.462 178.846 211.782 178.846C212.062 178.846 212.342 178.766 212.382 178.606C212.422 178.486 212.462 178.406 212.462 178.326C212.462 177.966 212.142 177.646 211.822 177.366C211.302 177.366 210.862 176.286 210.782 175.926C210.662 175.606 210.622 175.246 210.622 174.886C210.622 173.646 211.222 172.246 212.502 172.006C212.702 171.966 212.902 171.966 213.142 171.966C214.302 171.966 215.622 172.406 216.262 172.646C216.302 172.646 216.342 172.686 216.382 172.686C216.502 172.726 216.582 172.726 216.662 172.726C216.782 172.726 216.862 172.686 216.862 172.566C216.862 172.086 215.822 170.766 215.382 170.286Z"></path></g><g><path d="M325.643 162.886L325.643 159.206C325.643 158.606 325.163 158.166 324.603 158.166L315.403 158.166C314.803 158.166 314.363 158.606 314.363 159.206L314.363 162.886C314.363 163.446 314.803 163.926 315.403 163.926L324.603 163.926C325.163 163.926 325.643 163.446 325.643 162.886Z"></path></g></g></svg>