<?xml version="1.0" encoding="UTF-8" standalone="no"?><svg xmlns="http://www.w3.org/2000/svg" class="" height="279.4mm" viewBox="0 0 1328.6153846153845 1719.3846153846152" width="215.9mm"><g><g><g><line stroke="#6A6A6A" stroke-width="1.3" x1="93.84615384615385" x2="631.4631141593027" y1="183.8461538461538" y2="183.8461538461538"></line><line stroke="#6A6A6A" stroke-width="1.3" x1="93.84615384615385" x2="631.4631141593027" y1="173.8461538461538" y2="173.8461538461538"></line><line stroke="#6A6A6A" stroke-width="1.3" x1="93.84615384615385" x2="631.4631141593027" y1="163.8461538461538" y2="163.8461538461538"></line><line stroke="#6A6A6A" stroke-width="1.3" x1="93.84615384615385" x2="631.4631141593027" y1="153.8461538461538" y2="153.8461538461538"></line><line stroke="#6A6A6A" stroke-width="1.3" x1="93.84615384615385" x2="631.4631141593027" y1="143.8461538461538" y2="143.8461538461538"></line></g><g><path d="M119.046 129.926C118.486 129.926 117.246 130.966 116.446 131.846C113.486 135.126 112.526 140.126 112.526 144.286C112.526 146.606 112.806 149.206 113.086 150.846C113.166 151.326 113.206 151.406 112.726 151.806C110.166 153.926 107.406 156.366 105.326 158.926C102.566 162.366 100.846 166.086 100.846 170.366C100.846 177.326 105.606 183.926 115.406 183.926C116.326 183.926 117.366 183.846 118.166 183.686C118.606 183.606 118.686 183.566 118.766 184.046C119.246 186.726 119.846 190.206 119.846 192.086C119.846 198.006 115.846 198.726 113.486 198.726C111.326 198.726 110.286 198.086 110.286 197.566C110.286 197.126 110.646 197.166 111.566 196.886C112.806 196.526 114.246 195.446 114.246 193.126C114.246 190.926 112.846 189.046 110.406 189.046C107.726 189.046 106.126 191.166 106.126 193.646C106.126 196.246 107.686 200.166 113.726 200.166C116.406 200.166 121.606 198.966 121.606 192.166C121.606 189.886 120.886 186.086 120.446 183.606C120.366 183.126 120.406 183.166 120.966 182.926C125.006 181.326 127.686 177.926 127.686 173.406C127.686 168.286 123.926 163.766 118.046 163.766C116.926 163.766 117.046 163.966 116.886 163.046L115.886 157.246C115.806 156.766 115.886 156.726 116.126 156.486C116.766 155.886 117.606 155.046 118.366 154.206C121.726 150.526 123.726 145.766 123.726 141.246C123.726 137.766 122.766 134.326 121.126 131.926C120.526 131.046 119.486 129.926 119.046 129.926ZM113.886 158.086C114.286 157.766 114.366 157.806 114.446 158.246L115.286 163.366C115.406 164.126 115.406 164.086 114.686 164.326C111.166 165.526 108.886 168.686 108.886 172.086C108.886 175.686 110.766 178.246 113.486 179.166C113.806 179.286 114.286 179.406 114.566 179.406C114.886 179.406 115.046 179.206 115.046 178.966C115.046 178.686 114.726 178.566 114.446 178.446C112.766 177.726 111.566 176.006 111.566 174.166C111.566 171.886 113.126 170.166 115.566 169.486C116.206 169.326 116.286 169.366 116.366 169.806L118.366 181.726C118.446 182.166 118.406 182.166 117.806 182.286C117.166 182.406 116.366 182.486 115.566 182.486C108.566 182.486 104.046 178.606 104.046 173.046C104.046 170.686 104.446 167.526 107.766 163.766C110.166 161.086 112.006 159.606 113.886 158.086ZM118.486 169.166C121.726 169.446 124.406 172.166 124.406 175.686C124.406 178.206 122.886 180.246 120.646 181.366C120.166 181.606 120.086 181.606 120.006 181.126L118.046 169.726C117.966 169.246 118.006 169.126 118.486 169.166ZM119.646 136.126C120.966 136.126 122.046 137.206 122.046 139.406C122.046 142.166 120.726 144.726 117.606 147.846C116.966 148.486 116.006 149.406 115.086 150.206C114.806 150.446 114.646 150.406 114.566 149.886C114.406 148.846 114.326 147.486 114.326 146.206C114.326 139.966 117.206 136.126 119.646 136.126Z"></path></g><g></g><g><g><path d="M151.906 149.846C152.386 150.326 153.066 150.526 153.706 150.526C154.026 150.526 154.386 150.446 154.706 150.366C155.946 150.046 156.906 148.766 156.906 147.486C156.906 147.326 156.906 147.206 156.866 147.046C156.666 145.726 155.546 144.766 154.346 144.326C153.386 143.926 152.226 143.806 151.186 143.806C148.146 143.846 145.306 145.326 143.866 148.046C142.986 149.726 142.306 151.846 142.306 153.726L142.306 153.886C142.346 155.726 142.666 157.806 143.546 159.406C144.386 160.926 145.746 162.566 147.306 163.246C148.306 163.686 149.506 163.806 150.506 163.806C152.306 163.806 154.306 163.526 155.746 162.366C157.146 161.246 158.066 159.446 158.066 157.646C158.066 157.446 158.026 157.286 158.026 157.086C157.866 155.446 156.866 154.046 155.586 153.086C154.506 152.286 153.266 151.846 152.026 151.846C150.746 151.846 149.426 152.326 148.386 153.246C148.306 153.326 148.226 153.326 148.146 153.326C147.906 153.326 147.786 153.006 147.786 152.366C147.906 144.966 150.266 144.766 151.106 144.766C151.906 144.766 152.426 144.966 152.426 145.366C152.426 145.926 151.666 146.406 151.426 146.886C151.226 147.246 151.146 147.646 151.146 148.046C151.146 148.646 151.346 149.246 151.746 149.686C151.786 149.766 151.866 149.806 151.906 149.846ZM150.386 153.766C151.666 153.766 152.746 155.766 152.746 158.246C152.746 160.726 151.666 162.726 150.386 162.726C149.106 162.726 148.066 160.726 148.066 158.246C148.066 155.766 149.106 153.766 150.386 153.766Z"></path></g><g><path d="M159.026 176.806L156.106 176.806L156.106 168.246C156.106 167.926 156.066 167.566 155.626 167.566C155.266 167.566 155.066 167.646 154.826 167.926L151.026 172.526C150.866 172.726 150.666 172.966 150.666 173.446C150.666 173.446 150.666 175.046 150.666 176.806L145.266 176.806C148.466 174.086 154.866 165.006 154.986 164.566C154.986 164.486 155.026 164.446 155.026 164.366C155.026 164.046 154.746 163.806 154.426 163.806C154.066 163.806 152.426 163.886 151.706 163.886C150.986 163.886 149.186 163.806 148.866 163.806C148.506 163.806 147.946 163.926 147.946 164.566C147.946 169.526 144.026 175.086 142.826 176.766L142.586 177.086C142.586 177.126 142.546 177.166 142.546 177.206C142.466 177.366 142.426 177.526 142.426 177.646C142.426 178.046 142.746 178.326 143.226 178.326L150.666 178.326L150.666 180.846C150.666 181.926 149.786 182.246 149.066 182.246C148.426 182.246 148.146 182.606 148.146 183.006C148.146 183.406 148.306 183.846 148.906 183.846C149.546 183.846 157.426 183.846 157.426 183.846C157.826 183.846 158.226 183.566 158.226 183.006C158.226 182.446 157.746 182.206 157.346 182.206C156.946 182.206 156.106 181.966 156.106 180.686L156.106 178.326C157.826 178.326 159.026 178.326 159.026 178.326C159.426 178.326 159.626 178.046 159.626 177.566C159.626 177.086 159.466 176.806 159.026 176.806Z"></path></g></g></g><g><line stroke="#000000" stroke-width="1.6" x1="621.6631141593027" x2="621.6631141593027" y1="143.8461538461538" y2="183.8461538461538"></line><line stroke="#000000" stroke-width="5" x1="628.9631141593028" x2="628.9631141593028" y1="143.8461538461538" y2="183.8461538461538"></line></g><g><g><path d="M187.206 174.486C191.206 174.486 196.126 170.766 196.126 166.966C196.126 164.686 194.326 163.206 191.726 163.206C186.806 163.206 182.846 166.846 182.846 170.726C182.846 173.086 184.766 174.486 187.206 174.486Z"></path><path d="M196.926 176.086C197.806 175.526 198.246 175.166 198.926 174.366C200.406 172.646 201.046 170.966 201.046 168.806C201.046 166.806 200.446 165.126 199.246 163.646C198.606 162.886 198.126 162.446 196.846 161.606L196.686 161.886C197.926 162.886 198.446 163.486 198.926 164.526C199.366 165.566 199.606 166.966 199.606 168.766C199.606 170.446 199.406 171.726 199.006 172.886C198.526 174.166 198.046 174.766 196.686 175.806Z"></path><path d="M182.206 175.806C180.846 174.766 180.366 174.166 179.926 172.886C179.526 171.726 179.326 170.446 179.326 168.766C179.326 166.966 179.526 165.566 180.006 164.526C180.486 163.486 181.006 162.886 182.206 161.886L182.046 161.606C180.806 162.446 180.286 162.886 179.646 163.646C178.446 165.126 177.846 166.806 177.846 168.806C177.846 170.966 178.486 172.646 179.966 174.366C180.686 175.166 181.126 175.526 182.006 176.086Z"></path></g><line stroke="#000000" stroke-width="1.2" x1="195.52615384615387" x2="195.52615384615387" y1="167.0061538461538" y2="129.0061538461538"></line></g><g><g><path d="M268.809 173.446L263.409 168.926L268.809 164.406C268.929 164.286 269.049 164.086 269.049 163.886C269.049 163.766 269.009 163.606 268.889 163.486C268.809 163.326 268.609 163.246 268.449 163.246C268.329 163.246 268.209 163.286 268.129 163.366L262.409 168.126L256.769 163.366C256.649 163.286 256.529 163.246 256.409 163.246C256.249 163.246 256.089 163.326 255.969 163.486C255.889 163.606 255.849 163.726 255.849 163.846C255.849 164.046 255.929 164.246 256.089 164.406L261.489 168.926L256.089 173.446C255.929 173.606 255.849 173.806 255.849 174.006C255.849 174.126 255.889 174.246 255.969 174.366C256.089 174.526 256.289 174.606 256.449 174.606C256.569 174.606 256.689 174.566 256.769 174.486L262.409 169.726L268.129 174.486C268.209 174.566 268.329 174.606 268.449 174.606C268.609 174.606 268.809 174.526 268.889 174.366C269.009 174.246 269.049 174.086 269.049 173.966C269.049 173.766 268.929 173.566 268.809 173.446Z"></path><path d="M269.849 176.086C270.729 175.526 271.169 175.166 271.849 174.366C273.329 172.646 273.969 170.966 273.969 168.806C273.969 166.806 273.369 165.126 272.169 163.646C271.529 162.886 271.049 162.446 269.769 161.606L269.609 161.886C270.849 162.886 271.369 163.486 271.849 164.526C272.289 165.566 272.529 166.966 272.529 168.766C272.529 170.446 272.329 171.726 271.929 172.886C271.449 174.166 270.969 174.766 269.609 175.806Z"></path><path d="M255.209 175.806C253.849 174.766 253.369 174.166 252.929 172.886C252.529 171.726 252.329 170.446 252.329 168.766C252.329 166.966 252.529 165.566 253.009 164.526C253.489 163.486 254.009 162.886 255.209 161.886L255.049 161.606C253.809 162.446 253.289 162.886 252.649 163.646C251.449 165.126 250.849 166.806 250.849 168.806C250.849 170.966 251.489 172.646 252.969 174.366C253.689 175.166 254.129 175.526 255.009 176.086Z"></path></g><line stroke="#000000" stroke-width="1.2" x1="268.44898056501205" x2="268.44898056501205" y1="163.8861538461538" y2="125.8861538461538"></line></g><g><g><path d="M333.212 174.486C337.212 174.486 342.132 170.766 342.132 166.966C342.132 164.686 340.332 163.206 337.732 163.206C332.812 163.206 328.852 166.846 328.852 170.726C328.852 173.086 330.772 174.486 333.212 174.486Z"></path></g><g><path d="M333.212 164.486C337.212 164.486 342.132 160.766 342.132 156.966C342.132 154.686 340.332 153.206 337.732 153.206C332.812 153.206 328.852 156.846 328.852 160.726C328.852 163.086 330.772 164.486 333.212 164.486Z"></path><path d="M342.932 166.086C343.812 165.526 344.252 165.166 344.932 164.366C346.412 162.646 347.052 160.966 347.052 158.806C347.052 156.806 346.452 155.126 345.252 153.646C344.612 152.886 344.132 152.446 342.852 151.606L342.692 151.886C343.932 152.886 344.452 153.486 344.932 154.526C345.372 155.566 345.612 156.966 345.612 158.766C345.612 160.446 345.412 161.726 345.012 162.886C344.532 164.166 344.052 164.766 342.692 165.806Z"></path><path d="M328.212 165.806C326.852 164.766 326.372 164.166 325.932 162.886C325.532 161.726 325.332 160.446 325.332 158.766C325.332 156.966 325.532 155.566 326.012 154.526C326.492 153.486 327.012 152.886 328.212 151.886L328.052 151.606C326.812 152.446 326.292 152.886 325.652 153.646C324.452 155.126 323.852 156.806 323.852 158.806C323.852 160.966 324.492 162.646 325.972 164.366C326.692 165.166 327.132 165.526 328.012 166.086Z"></path></g><g><path d="M333.212 154.486C337.212 154.486 342.132 150.766 342.132 146.966C342.132 144.686 340.332 143.206 337.732 143.206C332.812 143.206 328.852 146.846 328.852 150.726C328.852 153.086 330.772 154.486 333.212 154.486Z"></path></g><line stroke="#000000" stroke-width="1.2" x1="329.45180728387015" x2="329.45180728387015" y1="150.68615384615381" y2="200.68615384615381"></line></g><g><g><path d="M406.215 174.486C410.215 174.486 415.135 170.766 415.135 166.966C415.135 164.686 413.335 163.206 410.735 163.206C405.815 163.206 401.855 166.846 401.855 170.726C401.855 173.086 403.775 174.486 406.215 174.486Z"></path><path d="M415.935 176.086C416.815 175.526 417.255 175.166 417.935 174.366C419.415 172.646 420.055 170.966 420.055 168.806C420.055 166.806 419.455 165.126 418.255 163.646C417.615 162.886 417.135 162.446 415.855 161.606L415.695 161.886C416.935 162.886 417.455 163.486 417.935 164.526C418.375 165.566 418.615 166.966 418.615 168.766C418.615 170.446 418.415 171.726 418.015 172.886C417.535 174.166 417.055 174.766 415.695 175.806Z"></path><path d="M401.215 175.806C399.855 174.766 399.375 174.166 398.935 172.886C398.535 171.726 398.335 170.446 398.335 168.766C398.335 166.966 398.535 165.566 399.015 164.526C399.495 163.486 400.015 162.886 401.215 161.886L401.055 161.606C399.815 162.446 399.295 162.886 398.655 163.646C397.455 165.126 396.855 166.806 396.855 168.806C396.855 170.966 397.495 172.646 398.975 174.366C399.695 175.166 400.135 175.526 401.015 176.086Z"></path></g><g><path d="M406.215 164.486C410.215 164.486 415.135 160.766 415.135 156.966C415.135 154.686 413.335 153.206 410.735 153.206C405.815 153.206 401.855 156.846 401.855 160.726C401.855 163.086 403.775 164.486 406.215 164.486Z"></path><path d="M415.935 166.086C416.815 165.526 417.255 165.166 417.935 164.366C419.415 162.646 420.055 160.966 420.055 158.806C420.055 156.806 419.455 155.126 418.255 153.646C417.615 152.886 417.135 152.446 415.855 151.606L415.695 151.886C416.935 152.886 417.455 153.486 417.935 154.526C418.375 155.566 418.615 156.966 418.615 158.766C418.615 160.446 418.415 161.726 418.015 162.886C417.535 164.166 417.055 164.766 415.695 165.806Z"></path><path d="M401.215 165.806C399.855 164.766 399.375 164.166 398.935 162.886C398.535 161.726 398.335 160.446 398.335 158.766C398.335 156.966 398.535 155.566 399.015 154.526C399.495 153.486 400.015 152.886 401.215 151.886L401.055 151.606C399.815 152.446 399.295 152.886 398.655 153.646C397.455 155.126 396.855 156.806 396.855 158.806C396.855 160.966 397.495 162.646 398.975 164.366C399.695 165.166 400.135 165.526 401.015 166.086Z"></path></g><g><path d="M406.215 154.486C410.215 154.486 415.135 150.766 415.135 146.966C415.135 144.686 413.335 143.206 410.735 143.206C405.815 143.206 401.855 146.846 401.855 150.726C401.855 153.086 403.775 154.486 406.215 154.486Z"></path><path d="M415.935 156.086C416.815 155.526 417.255 155.166 417.935 154.366C419.415 152.646 420.055 150.966 420.055 148.806C420.055 146.806 419.455 145.126 418.255 143.646C417.615 142.886 417.135 142.446 415.855 141.606L415.695 141.886C416.935 142.886 417.455 143.486 417.935 144.526C418.375 145.566 418.615 146.966 418.615 148.766C418.615 150.446 418.415 151.726 418.015 152.886C417.535 154.166 417.055 154.766 415.695 155.806Z"></path><path d="M401.215 155.806C399.855 154.766 399.375 154.166 398.935 152.886C398.535 151.726 398.335 150.446 398.335 148.766C398.335 146.966 398.535 145.566 399.015 144.526C399.495 143.486 400.015 142.886 401.215 141.886L401.055 141.606C399.815 142.446 399.295 142.886 398.655 143.646C397.455 145.126 396.855 146.806 396.855 148.806C396.855 150.966 397.495 152.646 398.975 154.366C399.695 155.166 400.135 155.526 401.015 156.086Z"></path></g><line stroke="#000000" stroke-width="1.2" x1="402.45463400272837" x2="402.45463400272837" y1="150.68615384615381" y2="200.68615384615381"></line></g><g><path d="M484.177 170.286C482.657 168.446 481.417 166.966 481.417 164.726C481.417 164.566 481.457 164.366 481.457 164.206C481.617 161.886 483.057 159.966 484.097 158.326C484.217 158.126 484.257 157.926 484.257 157.726C484.257 157.326 484.097 156.966 484.097 156.966C484.097 156.966 478.177 149.926 477.497 149.246C477.297 149.046 477.017 148.926 476.777 148.926C476.377 148.926 475.977 149.206 475.977 149.766C475.977 149.966 476.017 150.166 476.137 150.406C476.297 150.846 478.577 152.886 478.577 155.766C478.577 157.246 477.977 158.966 476.177 160.846C475.777 161.246 475.617 161.686 475.617 162.006C475.617 162.566 476.017 162.966 476.017 162.966L477.977 165.366C478.617 166.166 479.177 166.926 479.697 167.766C479.777 167.926 479.937 168.126 479.937 168.326C479.937 168.366 479.937 168.446 479.897 168.486C479.817 168.646 479.657 168.686 479.457 168.686C479.217 168.686 478.977 168.606 478.817 168.566C478.617 168.566 478.377 168.446 478.177 168.446C476.457 168.446 474.897 170.166 474.897 172.286C474.897 174.286 476.617 176.246 479.537 178.486C479.857 178.726 480.257 178.846 480.577 178.846C480.857 178.846 481.137 178.766 481.177 178.606C481.217 178.486 481.257 178.406 481.257 178.326C481.257 177.966 480.937 177.646 480.617 177.366C480.097 177.366 479.657 176.286 479.577 175.926C479.457 175.606 479.417 175.246 479.417 174.886C479.417 173.646 480.017 172.246 481.297 172.006C481.497 171.966 481.697 171.966 481.937 171.966C483.097 171.966 484.417 172.406 485.057 172.646C485.097 172.646 485.137 172.686 485.177 172.686C485.297 172.726 485.377 172.726 485.457 172.726C485.577 172.726 485.657 172.686 485.657 172.566C485.657 172.086 484.617 170.766 484.177 170.286Z"></path></g><g><path d="M557.180 190.286C555.660 188.446 554.420 186.966 554.420 184.726C554.420 184.566 554.460 184.366 554.460 184.206C554.620 181.886 556.060 179.966 557.100 178.326C557.220 178.126 557.260 177.926 557.260 177.726C557.260 177.326 557.100 176.966 557.100 176.966C557.100 176.966 551.180 169.926 550.500 169.246C550.300 169.046 550.020 168.926 549.780 168.926C549.380 168.926 548.980 169.206 548.980 169.766C548.980 169.966 549.020 170.166 549.140 170.406C549.300 170.846 551.580 172.886 551.580 175.766C551.580 177.246 550.980 178.966 549.180 180.846C548.780 181.246 548.620 181.686 548.620 182.006C548.620 182.566 549.020 182.966 549.020 182.966L550.980 185.366C551.620 186.166 552.180 186.926 552.700 187.766C552.780 187.926 552.940 188.126 552.940 188.326C552.940 188.366 552.940 188.446 552.900 188.486C552.820 188.646 552.660 188.686 552.460 188.686C552.220 188.686 551.980 188.606 551.820 188.566C551.620 188.566 551.380 188.446 551.180 188.446C549.460 188.446 547.900 190.166 547.900 192.286C547.900 194.286 549.620 196.246 552.540 198.486C552.860 198.726 553.260 198.846 553.580 198.846C553.860 198.846 554.140 198.766 554.180 198.606C554.220 198.486 554.260 198.406 554.260 198.326C554.260 197.966 553.940 197.646 553.620 197.366C553.100 197.366 552.660 196.286 552.580 195.926C552.460 195.606 552.420 195.246 552.420 194.886C552.420 193.646 553.020 192.246 554.300 192.006C554.500 191.966 554.700 191.966 554.940 191.966C556.100 191.966 557.420 192.406 558.060 192.646C558.100 192.646 558.140 192.686 558.180 192.686C558.300 192.726 558.380 192.726 558.460 192.726C558.580 192.726 558.660 192.686 558.660 192.566C558.660 192.086 557.620 190.766 557.180 190.286Z"></path></g></g></svg>