<?xml version="1.0" encoding="UTF-8" standalone="no"?><svg xmlns="http://www.w3.org/2000/svg" height="279.4mm" viewBox="0 0 1328.6153846153845 1719.3846153846152" width="215.9mm"><g transform="translate(93.84615384615385)"><g><g><line stroke="#6A6A6A" stroke-width="1.3" x1="0" x2="1140.9230769230765" y1="183.8461538461538" y2="183.8461538461538"></line><line stroke="#6A6A6A" stroke-width="1.3" x1="0" x2="1140.9230769230765" y1="173.8461538461538" y2="173.8461538461538"></line><line stroke="#6A6A6A" stroke-width="1.3" x1="0" x2="1140.9230769230765" y1="163.8461538461538" y2="163.8461538461538"></line><line stroke="#6A6A6A" stroke-width="1.3" x1="0" x2="1140.9230769230765" y1="153.8461538461538" y2="153.8461538461538"></line><line stroke="#6A6A6A" stroke-width="1.3" x1="0" x2="1140.9230769230765" y1="143.8461538461538" y2="143.8461538461538"></line></g><g><path d="M25.200 129.926C24.640 129.926 23.400 130.966 22.600 131.846C19.640 135.126 18.680 140.126 18.680 144.286C18.680 146.606 18.960 149.206 19.240 150.846C19.320 151.326 19.360 151.406 18.880 151.806C16.320 153.926 13.560 156.366 11.480 158.926C8.720 162.366 7 166.086 7 170.366C7 177.326 11.760 183.926 21.560 183.926C22.480 183.926 23.520 183.846 24.320 183.686C24.760 183.606 24.840 183.566 24.920 184.046C25.400 186.726 26 190.206 26 192.086C26 198.006 22 198.726 19.640 198.726C17.480 198.726 16.440 198.086 16.440 197.566C16.440 197.126 16.800 197.166 17.720 196.886C18.960 196.526 20.400 195.446 20.400 193.126C20.400 190.926 19 189.046 16.560 189.046C13.880 189.046 12.280 191.166 12.280 193.646C12.280 196.246 13.840 200.166 19.880 200.166C22.560 200.166 27.760 198.966 27.760 192.166C27.760 189.886 27.040 186.086 26.600 183.606C26.520 183.126 26.560 183.166 27.120 182.926C31.160 181.326 33.840 177.926 33.840 173.406C33.840 168.286 30.080 163.766 24.200 163.766C23.080 163.766 23.200 163.966 23.040 163.046L22.040 157.246C21.960 156.766 22.040 156.726 22.280 156.486C22.920 155.886 23.760 155.046 24.520 154.206C27.880 150.526 29.880 145.766 29.880 141.246C29.880 137.766 28.920 134.326 27.280 131.926C26.680 131.046 25.640 129.926 25.200 129.926ZM20.040 158.086C20.440 157.766 20.520 157.806 20.600 158.246L21.440 163.366C21.560 164.126 21.560 164.086 20.840 164.326C17.320 165.526 15.040 168.686 15.040 172.086C15.040 175.686 16.920 178.246 19.640 179.166C19.960 179.286 20.440 179.406 20.720 179.406C21.040 179.406 21.200 179.206 21.200 178.966C21.200 178.686 20.880 178.566 20.600 178.446C18.920 177.726 17.720 176.006 17.720 174.166C17.720 171.886 19.280 170.166 21.720 169.486C22.360 169.326 22.440 169.366 22.520 169.806L24.520 181.726C24.600 182.166 24.560 182.166 23.960 182.286C23.320 182.406 22.520 182.486 21.720 182.486C14.720 182.486 10.200 178.606 10.200 173.046C10.200 170.686 10.600 167.526 13.920 163.766C16.320 161.086 18.160 159.606 20.040 158.086ZM24.640 169.166C27.880 169.446 30.560 172.166 30.560 175.686C30.560 178.206 29.040 180.246 26.800 181.366C26.320 181.606 26.240 181.606 26.160 181.126L24.200 169.726C24.120 169.246 24.160 169.126 24.640 169.166ZM25.800 136.126C27.120 136.126 28.200 137.206 28.200 139.406C28.200 142.166 26.880 144.726 23.760 147.846C23.120 148.486 22.160 149.406 21.240 150.206C20.960 150.446 20.800 150.406 20.720 149.886C20.560 148.846 20.480 147.486 20.480 146.206C20.480 139.966 23.360 136.126 25.800 136.126Z"></path></g><g></g><path d="M57.820 153.806C56.620 153.806 55.220 154.126 54.140 154.606C50.580 156.166 48.700 160.446 48.700 164.246C48.700 164.606 48.700 164.966 48.740 165.326C48.940 167.486 49.980 169.526 51.300 171.126C52.820 172.966 55.020 173.806 57.420 173.806C64.420 173.806 65.460 167.446 65.460 166.286C65.460 165.406 65.020 165.406 64.860 165.406C64.540 165.406 64.260 165.446 64.260 166.126C64.260 171.286 59.860 172.486 58.580 172.486C55.340 172.486 53.620 169.326 53.620 162.726C53.620 156.126 56.660 154.766 58.820 154.766C60.900 154.766 61.740 155.726 61.740 156.126C61.740 156.486 61.620 157.006 61.020 157.006C59.420 157.006 58.500 158.726 58.500 159.966C58.500 162.246 60.460 162.966 61.580 162.966C61.580 162.966 64.620 162.846 64.620 159.526C64.620 154.286 58.580 153.806 57.820 153.806Z"></path></g><g><line stroke="black" stroke-width="1.6" x1="556.1265536172298" x2="556.1265536172298" y1="143.8461538461538" y2="183.8461538461538"></line></g><g><path d="M323.803 158.206L323.803 154.526C323.803 153.926 323.323 153.486 322.763 153.486L313.563 153.486C312.963 153.486 312.523 153.926 312.523 154.526L312.523 158.206C312.523 158.766 312.963 159.246 313.563 159.246L322.763 159.246C323.323 159.246 323.803 158.766 323.803 158.206Z"></path></g></g><g transform="translate(665.7727074633838)"><g></g><g><line stroke="#000000" stroke-width="1.6" x1="33.854229391440626" x2="33.854229391440626" y1="143.8461538461538" y2="183.8461538461538"></line></g><g><path d="M26.320 116.326C24.840 116.926 24.040 119.206 22.160 119.206C22.160 117.286 21.040 115.966 19.520 115.966C17.960 115.966 16.640 117.286 16.640 118.806C16.640 119.526 17.200 120.326 17.800 120.926L18.920 121.486C19.320 121.486 19.680 121.646 20.080 121.646C20.600 121.646 21.160 121.486 21.600 121.246L23.120 120.686C23.480 120.686 23.680 120.926 23.680 121.086C23.680 122.966 22.560 125.806 22 127.686C21.760 128.446 20.280 129.406 19.520 129.406C19.520 127.446 18.360 126.366 16.880 126.366C15.360 126.366 14.040 127.446 14.040 129.006C14.040 129.766 14.640 130.566 15.200 131.126C15.600 131.206 15.880 131.446 16.320 131.446C16.640 131.646 17.040 131.646 17.440 131.646C17.960 131.646 18.560 131.646 18.920 131.446L20.440 130.886C20.600 130.886 20.840 130.686 21.040 130.686C21.080 130.686 21.160 130.806 21.160 130.886C21.160 131.126 21.040 131.646 21.040 131.646C21.040 131.646 19.680 136.966 19.520 137.526C19.120 138.646 17.800 139.406 17.040 139.406C17.040 137.526 15.880 136.406 14.400 136.406C12.920 136.406 11.560 137.526 11.560 139.086C11.560 139.806 12.120 140.566 12.680 141.126C13.120 141.326 13.480 141.526 13.840 141.526C14.240 141.686 14.640 141.686 14.960 141.686C15.560 141.686 16.080 141.686 16.440 141.526L17.960 140.966C18.560 140.966 18.560 141.326 18.560 141.526L17.040 147.966C16.640 149.046 15.360 149.646 14.640 149.646C14.640 147.766 13.480 146.606 11.960 146.606C10.440 146.606 9.120 147.766 9.120 149.246C9.120 150.006 9.680 150.726 10.240 151.326L11.400 151.886L12.120 151.886C12.680 151.886 13.480 151.886 14.040 151.726L15.560 151.166C16.080 151.166 16.080 151.726 16.080 151.886L14.640 158.166C14.240 159.286 13.120 159.686 12.520 159.846C12.120 159.846 11.200 156.646 9.680 156.646C8.160 156.646 6.800 157.966 6.800 159.286C6.800 160.246 7.400 160.966 7.960 161.366L9.120 161.926C9.480 161.926 9.880 162.126 10.240 162.126C10.800 162.126 11.400 161.926 11.760 161.766C12.360 161.566 12.680 161.566 13.240 161.206C13.480 161.206 13.680 161.566 13.680 161.766C13.680 161.926 12.920 166.126 12.120 168.206C11.760 169.166 10.640 169.526 10.040 169.726C10.040 167.646 8.520 166.526 7.240 166.526C5.880 166.526 4.560 167.806 4.560 169.166C4.560 170.086 5.160 170.846 5.720 171.206L6.800 171.766C7.240 171.766 7.600 172.006 7.960 172.006C8.520 172.006 9.120 171.766 9.480 171.566C10.040 171.406 10.440 171.406 10.800 171.006C11 171.006 11.200 171.406 11.200 171.566C11.200 172.126 10.040 177.086 9.880 177.686C9.480 178.806 8.160 179.366 7.600 179.526C7.600 177.446 6.280 176.286 4.960 176.286C3.440 176.286 2.280 177.686 2.280 178.966C2.280 179.966 2.680 180.686 3.240 181.046L4.400 181.646C4.720 181.646 5.160 181.806 5.520 181.806C6.080 181.806 6.680 181.646 7 181.446C7.600 181.246 7.960 181.246 8.520 180.846C8.720 180.846 8.960 181.246 8.960 181.446C8.720 181.646 7.400 187.926 7.240 188.446C6.800 189.406 5.880 189.766 5.280 189.766C5.280 187.686 4 186.526 2.680 186.526C1.160 186.526 0 187.926 0 189.206C0 190.166 0.440 190.926 1 191.286L2.080 191.886C2.480 191.886 2.840 192.046 3.240 192.046C3.800 192.046 4.400 191.886 4.720 191.646L6.080 191.286C6.440 191.286 6.440 191.486 6.440 191.646C6.280 192.206 3.800 202.406 3.600 202.646C3.600 202.806 4.400 203.566 4.720 203.566C5.880 203.566 6.080 203.366 6.280 202.806C6.280 202.406 20.440 142.246 22.560 132.406C22.560 132.406 26.720 117.286 26.720 116.926C26.720 116.526 26.320 116.326 26.320 116.326Z"></path></g></g><g transform="translate(715.4269368548244)"><g></g><g><line stroke="#000000" stroke-width="1.6" x1="33.854229391440626" x2="33.854229391440626" y1="143.8461538461538" y2="183.8461538461538"></line></g><g><path d="M26.320 116.326C24.840 116.926 24.040 119.206 22.160 119.206C22.160 117.286 21.040 115.966 19.520 115.966C17.960 115.966 16.640 117.286 16.640 118.806C16.640 119.526 17.200 120.326 17.800 120.926L18.920 121.486C19.320 121.486 19.680 121.646 20.080 121.646C20.600 121.646 21.160 121.486 21.600 121.246L23.120 120.686C23.480 120.686 23.680 120.926 23.680 121.086C23.680 122.966 22.560 125.806 22 127.686C21.760 128.446 20.280 129.406 19.520 129.406C19.520 127.446 18.360 126.366 16.880 126.366C15.360 126.366 14.040 127.446 14.040 129.006C14.040 129.766 14.640 130.566 15.200 131.126C15.600 131.206 15.880 131.446 16.320 131.446C16.640 131.646 17.040 131.646 17.440 131.646C17.960 131.646 18.560 131.646 18.920 131.446L20.440 130.886C20.600 130.886 20.840 130.686 21.040 130.686C21.080 130.686 21.160 130.806 21.160 130.886C21.160 131.126 21.040 131.646 21.040 131.646C21.040 131.646 19.680 136.966 19.520 137.526C19.120 138.646 17.800 139.406 17.040 139.406C17.040 137.526 15.880 136.406 14.400 136.406C12.920 136.406 11.560 137.526 11.560 139.086C11.560 139.806 12.120 140.566 12.680 141.126C13.120 141.326 13.480 141.526 13.840 141.526C14.240 141.686 14.640 141.686 14.960 141.686C15.560 141.686 16.080 141.686 16.440 141.526L17.960 140.966C18.560 140.966 18.560 141.326 18.560 141.526L17.040 147.966C16.640 149.046 15.360 149.646 14.640 149.646C14.640 147.766 13.480 146.606 11.960 146.606C10.440 146.606 9.120 147.766 9.120 149.246C9.120 150.006 9.680 150.726 10.240 151.326L11.400 151.886L12.120 151.886C12.680 151.886 13.480 151.886 14.040 151.726L15.560 151.166C16.080 151.166 16.080 151.726 16.080 151.886L14.640 158.166C14.240 159.286 13.120 159.686 12.520 159.846C12.120 159.846 11.200 156.646 9.680 156.646C8.160 156.646 6.800 157.966 6.800 159.286C6.800 160.246 7.400 160.966 7.960 161.366L9.120 161.926C9.480 161.926 9.880 162.126 10.240 162.126C10.800 162.126 11.400 161.926 11.760 161.766C12.360 161.566 12.680 161.566 13.240 161.206C13.480 161.206 13.680 161.566 13.680 161.766C13.680 161.926 12.920 166.126 12.120 168.206C11.760 169.166 10.640 169.526 10.040 169.726C10.040 167.646 8.520 166.526 7.240 166.526C5.880 166.526 4.560 167.806 4.560 169.166C4.560 170.086 5.160 170.846 5.720 171.206L6.800 171.766C7.240 171.766 7.600 172.006 7.960 172.006C8.520 172.006 9.120 171.766 9.480 171.566C10.040 171.406 10.440 171.406 10.800 171.006C11 171.006 11.200 171.406 11.200 171.566C11.200 172.126 10.040 177.086 9.880 177.686C9.480 178.806 8.160 179.366 7.600 179.526C7.600 177.446 6.280 176.286 4.960 176.286C3.440 176.286 2.280 177.686 2.280 178.966C2.280 179.966 2.680 180.686 3.240 181.046L4.400 181.646C4.720 181.646 5.160 181.806 5.520 181.806C6.080 181.806 6.680 181.646 7 181.446C7.600 181.246 7.960 181.246 8.520 180.846C8.720 180.846 8.960 181.246 8.960 181.446C8.720 181.646 7.400 187.926 7.240 188.446C6.800 189.406 5.880 189.766 5.280 189.766C5.280 187.686 4 186.526 2.680 186.526C1.160 186.526 0 187.926 0 189.206C0 190.166 0.440 190.926 1 191.286L2.080 191.886C2.480 191.886 2.840 192.046 3.240 192.046C3.800 192.046 4.400 191.886 4.720 191.646L6.080 191.286C6.440 191.286 6.440 191.486 6.440 191.646C6.280 192.206 3.800 202.406 3.600 202.646C3.600 202.806 4.400 203.566 4.720 203.566C5.880 203.566 6.080 203.366 6.280 202.806C6.280 202.406 20.440 142.246 22.560 132.406C22.560 132.406 26.720 117.286 26.720 116.926C26.720 116.526 26.320 116.326 26.320 116.326Z"></path></g></g><g transform="translate(765.081166246265)"><g></g><g><line stroke="#000000" stroke-width="1.6" x1="33.854229391440626" x2="33.854229391440626" y1="143.8461538461538" y2="183.8461538461538"></line></g><g><path d="M26.320 116.326C24.840 116.926 24.040 119.206 22.160 119.206C22.160 117.286 21.040 115.966 19.520 115.966C17.960 115.966 16.640 117.286 16.640 118.806C16.640 119.526 17.200 120.326 17.800 120.926L18.920 121.486C19.320 121.486 19.680 121.646 20.080 121.646C20.600 121.646 21.160 121.486 21.600 121.246L23.120 120.686C23.480 120.686 23.680 120.926 23.680 121.086C23.680 122.966 22.560 125.806 22 127.686C21.760 128.446 20.280 129.406 19.520 129.406C19.520 127.446 18.360 126.366 16.880 126.366C15.360 126.366 14.040 127.446 14.040 129.006C14.040 129.766 14.640 130.566 15.200 131.126C15.600 131.206 15.880 131.446 16.320 131.446C16.640 131.646 17.040 131.646 17.440 131.646C17.960 131.646 18.560 131.646 18.920 131.446L20.440 130.886C20.600 130.886 20.840 130.686 21.040 130.686C21.080 130.686 21.160 130.806 21.160 130.886C21.160 131.126 21.040 131.646 21.040 131.646C21.040 131.646 19.680 136.966 19.520 137.526C19.120 138.646 17.800 139.406 17.040 139.406C17.040 137.526 15.880 136.406 14.400 136.406C12.920 136.406 11.560 137.526 11.560 139.086C11.560 139.806 12.120 140.566 12.680 141.126C13.120 141.326 13.480 141.526 13.840 141.526C14.240 141.686 14.640 141.686 14.960 141.686C15.560 141.686 16.080 141.686 16.440 141.526L17.960 140.966C18.560 140.966 18.560 141.326 18.560 141.526L17.040 147.966C16.640 149.046 15.360 149.646 14.640 149.646C14.640 147.766 13.480 146.606 11.960 146.606C10.440 146.606 9.120 147.766 9.120 149.246C9.120 150.006 9.680 150.726 10.240 151.326L11.400 151.886L12.120 151.886C12.680 151.886 13.480 151.886 14.040 151.726L15.560 151.166C16.080 151.166 16.080 151.726 16.080 151.886L14.640 158.166C14.240 159.286 13.120 159.686 12.520 159.846C12.120 159.846 11.200 156.646 9.680 156.646C8.160 156.646 6.800 157.966 6.800 159.286C6.800 160.246 7.400 160.966 7.960 161.366L9.120 161.926C9.480 161.926 9.880 162.126 10.240 162.126C10.800 162.126 11.400 161.926 11.760 161.766C12.360 161.566 12.680 161.566 13.240 161.206C13.480 161.206 13.680 161.566 13.680 161.766C13.680 161.926 12.920 166.126 12.120 168.206C11.760 169.166 10.640 169.526 10.040 169.726C10.040 167.646 8.520 166.526 7.240 166.526C5.880 166.526 4.560 167.806 4.560 169.166C4.560 170.086 5.160 170.846 5.720 171.206L6.800 171.766C7.240 171.766 7.600 172.006 7.960 172.006C8.520 172.006 9.120 171.766 9.480 171.566C10.040 171.406 10.440 171.406 10.800 171.006C11 171.006 11.200 171.406 11.200 171.566C11.200 172.126 10.040 177.086 9.880 177.686C9.480 178.806 8.160 179.366 7.600 179.526C7.600 177.446 6.280 176.286 4.960 176.286C3.440 176.286 2.280 177.686 2.280 178.966C2.280 179.966 2.680 180.686 3.240 181.046L4.400 181.646C4.720 181.646 5.160 181.806 5.520 181.806C6.080 181.806 6.680 181.646 7 181.446C7.600 181.246 7.960 181.246 8.520 180.846C8.720 180.846 8.960 181.246 8.960 181.446C8.720 181.646 7.400 187.926 7.240 188.446C6.800 189.406 5.880 189.766 5.280 189.766C5.280 187.686 4 186.526 2.680 186.526C1.160 186.526 0 187.926 0 189.206C0 190.166 0.440 190.926 1 191.286L2.080 191.886C2.480 191.886 2.840 192.046 3.240 192.046C3.800 192.046 4.400 191.886 4.720 191.646L6.080 191.286C6.440 191.286 6.440 191.486 6.440 191.646C6.280 192.206 3.800 202.406 3.600 202.646C3.600 202.806 4.400 203.566 4.720 203.566C5.880 203.566 6.080 203.366 6.280 202.806C6.280 202.406 20.440 142.246 22.560 132.406C22.560 132.406 26.720 117.286 26.720 116.926C26.720 116.526 26.320 116.326 26.320 116.326Z"></path></g></g><g transform="translate(814.7353956377057)"><g></g><g><line stroke="#000000" stroke-width="5" x1="35.55422939144063" x2="35.55422939144063" y1="143.8461538461538" y2="183.8461538461538"></line></g><g><path d="M26.320 116.326C24.840 116.926 24.040 119.206 22.160 119.206C22.160 117.286 21.040 115.966 19.520 115.966C17.960 115.966 16.640 117.286 16.640 118.806C16.640 119.526 17.200 120.326 17.800 120.926L18.920 121.486C19.320 121.486 19.680 121.646 20.080 121.646C20.600 121.646 21.160 121.486 21.600 121.246L23.120 120.686C23.480 120.686 23.680 120.926 23.680 121.086C23.680 122.966 22.560 125.806 22 127.686C21.760 128.446 20.280 129.406 19.520 129.406C19.520 127.446 18.360 126.366 16.880 126.366C15.360 126.366 14.040 127.446 14.040 129.006C14.040 129.766 14.640 130.566 15.200 131.126C15.600 131.206 15.880 131.446 16.320 131.446C16.640 131.646 17.040 131.646 17.440 131.646C17.960 131.646 18.560 131.646 18.920 131.446L20.440 130.886C20.600 130.886 20.840 130.686 21.040 130.686C21.080 130.686 21.160 130.806 21.160 130.886C21.160 131.126 21.040 131.646 21.040 131.646C21.040 131.646 19.680 136.966 19.520 137.526C19.120 138.646 17.800 139.406 17.040 139.406C17.040 137.526 15.880 136.406 14.400 136.406C12.920 136.406 11.560 137.526 11.560 139.086C11.560 139.806 12.120 140.566 12.680 141.126C13.120 141.326 13.480 141.526 13.840 141.526C14.240 141.686 14.640 141.686 14.960 141.686C15.560 141.686 16.080 141.686 16.440 141.526L17.960 140.966C18.560 140.966 18.560 141.326 18.560 141.526L17.040 147.966C16.640 149.046 15.360 149.646 14.640 149.646C14.640 147.766 13.480 146.606 11.960 146.606C10.440 146.606 9.120 147.766 9.120 149.246C9.120 150.006 9.680 150.726 10.240 151.326L11.400 151.886L12.120 151.886C12.680 151.886 13.480 151.886 14.040 151.726L15.560 151.166C16.080 151.166 16.080 151.726 16.080 151.886L14.640 158.166C14.240 159.286 13.120 159.686 12.520 159.846C12.120 159.846 11.200 156.646 9.680 156.646C8.160 156.646 6.800 157.966 6.800 159.286C6.800 160.246 7.400 160.966 7.960 161.366L9.120 161.926C9.480 161.926 9.880 162.126 10.240 162.126C10.800 162.126 11.400 161.926 11.760 161.766C12.360 161.566 12.680 161.566 13.240 161.206C13.480 161.206 13.680 161.566 13.680 161.766C13.680 161.926 12.920 166.126 12.120 168.206C11.760 169.166 10.640 169.526 10.040 169.726C10.040 167.646 8.520 166.526 7.240 166.526C5.880 166.526 4.560 167.806 4.560 169.166C4.560 170.086 5.160 170.846 5.720 171.206L6.800 171.766C7.240 171.766 7.600 172.006 7.960 172.006C8.520 172.006 9.120 171.766 9.480 171.566C10.040 171.406 10.440 171.406 10.800 171.006C11 171.006 11.200 171.406 11.200 171.566C11.200 172.126 10.040 177.086 9.880 177.686C9.480 178.806 8.160 179.366 7.600 179.526C7.600 177.446 6.280 176.286 4.960 176.286C3.440 176.286 2.280 177.686 2.280 178.966C2.280 179.966 2.680 180.686 3.240 181.046L4.400 181.646C4.720 181.646 5.160 181.806 5.520 181.806C6.080 181.806 6.680 181.646 7 181.446C7.600 181.246 7.960 181.246 8.520 180.846C8.720 180.846 8.960 181.246 8.960 181.446C8.720 181.646 7.400 187.926 7.240 188.446C6.800 189.406 5.880 189.766 5.280 189.766C5.280 187.686 4 186.526 2.680 186.526C1.160 186.526 0 187.926 0 189.206C0 190.166 0.440 190.926 1 191.286L2.080 191.886C2.480 191.886 2.840 192.046 3.240 192.046C3.800 192.046 4.400 191.886 4.720 191.646L6.080 191.286C6.440 191.286 6.440 191.486 6.440 191.646C6.280 192.206 3.800 202.406 3.600 202.646C3.600 202.806 4.400 203.566 4.720 203.566C5.880 203.566 6.080 203.366 6.280 202.806C6.280 202.406 20.440 142.246 22.560 132.406C22.560 132.406 26.720 117.286 26.720 116.926C26.720 116.526 26.320 116.326 26.320 116.326Z"></path></g></g><g transform="translate(867.7896250291462)"><g></g><g><line stroke="#000000" stroke-width="1.6" x1="33.854229391440626" x2="33.854229391440626" y1="143.8461538461538" y2="183.8461538461538"></line><line stroke="#000000" stroke-width="1.6" x1="39.45422939144063" x2="39.45422939144063" y1="143.8461538461538" y2="183.8461538461538"></line></g><g><path d="M26.320 116.326C24.840 116.926 24.040 119.206 22.160 119.206C22.160 117.286 21.040 115.966 19.520 115.966C17.960 115.966 16.640 117.286 16.640 118.806C16.640 119.526 17.200 120.326 17.800 120.926L18.920 121.486C19.320 121.486 19.680 121.646 20.080 121.646C20.600 121.646 21.160 121.486 21.600 121.246L23.120 120.686C23.480 120.686 23.680 120.926 23.680 121.086C23.680 122.966 22.560 125.806 22 127.686C21.760 128.446 20.280 129.406 19.520 129.406C19.520 127.446 18.360 126.366 16.880 126.366C15.360 126.366 14.040 127.446 14.040 129.006C14.040 129.766 14.640 130.566 15.200 131.126C15.600 131.206 15.880 131.446 16.320 131.446C16.640 131.646 17.040 131.646 17.440 131.646C17.960 131.646 18.560 131.646 18.920 131.446L20.440 130.886C20.600 130.886 20.840 130.686 21.040 130.686C21.080 130.686 21.160 130.806 21.160 130.886C21.160 131.126 21.040 131.646 21.040 131.646C21.040 131.646 19.680 136.966 19.520 137.526C19.120 138.646 17.800 139.406 17.040 139.406C17.040 137.526 15.880 136.406 14.400 136.406C12.920 136.406 11.560 137.526 11.560 139.086C11.560 139.806 12.120 140.566 12.680 141.126C13.120 141.326 13.480 141.526 13.840 141.526C14.240 141.686 14.640 141.686 14.960 141.686C15.560 141.686 16.080 141.686 16.440 141.526L17.960 140.966C18.560 140.966 18.560 141.326 18.560 141.526L17.040 147.966C16.640 149.046 15.360 149.646 14.640 149.646C14.640 147.766 13.480 146.606 11.960 146.606C10.440 146.606 9.120 147.766 9.120 149.246C9.120 150.006 9.680 150.726 10.240 151.326L11.400 151.886L12.120 151.886C12.680 151.886 13.480 151.886 14.040 151.726L15.560 151.166C16.080 151.166 16.080 151.726 16.080 151.886L14.640 158.166C14.240 159.286 13.120 159.686 12.520 159.846C12.120 159.846 11.200 156.646 9.680 156.646C8.160 156.646 6.800 157.966 6.800 159.286C6.800 160.246 7.400 160.966 7.960 161.366L9.120 161.926C9.480 161.926 9.880 162.126 10.240 162.126C10.800 162.126 11.400 161.926 11.760 161.766C12.360 161.566 12.680 161.566 13.240 161.206C13.480 161.206 13.680 161.566 13.680 161.766C13.680 161.926 12.920 166.126 12.120 168.206C11.760 169.166 10.640 169.526 10.040 169.726C10.040 167.646 8.520 166.526 7.240 166.526C5.880 166.526 4.560 167.806 4.560 169.166C4.560 170.086 5.160 170.846 5.720 171.206L6.800 171.766C7.240 171.766 7.600 172.006 7.960 172.006C8.520 172.006 9.120 171.766 9.480 171.566C10.040 171.406 10.440 171.406 10.800 171.006C11 171.006 11.200 171.406 11.200 171.566C11.200 172.126 10.040 177.086 9.880 177.686C9.480 178.806 8.160 179.366 7.600 179.526C7.600 177.446 6.280 176.286 4.960 176.286C3.440 176.286 2.280 177.686 2.280 178.966C2.280 179.966 2.680 180.686 3.240 181.046L4.400 181.646C4.720 181.646 5.160 181.806 5.520 181.806C6.080 181.806 6.680 181.646 7 181.446C7.600 181.246 7.960 181.246 8.520 180.846C8.720 180.846 8.960 181.246 8.960 181.446C8.720 181.646 7.400 187.926 7.240 188.446C6.800 189.406 5.880 189.766 5.280 189.766C5.280 187.686 4 186.526 2.680 186.526C1.160 186.526 0 187.926 0 189.206C0 190.166 0.440 190.926 1 191.286L2.080 191.886C2.480 191.886 2.840 192.046 3.240 192.046C3.800 192.046 4.400 191.886 4.720 191.646L6.080 191.286C6.440 191.286 6.440 191.486 6.440 191.646C6.280 192.206 3.800 202.406 3.600 202.646C3.600 202.806 4.400 203.566 4.720 203.566C5.880 203.566 6.080 203.366 6.280 202.806C6.280 202.406 20.440 142.246 22.560 132.406C22.560 132.406 26.720 117.286 26.720 116.926C26.720 116.526 26.320 116.326 26.320 116.326Z"></path></g></g><g transform="translate(923.043854420587)"><g></g><g><line stroke="#000000" stroke-width="1.6" x1="33.854229391440626" x2="33.854229391440626" y1="143.8461538461538" y2="183.8461538461538"></line><line stroke="#000000" stroke-width="5" x1="41.15422939144063" x2="41.15422939144063" y1="143.8461538461538" y2="183.8461538461538"></line></g><g><path d="M26.320 116.326C24.840 116.926 24.040 119.206 22.160 119.206C22.160 117.286 21.040 115.966 19.520 115.966C17.960 115.966 16.640 117.286 16.640 118.806C16.640 119.526 17.200 120.326 17.800 120.926L18.920 121.486C19.320 121.486 19.680 121.646 20.080 121.646C20.600 121.646 21.160 121.486 21.600 121.246L23.120 120.686C23.480 120.686 23.680 120.926 23.680 121.086C23.680 122.966 22.560 125.806 22 127.686C21.760 128.446 20.280 129.406 19.520 129.406C19.520 127.446 18.360 126.366 16.880 126.366C15.360 126.366 14.040 127.446 14.040 129.006C14.040 129.766 14.640 130.566 15.200 131.126C15.600 131.206 15.880 131.446 16.320 131.446C16.640 131.646 17.040 131.646 17.440 131.646C17.960 131.646 18.560 131.646 18.920 131.446L20.440 130.886C20.600 130.886 20.840 130.686 21.040 130.686C21.080 130.686 21.160 130.806 21.160 130.886C21.160 131.126 21.040 131.646 21.040 131.646C21.040 131.646 19.680 136.966 19.520 137.526C19.120 138.646 17.800 139.406 17.040 139.406C17.040 137.526 15.880 136.406 14.400 136.406C12.920 136.406 11.560 137.526 11.560 139.086C11.560 139.806 12.120 140.566 12.680 141.126C13.120 141.326 13.480 141.526 13.840 141.526C14.240 141.686 14.640 141.686 14.960 141.686C15.560 141.686 16.080 141.686 16.440 141.526L17.960 140.966C18.560 140.966 18.560 141.326 18.560 141.526L17.040 147.966C16.640 149.046 15.360 149.646 14.640 149.646C14.640 147.766 13.480 146.606 11.960 146.606C10.440 146.606 9.120 147.766 9.120 149.246C9.120 150.006 9.680 150.726 10.240 151.326L11.400 151.886L12.120 151.886C12.680 151.886 13.480 151.886 14.040 151.726L15.560 151.166C16.080 151.166 16.080 151.726 16.080 151.886L14.640 158.166C14.240 159.286 13.120 159.686 12.520 159.846C12.120 159.846 11.200 156.646 9.680 156.646C8.160 156.646 6.800 157.966 6.800 159.286C6.800 160.246 7.400 160.966 7.960 161.366L9.120 161.926C9.480 161.926 9.880 162.126 10.240 162.126C10.800 162.126 11.400 161.926 11.760 161.766C12.360 161.566 12.680 161.566 13.240 161.206C13.480 161.206 13.680 161.566 13.680 161.766C13.680 161.926 12.920 166.126 12.120 168.206C11.760 169.166 10.640 169.526 10.040 169.726C10.040 167.646 8.520 166.526 7.240 166.526C5.880 166.526 4.560 167.806 4.560 169.166C4.560 170.086 5.160 170.846 5.720 171.206L6.800 171.766C7.240 171.766 7.600 172.006 7.960 172.006C8.520 172.006 9.120 171.766 9.480 171.566C10.040 171.406 10.440 171.406 10.800 171.006C11 171.006 11.200 171.406 11.200 171.566C11.200 172.126 10.040 177.086 9.880 177.686C9.480 178.806 8.160 179.366 7.600 179.526C7.600 177.446 6.280 176.286 4.960 176.286C3.440 176.286 2.280 177.686 2.280 178.966C2.280 179.966 2.680 180.686 3.240 181.046L4.400 181.646C4.720 181.646 5.160 181.806 5.520 181.806C6.080 181.806 6.680 181.646 7 181.446C7.600 181.246 7.960 181.246 8.520 180.846C8.720 180.846 8.960 181.246 8.960 181.446C8.720 181.646 7.400 187.926 7.240 188.446C6.800 189.406 5.880 189.766 5.280 189.766C5.280 187.686 4 186.526 2.680 186.526C1.160 186.526 0 187.926 0 189.206C0 190.166 0.440 190.926 1 191.286L2.080 191.886C2.480 191.886 2.840 192.046 3.240 192.046C3.800 192.046 4.400 191.886 4.720 191.646L6.080 191.286C6.440 191.286 6.440 191.486 6.440 191.646C6.280 192.206 3.800 202.406 3.600 202.646C3.600 202.806 4.400 203.566 4.720 203.566C5.880 203.566 6.080 203.366 6.280 202.806C6.280 202.406 20.440 142.246 22.560 132.406C22.560 132.406 26.720 117.286 26.720 116.926C26.720 116.526 26.320 116.326 26.320 116.326Z"></path></g></g><g transform="translate(981.6980838120276)"><g></g><g><line stroke="#000000" stroke-width="5" x1="35.55422939144063" x2="35.55422939144063" y1="143.8461538461538" y2="183.8461538461538"></line><line stroke="#000000" stroke-width="1.6" x1="42.854229391440626" x2="42.854229391440626" y1="143.8461538461538" y2="183.8461538461538"></line></g><g><path d="M26.320 116.326C24.840 116.926 24.040 119.206 22.160 119.206C22.160 117.286 21.040 115.966 19.520 115.966C17.960 115.966 16.640 117.286 16.640 118.806C16.640 119.526 17.200 120.326 17.800 120.926L18.920 121.486C19.320 121.486 19.680 121.646 20.080 121.646C20.600 121.646 21.160 121.486 21.600 121.246L23.120 120.686C23.480 120.686 23.680 120.926 23.680 121.086C23.680 122.966 22.560 125.806 22 127.686C21.760 128.446 20.280 129.406 19.520 129.406C19.520 127.446 18.360 126.366 16.880 126.366C15.360 126.366 14.040 127.446 14.040 129.006C14.040 129.766 14.640 130.566 15.200 131.126C15.600 131.206 15.880 131.446 16.320 131.446C16.640 131.646 17.040 131.646 17.440 131.646C17.960 131.646 18.560 131.646 18.920 131.446L20.440 130.886C20.600 130.886 20.840 130.686 21.040 130.686C21.080 130.686 21.160 130.806 21.160 130.886C21.160 131.126 21.040 131.646 21.040 131.646C21.040 131.646 19.680 136.966 19.520 137.526C19.120 138.646 17.800 139.406 17.040 139.406C17.040 137.526 15.880 136.406 14.400 136.406C12.920 136.406 11.560 137.526 11.560 139.086C11.560 139.806 12.120 140.566 12.680 141.126C13.120 141.326 13.480 141.526 13.840 141.526C14.240 141.686 14.640 141.686 14.960 141.686C15.560 141.686 16.080 141.686 16.440 141.526L17.960 140.966C18.560 140.966 18.560 141.326 18.560 141.526L17.040 147.966C16.640 149.046 15.360 149.646 14.640 149.646C14.640 147.766 13.480 146.606 11.960 146.606C10.440 146.606 9.120 147.766 9.120 149.246C9.120 150.006 9.680 150.726 10.240 151.326L11.400 151.886L12.120 151.886C12.680 151.886 13.480 151.886 14.040 151.726L15.560 151.166C16.080 151.166 16.080 151.726 16.080 151.886L14.640 158.166C14.240 159.286 13.120 159.686 12.520 159.846C12.120 159.846 11.200 156.646 9.680 156.646C8.160 156.646 6.800 157.966 6.800 159.286C6.800 160.246 7.400 160.966 7.960 161.366L9.120 161.926C9.480 161.926 9.880 162.126 10.240 162.126C10.800 162.126 11.400 161.926 11.760 161.766C12.360 161.566 12.680 161.566 13.240 161.206C13.480 161.206 13.680 161.566 13.680 161.766C13.680 161.926 12.920 166.126 12.120 168.206C11.760 169.166 10.640 169.526 10.040 169.726C10.040 167.646 8.520 166.526 7.240 166.526C5.880 166.526 4.560 167.806 4.560 169.166C4.560 170.086 5.160 170.846 5.720 171.206L6.800 171.766C7.240 171.766 7.600 172.006 7.960 172.006C8.520 172.006 9.120 171.766 9.480 171.566C10.040 171.406 10.440 171.406 10.800 171.006C11 171.006 11.200 171.406 11.200 171.566C11.200 172.126 10.040 177.086 9.880 177.686C9.480 178.806 8.160 179.366 7.600 179.526C7.600 177.446 6.280 176.286 4.960 176.286C3.440 176.286 2.280 177.686 2.280 178.966C2.280 179.966 2.680 180.686 3.240 181.046L4.400 181.646C4.720 181.646 5.160 181.806 5.520 181.806C6.080 181.806 6.680 181.646 7 181.446C7.600 181.246 7.960 181.246 8.520 180.846C8.720 180.846 8.960 181.246 8.960 181.446C8.720 181.646 7.400 187.926 7.240 188.446C6.800 189.406 5.880 189.766 5.280 189.766C5.280 187.686 4 186.526 2.680 186.526C1.160 186.526 0 187.926 0 189.206C0 190.166 0.440 190.926 1 191.286L2.080 191.886C2.480 191.886 2.840 192.046 3.240 192.046C3.800 192.046 4.400 191.886 4.720 191.646L6.080 191.286C6.440 191.286 6.440 191.486 6.440 191.646C6.280 192.206 3.800 202.406 3.600 202.646C3.600 202.806 4.400 203.566 4.720 203.566C5.880 203.566 6.080 203.366 6.280 202.806C6.280 202.406 20.440 142.246 22.560 132.406C22.560 132.406 26.720 117.286 26.720 116.926C26.720 116.526 26.320 116.326 26.320 116.326Z"></path></g></g><g transform="translate(1040.3523132034684)"><g></g><g><line stroke="#000000" stroke-width="5" x1="35.55422939144063" x2="35.55422939144063" y1="143.8461538461538" y2="183.8461538461538"></line><line stroke="#000000" stroke-width="5" x1="44.55422939144063" x2="44.55422939144063" y1="143.8461538461538" y2="183.8461538461538"></line></g><g><path d="M26.320 116.326C24.840 116.926 24.040 119.206 22.160 119.206C22.160 117.286 21.040 115.966 19.520 115.966C17.960 115.966 16.640 117.286 16.640 118.806C16.640 119.526 17.200 120.326 17.800 120.926L18.920 121.486C19.320 121.486 19.680 121.646 20.080 121.646C20.600 121.646 21.160 121.486 21.600 121.246L23.120 120.686C23.480 120.686 23.680 120.926 23.680 121.086C23.680 122.966 22.560 125.806 22 127.686C21.760 128.446 20.280 129.406 19.520 129.406C19.520 127.446 18.360 126.366 16.880 126.366C15.360 126.366 14.040 127.446 14.040 129.006C14.040 129.766 14.640 130.566 15.200 131.126C15.600 131.206 15.880 131.446 16.320 131.446C16.640 131.646 17.040 131.646 17.440 131.646C17.960 131.646 18.560 131.646 18.920 131.446L20.440 130.886C20.600 130.886 20.840 130.686 21.040 130.686C21.080 130.686 21.160 130.806 21.160 130.886C21.160 131.126 21.040 131.646 21.040 131.646C21.040 131.646 19.680 136.966 19.520 137.526C19.120 138.646 17.800 139.406 17.040 139.406C17.040 137.526 15.880 136.406 14.400 136.406C12.920 136.406 11.560 137.526 11.560 139.086C11.560 139.806 12.120 140.566 12.680 141.126C13.120 141.326 13.480 141.526 13.840 141.526C14.240 141.686 14.640 141.686 14.960 141.686C15.560 141.686 16.080 141.686 16.440 141.526L17.960 140.966C18.560 140.966 18.560 141.326 18.560 141.526L17.040 147.966C16.640 149.046 15.360 149.646 14.640 149.646C14.640 147.766 13.480 146.606 11.960 146.606C10.440 146.606 9.120 147.766 9.120 149.246C9.120 150.006 9.680 150.726 10.240 151.326L11.400 151.886L12.120 151.886C12.680 151.886 13.480 151.886 14.040 151.726L15.560 151.166C16.080 151.166 16.080 151.726 16.080 151.886L14.640 158.166C14.240 159.286 13.120 159.686 12.520 159.846C12.120 159.846 11.200 156.646 9.680 156.646C8.160 156.646 6.800 157.966 6.800 159.286C6.800 160.246 7.400 160.966 7.960 161.366L9.120 161.926C9.480 161.926 9.880 162.126 10.240 162.126C10.800 162.126 11.400 161.926 11.760 161.766C12.360 161.566 12.680 161.566 13.240 161.206C13.480 161.206 13.680 161.566 13.680 161.766C13.680 161.926 12.920 166.126 12.120 168.206C11.760 169.166 10.640 169.526 10.040 169.726C10.040 167.646 8.520 166.526 7.240 166.526C5.880 166.526 4.560 167.806 4.560 169.166C4.560 170.086 5.160 170.846 5.720 171.206L6.800 171.766C7.240 171.766 7.600 172.006 7.960 172.006C8.520 172.006 9.120 171.766 9.480 171.566C10.040 171.406 10.440 171.406 10.800 171.006C11 171.006 11.200 171.406 11.200 171.566C11.200 172.126 10.040 177.086 9.880 177.686C9.480 178.806 8.160 179.366 7.600 179.526C7.600 177.446 6.280 176.286 4.960 176.286C3.440 176.286 2.280 177.686 2.280 178.966C2.280 179.966 2.680 180.686 3.240 181.046L4.400 181.646C4.720 181.646 5.160 181.806 5.520 181.806C6.080 181.806 6.680 181.646 7 181.446C7.600 181.246 7.960 181.246 8.520 180.846C8.720 180.846 8.960 181.246 8.960 181.446C8.720 181.646 7.400 187.926 7.240 188.446C6.800 189.406 5.880 189.766 5.280 189.766C5.280 187.686 4 186.526 2.680 186.526C1.160 186.526 0 187.926 0 189.206C0 190.166 0.440 190.926 1 191.286L2.080 191.886C2.480 191.886 2.840 192.046 3.240 192.046C3.800 192.046 4.400 191.886 4.720 191.646L6.080 191.286C6.440 191.286 6.440 191.486 6.440 191.646C6.280 192.206 3.800 202.406 3.600 202.646C3.600 202.806 4.400 203.566 4.720 203.566C5.880 203.566 6.080 203.366 6.280 202.806C6.280 202.406 20.440 142.246 22.560 132.406C22.560 132.406 26.720 117.286 26.720 116.926C26.720 116.526 26.320 116.326 26.320 116.326Z"></path></g></g><g transform="translate(1102.4065425949088)"><g></g><g><line stroke="#000000" stroke-width="1.6" x1="33.854229391440626" x2="33.854229391440626" y1="143.8461538461538" y2="183.8461538461538"></line></g><g><path d="M26.320 116.326C24.840 116.926 24.040 119.206 22.160 119.206C22.160 117.286 21.040 115.966 19.520 115.966C17.960 115.966 16.640 117.286 16.640 118.806C16.640 119.526 17.200 120.326 17.800 120.926L18.920 121.486C19.320 121.486 19.680 121.646 20.080 121.646C20.600 121.646 21.160 121.486 21.600 121.246L23.120 120.686C23.480 120.686 23.680 120.926 23.680 121.086C23.680 122.966 22.560 125.806 22 127.686C21.760 128.446 20.280 129.406 19.520 129.406C19.520 127.446 18.360 126.366 16.880 126.366C15.360 126.366 14.040 127.446 14.040 129.006C14.040 129.766 14.640 130.566 15.200 131.126C15.600 131.206 15.880 131.446 16.320 131.446C16.640 131.646 17.040 131.646 17.440 131.646C17.960 131.646 18.560 131.646 18.920 131.446L20.440 130.886C20.600 130.886 20.840 130.686 21.040 130.686C21.080 130.686 21.160 130.806 21.160 130.886C21.160 131.126 21.040 131.646 21.040 131.646C21.040 131.646 19.680 136.966 19.520 137.526C19.120 138.646 17.800 139.406 17.040 139.406C17.040 137.526 15.880 136.406 14.400 136.406C12.920 136.406 11.560 137.526 11.560 139.086C11.560 139.806 12.120 140.566 12.680 141.126C13.120 141.326 13.480 141.526 13.840 141.526C14.240 141.686 14.640 141.686 14.960 141.686C15.560 141.686 16.080 141.686 16.440 141.526L17.960 140.966C18.560 140.966 18.560 141.326 18.560 141.526L17.040 147.966C16.640 149.046 15.360 149.646 14.640 149.646C14.640 147.766 13.480 146.606 11.960 146.606C10.440 146.606 9.120 147.766 9.120 149.246C9.120 150.006 9.680 150.726 10.240 151.326L11.400 151.886L12.120 151.886C12.680 151.886 13.480 151.886 14.040 151.726L15.560 151.166C16.080 151.166 16.080 151.726 16.080 151.886L14.640 158.166C14.240 159.286 13.120 159.686 12.520 159.846C12.120 159.846 11.200 156.646 9.680 156.646C8.160 156.646 6.800 157.966 6.800 159.286C6.800 160.246 7.400 160.966 7.960 161.366L9.120 161.926C9.480 161.926 9.880 162.126 10.240 162.126C10.800 162.126 11.400 161.926 11.760 161.766C12.360 161.566 12.680 161.566 13.240 161.206C13.480 161.206 13.680 161.566 13.680 161.766C13.680 161.926 12.920 166.126 12.120 168.206C11.760 169.166 10.640 169.526 10.040 169.726C10.040 167.646 8.520 166.526 7.240 166.526C5.880 166.526 4.560 167.806 4.560 169.166C4.560 170.086 5.160 170.846 5.720 171.206L6.800 171.766C7.240 171.766 7.600 172.006 7.960 172.006C8.520 172.006 9.120 171.766 9.480 171.566C10.040 171.406 10.440 171.406 10.800 171.006C11 171.006 11.200 171.406 11.200 171.566C11.200 172.126 10.040 177.086 9.880 177.686C9.480 178.806 8.160 179.366 7.600 179.526C7.600 177.446 6.280 176.286 4.960 176.286C3.440 176.286 2.280 177.686 2.280 178.966C2.280 179.966 2.680 180.686 3.240 181.046L4.400 181.646C4.720 181.646 5.160 181.806 5.520 181.806C6.080 181.806 6.680 181.646 7 181.446C7.600 181.246 7.960 181.246 8.520 180.846C8.720 180.846 8.960 181.246 8.960 181.446C8.720 181.646 7.400 187.926 7.240 188.446C6.800 189.406 5.880 189.766 5.280 189.766C5.280 187.686 4 186.526 2.680 186.526C1.160 186.526 0 187.926 0 189.206C0 190.166 0.440 190.926 1 191.286L2.080 191.886C2.480 191.886 2.840 192.046 3.240 192.046C3.800 192.046 4.400 191.886 4.720 191.646L6.080 191.286C6.440 191.286 6.440 191.486 6.440 191.646C6.280 192.206 3.800 202.406 3.600 202.646C3.600 202.806 4.400 203.566 4.720 203.566C5.880 203.566 6.080 203.366 6.280 202.806C6.280 202.406 20.440 142.246 22.560 132.406C22.560 132.406 26.720 117.286 26.720 116.926C26.720 116.526 26.320 116.326 26.320 116.326Z"></path></g></g><g transform="translate(1152.0607719863497)"><g></g><g><line stroke="#000000" stroke-width="1.6" x1="33.854229391440626" x2="33.854229391440626" y1="143.8461538461538" y2="183.8461538461538"></line></g><g><path d="M26.320 116.326C24.840 116.926 24.040 119.206 22.160 119.206C22.160 117.286 21.040 115.966 19.520 115.966C17.960 115.966 16.640 117.286 16.640 118.806C16.640 119.526 17.200 120.326 17.800 120.926L18.920 121.486C19.320 121.486 19.680 121.646 20.080 121.646C20.600 121.646 21.160 121.486 21.600 121.246L23.120 120.686C23.480 120.686 23.680 120.926 23.680 121.086C23.680 122.966 22.560 125.806 22 127.686C21.760 128.446 20.280 129.406 19.520 129.406C19.520 127.446 18.360 126.366 16.880 126.366C15.360 126.366 14.040 127.446 14.040 129.006C14.040 129.766 14.640 130.566 15.200 131.126C15.600 131.206 15.880 131.446 16.320 131.446C16.640 131.646 17.040 131.646 17.440 131.646C17.960 131.646 18.560 131.646 18.920 131.446L20.440 130.886C20.600 130.886 20.840 130.686 21.040 130.686C21.080 130.686 21.160 130.806 21.160 130.886C21.160 131.126 21.040 131.646 21.040 131.646C21.040 131.646 19.680 136.966 19.520 137.526C19.120 138.646 17.800 139.406 17.040 139.406C17.040 137.526 15.880 136.406 14.400 136.406C12.920 136.406 11.560 137.526 11.560 139.086C11.560 139.806 12.120 140.566 12.680 141.126C13.120 141.326 13.480 141.526 13.840 141.526C14.240 141.686 14.640 141.686 14.960 141.686C15.560 141.686 16.080 141.686 16.440 141.526L17.960 140.966C18.560 140.966 18.560 141.326 18.560 141.526L17.040 147.966C16.640 149.046 15.360 149.646 14.640 149.646C14.640 147.766 13.480 146.606 11.960 146.606C10.440 146.606 9.120 147.766 9.120 149.246C9.120 150.006 9.680 150.726 10.240 151.326L11.400 151.886L12.120 151.886C12.680 151.886 13.480 151.886 14.040 151.726L15.560 151.166C16.080 151.166 16.080 151.726 16.080 151.886L14.640 158.166C14.240 159.286 13.120 159.686 12.520 159.846C12.120 159.846 11.200 156.646 9.680 156.646C8.160 156.646 6.800 157.966 6.800 159.286C6.800 160.246 7.400 160.966 7.960 161.366L9.120 161.926C9.480 161.926 9.880 162.126 10.240 162.126C10.800 162.126 11.400 161.926 11.760 161.766C12.360 161.566 12.680 161.566 13.240 161.206C13.480 161.206 13.680 161.566 13.680 161.766C13.680 161.926 12.920 166.126 12.120 168.206C11.760 169.166 10.640 169.526 10.040 169.726C10.040 167.646 8.520 166.526 7.240 166.526C5.880 166.526 4.560 167.806 4.560 169.166C4.560 170.086 5.160 170.846 5.720 171.206L6.800 171.766C7.240 171.766 7.600 172.006 7.960 172.006C8.520 172.006 9.120 171.766 9.480 171.566C10.040 171.406 10.440 171.406 10.800 171.006C11 171.006 11.200 171.406 11.200 171.566C11.200 172.126 10.040 177.086 9.880 177.686C9.480 178.806 8.160 179.366 7.600 179.526C7.600 177.446 6.280 176.286 4.960 176.286C3.440 176.286 2.280 177.686 2.280 178.966C2.280 179.966 2.680 180.686 3.240 181.046L4.400 181.646C4.720 181.646 5.160 181.806 5.520 181.806C6.080 181.806 6.680 181.646 7 181.446C7.600 181.246 7.960 181.246 8.520 180.846C8.720 180.846 8.960 181.246 8.960 181.446C8.720 181.646 7.400 187.926 7.240 188.446C6.800 189.406 5.880 189.766 5.280 189.766C5.280 187.686 4 186.526 2.680 186.526C1.160 186.526 0 187.926 0 189.206C0 190.166 0.440 190.926 1 191.286L2.080 191.886C2.480 191.886 2.840 192.046 3.240 192.046C3.800 192.046 4.400 191.886 4.720 191.646L6.080 191.286C6.440 191.286 6.440 191.486 6.440 191.646C6.280 192.206 3.800 202.406 3.600 202.646C3.600 202.806 4.400 203.566 4.720 203.566C5.880 203.566 6.080 203.366 6.280 202.806C6.280 202.406 20.440 142.246 22.560 132.406C22.560 132.406 26.720 117.286 26.720 116.926C26.720 116.526 26.320 116.326 26.320 116.326Z"></path></g></g><g transform="translate(1201.7150013777903)"><g></g><g></g><g><path d="M26.320 116.326C24.840 116.926 24.040 119.206 22.160 119.206C22.160 117.286 21.040 115.966 19.520 115.966C17.960 115.966 16.640 117.286 16.640 118.806C16.640 119.526 17.200 120.326 17.800 120.926L18.920 121.486C19.320 121.486 19.680 121.646 20.080 121.646C20.600 121.646 21.160 121.486 21.600 121.246L23.120 120.686C23.480 120.686 23.680 120.926 23.680 121.086C23.680 122.966 22.560 125.806 22 127.686C21.760 128.446 20.280 129.406 19.520 129.406C19.520 127.446 18.360 126.366 16.880 126.366C15.360 126.366 14.040 127.446 14.040 129.006C14.040 129.766 14.640 130.566 15.200 131.126C15.600 131.206 15.880 131.446 16.320 131.446C16.640 131.646 17.040 131.646 17.440 131.646C17.960 131.646 18.560 131.646 18.920 131.446L20.440 130.886C20.600 130.886 20.840 130.686 21.040 130.686C21.080 130.686 21.160 130.806 21.160 130.886C21.160 131.126 21.040 131.646 21.040 131.646C21.040 131.646 19.680 136.966 19.520 137.526C19.120 138.646 17.800 139.406 17.040 139.406C17.040 137.526 15.880 136.406 14.400 136.406C12.920 136.406 11.560 137.526 11.560 139.086C11.560 139.806 12.120 140.566 12.680 141.126C13.120 141.326 13.480 141.526 13.840 141.526C14.240 141.686 14.640 141.686 14.960 141.686C15.560 141.686 16.080 141.686 16.440 141.526L17.960 140.966C18.560 140.966 18.560 141.326 18.560 141.526L17.040 147.966C16.640 149.046 15.360 149.646 14.640 149.646C14.640 147.766 13.480 146.606 11.960 146.606C10.440 146.606 9.120 147.766 9.120 149.246C9.120 150.006 9.680 150.726 10.240 151.326L11.400 151.886L12.120 151.886C12.680 151.886 13.480 151.886 14.040 151.726L15.560 151.166C16.080 151.166 16.080 151.726 16.080 151.886L14.640 158.166C14.240 159.286 13.120 159.686 12.520 159.846C12.120 159.846 11.200 156.646 9.680 156.646C8.160 156.646 6.800 157.966 6.800 159.286C6.800 160.246 7.400 160.966 7.960 161.366L9.120 161.926C9.480 161.926 9.880 162.126 10.240 162.126C10.800 162.126 11.400 161.926 11.760 161.766C12.360 161.566 12.680 161.566 13.240 161.206C13.480 161.206 13.680 161.566 13.680 161.766C13.680 161.926 12.920 166.126 12.120 168.206C11.760 169.166 10.640 169.526 10.040 169.726C10.040 167.646 8.520 166.526 7.240 166.526C5.880 166.526 4.560 167.806 4.560 169.166C4.560 170.086 5.160 170.846 5.720 171.206L6.800 171.766C7.240 171.766 7.600 172.006 7.960 172.006C8.520 172.006 9.120 171.766 9.480 171.566C10.040 171.406 10.440 171.406 10.800 171.006C11 171.006 11.200 171.406 11.200 171.566C11.200 172.126 10.040 177.086 9.880 177.686C9.480 178.806 8.160 179.366 7.600 179.526C7.600 177.446 6.280 176.286 4.960 176.286C3.440 176.286 2.280 177.686 2.280 178.966C2.280 179.966 2.680 180.686 3.240 181.046L4.400 181.646C4.720 181.646 5.160 181.806 5.520 181.806C6.080 181.806 6.680 181.646 7 181.446C7.600 181.246 7.960 181.246 8.520 180.846C8.720 180.846 8.960 181.246 8.960 181.446C8.720 181.646 7.400 187.926 7.240 188.446C6.800 189.406 5.880 189.766 5.280 189.766C5.280 187.686 4 186.526 2.680 186.526C1.160 186.526 0 187.926 0 189.206C0 190.166 0.440 190.926 1 191.286L2.080 191.886C2.480 191.886 2.840 192.046 3.240 192.046C3.800 192.046 4.400 191.886 4.720 191.646L6.080 191.286C6.440 191.286 6.440 191.486 6.440 191.646C6.280 192.206 3.800 202.406 3.600 202.646C3.600 202.806 4.400 203.566 4.720 203.566C5.880 203.566 6.080 203.366 6.280 202.806C6.280 202.406 20.440 142.246 22.560 132.406C22.560 132.406 26.720 117.286 26.720 116.926C26.720 116.526 26.320 116.326 26.320 116.326Z"></path></g></g><g transform="translate(93.84615384615385)"><g><g><line stroke="#6A6A6A" stroke-width="1.3" x1="0" x2="124.06076923076922" y1="314.8461538461538" y2="314.8461538461538"></line><line stroke="#6A6A6A" stroke-width="1.3" x1="0" x2="124.06076923076922" y1="304.8461538461538" y2="304.8461538461538"></line><line stroke="#6A6A6A" stroke-width="1.3" x1="0" x2="124.06076923076922" y1="294.8461538461538" y2="294.8461538461538"></line><line stroke="#6A6A6A" stroke-width="1.3" x1="0" x2="124.06076923076922" y1="284.8461538461538" y2="284.8461538461538"></line><line stroke="#6A6A6A" stroke-width="1.3" x1="0" x2="124.06076923076922" y1="274.8461538461538" y2="274.8461538461538"></line></g><g><path d="M25.200 260.926C24.640 260.926 23.400 261.966 22.600 262.846C19.640 266.126 18.680 271.126 18.680 275.286C18.680 277.606 18.960 280.206 19.240 281.846C19.320 282.326 19.360 282.406 18.880 282.806C16.320 284.926 13.560 287.366 11.480 289.926C8.720 293.366 7 297.086 7 301.366C7 308.326 11.760 314.926 21.560 314.926C22.480 314.926 23.520 314.846 24.320 314.686C24.760 314.606 24.840 314.566 24.920 315.046C25.400 317.726 26 321.206 26 323.086C26 329.006 22 329.726 19.640 329.726C17.480 329.726 16.440 329.086 16.440 328.566C16.440 328.126 16.800 328.166 17.720 327.886C18.960 327.526 20.400 326.446 20.400 324.126C20.400 321.926 19 320.046 16.560 320.046C13.880 320.046 12.280 322.166 12.280 324.646C12.280 327.246 13.840 331.166 19.880 331.166C22.560 331.166 27.760 329.966 27.760 323.166C27.760 320.886 27.040 317.086 26.600 314.606C26.520 314.126 26.560 314.166 27.120 313.926C31.160 312.326 33.840 308.926 33.840 304.406C33.840 299.286 30.080 294.766 24.200 294.766C23.080 294.766 23.200 294.966 23.040 294.046L22.040 288.246C21.960 287.766 22.040 287.726 22.280 287.486C22.920 286.886 23.760 286.046 24.520 285.206C27.880 281.526 29.880 276.766 29.880 272.246C29.880 268.766 28.920 265.326 27.280 262.926C26.680 262.046 25.640 260.926 25.200 260.926ZM20.040 289.086C20.440 288.766 20.520 288.806 20.600 289.246L21.440 294.366C21.560 295.126 21.560 295.086 20.840 295.326C17.320 296.526 15.040 299.686 15.040 303.086C15.040 306.686 16.920 309.246 19.640 310.166C19.960 310.286 20.440 310.406 20.720 310.406C21.040 310.406 21.200 310.206 21.200 309.966C21.200 309.686 20.880 309.566 20.600 309.446C18.920 308.726 17.720 307.006 17.720 305.166C17.720 302.886 19.280 301.166 21.720 300.486C22.360 300.326 22.440 300.366 22.520 300.806L24.520 312.726C24.600 313.166 24.560 313.166 23.960 313.286C23.320 313.406 22.520 313.486 21.720 313.486C14.720 313.486 10.200 309.606 10.200 304.046C10.200 301.686 10.600 298.526 13.920 294.766C16.320 292.086 18.160 290.606 20.040 289.086ZM24.640 300.166C27.880 300.446 30.560 303.166 30.560 306.686C30.560 309.206 29.040 311.246 26.800 312.366C26.320 312.606 26.240 312.606 26.160 312.126L24.200 300.726C24.120 300.246 24.160 300.126 24.640 300.166ZM25.800 267.126C27.120 267.126 28.200 268.206 28.200 270.406C28.200 273.166 26.880 275.726 23.760 278.846C23.120 279.486 22.160 280.406 21.240 281.206C20.960 281.446 20.800 281.406 20.720 280.886C20.560 279.846 20.480 278.486 20.480 277.206C20.480 270.966 23.360 267.126 25.800 267.126Z"></path></g><g></g><text font-family='Alegreya' font-style='italic' text-anchor='end' stroke='#7a7a7a' font-size="24" x="0" y="264.8461538461538">13</text></g><g><line stroke="black" stroke-width="1.6" x1="114.26076923076923" x2="114.26076923076923" y1="274.8461538461538" y2="314.8461538461538"></line><line stroke="black" stroke-width="5" x1="121.56076923076922" x2="121.56076923076922" y1="274.8461538461538" y2="314.8461538461538"></line></g><g><path d="M74.820 247.326C73.340 247.926 72.540 250.206 70.660 250.206C70.660 248.286 69.540 246.966 68.020 246.966C66.460 246.966 65.140 248.286 65.140 249.806C65.140 250.526 65.700 251.326 66.300 251.926L67.420 252.486C67.820 252.486 68.180 252.646 68.580 252.646C69.100 252.646 69.660 252.486 70.100 252.246L71.620 251.686C71.980 251.686 72.180 251.926 72.180 252.086C72.180 253.966 71.060 256.806 70.500 258.686C70.260 259.446 68.780 260.406 68.020 260.406C68.020 258.446 66.860 257.366 65.380 257.366C63.860 257.366 62.540 258.446 62.540 260.006C62.540 260.766 63.140 261.566 63.700 262.126C64.100 262.206 64.380 262.446 64.820 262.446C65.140 262.646 65.540 262.646 65.940 262.646C66.460 262.646 67.060 262.646 67.420 262.446L68.940 261.886C69.100 261.886 69.340 261.686 69.540 261.686C69.580 261.686 69.660 261.806 69.660 261.886C69.660 262.126 69.540 262.646 69.540 262.646C69.540 262.646 68.180 267.966 68.020 268.526C67.620 269.646 66.300 270.406 65.540 270.406C65.540 268.526 64.380 267.406 62.900 267.406C61.420 267.406 60.060 268.526 60.060 270.086C60.060 270.806 60.620 271.566 61.180 272.126C61.620 272.326 61.980 272.526 62.340 272.526C62.740 272.686 63.140 272.686 63.460 272.686C64.060 272.686 64.580 272.686 64.940 272.526L66.460 271.966C67.060 271.966 67.060 272.326 67.060 272.526L65.540 278.966C65.140 280.046 63.860 280.646 63.140 280.646C63.140 278.766 61.980 277.606 60.460 277.606C58.940 277.606 57.620 278.766 57.620 280.246C57.620 281.006 58.180 281.726 58.740 282.326L59.900 282.886L60.620 282.886C61.180 282.886 61.980 282.886 62.540 282.726L64.060 282.166C64.580 282.166 64.580 282.726 64.580 282.886L63.140 289.166C62.740 290.286 61.620 290.686 61.020 290.846C60.620 290.846 59.700 287.646 58.180 287.646C56.660 287.646 55.300 288.966 55.300 290.286C55.300 291.246 55.900 291.966 56.460 292.366L57.620 292.926C57.980 292.926 58.380 293.126 58.740 293.126C59.300 293.126 59.900 292.926 60.260 292.766C60.860 292.566 61.180 292.566 61.740 292.206C61.980 292.206 62.180 292.566 62.180 292.766C62.180 292.926 61.420 297.126 60.620 299.206C60.260 300.166 59.140 300.526 58.540 300.726C58.540 298.646 57.020 297.526 55.740 297.526C54.380 297.526 53.060 298.806 53.060 300.166C53.060 301.086 53.660 301.846 54.220 302.206L55.300 302.766C55.740 302.766 56.100 303.006 56.460 303.006C57.020 303.006 57.620 302.766 57.980 302.566C58.540 302.406 58.940 302.406 59.300 302.006C59.500 302.006 59.700 302.406 59.700 302.566C59.700 303.126 58.540 308.086 58.380 308.686C57.980 309.806 56.660 310.366 56.100 310.526C56.100 308.446 54.780 307.286 53.460 307.286C51.940 307.286 50.780 308.686 50.780 309.966C50.780 310.966 51.180 311.686 51.740 312.046L52.900 312.646C53.220 312.646 53.660 312.806 54.020 312.806C54.580 312.806 55.180 312.646 55.500 312.446C56.100 312.246 56.460 312.246 57.020 311.846C57.220 311.846 57.460 312.246 57.460 312.446C57.220 312.646 55.900 318.926 55.740 319.446C55.300 320.406 54.380 320.766 53.780 320.766C53.780 318.686 52.500 317.526 51.180 317.526C49.660 317.526 48.500 318.926 48.500 320.206C48.500 321.166 48.940 321.926 49.500 322.286L50.580 322.886C50.980 322.886 51.340 323.046 51.740 323.046C52.300 323.046 52.900 322.886 53.220 322.646L54.580 322.286C54.940 322.286 54.940 322.486 54.940 322.646C54.780 323.206 52.300 333.406 52.100 333.646C52.100 333.806 52.900 334.566 53.220 334.566C54.380 334.566 54.580 334.366 54.780 333.806C54.780 333.406 68.940 273.246 71.060 263.406C71.060 263.406 75.220 248.286 75.220 247.926C75.220 247.526 74.820 247.326 74.820 247.326Z"></path></g></g></svg>