<?xml version="1.0" encoding="UTF-8" standalone="no"?><svg xmlns="http://www.w3.org/2000/svg" height="279.4mm" viewBox="0 0 1328.6153846153845 1719.3846153846152" width="215.9mm"><g transform="translate(93.84615384615385)"><g><g><line stroke="#6A6A6A" stroke-width="1.3" x1="0" x2="514.1076924011749" y1="183.8461538461538" y2="183.8461538461538"></line><line stroke="#6A6A6A" stroke-width="1.3" x1="0" x2="514.1076924011749" y1="173.8461538461538" y2="173.8461538461538"></line><line stroke="#6A6A6A" stroke-width="1.3" x1="0" x2="514.1076924011749" y1="163.8461538461538" y2="163.8461538461538"></line><line stroke="#6A6A6A" stroke-width="1.3" x1="0" x2="514.1076924011749" y1="153.8461538461538" y2="153.8461538461538"></line><line stroke="#6A6A6A" stroke-width="1.3" x1="0" x2="514.1076924011749" y1="143.8461538461538" y2="143.8461538461538"></line></g><g><path d="M25.200 129.926C24.640 129.926 23.400 130.966 22.600 131.846C19.640 135.126 18.680 140.126 18.680 144.286C18.680 146.606 18.960 149.206 19.240 150.846C19.320 151.326 19.360 151.406 18.880 151.806C16.320 153.926 13.560 156.366 11.480 158.926C8.720 162.366 7 166.086 7 170.366C7 177.326 11.760 183.926 21.560 183.926C22.480 183.926 23.520 183.846 24.320 183.686C24.760 183.606 24.840 183.566 24.920 184.046C25.400 186.726 26 190.206 26 192.086C26 198.006 22 198.726 19.640 198.726C17.480 198.726 16.440 198.086 16.440 197.566C16.440 197.126 16.800 197.166 17.720 196.886C18.960 196.526 20.400 195.446 20.400 193.126C20.400 190.926 19 189.046 16.560 189.046C13.880 189.046 12.280 191.166 12.280 193.646C12.280 196.246 13.840 200.166 19.880 200.166C22.560 200.166 27.760 198.966 27.760 192.166C27.760 189.886 27.040 186.086 26.600 183.606C26.520 183.126 26.560 183.166 27.120 182.926C31.160 181.326 33.840 177.926 33.840 173.406C33.840 168.286 30.080 163.766 24.200 163.766C23.080 163.766 23.200 163.966 23.040 163.046L22.040 157.246C21.960 156.766 22.040 156.726 22.280 156.486C22.920 155.886 23.760 155.046 24.520 154.206C27.880 150.526 29.880 145.766 29.880 141.246C29.880 137.766 28.920 134.326 27.280 131.926C26.680 131.046 25.640 129.926 25.200 129.926ZM20.040 158.086C20.440 157.766 20.520 157.806 20.600 158.246L21.440 163.366C21.560 164.126 21.560 164.086 20.840 164.326C17.320 165.526 15.040 168.686 15.040 172.086C15.040 175.686 16.920 178.246 19.640 179.166C19.960 179.286 20.440 179.406 20.720 179.406C21.040 179.406 21.200 179.206 21.200 178.966C21.200 178.686 20.880 178.566 20.600 178.446C18.920 177.726 17.720 176.006 17.720 174.166C17.720 171.886 19.280 170.166 21.720 169.486C22.360 169.326 22.440 169.366 22.520 169.806L24.520 181.726C24.600 182.166 24.560 182.166 23.960 182.286C23.320 182.406 22.520 182.486 21.720 182.486C14.720 182.486 10.200 178.606 10.200 173.046C10.200 170.686 10.600 167.526 13.920 163.766C16.320 161.086 18.160 159.606 20.040 158.086ZM24.640 169.166C27.880 169.446 30.560 172.166 30.560 175.686C30.560 178.206 29.040 180.246 26.800 181.366C26.320 181.606 26.240 181.606 26.160 181.126L24.200 169.726C24.120 169.246 24.160 169.126 24.640 169.166ZM25.800 136.126C27.120 136.126 28.200 137.206 28.200 139.406C28.200 142.166 26.880 144.726 23.760 147.846C23.120 148.486 22.160 149.406 21.240 150.206C20.960 150.446 20.800 150.406 20.720 149.886C20.560 148.846 20.480 147.486 20.480 146.206C20.480 139.966 23.360 136.126 25.800 136.126Z"></path></g><g></g><g><g><path d="M65.180 156.806L62.260 156.806L62.260 148.246C62.260 147.926 62.220 147.566 61.780 147.566C61.420 147.566 61.220 147.646 60.980 147.926L57.180 152.526C57.020 152.726 56.820 152.966 56.820 153.446C56.820 153.446 56.820 155.046 56.820 156.806L51.420 156.806C54.620 154.086 61.020 145.006 61.140 144.566C61.140 144.486 61.180 144.446 61.180 144.366C61.180 144.046 60.900 143.806 60.580 143.806C60.220 143.806 58.580 143.886 57.860 143.886C57.140 143.886 55.340 143.806 55.020 143.806C54.660 143.806 54.100 143.926 54.100 144.566C54.100 149.526 50.180 155.086 48.980 156.766L48.740 157.086C48.740 157.126 48.700 157.166 48.700 157.206C48.620 157.366 48.580 157.526 48.580 157.646C48.580 158.046 48.900 158.326 49.380 158.326L56.820 158.326L56.820 160.846C56.820 161.926 55.940 162.246 55.220 162.246C54.580 162.246 54.300 162.606 54.300 163.006C54.300 163.406 54.460 163.846 55.060 163.846C55.700 163.846 63.580 163.846 63.580 163.846C63.980 163.846 64.380 163.566 64.380 163.006C64.380 162.446 63.900 162.206 63.500 162.206C63.100 162.206 62.260 161.966 62.260 160.686L62.260 158.326C63.980 158.326 65.180 158.326 65.180 158.326C65.580 158.326 65.780 158.046 65.780 157.566C65.780 157.086 65.620 156.806 65.180 156.806Z"></path></g><g><path d="M65.180 176.806L62.260 176.806L62.260 168.246C62.260 167.926 62.220 167.566 61.780 167.566C61.420 167.566 61.220 167.646 60.980 167.926L57.180 172.526C57.020 172.726 56.820 172.966 56.820 173.446C56.820 173.446 56.820 175.046 56.820 176.806L51.420 176.806C54.620 174.086 61.020 165.006 61.140 164.566C61.140 164.486 61.180 164.446 61.180 164.366C61.180 164.046 60.900 163.806 60.580 163.806C60.220 163.806 58.580 163.886 57.860 163.886C57.140 163.886 55.340 163.806 55.020 163.806C54.660 163.806 54.100 163.926 54.100 164.566C54.100 169.526 50.180 175.086 48.980 176.766L48.740 177.086C48.740 177.126 48.700 177.166 48.700 177.206C48.620 177.366 48.580 177.526 48.580 177.646C48.580 178.046 48.900 178.326 49.380 178.326L56.820 178.326L56.820 180.846C56.820 181.926 55.940 182.246 55.220 182.246C54.580 182.246 54.300 182.606 54.300 183.006C54.300 183.406 54.460 183.846 55.060 183.846C55.700 183.846 63.580 183.846 63.580 183.846C63.980 183.846 64.380 183.566 64.380 183.006C64.380 182.446 63.900 182.206 63.500 182.206C63.100 182.206 62.260 181.966 62.260 180.686L62.260 178.326C63.980 178.326 65.180 178.326 65.180 178.326C65.580 178.326 65.780 178.046 65.780 177.566C65.780 177.086 65.620 176.806 65.180 176.806Z"></path></g></g><text font-family='Alegreya' font-style='italic' text-anchor='end' stroke='#7a7a7a' font-size="24" x="0" y="133.8461538461538">25</text></g><g><line stroke="black" stroke-width="1.6" x1="504.3076924011749" x2="504.3076924011749" y1="143.8461538461538" y2="183.8461538461538"></line><line stroke="black" stroke-width="5" x1="511.6076924011749" x2="511.6076924011749" y1="143.8461538461538" y2="183.8461538461538"></line></g><g><g><path d="M93.480 154.646C101.120 154.646 102.640 148.446 102.640 146.926C102.640 144.566 100.760 143.046 98.080 143.046C91.160 143.046 89 148.406 89 150.806C89 153.246 90.960 154.646 93.480 154.646ZM97 150.966C94.920 152.366 93.480 152.846 92.480 152.846C91.520 152.846 90.960 152.366 90.640 151.806C90.480 151.526 90.360 151.206 90.360 150.886C90.360 149.886 91.360 148.606 94.560 146.766C96.840 145.446 98.280 144.966 99.240 144.966C100.120 144.966 100.600 145.366 100.920 145.926C101.080 146.206 101.200 146.486 101.200 146.806C101.200 147.726 100.240 148.846 97 150.966Z"></path></g><line stroke="#000000" stroke-width="1.2" x1="89.6" x2="89.6" y1="150.80615384615382" y2="188.80615384615382"></line></g><g><g><path d="M272.114 144.486C276.114 144.486 281.034 140.766 281.034 136.966C281.034 134.686 279.234 133.206 276.634 133.206C271.714 133.206 267.754 136.846 267.754 140.726C267.754 143.086 269.674 144.486 272.114 144.486Z"></path></g><line stroke="#000000" stroke-width="1.2" x1="268.35384620058744" x2="268.35384620058744" y1="140.68615384615381" y2="166.93615384615381"></line><path d="M277.354 141.016C277.954 144.376 277.954 148.016 276.434 151.136C273.674 156.736 270.434 156.856 267.954 156.936L267.754 156.936L267.754 172.776C267.754 172.776 268.194 172.816 268.434 172.816C268.674 172.816 269.154 172.736 269.234 172.296C270.194 166.136 278.074 164.416 279.034 158.136C279.114 157.696 279.154 157.216 279.154 156.696C279.154 154.256 278.274 151.856 278.154 151.616C278.114 151.536 278.114 151.456 278.114 151.336C278.114 151.176 278.154 151.096 278.154 150.976C279.594 147.976 279.634 144.056 278.994 140.856C278.794 139.936 278.514 139.976 278.034 139.976C277.554 140.016 277.234 140.336 277.354 141.016ZM276.794 154.216C276.994 154.216 277.274 154.336 277.314 154.496C277.514 154.776 277.514 155.176 277.594 155.496C277.634 155.776 277.634 156.056 277.634 156.296C277.634 157.616 277.274 158.816 276.554 159.856C275.234 161.816 272.674 164.056 270.234 164.056L269.914 164.056C269.594 164.056 269.354 163.856 269.354 163.656C269.354 163.616 269.354 163.576 269.394 163.536C270.234 160.256 272.474 159.336 274.354 157.136C275.194 156.216 275.874 155.416 276.514 154.376C276.594 154.256 276.674 154.216 276.794 154.216Z"></path></g><g><g><path d="M283.514 139.486C287.514 139.486 292.434 135.766 292.434 131.966C292.434 129.686 290.634 128.206 288.034 128.206C283.114 128.206 279.154 131.846 279.154 135.726C279.154 138.086 281.074 139.486 283.514 139.486Z"></path></g><line stroke="#000000" stroke-width="1.2" x1="279.7538462005875" x2="279.7538462005875" y1="135.68615384615381" y2="161.93615384615381"></line><line stroke="#000000" stroke-width="2.2" x1="275.95384620058746" x2="297.8738462005875" y1="133.8461538461538" y2="133.8461538461538"></line><path d="M288.754 136.016C289.354 139.376 289.354 143.016 287.834 146.136C285.074 151.736 281.834 151.856 279.354 151.936L279.154 151.936L279.154 167.776C279.154 167.776 279.594 167.816 279.834 167.816C280.074 167.816 280.554 167.736 280.634 167.296C281.594 161.136 289.474 159.416 290.434 153.136C290.514 152.696 290.554 152.216 290.554 151.696C290.554 149.256 289.674 146.856 289.554 146.616C289.514 146.536 289.514 146.456 289.514 146.336C289.514 146.176 289.554 146.096 289.554 145.976C290.994 142.976 291.034 139.056 290.394 135.856C290.194 134.936 289.914 134.976 289.434 134.976C288.954 135.016 288.634 135.336 288.754 136.016ZM288.194 149.216C288.394 149.216 288.674 149.336 288.714 149.496C288.914 149.776 288.914 150.176 288.994 150.496C289.034 150.776 289.034 151.056 289.034 151.296C289.034 152.616 288.674 153.816 287.954 154.856C286.634 156.816 284.074 159.056 281.634 159.056L281.314 159.056C280.994 159.056 280.754 158.856 280.754 158.656C280.754 158.616 280.754 158.576 280.794 158.536C281.634 155.256 283.874 154.336 285.754 152.136C286.594 151.216 287.274 150.416 287.914 149.376C287.994 149.256 288.074 149.216 288.194 149.216Z"></path></g><g><g><path d="M294.914 139.486C298.914 139.486 303.834 135.766 303.834 131.966C303.834 129.686 302.034 128.206 299.434 128.206C294.514 128.206 290.554 131.846 290.554 135.726C290.554 138.086 292.474 139.486 294.914 139.486Z"></path></g><line stroke="#000000" stroke-width="1.2" x1="291.15384620058745" x2="291.15384620058745" y1="135.68615384615381" y2="161.93615384615381"></line><line stroke="#000000" stroke-width="2.2" x1="287.35384620058744" x2="309.27384620058746" y1="133.8461538461538" y2="133.8461538461538"></line><path d="M300.154 136.016C300.754 139.376 300.754 143.016 299.234 146.136C296.474 151.736 293.234 151.856 290.754 151.936L290.554 151.936L290.554 167.776C290.554 167.776 290.994 167.816 291.234 167.816C291.474 167.816 291.954 167.736 292.034 167.296C292.994 161.136 300.874 159.416 301.834 153.136C301.914 152.696 301.954 152.216 301.954 151.696C301.954 149.256 301.074 146.856 300.954 146.616C300.914 146.536 300.914 146.456 300.914 146.336C300.914 146.176 300.954 146.096 300.954 145.976C302.394 142.976 302.434 139.056 301.794 135.856C301.594 134.936 301.314 134.976 300.834 134.976C300.354 135.016 300.034 135.336 300.154 136.016ZM299.594 149.216C299.794 149.216 300.074 149.336 300.114 149.496C300.314 149.776 300.314 150.176 300.394 150.496C300.434 150.776 300.434 151.056 300.434 151.296C300.434 152.616 300.074 153.816 299.354 154.856C298.034 156.816 295.474 159.056 293.034 159.056L292.714 159.056C292.394 159.056 292.154 158.856 292.154 158.656C292.154 158.616 292.154 158.576 292.194 158.536C293.034 155.256 295.274 154.336 297.154 152.136C297.994 151.216 298.674 150.416 299.314 149.376C299.394 149.256 299.474 149.216 299.594 149.216Z"></path></g><g><g><path d="M306.434 154.646C314.074 154.646 315.594 148.446 315.594 146.926C315.594 144.566 313.714 143.046 311.034 143.046C304.114 143.046 301.954 148.406 301.954 150.806C301.954 153.246 303.914 154.646 306.434 154.646ZM309.954 150.966C307.874 152.366 306.434 152.846 305.434 152.846C304.474 152.846 303.914 152.366 303.594 151.806C303.434 151.526 303.314 151.206 303.314 150.886C303.314 149.886 304.314 148.606 307.514 146.766C309.794 145.446 311.234 144.966 312.194 144.966C313.074 144.966 313.554 145.366 313.874 145.926C314.034 146.206 314.154 146.486 314.154 146.806C314.154 147.726 313.194 148.846 309.954 150.966Z"></path></g><line stroke="#000000" stroke-width="1.2" x1="302.5538462005875" x2="302.5538462005875" y1="150.80615384615382" y2="188.80615384615382"></line></g><g><g><path d="M485.068 144.486C489.068 144.486 493.988 140.766 493.988 136.966C493.988 134.686 492.188 133.206 489.588 133.206C484.668 133.206 480.708 136.846 480.708 140.726C480.708 143.086 482.628 144.486 485.068 144.486Z"></path></g><line stroke="#000000" stroke-width="1.2" x1="481.3076924011749" x2="481.3076924011749" y1="140.68615384615381" y2="166.93615384615381"></line><path d="M490.308 141.016C490.908 144.376 490.908 148.016 489.388 151.136C486.628 156.736 483.388 156.856 480.908 156.936L480.708 156.936L480.708 172.776C480.708 172.776 481.148 172.816 481.388 172.816C481.628 172.816 482.108 172.736 482.188 172.296C483.148 166.136 491.028 164.416 491.988 158.136C492.068 157.696 492.108 157.216 492.108 156.696C492.108 154.256 491.228 151.856 491.108 151.616C491.068 151.536 491.068 151.456 491.068 151.336C491.068 151.176 491.108 151.096 491.108 150.976C492.548 147.976 492.588 144.056 491.948 140.856C491.748 139.936 491.468 139.976 490.988 139.976C490.508 140.016 490.188 140.336 490.308 141.016ZM489.748 154.216C489.948 154.216 490.228 154.336 490.268 154.496C490.468 154.776 490.468 155.176 490.548 155.496C490.588 155.776 490.588 156.056 490.588 156.296C490.588 157.616 490.228 158.816 489.508 159.856C488.188 161.816 485.628 164.056 483.188 164.056L482.868 164.056C482.548 164.056 482.308 163.856 482.308 163.656C482.308 163.616 482.308 163.576 482.348 163.536C483.188 160.256 485.428 159.336 487.308 157.136C488.148 156.216 488.828 155.416 489.468 154.376C489.548 154.256 489.628 154.216 489.748 154.216Z"></path></g><g><g><path d="M496.468 139.486C500.468 139.486 505.388 135.766 505.388 131.966C505.388 129.686 503.588 128.206 500.988 128.206C496.068 128.206 492.108 131.846 492.108 135.726C492.108 138.086 494.028 139.486 496.468 139.486Z"></path></g><line stroke="#000000" stroke-width="1.2" x1="492.7076924011749" x2="492.7076924011749" y1="135.68615384615381" y2="161.93615384615381"></line><line stroke="#000000" stroke-width="2.2" x1="488.90769240117487" x2="510.8276924011749" y1="133.8461538461538" y2="133.8461538461538"></line><path d="M501.708 136.016C502.308 139.376 502.308 143.016 500.788 146.136C498.028 151.736 494.788 151.856 492.308 151.936L492.108 151.936L492.108 167.776C492.108 167.776 492.548 167.816 492.788 167.816C493.028 167.816 493.508 167.736 493.588 167.296C494.548 161.136 502.428 159.416 503.388 153.136C503.468 152.696 503.508 152.216 503.508 151.696C503.508 149.256 502.628 146.856 502.508 146.616C502.468 146.536 502.468 146.456 502.468 146.336C502.468 146.176 502.508 146.096 502.508 145.976C503.948 142.976 503.988 139.056 503.348 135.856C503.148 134.936 502.868 134.976 502.388 134.976C501.908 135.016 501.588 135.336 501.708 136.016ZM501.148 149.216C501.348 149.216 501.628 149.336 501.668 149.496C501.868 149.776 501.868 150.176 501.948 150.496C501.988 150.776 501.988 151.056 501.988 151.296C501.988 152.616 501.628 153.816 500.908 154.856C499.588 156.816 497.028 159.056 494.588 159.056L494.268 159.056C493.948 159.056 493.708 158.856 493.708 158.656C493.708 158.616 493.708 158.576 493.748 158.536C494.588 155.256 496.828 154.336 498.708 152.136C499.548 151.216 500.228 150.416 500.868 149.376C500.948 149.256 501.028 149.216 501.148 149.216Z"></path></g></g></svg>