<?xml version="1.0" encoding="UTF-8" standalone="no"?><svg xmlns="http://www.w3.org/2000/svg" class="" height="279.4mm" viewBox="0 0 1328.6153846153845 1719.3846153846152" width="215.9mm"><g><g><g><line stroke="#6A6A6A" stroke-width="1.3" x1="93.84615384615385" x2="777.09089725651" y1="183.8461538461538" y2="183.8461538461538"></line><line stroke="#6A6A6A" stroke-width="1.3" x1="93.84615384615385" x2="777.09089725651" y1="173.8461538461538" y2="173.8461538461538"></line><line stroke="#6A6A6A" stroke-width="1.3" x1="93.84615384615385" x2="777.09089725651" y1="163.8461538461538" y2="163.8461538461538"></line><line stroke="#6A6A6A" stroke-width="1.3" x1="93.84615384615385" x2="777.09089725651" y1="153.8461538461538" y2="153.8461538461538"></line><line stroke="#6A6A6A" stroke-width="1.3" x1="93.84615384615385" x2="777.09089725651" y1="143.8461538461538" y2="143.8461538461538"></line></g><g><path d="M119.046 129.926C118.486 129.926 117.246 130.966 116.446 131.846C113.486 135.126 112.526 140.126 112.526 144.286C112.526 146.606 112.806 149.206 113.086 150.846C113.166 151.326 113.206 151.406 112.726 151.806C110.166 153.926 107.406 156.366 105.326 158.926C102.566 162.366 100.846 166.086 100.846 170.366C100.846 177.326 105.606 183.926 115.406 183.926C116.326 183.926 117.366 183.846 118.166 183.686C118.606 183.606 118.686 183.566 118.766 184.046C119.246 186.726 119.846 190.206 119.846 192.086C119.846 198.006 115.846 198.726 113.486 198.726C111.326 198.726 110.286 198.086 110.286 197.566C110.286 197.126 110.646 197.166 111.566 196.886C112.806 196.526 114.246 195.446 114.246 193.126C114.246 190.926 112.846 189.046 110.406 189.046C107.726 189.046 106.126 191.166 106.126 193.646C106.126 196.246 107.686 200.166 113.726 200.166C116.406 200.166 121.606 198.966 121.606 192.166C121.606 189.886 120.886 186.086 120.446 183.606C120.366 183.126 120.406 183.166 120.966 182.926C125.006 181.326 127.686 177.926 127.686 173.406C127.686 168.286 123.926 163.766 118.046 163.766C116.926 163.766 117.046 163.966 116.886 163.046L115.886 157.246C115.806 156.766 115.886 156.726 116.126 156.486C116.766 155.886 117.606 155.046 118.366 154.206C121.726 150.526 123.726 145.766 123.726 141.246C123.726 137.766 122.766 134.326 121.126 131.926C120.526 131.046 119.486 129.926 119.046 129.926ZM113.886 158.086C114.286 157.766 114.366 157.806 114.446 158.246L115.286 163.366C115.406 164.126 115.406 164.086 114.686 164.326C111.166 165.526 108.886 168.686 108.886 172.086C108.886 175.686 110.766 178.246 113.486 179.166C113.806 179.286 114.286 179.406 114.566 179.406C114.886 179.406 115.046 179.206 115.046 178.966C115.046 178.686 114.726 178.566 114.446 178.446C112.766 177.726 111.566 176.006 111.566 174.166C111.566 171.886 113.126 170.166 115.566 169.486C116.206 169.326 116.286 169.366 116.366 169.806L118.366 181.726C118.446 182.166 118.406 182.166 117.806 182.286C117.166 182.406 116.366 182.486 115.566 182.486C108.566 182.486 104.046 178.606 104.046 173.046C104.046 170.686 104.446 167.526 107.766 163.766C110.166 161.086 112.006 159.606 113.886 158.086ZM118.486 169.166C121.726 169.446 124.406 172.166 124.406 175.686C124.406 178.206 122.886 180.246 120.646 181.366C120.166 181.606 120.086 181.606 120.006 181.126L118.046 169.726C117.966 169.246 118.006 169.126 118.486 169.166ZM119.646 136.126C120.966 136.126 122.046 137.206 122.046 139.406C122.046 142.166 120.726 144.726 117.606 147.846C116.966 148.486 116.006 149.406 115.086 150.206C114.806 150.446 114.646 150.406 114.566 149.886C114.406 148.846 114.326 147.486 114.326 146.206C114.326 139.966 117.206 136.126 119.646 136.126Z"></path></g><g></g><g><g><path d="M159.026 156.806L156.106 156.806L156.106 148.246C156.106 147.926 156.066 147.566 155.626 147.566C155.266 147.566 155.066 147.646 154.826 147.926L151.026 152.526C150.866 152.726 150.666 152.966 150.666 153.446C150.666 153.446 150.666 155.046 150.666 156.806L145.266 156.806C148.466 154.086 154.866 145.006 154.986 144.566C154.986 144.486 155.026 144.446 155.026 144.366C155.026 144.046 154.746 143.806 154.426 143.806C154.066 143.806 152.426 143.886 151.706 143.886C150.986 143.886 149.186 143.806 148.866 143.806C148.506 143.806 147.946 143.926 147.946 144.566C147.946 149.526 144.026 155.086 142.826 156.766L142.586 157.086C142.586 157.126 142.546 157.166 142.546 157.206C142.466 157.366 142.426 157.526 142.426 157.646C142.426 158.046 142.746 158.326 143.226 158.326L150.666 158.326L150.666 160.846C150.666 161.926 149.786 162.246 149.066 162.246C148.426 162.246 148.146 162.606 148.146 163.006C148.146 163.406 148.306 163.846 148.906 163.846C149.546 163.846 157.426 163.846 157.426 163.846C157.826 163.846 158.226 163.566 158.226 163.006C158.226 162.446 157.746 162.206 157.346 162.206C156.946 162.206 156.106 161.966 156.106 160.686L156.106 158.326C157.826 158.326 159.026 158.326 159.026 158.326C159.426 158.326 159.626 158.046 159.626 157.566C159.626 157.086 159.466 156.806 159.026 156.806Z"></path></g><g><path d="M159.026 176.806L156.106 176.806L156.106 168.246C156.106 167.926 156.066 167.566 155.626 167.566C155.266 167.566 155.066 167.646 154.826 167.926L151.026 172.526C150.866 172.726 150.666 172.966 150.666 173.446C150.666 173.446 150.666 175.046 150.666 176.806L145.266 176.806C148.466 174.086 154.866 165.006 154.986 164.566C154.986 164.486 155.026 164.446 155.026 164.366C155.026 164.046 154.746 163.806 154.426 163.806C154.066 163.806 152.426 163.886 151.706 163.886C150.986 163.886 149.186 163.806 148.866 163.806C148.506 163.806 147.946 163.926 147.946 164.566C147.946 169.526 144.026 175.086 142.826 176.766L142.586 177.086C142.586 177.126 142.546 177.166 142.546 177.206C142.466 177.366 142.426 177.526 142.426 177.646C142.426 178.046 142.746 178.326 143.226 178.326L150.666 178.326L150.666 180.846C150.666 181.926 149.786 182.246 149.066 182.246C148.426 182.246 148.146 182.606 148.146 183.006C148.146 183.406 148.306 183.846 148.906 183.846C149.546 183.846 157.426 183.846 157.426 183.846C157.826 183.846 158.226 183.566 158.226 183.006C158.226 182.446 157.746 182.206 157.346 182.206C156.946 182.206 156.106 181.966 156.106 180.686L156.106 178.326C157.826 178.326 159.026 178.326 159.026 178.326C159.426 178.326 159.626 178.046 159.626 177.566C159.626 177.086 159.466 176.806 159.026 176.806Z"></path></g></g></g><g><line stroke="black" stroke-width="1.6" x1="487.3009727520906" x2="487.3009727520906" y1="143.8461538461538" y2="183.8461538461538"></line></g><g><g><path d="M187.206 184.486C191.206 184.486 196.126 180.766 196.126 176.966C196.126 174.686 194.326 173.206 191.726 173.206C186.806 173.206 182.846 176.846 182.846 180.726C182.846 183.086 184.766 184.486 187.206 184.486Z"></path><g><circle cx="202.12615384615387" cy="178.8461538461538" r="2.4"></circle></g></g><g><path d="M187.206 174.486C191.206 174.486 196.126 170.766 196.126 166.966C196.126 164.686 194.326 163.206 191.726 163.206C186.806 163.206 182.846 166.846 182.846 170.726C182.846 173.086 184.766 174.486 187.206 174.486Z"></path><g><circle cx="202.12615384615387" cy="168.8461538461538" r="2.4"></circle></g></g><g><path d="M187.206 164.486C191.206 164.486 196.126 160.766 196.126 156.966C196.126 154.686 194.326 153.206 191.726 153.206C186.806 153.206 182.846 156.846 182.846 160.726C182.846 163.086 184.766 164.486 187.206 164.486Z"></path><g><circle cx="202.12615384615387" cy="158.8461538461538" r="2.4"></circle></g></g><line stroke="#000000" stroke-width="1.2" x1="195.52615384615387" x2="195.52615384615387" y1="177.0061538461538" y2="127.00615384615381"></line></g><g><g><path d="M288.707 174.486C292.707 174.486 297.627 170.766 297.627 166.966C297.627 164.686 295.827 163.206 293.227 163.206C288.307 163.206 284.347 166.846 284.347 170.726C284.347 173.086 286.267 174.486 288.707 174.486Z"></path></g><g><path d="M288.707 144.486C292.707 144.486 297.627 140.766 297.627 136.966C297.627 134.686 295.827 133.206 293.227 133.206C288.307 133.206 284.347 136.846 284.347 140.726C284.347 143.086 286.267 144.486 288.707 144.486Z"></path></g><line stroke="#000000" stroke-width="1.2" x1="284.9471957530331" x2="284.9471957530331" y1="140.68615384615381" y2="200.68615384615381"></line><path d="M293.947 175.806C294.507 177.486 294.787 179.486 294.787 181.286C294.787 183.646 293.787 187.006 293.187 188.366C291.707 191.726 289.707 194.966 284.347 196.766L284.347 206.166C284.347 206.646 284.547 206.766 284.787 206.766C285.547 206.766 285.867 206.526 285.947 205.886C286.627 202.086 289.587 198.606 291.627 195.446C294.147 191.486 296.587 186.726 296.587 181.726C296.587 178.606 295.787 175.766 295.467 174.486C295.147 173.206 293.347 174.086 293.947 175.806Z"></path></g><g><g><path d="M335.680 174.486C339.680 174.486 344.600 170.766 344.600 166.966C344.600 164.686 342.800 163.206 340.200 163.206C335.280 163.206 331.320 166.846 331.320 170.726C331.320 173.086 333.240 174.486 335.680 174.486Z"></path></g><g><path d="M335.680 184.486C339.680 184.486 344.600 180.766 344.600 176.966C344.600 174.686 342.800 173.206 340.200 173.206C335.280 173.206 331.320 176.846 331.320 180.726C331.320 183.086 333.240 184.486 335.680 184.486Z"></path></g><g><path d="M335.680 164.486C339.680 164.486 344.600 160.766 344.600 156.966C344.600 154.686 342.800 153.206 340.200 153.206C335.280 153.206 331.320 156.846 331.320 160.726C331.320 163.086 333.240 164.486 335.680 164.486Z"></path></g><line stroke="#000000" stroke-width="1.2" x1="343.99973891759834" x2="343.99973891759834" y1="177.0061538461538" y2="127.00615384615381"></line></g><g><g><path d="M413.270 174.486C417.270 174.486 422.190 170.766 422.190 166.966C422.190 164.686 420.390 163.206 417.790 163.206C412.870 163.206 408.910 166.846 408.910 170.726C408.910 173.086 410.830 174.486 413.270 174.486Z"></path></g><g><path d="M413.270 184.486C417.270 184.486 422.190 180.766 422.190 176.966C422.190 174.686 420.390 173.206 417.790 173.206C412.870 173.206 408.910 176.846 408.910 180.726C408.910 183.086 410.830 184.486 413.270 184.486Z"></path></g><g><path d="M413.270 164.486C417.270 164.486 422.190 160.766 422.190 156.966C422.190 154.686 420.390 153.206 417.790 153.206C412.870 153.206 408.910 156.846 408.910 160.726C408.910 163.086 410.830 164.486 413.270 164.486Z"></path></g><line stroke="#000000" stroke-width="1.2" x1="421.5903558348445" x2="421.5903558348445" y1="177.0061538461538" y2="127.00615384615381"></line></g></g><g><g></g><g><line stroke="black" stroke-width="1.6" x1="767.2908972565099" x2="767.2908972565099" y1="143.8461538461538" y2="183.8461538461538"></line><line stroke="black" stroke-width="5" x1="774.59089725651" x2="774.59089725651" y1="143.8461538461538" y2="183.8461538461538"></line></g><g><g><path d="M507.461 174.486C511.461 174.486 516.381 170.766 516.381 166.966C516.381 164.686 514.581 163.206 511.981 163.206C507.061 163.206 503.101 166.846 503.101 170.726C503.101 173.086 505.021 174.486 507.461 174.486Z"></path></g><g><path d="M507.461 184.486C511.461 184.486 516.381 180.766 516.381 176.966C516.381 174.686 514.581 173.206 511.981 173.206C507.061 173.206 503.101 176.846 503.101 180.726C503.101 183.086 505.021 184.486 507.461 184.486Z"></path></g><g><path d="M507.461 154.486C511.461 154.486 516.381 150.766 516.381 146.966C516.381 144.686 514.581 143.206 511.981 143.206C507.061 143.206 503.101 146.846 503.101 150.726C503.101 153.086 505.021 154.486 507.461 154.486Z"></path></g><line stroke="#000000" stroke-width="1.2" x1="515.7809727520905" x2="515.7809727520905" y1="177.0061538461538" y2="117.00615384615381"></line></g><g><g><path d="M585.052 174.486C589.052 174.486 593.972 170.766 593.972 166.966C593.972 164.686 592.172 163.206 589.572 163.206C584.652 163.206 580.692 166.846 580.692 170.726C580.692 173.086 582.612 174.486 585.052 174.486Z"></path></g><g><path d="M585.052 184.486C589.052 184.486 593.972 180.766 593.972 176.966C593.972 174.686 592.172 173.206 589.572 173.206C584.652 173.206 580.692 176.846 580.692 180.726C580.692 183.086 582.612 184.486 585.052 184.486Z"></path></g><g><path d="M585.052 149.486C589.052 149.486 593.972 145.766 593.972 141.966C593.972 139.686 592.172 138.206 589.572 138.206C584.652 138.206 580.692 141.846 580.692 145.726C580.692 148.086 582.612 149.486 585.052 149.486Z"></path></g><line stroke="#000000" stroke-width="1.2" x1="593.3715896693367" x2="593.3715896693367" y1="177.0061538461538" y2="112.00615384615381"></line></g><g><g><path d="M662.762 174.646C670.402 174.646 671.922 168.446 671.922 166.926C671.922 164.566 670.042 163.046 667.362 163.046C660.442 163.046 658.282 168.406 658.282 170.806C658.282 173.246 660.242 174.646 662.762 174.646ZM666.282 170.966C664.202 172.366 662.762 172.846 661.762 172.846C660.802 172.846 660.242 172.366 659.922 171.806C659.762 171.526 659.642 171.206 659.642 170.886C659.642 169.886 660.642 168.606 663.842 166.766C666.122 165.446 667.562 164.966 668.522 164.966C669.402 164.966 669.882 165.366 670.202 165.926C670.362 166.206 670.482 166.486 670.482 166.806C670.482 167.726 669.522 168.846 666.282 170.966Z"></path></g><g><path d="M662.762 184.646C670.402 184.646 671.922 178.446 671.922 176.926C671.922 174.566 670.042 173.046 667.362 173.046C660.442 173.046 658.282 178.406 658.282 180.806C658.282 183.246 660.242 184.646 662.762 184.646ZM666.282 180.966C664.202 182.366 662.762 182.846 661.762 182.846C660.802 182.846 660.242 182.366 659.922 181.806C659.762 181.526 659.642 181.206 659.642 180.886C659.642 179.886 660.642 178.606 663.842 176.766C666.122 175.446 667.562 174.966 668.522 174.966C669.402 174.966 669.882 175.366 670.202 175.926C670.362 176.206 670.482 176.486 670.482 176.806C670.482 177.726 669.522 178.846 666.282 180.966Z"></path></g><g><path d="M662.762 159.646C670.402 159.646 671.922 153.446 671.922 151.926C671.922 149.566 670.042 148.046 667.362 148.046C660.442 148.046 658.282 153.406 658.282 155.806C658.282 158.246 660.242 159.646 662.762 159.646ZM666.282 155.966C664.202 157.366 662.762 157.846 661.762 157.846C660.802 157.846 660.242 157.366 659.922 156.806C659.762 156.526 659.642 156.206 659.642 155.886C659.642 154.886 660.642 153.606 663.842 151.766C666.122 150.446 667.562 149.966 668.522 149.966C669.402 149.966 669.882 150.366 670.202 150.926C670.362 151.206 670.482 151.486 670.482 151.806C670.482 152.726 669.522 153.846 666.282 155.966Z"></path></g><line stroke="#000000" stroke-width="1.2" x1="671.3222065865829" x2="671.3222065865829" y1="176.92615384615382" y2="121.92615384615382"></line></g></g></svg>