<?xml version="1.0" encoding="UTF-8" standalone="no"?><svg xmlns="http://www.w3.org/2000/svg" height="279.4mm" viewBox="0 0 1328.6153846153845 1719.3846153846152" width="215.9mm"><g transform="translate(93.84615384615385)"><g><g><line stroke="#6A6A6A" stroke-width="1.3" x1="0" x2="1140.923076923077" y1="183.8461538461538" y2="183.8461538461538"></line><line stroke="#6A6A6A" stroke-width="1.3" x1="0" x2="1140.923076923077" y1="173.8461538461538" y2="173.8461538461538"></line><line stroke="#6A6A6A" stroke-width="1.3" x1="0" x2="1140.923076923077" y1="163.8461538461538" y2="163.8461538461538"></line><line stroke="#6A6A6A" stroke-width="1.3" x1="0" x2="1140.923076923077" y1="153.8461538461538" y2="153.8461538461538"></line><line stroke="#6A6A6A" stroke-width="1.3" x1="0" x2="1140.923076923077" y1="143.8461538461538" y2="143.8461538461538"></line></g><g><path d="M25.200 129.926C24.640 129.926 23.400 130.966 22.600 131.846C19.640 135.126 18.680 140.126 18.680 144.286C18.680 146.606 18.960 149.206 19.240 150.846C19.320 151.326 19.360 151.406 18.880 151.806C16.320 153.926 13.560 156.366 11.480 158.926C8.720 162.366 7 166.086 7 170.366C7 177.326 11.760 183.926 21.560 183.926C22.480 183.926 23.520 183.846 24.320 183.686C24.760 183.606 24.840 183.566 24.920 184.046C25.400 186.726 26 190.206 26 192.086C26 198.006 22 198.726 19.640 198.726C17.480 198.726 16.440 198.086 16.440 197.566C16.440 197.126 16.800 197.166 17.720 196.886C18.960 196.526 20.400 195.446 20.400 193.126C20.400 190.926 19 189.046 16.560 189.046C13.880 189.046 12.280 191.166 12.280 193.646C12.280 196.246 13.840 200.166 19.880 200.166C22.560 200.166 27.760 198.966 27.760 192.166C27.760 189.886 27.040 186.086 26.600 183.606C26.520 183.126 26.560 183.166 27.120 182.926C31.160 181.326 33.840 177.926 33.840 173.406C33.840 168.286 30.080 163.766 24.200 163.766C23.080 163.766 23.200 163.966 23.040 163.046L22.040 157.246C21.960 156.766 22.040 156.726 22.280 156.486C22.920 155.886 23.760 155.046 24.520 154.206C27.880 150.526 29.880 145.766 29.880 141.246C29.880 137.766 28.920 134.326 27.280 131.926C26.680 131.046 25.640 129.926 25.200 129.926ZM20.040 158.086C20.440 157.766 20.520 157.806 20.600 158.246L21.440 163.366C21.560 164.126 21.560 164.086 20.840 164.326C17.320 165.526 15.040 168.686 15.040 172.086C15.040 175.686 16.920 178.246 19.640 179.166C19.960 179.286 20.440 179.406 20.720 179.406C21.040 179.406 21.200 179.206 21.200 178.966C21.200 178.686 20.880 178.566 20.600 178.446C18.920 177.726 17.720 176.006 17.720 174.166C17.720 171.886 19.280 170.166 21.720 169.486C22.360 169.326 22.440 169.366 22.520 169.806L24.520 181.726C24.600 182.166 24.560 182.166 23.960 182.286C23.320 182.406 22.520 182.486 21.720 182.486C14.720 182.486 10.200 178.606 10.200 173.046C10.200 170.686 10.600 167.526 13.920 163.766C16.320 161.086 18.160 159.606 20.040 158.086ZM24.640 169.166C27.880 169.446 30.560 172.166 30.560 175.686C30.560 178.206 29.040 180.246 26.800 181.366C26.320 181.606 26.240 181.606 26.160 181.126L24.200 169.726C24.120 169.246 24.160 169.126 24.640 169.166ZM25.800 136.126C27.120 136.126 28.200 137.206 28.200 139.406C28.200 142.166 26.880 144.726 23.760 147.846C23.120 148.486 22.160 149.406 21.240 150.206C20.960 150.446 20.800 150.406 20.720 149.886C20.560 148.846 20.480 147.486 20.480 146.206C20.480 139.966 23.360 136.126 25.800 136.126Z"></path></g><g></g><g><g><path d="M56.380 143.926C56.180 143.926 55.980 143.886 55.780 143.886C52.340 143.886 48.900 146.166 48.900 148.286C48.900 149.606 49.660 151.366 52.140 151.526L52.340 151.526C54.100 151.526 54.980 150.246 54.980 148.926L54.980 148.606C54.860 147.126 53.860 147.046 53.660 146.966C53.460 146.886 52.860 146.966 52.860 146.406L52.860 146.246C52.940 145.566 54.180 145.246 54.540 145.246C57.940 145.246 58.260 147.366 58.260 148.326L58.260 148.606C58.260 151.566 55.900 152.726 53.380 152.846C52.980 152.886 52.420 153.086 52.420 153.526C52.420 154.006 53.100 154.006 53.420 154.006C58.020 154.006 58.380 157.126 58.380 157.646C58.380 161.886 56.220 162.366 55.340 162.366C55.180 162.366 55.020 162.326 54.980 162.326C54.660 162.286 53.900 162.286 53.860 161.686L53.860 161.486C53.860 160.606 54.740 160.006 54.780 158.846C54.780 158.446 54.740 158.006 54.580 157.606C54.140 156.606 52.980 155.966 51.900 155.966C51.740 155.966 51.620 155.966 51.460 156.006C50.780 156.126 50.020 156.526 49.540 157.046C48.860 157.646 48.660 158.606 48.660 159.486C48.740 162.606 51.580 163.806 55.500 163.886L55.860 163.886C59.820 163.886 63.900 161.846 63.900 158.326L63.900 158.046C63.860 157.486 63.780 156.926 63.540 156.406C63.380 156.006 63.100 155.606 62.780 155.246C62.540 154.926 62.220 154.646 61.820 154.406L60.980 153.926L59.660 153.566C59.460 153.526 59.340 153.526 59.260 153.366C59.220 153.286 59.220 153.246 59.220 153.166C59.220 153.006 59.260 152.846 59.380 152.806C59.820 152.686 60.260 152.646 60.620 152.446C61.220 152.166 61.740 151.886 62.180 151.366C62.820 150.646 63.060 149.726 63.060 148.806C63.060 145.126 58.060 144.046 56.380 143.926Z"></path></g><g><path d="M60.820 172.406C62.260 171.486 63.220 170.166 63.220 168.166C63.220 164.086 57.340 163.486 56.260 163.486C51.620 163.486 48.460 165.606 48.460 168.966C48.460 171.726 50.020 173.206 51.940 174.286C49.860 175.286 48.260 176.606 48.260 179.126C48.260 182.606 51.860 184.206 55.820 184.206C59.820 184.206 64.100 182.486 64.100 177.086C64.100 174.686 62.700 173.366 60.820 172.406ZM55.660 182.886C52.980 182.886 50.540 181.526 50.540 178.926C50.540 177.326 51.940 175.846 53.700 175.166C56.620 176.446 59.580 177.286 59.580 179.926C59.580 181.526 58.340 182.886 55.660 182.886ZM58.740 171.486C55.540 170.366 52.140 169.686 52.140 167.166C52.140 165.486 54.420 164.646 56.180 164.646C57.460 164.646 60.860 165.286 60.860 168.086C60.860 169.686 60.060 170.726 58.740 171.486Z"></path></g><path d="M85.900 162.366C85.900 162.366 78.780 162.366 78.500 162.366C78.180 162.366 77.980 162.046 77.980 161.646C77.980 161.206 77.980 154.406 77.980 154.406C77.980 154.126 77.740 153.846 77.380 153.846L75.540 153.846C75.180 153.846 74.980 154.126 74.980 154.406C74.980 154.406 74.980 161.246 74.980 161.646C74.980 162.006 74.620 162.366 74.380 162.366C74.140 162.366 67.020 162.366 67.020 162.366C66.740 162.366 66.460 162.566 66.460 162.926L66.460 164.766C66.460 165.126 66.740 165.366 67.020 165.366C67.020 165.366 73.980 165.366 74.380 165.366C74.780 165.366 74.980 165.726 74.980 165.926C74.980 166.086 74.980 173.286 74.980 173.286C74.980 173.566 75.180 173.846 75.540 173.846L77.380 173.846C77.740 173.846 77.980 173.566 77.980 173.286C77.980 173.286 77.980 166.446 77.980 166.006C77.980 165.606 78.260 165.366 78.540 165.366C78.780 165.366 85.900 165.366 85.900 165.366C86.180 165.366 86.460 165.126 86.460 164.766L86.460 162.926C86.460 162.566 86.180 162.366 85.900 162.366Z"></path><g><path d="M104.860 157.486C104.860 157.006 104.660 156.926 104.380 156.926C104.060 156.926 103.940 157.086 103.860 157.326C103.860 157.366 103.820 157.406 103.820 157.446C103.420 158.406 103.100 159.166 102.260 159.166C102.060 159.166 101.860 159.126 101.580 159.046C101.060 158.846 100.780 158.806 100.380 158.606C99.580 158.286 97.700 157.646 96.060 157.646C95.540 157.646 95.020 157.726 94.580 157.886C95.460 156.446 98.860 155.246 99.740 155.006C100.340 154.846 102.020 154.526 103.340 153.446C104.300 152.686 105.060 151.526 105.060 149.766C105.060 147.886 104.260 146.526 103.220 145.646C101.180 143.926 98.060 143.686 97.180 143.686C96.100 143.686 94.740 143.726 93.700 143.966C92.300 144.246 90.900 145.086 89.940 146.206C89.260 147.046 88.820 148.046 88.820 149.126C88.820 149.686 88.940 150.246 89.180 150.846C89.780 152.086 91.020 153.046 92.460 153.046C94.900 153.046 95.260 150.526 95.260 149.526C95.260 147.126 92.500 147.006 92.500 146.206C92.580 145.646 93.300 144.686 95.660 144.686C99.220 144.686 99.260 147.366 99.260 148.526C99.260 150.046 98.780 151.446 97.900 152.606C96.460 154.526 95.340 155.486 93.380 156.686C91.180 158.086 89.620 160.046 88.940 162.566C88.940 162.646 88.900 162.726 88.900 162.806C88.900 163.246 89.180 163.766 89.620 164.046C89.740 164.126 89.860 164.126 89.940 164.126C90.820 164.126 91.300 161.686 93.660 161.686C95.260 161.686 95.860 163.846 99.420 163.846C101.140 163.846 104.220 163.686 104.860 157.486Z"></path></g><g><path d="M100.820 172.406C102.260 171.486 103.220 170.166 103.220 168.166C103.220 164.086 97.340 163.486 96.260 163.486C91.620 163.486 88.460 165.606 88.460 168.966C88.460 171.726 90.020 173.206 91.940 174.286C89.860 175.286 88.260 176.606 88.260 179.126C88.260 182.606 91.860 184.206 95.820 184.206C99.820 184.206 104.100 182.486 104.100 177.086C104.100 174.686 102.700 173.366 100.820 172.406ZM95.660 182.886C92.980 182.886 90.540 181.526 90.540 178.926C90.540 177.326 91.940 175.846 93.700 175.166C96.620 176.446 99.580 177.286 99.580 179.926C99.580 181.526 98.340 182.886 95.660 182.886ZM98.740 171.486C95.540 170.366 92.140 169.686 92.140 167.166C92.140 165.486 94.420 164.646 96.180 164.646C97.460 164.646 100.860 165.286 100.860 168.086C100.860 169.686 100.060 170.726 98.740 171.486Z"></path></g><path d="M125.900 162.366C125.900 162.366 118.780 162.366 118.500 162.366C118.180 162.366 117.980 162.046 117.980 161.646C117.980 161.206 117.980 154.406 117.980 154.406C117.980 154.126 117.740 153.846 117.380 153.846L115.540 153.846C115.180 153.846 114.980 154.126 114.980 154.406C114.980 154.406 114.980 161.246 114.980 161.646C114.980 162.006 114.620 162.366 114.380 162.366C114.140 162.366 107.020 162.366 107.020 162.366C106.740 162.366 106.460 162.566 106.460 162.926L106.460 164.766C106.460 165.126 106.740 165.366 107.020 165.366C107.020 165.366 113.980 165.366 114.380 165.366C114.780 165.366 114.980 165.726 114.980 165.926C114.980 166.086 114.980 173.286 114.980 173.286C114.980 173.566 115.180 173.846 115.540 173.846L117.380 173.846C117.740 173.846 117.980 173.566 117.980 173.286C117.980 173.286 117.980 166.446 117.980 166.006C117.980 165.606 118.260 165.366 118.540 165.366C118.780 165.366 125.900 165.366 125.900 165.366C126.180 165.366 126.460 165.126 126.460 164.766L126.460 162.926C126.460 162.566 126.180 162.366 125.900 162.366Z"></path><g><path d="M136.380 143.926C136.180 143.926 135.980 143.886 135.780 143.886C132.340 143.886 128.900 146.166 128.900 148.286C128.900 149.606 129.660 151.366 132.140 151.526L132.340 151.526C134.100 151.526 134.980 150.246 134.980 148.926L134.980 148.606C134.860 147.126 133.860 147.046 133.660 146.966C133.460 146.886 132.860 146.966 132.860 146.406L132.860 146.246C132.940 145.566 134.180 145.246 134.540 145.246C137.940 145.246 138.260 147.366 138.260 148.326L138.260 148.606C138.260 151.566 135.900 152.726 133.380 152.846C132.980 152.886 132.420 153.086 132.420 153.526C132.420 154.006 133.100 154.006 133.420 154.006C138.020 154.006 138.380 157.126 138.380 157.646C138.380 161.886 136.220 162.366 135.340 162.366C135.180 162.366 135.020 162.326 134.980 162.326C134.660 162.286 133.900 162.286 133.860 161.686L133.860 161.486C133.860 160.606 134.740 160.006 134.780 158.846C134.780 158.446 134.740 158.006 134.580 157.606C134.140 156.606 132.980 155.966 131.900 155.966C131.740 155.966 131.620 155.966 131.460 156.006C130.780 156.126 130.020 156.526 129.540 157.046C128.860 157.646 128.660 158.606 128.660 159.486C128.740 162.606 131.580 163.806 135.500 163.886L135.860 163.886C139.820 163.886 143.900 161.846 143.900 158.326L143.900 158.046C143.860 157.486 143.780 156.926 143.540 156.406C143.380 156.006 143.100 155.606 142.780 155.246C142.540 154.926 142.220 154.646 141.820 154.406L140.980 153.926L139.660 153.566C139.460 153.526 139.340 153.526 139.260 153.366C139.220 153.286 139.220 153.246 139.220 153.166C139.220 153.006 139.260 152.846 139.380 152.806C139.820 152.686 140.260 152.646 140.620 152.446C141.220 152.166 141.740 151.886 142.180 151.366C142.820 150.646 143.060 149.726 143.060 148.806C143.060 145.126 138.060 144.046 136.380 143.926Z"></path></g><g><path d="M145.180 176.806L142.260 176.806L142.260 168.246C142.260 167.926 142.220 167.566 141.780 167.566C141.420 167.566 141.220 167.646 140.980 167.926L137.180 172.526C137.020 172.726 136.820 172.966 136.820 173.446C136.820 173.446 136.820 175.046 136.820 176.806L131.420 176.806C134.620 174.086 141.020 165.006 141.140 164.566C141.140 164.486 141.180 164.446 141.180 164.366C141.180 164.046 140.900 163.806 140.580 163.806C140.220 163.806 138.580 163.886 137.860 163.886C137.140 163.886 135.340 163.806 135.020 163.806C134.660 163.806 134.100 163.926 134.100 164.566C134.100 169.526 130.180 175.086 128.980 176.766L128.740 177.086C128.740 177.126 128.700 177.166 128.700 177.206C128.620 177.366 128.580 177.526 128.580 177.646C128.580 178.046 128.900 178.326 129.380 178.326L136.820 178.326L136.820 180.846C136.820 181.926 135.940 182.246 135.220 182.246C134.580 182.246 134.300 182.606 134.300 183.006C134.300 183.406 134.460 183.846 135.060 183.846C135.700 183.846 143.580 183.846 143.580 183.846C143.980 183.846 144.380 183.566 144.380 183.006C144.380 182.446 143.900 182.206 143.500 182.206C143.100 182.206 142.260 181.966 142.260 180.686L142.260 178.326C143.980 178.326 145.180 178.326 145.180 178.326C145.580 178.326 145.780 178.046 145.780 177.566C145.780 177.086 145.620 176.806 145.180 176.806Z"></path></g></g></g><g><line stroke="black" stroke-width="1.6" x1="1059.623076923077" x2="1059.623076923077" y1="143.8461538461538" y2="183.8461538461538"></line><g><g><g><path d="M1076.343 150.726C1074.023 150.726 1072.303 151.126 1071.023 151.886C1070.943 151.926 1070.863 151.926 1070.823 151.926C1070.663 151.926 1070.663 151.766 1070.663 151.646C1070.663 151.566 1070.663 151.486 1070.663 151.486C1070.663 151.486 1070.823 149.246 1070.863 148.886C1070.903 148.566 1071.103 148.366 1071.463 148.366L1071.623 148.366C1072.023 148.446 1073.903 148.726 1075.543 148.726C1081.103 148.726 1081.303 145.526 1081.303 144.886C1081.303 144.366 1081.183 144.046 1080.743 144.046C1080.223 144.046 1077.103 144.406 1075.823 144.406C1074.543 144.406 1071.103 144.086 1070.423 144.006C1069.703 144.006 1069.503 144.366 1069.463 144.686L1069.023 153.566C1069.023 153.606 1069.023 153.606 1069.023 153.646C1069.023 154.166 1069.423 154.246 1069.823 154.246C1070.223 154.246 1070.263 153.886 1070.703 153.446C1071.103 153.046 1072.063 152.126 1073.423 152.126C1074.783 152.126 1077.543 152.886 1077.543 157.326C1077.543 161.726 1075.183 162.286 1074.143 162.286C1073.823 162.286 1073.503 162.286 1073.223 162.166C1073.023 162.046 1072.783 161.886 1072.743 161.606C1072.743 161.326 1073.023 161.166 1073.223 161.046C1074.143 160.486 1074.743 159.486 1074.743 158.366C1074.743 156.606 1073.343 155.246 1071.623 155.246C1069.463 155.246 1068.583 156.806 1068.463 158.206C1068.423 158.446 1068.423 158.686 1068.423 158.926C1068.423 162.246 1070.583 163.886 1075.503 163.886C1080.303 163.886 1082.943 160.926 1082.943 157.326C1082.943 153.686 1079.983 150.726 1076.343 150.726Z"></path></g><g><path d="M1084.783 177.486C1084.783 177.006 1084.583 176.926 1084.303 176.926C1083.983 176.926 1083.863 177.086 1083.783 177.326C1083.783 177.366 1083.743 177.406 1083.743 177.446C1083.343 178.406 1083.023 179.166 1082.183 179.166C1081.983 179.166 1081.783 179.126 1081.503 179.046C1080.983 178.846 1080.703 178.806 1080.303 178.606C1079.503 178.286 1077.623 177.646 1075.983 177.646C1075.463 177.646 1074.943 177.726 1074.503 177.886C1075.383 176.446 1078.783 175.246 1079.663 175.006C1080.263 174.846 1081.943 174.526 1083.263 173.446C1084.223 172.686 1084.983 171.526 1084.983 169.766C1084.983 167.886 1084.183 166.526 1083.143 165.646C1081.103 163.926 1077.983 163.686 1077.103 163.686C1076.023 163.686 1074.663 163.726 1073.623 163.966C1072.223 164.246 1070.823 165.086 1069.863 166.206C1069.183 167.046 1068.743 168.046 1068.743 169.126C1068.743 169.686 1068.863 170.246 1069.103 170.846C1069.703 172.086 1070.943 173.046 1072.383 173.046C1074.823 173.046 1075.183 170.526 1075.183 169.526C1075.183 167.126 1072.423 167.006 1072.423 166.206C1072.503 165.646 1073.223 164.686 1075.583 164.686C1079.143 164.686 1079.183 167.366 1079.183 168.526C1079.183 170.046 1078.703 171.446 1077.823 172.606C1076.383 174.526 1075.263 175.486 1073.303 176.686C1071.103 178.086 1069.543 180.046 1068.863 182.566C1068.863 182.646 1068.823 182.726 1068.823 182.806C1068.823 183.246 1069.103 183.766 1069.543 184.046C1069.663 184.126 1069.783 184.126 1069.863 184.126C1070.743 184.126 1071.223 181.686 1073.583 181.686C1075.183 181.686 1075.783 183.846 1079.343 183.846C1081.063 183.846 1084.143 183.686 1084.783 177.486Z"></path></g><path d="M1105.823 162.366C1105.823 162.366 1098.703 162.366 1098.423 162.366C1098.103 162.366 1097.903 162.046 1097.903 161.646C1097.903 161.206 1097.903 154.406 1097.903 154.406C1097.903 154.126 1097.663 153.846 1097.303 153.846L1095.463 153.846C1095.103 153.846 1094.903 154.126 1094.903 154.406C1094.903 154.406 1094.903 161.246 1094.903 161.646C1094.903 162.006 1094.543 162.366 1094.303 162.366C1094.063 162.366 1086.943 162.366 1086.943 162.366C1086.663 162.366 1086.383 162.566 1086.383 162.926L1086.383 164.766C1086.383 165.126 1086.663 165.366 1086.943 165.366C1086.943 165.366 1093.903 165.366 1094.303 165.366C1094.703 165.366 1094.903 165.726 1094.903 165.926C1094.903 166.086 1094.903 173.286 1094.903 173.286C1094.903 173.566 1095.103 173.846 1095.463 173.846L1097.303 173.846C1097.663 173.846 1097.903 173.566 1097.903 173.286C1097.903 173.286 1097.903 166.446 1097.903 166.006C1097.903 165.606 1098.183 165.366 1098.463 165.366C1098.703 165.366 1105.823 165.366 1105.823 165.366C1106.103 165.366 1106.383 165.126 1106.383 164.766L1106.383 162.926C1106.383 162.566 1106.103 162.366 1105.823 162.366Z"></path><g><path d="M1109.543 153.326C1109.543 153.326 1109.383 153.566 1109.383 153.846C1109.383 154.046 1109.503 154.286 1109.823 154.406C1109.983 154.446 1110.063 154.486 1110.183 154.486C1110.583 154.486 1110.743 154.126 1110.743 154.126C1110.743 154.126 1112.463 151.366 1112.903 150.606C1113.063 150.326 1113.223 150.206 1113.303 150.206C1113.463 150.206 1113.543 150.526 1113.543 150.766L1113.543 161.086C1113.543 162.006 1112.623 162.606 1111.783 162.606C1111.503 162.606 1111.103 162.726 1111.103 163.206C1111.103 163.646 1111.463 163.846 1111.983 163.846L1120.503 163.846C1121.143 163.846 1121.143 163.206 1121.143 163.206C1121.143 163.206 1121.143 162.606 1120.543 162.606C1119.983 162.606 1119.263 161.886 1119.263 161.206C1119.263 161.206 1119.263 145.366 1119.263 144.726C1119.263 144.086 1119.023 143.846 1118.463 143.806C1117.903 143.806 1116.903 143.966 1116.383 143.966C1115.623 143.966 1114.903 143.926 1114.303 143.846C1114.223 143.846 1114.143 143.806 1114.103 143.806C1113.663 143.806 1113.543 144.206 1113.383 144.566Z"></path></g><g><path d="M1120.743 172.406C1122.183 171.486 1123.143 170.166 1123.143 168.166C1123.143 164.086 1117.263 163.486 1116.183 163.486C1111.543 163.486 1108.383 165.606 1108.383 168.966C1108.383 171.726 1109.943 173.206 1111.863 174.286C1109.783 175.286 1108.183 176.606 1108.183 179.126C1108.183 182.606 1111.783 184.206 1115.743 184.206C1119.743 184.206 1124.023 182.486 1124.023 177.086C1124.023 174.686 1122.623 173.366 1120.743 172.406ZM1115.583 182.886C1112.903 182.886 1110.463 181.526 1110.463 178.926C1110.463 177.326 1111.863 175.846 1113.623 175.166C1116.543 176.446 1119.503 177.286 1119.503 179.926C1119.503 181.526 1118.263 182.886 1115.583 182.886ZM1118.663 171.486C1115.463 170.366 1112.063 169.686 1112.063 167.166C1112.063 165.486 1114.343 164.646 1116.103 164.646C1117.383 164.646 1120.783 165.286 1120.783 168.086C1120.783 169.686 1119.983 170.726 1118.663 171.486Z"></path></g></g></g></g><g><g><path d="M173.360 169.486C177.360 169.486 182.280 165.766 182.280 161.966C182.280 159.686 180.480 158.206 177.880 158.206C172.960 158.206 169 161.846 169 165.726C169 168.086 170.920 169.486 173.360 169.486Z"></path></g><line stroke="#000000" stroke-width="1.2" x1="169.6" x2="169.6" y1="165.68615384615381" y2="199.68615384615381"></line><g><polygon fill="black" points="169.6,200.8461538461538 258.29360036562565,200.8461538461538 258.29360036562565,195.8461538461538 169.6,195.8461538461538" stroke="black" stroke-width="0"></polygon><polygon fill="black" points="258.29360036562565,200.8461538461538 346.9872007312512,200.8461538461538 346.9872007312512,195.8461538461538 258.29360036562565,195.8461538461538" stroke="black" stroke-width="0"></polygon></g></g><g><g><path d="M262.054 169.486C266.054 169.486 270.974 165.766 270.974 161.966C270.974 159.686 269.174 158.206 266.574 158.206C261.654 158.206 257.694 161.846 257.694 165.726C257.694 168.086 259.614 169.486 262.054 169.486Z"></path></g><line stroke="#000000" stroke-width="1.2" x1="258.29360036562565" x2="258.29360036562565" y1="165.68615384615381" y2="199.68615384615381"></line></g><g><g><path d="M350.747 169.486C354.747 169.486 359.667 165.766 359.667 161.966C359.667 159.686 357.867 158.206 355.267 158.206C350.347 158.206 346.387 161.846 346.387 165.726C346.387 168.086 348.307 169.486 350.747 169.486Z"></path></g><line stroke="#000000" stroke-width="1.2" x1="346.9872007312512" x2="346.9872007312512" y1="165.68615384615381" y2="199.68615384615381"></line></g><g><g><path d="M439.441 169.486C443.441 169.486 448.361 165.766 448.361 161.966C448.361 159.686 446.561 158.206 443.961 158.206C439.041 158.206 435.081 161.846 435.081 165.726C435.081 168.086 437.001 169.486 439.441 169.486Z"></path></g><line stroke="#000000" stroke-width="1.2" x1="435.68080109687685" x2="435.68080109687685" y1="165.68615384615381" y2="199.68615384615381"></line><g><polygon fill="black" points="435.68080109687685,200.8461538461538 524.3744014625024,200.8461538461538 524.3744014625024,195.8461538461538 435.68080109687685,195.8461538461538" stroke="black" stroke-width="0"></polygon></g></g><g><g><path d="M528.134 169.486C532.134 169.486 537.054 165.766 537.054 161.966C537.054 159.686 535.254 158.206 532.654 158.206C527.734 158.206 523.774 161.846 523.774 165.726C523.774 168.086 525.694 169.486 528.134 169.486Z"></path></g><line stroke="#000000" stroke-width="1.2" x1="524.3744014625024" x2="524.3744014625024" y1="165.68615384615381" y2="199.68615384615381"></line></g><g><g><path d="M616.828 169.486C620.828 169.486 625.748 165.766 625.748 161.966C625.748 159.686 623.948 158.206 621.348 158.206C616.428 158.206 612.468 161.846 612.468 165.726C612.468 168.086 614.388 169.486 616.828 169.486Z"></path></g><line stroke="#000000" stroke-width="1.2" x1="613.0680018281281" x2="613.0680018281281" y1="165.68615384615381" y2="200.68615384615381"></line></g><g><g><path d="M765.613 169.486C769.613 169.486 774.533 165.766 774.533 161.966C774.533 159.686 772.733 158.206 770.133 158.206C765.213 158.206 761.253 161.846 761.253 165.726C761.253 168.086 763.173 169.486 765.613 169.486Z"></path></g><line stroke="#000000" stroke-width="1.2" x1="761.8530268597777" x2="761.8530268597777" y1="165.68615384615381" y2="200.68615384615381"></line></g><g><g><path d="M914.398 169.486C918.398 169.486 923.318 165.766 923.318 161.966C923.318 159.686 921.518 158.206 918.918 158.206C913.998 158.206 910.038 161.846 910.038 165.726C910.038 168.086 911.958 169.486 914.398 169.486Z"></path></g><line stroke="#000000" stroke-width="1.2" x1="910.6380518914274" x2="910.6380518914274" y1="165.68615384615381" y2="200.68615384615381"></line></g></g><g transform="translate(93.84615384615385)"><g><g><line stroke="#6A6A6A" stroke-width="1.3" x1="0" x2="733.3048886006843" y1="314.8461538461538" y2="314.8461538461538"></line><line stroke="#6A6A6A" stroke-width="1.3" x1="0" x2="733.3048886006843" y1="304.8461538461538" y2="304.8461538461538"></line><line stroke="#6A6A6A" stroke-width="1.3" x1="0" x2="733.3048886006843" y1="294.8461538461538" y2="294.8461538461538"></line><line stroke="#6A6A6A" stroke-width="1.3" x1="0" x2="733.3048886006843" y1="284.8461538461538" y2="284.8461538461538"></line><line stroke="#6A6A6A" stroke-width="1.3" x1="0" x2="733.3048886006843" y1="274.8461538461538" y2="274.8461538461538"></line></g><g><path d="M25.200 260.926C24.640 260.926 23.400 261.966 22.600 262.846C19.640 266.126 18.680 271.126 18.680 275.286C18.680 277.606 18.960 280.206 19.240 281.846C19.320 282.326 19.360 282.406 18.880 282.806C16.320 284.926 13.560 287.366 11.480 289.926C8.720 293.366 7 297.086 7 301.366C7 308.326 11.760 314.926 21.560 314.926C22.480 314.926 23.520 314.846 24.320 314.686C24.760 314.606 24.840 314.566 24.920 315.046C25.400 317.726 26 321.206 26 323.086C26 329.006 22 329.726 19.640 329.726C17.480 329.726 16.440 329.086 16.440 328.566C16.440 328.126 16.800 328.166 17.720 327.886C18.960 327.526 20.400 326.446 20.400 324.126C20.400 321.926 19 320.046 16.560 320.046C13.880 320.046 12.280 322.166 12.280 324.646C12.280 327.246 13.840 331.166 19.880 331.166C22.560 331.166 27.760 329.966 27.760 323.166C27.760 320.886 27.040 317.086 26.600 314.606C26.520 314.126 26.560 314.166 27.120 313.926C31.160 312.326 33.840 308.926 33.840 304.406C33.840 299.286 30.080 294.766 24.200 294.766C23.080 294.766 23.200 294.966 23.040 294.046L22.040 288.246C21.960 287.766 22.040 287.726 22.280 287.486C22.920 286.886 23.760 286.046 24.520 285.206C27.880 281.526 29.880 276.766 29.880 272.246C29.880 268.766 28.920 265.326 27.280 262.926C26.680 262.046 25.640 260.926 25.200 260.926ZM20.040 289.086C20.440 288.766 20.520 288.806 20.600 289.246L21.440 294.366C21.560 295.126 21.560 295.086 20.840 295.326C17.320 296.526 15.040 299.686 15.040 303.086C15.040 306.686 16.920 309.246 19.640 310.166C19.960 310.286 20.440 310.406 20.720 310.406C21.040 310.406 21.200 310.206 21.200 309.966C21.200 309.686 20.880 309.566 20.600 309.446C18.920 308.726 17.720 307.006 17.720 305.166C17.720 302.886 19.280 301.166 21.720 300.486C22.360 300.326 22.440 300.366 22.520 300.806L24.520 312.726C24.600 313.166 24.560 313.166 23.960 313.286C23.320 313.406 22.520 313.486 21.720 313.486C14.720 313.486 10.200 309.606 10.200 304.046C10.200 301.686 10.600 298.526 13.920 294.766C16.320 292.086 18.160 290.606 20.040 289.086ZM24.640 300.166C27.880 300.446 30.560 303.166 30.560 306.686C30.560 309.206 29.040 311.246 26.800 312.366C26.320 312.606 26.240 312.606 26.160 312.126L24.200 300.726C24.120 300.246 24.160 300.126 24.640 300.166ZM25.800 267.126C27.120 267.126 28.200 268.206 28.200 270.406C28.200 273.166 26.880 275.726 23.760 278.846C23.120 279.486 22.160 280.406 21.240 281.206C20.960 281.446 20.800 281.406 20.720 280.886C20.560 279.846 20.480 278.486 20.480 277.206C20.480 270.966 23.360 267.126 25.800 267.126Z"></path></g><g></g><g><g><path d="M56.420 281.726C54.100 281.726 52.380 282.126 51.100 282.886C51.020 282.926 50.940 282.926 50.900 282.926C50.740 282.926 50.740 282.766 50.740 282.646C50.740 282.566 50.740 282.486 50.740 282.486C50.740 282.486 50.900 280.246 50.940 279.886C50.980 279.566 51.180 279.366 51.540 279.366L51.700 279.366C52.100 279.446 53.980 279.726 55.620 279.726C61.180 279.726 61.380 276.526 61.380 275.886C61.380 275.366 61.260 275.046 60.820 275.046C60.300 275.046 57.180 275.406 55.900 275.406C54.620 275.406 51.180 275.086 50.500 275.006C49.780 275.006 49.580 275.366 49.540 275.686L49.100 284.566C49.100 284.606 49.100 284.606 49.100 284.646C49.100 285.166 49.500 285.246 49.900 285.246C50.300 285.246 50.340 284.886 50.780 284.446C51.180 284.046 52.140 283.126 53.500 283.126C54.860 283.126 57.620 283.886 57.620 288.326C57.620 292.726 55.260 293.286 54.220 293.286C53.900 293.286 53.580 293.286 53.300 293.166C53.100 293.046 52.860 292.886 52.820 292.606C52.820 292.326 53.100 292.166 53.300 292.046C54.220 291.486 54.820 290.486 54.820 289.366C54.820 287.606 53.420 286.246 51.700 286.246C49.540 286.246 48.660 287.806 48.540 289.206C48.500 289.446 48.500 289.686 48.500 289.926C48.500 293.246 50.660 294.886 55.580 294.886C60.380 294.886 63.020 291.926 63.020 288.326C63.020 284.686 60.060 281.726 56.420 281.726Z"></path></g><g><path d="M64.860 308.486C64.860 308.006 64.660 307.926 64.380 307.926C64.060 307.926 63.940 308.086 63.860 308.326C63.860 308.366 63.820 308.406 63.820 308.446C63.420 309.406 63.100 310.166 62.260 310.166C62.060 310.166 61.860 310.126 61.580 310.046C61.060 309.846 60.780 309.806 60.380 309.606C59.580 309.286 57.700 308.646 56.060 308.646C55.540 308.646 55.020 308.726 54.580 308.886C55.460 307.446 58.860 306.246 59.740 306.006C60.340 305.846 62.020 305.526 63.340 304.446C64.300 303.686 65.060 302.526 65.060 300.766C65.060 298.886 64.260 297.526 63.220 296.646C61.180 294.926 58.060 294.686 57.180 294.686C56.100 294.686 54.740 294.726 53.700 294.966C52.300 295.246 50.900 296.086 49.940 297.206C49.260 298.046 48.820 299.046 48.820 300.126C48.820 300.686 48.940 301.246 49.180 301.846C49.780 303.086 51.020 304.046 52.460 304.046C54.900 304.046 55.260 301.526 55.260 300.526C55.260 298.126 52.500 298.006 52.500 297.206C52.580 296.646 53.300 295.686 55.660 295.686C59.220 295.686 59.260 298.366 59.260 299.526C59.260 301.046 58.780 302.446 57.900 303.606C56.460 305.526 55.340 306.486 53.380 307.686C51.180 309.086 49.620 311.046 48.940 313.566C48.940 313.646 48.900 313.726 48.900 313.806C48.900 314.246 49.180 314.766 49.620 315.046C49.740 315.126 49.860 315.126 49.940 315.126C50.820 315.126 51.300 312.686 53.660 312.686C55.260 312.686 55.860 314.846 59.420 314.846C61.140 314.846 64.220 314.686 64.860 308.486Z"></path></g><path d="M85.900 293.366C85.900 293.366 78.780 293.366 78.500 293.366C78.180 293.366 77.980 293.046 77.980 292.646C77.980 292.206 77.980 285.406 77.980 285.406C77.980 285.126 77.740 284.846 77.380 284.846L75.540 284.846C75.180 284.846 74.980 285.126 74.980 285.406C74.980 285.406 74.980 292.246 74.980 292.646C74.980 293.006 74.620 293.366 74.380 293.366C74.140 293.366 67.020 293.366 67.020 293.366C66.740 293.366 66.460 293.566 66.460 293.926L66.460 295.766C66.460 296.126 66.740 296.366 67.020 296.366C67.020 296.366 73.980 296.366 74.380 296.366C74.780 296.366 74.980 296.726 74.980 296.926C74.980 297.086 74.980 304.286 74.980 304.286C74.980 304.566 75.180 304.846 75.540 304.846L77.380 304.846C77.740 304.846 77.980 304.566 77.980 304.286C77.980 304.286 77.980 297.446 77.980 297.006C77.980 296.606 78.260 296.366 78.540 296.366C78.780 296.366 85.900 296.366 85.900 296.366C86.180 296.366 86.460 296.126 86.460 295.766L86.460 293.926C86.460 293.566 86.180 293.366 85.900 293.366Z"></path><g><path d="M89.620 284.326C89.620 284.326 89.460 284.566 89.460 284.846C89.460 285.046 89.580 285.286 89.900 285.406C90.060 285.446 90.140 285.486 90.260 285.486C90.660 285.486 90.820 285.126 90.820 285.126C90.820 285.126 92.540 282.366 92.980 281.606C93.140 281.326 93.300 281.206 93.380 281.206C93.540 281.206 93.620 281.526 93.620 281.766L93.620 292.086C93.620 293.006 92.700 293.606 91.860 293.606C91.580 293.606 91.180 293.726 91.180 294.206C91.180 294.646 91.540 294.846 92.060 294.846L100.580 294.846C101.220 294.846 101.220 294.206 101.220 294.206C101.220 294.206 101.220 293.606 100.620 293.606C100.060 293.606 99.340 292.886 99.340 292.206C99.340 292.206 99.340 276.366 99.340 275.726C99.340 275.086 99.100 274.846 98.540 274.806C97.980 274.806 96.980 274.966 96.460 274.966C95.700 274.966 94.980 274.926 94.380 274.846C94.300 274.846 94.220 274.806 94.180 274.806C93.740 274.806 93.620 275.206 93.460 275.566Z"></path></g><g><path d="M100.820 303.406C102.260 302.486 103.220 301.166 103.220 299.166C103.220 295.086 97.340 294.486 96.260 294.486C91.620 294.486 88.460 296.606 88.460 299.966C88.460 302.726 90.020 304.206 91.940 305.286C89.860 306.286 88.260 307.606 88.260 310.126C88.260 313.606 91.860 315.206 95.820 315.206C99.820 315.206 104.100 313.486 104.100 308.086C104.100 305.686 102.700 304.366 100.820 303.406ZM95.660 313.886C92.980 313.886 90.540 312.526 90.540 309.926C90.540 308.326 91.940 306.846 93.700 306.166C96.620 307.446 99.580 308.286 99.580 310.926C99.580 312.526 98.340 313.886 95.660 313.886ZM98.740 302.486C95.540 301.366 92.140 300.686 92.140 298.166C92.140 296.486 94.420 295.646 96.180 295.646C97.460 295.646 100.860 296.286 100.860 299.086C100.860 300.686 100.060 301.726 98.740 302.486Z"></path></g></g><text font-family='Alegreya' font-style='italic' text-anchor='end' stroke='#7a7a7a' font-size="24" x="0" y="264.8461538461538">2</text></g><g><line stroke="#000000" stroke-width="1.6" x1="723.5048886006841" x2="723.5048886006841" y1="274.8461538461538" y2="314.8461538461538"></line><line stroke="#000000" stroke-width="5" x1="730.8048886006842" x2="730.8048886006842" y1="274.8461538461538" y2="314.8461538461538"></line></g><g><g><path d="M130.360 306.406L130.360 293.486C130.360 293.326 130.200 293.166 129.960 293.166L129.400 293.166C129.160 293.166 129 293.326 129 293.486L129 306.406C129 306.566 129.160 306.686 129.400 306.686L129.960 306.686C130.200 306.686 130.360 306.566 130.360 306.406ZM132.880 306.406L132.880 293.486C132.880 293.326 132.680 293.166 132.480 293.166L131.920 293.166C131.680 293.166 131.520 293.326 131.520 293.486L131.520 306.406C131.520 306.566 131.680 306.686 131.920 306.686L132.480 306.686C132.680 306.686 132.880 306.566 132.880 306.406ZM142.280 294.486C136.520 294.486 132.920 296.926 132.920 299.926C132.920 302.766 135.400 305.406 141.840 305.406C148.960 305.406 151.240 302.926 151.240 299.926C151.240 296.806 146.360 294.486 142.280 294.486ZM137.720 297.206C138.200 295.726 139.800 295.526 141.160 295.526C144.120 295.526 146.520 298.686 146.520 301.326C146.520 301.606 146.480 301.886 146.440 302.126C146.240 303.206 145.600 303.966 144.520 304.246C144.120 304.366 143.680 304.406 143.240 304.406C142.840 304.406 142.480 304.366 142.080 304.246C141.320 304.006 140.600 303.606 140 303.086C139.680 302.806 139.360 302.446 139.080 302.126C138.280 301.086 137.600 299.606 137.600 298.206C137.600 297.846 137.640 297.526 137.720 297.206ZM152.680 306.406L152.680 293.486C152.680 293.326 152.480 293.166 152.280 293.166L151.680 293.166C151.480 293.166 151.280 293.326 151.280 293.486L151.280 306.406C151.280 306.566 151.480 306.686 151.680 306.686L152.280 306.686C152.480 306.686 152.680 306.566 152.680 306.406ZM155.200 306.406L155.200 293.486C155.200 293.326 155 293.166 154.760 293.166L154.200 293.166C154 293.166 153.760 293.326 153.760 293.486L153.760 306.406C153.760 306.566 154 306.686 154.200 306.686L154.760 306.686C155 306.686 155.200 306.566 155.200 306.406Z"></path></g></g><g><g><path d="M166.999 305.646C174.639 305.646 176.159 299.446 176.159 297.926C176.159 295.566 174.279 294.046 171.599 294.046C164.679 294.046 162.519 299.406 162.519 301.806C162.519 304.246 164.479 305.646 166.999 305.646ZM170.519 301.966C168.439 303.366 166.999 303.846 165.999 303.846C165.039 303.846 164.479 303.366 164.159 302.806C163.999 302.526 163.879 302.206 163.879 301.886C163.879 300.886 164.879 299.606 168.079 297.766C170.359 296.446 171.799 295.966 172.759 295.966C173.639 295.966 174.119 296.366 174.439 296.926C174.599 297.206 174.719 297.486 174.719 297.806C174.719 298.726 173.759 299.846 170.519 301.966Z"></path></g><line stroke="#000000" stroke-width="1.2" x1="175.558932731657" x2="175.558932731657" y1="297.9261538461538" y2="259.9261538461538"></line></g><g><g><path d="M468.819 305.486C472.819 305.486 477.739 301.766 477.739 297.966C477.739 295.686 475.939 294.206 473.339 294.206C468.419 294.206 464.459 297.846 464.459 301.726C464.459 304.086 466.379 305.486 468.819 305.486Z"></path></g><line stroke="#000000" stroke-width="1.2" x1="477.13917002337723" x2="477.13917002337723" y1="298.00615384615384" y2="260.00615384615384"></line><path d="M486.059 286.086C486.059 286.086 487.099 282.286 487.099 279.166C487.099 274.166 485.019 269.446 482.499 265.446C480.459 262.286 478.779 258.846 478.139 255.006C478.019 254.366 477.699 254.126 476.939 254.126C476.699 254.126 476.539 254.246 476.539 254.726L476.539 264.286C479.179 264.766 482.979 270.206 484.419 273.606C485.019 274.966 485.379 277.246 485.379 279.606C485.379 281.406 485.099 283.286 484.419 285.086C484.339 285.326 484.299 285.526 484.299 285.686C484.299 286.326 484.699 286.686 484.939 286.846C485.179 287.006 485.859 286.766 486.059 286.086Z"></path></g></g></svg>