<?xml version="1.0" encoding="UTF-8" standalone="no"?><svg xmlns="http://www.w3.org/2000/svg" height="279.4mm" viewBox="0 0 1328.6153846153845 1719.3846153846152" width="215.9mm"><g transform="translate(93.84615384615385)"><g><g><line stroke="#6A6A6A" stroke-width="1.3" x1="0" x2="2027.3540262139713" y1="183.8461538461538" y2="183.8461538461538"></line><line stroke="#6A6A6A" stroke-width="1.3" x1="0" x2="2027.3540262139713" y1="173.8461538461538" y2="173.8461538461538"></line><line stroke="#6A6A6A" stroke-width="1.3" x1="0" x2="2027.3540262139713" y1="163.8461538461538" y2="163.8461538461538"></line><line stroke="#6A6A6A" stroke-width="1.3" x1="0" x2="2027.3540262139713" y1="153.8461538461538" y2="153.8461538461538"></line><line stroke="#6A6A6A" stroke-width="1.3" x1="0" x2="2027.3540262139713" y1="143.8461538461538" y2="143.8461538461538"></line></g><g><path d="M25.200 129.926C24.640 129.926 23.400 130.966 22.600 131.846C19.640 135.126 18.680 140.126 18.680 144.286C18.680 146.606 18.960 149.206 19.240 150.846C19.320 151.326 19.360 151.406 18.880 151.806C16.320 153.926 13.560 156.366 11.480 158.926C8.720 162.366 7 166.086 7 170.366C7 177.326 11.760 183.926 21.560 183.926C22.480 183.926 23.520 183.846 24.320 183.686C24.760 183.606 24.840 183.566 24.920 184.046C25.400 186.726 26 190.206 26 192.086C26 198.006 22 198.726 19.640 198.726C17.480 198.726 16.440 198.086 16.440 197.566C16.440 197.126 16.800 197.166 17.720 196.886C18.960 196.526 20.400 195.446 20.400 193.126C20.400 190.926 19 189.046 16.560 189.046C13.880 189.046 12.280 191.166 12.280 193.646C12.280 196.246 13.840 200.166 19.880 200.166C22.560 200.166 27.760 198.966 27.760 192.166C27.760 189.886 27.040 186.086 26.600 183.606C26.520 183.126 26.560 183.166 27.120 182.926C31.160 181.326 33.840 177.926 33.840 173.406C33.840 168.286 30.080 163.766 24.200 163.766C23.080 163.766 23.200 163.966 23.040 163.046L22.040 157.246C21.960 156.766 22.040 156.726 22.280 156.486C22.920 155.886 23.760 155.046 24.520 154.206C27.880 150.526 29.880 145.766 29.880 141.246C29.880 137.766 28.920 134.326 27.280 131.926C26.680 131.046 25.640 129.926 25.200 129.926ZM20.040 158.086C20.440 157.766 20.520 157.806 20.600 158.246L21.440 163.366C21.560 164.126 21.560 164.086 20.840 164.326C17.320 165.526 15.040 168.686 15.040 172.086C15.040 175.686 16.920 178.246 19.640 179.166C19.960 179.286 20.440 179.406 20.720 179.406C21.040 179.406 21.200 179.206 21.200 178.966C21.200 178.686 20.880 178.566 20.600 178.446C18.920 177.726 17.720 176.006 17.720 174.166C17.720 171.886 19.280 170.166 21.720 169.486C22.360 169.326 22.440 169.366 22.520 169.806L24.520 181.726C24.600 182.166 24.560 182.166 23.960 182.286C23.320 182.406 22.520 182.486 21.720 182.486C14.720 182.486 10.200 178.606 10.200 173.046C10.200 170.686 10.600 167.526 13.920 163.766C16.320 161.086 18.160 159.606 20.040 158.086ZM24.640 169.166C27.880 169.446 30.560 172.166 30.560 175.686C30.560 178.206 29.040 180.246 26.800 181.366C26.320 181.606 26.240 181.606 26.160 181.126L24.200 169.726C24.120 169.246 24.160 169.126 24.640 169.166ZM25.800 136.126C27.120 136.126 28.200 137.206 28.200 139.406C28.200 142.166 26.880 144.726 23.760 147.846C23.120 148.486 22.160 149.406 21.240 150.206C20.960 150.446 20.800 150.406 20.720 149.886C20.560 148.846 20.480 147.486 20.480 146.206C20.480 139.966 23.360 136.126 25.800 136.126Z"></path></g><g></g><path d="M57.820 153.806C56.620 153.806 55.220 154.126 54.140 154.606C50.580 156.166 48.700 160.446 48.700 164.246C48.700 164.606 48.700 164.966 48.740 165.326C48.940 167.486 49.980 169.526 51.300 171.126C52.820 172.966 55.020 173.806 57.420 173.806C64.420 173.806 65.460 167.446 65.460 166.286C65.460 165.406 65.020 165.406 64.860 165.406C64.540 165.406 64.260 165.446 64.260 166.126C64.260 171.286 59.860 172.486 58.580 172.486C55.340 172.486 53.620 169.326 53.620 162.726C53.620 156.126 56.660 154.766 58.820 154.766C60.900 154.766 61.740 155.726 61.740 156.126C61.740 156.486 61.620 157.006 61.020 157.006C59.420 157.006 58.500 158.726 58.500 159.966C58.500 162.246 60.460 162.966 61.580 162.966C61.580 162.966 64.620 162.846 64.620 159.526C64.620 154.286 58.580 153.806 57.820 153.806Z"></path></g><g><line stroke="black" stroke-width="1.6" x1="1539.5520474971697" x2="1539.5520474971697" y1="143.8461538461538" y2="183.8461538461538"></line></g><g><path d="M815.516 158.206L815.516 154.526C815.516 153.926 815.036 153.486 814.476 153.486L805.276 153.486C804.676 153.486 804.236 153.926 804.236 154.526L804.236 158.206C804.236 158.766 804.676 159.246 805.276 159.246L814.476 159.246C815.036 159.246 815.516 158.766 815.516 158.206Z"></path></g></g><g transform="translate(1649.1982013433235)"><g></g><g></g><g><g><path d="M53.351 164.486C57.351 164.486 62.271 160.766 62.271 156.966C62.271 154.686 60.471 153.206 57.871 153.206C52.951 153.206 48.991 156.846 48.991 160.726C48.991 163.086 50.911 164.486 53.351 164.486Z"></path></g><line stroke="#000000" stroke-width="1.2" x1="49.59076164949701" x2="49.59076164949701" y1="160.68615384615381" y2="195.68615384615381"></line></g><g><g><path d="M112.285 164.486C116.285 164.486 121.205 160.766 121.205 156.966C121.205 154.686 119.405 153.206 116.805 153.206C111.885 153.206 107.925 156.846 107.925 160.726C107.925 163.086 109.845 164.486 112.285 164.486Z"></path></g><line stroke="#000000" stroke-width="1.2" x1="108.52549467920039" x2="108.52549467920039" y1="160.68615384615381" y2="195.68615384615381"></line></g></g><g transform="translate(1880.0491907017242)"><g><g><path d="M16.740 181.006C16.740 177.926 14.740 174.846 10.900 174.846C9.620 174.846 9.180 175.686 8.820 175.686C8.420 175.686 8.020 175.086 7.780 174.686C7.660 174.366 7.460 174.126 7.460 173.846C7.460 173.606 7.580 173.486 7.740 173.126C7.780 173.046 7.860 173.046 7.860 172.966C8.100 172.606 8.500 172.046 8.820 172.046C9.180 172.046 9.620 172.806 10.900 172.806C14.740 172.806 16.740 169.766 16.740 166.726C16.740 163.686 14.180 160.566 10.380 160.566C6.540 160.566 5.380 163.086 5.380 164.166C5.380 165.286 6.260 166.486 7.420 166.486C8.540 166.486 9.620 165.526 9.620 164.486C9.620 163.566 8.420 162.926 8.180 162.726C8.100 162.646 7.700 162.566 7.700 162.406C7.700 162.366 7.700 162.326 7.780 162.286C8.300 161.766 8.900 161.606 9.500 161.606C11.780 161.606 12.300 163.566 12.300 165.206L12.300 168.366C12.300 170.406 12.220 171.126 10.460 171.126C8.740 171.126 8.060 170.406 7.660 169.086C7.460 168.526 7.260 168.326 7.060 168.326C6.780 168.326 6.540 168.726 6.460 169.086C5.780 172.246 4.740 172.406 3.980 172.486L3.980 161.166C3.980 160.806 3.380 160.566 3.060 160.566C2.740 160.566 2.500 160.806 2.500 161.166L2.500 186.566C2.500 186.886 2.740 187.126 3.060 187.126C3.380 187.126 3.980 186.886 3.980 186.566L3.980 175.206C4.740 175.286 5.780 175.446 6.460 178.606C6.540 178.966 6.780 179.366 7.060 179.366C7.260 179.366 7.460 179.166 7.660 178.606C8.060 177.286 8.740 176.526 10.460 176.526C12.220 176.526 12.300 177.286 12.300 179.366L12.300 182.486C12.300 184.166 11.780 186.046 9.500 186.046C8.420 186.046 8.060 185.686 7.820 185.446C7.740 185.366 7.700 185.326 7.700 185.286C7.700 185.126 8.020 185.046 8.100 184.966C8.380 184.686 9.620 184.246 9.620 183.166C9.620 182.126 8.540 181.166 7.420 181.166C6.260 181.166 5.380 182.406 5.380 183.486C5.380 184.566 6.540 187.126 10.380 187.126C14.180 187.126 16.740 184.006 16.740 181.006ZM0.580 161.166C0.580 160.846 0.340 160.566-0.020 160.566L-2.900 160.566C-3.220 160.566-3.500 160.846-3.500 161.166L-3.500 186.526C-3.500 186.846-3.220 187.126-2.900 187.126L-0.020 187.126C0.340 187.126 0.580 186.846 0.580 186.526Z"></path></g></g><g><line stroke="black" stroke-width="1.6" x1="240.3509893584008" x2="240.3509893584008" y1="143.8461538461538" y2="183.8461538461538"></line></g><g><g><path d="M77.051 144.486C81.051 144.486 85.971 140.766 85.971 136.966C85.971 134.686 84.171 133.206 81.571 133.206C76.651 133.206 72.691 136.846 72.691 140.726C72.691 143.086 74.611 144.486 77.051 144.486Z"></path></g><line stroke="#000000" stroke-width="1.2" x1="73.290761649497" x2="73.290761649497" y1="140.68615384615381" y2="175.68615384615381"></line></g><g><g><path d="M135.985 144.486C139.985 144.486 144.905 140.766 144.905 136.966C144.905 134.686 143.105 133.206 140.505 133.206C135.585 133.206 131.625 136.846 131.625 140.726C131.625 143.086 133.545 144.486 135.985 144.486Z"></path></g><line stroke="#000000" stroke-width="1.2" x1="132.2254946792004" x2="132.2254946792004" y1="140.68615384615381" y2="175.68615384615381"></line></g></g><g transform="translate(93.84615384615385)"><g><g><line stroke="#6A6A6A" stroke-width="1.3" x1="0" x2="778.4120763142073" y1="314.8461538461538" y2="314.8461538461538"></line><line stroke="#6A6A6A" stroke-width="1.3" x1="0" x2="778.4120763142073" y1="304.8461538461538" y2="304.8461538461538"></line><line stroke="#6A6A6A" stroke-width="1.3" x1="0" x2="778.4120763142073" y1="294.8461538461538" y2="294.8461538461538"></line><line stroke="#6A6A6A" stroke-width="1.3" x1="0" x2="778.4120763142073" y1="284.8461538461538" y2="284.8461538461538"></line><line stroke="#6A6A6A" stroke-width="1.3" x1="0" x2="778.4120763142073" y1="274.8461538461538" y2="274.8461538461538"></line></g><g><path d="M25.520 284.606C20.760 284.606 18.560 287.126 18.560 289.646C18.560 291.766 19.920 292.926 21.640 292.926C23.200 292.926 24.360 291.926 24.360 290.166C24.360 288.646 23.560 287.846 22.760 287.566C22.320 287.406 21.680 287.406 21.680 286.966C21.680 286.686 22.080 286.406 22.760 286.206C23.400 286.006 24.200 285.886 25.080 285.886C28.400 285.886 29.320 288.246 29.320 293.486C29.320 298.726 28.600 301.286 26 301.286C23.160 301.286 22.240 299.326 21.720 297.566C21.520 296.886 21.320 296.486 20.880 296.486C20.480 296.486 20.240 296.846 20.120 297.486C19.280 302.006 17.600 303.046 16.560 303.326C16.400 303.366 16.200 303.406 16.200 303.086L16.200 285.566C16.200 285.006 15.920 284.726 15.360 284.726L15.320 284.726C14.760 284.726 14.480 285.006 14.480 285.566L14.480 324.126C14.480 324.686 14.760 324.966 15.320 324.966L15.360 324.966C15.920 324.966 16.200 324.686 16.200 324.126L16.200 306.606C16.200 306.286 16.400 306.326 16.560 306.366C17.600 306.646 19.280 307.686 20.120 312.206C20.240 312.846 20.480 313.206 20.880 313.206C21.320 313.206 21.520 312.806 21.720 312.126C22.240 310.366 23.160 308.406 26 308.406C28.600 308.406 29.320 310.966 29.320 316.206C29.320 321.446 28.400 323.806 25.080 323.806C24.200 323.806 23.400 323.686 22.760 323.486C22.080 323.286 21.680 323.006 21.680 322.726C21.680 322.286 22.320 322.286 22.760 322.126C23.560 321.846 24.360 321.046 24.360 319.526C24.360 317.766 23.200 316.766 21.640 316.766C19.920 316.766 18.560 317.926 18.560 320.046C18.560 322.566 20.760 325.086 25.520 325.086C32.080 325.086 34.960 320.486 34.960 316.326C34.960 310.806 31.920 306.966 26.600 306.966C25.440 306.966 24.680 307.166 24.160 307.326C23.760 307.446 23.360 307.526 23 307.286C22.440 306.926 21.560 305.646 21.560 304.846C21.560 304.046 22.440 302.766 23 302.406C23.360 302.166 23.760 302.246 24.160 302.366C24.680 302.526 25.440 302.726 26.600 302.726C31.920 302.726 34.960 298.886 34.960 293.366C34.960 289.206 32.080 284.606 25.520 284.606ZM7.840 284.726C7.280 284.726 7 285.006 7 285.566L7 324.126C7 324.686 7.280 324.966 7.840 324.966L11.280 324.966C11.840 324.966 12.120 324.686 12.120 324.126L12.120 285.566C12.120 285.006 11.840 284.726 11.280 284.726Z"></path></g><g></g><text font-family='Alegreya' font-style='italic' text-anchor='end' stroke='#7a7a7a' font-size="24" x="0" y="264.8461538461538">3</text></g><g><g><path d="M410.406 304.806C410.166 301.446 407.686 298.806 404.326 298.806L404.046 298.806C403.966 298.806 403.806 298.806 403.726 298.846C403.446 297.126 403.326 296.726 403.046 295.286C406.566 292.046 407.846 288.726 407.846 284.086C407.846 282.446 407.446 280.766 406.686 279.086C405.686 276.726 404.726 276.566 404.726 276.566C402.246 277.686 400.486 281.646 400.486 286.406C400.486 287.246 400.526 288.126 400.686 289.046L401.006 290.726C397.126 294.006 392.806 297.886 392.806 302.926C392.806 303.166 392.806 303.446 392.846 303.726C393.326 310.086 398.286 312.086 402.566 312.086C403.366 312.086 403.926 311.966 404.486 311.966L405.006 314.806C405.126 315.446 405.286 316.926 405.286 317.446C405.286 321.726 402.086 321.766 401.766 321.766L401.246 321.766C400.366 321.766 399.606 321.646 399.046 321.246C398.886 321.126 398.806 321.046 398.806 320.966C398.806 320.846 398.926 320.806 399.046 320.726C399.286 320.686 399.486 320.686 399.726 320.566C400.806 320.246 402.246 319.406 402.246 317.846C402.246 317.846 402.246 317.646 402.246 317.646C402.246 316.526 401.766 315.486 400.686 315.046C400.286 314.846 399.926 314.766 399.526 314.766C397.966 314.766 396.526 316.006 396.326 317.646C396.286 317.646 396.206 318.046 396.206 318.566C396.206 320.046 396.886 323.046 401.206 323.046C401.366 323.046 401.606 323.006 401.806 323.006C403.646 322.886 406.606 321.446 406.606 317.326C406.606 315.326 406.046 313.446 405.766 311.606C408.686 310.526 410.406 308.126 410.406 305.206ZM404.926 281.726C405.806 281.726 406.366 282.406 406.366 283.846C406.366 284.006 406.366 284.206 406.326 284.406C406.006 286.566 404.886 287.566 402.086 289.726C402.006 289.086 401.886 288.566 401.886 288.406C401.846 288.126 401.846 287.806 401.846 287.486C401.846 284.766 402.846 281.806 404.926 281.726ZM395.246 305.046C395.246 300.686 398.406 298.446 401.846 295.886L402.326 299.046C399.966 299.726 398.126 301.966 398.126 304.326C398.126 304.726 398.166 305.126 398.286 305.486C398.686 307.246 399.846 308.566 401.086 308.966C401.326 309.046 401.526 309.086 401.646 309.086C401.846 309.086 401.966 308.966 401.966 308.846C401.966 308.686 401.766 308.486 401.566 308.366C401.046 308.166 400.126 307.126 400.086 306.046L400.086 305.806C400.086 303.966 401.526 303.326 402.926 303.046L404.286 310.566C403.886 310.726 403.326 310.806 402.566 310.806C399.726 310.806 395.406 309.846 395.246 305.286ZM405.566 310.286C405.166 307.926 405.006 305.886 404.446 302.926C406.646 302.926 408.126 304.206 408.246 306.406L408.246 306.686C408.246 308.526 407.446 309.486 405.566 310.286Z"></path></g></g><g><line stroke="#000000" stroke-width="1.6" x1="768.6120763142073" x2="768.6120763142073" y1="274.8461538461538" y2="314.8461538461538"></line><line stroke="#000000" stroke-width="5" x1="775.9120763142074" x2="775.9120763142074" y1="274.8461538461538" y2="314.8461538461538"></line></g><g><g><path d="M184.807 275.486C188.807 275.486 193.727 271.766 193.727 267.966C193.727 265.686 191.927 264.206 189.327 264.206C184.407 264.206 180.447 267.846 180.447 271.726C180.447 274.086 182.367 275.486 184.807 275.486Z"></path></g><line stroke="#000000" stroke-width="1.2" x1="181.04653725659136" x2="181.04653725659136" y1="271.6861538461538" y2="306.6861538461538"></line></g><g><g><path d="M292.736 275.486C296.736 275.486 301.656 271.766 301.656 267.966C301.656 265.686 299.856 264.206 297.256 264.206C292.336 264.206 288.376 267.846 288.376 271.726C288.376 274.086 290.296 275.486 292.736 275.486Z"></path></g><line stroke="#000000" stroke-width="1.2" x1="288.97628770684753" x2="288.97628770684753" y1="271.6861538461538" y2="306.6861538461538"></line></g><g><g><path d="M556.313 295.486C560.313 295.486 565.233 291.766 565.233 287.966C565.233 285.686 563.433 284.206 560.833 284.206C555.913 284.206 551.953 287.846 551.953 291.726C551.953 294.086 553.873 295.486 556.313 295.486Z"></path></g><line stroke="#000000" stroke-width="1.2" x1="552.5525754136951" x2="552.5525754136951" y1="291.6861538461538" y2="326.6861538461538"></line></g><g><g><path d="M664.242 295.486C668.242 295.486 673.162 291.766 673.162 287.966C673.162 285.686 671.362 284.206 668.762 284.206C663.842 284.206 659.882 287.846 659.882 291.726C659.882 294.086 661.802 295.486 664.242 295.486Z"></path></g><line stroke="#000000" stroke-width="1.2" x1="660.4823258639511" x2="660.4823258639511" y1="291.6861538461538" y2="326.6861538461538"></line></g></g></svg>