<?xml version="1.0" encoding="UTF-8" standalone="no"?><svg xmlns="http://www.w3.org/2000/svg" height="279.4mm" viewBox="0 0 1328.6153846153845 1719.3846153846152" width="215.9mm"><g transform="translate(163.84615384615387)"><g><g><line stroke="#6A6A6A" stroke-width="1.3" x1="0" x2="293.935369113152" y1="216.3461538461538" y2="216.3461538461538"></line><line stroke="#6A6A6A" stroke-width="1.3" x1="0" x2="293.935369113152" y1="206.3461538461538" y2="206.3461538461538"></line><line stroke="#6A6A6A" stroke-width="1.3" x1="0" x2="293.935369113152" y1="196.3461538461538" y2="196.3461538461538"></line><line stroke="#6A6A6A" stroke-width="1.3" x1="0" x2="293.935369113152" y1="186.3461538461538" y2="186.3461538461538"></line><line stroke="#6A6A6A" stroke-width="1.3" x1="0" x2="293.935369113152" y1="176.3461538461538" y2="176.3461538461538"></line></g><g><path d="M25.200 162.426C24.640 162.426 23.400 163.466 22.600 164.346C19.640 167.626 18.680 172.626 18.680 176.786C18.680 179.106 18.960 181.706 19.240 183.346C19.320 183.826 19.360 183.906 18.880 184.306C16.320 186.426 13.560 188.866 11.480 191.426C8.720 194.866 7 198.586 7 202.866C7 209.826 11.760 216.426 21.560 216.426C22.480 216.426 23.520 216.346 24.320 216.186C24.760 216.106 24.840 216.066 24.920 216.546C25.400 219.226 26 222.706 26 224.586C26 230.506 22 231.226 19.640 231.226C17.480 231.226 16.440 230.586 16.440 230.066C16.440 229.626 16.800 229.666 17.720 229.386C18.960 229.026 20.400 227.946 20.400 225.626C20.400 223.426 19 221.546 16.560 221.546C13.880 221.546 12.280 223.666 12.280 226.146C12.280 228.746 13.840 232.666 19.880 232.666C22.560 232.666 27.760 231.466 27.760 224.666C27.760 222.386 27.040 218.586 26.600 216.106C26.520 215.626 26.560 215.666 27.120 215.426C31.160 213.826 33.840 210.426 33.840 205.906C33.840 200.786 30.080 196.266 24.200 196.266C23.080 196.266 23.200 196.466 23.040 195.546L22.040 189.746C21.960 189.266 22.040 189.226 22.280 188.986C22.920 188.386 23.760 187.546 24.520 186.706C27.880 183.026 29.880 178.266 29.880 173.746C29.880 170.266 28.920 166.826 27.280 164.426C26.680 163.546 25.640 162.426 25.200 162.426ZM20.040 190.586C20.440 190.266 20.520 190.306 20.600 190.746L21.440 195.866C21.560 196.626 21.560 196.586 20.840 196.826C17.320 198.026 15.040 201.186 15.040 204.586C15.040 208.186 16.920 210.746 19.640 211.666C19.960 211.786 20.440 211.906 20.720 211.906C21.040 211.906 21.200 211.706 21.200 211.466C21.200 211.186 20.880 211.066 20.600 210.946C18.920 210.226 17.720 208.506 17.720 206.666C17.720 204.386 19.280 202.666 21.720 201.986C22.360 201.826 22.440 201.866 22.520 202.306L24.520 214.226C24.600 214.666 24.560 214.666 23.960 214.786C23.320 214.906 22.520 214.986 21.720 214.986C14.720 214.986 10.200 211.106 10.200 205.546C10.200 203.186 10.600 200.026 13.920 196.266C16.320 193.586 18.160 192.106 20.040 190.586ZM24.640 201.666C27.880 201.946 30.560 204.666 30.560 208.186C30.560 210.706 29.040 212.746 26.800 213.866C26.320 214.106 26.240 214.106 26.160 213.626L24.200 202.226C24.120 201.746 24.160 201.626 24.640 201.666ZM25.800 168.626C27.120 168.626 28.200 169.706 28.200 171.906C28.200 174.666 26.880 177.226 23.760 180.346C23.120 180.986 22.160 181.906 21.240 182.706C20.960 182.946 20.800 182.906 20.720 182.386C20.560 181.346 20.480 179.986 20.480 178.706C20.480 172.466 23.360 168.626 25.800 168.626Z"></path></g><g></g><path d="M57.820 186.306C56.620 186.306 55.220 186.626 54.140 187.106C50.580 188.666 48.700 192.946 48.700 196.746C48.700 197.106 48.700 197.466 48.740 197.826C48.940 199.986 49.980 202.026 51.300 203.626C52.820 205.466 55.020 206.306 57.420 206.306C64.420 206.306 65.460 199.946 65.460 198.786C65.460 197.906 65.020 197.906 64.860 197.906C64.540 197.906 64.260 197.946 64.260 198.626C64.260 203.786 59.860 204.986 58.580 204.986C55.340 204.986 53.620 201.826 53.620 195.226C53.620 188.626 56.660 187.266 58.820 187.266C60.900 187.266 61.740 188.226 61.740 188.626C61.740 188.986 61.620 189.506 61.020 189.506C59.420 189.506 58.500 191.226 58.500 192.466C58.500 194.746 60.460 195.466 61.580 195.466C61.580 195.466 64.620 195.346 64.620 192.026C64.620 186.786 58.580 186.306 57.820 186.306Z"></path></g><text x="191.467684556576" y="136.3461538461538"><tspan alignment-baseline="hanging" fill="#000000" direction="ltr" dx="0" dy="0" font-style="normal" font-weight="normal" font-family="Alegreya" font-size="29.30769230769231" letter-spacing="normal" text-decoration="none" text-anchor="start">Adagio</tspan></text><g><line stroke="black" stroke-width="1.6" x1="294.735369113152" x2="294.735369113152" y1="176.3461538461538" y2="216.3461538461538"></line></g><g><g><path d="M93.360 196.986C97.360 196.986 102.280 193.266 102.280 189.466C102.280 187.186 100.480 185.706 97.880 185.706C92.960 185.706 89 189.346 89 193.226C89 195.586 90.920 196.986 93.360 196.986Z"></path></g><line stroke="#000000" stroke-width="1.2" x1="89.6" x2="89.6" y1="193.18615384615381" y2="228.18615384615381"></line></g><g><g><path d="M144.594 196.986C148.594 196.986 153.514 193.266 153.514 189.466C153.514 187.186 151.714 185.706 149.114 185.706C144.194 185.706 140.234 189.346 140.234 193.226C140.234 195.586 142.154 196.986 144.594 196.986Z"></path></g><line stroke="#000000" stroke-width="1.2" x1="140.833842278288" x2="140.833842278288" y1="193.18615384615381" y2="228.18615384615381"></line></g><g><g><path d="M195.828 196.986C199.828 196.986 204.748 193.266 204.748 189.466C204.748 187.186 202.948 185.706 200.348 185.706C195.428 185.706 191.468 189.346 191.468 193.226C191.468 195.586 193.388 196.986 195.828 196.986Z"></path></g><line stroke="#000000" stroke-width="1.2" x1="192.06768455657598" x2="192.06768455657598" y1="193.18615384615381" y2="228.18615384615381"></line></g><g><g><path d="M247.062 196.986C251.062 196.986 255.982 193.266 255.982 189.466C255.982 187.186 254.182 185.706 251.582 185.706C246.662 185.706 242.702 189.346 242.702 193.226C242.702 195.586 244.622 196.986 247.062 196.986Z"></path></g><line stroke="#000000" stroke-width="1.2" x1="243.30152683486395" x2="243.30152683486395" y1="193.18615384615381" y2="228.18615384615381"></line></g></g><g transform="translate(474.3815229593058)"><g><g><line stroke="#6A6A6A" stroke-width="1.3" x1="-16.599999999999966" x2="437.07073822630383" y1="216.3461538461538" y2="216.3461538461538"></line><line stroke="#6A6A6A" stroke-width="1.3" x1="-16.599999999999966" x2="437.07073822630383" y1="206.3461538461538" y2="206.3461538461538"></line><line stroke="#6A6A6A" stroke-width="1.3" x1="-16.599999999999966" x2="437.07073822630383" y1="196.3461538461538" y2="196.3461538461538"></line><line stroke="#6A6A6A" stroke-width="1.3" x1="-16.599999999999966" x2="437.07073822630383" y1="186.3461538461538" y2="186.3461538461538"></line><line stroke="#6A6A6A" stroke-width="1.3" x1="-16.599999999999966" x2="437.07073822630383" y1="176.3461538461538" y2="176.3461538461538"></line></g></g><g><line stroke="black" stroke-width="1.6" x1="205.73536911315196" x2="205.73536911315196" y1="176.3461538461538" y2="216.3461538461538"></line></g><g><g><path d="M4.360 196.986C8.360 196.986 13.280 193.266 13.280 189.466C13.280 187.186 11.480 185.706 8.880 185.706C3.960 185.706 0 189.346 0 193.226C0 195.586 1.920 196.986 4.360 196.986Z"></path></g><line stroke="#000000" stroke-width="1.2" x1="0.6" x2="0.6" y1="193.18615384615381" y2="228.18615384615381"></line></g><g><g><path d="M55.594 196.986C59.594 196.986 64.514 193.266 64.514 189.466C64.514 187.186 62.714 185.706 60.114 185.706C55.194 185.706 51.234 189.346 51.234 193.226C51.234 195.586 53.154 196.986 55.594 196.986Z"></path></g><line stroke="#000000" stroke-width="1.2" x1="51.83384227828799" x2="51.83384227828799" y1="193.18615384615381" y2="228.18615384615381"></line></g><g><g><path d="M106.828 196.986C110.828 196.986 115.748 193.266 115.748 189.466C115.748 187.186 113.948 185.706 111.348 185.706C106.428 185.706 102.468 189.346 102.468 193.226C102.468 195.586 104.388 196.986 106.828 196.986Z"></path></g><line stroke="#000000" stroke-width="1.2" x1="103.06768455657597" x2="103.06768455657597" y1="193.18615384615381" y2="228.18615384615381"></line></g><g><g><path d="M158.062 196.986C162.062 196.986 166.982 193.266 166.982 189.466C166.982 187.186 165.182 185.706 162.582 185.706C157.662 185.706 153.702 189.346 153.702 193.226C153.702 195.586 155.622 196.986 158.062 196.986Z"></path></g><line stroke="#000000" stroke-width="1.2" x1="154.30152683486395" x2="154.30152683486395" y1="193.18615384615381" y2="228.18615384615381"></line></g></g><g transform="translate(695.9168920724578)"><g></g><g><line stroke="#000000" stroke-width="1.6" x1="205.73536911315196" x2="205.73536911315196" y1="176.3461538461538" y2="216.3461538461538"></line><line stroke="#000000" stroke-width="5" x1="213.03536911315194" x2="213.03536911315194" y1="176.3461538461538" y2="216.3461538461538"></line></g><g><g><path d="M4.360 196.986C8.360 196.986 13.280 193.266 13.280 189.466C13.280 187.186 11.480 185.706 8.880 185.706C3.960 185.706 0 189.346 0 193.226C0 195.586 1.920 196.986 4.360 196.986Z"></path></g><line stroke="#000000" stroke-width="1.2" x1="0.6" x2="0.6" y1="193.18615384615381" y2="228.18615384615381"></line></g><g><g><path d="M55.594 196.986C59.594 196.986 64.514 193.266 64.514 189.466C64.514 187.186 62.714 185.706 60.114 185.706C55.194 185.706 51.234 189.346 51.234 193.226C51.234 195.586 53.154 196.986 55.594 196.986Z"></path></g><line stroke="#000000" stroke-width="1.2" x1="51.83384227828799" x2="51.83384227828799" y1="193.18615384615381" y2="228.18615384615381"></line></g><g><g><path d="M106.828 196.986C110.828 196.986 115.748 193.266 115.748 189.466C115.748 187.186 113.948 185.706 111.348 185.706C106.428 185.706 102.468 189.346 102.468 193.226C102.468 195.586 104.388 196.986 106.828 196.986Z"></path></g><line stroke="#000000" stroke-width="1.2" x1="103.06768455657597" x2="103.06768455657597" y1="193.18615384615381" y2="228.18615384615381"></line></g><g><g><path d="M158.062 196.986C162.062 196.986 166.982 193.266 166.982 189.466C166.982 187.186 165.182 185.706 162.582 185.706C157.662 185.706 153.702 189.346 153.702 193.226C153.702 195.586 155.622 196.986 158.062 196.986Z"></path></g><line stroke="#000000" stroke-width="1.2" x1="154.30152683486395" x2="154.30152683486395" y1="193.18615384615381" y2="228.18615384615381"></line></g></g></svg>