<?xml version="1.0" encoding="UTF-8" standalone="no"?><svg xmlns="http://www.w3.org/2000/svg" height="279.4mm" viewBox="0 0 1328.6153846153845 1719.3846153846152" width="215.9mm"><g transform="translate(163.84615384615387)"><g><g><line stroke="#6A6A6A" stroke-width="1.3" x1="0" x2="635.6539880464676" y1="216.3461538461538" y2="216.3461538461538"></line><line stroke="#6A6A6A" stroke-width="1.3" x1="0" x2="635.6539880464676" y1="206.3461538461538" y2="206.3461538461538"></line><line stroke="#6A6A6A" stroke-width="1.3" x1="0" x2="635.6539880464676" y1="196.3461538461538" y2="196.3461538461538"></line><line stroke="#6A6A6A" stroke-width="1.3" x1="0" x2="635.6539880464676" y1="186.3461538461538" y2="186.3461538461538"></line><line stroke="#6A6A6A" stroke-width="1.3" x1="0" x2="635.6539880464676" y1="176.3461538461538" y2="176.3461538461538"></line></g><g><path d="M25.200 162.426C24.640 162.426 23.400 163.466 22.600 164.346C19.640 167.626 18.680 172.626 18.680 176.786C18.680 179.106 18.960 181.706 19.240 183.346C19.320 183.826 19.360 183.906 18.880 184.306C16.320 186.426 13.560 188.866 11.480 191.426C8.720 194.866 7 198.586 7 202.866C7 209.826 11.760 216.426 21.560 216.426C22.480 216.426 23.520 216.346 24.320 216.186C24.760 216.106 24.840 216.066 24.920 216.546C25.400 219.226 26 222.706 26 224.586C26 230.506 22 231.226 19.640 231.226C17.480 231.226 16.440 230.586 16.440 230.066C16.440 229.626 16.800 229.666 17.720 229.386C18.960 229.026 20.400 227.946 20.400 225.626C20.400 223.426 19 221.546 16.560 221.546C13.880 221.546 12.280 223.666 12.280 226.146C12.280 228.746 13.840 232.666 19.880 232.666C22.560 232.666 27.760 231.466 27.760 224.666C27.760 222.386 27.040 218.586 26.600 216.106C26.520 215.626 26.560 215.666 27.120 215.426C31.160 213.826 33.840 210.426 33.840 205.906C33.840 200.786 30.080 196.266 24.200 196.266C23.080 196.266 23.200 196.466 23.040 195.546L22.040 189.746C21.960 189.266 22.040 189.226 22.280 188.986C22.920 188.386 23.760 187.546 24.520 186.706C27.880 183.026 29.880 178.266 29.880 173.746C29.880 170.266 28.920 166.826 27.280 164.426C26.680 163.546 25.640 162.426 25.200 162.426ZM20.040 190.586C20.440 190.266 20.520 190.306 20.600 190.746L21.440 195.866C21.560 196.626 21.560 196.586 20.840 196.826C17.320 198.026 15.040 201.186 15.040 204.586C15.040 208.186 16.920 210.746 19.640 211.666C19.960 211.786 20.440 211.906 20.720 211.906C21.040 211.906 21.200 211.706 21.200 211.466C21.200 211.186 20.880 211.066 20.600 210.946C18.920 210.226 17.720 208.506 17.720 206.666C17.720 204.386 19.280 202.666 21.720 201.986C22.360 201.826 22.440 201.866 22.520 202.306L24.520 214.226C24.600 214.666 24.560 214.666 23.960 214.786C23.320 214.906 22.520 214.986 21.720 214.986C14.720 214.986 10.200 211.106 10.200 205.546C10.200 203.186 10.600 200.026 13.920 196.266C16.320 193.586 18.160 192.106 20.040 190.586ZM24.640 201.666C27.880 201.946 30.560 204.666 30.560 208.186C30.560 210.706 29.040 212.746 26.800 213.866C26.320 214.106 26.240 214.106 26.160 213.626L24.200 202.226C24.120 201.746 24.160 201.626 24.640 201.666ZM25.800 168.626C27.120 168.626 28.200 169.706 28.200 171.906C28.200 174.666 26.880 177.226 23.760 180.346C23.120 180.986 22.160 181.906 21.240 182.706C20.960 182.946 20.800 182.906 20.720 182.386C20.560 181.346 20.480 179.986 20.480 178.706C20.480 172.466 23.360 168.626 25.800 168.626Z"></path></g><g></g><path d="M57.820 186.306C56.620 186.306 55.220 186.626 54.140 187.106C50.580 188.666 48.700 192.946 48.700 196.746C48.700 197.106 48.700 197.466 48.740 197.826C48.940 199.986 49.980 202.026 51.300 203.626C52.820 205.466 55.020 206.306 57.420 206.306C64.420 206.306 65.460 199.946 65.460 198.786C65.460 197.906 65.020 197.906 64.860 197.906C64.540 197.906 64.260 197.946 64.260 198.626C64.260 203.786 59.860 204.986 58.580 204.986C55.340 204.986 53.620 201.826 53.620 195.226C53.620 188.626 56.660 187.266 58.820 187.266C60.900 187.266 61.740 188.226 61.740 188.626C61.740 188.986 61.620 189.506 61.020 189.506C59.420 189.506 58.500 191.226 58.500 192.466C58.500 194.746 60.460 195.466 61.580 195.466C61.580 195.466 64.620 195.346 64.620 192.026C64.620 186.786 58.580 186.306 57.820 186.306Z"></path></g><g><line stroke="#000000" stroke-width="1.6" x1="625.8539880464675" x2="625.8539880464675" y1="176.3461538461538" y2="216.3461538461538"></line><line stroke="#000000" stroke-width="5" x1="633.1539880464676" x2="633.1539880464676" y1="176.3461538461538" y2="216.3461538461538"></line></g><g><g><path d="M93.360 186.986C97.360 186.986 102.280 183.266 102.280 179.466C102.280 177.186 100.480 175.706 97.880 175.706C92.960 175.706 89 179.346 89 183.226C89 185.586 90.920 186.986 93.360 186.986Z"></path></g><g><path d="M102.120 196.946L95.480 185.626L89 196.946Z"></path></g><g><path d="M106.200 191.346L89 211.346L93 211.346L110.200 191.346Z"></path></g><line stroke="#000000" stroke-width="1.2" x1="89.6" x2="89.6" y1="191.3461538461538" y2="246.3461538461538"></line><text font-family="Alegreya" font-size="22" text-anchor="middle" x="99.6" y="256.3461538461538">normal</text><text font-family="Alegreya" font-size="22" text-anchor="middle" x="99.6" y="256.3461538461538">triangle</text><text font-family="Alegreya" font-size="22" text-anchor="middle" x="99.6" y="256.3461538461538">slash</text></g><g><g><path d="M219.167 180.706L214.807 180.706L214.807 176.346C214.807 175.986 214.487 175.706 214.167 175.706C213.807 175.706 213.527 175.986 213.527 176.346L213.527 180.706L209.167 180.706C208.807 180.706 208.527 180.986 208.527 181.346C208.527 181.706 208.807 181.986 209.167 181.986L213.527 181.986L213.527 186.346C213.527 186.706 213.807 186.986 214.167 186.986C214.487 186.986 214.807 186.706 214.807 186.346L214.807 181.986L219.167 181.986C219.487 181.986 219.807 181.706 219.807 181.346C219.807 180.986 219.487 180.706 219.167 180.706Z"></path></g><g><path d="M222.727 196.986L222.727 185.706L208.567 185.706L208.567 196.986Z"></path></g><g><path d="M219.727 201.546C219.767 201.506 219.807 201.386 219.807 201.306C219.807 201.226 219.767 201.146 219.727 201.066L214.407 195.746C214.327 195.706 214.247 195.666 214.167 195.666C214.087 195.666 214.007 195.706 213.967 195.746L208.647 201.066C208.567 201.146 208.567 201.226 208.567 201.306C208.567 201.386 208.567 201.506 208.647 201.546L213.967 206.866C214.007 206.946 214.087 206.946 214.167 206.946C214.247 206.946 214.327 206.946 214.407 206.866Z"></path></g><line stroke="#000000" stroke-width="1.2" x1="209.16699701161687" x2="209.16699701161687" y1="186.9861538461538" y2="241.9861538461538"></line><text font-family="Alegreya" font-size="22" text-anchor="middle" x="215.6469970116169" y="256.3461538461538">cross</text><text font-family="Alegreya" font-size="22" text-anchor="middle" x="215.6469970116169" y="256.3461538461538">square</text><text font-family="Alegreya" font-size="22" text-anchor="middle" x="215.6469970116169" y="256.3461538461538">diamond</text></g><g><g><path d="M374.621 186.986L381.261 175.666L368.141 175.666Z"></path></g><g><path d="M377.461 200.666C379.941 200.666 382.301 199.706 384.061 197.946C385.821 196.186 386.781 193.826 386.781 191.346C386.781 188.866 385.821 186.506 384.061 184.746C382.301 182.986 379.941 182.026 377.461 182.026C374.981 182.026 372.621 182.986 370.861 184.746C369.101 186.506 368.141 188.866 368.141 191.346C368.141 193.826 369.101 196.186 370.861 197.946C372.621 199.706 374.981 200.666 377.461 200.666ZM377.461 183.146C381.981 183.146 385.661 186.826 385.661 191.346C385.661 195.866 381.981 199.546 377.461 199.546C372.941 199.546 369.261 195.866 369.261 191.346C369.261 186.826 372.941 183.146 377.461 183.146ZM383.181 195.386L378.341 191.346L383.181 187.266C383.301 187.146 383.421 186.986 383.421 186.786C383.421 186.706 383.381 186.546 383.261 186.426C383.181 186.306 383.021 186.226 382.861 186.226C382.741 186.226 382.661 186.266 382.581 186.346L377.421 190.626L372.341 186.346C372.261 186.266 372.141 186.226 372.021 186.226C371.901 186.226 371.741 186.306 371.621 186.426C371.581 186.546 371.541 186.666 371.541 186.786C371.541 186.946 371.621 187.146 371.741 187.266L376.621 191.346L371.741 195.386C371.621 195.546 371.541 195.746 371.541 195.906C371.541 196.026 371.581 196.106 371.621 196.226C371.741 196.386 371.941 196.466 372.061 196.466C372.181 196.466 372.301 196.426 372.341 196.346L377.421 192.066L382.581 196.346C382.661 196.426 382.741 196.466 382.861 196.466C383.021 196.466 383.181 196.386 383.261 196.226C383.381 196.106 383.421 195.986 383.421 195.866C383.421 195.706 383.301 195.506 383.181 195.386Z"></path></g><g><path d="M381.101 205.946L375.701 201.426L381.101 196.906C381.221 196.786 381.341 196.586 381.341 196.386C381.341 196.266 381.301 196.106 381.181 195.986C381.101 195.826 380.901 195.746 380.741 195.746C380.621 195.746 380.501 195.786 380.421 195.866L374.701 200.626L369.061 195.866C368.941 195.786 368.821 195.746 368.701 195.746C368.541 195.746 368.381 195.826 368.261 195.986C368.181 196.106 368.141 196.226 368.141 196.346C368.141 196.546 368.221 196.746 368.381 196.906L373.781 201.426L368.381 205.946C368.221 206.106 368.141 206.306 368.141 206.506C368.141 206.626 368.181 206.746 368.261 206.866C368.381 207.026 368.581 207.106 368.741 207.106C368.861 207.106 368.981 207.066 369.061 206.986L374.701 202.226L380.421 206.986C380.501 207.066 380.621 207.106 380.741 207.106C380.901 207.106 381.101 207.026 381.181 206.866C381.301 206.746 381.341 206.586 381.341 206.466C381.341 206.266 381.221 206.066 381.101 205.946Z"></path></g><line stroke="#000000" stroke-width="1.2" x1="368.74099402323384" x2="368.74099402323384" y1="181.3461538461538" y2="236.3461538461538"></line><text font-family="Alegreya" font-size="22" text-anchor="middle" x="377.4609940232338" y="256.3461538461538">inverted triangle</text><text font-family="Alegreya" font-size="22" text-anchor="middle" x="377.4609940232338" y="256.3461538461538">circle-x</text><text font-family="Alegreya" font-size="22" text-anchor="middle" x="377.4609940232338" y="256.3461538461538">x</text></g><g><g><path d="M557.635 174.226C557.475 174.066 557.275 173.946 557.075 173.946C556.955 173.946 556.835 173.986 556.715 174.066L552.915 176.786C552.115 176.186 551.035 175.826 549.755 175.826C544.875 175.826 540.915 179.466 540.915 183.346C540.915 183.986 541.035 184.546 541.315 185.026L537.595 187.706C537.435 187.826 537.315 188.026 537.315 188.226C537.315 188.346 537.355 188.466 537.435 188.586C537.555 188.746 537.755 188.866 537.955 188.866C538.075 188.866 538.235 188.826 538.315 188.746L542.115 186.066C542.875 186.746 543.995 187.106 545.275 187.106C549.275 187.106 554.195 183.386 554.195 179.586C554.195 178.906 554.035 178.306 553.715 177.786L557.475 175.106C557.635 174.986 557.755 174.786 557.755 174.586C557.755 174.466 557.715 174.346 557.635 174.226Z"></path></g><g><path d="M554.195 196.946L547.475 181.346L540.915 196.946Z"></path></g><g><path d="M540.915 191.346L547.475 206.946L554.195 191.346Z"></path></g><line stroke="#000000" stroke-width="1.2" x1="541.5149910348507" x2="541.5149910348507" y1="183.3461538461538" y2="238.3461538461538"></line><text font-family="Alegreya" font-size="22" text-anchor="middle" x="549.3349910348506" y="256.3461538461538">slashed</text><text font-family="Alegreya" font-size="22" text-anchor="middle" x="549.3349910348506" y="256.3461538461538">arrow up</text><text font-family="Alegreya" font-size="22" text-anchor="middle" x="549.3349910348506" y="256.3461538461538">arrow down</text></g></g></svg>