<?xml version="1.0" encoding="UTF-8" standalone="no"?><svg xmlns="http://www.w3.org/2000/svg" height="279.4mm" viewBox="0 0 1328.6153846153845 1719.3846153846152" width="215.9mm"><text x="664.3076923076923" y="61.53846153846143"><tspan alignment-baseline="hanging" fill="black" direction="inherit" dx="0" dy="0" font-style="normal" font-weight="normal" font-family="Alegreya" font-size="29.30769230769231" letter-spacing="normal" text-decoration="none" text-anchor="middle">All MusicXML chord names/types with &lt;root&gt;</tspan></text><g transform="translate(93.84615384615385)"><g><g><line stroke="#6A6A6A" stroke-width="1.3" x1="0" x2="93.03686813186823" y1="183.8461538461538" y2="183.8461538461538"></line><line stroke="#6A6A6A" stroke-width="1.3" x1="0" x2="93.03686813186823" y1="173.8461538461538" y2="173.8461538461538"></line><line stroke="#6A6A6A" stroke-width="1.3" x1="0" x2="93.03686813186823" y1="163.8461538461538" y2="163.8461538461538"></line><line stroke="#6A6A6A" stroke-width="1.3" x1="0" x2="93.03686813186823" y1="153.8461538461538" y2="153.8461538461538"></line><line stroke="#6A6A6A" stroke-width="1.3" x1="0" x2="93.03686813186823" y1="143.8461538461538" y2="143.8461538461538"></line></g><g><path d="M25.200 129.926C24.640 129.926 23.400 130.966 22.600 131.846C19.640 135.126 18.680 140.126 18.680 144.286C18.680 146.606 18.960 149.206 19.240 150.846C19.320 151.326 19.360 151.406 18.880 151.806C16.320 153.926 13.560 156.366 11.480 158.926C8.720 162.366 7 166.086 7 170.366C7 177.326 11.760 183.926 21.560 183.926C22.480 183.926 23.520 183.846 24.320 183.686C24.760 183.606 24.840 183.566 24.920 184.046C25.400 186.726 26 190.206 26 192.086C26 198.006 22 198.726 19.640 198.726C17.480 198.726 16.440 198.086 16.440 197.566C16.440 197.126 16.800 197.166 17.720 196.886C18.960 196.526 20.400 195.446 20.400 193.126C20.400 190.926 19 189.046 16.560 189.046C13.880 189.046 12.280 191.166 12.280 193.646C12.280 196.246 13.840 200.166 19.880 200.166C22.560 200.166 27.760 198.966 27.760 192.166C27.760 189.886 27.040 186.086 26.600 183.606C26.520 183.126 26.560 183.166 27.120 182.926C31.160 181.326 33.840 177.926 33.840 173.406C33.840 168.286 30.080 163.766 24.200 163.766C23.080 163.766 23.200 163.966 23.040 163.046L22.040 157.246C21.960 156.766 22.040 156.726 22.280 156.486C22.920 155.886 23.760 155.046 24.520 154.206C27.880 150.526 29.880 145.766 29.880 141.246C29.880 137.766 28.920 134.326 27.280 131.926C26.680 131.046 25.640 129.926 25.200 129.926ZM20.040 158.086C20.440 157.766 20.520 157.806 20.600 158.246L21.440 163.366C21.560 164.126 21.560 164.086 20.840 164.326C17.320 165.526 15.040 168.686 15.040 172.086C15.040 175.686 16.920 178.246 19.640 179.166C19.960 179.286 20.440 179.406 20.720 179.406C21.040 179.406 21.200 179.206 21.200 178.966C21.200 178.686 20.880 178.566 20.600 178.446C18.920 177.726 17.720 176.006 17.720 174.166C17.720 171.886 19.280 170.166 21.720 169.486C22.360 169.326 22.440 169.366 22.520 169.806L24.520 181.726C24.600 182.166 24.560 182.166 23.960 182.286C23.320 182.406 22.520 182.486 21.720 182.486C14.720 182.486 10.200 178.606 10.200 173.046C10.200 170.686 10.600 167.526 13.920 163.766C16.320 161.086 18.160 159.606 20.040 158.086ZM24.640 169.166C27.880 169.446 30.560 172.166 30.560 175.686C30.560 178.206 29.040 180.246 26.800 181.366C26.320 181.606 26.240 181.606 26.160 181.126L24.200 169.726C24.120 169.246 24.160 169.126 24.640 169.166ZM25.800 136.126C27.120 136.126 28.200 137.206 28.200 139.406C28.200 142.166 26.880 144.726 23.760 147.846C23.120 148.486 22.160 149.406 21.240 150.206C20.960 150.446 20.800 150.406 20.720 149.886C20.560 148.846 20.480 147.486 20.480 146.206C20.480 139.966 23.360 136.126 25.800 136.126Z"></path></g><g></g><path d="M57.820 153.806C56.620 153.806 55.220 154.126 54.140 154.606C50.580 156.166 48.700 160.446 48.700 164.246C48.700 164.606 48.700 164.966 48.740 165.326C48.940 167.486 49.980 169.526 51.300 171.126C52.820 172.966 55.020 173.806 57.420 173.806C64.420 173.806 65.460 167.446 65.460 166.286C65.460 165.406 65.020 165.406 64.860 165.406C64.540 165.406 64.260 165.446 64.260 166.126C64.260 171.286 59.860 172.486 58.580 172.486C55.340 172.486 53.620 169.326 53.620 162.726C53.620 156.126 56.660 154.766 58.820 154.766C60.900 154.766 61.740 155.726 61.740 156.126C61.740 156.486 61.620 157.006 61.020 157.006C59.420 157.006 58.500 158.726 58.500 159.966C58.500 162.246 60.460 162.966 61.580 162.966C61.580 162.966 64.620 162.846 64.620 159.526C64.620 154.286 58.580 153.806 57.820 153.806Z"></path></g><g><line stroke="black" stroke-width="1.6" x1="93.83686813186823" x2="93.83686813186823" y1="143.8461538461538" y2="183.8461538461538"></line></g><g><g><path d="M93.360 199.486C97.360 199.486 102.280 195.766 102.280 191.966C102.280 189.686 100.480 188.206 97.880 188.206C92.960 188.206 89 191.846 89 195.726C89 198.086 90.920 199.486 93.360 199.486Z"></path></g><line stroke="#000000" stroke-width="1.2" x1="101.68" x2="101.68" y1="192.0061538461538" y2="157.0061538461538"></line><line stroke="#000000" stroke-width="2.2" x1="85.8" x2="107.72" y1="193.8461538461538" y2="193.8461538461538"></line><text font-family="Alegreya" font-size="22" text-anchor="middle" x="95.64" y="223.8461538461538">major</text></g><g><g><path d="M81.542 199.486C85.542 199.486 90.462 195.766 90.462 191.966C90.462 189.686 88.662 188.206 86.062 188.206C81.142 188.206 77.182 191.846 77.182 195.726C77.182 198.086 79.102 199.486 81.542 199.486Z"></path></g><line stroke="#000000" stroke-width="1.2" x1="89.86246703296707" x2="89.86246703296707" y1="192.0061538461538" y2="157.0061538461538"></line><line stroke="#000000" stroke-width="2.2" x1="73.98246703296707" x2="95.90246703296707" y1="193.8461538461538" y2="193.8461538461538"></line><text font-family="Alegreya" font-size="22" text-anchor="middle" x="83.82246703296707" y="223.8461538461538">minor</text></g><g><g><path d="M92.660 199.486C96.660 199.486 101.580 195.766 101.580 191.966C101.580 189.686 99.780 188.206 97.180 188.206C92.260 188.206 88.300 191.846 88.300 195.726C88.300 198.086 90.220 199.486 92.660 199.486Z"></path></g><line stroke="#000000" stroke-width="1.2" x1="100.97993406593415" x2="100.97993406593415" y1="192.0061538461538" y2="157.0061538461538"></line><line stroke="#000000" stroke-width="2.2" x1="85.09993406593414" x2="107.01993406593414" y1="193.8461538461538" y2="193.8461538461538"></line><text font-family="Alegreya" font-size="22" text-anchor="middle" x="94.93993406593414" y="223.8461538461538">augmented</text></g><g><g><path d="M125.634 199.486C129.634 199.486 134.554 195.766 134.554 191.966C134.554 189.686 132.754 188.206 130.154 188.206C125.234 188.206 121.274 191.846 121.274 195.726C121.274 198.086 123.194 199.486 125.634 199.486Z"></path></g><line stroke="#000000" stroke-width="1.2" x1="133.9544010989012" x2="133.9544010989012" y1="192.0061538461538" y2="157.0061538461538"></line><line stroke="#000000" stroke-width="2.2" x1="118.07440109890119" x2="139.9944010989012" y1="193.8461538461538" y2="193.8461538461538"></line><text font-family="Alegreya" font-size="22" text-anchor="middle" x="127.9144010989012" y="223.8461538461538">diminished</text></g></g><g transform="translate(203.48302197802207)"><g><g><line stroke="#6A6A6A" stroke-width="1.3" x1="-16.600000000000023" x2="193.4228681318682" y1="183.8461538461538" y2="183.8461538461538"></line><line stroke="#6A6A6A" stroke-width="1.3" x1="-16.600000000000023" x2="193.4228681318682" y1="173.8461538461538" y2="173.8461538461538"></line><line stroke="#6A6A6A" stroke-width="1.3" x1="-16.600000000000023" x2="193.4228681318682" y1="163.8461538461538" y2="163.8461538461538"></line><line stroke="#6A6A6A" stroke-width="1.3" x1="-16.600000000000023" x2="193.4228681318682" y1="153.8461538461538" y2="153.8461538461538"></line><line stroke="#6A6A6A" stroke-width="1.3" x1="-16.600000000000023" x2="193.4228681318682" y1="143.8461538461538" y2="143.8461538461538"></line></g></g><g><line stroke="black" stroke-width="1.6" x1="194.2228681318682" x2="194.2228681318682" y1="143.8461538461538" y2="183.8461538461538"></line></g><g><g><path d="M35.489 199.486C39.489 199.486 44.409 195.766 44.409 191.966C44.409 189.686 42.609 188.206 40.009 188.206C35.089 188.206 31.129 191.846 31.129 195.726C31.129 198.086 33.049 199.486 35.489 199.486Z"></path></g><line stroke="#000000" stroke-width="1.2" x1="43.80899999999999" x2="43.80899999999999" y1="192.0061538461538" y2="157.0061538461538"></line><line stroke="#000000" stroke-width="2.2" x1="27.92899999999999" x2="49.84899999999999" y1="193.8461538461538" y2="193.8461538461538"></line><text font-family="Alegreya" font-size="22" text-anchor="middle" x="37.76899999999999" y="223.8461538461538">dominant</text></g><g><g><path d="M77.648 199.486C81.648 199.486 86.568 195.766 86.568 191.966C86.568 189.686 84.768 188.206 82.168 188.206C77.248 188.206 73.288 191.846 73.288 195.726C73.288 198.086 75.208 199.486 77.648 199.486Z"></path></g><line stroke="#000000" stroke-width="1.2" x1="85.96846703296704" x2="85.96846703296704" y1="192.0061538461538" y2="157.0061538461538"></line><line stroke="#000000" stroke-width="2.2" x1="70.08846703296703" x2="92.00846703296703" y1="193.8461538461538" y2="193.8461538461538"></line><text font-family="Alegreya" font-size="22" text-anchor="middle" x="79.92846703296703" y="223.8461538461538">major-seventh</text></g><g><g><path d="M139.355 199.486C143.355 199.486 148.275 195.766 148.275 191.966C148.275 189.686 146.475 188.206 143.875 188.206C138.955 188.206 134.995 191.846 134.995 195.726C134.995 198.086 136.915 199.486 139.355 199.486Z"></path></g><line stroke="#000000" stroke-width="1.2" x1="147.67493406593408" x2="147.67493406593408" y1="192.0061538461538" y2="157.0061538461538"></line><line stroke="#000000" stroke-width="2.2" x1="131.7949340659341" x2="153.71493406593407" y1="193.8461538461538" y2="193.8461538461538"></line><text font-family="Alegreya" font-size="22" text-anchor="middle" x="141.6349340659341" y="223.8461538461538">minor-seventh</text></g><g><g><path d="M226.020 199.486C230.020 199.486 234.940 195.766 234.940 191.966C234.940 189.686 233.140 188.206 230.540 188.206C225.620 188.206 221.660 191.846 221.660 195.726C221.660 198.086 223.580 199.486 226.020 199.486Z"></path></g><line stroke="#000000" stroke-width="1.2" x1="234.3404010989011" x2="234.3404010989011" y1="192.0061538461538" y2="157.0061538461538"></line><line stroke="#000000" stroke-width="2.2" x1="218.46040109890112" x2="240.3804010989011" y1="193.8461538461538" y2="193.8461538461538"></line><text font-family="Alegreya" font-size="22" text-anchor="middle" x="228.3004010989011" y="223.8461538461538">diminished-seventh</text></g></g><g transform="translate(413.5058901098903)"><g><g><line stroke="#6A6A6A" stroke-width="1.3" x1="-16.599999999999966" x2="243.19786813186812" y1="183.8461538461538" y2="183.8461538461538"></line><line stroke="#6A6A6A" stroke-width="1.3" x1="-16.599999999999966" x2="243.19786813186812" y1="173.8461538461538" y2="173.8461538461538"></line><line stroke="#6A6A6A" stroke-width="1.3" x1="-16.599999999999966" x2="243.19786813186812" y1="163.8461538461538" y2="163.8461538461538"></line><line stroke="#6A6A6A" stroke-width="1.3" x1="-16.599999999999966" x2="243.19786813186812" y1="153.8461538461538" y2="153.8461538461538"></line><line stroke="#6A6A6A" stroke-width="1.3" x1="-16.599999999999966" x2="243.19786813186812" y1="143.8461538461538" y2="143.8461538461538"></line></g></g><g><line stroke="black" stroke-width="1.6" x1="243.9978681318682" x2="243.9978681318682" y1="143.8461538461538" y2="183.8461538461538"></line></g><g><g><path d="M78.257 199.486C82.257 199.486 87.177 195.766 87.177 191.966C87.177 189.686 85.377 188.206 82.777 188.206C77.857 188.206 73.897 191.846 73.897 195.726C73.897 198.086 75.817 199.486 78.257 199.486Z"></path></g><line stroke="#000000" stroke-width="1.2" x1="86.57699999999998" x2="86.57699999999998" y1="192.0061538461538" y2="157.0061538461538"></line><line stroke="#000000" stroke-width="2.2" x1="70.69699999999997" x2="92.61699999999998" y1="193.8461538461538" y2="193.8461538461538"></line><text font-family="Alegreya" font-size="22" text-anchor="middle" x="80.53699999999998" y="223.8461538461538">augmented-seventh</text></g><g><g><path d="M170.565 199.486C174.565 199.486 179.485 195.766 179.485 191.966C179.485 189.686 177.685 188.206 175.085 188.206C170.165 188.206 166.205 191.846 166.205 195.726C166.205 198.086 168.125 199.486 170.565 199.486Z"></path></g><line stroke="#000000" stroke-width="1.2" x1="178.88546703296703" x2="178.88546703296703" y1="192.0061538461538" y2="157.0061538461538"></line><line stroke="#000000" stroke-width="2.2" x1="163.00546703296703" x2="184.92546703296702" y1="193.8461538461538" y2="193.8461538461538"></line><text font-family="Alegreya" font-size="22" text-anchor="middle" x="172.845467032967" y="223.8461538461538">half-diminished</text></g><g><g><path d="M233.174 199.486C237.174 199.486 242.094 195.766 242.094 191.966C242.094 189.686 240.294 188.206 237.694 188.206C232.774 188.206 228.814 191.846 228.814 195.726C228.814 198.086 230.734 199.486 233.174 199.486Z"></path></g><line stroke="#000000" stroke-width="1.2" x1="241.49393406593404" x2="241.49393406593404" y1="192.0061538461538" y2="157.0061538461538"></line><line stroke="#000000" stroke-width="2.2" x1="225.61393406593405" x2="247.53393406593403" y1="193.8461538461538" y2="193.8461538461538"></line><text font-family="Alegreya" font-size="22" text-anchor="middle" x="235.45393406593405" y="223.8461538461538">major-minor</text></g><g><g><path d="M275.795 199.486C279.795 199.486 284.715 195.766 284.715 191.966C284.715 189.686 282.915 188.206 280.315 188.206C275.395 188.206 271.435 191.846 271.435 195.726C271.435 198.086 273.355 199.486 275.795 199.486Z"></path></g><line stroke="#000000" stroke-width="1.2" x1="284.1154010989011" x2="284.1154010989011" y1="192.0061538461538" y2="157.0061538461538"></line><line stroke="#000000" stroke-width="2.2" x1="268.2354010989011" x2="290.1554010989011" y1="193.8461538461538" y2="193.8461538461538"></line><text font-family="Alegreya" font-size="22" text-anchor="middle" x="278.07540109890107" y="223.8461538461538">major-sixth</text></g></g><g transform="translate(673.3037582417583)"><g><g><line stroke="#6A6A6A" stroke-width="1.3" x1="-16.600000000000023" x2="167.57286813186818" y1="183.8461538461538" y2="183.8461538461538"></line><line stroke="#6A6A6A" stroke-width="1.3" x1="-16.600000000000023" x2="167.57286813186818" y1="173.8461538461538" y2="173.8461538461538"></line><line stroke="#6A6A6A" stroke-width="1.3" x1="-16.600000000000023" x2="167.57286813186818" y1="163.8461538461538" y2="163.8461538461538"></line><line stroke="#6A6A6A" stroke-width="1.3" x1="-16.600000000000023" x2="167.57286813186818" y1="153.8461538461538" y2="153.8461538461538"></line><line stroke="#6A6A6A" stroke-width="1.3" x1="-16.600000000000023" x2="167.57286813186818" y1="143.8461538461538" y2="143.8461538461538"></line></g></g><g><line stroke="black" stroke-width="1.6" x1="168.3728681318682" x2="168.3728681318682" y1="143.8461538461538" y2="183.8461538461538"></line></g><g><g><path d="M42.430 199.486C46.430 199.486 51.350 195.766 51.350 191.966C51.350 189.686 49.550 188.206 46.950 188.206C42.030 188.206 38.070 191.846 38.070 195.726C38.070 198.086 39.990 199.486 42.430 199.486Z"></path></g><line stroke="#000000" stroke-width="1.2" x1="50.74999999999999" x2="50.74999999999999" y1="192.0061538461538" y2="157.0061538461538"></line><line stroke="#000000" stroke-width="2.2" x1="34.86999999999999" x2="56.78999999999999" y1="193.8461538461538" y2="193.8461538461538"></line><text font-family="Alegreya" font-size="22" text-anchor="middle" x="44.709999999999994" y="223.8461538461538">minor-sixth</text></g><g><g><path d="M99.681 199.486C103.681 199.486 108.601 195.766 108.601 191.966C108.601 189.686 106.801 188.206 104.201 188.206C99.281 188.206 95.321 191.846 95.321 195.726C95.321 198.086 97.241 199.486 99.681 199.486Z"></path></g><line stroke="#000000" stroke-width="1.2" x1="108.00146703296706" x2="108.00146703296706" y1="192.0061538461538" y2="157.0061538461538"></line><line stroke="#000000" stroke-width="2.2" x1="92.12146703296705" x2="114.04146703296705" y1="193.8461538461538" y2="193.8461538461538"></line><text font-family="Alegreya" font-size="22" text-anchor="middle" x="101.96146703296705" y="223.8461538461538">dominant-ninth</text></g><g><g><path d="M158.242 199.486C162.242 199.486 167.162 195.766 167.162 191.966C167.162 189.686 165.362 188.206 162.762 188.206C157.842 188.206 153.882 191.846 153.882 195.726C153.882 198.086 155.802 199.486 158.242 199.486Z"></path></g><line stroke="#000000" stroke-width="1.2" x1="166.56193406593408" x2="166.56193406593408" y1="192.0061538461538" y2="157.0061538461538"></line><line stroke="#000000" stroke-width="2.2" x1="150.6819340659341" x2="172.60193406593407" y1="193.8461538461538" y2="193.8461538461538"></line><text font-family="Alegreya" font-size="22" text-anchor="middle" x="160.5219340659341" y="223.8461538461538">major-ninth</text></g><g><g><path d="M200.170 199.486C204.170 199.486 209.090 195.766 209.090 191.966C209.090 189.686 207.290 188.206 204.690 188.206C199.770 188.206 195.810 191.846 195.810 195.726C195.810 198.086 197.730 199.486 200.170 199.486Z"></path></g><line stroke="#000000" stroke-width="1.2" x1="208.4904010989011" x2="208.4904010989011" y1="192.0061538461538" y2="157.0061538461538"></line><line stroke="#000000" stroke-width="2.2" x1="192.6104010989011" x2="214.53040109890108" y1="193.8461538461538" y2="193.8461538461538"></line><text font-family="Alegreya" font-size="22" text-anchor="middle" x="202.45040109890107" y="223.8461538461538">minor-ninth</text></g></g><g transform="translate(857.4766263736267)"><g><g><line stroke="#6A6A6A" stroke-width="1.3" x1="-16.59999999999991" x2="136.56386813186828" y1="183.8461538461538" y2="183.8461538461538"></line><line stroke="#6A6A6A" stroke-width="1.3" x1="-16.59999999999991" x2="136.56386813186828" y1="173.8461538461538" y2="173.8461538461538"></line><line stroke="#6A6A6A" stroke-width="1.3" x1="-16.59999999999991" x2="136.56386813186828" y1="163.8461538461538" y2="163.8461538461538"></line><line stroke="#6A6A6A" stroke-width="1.3" x1="-16.59999999999991" x2="136.56386813186828" y1="153.8461538461538" y2="153.8461538461538"></line><line stroke="#6A6A6A" stroke-width="1.3" x1="-16.59999999999991" x2="136.56386813186828" y1="143.8461538461538" y2="143.8461538461538"></line></g></g><g><line stroke="black" stroke-width="1.6" x1="137.36386813186834" x2="137.36386813186834" y1="143.8461538461538" y2="183.8461538461538"></line></g><g><g><path d="M54.101 199.486C58.101 199.486 63.021 195.766 63.021 191.966C63.021 189.686 61.221 188.206 58.621 188.206C53.701 188.206 49.741 191.846 49.741 195.726C49.741 198.086 51.661 199.486 54.101 199.486Z"></path></g><line stroke="#000000" stroke-width="1.2" x1="62.420999999999985" x2="62.420999999999985" y1="192.0061538461538" y2="157.0061538461538"></line><line stroke="#000000" stroke-width="2.2" x1="46.54099999999998" x2="68.46099999999998" y1="193.8461538461538" y2="193.8461538461538"></line><text font-family="Alegreya" font-size="22" text-anchor="middle" x="56.380999999999986" y="223.8461538461538">dominant-11th</text></g><g><g><path d="M97.305 199.486C101.305 199.486 106.225 195.766 106.225 191.966C106.225 189.686 104.425 188.206 101.825 188.206C96.905 188.206 92.945 191.846 92.945 195.726C92.945 198.086 94.865 199.486 97.305 199.486Z"></path></g><line stroke="#000000" stroke-width="1.2" x1="105.62546703296705" x2="105.62546703296705" y1="192.0061538461538" y2="157.0061538461538"></line><line stroke="#000000" stroke-width="2.2" x1="89.74546703296704" x2="111.66546703296704" y1="193.8461538461538" y2="193.8461538461538"></line><text font-family="Alegreya" font-size="22" text-anchor="middle" x="99.58546703296705" y="223.8461538461538">major-11th</text></g><g><g><path d="M123.878 199.486C127.878 199.486 132.798 195.766 132.798 191.966C132.798 189.686 130.998 188.206 128.398 188.206C123.478 188.206 119.518 191.846 119.518 195.726C119.518 198.086 121.438 199.486 123.878 199.486Z"></path></g><line stroke="#000000" stroke-width="1.2" x1="132.19793406593413" x2="132.19793406593413" y1="192.0061538461538" y2="157.0061538461538"></line><line stroke="#000000" stroke-width="2.2" x1="116.31793406593412" x2="138.23793406593413" y1="193.8461538461538" y2="193.8461538461538"></line><text font-family="Alegreya" font-size="22" text-anchor="middle" x="126.15793406593413" y="223.8461538461538">minor-11th</text></g><g><g><path d="M169.161 199.486C173.161 199.486 178.081 195.766 178.081 191.966C178.081 189.686 176.281 188.206 173.681 188.206C168.761 188.206 164.801 191.846 164.801 195.726C164.801 198.086 166.721 199.486 169.161 199.486Z"></path></g><line stroke="#000000" stroke-width="1.2" x1="177.4814010989012" x2="177.4814010989012" y1="192.0061538461538" y2="157.0061538461538"></line><line stroke="#000000" stroke-width="2.2" x1="161.6014010989012" x2="183.52140109890118" y1="193.8461538461538" y2="193.8461538461538"></line><text font-family="Alegreya" font-size="22" text-anchor="middle" x="171.44140109890117" y="223.8461538461538">dominant-13th</text></g></g><g transform="translate(1010.6404945054951)"><g><g><line stroke="#6A6A6A" stroke-width="1.3" x1="-16.600000000000023" x2="189.66086813186814" y1="183.8461538461538" y2="183.8461538461538"></line><line stroke="#6A6A6A" stroke-width="1.3" x1="-16.600000000000023" x2="189.66086813186814" y1="173.8461538461538" y2="173.8461538461538"></line><line stroke="#6A6A6A" stroke-width="1.3" x1="-16.600000000000023" x2="189.66086813186814" y1="163.8461538461538" y2="163.8461538461538"></line><line stroke="#6A6A6A" stroke-width="1.3" x1="-16.600000000000023" x2="189.66086813186814" y1="153.8461538461538" y2="153.8461538461538"></line><line stroke="#6A6A6A" stroke-width="1.3" x1="-16.600000000000023" x2="189.66086813186814" y1="143.8461538461538" y2="143.8461538461538"></line></g></g><g><line stroke="black" stroke-width="1.6" x1="190.4608681318682" x2="190.4608681318682" y1="143.8461538461538" y2="183.8461538461538"></line></g><g><g><path d="M36.732 199.486C40.732 199.486 45.652 195.766 45.652 191.966C45.652 189.686 43.852 188.206 41.252 188.206C36.332 188.206 32.372 191.846 32.372 195.726C32.372 198.086 34.292 199.486 36.732 199.486Z"></path></g><line stroke="#000000" stroke-width="1.2" x1="45.051999999999985" x2="45.051999999999985" y1="192.0061538461538" y2="157.0061538461538"></line><line stroke="#000000" stroke-width="2.2" x1="29.171999999999986" x2="51.091999999999985" y1="193.8461538461538" y2="193.8461538461538"></line><text font-family="Alegreya" font-size="22" text-anchor="middle" x="39.011999999999986" y="223.8461538461538">major-13th</text></g><g><g><path d="M64.646 199.486C68.646 199.486 73.566 195.766 73.566 191.966C73.566 189.686 71.766 188.206 69.166 188.206C64.246 188.206 60.286 191.846 60.286 195.726C60.286 198.086 62.206 199.486 64.646 199.486Z"></path></g><line stroke="#000000" stroke-width="1.2" x1="72.96646703296705" x2="72.96646703296705" y1="192.0061538461538" y2="157.0061538461538"></line><line stroke="#000000" stroke-width="2.2" x1="57.086467032967036" x2="79.00646703296704" y1="193.8461538461538" y2="193.8461538461538"></line><text font-family="Alegreya" font-size="22" text-anchor="middle" x="66.92646703296704" y="223.8461538461538">minor-13th</text></g><g><g><path d="M127.882 199.486C131.882 199.486 136.802 195.766 136.802 191.966C136.802 189.686 135.002 188.206 132.402 188.206C127.482 188.206 123.522 191.846 123.522 195.726C123.522 198.086 125.442 199.486 127.882 199.486Z"></path></g><line stroke="#000000" stroke-width="1.2" x1="136.20193406593407" x2="136.20193406593407" y1="192.0061538461538" y2="157.0061538461538"></line><line stroke="#000000" stroke-width="2.2" x1="120.32193406593406" x2="142.24193406593406" y1="193.8461538461538" y2="193.8461538461538"></line><text font-family="Alegreya" font-size="22" text-anchor="middle" x="130.16193406593408" y="223.8461538461538">suspended-second</text></g><g><g><path d="M222.258 199.486C226.258 199.486 231.178 195.766 231.178 191.966C231.178 189.686 229.378 188.206 226.778 188.206C221.858 188.206 217.898 191.846 217.898 195.726C217.898 198.086 219.818 199.486 222.258 199.486Z"></path></g><line stroke="#000000" stroke-width="1.2" x1="230.5784010989011" x2="230.5784010989011" y1="192.0061538461538" y2="157.0061538461538"></line><line stroke="#000000" stroke-width="2.2" x1="214.69840109890112" x2="236.6184010989011" y1="193.8461538461538" y2="193.8461538461538"></line><text font-family="Alegreya" font-size="22" text-anchor="middle" x="224.5384010989011" y="223.8461538461538">suspended-fourth</text></g></g><g transform="translate(1216.9013626373633)"><g><g><line stroke="#6A6A6A" stroke-width="1.3" x1="-16.600000000000136" x2="17.867868131868363" y1="183.8461538461538" y2="183.8461538461538"></line><line stroke="#6A6A6A" stroke-width="1.3" x1="-16.600000000000136" x2="17.867868131868363" y1="173.8461538461538" y2="173.8461538461538"></line><line stroke="#6A6A6A" stroke-width="1.3" x1="-16.600000000000136" x2="17.867868131868363" y1="163.8461538461538" y2="163.8461538461538"></line><line stroke="#6A6A6A" stroke-width="1.3" x1="-16.600000000000136" x2="17.867868131868363" y1="153.8461538461538" y2="153.8461538461538"></line><line stroke="#6A6A6A" stroke-width="1.3" x1="-16.600000000000136" x2="17.867868131868363" y1="143.8461538461538" y2="143.8461538461538"></line></g></g><g><line stroke="black" stroke-width="1.6" x1="17.067868131868284" x2="17.067868131868284" y1="143.8461538461538" y2="183.8461538461538"></line></g><g><g><path d="M38.151 199.486C42.151 199.486 47.071 195.766 47.071 191.966C47.071 189.686 45.271 188.206 42.671 188.206C37.751 188.206 33.791 191.846 33.791 195.726C33.791 198.086 35.711 199.486 38.151 199.486Z"></path></g><line stroke="#000000" stroke-width="1.2" x1="46.47099999999999" x2="46.47099999999999" y1="192.0061538461538" y2="157.0061538461538"></line><line stroke="#000000" stroke-width="2.2" x1="30.59099999999999" x2="52.51099999999998" y1="193.8461538461538" y2="193.8461538461538"></line><text font-family="Alegreya" font-size="22" text-anchor="middle" x="40.43099999999999" y="223.8461538461538">Neapolitan</text></g><g><g><path d="M53.525 199.486C57.525 199.486 62.445 195.766 62.445 191.966C62.445 189.686 60.645 188.206 58.045 188.206C53.125 188.206 49.165 191.846 49.165 195.726C49.165 198.086 51.085 199.486 53.525 199.486Z"></path></g><line stroke="#000000" stroke-width="1.2" x1="61.84546703296704" x2="61.84546703296704" y1="192.0061538461538" y2="157.0061538461538"></line><line stroke="#000000" stroke-width="2.2" x1="45.96546703296704" x2="67.88546703296704" y1="193.8461538461538" y2="193.8461538461538"></line><text font-family="Alegreya" font-size="22" text-anchor="middle" x="55.805467032967044" y="223.8461538461538">Italians</text></g><g><g><path d="M50.728 199.486C54.728 199.486 59.648 195.766 59.648 191.966C59.648 189.686 57.848 188.206 55.248 188.206C50.328 188.206 46.368 191.846 46.368 195.726C46.368 198.086 48.288 199.486 50.728 199.486Z"></path></g><line stroke="#000000" stroke-width="1.2" x1="59.04793406593412" x2="59.04793406593412" y1="192.0061538461538" y2="157.0061538461538"></line><line stroke="#000000" stroke-width="2.2" x1="43.16793406593412" x2="65.08793406593412" y1="193.8461538461538" y2="193.8461538461538"></line><text font-family="Alegreya" font-size="22" text-anchor="middle" x="53.00793406593412" y="223.8461538461538">French</text></g><g><g><path d="M48.865 199.486C52.865 199.486 57.785 195.766 57.785 191.966C57.785 189.686 55.985 188.206 53.385 188.206C48.465 188.206 44.505 191.846 44.505 195.726C44.505 198.086 46.425 199.486 48.865 199.486Z"></path></g><line stroke="#000000" stroke-width="1.2" x1="57.18540109890119" x2="57.18540109890119" y1="192.0061538461538" y2="157.0061538461538"></line><line stroke="#000000" stroke-width="2.2" x1="41.305401098901186" x2="63.22540109890119" y1="193.8461538461538" y2="193.8461538461538"></line><text font-family="Alegreya" font-size="22" text-anchor="middle" x="51.14540109890119" y="223.8461538461538">German</text></g></g><g transform="translate(93.84615384615385)"><g><g><line stroke="#6A6A6A" stroke-width="1.3" x1="0" x2="367.72363974896876" y1="319.8461538461538" y2="319.8461538461538"></line><line stroke="#6A6A6A" stroke-width="1.3" x1="0" x2="367.72363974896876" y1="309.8461538461538" y2="309.8461538461538"></line><line stroke="#6A6A6A" stroke-width="1.3" x1="0" x2="367.72363974896876" y1="299.8461538461538" y2="299.8461538461538"></line><line stroke="#6A6A6A" stroke-width="1.3" x1="0" x2="367.72363974896876" y1="289.8461538461538" y2="289.8461538461538"></line><line stroke="#6A6A6A" stroke-width="1.3" x1="0" x2="367.72363974896876" y1="279.8461538461538" y2="279.8461538461538"></line></g><g><path d="M25.200 265.926C24.640 265.926 23.400 266.966 22.600 267.846C19.640 271.126 18.680 276.126 18.680 280.286C18.680 282.606 18.960 285.206 19.240 286.846C19.320 287.326 19.360 287.406 18.880 287.806C16.320 289.926 13.560 292.366 11.480 294.926C8.720 298.366 7 302.086 7 306.366C7 313.326 11.760 319.926 21.560 319.926C22.480 319.926 23.520 319.846 24.320 319.686C24.760 319.606 24.840 319.566 24.920 320.046C25.400 322.726 26 326.206 26 328.086C26 334.006 22 334.726 19.640 334.726C17.480 334.726 16.440 334.086 16.440 333.566C16.440 333.126 16.800 333.166 17.720 332.886C18.960 332.526 20.400 331.446 20.400 329.126C20.400 326.926 19 325.046 16.560 325.046C13.880 325.046 12.280 327.166 12.280 329.646C12.280 332.246 13.840 336.166 19.880 336.166C22.560 336.166 27.760 334.966 27.760 328.166C27.760 325.886 27.040 322.086 26.600 319.606C26.520 319.126 26.560 319.166 27.120 318.926C31.160 317.326 33.840 313.926 33.840 309.406C33.840 304.286 30.080 299.766 24.200 299.766C23.080 299.766 23.200 299.966 23.040 299.046L22.040 293.246C21.960 292.766 22.040 292.726 22.280 292.486C22.920 291.886 23.760 291.046 24.520 290.206C27.880 286.526 29.880 281.766 29.880 277.246C29.880 273.766 28.920 270.326 27.280 267.926C26.680 267.046 25.640 265.926 25.200 265.926ZM20.040 294.086C20.440 293.766 20.520 293.806 20.600 294.246L21.440 299.366C21.560 300.126 21.560 300.086 20.840 300.326C17.320 301.526 15.040 304.686 15.040 308.086C15.040 311.686 16.920 314.246 19.640 315.166C19.960 315.286 20.440 315.406 20.720 315.406C21.040 315.406 21.200 315.206 21.200 314.966C21.200 314.686 20.880 314.566 20.600 314.446C18.920 313.726 17.720 312.006 17.720 310.166C17.720 307.886 19.280 306.166 21.720 305.486C22.360 305.326 22.440 305.366 22.520 305.806L24.520 317.726C24.600 318.166 24.560 318.166 23.960 318.286C23.320 318.406 22.520 318.486 21.720 318.486C14.720 318.486 10.200 314.606 10.200 309.046C10.200 306.686 10.600 303.526 13.920 299.766C16.320 297.086 18.160 295.606 20.040 294.086ZM24.640 305.166C27.880 305.446 30.560 308.166 30.560 311.686C30.560 314.206 29.040 316.246 26.800 317.366C26.320 317.606 26.240 317.606 26.160 317.126L24.200 305.726C24.120 305.246 24.160 305.126 24.640 305.166ZM25.800 272.126C27.120 272.126 28.200 273.206 28.200 275.406C28.200 278.166 26.880 280.726 23.760 283.846C23.120 284.486 22.160 285.406 21.240 286.206C20.960 286.446 20.800 286.406 20.720 285.886C20.560 284.846 20.480 283.486 20.480 282.206C20.480 275.966 23.360 272.126 25.800 272.126Z"></path></g><g></g><text font-family='Alegreya' font-style='italic' text-anchor='end' stroke='#7a7a7a' font-size="24" x="0" y="269.8461538461538">8</text></g><g><line stroke="black" stroke-width="1.6" x1="368.5236397489688" x2="368.5236397489688" y1="279.8461538461538" y2="319.8461538461538"></line></g><g><g><path d="M52.860 335.486C56.860 335.486 61.780 331.766 61.780 327.966C61.780 325.686 59.980 324.206 57.380 324.206C52.460 324.206 48.500 327.846 48.500 331.726C48.500 334.086 50.420 335.486 52.860 335.486Z"></path></g><line stroke="#000000" stroke-width="1.2" x1="61.18" x2="61.18" y1="328.00615384615384" y2="293.00615384615384"></line><line stroke="#000000" stroke-width="2.2" x1="45.3" x2="67.22" y1="329.8461538461538" y2="329.8461538461538"></line><text font-family="Alegreya" font-size="22" text-anchor="middle" x="55.14" y="359.8461538461538">pedal</text></g><g><g><path d="M132.401 335.486C136.401 335.486 141.321 331.766 141.321 327.966C141.321 325.686 139.521 324.206 136.921 324.206C132.001 324.206 128.041 327.846 128.041 331.726C128.041 334.086 129.961 335.486 132.401 335.486Z"></path></g><line stroke="#000000" stroke-width="1.2" x1="140.72094020116182" x2="140.72094020116182" y1="328.00615384615384" y2="293.00615384615384"></line><line stroke="#000000" stroke-width="2.2" x1="124.84094020116181" x2="146.76094020116182" y1="329.8461538461538" y2="329.8461538461538"></line><text font-family="Alegreya" font-size="22" text-anchor="middle" x="134.68094020116183" y="359.8461538461538">power</text></g><g><g><path d="M213.002 335.486C217.002 335.486 221.922 331.766 221.922 327.966C221.922 325.686 220.122 324.206 217.522 324.206C212.602 324.206 208.642 327.846 208.642 331.726C208.642 334.086 210.562 335.486 213.002 335.486Z"></path></g><line stroke="#000000" stroke-width="1.2" x1="221.32175934664514" x2="221.32175934664514" y1="328.00615384615384" y2="293.00615384615384"></line><line stroke="#000000" stroke-width="2.2" x1="205.44175934664514" x2="227.36175934664513" y1="329.8461538461538" y2="329.8461538461538"></line><text font-family="Alegreya" font-size="22" text-anchor="middle" x="215.28175934664512" y="359.8461538461538">Tristan</text></g><g><g><path d="M292.543 335.486C296.543 335.486 301.463 331.766 301.463 327.966C301.463 325.686 299.663 324.206 297.063 324.206C292.143 324.206 288.183 327.846 288.183 331.726C288.183 334.086 290.103 335.486 292.543 335.486Z"></path></g><line stroke="#000000" stroke-width="1.2" x1="300.8626995478069" x2="300.8626995478069" y1="328.00615384615384" y2="293.00615384615384"></line><line stroke="#000000" stroke-width="2.2" x1="284.98269954780693" x2="306.90269954780695" y1="329.8461538461538" y2="329.8461538461538"></line><text font-family="Alegreya" font-size="22" text-anchor="middle" x="294.8226995478069" y="359.8461538461538">other</text></g></g><g transform="translate(478.16979359512266)"><g><g><line stroke="#6A6A6A" stroke-width="1.3" x1="-16.60000000000008" x2="328.2047490049006" y1="319.8461538461538" y2="319.8461538461538"></line><line stroke="#6A6A6A" stroke-width="1.3" x1="-16.60000000000008" x2="328.2047490049006" y1="309.8461538461538" y2="309.8461538461538"></line><line stroke="#6A6A6A" stroke-width="1.3" x1="-16.60000000000008" x2="328.2047490049006" y1="299.8461538461538" y2="299.8461538461538"></line><line stroke="#6A6A6A" stroke-width="1.3" x1="-16.60000000000008" x2="328.2047490049006" y1="289.8461538461538" y2="289.8461538461538"></line><line stroke="#6A6A6A" stroke-width="1.3" x1="-16.60000000000008" x2="328.2047490049006" y1="279.8461538461538" y2="279.8461538461538"></line></g></g><g><line stroke="black" stroke-width="1.6" x1="329.0047490049006" x2="329.0047490049006" y1="279.8461538461538" y2="319.8461538461538"></line></g><g><g><path d="M31.671 335.646C39.311 335.646 40.831 329.446 40.831 327.926C40.831 325.566 38.951 324.046 36.271 324.046C29.351 324.046 27.191 329.406 27.191 331.806C27.191 334.246 29.151 335.646 31.671 335.646ZM35.191 331.966C33.111 333.366 31.671 333.846 30.671 333.846C29.711 333.846 29.151 333.366 28.831 332.806C28.671 332.526 28.551 332.206 28.551 331.886C28.551 330.886 29.551 329.606 32.751 327.766C35.031 326.446 36.471 325.966 37.431 325.966C38.311 325.966 38.791 326.366 39.111 326.926C39.271 327.206 39.391 327.486 39.391 327.806C39.391 328.726 38.431 329.846 35.191 331.966Z"></path></g><line stroke="#000000" stroke-width="1.2" x1="40.230999999999995" x2="40.230999999999995" y1="327.9261538461538" y2="292.9261538461538"></line><line stroke="#000000" stroke-width="2.2" x1="23.990999999999996" x2="46.43099999999999" y1="329.8461538461538" y2="329.8461538461538"></line><text font-family="Alegreya" font-size="22" text-anchor="middle" x="34.010999999999996" y="359.8461538461538">Inversion</text></g><g><g><path d="M142.836 335.486C146.836 335.486 151.756 331.766 151.756 327.966C151.756 325.686 149.956 324.206 147.356 324.206C142.436 324.206 138.476 327.846 138.476 331.726C138.476 334.086 140.396 335.486 142.836 335.486Z"></path></g><line stroke="#000000" stroke-width="1.2" x1="151.15595200090843" x2="151.15595200090843" y1="328.00615384615384" y2="293.00615384615384"></line><line stroke="#000000" stroke-width="2.2" x1="135.27595200090843" x2="157.19595200090842" y1="329.8461538461538" y2="329.8461538461538"></line><g><polygon fill="black" points="151.15595200090843,297.8461538461538 213.5468804023236,297.8461538461538 213.5468804023236,292.8461538461538 151.15595200090843,292.8461538461538" stroke="black" stroke-width="0"></polygon></g><text font-family="Alegreya" font-size="22" text-anchor="middle" x="145.1159520009084" y="359.8461538461538">Fbb/C</text></g><g><g><path d="M205.227 335.486C209.227 335.486 214.147 331.766 214.147 327.966C214.147 325.686 212.347 324.206 209.747 324.206C204.827 324.206 200.867 327.846 200.867 331.726C200.867 334.086 202.787 335.486 205.227 335.486Z"></path></g><line stroke="#000000" stroke-width="1.2" x1="213.5468804023236" x2="213.5468804023236" y1="328.00615384615384" y2="293.00615384615384"></line><line stroke="#000000" stroke-width="2.2" x1="197.6668804023236" x2="219.5868804023236" y1="329.8461538461538" y2="329.8461538461538"></line><text font-family="Alegreya" font-size="22" text-anchor="middle" x="207.5068804023236" y="359.8461538461538">G#/D#</text></g><g><path d="M257.984 306.286C256.464 304.446 255.224 302.966 255.224 300.726C255.224 300.566 255.264 300.366 255.264 300.206C255.424 297.886 256.864 295.966 257.904 294.326C258.024 294.126 258.064 293.926 258.064 293.726C258.064 293.326 257.904 292.966 257.904 292.966C257.904 292.966 251.984 285.926 251.304 285.246C251.104 285.046 250.824 284.926 250.584 284.926C250.184 284.926 249.784 285.206 249.784 285.766C249.784 285.966 249.824 286.166 249.944 286.406C250.104 286.846 252.384 288.886 252.384 291.766C252.384 293.246 251.784 294.966 249.984 296.846C249.584 297.246 249.424 297.686 249.424 298.006C249.424 298.566 249.824 298.966 249.824 298.966L251.784 301.366C252.424 302.166 252.984 302.926 253.504 303.766C253.584 303.926 253.744 304.126 253.744 304.326C253.744 304.366 253.744 304.446 253.704 304.486C253.624 304.646 253.464 304.686 253.264 304.686C253.024 304.686 252.784 304.606 252.624 304.566C252.424 304.566 252.184 304.446 251.984 304.446C250.264 304.446 248.704 306.166 248.704 308.286C248.704 310.286 250.424 312.246 253.344 314.486C253.664 314.726 254.064 314.846 254.384 314.846C254.664 314.846 254.944 314.766 254.984 314.606C255.024 314.486 255.064 314.406 255.064 314.326C255.064 313.966 254.744 313.646 254.424 313.366C253.904 313.366 253.464 312.286 253.384 311.926C253.264 311.606 253.224 311.246 253.224 310.886C253.224 309.646 253.824 308.246 255.104 308.006C255.304 307.966 255.504 307.966 255.744 307.966C256.904 307.966 258.224 308.406 258.864 308.646C258.904 308.646 258.944 308.686 258.984 308.686C259.104 308.726 259.184 308.726 259.264 308.726C259.384 308.726 259.464 308.686 259.464 308.566C259.464 308.086 258.424 306.766 257.984 306.286Z"></path></g></g><g transform="translate(822.9745426000233)"><g><g><line stroke="#6A6A6A" stroke-width="1.3" x1="-16.600000000000023" x2="131.67068488477514" y1="319.8461538461538" y2="319.8461538461538"></line><line stroke="#6A6A6A" stroke-width="1.3" x1="-16.600000000000023" x2="131.67068488477514" y1="309.8461538461538" y2="309.8461538461538"></line><line stroke="#6A6A6A" stroke-width="1.3" x1="-16.600000000000023" x2="131.67068488477514" y1="299.8461538461538" y2="299.8461538461538"></line><line stroke="#6A6A6A" stroke-width="1.3" x1="-16.600000000000023" x2="131.67068488477514" y1="289.8461538461538" y2="289.8461538461538"></line><line stroke="#6A6A6A" stroke-width="1.3" x1="-16.600000000000023" x2="131.67068488477514" y1="279.8461538461538" y2="279.8461538461538"></line></g></g><g><line stroke="#000000" stroke-width="1.6" x1="121.87068488477512" x2="121.87068488477512" y1="279.8461538461538" y2="319.8461538461538"></line><line stroke="#000000" stroke-width="5" x1="129.1706848847751" x2="129.1706848847751" y1="279.8461538461538" y2="319.8461538461538"></line></g><g><g><path d="M19.704 335.486C23.704 335.486 28.624 331.766 28.624 327.966C28.624 325.686 26.824 324.206 24.224 324.206C19.304 324.206 15.344 327.846 15.344 331.726C15.344 334.086 17.264 335.486 19.704 335.486Z"></path></g><line stroke="#000000" stroke-width="1.2" x1="28.023999999999994" x2="28.023999999999994" y1="328.00615384615384" y2="293.00615384615384"></line><line stroke="#000000" stroke-width="2.2" x1="12.143999999999995" x2="34.06399999999999" y1="329.8461538461538" y2="329.8461538461538"></line><text font-family="Alegreya" font-size="22" text-anchor="middle" x="21.983999999999995" y="359.8461538461538">C-3+5b</text></g><g><g><path d="M73.009 335.486C77.009 335.486 81.929 331.766 81.929 327.966C81.929 325.686 80.129 324.206 77.529 324.206C72.609 324.206 68.649 327.846 68.649 331.726C68.649 334.086 70.569 335.486 73.009 335.486Z"></path></g><line stroke="#000000" stroke-width="1.2" x1="81.32928191454832" x2="81.32928191454832" y1="328.00615384615384" y2="293.00615384615384"></line><line stroke="#000000" stroke-width="2.2" x1="65.44928191454831" x2="87.36928191454831" y1="329.8461538461538" y2="329.8461538461538"></line><text font-family="Alegreya" font-size="22" text-anchor="middle" x="75.28928191454831" y="359.8461538461538">C-1+6b</text></g></g></svg>