<?xml version="1.0" encoding="UTF-8" standalone="no"?><svg xmlns="http://www.w3.org/2000/svg" height="279.4mm" viewBox="0 0 1328.6153846153845 1719.3846153846152" width="215.9mm"><g transform="translate(163.84615384615387)"><g><g><line stroke="#6A6A6A" stroke-width="1.3" x1="0" x2="127.39579856635919" y1="216.3461538461538" y2="216.3461538461538"></line><line stroke="#6A6A6A" stroke-width="1.3" x1="0" x2="127.39579856635919" y1="206.3461538461538" y2="206.3461538461538"></line><line stroke="#6A6A6A" stroke-width="1.3" x1="0" x2="127.39579856635919" y1="196.3461538461538" y2="196.3461538461538"></line><line stroke="#6A6A6A" stroke-width="1.3" x1="0" x2="127.39579856635919" y1="186.3461538461538" y2="186.3461538461538"></line><line stroke="#6A6A6A" stroke-width="1.3" x1="0" x2="127.39579856635919" y1="176.3461538461538" y2="176.3461538461538"></line></g><g><path d="M25.200 162.426C24.640 162.426 23.400 163.466 22.600 164.346C19.640 167.626 18.680 172.626 18.680 176.786C18.680 179.106 18.960 181.706 19.240 183.346C19.320 183.826 19.360 183.906 18.880 184.306C16.320 186.426 13.560 188.866 11.480 191.426C8.720 194.866 7 198.586 7 202.866C7 209.826 11.760 216.426 21.560 216.426C22.480 216.426 23.520 216.346 24.320 216.186C24.760 216.106 24.840 216.066 24.920 216.546C25.400 219.226 26 222.706 26 224.586C26 230.506 22 231.226 19.640 231.226C17.480 231.226 16.440 230.586 16.440 230.066C16.440 229.626 16.800 229.666 17.720 229.386C18.960 229.026 20.400 227.946 20.400 225.626C20.400 223.426 19 221.546 16.560 221.546C13.880 221.546 12.280 223.666 12.280 226.146C12.280 228.746 13.840 232.666 19.880 232.666C22.560 232.666 27.760 231.466 27.760 224.666C27.760 222.386 27.040 218.586 26.600 216.106C26.520 215.626 26.560 215.666 27.120 215.426C31.160 213.826 33.840 210.426 33.840 205.906C33.840 200.786 30.080 196.266 24.200 196.266C23.080 196.266 23.200 196.466 23.040 195.546L22.040 189.746C21.960 189.266 22.040 189.226 22.280 188.986C22.920 188.386 23.760 187.546 24.520 186.706C27.880 183.026 29.880 178.266 29.880 173.746C29.880 170.266 28.920 166.826 27.280 164.426C26.680 163.546 25.640 162.426 25.200 162.426M20.040 190.586C20.440 190.266 20.520 190.306 20.600 190.746L21.440 195.866C21.560 196.626 21.560 196.586 20.840 196.826C17.320 198.026 15.040 201.186 15.040 204.586C15.040 208.186 16.920 210.746 19.640 211.666C19.960 211.786 20.440 211.906 20.720 211.906C21.040 211.906 21.200 211.706 21.200 211.466C21.200 211.186 20.880 211.066 20.600 210.946C18.920 210.226 17.720 208.506 17.720 206.666C17.720 204.386 19.280 202.666 21.720 201.986C22.360 201.826 22.440 201.866 22.520 202.306L24.520 214.226C24.600 214.666 24.560 214.666 23.960 214.786C23.320 214.906 22.520 214.986 21.720 214.986C14.720 214.986 10.200 211.106 10.200 205.546C10.200 203.186 10.600 200.026 13.920 196.266C16.320 193.586 18.160 192.106 20.040 190.586M24.640 201.666C27.880 201.946 30.560 204.666 30.560 208.186C30.560 210.706 29.040 212.746 26.800 213.866C26.320 214.106 26.240 214.106 26.160 213.626L24.200 202.226C24.120 201.746 24.160 201.626 24.640 201.666M25.800 168.626C27.120 168.626 28.200 169.706 28.200 171.906C28.200 174.666 26.880 177.226 23.760 180.346C23.120 180.986 22.160 181.906 21.240 182.706C20.960 182.946 20.800 182.906 20.720 182.386C20.560 181.346 20.480 179.986 20.480 178.706C20.480 172.466 23.360 168.626 25.800 168.626"></path></g><g></g><path d="M57.820 186.306C56.620 186.306 55.220 186.626 54.140 187.106C50.580 188.666 48.700 192.946 48.700 196.746C48.700 197.106 48.700 197.466 48.740 197.826C48.940 199.986 49.980 202.026 51.300 203.626C52.820 205.466 55.020 206.306 57.420 206.306C64.420 206.306 65.460 199.946 65.460 198.786C65.460 197.906 65.020 197.906 64.860 197.906C64.540 197.906 64.260 197.946 64.260 198.626C64.260 203.786 59.860 204.986 58.580 204.986C55.340 204.986 53.620 201.826 53.620 195.226C53.620 188.626 56.660 187.266 58.820 187.266C60.900 187.266 61.740 188.226 61.740 188.626C61.740 188.986 61.620 189.506 61.020 189.506C59.420 189.506 58.500 191.226 58.500 192.466C58.500 194.746 60.460 195.466 61.580 195.466C61.580 195.466 64.620 195.346 64.620 192.026C64.620 186.786 58.580 186.306 57.820 186.306"></path><g><path d="M-13.200 326.926C-12.040 326.206-10.720 323.366-10.720 321.006C-10.720 320.806-10.720 320.566-10.760 320.366C-11.040 317.966-12.240 314.246-12.240 312.086C-12.240 310.006-11.320 308.006-11.120 307.646C-10.960 307.486-10.920 307.366-10.920 307.246C-10.920 307.166-10.960 307.086-11 307.086C-11.040 307.046-11.080 306.966-11.160 306.966C-11.240 306.966-11.320 307.046-11.480 307.246C-12.360 308.326-13.440 310.646-13.440 314.646C-13.440 318.606-12.040 320.206-12.040 322.726C-12.040 324.606-12.800 325.646-13.920 326.926C-13.200 327.726-12.040 328.366-12.040 330.966C-12.040 333.766-13.440 336.246-13.440 339.166C-13.440 343.166-12.360 345.486-11.480 346.606C-11.320 346.806-11.240 346.846-11.160 346.846C-11.080 346.846-11.040 346.806-11 346.766C-10.960 346.726-10.920 346.686-10.920 346.606C-10.920 346.486-10.960 346.366-11.120 346.166C-11.320 345.846-12.240 343.846-12.240 341.726C-12.240 339.606-11.040 335.846-10.760 333.486C-10.720 333.286-10.720 333.086-10.720 332.846C-10.720 330.486-12.040 327.646-13.200 326.926"></path><line stroke="#000000" stroke-width="1.6" x1="0" x2="0" y1="175.8461538461538" y2="346.8461538461538"></line></g></g><g><line stroke="black" stroke-width="1.6" x1="128.1957985663592" x2="128.1957985663592" y1="175.8461538461538" y2="346.8461538461538"></line></g><g><g></g><g><path d="M25.200 292.426C24.640 292.426 23.400 293.466 22.600 294.346C19.640 297.626 18.680 302.626 18.680 306.786C18.680 309.106 18.960 311.706 19.240 313.346C19.320 313.826 19.360 313.906 18.880 314.306C16.320 316.426 13.560 318.866 11.480 321.426C8.720 324.866 7 328.586 7 332.866C7 339.826 11.760 346.426 21.560 346.426C22.480 346.426 23.520 346.346 24.320 346.186C24.760 346.106 24.840 346.066 24.920 346.546C25.400 349.226 26 352.706 26 354.586C26 360.506 22 361.226 19.640 361.226C17.480 361.226 16.440 360.586 16.440 360.066C16.440 359.626 16.800 359.666 17.720 359.386C18.960 359.026 20.400 357.946 20.400 355.626C20.400 353.426 19 351.546 16.560 351.546C13.880 351.546 12.280 353.666 12.280 356.146C12.280 358.746 13.840 362.666 19.880 362.666C22.560 362.666 27.760 361.466 27.760 354.666C27.760 352.386 27.040 348.586 26.600 346.106C26.520 345.626 26.560 345.666 27.120 345.426C31.160 343.826 33.840 340.426 33.840 335.906C33.840 330.786 30.080 326.266 24.200 326.266C23.080 326.266 23.200 326.466 23.040 325.546L22.040 319.746C21.960 319.266 22.040 319.226 22.280 318.986C22.920 318.386 23.760 317.546 24.520 316.706C27.880 313.026 29.880 308.266 29.880 303.746C29.880 300.266 28.920 296.826 27.280 294.426C26.680 293.546 25.640 292.426 25.200 292.426M20.040 320.586C20.440 320.266 20.520 320.306 20.600 320.746L21.440 325.866C21.560 326.626 21.560 326.586 20.840 326.826C17.320 328.026 15.040 331.186 15.040 334.586C15.040 338.186 16.920 340.746 19.640 341.666C19.960 341.786 20.440 341.906 20.720 341.906C21.040 341.906 21.200 341.706 21.200 341.466C21.200 341.186 20.880 341.066 20.600 340.946C18.920 340.226 17.720 338.506 17.720 336.666C17.720 334.386 19.280 332.666 21.720 331.986C22.360 331.826 22.440 331.866 22.520 332.306L24.520 344.226C24.600 344.666 24.560 344.666 23.960 344.786C23.320 344.906 22.520 344.986 21.720 344.986C14.720 344.986 10.200 341.106 10.200 335.546C10.200 333.186 10.600 330.026 13.920 326.266C16.320 323.586 18.160 322.106 20.040 320.586M24.640 331.666C27.880 331.946 30.560 334.666 30.560 338.186C30.560 340.706 29.040 342.746 26.800 343.866C26.320 344.106 26.240 344.106 26.160 343.626L24.200 332.226C24.120 331.746 24.160 331.626 24.640 331.666M25.800 298.626C27.120 298.626 28.200 299.706 28.200 301.906C28.200 304.666 26.880 307.226 23.760 310.346C23.120 310.986 22.160 311.906 21.240 312.706C20.960 312.946 20.800 312.906 20.720 312.386C20.560 311.346 20.480 309.986 20.480 308.706C20.480 302.466 23.360 298.626 25.800 298.626"></path></g><g></g><path d="M57.820 316.306C56.620 316.306 55.220 316.626 54.140 317.106C50.580 318.666 48.700 322.946 48.700 326.746C48.700 327.106 48.700 327.466 48.740 327.826C48.940 329.986 49.980 332.026 51.300 333.626C52.820 335.466 55.020 336.306 57.420 336.306C64.420 336.306 65.460 329.946 65.460 328.786C65.460 327.906 65.020 327.906 64.860 327.906C64.540 327.906 64.260 327.946 64.260 328.626C64.260 333.786 59.860 334.986 58.580 334.986C55.340 334.986 53.620 331.826 53.620 325.226C53.620 318.626 56.660 317.266 58.820 317.266C60.900 317.266 61.740 318.226 61.740 318.626C61.740 318.986 61.620 319.506 61.020 319.506C59.420 319.506 58.500 321.226 58.500 322.466C58.500 324.746 60.460 325.466 61.580 325.466C61.580 325.466 64.620 325.346 64.620 322.026C64.620 316.786 58.580 316.306 57.820 316.306"></path></g><g><line stroke="black" stroke-width="1.6" x1="128.1957985663592" x2="128.1957985663592" y1="175.8461538461538" y2="346.8461538461538"></line></g><g><g><path d="M93.360 196.986C97.360 196.986 102.280 193.266 102.280 189.466C102.280 187.186 100.480 185.706 97.880 185.706C92.960 185.706 89 189.346 89 193.226C89 195.586 90.920 196.986 93.360 196.986"></path></g><line stroke="#000000" stroke-width="1.2" x1="89.6" x2="89.6" y1="193.18615384615381" y2="228.18615384615381"></line></g><g><path d="M98.320 332.786C96.800 330.946 95.560 329.466 95.560 327.226C95.560 327.066 95.600 326.866 95.600 326.706C95.760 324.386 97.200 322.466 98.240 320.826C98.360 320.626 98.400 320.426 98.400 320.226C98.400 319.826 98.240 319.466 98.240 319.466C98.240 319.466 92.320 312.426 91.640 311.746C91.440 311.546 91.160 311.426 90.920 311.426C90.520 311.426 90.120 311.706 90.120 312.266C90.120 312.466 90.160 312.666 90.280 312.906C90.440 313.346 92.720 315.386 92.720 318.266C92.720 319.746 92.120 321.466 90.320 323.346C89.920 323.746 89.760 324.186 89.760 324.506C89.760 325.066 90.160 325.466 90.160 325.466L92.120 327.866C92.760 328.666 93.320 329.426 93.840 330.266C93.920 330.426 94.080 330.626 94.080 330.826C94.080 330.866 94.080 330.946 94.040 330.986C93.960 331.146 93.800 331.186 93.600 331.186C93.360 331.186 93.120 331.106 92.960 331.066C92.760 331.066 92.520 330.946 92.320 330.946C90.600 330.946 89.040 332.666 89.040 334.786C89.040 336.786 90.760 338.746 93.680 340.986C94 341.226 94.400 341.346 94.720 341.346C95 341.346 95.280 341.266 95.320 341.106C95.360 340.986 95.400 340.906 95.400 340.826C95.400 340.466 95.080 340.146 94.760 339.866C94.240 339.866 93.800 338.786 93.720 338.426C93.600 338.106 93.560 337.746 93.560 337.386C93.560 336.146 94.160 334.746 95.440 334.506C95.640 334.466 95.840 334.466 96.080 334.466C97.240 334.466 98.560 334.906 99.200 335.146C99.240 335.146 99.280 335.186 99.320 335.186C99.440 335.226 99.520 335.226 99.600 335.226C99.720 335.226 99.800 335.186 99.800 335.066C99.800 334.586 98.760 333.266 98.320 332.786"></path></g></g><g transform="translate(307.841952412513)"><g><g><line stroke="#6A6A6A" stroke-width="1.3" x1="-16.599999999999994" x2="279.76470987137077" y1="216.3461538461538" y2="216.3461538461538"></line><line stroke="#6A6A6A" stroke-width="1.3" x1="-16.599999999999994" x2="279.76470987137077" y1="206.3461538461538" y2="206.3461538461538"></line><line stroke="#6A6A6A" stroke-width="1.3" x1="-16.599999999999994" x2="279.76470987137077" y1="196.3461538461538" y2="196.3461538461538"></line><line stroke="#6A6A6A" stroke-width="1.3" x1="-16.599999999999994" x2="279.76470987137077" y1="186.3461538461538" y2="186.3461538461538"></line><line stroke="#6A6A6A" stroke-width="1.3" x1="-16.599999999999994" x2="279.76470987137077" y1="176.3461538461538" y2="176.3461538461538"></line></g></g><g><line stroke="#000000" stroke-width="1.6" x1="269.96470987137076" x2="269.96470987137076" y1="175.8461538461538" y2="346.8461538461538"></line><line stroke="#000000" stroke-width="5" x1="277.26470987137077" x2="277.26470987137077" y1="175.8461538461538" y2="346.8461538461538"></line></g><g><g><line stroke="#6A6A6A" stroke-width="1.3" x1="-16.599999999999994" x2="279.76470987137077" y1="346.3461538461538" y2="346.3461538461538"></line><line stroke="#6A6A6A" stroke-width="1.3" x1="-16.599999999999994" x2="279.76470987137077" y1="336.3461538461538" y2="336.3461538461538"></line><line stroke="#6A6A6A" stroke-width="1.3" x1="-16.599999999999994" x2="279.76470987137077" y1="326.3461538461538" y2="326.3461538461538"></line><line stroke="#6A6A6A" stroke-width="1.3" x1="-16.599999999999994" x2="279.76470987137077" y1="316.3461538461538" y2="316.3461538461538"></line><line stroke="#6A6A6A" stroke-width="1.3" x1="-16.599999999999994" x2="279.76470987137077" y1="306.3461538461538" y2="306.3461538461538"></line></g></g><g><line stroke="black" stroke-width="1.6" x1="269.96470987137076" x2="269.96470987137076" y1="175.8461538461538" y2="346.8461538461538"></line><line stroke="black" stroke-width="5" x1="277.26470987137077" x2="277.26470987137077" y1="175.8461538461538" y2="346.8461538461538"></line></g><g><g><path d="M9.400 195.866C3.600 195.866 0 198.306 0 201.266C0 204.186 2.480 206.786 8.960 206.786C16.080 206.786 18.360 204.306 18.360 201.266C18.360 198.186 13.440 195.866 9.400 195.866M4.840 198.586C5.320 197.106 6.920 196.866 8.280 196.866C11.240 196.866 13.640 200.066 13.640 202.706C13.640 202.986 13.600 203.266 13.560 203.506C13.360 204.586 12.720 205.346 11.640 205.626C11.200 205.746 10.760 205.786 10.320 205.786C9.920 205.786 9.560 205.746 9.160 205.626C8.440 205.386 7.720 204.986 7.120 204.466C6.800 204.186 6.480 203.866 6.200 203.506C5.360 202.506 4.680 201.026 4.680 199.666C4.680 199.306 4.720 198.946 4.840 198.586"></path></g></g><g><g><path d="M9.400 245.866C3.600 245.866 0 248.306 0 251.266C0 254.186 2.480 256.786 8.960 256.786C16.080 256.786 18.360 254.306 18.360 251.266C18.360 248.186 13.440 245.866 9.400 245.866M4.840 248.586C5.320 247.106 6.920 246.866 8.280 246.866C11.240 246.866 13.640 250.066 13.640 252.706C13.640 252.986 13.600 253.266 13.560 253.506C13.360 254.586 12.720 255.346 11.640 255.626C11.200 255.746 10.760 255.786 10.320 255.786C9.920 255.786 9.560 255.746 9.160 255.626C8.440 255.386 7.720 254.986 7.120 254.466C6.800 254.186 6.480 253.866 6.200 253.506C5.360 252.506 4.680 251.026 4.680 249.666C4.680 249.306 4.720 248.946 4.840 248.586"></path></g><line stroke="#000000" stroke-width="2.2" x1="-3.2" x2="23.599999999999998" y1="226.3461538461538" y2="226.3461538461538"></line><line stroke="#000000" stroke-width="2.2" x1="-3.2" x2="23.599999999999998" y1="236.3461538461538" y2="236.3461538461538"></line><line stroke="#000000" stroke-width="2.2" x1="-3.2" x2="23.599999999999998" y1="246.3461538461538" y2="246.3461538461538"></line></g><g><path d="M131.922 320.706L131.922 317.026C131.922 316.426 131.442 315.986 130.882 315.986L121.682 315.986C121.082 315.986 120.642 316.426 120.642 317.026L120.642 320.706C120.642 321.266 121.082 321.746 121.682 321.746L130.882 321.746C131.442 321.746 131.922 321.266 131.922 320.706"></path></g></g></svg>