<?xml version="1.0" encoding="UTF-8" standalone="no"?><svg xmlns="http://www.w3.org/2000/svg" height="279.4mm" viewBox="0 0 1328.6153846153845 1719.3846153846152" width="215.9mm"><g transform="translate(93.84615384615385)"><g><g><line stroke="#6A6A6A" stroke-width="1.3" x1="0" x2="1514.0414614107558" y1="183.8461538461538" y2="183.8461538461538"></line><line stroke="#6A6A6A" stroke-width="1.3" x1="0" x2="1514.0414614107558" y1="173.8461538461538" y2="173.8461538461538"></line><line stroke="#6A6A6A" stroke-width="1.3" x1="0" x2="1514.0414614107558" y1="163.8461538461538" y2="163.8461538461538"></line><line stroke="#6A6A6A" stroke-width="1.3" x1="0" x2="1514.0414614107558" y1="153.8461538461538" y2="153.8461538461538"></line><line stroke="#6A6A6A" stroke-width="1.3" x1="0" x2="1514.0414614107558" y1="143.8461538461538" y2="143.8461538461538"></line></g><g><path d="M25.200 129.926C24.640 129.926 23.400 130.966 22.600 131.846C19.640 135.126 18.680 140.126 18.680 144.286C18.680 146.606 18.960 149.206 19.240 150.846C19.320 151.326 19.360 151.406 18.880 151.806C16.320 153.926 13.560 156.366 11.480 158.926C8.720 162.366 7 166.086 7 170.366C7 177.326 11.760 183.926 21.560 183.926C22.480 183.926 23.520 183.846 24.320 183.686C24.760 183.606 24.840 183.566 24.920 184.046C25.400 186.726 26 190.206 26 192.086C26 198.006 22 198.726 19.640 198.726C17.480 198.726 16.440 198.086 16.440 197.566C16.440 197.126 16.800 197.166 17.720 196.886C18.960 196.526 20.400 195.446 20.400 193.126C20.400 190.926 19 189.046 16.560 189.046C13.880 189.046 12.280 191.166 12.280 193.646C12.280 196.246 13.840 200.166 19.880 200.166C22.560 200.166 27.760 198.966 27.760 192.166C27.760 189.886 27.040 186.086 26.600 183.606C26.520 183.126 26.560 183.166 27.120 182.926C31.160 181.326 33.840 177.926 33.840 173.406C33.840 168.286 30.080 163.766 24.200 163.766C23.080 163.766 23.200 163.966 23.040 163.046L22.040 157.246C21.960 156.766 22.040 156.726 22.280 156.486C22.920 155.886 23.760 155.046 24.520 154.206C27.880 150.526 29.880 145.766 29.880 141.246C29.880 137.766 28.920 134.326 27.280 131.926C26.680 131.046 25.640 129.926 25.200 129.926ZM20.040 158.086C20.440 157.766 20.520 157.806 20.600 158.246L21.440 163.366C21.560 164.126 21.560 164.086 20.840 164.326C17.320 165.526 15.040 168.686 15.040 172.086C15.040 175.686 16.920 178.246 19.640 179.166C19.960 179.286 20.440 179.406 20.720 179.406C21.040 179.406 21.200 179.206 21.200 178.966C21.200 178.686 20.880 178.566 20.600 178.446C18.920 177.726 17.720 176.006 17.720 174.166C17.720 171.886 19.280 170.166 21.720 169.486C22.360 169.326 22.440 169.366 22.520 169.806L24.520 181.726C24.600 182.166 24.560 182.166 23.960 182.286C23.320 182.406 22.520 182.486 21.720 182.486C14.720 182.486 10.200 178.606 10.200 173.046C10.200 170.686 10.600 167.526 13.920 163.766C16.320 161.086 18.160 159.606 20.040 158.086ZM24.640 169.166C27.880 169.446 30.560 172.166 30.560 175.686C30.560 178.206 29.040 180.246 26.800 181.366C26.320 181.606 26.240 181.606 26.160 181.126L24.200 169.726C24.120 169.246 24.160 169.126 24.640 169.166ZM25.800 136.126C27.120 136.126 28.200 137.206 28.200 139.406C28.200 142.166 26.880 144.726 23.760 147.846C23.120 148.486 22.160 149.406 21.240 150.206C20.960 150.446 20.800 150.406 20.720 149.886C20.560 148.846 20.480 147.486 20.480 146.206C20.480 139.966 23.360 136.126 25.800 136.126Z"></path></g><g></g><g><g><path d="M56.380 143.926C56.180 143.926 55.980 143.886 55.780 143.886C52.340 143.886 48.900 146.166 48.900 148.286C48.900 149.606 49.660 151.366 52.140 151.526L52.340 151.526C54.100 151.526 54.980 150.246 54.980 148.926L54.980 148.606C54.860 147.126 53.860 147.046 53.660 146.966C53.460 146.886 52.860 146.966 52.860 146.406L52.860 146.246C52.940 145.566 54.180 145.246 54.540 145.246C57.940 145.246 58.260 147.366 58.260 148.326L58.260 148.606C58.260 151.566 55.900 152.726 53.380 152.846C52.980 152.886 52.420 153.086 52.420 153.526C52.420 154.006 53.100 154.006 53.420 154.006C58.020 154.006 58.380 157.126 58.380 157.646C58.380 161.886 56.220 162.366 55.340 162.366C55.180 162.366 55.020 162.326 54.980 162.326C54.660 162.286 53.900 162.286 53.860 161.686L53.860 161.486C53.860 160.606 54.740 160.006 54.780 158.846C54.780 158.446 54.740 158.006 54.580 157.606C54.140 156.606 52.980 155.966 51.900 155.966C51.740 155.966 51.620 155.966 51.460 156.006C50.780 156.126 50.020 156.526 49.540 157.046C48.860 157.646 48.660 158.606 48.660 159.486C48.740 162.606 51.580 163.806 55.500 163.886L55.860 163.886C59.820 163.886 63.900 161.846 63.900 158.326L63.900 158.046C63.860 157.486 63.780 156.926 63.540 156.406C63.380 156.006 63.100 155.606 62.780 155.246C62.540 154.926 62.220 154.646 61.820 154.406L60.980 153.926L59.660 153.566C59.460 153.526 59.340 153.526 59.260 153.366C59.220 153.286 59.220 153.246 59.220 153.166C59.220 153.006 59.260 152.846 59.380 152.806C59.820 152.686 60.260 152.646 60.620 152.446C61.220 152.166 61.740 151.886 62.180 151.366C62.820 150.646 63.060 149.726 63.060 148.806C63.060 145.126 58.060 144.046 56.380 143.926Z"></path></g><g><path d="M65.180 176.806L62.260 176.806L62.260 168.246C62.260 167.926 62.220 167.566 61.780 167.566C61.420 167.566 61.220 167.646 60.980 167.926L57.180 172.526C57.020 172.726 56.820 172.966 56.820 173.446C56.820 173.446 56.820 175.046 56.820 176.806L51.420 176.806C54.620 174.086 61.020 165.006 61.140 164.566C61.140 164.486 61.180 164.446 61.180 164.366C61.180 164.046 60.900 163.806 60.580 163.806C60.220 163.806 58.580 163.886 57.860 163.886C57.140 163.886 55.340 163.806 55.020 163.806C54.660 163.806 54.100 163.926 54.100 164.566C54.100 169.526 50.180 175.086 48.980 176.766L48.740 177.086C48.740 177.126 48.700 177.166 48.700 177.206C48.620 177.366 48.580 177.526 48.580 177.646C48.580 178.046 48.900 178.326 49.380 178.326L56.820 178.326L56.820 180.846C56.820 181.926 55.940 182.246 55.220 182.246C54.580 182.246 54.300 182.606 54.300 183.006C54.300 183.406 54.460 183.846 55.060 183.846C55.700 183.846 63.580 183.846 63.580 183.846C63.980 183.846 64.380 183.566 64.380 183.006C64.380 182.446 63.900 182.206 63.500 182.206C63.100 182.206 62.260 181.966 62.260 180.686L62.260 178.326C63.980 178.326 65.180 178.326 65.180 178.326C65.580 178.326 65.780 178.046 65.780 177.566C65.780 177.086 65.620 176.806 65.180 176.806Z"></path></g></g></g><g><line stroke="black" stroke-width="1.6" x1="564.3369491429471" x2="564.3369491429471" y1="143.8461538461538" y2="183.8461538461538"></line></g><g><g><path d="M217.733 169.486C221.733 169.486 226.653 165.766 226.653 161.966C226.653 159.686 224.853 158.206 222.253 158.206C217.333 158.206 213.373 161.846 213.373 165.726C213.373 168.086 215.293 169.486 217.733 169.486Z"></path></g><line stroke="#000000" stroke-width="1.2" x1="213.97279482922625" x2="213.97279482922625" y1="165.68615384615381" y2="199.68615384615381"></line><g><polygon fill="black" points="209.97279482922625,219.0061538461538 377.3090174151117,219.0061538461538 377.3090174151117,217.4061538461538 209.97279482922625,217.4061538461538" stroke="black" stroke-width="0"></polygon><line fill="black" stroke="black" stroke-width="1.6" x1="210.47279482922625" x2="210.47279482922625" y1="217.4061538461538" y2="211.0061538461538"></line><line fill="black" stroke="black" stroke-width="1.6" x1="376.8090174151117" x2="376.8090174151117" y1="217.4061538461538" y2="211.0061538461538"></line><g><polygon fill="white" points="281.72090612216897,211.9061538461538 281.72090612216897,226.58615384615382 305.560906122169,226.58615384615382 305.560906122169,211.9061538461538" stroke="white" stroke-width="0"></polygon><path d="M291.121 226.186C290.321 226.186 289.681 225.866 289.681 225.466C289.681 225.226 289.881 225.146 290.201 224.986C290.641 224.786 291.201 224.306 291.201 223.266C291.201 222.306 290.521 221.826 289.681 221.826C288.561 221.826 287.721 222.826 287.721 224.146C287.721 225.746 289.001 227.226 291.841 227.226C295.241 227.226 298.041 225.186 298.041 222.026C298.041 221.026 297.521 220.066 296.481 219.546C296.201 219.426 296.041 219.386 296.041 219.186C296.041 218.986 296.201 218.986 296.521 218.826C298.201 218.146 299.561 216.866 299.561 215.266C299.561 213.186 297.561 211.906 295.121 211.906C292.601 211.906 290.521 213.226 290.441 215.386C290.401 216.426 291.041 217.106 291.961 217.106C292.961 217.106 293.761 216.306 293.761 215.226C293.761 214.786 293.601 214.466 293.401 214.226C293.121 213.986 292.921 213.946 292.921 213.706C292.921 213.426 293.401 213.146 294.241 213.146C295.801 213.146 296.321 214.106 296.321 214.986C296.321 217.106 294.961 218.626 292.641 218.626L292.201 218.626C291.681 218.626 291.401 218.866 291.401 219.226C291.401 219.586 291.681 219.826 292.201 219.826L292.601 219.826C294.081 219.826 294.801 220.706 294.801 221.986C294.801 223.746 293.561 226.186 291.121 226.186Z"></path></g></g></g><g><g><path d="M297.401 169.486C301.401 169.486 306.321 165.766 306.321 161.966C306.321 159.686 304.521 158.206 301.921 158.206C297.001 158.206 293.041 161.846 293.041 165.726C293.041 168.086 294.961 169.486 297.401 169.486Z"></path></g><line stroke="#000000" stroke-width="1.2" x1="293.640906122169" x2="293.640906122169" y1="165.68615384615381" y2="200.68615384615381"></line></g><g><g><path d="M377.069 169.486C381.069 169.486 385.989 165.766 385.989 161.966C385.989 159.686 384.189 158.206 381.589 158.206C376.669 158.206 372.709 161.846 372.709 165.726C372.709 168.086 374.629 169.486 377.069 169.486Z"></path></g><line stroke="#000000" stroke-width="1.2" x1="373.3090174151117" x2="373.3090174151117" y1="165.68615384615381" y2="199.68615384615381"></line></g><g><path d="M461.697 170.286C460.177 168.446 458.937 166.966 458.937 164.726C458.937 164.566 458.977 164.366 458.977 164.206C459.137 161.886 460.577 159.966 461.617 158.326C461.737 158.126 461.777 157.926 461.777 157.726C461.777 157.326 461.617 156.966 461.617 156.966C461.617 156.966 455.697 149.926 455.017 149.246C454.817 149.046 454.537 148.926 454.297 148.926C453.897 148.926 453.497 149.206 453.497 149.766C453.497 149.966 453.537 150.166 453.657 150.406C453.817 150.846 456.097 152.886 456.097 155.766C456.097 157.246 455.497 158.966 453.697 160.846C453.297 161.246 453.137 161.686 453.137 162.006C453.137 162.566 453.537 162.966 453.537 162.966L455.497 165.366C456.137 166.166 456.697 166.926 457.217 167.766C457.297 167.926 457.457 168.126 457.457 168.326C457.457 168.366 457.457 168.446 457.417 168.486C457.337 168.646 457.177 168.686 456.977 168.686C456.737 168.686 456.497 168.606 456.337 168.566C456.137 168.566 455.897 168.446 455.697 168.446C453.977 168.446 452.417 170.166 452.417 172.286C452.417 174.286 454.137 176.246 457.057 178.486C457.377 178.726 457.777 178.846 458.097 178.846C458.377 178.846 458.657 178.766 458.697 178.606C458.737 178.486 458.777 178.406 458.777 178.326C458.777 177.966 458.457 177.646 458.137 177.366C457.617 177.366 457.177 176.286 457.097 175.926C456.977 175.606 456.937 175.246 456.937 174.886C456.937 173.646 457.537 172.246 458.817 172.006C459.017 171.966 459.217 171.966 459.457 171.966C460.617 171.966 461.937 172.406 462.577 172.646C462.617 172.646 462.657 172.686 462.697 172.686C462.817 172.726 462.897 172.726 462.977 172.726C463.097 172.726 463.177 172.686 463.177 172.566C463.177 172.086 462.137 170.766 461.697 170.286Z"></path></g></g><g transform="translate(673.9831029891009)"><g></g><g><line stroke="black" stroke-width="1.6" x1="458.6522561339044" x2="458.6522561339044" y1="143.8461538461538" y2="183.8461538461538"></line></g><g><g><path d="M128.733 169.486C132.733 169.486 137.653 165.766 137.653 161.966C137.653 159.686 135.853 158.206 133.253 158.206C128.333 158.206 124.373 161.846 124.373 165.726C124.373 168.086 126.293 169.486 128.733 169.486Z"></path></g><line stroke="#000000" stroke-width="1.2" x1="124.97279482922625" x2="124.97279482922625" y1="165.68615384615381" y2="200.68615384615381"></line></g><g><g><path d="M239.893 169.486C243.893 169.486 248.813 165.766 248.813 161.966C248.813 159.686 247.013 158.206 244.413 158.206C239.493 158.206 235.533 161.846 235.533 165.726C235.533 168.086 237.453 169.486 239.893 169.486Z"></path></g><line stroke="#000000" stroke-width="1.2" x1="236.13261526411893" x2="236.13261526411893" y1="165.68615384615381" y2="200.68615384615381"></line></g><g><g><path d="M351.052 169.486C355.052 169.486 359.972 165.766 359.972 161.966C359.972 159.686 358.172 158.206 355.572 158.206C350.652 158.206 346.692 161.846 346.692 165.726C346.692 168.086 348.612 169.486 351.052 169.486Z"></path></g><line stroke="#000000" stroke-width="1.2" x1="347.29243569901166" x2="347.29243569901166" y1="165.68615384615381" y2="200.68615384615381"></line></g></g><g transform="translate(1148.4353591230054)"><g></g><g><line stroke="black" stroke-width="1.6" x1="458.6522561339044" x2="458.6522561339044" y1="143.8461538461538" y2="183.8461538461538"></line></g><g><g><path d="M128.733 169.486C132.733 169.486 137.653 165.766 137.653 161.966C137.653 159.686 135.853 158.206 133.253 158.206C128.333 158.206 124.373 161.846 124.373 165.726C124.373 168.086 126.293 169.486 128.733 169.486Z"></path></g><line stroke="#000000" stroke-width="1.2" x1="124.97279482922625" x2="124.97279482922625" y1="165.68615384615381" y2="200.68615384615381"></line></g><g><g><path d="M239.893 169.486C243.893 169.486 248.813 165.766 248.813 161.966C248.813 159.686 247.013 158.206 244.413 158.206C239.493 158.206 235.533 161.846 235.533 165.726C235.533 168.086 237.453 169.486 239.893 169.486Z"></path></g><line stroke="#000000" stroke-width="1.2" x1="236.13261526411893" x2="236.13261526411893" y1="165.68615384615381" y2="200.68615384615381"></line></g><g><g><path d="M351.052 169.486C355.052 169.486 359.972 165.766 359.972 161.966C359.972 159.686 358.172 158.206 355.572 158.206C350.652 158.206 346.692 161.846 346.692 165.726C346.692 168.086 348.612 169.486 351.052 169.486Z"></path></g><line stroke="#000000" stroke-width="1.2" x1="347.29243569901166" x2="347.29243569901166" y1="165.68615384615381" y2="200.68615384615381"></line></g></g><g transform="translate(93.84615384615385)"><g><g><line stroke="#6A6A6A" stroke-width="1.3" x1="0" x2="1707.759782672752" y1="314.8461538461538" y2="314.8461538461538"></line><line stroke="#6A6A6A" stroke-width="1.3" x1="0" x2="1707.759782672752" y1="304.8461538461538" y2="304.8461538461538"></line><line stroke="#6A6A6A" stroke-width="1.3" x1="0" x2="1707.759782672752" y1="294.8461538461538" y2="294.8461538461538"></line><line stroke="#6A6A6A" stroke-width="1.3" x1="0" x2="1707.759782672752" y1="284.8461538461538" y2="284.8461538461538"></line><line stroke="#6A6A6A" stroke-width="1.3" x1="0" x2="1707.759782672752" y1="274.8461538461538" y2="274.8461538461538"></line></g><g><path d="M25.200 260.926C24.640 260.926 23.400 261.966 22.600 262.846C19.640 266.126 18.680 271.126 18.680 275.286C18.680 277.606 18.960 280.206 19.240 281.846C19.320 282.326 19.360 282.406 18.880 282.806C16.320 284.926 13.560 287.366 11.480 289.926C8.720 293.366 7 297.086 7 301.366C7 308.326 11.760 314.926 21.560 314.926C22.480 314.926 23.520 314.846 24.320 314.686C24.760 314.606 24.840 314.566 24.920 315.046C25.400 317.726 26 321.206 26 323.086C26 329.006 22 329.726 19.640 329.726C17.480 329.726 16.440 329.086 16.440 328.566C16.440 328.126 16.800 328.166 17.720 327.886C18.960 327.526 20.400 326.446 20.400 324.126C20.400 321.926 19 320.046 16.560 320.046C13.880 320.046 12.280 322.166 12.280 324.646C12.280 327.246 13.840 331.166 19.880 331.166C22.560 331.166 27.760 329.966 27.760 323.166C27.760 320.886 27.040 317.086 26.600 314.606C26.520 314.126 26.560 314.166 27.120 313.926C31.160 312.326 33.840 308.926 33.840 304.406C33.840 299.286 30.080 294.766 24.200 294.766C23.080 294.766 23.200 294.966 23.040 294.046L22.040 288.246C21.960 287.766 22.040 287.726 22.280 287.486C22.920 286.886 23.760 286.046 24.520 285.206C27.880 281.526 29.880 276.766 29.880 272.246C29.880 268.766 28.920 265.326 27.280 262.926C26.680 262.046 25.640 260.926 25.200 260.926ZM20.040 289.086C20.440 288.766 20.520 288.806 20.600 289.246L21.440 294.366C21.560 295.126 21.560 295.086 20.840 295.326C17.320 296.526 15.040 299.686 15.040 303.086C15.040 306.686 16.920 309.246 19.640 310.166C19.960 310.286 20.440 310.406 20.720 310.406C21.040 310.406 21.200 310.206 21.200 309.966C21.200 309.686 20.880 309.566 20.600 309.446C18.920 308.726 17.720 307.006 17.720 305.166C17.720 302.886 19.280 301.166 21.720 300.486C22.360 300.326 22.440 300.366 22.520 300.806L24.520 312.726C24.600 313.166 24.560 313.166 23.960 313.286C23.320 313.406 22.520 313.486 21.720 313.486C14.720 313.486 10.200 309.606 10.200 304.046C10.200 301.686 10.600 298.526 13.920 294.766C16.320 292.086 18.160 290.606 20.040 289.086ZM24.640 300.166C27.880 300.446 30.560 303.166 30.560 306.686C30.560 309.206 29.040 311.246 26.800 312.366C26.320 312.606 26.240 312.606 26.160 312.126L24.200 300.726C24.120 300.246 24.160 300.126 24.640 300.166ZM25.800 267.126C27.120 267.126 28.200 268.206 28.200 270.406C28.200 273.166 26.880 275.726 23.760 278.846C23.120 279.486 22.160 280.406 21.240 281.206C20.960 281.446 20.800 281.406 20.720 280.886C20.560 279.846 20.480 278.486 20.480 277.206C20.480 270.966 23.360 267.126 25.800 267.126Z"></path></g><g></g><text font-family='Alegreya' font-style='italic' text-anchor='end' stroke='#7a7a7a' font-size="24" x="0" y="264.8461538461538">4</text></g><g><line stroke="black" stroke-width="1.6" x1="476.0327610975149" x2="476.0327610975149" y1="274.8461538461538" y2="314.8461538461538"></line></g><g><g><path d="M153.005 300.486C157.005 300.486 161.925 296.766 161.925 292.966C161.925 290.686 160.125 289.206 157.525 289.206C152.605 289.206 148.645 292.846 148.645 296.726C148.645 299.086 150.565 300.486 153.005 300.486Z"></path></g><line stroke="#000000" stroke-width="1.2" x1="149.24463125092566" x2="149.24463125092566" y1="296.6861538461538" y2="331.6861538461538"></line></g><g><g><path d="M242.152 300.486C246.152 300.486 251.072 296.766 251.072 292.966C251.072 290.686 249.272 289.206 246.672 289.206C241.752 289.206 237.792 292.846 237.792 296.726C237.792 299.086 239.712 300.486 242.152 300.486Z"></path></g><line stroke="#000000" stroke-width="1.2" x1="238.39166371257295" x2="238.39166371257295" y1="296.6861538461538" y2="331.6861538461538"></line></g><g><g><path d="M390.446 300.486C394.446 300.486 399.366 296.766 399.366 292.966C399.366 290.686 397.566 289.206 394.966 289.206C390.046 289.206 386.086 292.846 386.086 296.726C386.086 299.086 388.006 300.486 390.446 300.486Z"></path></g><line stroke="#000000" stroke-width="1.2" x1="386.6857286358676" x2="386.6857286358676" y1="296.6861538461538" y2="331.6861538461538"></line></g></g><g transform="translate(585.6789149436687)"><g></g><g><line stroke="black" stroke-width="1.6" x1="427.5327610975149" x2="427.5327610975149" y1="274.8461538461538" y2="314.8461538461538"></line></g><g><g><path d="M104.505 300.486C108.505 300.486 113.425 296.766 113.425 292.966C113.425 290.686 111.625 289.206 109.025 289.206C104.105 289.206 100.145 292.846 100.145 296.726C100.145 299.086 102.065 300.486 104.505 300.486Z"></path></g><line stroke="#000000" stroke-width="1.2" x1="100.74463125092566" x2="100.74463125092566" y1="296.6861538461538" y2="331.6861538461538"></line></g><g><g><path d="M193.652 300.486C197.652 300.486 202.572 296.766 202.572 292.966C202.572 290.686 200.772 289.206 198.172 289.206C193.252 289.206 189.292 292.846 189.292 296.726C189.292 299.086 191.212 300.486 193.652 300.486Z"></path></g><line stroke="#000000" stroke-width="1.2" x1="189.89166371257295" x2="189.89166371257295" y1="296.6861538461538" y2="331.6861538461538"></line></g><g><g><path d="M341.946 300.486C345.946 300.486 350.866 296.766 350.866 292.966C350.866 290.686 349.066 289.206 346.466 289.206C341.546 289.206 337.586 292.846 337.586 296.726C337.586 299.086 339.506 300.486 341.946 300.486Z"></path></g><line stroke="#000000" stroke-width="1.2" x1="338.1857286358676" x2="338.1857286358676" y1="296.6861538461538" y2="331.6861538461538"></line></g></g><g transform="translate(1029.0116760411836)"><g></g><g><line stroke="black" stroke-width="1.6" x1="392.36778654720644" x2="392.36778654720644" y1="274.8461538461538" y2="314.8461538461538"></line></g><g><g><path d="M128.487 300.486C132.487 300.486 137.407 296.766 137.407 292.966C137.407 290.686 135.607 289.206 133.007 289.206C128.087 289.206 124.127 292.846 124.127 296.726C124.127 299.086 126.047 300.486 128.487 300.486Z"></path></g><line stroke="#000000" stroke-width="1.2" x1="124.72668916226455" x2="124.72668916226455" y1="296.6861538461538" y2="331.6861538461538"></line></g><g><g><path d="M217.634 300.486C221.634 300.486 226.554 296.766 226.554 292.966C226.554 290.686 224.754 289.206 222.154 289.206C217.234 289.206 213.274 292.846 213.274 296.726C213.274 299.086 215.194 300.486 217.634 300.486Z"></path></g><line stroke="#000000" stroke-width="1.2" x1="213.87372162391185" x2="213.87372162391185" y1="296.6861538461538" y2="331.6861538461538"></line></g><g><g><path d="M306.781 300.486C310.781 300.486 315.701 296.766 315.701 292.966C315.701 290.686 313.901 289.206 311.301 289.206C306.381 289.206 302.421 292.846 302.421 296.726C302.421 299.086 304.341 300.486 306.781 300.486Z"></path></g><line stroke="#000000" stroke-width="1.2" x1="303.02075408555913" x2="303.02075408555913" y1="296.6861538461538" y2="331.6861538461538"></line></g></g><g transform="translate(1437.17946258839)"><g></g><g><line stroke="black" stroke-width="1.6" x1="363.626473930516" x2="363.626473930516" y1="274.8461538461538" y2="314.8461538461538"></line></g><g><g><path d="M128.487 300.486C132.487 300.486 137.407 296.766 137.407 292.966C137.407 290.686 135.607 289.206 133.007 289.206C128.087 289.206 124.127 292.846 124.127 296.726C124.127 299.086 126.047 300.486 128.487 300.486Z"></path></g><line stroke="#000000" stroke-width="1.2" x1="124.72668916226455" x2="124.72668916226455" y1="296.6861538461538" y2="331.6861538461538"></line></g><g><path d="M224.554 293.886L224.554 290.206C224.554 289.606 224.074 289.166 223.514 289.166L214.314 289.166C213.714 289.166 213.274 289.606 213.274 290.206L213.274 293.886C213.274 294.446 213.714 294.926 214.314 294.926L223.514 294.926C224.074 294.926 224.554 294.446 224.554 293.886Z"></path></g></g><g transform="translate(93.84615384615385)"><g><g><line stroke="#6A6A6A" stroke-width="1.3" x1="0" x2="1684.8062065245736" y1="445.8461538461538" y2="445.8461538461538"></line><line stroke="#6A6A6A" stroke-width="1.3" x1="0" x2="1684.8062065245736" y1="435.8461538461538" y2="435.8461538461538"></line><line stroke="#6A6A6A" stroke-width="1.3" x1="0" x2="1684.8062065245736" y1="425.8461538461538" y2="425.8461538461538"></line><line stroke="#6A6A6A" stroke-width="1.3" x1="0" x2="1684.8062065245736" y1="415.8461538461538" y2="415.8461538461538"></line><line stroke="#6A6A6A" stroke-width="1.3" x1="0" x2="1684.8062065245736" y1="405.8461538461538" y2="405.8461538461538"></line></g><g><path d="M25.200 391.926C24.640 391.926 23.400 392.966 22.600 393.846C19.640 397.126 18.680 402.126 18.680 406.286C18.680 408.606 18.960 411.206 19.240 412.846C19.320 413.326 19.360 413.406 18.880 413.806C16.320 415.926 13.560 418.366 11.480 420.926C8.720 424.366 7 428.086 7 432.366C7 439.326 11.760 445.926 21.560 445.926C22.480 445.926 23.520 445.846 24.320 445.686C24.760 445.606 24.840 445.566 24.920 446.046C25.400 448.726 26 452.206 26 454.086C26 460.006 22 460.726 19.640 460.726C17.480 460.726 16.440 460.086 16.440 459.566C16.440 459.126 16.800 459.166 17.720 458.886C18.960 458.526 20.400 457.446 20.400 455.126C20.400 452.926 19 451.046 16.560 451.046C13.880 451.046 12.280 453.166 12.280 455.646C12.280 458.246 13.840 462.166 19.880 462.166C22.560 462.166 27.760 460.966 27.760 454.166C27.760 451.886 27.040 448.086 26.600 445.606C26.520 445.126 26.560 445.166 27.120 444.926C31.160 443.326 33.840 439.926 33.840 435.406C33.840 430.286 30.080 425.766 24.200 425.766C23.080 425.766 23.200 425.966 23.040 425.046L22.040 419.246C21.960 418.766 22.040 418.726 22.280 418.486C22.920 417.886 23.760 417.046 24.520 416.206C27.880 412.526 29.880 407.766 29.880 403.246C29.880 399.766 28.920 396.326 27.280 393.926C26.680 393.046 25.640 391.926 25.200 391.926ZM20.040 420.086C20.440 419.766 20.520 419.806 20.600 420.246L21.440 425.366C21.560 426.126 21.560 426.086 20.840 426.326C17.320 427.526 15.040 430.686 15.040 434.086C15.040 437.686 16.920 440.246 19.640 441.166C19.960 441.286 20.440 441.406 20.720 441.406C21.040 441.406 21.200 441.206 21.200 440.966C21.200 440.686 20.880 440.566 20.600 440.446C18.920 439.726 17.720 438.006 17.720 436.166C17.720 433.886 19.280 432.166 21.720 431.486C22.360 431.326 22.440 431.366 22.520 431.806L24.520 443.726C24.600 444.166 24.560 444.166 23.960 444.286C23.320 444.406 22.520 444.486 21.720 444.486C14.720 444.486 10.200 440.606 10.200 435.046C10.200 432.686 10.600 429.526 13.920 425.766C16.320 423.086 18.160 421.606 20.040 420.086ZM24.640 431.166C27.880 431.446 30.560 434.166 30.560 437.686C30.560 440.206 29.040 442.246 26.800 443.366C26.320 443.606 26.240 443.606 26.160 443.126L24.200 431.726C24.120 431.246 24.160 431.126 24.640 431.166ZM25.800 398.126C27.120 398.126 28.200 399.206 28.200 401.406C28.200 404.166 26.880 406.726 23.760 409.846C23.120 410.486 22.160 411.406 21.240 412.206C20.960 412.446 20.800 412.406 20.720 411.886C20.560 410.846 20.480 409.486 20.480 408.206C20.480 401.966 23.360 398.126 25.800 398.126Z"></path></g><g></g><text font-family='Alegreya' font-style='italic' text-anchor='end' stroke='#7a7a7a' font-size="24" x="0" y="395.8461538461538">8</text></g><g><line stroke="black" stroke-width="1.6" x1="428.65605240554726" x2="428.65605240554726" y1="405.8461538461538" y2="445.8461538461538"></line></g><g><g><path d="M171.960 396.486C175.960 396.486 180.880 392.766 180.880 388.966C180.880 386.686 179.080 385.206 176.480 385.206C171.560 385.206 167.600 388.846 167.600 392.726C167.600 395.086 169.520 396.486 171.960 396.486Z"></path></g><line stroke="#000000" stroke-width="1.2" x1="168.200283174778" x2="168.200283174778" y1="392.6861538461538" y2="427.6861538461538"></line><line stroke="#000000" stroke-width="2.2" x1="164.40028317477802" x2="186.320283174778" y1="395.8461538461538" y2="395.8461538461538"></line></g><g><g><path d="M258.712 396.486C262.712 396.486 267.632 392.766 267.632 388.966C267.632 386.686 265.832 385.206 263.232 385.206C258.312 385.206 254.352 388.846 254.352 392.726C254.352 395.086 256.272 396.486 258.712 396.486Z"></path></g><line stroke="#000000" stroke-width="1.2" x1="254.95220625170109" x2="254.95220625170109" y1="392.6861538461538" y2="427.6861538461538"></line><line stroke="#000000" stroke-width="2.2" x1="251.1522062517011" x2="273.0722062517011" y1="395.8461538461538" y2="395.8461538461538"></line></g><g><g><path d="M345.464 396.486C349.464 396.486 354.384 392.766 354.384 388.966C354.384 386.686 352.584 385.206 349.984 385.206C345.064 385.206 341.104 388.846 341.104 392.726C341.104 395.086 343.024 396.486 345.464 396.486Z"></path></g><line stroke="#000000" stroke-width="1.2" x1="341.70412932862416" x2="341.70412932862416" y1="392.6861538461538" y2="427.6861538461538"></line><line stroke="#000000" stroke-width="2.2" x1="337.90412932862415" x2="359.82412932862417" y1="395.8461538461538" y2="395.8461538461538"></line></g></g><g transform="translate(538.3022062517011)"><g></g><g><line stroke="black" stroke-width="1.6" x1="380.15605240554726" x2="380.15605240554726" y1="405.8461538461538" y2="445.8461538461538"></line></g><g><g><path d="M123.460 501.486C127.460 501.486 132.380 497.766 132.380 493.966C132.380 491.686 130.580 490.206 127.980 490.206C123.060 490.206 119.100 493.846 119.100 497.726C119.100 500.086 121.020 501.486 123.460 501.486Z"></path></g><line stroke="#000000" stroke-width="1.2" x1="131.78028317477802" x2="131.78028317477802" y1="494.00615384615384" y2="424.00615384615384"></line><line stroke="#000000" stroke-width="2.2" x1="115.90028317477801" x2="137.820283174778" y1="455.8461538461538" y2="455.8461538461538"></line><line stroke="#000000" stroke-width="2.2" x1="115.90028317477801" x2="137.820283174778" y1="465.8461538461538" y2="465.8461538461538"></line><line stroke="#000000" stroke-width="2.2" x1="115.90028317477801" x2="137.820283174778" y1="475.8461538461538" y2="475.8461538461538"></line><line stroke="#000000" stroke-width="2.2" x1="115.90028317477801" x2="137.820283174778" y1="485.8461538461538" y2="485.8461538461538"></line><line stroke="#000000" stroke-width="2.2" x1="115.90028317477801" x2="137.820283174778" y1="495.8461538461538" y2="495.8461538461538"></line></g><g><g><path d="M210.212 501.486C214.212 501.486 219.132 497.766 219.132 493.966C219.132 491.686 217.332 490.206 214.732 490.206C209.812 490.206 205.852 493.846 205.852 497.726C205.852 500.086 207.772 501.486 210.212 501.486Z"></path></g><line stroke="#000000" stroke-width="1.2" x1="218.5322062517011" x2="218.5322062517011" y1="494.00615384615384" y2="424.00615384615384"></line><line stroke="#000000" stroke-width="2.2" x1="202.6522062517011" x2="224.5722062517011" y1="455.8461538461538" y2="455.8461538461538"></line><line stroke="#000000" stroke-width="2.2" x1="202.6522062517011" x2="224.5722062517011" y1="465.8461538461538" y2="465.8461538461538"></line><line stroke="#000000" stroke-width="2.2" x1="202.6522062517011" x2="224.5722062517011" y1="475.8461538461538" y2="475.8461538461538"></line><line stroke="#000000" stroke-width="2.2" x1="202.6522062517011" x2="224.5722062517011" y1="485.8461538461538" y2="485.8461538461538"></line><line stroke="#000000" stroke-width="2.2" x1="202.6522062517011" x2="224.5722062517011" y1="495.8461538461538" y2="495.8461538461538"></line></g><g><g><path d="M296.964 501.486C300.964 501.486 305.884 497.766 305.884 493.966C305.884 491.686 304.084 490.206 301.484 490.206C296.564 490.206 292.604 493.846 292.604 497.726C292.604 500.086 294.524 501.486 296.964 501.486Z"></path></g><line stroke="#000000" stroke-width="1.2" x1="305.28412932862415" x2="305.28412932862415" y1="494.00615384615384" y2="424.00615384615384"></line><line stroke="#000000" stroke-width="2.2" x1="289.40412932862415" x2="311.32412932862417" y1="455.8461538461538" y2="455.8461538461538"></line><line stroke="#000000" stroke-width="2.2" x1="289.40412932862415" x2="311.32412932862417" y1="465.8461538461538" y2="465.8461538461538"></line><line stroke="#000000" stroke-width="2.2" x1="289.40412932862415" x2="311.32412932862417" y1="475.8461538461538" y2="475.8461538461538"></line><line stroke="#000000" stroke-width="2.2" x1="289.40412932862415" x2="311.32412932862417" y1="485.8461538461538" y2="485.8461538461538"></line><line stroke="#000000" stroke-width="2.2" x1="289.40412932862415" x2="311.32412932862417" y1="495.8461538461538" y2="495.8461538461538"></line></g></g><g transform="translate(934.2582586572483)"><g></g><g><line stroke="black" stroke-width="1.6" x1="413.89705085673955" x2="413.89705085673955" y1="405.8461538461538" y2="445.8461538461538"></line></g><g><g><path d="M100.449 431.486C104.449 431.486 109.369 427.766 109.369 423.966C109.369 421.686 107.569 420.206 104.969 420.206C100.049 420.206 96.089 423.846 96.089 427.726C96.089 430.086 98.009 431.486 100.449 431.486Z"></path></g><line stroke="#000000" stroke-width="1.2" x1="96.6893585490472" x2="96.6893585490472" y1="427.6861538461538" y2="462.6861538461538"></line></g><g><g><path d="M187.201 431.486C191.201 431.486 196.121 427.766 196.121 423.966C196.121 421.686 194.321 420.206 191.721 420.206C186.801 420.206 182.841 423.846 182.841 427.726C182.841 430.086 184.761 431.486 187.201 431.486Z"></path></g><line stroke="#000000" stroke-width="1.2" x1="183.44128162597028" x2="183.44128162597028" y1="427.6861538461538" y2="462.6861538461538"></line></g><g><g><path d="M330.705 431.486C334.705 431.486 339.625 427.766 339.625 423.966C339.625 421.686 337.825 420.206 335.225 420.206C330.305 420.206 326.345 423.846 326.345 427.726C326.345 430.086 328.265 431.486 330.705 431.486Z"></path></g><line stroke="#000000" stroke-width="1.2" x1="326.94512777981646" x2="326.94512777981646" y1="427.6861538461538" y2="462.6861538461538"></line></g></g><g transform="translate(1363.955309513988)"><g></g><g><line stroke="black" stroke-width="1.6" x1="413.89705085673955" x2="413.89705085673955" y1="405.8461538461538" y2="445.8461538461538"></line></g><g><g><path d="M100.449 431.486C104.449 431.486 109.369 427.766 109.369 423.966C109.369 421.686 107.569 420.206 104.969 420.206C100.049 420.206 96.089 423.846 96.089 427.726C96.089 430.086 98.009 431.486 100.449 431.486Z"></path></g><line stroke="#000000" stroke-width="1.2" x1="96.6893585490472" x2="96.6893585490472" y1="427.6861538461538" y2="462.6861538461538"></line></g><g><g><path d="M187.201 431.486C191.201 431.486 196.121 427.766 196.121 423.966C196.121 421.686 194.321 420.206 191.721 420.206C186.801 420.206 182.841 423.846 182.841 427.726C182.841 430.086 184.761 431.486 187.201 431.486Z"></path></g><line stroke="#000000" stroke-width="1.2" x1="183.44128162597028" x2="183.44128162597028" y1="427.6861538461538" y2="462.6861538461538"></line></g><g><g><path d="M330.705 431.486C334.705 431.486 339.625 427.766 339.625 423.966C339.625 421.686 337.825 420.206 335.225 420.206C330.305 420.206 326.345 423.846 326.345 427.726C326.345 430.086 328.265 431.486 330.705 431.486Z"></path></g><line stroke="#000000" stroke-width="1.2" x1="326.94512777981646" x2="326.94512777981646" y1="427.6861538461538" y2="462.6861538461538"></line></g></g><g transform="translate(93.84615384615385)"><g><g><line stroke="#6A6A6A" stroke-width="1.3" x1="0" x2="1752.2882034269583" y1="621.8461538461538" y2="621.8461538461538"></line><line stroke="#6A6A6A" stroke-width="1.3" x1="0" x2="1752.2882034269583" y1="611.8461538461538" y2="611.8461538461538"></line><line stroke="#6A6A6A" stroke-width="1.3" x1="0" x2="1752.2882034269583" y1="601.8461538461538" y2="601.8461538461538"></line><line stroke="#6A6A6A" stroke-width="1.3" x1="0" x2="1752.2882034269583" y1="591.8461538461538" y2="591.8461538461538"></line><line stroke="#6A6A6A" stroke-width="1.3" x1="0" x2="1752.2882034269583" y1="581.8461538461538" y2="581.8461538461538"></line></g><g><path d="M25.200 567.926C24.640 567.926 23.400 568.966 22.600 569.846C19.640 573.126 18.680 578.126 18.680 582.286C18.680 584.606 18.960 587.206 19.240 588.846C19.320 589.326 19.360 589.406 18.880 589.806C16.320 591.926 13.560 594.366 11.480 596.926C8.720 600.366 7 604.086 7 608.366C7 615.326 11.760 621.926 21.560 621.926C22.480 621.926 23.520 621.846 24.320 621.686C24.760 621.606 24.840 621.566 24.920 622.046C25.400 624.726 26 628.206 26 630.086C26 636.006 22 636.726 19.640 636.726C17.480 636.726 16.440 636.086 16.440 635.566C16.440 635.126 16.800 635.166 17.720 634.886C18.960 634.526 20.400 633.446 20.400 631.126C20.400 628.926 19 627.046 16.560 627.046C13.880 627.046 12.280 629.166 12.280 631.646C12.280 634.246 13.840 638.166 19.880 638.166C22.560 638.166 27.760 636.966 27.760 630.166C27.760 627.886 27.040 624.086 26.600 621.606C26.520 621.126 26.560 621.166 27.120 620.926C31.160 619.326 33.840 615.926 33.840 611.406C33.840 606.286 30.080 601.766 24.200 601.766C23.080 601.766 23.200 601.966 23.040 601.046L22.040 595.246C21.960 594.766 22.040 594.726 22.280 594.486C22.920 593.886 23.760 593.046 24.520 592.206C27.880 588.526 29.880 583.766 29.880 579.246C29.880 575.766 28.920 572.326 27.280 569.926C26.680 569.046 25.640 567.926 25.200 567.926ZM20.040 596.086C20.440 595.766 20.520 595.806 20.600 596.246L21.440 601.366C21.560 602.126 21.560 602.086 20.840 602.326C17.320 603.526 15.040 606.686 15.040 610.086C15.040 613.686 16.920 616.246 19.640 617.166C19.960 617.286 20.440 617.406 20.720 617.406C21.040 617.406 21.200 617.206 21.200 616.966C21.200 616.686 20.880 616.566 20.600 616.446C18.920 615.726 17.720 614.006 17.720 612.166C17.720 609.886 19.280 608.166 21.720 607.486C22.360 607.326 22.440 607.366 22.520 607.806L24.520 619.726C24.600 620.166 24.560 620.166 23.960 620.286C23.320 620.406 22.520 620.486 21.720 620.486C14.720 620.486 10.200 616.606 10.200 611.046C10.200 608.686 10.600 605.526 13.920 601.766C16.320 599.086 18.160 597.606 20.040 596.086ZM24.640 607.166C27.880 607.446 30.560 610.166 30.560 613.686C30.560 616.206 29.040 618.246 26.800 619.366C26.320 619.606 26.240 619.606 26.160 619.126L24.200 607.726C24.120 607.246 24.160 607.126 24.640 607.166ZM25.800 574.126C27.120 574.126 28.200 575.206 28.200 577.406C28.200 580.166 26.880 582.726 23.760 585.846C23.120 586.486 22.160 587.406 21.240 588.206C20.960 588.446 20.800 588.406 20.720 587.886C20.560 586.846 20.480 585.486 20.480 584.206C20.480 577.966 23.360 574.126 25.800 574.126Z"></path></g><g></g><text font-family='Alegreya' font-style='italic' text-anchor='end' stroke='#7a7a7a' font-size="24" x="0" y="571.8461538461538">12</text></g><g><line stroke="black" stroke-width="1.6" x1="462.39705085673955" x2="462.39705085673955" y1="581.8461538461538" y2="621.8461538461538"></line></g><g><g><path d="M148.949 607.486C152.949 607.486 157.869 603.766 157.869 599.966C157.869 597.686 156.069 596.206 153.469 596.206C148.549 596.206 144.589 599.846 144.589 603.726C144.589 606.086 146.509 607.486 148.949 607.486Z"></path></g><line stroke="#000000" stroke-width="1.2" x1="145.1893585490472" x2="145.1893585490472" y1="603.6861538461538" y2="638.6861538461538"></line></g><g><g><path d="M235.701 607.486C239.701 607.486 244.621 603.766 244.621 599.966C244.621 597.686 242.821 596.206 240.221 596.206C235.301 596.206 231.341 599.846 231.341 603.726C231.341 606.086 233.261 607.486 235.701 607.486Z"></path></g><line stroke="#000000" stroke-width="1.2" x1="231.94128162597028" x2="231.94128162597028" y1="603.6861538461538" y2="638.6861538461538"></line></g><g><g><path d="M379.205 607.486C383.205 607.486 388.125 603.766 388.125 599.966C388.125 597.686 386.325 596.206 383.725 596.206C378.805 596.206 374.845 599.846 374.845 603.726C374.845 606.086 376.765 607.486 379.205 607.486Z"></path></g><line stroke="#000000" stroke-width="1.2" x1="375.44512777981646" x2="375.44512777981646" y1="603.6861538461538" y2="638.6861538461538"></line></g></g><g transform="translate(572.0432047028934)"><g></g><g><line stroke="black" stroke-width="1.6" x1="413.89705085673955" x2="413.89705085673955" y1="581.8461538461538" y2="621.8461538461538"></line></g><g><g><path d="M100.449 607.486C104.449 607.486 109.369 603.766 109.369 599.966C109.369 597.686 107.569 596.206 104.969 596.206C100.049 596.206 96.089 599.846 96.089 603.726C96.089 606.086 98.009 607.486 100.449 607.486Z"></path></g><line stroke="#000000" stroke-width="1.2" x1="96.6893585490472" x2="96.6893585490472" y1="603.6861538461538" y2="638.6861538461538"></line></g><g><g><path d="M187.201 607.486C191.201 607.486 196.121 603.766 196.121 599.966C196.121 597.686 194.321 596.206 191.721 596.206C186.801 596.206 182.841 599.846 182.841 603.726C182.841 606.086 184.761 607.486 187.201 607.486Z"></path></g><line stroke="#000000" stroke-width="1.2" x1="183.44128162597028" x2="183.44128162597028" y1="603.6861538461538" y2="638.6861538461538"></line></g><g><g><path d="M330.705 607.486C334.705 607.486 339.625 603.766 339.625 599.966C339.625 597.686 337.825 596.206 335.225 596.206C330.305 596.206 326.345 599.846 326.345 603.726C326.345 606.086 328.265 607.486 330.705 607.486Z"></path></g><line stroke="#000000" stroke-width="1.2" x1="326.94512777981646" x2="326.94512777981646" y1="603.6861538461538" y2="638.6861538461538"></line></g></g><g transform="translate(1001.7402555596329)"><g></g><g><line stroke="black" stroke-width="1.6" x1="413.89705085673955" x2="413.89705085673955" y1="581.8461538461538" y2="621.8461538461538"></line></g><g><g><path d="M100.449 607.486C104.449 607.486 109.369 603.766 109.369 599.966C109.369 597.686 107.569 596.206 104.969 596.206C100.049 596.206 96.089 599.846 96.089 603.726C96.089 606.086 98.009 607.486 100.449 607.486Z"></path></g><line stroke="#000000" stroke-width="1.2" x1="96.6893585490472" x2="96.6893585490472" y1="603.6861538461538" y2="638.6861538461538"></line></g><g><g><path d="M187.201 607.486C191.201 607.486 196.121 603.766 196.121 599.966C196.121 597.686 194.321 596.206 191.721 596.206C186.801 596.206 182.841 599.846 182.841 603.726C182.841 606.086 184.761 607.486 187.201 607.486Z"></path></g><line stroke="#000000" stroke-width="1.2" x1="183.44128162597028" x2="183.44128162597028" y1="603.6861538461538" y2="638.6861538461538"></line></g><g><g><path d="M330.705 607.486C334.705 607.486 339.625 603.766 339.625 599.966C339.625 597.686 337.825 596.206 335.225 596.206C330.305 596.206 326.345 599.846 326.345 603.726C326.345 606.086 328.265 607.486 330.705 607.486Z"></path></g><line stroke="#000000" stroke-width="1.2" x1="326.94512777981646" x2="326.94512777981646" y1="603.6861538461538" y2="638.6861538461538"></line></g></g><g transform="translate(1431.4373064163724)"><g></g><g><line stroke="black" stroke-width="1.6" x1="413.89705085673955" x2="413.89705085673955" y1="581.8461538461538" y2="621.8461538461538"></line></g><g><g><path d="M100.449 607.486C104.449 607.486 109.369 603.766 109.369 599.966C109.369 597.686 107.569 596.206 104.969 596.206C100.049 596.206 96.089 599.846 96.089 603.726C96.089 606.086 98.009 607.486 100.449 607.486Z"></path></g><line stroke="#000000" stroke-width="1.2" x1="96.6893585490472" x2="96.6893585490472" y1="603.6861538461538" y2="638.6861538461538"></line></g><g><g><path d="M187.201 607.486C191.201 607.486 196.121 603.766 196.121 599.966C196.121 597.686 194.321 596.206 191.721 596.206C186.801 596.206 182.841 599.846 182.841 603.726C182.841 606.086 184.761 607.486 187.201 607.486Z"></path></g><line stroke="#000000" stroke-width="1.2" x1="183.44128162597028" x2="183.44128162597028" y1="603.6861538461538" y2="638.6861538461538"></line></g><g><g><path d="M330.705 607.486C334.705 607.486 339.625 603.766 339.625 599.966C339.625 597.686 337.825 596.206 335.225 596.206C330.305 596.206 326.345 599.846 326.345 603.726C326.345 606.086 328.265 607.486 330.705 607.486Z"></path></g><line stroke="#000000" stroke-width="1.2" x1="326.94512777981646" x2="326.94512777981646" y1="603.6861538461538" y2="638.6861538461538"></line></g></g><g transform="translate(93.84615384615385)"><g><g><line stroke="#6A6A6A" stroke-width="1.3" x1="0" x2="1617.3242096221888" y1="752.8461538461538" y2="752.8461538461538"></line><line stroke="#6A6A6A" stroke-width="1.3" x1="0" x2="1617.3242096221888" y1="742.8461538461538" y2="742.8461538461538"></line><line stroke="#6A6A6A" stroke-width="1.3" x1="0" x2="1617.3242096221888" y1="732.8461538461538" y2="732.8461538461538"></line><line stroke="#6A6A6A" stroke-width="1.3" x1="0" x2="1617.3242096221888" y1="722.8461538461538" y2="722.8461538461538"></line><line stroke="#6A6A6A" stroke-width="1.3" x1="0" x2="1617.3242096221888" y1="712.8461538461538" y2="712.8461538461538"></line></g><g><path d="M25.200 698.926C24.640 698.926 23.400 699.966 22.600 700.846C19.640 704.126 18.680 709.126 18.680 713.286C18.680 715.606 18.960 718.206 19.240 719.846C19.320 720.326 19.360 720.406 18.880 720.806C16.320 722.926 13.560 725.366 11.480 727.926C8.720 731.366 7 735.086 7 739.366C7 746.326 11.760 752.926 21.560 752.926C22.480 752.926 23.520 752.846 24.320 752.686C24.760 752.606 24.840 752.566 24.920 753.046C25.400 755.726 26 759.206 26 761.086C26 767.006 22 767.726 19.640 767.726C17.480 767.726 16.440 767.086 16.440 766.566C16.440 766.126 16.800 766.166 17.720 765.886C18.960 765.526 20.400 764.446 20.400 762.126C20.400 759.926 19 758.046 16.560 758.046C13.880 758.046 12.280 760.166 12.280 762.646C12.280 765.246 13.840 769.166 19.880 769.166C22.560 769.166 27.760 767.966 27.760 761.166C27.760 758.886 27.040 755.086 26.600 752.606C26.520 752.126 26.560 752.166 27.120 751.926C31.160 750.326 33.840 746.926 33.840 742.406C33.840 737.286 30.080 732.766 24.200 732.766C23.080 732.766 23.200 732.966 23.040 732.046L22.040 726.246C21.960 725.766 22.040 725.726 22.280 725.486C22.920 724.886 23.760 724.046 24.520 723.206C27.880 719.526 29.880 714.766 29.880 710.246C29.880 706.766 28.920 703.326 27.280 700.926C26.680 700.046 25.640 698.926 25.200 698.926ZM20.040 727.086C20.440 726.766 20.520 726.806 20.600 727.246L21.440 732.366C21.560 733.126 21.560 733.086 20.840 733.326C17.320 734.526 15.040 737.686 15.040 741.086C15.040 744.686 16.920 747.246 19.640 748.166C19.960 748.286 20.440 748.406 20.720 748.406C21.040 748.406 21.200 748.206 21.200 747.966C21.200 747.686 20.880 747.566 20.600 747.446C18.920 746.726 17.720 745.006 17.720 743.166C17.720 740.886 19.280 739.166 21.720 738.486C22.360 738.326 22.440 738.366 22.520 738.806L24.520 750.726C24.600 751.166 24.560 751.166 23.960 751.286C23.320 751.406 22.520 751.486 21.720 751.486C14.720 751.486 10.200 747.606 10.200 742.046C10.200 739.686 10.600 736.526 13.920 732.766C16.320 730.086 18.160 728.606 20.040 727.086ZM24.640 738.166C27.880 738.446 30.560 741.166 30.560 744.686C30.560 747.206 29.040 749.246 26.800 750.366C26.320 750.606 26.240 750.606 26.160 750.126L24.200 738.726C24.120 738.246 24.160 738.126 24.640 738.166ZM25.800 705.126C27.120 705.126 28.200 706.206 28.200 708.406C28.200 711.166 26.880 713.726 23.760 716.846C23.120 717.486 22.160 718.406 21.240 719.206C20.960 719.446 20.800 719.406 20.720 718.886C20.560 717.846 20.480 716.486 20.480 715.206C20.480 708.966 23.360 705.126 25.800 705.126Z"></path></g><g></g><text font-family='Alegreya' font-style='italic' text-anchor='end' stroke='#7a7a7a' font-size="24" x="0" y="702.8461538461538">16</text></g><g><line stroke="black" stroke-width="1.6" x1="428.65605240554726" x2="428.65605240554726" y1="712.8461538461538" y2="752.8461538461538"></line></g><g><g><path d="M171.960 738.486C175.960 738.486 180.880 734.766 180.880 730.966C180.880 728.686 179.080 727.206 176.480 727.206C171.560 727.206 167.600 730.846 167.600 734.726C167.600 737.086 169.520 738.486 171.960 738.486Z"></path></g><line stroke="#000000" stroke-width="1.2" x1="168.200283174778" x2="168.200283174778" y1="734.6861538461538" y2="769.6861538461538"></line></g><g><g><path d="M258.712 718.486C262.712 718.486 267.632 714.766 267.632 710.966C267.632 708.686 265.832 707.206 263.232 707.206C258.312 707.206 254.352 710.846 254.352 714.726C254.352 717.086 256.272 718.486 258.712 718.486Z"></path></g><line stroke="#000000" stroke-width="1.2" x1="254.95220625170109" x2="254.95220625170109" y1="714.6861538461538" y2="749.6861538461538"></line></g><g><path d="M350.424 739.286C348.904 737.446 347.664 735.966 347.664 733.726C347.664 733.566 347.704 733.366 347.704 733.206C347.864 730.886 349.304 728.966 350.344 727.326C350.464 727.126 350.504 726.926 350.504 726.726C350.504 726.326 350.344 725.966 350.344 725.966C350.344 725.966 344.424 718.926 343.744 718.246C343.544 718.046 343.264 717.926 343.024 717.926C342.624 717.926 342.224 718.206 342.224 718.766C342.224 718.966 342.264 719.166 342.384 719.406C342.544 719.846 344.824 721.886 344.824 724.766C344.824 726.246 344.224 727.966 342.424 729.846C342.024 730.246 341.864 730.686 341.864 731.006C341.864 731.566 342.264 731.966 342.264 731.966L344.224 734.366C344.864 735.166 345.424 735.926 345.944 736.766C346.024 736.926 346.184 737.126 346.184 737.326C346.184 737.366 346.184 737.446 346.144 737.486C346.064 737.646 345.904 737.686 345.704 737.686C345.464 737.686 345.224 737.606 345.064 737.566C344.864 737.566 344.624 737.446 344.424 737.446C342.704 737.446 341.144 739.166 341.144 741.286C341.144 743.286 342.864 745.246 345.784 747.486C346.104 747.726 346.504 747.846 346.824 747.846C347.104 747.846 347.384 747.766 347.424 747.606C347.464 747.486 347.504 747.406 347.504 747.326C347.504 746.966 347.184 746.646 346.864 746.366C346.344 746.366 345.904 745.286 345.824 744.926C345.704 744.606 345.664 744.246 345.664 743.886C345.664 742.646 346.264 741.246 347.544 741.006C347.744 740.966 347.944 740.966 348.184 740.966C349.344 740.966 350.664 741.406 351.304 741.646C351.344 741.646 351.384 741.686 351.424 741.686C351.544 741.726 351.624 741.726 351.704 741.726C351.824 741.726 351.904 741.686 351.904 741.566C351.904 741.086 350.864 739.766 350.424 739.286Z"></path></g></g><g transform="translate(538.3022062517011)"><g></g><g><line stroke="black" stroke-width="1.6" x1="380.15605240554726" x2="380.15605240554726" y1="712.8461538461538" y2="752.8461538461538"></line></g><g><g><path d="M123.460 738.486C127.460 738.486 132.380 734.766 132.380 730.966C132.380 728.686 130.580 727.206 127.980 727.206C123.060 727.206 119.100 730.846 119.100 734.726C119.100 737.086 121.020 738.486 123.460 738.486Z"></path></g><line stroke="#000000" stroke-width="1.2" x1="119.70028317477801" x2="119.70028317477801" y1="734.6861538461538" y2="769.6861538461538"></line></g><g><g><path d="M210.212 733.486C214.212 733.486 219.132 729.766 219.132 725.966C219.132 723.686 217.332 722.206 214.732 722.206C209.812 722.206 205.852 725.846 205.852 729.726C205.852 732.086 207.772 733.486 210.212 733.486Z"></path></g><line stroke="#000000" stroke-width="1.2" x1="206.45220625170109" x2="206.45220625170109" y1="729.6861538461538" y2="764.6861538461538"></line></g><g><path d="M301.924 739.286C300.404 737.446 299.164 735.966 299.164 733.726C299.164 733.566 299.204 733.366 299.204 733.206C299.364 730.886 300.804 728.966 301.844 727.326C301.964 727.126 302.004 726.926 302.004 726.726C302.004 726.326 301.844 725.966 301.844 725.966C301.844 725.966 295.924 718.926 295.244 718.246C295.044 718.046 294.764 717.926 294.524 717.926C294.124 717.926 293.724 718.206 293.724 718.766C293.724 718.966 293.764 719.166 293.884 719.406C294.044 719.846 296.324 721.886 296.324 724.766C296.324 726.246 295.724 727.966 293.924 729.846C293.524 730.246 293.364 730.686 293.364 731.006C293.364 731.566 293.764 731.966 293.764 731.966L295.724 734.366C296.364 735.166 296.924 735.926 297.444 736.766C297.524 736.926 297.684 737.126 297.684 737.326C297.684 737.366 297.684 737.446 297.644 737.486C297.564 737.646 297.404 737.686 297.204 737.686C296.964 737.686 296.724 737.606 296.564 737.566C296.364 737.566 296.124 737.446 295.924 737.446C294.204 737.446 292.644 739.166 292.644 741.286C292.644 743.286 294.364 745.246 297.284 747.486C297.604 747.726 298.004 747.846 298.324 747.846C298.604 747.846 298.884 747.766 298.924 747.606C298.964 747.486 299.004 747.406 299.004 747.326C299.004 746.966 298.684 746.646 298.364 746.366C297.844 746.366 297.404 745.286 297.324 744.926C297.204 744.606 297.164 744.246 297.164 743.886C297.164 742.646 297.764 741.246 299.044 741.006C299.244 740.966 299.444 740.966 299.684 740.966C300.844 740.966 302.164 741.406 302.804 741.646C302.844 741.646 302.884 741.686 302.924 741.686C303.044 741.726 303.124 741.726 303.204 741.726C303.324 741.726 303.404 741.686 303.404 741.566C303.404 741.086 302.364 739.766 301.924 739.286Z"></path></g></g><g transform="translate(934.2582586572483)"><g></g><g><line stroke="black" stroke-width="1.6" x1="380.15605240554726" x2="380.15605240554726" y1="712.8461538461538" y2="752.8461538461538"></line></g><g><g><path d="M123.460 738.486C127.460 738.486 132.380 734.766 132.380 730.966C132.380 728.686 130.580 727.206 127.980 727.206C123.060 727.206 119.100 730.846 119.100 734.726C119.100 737.086 121.020 738.486 123.460 738.486Z"></path></g><line stroke="#000000" stroke-width="1.2" x1="131.78028317477802" x2="131.78028317477802" y1="731.0061538461538" y2="696.0061538461538"></line></g><g><g><path d="M210.212 768.486C214.212 768.486 219.132 764.766 219.132 760.966C219.132 758.686 217.332 757.206 214.732 757.206C209.812 757.206 205.852 760.846 205.852 764.726C205.852 767.086 207.772 768.486 210.212 768.486Z"></path></g><line stroke="#000000" stroke-width="1.2" x1="218.5322062517011" x2="218.5322062517011" y1="761.0061538461538" y2="726.0061538461538"></line><line stroke="#000000" stroke-width="2.2" x1="202.6522062517011" x2="224.5722062517011" y1="762.8461538461538" y2="762.8461538461538"></line></g><g><path d="M301.924 739.286C300.404 737.446 299.164 735.966 299.164 733.726C299.164 733.566 299.204 733.366 299.204 733.206C299.364 730.886 300.804 728.966 301.844 727.326C301.964 727.126 302.004 726.926 302.004 726.726C302.004 726.326 301.844 725.966 301.844 725.966C301.844 725.966 295.924 718.926 295.244 718.246C295.044 718.046 294.764 717.926 294.524 717.926C294.124 717.926 293.724 718.206 293.724 718.766C293.724 718.966 293.764 719.166 293.884 719.406C294.044 719.846 296.324 721.886 296.324 724.766C296.324 726.246 295.724 727.966 293.924 729.846C293.524 730.246 293.364 730.686 293.364 731.006C293.364 731.566 293.764 731.966 293.764 731.966L295.724 734.366C296.364 735.166 296.924 735.926 297.444 736.766C297.524 736.926 297.684 737.126 297.684 737.326C297.684 737.366 297.684 737.446 297.644 737.486C297.564 737.646 297.404 737.686 297.204 737.686C296.964 737.686 296.724 737.606 296.564 737.566C296.364 737.566 296.124 737.446 295.924 737.446C294.204 737.446 292.644 739.166 292.644 741.286C292.644 743.286 294.364 745.246 297.284 747.486C297.604 747.726 298.004 747.846 298.324 747.846C298.604 747.846 298.884 747.766 298.924 747.606C298.964 747.486 299.004 747.406 299.004 747.326C299.004 746.966 298.684 746.646 298.364 746.366C297.844 746.366 297.404 745.286 297.324 744.926C297.204 744.606 297.164 744.246 297.164 743.886C297.164 742.646 297.764 741.246 299.044 741.006C299.244 740.966 299.444 740.966 299.684 740.966C300.844 740.966 302.164 741.406 302.804 741.646C302.844 741.646 302.884 741.686 302.924 741.686C303.044 741.726 303.124 741.726 303.204 741.726C303.324 741.726 303.404 741.686 303.404 741.566C303.404 741.086 302.364 739.766 301.924 739.286Z"></path></g></g><g transform="translate(1330.2143110627958)"><g></g><g><line stroke="black" stroke-width="1.6" x1="380.15605240554726" x2="380.15605240554726" y1="712.8461538461538" y2="752.8461538461538"></line></g><g><g><path d="M123.460 738.486C127.460 738.486 132.380 734.766 132.380 730.966C132.380 728.686 130.580 727.206 127.980 727.206C123.060 727.206 119.100 730.846 119.100 734.726C119.100 737.086 121.020 738.486 123.460 738.486Z"></path></g><line stroke="#000000" stroke-width="1.2" x1="119.70028317477801" x2="119.70028317477801" y1="734.6861538461538" y2="769.6861538461538"></line></g><g><g><path d="M210.212 738.486C214.212 738.486 219.132 734.766 219.132 730.966C219.132 728.686 217.332 727.206 214.732 727.206C209.812 727.206 205.852 730.846 205.852 734.726C205.852 737.086 207.772 738.486 210.212 738.486Z"></path></g><line stroke="#000000" stroke-width="1.2" x1="206.45220625170109" x2="206.45220625170109" y1="734.6861538461538" y2="769.6861538461538"></line></g><g><g><path d="M296.964 738.486C300.964 738.486 305.884 734.766 305.884 730.966C305.884 728.686 304.084 727.206 301.484 727.206C296.564 727.206 292.604 730.846 292.604 734.726C292.604 737.086 294.524 738.486 296.964 738.486Z"></path></g><line stroke="#000000" stroke-width="1.2" x1="293.20412932862416" x2="293.20412932862416" y1="734.6861538461538" y2="769.6861538461538"></line></g></g><g transform="translate(93.84615384615385)"><g><g><line stroke="#6A6A6A" stroke-width="1.3" x1="0" x2="957.7025453958183" y1="888.8461538461538" y2="888.8461538461538"></line><line stroke="#6A6A6A" stroke-width="1.3" x1="0" x2="957.7025453958183" y1="878.8461538461538" y2="878.8461538461538"></line><line stroke="#6A6A6A" stroke-width="1.3" x1="0" x2="957.7025453958183" y1="868.8461538461538" y2="868.8461538461538"></line><line stroke="#6A6A6A" stroke-width="1.3" x1="0" x2="957.7025453958183" y1="858.8461538461538" y2="858.8461538461538"></line><line stroke="#6A6A6A" stroke-width="1.3" x1="0" x2="957.7025453958183" y1="848.8461538461538" y2="848.8461538461538"></line></g><g><path d="M25.200 834.926C24.640 834.926 23.400 835.966 22.600 836.846C19.640 840.126 18.680 845.126 18.680 849.286C18.680 851.606 18.960 854.206 19.240 855.846C19.320 856.326 19.360 856.406 18.880 856.806C16.320 858.926 13.560 861.366 11.480 863.926C8.720 867.366 7 871.086 7 875.366C7 882.326 11.760 888.926 21.560 888.926C22.480 888.926 23.520 888.846 24.320 888.686C24.760 888.606 24.840 888.566 24.920 889.046C25.400 891.726 26 895.206 26 897.086C26 903.006 22 903.726 19.640 903.726C17.480 903.726 16.440 903.086 16.440 902.566C16.440 902.126 16.800 902.166 17.720 901.886C18.960 901.526 20.400 900.446 20.400 898.126C20.400 895.926 19 894.046 16.560 894.046C13.880 894.046 12.280 896.166 12.280 898.646C12.280 901.246 13.840 905.166 19.880 905.166C22.560 905.166 27.760 903.966 27.760 897.166C27.760 894.886 27.040 891.086 26.600 888.606C26.520 888.126 26.560 888.166 27.120 887.926C31.160 886.326 33.840 882.926 33.840 878.406C33.840 873.286 30.080 868.766 24.200 868.766C23.080 868.766 23.200 868.966 23.040 868.046L22.040 862.246C21.960 861.766 22.040 861.726 22.280 861.486C22.920 860.886 23.760 860.046 24.520 859.206C27.880 855.526 29.880 850.766 29.880 846.246C29.880 842.766 28.920 839.326 27.280 836.926C26.680 836.046 25.640 834.926 25.200 834.926ZM20.040 863.086C20.440 862.766 20.520 862.806 20.600 863.246L21.440 868.366C21.560 869.126 21.560 869.086 20.840 869.326C17.320 870.526 15.040 873.686 15.040 877.086C15.040 880.686 16.920 883.246 19.640 884.166C19.960 884.286 20.440 884.406 20.720 884.406C21.040 884.406 21.200 884.206 21.200 883.966C21.200 883.686 20.880 883.566 20.600 883.446C18.920 882.726 17.720 881.006 17.720 879.166C17.720 876.886 19.280 875.166 21.720 874.486C22.360 874.326 22.440 874.366 22.520 874.806L24.520 886.726C24.600 887.166 24.560 887.166 23.960 887.286C23.320 887.406 22.520 887.486 21.720 887.486C14.720 887.486 10.200 883.606 10.200 878.046C10.200 875.686 10.600 872.526 13.920 868.766C16.320 866.086 18.160 864.606 20.040 863.086ZM24.640 874.166C27.880 874.446 30.560 877.166 30.560 880.686C30.560 883.206 29.040 885.246 26.800 886.366C26.320 886.606 26.240 886.606 26.160 886.126L24.200 874.726C24.120 874.246 24.160 874.126 24.640 874.166ZM25.800 841.126C27.120 841.126 28.200 842.206 28.200 844.406C28.200 847.166 26.880 849.726 23.760 852.846C23.120 853.486 22.160 854.406 21.240 855.206C20.960 855.446 20.800 855.406 20.720 854.886C20.560 853.846 20.480 852.486 20.480 851.206C20.480 844.966 23.360 841.126 25.800 841.126Z"></path></g><g></g><text font-family='Alegreya' font-style='italic' text-anchor='end' stroke='#7a7a7a' font-size="24" x="0" y="838.8461538461538">20</text></g><g><line stroke="black" stroke-width="1.6" x1="256.3282567606359" x2="256.3282567606359" y1="848.8461538461538" y2="888.8461538461538"></line></g><g><g><path d="M101.029 874.486C105.029 874.486 109.949 870.766 109.949 866.966C109.949 864.686 108.149 863.206 105.549 863.206C100.629 863.206 96.669 866.846 96.669 870.726C96.669 873.086 98.589 874.486 101.029 874.486Z"></path></g><g><line stroke="#000000" stroke-width="1.2" x1="97.26936920368064" x2="97.26936920368064" y1="870.6861538461538" y2="905.6861538461538"></line><path d="M103.229 894.366L103.229 889.366L91.229 891.846L91.229 896.846ZM103.229 896.806L91.229 899.326L91.229 904.326L103.229 901.806Z"></path></g></g><g><g><path d="M153.982 874.486C157.982 874.486 162.902 870.766 162.902 866.966C162.902 864.686 161.102 863.206 158.502 863.206C153.582 863.206 149.622 866.846 149.622 870.726C149.622 873.086 151.542 874.486 153.982 874.486Z"></path></g><g><line stroke="#000000" stroke-width="1.2" x1="150.22233172266573" x2="150.22233172266573" y1="870.6861538461538" y2="905.6861538461538"></line><path d="M156.182 894.366L156.182 889.366L144.182 891.846L144.182 896.846ZM156.182 896.806L144.182 899.326L144.182 904.326L156.182 901.806Z"></path></g></g><g><path d="M211.895 875.286C210.375 873.446 209.135 871.966 209.135 869.726C209.135 869.566 209.175 869.366 209.175 869.206C209.335 866.886 210.775 864.966 211.815 863.326C211.935 863.126 211.975 862.926 211.975 862.726C211.975 862.326 211.815 861.966 211.815 861.966C211.815 861.966 205.895 854.926 205.215 854.246C205.015 854.046 204.735 853.926 204.495 853.926C204.095 853.926 203.695 854.206 203.695 854.766C203.695 854.966 203.735 855.166 203.855 855.406C204.015 855.846 206.295 857.886 206.295 860.766C206.295 862.246 205.695 863.966 203.895 865.846C203.495 866.246 203.335 866.686 203.335 867.006C203.335 867.566 203.735 867.966 203.735 867.966L205.695 870.366C206.335 871.166 206.895 871.926 207.415 872.766C207.495 872.926 207.655 873.126 207.655 873.326C207.655 873.366 207.655 873.446 207.615 873.486C207.535 873.646 207.375 873.686 207.175 873.686C206.935 873.686 206.695 873.606 206.535 873.566C206.335 873.566 206.095 873.446 205.895 873.446C204.175 873.446 202.615 875.166 202.615 877.286C202.615 879.286 204.335 881.246 207.255 883.486C207.575 883.726 207.975 883.846 208.295 883.846C208.575 883.846 208.855 883.766 208.895 883.606C208.935 883.486 208.975 883.406 208.975 883.326C208.975 882.966 208.655 882.646 208.335 882.366C207.815 882.366 207.375 881.286 207.295 880.926C207.175 880.606 207.135 880.246 207.135 879.886C207.135 878.646 207.735 877.246 209.015 877.006C209.215 876.966 209.415 876.966 209.655 876.966C210.815 876.966 212.135 877.406 212.775 877.646C212.815 877.646 212.855 877.686 212.895 877.686C213.015 877.726 213.095 877.726 213.175 877.726C213.295 877.726 213.375 877.686 213.375 877.566C213.375 877.086 212.335 875.766 211.895 875.286Z"></path></g></g><g transform="translate(365.9744106067898)"><g></g><g><line stroke="black" stroke-width="1.6" x1="207.82825676063592" x2="207.82825676063592" y1="848.8461538461538" y2="888.8461538461538"></line></g><g><g><path d="M52.529 874.486C56.529 874.486 61.449 870.766 61.449 866.966C61.449 864.686 59.649 863.206 57.049 863.206C52.129 863.206 48.169 866.846 48.169 870.726C48.169 873.086 50.089 874.486 52.529 874.486Z"></path></g><line stroke="#000000" stroke-width="1.2" x1="48.76936920368064" x2="48.76936920368064" y1="870.6861538461538" y2="905.6861538461538"></line></g><g><g><path d="M105.482 874.486C109.482 874.486 114.402 870.766 114.402 866.966C114.402 864.686 112.602 863.206 110.002 863.206C105.082 863.206 101.122 866.846 101.122 870.726C101.122 873.086 103.042 874.486 105.482 874.486Z"></path></g><line stroke="#000000" stroke-width="1.2" x1="101.72233172266573" x2="101.72233172266573" y1="870.6861538461538" y2="905.6861538461538"></line></g><g><path d="M163.395 875.286C161.875 873.446 160.635 871.966 160.635 869.726C160.635 869.566 160.675 869.366 160.675 869.206C160.835 866.886 162.275 864.966 163.315 863.326C163.435 863.126 163.475 862.926 163.475 862.726C163.475 862.326 163.315 861.966 163.315 861.966C163.315 861.966 157.395 854.926 156.715 854.246C156.515 854.046 156.235 853.926 155.995 853.926C155.595 853.926 155.195 854.206 155.195 854.766C155.195 854.966 155.235 855.166 155.355 855.406C155.515 855.846 157.795 857.886 157.795 860.766C157.795 862.246 157.195 863.966 155.395 865.846C154.995 866.246 154.835 866.686 154.835 867.006C154.835 867.566 155.235 867.966 155.235 867.966L157.195 870.366C157.835 871.166 158.395 871.926 158.915 872.766C158.995 872.926 159.155 873.126 159.155 873.326C159.155 873.366 159.155 873.446 159.115 873.486C159.035 873.646 158.875 873.686 158.675 873.686C158.435 873.686 158.195 873.606 158.035 873.566C157.835 873.566 157.595 873.446 157.395 873.446C155.675 873.446 154.115 875.166 154.115 877.286C154.115 879.286 155.835 881.246 158.755 883.486C159.075 883.726 159.475 883.846 159.795 883.846C160.075 883.846 160.355 883.766 160.395 883.606C160.435 883.486 160.475 883.406 160.475 883.326C160.475 882.966 160.155 882.646 159.835 882.366C159.315 882.366 158.875 881.286 158.795 880.926C158.675 880.606 158.635 880.246 158.635 879.886C158.635 878.646 159.235 877.246 160.515 877.006C160.715 876.966 160.915 876.966 161.155 876.966C162.315 876.966 163.635 877.406 164.275 877.646C164.315 877.646 164.355 877.686 164.395 877.686C164.515 877.726 164.595 877.726 164.675 877.726C164.795 877.726 164.875 877.686 164.875 877.566C164.875 877.086 163.835 875.766 163.395 875.286Z"></path></g></g><g transform="translate(589.6026673674257)"><g></g><g><line stroke="black" stroke-width="1.6" x1="207.82825676063592" x2="207.82825676063592" y1="848.8461538461538" y2="888.8461538461538"></line></g><g><g><path d="M52.529 874.486C56.529 874.486 61.449 870.766 61.449 866.966C61.449 864.686 59.649 863.206 57.049 863.206C52.129 863.206 48.169 866.846 48.169 870.726C48.169 873.086 50.089 874.486 52.529 874.486Z"></path></g><line stroke="#000000" stroke-width="1.2" x1="48.76936920368064" x2="48.76936920368064" y1="870.6861538461538" y2="905.6861538461538"></line></g><g><g><path d="M105.482 874.486C109.482 874.486 114.402 870.766 114.402 866.966C114.402 864.686 112.602 863.206 110.002 863.206C105.082 863.206 101.122 866.846 101.122 870.726C101.122 873.086 103.042 874.486 105.482 874.486Z"></path></g><line stroke="#000000" stroke-width="1.2" x1="101.72233172266573" x2="101.72233172266573" y1="870.6861538461538" y2="905.6861538461538"></line></g><g><path d="M163.395 875.286C161.875 873.446 160.635 871.966 160.635 869.726C160.635 869.566 160.675 869.366 160.675 869.206C160.835 866.886 162.275 864.966 163.315 863.326C163.435 863.126 163.475 862.926 163.475 862.726C163.475 862.326 163.315 861.966 163.315 861.966C163.315 861.966 157.395 854.926 156.715 854.246C156.515 854.046 156.235 853.926 155.995 853.926C155.595 853.926 155.195 854.206 155.195 854.766C155.195 854.966 155.235 855.166 155.355 855.406C155.515 855.846 157.795 857.886 157.795 860.766C157.795 862.246 157.195 863.966 155.395 865.846C154.995 866.246 154.835 866.686 154.835 867.006C154.835 867.566 155.235 867.966 155.235 867.966L157.195 870.366C157.835 871.166 158.395 871.926 158.915 872.766C158.995 872.926 159.155 873.126 159.155 873.326C159.155 873.366 159.155 873.446 159.115 873.486C159.035 873.646 158.875 873.686 158.675 873.686C158.435 873.686 158.195 873.606 158.035 873.566C157.835 873.566 157.595 873.446 157.395 873.446C155.675 873.446 154.115 875.166 154.115 877.286C154.115 879.286 155.835 881.246 158.755 883.486C159.075 883.726 159.475 883.846 159.795 883.846C160.075 883.846 160.355 883.766 160.395 883.606C160.435 883.486 160.475 883.406 160.475 883.326C160.475 882.966 160.155 882.646 159.835 882.366C159.315 882.366 158.875 881.286 158.795 880.926C158.675 880.606 158.635 880.246 158.635 879.886C158.635 878.646 159.235 877.246 160.515 877.006C160.715 876.966 160.915 876.966 161.155 876.966C162.315 876.966 163.635 877.406 164.275 877.646C164.315 877.646 164.355 877.686 164.395 877.686C164.515 877.726 164.595 877.726 164.675 877.726C164.795 877.726 164.875 877.686 164.875 877.566C164.875 877.086 163.835 875.766 163.395 875.286Z"></path></g></g><g transform="translate(813.2309241280616)"><g></g><g><line stroke="#000000" stroke-width="1.6" x1="228.51777511391057" x2="228.51777511391057" y1="848.8461538461538" y2="888.8461538461538"></line><line stroke="#000000" stroke-width="5" x1="235.81777511391056" x2="235.81777511391056" y1="848.8461538461538" y2="888.8461538461538"></line></g><g><g><path d="M27.313 874.486C31.313 874.486 36.233 870.766 36.233 866.966C36.233 864.686 34.433 863.206 31.833 863.206C26.913 863.206 22.953 866.846 22.953 870.726C22.953 873.086 24.873 874.486 27.313 874.486Z"></path></g><line stroke="#000000" stroke-width="1.2" x1="23.552962518985098" x2="23.552962518985098" y1="870.6861538461538" y2="905.6861538461538"></line></g><g><g><path d="M103.219 874.486C107.219 874.486 112.139 870.766 112.139 866.966C112.139 864.686 110.339 863.206 107.739 863.206C102.819 863.206 98.859 866.846 98.859 870.726C98.859 873.086 100.779 874.486 103.219 874.486Z"></path></g><line stroke="#000000" stroke-width="1.2" x1="99.45888755695529" x2="99.45888755695529" y1="870.6861538461538" y2="905.6861538461538"></line></g><g><g><path d="M179.125 874.486C183.125 874.486 188.045 870.766 188.045 866.966C188.045 864.686 186.245 863.206 183.645 863.206C178.725 863.206 174.765 866.846 174.765 870.726C174.765 873.086 176.685 874.486 179.125 874.486Z"></path></g><line stroke="#000000" stroke-width="1.2" x1="175.36481259492547" x2="175.36481259492547" y1="870.6861538461538" y2="905.6861538461538"></line></g></g></svg>