<?xml version="1.0" encoding="UTF-8" standalone="no"?><svg xmlns="http://www.w3.org/2000/svg" height="279.4mm" viewBox="0 0 1328.6153846153845 1719.3846153846152" width="215.9mm"><g transform="translate(163.84615384615387)"><g><g><line stroke="#6A6A6A" stroke-width="1.3" x1="0" x2="502.40472092927007" y1="216.3461538461538" y2="216.3461538461538"></line><line stroke="#6A6A6A" stroke-width="1.3" x1="0" x2="502.40472092927007" y1="206.3461538461538" y2="206.3461538461538"></line><line stroke="#6A6A6A" stroke-width="1.3" x1="0" x2="502.40472092927007" y1="196.3461538461538" y2="196.3461538461538"></line><line stroke="#6A6A6A" stroke-width="1.3" x1="0" x2="502.40472092927007" y1="186.3461538461538" y2="186.3461538461538"></line><line stroke="#6A6A6A" stroke-width="1.3" x1="0" x2="502.40472092927007" y1="176.3461538461538" y2="176.3461538461538"></line></g><g><path d="M25.200 162.426C24.640 162.426 23.400 163.466 22.600 164.346C19.640 167.626 18.680 172.626 18.680 176.786C18.680 179.106 18.960 181.706 19.240 183.346C19.320 183.826 19.360 183.906 18.880 184.306C16.320 186.426 13.560 188.866 11.480 191.426C8.720 194.866 7 198.586 7 202.866C7 209.826 11.760 216.426 21.560 216.426C22.480 216.426 23.520 216.346 24.320 216.186C24.760 216.106 24.840 216.066 24.920 216.546C25.400 219.226 26 222.706 26 224.586C26 230.506 22 231.226 19.640 231.226C17.480 231.226 16.440 230.586 16.440 230.066C16.440 229.626 16.800 229.666 17.720 229.386C18.960 229.026 20.400 227.946 20.400 225.626C20.400 223.426 19 221.546 16.560 221.546C13.880 221.546 12.280 223.666 12.280 226.146C12.280 228.746 13.840 232.666 19.880 232.666C22.560 232.666 27.760 231.466 27.760 224.666C27.760 222.386 27.040 218.586 26.600 216.106C26.520 215.626 26.560 215.666 27.120 215.426C31.160 213.826 33.840 210.426 33.840 205.906C33.840 200.786 30.080 196.266 24.200 196.266C23.080 196.266 23.200 196.466 23.040 195.546L22.040 189.746C21.960 189.266 22.040 189.226 22.280 188.986C22.920 188.386 23.760 187.546 24.520 186.706C27.880 183.026 29.880 178.266 29.880 173.746C29.880 170.266 28.920 166.826 27.280 164.426C26.680 163.546 25.640 162.426 25.200 162.426ZM20.040 190.586C20.440 190.266 20.520 190.306 20.600 190.746L21.440 195.866C21.560 196.626 21.560 196.586 20.840 196.826C17.320 198.026 15.040 201.186 15.040 204.586C15.040 208.186 16.920 210.746 19.640 211.666C19.960 211.786 20.440 211.906 20.720 211.906C21.040 211.906 21.200 211.706 21.200 211.466C21.200 211.186 20.880 211.066 20.600 210.946C18.920 210.226 17.720 208.506 17.720 206.666C17.720 204.386 19.280 202.666 21.720 201.986C22.360 201.826 22.440 201.866 22.520 202.306L24.520 214.226C24.600 214.666 24.560 214.666 23.960 214.786C23.320 214.906 22.520 214.986 21.720 214.986C14.720 214.986 10.200 211.106 10.200 205.546C10.200 203.186 10.600 200.026 13.920 196.266C16.320 193.586 18.160 192.106 20.040 190.586ZM24.640 201.666C27.880 201.946 30.560 204.666 30.560 208.186C30.560 210.706 29.040 212.746 26.800 213.866C26.320 214.106 26.240 214.106 26.160 213.626L24.200 202.226C24.120 201.746 24.160 201.626 24.640 201.666ZM25.800 168.626C27.120 168.626 28.200 169.706 28.200 171.906C28.200 174.666 26.880 177.226 23.760 180.346C23.120 180.986 22.160 181.906 21.240 182.706C20.960 182.946 20.800 182.906 20.720 182.386C20.560 181.346 20.480 179.986 20.480 178.706C20.480 172.466 23.360 168.626 25.800 168.626Z"></path></g><g></g><path d="M57.820 186.306C56.620 186.306 55.220 186.626 54.140 187.106C50.580 188.666 48.700 192.946 48.700 196.746C48.700 197.106 48.700 197.466 48.740 197.826C48.940 199.986 49.980 202.026 51.300 203.626C52.820 205.466 55.020 206.306 57.420 206.306C64.420 206.306 65.460 199.946 65.460 198.786C65.460 197.906 65.020 197.906 64.860 197.906C64.540 197.906 64.260 197.946 64.260 198.626C64.260 203.786 59.860 204.986 58.580 204.986C55.340 204.986 53.620 201.826 53.620 195.226C53.620 188.626 56.660 187.266 58.820 187.266C60.900 187.266 61.740 188.226 61.740 188.626C61.740 188.986 61.620 189.506 61.020 189.506C59.420 189.506 58.500 191.226 58.500 192.466C58.500 194.746 60.460 195.466 61.580 195.466C61.580 195.466 64.620 195.346 64.620 192.026C64.620 186.786 58.580 186.306 57.820 186.306Z"></path></g><g><line stroke="#000000" stroke-width="1.6" x1="492.60472092927006" x2="492.60472092927006" y1="176.3461538461538" y2="216.3461538461538"></line><line stroke="#000000" stroke-width="5" x1="499.90472092927007" x2="499.90472092927007" y1="176.3461538461538" y2="216.3461538461538"></line></g><g><g><path d="M93.360 211.986C97.360 211.986 102.280 208.266 102.280 204.466C102.280 202.186 100.480 200.706 97.880 200.706C92.960 200.706 89 204.346 89 208.226C89 210.586 90.920 211.986 93.360 211.986Z"></path></g><g><path d="M93.360 196.986C97.360 196.986 102.280 193.266 102.280 189.466C102.280 187.186 100.480 185.706 97.880 185.706C92.960 185.706 89 189.346 89 193.226C89 195.586 90.920 196.986 93.360 196.986Z"></path></g><g><path d="M93.360 176.986C97.360 176.986 102.280 173.266 102.280 169.466C102.280 167.186 100.480 165.706 97.880 165.706C92.960 165.706 89 169.346 89 173.226C89 175.586 90.920 176.986 93.360 176.986Z"></path></g><line stroke="#000000" stroke-width="1.2" x1="89.6" x2="89.6" y1="173.18615384615381" y2="243.18615384615381"></line></g><g><g><path d="M194.061 206.986C198.061 206.986 202.981 203.266 202.981 199.466C202.981 197.186 201.181 195.706 198.581 195.706C193.661 195.706 189.701 199.346 189.701 203.226C189.701 205.586 191.621 206.986 194.061 206.986Z"></path></g><g><path d="M194.061 191.986C198.061 191.986 202.981 188.266 202.981 184.466C202.981 182.186 201.181 180.706 198.581 180.706C193.661 180.706 189.701 184.346 189.701 188.226C189.701 190.586 191.621 191.986 194.061 191.986Z"></path></g><line stroke="#000000" stroke-width="1.2" x1="190.3011802323175" x2="190.3011802323175" y1="188.18615384615381" y2="238.18615384615381"></line></g><g><g><path d="M294.762 211.986C298.762 211.986 303.682 208.266 303.682 204.466C303.682 202.186 301.882 200.706 299.282 200.706C294.362 200.706 290.402 204.346 290.402 208.226C290.402 210.586 292.322 211.986 294.762 211.986Z"></path></g><g><path d="M294.762 191.986C298.762 191.986 303.682 188.266 303.682 184.466C303.682 182.186 301.882 180.706 299.282 180.706C294.362 180.706 290.402 184.346 290.402 188.226C290.402 190.586 292.322 191.986 294.762 191.986Z"></path></g><line stroke="#000000" stroke-width="1.2" x1="291.00236046463505" x2="291.00236046463505" y1="188.18615384615381" y2="243.18615384615381"></line></g><g><g><path d="M395.464 196.986C399.464 196.986 404.384 193.266 404.384 189.466C404.384 187.186 402.584 185.706 399.984 185.706C395.064 185.706 391.104 189.346 391.104 193.226C391.104 195.586 393.024 196.986 395.464 196.986Z"></path></g><line stroke="#000000" stroke-width="1.2" x1="391.7035406969526" x2="391.7035406969526" y1="193.18615384615381" y2="228.18615384615381"></line></g></g></svg>