<?xml version="1.0" encoding="UTF-8" standalone="no"?><svg xmlns="http://www.w3.org/2000/svg" height="279.4mm" viewBox="0 0 1328.6153846153845 1719.3846153846152" width="215.9mm"><g transform="translate(163.84615384615387)"><g><g><line stroke="#6A6A6A" stroke-width="1.3" x1="0" x2="298.40473592899025" y1="216.3461538461538" y2="216.3461538461538"></line><line stroke="#6A6A6A" stroke-width="1.3" x1="0" x2="298.40473592899025" y1="206.3461538461538" y2="206.3461538461538"></line><line stroke="#6A6A6A" stroke-width="1.3" x1="0" x2="298.40473592899025" y1="196.3461538461538" y2="196.3461538461538"></line><line stroke="#6A6A6A" stroke-width="1.3" x1="0" x2="298.40473592899025" y1="186.3461538461538" y2="186.3461538461538"></line><line stroke="#6A6A6A" stroke-width="1.3" x1="0" x2="298.40473592899025" y1="176.3461538461538" y2="176.3461538461538"></line></g><g><path d="M25.200 162.426C24.640 162.426 23.400 163.466 22.600 164.346C19.640 167.626 18.680 172.626 18.680 176.786C18.680 179.106 18.960 181.706 19.240 183.346C19.320 183.826 19.360 183.906 18.880 184.306C16.320 186.426 13.560 188.866 11.480 191.426C8.720 194.866 7 198.586 7 202.866C7 209.826 11.760 216.426 21.560 216.426C22.480 216.426 23.520 216.346 24.320 216.186C24.760 216.106 24.840 216.066 24.920 216.546C25.400 219.226 26 222.706 26 224.586C26 230.506 22 231.226 19.640 231.226C17.480 231.226 16.440 230.586 16.440 230.066C16.440 229.626 16.800 229.666 17.720 229.386C18.960 229.026 20.400 227.946 20.400 225.626C20.400 223.426 19 221.546 16.560 221.546C13.880 221.546 12.280 223.666 12.280 226.146C12.280 228.746 13.840 232.666 19.880 232.666C22.560 232.666 27.760 231.466 27.760 224.666C27.760 222.386 27.040 218.586 26.600 216.106C26.520 215.626 26.560 215.666 27.120 215.426C31.160 213.826 33.840 210.426 33.840 205.906C33.840 200.786 30.080 196.266 24.200 196.266C23.080 196.266 23.200 196.466 23.040 195.546L22.040 189.746C21.960 189.266 22.040 189.226 22.280 188.986C22.920 188.386 23.760 187.546 24.520 186.706C27.880 183.026 29.880 178.266 29.880 173.746C29.880 170.266 28.920 166.826 27.280 164.426C26.680 163.546 25.640 162.426 25.200 162.426M20.040 190.586C20.440 190.266 20.520 190.306 20.600 190.746L21.440 195.866C21.560 196.626 21.560 196.586 20.840 196.826C17.320 198.026 15.040 201.186 15.040 204.586C15.040 208.186 16.920 210.746 19.640 211.666C19.960 211.786 20.440 211.906 20.720 211.906C21.040 211.906 21.200 211.706 21.200 211.466C21.200 211.186 20.880 211.066 20.600 210.946C18.920 210.226 17.720 208.506 17.720 206.666C17.720 204.386 19.280 202.666 21.720 201.986C22.360 201.826 22.440 201.866 22.520 202.306L24.520 214.226C24.600 214.666 24.560 214.666 23.960 214.786C23.320 214.906 22.520 214.986 21.720 214.986C14.720 214.986 10.200 211.106 10.200 205.546C10.200 203.186 10.600 200.026 13.920 196.266C16.320 193.586 18.160 192.106 20.040 190.586M24.640 201.666C27.880 201.946 30.560 204.666 30.560 208.186C30.560 210.706 29.040 212.746 26.800 213.866C26.320 214.106 26.240 214.106 26.160 213.626L24.200 202.226C24.120 201.746 24.160 201.626 24.640 201.666M25.800 168.626C27.120 168.626 28.200 169.706 28.200 171.906C28.200 174.666 26.880 177.226 23.760 180.346C23.120 180.986 22.160 181.906 21.240 182.706C20.960 182.946 20.800 182.906 20.720 182.386C20.560 181.346 20.480 179.986 20.480 178.706C20.480 172.466 23.360 168.626 25.800 168.626"></path></g><g></g><g><g><path d="M58.060 182.346C58.540 182.826 59.220 183.026 59.860 183.026C60.180 183.026 60.540 182.946 60.860 182.866C62.100 182.546 63.060 181.266 63.060 179.986C63.060 179.826 63.060 179.706 63.020 179.546C62.820 178.226 61.700 177.266 60.500 176.826C59.540 176.426 58.380 176.306 57.340 176.306C54.300 176.346 51.460 177.826 50.020 180.546C49.140 182.226 48.460 184.346 48.460 186.226L48.460 186.386C48.500 188.226 48.820 190.306 49.700 191.906C50.540 193.426 51.900 195.066 53.460 195.746C54.460 196.186 55.660 196.306 56.660 196.306C58.460 196.306 60.460 196.026 61.900 194.866C63.300 193.746 64.220 191.946 64.220 190.146C64.220 189.946 64.180 189.786 64.180 189.586C64.020 187.946 63.020 186.546 61.740 185.586C60.660 184.786 59.420 184.346 58.180 184.346C56.900 184.346 55.580 184.826 54.540 185.746C54.460 185.826 54.380 185.826 54.300 185.826C54.060 185.826 53.940 185.506 53.940 184.866C54.060 177.466 56.420 177.266 57.260 177.266C58.060 177.266 58.580 177.466 58.580 177.866C58.580 178.426 57.820 178.906 57.580 179.386C57.380 179.746 57.300 180.146 57.300 180.546C57.300 181.146 57.500 181.746 57.900 182.186C57.940 182.266 58.020 182.306 58.060 182.346M56.540 186.266C57.820 186.266 58.900 188.266 58.900 190.746C58.900 193.226 57.820 195.226 56.540 195.226C55.260 195.226 54.220 193.226 54.220 190.746C54.220 188.266 55.260 186.266 56.540 186.266"></path></g><g><path d="M60.820 204.906C62.260 203.986 63.220 202.666 63.220 200.666C63.220 196.586 57.340 195.986 56.260 195.986C51.620 195.986 48.460 198.106 48.460 201.466C48.460 204.226 50.020 205.706 51.940 206.786C49.860 207.786 48.260 209.106 48.260 211.626C48.260 215.106 51.860 216.706 55.820 216.706C59.820 216.706 64.100 214.986 64.100 209.586C64.100 207.186 62.700 205.866 60.820 204.906M55.660 215.386C52.980 215.386 50.540 214.026 50.540 211.426C50.540 209.826 51.940 208.346 53.700 207.666C56.620 208.946 59.580 209.786 59.580 212.426C59.580 214.026 58.340 215.386 55.660 215.386M58.740 203.986C55.540 202.866 52.140 202.186 52.140 199.666C52.140 197.986 54.420 197.146 56.180 197.146C57.460 197.146 60.860 197.786 60.860 200.586C60.860 202.186 60.060 203.226 58.740 203.986"></path></g></g><text font-family='Alegreya' font-style='italic' text-anchor='end' stroke='#7a7a7a' font-size="24" x="0" y="166.3461538461538">84</text><g><path d="M-13.200 321.926C-12.040 321.206-10.720 318.366-10.720 316.006C-10.720 315.806-10.720 315.566-10.760 315.366C-11.040 312.966-12.240 309.246-12.240 307.086C-12.240 305.006-11.320 303.006-11.120 302.646C-10.960 302.486-10.920 302.366-10.920 302.246C-10.920 302.166-10.960 302.086-11 302.086C-11.040 302.046-11.080 301.966-11.160 301.966C-11.240 301.966-11.320 302.046-11.480 302.246C-12.360 303.326-13.440 305.646-13.440 309.646C-13.440 313.606-12.040 315.206-12.040 317.726C-12.040 319.606-12.800 320.646-13.920 321.926C-13.200 322.726-12.040 323.366-12.040 325.966C-12.040 328.766-13.440 331.246-13.440 334.166C-13.440 338.166-12.360 340.486-11.480 341.606C-11.320 341.806-11.240 341.846-11.160 341.846C-11.080 341.846-11.040 341.806-11 341.766C-10.960 341.726-10.920 341.686-10.920 341.606C-10.920 341.486-10.960 341.366-11.120 341.166C-11.320 340.846-12.240 338.846-12.240 336.726C-12.240 334.606-11.040 330.846-10.760 328.486C-10.720 328.286-10.720 328.086-10.720 327.846C-10.720 325.486-12.040 322.646-13.200 321.926"></path><line stroke="#000000" stroke-width="1.6" x1="0" x2="0" y1="175.8461538461538" y2="341.8461538461538"></line></g></g><g><g><line stroke="#6A6A6A" stroke-width="1.3" x1="228.6031572859935" x2="971.0071577342762" y1="216.3461538461538" y2="216.3461538461538"></line><line stroke="#6A6A6A" stroke-width="1.3" x1="228.6031572859935" x2="971.0071577342762" y1="206.3461538461538" y2="206.3461538461538"></line><line stroke="#6A6A6A" stroke-width="1.3" x1="228.6031572859935" x2="971.0071577342762" y1="196.3461538461538" y2="196.3461538461538"></line><line stroke="#6A6A6A" stroke-width="1.3" x1="228.6031572859935" x2="971.0071577342762" y1="186.3461538461538" y2="186.3461538461538"></line><line stroke="#6A6A6A" stroke-width="1.3" x1="228.6031572859935" x2="971.0071577342762" y1="176.3461538461538" y2="176.3461538461538"></line></g></g><g><line stroke="#000000" stroke-width="1.6" x1="517.4489328613075" x2="517.4489328613075" y1="175.8461538461538" y2="341.8461538461538"></line><line stroke="#000000" stroke-width="1.6" x1="523.0489328613075" x2="523.0489328613075" y1="175.8461538461538" y2="341.8461538461538"></line></g><g><g><line stroke="#6A6A6A" stroke-width="1.3" x1="0" x2="546.6489328613076" y1="341.3461538461538" y2="341.3461538461538"></line><line stroke="#6A6A6A" stroke-width="1.3" x1="0" x2="546.6489328613076" y1="331.3461538461538" y2="331.3461538461538"></line><line stroke="#6A6A6A" stroke-width="1.3" x1="0" x2="546.6489328613076" y1="321.3461538461538" y2="321.3461538461538"></line><line stroke="#6A6A6A" stroke-width="1.3" x1="0" x2="546.6489328613076" y1="311.3461538461538" y2="311.3461538461538"></line><line stroke="#6A6A6A" stroke-width="1.3" x1="0" x2="546.6489328613076" y1="301.3461538461538" y2="301.3461538461538"></line></g><g><path d="M25.200 287.426C24.640 287.426 23.400 288.466 22.600 289.346C19.640 292.626 18.680 297.626 18.680 301.786C18.680 304.106 18.960 306.706 19.240 308.346C19.320 308.826 19.360 308.906 18.880 309.306C16.320 311.426 13.560 313.866 11.480 316.426C8.720 319.866 7 323.586 7 327.866C7 334.826 11.760 341.426 21.560 341.426C22.480 341.426 23.520 341.346 24.320 341.186C24.760 341.106 24.840 341.066 24.920 341.546C25.400 344.226 26 347.706 26 349.586C26 355.506 22 356.226 19.640 356.226C17.480 356.226 16.440 355.586 16.440 355.066C16.440 354.626 16.800 354.666 17.720 354.386C18.960 354.026 20.400 352.946 20.400 350.626C20.400 348.426 19 346.546 16.560 346.546C13.880 346.546 12.280 348.666 12.280 351.146C12.280 353.746 13.840 357.666 19.880 357.666C22.560 357.666 27.760 356.466 27.760 349.666C27.760 347.386 27.040 343.586 26.600 341.106C26.520 340.626 26.560 340.666 27.120 340.426C31.160 338.826 33.840 335.426 33.840 330.906C33.840 325.786 30.080 321.266 24.200 321.266C23.080 321.266 23.200 321.466 23.040 320.546L22.040 314.746C21.960 314.266 22.040 314.226 22.280 313.986C22.920 313.386 23.760 312.546 24.520 311.706C27.880 308.026 29.880 303.266 29.880 298.746C29.880 295.266 28.920 291.826 27.280 289.426C26.680 288.546 25.640 287.426 25.200 287.426M20.040 315.586C20.440 315.266 20.520 315.306 20.600 315.746L21.440 320.866C21.560 321.626 21.560 321.586 20.840 321.826C17.320 323.026 15.040 326.186 15.040 329.586C15.040 333.186 16.920 335.746 19.640 336.666C19.960 336.786 20.440 336.906 20.720 336.906C21.040 336.906 21.200 336.706 21.200 336.466C21.200 336.186 20.880 336.066 20.600 335.946C18.920 335.226 17.720 333.506 17.720 331.666C17.720 329.386 19.280 327.666 21.720 326.986C22.360 326.826 22.440 326.866 22.520 327.306L24.520 339.226C24.600 339.666 24.560 339.666 23.960 339.786C23.320 339.906 22.520 339.986 21.720 339.986C14.720 339.986 10.200 336.106 10.200 330.546C10.200 328.186 10.600 325.026 13.920 321.266C16.320 318.586 18.160 317.106 20.040 315.586M24.640 326.666C27.880 326.946 30.560 329.666 30.560 333.186C30.560 335.706 29.040 337.746 26.800 338.866C26.320 339.106 26.240 339.106 26.160 338.626L24.200 327.226C24.120 326.746 24.160 326.626 24.640 326.666M25.800 293.626C27.120 293.626 28.200 294.706 28.200 296.906C28.200 299.666 26.880 302.226 23.760 305.346C23.120 305.986 22.160 306.906 21.240 307.706C20.960 307.946 20.800 307.906 20.720 307.386C20.560 306.346 20.480 304.986 20.480 303.706C20.480 297.466 23.360 293.626 25.800 293.626"></path></g><g></g><g><g><path d="M58.060 307.346C58.540 307.826 59.220 308.026 59.860 308.026C60.180 308.026 60.540 307.946 60.860 307.866C62.100 307.546 63.060 306.266 63.060 304.986C63.060 304.826 63.060 304.706 63.020 304.546C62.820 303.226 61.700 302.266 60.500 301.826C59.540 301.426 58.380 301.306 57.340 301.306C54.300 301.346 51.460 302.826 50.020 305.546C49.140 307.226 48.460 309.346 48.460 311.226L48.460 311.386C48.500 313.226 48.820 315.306 49.700 316.906C50.540 318.426 51.900 320.066 53.460 320.746C54.460 321.186 55.660 321.306 56.660 321.306C58.460 321.306 60.460 321.026 61.900 319.866C63.300 318.746 64.220 316.946 64.220 315.146C64.220 314.946 64.180 314.786 64.180 314.586C64.020 312.946 63.020 311.546 61.740 310.586C60.660 309.786 59.420 309.346 58.180 309.346C56.900 309.346 55.580 309.826 54.540 310.746C54.460 310.826 54.380 310.826 54.300 310.826C54.060 310.826 53.940 310.506 53.940 309.866C54.060 302.466 56.420 302.266 57.260 302.266C58.060 302.266 58.580 302.466 58.580 302.866C58.580 303.426 57.820 303.906 57.580 304.386C57.380 304.746 57.300 305.146 57.300 305.546C57.300 306.146 57.500 306.746 57.900 307.186C57.940 307.266 58.020 307.306 58.060 307.346M56.540 311.266C57.820 311.266 58.900 313.266 58.900 315.746C58.900 318.226 57.820 320.226 56.540 320.226C55.260 320.226 54.220 318.226 54.220 315.746C54.220 313.266 55.260 311.266 56.540 311.266"></path></g><g><path d="M60.820 329.906C62.260 328.986 63.220 327.666 63.220 325.666C63.220 321.586 57.340 320.986 56.260 320.986C51.620 320.986 48.460 323.106 48.460 326.466C48.460 329.226 50.020 330.706 51.940 331.786C49.860 332.786 48.260 334.106 48.260 336.626C48.260 340.106 51.860 341.706 55.820 341.706C59.820 341.706 64.100 339.986 64.100 334.586C64.100 332.186 62.700 330.866 60.820 329.906M55.660 340.386C52.980 340.386 50.540 339.026 50.540 336.426C50.540 334.826 51.940 333.346 53.700 332.666C56.620 333.946 59.580 334.786 59.580 337.426C59.580 339.026 58.340 340.386 55.660 340.386M58.740 328.986C55.540 327.866 52.140 327.186 52.140 324.666C52.140 322.986 54.420 322.146 56.180 322.146C57.460 322.146 60.860 322.786 60.860 325.586C60.860 327.186 60.060 328.226 58.740 328.986"></path></g></g><text font-family='Alegreya' font-style='italic' text-anchor='end' stroke='#7a7a7a' font-size="24" x="0" y="291.3461538461538">84</text></g><g><line stroke="black" stroke-width="1.6" x1="547.4489328613075" x2="547.4489328613075" y1="175.8461538461538" y2="341.8461538461538"></line></g><g><g><path d="M93.360 216.986C97.360 216.986 102.280 213.266 102.280 209.466C102.280 207.186 100.480 205.706 97.880 205.706C92.960 205.706 89 209.346 89 213.226C89 215.586 90.920 216.986 93.360 216.986"></path></g><line stroke="#000000" stroke-width="1.2" x1="101.68" x2="101.68" y1="209.5061538461538" y2="174.5061538461538"></line><g><polygon fill="black" points="101.68,179.3461538461538 171.48157864299677,189.3461538461538 171.48157864299677,184.3461538461538 101.68,174.3461538461538" stroke="black" stroke-width="0"></polygon><polygon fill="black" points="171.48157864299677,189.3461538461538 241.2831572859935,199.3461538461538 241.2831572859935,194.3461538461538 171.48157864299677,184.3461538461538" stroke="black" stroke-width="0"></polygon></g><path d="M96.820 222.026C96.820 221.106 96.060 220.346 95.140 220.346C94.220 220.346 93.460 221.106 93.460 222.026C93.460 222.946 94.220 223.706 95.140 223.706C96.060 223.706 96.820 222.946 96.820 222.026"></path></g><g><g><path d="M163.162 226.986C167.162 226.986 172.082 223.266 172.082 219.466C172.082 217.186 170.282 215.706 167.682 215.706C162.762 215.706 158.802 219.346 158.802 223.226C158.802 225.586 160.722 226.986 163.162 226.986"></path></g><line stroke="#000000" stroke-width="1.2" x1="171.48157864299677" x2="171.48157864299677" y1="219.5061538461538" y2="184.5061538461538"></line><path d="M166.622 232.026C166.622 231.106 165.862 230.346 164.942 230.346C164.022 230.346 163.262 231.106 163.262 232.026C163.262 232.946 164.022 233.706 164.942 233.706C165.862 233.706 166.622 232.946 166.622 232.026"></path></g><g><g><path d="M232.963 236.986C236.963 236.986 241.883 233.266 241.883 229.466C241.883 227.186 240.083 225.706 237.483 225.706C232.563 225.706 228.603 229.346 228.603 233.226C228.603 235.586 230.523 236.986 232.963 236.986"></path></g><line stroke="#000000" stroke-width="1.2" x1="241.2831572859935" x2="241.2831572859935" y1="229.5061538461538" y2="194.5061538461538"></line><line stroke="#000000" stroke-width="2.2" x1="225.4031572859935" x2="247.3231572859935" y1="226.3461538461538" y2="226.3461538461538"></line><path d="M236.423 242.026C236.423 241.106 235.663 240.346 234.743 240.346C233.823 240.346 233.063 241.106 233.063 242.026C233.063 242.946 233.823 243.706 234.743 243.706C235.663 243.706 236.423 242.946 236.423 242.026"></path></g><g><g><path d="M302.765 246.986C306.765 246.986 311.685 243.266 311.685 239.466C311.685 237.186 309.885 235.706 307.285 235.706C302.365 235.706 298.405 239.346 298.405 243.226C298.405 245.586 300.325 246.986 302.765 246.986"></path></g><line stroke="#000000" stroke-width="1.2" x1="311.08473592899026" x2="311.08473592899026" y1="239.5061538461538" y2="194.5061538461538"></line><line stroke="#000000" stroke-width="2.2" x1="295.20473592899026" x2="317.1247359289903" y1="226.3461538461538" y2="226.3461538461538"></line><line stroke="#000000" stroke-width="2.2" x1="295.20473592899026" x2="317.1247359289903" y1="236.3461538461538" y2="236.3461538461538"></line><path d="M320.005 227.586C320.005 227.586 321.045 223.786 321.045 220.666C321.045 215.666 318.965 210.946 316.445 206.946C314.405 203.786 312.725 200.346 312.085 196.506C311.965 195.866 311.645 195.626 310.885 195.626C310.645 195.626 310.485 195.746 310.485 196.226L310.485 205.786C313.125 206.266 316.925 211.706 318.365 215.106C318.965 216.466 319.325 218.746 319.325 221.106C319.325 222.906 319.045 224.786 318.365 226.586C318.285 226.826 318.245 227.026 318.245 227.186C318.245 227.826 318.645 228.186 318.885 228.346C319.125 228.506 319.805 228.266 320.005 227.586"></path></g><g><g><path d="M372.566 251.986C376.566 251.986 381.486 248.266 381.486 244.466C381.486 242.186 379.686 240.706 377.086 240.706C372.166 240.706 368.206 244.346 368.206 248.226C368.206 250.586 370.126 251.986 372.566 251.986"></path></g><line stroke="#000000" stroke-width="1.2" x1="380.886314571987" x2="380.886314571987" y1="244.5061538461538" y2="194.5061538461538"></line><line stroke="#000000" stroke-width="2.2" x1="365.006314571987" x2="386.926314571987" y1="226.3461538461538" y2="226.3461538461538"></line><line stroke="#000000" stroke-width="2.2" x1="365.006314571987" x2="386.926314571987" y1="236.3461538461538" y2="236.3461538461538"></line><line stroke="#000000" stroke-width="2.2" x1="365.006314571987" x2="386.926314571987" y1="246.3461538461538" y2="246.3461538461538"></line></g><g><path d="M98.400 314.666C98.320 314.666 98.200 314.666 97.960 314.826C97.680 315.066 95.680 317.466 94.360 317.466L94.360 317.066C94.360 315.586 93.160 314.386 91.680 314.386C90.200 314.386 89 315.586 89 317.066C89 317.906 89.480 318.626 90.080 319.106C90.440 319.346 90.800 319.546 91.200 319.626C91.520 319.706 91.880 319.786 92.240 319.786C92.800 319.786 93.360 319.666 93.800 319.506C94.360 319.346 94.720 319.186 95.240 318.906C95.320 318.866 95.400 318.866 95.440 318.866C95.600 318.866 95.640 319.026 95.640 319.226C95.640 319.346 95.640 319.506 95.600 319.666C95.480 320.266 92.600 328.226 91.880 330.866C91.880 331.346 92.800 331.386 93.040 331.386C93.480 331.386 94.040 331.306 94.440 330.986C94.560 330.906 98.480 316.866 98.480 316.866C98.640 316.146 98.840 315.506 98.880 315.306C98.880 314.786 98.480 314.706 98.400 314.666"></path></g><g><g><path d="M163.162 406.986C167.162 406.986 172.082 403.266 172.082 399.466C172.082 397.186 170.282 395.706 167.682 395.706C162.762 395.706 158.802 399.346 158.802 403.226C158.802 405.586 160.722 406.986 163.162 406.986"></path></g><line stroke="#000000" stroke-width="1.2" x1="171.48157864299677" x2="171.48157864299677" y1="399.50615384615384" y2="364.50615384615384"></line><line stroke="#000000" stroke-width="2.2" x1="155.60157864299677" x2="177.52157864299676" y1="351.3461538461538" y2="351.3461538461538"></line><line stroke="#000000" stroke-width="2.2" x1="155.60157864299677" x2="177.52157864299676" y1="361.3461538461538" y2="361.3461538461538"></line><line stroke="#000000" stroke-width="2.2" x1="155.60157864299677" x2="177.52157864299676" y1="371.3461538461538" y2="371.3461538461538"></line><line stroke="#000000" stroke-width="2.2" x1="155.60157864299677" x2="177.52157864299676" y1="381.3461538461538" y2="381.3461538461538"></line><line stroke="#000000" stroke-width="2.2" x1="155.60157864299677" x2="177.52157864299676" y1="391.3461538461538" y2="391.3461538461538"></line><line stroke="#000000" stroke-width="2.2" x1="155.60157864299677" x2="177.52157864299676" y1="401.3461538461538" y2="401.3461538461538"></line><g><polygon fill="black" points="171.48157864299677,369.3461538461538 241.2831572859935,369.3461538461538 241.2831572859935,364.3461538461538 171.48157864299677,364.3461538461538" stroke="black" stroke-width="0"></polygon></g><path d="M166.622 417.026C166.622 416.106 165.862 415.346 164.942 415.346C164.022 415.346 163.262 416.106 163.262 417.026C163.262 417.946 164.022 418.706 164.942 418.706C165.862 418.706 166.622 417.946 166.622 417.026"></path></g><g><g><path d="M232.963 406.986C236.963 406.986 241.883 403.266 241.883 399.466C241.883 397.186 240.083 395.706 237.483 395.706C232.563 395.706 228.603 399.346 228.603 403.226C228.603 405.586 230.523 406.986 232.963 406.986"></path></g><line stroke="#000000" stroke-width="1.2" x1="241.2831572859935" x2="241.2831572859935" y1="399.50615384615384" y2="364.50615384615384"></line><line stroke="#000000" stroke-width="2.2" x1="225.4031572859935" x2="247.3231572859935" y1="351.3461538461538" y2="351.3461538461538"></line><line stroke="#000000" stroke-width="2.2" x1="225.4031572859935" x2="247.3231572859935" y1="361.3461538461538" y2="361.3461538461538"></line><line stroke="#000000" stroke-width="2.2" x1="225.4031572859935" x2="247.3231572859935" y1="371.3461538461538" y2="371.3461538461538"></line><line stroke="#000000" stroke-width="2.2" x1="225.4031572859935" x2="247.3231572859935" y1="381.3461538461538" y2="381.3461538461538"></line><line stroke="#000000" stroke-width="2.2" x1="225.4031572859935" x2="247.3231572859935" y1="391.3461538461538" y2="391.3461538461538"></line><line stroke="#000000" stroke-width="2.2" x1="225.4031572859935" x2="247.3231572859935" y1="401.3461538461538" y2="401.3461538461538"></line><path d="M236.423 417.026C236.423 416.106 235.663 415.346 234.743 415.346C233.823 415.346 233.063 416.106 233.063 417.026C233.063 417.946 233.823 418.706 234.743 418.706C235.663 418.706 236.423 417.946 236.423 417.026"></path></g><g><g><path d="M302.765 406.986C306.765 406.986 311.685 403.266 311.685 399.466C311.685 397.186 309.885 395.706 307.285 395.706C302.365 395.706 298.405 399.346 298.405 403.226C298.405 405.586 300.325 406.986 302.765 406.986"></path></g><line stroke="#000000" stroke-width="1.2" x1="311.08473592899026" x2="311.08473592899026" y1="399.50615384615384" y2="364.50615384615384"></line><line stroke="#000000" stroke-width="2.2" x1="295.20473592899026" x2="317.1247359289903" y1="351.3461538461538" y2="351.3461538461538"></line><line stroke="#000000" stroke-width="2.2" x1="295.20473592899026" x2="317.1247359289903" y1="361.3461538461538" y2="361.3461538461538"></line><line stroke="#000000" stroke-width="2.2" x1="295.20473592899026" x2="317.1247359289903" y1="371.3461538461538" y2="371.3461538461538"></line><line stroke="#000000" stroke-width="2.2" x1="295.20473592899026" x2="317.1247359289903" y1="381.3461538461538" y2="381.3461538461538"></line><line stroke="#000000" stroke-width="2.2" x1="295.20473592899026" x2="317.1247359289903" y1="391.3461538461538" y2="391.3461538461538"></line><line stroke="#000000" stroke-width="2.2" x1="295.20473592899026" x2="317.1247359289903" y1="401.3461538461538" y2="401.3461538461538"></line><g><polygon fill="black" points="311.0847359289902,369.3461538461538 380.886314571987,369.3461538461538 380.886314571987,364.3461538461538 311.0847359289902,364.3461538461538" stroke="black" stroke-width="0"></polygon><polygon fill="black" points="380.886314571987,369.3461538461538 422.93101914431713,369.3461538461538 422.93101914431713,364.3461538461538 380.886314571987,364.3461538461538" stroke="black" stroke-width="0"></polygon><polygon fill="black" points="380.886314571987,378.1461538461538 422.93101914431713,378.1461538461538 422.93101914431713,373.1461538461538 380.886314571987,373.1461538461538" stroke="black" stroke-width="0"></polygon><polygon fill="black" points="422.93101914431713,369.3461538461538 475.2395237166472,369.3461538461538 475.2395237166472,364.3461538461538 422.93101914431713,364.3461538461538" stroke="black" stroke-width="0"></polygon><polygon fill="black" points="422.93101914431713,378.1461538461538 475.2395237166472,378.1461538461539 475.2395237166472,373.14615384615377 422.93101914431713,373.1461538461538" stroke="black" stroke-width="0"></polygon><polygon fill="black" points="475.2395237166472,369.3461538461538 517.2842282889774,369.3461538461538 517.2842282889774,364.3461538461538 475.2395237166472,364.3461538461538" stroke="black" stroke-width="0"></polygon><polygon fill="black" points="475.2395237166472,378.1461538461539 517.2842282889774,378.1461538461538 517.2842282889774,373.1461538461538 475.2395237166472,373.14615384615377" stroke="black" stroke-width="0"></polygon></g></g><g><g><path d="M372.566 401.986C376.566 401.986 381.486 398.266 381.486 394.466C381.486 392.186 379.686 390.706 377.086 390.706C372.166 390.706 368.206 394.346 368.206 398.226C368.206 400.586 370.126 401.986 372.566 401.986"></path></g><line stroke="#000000" stroke-width="1.2" x1="380.886314571987" x2="380.886314571987" y1="394.50615384615384" y2="364.50615384615384"></line><line stroke="#000000" stroke-width="2.2" x1="365.006314571987" x2="386.926314571987" y1="351.3461538461538" y2="351.3461538461538"></line><line stroke="#000000" stroke-width="2.2" x1="365.006314571987" x2="386.926314571987" y1="361.3461538461538" y2="361.3461538461538"></line><line stroke="#000000" stroke-width="2.2" x1="365.006314571987" x2="386.926314571987" y1="371.3461538461538" y2="371.3461538461538"></line><line stroke="#000000" stroke-width="2.2" x1="365.006314571987" x2="386.926314571987" y1="381.3461538461538" y2="381.3461538461538"></line><line stroke="#000000" stroke-width="2.2" x1="365.006314571987" x2="386.926314571987" y1="391.3461538461538" y2="391.3461538461538"></line></g><g><g><path d="M414.611 406.986C418.611 406.986 423.531 403.266 423.531 399.466C423.531 397.186 421.731 395.706 419.131 395.706C414.211 395.706 410.251 399.346 410.251 403.226C410.251 405.586 412.171 406.986 414.611 406.986"></path></g><line stroke="#000000" stroke-width="1.2" x1="422.9310191443172" x2="422.9310191443172" y1="399.50615384615384" y2="364.50615384615384"></line><line stroke="#000000" stroke-width="2.2" x1="407.0510191443172" x2="428.9710191443172" y1="351.3461538461538" y2="351.3461538461538"></line><line stroke="#000000" stroke-width="2.2" x1="407.0510191443172" x2="428.9710191443172" y1="361.3461538461538" y2="361.3461538461538"></line><line stroke="#000000" stroke-width="2.2" x1="407.0510191443172" x2="428.9710191443172" y1="371.3461538461538" y2="371.3461538461538"></line><line stroke="#000000" stroke-width="2.2" x1="407.0510191443172" x2="428.9710191443172" y1="381.3461538461538" y2="381.3461538461538"></line><line stroke="#000000" stroke-width="2.2" x1="407.0510191443172" x2="428.9710191443172" y1="391.3461538461538" y2="391.3461538461538"></line><line stroke="#000000" stroke-width="2.2" x1="407.0510191443172" x2="428.9710191443172" y1="401.3461538461538" y2="401.3461538461538"></line></g><g><g><path d="M466.920 411.986C470.920 411.986 475.840 408.266 475.840 404.466C475.840 402.186 474.040 400.706 471.440 400.706C466.520 400.706 462.560 404.346 462.560 408.226C462.560 410.586 464.480 411.986 466.920 411.986"></path><path d="M457.980 401.626C458.260 401.506 458.460 401.186 458.460 400.946L458.460 398.106C458.460 397.906 458.340 397.786 458.180 397.786C458.100 397.786 458.060 397.786 457.980 397.826C457.980 397.826 457.180 398.146 456.980 398.186C456.700 398.186 456.420 397.986 456.420 397.666C456.420 397.266 456.420 392.786 456.420 392.786C456.420 392.546 456.180 392.346 455.860 392.346C455.460 392.346 455.220 392.546 455.220 392.786C455.220 392.786 455.220 397.586 455.220 397.986C455.180 398.386 455.060 398.906 454.700 399.146C454.220 399.426 452.860 399.986 452.180 400.146C451.820 400.146 451.700 399.666 451.700 399.346C451.700 398.946 451.700 394.546 451.700 394.546C451.700 394.306 451.420 394.106 451.140 394.106C450.740 394.106 450.500 394.306 450.500 394.546C450.500 394.546 450.500 396.706 450.500 398.306L450.500 399.946C450.500 400.506 450.260 400.906 450.020 401.026C449.780 401.146 448.980 401.466 448.980 401.466C448.700 401.546 448.500 401.866 448.500 402.106L448.500 404.946C448.500 405.186 448.620 405.306 448.820 405.306C448.860 405.306 448.940 405.266 448.980 405.266C448.980 405.266 449.580 405.026 449.860 404.866C449.900 404.866 449.940 404.826 449.980 404.826C450.260 404.826 450.500 405.226 450.500 405.546L450.500 409.506C450.500 409.946 450.300 410.306 450.060 410.426C449.820 410.506 448.980 410.866 448.980 410.866C448.700 410.946 448.500 411.266 448.500 411.506L448.500 414.346C448.500 414.586 448.620 414.706 448.820 414.706C448.860 414.706 448.940 414.666 448.980 414.666C448.980 414.666 449.540 414.426 449.900 414.306C449.940 414.266 449.980 414.266 450.020 414.266C450.300 414.266 450.500 414.706 450.500 414.906C450.500 415.146 450.500 419.826 450.500 419.826C450.500 420.066 450.740 420.266 451.020 420.266C451.420 420.266 451.700 420.066 451.700 419.826C451.700 419.826 451.700 414.746 451.700 414.266C451.700 413.746 451.900 413.466 452.100 413.386L454.540 412.386C454.580 412.386 454.660 412.346 454.700 412.346C455.020 412.346 455.220 412.826 455.220 413.066C455.220 413.346 455.220 418.066 455.220 418.066C455.220 418.306 455.460 418.506 455.740 418.506C456.180 418.506 456.420 418.306 456.420 418.066C456.420 418.066 456.420 412.666 456.420 412.386C456.420 412.066 456.580 411.586 456.860 411.466C457.140 411.346 457.980 411.026 457.980 411.026C458.260 410.906 458.460 410.586 458.460 410.346L458.460 407.506C458.460 407.306 458.340 407.186 458.180 407.186C458.100 407.186 458.060 407.186 457.980 407.226C457.980 407.226 457.140 407.546 456.940 407.626C456.700 407.626 456.420 407.386 456.420 406.906L456.420 403.186C456.420 402.906 456.620 402.146 456.940 402.026C457.260 401.906 457.980 401.626 457.980 401.626M455.220 408.146C454.980 408.946 453.100 409.746 452.180 409.746C451.940 409.746 451.740 409.666 451.700 409.546C451.620 409.386 451.580 408.506 451.580 407.546C451.580 406.306 451.620 404.906 451.700 404.586C451.780 403.906 453.620 403.066 454.620 403.066C454.900 403.066 455.140 403.146 455.220 403.306C455.300 403.506 455.380 404.506 455.380 405.586C455.380 406.666 455.300 407.786 455.220 408.146"></path></g><line stroke="#000000" stroke-width="1.2" x1="475.2395237166473" x2="475.2395237166473" y1="404.50615384615384" y2="364.50615384615384"></line><line stroke="#000000" stroke-width="2.2" x1="459.3595237166473" x2="481.2795237166473" y1="351.3461538461538" y2="351.3461538461538"></line><line stroke="#000000" stroke-width="2.2" x1="459.3595237166473" x2="481.2795237166473" y1="361.3461538461538" y2="361.3461538461538"></line><line stroke="#000000" stroke-width="2.2" x1="459.3595237166473" x2="481.2795237166473" y1="371.3461538461538" y2="371.3461538461538"></line><line stroke="#000000" stroke-width="2.2" x1="459.3595237166473" x2="481.2795237166473" y1="381.3461538461538" y2="381.3461538461538"></line><line stroke="#000000" stroke-width="2.2" x1="459.3595237166473" x2="481.2795237166473" y1="391.3461538461538" y2="391.3461538461538"></line><line stroke="#000000" stroke-width="2.2" x1="459.3595237166473" x2="481.2795237166473" y1="401.3461538461538" y2="401.3461538461538"></line></g><g><g><path d="M508.964 406.986C512.964 406.986 517.884 403.266 517.884 399.466C517.884 397.186 516.084 395.706 513.484 395.706C508.564 395.706 504.604 399.346 504.604 403.226C504.604 405.586 506.524 406.986 508.964 406.986"></path></g><line stroke="#000000" stroke-width="1.2" x1="517.2842282889774" x2="517.2842282889774" y1="399.50615384615384" y2="364.50615384615384"></line><line stroke="#000000" stroke-width="2.2" x1="501.40422828897744" x2="523.3242282889773" y1="351.3461538461538" y2="351.3461538461538"></line><line stroke="#000000" stroke-width="2.2" x1="501.40422828897744" x2="523.3242282889773" y1="361.3461538461538" y2="361.3461538461538"></line><line stroke="#000000" stroke-width="2.2" x1="501.40422828897744" x2="523.3242282889773" y1="371.3461538461538" y2="371.3461538461538"></line><line stroke="#000000" stroke-width="2.2" x1="501.40422828897744" x2="523.3242282889773" y1="381.3461538461538" y2="381.3461538461538"></line><line stroke="#000000" stroke-width="2.2" x1="501.40422828897744" x2="523.3242282889773" y1="391.3461538461538" y2="391.3461538461538"></line><line stroke="#000000" stroke-width="2.2" x1="501.40422828897744" x2="523.3242282889773" y1="401.3461538461538" y2="401.3461538461538"></line></g></g><g transform="translate(727.0950867074615)"><g></g><g><line stroke="black" stroke-width="1.6" x1="397.9582248729687" x2="397.9582248729687" y1="175.8461538461538" y2="341.8461538461538"></line><line stroke="black" stroke-width="5" x1="405.2582248729687" x2="405.2582248729687" y1="175.8461538461538" y2="341.8461538461538"></line></g><g><g><line stroke="#6A6A6A" stroke-width="1.3" x1="-16.600000000000023" x2="407.75822487296864" y1="341.3461538461538" y2="341.3461538461538"></line><line stroke="#6A6A6A" stroke-width="1.3" x1="-16.600000000000023" x2="407.75822487296864" y1="331.3461538461538" y2="331.3461538461538"></line><line stroke="#6A6A6A" stroke-width="1.3" x1="-16.600000000000023" x2="407.75822487296864" y1="321.3461538461538" y2="321.3461538461538"></line><line stroke="#6A6A6A" stroke-width="1.3" x1="-16.600000000000023" x2="407.75822487296864" y1="311.3461538461538" y2="311.3461538461538"></line><line stroke="#6A6A6A" stroke-width="1.3" x1="-16.600000000000023" x2="407.75822487296864" y1="301.3461538461538" y2="301.3461538461538"></line></g></g><g><line stroke="black" stroke-width="1.6" x1="397.9582248729687" x2="397.9582248729687" y1="175.8461538461538" y2="341.8461538461538"></line><line stroke="black" stroke-width="5" x1="405.2582248729687" x2="405.2582248729687" y1="175.8461538461538" y2="341.8461538461538"></line></g><g><g><path d="M4.360 186.986C8.360 186.986 13.280 183.266 13.280 179.466C13.280 177.186 11.480 175.706 8.880 175.706C3.960 175.706 0 179.346 0 183.226C0 185.586 1.920 186.986 4.360 186.986"></path></g><line stroke="#000000" stroke-width="1.2" x1="0.6" x2="0.6" y1="183.18615384615381" y2="217.18615384615381"></line><g><polygon fill="black" points="0.6,218.3461538461538 70.40157864299675,230.8461538461538 70.40157864299675,225.8461538461538 0.6,213.3461538461538" stroke="black" stroke-width="0"></polygon><polygon fill="black" points="70.40157864299675,230.8461538461538 140.2031572859935,243.3461538461538 140.2031572859935,238.3461538461538 70.40157864299675,225.8461538461538" stroke="black" stroke-width="0"></polygon></g><path d="M7.820 160.026C7.820 159.106 7.060 158.346 6.140 158.346C5.220 158.346 4.460 159.106 4.460 160.026C4.460 160.946 5.220 161.706 6.140 161.706C7.060 161.706 7.820 160.946 7.820 160.026"></path></g><g><g><path d="M74.162 196.986C78.162 196.986 83.082 193.266 83.082 189.466C83.082 187.186 81.282 185.706 78.682 185.706C73.762 185.706 69.802 189.346 69.802 193.226C69.802 195.586 71.722 196.986 74.162 196.986"></path></g><line stroke="#000000" stroke-width="1.2" x1="70.40157864299675" x2="70.40157864299675" y1="193.18615384615381" y2="229.68615384615381"></line><path d="M77.622 170.026C77.622 169.106 76.862 168.346 75.942 168.346C75.022 168.346 74.262 169.106 74.262 170.026C74.262 170.946 75.022 171.706 75.942 171.706C76.862 171.706 77.622 170.946 77.622 170.026"></path></g><g><g><path d="M143.963 211.986C147.963 211.986 152.883 208.266 152.883 204.466C152.883 202.186 151.083 200.706 148.483 200.706C143.563 200.706 139.603 204.346 139.603 208.226C139.603 210.586 141.523 211.986 143.963 211.986"></path></g><line stroke="#000000" stroke-width="1.2" x1="140.2031572859935" x2="140.2031572859935" y1="208.18615384615381" y2="242.18615384615381"></line><path d="M147.423 222.026C147.423 221.106 146.663 220.346 145.743 220.346C144.823 220.346 144.063 221.106 144.063 222.026C144.063 222.946 144.823 223.706 145.743 223.706C146.663 223.706 147.423 222.946 147.423 222.026"></path></g><g><g><path d="M213.765 211.986C217.765 211.986 222.685 208.266 222.685 204.466C222.685 202.186 220.885 200.706 218.285 200.706C213.365 200.706 209.405 204.346 209.405 208.226C209.405 210.586 211.325 211.986 213.765 211.986"></path></g><line stroke="#000000" stroke-width="1.2" x1="222.08473592899028" x2="222.08473592899028" y1="204.5061538461538" y2="169.5061538461538"></line><path d="M231.005 202.586C231.005 202.586 232.045 198.786 232.045 195.666C232.045 190.666 229.965 185.946 227.445 181.946C225.405 178.786 223.725 175.346 223.085 171.506C222.965 170.866 222.645 170.626 221.885 170.626C221.645 170.626 221.485 170.746 221.485 171.226L221.485 180.786C224.125 181.266 227.925 186.706 229.365 190.106C229.965 191.466 230.325 193.746 230.325 196.106C230.325 197.906 230.045 199.786 229.365 201.586C229.285 201.826 229.245 202.026 229.245 202.186C229.245 202.826 229.645 203.186 229.885 203.346C230.125 203.506 230.805 203.266 231.005 202.586"></path></g><g><g><path d="M283.566 216.986C287.566 216.986 292.486 213.266 292.486 209.466C292.486 207.186 290.686 205.706 288.086 205.706C283.166 205.706 279.206 209.346 279.206 213.226C279.206 215.586 281.126 216.986 283.566 216.986"></path></g><line stroke="#000000" stroke-width="1.2" x1="291.88631457198704" x2="291.88631457198704" y1="209.5061538461538" y2="174.5061538461538"></line></g><g><g><path d="M4.360 391.986C8.360 391.986 13.280 388.266 13.280 384.466C13.280 382.186 11.480 380.706 8.880 380.706C3.960 380.706 0 384.346 0 388.226C0 390.586 1.920 391.986 4.360 391.986"></path></g><g><path d="M4.360 381.986C8.360 381.986 13.280 378.266 13.280 374.466C13.280 372.186 11.480 370.706 8.880 370.706C3.960 370.706 0 374.346 0 378.226C0 380.586 1.920 381.986 4.360 381.986"></path></g><g><path d="M4.360 371.986C8.360 371.986 13.280 368.266 13.280 364.466C13.280 362.186 11.480 360.706 8.880 360.706C3.960 360.706 0 364.346 0 368.226C0 370.586 1.920 371.986 4.360 371.986"></path></g><g><path d="M4.360 356.986C8.360 356.986 13.280 353.266 13.280 349.466C13.280 347.186 11.480 345.706 8.880 345.706C3.960 345.706 0 349.346 0 353.226C0 355.586 1.920 356.986 4.360 356.986"></path></g><line stroke="#000000" stroke-width="1.2" x1="12.680000000000001" x2="12.680000000000001" y1="384.50615384615384" y2="314.50615384615384"></line><line stroke="#000000" stroke-width="2.2" x1="-3.2" x2="18.72" y1="351.3461538461538" y2="351.3461538461538"></line><line stroke="#000000" stroke-width="2.2" x1="-3.2" x2="18.72" y1="361.3461538461538" y2="361.3461538461538"></line><line stroke="#000000" stroke-width="2.2" x1="-3.2" x2="18.72" y1="371.3461538461538" y2="371.3461538461538"></line><line stroke="#000000" stroke-width="2.2" x1="-3.2" x2="18.72" y1="381.3461538461538" y2="381.3461538461538"></line></g><g><path d="M149.003 314.666C148.923 314.666 148.803 314.666 148.563 314.826C148.283 315.066 146.283 317.466 144.963 317.466L144.963 317.066C144.963 315.586 143.763 314.386 142.283 314.386C140.803 314.386 139.603 315.586 139.603 317.066C139.603 317.906 140.083 318.626 140.683 319.106C141.043 319.346 141.403 319.546 141.803 319.626C142.123 319.706 142.483 319.786 142.843 319.786C143.403 319.786 143.963 319.666 144.403 319.506C144.963 319.346 145.323 319.186 145.843 318.906C145.923 318.866 146.003 318.866 146.043 318.866C146.203 318.866 146.243 319.026 146.243 319.226C146.243 319.346 146.243 319.506 146.203 319.666C146.083 320.266 143.203 328.226 142.483 330.866C142.483 331.346 143.403 331.386 143.643 331.386C144.083 331.386 144.643 331.306 145.043 330.986C145.163 330.906 149.083 316.866 149.083 316.866C149.243 316.146 149.443 315.506 149.483 315.306C149.483 314.786 149.083 314.706 149.003 314.666"></path></g><g><path d="M218.725 327.786C217.205 325.946 215.965 324.466 215.965 322.226C215.965 322.066 216.005 321.866 216.005 321.706C216.165 319.386 217.605 317.466 218.645 315.826C218.765 315.626 218.805 315.426 218.805 315.226C218.805 314.826 218.645 314.466 218.645 314.466C218.645 314.466 212.725 307.426 212.045 306.746C211.845 306.546 211.565 306.426 211.325 306.426C210.925 306.426 210.525 306.706 210.525 307.266C210.525 307.466 210.565 307.666 210.685 307.906C210.845 308.346 213.125 310.386 213.125 313.266C213.125 314.746 212.525 316.466 210.725 318.346C210.325 318.746 210.165 319.186 210.165 319.506C210.165 320.066 210.565 320.466 210.565 320.466L212.525 322.866C213.165 323.666 213.725 324.426 214.245 325.266C214.325 325.426 214.485 325.626 214.485 325.826C214.485 325.866 214.485 325.946 214.445 325.986C214.365 326.146 214.205 326.186 214.005 326.186C213.765 326.186 213.525 326.106 213.365 326.066C213.165 326.066 212.925 325.946 212.725 325.946C211.005 325.946 209.445 327.666 209.445 329.786C209.445 331.786 211.165 333.746 214.085 335.986C214.405 336.226 214.805 336.346 215.125 336.346C215.405 336.346 215.685 336.266 215.725 336.106C215.765 335.986 215.805 335.906 215.805 335.826C215.805 335.466 215.485 335.146 215.165 334.866C214.645 334.866 214.205 333.786 214.125 333.426C214.005 333.106 213.965 332.746 213.965 332.386C213.965 331.146 214.565 329.746 215.845 329.506C216.045 329.466 216.245 329.466 216.485 329.466C217.645 329.466 218.965 329.906 219.605 330.146C219.645 330.146 219.685 330.186 219.725 330.186C219.845 330.226 219.925 330.226 220.005 330.226C220.125 330.226 220.205 330.186 220.205 330.066C220.205 329.586 219.165 328.266 218.725 327.786"></path></g><g><g><path d="M332.309 371.986C336.309 371.986 341.229 368.266 341.229 364.466C341.229 362.186 339.429 360.706 336.829 360.706C331.909 360.706 327.949 364.346 327.949 368.226C327.949 370.586 329.869 371.986 332.309 371.986"></path></g><line stroke="#000000" stroke-width="1.2" x1="340.62852517429343" x2="340.62852517429343" y1="364.50615384615384" y2="319.50615384615384"></line><line stroke="#000000" stroke-width="2.2" x1="324.74852517429343" x2="346.66852517429345" y1="351.3461538461538" y2="351.3461538461538"></line><line stroke="#000000" stroke-width="2.2" x1="324.74852517429343" x2="346.66852517429345" y1="361.3461538461538" y2="361.3461538461538"></line><path d="M349.549 352.586C349.549 352.586 350.589 348.786 350.589 345.666C350.589 340.666 348.509 335.946 345.989 331.946C343.949 328.786 342.269 325.346 341.629 321.506C341.509 320.866 341.189 320.626 340.429 320.626C340.189 320.626 340.029 320.746 340.029 321.226L340.029 330.786C342.669 331.266 346.469 336.706 347.909 340.106C348.509 341.466 348.869 343.746 348.869 346.106C348.869 347.906 348.589 349.786 347.909 351.586C347.829 351.826 347.789 352.026 347.789 352.186C347.789 352.826 348.189 353.186 348.429 353.346C348.669 353.506 349.349 353.266 349.549 352.586"></path><path d="M335.769 377.026C335.769 376.106 335.009 375.346 334.089 375.346C333.169 375.346 332.409 376.106 332.409 377.026C332.409 377.946 333.169 378.706 334.089 378.706C335.009 378.706 335.769 377.946 335.769 377.026"></path></g></g></svg>