<?xml version="1.0" encoding="UTF-8" standalone="no"?><svg xmlns="http://www.w3.org/2000/svg" height="279.4mm" viewBox="0 0 1328.6153846153845 1719.3846153846152" width="215.9mm"><g transform="translate(93.84615384615385)"><g><g><line stroke="#6A6A6A" stroke-width="1.3" x1="0" x2="89" y1="313.8461538461538" y2="313.8461538461538"></line><line stroke="#6A6A6A" stroke-width="1.3" x1="0" x2="89" y1="303.8461538461538" y2="303.8461538461538"></line><line stroke="#6A6A6A" stroke-width="1.3" x1="0" x2="89" y1="293.8461538461538" y2="293.8461538461538"></line><line stroke="#6A6A6A" stroke-width="1.3" x1="0" x2="89" y1="283.8461538461538" y2="283.8461538461538"></line><line stroke="#6A6A6A" stroke-width="1.3" x1="0" x2="89" y1="273.8461538461538" y2="273.8461538461538"></line></g><g><path d="M17.080 273.366C10.120 273.366 7 278.446 7 282.286C7 285.486 8.680 288.246 11.920 288.246C14.440 288.246 16.160 286.486 16.160 284.006C16.160 281.446 14.280 279.846 12.320 279.846C11.240 279.846 10.840 280.126 10.320 280.126C9.800 280.126 9.680 279.806 9.680 279.406C9.680 277.806 12.080 274.886 16.160 274.886C20.400 274.886 22.240 279.046 22.240 285.326C22.240 289.446 21.360 294.246 18.880 298.086C16.480 301.806 12.360 305.206 7.400 308.046C7.040 308.246 6.800 308.446 6.800 308.766C6.800 309.006 6.960 309.246 7.320 309.246C7.520 309.246 7.760 309.166 8 309.046C13.320 306.446 18.440 303.406 22.680 298.846C26.160 295.086 28.240 290.206 28.240 284.966C28.240 278.006 24 273.366 17.080 273.366ZM32.200 286.686C30.960 286.686 30.040 287.606 30.040 288.846C30.040 290.086 30.960 291.006 32.200 291.006C33.440 291.006 34.360 290.086 34.360 288.846C34.360 287.606 33.440 286.686 32.200 286.686ZM32.160 276.646C30.920 276.646 29.960 277.606 29.960 278.846C29.960 280.086 30.920 281.046 32.160 281.046C33.400 281.046 34.360 280.086 34.360 278.846C34.360 277.606 33.400 276.646 32.160 276.646Z"></path></g><g></g><path d="M57.820 283.806C56.620 283.806 55.220 284.126 54.140 284.606C50.580 286.166 48.700 290.446 48.700 294.246C48.700 294.606 48.700 294.966 48.740 295.326C48.940 297.486 49.980 299.526 51.300 301.126C52.820 302.966 55.020 303.806 57.420 303.806C64.420 303.806 65.460 297.446 65.460 296.286C65.460 295.406 65.020 295.406 64.860 295.406C64.540 295.406 64.260 295.446 64.260 296.126C64.260 301.286 59.860 302.486 58.580 302.486C55.340 302.486 53.620 299.326 53.620 292.726C53.620 286.126 56.660 284.766 58.820 284.766C60.900 284.766 61.740 285.726 61.740 286.126C61.740 286.486 61.620 287.006 61.020 287.006C59.420 287.006 58.500 288.726 58.500 289.966C58.500 292.246 60.460 292.966 61.580 292.966C61.580 292.966 64.620 292.846 64.620 289.526C64.620 284.286 58.580 283.806 57.820 283.806Z"></path></g><g><line stroke="black" stroke-width="1.6" x1="128.88477485817495" x2="128.88477485817495" y1="143.3461538461538" y2="314.3461538461538"></line></g><g><line stroke="black" stroke-width="1.6" x1="128.88477485817495" x2="128.88477485817495" y1="143.3461538461538" y2="314.3461538461538"></line></g><g><g><path d="M93.360 164.486C97.360 164.486 102.280 160.766 102.280 156.966C102.280 154.686 100.480 153.206 97.880 153.206C92.960 153.206 89 156.846 89 160.726C89 163.086 90.920 164.486 93.360 164.486Z"></path></g><line stroke="#000000" stroke-width="1.2" x1="89.6" x2="89.6" y1="160.68615384615381" y2="198.68615384615381"></line></g><g><path d="M98.320 300.286C96.800 298.446 95.560 296.966 95.560 294.726C95.560 294.566 95.600 294.366 95.600 294.206C95.760 291.886 97.200 289.966 98.240 288.326C98.360 288.126 98.400 287.926 98.400 287.726C98.400 287.326 98.240 286.966 98.240 286.966C98.240 286.966 92.320 279.926 91.640 279.246C91.440 279.046 91.160 278.926 90.920 278.926C90.520 278.926 90.120 279.206 90.120 279.766C90.120 279.966 90.160 280.166 90.280 280.406C90.440 280.846 92.720 282.886 92.720 285.766C92.720 287.246 92.120 288.966 90.320 290.846C89.920 291.246 89.760 291.686 89.760 292.006C89.760 292.566 90.160 292.966 90.160 292.966L92.120 295.366C92.760 296.166 93.320 296.926 93.840 297.766C93.920 297.926 94.080 298.126 94.080 298.326C94.080 298.366 94.080 298.446 94.040 298.486C93.960 298.646 93.800 298.686 93.600 298.686C93.360 298.686 93.120 298.606 92.960 298.566C92.760 298.566 92.520 298.446 92.320 298.446C90.600 298.446 89.040 300.166 89.040 302.286C89.040 304.286 90.760 306.246 93.680 308.486C94 308.726 94.400 308.846 94.720 308.846C95 308.846 95.280 308.766 95.320 308.606C95.360 308.486 95.400 308.406 95.400 308.326C95.400 307.966 95.080 307.646 94.760 307.366C94.240 307.366 93.800 306.286 93.720 305.926C93.600 305.606 93.560 305.246 93.560 304.886C93.560 303.646 94.160 302.246 95.440 302.006C95.640 301.966 95.840 301.966 96.080 301.966C97.240 301.966 98.560 302.406 99.200 302.646C99.240 302.646 99.280 302.686 99.320 302.686C99.440 302.726 99.520 302.726 99.600 302.726C99.720 302.726 99.800 302.686 99.800 302.566C99.800 302.086 98.760 300.766 98.320 300.286Z"></path></g></g><g transform="translate(238.53092870432877)"><g></g><g><line stroke="#000000" stroke-width="1.6" x1="286.40571227242316" x2="286.40571227242316" y1="143.3461538461538" y2="314.3461538461538"></line><line stroke="#000000" stroke-width="5" x1="293.70571227242317" x2="293.70571227242317" y1="143.3461538461538" y2="314.3461538461538"></line></g><g><line stroke="black" stroke-width="1.6" x1="286.40571227242316" x2="286.40571227242316" y1="143.3461538461538" y2="314.3461538461538"></line><line stroke="black" stroke-width="5" x1="293.70571227242317" x2="293.70571227242317" y1="143.3461538461538" y2="314.3461538461538"></line></g><g><g><path d="M9.400 163.366C3.600 163.366 0 165.806 0 168.766C0 171.686 2.480 174.286 8.960 174.286C16.080 174.286 18.360 171.806 18.360 168.766C18.360 165.686 13.440 163.366 9.400 163.366ZM4.840 166.086C5.320 164.606 6.920 164.366 8.280 164.366C11.240 164.366 13.640 167.566 13.640 170.206C13.640 170.486 13.600 170.766 13.560 171.006C13.360 172.086 12.720 172.846 11.640 173.126C11.200 173.246 10.760 173.286 10.320 173.286C9.920 173.286 9.560 173.246 9.160 173.126C8.440 172.886 7.720 172.486 7.120 171.966C6.800 171.686 6.480 171.366 6.200 171.006C5.360 170.006 4.680 168.526 4.680 167.166C4.680 166.806 4.720 166.446 4.840 166.086Z"></path></g></g><g><g><path d="M9.400 213.366C3.600 213.366 0 215.806 0 218.766C0 221.686 2.480 224.286 8.960 224.286C16.080 224.286 18.360 221.806 18.360 218.766C18.360 215.686 13.440 213.366 9.400 213.366ZM4.840 216.086C5.320 214.606 6.920 214.366 8.280 214.366C11.240 214.366 13.640 217.566 13.640 220.206C13.640 220.486 13.600 220.766 13.560 221.006C13.360 222.086 12.720 222.846 11.640 223.126C11.200 223.246 10.760 223.286 10.320 223.286C9.920 223.286 9.560 223.246 9.160 223.126C8.440 222.886 7.720 222.486 7.120 221.966C6.800 221.686 6.480 221.366 6.200 221.006C5.360 220.006 4.680 218.526 4.680 217.166C4.680 216.806 4.720 216.446 4.840 216.086Z"></path></g><line stroke="#000000" stroke-width="2.2" x1="-3.2" x2="23.599999999999998" y1="193.8461538461538" y2="193.8461538461538"></line><line stroke="#000000" stroke-width="2.2" x1="-3.2" x2="23.599999999999998" y1="203.8461538461538" y2="203.8461538461538"></line><line stroke="#000000" stroke-width="2.2" x1="-3.2" x2="23.599999999999998" y1="213.8461538461538" y2="213.8461538461538"></line></g><g><path d="M140.143 288.206L140.143 284.526C140.143 283.926 139.663 283.486 139.103 283.486L129.903 283.486C129.303 283.486 128.863 283.926 128.863 284.526L128.863 288.206C128.863 288.766 129.303 289.246 129.903 289.246L139.103 289.246C139.663 289.246 140.143 288.766 140.143 288.206Z"></path></g></g></svg>