<?xml version="1.0" encoding="UTF-8" standalone="no"?><svg xmlns="http://www.w3.org/2000/svg" height="279.4mm" viewBox="0 0 1328.6153846153845 1719.3846153846152" width="215.9mm"><g transform="translate(93.84615384615385)"><g><g><line stroke="#6A6A6A" stroke-width="1.3" x1="0" x2="545.885344142324" y1="183.8461538461538" y2="183.8461538461538"></line><line stroke="#6A6A6A" stroke-width="1.3" x1="0" x2="545.885344142324" y1="173.8461538461538" y2="173.8461538461538"></line><line stroke="#6A6A6A" stroke-width="1.3" x1="0" x2="545.885344142324" y1="163.8461538461538" y2="163.8461538461538"></line><line stroke="#6A6A6A" stroke-width="1.3" x1="0" x2="545.885344142324" y1="153.8461538461538" y2="153.8461538461538"></line><line stroke="#6A6A6A" stroke-width="1.3" x1="0" x2="545.885344142324" y1="143.8461538461538" y2="143.8461538461538"></line></g><g><path d="M25.200 129.926C24.640 129.926 23.400 130.966 22.600 131.846C19.640 135.126 18.680 140.126 18.680 144.286C18.680 146.606 18.960 149.206 19.240 150.846C19.320 151.326 19.360 151.406 18.880 151.806C16.320 153.926 13.560 156.366 11.480 158.926C8.720 162.366 7 166.086 7 170.366C7 177.326 11.760 183.926 21.560 183.926C22.480 183.926 23.520 183.846 24.320 183.686C24.760 183.606 24.840 183.566 24.920 184.046C25.400 186.726 26 190.206 26 192.086C26 198.006 22 198.726 19.640 198.726C17.480 198.726 16.440 198.086 16.440 197.566C16.440 197.126 16.800 197.166 17.720 196.886C18.960 196.526 20.400 195.446 20.400 193.126C20.400 190.926 19 189.046 16.560 189.046C13.880 189.046 12.280 191.166 12.280 193.646C12.280 196.246 13.840 200.166 19.880 200.166C22.560 200.166 27.760 198.966 27.760 192.166C27.760 189.886 27.040 186.086 26.600 183.606C26.520 183.126 26.560 183.166 27.120 182.926C31.160 181.326 33.840 177.926 33.840 173.406C33.840 168.286 30.080 163.766 24.200 163.766C23.080 163.766 23.200 163.966 23.040 163.046L22.040 157.246C21.960 156.766 22.040 156.726 22.280 156.486C22.920 155.886 23.760 155.046 24.520 154.206C27.880 150.526 29.880 145.766 29.880 141.246C29.880 137.766 28.920 134.326 27.280 131.926C26.680 131.046 25.640 129.926 25.200 129.926ZM20.040 158.086C20.440 157.766 20.520 157.806 20.600 158.246L21.440 163.366C21.560 164.126 21.560 164.086 20.840 164.326C17.320 165.526 15.040 168.686 15.040 172.086C15.040 175.686 16.920 178.246 19.640 179.166C19.960 179.286 20.440 179.406 20.720 179.406C21.040 179.406 21.200 179.206 21.200 178.966C21.200 178.686 20.880 178.566 20.600 178.446C18.920 177.726 17.720 176.006 17.720 174.166C17.720 171.886 19.280 170.166 21.720 169.486C22.360 169.326 22.440 169.366 22.520 169.806L24.520 181.726C24.600 182.166 24.560 182.166 23.960 182.286C23.320 182.406 22.520 182.486 21.720 182.486C14.720 182.486 10.200 178.606 10.200 173.046C10.200 170.686 10.600 167.526 13.920 163.766C16.320 161.086 18.160 159.606 20.040 158.086ZM24.640 169.166C27.880 169.446 30.560 172.166 30.560 175.686C30.560 178.206 29.040 180.246 26.800 181.366C26.320 181.606 26.240 181.606 26.160 181.126L24.200 169.726C24.120 169.246 24.160 169.126 24.640 169.166ZM25.800 136.126C27.120 136.126 28.200 137.206 28.200 139.406C28.200 142.166 26.880 144.726 23.760 147.846C23.120 148.486 22.160 149.406 21.240 150.206C20.960 150.446 20.800 150.406 20.720 149.886C20.560 148.846 20.480 147.486 20.480 146.206C20.480 139.966 23.360 136.126 25.800 136.126Z"></path></g><g></g><g><g><path d="M56.420 150.726C54.100 150.726 52.380 151.126 51.100 151.886C51.020 151.926 50.940 151.926 50.900 151.926C50.740 151.926 50.740 151.766 50.740 151.646C50.740 151.566 50.740 151.486 50.740 151.486C50.740 151.486 50.900 149.246 50.940 148.886C50.980 148.566 51.180 148.366 51.540 148.366L51.700 148.366C52.100 148.446 53.980 148.726 55.620 148.726C61.180 148.726 61.380 145.526 61.380 144.886C61.380 144.366 61.260 144.046 60.820 144.046C60.300 144.046 57.180 144.406 55.900 144.406C54.620 144.406 51.180 144.086 50.500 144.006C49.780 144.006 49.580 144.366 49.540 144.686L49.100 153.566C49.100 153.606 49.100 153.606 49.100 153.646C49.100 154.166 49.500 154.246 49.900 154.246C50.300 154.246 50.340 153.886 50.780 153.446C51.180 153.046 52.140 152.126 53.500 152.126C54.860 152.126 57.620 152.886 57.620 157.326C57.620 161.726 55.260 162.286 54.220 162.286C53.900 162.286 53.580 162.286 53.300 162.166C53.100 162.046 52.860 161.886 52.820 161.606C52.820 161.326 53.100 161.166 53.300 161.046C54.220 160.486 54.820 159.486 54.820 158.366C54.820 156.606 53.420 155.246 51.700 155.246C49.540 155.246 48.660 156.806 48.540 158.206C48.500 158.446 48.500 158.686 48.500 158.926C48.500 162.246 50.660 163.886 55.580 163.886C60.380 163.886 63.020 160.926 63.020 157.326C63.020 153.686 60.060 150.726 56.420 150.726Z"></path></g><g><path d="M65.180 176.806L62.260 176.806L62.260 168.246C62.260 167.926 62.220 167.566 61.780 167.566C61.420 167.566 61.220 167.646 60.980 167.926L57.180 172.526C57.020 172.726 56.820 172.966 56.820 173.446C56.820 173.446 56.820 175.046 56.820 176.806L51.420 176.806C54.620 174.086 61.020 165.006 61.140 164.566C61.140 164.486 61.180 164.446 61.180 164.366C61.180 164.046 60.900 163.806 60.580 163.806C60.220 163.806 58.580 163.886 57.860 163.886C57.140 163.886 55.340 163.806 55.020 163.806C54.660 163.806 54.100 163.926 54.100 164.566C54.100 169.526 50.180 175.086 48.980 176.766L48.740 177.086C48.740 177.126 48.700 177.166 48.700 177.206C48.620 177.366 48.580 177.526 48.580 177.646C48.580 178.046 48.900 178.326 49.380 178.326L56.820 178.326L56.820 180.846C56.820 181.926 55.940 182.246 55.220 182.246C54.580 182.246 54.300 182.606 54.300 183.006C54.300 183.406 54.460 183.846 55.060 183.846C55.700 183.846 63.580 183.846 63.580 183.846C63.980 183.846 64.380 183.566 64.380 183.006C64.380 182.446 63.900 182.206 63.500 182.206C63.100 182.206 62.260 181.966 62.260 180.686L62.260 178.326C63.980 178.326 65.180 178.326 65.180 178.326C65.580 178.326 65.780 178.046 65.780 177.566C65.780 177.086 65.620 176.806 65.180 176.806Z"></path></g></g></g><g><line stroke="black" stroke-width="1.6" x1="536.085344142324" x2="536.085344142324" y1="143.8461538461538" y2="183.8461538461538"></line><line stroke="black" stroke-width="5" x1="543.385344142324" x2="543.385344142324" y1="143.8461538461538" y2="183.8461538461538"></line></g><g><path d="M98.320 170.286C96.800 168.446 95.560 166.966 95.560 164.726C95.560 164.566 95.600 164.366 95.600 164.206C95.760 161.886 97.200 159.966 98.240 158.326C98.360 158.126 98.400 157.926 98.400 157.726C98.400 157.326 98.240 156.966 98.240 156.966C98.240 156.966 92.320 149.926 91.640 149.246C91.440 149.046 91.160 148.926 90.920 148.926C90.520 148.926 90.120 149.206 90.120 149.766C90.120 149.966 90.160 150.166 90.280 150.406C90.440 150.846 92.720 152.886 92.720 155.766C92.720 157.246 92.120 158.966 90.320 160.846C89.920 161.246 89.760 161.686 89.760 162.006C89.760 162.566 90.160 162.966 90.160 162.966L92.120 165.366C92.760 166.166 93.320 166.926 93.840 167.766C93.920 167.926 94.080 168.126 94.080 168.326C94.080 168.366 94.080 168.446 94.040 168.486C93.960 168.646 93.800 168.686 93.600 168.686C93.360 168.686 93.120 168.606 92.960 168.566C92.760 168.566 92.520 168.446 92.320 168.446C90.600 168.446 89.040 170.166 89.040 172.286C89.040 174.286 90.760 176.246 93.680 178.486C94 178.726 94.400 178.846 94.720 178.846C95 178.846 95.280 178.766 95.320 178.606C95.360 178.486 95.400 178.406 95.400 178.326C95.400 177.966 95.080 177.646 94.760 177.366C94.240 177.366 93.800 176.286 93.720 175.926C93.600 175.606 93.560 175.246 93.560 174.886C93.560 173.646 94.160 172.246 95.440 172.006C95.640 171.966 95.840 171.966 96.080 171.966C97.240 171.966 98.560 172.406 99.200 172.646C99.240 172.646 99.280 172.686 99.320 172.686C99.440 172.726 99.520 172.726 99.600 172.726C99.720 172.726 99.800 172.686 99.800 172.566C99.800 172.086 98.760 170.766 98.320 170.286Z"></path></g><g><path d="M187.577 190.286C186.057 188.446 184.817 186.966 184.817 184.726C184.817 184.566 184.857 184.366 184.857 184.206C185.017 181.886 186.457 179.966 187.497 178.326C187.617 178.126 187.657 177.926 187.657 177.726C187.657 177.326 187.497 176.966 187.497 176.966C187.497 176.966 181.577 169.926 180.897 169.246C180.697 169.046 180.417 168.926 180.177 168.926C179.777 168.926 179.377 169.206 179.377 169.766C179.377 169.966 179.417 170.166 179.537 170.406C179.697 170.846 181.977 172.886 181.977 175.766C181.977 177.246 181.377 178.966 179.577 180.846C179.177 181.246 179.017 181.686 179.017 182.006C179.017 182.566 179.417 182.966 179.417 182.966L181.377 185.366C182.017 186.166 182.577 186.926 183.097 187.766C183.177 187.926 183.337 188.126 183.337 188.326C183.337 188.366 183.337 188.446 183.297 188.486C183.217 188.646 183.057 188.686 182.857 188.686C182.617 188.686 182.377 188.606 182.217 188.566C182.017 188.566 181.777 188.446 181.577 188.446C179.857 188.446 178.297 190.166 178.297 192.286C178.297 194.286 180.017 196.246 182.937 198.486C183.257 198.726 183.657 198.846 183.977 198.846C184.257 198.846 184.537 198.766 184.577 198.606C184.617 198.486 184.657 198.406 184.657 198.326C184.657 197.966 184.337 197.646 184.017 197.366C183.497 197.366 183.057 196.286 182.977 195.926C182.857 195.606 182.817 195.246 182.817 194.886C182.817 193.646 183.417 192.246 184.697 192.006C184.897 191.966 185.097 191.966 185.337 191.966C186.497 191.966 187.817 192.406 188.457 192.646C188.497 192.646 188.537 192.686 188.577 192.686C188.697 192.726 188.777 192.726 188.857 192.726C188.977 192.726 189.057 192.686 189.057 192.566C189.057 192.086 188.017 190.766 187.577 190.286Z"></path></g><g><path d="M276.834 150.286C275.314 148.446 274.074 146.966 274.074 144.726C274.074 144.566 274.114 144.366 274.114 144.206C274.274 141.886 275.714 139.966 276.754 138.326C276.874 138.126 276.914 137.926 276.914 137.726C276.914 137.326 276.754 136.966 276.754 136.966C276.754 136.966 270.834 129.926 270.154 129.246C269.954 129.046 269.674 128.926 269.434 128.926C269.034 128.926 268.634 129.206 268.634 129.766C268.634 129.966 268.674 130.166 268.794 130.406C268.954 130.846 271.234 132.886 271.234 135.766C271.234 137.246 270.634 138.966 268.834 140.846C268.434 141.246 268.274 141.686 268.274 142.006C268.274 142.566 268.674 142.966 268.674 142.966L270.634 145.366C271.274 146.166 271.834 146.926 272.354 147.766C272.434 147.926 272.594 148.126 272.594 148.326C272.594 148.366 272.594 148.446 272.554 148.486C272.474 148.646 272.314 148.686 272.114 148.686C271.874 148.686 271.634 148.606 271.474 148.566C271.274 148.566 271.034 148.446 270.834 148.446C269.114 148.446 267.554 150.166 267.554 152.286C267.554 154.286 269.274 156.246 272.194 158.486C272.514 158.726 272.914 158.846 273.234 158.846C273.514 158.846 273.794 158.766 273.834 158.606C273.874 158.486 273.914 158.406 273.914 158.326C273.914 157.966 273.594 157.646 273.274 157.366C272.754 157.366 272.314 156.286 272.234 155.926C272.114 155.606 272.074 155.246 272.074 154.886C272.074 153.646 272.674 152.246 273.954 152.006C274.154 151.966 274.354 151.966 274.594 151.966C275.754 151.966 277.074 152.406 277.714 152.646C277.754 152.646 277.794 152.686 277.834 152.686C277.954 152.726 278.034 152.726 278.114 152.726C278.234 152.726 278.314 152.686 278.314 152.566C278.314 152.086 277.274 150.766 276.834 150.286Z"></path></g><g><path d="M366.091 210.286C364.571 208.446 363.331 206.966 363.331 204.726C363.331 204.566 363.371 204.366 363.371 204.206C363.531 201.886 364.971 199.966 366.011 198.326C366.131 198.126 366.171 197.926 366.171 197.726C366.171 197.326 366.011 196.966 366.011 196.966C366.011 196.966 360.091 189.926 359.411 189.246C359.211 189.046 358.931 188.926 358.691 188.926C358.291 188.926 357.891 189.206 357.891 189.766C357.891 189.966 357.931 190.166 358.051 190.406C358.211 190.846 360.491 192.886 360.491 195.766C360.491 197.246 359.891 198.966 358.091 200.846C357.691 201.246 357.531 201.686 357.531 202.006C357.531 202.566 357.931 202.966 357.931 202.966L359.891 205.366C360.531 206.166 361.091 206.926 361.611 207.766C361.691 207.926 361.851 208.126 361.851 208.326C361.851 208.366 361.851 208.446 361.811 208.486C361.731 208.646 361.571 208.686 361.371 208.686C361.131 208.686 360.891 208.606 360.731 208.566C360.531 208.566 360.291 208.446 360.091 208.446C358.371 208.446 356.811 210.166 356.811 212.286C356.811 214.286 358.531 216.246 361.451 218.486C361.771 218.726 362.171 218.846 362.491 218.846C362.771 218.846 363.051 218.766 363.091 218.606C363.131 218.486 363.171 218.406 363.171 218.326C363.171 217.966 362.851 217.646 362.531 217.366C362.011 217.366 361.571 216.286 361.491 215.926C361.371 215.606 361.331 215.246 361.331 214.886C361.331 213.646 361.931 212.246 363.211 212.006C363.411 211.966 363.611 211.966 363.851 211.966C365.011 211.966 366.331 212.406 366.971 212.646C367.011 212.646 367.051 212.686 367.091 212.686C367.211 212.726 367.291 212.726 367.371 212.726C367.491 212.726 367.571 212.686 367.571 212.566C367.571 212.086 366.531 210.766 366.091 210.286Z"></path></g><g><path d="M455.348 130.286C453.828 128.446 452.588 126.966 452.588 124.726C452.588 124.566 452.628 124.366 452.628 124.206C452.788 121.886 454.228 119.966 455.268 118.326C455.388 118.126 455.428 117.926 455.428 117.726C455.428 117.326 455.268 116.966 455.268 116.966C455.268 116.966 449.348 109.926 448.668 109.246C448.468 109.046 448.188 108.926 447.948 108.926C447.548 108.926 447.148 109.206 447.148 109.766C447.148 109.966 447.188 110.166 447.308 110.406C447.468 110.846 449.748 112.886 449.748 115.766C449.748 117.246 449.148 118.966 447.348 120.846C446.948 121.246 446.788 121.686 446.788 122.006C446.788 122.566 447.188 122.966 447.188 122.966L449.148 125.366C449.788 126.166 450.348 126.926 450.868 127.766C450.948 127.926 451.108 128.126 451.108 128.326C451.108 128.366 451.108 128.446 451.068 128.486C450.988 128.646 450.828 128.686 450.628 128.686C450.388 128.686 450.148 128.606 449.988 128.566C449.788 128.566 449.548 128.446 449.348 128.446C447.628 128.446 446.068 130.166 446.068 132.286C446.068 134.286 447.788 136.246 450.708 138.486C451.028 138.726 451.428 138.846 451.748 138.846C452.028 138.846 452.308 138.766 452.348 138.606C452.388 138.486 452.428 138.406 452.428 138.326C452.428 137.966 452.108 137.646 451.788 137.366C451.268 137.366 450.828 136.286 450.748 135.926C450.628 135.606 450.588 135.246 450.588 134.886C450.588 133.646 451.188 132.246 452.468 132.006C452.668 131.966 452.868 131.966 453.108 131.966C454.268 131.966 455.588 132.406 456.228 132.646C456.268 132.646 456.308 132.686 456.348 132.686C456.468 132.726 456.548 132.726 456.628 132.726C456.748 132.726 456.828 132.686 456.828 132.566C456.828 132.086 455.788 130.766 455.348 130.286Z"></path></g></g></svg>