<?xml version="1.0" encoding="UTF-8" standalone="no"?><svg xmlns="http://www.w3.org/2000/svg" height="279.4mm" viewBox="0 0 1328.6153846153845 1719.3846153846152" width="215.9mm"><g transform="translate(93.84615384615385)"><g><g><line stroke="#6A6A6A" stroke-width="1.3" x1="0" x2="792.4953668079452" y1="198.8461538461538" y2="198.8461538461538"></line><line stroke="#6A6A6A" stroke-width="1.3" x1="0" x2="792.4953668079452" y1="188.8461538461538" y2="188.8461538461538"></line><line stroke="#6A6A6A" stroke-width="1.3" x1="0" x2="792.4953668079452" y1="178.8461538461538" y2="178.8461538461538"></line><line stroke="#6A6A6A" stroke-width="1.3" x1="0" x2="792.4953668079452" y1="168.8461538461538" y2="168.8461538461538"></line><line stroke="#6A6A6A" stroke-width="1.3" x1="0" x2="792.4953668079452" y1="158.8461538461538" y2="158.8461538461538"></line></g><g><path d="M25.200 144.926C24.640 144.926 23.400 145.966 22.600 146.846C19.640 150.126 18.680 155.126 18.680 159.286C18.680 161.606 18.960 164.206 19.240 165.846C19.320 166.326 19.360 166.406 18.880 166.806C16.320 168.926 13.560 171.366 11.480 173.926C8.720 177.366 7 181.086 7 185.366C7 192.326 11.760 198.926 21.560 198.926C22.480 198.926 23.520 198.846 24.320 198.686C24.760 198.606 24.840 198.566 24.920 199.046C25.400 201.726 26 205.206 26 207.086C26 213.006 22 213.726 19.640 213.726C17.480 213.726 16.440 213.086 16.440 212.566C16.440 212.126 16.800 212.166 17.720 211.886C18.960 211.526 20.400 210.446 20.400 208.126C20.400 205.926 19 204.046 16.560 204.046C13.880 204.046 12.280 206.166 12.280 208.646C12.280 211.246 13.840 215.166 19.880 215.166C22.560 215.166 27.760 213.966 27.760 207.166C27.760 204.886 27.040 201.086 26.600 198.606C26.520 198.126 26.560 198.166 27.120 197.926C31.160 196.326 33.840 192.926 33.840 188.406C33.840 183.286 30.080 178.766 24.200 178.766C23.080 178.766 23.200 178.966 23.040 178.046L22.040 172.246C21.960 171.766 22.040 171.726 22.280 171.486C22.920 170.886 23.760 170.046 24.520 169.206C27.880 165.526 29.880 160.766 29.880 156.246C29.880 152.766 28.920 149.326 27.280 146.926C26.680 146.046 25.640 144.926 25.200 144.926ZM20.040 173.086C20.440 172.766 20.520 172.806 20.600 173.246L21.440 178.366C21.560 179.126 21.560 179.086 20.840 179.326C17.320 180.526 15.040 183.686 15.040 187.086C15.040 190.686 16.920 193.246 19.640 194.166C19.960 194.286 20.440 194.406 20.720 194.406C21.040 194.406 21.200 194.206 21.200 193.966C21.200 193.686 20.880 193.566 20.600 193.446C18.920 192.726 17.720 191.006 17.720 189.166C17.720 186.886 19.280 185.166 21.720 184.486C22.360 184.326 22.440 184.366 22.520 184.806L24.520 196.726C24.600 197.166 24.560 197.166 23.960 197.286C23.320 197.406 22.520 197.486 21.720 197.486C14.720 197.486 10.200 193.606 10.200 188.046C10.200 185.686 10.600 182.526 13.920 178.766C16.320 176.086 18.160 174.606 20.040 173.086ZM24.640 184.166C27.880 184.446 30.560 187.166 30.560 190.686C30.560 193.206 29.040 195.246 26.800 196.366C26.320 196.606 26.240 196.606 26.160 196.126L24.200 184.726C24.120 184.246 24.160 184.126 24.640 184.166ZM25.800 151.126C27.120 151.126 28.200 152.206 28.200 154.406C28.200 157.166 26.880 159.726 23.760 162.846C23.120 163.486 22.160 164.406 21.240 165.206C20.960 165.446 20.800 165.406 20.720 164.886C20.560 163.846 20.480 162.486 20.480 161.206C20.480 154.966 23.360 151.126 25.800 151.126Z"></path></g><g></g><path d="M57.820 168.806C56.620 168.806 55.220 169.126 54.140 169.606C50.580 171.166 48.700 175.446 48.700 179.246C48.700 179.606 48.700 179.966 48.740 180.326C48.940 182.486 49.980 184.526 51.300 186.126C52.820 187.966 55.020 188.806 57.420 188.806C64.420 188.806 65.460 182.446 65.460 181.286C65.460 180.406 65.020 180.406 64.860 180.406C64.540 180.406 64.260 180.446 64.260 181.126C64.260 186.286 59.860 187.486 58.580 187.486C55.340 187.486 53.620 184.326 53.620 177.726C53.620 171.126 56.660 169.766 58.820 169.766C60.900 169.766 61.740 170.726 61.740 171.126C61.740 171.486 61.620 172.006 61.020 172.006C59.420 172.006 58.500 173.726 58.500 174.966C58.500 177.246 60.460 177.966 61.580 177.966C61.580 177.966 64.620 177.846 64.620 174.526C64.620 169.286 58.580 168.806 57.820 168.806Z"></path></g><g><line stroke="#000000" stroke-width="1.6" x1="782.6953668079452" x2="782.6953668079452" y1="158.8461538461538" y2="198.8461538461538"></line><line stroke="#000000" stroke-width="5" x1="789.9953668079453" x2="789.9953668079453" y1="158.8461538461538" y2="198.8461538461538"></line></g><g><g><path d="M93.360 189.486C97.360 189.486 102.280 185.766 102.280 181.966C102.280 179.686 100.480 178.206 97.880 178.206C92.960 178.206 89 181.846 89 185.726C89 188.086 90.920 189.486 93.360 189.486Z"></path></g><line stroke="#000000" stroke-width="1.2" x1="101.68" x2="101.68" y1="182.0061538461538" y2="82.00615384615381"></line><g><polygon fill="black" points="101.68,86.84615384615381 186.17311947146302,86.84615384615381 186.17311947146302,81.84615384615381 101.68,81.84615384615381" stroke="black" stroke-width="0"></polygon><polygon fill="black" points="186.17311947146302,86.84615384615381 270.66623894292604,86.84615384615381 270.66623894292604,81.84615384615381 186.17311947146302,81.84615384615381" stroke="black" stroke-width="0"></polygon><polygon fill="black" points="270.66623894292604,86.84615384615381 355.1593584143891,86.84615384615381 355.1593584143891,81.84615384615381 270.66623894292604,81.84615384615381" stroke="black" stroke-width="0"></polygon></g></g><g><g><path d="M177.853 179.486C181.853 179.486 186.773 175.766 186.773 171.966C186.773 169.686 184.973 168.206 182.373 168.206C177.453 168.206 173.493 171.846 173.493 175.726C173.493 178.086 175.413 179.486 177.853 179.486Z"></path></g><line stroke="#000000" stroke-width="1.2" x1="186.17311947146302" x2="186.17311947146302" y1="172.0061538461538" y2="82.00615384615381"></line></g><g><g><path d="M262.346 119.486C266.346 119.486 271.266 115.766 271.266 111.966C271.266 109.686 269.466 108.206 266.866 108.206C261.946 108.206 257.986 111.846 257.986 115.726C257.986 118.086 259.906 119.486 262.346 119.486Z"></path></g><line stroke="#000000" stroke-width="1.2" x1="270.66623894292604" x2="270.66623894292604" y1="112.00615384615381" y2="82.00615384615381"></line><line stroke="#000000" stroke-width="2.2" x1="254.78623894292605" x2="276.70623894292606" y1="148.8461538461538" y2="148.8461538461538"></line><line stroke="#000000" stroke-width="2.2" x1="254.78623894292605" x2="276.70623894292606" y1="138.8461538461538" y2="138.8461538461538"></line><line stroke="#000000" stroke-width="2.2" x1="254.78623894292605" x2="276.70623894292606" y1="128.8461538461538" y2="128.8461538461538"></line><line stroke="#000000" stroke-width="2.2" x1="254.78623894292605" x2="276.70623894292606" y1="118.84615384615381" y2="118.84615384615381"></line></g><g><g><path d="M346.839 249.486C350.839 249.486 355.759 245.766 355.759 241.966C355.759 239.686 353.959 238.206 351.359 238.206C346.439 238.206 342.479 241.846 342.479 245.726C342.479 248.086 344.399 249.486 346.839 249.486Z"></path></g><line stroke="#000000" stroke-width="1.2" x1="355.1593584143891" x2="355.1593584143891" y1="242.0061538461538" y2="82.00615384615381"></line><line stroke="#000000" stroke-width="2.2" x1="339.2793584143891" x2="361.1993584143891" y1="208.8461538461538" y2="208.8461538461538"></line><line stroke="#000000" stroke-width="2.2" x1="339.2793584143891" x2="361.1993584143891" y1="218.8461538461538" y2="218.8461538461538"></line><line stroke="#000000" stroke-width="2.2" x1="339.2793584143891" x2="361.1993584143891" y1="228.8461538461538" y2="228.8461538461538"></line><line stroke="#000000" stroke-width="2.2" x1="339.2793584143891" x2="361.1993584143891" y1="238.8461538461538" y2="238.8461538461538"></line></g><g><g><path d="M431.332 254.486C435.332 254.486 440.252 250.766 440.252 246.966C440.252 244.686 438.452 243.206 435.852 243.206C430.932 243.206 426.972 246.846 426.972 250.726C426.972 253.086 428.892 254.486 431.332 254.486Z"></path></g><line stroke="#000000" stroke-width="1.2" x1="439.6524778858521" x2="439.6524778858521" y1="247.0061538461538" y2="117.00615384615381"></line><line stroke="#000000" stroke-width="2.2" x1="423.7724778858521" x2="445.6924778858521" y1="208.8461538461538" y2="208.8461538461538"></line><line stroke="#000000" stroke-width="2.2" x1="423.7724778858521" x2="445.6924778858521" y1="218.8461538461538" y2="218.8461538461538"></line><line stroke="#000000" stroke-width="2.2" x1="423.7724778858521" x2="445.6924778858521" y1="228.8461538461538" y2="228.8461538461538"></line><line stroke="#000000" stroke-width="2.2" x1="423.7724778858521" x2="445.6924778858521" y1="238.8461538461538" y2="238.8461538461538"></line><line stroke="#000000" stroke-width="2.2" x1="423.7724778858521" x2="445.6924778858521" y1="248.8461538461538" y2="248.8461538461538"></line><g><polygon fill="black" points="439.652477885852,121.84615384615381 524.1455973573151,121.84615384615381 524.1455973573151,116.84615384615381 439.652477885852,116.84615384615381" stroke="black" stroke-width="0"></polygon><polygon fill="black" points="524.1455973573151,121.84615384615381 608.6387168287781,121.84615384615381 608.6387168287781,116.84615384615381 524.1455973573151,116.84615384615381" stroke="black" stroke-width="0"></polygon><polygon fill="black" points="608.6387168287781,121.84615384615381 693.1318363002412,121.84615384615381 693.1318363002412,116.84615384615381 608.6387168287781,116.84615384615381" stroke="black" stroke-width="0"></polygon><polygon fill="black" points="693.1318363002412,121.84615384615381 743.8536015540932,121.84615384615381 743.8536015540932,116.84615384615381 693.1318363002412,116.84615384615381" stroke="black" stroke-width="0"></polygon><polygon fill="black" points="693.1318363002412,130.64615384615382 743.8536015540932,130.64615384615382 743.8536015540932,125.64615384615382 693.1318363002412,125.64615384615382" stroke="black" stroke-width="0"></polygon></g></g><g><g><path d="M515.826 154.486C519.826 154.486 524.746 150.766 524.746 146.966C524.746 144.686 522.946 143.206 520.346 143.206C515.426 143.206 511.466 146.846 511.466 150.726C511.466 153.086 513.386 154.486 515.826 154.486Z"></path></g><line stroke="#000000" stroke-width="1.2" x1="524.1455973573151" x2="524.1455973573151" y1="147.0061538461538" y2="117.00615384615381"></line><line stroke="#000000" stroke-width="2.2" x1="508.26559735731513" x2="530.185597357315" y1="148.8461538461538" y2="148.8461538461538"></line></g><g><g><path d="M600.319 154.486C604.319 154.486 609.239 150.766 609.239 146.966C609.239 144.686 607.439 143.206 604.839 143.206C599.919 143.206 595.959 146.846 595.959 150.726C595.959 153.086 597.879 154.486 600.319 154.486Z"></path></g><line stroke="#000000" stroke-width="1.2" x1="608.6387168287781" x2="608.6387168287781" y1="147.0061538461538" y2="117.00615384615381"></line><line stroke="#000000" stroke-width="2.2" x1="592.7587168287781" x2="614.6787168287781" y1="148.8461538461538" y2="148.8461538461538"></line></g><g><g><path d="M684.812 219.486C688.812 219.486 693.732 215.766 693.732 211.966C693.732 209.686 691.932 208.206 689.332 208.206C684.412 208.206 680.452 211.846 680.452 215.726C680.452 218.086 682.372 219.486 684.812 219.486Z"></path></g><line stroke="#000000" stroke-width="1.2" x1="693.1318363002412" x2="693.1318363002412" y1="212.0061538461538" y2="117.00615384615381"></line><line stroke="#000000" stroke-width="2.2" x1="677.2518363002412" x2="699.1718363002411" y1="208.8461538461538" y2="208.8461538461538"></line></g><g><g><path d="M735.534 214.486C739.534 214.486 744.454 210.766 744.454 206.966C744.454 204.686 742.654 203.206 740.054 203.206C735.134 203.206 731.174 206.846 731.174 210.726C731.174 213.086 733.094 214.486 735.534 214.486Z"></path></g><line stroke="#000000" stroke-width="1.2" x1="743.8536015540932" x2="743.8536015540932" y1="207.0061538461538" y2="117.00615384615381"></line><line stroke="#000000" stroke-width="2.2" x1="727.9736015540932" x2="749.8936015540932" y1="208.8461538461538" y2="208.8461538461538"></line></g></g></svg>