<?xml version="1.0" encoding="UTF-8" standalone="no"?><svg xmlns="http://www.w3.org/2000/svg" height="279.4mm" viewBox="0 0 1328.6153846153845 1719.3846153846152" width="215.9mm"><g transform="translate(93.84615384615385)"><g><g><line stroke="#6A6A6A" stroke-width="1.3" x1="0" x2="523.7076924396215" y1="183.8461538461538" y2="183.8461538461538"></line><line stroke="#6A6A6A" stroke-width="1.3" x1="0" x2="523.7076924396215" y1="173.8461538461538" y2="173.8461538461538"></line><line stroke="#6A6A6A" stroke-width="1.3" x1="0" x2="523.7076924396215" y1="163.8461538461538" y2="163.8461538461538"></line><line stroke="#6A6A6A" stroke-width="1.3" x1="0" x2="523.7076924396215" y1="153.8461538461538" y2="153.8461538461538"></line><line stroke="#6A6A6A" stroke-width="1.3" x1="0" x2="523.7076924396215" y1="143.8461538461538" y2="143.8461538461538"></line></g><g><path d="M25.200 129.926C24.640 129.926 23.400 130.966 22.600 131.846C19.640 135.126 18.680 140.126 18.680 144.286C18.680 146.606 18.960 149.206 19.240 150.846C19.320 151.326 19.360 151.406 18.880 151.806C16.320 153.926 13.560 156.366 11.480 158.926C8.720 162.366 7 166.086 7 170.366C7 177.326 11.760 183.926 21.560 183.926C22.480 183.926 23.520 183.846 24.320 183.686C24.760 183.606 24.840 183.566 24.920 184.046C25.400 186.726 26 190.206 26 192.086C26 198.006 22 198.726 19.640 198.726C17.480 198.726 16.440 198.086 16.440 197.566C16.440 197.126 16.800 197.166 17.720 196.886C18.960 196.526 20.400 195.446 20.400 193.126C20.400 190.926 19 189.046 16.560 189.046C13.880 189.046 12.280 191.166 12.280 193.646C12.280 196.246 13.840 200.166 19.880 200.166C22.560 200.166 27.760 198.966 27.760 192.166C27.760 189.886 27.040 186.086 26.600 183.606C26.520 183.126 26.560 183.166 27.120 182.926C31.160 181.326 33.840 177.926 33.840 173.406C33.840 168.286 30.080 163.766 24.200 163.766C23.080 163.766 23.200 163.966 23.040 163.046L22.040 157.246C21.960 156.766 22.040 156.726 22.280 156.486C22.920 155.886 23.760 155.046 24.520 154.206C27.880 150.526 29.880 145.766 29.880 141.246C29.880 137.766 28.920 134.326 27.280 131.926C26.680 131.046 25.640 129.926 25.200 129.926ZM20.040 158.086C20.440 157.766 20.520 157.806 20.600 158.246L21.440 163.366C21.560 164.126 21.560 164.086 20.840 164.326C17.320 165.526 15.040 168.686 15.040 172.086C15.040 175.686 16.920 178.246 19.640 179.166C19.960 179.286 20.440 179.406 20.720 179.406C21.040 179.406 21.200 179.206 21.200 178.966C21.200 178.686 20.880 178.566 20.600 178.446C18.920 177.726 17.720 176.006 17.720 174.166C17.720 171.886 19.280 170.166 21.720 169.486C22.360 169.326 22.440 169.366 22.520 169.806L24.520 181.726C24.600 182.166 24.560 182.166 23.960 182.286C23.320 182.406 22.520 182.486 21.720 182.486C14.720 182.486 10.200 178.606 10.200 173.046C10.200 170.686 10.600 167.526 13.920 163.766C16.320 161.086 18.160 159.606 20.040 158.086ZM24.640 169.166C27.880 169.446 30.560 172.166 30.560 175.686C30.560 178.206 29.040 180.246 26.800 181.366C26.320 181.606 26.240 181.606 26.160 181.126L24.200 169.726C24.120 169.246 24.160 169.126 24.640 169.166ZM25.800 136.126C27.120 136.126 28.200 137.206 28.200 139.406C28.200 142.166 26.880 144.726 23.760 147.846C23.120 148.486 22.160 149.406 21.240 150.206C20.960 150.446 20.800 150.406 20.720 149.886C20.560 148.846 20.480 147.486 20.480 146.206C20.480 139.966 23.360 136.126 25.800 136.126Z"></path></g><g></g><g><g><path d="M65.180 156.806L62.260 156.806L62.260 148.246C62.260 147.926 62.220 147.566 61.780 147.566C61.420 147.566 61.220 147.646 60.980 147.926L57.180 152.526C57.020 152.726 56.820 152.966 56.820 153.446C56.820 153.446 56.820 155.046 56.820 156.806L51.420 156.806C54.620 154.086 61.020 145.006 61.140 144.566C61.140 144.486 61.180 144.446 61.180 144.366C61.180 144.046 60.900 143.806 60.580 143.806C60.220 143.806 58.580 143.886 57.860 143.886C57.140 143.886 55.340 143.806 55.020 143.806C54.660 143.806 54.100 143.926 54.100 144.566C54.100 149.526 50.180 155.086 48.980 156.766L48.740 157.086C48.740 157.126 48.700 157.166 48.700 157.206C48.620 157.366 48.580 157.526 48.580 157.646C48.580 158.046 48.900 158.326 49.380 158.326L56.820 158.326L56.820 160.846C56.820 161.926 55.940 162.246 55.220 162.246C54.580 162.246 54.300 162.606 54.300 163.006C54.300 163.406 54.460 163.846 55.060 163.846C55.700 163.846 63.580 163.846 63.580 163.846C63.980 163.846 64.380 163.566 64.380 163.006C64.380 162.446 63.900 162.206 63.500 162.206C63.100 162.206 62.260 161.966 62.260 160.686L62.260 158.326C63.980 158.326 65.180 158.326 65.180 158.326C65.580 158.326 65.780 158.046 65.780 157.566C65.780 157.086 65.620 156.806 65.180 156.806Z"></path></g><g><path d="M65.180 176.806L62.260 176.806L62.260 168.246C62.260 167.926 62.220 167.566 61.780 167.566C61.420 167.566 61.220 167.646 60.980 167.926L57.180 172.526C57.020 172.726 56.820 172.966 56.820 173.446C56.820 173.446 56.820 175.046 56.820 176.806L51.420 176.806C54.620 174.086 61.020 165.006 61.140 164.566C61.140 164.486 61.180 164.446 61.180 164.366C61.180 164.046 60.900 163.806 60.580 163.806C60.220 163.806 58.580 163.886 57.860 163.886C57.140 163.886 55.340 163.806 55.020 163.806C54.660 163.806 54.100 163.926 54.100 164.566C54.100 169.526 50.180 175.086 48.980 176.766L48.740 177.086C48.740 177.126 48.700 177.166 48.700 177.206C48.620 177.366 48.580 177.526 48.580 177.646C48.580 178.046 48.900 178.326 49.380 178.326L56.820 178.326L56.820 180.846C56.820 181.926 55.940 182.246 55.220 182.246C54.580 182.246 54.300 182.606 54.300 183.006C54.300 183.406 54.460 183.846 55.060 183.846C55.700 183.846 63.580 183.846 63.580 183.846C63.980 183.846 64.380 183.566 64.380 183.006C64.380 182.446 63.900 182.206 63.500 182.206C63.100 182.206 62.260 181.966 62.260 180.686L62.260 178.326C63.980 178.326 65.180 178.326 65.180 178.326C65.580 178.326 65.780 178.046 65.780 177.566C65.780 177.086 65.620 176.806 65.180 176.806Z"></path></g></g><text font-family='Alegreya' font-style='italic' text-anchor='end' stroke='#7a7a7a' font-size="24" x="0" y="133.8461538461538">25</text></g><g><line stroke="black" stroke-width="1.6" x1="513.9076924396214" x2="513.9076924396214" y1="143.8461538461538" y2="183.8461538461538"></line><line stroke="black" stroke-width="5" x1="521.2076924396215" x2="521.2076924396215" y1="143.8461538461538" y2="183.8461538461538"></line></g><g><g><path d="M93.480 154.646C101.120 154.646 102.640 148.446 102.640 146.926C102.640 144.566 100.760 143.046 98.080 143.046C91.160 143.046 89 148.406 89 150.806C89 153.246 90.960 154.646 93.480 154.646ZM97 150.966C94.920 152.366 93.480 152.846 92.480 152.846C91.520 152.846 90.960 152.366 90.640 151.806C90.480 151.526 90.360 151.206 90.360 150.886C90.360 149.886 91.360 148.606 94.560 146.766C96.840 145.446 98.280 144.966 99.240 144.966C100.120 144.966 100.600 145.366 100.920 145.926C101.080 146.206 101.200 146.486 101.200 146.806C101.200 147.726 100.240 148.846 97 150.966Z"></path></g><line stroke="#000000" stroke-width="1.2" x1="89.6" x2="89.6" y1="150.80615384615382" y2="188.80615384615382"></line></g><g><g><path d="M276.914 144.486C280.914 144.486 285.834 140.766 285.834 136.966C285.834 134.686 284.034 133.206 281.434 133.206C276.514 133.206 272.554 136.846 272.554 140.726C272.554 143.086 274.474 144.486 276.914 144.486Z"></path></g><line stroke="#000000" stroke-width="1.2" x1="273.15384621981076" x2="273.15384621981076" y1="140.68615384615381" y2="166.93615384615381"></line><path d="M282.154 141.016C282.754 144.376 282.754 148.016 281.234 151.136C278.474 156.736 275.234 156.856 272.754 156.936L272.554 156.936L272.554 172.776C272.554 172.776 272.994 172.816 273.234 172.816C273.474 172.816 273.954 172.736 274.034 172.296C274.994 166.136 282.874 164.416 283.834 158.136C283.914 157.696 283.954 157.216 283.954 156.696C283.954 154.256 283.074 151.856 282.954 151.616C282.914 151.536 282.914 151.456 282.914 151.336C282.914 151.176 282.954 151.096 282.954 150.976C284.394 147.976 284.434 144.056 283.794 140.856C283.594 139.936 283.314 139.976 282.834 139.976C282.354 140.016 282.034 140.336 282.154 141.016ZM281.594 154.216C281.794 154.216 282.074 154.336 282.114 154.496C282.314 154.776 282.314 155.176 282.394 155.496C282.434 155.776 282.434 156.056 282.434 156.296C282.434 157.616 282.074 158.816 281.354 159.856C280.034 161.816 277.474 164.056 275.034 164.056L274.714 164.056C274.394 164.056 274.154 163.856 274.154 163.656C274.154 163.616 274.154 163.576 274.194 163.536C275.034 160.256 277.274 159.336 279.154 157.136C279.994 156.216 280.674 155.416 281.314 154.376C281.394 154.256 281.474 154.216 281.594 154.216Z"></path></g><g><g><path d="M288.314 139.486C292.314 139.486 297.234 135.766 297.234 131.966C297.234 129.686 295.434 128.206 292.834 128.206C287.914 128.206 283.954 131.846 283.954 135.726C283.954 138.086 285.874 139.486 288.314 139.486Z"></path></g><line stroke="#000000" stroke-width="1.2" x1="284.5538462198108" x2="284.5538462198108" y1="135.68615384615381" y2="161.93615384615381"></line><line stroke="#000000" stroke-width="2.2" x1="280.7538462198108" x2="302.6738462198108" y1="133.8461538461538" y2="133.8461538461538"></line><path d="M293.554 136.016C294.154 139.376 294.154 143.016 292.634 146.136C289.874 151.736 286.634 151.856 284.154 151.936L283.954 151.936L283.954 167.776C283.954 167.776 284.394 167.816 284.634 167.816C284.874 167.816 285.354 167.736 285.434 167.296C286.394 161.136 294.274 159.416 295.234 153.136C295.314 152.696 295.354 152.216 295.354 151.696C295.354 149.256 294.474 146.856 294.354 146.616C294.314 146.536 294.314 146.456 294.314 146.336C294.314 146.176 294.354 146.096 294.354 145.976C295.794 142.976 295.834 139.056 295.194 135.856C294.994 134.936 294.714 134.976 294.234 134.976C293.754 135.016 293.434 135.336 293.554 136.016ZM292.994 149.216C293.194 149.216 293.474 149.336 293.514 149.496C293.714 149.776 293.714 150.176 293.794 150.496C293.834 150.776 293.834 151.056 293.834 151.296C293.834 152.616 293.474 153.816 292.754 154.856C291.434 156.816 288.874 159.056 286.434 159.056L286.114 159.056C285.794 159.056 285.554 158.856 285.554 158.656C285.554 158.616 285.554 158.576 285.594 158.536C286.434 155.256 288.674 154.336 290.554 152.136C291.394 151.216 292.074 150.416 292.714 149.376C292.794 149.256 292.874 149.216 292.994 149.216Z"></path></g><g><g><path d="M299.714 139.486C303.714 139.486 308.634 135.766 308.634 131.966C308.634 129.686 306.834 128.206 304.234 128.206C299.314 128.206 295.354 131.846 295.354 135.726C295.354 138.086 297.274 139.486 299.714 139.486Z"></path></g><line stroke="#000000" stroke-width="1.2" x1="295.95384621981077" x2="295.95384621981077" y1="135.68615384615381" y2="161.93615384615381"></line><line stroke="#000000" stroke-width="2.2" x1="292.15384621981076" x2="314.0738462198108" y1="133.8461538461538" y2="133.8461538461538"></line><path d="M304.954 136.016C305.554 139.376 305.554 143.016 304.034 146.136C301.274 151.736 298.034 151.856 295.554 151.936L295.354 151.936L295.354 167.776C295.354 167.776 295.794 167.816 296.034 167.816C296.274 167.816 296.754 167.736 296.834 167.296C297.794 161.136 305.674 159.416 306.634 153.136C306.714 152.696 306.754 152.216 306.754 151.696C306.754 149.256 305.874 146.856 305.754 146.616C305.714 146.536 305.714 146.456 305.714 146.336C305.714 146.176 305.754 146.096 305.754 145.976C307.194 142.976 307.234 139.056 306.594 135.856C306.394 134.936 306.114 134.976 305.634 134.976C305.154 135.016 304.834 135.336 304.954 136.016ZM304.394 149.216C304.594 149.216 304.874 149.336 304.914 149.496C305.114 149.776 305.114 150.176 305.194 150.496C305.234 150.776 305.234 151.056 305.234 151.296C305.234 152.616 304.874 153.816 304.154 154.856C302.834 156.816 300.274 159.056 297.834 159.056L297.514 159.056C297.194 159.056 296.954 158.856 296.954 158.656C296.954 158.616 296.954 158.576 296.994 158.536C297.834 155.256 300.074 154.336 301.954 152.136C302.794 151.216 303.474 150.416 304.114 149.376C304.194 149.256 304.274 149.216 304.394 149.216Z"></path></g><g><g><path d="M311.234 154.646C318.874 154.646 320.394 148.446 320.394 146.926C320.394 144.566 318.514 143.046 315.834 143.046C308.914 143.046 306.754 148.406 306.754 150.806C306.754 153.246 308.714 154.646 311.234 154.646ZM314.754 150.966C312.674 152.366 311.234 152.846 310.234 152.846C309.274 152.846 308.714 152.366 308.394 151.806C308.234 151.526 308.114 151.206 308.114 150.886C308.114 149.886 309.114 148.606 312.314 146.766C314.594 145.446 316.034 144.966 316.994 144.966C317.874 144.966 318.354 145.366 318.674 145.926C318.834 146.206 318.954 146.486 318.954 146.806C318.954 147.726 317.994 148.846 314.754 150.966Z"></path></g><line stroke="#000000" stroke-width="1.2" x1="307.35384621981075" x2="307.35384621981075" y1="150.80615384615382" y2="188.80615384615382"></line></g><g><g><path d="M494.668 144.486C498.668 144.486 503.588 140.766 503.588 136.966C503.588 134.686 501.788 133.206 499.188 133.206C494.268 133.206 490.308 136.846 490.308 140.726C490.308 143.086 492.228 144.486 494.668 144.486Z"></path></g><line stroke="#000000" stroke-width="1.2" x1="490.90769243962154" x2="490.90769243962154" y1="140.68615384615381" y2="166.93615384615381"></line><path d="M499.908 141.016C500.508 144.376 500.508 148.016 498.988 151.136C496.228 156.736 492.988 156.856 490.508 156.936L490.308 156.936L490.308 172.776C490.308 172.776 490.748 172.816 490.988 172.816C491.228 172.816 491.708 172.736 491.788 172.296C492.748 166.136 500.628 164.416 501.588 158.136C501.668 157.696 501.708 157.216 501.708 156.696C501.708 154.256 500.828 151.856 500.708 151.616C500.668 151.536 500.668 151.456 500.668 151.336C500.668 151.176 500.708 151.096 500.708 150.976C502.148 147.976 502.188 144.056 501.548 140.856C501.348 139.936 501.068 139.976 500.588 139.976C500.108 140.016 499.788 140.336 499.908 141.016ZM499.348 154.216C499.548 154.216 499.828 154.336 499.868 154.496C500.068 154.776 500.068 155.176 500.148 155.496C500.188 155.776 500.188 156.056 500.188 156.296C500.188 157.616 499.828 158.816 499.108 159.856C497.788 161.816 495.228 164.056 492.788 164.056L492.468 164.056C492.148 164.056 491.908 163.856 491.908 163.656C491.908 163.616 491.908 163.576 491.948 163.536C492.788 160.256 495.028 159.336 496.908 157.136C497.748 156.216 498.428 155.416 499.068 154.376C499.148 154.256 499.228 154.216 499.348 154.216Z"></path></g><g><g><path d="M506.068 139.486C510.068 139.486 514.988 135.766 514.988 131.966C514.988 129.686 513.188 128.206 510.588 128.206C505.668 128.206 501.708 131.846 501.708 135.726C501.708 138.086 503.628 139.486 506.068 139.486Z"></path></g><line stroke="#000000" stroke-width="1.2" x1="502.3076924396215" x2="502.3076924396215" y1="135.68615384615381" y2="161.93615384615381"></line><line stroke="#000000" stroke-width="2.2" x1="498.5076924396215" x2="520.4276924396214" y1="133.8461538461538" y2="133.8461538461538"></line><path d="M511.308 136.016C511.908 139.376 511.908 143.016 510.388 146.136C507.628 151.736 504.388 151.856 501.908 151.936L501.708 151.936L501.708 167.776C501.708 167.776 502.148 167.816 502.388 167.816C502.628 167.816 503.108 167.736 503.188 167.296C504.148 161.136 512.028 159.416 512.988 153.136C513.068 152.696 513.108 152.216 513.108 151.696C513.108 149.256 512.228 146.856 512.108 146.616C512.068 146.536 512.068 146.456 512.068 146.336C512.068 146.176 512.108 146.096 512.108 145.976C513.548 142.976 513.588 139.056 512.948 135.856C512.748 134.936 512.468 134.976 511.988 134.976C511.508 135.016 511.188 135.336 511.308 136.016ZM510.748 149.216C510.948 149.216 511.228 149.336 511.268 149.496C511.468 149.776 511.468 150.176 511.548 150.496C511.588 150.776 511.588 151.056 511.588 151.296C511.588 152.616 511.228 153.816 510.508 154.856C509.188 156.816 506.628 159.056 504.188 159.056L503.868 159.056C503.548 159.056 503.308 158.856 503.308 158.656C503.308 158.616 503.308 158.576 503.348 158.536C504.188 155.256 506.428 154.336 508.308 152.136C509.148 151.216 509.828 150.416 510.468 149.376C510.548 149.256 510.628 149.216 510.748 149.216Z"></path></g></g></svg>