<?xml version="1.0" encoding="UTF-8" standalone="no"?><svg xmlns="http://www.w3.org/2000/svg" height="279.4mm" viewBox="0 0 1328.6153846153845 1719.3846153846152" width="215.9mm"><g transform="translate(93.84615384615385)"><g><g><line stroke="#6A6A6A" stroke-width="1.3" x1="0" x2="754.0948039023945" y1="183.8461538461538" y2="183.8461538461538"></line><line stroke="#6A6A6A" stroke-width="1.3" x1="0" x2="754.0948039023945" y1="173.8461538461538" y2="173.8461538461538"></line><line stroke="#6A6A6A" stroke-width="1.3" x1="0" x2="754.0948039023945" y1="163.8461538461538" y2="163.8461538461538"></line><line stroke="#6A6A6A" stroke-width="1.3" x1="0" x2="754.0948039023945" y1="153.8461538461538" y2="153.8461538461538"></line><line stroke="#6A6A6A" stroke-width="1.3" x1="0" x2="754.0948039023945" y1="143.8461538461538" y2="143.8461538461538"></line></g><g><path d="M25.200 129.926C24.640 129.926 23.400 130.966 22.600 131.846C19.640 135.126 18.680 140.126 18.680 144.286C18.680 146.606 18.960 149.206 19.240 150.846C19.320 151.326 19.360 151.406 18.880 151.806C16.320 153.926 13.560 156.366 11.480 158.926C8.720 162.366 7 166.086 7 170.366C7 177.326 11.760 183.926 21.560 183.926C22.480 183.926 23.520 183.846 24.320 183.686C24.760 183.606 24.840 183.566 24.920 184.046C25.400 186.726 26 190.206 26 192.086C26 198.006 22 198.726 19.640 198.726C17.480 198.726 16.440 198.086 16.440 197.566C16.440 197.126 16.800 197.166 17.720 196.886C18.960 196.526 20.400 195.446 20.400 193.126C20.400 190.926 19 189.046 16.560 189.046C13.880 189.046 12.280 191.166 12.280 193.646C12.280 196.246 13.840 200.166 19.880 200.166C22.560 200.166 27.760 198.966 27.760 192.166C27.760 189.886 27.040 186.086 26.600 183.606C26.520 183.126 26.560 183.166 27.120 182.926C31.160 181.326 33.840 177.926 33.840 173.406C33.840 168.286 30.080 163.766 24.200 163.766C23.080 163.766 23.200 163.966 23.040 163.046L22.040 157.246C21.960 156.766 22.040 156.726 22.280 156.486C22.920 155.886 23.760 155.046 24.520 154.206C27.880 150.526 29.880 145.766 29.880 141.246C29.880 137.766 28.920 134.326 27.280 131.926C26.680 131.046 25.640 129.926 25.200 129.926ZM20.040 158.086C20.440 157.766 20.520 157.806 20.600 158.246L21.440 163.366C21.560 164.126 21.560 164.086 20.840 164.326C17.320 165.526 15.040 168.686 15.040 172.086C15.040 175.686 16.920 178.246 19.640 179.166C19.960 179.286 20.440 179.406 20.720 179.406C21.040 179.406 21.200 179.206 21.200 178.966C21.200 178.686 20.880 178.566 20.600 178.446C18.920 177.726 17.720 176.006 17.720 174.166C17.720 171.886 19.280 170.166 21.720 169.486C22.360 169.326 22.440 169.366 22.520 169.806L24.520 181.726C24.600 182.166 24.560 182.166 23.960 182.286C23.320 182.406 22.520 182.486 21.720 182.486C14.720 182.486 10.200 178.606 10.200 173.046C10.200 170.686 10.600 167.526 13.920 163.766C16.320 161.086 18.160 159.606 20.040 158.086ZM24.640 169.166C27.880 169.446 30.560 172.166 30.560 175.686C30.560 178.206 29.040 180.246 26.800 181.366C26.320 181.606 26.240 181.606 26.160 181.126L24.200 169.726C24.120 169.246 24.160 169.126 24.640 169.166ZM25.800 136.126C27.120 136.126 28.200 137.206 28.200 139.406C28.200 142.166 26.880 144.726 23.760 147.846C23.120 148.486 22.160 149.406 21.240 150.206C20.960 150.446 20.800 150.406 20.720 149.886C20.560 148.846 20.480 147.486 20.480 146.206C20.480 139.966 23.360 136.126 25.800 136.126Z"></path></g><g></g><g><g><path d="M64.860 157.486C64.860 157.006 64.660 156.926 64.380 156.926C64.060 156.926 63.940 157.086 63.860 157.326C63.860 157.366 63.820 157.406 63.820 157.446C63.420 158.406 63.100 159.166 62.260 159.166C62.060 159.166 61.860 159.126 61.580 159.046C61.060 158.846 60.780 158.806 60.380 158.606C59.580 158.286 57.700 157.646 56.060 157.646C55.540 157.646 55.020 157.726 54.580 157.886C55.460 156.446 58.860 155.246 59.740 155.006C60.340 154.846 62.020 154.526 63.340 153.446C64.300 152.686 65.060 151.526 65.060 149.766C65.060 147.886 64.260 146.526 63.220 145.646C61.180 143.926 58.060 143.686 57.180 143.686C56.100 143.686 54.740 143.726 53.700 143.966C52.300 144.246 50.900 145.086 49.940 146.206C49.260 147.046 48.820 148.046 48.820 149.126C48.820 149.686 48.940 150.246 49.180 150.846C49.780 152.086 51.020 153.046 52.460 153.046C54.900 153.046 55.260 150.526 55.260 149.526C55.260 147.126 52.500 147.006 52.500 146.206C52.580 145.646 53.300 144.686 55.660 144.686C59.220 144.686 59.260 147.366 59.260 148.526C59.260 150.046 58.780 151.446 57.900 152.606C56.460 154.526 55.340 155.486 53.380 156.686C51.180 158.086 49.620 160.046 48.940 162.566C48.940 162.646 48.900 162.726 48.900 162.806C48.900 163.246 49.180 163.766 49.620 164.046C49.740 164.126 49.860 164.126 49.940 164.126C50.820 164.126 51.300 161.686 53.660 161.686C55.260 161.686 55.860 163.846 59.420 163.846C61.140 163.846 64.220 163.686 64.860 157.486Z"></path></g><g><path d="M65.180 176.806L62.260 176.806L62.260 168.246C62.260 167.926 62.220 167.566 61.780 167.566C61.420 167.566 61.220 167.646 60.980 167.926L57.180 172.526C57.020 172.726 56.820 172.966 56.820 173.446C56.820 173.446 56.820 175.046 56.820 176.806L51.420 176.806C54.620 174.086 61.020 165.006 61.140 164.566C61.140 164.486 61.180 164.446 61.180 164.366C61.180 164.046 60.900 163.806 60.580 163.806C60.220 163.806 58.580 163.886 57.860 163.886C57.140 163.886 55.340 163.806 55.020 163.806C54.660 163.806 54.100 163.926 54.100 164.566C54.100 169.526 50.180 175.086 48.980 176.766L48.740 177.086C48.740 177.126 48.700 177.166 48.700 177.206C48.620 177.366 48.580 177.526 48.580 177.646C48.580 178.046 48.900 178.326 49.380 178.326L56.820 178.326L56.820 180.846C56.820 181.926 55.940 182.246 55.220 182.246C54.580 182.246 54.300 182.606 54.300 183.006C54.300 183.406 54.460 183.846 55.060 183.846C55.700 183.846 63.580 183.846 63.580 183.846C63.980 183.846 64.380 183.566 64.380 183.006C64.380 182.446 63.900 182.206 63.500 182.206C63.100 182.206 62.260 181.966 62.260 180.686L62.260 178.326C63.980 178.326 65.180 178.326 65.180 178.326C65.580 178.326 65.780 178.046 65.780 177.566C65.780 177.086 65.620 176.806 65.180 176.806Z"></path></g></g></g><g><line stroke="#000000" stroke-width="1.6" x1="744.2948039023945" x2="744.2948039023945" y1="143.8461538461538" y2="183.8461538461538"></line><line stroke="#000000" stroke-width="5" x1="751.5948039023946" x2="751.5948039023946" y1="143.8461538461538" y2="183.8461538461538"></line></g><g><g><path d="M93.360 169.486C97.360 169.486 102.280 165.766 102.280 161.966C102.280 159.686 100.480 158.206 97.880 158.206C92.960 158.206 89 161.846 89 165.726C89 168.086 90.920 169.486 93.360 169.486Z"></path></g><line stroke="#000000" stroke-width="1.2" x1="89.6" x2="89.6" y1="165.68615384615381" y2="199.68615384615381"></line><g><polygon fill="black" points="89.6,200.8461538461538 187.90425605944435,200.8461538461538 187.90425605944435,195.8461538461538 89.6,195.8461538461538" stroke="black" stroke-width="0"></polygon><polygon fill="black" points="187.90425605944435,200.8461538461538 286.20851211888873,200.8461538461538 286.20851211888873,195.8461538461538 187.90425605944435,195.8461538461538" stroke="black" stroke-width="0"></polygon><polygon fill="black" points="286.20851211888873,200.8461538461538 338.46406805181215,200.8461538461538 338.46406805181215,195.8461538461538 286.20851211888873,195.8461538461538" stroke="black" stroke-width="0"></polygon></g><g><polygon fill="black" points="85.6,219.0061538461538 649.7905478429501,219.0061538461538 649.7905478429501,217.4061538461538 85.6,217.4061538461538" stroke="black" stroke-width="0"></polygon><line fill="black" stroke="black" stroke-width="1.6" x1="86.1" x2="86.1" y1="217.4061538461538" y2="211.0061538461538"></line><line fill="black" stroke="black" stroke-width="1.6" x1="649.2905478429501" x2="649.2905478429501" y1="217.4061538461538" y2="211.0061538461538"></line><g><polygon fill="white" points="355.77527392147505,211.9061538461538 355.77527392147505,226.58615384615382 379.6152739214751,226.58615384615382 379.6152739214751,211.9061538461538" stroke="white" stroke-width="0"></polygon><path d="M365.175 226.186C364.375 226.186 363.735 225.866 363.735 225.466C363.735 225.226 363.935 225.146 364.255 224.986C364.695 224.786 365.255 224.306 365.255 223.266C365.255 222.306 364.575 221.826 363.735 221.826C362.615 221.826 361.775 222.826 361.775 224.146C361.775 225.746 363.055 227.226 365.895 227.226C369.295 227.226 372.095 225.186 372.095 222.026C372.095 221.026 371.575 220.066 370.535 219.546C370.255 219.426 370.095 219.386 370.095 219.186C370.095 218.986 370.255 218.986 370.575 218.826C372.255 218.146 373.615 216.866 373.615 215.266C373.615 213.186 371.615 211.906 369.175 211.906C366.655 211.906 364.575 213.226 364.495 215.386C364.455 216.426 365.095 217.106 366.015 217.106C367.015 217.106 367.815 216.306 367.815 215.226C367.815 214.786 367.655 214.466 367.455 214.226C367.175 213.986 366.975 213.946 366.975 213.706C366.975 213.426 367.455 213.146 368.295 213.146C369.855 213.146 370.375 214.106 370.375 214.986C370.375 217.106 369.015 218.626 366.695 218.626L366.255 218.626C365.735 218.626 365.455 218.866 365.455 219.226C365.455 219.586 365.735 219.826 366.255 219.826L366.655 219.826C368.135 219.826 368.855 220.706 368.855 221.986C368.855 223.746 367.615 226.186 365.175 226.186Z"></path></g></g></g><g><g><path d="M191.664 169.486C195.664 169.486 200.584 165.766 200.584 161.966C200.584 159.686 198.784 158.206 196.184 158.206C191.264 158.206 187.304 161.846 187.304 165.726C187.304 168.086 189.224 169.486 191.664 169.486Z"></path></g><line stroke="#000000" stroke-width="1.2" x1="187.90425605944435" x2="187.90425605944435" y1="165.68615384615381" y2="199.68615384615381"></line></g><g><g><path d="M289.969 169.486C293.969 169.486 298.889 165.766 298.889 161.966C298.889 159.686 297.089 158.206 294.489 158.206C289.569 158.206 285.609 161.846 285.609 165.726C285.609 168.086 287.529 169.486 289.969 169.486Z"></path></g><line stroke="#000000" stroke-width="1.2" x1="286.20851211888873" x2="286.20851211888873" y1="165.68615384615381" y2="199.68615384615381"></line></g><g><g><path d="M342.224 169.486C346.224 169.486 351.144 165.766 351.144 161.966C351.144 159.686 349.344 158.206 346.744 158.206C341.824 158.206 337.864 161.846 337.864 165.726C337.864 168.086 339.784 169.486 342.224 169.486Z"></path></g><line stroke="#000000" stroke-width="1.2" x1="338.46406805181215" x2="338.46406805181215" y1="165.68615384615381" y2="199.68615384615381"></line></g><g><g><path d="M394.480 169.486C398.480 169.486 403.400 165.766 403.400 161.966C403.400 159.686 401.600 158.206 399.000 158.206C394.080 158.206 390.120 161.846 390.120 165.726C390.120 168.086 392.040 169.486 394.480 169.486Z"></path></g><line stroke="#000000" stroke-width="1.2" x1="390.71962398473556" x2="390.71962398473556" y1="165.68615384615381" y2="199.68615384615381"></line><g><polygon fill="black" points="390.71962398473556,200.8461538461538 442.975179917659,200.8461538461538 442.975179917659,195.8461538461538 390.71962398473556,195.8461538461538" stroke="black" stroke-width="0"></polygon><polygon fill="black" points="442.975179917659,200.8461538461538 495.2307358505824,200.8461538461538 495.2307358505824,195.8461538461538 442.975179917659,195.8461538461538" stroke="black" stroke-width="0"></polygon><polygon fill="black" points="495.2307358505824,200.8461538461538 547.4862917835059,200.8461538461538 547.4862917835059,195.8461538461538 495.2307358505824,195.8461538461538" stroke="black" stroke-width="0"></polygon><polygon fill="black" points="547.4862917835059,200.8461538461538 645.7905478429501,200.8461538461538 645.7905478429501,195.8461538461538 547.4862917835059,195.8461538461538" stroke="black" stroke-width="0"></polygon></g></g><g><g><path d="M446.735 169.486C450.735 169.486 455.655 165.766 455.655 161.966C455.655 159.686 453.855 158.206 451.255 158.206C446.335 158.206 442.375 161.846 442.375 165.726C442.375 168.086 444.295 169.486 446.735 169.486Z"></path></g><line stroke="#000000" stroke-width="1.2" x1="442.975179917659" x2="442.975179917659" y1="165.68615384615381" y2="199.68615384615381"></line></g><g><g><path d="M498.991 169.486C502.991 169.486 507.911 165.766 507.911 161.966C507.911 159.686 506.111 158.206 503.511 158.206C498.591 158.206 494.631 161.846 494.631 165.726C494.631 168.086 496.551 169.486 498.991 169.486Z"></path></g><line stroke="#000000" stroke-width="1.2" x1="495.2307358505824" x2="495.2307358505824" y1="165.68615384615381" y2="199.68615384615381"></line></g><g><g><path d="M551.246 169.486C555.246 169.486 560.166 165.766 560.166 161.966C560.166 159.686 558.366 158.206 555.766 158.206C550.846 158.206 546.886 161.846 546.886 165.726C546.886 168.086 548.806 169.486 551.246 169.486Z"></path></g><line stroke="#000000" stroke-width="1.2" x1="547.4862917835059" x2="547.4862917835059" y1="165.68615384615381" y2="199.68615384615381"></line></g><g><g><path d="M649.551 169.486C653.551 169.486 658.471 165.766 658.471 161.966C658.471 159.686 656.671 158.206 654.071 158.206C649.151 158.206 645.191 161.846 645.191 165.726C645.191 168.086 647.111 169.486 649.551 169.486Z"></path></g><line stroke="#000000" stroke-width="1.2" x1="645.7905478429501" x2="645.7905478429501" y1="165.68615384615381" y2="199.68615384615381"></line></g></g></svg>