<?xml version="1.0" encoding="UTF-8" standalone="no"?><svg xmlns="http://www.w3.org/2000/svg" height="279.4mm" viewBox="0 0 1328.6153846153845 1719.3846153846152" width="215.9mm"><g transform="translate(93.84615384615385)"><g><g><line stroke="#6A6A6A" stroke-width="1.3" x1="0" x2="1137.923076923077" y1="183.8461538461538" y2="183.8461538461538"></line><line stroke="#6A6A6A" stroke-width="1.3" x1="0" x2="1137.923076923077" y1="173.8461538461538" y2="173.8461538461538"></line><line stroke="#6A6A6A" stroke-width="1.3" x1="0" x2="1137.923076923077" y1="163.8461538461538" y2="163.8461538461538"></line><line stroke="#6A6A6A" stroke-width="1.3" x1="0" x2="1137.923076923077" y1="153.8461538461538" y2="153.8461538461538"></line><line stroke="#6A6A6A" stroke-width="1.3" x1="0" x2="1137.923076923077" y1="143.8461538461538" y2="143.8461538461538"></line></g><g><path d="M25.200 129.926C24.640 129.926 23.400 130.966 22.600 131.846C19.640 135.126 18.680 140.126 18.680 144.286C18.680 146.606 18.960 149.206 19.240 150.846C19.320 151.326 19.360 151.406 18.880 151.806C16.320 153.926 13.560 156.366 11.480 158.926C8.720 162.366 7 166.086 7 170.366C7 177.326 11.760 183.926 21.560 183.926C22.480 183.926 23.520 183.846 24.320 183.686C24.760 183.606 24.840 183.566 24.920 184.046C25.400 186.726 26 190.206 26 192.086C26 198.006 22 198.726 19.640 198.726C17.480 198.726 16.440 198.086 16.440 197.566C16.440 197.126 16.800 197.166 17.720 196.886C18.960 196.526 20.400 195.446 20.400 193.126C20.400 190.926 19 189.046 16.560 189.046C13.880 189.046 12.280 191.166 12.280 193.646C12.280 196.246 13.840 200.166 19.880 200.166C22.560 200.166 27.760 198.966 27.760 192.166C27.760 189.886 27.040 186.086 26.600 183.606C26.520 183.126 26.560 183.166 27.120 182.926C31.160 181.326 33.840 177.926 33.840 173.406C33.840 168.286 30.080 163.766 24.200 163.766C23.080 163.766 23.200 163.966 23.040 163.046L22.040 157.246C21.960 156.766 22.040 156.726 22.280 156.486C22.920 155.886 23.760 155.046 24.520 154.206C27.880 150.526 29.880 145.766 29.880 141.246C29.880 137.766 28.920 134.326 27.280 131.926C26.680 131.046 25.640 129.926 25.200 129.926ZM20.040 158.086C20.440 157.766 20.520 157.806 20.600 158.246L21.440 163.366C21.560 164.126 21.560 164.086 20.840 164.326C17.320 165.526 15.040 168.686 15.040 172.086C15.040 175.686 16.920 178.246 19.640 179.166C19.960 179.286 20.440 179.406 20.720 179.406C21.040 179.406 21.200 179.206 21.200 178.966C21.200 178.686 20.880 178.566 20.600 178.446C18.920 177.726 17.720 176.006 17.720 174.166C17.720 171.886 19.280 170.166 21.720 169.486C22.360 169.326 22.440 169.366 22.520 169.806L24.520 181.726C24.600 182.166 24.560 182.166 23.960 182.286C23.320 182.406 22.520 182.486 21.720 182.486C14.720 182.486 10.200 178.606 10.200 173.046C10.200 170.686 10.600 167.526 13.920 163.766C16.320 161.086 18.160 159.606 20.040 158.086ZM24.640 169.166C27.880 169.446 30.560 172.166 30.560 175.686C30.560 178.206 29.040 180.246 26.800 181.366C26.320 181.606 26.240 181.606 26.160 181.126L24.200 169.726C24.120 169.246 24.160 169.126 24.640 169.166ZM25.800 136.126C27.120 136.126 28.200 137.206 28.200 139.406C28.200 142.166 26.880 144.726 23.760 147.846C23.120 148.486 22.160 149.406 21.240 150.206C20.960 150.446 20.800 150.406 20.720 149.886C20.560 148.846 20.480 147.486 20.480 146.206C20.480 139.966 23.360 136.126 25.800 136.126Z"></path></g><g></g><g><g><path d="M65.180 156.806L62.260 156.806L62.260 148.246C62.260 147.926 62.220 147.566 61.780 147.566C61.420 147.566 61.220 147.646 60.980 147.926L57.180 152.526C57.020 152.726 56.820 152.966 56.820 153.446C56.820 153.446 56.820 155.046 56.820 156.806L51.420 156.806C54.620 154.086 61.020 145.006 61.140 144.566C61.140 144.486 61.180 144.446 61.180 144.366C61.180 144.046 60.900 143.806 60.580 143.806C60.220 143.806 58.580 143.886 57.860 143.886C57.140 143.886 55.340 143.806 55.020 143.806C54.660 143.806 54.100 143.926 54.100 144.566C54.100 149.526 50.180 155.086 48.980 156.766L48.740 157.086C48.740 157.126 48.700 157.166 48.700 157.206C48.620 157.366 48.580 157.526 48.580 157.646C48.580 158.046 48.900 158.326 49.380 158.326L56.820 158.326L56.820 160.846C56.820 161.926 55.940 162.246 55.220 162.246C54.580 162.246 54.300 162.606 54.300 163.006C54.300 163.406 54.460 163.846 55.060 163.846C55.700 163.846 63.580 163.846 63.580 163.846C63.980 163.846 64.380 163.566 64.380 163.006C64.380 162.446 63.900 162.206 63.500 162.206C63.100 162.206 62.260 161.966 62.260 160.686L62.260 158.326C63.980 158.326 65.180 158.326 65.180 158.326C65.580 158.326 65.780 158.046 65.780 157.566C65.780 157.086 65.620 156.806 65.180 156.806Z"></path></g><g><path d="M65.180 176.806L62.260 176.806L62.260 168.246C62.260 167.926 62.220 167.566 61.780 167.566C61.420 167.566 61.220 167.646 60.980 167.926L57.180 172.526C57.020 172.726 56.820 172.966 56.820 173.446C56.820 173.446 56.820 175.046 56.820 176.806L51.420 176.806C54.620 174.086 61.020 165.006 61.140 164.566C61.140 164.486 61.180 164.446 61.180 164.366C61.180 164.046 60.900 163.806 60.580 163.806C60.220 163.806 58.580 163.886 57.860 163.886C57.140 163.886 55.340 163.806 55.020 163.806C54.660 163.806 54.100 163.926 54.100 164.566C54.100 169.526 50.180 175.086 48.980 176.766L48.740 177.086C48.740 177.126 48.700 177.166 48.700 177.206C48.620 177.366 48.580 177.526 48.580 177.646C48.580 178.046 48.900 178.326 49.380 178.326L56.820 178.326L56.820 180.846C56.820 181.926 55.940 182.246 55.220 182.246C54.580 182.246 54.300 182.606 54.300 183.006C54.300 183.406 54.460 183.846 55.060 183.846C55.700 183.846 63.580 183.846 63.580 183.846C63.980 183.846 64.380 183.566 64.380 183.006C64.380 182.446 63.900 182.206 63.500 182.206C63.100 182.206 62.260 181.966 62.260 180.686L62.260 178.326C63.980 178.326 65.180 178.326 65.180 178.326C65.580 178.326 65.780 178.046 65.780 177.566C65.780 177.086 65.620 176.806 65.180 176.806Z"></path></g></g><g><path d="M-13.200 264.426C-12.040 263.706-10.720 260.866-10.720 258.506C-10.720 258.306-10.720 258.066-10.760 257.866C-11.040 255.466-12.240 251.746-12.240 249.586C-12.240 247.506-11.320 245.506-11.120 245.146C-10.960 244.986-10.920 244.866-10.920 244.746C-10.920 244.666-10.960 244.586-11 244.586C-11.040 244.546-11.080 244.466-11.160 244.466C-11.240 244.466-11.320 244.546-11.480 244.746C-12.360 245.826-13.440 248.146-13.440 252.146C-13.440 256.106-12.040 257.706-12.040 260.226C-12.040 262.106-12.800 263.146-13.920 264.426C-13.200 265.226-12.040 265.866-12.040 268.466C-12.040 271.266-13.440 273.746-13.440 276.666C-13.440 280.666-12.360 282.986-11.480 284.106C-11.320 284.306-11.240 284.346-11.160 284.346C-11.080 284.346-11.040 284.306-11 284.266C-10.960 284.226-10.920 284.186-10.920 284.106C-10.920 283.986-10.960 283.866-11.120 283.666C-11.320 283.346-12.240 281.346-12.240 279.226C-12.240 277.106-11.040 273.346-10.760 270.986C-10.720 270.786-10.720 270.586-10.720 270.346C-10.720 267.986-12.040 265.146-13.200 264.426Z"></path><line stroke="#000000" stroke-width="1.6" x1="0" x2="0" y1="143.3461538461538" y2="284.3461538461538"></line></g></g><g><g><path d="M114.200 129.926C113.640 129.926 112.400 130.966 111.600 131.846C108.640 135.126 107.680 140.126 107.680 144.286C107.680 146.606 107.960 149.206 108.240 150.846C108.320 151.326 108.360 151.406 107.880 151.806C105.320 153.926 102.560 156.366 100.480 158.926C97.720 162.366 96 166.086 96 170.366C96 177.326 100.760 183.926 110.560 183.926C111.480 183.926 112.520 183.846 113.320 183.686C113.760 183.606 113.840 183.566 113.920 184.046C114.400 186.726 115 190.206 115 192.086C115 198.006 111 198.726 108.640 198.726C106.480 198.726 105.440 198.086 105.440 197.566C105.440 197.126 105.800 197.166 106.720 196.886C107.960 196.526 109.400 195.446 109.400 193.126C109.400 190.926 108 189.046 105.560 189.046C102.880 189.046 101.280 191.166 101.280 193.646C101.280 196.246 102.840 200.166 108.880 200.166C111.560 200.166 116.760 198.966 116.760 192.166C116.760 189.886 116.040 186.086 115.600 183.606C115.520 183.126 115.560 183.166 116.120 182.926C120.160 181.326 122.840 177.926 122.840 173.406C122.840 168.286 119.080 163.766 113.200 163.766C112.080 163.766 112.200 163.966 112.040 163.046L111.040 157.246C110.960 156.766 111.040 156.726 111.280 156.486C111.920 155.886 112.760 155.046 113.520 154.206C116.880 150.526 118.880 145.766 118.880 141.246C118.880 137.766 117.920 134.326 116.280 131.926C115.680 131.046 114.640 129.926 114.200 129.926ZM109.040 158.086C109.440 157.766 109.520 157.806 109.600 158.246L110.440 163.366C110.560 164.126 110.560 164.086 109.840 164.326C106.320 165.526 104.040 168.686 104.040 172.086C104.040 175.686 105.920 178.246 108.640 179.166C108.960 179.286 109.440 179.406 109.720 179.406C110.040 179.406 110.200 179.206 110.200 178.966C110.200 178.686 109.880 178.566 109.600 178.446C107.920 177.726 106.720 176.006 106.720 174.166C106.720 171.886 108.280 170.166 110.720 169.486C111.360 169.326 111.440 169.366 111.520 169.806L113.520 181.726C113.600 182.166 113.560 182.166 112.960 182.286C112.320 182.406 111.520 182.486 110.720 182.486C103.720 182.486 99.200 178.606 99.200 173.046C99.200 170.686 99.600 167.526 102.920 163.766C105.320 161.086 107.160 159.606 109.040 158.086ZM113.640 169.166C116.880 169.446 119.560 172.166 119.560 175.686C119.560 178.206 118.040 180.246 115.800 181.366C115.320 181.606 115.240 181.606 115.160 181.126L113.200 169.726C113.120 169.246 113.160 169.126 113.640 169.166ZM114.800 136.126C116.120 136.126 117.200 137.206 117.200 139.406C117.200 142.166 115.880 144.726 112.760 147.846C112.120 148.486 111.160 149.406 110.240 150.206C109.960 150.446 109.800 150.406 109.720 149.886C109.560 148.846 109.480 147.486 109.480 146.206C109.480 139.966 112.360 136.126 114.800 136.126Z"></path></g><g><path d="M141.980 139.126C142.260 139.006 142.460 138.686 142.460 138.446L142.460 135.606C142.460 135.406 142.340 135.286 142.180 135.286C142.100 135.286 142.060 135.286 141.980 135.326C141.980 135.326 141.180 135.646 140.980 135.686C140.700 135.686 140.420 135.486 140.420 135.166C140.420 134.766 140.420 130.286 140.420 130.286C140.420 130.046 140.180 129.846 139.860 129.846C139.460 129.846 139.220 130.046 139.220 130.286C139.220 130.286 139.220 135.086 139.220 135.486C139.180 135.886 139.060 136.406 138.700 136.646C138.220 136.926 136.860 137.486 136.180 137.646C135.820 137.646 135.700 137.166 135.700 136.846C135.700 136.446 135.700 132.046 135.700 132.046C135.700 131.806 135.420 131.606 135.140 131.606C134.740 131.606 134.500 131.806 134.500 132.046C134.500 132.046 134.500 134.206 134.500 135.806L134.500 137.446C134.500 138.006 134.260 138.406 134.020 138.526C133.780 138.646 132.980 138.966 132.980 138.966C132.700 139.046 132.500 139.366 132.500 139.606L132.500 142.446C132.500 142.686 132.620 142.806 132.820 142.806C132.860 142.806 132.940 142.766 132.980 142.766C132.980 142.766 133.580 142.526 133.860 142.366C133.900 142.366 133.940 142.326 133.980 142.326C134.260 142.326 134.500 142.726 134.500 143.046L134.500 147.006C134.500 147.446 134.300 147.806 134.060 147.926C133.820 148.006 132.980 148.366 132.980 148.366C132.700 148.446 132.500 148.766 132.500 149.006L132.500 151.846C132.500 152.086 132.620 152.206 132.820 152.206C132.860 152.206 132.940 152.166 132.980 152.166C132.980 152.166 133.540 151.926 133.900 151.806C133.940 151.766 133.980 151.766 134.020 151.766C134.300 151.766 134.500 152.206 134.500 152.406C134.500 152.646 134.500 157.326 134.500 157.326C134.500 157.566 134.740 157.766 135.020 157.766C135.420 157.766 135.700 157.566 135.700 157.326C135.700 157.326 135.700 152.246 135.700 151.766C135.700 151.246 135.900 150.966 136.100 150.886L138.540 149.886C138.580 149.886 138.660 149.846 138.700 149.846C139.020 149.846 139.220 150.326 139.220 150.566C139.220 150.846 139.220 155.566 139.220 155.566C139.220 155.806 139.460 156.006 139.740 156.006C140.180 156.006 140.420 155.806 140.420 155.566C140.420 155.566 140.420 150.166 140.420 149.886C140.420 149.566 140.580 149.086 140.860 148.966C141.140 148.846 141.980 148.526 141.980 148.526C142.260 148.406 142.460 148.086 142.460 147.846L142.460 145.006C142.460 144.806 142.340 144.686 142.180 144.686C142.100 144.686 142.060 144.686 141.980 144.726C141.980 144.726 141.140 145.046 140.940 145.126C140.700 145.126 140.420 144.886 140.420 144.406L140.420 140.686C140.420 140.406 140.620 139.646 140.940 139.526C141.260 139.406 141.980 139.126 141.980 139.126ZM139.220 145.646C138.980 146.446 137.100 147.246 136.180 147.246C135.940 147.246 135.740 147.166 135.700 147.046C135.620 146.886 135.580 146.006 135.580 145.046C135.580 143.806 135.620 142.406 135.700 142.086C135.780 141.406 137.620 140.566 138.620 140.566C138.900 140.566 139.140 140.646 139.220 140.806C139.300 141.006 139.380 142.006 139.380 143.086C139.380 144.166 139.300 145.286 139.220 145.646Z"></path><path d="M152.980 154.126C153.260 154.006 153.460 153.686 153.460 153.446L153.460 150.606C153.460 150.406 153.340 150.286 153.180 150.286C153.100 150.286 153.060 150.286 152.980 150.326C152.980 150.326 152.180 150.646 151.980 150.686C151.700 150.686 151.420 150.486 151.420 150.166C151.420 149.766 151.420 145.286 151.420 145.286C151.420 145.046 151.180 144.846 150.860 144.846C150.460 144.846 150.220 145.046 150.220 145.286C150.220 145.286 150.220 150.086 150.220 150.486C150.180 150.886 150.060 151.406 149.700 151.646C149.220 151.926 147.860 152.486 147.180 152.646C146.820 152.646 146.700 152.166 146.700 151.846C146.700 151.446 146.700 147.046 146.700 147.046C146.700 146.806 146.420 146.606 146.140 146.606C145.740 146.606 145.500 146.806 145.500 147.046C145.500 147.046 145.500 149.206 145.500 150.806L145.500 152.446C145.500 153.006 145.260 153.406 145.020 153.526C144.780 153.646 143.980 153.966 143.980 153.966C143.700 154.046 143.500 154.366 143.500 154.606L143.500 157.446C143.500 157.686 143.620 157.806 143.820 157.806C143.860 157.806 143.940 157.766 143.980 157.766C143.980 157.766 144.580 157.526 144.860 157.366C144.900 157.366 144.940 157.326 144.980 157.326C145.260 157.326 145.500 157.726 145.500 158.046L145.500 162.006C145.500 162.446 145.300 162.806 145.060 162.926C144.820 163.006 143.980 163.366 143.980 163.366C143.700 163.446 143.500 163.766 143.500 164.006L143.500 166.846C143.500 167.086 143.620 167.206 143.820 167.206C143.860 167.206 143.940 167.166 143.980 167.166C143.980 167.166 144.540 166.926 144.900 166.806C144.940 166.766 144.980 166.766 145.020 166.766C145.300 166.766 145.500 167.206 145.500 167.406C145.500 167.646 145.500 172.326 145.500 172.326C145.500 172.566 145.740 172.766 146.020 172.766C146.420 172.766 146.700 172.566 146.700 172.326C146.700 172.326 146.700 167.246 146.700 166.766C146.700 166.246 146.900 165.966 147.100 165.886L149.540 164.886C149.580 164.886 149.660 164.846 149.700 164.846C150.020 164.846 150.220 165.326 150.220 165.566C150.220 165.846 150.220 170.566 150.220 170.566C150.220 170.806 150.460 171.006 150.740 171.006C151.180 171.006 151.420 170.806 151.420 170.566C151.420 170.566 151.420 165.166 151.420 164.886C151.420 164.566 151.580 164.086 151.860 163.966C152.140 163.846 152.980 163.526 152.980 163.526C153.260 163.406 153.460 163.086 153.460 162.846L153.460 160.006C153.460 159.806 153.340 159.686 153.180 159.686C153.100 159.686 153.060 159.686 152.980 159.726C152.980 159.726 152.140 160.046 151.940 160.126C151.700 160.126 151.420 159.886 151.420 159.406L151.420 155.686C151.420 155.406 151.620 154.646 151.940 154.526C152.260 154.406 152.980 154.126 152.980 154.126ZM150.220 160.646C149.980 161.446 148.100 162.246 147.180 162.246C146.940 162.246 146.740 162.166 146.700 162.046C146.620 161.886 146.580 161.006 146.580 160.046C146.580 158.806 146.620 157.406 146.700 157.086C146.780 156.406 148.620 155.566 149.620 155.566C149.900 155.566 150.140 155.646 150.220 155.806C150.300 156.006 150.380 157.006 150.380 158.086C150.380 159.166 150.300 160.286 150.220 160.646Z"></path></g></g><g><line stroke="black" stroke-width="1.6" x1="1128.123076923077" x2="1128.123076923077" y1="143.3461538461538" y2="284.3461538461538"></line><line stroke="black" stroke-width="5" x1="1135.423076923077" x2="1135.423076923077" y1="143.3461538461538" y2="284.3461538461538"></line></g><g><g><line stroke="#6A6A6A" stroke-width="1.3" x1="0" x2="1137.923076923077" y1="283.8461538461538" y2="283.8461538461538"></line><line stroke="#6A6A6A" stroke-width="1.3" x1="0" x2="1137.923076923077" y1="273.8461538461538" y2="273.8461538461538"></line><line stroke="#6A6A6A" stroke-width="1.3" x1="0" x2="1137.923076923077" y1="263.8461538461538" y2="263.8461538461538"></line><line stroke="#6A6A6A" stroke-width="1.3" x1="0" x2="1137.923076923077" y1="253.8461538461538" y2="253.8461538461538"></line><line stroke="#6A6A6A" stroke-width="1.3" x1="0" x2="1137.923076923077" y1="243.8461538461538" y2="243.8461538461538"></line></g><g><path d="M25.200 229.926C24.640 229.926 23.400 230.966 22.600 231.846C19.640 235.126 18.680 240.126 18.680 244.286C18.680 246.606 18.960 249.206 19.240 250.846C19.320 251.326 19.360 251.406 18.880 251.806C16.320 253.926 13.560 256.366 11.480 258.926C8.720 262.366 7 266.086 7 270.366C7 277.326 11.760 283.926 21.560 283.926C22.480 283.926 23.520 283.846 24.320 283.686C24.760 283.606 24.840 283.566 24.920 284.046C25.400 286.726 26 290.206 26 292.086C26 298.006 22 298.726 19.640 298.726C17.480 298.726 16.440 298.086 16.440 297.566C16.440 297.126 16.800 297.166 17.720 296.886C18.960 296.526 20.400 295.446 20.400 293.126C20.400 290.926 19 289.046 16.560 289.046C13.880 289.046 12.280 291.166 12.280 293.646C12.280 296.246 13.840 300.166 19.880 300.166C22.560 300.166 27.760 298.966 27.760 292.166C27.760 289.886 27.040 286.086 26.600 283.606C26.520 283.126 26.560 283.166 27.120 282.926C31.160 281.326 33.840 277.926 33.840 273.406C33.840 268.286 30.080 263.766 24.200 263.766C23.080 263.766 23.200 263.966 23.040 263.046L22.040 257.246C21.960 256.766 22.040 256.726 22.280 256.486C22.920 255.886 23.760 255.046 24.520 254.206C27.880 250.526 29.880 245.766 29.880 241.246C29.880 237.766 28.920 234.326 27.280 231.926C26.680 231.046 25.640 229.926 25.200 229.926ZM20.040 258.086C20.440 257.766 20.520 257.806 20.600 258.246L21.440 263.366C21.560 264.126 21.560 264.086 20.840 264.326C17.320 265.526 15.040 268.686 15.040 272.086C15.040 275.686 16.920 278.246 19.640 279.166C19.960 279.286 20.440 279.406 20.720 279.406C21.040 279.406 21.200 279.206 21.200 278.966C21.200 278.686 20.880 278.566 20.600 278.446C18.920 277.726 17.720 276.006 17.720 274.166C17.720 271.886 19.280 270.166 21.720 269.486C22.360 269.326 22.440 269.366 22.520 269.806L24.520 281.726C24.600 282.166 24.560 282.166 23.960 282.286C23.320 282.406 22.520 282.486 21.720 282.486C14.720 282.486 10.200 278.606 10.200 273.046C10.200 270.686 10.600 267.526 13.920 263.766C16.320 261.086 18.160 259.606 20.040 258.086ZM24.640 269.166C27.880 269.446 30.560 272.166 30.560 275.686C30.560 278.206 29.040 280.246 26.800 281.366C26.320 281.606 26.240 281.606 26.160 281.126L24.200 269.726C24.120 269.246 24.160 269.126 24.640 269.166ZM25.800 236.126C27.120 236.126 28.200 237.206 28.200 239.406C28.200 242.166 26.880 244.726 23.760 247.846C23.120 248.486 22.160 249.406 21.240 250.206C20.960 250.446 20.800 250.406 20.720 249.886C20.560 248.846 20.480 247.486 20.480 246.206C20.480 239.966 23.360 236.126 25.800 236.126Z"></path></g><g></g><g><g><path d="M65.180 256.806L62.260 256.806L62.260 248.246C62.260 247.926 62.220 247.566 61.780 247.566C61.420 247.566 61.220 247.646 60.980 247.926L57.180 252.526C57.020 252.726 56.820 252.966 56.820 253.446C56.820 253.446 56.820 255.046 56.820 256.806L51.420 256.806C54.620 254.086 61.020 245.006 61.140 244.566C61.140 244.486 61.180 244.446 61.180 244.366C61.180 244.046 60.900 243.806 60.580 243.806C60.220 243.806 58.580 243.886 57.860 243.886C57.140 243.886 55.340 243.806 55.020 243.806C54.660 243.806 54.100 243.926 54.100 244.566C54.100 249.526 50.180 255.086 48.980 256.766L48.740 257.086C48.740 257.126 48.700 257.166 48.700 257.206C48.620 257.366 48.580 257.526 48.580 257.646C48.580 258.046 48.900 258.326 49.380 258.326L56.820 258.326L56.820 260.846C56.820 261.926 55.940 262.246 55.220 262.246C54.580 262.246 54.300 262.606 54.300 263.006C54.300 263.406 54.460 263.846 55.060 263.846C55.700 263.846 63.580 263.846 63.580 263.846C63.980 263.846 64.380 263.566 64.380 263.006C64.380 262.446 63.900 262.206 63.500 262.206C63.100 262.206 62.260 261.966 62.260 260.686L62.260 258.326C63.980 258.326 65.180 258.326 65.180 258.326C65.580 258.326 65.780 258.046 65.780 257.566C65.780 257.086 65.620 256.806 65.180 256.806Z"></path></g><g><path d="M65.180 276.806L62.260 276.806L62.260 268.246C62.260 267.926 62.220 267.566 61.780 267.566C61.420 267.566 61.220 267.646 60.980 267.926L57.180 272.526C57.020 272.726 56.820 272.966 56.820 273.446C56.820 273.446 56.820 275.046 56.820 276.806L51.420 276.806C54.620 274.086 61.020 265.006 61.140 264.566C61.140 264.486 61.180 264.446 61.180 264.366C61.180 264.046 60.900 263.806 60.580 263.806C60.220 263.806 58.580 263.886 57.860 263.886C57.140 263.886 55.340 263.806 55.020 263.806C54.660 263.806 54.100 263.926 54.100 264.566C54.100 269.526 50.180 275.086 48.980 276.766L48.740 277.086C48.740 277.126 48.700 277.166 48.700 277.206C48.620 277.366 48.580 277.526 48.580 277.646C48.580 278.046 48.900 278.326 49.380 278.326L56.820 278.326L56.820 280.846C56.820 281.926 55.940 282.246 55.220 282.246C54.580 282.246 54.300 282.606 54.300 283.006C54.300 283.406 54.460 283.846 55.060 283.846C55.700 283.846 63.580 283.846 63.580 283.846C63.980 283.846 64.380 283.566 64.380 283.006C64.380 282.446 63.900 282.206 63.500 282.206C63.100 282.206 62.260 281.966 62.260 280.686L62.260 278.326C63.980 278.326 65.180 278.326 65.180 278.326C65.580 278.326 65.780 278.046 65.780 277.566C65.780 277.086 65.620 276.806 65.180 276.806Z"></path></g></g></g><g><line stroke="black" stroke-width="1.6" x1="1128.123076923077" x2="1128.123076923077" y1="143.3461538461538" y2="284.3461538461538"></line><line stroke="black" stroke-width="5" x1="1135.423076923077" x2="1135.423076923077" y1="143.3461538461538" y2="284.3461538461538"></line></g><g><g><path d="M796.449 173.366C790.649 173.366 787.049 175.806 787.049 178.766C787.049 181.686 789.529 184.286 796.009 184.286C803.129 184.286 805.409 181.806 805.409 178.766C805.409 175.686 800.489 173.366 796.449 173.366ZM791.889 176.086C792.369 174.606 793.969 174.366 795.329 174.366C798.289 174.366 800.689 177.566 800.689 180.206C800.689 180.486 800.649 180.766 800.609 181.006C800.409 182.086 799.769 182.846 798.689 183.126C798.249 183.246 797.809 183.286 797.369 183.286C796.969 183.286 796.609 183.246 796.209 183.126C795.489 182.886 794.769 182.486 794.169 181.966C793.849 181.686 793.529 181.366 793.249 181.006C792.409 180.006 791.729 178.526 791.729 177.166C791.729 176.806 791.769 176.446 791.889 176.086Z"></path></g></g><g><g><path d="M796.449 328.366C790.649 328.366 787.049 330.806 787.049 333.766C787.049 336.686 789.529 339.286 796.009 339.286C803.129 339.286 805.409 336.806 805.409 333.766C805.409 330.686 800.489 328.366 796.449 328.366ZM791.889 331.086C792.369 329.606 793.969 329.366 795.329 329.366C798.289 329.366 800.689 332.566 800.689 335.206C800.689 335.486 800.649 335.766 800.609 336.006C800.409 337.086 799.769 337.846 798.689 338.126C798.249 338.246 797.809 338.286 797.369 338.286C796.969 338.286 796.609 338.246 796.209 338.126C795.489 337.886 794.769 337.486 794.169 336.966C793.849 336.686 793.529 336.366 793.249 336.006C792.409 335.006 791.729 333.526 791.729 332.166C791.729 331.806 791.769 331.446 791.889 331.086Z"></path></g><line stroke="#000000" stroke-width="2.2" x1="783.848717948718" x2="810.648717948718" y1="293.8461538461538" y2="293.8461538461538"></line><line stroke="#000000" stroke-width="2.2" x1="783.848717948718" x2="810.648717948718" y1="303.8461538461538" y2="303.8461538461538"></line><line stroke="#000000" stroke-width="2.2" x1="783.848717948718" x2="810.648717948718" y1="313.8461538461538" y2="313.8461538461538"></line><line stroke="#000000" stroke-width="2.2" x1="783.848717948718" x2="810.648717948718" y1="323.8461538461538" y2="323.8461538461538"></line><line stroke="#000000" stroke-width="2.2" x1="783.848717948718" x2="810.648717948718" y1="333.8461538461538" y2="333.8461538461538"></line></g></g></svg>