<?xml version="1.0" encoding="UTF-8" standalone="no"?><svg xmlns="http://www.w3.org/2000/svg" height="279.4mm" viewBox="0 0 1328.6153846153845 1719.3846153846152" width="215.9mm"><g transform="translate(163.84615384615387)"><g><g><line stroke="#6A6A6A" stroke-width="1.3" x1="0" x2="147.59190852511713" y1="216.3461538461538" y2="216.3461538461538"></line><line stroke="#6A6A6A" stroke-width="1.3" x1="0" x2="147.59190852511713" y1="206.3461538461538" y2="206.3461538461538"></line><line stroke="#6A6A6A" stroke-width="1.3" x1="0" x2="147.59190852511713" y1="196.3461538461538" y2="196.3461538461538"></line><line stroke="#6A6A6A" stroke-width="1.3" x1="0" x2="147.59190852511713" y1="186.3461538461538" y2="186.3461538461538"></line><line stroke="#6A6A6A" stroke-width="1.3" x1="0" x2="147.59190852511713" y1="176.3461538461538" y2="176.3461538461538"></line></g><g><path d="M25.200 162.426C24.640 162.426 23.400 163.466 22.600 164.346C19.640 167.626 18.680 172.626 18.680 176.786C18.680 179.106 18.960 181.706 19.240 183.346C19.320 183.826 19.360 183.906 18.880 184.306C16.320 186.426 13.560 188.866 11.480 191.426C8.720 194.866 7 198.586 7 202.866C7 209.826 11.760 216.426 21.560 216.426C22.480 216.426 23.520 216.346 24.320 216.186C24.760 216.106 24.840 216.066 24.920 216.546C25.400 219.226 26 222.706 26 224.586C26 230.506 22 231.226 19.640 231.226C17.480 231.226 16.440 230.586 16.440 230.066C16.440 229.626 16.800 229.666 17.720 229.386C18.960 229.026 20.400 227.946 20.400 225.626C20.400 223.426 19 221.546 16.560 221.546C13.880 221.546 12.280 223.666 12.280 226.146C12.280 228.746 13.840 232.666 19.880 232.666C22.560 232.666 27.760 231.466 27.760 224.666C27.760 222.386 27.040 218.586 26.600 216.106C26.520 215.626 26.560 215.666 27.120 215.426C31.160 213.826 33.840 210.426 33.840 205.906C33.840 200.786 30.080 196.266 24.200 196.266C23.080 196.266 23.200 196.466 23.040 195.546L22.040 189.746C21.960 189.266 22.040 189.226 22.280 188.986C22.920 188.386 23.760 187.546 24.520 186.706C27.880 183.026 29.880 178.266 29.880 173.746C29.880 170.266 28.920 166.826 27.280 164.426C26.680 163.546 25.640 162.426 25.200 162.426M20.040 190.586C20.440 190.266 20.520 190.306 20.600 190.746L21.440 195.866C21.560 196.626 21.560 196.586 20.840 196.826C17.320 198.026 15.040 201.186 15.040 204.586C15.040 208.186 16.920 210.746 19.640 211.666C19.960 211.786 20.440 211.906 20.720 211.906C21.040 211.906 21.200 211.706 21.200 211.466C21.200 211.186 20.880 211.066 20.600 210.946C18.920 210.226 17.720 208.506 17.720 206.666C17.720 204.386 19.280 202.666 21.720 201.986C22.360 201.826 22.440 201.866 22.520 202.306L24.520 214.226C24.600 214.666 24.560 214.666 23.960 214.786C23.320 214.906 22.520 214.986 21.720 214.986C14.720 214.986 10.200 211.106 10.200 205.546C10.200 203.186 10.600 200.026 13.920 196.266C16.320 193.586 18.160 192.106 20.040 190.586M24.640 201.666C27.880 201.946 30.560 204.666 30.560 208.186C30.560 210.706 29.040 212.746 26.800 213.866C26.320 214.106 26.240 214.106 26.160 213.626L24.200 202.226C24.120 201.746 24.160 201.626 24.640 201.666M25.800 168.626C27.120 168.626 28.200 169.706 28.200 171.906C28.200 174.666 26.880 177.226 23.760 180.346C23.120 180.986 22.160 181.906 21.240 182.706C20.960 182.946 20.800 182.906 20.720 182.386C20.560 181.346 20.480 179.986 20.480 178.706C20.480 172.466 23.360 168.626 25.800 168.626"></path></g><g></g><g><g><path d="M49.620 185.826C49.620 185.826 49.460 186.066 49.460 186.346C49.460 186.546 49.580 186.786 49.900 186.906C50.060 186.946 50.140 186.986 50.260 186.986C50.660 186.986 50.820 186.626 50.820 186.626C50.820 186.626 52.540 183.866 52.980 183.106C53.140 182.826 53.300 182.706 53.380 182.706C53.540 182.706 53.620 183.026 53.620 183.266L53.620 193.586C53.620 194.506 52.700 195.106 51.860 195.106C51.580 195.106 51.180 195.226 51.180 195.706C51.180 196.146 51.540 196.346 52.060 196.346L60.580 196.346C61.220 196.346 61.220 195.706 61.220 195.706C61.220 195.706 61.220 195.106 60.620 195.106C60.060 195.106 59.340 194.386 59.340 193.706C59.340 193.706 59.340 177.866 59.340 177.226C59.340 176.586 59.100 176.346 58.540 176.306C57.980 176.306 56.980 176.466 56.460 176.466C55.700 176.466 54.980 176.426 54.380 176.346C54.300 176.346 54.220 176.306 54.180 176.306C53.740 176.306 53.620 176.706 53.460 177.066"></path></g><g><path d="M60.820 204.906C62.260 203.986 63.220 202.666 63.220 200.666C63.220 196.586 57.340 195.986 56.260 195.986C51.620 195.986 48.460 198.106 48.460 201.466C48.460 204.226 50.020 205.706 51.940 206.786C49.860 207.786 48.260 209.106 48.260 211.626C48.260 215.106 51.860 216.706 55.820 216.706C59.820 216.706 64.100 214.986 64.100 209.586C64.100 207.186 62.700 205.866 60.820 204.906M55.660 215.386C52.980 215.386 50.540 214.026 50.540 211.426C50.540 209.826 51.940 208.346 53.700 207.666C56.620 208.946 59.580 209.786 59.580 212.426C59.580 214.026 58.340 215.386 55.660 215.386M58.740 203.986C55.540 202.866 52.140 202.186 52.140 199.666C52.140 197.986 54.420 197.146 56.180 197.146C57.460 197.146 60.860 197.786 60.860 200.586C60.860 202.186 60.060 203.226 58.740 203.986"></path></g></g></g><g><line stroke="black" stroke-width="1.6" x1="110.79595426255857" x2="110.79595426255857" y1="176.3461538461538" y2="216.3461538461538"></line></g><g><g><path d="M93.360 196.986C97.360 196.986 102.280 193.266 102.280 189.466C102.280 187.186 100.480 185.706 97.880 185.706C92.960 185.706 89 189.346 89 193.226C89 195.586 90.920 196.986 93.360 196.986"></path></g><line stroke="#000000" stroke-width="1.2" x1="89.6" x2="89.6" y1="193.18615384615381" y2="228.18615384615381"></line><path d="M98.600 196.306C99.160 197.986 99.440 199.986 99.440 201.786C99.440 204.146 98.440 207.506 97.840 208.866C96.360 212.226 94.360 215.466 89 217.266L89 226.666C89 227.146 89.200 227.266 89.440 227.266C90.200 227.266 90.520 227.026 90.600 226.386C91.280 222.586 94.240 219.106 96.280 215.946C98.800 211.986 101.240 207.226 101.240 202.226C101.240 199.106 100.440 196.266 100.120 194.986C99.800 193.706 98 194.586 98.600 196.306"></path></g></g><g transform="translate(290.44210810871243)"><g><g><line stroke="#6A6A6A" stroke-width="1.3" x1="-2.74202286872071" x2="944.3271226605178" y1="216.3461538461538" y2="216.3461538461538"></line><line stroke="#6A6A6A" stroke-width="1.3" x1="-2.74202286872071" x2="944.3271226605178" y1="206.3461538461538" y2="206.3461538461538"></line><line stroke="#6A6A6A" stroke-width="1.3" x1="-2.74202286872071" x2="944.3271226605178" y1="196.3461538461538" y2="196.3461538461538"></line><line stroke="#6A6A6A" stroke-width="1.3" x1="-2.74202286872071" x2="944.3271226605178" y1="186.3461538461538" y2="186.3461538461538"></line><line stroke="#6A6A6A" stroke-width="1.3" x1="-2.74202286872071" x2="944.3271226605178" y1="176.3461538461538" y2="176.3461538461538"></line></g></g><g><line stroke="black" stroke-width="1.6" x1="21.795954262558563" x2="21.795954262558563" y1="176.3461538461538" y2="216.3461538461538"></line></g><g><path d="M6.658 189.666C6.578 189.666 6.458 189.666 6.218 189.826C5.938 190.066 3.938 192.466 2.618 192.466L2.618 192.066C2.618 190.586 1.418 189.386-0.062 189.386C-1.542 189.386-2.742 190.586-2.742 192.066C-2.742 192.906-2.262 193.626-1.662 194.106C-1.302 194.346-0.942 194.546-0.542 194.626C-0.222 194.706 0.138 194.786 0.498 194.786C1.058 194.786 1.618 194.666 2.058 194.506C2.618 194.346 2.978 194.186 3.498 193.906C3.578 193.866 3.658 193.866 3.698 193.866C3.858 193.866 3.898 194.026 3.898 194.226C3.898 194.346 3.898 194.506 3.858 194.666C3.738 195.266 0.858 203.226 0.138 205.866C0.138 206.346 1.058 206.386 1.298 206.386C1.738 206.386 2.298 206.306 2.698 205.986C2.818 205.906 6.738 191.866 6.738 191.866C6.898 191.146 7.098 190.506 7.138 190.306C7.138 189.786 6.738 189.706 6.658 189.666"></path></g></g><g transform="translate(328.038062371271)"><g><g><g><path d="M16.360 189.986C16.360 189.506 16.160 189.426 15.880 189.426C15.560 189.426 15.440 189.586 15.360 189.826C15.360 189.866 15.320 189.906 15.320 189.946C14.920 190.906 14.600 191.666 13.760 191.666C13.560 191.666 13.360 191.626 13.080 191.546C12.560 191.346 12.280 191.306 11.880 191.106C11.080 190.786 9.200 190.146 7.560 190.146C7.040 190.146 6.520 190.226 6.080 190.386C6.960 188.946 10.360 187.746 11.240 187.506C11.840 187.346 13.520 187.026 14.840 185.946C15.800 185.186 16.560 184.026 16.560 182.266C16.560 180.386 15.760 179.026 14.720 178.146C12.680 176.426 9.560 176.186 8.680 176.186C7.600 176.186 6.240 176.226 5.200 176.466C3.800 176.746 2.400 177.586 1.440 178.706C0.760 179.546 0.320 180.546 0.320 181.626C0.320 182.186 0.440 182.746 0.680 183.346C1.280 184.586 2.520 185.546 3.960 185.546C6.400 185.546 6.760 183.026 6.760 182.026C6.760 179.626 4 179.506 4 178.706C4.080 178.146 4.800 177.186 7.160 177.186C10.720 177.186 10.760 179.866 10.760 181.026C10.760 182.546 10.280 183.946 9.400 185.106C7.960 187.026 6.840 187.986 4.880 189.186C2.680 190.586 1.120 192.546 0.440 195.066C0.440 195.146 0.400 195.226 0.400 195.306C0.400 195.746 0.680 196.266 1.120 196.546C1.240 196.626 1.360 196.626 1.440 196.626C2.320 196.626 2.800 194.186 5.160 194.186C6.760 194.186 7.360 196.346 10.920 196.346C12.640 196.346 15.720 196.186 16.360 189.986"></path></g><g><path d="M12.320 204.906C13.760 203.986 14.720 202.666 14.720 200.666C14.720 196.586 8.840 195.986 7.760 195.986C3.120 195.986-0.040 198.106-0.040 201.466C-0.040 204.226 1.520 205.706 3.440 206.786C1.360 207.786-0.240 209.106-0.240 211.626C-0.240 215.106 3.360 216.706 7.320 216.706C11.320 216.706 15.600 214.986 15.600 209.586C15.600 207.186 14.200 205.866 12.320 204.906M7.160 215.386C4.480 215.386 2.040 214.026 2.040 211.426C2.040 209.826 3.440 208.346 5.200 207.666C8.120 208.946 11.080 209.786 11.080 212.426C11.080 214.026 9.840 215.386 7.160 215.386M10.240 203.986C7.040 202.866 3.640 202.186 3.640 199.666C3.640 197.986 5.920 197.146 7.680 197.146C8.960 197.146 12.360 197.786 12.360 200.586C12.360 202.186 11.560 203.226 10.240 203.986"></path></g></g></g><g><line stroke="black" stroke-width="1.6" x1="70.07259192898023" x2="70.07259192898023" y1="176.3461538461538" y2="216.3461538461538"></line></g><g><g><path d="M44.860 196.986C48.860 196.986 53.780 193.266 53.780 189.466C53.780 187.186 51.980 185.706 49.380 185.706C44.460 185.706 40.500 189.346 40.500 193.226C40.500 195.586 42.420 196.986 44.860 196.986"></path></g><line stroke="#000000" stroke-width="1.2" x1="41.1" x2="41.1" y1="193.18615384615381" y2="228.18615384615381"></line></g></g><g transform="translate(413.9106543002513)"><g></g><g><line stroke="black" stroke-width="1.6" x1="29.57259192898024" x2="29.57259192898024" y1="176.3461538461538" y2="216.3461538461538"></line></g><g><path d="M10.026 202.786C8.506 200.946 7.266 199.466 7.266 197.226C7.266 197.066 7.306 196.866 7.306 196.706C7.466 194.386 8.906 192.466 9.946 190.826C10.066 190.626 10.106 190.426 10.106 190.226C10.106 189.826 9.946 189.466 9.946 189.466C9.946 189.466 4.026 182.426 3.346 181.746C3.146 181.546 2.866 181.426 2.626 181.426C2.226 181.426 1.826 181.706 1.826 182.266C1.826 182.466 1.866 182.666 1.986 182.906C2.146 183.346 4.426 185.386 4.426 188.266C4.426 189.746 3.826 191.466 2.026 193.346C1.626 193.746 1.466 194.186 1.466 194.506C1.466 195.066 1.866 195.466 1.866 195.466L3.826 197.866C4.466 198.666 5.026 199.426 5.546 200.266C5.626 200.426 5.786 200.626 5.786 200.826C5.786 200.866 5.786 200.946 5.746 200.986C5.666 201.146 5.506 201.186 5.306 201.186C5.066 201.186 4.826 201.106 4.666 201.066C4.466 201.066 4.226 200.946 4.026 200.946C2.306 200.946 0.746 202.666 0.746 204.786C0.746 206.786 2.466 208.746 5.386 210.986C5.706 211.226 6.106 211.346 6.426 211.346C6.706 211.346 6.986 211.266 7.026 211.106C7.066 210.986 7.106 210.906 7.106 210.826C7.106 210.466 6.786 210.146 6.466 209.866C5.946 209.866 5.506 208.786 5.426 208.426C5.306 208.106 5.266 207.746 5.266 207.386C5.266 206.146 5.866 204.746 7.146 204.506C7.346 204.466 7.546 204.466 7.786 204.466C8.946 204.466 10.266 204.906 10.906 205.146C10.946 205.146 10.986 205.186 11.026 205.186C11.146 205.226 11.226 205.226 11.306 205.226C11.426 205.226 11.506 205.186 11.506 205.066C11.506 204.586 10.466 203.266 10.026 202.786"></path></g></g><g transform="translate(459.2832462292315)"><g><g><g><path d="M7.880 176.426C7.680 176.426 7.480 176.386 7.280 176.386C3.840 176.386 0.400 178.666 0.400 180.786C0.400 182.106 1.160 183.866 3.640 184.026L3.840 184.026C5.600 184.026 6.480 182.746 6.480 181.426L6.480 181.106C6.360 179.626 5.360 179.546 5.160 179.466C4.960 179.386 4.360 179.466 4.360 178.906L4.360 178.746C4.440 178.066 5.680 177.746 6.040 177.746C9.440 177.746 9.760 179.866 9.760 180.826L9.760 181.106C9.760 184.066 7.400 185.226 4.880 185.346C4.480 185.386 3.920 185.586 3.920 186.026C3.920 186.506 4.600 186.506 4.920 186.506C9.520 186.506 9.880 189.626 9.880 190.146C9.880 194.386 7.720 194.866 6.840 194.866C6.680 194.866 6.520 194.826 6.480 194.826C6.160 194.786 5.400 194.786 5.360 194.186L5.360 193.986C5.360 193.106 6.240 192.506 6.280 191.346C6.280 190.946 6.240 190.506 6.080 190.106C5.640 189.106 4.480 188.466 3.400 188.466C3.240 188.466 3.120 188.466 2.960 188.506C2.280 188.626 1.520 189.026 1.040 189.546C0.360 190.146 0.160 191.106 0.160 191.986C0.240 195.106 3.080 196.306 7 196.386L7.360 196.386C11.320 196.386 15.400 194.346 15.400 190.826L15.400 190.546C15.360 189.986 15.280 189.426 15.040 188.906C14.880 188.506 14.600 188.106 14.280 187.746C14.040 187.426 13.720 187.146 13.320 186.906L12.480 186.426L11.160 186.066C10.960 186.026 10.840 186.026 10.760 185.866C10.720 185.786 10.720 185.746 10.720 185.666C10.720 185.506 10.760 185.346 10.880 185.306C11.320 185.186 11.760 185.146 12.120 184.946C12.720 184.666 13.240 184.386 13.680 183.866C14.320 183.146 14.560 182.226 14.560 181.306C14.560 177.626 9.560 176.546 7.880 176.426"></path></g><g><path d="M16.680 209.306L13.760 209.306L13.760 200.746C13.760 200.426 13.720 200.066 13.280 200.066C12.920 200.066 12.720 200.146 12.480 200.426L8.680 205.026C8.520 205.226 8.320 205.466 8.320 205.946C8.320 205.946 8.320 207.546 8.320 209.306L2.920 209.306C6.120 206.586 12.520 197.506 12.640 197.066C12.640 196.986 12.680 196.946 12.680 196.866C12.680 196.546 12.400 196.306 12.080 196.306C11.720 196.306 10.080 196.386 9.360 196.386C8.640 196.386 6.840 196.306 6.520 196.306C6.160 196.306 5.600 196.426 5.600 197.066C5.600 202.026 1.680 207.586 0.480 209.266L0.240 209.586C0.240 209.626 0.200 209.666 0.200 209.706C0.120 209.866 0.080 210.026 0.080 210.146C0.080 210.546 0.400 210.826 0.880 210.826L8.320 210.826L8.320 213.346C8.320 214.426 7.440 214.746 6.720 214.746C6.080 214.746 5.800 215.106 5.800 215.506C5.800 215.906 5.960 216.346 6.560 216.346C7.200 216.346 15.080 216.346 15.080 216.346C15.480 216.346 15.880 216.066 15.880 215.506C15.880 214.946 15.400 214.706 15 214.706C14.600 214.706 13.760 214.466 13.760 213.186L13.760 210.826C15.480 210.826 16.680 210.826 16.680 210.826C17.080 210.826 17.280 210.546 17.280 210.066C17.280 209.586 17.120 209.306 16.680 209.306"></path></g></g></g><g><line stroke="black" stroke-width="1.6" x1="82.39827101195428" x2="82.39827101195428" y1="176.3461538461538" y2="216.3461538461538"></line></g><g><g><path d="M44.980 197.146C52.620 197.146 54.140 190.946 54.140 189.426C54.140 187.066 52.260 185.546 49.580 185.546C42.660 185.546 40.500 190.906 40.500 193.306C40.500 195.746 42.460 197.146 44.980 197.146M48.500 193.466C46.420 194.866 44.980 195.346 43.980 195.346C43.020 195.346 42.460 194.866 42.140 194.306C41.980 194.026 41.860 193.706 41.860 193.386C41.860 192.386 42.860 191.106 46.060 189.266C48.340 187.946 49.780 187.466 50.740 187.466C51.620 187.466 52.100 187.866 52.420 188.426C52.580 188.706 52.700 188.986 52.700 189.306C52.700 190.226 51.740 191.346 48.500 193.466"></path><g><circle cx="60.14" cy="191.3461538461538" fill="#000000" r="2.4"></circle></g></g><line stroke="#000000" stroke-width="1.2" x1="41.1" x2="41.1" y1="193.30615384615382" y2="228.30615384615382"></line></g></g><g transform="translate(557.4815172411858)"><g></g><g><line stroke="black" stroke-width="1.6" x1="41.89827101195429" x2="41.89827101195429" y1="176.3461538461538" y2="216.3461538461538"></line></g><g><path d="M17.889 195.386L17.889 191.706C17.889 191.106 17.409 190.666 16.849 190.666L7.649 190.666C7.049 190.666 6.609 191.106 6.609 191.706L6.609 195.386C6.609 195.946 7.049 196.426 7.649 196.426L16.849 196.426C17.409 196.426 17.889 195.946 17.889 195.386"></path><g><circle cx="23.88913550597715" cy="191.3461538461538" r="2.4"></circle></g></g></g><g transform="translate(615.17978825314)"><g><g><g><path d="M16.680 189.306L13.760 189.306L13.760 180.746C13.760 180.426 13.720 180.066 13.280 180.066C12.920 180.066 12.720 180.146 12.480 180.426L8.680 185.026C8.520 185.226 8.320 185.466 8.320 185.946C8.320 185.946 8.320 187.546 8.320 189.306L2.920 189.306C6.120 186.586 12.520 177.506 12.640 177.066C12.640 176.986 12.680 176.946 12.680 176.866C12.680 176.546 12.400 176.306 12.080 176.306C11.720 176.306 10.080 176.386 9.360 176.386C8.640 176.386 6.840 176.306 6.520 176.306C6.160 176.306 5.600 176.426 5.600 177.066C5.600 182.026 1.680 187.586 0.480 189.266L0.240 189.586C0.240 189.626 0.200 189.666 0.200 189.706C0.120 189.866 0.080 190.026 0.080 190.146C0.080 190.546 0.400 190.826 0.880 190.826L8.320 190.826L8.320 193.346C8.320 194.426 7.440 194.746 6.720 194.746C6.080 194.746 5.800 195.106 5.800 195.506C5.800 195.906 5.960 196.346 6.560 196.346C7.200 196.346 15.080 196.346 15.080 196.346C15.480 196.346 15.880 196.066 15.880 195.506C15.880 194.946 15.400 194.706 15 194.706C14.600 194.706 13.760 194.466 13.760 193.186L13.760 190.826C15.480 190.826 16.680 190.826 16.680 190.826C17.080 190.826 17.280 190.546 17.280 190.066C17.280 189.586 17.120 189.306 16.680 189.306"></path></g><g><path d="M16.680 209.306L13.760 209.306L13.760 200.746C13.760 200.426 13.720 200.066 13.280 200.066C12.920 200.066 12.720 200.146 12.480 200.426L8.680 205.026C8.520 205.226 8.320 205.466 8.320 205.946C8.320 205.946 8.320 207.546 8.320 209.306L2.920 209.306C6.120 206.586 12.520 197.506 12.640 197.066C12.640 196.986 12.680 196.946 12.680 196.866C12.680 196.546 12.400 196.306 12.080 196.306C11.720 196.306 10.080 196.386 9.360 196.386C8.640 196.386 6.840 196.306 6.520 196.306C6.160 196.306 5.600 196.426 5.600 197.066C5.600 202.026 1.680 207.586 0.480 209.266L0.240 209.586C0.240 209.626 0.200 209.666 0.200 209.706C0.120 209.866 0.080 210.026 0.080 210.146C0.080 210.546 0.400 210.826 0.880 210.826L8.320 210.826L8.320 213.346C8.320 214.426 7.440 214.746 6.720 214.746C6.080 214.746 5.800 215.106 5.800 215.506C5.800 215.906 5.960 216.346 6.560 216.346C7.200 216.346 15.080 216.346 15.080 216.346C15.480 216.346 15.880 216.066 15.880 215.506C15.880 214.946 15.400 214.706 15 214.706C14.600 214.706 13.760 214.466 13.760 213.186L13.760 210.826C15.480 210.826 16.680 210.826 16.680 210.826C17.080 210.826 17.280 210.546 17.280 210.066C17.280 209.586 17.120 209.306 16.680 209.306"></path></g></g></g><g><line stroke="black" stroke-width="1.6" x1="85.6258672618236" x2="85.6258672618236" y1="176.3461538461538" y2="216.3461538461538"></line></g><g><g><path d="M49.900 185.866C44.100 185.866 40.500 188.306 40.500 191.266C40.500 194.186 42.980 196.786 49.460 196.786C56.580 196.786 58.860 194.306 58.860 191.266C58.860 188.186 53.940 185.866 49.900 185.866M45.340 188.586C45.820 187.106 47.420 186.866 48.780 186.866C51.740 186.866 54.140 190.066 54.140 192.706C54.140 192.986 54.100 193.266 54.060 193.506C53.860 194.586 53.220 195.346 52.140 195.626C51.700 195.746 51.260 195.786 50.820 195.786C50.420 195.786 50.060 195.746 49.660 195.626C48.940 195.386 48.220 194.986 47.620 194.466C47.300 194.186 46.980 193.866 46.700 193.506C45.860 192.506 45.180 191.026 45.180 189.666C45.180 189.306 45.220 188.946 45.340 188.586"></path></g></g></g><g transform="translate(716.6056555149637)"><g></g><g><line stroke="black" stroke-width="1.6" x1="45.125867261823615" x2="45.125867261823615" y1="176.3461538461538" y2="216.3461538461538"></line></g><g><path d="M19.503 190.706L19.503 187.026C19.503 186.426 19.023 185.986 18.463 185.986L9.263 185.986C8.663 185.986 8.223 186.426 8.223 187.026L8.223 190.706C8.223 191.266 8.663 191.746 9.263 191.746L18.463 191.746C19.023 191.746 19.503 191.266 19.503 190.706"></path></g></g><g transform="translate(777.5315227767871)"><g><g><g><path d="M12.920 183.226C10.600 183.226 8.880 183.626 7.600 184.386C7.520 184.426 7.440 184.426 7.400 184.426C7.240 184.426 7.240 184.266 7.240 184.146C7.240 184.066 7.240 183.986 7.240 183.986C7.240 183.986 7.400 181.746 7.440 181.386C7.480 181.066 7.680 180.866 8.040 180.866L8.200 180.866C8.600 180.946 10.480 181.226 12.120 181.226C17.680 181.226 17.880 178.026 17.880 177.386C17.880 176.866 17.760 176.546 17.320 176.546C16.800 176.546 13.680 176.906 12.400 176.906C11.120 176.906 7.680 176.586 7 176.506C6.280 176.506 6.080 176.866 6.040 177.186L5.600 186.066C5.600 186.106 5.600 186.106 5.600 186.146C5.600 186.666 6 186.746 6.400 186.746C6.800 186.746 6.840 186.386 7.280 185.946C7.680 185.546 8.640 184.626 10 184.626C11.360 184.626 14.120 185.386 14.120 189.826C14.120 194.226 11.760 194.786 10.720 194.786C10.400 194.786 10.080 194.786 9.800 194.666C9.600 194.546 9.360 194.386 9.320 194.106C9.320 193.826 9.600 193.666 9.800 193.546C10.720 192.986 11.320 191.986 11.320 190.866C11.320 189.106 9.920 187.746 8.200 187.746C6.040 187.746 5.160 189.306 5.040 190.706C5 190.946 5 191.186 5 191.426C5 194.746 7.160 196.386 12.080 196.386C16.880 196.386 19.520 193.426 19.520 189.826C19.520 186.186 16.560 183.226 12.920 183.226"></path></g><g><path d="M-0.880 205.826C-0.880 205.826-1.040 206.066-1.040 206.346C-1.040 206.546-0.920 206.786-0.600 206.906C-0.440 206.946-0.360 206.986-0.240 206.986C0.160 206.986 0.320 206.626 0.320 206.626C0.320 206.626 2.040 203.866 2.480 203.106C2.640 202.826 2.800 202.706 2.880 202.706C3.040 202.706 3.120 203.026 3.120 203.266L3.120 213.586C3.120 214.506 2.200 215.106 1.360 215.106C1.080 215.106 0.680 215.226 0.680 215.706C0.680 216.146 1.040 216.346 1.560 216.346L10.080 216.346C10.720 216.346 10.720 215.706 10.720 215.706C10.720 215.706 10.720 215.106 10.120 215.106C9.560 215.106 8.840 214.386 8.840 213.706C8.840 213.706 8.840 197.866 8.840 197.226C8.840 196.586 8.600 196.346 8.040 196.306C7.480 196.306 6.480 196.466 5.960 196.466C5.200 196.466 4.480 196.426 3.880 196.346C3.800 196.346 3.720 196.306 3.680 196.306C3.240 196.306 3.120 196.706 2.960 197.066"></path><path d="M21.560 202.346C22.040 202.826 22.720 203.026 23.360 203.026C23.680 203.026 24.040 202.946 24.360 202.866C25.600 202.546 26.560 201.266 26.560 199.986C26.560 199.826 26.560 199.706 26.520 199.546C26.320 198.226 25.200 197.266 24 196.826C23.040 196.426 21.880 196.306 20.840 196.306C17.800 196.346 14.960 197.826 13.520 200.546C12.640 202.226 11.960 204.346 11.960 206.226L11.960 206.386C12 208.226 12.320 210.306 13.200 211.906C14.040 213.426 15.400 215.066 16.960 215.746C17.960 216.186 19.160 216.306 20.160 216.306C21.960 216.306 23.960 216.026 25.400 214.866C26.800 213.746 27.720 211.946 27.720 210.146C27.720 209.946 27.680 209.786 27.680 209.586C27.520 207.946 26.520 206.546 25.240 205.586C24.160 204.786 22.920 204.346 21.680 204.346C20.400 204.346 19.080 204.826 18.040 205.746C17.960 205.826 17.880 205.826 17.800 205.826C17.560 205.826 17.440 205.506 17.440 204.866C17.560 197.466 19.920 197.266 20.760 197.266C21.560 197.266 22.080 197.466 22.080 197.866C22.080 198.426 21.320 198.906 21.080 199.386C20.880 199.746 20.800 200.146 20.800 200.546C20.800 201.146 21 201.746 21.400 202.186C21.440 202.266 21.520 202.306 21.560 202.346M20.040 206.266C21.320 206.266 22.400 208.266 22.400 210.746C22.400 213.226 21.320 215.226 20.040 215.226C18.760 215.226 17.720 213.226 17.720 210.746C17.720 208.266 18.760 206.266 20.040 206.266"></path></g></g></g><g><line stroke="black" stroke-width="1.6" x1="83.29190852511712" x2="83.29190852511712" y1="176.3461538461538" y2="216.3461538461538"></line></g><g><g><path d="M44.860 196.986C48.860 196.986 53.780 193.266 53.780 189.466C53.780 187.186 51.980 185.706 49.380 185.706C44.460 185.706 40.500 189.346 40.500 193.226C40.500 195.586 42.420 196.986 44.860 196.986"></path></g><line stroke="#000000" stroke-width="1.2" x1="41.1" x2="41.1" y1="193.18615384615381" y2="228.18615384615381"></line></g><g><g><path d="M73.633 196.986C77.633 196.986 82.553 193.266 82.553 189.466C82.553 187.186 80.753 185.706 78.153 185.706C73.233 185.706 69.273 189.346 69.273 193.226C69.273 195.586 71.193 196.986 73.633 196.986"></path></g><line stroke="#000000" stroke-width="1.2" x1="69.87259192898023" x2="69.87259192898023" y1="193.18615384615381" y2="228.18615384615381"></line><path d="M78.873 195.266C79.473 198.626 79.473 202.266 77.953 205.386C75.193 210.986 71.953 211.106 69.473 211.186L69.273 211.186L69.273 227.026C69.273 227.026 69.713 227.066 69.953 227.066C70.193 227.066 70.673 226.986 70.753 226.546C71.713 220.386 79.593 218.666 80.553 212.386C80.633 211.946 80.673 211.466 80.673 210.946C80.673 208.506 79.793 206.106 79.673 205.866C79.633 205.786 79.633 205.706 79.633 205.586C79.633 205.426 79.673 205.346 79.673 205.226C81.113 202.226 81.153 198.306 80.513 195.106C80.313 194.186 80.033 194.226 79.553 194.226C79.073 194.266 78.753 194.586 78.873 195.266M78.313 208.466C78.513 208.466 78.793 208.586 78.833 208.746C79.033 209.026 79.033 209.426 79.113 209.746C79.153 210.026 79.153 210.306 79.153 210.546C79.153 211.866 78.793 213.066 78.073 214.106C76.753 216.066 74.193 218.306 71.753 218.306L71.433 218.306C71.113 218.306 70.873 218.106 70.873 217.906C70.873 217.866 70.873 217.826 70.913 217.786C71.753 214.506 73.993 213.586 75.873 211.386C76.713 210.466 77.393 209.666 78.033 208.626C78.113 208.506 78.193 208.466 78.313 208.466"></path></g></g><g transform="translate(876.6234313019042)"><g></g><g><line stroke="black" stroke-width="1.6" x1="32.07611007756068" x2="32.07611007756068" y1="176.3461538461538" y2="216.3461538461538"></line></g><g><path d="M12.978 190.706L12.978 187.026C12.978 186.426 12.498 185.986 11.938 185.986L2.738 185.986C2.138 185.986 1.698 186.426 1.698 187.026L1.698 190.706C1.698 191.266 2.138 191.746 2.738 191.746L11.938 191.746C12.498 191.746 12.978 191.266 12.978 190.706"></path></g></g><g transform="translate(924.499541379465)"><g><g><g><path d="M11.280 194.866C11.280 188.186 16.040 182.466 16.040 178.346L16.040 178.186C16.040 177.106 16.040 176.586 15.360 176.586C15.320 176.586 14.680 176.746 14.520 177.026C14.240 177.506 13.680 179.786 12.680 179.786C11.680 179.786 9.800 176.386 6.480 176.386C4.160 176.386 3.560 177.306 3 177.826C2.440 178.346 2.200 178.506 1.920 178.546C1.600 178.546 1.080 177.986 0.880 177.586C0.800 177.426 0.600 177.306 0.400 177.306C0.200 177.306 0 177.426 0 177.786C0 178.466 0 184.386 0 184.386C0 184.386 0.040 185.026 0.440 185.026C0.840 185.026 0.880 184.666 1.040 184.226C1.440 183.226 1.960 180.906 3.760 180.906C5.360 180.906 7.280 183.906 9.600 183.906C10.720 183.906 11.280 183.306 11.600 183.066C11.720 182.986 11.880 182.906 11.960 182.906C12.120 182.906 12.200 183.026 12.240 183.266C12.240 184.386 9.160 186.626 6.760 189.466C5.240 191.226 4 193.546 4 195.106C4 195.946 4 196.346 4.760 196.346C5.480 196.346 6.360 195.986 7.360 195.986C8.360 195.986 10.240 196.346 10.640 196.346C11.040 196.346 11.280 196.026 11.280 194.866"></path></g><g><path d="M12.320 204.906C13.760 203.986 14.720 202.666 14.720 200.666C14.720 196.586 8.840 195.986 7.760 195.986C3.120 195.986-0.040 198.106-0.040 201.466C-0.040 204.226 1.520 205.706 3.440 206.786C1.360 207.786-0.240 209.106-0.240 211.626C-0.240 215.106 3.360 216.706 7.320 216.706C11.320 216.706 15.600 214.986 15.600 209.586C15.600 207.186 14.200 205.866 12.320 204.906M7.160 215.386C4.480 215.386 2.040 214.026 2.040 211.426C2.040 209.826 3.440 208.346 5.200 207.666C8.120 208.946 11.080 209.786 11.080 212.426C11.080 214.026 9.840 215.386 7.160 215.386M10.240 203.986C7.040 202.866 3.640 202.186 3.640 199.666C3.640 197.986 5.920 197.146 7.680 197.146C8.960 197.146 12.360 197.786 12.360 200.586C12.360 202.186 11.560 203.226 10.240 203.986"></path></g></g></g><g><line stroke="black" stroke-width="1.6" x1="84.12773629244604" x2="84.12773629244604" y1="176.3461538461538" y2="216.3461538461538"></line></g><g><g><path d="M44.980 197.146C52.620 197.146 54.140 190.946 54.140 189.426C54.140 187.066 52.260 185.546 49.580 185.546C42.660 185.546 40.500 190.906 40.500 193.306C40.500 195.746 42.460 197.146 44.980 197.146M48.500 193.466C46.420 194.866 44.980 195.346 43.980 195.346C43.020 195.346 42.460 194.866 42.140 194.306C41.980 194.026 41.860 193.706 41.860 193.386C41.860 192.386 42.860 191.106 46.060 189.266C48.340 187.946 49.780 187.466 50.740 187.466C51.620 187.466 52.100 187.866 52.420 188.426C52.580 188.706 52.700 188.986 52.700 189.306C52.700 190.226 51.740 191.346 48.500 193.466"></path><g><circle cx="60.14" cy="191.3461538461538" fill="#000000" r="2.4"></circle></g><g><circle cx="66.14" cy="191.3461538461538" fill="#000000" r="2.4"></circle></g></g><line stroke="#000000" stroke-width="1.2" x1="41.1" x2="41.1" y1="193.30615384615382" y2="228.30615384615382"></line></g></g><g transform="translate(1024.4272776719113)"><g></g><g><line stroke="black" stroke-width="1.6" x1="43.62773629244604" x2="43.62773629244604" y1="176.3461538461538" y2="216.3461538461538"></line></g><g><path d="M18.754 195.386L18.754 191.706C18.754 191.106 18.274 190.666 17.714 190.666L8.514 190.666C7.914 190.666 7.474 191.106 7.474 191.706L7.474 195.386C7.474 195.946 7.914 196.426 8.514 196.426L17.714 196.426C18.274 196.426 18.754 195.946 18.754 195.386"></path><g><circle cx="24.753868146223024" cy="191.3461538461538" r="2.4"></circle></g><g><circle cx="30.753868146223024" cy="191.3461538461538" r="2.4"></circle></g></g></g><g transform="translate(1083.8550139643573)"><g><g><g><path d="M6.160 190.266C5.640 189.826 5 189.586 4.320 189.586C4 189.586 3.680 189.666 3.360 189.746C2.120 190.106 1.160 191.346 1.160 192.666C1.160 192.826 1.160 192.946 1.200 193.106C1.400 194.426 2.520 195.386 3.720 195.826C4.680 196.226 5.840 196.346 6.880 196.346C9.920 196.306 12.760 194.826 14.200 192.106C15.080 190.426 15.760 188.306 15.760 186.426L15.760 186.266C15.720 184.426 15.400 182.346 14.520 180.746C13.680 179.226 12.320 177.586 10.760 176.906C9.760 176.466 8.560 176.346 7.560 176.346C5.760 176.346 3.760 176.626 2.320 177.786C0.920 178.906 0 180.706 0 182.506C0 182.706 0.040 182.866 0.040 183.066C0.200 184.666 1.200 186.066 2.480 187.026C3.560 187.826 4.800 188.266 6.040 188.266C7.320 188.266 8.640 187.786 9.680 186.866C9.760 186.786 9.840 186.786 9.920 186.786C10.120 186.786 10.280 187.066 10.280 187.586L10.280 187.786C10.160 195.146 7.800 195.386 6.960 195.386C6.160 195.386 5.640 195.186 5.640 194.786C5.640 194.226 6.400 193.746 6.640 193.266C6.840 192.906 6.920 192.466 6.920 192.066C6.920 191.466 6.720 190.866 6.320 190.426M7.680 186.386C6.400 186.386 5.320 184.386 5.320 181.906C5.320 179.426 6.400 177.426 7.680 177.426C8.960 177.426 10 179.426 10 181.906C10 184.386 8.960 186.386 7.680 186.386"></path></g><g><path d="M12.320 204.906C13.760 203.986 14.720 202.666 14.720 200.666C14.720 196.586 8.840 195.986 7.760 195.986C3.120 195.986-0.040 198.106-0.040 201.466C-0.040 204.226 1.520 205.706 3.440 206.786C1.360 207.786-0.240 209.106-0.240 211.626C-0.240 215.106 3.360 216.706 7.320 216.706C11.320 216.706 15.600 214.986 15.600 209.586C15.600 207.186 14.200 205.866 12.320 204.906M7.160 215.386C4.480 215.386 2.040 214.026 2.040 211.426C2.040 209.826 3.440 208.346 5.200 207.666C8.120 208.946 11.080 209.786 11.080 212.426C11.080 214.026 9.840 215.386 7.160 215.386M10.240 203.986C7.040 202.866 3.640 202.186 3.640 199.666C3.640 197.986 5.920 197.146 7.680 197.146C8.960 197.146 12.360 197.786 12.360 200.586C12.360 202.186 11.560 203.226 10.240 203.986"></path></g></g></g><g><line stroke="black" stroke-width="1.6" x1="86.94731242850665" x2="86.94731242850665" y1="176.3461538461538" y2="216.3461538461538"></line></g><g><g><path d="M49.900 185.866C44.100 185.866 40.500 188.306 40.500 191.266C40.500 194.186 42.980 196.786 49.460 196.786C56.580 196.786 58.860 194.306 58.860 191.266C58.860 188.186 53.940 185.866 49.900 185.866M45.340 188.586C45.820 187.106 47.420 186.866 48.780 186.866C51.740 186.866 54.140 190.066 54.140 192.706C54.140 192.986 54.100 193.266 54.060 193.506C53.860 194.586 53.220 195.346 52.140 195.626C51.700 195.746 51.260 195.786 50.820 195.786C50.420 195.786 50.060 195.746 49.660 195.626C48.940 195.386 48.220 194.986 47.620 194.466C47.300 194.186 46.980 193.866 46.700 193.506C45.860 192.506 45.180 191.026 45.180 189.666C45.180 189.306 45.220 188.946 45.340 188.586"></path></g></g></g><g transform="translate(1186.6023263928641)"><g></g><g><line stroke="black" stroke-width="1.6" x1="47.36690437636647" x2="47.36690437636647" y1="176.3461538461538" y2="216.3461538461538"></line></g><g><g><path d="M4.360 196.986C8.360 196.986 13.280 193.266 13.280 189.466C13.280 187.186 11.480 185.706 8.880 185.706C3.960 185.706 0 189.346 0 193.226C0 195.586 1.920 196.986 4.360 196.986"></path></g><line stroke="#000000" stroke-width="1.2" x1="0.6" x2="0.6" y1="193.18615384615381" y2="228.18615384615381"></line><path d="M9.600 196.306C10.160 197.986 10.440 199.986 10.440 201.786C10.440 204.146 9.440 207.506 8.840 208.866C7.360 212.226 5.360 215.466 0 217.266L0 226.666C0 227.146 0.200 227.266 0.440 227.266C1.200 227.266 1.520 227.026 1.600 226.386C2.280 222.586 5.240 219.106 7.280 215.946C9.800 211.986 12.240 207.226 12.240 202.226C12.240 199.106 11.440 196.266 11.120 194.986C10.800 193.706 9 194.586 9.600 196.306"></path></g></g><g transform="translate(93.84615384615385)"><g><g><line stroke="#6A6A6A" stroke-width="1.3" x1="0" x2="834.2787576843374" y1="347.3461538461538" y2="347.3461538461538"></line><line stroke="#6A6A6A" stroke-width="1.3" x1="0" x2="834.2787576843374" y1="337.3461538461538" y2="337.3461538461538"></line><line stroke="#6A6A6A" stroke-width="1.3" x1="0" x2="834.2787576843374" y1="327.3461538461538" y2="327.3461538461538"></line><line stroke="#6A6A6A" stroke-width="1.3" x1="0" x2="834.2787576843374" y1="317.3461538461538" y2="317.3461538461538"></line><line stroke="#6A6A6A" stroke-width="1.3" x1="0" x2="834.2787576843374" y1="307.3461538461538" y2="307.3461538461538"></line></g><g><path d="M25.200 293.426C24.640 293.426 23.400 294.466 22.600 295.346C19.640 298.626 18.680 303.626 18.680 307.786C18.680 310.106 18.960 312.706 19.240 314.346C19.320 314.826 19.360 314.906 18.880 315.306C16.320 317.426 13.560 319.866 11.480 322.426C8.720 325.866 7 329.586 7 333.866C7 340.826 11.760 347.426 21.560 347.426C22.480 347.426 23.520 347.346 24.320 347.186C24.760 347.106 24.840 347.066 24.920 347.546C25.400 350.226 26 353.706 26 355.586C26 361.506 22 362.226 19.640 362.226C17.480 362.226 16.440 361.586 16.440 361.066C16.440 360.626 16.800 360.666 17.720 360.386C18.960 360.026 20.400 358.946 20.400 356.626C20.400 354.426 19 352.546 16.560 352.546C13.880 352.546 12.280 354.666 12.280 357.146C12.280 359.746 13.840 363.666 19.880 363.666C22.560 363.666 27.760 362.466 27.760 355.666C27.760 353.386 27.040 349.586 26.600 347.106C26.520 346.626 26.560 346.666 27.120 346.426C31.160 344.826 33.840 341.426 33.840 336.906C33.840 331.786 30.080 327.266 24.200 327.266C23.080 327.266 23.200 327.466 23.040 326.546L22.040 320.746C21.960 320.266 22.040 320.226 22.280 319.986C22.920 319.386 23.760 318.546 24.520 317.706C27.880 314.026 29.880 309.266 29.880 304.746C29.880 301.266 28.920 297.826 27.280 295.426C26.680 294.546 25.640 293.426 25.200 293.426M20.040 321.586C20.440 321.266 20.520 321.306 20.600 321.746L21.440 326.866C21.560 327.626 21.560 327.586 20.840 327.826C17.320 329.026 15.040 332.186 15.040 335.586C15.040 339.186 16.920 341.746 19.640 342.666C19.960 342.786 20.440 342.906 20.720 342.906C21.040 342.906 21.200 342.706 21.200 342.466C21.200 342.186 20.880 342.066 20.600 341.946C18.920 341.226 17.720 339.506 17.720 337.666C17.720 335.386 19.280 333.666 21.720 332.986C22.360 332.826 22.440 332.866 22.520 333.306L24.520 345.226C24.600 345.666 24.560 345.666 23.960 345.786C23.320 345.906 22.520 345.986 21.720 345.986C14.720 345.986 10.200 342.106 10.200 336.546C10.200 334.186 10.600 331.026 13.920 327.266C16.320 324.586 18.160 323.106 20.040 321.586M24.640 332.666C27.880 332.946 30.560 335.666 30.560 339.186C30.560 341.706 29.040 343.746 26.800 344.866C26.320 345.106 26.240 345.106 26.160 344.626L24.200 333.226C24.120 332.746 24.160 332.626 24.640 332.666M25.800 299.626C27.120 299.626 28.200 300.706 28.200 302.906C28.200 305.666 26.880 308.226 23.760 311.346C23.120 311.986 22.160 312.906 21.240 313.706C20.960 313.946 20.800 313.906 20.720 313.386C20.560 312.346 20.480 310.986 20.480 309.706C20.480 303.466 23.360 299.626 25.800 299.626"></path></g><g></g><text font-family='Alegreya' font-style='italic' text-anchor='end' stroke='#7a7a7a' font-size="24" x="0" y="297.3461538461538">15</text></g><g><line stroke="black" stroke-width="1.6" x1="235.76044057782158" x2="235.76044057782158" y1="307.3461538461538" y2="347.3461538461538"></line></g><g><path d="M143.370 321.706L143.370 318.026C143.370 317.426 142.890 316.986 142.330 316.986L133.130 316.986C132.530 316.986 132.090 317.426 132.090 318.026L132.090 321.706C132.090 322.266 132.530 322.746 133.130 322.746L142.330 322.746C142.890 322.746 143.370 322.266 143.370 321.706"></path></g></g><g transform="translate(345.40659442397543)"><g><g><g><path d="M7.880 307.426C7.680 307.426 7.480 307.386 7.280 307.386C3.840 307.386 0.400 309.666 0.400 311.786C0.400 313.106 1.160 314.866 3.640 315.026L3.840 315.026C5.600 315.026 6.480 313.746 6.480 312.426L6.480 312.106C6.360 310.626 5.360 310.546 5.160 310.466C4.960 310.386 4.360 310.466 4.360 309.906L4.360 309.746C4.440 309.066 5.680 308.746 6.040 308.746C9.440 308.746 9.760 310.866 9.760 311.826L9.760 312.106C9.760 315.066 7.400 316.226 4.880 316.346C4.480 316.386 3.920 316.586 3.920 317.026C3.920 317.506 4.600 317.506 4.920 317.506C9.520 317.506 9.880 320.626 9.880 321.146C9.880 325.386 7.720 325.866 6.840 325.866C6.680 325.866 6.520 325.826 6.480 325.826C6.160 325.786 5.400 325.786 5.360 325.186L5.360 324.986C5.360 324.106 6.240 323.506 6.280 322.346C6.280 321.946 6.240 321.506 6.080 321.106C5.640 320.106 4.480 319.466 3.400 319.466C3.240 319.466 3.120 319.466 2.960 319.506C2.280 319.626 1.520 320.026 1.040 320.546C0.360 321.146 0.160 322.106 0.160 322.986C0.240 326.106 3.080 327.306 7 327.386L7.360 327.386C11.320 327.386 15.400 325.346 15.400 321.826L15.400 321.546C15.360 320.986 15.280 320.426 15.040 319.906C14.880 319.506 14.600 319.106 14.280 318.746C14.040 318.426 13.720 318.146 13.320 317.906L12.480 317.426L11.160 317.066C10.960 317.026 10.840 317.026 10.760 316.866C10.720 316.786 10.720 316.746 10.720 316.666C10.720 316.506 10.760 316.346 10.880 316.306C11.320 316.186 11.760 316.146 12.120 315.946C12.720 315.666 13.240 315.386 13.680 314.866C14.320 314.146 14.560 313.226 14.560 312.306C14.560 308.626 9.560 307.546 7.880 307.426"></path><path d="M13.120 316.826C13.120 316.826 12.960 317.066 12.960 317.346C12.960 317.546 13.080 317.786 13.400 317.906C13.560 317.946 13.640 317.986 13.760 317.986C14.160 317.986 14.320 317.626 14.320 317.626C14.320 317.626 16.040 314.866 16.480 314.106C16.640 313.826 16.800 313.706 16.880 313.706C17.040 313.706 17.120 314.026 17.120 314.266L17.120 324.586C17.120 325.506 16.200 326.106 15.360 326.106C15.080 326.106 14.680 326.226 14.680 326.706C14.680 327.146 15.040 327.346 15.560 327.346L24.080 327.346C24.720 327.346 24.720 326.706 24.720 326.706C24.720 326.706 24.720 326.106 24.120 326.106C23.560 326.106 22.840 325.386 22.840 324.706C22.840 324.706 22.840 308.866 22.840 308.226C22.840 307.586 22.600 307.346 22.040 307.306C21.480 307.306 20.480 307.466 19.960 307.466C19.200 307.466 18.480 307.426 17.880 307.346C17.800 307.346 17.720 307.306 17.680 307.306C17.240 307.306 17.120 307.706 16.960 308.066"></path></g><g><path d="M19.320 335.906C20.760 334.986 21.720 333.666 21.720 331.666C21.720 327.586 15.840 326.986 14.760 326.986C10.120 326.986 6.960 329.106 6.960 332.466C6.960 335.226 8.520 336.706 10.440 337.786C8.360 338.786 6.760 340.106 6.760 342.626C6.760 346.106 10.360 347.706 14.320 347.706C18.320 347.706 22.600 345.986 22.600 340.586C22.600 338.186 21.200 336.866 19.320 335.906M14.160 346.386C11.480 346.386 9.040 345.026 9.040 342.426C9.040 340.826 10.440 339.346 12.200 338.666C15.120 339.946 18.080 340.786 18.080 343.426C18.080 345.026 16.840 346.386 14.160 346.386M17.240 334.986C14.040 333.866 10.640 333.186 10.640 330.666C10.640 328.986 12.920 328.146 14.680 328.146C15.960 328.146 19.360 328.786 19.360 331.586C19.360 333.186 18.560 334.226 17.240 334.986"></path></g></g></g><g><line stroke="black" stroke-width="1.6" x1="73.24146050961397" x2="73.24146050961397" y1="307.3461538461538" y2="347.3461538461538"></line></g><g><g><path d="M44.860 327.986C48.860 327.986 53.780 324.266 53.780 320.466C53.780 318.186 51.980 316.706 49.380 316.706C44.460 316.706 40.500 320.346 40.500 324.226C40.500 326.586 42.420 327.986 44.860 327.986"></path></g><line stroke="#000000" stroke-width="1.2" x1="41.1" x2="41.1" y1="324.1861538461538" y2="359.1861538461538"></line><path d="M50.100 326.266C50.700 329.626 50.700 333.266 49.180 336.386C46.420 341.986 43.180 342.106 40.700 342.186L40.500 342.186L40.500 358.026C40.500 358.026 40.940 358.066 41.180 358.066C41.420 358.066 41.900 357.986 41.980 357.546C42.940 351.386 50.820 349.666 51.780 343.386C51.860 342.946 51.900 342.466 51.900 341.946C51.900 339.506 51.020 337.106 50.900 336.866C50.860 336.786 50.860 336.706 50.860 336.586C50.860 336.426 50.900 336.346 50.900 336.226C52.340 333.226 52.380 329.306 51.740 326.106C51.540 325.186 51.260 325.226 50.780 325.226C50.300 325.266 49.980 325.586 50.100 326.266M49.540 339.466C49.740 339.466 50.020 339.586 50.060 339.746C50.260 340.026 50.260 340.426 50.340 340.746C50.380 341.026 50.380 341.306 50.380 341.546C50.380 342.866 50.020 344.066 49.300 345.106C47.980 347.066 45.420 349.306 42.980 349.306L42.660 349.306C42.340 349.306 42.100 349.106 42.100 348.906C42.100 348.866 42.100 348.826 42.140 348.786C42.980 345.506 45.220 344.586 47.100 342.386C47.940 341.466 48.620 340.666 49.260 339.626C49.340 339.506 49.420 339.466 49.540 339.466"></path></g></g><g transform="translate(434.44805493358933)"><g></g><g><line stroke="black" stroke-width="1.6" x1="245.9010521417523" x2="245.9010521417523" y1="307.3461538461538" y2="347.3461538461538"></line></g><g><path d="M119.891 321.706L119.891 318.026C119.891 317.426 119.411 316.986 118.851 316.986L109.651 316.986C109.051 316.986 108.611 317.426 108.611 318.026L108.611 321.706C108.611 322.266 109.051 322.746 109.651 322.746L118.851 322.746C119.411 322.746 119.891 322.266 119.891 321.706"></path></g></g><g transform="translate(696.1491070753416)"><g><g><g><path d="M16.360 320.986C16.360 320.506 16.160 320.426 15.880 320.426C15.560 320.426 15.440 320.586 15.360 320.826C15.360 320.866 15.320 320.906 15.320 320.946C14.920 321.906 14.600 322.666 13.760 322.666C13.560 322.666 13.360 322.626 13.080 322.546C12.560 322.346 12.280 322.306 11.880 322.106C11.080 321.786 9.200 321.146 7.560 321.146C7.040 321.146 6.520 321.226 6.080 321.386C6.960 319.946 10.360 318.746 11.240 318.506C11.840 318.346 13.520 318.026 14.840 316.946C15.800 316.186 16.560 315.026 16.560 313.266C16.560 311.386 15.760 310.026 14.720 309.146C12.680 307.426 9.560 307.186 8.680 307.186C7.600 307.186 6.240 307.226 5.200 307.466C3.800 307.746 2.400 308.586 1.440 309.706C0.760 310.546 0.320 311.546 0.320 312.626C0.320 313.186 0.440 313.746 0.680 314.346C1.280 315.586 2.520 316.546 3.960 316.546C6.400 316.546 6.760 314.026 6.760 313.026C6.760 310.626 4 310.506 4 309.706C4.080 309.146 4.800 308.186 7.160 308.186C10.720 308.186 10.760 310.866 10.760 312.026C10.760 313.546 10.280 314.946 9.400 316.106C7.960 318.026 6.840 318.986 4.880 320.186C2.680 321.586 1.120 323.546 0.440 326.066C0.440 326.146 0.400 326.226 0.400 326.306C0.400 326.746 0.680 327.266 1.120 327.546C1.240 327.626 1.360 327.626 1.440 327.626C2.320 327.626 2.800 325.186 5.160 325.186C6.760 325.186 7.360 327.346 10.920 327.346C12.640 327.346 15.720 327.186 16.360 320.986"></path></g><g><path d="M16.360 340.986C16.360 340.506 16.160 340.426 15.880 340.426C15.560 340.426 15.440 340.586 15.360 340.826C15.360 340.866 15.320 340.906 15.320 340.946C14.920 341.906 14.600 342.666 13.760 342.666C13.560 342.666 13.360 342.626 13.080 342.546C12.560 342.346 12.280 342.306 11.880 342.106C11.080 341.786 9.200 341.146 7.560 341.146C7.040 341.146 6.520 341.226 6.080 341.386C6.960 339.946 10.360 338.746 11.240 338.506C11.840 338.346 13.520 338.026 14.840 336.946C15.800 336.186 16.560 335.026 16.560 333.266C16.560 331.386 15.760 330.026 14.720 329.146C12.680 327.426 9.560 327.186 8.680 327.186C7.600 327.186 6.240 327.226 5.200 327.466C3.800 327.746 2.400 328.586 1.440 329.706C0.760 330.546 0.320 331.546 0.320 332.626C0.320 333.186 0.440 333.746 0.680 334.346C1.280 335.586 2.520 336.546 3.960 336.546C6.400 336.546 6.760 334.026 6.760 333.026C6.760 330.626 4 330.506 4 329.706C4.080 329.146 4.800 328.186 7.160 328.186C10.720 328.186 10.760 330.866 10.760 332.026C10.760 333.546 10.280 334.946 9.400 336.106C7.960 338.026 6.840 338.986 4.880 340.186C2.680 341.586 1.120 343.546 0.440 346.066C0.440 346.146 0.400 346.226 0.400 346.306C0.400 346.746 0.680 347.266 1.120 347.546C1.240 347.626 1.360 347.626 1.440 347.626C2.320 347.626 2.800 345.186 5.160 345.186C6.760 345.186 7.360 347.346 10.920 347.346C12.640 347.346 15.720 347.186 16.360 340.986"></path></g></g></g><g><line stroke="black" stroke-width="1.6" x1="222.17580445514963" x2="222.17580445514963" y1="307.3461538461538" y2="347.3461538461538"></line><line stroke="black" stroke-width="5" x1="229.4758044551496" x2="229.4758044551496" y1="307.3461538461538" y2="347.3461538461538"></line></g><g><g><path d="M49.900 316.866C44.100 316.866 40.500 319.306 40.500 322.266C40.500 325.186 42.980 327.786 49.460 327.786C56.580 327.786 58.860 325.306 58.860 322.266C58.860 319.186 53.940 316.866 49.900 316.866M45.340 319.586C45.820 318.106 47.420 317.866 48.780 317.866C51.740 317.866 54.140 321.066 54.140 323.706C54.140 323.986 54.100 324.266 54.060 324.506C53.860 325.586 53.220 326.346 52.140 326.626C51.700 326.746 51.260 326.786 50.820 326.786C50.420 326.786 50.060 326.746 49.660 326.626C48.940 326.386 48.220 325.986 47.620 325.466C47.300 325.186 46.980 324.866 46.700 324.506C45.860 323.506 45.180 322.026 45.180 320.666C45.180 320.306 45.220 319.946 45.340 319.586"></path></g></g></g></svg>