<?xml version="1.0" encoding="UTF-8" standalone="no"?><svg xmlns="http://www.w3.org/2000/svg" height="279.4mm" viewBox="0 0 1328.6153846153845 1719.3846153846152" width="215.9mm"><g transform="translate(163.84615384615387)"><g><g><line stroke="#6A6A6A" stroke-width="1.3" x1="0" x2="972.2859147585195" y1="216.3461538461538" y2="216.3461538461538"></line><line stroke="#6A6A6A" stroke-width="1.3" x1="0" x2="972.2859147585195" y1="206.3461538461538" y2="206.3461538461538"></line><line stroke="#6A6A6A" stroke-width="1.3" x1="0" x2="972.2859147585195" y1="196.3461538461538" y2="196.3461538461538"></line><line stroke="#6A6A6A" stroke-width="1.3" x1="0" x2="972.2859147585195" y1="186.3461538461538" y2="186.3461538461538"></line><line stroke="#6A6A6A" stroke-width="1.3" x1="0" x2="972.2859147585195" y1="176.3461538461538" y2="176.3461538461538"></line></g><g><path d="M25.200 162.426C24.640 162.426 23.400 163.466 22.600 164.346C19.640 167.626 18.680 172.626 18.680 176.786C18.680 179.106 18.960 181.706 19.240 183.346C19.320 183.826 19.360 183.906 18.880 184.306C16.320 186.426 13.560 188.866 11.480 191.426C8.720 194.866 7 198.586 7 202.866C7 209.826 11.760 216.426 21.560 216.426C22.480 216.426 23.520 216.346 24.320 216.186C24.760 216.106 24.840 216.066 24.920 216.546C25.400 219.226 26 222.706 26 224.586C26 230.506 22 231.226 19.640 231.226C17.480 231.226 16.440 230.586 16.440 230.066C16.440 229.626 16.800 229.666 17.720 229.386C18.960 229.026 20.400 227.946 20.400 225.626C20.400 223.426 19 221.546 16.560 221.546C13.880 221.546 12.280 223.666 12.280 226.146C12.280 228.746 13.840 232.666 19.880 232.666C22.560 232.666 27.760 231.466 27.760 224.666C27.760 222.386 27.040 218.586 26.600 216.106C26.520 215.626 26.560 215.666 27.120 215.426C31.160 213.826 33.840 210.426 33.840 205.906C33.840 200.786 30.080 196.266 24.200 196.266C23.080 196.266 23.200 196.466 23.040 195.546L22.040 189.746C21.960 189.266 22.040 189.226 22.280 188.986C22.920 188.386 23.760 187.546 24.520 186.706C27.880 183.026 29.880 178.266 29.880 173.746C29.880 170.266 28.920 166.826 27.280 164.426C26.680 163.546 25.640 162.426 25.200 162.426M20.040 190.586C20.440 190.266 20.520 190.306 20.600 190.746L21.440 195.866C21.560 196.626 21.560 196.586 20.840 196.826C17.320 198.026 15.040 201.186 15.040 204.586C15.040 208.186 16.920 210.746 19.640 211.666C19.960 211.786 20.440 211.906 20.720 211.906C21.040 211.906 21.200 211.706 21.200 211.466C21.200 211.186 20.880 211.066 20.600 210.946C18.920 210.226 17.720 208.506 17.720 206.666C17.720 204.386 19.280 202.666 21.720 201.986C22.360 201.826 22.440 201.866 22.520 202.306L24.520 214.226C24.600 214.666 24.560 214.666 23.960 214.786C23.320 214.906 22.520 214.986 21.720 214.986C14.720 214.986 10.200 211.106 10.200 205.546C10.200 203.186 10.600 200.026 13.920 196.266C16.320 193.586 18.160 192.106 20.040 190.586M24.640 201.666C27.880 201.946 30.560 204.666 30.560 208.186C30.560 210.706 29.040 212.746 26.800 213.866C26.320 214.106 26.240 214.106 26.160 213.626L24.200 202.226C24.120 201.746 24.160 201.626 24.640 201.666M25.800 168.626C27.120 168.626 28.200 169.706 28.200 171.906C28.200 174.666 26.880 177.226 23.760 180.346C23.120 180.986 22.160 181.906 21.240 182.706C20.960 182.946 20.800 182.906 20.720 182.386C20.560 181.346 20.480 179.986 20.480 178.706C20.480 172.466 23.360 168.626 25.800 168.626"></path></g><g></g><g><g><path d="M65.180 189.306L62.260 189.306L62.260 180.746C62.260 180.426 62.220 180.066 61.780 180.066C61.420 180.066 61.220 180.146 60.980 180.426L57.180 185.026C57.020 185.226 56.820 185.466 56.820 185.946C56.820 185.946 56.820 187.546 56.820 189.306L51.420 189.306C54.620 186.586 61.020 177.506 61.140 177.066C61.140 176.986 61.180 176.946 61.180 176.866C61.180 176.546 60.900 176.306 60.580 176.306C60.220 176.306 58.580 176.386 57.860 176.386C57.140 176.386 55.340 176.306 55.020 176.306C54.660 176.306 54.100 176.426 54.100 177.066C54.100 182.026 50.180 187.586 48.980 189.266L48.740 189.586C48.740 189.626 48.700 189.666 48.700 189.706C48.620 189.866 48.580 190.026 48.580 190.146C48.580 190.546 48.900 190.826 49.380 190.826L56.820 190.826L56.820 193.346C56.820 194.426 55.940 194.746 55.220 194.746C54.580 194.746 54.300 195.106 54.300 195.506C54.300 195.906 54.460 196.346 55.060 196.346C55.700 196.346 63.580 196.346 63.580 196.346C63.980 196.346 64.380 196.066 64.380 195.506C64.380 194.946 63.900 194.706 63.500 194.706C63.100 194.706 62.260 194.466 62.260 193.186L62.260 190.826C63.980 190.826 65.180 190.826 65.180 190.826C65.580 190.826 65.780 190.546 65.780 190.066C65.780 189.586 65.620 189.306 65.180 189.306"></path></g><g><path d="M65.180 209.306L62.260 209.306L62.260 200.746C62.260 200.426 62.220 200.066 61.780 200.066C61.420 200.066 61.220 200.146 60.980 200.426L57.180 205.026C57.020 205.226 56.820 205.466 56.820 205.946C56.820 205.946 56.820 207.546 56.820 209.306L51.420 209.306C54.620 206.586 61.020 197.506 61.140 197.066C61.140 196.986 61.180 196.946 61.180 196.866C61.180 196.546 60.900 196.306 60.580 196.306C60.220 196.306 58.580 196.386 57.860 196.386C57.140 196.386 55.340 196.306 55.020 196.306C54.660 196.306 54.100 196.426 54.100 197.066C54.100 202.026 50.180 207.586 48.980 209.266L48.740 209.586C48.740 209.626 48.700 209.666 48.700 209.706C48.620 209.866 48.580 210.026 48.580 210.146C48.580 210.546 48.900 210.826 49.380 210.826L56.820 210.826L56.820 213.346C56.820 214.426 55.940 214.746 55.220 214.746C54.580 214.746 54.300 215.106 54.300 215.506C54.300 215.906 54.460 216.346 55.060 216.346C55.700 216.346 63.580 216.346 63.580 216.346C63.980 216.346 64.380 216.066 64.380 215.506C64.380 214.946 63.900 214.706 63.500 214.706C63.100 214.706 62.260 214.466 62.260 213.186L62.260 210.826C63.980 210.826 65.180 210.826 65.180 210.826C65.580 210.826 65.780 210.546 65.780 210.066C65.780 209.586 65.620 209.306 65.180 209.306"></path></g></g><g><path d="M-13.200 296.926C-12.040 296.206-10.720 293.366-10.720 291.006C-10.720 290.806-10.720 290.566-10.760 290.366C-11.040 287.966-12.240 284.246-12.240 282.086C-12.240 280.006-11.320 278.006-11.120 277.646C-10.960 277.486-10.920 277.366-10.920 277.246C-10.920 277.166-10.960 277.086-11 277.086C-11.040 277.046-11.080 276.966-11.160 276.966C-11.240 276.966-11.320 277.046-11.480 277.246C-12.360 278.326-13.440 280.646-13.440 284.646C-13.440 288.606-12.040 290.206-12.040 292.726C-12.040 294.606-12.800 295.646-13.920 296.926C-13.200 297.726-12.040 298.366-12.040 300.966C-12.040 303.766-13.440 306.246-13.440 309.166C-13.440 313.166-12.360 315.486-11.480 316.606C-11.320 316.806-11.240 316.846-11.160 316.846C-11.080 316.846-11.040 316.806-11 316.766C-10.960 316.726-10.920 316.686-10.920 316.606C-10.920 316.486-10.960 316.366-11.120 316.166C-11.320 315.846-12.240 313.846-12.240 311.726C-12.240 309.606-11.040 305.846-10.760 303.486C-10.720 303.286-10.720 303.086-10.720 302.846C-10.720 300.486-12.040 297.646-13.200 296.926"></path><line stroke="#000000" stroke-width="1.6" x1="0" x2="0" y1="175.8461538461538" y2="316.8461538461538"></line></g></g><g><line stroke="black" stroke-width="1.6" x1="962.4859147585196" x2="962.4859147585196" y1="175.8461538461538" y2="316.8461538461538"></line><line stroke="black" stroke-width="5" x1="969.7859147585197" x2="969.7859147585197" y1="175.8461538461538" y2="316.8461538461538"></line></g><g><g><line stroke="#6A6A6A" stroke-width="1.3" x1="0" x2="972.2859147585195" y1="316.3461538461538" y2="316.3461538461538"></line><line stroke="#6A6A6A" stroke-width="1.3" x1="0" x2="972.2859147585195" y1="306.3461538461538" y2="306.3461538461538"></line><line stroke="#6A6A6A" stroke-width="1.3" x1="0" x2="972.2859147585195" y1="296.3461538461538" y2="296.3461538461538"></line><line stroke="#6A6A6A" stroke-width="1.3" x1="0" x2="972.2859147585195" y1="286.3461538461538" y2="286.3461538461538"></line><line stroke="#6A6A6A" stroke-width="1.3" x1="0" x2="972.2859147585195" y1="276.3461538461538" y2="276.3461538461538"></line></g><g><path d="M25.200 262.426C24.640 262.426 23.400 263.466 22.600 264.346C19.640 267.626 18.680 272.626 18.680 276.786C18.680 279.106 18.960 281.706 19.240 283.346C19.320 283.826 19.360 283.906 18.880 284.306C16.320 286.426 13.560 288.866 11.480 291.426C8.720 294.866 7 298.586 7 302.866C7 309.826 11.760 316.426 21.560 316.426C22.480 316.426 23.520 316.346 24.320 316.186C24.760 316.106 24.840 316.066 24.920 316.546C25.400 319.226 26 322.706 26 324.586C26 330.506 22 331.226 19.640 331.226C17.480 331.226 16.440 330.586 16.440 330.066C16.440 329.626 16.800 329.666 17.720 329.386C18.960 329.026 20.400 327.946 20.400 325.626C20.400 323.426 19 321.546 16.560 321.546C13.880 321.546 12.280 323.666 12.280 326.146C12.280 328.746 13.840 332.666 19.880 332.666C22.560 332.666 27.760 331.466 27.760 324.666C27.760 322.386 27.040 318.586 26.600 316.106C26.520 315.626 26.560 315.666 27.120 315.426C31.160 313.826 33.840 310.426 33.840 305.906C33.840 300.786 30.080 296.266 24.200 296.266C23.080 296.266 23.200 296.466 23.040 295.546L22.040 289.746C21.960 289.266 22.040 289.226 22.280 288.986C22.920 288.386 23.760 287.546 24.520 286.706C27.880 283.026 29.880 278.266 29.880 273.746C29.880 270.266 28.920 266.826 27.280 264.426C26.680 263.546 25.640 262.426 25.200 262.426M20.040 290.586C20.440 290.266 20.520 290.306 20.600 290.746L21.440 295.866C21.560 296.626 21.560 296.586 20.840 296.826C17.320 298.026 15.040 301.186 15.040 304.586C15.040 308.186 16.920 310.746 19.640 311.666C19.960 311.786 20.440 311.906 20.720 311.906C21.040 311.906 21.200 311.706 21.200 311.466C21.200 311.186 20.880 311.066 20.600 310.946C18.920 310.226 17.720 308.506 17.720 306.666C17.720 304.386 19.280 302.666 21.720 301.986C22.360 301.826 22.440 301.866 22.520 302.306L24.520 314.226C24.600 314.666 24.560 314.666 23.960 314.786C23.320 314.906 22.520 314.986 21.720 314.986C14.720 314.986 10.200 311.106 10.200 305.546C10.200 303.186 10.600 300.026 13.920 296.266C16.320 293.586 18.160 292.106 20.040 290.586M24.640 301.666C27.880 301.946 30.560 304.666 30.560 308.186C30.560 310.706 29.040 312.746 26.800 313.866C26.320 314.106 26.240 314.106 26.160 313.626L24.200 302.226C24.120 301.746 24.160 301.626 24.640 301.666M25.800 268.626C27.120 268.626 28.200 269.706 28.200 271.906C28.200 274.666 26.880 277.226 23.760 280.346C23.120 280.986 22.160 281.906 21.240 282.706C20.960 282.946 20.800 282.906 20.720 282.386C20.560 281.346 20.480 279.986 20.480 278.706C20.480 272.466 23.360 268.626 25.800 268.626"></path></g><g></g><g><g><path d="M65.180 289.306L62.260 289.306L62.260 280.746C62.260 280.426 62.220 280.066 61.780 280.066C61.420 280.066 61.220 280.146 60.980 280.426L57.180 285.026C57.020 285.226 56.820 285.466 56.820 285.946C56.820 285.946 56.820 287.546 56.820 289.306L51.420 289.306C54.620 286.586 61.020 277.506 61.140 277.066C61.140 276.986 61.180 276.946 61.180 276.866C61.180 276.546 60.900 276.306 60.580 276.306C60.220 276.306 58.580 276.386 57.860 276.386C57.140 276.386 55.340 276.306 55.020 276.306C54.660 276.306 54.100 276.426 54.100 277.066C54.100 282.026 50.180 287.586 48.980 289.266L48.740 289.586C48.740 289.626 48.700 289.666 48.700 289.706C48.620 289.866 48.580 290.026 48.580 290.146C48.580 290.546 48.900 290.826 49.380 290.826L56.820 290.826L56.820 293.346C56.820 294.426 55.940 294.746 55.220 294.746C54.580 294.746 54.300 295.106 54.300 295.506C54.300 295.906 54.460 296.346 55.060 296.346C55.700 296.346 63.580 296.346 63.580 296.346C63.980 296.346 64.380 296.066 64.380 295.506C64.380 294.946 63.900 294.706 63.500 294.706C63.100 294.706 62.260 294.466 62.260 293.186L62.260 290.826C63.980 290.826 65.180 290.826 65.180 290.826C65.580 290.826 65.780 290.546 65.780 290.066C65.780 289.586 65.620 289.306 65.180 289.306"></path></g><g><path d="M65.180 309.306L62.260 309.306L62.260 300.746C62.260 300.426 62.220 300.066 61.780 300.066C61.420 300.066 61.220 300.146 60.980 300.426L57.180 305.026C57.020 305.226 56.820 305.466 56.820 305.946C56.820 305.946 56.820 307.546 56.820 309.306L51.420 309.306C54.620 306.586 61.020 297.506 61.140 297.066C61.140 296.986 61.180 296.946 61.180 296.866C61.180 296.546 60.900 296.306 60.580 296.306C60.220 296.306 58.580 296.386 57.860 296.386C57.140 296.386 55.340 296.306 55.020 296.306C54.660 296.306 54.100 296.426 54.100 297.066C54.100 302.026 50.180 307.586 48.980 309.266L48.740 309.586C48.740 309.626 48.700 309.666 48.700 309.706C48.620 309.866 48.580 310.026 48.580 310.146C48.580 310.546 48.900 310.826 49.380 310.826L56.820 310.826L56.820 313.346C56.820 314.426 55.940 314.746 55.220 314.746C54.580 314.746 54.300 315.106 54.300 315.506C54.300 315.906 54.460 316.346 55.060 316.346C55.700 316.346 63.580 316.346 63.580 316.346C63.980 316.346 64.380 316.066 64.380 315.506C64.380 314.946 63.900 314.706 63.500 314.706C63.100 314.706 62.260 314.466 62.260 313.186L62.260 310.826C63.980 310.826 65.180 310.826 65.180 310.826C65.580 310.826 65.780 310.546 65.780 310.066C65.780 309.586 65.620 309.306 65.180 309.306"></path></g></g></g><g><line stroke="black" stroke-width="1.6" x1="962.4859147585196" x2="962.4859147585196" y1="175.8461538461538" y2="316.8461538461538"></line><line stroke="black" stroke-width="5" x1="969.7859147585197" x2="969.7859147585197" y1="175.8461538461538" y2="316.8461538461538"></line></g><g><g><path d="M93.360 216.986C97.360 216.986 102.280 213.266 102.280 209.466C102.280 207.186 100.480 205.706 97.880 205.706C92.960 205.706 89 209.346 89 213.226C89 215.586 90.920 216.986 93.360 216.986"></path></g><line stroke="#000000" stroke-width="1.2" x1="101.68" x2="101.68" y1="209.5061538461538" y2="174.5061538461538"></line></g><g><g><path d="M261.303 211.986C265.303 211.986 270.223 208.266 270.223 204.466C270.223 202.186 268.423 200.706 265.823 200.706C260.903 200.706 256.943 204.346 256.943 208.226C256.943 210.586 258.863 211.986 261.303 211.986"></path></g><line stroke="#000000" stroke-width="1.2" x1="269.62306060108074" x2="269.62306060108074" y1="204.5061538461538" y2="169.5061538461538"></line></g><g><g><path d="M465.705 206.986C469.705 206.986 474.625 203.266 474.625 199.466C474.625 197.186 472.825 195.706 470.225 195.706C465.305 195.706 461.345 199.346 461.345 203.226C461.345 205.586 463.265 206.986 465.705 206.986"></path></g><line stroke="#000000" stroke-width="1.2" x1="474.02540413633295" x2="474.02540413633295" y1="199.5061538461538" y2="164.5061538461538"></line></g><g><g><path d="M615.044 201.986C619.044 201.986 623.964 198.266 623.964 194.466C623.964 192.186 622.164 190.706 619.564 190.706C614.644 190.706 610.684 194.346 610.684 198.226C610.684 200.586 612.604 201.986 615.044 201.986"></path></g><line stroke="#000000" stroke-width="1.2" x1="611.2842486606345" x2="611.2842486606345" y1="198.18615384615381" y2="233.18615384615381"></line></g><g><g><path d="M801.806 196.986C805.806 196.986 810.726 193.266 810.726 189.466C810.726 187.186 808.926 185.706 806.326 185.706C801.406 185.706 797.446 189.346 797.446 193.226C797.446 195.586 799.366 196.986 801.806 196.986"></path></g><line stroke="#000000" stroke-width="1.2" x1="798.0464211785714" x2="798.0464211785714" y1="193.18615384615381" y2="228.18615384615381"></line></g><g><g><path d="M93.360 376.986C97.360 376.986 102.280 373.266 102.280 369.466C102.280 367.186 100.480 365.706 97.880 365.706C92.960 365.706 89 369.346 89 373.226C89 375.586 90.920 376.986 93.360 376.986"></path></g><line stroke="#000000" stroke-width="1.2" x1="101.68" x2="101.68" y1="369.50615384615384" y2="334.50615384615384"></line><line stroke="#000000" stroke-width="2.2" x1="85.8" x2="107.72" y1="326.3461538461538" y2="326.3461538461538"></line><line stroke="#000000" stroke-width="2.2" x1="85.8" x2="107.72" y1="336.3461538461538" y2="336.3461538461538"></line><line stroke="#000000" stroke-width="2.2" x1="85.8" x2="107.72" y1="346.3461538461538" y2="346.3461538461538"></line><line stroke="#000000" stroke-width="2.2" x1="85.8" x2="107.72" y1="356.3461538461538" y2="356.3461538461538"></line><line stroke="#000000" stroke-width="2.2" x1="85.8" x2="107.72" y1="366.3461538461538" y2="366.3461538461538"></line><g><polygon fill="black" points="101.68,339.3461538461538 185.65153030054037,334.3461538461538 185.65153030054037,329.3461538461538 101.68,334.3461538461538" stroke="black" stroke-width="0"></polygon></g></g><g><g><path d="M177.332 371.986C181.332 371.986 186.252 368.266 186.252 364.466C186.252 362.186 184.452 360.706 181.852 360.706C176.932 360.706 172.972 364.346 172.972 368.226C172.972 370.586 174.892 371.986 177.332 371.986"></path></g><line stroke="#000000" stroke-width="1.2" x1="185.65153030054037" x2="185.65153030054037" y1="364.50615384615384" y2="329.50615384615384"></line><line stroke="#000000" stroke-width="2.2" x1="169.77153030054038" x2="191.69153030054036" y1="326.3461538461538" y2="326.3461538461538"></line><line stroke="#000000" stroke-width="2.2" x1="169.77153030054038" x2="191.69153030054036" y1="336.3461538461538" y2="336.3461538461538"></line><line stroke="#000000" stroke-width="2.2" x1="169.77153030054038" x2="191.69153030054036" y1="346.3461538461538" y2="346.3461538461538"></line><line stroke="#000000" stroke-width="2.2" x1="169.77153030054038" x2="191.69153030054036" y1="356.3461538461538" y2="356.3461538461538"></line><line stroke="#000000" stroke-width="2.2" x1="169.77153030054038" x2="191.69153030054036" y1="366.3461538461538" y2="366.3461538461538"></line></g><g><g><path d="M261.303 366.986C265.303 366.986 270.223 363.266 270.223 359.466C270.223 357.186 268.423 355.706 265.823 355.706C260.903 355.706 256.943 359.346 256.943 363.226C256.943 365.586 258.863 366.986 261.303 366.986"></path></g><line stroke="#000000" stroke-width="1.2" x1="269.62306060108074" x2="269.62306060108074" y1="359.50615384615384" y2="324.50615384615384"></line><line stroke="#000000" stroke-width="2.2" x1="253.74306060108074" x2="275.66306060108076" y1="326.3461538461538" y2="326.3461538461538"></line><line stroke="#000000" stroke-width="2.2" x1="253.74306060108074" x2="275.66306060108076" y1="336.3461538461538" y2="336.3461538461538"></line><line stroke="#000000" stroke-width="2.2" x1="253.74306060108074" x2="275.66306060108076" y1="346.3461538461538" y2="346.3461538461538"></line><line stroke="#000000" stroke-width="2.2" x1="253.74306060108074" x2="275.66306060108076" y1="356.3461538461538" y2="356.3461538461538"></line><g><polygon fill="black" points="269.62306060108074,329.3461538461538 337.7571751128314,324.3461538461538 337.7571751128314,319.3461538461538 269.62306060108074,324.3461538461538" stroke="black" stroke-width="0"></polygon><polygon fill="black" points="337.7571751128314,324.3461538461538 405.8912896245822,319.3461538461538 405.8912896245822,314.3461538461538 337.7571751128314,319.3461538461538" stroke="black" stroke-width="0"></polygon></g></g><g><g><path d="M329.437 361.986C333.437 361.986 338.357 358.266 338.357 354.466C338.357 352.186 336.557 350.706 333.957 350.706C329.037 350.706 325.077 354.346 325.077 358.226C325.077 360.586 326.997 361.986 329.437 361.986"></path></g><line stroke="#000000" stroke-width="1.2" x1="337.7571751128315" x2="337.7571751128315" y1="354.50615384615384" y2="319.50615384615384"></line><line stroke="#000000" stroke-width="2.2" x1="321.8771751128315" x2="343.7971751128315" y1="326.3461538461538" y2="326.3461538461538"></line><line stroke="#000000" stroke-width="2.2" x1="321.8771751128315" x2="343.7971751128315" y1="336.3461538461538" y2="336.3461538461538"></line><line stroke="#000000" stroke-width="2.2" x1="321.8771751128315" x2="343.7971751128315" y1="346.3461538461538" y2="346.3461538461538"></line><line stroke="#000000" stroke-width="2.2" x1="321.8771751128315" x2="343.7971751128315" y1="356.3461538461538" y2="356.3461538461538"></line></g><g><g><path d="M397.571 356.986C401.571 356.986 406.491 353.266 406.491 349.466C406.491 347.186 404.691 345.706 402.091 345.706C397.171 345.706 393.211 349.346 393.211 353.226C393.211 355.586 395.131 356.986 397.571 356.986"></path></g><line stroke="#000000" stroke-width="1.2" x1="405.89128962458227" x2="405.89128962458227" y1="349.50615384615384" y2="314.50615384615384"></line><line stroke="#000000" stroke-width="2.2" x1="390.0112896245823" x2="411.9312896245823" y1="326.3461538461538" y2="326.3461538461538"></line><line stroke="#000000" stroke-width="2.2" x1="390.0112896245823" x2="411.9312896245823" y1="336.3461538461538" y2="336.3461538461538"></line><line stroke="#000000" stroke-width="2.2" x1="390.0112896245823" x2="411.9312896245823" y1="346.3461538461538" y2="346.3461538461538"></line></g><g><g><path d="M465.705 376.986C469.705 376.986 474.625 373.266 474.625 369.466C474.625 367.186 472.825 365.706 470.225 365.706C465.305 365.706 461.345 369.346 461.345 373.226C461.345 375.586 463.265 376.986 465.705 376.986"></path></g><line stroke="#000000" stroke-width="1.2" x1="474.02540413633295" x2="474.02540413633295" y1="369.50615384615384" y2="334.50615384615384"></line><line stroke="#000000" stroke-width="2.2" x1="458.14540413633296" x2="480.065404136333" y1="326.3461538461538" y2="326.3461538461538"></line><line stroke="#000000" stroke-width="2.2" x1="458.14540413633296" x2="480.065404136333" y1="336.3461538461538" y2="336.3461538461538"></line><line stroke="#000000" stroke-width="2.2" x1="458.14540413633296" x2="480.065404136333" y1="346.3461538461538" y2="346.3461538461538"></line><line stroke="#000000" stroke-width="2.2" x1="458.14540413633296" x2="480.065404136333" y1="356.3461538461538" y2="356.3461538461538"></line><line stroke="#000000" stroke-width="2.2" x1="458.14540413633296" x2="480.065404136333" y1="366.3461538461538" y2="366.3461538461538"></line><g><polygon fill="black" points="474.0254041363329,339.3461538461538 530.9226933201096,335.0157190075148 530.9226933201096,330.0157190075148 474.0254041363329,334.3461538461538" stroke="black" stroke-width="0"></polygon><polygon fill="black" points="530.9226933201096,335.0157190075148 587.8199825038863,330.6852841688758 587.8199825038863,325.6852841688758 530.9226933201096,330.0157190075148" stroke="black" stroke-width="0"></polygon><polygon fill="black" points="587.8199825038863,330.6852841688758 671.1093852048205,324.3461538461538 671.1093852048205,319.3461538461538 587.8199825038863,325.6852841688758" stroke="black" stroke-width="0"></polygon></g></g><g><g><path d="M522.603 371.986C526.603 371.986 531.523 368.266 531.523 364.466C531.523 362.186 529.723 360.706 527.123 360.706C522.203 360.706 518.243 364.346 518.243 368.226C518.243 370.586 520.163 371.986 522.603 371.986"></path></g><line stroke="#000000" stroke-width="1.2" x1="530.9226933201096" x2="530.9226933201096" y1="364.50615384615384" y2="330.17571900751483"></line><line stroke="#000000" stroke-width="2.2" x1="515.0426933201096" x2="536.9626933201096" y1="326.3461538461538" y2="326.3461538461538"></line><line stroke="#000000" stroke-width="2.2" x1="515.0426933201096" x2="536.9626933201096" y1="336.3461538461538" y2="336.3461538461538"></line><line stroke="#000000" stroke-width="2.2" x1="515.0426933201096" x2="536.9626933201096" y1="346.3461538461538" y2="346.3461538461538"></line><line stroke="#000000" stroke-width="2.2" x1="515.0426933201096" x2="536.9626933201096" y1="356.3461538461538" y2="356.3461538461538"></line><line stroke="#000000" stroke-width="2.2" x1="515.0426933201096" x2="536.9626933201096" y1="366.3461538461538" y2="366.3461538461538"></line></g><g><g><path d="M579.500 366.986C583.500 366.986 588.420 363.266 588.420 359.466C588.420 357.186 586.620 355.706 584.020 355.706C579.100 355.706 575.140 359.346 575.140 363.226C575.140 365.586 577.060 366.986 579.500 366.986"></path></g><line stroke="#000000" stroke-width="1.2" x1="587.8199825038863" x2="587.8199825038863" y1="359.50615384615384" y2="325.8452841688758"></line><line stroke="#000000" stroke-width="2.2" x1="571.9399825038863" x2="593.8599825038863" y1="326.3461538461538" y2="326.3461538461538"></line><line stroke="#000000" stroke-width="2.2" x1="571.9399825038863" x2="593.8599825038863" y1="336.3461538461538" y2="336.3461538461538"></line><line stroke="#000000" stroke-width="2.2" x1="571.9399825038863" x2="593.8599825038863" y1="346.3461538461538" y2="346.3461538461538"></line><line stroke="#000000" stroke-width="2.2" x1="571.9399825038863" x2="593.8599825038863" y1="356.3461538461538" y2="356.3461538461538"></line></g><g><g><path d="M662.789 361.986C666.789 361.986 671.709 358.266 671.709 354.466C671.709 352.186 669.909 350.706 667.309 350.706C662.389 350.706 658.429 354.346 658.429 358.226C658.429 360.586 660.349 361.986 662.789 361.986"></path></g><line stroke="#000000" stroke-width="1.2" x1="671.1093852048205" x2="671.1093852048205" y1="354.50615384615384" y2="319.50615384615384"></line><line stroke="#000000" stroke-width="2.2" x1="655.2293852048205" x2="677.1493852048204" y1="326.3461538461538" y2="326.3461538461538"></line><line stroke="#000000" stroke-width="2.2" x1="655.2293852048205" x2="677.1493852048204" y1="336.3461538461538" y2="336.3461538461538"></line><line stroke="#000000" stroke-width="2.2" x1="655.2293852048205" x2="677.1493852048204" y1="346.3461538461538" y2="346.3461538461538"></line><line stroke="#000000" stroke-width="2.2" x1="655.2293852048205" x2="677.1493852048204" y1="356.3461538461538" y2="356.3461538461538"></line></g><g><g><path d="M719.687 356.986C723.687 356.986 728.607 353.266 728.607 349.466C728.607 347.186 726.807 345.706 724.207 345.706C719.287 345.706 715.327 349.346 715.327 353.226C715.327 355.586 717.247 356.986 719.687 356.986"></path></g><line stroke="#000000" stroke-width="1.2" x1="728.0066743885972" x2="728.0066743885972" y1="349.50615384615384" y2="314.50615384615384"></line><line stroke="#000000" stroke-width="2.2" x1="712.1266743885972" x2="734.0466743885971" y1="326.3461538461538" y2="326.3461538461538"></line><line stroke="#000000" stroke-width="2.2" x1="712.1266743885972" x2="734.0466743885971" y1="336.3461538461538" y2="336.3461538461538"></line><line stroke="#000000" stroke-width="2.2" x1="712.1266743885972" x2="734.0466743885971" y1="346.3461538461538" y2="346.3461538461538"></line><g><polygon fill="black" points="728.0066743885972,319.3461538461538 769.0665477835843,314.3461538461538 769.0665477835843,309.3461538461538 728.0066743885972,314.3461538461538" stroke="black" stroke-width="0"></polygon><polygon fill="black" points="769.0665477835843,314.3461538461538 810.1264211785714,309.3461538461538 810.1264211785714,304.3461538461538 769.0665477835843,309.3461538461538" stroke="black" stroke-width="0"></polygon><polygon fill="black" points="810.1264211785714,309.3461538461538 851.1862945735584,304.3461538461538 851.1862945735584,299.3461538461538 810.1264211785714,304.3461538461538" stroke="black" stroke-width="0"></polygon><polygon fill="black" points="851.1862945735584,304.3461538461538 892.2461679685454,299.3461538461538 892.2461679685454,294.3461538461538 851.1862945735584,299.3461538461538" stroke="black" stroke-width="0"></polygon><polygon fill="black" points="892.2461679685454,299.3461538461538 933.3060413635325,294.3461538461538 933.3060413635325,289.3461538461538 892.2461679685454,294.3461538461538" stroke="black" stroke-width="0"></polygon></g></g><g><g><path d="M760.747 351.986C764.747 351.986 769.667 348.266 769.667 344.466C769.667 342.186 767.867 340.706 765.267 340.706C760.347 340.706 756.387 344.346 756.387 348.226C756.387 350.586 758.307 351.986 760.747 351.986"></path></g><line stroke="#000000" stroke-width="1.2" x1="769.0665477835843" x2="769.0665477835843" y1="344.50615384615384" y2="309.50615384615384"></line><line stroke="#000000" stroke-width="2.2" x1="753.1865477835843" x2="775.1065477835842" y1="326.3461538461538" y2="326.3461538461538"></line><line stroke="#000000" stroke-width="2.2" x1="753.1865477835843" x2="775.1065477835842" y1="336.3461538461538" y2="336.3461538461538"></line><line stroke="#000000" stroke-width="2.2" x1="753.1865477835843" x2="775.1065477835842" y1="346.3461538461538" y2="346.3461538461538"></line></g><g><g><path d="M801.806 346.986C805.806 346.986 810.726 343.266 810.726 339.466C810.726 337.186 808.926 335.706 806.326 335.706C801.406 335.706 797.446 339.346 797.446 343.226C797.446 345.586 799.366 346.986 801.806 346.986"></path></g><line stroke="#000000" stroke-width="1.2" x1="810.1264211785714" x2="810.1264211785714" y1="339.50615384615384" y2="304.50615384615384"></line><line stroke="#000000" stroke-width="2.2" x1="794.2464211785714" x2="816.1664211785713" y1="326.3461538461538" y2="326.3461538461538"></line><line stroke="#000000" stroke-width="2.2" x1="794.2464211785714" x2="816.1664211785713" y1="336.3461538461538" y2="336.3461538461538"></line></g><g><g><path d="M842.866 341.986C846.866 341.986 851.786 338.266 851.786 334.466C851.786 332.186 849.986 330.706 847.386 330.706C842.466 330.706 838.506 334.346 838.506 338.226C838.506 340.586 840.426 341.986 842.866 341.986"></path></g><line stroke="#000000" stroke-width="1.2" x1="851.1862945735584" x2="851.1862945735584" y1="334.50615384615384" y2="299.50615384615384"></line><line stroke="#000000" stroke-width="2.2" x1="835.3062945735584" x2="857.2262945735583" y1="326.3461538461538" y2="326.3461538461538"></line><line stroke="#000000" stroke-width="2.2" x1="835.3062945735584" x2="857.2262945735583" y1="336.3461538461538" y2="336.3461538461538"></line></g><g><g><path d="M883.926 336.986C887.926 336.986 892.846 333.266 892.846 329.466C892.846 327.186 891.046 325.706 888.446 325.706C883.526 325.706 879.566 329.346 879.566 333.226C879.566 335.586 881.486 336.986 883.926 336.986"></path></g><line stroke="#000000" stroke-width="1.2" x1="892.2461679685454" x2="892.2461679685454" y1="329.50615384615384" y2="294.50615384615384"></line><line stroke="#000000" stroke-width="2.2" x1="876.3661679685454" x2="898.2861679685453" y1="326.3461538461538" y2="326.3461538461538"></line></g><g><g><path d="M924.986 331.986C928.986 331.986 933.906 328.266 933.906 324.466C933.906 322.186 932.106 320.706 929.506 320.706C924.586 320.706 920.626 324.346 920.626 328.226C920.626 330.586 922.546 331.986 924.986 331.986"></path></g><line stroke="#000000" stroke-width="1.2" x1="933.3060413635325" x2="933.3060413635325" y1="324.50615384615384" y2="289.50615384615384"></line><line stroke="#000000" stroke-width="2.2" x1="917.4260413635325" x2="939.3460413635324" y1="326.3461538461538" y2="326.3461538461538"></line></g></g></svg>