<?xml version="1.0" encoding="UTF-8" standalone="no"?><svg xmlns="http://www.w3.org/2000/svg" height="279.4mm" viewBox="0 0 1328.6153846153845 1719.3846153846152" width="215.9mm"><g transform="translate(163.84615384615387)"><g><g><line stroke="#6A6A6A" stroke-width="1.3" x1="0" x2="377.5397348331239" y1="216.3461538461538" y2="216.3461538461538"></line><line stroke="#6A6A6A" stroke-width="1.3" x1="0" x2="377.5397348331239" y1="206.3461538461538" y2="206.3461538461538"></line><line stroke="#6A6A6A" stroke-width="1.3" x1="0" x2="377.5397348331239" y1="196.3461538461538" y2="196.3461538461538"></line><line stroke="#6A6A6A" stroke-width="1.3" x1="0" x2="377.5397348331239" y1="186.3461538461538" y2="186.3461538461538"></line><line stroke="#6A6A6A" stroke-width="1.3" x1="0" x2="377.5397348331239" y1="176.3461538461538" y2="176.3461538461538"></line></g><g><path d="M25.200 162.426C24.640 162.426 23.400 163.466 22.600 164.346C19.640 167.626 18.680 172.626 18.680 176.786C18.680 179.106 18.960 181.706 19.240 183.346C19.320 183.826 19.360 183.906 18.880 184.306C16.320 186.426 13.560 188.866 11.480 191.426C8.720 194.866 7 198.586 7 202.866C7 209.826 11.760 216.426 21.560 216.426C22.480 216.426 23.520 216.346 24.320 216.186C24.760 216.106 24.840 216.066 24.920 216.546C25.400 219.226 26 222.706 26 224.586C26 230.506 22 231.226 19.640 231.226C17.480 231.226 16.440 230.586 16.440 230.066C16.440 229.626 16.800 229.666 17.720 229.386C18.960 229.026 20.400 227.946 20.400 225.626C20.400 223.426 19 221.546 16.560 221.546C13.880 221.546 12.280 223.666 12.280 226.146C12.280 228.746 13.840 232.666 19.880 232.666C22.560 232.666 27.760 231.466 27.760 224.666C27.760 222.386 27.040 218.586 26.600 216.106C26.520 215.626 26.560 215.666 27.120 215.426C31.160 213.826 33.840 210.426 33.840 205.906C33.840 200.786 30.080 196.266 24.200 196.266C23.080 196.266 23.200 196.466 23.040 195.546L22.040 189.746C21.960 189.266 22.040 189.226 22.280 188.986C22.920 188.386 23.760 187.546 24.520 186.706C27.880 183.026 29.880 178.266 29.880 173.746C29.880 170.266 28.920 166.826 27.280 164.426C26.680 163.546 25.640 162.426 25.200 162.426ZM20.040 190.586C20.440 190.266 20.520 190.306 20.600 190.746L21.440 195.866C21.560 196.626 21.560 196.586 20.840 196.826C17.320 198.026 15.040 201.186 15.040 204.586C15.040 208.186 16.920 210.746 19.640 211.666C19.960 211.786 20.440 211.906 20.720 211.906C21.040 211.906 21.200 211.706 21.200 211.466C21.200 211.186 20.880 211.066 20.600 210.946C18.920 210.226 17.720 208.506 17.720 206.666C17.720 204.386 19.280 202.666 21.720 201.986C22.360 201.826 22.440 201.866 22.520 202.306L24.520 214.226C24.600 214.666 24.560 214.666 23.960 214.786C23.320 214.906 22.520 214.986 21.720 214.986C14.720 214.986 10.200 211.106 10.200 205.546C10.200 203.186 10.600 200.026 13.920 196.266C16.320 193.586 18.160 192.106 20.040 190.586ZM24.640 201.666C27.880 201.946 30.560 204.666 30.560 208.186C30.560 210.706 29.040 212.746 26.800 213.866C26.320 214.106 26.240 214.106 26.160 213.626L24.200 202.226C24.120 201.746 24.160 201.626 24.640 201.666ZM25.800 168.626C27.120 168.626 28.200 169.706 28.200 171.906C28.200 174.666 26.880 177.226 23.760 180.346C23.120 180.986 22.160 181.906 21.240 182.706C20.960 182.946 20.800 182.906 20.720 182.386C20.560 181.346 20.480 179.986 20.480 178.706C20.480 172.466 23.360 168.626 25.800 168.626Z"></path></g><g></g></g><path d="M187.599 245.426C186.599 245.426 185.719 246.066 185.119 246.826L184.959 247.026C184.439 247.626 183.839 248.346 183.479 249.026C183.199 249.506 182.759 250.066 182.559 250.546C182.519 250.626 182.519 250.706 182.519 250.746C182.519 250.906 182.639 251.026 182.759 251.106C182.799 251.146 182.879 251.146 182.919 251.146C183.079 251.146 183.239 251.066 183.479 250.706C184.119 249.826 184.599 248.946 185.159 248.266C185.959 247.306 186.599 246.746 186.919 246.746C187.239 246.746 187.359 247.026 187.359 247.386C187.359 248.026 187.079 248.866 186.999 249.026C186.279 251.106 184.719 254.426 184.199 255.586C184.079 255.826 184.039 255.986 184.039 256.106C184.039 256.306 184.239 256.346 184.679 256.346L186.239 256.346C186.759 256.346 186.799 256.146 187.079 255.666C188.279 253.426 189.119 251.106 190.279 248.946C190.479 248.626 190.599 248.226 191.279 248.226C191.879 248.226 191.879 248.746 191.879 248.946C191.879 249.306 189.519 255.026 189.279 255.586C189.199 255.786 189.159 255.946 189.159 256.066C189.159 256.306 189.319 256.346 189.519 256.346L191.519 256.346C191.879 256.346 191.999 256.226 192.279 255.666C192.559 255.146 194.439 250.146 195.159 248.786C195.479 248.226 195.639 248.146 196.079 248.146C196.519 248.146 196.679 248.466 196.679 248.746C196.679 248.866 196.639 248.986 196.599 249.066C196.559 249.346 196.439 249.586 196.359 249.866C196.039 250.826 195.679 251.786 195.359 252.786L194.879 254.106C194.759 254.426 194.639 254.786 194.639 255.146C194.639 255.266 194.639 255.426 194.679 255.546C194.999 256.426 195.959 256.786 196.799 256.786C198.919 256.786 200.959 253.146 201.159 252.666C201.239 252.506 201.279 252.346 201.279 252.226C201.279 252.026 201.119 251.906 200.999 251.906C200.839 251.946 200.679 251.986 200.399 252.386C200.239 252.666 199.479 253.746 199.319 253.946C199.079 254.306 198.439 255.066 198.079 255.066C197.879 254.986 197.759 254.866 197.759 254.706C197.759 254.506 197.839 254.266 197.919 254.026C197.919 254.026 197.999 253.826 198.039 253.746C198.479 252.666 199.919 248.946 199.919 247.546C199.919 245.986 198.759 245.426 197.559 245.426C196.279 245.426 195.439 246.826 195.039 246.826C194.679 246.826 194.479 245.426 192.839 245.426C191.319 245.426 190.279 246.906 189.919 246.906C189.479 246.906 189.239 245.426 187.599 245.426ZM196.639 258.386C196.439 258.386 196.279 258.426 196.159 258.466C195.799 258.586 195.399 258.826 195.159 259.106C194.759 259.586 194.519 260.266 194.519 260.906C194.519 261.626 194.759 262.306 195.239 262.786C195.479 263.026 195.839 263.266 196.119 263.386C196.519 263.506 196.999 263.586 197.439 263.586C198.599 263.586 199.759 263.106 200.719 262.466C201.959 261.666 202.879 260.546 203.719 259.226C204.319 258.306 204.719 257.306 205.159 256.306L205.319 255.986C205.759 254.986 206.119 253.946 206.479 252.946L207.319 250.626C207.599 249.866 207.879 249.026 208.239 248.306C208.759 247.306 208.759 247.306 210.119 247.306C211.759 247.306 211.759 247.306 211.759 247.306C212.519 247.306 212.519 247.266 212.519 246.386C212.519 245.546 212.519 245.546 211.799 245.546C210.439 245.546 210.439 245.546 210.439 245.546C209.559 245.546 209.199 245.546 209.199 245.146C209.199 244.906 209.319 244.466 209.559 243.826C210.319 241.786 210.959 240.066 213.399 239.946L213.559 239.946C213.719 239.946 213.879 239.986 213.919 240.186C213.919 240.466 213.919 240.586 213.799 240.666C213.679 240.786 213.479 240.826 213.359 240.866C212.999 241.026 212.759 241.306 212.599 241.586C212.359 241.906 212.239 242.306 212.239 242.706C212.239 243.866 212.839 244.186 213.719 244.186C214.559 244.186 215.879 242.946 215.959 241.466C215.959 239.906 214.959 238.746 212.959 238.666L212.719 238.666C210.439 238.666 208.799 239.586 207.559 240.826C206.239 242.186 205.639 243.146 205.039 244.586C204.679 245.506 204.559 245.546 203.679 245.546L201.799 245.546C200.799 245.546 200.719 245.666 200.719 246.386C200.719 247.306 200.719 247.306 201.439 247.306C202.799 247.306 202.799 247.306 202.799 247.306C203.279 247.306 203.479 247.306 203.479 247.666C203.479 247.906 203.359 248.386 203.119 249.266C203.039 249.586 200.639 258.466 200.399 259.106C200.039 260.026 199.399 260.946 198.639 261.586C198.439 261.746 198.239 261.906 197.959 261.986C197.799 262.066 197.639 262.066 197.519 262.066C197.159 262.066 196.959 261.946 196.919 261.946C197.479 261.826 197.839 261.466 197.959 261.386C198.199 261.106 198.399 260.666 198.399 260.266C198.399 259.666 198.159 258.946 197.639 258.666C197.359 258.506 196.999 258.386 196.639 258.386Z"></path><g><line stroke="black" stroke-width="1.6" x1="378.3397348331239" x2="378.3397348331239" y1="176.3461538461538" y2="216.3461538461538"></line></g><g><g><path d="M52.980 187.146C60.620 187.146 62.140 180.946 62.140 179.426C62.140 177.066 60.260 175.546 57.580 175.546C50.660 175.546 48.500 180.906 48.500 183.306C48.500 185.746 50.460 187.146 52.980 187.146ZM56.500 183.466C54.420 184.866 52.980 185.346 51.980 185.346C51.020 185.346 50.460 184.866 50.140 184.306C49.980 184.026 49.860 183.706 49.860 183.386C49.860 182.386 50.860 181.106 54.060 179.266C56.340 177.946 57.780 177.466 58.740 177.466C59.620 177.466 60.100 177.866 60.420 178.426C60.580 178.706 60.700 178.986 60.700 179.306C60.700 180.226 59.740 181.346 56.500 183.466Z"></path></g><line stroke="#000000" stroke-width="1.2" x1="49.1" x2="49.1" y1="183.30615384615382" y2="218.30615384615382"></line><g><path d="M48.840 200.066C48.960 200.026 61.080 195.946 61.080 195.946C61.600 195.826 61.600 195.546 61.600 195.226C61.600 194.906 61.600 194.666 61.080 194.506L49.080 190.426C48.920 190.386 48.840 190.346 48.720 190.346C48.360 190.346 48.240 190.586 48.120 190.906C48.080 191.066 48.040 191.186 48.040 191.306C48.040 191.506 48.160 191.706 48.600 191.866C48.600 191.866 57.240 194.786 57.640 194.946C57.840 194.986 57.920 195.106 57.920 195.226C57.920 195.346 57.840 195.426 57.600 195.506C57.160 195.626 48.600 198.546 48.600 198.546C48.160 198.746 48.040 198.946 48.040 199.146C48.040 199.266 48.080 199.386 48.120 199.506C48.240 199.786 48.400 200.106 48.680 200.106C48.720 200.106 48.800 200.106 48.840 200.066Z"></path><path d="M69.640 134.446C69.640 133.286 68.640 132.286 67.440 132.286C66.280 132.286 65.280 133.286 65.280 134.446C65.280 135.646 66.280 136.646 67.440 136.646C68.640 136.646 69.640 135.646 69.640 134.446ZM67.400 127.686C75.920 127.686 77.640 134.006 78.040 135.526C78.080 135.646 78.080 135.766 78.120 135.806C78.400 136.366 78.480 136.646 78.960 136.646C79.320 136.646 79.520 136.486 79.520 136.086C79.520 135.966 79.520 135.846 79.480 135.686C77 123.446 68.640 123.366 67.480 123.366C66.200 123.366 57.920 123.446 55.480 135.686C55.440 135.846 55.440 136.006 55.440 136.126C55.440 136.526 55.640 136.646 55.960 136.646C56.320 136.646 56.520 136.366 56.760 135.806C56.800 135.766 56.840 135.606 56.880 135.446C57.360 133.806 59.080 127.686 67.400 127.686Z"></path></g><text font-family="Alegreya" font-size="22" text-anchor="middle" x="55.32" y="256.3461538461538">This</text></g><g><g><path d="M188.399 191.986C192.399 191.986 197.319 188.266 197.319 184.466C197.319 182.186 195.519 180.706 192.919 180.706C187.999 180.706 184.039 184.346 184.039 188.226C184.039 190.586 185.959 191.986 188.399 191.986Z"></path></g><line stroke="#000000" stroke-width="1.2" x1="184.63937630790528" x2="184.63937630790528" y1="188.18615384615381" y2="223.18615384615381"></line><text font-family="Alegreya" font-size="22" text-anchor="middle" x="190.67937630790527" y="256.3461538461538">is</text></g><g><g><path d="M285.150 201.986C289.150 201.986 294.070 198.266 294.070 194.466C294.070 192.186 292.270 190.706 289.670 190.706C284.750 190.706 280.790 194.346 280.790 198.226C280.790 200.586 282.710 201.986 285.150 201.986Z"></path></g><line stroke="#000000" stroke-width="1.2" x1="281.38955557051463" x2="281.38955557051463" y1="198.18615384615381" y2="233.18615384615381"></line><text font-family="Alegreya" font-size="22" text-anchor="middle" x="287.4295555705146" y="256.3461538461538">the</text></g><g><g><path d="M52.980 197.146C60.620 197.146 62.140 190.946 62.140 189.426C62.140 187.066 60.260 185.546 57.580 185.546C50.660 185.546 48.500 190.906 48.500 193.306C48.500 195.746 50.460 197.146 52.980 197.146ZM56.500 193.466C54.420 194.866 52.980 195.346 51.980 195.346C51.020 195.346 50.460 194.866 50.140 194.306C49.980 194.026 49.860 193.706 49.860 193.386C49.860 192.386 50.860 191.106 54.060 189.266C56.340 187.946 57.780 187.466 58.740 187.466C59.620 187.466 60.100 187.866 60.420 188.426C60.580 188.706 60.700 188.986 60.700 189.306C60.700 190.226 59.740 191.346 56.500 193.466Z"></path></g><line stroke="#000000" stroke-width="1.2" x1="49.1" x2="49.1" y1="193.30615384615382" y2="228.30615384615382"></line><g><path d="M48.840 178.066C48.960 178.026 61.080 173.946 61.080 173.946C61.600 173.826 61.600 173.546 61.600 173.226C61.600 172.906 61.600 172.666 61.080 172.506L49.080 168.426C48.920 168.386 48.840 168.346 48.720 168.346C48.360 168.346 48.240 168.586 48.120 168.906C48.080 169.066 48.040 169.186 48.040 169.306C48.040 169.506 48.160 169.706 48.600 169.866C48.600 169.866 57.240 172.786 57.640 172.946C57.840 172.986 57.920 173.106 57.920 173.226C57.920 173.346 57.840 173.426 57.600 173.506C57.160 173.626 48.600 176.546 48.600 176.546C48.160 176.746 48.040 176.946 48.040 177.146C48.040 177.266 48.080 177.386 48.120 177.506C48.240 177.786 48.400 178.106 48.680 178.106C48.720 178.106 48.800 178.106 48.840 178.066Z"></path><path d="M69.640 134.446C69.640 133.286 68.640 132.286 67.440 132.286C66.280 132.286 65.280 133.286 65.280 134.446C65.280 135.646 66.280 136.646 67.440 136.646C68.640 136.646 69.640 135.646 69.640 134.446ZM67.400 127.686C75.920 127.686 77.640 134.006 78.040 135.526C78.080 135.646 78.080 135.766 78.120 135.806C78.400 136.366 78.480 136.646 78.960 136.646C79.320 136.646 79.520 136.486 79.520 136.086C79.520 135.966 79.520 135.846 79.480 135.686C77 123.446 68.640 123.366 67.480 123.366C66.200 123.366 57.920 123.446 55.480 135.686C55.440 135.846 55.440 136.006 55.440 136.126C55.440 136.526 55.640 136.646 55.960 136.646C56.320 136.646 56.520 136.366 56.760 135.806C56.800 135.766 56.840 135.606 56.880 135.446C57.360 133.806 59.080 127.686 67.400 127.686Z"></path></g><text font-family="Alegreya" font-size="22" text-anchor="middle" x="55.32" y="256.3461538461538">This</text></g><g><g><path d="M188.399 201.986C192.399 201.986 197.319 198.266 197.319 194.466C197.319 192.186 195.519 190.706 192.919 190.706C187.999 190.706 184.039 194.346 184.039 198.226C184.039 200.586 185.959 201.986 188.399 201.986Z"></path></g><line stroke="#000000" stroke-width="1.2" x1="184.63937630790528" x2="184.63937630790528" y1="198.18615384615381" y2="233.18615384615381"></line><text font-family="Alegreya" font-size="22" text-anchor="middle" x="190.67937630790527" y="256.3461538461538">is</text></g><g><g><path d="M285.150 211.986C289.150 211.986 294.070 208.266 294.070 204.466C294.070 202.186 292.270 200.706 289.670 200.706C284.750 200.706 280.790 204.346 280.790 208.226C280.790 210.586 282.710 211.986 285.150 211.986Z"></path></g><line stroke="#000000" stroke-width="1.2" x1="293.4695555705146" x2="293.4695555705146" y1="204.5061538461538" y2="169.5061538461538"></line><text font-family="Alegreya" font-size="22" text-anchor="middle" x="287.4295555705146" y="256.3461538461538">the</text></g></g><g transform="translate(557.9858886792778)"><g><g><line stroke="#6A6A6A" stroke-width="1.3" x1="-16.599999999999966" x2="772.0034914194466" y1="216.3461538461538" y2="216.3461538461538"></line><line stroke="#6A6A6A" stroke-width="1.3" x1="-16.599999999999966" x2="772.0034914194466" y1="206.3461538461538" y2="206.3461538461538"></line><line stroke="#6A6A6A" stroke-width="1.3" x1="-16.599999999999966" x2="772.0034914194466" y1="196.3461538461538" y2="196.3461538461538"></line><line stroke="#6A6A6A" stroke-width="1.3" x1="-16.599999999999966" x2="772.0034914194466" y1="186.3461538461538" y2="186.3461538461538"></line><line stroke="#6A6A6A" stroke-width="1.3" x1="-16.599999999999966" x2="772.0034914194466" y1="176.3461538461538" y2="176.3461538461538"></line></g></g><g><line stroke="black" stroke-width="1.6" x1="377.7017457097233" x2="377.7017457097233" y1="176.3461538461538" y2="216.3461538461538"></line></g><g><path d="M9.320 172.786C7.800 170.946 6.560 169.466 6.560 167.226C6.560 167.066 6.600 166.866 6.600 166.706C6.760 164.386 8.200 162.466 9.240 160.826C9.360 160.626 9.400 160.426 9.400 160.226C9.400 159.826 9.240 159.466 9.240 159.466C9.240 159.466 3.320 152.426 2.640 151.746C2.440 151.546 2.160 151.426 1.920 151.426C1.520 151.426 1.120 151.706 1.120 152.266C1.120 152.466 1.160 152.666 1.280 152.906C1.440 153.346 3.720 155.386 3.720 158.266C3.720 159.746 3.120 161.466 1.320 163.346C0.920 163.746 0.760 164.186 0.760 164.506C0.760 165.066 1.160 165.466 1.160 165.466L3.120 167.866C3.760 168.666 4.320 169.426 4.840 170.266C4.920 170.426 5.080 170.626 5.080 170.826C5.080 170.866 5.080 170.946 5.040 170.986C4.960 171.146 4.800 171.186 4.600 171.186C4.360 171.186 4.120 171.106 3.960 171.066C3.760 171.066 3.520 170.946 3.320 170.946C1.600 170.946 0.040 172.666 0.040 174.786C0.040 176.786 1.760 178.746 4.680 180.986C5 181.226 5.400 181.346 5.720 181.346C6 181.346 6.280 181.266 6.320 181.106C6.360 180.986 6.400 180.906 6.400 180.826C6.400 180.466 6.080 180.146 5.760 179.866C5.240 179.866 4.800 178.786 4.720 178.426C4.600 178.106 4.560 177.746 4.560 177.386C4.560 176.146 5.160 174.746 6.440 174.506C6.640 174.466 6.840 174.466 7.080 174.466C8.240 174.466 9.560 174.906 10.200 175.146C10.240 175.146 10.280 175.186 10.320 175.186C10.440 175.226 10.520 175.226 10.600 175.226C10.720 175.226 10.800 175.186 10.800 175.066C10.800 174.586 9.760 173.266 9.320 172.786Z"></path></g><g><g><path d="M101.110 191.986C105.110 191.986 110.030 188.266 110.030 184.466C110.030 182.186 108.230 180.706 105.630 180.706C100.710 180.706 96.750 184.346 96.750 188.226C96.750 190.586 98.670 191.986 101.110 191.986Z"></path></g><line stroke="#000000" stroke-width="1.2" x1="97.35017926260929" x2="97.35017926260929" y1="188.18615384615381" y2="223.18615384615381"></line><text font-family="Alegreya" font-size="22" text-anchor="middle" x="103.3901792626093" y="256.3461538461538">lyrics</text></g><g><g><path d="M197.860 236.986C201.860 236.986 206.780 233.266 206.780 229.466C206.780 227.186 204.980 225.706 202.380 225.706C197.460 225.706 193.500 229.346 193.500 233.226C193.500 235.586 195.420 236.986 197.860 236.986Z"></path><g><circle cx="212.7803585252186" cy="231.3461538461538" fill="#000000" r="2.4"></circle></g></g><line stroke="#000000" stroke-width="1.2" x1="206.1803585252186" x2="206.1803585252186" y1="229.5061538461538" y2="194.5061538461538"></line><line stroke="#000000" stroke-width="2.2" x1="190.3003585252186" x2="212.2203585252186" y1="226.3461538461538" y2="226.3461538461538"></line><text font-family="Alegreya" font-size="22" text-anchor="middle" x="200.14035852521857" y="256.3461538461538">of</text></g><g><g><path d="M323.301 196.986C327.301 196.986 332.221 193.266 332.221 189.466C332.221 187.186 330.421 185.706 327.821 185.706C322.901 185.706 318.941 189.346 318.941 193.226C318.941 195.586 320.861 196.986 323.301 196.986Z"></path></g><line stroke="#000000" stroke-width="1.2" x1="319.54076349240995" x2="319.54076349240995" y1="193.18615384615381" y2="228.18615384615381"></line><path d="M328.541 196.306C329.101 197.986 329.381 199.986 329.381 201.786C329.381 204.146 328.381 207.506 327.781 208.866C326.301 212.226 324.301 215.466 318.941 217.266L318.941 226.666C318.941 227.146 319.141 227.266 319.381 227.266C320.141 227.266 320.461 227.026 320.541 226.386C321.221 222.586 324.181 219.106 326.221 215.946C328.741 211.986 331.181 207.226 331.181 202.226C331.181 199.106 330.381 196.266 330.061 194.986C329.741 193.706 327.941 194.586 328.541 196.306Z"></path><text font-family="Alegreya" font-size="22" text-anchor="middle" x="325.5807634924099" y="256.3461538461538">Voice1</text></g></g><g transform="translate(951.487634389001)"><g></g><g><line stroke="black" stroke-width="1.6" x1="377.7017457097233" x2="377.7017457097233" y1="176.3461538461538" y2="216.3461538461538"></line></g><g><path d="M9.320 232.786C7.800 230.946 6.560 229.466 6.560 227.226C6.560 227.066 6.600 226.866 6.600 226.706C6.760 224.386 8.200 222.466 9.240 220.826C9.360 220.626 9.400 220.426 9.400 220.226C9.400 219.826 9.240 219.466 9.240 219.466C9.240 219.466 3.320 212.426 2.640 211.746C2.440 211.546 2.160 211.426 1.920 211.426C1.520 211.426 1.120 211.706 1.120 212.266C1.120 212.466 1.160 212.666 1.280 212.906C1.440 213.346 3.720 215.386 3.720 218.266C3.720 219.746 3.120 221.466 1.320 223.346C0.920 223.746 0.760 224.186 0.760 224.506C0.760 225.066 1.160 225.466 1.160 225.466L3.120 227.866C3.760 228.666 4.320 229.426 4.840 230.266C4.920 230.426 5.080 230.626 5.080 230.826C5.080 230.866 5.080 230.946 5.040 230.986C4.960 231.146 4.800 231.186 4.600 231.186C4.360 231.186 4.120 231.106 3.960 231.066C3.760 231.066 3.520 230.946 3.320 230.946C1.600 230.946 0.040 232.666 0.040 234.786C0.040 236.786 1.760 238.746 4.680 240.986C5 241.226 5.400 241.346 5.720 241.346C6 241.346 6.280 241.266 6.320 241.106C6.360 240.986 6.400 240.906 6.400 240.826C6.400 240.466 6.080 240.146 5.760 239.866C5.240 239.866 4.800 238.786 4.720 238.426C4.600 238.106 4.560 237.746 4.560 237.386C4.560 236.146 5.160 234.746 6.440 234.506C6.640 234.466 6.840 234.466 7.080 234.466C8.240 234.466 9.560 234.906 10.200 235.146C10.240 235.146 10.280 235.186 10.320 235.186C10.440 235.226 10.520 235.226 10.600 235.226C10.720 235.226 10.800 235.186 10.800 235.066C10.800 234.586 9.760 233.266 9.320 232.786Z"></path></g><g><g><path d="M101.110 201.986C105.110 201.986 110.030 198.266 110.030 194.466C110.030 192.186 108.230 190.706 105.630 190.706C100.710 190.706 96.750 194.346 96.750 198.226C96.750 200.586 98.670 201.986 101.110 201.986Z"></path></g><line stroke="#000000" stroke-width="1.2" x1="109.4301792626093" x2="109.4301792626093" y1="194.5061538461538" y2="159.5061538461538"></line><text font-family="Alegreya" font-size="22" text-anchor="middle" x="103.3901792626093" y="256.3461538461538">lyrics</text></g><g><g><path d="M197.860 246.986C201.860 246.986 206.780 243.266 206.780 239.466C206.780 237.186 204.980 235.706 202.380 235.706C197.460 235.706 193.500 239.346 193.500 243.226C193.500 245.586 195.420 246.986 197.860 246.986Z"></path><g><circle cx="212.7803585252186" cy="241.3461538461538" fill="#000000" r="2.4"></circle></g></g><line stroke="#000000" stroke-width="1.2" x1="206.1803585252186" x2="206.1803585252186" y1="239.5061538461538" y2="194.5061538461538"></line><line stroke="#000000" stroke-width="2.2" x1="190.3003585252186" x2="212.2203585252186" y1="226.3461538461538" y2="226.3461538461538"></line><line stroke="#000000" stroke-width="2.2" x1="190.3003585252186" x2="212.2203585252186" y1="236.3461538461538" y2="236.3461538461538"></line><text font-family="Alegreya" font-size="22" text-anchor="middle" x="200.14035852521857" y="256.3461538461538">of</text></g><g><g><path d="M323.301 206.986C327.301 206.986 332.221 203.266 332.221 199.466C332.221 197.186 330.421 195.706 327.821 195.706C322.901 195.706 318.941 199.346 318.941 203.226C318.941 205.586 320.861 206.986 323.301 206.986Z"></path></g><line stroke="#000000" stroke-width="1.2" x1="331.62076349240994" x2="331.62076349240994" y1="199.5061538461538" y2="164.5061538461538"></line><path d="M340.541 197.586C340.541 197.586 341.581 193.786 341.581 190.666C341.581 185.666 339.501 180.946 336.981 176.946C334.941 173.786 333.261 170.346 332.621 166.506C332.501 165.866 332.181 165.626 331.421 165.626C331.181 165.626 331.021 165.746 331.021 166.226L331.021 175.786C333.661 176.266 337.461 181.706 338.901 185.106C339.501 186.466 339.861 188.746 339.861 191.106C339.861 192.906 339.581 194.786 338.901 196.586C338.821 196.826 338.781 197.026 338.781 197.186C338.781 197.826 339.181 198.186 339.421 198.346C339.661 198.506 340.341 198.266 340.541 197.586Z"></path><text font-family="Alegreya" font-size="22" text-anchor="middle" x="325.5807634924099" y="256.3461538461538">Voice1</text></g></g><g transform="translate(93.84615384615385)"><g><g><line stroke="#6A6A6A" stroke-width="1.3" x1="0" x2="523.9088585484253" y1="367.3461538461538" y2="367.3461538461538"></line><line stroke="#6A6A6A" stroke-width="1.3" x1="0" x2="523.9088585484253" y1="357.3461538461538" y2="357.3461538461538"></line><line stroke="#6A6A6A" stroke-width="1.3" x1="0" x2="523.9088585484253" y1="347.3461538461538" y2="347.3461538461538"></line><line stroke="#6A6A6A" stroke-width="1.3" x1="0" x2="523.9088585484253" y1="337.3461538461538" y2="337.3461538461538"></line><line stroke="#6A6A6A" stroke-width="1.3" x1="0" x2="523.9088585484253" y1="327.3461538461538" y2="327.3461538461538"></line></g><g><path d="M25.200 313.426C24.640 313.426 23.400 314.466 22.600 315.346C19.640 318.626 18.680 323.626 18.680 327.786C18.680 330.106 18.960 332.706 19.240 334.346C19.320 334.826 19.360 334.906 18.880 335.306C16.320 337.426 13.560 339.866 11.480 342.426C8.720 345.866 7 349.586 7 353.866C7 360.826 11.760 367.426 21.560 367.426C22.480 367.426 23.520 367.346 24.320 367.186C24.760 367.106 24.840 367.066 24.920 367.546C25.400 370.226 26 373.706 26 375.586C26 381.506 22 382.226 19.640 382.226C17.480 382.226 16.440 381.586 16.440 381.066C16.440 380.626 16.800 380.666 17.720 380.386C18.960 380.026 20.400 378.946 20.400 376.626C20.400 374.426 19 372.546 16.560 372.546C13.880 372.546 12.280 374.666 12.280 377.146C12.280 379.746 13.840 383.666 19.880 383.666C22.560 383.666 27.760 382.466 27.760 375.666C27.760 373.386 27.040 369.586 26.600 367.106C26.520 366.626 26.560 366.666 27.120 366.426C31.160 364.826 33.840 361.426 33.840 356.906C33.840 351.786 30.080 347.266 24.200 347.266C23.080 347.266 23.200 347.466 23.040 346.546L22.040 340.746C21.960 340.266 22.040 340.226 22.280 339.986C22.920 339.386 23.760 338.546 24.520 337.706C27.880 334.026 29.880 329.266 29.880 324.746C29.880 321.266 28.920 317.826 27.280 315.426C26.680 314.546 25.640 313.426 25.200 313.426ZM20.040 341.586C20.440 341.266 20.520 341.306 20.600 341.746L21.440 346.866C21.560 347.626 21.560 347.586 20.840 347.826C17.320 349.026 15.040 352.186 15.040 355.586C15.040 359.186 16.920 361.746 19.640 362.666C19.960 362.786 20.440 362.906 20.720 362.906C21.040 362.906 21.200 362.706 21.200 362.466C21.200 362.186 20.880 362.066 20.600 361.946C18.920 361.226 17.720 359.506 17.720 357.666C17.720 355.386 19.280 353.666 21.720 352.986C22.360 352.826 22.440 352.866 22.520 353.306L24.520 365.226C24.600 365.666 24.560 365.666 23.960 365.786C23.320 365.906 22.520 365.986 21.720 365.986C14.720 365.986 10.200 362.106 10.200 356.546C10.200 354.186 10.600 351.026 13.920 347.266C16.320 344.586 18.160 343.106 20.040 341.586ZM24.640 352.666C27.880 352.946 30.560 355.666 30.560 359.186C30.560 361.706 29.040 363.746 26.800 364.866C26.320 365.106 26.240 365.106 26.160 364.626L24.200 353.226C24.120 352.746 24.160 352.626 24.640 352.666ZM25.800 319.626C27.120 319.626 28.200 320.706 28.200 322.906C28.200 325.666 26.880 328.226 23.760 331.346C23.120 331.986 22.160 332.906 21.240 333.706C20.960 333.946 20.800 333.906 20.720 333.386C20.560 332.346 20.480 330.986 20.480 329.706C20.480 323.466 23.360 319.626 25.800 319.626Z"></path></g><g></g><text font-family='Alegreya' font-style='italic' text-anchor='end' stroke='#7a7a7a' font-size="24" x="0" y="317.3461538461538">4</text></g><g><line stroke="#000000" stroke-width="1.6" x1="514.1088585484252" x2="514.1088585484252" y1="327.3461538461538" y2="367.3461538461538"></line><line stroke="#000000" stroke-width="5" x1="521.4088585484253" x2="521.4088585484253" y1="327.3461538461538" y2="367.3461538461538"></line></g><g><path d="M282.544 341.706L282.544 338.026C282.544 337.426 282.064 336.986 281.504 336.986L272.304 336.986C271.704 336.986 271.264 337.426 271.264 338.026L271.264 341.706C271.264 342.266 271.704 342.746 272.304 342.746L281.504 342.746C282.064 342.746 282.544 342.266 282.544 341.706Z"></path></g></g></svg>