<?xml version="1.0" encoding="UTF-8" standalone="no"?><svg xmlns="http://www.w3.org/2000/svg" height="279.4mm" viewBox="0 0 1328.6153846153845 1719.3846153846152" width="215.9mm"><g transform="translate(163.84615384615387)"><g><g><line stroke="#6A6A6A" stroke-width="1.3" x1="0" x2="425.57910225403066" y1="261.3461538461538" y2="261.3461538461538"></line><line stroke="#6A6A6A" stroke-width="1.3" x1="0" x2="425.57910225403066" y1="251.3461538461538" y2="251.3461538461538"></line><line stroke="#6A6A6A" stroke-width="1.3" x1="0" x2="425.57910225403066" y1="241.3461538461538" y2="241.3461538461538"></line><line stroke="#6A6A6A" stroke-width="1.3" x1="0" x2="425.57910225403066" y1="231.3461538461538" y2="231.3461538461538"></line><line stroke="#6A6A6A" stroke-width="1.3" x1="0" x2="425.57910225403066" y1="221.3461538461538" y2="221.3461538461538"></line></g><g><path d="M17.080 220.866C10.120 220.866 7 225.946 7 229.786C7 232.986 8.680 235.746 11.920 235.746C14.440 235.746 16.160 233.986 16.160 231.506C16.160 228.946 14.280 227.346 12.320 227.346C11.240 227.346 10.840 227.626 10.320 227.626C9.800 227.626 9.680 227.306 9.680 226.906C9.680 225.306 12.080 222.386 16.160 222.386C20.400 222.386 22.240 226.546 22.240 232.826C22.240 236.946 21.360 241.746 18.880 245.586C16.480 249.306 12.360 252.706 7.400 255.546C7.040 255.746 6.800 255.946 6.800 256.266C6.800 256.506 6.960 256.746 7.320 256.746C7.520 256.746 7.760 256.666 8 256.546C13.320 253.946 18.440 250.906 22.680 246.346C26.160 242.586 28.240 237.706 28.240 232.466C28.240 225.506 24 220.866 17.080 220.866M32.200 234.186C30.960 234.186 30.040 235.106 30.040 236.346C30.040 237.586 30.960 238.506 32.200 238.506C33.440 238.506 34.360 237.586 34.360 236.346C34.360 235.106 33.440 234.186 32.200 234.186M32.160 224.146C30.920 224.146 29.960 225.106 29.960 226.346C29.960 227.586 30.920 228.546 32.160 228.546C33.400 228.546 34.360 227.586 34.360 226.346C34.360 225.106 33.400 224.146 32.160 224.146"></path></g><g></g><g><g><path d="M58.060 227.346C58.540 227.826 59.220 228.026 59.860 228.026C60.180 228.026 60.540 227.946 60.860 227.866C62.100 227.546 63.060 226.266 63.060 224.986C63.060 224.826 63.060 224.706 63.020 224.546C62.820 223.226 61.700 222.266 60.500 221.826C59.540 221.426 58.380 221.306 57.340 221.306C54.300 221.346 51.460 222.826 50.020 225.546C49.140 227.226 48.460 229.346 48.460 231.226L48.460 231.386C48.500 233.226 48.820 235.306 49.700 236.906C50.540 238.426 51.900 240.066 53.460 240.746C54.460 241.186 55.660 241.306 56.660 241.306C58.460 241.306 60.460 241.026 61.900 239.866C63.300 238.746 64.220 236.946 64.220 235.146C64.220 234.946 64.180 234.786 64.180 234.586C64.020 232.946 63.020 231.546 61.740 230.586C60.660 229.786 59.420 229.346 58.180 229.346C56.900 229.346 55.580 229.826 54.540 230.746C54.460 230.826 54.380 230.826 54.300 230.826C54.060 230.826 53.940 230.506 53.940 229.866C54.060 222.466 56.420 222.266 57.260 222.266C58.060 222.266 58.580 222.466 58.580 222.866C58.580 223.426 57.820 223.906 57.580 224.386C57.380 224.746 57.300 225.146 57.300 225.546C57.300 226.146 57.500 226.746 57.900 227.186C57.940 227.266 58.020 227.306 58.060 227.346M56.540 231.266C57.820 231.266 58.900 233.266 58.900 235.746C58.900 238.226 57.820 240.226 56.540 240.226C55.260 240.226 54.220 238.226 54.220 235.746C54.220 233.266 55.260 231.266 56.540 231.266"></path></g><g><path d="M60.820 249.906C62.260 248.986 63.220 247.666 63.220 245.666C63.220 241.586 57.340 240.986 56.260 240.986C51.620 240.986 48.460 243.106 48.460 246.466C48.460 249.226 50.020 250.706 51.940 251.786C49.860 252.786 48.260 254.106 48.260 256.626C48.260 260.106 51.860 261.706 55.820 261.706C59.820 261.706 64.100 259.986 64.100 254.586C64.100 252.186 62.700 250.866 60.820 249.906M55.660 260.386C52.980 260.386 50.540 259.026 50.540 256.426C50.540 254.826 51.940 253.346 53.700 252.666C56.620 253.946 59.580 254.786 59.580 257.426C59.580 259.026 58.340 260.386 55.660 260.386M58.740 248.986C55.540 247.866 52.140 247.186 52.140 244.666C52.140 242.986 54.420 242.146 56.180 242.146C57.460 242.146 60.860 242.786 60.860 245.586C60.860 247.186 60.060 248.226 58.740 248.986"></path></g></g><text font-family='Alegreya' font-style='italic' text-anchor='end' stroke='#7a7a7a' font-size="24" x="0" y="211.3461538461538">25</text><g><path d="M-13.200 241.926C-12.040 241.206-10.720 238.366-10.720 236.006C-10.720 235.806-10.720 235.566-10.760 235.366C-11.040 232.966-12.240 229.246-12.240 227.086C-12.240 225.006-11.320 223.006-11.120 222.646C-10.960 222.486-10.920 222.366-10.920 222.246C-10.920 222.166-10.960 222.086-11 222.086C-11.040 222.046-11.080 221.966-11.160 221.966C-11.240 221.966-11.320 222.046-11.480 222.246C-12.360 223.326-13.440 225.646-13.440 229.646C-13.440 233.606-12.040 235.206-12.040 237.726C-12.040 239.606-12.800 240.646-13.920 241.926C-13.200 242.726-12.040 243.366-12.040 245.966C-12.040 248.766-13.440 251.246-13.440 254.166C-13.440 258.166-12.360 260.486-11.480 261.606C-11.320 261.806-11.240 261.846-11.160 261.846C-11.080 261.846-11.040 261.806-11 261.766C-10.960 261.726-10.920 261.686-10.920 261.606C-10.920 261.486-10.960 261.366-11.120 261.166C-11.320 260.846-12.240 258.846-12.240 256.726C-12.240 254.606-11.040 250.846-10.760 248.486C-10.720 248.286-10.720 248.086-10.720 247.846C-10.720 245.486-12.040 242.646-13.200 241.926"></path><line stroke="#000000" stroke-width="1.6" x1="0" x2="0" y1="220.8461538461538" y2="261.8461538461538"></line></g></g><g><line stroke="black" stroke-width="1.6" x1="415.77910225403065" x2="415.77910225403065" y1="220.8461538461538" y2="261.8461538461538"></line><line stroke="black" stroke-width="5" x1="423.07910225403066" x2="423.07910225403066" y1="220.8461538461538" y2="261.8461538461538"></line></g><g><g><path d="M93.360 171.986C97.360 171.986 102.280 168.266 102.280 164.466C102.280 162.186 100.480 160.706 97.880 160.706C92.960 160.706 89 164.346 89 168.226C89 170.586 90.920 171.986 93.360 171.986"></path></g><line stroke="#000000" stroke-width="1.2" x1="89.6" x2="89.6" y1="168.18615384615381" y2="243.18615384615381"></line><line stroke="#000000" stroke-width="2.2" x1="85.8" x2="107.72" y1="211.3461538461538" y2="211.3461538461538"></line><line stroke="#000000" stroke-width="2.2" x1="85.8" x2="107.72" y1="201.3461538461538" y2="201.3461538461538"></line><line stroke="#000000" stroke-width="2.2" x1="85.8" x2="107.72" y1="191.3461538461538" y2="191.3461538461538"></line><line stroke="#000000" stroke-width="2.2" x1="85.8" x2="107.72" y1="181.3461538461538" y2="181.3461538461538"></line><line stroke="#000000" stroke-width="2.2" x1="85.8" x2="107.72" y1="171.3461538461538" y2="171.3461538461538"></line></g><g><g><path d="M178.937 166.986C182.937 166.986 187.857 163.266 187.857 159.466C187.857 157.186 186.057 155.706 183.457 155.706C178.537 155.706 174.577 159.346 174.577 163.226C174.577 165.586 176.497 166.986 178.937 166.986"></path><path d="M169.997 156.626C170.277 156.506 170.477 156.186 170.477 155.946L170.477 153.106C170.477 152.906 170.357 152.786 170.197 152.786C170.117 152.786 170.077 152.786 169.997 152.826C169.997 152.826 169.197 153.146 168.997 153.186C168.717 153.186 168.437 152.986 168.437 152.666C168.437 152.266 168.437 147.786 168.437 147.786C168.437 147.546 168.197 147.346 167.877 147.346C167.477 147.346 167.237 147.546 167.237 147.786C167.237 147.786 167.237 152.586 167.237 152.986C167.197 153.386 167.077 153.906 166.717 154.146C166.237 154.426 164.877 154.986 164.197 155.146C163.837 155.146 163.717 154.666 163.717 154.346C163.717 153.946 163.717 149.546 163.717 149.546C163.717 149.306 163.437 149.106 163.157 149.106C162.757 149.106 162.517 149.306 162.517 149.546C162.517 149.546 162.517 151.706 162.517 153.306L162.517 154.946C162.517 155.506 162.277 155.906 162.037 156.026C161.797 156.146 160.997 156.466 160.997 156.466C160.717 156.546 160.517 156.866 160.517 157.106L160.517 159.946C160.517 160.186 160.637 160.306 160.837 160.306C160.877 160.306 160.957 160.266 160.997 160.266C160.997 160.266 161.597 160.026 161.877 159.866C161.917 159.866 161.957 159.826 161.997 159.826C162.277 159.826 162.517 160.226 162.517 160.546L162.517 164.506C162.517 164.946 162.317 165.306 162.077 165.426C161.837 165.506 160.997 165.866 160.997 165.866C160.717 165.946 160.517 166.266 160.517 166.506L160.517 169.346C160.517 169.586 160.637 169.706 160.837 169.706C160.877 169.706 160.957 169.666 160.997 169.666C160.997 169.666 161.557 169.426 161.917 169.306C161.957 169.266 161.997 169.266 162.037 169.266C162.317 169.266 162.517 169.706 162.517 169.906C162.517 170.146 162.517 174.826 162.517 174.826C162.517 175.066 162.757 175.266 163.037 175.266C163.437 175.266 163.717 175.066 163.717 174.826C163.717 174.826 163.717 169.746 163.717 169.266C163.717 168.746 163.917 168.466 164.117 168.386L166.557 167.386C166.597 167.386 166.677 167.346 166.717 167.346C167.037 167.346 167.237 167.826 167.237 168.066C167.237 168.346 167.237 173.066 167.237 173.066C167.237 173.306 167.477 173.506 167.757 173.506C168.197 173.506 168.437 173.306 168.437 173.066C168.437 173.066 168.437 167.666 168.437 167.386C168.437 167.066 168.597 166.586 168.877 166.466C169.157 166.346 169.997 166.026 169.997 166.026C170.277 165.906 170.477 165.586 170.477 165.346L170.477 162.506C170.477 162.306 170.357 162.186 170.197 162.186C170.117 162.186 170.077 162.186 169.997 162.226C169.997 162.226 169.157 162.546 168.957 162.626C168.717 162.626 168.437 162.386 168.437 161.906L168.437 158.186C168.437 157.906 168.637 157.146 168.957 157.026C169.277 156.906 169.997 156.626 169.997 156.626M167.237 163.146C166.997 163.946 165.117 164.746 164.197 164.746C163.957 164.746 163.757 164.666 163.717 164.546C163.637 164.386 163.597 163.506 163.597 162.546C163.597 161.306 163.637 159.906 163.717 159.586C163.797 158.906 165.637 158.066 166.637 158.066C166.917 158.066 167.157 158.146 167.237 158.306C167.317 158.506 167.397 159.506 167.397 160.586C167.397 161.666 167.317 162.786 167.237 163.146"></path></g><line stroke="#000000" stroke-width="1.2" x1="175.17657760393078" x2="175.17657760393078" y1="163.18615384615381" y2="197.18615384615381"></line><line stroke="#000000" stroke-width="2.2" x1="171.3765776039308" x2="193.29657760393079" y1="211.3461538461538" y2="211.3461538461538"></line><line stroke="#000000" stroke-width="2.2" x1="171.3765776039308" x2="193.29657760393079" y1="201.3461538461538" y2="201.3461538461538"></line><line stroke="#000000" stroke-width="2.2" x1="171.3765776039308" x2="193.29657760393079" y1="191.3461538461538" y2="191.3461538461538"></line><line stroke="#000000" stroke-width="2.2" x1="171.3765776039308" x2="193.29657760393079" y1="181.3461538461538" y2="181.3461538461538"></line><line stroke="#000000" stroke-width="2.2" x1="171.3765776039308" x2="193.29657760393079" y1="171.3461538461538" y2="171.3461538461538"></line><line stroke="#000000" stroke-width="2.2" x1="171.3765776039308" x2="193.29657760393079" y1="161.3461538461538" y2="161.3461538461538"></line><g><polygon fill="black" points="175.17657760393078,198.3461538461538 207.89901436547305,193.3461538461538 207.89901436547305,188.3461538461538 175.17657760393078,193.3461538461538" stroke="black" stroke-width="0"></polygon><polygon fill="black" points="175.17657760393078,189.5461538461538 207.89901436547305,184.5461538461538 207.89901436547305,179.5461538461538 175.17657760393078,184.5461538461538" stroke="black" stroke-width="0"></polygon></g></g><g><g><path d="M211.659 161.986C215.659 161.986 220.579 158.266 220.579 154.466C220.579 152.186 218.779 150.706 216.179 150.706C211.259 150.706 207.299 154.346 207.299 158.226C207.299 160.586 209.219 161.986 211.659 161.986"></path></g><line stroke="#000000" stroke-width="1.2" x1="207.89901436547305" x2="207.89901436547305" y1="158.18615384615381" y2="192.18615384615381"></line><line stroke="#000000" stroke-width="2.2" x1="204.09901436547307" x2="226.01901436547305" y1="211.3461538461538" y2="211.3461538461538"></line><line stroke="#000000" stroke-width="2.2" x1="204.09901436547307" x2="226.01901436547305" y1="201.3461538461538" y2="201.3461538461538"></line><line stroke="#000000" stroke-width="2.2" x1="204.09901436547307" x2="226.01901436547305" y1="191.3461538461538" y2="191.3461538461538"></line><line stroke="#000000" stroke-width="2.2" x1="204.09901436547307" x2="226.01901436547305" y1="181.3461538461538" y2="181.3461538461538"></line><line stroke="#000000" stroke-width="2.2" x1="204.09901436547307" x2="226.01901436547305" y1="171.3461538461538" y2="171.3461538461538"></line><line stroke="#000000" stroke-width="2.2" x1="204.09901436547307" x2="226.01901436547305" y1="161.3461538461538" y2="161.3461538461538"></line></g><g><g><path d="M244.381 151.986C248.381 151.986 253.301 148.266 253.301 144.466C253.301 142.186 251.501 140.706 248.901 140.706C243.981 140.706 240.021 144.346 240.021 148.226C240.021 150.586 241.941 151.986 244.381 151.986"></path></g><line stroke="#000000" stroke-width="1.2" x1="240.62145112701532" x2="240.62145112701532" y1="148.18615384615381" y2="219.43615384615381"></line><line stroke="#000000" stroke-width="2.2" x1="236.82145112701534" x2="258.74145112701535" y1="211.3461538461538" y2="211.3461538461538"></line><line stroke="#000000" stroke-width="2.2" x1="236.82145112701534" x2="258.74145112701535" y1="201.3461538461538" y2="201.3461538461538"></line><line stroke="#000000" stroke-width="2.2" x1="236.82145112701534" x2="258.74145112701535" y1="191.3461538461538" y2="191.3461538461538"></line><line stroke="#000000" stroke-width="2.2" x1="236.82145112701534" x2="258.74145112701535" y1="181.3461538461538" y2="181.3461538461538"></line><line stroke="#000000" stroke-width="2.2" x1="236.82145112701534" x2="258.74145112701535" y1="171.3461538461538" y2="171.3461538461538"></line><line stroke="#000000" stroke-width="2.2" x1="236.82145112701534" x2="258.74145112701535" y1="161.3461538461538" y2="161.3461538461538"></line><line stroke="#000000" stroke-width="2.2" x1="236.82145112701534" x2="258.74145112701535" y1="151.3461538461538" y2="151.3461538461538"></line><path d="M249.621 186.516C250.221 189.876 250.221 193.516 248.701 196.636C245.941 202.236 242.701 202.356 240.221 202.436L240.021 202.436L240.021 218.276C240.021 218.276 240.461 218.316 240.701 218.316C240.941 218.316 241.421 218.236 241.501 217.796C242.461 211.636 250.341 209.916 251.301 203.636C251.381 203.196 251.421 202.716 251.421 202.196C251.421 199.756 250.541 197.356 250.421 197.116C250.381 197.036 250.381 196.956 250.381 196.836C250.381 196.676 250.421 196.596 250.421 196.476C251.861 193.476 251.901 189.556 251.261 186.356C251.061 185.436 250.781 185.476 250.301 185.476C249.821 185.516 249.501 185.836 249.621 186.516M249.061 199.716C249.261 199.716 249.541 199.836 249.581 199.996C249.781 200.276 249.781 200.676 249.861 200.996C249.901 201.276 249.901 201.556 249.901 201.796C249.901 203.116 249.541 204.316 248.821 205.356C247.501 207.316 244.941 209.556 242.501 209.556L242.181 209.556C241.861 209.556 241.621 209.356 241.621 209.156C241.621 209.116 241.621 209.076 241.661 209.036C242.501 205.756 244.741 204.836 246.621 202.636C247.461 201.716 248.141 200.916 248.781 199.876C248.861 199.756 248.941 199.716 249.061 199.716"></path></g><g><g><path d="M255.781 161.986C259.781 161.986 264.701 158.266 264.701 154.466C264.701 152.186 262.901 150.706 260.301 150.706C255.381 150.706 251.421 154.346 251.421 158.226C251.421 160.586 253.341 161.986 255.781 161.986"></path></g><line stroke="#000000" stroke-width="1.2" x1="252.02145112701535" x2="252.02145112701535" y1="158.18615384615381" y2="221.93615384615381"></line><line stroke="#000000" stroke-width="2.2" x1="248.22145112701537" x2="270.1414511270154" y1="211.3461538461538" y2="211.3461538461538"></line><line stroke="#000000" stroke-width="2.2" x1="248.22145112701537" x2="270.1414511270154" y1="201.3461538461538" y2="201.3461538461538"></line><line stroke="#000000" stroke-width="2.2" x1="248.22145112701537" x2="270.1414511270154" y1="191.3461538461538" y2="191.3461538461538"></line><line stroke="#000000" stroke-width="2.2" x1="248.22145112701537" x2="270.1414511270154" y1="181.3461538461538" y2="181.3461538461538"></line><line stroke="#000000" stroke-width="2.2" x1="248.22145112701537" x2="270.1414511270154" y1="171.3461538461538" y2="171.3461538461538"></line><line stroke="#000000" stroke-width="2.2" x1="248.22145112701537" x2="270.1414511270154" y1="161.3461538461538" y2="161.3461538461538"></line><path d="M261.021 189.016C261.621 192.376 261.621 196.016 260.101 199.136C257.341 204.736 254.101 204.856 251.621 204.936L251.421 204.936L251.421 220.776C251.421 220.776 251.861 220.816 252.101 220.816C252.341 220.816 252.821 220.736 252.901 220.296C253.861 214.136 261.741 212.416 262.701 206.136C262.781 205.696 262.821 205.216 262.821 204.696C262.821 202.256 261.941 199.856 261.821 199.616C261.781 199.536 261.781 199.456 261.781 199.336C261.781 199.176 261.821 199.096 261.821 198.976C263.261 195.976 263.301 192.056 262.661 188.856C262.461 187.936 262.181 187.976 261.701 187.976C261.221 188.016 260.901 188.336 261.021 189.016M260.461 202.216C260.661 202.216 260.941 202.336 260.981 202.496C261.181 202.776 261.181 203.176 261.261 203.496C261.301 203.776 261.301 204.056 261.301 204.296C261.301 205.616 260.941 206.816 260.221 207.856C258.901 209.816 256.341 212.056 253.901 212.056L253.581 212.056C253.261 212.056 253.021 211.856 253.021 211.656C253.021 211.616 253.021 211.576 253.061 211.536C253.901 208.256 256.141 207.336 258.021 205.136C258.861 204.216 259.541 203.416 260.181 202.376C260.261 202.256 260.341 202.216 260.461 202.216"></path></g><g><g><path d="M267.181 156.986C271.181 156.986 276.101 153.266 276.101 149.466C276.101 147.186 274.301 145.706 271.701 145.706C266.781 145.706 262.821 149.346 262.821 153.226C262.821 155.586 264.741 156.986 267.181 156.986"></path></g><line stroke="#000000" stroke-width="1.2" x1="263.42145112701536" x2="263.42145112701536" y1="153.18615384615381" y2="220.68615384615381"></line><line stroke="#000000" stroke-width="2.2" x1="259.62145112701535" x2="281.54145112701536" y1="211.3461538461538" y2="211.3461538461538"></line><line stroke="#000000" stroke-width="2.2" x1="259.62145112701535" x2="281.54145112701536" y1="201.3461538461538" y2="201.3461538461538"></line><line stroke="#000000" stroke-width="2.2" x1="259.62145112701535" x2="281.54145112701536" y1="191.3461538461538" y2="191.3461538461538"></line><line stroke="#000000" stroke-width="2.2" x1="259.62145112701535" x2="281.54145112701536" y1="181.3461538461538" y2="181.3461538461538"></line><line stroke="#000000" stroke-width="2.2" x1="259.62145112701535" x2="281.54145112701536" y1="171.3461538461538" y2="171.3461538461538"></line><line stroke="#000000" stroke-width="2.2" x1="259.62145112701535" x2="281.54145112701536" y1="161.3461538461538" y2="161.3461538461538"></line><line stroke="#000000" stroke-width="2.2" x1="259.62145112701535" x2="281.54145112701536" y1="151.3461538461538" y2="151.3461538461538"></line><path d="M272.421 187.766C273.021 191.126 273.021 194.766 271.501 197.886C268.741 203.486 265.501 203.606 263.021 203.686L262.821 203.686L262.821 219.526C262.821 219.526 263.261 219.566 263.501 219.566C263.741 219.566 264.221 219.486 264.301 219.046C265.261 212.886 273.141 211.166 274.101 204.886C274.181 204.446 274.221 203.966 274.221 203.446C274.221 201.006 273.341 198.606 273.221 198.366C273.181 198.286 273.181 198.206 273.181 198.086C273.181 197.926 273.221 197.846 273.221 197.726C274.661 194.726 274.701 190.806 274.061 187.606C273.861 186.686 273.581 186.726 273.101 186.726C272.621 186.766 272.301 187.086 272.421 187.766M271.861 200.966C272.061 200.966 272.341 201.086 272.381 201.246C272.581 201.526 272.581 201.926 272.661 202.246C272.701 202.526 272.701 202.806 272.701 203.046C272.701 204.366 272.341 205.566 271.621 206.606C270.301 208.566 267.741 210.806 265.301 210.806L264.981 210.806C264.661 210.806 264.421 210.606 264.421 210.406C264.421 210.366 264.421 210.326 264.461 210.286C265.301 207.006 267.541 206.086 269.421 203.886C270.261 202.966 270.941 202.166 271.581 201.126C271.661 201.006 271.741 200.966 271.861 200.966"></path></g><g><path d="M283.621 234.666C283.541 234.666 283.421 234.666 283.181 234.826C282.901 235.066 280.901 237.466 279.581 237.466L279.581 237.066C279.581 235.586 278.381 234.386 276.901 234.386C275.421 234.386 274.221 235.586 274.221 237.066C274.221 237.906 274.701 238.626 275.301 239.106C275.661 239.346 276.021 239.546 276.421 239.626C276.741 239.706 277.101 239.786 277.461 239.786C278.021 239.786 278.581 239.666 279.021 239.506C279.581 239.346 279.941 239.186 280.461 238.906C280.541 238.866 280.621 238.866 280.661 238.866C280.821 238.866 280.861 239.026 280.861 239.226C280.861 239.346 280.861 239.506 280.821 239.666C280.701 240.266 277.821 248.226 277.101 250.866C277.101 251.346 278.021 251.386 278.261 251.386C278.701 251.386 279.261 251.306 279.661 250.986C279.781 250.906 283.701 236.866 283.701 236.866C283.861 236.146 284.061 235.506 284.101 235.306C284.101 234.786 283.701 234.706 283.621 234.666"></path></g><g><path d="M337.639 234.666C337.559 234.666 337.439 234.666 337.199 234.826C336.919 235.066 334.919 237.466 333.599 237.466L333.599 237.066C333.599 235.586 332.399 234.386 330.919 234.386C329.439 234.386 328.239 235.586 328.239 237.066C328.239 237.906 328.719 238.626 329.319 239.106C329.679 239.346 330.039 239.546 330.439 239.626C330.759 239.706 331.119 239.786 331.479 239.786C332.039 239.786 332.599 239.666 333.039 239.506C333.599 239.346 333.959 239.186 334.479 238.906C334.559 238.866 334.639 238.866 334.679 238.866C334.839 238.866 334.879 239.026 334.879 239.226C334.879 239.346 334.879 239.506 334.839 239.666C334.719 240.266 331.839 248.226 331.119 250.866C331.119 251.346 332.039 251.386 332.279 251.386C332.719 251.386 333.279 251.306 333.679 250.986C333.799 250.906 337.719 236.866 337.719 236.866C337.879 236.146 338.079 235.506 338.119 235.306C338.119 234.786 337.719 234.706 337.639 234.666"></path></g><g><path d="M394.657 234.466C394.457 234.466 394.337 234.546 394.217 234.626C393.937 234.866 391.937 237.266 390.577 237.306L390.577 236.906C390.577 235.386 389.377 234.186 387.857 234.186C386.377 234.186 385.137 235.386 385.137 236.906C385.137 237.706 385.617 238.466 386.257 238.946C386.577 239.186 386.977 239.386 387.377 239.506C387.657 239.586 387.977 239.626 388.337 239.626C388.897 239.626 389.537 239.506 390.017 239.346C390.577 239.186 390.937 239.026 391.457 238.746C391.577 238.706 391.657 238.666 391.737 238.666C391.857 238.666 391.937 238.746 391.937 238.946C391.937 239.066 391.897 239.266 391.817 239.546C391.737 239.866 389.977 245.386 389.617 246.146C389.297 246.906 388.217 247.386 387.657 247.386C387.697 247.226 387.697 247.106 387.697 246.986C387.697 245.466 386.457 244.266 384.977 244.266C383.457 244.266 382.257 245.466 382.257 246.986C382.257 247.786 382.737 248.546 383.377 249.026C383.697 249.266 384.057 249.466 384.457 249.586C384.777 249.666 385.097 249.706 385.457 249.706C386.017 249.706 386.657 249.586 387.137 249.426C387.697 249.266 387.937 249.146 388.457 248.866C388.537 248.866 388.617 248.946 388.617 249.066C388.617 249.106 388.577 249.146 388.577 249.186L384.777 260.506C384.777 260.546 384.737 260.586 384.737 260.626C384.737 260.946 385.097 261.346 385.977 261.346C387.137 261.346 387.337 260.866 387.497 260.426L392.137 245.186C393.177 241.786 393.937 239.106 393.937 239.106C393.937 239.106 394.937 235.586 395.017 235.066C395.017 234.986 395.057 234.946 395.057 234.906C395.057 234.586 394.737 234.506 394.657 234.466"></path></g></g></svg>