<?xml version="1.0" encoding="UTF-8" standalone="no"?><svg xmlns="http://www.w3.org/2000/svg" height="279.4mm" viewBox="0 0 1328.6153846153845 1719.3846153846152" width="215.9mm"><g transform="translate(163.84615384615387)"><g><g><line stroke="#6A6A6A" stroke-width="1.3" x1="0" x2="364.5328805171556" y1="216.3461538461538" y2="216.3461538461538"></line><line stroke="#6A6A6A" stroke-width="1.3" x1="0" x2="364.5328805171556" y1="206.3461538461538" y2="206.3461538461538"></line><line stroke="#6A6A6A" stroke-width="1.3" x1="0" x2="364.5328805171556" y1="196.3461538461538" y2="196.3461538461538"></line><line stroke="#6A6A6A" stroke-width="1.3" x1="0" x2="364.5328805171556" y1="186.3461538461538" y2="186.3461538461538"></line><line stroke="#6A6A6A" stroke-width="1.3" x1="0" x2="364.5328805171556" y1="176.3461538461538" y2="176.3461538461538"></line></g><g><path d="M25.200 162.426C24.640 162.426 23.400 163.466 22.600 164.346C19.640 167.626 18.680 172.626 18.680 176.786C18.680 179.106 18.960 181.706 19.240 183.346C19.320 183.826 19.360 183.906 18.880 184.306C16.320 186.426 13.560 188.866 11.480 191.426C8.720 194.866 7 198.586 7 202.866C7 209.826 11.760 216.426 21.560 216.426C22.480 216.426 23.520 216.346 24.320 216.186C24.760 216.106 24.840 216.066 24.920 216.546C25.400 219.226 26 222.706 26 224.586C26 230.506 22 231.226 19.640 231.226C17.480 231.226 16.440 230.586 16.440 230.066C16.440 229.626 16.800 229.666 17.720 229.386C18.960 229.026 20.400 227.946 20.400 225.626C20.400 223.426 19 221.546 16.560 221.546C13.880 221.546 12.280 223.666 12.280 226.146C12.280 228.746 13.840 232.666 19.880 232.666C22.560 232.666 27.760 231.466 27.760 224.666C27.760 222.386 27.040 218.586 26.600 216.106C26.520 215.626 26.560 215.666 27.120 215.426C31.160 213.826 33.840 210.426 33.840 205.906C33.840 200.786 30.080 196.266 24.200 196.266C23.080 196.266 23.200 196.466 23.040 195.546L22.040 189.746C21.960 189.266 22.040 189.226 22.280 188.986C22.920 188.386 23.760 187.546 24.520 186.706C27.880 183.026 29.880 178.266 29.880 173.746C29.880 170.266 28.920 166.826 27.280 164.426C26.680 163.546 25.640 162.426 25.200 162.426ZM20.040 190.586C20.440 190.266 20.520 190.306 20.600 190.746L21.440 195.866C21.560 196.626 21.560 196.586 20.840 196.826C17.320 198.026 15.040 201.186 15.040 204.586C15.040 208.186 16.920 210.746 19.640 211.666C19.960 211.786 20.440 211.906 20.720 211.906C21.040 211.906 21.200 211.706 21.200 211.466C21.200 211.186 20.880 211.066 20.600 210.946C18.920 210.226 17.720 208.506 17.720 206.666C17.720 204.386 19.280 202.666 21.720 201.986C22.360 201.826 22.440 201.866 22.520 202.306L24.520 214.226C24.600 214.666 24.560 214.666 23.960 214.786C23.320 214.906 22.520 214.986 21.720 214.986C14.720 214.986 10.200 211.106 10.200 205.546C10.200 203.186 10.600 200.026 13.920 196.266C16.320 193.586 18.160 192.106 20.040 190.586ZM24.640 201.666C27.880 201.946 30.560 204.666 30.560 208.186C30.560 210.706 29.040 212.746 26.800 213.866C26.320 214.106 26.240 214.106 26.160 213.626L24.200 202.226C24.120 201.746 24.160 201.626 24.640 201.666ZM25.800 168.626C27.120 168.626 28.200 169.706 28.200 171.906C28.200 174.666 26.880 177.226 23.760 180.346C23.120 180.986 22.160 181.906 21.240 182.706C20.960 182.946 20.800 182.906 20.720 182.386C20.560 181.346 20.480 179.986 20.480 178.706C20.480 172.466 23.360 168.626 25.800 168.626Z"></path></g><g></g><path d="M57.820 186.306C56.620 186.306 55.220 186.626 54.140 187.106C50.580 188.666 48.700 192.946 48.700 196.746C48.700 197.106 48.700 197.466 48.740 197.826C48.940 199.986 49.980 202.026 51.300 203.626C52.820 205.466 55.020 206.306 57.420 206.306C64.420 206.306 65.460 199.946 65.460 198.786C65.460 197.906 65.020 197.906 64.860 197.906C64.540 197.906 64.260 197.946 64.260 198.626C64.260 203.786 59.860 204.986 58.580 204.986C55.340 204.986 53.620 201.826 53.620 195.226C53.620 188.626 56.660 187.266 58.820 187.266C60.900 187.266 61.740 188.226 61.740 188.626C61.740 188.986 61.620 189.506 61.020 189.506C59.420 189.506 58.500 191.226 58.500 192.466C58.500 194.746 60.460 195.466 61.580 195.466C61.580 195.466 64.620 195.346 64.620 192.026C64.620 186.786 58.580 186.306 57.820 186.306Z"></path></g><g><line stroke="black" stroke-width="1.6" x1="365.3328805171556" x2="365.3328805171556" y1="176.3461538461538" y2="216.3461538461538"></line></g><g><g><path d="M109.960 231.986C113.960 231.986 118.880 228.266 118.880 224.466C118.880 222.186 117.080 220.706 114.480 220.706C109.560 220.706 105.600 224.346 105.600 228.226C105.600 230.586 107.520 231.986 109.960 231.986Z"></path><path d="M90.900 233.266C90.900 233.266 90.980 233.346 91.100 233.346C91.180 233.346 91.340 233.306 91.460 233.146C91.780 232.746 91.980 209.906 91.980 209.906C91.940 209.186 91.260 208.826 90.700 208.826C90.300 208.826 89.940 209.026 89.940 209.466L90.260 220.746C90.260 221.066 90.100 221.346 89.820 221.426C89.740 221.466 89.700 221.466 89.620 221.466C89.300 221.466 89.020 221.106 88.700 220.906C88.300 220.666 87.860 220.506 87.460 220.346C87.420 220.346 87.380 220.306 87.340 220.306C87.060 220.266 86.820 220.226 86.540 220.226C84.660 220.306 82.900 221.826 82.900 224.026C82.900 225.906 84.180 228.346 87.780 230.866C88.700 231.506 89.660 232.626 90.900 233.266ZM90.140 224.346C90.180 224.506 90.220 224.986 90.220 225.626C90.220 227.186 90.100 229.546 90.100 229.546C90.100 229.786 90.020 230.186 89.660 230.186C89.540 230.186 89.420 230.146 89.260 230.066C88.020 229.266 86.900 228.026 86.340 227.066C85.900 226.226 85.700 225.386 85.700 224.666C85.700 223.906 85.940 223.226 86.300 222.786C86.580 222.506 86.940 222.346 87.340 222.346C87.660 222.346 87.980 222.426 88.380 222.626C88.940 222.946 89.980 223.786 90.140 224.346ZM92.940 233.146C93.060 233.306 93.180 233.346 93.300 233.346C93.420 233.346 93.540 233.266 93.540 233.266C94.740 232.626 95.740 231.506 96.660 230.826C100.220 228.346 101.500 225.906 101.500 224.026C101.500 221.786 99.700 220.306 97.900 220.226C97.620 220.226 97.380 220.266 97.100 220.306C96.620 220.466 96.180 220.626 95.740 220.906C95.420 221.106 95.140 221.466 94.820 221.466C94.740 221.466 94.700 221.466 94.620 221.426C94.340 221.346 94.180 221.066 94.180 220.746L94.500 209.466C94.500 208.986 94.140 208.786 93.740 208.786C93.180 208.786 92.500 209.186 92.460 209.906C92.460 209.906 92.620 232.746 92.940 233.146ZM94.340 229.546C94.340 229.546 94.220 227.186 94.220 225.626C94.220 224.986 94.260 224.506 94.300 224.346C94.460 223.786 95.500 222.946 96.100 222.626C96.460 222.426 96.820 222.346 97.140 222.346C97.540 222.346 97.900 222.506 98.140 222.786C98.500 223.226 98.700 223.866 98.700 224.666C98.700 225.386 98.540 226.226 98.100 227.066C97.540 228.026 96.380 229.266 95.140 230.066C94.980 230.146 94.900 230.186 94.780 230.186C94.460 230.186 94.340 229.786 94.340 229.546Z"></path></g><line stroke="#000000" stroke-width="1.2" x1="118.28020000000001" x2="118.28020000000001" y1="224.5061538461538" y2="189.5061538461538"></line><line stroke="#000000" stroke-width="2.2" x1="102.4002" x2="124.3202" y1="226.3461538461538" y2="226.3461538461538"></line></g><g><g><path d="M176.416 226.986C180.416 226.986 185.336 223.266 185.336 219.466C185.336 217.186 183.536 215.706 180.936 215.706C176.016 215.706 172.056 219.346 172.056 223.226C172.056 225.586 173.976 226.986 176.416 226.986Z"></path><path d="M169.536 228.146C169.856 227.746 170.016 204.906 170.016 204.906C169.976 204.186 169.336 203.786 168.776 203.786C168.376 203.786 168.016 204.026 168.016 204.466C168.016 205.266 168.256 214.866 168.296 215.746C168.296 216.026 168.136 216.306 167.856 216.426C167.776 216.466 167.736 216.466 167.656 216.466C167.296 216.466 167.016 216.106 166.776 215.906C166.336 215.626 165.856 215.466 165.416 215.346C165.136 215.266 164.856 215.226 164.576 215.226C162.736 215.346 160.976 216.786 160.976 218.986C160.976 220.906 162.216 223.346 165.776 225.826C166.776 226.506 167.736 227.586 168.936 228.266C168.936 228.266 169.056 228.346 169.176 228.346C169.296 228.346 169.416 228.306 169.536 228.146ZM168.136 224.586C168.136 224.786 168.056 225.186 167.696 225.186C167.576 225.186 167.456 225.146 167.296 225.066C166.096 224.306 164.936 223.026 164.416 222.066C163.936 221.226 163.736 220.386 163.736 219.666C163.736 218.906 163.976 218.226 164.376 217.786C164.616 217.506 164.976 217.346 165.376 217.346C165.696 217.346 166.056 217.426 166.416 217.626C166.976 217.946 168.016 218.826 168.176 219.306C168.216 219.466 168.256 219.946 168.256 220.586C168.256 222.186 168.136 224.586 168.136 224.586Z"></path></g><line stroke="#000000" stroke-width="1.2" x1="184.73617012928892" x2="184.73617012928892" y1="219.5061538461538" y2="184.5061538461538"></line></g><g><g><path d="M241.471 221.986C245.471 221.986 250.391 218.266 250.391 214.466C250.391 212.186 248.591 210.706 245.991 210.706C241.071 210.706 237.111 214.346 237.111 218.226C237.111 220.586 239.031 221.986 241.471 221.986Z"></path><path d="M235.071 209.666C235.071 209.466 234.911 209.346 234.751 209.346C234.711 209.346 234.631 209.346 234.591 209.386C234.591 209.386 232.671 210.106 232.591 210.106C232.231 210.106 232.071 209.666 232.071 209.306L232.071 204.506C232.071 204.266 231.831 204.066 231.511 204.066C230.911 204.066 230.831 204.426 230.831 204.746L230.831 208.426L230.831 209.946C230.831 210.266 230.711 210.746 230.431 210.986C229.711 211.266 229.071 211.586 228.391 211.866C228.151 211.946 227.911 212.266 227.911 212.506L227.911 215.346C227.911 215.586 228.031 215.706 228.231 215.706C228.271 215.706 228.351 215.666 228.391 215.666C228.391 215.666 229.951 214.986 230.271 214.866C230.311 214.866 230.351 214.826 230.391 214.826C230.631 214.826 230.871 215.186 230.871 215.506L230.871 219.506C230.871 219.946 230.711 220.306 230.471 220.386C230.191 220.506 228.391 221.266 228.391 221.266C228.151 221.346 227.911 221.666 227.911 221.906L227.911 224.746C227.911 224.986 228.031 225.106 228.231 225.106C228.271 225.106 228.351 225.066 228.391 225.066C228.391 225.066 229.911 224.426 230.271 224.266L230.271 224.266C230.471 224.186 230.831 224.706 230.831 225.026L230.831 230.026C230.831 230.266 231.071 230.466 231.391 230.466C231.991 230.466 232.071 230.186 232.071 229.786L232.071 224.266C232.071 224.146 232.071 224.066 232.111 223.946C232.151 223.706 232.311 223.466 232.471 223.386C232.791 223.306 234.591 222.586 234.591 222.586C234.831 222.506 235.071 222.186 235.071 221.946L235.071 219.106C235.071 218.866 234.951 218.746 234.751 218.746C234.711 218.746 234.631 218.786 234.591 218.786C234.591 218.786 232.751 219.506 232.591 219.546C232.311 219.546 232.031 219.306 232.031 218.866L232.031 215.146C232.031 214.826 232.231 214.106 232.551 213.986C232.911 213.826 234.591 213.186 234.591 213.186C234.831 213.066 235.071 212.786 235.071 212.506Z"></path></g><line stroke="#000000" stroke-width="1.2" x1="249.79054025857783" x2="249.79054025857783" y1="214.5061538461538" y2="179.5061538461538"></line></g><g><g><path d="M310.555 216.986C314.555 216.986 319.475 213.266 319.475 209.466C319.475 207.186 317.675 205.706 315.075 205.706C310.155 205.706 306.195 209.346 306.195 213.226C306.195 215.586 308.115 216.986 310.555 216.986Z"></path><path d="M303.835 205.746C304.035 205.706 304.155 205.586 304.155 205.426L304.155 202.346C304.155 202.186 304.075 202.026 303.915 202.026C303.835 202.026 302.595 202.466 302.395 202.546C302.355 202.586 302.315 202.586 302.275 202.586C302.195 202.586 302.115 202.506 302.115 202.306C302.115 202.026 302.115 197.226 302.115 197.226C302.115 196.666 301.995 196.586 301.475 196.586C300.955 196.586 300.835 196.706 300.835 197.226C300.835 197.226 300.835 201.986 300.835 202.506C300.835 203.026 300.755 203.186 300.515 203.266C300.355 203.346 299.435 203.666 298.915 203.906C298.595 203.906 298.515 203.746 298.515 203.546C298.515 203.306 298.515 198.466 298.515 198.466C298.515 197.906 298.395 197.826 297.875 197.826C297.355 197.826 297.235 197.946 297.235 198.466C297.235 198.466 297.235 203.746 297.235 204.026C297.235 204.306 297.155 204.546 296.875 204.666L295.155 205.306C295.115 205.306 295.075 205.346 295.035 205.346C294.875 205.346 294.755 205.226 294.755 204.986C294.755 204.746 294.755 199.666 294.755 199.666C294.755 199.146 294.635 199.026 294.115 199.026C293.595 199.026 293.475 199.146 293.475 199.666C293.475 199.666 293.475 205.066 293.475 205.466C293.475 205.866 293.355 205.986 293.155 206.066C292.955 206.146 291.915 206.546 291.915 206.546C291.715 206.626 291.595 206.706 291.595 206.866L291.595 209.946C291.595 210.106 291.715 210.266 291.835 210.266C291.915 210.266 292.755 209.986 293.075 209.826C293.155 209.786 293.195 209.786 293.235 209.786C293.435 209.786 293.475 209.946 293.475 210.186L293.475 214.826C293.475 215.146 293.275 215.426 293.075 215.506C292.875 215.586 291.915 215.946 291.915 215.946C291.715 216.026 291.595 216.106 291.595 216.266L291.595 219.386C291.595 219.546 291.715 219.706 291.875 219.706C291.915 219.706 292.595 219.426 292.955 219.306C293.035 219.266 293.115 219.266 293.195 219.266C293.395 219.266 293.475 219.386 293.475 219.626C293.475 219.986 293.475 224.586 293.475 224.586C293.475 225.106 293.595 225.226 294.115 225.226C294.635 225.226 294.755 225.106 294.755 224.586C294.755 224.586 294.755 219.306 294.755 219.066C294.755 218.826 294.835 218.586 294.995 218.546L296.915 217.786C297.155 217.786 297.235 217.866 297.235 218.106C297.235 218.426 297.235 223.346 297.235 223.346C297.235 223.906 297.355 223.986 297.875 223.986C298.395 223.986 298.515 223.866 298.515 223.346C298.515 223.346 298.515 217.986 298.515 217.666C298.515 217.346 298.675 217.106 298.915 217.026L300.355 216.506C300.435 216.466 300.515 216.426 300.595 216.426C300.755 216.426 300.835 216.546 300.835 216.746C300.835 217.026 300.835 222.106 300.835 222.106C300.835 222.666 300.955 222.746 301.475 222.746C301.995 222.746 302.115 222.626 302.115 222.106C302.115 222.106 302.115 216.426 302.115 216.186C302.115 215.946 302.315 215.746 302.435 215.706C302.555 215.666 303.835 215.186 303.835 215.186C304.035 215.106 304.155 215.026 304.155 214.866L304.155 211.746C304.155 211.626 304.075 211.426 303.915 211.426C303.835 211.426 302.795 211.826 302.555 211.946C302.515 211.946 302.475 211.986 302.435 211.986C302.235 211.986 302.115 211.786 302.115 211.506L302.115 206.826C302.115 206.546 302.155 206.386 302.355 206.306C302.515 206.266 303.835 205.746 303.835 205.746ZM294.755 214.866C294.635 214.706 294.635 213.746 294.635 212.666C294.635 211.186 294.675 209.466 294.755 209.186C294.875 208.826 296.475 208.186 297.035 208.186C297.155 208.186 297.195 208.226 297.235 208.266C297.315 208.386 297.355 209.506 297.355 210.746C297.355 212.146 297.315 213.706 297.235 213.946C297.115 214.346 295.595 214.946 294.995 214.946C294.875 214.946 294.795 214.906 294.755 214.866ZM300.835 212.586C300.715 212.906 299.435 213.506 298.875 213.506C298.755 213.506 298.675 213.466 298.635 213.426C298.555 213.306 298.515 212.106 298.515 210.826C298.515 209.426 298.555 207.946 298.635 207.746C298.795 207.426 300.235 206.826 300.715 206.826C300.755 206.826 300.835 206.866 300.835 206.866C300.915 206.986 300.955 208.026 300.955 209.186C300.955 210.666 300.915 212.386 300.835 212.586Z"></path></g><line stroke="#000000" stroke-width="1.2" x1="318.87451038786674" x2="318.87451038786674" y1="209.5061538461538" y2="174.5061538461538"></line></g></g><g transform="translate(544.9790343633094)"><g><g><line stroke="#6A6A6A" stroke-width="1.3" x1="-16.600000000000023" x2="284.62908051715567" y1="216.3461538461538" y2="216.3461538461538"></line><line stroke="#6A6A6A" stroke-width="1.3" x1="-16.600000000000023" x2="284.62908051715567" y1="206.3461538461538" y2="206.3461538461538"></line><line stroke="#6A6A6A" stroke-width="1.3" x1="-16.600000000000023" x2="284.62908051715567" y1="196.3461538461538" y2="196.3461538461538"></line><line stroke="#6A6A6A" stroke-width="1.3" x1="-16.600000000000023" x2="284.62908051715567" y1="186.3461538461538" y2="186.3461538461538"></line><line stroke="#6A6A6A" stroke-width="1.3" x1="-16.600000000000023" x2="284.62908051715567" y1="176.3461538461538" y2="176.3461538461538"></line></g></g><g><line stroke="#000000" stroke-width="1.6" x1="274.8290805171556" x2="274.8290805171556" y1="176.3461538461538" y2="216.3461538461538"></line><line stroke="#000000" stroke-width="5" x1="282.1290805171556" x2="282.1290805171556" y1="176.3461538461538" y2="216.3461538461538"></line></g><g><g><path d="M19.456 196.986C23.456 196.986 28.376 193.266 28.376 189.466C28.376 187.186 26.576 185.706 23.976 185.706C19.056 185.706 15.096 189.346 15.096 193.226C15.096 195.586 17.016 196.986 19.456 196.986Z"></path><path d="M2.456 198.266C2.456 198.266 2.536 198.346 2.656 198.346C2.736 198.346 2.896 198.306 3.016 198.146C3.336 197.746 3.536 174.906 3.536 174.906C3.496 174.186 2.816 173.826 2.256 173.826C1.856 173.826 1.496 174.026 1.496 174.466L1.816 185.746C1.816 186.066 1.656 186.346 1.376 186.426C1.296 186.466 1.256 186.466 1.176 186.466C0.856 186.466 0.576 186.106 0.256 185.906C-0.144 185.666-0.584 185.506-0.984 185.346C-1.024 185.346-1.064 185.306-1.104 185.306C-1.384 185.266-1.624 185.226-1.904 185.226C-3.784 185.306-5.544 186.826-5.544 189.026C-5.544 190.906-4.264 193.346-0.664 195.866C0.256 196.506 1.216 197.626 2.456 198.266ZM1.696 189.346C1.736 189.506 1.776 189.986 1.776 190.626C1.776 192.186 1.656 194.546 1.656 194.546C1.656 194.786 1.576 195.186 1.216 195.186C1.096 195.186 0.976 195.146 0.816 195.066C-0.424 194.266-1.544 193.026-2.104 192.066C-2.544 191.226-2.744 190.386-2.744 189.666C-2.744 188.906-2.504 188.226-2.144 187.786C-1.864 187.506-1.504 187.346-1.104 187.346C-0.784 187.346-0.464 187.426-0.064 187.626C0.496 187.946 1.536 188.786 1.696 189.346ZM4.496 198.146C4.616 198.306 4.736 198.346 4.856 198.346C4.976 198.346 5.096 198.266 5.096 198.266C6.296 197.626 7.296 196.506 8.216 195.826C11.776 193.346 13.056 190.906 13.056 189.026C13.056 186.786 11.256 185.306 9.456 185.226C9.176 185.226 8.936 185.266 8.656 185.306C8.176 185.466 7.736 185.626 7.296 185.906C6.976 186.106 6.696 186.466 6.376 186.466C6.296 186.466 6.256 186.466 6.176 186.426C5.896 186.346 5.736 186.066 5.736 185.746L6.056 174.466C6.056 173.986 5.696 173.786 5.296 173.786C4.736 173.786 4.056 174.186 4.016 174.906C4.016 174.906 4.176 197.746 4.496 198.146ZM5.896 194.546C5.896 194.546 5.776 192.186 5.776 190.626C5.776 189.986 5.816 189.506 5.856 189.346C6.016 188.786 7.056 187.946 7.656 187.626C8.016 187.426 8.376 187.346 8.696 187.346C9.096 187.346 9.456 187.506 9.696 187.786C10.056 188.226 10.256 188.866 10.256 189.666C10.256 190.386 10.096 191.226 9.656 192.066C9.096 193.026 7.936 194.266 6.696 195.066C6.536 195.146 6.456 195.186 6.336 195.186C6.016 195.186 5.896 194.786 5.896 194.546Z"></path></g><line stroke="#000000" stroke-width="1.2" x1="15.696399999999999" x2="15.696399999999999" y1="193.18615384615381" y2="228.18615384615381"></line></g><g><g><path d="M85.912 191.986C89.912 191.986 94.832 188.266 94.832 184.466C94.832 182.186 93.032 180.706 90.432 180.706C85.512 180.706 81.552 184.346 81.552 188.226C81.552 190.586 83.472 191.986 85.912 191.986Z"></path><path d="M79.032 193.146C79.352 192.746 79.512 169.906 79.512 169.906C79.472 169.186 78.832 168.786 78.272 168.786C77.872 168.786 77.512 169.026 77.512 169.466C77.512 170.266 77.752 179.866 77.792 180.746C77.792 181.026 77.632 181.306 77.352 181.426C77.272 181.466 77.232 181.466 77.152 181.466C76.792 181.466 76.512 181.106 76.272 180.906C75.832 180.626 75.352 180.466 74.912 180.346C74.632 180.266 74.352 180.226 74.072 180.226C72.232 180.346 70.472 181.786 70.472 183.986C70.472 185.906 71.712 188.346 75.272 190.826C76.272 191.506 77.232 192.586 78.432 193.266C78.432 193.266 78.552 193.346 78.672 193.346C78.792 193.346 78.912 193.306 79.032 193.146ZM77.632 189.586C77.632 189.786 77.552 190.186 77.192 190.186C77.072 190.186 76.952 190.146 76.792 190.066C75.592 189.306 74.432 188.026 73.912 187.066C73.432 186.226 73.232 185.386 73.232 184.666C73.232 183.906 73.472 183.226 73.872 182.786C74.112 182.506 74.472 182.346 74.872 182.346C75.192 182.346 75.552 182.426 75.912 182.626C76.472 182.946 77.512 183.826 77.672 184.306C77.712 184.466 77.752 184.946 77.752 185.586C77.752 187.186 77.632 189.586 77.632 189.586Z"></path></g><line stroke="#000000" stroke-width="1.2" x1="82.1523701292889" x2="82.1523701292889" y1="188.18615384615381" y2="223.18615384615381"></line></g><g><g><path d="M150.967 186.986C154.967 186.986 159.887 183.266 159.887 179.466C159.887 177.186 158.087 175.706 155.487 175.706C150.567 175.706 146.607 179.346 146.607 183.226C146.607 185.586 148.527 186.986 150.967 186.986Z"></path><path d="M144.567 174.666C144.567 174.466 144.407 174.346 144.247 174.346C144.207 174.346 144.127 174.346 144.087 174.386C144.087 174.386 142.167 175.106 142.087 175.106C141.727 175.106 141.567 174.666 141.567 174.306L141.567 169.506C141.567 169.266 141.327 169.066 141.007 169.066C140.407 169.066 140.327 169.426 140.327 169.746L140.327 173.426L140.327 174.946C140.327 175.266 140.207 175.746 139.927 175.986C139.207 176.266 138.567 176.586 137.887 176.866C137.647 176.946 137.407 177.266 137.407 177.506L137.407 180.346C137.407 180.586 137.527 180.706 137.727 180.706C137.767 180.706 137.847 180.666 137.887 180.666C137.887 180.666 139.447 179.986 139.767 179.866C139.807 179.866 139.847 179.826 139.887 179.826C140.127 179.826 140.367 180.186 140.367 180.506L140.367 184.506C140.367 184.946 140.207 185.306 139.967 185.386C139.687 185.506 137.887 186.266 137.887 186.266C137.647 186.346 137.407 186.666 137.407 186.906L137.407 189.746C137.407 189.986 137.527 190.106 137.727 190.106C137.767 190.106 137.847 190.066 137.887 190.066C137.887 190.066 139.407 189.426 139.767 189.266L139.767 189.266C139.967 189.186 140.327 189.706 140.327 190.026L140.327 195.026C140.327 195.266 140.567 195.466 140.887 195.466C141.487 195.466 141.567 195.186 141.567 194.786L141.567 189.266C141.567 189.146 141.567 189.066 141.607 188.946C141.647 188.706 141.807 188.466 141.967 188.386C142.287 188.306 144.087 187.586 144.087 187.586C144.327 187.506 144.567 187.186 144.567 186.946L144.567 184.106C144.567 183.866 144.447 183.746 144.247 183.746C144.207 183.746 144.127 183.786 144.087 183.786C144.087 183.786 142.247 184.506 142.087 184.546C141.807 184.546 141.527 184.306 141.527 183.866L141.527 180.146C141.527 179.826 141.727 179.106 142.047 178.986C142.407 178.826 144.087 178.186 144.087 178.186C144.327 178.066 144.567 177.786 144.567 177.506Z"></path></g><line stroke="#000000" stroke-width="1.2" x1="147.20674025857778" x2="147.20674025857778" y1="183.18615384615381" y2="218.18615384615381"></line></g><g><g><path d="M220.051 181.986C224.051 181.986 228.971 178.266 228.971 174.466C228.971 172.186 227.171 170.706 224.571 170.706C219.651 170.706 215.691 174.346 215.691 178.226C215.691 180.586 217.611 181.986 220.051 181.986Z"></path><path d="M213.331 170.746C213.531 170.706 213.651 170.586 213.651 170.426L213.651 167.346C213.651 167.186 213.571 167.026 213.411 167.026C213.331 167.026 212.091 167.466 211.891 167.546C211.851 167.586 211.811 167.586 211.771 167.586C211.691 167.586 211.611 167.506 211.611 167.306C211.611 167.026 211.611 162.226 211.611 162.226C211.611 161.666 211.491 161.586 210.971 161.586C210.451 161.586 210.331 161.706 210.331 162.226C210.331 162.226 210.331 166.986 210.331 167.506C210.331 168.026 210.251 168.186 210.011 168.266C209.851 168.346 208.931 168.666 208.411 168.906C208.091 168.906 208.011 168.746 208.011 168.546C208.011 168.306 208.011 163.466 208.011 163.466C208.011 162.906 207.891 162.826 207.371 162.826C206.851 162.826 206.731 162.946 206.731 163.466C206.731 163.466 206.731 168.746 206.731 169.026C206.731 169.306 206.651 169.546 206.371 169.666L204.651 170.306C204.611 170.306 204.571 170.346 204.531 170.346C204.371 170.346 204.251 170.226 204.251 169.986C204.251 169.746 204.251 164.666 204.251 164.666C204.251 164.146 204.131 164.026 203.611 164.026C203.091 164.026 202.971 164.146 202.971 164.666C202.971 164.666 202.971 170.066 202.971 170.466C202.971 170.866 202.851 170.986 202.651 171.066C202.451 171.146 201.411 171.546 201.411 171.546C201.211 171.626 201.091 171.706 201.091 171.866L201.091 174.946C201.091 175.106 201.211 175.266 201.331 175.266C201.411 175.266 202.251 174.986 202.571 174.826C202.651 174.786 202.691 174.786 202.731 174.786C202.931 174.786 202.971 174.946 202.971 175.186L202.971 179.826C202.971 180.146 202.771 180.426 202.571 180.506C202.371 180.586 201.411 180.946 201.411 180.946C201.211 181.026 201.091 181.106 201.091 181.266L201.091 184.386C201.091 184.546 201.211 184.706 201.371 184.706C201.411 184.706 202.091 184.426 202.451 184.306C202.531 184.266 202.611 184.266 202.691 184.266C202.891 184.266 202.971 184.386 202.971 184.626C202.971 184.986 202.971 189.586 202.971 189.586C202.971 190.106 203.091 190.226 203.611 190.226C204.131 190.226 204.251 190.106 204.251 189.586C204.251 189.586 204.251 184.306 204.251 184.066C204.251 183.826 204.331 183.586 204.491 183.546L206.411 182.786C206.651 182.786 206.731 182.866 206.731 183.106C206.731 183.426 206.731 188.346 206.731 188.346C206.731 188.906 206.851 188.986 207.371 188.986C207.891 188.986 208.011 188.866 208.011 188.346C208.011 188.346 208.011 182.986 208.011 182.666C208.011 182.346 208.171 182.106 208.411 182.026L209.851 181.506C209.931 181.466 210.011 181.426 210.091 181.426C210.251 181.426 210.331 181.546 210.331 181.746C210.331 182.026 210.331 187.106 210.331 187.106C210.331 187.666 210.451 187.746 210.971 187.746C211.491 187.746 211.611 187.626 211.611 187.106C211.611 187.106 211.611 181.426 211.611 181.186C211.611 180.946 211.811 180.746 211.931 180.706C212.051 180.666 213.331 180.186 213.331 180.186C213.531 180.106 213.651 180.026 213.651 179.866L213.651 176.746C213.651 176.626 213.571 176.426 213.411 176.426C213.331 176.426 212.291 176.826 212.051 176.946C212.011 176.946 211.971 176.986 211.931 176.986C211.731 176.986 211.611 176.786 211.611 176.506L211.611 171.826C211.611 171.546 211.651 171.386 211.851 171.306C212.011 171.266 213.331 170.746 213.331 170.746ZM204.251 179.866C204.131 179.706 204.131 178.746 204.131 177.666C204.131 176.186 204.171 174.466 204.251 174.186C204.371 173.826 205.971 173.186 206.531 173.186C206.651 173.186 206.691 173.226 206.731 173.266C206.811 173.386 206.851 174.506 206.851 175.746C206.851 177.146 206.811 178.706 206.731 178.946C206.611 179.346 205.091 179.946 204.491 179.946C204.371 179.946 204.291 179.906 204.251 179.866ZM210.331 177.586C210.211 177.906 208.931 178.506 208.371 178.506C208.251 178.506 208.171 178.466 208.131 178.426C208.051 178.306 208.011 177.106 208.011 175.826C208.011 174.426 208.051 172.946 208.131 172.746C208.291 172.426 209.731 171.826 210.211 171.826C210.251 171.826 210.331 171.866 210.331 171.866C210.411 171.986 210.451 173.026 210.451 174.186C210.451 175.666 210.411 177.386 210.331 177.586Z"></path></g><line stroke="#000000" stroke-width="1.2" x1="216.2907103878667" x2="216.2907103878667" y1="178.18615384615381" y2="213.18615384615381"></line></g></g></svg>