<?xml version="1.0" encoding="UTF-8" standalone="no"?><svg xmlns="http://www.w3.org/2000/svg" height="279.4mm" viewBox="0 0 1328.6153846153845 1719.3846153846152" width="215.9mm"><g transform="translate(163.84615384615387)"><g><g><line stroke="#6A6A6A" stroke-width="1.3" x1="0" x2="249.42672177364986" y1="216.3461538461538" y2="216.3461538461538"></line><line stroke="#6A6A6A" stroke-width="1.3" x1="0" x2="249.42672177364986" y1="206.3461538461538" y2="206.3461538461538"></line><line stroke="#6A6A6A" stroke-width="1.3" x1="0" x2="249.42672177364986" y1="196.3461538461538" y2="196.3461538461538"></line><line stroke="#6A6A6A" stroke-width="1.3" x1="0" x2="249.42672177364986" y1="186.3461538461538" y2="186.3461538461538"></line><line stroke="#6A6A6A" stroke-width="1.3" x1="0" x2="249.42672177364986" y1="176.3461538461538" y2="176.3461538461538"></line></g><g><path d="M25.200 162.426C24.640 162.426 23.400 163.466 22.600 164.346C19.640 167.626 18.680 172.626 18.680 176.786C18.680 179.106 18.960 181.706 19.240 183.346C19.320 183.826 19.360 183.906 18.880 184.306C16.320 186.426 13.560 188.866 11.480 191.426C8.720 194.866 7 198.586 7 202.866C7 209.826 11.760 216.426 21.560 216.426C22.480 216.426 23.520 216.346 24.320 216.186C24.760 216.106 24.840 216.066 24.920 216.546C25.400 219.226 26 222.706 26 224.586C26 230.506 22 231.226 19.640 231.226C17.480 231.226 16.440 230.586 16.440 230.066C16.440 229.626 16.800 229.666 17.720 229.386C18.960 229.026 20.400 227.946 20.400 225.626C20.400 223.426 19 221.546 16.560 221.546C13.880 221.546 12.280 223.666 12.280 226.146C12.280 228.746 13.840 232.666 19.880 232.666C22.560 232.666 27.760 231.466 27.760 224.666C27.760 222.386 27.040 218.586 26.600 216.106C26.520 215.626 26.560 215.666 27.120 215.426C31.160 213.826 33.840 210.426 33.840 205.906C33.840 200.786 30.080 196.266 24.200 196.266C23.080 196.266 23.200 196.466 23.040 195.546L22.040 189.746C21.960 189.266 22.040 189.226 22.280 188.986C22.920 188.386 23.760 187.546 24.520 186.706C27.880 183.026 29.880 178.266 29.880 173.746C29.880 170.266 28.920 166.826 27.280 164.426C26.680 163.546 25.640 162.426 25.200 162.426M20.040 190.586C20.440 190.266 20.520 190.306 20.600 190.746L21.440 195.866C21.560 196.626 21.560 196.586 20.840 196.826C17.320 198.026 15.040 201.186 15.040 204.586C15.040 208.186 16.920 210.746 19.640 211.666C19.960 211.786 20.440 211.906 20.720 211.906C21.040 211.906 21.200 211.706 21.200 211.466C21.200 211.186 20.880 211.066 20.600 210.946C18.920 210.226 17.720 208.506 17.720 206.666C17.720 204.386 19.280 202.666 21.720 201.986C22.360 201.826 22.440 201.866 22.520 202.306L24.520 214.226C24.600 214.666 24.560 214.666 23.960 214.786C23.320 214.906 22.520 214.986 21.720 214.986C14.720 214.986 10.200 211.106 10.200 205.546C10.200 203.186 10.600 200.026 13.920 196.266C16.320 193.586 18.160 192.106 20.040 190.586M24.640 201.666C27.880 201.946 30.560 204.666 30.560 208.186C30.560 210.706 29.040 212.746 26.800 213.866C26.320 214.106 26.240 214.106 26.160 213.626L24.200 202.226C24.120 201.746 24.160 201.626 24.640 201.666M25.800 168.626C27.120 168.626 28.200 169.706 28.200 171.906C28.200 174.666 26.880 177.226 23.760 180.346C23.120 180.986 22.160 181.906 21.240 182.706C20.960 182.946 20.800 182.906 20.720 182.386C20.560 181.346 20.480 179.986 20.480 178.706C20.480 172.466 23.360 168.626 25.800 168.626"></path></g><g></g><path d="M57.820 186.306C56.620 186.306 55.220 186.626 54.140 187.106C50.580 188.666 48.700 192.946 48.700 196.746C48.700 197.106 48.700 197.466 48.740 197.826C48.940 199.986 49.980 202.026 51.300 203.626C52.820 205.466 55.020 206.306 57.420 206.306C64.420 206.306 65.460 199.946 65.460 198.786C65.460 197.906 65.020 197.906 64.860 197.906C64.540 197.906 64.260 197.946 64.260 198.626C64.260 203.786 59.860 204.986 58.580 204.986C55.340 204.986 53.620 201.826 53.620 195.226C53.620 188.626 56.660 187.266 58.820 187.266C60.900 187.266 61.740 188.226 61.740 188.626C61.740 188.986 61.620 189.506 61.020 189.506C59.420 189.506 58.500 191.226 58.500 192.466C58.500 194.746 60.460 195.466 61.580 195.466C61.580 195.466 64.620 195.346 64.620 192.026C64.620 186.786 58.580 186.306 57.820 186.306"></path></g><g><line stroke="black" stroke-width="1.6" x1="250.22672177364987" x2="250.22672177364987" y1="176.3461538461538" y2="216.3461538461538"></line></g><g><g><path d="M93.360 231.986C97.360 231.986 102.280 228.266 102.280 224.466C102.280 222.186 100.480 220.706 97.880 220.706C92.960 220.706 89 224.346 89 228.226C89 230.586 90.920 231.986 93.360 231.986"></path></g><line stroke="#000000" stroke-width="1.2" x1="101.68" x2="101.68" y1="224.5061538461538" y2="189.5061538461538"></line><line stroke="#000000" stroke-width="2.2" x1="85.8" x2="107.72" y1="226.3461538461538" y2="226.3461538461538"></line><text font-family="Alegreya" font-size="22" text-anchor="middle" x="95.64" y="256.3461538461538">0/0/1</text></g><g><g><path d="M133.467 231.986C137.467 231.986 142.387 228.266 142.387 224.466C142.387 222.186 140.587 220.706 137.987 220.706C133.067 220.706 129.107 224.346 129.107 228.226C129.107 230.586 131.027 231.986 133.467 231.986"></path></g><line stroke="#000000" stroke-width="1.2" x1="141.78668044341248" x2="141.78668044341248" y1="224.5061538461538" y2="189.5061538461538"></line><line stroke="#000000" stroke-width="2.2" x1="125.90668044341247" x2="147.82668044341247" y1="226.3461538461538" y2="226.3461538461538"></line><text font-family="Alegreya" font-size="22" text-anchor="middle" x="135.74668044341246" y="256.3461538461538">0/1/0</text></g><g><g><path d="M173.573 231.986C177.573 231.986 182.493 228.266 182.493 224.466C182.493 222.186 180.693 220.706 178.093 220.706C173.173 220.706 169.213 224.346 169.213 228.226C169.213 230.586 171.133 231.986 173.573 231.986"></path></g><line stroke="#000000" stroke-width="1.2" x1="181.89336088682492" x2="181.89336088682492" y1="224.5061538461538" y2="189.5061538461538"></line><line stroke="#000000" stroke-width="2.2" x1="166.01336088682493" x2="187.93336088682491" y1="226.3461538461538" y2="226.3461538461538"></line><text font-family="Alegreya" font-size="22" text-anchor="middle" x="175.85336088682493" y="256.3461538461538">0/1/1</text></g><g><g><path d="M213.680 231.986C217.680 231.986 222.600 228.266 222.600 224.466C222.600 222.186 220.800 220.706 218.200 220.706C213.280 220.706 209.320 224.346 209.320 228.226C209.320 230.586 211.240 231.986 213.680 231.986"></path></g><line stroke="#000000" stroke-width="1.2" x1="222.0000413302374" x2="222.0000413302374" y1="224.5061538461538" y2="189.5061538461538"></line><line stroke="#000000" stroke-width="2.2" x1="206.1200413302374" x2="228.0400413302374" y1="226.3461538461538" y2="226.3461538461538"></line><text font-family="Alegreya" font-size="22" text-anchor="middle" x="215.9600413302374" y="256.3461538461538">0/2/0</text></g></g><g transform="translate(429.87287561980366)"><g><g><line stroke="#6A6A6A" stroke-width="1.3" x1="-16.599999999999994" x2="702.1068870945993" y1="216.3461538461538" y2="216.3461538461538"></line><line stroke="#6A6A6A" stroke-width="1.3" x1="-16.599999999999994" x2="702.1068870945993" y1="206.3461538461538" y2="206.3461538461538"></line><line stroke="#6A6A6A" stroke-width="1.3" x1="-16.599999999999994" x2="702.1068870945993" y1="196.3461538461538" y2="196.3461538461538"></line><line stroke="#6A6A6A" stroke-width="1.3" x1="-16.599999999999994" x2="702.1068870945993" y1="186.3461538461538" y2="186.3461538461538"></line><line stroke="#6A6A6A" stroke-width="1.3" x1="-16.599999999999994" x2="702.1068870945993" y1="176.3461538461538" y2="176.3461538461538"></line></g></g><g><line stroke="black" stroke-width="1.6" x1="161.22672177364987" x2="161.22672177364987" y1="176.3461538461538" y2="216.3461538461538"></line></g><g><g><path d="M4.360 231.986C8.360 231.986 13.280 228.266 13.280 224.466C13.280 222.186 11.480 220.706 8.880 220.706C3.960 220.706 0 224.346 0 228.226C0 230.586 1.920 231.986 4.360 231.986"></path></g><line stroke="#000000" stroke-width="1.2" x1="12.680000000000001" x2="12.680000000000001" y1="224.5061538461538" y2="189.5061538461538"></line><line stroke="#000000" stroke-width="2.2" x1="-3.2" x2="18.72" y1="226.3461538461538" y2="226.3461538461538"></line><text font-family="Alegreya" font-size="22" text-anchor="middle" x="6.640000000000001" y="256.3461538461538">0/2/1</text></g><g><g><path d="M44.467 231.986C48.467 231.986 53.387 228.266 53.387 224.466C53.387 222.186 51.587 220.706 48.987 220.706C44.067 220.706 40.107 224.346 40.107 228.226C40.107 230.586 42.027 231.986 44.467 231.986"></path></g><line stroke="#000000" stroke-width="1.2" x1="52.786680443412465" x2="52.786680443412465" y1="224.5061538461538" y2="189.5061538461538"></line><line stroke="#000000" stroke-width="2.2" x1="36.90668044341246" x2="58.82668044341246" y1="226.3461538461538" y2="226.3461538461538"></line><text font-family="Alegreya" font-size="22" text-anchor="middle" x="46.746680443412465" y="256.3461538461538">0/3/0</text></g><g><g><path d="M84.573 231.986C88.573 231.986 93.493 228.266 93.493 224.466C93.493 222.186 91.693 220.706 89.093 220.706C84.173 220.706 80.213 224.346 80.213 228.226C80.213 230.586 82.133 231.986 84.573 231.986"></path></g><line stroke="#000000" stroke-width="1.2" x1="92.89336088682494" x2="92.89336088682494" y1="224.5061538461538" y2="189.5061538461538"></line><line stroke="#000000" stroke-width="2.2" x1="77.01336088682493" x2="98.93336088682493" y1="226.3461538461538" y2="226.3461538461538"></line><text font-family="Alegreya" font-size="22" text-anchor="middle" x="86.85336088682493" y="256.3461538461538">0/3/1</text></g><g><g><path d="M124.680 231.986C128.680 231.986 133.600 228.266 133.600 224.466C133.600 222.186 131.800 220.706 129.200 220.706C124.280 220.706 120.320 224.346 120.320 228.226C120.320 230.586 122.240 231.986 124.680 231.986"></path></g><line stroke="#000000" stroke-width="1.2" x1="133.0000413302374" x2="133.0000413302374" y1="224.5061538461538" y2="189.5061538461538"></line><line stroke="#000000" stroke-width="2.2" x1="117.12004133023738" x2="139.0400413302374" y1="226.3461538461538" y2="226.3461538461538"></line><text font-family="Alegreya" font-size="22" text-anchor="middle" x="126.96004133023739" y="256.3461538461538">1/0/1</text></g></g><g transform="translate(606.8995973934535)"><g></g><g><line stroke="black" stroke-width="1.6" x1="161.22672177364987" x2="161.22672177364987" y1="176.3461538461538" y2="216.3461538461538"></line></g><g><g><path d="M4.360 231.986C8.360 231.986 13.280 228.266 13.280 224.466C13.280 222.186 11.480 220.706 8.880 220.706C3.960 220.706 0 224.346 0 228.226C0 230.586 1.920 231.986 4.360 231.986"></path></g><line stroke="#000000" stroke-width="1.2" x1="12.680000000000001" x2="12.680000000000001" y1="224.5061538461538" y2="189.5061538461538"></line><line stroke="#000000" stroke-width="2.2" x1="-3.2" x2="18.72" y1="226.3461538461538" y2="226.3461538461538"></line><text font-family="Alegreya" font-size="22" text-anchor="middle" x="6.640000000000001" y="256.3461538461538">1/0/0</text></g><g><g><path d="M44.467 231.986C48.467 231.986 53.387 228.266 53.387 224.466C53.387 222.186 51.587 220.706 48.987 220.706C44.067 220.706 40.107 224.346 40.107 228.226C40.107 230.586 42.027 231.986 44.467 231.986"></path></g><line stroke="#000000" stroke-width="1.2" x1="52.786680443412465" x2="52.786680443412465" y1="224.5061538461538" y2="189.5061538461538"></line><line stroke="#000000" stroke-width="2.2" x1="36.90668044341246" x2="58.82668044341246" y1="226.3461538461538" y2="226.3461538461538"></line><text font-family="Alegreya" font-size="22" text-anchor="middle" x="46.746680443412465" y="256.3461538461538">1/1/0</text></g><g><g><path d="M84.573 231.986C88.573 231.986 93.493 228.266 93.493 224.466C93.493 222.186 91.693 220.706 89.093 220.706C84.173 220.706 80.213 224.346 80.213 228.226C80.213 230.586 82.133 231.986 84.573 231.986"></path></g><line stroke="#000000" stroke-width="1.2" x1="92.89336088682494" x2="92.89336088682494" y1="224.5061538461538" y2="189.5061538461538"></line><line stroke="#000000" stroke-width="2.2" x1="77.01336088682493" x2="98.93336088682493" y1="226.3461538461538" y2="226.3461538461538"></line><text font-family="Alegreya" font-size="22" text-anchor="middle" x="86.85336088682493" y="256.3461538461538">1/1/1</text></g><g><g><path d="M124.680 231.986C128.680 231.986 133.600 228.266 133.600 224.466C133.600 222.186 131.800 220.706 129.200 220.706C124.280 220.706 120.320 224.346 120.320 228.226C120.320 230.586 122.240 231.986 124.680 231.986"></path></g><line stroke="#000000" stroke-width="1.2" x1="133.0000413302374" x2="133.0000413302374" y1="224.5061538461538" y2="189.5061538461538"></line><line stroke="#000000" stroke-width="2.2" x1="117.12004133023738" x2="139.0400413302374" y1="226.3461538461538" y2="226.3461538461538"></line><text font-family="Alegreya" font-size="22" text-anchor="middle" x="126.96004133023739" y="256.3461538461538">1/2/0</text></g></g><g transform="translate(783.9263191671034)"><g></g><g><line stroke="black" stroke-width="1.6" x1="161.22672177364987" x2="161.22672177364987" y1="176.3461538461538" y2="216.3461538461538"></line></g><g><g><path d="M4.360 231.986C8.360 231.986 13.280 228.266 13.280 224.466C13.280 222.186 11.480 220.706 8.880 220.706C3.960 220.706 0 224.346 0 228.226C0 230.586 1.920 231.986 4.360 231.986"></path></g><line stroke="#000000" stroke-width="1.2" x1="12.680000000000001" x2="12.680000000000001" y1="224.5061538461538" y2="189.5061538461538"></line><line stroke="#000000" stroke-width="2.2" x1="-3.2" x2="18.72" y1="226.3461538461538" y2="226.3461538461538"></line><text font-family="Alegreya" font-size="22" text-anchor="middle" x="6.640000000000001" y="256.3461538461538">1/2/1</text></g><g><g><path d="M44.467 231.986C48.467 231.986 53.387 228.266 53.387 224.466C53.387 222.186 51.587 220.706 48.987 220.706C44.067 220.706 40.107 224.346 40.107 228.226C40.107 230.586 42.027 231.986 44.467 231.986"></path></g><line stroke="#000000" stroke-width="1.2" x1="52.786680443412465" x2="52.786680443412465" y1="224.5061538461538" y2="189.5061538461538"></line><line stroke="#000000" stroke-width="2.2" x1="36.90668044341246" x2="58.82668044341246" y1="226.3461538461538" y2="226.3461538461538"></line><text font-family="Alegreya" font-size="22" text-anchor="middle" x="46.746680443412465" y="256.3461538461538">1/3/0</text></g><g><g><path d="M84.573 231.986C88.573 231.986 93.493 228.266 93.493 224.466C93.493 222.186 91.693 220.706 89.093 220.706C84.173 220.706 80.213 224.346 80.213 228.226C80.213 230.586 82.133 231.986 84.573 231.986"></path></g><line stroke="#000000" stroke-width="1.2" x1="92.89336088682494" x2="92.89336088682494" y1="224.5061538461538" y2="189.5061538461538"></line><line stroke="#000000" stroke-width="2.2" x1="77.01336088682493" x2="98.93336088682493" y1="226.3461538461538" y2="226.3461538461538"></line><text font-family="Alegreya" font-size="22" text-anchor="middle" x="86.85336088682493" y="256.3461538461538">1/3/1</text></g><g><g><path d="M124.680 231.986C128.680 231.986 133.600 228.266 133.600 224.466C133.600 222.186 131.800 220.706 129.200 220.706C124.280 220.706 120.320 224.346 120.320 228.226C120.320 230.586 122.240 231.986 124.680 231.986"></path></g><line stroke="#000000" stroke-width="1.2" x1="133.0000413302374" x2="133.0000413302374" y1="224.5061538461538" y2="189.5061538461538"></line><line stroke="#000000" stroke-width="2.2" x1="117.12004133023738" x2="139.0400413302374" y1="226.3461538461538" y2="226.3461538461538"></line><text font-family="Alegreya" font-size="22" text-anchor="middle" x="126.96004133023739" y="256.3461538461538">empty</text></g></g><g transform="translate(960.9530409407533)"><g></g><g><line stroke="#000000" stroke-width="1.6" x1="161.22672177364987" x2="161.22672177364987" y1="176.3461538461538" y2="216.3461538461538"></line><line stroke="#000000" stroke-width="5" x1="168.52672177364985" x2="168.52672177364985" y1="176.3461538461538" y2="216.3461538461538"></line></g><g><g><path d="M4.360 231.986C8.360 231.986 13.280 228.266 13.280 224.466C13.280 222.186 11.480 220.706 8.880 220.706C3.960 220.706 0 224.346 0 228.226C0 230.586 1.920 231.986 4.360 231.986"></path></g><line stroke="#000000" stroke-width="1.2" x1="12.680000000000001" x2="12.680000000000001" y1="224.5061538461538" y2="189.5061538461538"></line><line stroke="#000000" stroke-width="2.2" x1="-3.2" x2="18.72" y1="226.3461538461538" y2="226.3461538461538"></line><text font-family="Alegreya" font-size="22" text-anchor="middle" x="6.640000000000001" y="256.3461538461538">empty M</text></g><g><g><path d="M44.467 231.986C48.467 231.986 53.387 228.266 53.387 224.466C53.387 222.186 51.587 220.706 48.987 220.706C44.067 220.706 40.107 224.346 40.107 228.226C40.107 230.586 42.027 231.986 44.467 231.986"></path></g><line stroke="#000000" stroke-width="1.2" x1="52.786680443412465" x2="52.786680443412465" y1="224.5061538461538" y2="189.5061538461538"></line><line stroke="#000000" stroke-width="2.2" x1="36.90668044341246" x2="58.82668044341246" y1="226.3461538461538" y2="226.3461538461538"></line><text font-family="Alegreya" font-size="22" text-anchor="middle" x="46.746680443412465" y="256.3461538461538">inval.M</text></g><g><g><path d="M84.573 231.986C88.573 231.986 93.493 228.266 93.493 224.466C93.493 222.186 91.693 220.706 89.093 220.706C84.173 220.706 80.213 224.346 80.213 228.226C80.213 230.586 82.133 231.986 84.573 231.986"></path></g><line stroke="#000000" stroke-width="1.2" x1="92.89336088682494" x2="92.89336088682494" y1="224.5061538461538" y2="189.5061538461538"></line><line stroke="#000000" stroke-width="2.2" x1="77.01336088682493" x2="98.93336088682493" y1="226.3461538461538" y2="226.3461538461538"></line><text font-family="Alegreya" font-size="22" text-anchor="middle" x="86.85336088682493" y="256.3461538461538">M=0</text></g><g><g><path d="M124.680 231.986C128.680 231.986 133.600 228.266 133.600 224.466C133.600 222.186 131.800 220.706 129.200 220.706C124.280 220.706 120.320 224.346 120.320 228.226C120.320 230.586 122.240 231.986 124.680 231.986"></path></g><line stroke="#000000" stroke-width="1.2" x1="133.0000413302374" x2="133.0000413302374" y1="224.5061538461538" y2="189.5061538461538"></line><line stroke="#000000" stroke-width="2.2" x1="117.12004133023738" x2="139.0400413302374" y1="226.3461538461538" y2="226.3461538461538"></line><text font-family="Alegreya" font-size="22" text-anchor="middle" x="126.96004133023739" y="256.3461538461538">M=5</text></g></g></svg>