<?xml version="1.0" encoding="UTF-8" standalone="no"?><svg xmlns="http://www.w3.org/2000/svg" height="279.4mm" viewBox="0 0 1328.6153846153845 1719.3846153846152" width="215.9mm"><g transform="translate(93.84615384615385)"><g><g><line stroke="#6A6A6A" stroke-width="1.3" x1="0" x2="430.5492233312657" y1="183.8461538461538" y2="183.8461538461538"></line><line stroke="#6A6A6A" stroke-width="1.3" x1="0" x2="430.5492233312657" y1="173.8461538461538" y2="173.8461538461538"></line><line stroke="#6A6A6A" stroke-width="1.3" x1="0" x2="430.5492233312657" y1="163.8461538461538" y2="163.8461538461538"></line><line stroke="#6A6A6A" stroke-width="1.3" x1="0" x2="430.5492233312657" y1="153.8461538461538" y2="153.8461538461538"></line><line stroke="#6A6A6A" stroke-width="1.3" x1="0" x2="430.5492233312657" y1="143.8461538461538" y2="143.8461538461538"></line></g><g><path d="M25.200 129.926C24.640 129.926 23.400 130.966 22.600 131.846C19.640 135.126 18.680 140.126 18.680 144.286C18.680 146.606 18.960 149.206 19.240 150.846C19.320 151.326 19.360 151.406 18.880 151.806C16.320 153.926 13.560 156.366 11.480 158.926C8.720 162.366 7 166.086 7 170.366C7 177.326 11.760 183.926 21.560 183.926C22.480 183.926 23.520 183.846 24.320 183.686C24.760 183.606 24.840 183.566 24.920 184.046C25.400 186.726 26 190.206 26 192.086C26 198.006 22 198.726 19.640 198.726C17.480 198.726 16.440 198.086 16.440 197.566C16.440 197.126 16.800 197.166 17.720 196.886C18.960 196.526 20.400 195.446 20.400 193.126C20.400 190.926 19 189.046 16.560 189.046C13.880 189.046 12.280 191.166 12.280 193.646C12.280 196.246 13.840 200.166 19.880 200.166C22.560 200.166 27.760 198.966 27.760 192.166C27.760 189.886 27.040 186.086 26.600 183.606C26.520 183.126 26.560 183.166 27.120 182.926C31.160 181.326 33.840 177.926 33.840 173.406C33.840 168.286 30.080 163.766 24.200 163.766C23.080 163.766 23.200 163.966 23.040 163.046L22.040 157.246C21.960 156.766 22.040 156.726 22.280 156.486C22.920 155.886 23.760 155.046 24.520 154.206C27.880 150.526 29.880 145.766 29.880 141.246C29.880 137.766 28.920 134.326 27.280 131.926C26.680 131.046 25.640 129.926 25.200 129.926ZM20.040 158.086C20.440 157.766 20.520 157.806 20.600 158.246L21.440 163.366C21.560 164.126 21.560 164.086 20.840 164.326C17.320 165.526 15.040 168.686 15.040 172.086C15.040 175.686 16.920 178.246 19.640 179.166C19.960 179.286 20.440 179.406 20.720 179.406C21.040 179.406 21.200 179.206 21.200 178.966C21.200 178.686 20.880 178.566 20.600 178.446C18.920 177.726 17.720 176.006 17.720 174.166C17.720 171.886 19.280 170.166 21.720 169.486C22.360 169.326 22.440 169.366 22.520 169.806L24.520 181.726C24.600 182.166 24.560 182.166 23.960 182.286C23.320 182.406 22.520 182.486 21.720 182.486C14.720 182.486 10.200 178.606 10.200 173.046C10.200 170.686 10.600 167.526 13.920 163.766C16.320 161.086 18.160 159.606 20.040 158.086ZM24.640 169.166C27.880 169.446 30.560 172.166 30.560 175.686C30.560 178.206 29.040 180.246 26.800 181.366C26.320 181.606 26.240 181.606 26.160 181.126L24.200 169.726C24.120 169.246 24.160 169.126 24.640 169.166ZM25.800 136.126C27.120 136.126 28.200 137.206 28.200 139.406C28.200 142.166 26.880 144.726 23.760 147.846C23.120 148.486 22.160 149.406 21.240 150.206C20.960 150.446 20.800 150.406 20.720 149.886C20.560 148.846 20.480 147.486 20.480 146.206C20.480 139.966 23.360 136.126 25.800 136.126Z"></path></g><g></g><g><g><path d="M65.180 156.806L62.260 156.806L62.260 148.246C62.260 147.926 62.220 147.566 61.780 147.566C61.420 147.566 61.220 147.646 60.980 147.926L57.180 152.526C57.020 152.726 56.820 152.966 56.820 153.446C56.820 153.446 56.820 155.046 56.820 156.806L51.420 156.806C54.620 154.086 61.020 145.006 61.140 144.566C61.140 144.486 61.180 144.446 61.180 144.366C61.180 144.046 60.900 143.806 60.580 143.806C60.220 143.806 58.580 143.886 57.860 143.886C57.140 143.886 55.340 143.806 55.020 143.806C54.660 143.806 54.100 143.926 54.100 144.566C54.100 149.526 50.180 155.086 48.980 156.766L48.740 157.086C48.740 157.126 48.700 157.166 48.700 157.206C48.620 157.366 48.580 157.526 48.580 157.646C48.580 158.046 48.900 158.326 49.380 158.326L56.820 158.326L56.820 160.846C56.820 161.926 55.940 162.246 55.220 162.246C54.580 162.246 54.300 162.606 54.300 163.006C54.300 163.406 54.460 163.846 55.060 163.846C55.700 163.846 63.580 163.846 63.580 163.846C63.980 163.846 64.380 163.566 64.380 163.006C64.380 162.446 63.900 162.206 63.500 162.206C63.100 162.206 62.260 161.966 62.260 160.686L62.260 158.326C63.980 158.326 65.180 158.326 65.180 158.326C65.580 158.326 65.780 158.046 65.780 157.566C65.780 157.086 65.620 156.806 65.180 156.806Z"></path></g><g><path d="M65.180 176.806L62.260 176.806L62.260 168.246C62.260 167.926 62.220 167.566 61.780 167.566C61.420 167.566 61.220 167.646 60.980 167.926L57.180 172.526C57.020 172.726 56.820 172.966 56.820 173.446C56.820 173.446 56.820 175.046 56.820 176.806L51.420 176.806C54.620 174.086 61.020 165.006 61.140 164.566C61.140 164.486 61.180 164.446 61.180 164.366C61.180 164.046 60.900 163.806 60.580 163.806C60.220 163.806 58.580 163.886 57.860 163.886C57.140 163.886 55.340 163.806 55.020 163.806C54.660 163.806 54.100 163.926 54.100 164.566C54.100 169.526 50.180 175.086 48.980 176.766L48.740 177.086C48.740 177.126 48.700 177.166 48.700 177.206C48.620 177.366 48.580 177.526 48.580 177.646C48.580 178.046 48.900 178.326 49.380 178.326L56.820 178.326L56.820 180.846C56.820 181.926 55.940 182.246 55.220 182.246C54.580 182.246 54.300 182.606 54.300 183.006C54.300 183.406 54.460 183.846 55.060 183.846C55.700 183.846 63.580 183.846 63.580 183.846C63.980 183.846 64.380 183.566 64.380 183.006C64.380 182.446 63.900 182.206 63.500 182.206C63.100 182.206 62.260 181.966 62.260 180.686L62.260 178.326C63.980 178.326 65.180 178.326 65.180 178.326C65.580 178.326 65.780 178.046 65.780 177.566C65.780 177.086 65.620 176.806 65.180 176.806Z"></path></g></g></g><g><line stroke="black" stroke-width="1.6" x1="431.3492233312657" x2="431.3492233312657" y1="143.8461538461538" y2="183.8461538461538"></line></g><g><g><path d="M93.360 184.486C97.360 184.486 102.280 180.766 102.280 176.966C102.280 174.686 100.480 173.206 97.880 173.206C92.960 173.206 89 176.846 89 180.726C89 183.086 90.920 184.486 93.360 184.486Z"></path><g><circle cx="108.28" cy="178.8461538461538" r="2.4"></circle></g></g><g><path d="M93.360 174.486C97.360 174.486 102.280 170.766 102.280 166.966C102.280 164.686 100.480 163.206 97.880 163.206C92.960 163.206 89 166.846 89 170.726C89 173.086 90.920 174.486 93.360 174.486Z"></path><g><circle cx="108.28" cy="168.8461538461538" r="2.4"></circle></g></g><g><path d="M93.360 164.486C97.360 164.486 102.280 160.766 102.280 156.966C102.280 154.686 100.480 153.206 97.880 153.206C92.960 153.206 89 156.846 89 160.726C89 163.086 90.920 164.486 93.360 164.486Z"></path><g><circle cx="108.28" cy="158.8461538461538" r="2.4"></circle></g></g><line stroke="#000000" stroke-width="1.2" x1="101.68" x2="101.68" y1="177.0061538461538" y2="127.00615384615381"></line></g><g><g><path d="M207.360 174.486C211.360 174.486 216.280 170.766 216.280 166.966C216.280 164.686 214.480 163.206 211.880 163.206C206.960 163.206 203.000 166.846 203.000 170.726C203.000 173.086 204.920 174.486 207.360 174.486Z"></path></g><g><path d="M207.360 144.486C211.360 144.486 216.280 140.766 216.280 136.966C216.280 134.686 214.480 133.206 211.880 133.206C206.960 133.206 203.000 136.846 203.000 140.726C203.000 143.086 204.920 144.486 207.360 144.486Z"></path></g><line stroke="#000000" stroke-width="1.2" x1="203.59980267243495" x2="203.59980267243495" y1="140.68615384615381" y2="200.68615384615381"></line><path d="M212.600 175.806C213.160 177.486 213.440 179.486 213.440 181.286C213.440 183.646 212.440 187.006 211.840 188.366C210.360 191.726 208.360 194.966 203.000 196.766L203.000 206.166C203.000 206.646 203.200 206.766 203.440 206.766C204.200 206.766 204.520 206.526 204.600 205.886C205.280 202.086 208.240 198.606 210.280 195.446C212.800 191.486 215.240 186.726 215.240 181.726C215.240 178.606 214.440 175.766 214.120 174.486C213.800 173.206 212.000 174.086 212.600 175.806Z"></path></g><g><g><path d="M259.869 174.486C263.869 174.486 268.789 170.766 268.789 166.966C268.789 164.686 266.989 163.206 264.389 163.206C259.469 163.206 255.509 166.846 255.509 170.726C255.509 173.086 257.429 174.486 259.869 174.486Z"></path></g><g><path d="M259.869 184.486C263.869 184.486 268.789 180.766 268.789 176.966C268.789 174.686 266.989 173.206 264.389 173.206C259.469 173.206 255.509 176.846 255.509 180.726C255.509 183.086 257.429 184.486 259.869 184.486Z"></path></g><g><path d="M259.869 164.486C263.869 164.486 268.789 160.766 268.789 156.966C268.789 154.686 266.989 153.206 264.389 153.206C259.469 153.206 255.509 156.846 255.509 160.726C255.509 163.086 257.429 164.486 259.869 164.486Z"></path></g><line stroke="#000000" stroke-width="1.2" x1="268.1892765970864" x2="268.1892765970864" y1="177.0061538461538" y2="127.00615384615381"></line></g><g><g><path d="M347.389 174.486C351.389 174.486 356.309 170.766 356.309 166.966C356.309 164.686 354.509 163.206 351.909 163.206C346.989 163.206 343.029 166.846 343.029 170.726C343.029 173.086 344.949 174.486 347.389 174.486Z"></path></g><g><path d="M347.389 184.486C351.389 184.486 356.309 180.766 356.309 176.966C356.309 174.686 354.509 173.206 351.909 173.206C346.989 173.206 343.029 176.846 343.029 180.726C343.029 183.086 344.949 184.486 347.389 184.486Z"></path></g><g><path d="M347.389 164.486C351.389 164.486 356.309 160.766 356.309 156.966C356.309 154.686 354.509 153.206 351.909 153.206C346.989 153.206 343.029 156.846 343.029 160.726C343.029 163.086 344.949 164.486 347.389 164.486Z"></path></g><line stroke="#000000" stroke-width="1.2" x1="355.7092499641761" x2="355.7092499641761" y1="177.0061538461538" y2="127.00615384615381"></line></g></g><g transform="translate(540.9953771774196)"><g><g><line stroke="#6A6A6A" stroke-width="1.3" x1="-16.600000000000023" x2="308.1704195437072" y1="183.8461538461538" y2="183.8461538461538"></line><line stroke="#6A6A6A" stroke-width="1.3" x1="-16.600000000000023" x2="308.1704195437072" y1="173.8461538461538" y2="173.8461538461538"></line><line stroke="#6A6A6A" stroke-width="1.3" x1="-16.600000000000023" x2="308.1704195437072" y1="163.8461538461538" y2="163.8461538461538"></line><line stroke="#6A6A6A" stroke-width="1.3" x1="-16.600000000000023" x2="308.1704195437072" y1="153.8461538461538" y2="153.8461538461538"></line><line stroke="#6A6A6A" stroke-width="1.3" x1="-16.600000000000023" x2="308.1704195437072" y1="143.8461538461538" y2="143.8461538461538"></line></g></g><g><line stroke="black" stroke-width="1.6" x1="298.3704195437072" x2="298.3704195437072" y1="143.8461538461538" y2="183.8461538461538"></line><line stroke="black" stroke-width="5" x1="305.6704195437072" x2="305.6704195437072" y1="143.8461538461538" y2="183.8461538461538"></line></g><g><g><path d="M4.360 174.486C8.360 174.486 13.280 170.766 13.280 166.966C13.280 164.686 11.480 163.206 8.880 163.206C3.960 163.206 0 166.846 0 170.726C0 173.086 1.920 174.486 4.360 174.486Z"></path></g><g><path d="M4.360 184.486C8.360 184.486 13.280 180.766 13.280 176.966C13.280 174.686 11.480 173.206 8.880 173.206C3.960 173.206 0 176.846 0 180.726C0 183.086 1.920 184.486 4.360 184.486Z"></path></g><g><path d="M4.360 154.486C8.360 154.486 13.280 150.766 13.280 146.966C13.280 144.686 11.480 143.206 8.880 143.206C3.960 143.206 0 146.846 0 150.726C0 153.086 1.920 154.486 4.360 154.486Z"></path></g><line stroke="#000000" stroke-width="1.2" x1="12.680000000000001" x2="12.680000000000001" y1="177.0061538461538" y2="117.00615384615381"></line></g><g><g><path d="M91.880 174.486C95.880 174.486 100.800 170.766 100.800 166.966C100.800 164.686 99.000 163.206 96.400 163.206C91.480 163.206 87.520 166.846 87.520 170.726C87.520 173.086 89.440 174.486 91.880 174.486Z"></path></g><g><path d="M91.880 184.486C95.880 184.486 100.800 180.766 100.800 176.966C100.800 174.686 99.000 173.206 96.400 173.206C91.480 173.206 87.520 176.846 87.520 180.726C87.520 183.086 89.440 184.486 91.880 184.486Z"></path></g><g><path d="M91.880 149.486C95.880 149.486 100.800 145.766 100.800 141.966C100.800 139.686 99.000 138.206 96.400 138.206C91.480 138.206 87.520 141.846 87.520 145.726C87.520 148.086 89.440 149.486 91.880 149.486Z"></path></g><line stroke="#000000" stroke-width="1.2" x1="100.19997336708967" x2="100.19997336708967" y1="177.0061538461538" y2="112.00615384615381"></line></g><g><g><path d="M179.520 174.646C187.160 174.646 188.680 168.446 188.680 166.926C188.680 164.566 186.800 163.046 184.120 163.046C177.200 163.046 175.040 168.406 175.040 170.806C175.040 173.246 177.000 174.646 179.520 174.646ZM183.040 170.966C180.960 172.366 179.520 172.846 178.520 172.846C177.560 172.846 177.000 172.366 176.680 171.806C176.520 171.526 176.400 171.206 176.400 170.886C176.400 169.886 177.400 168.606 180.600 166.766C182.880 165.446 184.320 164.966 185.280 164.966C186.160 164.966 186.640 165.366 186.960 165.926C187.120 166.206 187.240 166.486 187.240 166.806C187.240 167.726 186.280 168.846 183.040 170.966Z"></path></g><g><path d="M179.520 184.646C187.160 184.646 188.680 178.446 188.680 176.926C188.680 174.566 186.800 173.046 184.120 173.046C177.200 173.046 175.040 178.406 175.040 180.806C175.040 183.246 177.000 184.646 179.520 184.646ZM183.040 180.966C180.960 182.366 179.520 182.846 178.520 182.846C177.560 182.846 177.000 182.366 176.680 181.806C176.520 181.526 176.400 181.206 176.400 180.886C176.400 179.886 177.400 178.606 180.600 176.766C182.880 175.446 184.320 174.966 185.280 174.966C186.160 174.966 186.640 175.366 186.960 175.926C187.120 176.206 187.240 176.486 187.240 176.806C187.240 177.726 186.280 178.846 183.040 180.966Z"></path></g><g><path d="M179.520 159.646C187.160 159.646 188.680 153.446 188.680 151.926C188.680 149.566 186.800 148.046 184.120 148.046C177.200 148.046 175.040 153.406 175.040 155.806C175.040 158.246 177.000 159.646 179.520 159.646ZM183.040 155.966C180.960 157.366 179.520 157.846 178.520 157.846C177.560 157.846 177.000 157.366 176.680 156.806C176.520 156.526 176.400 156.206 176.400 155.886C176.400 154.886 177.400 153.606 180.600 151.766C182.880 150.446 184.320 149.966 185.280 149.966C186.160 149.966 186.640 150.366 186.960 150.926C187.120 151.206 187.240 151.486 187.240 151.806C187.240 152.726 186.280 153.846 183.040 155.966Z"></path></g><line stroke="#000000" stroke-width="1.2" x1="188.07994673417932" x2="188.07994673417932" y1="176.92615384615382" y2="121.92615384615382"></line></g></g></svg>