<?xml version="1.0" encoding="UTF-8" standalone="no"?><svg xmlns="http://www.w3.org/2000/svg" height="279.4mm" viewBox="0 0 1328.6153846153845 1719.3846153846152" width="215.9mm"><g transform="translate(163.84615384615387)"><g><g><line stroke="#6A6A6A" stroke-width="1.3" x1="0" x2="295.8542767025896" y1="216.3461538461538" y2="216.3461538461538"></line><line stroke="#6A6A6A" stroke-width="1.3" x1="0" x2="295.8542767025896" y1="206.3461538461538" y2="206.3461538461538"></line><line stroke="#6A6A6A" stroke-width="1.3" x1="0" x2="295.8542767025896" y1="196.3461538461538" y2="196.3461538461538"></line><line stroke="#6A6A6A" stroke-width="1.3" x1="0" x2="295.8542767025896" y1="186.3461538461538" y2="186.3461538461538"></line><line stroke="#6A6A6A" stroke-width="1.3" x1="0" x2="295.8542767025896" y1="176.3461538461538" y2="176.3461538461538"></line></g><g><path d="M25.200 162.426C24.640 162.426 23.400 163.466 22.600 164.346C19.640 167.626 18.680 172.626 18.680 176.786C18.680 179.106 18.960 181.706 19.240 183.346C19.320 183.826 19.360 183.906 18.880 184.306C16.320 186.426 13.560 188.866 11.480 191.426C8.720 194.866 7 198.586 7 202.866C7 209.826 11.760 216.426 21.560 216.426C22.480 216.426 23.520 216.346 24.320 216.186C24.760 216.106 24.840 216.066 24.920 216.546C25.400 219.226 26 222.706 26 224.586C26 230.506 22 231.226 19.640 231.226C17.480 231.226 16.440 230.586 16.440 230.066C16.440 229.626 16.800 229.666 17.720 229.386C18.960 229.026 20.400 227.946 20.400 225.626C20.400 223.426 19 221.546 16.560 221.546C13.880 221.546 12.280 223.666 12.280 226.146C12.280 228.746 13.840 232.666 19.880 232.666C22.560 232.666 27.760 231.466 27.760 224.666C27.760 222.386 27.040 218.586 26.600 216.106C26.520 215.626 26.560 215.666 27.120 215.426C31.160 213.826 33.840 210.426 33.840 205.906C33.840 200.786 30.080 196.266 24.200 196.266C23.080 196.266 23.200 196.466 23.040 195.546L22.040 189.746C21.960 189.266 22.040 189.226 22.280 188.986C22.920 188.386 23.760 187.546 24.520 186.706C27.880 183.026 29.880 178.266 29.880 173.746C29.880 170.266 28.920 166.826 27.280 164.426C26.680 163.546 25.640 162.426 25.200 162.426M20.040 190.586C20.440 190.266 20.520 190.306 20.600 190.746L21.440 195.866C21.560 196.626 21.560 196.586 20.840 196.826C17.320 198.026 15.040 201.186 15.040 204.586C15.040 208.186 16.920 210.746 19.640 211.666C19.960 211.786 20.440 211.906 20.720 211.906C21.040 211.906 21.200 211.706 21.200 211.466C21.200 211.186 20.880 211.066 20.600 210.946C18.920 210.226 17.720 208.506 17.720 206.666C17.720 204.386 19.280 202.666 21.720 201.986C22.360 201.826 22.440 201.866 22.520 202.306L24.520 214.226C24.600 214.666 24.560 214.666 23.960 214.786C23.320 214.906 22.520 214.986 21.720 214.986C14.720 214.986 10.200 211.106 10.200 205.546C10.200 203.186 10.600 200.026 13.920 196.266C16.320 193.586 18.160 192.106 20.040 190.586M24.640 201.666C27.880 201.946 30.560 204.666 30.560 208.186C30.560 210.706 29.040 212.746 26.800 213.866C26.320 214.106 26.240 214.106 26.160 213.626L24.200 202.226C24.120 201.746 24.160 201.626 24.640 201.666M25.800 168.626C27.120 168.626 28.200 169.706 28.200 171.906C28.200 174.666 26.880 177.226 23.760 180.346C23.120 180.986 22.160 181.906 21.240 182.706C20.960 182.946 20.800 182.906 20.720 182.386C20.560 181.346 20.480 179.986 20.480 178.706C20.480 172.466 23.360 168.626 25.800 168.626"></path></g><g></g><path d="M57.820 186.306C56.620 186.306 55.220 186.626 54.140 187.106C50.580 188.666 48.700 192.946 48.700 196.746C48.700 197.106 48.700 197.466 48.740 197.826C48.940 199.986 49.980 202.026 51.300 203.626C52.820 205.466 55.020 206.306 57.420 206.306C64.420 206.306 65.460 199.946 65.460 198.786C65.460 197.906 65.020 197.906 64.860 197.906C64.540 197.906 64.260 197.946 64.260 198.626C64.260 203.786 59.860 204.986 58.580 204.986C55.340 204.986 53.620 201.826 53.620 195.226C53.620 188.626 56.660 187.266 58.820 187.266C60.900 187.266 61.740 188.226 61.740 188.626C61.740 188.986 61.620 189.506 61.020 189.506C59.420 189.506 58.500 191.226 58.500 192.466C58.500 194.746 60.460 195.466 61.580 195.466C61.580 195.466 64.620 195.346 64.620 192.026C64.620 186.786 58.580 186.306 57.820 186.306"></path></g><g><line stroke="black" stroke-width="1.6" x1="296.6542767025896" x2="296.6542767025896" y1="176.3461538461538" y2="216.3461538461538"></line></g><g><g><path d="M93.360 206.986C97.360 206.986 102.280 203.266 102.280 199.466C102.280 197.186 100.480 195.706 97.880 195.706C92.960 195.706 89 199.346 89 203.226C89 205.586 90.920 206.986 93.360 206.986"></path></g><line stroke="#000000" stroke-width="1.2" x1="101.68" x2="101.68" y1="199.5061538461538" y2="164.5061538461538"></line><text font-family="Alegreya" font-size="22" text-anchor="middle" x="95.64" y="256.3461538461538">Tra</text></g><g><g><path d="M145.074 206.986C149.074 206.986 153.994 203.266 153.994 199.466C153.994 197.186 152.194 195.706 149.594 195.706C144.674 195.706 140.714 199.346 140.714 203.226C140.714 205.586 142.634 206.986 145.074 206.986"></path></g><line stroke="#000000" stroke-width="1.2" x1="153.3935691756474" x2="153.3935691756474" y1="199.5061538461538" y2="164.5061538461538"></line><text font-family="Alegreya" font-size="22" text-anchor="middle" x="147.3535691756474" y="256.3461538461538">la</text></g><g><g><path d="M196.787 206.986C200.787 206.986 205.707 203.266 205.707 199.466C205.707 197.186 203.907 195.706 201.307 195.706C196.387 195.706 192.427 199.346 192.427 203.226C192.427 205.586 194.347 206.986 196.787 206.986"></path></g><line stroke="#000000" stroke-width="1.2" x1="205.1071383512948" x2="205.1071383512948" y1="199.5061538461538" y2="164.5061538461538"></line><text font-family="Alegreya" font-size="22" text-anchor="middle" x="199.06713835129477" y="256.3461538461538">li</text></g><g><g><path d="M248.501 206.986C252.501 206.986 257.421 203.266 257.421 199.466C257.421 197.186 255.621 195.706 253.021 195.706C248.101 195.706 244.141 199.346 244.141 203.226C244.141 205.586 246.061 206.986 248.501 206.986"></path></g><line stroke="#000000" stroke-width="1.2" x1="256.82070752694216" x2="256.82070752694216" y1="199.5061538461538" y2="164.5061538461538"></line><text font-family="Alegreya" font-size="22" text-anchor="middle" x="250.78070752694214" y="256.3461538461538">Ja!</text></g></g><g transform="translate(476.3004305487434)"><g><g><line stroke="#6A6A6A" stroke-width="1.3" x1="-16.599999999999966" x2="423.65380453920346" y1="216.3461538461538" y2="216.3461538461538"></line><line stroke="#6A6A6A" stroke-width="1.3" x1="-16.599999999999966" x2="423.65380453920346" y1="206.3461538461538" y2="206.3461538461538"></line><line stroke="#6A6A6A" stroke-width="1.3" x1="-16.599999999999966" x2="423.65380453920346" y1="196.3461538461538" y2="196.3461538461538"></line><line stroke="#6A6A6A" stroke-width="1.3" x1="-16.599999999999966" x2="423.65380453920346" y1="186.3461538461538" y2="186.3461538461538"></line><line stroke="#6A6A6A" stroke-width="1.3" x1="-16.599999999999966" x2="423.65380453920346" y1="176.3461538461538" y2="176.3461538461538"></line></g></g><g><line stroke="black" stroke-width="1.6" x1="207.65427670258958" x2="207.65427670258958" y1="176.3461538461538" y2="216.3461538461538"></line></g><g><g><path d="M4.360 206.986C8.360 206.986 13.280 203.266 13.280 199.466C13.280 197.186 11.480 195.706 8.880 195.706C3.960 195.706 0 199.346 0 203.226C0 205.586 1.920 206.986 4.360 206.986"></path></g><line stroke="#000000" stroke-width="1.2" x1="12.680000000000001" x2="12.680000000000001" y1="199.5061538461538" y2="164.5061538461538"></line></g><g><g><path d="M56.074 206.986C60.074 206.986 64.994 203.266 64.994 199.466C64.994 197.186 63.194 195.706 60.594 195.706C55.674 195.706 51.714 199.346 51.714 203.226C51.714 205.586 53.634 206.986 56.074 206.986"></path></g><line stroke="#000000" stroke-width="1.2" x1="64.3935691756474" x2="64.3935691756474" y1="199.5061538461538" y2="164.5061538461538"></line><text font-family="Alegreya" font-size="22" text-anchor="middle" x="58.353569175647394" y="256.3461538461538">Tra</text></g><g><g><path d="M107.787 206.986C111.787 206.986 116.707 203.266 116.707 199.466C116.707 197.186 114.907 195.706 112.307 195.706C107.387 195.706 103.427 199.346 103.427 203.226C103.427 205.586 105.347 206.986 107.787 206.986"></path></g><line stroke="#000000" stroke-width="1.2" x1="116.1071383512948" x2="116.1071383512948" y1="199.5061538461538" y2="164.5061538461538"></line></g><g><g><path d="M159.501 206.986C163.501 206.986 168.421 203.266 168.421 199.466C168.421 197.186 166.621 195.706 164.021 195.706C159.101 195.706 155.141 199.346 155.141 203.226C155.141 205.586 157.061 206.986 159.501 206.986"></path></g><line stroke="#000000" stroke-width="1.2" x1="167.82070752694216" x2="167.82070752694216" y1="199.5061538461538" y2="164.5061538461538"></line><text font-family="Alegreya" font-size="22" text-anchor="middle" x="161.78070752694214" y="256.3461538461538">ra!</text></g></g><g transform="translate(699.754707251333)"><g></g><g><line stroke="#000000" stroke-width="1.6" x1="190.39952783661397" x2="190.39952783661397" y1="176.3461538461538" y2="216.3461538461538"></line><line stroke="#000000" stroke-width="5" x1="197.69952783661395" x2="197.69952783661395" y1="176.3461538461538" y2="216.3461538461538"></line></g><g><g><path d="M4.360 206.986C8.360 206.986 13.280 203.266 13.280 199.466C13.280 197.186 11.480 195.706 8.880 195.706C3.960 195.706 0 199.346 0 203.226C0 205.586 1.920 206.986 4.360 206.986"></path></g><line stroke="#000000" stroke-width="1.2" x1="12.680000000000001" x2="12.680000000000001" y1="199.5061538461538" y2="164.5061538461538"></line></g><g><g><path d="M56.074 206.986C60.074 206.986 64.994 203.266 64.994 199.466C64.994 197.186 63.194 195.706 60.594 195.706C55.674 195.706 51.714 199.346 51.714 203.226C51.714 205.586 53.634 206.986 56.074 206.986"></path></g><line stroke="#000000" stroke-width="1.2" x1="64.3935691756474" x2="64.3935691756474" y1="199.5061538461538" y2="164.5061538461538"></line><text font-family="Alegreya" font-size="22" text-anchor="middle" x="58.353569175647394" y="256.3461538461538">Bah!</text></g><g><g><path d="M107.907 207.146C115.547 207.146 117.067 200.946 117.067 199.426C117.067 197.066 115.187 195.546 112.507 195.546C105.587 195.546 103.427 200.906 103.427 203.306C103.427 205.746 105.387 207.146 107.907 207.146M111.427 203.466C109.347 204.866 107.907 205.346 106.907 205.346C105.947 205.346 105.387 204.866 105.067 204.306C104.907 204.026 104.787 203.706 104.787 203.386C104.787 202.386 105.787 201.106 108.987 199.266C111.267 197.946 112.707 197.466 113.667 197.466C114.547 197.466 115.027 197.866 115.347 198.426C115.507 198.706 115.627 198.986 115.627 199.306C115.627 200.226 114.667 201.346 111.427 203.466"></path></g><line stroke="#000000" stroke-width="1.2" x1="116.46713835129479" x2="116.46713835129479" y1="199.42615384615382" y2="164.42615384615382"></line></g></g></svg>