<?xml version="1.0" encoding="UTF-8" standalone="no"?><svg xmlns="http://www.w3.org/2000/svg" height="279.4mm" viewBox="0 0 1328.6153846153845 1719.3846153846152" width="215.9mm"><g transform="translate(163.84615384615387)"><g><g><line stroke="#6A6A6A" stroke-width="1.3" x1="0" x2="738.6197102993615" y1="216.3461538461538" y2="216.3461538461538"></line><line stroke="#6A6A6A" stroke-width="1.3" x1="0" x2="738.6197102993615" y1="206.3461538461538" y2="206.3461538461538"></line><line stroke="#6A6A6A" stroke-width="1.3" x1="0" x2="738.6197102993615" y1="196.3461538461538" y2="196.3461538461538"></line><line stroke="#6A6A6A" stroke-width="1.3" x1="0" x2="738.6197102993615" y1="186.3461538461538" y2="186.3461538461538"></line><line stroke="#6A6A6A" stroke-width="1.3" x1="0" x2="738.6197102993615" y1="176.3461538461538" y2="176.3461538461538"></line></g><g><path d="M25.200 162.426C24.640 162.426 23.400 163.466 22.600 164.346C19.640 167.626 18.680 172.626 18.680 176.786C18.680 179.106 18.960 181.706 19.240 183.346C19.320 183.826 19.360 183.906 18.880 184.306C16.320 186.426 13.560 188.866 11.480 191.426C8.720 194.866 7 198.586 7 202.866C7 209.826 11.760 216.426 21.560 216.426C22.480 216.426 23.520 216.346 24.320 216.186C24.760 216.106 24.840 216.066 24.920 216.546C25.400 219.226 26 222.706 26 224.586C26 230.506 22 231.226 19.640 231.226C17.480 231.226 16.440 230.586 16.440 230.066C16.440 229.626 16.800 229.666 17.720 229.386C18.960 229.026 20.400 227.946 20.400 225.626C20.400 223.426 19 221.546 16.560 221.546C13.880 221.546 12.280 223.666 12.280 226.146C12.280 228.746 13.840 232.666 19.880 232.666C22.560 232.666 27.760 231.466 27.760 224.666C27.760 222.386 27.040 218.586 26.600 216.106C26.520 215.626 26.560 215.666 27.120 215.426C31.160 213.826 33.840 210.426 33.840 205.906C33.840 200.786 30.080 196.266 24.200 196.266C23.080 196.266 23.200 196.466 23.040 195.546L22.040 189.746C21.960 189.266 22.040 189.226 22.280 188.986C22.920 188.386 23.760 187.546 24.520 186.706C27.880 183.026 29.880 178.266 29.880 173.746C29.880 170.266 28.920 166.826 27.280 164.426C26.680 163.546 25.640 162.426 25.200 162.426M20.040 190.586C20.440 190.266 20.520 190.306 20.600 190.746L21.440 195.866C21.560 196.626 21.560 196.586 20.840 196.826C17.320 198.026 15.040 201.186 15.040 204.586C15.040 208.186 16.920 210.746 19.640 211.666C19.960 211.786 20.440 211.906 20.720 211.906C21.040 211.906 21.200 211.706 21.200 211.466C21.200 211.186 20.880 211.066 20.600 210.946C18.920 210.226 17.720 208.506 17.720 206.666C17.720 204.386 19.280 202.666 21.720 201.986C22.360 201.826 22.440 201.866 22.520 202.306L24.520 214.226C24.600 214.666 24.560 214.666 23.960 214.786C23.320 214.906 22.520 214.986 21.720 214.986C14.720 214.986 10.200 211.106 10.200 205.546C10.200 203.186 10.600 200.026 13.920 196.266C16.320 193.586 18.160 192.106 20.040 190.586M24.640 201.666C27.880 201.946 30.560 204.666 30.560 208.186C30.560 210.706 29.040 212.746 26.800 213.866C26.320 214.106 26.240 214.106 26.160 213.626L24.200 202.226C24.120 201.746 24.160 201.626 24.640 201.666M25.800 168.626C27.120 168.626 28.200 169.706 28.200 171.906C28.200 174.666 26.880 177.226 23.760 180.346C23.120 180.986 22.160 181.906 21.240 182.706C20.960 182.946 20.800 182.906 20.720 182.386C20.560 181.346 20.480 179.986 20.480 178.706C20.480 172.466 23.360 168.626 25.800 168.626"></path></g><g></g><g><g><path d="M64.860 189.986C64.860 189.506 64.660 189.426 64.380 189.426C64.060 189.426 63.940 189.586 63.860 189.826C63.860 189.866 63.820 189.906 63.820 189.946C63.420 190.906 63.100 191.666 62.260 191.666C62.060 191.666 61.860 191.626 61.580 191.546C61.060 191.346 60.780 191.306 60.380 191.106C59.580 190.786 57.700 190.146 56.060 190.146C55.540 190.146 55.020 190.226 54.580 190.386C55.460 188.946 58.860 187.746 59.740 187.506C60.340 187.346 62.020 187.026 63.340 185.946C64.300 185.186 65.060 184.026 65.060 182.266C65.060 180.386 64.260 179.026 63.220 178.146C61.180 176.426 58.060 176.186 57.180 176.186C56.100 176.186 54.740 176.226 53.700 176.466C52.300 176.746 50.900 177.586 49.940 178.706C49.260 179.546 48.820 180.546 48.820 181.626C48.820 182.186 48.940 182.746 49.180 183.346C49.780 184.586 51.020 185.546 52.460 185.546C54.900 185.546 55.260 183.026 55.260 182.026C55.260 179.626 52.500 179.506 52.500 178.706C52.580 178.146 53.300 177.186 55.660 177.186C59.220 177.186 59.260 179.866 59.260 181.026C59.260 182.546 58.780 183.946 57.900 185.106C56.460 187.026 55.340 187.986 53.380 189.186C51.180 190.586 49.620 192.546 48.940 195.066C48.940 195.146 48.900 195.226 48.900 195.306C48.900 195.746 49.180 196.266 49.620 196.546C49.740 196.626 49.860 196.626 49.940 196.626C50.820 196.626 51.300 194.186 53.660 194.186C55.260 194.186 55.860 196.346 59.420 196.346C61.140 196.346 64.220 196.186 64.860 189.986"></path></g><g><path d="M65.180 209.306L62.260 209.306L62.260 200.746C62.260 200.426 62.220 200.066 61.780 200.066C61.420 200.066 61.220 200.146 60.980 200.426L57.180 205.026C57.020 205.226 56.820 205.466 56.820 205.946C56.820 205.946 56.820 207.546 56.820 209.306L51.420 209.306C54.620 206.586 61.020 197.506 61.140 197.066C61.140 196.986 61.180 196.946 61.180 196.866C61.180 196.546 60.900 196.306 60.580 196.306C60.220 196.306 58.580 196.386 57.860 196.386C57.140 196.386 55.340 196.306 55.020 196.306C54.660 196.306 54.100 196.426 54.100 197.066C54.100 202.026 50.180 207.586 48.980 209.266L48.740 209.586C48.740 209.626 48.700 209.666 48.700 209.706C48.620 209.866 48.580 210.026 48.580 210.146C48.580 210.546 48.900 210.826 49.380 210.826L56.820 210.826L56.820 213.346C56.820 214.426 55.940 214.746 55.220 214.746C54.580 214.746 54.300 215.106 54.300 215.506C54.300 215.906 54.460 216.346 55.060 216.346C55.700 216.346 63.580 216.346 63.580 216.346C63.980 216.346 64.380 216.066 64.380 215.506C64.380 214.946 63.900 214.706 63.500 214.706C63.100 214.706 62.260 214.466 62.260 213.186L62.260 210.826C63.980 210.826 65.180 210.826 65.180 210.826C65.580 210.826 65.780 210.546 65.780 210.066C65.780 209.586 65.620 209.306 65.180 209.306"></path></g></g></g><g><line stroke="#000000" stroke-width="1.6" x1="728.8197102993613" x2="728.8197102993613" y1="176.3461538461538" y2="216.3461538461538"></line><line stroke="#000000" stroke-width="5" x1="736.1197102993614" x2="736.1197102993614" y1="176.3461538461538" y2="216.3461538461538"></line></g><g><g><path d="M93.360 201.986C97.360 201.986 102.280 198.266 102.280 194.466C102.280 192.186 100.480 190.706 97.880 190.706C92.960 190.706 89 194.346 89 198.226C89 200.586 90.920 201.986 93.360 201.986"></path></g><line stroke="#000000" stroke-width="1.2" x1="89.6" x2="89.6" y1="198.18615384615381" y2="232.18615384615381"></line><g><polygon fill="black" points="89.6,233.3461538461538 185.56281137246006,233.3461538461538 185.56281137246006,228.3461538461538 89.6,228.3461538461538" stroke="black" stroke-width="0"></polygon></g><g><polygon fill="black" points="85.6,251.5061538461538 636.6568989269014,251.5061538461538 636.6568989269014,249.9061538461538 85.6,249.9061538461538" stroke="black" stroke-width="0"></polygon><line fill="black" stroke="black" stroke-width="1.6" x1="86.1" x2="86.1" y1="249.9061538461538" y2="243.5061538461538"></line><line fill="black" stroke="black" stroke-width="1.6" x1="636.1568989269014" x2="636.1568989269014" y1="249.9061538461538" y2="243.5061538461538"></line><g><polygon fill="white" points="349.2084494634507,244.4061538461538 349.2084494634507,259.0861538461538 373.0484494634507,259.0861538461538 373.0484494634507,244.4061538461538" stroke="white" stroke-width="0"></polygon><path d="M358.608 258.686C357.808 258.686 357.168 258.366 357.168 257.966C357.168 257.726 357.368 257.646 357.688 257.486C358.128 257.286 358.688 256.806 358.688 255.766C358.688 254.806 358.008 254.326 357.168 254.326C356.048 254.326 355.208 255.326 355.208 256.646C355.208 258.246 356.488 259.726 359.328 259.726C362.728 259.726 365.528 257.686 365.528 254.526C365.528 253.526 365.008 252.566 363.968 252.046C363.688 251.926 363.528 251.886 363.528 251.686C363.528 251.486 363.688 251.486 364.008 251.326C365.688 250.646 367.048 249.366 367.048 247.766C367.048 245.686 365.048 244.406 362.608 244.406C360.088 244.406 358.008 245.726 357.928 247.886C357.888 248.926 358.528 249.606 359.448 249.606C360.448 249.606 361.248 248.806 361.248 247.726C361.248 247.286 361.088 246.966 360.888 246.726C360.608 246.486 360.408 246.446 360.408 246.206C360.408 245.926 360.888 245.646 361.728 245.646C363.288 245.646 363.808 246.606 363.808 247.486C363.808 249.606 362.448 251.126 360.128 251.126L359.688 251.126C359.168 251.126 358.888 251.366 358.888 251.726C358.888 252.086 359.168 252.326 359.688 252.326L360.088 252.326C361.568 252.326 362.288 253.206 362.288 254.486C362.288 256.246 361.048 258.686 358.608 258.686"></path></g></g></g><g><g><path d="M189.323 201.986C193.323 201.986 198.243 198.266 198.243 194.466C198.243 192.186 196.443 190.706 193.843 190.706C188.923 190.706 184.963 194.346 184.963 198.226C184.963 200.586 186.883 201.986 189.323 201.986"></path></g><line stroke="#000000" stroke-width="1.2" x1="185.56281137246006" x2="185.56281137246006" y1="198.18615384615381" y2="232.18615384615381"></line></g><g><g><path d="M285.286 201.986C289.286 201.986 294.206 198.266 294.206 194.466C294.206 192.186 292.406 190.706 289.806 190.706C284.886 190.706 280.926 194.346 280.926 198.226C280.926 200.586 282.846 201.986 285.286 201.986"></path></g><line stroke="#000000" stroke-width="1.2" x1="281.52562274492016" x2="281.52562274492016" y1="198.18615384615381" y2="232.18615384615381"></line><g><polygon fill="black" points="281.52562274492016,233.3461538461538 332.5593157068244,233.34615384615378 332.5593157068244,228.34615384615378 281.52562274492016,228.3461538461538" stroke="black" stroke-width="0"></polygon><polygon fill="black" points="332.5593157068244,233.34615384615378 383.59300866872866,233.3461538461538 383.59300866872866,228.3461538461538 332.5593157068244,228.34615384615378" stroke="black" stroke-width="0"></polygon><polygon fill="black" points="383.59300866872866,233.3461538461538 434.62670163063285,233.3461538461538 434.62670163063285,228.3461538461538 383.59300866872866,228.3461538461538" stroke="black" stroke-width="0"></polygon><polygon fill="black" points="434.62670163063285,233.3461538461538 485.66039459253705,233.3461538461538 485.66039459253705,228.3461538461538 434.62670163063285,228.3461538461538" stroke="black" stroke-width="0"></polygon><g><polygon fill="white" points="371.2530086687286,238.52615384615385 371.2530086687286,253.12615384615384 395.9330086687286,253.12615384615384 395.9330086687286,238.52615384615385" stroke="white" stroke-width="0"></polygon><path d="M389.573 238.526C389.333 238.526 389.133 238.646 388.573 238.806C387.773 239.046 386.773 239.166 385.613 239.166C384.493 239.166 383.693 239.006 383.213 238.846C382.653 238.686 382.413 238.646 382.133 238.646C381.693 238.646 381.413 238.846 381.253 239.326L379.053 245.766C378.933 246.166 378.893 246.286 378.893 246.526C378.893 246.886 379.173 247.126 379.533 247.126C379.813 247.126 380.013 247.006 380.293 246.726C380.653 246.366 381.453 245.526 382.693 245.526C384.053 245.526 384.533 246.406 384.533 247.566C384.533 249.486 383.253 252.726 380.653 252.726C379.853 252.726 379.213 252.406 379.213 252.006C379.213 251.766 379.413 251.686 379.733 251.526C380.173 251.326 380.733 250.846 380.733 249.806C380.733 248.846 380.013 248.366 379.173 248.366C378.093 248.366 377.253 249.366 377.253 250.686C377.253 252.286 378.533 253.766 381.373 253.766C385.053 253.766 387.773 251.246 387.773 247.486C387.773 245.166 386.173 244.206 383.573 244.206C382.773 244.206 382.213 244.326 381.693 244.486C381.093 244.646 381.013 244.406 381.133 244.006L381.733 242.206C381.893 241.806 382.053 241.806 382.453 241.886C382.893 241.926 383.493 242.006 384.013 242.006C386.333 242.006 388.173 240.926 389.413 239.766C389.773 239.406 389.933 239.166 389.933 238.886C389.933 238.686 389.773 238.526 389.573 238.526"></path></g></g></g><g><g><path d="M336.319 201.986C340.319 201.986 345.239 198.266 345.239 194.466C345.239 192.186 343.439 190.706 340.839 190.706C335.919 190.706 331.959 194.346 331.959 198.226C331.959 200.586 333.879 201.986 336.319 201.986"></path></g><line stroke="#000000" stroke-width="1.2" x1="332.5593157068244" x2="332.5593157068244" y1="198.18615384615381" y2="232.18615384615381"></line></g><g><g><path d="M387.353 201.986C391.353 201.986 396.273 198.266 396.273 194.466C396.273 192.186 394.473 190.706 391.873 190.706C386.953 190.706 382.993 194.346 382.993 198.226C382.993 200.586 384.913 201.986 387.353 201.986"></path></g><line stroke="#000000" stroke-width="1.2" x1="383.59300866872866" x2="383.59300866872866" y1="198.18615384615381" y2="232.18615384615381"></line></g><g><g><path d="M438.387 201.986C442.387 201.986 447.307 198.266 447.307 194.466C447.307 192.186 445.507 190.706 442.907 190.706C437.987 190.706 434.027 194.346 434.027 198.226C434.027 200.586 435.947 201.986 438.387 201.986"></path></g><line stroke="#000000" stroke-width="1.2" x1="434.62670163063285" x2="434.62670163063285" y1="198.18615384615381" y2="232.18615384615381"></line></g><g><g><path d="M489.420 201.986C493.420 201.986 498.340 198.266 498.340 194.466C498.340 192.186 496.540 190.706 493.940 190.706C489.020 190.706 485.060 194.346 485.060 198.226C485.060 200.586 486.980 201.986 489.420 201.986"></path></g><line stroke="#000000" stroke-width="1.2" x1="485.66039459253705" x2="485.66039459253705" y1="198.18615384615381" y2="232.18615384615381"></line></g><g><g><path d="M540.454 201.986C544.454 201.986 549.374 198.266 549.374 194.466C549.374 192.186 547.574 190.706 544.974 190.706C540.054 190.706 536.094 194.346 536.094 198.226C536.094 200.586 538.014 201.986 540.454 201.986"></path></g><line stroke="#000000" stroke-width="1.2" x1="536.6940875544414" x2="536.6940875544414" y1="198.18615384615381" y2="232.18615384615381"></line><g><polygon fill="black" points="536.6940875544414,233.3461538461538 632.6568989269014,233.3461538461538 632.6568989269014,228.3461538461538 536.6940875544414,228.3461538461538" stroke="black" stroke-width="0"></polygon></g></g><g><g><path d="M636.417 201.986C640.417 201.986 645.337 198.266 645.337 194.466C645.337 192.186 643.537 190.706 640.937 190.706C636.017 190.706 632.057 194.346 632.057 198.226C632.057 200.586 633.977 201.986 636.417 201.986"></path></g><line stroke="#000000" stroke-width="1.2" x1="632.6568989269014" x2="632.6568989269014" y1="198.18615384615381" y2="232.18615384615381"></line></g></g></svg>