<?xml version="1.0" encoding="UTF-8" standalone="no"?><svg xmlns="http://www.w3.org/2000/svg" height="279.4mm" viewBox="0 0 1328.6153846153845 1719.3846153846152" width="215.9mm"><text x="664.3076923076923" y="61.53846153846143"><tspan alignment-baseline="hanging" fill="black" direction="inherit" dx="0" dy="0" font-style="normal" font-weight="normal" font-family="Alegreya" font-size="29.30769230769231" letter-spacing="normal" text-decoration="none" text-anchor="middle">All MusicXML chord names/types with &lt;root&gt;</tspan></text><g transform="translate(163.84615384615387)"><g><g><line stroke="#6A6A6A" stroke-width="1.3" x1="0" x2="197.01538461538462" y1="216.3461538461538" y2="216.3461538461538"></line><line stroke="#6A6A6A" stroke-width="1.3" x1="0" x2="197.01538461538462" y1="206.3461538461538" y2="206.3461538461538"></line><line stroke="#6A6A6A" stroke-width="1.3" x1="0" x2="197.01538461538462" y1="196.3461538461538" y2="196.3461538461538"></line><line stroke="#6A6A6A" stroke-width="1.3" x1="0" x2="197.01538461538462" y1="186.3461538461538" y2="186.3461538461538"></line><line stroke="#6A6A6A" stroke-width="1.3" x1="0" x2="197.01538461538462" y1="176.3461538461538" y2="176.3461538461538"></line></g><g><path d="M25.200 162.426C24.640 162.426 23.400 163.466 22.600 164.346C19.640 167.626 18.680 172.626 18.680 176.786C18.680 179.106 18.960 181.706 19.240 183.346C19.320 183.826 19.360 183.906 18.880 184.306C16.320 186.426 13.560 188.866 11.480 191.426C8.720 194.866 7 198.586 7 202.866C7 209.826 11.760 216.426 21.560 216.426C22.480 216.426 23.520 216.346 24.320 216.186C24.760 216.106 24.840 216.066 24.920 216.546C25.400 219.226 26 222.706 26 224.586C26 230.506 22 231.226 19.640 231.226C17.480 231.226 16.440 230.586 16.440 230.066C16.440 229.626 16.800 229.666 17.720 229.386C18.960 229.026 20.400 227.946 20.400 225.626C20.400 223.426 19 221.546 16.560 221.546C13.880 221.546 12.280 223.666 12.280 226.146C12.280 228.746 13.840 232.666 19.880 232.666C22.560 232.666 27.760 231.466 27.760 224.666C27.760 222.386 27.040 218.586 26.600 216.106C26.520 215.626 26.560 215.666 27.120 215.426C31.160 213.826 33.840 210.426 33.840 205.906C33.840 200.786 30.080 196.266 24.200 196.266C23.080 196.266 23.200 196.466 23.040 195.546L22.040 189.746C21.960 189.266 22.040 189.226 22.280 188.986C22.920 188.386 23.760 187.546 24.520 186.706C27.880 183.026 29.880 178.266 29.880 173.746C29.880 170.266 28.920 166.826 27.280 164.426C26.680 163.546 25.640 162.426 25.200 162.426M20.040 190.586C20.440 190.266 20.520 190.306 20.600 190.746L21.440 195.866C21.560 196.626 21.560 196.586 20.840 196.826C17.320 198.026 15.040 201.186 15.040 204.586C15.040 208.186 16.920 210.746 19.640 211.666C19.960 211.786 20.440 211.906 20.720 211.906C21.040 211.906 21.200 211.706 21.200 211.466C21.200 211.186 20.880 211.066 20.600 210.946C18.920 210.226 17.720 208.506 17.720 206.666C17.720 204.386 19.280 202.666 21.720 201.986C22.360 201.826 22.440 201.866 22.520 202.306L24.520 214.226C24.600 214.666 24.560 214.666 23.960 214.786C23.320 214.906 22.520 214.986 21.720 214.986C14.720 214.986 10.200 211.106 10.200 205.546C10.200 203.186 10.600 200.026 13.920 196.266C16.320 193.586 18.160 192.106 20.040 190.586M24.640 201.666C27.880 201.946 30.560 204.666 30.560 208.186C30.560 210.706 29.040 212.746 26.800 213.866C26.320 214.106 26.240 214.106 26.160 213.626L24.200 202.226C24.120 201.746 24.160 201.626 24.640 201.666M25.800 168.626C27.120 168.626 28.200 169.706 28.200 171.906C28.200 174.666 26.880 177.226 23.760 180.346C23.120 180.986 22.160 181.906 21.240 182.706C20.960 182.946 20.800 182.906 20.720 182.386C20.560 181.346 20.480 179.986 20.480 178.706C20.480 172.466 23.360 168.626 25.800 168.626"></path></g><g></g><path d="M57.820 186.306C56.620 186.306 55.220 186.626 54.140 187.106C50.580 188.666 48.700 192.946 48.700 196.746C48.700 197.106 48.700 197.466 48.740 197.826C48.940 199.986 49.980 202.026 51.300 203.626C52.820 205.466 55.020 206.306 57.420 206.306C64.420 206.306 65.460 199.946 65.460 198.786C65.460 197.906 65.020 197.906 64.860 197.906C64.540 197.906 64.260 197.946 64.260 198.626C64.260 203.786 59.860 204.986 58.580 204.986C55.340 204.986 53.620 201.826 53.620 195.226C53.620 188.626 56.660 187.266 58.820 187.266C60.900 187.266 61.740 188.226 61.740 188.626C61.740 188.986 61.620 189.506 61.020 189.506C59.420 189.506 58.500 191.226 58.500 192.466C58.500 194.746 60.460 195.466 61.580 195.466C61.580 195.466 64.620 195.346 64.620 192.026C64.620 186.786 58.580 186.306 57.820 186.306"></path></g><g><line stroke="black" stroke-width="1.6" x1="197.81538461538463" x2="197.81538461538463" y1="176.3461538461538" y2="216.3461538461538"></line></g><g><g><path d="M93.360 231.986C97.360 231.986 102.280 228.266 102.280 224.466C102.280 222.186 100.480 220.706 97.880 220.706C92.960 220.706 89 224.346 89 228.226C89 230.586 90.920 231.986 93.360 231.986"></path></g><line stroke="#000000" stroke-width="1.2" x1="101.68" x2="101.68" y1="224.5061538461538" y2="189.5061538461538"></line><line stroke="#000000" stroke-width="2.2" x1="85.8" x2="107.72" y1="226.3461538461538" y2="226.3461538461538"></line><text font-family="Alegreya" font-size="22" text-anchor="middle" x="95.64" y="256.3461538461538">major</text></g><g><g><path d="M120.364 231.986C124.364 231.986 129.284 228.266 129.284 224.466C129.284 222.186 127.484 220.706 124.884 220.706C119.964 220.706 116.004 224.346 116.004 228.226C116.004 230.586 117.924 231.986 120.364 231.986"></path></g><line stroke="#000000" stroke-width="1.2" x1="128.68384615384616" x2="128.68384615384616" y1="224.5061538461538" y2="189.5061538461538"></line><line stroke="#000000" stroke-width="2.2" x1="112.80384615384615" x2="134.72384615384615" y1="226.3461538461538" y2="226.3461538461538"></line><text font-family="Alegreya" font-size="22" text-anchor="middle" x="122.64384615384616" y="256.3461538461538">minor</text></g><g><g><path d="M147.368 231.986C151.368 231.986 156.288 228.266 156.288 224.466C156.288 222.186 154.488 220.706 151.888 220.706C146.968 220.706 143.008 224.346 143.008 228.226C143.008 230.586 144.928 231.986 147.368 231.986"></path></g><line stroke="#000000" stroke-width="1.2" x1="155.68769230769232" x2="155.68769230769232" y1="224.5061538461538" y2="189.5061538461538"></line><line stroke="#000000" stroke-width="2.2" x1="139.80769230769232" x2="161.7276923076923" y1="226.3461538461538" y2="226.3461538461538"></line><text font-family="Alegreya" font-size="22" text-anchor="middle" x="149.6476923076923" y="256.3461538461538">augmented</text></g><g><g><path d="M174.372 231.986C178.372 231.986 183.292 228.266 183.292 224.466C183.292 222.186 181.492 220.706 178.892 220.706C173.972 220.706 170.012 224.346 170.012 228.226C170.012 230.586 171.932 231.986 174.372 231.986"></path></g><line stroke="#000000" stroke-width="1.2" x1="182.69153846153847" x2="182.69153846153847" y1="224.5061538461538" y2="189.5061538461538"></line><line stroke="#000000" stroke-width="2.2" x1="166.81153846153848" x2="188.73153846153846" y1="226.3461538461538" y2="226.3461538461538"></line><text font-family="Alegreya" font-size="22" text-anchor="middle" x="176.65153846153845" y="256.3461538461538">diminished</text></g></g><g transform="translate(377.46153846153845)"><g><g><line stroke="#6A6A6A" stroke-width="1.3" x1="-16.599999999999994" x2="857.3076923076923" y1="216.3461538461538" y2="216.3461538461538"></line><line stroke="#6A6A6A" stroke-width="1.3" x1="-16.599999999999994" x2="857.3076923076923" y1="206.3461538461538" y2="206.3461538461538"></line><line stroke="#6A6A6A" stroke-width="1.3" x1="-16.599999999999994" x2="857.3076923076923" y1="196.3461538461538" y2="196.3461538461538"></line><line stroke="#6A6A6A" stroke-width="1.3" x1="-16.599999999999994" x2="857.3076923076923" y1="186.3461538461538" y2="186.3461538461538"></line><line stroke="#6A6A6A" stroke-width="1.3" x1="-16.599999999999994" x2="857.3076923076923" y1="176.3461538461538" y2="176.3461538461538"></line></g></g><g><line stroke="black" stroke-width="1.6" x1="108.81538461538462" x2="108.81538461538462" y1="176.3461538461538" y2="216.3461538461538"></line></g><g><g><path d="M4.360 231.986C8.360 231.986 13.280 228.266 13.280 224.466C13.280 222.186 11.480 220.706 8.880 220.706C3.960 220.706 0 224.346 0 228.226C0 230.586 1.920 231.986 4.360 231.986"></path></g><line stroke="#000000" stroke-width="1.2" x1="12.680000000000001" x2="12.680000000000001" y1="224.5061538461538" y2="189.5061538461538"></line><line stroke="#000000" stroke-width="2.2" x1="-3.2" x2="18.72" y1="226.3461538461538" y2="226.3461538461538"></line><text font-family="Alegreya" font-size="22" text-anchor="middle" x="6.640000000000001" y="256.3461538461538">dominant</text></g><g><g><path d="M31.364 231.986C35.364 231.986 40.284 228.266 40.284 224.466C40.284 222.186 38.484 220.706 35.884 220.706C30.964 220.706 27.004 224.346 27.004 228.226C27.004 230.586 28.924 231.986 31.364 231.986"></path></g><line stroke="#000000" stroke-width="1.2" x1="39.683846153846154" x2="39.683846153846154" y1="224.5061538461538" y2="189.5061538461538"></line><line stroke="#000000" stroke-width="2.2" x1="23.803846153846155" x2="45.723846153846154" y1="226.3461538461538" y2="226.3461538461538"></line><text font-family="Alegreya" font-size="22" text-anchor="middle" x="33.643846153846155" y="256.3461538461538">major-seventh</text></g><g><g><path d="M58.368 231.986C62.368 231.986 67.288 228.266 67.288 224.466C67.288 222.186 65.488 220.706 62.888 220.706C57.968 220.706 54.008 224.346 54.008 228.226C54.008 230.586 55.928 231.986 58.368 231.986"></path></g><line stroke="#000000" stroke-width="1.2" x1="66.68769230769232" x2="66.68769230769232" y1="224.5061538461538" y2="189.5061538461538"></line><line stroke="#000000" stroke-width="2.2" x1="50.80769230769231" x2="72.72769230769231" y1="226.3461538461538" y2="226.3461538461538"></line><text font-family="Alegreya" font-size="22" text-anchor="middle" x="60.64769230769231" y="256.3461538461538">minor-seventh</text></g><g><g><path d="M85.372 231.986C89.372 231.986 94.292 228.266 94.292 224.466C94.292 222.186 92.492 220.706 89.892 220.706C84.972 220.706 81.012 224.346 81.012 228.226C81.012 230.586 82.932 231.986 85.372 231.986"></path></g><line stroke="#000000" stroke-width="1.2" x1="93.69153846153847" x2="93.69153846153847" y1="224.5061538461538" y2="189.5061538461538"></line><line stroke="#000000" stroke-width="2.2" x1="77.81153846153846" x2="99.73153846153846" y1="226.3461538461538" y2="226.3461538461538"></line><text font-family="Alegreya" font-size="22" text-anchor="middle" x="87.65153846153846" y="256.3461538461538">diminished-seventh</text></g></g><g transform="translate(502.0769230769231)"><g></g><g><line stroke="black" stroke-width="1.6" x1="108.81538461538462" x2="108.81538461538462" y1="176.3461538461538" y2="216.3461538461538"></line></g><g><g><path d="M4.360 231.986C8.360 231.986 13.280 228.266 13.280 224.466C13.280 222.186 11.480 220.706 8.880 220.706C3.960 220.706 0 224.346 0 228.226C0 230.586 1.920 231.986 4.360 231.986"></path></g><line stroke="#000000" stroke-width="1.2" x1="12.680000000000001" x2="12.680000000000001" y1="224.5061538461538" y2="189.5061538461538"></line><line stroke="#000000" stroke-width="2.2" x1="-3.2" x2="18.72" y1="226.3461538461538" y2="226.3461538461538"></line><text font-family="Alegreya" font-size="22" text-anchor="middle" x="6.640000000000001" y="256.3461538461538">augmented-seventh</text></g><g><g><path d="M31.364 231.986C35.364 231.986 40.284 228.266 40.284 224.466C40.284 222.186 38.484 220.706 35.884 220.706C30.964 220.706 27.004 224.346 27.004 228.226C27.004 230.586 28.924 231.986 31.364 231.986"></path></g><line stroke="#000000" stroke-width="1.2" x1="39.683846153846154" x2="39.683846153846154" y1="224.5061538461538" y2="189.5061538461538"></line><line stroke="#000000" stroke-width="2.2" x1="23.803846153846155" x2="45.723846153846154" y1="226.3461538461538" y2="226.3461538461538"></line><text font-family="Alegreya" font-size="22" text-anchor="middle" x="33.643846153846155" y="256.3461538461538">half-diminished</text></g><g><g><path d="M58.368 231.986C62.368 231.986 67.288 228.266 67.288 224.466C67.288 222.186 65.488 220.706 62.888 220.706C57.968 220.706 54.008 224.346 54.008 228.226C54.008 230.586 55.928 231.986 58.368 231.986"></path></g><line stroke="#000000" stroke-width="1.2" x1="66.68769230769232" x2="66.68769230769232" y1="224.5061538461538" y2="189.5061538461538"></line><line stroke="#000000" stroke-width="2.2" x1="50.80769230769231" x2="72.72769230769231" y1="226.3461538461538" y2="226.3461538461538"></line><text font-family="Alegreya" font-size="22" text-anchor="middle" x="60.64769230769231" y="256.3461538461538">major-minor</text></g><g><g><path d="M85.372 231.986C89.372 231.986 94.292 228.266 94.292 224.466C94.292 222.186 92.492 220.706 89.892 220.706C84.972 220.706 81.012 224.346 81.012 228.226C81.012 230.586 82.932 231.986 85.372 231.986"></path></g><line stroke="#000000" stroke-width="1.2" x1="93.69153846153847" x2="93.69153846153847" y1="224.5061538461538" y2="189.5061538461538"></line><line stroke="#000000" stroke-width="2.2" x1="77.81153846153846" x2="99.73153846153846" y1="226.3461538461538" y2="226.3461538461538"></line><text font-family="Alegreya" font-size="22" text-anchor="middle" x="87.65153846153846" y="256.3461538461538">major-sixth</text></g></g><g transform="translate(626.6923076923077)"><g></g><g><line stroke="black" stroke-width="1.6" x1="108.81538461538462" x2="108.81538461538462" y1="176.3461538461538" y2="216.3461538461538"></line></g><g><g><path d="M4.360 231.986C8.360 231.986 13.280 228.266 13.280 224.466C13.280 222.186 11.480 220.706 8.880 220.706C3.960 220.706 0 224.346 0 228.226C0 230.586 1.920 231.986 4.360 231.986"></path></g><line stroke="#000000" stroke-width="1.2" x1="12.680000000000001" x2="12.680000000000001" y1="224.5061538461538" y2="189.5061538461538"></line><line stroke="#000000" stroke-width="2.2" x1="-3.2" x2="18.72" y1="226.3461538461538" y2="226.3461538461538"></line><text font-family="Alegreya" font-size="22" text-anchor="middle" x="6.640000000000001" y="256.3461538461538">minor-sixth</text></g><g><g><path d="M31.364 231.986C35.364 231.986 40.284 228.266 40.284 224.466C40.284 222.186 38.484 220.706 35.884 220.706C30.964 220.706 27.004 224.346 27.004 228.226C27.004 230.586 28.924 231.986 31.364 231.986"></path></g><line stroke="#000000" stroke-width="1.2" x1="39.683846153846154" x2="39.683846153846154" y1="224.5061538461538" y2="189.5061538461538"></line><line stroke="#000000" stroke-width="2.2" x1="23.803846153846155" x2="45.723846153846154" y1="226.3461538461538" y2="226.3461538461538"></line><text font-family="Alegreya" font-size="22" text-anchor="middle" x="33.643846153846155" y="256.3461538461538">dominant-ninth</text></g><g><g><path d="M58.368 231.986C62.368 231.986 67.288 228.266 67.288 224.466C67.288 222.186 65.488 220.706 62.888 220.706C57.968 220.706 54.008 224.346 54.008 228.226C54.008 230.586 55.928 231.986 58.368 231.986"></path></g><line stroke="#000000" stroke-width="1.2" x1="66.68769230769232" x2="66.68769230769232" y1="224.5061538461538" y2="189.5061538461538"></line><line stroke="#000000" stroke-width="2.2" x1="50.80769230769231" x2="72.72769230769231" y1="226.3461538461538" y2="226.3461538461538"></line><text font-family="Alegreya" font-size="22" text-anchor="middle" x="60.64769230769231" y="256.3461538461538">major-ninth</text></g><g><g><path d="M85.372 231.986C89.372 231.986 94.292 228.266 94.292 224.466C94.292 222.186 92.492 220.706 89.892 220.706C84.972 220.706 81.012 224.346 81.012 228.226C81.012 230.586 82.932 231.986 85.372 231.986"></path></g><line stroke="#000000" stroke-width="1.2" x1="93.69153846153847" x2="93.69153846153847" y1="224.5061538461538" y2="189.5061538461538"></line><line stroke="#000000" stroke-width="2.2" x1="77.81153846153846" x2="99.73153846153846" y1="226.3461538461538" y2="226.3461538461538"></line><text font-family="Alegreya" font-size="22" text-anchor="middle" x="87.65153846153846" y="256.3461538461538">minor-ninth</text></g></g><g transform="translate(751.3076923076924)"><g></g><g><line stroke="black" stroke-width="1.6" x1="108.81538461538462" x2="108.81538461538462" y1="176.3461538461538" y2="216.3461538461538"></line></g><g><g><path d="M4.360 231.986C8.360 231.986 13.280 228.266 13.280 224.466C13.280 222.186 11.480 220.706 8.880 220.706C3.960 220.706 0 224.346 0 228.226C0 230.586 1.920 231.986 4.360 231.986"></path></g><line stroke="#000000" stroke-width="1.2" x1="12.680000000000001" x2="12.680000000000001" y1="224.5061538461538" y2="189.5061538461538"></line><line stroke="#000000" stroke-width="2.2" x1="-3.2" x2="18.72" y1="226.3461538461538" y2="226.3461538461538"></line><text font-family="Alegreya" font-size="22" text-anchor="middle" x="6.640000000000001" y="256.3461538461538">dominant-11th</text></g><g><g><path d="M31.364 231.986C35.364 231.986 40.284 228.266 40.284 224.466C40.284 222.186 38.484 220.706 35.884 220.706C30.964 220.706 27.004 224.346 27.004 228.226C27.004 230.586 28.924 231.986 31.364 231.986"></path></g><line stroke="#000000" stroke-width="1.2" x1="39.683846153846154" x2="39.683846153846154" y1="224.5061538461538" y2="189.5061538461538"></line><line stroke="#000000" stroke-width="2.2" x1="23.803846153846155" x2="45.723846153846154" y1="226.3461538461538" y2="226.3461538461538"></line><text font-family="Alegreya" font-size="22" text-anchor="middle" x="33.643846153846155" y="256.3461538461538">major-11th</text></g><g><g><path d="M58.368 231.986C62.368 231.986 67.288 228.266 67.288 224.466C67.288 222.186 65.488 220.706 62.888 220.706C57.968 220.706 54.008 224.346 54.008 228.226C54.008 230.586 55.928 231.986 58.368 231.986"></path></g><line stroke="#000000" stroke-width="1.2" x1="66.68769230769232" x2="66.68769230769232" y1="224.5061538461538" y2="189.5061538461538"></line><line stroke="#000000" stroke-width="2.2" x1="50.80769230769231" x2="72.72769230769231" y1="226.3461538461538" y2="226.3461538461538"></line><text font-family="Alegreya" font-size="22" text-anchor="middle" x="60.64769230769231" y="256.3461538461538">minor-11th</text></g><g><g><path d="M85.372 231.986C89.372 231.986 94.292 228.266 94.292 224.466C94.292 222.186 92.492 220.706 89.892 220.706C84.972 220.706 81.012 224.346 81.012 228.226C81.012 230.586 82.932 231.986 85.372 231.986"></path></g><line stroke="#000000" stroke-width="1.2" x1="93.69153846153847" x2="93.69153846153847" y1="224.5061538461538" y2="189.5061538461538"></line><line stroke="#000000" stroke-width="2.2" x1="77.81153846153846" x2="99.73153846153846" y1="226.3461538461538" y2="226.3461538461538"></line><text font-family="Alegreya" font-size="22" text-anchor="middle" x="87.65153846153846" y="256.3461538461538">dominant-13th</text></g></g><g transform="translate(875.923076923077)"><g></g><g><line stroke="black" stroke-width="1.6" x1="108.81538461538462" x2="108.81538461538462" y1="176.3461538461538" y2="216.3461538461538"></line></g><g><g><path d="M4.360 231.986C8.360 231.986 13.280 228.266 13.280 224.466C13.280 222.186 11.480 220.706 8.880 220.706C3.960 220.706 0 224.346 0 228.226C0 230.586 1.920 231.986 4.360 231.986"></path></g><line stroke="#000000" stroke-width="1.2" x1="12.680000000000001" x2="12.680000000000001" y1="224.5061538461538" y2="189.5061538461538"></line><line stroke="#000000" stroke-width="2.2" x1="-3.2" x2="18.72" y1="226.3461538461538" y2="226.3461538461538"></line><text font-family="Alegreya" font-size="22" text-anchor="middle" x="6.640000000000001" y="256.3461538461538">major-13th</text></g><g><g><path d="M31.364 231.986C35.364 231.986 40.284 228.266 40.284 224.466C40.284 222.186 38.484 220.706 35.884 220.706C30.964 220.706 27.004 224.346 27.004 228.226C27.004 230.586 28.924 231.986 31.364 231.986"></path></g><line stroke="#000000" stroke-width="1.2" x1="39.683846153846154" x2="39.683846153846154" y1="224.5061538461538" y2="189.5061538461538"></line><line stroke="#000000" stroke-width="2.2" x1="23.803846153846155" x2="45.723846153846154" y1="226.3461538461538" y2="226.3461538461538"></line><text font-family="Alegreya" font-size="22" text-anchor="middle" x="33.643846153846155" y="256.3461538461538">minor-13th</text></g><g><g><path d="M58.368 231.986C62.368 231.986 67.288 228.266 67.288 224.466C67.288 222.186 65.488 220.706 62.888 220.706C57.968 220.706 54.008 224.346 54.008 228.226C54.008 230.586 55.928 231.986 58.368 231.986"></path></g><line stroke="#000000" stroke-width="1.2" x1="66.68769230769232" x2="66.68769230769232" y1="224.5061538461538" y2="189.5061538461538"></line><line stroke="#000000" stroke-width="2.2" x1="50.80769230769231" x2="72.72769230769231" y1="226.3461538461538" y2="226.3461538461538"></line><text font-family="Alegreya" font-size="22" text-anchor="middle" x="60.64769230769231" y="256.3461538461538">suspended-second</text></g><g><g><path d="M85.372 231.986C89.372 231.986 94.292 228.266 94.292 224.466C94.292 222.186 92.492 220.706 89.892 220.706C84.972 220.706 81.012 224.346 81.012 228.226C81.012 230.586 82.932 231.986 85.372 231.986"></path></g><line stroke="#000000" stroke-width="1.2" x1="93.69153846153847" x2="93.69153846153847" y1="224.5061538461538" y2="189.5061538461538"></line><line stroke="#000000" stroke-width="2.2" x1="77.81153846153846" x2="99.73153846153846" y1="226.3461538461538" y2="226.3461538461538"></line><text font-family="Alegreya" font-size="22" text-anchor="middle" x="87.65153846153846" y="256.3461538461538">suspended-fourth</text></g></g><g transform="translate(1000.5384615384617)"><g></g><g><line stroke="black" stroke-width="1.6" x1="108.81538461538462" x2="108.81538461538462" y1="176.3461538461538" y2="216.3461538461538"></line></g><g><g><path d="M4.360 231.986C8.360 231.986 13.280 228.266 13.280 224.466C13.280 222.186 11.480 220.706 8.880 220.706C3.960 220.706 0 224.346 0 228.226C0 230.586 1.920 231.986 4.360 231.986"></path></g><line stroke="#000000" stroke-width="1.2" x1="12.680000000000001" x2="12.680000000000001" y1="224.5061538461538" y2="189.5061538461538"></line><line stroke="#000000" stroke-width="2.2" x1="-3.2" x2="18.72" y1="226.3461538461538" y2="226.3461538461538"></line><text font-family="Alegreya" font-size="22" text-anchor="middle" x="6.640000000000001" y="256.3461538461538">Neapolitan</text></g><g><g><path d="M31.364 231.986C35.364 231.986 40.284 228.266 40.284 224.466C40.284 222.186 38.484 220.706 35.884 220.706C30.964 220.706 27.004 224.346 27.004 228.226C27.004 230.586 28.924 231.986 31.364 231.986"></path></g><line stroke="#000000" stroke-width="1.2" x1="39.683846153846154" x2="39.683846153846154" y1="224.5061538461538" y2="189.5061538461538"></line><line stroke="#000000" stroke-width="2.2" x1="23.803846153846155" x2="45.723846153846154" y1="226.3461538461538" y2="226.3461538461538"></line><text font-family="Alegreya" font-size="22" text-anchor="middle" x="33.643846153846155" y="256.3461538461538">Italians</text></g><g><g><path d="M58.368 231.986C62.368 231.986 67.288 228.266 67.288 224.466C67.288 222.186 65.488 220.706 62.888 220.706C57.968 220.706 54.008 224.346 54.008 228.226C54.008 230.586 55.928 231.986 58.368 231.986"></path></g><line stroke="#000000" stroke-width="1.2" x1="66.68769230769232" x2="66.68769230769232" y1="224.5061538461538" y2="189.5061538461538"></line><line stroke="#000000" stroke-width="2.2" x1="50.80769230769231" x2="72.72769230769231" y1="226.3461538461538" y2="226.3461538461538"></line><text font-family="Alegreya" font-size="22" text-anchor="middle" x="60.64769230769231" y="256.3461538461538">French</text></g><g><g><path d="M85.372 231.986C89.372 231.986 94.292 228.266 94.292 224.466C94.292 222.186 92.492 220.706 89.892 220.706C84.972 220.706 81.012 224.346 81.012 228.226C81.012 230.586 82.932 231.986 85.372 231.986"></path></g><line stroke="#000000" stroke-width="1.2" x1="93.69153846153847" x2="93.69153846153847" y1="224.5061538461538" y2="189.5061538461538"></line><line stroke="#000000" stroke-width="2.2" x1="77.81153846153846" x2="99.73153846153846" y1="226.3461538461538" y2="226.3461538461538"></line><text font-family="Alegreya" font-size="22" text-anchor="middle" x="87.65153846153846" y="256.3461538461538">German</text></g></g><g transform="translate(1125.1538461538462)"><g></g><g><line stroke="black" stroke-width="1.6" x1="108.81538461538462" x2="108.81538461538462" y1="176.3461538461538" y2="216.3461538461538"></line></g><g><g><path d="M4.360 231.986C8.360 231.986 13.280 228.266 13.280 224.466C13.280 222.186 11.480 220.706 8.880 220.706C3.960 220.706 0 224.346 0 228.226C0 230.586 1.920 231.986 4.360 231.986"></path></g><line stroke="#000000" stroke-width="1.2" x1="12.680000000000001" x2="12.680000000000001" y1="224.5061538461538" y2="189.5061538461538"></line><line stroke="#000000" stroke-width="2.2" x1="-3.2" x2="18.72" y1="226.3461538461538" y2="226.3461538461538"></line><text font-family="Alegreya" font-size="22" text-anchor="middle" x="6.640000000000001" y="256.3461538461538">pedal</text></g><g><g><path d="M31.364 231.986C35.364 231.986 40.284 228.266 40.284 224.466C40.284 222.186 38.484 220.706 35.884 220.706C30.964 220.706 27.004 224.346 27.004 228.226C27.004 230.586 28.924 231.986 31.364 231.986"></path></g><line stroke="#000000" stroke-width="1.2" x1="39.683846153846154" x2="39.683846153846154" y1="224.5061538461538" y2="189.5061538461538"></line><line stroke="#000000" stroke-width="2.2" x1="23.803846153846155" x2="45.723846153846154" y1="226.3461538461538" y2="226.3461538461538"></line><text font-family="Alegreya" font-size="22" text-anchor="middle" x="33.643846153846155" y="256.3461538461538">power</text></g><g><g><path d="M58.368 231.986C62.368 231.986 67.288 228.266 67.288 224.466C67.288 222.186 65.488 220.706 62.888 220.706C57.968 220.706 54.008 224.346 54.008 228.226C54.008 230.586 55.928 231.986 58.368 231.986"></path></g><line stroke="#000000" stroke-width="1.2" x1="66.68769230769232" x2="66.68769230769232" y1="224.5061538461538" y2="189.5061538461538"></line><line stroke="#000000" stroke-width="2.2" x1="50.80769230769231" x2="72.72769230769231" y1="226.3461538461538" y2="226.3461538461538"></line><text font-family="Alegreya" font-size="22" text-anchor="middle" x="60.64769230769231" y="256.3461538461538">Tristan</text></g><g><g><path d="M85.372 231.986C89.372 231.986 94.292 228.266 94.292 224.466C94.292 222.186 92.492 220.706 89.892 220.706C84.972 220.706 81.012 224.346 81.012 228.226C81.012 230.586 82.932 231.986 85.372 231.986"></path></g><line stroke="#000000" stroke-width="1.2" x1="93.69153846153847" x2="93.69153846153847" y1="224.5061538461538" y2="189.5061538461538"></line><line stroke="#000000" stroke-width="2.2" x1="77.81153846153846" x2="99.73153846153846" y1="226.3461538461538" y2="226.3461538461538"></line><text font-family="Alegreya" font-size="22" text-anchor="middle" x="87.65153846153846" y="256.3461538461538">other</text></g></g><g transform="translate(93.84615384615385)"><g><g><line stroke="#6A6A6A" stroke-width="1.3" x1="0" x2="564.455695653851" y1="352.3461538461538" y2="352.3461538461538"></line><line stroke="#6A6A6A" stroke-width="1.3" x1="0" x2="564.455695653851" y1="342.3461538461538" y2="342.3461538461538"></line><line stroke="#6A6A6A" stroke-width="1.3" x1="0" x2="564.455695653851" y1="332.3461538461538" y2="332.3461538461538"></line><line stroke="#6A6A6A" stroke-width="1.3" x1="0" x2="564.455695653851" y1="322.3461538461538" y2="322.3461538461538"></line><line stroke="#6A6A6A" stroke-width="1.3" x1="0" x2="564.455695653851" y1="312.3461538461538" y2="312.3461538461538"></line></g><g><path d="M25.200 298.426C24.640 298.426 23.400 299.466 22.600 300.346C19.640 303.626 18.680 308.626 18.680 312.786C18.680 315.106 18.960 317.706 19.240 319.346C19.320 319.826 19.360 319.906 18.880 320.306C16.320 322.426 13.560 324.866 11.480 327.426C8.720 330.866 7 334.586 7 338.866C7 345.826 11.760 352.426 21.560 352.426C22.480 352.426 23.520 352.346 24.320 352.186C24.760 352.106 24.840 352.066 24.920 352.546C25.400 355.226 26 358.706 26 360.586C26 366.506 22 367.226 19.640 367.226C17.480 367.226 16.440 366.586 16.440 366.066C16.440 365.626 16.800 365.666 17.720 365.386C18.960 365.026 20.400 363.946 20.400 361.626C20.400 359.426 19 357.546 16.560 357.546C13.880 357.546 12.280 359.666 12.280 362.146C12.280 364.746 13.840 368.666 19.880 368.666C22.560 368.666 27.760 367.466 27.760 360.666C27.760 358.386 27.040 354.586 26.600 352.106C26.520 351.626 26.560 351.666 27.120 351.426C31.160 349.826 33.840 346.426 33.840 341.906C33.840 336.786 30.080 332.266 24.200 332.266C23.080 332.266 23.200 332.466 23.040 331.546L22.040 325.746C21.960 325.266 22.040 325.226 22.280 324.986C22.920 324.386 23.760 323.546 24.520 322.706C27.880 319.026 29.880 314.266 29.880 309.746C29.880 306.266 28.920 302.826 27.280 300.426C26.680 299.546 25.640 298.426 25.200 298.426M20.040 326.586C20.440 326.266 20.520 326.306 20.600 326.746L21.440 331.866C21.560 332.626 21.560 332.586 20.840 332.826C17.320 334.026 15.040 337.186 15.040 340.586C15.040 344.186 16.920 346.746 19.640 347.666C19.960 347.786 20.440 347.906 20.720 347.906C21.040 347.906 21.200 347.706 21.200 347.466C21.200 347.186 20.880 347.066 20.600 346.946C18.920 346.226 17.720 344.506 17.720 342.666C17.720 340.386 19.280 338.666 21.720 337.986C22.360 337.826 22.440 337.866 22.520 338.306L24.520 350.226C24.600 350.666 24.560 350.666 23.960 350.786C23.320 350.906 22.520 350.986 21.720 350.986C14.720 350.986 10.200 347.106 10.200 341.546C10.200 339.186 10.600 336.026 13.920 332.266C16.320 329.586 18.160 328.106 20.040 326.586M24.640 337.666C27.880 337.946 30.560 340.666 30.560 344.186C30.560 346.706 29.040 348.746 26.800 349.866C26.320 350.106 26.240 350.106 26.160 349.626L24.200 338.226C24.120 337.746 24.160 337.626 24.640 337.666M25.800 304.626C27.120 304.626 28.200 305.706 28.200 307.906C28.200 310.666 26.880 313.226 23.760 316.346C23.120 316.986 22.160 317.906 21.240 318.706C20.960 318.946 20.800 318.906 20.720 318.386C20.560 317.346 20.480 315.986 20.480 314.706C20.480 308.466 23.360 304.626 25.800 304.626"></path></g><g></g><text font-family='Alegreya' font-style='italic' text-anchor='end' stroke='#7a7a7a' font-size="24" x="0" y="302.3461538461538">9</text></g><g><line stroke="black" stroke-width="1.6" x1="428.0689691526647" x2="428.0689691526647" y1="312.3461538461538" y2="352.3461538461538"></line></g><g><g><path d="M52.980 368.146C60.620 368.146 62.140 361.946 62.140 360.426C62.140 358.066 60.260 356.546 57.580 356.546C50.660 356.546 48.500 361.906 48.500 364.306C48.500 366.746 50.460 368.146 52.980 368.146M56.500 364.466C54.420 365.866 52.980 366.346 51.980 366.346C51.020 366.346 50.460 365.866 50.140 365.306C49.980 365.026 49.860 364.706 49.860 364.386C49.860 363.386 50.860 362.106 54.060 360.266C56.340 358.946 57.780 358.466 58.740 358.466C59.620 358.466 60.100 358.866 60.420 359.426C60.580 359.706 60.700 359.986 60.700 360.306C60.700 361.226 59.740 362.346 56.500 364.466"></path></g><line stroke="#000000" stroke-width="1.2" x1="61.54" x2="61.54" y1="360.4261538461538" y2="325.4261538461538"></line><line stroke="#000000" stroke-width="2.2" x1="45.3" x2="67.74" y1="362.3461538461538" y2="362.3461538461538"></line><text font-family="Alegreya" font-size="22" text-anchor="middle" x="55.32" y="392.3461538461538">Inversion</text></g><g><g><path d="M200.394 367.986C204.394 367.986 209.314 364.266 209.314 360.466C209.314 358.186 207.514 356.706 204.914 356.706C199.994 356.706 196.034 360.346 196.034 364.226C196.034 366.586 197.954 367.986 200.394 367.986"></path></g><line stroke="#000000" stroke-width="1.2" x1="208.71374587146136" x2="208.71374587146136" y1="360.50615384615384" y2="325.50615384615384"></line><line stroke="#000000" stroke-width="2.2" x1="192.83374587146136" x2="214.75374587146135" y1="362.3461538461538" y2="362.3461538461538"></line><path d="M217.634 358.586C217.634 358.586 218.674 354.786 218.674 351.666C218.674 346.666 216.594 341.946 214.074 337.946C212.034 334.786 210.354 331.346 209.714 327.506C209.594 326.866 209.274 326.626 208.514 326.626C208.274 326.626 208.114 326.746 208.114 327.226L208.114 336.786C210.754 337.266 214.554 342.706 215.994 346.106C216.594 347.466 216.954 349.746 216.954 352.106C216.954 353.906 216.674 355.786 215.994 357.586C215.914 357.826 215.874 358.026 215.874 358.186C215.874 358.826 216.274 359.186 216.514 359.346C216.754 359.506 217.434 359.266 217.634 358.586"></path><text font-family="Alegreya" font-size="22" text-anchor="middle" x="202.67374587146134" y="392.3461538461538">Fbb/C</text></g><g><g><path d="M263.381 367.986C267.381 367.986 272.301 364.266 272.301 360.466C272.301 358.186 270.501 356.706 267.901 356.706C262.981 356.706 259.021 360.346 259.021 364.226C259.021 366.586 260.941 367.986 263.381 367.986"></path></g><line stroke="#000000" stroke-width="1.2" x1="271.7010860096504" x2="271.7010860096504" y1="360.50615384615384" y2="325.50615384615384"></line><line stroke="#000000" stroke-width="2.2" x1="255.8210860096504" x2="277.7410860096504" y1="362.3461538461538" y2="362.3461538461538"></line><path d="M280.621 358.586C280.621 358.586 281.661 354.786 281.661 351.666C281.661 346.666 279.581 341.946 277.061 337.946C275.021 334.786 273.341 331.346 272.701 327.506C272.581 326.866 272.261 326.626 271.501 326.626C271.261 326.626 271.101 326.746 271.101 327.226L271.101 336.786C273.741 337.266 277.541 342.706 278.981 346.106C279.581 347.466 279.941 349.746 279.941 352.106C279.941 353.906 279.661 355.786 278.981 357.586C278.901 357.826 278.861 358.026 278.861 358.186C278.861 358.826 279.261 359.186 279.501 359.346C279.741 359.506 280.421 359.266 280.621 358.586"></path><text font-family="Alegreya" font-size="22" text-anchor="middle" x="265.6610860096504" y="392.3461538461538">G#/D#</text></g><g><path d="M331.328 338.786C329.808 336.946 328.568 335.466 328.568 333.226C328.568 333.066 328.608 332.866 328.608 332.706C328.768 330.386 330.208 328.466 331.248 326.826C331.368 326.626 331.408 326.426 331.408 326.226C331.408 325.826 331.248 325.466 331.248 325.466C331.248 325.466 325.328 318.426 324.648 317.746C324.448 317.546 324.168 317.426 323.928 317.426C323.528 317.426 323.128 317.706 323.128 318.266C323.128 318.466 323.168 318.666 323.288 318.906C323.448 319.346 325.728 321.386 325.728 324.266C325.728 325.746 325.128 327.466 323.328 329.346C322.928 329.746 322.768 330.186 322.768 330.506C322.768 331.066 323.168 331.466 323.168 331.466L325.128 333.866C325.768 334.666 326.328 335.426 326.848 336.266C326.928 336.426 327.088 336.626 327.088 336.826C327.088 336.866 327.088 336.946 327.048 336.986C326.968 337.146 326.808 337.186 326.608 337.186C326.368 337.186 326.128 337.106 325.968 337.066C325.768 337.066 325.528 336.946 325.328 336.946C323.608 336.946 322.048 338.666 322.048 340.786C322.048 342.786 323.768 344.746 326.688 346.986C327.008 347.226 327.408 347.346 327.728 347.346C328.008 347.346 328.288 347.266 328.328 347.106C328.368 346.986 328.408 346.906 328.408 346.826C328.408 346.466 328.088 346.146 327.768 345.866C327.248 345.866 326.808 344.786 326.728 344.426C326.608 344.106 326.568 343.746 326.568 343.386C326.568 342.146 327.168 340.746 328.448 340.506C328.648 340.466 328.848 340.466 329.088 340.466C330.248 340.466 331.568 340.906 332.208 341.146C332.248 341.146 332.288 341.186 332.328 341.186C332.448 341.226 332.528 341.226 332.608 341.226C332.728 341.226 332.808 341.186 332.808 341.066C332.808 340.586 331.768 339.266 331.328 338.786"></path></g></g><g transform="translate(537.7151229988185)"><g></g><g><line stroke="#000000" stroke-width="1.6" x1="110.7867265011863" x2="110.7867265011863" y1="312.3461538461538" y2="352.3461538461538"></line><line stroke="#000000" stroke-width="5" x1="118.08672650118629" x2="118.08672650118629" y1="312.3461538461538" y2="352.3461538461538"></line></g><g><g><path d="M4.360 367.986C8.360 367.986 13.280 364.266 13.280 360.466C13.280 358.186 11.480 356.706 8.880 356.706C3.960 356.706 0 360.346 0 364.226C0 366.586 1.920 367.986 4.360 367.986"></path></g><line stroke="#000000" stroke-width="1.2" x1="12.680000000000001" x2="12.680000000000001" y1="360.50615384615384" y2="325.50615384615384"></line><line stroke="#000000" stroke-width="2.2" x1="-3.2" x2="18.72" y1="362.3461538461538" y2="362.3461538461538"></line><text font-family="Alegreya" font-size="22" text-anchor="middle" x="6.640000000000001" y="392.3461538461538">C-3+5b</text></g><g><g><path d="M59.353 367.986C63.353 367.986 68.273 364.266 68.273 360.466C68.273 358.186 66.473 356.706 63.873 356.706C58.953 356.706 54.993 360.346 54.993 364.226C54.993 366.586 56.913 367.986 59.353 367.986"></path></g><line stroke="#000000" stroke-width="1.2" x1="67.67336325059316" x2="67.67336325059316" y1="360.50615384615384" y2="325.50615384615384"></line><line stroke="#000000" stroke-width="2.2" x1="51.793363250593146" x2="73.71336325059315" y1="362.3461538461538" y2="362.3461538461538"></line><text font-family="Alegreya" font-size="22" text-anchor="middle" x="61.63336325059315" y="392.3461538461538">C-1+6b</text></g></g></svg>