<?xml version="1.0" encoding="UTF-8" standalone="no"?><svg xmlns="http://www.w3.org/2000/svg" height="279.4mm" viewBox="0 0 1328.6153846153845 1719.3846153846152" width="215.9mm"><g transform="translate(163.84615384615387)"><g><g><line stroke="#6A6A6A" stroke-width="1.3" x1="0" x2="368.5138194564897" y1="236.3461538461538" y2="236.3461538461538"></line><line stroke="#6A6A6A" stroke-width="1.3" x1="0" x2="368.5138194564897" y1="226.3461538461538" y2="226.3461538461538"></line><line stroke="#6A6A6A" stroke-width="1.3" x1="0" x2="368.5138194564897" y1="216.3461538461538" y2="216.3461538461538"></line><line stroke="#6A6A6A" stroke-width="1.3" x1="0" x2="368.5138194564897" y1="206.3461538461538" y2="206.3461538461538"></line><line stroke="#6A6A6A" stroke-width="1.3" x1="0" x2="368.5138194564897" y1="196.3461538461538" y2="196.3461538461538"></line></g><g><path d="M25.200 182.426C24.640 182.426 23.400 183.466 22.600 184.346C19.640 187.626 18.680 192.626 18.680 196.786C18.680 199.106 18.960 201.706 19.240 203.346C19.320 203.826 19.360 203.906 18.880 204.306C16.320 206.426 13.560 208.866 11.480 211.426C8.720 214.866 7 218.586 7 222.866C7 229.826 11.760 236.426 21.560 236.426C22.480 236.426 23.520 236.346 24.320 236.186C24.760 236.106 24.840 236.066 24.920 236.546C25.400 239.226 26 242.706 26 244.586C26 250.506 22 251.226 19.640 251.226C17.480 251.226 16.440 250.586 16.440 250.066C16.440 249.626 16.800 249.666 17.720 249.386C18.960 249.026 20.400 247.946 20.400 245.626C20.400 243.426 19 241.546 16.560 241.546C13.880 241.546 12.280 243.666 12.280 246.146C12.280 248.746 13.840 252.666 19.880 252.666C22.560 252.666 27.760 251.466 27.760 244.666C27.760 242.386 27.040 238.586 26.600 236.106C26.520 235.626 26.560 235.666 27.120 235.426C31.160 233.826 33.840 230.426 33.840 225.906C33.840 220.786 30.080 216.266 24.200 216.266C23.080 216.266 23.200 216.466 23.040 215.546L22.040 209.746C21.960 209.266 22.040 209.226 22.280 208.986C22.920 208.386 23.760 207.546 24.520 206.706C27.880 203.026 29.880 198.266 29.880 193.746C29.880 190.266 28.920 186.826 27.280 184.426C26.680 183.546 25.640 182.426 25.200 182.426ZM20.040 210.586C20.440 210.266 20.520 210.306 20.600 210.746L21.440 215.866C21.560 216.626 21.560 216.586 20.840 216.826C17.320 218.026 15.040 221.186 15.040 224.586C15.040 228.186 16.920 230.746 19.640 231.666C19.960 231.786 20.440 231.906 20.720 231.906C21.040 231.906 21.200 231.706 21.200 231.466C21.200 231.186 20.880 231.066 20.600 230.946C18.920 230.226 17.720 228.506 17.720 226.666C17.720 224.386 19.280 222.666 21.720 221.986C22.360 221.826 22.440 221.866 22.520 222.306L24.520 234.226C24.600 234.666 24.560 234.666 23.960 234.786C23.320 234.906 22.520 234.986 21.720 234.986C14.720 234.986 10.200 231.106 10.200 225.546C10.200 223.186 10.600 220.026 13.920 216.266C16.320 213.586 18.160 212.106 20.040 210.586ZM24.640 221.666C27.880 221.946 30.560 224.666 30.560 228.186C30.560 230.706 29.040 232.746 26.800 233.866C26.320 234.106 26.240 234.106 26.160 233.626L24.200 222.226C24.120 221.746 24.160 221.626 24.640 221.666ZM25.800 188.626C27.120 188.626 28.200 189.706 28.200 191.906C28.200 194.666 26.880 197.226 23.760 200.346C23.120 200.986 22.160 201.906 21.240 202.706C20.960 202.946 20.800 202.906 20.720 202.386C20.560 201.346 20.480 199.986 20.480 198.706C20.480 192.466 23.360 188.626 25.800 188.626Z"></path></g><g></g><g><g><path d="M56.380 196.426C56.180 196.426 55.980 196.386 55.780 196.386C52.340 196.386 48.900 198.666 48.900 200.786C48.900 202.106 49.660 203.866 52.140 204.026L52.340 204.026C54.100 204.026 54.980 202.746 54.980 201.426L54.980 201.106C54.860 199.626 53.860 199.546 53.660 199.466C53.460 199.386 52.860 199.466 52.860 198.906L52.860 198.746C52.940 198.066 54.180 197.746 54.540 197.746C57.940 197.746 58.260 199.866 58.260 200.826L58.260 201.106C58.260 204.066 55.900 205.226 53.380 205.346C52.980 205.386 52.420 205.586 52.420 206.026C52.420 206.506 53.100 206.506 53.420 206.506C58.020 206.506 58.380 209.626 58.380 210.146C58.380 214.386 56.220 214.866 55.340 214.866C55.180 214.866 55.020 214.826 54.980 214.826C54.660 214.786 53.900 214.786 53.860 214.186L53.860 213.986C53.860 213.106 54.740 212.506 54.780 211.346C54.780 210.946 54.740 210.506 54.580 210.106C54.140 209.106 52.980 208.466 51.900 208.466C51.740 208.466 51.620 208.466 51.460 208.506C50.780 208.626 50.020 209.026 49.540 209.546C48.860 210.146 48.660 211.106 48.660 211.986C48.740 215.106 51.580 216.306 55.500 216.386L55.860 216.386C59.820 216.386 63.900 214.346 63.900 210.826L63.900 210.546C63.860 209.986 63.780 209.426 63.540 208.906C63.380 208.506 63.100 208.106 62.780 207.746C62.540 207.426 62.220 207.146 61.820 206.906L60.980 206.426L59.660 206.066C59.460 206.026 59.340 206.026 59.260 205.866C59.220 205.786 59.220 205.746 59.220 205.666C59.220 205.506 59.260 205.346 59.380 205.306C59.820 205.186 60.260 205.146 60.620 204.946C61.220 204.666 61.740 204.386 62.180 203.866C62.820 203.146 63.060 202.226 63.060 201.306C63.060 197.626 58.060 196.546 56.380 196.426Z"></path></g><g><path d="M65.180 229.306L62.260 229.306L62.260 220.746C62.260 220.426 62.220 220.066 61.780 220.066C61.420 220.066 61.220 220.146 60.980 220.426L57.180 225.026C57.020 225.226 56.820 225.466 56.820 225.946C56.820 225.946 56.820 227.546 56.820 229.306L51.420 229.306C54.620 226.586 61.020 217.506 61.140 217.066C61.140 216.986 61.180 216.946 61.180 216.866C61.180 216.546 60.900 216.306 60.580 216.306C60.220 216.306 58.580 216.386 57.860 216.386C57.140 216.386 55.340 216.306 55.020 216.306C54.660 216.306 54.100 216.426 54.100 217.066C54.100 222.026 50.180 227.586 48.980 229.266L48.740 229.586C48.740 229.626 48.700 229.666 48.700 229.706C48.620 229.866 48.580 230.026 48.580 230.146C48.580 230.546 48.900 230.826 49.380 230.826L56.820 230.826L56.820 233.346C56.820 234.426 55.940 234.746 55.220 234.746C54.580 234.746 54.300 235.106 54.300 235.506C54.300 235.906 54.460 236.346 55.060 236.346C55.700 236.346 63.580 236.346 63.580 236.346C63.980 236.346 64.380 236.066 64.380 235.506C64.380 234.946 63.900 234.706 63.500 234.706C63.100 234.706 62.260 234.466 62.260 233.186L62.260 230.826C63.980 230.826 65.180 230.826 65.180 230.826C65.580 230.826 65.780 230.546 65.780 230.066C65.780 229.586 65.620 229.306 65.180 229.306Z"></path></g></g></g><g><line stroke="black" stroke-width="1.6" x1="358.7138194564897" x2="358.7138194564897" y1="196.3461538461538" y2="236.3461538461538"></line><line stroke="black" stroke-width="5" x1="366.0138194564897" x2="366.0138194564897" y1="196.3461538461538" y2="236.3461538461538"></line></g><g><g><path d="M93.360 171.986C97.360 171.986 102.280 168.266 102.280 164.466C102.280 162.186 100.480 160.706 97.880 160.706C92.960 160.706 89 164.346 89 168.226C89 170.586 90.920 171.986 93.360 171.986Z"></path></g><line stroke="#000000" stroke-width="1.2" x1="89.6" x2="89.6" y1="168.18615384615381" y2="202.18615384615381"></line><line stroke="#000000" stroke-width="2.2" x1="85.8" x2="107.72" y1="186.3461538461538" y2="186.3461538461538"></line><line stroke="#000000" stroke-width="2.2" x1="85.8" x2="107.72" y1="176.3461538461538" y2="176.3461538461538"></line><line stroke="#000000" stroke-width="2.2" x1="85.8" x2="107.72" y1="166.3461538461538" y2="166.3461538461538"></line><g><polygon fill="black" points="89.6,203.3461538461538 133.86715755650135,200.51832286199644 133.86715755650135,195.51832286199647 89.6,198.3461538461538" stroke="black" stroke-width="0"></polygon><polygon fill="black" points="89.6,194.5461538461538 133.86715755650135,191.71832286199643 133.86715755650135,186.71832286199646 89.6,189.5461538461538" stroke="black" stroke-width="0"></polygon><polygon fill="black" points="89.6,185.74615384615382 133.86715755650135,182.91832286199644 133.86715755650135,177.91832286199644 89.6,180.74615384615382" stroke="black" stroke-width="0"></polygon><polygon fill="black" points="133.86715755650135,200.51832286199644 167.87051511300274,198.3461538461538 167.87051511300274,193.3461538461538 133.86715755650135,195.51832286199647" stroke="black" stroke-width="0"></polygon></g></g><g><g><path d="M137.627 166.986C141.627 166.986 146.547 163.266 146.547 159.466C146.547 157.186 144.747 155.706 142.147 155.706C137.227 155.706 133.267 159.346 133.267 163.226C133.267 165.586 135.187 166.986 137.627 166.986Z"></path><path d="M128.687 156.626C128.967 156.506 129.167 156.186 129.167 155.946L129.167 153.106C129.167 152.906 129.047 152.786 128.887 152.786C128.807 152.786 128.767 152.786 128.687 152.826C128.687 152.826 127.887 153.146 127.687 153.186C127.407 153.186 127.127 152.986 127.127 152.666C127.127 152.266 127.127 147.786 127.127 147.786C127.127 147.546 126.887 147.346 126.567 147.346C126.167 147.346 125.927 147.546 125.927 147.786C125.927 147.786 125.927 152.586 125.927 152.986C125.887 153.386 125.767 153.906 125.407 154.146C124.927 154.426 123.567 154.986 122.887 155.146C122.527 155.146 122.407 154.666 122.407 154.346C122.407 153.946 122.407 149.546 122.407 149.546C122.407 149.306 122.127 149.106 121.847 149.106C121.447 149.106 121.207 149.306 121.207 149.546C121.207 149.546 121.207 151.706 121.207 153.306L121.207 154.946C121.207 155.506 120.967 155.906 120.727 156.026C120.487 156.146 119.687 156.466 119.687 156.466C119.407 156.546 119.207 156.866 119.207 157.106L119.207 159.946C119.207 160.186 119.327 160.306 119.527 160.306C119.567 160.306 119.647 160.266 119.687 160.266C119.687 160.266 120.287 160.026 120.567 159.866C120.607 159.866 120.647 159.826 120.687 159.826C120.967 159.826 121.207 160.226 121.207 160.546L121.207 164.506C121.207 164.946 121.007 165.306 120.767 165.426C120.527 165.506 119.687 165.866 119.687 165.866C119.407 165.946 119.207 166.266 119.207 166.506L119.207 169.346C119.207 169.586 119.327 169.706 119.527 169.706C119.567 169.706 119.647 169.666 119.687 169.666C119.687 169.666 120.247 169.426 120.607 169.306C120.647 169.266 120.687 169.266 120.727 169.266C121.007 169.266 121.207 169.706 121.207 169.906C121.207 170.146 121.207 174.826 121.207 174.826C121.207 175.066 121.447 175.266 121.727 175.266C122.127 175.266 122.407 175.066 122.407 174.826C122.407 174.826 122.407 169.746 122.407 169.266C122.407 168.746 122.607 168.466 122.807 168.386L125.247 167.386C125.287 167.386 125.367 167.346 125.407 167.346C125.727 167.346 125.927 167.826 125.927 168.066C125.927 168.346 125.927 173.066 125.927 173.066C125.927 173.306 126.167 173.506 126.447 173.506C126.887 173.506 127.127 173.306 127.127 173.066C127.127 173.066 127.127 167.666 127.127 167.386C127.127 167.066 127.287 166.586 127.567 166.466C127.847 166.346 128.687 166.026 128.687 166.026C128.967 165.906 129.167 165.586 129.167 165.346L129.167 162.506C129.167 162.306 129.047 162.186 128.887 162.186C128.807 162.186 128.767 162.186 128.687 162.226C128.687 162.226 127.847 162.546 127.647 162.626C127.407 162.626 127.127 162.386 127.127 161.906L127.127 158.186C127.127 157.906 127.327 157.146 127.647 157.026C127.967 156.906 128.687 156.626 128.687 156.626ZM125.927 163.146C125.687 163.946 123.807 164.746 122.887 164.746C122.647 164.746 122.447 164.666 122.407 164.546C122.327 164.386 122.287 163.506 122.287 162.546C122.287 161.306 122.327 159.906 122.407 159.586C122.487 158.906 124.327 158.066 125.327 158.066C125.607 158.066 125.847 158.146 125.927 158.306C126.007 158.506 126.087 159.506 126.087 160.586C126.087 161.666 126.007 162.786 125.927 163.146Z"></path></g><line stroke="#000000" stroke-width="1.2" x1="133.86715755650135" x2="133.86715755650135" y1="163.18615384615381" y2="199.35832286199644"></line><line stroke="#000000" stroke-width="2.2" x1="130.06715755650137" x2="151.98715755650136" y1="186.3461538461538" y2="186.3461538461538"></line><line stroke="#000000" stroke-width="2.2" x1="130.06715755650137" x2="151.98715755650136" y1="176.3461538461538" y2="176.3461538461538"></line><line stroke="#000000" stroke-width="2.2" x1="130.06715755650137" x2="151.98715755650136" y1="166.3461538461538" y2="166.3461538461538"></line></g><g><g><path d="M171.631 166.986C175.631 166.986 180.551 163.266 180.551 159.466C180.551 157.186 178.751 155.706 176.151 155.706C171.231 155.706 167.271 159.346 167.271 163.226C167.271 165.586 169.191 166.986 171.631 166.986Z"></path></g><line stroke="#000000" stroke-width="1.2" x1="167.87051511300274" x2="167.87051511300274" y1="163.18615384615381" y2="197.18615384615381"></line><line stroke="#000000" stroke-width="2.2" x1="164.07051511300276" x2="185.99051511300274" y1="186.3461538461538" y2="186.3461538461538"></line><line stroke="#000000" stroke-width="2.2" x1="164.07051511300276" x2="185.99051511300274" y1="176.3461538461538" y2="176.3461538461538"></line><line stroke="#000000" stroke-width="2.2" x1="164.07051511300276" x2="185.99051511300274" y1="166.3461538461538" y2="166.3461538461538"></line></g><g><g><path d="M205.634 166.986C209.634 166.986 214.554 163.266 214.554 159.466C214.554 157.186 212.754 155.706 210.154 155.706C205.234 155.706 201.274 159.346 201.274 163.226C201.274 165.586 203.194 166.986 205.634 166.986Z"></path></g><line stroke="#000000" stroke-width="1.2" x1="201.8738726695041" x2="201.8738726695041" y1="163.18615384615381" y2="218.18615384615381"></line><line stroke="#000000" stroke-width="2.2" x1="198.0738726695041" x2="219.9938726695041" y1="186.3461538461538" y2="186.3461538461538"></line><line stroke="#000000" stroke-width="2.2" x1="198.0738726695041" x2="219.9938726695041" y1="176.3461538461538" y2="176.3461538461538"></line><line stroke="#000000" stroke-width="2.2" x1="198.0738726695041" x2="219.9938726695041" y1="166.3461538461538" y2="166.3461538461538"></line><path d="M210.874 186.306C211.434 187.986 211.714 189.986 211.714 191.786C211.714 194.146 210.714 197.506 210.114 198.866C208.634 202.226 206.634 205.466 201.274 207.266L201.274 216.666C201.274 217.146 201.474 217.266 201.714 217.266C202.474 217.266 202.794 217.026 202.874 216.386C203.554 212.586 206.514 209.106 208.554 205.946C211.074 201.986 213.514 197.226 213.514 192.226C213.514 189.106 212.714 186.266 212.394 184.986C212.074 183.706 210.274 184.586 210.874 186.306Z"></path></g><g><g><path d="M294.267 161.986C298.267 161.986 303.187 158.266 303.187 154.466C303.187 152.186 301.387 150.706 298.787 150.706C293.867 150.706 289.907 154.346 289.907 158.226C289.907 160.586 291.827 161.986 294.267 161.986Z"></path><path d="M285.327 151.626C285.607 151.506 285.807 151.186 285.807 150.946L285.807 148.106C285.807 147.906 285.687 147.786 285.527 147.786C285.447 147.786 285.407 147.786 285.327 147.826C285.327 147.826 284.527 148.146 284.327 148.186C284.047 148.186 283.767 147.986 283.767 147.666C283.767 147.266 283.767 142.786 283.767 142.786C283.767 142.546 283.527 142.346 283.207 142.346C282.807 142.346 282.567 142.546 282.567 142.786C282.567 142.786 282.567 147.586 282.567 147.986C282.527 148.386 282.407 148.906 282.047 149.146C281.567 149.426 280.207 149.986 279.527 150.146C279.167 150.146 279.047 149.666 279.047 149.346C279.047 148.946 279.047 144.546 279.047 144.546C279.047 144.306 278.767 144.106 278.487 144.106C278.087 144.106 277.847 144.306 277.847 144.546C277.847 144.546 277.847 146.706 277.847 148.306L277.847 149.946C277.847 150.506 277.607 150.906 277.367 151.026C277.127 151.146 276.327 151.466 276.327 151.466C276.047 151.546 275.847 151.866 275.847 152.106L275.847 154.946C275.847 155.186 275.967 155.306 276.167 155.306C276.207 155.306 276.287 155.266 276.327 155.266C276.327 155.266 276.927 155.026 277.207 154.866C277.247 154.866 277.287 154.826 277.327 154.826C277.607 154.826 277.847 155.226 277.847 155.546L277.847 159.506C277.847 159.946 277.647 160.306 277.407 160.426C277.167 160.506 276.327 160.866 276.327 160.866C276.047 160.946 275.847 161.266 275.847 161.506L275.847 164.346C275.847 164.586 275.967 164.706 276.167 164.706C276.207 164.706 276.287 164.666 276.327 164.666C276.327 164.666 276.887 164.426 277.247 164.306C277.287 164.266 277.327 164.266 277.367 164.266C277.647 164.266 277.847 164.706 277.847 164.906C277.847 165.146 277.847 169.826 277.847 169.826C277.847 170.066 278.087 170.266 278.367 170.266C278.767 170.266 279.047 170.066 279.047 169.826C279.047 169.826 279.047 164.746 279.047 164.266C279.047 163.746 279.247 163.466 279.447 163.386L281.887 162.386C281.927 162.386 282.007 162.346 282.047 162.346C282.367 162.346 282.567 162.826 282.567 163.066C282.567 163.346 282.567 168.066 282.567 168.066C282.567 168.306 282.807 168.506 283.087 168.506C283.527 168.506 283.767 168.306 283.767 168.066C283.767 168.066 283.767 162.666 283.767 162.386C283.767 162.066 283.927 161.586 284.207 161.466C284.487 161.346 285.327 161.026 285.327 161.026C285.607 160.906 285.807 160.586 285.807 160.346L285.807 157.506C285.807 157.306 285.687 157.186 285.527 157.186C285.447 157.186 285.407 157.186 285.327 157.226C285.327 157.226 284.487 157.546 284.287 157.626C284.047 157.626 283.767 157.386 283.767 156.906L283.767 153.186C283.767 152.906 283.967 152.146 284.287 152.026C284.607 151.906 285.327 151.626 285.327 151.626ZM282.567 158.146C282.327 158.946 280.447 159.746 279.527 159.746C279.287 159.746 279.087 159.666 279.047 159.546C278.967 159.386 278.927 158.506 278.927 157.546C278.927 156.306 278.967 154.906 279.047 154.586C279.127 153.906 280.967 153.066 281.967 153.066C282.247 153.066 282.487 153.146 282.567 153.306C282.647 153.506 282.727 154.506 282.727 155.586C282.727 156.666 282.647 157.786 282.567 158.146Z"></path></g><line stroke="#000000" stroke-width="1.2" x1="290.507104343487" x2="290.507104343487" y1="158.18615384615381" y2="192.18615384615381"></line><line stroke="#000000" stroke-width="2.2" x1="286.707104343487" x2="308.627104343487" y1="186.3461538461538" y2="186.3461538461538"></line><line stroke="#000000" stroke-width="2.2" x1="286.707104343487" x2="308.627104343487" y1="176.3461538461538" y2="176.3461538461538"></line><line stroke="#000000" stroke-width="2.2" x1="286.707104343487" x2="308.627104343487" y1="166.3461538461538" y2="166.3461538461538"></line><line stroke="#000000" stroke-width="2.2" x1="286.707104343487" x2="308.627104343487" y1="156.3461538461538" y2="156.3461538461538"></line><g><polygon fill="black" points="290.507104343487,193.3461538461538 324.51046189998834,183.3461538461538 324.51046189998834,178.3461538461538 290.507104343487,188.3461538461538" stroke="black" stroke-width="0"></polygon><polygon fill="black" points="290.507104343487,184.5461538461538 324.51046189998834,174.5461538461538 324.51046189998834,169.5461538461538 290.507104343487,179.5461538461538" stroke="black" stroke-width="0"></polygon><polygon fill="black" points="290.507104343487,175.74615384615382 324.51046189998834,165.74615384615382 324.51046189998834,160.74615384615382 290.507104343487,170.74615384615382" stroke="black" stroke-width="0"></polygon></g></g><g><g><path d="M328.270 151.986C332.270 151.986 337.190 148.266 337.190 144.466C337.190 142.186 335.390 140.706 332.790 140.706C327.870 140.706 323.910 144.346 323.910 148.226C323.910 150.586 325.830 151.986 328.270 151.986Z"></path></g><line stroke="#000000" stroke-width="1.2" x1="324.51046189998834" x2="324.51046189998834" y1="148.18615384615381" y2="182.18615384615381"></line><line stroke="#000000" stroke-width="2.2" x1="320.71046189998833" x2="342.63046189998835" y1="186.3461538461538" y2="186.3461538461538"></line><line stroke="#000000" stroke-width="2.2" x1="320.71046189998833" x2="342.63046189998835" y1="176.3461538461538" y2="176.3461538461538"></line><line stroke="#000000" stroke-width="2.2" x1="320.71046189998833" x2="342.63046189998835" y1="166.3461538461538" y2="166.3461538461538"></line><line stroke="#000000" stroke-width="2.2" x1="320.71046189998833" x2="342.63046189998835" y1="156.3461538461538" y2="156.3461538461538"></line><line stroke="#000000" stroke-width="2.2" x1="320.71046189998833" x2="342.63046189998835" y1="146.3461538461538" y2="146.3461538461538"></line></g></g></svg>