<?xml version="1.0" encoding="UTF-8" standalone="no"?><svg xmlns="http://www.w3.org/2000/svg" height="279.4mm" viewBox="0 0 1328.6153846153845 1719.3846153846152" width="215.9mm"><g transform="translate(163.84615384615387)"><g><g><line stroke="#6A6A6A" stroke-width="1.3" x1="0" x2="499.8951950289271" y1="216.3461538461538" y2="216.3461538461538"></line><line stroke="#6A6A6A" stroke-width="1.3" x1="0" x2="499.8951950289271" y1="206.3461538461538" y2="206.3461538461538"></line><line stroke="#6A6A6A" stroke-width="1.3" x1="0" x2="499.8951950289271" y1="196.3461538461538" y2="196.3461538461538"></line><line stroke="#6A6A6A" stroke-width="1.3" x1="0" x2="499.8951950289271" y1="186.3461538461538" y2="186.3461538461538"></line><line stroke="#6A6A6A" stroke-width="1.3" x1="0" x2="499.8951950289271" y1="176.3461538461538" y2="176.3461538461538"></line></g><g><path d="M25.200 162.426C24.640 162.426 23.400 163.466 22.600 164.346C19.640 167.626 18.680 172.626 18.680 176.786C18.680 179.106 18.960 181.706 19.240 183.346C19.320 183.826 19.360 183.906 18.880 184.306C16.320 186.426 13.560 188.866 11.480 191.426C8.720 194.866 7 198.586 7 202.866C7 209.826 11.760 216.426 21.560 216.426C22.480 216.426 23.520 216.346 24.320 216.186C24.760 216.106 24.840 216.066 24.920 216.546C25.400 219.226 26 222.706 26 224.586C26 230.506 22 231.226 19.640 231.226C17.480 231.226 16.440 230.586 16.440 230.066C16.440 229.626 16.800 229.666 17.720 229.386C18.960 229.026 20.400 227.946 20.400 225.626C20.400 223.426 19 221.546 16.560 221.546C13.880 221.546 12.280 223.666 12.280 226.146C12.280 228.746 13.840 232.666 19.880 232.666C22.560 232.666 27.760 231.466 27.760 224.666C27.760 222.386 27.040 218.586 26.600 216.106C26.520 215.626 26.560 215.666 27.120 215.426C31.160 213.826 33.840 210.426 33.840 205.906C33.840 200.786 30.080 196.266 24.200 196.266C23.080 196.266 23.200 196.466 23.040 195.546L22.040 189.746C21.960 189.266 22.040 189.226 22.280 188.986C22.920 188.386 23.760 187.546 24.520 186.706C27.880 183.026 29.880 178.266 29.880 173.746C29.880 170.266 28.920 166.826 27.280 164.426C26.680 163.546 25.640 162.426 25.200 162.426ZM20.040 190.586C20.440 190.266 20.520 190.306 20.600 190.746L21.440 195.866C21.560 196.626 21.560 196.586 20.840 196.826C17.320 198.026 15.040 201.186 15.040 204.586C15.040 208.186 16.920 210.746 19.640 211.666C19.960 211.786 20.440 211.906 20.720 211.906C21.040 211.906 21.200 211.706 21.200 211.466C21.200 211.186 20.880 211.066 20.600 210.946C18.920 210.226 17.720 208.506 17.720 206.666C17.720 204.386 19.280 202.666 21.720 201.986C22.360 201.826 22.440 201.866 22.520 202.306L24.520 214.226C24.600 214.666 24.560 214.666 23.960 214.786C23.320 214.906 22.520 214.986 21.720 214.986C14.720 214.986 10.200 211.106 10.200 205.546C10.200 203.186 10.600 200.026 13.920 196.266C16.320 193.586 18.160 192.106 20.040 190.586ZM24.640 201.666C27.880 201.946 30.560 204.666 30.560 208.186C30.560 210.706 29.040 212.746 26.800 213.866C26.320 214.106 26.240 214.106 26.160 213.626L24.200 202.226C24.120 201.746 24.160 201.626 24.640 201.666ZM25.800 168.626C27.120 168.626 28.200 169.706 28.200 171.906C28.200 174.666 26.880 177.226 23.760 180.346C23.120 180.986 22.160 181.906 21.240 182.706C20.960 182.946 20.800 182.906 20.720 182.386C20.560 181.346 20.480 179.986 20.480 178.706C20.480 172.466 23.360 168.626 25.800 168.626Z"></path></g><g></g><g><g><path d="M56.380 176.426C56.180 176.426 55.980 176.386 55.780 176.386C52.340 176.386 48.900 178.666 48.900 180.786C48.900 182.106 49.660 183.866 52.140 184.026L52.340 184.026C54.100 184.026 54.980 182.746 54.980 181.426L54.980 181.106C54.860 179.626 53.860 179.546 53.660 179.466C53.460 179.386 52.860 179.466 52.860 178.906L52.860 178.746C52.940 178.066 54.180 177.746 54.540 177.746C57.940 177.746 58.260 179.866 58.260 180.826L58.260 181.106C58.260 184.066 55.900 185.226 53.380 185.346C52.980 185.386 52.420 185.586 52.420 186.026C52.420 186.506 53.100 186.506 53.420 186.506C58.020 186.506 58.380 189.626 58.380 190.146C58.380 194.386 56.220 194.866 55.340 194.866C55.180 194.866 55.020 194.826 54.980 194.826C54.660 194.786 53.900 194.786 53.860 194.186L53.860 193.986C53.860 193.106 54.740 192.506 54.780 191.346C54.780 190.946 54.740 190.506 54.580 190.106C54.140 189.106 52.980 188.466 51.900 188.466C51.740 188.466 51.620 188.466 51.460 188.506C50.780 188.626 50.020 189.026 49.540 189.546C48.860 190.146 48.660 191.106 48.660 191.986C48.740 195.106 51.580 196.306 55.500 196.386L55.860 196.386C59.820 196.386 63.900 194.346 63.900 190.826L63.900 190.546C63.860 189.986 63.780 189.426 63.540 188.906C63.380 188.506 63.100 188.106 62.780 187.746C62.540 187.426 62.220 187.146 61.820 186.906L60.980 186.426L59.660 186.066C59.460 186.026 59.340 186.026 59.260 185.866C59.220 185.786 59.220 185.746 59.220 185.666C59.220 185.506 59.260 185.346 59.380 185.306C59.820 185.186 60.260 185.146 60.620 184.946C61.220 184.666 61.740 184.386 62.180 183.866C62.820 183.146 63.060 182.226 63.060 181.306C63.060 177.626 58.060 176.546 56.380 176.426Z"></path></g><g><path d="M65.180 209.306L62.260 209.306L62.260 200.746C62.260 200.426 62.220 200.066 61.780 200.066C61.420 200.066 61.220 200.146 60.980 200.426L57.180 205.026C57.020 205.226 56.820 205.466 56.820 205.946C56.820 205.946 56.820 207.546 56.820 209.306L51.420 209.306C54.620 206.586 61.020 197.506 61.140 197.066C61.140 196.986 61.180 196.946 61.180 196.866C61.180 196.546 60.900 196.306 60.580 196.306C60.220 196.306 58.580 196.386 57.860 196.386C57.140 196.386 55.340 196.306 55.020 196.306C54.660 196.306 54.100 196.426 54.100 197.066C54.100 202.026 50.180 207.586 48.980 209.266L48.740 209.586C48.740 209.626 48.700 209.666 48.700 209.706C48.620 209.866 48.580 210.026 48.580 210.146C48.580 210.546 48.900 210.826 49.380 210.826L56.820 210.826L56.820 213.346C56.820 214.426 55.940 214.746 55.220 214.746C54.580 214.746 54.300 215.106 54.300 215.506C54.300 215.906 54.460 216.346 55.060 216.346C55.700 216.346 63.580 216.346 63.580 216.346C63.980 216.346 64.380 216.066 64.380 215.506C64.380 214.946 63.900 214.706 63.500 214.706C63.100 214.706 62.260 214.466 62.260 213.186L62.260 210.826C63.980 210.826 65.180 210.826 65.180 210.826C65.580 210.826 65.780 210.546 65.780 210.066C65.780 209.586 65.620 209.306 65.180 209.306Z"></path></g></g></g><g><line stroke="black" stroke-width="1.6" x1="490.09519502892715" x2="490.09519502892715" y1="176.3461538461538" y2="216.3461538461538"></line><line stroke="black" stroke-width="5" x1="497.39519502892716" x2="497.39519502892716" y1="176.3461538461538" y2="216.3461538461538"></line></g><g><g><path d="M102.120 206.986C106.120 206.986 111.040 203.266 111.040 199.466C111.040 197.186 109.240 195.706 106.640 195.706C101.720 195.706 97.760 199.346 97.760 203.226C97.760 205.586 99.680 206.986 102.120 206.986Z"></path><path d="M95.240 196.626C95.520 196.506 95.720 196.186 95.720 195.946L95.720 193.106C95.720 192.906 95.600 192.786 95.440 192.786C95.360 192.786 95.320 192.786 95.240 192.826C95.240 192.826 94.440 193.146 94.240 193.186C93.960 193.186 93.680 192.986 93.680 192.666C93.680 192.266 93.680 187.786 93.680 187.786C93.680 187.546 93.440 187.346 93.120 187.346C92.720 187.346 92.480 187.546 92.480 187.786C92.480 187.786 92.480 192.586 92.480 192.986C92.440 193.386 92.320 193.906 91.960 194.146C91.480 194.426 90.120 194.986 89.440 195.146C89.080 195.146 88.960 194.666 88.960 194.346C88.960 193.946 88.960 189.546 88.960 189.546C88.960 189.306 88.680 189.106 88.400 189.106C88 189.106 87.760 189.306 87.760 189.546C87.760 189.546 87.760 191.706 87.760 193.306L87.760 194.946C87.760 195.506 87.520 195.906 87.280 196.026C87.040 196.146 86.240 196.466 86.240 196.466C85.960 196.546 85.760 196.866 85.760 197.106L85.760 199.946C85.760 200.186 85.880 200.306 86.080 200.306C86.120 200.306 86.200 200.266 86.240 200.266C86.240 200.266 86.840 200.026 87.120 199.866C87.160 199.866 87.200 199.826 87.240 199.826C87.520 199.826 87.760 200.226 87.760 200.546L87.760 204.506C87.760 204.946 87.560 205.306 87.320 205.426C87.080 205.506 86.240 205.866 86.240 205.866C85.960 205.946 85.760 206.266 85.760 206.506L85.760 209.346C85.760 209.586 85.880 209.706 86.080 209.706C86.120 209.706 86.200 209.666 86.240 209.666C86.240 209.666 86.800 209.426 87.160 209.306C87.200 209.266 87.240 209.266 87.280 209.266C87.560 209.266 87.760 209.706 87.760 209.906C87.760 210.146 87.760 214.826 87.760 214.826C87.760 215.066 88 215.266 88.280 215.266C88.680 215.266 88.960 215.066 88.960 214.826C88.960 214.826 88.960 209.746 88.960 209.266C88.960 208.746 89.160 208.466 89.360 208.386L91.800 207.386C91.840 207.386 91.920 207.346 91.960 207.346C92.280 207.346 92.480 207.826 92.480 208.066C92.480 208.346 92.480 213.066 92.480 213.066C92.480 213.306 92.720 213.506 93 213.506C93.440 213.506 93.680 213.306 93.680 213.066C93.680 213.066 93.680 207.666 93.680 207.386C93.680 207.066 93.840 206.586 94.120 206.466C94.400 206.346 95.240 206.026 95.240 206.026C95.520 205.906 95.720 205.586 95.720 205.346L95.720 202.506C95.720 202.306 95.600 202.186 95.440 202.186C95.360 202.186 95.320 202.186 95.240 202.226C95.240 202.226 94.400 202.546 94.200 202.626C93.960 202.626 93.680 202.386 93.680 201.906L93.680 198.186C93.680 197.906 93.880 197.146 94.200 197.026C94.520 196.906 95.240 196.626 95.240 196.626ZM92.480 203.146C92.240 203.946 90.360 204.746 89.440 204.746C89.200 204.746 89 204.666 88.960 204.546C88.880 204.386 88.840 203.506 88.840 202.546C88.840 201.306 88.880 199.906 88.960 199.586C89.040 198.906 90.880 198.066 91.880 198.066C92.160 198.066 92.400 198.146 92.480 198.306C92.560 198.506 92.640 199.506 92.640 200.586C92.640 201.666 92.560 202.786 92.480 203.146Z"></path></g><line stroke="#000000" stroke-width="1.2" x1="110.44000000000001" x2="110.44000000000001" y1="199.5061538461538" y2="164.5061538461538"></line><g><path d="M97.920 154.266C98.040 154.226 110.160 150.146 110.160 150.146C110.680 150.026 110.680 149.746 110.680 149.426C110.680 149.106 110.680 148.866 110.160 148.706L98.160 144.626C98 144.586 97.920 144.546 97.800 144.546C97.440 144.546 97.320 144.786 97.200 145.106C97.160 145.266 97.120 145.386 97.120 145.506C97.120 145.706 97.240 145.906 97.680 146.066C97.680 146.066 106.320 148.986 106.720 149.146C106.920 149.186 107 149.306 107 149.426C107 149.546 106.920 149.626 106.680 149.706C106.240 149.826 97.680 152.746 97.680 152.746C97.240 152.946 97.120 153.146 97.120 153.346C97.120 153.466 97.160 153.586 97.200 153.706C97.320 153.986 97.480 154.306 97.760 154.306C97.800 154.306 97.880 154.306 97.920 154.266Z"></path><path d="M100.480 152.666C100.480 151.746 99.720 150.986 98.800 150.986C97.880 150.986 97.120 151.746 97.120 152.666C97.120 153.586 97.880 154.346 98.800 154.346C99.720 154.346 100.480 153.586 100.480 152.666Z"></path></g></g><g><g><path d="M235.552 206.986C239.552 206.986 244.472 203.266 244.472 199.466C244.472 197.186 242.672 195.706 240.072 195.706C235.152 195.706 231.192 199.346 231.192 203.226C231.192 205.586 233.112 206.986 235.552 206.986Z"></path><path d="M228.672 196.626C228.952 196.506 229.152 196.186 229.152 195.946L229.152 193.106C229.152 192.906 229.032 192.786 228.872 192.786C228.792 192.786 228.752 192.786 228.672 192.826C228.672 192.826 227.872 193.146 227.672 193.186C227.392 193.186 227.112 192.986 227.112 192.666C227.112 192.266 227.112 187.786 227.112 187.786C227.112 187.546 226.872 187.346 226.552 187.346C226.152 187.346 225.912 187.546 225.912 187.786C225.912 187.786 225.912 192.586 225.912 192.986C225.872 193.386 225.752 193.906 225.392 194.146C224.912 194.426 223.552 194.986 222.872 195.146C222.512 195.146 222.392 194.666 222.392 194.346C222.392 193.946 222.392 189.546 222.392 189.546C222.392 189.306 222.112 189.106 221.832 189.106C221.432 189.106 221.192 189.306 221.192 189.546C221.192 189.546 221.192 191.706 221.192 193.306L221.192 194.946C221.192 195.506 220.952 195.906 220.712 196.026C220.472 196.146 219.672 196.466 219.672 196.466C219.392 196.546 219.192 196.866 219.192 197.106L219.192 199.946C219.192 200.186 219.312 200.306 219.512 200.306C219.552 200.306 219.632 200.266 219.672 200.266C219.672 200.266 220.272 200.026 220.552 199.866C220.592 199.866 220.632 199.826 220.672 199.826C220.952 199.826 221.192 200.226 221.192 200.546L221.192 204.506C221.192 204.946 220.992 205.306 220.752 205.426C220.512 205.506 219.672 205.866 219.672 205.866C219.392 205.946 219.192 206.266 219.192 206.506L219.192 209.346C219.192 209.586 219.312 209.706 219.512 209.706C219.552 209.706 219.632 209.666 219.672 209.666C219.672 209.666 220.232 209.426 220.592 209.306C220.632 209.266 220.672 209.266 220.712 209.266C220.992 209.266 221.192 209.706 221.192 209.906C221.192 210.146 221.192 214.826 221.192 214.826C221.192 215.066 221.432 215.266 221.712 215.266C222.112 215.266 222.392 215.066 222.392 214.826C222.392 214.826 222.392 209.746 222.392 209.266C222.392 208.746 222.592 208.466 222.792 208.386L225.232 207.386C225.272 207.386 225.352 207.346 225.392 207.346C225.712 207.346 225.912 207.826 225.912 208.066C225.912 208.346 225.912 213.066 225.912 213.066C225.912 213.306 226.152 213.506 226.432 213.506C226.872 213.506 227.112 213.306 227.112 213.066C227.112 213.066 227.112 207.666 227.112 207.386C227.112 207.066 227.272 206.586 227.552 206.466C227.832 206.346 228.672 206.026 228.672 206.026C228.952 205.906 229.152 205.586 229.152 205.346L229.152 202.506C229.152 202.306 229.032 202.186 228.872 202.186C228.792 202.186 228.752 202.186 228.672 202.226C228.672 202.226 227.832 202.546 227.632 202.626C227.392 202.626 227.112 202.386 227.112 201.906L227.112 198.186C227.112 197.906 227.312 197.146 227.632 197.026C227.952 196.906 228.672 196.626 228.672 196.626ZM225.912 203.146C225.672 203.946 223.792 204.746 222.872 204.746C222.632 204.746 222.432 204.666 222.392 204.546C222.312 204.386 222.272 203.506 222.272 202.546C222.272 201.306 222.312 199.906 222.392 199.586C222.472 198.906 224.312 198.066 225.312 198.066C225.592 198.066 225.832 198.146 225.912 198.306C225.992 198.506 226.072 199.506 226.072 200.586C226.072 201.666 225.992 202.786 225.912 203.146Z"></path></g><line stroke="#000000" stroke-width="1.2" x1="243.87173167630903" x2="243.87173167630903" y1="199.5061538461538" y2="164.5061538461538"></line><g><path d="M231.352 154.266C231.472 154.226 243.592 150.146 243.592 150.146C244.112 150.026 244.112 149.746 244.112 149.426C244.112 149.106 244.112 148.866 243.592 148.706L231.592 144.626C231.432 144.586 231.352 144.546 231.232 144.546C230.872 144.546 230.752 144.786 230.632 145.106C230.592 145.266 230.552 145.386 230.552 145.506C230.552 145.706 230.672 145.906 231.112 146.066C231.112 146.066 239.752 148.986 240.152 149.146C240.352 149.186 240.432 149.306 240.432 149.426C240.432 149.546 240.352 149.626 240.112 149.706C239.672 149.826 231.112 152.746 231.112 152.746C230.672 152.946 230.552 153.146 230.552 153.346C230.552 153.466 230.592 153.586 230.632 153.706C230.752 153.986 230.912 154.306 231.192 154.306C231.232 154.306 231.312 154.306 231.352 154.266Z"></path><path d="M233.912 152.666C233.912 151.746 233.152 150.986 232.232 150.986C231.312 150.986 230.552 151.746 230.552 152.666C230.552 153.586 231.312 154.346 232.232 154.346C233.152 154.346 233.912 153.586 233.912 152.666Z"></path></g></g><g><g><path d="M368.983 206.986C372.983 206.986 377.903 203.266 377.903 199.466C377.903 197.186 376.103 195.706 373.503 195.706C368.583 195.706 364.623 199.346 364.623 203.226C364.623 205.586 366.543 206.986 368.983 206.986Z"></path><path d="M362.103 196.626C362.383 196.506 362.583 196.186 362.583 195.946L362.583 193.106C362.583 192.906 362.463 192.786 362.303 192.786C362.223 192.786 362.183 192.786 362.103 192.826C362.103 192.826 361.303 193.146 361.103 193.186C360.823 193.186 360.543 192.986 360.543 192.666C360.543 192.266 360.543 187.786 360.543 187.786C360.543 187.546 360.303 187.346 359.983 187.346C359.583 187.346 359.343 187.546 359.343 187.786C359.343 187.786 359.343 192.586 359.343 192.986C359.303 193.386 359.183 193.906 358.823 194.146C358.343 194.426 356.983 194.986 356.303 195.146C355.943 195.146 355.823 194.666 355.823 194.346C355.823 193.946 355.823 189.546 355.823 189.546C355.823 189.306 355.543 189.106 355.263 189.106C354.863 189.106 354.623 189.306 354.623 189.546C354.623 189.546 354.623 191.706 354.623 193.306L354.623 194.946C354.623 195.506 354.383 195.906 354.143 196.026C353.903 196.146 353.103 196.466 353.103 196.466C352.823 196.546 352.623 196.866 352.623 197.106L352.623 199.946C352.623 200.186 352.743 200.306 352.943 200.306C352.983 200.306 353.063 200.266 353.103 200.266C353.103 200.266 353.703 200.026 353.983 199.866C354.023 199.866 354.063 199.826 354.103 199.826C354.383 199.826 354.623 200.226 354.623 200.546L354.623 204.506C354.623 204.946 354.423 205.306 354.183 205.426C353.943 205.506 353.103 205.866 353.103 205.866C352.823 205.946 352.623 206.266 352.623 206.506L352.623 209.346C352.623 209.586 352.743 209.706 352.943 209.706C352.983 209.706 353.063 209.666 353.103 209.666C353.103 209.666 353.663 209.426 354.023 209.306C354.063 209.266 354.103 209.266 354.143 209.266C354.423 209.266 354.623 209.706 354.623 209.906C354.623 210.146 354.623 214.826 354.623 214.826C354.623 215.066 354.863 215.266 355.143 215.266C355.543 215.266 355.823 215.066 355.823 214.826C355.823 214.826 355.823 209.746 355.823 209.266C355.823 208.746 356.023 208.466 356.223 208.386L358.663 207.386C358.703 207.386 358.783 207.346 358.823 207.346C359.143 207.346 359.343 207.826 359.343 208.066C359.343 208.346 359.343 213.066 359.343 213.066C359.343 213.306 359.583 213.506 359.863 213.506C360.303 213.506 360.543 213.306 360.543 213.066C360.543 213.066 360.543 207.666 360.543 207.386C360.543 207.066 360.703 206.586 360.983 206.466C361.263 206.346 362.103 206.026 362.103 206.026C362.383 205.906 362.583 205.586 362.583 205.346L362.583 202.506C362.583 202.306 362.463 202.186 362.303 202.186C362.223 202.186 362.183 202.186 362.103 202.226C362.103 202.226 361.263 202.546 361.063 202.626C360.823 202.626 360.543 202.386 360.543 201.906L360.543 198.186C360.543 197.906 360.743 197.146 361.063 197.026C361.383 196.906 362.103 196.626 362.103 196.626ZM359.343 203.146C359.103 203.946 357.223 204.746 356.303 204.746C356.063 204.746 355.863 204.666 355.823 204.546C355.743 204.386 355.703 203.506 355.703 202.546C355.703 201.306 355.743 199.906 355.823 199.586C355.903 198.906 357.743 198.066 358.743 198.066C359.023 198.066 359.263 198.146 359.343 198.306C359.423 198.506 359.503 199.506 359.503 200.586C359.503 201.666 359.423 202.786 359.343 203.146Z"></path></g><line stroke="#000000" stroke-width="1.2" x1="377.30346335261805" x2="377.30346335261805" y1="199.5061538461538" y2="164.5061538461538"></line><g><path d="M364.783 154.266C364.903 154.226 377.023 150.146 377.023 150.146C377.543 150.026 377.543 149.746 377.543 149.426C377.543 149.106 377.543 148.866 377.023 148.706L365.023 144.626C364.863 144.586 364.783 144.546 364.663 144.546C364.303 144.546 364.183 144.786 364.063 145.106C364.023 145.266 363.983 145.386 363.983 145.506C363.983 145.706 364.103 145.906 364.543 146.066C364.543 146.066 373.183 148.986 373.583 149.146C373.783 149.186 373.863 149.306 373.863 149.426C373.863 149.546 373.783 149.626 373.543 149.706C373.103 149.826 364.543 152.746 364.543 152.746C364.103 152.946 363.983 153.146 363.983 153.346C363.983 153.466 364.023 153.586 364.063 153.706C364.183 153.986 364.343 154.306 364.623 154.306C364.663 154.306 364.743 154.306 364.783 154.266Z"></path><path d="M367.343 152.666C367.343 151.746 366.583 150.986 365.663 150.986C364.743 150.986 363.983 151.746 363.983 152.666C363.983 153.586 364.743 154.346 365.663 154.346C366.583 154.346 367.343 153.586 367.343 152.666Z"></path></g></g></g></svg>