<?xml version="1.0" encoding="UTF-8" standalone="no"?><svg xmlns="http://www.w3.org/2000/svg" height="279.4mm" viewBox="0 0 1328.6153846153845 1719.3846153846152" width="215.9mm"><g transform="translate(93.84615384615385)"><g><g><line stroke="#6A6A6A" stroke-width="1.3" x1="0" x2="493.307692351974" y1="183.8461538461538" y2="183.8461538461538"></line><line stroke="#6A6A6A" stroke-width="1.3" x1="0" x2="493.307692351974" y1="173.8461538461538" y2="173.8461538461538"></line><line stroke="#6A6A6A" stroke-width="1.3" x1="0" x2="493.307692351974" y1="163.8461538461538" y2="163.8461538461538"></line><line stroke="#6A6A6A" stroke-width="1.3" x1="0" x2="493.307692351974" y1="153.8461538461538" y2="153.8461538461538"></line><line stroke="#6A6A6A" stroke-width="1.3" x1="0" x2="493.307692351974" y1="143.8461538461538" y2="143.8461538461538"></line></g><g><path d="M25.200 129.926C24.640 129.926 23.400 130.966 22.600 131.846C19.640 135.126 18.680 140.126 18.680 144.286C18.680 146.606 18.960 149.206 19.240 150.846C19.320 151.326 19.360 151.406 18.880 151.806C16.320 153.926 13.560 156.366 11.480 158.926C8.720 162.366 7 166.086 7 170.366C7 177.326 11.760 183.926 21.560 183.926C22.480 183.926 23.520 183.846 24.320 183.686C24.760 183.606 24.840 183.566 24.920 184.046C25.400 186.726 26 190.206 26 192.086C26 198.006 22 198.726 19.640 198.726C17.480 198.726 16.440 198.086 16.440 197.566C16.440 197.126 16.800 197.166 17.720 196.886C18.960 196.526 20.400 195.446 20.400 193.126C20.400 190.926 19 189.046 16.560 189.046C13.880 189.046 12.280 191.166 12.280 193.646C12.280 196.246 13.840 200.166 19.880 200.166C22.560 200.166 27.760 198.966 27.760 192.166C27.760 189.886 27.040 186.086 26.600 183.606C26.520 183.126 26.560 183.166 27.120 182.926C31.160 181.326 33.840 177.926 33.840 173.406C33.840 168.286 30.080 163.766 24.200 163.766C23.080 163.766 23.200 163.966 23.040 163.046L22.040 157.246C21.960 156.766 22.040 156.726 22.280 156.486C22.920 155.886 23.760 155.046 24.520 154.206C27.880 150.526 29.880 145.766 29.880 141.246C29.880 137.766 28.920 134.326 27.280 131.926C26.680 131.046 25.640 129.926 25.200 129.926ZM20.040 158.086C20.440 157.766 20.520 157.806 20.600 158.246L21.440 163.366C21.560 164.126 21.560 164.086 20.840 164.326C17.320 165.526 15.040 168.686 15.040 172.086C15.040 175.686 16.920 178.246 19.640 179.166C19.960 179.286 20.440 179.406 20.720 179.406C21.040 179.406 21.200 179.206 21.200 178.966C21.200 178.686 20.880 178.566 20.600 178.446C18.920 177.726 17.720 176.006 17.720 174.166C17.720 171.886 19.280 170.166 21.720 169.486C22.360 169.326 22.440 169.366 22.520 169.806L24.520 181.726C24.600 182.166 24.560 182.166 23.960 182.286C23.320 182.406 22.520 182.486 21.720 182.486C14.720 182.486 10.200 178.606 10.200 173.046C10.200 170.686 10.600 167.526 13.920 163.766C16.320 161.086 18.160 159.606 20.040 158.086ZM24.640 169.166C27.880 169.446 30.560 172.166 30.560 175.686C30.560 178.206 29.040 180.246 26.800 181.366C26.320 181.606 26.240 181.606 26.160 181.126L24.200 169.726C24.120 169.246 24.160 169.126 24.640 169.166ZM25.800 136.126C27.120 136.126 28.200 137.206 28.200 139.406C28.200 142.166 26.880 144.726 23.760 147.846C23.120 148.486 22.160 149.406 21.240 150.206C20.960 150.446 20.800 150.406 20.720 149.886C20.560 148.846 20.480 147.486 20.480 146.206C20.480 139.966 23.360 136.126 25.800 136.126Z"></path></g><g></g><path d="M57.820 153.806C56.620 153.806 55.220 154.126 54.140 154.606C50.580 156.166 48.700 160.446 48.700 164.246C48.700 164.606 48.700 164.966 48.740 165.326C48.940 167.486 49.980 169.526 51.300 171.126C52.820 172.966 55.020 173.806 57.420 173.806C64.420 173.806 65.460 167.446 65.460 166.286C65.460 165.406 65.020 165.406 64.860 165.406C64.540 165.406 64.260 165.446 64.260 166.126C64.260 171.286 59.860 172.486 58.580 172.486C55.340 172.486 53.620 169.326 53.620 162.726C53.620 156.126 56.660 154.766 58.820 154.766C60.900 154.766 61.740 155.726 61.740 156.126C61.740 156.486 61.620 157.006 61.020 157.006C59.420 157.006 58.500 158.726 58.500 159.966C58.500 162.246 60.460 162.966 61.580 162.966C61.580 162.966 64.620 162.846 64.620 159.526C64.620 154.286 58.580 153.806 57.820 153.806Z"></path><text font-family='Alegreya' font-style='italic' text-anchor='end' stroke='#7a7a7a' font-size="24" x="0" y="133.8461538461538">25</text></g><g><line stroke="black" stroke-width="1.6" x1="483.5076923519741" x2="483.5076923519741" y1="143.8461538461538" y2="183.8461538461538"></line><line stroke="black" stroke-width="5" x1="490.8076923519741" x2="490.8076923519741" y1="143.8461538461538" y2="183.8461538461538"></line></g><g><g><path d="M93.480 154.646C101.120 154.646 102.640 148.446 102.640 146.926C102.640 144.566 100.760 143.046 98.080 143.046C91.160 143.046 89 148.406 89 150.806C89 153.246 90.960 154.646 93.480 154.646ZM97 150.966C94.920 152.366 93.480 152.846 92.480 152.846C91.520 152.846 90.960 152.366 90.640 151.806C90.480 151.526 90.360 151.206 90.360 150.886C90.360 149.886 91.360 148.606 94.560 146.766C96.840 145.446 98.280 144.966 99.240 144.966C100.120 144.966 100.600 145.366 100.920 145.926C101.080 146.206 101.200 146.486 101.200 146.806C101.200 147.726 100.240 148.846 97 150.966Z"></path></g><line stroke="#000000" stroke-width="1.2" x1="89.6" x2="89.6" y1="150.80615384615382" y2="188.80615384615382"></line></g><g><g><path d="M284.514 144.486C288.514 144.486 293.434 140.766 293.434 136.966C293.434 134.686 291.634 133.206 289.034 133.206C284.114 133.206 280.154 136.846 280.154 140.726C280.154 143.086 282.074 144.486 284.514 144.486Z"></path></g><line stroke="#000000" stroke-width="1.2" x1="280.75384617598706" x2="280.75384617598706" y1="140.68615384615381" y2="166.93615384615381"></line><path d="M289.754 141.016C290.354 144.376 290.354 148.016 288.834 151.136C286.074 156.736 282.834 156.856 280.354 156.936L280.154 156.936L280.154 172.776C280.154 172.776 280.594 172.816 280.834 172.816C281.074 172.816 281.554 172.736 281.634 172.296C282.594 166.136 290.474 164.416 291.434 158.136C291.514 157.696 291.554 157.216 291.554 156.696C291.554 154.256 290.674 151.856 290.554 151.616C290.514 151.536 290.514 151.456 290.514 151.336C290.514 151.176 290.554 151.096 290.554 150.976C291.994 147.976 292.034 144.056 291.394 140.856C291.194 139.936 290.914 139.976 290.434 139.976C289.954 140.016 289.634 140.336 289.754 141.016ZM289.194 154.216C289.394 154.216 289.674 154.336 289.714 154.496C289.914 154.776 289.914 155.176 289.994 155.496C290.034 155.776 290.034 156.056 290.034 156.296C290.034 157.616 289.674 158.816 288.954 159.856C287.634 161.816 285.074 164.056 282.634 164.056L282.314 164.056C281.994 164.056 281.754 163.856 281.754 163.656C281.754 163.616 281.754 163.576 281.794 163.536C282.634 160.256 284.874 159.336 286.754 157.136C287.594 156.216 288.274 155.416 288.914 154.376C288.994 154.256 289.074 154.216 289.194 154.216Z"></path></g><g><g><path d="M296.034 154.646C303.674 154.646 305.194 148.446 305.194 146.926C305.194 144.566 303.314 143.046 300.634 143.046C293.714 143.046 291.554 148.406 291.554 150.806C291.554 153.246 293.514 154.646 296.034 154.646ZM299.554 150.966C297.474 152.366 296.034 152.846 295.034 152.846C294.074 152.846 293.514 152.366 293.194 151.806C293.034 151.526 292.914 151.206 292.914 150.886C292.914 149.886 293.914 148.606 297.114 146.766C299.394 145.446 300.834 144.966 301.794 144.966C302.674 144.966 303.154 145.366 303.474 145.926C303.634 146.206 303.754 146.486 303.754 146.806C303.754 147.726 302.794 148.846 299.554 150.966Z"></path></g><line stroke="#000000" stroke-width="1.2" x1="292.15384617598704" x2="292.15384617598704" y1="150.80615384615382" y2="188.80615384615382"></line></g></g></svg>