<?xml version="1.0" encoding="UTF-8" standalone="no"?><svg xmlns="http://www.w3.org/2000/svg" height="279.4mm" viewBox="0 0 1328.6153846153845 1719.3846153846152" width="215.9mm"><g transform="translate(93.84615384615385)"><g><g><line stroke="#6A6A6A" stroke-width="1.3" x1="0" x2="924.0253381137738" y1="183.8461538461538" y2="183.8461538461538"></line><line stroke="#6A6A6A" stroke-width="1.3" x1="0" x2="924.0253381137738" y1="173.8461538461538" y2="173.8461538461538"></line><line stroke="#6A6A6A" stroke-width="1.3" x1="0" x2="924.0253381137738" y1="163.8461538461538" y2="163.8461538461538"></line><line stroke="#6A6A6A" stroke-width="1.3" x1="0" x2="924.0253381137738" y1="153.8461538461538" y2="153.8461538461538"></line><line stroke="#6A6A6A" stroke-width="1.3" x1="0" x2="924.0253381137738" y1="143.8461538461538" y2="143.8461538461538"></line></g><g><path d="M25.200 129.926C24.640 129.926 23.400 130.966 22.600 131.846C19.640 135.126 18.680 140.126 18.680 144.286C18.680 146.606 18.960 149.206 19.240 150.846C19.320 151.326 19.360 151.406 18.880 151.806C16.320 153.926 13.560 156.366 11.480 158.926C8.720 162.366 7 166.086 7 170.366C7 177.326 11.760 183.926 21.560 183.926C22.480 183.926 23.520 183.846 24.320 183.686C24.760 183.606 24.840 183.566 24.920 184.046C25.400 186.726 26 190.206 26 192.086C26 198.006 22 198.726 19.640 198.726C17.480 198.726 16.440 198.086 16.440 197.566C16.440 197.126 16.800 197.166 17.720 196.886C18.960 196.526 20.400 195.446 20.400 193.126C20.400 190.926 19 189.046 16.560 189.046C13.880 189.046 12.280 191.166 12.280 193.646C12.280 196.246 13.840 200.166 19.880 200.166C22.560 200.166 27.760 198.966 27.760 192.166C27.760 189.886 27.040 186.086 26.600 183.606C26.520 183.126 26.560 183.166 27.120 182.926C31.160 181.326 33.840 177.926 33.840 173.406C33.840 168.286 30.080 163.766 24.200 163.766C23.080 163.766 23.200 163.966 23.040 163.046L22.040 157.246C21.960 156.766 22.040 156.726 22.280 156.486C22.920 155.886 23.760 155.046 24.520 154.206C27.880 150.526 29.880 145.766 29.880 141.246C29.880 137.766 28.920 134.326 27.280 131.926C26.680 131.046 25.640 129.926 25.200 129.926ZM20.040 158.086C20.440 157.766 20.520 157.806 20.600 158.246L21.440 163.366C21.560 164.126 21.560 164.086 20.840 164.326C17.320 165.526 15.040 168.686 15.040 172.086C15.040 175.686 16.920 178.246 19.640 179.166C19.960 179.286 20.440 179.406 20.720 179.406C21.040 179.406 21.200 179.206 21.200 178.966C21.200 178.686 20.880 178.566 20.600 178.446C18.920 177.726 17.720 176.006 17.720 174.166C17.720 171.886 19.280 170.166 21.720 169.486C22.360 169.326 22.440 169.366 22.520 169.806L24.520 181.726C24.600 182.166 24.560 182.166 23.960 182.286C23.320 182.406 22.520 182.486 21.720 182.486C14.720 182.486 10.200 178.606 10.200 173.046C10.200 170.686 10.600 167.526 13.920 163.766C16.320 161.086 18.160 159.606 20.040 158.086ZM24.640 169.166C27.880 169.446 30.560 172.166 30.560 175.686C30.560 178.206 29.040 180.246 26.800 181.366C26.320 181.606 26.240 181.606 26.160 181.126L24.200 169.726C24.120 169.246 24.160 169.126 24.640 169.166ZM25.800 136.126C27.120 136.126 28.200 137.206 28.200 139.406C28.200 142.166 26.880 144.726 23.760 147.846C23.120 148.486 22.160 149.406 21.240 150.206C20.960 150.446 20.800 150.406 20.720 149.886C20.560 148.846 20.480 147.486 20.480 146.206C20.480 139.966 23.360 136.126 25.800 136.126Z"></path></g><g></g><path d="M57.820 153.806C56.620 153.806 55.220 154.126 54.140 154.606C50.580 156.166 48.700 160.446 48.700 164.246C48.700 164.606 48.700 164.966 48.740 165.326C48.940 167.486 49.980 169.526 51.300 171.126C52.820 172.966 55.020 173.806 57.420 173.806C64.420 173.806 65.460 167.446 65.460 166.286C65.460 165.406 65.020 165.406 64.860 165.406C64.540 165.406 64.260 165.446 64.260 166.126C64.260 171.286 59.860 172.486 58.580 172.486C55.340 172.486 53.620 169.326 53.620 162.726C53.620 156.126 56.660 154.766 58.820 154.766C60.900 154.766 61.740 155.726 61.740 156.126C61.740 156.486 61.620 157.006 61.020 157.006C59.420 157.006 58.500 158.726 58.500 159.966C58.500 162.246 60.460 162.966 61.580 162.966C61.580 162.966 64.620 162.846 64.620 159.526C64.620 154.286 58.580 153.806 57.820 153.806Z"></path><g><path d="M-13.200 264.426C-12.040 263.706-10.720 260.866-10.720 258.506C-10.720 258.306-10.720 258.066-10.760 257.866C-11.040 255.466-12.240 251.746-12.240 249.586C-12.240 247.506-11.320 245.506-11.120 245.146C-10.960 244.986-10.920 244.866-10.920 244.746C-10.920 244.666-10.960 244.586-11 244.586C-11.040 244.546-11.080 244.466-11.160 244.466C-11.240 244.466-11.320 244.546-11.480 244.746C-12.360 245.826-13.440 248.146-13.440 252.146C-13.440 256.106-12.040 257.706-12.040 260.226C-12.040 262.106-12.800 263.146-13.920 264.426C-13.200 265.226-12.040 265.866-12.040 268.466C-12.040 271.266-13.440 273.746-13.440 276.666C-13.440 280.666-12.360 282.986-11.480 284.106C-11.320 284.306-11.240 284.346-11.160 284.346C-11.080 284.346-11.040 284.306-11 284.266C-10.960 284.226-10.920 284.186-10.920 284.106C-10.920 283.986-10.960 283.866-11.120 283.666C-11.320 283.346-12.240 281.346-12.240 279.226C-12.240 277.106-11.040 273.346-10.760 270.986C-10.720 270.786-10.720 270.586-10.720 270.346C-10.720 267.986-12.040 265.146-13.200 264.426Z"></path><line stroke="#000000" stroke-width="1.6" x1="0" x2="0" y1="143.3461538461538" y2="284.3461538461538"></line></g></g><path d="M134.440 205.646C132.160 205.646 130.520 206.566 129.280 207.806C127.960 209.166 127.360 210.126 126.760 211.566C126.400 212.486 126.280 212.526 125.400 212.526L123 212.526C121.840 212.526 121.040 212.526 121.040 212.526C120.840 212.526 119.920 212.486 119.920 212.126C119.920 211.886 120.040 211.446 120.280 210.806C121.040 208.766 121.680 207.046 124.120 206.926L124.280 206.926C124.440 206.926 124.600 206.966 124.640 207.166C124.640 207.446 124.640 207.566 124.520 207.646C124.400 207.766 124.200 207.806 124.080 207.846C123.720 208.006 123.480 208.286 123.320 208.566C123.080 208.886 122.960 209.286 122.960 209.686C122.960 210.846 123.560 211.166 124.440 211.166C125.280 211.166 126.600 209.926 126.680 208.446C126.680 206.886 125.680 205.726 123.680 205.646L123.440 205.646C121.160 205.646 119.520 206.566 118.280 207.806C116.960 209.166 116.360 210.126 115.760 211.566C115.400 212.486 115.280 212.526 114.400 212.526C112.040 212.526 110.120 212.526 110.120 212.526C109.920 212.526 109 212.486 109 212.126C109 211.886 109.120 211.446 109.360 210.806C110.120 208.766 110.760 207.046 113.200 206.926L113.360 206.926C113.520 206.926 113.680 206.966 113.720 207.166C113.720 207.446 113.720 207.566 113.600 207.646C113.480 207.766 113.280 207.806 113.160 207.846C112.800 208.006 112.560 208.286 112.400 208.566C112.160 208.886 112.040 209.286 112.040 209.686C112.040 210.846 112.640 211.166 113.520 211.166C114.360 211.166 115.680 209.926 115.760 208.446C115.760 206.886 114.760 205.726 112.760 205.646L112.520 205.646C110.240 205.646 108.600 206.566 107.360 207.806C106.040 209.166 105.440 210.126 104.840 211.566C104.480 212.486 104.360 212.526 103.480 212.526L99.240 212.526C98.360 212.526 98 212.526 98 212.126C98 211.886 98.120 211.446 98.360 210.806C99.120 208.766 99.760 207.046 102.200 206.926L102.360 206.926C102.520 206.926 102.680 206.966 102.720 207.166C102.720 207.446 102.720 207.566 102.600 207.646C102.480 207.766 102.280 207.806 102.160 207.846C101.800 208.006 101.560 208.286 101.400 208.566C101.160 208.886 101.040 209.286 101.040 209.686C101.040 210.846 101.640 211.166 102.520 211.166C103.360 211.166 104.680 209.926 104.760 208.446C104.760 206.886 103.760 205.726 101.760 205.646L101.520 205.646C99.240 205.646 97.600 206.566 96.360 207.806C95.040 209.166 94.440 210.126 93.840 211.566C93.480 212.486 93.360 212.526 92.480 212.526L90.600 212.526C89.600 212.526 89.520 212.646 89.520 213.366C89.520 214.286 89.520 214.286 90.240 214.286C91.600 214.286 91.600 214.286 91.600 214.286C92.080 214.286 92.280 214.286 92.280 214.646C92.280 214.886 92.160 215.366 91.920 216.246C91.840 216.566 89.440 225.446 89.200 226.086C88.840 227.006 88.200 227.926 87.440 228.566C87.240 228.726 87.040 228.886 86.760 228.966C86.600 229.046 86.440 229.046 86.320 229.046C85.960 229.046 85.760 228.926 85.720 228.926C86.280 228.806 86.640 228.446 86.760 228.366C87 228.086 87.200 227.646 87.200 227.246C87.200 226.646 86.960 225.926 86.440 225.646C86.160 225.486 85.800 225.366 85.440 225.366C85.240 225.366 85.080 225.406 84.960 225.446C84.600 225.566 84.200 225.806 83.960 226.086C83.560 226.566 83.320 227.246 83.320 227.886C83.320 228.606 83.560 229.286 84.040 229.766C84.280 230.006 84.640 230.246 84.920 230.366C85.320 230.486 85.800 230.566 86.240 230.566C87.400 230.566 88.560 230.086 89.520 229.446C90.760 228.646 91.680 227.526 92.520 226.206C93.120 225.286 93.520 224.286 93.960 223.286L94.120 222.966C94.560 221.966 94.920 220.926 95.280 219.926L96.120 217.606C96.400 216.846 96.680 216.006 97.040 215.286C97.560 214.286 97.560 214.286 98.920 214.286C102.600 214.286 102.600 214.286 102.600 214.286C103.080 214.286 103.280 214.286 103.280 214.646C103.280 214.886 103.160 215.366 102.920 216.246C102.840 216.566 100.440 225.446 100.200 226.086C99.840 227.006 99.200 227.926 98.440 228.566C98.240 228.726 98.040 228.886 97.760 228.966C97.600 229.046 97.440 229.046 97.320 229.046C96.960 229.046 96.760 228.926 96.720 228.926C97.280 228.806 97.640 228.446 97.760 228.366C98 228.086 98.200 227.646 98.200 227.246C98.200 226.646 97.960 225.926 97.440 225.646C97.160 225.486 96.800 225.366 96.440 225.366C96.240 225.366 96.080 225.406 95.960 225.446C95.600 225.566 95.200 225.806 94.960 226.086C94.560 226.566 94.320 227.246 94.320 227.886C94.320 228.606 94.560 229.286 95.040 229.766C95.280 230.006 95.640 230.246 95.920 230.366C96.320 230.486 96.800 230.566 97.240 230.566C98.400 230.566 99.560 230.086 100.520 229.446C101.760 228.646 102.680 227.526 103.520 226.206C104.120 225.286 104.520 224.286 104.960 223.286L105.120 222.966C105.560 221.966 105.920 220.926 106.280 219.926L107.120 217.606C107.400 216.846 107.680 216.006 108.040 215.286C108.560 214.286 108.560 214.286 109.920 214.286C113.520 214.286 113.520 214.286 113.520 214.286C114 214.286 114.200 214.286 114.200 214.646C114.200 214.886 114.080 215.366 113.840 216.246C113.760 216.566 111.360 225.446 111.120 226.086C110.760 227.006 110.120 227.926 109.360 228.566C109.160 228.726 108.960 228.886 108.680 228.966C108.520 229.046 108.360 229.046 108.240 229.046C107.880 229.046 107.680 228.926 107.640 228.926C108.200 228.806 108.560 228.446 108.680 228.366C108.920 228.086 109.120 227.646 109.120 227.246C109.120 226.646 108.880 225.926 108.360 225.646C108.080 225.486 107.720 225.366 107.360 225.366C107.160 225.366 107 225.406 106.880 225.446C106.520 225.566 106.120 225.806 105.880 226.086C105.480 226.566 105.240 227.246 105.240 227.886C105.240 228.606 105.480 229.286 105.960 229.766C106.200 230.006 106.560 230.246 106.840 230.366C107.240 230.486 107.720 230.566 108.160 230.566C109.320 230.566 110.480 230.086 111.440 229.446C112.680 228.646 113.600 227.526 114.440 226.206C115.040 225.286 115.440 224.286 115.880 223.286L116.040 222.966C116.480 221.966 116.840 220.926 117.200 219.926L118.040 217.606C118.320 216.846 118.600 216.006 118.960 215.286C119.480 214.286 119.480 214.286 120.840 214.286C124.520 214.286 124.520 214.286 124.520 214.286C125 214.286 125.200 214.286 125.200 214.646C125.200 214.886 125.080 215.366 124.840 216.246C124.760 216.566 122.360 225.446 122.120 226.086C121.760 227.006 121.120 227.926 120.360 228.566C120.160 228.726 119.960 228.886 119.680 228.966C119.520 229.046 119.360 229.046 119.240 229.046C118.880 229.046 118.680 228.926 118.640 228.926C119.200 228.806 119.560 228.446 119.680 228.366C119.920 228.086 120.120 227.646 120.120 227.246C120.120 226.646 119.880 225.926 119.360 225.646C119.080 225.486 118.720 225.366 118.360 225.366C118.160 225.366 118 225.406 117.880 225.446C117.520 225.566 117.120 225.806 116.880 226.086C116.480 226.566 116.240 227.246 116.240 227.886C116.240 228.606 116.480 229.286 116.960 229.766C117.200 230.006 117.560 230.246 117.840 230.366C118.240 230.486 118.720 230.566 119.160 230.566C120.320 230.566 121.480 230.086 122.440 229.446C123.680 228.646 124.600 227.526 125.440 226.206C126.040 225.286 126.440 224.286 126.880 223.286L127.040 222.966C127.480 221.966 127.840 220.926 128.200 219.926L129.040 217.606C129.320 216.846 129.600 216.006 129.960 215.286C130.480 214.286 130.480 214.286 131.840 214.286C133.480 214.286 133.480 214.286 133.480 214.286C134.240 214.286 134.240 214.246 134.240 213.366C134.240 212.526 134.240 212.526 133.520 212.526C132.160 212.526 132.160 212.526 132.160 212.526C131.280 212.526 130.920 212.526 130.920 212.126C130.920 211.886 131.040 211.446 131.280 210.806C132.040 208.766 132.680 207.046 135.120 206.926L135.280 206.926C135.440 206.926 135.600 206.966 135.640 207.166C135.640 207.446 135.640 207.566 135.520 207.646C135.400 207.766 135.200 207.806 135.080 207.846C134.720 208.006 134.480 208.286 134.320 208.566C134.080 208.886 133.960 209.286 133.960 209.686C133.960 210.846 134.560 211.166 135.440 211.166C136.280 211.166 137.600 209.926 137.680 208.446C137.680 206.886 136.680 205.726 134.680 205.646Z"></path><path d="M230.684 217.806C230.684 217.806 230.484 218.046 230.484 218.286C230.484 218.446 230.564 218.606 230.764 218.726C230.804 218.766 230.884 218.766 230.924 218.766C231.284 218.766 231.484 218.286 231.484 218.286C231.484 218.286 233.164 215.166 234.404 214.446C234.604 214.326 234.804 214.326 234.924 214.326C235.244 214.326 235.364 214.646 235.364 215.046C235.364 215.406 235.244 215.846 235.204 215.966C235.204 215.966 230.204 227.566 230.084 227.766C229.964 228.086 229.684 228.166 229.364 228.166L227.564 228.166C227.164 228.166 226.924 228.406 226.924 228.686C226.924 228.926 227.164 229.206 227.564 229.206L235.844 229.206C236.284 229.206 236.444 228.926 236.444 228.646C236.444 228.406 236.284 228.166 235.924 228.166L234.644 228.166C234.364 228.166 234.164 228.086 234.164 227.846C234.164 227.686 234.244 227.526 234.364 227.246C234.644 226.526 235.964 223.286 235.964 223.286C236.124 222.806 236.244 222.646 236.404 222.646C236.564 222.646 236.764 222.846 237.044 223.126C237.844 223.726 239.044 223.806 239.564 223.806L239.724 223.806C242.684 223.806 244.804 220.526 245.284 219.566C245.564 218.966 246.004 217.766 246.004 216.446C246.004 215.486 245.764 214.446 245.084 213.566C244.604 212.886 243.924 212.646 243.164 212.646C241.484 212.646 239.524 213.846 238.924 214.566C238.804 214.766 238.684 214.806 238.604 214.806C238.444 214.806 238.364 214.646 238.204 214.286L238.124 214.166C237.644 213.206 236.964 212.766 235.964 212.766C235.764 212.766 235.524 212.766 235.324 212.806C233.604 213.046 231.324 216.686 230.684 217.806ZM241.924 214.166C242.284 214.326 242.444 214.846 242.444 215.526C242.444 216.446 242.124 217.726 241.524 219.006C240.604 221.046 239.204 222.486 238.364 222.486C238.244 222.486 238.164 222.486 238.084 222.446C237.724 222.246 237.524 221.766 237.524 221.086C237.524 220.166 237.844 218.886 238.444 217.566C239.404 215.526 240.764 214.126 241.604 214.126C241.724 214.126 241.804 214.126 241.924 214.166Z"></path><g><line stroke="black" stroke-width="1.6" x1="278.4456400251769" x2="278.4456400251769" y1="143.3461538461538" y2="284.3461538461538"></line></g><g><g><line stroke="#6A6A6A" stroke-width="1.3" x1="0" x2="924.0253381137738" y1="283.8461538461538" y2="283.8461538461538"></line><line stroke="#6A6A6A" stroke-width="1.3" x1="0" x2="924.0253381137738" y1="273.8461538461538" y2="273.8461538461538"></line><line stroke="#6A6A6A" stroke-width="1.3" x1="0" x2="924.0253381137738" y1="263.8461538461538" y2="263.8461538461538"></line><line stroke="#6A6A6A" stroke-width="1.3" x1="0" x2="924.0253381137738" y1="253.8461538461538" y2="253.8461538461538"></line><line stroke="#6A6A6A" stroke-width="1.3" x1="0" x2="924.0253381137738" y1="243.8461538461538" y2="243.8461538461538"></line></g><g><path d="M17.080 243.366C10.120 243.366 7 248.446 7 252.286C7 255.486 8.680 258.246 11.920 258.246C14.440 258.246 16.160 256.486 16.160 254.006C16.160 251.446 14.280 249.846 12.320 249.846C11.240 249.846 10.840 250.126 10.320 250.126C9.800 250.126 9.680 249.806 9.680 249.406C9.680 247.806 12.080 244.886 16.160 244.886C20.400 244.886 22.240 249.046 22.240 255.326C22.240 259.446 21.360 264.246 18.880 268.086C16.480 271.806 12.360 275.206 7.400 278.046C7.040 278.246 6.800 278.446 6.800 278.766C6.800 279.006 6.960 279.246 7.320 279.246C7.520 279.246 7.760 279.166 8 279.046C13.320 276.446 18.440 273.406 22.680 268.846C26.160 265.086 28.240 260.206 28.240 254.966C28.240 248.006 24 243.366 17.080 243.366ZM32.200 256.686C30.960 256.686 30.040 257.606 30.040 258.846C30.040 260.086 30.960 261.006 32.200 261.006C33.440 261.006 34.360 260.086 34.360 258.846C34.360 257.606 33.440 256.686 32.200 256.686ZM32.160 246.646C30.920 246.646 29.960 247.606 29.960 248.846C29.960 250.086 30.920 251.046 32.160 251.046C33.400 251.046 34.360 250.086 34.360 248.846C34.360 247.606 33.400 246.646 32.160 246.646Z"></path></g><g></g><path d="M57.820 253.806C56.620 253.806 55.220 254.126 54.140 254.606C50.580 256.166 48.700 260.446 48.700 264.246C48.700 264.606 48.700 264.966 48.740 265.326C48.940 267.486 49.980 269.526 51.300 271.126C52.820 272.966 55.020 273.806 57.420 273.806C64.420 273.806 65.460 267.446 65.460 266.286C65.460 265.406 65.020 265.406 64.860 265.406C64.540 265.406 64.260 265.446 64.260 266.126C64.260 271.286 59.860 272.486 58.580 272.486C55.340 272.486 53.620 269.326 53.620 262.726C53.620 256.126 56.660 254.766 58.820 254.766C60.900 254.766 61.740 255.726 61.740 256.126C61.740 256.486 61.620 257.006 61.020 257.006C59.420 257.006 58.500 258.726 58.500 259.966C58.500 262.246 60.460 262.966 61.580 262.966C61.580 262.966 64.620 262.846 64.620 259.526C64.620 254.286 58.580 253.806 57.820 253.806Z"></path></g><g><line stroke="black" stroke-width="1.6" x1="278.4456400251769" x2="278.4456400251769" y1="143.3461538461538" y2="284.3461538461538"></line></g><g><g><path d="M93.360 164.486C97.360 164.486 102.280 160.766 102.280 156.966C102.280 154.686 100.480 153.206 97.880 153.206C92.960 153.206 89 156.846 89 160.726C89 163.086 90.920 164.486 93.360 164.486Z"></path></g><line stroke="#000000" stroke-width="1.2" x1="89.6" x2="89.6" y1="160.68615384615381" y2="198.68615384615381"></line></g><g><g><path d="M140.521 169.486C144.521 169.486 149.441 165.766 149.441 161.966C149.441 159.686 147.641 158.206 145.041 158.206C140.121 158.206 136.161 161.846 136.161 165.726C136.161 168.086 138.081 169.486 140.521 169.486Z"></path></g><line stroke="#000000" stroke-width="1.2" x1="136.7614100062942" x2="136.7614100062942" y1="165.68615384615381" y2="200.68615384615381"></line></g><g><g><path d="M187.683 174.486C191.683 174.486 196.603 170.766 196.603 166.966C196.603 164.686 194.803 163.206 192.203 163.206C187.283 163.206 183.323 166.846 183.323 170.726C183.323 173.086 185.243 174.486 187.683 174.486Z"></path></g><line stroke="#000000" stroke-width="1.2" x1="196.00282001258844" x2="196.00282001258844" y1="167.0061538461538" y2="129.0061538461538"></line></g><g><g><path d="M234.844 179.486C238.844 179.486 243.764 175.766 243.764 171.966C243.764 169.686 241.964 168.206 239.364 168.206C234.444 168.206 230.484 171.846 230.484 175.726C230.484 178.086 232.404 179.486 234.844 179.486Z"></path></g><line stroke="#000000" stroke-width="1.2" x1="243.16423001888268" x2="243.16423001888268" y1="172.0061538461538" y2="137.0061538461538"></line></g><g><g><path d="M93.360 284.486C97.360 284.486 102.280 280.766 102.280 276.966C102.280 274.686 100.480 273.206 97.880 273.206C92.960 273.206 89 276.846 89 280.726C89 283.086 90.920 284.486 93.360 284.486Z"></path></g><line stroke="#000000" stroke-width="1.2" x1="101.68" x2="101.68" y1="277.00615384615384" y2="239.00615384615384"></line></g><g><g><path d="M140.521 279.486C144.521 279.486 149.441 275.766 149.441 271.966C149.441 269.686 147.641 268.206 145.041 268.206C140.121 268.206 136.161 271.846 136.161 275.726C136.161 278.086 138.081 279.486 140.521 279.486Z"></path></g><line stroke="#000000" stroke-width="1.2" x1="148.8414100062942" x2="148.8414100062942" y1="272.00615384615384" y2="237.00615384615384"></line></g><g><g><path d="M187.683 274.486C191.683 274.486 196.603 270.766 196.603 266.966C196.603 264.686 194.803 263.206 192.203 263.206C187.283 263.206 183.323 266.846 183.323 270.726C183.323 273.086 185.243 274.486 187.683 274.486Z"></path></g><line stroke="#000000" stroke-width="1.2" x1="196.00282001258844" x2="196.00282001258844" y1="267.00615384615384" y2="229.00615384615384"></line></g><g><g><path d="M234.844 269.486C238.844 269.486 243.764 265.766 243.764 261.966C243.764 259.686 241.964 258.206 239.364 258.206C234.444 258.206 230.484 261.846 230.484 265.726C230.484 268.086 232.404 269.486 234.844 269.486Z"></path></g><line stroke="#000000" stroke-width="1.2" x1="243.16423001888268" x2="243.16423001888268" y1="262.00615384615384" y2="227.00615384615384"></line></g></g><g transform="translate(388.0917938713307)"><g><g><path d="M16.480 139.126C16.760 139.006 16.960 138.686 16.960 138.446L16.960 135.606C16.960 135.406 16.840 135.286 16.680 135.286C16.600 135.286 16.560 135.286 16.480 135.326C16.480 135.326 15.680 135.646 15.480 135.686C15.200 135.686 14.920 135.486 14.920 135.166C14.920 134.766 14.920 130.286 14.920 130.286C14.920 130.046 14.680 129.846 14.360 129.846C13.960 129.846 13.720 130.046 13.720 130.286C13.720 130.286 13.720 135.086 13.720 135.486C13.680 135.886 13.560 136.406 13.200 136.646C12.720 136.926 11.360 137.486 10.680 137.646C10.320 137.646 10.200 137.166 10.200 136.846C10.200 136.446 10.200 132.046 10.200 132.046C10.200 131.806 9.920 131.606 9.640 131.606C9.240 131.606 9 131.806 9 132.046C9 132.046 9 134.206 9 135.806L9 137.446C9 138.006 8.760 138.406 8.520 138.526C8.280 138.646 7.480 138.966 7.480 138.966C7.200 139.046 7 139.366 7 139.606L7 142.446C7 142.686 7.120 142.806 7.320 142.806C7.360 142.806 7.440 142.766 7.480 142.766C7.480 142.766 8.080 142.526 8.360 142.366C8.400 142.366 8.440 142.326 8.480 142.326C8.760 142.326 9 142.726 9 143.046L9 147.006C9 147.446 8.800 147.806 8.560 147.926C8.320 148.006 7.480 148.366 7.480 148.366C7.200 148.446 7 148.766 7 149.006L7 151.846C7 152.086 7.120 152.206 7.320 152.206C7.360 152.206 7.440 152.166 7.480 152.166C7.480 152.166 8.040 151.926 8.400 151.806C8.440 151.766 8.480 151.766 8.520 151.766C8.800 151.766 9 152.206 9 152.406C9 152.646 9 157.326 9 157.326C9 157.566 9.240 157.766 9.520 157.766C9.920 157.766 10.200 157.566 10.200 157.326C10.200 157.326 10.200 152.246 10.200 151.766C10.200 151.246 10.400 150.966 10.600 150.886L13.040 149.886C13.080 149.886 13.160 149.846 13.200 149.846C13.520 149.846 13.720 150.326 13.720 150.566C13.720 150.846 13.720 155.566 13.720 155.566C13.720 155.806 13.960 156.006 14.240 156.006C14.680 156.006 14.920 155.806 14.920 155.566C14.920 155.566 14.920 150.166 14.920 149.886C14.920 149.566 15.080 149.086 15.360 148.966C15.640 148.846 16.480 148.526 16.480 148.526C16.760 148.406 16.960 148.086 16.960 147.846L16.960 145.006C16.960 144.806 16.840 144.686 16.680 144.686C16.600 144.686 16.560 144.686 16.480 144.726C16.480 144.726 15.640 145.046 15.440 145.126C15.200 145.126 14.920 144.886 14.920 144.406L14.920 140.686C14.920 140.406 15.120 139.646 15.440 139.526C15.760 139.406 16.480 139.126 16.480 139.126ZM13.720 145.646C13.480 146.446 11.600 147.246 10.680 147.246C10.440 147.246 10.240 147.166 10.200 147.046C10.120 146.886 10.080 146.006 10.080 145.046C10.080 143.806 10.120 142.406 10.200 142.086C10.280 141.406 12.120 140.566 13.120 140.566C13.400 140.566 13.640 140.646 13.720 140.806C13.800 141.006 13.880 142.006 13.880 143.086C13.880 144.166 13.800 145.286 13.720 145.646Z"></path><path d="M27.480 154.126C27.760 154.006 27.960 153.686 27.960 153.446L27.960 150.606C27.960 150.406 27.840 150.286 27.680 150.286C27.600 150.286 27.560 150.286 27.480 150.326C27.480 150.326 26.680 150.646 26.480 150.686C26.200 150.686 25.920 150.486 25.920 150.166C25.920 149.766 25.920 145.286 25.920 145.286C25.920 145.046 25.680 144.846 25.360 144.846C24.960 144.846 24.720 145.046 24.720 145.286C24.720 145.286 24.720 150.086 24.720 150.486C24.680 150.886 24.560 151.406 24.200 151.646C23.720 151.926 22.360 152.486 21.680 152.646C21.320 152.646 21.200 152.166 21.200 151.846C21.200 151.446 21.200 147.046 21.200 147.046C21.200 146.806 20.920 146.606 20.640 146.606C20.240 146.606 20 146.806 20 147.046C20 147.046 20 149.206 20 150.806L20 152.446C20 153.006 19.760 153.406 19.520 153.526C19.280 153.646 18.480 153.966 18.480 153.966C18.200 154.046 18 154.366 18 154.606L18 157.446C18 157.686 18.120 157.806 18.320 157.806C18.360 157.806 18.440 157.766 18.480 157.766C18.480 157.766 19.080 157.526 19.360 157.366C19.400 157.366 19.440 157.326 19.480 157.326C19.760 157.326 20 157.726 20 158.046L20 162.006C20 162.446 19.800 162.806 19.560 162.926C19.320 163.006 18.480 163.366 18.480 163.366C18.200 163.446 18 163.766 18 164.006L18 166.846C18 167.086 18.120 167.206 18.320 167.206C18.360 167.206 18.440 167.166 18.480 167.166C18.480 167.166 19.040 166.926 19.400 166.806C19.440 166.766 19.480 166.766 19.520 166.766C19.800 166.766 20 167.206 20 167.406C20 167.646 20 172.326 20 172.326C20 172.566 20.240 172.766 20.520 172.766C20.920 172.766 21.200 172.566 21.200 172.326C21.200 172.326 21.200 167.246 21.200 166.766C21.200 166.246 21.400 165.966 21.600 165.886L24.040 164.886C24.080 164.886 24.160 164.846 24.200 164.846C24.520 164.846 24.720 165.326 24.720 165.566C24.720 165.846 24.720 170.566 24.720 170.566C24.720 170.806 24.960 171.006 25.240 171.006C25.680 171.006 25.920 170.806 25.920 170.566C25.920 170.566 25.920 165.166 25.920 164.886C25.920 164.566 26.080 164.086 26.360 163.966C26.640 163.846 27.480 163.526 27.480 163.526C27.760 163.406 27.960 163.086 27.960 162.846L27.960 160.006C27.960 159.806 27.840 159.686 27.680 159.686C27.600 159.686 27.560 159.686 27.480 159.726C27.480 159.726 26.640 160.046 26.440 160.126C26.200 160.126 25.920 159.886 25.920 159.406L25.920 155.686C25.920 155.406 26.120 154.646 26.440 154.526C26.760 154.406 27.480 154.126 27.480 154.126ZM24.720 160.646C24.480 161.446 22.600 162.246 21.680 162.246C21.440 162.246 21.240 162.166 21.200 162.046C21.120 161.886 21.080 161.006 21.080 160.046C21.080 158.806 21.120 157.406 21.200 157.086C21.280 156.406 23.120 155.566 24.120 155.566C24.400 155.566 24.640 155.646 24.720 155.806C24.800 156.006 24.880 157.006 24.880 158.086C24.880 159.166 24.800 160.286 24.720 160.646Z"></path></g></g><g><line stroke="black" stroke-width="1.6" x1="255.9056400251769" x2="255.9056400251769" y1="143.3461538461538" y2="284.3461538461538"></line></g><g><g><path d="M14.100 273.806C13.860 270.446 11.380 267.806 8.020 267.806L7.740 267.806C7.660 267.806 7.500 267.806 7.420 267.846C7.140 266.126 7.020 265.726 6.740 264.286C10.260 261.046 11.540 257.726 11.540 253.086C11.540 251.446 11.140 249.766 10.380 248.086C9.380 245.726 8.420 245.566 8.420 245.566C5.940 246.686 4.180 250.646 4.180 255.406C4.180 256.246 4.220 257.126 4.380 258.046L4.700 259.726C0.820 263.006-3.500 266.886-3.500 271.926C-3.500 272.166-3.500 272.446-3.460 272.726C-2.980 279.086 1.980 281.086 6.260 281.086C7.060 281.086 7.620 280.966 8.180 280.966L8.700 283.806C8.820 284.446 8.980 285.926 8.980 286.446C8.980 290.726 5.780 290.766 5.460 290.766L4.940 290.766C4.060 290.766 3.300 290.646 2.740 290.246C2.580 290.126 2.500 290.046 2.500 289.966C2.500 289.846 2.620 289.806 2.740 289.726C2.980 289.686 3.180 289.686 3.420 289.566C4.500 289.246 5.940 288.406 5.940 286.846C5.940 286.846 5.940 286.646 5.940 286.646C5.940 285.526 5.460 284.486 4.380 284.046C3.980 283.846 3.620 283.766 3.220 283.766C1.660 283.766 0.220 285.006 0.020 286.646C-0.020 286.646-0.100 287.046-0.100 287.566C-0.100 289.046 0.580 292.046 4.900 292.046C5.060 292.046 5.300 292.006 5.500 292.006C7.340 291.886 10.300 290.446 10.300 286.326C10.300 284.326 9.740 282.446 9.460 280.606C12.380 279.526 14.100 277.126 14.100 274.206ZM8.620 250.726C9.500 250.726 10.060 251.406 10.060 252.846C10.060 253.006 10.060 253.206 10.020 253.406C9.700 255.566 8.580 256.566 5.780 258.726C5.700 258.086 5.580 257.566 5.580 257.406C5.540 257.126 5.540 256.806 5.540 256.486C5.540 253.766 6.540 250.806 8.620 250.726ZM-1.060 274.046C-1.060 269.686 2.100 267.446 5.540 264.886L6.020 268.046C3.660 268.726 1.820 270.966 1.820 273.326C1.820 273.726 1.860 274.126 1.980 274.486C2.380 276.246 3.540 277.566 4.780 277.966C5.020 278.046 5.220 278.086 5.340 278.086C5.540 278.086 5.660 277.966 5.660 277.846C5.660 277.686 5.460 277.486 5.260 277.366C4.740 277.166 3.820 276.126 3.780 275.046L3.780 274.806C3.780 272.966 5.220 272.326 6.620 272.046L7.980 279.566C7.580 279.726 7.020 279.806 6.260 279.806C3.420 279.806-0.900 278.846-1.060 274.286ZM9.260 279.286C8.860 276.926 8.700 274.886 8.140 271.926C10.340 271.926 11.820 273.206 11.940 275.406L11.940 275.686C11.940 277.526 11.140 278.486 9.260 279.286Z"></path></g><g><path d="M33.180 239.126C33.460 239.006 33.660 238.686 33.660 238.446L33.660 235.606C33.660 235.406 33.540 235.286 33.380 235.286C33.300 235.286 33.260 235.286 33.180 235.326C33.180 235.326 32.380 235.646 32.180 235.686C31.900 235.686 31.620 235.486 31.620 235.166C31.620 234.766 31.620 230.286 31.620 230.286C31.620 230.046 31.380 229.846 31.060 229.846C30.660 229.846 30.420 230.046 30.420 230.286C30.420 230.286 30.420 235.086 30.420 235.486C30.380 235.886 30.260 236.406 29.900 236.646C29.420 236.926 28.060 237.486 27.380 237.646C27.020 237.646 26.900 237.166 26.900 236.846C26.900 236.446 26.900 232.046 26.900 232.046C26.900 231.806 26.620 231.606 26.340 231.606C25.940 231.606 25.700 231.806 25.700 232.046C25.700 232.046 25.700 234.206 25.700 235.806L25.700 237.446C25.700 238.006 25.460 238.406 25.220 238.526C24.980 238.646 24.180 238.966 24.180 238.966C23.900 239.046 23.700 239.366 23.700 239.606L23.700 242.446C23.700 242.686 23.820 242.806 24.020 242.806C24.060 242.806 24.140 242.766 24.180 242.766C24.180 242.766 24.780 242.526 25.060 242.366C25.100 242.366 25.140 242.326 25.180 242.326C25.460 242.326 25.700 242.726 25.700 243.046L25.700 247.006C25.700 247.446 25.500 247.806 25.260 247.926C25.020 248.006 24.180 248.366 24.180 248.366C23.900 248.446 23.700 248.766 23.700 249.006L23.700 251.846C23.700 252.086 23.820 252.206 24.020 252.206C24.060 252.206 24.140 252.166 24.180 252.166C24.180 252.166 24.740 251.926 25.100 251.806C25.140 251.766 25.180 251.766 25.220 251.766C25.500 251.766 25.700 252.206 25.700 252.406C25.700 252.646 25.700 257.326 25.700 257.326C25.700 257.566 25.940 257.766 26.220 257.766C26.620 257.766 26.900 257.566 26.900 257.326C26.900 257.326 26.900 252.246 26.900 251.766C26.900 251.246 27.100 250.966 27.300 250.886L29.740 249.886C29.780 249.886 29.860 249.846 29.900 249.846C30.220 249.846 30.420 250.326 30.420 250.566C30.420 250.846 30.420 255.566 30.420 255.566C30.420 255.806 30.660 256.006 30.940 256.006C31.380 256.006 31.620 255.806 31.620 255.566C31.620 255.566 31.620 250.166 31.620 249.886C31.620 249.566 31.780 249.086 32.060 248.966C32.340 248.846 33.180 248.526 33.180 248.526C33.460 248.406 33.660 248.086 33.660 247.846L33.660 245.006C33.660 244.806 33.540 244.686 33.380 244.686C33.300 244.686 33.260 244.686 33.180 244.726C33.180 244.726 32.340 245.046 32.140 245.126C31.900 245.126 31.620 244.886 31.620 244.406L31.620 240.686C31.620 240.406 31.820 239.646 32.140 239.526C32.460 239.406 33.180 239.126 33.180 239.126ZM30.420 245.646C30.180 246.446 28.300 247.246 27.380 247.246C27.140 247.246 26.940 247.166 26.900 247.046C26.820 246.886 26.780 246.006 26.780 245.046C26.780 243.806 26.820 242.406 26.900 242.086C26.980 241.406 28.820 240.566 29.820 240.566C30.100 240.566 30.340 240.646 30.420 240.806C30.500 241.006 30.580 242.006 30.580 243.086C30.580 244.166 30.500 245.286 30.420 245.646Z"></path><path d="M44.180 254.126C44.460 254.006 44.660 253.686 44.660 253.446L44.660 250.606C44.660 250.406 44.540 250.286 44.380 250.286C44.300 250.286 44.260 250.286 44.180 250.326C44.180 250.326 43.380 250.646 43.180 250.686C42.900 250.686 42.620 250.486 42.620 250.166C42.620 249.766 42.620 245.286 42.620 245.286C42.620 245.046 42.380 244.846 42.060 244.846C41.660 244.846 41.420 245.046 41.420 245.286C41.420 245.286 41.420 250.086 41.420 250.486C41.380 250.886 41.260 251.406 40.900 251.646C40.420 251.926 39.060 252.486 38.380 252.646C38.020 252.646 37.900 252.166 37.900 251.846C37.900 251.446 37.900 247.046 37.900 247.046C37.900 246.806 37.620 246.606 37.340 246.606C36.940 246.606 36.700 246.806 36.700 247.046C36.700 247.046 36.700 249.206 36.700 250.806L36.700 252.446C36.700 253.006 36.460 253.406 36.220 253.526C35.980 253.646 35.180 253.966 35.180 253.966C34.900 254.046 34.700 254.366 34.700 254.606L34.700 257.446C34.700 257.686 34.820 257.806 35.020 257.806C35.060 257.806 35.140 257.766 35.180 257.766C35.180 257.766 35.780 257.526 36.060 257.366C36.100 257.366 36.140 257.326 36.180 257.326C36.460 257.326 36.700 257.726 36.700 258.046L36.700 262.006C36.700 262.446 36.500 262.806 36.260 262.926C36.020 263.006 35.180 263.366 35.180 263.366C34.900 263.446 34.700 263.766 34.700 264.006L34.700 266.846C34.700 267.086 34.820 267.206 35.020 267.206C35.060 267.206 35.140 267.166 35.180 267.166C35.180 267.166 35.740 266.926 36.100 266.806C36.140 266.766 36.180 266.766 36.220 266.766C36.500 266.766 36.700 267.206 36.700 267.406C36.700 267.646 36.700 272.326 36.700 272.326C36.700 272.566 36.940 272.766 37.220 272.766C37.620 272.766 37.900 272.566 37.900 272.326C37.900 272.326 37.900 267.246 37.900 266.766C37.900 266.246 38.100 265.966 38.300 265.886L40.740 264.886C40.780 264.886 40.860 264.846 40.900 264.846C41.220 264.846 41.420 265.326 41.420 265.566C41.420 265.846 41.420 270.566 41.420 270.566C41.420 270.806 41.660 271.006 41.940 271.006C42.380 271.006 42.620 270.806 42.620 270.566C42.620 270.566 42.620 265.166 42.620 264.886C42.620 264.566 42.780 264.086 43.060 263.966C43.340 263.846 44.180 263.526 44.180 263.526C44.460 263.406 44.660 263.086 44.660 262.846L44.660 260.006C44.660 259.806 44.540 259.686 44.380 259.686C44.300 259.686 44.260 259.686 44.180 259.726C44.180 259.726 43.340 260.046 43.140 260.126C42.900 260.126 42.620 259.886 42.620 259.406L42.620 255.686C42.620 255.406 42.820 254.646 43.140 254.526C43.460 254.406 44.180 254.126 44.180 254.126ZM41.420 260.646C41.180 261.446 39.300 262.246 38.380 262.246C38.140 262.246 37.940 262.166 37.900 262.046C37.820 261.886 37.780 261.006 37.780 260.046C37.780 258.806 37.820 257.406 37.900 257.086C37.980 256.406 39.820 255.566 40.820 255.566C41.100 255.566 41.340 255.646 41.420 255.806C41.500 256.006 41.580 257.006 41.580 258.086C41.580 259.166 41.500 260.286 41.420 260.646Z"></path></g></g><g><line stroke="black" stroke-width="1.6" x1="255.9056400251769" x2="255.9056400251769" y1="143.3461538461538" y2="284.3461538461538"></line></g><g><g><path d="M70.820 174.486C74.820 174.486 79.740 170.766 79.740 166.966C79.740 164.686 77.940 163.206 75.340 163.206C70.420 163.206 66.460 166.846 66.460 170.726C66.460 173.086 68.380 174.486 70.820 174.486Z"></path></g><line stroke="#000000" stroke-width="1.2" x1="79.14000000000001" x2="79.14000000000001" y1="167.0061538461538" y2="129.0061538461538"></line></g><g><g><path d="M117.981 169.486C121.981 169.486 126.901 165.766 126.901 161.966C126.901 159.686 125.101 158.206 122.501 158.206C117.581 158.206 113.621 161.846 113.621 165.726C113.621 168.086 115.541 169.486 117.981 169.486Z"></path></g><line stroke="#000000" stroke-width="1.2" x1="126.30141000629423" x2="126.30141000629423" y1="162.0061538461538" y2="127.00615384615381"></line></g><g><g><path d="M165.143 164.486C169.143 164.486 174.063 160.766 174.063 156.966C174.063 154.686 172.263 153.206 169.663 153.206C164.743 153.206 160.783 156.846 160.783 160.726C160.783 163.086 162.703 164.486 165.143 164.486Z"></path><path d="M158.263 154.126C158.543 154.006 158.743 153.686 158.743 153.446L158.743 150.606C158.743 150.406 158.623 150.286 158.463 150.286C158.383 150.286 158.343 150.286 158.263 150.326C158.263 150.326 157.463 150.646 157.263 150.686C156.983 150.686 156.703 150.486 156.703 150.166C156.703 149.766 156.703 145.286 156.703 145.286C156.703 145.046 156.463 144.846 156.143 144.846C155.743 144.846 155.503 145.046 155.503 145.286C155.503 145.286 155.503 150.086 155.503 150.486C155.463 150.886 155.343 151.406 154.983 151.646C154.503 151.926 153.143 152.486 152.463 152.646C152.103 152.646 151.983 152.166 151.983 151.846C151.983 151.446 151.983 147.046 151.983 147.046C151.983 146.806 151.703 146.606 151.423 146.606C151.023 146.606 150.783 146.806 150.783 147.046C150.783 147.046 150.783 149.206 150.783 150.806L150.783 152.446C150.783 153.006 150.543 153.406 150.303 153.526C150.063 153.646 149.263 153.966 149.263 153.966C148.983 154.046 148.783 154.366 148.783 154.606L148.783 157.446C148.783 157.686 148.903 157.806 149.103 157.806C149.143 157.806 149.223 157.766 149.263 157.766C149.263 157.766 149.863 157.526 150.143 157.366C150.183 157.366 150.223 157.326 150.263 157.326C150.543 157.326 150.783 157.726 150.783 158.046L150.783 162.006C150.783 162.446 150.583 162.806 150.343 162.926C150.103 163.006 149.263 163.366 149.263 163.366C148.983 163.446 148.783 163.766 148.783 164.006L148.783 166.846C148.783 167.086 148.903 167.206 149.103 167.206C149.143 167.206 149.223 167.166 149.263 167.166C149.263 167.166 149.823 166.926 150.183 166.806C150.223 166.766 150.263 166.766 150.303 166.766C150.583 166.766 150.783 167.206 150.783 167.406C150.783 167.646 150.783 172.326 150.783 172.326C150.783 172.566 151.023 172.766 151.303 172.766C151.703 172.766 151.983 172.566 151.983 172.326C151.983 172.326 151.983 167.246 151.983 166.766C151.983 166.246 152.183 165.966 152.383 165.886L154.823 164.886C154.863 164.886 154.943 164.846 154.983 164.846C155.303 164.846 155.503 165.326 155.503 165.566C155.503 165.846 155.503 170.566 155.503 170.566C155.503 170.806 155.743 171.006 156.023 171.006C156.463 171.006 156.703 170.806 156.703 170.566C156.703 170.566 156.703 165.166 156.703 164.886C156.703 164.566 156.863 164.086 157.143 163.966C157.423 163.846 158.263 163.526 158.263 163.526C158.543 163.406 158.743 163.086 158.743 162.846L158.743 160.006C158.743 159.806 158.623 159.686 158.463 159.686C158.383 159.686 158.343 159.686 158.263 159.726C158.263 159.726 157.423 160.046 157.223 160.126C156.983 160.126 156.703 159.886 156.703 159.406L156.703 155.686C156.703 155.406 156.903 154.646 157.223 154.526C157.543 154.406 158.263 154.126 158.263 154.126ZM155.503 160.646C155.263 161.446 153.383 162.246 152.463 162.246C152.223 162.246 152.023 162.166 151.983 162.046C151.903 161.886 151.863 161.006 151.863 160.046C151.863 158.806 151.903 157.406 151.983 157.086C152.063 156.406 153.903 155.566 154.903 155.566C155.183 155.566 155.423 155.646 155.503 155.806C155.583 156.006 155.663 157.006 155.663 158.086C155.663 159.166 155.583 160.286 155.503 160.646Z"></path></g><line stroke="#000000" stroke-width="1.2" x1="161.38282001258844" x2="161.38282001258844" y1="160.68615384615381" y2="198.68615384615381"></line></g><g><g><path d="M212.304 159.486C216.304 159.486 221.224 155.766 221.224 151.966C221.224 149.686 219.424 148.206 216.824 148.206C211.904 148.206 207.944 151.846 207.944 155.726C207.944 158.086 209.864 159.486 212.304 159.486Z"></path></g><line stroke="#000000" stroke-width="1.2" x1="208.54423001888264" x2="208.54423001888264" y1="155.68615384615381" y2="190.68615384615381"></line></g><g><g><path d="M70.820 284.486C74.820 284.486 79.740 280.766 79.740 276.966C79.740 274.686 77.940 273.206 75.340 273.206C70.420 273.206 66.460 276.846 66.460 280.726C66.460 283.086 68.380 284.486 70.820 284.486Z"></path><path d="M63.940 274.126C64.220 274.006 64.420 273.686 64.420 273.446L64.420 270.606C64.420 270.406 64.300 270.286 64.140 270.286C64.060 270.286 64.020 270.286 63.940 270.326C63.940 270.326 63.140 270.646 62.940 270.686C62.660 270.686 62.380 270.486 62.380 270.166C62.380 269.766 62.380 265.286 62.380 265.286C62.380 265.046 62.140 264.846 61.820 264.846C61.420 264.846 61.180 265.046 61.180 265.286C61.180 265.286 61.180 270.086 61.180 270.486C61.140 270.886 61.020 271.406 60.660 271.646C60.180 271.926 58.820 272.486 58.140 272.646C57.780 272.646 57.660 272.166 57.660 271.846C57.660 271.446 57.660 267.046 57.660 267.046C57.660 266.806 57.380 266.606 57.100 266.606C56.700 266.606 56.460 266.806 56.460 267.046C56.460 267.046 56.460 269.206 56.460 270.806L56.460 272.446C56.460 273.006 56.220 273.406 55.980 273.526C55.740 273.646 54.940 273.966 54.940 273.966C54.660 274.046 54.460 274.366 54.460 274.606L54.460 277.446C54.460 277.686 54.580 277.806 54.780 277.806C54.820 277.806 54.900 277.766 54.940 277.766C54.940 277.766 55.540 277.526 55.820 277.366C55.860 277.366 55.900 277.326 55.940 277.326C56.220 277.326 56.460 277.726 56.460 278.046L56.460 282.006C56.460 282.446 56.260 282.806 56.020 282.926C55.780 283.006 54.940 283.366 54.940 283.366C54.660 283.446 54.460 283.766 54.460 284.006L54.460 286.846C54.460 287.086 54.580 287.206 54.780 287.206C54.820 287.206 54.900 287.166 54.940 287.166C54.940 287.166 55.500 286.926 55.860 286.806C55.900 286.766 55.940 286.766 55.980 286.766C56.260 286.766 56.460 287.206 56.460 287.406C56.460 287.646 56.460 292.326 56.460 292.326C56.460 292.566 56.700 292.766 56.980 292.766C57.380 292.766 57.660 292.566 57.660 292.326C57.660 292.326 57.660 287.246 57.660 286.766C57.660 286.246 57.860 285.966 58.060 285.886L60.500 284.886C60.540 284.886 60.620 284.846 60.660 284.846C60.980 284.846 61.180 285.326 61.180 285.566C61.180 285.846 61.180 290.566 61.180 290.566C61.180 290.806 61.420 291.006 61.700 291.006C62.140 291.006 62.380 290.806 62.380 290.566C62.380 290.566 62.380 285.166 62.380 284.886C62.380 284.566 62.540 284.086 62.820 283.966C63.100 283.846 63.940 283.526 63.940 283.526C64.220 283.406 64.420 283.086 64.420 282.846L64.420 280.006C64.420 279.806 64.300 279.686 64.140 279.686C64.060 279.686 64.020 279.686 63.940 279.726C63.940 279.726 63.100 280.046 62.900 280.126C62.660 280.126 62.380 279.886 62.380 279.406L62.380 275.686C62.380 275.406 62.580 274.646 62.900 274.526C63.220 274.406 63.940 274.126 63.940 274.126ZM61.180 280.646C60.940 281.446 59.060 282.246 58.140 282.246C57.900 282.246 57.700 282.166 57.660 282.046C57.580 281.886 57.540 281.006 57.540 280.046C57.540 278.806 57.580 277.406 57.660 277.086C57.740 276.406 59.580 275.566 60.580 275.566C60.860 275.566 61.100 275.646 61.180 275.806C61.260 276.006 61.340 277.006 61.340 278.086C61.340 279.166 61.260 280.286 61.180 280.646Z"></path></g><line stroke="#000000" stroke-width="1.2" x1="79.14000000000001" x2="79.14000000000001" y1="277.00615384615384" y2="239.00615384615384"></line></g><g><g><path d="M117.981 279.486C121.981 279.486 126.901 275.766 126.901 271.966C126.901 269.686 125.101 268.206 122.501 268.206C117.581 268.206 113.621 271.846 113.621 275.726C113.621 278.086 115.541 279.486 117.981 279.486Z"></path></g><line stroke="#000000" stroke-width="1.2" x1="126.30141000629423" x2="126.30141000629423" y1="272.00615384615384" y2="237.00615384615384"></line></g><g><g><path d="M165.143 274.486C169.143 274.486 174.063 270.766 174.063 266.966C174.063 264.686 172.263 263.206 169.663 263.206C164.743 263.206 160.783 266.846 160.783 270.726C160.783 273.086 162.703 274.486 165.143 274.486Z"></path></g><line stroke="#000000" stroke-width="1.2" x1="173.46282001258845" x2="173.46282001258845" y1="267.00615384615384" y2="229.00615384615384"></line></g><g><g><path d="M212.304 269.486C216.304 269.486 221.224 265.766 221.224 261.966C221.224 259.686 219.424 258.206 216.824 258.206C211.904 258.206 207.944 261.846 207.944 265.726C207.944 268.086 209.864 269.486 212.304 269.486Z"></path></g><line stroke="#000000" stroke-width="1.2" x1="220.62423001888266" x2="220.62423001888266" y1="262.00615384615384" y2="227.00615384615384"></line></g></g><g transform="translate(659.7974338965076)"><g><g><path d="M16.740 181.006C16.740 177.926 14.740 174.846 10.900 174.846C9.620 174.846 9.180 175.686 8.820 175.686C8.420 175.686 8.020 175.086 7.780 174.686C7.660 174.366 7.460 174.126 7.460 173.846C7.460 173.606 7.580 173.486 7.740 173.126C7.780 173.046 7.860 173.046 7.860 172.966C8.100 172.606 8.500 172.046 8.820 172.046C9.180 172.046 9.620 172.806 10.900 172.806C14.740 172.806 16.740 169.766 16.740 166.726C16.740 163.686 14.180 160.566 10.380 160.566C6.540 160.566 5.380 163.086 5.380 164.166C5.380 165.286 6.260 166.486 7.420 166.486C8.540 166.486 9.620 165.526 9.620 164.486C9.620 163.566 8.420 162.926 8.180 162.726C8.100 162.646 7.700 162.566 7.700 162.406C7.700 162.366 7.700 162.326 7.780 162.286C8.300 161.766 8.900 161.606 9.500 161.606C11.780 161.606 12.300 163.566 12.300 165.206L12.300 168.366C12.300 170.406 12.220 171.126 10.460 171.126C8.740 171.126 8.060 170.406 7.660 169.086C7.460 168.526 7.260 168.326 7.060 168.326C6.780 168.326 6.540 168.726 6.460 169.086C5.780 172.246 4.740 172.406 3.980 172.486L3.980 161.166C3.980 160.806 3.380 160.566 3.060 160.566C2.740 160.566 2.500 160.806 2.500 161.166L2.500 186.566C2.500 186.886 2.740 187.126 3.060 187.126C3.380 187.126 3.980 186.886 3.980 186.566L3.980 175.206C4.740 175.286 5.780 175.446 6.460 178.606C6.540 178.966 6.780 179.366 7.060 179.366C7.260 179.366 7.460 179.166 7.660 178.606C8.060 177.286 8.740 176.526 10.460 176.526C12.220 176.526 12.300 177.286 12.300 179.366L12.300 182.486C12.300 184.166 11.780 186.046 9.500 186.046C8.420 186.046 8.060 185.686 7.820 185.446C7.740 185.366 7.700 185.326 7.700 185.286C7.700 185.126 8.020 185.046 8.100 184.966C8.380 184.686 9.620 184.246 9.620 183.166C9.620 182.126 8.540 181.166 7.420 181.166C6.260 181.166 5.380 182.406 5.380 183.486C5.380 184.566 6.540 187.126 10.380 187.126C14.180 187.126 16.740 184.006 16.740 181.006ZM0.580 161.166C0.580 160.846 0.340 160.566-0.020 160.566L-2.900 160.566C-3.220 160.566-3.500 160.846-3.500 161.166L-3.500 186.526C-3.500 186.846-3.220 187.126-2.900 187.126L-0.020 187.126C0.340 187.126 0.580 186.846 0.580 186.526Z"></path></g></g><g><line stroke="black" stroke-width="1.6" x1="221.9056400251769" x2="221.9056400251769" y1="143.3461538461538" y2="284.3461538461538"></line></g><g></g><g><line stroke="black" stroke-width="1.6" x1="221.9056400251769" x2="221.9056400251769" y1="143.3461538461538" y2="284.3461538461538"></line></g><g><g><path d="M28.060 139.486C32.060 139.486 36.980 135.766 36.980 131.966C36.980 129.686 35.180 128.206 32.580 128.206C27.660 128.206 23.700 131.846 23.700 135.726C23.700 138.086 25.620 139.486 28.060 139.486Z"></path></g><line stroke="#000000" stroke-width="1.2" x1="24.3" x2="24.3" y1="135.68615384615381" y2="170.68615384615381"></line><line stroke="#000000" stroke-width="2.2" x1="20.5" x2="42.419999999999995" y1="133.8461538461538" y2="133.8461538461538"></line></g><g><g><path d="M83.981 144.486C87.981 144.486 92.901 140.766 92.901 136.966C92.901 134.686 91.101 133.206 88.501 133.206C83.581 133.206 79.621 136.846 79.621 140.726C79.621 143.086 81.541 144.486 83.981 144.486Z"></path><path d="M77.101 134.126C77.381 134.006 77.581 133.686 77.581 133.446L77.581 130.606C77.581 130.406 77.461 130.286 77.301 130.286C77.221 130.286 77.181 130.286 77.101 130.326C77.101 130.326 76.301 130.646 76.101 130.686C75.821 130.686 75.541 130.486 75.541 130.166C75.541 129.766 75.541 125.286 75.541 125.286C75.541 125.046 75.301 124.846 74.981 124.846C74.581 124.846 74.341 125.046 74.341 125.286C74.341 125.286 74.341 130.086 74.341 130.486C74.301 130.886 74.181 131.406 73.821 131.646C73.341 131.926 71.981 132.486 71.301 132.646C70.941 132.646 70.821 132.166 70.821 131.846C70.821 131.446 70.821 127.046 70.821 127.046C70.821 126.806 70.541 126.606 70.261 126.606C69.861 126.606 69.621 126.806 69.621 127.046C69.621 127.046 69.621 129.206 69.621 130.806L69.621 132.446C69.621 133.006 69.381 133.406 69.141 133.526C68.901 133.646 68.101 133.966 68.101 133.966C67.821 134.046 67.621 134.366 67.621 134.606L67.621 137.446C67.621 137.686 67.741 137.806 67.941 137.806C67.981 137.806 68.061 137.766 68.101 137.766C68.101 137.766 68.701 137.526 68.981 137.366C69.021 137.366 69.061 137.326 69.101 137.326C69.381 137.326 69.621 137.726 69.621 138.046L69.621 142.006C69.621 142.446 69.421 142.806 69.181 142.926C68.941 143.006 68.101 143.366 68.101 143.366C67.821 143.446 67.621 143.766 67.621 144.006L67.621 146.846C67.621 147.086 67.741 147.206 67.941 147.206C67.981 147.206 68.061 147.166 68.101 147.166C68.101 147.166 68.661 146.926 69.021 146.806C69.061 146.766 69.101 146.766 69.141 146.766C69.421 146.766 69.621 147.206 69.621 147.406C69.621 147.646 69.621 152.326 69.621 152.326C69.621 152.566 69.861 152.766 70.141 152.766C70.541 152.766 70.821 152.566 70.821 152.326C70.821 152.326 70.821 147.246 70.821 146.766C70.821 146.246 71.021 145.966 71.221 145.886L73.661 144.886C73.701 144.886 73.781 144.846 73.821 144.846C74.141 144.846 74.341 145.326 74.341 145.566C74.341 145.846 74.341 150.566 74.341 150.566C74.341 150.806 74.581 151.006 74.861 151.006C75.301 151.006 75.541 150.806 75.541 150.566C75.541 150.566 75.541 145.166 75.541 144.886C75.541 144.566 75.701 144.086 75.981 143.966C76.261 143.846 77.101 143.526 77.101 143.526C77.381 143.406 77.581 143.086 77.581 142.846L77.581 140.006C77.581 139.806 77.461 139.686 77.301 139.686C77.221 139.686 77.181 139.686 77.101 139.726C77.101 139.726 76.261 140.046 76.061 140.126C75.821 140.126 75.541 139.886 75.541 139.406L75.541 135.686C75.541 135.406 75.741 134.646 76.061 134.526C76.381 134.406 77.101 134.126 77.101 134.126ZM74.341 140.646C74.101 141.446 72.221 142.246 71.301 142.246C71.061 142.246 70.861 142.166 70.821 142.046C70.741 141.886 70.701 141.006 70.701 140.046C70.701 138.806 70.741 137.406 70.821 137.086C70.901 136.406 72.741 135.566 73.741 135.566C74.021 135.566 74.261 135.646 74.341 135.806C74.421 136.006 74.501 137.006 74.501 138.086C74.501 139.166 74.421 140.286 74.341 140.646Z"></path></g><line stroke="#000000" stroke-width="1.2" x1="80.2214100062942" x2="80.2214100062942" y1="140.68615384615381" y2="178.68615384615381"></line></g><g><g><path d="M131.143 149.486C135.143 149.486 140.063 145.766 140.063 141.966C140.063 139.686 138.263 138.206 135.663 138.206C130.743 138.206 126.783 141.846 126.783 145.726C126.783 148.086 128.703 149.486 131.143 149.486Z"></path></g><line stroke="#000000" stroke-width="1.2" x1="127.38282001258844" x2="127.38282001258844" y1="145.68615384615381" y2="180.68615384615381"></line></g><g><g><path d="M178.304 154.486C182.304 154.486 187.224 150.766 187.224 146.966C187.224 144.686 185.424 143.206 182.824 143.206C177.904 143.206 173.944 146.846 173.944 150.726C173.944 153.086 175.864 154.486 178.304 154.486Z"></path></g><line stroke="#000000" stroke-width="1.2" x1="174.54423001888264" x2="174.54423001888264" y1="150.68615384615381" y2="188.68615384615381"></line></g><g><g><path d="M28.060 274.486C32.060 274.486 36.980 270.766 36.980 266.966C36.980 264.686 35.180 263.206 32.580 263.206C27.660 263.206 23.700 266.846 23.700 270.726C23.700 273.086 25.620 274.486 28.060 274.486Z"></path></g><line stroke="#000000" stroke-width="1.2" x1="36.38" x2="36.38" y1="267.00615384615384" y2="229.00615384615384"></line></g><g><g><path d="M83.981 269.486C87.981 269.486 92.901 265.766 92.901 261.966C92.901 259.686 91.101 258.206 88.501 258.206C83.581 258.206 79.621 261.846 79.621 265.726C79.621 268.086 81.541 269.486 83.981 269.486Z"></path></g><line stroke="#000000" stroke-width="1.2" x1="92.30141000629422" x2="92.30141000629422" y1="262.00615384615384" y2="227.00615384615384"></line></g><g><g><path d="M131.143 264.486C135.143 264.486 140.063 260.766 140.063 256.966C140.063 254.686 138.263 253.206 135.663 253.206C130.743 253.206 126.783 256.846 126.783 260.726C126.783 263.086 128.703 264.486 131.143 264.486Z"></path><path d="M124.263 254.126C124.543 254.006 124.743 253.686 124.743 253.446L124.743 250.606C124.743 250.406 124.623 250.286 124.463 250.286C124.383 250.286 124.343 250.286 124.263 250.326C124.263 250.326 123.463 250.646 123.263 250.686C122.983 250.686 122.703 250.486 122.703 250.166C122.703 249.766 122.703 245.286 122.703 245.286C122.703 245.046 122.463 244.846 122.143 244.846C121.743 244.846 121.503 245.046 121.503 245.286C121.503 245.286 121.503 250.086 121.503 250.486C121.463 250.886 121.343 251.406 120.983 251.646C120.503 251.926 119.143 252.486 118.463 252.646C118.103 252.646 117.983 252.166 117.983 251.846C117.983 251.446 117.983 247.046 117.983 247.046C117.983 246.806 117.703 246.606 117.423 246.606C117.023 246.606 116.783 246.806 116.783 247.046C116.783 247.046 116.783 249.206 116.783 250.806L116.783 252.446C116.783 253.006 116.543 253.406 116.303 253.526C116.063 253.646 115.263 253.966 115.263 253.966C114.983 254.046 114.783 254.366 114.783 254.606L114.783 257.446C114.783 257.686 114.903 257.806 115.103 257.806C115.143 257.806 115.223 257.766 115.263 257.766C115.263 257.766 115.863 257.526 116.143 257.366C116.183 257.366 116.223 257.326 116.263 257.326C116.543 257.326 116.783 257.726 116.783 258.046L116.783 262.006C116.783 262.446 116.583 262.806 116.343 262.926C116.103 263.006 115.263 263.366 115.263 263.366C114.983 263.446 114.783 263.766 114.783 264.006L114.783 266.846C114.783 267.086 114.903 267.206 115.103 267.206C115.143 267.206 115.223 267.166 115.263 267.166C115.263 267.166 115.823 266.926 116.183 266.806C116.223 266.766 116.263 266.766 116.303 266.766C116.583 266.766 116.783 267.206 116.783 267.406C116.783 267.646 116.783 272.326 116.783 272.326C116.783 272.566 117.023 272.766 117.303 272.766C117.703 272.766 117.983 272.566 117.983 272.326C117.983 272.326 117.983 267.246 117.983 266.766C117.983 266.246 118.183 265.966 118.383 265.886L120.823 264.886C120.863 264.886 120.943 264.846 120.983 264.846C121.303 264.846 121.503 265.326 121.503 265.566C121.503 265.846 121.503 270.566 121.503 270.566C121.503 270.806 121.743 271.006 122.023 271.006C122.463 271.006 122.703 270.806 122.703 270.566C122.703 270.566 122.703 265.166 122.703 264.886C122.703 264.566 122.863 264.086 123.143 263.966C123.423 263.846 124.263 263.526 124.263 263.526C124.543 263.406 124.743 263.086 124.743 262.846L124.743 260.006C124.743 259.806 124.623 259.686 124.463 259.686C124.383 259.686 124.343 259.686 124.263 259.726C124.263 259.726 123.423 260.046 123.223 260.126C122.983 260.126 122.703 259.886 122.703 259.406L122.703 255.686C122.703 255.406 122.903 254.646 123.223 254.526C123.543 254.406 124.263 254.126 124.263 254.126ZM121.503 260.646C121.263 261.446 119.383 262.246 118.463 262.246C118.223 262.246 118.023 262.166 117.983 262.046C117.903 261.886 117.863 261.006 117.863 260.046C117.863 258.806 117.903 257.406 117.983 257.086C118.063 256.406 119.903 255.566 120.903 255.566C121.183 255.566 121.423 255.646 121.503 255.806C121.583 256.006 121.663 257.006 121.663 258.086C121.663 259.166 121.583 260.286 121.503 260.646Z"></path></g><line stroke="#000000" stroke-width="1.2" x1="127.38282001258844" x2="127.38282001258844" y1="260.6861538461538" y2="298.6861538461538"></line></g><g><g><path d="M178.304 259.486C182.304 259.486 187.224 255.766 187.224 251.966C187.224 249.686 185.424 248.206 182.824 248.206C177.904 248.206 173.944 251.846 173.944 255.726C173.944 258.086 175.864 259.486 178.304 259.486Z"></path></g><line stroke="#000000" stroke-width="1.2" x1="174.54423001888264" x2="174.54423001888264" y1="255.68615384615381" y2="290.68615384615384"></line></g></g><g transform="translate(897.5030739216845)"><g></g><g><line stroke="#000000" stroke-width="1.6" x1="110.56841803824331" x2="110.56841803824331" y1="143.3461538461538" y2="284.3461538461538"></line><line stroke="#000000" stroke-width="5" x1="117.8684180382433" x2="117.8684180382433" y1="143.3461538461538" y2="284.3461538461538"></line></g><g></g><g><line stroke="black" stroke-width="1.6" x1="110.56841803824331" x2="110.56841803824331" y1="143.3461538461538" y2="284.3461538461538"></line><line stroke="black" stroke-width="5" x1="117.8684180382433" x2="117.8684180382433" y1="143.3461538461538" y2="284.3461538461538"></line></g><g><path d="M52.224 158.206L52.224 154.526C52.224 153.926 51.744 153.486 51.184 153.486L41.984 153.486C41.384 153.486 40.944 153.926 40.944 154.526L40.944 158.206C40.944 158.766 41.384 159.246 41.984 159.246L51.184 159.246C51.744 159.246 52.224 158.766 52.224 158.206Z"></path></g><g><path d="M52.224 258.206L52.224 254.526C52.224 253.926 51.744 253.486 51.184 253.486L41.984 253.486C41.384 253.486 40.944 253.926 40.944 254.526L40.944 258.206C40.944 258.766 41.384 259.246 41.984 259.246L51.184 259.246C51.744 259.246 52.224 258.766 52.224 258.206Z"></path></g></g></svg>