<?xml version="1.0" encoding="UTF-8" standalone="no"?><svg xmlns="http://www.w3.org/2000/svg" height="279.4mm" viewBox="0 0 1328.6153846153845 1719.3846153846152" width="215.9mm"><text x="664.3076923076923" y="61.53846153846143"><tspan alignment-baseline="hanging" fill="black" direction="inherit" dx="0" dy="0" font-style="normal" font-weight="normal" font-family="Alegreya" font-size="29.30769230769231" letter-spacing="normal" text-decoration="none" text-anchor="middle">Rest unit test</tspan></text><g transform="translate(163.84615384615387)"><g><g><line stroke="#6A6A6A" stroke-width="1.3" x1="0" x2="261.80117556339934" y1="216.3461538461538" y2="216.3461538461538"></line><line stroke="#6A6A6A" stroke-width="1.3" x1="0" x2="261.80117556339934" y1="206.3461538461538" y2="206.3461538461538"></line><line stroke="#6A6A6A" stroke-width="1.3" x1="0" x2="261.80117556339934" y1="196.3461538461538" y2="196.3461538461538"></line><line stroke="#6A6A6A" stroke-width="1.3" x1="0" x2="261.80117556339934" y1="186.3461538461538" y2="186.3461538461538"></line><line stroke="#6A6A6A" stroke-width="1.3" x1="0" x2="261.80117556339934" y1="176.3461538461538" y2="176.3461538461538"></line></g><g><path d="M25.200 162.426C24.640 162.426 23.400 163.466 22.600 164.346C19.640 167.626 18.680 172.626 18.680 176.786C18.680 179.106 18.960 181.706 19.240 183.346C19.320 183.826 19.360 183.906 18.880 184.306C16.320 186.426 13.560 188.866 11.480 191.426C8.720 194.866 7 198.586 7 202.866C7 209.826 11.760 216.426 21.560 216.426C22.480 216.426 23.520 216.346 24.320 216.186C24.760 216.106 24.840 216.066 24.920 216.546C25.400 219.226 26 222.706 26 224.586C26 230.506 22 231.226 19.640 231.226C17.480 231.226 16.440 230.586 16.440 230.066C16.440 229.626 16.800 229.666 17.720 229.386C18.960 229.026 20.400 227.946 20.400 225.626C20.400 223.426 19 221.546 16.560 221.546C13.880 221.546 12.280 223.666 12.280 226.146C12.280 228.746 13.840 232.666 19.880 232.666C22.560 232.666 27.760 231.466 27.760 224.666C27.760 222.386 27.040 218.586 26.600 216.106C26.520 215.626 26.560 215.666 27.120 215.426C31.160 213.826 33.840 210.426 33.840 205.906C33.840 200.786 30.080 196.266 24.200 196.266C23.080 196.266 23.200 196.466 23.040 195.546L22.040 189.746C21.960 189.266 22.040 189.226 22.280 188.986C22.920 188.386 23.760 187.546 24.520 186.706C27.880 183.026 29.880 178.266 29.880 173.746C29.880 170.266 28.920 166.826 27.280 164.426C26.680 163.546 25.640 162.426 25.200 162.426ZM20.040 190.586C20.440 190.266 20.520 190.306 20.600 190.746L21.440 195.866C21.560 196.626 21.560 196.586 20.840 196.826C17.320 198.026 15.040 201.186 15.040 204.586C15.040 208.186 16.920 210.746 19.640 211.666C19.960 211.786 20.440 211.906 20.720 211.906C21.040 211.906 21.200 211.706 21.200 211.466C21.200 211.186 20.880 211.066 20.600 210.946C18.920 210.226 17.720 208.506 17.720 206.666C17.720 204.386 19.280 202.666 21.720 201.986C22.360 201.826 22.440 201.866 22.520 202.306L24.520 214.226C24.600 214.666 24.560 214.666 23.960 214.786C23.320 214.906 22.520 214.986 21.720 214.986C14.720 214.986 10.200 211.106 10.200 205.546C10.200 203.186 10.600 200.026 13.920 196.266C16.320 193.586 18.160 192.106 20.040 190.586ZM24.640 201.666C27.880 201.946 30.560 204.666 30.560 208.186C30.560 210.706 29.040 212.746 26.800 213.866C26.320 214.106 26.240 214.106 26.160 213.626L24.200 202.226C24.120 201.746 24.160 201.626 24.640 201.666ZM25.800 168.626C27.120 168.626 28.200 169.706 28.200 171.906C28.200 174.666 26.880 177.226 23.760 180.346C23.120 180.986 22.160 181.906 21.240 182.706C20.960 182.946 20.800 182.906 20.720 182.386C20.560 181.346 20.480 179.986 20.480 178.706C20.480 172.466 23.360 168.626 25.800 168.626Z"></path></g><g></g><path d="M57.820 186.306C56.620 186.306 55.220 186.626 54.140 187.106C50.580 188.666 48.700 192.946 48.700 196.746C48.700 197.106 48.700 197.466 48.740 197.826C48.940 199.986 49.980 202.026 51.300 203.626C52.820 205.466 55.020 206.306 57.420 206.306C64.420 206.306 65.460 199.946 65.460 198.786C65.460 197.906 65.020 197.906 64.860 197.906C64.540 197.906 64.260 197.946 64.260 198.626C64.260 203.786 59.860 204.986 58.580 204.986C55.340 204.986 53.620 201.826 53.620 195.226C53.620 188.626 56.660 187.266 58.820 187.266C60.900 187.266 61.740 188.226 61.740 188.626C61.740 188.986 61.620 189.506 61.020 189.506C59.420 189.506 58.500 191.226 58.500 192.466C58.500 194.746 60.460 195.466 61.580 195.466C61.580 195.466 64.620 195.346 64.620 192.026C64.620 186.786 58.580 186.306 57.820 186.306Z"></path></g><g><path d="M178.901 175.906C178.541 175.906 178.261 176.186 178.261 176.546L178.261 182.546L149.541 182.546L149.541 176.546C149.541 176.186 149.261 175.906 148.901 175.906C148.541 175.906 148.261 176.186 148.261 176.546L148.261 196.546C148.261 196.906 148.541 197.186 148.901 197.186C149.261 197.186 149.541 196.906 149.541 196.546L149.541 190.546L178.261 190.546L178.261 196.546C178.261 196.906 178.541 197.186 178.901 197.186C179.261 197.186 179.541 196.906 179.541 196.546L179.541 176.546C179.541 176.186 179.261 175.906 178.901 175.906Z"></path></g></g><g transform="translate(425.6473294095532)"><g><g><line stroke="#6A6A6A" stroke-width="1.3" x1="-113.54058778169968" x2="809.1219013596776" y1="216.3461538461538" y2="216.3461538461538"></line><line stroke="#6A6A6A" stroke-width="1.3" x1="-113.54058778169968" x2="809.1219013596776" y1="206.3461538461538" y2="206.3461538461538"></line><line stroke="#6A6A6A" stroke-width="1.3" x1="-113.54058778169968" x2="809.1219013596776" y1="196.3461538461538" y2="196.3461538461538"></line><line stroke="#6A6A6A" stroke-width="1.3" x1="-113.54058778169968" x2="809.1219013596776" y1="186.3461538461538" y2="186.3461538461538"></line><line stroke="#6A6A6A" stroke-width="1.3" x1="-113.54058778169968" x2="809.1219013596776" y1="176.3461538461538" y2="176.3461538461538"></line></g></g><g><line stroke="black" stroke-width="1.6" x1="0.8" x2="0.8" y1="176.3461538461538" y2="216.3461538461538"></line></g></g><g transform="translate(442.24732940955323)"><g></g><g><line stroke="black" stroke-width="1.6" x1="158.60117556339932" x2="158.60117556339932" y1="176.3461538461538" y2="216.3461538461538"></line></g><g><path d="M76.241 190.706L76.241 187.026C76.241 186.426 75.761 185.986 75.201 185.986L66.001 185.986C65.401 185.986 64.961 186.426 64.961 187.026L64.961 190.706C64.961 191.266 65.401 191.746 66.001 191.746L75.201 191.746C75.761 191.746 76.241 191.266 76.241 190.706Z"></path></g></g><g transform="translate(616.6485049729525)"><g></g><g><line stroke="black" stroke-width="1.6" x1="617.3207257962781" x2="617.3207257962781" y1="176.3461538461538" y2="216.3461538461538"></line></g><g><path d="M11.280 195.386L11.280 191.706C11.280 191.106 10.800 190.666 10.240 190.666L1.040 190.666C0.440 190.666 0 191.106 0 191.706L0 195.386C0 195.946 0.440 196.426 1.040 196.426L10.240 196.426C10.800 196.426 11.280 195.946 11.280 195.386Z"></path></g><g><path d="M148.667 202.786C147.147 200.946 145.907 199.466 145.907 197.226C145.907 197.066 145.947 196.866 145.947 196.706C146.107 194.386 147.547 192.466 148.587 190.826C148.707 190.626 148.747 190.426 148.747 190.226C148.747 189.826 148.587 189.466 148.587 189.466C148.587 189.466 142.667 182.426 141.987 181.746C141.787 181.546 141.507 181.426 141.267 181.426C140.867 181.426 140.467 181.706 140.467 182.266C140.467 182.466 140.507 182.666 140.627 182.906C140.787 183.346 143.067 185.386 143.067 188.266C143.067 189.746 142.467 191.466 140.667 193.346C140.267 193.746 140.107 194.186 140.107 194.506C140.107 195.066 140.507 195.466 140.507 195.466L142.467 197.866C143.107 198.666 143.667 199.426 144.187 200.266C144.267 200.426 144.427 200.626 144.427 200.826C144.427 200.866 144.427 200.946 144.387 200.986C144.307 201.146 144.147 201.186 143.947 201.186C143.707 201.186 143.467 201.106 143.307 201.066C143.107 201.066 142.867 200.946 142.667 200.946C140.947 200.946 139.387 202.666 139.387 204.786C139.387 206.786 141.107 208.746 144.027 210.986C144.347 211.226 144.747 211.346 145.067 211.346C145.347 211.346 145.627 211.266 145.667 211.106C145.707 210.986 145.747 210.906 145.747 210.826C145.747 210.466 145.427 210.146 145.107 209.866C144.587 209.866 144.147 208.786 144.067 208.426C143.947 208.106 143.907 207.746 143.907 207.386C143.907 206.146 144.507 204.746 145.787 204.506C145.987 204.466 146.187 204.466 146.427 204.466C147.587 204.466 148.907 204.906 149.547 205.146C149.587 205.146 149.627 205.186 149.667 205.186C149.787 205.226 149.867 205.226 149.947 205.226C150.067 205.226 150.147 205.186 150.147 205.066C150.147 204.586 149.107 203.266 148.667 202.786Z"></path></g><g><path d="M269.640 189.666C269.560 189.666 269.440 189.666 269.200 189.826C268.920 190.066 266.920 192.466 265.600 192.466L265.600 192.066C265.600 190.586 264.400 189.386 262.920 189.386C261.440 189.386 260.240 190.586 260.240 192.066C260.240 192.906 260.720 193.626 261.320 194.106C261.680 194.346 262.040 194.546 262.440 194.626C262.760 194.706 263.120 194.786 263.480 194.786C264.040 194.786 264.600 194.666 265.040 194.506C265.600 194.346 265.960 194.186 266.480 193.906C266.560 193.866 266.640 193.866 266.680 193.866C266.840 193.866 266.880 194.026 266.880 194.226C266.880 194.346 266.880 194.506 266.840 194.666C266.720 195.266 263.840 203.226 263.120 205.866C263.120 206.346 264.040 206.386 264.280 206.386C264.720 206.386 265.280 206.306 265.680 205.986C265.800 205.906 269.720 191.866 269.720 191.866C269.880 191.146 270.080 190.506 270.120 190.306C270.120 189.786 269.720 189.706 269.640 189.666Z"></path></g><g><path d="M375.080 189.466C374.880 189.466 374.760 189.546 374.640 189.626C374.360 189.866 372.360 192.266 371.000 192.306L371.000 191.906C371.000 190.386 369.800 189.186 368.280 189.186C366.800 189.186 365.560 190.386 365.560 191.906C365.560 192.706 366.040 193.466 366.680 193.946C367.000 194.186 367.400 194.386 367.800 194.506C368.080 194.586 368.400 194.626 368.760 194.626C369.320 194.626 369.960 194.506 370.440 194.346C371.000 194.186 371.360 194.026 371.880 193.746C372.000 193.706 372.080 193.666 372.160 193.666C372.280 193.666 372.360 193.746 372.360 193.946C372.360 194.066 372.320 194.266 372.240 194.546C372.160 194.866 370.400 200.386 370.040 201.146C369.720 201.906 368.640 202.386 368.080 202.386C368.120 202.226 368.120 202.106 368.120 201.986C368.120 200.466 366.880 199.266 365.400 199.266C363.880 199.266 362.680 200.466 362.680 201.986C362.680 202.786 363.160 203.546 363.800 204.026C364.120 204.266 364.480 204.466 364.880 204.586C365.200 204.666 365.520 204.706 365.880 204.706C366.440 204.706 367.080 204.586 367.560 204.426C368.120 204.266 368.360 204.146 368.880 203.866C368.960 203.866 369.040 203.946 369.040 204.066C369.040 204.106 369.000 204.146 369.000 204.186L365.200 215.506C365.200 215.546 365.160 215.586 365.160 215.626C365.160 215.946 365.520 216.346 366.400 216.346C367.560 216.346 367.760 215.866 367.920 215.426L372.560 200.186C373.600 196.786 374.360 194.106 374.360 194.106C374.360 194.106 375.360 190.586 375.440 190.066C375.440 189.986 375.480 189.946 375.480 189.906C375.480 189.586 375.160 189.506 375.080 189.466Z"></path></g><g><path d="M460.785 179.586C460.585 179.586 460.465 179.666 460.345 179.746C460.065 179.946 458.065 182.386 456.705 182.386L456.705 182.026C456.705 180.506 455.505 179.306 453.985 179.306C452.505 179.306 451.265 180.506 451.265 182.026C451.265 182.826 451.745 183.546 452.385 184.026C452.705 184.306 453.105 184.466 453.505 184.586C453.825 184.666 454.145 184.746 454.545 184.746C455.105 184.746 455.705 184.626 456.185 184.466C456.745 184.266 457.065 184.146 457.585 183.866C457.625 183.826 457.705 183.826 457.745 183.826C458.025 183.826 458.185 184.226 458.185 184.466C458.185 184.506 458.145 184.586 458.145 184.626L456.585 191.026C456.385 191.666 455.065 192.466 454.425 192.466C454.465 192.346 454.465 192.226 454.465 192.106C454.465 190.586 453.225 189.386 451.745 189.386C450.225 189.386 449.025 190.586 449.025 192.106C449.025 192.906 449.505 193.626 450.145 194.106C450.465 194.386 450.825 194.546 451.225 194.666C451.545 194.746 451.905 194.826 452.305 194.826C452.865 194.826 453.465 194.706 453.905 194.546C454.465 194.346 454.785 194.226 455.305 193.946C455.345 193.906 455.385 193.906 455.425 193.906C455.625 193.906 455.705 194.226 455.705 194.426L454.105 200.986C453.905 201.826 452.665 202.346 452.065 202.386C452.105 202.226 452.105 202.106 452.105 201.986C452.105 200.466 450.905 199.266 449.385 199.266C447.905 199.266 446.665 200.466 446.665 201.986C446.665 202.786 447.145 203.546 447.785 204.026C448.105 204.266 448.505 204.466 448.905 204.586C449.185 204.666 449.505 204.706 449.865 204.706C450.425 204.706 451.065 204.586 451.545 204.426C452.105 204.266 452.465 204.106 452.985 203.826C453.025 203.786 453.065 203.786 453.105 203.786C453.225 203.786 453.345 203.906 453.345 204.026C453.345 204.186 450.585 215.186 450.505 215.466C450.465 215.546 450.465 215.626 450.465 215.706C450.465 216.026 450.705 216.346 451.545 216.346C452.825 216.346 452.945 215.946 453.105 215.506C453.225 215.026 460.105 184.226 460.105 184.226C460.105 184.226 461.065 180.666 461.145 180.186C461.145 180.106 461.185 180.066 461.185 180.026C461.185 179.666 460.865 179.586 460.785 179.586Z"></path></g><g><path d="M528.756 179.426C528.556 179.426 528.436 179.506 528.316 179.586C527.996 179.826 525.996 182.266 524.636 182.266C524.676 182.146 524.676 182.026 524.676 181.866C524.676 180.386 523.436 179.146 521.956 179.146C520.436 179.146 519.236 180.386 519.236 181.866C519.236 182.706 519.716 183.426 520.356 183.906C520.676 184.146 521.036 184.346 521.436 184.466C521.756 184.546 522.116 184.626 522.516 184.626C523.076 184.626 523.676 184.506 524.116 184.346C524.676 184.146 525.036 183.986 525.556 183.746C525.636 183.706 525.756 183.666 525.836 183.666C526.036 183.666 526.196 183.826 526.196 184.106C526.196 184.226 526.156 184.346 526.116 184.506C526.076 184.626 524.716 190.306 524.556 190.746C524.276 191.506 522.836 192.346 522.156 192.346L522.156 191.946C522.156 190.466 520.956 189.226 519.436 189.226C517.956 189.226 516.716 190.466 516.716 191.946C516.716 192.786 517.196 193.506 517.836 193.986C518.156 194.226 518.556 194.426 518.956 194.546C519.276 194.626 519.596 194.666 519.956 194.666C520.516 194.666 521.156 194.586 521.636 194.426C522.196 194.226 522.716 194.066 523.236 193.826C523.316 193.786 523.356 193.786 523.396 193.786C523.556 193.786 523.636 193.946 523.636 194.146C523.636 194.226 523.636 194.266 523.596 194.346C523.516 194.706 522.076 200.506 521.956 200.826C521.636 201.866 520.556 202.226 519.996 202.226L519.996 201.826C519.996 200.346 518.796 199.106 517.276 199.106C515.796 199.106 514.556 200.346 514.556 201.826C514.556 202.666 515.036 203.386 515.676 203.866C516.036 204.106 516.396 204.306 516.796 204.426C517.116 204.506 517.516 204.586 517.876 204.586C518.436 204.586 518.996 204.466 519.476 204.306C520.036 204.106 520.156 203.946 520.676 203.706C520.716 203.666 520.756 203.666 520.796 203.666C520.996 203.666 521.036 203.986 521.036 204.226C521.036 204.346 520.996 204.506 520.996 204.546C520.956 204.746 519.556 210.466 519.396 210.906C519.156 211.746 518.116 212.106 517.596 212.106C517.636 211.986 517.636 211.866 517.636 211.746C517.636 210.226 516.436 209.026 514.916 209.026C513.436 209.026 512.196 210.226 512.196 211.746C512.196 212.546 512.676 213.266 513.316 213.746C513.636 214.026 513.996 214.186 514.396 214.306C514.716 214.386 515.076 214.466 515.476 214.466C516.036 214.466 516.636 214.346 517.076 214.186C517.636 213.986 517.516 214.106 518.036 213.826C518.116 213.786 518.156 213.786 518.196 213.786C518.396 213.786 518.516 213.986 518.516 214.226C518.516 214.306 518.476 214.386 518.476 214.466L515.596 225.626C515.556 225.746 515.556 225.826 515.556 225.906C515.556 226.266 515.916 226.466 516.836 226.466C517.796 226.466 517.996 226.226 518.156 225.786C518.236 225.426 518.556 224.706 523.356 204.066C523.396 204.066 524.156 200.826 524.316 200.106L528.036 184.106C528.036 184.106 528.996 180.546 529.116 180.026C529.116 179.586 528.916 179.466 528.756 179.426Z"></path></g><g><path d="M574.194 171.506C574.194 169.986 572.994 168.786 571.474 168.786C569.994 168.786 568.754 169.986 568.754 171.506C568.754 172.306 569.234 173.026 569.874 173.506C570.194 173.786 570.594 173.986 570.994 174.066C571.314 174.146 571.674 174.226 572.034 174.226C572.594 174.226 573.194 174.106 573.634 173.946C573.674 173.946 573.714 173.906 573.754 173.906C574.234 173.746 574.594 173.586 575.074 173.346C575.154 173.306 575.314 173.266 575.394 173.266C575.634 173.266 575.874 173.426 575.874 173.786C575.874 173.866 575.874 173.986 575.834 174.106C575.674 174.866 574.434 179.826 574.274 180.386C574.114 180.986 572.474 182.186 571.714 182.186L571.714 181.786C571.714 180.306 570.514 179.066 568.994 179.066C567.514 179.066 566.274 180.306 566.274 181.786C566.274 182.626 566.754 183.346 567.394 183.826C567.754 184.066 568.114 184.266 568.514 184.386C568.834 184.466 569.154 184.506 569.514 184.506C570.074 184.506 570.714 184.426 571.194 184.266C571.754 184.066 572.474 183.706 572.994 183.466C573.034 183.426 573.074 183.426 573.114 183.426C573.274 183.426 573.314 183.666 573.314 183.946C573.314 184.146 573.274 184.346 573.234 184.506L571.674 190.746C571.474 191.546 570.074 192.346 569.434 192.346L569.434 191.946C569.434 190.466 568.234 189.226 566.714 189.226C565.234 189.226 563.994 190.466 563.994 191.946C563.994 192.786 564.474 193.506 565.114 193.986C565.434 194.226 565.834 194.426 566.234 194.546C566.554 194.626 566.954 194.706 567.314 194.706C567.874 194.706 568.434 194.586 568.914 194.426C569.474 194.226 569.794 194.066 570.314 193.826C570.394 193.786 570.474 193.746 570.554 193.746C570.714 193.746 570.794 193.906 570.794 194.146C570.794 194.266 570.754 194.426 570.714 194.586C570.594 195.186 569.394 200.066 569.194 200.706C568.874 201.786 567.674 202.226 567.074 202.226C567.074 202.106 567.114 201.986 567.114 201.826C567.114 200.346 565.874 199.106 564.394 199.106C562.874 199.106 561.674 200.346 561.674 201.826C561.674 202.666 562.154 203.386 562.794 203.866C563.114 204.106 563.474 204.306 563.874 204.426C564.194 204.506 564.594 204.586 564.954 204.586C565.514 204.586 566.074 204.466 566.554 204.306C567.114 204.106 567.434 203.946 567.954 203.706C567.994 203.666 568.074 203.666 568.114 203.666C568.274 203.666 568.354 203.826 568.354 203.986C568.274 204.306 566.994 209.946 566.674 210.706C566.154 212.066 565.394 212.106 564.834 212.146L564.714 211.746C564.714 210.226 563.514 209.026 561.994 209.026C560.514 209.026 559.274 210.226 559.274 211.746C559.274 212.546 559.754 213.266 560.394 213.786C560.714 214.026 561.114 214.226 561.514 214.306C561.834 214.386 562.194 214.466 562.554 214.466C563.114 214.466 563.714 214.346 564.154 214.186C564.194 214.186 564.234 214.146 564.274 214.146C564.754 213.986 565.114 213.826 565.594 213.586C565.634 213.586 565.674 213.546 565.714 213.546C565.834 213.546 565.914 213.626 565.914 213.746C565.914 213.786 565.914 213.866 565.874 213.906C565.794 214.186 562.994 225.506 562.914 225.706C562.914 226.106 563.154 226.346 564.074 226.346C565.354 226.346 565.514 226.186 565.674 225.706L577.554 173.706C577.554 173.706 578.554 170.186 578.634 169.666C578.634 169.586 578.674 169.546 578.674 169.506C578.674 169.146 578.354 169.106 578.274 169.066C578.074 169.066 577.954 169.146 577.834 169.226C577.554 169.426 575.554 171.866 574.194 171.906Z"></path></g><g><path d="M602.817 171.506C602.817 169.986 601.617 168.786 600.097 168.786C598.617 168.786 597.377 169.986 597.377 171.506C597.377 172.306 597.857 173.026 598.497 173.506C598.817 173.786 599.217 173.986 599.617 174.066C599.937 174.146 600.297 174.226 600.657 174.226C601.217 174.226 601.817 174.106 602.257 173.946C602.297 173.946 602.337 173.906 602.377 173.906C602.857 173.746 603.217 173.586 603.697 173.346C603.777 173.306 603.937 173.266 604.017 173.266C604.257 173.266 604.497 173.426 604.497 173.786C604.497 173.866 604.497 173.986 604.457 174.106C604.297 174.866 603.057 179.826 602.897 180.386C602.737 180.986 601.097 182.186 600.337 182.186L600.337 181.786C600.337 180.306 599.137 179.066 597.617 179.066C596.137 179.066 594.897 180.306 594.897 181.786C594.897 182.626 595.377 183.346 596.017 183.826C596.377 184.066 596.737 184.266 597.137 184.386C597.457 184.466 597.777 184.506 598.137 184.506C598.697 184.506 599.337 184.426 599.817 184.266C600.377 184.066 601.097 183.706 601.617 183.466C601.657 183.426 601.697 183.426 601.737 183.426C601.897 183.426 601.937 183.666 601.937 183.946C601.937 184.146 601.897 184.346 601.857 184.506L600.297 190.746C600.097 191.546 598.697 192.346 598.057 192.346L598.057 191.946C598.057 190.466 596.857 189.226 595.337 189.226C593.857 189.226 592.617 190.466 592.617 191.946C592.617 192.786 593.097 193.506 593.737 193.986C594.057 194.226 594.457 194.426 594.857 194.546C595.177 194.626 595.577 194.706 595.937 194.706C596.497 194.706 597.057 194.586 597.537 194.426C598.097 194.226 598.417 194.066 598.937 193.826C599.017 193.786 599.097 193.746 599.177 193.746C599.337 193.746 599.417 193.906 599.417 194.146C599.417 194.266 599.377 194.426 599.337 194.586C599.217 195.186 598.017 200.066 597.817 200.706C597.497 201.786 596.297 202.226 595.697 202.226C595.697 202.106 595.737 201.986 595.737 201.826C595.737 200.346 594.497 199.106 593.017 199.106C591.497 199.106 590.297 200.346 590.297 201.826C590.297 202.666 590.777 203.386 591.417 203.866C591.737 204.106 592.097 204.306 592.497 204.426C592.817 204.506 593.217 204.586 593.577 204.586C594.137 204.586 594.697 204.466 595.177 204.306C595.737 204.106 596.057 203.946 596.577 203.706C596.617 203.666 596.697 203.666 596.737 203.666C596.897 203.666 596.977 203.826 596.977 203.986C596.897 204.306 595.617 209.946 595.297 210.706C594.777 212.066 594.017 212.106 593.457 212.146L593.337 211.746C593.337 210.226 592.137 209.026 590.617 209.026C589.137 209.026 587.897 210.226 587.897 211.746C587.897 212.546 588.377 213.266 589.017 213.786C589.337 214.026 589.737 214.226 590.137 214.306C590.457 214.386 590.817 214.466 591.177 214.466C591.737 214.466 592.337 214.346 592.777 214.186C592.817 214.186 592.857 214.146 592.897 214.146C593.377 213.986 593.737 213.826 594.217 213.586C594.257 213.586 594.297 213.546 594.337 213.546C594.457 213.546 594.537 213.626 594.537 213.746C594.537 213.786 594.537 213.866 594.497 213.906C594.417 214.186 591.617 225.506 591.537 225.706C591.537 226.106 591.777 226.346 592.697 226.346C593.977 226.346 594.137 226.186 594.297 225.706L606.177 173.706C606.177 173.706 607.177 170.186 607.257 169.666C607.257 169.586 607.297 169.546 607.297 169.506C607.297 169.146 606.977 169.106 606.897 169.066C606.697 169.066 606.577 169.146 606.457 169.226C606.177 169.426 604.177 171.866 602.817 171.906Z"></path></g></g><g transform="translate(93.84615384615385)"><g><g><line stroke="#6A6A6A" stroke-width="1.3" x1="0" x2="975.1947717035913" y1="347.3461538461538" y2="347.3461538461538"></line><line stroke="#6A6A6A" stroke-width="1.3" x1="0" x2="975.1947717035913" y1="337.3461538461538" y2="337.3461538461538"></line><line stroke="#6A6A6A" stroke-width="1.3" x1="0" x2="975.1947717035913" y1="327.3461538461538" y2="327.3461538461538"></line><line stroke="#6A6A6A" stroke-width="1.3" x1="0" x2="975.1947717035913" y1="317.3461538461538" y2="317.3461538461538"></line><line stroke="#6A6A6A" stroke-width="1.3" x1="0" x2="975.1947717035913" y1="307.3461538461538" y2="307.3461538461538"></line></g><g><path d="M25.200 293.426C24.640 293.426 23.400 294.466 22.600 295.346C19.640 298.626 18.680 303.626 18.680 307.786C18.680 310.106 18.960 312.706 19.240 314.346C19.320 314.826 19.360 314.906 18.880 315.306C16.320 317.426 13.560 319.866 11.480 322.426C8.720 325.866 7 329.586 7 333.866C7 340.826 11.760 347.426 21.560 347.426C22.480 347.426 23.520 347.346 24.320 347.186C24.760 347.106 24.840 347.066 24.920 347.546C25.400 350.226 26 353.706 26 355.586C26 361.506 22 362.226 19.640 362.226C17.480 362.226 16.440 361.586 16.440 361.066C16.440 360.626 16.800 360.666 17.720 360.386C18.960 360.026 20.400 358.946 20.400 356.626C20.400 354.426 19 352.546 16.560 352.546C13.880 352.546 12.280 354.666 12.280 357.146C12.280 359.746 13.840 363.666 19.880 363.666C22.560 363.666 27.760 362.466 27.760 355.666C27.760 353.386 27.040 349.586 26.600 347.106C26.520 346.626 26.560 346.666 27.120 346.426C31.160 344.826 33.840 341.426 33.840 336.906C33.840 331.786 30.080 327.266 24.200 327.266C23.080 327.266 23.200 327.466 23.040 326.546L22.040 320.746C21.960 320.266 22.040 320.226 22.280 319.986C22.920 319.386 23.760 318.546 24.520 317.706C27.880 314.026 29.880 309.266 29.880 304.746C29.880 301.266 28.920 297.826 27.280 295.426C26.680 294.546 25.640 293.426 25.200 293.426ZM20.040 321.586C20.440 321.266 20.520 321.306 20.600 321.746L21.440 326.866C21.560 327.626 21.560 327.586 20.840 327.826C17.320 329.026 15.040 332.186 15.040 335.586C15.040 339.186 16.920 341.746 19.640 342.666C19.960 342.786 20.440 342.906 20.720 342.906C21.040 342.906 21.200 342.706 21.200 342.466C21.200 342.186 20.880 342.066 20.600 341.946C18.920 341.226 17.720 339.506 17.720 337.666C17.720 335.386 19.280 333.666 21.720 332.986C22.360 332.826 22.440 332.866 22.520 333.306L24.520 345.226C24.600 345.666 24.560 345.666 23.960 345.786C23.320 345.906 22.520 345.986 21.720 345.986C14.720 345.986 10.200 342.106 10.200 336.546C10.200 334.186 10.600 331.026 13.920 327.266C16.320 324.586 18.160 323.106 20.040 321.586ZM24.640 332.666C27.880 332.946 30.560 335.666 30.560 339.186C30.560 341.706 29.040 343.746 26.800 344.866C26.320 345.106 26.240 345.106 26.160 344.626L24.200 333.226C24.120 332.746 24.160 332.626 24.640 332.666ZM25.800 299.626C27.120 299.626 28.200 300.706 28.200 302.906C28.200 305.666 26.880 308.226 23.760 311.346C23.120 311.986 22.160 312.906 21.240 313.706C20.960 313.946 20.800 313.906 20.720 313.386C20.560 312.346 20.480 310.986 20.480 309.706C20.480 303.466 23.360 299.626 25.800 299.626Z"></path></g><g></g><text font-family='Alegreya' font-style='italic' text-anchor='end' stroke='#7a7a7a' font-size="24" x="0" y="297.3461538461538">5</text></g><g><line stroke="black" stroke-width="1.6" x1="422.91287090231543" x2="422.91287090231543" y1="307.3461538461538" y2="347.3461538461538"></line></g><g><path d="M59.780 326.386L59.780 322.706C59.780 322.106 59.300 321.666 58.740 321.666L49.540 321.666C48.940 321.666 48.500 322.106 48.500 322.706L48.500 326.386C48.500 326.946 48.940 327.426 49.540 327.426L58.740 327.426C59.300 327.426 59.780 326.946 59.780 326.386Z"></path><g><circle cx="65.78" cy="322.3461538461538" fill="#000000" r="2.4"></circle></g></g><g><path d="M269.292 333.786C267.772 331.946 266.532 330.466 266.532 328.226C266.532 328.066 266.572 327.866 266.572 327.706C266.732 325.386 268.172 323.466 269.212 321.826C269.332 321.626 269.372 321.426 269.372 321.226C269.372 320.826 269.212 320.466 269.212 320.466C269.212 320.466 263.292 313.426 262.612 312.746C262.412 312.546 262.132 312.426 261.892 312.426C261.492 312.426 261.092 312.706 261.092 313.266C261.092 313.466 261.132 313.666 261.252 313.906C261.412 314.346 263.692 316.386 263.692 319.266C263.692 320.746 263.092 322.466 261.292 324.346C260.892 324.746 260.732 325.186 260.732 325.506C260.732 326.066 261.132 326.466 261.132 326.466L263.092 328.866C263.732 329.666 264.292 330.426 264.812 331.266C264.892 331.426 265.052 331.626 265.052 331.826C265.052 331.866 265.052 331.946 265.012 331.986C264.932 332.146 264.772 332.186 264.572 332.186C264.332 332.186 264.092 332.106 263.932 332.066C263.732 332.066 263.492 331.946 263.292 331.946C261.572 331.946 260.012 333.666 260.012 335.786C260.012 337.786 261.732 339.746 264.652 341.986C264.972 342.226 265.372 342.346 265.692 342.346C265.972 342.346 266.252 342.266 266.292 342.106C266.332 341.986 266.372 341.906 266.372 341.826C266.372 341.466 266.052 341.146 265.732 340.866C265.212 340.866 264.772 339.786 264.692 339.426C264.572 339.106 264.532 338.746 264.532 338.386C264.532 337.146 265.132 335.746 266.412 335.506C266.612 335.466 266.812 335.466 267.052 335.466C268.212 335.466 269.532 335.906 270.172 336.146C270.212 336.146 270.252 336.186 270.292 336.186C270.412 336.226 270.492 336.226 270.572 336.226C270.692 336.226 270.772 336.186 270.772 336.066C270.772 335.586 269.732 334.266 269.292 333.786Z"></path></g></g><g transform="translate(532.5590247484693)"><g></g><g><line stroke="#000000" stroke-width="1.6" x1="526.6819008012758" x2="526.6819008012758" y1="307.3461538461538" y2="347.3461538461538"></line><line stroke="#000000" stroke-width="5" x1="533.9819008012759" x2="533.9819008012759" y1="307.3461538461538" y2="347.3461538461538"></line></g><g><path d="M9.320 333.786C7.800 331.946 6.560 330.466 6.560 328.226C6.560 328.066 6.600 327.866 6.600 327.706C6.760 325.386 8.200 323.466 9.240 321.826C9.360 321.626 9.400 321.426 9.400 321.226C9.400 320.826 9.240 320.466 9.240 320.466C9.240 320.466 3.320 313.426 2.640 312.746C2.440 312.546 2.160 312.426 1.920 312.426C1.520 312.426 1.120 312.706 1.120 313.266C1.120 313.466 1.160 313.666 1.280 313.906C1.440 314.346 3.720 316.386 3.720 319.266C3.720 320.746 3.120 322.466 1.320 324.346C0.920 324.746 0.760 325.186 0.760 325.506C0.760 326.066 1.160 326.466 1.160 326.466L3.120 328.866C3.760 329.666 4.320 330.426 4.840 331.266C4.920 331.426 5.080 331.626 5.080 331.826C5.080 331.866 5.080 331.946 5.040 331.986C4.960 332.146 4.800 332.186 4.600 332.186C4.360 332.186 4.120 332.106 3.960 332.066C3.760 332.066 3.520 331.946 3.320 331.946C1.600 331.946 0.040 333.666 0.040 335.786C0.040 337.786 1.760 339.746 4.680 341.986C5 342.226 5.400 342.346 5.720 342.346C6 342.346 6.280 342.266 6.320 342.106C6.360 341.986 6.400 341.906 6.400 341.826C6.400 341.466 6.080 341.146 5.760 340.866C5.240 340.866 4.800 339.786 4.720 339.426C4.600 339.106 4.560 338.746 4.560 338.386C4.560 337.146 5.160 335.746 6.440 335.506C6.640 335.466 6.840 335.466 7.080 335.466C8.240 335.466 9.560 335.906 10.200 336.146C10.240 336.146 10.280 336.186 10.320 336.186C10.440 336.226 10.520 336.226 10.600 336.226C10.720 336.226 10.800 336.186 10.800 336.066C10.800 335.586 9.760 334.266 9.320 333.786Z"></path><g><circle cx="16.8" cy="322.3461538461538" fill="#000000" r="2.4"></circle></g></g><g><path d="M147.550 320.666C147.470 320.666 147.350 320.666 147.110 320.826C146.830 321.066 144.830 323.466 143.510 323.466L143.510 323.066C143.510 321.586 142.310 320.386 140.830 320.386C139.350 320.386 138.150 321.586 138.150 323.066C138.150 323.906 138.630 324.626 139.230 325.106C139.590 325.346 139.950 325.546 140.350 325.626C140.670 325.706 141.030 325.786 141.390 325.786C141.950 325.786 142.510 325.666 142.950 325.506C143.510 325.346 143.870 325.186 144.390 324.906C144.470 324.866 144.550 324.866 144.590 324.866C144.750 324.866 144.790 325.026 144.790 325.226C144.790 325.346 144.790 325.506 144.750 325.666C144.630 326.266 141.750 334.226 141.030 336.866C141.030 337.346 141.950 337.386 142.190 337.386C142.630 337.386 143.190 337.306 143.590 336.986C143.710 336.906 147.630 322.866 147.630 322.866C147.790 322.146 147.990 321.506 148.030 321.306C148.030 320.786 147.630 320.706 147.550 320.666Z"></path><g><circle cx="154.0298645170716" cy="322.3461538461538" fill="#000000" r="2.4"></circle></g></g><g><path d="M268.499 320.466C268.299 320.466 268.179 320.546 268.059 320.626C267.779 320.866 265.779 323.266 264.419 323.306L264.419 322.906C264.419 321.386 263.219 320.186 261.699 320.186C260.219 320.186 258.979 321.386 258.979 322.906C258.979 323.706 259.459 324.466 260.099 324.946C260.419 325.186 260.819 325.386 261.219 325.506C261.499 325.586 261.819 325.626 262.179 325.626C262.739 325.626 263.379 325.506 263.859 325.346C264.419 325.186 264.779 325.026 265.299 324.746C265.419 324.706 265.499 324.666 265.579 324.666C265.699 324.666 265.779 324.746 265.779 324.946C265.779 325.066 265.739 325.266 265.659 325.546C265.579 325.866 263.819 331.386 263.459 332.146C263.139 332.906 262.059 333.386 261.499 333.386C261.539 333.226 261.539 333.106 261.539 332.986C261.539 331.466 260.299 330.266 258.819 330.266C257.299 330.266 256.099 331.466 256.099 332.986C256.099 333.786 256.579 334.546 257.219 335.026C257.539 335.266 257.899 335.466 258.299 335.586C258.619 335.666 258.939 335.706 259.299 335.706C259.859 335.706 260.499 335.586 260.979 335.426C261.539 335.266 261.779 335.146 262.299 334.866C262.379 334.866 262.459 334.946 262.459 335.066C262.459 335.106 262.419 335.146 262.419 335.186L258.619 346.506C258.619 346.546 258.579 346.586 258.579 346.626C258.579 346.946 258.939 347.346 259.819 347.346C260.979 347.346 261.179 346.866 261.339 346.426L265.979 331.186C267.019 327.786 267.779 325.106 267.779 325.106C267.779 325.106 268.779 321.586 268.859 321.066C268.859 320.986 268.899 320.946 268.899 320.906C268.899 320.586 268.579 320.506 268.499 320.466Z"></path><g><circle cx="274.89857661406626" cy="322.3461538461538" fill="#000000" r="2.4"></circle></g></g><g><path d="M367.966 310.586C367.766 310.586 367.646 310.666 367.526 310.746C367.246 310.946 365.246 313.386 363.886 313.386L363.886 313.026C363.886 311.506 362.686 310.306 361.166 310.306C359.686 310.306 358.446 311.506 358.446 313.026C358.446 313.826 358.926 314.546 359.566 315.026C359.886 315.306 360.286 315.466 360.686 315.586C361.006 315.666 361.326 315.746 361.726 315.746C362.286 315.746 362.886 315.626 363.366 315.466C363.926 315.266 364.246 315.146 364.766 314.866C364.806 314.826 364.886 314.826 364.926 314.826C365.206 314.826 365.366 315.226 365.366 315.466C365.366 315.506 365.326 315.586 365.326 315.626L363.766 322.026C363.566 322.666 362.246 323.466 361.606 323.466C361.646 323.346 361.646 323.226 361.646 323.106C361.646 321.586 360.406 320.386 358.926 320.386C357.406 320.386 356.206 321.586 356.206 323.106C356.206 323.906 356.686 324.626 357.326 325.106C357.646 325.386 358.006 325.546 358.406 325.666C358.726 325.746 359.086 325.826 359.486 325.826C360.046 325.826 360.646 325.706 361.086 325.546C361.646 325.346 361.966 325.226 362.486 324.946C362.526 324.906 362.566 324.906 362.606 324.906C362.806 324.906 362.886 325.226 362.886 325.426L361.286 331.986C361.086 332.826 359.846 333.346 359.246 333.386C359.286 333.226 359.286 333.106 359.286 332.986C359.286 331.466 358.086 330.266 356.566 330.266C355.086 330.266 353.846 331.466 353.846 332.986C353.846 333.786 354.326 334.546 354.966 335.026C355.286 335.266 355.686 335.466 356.086 335.586C356.366 335.666 356.686 335.706 357.046 335.706C357.606 335.706 358.246 335.586 358.726 335.426C359.286 335.266 359.646 335.106 360.166 334.826C360.206 334.786 360.246 334.786 360.286 334.786C360.406 334.786 360.526 334.906 360.526 335.026C360.526 335.186 357.766 346.186 357.686 346.466C357.646 346.546 357.646 346.626 357.646 346.706C357.646 347.026 357.886 347.346 358.726 347.346C360.006 347.346 360.126 346.946 360.286 346.506C360.406 346.026 367.286 315.226 367.286 315.226C367.286 315.226 368.246 311.666 368.326 311.186C368.326 311.106 368.366 311.066 368.366 311.026C368.366 310.666 368.046 310.586 367.966 310.586Z"></path><g><circle cx="374.36613629098406" cy="322.3461538461538" fill="#000000" r="2.4"></circle></g></g><g><path d="M447.953 310.426C447.753 310.426 447.633 310.506 447.513 310.586C447.193 310.826 445.193 313.266 443.833 313.266C443.873 313.146 443.873 313.026 443.873 312.866C443.873 311.386 442.633 310.146 441.153 310.146C439.633 310.146 438.433 311.386 438.433 312.866C438.433 313.706 438.913 314.426 439.553 314.906C439.873 315.146 440.233 315.346 440.633 315.466C440.953 315.546 441.313 315.626 441.713 315.626C442.273 315.626 442.873 315.506 443.313 315.346C443.873 315.146 444.233 314.986 444.753 314.746C444.833 314.706 444.953 314.666 445.033 314.666C445.233 314.666 445.393 314.826 445.393 315.106C445.393 315.226 445.353 315.346 445.313 315.506C445.273 315.626 443.913 321.306 443.753 321.746C443.473 322.506 442.033 323.346 441.353 323.346L441.353 322.946C441.353 321.466 440.153 320.226 438.633 320.226C437.153 320.226 435.913 321.466 435.913 322.946C435.913 323.786 436.393 324.506 437.033 324.986C437.353 325.226 437.753 325.426 438.153 325.546C438.473 325.626 438.793 325.666 439.153 325.666C439.713 325.666 440.353 325.586 440.833 325.426C441.393 325.226 441.913 325.066 442.433 324.826C442.513 324.786 442.553 324.786 442.593 324.786C442.753 324.786 442.833 324.946 442.833 325.146C442.833 325.226 442.833 325.266 442.793 325.346C442.713 325.706 441.273 331.506 441.153 331.826C440.833 332.866 439.753 333.226 439.193 333.226L439.193 332.826C439.193 331.346 437.993 330.106 436.473 330.106C434.993 330.106 433.753 331.346 433.753 332.826C433.753 333.666 434.233 334.386 434.873 334.866C435.233 335.106 435.593 335.306 435.993 335.426C436.313 335.506 436.713 335.586 437.073 335.586C437.633 335.586 438.193 335.466 438.673 335.306C439.233 335.106 439.353 334.946 439.873 334.706C439.913 334.666 439.953 334.666 439.993 334.666C440.193 334.666 440.233 334.986 440.233 335.226C440.233 335.346 440.193 335.506 440.193 335.546C440.153 335.746 438.753 341.466 438.593 341.906C438.353 342.746 437.313 343.106 436.793 343.106C436.833 342.986 436.833 342.866 436.833 342.746C436.833 341.226 435.633 340.026 434.113 340.026C432.633 340.026 431.393 341.226 431.393 342.746C431.393 343.546 431.873 344.266 432.513 344.746C432.833 345.026 433.193 345.186 433.593 345.306C433.913 345.386 434.273 345.466 434.673 345.466C435.233 345.466 435.833 345.346 436.273 345.186C436.833 344.986 436.713 345.106 437.233 344.826C437.313 344.786 437.353 344.786 437.393 344.786C437.593 344.786 437.713 344.986 437.713 345.226C437.713 345.306 437.673 345.386 437.673 345.466L434.793 356.626C434.753 356.746 434.753 356.826 434.753 356.906C434.753 357.266 435.113 357.466 436.033 357.466C436.993 357.466 437.193 357.226 437.353 356.786C437.433 356.426 437.753 355.706 442.553 335.066C442.593 335.066 443.353 331.826 443.513 331.106L447.233 315.106C447.233 315.106 448.193 311.546 448.313 311.026C448.313 310.586 448.113 310.466 447.953 310.426Z"></path><g><circle cx="454.31254354782493" cy="322.3461538461538" fill="#000000" r="2.4"></circle></g></g><g><path d="M503.658 302.506C503.658 300.986 502.458 299.786 500.938 299.786C499.458 299.786 498.218 300.986 498.218 302.506C498.218 303.306 498.698 304.026 499.338 304.506C499.658 304.786 500.058 304.986 500.458 305.066C500.778 305.146 501.138 305.226 501.498 305.226C502.058 305.226 502.658 305.106 503.098 304.946C503.138 304.946 503.178 304.906 503.218 304.906C503.698 304.746 504.058 304.586 504.538 304.346C504.618 304.306 504.778 304.266 504.858 304.266C505.098 304.266 505.338 304.426 505.338 304.786C505.338 304.866 505.338 304.986 505.298 305.106C505.138 305.866 503.898 310.826 503.738 311.386C503.578 311.986 501.938 313.186 501.178 313.186L501.178 312.786C501.178 311.306 499.978 310.066 498.458 310.066C496.978 310.066 495.738 311.306 495.738 312.786C495.738 313.626 496.218 314.346 496.858 314.826C497.218 315.066 497.578 315.266 497.978 315.386C498.298 315.466 498.618 315.506 498.978 315.506C499.538 315.506 500.178 315.426 500.658 315.266C501.218 315.066 501.938 314.706 502.458 314.466C502.498 314.426 502.538 314.426 502.578 314.426C502.738 314.426 502.778 314.666 502.778 314.946C502.778 315.146 502.738 315.346 502.698 315.506L501.138 321.746C500.938 322.546 499.538 323.346 498.898 323.346L498.898 322.946C498.898 321.466 497.698 320.226 496.178 320.226C494.698 320.226 493.458 321.466 493.458 322.946C493.458 323.786 493.938 324.506 494.578 324.986C494.898 325.226 495.298 325.426 495.698 325.546C496.018 325.626 496.418 325.706 496.778 325.706C497.338 325.706 497.898 325.586 498.378 325.426C498.938 325.226 499.258 325.066 499.778 324.826C499.858 324.786 499.938 324.746 500.018 324.746C500.178 324.746 500.258 324.906 500.258 325.146C500.258 325.266 500.218 325.426 500.178 325.586C500.058 326.186 498.858 331.066 498.658 331.706C498.338 332.786 497.138 333.226 496.538 333.226C496.538 333.106 496.578 332.986 496.578 332.826C496.578 331.346 495.338 330.106 493.858 330.106C492.338 330.106 491.138 331.346 491.138 332.826C491.138 333.666 491.618 334.386 492.258 334.866C492.578 335.106 492.938 335.306 493.338 335.426C493.658 335.506 494.058 335.586 494.418 335.586C494.978 335.586 495.538 335.466 496.018 335.306C496.578 335.106 496.898 334.946 497.418 334.706C497.458 334.666 497.538 334.666 497.578 334.666C497.738 334.666 497.818 334.826 497.818 334.986C497.738 335.306 496.458 340.946 496.138 341.706C495.618 343.066 494.858 343.106 494.298 343.146L494.178 342.746C494.178 341.226 492.978 340.026 491.458 340.026C489.978 340.026 488.738 341.226 488.738 342.746C488.738 343.546 489.218 344.266 489.858 344.786C490.178 345.026 490.578 345.226 490.978 345.306C491.298 345.386 491.658 345.466 492.018 345.466C492.578 345.466 493.178 345.346 493.618 345.186C493.658 345.186 493.698 345.146 493.738 345.146C494.218 344.986 494.578 344.826 495.058 344.586C495.098 344.586 495.138 344.546 495.178 344.546C495.298 344.546 495.378 344.626 495.378 344.746C495.378 344.786 495.378 344.866 495.338 344.906C495.258 345.186 492.458 356.506 492.378 356.706C492.378 357.106 492.618 357.346 493.538 357.346C494.818 357.346 494.978 357.186 495.138 356.706L507.018 304.706C507.018 304.706 508.018 301.186 508.098 300.666C508.098 300.586 508.138 300.546 508.138 300.506C508.138 300.146 507.818 300.106 507.738 300.066C507.538 300.066 507.418 300.146 507.298 300.226C507.018 300.426 505.018 302.866 503.658 302.906Z"></path><g><circle cx="514.1377983845889" cy="322.3461538461538" fill="#000000" r="2.4"></circle></g></g></g></svg>