<?xml version="1.0" encoding="UTF-8" standalone="no"?><svg xmlns="http://www.w3.org/2000/svg" height="279.4mm" viewBox="0 0 1328.6153846153845 1719.3846153846152" width="215.9mm"><g transform="translate(163.84615384615387)"><g><g><line stroke="#6A6A6A" stroke-width="1.3" x1="0" x2="775.9003899496787" y1="231.3461538461538" y2="231.3461538461538"></line><line stroke="#6A6A6A" stroke-width="1.3" x1="0" x2="775.9003899496787" y1="221.3461538461538" y2="221.3461538461538"></line><line stroke="#6A6A6A" stroke-width="1.3" x1="0" x2="775.9003899496787" y1="211.3461538461538" y2="211.3461538461538"></line><line stroke="#6A6A6A" stroke-width="1.3" x1="0" x2="775.9003899496787" y1="201.3461538461538" y2="201.3461538461538"></line><line stroke="#6A6A6A" stroke-width="1.3" x1="0" x2="775.9003899496787" y1="191.3461538461538" y2="191.3461538461538"></line></g><g><path d="M25.200 177.426C24.640 177.426 23.400 178.466 22.600 179.346C19.640 182.626 18.680 187.626 18.680 191.786C18.680 194.106 18.960 196.706 19.240 198.346C19.320 198.826 19.360 198.906 18.880 199.306C16.320 201.426 13.560 203.866 11.480 206.426C8.720 209.866 7 213.586 7 217.866C7 224.826 11.760 231.426 21.560 231.426C22.480 231.426 23.520 231.346 24.320 231.186C24.760 231.106 24.840 231.066 24.920 231.546C25.400 234.226 26 237.706 26 239.586C26 245.506 22 246.226 19.640 246.226C17.480 246.226 16.440 245.586 16.440 245.066C16.440 244.626 16.800 244.666 17.720 244.386C18.960 244.026 20.400 242.946 20.400 240.626C20.400 238.426 19 236.546 16.560 236.546C13.880 236.546 12.280 238.666 12.280 241.146C12.280 243.746 13.840 247.666 19.880 247.666C22.560 247.666 27.760 246.466 27.760 239.666C27.760 237.386 27.040 233.586 26.600 231.106C26.520 230.626 26.560 230.666 27.120 230.426C31.160 228.826 33.840 225.426 33.840 220.906C33.840 215.786 30.080 211.266 24.200 211.266C23.080 211.266 23.200 211.466 23.040 210.546L22.040 204.746C21.960 204.266 22.040 204.226 22.280 203.986C22.920 203.386 23.760 202.546 24.520 201.706C27.880 198.026 29.880 193.266 29.880 188.746C29.880 185.266 28.920 181.826 27.280 179.426C26.680 178.546 25.640 177.426 25.200 177.426ZM20.040 205.586C20.440 205.266 20.520 205.306 20.600 205.746L21.440 210.866C21.560 211.626 21.560 211.586 20.840 211.826C17.320 213.026 15.040 216.186 15.040 219.586C15.040 223.186 16.920 225.746 19.640 226.666C19.960 226.786 20.440 226.906 20.720 226.906C21.040 226.906 21.200 226.706 21.200 226.466C21.200 226.186 20.880 226.066 20.600 225.946C18.920 225.226 17.720 223.506 17.720 221.666C17.720 219.386 19.280 217.666 21.720 216.986C22.360 216.826 22.440 216.866 22.520 217.306L24.520 229.226C24.600 229.666 24.560 229.666 23.960 229.786C23.320 229.906 22.520 229.986 21.720 229.986C14.720 229.986 10.200 226.106 10.200 220.546C10.200 218.186 10.600 215.026 13.920 211.266C16.320 208.586 18.160 207.106 20.040 205.586ZM24.640 216.666C27.880 216.946 30.560 219.666 30.560 223.186C30.560 225.706 29.040 227.746 26.800 228.866C26.320 229.106 26.240 229.106 26.160 228.626L24.200 217.226C24.120 216.746 24.160 216.626 24.640 216.666ZM25.800 183.626C27.120 183.626 28.200 184.706 28.200 186.906C28.200 189.666 26.880 192.226 23.760 195.346C23.120 195.986 22.160 196.906 21.240 197.706C20.960 197.946 20.800 197.906 20.720 197.386C20.560 196.346 20.480 194.986 20.480 193.706C20.480 187.466 23.360 183.626 25.800 183.626Z"></path></g><g></g><path d="M57.820 201.306C56.620 201.306 55.220 201.626 54.140 202.106C50.580 203.666 48.700 207.946 48.700 211.746C48.700 212.106 48.700 212.466 48.740 212.826C48.940 214.986 49.980 217.026 51.300 218.626C52.820 220.466 55.020 221.306 57.420 221.306C64.420 221.306 65.460 214.946 65.460 213.786C65.460 212.906 65.020 212.906 64.860 212.906C64.540 212.906 64.260 212.946 64.260 213.626C64.260 218.786 59.860 219.986 58.580 219.986C55.340 219.986 53.620 216.826 53.620 210.226C53.620 203.626 56.660 202.266 58.820 202.266C60.900 202.266 61.740 203.226 61.740 203.626C61.740 203.986 61.620 204.506 61.020 204.506C59.420 204.506 58.500 206.226 58.500 207.466C58.500 209.746 60.460 210.466 61.580 210.466C61.580 210.466 64.620 210.346 64.620 207.026C64.620 201.786 58.580 201.306 57.820 201.306Z"></path></g><g><line stroke="#000000" stroke-width="1.6" x1="766.1003899496786" x2="766.1003899496786" y1="191.3461538461538" y2="231.3461538461538"></line><line stroke="#000000" stroke-width="5" x1="773.4003899496787" x2="773.4003899496787" y1="191.3461538461538" y2="231.3461538461538"></line></g><g><g><path d="M93.360 221.986C97.360 221.986 102.280 218.266 102.280 214.466C102.280 212.186 100.480 210.706 97.880 210.706C92.960 210.706 89 214.346 89 218.226C89 220.586 90.920 221.986 93.360 221.986Z"></path></g><line stroke="#000000" stroke-width="1.2" x1="101.68" x2="101.68" y1="214.5061538461538" y2="114.50615384615381"></line><g><polygon fill="black" points="101.68,119.34615384615381 184.14469925119988,119.34615384615383 184.14469925119988,114.34615384615381 101.68,114.34615384615381" stroke="black" stroke-width="0"></polygon><polygon fill="black" points="184.14469925119988,119.34615384615383 266.60939850239976,119.34615384615381 266.60939850239976,114.34615384615381 184.14469925119988,114.34615384615381" stroke="black" stroke-width="0"></polygon><polygon fill="black" points="266.60939850239976,119.34615384615381 349.07409775359963,119.34615384615381 349.07409775359963,114.34615384615381 266.60939850239976,114.34615384615381" stroke="black" stroke-width="0"></polygon></g></g><g><g><path d="M175.825 211.986C179.825 211.986 184.745 208.266 184.745 204.466C184.745 202.186 182.945 200.706 180.345 200.706C175.425 200.706 171.465 204.346 171.465 208.226C171.465 210.586 173.385 211.986 175.825 211.986Z"></path></g><line stroke="#000000" stroke-width="1.2" x1="184.14469925119988" x2="184.14469925119988" y1="204.5061538461538" y2="114.50615384615381"></line></g><g><g><path d="M258.289 151.986C262.289 151.986 267.209 148.266 267.209 144.466C267.209 142.186 265.409 140.706 262.809 140.706C257.889 140.706 253.929 144.346 253.929 148.226C253.929 150.586 255.849 151.986 258.289 151.986Z"></path></g><line stroke="#000000" stroke-width="1.2" x1="266.60939850239976" x2="266.60939850239976" y1="144.5061538461538" y2="114.50615384615381"></line><line stroke="#000000" stroke-width="2.2" x1="250.7293985023998" x2="272.6493985023998" y1="181.3461538461538" y2="181.3461538461538"></line><line stroke="#000000" stroke-width="2.2" x1="250.7293985023998" x2="272.6493985023998" y1="171.3461538461538" y2="171.3461538461538"></line><line stroke="#000000" stroke-width="2.2" x1="250.7293985023998" x2="272.6493985023998" y1="161.3461538461538" y2="161.3461538461538"></line><line stroke="#000000" stroke-width="2.2" x1="250.7293985023998" x2="272.6493985023998" y1="151.3461538461538" y2="151.3461538461538"></line></g><g><g><path d="M340.754 281.986C344.754 281.986 349.674 278.266 349.674 274.466C349.674 272.186 347.874 270.706 345.274 270.706C340.354 270.706 336.394 274.346 336.394 278.226C336.394 280.586 338.314 281.986 340.754 281.986Z"></path></g><line stroke="#000000" stroke-width="1.2" x1="349.0740977535997" x2="349.0740977535997" y1="274.50615384615384" y2="114.50615384615384"></line><line stroke="#000000" stroke-width="2.2" x1="333.1940977535997" x2="355.1140977535997" y1="241.3461538461538" y2="241.3461538461538"></line><line stroke="#000000" stroke-width="2.2" x1="333.1940977535997" x2="355.1140977535997" y1="251.3461538461538" y2="251.3461538461538"></line><line stroke="#000000" stroke-width="2.2" x1="333.1940977535997" x2="355.1140977535997" y1="261.3461538461538" y2="261.3461538461538"></line><line stroke="#000000" stroke-width="2.2" x1="333.1940977535997" x2="355.1140977535997" y1="271.3461538461538" y2="271.3461538461538"></line></g><g><g><path d="M423.219 286.986C427.219 286.986 432.139 283.266 432.139 279.466C432.139 277.186 430.339 275.706 427.739 275.706C422.819 275.706 418.859 279.346 418.859 283.226C418.859 285.586 420.779 286.986 423.219 286.986Z"></path></g><line stroke="#000000" stroke-width="1.2" x1="431.53879700479956" x2="431.53879700479956" y1="279.50615384615384" y2="149.50615384615384"></line><line stroke="#000000" stroke-width="2.2" x1="415.65879700479957" x2="437.5787970047996" y1="241.3461538461538" y2="241.3461538461538"></line><line stroke="#000000" stroke-width="2.2" x1="415.65879700479957" x2="437.5787970047996" y1="251.3461538461538" y2="251.3461538461538"></line><line stroke="#000000" stroke-width="2.2" x1="415.65879700479957" x2="437.5787970047996" y1="261.3461538461538" y2="261.3461538461538"></line><line stroke="#000000" stroke-width="2.2" x1="415.65879700479957" x2="437.5787970047996" y1="271.3461538461538" y2="271.3461538461538"></line><line stroke="#000000" stroke-width="2.2" x1="415.65879700479957" x2="437.5787970047996" y1="281.3461538461538" y2="281.3461538461538"></line><g><polygon fill="black" points="431.53879700479956,154.3461538461538 514.0034962559994,154.3461538461538 514.0034962559994,149.3461538461538 431.53879700479956,149.3461538461538" stroke="black" stroke-width="0"></polygon></g></g><g><g><path d="M505.683 186.986C509.683 186.986 514.603 183.266 514.603 179.466C514.603 177.186 512.803 175.706 510.203 175.706C505.283 175.706 501.323 179.346 501.323 183.226C501.323 185.586 503.243 186.986 505.683 186.986Z"></path></g><line stroke="#000000" stroke-width="1.2" x1="514.0034962559994" x2="514.0034962559994" y1="179.5061538461538" y2="149.5061538461538"></line><line stroke="#000000" stroke-width="2.2" x1="498.12349625599944" x2="520.0434962559993" y1="181.3461538461538" y2="181.3461538461538"></line></g><g><g><path d="M588.148 186.986C592.148 186.986 597.068 183.266 597.068 179.466C597.068 177.186 595.268 175.706 592.668 175.706C587.748 175.706 583.788 179.346 583.788 183.226C583.788 185.586 585.708 186.986 588.148 186.986Z"></path></g><line stroke="#000000" stroke-width="1.2" x1="584.3881955071994" x2="584.3881955071994" y1="183.18615384615381" y2="284.18615384615384"></line><line stroke="#000000" stroke-width="2.2" x1="580.5881955071993" x2="602.5081955071993" y1="181.3461538461538" y2="181.3461538461538"></line><g><polygon fill="black" points="584.3881955071994,285.3461538461538 666.8528947583992,285.3461538461538 666.8528947583992,280.3461538461538 584.3881955071994,280.3461538461538" stroke="black" stroke-width="0"></polygon><polygon fill="black" points="666.8528947583992,285.3461538461538 716.376642354039,285.3461538461538 716.376642354039,280.3461538461538 666.8528947583992,280.3461538461538" stroke="black" stroke-width="0"></polygon><polygon fill="black" points="666.8528947583992,276.5461538461538 716.376642354039,276.5461538461538 716.376642354039,271.5461538461538 666.8528947583992,271.5461538461538" stroke="black" stroke-width="0"></polygon></g></g><g><g><path d="M670.613 251.986C674.613 251.986 679.533 248.266 679.533 244.466C679.533 242.186 677.733 240.706 675.133 240.706C670.213 240.706 666.253 244.346 666.253 248.226C666.253 250.586 668.173 251.986 670.613 251.986Z"></path></g><line stroke="#000000" stroke-width="1.2" x1="666.8528947583992" x2="666.8528947583992" y1="248.18615384615381" y2="284.18615384615384"></line><line stroke="#000000" stroke-width="2.2" x1="663.0528947583991" x2="684.9728947583991" y1="241.3461538461538" y2="241.3461538461538"></line></g><g><g><path d="M720.137 246.986C724.137 246.986 729.057 243.266 729.057 239.466C729.057 237.186 727.257 235.706 724.657 235.706C719.737 235.706 715.777 239.346 715.777 243.226C715.777 245.586 717.697 246.986 720.137 246.986Z"></path></g><line stroke="#000000" stroke-width="1.2" x1="716.376642354039" x2="716.376642354039" y1="243.18615384615381" y2="284.18615384615384"></line><line stroke="#000000" stroke-width="2.2" x1="712.5766423540389" x2="734.4966423540388" y1="241.3461538461538" y2="241.3461538461538"></line></g></g></svg>