<svg xmlns="http://www.w3.org/2000/svg" data-name="Layer 1" viewBox="0 0 90 85.64" x="0px" y="0px"><circle cx="18.51" cy="15.26" r="2.99"></circle><path d="M85.47,74.75c-2.66-.67-10.31-3-24.94.33,0,0,11-5.32,20.95-3.66,0,0,3.33-3.33,4-5.32,0,0,4-1,3.66-5s-14.63-20.95-20-28.26S50.07,18.38,44.9,15.57c-2.24-1.22-9.94-3.48-16-4.88a9.62,9.62,0,0,0-5-3.44C21,6.68,19,9.54,18.43,10.36c-2.39.74-5.75,1.8-6.78,2.22-1.66.67-4.84,3.72-4.32,6.65.78,4.43,4,7.32,5.65,9S17.41,37,26.06,41.61c0,0,3.55,8.87,1.22,14.19s-4,7.65-6.32,13.3c0,0-6.65-1-8.65-2.33-.81-.54-1.5-1-2-1.4a2.66,2.66,0,1,0-1.56,2c1.7,1.45,4.59,3.76,6.6,4.43L9.69,75.7A2.66,2.66,0,1,0,11,78.24C13.45,77,18,74.75,19,74.75c1.33,0,7.65,1,11-1.33,2.53-1.77,4.68-8.57,5.56-11.7a9.61,9.61,0,0,0,.34-3.14c-.2-3.55-.72-12.28-1.25-15.42,0,0,2.66,4,2.66,7,0,0,.33.33,3.66,4.32s15.63,8.65,15.63,8.65,10.31-3.33,19,0c0,0-12.3-.67-19.62,3,0,0-8,3.33-11.64,6.32-3.35,2.74-5.65,7.65.33,10s16,4.66,24.94,2.33,13.3-1.66,13.3-1.66l-13,3.66s-7.65,3.16-24.41-1.37a10.73,10.73,0,0,1-3.89-2l-1.63-1.3A54.79,54.79,0,0,1,29.83,82a2.67,2.67,0,1,0-.49,2.85l11.57.87-5.85,2.39a2.65,2.65,0,1,0,.9,2.63c2.24-.63,7.46-2,9.27-2,2.33,0,9,1.66,17,1.66s23.28,1,27.6-6S88.13,75.42,85.47,74.75ZM39.36,34.08C37.67,31.26,29.63,26.39,27.2,25a4.61,4.61,0,0,1-3.69,1.81A4.44,4.44,0,0,1,19,22.44a4.12,4.12,0,0,1,.18-1.18c-.48-.49-1.8-1.53-5.5-3.58a65.44,65.44,0,0,1,6.48,1.88,4.63,4.63,0,0,1,3.38-1.44,4.44,4.44,0,0,1,4.54,4.32,4.12,4.12,0,0,1-.13,1c3,1.49,11.73,7.41,12.77,9.06s6,11.53,6,11.53C44,41.84,41.35,37.4,39.36,34.08Z" transform="translate(-5 -7.18)"></path><path d="M36.43,75.55a2.67,2.67,0,1,0-1.24,2.69l3.72,2.17c-.67-.67,0-3.55,0-3.55Z" transform="translate(-5 -7.18)"></path><path d="M17.36,53.55a2.22,2.22,0,1,0,.93,1.91L23,54.25,20,58l-.18,0a2.22,2.22,0,1,0,2.22,2.22,2.19,2.19,0,0,0-.1-.64l2.76-2.25s.22-.89.67-3.55a11.91,11.91,0,0,0,0-4.43A1.65,1.65,0,0,0,23.18,48c-1.19.26-3.47.68-5.13,1a2.22,2.22,0,1,0,.14,1.68h4.1Z" transform="translate(-5 -7.18)"></path><path d="M94.78,57.57C93.45,53.14,81.48,40.51,75.27,37c0,0,14.41,20,15.74,23.94C91,60.9,96.11,62,94.78,57.57Z" transform="translate(-5 -7.18)"></path></svg>