<?xml version="1.0" encoding="UTF-8" standalone="no"?><svg xmlns="http://www.w3.org/2000/svg" height="279.4mm" viewBox="0 0 1328.6153846153845 1719.3846153846152" width="215.9mm"><g transform="translate(163.84615384615387)"><g><g><line stroke="#6A6A6A" stroke-width="1.3" x1="0" x2="268.18461538461537" y1="216.3461538461538" y2="216.3461538461538"></line><line stroke="#6A6A6A" stroke-width="1.3" x1="0" x2="268.18461538461537" y1="206.3461538461538" y2="206.3461538461538"></line><line stroke="#6A6A6A" stroke-width="1.3" x1="0" x2="268.18461538461537" y1="196.3461538461538" y2="196.3461538461538"></line><line stroke="#6A6A6A" stroke-width="1.3" x1="0" x2="268.18461538461537" y1="186.3461538461538" y2="186.3461538461538"></line><line stroke="#6A6A6A" stroke-width="1.3" x1="0" x2="268.18461538461537" y1="176.3461538461538" y2="176.3461538461538"></line></g><g><path d="M25.200 162.426C24.640 162.426 23.400 163.466 22.600 164.346C19.640 167.626 18.680 172.626 18.680 176.786C18.680 179.106 18.960 181.706 19.240 183.346C19.320 183.826 19.360 183.906 18.880 184.306C16.320 186.426 13.560 188.866 11.480 191.426C8.720 194.866 7 198.586 7 202.866C7 209.826 11.760 216.426 21.560 216.426C22.480 216.426 23.520 216.346 24.320 216.186C24.760 216.106 24.840 216.066 24.920 216.546C25.400 219.226 26 222.706 26 224.586C26 230.506 22 231.226 19.640 231.226C17.480 231.226 16.440 230.586 16.440 230.066C16.440 229.626 16.800 229.666 17.720 229.386C18.960 229.026 20.400 227.946 20.400 225.626C20.400 223.426 19 221.546 16.560 221.546C13.880 221.546 12.280 223.666 12.280 226.146C12.280 228.746 13.840 232.666 19.880 232.666C22.560 232.666 27.760 231.466 27.760 224.666C27.760 222.386 27.040 218.586 26.600 216.106C26.520 215.626 26.560 215.666 27.120 215.426C31.160 213.826 33.840 210.426 33.840 205.906C33.840 200.786 30.080 196.266 24.200 196.266C23.080 196.266 23.200 196.466 23.040 195.546L22.040 189.746C21.960 189.266 22.040 189.226 22.280 188.986C22.920 188.386 23.760 187.546 24.520 186.706C27.880 183.026 29.880 178.266 29.880 173.746C29.880 170.266 28.920 166.826 27.280 164.426C26.680 163.546 25.640 162.426 25.200 162.426ZM20.040 190.586C20.440 190.266 20.520 190.306 20.600 190.746L21.440 195.866C21.560 196.626 21.560 196.586 20.840 196.826C17.320 198.026 15.040 201.186 15.040 204.586C15.040 208.186 16.920 210.746 19.640 211.666C19.960 211.786 20.440 211.906 20.720 211.906C21.040 211.906 21.200 211.706 21.200 211.466C21.200 211.186 20.880 211.066 20.600 210.946C18.920 210.226 17.720 208.506 17.720 206.666C17.720 204.386 19.280 202.666 21.720 201.986C22.360 201.826 22.440 201.866 22.520 202.306L24.520 214.226C24.600 214.666 24.560 214.666 23.960 214.786C23.320 214.906 22.520 214.986 21.720 214.986C14.720 214.986 10.200 211.106 10.200 205.546C10.200 203.186 10.600 200.026 13.920 196.266C16.320 193.586 18.160 192.106 20.040 190.586ZM24.640 201.666C27.880 201.946 30.560 204.666 30.560 208.186C30.560 210.706 29.040 212.746 26.800 213.866C26.320 214.106 26.240 214.106 26.160 213.626L24.200 202.226C24.120 201.746 24.160 201.626 24.640 201.666ZM25.800 168.626C27.120 168.626 28.200 169.706 28.200 171.906C28.200 174.666 26.880 177.226 23.760 180.346C23.120 180.986 22.160 181.906 21.240 182.706C20.960 182.946 20.800 182.906 20.720 182.386C20.560 181.346 20.480 179.986 20.480 178.706C20.480 172.466 23.360 168.626 25.800 168.626Z"></path></g><g></g><path d="M57.820 186.306C56.620 186.306 55.220 186.626 54.140 187.106C50.580 188.666 48.700 192.946 48.700 196.746C48.700 197.106 48.700 197.466 48.740 197.826C48.940 199.986 49.980 202.026 51.300 203.626C52.820 205.466 55.020 206.306 57.420 206.306C64.420 206.306 65.460 199.946 65.460 198.786C65.460 197.906 65.020 197.906 64.860 197.906C64.540 197.906 64.260 197.946 64.260 198.626C64.260 203.786 59.860 204.986 58.580 204.986C55.340 204.986 53.620 201.826 53.620 195.226C53.620 188.626 56.660 187.266 58.820 187.266C60.900 187.266 61.740 188.226 61.740 188.626C61.740 188.986 61.620 189.506 61.020 189.506C59.420 189.506 58.500 191.226 58.500 192.466C58.500 194.746 60.460 195.466 61.580 195.466C61.580 195.466 64.620 195.346 64.620 192.026C64.620 186.786 58.580 186.306 57.820 186.306Z"></path></g><g><line stroke="black" stroke-width="1.6" x1="268.9846153846154" x2="268.9846153846154" y1="176.3461538461538" y2="216.3461538461538"></line></g><g><path d="M180.232 190.706L180.232 187.026C180.232 186.426 179.752 185.986 179.192 185.986L169.992 185.986C169.392 185.986 168.952 186.426 168.952 187.026L168.952 190.706C168.952 191.266 169.392 191.746 169.992 191.746L179.192 191.746C179.752 191.746 180.232 191.266 180.232 190.706Z"></path></g></g><g transform="translate(448.63076923076926)"><g><g><line stroke="#6A6A6A" stroke-width="1.3" x1="-16.600000000000023" x2="786.1384615384612" y1="216.3461538461538" y2="216.3461538461538"></line><line stroke="#6A6A6A" stroke-width="1.3" x1="-16.600000000000023" x2="786.1384615384612" y1="206.3461538461538" y2="206.3461538461538"></line><line stroke="#6A6A6A" stroke-width="1.3" x1="-16.600000000000023" x2="786.1384615384612" y1="196.3461538461538" y2="196.3461538461538"></line><line stroke="#6A6A6A" stroke-width="1.3" x1="-16.600000000000023" x2="786.1384615384612" y1="186.3461538461538" y2="186.3461538461538"></line><line stroke="#6A6A6A" stroke-width="1.3" x1="-16.600000000000023" x2="786.1384615384612" y1="176.3461538461538" y2="176.3461538461538"></line></g></g><g><line stroke="#000000" stroke-width="5" x1="181.68461538461537" x2="181.68461538461537" y1="176.3461538461538" y2="216.3461538461538"></line><line stroke="#000000" stroke-width="1.6" x1="188.98461538461538" x2="188.98461538461538" y1="176.3461538461538" y2="216.3461538461538"></line></g><g><path d="M86.932 190.706L86.932 187.026C86.932 186.426 86.452 185.986 85.892 185.986L76.692 185.986C76.092 185.986 75.652 186.426 75.652 187.026L75.652 190.706C75.652 191.266 76.092 191.746 76.692 191.746L85.892 191.746C86.452 191.746 86.932 191.266 86.932 190.706Z"></path></g></g><g transform="translate(653.4153846153846)"><g></g><g><line stroke="#000000" stroke-width="1.6" x1="179.98461538461538" x2="179.98461538461538" y1="176.3461538461538" y2="216.3461538461538"></line><line stroke="#000000" stroke-width="5" x1="187.28461538461536" x2="187.28461538461536" y1="176.3461538461538" y2="216.3461538461538"></line></g><g><path d="M82.432 190.706L82.432 187.026C82.432 186.426 81.952 185.986 81.392 185.986L72.192 185.986C71.592 185.986 71.152 186.426 71.152 187.026L71.152 190.706C71.152 191.266 71.592 191.746 72.192 191.746L81.392 191.746C81.952 191.746 82.432 191.266 82.432 190.706Z"></path></g></g><g transform="translate(858.1999999999999)"><g></g><g><line stroke="black" stroke-width="1.6" x1="179.98461538461538" x2="179.98461538461538" y1="176.3461538461538" y2="216.3461538461538"></line></g><g><path d="M82.432 190.706L82.432 187.026C82.432 186.426 81.952 185.986 81.392 185.986L72.192 185.986C71.592 185.986 71.152 186.426 71.152 187.026L71.152 190.706C71.152 191.266 71.592 191.746 72.192 191.746L81.392 191.746C81.952 191.746 82.432 191.266 82.432 190.706Z"></path></g></g><g transform="translate(1053.9846153846154)"><g></g><g><line stroke="black" stroke-width="1.6" x1="179.98461538461538" x2="179.98461538461538" y1="176.3461538461538" y2="216.3461538461538"></line></g><g><path d="M86.932 190.706L86.932 187.026C86.932 186.426 86.452 185.986 85.892 185.986L76.692 185.986C76.092 185.986 75.652 186.426 75.652 187.026L75.652 190.706C75.652 191.266 76.092 191.746 76.692 191.746L85.892 191.746C86.452 191.746 86.932 191.266 86.932 190.706Z"></path></g></g><g transform="translate(93.84615384615385)"><g><g><line stroke="#6A6A6A" stroke-width="1.3" x1="0" x2="879.7536155862638" y1="347.3461538461538" y2="347.3461538461538"></line><line stroke="#6A6A6A" stroke-width="1.3" x1="0" x2="879.7536155862638" y1="337.3461538461538" y2="337.3461538461538"></line><line stroke="#6A6A6A" stroke-width="1.3" x1="0" x2="879.7536155862638" y1="327.3461538461538" y2="327.3461538461538"></line><line stroke="#6A6A6A" stroke-width="1.3" x1="0" x2="879.7536155862638" y1="317.3461538461538" y2="317.3461538461538"></line><line stroke="#6A6A6A" stroke-width="1.3" x1="0" x2="879.7536155862638" y1="307.3461538461538" y2="307.3461538461538"></line></g><g><path d="M25.200 293.426C24.640 293.426 23.400 294.466 22.600 295.346C19.640 298.626 18.680 303.626 18.680 307.786C18.680 310.106 18.960 312.706 19.240 314.346C19.320 314.826 19.360 314.906 18.880 315.306C16.320 317.426 13.560 319.866 11.480 322.426C8.720 325.866 7 329.586 7 333.866C7 340.826 11.760 347.426 21.560 347.426C22.480 347.426 23.520 347.346 24.320 347.186C24.760 347.106 24.840 347.066 24.920 347.546C25.400 350.226 26 353.706 26 355.586C26 361.506 22 362.226 19.640 362.226C17.480 362.226 16.440 361.586 16.440 361.066C16.440 360.626 16.800 360.666 17.720 360.386C18.960 360.026 20.400 358.946 20.400 356.626C20.400 354.426 19 352.546 16.560 352.546C13.880 352.546 12.280 354.666 12.280 357.146C12.280 359.746 13.840 363.666 19.880 363.666C22.560 363.666 27.760 362.466 27.760 355.666C27.760 353.386 27.040 349.586 26.600 347.106C26.520 346.626 26.560 346.666 27.120 346.426C31.160 344.826 33.840 341.426 33.840 336.906C33.840 331.786 30.080 327.266 24.200 327.266C23.080 327.266 23.200 327.466 23.040 326.546L22.040 320.746C21.960 320.266 22.040 320.226 22.280 319.986C22.920 319.386 23.760 318.546 24.520 317.706C27.880 314.026 29.880 309.266 29.880 304.746C29.880 301.266 28.920 297.826 27.280 295.426C26.680 294.546 25.640 293.426 25.200 293.426ZM20.040 321.586C20.440 321.266 20.520 321.306 20.600 321.746L21.440 326.866C21.560 327.626 21.560 327.586 20.840 327.826C17.320 329.026 15.040 332.186 15.040 335.586C15.040 339.186 16.920 341.746 19.640 342.666C19.960 342.786 20.440 342.906 20.720 342.906C21.040 342.906 21.200 342.706 21.200 342.466C21.200 342.186 20.880 342.066 20.600 341.946C18.920 341.226 17.720 339.506 17.720 337.666C17.720 335.386 19.280 333.666 21.720 332.986C22.360 332.826 22.440 332.866 22.520 333.306L24.520 345.226C24.600 345.666 24.560 345.666 23.960 345.786C23.320 345.906 22.520 345.986 21.720 345.986C14.720 345.986 10.200 342.106 10.200 336.546C10.200 334.186 10.600 331.026 13.920 327.266C16.320 324.586 18.160 323.106 20.040 321.586ZM24.640 332.666C27.880 332.946 30.560 335.666 30.560 339.186C30.560 341.706 29.040 343.746 26.800 344.866C26.320 345.106 26.240 345.106 26.160 344.626L24.200 333.226C24.120 332.746 24.160 332.626 24.640 332.666ZM25.800 299.626C27.120 299.626 28.200 300.706 28.200 302.906C28.200 305.666 26.880 308.226 23.760 311.346C23.120 311.986 22.160 312.906 21.240 313.706C20.960 313.946 20.800 313.906 20.720 313.386C20.560 312.346 20.480 310.986 20.480 309.706C20.480 303.466 23.360 299.626 25.800 299.626Z"></path></g><g></g><text font-family='Alegreya' font-style='italic' text-anchor='end' stroke='#7a7a7a' font-size="24" x="0" y="297.3461538461538">6</text></g><g><line stroke="black" stroke-width="1.6" x1="308.7845385287546" x2="308.7845385287546" y1="307.3461538461538" y2="347.3461538461538"></line></g><g><path d="M179.882 321.706L179.882 318.026C179.882 317.426 179.402 316.986 178.842 316.986L169.642 316.986C169.042 316.986 168.602 317.426 168.602 318.026L168.602 321.706C168.602 322.266 169.042 322.746 169.642 322.746L178.842 322.746C179.402 322.746 179.882 322.266 179.882 321.706Z"></path></g></g><g transform="translate(418.4306923749085)"><g></g><g><line stroke="#000000" stroke-width="1.6" x1="260.2845385287546" x2="260.2845385287546" y1="307.3461538461538" y2="347.3461538461538"></line><line stroke="#000000" stroke-width="5" x1="267.5845385287546" x2="267.5845385287546" y1="307.3461538461538" y2="347.3461538461538"></line></g><g><path d="M127.082 321.706L127.082 318.026C127.082 317.426 126.602 316.986 126.042 316.986L116.842 316.986C116.242 316.986 115.802 317.426 115.802 318.026L115.802 321.706C115.802 322.266 116.242 322.746 116.842 322.746L126.042 322.746C126.602 322.746 127.082 322.266 127.082 321.706Z"></path></g></g><g transform="translate(703.515230903663)"><g></g><g><line stroke="#000000" stroke-width="1.6" x1="260.2845385287546" x2="260.2845385287546" y1="307.3461538461538" y2="347.3461538461538"></line><line stroke="#000000" stroke-width="5" x1="267.5845385287546" x2="267.5845385287546" y1="307.3461538461538" y2="347.3461538461538"></line></g><g><path d="M122.582 321.706L122.582 318.026C122.582 317.426 122.102 316.986 121.542 316.986L112.342 316.986C111.742 316.986 111.302 317.426 111.302 318.026L111.302 321.706C111.302 322.266 111.742 322.746 112.342 322.746L121.542 322.746C122.102 322.746 122.582 322.266 122.582 321.706Z"></path></g></g></svg>