<?xml version="1.0" encoding="UTF-8" standalone="no"?><svg xmlns="http://www.w3.org/2000/svg" height="279.4mm" viewBox="0 0 1328.6153846153845 1719.3846153846152" width="215.9mm"><g transform="translate(93.84615384615385)"><g><g><line stroke="#6A6A6A" stroke-width="1.3" x1="0" x2="89" y1="283.8461538461538" y2="283.8461538461538"></line><line stroke="#6A6A6A" stroke-width="1.3" x1="0" x2="89" y1="273.8461538461538" y2="273.8461538461538"></line><line stroke="#6A6A6A" stroke-width="1.3" x1="0" x2="89" y1="263.8461538461538" y2="263.8461538461538"></line><line stroke="#6A6A6A" stroke-width="1.3" x1="0" x2="89" y1="253.8461538461538" y2="253.8461538461538"></line><line stroke="#6A6A6A" stroke-width="1.3" x1="0" x2="89" y1="243.8461538461538" y2="243.8461538461538"></line></g><g><path d="M17.080 243.366C10.120 243.366 7 248.446 7 252.286C7 255.486 8.680 258.246 11.920 258.246C14.440 258.246 16.160 256.486 16.160 254.006C16.160 251.446 14.280 249.846 12.320 249.846C11.240 249.846 10.840 250.126 10.320 250.126C9.800 250.126 9.680 249.806 9.680 249.406C9.680 247.806 12.080 244.886 16.160 244.886C20.400 244.886 22.240 249.046 22.240 255.326C22.240 259.446 21.360 264.246 18.880 268.086C16.480 271.806 12.360 275.206 7.400 278.046C7.040 278.246 6.800 278.446 6.800 278.766C6.800 279.006 6.960 279.246 7.320 279.246C7.520 279.246 7.760 279.166 8 279.046C13.320 276.446 18.440 273.406 22.680 268.846C26.160 265.086 28.240 260.206 28.240 254.966C28.240 248.006 24 243.366 17.080 243.366ZM32.200 256.686C30.960 256.686 30.040 257.606 30.040 258.846C30.040 260.086 30.960 261.006 32.200 261.006C33.440 261.006 34.360 260.086 34.360 258.846C34.360 257.606 33.440 256.686 32.200 256.686ZM32.160 246.646C30.920 246.646 29.960 247.606 29.960 248.846C29.960 250.086 30.920 251.046 32.160 251.046C33.400 251.046 34.360 250.086 34.360 248.846C34.360 247.606 33.400 246.646 32.160 246.646Z"></path></g><g></g><g><g><path d="M65.180 256.806L62.260 256.806L62.260 248.246C62.260 247.926 62.220 247.566 61.780 247.566C61.420 247.566 61.220 247.646 60.980 247.926L57.180 252.526C57.020 252.726 56.820 252.966 56.820 253.446C56.820 253.446 56.820 255.046 56.820 256.806L51.420 256.806C54.620 254.086 61.020 245.006 61.140 244.566C61.140 244.486 61.180 244.446 61.180 244.366C61.180 244.046 60.900 243.806 60.580 243.806C60.220 243.806 58.580 243.886 57.860 243.886C57.140 243.886 55.340 243.806 55.020 243.806C54.660 243.806 54.100 243.926 54.100 244.566C54.100 249.526 50.180 255.086 48.980 256.766L48.740 257.086C48.740 257.126 48.700 257.166 48.700 257.206C48.620 257.366 48.580 257.526 48.580 257.646C48.580 258.046 48.900 258.326 49.380 258.326L56.820 258.326L56.820 260.846C56.820 261.926 55.940 262.246 55.220 262.246C54.580 262.246 54.300 262.606 54.300 263.006C54.300 263.406 54.460 263.846 55.060 263.846C55.700 263.846 63.580 263.846 63.580 263.846C63.980 263.846 64.380 263.566 64.380 263.006C64.380 262.446 63.900 262.206 63.500 262.206C63.100 262.206 62.260 261.966 62.260 260.686L62.260 258.326C63.980 258.326 65.180 258.326 65.180 258.326C65.580 258.326 65.780 258.046 65.780 257.566C65.780 257.086 65.620 256.806 65.180 256.806Z"></path></g><g><path d="M65.180 276.806L62.260 276.806L62.260 268.246C62.260 267.926 62.220 267.566 61.780 267.566C61.420 267.566 61.220 267.646 60.980 267.926L57.180 272.526C57.020 272.726 56.820 272.966 56.820 273.446C56.820 273.446 56.820 275.046 56.820 276.806L51.420 276.806C54.620 274.086 61.020 265.006 61.140 264.566C61.140 264.486 61.180 264.446 61.180 264.366C61.180 264.046 60.900 263.806 60.580 263.806C60.220 263.806 58.580 263.886 57.860 263.886C57.140 263.886 55.340 263.806 55.020 263.806C54.660 263.806 54.100 263.926 54.100 264.566C54.100 269.526 50.180 275.086 48.980 276.766L48.740 277.086C48.740 277.126 48.700 277.166 48.700 277.206C48.620 277.366 48.580 277.526 48.580 277.646C48.580 278.046 48.900 278.326 49.380 278.326L56.820 278.326L56.820 280.846C56.820 281.926 55.940 282.246 55.220 282.246C54.580 282.246 54.300 282.606 54.300 283.006C54.300 283.406 54.460 283.846 55.060 283.846C55.700 283.846 63.580 283.846 63.580 283.846C63.980 283.846 64.380 283.566 64.380 283.006C64.380 282.446 63.900 282.206 63.500 282.206C63.100 282.206 62.260 281.966 62.260 280.686L62.260 278.326C63.980 278.326 65.180 278.326 65.180 278.326C65.580 278.326 65.780 278.046 65.780 277.566C65.780 277.086 65.620 276.806 65.180 276.806Z"></path></g></g></g><g><line stroke="black" stroke-width="1.6" x1="1000.457732758959" x2="1000.457732758959" y1="143.3461538461538" y2="284.3461538461538"></line><line stroke="black" stroke-width="5" x1="1007.757732758959" x2="1007.757732758959" y1="143.3461538461538" y2="284.3461538461538"></line></g><g><line stroke="black" stroke-width="1.6" x1="1000.457732758959" x2="1000.457732758959" y1="143.3461538461538" y2="284.3461538461538"></line><line stroke="black" stroke-width="5" x1="1007.757732758959" x2="1007.757732758959" y1="143.3461538461538" y2="284.3461538461538"></line></g><g><g><path d="M93.360 184.486C97.360 184.486 102.280 180.766 102.280 176.966C102.280 174.686 100.480 173.206 97.880 173.206C92.960 173.206 89 176.846 89 180.726C89 183.086 90.920 184.486 93.360 184.486Z"></path></g><line stroke="#000000" stroke-width="1.2" x1="101.68" x2="101.68" y1="177.0061538461538" y2="139.0061538461538"></line></g><g><g><path d="M268.148 179.486C272.148 179.486 277.068 175.766 277.068 171.966C277.068 169.686 275.268 168.206 272.668 168.206C267.748 168.206 263.788 171.846 263.788 175.726C263.788 178.086 265.708 179.486 268.148 179.486Z"></path></g><line stroke="#000000" stroke-width="1.2" x1="276.4677019387152" x2="276.4677019387152" y1="172.0061538461538" y2="137.0061538461538"></line></g><g><g><path d="M480.833 174.486C484.833 174.486 489.753 170.766 489.753 166.966C489.753 164.686 487.953 163.206 485.353 163.206C480.433 163.206 476.473 166.846 476.473 170.726C476.473 173.086 478.393 174.486 480.833 174.486Z"></path></g><line stroke="#000000" stroke-width="1.2" x1="489.15336577472306" x2="489.15336577472306" y1="167.0061538461538" y2="129.0061538461538"></line></g><g><g><path d="M637.048 169.486C641.048 169.486 645.968 165.766 645.968 161.966C645.968 159.686 644.168 158.206 641.568 158.206C636.648 158.206 632.688 161.846 632.688 165.726C632.688 168.086 634.608 169.486 637.048 169.486Z"></path></g><line stroke="#000000" stroke-width="1.2" x1="633.2881144115931" x2="633.2881144115931" y1="165.68615384615381" y2="200.68615384615381"></line></g><g><g><path d="M833.255 164.486C837.255 164.486 842.175 160.766 842.175 156.966C842.175 154.686 840.375 153.206 837.775 153.206C832.855 153.206 828.895 156.846 828.895 160.726C828.895 163.086 830.815 164.486 833.255 164.486Z"></path></g><line stroke="#000000" stroke-width="1.2" x1="829.4952226365142" x2="829.4952226365142" y1="160.68615384615381" y2="198.68615384615381"></line></g><g><g><path d="M93.360 284.486C97.360 284.486 102.280 280.766 102.280 276.966C102.280 274.686 100.480 273.206 97.880 273.206C92.960 273.206 89 276.846 89 280.726C89 283.086 90.920 284.486 93.360 284.486Z"></path></g><line stroke="#000000" stroke-width="1.2" x1="101.68" x2="101.68" y1="277.00615384615384" y2="242.00615384615384"></line><g><polygon fill="black" points="101.68,246.8461538461538 189.0738509693576,241.8461538461538 189.0738509693576,236.8461538461538 101.68,241.8461538461538" stroke="black" stroke-width="0"></polygon></g></g><g><g><path d="M180.754 279.486C184.754 279.486 189.674 275.766 189.674 271.966C189.674 269.686 187.874 268.206 185.274 268.206C180.354 268.206 176.394 271.846 176.394 275.726C176.394 278.086 178.314 279.486 180.754 279.486Z"></path></g><line stroke="#000000" stroke-width="1.2" x1="189.0738509693576" x2="189.0738509693576" y1="272.00615384615384" y2="237.00615384615384"></line></g><g><g><path d="M268.148 274.486C272.148 274.486 277.068 270.766 277.068 266.966C277.068 264.686 275.268 263.206 272.668 263.206C267.748 263.206 263.788 266.846 263.788 270.726C263.788 273.086 265.708 274.486 268.148 274.486Z"></path></g><line stroke="#000000" stroke-width="1.2" x1="264.3877019387152" x2="264.3877019387152" y1="270.6861538461538" y2="304.6861538461538"></line><g><polygon fill="black" points="264.3877019387152,305.8461538461538 335.2829232173845,300.8461538461538 335.2829232173845,295.8461538461538 264.3877019387152,300.8461538461538" stroke="black" stroke-width="0"></polygon><polygon fill="black" points="335.2829232173845,300.8461538461538 406.1781444960538,295.8461538461538 406.1781444960538,290.8461538461538 335.2829232173845,295.8461538461538" stroke="black" stroke-width="0"></polygon></g></g><g><g><path d="M339.043 269.486C343.043 269.486 347.963 265.766 347.963 261.966C347.963 259.686 346.163 258.206 343.563 258.206C338.643 258.206 334.683 261.846 334.683 265.726C334.683 268.086 336.603 269.486 339.043 269.486Z"></path></g><line stroke="#000000" stroke-width="1.2" x1="335.2829232173845" x2="335.2829232173845" y1="265.6861538461538" y2="299.6861538461538"></line></g><g><g><path d="M409.938 264.486C413.938 264.486 418.858 260.766 418.858 256.966C418.858 254.686 417.058 253.206 414.458 253.206C409.538 253.206 405.578 256.846 405.578 260.726C405.578 263.086 407.498 264.486 409.938 264.486Z"></path></g><line stroke="#000000" stroke-width="1.2" x1="406.1781444960538" x2="406.1781444960538" y1="260.6861538461538" y2="294.6861538461538"></line></g><g><g><path d="M480.833 284.486C484.833 284.486 489.753 280.766 489.753 276.966C489.753 274.686 487.953 273.206 485.353 273.206C480.433 273.206 476.473 276.846 476.473 280.726C476.473 283.086 478.393 284.486 480.833 284.486Z"></path></g><line stroke="#000000" stroke-width="1.2" x1="489.15336577472306" x2="489.15336577472306" y1="277.00615384615384" y2="242.00615384615384"></line><g><polygon fill="black" points="489.15336577472306,246.8461538461538 548.3426229960226,242.57464499391787 548.3426229960226,237.57464499391784 489.15336577472306,241.8461538461538" stroke="black" stroke-width="0"></polygon><polygon fill="black" points="548.3426229960226,242.57464499391787 607.531880217322,238.30313614168193 607.531880217322,233.3031361416819 548.3426229960226,237.57464499391784" stroke="black" stroke-width="0"></polygon><polygon fill="black" points="607.531880217322,238.30313614168193 697.0047103539921,231.8461538461538 697.0047103539921,226.8461538461538 607.531880217322,233.3031361416819" stroke="black" stroke-width="0"></polygon></g></g><g><g><path d="M540.023 279.486C544.023 279.486 548.943 275.766 548.943 271.966C548.943 269.686 547.143 268.206 544.543 268.206C539.623 268.206 535.663 271.846 535.663 275.726C535.663 278.086 537.583 279.486 540.023 279.486Z"></path></g><line stroke="#000000" stroke-width="1.2" x1="548.3426229960226" x2="548.3426229960226" y1="272.00615384615384" y2="237.73464499391787"></line></g><g><g><path d="M599.212 274.486C603.212 274.486 608.132 270.766 608.132 266.966C608.132 264.686 606.332 263.206 603.732 263.206C598.812 263.206 594.852 266.846 594.852 270.726C594.852 273.086 596.772 274.486 599.212 274.486Z"></path></g><line stroke="#000000" stroke-width="1.2" x1="607.531880217322" x2="607.531880217322" y1="267.00615384615384" y2="233.46313614168193"></line></g><g><g><path d="M688.685 269.486C692.685 269.486 697.605 265.766 697.605 261.966C697.605 259.686 695.805 258.206 693.205 258.206C688.285 258.206 684.325 261.846 684.325 265.726C684.325 268.086 686.245 269.486 688.685 269.486Z"></path></g><line stroke="#000000" stroke-width="1.2" x1="697.0047103539921" x2="697.0047103539921" y1="262.00615384615384" y2="227.00615384615384"></line></g><g><g><path d="M747.874 264.486C751.874 264.486 756.794 260.766 756.794 256.966C756.794 254.686 754.994 253.206 752.394 253.206C747.474 253.206 743.514 256.846 743.514 260.726C743.514 263.086 745.434 264.486 747.874 264.486Z"></path></g><line stroke="#000000" stroke-width="1.2" x1="744.1139675752918" x2="744.1139675752918" y1="260.6861538461538" y2="294.6861538461538"></line><g><polygon fill="black" points="744.1139675752918,295.8461538461538 786.804595105903,290.8461538461538 786.804595105903,285.8461538461538 744.1139675752918,290.8461538461538" stroke="black" stroke-width="0"></polygon><polygon fill="black" points="786.804595105903,290.8461538461538 829.4952226365142,285.8461538461538 829.4952226365142,280.8461538461538 786.804595105903,285.8461538461538" stroke="black" stroke-width="0"></polygon><polygon fill="black" points="829.4952226365142,285.8461538461538 872.1858501671254,280.8461538461538 872.1858501671254,275.8461538461538 829.4952226365142,280.8461538461538" stroke="black" stroke-width="0"></polygon><polygon fill="black" points="872.1858501671254,280.8461538461538 914.8764776977366,275.8461538461538 914.8764776977366,270.8461538461538 872.1858501671254,275.8461538461538" stroke="black" stroke-width="0"></polygon><polygon fill="black" points="914.8764776977366,275.8461538461538 957.5671052283478,270.8461538461538 957.5671052283478,265.8461538461538 914.8764776977366,270.8461538461538" stroke="black" stroke-width="0"></polygon></g></g><g><g><path d="M790.565 259.486C794.565 259.486 799.485 255.766 799.485 251.966C799.485 249.686 797.685 248.206 795.085 248.206C790.165 248.206 786.205 251.846 786.205 255.726C786.205 258.086 788.125 259.486 790.565 259.486Z"></path></g><line stroke="#000000" stroke-width="1.2" x1="786.804595105903" x2="786.804595105903" y1="255.68615384615381" y2="289.68615384615384"></line></g><g><g><path d="M833.255 254.486C837.255 254.486 842.175 250.766 842.175 246.966C842.175 244.686 840.375 243.206 837.775 243.206C832.855 243.206 828.895 246.846 828.895 250.726C828.895 253.086 830.815 254.486 833.255 254.486Z"></path></g><line stroke="#000000" stroke-width="1.2" x1="829.4952226365142" x2="829.4952226365142" y1="250.68615384615381" y2="284.68615384615384"></line></g><g><g><path d="M875.946 249.486C879.946 249.486 884.866 245.766 884.866 241.966C884.866 239.686 883.066 238.206 880.466 238.206C875.546 238.206 871.586 241.846 871.586 245.726C871.586 248.086 873.506 249.486 875.946 249.486Z"></path></g><line stroke="#000000" stroke-width="1.2" x1="872.1858501671254" x2="872.1858501671254" y1="245.68615384615381" y2="279.68615384615384"></line></g><g><g><path d="M918.636 244.486C922.636 244.486 927.556 240.766 927.556 236.966C927.556 234.686 925.756 233.206 923.156 233.206C918.236 233.206 914.276 236.846 914.276 240.726C914.276 243.086 916.196 244.486 918.636 244.486Z"></path></g><line stroke="#000000" stroke-width="1.2" x1="914.8764776977366" x2="914.8764776977366" y1="240.68615384615381" y2="274.68615384615384"></line></g><g><g><path d="M961.327 239.486C965.327 239.486 970.247 235.766 970.247 231.966C970.247 229.686 968.447 228.206 965.847 228.206C960.927 228.206 956.967 231.846 956.967 235.726C956.967 238.086 958.887 239.486 961.327 239.486Z"></path></g><line stroke="#000000" stroke-width="1.2" x1="957.5671052283478" x2="957.5671052283478" y1="235.68615384615381" y2="269.68615384615384"></line><line stroke="#000000" stroke-width="2.2" x1="953.7671052283478" x2="975.6871052283477" y1="233.8461538461538" y2="233.8461538461538"></line></g></g></svg>