<?xml version="1.0" encoding="UTF-8" standalone="no"?><svg xmlns="http://www.w3.org/2000/svg" height="279.4mm" viewBox="0 0 1328.6153846153845 1719.3846153846152" width="215.9mm"><g transform="translate(93.84615384615385)"><g><g><line stroke="#6A6A6A" stroke-width="1.3" x1="0" x2="124.33441478470968" y1="198.8461538461538" y2="198.8461538461538"></line><line stroke="#6A6A6A" stroke-width="1.3" x1="0" x2="124.33441478470968" y1="188.8461538461538" y2="188.8461538461538"></line><line stroke="#6A6A6A" stroke-width="1.3" x1="0" x2="124.33441478470968" y1="178.8461538461538" y2="178.8461538461538"></line><line stroke="#6A6A6A" stroke-width="1.3" x1="0" x2="124.33441478470968" y1="168.8461538461538" y2="168.8461538461538"></line><line stroke="#6A6A6A" stroke-width="1.3" x1="0" x2="124.33441478470968" y1="158.8461538461538" y2="158.8461538461538"></line></g><g><path d="M25.200 144.926C24.640 144.926 23.400 145.966 22.600 146.846C19.640 150.126 18.680 155.126 18.680 159.286C18.680 161.606 18.960 164.206 19.240 165.846C19.320 166.326 19.360 166.406 18.880 166.806C16.320 168.926 13.560 171.366 11.480 173.926C8.720 177.366 7 181.086 7 185.366C7 192.326 11.760 198.926 21.560 198.926C22.480 198.926 23.520 198.846 24.320 198.686C24.760 198.606 24.840 198.566 24.920 199.046C25.400 201.726 26 205.206 26 207.086C26 213.006 22 213.726 19.640 213.726C17.480 213.726 16.440 213.086 16.440 212.566C16.440 212.126 16.800 212.166 17.720 211.886C18.960 211.526 20.400 210.446 20.400 208.126C20.400 205.926 19 204.046 16.560 204.046C13.880 204.046 12.280 206.166 12.280 208.646C12.280 211.246 13.840 215.166 19.880 215.166C22.560 215.166 27.760 213.966 27.760 207.166C27.760 204.886 27.040 201.086 26.600 198.606C26.520 198.126 26.560 198.166 27.120 197.926C31.160 196.326 33.840 192.926 33.840 188.406C33.840 183.286 30.080 178.766 24.200 178.766C23.080 178.766 23.200 178.966 23.040 178.046L22.040 172.246C21.960 171.766 22.040 171.726 22.280 171.486C22.920 170.886 23.760 170.046 24.520 169.206C27.880 165.526 29.880 160.766 29.880 156.246C29.880 152.766 28.920 149.326 27.280 146.926C26.680 146.046 25.640 144.926 25.200 144.926ZM20.040 173.086C20.440 172.766 20.520 172.806 20.600 173.246L21.440 178.366C21.560 179.126 21.560 179.086 20.840 179.326C17.320 180.526 15.040 183.686 15.040 187.086C15.040 190.686 16.920 193.246 19.640 194.166C19.960 194.286 20.440 194.406 20.720 194.406C21.040 194.406 21.200 194.206 21.200 193.966C21.200 193.686 20.880 193.566 20.600 193.446C18.920 192.726 17.720 191.006 17.720 189.166C17.720 186.886 19.280 185.166 21.720 184.486C22.360 184.326 22.440 184.366 22.520 184.806L24.520 196.726C24.600 197.166 24.560 197.166 23.960 197.286C23.320 197.406 22.520 197.486 21.720 197.486C14.720 197.486 10.200 193.606 10.200 188.046C10.200 185.686 10.600 182.526 13.920 178.766C16.320 176.086 18.160 174.606 20.040 173.086ZM24.640 184.166C27.880 184.446 30.560 187.166 30.560 190.686C30.560 193.206 29.040 195.246 26.800 196.366C26.320 196.606 26.240 196.606 26.160 196.126L24.200 184.726C24.120 184.246 24.160 184.126 24.640 184.166ZM25.800 151.126C27.120 151.126 28.200 152.206 28.200 154.406C28.200 157.166 26.880 159.726 23.760 162.846C23.120 163.486 22.160 164.406 21.240 165.206C20.960 165.446 20.800 165.406 20.720 164.886C20.560 163.846 20.480 162.486 20.480 161.206C20.480 154.966 23.360 151.126 25.800 151.126Z"></path></g><g></g><path d="M57.820 168.806C56.620 168.806 55.220 169.126 54.140 169.606C50.580 171.166 48.700 175.446 48.700 179.246C48.700 179.606 48.700 179.966 48.740 180.326C48.940 182.486 49.980 184.526 51.300 186.126C52.820 187.966 55.020 188.806 57.420 188.806C64.420 188.806 65.460 182.446 65.460 181.286C65.460 180.406 65.020 180.406 64.860 180.406C64.540 180.406 64.260 180.446 64.260 181.126C64.260 186.286 59.860 187.486 58.580 187.486C55.340 187.486 53.620 184.326 53.620 177.726C53.620 171.126 56.660 169.766 58.820 169.766C60.900 169.766 61.740 170.726 61.740 171.126C61.740 171.486 61.620 172.006 61.020 172.006C59.420 172.006 58.500 173.726 58.500 174.966C58.500 177.246 60.460 177.966 61.580 177.966C61.580 177.966 64.620 177.846 64.620 174.526C64.620 169.286 58.580 168.806 57.820 168.806Z"></path></g><g><line stroke="black" stroke-width="1.6" x1="125.13441478470968" x2="125.13441478470968" y1="158.8461538461538" y2="198.8461538461538"></line></g><g><g><path d="M98.400 203.366C92.600 203.366 89 205.806 89 208.766C89 211.686 91.480 214.286 97.960 214.286C105.080 214.286 107.360 211.806 107.360 208.766C107.360 205.686 102.440 203.366 98.400 203.366ZM93.840 206.086C94.320 204.606 95.920 204.366 97.280 204.366C100.240 204.366 102.640 207.566 102.640 210.206C102.640 210.486 102.600 210.766 102.560 211.006C102.360 212.086 101.720 212.846 100.640 213.126C100.200 213.246 99.760 213.286 99.320 213.286C98.920 213.286 98.560 213.246 98.160 213.126C97.440 212.886 96.720 212.486 96.120 211.966C95.800 211.686 95.480 211.366 95.200 211.006C94.360 210.006 93.680 208.526 93.680 207.166C93.680 206.806 93.720 206.446 93.840 206.086Z"></path></g><line stroke="#000000" stroke-width="2.2" x1="85.8" x2="112.6" y1="208.8461538461538" y2="208.8461538461538"></line></g></g><g transform="translate(234.7805686308635)"><g><g><line stroke="#6A6A6A" stroke-width="1.3" x1="-16.599999999999994" x2="59.034414784709696" y1="198.8461538461538" y2="198.8461538461538"></line><line stroke="#6A6A6A" stroke-width="1.3" x1="-16.599999999999994" x2="59.034414784709696" y1="188.8461538461538" y2="188.8461538461538"></line><line stroke="#6A6A6A" stroke-width="1.3" x1="-16.599999999999994" x2="59.034414784709696" y1="178.8461538461538" y2="178.8461538461538"></line><line stroke="#6A6A6A" stroke-width="1.3" x1="-16.599999999999994" x2="59.034414784709696" y1="168.8461538461538" y2="168.8461538461538"></line><line stroke="#6A6A6A" stroke-width="1.3" x1="-16.599999999999994" x2="59.034414784709696" y1="158.8461538461538" y2="158.8461538461538"></line></g><g><path d="M16.740 186.006C16.740 182.926 14.740 179.846 10.900 179.846C9.620 179.846 9.180 180.686 8.820 180.686C8.420 180.686 8.020 180.086 7.780 179.686C7.660 179.366 7.460 179.126 7.460 178.846C7.460 178.606 7.580 178.486 7.740 178.126C7.780 178.046 7.860 178.046 7.860 177.966C8.100 177.606 8.500 177.046 8.820 177.046C9.180 177.046 9.620 177.806 10.900 177.806C14.740 177.806 16.740 174.766 16.740 171.726C16.740 168.686 14.180 165.566 10.380 165.566C6.540 165.566 5.380 168.086 5.380 169.166C5.380 170.286 6.260 171.486 7.420 171.486C8.540 171.486 9.620 170.526 9.620 169.486C9.620 168.566 8.420 167.926 8.180 167.726C8.100 167.646 7.700 167.566 7.700 167.406C7.700 167.366 7.700 167.326 7.780 167.286C8.300 166.766 8.900 166.606 9.500 166.606C11.780 166.606 12.300 168.566 12.300 170.206L12.300 173.366C12.300 175.406 12.220 176.126 10.460 176.126C8.740 176.126 8.060 175.406 7.660 174.086C7.460 173.526 7.260 173.326 7.060 173.326C6.780 173.326 6.540 173.726 6.460 174.086C5.780 177.246 4.740 177.406 3.980 177.486L3.980 166.166C3.980 165.806 3.380 165.566 3.060 165.566C2.740 165.566 2.500 165.806 2.500 166.166L2.500 191.566C2.500 191.886 2.740 192.126 3.060 192.126C3.380 192.126 3.980 191.886 3.980 191.566L3.980 180.206C4.740 180.286 5.780 180.446 6.460 183.606C6.540 183.966 6.780 184.366 7.060 184.366C7.260 184.366 7.460 184.166 7.660 183.606C8.060 182.286 8.740 181.526 10.460 181.526C12.220 181.526 12.300 182.286 12.300 184.366L12.300 187.486C12.300 189.166 11.780 191.046 9.500 191.046C8.420 191.046 8.060 190.686 7.820 190.446C7.740 190.366 7.700 190.326 7.700 190.286C7.700 190.126 8.020 190.046 8.100 189.966C8.380 189.686 9.620 189.246 9.620 188.166C9.620 187.126 8.540 186.166 7.420 186.166C6.260 186.166 5.380 187.406 5.380 188.486C5.380 189.566 6.540 192.126 10.380 192.126C14.180 192.126 16.740 189.006 16.740 186.006ZM0.580 166.166C0.580 165.846 0.340 165.566-0.020 165.566L-2.900 165.566C-3.220 165.566-3.500 165.846-3.500 166.166L-3.500 191.526C-3.500 191.846-3.220 192.126-2.900 192.126L-0.020 192.126C0.340 192.126 0.580 191.846 0.580 191.526Z"></path></g></g><g><line stroke="black" stroke-width="1.6" x1="59.83441478470968" x2="59.83441478470968" y1="158.8461538461538" y2="198.8461538461538"></line></g><g><g><path d="M33.100 173.366C27.300 173.366 23.700 175.806 23.700 178.766C23.700 181.686 26.180 184.286 32.660 184.286C39.780 184.286 42.060 181.806 42.060 178.766C42.060 175.686 37.140 173.366 33.100 173.366ZM28.540 176.086C29.020 174.606 30.620 174.366 31.980 174.366C34.940 174.366 37.340 177.566 37.340 180.206C37.340 180.486 37.300 180.766 37.260 181.006C37.060 182.086 36.420 182.846 35.340 183.126C34.900 183.246 34.460 183.286 34.020 183.286C33.620 183.286 33.260 183.246 32.860 183.126C32.140 182.886 31.420 182.486 30.820 181.966C30.500 181.686 30.180 181.366 29.900 181.006C29.060 180.006 28.380 178.526 28.380 177.166C28.380 176.806 28.420 176.446 28.540 176.086Z"></path></g></g></g><g transform="translate(310.4149834155732)"><g><g><line stroke="#6A6A6A" stroke-width="1.3" x1="-16.599999999999966" x2="45.387842360925504" y1="198.8461538461538" y2="198.8461538461538"></line><line stroke="#6A6A6A" stroke-width="1.3" x1="-16.599999999999966" x2="45.387842360925504" y1="188.8461538461538" y2="188.8461538461538"></line><line stroke="#6A6A6A" stroke-width="1.3" x1="-16.599999999999966" x2="45.387842360925504" y1="178.8461538461538" y2="178.8461538461538"></line><line stroke="#6A6A6A" stroke-width="1.3" x1="-16.599999999999966" x2="45.387842360925504" y1="168.8461538461538" y2="168.8461538461538"></line><line stroke="#6A6A6A" stroke-width="1.3" x1="-16.599999999999966" x2="45.387842360925504" y1="158.8461538461538" y2="158.8461538461538"></line></g></g><g><g><line stroke="#6A6A6A" stroke-width="1.3" x1="-3.552713678800501e-15" x2="67.07568472185102" y1="198.8461538461538" y2="198.8461538461538"></line><line stroke="#6A6A6A" stroke-width="1.3" x1="-3.552713678800501e-15" x2="67.07568472185102" y1="188.8461538461538" y2="188.8461538461538"></line><line stroke="#6A6A6A" stroke-width="1.3" x1="-3.552713678800501e-15" x2="67.07568472185102" y1="178.8461538461538" y2="178.8461538461538"></line><line stroke="#6A6A6A" stroke-width="1.3" x1="-3.552713678800501e-15" x2="67.07568472185102" y1="168.8461538461538" y2="168.8461538461538"></line><line stroke="#6A6A6A" stroke-width="1.3" x1="-3.552713678800501e-15" x2="67.07568472185102" y1="158.8461538461538" y2="158.8461538461538"></line></g><g><path d="M38.428 176.006C38.428 172.926 36.428 169.846 32.588 169.846C31.308 169.846 30.868 170.686 30.508 170.686C30.108 170.686 29.708 170.086 29.468 169.686C29.348 169.366 29.148 169.126 29.148 168.846C29.148 168.606 29.268 168.486 29.428 168.126C29.468 168.046 29.548 168.046 29.548 167.966C29.788 167.606 30.188 167.046 30.508 167.046C30.868 167.046 31.308 167.806 32.588 167.806C36.428 167.806 38.428 164.766 38.428 161.726C38.428 158.686 35.868 155.566 32.068 155.566C28.228 155.566 27.068 158.086 27.068 159.166C27.068 160.286 27.948 161.486 29.108 161.486C30.228 161.486 31.308 160.526 31.308 159.486C31.308 158.566 30.108 157.926 29.868 157.726C29.788 157.646 29.388 157.566 29.388 157.406C29.388 157.366 29.388 157.326 29.468 157.286C29.988 156.766 30.588 156.606 31.188 156.606C33.468 156.606 33.988 158.566 33.988 160.206L33.988 163.366C33.988 165.406 33.908 166.126 32.148 166.126C30.428 166.126 29.748 165.406 29.348 164.086C29.148 163.526 28.948 163.326 28.748 163.326C28.468 163.326 28.228 163.726 28.148 164.086C27.468 167.246 26.428 167.406 25.668 167.486L25.668 156.166C25.668 155.806 25.068 155.566 24.748 155.566C24.428 155.566 24.188 155.806 24.188 156.166L24.188 181.566C24.188 181.886 24.428 182.126 24.748 182.126C25.068 182.126 25.668 181.886 25.668 181.566L25.668 170.206C26.428 170.286 27.468 170.446 28.148 173.606C28.228 173.966 28.468 174.366 28.748 174.366C28.948 174.366 29.148 174.166 29.348 173.606C29.748 172.286 30.428 171.526 32.148 171.526C33.908 171.526 33.988 172.286 33.988 174.366L33.988 177.486C33.988 179.166 33.468 181.046 31.188 181.046C30.108 181.046 29.748 180.686 29.508 180.446C29.428 180.366 29.388 180.326 29.388 180.286C29.388 180.126 29.708 180.046 29.788 179.966C30.068 179.686 31.308 179.246 31.308 178.166C31.308 177.126 30.228 176.166 29.108 176.166C27.948 176.166 27.068 177.406 27.068 178.486C27.068 179.566 28.228 182.126 32.068 182.126C35.868 182.126 38.428 179.006 38.428 176.006ZM22.268 156.166C22.268 155.846 22.028 155.566 21.668 155.566L18.788 155.566C18.468 155.566 18.188 155.846 18.188 156.166L18.188 181.526C18.188 181.846 18.468 182.126 18.788 182.126L21.668 182.126C22.028 182.126 22.268 181.846 22.268 181.526Z"></path></g></g><g><line stroke="black" stroke-width="1.6" x1="67.87568472185102" x2="67.87568472185102" y1="158.8461538461538" y2="198.8461538461538"></line></g><g><g><path d="M4.480 184.646C12.120 184.646 13.640 178.446 13.640 176.926C13.640 174.566 11.760 173.046 9.080 173.046C2.160 173.046 0 178.406 0 180.806C0 183.246 1.960 184.646 4.480 184.646ZM8 180.966C5.920 182.366 4.480 182.846 3.480 182.846C2.520 182.846 1.960 182.366 1.640 181.806C1.480 181.526 1.360 181.206 1.360 180.886C1.360 179.886 2.360 178.606 5.560 176.766C7.840 175.446 9.280 174.966 10.240 174.966C11.120 174.966 11.600 175.366 11.920 175.926C12.080 176.206 12.200 176.486 12.200 176.806C12.200 177.726 11.240 178.846 8 180.966Z"></path></g><line stroke="#000000" stroke-width="1.2" x1="0.6" x2="0.6" y1="180.80615384615382" y2="215.80615384615382"></line></g><g><g><path d="M49.868 174.646C57.508 174.646 59.028 168.446 59.028 166.926C59.028 164.566 57.148 163.046 54.468 163.046C47.548 163.046 45.388 168.406 45.388 170.806C45.388 173.246 47.348 174.646 49.868 174.646ZM53.388 170.966C51.308 172.366 49.868 172.846 48.868 172.846C47.908 172.846 47.348 172.366 47.028 171.806C46.868 171.526 46.748 171.206 46.748 170.886C46.748 169.886 47.748 168.606 50.948 166.766C53.228 165.446 54.668 164.966 55.628 164.966C56.508 164.966 56.988 165.366 57.308 165.926C57.468 166.206 57.588 166.486 57.588 166.806C57.588 167.726 56.628 168.846 53.388 170.966Z"></path></g><line stroke="#000000" stroke-width="1.2" x1="45.98784236092552" x2="45.98784236092552" y1="170.80615384615382" y2="205.80615384615382"></line></g></g><g transform="translate(394.09066813742425)"><g><g><line stroke="#6A6A6A" stroke-width="1.3" x1="-16.599999999999966" x2="59.03441478470967" y1="198.8461538461538" y2="198.8461538461538"></line><line stroke="#6A6A6A" stroke-width="1.3" x1="-16.599999999999966" x2="59.03441478470967" y1="188.8461538461538" y2="188.8461538461538"></line><line stroke="#6A6A6A" stroke-width="1.3" x1="-16.599999999999966" x2="59.03441478470967" y1="178.8461538461538" y2="178.8461538461538"></line><line stroke="#6A6A6A" stroke-width="1.3" x1="-16.599999999999966" x2="59.03441478470967" y1="168.8461538461538" y2="168.8461538461538"></line><line stroke="#6A6A6A" stroke-width="1.3" x1="-16.599999999999966" x2="59.03441478470967" y1="158.8461538461538" y2="158.8461538461538"></line></g><g><path d="M2.980 162.046C-1.500 162.046-3.500 166.166-3.500 168.606C-3.500 168.726-3.500 168.846-3.460 168.966C-3.180 171.366-1.660 172.606-0.140 172.606L0.020 172.606C1.620 172.606 3.260 170.846 3.260 169.246C3.260 166.886 1.180 166.486 0.060 166.486L-0.700 166.486C-1.260 166.486-1.340 166.166-1.340 165.926C-1.340 165.846-1.300 165.766-1.300 165.766C-0.380 163.646 1.260 163.406 1.980 163.406C2.220 163.406 2.380 163.446 2.380 163.446C3.220 163.446 3.900 163.806 4.500 164.446C5.460 165.566 5.580 166.806 5.740 168.166C5.740 168.206 5.780 168.286 5.780 168.486C5.860 168.966 5.860 169.486 5.860 169.966C5.860 171.926 5.540 173.966 4.940 175.806C4.020 178.486 2.660 180.206 0.420 181.926C-0.820 182.886-2.220 183.486-3.580 184.246C-3.980 184.486-4.100 184.846-4.100 184.966C-4.100 185.166-3.740 185.406-3.580 185.406C-0.500 185.406 3.100 182.646 5.100 180.646C6.980 178.766 8.460 176.566 9.380 174.406C10.100 172.766 10.500 171.126 10.500 169.726L10.500 169.566C10.420 166.806 9.340 165.046 8.020 163.966C5.860 162.206 3.140 162.046 3.140 162.046ZM13.220 170.486C12.300 170.486 11.500 171.286 11.500 172.246C11.500 173.206 12.300 174.006 13.220 174.006C14.220 174.006 15.020 173.206 15.020 172.246C15.020 171.286 14.220 170.486 13.220 170.486ZM13.220 163.766C12.220 163.766 11.460 164.526 11.460 165.486C11.460 166.486 12.220 167.286 13.220 167.286C14.180 167.286 14.980 166.486 14.980 165.486C14.980 164.526 14.180 163.766 13.220 163.766Z"></path></g></g><g><line stroke="black" stroke-width="1.6" x1="59.83441478470968" x2="59.83441478470968" y1="158.8461538461538" y2="198.8461538461538"></line></g><g><g><path d="M33.100 143.366C27.300 143.366 23.700 145.806 23.700 148.766C23.700 151.686 26.180 154.286 32.660 154.286C39.780 154.286 42.060 151.806 42.060 148.766C42.060 145.686 37.140 143.366 33.100 143.366ZM28.540 146.086C29.020 144.606 30.620 144.366 31.980 144.366C34.940 144.366 37.340 147.566 37.340 150.206C37.340 150.486 37.300 150.766 37.260 151.006C37.060 152.086 36.420 152.846 35.340 153.126C34.900 153.246 34.460 153.286 34.020 153.286C33.620 153.286 33.260 153.246 32.860 153.126C32.140 152.886 31.420 152.486 30.820 151.966C30.500 151.686 30.180 151.366 29.900 151.006C29.060 150.006 28.380 148.526 28.380 147.166C28.380 146.806 28.420 146.446 28.540 146.086Z"></path></g><line stroke="#000000" stroke-width="2.2" x1="20.5" x2="47.3" y1="148.8461538461538" y2="148.8461538461538"></line></g></g><g transform="translate(469.72508292213394)"><g><g><line stroke="#6A6A6A" stroke-width="1.3" x1="-16.600000000000023" x2="59.03441478470967" y1="198.8461538461538" y2="198.8461538461538"></line><line stroke="#6A6A6A" stroke-width="1.3" x1="-16.600000000000023" x2="59.03441478470967" y1="188.8461538461538" y2="188.8461538461538"></line><line stroke="#6A6A6A" stroke-width="1.3" x1="-16.600000000000023" x2="59.03441478470967" y1="178.8461538461538" y2="178.8461538461538"></line><line stroke="#6A6A6A" stroke-width="1.3" x1="-16.600000000000023" x2="59.03441478470967" y1="168.8461538461538" y2="168.8461538461538"></line><line stroke="#6A6A6A" stroke-width="1.3" x1="-16.600000000000023" x2="59.03441478470967" y1="158.8461538461538" y2="158.8461538461538"></line></g><g><path d="M2.900 188.246L2.900 169.446C2.900 169.126 2.660 168.846 2.340 168.846L-2.940 168.846C-3.260 168.846-3.500 169.126-3.500 169.446L-3.500 188.246C-3.500 188.566-3.260 188.846-2.940 188.846L2.340 188.846C2.660 188.846 2.900 188.566 2.900 188.246ZM11.780 169.446C11.780 169.126 11.540 168.846 11.220 168.846L5.940 168.846C5.620 168.846 5.380 169.126 5.380 169.446L5.380 188.246C5.380 188.566 5.620 188.846 5.940 188.846L11.220 188.846C11.540 188.846 11.780 188.566 11.780 188.246Z"></path></g></g><g><line stroke="black" stroke-width="1.6" x1="59.83441478470968" x2="59.83441478470968" y1="158.8461538461538" y2="198.8461538461538"></line></g><g><g><path d="M33.100 173.366C27.300 173.366 23.700 175.806 23.700 178.766C23.700 181.686 26.180 184.286 32.660 184.286C39.780 184.286 42.060 181.806 42.060 178.766C42.060 175.686 37.140 173.366 33.100 173.366ZM28.540 176.086C29.020 174.606 30.620 174.366 31.980 174.366C34.940 174.366 37.340 177.566 37.340 180.206C37.340 180.486 37.300 180.766 37.260 181.006C37.060 182.086 36.420 182.846 35.340 183.126C34.900 183.246 34.460 183.286 34.020 183.286C33.620 183.286 33.260 183.246 32.860 183.126C32.140 182.886 31.420 182.486 30.820 181.966C30.500 181.686 30.180 181.366 29.900 181.006C29.060 180.006 28.380 178.526 28.380 177.166C28.380 176.806 28.420 176.446 28.540 176.086Z"></path></g></g></g><g transform="translate(545.3594977068436)"><g><g><line stroke="#6A6A6A" stroke-width="1.3" x1="-16.600000000000023" x2="59.03441478470967" y1="198.8461538461538" y2="198.8461538461538"></line><line stroke="#6A6A6A" stroke-width="1.3" x1="-16.600000000000023" x2="59.03441478470967" y1="188.8461538461538" y2="188.8461538461538"></line><line stroke="#6A6A6A" stroke-width="1.3" x1="-16.600000000000023" x2="59.03441478470967" y1="178.8461538461538" y2="178.8461538461538"></line><line stroke="#6A6A6A" stroke-width="1.3" x1="-16.600000000000023" x2="59.03441478470967" y1="168.8461538461538" y2="168.8461538461538"></line><line stroke="#6A6A6A" stroke-width="1.3" x1="-16.600000000000023" x2="59.03441478470967" y1="158.8461538461538" y2="158.8461538461538"></line></g><g><path d="M14.100 188.806C13.860 185.446 11.380 182.806 8.020 182.806L7.740 182.806C7.660 182.806 7.500 182.806 7.420 182.846C7.140 181.126 7.020 180.726 6.740 179.286C10.260 176.046 11.540 172.726 11.540 168.086C11.540 166.446 11.140 164.766 10.380 163.086C9.380 160.726 8.420 160.566 8.420 160.566C5.940 161.686 4.180 165.646 4.180 170.406C4.180 171.246 4.220 172.126 4.380 173.046L4.700 174.726C0.820 178.006-3.500 181.886-3.500 186.926C-3.500 187.166-3.500 187.446-3.460 187.726C-2.980 194.086 1.980 196.086 6.260 196.086C7.060 196.086 7.620 195.966 8.180 195.966L8.700 198.806C8.820 199.446 8.980 200.926 8.980 201.446C8.980 205.726 5.780 205.766 5.460 205.766L4.940 205.766C4.060 205.766 3.300 205.646 2.740 205.246C2.580 205.126 2.500 205.046 2.500 204.966C2.500 204.846 2.620 204.806 2.740 204.726C2.980 204.686 3.180 204.686 3.420 204.566C4.500 204.246 5.940 203.406 5.940 201.846C5.940 201.846 5.940 201.646 5.940 201.646C5.940 200.526 5.460 199.486 4.380 199.046C3.980 198.846 3.620 198.766 3.220 198.766C1.660 198.766 0.220 200.006 0.020 201.646C-0.020 201.646-0.100 202.046-0.100 202.566C-0.100 204.046 0.580 207.046 4.900 207.046C5.060 207.046 5.300 207.006 5.500 207.006C7.340 206.886 10.300 205.446 10.300 201.326C10.300 199.326 9.740 197.446 9.460 195.606C12.380 194.526 14.100 192.126 14.100 189.206ZM8.620 165.726C9.500 165.726 10.060 166.406 10.060 167.846C10.060 168.006 10.060 168.206 10.020 168.406C9.700 170.566 8.580 171.566 5.780 173.726C5.700 173.086 5.580 172.566 5.580 172.406C5.540 172.126 5.540 171.806 5.540 171.486C5.540 168.766 6.540 165.806 8.620 165.726ZM-1.060 189.046C-1.060 184.686 2.100 182.446 5.540 179.886L6.020 183.046C3.660 183.726 1.820 185.966 1.820 188.326C1.820 188.726 1.860 189.126 1.980 189.486C2.380 191.246 3.540 192.566 4.780 192.966C5.020 193.046 5.220 193.086 5.340 193.086C5.540 193.086 5.660 192.966 5.660 192.846C5.660 192.686 5.460 192.486 5.260 192.366C4.740 192.166 3.820 191.126 3.780 190.046L3.780 189.806C3.780 187.966 5.220 187.326 6.620 187.046L7.980 194.566C7.580 194.726 7.020 194.806 6.260 194.806C3.420 194.806-0.900 193.846-1.060 189.286ZM9.260 194.286C8.860 191.926 8.700 189.886 8.140 186.926C10.340 186.926 11.820 188.206 11.940 190.406L11.940 190.686C11.940 192.526 11.140 193.486 9.260 194.286Z"></path><path d="M5.720 207.046C5.240 207.046 4.760 207.086 4.360 207.286C3.320 207.686 2.760 208.566 2.760 209.526C2.760 210.086 2.960 210.646 3.400 211.166C3.440 211.166 3.480 211.206 3.480 211.286C3.480 211.406 3.400 211.446 3.240 211.486C2.200 211.846 1.200 213.006 1.200 214.126C1.200 214.286 1.240 214.406 1.280 214.606C1.600 216.086 3.520 216.926 4.880 216.926C5.440 216.926 6.080 216.846 6.520 216.686C7.640 216.206 8.360 215.166 8.360 214.086C8.360 213.606 8.240 213.166 8 212.726C7.840 212.526 7.840 212.326 7.840 212.086C7.840 211.846 7.920 211.646 8.160 211.446C8.520 211.166 9.400 210.846 9.400 209.446C9.400 207.446 6.520 207.046 5.880 207.046ZM4.760 208.726C4.840 208.046 5.400 207.766 6.000 207.726C6.680 207.726 7.280 207.926 7.600 208.286C7.840 208.526 7.960 208.966 7.960 209.326C7.920 210.046 7.720 211.246 7.040 211.246C6.920 211.246 6.720 211.166 6.520 211.086C6.120 210.806 5.800 210.406 5.480 210.086C5.160 209.726 4.760 209.286 4.760 208.726ZM3.400 212.566C3.520 212.406 3.720 212.286 3.960 212.286C4.160 212.286 4.360 212.446 4.520 212.526C4.760 212.686 4.960 212.886 5.200 213.086C5.640 213.486 6.000 213.926 6.200 214.446C6.280 214.646 6.360 214.806 6.360 215.006C6.360 215.646 5.680 216.446 4.880 216.446C4.120 216.446 3.040 215.646 2.760 214.366C2.720 214.246 2.720 214.166 2.720 214.086C2.720 213.646 2.880 213.206 3.120 212.886C3.160 212.766 3.280 212.646 3.400 212.566Z"></path></g></g><g><line stroke="black" stroke-width="1.6" x1="59.83441478470968" x2="59.83441478470968" y1="158.8461538461538" y2="198.8461538461538"></line></g><g><g><path d="M33.100 168.366C27.300 168.366 23.700 170.806 23.700 173.766C23.700 176.686 26.180 179.286 32.660 179.286C39.780 179.286 42.060 176.806 42.060 173.766C42.060 170.686 37.140 168.366 33.100 168.366ZM28.540 171.086C29.020 169.606 30.620 169.366 31.980 169.366C34.940 169.366 37.340 172.566 37.340 175.206C37.340 175.486 37.300 175.766 37.260 176.006C37.060 177.086 36.420 177.846 35.340 178.126C34.900 178.246 34.460 178.286 34.020 178.286C33.620 178.286 33.260 178.246 32.860 178.126C32.140 177.886 31.420 177.486 30.820 176.966C30.500 176.686 30.180 176.366 29.900 176.006C29.060 175.006 28.380 173.526 28.380 172.166C28.380 171.806 28.420 171.446 28.540 171.086Z"></path></g></g></g><g transform="translate(620.9939124915534)"><g><g><line stroke="#6A6A6A" stroke-width="1.3" x1="-16.599999999999966" x2="59.034414784709725" y1="198.8461538461538" y2="198.8461538461538"></line><line stroke="#6A6A6A" stroke-width="1.3" x1="-16.599999999999966" x2="59.034414784709725" y1="188.8461538461538" y2="188.8461538461538"></line><line stroke="#6A6A6A" stroke-width="1.3" x1="-16.599999999999966" x2="59.034414784709725" y1="178.8461538461538" y2="178.8461538461538"></line><line stroke="#6A6A6A" stroke-width="1.3" x1="-16.599999999999966" x2="59.034414784709725" y1="168.8461538461538" y2="168.8461538461538"></line><line stroke="#6A6A6A" stroke-width="1.3" x1="-16.599999999999966" x2="59.034414784709725" y1="158.8461538461538" y2="158.8461538461538"></line></g><g><path d="M2.980 162.046C-1.500 162.046-3.500 166.166-3.500 168.606C-3.500 168.726-3.500 168.846-3.460 168.966C-3.180 171.366-1.660 172.606-0.140 172.606L0.020 172.606C1.620 172.606 3.260 170.846 3.260 169.246C3.260 166.886 1.180 166.486 0.060 166.486L-0.700 166.486C-1.260 166.486-1.340 166.166-1.340 165.926C-1.340 165.846-1.300 165.766-1.300 165.766C-0.380 163.646 1.260 163.406 1.980 163.406C2.220 163.406 2.380 163.446 2.380 163.446C3.220 163.446 3.900 163.806 4.500 164.446C5.460 165.566 5.580 166.806 5.740 168.166C5.740 168.206 5.780 168.286 5.780 168.486C5.860 168.966 5.860 169.486 5.860 169.966C5.860 171.926 5.540 173.966 4.940 175.806C4.020 178.486 2.660 180.206 0.420 181.926C-0.820 182.886-2.220 183.486-3.580 184.246C-3.980 184.486-4.100 184.846-4.100 184.966C-4.100 185.166-3.740 185.406-3.580 185.406C-0.500 185.406 3.100 182.646 5.100 180.646C6.980 178.766 8.460 176.566 9.380 174.406C10.100 172.766 10.500 171.126 10.500 169.726L10.500 169.566C10.420 166.806 9.340 165.046 8.020 163.966C5.860 162.206 3.140 162.046 3.140 162.046ZM13.220 170.486C12.300 170.486 11.500 171.286 11.500 172.246C11.500 173.206 12.300 174.006 13.220 174.006C14.220 174.006 15.020 173.206 15.020 172.246C15.020 171.286 14.220 170.486 13.220 170.486ZM13.220 163.766C12.220 163.766 11.460 164.526 11.460 165.486C11.460 166.486 12.220 167.286 13.220 167.286C14.180 167.286 14.980 166.486 14.980 165.486C14.980 164.526 14.180 163.766 13.220 163.766Z"></path><path d="M5.880 180.438C5.400 180.438 4.920 180.478 4.520 180.678C3.480 181.078 2.920 181.958 2.920 182.918C2.920 183.478 3.120 184.038 3.560 184.558C3.600 184.558 3.640 184.598 3.640 184.678C3.640 184.798 3.560 184.838 3.400 184.878C2.360 185.238 1.360 186.398 1.360 187.518C1.360 187.678 1.400 187.798 1.440 187.998C1.760 189.478 3.680 190.318 5.040 190.318C5.600 190.318 6.240 190.238 6.680 190.078C7.800 189.598 8.520 188.558 8.520 187.478C8.520 186.998 8.400 186.558 8.160 186.118C8 185.918 8 185.718 8 185.478C8 185.238 8.080 185.038 8.320 184.838C8.680 184.558 9.560 184.238 9.560 182.838C9.560 180.838 6.680 180.438 6.040 180.438ZM4.920 182.118C5 181.438 5.560 181.158 6.160 181.118C6.840 181.118 7.440 181.318 7.760 181.678C8 181.918 8.120 182.358 8.120 182.718C8.080 183.438 7.880 184.638 7.200 184.638C7.080 184.638 6.880 184.558 6.680 184.478C6.280 184.198 5.960 183.798 5.640 183.478C5.320 183.118 4.920 182.678 4.920 182.118ZM3.560 185.958C3.680 185.798 3.880 185.678 4.120 185.678C4.320 185.678 4.520 185.838 4.680 185.918C4.920 186.078 5.120 186.278 5.360 186.478C5.800 186.878 6.160 187.318 6.360 187.838C6.440 188.038 6.520 188.198 6.520 188.398C6.520 189.038 5.840 189.838 5.040 189.838C4.280 189.838 3.200 189.038 2.920 187.758C2.880 187.638 2.880 187.558 2.880 187.478C2.880 187.038 3.040 186.598 3.280 186.278C3.320 186.158 3.440 186.038 3.560 185.958Z"></path></g></g><g><line stroke="black" stroke-width="1.6" x1="59.83441478470968" x2="59.83441478470968" y1="158.8461538461538" y2="198.8461538461538"></line></g><g><g><path d="M33.100 108.366C27.300 108.366 23.700 110.806 23.700 113.766C23.700 116.686 26.180 119.286 32.660 119.286C39.780 119.286 42.060 116.806 42.060 113.766C42.060 110.686 37.140 108.366 33.100 108.366ZM28.540 111.086C29.020 109.606 30.620 109.366 31.980 109.366C34.940 109.366 37.340 112.566 37.340 115.206C37.340 115.486 37.300 115.766 37.260 116.006C37.060 117.086 36.420 117.846 35.340 118.126C34.900 118.246 34.460 118.286 34.020 118.286C33.620 118.286 33.260 118.246 32.860 118.126C32.140 117.886 31.420 117.486 30.820 116.966C30.500 116.686 30.180 116.366 29.900 116.006C29.060 115.006 28.380 113.526 28.380 112.166C28.380 111.806 28.420 111.446 28.540 111.086Z"></path></g><line stroke="#000000" stroke-width="2.2" x1="20.5" x2="47.3" y1="148.8461538461538" y2="148.8461538461538"></line><line stroke="#000000" stroke-width="2.2" x1="20.5" x2="47.3" y1="138.8461538461538" y2="138.8461538461538"></line><line stroke="#000000" stroke-width="2.2" x1="20.5" x2="47.3" y1="128.8461538461538" y2="128.8461538461538"></line><line stroke="#000000" stroke-width="2.2" x1="20.5" x2="47.3" y1="118.84615384615381" y2="118.84615384615381"></line></g></g><g transform="translate(696.628327276263)"><g><g><line stroke="#6A6A6A" stroke-width="1.3" x1="-16.59999999999991" x2="59.034414784709725" y1="198.8461538461538" y2="198.8461538461538"></line><line stroke="#6A6A6A" stroke-width="1.3" x1="-16.59999999999991" x2="59.034414784709725" y1="188.8461538461538" y2="188.8461538461538"></line><line stroke="#6A6A6A" stroke-width="1.3" x1="-16.59999999999991" x2="59.034414784709725" y1="178.8461538461538" y2="178.8461538461538"></line><line stroke="#6A6A6A" stroke-width="1.3" x1="-16.59999999999991" x2="59.034414784709725" y1="168.8461538461538" y2="168.8461538461538"></line><line stroke="#6A6A6A" stroke-width="1.3" x1="-16.59999999999991" x2="59.034414784709725" y1="158.8461538461538" y2="158.8461538461538"></line></g><g><path d="M2.980 172.046C-1.500 172.046-3.500 176.166-3.500 178.606C-3.500 178.726-3.500 178.846-3.460 178.966C-3.180 181.366-1.660 182.606-0.140 182.606L0.020 182.606C1.620 182.606 3.260 180.846 3.260 179.246C3.260 176.886 1.180 176.486 0.060 176.486L-0.700 176.486C-1.260 176.486-1.340 176.166-1.340 175.926C-1.340 175.846-1.300 175.766-1.300 175.766C-0.380 173.646 1.260 173.406 1.980 173.406C2.220 173.406 2.380 173.446 2.380 173.446C3.220 173.446 3.900 173.806 4.500 174.446C5.460 175.566 5.580 176.806 5.740 178.166C5.740 178.206 5.780 178.286 5.780 178.486C5.860 178.966 5.860 179.486 5.860 179.966C5.860 181.926 5.540 183.966 4.940 185.806C4.020 188.486 2.660 190.206 0.420 191.926C-0.820 192.886-2.220 193.486-3.580 194.246C-3.980 194.486-4.100 194.846-4.100 194.966C-4.100 195.166-3.740 195.406-3.580 195.406C-0.500 195.406 3.100 192.646 5.100 190.646C6.980 188.766 8.460 186.566 9.380 184.406C10.100 182.766 10.500 181.126 10.500 179.726L10.500 179.566C10.420 176.806 9.340 175.046 8.020 173.966C5.860 172.206 3.140 172.046 3.140 172.046ZM13.220 180.486C12.300 180.486 11.500 181.286 11.500 182.246C11.500 183.206 12.300 184.006 13.220 184.006C14.220 184.006 15.020 183.206 15.020 182.246C15.020 181.286 14.220 180.486 13.220 180.486ZM13.220 173.766C12.220 173.766 11.460 174.526 11.460 175.486C11.460 176.486 12.220 177.286 13.220 177.286C14.180 177.286 14.980 176.486 14.980 175.486C14.980 174.526 14.180 173.766 13.220 173.766Z"></path></g></g><g><line stroke="black" stroke-width="1.6" x1="59.83441478470968" x2="59.83441478470968" y1="158.8461538461538" y2="198.8461538461538"></line></g><g><g><path d="M33.100 153.366C27.300 153.366 23.700 155.806 23.700 158.766C23.700 161.686 26.180 164.286 32.660 164.286C39.780 164.286 42.060 161.806 42.060 158.766C42.060 155.686 37.140 153.366 33.100 153.366ZM28.540 156.086C29.020 154.606 30.620 154.366 31.980 154.366C34.940 154.366 37.340 157.566 37.340 160.206C37.340 160.486 37.300 160.766 37.260 161.006C37.060 162.086 36.420 162.846 35.340 163.126C34.900 163.246 34.460 163.286 34.020 163.286C33.620 163.286 33.260 163.246 32.860 163.126C32.140 162.886 31.420 162.486 30.820 161.966C30.500 161.686 30.180 161.366 29.900 161.006C29.060 160.006 28.380 158.526 28.380 157.166C28.380 156.806 28.420 156.446 28.540 156.086Z"></path></g></g></g><g transform="translate(772.2627420609726)"><g><g><line stroke="#6A6A6A" stroke-width="1.3" x1="-16.59999999999991" x2="59.034414784709725" y1="198.8461538461538" y2="198.8461538461538"></line><line stroke="#6A6A6A" stroke-width="1.3" x1="-16.59999999999991" x2="59.034414784709725" y1="188.8461538461538" y2="188.8461538461538"></line><line stroke="#6A6A6A" stroke-width="1.3" x1="-16.59999999999991" x2="59.034414784709725" y1="178.8461538461538" y2="178.8461538461538"></line><line stroke="#6A6A6A" stroke-width="1.3" x1="-16.59999999999991" x2="59.034414784709725" y1="168.8461538461538" y2="168.8461538461538"></line><line stroke="#6A6A6A" stroke-width="1.3" x1="-16.59999999999991" x2="59.034414784709725" y1="158.8461538461538" y2="158.8461538461538"></line></g><g><path d="M14.100 198.806C13.860 195.446 11.380 192.806 8.020 192.806L7.740 192.806C7.660 192.806 7.500 192.806 7.420 192.846C7.140 191.126 7.020 190.726 6.740 189.286C10.260 186.046 11.540 182.726 11.540 178.086C11.540 176.446 11.140 174.766 10.380 173.086C9.380 170.726 8.420 170.566 8.420 170.566C5.940 171.686 4.180 175.646 4.180 180.406C4.180 181.246 4.220 182.126 4.380 183.046L4.700 184.726C0.820 188.006-3.500 191.886-3.500 196.926C-3.500 197.166-3.500 197.446-3.460 197.726C-2.980 204.086 1.980 206.086 6.260 206.086C7.060 206.086 7.620 205.966 8.180 205.966L8.700 208.806C8.820 209.446 8.980 210.926 8.980 211.446C8.980 215.726 5.780 215.766 5.460 215.766L4.940 215.766C4.060 215.766 3.300 215.646 2.740 215.246C2.580 215.126 2.500 215.046 2.500 214.966C2.500 214.846 2.620 214.806 2.740 214.726C2.980 214.686 3.180 214.686 3.420 214.566C4.500 214.246 5.940 213.406 5.940 211.846C5.940 211.846 5.940 211.646 5.940 211.646C5.940 210.526 5.460 209.486 4.380 209.046C3.980 208.846 3.620 208.766 3.220 208.766C1.660 208.766 0.220 210.006 0.020 211.646C-0.020 211.646-0.100 212.046-0.100 212.566C-0.100 214.046 0.580 217.046 4.900 217.046C5.060 217.046 5.300 217.006 5.500 217.006C7.340 216.886 10.300 215.446 10.300 211.326C10.300 209.326 9.740 207.446 9.460 205.606C12.380 204.526 14.100 202.126 14.100 199.206ZM8.620 175.726C9.500 175.726 10.060 176.406 10.060 177.846C10.060 178.006 10.060 178.206 10.020 178.406C9.700 180.566 8.580 181.566 5.780 183.726C5.700 183.086 5.580 182.566 5.580 182.406C5.540 182.126 5.540 181.806 5.540 181.486C5.540 178.766 6.540 175.806 8.620 175.726ZM-1.060 199.046C-1.060 194.686 2.100 192.446 5.540 189.886L6.020 193.046C3.660 193.726 1.820 195.966 1.820 198.326C1.820 198.726 1.860 199.126 1.980 199.486C2.380 201.246 3.540 202.566 4.780 202.966C5.020 203.046 5.220 203.086 5.340 203.086C5.540 203.086 5.660 202.966 5.660 202.846C5.660 202.686 5.460 202.486 5.260 202.366C4.740 202.166 3.820 201.126 3.780 200.046L3.780 199.806C3.780 197.966 5.220 197.326 6.620 197.046L7.980 204.566C7.580 204.726 7.020 204.806 6.260 204.806C3.420 204.806-0.900 203.846-1.060 199.286ZM9.260 204.286C8.860 201.926 8.700 199.886 8.140 196.926C10.340 196.926 11.820 198.206 11.940 200.406L11.940 200.686C11.940 202.526 11.140 203.486 9.260 204.286Z"></path></g></g><g><line stroke="black" stroke-width="1.6" x1="59.83441478470968" x2="59.83441478470968" y1="158.8461538461538" y2="198.8461538461538"></line></g><g><g><path d="M33.100 213.366C27.300 213.366 23.700 215.806 23.700 218.766C23.700 221.686 26.180 224.286 32.660 224.286C39.780 224.286 42.060 221.806 42.060 218.766C42.060 215.686 37.140 213.366 33.100 213.366ZM28.540 216.086C29.020 214.606 30.620 214.366 31.980 214.366C34.940 214.366 37.340 217.566 37.340 220.206C37.340 220.486 37.300 220.766 37.260 221.006C37.060 222.086 36.420 222.846 35.340 223.126C34.900 223.246 34.460 223.286 34.020 223.286C33.620 223.286 33.260 223.246 32.860 223.126C32.140 222.886 31.420 222.486 30.820 221.966C30.500 221.686 30.180 221.366 29.900 221.006C29.060 220.006 28.380 218.526 28.380 217.166C28.380 216.806 28.420 216.446 28.540 216.086Z"></path></g><line stroke="#000000" stroke-width="2.2" x1="20.5" x2="47.3" y1="208.8461538461538" y2="208.8461538461538"></line><line stroke="#000000" stroke-width="2.2" x1="20.5" x2="47.3" y1="218.8461538461538" y2="218.8461538461538"></line></g></g><g transform="translate(847.8971568456824)"><g><g><line stroke="#6A6A6A" stroke-width="1.3" x1="-16.59999999999991" x2="59.034414784709725" y1="198.8461538461538" y2="198.8461538461538"></line><line stroke="#6A6A6A" stroke-width="1.3" x1="-16.59999999999991" x2="59.034414784709725" y1="188.8461538461538" y2="188.8461538461538"></line><line stroke="#6A6A6A" stroke-width="1.3" x1="-16.59999999999991" x2="59.034414784709725" y1="178.8461538461538" y2="178.8461538461538"></line><line stroke="#6A6A6A" stroke-width="1.3" x1="-16.59999999999991" x2="59.034414784709725" y1="168.8461538461538" y2="168.8461538461538"></line><line stroke="#6A6A6A" stroke-width="1.3" x1="-16.59999999999991" x2="59.034414784709725" y1="158.8461538461538" y2="158.8461538461538"></line></g><g><path d="M16.740 166.006C16.740 162.926 14.740 159.846 10.900 159.846C9.620 159.846 9.180 160.686 8.820 160.686C8.420 160.686 8.020 160.086 7.780 159.686C7.660 159.366 7.460 159.126 7.460 158.846C7.460 158.606 7.580 158.486 7.740 158.126C7.780 158.046 7.860 158.046 7.860 157.966C8.100 157.606 8.500 157.046 8.820 157.046C9.180 157.046 9.620 157.806 10.900 157.806C14.740 157.806 16.740 154.766 16.740 151.726C16.740 148.686 14.180 145.566 10.380 145.566C6.540 145.566 5.380 148.086 5.380 149.166C5.380 150.286 6.260 151.486 7.420 151.486C8.540 151.486 9.620 150.526 9.620 149.486C9.620 148.566 8.420 147.926 8.180 147.726C8.100 147.646 7.700 147.566 7.700 147.406C7.700 147.366 7.700 147.326 7.780 147.286C8.300 146.766 8.900 146.606 9.500 146.606C11.780 146.606 12.300 148.566 12.300 150.206L12.300 153.366C12.300 155.406 12.220 156.126 10.460 156.126C8.740 156.126 8.060 155.406 7.660 154.086C7.460 153.526 7.260 153.326 7.060 153.326C6.780 153.326 6.540 153.726 6.460 154.086C5.780 157.246 4.740 157.406 3.980 157.486L3.980 146.166C3.980 145.806 3.380 145.566 3.060 145.566C2.740 145.566 2.500 145.806 2.500 146.166L2.500 171.566C2.500 171.886 2.740 172.126 3.060 172.126C3.380 172.126 3.980 171.886 3.980 171.566L3.980 160.206C4.740 160.286 5.780 160.446 6.460 163.606C6.540 163.966 6.780 164.366 7.060 164.366C7.260 164.366 7.460 164.166 7.660 163.606C8.060 162.286 8.740 161.526 10.460 161.526C12.220 161.526 12.300 162.286 12.300 164.366L12.300 167.486C12.300 169.166 11.780 171.046 9.500 171.046C8.420 171.046 8.060 170.686 7.820 170.446C7.740 170.366 7.700 170.326 7.700 170.286C7.700 170.126 8.020 170.046 8.100 169.966C8.380 169.686 9.620 169.246 9.620 168.166C9.620 167.126 8.540 166.166 7.420 166.166C6.260 166.166 5.380 167.406 5.380 168.486C5.380 169.566 6.540 172.126 10.380 172.126C14.180 172.126 16.740 169.006 16.740 166.006ZM0.580 146.166C0.580 145.846 0.340 145.566-0.020 145.566L-2.900 145.566C-3.220 145.566-3.500 145.846-3.500 146.166L-3.500 171.526C-3.500 171.846-3.220 172.126-2.900 172.126L-0.020 172.126C0.340 172.126 0.580 171.846 0.580 171.526Z"></path></g></g><g><line stroke="black" stroke-width="1.6" x1="59.83441478470968" x2="59.83441478470968" y1="158.8461538461538" y2="198.8461538461538"></line></g><g><g><path d="M33.100 153.366C27.300 153.366 23.700 155.806 23.700 158.766C23.700 161.686 26.180 164.286 32.660 164.286C39.780 164.286 42.060 161.806 42.060 158.766C42.060 155.686 37.140 153.366 33.100 153.366ZM28.540 156.086C29.020 154.606 30.620 154.366 31.980 154.366C34.940 154.366 37.340 157.566 37.340 160.206C37.340 160.486 37.300 160.766 37.260 161.006C37.060 162.086 36.420 162.846 35.340 163.126C34.900 163.246 34.460 163.286 34.020 163.286C33.620 163.286 33.260 163.246 32.860 163.126C32.140 162.886 31.420 162.486 30.820 161.966C30.500 161.686 30.180 161.366 29.900 161.006C29.060 160.006 28.380 158.526 28.380 157.166C28.380 156.806 28.420 156.446 28.540 156.086Z"></path></g></g></g><g transform="translate(923.5315716303919)"><g><g><line stroke="#6A6A6A" stroke-width="1.3" x1="-16.59999999999991" x2="59.034414784709725" y1="198.8461538461538" y2="198.8461538461538"></line><line stroke="#6A6A6A" stroke-width="1.3" x1="-16.59999999999991" x2="59.034414784709725" y1="188.8461538461538" y2="188.8461538461538"></line><line stroke="#6A6A6A" stroke-width="1.3" x1="-16.59999999999991" x2="59.034414784709725" y1="178.8461538461538" y2="178.8461538461538"></line><line stroke="#6A6A6A" stroke-width="1.3" x1="-16.59999999999991" x2="59.034414784709725" y1="168.8461538461538" y2="168.8461538461538"></line><line stroke="#6A6A6A" stroke-width="1.3" x1="-16.59999999999991" x2="59.034414784709725" y1="158.8461538461538" y2="158.8461538461538"></line></g><g><path d="M16.740 196.006C16.740 192.926 14.740 189.846 10.900 189.846C9.620 189.846 9.180 190.686 8.820 190.686C8.420 190.686 8.020 190.086 7.780 189.686C7.660 189.366 7.460 189.126 7.460 188.846C7.460 188.606 7.580 188.486 7.740 188.126C7.780 188.046 7.860 188.046 7.860 187.966C8.100 187.606 8.500 187.046 8.820 187.046C9.180 187.046 9.620 187.806 10.900 187.806C14.740 187.806 16.740 184.766 16.740 181.726C16.740 178.686 14.180 175.566 10.380 175.566C6.540 175.566 5.380 178.086 5.380 179.166C5.380 180.286 6.260 181.486 7.420 181.486C8.540 181.486 9.620 180.526 9.620 179.486C9.620 178.566 8.420 177.926 8.180 177.726C8.100 177.646 7.700 177.566 7.700 177.406C7.700 177.366 7.700 177.326 7.780 177.286C8.300 176.766 8.900 176.606 9.500 176.606C11.780 176.606 12.300 178.566 12.300 180.206L12.300 183.366C12.300 185.406 12.220 186.126 10.460 186.126C8.740 186.126 8.060 185.406 7.660 184.086C7.460 183.526 7.260 183.326 7.060 183.326C6.780 183.326 6.540 183.726 6.460 184.086C5.780 187.246 4.740 187.406 3.980 187.486L3.980 176.166C3.980 175.806 3.380 175.566 3.060 175.566C2.740 175.566 2.500 175.806 2.500 176.166L2.500 201.566C2.500 201.886 2.740 202.126 3.060 202.126C3.380 202.126 3.980 201.886 3.980 201.566L3.980 190.206C4.740 190.286 5.780 190.446 6.460 193.606C6.540 193.966 6.780 194.366 7.060 194.366C7.260 194.366 7.460 194.166 7.660 193.606C8.060 192.286 8.740 191.526 10.460 191.526C12.220 191.526 12.300 192.286 12.300 194.366L12.300 197.486C12.300 199.166 11.780 201.046 9.500 201.046C8.420 201.046 8.060 200.686 7.820 200.446C7.740 200.366 7.700 200.326 7.700 200.286C7.700 200.126 8.020 200.046 8.100 199.966C8.380 199.686 9.620 199.246 9.620 198.166C9.620 197.126 8.540 196.166 7.420 196.166C6.260 196.166 5.380 197.406 5.380 198.486C5.380 199.566 6.540 202.126 10.380 202.126C14.180 202.126 16.740 199.006 16.740 196.006ZM0.580 176.166C0.580 175.846 0.340 175.566-0.020 175.566L-2.900 175.566C-3.220 175.566-3.500 175.846-3.500 176.166L-3.500 201.526C-3.500 201.846-3.220 202.126-2.900 202.126L-0.020 202.126C0.340 202.126 0.580 201.846 0.580 201.526Z"></path></g></g><g><line stroke="black" stroke-width="1.6" x1="59.83441478470968" x2="59.83441478470968" y1="158.8461538461538" y2="198.8461538461538"></line></g><g><g><path d="M33.100 183.366C27.300 183.366 23.700 185.806 23.700 188.766C23.700 191.686 26.180 194.286 32.660 194.286C39.780 194.286 42.060 191.806 42.060 188.766C42.060 185.686 37.140 183.366 33.100 183.366ZM28.540 186.086C29.020 184.606 30.620 184.366 31.980 184.366C34.940 184.366 37.340 187.566 37.340 190.206C37.340 190.486 37.300 190.766 37.260 191.006C37.060 192.086 36.420 192.846 35.340 193.126C34.900 193.246 34.460 193.286 34.020 193.286C33.620 193.286 33.260 193.246 32.860 193.126C32.140 192.886 31.420 192.486 30.820 191.966C30.500 191.686 30.180 191.366 29.900 191.006C29.060 190.006 28.380 188.526 28.380 187.166C28.380 186.806 28.420 186.446 28.540 186.086Z"></path></g></g></g><g transform="translate(999.1659864151017)"><g><g><line stroke="#6A6A6A" stroke-width="1.3" x1="-16.59999999999991" x2="59.034414784709725" y1="198.8461538461538" y2="198.8461538461538"></line><line stroke="#6A6A6A" stroke-width="1.3" x1="-16.59999999999991" x2="59.034414784709725" y1="188.8461538461538" y2="188.8461538461538"></line><line stroke="#6A6A6A" stroke-width="1.3" x1="-16.59999999999991" x2="59.034414784709725" y1="178.8461538461538" y2="178.8461538461538"></line><line stroke="#6A6A6A" stroke-width="1.3" x1="-16.59999999999991" x2="59.034414784709725" y1="168.8461538461538" y2="168.8461538461538"></line><line stroke="#6A6A6A" stroke-width="1.3" x1="-16.59999999999991" x2="59.034414784709725" y1="158.8461538461538" y2="158.8461538461538"></line></g><g><path d="M16.740 206.006C16.740 202.926 14.740 199.846 10.900 199.846C9.620 199.846 9.180 200.686 8.820 200.686C8.420 200.686 8.020 200.086 7.780 199.686C7.660 199.366 7.460 199.126 7.460 198.846C7.460 198.606 7.580 198.486 7.740 198.126C7.780 198.046 7.860 198.046 7.860 197.966C8.100 197.606 8.500 197.046 8.820 197.046C9.180 197.046 9.620 197.806 10.900 197.806C14.740 197.806 16.740 194.766 16.740 191.726C16.740 188.686 14.180 185.566 10.380 185.566C6.540 185.566 5.380 188.086 5.380 189.166C5.380 190.286 6.260 191.486 7.420 191.486C8.540 191.486 9.620 190.526 9.620 189.486C9.620 188.566 8.420 187.926 8.180 187.726C8.100 187.646 7.700 187.566 7.700 187.406C7.700 187.366 7.700 187.326 7.780 187.286C8.300 186.766 8.900 186.606 9.500 186.606C11.780 186.606 12.300 188.566 12.300 190.206L12.300 193.366C12.300 195.406 12.220 196.126 10.460 196.126C8.740 196.126 8.060 195.406 7.660 194.086C7.460 193.526 7.260 193.326 7.060 193.326C6.780 193.326 6.540 193.726 6.460 194.086C5.780 197.246 4.740 197.406 3.980 197.486L3.980 186.166C3.980 185.806 3.380 185.566 3.060 185.566C2.740 185.566 2.500 185.806 2.500 186.166L2.500 211.566C2.500 211.886 2.740 212.126 3.060 212.126C3.380 212.126 3.980 211.886 3.980 211.566L3.980 200.206C4.740 200.286 5.780 200.446 6.460 203.606C6.540 203.966 6.780 204.366 7.060 204.366C7.260 204.366 7.460 204.166 7.660 203.606C8.060 202.286 8.740 201.526 10.460 201.526C12.220 201.526 12.300 202.286 12.300 204.366L12.300 207.486C12.300 209.166 11.780 211.046 9.500 211.046C8.420 211.046 8.060 210.686 7.820 210.446C7.740 210.366 7.700 210.326 7.700 210.286C7.700 210.126 8.020 210.046 8.100 209.966C8.380 209.686 9.620 209.246 9.620 208.166C9.620 207.126 8.540 206.166 7.420 206.166C6.260 206.166 5.380 207.406 5.380 208.486C5.380 209.566 6.540 212.126 10.380 212.126C14.180 212.126 16.740 209.006 16.740 206.006ZM0.580 186.166C0.580 185.846 0.340 185.566-0.020 185.566L-2.900 185.566C-3.220 185.566-3.500 185.846-3.500 186.166L-3.500 211.526C-3.500 211.846-3.220 212.126-2.900 212.126L-0.020 212.126C0.340 212.126 0.580 211.846 0.580 211.526Z"></path></g></g><g><line stroke="black" stroke-width="1.6" x1="59.83441478470968" x2="59.83441478470968" y1="158.8461538461538" y2="198.8461538461538"></line></g><g><g><path d="M33.100 193.366C27.300 193.366 23.700 195.806 23.700 198.766C23.700 201.686 26.180 204.286 32.660 204.286C39.780 204.286 42.060 201.806 42.060 198.766C42.060 195.686 37.140 193.366 33.100 193.366ZM28.540 196.086C29.020 194.606 30.620 194.366 31.980 194.366C34.940 194.366 37.340 197.566 37.340 200.206C37.340 200.486 37.300 200.766 37.260 201.006C37.060 202.086 36.420 202.846 35.340 203.126C34.900 203.246 34.460 203.286 34.020 203.286C33.620 203.286 33.260 203.246 32.860 203.126C32.140 202.886 31.420 202.486 30.820 201.966C30.500 201.686 30.180 201.366 29.900 201.006C29.060 200.006 28.380 198.526 28.380 197.166C28.380 196.806 28.420 196.446 28.540 196.086Z"></path></g></g></g><g transform="translate(1074.8004011998114)"><g><g><line stroke="#6A6A6A" stroke-width="1.3" x1="-16.59999999999991" x2="59.034414784709725" y1="198.8461538461538" y2="198.8461538461538"></line><line stroke="#6A6A6A" stroke-width="1.3" x1="-16.59999999999991" x2="59.034414784709725" y1="188.8461538461538" y2="188.8461538461538"></line><line stroke="#6A6A6A" stroke-width="1.3" x1="-16.59999999999991" x2="59.034414784709725" y1="178.8461538461538" y2="178.8461538461538"></line><line stroke="#6A6A6A" stroke-width="1.3" x1="-16.59999999999991" x2="59.034414784709725" y1="168.8461538461538" y2="168.8461538461538"></line><line stroke="#6A6A6A" stroke-width="1.3" x1="-16.59999999999991" x2="59.034414784709725" y1="158.8461538461538" y2="158.8461538461538"></line></g><g><path d="M2.900 188.246L2.900 169.446C2.900 169.126 2.660 168.846 2.340 168.846L-2.940 168.846C-3.260 168.846-3.500 169.126-3.500 169.446L-3.500 188.246C-3.500 188.566-3.260 188.846-2.940 188.846L2.340 188.846C2.660 188.846 2.900 188.566 2.900 188.246ZM11.780 169.446C11.780 169.126 11.540 168.846 11.220 168.846L5.940 168.846C5.620 168.846 5.380 169.126 5.380 169.446L5.380 188.246C5.380 188.566 5.620 188.846 5.940 188.846L11.220 188.846C11.540 188.846 11.780 188.566 11.780 188.246Z"></path></g></g><g><line stroke="black" stroke-width="1.6" x1="59.83441478470968" x2="59.83441478470968" y1="158.8461538461538" y2="198.8461538461538"></line></g><g><g><path d="M33.100 173.366C27.300 173.366 23.700 175.806 23.700 178.766C23.700 181.686 26.180 184.286 32.660 184.286C39.780 184.286 42.060 181.806 42.060 178.766C42.060 175.686 37.140 173.366 33.100 173.366ZM28.540 176.086C29.020 174.606 30.620 174.366 31.980 174.366C34.940 174.366 37.340 177.566 37.340 180.206C37.340 180.486 37.300 180.766 37.260 181.006C37.060 182.086 36.420 182.846 35.340 183.126C34.900 183.246 34.460 183.286 34.020 183.286C33.620 183.286 33.260 183.246 32.860 183.126C32.140 182.886 31.420 182.486 30.820 181.966C30.500 181.686 30.180 181.366 29.900 181.006C29.060 180.006 28.380 178.526 28.380 177.166C28.380 176.806 28.420 176.446 28.540 176.086Z"></path></g></g></g><g transform="translate(1150.434815984521)"><g><g><line stroke="#6A6A6A" stroke-width="1.3" x1="-16.59999999999991" x2="84.33441478470968" y1="198.8461538461538" y2="198.8461538461538"></line><line stroke="#6A6A6A" stroke-width="1.3" x1="-16.59999999999991" x2="84.33441478470968" y1="188.8461538461538" y2="188.8461538461538"></line><line stroke="#6A6A6A" stroke-width="1.3" x1="-16.59999999999991" x2="84.33441478470968" y1="178.8461538461538" y2="178.8461538461538"></line><line stroke="#6A6A6A" stroke-width="1.3" x1="-16.59999999999991" x2="84.33441478470968" y1="168.8461538461538" y2="168.8461538461538"></line><line stroke="#6A6A6A" stroke-width="1.3" x1="-16.59999999999991" x2="84.33441478470968" y1="158.8461538461538" y2="158.8461538461538"></line></g><g><path d="M14.100 188.806C13.860 185.446 11.380 182.806 8.020 182.806L7.740 182.806C7.660 182.806 7.500 182.806 7.420 182.846C7.140 181.126 7.020 180.726 6.740 179.286C10.260 176.046 11.540 172.726 11.540 168.086C11.540 166.446 11.140 164.766 10.380 163.086C9.380 160.726 8.420 160.566 8.420 160.566C5.940 161.686 4.180 165.646 4.180 170.406C4.180 171.246 4.220 172.126 4.380 173.046L4.700 174.726C0.820 178.006-3.500 181.886-3.500 186.926C-3.500 187.166-3.500 187.446-3.460 187.726C-2.980 194.086 1.980 196.086 6.260 196.086C7.060 196.086 7.620 195.966 8.180 195.966L8.700 198.806C8.820 199.446 8.980 200.926 8.980 201.446C8.980 205.726 5.780 205.766 5.460 205.766L4.940 205.766C4.060 205.766 3.300 205.646 2.740 205.246C2.580 205.126 2.500 205.046 2.500 204.966C2.500 204.846 2.620 204.806 2.740 204.726C2.980 204.686 3.180 204.686 3.420 204.566C4.500 204.246 5.940 203.406 5.940 201.846C5.940 201.846 5.940 201.646 5.940 201.646C5.940 200.526 5.460 199.486 4.380 199.046C3.980 198.846 3.620 198.766 3.220 198.766C1.660 198.766 0.220 200.006 0.020 201.646C-0.020 201.646-0.100 202.046-0.100 202.566C-0.100 204.046 0.580 207.046 4.900 207.046C5.060 207.046 5.300 207.006 5.500 207.006C7.340 206.886 10.300 205.446 10.300 201.326C10.300 199.326 9.740 197.446 9.460 195.606C12.380 194.526 14.100 192.126 14.100 189.206ZM8.620 165.726C9.500 165.726 10.060 166.406 10.060 167.846C10.060 168.006 10.060 168.206 10.020 168.406C9.700 170.566 8.580 171.566 5.780 173.726C5.700 173.086 5.580 172.566 5.580 172.406C5.540 172.126 5.540 171.806 5.540 171.486C5.540 168.766 6.540 165.806 8.620 165.726ZM-1.060 189.046C-1.060 184.686 2.100 182.446 5.540 179.886L6.020 183.046C3.660 183.726 1.820 185.966 1.820 188.326C1.820 188.726 1.860 189.126 1.980 189.486C2.380 191.246 3.540 192.566 4.780 192.966C5.020 193.046 5.220 193.086 5.340 193.086C5.540 193.086 5.660 192.966 5.660 192.846C5.660 192.686 5.460 192.486 5.260 192.366C4.740 192.166 3.820 191.126 3.780 190.046L3.780 189.806C3.780 187.966 5.220 187.326 6.620 187.046L7.980 194.566C7.580 194.726 7.020 194.806 6.260 194.806C3.420 194.806-0.900 193.846-1.060 189.286ZM9.260 194.286C8.860 191.926 8.700 189.886 8.140 186.926C10.340 186.926 11.820 188.206 11.940 190.406L11.940 190.686C11.940 192.526 11.140 193.486 9.260 194.286Z"></path><path d="M9.240 150.686C8.760 150.686 8.280 150.726 7.880 150.926C6.840 151.326 6.280 152.206 6.280 153.166C6.280 153.726 6.480 154.286 6.920 154.806C6.960 154.806 7.000 154.846 7.000 154.926C7.000 155.046 6.920 155.086 6.760 155.126C5.720 155.486 4.720 156.646 4.720 157.766C4.720 157.926 4.760 158.046 4.800 158.246C5.120 159.726 7.040 160.566 8.400 160.566C8.960 160.566 9.600 160.486 10.040 160.326C11.160 159.846 11.880 158.806 11.880 157.726C11.880 157.246 11.760 156.806 11.520 156.366C11.360 156.166 11.360 155.966 11.360 155.726C11.360 155.486 11.440 155.286 11.680 155.086C12.040 154.806 12.920 154.486 12.920 153.086C12.920 151.086 10.040 150.686 9.400 150.686ZM8.280 152.366C8.360 151.686 8.920 151.406 9.520 151.366C10.200 151.366 10.800 151.566 11.120 151.926C11.360 152.166 11.480 152.606 11.480 152.966C11.440 153.686 11.240 154.886 10.560 154.886C10.440 154.886 10.240 154.806 10.040 154.726C9.640 154.446 9.320 154.046 9 153.726C8.680 153.366 8.280 152.926 8.280 152.366ZM6.920 156.206C7.040 156.046 7.240 155.926 7.480 155.926C7.680 155.926 7.880 156.086 8.040 156.166C8.280 156.326 8.480 156.526 8.720 156.726C9.160 157.126 9.520 157.566 9.720 158.086C9.800 158.286 9.880 158.446 9.880 158.646C9.880 159.286 9.200 160.086 8.400 160.086C7.640 160.086 6.560 159.286 6.280 158.006C6.240 157.886 6.240 157.806 6.240 157.726C6.240 157.286 6.400 156.846 6.640 156.526C6.680 156.406 6.800 156.286 6.920 156.206Z"></path></g></g><g><line stroke="black" stroke-width="1.6" x1="59.83441478470968" x2="59.83441478470968" y1="158.8461538461538" y2="198.8461538461538"></line><g><g><path d="M71.614 162.046C67.134 162.046 65.134 166.166 65.134 168.606C65.134 168.726 65.134 168.846 65.174 168.966C65.454 171.366 66.974 172.606 68.494 172.606L68.654 172.606C70.254 172.606 71.894 170.846 71.894 169.246C71.894 166.886 69.814 166.486 68.694 166.486L67.934 166.486C67.374 166.486 67.294 166.166 67.294 165.926C67.294 165.846 67.334 165.766 67.334 165.766C68.254 163.646 69.894 163.406 70.614 163.406C70.854 163.406 71.014 163.446 71.014 163.446C71.854 163.446 72.534 163.806 73.134 164.446C74.094 165.566 74.214 166.806 74.374 168.166C74.374 168.206 74.414 168.286 74.414 168.486C74.494 168.966 74.494 169.486 74.494 169.966C74.494 171.926 74.174 173.966 73.574 175.806C72.654 178.486 71.294 180.206 69.054 181.926C67.814 182.886 66.414 183.486 65.054 184.246C64.654 184.486 64.534 184.846 64.534 184.966C64.534 185.166 64.894 185.406 65.054 185.406C68.134 185.406 71.734 182.646 73.734 180.646C75.614 178.766 77.094 176.566 78.014 174.406C78.734 172.766 79.134 171.126 79.134 169.726L79.134 169.566C79.054 166.806 77.974 165.046 76.654 163.966C74.494 162.206 71.774 162.046 71.774 162.046ZM81.854 170.486C80.934 170.486 80.134 171.286 80.134 172.246C80.134 173.206 80.934 174.006 81.854 174.006C82.854 174.006 83.654 173.206 83.654 172.246C83.654 171.286 82.854 170.486 81.854 170.486ZM81.854 163.766C80.854 163.766 80.094 164.526 80.094 165.486C80.094 166.486 80.854 167.286 81.854 167.286C82.814 167.286 83.614 166.486 83.614 165.486C83.614 164.526 82.814 163.766 81.854 163.766Z"></path><path d="M74.514 152.166C74.034 152.166 73.554 152.206 73.154 152.406C72.114 152.806 71.554 153.686 71.554 154.646C71.554 155.206 71.754 155.766 72.194 156.286C72.234 156.286 72.274 156.326 72.274 156.406C72.274 156.526 72.194 156.566 72.034 156.606C70.994 156.966 69.994 158.126 69.994 159.246C69.994 159.406 70.034 159.526 70.074 159.726C70.394 161.206 72.314 162.046 73.674 162.046C74.234 162.046 74.874 161.966 75.314 161.806C76.434 161.326 77.154 160.286 77.154 159.206C77.154 158.726 77.034 158.286 76.794 157.846C76.634 157.646 76.634 157.446 76.634 157.206C76.634 156.966 76.714 156.766 76.954 156.566C77.314 156.286 78.194 155.966 78.194 154.566C78.194 152.566 75.314 152.166 74.674 152.166ZM73.554 153.846C73.634 153.166 74.194 152.886 74.794 152.846C75.474 152.846 76.074 153.046 76.394 153.406C76.634 153.646 76.754 154.086 76.754 154.446C76.714 155.166 76.514 156.366 75.834 156.366C75.714 156.366 75.514 156.286 75.314 156.206C74.914 155.926 74.594 155.526 74.274 155.206C73.954 154.846 73.554 154.406 73.554 153.846ZM72.194 157.686C72.314 157.526 72.514 157.406 72.754 157.406C72.954 157.406 73.154 157.566 73.314 157.646C73.554 157.806 73.754 158.006 73.994 158.206C74.434 158.606 74.794 159.046 74.994 159.566C75.074 159.766 75.154 159.926 75.154 160.126C75.154 160.766 74.474 161.566 73.674 161.566C72.914 161.566 71.834 160.766 71.554 159.486C71.514 159.366 71.514 159.286 71.514 159.206C71.514 158.766 71.674 158.326 71.914 158.006C71.954 157.886 72.074 157.766 72.194 157.686Z"></path></g></g></g><g><g><path d="M33.100 238.366C27.300 238.366 23.700 240.806 23.700 243.766C23.700 246.686 26.180 249.286 32.660 249.286C39.780 249.286 42.060 246.806 42.060 243.766C42.060 240.686 37.140 238.366 33.100 238.366ZM28.540 241.086C29.020 239.606 30.620 239.366 31.980 239.366C34.940 239.366 37.340 242.566 37.340 245.206C37.340 245.486 37.300 245.766 37.260 246.006C37.060 247.086 36.420 247.846 35.340 248.126C34.900 248.246 34.460 248.286 34.020 248.286C33.620 248.286 33.260 248.246 32.860 248.126C32.140 247.886 31.420 247.486 30.820 246.966C30.500 246.686 30.180 246.366 29.900 246.006C29.060 245.006 28.380 243.526 28.380 242.166C28.380 241.806 28.420 241.446 28.540 241.086Z"></path></g><line stroke="#000000" stroke-width="2.2" x1="20.5" x2="47.3" y1="208.8461538461538" y2="208.8461538461538"></line><line stroke="#000000" stroke-width="2.2" x1="20.5" x2="47.3" y1="218.8461538461538" y2="218.8461538461538"></line><line stroke="#000000" stroke-width="2.2" x1="20.5" x2="47.3" y1="228.8461538461538" y2="228.8461538461538"></line><line stroke="#000000" stroke-width="2.2" x1="20.5" x2="47.3" y1="238.8461538461538" y2="238.8461538461538"></line></g></g><g transform="translate(93.84615384615385)"><g><g><line stroke="#6A6A6A" stroke-width="1.3" x1="0" x2="148.33546130310935" y1="369.8461538461538" y2="369.8461538461538"></line><line stroke="#6A6A6A" stroke-width="1.3" x1="0" x2="148.33546130310935" y1="359.8461538461538" y2="359.8461538461538"></line><line stroke="#6A6A6A" stroke-width="1.3" x1="0" x2="148.33546130310935" y1="349.8461538461538" y2="349.8461538461538"></line><line stroke="#6A6A6A" stroke-width="1.3" x1="0" x2="148.33546130310935" y1="339.8461538461538" y2="339.8461538461538"></line><line stroke="#6A6A6A" stroke-width="1.3" x1="0" x2="148.33546130310935" y1="329.8461538461538" y2="329.8461538461538"></line></g><g><path d="M17.080 329.366C10.120 329.366 7 334.446 7 338.286C7 341.486 8.680 344.246 11.920 344.246C14.440 344.246 16.160 342.486 16.160 340.006C16.160 337.446 14.280 335.846 12.320 335.846C11.240 335.846 10.840 336.126 10.320 336.126C9.800 336.126 9.680 335.806 9.680 335.406C9.680 333.806 12.080 330.886 16.160 330.886C20.400 330.886 22.240 335.046 22.240 341.326C22.240 345.446 21.360 350.246 18.880 354.086C16.480 357.806 12.360 361.206 7.400 364.046C7.040 364.246 6.800 364.446 6.800 364.766C6.800 365.006 6.960 365.246 7.320 365.246C7.520 365.246 7.760 365.166 8 365.046C13.320 362.446 18.440 359.406 22.680 354.846C26.160 351.086 28.240 346.206 28.240 340.966C28.240 334.006 24 329.366 17.080 329.366ZM32.200 342.686C30.960 342.686 30.040 343.606 30.040 344.846C30.040 346.086 30.960 347.006 32.200 347.006C33.440 347.006 34.360 346.086 34.360 344.846C34.360 343.606 33.440 342.686 32.200 342.686ZM32.160 332.646C30.920 332.646 29.960 333.606 29.960 334.846C29.960 336.086 30.920 337.046 32.160 337.046C33.400 337.046 34.360 336.086 34.360 334.846C34.360 333.606 33.400 332.646 32.160 332.646Z"></path><path d="M21.000 319.486C20.520 319.486 20.040 319.526 19.640 319.726C18.600 320.126 18.040 321.006 18.040 321.966C18.040 322.526 18.240 323.086 18.680 323.606C18.720 323.606 18.760 323.646 18.760 323.726C18.760 323.846 18.680 323.886 18.520 323.926C17.480 324.286 16.480 325.446 16.480 326.566C16.480 326.726 16.520 326.846 16.560 327.046C16.880 328.526 18.800 329.366 20.160 329.366C20.720 329.366 21.360 329.286 21.800 329.126C22.920 328.646 23.640 327.606 23.640 326.526C23.640 326.046 23.520 325.606 23.280 325.166C23.120 324.966 23.120 324.766 23.120 324.526C23.120 324.286 23.200 324.086 23.440 323.886C23.800 323.606 24.680 323.286 24.680 321.886C24.680 319.886 21.800 319.486 21.160 319.486ZM20.040 321.166C20.120 320.486 20.680 320.206 21.280 320.166C21.960 320.166 22.560 320.366 22.880 320.726C23.120 320.966 23.240 321.406 23.240 321.766C23.200 322.486 23.000 323.686 22.320 323.686C22.200 323.686 22.000 323.606 21.800 323.526C21.400 323.246 21.080 322.846 20.760 322.526C20.440 322.166 20.040 321.726 20.040 321.166ZM18.680 325.006C18.800 324.846 19.000 324.726 19.240 324.726C19.440 324.726 19.640 324.886 19.800 324.966C20.040 325.126 20.240 325.326 20.480 325.526C20.920 325.926 21.280 326.366 21.480 326.886C21.560 327.086 21.640 327.246 21.640 327.446C21.640 328.086 20.960 328.886 20.160 328.886C19.400 328.886 18.320 328.086 18.040 326.806C18.000 326.686 18.000 326.606 18.000 326.526C18.000 326.086 18.160 325.646 18.400 325.326C18.440 325.206 18.560 325.086 18.680 325.006Z"></path></g><g></g><text font-family='Alegreya' font-style='italic' text-anchor='end' stroke='#7a7a7a' font-size="24" x="0" y="319.8461538461538">15</text></g><g><line stroke="black" stroke-width="1.6" x1="149.13546130310937" x2="149.13546130310937" y1="329.8461538461538" y2="369.8461538461538"></line></g><g><g><path d="M57.900 349.366C52.100 349.366 48.500 351.806 48.500 354.766C48.500 357.686 50.980 360.286 57.460 360.286C64.580 360.286 66.860 357.806 66.860 354.766C66.860 351.686 61.940 349.366 57.900 349.366ZM53.340 352.086C53.820 350.606 55.420 350.366 56.780 350.366C59.740 350.366 62.140 353.566 62.140 356.206C62.140 356.486 62.100 356.766 62.060 357.006C61.860 358.086 61.220 358.846 60.140 359.126C59.700 359.246 59.260 359.286 58.820 359.286C58.420 359.286 58.060 359.246 57.660 359.126C56.940 358.886 56.220 358.486 55.620 357.966C55.300 357.686 54.980 357.366 54.700 357.006C53.860 356.006 53.180 354.526 53.180 353.166C53.180 352.806 53.220 352.446 53.340 352.086Z"></path></g></g></g><g transform="translate(258.7816151492632)"><g><g><line stroke="#6A6A6A" stroke-width="1.3" x1="-16.599999999999966" x2="123.53546130310934" y1="369.8461538461538" y2="369.8461538461538"></line><line stroke="#6A6A6A" stroke-width="1.3" x1="-16.599999999999966" x2="123.53546130310934" y1="359.8461538461538" y2="359.8461538461538"></line><line stroke="#6A6A6A" stroke-width="1.3" x1="-16.599999999999966" x2="123.53546130310934" y1="349.8461538461538" y2="349.8461538461538"></line><line stroke="#6A6A6A" stroke-width="1.3" x1="-16.599999999999966" x2="123.53546130310934" y1="339.8461538461538" y2="339.8461538461538"></line><line stroke="#6A6A6A" stroke-width="1.3" x1="-16.599999999999966" x2="123.53546130310934" y1="329.8461538461538" y2="329.8461538461538"></line></g><g><path d="M11.980 321.406L11.980 319.286L-2.780 319.286L-2.780 321.406L3.420 321.406L3.420 338.126L5.820 338.126L5.820 321.406ZM12.820 358.966L6.220 340.166L3.100 340.166L-3.620 358.966L-1.060 358.966L0.940 353.326L8.180 353.326L10.140 358.966ZM7.540 351.286L1.540 351.286L4.620 342.726ZM11.620 374.366C11.620 372.126 10.580 370.726 8.180 369.806C9.900 369.006 10.780 367.606 10.780 365.726C10.780 362.966 8.780 360.926 5.220 360.926L-2.420 360.926L-2.420 379.766L6.060 379.766C9.460 379.766 11.620 377.486 11.620 374.366ZM8.380 366.046C8.380 367.966 7.300 369.046 4.620 369.046L-0.020 369.046L-0.020 363.046L4.620 363.046C7.300 363.046 8.380 364.126 8.380 366.046ZM9.220 374.406C9.220 376.206 8.100 377.646 5.860 377.646L-0.020 377.646L-0.020 371.166L5.860 371.166C8.100 371.166 9.220 372.566 9.220 374.406Z"></path></g></g><g><line stroke="black" stroke-width="1.6" x1="124.33546130310934" x2="124.33546130310934" y1="329.8461538461538" y2="369.8461538461538"></line></g><g><g><path d="M33.100 344.366C27.300 344.366 23.700 346.806 23.700 349.766C23.700 352.686 26.180 355.286 32.660 355.286C39.780 355.286 42.060 352.806 42.060 349.766C42.060 346.686 37.140 344.366 33.100 344.366ZM28.540 347.086C29.020 345.606 30.620 345.366 31.980 345.366C34.940 345.366 37.340 348.566 37.340 351.206C37.340 351.486 37.300 351.766 37.260 352.006C37.060 353.086 36.420 353.846 35.340 354.126C34.900 354.246 34.460 354.286 34.020 354.286C33.620 354.286 33.260 354.246 32.860 354.126C32.140 353.886 31.420 353.486 30.820 352.966C30.500 352.686 30.180 352.366 29.900 352.006C29.060 351.006 28.380 349.526 28.380 348.166C28.380 347.806 28.420 347.446 28.540 347.086Z"></path></g></g></g><g transform="translate(398.9170764523725)"><g><g><line stroke="#6A6A6A" stroke-width="1.3" x1="-16.600000000000023" x2="123.53546130310934" y1="369.8461538461538" y2="369.8461538461538"></line><line stroke="#6A6A6A" stroke-width="1.3" x1="-16.600000000000023" x2="123.53546130310934" y1="359.8461538461538" y2="359.8461538461538"></line><line stroke="#6A6A6A" stroke-width="1.3" x1="-16.600000000000023" x2="123.53546130310934" y1="349.8461538461538" y2="349.8461538461538"></line><line stroke="#6A6A6A" stroke-width="1.3" x1="-16.600000000000023" x2="123.53546130310934" y1="339.8461538461538" y2="339.8461538461538"></line><line stroke="#6A6A6A" stroke-width="1.3" x1="-16.600000000000023" x2="123.53546130310934" y1="329.8461538461538" y2="329.8461538461538"></line></g></g><g><line stroke="black" stroke-width="1.6" x1="124.33546130310934" x2="124.33546130310934" y1="329.8461538461538" y2="369.8461538461538"></line></g><g><g><path d="M33.100 354.366C27.300 354.366 23.700 356.806 23.700 359.766C23.700 362.686 26.180 365.286 32.660 365.286C39.780 365.286 42.060 362.806 42.060 359.766C42.060 356.686 37.140 354.366 33.100 354.366ZM28.540 357.086C29.020 355.606 30.620 355.366 31.980 355.366C34.940 355.366 37.340 358.566 37.340 361.206C37.340 361.486 37.300 361.766 37.260 362.006C37.060 363.086 36.420 363.846 35.340 364.126C34.900 364.246 34.460 364.286 34.020 364.286C33.620 364.286 33.260 364.246 32.860 364.126C32.140 363.886 31.420 363.486 30.820 362.966C30.500 362.686 30.180 362.366 29.900 362.006C29.060 361.006 28.380 359.526 28.380 358.166C28.380 357.806 28.420 357.446 28.540 357.086Z"></path></g></g></g><g transform="translate(539.0525377554818)"><g><g><line stroke="#6A6A6A" stroke-width="1.3" x1="-16.600000000000023" x2="134.13546130310937" y1="369.8461538461538" y2="369.8461538461538"></line><line stroke="#6A6A6A" stroke-width="1.3" x1="-16.600000000000023" x2="134.13546130310937" y1="359.8461538461538" y2="359.8461538461538"></line><line stroke="#6A6A6A" stroke-width="1.3" x1="-16.600000000000023" x2="134.13546130310937" y1="349.8461538461538" y2="349.8461538461538"></line><line stroke="#6A6A6A" stroke-width="1.3" x1="-16.600000000000023" x2="134.13546130310937" y1="339.8461538461538" y2="339.8461538461538"></line><line stroke="#6A6A6A" stroke-width="1.3" x1="-16.600000000000023" x2="134.13546130310937" y1="329.8461538461538" y2="329.8461538461538"></line></g><g><path d="M14.100 359.806C13.860 356.446 11.380 353.806 8.020 353.806L7.740 353.806C7.660 353.806 7.500 353.806 7.420 353.846C7.140 352.126 7.020 351.726 6.740 350.286C10.260 347.046 11.540 343.726 11.540 339.086C11.540 337.446 11.140 335.766 10.380 334.086C9.380 331.726 8.420 331.566 8.420 331.566C5.940 332.686 4.180 336.646 4.180 341.406C4.180 342.246 4.220 343.126 4.380 344.046L4.700 345.726C0.820 349.006-3.500 352.886-3.500 357.926C-3.500 358.166-3.500 358.446-3.460 358.726C-2.980 365.086 1.980 367.086 6.260 367.086C7.060 367.086 7.620 366.966 8.180 366.966L8.700 369.806C8.820 370.446 8.980 371.926 8.980 372.446C8.980 376.726 5.780 376.766 5.460 376.766L4.940 376.766C4.060 376.766 3.300 376.646 2.740 376.246C2.580 376.126 2.500 376.046 2.500 375.966C2.500 375.846 2.620 375.806 2.740 375.726C2.980 375.686 3.180 375.686 3.420 375.566C4.500 375.246 5.940 374.406 5.940 372.846C5.940 372.846 5.940 372.646 5.940 372.646C5.940 371.526 5.460 370.486 4.380 370.046C3.980 369.846 3.620 369.766 3.220 369.766C1.660 369.766 0.220 371.006 0.020 372.646C-0.020 372.646-0.100 373.046-0.100 373.566C-0.100 375.046 0.580 378.046 4.900 378.046C5.060 378.046 5.300 378.006 5.500 378.006C7.340 377.886 10.300 376.446 10.300 372.326C10.300 370.326 9.740 368.446 9.460 366.606C12.380 365.526 14.100 363.126 14.100 360.206ZM8.620 336.726C9.500 336.726 10.060 337.406 10.060 338.846C10.060 339.006 10.060 339.206 10.020 339.406C9.700 341.566 8.580 342.566 5.780 344.726C5.700 344.086 5.580 343.566 5.580 343.406C5.540 343.126 5.540 342.806 5.540 342.486C5.540 339.766 6.540 336.806 8.620 336.726ZM-1.060 360.046C-1.060 355.686 2.100 353.446 5.540 350.886L6.020 354.046C3.660 354.726 1.820 356.966 1.820 359.326C1.820 359.726 1.860 360.126 1.980 360.486C2.380 362.246 3.540 363.566 4.780 363.966C5.020 364.046 5.220 364.086 5.340 364.086C5.540 364.086 5.660 363.966 5.660 363.846C5.660 363.686 5.460 363.486 5.260 363.366C4.740 363.166 3.820 362.126 3.780 361.046L3.780 360.806C3.780 358.966 5.220 358.326 6.620 358.046L7.980 365.566C7.580 365.726 7.020 365.806 6.260 365.806C3.420 365.806-0.900 364.846-1.060 360.286ZM9.260 365.286C8.860 362.926 8.700 360.886 8.140 357.926C10.340 357.926 11.820 359.206 11.940 361.406L11.940 361.686C11.940 363.526 11.140 364.486 9.260 365.286Z"></path></g></g><g><line stroke="#000000" stroke-width="1.6" x1="124.33546130310934" x2="124.33546130310934" y1="329.8461538461538" y2="369.8461538461538"></line><line stroke="#000000" stroke-width="5" x1="131.63546130310934" x2="131.63546130310934" y1="329.8461538461538" y2="369.8461538461538"></line></g><g><g><path d="M33.100 374.366C27.300 374.366 23.700 376.806 23.700 379.766C23.700 382.686 26.180 385.286 32.660 385.286C39.780 385.286 42.060 382.806 42.060 379.766C42.060 376.686 37.140 374.366 33.100 374.366ZM28.540 377.086C29.020 375.606 30.620 375.366 31.980 375.366C34.940 375.366 37.340 378.566 37.340 381.206C37.340 381.486 37.300 381.766 37.260 382.006C37.060 383.086 36.420 383.846 35.340 384.126C34.900 384.246 34.460 384.286 34.020 384.286C33.620 384.286 33.260 384.246 32.860 384.126C32.140 383.886 31.420 383.486 30.820 382.966C30.500 382.686 30.180 382.366 29.900 382.006C29.060 381.006 28.380 379.526 28.380 378.166C28.380 377.806 28.420 377.446 28.540 377.086Z"></path></g><line stroke="#000000" stroke-width="2.2" x1="20.5" x2="47.3" y1="379.8461538461538" y2="379.8461538461538"></line></g></g></svg>