<?xml version="1.0" encoding="UTF-8" standalone="no"?><svg xmlns="http://www.w3.org/2000/svg" height="279.4mm" viewBox="0 0 1328.6153846153845 1719.3846153846152" width="215.9mm"><g transform="translate(163.84615384615387)"><g><g><line stroke="#6A6A6A" stroke-width="1.3" x1="0" x2="189.87743591543767" y1="216.3461538461538" y2="216.3461538461538"></line><line stroke="#6A6A6A" stroke-width="1.3" x1="0" x2="189.87743591543767" y1="206.3461538461538" y2="206.3461538461538"></line><line stroke="#6A6A6A" stroke-width="1.3" x1="0" x2="189.87743591543767" y1="196.3461538461538" y2="196.3461538461538"></line><line stroke="#6A6A6A" stroke-width="1.3" x1="0" x2="189.87743591543767" y1="186.3461538461538" y2="186.3461538461538"></line><line stroke="#6A6A6A" stroke-width="1.3" x1="0" x2="189.87743591543767" y1="176.3461538461538" y2="176.3461538461538"></line></g><g><path d="M25.200 162.426C24.640 162.426 23.400 163.466 22.600 164.346C19.640 167.626 18.680 172.626 18.680 176.786C18.680 179.106 18.960 181.706 19.240 183.346C19.320 183.826 19.360 183.906 18.880 184.306C16.320 186.426 13.560 188.866 11.480 191.426C8.720 194.866 7 198.586 7 202.866C7 209.826 11.760 216.426 21.560 216.426C22.480 216.426 23.520 216.346 24.320 216.186C24.760 216.106 24.840 216.066 24.920 216.546C25.400 219.226 26 222.706 26 224.586C26 230.506 22 231.226 19.640 231.226C17.480 231.226 16.440 230.586 16.440 230.066C16.440 229.626 16.800 229.666 17.720 229.386C18.960 229.026 20.400 227.946 20.400 225.626C20.400 223.426 19 221.546 16.560 221.546C13.880 221.546 12.280 223.666 12.280 226.146C12.280 228.746 13.840 232.666 19.880 232.666C22.560 232.666 27.760 231.466 27.760 224.666C27.760 222.386 27.040 218.586 26.600 216.106C26.520 215.626 26.560 215.666 27.120 215.426C31.160 213.826 33.840 210.426 33.840 205.906C33.840 200.786 30.080 196.266 24.200 196.266C23.080 196.266 23.200 196.466 23.040 195.546L22.040 189.746C21.960 189.266 22.040 189.226 22.280 188.986C22.920 188.386 23.760 187.546 24.520 186.706C27.880 183.026 29.880 178.266 29.880 173.746C29.880 170.266 28.920 166.826 27.280 164.426C26.680 163.546 25.640 162.426 25.200 162.426ZM20.040 190.586C20.440 190.266 20.520 190.306 20.600 190.746L21.440 195.866C21.560 196.626 21.560 196.586 20.840 196.826C17.320 198.026 15.040 201.186 15.040 204.586C15.040 208.186 16.920 210.746 19.640 211.666C19.960 211.786 20.440 211.906 20.720 211.906C21.040 211.906 21.200 211.706 21.200 211.466C21.200 211.186 20.880 211.066 20.600 210.946C18.920 210.226 17.720 208.506 17.720 206.666C17.720 204.386 19.280 202.666 21.720 201.986C22.360 201.826 22.440 201.866 22.520 202.306L24.520 214.226C24.600 214.666 24.560 214.666 23.960 214.786C23.320 214.906 22.520 214.986 21.720 214.986C14.720 214.986 10.200 211.106 10.200 205.546C10.200 203.186 10.600 200.026 13.920 196.266C16.320 193.586 18.160 192.106 20.040 190.586ZM24.640 201.666C27.880 201.946 30.560 204.666 30.560 208.186C30.560 210.706 29.040 212.746 26.800 213.866C26.320 214.106 26.240 214.106 26.160 213.626L24.200 202.226C24.120 201.746 24.160 201.626 24.640 201.666ZM25.800 168.626C27.120 168.626 28.200 169.706 28.200 171.906C28.200 174.666 26.880 177.226 23.760 180.346C23.120 180.986 22.160 181.906 21.240 182.706C20.960 182.946 20.800 182.906 20.720 182.386C20.560 181.346 20.480 179.986 20.480 178.706C20.480 172.466 23.360 168.626 25.800 168.626Z"></path></g><g></g><g><g><path d="M65.180 189.306L62.260 189.306L62.260 180.746C62.260 180.426 62.220 180.066 61.780 180.066C61.420 180.066 61.220 180.146 60.980 180.426L57.180 185.026C57.020 185.226 56.820 185.466 56.820 185.946C56.820 185.946 56.820 187.546 56.820 189.306L51.420 189.306C54.620 186.586 61.020 177.506 61.140 177.066C61.140 176.986 61.180 176.946 61.180 176.866C61.180 176.546 60.900 176.306 60.580 176.306C60.220 176.306 58.580 176.386 57.860 176.386C57.140 176.386 55.340 176.306 55.020 176.306C54.660 176.306 54.100 176.426 54.100 177.066C54.100 182.026 50.180 187.586 48.980 189.266L48.740 189.586C48.740 189.626 48.700 189.666 48.700 189.706C48.620 189.866 48.580 190.026 48.580 190.146C48.580 190.546 48.900 190.826 49.380 190.826L56.820 190.826L56.820 193.346C56.820 194.426 55.940 194.746 55.220 194.746C54.580 194.746 54.300 195.106 54.300 195.506C54.300 195.906 54.460 196.346 55.060 196.346C55.700 196.346 63.580 196.346 63.580 196.346C63.980 196.346 64.380 196.066 64.380 195.506C64.380 194.946 63.900 194.706 63.500 194.706C63.100 194.706 62.260 194.466 62.260 193.186L62.260 190.826C63.980 190.826 65.180 190.826 65.180 190.826C65.580 190.826 65.780 190.546 65.780 190.066C65.780 189.586 65.620 189.306 65.180 189.306Z"></path></g><g><path d="M65.180 209.306L62.260 209.306L62.260 200.746C62.260 200.426 62.220 200.066 61.780 200.066C61.420 200.066 61.220 200.146 60.980 200.426L57.180 205.026C57.020 205.226 56.820 205.466 56.820 205.946C56.820 205.946 56.820 207.546 56.820 209.306L51.420 209.306C54.620 206.586 61.020 197.506 61.140 197.066C61.140 196.986 61.180 196.946 61.180 196.866C61.180 196.546 60.900 196.306 60.580 196.306C60.220 196.306 58.580 196.386 57.860 196.386C57.140 196.386 55.340 196.306 55.020 196.306C54.660 196.306 54.100 196.426 54.100 197.066C54.100 202.026 50.180 207.586 48.980 209.266L48.740 209.586C48.740 209.626 48.700 209.666 48.700 209.706C48.620 209.866 48.580 210.026 48.580 210.146C48.580 210.546 48.900 210.826 49.380 210.826L56.820 210.826L56.820 213.346C56.820 214.426 55.940 214.746 55.220 214.746C54.580 214.746 54.300 215.106 54.300 215.506C54.300 215.906 54.460 216.346 55.060 216.346C55.700 216.346 63.580 216.346 63.580 216.346C63.980 216.346 64.380 216.066 64.380 215.506C64.380 214.946 63.900 214.706 63.500 214.706C63.100 214.706 62.260 214.466 62.260 213.186L62.260 210.826C63.980 210.826 65.180 210.826 65.180 210.826C65.580 210.826 65.780 210.546 65.780 210.066C65.780 209.586 65.620 209.306 65.180 209.306Z"></path></g></g></g><g><line stroke="black" stroke-width="1.6" x1="180.07743591543766" x2="180.07743591543766" y1="176.3461538461538" y2="216.3461538461538"></line><line stroke="black" stroke-width="5" x1="187.37743591543764" x2="187.37743591543764" y1="176.3461538461538" y2="216.3461538461538"></line></g><g><g><path d="M93.360 206.986C97.360 206.986 102.280 203.266 102.280 199.466C102.280 197.186 100.480 195.706 97.880 195.706C92.960 195.706 89 199.346 89 203.226C89 205.586 90.920 206.986 93.360 206.986Z"></path></g><g><path d="M93.360 216.986C97.360 216.986 102.280 213.266 102.280 209.466C102.280 207.186 100.480 205.706 97.880 205.706C92.960 205.706 89 209.346 89 213.226C89 215.586 90.920 216.986 93.360 216.986Z"></path></g><line stroke="#000000" stroke-width="1.2" x1="101.68" x2="101.68" y1="209.5061538461538" y2="164.5061538461538"></line></g><g><path d="M143.459 202.786C141.939 200.946 140.699 199.466 140.699 197.226C140.699 197.066 140.739 196.866 140.739 196.706C140.899 194.386 142.339 192.466 143.379 190.826C143.499 190.626 143.539 190.426 143.539 190.226C143.539 189.826 143.379 189.466 143.379 189.466C143.379 189.466 137.459 182.426 136.779 181.746C136.579 181.546 136.299 181.426 136.059 181.426C135.659 181.426 135.259 181.706 135.259 182.266C135.259 182.466 135.299 182.666 135.419 182.906C135.579 183.346 137.859 185.386 137.859 188.266C137.859 189.746 137.259 191.466 135.459 193.346C135.059 193.746 134.899 194.186 134.899 194.506C134.899 195.066 135.299 195.466 135.299 195.466L137.259 197.866C137.899 198.666 138.459 199.426 138.979 200.266C139.059 200.426 139.219 200.626 139.219 200.826C139.219 200.866 139.219 200.946 139.179 200.986C139.099 201.146 138.939 201.186 138.739 201.186C138.499 201.186 138.259 201.106 138.099 201.066C137.899 201.066 137.659 200.946 137.459 200.946C135.739 200.946 134.179 202.666 134.179 204.786C134.179 206.786 135.899 208.746 138.819 210.986C139.139 211.226 139.539 211.346 139.859 211.346C140.139 211.346 140.419 211.266 140.459 211.106C140.499 210.986 140.539 210.906 140.539 210.826C140.539 210.466 140.219 210.146 139.899 209.866C139.379 209.866 138.939 208.786 138.859 208.426C138.739 208.106 138.699 207.746 138.699 207.386C138.699 206.146 139.299 204.746 140.579 204.506C140.779 204.466 140.979 204.466 141.219 204.466C142.379 204.466 143.699 204.906 144.339 205.146C144.379 205.146 144.419 205.186 144.459 205.186C144.579 205.226 144.659 205.226 144.739 205.226C144.859 205.226 144.939 205.186 144.939 205.066C144.939 204.586 143.899 203.266 143.459 202.786Z"></path></g></g></svg>