<?xml version="1.0" encoding="UTF-8" standalone="no"?><svg xmlns="http://www.w3.org/2000/svg" height="279.4mm" viewBox="0 0 1328.6153846153845 1719.3846153846152" width="215.9mm"><g transform="translate(93.84615384615385)"><g><g><line stroke="#6A6A6A" stroke-width="1.3" x1="0" x2="1328.0928885946448" y1="183.8461538461538" y2="183.8461538461538"></line><line stroke="#6A6A6A" stroke-width="1.3" x1="0" x2="1328.0928885946448" y1="173.8461538461538" y2="173.8461538461538"></line><line stroke="#6A6A6A" stroke-width="1.3" x1="0" x2="1328.0928885946448" y1="163.8461538461538" y2="163.8461538461538"></line><line stroke="#6A6A6A" stroke-width="1.3" x1="0" x2="1328.0928885946448" y1="153.8461538461538" y2="153.8461538461538"></line><line stroke="#6A6A6A" stroke-width="1.3" x1="0" x2="1328.0928885946448" y1="143.8461538461538" y2="143.8461538461538"></line></g><g><path d="M25.200 129.926C24.640 129.926 23.400 130.966 22.600 131.846C19.640 135.126 18.680 140.126 18.680 144.286C18.680 146.606 18.960 149.206 19.240 150.846C19.320 151.326 19.360 151.406 18.880 151.806C16.320 153.926 13.560 156.366 11.480 158.926C8.720 162.366 7 166.086 7 170.366C7 177.326 11.760 183.926 21.560 183.926C22.480 183.926 23.520 183.846 24.320 183.686C24.760 183.606 24.840 183.566 24.920 184.046C25.400 186.726 26 190.206 26 192.086C26 198.006 22 198.726 19.640 198.726C17.480 198.726 16.440 198.086 16.440 197.566C16.440 197.126 16.800 197.166 17.720 196.886C18.960 196.526 20.400 195.446 20.400 193.126C20.400 190.926 19 189.046 16.560 189.046C13.880 189.046 12.280 191.166 12.280 193.646C12.280 196.246 13.840 200.166 19.880 200.166C22.560 200.166 27.760 198.966 27.760 192.166C27.760 189.886 27.040 186.086 26.600 183.606C26.520 183.126 26.560 183.166 27.120 182.926C31.160 181.326 33.840 177.926 33.840 173.406C33.840 168.286 30.080 163.766 24.200 163.766C23.080 163.766 23.200 163.966 23.040 163.046L22.040 157.246C21.960 156.766 22.040 156.726 22.280 156.486C22.920 155.886 23.760 155.046 24.520 154.206C27.880 150.526 29.880 145.766 29.880 141.246C29.880 137.766 28.920 134.326 27.280 131.926C26.680 131.046 25.640 129.926 25.200 129.926ZM20.040 158.086C20.440 157.766 20.520 157.806 20.600 158.246L21.440 163.366C21.560 164.126 21.560 164.086 20.840 164.326C17.320 165.526 15.040 168.686 15.040 172.086C15.040 175.686 16.920 178.246 19.640 179.166C19.960 179.286 20.440 179.406 20.720 179.406C21.040 179.406 21.200 179.206 21.200 178.966C21.200 178.686 20.880 178.566 20.600 178.446C18.920 177.726 17.720 176.006 17.720 174.166C17.720 171.886 19.280 170.166 21.720 169.486C22.360 169.326 22.440 169.366 22.520 169.806L24.520 181.726C24.600 182.166 24.560 182.166 23.960 182.286C23.320 182.406 22.520 182.486 21.720 182.486C14.720 182.486 10.200 178.606 10.200 173.046C10.200 170.686 10.600 167.526 13.920 163.766C16.320 161.086 18.160 159.606 20.040 158.086ZM24.640 169.166C27.880 169.446 30.560 172.166 30.560 175.686C30.560 178.206 29.040 180.246 26.800 181.366C26.320 181.606 26.240 181.606 26.160 181.126L24.200 169.726C24.120 169.246 24.160 169.126 24.640 169.166ZM25.800 136.126C27.120 136.126 28.200 137.206 28.200 139.406C28.200 142.166 26.880 144.726 23.760 147.846C23.120 148.486 22.160 149.406 21.240 150.206C20.960 150.446 20.800 150.406 20.720 149.886C20.560 148.846 20.480 147.486 20.480 146.206C20.480 139.966 23.360 136.126 25.800 136.126Z"></path></g><g></g><g><g><path d="M56.380 143.926C56.180 143.926 55.980 143.886 55.780 143.886C52.340 143.886 48.900 146.166 48.900 148.286C48.900 149.606 49.660 151.366 52.140 151.526L52.340 151.526C54.100 151.526 54.980 150.246 54.980 148.926L54.980 148.606C54.860 147.126 53.860 147.046 53.660 146.966C53.460 146.886 52.860 146.966 52.860 146.406L52.860 146.246C52.940 145.566 54.180 145.246 54.540 145.246C57.940 145.246 58.260 147.366 58.260 148.326L58.260 148.606C58.260 151.566 55.900 152.726 53.380 152.846C52.980 152.886 52.420 153.086 52.420 153.526C52.420 154.006 53.100 154.006 53.420 154.006C58.020 154.006 58.380 157.126 58.380 157.646C58.380 161.886 56.220 162.366 55.340 162.366C55.180 162.366 55.020 162.326 54.980 162.326C54.660 162.286 53.900 162.286 53.860 161.686L53.860 161.486C53.860 160.606 54.740 160.006 54.780 158.846C54.780 158.446 54.740 158.006 54.580 157.606C54.140 156.606 52.980 155.966 51.900 155.966C51.740 155.966 51.620 155.966 51.460 156.006C50.780 156.126 50.020 156.526 49.540 157.046C48.860 157.646 48.660 158.606 48.660 159.486C48.740 162.606 51.580 163.806 55.500 163.886L55.860 163.886C59.820 163.886 63.900 161.846 63.900 158.326L63.900 158.046C63.860 157.486 63.780 156.926 63.540 156.406C63.380 156.006 63.100 155.606 62.780 155.246C62.540 154.926 62.220 154.646 61.820 154.406L60.980 153.926L59.660 153.566C59.460 153.526 59.340 153.526 59.260 153.366C59.220 153.286 59.220 153.246 59.220 153.166C59.220 153.006 59.260 152.846 59.380 152.806C59.820 152.686 60.260 152.646 60.620 152.446C61.220 152.166 61.740 151.886 62.180 151.366C62.820 150.646 63.060 149.726 63.060 148.806C63.060 145.126 58.060 144.046 56.380 143.926Z"></path></g><g><path d="M65.180 176.806L62.260 176.806L62.260 168.246C62.260 167.926 62.220 167.566 61.780 167.566C61.420 167.566 61.220 167.646 60.980 167.926L57.180 172.526C57.020 172.726 56.820 172.966 56.820 173.446C56.820 173.446 56.820 175.046 56.820 176.806L51.420 176.806C54.620 174.086 61.020 165.006 61.140 164.566C61.140 164.486 61.180 164.446 61.180 164.366C61.180 164.046 60.900 163.806 60.580 163.806C60.220 163.806 58.580 163.886 57.860 163.886C57.140 163.886 55.340 163.806 55.020 163.806C54.660 163.806 54.100 163.926 54.100 164.566C54.100 169.526 50.180 175.086 48.980 176.766L48.740 177.086C48.740 177.126 48.700 177.166 48.700 177.206C48.620 177.366 48.580 177.526 48.580 177.646C48.580 178.046 48.900 178.326 49.380 178.326L56.820 178.326L56.820 180.846C56.820 181.926 55.940 182.246 55.220 182.246C54.580 182.246 54.300 182.606 54.300 183.006C54.300 183.406 54.460 183.846 55.060 183.846C55.700 183.846 63.580 183.846 63.580 183.846C63.980 183.846 64.380 183.566 64.380 183.006C64.380 182.446 63.900 182.206 63.500 182.206C63.100 182.206 62.260 181.966 62.260 180.686L62.260 178.326C63.980 178.326 65.180 178.326 65.180 178.326C65.580 178.326 65.780 178.046 65.780 177.566C65.780 177.086 65.620 176.806 65.180 176.806Z"></path></g></g></g><g><line stroke="black" stroke-width="1.6" x1="597.8139578181576" x2="597.8139578181576" y1="143.8461538461538" y2="183.8461538461538"></line></g><g><g><path d="M155.750 174.486C159.750 174.486 164.670 170.766 164.670 166.966C164.670 164.686 162.870 163.206 160.270 163.206C155.350 163.206 151.390 166.846 151.390 170.726C151.390 173.086 153.310 174.486 155.750 174.486Z"></path></g><line stroke="#000000" stroke-width="1.2" x1="164.06993722385596" x2="164.06993722385596" y1="167.0061538461538" y2="132.0061538461538"></line><g><polygon fill="black" points="164.06993722385596,136.8461538461538 213.58371728988948,136.8461538461538 213.58371728988948,131.8461538461538 164.06993722385596,131.8461538461538" stroke="black" stroke-width="0"></polygon><polygon fill="black" points="213.58371728988948,136.8461538461538 263.097497355923,136.8461538461538 263.097497355923,131.8461538461538 213.58371728988948,131.8461538461538" stroke="black" stroke-width="0"></polygon><g><polygon fill="white" points="201.6637172898895,114.0461538461538 201.6637172898895,128.7261538461538 225.50371728988947,128.7261538461538 225.50371728988947,114.0461538461538" stroke="white" stroke-width="0"></polygon><path d="M211.064 128.326C210.264 128.326 209.624 128.006 209.624 127.606C209.624 127.366 209.824 127.286 210.144 127.126C210.584 126.926 211.144 126.446 211.144 125.406C211.144 124.446 210.464 123.966 209.624 123.966C208.504 123.966 207.664 124.966 207.664 126.286C207.664 127.886 208.944 129.366 211.784 129.366C215.184 129.366 217.984 127.326 217.984 124.166C217.984 123.166 217.464 122.206 216.424 121.686C216.144 121.566 215.984 121.526 215.984 121.326C215.984 121.126 216.144 121.126 216.464 120.966C218.144 120.286 219.504 119.006 219.504 117.406C219.504 115.326 217.504 114.046 215.064 114.046C212.544 114.046 210.464 115.366 210.384 117.526C210.344 118.566 210.984 119.246 211.904 119.246C212.904 119.246 213.704 118.446 213.704 117.366C213.704 116.926 213.544 116.606 213.344 116.366C213.064 116.126 212.864 116.086 212.864 115.846C212.864 115.566 213.344 115.286 214.184 115.286C215.744 115.286 216.264 116.246 216.264 117.126C216.264 119.246 214.904 120.766 212.584 120.766L212.144 120.766C211.624 120.766 211.344 121.006 211.344 121.366C211.344 121.726 211.624 121.966 212.144 121.966L212.544 121.966C214.024 121.966 214.744 122.846 214.744 124.126C214.744 125.886 213.504 128.326 211.064 128.326Z"></path></g></g><path d="M159.210 179.526C159.210 178.606 158.450 177.846 157.530 177.846C156.610 177.846 155.850 178.606 155.850 179.526C155.850 180.446 156.610 181.206 157.530 181.206C158.450 181.206 159.210 180.446 159.210 179.526Z"></path></g><g><g><path d="M205.264 174.486C209.264 174.486 214.184 170.766 214.184 166.966C214.184 164.686 212.384 163.206 209.784 163.206C204.864 163.206 200.904 166.846 200.904 170.726C200.904 173.086 202.824 174.486 205.264 174.486Z"></path></g><line stroke="#000000" stroke-width="1.2" x1="213.58371728988948" x2="213.58371728988948" y1="167.0061538461538" y2="132.0061538461538"></line><path d="M208.724 179.526C208.724 178.606 207.964 177.846 207.044 177.846C206.124 177.846 205.364 178.606 205.364 179.526C205.364 180.446 206.124 181.206 207.044 181.206C207.964 181.206 208.724 180.446 208.724 179.526Z"></path></g><g><g><path d="M254.777 174.486C258.777 174.486 263.697 170.766 263.697 166.966C263.697 164.686 261.897 163.206 259.297 163.206C254.377 163.206 250.417 166.846 250.417 170.726C250.417 173.086 252.337 174.486 254.777 174.486Z"></path></g><line stroke="#000000" stroke-width="1.2" x1="263.097497355923" x2="263.097497355923" y1="167.0061538461538" y2="132.0061538461538"></line><path d="M258.237 179.526C258.237 178.606 257.477 177.846 256.557 177.846C255.637 177.846 254.877 178.606 254.877 179.526C254.877 180.446 255.637 181.206 256.557 181.206C257.477 181.206 258.237 180.446 258.237 179.526Z"></path></g><g><g><path d="M304.291 174.486C308.291 174.486 313.211 170.766 313.211 166.966C313.211 164.686 311.411 163.206 308.811 163.206C303.891 163.206 299.931 166.846 299.931 170.726C299.931 173.086 301.851 174.486 304.291 174.486Z"></path></g><line stroke="#000000" stroke-width="1.2" x1="312.6112774219565" x2="312.6112774219565" y1="167.0061538461538" y2="132.0061538461538"></line><g><polygon fill="black" points="312.6112774219565,136.8461538461538 362.12505748799003,136.8461538461538 362.12505748799003,131.8461538461538 312.6112774219565,131.8461538461538" stroke="black" stroke-width="0"></polygon><polygon fill="black" points="362.12505748799003,136.8461538461538 411.63883755402355,136.8461538461538 411.63883755402355,131.8461538461538 362.12505748799003,131.8461538461538" stroke="black" stroke-width="0"></polygon><g><polygon fill="white" points="350.20505748799,114.0461538461538 350.20505748799,128.7261538461538 374.04505748799005,128.7261538461538 374.04505748799005,114.0461538461538" stroke="white" stroke-width="0"></polygon><path d="M359.605 128.326C358.805 128.326 358.165 128.006 358.165 127.606C358.165 127.366 358.365 127.286 358.685 127.126C359.125 126.926 359.685 126.446 359.685 125.406C359.685 124.446 359.005 123.966 358.165 123.966C357.045 123.966 356.205 124.966 356.205 126.286C356.205 127.886 357.485 129.366 360.325 129.366C363.725 129.366 366.525 127.326 366.525 124.166C366.525 123.166 366.005 122.206 364.965 121.686C364.685 121.566 364.525 121.526 364.525 121.326C364.525 121.126 364.685 121.126 365.005 120.966C366.685 120.286 368.045 119.006 368.045 117.406C368.045 115.326 366.045 114.046 363.605 114.046C361.085 114.046 359.005 115.366 358.925 117.526C358.885 118.566 359.525 119.246 360.445 119.246C361.445 119.246 362.245 118.446 362.245 117.366C362.245 116.926 362.085 116.606 361.885 116.366C361.605 116.126 361.405 116.086 361.405 115.846C361.405 115.566 361.885 115.286 362.725 115.286C364.285 115.286 364.805 116.246 364.805 117.126C364.805 119.246 363.445 120.766 361.125 120.766L360.685 120.766C360.165 120.766 359.885 121.006 359.885 121.366C359.885 121.726 360.165 121.966 360.685 121.966L361.085 121.966C362.565 121.966 363.285 122.846 363.285 124.126C363.285 125.886 362.045 128.326 359.605 128.326Z"></path></g></g><path d="M307.751 179.526C307.751 178.606 306.991 177.846 306.071 177.846C305.151 177.846 304.391 178.606 304.391 179.526C304.391 180.446 305.151 181.206 306.071 181.206C306.991 181.206 307.751 180.446 307.751 179.526Z"></path></g><g><g><path d="M353.805 174.486C357.805 174.486 362.725 170.766 362.725 166.966C362.725 164.686 360.925 163.206 358.325 163.206C353.405 163.206 349.445 166.846 349.445 170.726C349.445 173.086 351.365 174.486 353.805 174.486Z"></path></g><line stroke="#000000" stroke-width="1.2" x1="362.12505748799003" x2="362.12505748799003" y1="167.0061538461538" y2="132.0061538461538"></line><path d="M357.265 179.526C357.265 178.606 356.505 177.846 355.585 177.846C354.665 177.846 353.905 178.606 353.905 179.526C353.905 180.446 354.665 181.206 355.585 181.206C356.505 181.206 357.265 180.446 357.265 179.526Z"></path></g><g><g><path d="M403.319 174.486C407.319 174.486 412.239 170.766 412.239 166.966C412.239 164.686 410.439 163.206 407.839 163.206C402.919 163.206 398.959 166.846 398.959 170.726C398.959 173.086 400.879 174.486 403.319 174.486Z"></path></g><line stroke="#000000" stroke-width="1.2" x1="411.63883755402355" x2="411.63883755402355" y1="167.0061538461538" y2="132.0061538461538"></line><path d="M406.779 179.526C406.779 178.606 406.019 177.846 405.099 177.846C404.179 177.846 403.419 178.606 403.419 179.526C403.419 180.446 404.179 181.206 405.099 181.206C406.019 181.206 406.779 180.446 406.779 179.526Z"></path></g><g><g><path d="M452.833 174.486C456.833 174.486 461.753 170.766 461.753 166.966C461.753 164.686 459.953 163.206 457.353 163.206C452.433 163.206 448.473 166.846 448.473 170.726C448.473 173.086 450.393 174.486 452.833 174.486Z"></path></g><line stroke="#000000" stroke-width="1.2" x1="461.1526176200571" x2="461.1526176200571" y1="167.0061538461538" y2="132.0061538461538"></line><g><polygon fill="black" points="461.1526176200571,136.8461538461538 510.6663976860906,136.8461538461538 510.6663976860906,131.8461538461538 461.1526176200571,131.8461538461538" stroke="black" stroke-width="0"></polygon><polygon fill="black" points="510.6663976860906,136.8461538461538 560.180177752124,136.8461538461538 560.180177752124,131.8461538461538 510.6663976860906,131.8461538461538" stroke="black" stroke-width="0"></polygon><g><polygon fill="white" points="498.7463976860905,114.0461538461538 498.7463976860905,128.7261538461538 522.5863976860905,128.7261538461538 522.5863976860905,114.0461538461538" stroke="white" stroke-width="0"></polygon><path d="M508.146 128.326C507.346 128.326 506.706 128.006 506.706 127.606C506.706 127.366 506.906 127.286 507.226 127.126C507.666 126.926 508.226 126.446 508.226 125.406C508.226 124.446 507.546 123.966 506.706 123.966C505.586 123.966 504.746 124.966 504.746 126.286C504.746 127.886 506.026 129.366 508.866 129.366C512.266 129.366 515.066 127.326 515.066 124.166C515.066 123.166 514.546 122.206 513.506 121.686C513.226 121.566 513.066 121.526 513.066 121.326C513.066 121.126 513.226 121.126 513.546 120.966C515.226 120.286 516.586 119.006 516.586 117.406C516.586 115.326 514.586 114.046 512.146 114.046C509.626 114.046 507.546 115.366 507.466 117.526C507.426 118.566 508.066 119.246 508.986 119.246C509.986 119.246 510.786 118.446 510.786 117.366C510.786 116.926 510.626 116.606 510.426 116.366C510.146 116.126 509.946 116.086 509.946 115.846C509.946 115.566 510.426 115.286 511.266 115.286C512.826 115.286 513.346 116.246 513.346 117.126C513.346 119.246 511.986 120.766 509.666 120.766L509.226 120.766C508.706 120.766 508.426 121.006 508.426 121.366C508.426 121.726 508.706 121.966 509.226 121.966L509.626 121.966C511.106 121.966 511.826 122.846 511.826 124.126C511.826 125.886 510.586 128.326 508.146 128.326Z"></path></g></g><path d="M456.293 179.526C456.293 178.606 455.533 177.846 454.613 177.846C453.693 177.846 452.933 178.606 452.933 179.526C452.933 180.446 453.693 181.206 454.613 181.206C455.533 181.206 456.293 180.446 456.293 179.526Z"></path></g><g><g><path d="M502.346 174.486C506.346 174.486 511.266 170.766 511.266 166.966C511.266 164.686 509.466 163.206 506.866 163.206C501.946 163.206 497.986 166.846 497.986 170.726C497.986 173.086 499.906 174.486 502.346 174.486Z"></path></g><line stroke="#000000" stroke-width="1.2" x1="510.6663976860906" x2="510.6663976860906" y1="167.0061538461538" y2="132.0061538461538"></line><path d="M505.806 179.526C505.806 178.606 505.046 177.846 504.126 177.846C503.206 177.846 502.446 178.606 502.446 179.526C502.446 180.446 503.206 181.206 504.126 181.206C505.046 181.206 505.806 180.446 505.806 179.526Z"></path></g><g><g><path d="M551.860 174.486C555.860 174.486 560.780 170.766 560.780 166.966C560.780 164.686 558.980 163.206 556.380 163.206C551.460 163.206 547.500 166.846 547.500 170.726C547.500 173.086 549.420 174.486 551.860 174.486Z"></path></g><line stroke="#000000" stroke-width="1.2" x1="560.180177752124" x2="560.180177752124" y1="167.0061538461538" y2="132.0061538461538"></line><path d="M555.320 179.526C555.320 178.606 554.560 177.846 553.640 177.846C552.720 177.846 551.960 178.606 551.960 179.526C551.960 180.446 552.720 181.206 553.640 181.206C554.560 181.206 555.320 180.446 555.320 179.526Z"></path></g></g><g transform="translate(707.4601116643115)"><g></g><g><line stroke="black" stroke-width="1.6" x1="386.3289454068113" x2="386.3289454068113" y1="143.8461538461538" y2="183.8461538461538"></line></g><g><g><path d="M66.750 179.486C70.750 179.486 75.670 175.766 75.670 171.966C75.670 169.686 73.870 168.206 71.270 168.206C66.350 168.206 62.390 171.846 62.390 175.726C62.390 178.086 64.310 179.486 66.750 179.486Z"></path><g><circle cx="81.66993722385595" cy="168.8461538461538" fill="#000000" r="2.4"></circle></g></g><g><line stroke="#000000" stroke-width="1.2" x1="75.06993722385596" x2="75.06993722385596" y1="172.0061538461538" y2="NaN"></line><path d="M81.070NaNL81.070NaNL69.070NaNL69.070NaNZ"></path></g><g><g><polygon fill="white" points="63.14993722385596,NaN 63.14993722385596,NaN 86.98993722385596,NaN 86.98993722385596,NaN" stroke="white" stroke-width="0"></polygon><path d="M72.550NaNC71.750NaN 71.110NaN 71.110NaNC71.110NaN 71.310NaN 71.630NaNC72.070NaN 72.630NaN 72.630NaNC72.630NaN 71.950NaN 71.110NaNC69.990NaN 69.150NaN 69.150NaNC69.150NaN 70.430NaN 73.270NaNC76.670NaN 79.470NaN 79.470NaNC79.470NaN 78.950NaN 77.910NaNC77.630NaN 77.470NaN 77.470NaNC77.470NaN 77.630NaN 77.950NaNC79.630NaN 80.990NaN 80.990NaNC80.990NaN 78.990NaN 76.550NaNC74.030NaN 71.950NaN 71.870NaNC71.830NaN 72.470NaN 73.390NaNC74.390NaN 75.190NaN 75.190NaNC75.190NaN 75.030NaN 74.830NaNC74.550NaN 74.350NaN 74.350NaNC74.350NaN 74.830NaN 75.670NaNC77.230NaN 77.750NaN 77.750NaNC77.750NaN 76.390NaN 74.070NaNL73.630NaNC73.110NaN 72.830NaN 72.830NaNC72.830NaN 73.110NaN 73.630NaNL74.030NaNC75.510NaN 76.230NaN 76.230NaNC76.230NaN 74.990NaN 72.550NaNZ"></path></g></g></g><g><g><path d="M174.463 179.486C178.463 179.486 183.383 175.766 183.383 171.966C183.383 169.686 181.583 168.206 178.983 168.206C174.063 168.206 170.103 171.846 170.103 175.726C170.103 178.086 172.023 179.486 174.463 179.486Z"></path><g><circle cx="189.38293995150772" cy="168.8461538461538" fill="#000000" r="2.4"></circle></g></g><g><line stroke="#000000" stroke-width="1.2" x1="182.78293995150773" x2="182.78293995150773" y1="172.0061538461538" y2="NaN"></line><path d="M188.783NaNL188.783NaNL176.783NaNL176.783NaNZ"></path></g><g><g><polygon fill="white" points="170.86293995150774,NaN 170.86293995150774,NaN 194.70293995150772,NaN 194.70293995150772,NaN" stroke="white" stroke-width="0"></polygon><path d="M180.263NaNC179.463NaN 178.823NaN 178.823NaNC178.823NaN 179.023NaN 179.343NaNC179.783NaN 180.343NaN 180.343NaNC180.343NaN 179.663NaN 178.823NaNC177.703NaN 176.863NaN 176.863NaNC176.863NaN 178.143NaN 180.983NaNC184.383NaN 187.183NaN 187.183NaNC187.183NaN 186.663NaN 185.623NaNC185.343NaN 185.183NaN 185.183NaNC185.183NaN 185.343NaN 185.663NaNC187.343NaN 188.703NaN 188.703NaNC188.703NaN 186.703NaN 184.263NaNC181.743NaN 179.663NaN 179.583NaNC179.543NaN 180.183NaN 181.103NaNC182.103NaN 182.903NaN 182.903NaNC182.903NaN 182.743NaN 182.543NaNC182.263NaN 182.063NaN 182.063NaNC182.063NaN 182.543NaN 183.383NaNC184.943NaN 185.463NaN 185.463NaNC185.463NaN 184.103NaN 181.783NaNL181.343NaNC180.823NaN 180.543NaN 180.543NaNC180.543NaN 180.823NaN 181.343NaNL181.743NaNC183.223NaN 183.943NaN 183.943NaNC183.943NaN 182.703NaN 180.263NaNZ"></path></g></g></g><g><g><path d="M282.176 179.486C286.176 179.486 291.096 175.766 291.096 171.966C291.096 169.686 289.296 168.206 286.696 168.206C281.776 168.206 277.816 171.846 277.816 175.726C277.816 178.086 279.736 179.486 282.176 179.486Z"></path><g><circle cx="297.0959426791595" cy="168.8461538461538" fill="#000000" r="2.4"></circle></g></g><g><line stroke="#000000" stroke-width="1.2" x1="290.4959426791595" x2="290.4959426791595" y1="172.0061538461538" y2="NaN"></line><path d="M296.496NaNL296.496NaNL284.496NaNL284.496NaNZ"></path></g><g><g><polygon fill="white" points="278.5759426791595,NaN 278.5759426791595,NaN 302.4159426791595,NaN 302.4159426791595,NaN" stroke="white" stroke-width="0"></polygon><path d="M287.976NaNC287.176NaN 286.536NaN 286.536NaNC286.536NaN 286.736NaN 287.056NaNC287.496NaN 288.056NaN 288.056NaNC288.056NaN 287.376NaN 286.536NaNC285.416NaN 284.576NaN 284.576NaNC284.576NaN 285.856NaN 288.696NaNC292.096NaN 294.896NaN 294.896NaNC294.896NaN 294.376NaN 293.336NaNC293.056NaN 292.896NaN 292.896NaNC292.896NaN 293.056NaN 293.376NaNC295.056NaN 296.416NaN 296.416NaNC296.416NaN 294.416NaN 291.976NaNC289.456NaN 287.376NaN 287.296NaNC287.256NaN 287.896NaN 288.816NaNC289.816NaN 290.616NaN 290.616NaNC290.616NaN 290.456NaN 290.256NaNC289.976NaN 289.776NaN 289.776NaNC289.776NaN 290.256NaN 291.096NaNC292.656NaN 293.176NaN 293.176NaNC293.176NaN 291.816NaN 289.496NaNL289.056NaNC288.536NaN 288.256NaN 288.256NaNC288.256NaN 288.536NaN 289.056NaNL289.456NaNC290.936NaN 291.656NaN 291.656NaNC291.656NaN 290.416NaN 287.976NaNZ"></path></g></g></g></g><g transform="translate(1109.5890570711229)"><g></g><g><line stroke="black" stroke-width="1.6" x1="311.549985369676" x2="311.549985369676" y1="143.8461538461538" y2="183.8461538461538"></line></g><g><g><path d="M66.870 179.646C74.510 179.646 76.030 173.446 76.030 171.926C76.030 169.566 74.150 168.046 71.470 168.046C64.550 168.046 62.390 173.406 62.390 175.806C62.390 178.246 64.350 179.646 66.870 179.646ZM70.390 175.966C68.310 177.366 66.870 177.846 65.870 177.846C64.910 177.846 64.350 177.366 64.030 176.806C63.870 176.526 63.750 176.206 63.750 175.886C63.750 174.886 64.750 173.606 67.950 171.766C70.230 170.446 71.670 169.966 72.630 169.966C73.510 169.966 73.990 170.366 74.310 170.926C74.470 171.206 74.590 171.486 74.590 171.806C74.590 172.726 73.630 173.846 70.390 175.966Z"></path><g><circle cx="82.02993722385595" cy="168.8461538461538" fill="#000000" r="2.4"></circle></g></g><g><line stroke="#000000" stroke-width="1.2" x1="75.42993722385596" x2="75.42993722385596" y1="171.92615384615382" y2="NaN"></line><path d="M81.430NaNL81.430NaNL69.430NaNL69.430NaNZ"></path></g><g><g><polygon fill="white" points="62.98993722385596,NaN 62.98993722385596,NaN 87.14993722385596,NaN 87.14993722385596,NaN" stroke="white" stroke-width="0"></polygon><path d="M77.750NaNC78.510NaN 79.150NaN 79.150NaNC79.150NaN 78.790NaN 78.590NaNC77.990NaN 77.510NaN 77.510NaNC77.510NaN 78.310NaN 79.190NaNC80.350NaN 81.150NaN 81.150NaNC81.150NaN 79.710NaN 77.350NaNC73.910NaN 71.150NaN 69.710NaNC68.270NaN 68.750NaN 73.710NaNC76.630NaN 79.910NaN 79.910NaNC79.910NaN 78.670NaN 76.350NaNC75.270NaN 74.310NaN 73.510NaNC73.150NaN 72.790NaN 73.030NaNC73.870NaN 75.390NaN 77.750NaNZM75.190NaNC76.350NaN 76.670NaN 76.670NaNC76.670NaN 75.150NaN 73.590NaNC71.710NaN 71.830NaN 72.110NaNC72.510NaN 73.790NaN 75.190NaNZ"></path></g></g></g><g><g><path d="M207.397 179.486C211.397 179.486 216.317 175.766 216.317 171.966C216.317 169.686 214.517 168.206 211.917 168.206C206.997 168.206 203.037 171.846 203.037 175.726C203.037 178.086 204.957 179.486 207.397 179.486Z"></path><g><circle cx="222.3169826420242" cy="168.8461538461538" fill="#000000" r="2.4"></circle></g></g><g><line stroke="#000000" stroke-width="1.2" x1="215.7169826420242" x2="215.7169826420242" y1="172.0061538461538" y2="NaN"></line><path d="M221.717NaNL221.717NaNL209.717NaNL209.717NaNZ"></path></g><g><g><polygon fill="white" points="203.7969826420242,NaN 203.7969826420242,NaN 227.63698264202418,NaN 227.63698264202418,NaN" stroke="white" stroke-width="0"></polygon><path d="M213.197NaNC212.397NaN 211.757NaN 211.757NaNC211.757NaN 211.957NaN 212.277NaNC212.717NaN 213.277NaN 213.277NaNC213.277NaN 212.597NaN 211.757NaNC210.637NaN 209.797NaN 209.797NaNC209.797NaN 211.077NaN 213.917NaNC217.317NaN 220.117NaN 220.117NaNC220.117NaN 219.597NaN 218.557NaNC218.277NaN 218.117NaN 218.117NaNC218.117NaN 218.277NaN 218.597NaNC220.277NaN 221.637NaN 221.637NaNC221.637NaN 219.637NaN 217.197NaNC214.677NaN 212.597NaN 212.517NaNC212.477NaN 213.117NaN 214.037NaNC215.037NaN 215.837NaN 215.837NaNC215.837NaN 215.677NaN 215.477NaNC215.197NaN 214.997NaN 214.997NaNC214.997NaN 215.477NaN 216.317NaNC217.877NaN 218.397NaN 218.397NaNC218.397NaN 217.037NaN 214.717NaNL214.277NaNC213.757NaN 213.477NaN 213.477NaNC213.477NaN 213.757NaN 214.277NaNL214.677NaNC216.157NaN 216.877NaN 216.877NaNC216.877NaN 215.637NaN 213.197NaNZ"></path></g></g></g></g><g transform="translate(93.84615384615385)"><g><g><line stroke="#6A6A6A" stroke-width="1.3" x1="0" x2="890.3470975408745" y1="314.8461538461538" y2="314.8461538461538"></line><line stroke="#6A6A6A" stroke-width="1.3" x1="0" x2="890.3470975408745" y1="304.8461538461538" y2="304.8461538461538"></line><line stroke="#6A6A6A" stroke-width="1.3" x1="0" x2="890.3470975408745" y1="294.8461538461538" y2="294.8461538461538"></line><line stroke="#6A6A6A" stroke-width="1.3" x1="0" x2="890.3470975408745" y1="284.8461538461538" y2="284.8461538461538"></line><line stroke="#6A6A6A" stroke-width="1.3" x1="0" x2="890.3470975408745" y1="274.8461538461538" y2="274.8461538461538"></line></g><g><path d="M25.200 260.926C24.640 260.926 23.400 261.966 22.600 262.846C19.640 266.126 18.680 271.126 18.680 275.286C18.680 277.606 18.960 280.206 19.240 281.846C19.320 282.326 19.360 282.406 18.880 282.806C16.320 284.926 13.560 287.366 11.480 289.926C8.720 293.366 7 297.086 7 301.366C7 308.326 11.760 314.926 21.560 314.926C22.480 314.926 23.520 314.846 24.320 314.686C24.760 314.606 24.840 314.566 24.920 315.046C25.400 317.726 26 321.206 26 323.086C26 329.006 22 329.726 19.640 329.726C17.480 329.726 16.440 329.086 16.440 328.566C16.440 328.126 16.800 328.166 17.720 327.886C18.960 327.526 20.400 326.446 20.400 324.126C20.400 321.926 19 320.046 16.560 320.046C13.880 320.046 12.280 322.166 12.280 324.646C12.280 327.246 13.840 331.166 19.880 331.166C22.560 331.166 27.760 329.966 27.760 323.166C27.760 320.886 27.040 317.086 26.600 314.606C26.520 314.126 26.560 314.166 27.120 313.926C31.160 312.326 33.840 308.926 33.840 304.406C33.840 299.286 30.080 294.766 24.200 294.766C23.080 294.766 23.200 294.966 23.040 294.046L22.040 288.246C21.960 287.766 22.040 287.726 22.280 287.486C22.920 286.886 23.760 286.046 24.520 285.206C27.880 281.526 29.880 276.766 29.880 272.246C29.880 268.766 28.920 265.326 27.280 262.926C26.680 262.046 25.640 260.926 25.200 260.926ZM20.040 289.086C20.440 288.766 20.520 288.806 20.600 289.246L21.440 294.366C21.560 295.126 21.560 295.086 20.840 295.326C17.320 296.526 15.040 299.686 15.040 303.086C15.040 306.686 16.920 309.246 19.640 310.166C19.960 310.286 20.440 310.406 20.720 310.406C21.040 310.406 21.200 310.206 21.200 309.966C21.200 309.686 20.880 309.566 20.600 309.446C18.920 308.726 17.720 307.006 17.720 305.166C17.720 302.886 19.280 301.166 21.720 300.486C22.360 300.326 22.440 300.366 22.520 300.806L24.520 312.726C24.600 313.166 24.560 313.166 23.960 313.286C23.320 313.406 22.520 313.486 21.720 313.486C14.720 313.486 10.200 309.606 10.200 304.046C10.200 301.686 10.600 298.526 13.920 294.766C16.320 292.086 18.160 290.606 20.040 289.086ZM24.640 300.166C27.880 300.446 30.560 303.166 30.560 306.686C30.560 309.206 29.040 311.246 26.800 312.366C26.320 312.606 26.240 312.606 26.160 312.126L24.200 300.726C24.120 300.246 24.160 300.126 24.640 300.166ZM25.800 267.126C27.120 267.126 28.200 268.206 28.200 270.406C28.200 273.166 26.880 275.726 23.760 278.846C23.120 279.486 22.160 280.406 21.240 281.206C20.960 281.446 20.800 281.406 20.720 280.886C20.560 279.846 20.480 278.486 20.480 277.206C20.480 270.966 23.360 267.126 25.800 267.126Z"></path></g><g></g><text font-family='Alegreya' font-style='italic' text-anchor='end' stroke='#7a7a7a' font-size="24" x="0" y="264.8461538461538">4</text></g><path d="M266.834 356.366C266.634 356.366 266.474 356.406 266.354 356.446C265.994 356.566 265.594 356.806 265.354 357.086C264.954 357.566 264.714 358.246 264.714 358.886C264.714 359.606 264.954 360.286 265.434 360.766C265.674 361.006 266.034 361.246 266.314 361.366C266.714 361.486 267.194 361.566 267.634 361.566C268.794 361.566 269.954 361.086 270.914 360.446C272.154 359.646 273.074 358.526 273.914 357.206C274.514 356.286 274.914 355.286 275.354 354.286L275.514 353.966C275.954 352.966 276.314 351.926 276.674 350.926L277.514 348.606C277.794 347.846 278.074 347.006 278.434 346.286C278.954 345.286 278.954 345.286 280.314 345.286C281.954 345.286 281.954 345.286 281.954 345.286C282.714 345.286 282.714 345.246 282.714 344.366C282.714 343.526 282.714 343.526 281.994 343.526C280.634 343.526 280.634 343.526 280.634 343.526C279.754 343.526 279.394 343.526 279.394 343.126C279.394 342.886 279.514 342.446 279.754 341.806C280.514 339.766 281.154 338.046 283.594 337.926L283.754 337.926C283.914 337.926 284.074 337.966 284.114 338.166C284.114 338.446 284.114 338.566 283.994 338.646C283.874 338.766 283.674 338.806 283.554 338.846C283.194 339.006 282.954 339.286 282.794 339.566C282.554 339.886 282.434 340.286 282.434 340.686C282.434 341.846 283.034 342.166 283.914 342.166C284.754 342.166 286.074 340.926 286.154 339.446C286.154 337.886 285.154 336.726 283.154 336.646L282.914 336.646C280.634 336.646 278.994 337.566 277.754 338.806C276.434 340.166 275.834 341.126 275.234 342.566C274.874 343.486 274.754 343.526 273.874 343.526L271.994 343.526C270.994 343.526 270.914 343.646 270.914 344.366C270.914 345.286 270.914 345.286 271.634 345.286C272.994 345.286 272.994 345.286 272.994 345.286C273.474 345.286 273.674 345.286 273.674 345.646C273.674 345.886 273.554 346.366 273.314 347.246C273.234 347.566 270.834 356.446 270.594 357.086C270.234 358.006 269.594 358.926 268.834 359.566C268.634 359.726 268.434 359.886 268.154 359.966C267.994 360.046 267.834 360.046 267.714 360.046C267.354 360.046 267.154 359.926 267.114 359.926C267.674 359.806 268.034 359.446 268.154 359.366C268.394 359.086 268.594 358.646 268.594 358.246C268.594 357.646 268.354 356.926 267.834 356.646C267.554 356.486 267.194 356.366 266.834 356.366ZM281.514 348.806C281.514 348.806 281.314 349.046 281.314 349.286C281.314 349.446 281.394 349.606 281.594 349.726C281.634 349.766 281.714 349.766 281.754 349.766C282.114 349.766 282.314 349.286 282.314 349.286C282.314 349.286 283.994 346.166 285.234 345.446C285.434 345.326 285.634 345.326 285.754 345.326C286.074 345.326 286.194 345.646 286.194 346.046C286.194 346.406 286.074 346.846 286.034 346.966C286.034 346.966 281.034 358.566 280.914 358.766C280.794 359.086 280.514 359.166 280.194 359.166L278.394 359.166C277.994 359.166 277.754 359.406 277.754 359.686C277.754 359.926 277.994 360.206 278.394 360.206L286.674 360.206C287.114 360.206 287.274 359.926 287.274 359.646C287.274 359.406 287.114 359.166 286.754 359.166L285.474 359.166C285.194 359.166 284.994 359.086 284.994 358.846C284.994 358.686 285.074 358.526 285.194 358.246C285.474 357.526 286.794 354.286 286.794 354.286C286.954 353.806 287.074 353.646 287.234 353.646C287.394 353.646 287.594 353.846 287.874 354.126C288.674 354.726 289.874 354.806 290.394 354.806L290.554 354.806C293.514 354.806 295.634 351.526 296.114 350.566C296.394 349.966 296.834 348.766 296.834 347.446C296.834 346.486 296.594 345.446 295.914 344.566C295.434 343.886 294.754 343.646 293.994 343.646C292.314 343.646 290.354 344.846 289.754 345.566C289.634 345.766 289.514 345.806 289.434 345.806C289.274 345.806 289.194 345.646 289.034 345.286L288.954 345.166C288.474 344.206 287.794 343.766 286.794 343.766C286.594 343.766 286.354 343.766 286.154 343.806C284.434 344.046 282.154 347.686 281.514 348.806ZM292.754 345.166C293.114 345.326 293.274 345.846 293.274 346.526C293.274 347.446 292.954 348.726 292.354 350.006C291.434 352.046 290.034 353.486 289.194 353.486C289.074 353.486 288.994 353.486 288.914 353.446C288.554 353.246 288.354 352.766 288.354 352.086C288.354 351.166 288.674 349.886 289.274 348.566C290.234 346.526 291.594 345.126 292.434 345.126C292.554 345.126 292.634 345.126 292.754 345.166Z"></path><g><line stroke="black" stroke-width="1.6" x1="501.8015280433506" x2="501.8015280433506" y1="274.8461538461538" y2="314.8461538461538"></line></g><g><g><path d="M107.148 315.486C111.148 315.486 116.068 311.766 116.068 307.966C116.068 305.686 114.268 304.206 111.668 304.206C106.748 304.206 102.788 307.846 102.788 311.726C102.788 314.086 104.708 315.486 107.148 315.486Z"></path></g><line stroke="#000000" stroke-width="1.2" x1="115.46825674929923" x2="115.46825674929923" y1="308.00615384615384" y2="273.00615384615384"></line><g><polygon fill="black" points="115.46825674929923,277.8461538461538 171.33690196901887,272.8461538461538 171.33690196901887,267.8461538461538 115.46825674929923,272.8461538461538" stroke="black" stroke-width="0"></polygon><polygon fill="black" points="171.33690196901887,272.8461538461538 227.20554718873854,267.8461538461538 227.20554718873854,262.8461538461538 171.33690196901887,267.8461538461538" stroke="black" stroke-width="0"></polygon><g><polygon fill="white" points="159.41690196901888,250.0461538461538 159.41690196901888,264.7261538461538 183.25690196901886,264.7261538461538 183.25690196901886,250.0461538461538" stroke="white" stroke-width="0"></polygon><path d="M168.817 264.326C168.017 264.326 167.377 264.006 167.377 263.606C167.377 263.366 167.577 263.286 167.897 263.126C168.337 262.926 168.897 262.446 168.897 261.406C168.897 260.446 168.217 259.966 167.377 259.966C166.257 259.966 165.417 260.966 165.417 262.286C165.417 263.886 166.697 265.366 169.537 265.366C172.937 265.366 175.737 263.326 175.737 260.166C175.737 259.166 175.217 258.206 174.177 257.686C173.897 257.566 173.737 257.526 173.737 257.326C173.737 257.126 173.897 257.126 174.217 256.966C175.897 256.286 177.257 255.006 177.257 253.406C177.257 251.326 175.257 250.046 172.817 250.046C170.297 250.046 168.217 251.366 168.137 253.526C168.097 254.566 168.737 255.246 169.657 255.246C170.657 255.246 171.457 254.446 171.457 253.366C171.457 252.926 171.297 252.606 171.097 252.366C170.817 252.126 170.617 252.086 170.617 251.846C170.617 251.566 171.097 251.286 171.937 251.286C173.497 251.286 174.017 252.246 174.017 253.126C174.017 255.246 172.657 256.766 170.337 256.766L169.897 256.766C169.377 256.766 169.097 257.006 169.097 257.366C169.097 257.726 169.377 257.966 169.897 257.966L170.297 257.966C171.777 257.966 172.497 258.846 172.497 260.126C172.497 261.886 171.257 264.326 168.817 264.326Z"></path></g></g></g><g><g><path d="M163.017 305.486C167.017 305.486 171.937 301.766 171.937 297.966C171.937 295.686 170.137 294.206 167.537 294.206C162.617 294.206 158.657 297.846 158.657 301.726C158.657 304.086 160.577 305.486 163.017 305.486Z"></path></g><line stroke="#000000" stroke-width="1.2" x1="171.33690196901887" x2="171.33690196901887" y1="298.00615384615384" y2="268.00615384615384"></line></g><g><g><path d="M218.886 305.486C222.886 305.486 227.806 301.766 227.806 297.966C227.806 295.686 226.006 294.206 223.406 294.206C218.486 294.206 214.526 297.846 214.526 301.726C214.526 304.086 216.446 305.486 218.886 305.486Z"></path></g><line stroke="#000000" stroke-width="1.2" x1="227.20554718873854" x2="227.20554718873854" y1="298.00615384615384" y2="263.00615384615384"></line></g><g><g><path d="M347.093 305.646C354.733 305.646 356.253 299.446 356.253 297.926C356.253 295.566 354.373 294.046 351.693 294.046C344.773 294.046 342.613 299.406 342.613 301.806C342.613 304.246 344.573 305.646 347.093 305.646ZM350.613 301.966C348.533 303.366 347.093 303.846 346.093 303.846C345.133 303.846 344.573 303.366 344.253 302.806C344.093 302.526 343.973 302.206 343.973 301.886C343.973 300.886 344.973 299.606 348.173 297.766C350.453 296.446 351.893 295.966 352.853 295.966C353.733 295.966 354.213 296.366 354.533 296.926C354.693 297.206 354.813 297.486 354.813 297.806C354.813 298.726 353.853 299.846 350.613 301.966Z"></path><g><circle cx="362.2532276567116" cy="299.8461538461538" fill="#000000" r="2.4"></circle></g></g><g><line stroke="#000000" stroke-width="1.2" x1="355.65322765671164" x2="355.65322765671164" y1="297.9261538461538" y2="NaN"></line><path d="M361.653NaNL361.653NaNL349.653NaNL349.653NaNZ"></path></g><g><g><polygon fill="white" points="343.2132276567116,NaN 343.2132276567116,NaN 367.37322765671155,NaN 367.37322765671155,NaN" stroke="white" stroke-width="0"></polygon><path d="M357.973NaNC358.733NaN 359.373NaN 359.373NaNC359.373NaN 359.013NaN 358.813NaNC358.213NaN 357.733NaN 357.733NaNC357.733NaN 358.533NaN 359.413NaNC360.573NaN 361.373NaN 361.373NaNC361.373NaN 359.933NaN 357.573NaNC354.133NaN 351.373NaN 349.933NaNC348.493NaN 348.973NaN 353.933NaNC356.853NaN 360.133NaN 360.133NaNC360.133NaN 358.893NaN 356.573NaNC355.493NaN 354.533NaN 353.733NaNC353.373NaN 353.013NaN 353.253NaNC354.093NaN 355.613NaN 357.973NaNZM355.413NaNC356.573NaN 356.893NaN 356.893NaNC356.893NaN 355.373NaN 353.813NaNC351.933NaN 352.053NaN 352.333NaNC352.733NaN 354.013NaN 355.413NaNZ"></path></g></g></g></g><g transform="translate(611.4476818895043)"><g></g><g><line stroke="#000000" stroke-width="1.6" x1="362.94556949752405" x2="362.94556949752405" y1="274.8461538461538" y2="314.8461538461538"></line><line stroke="#000000" stroke-width="5" x1="370.24556949752406" x2="370.24556949752406" y1="274.8461538461538" y2="314.8461538461538"></line></g><g><g><path d="M87.188 310.646C94.828 310.646 96.348 304.446 96.348 302.926C96.348 300.566 94.468 299.046 91.788 299.046C84.868 299.046 82.708 304.406 82.708 306.806C82.708 309.246 84.668 310.646 87.188 310.646ZM90.708 306.966C88.628 308.366 87.188 308.846 86.188 308.846C85.228 308.846 84.668 308.366 84.348 307.806C84.188 307.526 84.068 307.206 84.068 306.886C84.068 305.886 85.068 304.606 88.268 302.766C90.548 301.446 91.988 300.966 92.948 300.966C93.828 300.966 94.308 301.366 94.628 301.926C94.788 302.206 94.908 302.486 94.908 302.806C94.908 303.726 93.948 304.846 90.708 306.966Z"></path><g><circle cx="102.34786827887882" cy="299.8461538461538" fill="#000000" r="2.4"></circle></g></g><g><line stroke="#000000" stroke-width="1.2" x1="95.74786827887883" x2="95.74786827887883" y1="302.9261538461538" y2="NaN"></line><path d="M101.748NaNL101.748NaNL89.748NaNL89.748NaNZ"></path></g><g><g><polygon fill="white" points="83.30786827887883,NaN 83.30786827887883,NaN 107.46786827887883,NaN 107.46786827887883,NaN" stroke="white" stroke-width="0"></polygon><path d="M98.068NaNC98.828NaN 99.468NaN 99.468NaNC99.468NaN 99.108NaN 98.908NaNC98.308NaN 97.828NaN 97.828NaNC97.828NaN 98.628NaN 99.508NaNC100.668NaN 101.468NaN 101.468NaNC101.468NaN 100.028NaN 97.668NaNC94.228NaN 91.468NaN 90.028NaNC88.588NaN 89.068NaN 94.028NaNC96.948NaN 100.228NaN 100.228NaNC100.228NaN 98.988NaN 96.668NaNC95.588NaN 94.628NaN 93.828NaNC93.468NaN 93.108NaN 93.348NaNC94.188NaN 95.708NaN 98.068NaNZM95.508NaNC96.668NaN 96.988NaN 96.988NaNC96.988NaN 95.468NaN 93.908NaNC92.028NaN 92.148NaN 92.428NaNC92.828NaN 94.108NaN 95.508NaNZ"></path></g></g></g><g><g><path d="M245.456 310.486C249.456 310.486 254.376 306.766 254.376 302.966C254.376 300.686 252.576 299.206 249.976 299.206C245.056 299.206 241.096 302.846 241.096 306.726C241.096 309.086 243.016 310.486 245.456 310.486Z"></path><g><circle cx="260.37616866551775" cy="299.8461538461538" fill="#000000" r="2.4"></circle></g></g><g><line stroke="#000000" stroke-width="1.2" x1="253.77616866551776" x2="253.77616866551776" y1="303.00615384615384" y2="NaN"></line><path d="M259.776NaNL259.776NaNL247.776NaNL247.776NaNZ"></path></g><g><g><polygon fill="white" points="241.85616866551774,NaN 241.85616866551774,NaN 265.69616866551775,NaN 265.69616866551775,NaN" stroke="white" stroke-width="0"></polygon><path d="M251.256NaNC250.456NaN 249.816NaN 249.816NaNC249.816NaN 250.016NaN 250.336NaNC250.776NaN 251.336NaN 251.336NaNC251.336NaN 250.656NaN 249.816NaNC248.696NaN 247.856NaN 247.856NaNC247.856NaN 249.136NaN 251.976NaNC255.376NaN 258.176NaN 258.176NaNC258.176NaN 257.656NaN 256.616NaNC256.336NaN 256.176NaN 256.176NaNC256.176NaN 256.336NaN 256.656NaNC258.336NaN 259.696NaN 259.696NaNC259.696NaN 257.696NaN 255.256NaNC252.736NaN 250.656NaN 250.576NaNC250.536NaN 251.176NaN 252.096NaNC253.096NaN 253.896NaN 253.896NaNC253.896NaN 253.736NaN 253.536NaNC253.256NaN 253.056NaN 253.056NaNC253.056NaN 253.536NaN 254.376NaNC255.936NaN 256.456NaN 256.456NaNC256.456NaN 255.096NaN 252.776NaNL252.336NaNC251.816NaN 251.536NaN 251.536NaNC251.536NaN 251.816NaN 252.336NaNL252.736NaNC254.216NaN 254.936NaN 254.936NaNC254.936NaN 253.696NaN 251.256NaNZ"></path></g></g></g></g></svg>