<?xml version="1.0" encoding="UTF-8" standalone="no"?><svg xmlns="http://www.w3.org/2000/svg" height="279.4mm" viewBox="0 0 1328.6153846153845 1719.3846153846152" width="215.9mm"><g transform="translate(93.84615384615385)"><g><g><line stroke="#6A6A6A" stroke-width="1.3" x1="0" x2="89" y1="283.8461538461538" y2="283.8461538461538"></line><line stroke="#6A6A6A" stroke-width="1.3" x1="0" x2="89" y1="273.8461538461538" y2="273.8461538461538"></line><line stroke="#6A6A6A" stroke-width="1.3" x1="0" x2="89" y1="263.8461538461538" y2="263.8461538461538"></line><line stroke="#6A6A6A" stroke-width="1.3" x1="0" x2="89" y1="253.8461538461538" y2="253.8461538461538"></line><line stroke="#6A6A6A" stroke-width="1.3" x1="0" x2="89" y1="243.8461538461538" y2="243.8461538461538"></line></g><g><path d="M17.080 243.366C10.120 243.366 7 248.446 7 252.286C7 255.486 8.680 258.246 11.920 258.246C14.440 258.246 16.160 256.486 16.160 254.006C16.160 251.446 14.280 249.846 12.320 249.846C11.240 249.846 10.840 250.126 10.320 250.126C9.800 250.126 9.680 249.806 9.680 249.406C9.680 247.806 12.080 244.886 16.160 244.886C20.400 244.886 22.240 249.046 22.240 255.326C22.240 259.446 21.360 264.246 18.880 268.086C16.480 271.806 12.360 275.206 7.400 278.046C7.040 278.246 6.800 278.446 6.800 278.766C6.800 279.006 6.960 279.246 7.320 279.246C7.520 279.246 7.760 279.166 8 279.046C13.320 276.446 18.440 273.406 22.680 268.846C26.160 265.086 28.240 260.206 28.240 254.966C28.240 248.006 24 243.366 17.080 243.366ZM32.200 256.686C30.960 256.686 30.040 257.606 30.040 258.846C30.040 260.086 30.960 261.006 32.200 261.006C33.440 261.006 34.360 260.086 34.360 258.846C34.360 257.606 33.440 256.686 32.200 256.686ZM32.160 246.646C30.920 246.646 29.960 247.606 29.960 248.846C29.960 250.086 30.920 251.046 32.160 251.046C33.400 251.046 34.360 250.086 34.360 248.846C34.360 247.606 33.400 246.646 32.160 246.646Z"></path></g><g></g><g><g><path d="M65.180 256.806L62.260 256.806L62.260 248.246C62.260 247.926 62.220 247.566 61.780 247.566C61.420 247.566 61.220 247.646 60.980 247.926L57.180 252.526C57.020 252.726 56.820 252.966 56.820 253.446C56.820 253.446 56.820 255.046 56.820 256.806L51.420 256.806C54.620 254.086 61.020 245.006 61.140 244.566C61.140 244.486 61.180 244.446 61.180 244.366C61.180 244.046 60.900 243.806 60.580 243.806C60.220 243.806 58.580 243.886 57.860 243.886C57.140 243.886 55.340 243.806 55.020 243.806C54.660 243.806 54.100 243.926 54.100 244.566C54.100 249.526 50.180 255.086 48.980 256.766L48.740 257.086C48.740 257.126 48.700 257.166 48.700 257.206C48.620 257.366 48.580 257.526 48.580 257.646C48.580 258.046 48.900 258.326 49.380 258.326L56.820 258.326L56.820 260.846C56.820 261.926 55.940 262.246 55.220 262.246C54.580 262.246 54.300 262.606 54.300 263.006C54.300 263.406 54.460 263.846 55.060 263.846C55.700 263.846 63.580 263.846 63.580 263.846C63.980 263.846 64.380 263.566 64.380 263.006C64.380 262.446 63.900 262.206 63.500 262.206C63.100 262.206 62.260 261.966 62.260 260.686L62.260 258.326C63.980 258.326 65.180 258.326 65.180 258.326C65.580 258.326 65.780 258.046 65.780 257.566C65.780 257.086 65.620 256.806 65.180 256.806Z"></path></g><g><path d="M65.180 276.806L62.260 276.806L62.260 268.246C62.260 267.926 62.220 267.566 61.780 267.566C61.420 267.566 61.220 267.646 60.980 267.926L57.180 272.526C57.020 272.726 56.820 272.966 56.820 273.446C56.820 273.446 56.820 275.046 56.820 276.806L51.420 276.806C54.620 274.086 61.020 265.006 61.140 264.566C61.140 264.486 61.180 264.446 61.180 264.366C61.180 264.046 60.900 263.806 60.580 263.806C60.220 263.806 58.580 263.886 57.860 263.886C57.140 263.886 55.340 263.806 55.020 263.806C54.660 263.806 54.100 263.926 54.100 264.566C54.100 269.526 50.180 275.086 48.980 276.766L48.740 277.086C48.740 277.126 48.700 277.166 48.700 277.206C48.620 277.366 48.580 277.526 48.580 277.646C48.580 278.046 48.900 278.326 49.380 278.326L56.820 278.326L56.820 280.846C56.820 281.926 55.940 282.246 55.220 282.246C54.580 282.246 54.300 282.606 54.300 283.006C54.300 283.406 54.460 283.846 55.060 283.846C55.700 283.846 63.580 283.846 63.580 283.846C63.980 283.846 64.380 283.566 64.380 283.006C64.380 282.446 63.900 282.206 63.500 282.206C63.100 282.206 62.260 281.966 62.260 280.686L62.260 278.326C63.980 278.326 65.180 278.326 65.180 278.326C65.580 278.326 65.780 278.046 65.780 277.566C65.780 277.086 65.620 276.806 65.180 276.806Z"></path></g></g></g><g><line stroke="black" stroke-width="1.6" x1="455.90769230769234" x2="455.90769230769234" y1="143.3461538461538" y2="284.3461538461538"></line><line stroke="black" stroke-width="5" x1="463.20769230769235" x2="463.20769230769235" y1="143.3461538461538" y2="284.3461538461538"></line></g><g><line stroke="black" stroke-width="1.6" x1="455.90769230769234" x2="455.90769230769234" y1="143.3461538461538" y2="284.3461538461538"></line><line stroke="black" stroke-width="5" x1="463.20769230769235" x2="463.20769230769235" y1="143.3461538461538" y2="284.3461538461538"></line></g><g><g><path d="M98.400 173.366C92.600 173.366 89 175.806 89 178.766C89 181.686 91.480 184.286 97.960 184.286C105.080 184.286 107.360 181.806 107.360 178.766C107.360 175.686 102.440 173.366 98.400 173.366ZM93.840 176.086C94.320 174.606 95.920 174.366 97.280 174.366C100.240 174.366 102.640 177.566 102.640 180.206C102.640 180.486 102.600 180.766 102.560 181.006C102.360 182.086 101.720 182.846 100.640 183.126C100.200 183.246 99.760 183.286 99.320 183.286C98.920 183.286 98.560 183.246 98.160 183.126C97.440 182.886 96.720 182.486 96.120 181.966C95.800 181.686 95.480 181.366 95.200 181.006C94.360 180.006 93.680 178.526 93.680 177.166C93.680 176.806 93.720 176.446 93.840 176.086Z"></path></g></g><g><g><path d="M98.400 268.366C92.600 268.366 89 270.806 89 273.766C89 276.686 91.480 279.286 97.960 279.286C105.080 279.286 107.360 276.806 107.360 273.766C107.360 270.686 102.440 268.366 98.400 268.366ZM93.840 271.086C94.320 269.606 95.920 269.366 97.280 269.366C100.240 269.366 102.640 272.566 102.640 275.206C102.640 275.486 102.600 275.766 102.560 276.006C102.360 277.086 101.720 277.846 100.640 278.126C100.200 278.246 99.760 278.286 99.320 278.286C98.920 278.286 98.560 278.246 98.160 278.126C97.440 277.886 96.720 277.486 96.120 276.966C95.800 276.686 95.480 276.366 95.200 276.006C94.360 275.006 93.680 273.526 93.680 272.166C93.680 271.806 93.720 271.446 93.840 271.086Z"></path></g></g></g></svg>