<?xml version="1.0" encoding="UTF-8" standalone="no"?><svg xmlns="http://www.w3.org/2000/svg" height="279.4mm" viewBox="0 0 1328.6153846153845 1719.3846153846152" width="215.9mm"><g transform="translate(93.84615384615385)"><g><g><line stroke="#6A6A6A" stroke-width="1.3" x1="0" x2="357.4859707336773" y1="183.8461538461538" y2="183.8461538461538"></line><line stroke="#6A6A6A" stroke-width="1.3" x1="0" x2="357.4859707336773" y1="173.8461538461538" y2="173.8461538461538"></line><line stroke="#6A6A6A" stroke-width="1.3" x1="0" x2="357.4859707336773" y1="163.8461538461538" y2="163.8461538461538"></line><line stroke="#6A6A6A" stroke-width="1.3" x1="0" x2="357.4859707336773" y1="153.8461538461538" y2="153.8461538461538"></line><line stroke="#6A6A6A" stroke-width="1.3" x1="0" x2="357.4859707336773" y1="143.8461538461538" y2="143.8461538461538"></line></g><g><path d="M25.200 129.926C24.640 129.926 23.400 130.966 22.600 131.846C19.640 135.126 18.680 140.126 18.680 144.286C18.680 146.606 18.960 149.206 19.240 150.846C19.320 151.326 19.360 151.406 18.880 151.806C16.320 153.926 13.560 156.366 11.480 158.926C8.720 162.366 7 166.086 7 170.366C7 177.326 11.760 183.926 21.560 183.926C22.480 183.926 23.520 183.846 24.320 183.686C24.760 183.606 24.840 183.566 24.920 184.046C25.400 186.726 26 190.206 26 192.086C26 198.006 22 198.726 19.640 198.726C17.480 198.726 16.440 198.086 16.440 197.566C16.440 197.126 16.800 197.166 17.720 196.886C18.960 196.526 20.400 195.446 20.400 193.126C20.400 190.926 19 189.046 16.560 189.046C13.880 189.046 12.280 191.166 12.280 193.646C12.280 196.246 13.840 200.166 19.880 200.166C22.560 200.166 27.760 198.966 27.760 192.166C27.760 189.886 27.040 186.086 26.600 183.606C26.520 183.126 26.560 183.166 27.120 182.926C31.160 181.326 33.840 177.926 33.840 173.406C33.840 168.286 30.080 163.766 24.200 163.766C23.080 163.766 23.200 163.966 23.040 163.046L22.040 157.246C21.960 156.766 22.040 156.726 22.280 156.486C22.920 155.886 23.760 155.046 24.520 154.206C27.880 150.526 29.880 145.766 29.880 141.246C29.880 137.766 28.920 134.326 27.280 131.926C26.680 131.046 25.640 129.926 25.200 129.926ZM20.040 158.086C20.440 157.766 20.520 157.806 20.600 158.246L21.440 163.366C21.560 164.126 21.560 164.086 20.840 164.326C17.320 165.526 15.040 168.686 15.040 172.086C15.040 175.686 16.920 178.246 19.640 179.166C19.960 179.286 20.440 179.406 20.720 179.406C21.040 179.406 21.200 179.206 21.200 178.966C21.200 178.686 20.880 178.566 20.600 178.446C18.920 177.726 17.720 176.006 17.720 174.166C17.720 171.886 19.280 170.166 21.720 169.486C22.360 169.326 22.440 169.366 22.520 169.806L24.520 181.726C24.600 182.166 24.560 182.166 23.960 182.286C23.320 182.406 22.520 182.486 21.720 182.486C14.720 182.486 10.200 178.606 10.200 173.046C10.200 170.686 10.600 167.526 13.920 163.766C16.320 161.086 18.160 159.606 20.040 158.086ZM24.640 169.166C27.880 169.446 30.560 172.166 30.560 175.686C30.560 178.206 29.040 180.246 26.800 181.366C26.320 181.606 26.240 181.606 26.160 181.126L24.200 169.726C24.120 169.246 24.160 169.126 24.640 169.166ZM25.800 136.126C27.120 136.126 28.200 137.206 28.200 139.406C28.200 142.166 26.880 144.726 23.760 147.846C23.120 148.486 22.160 149.406 21.240 150.206C20.960 150.446 20.800 150.406 20.720 149.886C20.560 148.846 20.480 147.486 20.480 146.206C20.480 139.966 23.360 136.126 25.800 136.126Z"></path></g><g></g><path d="M57.820 153.806C56.620 153.806 55.220 154.126 54.140 154.606C50.580 156.166 48.700 160.446 48.700 164.246C48.700 164.606 48.700 164.966 48.740 165.326C48.940 167.486 49.980 169.526 51.300 171.126C52.820 172.966 55.020 173.806 57.420 173.806C64.420 173.806 65.460 167.446 65.460 166.286C65.460 165.406 65.020 165.406 64.860 165.406C64.540 165.406 64.260 165.446 64.260 166.126C64.260 171.286 59.860 172.486 58.580 172.486C55.340 172.486 53.620 169.326 53.620 162.726C53.620 156.126 56.660 154.766 58.820 154.766C60.900 154.766 61.740 155.726 61.740 156.126C61.740 156.486 61.620 157.006 61.020 157.006C59.420 157.006 58.500 158.726 58.500 159.966C58.500 162.246 60.460 162.966 61.580 162.966C61.580 162.966 64.620 162.846 64.620 159.526C64.620 154.286 58.580 153.806 57.820 153.806Z"></path></g><g><line stroke="black" stroke-width="1.6" x1="358.2859707336773" x2="358.2859707336773" y1="143.8461538461538" y2="183.8461538461538"></line></g><g><g><path d="M93.360 199.486C97.360 199.486 102.280 195.766 102.280 191.966C102.280 189.686 100.480 188.206 97.880 188.206C92.960 188.206 89 191.846 89 195.726C89 198.086 90.920 199.486 93.360 199.486Z"></path></g><g><path d="M93.360 154.486C97.360 154.486 102.280 150.766 102.280 146.966C102.280 144.686 100.480 143.206 97.880 143.206C92.960 143.206 89 146.846 89 150.726C89 153.086 90.920 154.486 93.360 154.486Z"></path></g><g><path d="M93.360 144.486C97.360 144.486 102.280 140.766 102.280 136.966C102.280 134.686 100.480 133.206 97.880 133.206C92.960 133.206 89 136.846 89 140.726C89 143.086 90.920 144.486 93.360 144.486Z"></path></g><line stroke="#000000" stroke-width="1.2" x1="89.6" x2="89.6" y1="140.68615384615381" y2="225.68615384615381"></line><line stroke="#000000" stroke-width="2.2" x1="85.8" x2="107.72" y1="193.8461538461538" y2="193.8461538461538"></line><text font-family="Alegreya" font-size="22" text-anchor="middle" x="95.64" y="223.8461538461538">normal</text></g><g><g><path d="M158.710 199.486C162.710 199.486 167.630 195.766 167.630 191.966C167.630 189.686 165.830 188.206 163.230 188.206C158.310 188.206 154.350 191.846 154.350 195.726C154.350 198.086 156.270 199.486 158.710 199.486Z"></path></g><g><path d="M158.710 154.486C162.710 154.486 167.630 150.766 167.630 146.966C167.630 144.686 165.830 143.206 163.230 143.206C158.310 143.206 154.350 146.846 154.350 150.726C154.350 153.086 156.270 154.486 158.710 154.486Z"></path></g><g><path d="M158.710 144.486C162.710 144.486 167.630 140.766 167.630 136.966C167.630 134.686 165.830 133.206 163.230 133.206C158.310 133.206 154.350 136.846 154.350 140.726C154.350 143.086 156.270 144.486 158.710 144.486Z"></path></g><line stroke="#000000" stroke-width="1.2" x1="154.94974268341932" x2="154.94974268341932" y1="140.68615384615381" y2="225.68615384615381"></line><line stroke="#000000" stroke-width="2.2" x1="151.14974268341933" x2="173.06974268341932" y1="193.8461538461538" y2="193.8461538461538"></line><text font-family="Alegreya" font-size="22" text-anchor="middle" x="160.9897426834193" y="223.8461538461538">up</text></g><g><g><path d="M224.059 199.486C228.059 199.486 232.979 195.766 232.979 191.966C232.979 189.686 231.179 188.206 228.579 188.206C223.659 188.206 219.699 191.846 219.699 195.726C219.699 198.086 221.619 199.486 224.059 199.486Z"></path></g><g><path d="M224.059 154.486C228.059 154.486 232.979 150.766 232.979 146.966C232.979 144.686 231.179 143.206 228.579 143.206C223.659 143.206 219.699 146.846 219.699 150.726C219.699 153.086 221.619 154.486 224.059 154.486Z"></path></g><g><path d="M224.059 144.486C228.059 144.486 232.979 140.766 232.979 136.966C232.979 134.686 231.179 133.206 228.579 133.206C223.659 133.206 219.699 136.846 219.699 140.726C219.699 143.086 221.619 144.486 224.059 144.486Z"></path></g><line stroke="#000000" stroke-width="1.2" x1="220.29948536683864" x2="220.29948536683864" y1="140.68615384615381" y2="225.68615384615381"></line><line stroke="#000000" stroke-width="2.2" x1="216.49948536683866" x2="238.41948536683864" y1="193.8461538461538" y2="193.8461538461538"></line><text font-family="Alegreya" font-size="22" text-anchor="middle" x="226.33948536683863" y="223.8461538461538">normal</text></g><g><g><path d="M302.598 199.486C306.598 199.486 311.518 195.766 311.518 191.966C311.518 189.686 309.718 188.206 307.118 188.206C302.198 188.206 298.238 191.846 298.238 195.726C298.238 198.086 300.158 199.486 302.598 199.486Z"></path></g><g><path d="M302.598 154.486C306.598 154.486 311.518 150.766 311.518 146.966C311.518 144.686 309.718 143.206 307.118 143.206C302.198 143.206 298.238 146.846 298.238 150.726C298.238 153.086 300.158 154.486 302.598 154.486Z"></path></g><g><path d="M302.598 144.486C306.598 144.486 311.518 140.766 311.518 136.966C311.518 134.686 309.718 133.206 307.118 133.206C302.198 133.206 298.238 136.846 298.238 140.726C298.238 143.086 300.158 144.486 302.598 144.486Z"></path></g><line stroke="#000000" stroke-width="1.2" x1="298.83822805025795" x2="298.83822805025795" y1="140.68615384615381" y2="225.68615384615381"></line><line stroke="#000000" stroke-width="2.2" x1="295.03822805025794" x2="316.95822805025796" y1="193.8461538461538" y2="193.8461538461538"></line><text font-family="Alegreya" font-size="22" text-anchor="middle" x="304.8782280502579" y="223.8461538461538">down</text></g></g><g transform="translate(467.9321245798311)"><g><g><line stroke="#6A6A6A" stroke-width="1.3" x1="-16.600000000000023" x2="341.14997073367726" y1="183.8461538461538" y2="183.8461538461538"></line><line stroke="#6A6A6A" stroke-width="1.3" x1="-16.600000000000023" x2="341.14997073367726" y1="173.8461538461538" y2="173.8461538461538"></line><line stroke="#6A6A6A" stroke-width="1.3" x1="-16.600000000000023" x2="341.14997073367726" y1="163.8461538461538" y2="163.8461538461538"></line><line stroke="#6A6A6A" stroke-width="1.3" x1="-16.600000000000023" x2="341.14997073367726" y1="153.8461538461538" y2="153.8461538461538"></line><line stroke="#6A6A6A" stroke-width="1.3" x1="-16.600000000000023" x2="341.14997073367726" y1="143.8461538461538" y2="143.8461538461538"></line></g></g><g><line stroke="#000000" stroke-width="1.6" x1="331.3499707336773" x2="331.3499707336773" y1="143.8461538461538" y2="183.8461538461538"></line><line stroke="#000000" stroke-width="5" x1="338.6499707336773" x2="338.6499707336773" y1="143.8461538461538" y2="183.8461538461538"></line></g><g><g><path d="M24.511 199.486C28.511 199.486 33.431 195.766 33.431 191.966C33.431 189.686 31.631 188.206 29.031 188.206C24.111 188.206 20.151 191.846 20.151 195.726C20.151 198.086 22.071 199.486 24.511 199.486Z"></path></g><g><path d="M24.511 154.486C28.511 154.486 33.431 150.766 33.431 146.966C33.431 144.686 31.631 143.206 29.031 143.206C24.111 143.206 20.151 146.846 20.151 150.726C20.151 153.086 22.071 154.486 24.511 154.486Z"></path></g><g><path d="M24.511 144.486C28.511 144.486 33.431 140.766 33.431 136.966C33.431 134.686 31.631 133.206 29.031 133.206C24.111 133.206 20.151 136.846 20.151 140.726C20.151 143.086 22.071 144.486 24.511 144.486Z"></path></g><line stroke="#000000" stroke-width="1.2" x1="20.75099999999999" x2="20.75099999999999" y1="140.68615384615381" y2="225.68615384615381"></line><line stroke="#000000" stroke-width="2.2" x1="16.95099999999999" x2="38.87099999999998" y1="193.8461538461538" y2="193.8461538461538"></line><text font-family="Alegreya" font-size="22" text-anchor="middle" x="26.79099999999999" y="223.8461538461538">normal</text></g><g><g><path d="M120.463 199.486C124.463 199.486 129.383 195.766 129.383 191.966C129.383 189.686 127.583 188.206 124.983 188.206C120.063 188.206 116.103 191.846 116.103 195.726C116.103 198.086 118.023 199.486 120.463 199.486Z"></path></g><g><path d="M120.463 154.486C124.463 154.486 129.383 150.766 129.383 146.966C129.383 144.686 127.583 143.206 124.983 143.206C120.063 143.206 116.103 146.846 116.103 150.726C116.103 153.086 118.023 154.486 120.463 154.486Z"></path></g><g><path d="M120.463 144.486C124.463 144.486 129.383 140.766 129.383 136.966C129.383 134.686 127.583 133.206 124.983 133.206C120.063 133.206 116.103 136.846 116.103 140.726C116.103 143.086 118.023 144.486 120.463 144.486Z"></path></g><line stroke="#000000" stroke-width="1.2" x1="116.7027426834193" x2="116.7027426834193" y1="140.68615384615381" y2="225.68615384615381"></line><line stroke="#000000" stroke-width="2.2" x1="112.9027426834193" x2="134.8227426834193" y1="193.8461538461538" y2="193.8461538461538"></line><text font-family="Alegreya" font-size="22" text-anchor="middle" x="122.74274268341931" y="223.8461538461538">non-arp.</text></g><g><g><path d="M216.414 199.486C220.414 199.486 225.334 195.766 225.334 191.966C225.334 189.686 223.534 188.206 220.934 188.206C216.014 188.206 212.054 191.846 212.054 195.726C212.054 198.086 213.974 199.486 216.414 199.486Z"></path></g><g><path d="M216.414 154.486C220.414 154.486 225.334 150.766 225.334 146.966C225.334 144.686 223.534 143.206 220.934 143.206C216.014 143.206 212.054 146.846 212.054 150.726C212.054 153.086 213.974 154.486 216.414 154.486Z"></path></g><g><path d="M216.414 144.486C220.414 144.486 225.334 140.766 225.334 136.966C225.334 134.686 223.534 133.206 220.934 133.206C216.014 133.206 212.054 136.846 212.054 140.726C212.054 143.086 213.974 144.486 216.414 144.486Z"></path></g><line stroke="#000000" stroke-width="1.2" x1="212.6544853668386" x2="212.6544853668386" y1="140.68615384615381" y2="225.68615384615381"></line><line stroke="#000000" stroke-width="2.2" x1="208.85448536683862" x2="230.7744853668386" y1="193.8461538461538" y2="193.8461538461538"></line><text font-family="Alegreya" font-size="22" text-anchor="middle" x="218.6944853668386" y="223.8461538461538">normal</text></g><g><path d="M280.622 170.286C279.102 168.446 277.862 166.966 277.862 164.726C277.862 164.566 277.902 164.366 277.902 164.206C278.062 161.886 279.502 159.966 280.542 158.326C280.662 158.126 280.702 157.926 280.702 157.726C280.702 157.326 280.542 156.966 280.542 156.966C280.542 156.966 274.622 149.926 273.942 149.246C273.742 149.046 273.462 148.926 273.222 148.926C272.822 148.926 272.422 149.206 272.422 149.766C272.422 149.966 272.462 150.166 272.582 150.406C272.742 150.846 275.022 152.886 275.022 155.766C275.022 157.246 274.422 158.966 272.622 160.846C272.222 161.246 272.062 161.686 272.062 162.006C272.062 162.566 272.462 162.966 272.462 162.966L274.422 165.366C275.062 166.166 275.622 166.926 276.142 167.766C276.222 167.926 276.382 168.126 276.382 168.326C276.382 168.366 276.382 168.446 276.342 168.486C276.262 168.646 276.102 168.686 275.902 168.686C275.662 168.686 275.422 168.606 275.262 168.566C275.062 168.566 274.822 168.446 274.622 168.446C272.902 168.446 271.342 170.166 271.342 172.286C271.342 174.286 273.062 176.246 275.982 178.486C276.302 178.726 276.702 178.846 277.022 178.846C277.302 178.846 277.582 178.766 277.622 178.606C277.662 178.486 277.702 178.406 277.702 178.326C277.702 177.966 277.382 177.646 277.062 177.366C276.542 177.366 276.102 176.286 276.022 175.926C275.902 175.606 275.862 175.246 275.862 174.886C275.862 173.646 276.462 172.246 277.742 172.006C277.942 171.966 278.142 171.966 278.382 171.966C279.542 171.966 280.862 172.406 281.502 172.646C281.542 172.646 281.582 172.686 281.622 172.686C281.742 172.726 281.822 172.726 281.902 172.726C282.022 172.726 282.102 172.686 282.102 172.566C282.102 172.086 281.062 170.766 280.622 170.286Z"></path></g></g></svg>