<?xml version="1.0" encoding="UTF-8" standalone="no"?><svg xmlns="http://www.w3.org/2000/svg" height="279.4mm" viewBox="0 0 1328.6153846153845 1719.3846153846152" width="215.9mm"><g transform="translate(163.84615384615387)"><g><g><line stroke="#6A6A6A" stroke-width="1.3" x1="0" x2="364.00609673205145" y1="216.3461538461538" y2="216.3461538461538"></line><line stroke="#6A6A6A" stroke-width="1.3" x1="0" x2="364.00609673205145" y1="206.3461538461538" y2="206.3461538461538"></line><line stroke="#6A6A6A" stroke-width="1.3" x1="0" x2="364.00609673205145" y1="196.3461538461538" y2="196.3461538461538"></line><line stroke="#6A6A6A" stroke-width="1.3" x1="0" x2="364.00609673205145" y1="186.3461538461538" y2="186.3461538461538"></line><line stroke="#6A6A6A" stroke-width="1.3" x1="0" x2="364.00609673205145" y1="176.3461538461538" y2="176.3461538461538"></line></g><g><path d="M25.200 162.426C24.640 162.426 23.400 163.466 22.600 164.346C19.640 167.626 18.680 172.626 18.680 176.786C18.680 179.106 18.960 181.706 19.240 183.346C19.320 183.826 19.360 183.906 18.880 184.306C16.320 186.426 13.560 188.866 11.480 191.426C8.720 194.866 7 198.586 7 202.866C7 209.826 11.760 216.426 21.560 216.426C22.480 216.426 23.520 216.346 24.320 216.186C24.760 216.106 24.840 216.066 24.920 216.546C25.400 219.226 26 222.706 26 224.586C26 230.506 22 231.226 19.640 231.226C17.480 231.226 16.440 230.586 16.440 230.066C16.440 229.626 16.800 229.666 17.720 229.386C18.960 229.026 20.400 227.946 20.400 225.626C20.400 223.426 19 221.546 16.560 221.546C13.880 221.546 12.280 223.666 12.280 226.146C12.280 228.746 13.840 232.666 19.880 232.666C22.560 232.666 27.760 231.466 27.760 224.666C27.760 222.386 27.040 218.586 26.600 216.106C26.520 215.626 26.560 215.666 27.120 215.426C31.160 213.826 33.840 210.426 33.840 205.906C33.840 200.786 30.080 196.266 24.200 196.266C23.080 196.266 23.200 196.466 23.040 195.546L22.040 189.746C21.960 189.266 22.040 189.226 22.280 188.986C22.920 188.386 23.760 187.546 24.520 186.706C27.880 183.026 29.880 178.266 29.880 173.746C29.880 170.266 28.920 166.826 27.280 164.426C26.680 163.546 25.640 162.426 25.200 162.426ZM20.040 190.586C20.440 190.266 20.520 190.306 20.600 190.746L21.440 195.866C21.560 196.626 21.560 196.586 20.840 196.826C17.320 198.026 15.040 201.186 15.040 204.586C15.040 208.186 16.920 210.746 19.640 211.666C19.960 211.786 20.440 211.906 20.720 211.906C21.040 211.906 21.200 211.706 21.200 211.466C21.200 211.186 20.880 211.066 20.600 210.946C18.920 210.226 17.720 208.506 17.720 206.666C17.720 204.386 19.280 202.666 21.720 201.986C22.360 201.826 22.440 201.866 22.520 202.306L24.520 214.226C24.600 214.666 24.560 214.666 23.960 214.786C23.320 214.906 22.520 214.986 21.720 214.986C14.720 214.986 10.200 211.106 10.200 205.546C10.200 203.186 10.600 200.026 13.920 196.266C16.320 193.586 18.160 192.106 20.040 190.586ZM24.640 201.666C27.880 201.946 30.560 204.666 30.560 208.186C30.560 210.706 29.040 212.746 26.800 213.866C26.320 214.106 26.240 214.106 26.160 213.626L24.200 202.226C24.120 201.746 24.160 201.626 24.640 201.666ZM25.800 168.626C27.120 168.626 28.200 169.706 28.200 171.906C28.200 174.666 26.880 177.226 23.760 180.346C23.120 180.986 22.160 181.906 21.240 182.706C20.960 182.946 20.800 182.906 20.720 182.386C20.560 181.346 20.480 179.986 20.480 178.706C20.480 172.466 23.360 168.626 25.800 168.626Z"></path></g><g></g><path d="M57.820 186.306C56.620 186.306 55.220 186.626 54.140 187.106C50.580 188.666 48.700 192.946 48.700 196.746C48.700 197.106 48.700 197.466 48.740 197.826C48.940 199.986 49.980 202.026 51.300 203.626C52.820 205.466 55.020 206.306 57.420 206.306C64.420 206.306 65.460 199.946 65.460 198.786C65.460 197.906 65.020 197.906 64.860 197.906C64.540 197.906 64.260 197.946 64.260 198.626C64.260 203.786 59.860 204.986 58.580 204.986C55.340 204.986 53.620 201.826 53.620 195.226C53.620 188.626 56.660 187.266 58.820 187.266C60.900 187.266 61.740 188.226 61.740 188.626C61.740 188.986 61.620 189.506 61.020 189.506C59.420 189.506 58.500 191.226 58.500 192.466C58.500 194.746 60.460 195.466 61.580 195.466C61.580 195.466 64.620 195.346 64.620 192.026C64.620 186.786 58.580 186.306 57.820 186.306Z"></path></g><g><line stroke="black" stroke-width="1.6" x1="364.80609673205146" x2="364.80609673205146" y1="176.3461538461538" y2="216.3461538461538"></line></g><g><g><path d="M93.360 231.986C97.360 231.986 102.280 228.266 102.280 224.466C102.280 222.186 100.480 220.706 97.880 220.706C92.960 220.706 89 224.346 89 228.226C89 230.586 90.920 231.986 93.360 231.986Z"></path></g><g><path d="M93.360 186.986C97.360 186.986 102.280 183.266 102.280 179.466C102.280 177.186 100.480 175.706 97.880 175.706C92.960 175.706 89 179.346 89 183.226C89 185.586 90.920 186.986 93.360 186.986Z"></path></g><g><path d="M93.360 176.986C97.360 176.986 102.280 173.266 102.280 169.466C102.280 167.186 100.480 165.706 97.880 165.706C92.960 165.706 89 169.346 89 173.226C89 175.586 90.920 176.986 93.360 176.986Z"></path></g><line stroke="#000000" stroke-width="1.2" x1="89.6" x2="89.6" y1="173.18615384615381" y2="258.18615384615384"></line><line stroke="#000000" stroke-width="2.2" x1="85.8" x2="107.72" y1="226.3461538461538" y2="226.3461538461538"></line><text font-family="Alegreya" font-size="22" text-anchor="middle" x="95.64" y="256.3461538461538">normal</text></g><g><g><path d="M160.340 231.986C164.340 231.986 169.260 228.266 169.260 224.466C169.260 222.186 167.460 220.706 164.860 220.706C159.940 220.706 155.980 224.346 155.980 228.226C155.980 230.586 157.900 231.986 160.340 231.986Z"></path></g><g><path d="M160.340 186.986C164.340 186.986 169.260 183.266 169.260 179.466C169.260 177.186 167.460 175.706 164.860 175.706C159.940 175.706 155.980 179.346 155.980 183.226C155.980 185.586 157.900 186.986 160.340 186.986Z"></path></g><g><path d="M160.340 176.986C164.340 176.986 169.260 173.266 169.260 169.466C169.260 167.186 167.460 165.706 164.860 165.706C159.940 165.706 155.980 169.346 155.980 173.226C155.980 175.586 157.900 176.986 160.340 176.986Z"></path></g><line stroke="#000000" stroke-width="1.2" x1="156.57977418301286" x2="156.57977418301286" y1="173.18615384615381" y2="258.18615384615384"></line><line stroke="#000000" stroke-width="2.2" x1="152.77977418301288" x2="174.69977418301286" y1="226.3461538461538" y2="226.3461538461538"></line><text font-family="Alegreya" font-size="22" text-anchor="middle" x="162.61977418301285" y="256.3461538461538">up</text></g><g><g><path d="M227.320 231.986C231.320 231.986 236.240 228.266 236.240 224.466C236.240 222.186 234.440 220.706 231.840 220.706C226.920 220.706 222.960 224.346 222.960 228.226C222.960 230.586 224.880 231.986 227.320 231.986Z"></path></g><g><path d="M227.320 186.986C231.320 186.986 236.240 183.266 236.240 179.466C236.240 177.186 234.440 175.706 231.840 175.706C226.920 175.706 222.960 179.346 222.960 183.226C222.960 185.586 224.880 186.986 227.320 186.986Z"></path></g><g><path d="M227.320 176.986C231.320 176.986 236.240 173.266 236.240 169.466C236.240 167.186 234.440 165.706 231.840 165.706C226.920 165.706 222.960 169.346 222.960 173.226C222.960 175.586 224.880 176.986 227.320 176.986Z"></path></g><line stroke="#000000" stroke-width="1.2" x1="223.5595483660257" x2="223.5595483660257" y1="173.18615384615381" y2="258.18615384615384"></line><line stroke="#000000" stroke-width="2.2" x1="219.7595483660257" x2="241.6795483660257" y1="226.3461538461538" y2="226.3461538461538"></line><text font-family="Alegreya" font-size="22" text-anchor="middle" x="229.59954836602572" y="256.3461538461538">normal</text></g><g><g><path d="M307.488 231.986C311.488 231.986 316.408 228.266 316.408 224.466C316.408 222.186 314.608 220.706 312.008 220.706C307.088 220.706 303.128 224.346 303.128 228.226C303.128 230.586 305.048 231.986 307.488 231.986Z"></path></g><g><path d="M307.488 186.986C311.488 186.986 316.408 183.266 316.408 179.466C316.408 177.186 314.608 175.706 312.008 175.706C307.088 175.706 303.128 179.346 303.128 183.226C303.128 185.586 305.048 186.986 307.488 186.986Z"></path></g><g><path d="M307.488 176.986C311.488 176.986 316.408 173.266 316.408 169.466C316.408 167.186 314.608 165.706 312.008 165.706C307.088 165.706 303.128 169.346 303.128 173.226C303.128 175.586 305.048 176.986 307.488 176.986Z"></path></g><line stroke="#000000" stroke-width="1.2" x1="303.7283225490386" x2="303.7283225490386" y1="173.18615384615381" y2="258.18615384615384"></line><line stroke="#000000" stroke-width="2.2" x1="299.92832254903857" x2="321.8483225490386" y1="226.3461538461538" y2="226.3461538461538"></line><text font-family="Alegreya" font-size="22" text-anchor="middle" x="309.76832254903854" y="256.3461538461538">down</text></g></g><g transform="translate(544.4522505782052)"><g><g><line stroke="#6A6A6A" stroke-width="1.3" x1="-16.599999999999966" x2="203.42233225490378" y1="216.3461538461538" y2="216.3461538461538"></line><line stroke="#6A6A6A" stroke-width="1.3" x1="-16.599999999999966" x2="203.42233225490378" y1="206.3461538461538" y2="206.3461538461538"></line><line stroke="#6A6A6A" stroke-width="1.3" x1="-16.599999999999966" x2="203.42233225490378" y1="196.3461538461538" y2="196.3461538461538"></line><line stroke="#6A6A6A" stroke-width="1.3" x1="-16.599999999999966" x2="203.42233225490378" y1="186.3461538461538" y2="186.3461538461538"></line><line stroke="#6A6A6A" stroke-width="1.3" x1="-16.599999999999966" x2="203.42233225490378" y1="176.3461538461538" y2="176.3461538461538"></line></g></g><g><line stroke="#000000" stroke-width="1.6" x1="193.62233225490382" x2="193.62233225490382" y1="176.3461538461538" y2="216.3461538461538"></line><line stroke="#000000" stroke-width="5" x1="200.9223322549038" x2="200.9223322549038" y1="176.3461538461538" y2="216.3461538461538"></line></g><g><g><path d="M24.511 231.986C28.511 231.986 33.431 228.266 33.431 224.466C33.431 222.186 31.631 220.706 29.031 220.706C24.111 220.706 20.151 224.346 20.151 228.226C20.151 230.586 22.071 231.986 24.511 231.986Z"></path></g><g><path d="M24.511 186.986C28.511 186.986 33.431 183.266 33.431 179.466C33.431 177.186 31.631 175.706 29.031 175.706C24.111 175.706 20.151 179.346 20.151 183.226C20.151 185.586 22.071 186.986 24.511 186.986Z"></path></g><g><path d="M24.511 176.986C28.511 176.986 33.431 173.266 33.431 169.466C33.431 167.186 31.631 165.706 29.031 165.706C24.111 165.706 20.151 169.346 20.151 173.226C20.151 175.586 22.071 176.986 24.511 176.986Z"></path></g><line stroke="#000000" stroke-width="1.2" x1="20.75099999999999" x2="20.75099999999999" y1="173.18615384615381" y2="258.18615384615384"></line><line stroke="#000000" stroke-width="2.2" x1="16.95099999999999" x2="38.87099999999998" y1="226.3461538461538" y2="226.3461538461538"></line><text font-family="Alegreya" font-size="22" text-anchor="middle" x="26.79099999999999" y="256.3461538461538">normal</text></g><g><g><path d="M94.303 231.986C98.303 231.986 103.223 228.266 103.223 224.466C103.223 222.186 101.423 220.706 98.823 220.706C93.903 220.706 89.943 224.346 89.943 228.226C89.943 230.586 91.863 231.986 94.303 231.986Z"></path></g><g><path d="M94.303 186.986C98.303 186.986 103.223 183.266 103.223 179.466C103.223 177.186 101.423 175.706 98.823 175.706C93.903 175.706 89.943 179.346 89.943 183.226C89.943 185.586 91.863 186.986 94.303 186.986Z"></path></g><g><path d="M94.303 176.986C98.303 176.986 103.223 173.266 103.223 169.466C103.223 167.186 101.423 165.706 98.823 165.706C93.903 165.706 89.943 169.346 89.943 173.226C89.943 175.586 91.863 176.986 94.303 176.986Z"></path></g><line stroke="#000000" stroke-width="1.2" x1="90.54277741830124" x2="90.54277741830124" y1="173.18615384615381" y2="258.18615384615384"></line><line stroke="#000000" stroke-width="2.2" x1="86.74277741830124" x2="108.66277741830125" y1="226.3461538461538" y2="226.3461538461538"></line><text font-family="Alegreya" font-size="22" text-anchor="middle" x="96.58277741830125" y="256.3461538461538">non-arp.</text></g><g><g><path d="M164.095 231.986C168.095 231.986 173.015 228.266 173.015 224.466C173.015 222.186 171.215 220.706 168.615 220.706C163.695 220.706 159.735 224.346 159.735 228.226C159.735 230.586 161.655 231.986 164.095 231.986Z"></path></g><g><path d="M164.095 186.986C168.095 186.986 173.015 183.266 173.015 179.466C173.015 177.186 171.215 175.706 168.615 175.706C163.695 175.706 159.735 179.346 159.735 183.226C159.735 185.586 161.655 186.986 164.095 186.986Z"></path></g><g><path d="M164.095 176.986C168.095 176.986 173.015 173.266 173.015 169.466C173.015 167.186 171.215 165.706 168.615 165.706C163.695 165.706 159.735 169.346 159.735 173.226C159.735 175.586 161.655 176.986 164.095 176.986Z"></path></g><line stroke="#000000" stroke-width="1.2" x1="160.3345548366025" x2="160.3345548366025" y1="173.18615384615381" y2="258.18615384615384"></line><line stroke="#000000" stroke-width="2.2" x1="156.53455483660252" x2="178.4545548366025" y1="226.3461538461538" y2="226.3461538461538"></line><text font-family="Alegreya" font-size="22" text-anchor="middle" x="166.3745548366025" y="256.3461538461538">normal</text></g></g></svg>