<?xml version="1.0" encoding="UTF-8" standalone="no"?><svg xmlns="http://www.w3.org/2000/svg" height="279.4mm" viewBox="0 0 1328.6153846153845 1719.3846153846152" width="215.9mm"><g transform="translate(163.84615384615387)"><g><g><line stroke="#6A6A6A" stroke-width="1.3" x1="0" x2="228.34745129482167" y1="216.3461538461538" y2="216.3461538461538"></line><line stroke="#6A6A6A" stroke-width="1.3" x1="0" x2="228.34745129482167" y1="206.3461538461538" y2="206.3461538461538"></line><line stroke="#6A6A6A" stroke-width="1.3" x1="0" x2="228.34745129482167" y1="196.3461538461538" y2="196.3461538461538"></line><line stroke="#6A6A6A" stroke-width="1.3" x1="0" x2="228.34745129482167" y1="186.3461538461538" y2="186.3461538461538"></line><line stroke="#6A6A6A" stroke-width="1.3" x1="0" x2="228.34745129482167" y1="176.3461538461538" y2="176.3461538461538"></line></g><g><path d="M25.200 162.426C24.640 162.426 23.400 163.466 22.600 164.346C19.640 167.626 18.680 172.626 18.680 176.786C18.680 179.106 18.960 181.706 19.240 183.346C19.320 183.826 19.360 183.906 18.880 184.306C16.320 186.426 13.560 188.866 11.480 191.426C8.720 194.866 7 198.586 7 202.866C7 209.826 11.760 216.426 21.560 216.426C22.480 216.426 23.520 216.346 24.320 216.186C24.760 216.106 24.840 216.066 24.920 216.546C25.400 219.226 26 222.706 26 224.586C26 230.506 22 231.226 19.640 231.226C17.480 231.226 16.440 230.586 16.440 230.066C16.440 229.626 16.800 229.666 17.720 229.386C18.960 229.026 20.400 227.946 20.400 225.626C20.400 223.426 19 221.546 16.560 221.546C13.880 221.546 12.280 223.666 12.280 226.146C12.280 228.746 13.840 232.666 19.880 232.666C22.560 232.666 27.760 231.466 27.760 224.666C27.760 222.386 27.040 218.586 26.600 216.106C26.520 215.626 26.560 215.666 27.120 215.426C31.160 213.826 33.840 210.426 33.840 205.906C33.840 200.786 30.080 196.266 24.200 196.266C23.080 196.266 23.200 196.466 23.040 195.546L22.040 189.746C21.960 189.266 22.040 189.226 22.280 188.986C22.920 188.386 23.760 187.546 24.520 186.706C27.880 183.026 29.880 178.266 29.880 173.746C29.880 170.266 28.920 166.826 27.280 164.426C26.680 163.546 25.640 162.426 25.200 162.426ZM20.040 190.586C20.440 190.266 20.520 190.306 20.600 190.746L21.440 195.866C21.560 196.626 21.560 196.586 20.840 196.826C17.320 198.026 15.040 201.186 15.040 204.586C15.040 208.186 16.920 210.746 19.640 211.666C19.960 211.786 20.440 211.906 20.720 211.906C21.040 211.906 21.200 211.706 21.200 211.466C21.200 211.186 20.880 211.066 20.600 210.946C18.920 210.226 17.720 208.506 17.720 206.666C17.720 204.386 19.280 202.666 21.720 201.986C22.360 201.826 22.440 201.866 22.520 202.306L24.520 214.226C24.600 214.666 24.560 214.666 23.960 214.786C23.320 214.906 22.520 214.986 21.720 214.986C14.720 214.986 10.200 211.106 10.200 205.546C10.200 203.186 10.600 200.026 13.920 196.266C16.320 193.586 18.160 192.106 20.040 190.586ZM24.640 201.666C27.880 201.946 30.560 204.666 30.560 208.186C30.560 210.706 29.040 212.746 26.800 213.866C26.320 214.106 26.240 214.106 26.160 213.626L24.200 202.226C24.120 201.746 24.160 201.626 24.640 201.666ZM25.800 168.626C27.120 168.626 28.200 169.706 28.200 171.906C28.200 174.666 26.880 177.226 23.760 180.346C23.120 180.986 22.160 181.906 21.240 182.706C20.960 182.946 20.800 182.906 20.720 182.386C20.560 181.346 20.480 179.986 20.480 178.706C20.480 172.466 23.360 168.626 25.800 168.626Z"></path></g><g><path d="M52.980 171.626C53.260 171.506 53.460 171.186 53.460 170.946L53.460 168.106C53.460 167.906 53.340 167.786 53.180 167.786C53.100 167.786 53.060 167.786 52.980 167.826C52.980 167.826 52.180 168.146 51.980 168.186C51.700 168.186 51.420 167.986 51.420 167.666C51.420 167.266 51.420 162.786 51.420 162.786C51.420 162.546 51.180 162.346 50.860 162.346C50.460 162.346 50.220 162.546 50.220 162.786C50.220 162.786 50.220 167.586 50.220 167.986C50.180 168.386 50.060 168.906 49.700 169.146C49.220 169.426 47.860 169.986 47.180 170.146C46.820 170.146 46.700 169.666 46.700 169.346C46.700 168.946 46.700 164.546 46.700 164.546C46.700 164.306 46.420 164.106 46.140 164.106C45.740 164.106 45.500 164.306 45.500 164.546C45.500 164.546 45.500 166.706 45.500 168.306L45.500 169.946C45.500 170.506 45.260 170.906 45.020 171.026C44.780 171.146 43.980 171.466 43.980 171.466C43.700 171.546 43.500 171.866 43.500 172.106L43.500 174.946C43.500 175.186 43.620 175.306 43.820 175.306C43.860 175.306 43.940 175.266 43.980 175.266C43.980 175.266 44.580 175.026 44.860 174.866C44.900 174.866 44.940 174.826 44.980 174.826C45.260 174.826 45.500 175.226 45.500 175.546L45.500 179.506C45.500 179.946 45.300 180.306 45.060 180.426C44.820 180.506 43.980 180.866 43.980 180.866C43.700 180.946 43.500 181.266 43.500 181.506L43.500 184.346C43.500 184.586 43.620 184.706 43.820 184.706C43.860 184.706 43.940 184.666 43.980 184.666C43.980 184.666 44.540 184.426 44.900 184.306C44.940 184.266 44.980 184.266 45.020 184.266C45.300 184.266 45.500 184.706 45.500 184.906C45.500 185.146 45.500 189.826 45.500 189.826C45.500 190.066 45.740 190.266 46.020 190.266C46.420 190.266 46.700 190.066 46.700 189.826C46.700 189.826 46.700 184.746 46.700 184.266C46.700 183.746 46.900 183.466 47.100 183.386L49.540 182.386C49.580 182.386 49.660 182.346 49.700 182.346C50.020 182.346 50.220 182.826 50.220 183.066C50.220 183.346 50.220 188.066 50.220 188.066C50.220 188.306 50.460 188.506 50.740 188.506C51.180 188.506 51.420 188.306 51.420 188.066C51.420 188.066 51.420 182.666 51.420 182.386C51.420 182.066 51.580 181.586 51.860 181.466C52.140 181.346 52.980 181.026 52.980 181.026C53.260 180.906 53.460 180.586 53.460 180.346L53.460 177.506C53.460 177.306 53.340 177.186 53.180 177.186C53.100 177.186 53.060 177.186 52.980 177.226C52.980 177.226 52.140 177.546 51.940 177.626C51.700 177.626 51.420 177.386 51.420 176.906L51.420 173.186C51.420 172.906 51.620 172.146 51.940 172.026C52.260 171.906 52.980 171.626 52.980 171.626ZM50.220 178.146C49.980 178.946 48.100 179.746 47.180 179.746C46.940 179.746 46.740 179.666 46.700 179.546C46.620 179.386 46.580 178.506 46.580 177.546C46.580 176.306 46.620 174.906 46.700 174.586C46.780 173.906 48.620 173.066 49.620 173.066C49.900 173.066 50.140 173.146 50.220 173.306C50.300 173.506 50.380 174.506 50.380 175.586C50.380 176.666 50.300 177.786 50.220 178.146Z"></path></g><path d="M75.820 186.306C74.620 186.306 73.220 186.626 72.140 187.106C68.580 188.666 66.700 192.946 66.700 196.746C66.700 197.106 66.700 197.466 66.740 197.826C66.940 199.986 67.980 202.026 69.300 203.626C70.820 205.466 73.020 206.306 75.420 206.306C82.420 206.306 83.460 199.946 83.460 198.786C83.460 197.906 83.020 197.906 82.860 197.906C82.540 197.906 82.260 197.946 82.260 198.626C82.260 203.786 77.860 204.986 76.580 204.986C73.340 204.986 71.620 201.826 71.620 195.226C71.620 188.626 74.660 187.266 76.820 187.266C78.900 187.266 79.740 188.226 79.740 188.626C79.740 188.986 79.620 189.506 79.020 189.506C77.420 189.506 76.500 191.226 76.500 192.466C76.500 194.746 78.460 195.466 79.580 195.466C79.580 195.466 82.620 195.346 82.620 192.026C82.620 186.786 76.580 186.306 75.820 186.306Z"></path></g><g><line stroke="black" stroke-width="1.6" x1="229.14745129482168" x2="229.14745129482168" y1="176.3461538461538" y2="216.3461538461538"></line></g><g><g><path d="M116.400 220.866C110.600 220.866 107 223.306 107 226.266C107 229.186 109.480 231.786 115.960 231.786C123.080 231.786 125.360 229.306 125.360 226.266C125.360 223.186 120.440 220.866 116.400 220.866ZM111.840 223.586C112.320 222.106 113.920 221.866 115.280 221.866C118.240 221.866 120.640 225.066 120.640 227.706C120.640 227.986 120.600 228.266 120.560 228.506C120.360 229.586 119.720 230.346 118.640 230.626C118.200 230.746 117.760 230.786 117.320 230.786C116.920 230.786 116.560 230.746 116.160 230.626C115.440 230.386 114.720 229.986 114.120 229.466C113.800 229.186 113.480 228.866 113.200 228.506C112.360 227.506 111.680 226.026 111.680 224.666C111.680 224.306 111.720 223.946 111.840 223.586Z"></path></g><line stroke="#000000" stroke-width="2.2" x1="103.8" x2="130.60000000000002" y1="226.3461538461538" y2="226.3461538461538"></line></g></g><g transform="translate(408.7936051409755)"><g><g><line stroke="#6A6A6A" stroke-width="1.3" x1="-16.599999999999994" x2="274.89490258964327" y1="216.3461538461538" y2="216.3461538461538"></line><line stroke="#6A6A6A" stroke-width="1.3" x1="-16.599999999999994" x2="274.89490258964327" y1="206.3461538461538" y2="206.3461538461538"></line><line stroke="#6A6A6A" stroke-width="1.3" x1="-16.599999999999994" x2="274.89490258964327" y1="196.3461538461538" y2="196.3461538461538"></line><line stroke="#6A6A6A" stroke-width="1.3" x1="-16.599999999999994" x2="274.89490258964327" y1="186.3461538461538" y2="186.3461538461538"></line><line stroke="#6A6A6A" stroke-width="1.3" x1="-16.599999999999994" x2="274.89490258964327" y1="176.3461538461538" y2="176.3461538461538"></line></g><g></g></g><g><line stroke="black" stroke-width="1.6" x1="127.14745129482166" x2="127.14745129482166" y1="176.3461538461538" y2="216.3461538461538"></line></g><g><g><path d="M14.400 220.866C8.600 220.866 5 223.306 5 226.266C5 229.186 7.480 231.786 13.960 231.786C21.080 231.786 23.360 229.306 23.360 226.266C23.360 223.186 18.440 220.866 14.400 220.866ZM9.840 223.586C10.320 222.106 11.920 221.866 13.280 221.866C16.240 221.866 18.640 225.066 18.640 227.706C18.640 227.986 18.600 228.266 18.560 228.506C18.360 229.586 17.720 230.346 16.640 230.626C16.200 230.746 15.760 230.786 15.320 230.786C14.920 230.786 14.560 230.746 14.160 230.626C13.440 230.386 12.720 229.986 12.120 229.466C11.800 229.186 11.480 228.866 11.200 228.506C10.360 227.506 9.680 226.026 9.680 224.666C9.680 224.306 9.720 223.946 9.840 223.586Z"></path></g><line stroke="#000000" stroke-width="2.2" x1="1.7999999999999998" x2="28.599999999999998" y1="226.3461538461538" y2="226.3461538461538"></line></g></g><g transform="translate(551.7410564357972)"><g></g><g><line stroke="#000000" stroke-width="1.6" x1="122.14745129482166" x2="122.14745129482166" y1="176.3461538461538" y2="216.3461538461538"></line><line stroke="#000000" stroke-width="5" x1="129.44745129482166" x2="129.44745129482166" y1="176.3461538461538" y2="216.3461538461538"></line></g><g><g><path d="M9.400 220.866C3.600 220.866 0 223.306 0 226.266C0 229.186 2.480 231.786 8.960 231.786C16.080 231.786 18.360 229.306 18.360 226.266C18.360 223.186 13.440 220.866 9.400 220.866ZM4.840 223.586C5.320 222.106 6.920 221.866 8.280 221.866C11.240 221.866 13.640 225.066 13.640 227.706C13.640 227.986 13.600 228.266 13.560 228.506C13.360 229.586 12.720 230.346 11.640 230.626C11.200 230.746 10.760 230.786 10.320 230.786C9.920 230.786 9.560 230.746 9.160 230.626C8.440 230.386 7.720 229.986 7.120 229.466C6.800 229.186 6.480 228.866 6.200 228.506C5.360 227.506 4.680 226.026 4.680 224.666C4.680 224.306 4.720 223.946 4.840 223.586Z"></path></g><line stroke="#000000" stroke-width="2.2" x1="-3.2" x2="23.599999999999998" y1="226.3461538461538" y2="226.3461538461538"></line></g></g></svg>