<?xml version="1.0" encoding="UTF-8" standalone="no"?><svg xmlns="http://www.w3.org/2000/svg" height="279.4mm" viewBox="0 0 1328.6153846153845 1719.3846153846152" width="215.9mm"><g transform="translate(163.84615384615387)"><g><g><line stroke="#6A6A6A" stroke-width="1.3" x1="0" x2="184.54219382847015" y1="216.3461538461538" y2="216.3461538461538"></line><line stroke="#6A6A6A" stroke-width="1.3" x1="0" x2="184.54219382847015" y1="206.3461538461538" y2="206.3461538461538"></line><line stroke="#6A6A6A" stroke-width="1.3" x1="0" x2="184.54219382847015" y1="196.3461538461538" y2="196.3461538461538"></line><line stroke="#6A6A6A" stroke-width="1.3" x1="0" x2="184.54219382847015" y1="186.3461538461538" y2="186.3461538461538"></line><line stroke="#6A6A6A" stroke-width="1.3" x1="0" x2="184.54219382847015" y1="176.3461538461538" y2="176.3461538461538"></line></g><g><path d="M25.200 162.426C24.640 162.426 23.400 163.466 22.600 164.346C19.640 167.626 18.680 172.626 18.680 176.786C18.680 179.106 18.960 181.706 19.240 183.346C19.320 183.826 19.360 183.906 18.880 184.306C16.320 186.426 13.560 188.866 11.480 191.426C8.720 194.866 7 198.586 7 202.866C7 209.826 11.760 216.426 21.560 216.426C22.480 216.426 23.520 216.346 24.320 216.186C24.760 216.106 24.840 216.066 24.920 216.546C25.400 219.226 26 222.706 26 224.586C26 230.506 22 231.226 19.640 231.226C17.480 231.226 16.440 230.586 16.440 230.066C16.440 229.626 16.800 229.666 17.720 229.386C18.960 229.026 20.400 227.946 20.400 225.626C20.400 223.426 19 221.546 16.560 221.546C13.880 221.546 12.280 223.666 12.280 226.146C12.280 228.746 13.840 232.666 19.880 232.666C22.560 232.666 27.760 231.466 27.760 224.666C27.760 222.386 27.040 218.586 26.600 216.106C26.520 215.626 26.560 215.666 27.120 215.426C31.160 213.826 33.840 210.426 33.840 205.906C33.840 200.786 30.080 196.266 24.200 196.266C23.080 196.266 23.200 196.466 23.040 195.546L22.040 189.746C21.960 189.266 22.040 189.226 22.280 188.986C22.920 188.386 23.760 187.546 24.520 186.706C27.880 183.026 29.880 178.266 29.880 173.746C29.880 170.266 28.920 166.826 27.280 164.426C26.680 163.546 25.640 162.426 25.200 162.426ZM20.040 190.586C20.440 190.266 20.520 190.306 20.600 190.746L21.440 195.866C21.560 196.626 21.560 196.586 20.840 196.826C17.320 198.026 15.040 201.186 15.040 204.586C15.040 208.186 16.920 210.746 19.640 211.666C19.960 211.786 20.440 211.906 20.720 211.906C21.040 211.906 21.200 211.706 21.200 211.466C21.200 211.186 20.880 211.066 20.600 210.946C18.920 210.226 17.720 208.506 17.720 206.666C17.720 204.386 19.280 202.666 21.720 201.986C22.360 201.826 22.440 201.866 22.520 202.306L24.520 214.226C24.600 214.666 24.560 214.666 23.960 214.786C23.320 214.906 22.520 214.986 21.720 214.986C14.720 214.986 10.200 211.106 10.200 205.546C10.200 203.186 10.600 200.026 13.920 196.266C16.320 193.586 18.160 192.106 20.040 190.586ZM24.640 201.666C27.880 201.946 30.560 204.666 30.560 208.186C30.560 210.706 29.040 212.746 26.800 213.866C26.320 214.106 26.240 214.106 26.160 213.626L24.200 202.226C24.120 201.746 24.160 201.626 24.640 201.666ZM25.800 168.626C27.120 168.626 28.200 169.706 28.200 171.906C28.200 174.666 26.880 177.226 23.760 180.346C23.120 180.986 22.160 181.906 21.240 182.706C20.960 182.946 20.800 182.906 20.720 182.386C20.560 181.346 20.480 179.986 20.480 178.706C20.480 172.466 23.360 168.626 25.800 168.626Z"></path></g><g></g><path d="M57.820 186.306C56.620 186.306 55.220 186.626 54.140 187.106C50.580 188.666 48.700 192.946 48.700 196.746C48.700 197.106 48.700 197.466 48.740 197.826C48.940 199.986 49.980 202.026 51.300 203.626C52.820 205.466 55.020 206.306 57.420 206.306C64.420 206.306 65.460 199.946 65.460 198.786C65.460 197.906 65.020 197.906 64.860 197.906C64.540 197.906 64.260 197.946 64.260 198.626C64.260 203.786 59.860 204.986 58.580 204.986C55.340 204.986 53.620 201.826 53.620 195.226C53.620 188.626 56.660 187.266 58.820 187.266C60.900 187.266 61.740 188.226 61.740 188.626C61.740 188.986 61.620 189.506 61.020 189.506C59.420 189.506 58.500 191.226 58.500 192.466C58.500 194.746 60.460 195.466 61.580 195.466C61.580 195.466 64.620 195.346 64.620 192.026C64.620 186.786 58.580 186.306 57.820 186.306Z"></path></g><g><line stroke="black" stroke-width="1.6" x1="185.34219382847016" x2="185.34219382847016" y1="176.3461538461538" y2="216.3461538461538"></line></g><g><g><path d="M98.400 185.866C92.600 185.866 89 188.306 89 191.266C89 194.186 91.480 196.786 97.960 196.786C105.080 196.786 107.360 194.306 107.360 191.266C107.360 188.186 102.440 185.866 98.400 185.866ZM93.840 188.586C94.320 187.106 95.920 186.866 97.280 186.866C100.240 186.866 102.640 190.066 102.640 192.706C102.640 192.986 102.600 193.266 102.560 193.506C102.360 194.586 101.720 195.346 100.640 195.626C100.200 195.746 99.760 195.786 99.320 195.786C98.920 195.786 98.560 195.746 98.160 195.626C97.440 195.386 96.720 194.986 96.120 194.466C95.800 194.186 95.480 193.866 95.200 193.506C94.360 192.506 93.680 191.026 93.680 189.666C93.680 189.306 93.720 188.946 93.840 188.586Z"></path></g></g></g><g transform="translate(364.988347674624)"><g><g><line stroke="#6A6A6A" stroke-width="1.3" x1="-16.599999999999994" x2="342.6265814854105" y1="216.3461538461538" y2="216.3461538461538"></line><line stroke="#6A6A6A" stroke-width="1.3" x1="-16.599999999999994" x2="342.6265814854105" y1="206.3461538461538" y2="206.3461538461538"></line><line stroke="#6A6A6A" stroke-width="1.3" x1="-16.599999999999994" x2="342.6265814854105" y1="196.3461538461538" y2="196.3461538461538"></line><line stroke="#6A6A6A" stroke-width="1.3" x1="-16.599999999999994" x2="342.6265814854105" y1="186.3461538461538" y2="186.3461538461538"></line><line stroke="#6A6A6A" stroke-width="1.3" x1="-16.599999999999994" x2="342.6265814854105" y1="176.3461538461538" y2="176.3461538461538"></line></g></g><g><line stroke="black" stroke-width="1.6" x1="96.34219382847014" x2="96.34219382847014" y1="176.3461538461538" y2="216.3461538461538"></line></g><g><line stroke="#000000" stroke-width="1.6" x1="97.94219382847014" x2="97.94219382847014" y1="176.3461538461538" y2="216.3461538461538"></line><line stroke="#000000" stroke-width="5" x1="105.24219382847014" x2="105.24219382847014" y1="176.3461538461538" y2="216.3461538461538"></line></g><g><g><path d="M9.400 185.866C3.600 185.866 0 188.306 0 191.266C0 194.186 2.480 196.786 8.960 196.786C16.080 196.786 18.360 194.306 18.360 191.266C18.360 188.186 13.440 185.866 9.400 185.866ZM4.840 188.586C5.320 187.106 6.920 186.866 8.280 186.866C11.240 186.866 13.640 190.066 13.640 192.706C13.640 192.986 13.600 193.266 13.560 193.506C13.360 194.586 12.720 195.346 11.640 195.626C11.200 195.746 10.760 195.786 10.320 195.786C9.920 195.786 9.560 195.746 9.160 195.626C8.440 195.386 7.720 194.986 7.120 194.466C6.800 194.186 6.480 193.866 6.200 193.506C5.360 192.506 4.680 191.026 4.680 189.666C4.680 189.306 4.720 188.946 4.840 188.586Z"></path></g></g></g><g transform="translate(487.7305415030941)"><g></g><g><line stroke="black" stroke-width="1.6" x1="96.34219382847014" x2="96.34219382847014" y1="176.3461538461538" y2="216.3461538461538"></line></g><g><line stroke="black" stroke-width="1.6" x1="97.94219382847014" x2="97.94219382847014" y1="176.3461538461538" y2="216.3461538461538"></line></g><g><g><path d="M9.400 185.866C3.600 185.866 0 188.306 0 191.266C0 194.186 2.480 196.786 8.960 196.786C16.080 196.786 18.360 194.306 18.360 191.266C18.360 188.186 13.440 185.866 9.400 185.866ZM4.840 188.586C5.320 187.106 6.920 186.866 8.280 186.866C11.240 186.866 13.640 190.066 13.640 192.706C13.640 192.986 13.600 193.266 13.560 193.506C13.360 194.586 12.720 195.346 11.640 195.626C11.200 195.746 10.760 195.786 10.320 195.786C9.920 195.786 9.560 195.746 9.160 195.626C8.440 195.386 7.720 194.986 7.120 194.466C6.800 194.186 6.480 193.866 6.200 193.506C5.360 192.506 4.680 191.026 4.680 189.666C4.680 189.306 4.720 188.946 4.840 188.586Z"></path></g></g></g><g transform="translate(601.4727353315643)"><g></g><g><line stroke="#000000" stroke-width="1.6" x1="96.34219382847014" x2="96.34219382847014" y1="176.3461538461538" y2="216.3461538461538"></line><line stroke="#000000" stroke-width="5" x1="103.64219382847014" x2="103.64219382847014" y1="176.3461538461538" y2="216.3461538461538"></line></g><g><g><path d="M9.400 185.866C3.600 185.866 0 188.306 0 191.266C0 194.186 2.480 196.786 8.960 196.786C16.080 196.786 18.360 194.306 18.360 191.266C18.360 188.186 13.440 185.866 9.400 185.866ZM4.840 188.586C5.320 187.106 6.920 186.866 8.280 186.866C11.240 186.866 13.640 190.066 13.640 192.706C13.640 192.986 13.600 193.266 13.560 193.506C13.360 194.586 12.720 195.346 11.640 195.626C11.200 195.746 10.760 195.786 10.320 195.786C9.920 195.786 9.560 195.746 9.160 195.626C8.440 195.386 7.720 194.986 7.120 194.466C6.800 194.186 6.480 193.866 6.200 193.506C5.360 192.506 4.680 191.026 4.680 189.666C4.680 189.306 4.720 188.946 4.840 188.586Z"></path></g></g></g></svg>