<?xml version="1.0" encoding="UTF-8" standalone="no"?><svg xmlns="http://www.w3.org/2000/svg" height="279.4mm" viewBox="0 0 1328.6153846153845 1719.3846153846152" width="215.9mm"><g transform="translate(163.84615384615387)"><g><g><line stroke="#6A6A6A" stroke-width="1.3" x1="0" x2="706.0249822054819" y1="216.3461538461538" y2="216.3461538461538"></line><line stroke="#6A6A6A" stroke-width="1.3" x1="0" x2="706.0249822054819" y1="206.3461538461538" y2="206.3461538461538"></line><line stroke="#6A6A6A" stroke-width="1.3" x1="0" x2="706.0249822054819" y1="196.3461538461538" y2="196.3461538461538"></line><line stroke="#6A6A6A" stroke-width="1.3" x1="0" x2="706.0249822054819" y1="186.3461538461538" y2="186.3461538461538"></line><line stroke="#6A6A6A" stroke-width="1.3" x1="0" x2="706.0249822054819" y1="176.3461538461538" y2="176.3461538461538"></line></g><g><path d="M25.200 162.426C24.640 162.426 23.400 163.466 22.600 164.346C19.640 167.626 18.680 172.626 18.680 176.786C18.680 179.106 18.960 181.706 19.240 183.346C19.320 183.826 19.360 183.906 18.880 184.306C16.320 186.426 13.560 188.866 11.480 191.426C8.720 194.866 7 198.586 7 202.866C7 209.826 11.760 216.426 21.560 216.426C22.480 216.426 23.520 216.346 24.320 216.186C24.760 216.106 24.840 216.066 24.920 216.546C25.400 219.226 26 222.706 26 224.586C26 230.506 22 231.226 19.640 231.226C17.480 231.226 16.440 230.586 16.440 230.066C16.440 229.626 16.800 229.666 17.720 229.386C18.960 229.026 20.400 227.946 20.400 225.626C20.400 223.426 19 221.546 16.560 221.546C13.880 221.546 12.280 223.666 12.280 226.146C12.280 228.746 13.840 232.666 19.880 232.666C22.560 232.666 27.760 231.466 27.760 224.666C27.760 222.386 27.040 218.586 26.600 216.106C26.520 215.626 26.560 215.666 27.120 215.426C31.160 213.826 33.840 210.426 33.840 205.906C33.840 200.786 30.080 196.266 24.200 196.266C23.080 196.266 23.200 196.466 23.040 195.546L22.040 189.746C21.960 189.266 22.040 189.226 22.280 188.986C22.920 188.386 23.760 187.546 24.520 186.706C27.880 183.026 29.880 178.266 29.880 173.746C29.880 170.266 28.920 166.826 27.280 164.426C26.680 163.546 25.640 162.426 25.200 162.426ZM20.040 190.586C20.440 190.266 20.520 190.306 20.600 190.746L21.440 195.866C21.560 196.626 21.560 196.586 20.840 196.826C17.320 198.026 15.040 201.186 15.040 204.586C15.040 208.186 16.920 210.746 19.640 211.666C19.960 211.786 20.440 211.906 20.720 211.906C21.040 211.906 21.200 211.706 21.200 211.466C21.200 211.186 20.880 211.066 20.600 210.946C18.920 210.226 17.720 208.506 17.720 206.666C17.720 204.386 19.280 202.666 21.720 201.986C22.360 201.826 22.440 201.866 22.520 202.306L24.520 214.226C24.600 214.666 24.560 214.666 23.960 214.786C23.320 214.906 22.520 214.986 21.720 214.986C14.720 214.986 10.200 211.106 10.200 205.546C10.200 203.186 10.600 200.026 13.920 196.266C16.320 193.586 18.160 192.106 20.040 190.586ZM24.640 201.666C27.880 201.946 30.560 204.666 30.560 208.186C30.560 210.706 29.040 212.746 26.800 213.866C26.320 214.106 26.240 214.106 26.160 213.626L24.200 202.226C24.120 201.746 24.160 201.626 24.640 201.666ZM25.800 168.626C27.120 168.626 28.200 169.706 28.200 171.906C28.200 174.666 26.880 177.226 23.760 180.346C23.120 180.986 22.160 181.906 21.240 182.706C20.960 182.946 20.800 182.906 20.720 182.386C20.560 181.346 20.480 179.986 20.480 178.706C20.480 172.466 23.360 168.626 25.800 168.626Z"></path></g><g></g><g><g><path d="M56.380 176.426C56.180 176.426 55.980 176.386 55.780 176.386C52.340 176.386 48.900 178.666 48.900 180.786C48.900 182.106 49.660 183.866 52.140 184.026L52.340 184.026C54.100 184.026 54.980 182.746 54.980 181.426L54.980 181.106C54.860 179.626 53.860 179.546 53.660 179.466C53.460 179.386 52.860 179.466 52.860 178.906L52.860 178.746C52.940 178.066 54.180 177.746 54.540 177.746C57.940 177.746 58.260 179.866 58.260 180.826L58.260 181.106C58.260 184.066 55.900 185.226 53.380 185.346C52.980 185.386 52.420 185.586 52.420 186.026C52.420 186.506 53.100 186.506 53.420 186.506C58.020 186.506 58.380 189.626 58.380 190.146C58.380 194.386 56.220 194.866 55.340 194.866C55.180 194.866 55.020 194.826 54.980 194.826C54.660 194.786 53.900 194.786 53.860 194.186L53.860 193.986C53.860 193.106 54.740 192.506 54.780 191.346C54.780 190.946 54.740 190.506 54.580 190.106C54.140 189.106 52.980 188.466 51.900 188.466C51.740 188.466 51.620 188.466 51.460 188.506C50.780 188.626 50.020 189.026 49.540 189.546C48.860 190.146 48.660 191.106 48.660 191.986C48.740 195.106 51.580 196.306 55.500 196.386L55.860 196.386C59.820 196.386 63.900 194.346 63.900 190.826L63.900 190.546C63.860 189.986 63.780 189.426 63.540 188.906C63.380 188.506 63.100 188.106 62.780 187.746C62.540 187.426 62.220 187.146 61.820 186.906L60.980 186.426L59.660 186.066C59.460 186.026 59.340 186.026 59.260 185.866C59.220 185.786 59.220 185.746 59.220 185.666C59.220 185.506 59.260 185.346 59.380 185.306C59.820 185.186 60.260 185.146 60.620 184.946C61.220 184.666 61.740 184.386 62.180 183.866C62.820 183.146 63.060 182.226 63.060 181.306C63.060 177.626 58.060 176.546 56.380 176.426Z"></path></g><path d="M75.380 185.786C75.380 185.786 71.780 185.786 71.620 185.786C71.460 185.786 71.340 185.626 71.340 185.426C71.340 185.186 71.340 181.746 71.340 181.746C71.340 181.586 71.220 181.466 71.060 181.466L70.100 181.466C69.940 181.466 69.820 181.586 69.820 181.746C69.820 181.746 69.820 185.226 69.820 185.426C69.820 185.626 69.660 185.786 69.500 185.786C69.380 185.786 65.780 185.786 65.780 185.786C65.620 185.786 65.460 185.906 65.460 186.066L65.460 187.026C65.460 187.186 65.620 187.306 65.780 187.306C65.780 187.306 69.300 187.306 69.500 187.306C69.740 187.306 69.820 187.506 69.820 187.626C69.820 187.706 69.820 191.346 69.820 191.346C69.820 191.506 69.940 191.666 70.100 191.666L71.060 191.666C71.220 191.666 71.340 191.506 71.340 191.346C71.340 191.346 71.340 187.866 71.340 187.666C71.340 187.426 71.500 187.306 71.660 187.306C71.780 187.306 75.380 187.306 75.380 187.306C75.540 187.306 75.660 187.186 75.660 187.026L75.660 186.066C75.660 185.906 75.540 185.786 75.380 185.786Z"></path><g><path d="M92.860 189.986C92.860 189.506 92.660 189.426 92.380 189.426C92.060 189.426 91.940 189.586 91.860 189.826C91.860 189.866 91.820 189.906 91.820 189.946C91.420 190.906 91.100 191.666 90.260 191.666C90.060 191.666 89.860 191.626 89.580 191.546C89.060 191.346 88.780 191.306 88.380 191.106C87.580 190.786 85.700 190.146 84.060 190.146C83.540 190.146 83.020 190.226 82.580 190.386C83.460 188.946 86.860 187.746 87.740 187.506C88.340 187.346 90.020 187.026 91.340 185.946C92.300 185.186 93.060 184.026 93.060 182.266C93.060 180.386 92.260 179.026 91.220 178.146C89.180 176.426 86.060 176.186 85.180 176.186C84.100 176.186 82.740 176.226 81.700 176.466C80.300 176.746 78.900 177.586 77.940 178.706C77.260 179.546 76.820 180.546 76.820 181.626C76.820 182.186 76.940 182.746 77.180 183.346C77.780 184.586 79.020 185.546 80.460 185.546C82.900 185.546 83.260 183.026 83.260 182.026C83.260 179.626 80.500 179.506 80.500 178.706C80.580 178.146 81.300 177.186 83.660 177.186C87.220 177.186 87.260 179.866 87.260 181.026C87.260 182.546 86.780 183.946 85.900 185.106C84.460 187.026 83.340 187.986 81.380 189.186C79.180 190.586 77.620 192.546 76.940 195.066C76.940 195.146 76.900 195.226 76.900 195.306C76.900 195.746 77.180 196.266 77.620 196.546C77.740 196.626 77.860 196.626 77.940 196.626C78.820 196.626 79.300 194.186 81.660 194.186C83.260 194.186 83.860 196.346 87.420 196.346C89.140 196.346 92.220 196.186 92.860 189.986Z"></path></g><g><path d="M74.820 204.906C76.260 203.986 77.220 202.666 77.220 200.666C77.220 196.586 71.340 195.986 70.260 195.986C65.620 195.986 62.460 198.106 62.460 201.466C62.460 204.226 64.020 205.706 65.940 206.786C63.860 207.786 62.260 209.106 62.260 211.626C62.260 215.106 65.860 216.706 69.820 216.706C73.820 216.706 78.100 214.986 78.100 209.586C78.100 207.186 76.700 205.866 74.820 204.906ZM69.660 215.386C66.980 215.386 64.540 214.026 64.540 211.426C64.540 209.826 65.940 208.346 67.700 207.666C70.620 208.946 73.580 209.786 73.580 212.426C73.580 214.026 72.340 215.386 69.660 215.386ZM72.740 203.986C69.540 202.866 66.140 202.186 66.140 199.666C66.140 197.986 68.420 197.146 70.180 197.146C71.460 197.146 74.860 197.786 74.860 200.586C74.860 202.186 74.060 203.226 72.740 203.986Z"></path></g><path d="M113.900 194.866C113.900 194.866 106.780 194.866 106.500 194.866C106.180 194.866 105.980 194.546 105.980 194.146C105.980 193.706 105.980 186.906 105.980 186.906C105.980 186.626 105.740 186.346 105.380 186.346L103.540 186.346C103.180 186.346 102.980 186.626 102.980 186.906C102.980 186.906 102.980 193.746 102.980 194.146C102.980 194.506 102.620 194.866 102.380 194.866C102.140 194.866 95.020 194.866 95.020 194.866C94.740 194.866 94.460 195.066 94.460 195.426L94.460 197.266C94.460 197.626 94.740 197.866 95.020 197.866C95.020 197.866 101.980 197.866 102.380 197.866C102.780 197.866 102.980 198.226 102.980 198.426C102.980 198.586 102.980 205.786 102.980 205.786C102.980 206.066 103.180 206.346 103.540 206.346L105.380 206.346C105.740 206.346 105.980 206.066 105.980 205.786C105.980 205.786 105.980 198.946 105.980 198.506C105.980 198.106 106.260 197.866 106.540 197.866C106.780 197.866 113.900 197.866 113.900 197.866C114.180 197.866 114.460 197.626 114.460 197.266L114.460 195.426C114.460 195.066 114.180 194.866 113.900 194.866Z"></path><g><path d="M124.380 176.426C124.180 176.426 123.980 176.386 123.780 176.386C120.340 176.386 116.900 178.666 116.900 180.786C116.900 182.106 117.660 183.866 120.140 184.026L120.340 184.026C122.100 184.026 122.980 182.746 122.980 181.426L122.980 181.106C122.860 179.626 121.860 179.546 121.660 179.466C121.460 179.386 120.860 179.466 120.860 178.906L120.860 178.746C120.940 178.066 122.180 177.746 122.540 177.746C125.940 177.746 126.260 179.866 126.260 180.826L126.260 181.106C126.260 184.066 123.900 185.226 121.380 185.346C120.980 185.386 120.420 185.586 120.420 186.026C120.420 186.506 121.100 186.506 121.420 186.506C126.020 186.506 126.380 189.626 126.380 190.146C126.380 194.386 124.220 194.866 123.340 194.866C123.180 194.866 123.020 194.826 122.980 194.826C122.660 194.786 121.900 194.786 121.860 194.186L121.860 193.986C121.860 193.106 122.740 192.506 122.780 191.346C122.780 190.946 122.740 190.506 122.580 190.106C122.140 189.106 120.980 188.466 119.900 188.466C119.740 188.466 119.620 188.466 119.460 188.506C118.780 188.626 118.020 189.026 117.540 189.546C116.860 190.146 116.660 191.106 116.660 191.986C116.740 195.106 119.580 196.306 123.500 196.386L123.860 196.386C127.820 196.386 131.900 194.346 131.900 190.826L131.900 190.546C131.860 189.986 131.780 189.426 131.540 188.906C131.380 188.506 131.100 188.106 130.780 187.746C130.540 187.426 130.220 187.146 129.820 186.906L128.980 186.426L127.660 186.066C127.460 186.026 127.340 186.026 127.260 185.866C127.220 185.786 127.220 185.746 127.220 185.666C127.220 185.506 127.260 185.346 127.380 185.306C127.820 185.186 128.260 185.146 128.620 184.946C129.220 184.666 129.740 184.386 130.180 183.866C130.820 183.146 131.060 182.226 131.060 181.306C131.060 177.626 126.060 176.546 124.380 176.426Z"></path></g><g><path d="M133.180 209.306L130.260 209.306L130.260 200.746C130.260 200.426 130.220 200.066 129.780 200.066C129.420 200.066 129.220 200.146 128.980 200.426L125.180 205.026C125.020 205.226 124.820 205.466 124.820 205.946C124.820 205.946 124.820 207.546 124.820 209.306L119.420 209.306C122.620 206.586 129.020 197.506 129.140 197.066C129.140 196.986 129.180 196.946 129.180 196.866C129.180 196.546 128.900 196.306 128.580 196.306C128.220 196.306 126.580 196.386 125.860 196.386C125.140 196.386 123.340 196.306 123.020 196.306C122.660 196.306 122.100 196.426 122.100 197.066C122.100 202.026 118.180 207.586 116.980 209.266L116.740 209.586C116.740 209.626 116.700 209.666 116.700 209.706C116.620 209.866 116.580 210.026 116.580 210.146C116.580 210.546 116.900 210.826 117.380 210.826L124.820 210.826L124.820 213.346C124.820 214.426 123.940 214.746 123.220 214.746C122.580 214.746 122.300 215.106 122.300 215.506C122.300 215.906 122.460 216.346 123.060 216.346C123.700 216.346 131.580 216.346 131.580 216.346C131.980 216.346 132.380 216.066 132.380 215.506C132.380 214.946 131.900 214.706 131.500 214.706C131.100 214.706 130.260 214.466 130.260 213.186L130.260 210.826C131.980 210.826 133.180 210.826 133.180 210.826C133.580 210.826 133.780 210.546 133.780 210.066C133.780 209.586 133.620 209.306 133.180 209.306Z"></path></g></g></g><g><line stroke="#000000" stroke-width="1.6" x1="696.2249822054819" x2="696.2249822054819" y1="176.3461538461538" y2="216.3461538461538"></line><line stroke="#000000" stroke-width="5" x1="703.5249822054819" x2="703.5249822054819" y1="176.3461538461538" y2="216.3461538461538"></line></g><g><g><path d="M161.360 201.986C165.360 201.986 170.280 198.266 170.280 194.466C170.280 192.186 168.480 190.706 165.880 190.706C160.960 190.706 157 194.346 157 198.226C157 200.586 158.920 201.986 161.360 201.986Z"></path></g><line stroke="#000000" stroke-width="1.2" x1="157.6" x2="157.6" y1="198.18615384615381" y2="232.18615384615381"></line><g><polygon fill="black" points="157.6,233.3461538461538 211.43074677750596,233.3461538461538 211.43074677750596,228.3461538461538 157.6,228.3461538461538" stroke="black" stroke-width="0"></polygon><polygon fill="black" points="211.43074677750596,233.3461538461538 265.26149355501195,233.3461538461538 265.26149355501195,228.3461538461538 211.43074677750596,228.3461538461538" stroke="black" stroke-width="0"></polygon></g></g><g><g><path d="M215.191 201.986C219.191 201.986 224.111 198.266 224.111 194.466C224.111 192.186 222.311 190.706 219.711 190.706C214.791 190.706 210.831 194.346 210.831 198.226C210.831 200.586 212.751 201.986 215.191 201.986Z"></path></g><line stroke="#000000" stroke-width="1.2" x1="211.43074677750596" x2="211.43074677750596" y1="198.18615384615381" y2="232.18615384615381"></line></g><g><g><path d="M269.021 201.986C273.021 201.986 277.941 198.266 277.941 194.466C277.941 192.186 276.141 190.706 273.541 190.706C268.621 190.706 264.661 194.346 264.661 198.226C264.661 200.586 266.581 201.986 269.021 201.986Z"></path></g><line stroke="#000000" stroke-width="1.2" x1="265.26149355501195" x2="265.26149355501195" y1="198.18615384615381" y2="232.18615384615381"></line></g><g><g><path d="M322.852 201.986C326.852 201.986 331.772 198.266 331.772 194.466C331.772 192.186 329.972 190.706 327.372 190.706C322.452 190.706 318.492 194.346 318.492 198.226C318.492 200.586 320.412 201.986 322.852 201.986Z"></path></g><line stroke="#000000" stroke-width="1.2" x1="319.0922403325179" x2="319.0922403325179" y1="198.18615384615381" y2="232.18615384615381"></line><g><polygon fill="black" points="319.0922403325179,233.3461538461538 372.9229871100239,233.3461538461538 372.9229871100239,228.3461538461538 319.0922403325179,228.3461538461538" stroke="black" stroke-width="0"></polygon></g></g><g><g><path d="M376.683 201.986C380.683 201.986 385.603 198.266 385.603 194.466C385.603 192.186 383.803 190.706 381.203 190.706C376.283 190.706 372.323 194.346 372.323 198.226C372.323 200.586 374.243 201.986 376.683 201.986Z"></path></g><line stroke="#000000" stroke-width="1.2" x1="372.9229871100239" x2="372.9229871100239" y1="198.18615384615381" y2="232.18615384615381"></line></g><g><g><path d="M430.514 201.986C434.514 201.986 439.434 198.266 439.434 194.466C439.434 192.186 437.634 190.706 435.034 190.706C430.114 190.706 426.154 194.346 426.154 198.226C426.154 200.586 428.074 201.986 430.514 201.986Z"></path></g><line stroke="#000000" stroke-width="1.2" x1="426.75373388752985" x2="426.75373388752985" y1="198.18615384615381" y2="233.18615384615381"></line></g><g><g><path d="M520.271 201.986C524.271 201.986 529.191 198.266 529.191 194.466C529.191 192.186 527.391 190.706 524.791 190.706C519.871 190.706 515.911 194.346 515.911 198.226C515.911 200.586 517.831 201.986 520.271 201.986Z"></path></g><line stroke="#000000" stroke-width="1.2" x1="516.5108166601806" x2="516.5108166601806" y1="198.18615384615381" y2="233.18615384615381"></line></g><g><g><path d="M610.028 201.986C614.028 201.986 618.948 198.266 618.948 194.466C618.948 192.186 617.148 190.706 614.548 190.706C609.628 190.706 605.668 194.346 605.668 198.226C605.668 200.586 607.588 201.986 610.028 201.986Z"></path></g><line stroke="#000000" stroke-width="1.2" x1="606.2678994328313" x2="606.2678994328313" y1="198.18615384615381" y2="233.18615384615381"></line></g></g></svg>