<?xml version="1.0" encoding="UTF-8" standalone="no"?><svg xmlns="http://www.w3.org/2000/svg" height="279.4mm" viewBox="0 0 1328.6153846153845 1719.3846153846152" width="215.9mm"><g transform="translate(163.84615384615387)"><g><g><line stroke="#6A6A6A" stroke-width="1.3" x1="0" x2="475.3935338012669" y1="216.3461538461538" y2="216.3461538461538"></line><line stroke="#6A6A6A" stroke-width="1.3" x1="0" x2="475.3935338012669" y1="206.3461538461538" y2="206.3461538461538"></line><line stroke="#6A6A6A" stroke-width="1.3" x1="0" x2="475.3935338012669" y1="196.3461538461538" y2="196.3461538461538"></line><line stroke="#6A6A6A" stroke-width="1.3" x1="0" x2="475.3935338012669" y1="186.3461538461538" y2="186.3461538461538"></line><line stroke="#6A6A6A" stroke-width="1.3" x1="0" x2="475.3935338012669" y1="176.3461538461538" y2="176.3461538461538"></line></g><g><path d="M25.200 162.426C24.640 162.426 23.400 163.466 22.600 164.346C19.640 167.626 18.680 172.626 18.680 176.786C18.680 179.106 18.960 181.706 19.240 183.346C19.320 183.826 19.360 183.906 18.880 184.306C16.320 186.426 13.560 188.866 11.480 191.426C8.720 194.866 7 198.586 7 202.866C7 209.826 11.760 216.426 21.560 216.426C22.480 216.426 23.520 216.346 24.320 216.186C24.760 216.106 24.840 216.066 24.920 216.546C25.400 219.226 26 222.706 26 224.586C26 230.506 22 231.226 19.640 231.226C17.480 231.226 16.440 230.586 16.440 230.066C16.440 229.626 16.800 229.666 17.720 229.386C18.960 229.026 20.400 227.946 20.400 225.626C20.400 223.426 19 221.546 16.560 221.546C13.880 221.546 12.280 223.666 12.280 226.146C12.280 228.746 13.840 232.666 19.880 232.666C22.560 232.666 27.760 231.466 27.760 224.666C27.760 222.386 27.040 218.586 26.600 216.106C26.520 215.626 26.560 215.666 27.120 215.426C31.160 213.826 33.840 210.426 33.840 205.906C33.840 200.786 30.080 196.266 24.200 196.266C23.080 196.266 23.200 196.466 23.040 195.546L22.040 189.746C21.960 189.266 22.040 189.226 22.280 188.986C22.920 188.386 23.760 187.546 24.520 186.706C27.880 183.026 29.880 178.266 29.880 173.746C29.880 170.266 28.920 166.826 27.280 164.426C26.680 163.546 25.640 162.426 25.200 162.426M20.040 190.586C20.440 190.266 20.520 190.306 20.600 190.746L21.440 195.866C21.560 196.626 21.560 196.586 20.840 196.826C17.320 198.026 15.040 201.186 15.040 204.586C15.040 208.186 16.920 210.746 19.640 211.666C19.960 211.786 20.440 211.906 20.720 211.906C21.040 211.906 21.200 211.706 21.200 211.466C21.200 211.186 20.880 211.066 20.600 210.946C18.920 210.226 17.720 208.506 17.720 206.666C17.720 204.386 19.280 202.666 21.720 201.986C22.360 201.826 22.440 201.866 22.520 202.306L24.520 214.226C24.600 214.666 24.560 214.666 23.960 214.786C23.320 214.906 22.520 214.986 21.720 214.986C14.720 214.986 10.200 211.106 10.200 205.546C10.200 203.186 10.600 200.026 13.920 196.266C16.320 193.586 18.160 192.106 20.040 190.586M24.640 201.666C27.880 201.946 30.560 204.666 30.560 208.186C30.560 210.706 29.040 212.746 26.800 213.866C26.320 214.106 26.240 214.106 26.160 213.626L24.200 202.226C24.120 201.746 24.160 201.626 24.640 201.666M25.800 168.626C27.120 168.626 28.200 169.706 28.200 171.906C28.200 174.666 26.880 177.226 23.760 180.346C23.120 180.986 22.160 181.906 21.240 182.706C20.960 182.946 20.800 182.906 20.720 182.386C20.560 181.346 20.480 179.986 20.480 178.706C20.480 172.466 23.360 168.626 25.800 168.626"></path></g><g></g><g><path d="M-13.200 296.926C-12.040 296.206-10.720 293.366-10.720 291.006C-10.720 290.806-10.720 290.566-10.760 290.366C-11.040 287.966-12.240 284.246-12.240 282.086C-12.240 280.006-11.320 278.006-11.120 277.646C-10.960 277.486-10.920 277.366-10.920 277.246C-10.920 277.166-10.960 277.086-11 277.086C-11.040 277.046-11.080 276.966-11.160 276.966C-11.240 276.966-11.320 277.046-11.480 277.246C-12.360 278.326-13.440 280.646-13.440 284.646C-13.440 288.606-12.040 290.206-12.040 292.726C-12.040 294.606-12.800 295.646-13.920 296.926C-13.200 297.726-12.040 298.366-12.040 300.966C-12.040 303.766-13.440 306.246-13.440 309.166C-13.440 313.166-12.360 315.486-11.480 316.606C-11.320 316.806-11.240 316.846-11.160 316.846C-11.080 316.846-11.040 316.806-11 316.766C-10.960 316.726-10.920 316.686-10.920 316.606C-10.920 316.486-10.960 316.366-11.120 316.166C-11.320 315.846-12.240 313.846-12.240 311.726C-12.240 309.606-11.040 305.846-10.760 303.486C-10.720 303.286-10.720 303.086-10.720 302.846C-10.720 300.486-12.040 297.646-13.200 296.926"></path><line stroke="#000000" stroke-width="1.6" x1="0" x2="0" y1="175.8461538461538" y2="316.8461538461538"></line></g></g><g><line stroke="#000000" stroke-width="1.6" x1="465.593533801267" x2="465.593533801267" y1="175.8461538461538" y2="316.8461538461538"></line><line stroke="#000000" stroke-width="5" x1="472.893533801267" x2="472.893533801267" y1="175.8461538461538" y2="316.8461538461538"></line></g><g><g><line stroke="#6A6A6A" stroke-width="1.3" x1="0" x2="475.3935338012669" y1="316.3461538461538" y2="316.3461538461538"></line><line stroke="#6A6A6A" stroke-width="1.3" x1="0" x2="475.3935338012669" y1="306.3461538461538" y2="306.3461538461538"></line><line stroke="#6A6A6A" stroke-width="1.3" x1="0" x2="475.3935338012669" y1="296.3461538461538" y2="296.3461538461538"></line><line stroke="#6A6A6A" stroke-width="1.3" x1="0" x2="475.3935338012669" y1="286.3461538461538" y2="286.3461538461538"></line><line stroke="#6A6A6A" stroke-width="1.3" x1="0" x2="475.3935338012669" y1="276.3461538461538" y2="276.3461538461538"></line></g><g><path d="M25.200 262.426C24.640 262.426 23.400 263.466 22.600 264.346C19.640 267.626 18.680 272.626 18.680 276.786C18.680 279.106 18.960 281.706 19.240 283.346C19.320 283.826 19.360 283.906 18.880 284.306C16.320 286.426 13.560 288.866 11.480 291.426C8.720 294.866 7 298.586 7 302.866C7 309.826 11.760 316.426 21.560 316.426C22.480 316.426 23.520 316.346 24.320 316.186C24.760 316.106 24.840 316.066 24.920 316.546C25.400 319.226 26 322.706 26 324.586C26 330.506 22 331.226 19.640 331.226C17.480 331.226 16.440 330.586 16.440 330.066C16.440 329.626 16.800 329.666 17.720 329.386C18.960 329.026 20.400 327.946 20.400 325.626C20.400 323.426 19 321.546 16.560 321.546C13.880 321.546 12.280 323.666 12.280 326.146C12.280 328.746 13.840 332.666 19.880 332.666C22.560 332.666 27.760 331.466 27.760 324.666C27.760 322.386 27.040 318.586 26.600 316.106C26.520 315.626 26.560 315.666 27.120 315.426C31.160 313.826 33.840 310.426 33.840 305.906C33.840 300.786 30.080 296.266 24.200 296.266C23.080 296.266 23.200 296.466 23.040 295.546L22.040 289.746C21.960 289.266 22.040 289.226 22.280 288.986C22.920 288.386 23.760 287.546 24.520 286.706C27.880 283.026 29.880 278.266 29.880 273.746C29.880 270.266 28.920 266.826 27.280 264.426C26.680 263.546 25.640 262.426 25.200 262.426M20.040 290.586C20.440 290.266 20.520 290.306 20.600 290.746L21.440 295.866C21.560 296.626 21.560 296.586 20.840 296.826C17.320 298.026 15.040 301.186 15.040 304.586C15.040 308.186 16.920 310.746 19.640 311.666C19.960 311.786 20.440 311.906 20.720 311.906C21.040 311.906 21.200 311.706 21.200 311.466C21.200 311.186 20.880 311.066 20.600 310.946C18.920 310.226 17.720 308.506 17.720 306.666C17.720 304.386 19.280 302.666 21.720 301.986C22.360 301.826 22.440 301.866 22.520 302.306L24.520 314.226C24.600 314.666 24.560 314.666 23.960 314.786C23.320 314.906 22.520 314.986 21.720 314.986C14.720 314.986 10.200 311.106 10.200 305.546C10.200 303.186 10.600 300.026 13.920 296.266C16.320 293.586 18.160 292.106 20.040 290.586M24.640 301.666C27.880 301.946 30.560 304.666 30.560 308.186C30.560 310.706 29.040 312.746 26.800 313.866C26.320 314.106 26.240 314.106 26.160 313.626L24.200 302.226C24.120 301.746 24.160 301.626 24.640 301.666M25.800 268.626C27.120 268.626 28.200 269.706 28.200 271.906C28.200 274.666 26.880 277.226 23.760 280.346C23.120 280.986 22.160 281.906 21.240 282.706C20.960 282.946 20.800 282.906 20.720 282.386C20.560 281.346 20.480 279.986 20.480 278.706C20.480 272.466 23.360 268.626 25.800 268.626"></path></g><g></g></g><g><line stroke="black" stroke-width="1.6" x1="465.593533801267" x2="465.593533801267" y1="175.8461538461538" y2="316.8461538461538"></line><line stroke="black" stroke-width="5" x1="472.893533801267" x2="472.893533801267" y1="175.8461538461538" y2="316.8461538461538"></line></g><g><g><path d="M52.860 191.986C56.860 191.986 61.780 188.266 61.780 184.466C61.780 182.186 59.980 180.706 57.380 180.706C52.460 180.706 48.500 184.346 48.500 188.226C48.500 190.586 50.420 191.986 52.860 191.986"></path></g><line stroke="#000000" stroke-width="1.2" x1="49.1" x2="49.1" y1="188.18615384615381" y2="223.18615384615381"></line></g><g><g><path d="M156.933 191.986C160.933 191.986 165.853 188.266 165.853 184.466C165.853 182.186 164.053 180.706 161.453 180.706C156.533 180.706 152.573 184.346 152.573 188.226C152.573 190.586 154.493 191.986 156.933 191.986"></path></g><line stroke="#000000" stroke-width="1.2" x1="153.17338345031672" x2="153.17338345031672" y1="188.18615384615381" y2="223.18615384615381"></line></g><g><g><path d="M261.007 191.986C265.007 191.986 269.927 188.266 269.927 184.466C269.927 182.186 268.127 180.706 265.527 180.706C260.607 180.706 256.647 184.346 256.647 188.226C256.647 190.586 258.567 191.986 261.007 191.986"></path></g><line stroke="#000000" stroke-width="1.2" x1="257.2467669006335" x2="257.2467669006335" y1="188.18615384615381" y2="223.18615384615381"></line></g><g><g><path d="M365.080 191.986C369.080 191.986 374 188.266 374 184.466C374 182.186 372.200 180.706 369.600 180.706C364.680 180.706 360.720 184.346 360.720 188.226C360.720 190.586 362.640 191.986 365.080 191.986"></path></g><line stroke="#000000" stroke-width="1.2" x1="361.32015035095026" x2="361.32015035095026" y1="188.18615384615381" y2="223.18615384615381"></line></g><g><g><path d="M52.860 216.986C56.860 216.986 61.780 213.266 61.780 209.466C61.780 207.186 59.980 205.706 57.380 205.706C52.460 205.706 48.500 209.346 48.500 213.226C48.500 215.586 50.420 216.986 52.860 216.986"></path></g><line stroke="#000000" stroke-width="1.2" x1="61.18" x2="61.18" y1="209.5061538461538" y2="174.5061538461538"></line></g><g><g><path d="M156.933 216.986C160.933 216.986 165.853 213.266 165.853 209.466C165.853 207.186 164.053 205.706 161.453 205.706C156.533 205.706 152.573 209.346 152.573 213.226C152.573 215.586 154.493 216.986 156.933 216.986"></path></g><line stroke="#000000" stroke-width="1.2" x1="165.25338345031673" x2="165.25338345031673" y1="209.5061538461538" y2="174.5061538461538"></line></g><g><g><path d="M261.007 216.986C265.007 216.986 269.927 213.266 269.927 209.466C269.927 207.186 268.127 205.706 265.527 205.706C260.607 205.706 256.647 209.346 256.647 213.226C256.647 215.586 258.567 216.986 261.007 216.986"></path></g><line stroke="#000000" stroke-width="1.2" x1="269.32676690063346" x2="269.32676690063346" y1="209.5061538461538" y2="174.5061538461538"></line></g><g><g><path d="M365.080 216.986C369.080 216.986 374 213.266 374 209.466C374 207.186 372.200 205.706 369.600 205.706C364.680 205.706 360.720 209.346 360.720 213.226C360.720 215.586 362.640 216.986 365.080 216.986"></path></g><line stroke="#000000" stroke-width="1.2" x1="373.40015035095024" x2="373.40015035095024" y1="209.5061538461538" y2="174.5061538461538"></line></g><g><g><path d="M52.860 361.986C56.860 361.986 61.780 358.266 61.780 354.466C61.780 352.186 59.980 350.706 57.380 350.706C52.460 350.706 48.500 354.346 48.500 358.226C48.500 360.586 50.420 361.986 52.860 361.986"></path></g><line stroke="#000000" stroke-width="1.2" x1="61.18" x2="61.18" y1="354.50615384615384" y2="294.50615384615384"></line><line stroke="#000000" stroke-width="2.2" x1="45.3" x2="67.22" y1="326.3461538461538" y2="326.3461538461538"></line><line stroke="#000000" stroke-width="2.2" x1="45.3" x2="67.22" y1="336.3461538461538" y2="336.3461538461538"></line><line stroke="#000000" stroke-width="2.2" x1="45.3" x2="67.22" y1="346.3461538461538" y2="346.3461538461538"></line><line stroke="#000000" stroke-width="2.2" x1="45.3" x2="67.22" y1="356.3461538461538" y2="356.3461538461538"></line></g><g><g><path d="M156.933 361.986C160.933 361.986 165.853 358.266 165.853 354.466C165.853 352.186 164.053 350.706 161.453 350.706C156.533 350.706 152.573 354.346 152.573 358.226C152.573 360.586 154.493 361.986 156.933 361.986"></path></g><line stroke="#000000" stroke-width="1.2" x1="165.25338345031673" x2="165.25338345031673" y1="354.50615384615384" y2="294.50615384615384"></line><line stroke="#000000" stroke-width="2.2" x1="149.37338345031674" x2="171.29338345031672" y1="326.3461538461538" y2="326.3461538461538"></line><line stroke="#000000" stroke-width="2.2" x1="149.37338345031674" x2="171.29338345031672" y1="336.3461538461538" y2="336.3461538461538"></line><line stroke="#000000" stroke-width="2.2" x1="149.37338345031674" x2="171.29338345031672" y1="346.3461538461538" y2="346.3461538461538"></line><line stroke="#000000" stroke-width="2.2" x1="149.37338345031674" x2="171.29338345031672" y1="356.3461538461538" y2="356.3461538461538"></line></g><g><g><path d="M261.007 361.986C265.007 361.986 269.927 358.266 269.927 354.466C269.927 352.186 268.127 350.706 265.527 350.706C260.607 350.706 256.647 354.346 256.647 358.226C256.647 360.586 258.567 361.986 261.007 361.986"></path></g><line stroke="#000000" stroke-width="1.2" x1="269.32676690063346" x2="269.32676690063346" y1="354.50615384615384" y2="294.50615384615384"></line><line stroke="#000000" stroke-width="2.2" x1="253.44676690063346" x2="275.3667669006335" y1="326.3461538461538" y2="326.3461538461538"></line><line stroke="#000000" stroke-width="2.2" x1="253.44676690063346" x2="275.3667669006335" y1="336.3461538461538" y2="336.3461538461538"></line><line stroke="#000000" stroke-width="2.2" x1="253.44676690063346" x2="275.3667669006335" y1="346.3461538461538" y2="346.3461538461538"></line><line stroke="#000000" stroke-width="2.2" x1="253.44676690063346" x2="275.3667669006335" y1="356.3461538461538" y2="356.3461538461538"></line></g><g><g><path d="M365.080 361.986C369.080 361.986 374 358.266 374 354.466C374 352.186 372.200 350.706 369.600 350.706C364.680 350.706 360.720 354.346 360.720 358.226C360.720 360.586 362.640 361.986 365.080 361.986"></path></g><line stroke="#000000" stroke-width="1.2" x1="373.40015035095024" x2="373.40015035095024" y1="354.50615384615384" y2="294.50615384615384"></line><line stroke="#000000" stroke-width="2.2" x1="357.52015035095025" x2="379.44015035095026" y1="326.3461538461538" y2="326.3461538461538"></line><line stroke="#000000" stroke-width="2.2" x1="357.52015035095025" x2="379.44015035095026" y1="336.3461538461538" y2="336.3461538461538"></line><line stroke="#000000" stroke-width="2.2" x1="357.52015035095025" x2="379.44015035095026" y1="346.3461538461538" y2="346.3461538461538"></line><line stroke="#000000" stroke-width="2.2" x1="357.52015035095025" x2="379.44015035095026" y1="356.3461538461538" y2="356.3461538461538"></line></g><g><g><path d="M52.860 371.986C56.860 371.986 61.780 368.266 61.780 364.466C61.780 362.186 59.980 360.706 57.380 360.706C52.460 360.706 48.500 364.346 48.500 368.226C48.500 370.586 50.420 371.986 52.860 371.986"></path></g><line stroke="#000000" stroke-width="1.2" x1="61.18" x2="61.18" y1="364.50615384615384" y2="294.50615384615384"></line><line stroke="#000000" stroke-width="2.2" x1="45.3" x2="67.22" y1="326.3461538461538" y2="326.3461538461538"></line><line stroke="#000000" stroke-width="2.2" x1="45.3" x2="67.22" y1="336.3461538461538" y2="336.3461538461538"></line><line stroke="#000000" stroke-width="2.2" x1="45.3" x2="67.22" y1="346.3461538461538" y2="346.3461538461538"></line><line stroke="#000000" stroke-width="2.2" x1="45.3" x2="67.22" y1="356.3461538461538" y2="356.3461538461538"></line><line stroke="#000000" stroke-width="2.2" x1="45.3" x2="67.22" y1="366.3461538461538" y2="366.3461538461538"></line></g><g><g><path d="M156.933 371.986C160.933 371.986 165.853 368.266 165.853 364.466C165.853 362.186 164.053 360.706 161.453 360.706C156.533 360.706 152.573 364.346 152.573 368.226C152.573 370.586 154.493 371.986 156.933 371.986"></path></g><line stroke="#000000" stroke-width="1.2" x1="165.25338345031673" x2="165.25338345031673" y1="364.50615384615384" y2="294.50615384615384"></line><line stroke="#000000" stroke-width="2.2" x1="149.37338345031674" x2="171.29338345031672" y1="326.3461538461538" y2="326.3461538461538"></line><line stroke="#000000" stroke-width="2.2" x1="149.37338345031674" x2="171.29338345031672" y1="336.3461538461538" y2="336.3461538461538"></line><line stroke="#000000" stroke-width="2.2" x1="149.37338345031674" x2="171.29338345031672" y1="346.3461538461538" y2="346.3461538461538"></line><line stroke="#000000" stroke-width="2.2" x1="149.37338345031674" x2="171.29338345031672" y1="356.3461538461538" y2="356.3461538461538"></line><line stroke="#000000" stroke-width="2.2" x1="149.37338345031674" x2="171.29338345031672" y1="366.3461538461538" y2="366.3461538461538"></line></g><g><g><path d="M261.007 371.986C265.007 371.986 269.927 368.266 269.927 364.466C269.927 362.186 268.127 360.706 265.527 360.706C260.607 360.706 256.647 364.346 256.647 368.226C256.647 370.586 258.567 371.986 261.007 371.986"></path></g><line stroke="#000000" stroke-width="1.2" x1="269.32676690063346" x2="269.32676690063346" y1="364.50615384615384" y2="294.50615384615384"></line><line stroke="#000000" stroke-width="2.2" x1="253.44676690063346" x2="275.3667669006335" y1="326.3461538461538" y2="326.3461538461538"></line><line stroke="#000000" stroke-width="2.2" x1="253.44676690063346" x2="275.3667669006335" y1="336.3461538461538" y2="336.3461538461538"></line><line stroke="#000000" stroke-width="2.2" x1="253.44676690063346" x2="275.3667669006335" y1="346.3461538461538" y2="346.3461538461538"></line><line stroke="#000000" stroke-width="2.2" x1="253.44676690063346" x2="275.3667669006335" y1="356.3461538461538" y2="356.3461538461538"></line><line stroke="#000000" stroke-width="2.2" x1="253.44676690063346" x2="275.3667669006335" y1="366.3461538461538" y2="366.3461538461538"></line></g><g><g><path d="M365.080 371.986C369.080 371.986 374 368.266 374 364.466C374 362.186 372.200 360.706 369.600 360.706C364.680 360.706 360.720 364.346 360.720 368.226C360.720 370.586 362.640 371.986 365.080 371.986"></path></g><line stroke="#000000" stroke-width="1.2" x1="373.40015035095024" x2="373.40015035095024" y1="364.50615384615384" y2="294.50615384615384"></line><line stroke="#000000" stroke-width="2.2" x1="357.52015035095025" x2="379.44015035095026" y1="326.3461538461538" y2="326.3461538461538"></line><line stroke="#000000" stroke-width="2.2" x1="357.52015035095025" x2="379.44015035095026" y1="336.3461538461538" y2="336.3461538461538"></line><line stroke="#000000" stroke-width="2.2" x1="357.52015035095025" x2="379.44015035095026" y1="346.3461538461538" y2="346.3461538461538"></line><line stroke="#000000" stroke-width="2.2" x1="357.52015035095025" x2="379.44015035095026" y1="356.3461538461538" y2="356.3461538461538"></line><line stroke="#000000" stroke-width="2.2" x1="357.52015035095025" x2="379.44015035095026" y1="366.3461538461538" y2="366.3461538461538"></line></g></g></svg>