<?xml version="1.0" encoding="UTF-8" standalone="no"?><svg xmlns="http://www.w3.org/2000/svg" height="279.4mm" viewBox="0 0 1328.6153846153845 1719.3846153846152" width="215.9mm"><g transform="translate(163.84615384615387)"><g><g><line stroke="#6A6A6A" stroke-width="1.3" x1="0" x2="312.1371033623449" y1="216.3461538461538" y2="216.3461538461538"></line><line stroke="#6A6A6A" stroke-width="1.3" x1="0" x2="312.1371033623449" y1="206.3461538461538" y2="206.3461538461538"></line><line stroke="#6A6A6A" stroke-width="1.3" x1="0" x2="312.1371033623449" y1="196.3461538461538" y2="196.3461538461538"></line><line stroke="#6A6A6A" stroke-width="1.3" x1="0" x2="312.1371033623449" y1="186.3461538461538" y2="186.3461538461538"></line><line stroke="#6A6A6A" stroke-width="1.3" x1="0" x2="312.1371033623449" y1="176.3461538461538" y2="176.3461538461538"></line></g><g><path d="M25.200 162.426C24.640 162.426 23.400 163.466 22.600 164.346C19.640 167.626 18.680 172.626 18.680 176.786C18.680 179.106 18.960 181.706 19.240 183.346C19.320 183.826 19.360 183.906 18.880 184.306C16.320 186.426 13.560 188.866 11.480 191.426C8.720 194.866 7 198.586 7 202.866C7 209.826 11.760 216.426 21.560 216.426C22.480 216.426 23.520 216.346 24.320 216.186C24.760 216.106 24.840 216.066 24.920 216.546C25.400 219.226 26 222.706 26 224.586C26 230.506 22 231.226 19.640 231.226C17.480 231.226 16.440 230.586 16.440 230.066C16.440 229.626 16.800 229.666 17.720 229.386C18.960 229.026 20.400 227.946 20.400 225.626C20.400 223.426 19 221.546 16.560 221.546C13.880 221.546 12.280 223.666 12.280 226.146C12.280 228.746 13.840 232.666 19.880 232.666C22.560 232.666 27.760 231.466 27.760 224.666C27.760 222.386 27.040 218.586 26.600 216.106C26.520 215.626 26.560 215.666 27.120 215.426C31.160 213.826 33.840 210.426 33.840 205.906C33.840 200.786 30.080 196.266 24.200 196.266C23.080 196.266 23.200 196.466 23.040 195.546L22.040 189.746C21.960 189.266 22.040 189.226 22.280 188.986C22.920 188.386 23.760 187.546 24.520 186.706C27.880 183.026 29.880 178.266 29.880 173.746C29.880 170.266 28.920 166.826 27.280 164.426C26.680 163.546 25.640 162.426 25.200 162.426M20.040 190.586C20.440 190.266 20.520 190.306 20.600 190.746L21.440 195.866C21.560 196.626 21.560 196.586 20.840 196.826C17.320 198.026 15.040 201.186 15.040 204.586C15.040 208.186 16.920 210.746 19.640 211.666C19.960 211.786 20.440 211.906 20.720 211.906C21.040 211.906 21.200 211.706 21.200 211.466C21.200 211.186 20.880 211.066 20.600 210.946C18.920 210.226 17.720 208.506 17.720 206.666C17.720 204.386 19.280 202.666 21.720 201.986C22.360 201.826 22.440 201.866 22.520 202.306L24.520 214.226C24.600 214.666 24.560 214.666 23.960 214.786C23.320 214.906 22.520 214.986 21.720 214.986C14.720 214.986 10.200 211.106 10.200 205.546C10.200 203.186 10.600 200.026 13.920 196.266C16.320 193.586 18.160 192.106 20.040 190.586M24.640 201.666C27.880 201.946 30.560 204.666 30.560 208.186C30.560 210.706 29.040 212.746 26.800 213.866C26.320 214.106 26.240 214.106 26.160 213.626L24.200 202.226C24.120 201.746 24.160 201.626 24.640 201.666M25.800 168.626C27.120 168.626 28.200 169.706 28.200 171.906C28.200 174.666 26.880 177.226 23.760 180.346C23.120 180.986 22.160 181.906 21.240 182.706C20.960 182.946 20.800 182.906 20.720 182.386C20.560 181.346 20.480 179.986 20.480 178.706C20.480 172.466 23.360 168.626 25.800 168.626"></path></g><g></g><path d="M57.820 186.306C56.620 186.306 55.220 186.626 54.140 187.106C50.580 188.666 48.700 192.946 48.700 196.746C48.700 197.106 48.700 197.466 48.740 197.826C48.940 199.986 49.980 202.026 51.300 203.626C52.820 205.466 55.020 206.306 57.420 206.306C64.420 206.306 65.460 199.946 65.460 198.786C65.460 197.906 65.020 197.906 64.860 197.906C64.540 197.906 64.260 197.946 64.260 198.626C64.260 203.786 59.860 204.986 58.580 204.986C55.340 204.986 53.620 201.826 53.620 195.226C53.620 188.626 56.660 187.266 58.820 187.266C60.900 187.266 61.740 188.226 61.740 188.626C61.740 188.986 61.620 189.506 61.020 189.506C59.420 189.506 58.500 191.226 58.500 192.466C58.500 194.746 60.460 195.466 61.580 195.466C61.580 195.466 64.620 195.346 64.620 192.026C64.620 186.786 58.580 186.306 57.820 186.306"></path></g><g><line stroke="black" stroke-width="1.6" x1="312.9371033623449" x2="312.9371033623449" y1="176.3461538461538" y2="216.3461538461538"></line></g><g><g><path d="M93.360 211.986C97.360 211.986 102.280 208.266 102.280 204.466C102.280 202.186 100.480 200.706 97.880 200.706C92.960 200.706 89 204.346 89 208.226C89 210.586 90.920 211.986 93.360 211.986"></path></g><line stroke="#000000" stroke-width="1.2" x1="101.68" x2="101.68" y1="204.5061538461538" y2="169.5061538461538"></line><text font-family="Alegreya" font-size="22" text-anchor="middle" x="95.64" y="256.3461538461538">Ly</text></g><g><g><path d="M145.823 191.986C149.823 191.986 154.743 188.266 154.743 184.466C154.743 182.186 152.943 180.706 150.343 180.706C145.423 180.706 141.463 184.346 141.463 188.226C141.463 190.586 143.383 191.986 145.823 191.986"></path></g><line stroke="#000000" stroke-width="1.2" x1="142.0625549169626" x2="142.0625549169626" y1="188.18615384615381" y2="214.43615384615381"></line><path d="M151.063 182.556C151.623 184.236 151.903 186.236 151.903 188.036C151.903 190.396 150.903 193.756 150.303 195.116C148.823 198.476 146.823 201.716 141.463 203.516L141.463 212.916C141.463 213.396 141.663 213.516 141.903 213.516C142.663 213.516 142.983 213.276 143.063 212.636C143.743 208.836 146.703 205.356 148.743 202.196C151.263 198.236 153.703 193.476 153.703 188.476C153.703 185.356 152.903 182.516 152.583 181.236C152.263 179.956 150.463 180.836 151.063 182.556"></path></g><g><g><path d="M157.223 191.986C161.223 191.986 166.143 188.266 166.143 184.466C166.143 182.186 164.343 180.706 161.743 180.706C156.823 180.706 152.863 184.346 152.863 188.226C152.863 190.586 154.783 191.986 157.223 191.986"></path></g><line stroke="#000000" stroke-width="1.2" x1="153.4625549169626" x2="153.4625549169626" y1="188.18615384615381" y2="214.43615384615381"></line><path d="M162.463 182.556C163.023 184.236 163.303 186.236 163.303 188.036C163.303 190.396 162.303 193.756 161.703 195.116C160.223 198.476 158.223 201.716 152.863 203.516L152.863 212.916C152.863 213.396 153.063 213.516 153.303 213.516C154.063 213.516 154.383 213.276 154.463 212.636C155.143 208.836 158.103 205.356 160.143 202.196C162.663 198.236 165.103 193.476 165.103 188.476C165.103 185.356 164.303 182.516 163.983 181.236C163.663 179.956 161.863 180.836 162.463 182.556"></path></g><g><path d="M173.663 189.666C173.583 189.666 173.463 189.666 173.223 189.826C172.943 190.066 170.943 192.466 169.623 192.466L169.623 192.066C169.623 190.586 168.423 189.386 166.943 189.386C165.463 189.386 164.263 190.586 164.263 192.066C164.263 192.906 164.743 193.626 165.343 194.106C165.703 194.346 166.063 194.546 166.463 194.626C166.783 194.706 167.143 194.786 167.503 194.786C168.063 194.786 168.623 194.666 169.063 194.506C169.623 194.346 169.983 194.186 170.503 193.906C170.583 193.866 170.663 193.866 170.703 193.866C170.863 193.866 170.903 194.026 170.903 194.226C170.903 194.346 170.903 194.506 170.863 194.666C170.743 195.266 167.863 203.226 167.143 205.866C167.143 206.346 168.063 206.386 168.303 206.386C168.743 206.386 169.303 206.306 169.703 205.986C169.823 205.906 173.743 191.866 173.743 191.866C173.903 191.146 174.103 190.506 174.143 190.306C174.143 189.786 173.743 189.706 173.663 189.666"></path></g><g><path d="M205.467 189.666C205.387 189.666 205.267 189.666 205.027 189.826C204.747 190.066 202.747 192.466 201.427 192.466L201.427 192.066C201.427 190.586 200.227 189.386 198.747 189.386C197.267 189.386 196.067 190.586 196.067 192.066C196.067 192.906 196.547 193.626 197.147 194.106C197.507 194.346 197.867 194.546 198.267 194.626C198.587 194.706 198.947 194.786 199.307 194.786C199.867 194.786 200.427 194.666 200.867 194.506C201.427 194.346 201.787 194.186 202.307 193.906C202.387 193.866 202.467 193.866 202.507 193.866C202.667 193.866 202.707 194.026 202.707 194.226C202.707 194.346 202.707 194.506 202.667 194.666C202.547 195.266 199.667 203.226 198.947 205.866C198.947 206.346 199.867 206.386 200.107 206.386C200.547 206.386 201.107 206.306 201.507 205.986C201.627 205.906 205.547 191.866 205.547 191.866C205.707 191.146 205.907 190.506 205.947 190.306C205.947 189.786 205.547 189.706 205.467 189.666"></path></g><g><path d="M237.271 189.666C237.191 189.666 237.071 189.666 236.831 189.826C236.551 190.066 234.551 192.466 233.231 192.466L233.231 192.066C233.231 190.586 232.031 189.386 230.551 189.386C229.071 189.386 227.871 190.586 227.871 192.066C227.871 192.906 228.351 193.626 228.951 194.106C229.311 194.346 229.671 194.546 230.071 194.626C230.391 194.706 230.751 194.786 231.111 194.786C231.671 194.786 232.231 194.666 232.671 194.506C233.231 194.346 233.591 194.186 234.111 193.906C234.191 193.866 234.271 193.866 234.311 193.866C234.471 193.866 234.511 194.026 234.511 194.226C234.511 194.346 234.511 194.506 234.471 194.666C234.351 195.266 231.471 203.226 230.751 205.866C230.751 206.346 231.671 206.386 231.911 206.386C232.351 206.386 232.911 206.306 233.311 205.986C233.431 205.906 237.351 191.866 237.351 191.866C237.511 191.146 237.711 190.506 237.751 190.306C237.751 189.786 237.351 189.706 237.271 189.666"></path></g><g><g><path d="M264.035 196.986C268.035 196.986 272.955 193.266 272.955 189.466C272.955 187.186 271.155 185.706 268.555 185.706C263.635 185.706 259.675 189.346 259.675 193.226C259.675 195.586 261.595 196.986 264.035 196.986"></path></g><line stroke="#000000" stroke-width="1.2" x1="260.2745484453823" x2="260.2745484453823" y1="193.18615384615381" y2="228.18615384615381"></line><text font-family="Alegreya" font-size="22" text-anchor="middle" x="266.3145484453823" y="256.3461538461538">on</text></g></g><g transform="translate(492.58325720849876)"><g><g><line stroke="#6A6A6A" stroke-width="1.3" x1="-16.600000000000023" x2="245.13710336234487" y1="216.3461538461538" y2="216.3461538461538"></line><line stroke="#6A6A6A" stroke-width="1.3" x1="-16.600000000000023" x2="245.13710336234487" y1="206.3461538461538" y2="206.3461538461538"></line><line stroke="#6A6A6A" stroke-width="1.3" x1="-16.600000000000023" x2="245.13710336234487" y1="196.3461538461538" y2="196.3461538461538"></line><line stroke="#6A6A6A" stroke-width="1.3" x1="-16.600000000000023" x2="245.13710336234487" y1="186.3461538461538" y2="186.3461538461538"></line><line stroke="#6A6A6A" stroke-width="1.3" x1="-16.600000000000023" x2="245.13710336234487" y1="176.3461538461538" y2="176.3461538461538"></line></g></g><g><line stroke="#000000" stroke-width="1.6" x1="235.33710336234486" x2="235.33710336234486" y1="176.3461538461538" y2="216.3461538461538"></line><line stroke="#000000" stroke-width="5" x1="242.63710336234485" x2="242.63710336234485" y1="176.3461538461538" y2="216.3461538461538"></line></g><g><g><path d="M4.360 196.986C8.360 196.986 13.280 193.266 13.280 189.466C13.280 187.186 11.480 185.706 8.880 185.706C3.960 185.706 0 189.346 0 193.226C0 195.586 1.920 196.986 4.360 196.986"></path></g><line stroke="#000000" stroke-width="1.2" x1="0.6" x2="0.6" y1="193.18615384615381" y2="228.18615384615381"></line><text font-family="Alegreya" font-size="22" text-anchor="middle" x="6.640000000000001" y="256.3461538461538">notes</text></g><g><g><path d="M56.823 186.986C60.823 186.986 65.743 183.266 65.743 179.466C65.743 177.186 63.943 175.706 61.343 175.706C56.423 175.706 52.463 179.346 52.463 183.226C52.463 185.586 54.383 186.986 56.823 186.986"></path></g><line stroke="#000000" stroke-width="1.2" x1="53.062554916962604" x2="53.062554916962604" y1="183.18615384615381" y2="209.43615384615381"></line><path d="M62.063 177.556C62.623 179.236 62.903 181.236 62.903 183.036C62.903 185.396 61.903 188.756 61.303 190.116C59.823 193.476 57.823 196.716 52.463 198.516L52.463 207.916C52.463 208.396 52.663 208.516 52.903 208.516C53.663 208.516 53.983 208.276 54.063 207.636C54.743 203.836 57.703 200.356 59.743 197.196C62.263 193.236 64.703 188.476 64.703 183.476C64.703 180.356 63.903 177.516 63.583 176.236C63.263 174.956 61.463 175.836 62.063 177.556"></path></g><g><g><path d="M68.223 191.986C72.223 191.986 77.143 188.266 77.143 184.466C77.143 182.186 75.343 180.706 72.743 180.706C67.823 180.706 63.863 184.346 63.863 188.226C63.863 190.586 65.783 191.986 68.223 191.986"></path></g><line stroke="#000000" stroke-width="1.2" x1="64.4625549169626" x2="64.4625549169626" y1="188.18615384615381" y2="214.43615384615381"></line><path d="M73.463 182.556C74.023 184.236 74.303 186.236 74.303 188.036C74.303 190.396 73.303 193.756 72.703 195.116C71.223 198.476 69.223 201.716 63.863 203.516L63.863 212.916C63.863 213.396 64.063 213.516 64.303 213.516C65.063 213.516 65.383 213.276 65.463 212.636C66.143 208.836 69.103 205.356 71.143 202.196C73.663 198.236 76.103 193.476 76.103 188.476C76.103 185.356 75.303 182.516 74.983 181.236C74.663 179.956 72.863 180.836 73.463 182.556"></path></g><g><g><path d="M79.623 191.986C83.623 191.986 88.543 188.266 88.543 184.466C88.543 182.186 86.743 180.706 84.143 180.706C79.223 180.706 75.263 184.346 75.263 188.226C75.263 190.586 77.183 191.986 79.623 191.986"></path></g><line stroke="#000000" stroke-width="1.2" x1="75.8625549169626" x2="75.8625549169626" y1="188.18615384615381" y2="214.43615384615381"></line><path d="M84.863 182.556C85.423 184.236 85.703 186.236 85.703 188.036C85.703 190.396 84.703 193.756 84.103 195.116C82.623 198.476 80.623 201.716 75.263 203.516L75.263 212.916C75.263 213.396 75.463 213.516 75.703 213.516C76.463 213.516 76.783 213.276 76.863 212.636C77.543 208.836 80.503 205.356 82.543 202.196C85.063 198.236 87.503 193.476 87.503 188.476C87.503 185.356 86.703 182.516 86.383 181.236C86.063 179.956 84.263 180.836 84.863 182.556"></path></g><g><path d="M96.063 189.666C95.983 189.666 95.863 189.666 95.623 189.826C95.343 190.066 93.343 192.466 92.023 192.466L92.023 192.066C92.023 190.586 90.823 189.386 89.343 189.386C87.863 189.386 86.663 190.586 86.663 192.066C86.663 192.906 87.143 193.626 87.743 194.106C88.103 194.346 88.463 194.546 88.863 194.626C89.183 194.706 89.543 194.786 89.903 194.786C90.463 194.786 91.023 194.666 91.463 194.506C92.023 194.346 92.383 194.186 92.903 193.906C92.983 193.866 93.063 193.866 93.103 193.866C93.263 193.866 93.303 194.026 93.303 194.226C93.303 194.346 93.303 194.506 93.263 194.666C93.143 195.266 90.263 203.226 89.543 205.866C89.543 206.346 90.463 206.386 90.703 206.386C91.143 206.386 91.703 206.306 92.103 205.986C92.223 205.906 96.143 191.866 96.143 191.866C96.303 191.146 96.503 190.506 96.543 190.306C96.543 189.786 96.143 189.706 96.063 189.666"></path></g><g><path d="M127.867 189.666C127.787 189.666 127.667 189.666 127.427 189.826C127.147 190.066 125.147 192.466 123.827 192.466L123.827 192.066C123.827 190.586 122.627 189.386 121.147 189.386C119.667 189.386 118.467 190.586 118.467 192.066C118.467 192.906 118.947 193.626 119.547 194.106C119.907 194.346 120.267 194.546 120.667 194.626C120.987 194.706 121.347 194.786 121.707 194.786C122.267 194.786 122.827 194.666 123.267 194.506C123.827 194.346 124.187 194.186 124.707 193.906C124.787 193.866 124.867 193.866 124.907 193.866C125.067 193.866 125.107 194.026 125.107 194.226C125.107 194.346 125.107 194.506 125.067 194.666C124.947 195.266 122.067 203.226 121.347 205.866C121.347 206.346 122.267 206.386 122.507 206.386C122.947 206.386 123.507 206.306 123.907 205.986C124.027 205.906 127.947 191.866 127.947 191.866C128.107 191.146 128.307 190.506 128.347 190.306C128.347 189.786 127.947 189.706 127.867 189.666"></path></g><g><path d="M159.671 189.666C159.591 189.666 159.471 189.666 159.231 189.826C158.951 190.066 156.951 192.466 155.631 192.466L155.631 192.066C155.631 190.586 154.431 189.386 152.951 189.386C151.471 189.386 150.271 190.586 150.271 192.066C150.271 192.906 150.751 193.626 151.351 194.106C151.711 194.346 152.071 194.546 152.471 194.626C152.791 194.706 153.151 194.786 153.511 194.786C154.071 194.786 154.631 194.666 155.071 194.506C155.631 194.346 155.991 194.186 156.511 193.906C156.591 193.866 156.671 193.866 156.711 193.866C156.871 193.866 156.911 194.026 156.911 194.226C156.911 194.346 156.911 194.506 156.871 194.666C156.751 195.266 153.871 203.226 153.151 205.866C153.151 206.346 154.071 206.386 154.311 206.386C154.751 206.386 155.311 206.306 155.711 205.986C155.831 205.906 159.751 191.866 159.751 191.866C159.911 191.146 160.111 190.506 160.151 190.306C160.151 189.786 159.751 189.706 159.671 189.666"></path></g><g><g><path d="M186.435 196.986C190.435 196.986 195.355 193.266 195.355 189.466C195.355 187.186 193.555 185.706 190.955 185.706C186.035 185.706 182.075 189.346 182.075 193.226C182.075 195.586 183.995 196.986 186.435 196.986"></path></g><line stroke="#000000" stroke-width="1.2" x1="182.67454844538224" x2="182.67454844538224" y1="193.18615384615381" y2="228.18615384615381"></line><text font-family="Alegreya" font-size="22" text-anchor="middle" x="188.71454844538226" y="256.3461538461538">graces</text></g></g></svg>