<?xml version="1.0" encoding="UTF-8" standalone="no"?><svg xmlns="http://www.w3.org/2000/svg" height="279.4mm" viewBox="0 0 1328.6153846153845 1719.3846153846152" width="215.9mm"><g transform="translate(163.84615384615387)"><g><g><line stroke="#6A6A6A" stroke-width="1.3" x1="0" x2="312.3930192307692" y1="216.3461538461538" y2="216.3461538461538"></line><line stroke="#6A6A6A" stroke-width="1.3" x1="0" x2="312.3930192307692" y1="206.3461538461538" y2="206.3461538461538"></line><line stroke="#6A6A6A" stroke-width="1.3" x1="0" x2="312.3930192307692" y1="196.3461538461538" y2="196.3461538461538"></line><line stroke="#6A6A6A" stroke-width="1.3" x1="0" x2="312.3930192307692" y1="186.3461538461538" y2="186.3461538461538"></line><line stroke="#6A6A6A" stroke-width="1.3" x1="0" x2="312.3930192307692" y1="176.3461538461538" y2="176.3461538461538"></line></g><g><path d="M25.200 162.426C24.640 162.426 23.400 163.466 22.600 164.346C19.640 167.626 18.680 172.626 18.680 176.786C18.680 179.106 18.960 181.706 19.240 183.346C19.320 183.826 19.360 183.906 18.880 184.306C16.320 186.426 13.560 188.866 11.480 191.426C8.720 194.866 7 198.586 7 202.866C7 209.826 11.760 216.426 21.560 216.426C22.480 216.426 23.520 216.346 24.320 216.186C24.760 216.106 24.840 216.066 24.920 216.546C25.400 219.226 26 222.706 26 224.586C26 230.506 22 231.226 19.640 231.226C17.480 231.226 16.440 230.586 16.440 230.066C16.440 229.626 16.800 229.666 17.720 229.386C18.960 229.026 20.400 227.946 20.400 225.626C20.400 223.426 19 221.546 16.560 221.546C13.880 221.546 12.280 223.666 12.280 226.146C12.280 228.746 13.840 232.666 19.880 232.666C22.560 232.666 27.760 231.466 27.760 224.666C27.760 222.386 27.040 218.586 26.600 216.106C26.520 215.626 26.560 215.666 27.120 215.426C31.160 213.826 33.840 210.426 33.840 205.906C33.840 200.786 30.080 196.266 24.200 196.266C23.080 196.266 23.200 196.466 23.040 195.546L22.040 189.746C21.960 189.266 22.040 189.226 22.280 188.986C22.920 188.386 23.760 187.546 24.520 186.706C27.880 183.026 29.880 178.266 29.880 173.746C29.880 170.266 28.920 166.826 27.280 164.426C26.680 163.546 25.640 162.426 25.200 162.426M20.040 190.586C20.440 190.266 20.520 190.306 20.600 190.746L21.440 195.866C21.560 196.626 21.560 196.586 20.840 196.826C17.320 198.026 15.040 201.186 15.040 204.586C15.040 208.186 16.920 210.746 19.640 211.666C19.960 211.786 20.440 211.906 20.720 211.906C21.040 211.906 21.200 211.706 21.200 211.466C21.200 211.186 20.880 211.066 20.600 210.946C18.920 210.226 17.720 208.506 17.720 206.666C17.720 204.386 19.280 202.666 21.720 201.986C22.360 201.826 22.440 201.866 22.520 202.306L24.520 214.226C24.600 214.666 24.560 214.666 23.960 214.786C23.320 214.906 22.520 214.986 21.720 214.986C14.720 214.986 10.200 211.106 10.200 205.546C10.200 203.186 10.600 200.026 13.920 196.266C16.320 193.586 18.160 192.106 20.040 190.586M24.640 201.666C27.880 201.946 30.560 204.666 30.560 208.186C30.560 210.706 29.040 212.746 26.800 213.866C26.320 214.106 26.240 214.106 26.160 213.626L24.200 202.226C24.120 201.746 24.160 201.626 24.640 201.666M25.800 168.626C27.120 168.626 28.200 169.706 28.200 171.906C28.200 174.666 26.880 177.226 23.760 180.346C23.120 180.986 22.160 181.906 21.240 182.706C20.960 182.946 20.800 182.906 20.720 182.386C20.560 181.346 20.480 179.986 20.480 178.706C20.480 172.466 23.360 168.626 25.800 168.626"></path></g><g></g><path d="M57.820 186.306C56.620 186.306 55.220 186.626 54.140 187.106C50.580 188.666 48.700 192.946 48.700 196.746C48.700 197.106 48.700 197.466 48.740 197.826C48.940 199.986 49.980 202.026 51.300 203.626C52.820 205.466 55.020 206.306 57.420 206.306C64.420 206.306 65.460 199.946 65.460 198.786C65.460 197.906 65.020 197.906 64.860 197.906C64.540 197.906 64.260 197.946 64.260 198.626C64.260 203.786 59.860 204.986 58.580 204.986C55.340 204.986 53.620 201.826 53.620 195.226C53.620 188.626 56.660 187.266 58.820 187.266C60.900 187.266 61.740 188.226 61.740 188.626C61.740 188.986 61.620 189.506 61.020 189.506C59.420 189.506 58.500 191.226 58.500 192.466C58.500 194.746 60.460 195.466 61.580 195.466C61.580 195.466 64.620 195.346 64.620 192.026C64.620 186.786 58.580 186.306 57.820 186.306"></path></g><g><line stroke="black" stroke-width="1.6" x1="313.1930192307692" x2="313.1930192307692" y1="176.3461538461538" y2="216.3461538461538"></line></g><g><g><path d="M93.360 196.986C97.360 196.986 102.280 193.266 102.280 189.466C102.280 187.186 100.480 185.706 97.880 185.706C92.960 185.706 89 189.346 89 193.226C89 195.586 90.920 196.986 93.360 196.986"></path></g><line stroke="#000000" stroke-width="1.2" x1="89.6" x2="89.6" y1="193.18615384615381" y2="233.18615384615381"></line><g><polygon fill="black" points="89.6,234.3461538461538 117.52412740384614,234.3461538461538 117.52412740384614,229.3461538461538 89.6,229.3461538461538" stroke="black" stroke-width="0"></polygon><polygon fill="black" points="117.52412740384614,234.3461538461538 145.44825480769228,234.3461538461538 145.44825480769228,229.3461538461538 117.52412740384614,229.3461538461538" stroke="black" stroke-width="0"></polygon></g><text font-family="Alegreya" font-size="22" text-anchor="middle" x="95.64" y="256.3461538461538">Me</text></g><g><g><path d="M121.284 206.986C125.284 206.986 130.204 203.266 130.204 199.466C130.204 197.186 128.404 195.706 125.804 195.706C120.884 195.706 116.924 199.346 116.924 203.226C116.924 205.586 118.844 206.986 121.284 206.986"></path></g><line stroke="#000000" stroke-width="1.2" x1="117.52412740384614" x2="117.52412740384614" y1="203.18615384615381" y2="233.18615384615381"></line></g><g><g><path d="M149.208 196.986C153.208 196.986 158.128 193.266 158.128 189.466C158.128 187.186 156.328 185.706 153.728 185.706C148.808 185.706 144.848 189.346 144.848 193.226C144.848 195.586 146.768 196.986 149.208 196.986"></path></g><line stroke="#000000" stroke-width="1.2" x1="145.44825480769228" x2="145.44825480769228" y1="193.18615384615381" y2="233.18615384615381"></line></g><g><g><path d="M177.132 206.986C181.132 206.986 186.052 203.266 186.052 199.466C186.052 197.186 184.252 195.706 181.652 195.706C176.732 195.706 172.772 199.346 172.772 203.226C172.772 205.586 174.692 206.986 177.132 206.986"></path></g><line stroke="#000000" stroke-width="1.2" x1="185.45238221153846" x2="185.45238221153846" y1="199.5061538461538" y2="164.5061538461538"></line><path d="M194.372 197.586C194.372 197.586 195.412 193.786 195.412 190.666C195.412 185.666 193.332 180.946 190.812 176.946C188.772 173.786 187.092 170.346 186.452 166.506C186.332 165.866 186.012 165.626 185.252 165.626C185.012 165.626 184.852 165.746 184.852 166.226L184.852 175.786C187.492 176.266 191.292 181.706 192.732 185.106C193.332 186.466 193.692 188.746 193.692 191.106C193.692 192.906 193.412 194.786 192.732 196.586C192.652 196.826 192.612 197.026 192.612 197.186C192.612 197.826 193.012 198.186 193.252 198.346C193.492 198.506 194.172 198.266 194.372 197.586"></path><text font-family="Alegreya" font-size="22" text-anchor="middle" x="179.41238221153844" y="256.3461538461538">lis</text></g><g><g><path d="M205.057 196.986C209.057 196.986 213.977 193.266 213.977 189.466C213.977 187.186 212.177 185.706 209.577 185.706C204.657 185.706 200.697 189.346 200.697 193.226C200.697 195.586 202.617 196.986 205.057 196.986"></path></g><line stroke="#000000" stroke-width="1.2" x1="201.2965096153846" x2="201.2965096153846" y1="193.18615384615381" y2="238.18615384615381"></line><g><polygon fill="black" points="201.2965096153846,239.3461538461538 229.22063701923074,239.3461538461538 229.22063701923074,234.3461538461538 201.2965096153846,234.3461538461538" stroke="black" stroke-width="0"></polygon><polygon fill="black" points="229.22063701923074,239.3461538461538 257.14476442307694,239.3461538461538 257.14476442307694,234.3461538461538 229.22063701923074,234.3461538461538" stroke="black" stroke-width="0"></polygon></g><text font-family="Alegreya" font-size="22" text-anchor="middle" x="207.3365096153846" y="256.3461538461538">ma</text></g><g><g><path d="M232.981 211.986C236.981 211.986 241.901 208.266 241.901 204.466C241.901 202.186 240.101 200.706 237.501 200.706C232.581 200.706 228.621 204.346 228.621 208.226C228.621 210.586 230.541 211.986 232.981 211.986"></path></g><line stroke="#000000" stroke-width="1.2" x1="229.22063701923074" x2="229.22063701923074" y1="208.18615384615381" y2="238.18615384615381"></line></g><g><g><path d="M260.905 201.986C264.905 201.986 269.825 198.266 269.825 194.466C269.825 192.186 268.025 190.706 265.425 190.706C260.505 190.706 256.545 194.346 256.545 198.226C256.545 200.586 258.465 201.986 260.905 201.986"></path></g><line stroke="#000000" stroke-width="1.2" x1="257.14476442307694" x2="257.14476442307694" y1="198.18615384615381" y2="238.18615384615381"></line></g><g><path d="M293.869 189.666C293.789 189.666 293.669 189.666 293.429 189.826C293.149 190.066 291.149 192.466 289.829 192.466L289.829 192.066C289.829 190.586 288.629 189.386 287.149 189.386C285.669 189.386 284.469 190.586 284.469 192.066C284.469 192.906 284.949 193.626 285.549 194.106C285.909 194.346 286.269 194.546 286.669 194.626C286.989 194.706 287.349 194.786 287.709 194.786C288.269 194.786 288.829 194.666 289.269 194.506C289.829 194.346 290.189 194.186 290.709 193.906C290.789 193.866 290.869 193.866 290.909 193.866C291.069 193.866 291.109 194.026 291.109 194.226C291.109 194.346 291.109 194.506 291.069 194.666C290.949 195.266 288.069 203.226 287.349 205.866C287.349 206.346 288.269 206.386 288.509 206.386C288.949 206.386 289.509 206.306 289.909 205.986C290.029 205.906 293.949 191.866 293.949 191.866C294.109 191.146 294.309 190.506 294.349 190.306C294.349 189.786 293.949 189.706 293.869 189.666"></path></g></g><g transform="translate(492.8391730769231)"><g><g><line stroke="#6A6A6A" stroke-width="1.3" x1="-16.600000000000023" x2="741.9300576923075" y1="216.3461538461538" y2="216.3461538461538"></line><line stroke="#6A6A6A" stroke-width="1.3" x1="-16.600000000000023" x2="741.9300576923075" y1="206.3461538461538" y2="206.3461538461538"></line><line stroke="#6A6A6A" stroke-width="1.3" x1="-16.600000000000023" x2="741.9300576923075" y1="196.3461538461538" y2="196.3461538461538"></line><line stroke="#6A6A6A" stroke-width="1.3" x1="-16.600000000000023" x2="741.9300576923075" y1="186.3461538461538" y2="186.3461538461538"></line><line stroke="#6A6A6A" stroke-width="1.3" x1="-16.600000000000023" x2="741.9300576923075" y1="176.3461538461538" y2="176.3461538461538"></line></g></g><g><line stroke="black" stroke-width="1.6" x1="233.51001923076922" x2="233.51001923076922" y1="176.3461538461538" y2="216.3461538461538"></line></g><g><g><path d="M13.677 196.986C17.677 196.986 22.597 193.266 22.597 189.466C22.597 187.186 20.797 185.706 18.197 185.706C13.277 185.706 9.317 189.346 9.317 193.226C9.317 195.586 11.237 196.986 13.677 196.986"></path></g><line stroke="#000000" stroke-width="1.2" x1="9.917" x2="9.917" y1="193.18615384615381" y2="228.18615384615381"></line><path d="M18.917 196.306C19.477 197.986 19.757 199.986 19.757 201.786C19.757 204.146 18.757 207.506 18.157 208.866C16.677 212.226 14.677 215.466 9.317 217.266L9.317 226.666C9.317 227.146 9.517 227.266 9.757 227.266C10.517 227.266 10.837 227.026 10.917 226.386C11.597 222.586 14.557 219.106 16.597 215.946C19.117 211.986 21.557 207.226 21.557 202.226C21.557 199.106 20.757 196.266 20.437 194.986C20.117 193.706 18.317 194.586 18.917 196.306"></path><text font-family="Alegreya" font-size="22" text-anchor="middle" x="15.957" y="256.3461538461538">Me</text></g><g><g><path d="M41.601 206.986C45.601 206.986 50.521 203.266 50.521 199.466C50.521 197.186 48.721 195.706 46.121 195.706C41.201 195.706 37.241 199.346 37.241 203.226C37.241 205.586 39.161 206.986 41.601 206.986"></path></g><line stroke="#000000" stroke-width="1.2" x1="49.92112740384615" x2="49.92112740384615" y1="199.5061538461538" y2="164.5061538461538"></line><path d="M58.841 197.586C58.841 197.586 59.881 193.786 59.881 190.666C59.881 185.666 57.801 180.946 55.281 176.946C53.241 173.786 51.561 170.346 50.921 166.506C50.801 165.866 50.481 165.626 49.721 165.626C49.481 165.626 49.321 165.746 49.321 166.226L49.321 175.786C51.961 176.266 55.761 181.706 57.201 185.106C57.801 186.466 58.161 188.746 58.161 191.106C58.161 192.906 57.881 194.786 57.201 196.586C57.121 196.826 57.081 197.026 57.081 197.186C57.081 197.826 57.481 198.186 57.721 198.346C57.961 198.506 58.641 198.266 58.841 197.586"></path></g><g><g><path d="M69.525 196.986C73.525 196.986 78.445 193.266 78.445 189.466C78.445 187.186 76.645 185.706 74.045 185.706C69.125 185.706 65.165 189.346 65.165 193.226C65.165 195.586 67.085 196.986 69.525 196.986"></path></g><line stroke="#000000" stroke-width="1.2" x1="65.7652548076923" x2="65.7652548076923" y1="193.18615384615381" y2="228.18615384615381"></line><path d="M74.765 196.306C75.325 197.986 75.605 199.986 75.605 201.786C75.605 204.146 74.605 207.506 74.005 208.866C72.525 212.226 70.525 215.466 65.165 217.266L65.165 226.666C65.165 227.146 65.365 227.266 65.605 227.266C66.365 227.266 66.685 227.026 66.765 226.386C67.445 222.586 70.405 219.106 72.445 215.946C74.965 211.986 77.405 207.226 77.405 202.226C77.405 199.106 76.605 196.266 76.285 194.986C75.965 193.706 74.165 194.586 74.765 196.306"></path></g><g><g><path d="M97.449 206.986C101.449 206.986 106.369 203.266 106.369 199.466C106.369 197.186 104.569 195.706 101.969 195.706C97.049 195.706 93.089 199.346 93.089 203.226C93.089 205.586 95.009 206.986 97.449 206.986"></path></g><line stroke="#000000" stroke-width="1.2" x1="105.76938221153847" x2="105.76938221153847" y1="199.5061538461538" y2="164.5061538461538"></line><path d="M114.689 197.586C114.689 197.586 115.729 193.786 115.729 190.666C115.729 185.666 113.649 180.946 111.129 176.946C109.089 173.786 107.409 170.346 106.769 166.506C106.649 165.866 106.329 165.626 105.569 165.626C105.329 165.626 105.169 165.746 105.169 166.226L105.169 175.786C107.809 176.266 111.609 181.706 113.049 185.106C113.649 186.466 114.009 188.746 114.009 191.106C114.009 192.906 113.729 194.786 113.049 196.586C112.969 196.826 112.929 197.026 112.929 197.186C112.929 197.826 113.329 198.186 113.569 198.346C113.809 198.506 114.489 198.266 114.689 197.586"></path><text font-family="Alegreya" font-size="22" text-anchor="middle" x="99.72938221153846" y="256.3461538461538">lis</text></g><g><g><path d="M125.374 196.986C129.374 196.986 134.294 193.266 134.294 189.466C134.294 187.186 132.494 185.706 129.894 185.706C124.974 185.706 121.014 189.346 121.014 193.226C121.014 195.586 122.934 196.986 125.374 196.986"></path></g><line stroke="#000000" stroke-width="1.2" x1="121.6135096153846" x2="121.6135096153846" y1="193.18615384615381" y2="228.18615384615381"></line><path d="M130.614 196.306C131.174 197.986 131.454 199.986 131.454 201.786C131.454 204.146 130.454 207.506 129.854 208.866C128.374 212.226 126.374 215.466 121.014 217.266L121.014 226.666C121.014 227.146 121.214 227.266 121.454 227.266C122.214 227.266 122.534 227.026 122.614 226.386C123.294 222.586 126.254 219.106 128.294 215.946C130.814 211.986 133.254 207.226 133.254 202.226C133.254 199.106 132.454 196.266 132.134 194.986C131.814 193.706 130.014 194.586 130.614 196.306"></path><text font-family="Alegreya" font-size="22" text-anchor="middle" x="127.6535096153846" y="256.3461538461538">ma</text></g><g><g><path d="M153.298 211.986C157.298 211.986 162.218 208.266 162.218 204.466C162.218 202.186 160.418 200.706 157.818 200.706C152.898 200.706 148.938 204.346 148.938 208.226C148.938 210.586 150.858 211.986 153.298 211.986"></path></g><line stroke="#000000" stroke-width="1.2" x1="161.61763701923076" x2="161.61763701923076" y1="204.5061538461538" y2="169.5061538461538"></line><path d="M170.538 202.586C170.538 202.586 171.578 198.786 171.578 195.666C171.578 190.666 169.498 185.946 166.978 181.946C164.938 178.786 163.258 175.346 162.618 171.506C162.498 170.866 162.178 170.626 161.418 170.626C161.178 170.626 161.018 170.746 161.018 171.226L161.018 180.786C163.658 181.266 167.458 186.706 168.898 190.106C169.498 191.466 169.858 193.746 169.858 196.106C169.858 197.906 169.578 199.786 168.898 201.586C168.818 201.826 168.778 202.026 168.778 202.186C168.778 202.826 169.178 203.186 169.418 203.346C169.658 203.506 170.338 203.266 170.538 202.586"></path></g><g><g><path d="M181.222 201.986C185.222 201.986 190.142 198.266 190.142 194.466C190.142 192.186 188.342 190.706 185.742 190.706C180.822 190.706 176.862 194.346 176.862 198.226C176.862 200.586 178.782 201.986 181.222 201.986"></path></g><line stroke="#000000" stroke-width="1.2" x1="177.46176442307691" x2="177.46176442307691" y1="198.18615384615381" y2="233.18615384615381"></line><path d="M186.462 201.306C187.022 202.986 187.302 204.986 187.302 206.786C187.302 209.146 186.302 212.506 185.702 213.866C184.222 217.226 182.222 220.466 176.862 222.266L176.862 231.666C176.862 232.146 177.062 232.266 177.302 232.266C178.062 232.266 178.382 232.026 178.462 231.386C179.142 227.586 182.102 224.106 184.142 220.946C186.662 216.986 189.102 212.226 189.102 207.226C189.102 204.106 188.302 201.266 187.982 199.986C187.662 198.706 185.862 199.586 186.462 201.306"></path></g><g><path d="M214.186 189.666C214.106 189.666 213.986 189.666 213.746 189.826C213.466 190.066 211.466 192.466 210.146 192.466L210.146 192.066C210.146 190.586 208.946 189.386 207.466 189.386C205.986 189.386 204.786 190.586 204.786 192.066C204.786 192.906 205.266 193.626 205.866 194.106C206.226 194.346 206.586 194.546 206.986 194.626C207.306 194.706 207.666 194.786 208.026 194.786C208.586 194.786 209.146 194.666 209.586 194.506C210.146 194.346 210.506 194.186 211.026 193.906C211.106 193.866 211.186 193.866 211.226 193.866C211.386 193.866 211.426 194.026 211.426 194.226C211.426 194.346 211.426 194.506 211.386 194.666C211.266 195.266 208.386 203.226 207.666 205.866C207.666 206.346 208.586 206.386 208.826 206.386C209.266 206.386 209.826 206.306 210.226 205.986C210.346 205.906 214.266 191.866 214.266 191.866C214.426 191.146 214.626 190.506 214.666 190.306C214.666 189.786 214.266 189.706 214.186 189.666"></path></g></g><g transform="translate(742.1491923076923)"><g></g><g><line stroke="black" stroke-width="1.6" x1="233.51001923076922" x2="233.51001923076922" y1="176.3461538461538" y2="216.3461538461538"></line></g><g><g><path d="M13.677 196.986C17.677 196.986 22.597 193.266 22.597 189.466C22.597 187.186 20.797 185.706 18.197 185.706C13.277 185.706 9.317 189.346 9.317 193.226C9.317 195.586 11.237 196.986 13.677 196.986"></path></g><line stroke="#000000" stroke-width="1.2" x1="9.917" x2="9.917" y1="193.18615384615381" y2="228.18615384615381"></line><path d="M18.917 196.306C19.477 197.986 19.757 199.986 19.757 201.786C19.757 204.146 18.757 207.506 18.157 208.866C16.677 212.226 14.677 215.466 9.317 217.266L9.317 226.666C9.317 227.146 9.517 227.266 9.757 227.266C10.517 227.266 10.837 227.026 10.917 226.386C11.597 222.586 14.557 219.106 16.597 215.946C19.117 211.986 21.557 207.226 21.557 202.226C21.557 199.106 20.757 196.266 20.437 194.986C20.117 193.706 18.317 194.586 18.917 196.306"></path><text font-family="Alegreya" font-size="22" text-anchor="middle" x="15.957" y="256.3461538461538">Me</text></g><g><g><path d="M41.601 206.986C45.601 206.986 50.521 203.266 50.521 199.466C50.521 197.186 48.721 195.706 46.121 195.706C41.201 195.706 37.241 199.346 37.241 203.226C37.241 205.586 39.161 206.986 41.601 206.986"></path></g><line stroke="#000000" stroke-width="1.2" x1="49.92112740384615" x2="49.92112740384615" y1="199.5061538461538" y2="164.5061538461538"></line><path d="M58.841 197.586C58.841 197.586 59.881 193.786 59.881 190.666C59.881 185.666 57.801 180.946 55.281 176.946C53.241 173.786 51.561 170.346 50.921 166.506C50.801 165.866 50.481 165.626 49.721 165.626C49.481 165.626 49.321 165.746 49.321 166.226L49.321 175.786C51.961 176.266 55.761 181.706 57.201 185.106C57.801 186.466 58.161 188.746 58.161 191.106C58.161 192.906 57.881 194.786 57.201 196.586C57.121 196.826 57.081 197.026 57.081 197.186C57.081 197.826 57.481 198.186 57.721 198.346C57.961 198.506 58.641 198.266 58.841 197.586"></path></g><g><g><path d="M69.525 196.986C73.525 196.986 78.445 193.266 78.445 189.466C78.445 187.186 76.645 185.706 74.045 185.706C69.125 185.706 65.165 189.346 65.165 193.226C65.165 195.586 67.085 196.986 69.525 196.986"></path></g><line stroke="#000000" stroke-width="1.2" x1="65.7652548076923" x2="65.7652548076923" y1="193.18615384615381" y2="228.18615384615381"></line><path d="M74.765 196.306C75.325 197.986 75.605 199.986 75.605 201.786C75.605 204.146 74.605 207.506 74.005 208.866C72.525 212.226 70.525 215.466 65.165 217.266L65.165 226.666C65.165 227.146 65.365 227.266 65.605 227.266C66.365 227.266 66.685 227.026 66.765 226.386C67.445 222.586 70.405 219.106 72.445 215.946C74.965 211.986 77.405 207.226 77.405 202.226C77.405 199.106 76.605 196.266 76.285 194.986C75.965 193.706 74.165 194.586 74.765 196.306"></path></g><g><g><path d="M97.449 206.986C101.449 206.986 106.369 203.266 106.369 199.466C106.369 197.186 104.569 195.706 101.969 195.706C97.049 195.706 93.089 199.346 93.089 203.226C93.089 205.586 95.009 206.986 97.449 206.986"></path></g><line stroke="#000000" stroke-width="1.2" x1="105.76938221153847" x2="105.76938221153847" y1="199.5061538461538" y2="164.5061538461538"></line><path d="M114.689 197.586C114.689 197.586 115.729 193.786 115.729 190.666C115.729 185.666 113.649 180.946 111.129 176.946C109.089 173.786 107.409 170.346 106.769 166.506C106.649 165.866 106.329 165.626 105.569 165.626C105.329 165.626 105.169 165.746 105.169 166.226L105.169 175.786C107.809 176.266 111.609 181.706 113.049 185.106C113.649 186.466 114.009 188.746 114.009 191.106C114.009 192.906 113.729 194.786 113.049 196.586C112.969 196.826 112.929 197.026 112.929 197.186C112.929 197.826 113.329 198.186 113.569 198.346C113.809 198.506 114.489 198.266 114.689 197.586"></path><text font-family="Alegreya" font-size="22" text-anchor="middle" x="99.72938221153846" y="256.3461538461538">lis</text></g><g><g><path d="M125.374 196.986C129.374 196.986 134.294 193.266 134.294 189.466C134.294 187.186 132.494 185.706 129.894 185.706C124.974 185.706 121.014 189.346 121.014 193.226C121.014 195.586 122.934 196.986 125.374 196.986"></path></g><line stroke="#000000" stroke-width="1.2" x1="121.6135096153846" x2="121.6135096153846" y1="193.18615384615381" y2="228.18615384615381"></line><path d="M130.614 196.306C131.174 197.986 131.454 199.986 131.454 201.786C131.454 204.146 130.454 207.506 129.854 208.866C128.374 212.226 126.374 215.466 121.014 217.266L121.014 226.666C121.014 227.146 121.214 227.266 121.454 227.266C122.214 227.266 122.534 227.026 122.614 226.386C123.294 222.586 126.254 219.106 128.294 215.946C130.814 211.986 133.254 207.226 133.254 202.226C133.254 199.106 132.454 196.266 132.134 194.986C131.814 193.706 130.014 194.586 130.614 196.306"></path><text font-family="Alegreya" font-size="22" text-anchor="middle" x="127.6535096153846" y="256.3461538461538">ma</text></g><g><g><path d="M153.298 211.986C157.298 211.986 162.218 208.266 162.218 204.466C162.218 202.186 160.418 200.706 157.818 200.706C152.898 200.706 148.938 204.346 148.938 208.226C148.938 210.586 150.858 211.986 153.298 211.986"></path></g><line stroke="#000000" stroke-width="1.2" x1="161.61763701923076" x2="161.61763701923076" y1="204.5061538461538" y2="169.5061538461538"></line><path d="M170.538 202.586C170.538 202.586 171.578 198.786 171.578 195.666C171.578 190.666 169.498 185.946 166.978 181.946C164.938 178.786 163.258 175.346 162.618 171.506C162.498 170.866 162.178 170.626 161.418 170.626C161.178 170.626 161.018 170.746 161.018 171.226L161.018 180.786C163.658 181.266 167.458 186.706 168.898 190.106C169.498 191.466 169.858 193.746 169.858 196.106C169.858 197.906 169.578 199.786 168.898 201.586C168.818 201.826 168.778 202.026 168.778 202.186C168.778 202.826 169.178 203.186 169.418 203.346C169.658 203.506 170.338 203.266 170.538 202.586"></path></g><g><g><path d="M181.222 201.986C185.222 201.986 190.142 198.266 190.142 194.466C190.142 192.186 188.342 190.706 185.742 190.706C180.822 190.706 176.862 194.346 176.862 198.226C176.862 200.586 178.782 201.986 181.222 201.986"></path></g><line stroke="#000000" stroke-width="1.2" x1="177.46176442307691" x2="177.46176442307691" y1="198.18615384615381" y2="233.18615384615381"></line><path d="M186.462 201.306C187.022 202.986 187.302 204.986 187.302 206.786C187.302 209.146 186.302 212.506 185.702 213.866C184.222 217.226 182.222 220.466 176.862 222.266L176.862 231.666C176.862 232.146 177.062 232.266 177.302 232.266C178.062 232.266 178.382 232.026 178.462 231.386C179.142 227.586 182.102 224.106 184.142 220.946C186.662 216.986 189.102 212.226 189.102 207.226C189.102 204.106 188.302 201.266 187.982 199.986C187.662 198.706 185.862 199.586 186.462 201.306"></path></g><g><path d="M214.186 189.666C214.106 189.666 213.986 189.666 213.746 189.826C213.466 190.066 211.466 192.466 210.146 192.466L210.146 192.066C210.146 190.586 208.946 189.386 207.466 189.386C205.986 189.386 204.786 190.586 204.786 192.066C204.786 192.906 205.266 193.626 205.866 194.106C206.226 194.346 206.586 194.546 206.986 194.626C207.306 194.706 207.666 194.786 208.026 194.786C208.586 194.786 209.146 194.666 209.586 194.506C210.146 194.346 210.506 194.186 211.026 193.906C211.106 193.866 211.186 193.866 211.226 193.866C211.386 193.866 211.426 194.026 211.426 194.226C211.426 194.346 211.426 194.506 211.386 194.666C211.266 195.266 208.386 203.226 207.666 205.866C207.666 206.346 208.586 206.386 208.826 206.386C209.266 206.386 209.826 206.306 210.226 205.986C210.346 205.906 214.266 191.866 214.266 191.866C214.426 191.146 214.626 190.506 214.666 190.306C214.666 189.786 214.266 189.706 214.186 189.666"></path></g></g><g transform="translate(991.4592115384614)"><g></g><g><line stroke="#000000" stroke-width="1.6" x1="233.51001923076922" x2="233.51001923076922" y1="176.3461538461538" y2="216.3461538461538"></line><line stroke="#000000" stroke-width="5" x1="240.8100192307692" x2="240.8100192307692" y1="176.3461538461538" y2="216.3461538461538"></line></g><g><g><path d="M13.677 196.986C17.677 196.986 22.597 193.266 22.597 189.466C22.597 187.186 20.797 185.706 18.197 185.706C13.277 185.706 9.317 189.346 9.317 193.226C9.317 195.586 11.237 196.986 13.677 196.986"></path></g><line stroke="#000000" stroke-width="1.2" x1="9.917" x2="9.917" y1="193.18615384615381" y2="228.18615384615381"></line><path d="M18.917 196.306C19.477 197.986 19.757 199.986 19.757 201.786C19.757 204.146 18.757 207.506 18.157 208.866C16.677 212.226 14.677 215.466 9.317 217.266L9.317 226.666C9.317 227.146 9.517 227.266 9.757 227.266C10.517 227.266 10.837 227.026 10.917 226.386C11.597 222.586 14.557 219.106 16.597 215.946C19.117 211.986 21.557 207.226 21.557 202.226C21.557 199.106 20.757 196.266 20.437 194.986C20.117 193.706 18.317 194.586 18.917 196.306"></path><text font-family="Alegreya" font-size="22" text-anchor="middle" x="15.957" y="256.3461538461538">Me</text></g><g><g><path d="M41.601 206.986C45.601 206.986 50.521 203.266 50.521 199.466C50.521 197.186 48.721 195.706 46.121 195.706C41.201 195.706 37.241 199.346 37.241 203.226C37.241 205.586 39.161 206.986 41.601 206.986"></path></g><line stroke="#000000" stroke-width="1.2" x1="49.92112740384615" x2="49.92112740384615" y1="199.5061538461538" y2="164.5061538461538"></line><path d="M58.841 197.586C58.841 197.586 59.881 193.786 59.881 190.666C59.881 185.666 57.801 180.946 55.281 176.946C53.241 173.786 51.561 170.346 50.921 166.506C50.801 165.866 50.481 165.626 49.721 165.626C49.481 165.626 49.321 165.746 49.321 166.226L49.321 175.786C51.961 176.266 55.761 181.706 57.201 185.106C57.801 186.466 58.161 188.746 58.161 191.106C58.161 192.906 57.881 194.786 57.201 196.586C57.121 196.826 57.081 197.026 57.081 197.186C57.081 197.826 57.481 198.186 57.721 198.346C57.961 198.506 58.641 198.266 58.841 197.586"></path></g><g><g><path d="M69.525 196.986C73.525 196.986 78.445 193.266 78.445 189.466C78.445 187.186 76.645 185.706 74.045 185.706C69.125 185.706 65.165 189.346 65.165 193.226C65.165 195.586 67.085 196.986 69.525 196.986"></path></g><line stroke="#000000" stroke-width="1.2" x1="65.7652548076923" x2="65.7652548076923" y1="193.18615384615381" y2="228.18615384615381"></line><path d="M74.765 196.306C75.325 197.986 75.605 199.986 75.605 201.786C75.605 204.146 74.605 207.506 74.005 208.866C72.525 212.226 70.525 215.466 65.165 217.266L65.165 226.666C65.165 227.146 65.365 227.266 65.605 227.266C66.365 227.266 66.685 227.026 66.765 226.386C67.445 222.586 70.405 219.106 72.445 215.946C74.965 211.986 77.405 207.226 77.405 202.226C77.405 199.106 76.605 196.266 76.285 194.986C75.965 193.706 74.165 194.586 74.765 196.306"></path></g><g><g><path d="M97.449 206.986C101.449 206.986 106.369 203.266 106.369 199.466C106.369 197.186 104.569 195.706 101.969 195.706C97.049 195.706 93.089 199.346 93.089 203.226C93.089 205.586 95.009 206.986 97.449 206.986"></path></g><line stroke="#000000" stroke-width="1.2" x1="105.76938221153847" x2="105.76938221153847" y1="199.5061538461538" y2="164.5061538461538"></line><path d="M114.689 197.586C114.689 197.586 115.729 193.786 115.729 190.666C115.729 185.666 113.649 180.946 111.129 176.946C109.089 173.786 107.409 170.346 106.769 166.506C106.649 165.866 106.329 165.626 105.569 165.626C105.329 165.626 105.169 165.746 105.169 166.226L105.169 175.786C107.809 176.266 111.609 181.706 113.049 185.106C113.649 186.466 114.009 188.746 114.009 191.106C114.009 192.906 113.729 194.786 113.049 196.586C112.969 196.826 112.929 197.026 112.929 197.186C112.929 197.826 113.329 198.186 113.569 198.346C113.809 198.506 114.489 198.266 114.689 197.586"></path><text font-family="Alegreya" font-size="22" text-anchor="middle" x="99.72938221153846" y="256.3461538461538">lis</text></g><g><g><path d="M125.374 196.986C129.374 196.986 134.294 193.266 134.294 189.466C134.294 187.186 132.494 185.706 129.894 185.706C124.974 185.706 121.014 189.346 121.014 193.226C121.014 195.586 122.934 196.986 125.374 196.986"></path></g><line stroke="#000000" stroke-width="1.2" x1="121.6135096153846" x2="121.6135096153846" y1="193.18615384615381" y2="228.18615384615381"></line><path d="M130.614 196.306C131.174 197.986 131.454 199.986 131.454 201.786C131.454 204.146 130.454 207.506 129.854 208.866C128.374 212.226 126.374 215.466 121.014 217.266L121.014 226.666C121.014 227.146 121.214 227.266 121.454 227.266C122.214 227.266 122.534 227.026 122.614 226.386C123.294 222.586 126.254 219.106 128.294 215.946C130.814 211.986 133.254 207.226 133.254 202.226C133.254 199.106 132.454 196.266 132.134 194.986C131.814 193.706 130.014 194.586 130.614 196.306"></path><text font-family="Alegreya" font-size="22" text-anchor="middle" x="127.6535096153846" y="256.3461538461538">ma</text></g><g><g><path d="M153.298 211.986C157.298 211.986 162.218 208.266 162.218 204.466C162.218 202.186 160.418 200.706 157.818 200.706C152.898 200.706 148.938 204.346 148.938 208.226C148.938 210.586 150.858 211.986 153.298 211.986"></path></g><line stroke="#000000" stroke-width="1.2" x1="161.61763701923076" x2="161.61763701923076" y1="204.5061538461538" y2="169.5061538461538"></line><path d="M170.538 202.586C170.538 202.586 171.578 198.786 171.578 195.666C171.578 190.666 169.498 185.946 166.978 181.946C164.938 178.786 163.258 175.346 162.618 171.506C162.498 170.866 162.178 170.626 161.418 170.626C161.178 170.626 161.018 170.746 161.018 171.226L161.018 180.786C163.658 181.266 167.458 186.706 168.898 190.106C169.498 191.466 169.858 193.746 169.858 196.106C169.858 197.906 169.578 199.786 168.898 201.586C168.818 201.826 168.778 202.026 168.778 202.186C168.778 202.826 169.178 203.186 169.418 203.346C169.658 203.506 170.338 203.266 170.538 202.586"></path></g><g><g><path d="M181.222 201.986C185.222 201.986 190.142 198.266 190.142 194.466C190.142 192.186 188.342 190.706 185.742 190.706C180.822 190.706 176.862 194.346 176.862 198.226C176.862 200.586 178.782 201.986 181.222 201.986"></path></g><line stroke="#000000" stroke-width="1.2" x1="177.46176442307691" x2="177.46176442307691" y1="198.18615384615381" y2="233.18615384615381"></line><path d="M186.462 201.306C187.022 202.986 187.302 204.986 187.302 206.786C187.302 209.146 186.302 212.506 185.702 213.866C184.222 217.226 182.222 220.466 176.862 222.266L176.862 231.666C176.862 232.146 177.062 232.266 177.302 232.266C178.062 232.266 178.382 232.026 178.462 231.386C179.142 227.586 182.102 224.106 184.142 220.946C186.662 216.986 189.102 212.226 189.102 207.226C189.102 204.106 188.302 201.266 187.982 199.986C187.662 198.706 185.862 199.586 186.462 201.306"></path></g><g><path d="M214.186 189.666C214.106 189.666 213.986 189.666 213.746 189.826C213.466 190.066 211.466 192.466 210.146 192.466L210.146 192.066C210.146 190.586 208.946 189.386 207.466 189.386C205.986 189.386 204.786 190.586 204.786 192.066C204.786 192.906 205.266 193.626 205.866 194.106C206.226 194.346 206.586 194.546 206.986 194.626C207.306 194.706 207.666 194.786 208.026 194.786C208.586 194.786 209.146 194.666 209.586 194.506C210.146 194.346 210.506 194.186 211.026 193.906C211.106 193.866 211.186 193.866 211.226 193.866C211.386 193.866 211.426 194.026 211.426 194.226C211.426 194.346 211.426 194.506 211.386 194.666C211.266 195.266 208.386 203.226 207.666 205.866C207.666 206.346 208.586 206.386 208.826 206.386C209.266 206.386 209.826 206.306 210.226 205.986C210.346 205.906 214.266 191.866 214.266 191.866C214.426 191.146 214.626 190.506 214.666 190.306C214.666 189.786 214.266 189.706 214.186 189.666"></path></g></g></svg>