<?xml version="1.0" encoding="UTF-8" standalone="no"?><svg xmlns="http://www.w3.org/2000/svg" height="279.4mm" viewBox="0 0 1328.6153846153845 1719.3846153846152" width="215.9mm"><g transform="translate(163.84615384615387)"><g><g><line stroke="#6A6A6A" stroke-width="1.3" x1="0" x2="353.30474940213617" y1="216.3461538461538" y2="216.3461538461538"></line><line stroke="#6A6A6A" stroke-width="1.3" x1="0" x2="353.30474940213617" y1="206.3461538461538" y2="206.3461538461538"></line><line stroke="#6A6A6A" stroke-width="1.3" x1="0" x2="353.30474940213617" y1="196.3461538461538" y2="196.3461538461538"></line><line stroke="#6A6A6A" stroke-width="1.3" x1="0" x2="353.30474940213617" y1="186.3461538461538" y2="186.3461538461538"></line><line stroke="#6A6A6A" stroke-width="1.3" x1="0" x2="353.30474940213617" y1="176.3461538461538" y2="176.3461538461538"></line></g><g><path d="M25.200 162.426C24.640 162.426 23.400 163.466 22.600 164.346C19.640 167.626 18.680 172.626 18.680 176.786C18.680 179.106 18.960 181.706 19.240 183.346C19.320 183.826 19.360 183.906 18.880 184.306C16.320 186.426 13.560 188.866 11.480 191.426C8.720 194.866 7 198.586 7 202.866C7 209.826 11.760 216.426 21.560 216.426C22.480 216.426 23.520 216.346 24.320 216.186C24.760 216.106 24.840 216.066 24.920 216.546C25.400 219.226 26 222.706 26 224.586C26 230.506 22 231.226 19.640 231.226C17.480 231.226 16.440 230.586 16.440 230.066C16.440 229.626 16.800 229.666 17.720 229.386C18.960 229.026 20.400 227.946 20.400 225.626C20.400 223.426 19 221.546 16.560 221.546C13.880 221.546 12.280 223.666 12.280 226.146C12.280 228.746 13.840 232.666 19.880 232.666C22.560 232.666 27.760 231.466 27.760 224.666C27.760 222.386 27.040 218.586 26.600 216.106C26.520 215.626 26.560 215.666 27.120 215.426C31.160 213.826 33.840 210.426 33.840 205.906C33.840 200.786 30.080 196.266 24.200 196.266C23.080 196.266 23.200 196.466 23.040 195.546L22.040 189.746C21.960 189.266 22.040 189.226 22.280 188.986C22.920 188.386 23.760 187.546 24.520 186.706C27.880 183.026 29.880 178.266 29.880 173.746C29.880 170.266 28.920 166.826 27.280 164.426C26.680 163.546 25.640 162.426 25.200 162.426M20.040 190.586C20.440 190.266 20.520 190.306 20.600 190.746L21.440 195.866C21.560 196.626 21.560 196.586 20.840 196.826C17.320 198.026 15.040 201.186 15.040 204.586C15.040 208.186 16.920 210.746 19.640 211.666C19.960 211.786 20.440 211.906 20.720 211.906C21.040 211.906 21.200 211.706 21.200 211.466C21.200 211.186 20.880 211.066 20.600 210.946C18.920 210.226 17.720 208.506 17.720 206.666C17.720 204.386 19.280 202.666 21.720 201.986C22.360 201.826 22.440 201.866 22.520 202.306L24.520 214.226C24.600 214.666 24.560 214.666 23.960 214.786C23.320 214.906 22.520 214.986 21.720 214.986C14.720 214.986 10.200 211.106 10.200 205.546C10.200 203.186 10.600 200.026 13.920 196.266C16.320 193.586 18.160 192.106 20.040 190.586M24.640 201.666C27.880 201.946 30.560 204.666 30.560 208.186C30.560 210.706 29.040 212.746 26.800 213.866C26.320 214.106 26.240 214.106 26.160 213.626L24.200 202.226C24.120 201.746 24.160 201.626 24.640 201.666M25.800 168.626C27.120 168.626 28.200 169.706 28.200 171.906C28.200 174.666 26.880 177.226 23.760 180.346C23.120 180.986 22.160 181.906 21.240 182.706C20.960 182.946 20.800 182.906 20.720 182.386C20.560 181.346 20.480 179.986 20.480 178.706C20.480 172.466 23.360 168.626 25.800 168.626"></path></g><g></g><path d="M57.820 186.306C56.620 186.306 55.220 186.626 54.140 187.106C50.580 188.666 48.700 192.946 48.700 196.746C48.700 197.106 48.700 197.466 48.740 197.826C48.940 199.986 49.980 202.026 51.300 203.626C52.820 205.466 55.020 206.306 57.420 206.306C64.420 206.306 65.460 199.946 65.460 198.786C65.460 197.906 65.020 197.906 64.860 197.906C64.540 197.906 64.260 197.946 64.260 198.626C64.260 203.786 59.860 204.986 58.580 204.986C55.340 204.986 53.620 201.826 53.620 195.226C53.620 188.626 56.660 187.266 58.820 187.266C60.900 187.266 61.740 188.226 61.740 188.626C61.740 188.986 61.620 189.506 61.020 189.506C59.420 189.506 58.500 191.226 58.500 192.466C58.500 194.746 60.460 195.466 61.580 195.466C61.580 195.466 64.620 195.346 64.620 192.026C64.620 186.786 58.580 186.306 57.820 186.306"></path></g><g><line stroke="black" stroke-width="1.6" x1="354.1047494021362" x2="354.1047494021362" y1="176.3461538461538" y2="216.3461538461538"></line></g><g><g><path d="M93.360 211.986C97.360 211.986 102.280 208.266 102.280 204.466C102.280 202.186 100.480 200.706 97.880 200.706C92.960 200.706 89 204.346 89 208.226C89 210.586 90.920 211.986 93.360 211.986"></path></g><line stroke="#000000" stroke-width="1.2" x1="101.68" x2="101.68" y1="204.5061538461538" y2="169.5061538461538"></line><text font-family="Alegreya" font-size="22" text-anchor="middle" x="95.64" y="256.3461538461538">1.Tra</text><text font-family="Alegreya" font-size="22" text-anchor="middle" x="95.64" y="256.3461538461538">2.tra</text><text font-family="Alegreya" font-size="22" text-anchor="middle" x="95.64" y="256.3461538461538">3.TRA</text></g><g><g><path d="M169.173 211.986C173.173 211.986 178.093 208.266 178.093 204.466C178.093 202.186 176.293 200.706 173.693 200.706C168.773 200.706 164.813 204.346 164.813 208.226C164.813 210.586 166.733 211.986 169.173 211.986"></path></g><line stroke="#000000" stroke-width="1.2" x1="177.49343735053404" x2="177.49343735053404" y1="204.5061538461538" y2="169.5061538461538"></line><text font-family="Alegreya" font-size="22" text-anchor="middle" x="171.45343735053405" y="256.3461538461538">la</text><text font-family="Alegreya" font-size="22" text-anchor="middle" x="171.45343735053405" y="256.3461538461538">la</text><text font-family="Alegreya" font-size="22" text-anchor="middle" x="171.45343735053405" y="256.3461538461538">LA</text></g><g><g><path d="M237.012 211.986C241.012 211.986 245.932 208.266 245.932 204.466C245.932 202.186 244.132 200.706 241.532 200.706C236.612 200.706 232.652 204.346 232.652 208.226C232.652 210.586 234.572 211.986 237.012 211.986"></path></g><line stroke="#000000" stroke-width="1.2" x1="245.33187470106807" x2="245.33187470106807" y1="204.5061538461538" y2="169.5061538461538"></line><text font-family="Alegreya" font-size="22" text-anchor="middle" x="239.29187470106808" y="256.3461538461538">la,</text><text font-family="Alegreya" font-size="22" text-anchor="middle" x="239.29187470106808" y="256.3461538461538">la,</text><text font-family="Alegreya" font-size="22" text-anchor="middle" x="239.29187470106808" y="256.3461538461538">LA,</text></g><g><g><path d="M297.338 211.986C301.338 211.986 306.258 208.266 306.258 204.466C306.258 202.186 304.458 200.706 301.858 200.706C296.938 200.706 292.978 204.346 292.978 208.226C292.978 210.586 294.898 211.986 297.338 211.986"></path></g><line stroke="#000000" stroke-width="1.2" x1="305.65831205160214" x2="305.65831205160214" y1="204.5061538461538" y2="169.5061538461538"></line><text font-family="Alegreya" font-size="22" text-anchor="middle" x="299.6183120516021" y="256.3461538461538">ja!</text><text font-family="Alegreya" font-size="22" text-anchor="middle" x="299.6183120516021" y="256.3461538461538">ja!</text><text font-family="Alegreya" font-size="22" text-anchor="middle" x="299.6183120516021" y="256.3461538461538">JA!</text></g></g><g transform="translate(533.75090324829)"><g><g><line stroke="#6A6A6A" stroke-width="1.3" x1="-16.599999999999966" x2="251.90574940213622" y1="216.3461538461538" y2="216.3461538461538"></line><line stroke="#6A6A6A" stroke-width="1.3" x1="-16.599999999999966" x2="251.90574940213622" y1="206.3461538461538" y2="206.3461538461538"></line><line stroke="#6A6A6A" stroke-width="1.3" x1="-16.599999999999966" x2="251.90574940213622" y1="196.3461538461538" y2="196.3461538461538"></line><line stroke="#6A6A6A" stroke-width="1.3" x1="-16.599999999999966" x2="251.90574940213622" y1="186.3461538461538" y2="186.3461538461538"></line><line stroke="#6A6A6A" stroke-width="1.3" x1="-16.599999999999966" x2="251.90574940213622" y1="176.3461538461538" y2="176.3461538461538"></line></g></g><g><line stroke="#000000" stroke-width="1.6" x1="242.10574940213615" x2="242.10574940213615" y1="176.3461538461538" y2="216.3461538461538"></line><line stroke="#000000" stroke-width="5" x1="249.40574940213614" x2="249.40574940213614" y1="176.3461538461538" y2="216.3461538461538"></line></g><g><g><path d="M4.360 211.986C8.360 211.986 13.280 208.266 13.280 204.466C13.280 202.186 11.480 200.706 8.880 200.706C3.960 200.706 0 204.346 0 208.226C0 210.586 1.920 211.986 4.360 211.986"></path></g><line stroke="#000000" stroke-width="1.2" x1="12.680000000000001" x2="12.680000000000001" y1="204.5061538461538" y2="169.5061538461538"></line></g><g><g><path d="M64.686 211.986C68.686 211.986 73.606 208.266 73.606 204.466C73.606 202.186 71.806 200.706 69.206 200.706C64.286 200.706 60.326 204.346 60.326 208.226C60.326 210.586 62.246 211.986 64.686 211.986"></path></g><line stroke="#000000" stroke-width="1.2" x1="73.00643735053404" x2="73.00643735053404" y1="204.5061538461538" y2="169.5061538461538"></line><text font-family="Alegreya" font-size="22" text-anchor="middle" x="66.96643735053404" y="256.3461538461538">Tra</text><text font-family="Alegreya" font-size="22" text-anchor="middle" x="66.96643735053404" y="256.3461538461538">Tra</text><text font-family="Alegreya" font-size="22" text-anchor="middle" x="66.96643735053404" y="256.3461538461538">TRA</text></g><g><g><path d="M125.013 211.986C129.013 211.986 133.933 208.266 133.933 204.466C133.933 202.186 132.133 200.706 129.533 200.706C124.613 200.706 120.653 204.346 120.653 208.226C120.653 210.586 122.573 211.986 125.013 211.986"></path></g><line stroke="#000000" stroke-width="1.2" x1="133.33287470106808" x2="133.33287470106808" y1="204.5061538461538" y2="169.5061538461538"></line></g><g><g><path d="M185.339 211.986C189.339 211.986 194.259 208.266 194.259 204.466C194.259 202.186 192.459 200.706 189.859 200.706C184.939 200.706 180.979 204.346 180.979 208.226C180.979 210.586 182.899 211.986 185.339 211.986"></path></g><line stroke="#000000" stroke-width="1.2" x1="193.65931205160211" x2="193.65931205160211" y1="204.5061538461538" y2="169.5061538461538"></line><text font-family="Alegreya" font-size="22" text-anchor="middle" x="187.6193120516021" y="256.3461538461538">ra...</text><text font-family="Alegreya" font-size="22" text-anchor="middle" x="187.6193120516021" y="256.3461538461538">ra.</text><text font-family="Alegreya" font-size="22" text-anchor="middle" x="187.6193120516021" y="256.3461538461538">RA...</text></g></g></svg>