<?xml version="1.0" encoding="UTF-8" standalone="no"?><svg xmlns="http://www.w3.org/2000/svg" height="279.4mm" viewBox="0 0 1328.6153846153845 1719.3846153846152" width="215.9mm"><g transform="translate(163.84615384615387)"><g><g><line stroke="#6A6A6A" stroke-width="1.3" x1="0" x2="1070.9230769230767" y1="216.3461538461538" y2="216.3461538461538"></line><line stroke="#6A6A6A" stroke-width="1.3" x1="0" x2="1070.9230769230767" y1="206.3461538461538" y2="206.3461538461538"></line><line stroke="#6A6A6A" stroke-width="1.3" x1="0" x2="1070.9230769230767" y1="196.3461538461538" y2="196.3461538461538"></line><line stroke="#6A6A6A" stroke-width="1.3" x1="0" x2="1070.9230769230767" y1="186.3461538461538" y2="186.3461538461538"></line><line stroke="#6A6A6A" stroke-width="1.3" x1="0" x2="1070.9230769230767" y1="176.3461538461538" y2="176.3461538461538"></line></g><g><path d="M25.200 162.426C24.640 162.426 23.400 163.466 22.600 164.346C19.640 167.626 18.680 172.626 18.680 176.786C18.680 179.106 18.960 181.706 19.240 183.346C19.320 183.826 19.360 183.906 18.880 184.306C16.320 186.426 13.560 188.866 11.480 191.426C8.720 194.866 7 198.586 7 202.866C7 209.826 11.760 216.426 21.560 216.426C22.480 216.426 23.520 216.346 24.320 216.186C24.760 216.106 24.840 216.066 24.920 216.546C25.400 219.226 26 222.706 26 224.586C26 230.506 22 231.226 19.640 231.226C17.480 231.226 16.440 230.586 16.440 230.066C16.440 229.626 16.800 229.666 17.720 229.386C18.960 229.026 20.400 227.946 20.400 225.626C20.400 223.426 19 221.546 16.560 221.546C13.880 221.546 12.280 223.666 12.280 226.146C12.280 228.746 13.840 232.666 19.880 232.666C22.560 232.666 27.760 231.466 27.760 224.666C27.760 222.386 27.040 218.586 26.600 216.106C26.520 215.626 26.560 215.666 27.120 215.426C31.160 213.826 33.840 210.426 33.840 205.906C33.840 200.786 30.080 196.266 24.200 196.266C23.080 196.266 23.200 196.466 23.040 195.546L22.040 189.746C21.960 189.266 22.040 189.226 22.280 188.986C22.920 188.386 23.760 187.546 24.520 186.706C27.880 183.026 29.880 178.266 29.880 173.746C29.880 170.266 28.920 166.826 27.280 164.426C26.680 163.546 25.640 162.426 25.200 162.426M20.040 190.586C20.440 190.266 20.520 190.306 20.600 190.746L21.440 195.866C21.560 196.626 21.560 196.586 20.840 196.826C17.320 198.026 15.040 201.186 15.040 204.586C15.040 208.186 16.920 210.746 19.640 211.666C19.960 211.786 20.440 211.906 20.720 211.906C21.040 211.906 21.200 211.706 21.200 211.466C21.200 211.186 20.880 211.066 20.600 210.946C18.920 210.226 17.720 208.506 17.720 206.666C17.720 204.386 19.280 202.666 21.720 201.986C22.360 201.826 22.440 201.866 22.520 202.306L24.520 214.226C24.600 214.666 24.560 214.666 23.960 214.786C23.320 214.906 22.520 214.986 21.720 214.986C14.720 214.986 10.200 211.106 10.200 205.546C10.200 203.186 10.600 200.026 13.920 196.266C16.320 193.586 18.160 192.106 20.040 190.586M24.640 201.666C27.880 201.946 30.560 204.666 30.560 208.186C30.560 210.706 29.040 212.746 26.800 213.866C26.320 214.106 26.240 214.106 26.160 213.626L24.200 202.226C24.120 201.746 24.160 201.626 24.640 201.666M25.800 168.626C27.120 168.626 28.200 169.706 28.200 171.906C28.200 174.666 26.880 177.226 23.760 180.346C23.120 180.986 22.160 181.906 21.240 182.706C20.960 182.946 20.800 182.906 20.720 182.386C20.560 181.346 20.480 179.986 20.480 178.706C20.480 172.466 23.360 168.626 25.800 168.626"></path></g><g></g><g><g><path d="M47.620 185.826C47.620 185.826 47.460 186.066 47.460 186.346C47.460 186.546 47.580 186.786 47.900 186.906C48.060 186.946 48.140 186.986 48.260 186.986C48.660 186.986 48.820 186.626 48.820 186.626C48.820 186.626 50.540 183.866 50.980 183.106C51.140 182.826 51.300 182.706 51.380 182.706C51.540 182.706 51.620 183.026 51.620 183.266L51.620 193.586C51.620 194.506 50.700 195.106 49.860 195.106C49.580 195.106 49.180 195.226 49.180 195.706C49.180 196.146 49.540 196.346 50.060 196.346L58.580 196.346C59.220 196.346 59.220 195.706 59.220 195.706C59.220 195.706 59.220 195.106 58.620 195.106C58.060 195.106 57.340 194.386 57.340 193.706C57.340 193.706 57.340 177.866 57.340 177.226C57.340 176.586 57.100 176.346 56.540 176.306C55.980 176.306 54.980 176.466 54.460 176.466C53.700 176.466 52.980 176.426 52.380 176.346C52.300 176.346 52.220 176.306 52.180 176.306C51.740 176.306 51.620 176.706 51.460 177.066"></path><path d="M77.180 189.306L74.260 189.306L74.260 180.746C74.260 180.426 74.220 180.066 73.780 180.066C73.420 180.066 73.220 180.146 72.980 180.426L69.180 185.026C69.020 185.226 68.820 185.466 68.820 185.946C68.820 185.946 68.820 187.546 68.820 189.306L63.420 189.306C66.620 186.586 73.020 177.506 73.140 177.066C73.140 176.986 73.180 176.946 73.180 176.866C73.180 176.546 72.900 176.306 72.580 176.306C72.220 176.306 70.580 176.386 69.860 176.386C69.140 176.386 67.340 176.306 67.020 176.306C66.660 176.306 66.100 176.426 66.100 177.066C66.100 182.026 62.180 187.586 60.980 189.266L60.740 189.586C60.740 189.626 60.700 189.666 60.700 189.706C60.620 189.866 60.580 190.026 60.580 190.146C60.580 190.546 60.900 190.826 61.380 190.826L68.820 190.826L68.820 193.346C68.820 194.426 67.940 194.746 67.220 194.746C66.580 194.746 66.300 195.106 66.300 195.506C66.300 195.906 66.460 196.346 67.060 196.346C67.700 196.346 75.580 196.346 75.580 196.346C75.980 196.346 76.380 196.066 76.380 195.506C76.380 194.946 75.900 194.706 75.500 194.706C75.100 194.706 74.260 194.466 74.260 193.186L74.260 190.826C75.980 190.826 77.180 190.826 77.180 190.826C77.580 190.826 77.780 190.546 77.780 190.066C77.780 189.586 77.620 189.306 77.180 189.306"></path></g><g><path d="M72.180 209.306L69.260 209.306L69.260 200.746C69.260 200.426 69.220 200.066 68.780 200.066C68.420 200.066 68.220 200.146 67.980 200.426L64.180 205.026C64.020 205.226 63.820 205.466 63.820 205.946C63.820 205.946 63.820 207.546 63.820 209.306L58.420 209.306C61.620 206.586 68.020 197.506 68.140 197.066C68.140 196.986 68.180 196.946 68.180 196.866C68.180 196.546 67.900 196.306 67.580 196.306C67.220 196.306 65.580 196.386 64.860 196.386C64.140 196.386 62.340 196.306 62.020 196.306C61.660 196.306 61.100 196.426 61.100 197.066C61.100 202.026 57.180 207.586 55.980 209.266L55.740 209.586C55.740 209.626 55.700 209.666 55.700 209.706C55.620 209.866 55.580 210.026 55.580 210.146C55.580 210.546 55.900 210.826 56.380 210.826L63.820 210.826L63.820 213.346C63.820 214.426 62.940 214.746 62.220 214.746C61.580 214.746 61.300 215.106 61.300 215.506C61.300 215.906 61.460 216.346 62.060 216.346C62.700 216.346 70.580 216.346 70.580 216.346C70.980 216.346 71.380 216.066 71.380 215.506C71.380 214.946 70.900 214.706 70.500 214.706C70.100 214.706 69.260 214.466 69.260 213.186L69.260 210.826C70.980 210.826 72.180 210.826 72.180 210.826C72.580 210.826 72.780 210.546 72.780 210.066C72.780 209.586 72.620 209.306 72.180 209.306"></path></g></g></g><g><line stroke="#000000" stroke-width="1.6" x1="1061.1230769230767" x2="1061.1230769230767" y1="176.3461538461538" y2="216.3461538461538"></line><line stroke="#000000" stroke-width="5" x1="1068.4230769230767" x2="1068.4230769230767" y1="176.3461538461538" y2="216.3461538461538"></line></g><g><g><path d="M93.360 231.986C97.360 231.986 102.280 228.266 102.280 224.466C102.280 222.186 100.480 220.706 97.880 220.706C92.960 220.706 89 224.346 89 228.226C89 230.586 90.920 231.986 93.360 231.986"></path></g><line stroke="#000000" stroke-width="1.2" x1="101.68" x2="101.68" y1="224.5061538461538" y2="189.5061538461538"></line><line stroke="#000000" stroke-width="2.2" x1="85.8" x2="107.72" y1="226.3461538461538" y2="226.3461538461538"></line><g><polygon fill="black" points="97.68,172.5061538461538 186.33431592117904,162.5061538461538 186.33431592117904,160.9061538461538 97.68,170.9061538461538" stroke="black" stroke-width="0"></polygon><line fill="black" stroke="black" stroke-width="1.6" x1="98.18" x2="98.18" y1="172.5061538461538" y2="178.9061538461538"></line><line fill="black" stroke="black" stroke-width="1.6" x1="185.83431592117904" x2="185.83431592117904" y1="162.5061538461538" y2="168.9061538461538"></line><g><polygon fill="white" points="130.08715796058954,158.4061538461538 130.08715796058954,173.08615384615382 153.9271579605895,173.08615384615382 153.9271579605895,158.4061538461538" stroke="white" stroke-width="0"></polygon><path d="M139.487 172.686C138.687 172.686 138.047 172.366 138.047 171.966C138.047 171.726 138.247 171.646 138.567 171.486C139.007 171.286 139.567 170.806 139.567 169.766C139.567 168.806 138.887 168.326 138.047 168.326C136.927 168.326 136.087 169.326 136.087 170.646C136.087 172.246 137.367 173.726 140.207 173.726C143.607 173.726 146.407 171.686 146.407 168.526C146.407 167.526 145.887 166.566 144.847 166.046C144.567 165.926 144.407 165.886 144.407 165.686C144.407 165.486 144.567 165.486 144.887 165.326C146.567 164.646 147.927 163.366 147.927 161.766C147.927 159.686 145.927 158.406 143.487 158.406C140.967 158.406 138.887 159.726 138.807 161.886C138.767 162.926 139.407 163.606 140.327 163.606C141.327 163.606 142.127 162.806 142.127 161.726C142.127 161.286 141.967 160.966 141.767 160.726C141.487 160.486 141.287 160.446 141.287 160.206C141.287 159.926 141.767 159.646 142.607 159.646C144.167 159.646 144.687 160.606 144.687 161.486C144.687 163.606 143.327 165.126 141.007 165.126L140.567 165.126C140.047 165.126 139.767 165.366 139.767 165.726C139.767 166.086 140.047 166.326 140.567 166.326L140.967 166.326C142.447 166.326 143.167 167.206 143.167 168.486C143.167 170.246 141.927 172.686 139.487 172.686"></path></g></g></g><g><g><path d="M133.687 226.986C137.687 226.986 142.607 223.266 142.607 219.466C142.607 217.186 140.807 215.706 138.207 215.706C133.287 215.706 129.327 219.346 129.327 223.226C129.327 225.586 131.247 226.986 133.687 226.986"></path></g><line stroke="#000000" stroke-width="1.2" x1="142.00715796058952" x2="142.00715796058952" y1="219.5061538461538" y2="184.5061538461538"></line></g><g><g><path d="M174.014 221.986C178.014 221.986 182.934 218.266 182.934 214.466C182.934 212.186 181.134 210.706 178.534 210.706C173.614 210.706 169.654 214.346 169.654 218.226C169.654 220.586 171.574 221.986 174.014 221.986"></path></g><line stroke="#000000" stroke-width="1.2" x1="182.33431592117904" x2="182.33431592117904" y1="214.5061538461538" y2="179.5061538461538"></line></g><g><g><path d="M214.341 216.986C218.341 216.986 223.261 213.266 223.261 209.466C223.261 207.186 221.461 205.706 218.861 205.706C213.941 205.706 209.981 209.346 209.981 213.226C209.981 215.586 211.901 216.986 214.341 216.986"></path></g><line stroke="#000000" stroke-width="1.2" x1="222.66147388176853" x2="222.66147388176853" y1="209.5061538461538" y2="174.5061538461538"></line><g><polygon fill="black" points="218.66147388176853,157.5061538461538 307.3157898029475,147.5061538461538 307.3157898029475,145.9061538461538 218.66147388176853,155.9061538461538" stroke="black" stroke-width="0"></polygon><line fill="black" stroke="black" stroke-width="1.6" x1="219.16147388176853" x2="219.16147388176853" y1="157.5061538461538" y2="163.9061538461538"></line><line fill="black" stroke="black" stroke-width="1.6" x1="306.8157898029475" x2="306.8157898029475" y1="147.5061538461538" y2="153.9061538461538"></line><g><polygon fill="white" points="251.068631842358,143.4061538461538 251.068631842358,158.08615384615382 274.90863184235803,158.08615384615382 274.90863184235803,143.4061538461538" stroke="white" stroke-width="0"></polygon><path d="M260.469 157.686C259.669 157.686 259.029 157.366 259.029 156.966C259.029 156.726 259.229 156.646 259.549 156.486C259.989 156.286 260.549 155.806 260.549 154.766C260.549 153.806 259.869 153.326 259.029 153.326C257.909 153.326 257.069 154.326 257.069 155.646C257.069 157.246 258.349 158.726 261.189 158.726C264.589 158.726 267.389 156.686 267.389 153.526C267.389 152.526 266.869 151.566 265.829 151.046C265.549 150.926 265.389 150.886 265.389 150.686C265.389 150.486 265.549 150.486 265.869 150.326C267.549 149.646 268.909 148.366 268.909 146.766C268.909 144.686 266.909 143.406 264.469 143.406C261.949 143.406 259.869 144.726 259.789 146.886C259.749 147.926 260.389 148.606 261.309 148.606C262.309 148.606 263.109 147.806 263.109 146.726C263.109 146.286 262.949 145.966 262.749 145.726C262.469 145.486 262.269 145.446 262.269 145.206C262.269 144.926 262.749 144.646 263.589 144.646C265.149 144.646 265.669 145.606 265.669 146.486C265.669 148.606 264.309 150.126 261.989 150.126L261.549 150.126C261.029 150.126 260.749 150.366 260.749 150.726C260.749 151.086 261.029 151.326 261.549 151.326L261.949 151.326C263.429 151.326 264.149 152.206 264.149 153.486C264.149 155.246 262.909 157.686 260.469 157.686"></path></g></g></g><g><g><path d="M254.669 211.986C258.669 211.986 263.589 208.266 263.589 204.466C263.589 202.186 261.789 200.706 259.189 200.706C254.269 200.706 250.309 204.346 250.309 208.226C250.309 210.586 252.229 211.986 254.669 211.986"></path></g><line stroke="#000000" stroke-width="1.2" x1="262.9886318423581" x2="262.9886318423581" y1="204.5061538461538" y2="169.5061538461538"></line></g><g><g><path d="M294.996 206.986C298.996 206.986 303.916 203.266 303.916 199.466C303.916 197.186 302.116 195.706 299.516 195.706C294.596 195.706 290.636 199.346 290.636 203.226C290.636 205.586 292.556 206.986 294.996 206.986"></path></g><line stroke="#000000" stroke-width="1.2" x1="303.31578980294756" x2="303.31578980294756" y1="199.5061538461538" y2="164.5061538461538"></line></g><g><g><path d="M335.323 201.986C339.323 201.986 344.243 198.266 344.243 194.466C344.243 192.186 342.443 190.706 339.843 190.706C334.923 190.706 330.963 194.346 330.963 198.226C330.963 200.586 332.883 201.986 335.323 201.986"></path></g><line stroke="#000000" stroke-width="1.2" x1="331.5629477635371" x2="331.5629477635371" y1="198.18615384615381" y2="232.18615384615381"></line><g><polygon fill="black" points="327.5629477635371,251.5061538461538 416.21726368471616,241.5061538461538 416.21726368471616,239.9061538461538 327.5629477635371,249.9061538461538" stroke="black" stroke-width="0"></polygon><line fill="black" stroke="black" stroke-width="1.6" x1="328.0629477635371" x2="328.0629477635371" y1="249.9061538461538" y2="243.5061538461538"></line><line fill="black" stroke="black" stroke-width="1.6" x1="415.71726368471616" x2="415.71726368471616" y1="239.9061538461538" y2="233.5061538461538"></line><g><polygon fill="white" points="359.97010572412665,239.4061538461538 359.97010572412665,254.08615384615382 383.8101057241267,254.08615384615382 383.8101057241267,239.4061538461538" stroke="white" stroke-width="0"></polygon><path d="M369.370 253.686C368.570 253.686 367.930 253.366 367.930 252.966C367.930 252.726 368.130 252.646 368.450 252.486C368.890 252.286 369.450 251.806 369.450 250.766C369.450 249.806 368.770 249.326 367.930 249.326C366.810 249.326 365.970 250.326 365.970 251.646C365.970 253.246 367.250 254.726 370.090 254.726C373.490 254.726 376.290 252.686 376.290 249.526C376.290 248.526 375.770 247.566 374.730 247.046C374.450 246.926 374.290 246.886 374.290 246.686C374.290 246.486 374.450 246.486 374.770 246.326C376.450 245.646 377.810 244.366 377.810 242.766C377.810 240.686 375.810 239.406 373.370 239.406C370.850 239.406 368.770 240.726 368.690 242.886C368.650 243.926 369.290 244.606 370.210 244.606C371.210 244.606 372.010 243.806 372.010 242.726C372.010 242.286 371.850 241.966 371.650 241.726C371.370 241.486 371.170 241.446 371.170 241.206C371.170 240.926 371.650 240.646 372.490 240.646C374.050 240.646 374.570 241.606 374.570 242.486C374.570 244.606 373.210 246.126 370.890 246.126L370.450 246.126C369.930 246.126 369.650 246.366 369.650 246.726C369.650 247.086 369.930 247.326 370.450 247.326L370.850 247.326C372.330 247.326 373.050 248.206 373.050 249.486C373.050 251.246 371.810 253.686 369.370 253.686"></path></g></g></g><g><g><path d="M375.650 196.986C379.650 196.986 384.570 193.266 384.570 189.466C384.570 187.186 382.770 185.706 380.170 185.706C375.250 185.706 371.290 189.346 371.290 193.226C371.290 195.586 373.210 196.986 375.650 196.986"></path></g><line stroke="#000000" stroke-width="1.2" x1="371.8901057241266" x2="371.8901057241266" y1="193.18615384615381" y2="228.18615384615381"></line></g><g><g><path d="M415.977 191.986C419.977 191.986 424.897 188.266 424.897 184.466C424.897 182.186 423.097 180.706 420.497 180.706C415.577 180.706 411.617 184.346 411.617 188.226C411.617 190.586 413.537 191.986 415.977 191.986"></path></g><line stroke="#000000" stroke-width="1.2" x1="412.21726368471616" x2="412.21726368471616" y1="188.18615384615381" y2="222.18615384615381"></line></g><g><g><path d="M456.304 186.986C460.304 186.986 465.224 183.266 465.224 179.466C465.224 177.186 463.424 175.706 460.824 175.706C455.904 175.706 451.944 179.346 451.944 183.226C451.944 185.586 453.864 186.986 456.304 186.986"></path></g><line stroke="#000000" stroke-width="1.2" x1="452.54442164530565" x2="452.54442164530565" y1="183.18615384615381" y2="217.18615384615381"></line><g><polygon fill="black" points="448.54442164530565,236.5061538461538 560.8267738589274,221.5061538461538 560.8267738589274,219.9061538461538 448.54442164530565,234.9061538461538" stroke="black" stroke-width="0"></polygon><line fill="black" stroke="black" stroke-width="1.6" x1="449.04442164530565" x2="449.04442164530565" y1="234.9061538461538" y2="228.5061538461538"></line><line fill="black" stroke="black" stroke-width="1.6" x1="560.3267738589274" x2="560.3267738589274" y1="219.9061538461538" y2="213.5061538461538"></line><g><polygon fill="white" points="492.6255977521165,222.02615384615382 492.6255977521165,236.9061538461538 516.7455977521165,236.9061538461538 516.7455977521165,222.02615384615382" stroke="white" stroke-width="0"></polygon><path d="M509.026 231.666C508.866 231.666 508.786 231.586 508.826 231.346L510.466 226.146C510.546 225.826 510.626 225.586 510.626 225.386C510.626 225.106 510.386 225.026 510.066 225.026C509.666 225.026 509.466 225.186 509.146 225.546L506.586 228.306C506.306 228.626 506.226 228.786 506.146 229.066L505.426 231.346C505.346 231.546 505.306 231.666 505.026 231.666L501.426 231.666C501.146 231.666 501.106 231.546 501.106 231.466C501.106 231.386 501.146 231.306 501.306 231.186C504.426 228.706 507.866 225.346 509.786 222.826C509.986 222.586 509.986 222.466 509.986 222.346C509.986 222.146 509.866 222.026 509.546 222.026C508.946 222.026 508.386 222.386 507.666 222.386C506.906 222.386 506.266 222.026 505.746 222.026C505.426 222.026 505.306 222.226 505.226 222.466C504.866 223.706 504.066 225.466 503.026 226.946C501.866 228.626 500.586 230.026 499.026 231.586C498.786 231.826 498.626 231.986 498.626 232.266C498.626 232.586 498.866 232.786 499.346 232.786L504.786 232.786C504.946 232.786 505.026 232.866 504.986 233.066L504.306 235.266C504.186 235.546 504.186 235.626 503.826 235.666L502.426 235.786C502.066 235.826 501.866 236.026 501.866 236.346C501.866 236.666 502.066 236.906 502.466 236.906L509.186 236.906C509.626 236.906 509.786 236.666 509.786 236.346C509.786 236.026 509.626 235.826 509.266 235.786L507.906 235.666C507.586 235.626 507.666 235.466 507.746 235.106L508.386 233.106C508.426 232.906 508.506 232.786 508.786 232.786L510.146 232.786C510.506 232.786 510.746 232.546 510.746 232.226C510.746 231.866 510.506 231.666 510.186 231.666"></path></g></g></g><g><g><path d="M491.065 181.986C495.065 181.986 499.985 178.266 499.985 174.466C499.985 172.186 498.185 170.706 495.585 170.706C490.665 170.706 486.705 174.346 486.705 178.226C486.705 180.586 488.625 181.986 491.065 181.986"></path></g><line stroke="#000000" stroke-width="1.2" x1="487.3052057165129" x2="487.3052057165129" y1="178.18615384615381" y2="213.18615384615381"></line></g><g><g><path d="M525.826 176.986C529.826 176.986 534.746 173.266 534.746 169.466C534.746 167.186 532.946 165.706 530.346 165.706C525.426 165.706 521.466 169.346 521.466 173.226C521.466 175.586 523.386 176.986 525.826 176.986"></path></g><line stroke="#000000" stroke-width="1.2" x1="522.0659897877201" x2="522.0659897877201" y1="173.18615384615381" y2="208.18615384615381"></line></g><g><g><path d="M560.587 171.986C564.587 171.986 569.507 168.266 569.507 164.466C569.507 162.186 567.707 160.706 565.107 160.706C560.187 160.706 556.227 164.346 556.227 168.226C556.227 170.586 558.147 171.986 560.587 171.986"></path></g><line stroke="#000000" stroke-width="1.2" x1="556.8267738589274" x2="556.8267738589274" y1="168.18615384615381" y2="202.18615384615381"></line><line stroke="#000000" stroke-width="2.2" x1="553.0267738589273" x2="574.9467738589273" y1="166.3461538461538" y2="166.3461538461538"></line></g><g><g><path d="M595.348 166.986C599.348 166.986 604.268 163.266 604.268 159.466C604.268 157.186 602.468 155.706 599.868 155.706C594.948 155.706 590.988 159.346 590.988 163.226C590.988 165.586 592.908 166.986 595.348 166.986"></path></g><line stroke="#000000" stroke-width="1.2" x1="591.5875579301346" x2="591.5875579301346" y1="163.18615384615381" y2="197.18615384615381"></line><line stroke="#000000" stroke-width="2.2" x1="587.7875579301345" x2="609.7075579301345" y1="166.3461538461538" y2="166.3461538461538"></line><g><polygon fill="black" points="587.5875579301346,216.5061538461538 659.6346983926184,216.5061538461538 659.6346983926184,214.9061538461538 587.5875579301346,214.9061538461538" stroke="black" stroke-width="0"></polygon><line fill="black" stroke="black" stroke-width="1.6" x1="588.0875579301346" x2="588.0875579301346" y1="214.9061538461538" y2="208.5061538461538"></line><line fill="black" stroke="black" stroke-width="1.6" x1="659.1346983926184" x2="659.1346983926184" y1="214.9061538461538" y2="208.5061538461538"></line><g><polygon fill="white" points="611.5511281613765,209.52615384615382 611.5511281613765,224.4061538461538 635.6711281613764,224.4061538461538 635.6711281613764,209.52615384615382" stroke="white" stroke-width="0"></polygon><path d="M627.951 219.166C627.791 219.166 627.711 219.086 627.751 218.846L629.391 213.646C629.471 213.326 629.551 213.086 629.551 212.886C629.551 212.606 629.311 212.526 628.991 212.526C628.591 212.526 628.391 212.686 628.071 213.046L625.511 215.806C625.231 216.126 625.151 216.286 625.071 216.566L624.351 218.846C624.271 219.046 624.231 219.166 623.951 219.166L620.351 219.166C620.071 219.166 620.031 219.046 620.031 218.966C620.031 218.886 620.071 218.806 620.231 218.686C623.351 216.206 626.791 212.846 628.711 210.326C628.911 210.086 628.911 209.966 628.911 209.846C628.911 209.646 628.791 209.526 628.471 209.526C627.871 209.526 627.311 209.886 626.591 209.886C625.831 209.886 625.191 209.526 624.671 209.526C624.351 209.526 624.231 209.726 624.151 209.966C623.791 211.206 622.991 212.966 621.951 214.446C620.791 216.126 619.511 217.526 617.951 219.086C617.711 219.326 617.551 219.486 617.551 219.766C617.551 220.086 617.791 220.286 618.271 220.286L623.711 220.286C623.871 220.286 623.951 220.366 623.911 220.566L623.231 222.766C623.111 223.046 623.111 223.126 622.751 223.166L621.351 223.286C620.991 223.326 620.791 223.526 620.791 223.846C620.791 224.166 620.991 224.406 621.391 224.406L628.111 224.406C628.551 224.406 628.711 224.166 628.711 223.846C628.711 223.526 628.551 223.326 628.191 223.286L626.831 223.166C626.511 223.126 626.591 222.966 626.671 222.606L627.311 220.606C627.351 220.406 627.431 220.286 627.711 220.286L629.071 220.286C629.431 220.286 629.671 220.046 629.671 219.726C629.671 219.366 629.431 219.166 629.111 219.166"></path></g></g></g><g><g><path d="M616.697 161.986C620.697 161.986 625.617 158.266 625.617 154.466C625.617 152.186 623.817 150.706 621.217 150.706C616.297 150.706 612.337 154.346 612.337 158.226C612.337 160.586 614.257 161.986 616.697 161.986"></path></g><line stroke="#000000" stroke-width="1.2" x1="612.9366047509626" x2="612.9366047509626" y1="158.18615384615381" y2="198.18615384615381"></line><line stroke="#000000" stroke-width="2.2" x1="609.1366047509625" x2="631.0566047509625" y1="166.3461538461538" y2="166.3461538461538"></line><line stroke="#000000" stroke-width="2.2" x1="609.1366047509625" x2="631.0566047509625" y1="156.3461538461538" y2="156.3461538461538"></line></g><g><g><path d="M638.046 161.986C642.046 161.986 646.966 158.266 646.966 154.466C646.966 152.186 645.166 150.706 642.566 150.706C637.646 150.706 633.686 154.346 633.686 158.226C633.686 160.586 635.606 161.986 638.046 161.986"></path></g><line stroke="#000000" stroke-width="1.2" x1="634.2856515717905" x2="634.2856515717905" y1="158.18615384615381" y2="198.18615384615381"></line><line stroke="#000000" stroke-width="2.2" x1="630.4856515717904" x2="652.4056515717904" y1="166.3461538461538" y2="166.3461538461538"></line><line stroke="#000000" stroke-width="2.2" x1="630.4856515717904" x2="652.4056515717904" y1="156.3461538461538" y2="156.3461538461538"></line></g><g><g><path d="M659.395 166.986C663.395 166.986 668.315 163.266 668.315 159.466C668.315 157.186 666.515 155.706 663.915 155.706C658.995 155.706 655.035 159.346 655.035 163.226C655.035 165.586 656.955 166.986 659.395 166.986"></path></g><line stroke="#000000" stroke-width="1.2" x1="655.6346983926184" x2="655.6346983926184" y1="163.18615384615381" y2="197.18615384615381"></line><line stroke="#000000" stroke-width="2.2" x1="651.8346983926183" x2="673.7546983926183" y1="166.3461538461538" y2="166.3461538461538"></line></g><g><g><path d="M680.744 171.986C684.744 171.986 689.664 168.266 689.664 164.466C689.664 162.186 687.864 160.706 685.264 160.706C680.344 160.706 676.384 164.346 676.384 168.226C676.384 170.586 678.304 171.986 680.744 171.986"></path></g><line stroke="#000000" stroke-width="1.2" x1="676.9837452134464" x2="676.9837452134464" y1="168.18615384615381" y2="202.18615384615381"></line><line stroke="#000000" stroke-width="2.2" x1="673.1837452134463" x2="695.1037452134462" y1="166.3461538461538" y2="166.3461538461538"></line><g><polygon fill="black" points="672.9837452134464,221.5061538461538 871.6524373120486,251.5061538461538 871.6524373120486,249.9061538461538 672.9837452134464,219.9061538461538" stroke="black" stroke-width="0"></polygon><line fill="black" stroke="black" stroke-width="1.6" x1="673.4837452134464" x2="673.4837452134464" y1="219.9061538461538" y2="213.5061538461538"></line><line fill="black" stroke="black" stroke-width="1.6" x1="871.1524373120486" x2="871.1524373120486" y1="249.9061538461538" y2="243.5061538461538"></line><g><polygon fill="white" points="760.2580912627475,229.52615384615382 760.2580912627475,244.24615384615382 784.3780912627474,244.24615384615382 784.3780912627474,229.52615384615382" stroke="white" stroke-width="0"></polygon><path d="M767.218 244.566C767.818 244.566 768.418 244.206 769.058 244.206C769.658 244.206 770.178 244.566 770.778 244.566C771.138 244.566 771.258 244.406 771.298 244.126C771.898 241.606 772.498 239.326 774.698 236.806C776.058 235.246 777.458 233.446 778.298 230.686C778.338 230.486 778.378 230.286 778.378 230.086C778.378 229.726 778.098 229.646 777.778 229.646C777.298 229.646 777.138 229.766 776.978 230.166C776.738 230.846 776.338 231.166 775.738 231.166C774.418 231.166 773.658 229.526 771.698 229.526C770.818 229.526 770.058 229.966 769.418 230.526C769.138 230.806 769.058 230.966 768.898 230.966C768.858 230.966 768.778 230.926 768.778 230.806C768.778 230.566 768.938 230.326 768.938 230.006C768.938 229.766 768.738 229.646 768.418 229.646C768.058 229.646 767.858 229.726 767.698 230.126L766.338 234.446C766.298 234.566 766.258 234.686 766.258 234.766C766.258 235.046 766.418 235.166 766.738 235.166C767.098 235.166 767.338 235.086 767.458 234.646C767.818 233.566 768.298 232.726 769.258 232.726C770.378 232.726 771.698 233.486 773.178 233.486C773.978 233.486 774.858 233.206 775.658 232.686C775.978 232.486 776.178 232.726 775.978 233.006C774.818 234.726 773.378 235.646 771.698 237.006C769.258 238.926 767.738 241.326 766.938 243.886C766.898 243.966 766.858 244.126 766.858 244.246C766.858 244.446 766.978 244.566 767.218 244.566"></path></g></g></g><g><g><path d="M712.522 176.986C716.522 176.986 721.442 173.266 721.442 169.466C721.442 167.186 719.642 165.706 717.042 165.706C712.122 165.706 708.162 169.346 708.162 173.226C708.162 175.586 710.082 176.986 712.522 176.986"></path></g><line stroke="#000000" stroke-width="1.2" x1="708.7618605632134" x2="708.7618605632134" y1="173.18615384615381" y2="208.18615384615381"></line></g><g><g><path d="M744.300 181.986C748.300 181.986 753.220 178.266 753.220 174.466C753.220 172.186 751.420 170.706 748.820 170.706C743.900 170.706 739.940 174.346 739.940 178.226C739.940 180.586 741.860 181.986 744.300 181.986"></path></g><line stroke="#000000" stroke-width="1.2" x1="740.5399759129806" x2="740.5399759129806" y1="178.18615384615381" y2="213.18615384615381"></line></g><g><g><path d="M776.078 186.986C780.078 186.986 784.998 183.266 784.998 179.466C784.998 177.186 783.198 175.706 780.598 175.706C775.678 175.706 771.718 179.346 771.718 183.226C771.718 185.586 773.638 186.986 776.078 186.986"></path></g><line stroke="#000000" stroke-width="1.2" x1="772.3180912627475" x2="772.3180912627475" y1="183.18615384615381" y2="218.18615384615381"></line></g><g><g><path d="M807.856 191.986C811.856 191.986 816.776 188.266 816.776 184.466C816.776 182.186 814.976 180.706 812.376 180.706C807.456 180.706 803.496 184.346 803.496 188.226C803.496 190.586 805.416 191.986 807.856 191.986"></path></g><line stroke="#000000" stroke-width="1.2" x1="804.0962066125146" x2="804.0962066125146" y1="188.18615384615381" y2="223.18615384615381"></line></g><g><g><path d="M839.634 196.986C843.634 196.986 848.554 193.266 848.554 189.466C848.554 187.186 846.754 185.706 844.154 185.706C839.234 185.706 835.274 189.346 835.274 193.226C835.274 195.586 837.194 196.986 839.634 196.986"></path></g><line stroke="#000000" stroke-width="1.2" x1="835.8743219622817" x2="835.8743219622817" y1="193.18615384615381" y2="228.18615384615381"></line></g><g><g><path d="M871.412 201.986C875.412 201.986 880.332 198.266 880.332 194.466C880.332 192.186 878.532 190.706 875.932 190.706C871.012 190.706 867.052 194.346 867.052 198.226C867.052 200.586 868.972 201.986 871.412 201.986"></path></g><line stroke="#000000" stroke-width="1.2" x1="867.6524373120486" x2="867.6524373120486" y1="198.18615384615381" y2="232.18615384615381"></line></g><g><g><path d="M903.191 206.986C907.191 206.986 912.111 203.266 912.111 199.466C912.111 197.186 910.311 195.706 907.711 195.706C902.791 195.706 898.831 199.346 898.831 203.226C898.831 205.586 900.751 206.986 903.191 206.986"></path></g><line stroke="#000000" stroke-width="1.2" x1="911.5105526618155" x2="911.5105526618155" y1="199.5061538461538" y2="164.5061538461538"></line><g><polygon fill="black" points="907.5105526618155,147.5061538461538 1050.0876562128667,172.5061538461538 1050.0876562128667,170.9061538461538 907.5105526618155,145.9061538461538" stroke="black" stroke-width="0"></polygon><line fill="black" stroke="black" stroke-width="1.6" x1="908.0105526618155" x2="908.0105526618155" y1="147.5061538461538" y2="153.9061538461538"></line><line fill="black" stroke="black" stroke-width="1.6" x1="1049.5876562128667" x2="1049.5876562128667" y1="172.5061538461538" y2="178.9061538461538"></line><g><polygon fill="white" points="966.7191044373411,150.9061538461538 966.7191044373411,165.58615384615382 990.8791044373412,165.58615384615382 990.8791044373412,150.9061538461538" stroke="white" stroke-width="0"></polygon><path d="M981.479 151.906C982.239 151.866 982.879 152.106 982.879 152.346C982.879 152.586 982.519 152.666 982.319 152.746C981.719 153.026 981.239 153.626 981.239 154.466C981.239 155.426 982.039 155.986 982.919 155.986C984.079 155.986 984.879 155.106 984.879 153.746C984.879 152.106 983.439 150.906 981.079 150.906C977.639 150.906 974.879 153.106 973.439 157.546C971.999 161.906 972.479 166.226 977.439 166.226C980.359 166.226 983.639 164.226 983.639 160.146C983.639 158.226 982.399 156.706 980.079 156.706C978.999 156.706 978.039 156.946 977.239 157.546C976.879 157.786 976.519 157.746 976.759 156.986C977.599 154.626 979.119 152.026 981.479 151.906M978.919 158.146C980.079 158.146 980.399 158.946 980.399 160.106C980.399 162.906 978.879 165.186 977.319 165.186C975.439 165.186 975.559 163.186 975.839 161.826C976.239 159.746 977.519 158.146 978.919 158.146"></path></g></g></g><g><g><path d="M930.106 211.986C934.106 211.986 939.026 208.266 939.026 204.466C939.026 202.186 937.226 200.706 934.626 200.706C929.706 200.706 925.746 204.346 925.746 208.226C925.746 210.586 927.666 211.986 930.106 211.986"></path></g><line stroke="#000000" stroke-width="1.2" x1="938.4259733720257" x2="938.4259733720257" y1="204.5061538461538" y2="169.5061538461538"></line></g><g><g><path d="M957.021 216.986C961.021 216.986 965.941 213.266 965.941 209.466C965.941 207.186 964.141 205.706 961.541 205.706C956.621 205.706 952.661 209.346 952.661 213.226C952.661 215.586 954.581 216.986 957.021 216.986"></path></g><line stroke="#000000" stroke-width="1.2" x1="965.341394082236" x2="965.341394082236" y1="209.5061538461538" y2="174.5061538461538"></line></g><g><g><path d="M983.937 221.986C987.937 221.986 992.857 218.266 992.857 214.466C992.857 212.186 991.057 210.706 988.457 210.706C983.537 210.706 979.577 214.346 979.577 218.226C979.577 220.586 981.497 221.986 983.937 221.986"></path></g><line stroke="#000000" stroke-width="1.2" x1="992.2568147924461" x2="992.2568147924461" y1="214.5061538461538" y2="179.5061538461538"></line></g><g><g><path d="M1010.852 226.986C1014.852 226.986 1019.772 223.266 1019.772 219.466C1019.772 217.186 1017.972 215.706 1015.372 215.706C1010.452 215.706 1006.492 219.346 1006.492 223.226C1006.492 225.586 1008.412 226.986 1010.852 226.986"></path></g><line stroke="#000000" stroke-width="1.2" x1="1019.1722355026562" x2="1019.1722355026562" y1="219.5061538461538" y2="184.5061538461538"></line></g><g><g><path d="M1037.768 231.986C1041.768 231.986 1046.688 228.266 1046.688 224.466C1046.688 222.186 1044.888 220.706 1042.288 220.706C1037.368 220.706 1033.408 224.346 1033.408 228.226C1033.408 230.586 1035.328 231.986 1037.768 231.986"></path></g><line stroke="#000000" stroke-width="1.2" x1="1046.0876562128667" x2="1046.0876562128667" y1="224.5061538461538" y2="189.5061538461538"></line><line stroke="#000000" stroke-width="2.2" x1="1030.2076562128666" x2="1052.1276562128667" y1="226.3461538461538" y2="226.3461538461538"></line></g></g></svg>