<?xml version="1.0" encoding="UTF-8" standalone="no"?><svg xmlns="http://www.w3.org/2000/svg" height="279.4mm" viewBox="0 0 1328.6153846153845 1719.3846153846152" width="215.9mm"><g transform="translate(163.84615384615387)"><g><g><line stroke="#6A6A6A" stroke-width="1.3" x1="0" x2="508.7134833900891" y1="216.3461538461538" y2="216.3461538461538"></line><line stroke="#6A6A6A" stroke-width="1.3" x1="0" x2="508.7134833900891" y1="206.3461538461538" y2="206.3461538461538"></line><line stroke="#6A6A6A" stroke-width="1.3" x1="0" x2="508.7134833900891" y1="196.3461538461538" y2="196.3461538461538"></line><line stroke="#6A6A6A" stroke-width="1.3" x1="0" x2="508.7134833900891" y1="186.3461538461538" y2="186.3461538461538"></line><line stroke="#6A6A6A" stroke-width="1.3" x1="0" x2="508.7134833900891" y1="176.3461538461538" y2="176.3461538461538"></line></g><g><path d="M25.200 162.426C24.640 162.426 23.400 163.466 22.600 164.346C19.640 167.626 18.680 172.626 18.680 176.786C18.680 179.106 18.960 181.706 19.240 183.346C19.320 183.826 19.360 183.906 18.880 184.306C16.320 186.426 13.560 188.866 11.480 191.426C8.720 194.866 7 198.586 7 202.866C7 209.826 11.760 216.426 21.560 216.426C22.480 216.426 23.520 216.346 24.320 216.186C24.760 216.106 24.840 216.066 24.920 216.546C25.400 219.226 26 222.706 26 224.586C26 230.506 22 231.226 19.640 231.226C17.480 231.226 16.440 230.586 16.440 230.066C16.440 229.626 16.800 229.666 17.720 229.386C18.960 229.026 20.400 227.946 20.400 225.626C20.400 223.426 19 221.546 16.560 221.546C13.880 221.546 12.280 223.666 12.280 226.146C12.280 228.746 13.840 232.666 19.880 232.666C22.560 232.666 27.760 231.466 27.760 224.666C27.760 222.386 27.040 218.586 26.600 216.106C26.520 215.626 26.560 215.666 27.120 215.426C31.160 213.826 33.840 210.426 33.840 205.906C33.840 200.786 30.080 196.266 24.200 196.266C23.080 196.266 23.200 196.466 23.040 195.546L22.040 189.746C21.960 189.266 22.040 189.226 22.280 188.986C22.920 188.386 23.760 187.546 24.520 186.706C27.880 183.026 29.880 178.266 29.880 173.746C29.880 170.266 28.920 166.826 27.280 164.426C26.680 163.546 25.640 162.426 25.200 162.426M20.040 190.586C20.440 190.266 20.520 190.306 20.600 190.746L21.440 195.866C21.560 196.626 21.560 196.586 20.840 196.826C17.320 198.026 15.040 201.186 15.040 204.586C15.040 208.186 16.920 210.746 19.640 211.666C19.960 211.786 20.440 211.906 20.720 211.906C21.040 211.906 21.200 211.706 21.200 211.466C21.200 211.186 20.880 211.066 20.600 210.946C18.920 210.226 17.720 208.506 17.720 206.666C17.720 204.386 19.280 202.666 21.720 201.986C22.360 201.826 22.440 201.866 22.520 202.306L24.520 214.226C24.600 214.666 24.560 214.666 23.960 214.786C23.320 214.906 22.520 214.986 21.720 214.986C14.720 214.986 10.200 211.106 10.200 205.546C10.200 203.186 10.600 200.026 13.920 196.266C16.320 193.586 18.160 192.106 20.040 190.586M24.640 201.666C27.880 201.946 30.560 204.666 30.560 208.186C30.560 210.706 29.040 212.746 26.800 213.866C26.320 214.106 26.240 214.106 26.160 213.626L24.200 202.226C24.120 201.746 24.160 201.626 24.640 201.666M25.800 168.626C27.120 168.626 28.200 169.706 28.200 171.906C28.200 174.666 26.880 177.226 23.760 180.346C23.120 180.986 22.160 181.906 21.240 182.706C20.960 182.946 20.800 182.906 20.720 182.386C20.560 181.346 20.480 179.986 20.480 178.706C20.480 172.466 23.360 168.626 25.800 168.626"></path></g><g></g><path d="M57.820 186.306C56.620 186.306 55.220 186.626 54.140 187.106C50.580 188.666 48.700 192.946 48.700 196.746C48.700 197.106 48.700 197.466 48.740 197.826C48.940 199.986 49.980 202.026 51.300 203.626C52.820 205.466 55.020 206.306 57.420 206.306C64.420 206.306 65.460 199.946 65.460 198.786C65.460 197.906 65.020 197.906 64.860 197.906C64.540 197.906 64.260 197.946 64.260 198.626C64.260 203.786 59.860 204.986 58.580 204.986C55.340 204.986 53.620 201.826 53.620 195.226C53.620 188.626 56.660 187.266 58.820 187.266C60.900 187.266 61.740 188.226 61.740 188.626C61.740 188.986 61.620 189.506 61.020 189.506C59.420 189.506 58.500 191.226 58.500 192.466C58.500 194.746 60.460 195.466 61.580 195.466C61.580 195.466 64.620 195.346 64.620 192.026C64.620 186.786 58.580 186.306 57.820 186.306"></path><g><path d="M-13.200 296.926C-12.040 296.206-10.720 293.366-10.720 291.006C-10.720 290.806-10.720 290.566-10.760 290.366C-11.040 287.966-12.240 284.246-12.240 282.086C-12.240 280.006-11.320 278.006-11.120 277.646C-10.960 277.486-10.920 277.366-10.920 277.246C-10.920 277.166-10.960 277.086-11 277.086C-11.040 277.046-11.080 276.966-11.160 276.966C-11.240 276.966-11.320 277.046-11.480 277.246C-12.360 278.326-13.440 280.646-13.440 284.646C-13.440 288.606-12.040 290.206-12.040 292.726C-12.040 294.606-12.800 295.646-13.920 296.926C-13.200 297.726-12.040 298.366-12.040 300.966C-12.040 303.766-13.440 306.246-13.440 309.166C-13.440 313.166-12.360 315.486-11.480 316.606C-11.320 316.806-11.240 316.846-11.160 316.846C-11.080 316.846-11.040 316.806-11 316.766C-10.960 316.726-10.920 316.686-10.920 316.606C-10.920 316.486-10.960 316.366-11.120 316.166C-11.320 315.846-12.240 313.846-12.240 311.726C-12.240 309.606-11.040 305.846-10.760 303.486C-10.720 303.286-10.720 303.086-10.720 302.846C-10.720 300.486-12.040 297.646-13.200 296.926"></path><line stroke="#000000" stroke-width="1.6" x1="0" x2="0" y1="175.8461538461538" y2="316.8461538461538"></line></g></g><g><line stroke="#000000" stroke-width="1.6" x1="498.9134833900891" x2="498.9134833900891" y1="175.8461538461538" y2="316.8461538461538"></line><line stroke="#000000" stroke-width="5" x1="506.2134833900891" x2="506.2134833900891" y1="175.8461538461538" y2="316.8461538461538"></line></g><g><g><line stroke="#6A6A6A" stroke-width="1.3" x1="0" x2="508.7134833900891" y1="316.3461538461538" y2="316.3461538461538"></line><line stroke="#6A6A6A" stroke-width="1.3" x1="0" x2="508.7134833900891" y1="306.3461538461538" y2="306.3461538461538"></line><line stroke="#6A6A6A" stroke-width="1.3" x1="0" x2="508.7134833900891" y1="296.3461538461538" y2="296.3461538461538"></line><line stroke="#6A6A6A" stroke-width="1.3" x1="0" x2="508.7134833900891" y1="286.3461538461538" y2="286.3461538461538"></line><line stroke="#6A6A6A" stroke-width="1.3" x1="0" x2="508.7134833900891" y1="276.3461538461538" y2="276.3461538461538"></line></g><g><path d="M25.200 262.426C24.640 262.426 23.400 263.466 22.600 264.346C19.640 267.626 18.680 272.626 18.680 276.786C18.680 279.106 18.960 281.706 19.240 283.346C19.320 283.826 19.360 283.906 18.880 284.306C16.320 286.426 13.560 288.866 11.480 291.426C8.720 294.866 7 298.586 7 302.866C7 309.826 11.760 316.426 21.560 316.426C22.480 316.426 23.520 316.346 24.320 316.186C24.760 316.106 24.840 316.066 24.920 316.546C25.400 319.226 26 322.706 26 324.586C26 330.506 22 331.226 19.640 331.226C17.480 331.226 16.440 330.586 16.440 330.066C16.440 329.626 16.800 329.666 17.720 329.386C18.960 329.026 20.400 327.946 20.400 325.626C20.400 323.426 19 321.546 16.560 321.546C13.880 321.546 12.280 323.666 12.280 326.146C12.280 328.746 13.840 332.666 19.880 332.666C22.560 332.666 27.760 331.466 27.760 324.666C27.760 322.386 27.040 318.586 26.600 316.106C26.520 315.626 26.560 315.666 27.120 315.426C31.160 313.826 33.840 310.426 33.840 305.906C33.840 300.786 30.080 296.266 24.200 296.266C23.080 296.266 23.200 296.466 23.040 295.546L22.040 289.746C21.960 289.266 22.040 289.226 22.280 288.986C22.920 288.386 23.760 287.546 24.520 286.706C27.880 283.026 29.880 278.266 29.880 273.746C29.880 270.266 28.920 266.826 27.280 264.426C26.680 263.546 25.640 262.426 25.200 262.426M20.040 290.586C20.440 290.266 20.520 290.306 20.600 290.746L21.440 295.866C21.560 296.626 21.560 296.586 20.840 296.826C17.320 298.026 15.040 301.186 15.040 304.586C15.040 308.186 16.920 310.746 19.640 311.666C19.960 311.786 20.440 311.906 20.720 311.906C21.040 311.906 21.200 311.706 21.200 311.466C21.200 311.186 20.880 311.066 20.600 310.946C18.920 310.226 17.720 308.506 17.720 306.666C17.720 304.386 19.280 302.666 21.720 301.986C22.360 301.826 22.440 301.866 22.520 302.306L24.520 314.226C24.600 314.666 24.560 314.666 23.960 314.786C23.320 314.906 22.520 314.986 21.720 314.986C14.720 314.986 10.200 311.106 10.200 305.546C10.200 303.186 10.600 300.026 13.920 296.266C16.320 293.586 18.160 292.106 20.040 290.586M24.640 301.666C27.880 301.946 30.560 304.666 30.560 308.186C30.560 310.706 29.040 312.746 26.800 313.866C26.320 314.106 26.240 314.106 26.160 313.626L24.200 302.226C24.120 301.746 24.160 301.626 24.640 301.666M25.800 268.626C27.120 268.626 28.200 269.706 28.200 271.906C28.200 274.666 26.880 277.226 23.760 280.346C23.120 280.986 22.160 281.906 21.240 282.706C20.960 282.946 20.800 282.906 20.720 282.386C20.560 281.346 20.480 279.986 20.480 278.706C20.480 272.466 23.360 268.626 25.800 268.626"></path></g><g></g><path d="M57.820 286.306C56.620 286.306 55.220 286.626 54.140 287.106C50.580 288.666 48.700 292.946 48.700 296.746C48.700 297.106 48.700 297.466 48.740 297.826C48.940 299.986 49.980 302.026 51.300 303.626C52.820 305.466 55.020 306.306 57.420 306.306C64.420 306.306 65.460 299.946 65.460 298.786C65.460 297.906 65.020 297.906 64.860 297.906C64.540 297.906 64.260 297.946 64.260 298.626C64.260 303.786 59.860 304.986 58.580 304.986C55.340 304.986 53.620 301.826 53.620 295.226C53.620 288.626 56.660 287.266 58.820 287.266C60.900 287.266 61.740 288.226 61.740 288.626C61.740 288.986 61.620 289.506 61.020 289.506C59.420 289.506 58.500 291.226 58.500 292.466C58.500 294.746 60.460 295.466 61.580 295.466C61.580 295.466 64.620 295.346 64.620 292.026C64.620 286.786 58.580 286.306 57.820 286.306"></path></g><g><line stroke="black" stroke-width="1.6" x1="498.9134833900891" x2="498.9134833900891" y1="175.8461538461538" y2="316.8461538461538"></line><line stroke="black" stroke-width="5" x1="506.2134833900891" x2="506.2134833900891" y1="175.8461538461538" y2="316.8461538461538"></line></g><g><g><path d="M93.360 206.986C97.360 206.986 102.280 203.266 102.280 199.466C102.280 197.186 100.480 195.706 97.880 195.706C92.960 195.706 89 199.346 89 203.226C89 205.586 90.920 206.986 93.360 206.986"></path></g><line stroke="#000000" stroke-width="1.2" x1="101.68" x2="101.68" y1="199.5061538461538" y2="164.5061538461538"></line><text font-family="Alegreya" font-size="22" text-anchor="middle" x="95.64" y="256.3461538461538">tra</text></g><g><g><path d="M201.578 206.986C205.578 206.986 210.498 203.266 210.498 199.466C210.498 197.186 208.698 195.706 206.098 195.706C201.178 195.706 197.218 199.346 197.218 203.226C197.218 205.586 199.138 206.986 201.578 206.986"></path></g><line stroke="#000000" stroke-width="1.2" x1="209.89787084752228" x2="209.89787084752228" y1="199.5061538461538" y2="164.5061538461538"></line><text font-family="Alegreya" font-size="22" text-anchor="middle" x="203.8578708475223" y="256.3461538461538">la</text></g><g><g><path d="M302.646 206.986C306.646 206.986 311.566 203.266 311.566 199.466C311.566 197.186 309.766 195.706 307.166 195.706C302.246 195.706 298.286 199.346 298.286 203.226C298.286 205.586 300.206 206.986 302.646 206.986"></path></g><line stroke="#000000" stroke-width="1.2" x1="310.9657416950445" x2="310.9657416950445" y1="199.5061538461538" y2="164.5061538461538"></line><text font-family="Alegreya" font-size="22" text-anchor="middle" x="304.9257416950445" y="256.3461538461538">li</text></g><g><g><path d="M402.560 206.986C406.560 206.986 411.480 203.266 411.480 199.466C411.480 197.186 409.680 195.706 407.080 195.706C402.160 195.706 398.200 199.346 398.200 203.226C398.200 205.586 400.120 206.986 402.560 206.986"></path></g><line stroke="#000000" stroke-width="1.2" x1="410.8796125425668" x2="410.8796125425668" y1="199.5061538461538" y2="164.5061538461538"></line><text font-family="Alegreya" font-size="22" text-anchor="middle" x="404.8396125425668" y="256.3461538461538">ja!</text></g><g><g><path d="M93.360 351.986C97.360 351.986 102.280 348.266 102.280 344.466C102.280 342.186 100.480 340.706 97.880 340.706C92.960 340.706 89 344.346 89 348.226C89 350.586 90.920 351.986 93.360 351.986"></path></g><line stroke="#000000" stroke-width="1.2" x1="101.68" x2="101.68" y1="344.50615384615384" y2="294.50615384615384"></line><line stroke="#000000" stroke-width="2.2" x1="85.8" x2="107.72" y1="326.3461538461538" y2="326.3461538461538"></line><line stroke="#000000" stroke-width="2.2" x1="85.8" x2="107.72" y1="336.3461538461538" y2="336.3461538461538"></line><line stroke="#000000" stroke-width="2.2" x1="85.8" x2="107.72" y1="346.3461538461538" y2="346.3461538461538"></line><text font-family="Alegreya" font-size="22" text-anchor="middle" x="95.64" y="356.3461538461538">TRA</text></g><g><g><path d="M201.578 351.986C205.578 351.986 210.498 348.266 210.498 344.466C210.498 342.186 208.698 340.706 206.098 340.706C201.178 340.706 197.218 344.346 197.218 348.226C197.218 350.586 199.138 351.986 201.578 351.986"></path></g><line stroke="#000000" stroke-width="1.2" x1="209.89787084752228" x2="209.89787084752228" y1="344.50615384615384" y2="294.50615384615384"></line><line stroke="#000000" stroke-width="2.2" x1="194.0178708475223" x2="215.93787084752228" y1="326.3461538461538" y2="326.3461538461538"></line><line stroke="#000000" stroke-width="2.2" x1="194.0178708475223" x2="215.93787084752228" y1="336.3461538461538" y2="336.3461538461538"></line><line stroke="#000000" stroke-width="2.2" x1="194.0178708475223" x2="215.93787084752228" y1="346.3461538461538" y2="346.3461538461538"></line><text font-family="Alegreya" font-size="22" text-anchor="middle" x="203.8578708475223" y="356.3461538461538">LA</text></g><g><g><path d="M302.646 351.986C306.646 351.986 311.566 348.266 311.566 344.466C311.566 342.186 309.766 340.706 307.166 340.706C302.246 340.706 298.286 344.346 298.286 348.226C298.286 350.586 300.206 351.986 302.646 351.986"></path></g><line stroke="#000000" stroke-width="1.2" x1="310.9657416950445" x2="310.9657416950445" y1="344.50615384615384" y2="294.50615384615384"></line><line stroke="#000000" stroke-width="2.2" x1="295.08574169504453" x2="317.00574169504455" y1="326.3461538461538" y2="326.3461538461538"></line><line stroke="#000000" stroke-width="2.2" x1="295.08574169504453" x2="317.00574169504455" y1="336.3461538461538" y2="336.3461538461538"></line><line stroke="#000000" stroke-width="2.2" x1="295.08574169504453" x2="317.00574169504455" y1="346.3461538461538" y2="346.3461538461538"></line><text font-family="Alegreya" font-size="22" text-anchor="middle" x="304.9257416950445" y="356.3461538461538">LI</text></g><g><g><path d="M402.560 351.986C406.560 351.986 411.480 348.266 411.480 344.466C411.480 342.186 409.680 340.706 407.080 340.706C402.160 340.706 398.200 344.346 398.200 348.226C398.200 350.586 400.120 351.986 402.560 351.986"></path></g><line stroke="#000000" stroke-width="1.2" x1="410.8796125425668" x2="410.8796125425668" y1="344.50615384615384" y2="294.50615384615384"></line><line stroke="#000000" stroke-width="2.2" x1="394.9996125425668" x2="416.9196125425668" y1="326.3461538461538" y2="326.3461538461538"></line><line stroke="#000000" stroke-width="2.2" x1="394.9996125425668" x2="416.9196125425668" y1="336.3461538461538" y2="336.3461538461538"></line><line stroke="#000000" stroke-width="2.2" x1="394.9996125425668" x2="416.9196125425668" y1="346.3461538461538" y2="346.3461538461538"></line><text font-family="Alegreya" font-size="22" text-anchor="middle" x="404.8396125425668" y="356.3461538461538">JA!</text></g></g></svg>