<?xml version="1.0" encoding="UTF-8" standalone="no"?><svg xmlns="http://www.w3.org/2000/svg" height="279.4mm" viewBox="0 0 1328.6153846153845 1719.3846153846152" width="215.9mm"><g transform="translate(163.84615384615387)"><g><g><line stroke="#6A6A6A" stroke-width="1.3" x1="0" x2="454.9194396981808" y1="321.3461538461538" y2="321.3461538461538"></line><line stroke="#6A6A6A" stroke-width="1.3" x1="0" x2="454.9194396981808" y1="311.3461538461538" y2="311.3461538461538"></line><line stroke="#6A6A6A" stroke-width="1.3" x1="0" x2="454.9194396981808" y1="301.3461538461538" y2="301.3461538461538"></line><line stroke="#6A6A6A" stroke-width="1.3" x1="0" x2="454.9194396981808" y1="291.3461538461538" y2="291.3461538461538"></line><line stroke="#6A6A6A" stroke-width="1.3" x1="0" x2="454.9194396981808" y1="281.3461538461538" y2="281.3461538461538"></line></g><g><path d="M25.200 267.426C24.640 267.426 23.400 268.466 22.600 269.346C19.640 272.626 18.680 277.626 18.680 281.786C18.680 284.106 18.960 286.706 19.240 288.346C19.320 288.826 19.360 288.906 18.880 289.306C16.320 291.426 13.560 293.866 11.480 296.426C8.720 299.866 7 303.586 7 307.866C7 314.826 11.760 321.426 21.560 321.426C22.480 321.426 23.520 321.346 24.320 321.186C24.760 321.106 24.840 321.066 24.920 321.546C25.400 324.226 26 327.706 26 329.586C26 335.506 22 336.226 19.640 336.226C17.480 336.226 16.440 335.586 16.440 335.066C16.440 334.626 16.800 334.666 17.720 334.386C18.960 334.026 20.400 332.946 20.400 330.626C20.400 328.426 19 326.546 16.560 326.546C13.880 326.546 12.280 328.666 12.280 331.146C12.280 333.746 13.840 337.666 19.880 337.666C22.560 337.666 27.760 336.466 27.760 329.666C27.760 327.386 27.040 323.586 26.600 321.106C26.520 320.626 26.560 320.666 27.120 320.426C31.160 318.826 33.840 315.426 33.840 310.906C33.840 305.786 30.080 301.266 24.200 301.266C23.080 301.266 23.200 301.466 23.040 300.546L22.040 294.746C21.960 294.266 22.040 294.226 22.280 293.986C22.920 293.386 23.760 292.546 24.520 291.706C27.880 288.026 29.880 283.266 29.880 278.746C29.880 275.266 28.920 271.826 27.280 269.426C26.680 268.546 25.640 267.426 25.200 267.426M20.040 295.586C20.440 295.266 20.520 295.306 20.600 295.746L21.440 300.866C21.560 301.626 21.560 301.586 20.840 301.826C17.320 303.026 15.040 306.186 15.040 309.586C15.040 313.186 16.920 315.746 19.640 316.666C19.960 316.786 20.440 316.906 20.720 316.906C21.040 316.906 21.200 316.706 21.200 316.466C21.200 316.186 20.880 316.066 20.600 315.946C18.920 315.226 17.720 313.506 17.720 311.666C17.720 309.386 19.280 307.666 21.720 306.986C22.360 306.826 22.440 306.866 22.520 307.306L24.520 319.226C24.600 319.666 24.560 319.666 23.960 319.786C23.320 319.906 22.520 319.986 21.720 319.986C14.720 319.986 10.200 316.106 10.200 310.546C10.200 308.186 10.600 305.026 13.920 301.266C16.320 298.586 18.160 297.106 20.040 295.586M24.640 306.666C27.880 306.946 30.560 309.666 30.560 313.186C30.560 315.706 29.040 317.746 26.800 318.866C26.320 319.106 26.240 319.106 26.160 318.626L24.200 307.226C24.120 306.746 24.160 306.626 24.640 306.666M25.800 273.626C27.120 273.626 28.200 274.706 28.200 276.906C28.200 279.666 26.880 282.226 23.760 285.346C23.120 285.986 22.160 286.906 21.240 287.706C20.960 287.946 20.800 287.906 20.720 287.386C20.560 286.346 20.480 284.986 20.480 283.706C20.480 277.466 23.360 273.626 25.800 273.626"></path></g><g></g><path d="M57.820 291.306C56.620 291.306 55.220 291.626 54.140 292.106C50.580 293.666 48.700 297.946 48.700 301.746C48.700 302.106 48.700 302.466 48.740 302.826C48.940 304.986 49.980 307.026 51.300 308.626C52.820 310.466 55.020 311.306 57.420 311.306C64.420 311.306 65.460 304.946 65.460 303.786C65.460 302.906 65.020 302.906 64.860 302.906C64.540 302.906 64.260 302.946 64.260 303.626C64.260 308.786 59.860 309.986 58.580 309.986C55.340 309.986 53.620 306.826 53.620 300.226C53.620 293.626 56.660 292.266 58.820 292.266C60.900 292.266 61.740 293.226 61.740 293.626C61.740 293.986 61.620 294.506 61.020 294.506C59.420 294.506 58.500 296.226 58.500 297.466C58.500 299.746 60.460 300.466 61.580 300.466C61.580 300.466 64.620 300.346 64.620 297.026C64.620 291.786 58.580 291.306 57.820 291.306"></path></g><g><line stroke="black" stroke-width="1.6" x1="455.7194396981808" x2="455.7194396981808" y1="175.8461538461538" y2="321.8461538461538"></line></g><g><g><line stroke="#6A6A6A" stroke-width="1.3" x1="0" x2="510.8093696604534" y1="216.3461538461538" y2="216.3461538461538"></line><line stroke="#6A6A6A" stroke-width="1.3" x1="0" x2="510.8093696604534" y1="206.3461538461538" y2="206.3461538461538"></line><line stroke="#6A6A6A" stroke-width="1.3" x1="0" x2="510.8093696604534" y1="196.3461538461538" y2="196.3461538461538"></line><line stroke="#6A6A6A" stroke-width="1.3" x1="0" x2="510.8093696604534" y1="186.3461538461538" y2="186.3461538461538"></line><line stroke="#6A6A6A" stroke-width="1.3" x1="0" x2="510.8093696604534" y1="176.3461538461538" y2="176.3461538461538"></line></g><g><path d="M25.200 162.426C24.640 162.426 23.400 163.466 22.600 164.346C19.640 167.626 18.680 172.626 18.680 176.786C18.680 179.106 18.960 181.706 19.240 183.346C19.320 183.826 19.360 183.906 18.880 184.306C16.320 186.426 13.560 188.866 11.480 191.426C8.720 194.866 7 198.586 7 202.866C7 209.826 11.760 216.426 21.560 216.426C22.480 216.426 23.520 216.346 24.320 216.186C24.760 216.106 24.840 216.066 24.920 216.546C25.400 219.226 26 222.706 26 224.586C26 230.506 22 231.226 19.640 231.226C17.480 231.226 16.440 230.586 16.440 230.066C16.440 229.626 16.800 229.666 17.720 229.386C18.960 229.026 20.400 227.946 20.400 225.626C20.400 223.426 19 221.546 16.560 221.546C13.880 221.546 12.280 223.666 12.280 226.146C12.280 228.746 13.840 232.666 19.880 232.666C22.560 232.666 27.760 231.466 27.760 224.666C27.760 222.386 27.040 218.586 26.600 216.106C26.520 215.626 26.560 215.666 27.120 215.426C31.160 213.826 33.840 210.426 33.840 205.906C33.840 200.786 30.080 196.266 24.200 196.266C23.080 196.266 23.200 196.466 23.040 195.546L22.040 189.746C21.960 189.266 22.040 189.226 22.280 188.986C22.920 188.386 23.760 187.546 24.520 186.706C27.880 183.026 29.880 178.266 29.880 173.746C29.880 170.266 28.920 166.826 27.280 164.426C26.680 163.546 25.640 162.426 25.200 162.426M20.040 190.586C20.440 190.266 20.520 190.306 20.600 190.746L21.440 195.866C21.560 196.626 21.560 196.586 20.840 196.826C17.320 198.026 15.040 201.186 15.040 204.586C15.040 208.186 16.920 210.746 19.640 211.666C19.960 211.786 20.440 211.906 20.720 211.906C21.040 211.906 21.200 211.706 21.200 211.466C21.200 211.186 20.880 211.066 20.600 210.946C18.920 210.226 17.720 208.506 17.720 206.666C17.720 204.386 19.280 202.666 21.720 201.986C22.360 201.826 22.440 201.866 22.520 202.306L24.520 214.226C24.600 214.666 24.560 214.666 23.960 214.786C23.320 214.906 22.520 214.986 21.720 214.986C14.720 214.986 10.200 211.106 10.200 205.546C10.200 203.186 10.600 200.026 13.920 196.266C16.320 193.586 18.160 192.106 20.040 190.586M24.640 201.666C27.880 201.946 30.560 204.666 30.560 208.186C30.560 210.706 29.040 212.746 26.800 213.866C26.320 214.106 26.240 214.106 26.160 213.626L24.200 202.226C24.120 201.746 24.160 201.626 24.640 201.666M25.800 168.626C27.120 168.626 28.200 169.706 28.200 171.906C28.200 174.666 26.880 177.226 23.760 180.346C23.120 180.986 22.160 181.906 21.240 182.706C20.960 182.946 20.800 182.906 20.720 182.386C20.560 181.346 20.480 179.986 20.480 178.706C20.480 172.466 23.360 168.626 25.800 168.626"></path></g><g></g><path d="M57.820 186.306C56.620 186.306 55.220 186.626 54.140 187.106C50.580 188.666 48.700 192.946 48.700 196.746C48.700 197.106 48.700 197.466 48.740 197.826C48.940 199.986 49.980 202.026 51.300 203.626C52.820 205.466 55.020 206.306 57.420 206.306C64.420 206.306 65.460 199.946 65.460 198.786C65.460 197.906 65.020 197.906 64.860 197.906C64.540 197.906 64.260 197.946 64.260 198.626C64.260 203.786 59.860 204.986 58.580 204.986C55.340 204.986 53.620 201.826 53.620 195.226C53.620 188.626 56.660 187.266 58.820 187.266C60.900 187.266 61.740 188.226 61.740 188.626C61.740 188.986 61.620 189.506 61.020 189.506C59.420 189.506 58.500 191.226 58.500 192.466C58.500 194.746 60.460 195.466 61.580 195.466C61.580 195.466 64.620 195.346 64.620 192.026C64.620 186.786 58.580 186.306 57.820 186.306"></path><g><path d="M-13.200 301.926C-12.040 301.206-10.720 298.366-10.720 296.006C-10.720 295.806-10.720 295.566-10.760 295.366C-11.040 292.966-12.240 289.246-12.240 287.086C-12.240 285.006-11.320 283.006-11.120 282.646C-10.960 282.486-10.920 282.366-10.920 282.246C-10.920 282.166-10.960 282.086-11 282.086C-11.040 282.046-11.080 281.966-11.160 281.966C-11.240 281.966-11.320 282.046-11.480 282.246C-12.360 283.326-13.440 285.646-13.440 289.646C-13.440 293.606-12.040 295.206-12.040 297.726C-12.040 299.606-12.800 300.646-13.920 301.926C-13.200 302.726-12.040 303.366-12.040 305.966C-12.040 308.766-13.440 311.246-13.440 314.166C-13.440 318.166-12.360 320.486-11.480 321.606C-11.320 321.806-11.240 321.846-11.160 321.846C-11.080 321.846-11.040 321.806-11 321.766C-10.960 321.726-10.920 321.686-10.920 321.606C-10.920 321.486-10.960 321.366-11.120 321.166C-11.320 320.846-12.240 318.846-12.240 316.726C-12.240 314.606-11.040 310.846-10.760 308.486C-10.720 308.286-10.720 308.086-10.720 307.846C-10.720 305.486-12.040 302.646-13.200 301.926"></path><line stroke="#000000" stroke-width="1.6" x1="0" x2="0" y1="175.8461538461538" y2="321.8461538461538"></line></g></g><g><line stroke="black" stroke-width="1.6" x1="455.7194396981808" x2="455.7194396981808" y1="175.8461538461538" y2="321.8461538461538"></line></g><g><g><path d="M93.360 346.986C97.360 346.986 102.280 343.266 102.280 339.466C102.280 337.186 100.480 335.706 97.880 335.706C92.960 335.706 89 339.346 89 343.226C89 345.586 90.920 346.986 93.360 346.986"></path></g><line stroke="#000000" stroke-width="1.2" x1="101.68" x2="101.68" y1="339.50615384615384" y2="279.50615384615384"></line><line stroke="#000000" stroke-width="2.2" x1="85.8" x2="107.72" y1="331.3461538461538" y2="331.3461538461538"></line><line stroke="#000000" stroke-width="2.2" x1="85.8" x2="107.72" y1="341.3461538461538" y2="341.3461538461538"></line><g><polygon fill="black" points="101.68,284.3461538461538 140.9699299622726,284.3461538461538 140.9699299622726,279.3461538461538 101.68,279.3461538461538" stroke="black" stroke-width="0"></polygon><polygon fill="black" points="140.9699299622726,284.3461538461538 170.2598599245452,284.3461538461538 170.2598599245452,279.3461538461538 140.9699299622726,279.3461538461538" stroke="black" stroke-width="0"></polygon><polygon fill="black" points="170.2598599245452,284.3461538461538 219.54978988681776,284.3461538461538 219.54978988681776,279.3461538461538 170.2598599245452,279.3461538461538" stroke="black" stroke-width="0"></polygon></g></g><g><g><path d="M132.650 221.986C136.650 221.986 141.570 218.266 141.570 214.466C141.570 212.186 139.770 210.706 137.170 210.706C132.250 210.706 128.290 214.346 128.290 218.226C128.290 220.586 130.210 221.986 132.650 221.986"></path></g><line stroke="#000000" stroke-width="1.2" x1="140.9699299622726" x2="140.9699299622726" y1="214.5061538461538" y2="174.5061538461538"></line></g><g><g><path d="M161.940 346.986C165.940 346.986 170.860 343.266 170.860 339.466C170.860 337.186 169.060 335.706 166.460 335.706C161.540 335.706 157.580 339.346 157.580 343.226C157.580 345.586 159.500 346.986 161.940 346.986"></path></g><line stroke="#000000" stroke-width="1.2" x1="170.2598599245452" x2="170.2598599245452" y1="339.50615384615384" y2="279.50615384615384"></line><line stroke="#000000" stroke-width="2.2" x1="154.3798599245452" x2="176.2998599245452" y1="331.3461538461538" y2="331.3461538461538"></line><line stroke="#000000" stroke-width="2.2" x1="154.3798599245452" x2="176.2998599245452" y1="341.3461538461538" y2="341.3461538461538"></line></g><g><g><path d="M211.230 221.986C215.230 221.986 220.150 218.266 220.150 214.466C220.150 212.186 218.350 210.706 215.750 210.706C210.830 210.706 206.870 214.346 206.870 218.226C206.870 220.586 208.790 221.986 211.230 221.986"></path></g><line stroke="#000000" stroke-width="1.2" x1="219.54978988681776" x2="219.54978988681776" y1="214.5061538461538" y2="174.5061538461538"></line></g><g><g><path d="M260.520 196.986C264.520 196.986 269.440 193.266 269.440 189.466C269.440 187.186 267.640 185.706 265.040 185.706C260.120 185.706 256.160 189.346 256.160 193.226C256.160 195.586 258.080 196.986 260.520 196.986"></path></g><line stroke="#000000" stroke-width="1.2" x1="256.7597198490904" x2="256.7597198490904" y1="193.18615384615381" y2="269.18615384615384"></line><g><polygon fill="black" points="256.7597198490904,270.3461538461538 306.049649811363,270.3461538461538 306.049649811363,265.3461538461538 256.7597198490904,265.3461538461538" stroke="black" stroke-width="0"></polygon><polygon fill="black" points="306.049649811363,270.3461538461538 355.3395797736356,270.3461538461538 355.3395797736356,265.3461538461538 306.049649811363,265.3461538461538" stroke="black" stroke-width="0"></polygon><polygon fill="black" points="355.3395797736356,270.3461538461538 404.6295097359082,270.3461538461538 404.6295097359082,265.3461538461538 355.3395797736356,265.3461538461538" stroke="black" stroke-width="0"></polygon></g></g><g><g><path d="M309.810 221.986C313.810 221.986 318.730 218.266 318.730 214.466C318.730 212.186 316.930 210.706 314.330 210.706C309.410 210.706 305.450 214.346 305.450 218.226C305.450 220.586 307.370 221.986 309.810 221.986"></path></g><line stroke="#000000" stroke-width="1.2" x1="306.049649811363" x2="306.049649811363" y1="218.18615384615381" y2="269.18615384615384"></line></g><g><g><path d="M359.100 346.986C363.100 346.986 368.020 343.266 368.020 339.466C368.020 337.186 366.220 335.706 363.620 335.706C358.700 335.706 354.740 339.346 354.740 343.226C354.740 345.586 356.660 346.986 359.100 346.986"></path></g><line stroke="#000000" stroke-width="1.2" x1="355.3395797736356" x2="355.3395797736356" y1="343.1861538461538" y2="374.1861538461538"></line><line stroke="#000000" stroke-width="2.2" x1="351.5395797736356" x2="373.4595797736356" y1="331.3461538461538" y2="331.3461538461538"></line><line stroke="#000000" stroke-width="2.2" x1="351.5395797736356" x2="373.4595797736356" y1="341.3461538461538" y2="341.3461538461538"></line></g><g><g><path d="M408.390 306.986C412.390 306.986 417.310 303.266 417.310 299.466C417.310 297.186 415.510 295.706 412.910 295.706C407.990 295.706 404.030 299.346 404.030 303.226C404.030 305.586 405.950 306.986 408.390 306.986"></path></g><line stroke="#000000" stroke-width="1.2" x1="404.6295097359082" x2="404.6295097359082" y1="303.1861538461538" y2="374.1861538461538"></line></g></g><g transform="translate(635.3655935443346)"><g><g><line stroke="#6A6A6A" stroke-width="1.3" x1="-166.06978988681783" x2="303.207413055816" y1="216.3461538461538" y2="216.3461538461538"></line><line stroke="#6A6A6A" stroke-width="1.3" x1="-166.06978988681783" x2="303.207413055816" y1="206.3461538461538" y2="206.3461538461538"></line><line stroke="#6A6A6A" stroke-width="1.3" x1="-166.06978988681783" x2="303.207413055816" y1="196.3461538461538" y2="196.3461538461538"></line><line stroke="#6A6A6A" stroke-width="1.3" x1="-166.06978988681783" x2="303.207413055816" y1="186.3461538461538" y2="186.3461538461538"></line><line stroke="#6A6A6A" stroke-width="1.3" x1="-166.06978988681783" x2="303.207413055816" y1="176.3461538461538" y2="176.3461538461538"></line></g></g><g><line stroke="#000000" stroke-width="1.6" x1="293.407413055816" x2="293.407413055816" y1="175.8461538461538" y2="321.8461538461538"></line><line stroke="#000000" stroke-width="5" x1="300.707413055816" x2="300.707413055816" y1="175.8461538461538" y2="321.8461538461538"></line></g><g><g><line stroke="#6A6A6A" stroke-width="1.3" x1="-16.600000000000023" x2="303.207413055816" y1="321.3461538461538" y2="321.3461538461538"></line><line stroke="#6A6A6A" stroke-width="1.3" x1="-16.600000000000023" x2="303.207413055816" y1="311.3461538461538" y2="311.3461538461538"></line><line stroke="#6A6A6A" stroke-width="1.3" x1="-16.600000000000023" x2="303.207413055816" y1="301.3461538461538" y2="301.3461538461538"></line><line stroke="#6A6A6A" stroke-width="1.3" x1="-16.600000000000023" x2="303.207413055816" y1="291.3461538461538" y2="291.3461538461538"></line><line stroke="#6A6A6A" stroke-width="1.3" x1="-16.600000000000023" x2="303.207413055816" y1="281.3461538461538" y2="281.3461538461538"></line></g></g><g><line stroke="black" stroke-width="1.6" x1="293.407413055816" x2="293.407413055816" y1="175.8461538461538" y2="321.8461538461538"></line><line stroke="black" stroke-width="5" x1="300.707413055816" x2="300.707413055816" y1="175.8461538461538" y2="321.8461538461538"></line></g><g><path d="M143.644 190.706L143.644 187.026C143.644 186.426 143.164 185.986 142.604 185.986L133.404 185.986C132.804 185.986 132.364 186.426 132.364 187.026L132.364 190.706C132.364 191.266 132.804 191.746 133.404 191.746L142.604 191.746C143.164 191.746 143.644 191.266 143.644 190.706"></path></g><g><g><path d="M4.360 371.986C8.360 371.986 13.280 368.266 13.280 364.466C13.280 362.186 11.480 360.706 8.880 360.706C3.960 360.706 0 364.346 0 368.226C0 370.586 1.920 371.986 4.360 371.986"></path></g><g><path d="M4.360 361.986C8.360 361.986 13.280 358.266 13.280 354.466C13.280 352.186 11.480 350.706 8.880 350.706C3.960 350.706 0 354.346 0 358.226C0 360.586 1.920 361.986 4.360 361.986"></path></g><g><path d="M4.360 351.986C8.360 351.986 13.280 348.266 13.280 344.466C13.280 342.186 11.480 340.706 8.880 340.706C3.960 340.706 0 344.346 0 348.226C0 350.586 1.920 351.986 4.360 351.986"></path></g><g><path d="M4.360 336.986C8.360 336.986 13.280 333.266 13.280 329.466C13.280 327.186 11.480 325.706 8.880 325.706C3.960 325.706 0 329.346 0 333.226C0 335.586 1.920 336.986 4.360 336.986"></path></g><line stroke="#000000" stroke-width="1.2" x1="12.680000000000001" x2="12.680000000000001" y1="364.50615384615384" y2="269.50615384615384"></line><line stroke="#000000" stroke-width="2.2" x1="-3.2" x2="18.72" y1="331.3461538461538" y2="331.3461538461538"></line><line stroke="#000000" stroke-width="2.2" x1="-3.2" x2="18.72" y1="341.3461538461538" y2="341.3461538461538"></line><line stroke="#000000" stroke-width="2.2" x1="-3.2" x2="18.72" y1="351.3461538461538" y2="351.3461538461538"></line><line stroke="#000000" stroke-width="2.2" x1="-3.2" x2="18.72" y1="361.3461538461538" y2="361.3461538461538"></line><g><polygon fill="black" points="12.680000000000001,274.3461538461538 51.96992996227259,274.3461538461538 51.96992996227259,269.3461538461538 12.680000000000001,269.3461538461538" stroke="black" stroke-width="0"></polygon><polygon fill="black" points="51.96992996227259,274.3461538461538 81.25985992454518,274.3461538461538 81.25985992454518,269.3461538461538 51.96992996227259,269.3461538461538" stroke="black" stroke-width="0"></polygon><polygon fill="black" points="81.25985992454518,274.3461538461538 130.54978988681776,274.3461538461538 130.54978988681776,269.3461538461538 81.25985992454518,269.3461538461538" stroke="black" stroke-width="0"></polygon></g></g><g><g><path d="M43.650 231.986C47.650 231.986 52.570 228.266 52.570 224.466C52.570 222.186 50.770 220.706 48.170 220.706C43.250 220.706 39.290 224.346 39.290 228.226C39.290 230.586 41.210 231.986 43.650 231.986"></path></g><g><path d="M43.650 221.986C47.650 221.986 52.570 218.266 52.570 214.466C52.570 212.186 50.770 210.706 48.170 210.706C43.250 210.706 39.290 214.346 39.290 218.226C39.290 220.586 41.210 221.986 43.650 221.986"></path></g><g><path d="M43.650 211.986C47.650 211.986 52.570 208.266 52.570 204.466C52.570 202.186 50.770 200.706 48.170 200.706C43.250 200.706 39.290 204.346 39.290 208.226C39.290 210.586 41.210 211.986 43.650 211.986"></path></g><line stroke="#000000" stroke-width="1.2" x1="51.96992996227259" x2="51.96992996227259" y1="224.5061538461538" y2="164.5061538461538"></line><line stroke="#000000" stroke-width="2.2" x1="36.089929962272585" x2="58.00992996227258" y1="226.3461538461538" y2="226.3461538461538"></line></g><g><g><path d="M72.940 371.986C76.940 371.986 81.860 368.266 81.860 364.466C81.860 362.186 80.060 360.706 77.460 360.706C72.540 360.706 68.580 364.346 68.580 368.226C68.580 370.586 70.500 371.986 72.940 371.986"></path></g><g><path d="M72.940 361.986C76.940 361.986 81.860 358.266 81.860 354.466C81.860 352.186 80.060 350.706 77.460 350.706C72.540 350.706 68.580 354.346 68.580 358.226C68.580 360.586 70.500 361.986 72.940 361.986"></path></g><g><path d="M72.940 351.986C76.940 351.986 81.860 348.266 81.860 344.466C81.860 342.186 80.060 340.706 77.460 340.706C72.540 340.706 68.580 344.346 68.580 348.226C68.580 350.586 70.500 351.986 72.940 351.986"></path></g><g><path d="M72.940 336.986C76.940 336.986 81.860 333.266 81.860 329.466C81.860 327.186 80.060 325.706 77.460 325.706C72.540 325.706 68.580 329.346 68.580 333.226C68.580 335.586 70.500 336.986 72.940 336.986"></path></g><line stroke="#000000" stroke-width="1.2" x1="81.25985992454518" x2="81.25985992454518" y1="364.50615384615384" y2="269.50615384615384"></line><line stroke="#000000" stroke-width="2.2" x1="65.37985992454517" x2="87.29985992454517" y1="331.3461538461538" y2="331.3461538461538"></line><line stroke="#000000" stroke-width="2.2" x1="65.37985992454517" x2="87.29985992454517" y1="341.3461538461538" y2="341.3461538461538"></line><line stroke="#000000" stroke-width="2.2" x1="65.37985992454517" x2="87.29985992454517" y1="351.3461538461538" y2="351.3461538461538"></line><line stroke="#000000" stroke-width="2.2" x1="65.37985992454517" x2="87.29985992454517" y1="361.3461538461538" y2="361.3461538461538"></line></g><g><g><path d="M122.230 351.986C126.230 351.986 131.150 348.266 131.150 344.466C131.150 342.186 129.350 340.706 126.750 340.706C121.830 340.706 117.870 344.346 117.870 348.226C117.870 350.586 119.790 351.986 122.230 351.986"></path></g><g><path d="M122.230 336.986C126.230 336.986 131.150 333.266 131.150 329.466C131.150 327.186 129.350 325.706 126.750 325.706C121.830 325.706 117.870 329.346 117.870 333.226C117.870 335.586 119.790 336.986 122.230 336.986"></path></g><g><path d="M122.230 326.986C126.230 326.986 131.150 323.266 131.150 319.466C131.150 317.186 129.350 315.706 126.750 315.706C121.830 315.706 117.870 319.346 117.870 323.226C117.870 325.586 119.790 326.986 122.230 326.986"></path></g><g><path d="M122.230 316.986C126.230 316.986 131.150 313.266 131.150 309.466C131.150 307.186 129.350 305.706 126.750 305.706C121.830 305.706 117.870 309.346 117.870 313.226C117.870 315.586 119.790 316.986 122.230 316.986"></path></g><line stroke="#000000" stroke-width="1.2" x1="130.54978988681776" x2="130.54978988681776" y1="344.50615384615384" y2="269.50615384615384"></line><line stroke="#000000" stroke-width="2.2" x1="114.66978988681775" x2="136.58978988681775" y1="331.3461538461538" y2="331.3461538461538"></line><line stroke="#000000" stroke-width="2.2" x1="114.66978988681775" x2="136.58978988681775" y1="341.3461538461538" y2="341.3461538461538"></line></g><g><path d="M178.440 300.386L178.440 296.706C178.440 296.106 177.960 295.666 177.400 295.666L168.200 295.666C167.600 295.666 167.160 296.106 167.160 296.706L167.160 300.386C167.160 300.946 167.600 301.426 168.200 301.426L177.400 301.426C177.960 301.426 178.440 300.946 178.440 300.386"></path></g></g></svg>