<?xml version="1.0" encoding="UTF-8" standalone="no"?><svg xmlns="http://www.w3.org/2000/svg" height="279.4mm" viewBox="0 0 1328.6153846153845 1719.3846153846152" width="215.9mm"><g transform="translate(163.84615384615387)"><g><g><line stroke="#6A6A6A" stroke-width="1.3" x1="0" x2="318.9201715729373" y1="216.3461538461538" y2="216.3461538461538"></line><line stroke="#6A6A6A" stroke-width="1.3" x1="0" x2="318.9201715729373" y1="206.3461538461538" y2="206.3461538461538"></line><line stroke="#6A6A6A" stroke-width="1.3" x1="0" x2="318.9201715729373" y1="196.3461538461538" y2="196.3461538461538"></line><line stroke="#6A6A6A" stroke-width="1.3" x1="0" x2="318.9201715729373" y1="186.3461538461538" y2="186.3461538461538"></line><line stroke="#6A6A6A" stroke-width="1.3" x1="0" x2="318.9201715729373" y1="176.3461538461538" y2="176.3461538461538"></line></g><g><path d="M25.200 162.426C24.640 162.426 23.400 163.466 22.600 164.346C19.640 167.626 18.680 172.626 18.680 176.786C18.680 179.106 18.960 181.706 19.240 183.346C19.320 183.826 19.360 183.906 18.880 184.306C16.320 186.426 13.560 188.866 11.480 191.426C8.720 194.866 7 198.586 7 202.866C7 209.826 11.760 216.426 21.560 216.426C22.480 216.426 23.520 216.346 24.320 216.186C24.760 216.106 24.840 216.066 24.920 216.546C25.400 219.226 26 222.706 26 224.586C26 230.506 22 231.226 19.640 231.226C17.480 231.226 16.440 230.586 16.440 230.066C16.440 229.626 16.800 229.666 17.720 229.386C18.960 229.026 20.400 227.946 20.400 225.626C20.400 223.426 19 221.546 16.560 221.546C13.880 221.546 12.280 223.666 12.280 226.146C12.280 228.746 13.840 232.666 19.880 232.666C22.560 232.666 27.760 231.466 27.760 224.666C27.760 222.386 27.040 218.586 26.600 216.106C26.520 215.626 26.560 215.666 27.120 215.426C31.160 213.826 33.840 210.426 33.840 205.906C33.840 200.786 30.080 196.266 24.200 196.266C23.080 196.266 23.200 196.466 23.040 195.546L22.040 189.746C21.960 189.266 22.040 189.226 22.280 188.986C22.920 188.386 23.760 187.546 24.520 186.706C27.880 183.026 29.880 178.266 29.880 173.746C29.880 170.266 28.920 166.826 27.280 164.426C26.680 163.546 25.640 162.426 25.200 162.426M20.040 190.586C20.440 190.266 20.520 190.306 20.600 190.746L21.440 195.866C21.560 196.626 21.560 196.586 20.840 196.826C17.320 198.026 15.040 201.186 15.040 204.586C15.040 208.186 16.920 210.746 19.640 211.666C19.960 211.786 20.440 211.906 20.720 211.906C21.040 211.906 21.200 211.706 21.200 211.466C21.200 211.186 20.880 211.066 20.600 210.946C18.920 210.226 17.720 208.506 17.720 206.666C17.720 204.386 19.280 202.666 21.720 201.986C22.360 201.826 22.440 201.866 22.520 202.306L24.520 214.226C24.600 214.666 24.560 214.666 23.960 214.786C23.320 214.906 22.520 214.986 21.720 214.986C14.720 214.986 10.200 211.106 10.200 205.546C10.200 203.186 10.600 200.026 13.920 196.266C16.320 193.586 18.160 192.106 20.040 190.586M24.640 201.666C27.880 201.946 30.560 204.666 30.560 208.186C30.560 210.706 29.040 212.746 26.800 213.866C26.320 214.106 26.240 214.106 26.160 213.626L24.200 202.226C24.120 201.746 24.160 201.626 24.640 201.666M25.800 168.626C27.120 168.626 28.200 169.706 28.200 171.906C28.200 174.666 26.880 177.226 23.760 180.346C23.120 180.986 22.160 181.906 21.240 182.706C20.960 182.946 20.800 182.906 20.720 182.386C20.560 181.346 20.480 179.986 20.480 178.706C20.480 172.466 23.360 168.626 25.800 168.626"></path></g><g></g></g><path d="M163.367 245.426C162.367 245.426 161.487 246.066 160.887 246.826L160.727 247.026C160.207 247.626 159.607 248.346 159.247 249.026C158.967 249.506 158.527 250.066 158.327 250.546C158.287 250.626 158.287 250.706 158.287 250.746C158.287 250.906 158.407 251.026 158.527 251.106C158.567 251.146 158.647 251.146 158.687 251.146C158.847 251.146 159.007 251.066 159.247 250.706C159.887 249.826 160.367 248.946 160.927 248.266C161.727 247.306 162.367 246.746 162.687 246.746C163.007 246.746 163.127 247.026 163.127 247.386C163.127 248.026 162.847 248.866 162.767 249.026C162.047 251.106 160.487 254.426 159.967 255.586C159.847 255.826 159.807 255.986 159.807 256.106C159.807 256.306 160.007 256.346 160.447 256.346L162.007 256.346C162.527 256.346 162.567 256.146 162.847 255.666C164.047 253.426 164.887 251.106 166.047 248.946C166.247 248.626 166.367 248.226 167.047 248.226C167.647 248.226 167.647 248.746 167.647 248.946C167.647 249.306 165.287 255.026 165.047 255.586C164.967 255.786 164.927 255.946 164.927 256.066C164.927 256.306 165.087 256.346 165.287 256.346L167.287 256.346C167.647 256.346 167.767 256.226 168.047 255.666C168.327 255.146 170.207 250.146 170.927 248.786C171.247 248.226 171.407 248.146 171.847 248.146C172.287 248.146 172.447 248.466 172.447 248.746C172.447 248.866 172.407 248.986 172.367 249.066C172.327 249.346 172.207 249.586 172.127 249.866C171.807 250.826 171.447 251.786 171.127 252.786L170.647 254.106C170.527 254.426 170.407 254.786 170.407 255.146C170.407 255.266 170.407 255.426 170.447 255.546C170.767 256.426 171.727 256.786 172.567 256.786C174.687 256.786 176.727 253.146 176.927 252.666C177.007 252.506 177.047 252.346 177.047 252.226C177.047 252.026 176.887 251.906 176.767 251.906C176.607 251.946 176.447 251.986 176.167 252.386C176.007 252.666 175.247 253.746 175.087 253.946C174.847 254.306 174.207 255.066 173.847 255.066C173.647 254.986 173.527 254.866 173.527 254.706C173.527 254.506 173.607 254.266 173.687 254.026C173.687 254.026 173.767 253.826 173.807 253.746C174.247 252.666 175.687 248.946 175.687 247.546C175.687 245.986 174.527 245.426 173.327 245.426C172.047 245.426 171.207 246.826 170.807 246.826C170.447 246.826 170.247 245.426 168.607 245.426C167.087 245.426 166.047 246.906 165.687 246.906C165.247 246.906 165.007 245.426 163.367 245.426M172.407 258.386C172.207 258.386 172.047 258.426 171.927 258.466C171.567 258.586 171.167 258.826 170.927 259.106C170.527 259.586 170.287 260.266 170.287 260.906C170.287 261.626 170.527 262.306 171.007 262.786C171.247 263.026 171.607 263.266 171.887 263.386C172.287 263.506 172.767 263.586 173.207 263.586C174.367 263.586 175.527 263.106 176.487 262.466C177.727 261.666 178.647 260.546 179.487 259.226C180.087 258.306 180.487 257.306 180.927 256.306L181.087 255.986C181.527 254.986 181.887 253.946 182.247 252.946L183.087 250.626C183.367 249.866 183.647 249.026 184.007 248.306C184.527 247.306 184.527 247.306 185.887 247.306C187.527 247.306 187.527 247.306 187.527 247.306C188.287 247.306 188.287 247.266 188.287 246.386C188.287 245.546 188.287 245.546 187.567 245.546C186.207 245.546 186.207 245.546 186.207 245.546C185.327 245.546 184.967 245.546 184.967 245.146C184.967 244.906 185.087 244.466 185.327 243.826C186.087 241.786 186.727 240.066 189.167 239.946L189.327 239.946C189.487 239.946 189.647 239.986 189.687 240.186C189.687 240.466 189.687 240.586 189.567 240.666C189.447 240.786 189.247 240.826 189.127 240.866C188.767 241.026 188.527 241.306 188.367 241.586C188.127 241.906 188.007 242.306 188.007 242.706C188.007 243.866 188.607 244.186 189.487 244.186C190.327 244.186 191.647 242.946 191.727 241.466C191.727 239.906 190.727 238.746 188.727 238.666L188.487 238.666C186.207 238.666 184.567 239.586 183.327 240.826C182.007 242.186 181.407 243.146 180.807 244.586C180.447 245.506 180.327 245.546 179.447 245.546L177.567 245.546C176.567 245.546 176.487 245.666 176.487 246.386C176.487 247.306 176.487 247.306 177.207 247.306C178.567 247.306 178.567 247.306 178.567 247.306C179.047 247.306 179.247 247.306 179.247 247.666C179.247 247.906 179.127 248.386 178.887 249.266C178.807 249.586 176.407 258.466 176.167 259.106C175.807 260.026 175.167 260.946 174.407 261.586C174.207 261.746 174.007 261.906 173.727 261.986C173.567 262.066 173.407 262.066 173.287 262.066C172.927 262.066 172.727 261.946 172.687 261.946C173.247 261.826 173.607 261.466 173.727 261.386C173.967 261.106 174.167 260.666 174.167 260.266C174.167 259.666 173.927 258.946 173.407 258.666C173.127 258.506 172.767 258.386 172.407 258.386"></path><g><line stroke="black" stroke-width="1.6" x1="319.7201715729373" x2="319.7201715729373" y1="176.3461538461538" y2="216.3461538461538"></line></g><g><g><path d="M52.980 187.146C60.620 187.146 62.140 180.946 62.140 179.426C62.140 177.066 60.260 175.546 57.580 175.546C50.660 175.546 48.500 180.906 48.500 183.306C48.500 185.746 50.460 187.146 52.980 187.146M56.500 183.466C54.420 184.866 52.980 185.346 51.980 185.346C51.020 185.346 50.460 184.866 50.140 184.306C49.980 184.026 49.860 183.706 49.860 183.386C49.860 182.386 50.860 181.106 54.060 179.266C56.340 177.946 57.780 177.466 58.740 177.466C59.620 177.466 60.100 177.866 60.420 178.426C60.580 178.706 60.700 178.986 60.700 179.306C60.700 180.226 59.740 181.346 56.500 183.466"></path></g><line stroke="#000000" stroke-width="1.2" x1="49.1" x2="49.1" y1="183.30615384615382" y2="218.30615384615382"></line><g><path d="M48.840 200.066C48.960 200.026 61.080 195.946 61.080 195.946C61.600 195.826 61.600 195.546 61.600 195.226C61.600 194.906 61.600 194.666 61.080 194.506L49.080 190.426C48.920 190.386 48.840 190.346 48.720 190.346C48.360 190.346 48.240 190.586 48.120 190.906C48.080 191.066 48.040 191.186 48.040 191.306C48.040 191.506 48.160 191.706 48.600 191.866C48.600 191.866 57.240 194.786 57.640 194.946C57.840 194.986 57.920 195.106 57.920 195.226C57.920 195.346 57.840 195.426 57.600 195.506C57.160 195.626 48.600 198.546 48.600 198.546C48.160 198.746 48.040 198.946 48.040 199.146C48.040 199.266 48.080 199.386 48.120 199.506C48.240 199.786 48.400 200.106 48.680 200.106C48.720 200.106 48.800 200.106 48.840 200.066"></path><path d="M69.640 134.446C69.640 133.286 68.640 132.286 67.440 132.286C66.280 132.286 65.280 133.286 65.280 134.446C65.280 135.646 66.280 136.646 67.440 136.646C68.640 136.646 69.640 135.646 69.640 134.446M67.400 127.686C75.920 127.686 77.640 134.006 78.040 135.526C78.080 135.646 78.080 135.766 78.120 135.806C78.400 136.366 78.480 136.646 78.960 136.646C79.320 136.646 79.520 136.486 79.520 136.086C79.520 135.966 79.520 135.846 79.480 135.686C77 123.446 68.640 123.366 67.480 123.366C66.200 123.366 57.920 123.446 55.480 135.686C55.440 135.846 55.440 136.006 55.440 136.126C55.440 136.526 55.640 136.646 55.960 136.646C56.320 136.646 56.520 136.366 56.760 135.806C56.800 135.766 56.840 135.606 56.880 135.446C57.360 133.806 59.080 127.686 67.400 127.686"></path></g><text font-family="Alegreya" font-size="22" text-anchor="middle" x="55.32" y="256.3461538461538">This</text></g><g><g><path d="M164.167 191.986C168.167 191.986 173.087 188.266 173.087 184.466C173.087 182.186 171.287 180.706 168.687 180.706C163.767 180.706 159.807 184.346 159.807 188.226C159.807 190.586 161.727 191.986 164.167 191.986"></path></g><line stroke="#000000" stroke-width="1.2" x1="160.4070015467914" x2="160.4070015467914" y1="188.18615384615381" y2="223.18615384615381"></line><text font-family="Alegreya" font-size="22" text-anchor="middle" x="166.4470015467914" y="256.3461538461538">is</text></g><g><g><path d="M243.724 201.986C247.724 201.986 252.644 198.266 252.644 194.466C252.644 192.186 250.844 190.706 248.244 190.706C243.324 190.706 239.364 194.346 239.364 198.226C239.364 200.586 241.284 201.986 243.724 201.986"></path></g><line stroke="#000000" stroke-width="1.2" x1="239.96358655986435" x2="239.96358655986435" y1="198.18615384615381" y2="233.18615384615381"></line><text font-family="Alegreya" font-size="22" text-anchor="middle" x="246.00358655986435" y="256.3461538461538">the</text></g><g><g><path d="M52.980 197.146C60.620 197.146 62.140 190.946 62.140 189.426C62.140 187.066 60.260 185.546 57.580 185.546C50.660 185.546 48.500 190.906 48.500 193.306C48.500 195.746 50.460 197.146 52.980 197.146M56.500 193.466C54.420 194.866 52.980 195.346 51.980 195.346C51.020 195.346 50.460 194.866 50.140 194.306C49.980 194.026 49.860 193.706 49.860 193.386C49.860 192.386 50.860 191.106 54.060 189.266C56.340 187.946 57.780 187.466 58.740 187.466C59.620 187.466 60.100 187.866 60.420 188.426C60.580 188.706 60.700 188.986 60.700 189.306C60.700 190.226 59.740 191.346 56.500 193.466"></path></g><line stroke="#000000" stroke-width="1.2" x1="49.1" x2="49.1" y1="193.30615384615382" y2="228.30615384615382"></line><g><path d="M48.840 178.066C48.960 178.026 61.080 173.946 61.080 173.946C61.600 173.826 61.600 173.546 61.600 173.226C61.600 172.906 61.600 172.666 61.080 172.506L49.080 168.426C48.920 168.386 48.840 168.346 48.720 168.346C48.360 168.346 48.240 168.586 48.120 168.906C48.080 169.066 48.040 169.186 48.040 169.306C48.040 169.506 48.160 169.706 48.600 169.866C48.600 169.866 57.240 172.786 57.640 172.946C57.840 172.986 57.920 173.106 57.920 173.226C57.920 173.346 57.840 173.426 57.600 173.506C57.160 173.626 48.600 176.546 48.600 176.546C48.160 176.746 48.040 176.946 48.040 177.146C48.040 177.266 48.080 177.386 48.120 177.506C48.240 177.786 48.400 178.106 48.680 178.106C48.720 178.106 48.800 178.106 48.840 178.066"></path><path d="M69.640 134.446C69.640 133.286 68.640 132.286 67.440 132.286C66.280 132.286 65.280 133.286 65.280 134.446C65.280 135.646 66.280 136.646 67.440 136.646C68.640 136.646 69.640 135.646 69.640 134.446M67.400 127.686C75.920 127.686 77.640 134.006 78.040 135.526C78.080 135.646 78.080 135.766 78.120 135.806C78.400 136.366 78.480 136.646 78.960 136.646C79.320 136.646 79.520 136.486 79.520 136.086C79.520 135.966 79.520 135.846 79.480 135.686C77 123.446 68.640 123.366 67.480 123.366C66.200 123.366 57.920 123.446 55.480 135.686C55.440 135.846 55.440 136.006 55.440 136.126C55.440 136.526 55.640 136.646 55.960 136.646C56.320 136.646 56.520 136.366 56.760 135.806C56.800 135.766 56.840 135.606 56.880 135.446C57.360 133.806 59.080 127.686 67.400 127.686"></path></g><text font-family="Alegreya" font-size="22" text-anchor="middle" x="55.32" y="256.3461538461538">This</text></g><g><g><path d="M164.167 201.986C168.167 201.986 173.087 198.266 173.087 194.466C173.087 192.186 171.287 190.706 168.687 190.706C163.767 190.706 159.807 194.346 159.807 198.226C159.807 200.586 161.727 201.986 164.167 201.986"></path></g><line stroke="#000000" stroke-width="1.2" x1="160.4070015467914" x2="160.4070015467914" y1="198.18615384615381" y2="233.18615384615381"></line><text font-family="Alegreya" font-size="22" text-anchor="middle" x="166.4470015467914" y="256.3461538461538">is</text></g><g><g><path d="M243.724 211.986C247.724 211.986 252.644 208.266 252.644 204.466C252.644 202.186 250.844 200.706 248.244 200.706C243.324 200.706 239.364 204.346 239.364 208.226C239.364 210.586 241.284 211.986 243.724 211.986"></path></g><line stroke="#000000" stroke-width="1.2" x1="252.04358655986437" x2="252.04358655986437" y1="204.5061538461538" y2="169.5061538461538"></line><text font-family="Alegreya" font-size="22" text-anchor="middle" x="246.00358655986435" y="256.3461538461538">the</text></g></g><g transform="translate(499.36632541909114)"><g><g><line stroke="#6A6A6A" stroke-width="1.3" x1="-16.600000000000023" x2="481.30614465358553" y1="216.3461538461538" y2="216.3461538461538"></line><line stroke="#6A6A6A" stroke-width="1.3" x1="-16.600000000000023" x2="481.30614465358553" y1="206.3461538461538" y2="206.3461538461538"></line><line stroke="#6A6A6A" stroke-width="1.3" x1="-16.600000000000023" x2="481.30614465358553" y1="196.3461538461538" y2="196.3461538461538"></line><line stroke="#6A6A6A" stroke-width="1.3" x1="-16.600000000000023" x2="481.30614465358553" y1="186.3461538461538" y2="186.3461538461538"></line><line stroke="#6A6A6A" stroke-width="1.3" x1="-16.600000000000023" x2="481.30614465358553" y1="176.3461538461538" y2="176.3461538461538"></line></g></g><g><line stroke="black" stroke-width="1.6" x1="311.84872657307574" x2="311.84872657307574" y1="176.3461538461538" y2="216.3461538461538"></line></g><g><path d="M9.320 172.786C7.800 170.946 6.560 169.466 6.560 167.226C6.560 167.066 6.600 166.866 6.600 166.706C6.760 164.386 8.200 162.466 9.240 160.826C9.360 160.626 9.400 160.426 9.400 160.226C9.400 159.826 9.240 159.466 9.240 159.466C9.240 159.466 3.320 152.426 2.640 151.746C2.440 151.546 2.160 151.426 1.920 151.426C1.520 151.426 1.120 151.706 1.120 152.266C1.120 152.466 1.160 152.666 1.280 152.906C1.440 153.346 3.720 155.386 3.720 158.266C3.720 159.746 3.120 161.466 1.320 163.346C0.920 163.746 0.760 164.186 0.760 164.506C0.760 165.066 1.160 165.466 1.160 165.466L3.120 167.866C3.760 168.666 4.320 169.426 4.840 170.266C4.920 170.426 5.080 170.626 5.080 170.826C5.080 170.866 5.080 170.946 5.040 170.986C4.960 171.146 4.800 171.186 4.600 171.186C4.360 171.186 4.120 171.106 3.960 171.066C3.760 171.066 3.520 170.946 3.320 170.946C1.600 170.946 0.040 172.666 0.040 174.786C0.040 176.786 1.760 178.746 4.680 180.986C5 181.226 5.400 181.346 5.720 181.346C6 181.346 6.280 181.266 6.320 181.106C6.360 180.986 6.400 180.906 6.400 180.826C6.400 180.466 6.080 180.146 5.760 179.866C5.240 179.866 4.800 178.786 4.720 178.426C4.600 178.106 4.560 177.746 4.560 177.386C4.560 176.146 5.160 174.746 6.440 174.506C6.640 174.466 6.840 174.466 7.080 174.466C8.240 174.466 9.560 174.906 10.200 175.146C10.240 175.146 10.280 175.186 10.320 175.186C10.440 175.226 10.520 175.226 10.600 175.226C10.720 175.226 10.800 175.186 10.800 175.066C10.800 174.586 9.760 173.266 9.320 172.786"></path></g><g><g><path d="M83.917 191.986C87.917 191.986 92.837 188.266 92.837 184.466C92.837 182.186 91.037 180.706 88.437 180.706C83.517 180.706 79.557 184.346 79.557 188.226C79.557 190.586 81.477 191.986 83.917 191.986"></path></g><line stroke="#000000" stroke-width="1.2" x1="80.15658501307297" x2="80.15658501307297" y1="188.18615384615381" y2="223.18615384615381"></line><text font-family="Alegreya" font-size="22" text-anchor="middle" x="86.19658501307298" y="256.3461538461538">lyrics</text></g><g><g><path d="M163.473 236.986C167.473 236.986 172.393 233.266 172.393 229.466C172.393 227.186 170.593 225.706 167.993 225.706C163.073 225.706 159.113 229.346 159.113 233.226C159.113 235.586 161.033 236.986 163.473 236.986"></path><g><circle cx="178.39317002614595" cy="231.3461538461538" fill="#000000" r="2.4"></circle></g></g><line stroke="#000000" stroke-width="1.2" x1="171.79317002614596" x2="171.79317002614596" y1="229.5061538461538" y2="194.5061538461538"></line><line stroke="#000000" stroke-width="2.2" x1="155.91317002614596" x2="177.83317002614595" y1="226.3461538461538" y2="226.3461538461538"></line><text font-family="Alegreya" font-size="22" text-anchor="middle" x="165.75317002614594" y="256.3461538461538">of</text></g><g><g><path d="M267.603 196.986C271.603 196.986 276.523 193.266 276.523 189.466C276.523 187.186 274.723 185.706 272.123 185.706C267.203 185.706 263.243 189.346 263.243 193.226C263.243 195.586 265.163 196.986 267.603 196.986"></path></g><line stroke="#000000" stroke-width="1.2" x1="263.8425580937212" x2="263.8425580937212" y1="193.18615384615381" y2="228.18615384615381"></line><path d="M272.843 196.306C273.403 197.986 273.683 199.986 273.683 201.786C273.683 204.146 272.683 207.506 272.083 208.866C270.603 212.226 268.603 215.466 263.243 217.266L263.243 226.666C263.243 227.146 263.443 227.266 263.683 227.266C264.443 227.266 264.763 227.026 264.843 226.386C265.523 222.586 268.483 219.106 270.523 215.946C273.043 211.986 275.483 207.226 275.483 202.226C275.483 199.106 274.683 196.266 274.363 194.986C274.043 193.706 272.243 194.586 272.843 196.306"></path><text font-family="Alegreya" font-size="22" text-anchor="middle" x="269.8825580937212" y="256.3461538461538">Voice1</text></g><g><path d="M9.320 232.786C7.800 230.946 6.560 229.466 6.560 227.226C6.560 227.066 6.600 226.866 6.600 226.706C6.760 224.386 8.200 222.466 9.240 220.826C9.360 220.626 9.400 220.426 9.400 220.226C9.400 219.826 9.240 219.466 9.240 219.466C9.240 219.466 3.320 212.426 2.640 211.746C2.440 211.546 2.160 211.426 1.920 211.426C1.520 211.426 1.120 211.706 1.120 212.266C1.120 212.466 1.160 212.666 1.280 212.906C1.440 213.346 3.720 215.386 3.720 218.266C3.720 219.746 3.120 221.466 1.320 223.346C0.920 223.746 0.760 224.186 0.760 224.506C0.760 225.066 1.160 225.466 1.160 225.466L3.120 227.866C3.760 228.666 4.320 229.426 4.840 230.266C4.920 230.426 5.080 230.626 5.080 230.826C5.080 230.866 5.080 230.946 5.040 230.986C4.960 231.146 4.800 231.186 4.600 231.186C4.360 231.186 4.120 231.106 3.960 231.066C3.760 231.066 3.520 230.946 3.320 230.946C1.600 230.946 0.040 232.666 0.040 234.786C0.040 236.786 1.760 238.746 4.680 240.986C5 241.226 5.400 241.346 5.720 241.346C6 241.346 6.280 241.266 6.320 241.106C6.360 240.986 6.400 240.906 6.400 240.826C6.400 240.466 6.080 240.146 5.760 239.866C5.240 239.866 4.800 238.786 4.720 238.426C4.600 238.106 4.560 237.746 4.560 237.386C4.560 236.146 5.160 234.746 6.440 234.506C6.640 234.466 6.840 234.466 7.080 234.466C8.240 234.466 9.560 234.906 10.200 235.146C10.240 235.146 10.280 235.186 10.320 235.186C10.440 235.226 10.520 235.226 10.600 235.226C10.720 235.226 10.800 235.186 10.800 235.066C10.800 234.586 9.760 233.266 9.320 232.786"></path></g><g><g><path d="M83.917 201.986C87.917 201.986 92.837 198.266 92.837 194.466C92.837 192.186 91.037 190.706 88.437 190.706C83.517 190.706 79.557 194.346 79.557 198.226C79.557 200.586 81.477 201.986 83.917 201.986"></path></g><line stroke="#000000" stroke-width="1.2" x1="92.23658501307298" x2="92.23658501307298" y1="194.5061538461538" y2="159.5061538461538"></line><text font-family="Alegreya" font-size="22" text-anchor="middle" x="86.19658501307298" y="256.3461538461538">lyrics</text></g><g><g><path d="M163.473 246.986C167.473 246.986 172.393 243.266 172.393 239.466C172.393 237.186 170.593 235.706 167.993 235.706C163.073 235.706 159.113 239.346 159.113 243.226C159.113 245.586 161.033 246.986 163.473 246.986"></path><g><circle cx="178.39317002614595" cy="241.3461538461538" fill="#000000" r="2.4"></circle></g></g><line stroke="#000000" stroke-width="1.2" x1="171.79317002614596" x2="171.79317002614596" y1="239.5061538461538" y2="194.5061538461538"></line><line stroke="#000000" stroke-width="2.2" x1="155.91317002614596" x2="177.83317002614595" y1="226.3461538461538" y2="226.3461538461538"></line><line stroke="#000000" stroke-width="2.2" x1="155.91317002614596" x2="177.83317002614595" y1="236.3461538461538" y2="236.3461538461538"></line><text font-family="Alegreya" font-size="22" text-anchor="middle" x="165.75317002614594" y="256.3461538461538">of</text></g><g><g><path d="M267.603 206.986C271.603 206.986 276.523 203.266 276.523 199.466C276.523 197.186 274.723 195.706 272.123 195.706C267.203 195.706 263.243 199.346 263.243 203.226C263.243 205.586 265.163 206.986 267.603 206.986"></path></g><line stroke="#000000" stroke-width="1.2" x1="275.9225580937212" x2="275.9225580937212" y1="199.5061538461538" y2="164.5061538461538"></line><path d="M284.843 197.586C284.843 197.586 285.883 193.786 285.883 190.666C285.883 185.666 283.803 180.946 281.283 176.946C279.243 173.786 277.563 170.346 276.923 166.506C276.803 165.866 276.483 165.626 275.723 165.626C275.483 165.626 275.323 165.746 275.323 166.226L275.323 175.786C277.963 176.266 281.763 181.706 283.203 185.106C283.803 186.466 284.163 188.746 284.163 191.106C284.163 192.906 283.883 194.786 283.203 196.586C283.123 196.826 283.083 197.026 283.083 197.186C283.083 197.826 283.483 198.186 283.723 198.346C283.963 198.506 284.643 198.266 284.843 197.586"></path><text font-family="Alegreya" font-size="22" text-anchor="middle" x="269.8825580937212" y="256.3461538461538">Voice1</text></g></g><g transform="translate(827.0150519921668)"><g></g><g><line stroke="#000000" stroke-width="1.6" x1="143.8574180805099" x2="143.8574180805099" y1="176.3461538461538" y2="216.3461538461538"></line><line stroke="#000000" stroke-width="5" x1="151.15741808050987" x2="151.15741808050987" y1="176.3461538461538" y2="216.3461538461538"></line></g><g><path d="M68.869 190.706L68.869 187.026C68.869 186.426 68.389 185.986 67.829 185.986L58.629 185.986C58.029 185.986 57.589 186.426 57.589 187.026L57.589 190.706C57.589 191.266 58.029 191.746 58.629 191.746L67.829 191.746C68.389 191.746 68.869 191.266 68.869 190.706"></path></g></g></svg>