<?xml version="1.0" encoding="UTF-8" standalone="no"?><svg xmlns="http://www.w3.org/2000/svg" height="279.4mm" viewBox="0 0 1328.6153846153845 1719.3846153846152" width="215.9mm"><g transform="translate(163.84615384615387)"><g><g><line stroke="#6A6A6A" stroke-width="1.3" x1="0" x2="315.9095517472821" y1="216.3461538461538" y2="216.3461538461538"></line><line stroke="#6A6A6A" stroke-width="1.3" x1="0" x2="315.9095517472821" y1="206.3461538461538" y2="206.3461538461538"></line><line stroke="#6A6A6A" stroke-width="1.3" x1="0" x2="315.9095517472821" y1="196.3461538461538" y2="196.3461538461538"></line><line stroke="#6A6A6A" stroke-width="1.3" x1="0" x2="315.9095517472821" y1="186.3461538461538" y2="186.3461538461538"></line><line stroke="#6A6A6A" stroke-width="1.3" x1="0" x2="315.9095517472821" y1="176.3461538461538" y2="176.3461538461538"></line></g><g><path d="M25.200 162.426C24.640 162.426 23.400 163.466 22.600 164.346C19.640 167.626 18.680 172.626 18.680 176.786C18.680 179.106 18.960 181.706 19.240 183.346C19.320 183.826 19.360 183.906 18.880 184.306C16.320 186.426 13.560 188.866 11.480 191.426C8.720 194.866 7 198.586 7 202.866C7 209.826 11.760 216.426 21.560 216.426C22.480 216.426 23.520 216.346 24.320 216.186C24.760 216.106 24.840 216.066 24.920 216.546C25.400 219.226 26 222.706 26 224.586C26 230.506 22 231.226 19.640 231.226C17.480 231.226 16.440 230.586 16.440 230.066C16.440 229.626 16.800 229.666 17.720 229.386C18.960 229.026 20.400 227.946 20.400 225.626C20.400 223.426 19 221.546 16.560 221.546C13.880 221.546 12.280 223.666 12.280 226.146C12.280 228.746 13.840 232.666 19.880 232.666C22.560 232.666 27.760 231.466 27.760 224.666C27.760 222.386 27.040 218.586 26.600 216.106C26.520 215.626 26.560 215.666 27.120 215.426C31.160 213.826 33.840 210.426 33.840 205.906C33.840 200.786 30.080 196.266 24.200 196.266C23.080 196.266 23.200 196.466 23.040 195.546L22.040 189.746C21.960 189.266 22.040 189.226 22.280 188.986C22.920 188.386 23.760 187.546 24.520 186.706C27.880 183.026 29.880 178.266 29.880 173.746C29.880 170.266 28.920 166.826 27.280 164.426C26.680 163.546 25.640 162.426 25.200 162.426M20.040 190.586C20.440 190.266 20.520 190.306 20.600 190.746L21.440 195.866C21.560 196.626 21.560 196.586 20.840 196.826C17.320 198.026 15.040 201.186 15.040 204.586C15.040 208.186 16.920 210.746 19.640 211.666C19.960 211.786 20.440 211.906 20.720 211.906C21.040 211.906 21.200 211.706 21.200 211.466C21.200 211.186 20.880 211.066 20.600 210.946C18.920 210.226 17.720 208.506 17.720 206.666C17.720 204.386 19.280 202.666 21.720 201.986C22.360 201.826 22.440 201.866 22.520 202.306L24.520 214.226C24.600 214.666 24.560 214.666 23.960 214.786C23.320 214.906 22.520 214.986 21.720 214.986C14.720 214.986 10.200 211.106 10.200 205.546C10.200 203.186 10.600 200.026 13.920 196.266C16.320 193.586 18.160 192.106 20.040 190.586M24.640 201.666C27.880 201.946 30.560 204.666 30.560 208.186C30.560 210.706 29.040 212.746 26.800 213.866C26.320 214.106 26.240 214.106 26.160 213.626L24.200 202.226C24.120 201.746 24.160 201.626 24.640 201.666M25.800 168.626C27.120 168.626 28.200 169.706 28.200 171.906C28.200 174.666 26.880 177.226 23.760 180.346C23.120 180.986 22.160 181.906 21.240 182.706C20.960 182.946 20.800 182.906 20.720 182.386C20.560 181.346 20.480 179.986 20.480 178.706C20.480 172.466 23.360 168.626 25.800 168.626"></path></g><g></g><g><g><path d="M65.180 189.306L62.260 189.306L62.260 180.746C62.260 180.426 62.220 180.066 61.780 180.066C61.420 180.066 61.220 180.146 60.980 180.426L57.180 185.026C57.020 185.226 56.820 185.466 56.820 185.946C56.820 185.946 56.820 187.546 56.820 189.306L51.420 189.306C54.620 186.586 61.020 177.506 61.140 177.066C61.140 176.986 61.180 176.946 61.180 176.866C61.180 176.546 60.900 176.306 60.580 176.306C60.220 176.306 58.580 176.386 57.860 176.386C57.140 176.386 55.340 176.306 55.020 176.306C54.660 176.306 54.100 176.426 54.100 177.066C54.100 182.026 50.180 187.586 48.980 189.266L48.740 189.586C48.740 189.626 48.700 189.666 48.700 189.706C48.620 189.866 48.580 190.026 48.580 190.146C48.580 190.546 48.900 190.826 49.380 190.826L56.820 190.826L56.820 193.346C56.820 194.426 55.940 194.746 55.220 194.746C54.580 194.746 54.300 195.106 54.300 195.506C54.300 195.906 54.460 196.346 55.060 196.346C55.700 196.346 63.580 196.346 63.580 196.346C63.980 196.346 64.380 196.066 64.380 195.506C64.380 194.946 63.900 194.706 63.500 194.706C63.100 194.706 62.260 194.466 62.260 193.186L62.260 190.826C63.980 190.826 65.180 190.826 65.180 190.826C65.580 190.826 65.780 190.546 65.780 190.066C65.780 189.586 65.620 189.306 65.180 189.306"></path></g><g><path d="M65.180 209.306L62.260 209.306L62.260 200.746C62.260 200.426 62.220 200.066 61.780 200.066C61.420 200.066 61.220 200.146 60.980 200.426L57.180 205.026C57.020 205.226 56.820 205.466 56.820 205.946C56.820 205.946 56.820 207.546 56.820 209.306L51.420 209.306C54.620 206.586 61.020 197.506 61.140 197.066C61.140 196.986 61.180 196.946 61.180 196.866C61.180 196.546 60.900 196.306 60.580 196.306C60.220 196.306 58.580 196.386 57.860 196.386C57.140 196.386 55.340 196.306 55.020 196.306C54.660 196.306 54.100 196.426 54.100 197.066C54.100 202.026 50.180 207.586 48.980 209.266L48.740 209.586C48.740 209.626 48.700 209.666 48.700 209.706C48.620 209.866 48.580 210.026 48.580 210.146C48.580 210.546 48.900 210.826 49.380 210.826L56.820 210.826L56.820 213.346C56.820 214.426 55.940 214.746 55.220 214.746C54.580 214.746 54.300 215.106 54.300 215.506C54.300 215.906 54.460 216.346 55.060 216.346C55.700 216.346 63.580 216.346 63.580 216.346C63.980 216.346 64.380 216.066 64.380 215.506C64.380 214.946 63.900 214.706 63.500 214.706C63.100 214.706 62.260 214.466 62.260 213.186L62.260 210.826C63.980 210.826 65.180 210.826 65.180 210.826C65.580 210.826 65.780 210.546 65.780 210.066C65.780 209.586 65.620 209.306 65.180 209.306"></path></g></g><text font-family='Alegreya' font-style='italic' text-anchor='end' stroke='#7a7a7a' font-size="24" x="0" y="166.3461538461538">25</text><g><path d="M-13.200 296.926C-12.040 296.206-10.720 293.366-10.720 291.006C-10.720 290.806-10.720 290.566-10.760 290.366C-11.040 287.966-12.240 284.246-12.240 282.086C-12.240 280.006-11.320 278.006-11.120 277.646C-10.960 277.486-10.920 277.366-10.920 277.246C-10.920 277.166-10.960 277.086-11 277.086C-11.040 277.046-11.080 276.966-11.160 276.966C-11.240 276.966-11.320 277.046-11.480 277.246C-12.360 278.326-13.440 280.646-13.440 284.646C-13.440 288.606-12.040 290.206-12.040 292.726C-12.040 294.606-12.800 295.646-13.920 296.926C-13.200 297.726-12.040 298.366-12.040 300.966C-12.040 303.766-13.440 306.246-13.440 309.166C-13.440 313.166-12.360 315.486-11.480 316.606C-11.320 316.806-11.240 316.846-11.160 316.846C-11.080 316.846-11.040 316.806-11 316.766C-10.960 316.726-10.920 316.686-10.920 316.606C-10.920 316.486-10.960 316.366-11.120 316.166C-11.320 315.846-12.240 313.846-12.240 311.726C-12.240 309.606-11.040 305.846-10.760 303.486C-10.720 303.286-10.720 303.086-10.720 302.846C-10.720 300.486-12.040 297.646-13.200 296.926"></path><line stroke="#000000" stroke-width="1.6" x1="0" x2="0" y1="175.8461538461538" y2="316.8461538461538"></line></g></g><g><line stroke="black" stroke-width="1.6" x1="306.10955174728207" x2="306.10955174728207" y1="175.8461538461538" y2="316.8461538461538"></line><line stroke="black" stroke-width="5" x1="313.4095517472821" x2="313.4095517472821" y1="175.8461538461538" y2="316.8461538461538"></line></g><g><g><line stroke="#6A6A6A" stroke-width="1.3" x1="0" x2="315.9095517472821" y1="316.3461538461538" y2="316.3461538461538"></line><line stroke="#6A6A6A" stroke-width="1.3" x1="0" x2="315.9095517472821" y1="306.3461538461538" y2="306.3461538461538"></line><line stroke="#6A6A6A" stroke-width="1.3" x1="0" x2="315.9095517472821" y1="296.3461538461538" y2="296.3461538461538"></line><line stroke="#6A6A6A" stroke-width="1.3" x1="0" x2="315.9095517472821" y1="286.3461538461538" y2="286.3461538461538"></line><line stroke="#6A6A6A" stroke-width="1.3" x1="0" x2="315.9095517472821" y1="276.3461538461538" y2="276.3461538461538"></line></g><g><path d="M25.200 262.426C24.640 262.426 23.400 263.466 22.600 264.346C19.640 267.626 18.680 272.626 18.680 276.786C18.680 279.106 18.960 281.706 19.240 283.346C19.320 283.826 19.360 283.906 18.880 284.306C16.320 286.426 13.560 288.866 11.480 291.426C8.720 294.866 7 298.586 7 302.866C7 309.826 11.760 316.426 21.560 316.426C22.480 316.426 23.520 316.346 24.320 316.186C24.760 316.106 24.840 316.066 24.920 316.546C25.400 319.226 26 322.706 26 324.586C26 330.506 22 331.226 19.640 331.226C17.480 331.226 16.440 330.586 16.440 330.066C16.440 329.626 16.800 329.666 17.720 329.386C18.960 329.026 20.400 327.946 20.400 325.626C20.400 323.426 19 321.546 16.560 321.546C13.880 321.546 12.280 323.666 12.280 326.146C12.280 328.746 13.840 332.666 19.880 332.666C22.560 332.666 27.760 331.466 27.760 324.666C27.760 322.386 27.040 318.586 26.600 316.106C26.520 315.626 26.560 315.666 27.120 315.426C31.160 313.826 33.840 310.426 33.840 305.906C33.840 300.786 30.080 296.266 24.200 296.266C23.080 296.266 23.200 296.466 23.040 295.546L22.040 289.746C21.960 289.266 22.040 289.226 22.280 288.986C22.920 288.386 23.760 287.546 24.520 286.706C27.880 283.026 29.880 278.266 29.880 273.746C29.880 270.266 28.920 266.826 27.280 264.426C26.680 263.546 25.640 262.426 25.200 262.426M20.040 290.586C20.440 290.266 20.520 290.306 20.600 290.746L21.440 295.866C21.560 296.626 21.560 296.586 20.840 296.826C17.320 298.026 15.040 301.186 15.040 304.586C15.040 308.186 16.920 310.746 19.640 311.666C19.960 311.786 20.440 311.906 20.720 311.906C21.040 311.906 21.200 311.706 21.200 311.466C21.200 311.186 20.880 311.066 20.600 310.946C18.920 310.226 17.720 308.506 17.720 306.666C17.720 304.386 19.280 302.666 21.720 301.986C22.360 301.826 22.440 301.866 22.520 302.306L24.520 314.226C24.600 314.666 24.560 314.666 23.960 314.786C23.320 314.906 22.520 314.986 21.720 314.986C14.720 314.986 10.200 311.106 10.200 305.546C10.200 303.186 10.600 300.026 13.920 296.266C16.320 293.586 18.160 292.106 20.040 290.586M24.640 301.666C27.880 301.946 30.560 304.666 30.560 308.186C30.560 310.706 29.040 312.746 26.800 313.866C26.320 314.106 26.240 314.106 26.160 313.626L24.200 302.226C24.120 301.746 24.160 301.626 24.640 301.666M25.800 268.626C27.120 268.626 28.200 269.706 28.200 271.906C28.200 274.666 26.880 277.226 23.760 280.346C23.120 280.986 22.160 281.906 21.240 282.706C20.960 282.946 20.800 282.906 20.720 282.386C20.560 281.346 20.480 279.986 20.480 278.706C20.480 272.466 23.360 268.626 25.800 268.626"></path></g><g></g><g><g><path d="M65.180 289.306L62.260 289.306L62.260 280.746C62.260 280.426 62.220 280.066 61.780 280.066C61.420 280.066 61.220 280.146 60.980 280.426L57.180 285.026C57.020 285.226 56.820 285.466 56.820 285.946C56.820 285.946 56.820 287.546 56.820 289.306L51.420 289.306C54.620 286.586 61.020 277.506 61.140 277.066C61.140 276.986 61.180 276.946 61.180 276.866C61.180 276.546 60.900 276.306 60.580 276.306C60.220 276.306 58.580 276.386 57.860 276.386C57.140 276.386 55.340 276.306 55.020 276.306C54.660 276.306 54.100 276.426 54.100 277.066C54.100 282.026 50.180 287.586 48.980 289.266L48.740 289.586C48.740 289.626 48.700 289.666 48.700 289.706C48.620 289.866 48.580 290.026 48.580 290.146C48.580 290.546 48.900 290.826 49.380 290.826L56.820 290.826L56.820 293.346C56.820 294.426 55.940 294.746 55.220 294.746C54.580 294.746 54.300 295.106 54.300 295.506C54.300 295.906 54.460 296.346 55.060 296.346C55.700 296.346 63.580 296.346 63.580 296.346C63.980 296.346 64.380 296.066 64.380 295.506C64.380 294.946 63.900 294.706 63.500 294.706C63.100 294.706 62.260 294.466 62.260 293.186L62.260 290.826C63.980 290.826 65.180 290.826 65.180 290.826C65.580 290.826 65.780 290.546 65.780 290.066C65.780 289.586 65.620 289.306 65.180 289.306"></path></g><g><path d="M65.180 309.306L62.260 309.306L62.260 300.746C62.260 300.426 62.220 300.066 61.780 300.066C61.420 300.066 61.220 300.146 60.980 300.426L57.180 305.026C57.020 305.226 56.820 305.466 56.820 305.946C56.820 305.946 56.820 307.546 56.820 309.306L51.420 309.306C54.620 306.586 61.020 297.506 61.140 297.066C61.140 296.986 61.180 296.946 61.180 296.866C61.180 296.546 60.900 296.306 60.580 296.306C60.220 296.306 58.580 296.386 57.860 296.386C57.140 296.386 55.340 296.306 55.020 296.306C54.660 296.306 54.100 296.426 54.100 297.066C54.100 302.026 50.180 307.586 48.980 309.266L48.740 309.586C48.740 309.626 48.700 309.666 48.700 309.706C48.620 309.866 48.580 310.026 48.580 310.146C48.580 310.546 48.900 310.826 49.380 310.826L56.820 310.826L56.820 313.346C56.820 314.426 55.940 314.746 55.220 314.746C54.580 314.746 54.300 315.106 54.300 315.506C54.300 315.906 54.460 316.346 55.060 316.346C55.700 316.346 63.580 316.346 63.580 316.346C63.980 316.346 64.380 316.066 64.380 315.506C64.380 314.946 63.900 314.706 63.500 314.706C63.100 314.706 62.260 314.466 62.260 313.186L62.260 310.826C63.980 310.826 65.180 310.826 65.180 310.826C65.580 310.826 65.780 310.546 65.780 310.066C65.780 309.586 65.620 309.306 65.180 309.306"></path></g></g><text font-family='Alegreya' font-style='italic' text-anchor='end' stroke='#7a7a7a' font-size="24" x="0" y="266.3461538461538">25</text></g><g><line stroke="black" stroke-width="1.6" x1="306.10955174728207" x2="306.10955174728207" y1="175.8461538461538" y2="316.8461538461538"></line><line stroke="black" stroke-width="5" x1="313.4095517472821" x2="313.4095517472821" y1="175.8461538461538" y2="316.8461538461538"></line></g><g><g><path d="M93.480 187.146C101.120 187.146 102.640 180.946 102.640 179.426C102.640 177.066 100.760 175.546 98.080 175.546C91.160 175.546 89 180.906 89 183.306C89 185.746 90.960 187.146 93.480 187.146M97 183.466C94.920 184.866 93.480 185.346 92.480 185.346C91.520 185.346 90.960 184.866 90.640 184.306C90.480 184.026 90.360 183.706 90.360 183.386C90.360 182.386 91.360 181.106 94.560 179.266C96.840 177.946 98.280 177.466 99.240 177.466C100.120 177.466 100.600 177.866 100.920 178.426C101.080 178.706 101.200 178.986 101.200 179.306C101.200 180.226 100.240 181.346 97 183.466"></path></g><line stroke="#000000" stroke-width="1.2" x1="89.6" x2="89.6" y1="183.30615384615382" y2="218.30615384615382"></line></g><g><g><path d="M126.451 276.986C130.451 276.986 135.371 273.266 135.371 269.466C135.371 267.186 133.571 265.706 130.971 265.706C126.051 265.706 122.091 269.346 122.091 273.226C122.091 275.586 124.011 276.986 126.451 276.986"></path></g><line stroke="#000000" stroke-width="1.2" x1="122.69137654060214" x2="122.69137654060214" y1="273.1861538461538" y2="299.4361538461538"></line><path d="M131.691 266.516C132.291 269.876 132.291 273.516 130.771 276.636C128.011 282.236 124.771 282.356 122.291 282.436L122.091 282.436L122.091 298.276C122.091 298.276 122.531 298.316 122.771 298.316C123.011 298.316 123.491 298.236 123.571 297.796C124.531 291.636 132.411 289.916 133.371 283.636C133.451 283.196 133.491 282.716 133.491 282.196C133.491 279.756 132.611 277.356 132.491 277.116C132.451 277.036 132.451 276.956 132.451 276.836C132.451 276.676 132.491 276.596 132.491 276.476C133.931 273.476 133.971 269.556 133.331 266.356C133.131 265.436 132.851 265.476 132.371 265.476C131.891 265.516 131.571 265.836 131.691 266.516M131.131 279.716C131.331 279.716 131.611 279.836 131.651 279.996C131.851 280.276 131.851 280.676 131.931 280.996C131.971 281.276 131.971 281.556 131.971 281.796C131.971 283.116 131.611 284.316 130.891 285.356C129.571 287.316 127.011 289.556 124.571 289.556L124.251 289.556C123.931 289.556 123.691 289.356 123.691 289.156C123.691 289.116 123.691 289.076 123.731 289.036C124.571 285.756 126.811 284.836 128.691 282.636C129.531 281.716 130.211 280.916 130.851 279.876C130.931 279.756 131.011 279.716 131.131 279.716"></path></g><g><g><path d="M126.451 271.986C130.451 271.986 135.371 268.266 135.371 264.466C135.371 262.186 133.571 260.706 130.971 260.706C126.051 260.706 122.091 264.346 122.091 268.226C122.091 270.586 124.011 271.986 126.451 271.986"></path></g><line stroke="#000000" stroke-width="1.2" x1="122.69137654060214" x2="122.69137654060214" y1="268.1861538461538" y2="294.4361538461538"></line><line stroke="#000000" stroke-width="2.2" x1="118.89137654060214" x2="140.81137654060214" y1="266.3461538461538" y2="266.3461538461538"></line><path d="M131.691 261.516C132.291 264.876 132.291 268.516 130.771 271.636C128.011 277.236 124.771 277.356 122.291 277.436L122.091 277.436L122.091 293.276C122.091 293.276 122.531 293.316 122.771 293.316C123.011 293.316 123.491 293.236 123.571 292.796C124.531 286.636 132.411 284.916 133.371 278.636C133.451 278.196 133.491 277.716 133.491 277.196C133.491 274.756 132.611 272.356 132.491 272.116C132.451 272.036 132.451 271.956 132.451 271.836C132.451 271.676 132.491 271.596 132.491 271.476C133.931 268.476 133.971 264.556 133.331 261.356C133.131 260.436 132.851 260.476 132.371 260.476C131.891 260.516 131.571 260.836 131.691 261.516M131.131 274.716C131.331 274.716 131.611 274.836 131.651 274.996C131.851 275.276 131.851 275.676 131.931 275.996C131.971 276.276 131.971 276.556 131.971 276.796C131.971 278.116 131.611 279.316 130.891 280.356C129.571 282.316 127.011 284.556 124.571 284.556L124.251 284.556C123.931 284.556 123.691 284.356 123.691 284.156C123.691 284.116 123.691 284.076 123.731 284.036C124.571 280.756 126.811 279.836 128.691 277.636C129.531 276.716 130.211 275.916 130.851 274.876C130.931 274.756 131.011 274.716 131.131 274.716"></path></g><g><path d="M137.291 189.466C137.091 189.466 136.971 189.546 136.851 189.626C136.571 189.866 134.571 192.266 133.211 192.306L133.211 191.906C133.211 190.386 132.011 189.186 130.491 189.186C129.011 189.186 127.771 190.386 127.771 191.906C127.771 192.706 128.251 193.466 128.891 193.946C129.211 194.186 129.611 194.386 130.011 194.506C130.291 194.586 130.611 194.626 130.971 194.626C131.531 194.626 132.171 194.506 132.651 194.346C133.211 194.186 133.571 194.026 134.091 193.746C134.211 193.706 134.291 193.666 134.371 193.666C134.491 193.666 134.571 193.746 134.571 193.946C134.571 194.066 134.531 194.266 134.451 194.546C134.371 194.866 132.611 200.386 132.251 201.146C131.931 201.906 130.851 202.386 130.291 202.386C130.331 202.226 130.331 202.106 130.331 201.986C130.331 200.466 129.091 199.266 127.611 199.266C126.091 199.266 124.891 200.466 124.891 201.986C124.891 202.786 125.371 203.546 126.011 204.026C126.331 204.266 126.691 204.466 127.091 204.586C127.411 204.666 127.731 204.706 128.091 204.706C128.651 204.706 129.291 204.586 129.771 204.426C130.331 204.266 130.571 204.146 131.091 203.866C131.171 203.866 131.251 203.946 131.251 204.066C131.251 204.106 131.211 204.146 131.211 204.186L127.411 215.506C127.411 215.546 127.371 215.586 127.371 215.626C127.371 215.946 127.731 216.346 128.611 216.346C129.771 216.346 129.971 215.866 130.131 215.426L134.771 200.186C135.811 196.786 136.571 194.106 136.571 194.106C136.571 194.106 137.571 190.586 137.651 190.066C137.651 189.986 137.691 189.946 137.691 189.906C137.691 189.586 137.371 189.506 137.291 189.466"></path></g><g><path d="M168.463 202.786C166.943 200.946 165.703 199.466 165.703 197.226C165.703 197.066 165.743 196.866 165.743 196.706C165.903 194.386 167.343 192.466 168.383 190.826C168.503 190.626 168.543 190.426 168.543 190.226C168.543 189.826 168.383 189.466 168.383 189.466C168.383 189.466 162.463 182.426 161.783 181.746C161.583 181.546 161.303 181.426 161.063 181.426C160.663 181.426 160.263 181.706 160.263 182.266C160.263 182.466 160.303 182.666 160.423 182.906C160.583 183.346 162.863 185.386 162.863 188.266C162.863 189.746 162.263 191.466 160.463 193.346C160.063 193.746 159.903 194.186 159.903 194.506C159.903 195.066 160.303 195.466 160.303 195.466L162.263 197.866C162.903 198.666 163.463 199.426 163.983 200.266C164.063 200.426 164.223 200.626 164.223 200.826C164.223 200.866 164.223 200.946 164.183 200.986C164.103 201.146 163.943 201.186 163.743 201.186C163.503 201.186 163.263 201.106 163.103 201.066C162.903 201.066 162.663 200.946 162.463 200.946C160.743 200.946 159.183 202.666 159.183 204.786C159.183 206.786 160.903 208.746 163.823 210.986C164.143 211.226 164.543 211.346 164.863 211.346C165.143 211.346 165.423 211.266 165.463 211.106C165.503 210.986 165.543 210.906 165.543 210.826C165.543 210.466 165.223 210.146 164.903 209.866C164.383 209.866 163.943 208.786 163.863 208.426C163.743 208.106 163.703 207.746 163.703 207.386C163.703 206.146 164.303 204.746 165.583 204.506C165.783 204.466 165.983 204.466 166.223 204.466C167.383 204.466 168.703 204.906 169.343 205.146C169.383 205.146 169.423 205.186 169.463 205.186C169.583 205.226 169.663 205.226 169.743 205.226C169.863 205.226 169.943 205.186 169.943 205.066C169.943 204.586 168.903 203.266 168.463 202.786"></path></g><g><path d="M247.503 189.666C247.423 189.666 247.303 189.666 247.063 189.826C246.783 190.066 244.783 192.466 243.463 192.466L243.463 192.066C243.463 190.586 242.263 189.386 240.783 189.386C239.303 189.386 238.103 190.586 238.103 192.066C238.103 192.906 238.583 193.626 239.183 194.106C239.543 194.346 239.903 194.546 240.303 194.626C240.623 194.706 240.983 194.786 241.343 194.786C241.903 194.786 242.463 194.666 242.903 194.506C243.463 194.346 243.823 194.186 244.343 193.906C244.423 193.866 244.503 193.866 244.543 193.866C244.703 193.866 244.743 194.026 244.743 194.226C244.743 194.346 244.743 194.506 244.703 194.666C244.583 195.266 241.703 203.226 240.983 205.866C240.983 206.346 241.903 206.386 242.143 206.386C242.583 206.386 243.143 206.306 243.543 205.986C243.663 205.906 247.583 191.866 247.583 191.866C247.743 191.146 247.943 190.506 247.983 190.306C247.983 189.786 247.583 189.706 247.503 189.666"></path></g></g></svg>