<?xml version="1.0" encoding="UTF-8" standalone="no"?><svg xmlns="http://www.w3.org/2000/svg" height="279.4mm" viewBox="0 0 1328.6153846153845 1719.3846153846152" width="215.9mm"><g transform="translate(163.84615384615387)"><g><g><line stroke="#6A6A6A" stroke-width="1.3" x1="0" x2="172.8948" y1="216.3461538461538" y2="216.3461538461538"></line><line stroke="#6A6A6A" stroke-width="1.3" x1="0" x2="172.8948" y1="206.3461538461538" y2="206.3461538461538"></line><line stroke="#6A6A6A" stroke-width="1.3" x1="0" x2="172.8948" y1="196.3461538461538" y2="196.3461538461538"></line><line stroke="#6A6A6A" stroke-width="1.3" x1="0" x2="172.8948" y1="186.3461538461538" y2="186.3461538461538"></line><line stroke="#6A6A6A" stroke-width="1.3" x1="0" x2="172.8948" y1="176.3461538461538" y2="176.3461538461538"></line></g><g><path d="M25.200 162.426C24.640 162.426 23.400 163.466 22.600 164.346C19.640 167.626 18.680 172.626 18.680 176.786C18.680 179.106 18.960 181.706 19.240 183.346C19.320 183.826 19.360 183.906 18.880 184.306C16.320 186.426 13.560 188.866 11.480 191.426C8.720 194.866 7 198.586 7 202.866C7 209.826 11.760 216.426 21.560 216.426C22.480 216.426 23.520 216.346 24.320 216.186C24.760 216.106 24.840 216.066 24.920 216.546C25.400 219.226 26 222.706 26 224.586C26 230.506 22 231.226 19.640 231.226C17.480 231.226 16.440 230.586 16.440 230.066C16.440 229.626 16.800 229.666 17.720 229.386C18.960 229.026 20.400 227.946 20.400 225.626C20.400 223.426 19 221.546 16.560 221.546C13.880 221.546 12.280 223.666 12.280 226.146C12.280 228.746 13.840 232.666 19.880 232.666C22.560 232.666 27.760 231.466 27.760 224.666C27.760 222.386 27.040 218.586 26.600 216.106C26.520 215.626 26.560 215.666 27.120 215.426C31.160 213.826 33.840 210.426 33.840 205.906C33.840 200.786 30.080 196.266 24.200 196.266C23.080 196.266 23.200 196.466 23.040 195.546L22.040 189.746C21.960 189.266 22.040 189.226 22.280 188.986C22.920 188.386 23.760 187.546 24.520 186.706C27.880 183.026 29.880 178.266 29.880 173.746C29.880 170.266 28.920 166.826 27.280 164.426C26.680 163.546 25.640 162.426 25.200 162.426M20.040 190.586C20.440 190.266 20.520 190.306 20.600 190.746L21.440 195.866C21.560 196.626 21.560 196.586 20.840 196.826C17.320 198.026 15.040 201.186 15.040 204.586C15.040 208.186 16.920 210.746 19.640 211.666C19.960 211.786 20.440 211.906 20.720 211.906C21.040 211.906 21.200 211.706 21.200 211.466C21.200 211.186 20.880 211.066 20.600 210.946C18.920 210.226 17.720 208.506 17.720 206.666C17.720 204.386 19.280 202.666 21.720 201.986C22.360 201.826 22.440 201.866 22.520 202.306L24.520 214.226C24.600 214.666 24.560 214.666 23.960 214.786C23.320 214.906 22.520 214.986 21.720 214.986C14.720 214.986 10.200 211.106 10.200 205.546C10.200 203.186 10.600 200.026 13.920 196.266C16.320 193.586 18.160 192.106 20.040 190.586M24.640 201.666C27.880 201.946 30.560 204.666 30.560 208.186C30.560 210.706 29.040 212.746 26.800 213.866C26.320 214.106 26.240 214.106 26.160 213.626L24.200 202.226C24.120 201.746 24.160 201.626 24.640 201.666M25.800 168.626C27.120 168.626 28.200 169.706 28.200 171.906C28.200 174.666 26.880 177.226 23.760 180.346C23.120 180.986 22.160 181.906 21.240 182.706C20.960 182.946 20.800 182.906 20.720 182.386C20.560 181.346 20.480 179.986 20.480 178.706C20.480 172.466 23.360 168.626 25.800 168.626"></path></g><g></g><g><g><path d="M65.180 189.306L62.260 189.306L62.260 180.746C62.260 180.426 62.220 180.066 61.780 180.066C61.420 180.066 61.220 180.146 60.980 180.426L57.180 185.026C57.020 185.226 56.820 185.466 56.820 185.946C56.820 185.946 56.820 187.546 56.820 189.306L51.420 189.306C54.620 186.586 61.020 177.506 61.140 177.066C61.140 176.986 61.180 176.946 61.180 176.866C61.180 176.546 60.900 176.306 60.580 176.306C60.220 176.306 58.580 176.386 57.860 176.386C57.140 176.386 55.340 176.306 55.020 176.306C54.660 176.306 54.100 176.426 54.100 177.066C54.100 182.026 50.180 187.586 48.980 189.266L48.740 189.586C48.740 189.626 48.700 189.666 48.700 189.706C48.620 189.866 48.580 190.026 48.580 190.146C48.580 190.546 48.900 190.826 49.380 190.826L56.820 190.826L56.820 193.346C56.820 194.426 55.940 194.746 55.220 194.746C54.580 194.746 54.300 195.106 54.300 195.506C54.300 195.906 54.460 196.346 55.060 196.346C55.700 196.346 63.580 196.346 63.580 196.346C63.980 196.346 64.380 196.066 64.380 195.506C64.380 194.946 63.900 194.706 63.500 194.706C63.100 194.706 62.260 194.466 62.260 193.186L62.260 190.826C63.980 190.826 65.180 190.826 65.180 190.826C65.580 190.826 65.780 190.546 65.780 190.066C65.780 189.586 65.620 189.306 65.180 189.306"></path></g><g><path d="M65.180 209.306L62.260 209.306L62.260 200.746C62.260 200.426 62.220 200.066 61.780 200.066C61.420 200.066 61.220 200.146 60.980 200.426L57.180 205.026C57.020 205.226 56.820 205.466 56.820 205.946C56.820 205.946 56.820 207.546 56.820 209.306L51.420 209.306C54.620 206.586 61.020 197.506 61.140 197.066C61.140 196.986 61.180 196.946 61.180 196.866C61.180 196.546 60.900 196.306 60.580 196.306C60.220 196.306 58.580 196.386 57.860 196.386C57.140 196.386 55.340 196.306 55.020 196.306C54.660 196.306 54.100 196.426 54.100 197.066C54.100 202.026 50.180 207.586 48.980 209.266L48.740 209.586C48.740 209.626 48.700 209.666 48.700 209.706C48.620 209.866 48.580 210.026 48.580 210.146C48.580 210.546 48.900 210.826 49.380 210.826L56.820 210.826L56.820 213.346C56.820 214.426 55.940 214.746 55.220 214.746C54.580 214.746 54.300 215.106 54.300 215.506C54.300 215.906 54.460 216.346 55.060 216.346C55.700 216.346 63.580 216.346 63.580 216.346C63.980 216.346 64.380 216.066 64.380 215.506C64.380 214.946 63.900 214.706 63.500 214.706C63.100 214.706 62.260 214.466 62.260 213.186L62.260 210.826C63.980 210.826 65.180 210.826 65.180 210.826C65.580 210.826 65.780 210.546 65.780 210.066C65.780 209.586 65.620 209.306 65.180 209.306"></path></g></g><g><path d="M-13.200 296.926C-12.040 296.206-10.720 293.366-10.720 291.006C-10.720 290.806-10.720 290.566-10.760 290.366C-11.040 287.966-12.240 284.246-12.240 282.086C-12.240 280.006-11.320 278.006-11.120 277.646C-10.960 277.486-10.920 277.366-10.920 277.246C-10.920 277.166-10.960 277.086-11 277.086C-11.040 277.046-11.080 276.966-11.160 276.966C-11.240 276.966-11.320 277.046-11.480 277.246C-12.360 278.326-13.440 280.646-13.440 284.646C-13.440 288.606-12.040 290.206-12.040 292.726C-12.040 294.606-12.800 295.646-13.920 296.926C-13.200 297.726-12.040 298.366-12.040 300.966C-12.040 303.766-13.440 306.246-13.440 309.166C-13.440 313.166-12.360 315.486-11.480 316.606C-11.320 316.806-11.240 316.846-11.160 316.846C-11.080 316.846-11.040 316.806-11 316.766C-10.960 316.726-10.920 316.686-10.920 316.606C-10.920 316.486-10.960 316.366-11.120 316.166C-11.320 315.846-12.240 313.846-12.240 311.726C-12.240 309.606-11.040 305.846-10.760 303.486C-10.720 303.286-10.720 303.086-10.720 302.846C-10.720 300.486-12.040 297.646-13.200 296.926"></path><line stroke="#000000" stroke-width="1.6" x1="0" x2="0" y1="175.8461538461538" y2="316.8461538461538"></line></g></g><g><g><line stroke="#6A6A6A" stroke-width="1.3" x1="0" x2="498.30422564102565" y1="216.3461538461538" y2="216.3461538461538"></line><line stroke="#6A6A6A" stroke-width="1.3" x1="0" x2="498.30422564102565" y1="206.3461538461538" y2="206.3461538461538"></line><line stroke="#6A6A6A" stroke-width="1.3" x1="0" x2="498.30422564102565" y1="196.3461538461538" y2="196.3461538461538"></line><line stroke="#6A6A6A" stroke-width="1.3" x1="0" x2="498.30422564102565" y1="186.3461538461538" y2="186.3461538461538"></line><line stroke="#6A6A6A" stroke-width="1.3" x1="0" x2="498.30422564102565" y1="176.3461538461538" y2="176.3461538461538"></line></g><g><path d="M114.200 162.426C113.640 162.426 112.400 163.466 111.600 164.346C108.640 167.626 107.680 172.626 107.680 176.786C107.680 179.106 107.960 181.706 108.240 183.346C108.320 183.826 108.360 183.906 107.880 184.306C105.320 186.426 102.560 188.866 100.480 191.426C97.720 194.866 96 198.586 96 202.866C96 209.826 100.760 216.426 110.560 216.426C111.480 216.426 112.520 216.346 113.320 216.186C113.760 216.106 113.840 216.066 113.920 216.546C114.400 219.226 115 222.706 115 224.586C115 230.506 111 231.226 108.640 231.226C106.480 231.226 105.440 230.586 105.440 230.066C105.440 229.626 105.800 229.666 106.720 229.386C107.960 229.026 109.400 227.946 109.400 225.626C109.400 223.426 108 221.546 105.560 221.546C102.880 221.546 101.280 223.666 101.280 226.146C101.280 228.746 102.840 232.666 108.880 232.666C111.560 232.666 116.760 231.466 116.760 224.666C116.760 222.386 116.040 218.586 115.600 216.106C115.520 215.626 115.560 215.666 116.120 215.426C120.160 213.826 122.840 210.426 122.840 205.906C122.840 200.786 119.080 196.266 113.200 196.266C112.080 196.266 112.200 196.466 112.040 195.546L111.040 189.746C110.960 189.266 111.040 189.226 111.280 188.986C111.920 188.386 112.760 187.546 113.520 186.706C116.880 183.026 118.880 178.266 118.880 173.746C118.880 170.266 117.920 166.826 116.280 164.426C115.680 163.546 114.640 162.426 114.200 162.426M109.040 190.586C109.440 190.266 109.520 190.306 109.600 190.746L110.440 195.866C110.560 196.626 110.560 196.586 109.840 196.826C106.320 198.026 104.040 201.186 104.040 204.586C104.040 208.186 105.920 210.746 108.640 211.666C108.960 211.786 109.440 211.906 109.720 211.906C110.040 211.906 110.200 211.706 110.200 211.466C110.200 211.186 109.880 211.066 109.600 210.946C107.920 210.226 106.720 208.506 106.720 206.666C106.720 204.386 108.280 202.666 110.720 201.986C111.360 201.826 111.440 201.866 111.520 202.306L113.520 214.226C113.600 214.666 113.560 214.666 112.960 214.786C112.320 214.906 111.520 214.986 110.720 214.986C103.720 214.986 99.200 211.106 99.200 205.546C99.200 203.186 99.600 200.026 102.920 196.266C105.320 193.586 107.160 192.106 109.040 190.586M113.640 201.666C116.880 201.946 119.560 204.666 119.560 208.186C119.560 210.706 118.040 212.746 115.800 213.866C115.320 214.106 115.240 214.106 115.160 213.626L113.200 202.226C113.120 201.746 113.160 201.626 113.640 201.666M114.800 168.626C116.120 168.626 117.200 169.706 117.200 171.906C117.200 174.666 115.880 177.226 112.760 180.346C112.120 180.986 111.160 181.906 110.240 182.706C109.960 182.946 109.800 182.906 109.720 182.386C109.560 181.346 109.480 179.986 109.480 178.706C109.480 172.466 112.360 168.626 114.800 168.626"></path></g><g><path d="M141.980 171.626C142.260 171.506 142.460 171.186 142.460 170.946L142.460 168.106C142.460 167.906 142.340 167.786 142.180 167.786C142.100 167.786 142.060 167.786 141.980 167.826C141.980 167.826 141.180 168.146 140.980 168.186C140.700 168.186 140.420 167.986 140.420 167.666C140.420 167.266 140.420 162.786 140.420 162.786C140.420 162.546 140.180 162.346 139.860 162.346C139.460 162.346 139.220 162.546 139.220 162.786C139.220 162.786 139.220 167.586 139.220 167.986C139.180 168.386 139.060 168.906 138.700 169.146C138.220 169.426 136.860 169.986 136.180 170.146C135.820 170.146 135.700 169.666 135.700 169.346C135.700 168.946 135.700 164.546 135.700 164.546C135.700 164.306 135.420 164.106 135.140 164.106C134.740 164.106 134.500 164.306 134.500 164.546C134.500 164.546 134.500 166.706 134.500 168.306L134.500 169.946C134.500 170.506 134.260 170.906 134.020 171.026C133.780 171.146 132.980 171.466 132.980 171.466C132.700 171.546 132.500 171.866 132.500 172.106L132.500 174.946C132.500 175.186 132.620 175.306 132.820 175.306C132.860 175.306 132.940 175.266 132.980 175.266C132.980 175.266 133.580 175.026 133.860 174.866C133.900 174.866 133.940 174.826 133.980 174.826C134.260 174.826 134.500 175.226 134.500 175.546L134.500 179.506C134.500 179.946 134.300 180.306 134.060 180.426C133.820 180.506 132.980 180.866 132.980 180.866C132.700 180.946 132.500 181.266 132.500 181.506L132.500 184.346C132.500 184.586 132.620 184.706 132.820 184.706C132.860 184.706 132.940 184.666 132.980 184.666C132.980 184.666 133.540 184.426 133.900 184.306C133.940 184.266 133.980 184.266 134.020 184.266C134.300 184.266 134.500 184.706 134.500 184.906C134.500 185.146 134.500 189.826 134.500 189.826C134.500 190.066 134.740 190.266 135.020 190.266C135.420 190.266 135.700 190.066 135.700 189.826C135.700 189.826 135.700 184.746 135.700 184.266C135.700 183.746 135.900 183.466 136.100 183.386L138.540 182.386C138.580 182.386 138.660 182.346 138.700 182.346C139.020 182.346 139.220 182.826 139.220 183.066C139.220 183.346 139.220 188.066 139.220 188.066C139.220 188.306 139.460 188.506 139.740 188.506C140.180 188.506 140.420 188.306 140.420 188.066C140.420 188.066 140.420 182.666 140.420 182.386C140.420 182.066 140.580 181.586 140.860 181.466C141.140 181.346 141.980 181.026 141.980 181.026C142.260 180.906 142.460 180.586 142.460 180.346L142.460 177.506C142.460 177.306 142.340 177.186 142.180 177.186C142.100 177.186 142.060 177.186 141.980 177.226C141.980 177.226 141.140 177.546 140.940 177.626C140.700 177.626 140.420 177.386 140.420 176.906L140.420 173.186C140.420 172.906 140.620 172.146 140.940 172.026C141.260 171.906 141.980 171.626 141.980 171.626M139.220 178.146C138.980 178.946 137.100 179.746 136.180 179.746C135.940 179.746 135.740 179.666 135.700 179.546C135.620 179.386 135.580 178.506 135.580 177.546C135.580 176.306 135.620 174.906 135.700 174.586C135.780 173.906 137.620 173.066 138.620 173.066C138.900 173.066 139.140 173.146 139.220 173.306C139.300 173.506 139.380 174.506 139.380 175.586C139.380 176.666 139.300 177.786 139.220 178.146"></path><path d="M152.980 186.626C153.260 186.506 153.460 186.186 153.460 185.946L153.460 183.106C153.460 182.906 153.340 182.786 153.180 182.786C153.100 182.786 153.060 182.786 152.980 182.826C152.980 182.826 152.180 183.146 151.980 183.186C151.700 183.186 151.420 182.986 151.420 182.666C151.420 182.266 151.420 177.786 151.420 177.786C151.420 177.546 151.180 177.346 150.860 177.346C150.460 177.346 150.220 177.546 150.220 177.786C150.220 177.786 150.220 182.586 150.220 182.986C150.180 183.386 150.060 183.906 149.700 184.146C149.220 184.426 147.860 184.986 147.180 185.146C146.820 185.146 146.700 184.666 146.700 184.346C146.700 183.946 146.700 179.546 146.700 179.546C146.700 179.306 146.420 179.106 146.140 179.106C145.740 179.106 145.500 179.306 145.500 179.546C145.500 179.546 145.500 181.706 145.500 183.306L145.500 184.946C145.500 185.506 145.260 185.906 145.020 186.026C144.780 186.146 143.980 186.466 143.980 186.466C143.700 186.546 143.500 186.866 143.500 187.106L143.500 189.946C143.500 190.186 143.620 190.306 143.820 190.306C143.860 190.306 143.940 190.266 143.980 190.266C143.980 190.266 144.580 190.026 144.860 189.866C144.900 189.866 144.940 189.826 144.980 189.826C145.260 189.826 145.500 190.226 145.500 190.546L145.500 194.506C145.500 194.946 145.300 195.306 145.060 195.426C144.820 195.506 143.980 195.866 143.980 195.866C143.700 195.946 143.500 196.266 143.500 196.506L143.500 199.346C143.500 199.586 143.620 199.706 143.820 199.706C143.860 199.706 143.940 199.666 143.980 199.666C143.980 199.666 144.540 199.426 144.900 199.306C144.940 199.266 144.980 199.266 145.020 199.266C145.300 199.266 145.500 199.706 145.500 199.906C145.500 200.146 145.500 204.826 145.500 204.826C145.500 205.066 145.740 205.266 146.020 205.266C146.420 205.266 146.700 205.066 146.700 204.826C146.700 204.826 146.700 199.746 146.700 199.266C146.700 198.746 146.900 198.466 147.100 198.386L149.540 197.386C149.580 197.386 149.660 197.346 149.700 197.346C150.020 197.346 150.220 197.826 150.220 198.066C150.220 198.346 150.220 203.066 150.220 203.066C150.220 203.306 150.460 203.506 150.740 203.506C151.180 203.506 151.420 203.306 151.420 203.066C151.420 203.066 151.420 197.666 151.420 197.386C151.420 197.066 151.580 196.586 151.860 196.466C152.140 196.346 152.980 196.026 152.980 196.026C153.260 195.906 153.460 195.586 153.460 195.346L153.460 192.506C153.460 192.306 153.340 192.186 153.180 192.186C153.100 192.186 153.060 192.186 152.980 192.226C152.980 192.226 152.140 192.546 151.940 192.626C151.700 192.626 151.420 192.386 151.420 191.906L151.420 188.186C151.420 187.906 151.620 187.146 151.940 187.026C152.260 186.906 152.980 186.626 152.980 186.626M150.220 193.146C149.980 193.946 148.100 194.746 147.180 194.746C146.940 194.746 146.740 194.666 146.700 194.546C146.620 194.386 146.580 193.506 146.580 192.546C146.580 191.306 146.620 189.906 146.700 189.586C146.780 188.906 148.620 188.066 149.620 188.066C149.900 188.066 150.140 188.146 150.220 188.306C150.300 188.506 150.380 189.506 150.380 190.586C150.380 191.666 150.300 192.786 150.220 193.146"></path></g><g><path d="M-13.200 296.926C-12.040 296.206-10.720 293.366-10.720 291.006C-10.720 290.806-10.720 290.566-10.760 290.366C-11.040 287.966-12.240 284.246-12.240 282.086C-12.240 280.006-11.320 278.006-11.120 277.646C-10.960 277.486-10.920 277.366-10.920 277.246C-10.920 277.166-10.960 277.086-11 277.086C-11.040 277.046-11.080 276.966-11.160 276.966C-11.240 276.966-11.320 277.046-11.480 277.246C-12.360 278.326-13.440 280.646-13.440 284.646C-13.440 288.606-12.040 290.206-12.040 292.726C-12.040 294.606-12.800 295.646-13.920 296.926C-13.200 297.726-12.040 298.366-12.040 300.966C-12.040 303.766-13.440 306.246-13.440 309.166C-13.440 313.166-12.360 315.486-11.480 316.606C-11.320 316.806-11.240 316.846-11.160 316.846C-11.080 316.846-11.040 316.806-11 316.766C-10.960 316.726-10.920 316.686-10.920 316.606C-10.920 316.486-10.960 316.366-11.120 316.166C-11.320 315.846-12.240 313.846-12.240 311.726C-12.240 309.606-11.040 305.846-10.760 303.486C-10.720 303.286-10.720 303.086-10.720 302.846C-10.720 300.486-12.040 297.646-13.200 296.926"></path><line stroke="#000000" stroke-width="1.6" x1="0" x2="0" y1="175.8461538461538" y2="316.8461538461538"></line></g></g><g><line stroke="black" stroke-width="1.6" x1="488.5042256410257" x2="488.5042256410257" y1="175.8461538461538" y2="316.8461538461538"></line><line stroke="black" stroke-width="5" x1="495.8042256410257" x2="495.8042256410257" y1="175.8461538461538" y2="316.8461538461538"></line></g><g><g><line stroke="#6A6A6A" stroke-width="1.3" x1="0" x2="498.30422564102565" y1="316.3461538461538" y2="316.3461538461538"></line><line stroke="#6A6A6A" stroke-width="1.3" x1="0" x2="498.30422564102565" y1="306.3461538461538" y2="306.3461538461538"></line><line stroke="#6A6A6A" stroke-width="1.3" x1="0" x2="498.30422564102565" y1="296.3461538461538" y2="296.3461538461538"></line><line stroke="#6A6A6A" stroke-width="1.3" x1="0" x2="498.30422564102565" y1="286.3461538461538" y2="286.3461538461538"></line><line stroke="#6A6A6A" stroke-width="1.3" x1="0" x2="498.30422564102565" y1="276.3461538461538" y2="276.3461538461538"></line></g><g><path d="M25.200 262.426C24.640 262.426 23.400 263.466 22.600 264.346C19.640 267.626 18.680 272.626 18.680 276.786C18.680 279.106 18.960 281.706 19.240 283.346C19.320 283.826 19.360 283.906 18.880 284.306C16.320 286.426 13.560 288.866 11.480 291.426C8.720 294.866 7 298.586 7 302.866C7 309.826 11.760 316.426 21.560 316.426C22.480 316.426 23.520 316.346 24.320 316.186C24.760 316.106 24.840 316.066 24.920 316.546C25.400 319.226 26 322.706 26 324.586C26 330.506 22 331.226 19.640 331.226C17.480 331.226 16.440 330.586 16.440 330.066C16.440 329.626 16.800 329.666 17.720 329.386C18.960 329.026 20.400 327.946 20.400 325.626C20.400 323.426 19 321.546 16.560 321.546C13.880 321.546 12.280 323.666 12.280 326.146C12.280 328.746 13.840 332.666 19.880 332.666C22.560 332.666 27.760 331.466 27.760 324.666C27.760 322.386 27.040 318.586 26.600 316.106C26.520 315.626 26.560 315.666 27.120 315.426C31.160 313.826 33.840 310.426 33.840 305.906C33.840 300.786 30.080 296.266 24.200 296.266C23.080 296.266 23.200 296.466 23.040 295.546L22.040 289.746C21.960 289.266 22.040 289.226 22.280 288.986C22.920 288.386 23.760 287.546 24.520 286.706C27.880 283.026 29.880 278.266 29.880 273.746C29.880 270.266 28.920 266.826 27.280 264.426C26.680 263.546 25.640 262.426 25.200 262.426M20.040 290.586C20.440 290.266 20.520 290.306 20.600 290.746L21.440 295.866C21.560 296.626 21.560 296.586 20.840 296.826C17.320 298.026 15.040 301.186 15.040 304.586C15.040 308.186 16.920 310.746 19.640 311.666C19.960 311.786 20.440 311.906 20.720 311.906C21.040 311.906 21.200 311.706 21.200 311.466C21.200 311.186 20.880 311.066 20.600 310.946C18.920 310.226 17.720 308.506 17.720 306.666C17.720 304.386 19.280 302.666 21.720 301.986C22.360 301.826 22.440 301.866 22.520 302.306L24.520 314.226C24.600 314.666 24.560 314.666 23.960 314.786C23.320 314.906 22.520 314.986 21.720 314.986C14.720 314.986 10.200 311.106 10.200 305.546C10.200 303.186 10.600 300.026 13.920 296.266C16.320 293.586 18.160 292.106 20.040 290.586M24.640 301.666C27.880 301.946 30.560 304.666 30.560 308.186C30.560 310.706 29.040 312.746 26.800 313.866C26.320 314.106 26.240 314.106 26.160 313.626L24.200 302.226C24.120 301.746 24.160 301.626 24.640 301.666M25.800 268.626C27.120 268.626 28.200 269.706 28.200 271.906C28.200 274.666 26.880 277.226 23.760 280.346C23.120 280.986 22.160 281.906 21.240 282.706C20.960 282.946 20.800 282.906 20.720 282.386C20.560 281.346 20.480 279.986 20.480 278.706C20.480 272.466 23.360 268.626 25.800 268.626"></path></g><g></g><g><g><path d="M65.180 289.306L62.260 289.306L62.260 280.746C62.260 280.426 62.220 280.066 61.780 280.066C61.420 280.066 61.220 280.146 60.980 280.426L57.180 285.026C57.020 285.226 56.820 285.466 56.820 285.946C56.820 285.946 56.820 287.546 56.820 289.306L51.420 289.306C54.620 286.586 61.020 277.506 61.140 277.066C61.140 276.986 61.180 276.946 61.180 276.866C61.180 276.546 60.900 276.306 60.580 276.306C60.220 276.306 58.580 276.386 57.860 276.386C57.140 276.386 55.340 276.306 55.020 276.306C54.660 276.306 54.100 276.426 54.100 277.066C54.100 282.026 50.180 287.586 48.980 289.266L48.740 289.586C48.740 289.626 48.700 289.666 48.700 289.706C48.620 289.866 48.580 290.026 48.580 290.146C48.580 290.546 48.900 290.826 49.380 290.826L56.820 290.826L56.820 293.346C56.820 294.426 55.940 294.746 55.220 294.746C54.580 294.746 54.300 295.106 54.300 295.506C54.300 295.906 54.460 296.346 55.060 296.346C55.700 296.346 63.580 296.346 63.580 296.346C63.980 296.346 64.380 296.066 64.380 295.506C64.380 294.946 63.900 294.706 63.500 294.706C63.100 294.706 62.260 294.466 62.260 293.186L62.260 290.826C63.980 290.826 65.180 290.826 65.180 290.826C65.580 290.826 65.780 290.546 65.780 290.066C65.780 289.586 65.620 289.306 65.180 289.306"></path></g><g><path d="M65.180 309.306L62.260 309.306L62.260 300.746C62.260 300.426 62.220 300.066 61.780 300.066C61.420 300.066 61.220 300.146 60.980 300.426L57.180 305.026C57.020 305.226 56.820 305.466 56.820 305.946C56.820 305.946 56.820 307.546 56.820 309.306L51.420 309.306C54.620 306.586 61.020 297.506 61.140 297.066C61.140 296.986 61.180 296.946 61.180 296.866C61.180 296.546 60.900 296.306 60.580 296.306C60.220 296.306 58.580 296.386 57.860 296.386C57.140 296.386 55.340 296.306 55.020 296.306C54.660 296.306 54.100 296.426 54.100 297.066C54.100 302.026 50.180 307.586 48.980 309.266L48.740 309.586C48.740 309.626 48.700 309.666 48.700 309.706C48.620 309.866 48.580 310.026 48.580 310.146C48.580 310.546 48.900 310.826 49.380 310.826L56.820 310.826L56.820 313.346C56.820 314.426 55.940 314.746 55.220 314.746C54.580 314.746 54.300 315.106 54.300 315.506C54.300 315.906 54.460 316.346 55.060 316.346C55.700 316.346 63.580 316.346 63.580 316.346C63.980 316.346 64.380 316.066 64.380 315.506C64.380 314.946 63.900 314.706 63.500 314.706C63.100 314.706 62.260 314.466 62.260 313.186L62.260 310.826C63.980 310.826 65.180 310.826 65.180 310.826C65.580 310.826 65.780 310.546 65.780 310.066C65.780 309.586 65.620 309.306 65.180 309.306"></path></g></g></g><g><line stroke="black" stroke-width="1.6" x1="488.5042256410257" x2="488.5042256410257" y1="175.8461538461538" y2="316.8461538461538"></line><line stroke="black" stroke-width="5" x1="495.8042256410257" x2="495.8042256410257" y1="175.8461538461538" y2="316.8461538461538"></line></g><g><g><path d="M182.295 205.866C176.495 205.866 172.895 208.306 172.895 211.266C172.895 214.186 175.375 216.786 181.855 216.786C188.975 216.786 191.255 214.306 191.255 211.266C191.255 208.186 186.335 205.866 182.295 205.866M177.735 208.586C178.215 207.106 179.815 206.866 181.175 206.866C184.135 206.866 186.535 210.066 186.535 212.706C186.535 212.986 186.495 213.266 186.455 213.506C186.255 214.586 185.615 215.346 184.535 215.626C184.095 215.746 183.655 215.786 183.215 215.786C182.815 215.786 182.455 215.746 182.055 215.626C181.335 215.386 180.615 214.986 180.015 214.466C179.695 214.186 179.375 213.866 179.095 213.506C178.255 212.506 177.575 211.026 177.575 209.666C177.575 209.306 177.615 208.946 177.735 208.586"></path><path d="M170.375 203.906L169.775 204.106C169.695 204.106 169.655 204.146 169.615 204.146C169.615 204.146 167.055 205.066 166.015 205.066C165.775 205.066 165.615 205.026 165.615 204.866C165.615 204.186 165.615 198.186 165.615 198.186C165.615 197.906 165.375 197.706 165.135 197.706L164.615 197.706C164.335 197.706 164.135 197.906 164.135 198.186L164.135 218.786C164.135 219.026 164.255 219.146 164.455 219.146C164.495 219.146 164.575 219.106 164.615 219.106C164.615 219.106 164.695 219.106 164.735 219.066C165.295 218.826 167.535 217.866 168.695 217.866C169.095 217.866 169.375 217.986 169.375 218.306C169.375 219.146 169.375 224.266 169.375 224.266C169.375 224.546 169.575 224.746 169.855 224.746L170.375 224.746C170.615 224.746 170.855 224.546 170.855 224.266L170.855 204.186C170.855 203.986 170.695 203.866 170.535 203.866C170.495 203.866 170.415 203.866 170.375 203.906M165.615 209.786C165.615 209.226 168.055 208.186 169.015 208.186C169.255 208.186 169.375 208.226 169.375 208.386L169.375 212.506C169.375 213.226 167.095 214.146 166.095 214.146C165.815 214.146 165.615 214.066 165.615 213.906"></path></g></g><g><g><path d="M182.295 360.866C176.495 360.866 172.895 363.306 172.895 366.266C172.895 369.186 175.375 371.786 181.855 371.786C188.975 371.786 191.255 369.306 191.255 366.266C191.255 363.186 186.335 360.866 182.295 360.866M177.735 363.586C178.215 362.106 179.815 361.866 181.175 361.866C184.135 361.866 186.535 365.066 186.535 367.706C186.535 367.986 186.495 368.266 186.455 368.506C186.255 369.586 185.615 370.346 184.535 370.626C184.095 370.746 183.655 370.786 183.215 370.786C182.815 370.786 182.455 370.746 182.055 370.626C181.335 370.386 180.615 369.986 180.015 369.466C179.695 369.186 179.375 368.866 179.095 368.506C178.255 367.506 177.575 366.026 177.575 364.666C177.575 364.306 177.615 363.946 177.735 363.586"></path></g><line stroke="#000000" stroke-width="2.2" x1="169.69480000000001" x2="196.4948" y1="326.3461538461538" y2="326.3461538461538"></line><line stroke="#000000" stroke-width="2.2" x1="169.69480000000001" x2="196.4948" y1="336.3461538461538" y2="336.3461538461538"></line><line stroke="#000000" stroke-width="2.2" x1="169.69480000000001" x2="196.4948" y1="346.3461538461538" y2="346.3461538461538"></line><line stroke="#000000" stroke-width="2.2" x1="169.69480000000001" x2="196.4948" y1="356.3461538461538" y2="356.3461538461538"></line><line stroke="#000000" stroke-width="2.2" x1="169.69480000000001" x2="196.4948" y1="366.3461538461538" y2="366.3461538461538"></line></g></g></svg>