<?xml version="1.0" encoding="UTF-8" standalone="no"?><svg xmlns="http://www.w3.org/2000/svg" height="279.4mm" viewBox="0 0 1328.6153846153845 1719.3846153846152" width="215.9mm"><g transform="translate(163.84615384615387)"><g><g><line stroke="#6A6A6A" stroke-width="1.3" x1="0" x2="190.4108938512463" y1="216.3461538461538" y2="216.3461538461538"></line><line stroke="#6A6A6A" stroke-width="1.3" x1="0" x2="190.4108938512463" y1="206.3461538461538" y2="206.3461538461538"></line><line stroke="#6A6A6A" stroke-width="1.3" x1="0" x2="190.4108938512463" y1="196.3461538461538" y2="196.3461538461538"></line><line stroke="#6A6A6A" stroke-width="1.3" x1="0" x2="190.4108938512463" y1="186.3461538461538" y2="186.3461538461538"></line><line stroke="#6A6A6A" stroke-width="1.3" x1="0" x2="190.4108938512463" y1="176.3461538461538" y2="176.3461538461538"></line></g><g><path d="M25.200 162.426C24.640 162.426 23.400 163.466 22.600 164.346C19.640 167.626 18.680 172.626 18.680 176.786C18.680 179.106 18.960 181.706 19.240 183.346C19.320 183.826 19.360 183.906 18.880 184.306C16.320 186.426 13.560 188.866 11.480 191.426C8.720 194.866 7 198.586 7 202.866C7 209.826 11.760 216.426 21.560 216.426C22.480 216.426 23.520 216.346 24.320 216.186C24.760 216.106 24.840 216.066 24.920 216.546C25.400 219.226 26 222.706 26 224.586C26 230.506 22 231.226 19.640 231.226C17.480 231.226 16.440 230.586 16.440 230.066C16.440 229.626 16.800 229.666 17.720 229.386C18.960 229.026 20.400 227.946 20.400 225.626C20.400 223.426 19 221.546 16.560 221.546C13.880 221.546 12.280 223.666 12.280 226.146C12.280 228.746 13.840 232.666 19.880 232.666C22.560 232.666 27.760 231.466 27.760 224.666C27.760 222.386 27.040 218.586 26.600 216.106C26.520 215.626 26.560 215.666 27.120 215.426C31.160 213.826 33.840 210.426 33.840 205.906C33.840 200.786 30.080 196.266 24.200 196.266C23.080 196.266 23.200 196.466 23.040 195.546L22.040 189.746C21.960 189.266 22.040 189.226 22.280 188.986C22.920 188.386 23.760 187.546 24.520 186.706C27.880 183.026 29.880 178.266 29.880 173.746C29.880 170.266 28.920 166.826 27.280 164.426C26.680 163.546 25.640 162.426 25.200 162.426M20.040 190.586C20.440 190.266 20.520 190.306 20.600 190.746L21.440 195.866C21.560 196.626 21.560 196.586 20.840 196.826C17.320 198.026 15.040 201.186 15.040 204.586C15.040 208.186 16.920 210.746 19.640 211.666C19.960 211.786 20.440 211.906 20.720 211.906C21.040 211.906 21.200 211.706 21.200 211.466C21.200 211.186 20.880 211.066 20.600 210.946C18.920 210.226 17.720 208.506 17.720 206.666C17.720 204.386 19.280 202.666 21.720 201.986C22.360 201.826 22.440 201.866 22.520 202.306L24.520 214.226C24.600 214.666 24.560 214.666 23.960 214.786C23.320 214.906 22.520 214.986 21.720 214.986C14.720 214.986 10.200 211.106 10.200 205.546C10.200 203.186 10.600 200.026 13.920 196.266C16.320 193.586 18.160 192.106 20.040 190.586M24.640 201.666C27.880 201.946 30.560 204.666 30.560 208.186C30.560 210.706 29.040 212.746 26.800 213.866C26.320 214.106 26.240 214.106 26.160 213.626L24.200 202.226C24.120 201.746 24.160 201.626 24.640 201.666M25.800 168.626C27.120 168.626 28.200 169.706 28.200 171.906C28.200 174.666 26.880 177.226 23.760 180.346C23.120 180.986 22.160 181.906 21.240 182.706C20.960 182.946 20.800 182.906 20.720 182.386C20.560 181.346 20.480 179.986 20.480 178.706C20.480 172.466 23.360 168.626 25.800 168.626"></path></g><g></g><g><g><path d="M56.380 176.426C56.180 176.426 55.980 176.386 55.780 176.386C52.340 176.386 48.900 178.666 48.900 180.786C48.900 182.106 49.660 183.866 52.140 184.026L52.340 184.026C54.100 184.026 54.980 182.746 54.980 181.426L54.980 181.106C54.860 179.626 53.860 179.546 53.660 179.466C53.460 179.386 52.860 179.466 52.860 178.906L52.860 178.746C52.940 178.066 54.180 177.746 54.540 177.746C57.940 177.746 58.260 179.866 58.260 180.826L58.260 181.106C58.260 184.066 55.900 185.226 53.380 185.346C52.980 185.386 52.420 185.586 52.420 186.026C52.420 186.506 53.100 186.506 53.420 186.506C58.020 186.506 58.380 189.626 58.380 190.146C58.380 194.386 56.220 194.866 55.340 194.866C55.180 194.866 55.020 194.826 54.980 194.826C54.660 194.786 53.900 194.786 53.860 194.186L53.860 193.986C53.860 193.106 54.740 192.506 54.780 191.346C54.780 190.946 54.740 190.506 54.580 190.106C54.140 189.106 52.980 188.466 51.900 188.466C51.740 188.466 51.620 188.466 51.460 188.506C50.780 188.626 50.020 189.026 49.540 189.546C48.860 190.146 48.660 191.106 48.660 191.986C48.740 195.106 51.580 196.306 55.500 196.386L55.860 196.386C59.820 196.386 63.900 194.346 63.900 190.826L63.900 190.546C63.860 189.986 63.780 189.426 63.540 188.906C63.380 188.506 63.100 188.106 62.780 187.746C62.540 187.426 62.220 187.146 61.820 186.906L60.980 186.426L59.660 186.066C59.460 186.026 59.340 186.026 59.260 185.866C59.220 185.786 59.220 185.746 59.220 185.666C59.220 185.506 59.260 185.346 59.380 185.306C59.820 185.186 60.260 185.146 60.620 184.946C61.220 184.666 61.740 184.386 62.180 183.866C62.820 183.146 63.060 182.226 63.060 181.306C63.060 177.626 58.060 176.546 56.380 176.426"></path></g><g><path d="M65.180 209.306L62.260 209.306L62.260 200.746C62.260 200.426 62.220 200.066 61.780 200.066C61.420 200.066 61.220 200.146 60.980 200.426L57.180 205.026C57.020 205.226 56.820 205.466 56.820 205.946C56.820 205.946 56.820 207.546 56.820 209.306L51.420 209.306C54.620 206.586 61.020 197.506 61.140 197.066C61.140 196.986 61.180 196.946 61.180 196.866C61.180 196.546 60.900 196.306 60.580 196.306C60.220 196.306 58.580 196.386 57.860 196.386C57.140 196.386 55.340 196.306 55.020 196.306C54.660 196.306 54.100 196.426 54.100 197.066C54.100 202.026 50.180 207.586 48.980 209.266L48.740 209.586C48.740 209.626 48.700 209.666 48.700 209.706C48.620 209.866 48.580 210.026 48.580 210.146C48.580 210.546 48.900 210.826 49.380 210.826L56.820 210.826L56.820 213.346C56.820 214.426 55.940 214.746 55.220 214.746C54.580 214.746 54.300 215.106 54.300 215.506C54.300 215.906 54.460 216.346 55.060 216.346C55.700 216.346 63.580 216.346 63.580 216.346C63.980 216.346 64.380 216.066 64.380 215.506C64.380 214.946 63.900 214.706 63.500 214.706C63.100 214.706 62.260 214.466 62.260 213.186L62.260 210.826C63.980 210.826 65.180 210.826 65.180 210.826C65.580 210.826 65.780 210.546 65.780 210.066C65.780 209.586 65.620 209.306 65.180 209.306"></path></g></g></g><g><line stroke="black" stroke-width="1.6" x1="191.2108938512463" x2="191.2108938512463" y1="176.3461538461538" y2="216.3461538461538"></line></g><g><g><path d="M93.360 201.986C97.360 201.986 102.280 198.266 102.280 194.466C102.280 192.186 100.480 190.706 97.880 190.706C92.960 190.706 89 194.346 89 198.226C89 200.586 90.920 201.986 93.360 201.986"></path></g><line stroke="#000000" stroke-width="1.2" x1="89.6" x2="89.6" y1="198.18615384615381" y2="232.18615384615381"></line><g><polygon fill="black" points="85.6,251.5061538461538 140.00682495899267,251.5061538461538 140.00682495899267,249.9061538461538 85.6,249.9061538461538" stroke="black" stroke-width="0"></polygon><line fill="black" stroke="black" stroke-width="1.6" x1="86.1" x2="86.1" y1="249.9061538461538" y2="243.5061538461538"></line><line fill="black" stroke="black" stroke-width="1.6" x1="139.50682495899267" x2="139.50682495899267" y1="249.9061538461538" y2="243.5061538461538"></line><g><polygon fill="white" points="100.88341247949633,244.4061538461538 100.88341247949633,259.0861538461538 124.72341247949633,259.0861538461538 124.72341247949633,244.4061538461538" stroke="white" stroke-width="0"></polygon><path d="M110.283 258.686C109.483 258.686 108.843 258.366 108.843 257.966C108.843 257.726 109.043 257.646 109.363 257.486C109.803 257.286 110.363 256.806 110.363 255.766C110.363 254.806 109.683 254.326 108.843 254.326C107.723 254.326 106.883 255.326 106.883 256.646C106.883 258.246 108.163 259.726 111.003 259.726C114.403 259.726 117.203 257.686 117.203 254.526C117.203 253.526 116.683 252.566 115.643 252.046C115.363 251.926 115.203 251.886 115.203 251.686C115.203 251.486 115.363 251.486 115.683 251.326C117.363 250.646 118.723 249.366 118.723 247.766C118.723 245.686 116.723 244.406 114.283 244.406C111.763 244.406 109.683 245.726 109.603 247.886C109.563 248.926 110.203 249.606 111.123 249.606C112.123 249.606 112.923 248.806 112.923 247.726C112.923 247.286 112.763 246.966 112.563 246.726C112.283 246.486 112.083 246.446 112.083 246.206C112.083 245.926 112.563 245.646 113.403 245.646C114.963 245.646 115.483 246.606 115.483 247.486C115.483 249.606 114.123 251.126 111.803 251.126L111.363 251.126C110.843 251.126 110.563 251.366 110.563 251.726C110.563 252.086 110.843 252.326 111.363 252.326L111.763 252.326C113.243 252.326 113.963 253.206 113.963 254.486C113.963 256.246 112.723 258.686 110.283 258.686"></path></g></g></g><g><g><path d="M116.563 201.986C120.563 201.986 125.483 198.266 125.483 194.466C125.483 192.186 123.683 190.706 121.083 190.706C116.163 190.706 112.203 194.346 112.203 198.226C112.203 200.586 114.123 201.986 116.563 201.986"></path></g><line stroke="#000000" stroke-width="1.2" x1="112.80341247949633" x2="112.80341247949633" y1="198.18615384615381" y2="233.18615384615381"></line></g><g><g><path d="M139.767 201.986C143.767 201.986 148.687 198.266 148.687 194.466C148.687 192.186 146.887 190.706 144.287 190.706C139.367 190.706 135.407 194.346 135.407 198.226C135.407 200.586 137.327 201.986 139.767 201.986"></path></g><line stroke="#000000" stroke-width="1.2" x1="136.00682495899267" x2="136.00682495899267" y1="198.18615384615381" y2="232.18615384615381"></line></g><g><path d="M167.930 202.786C166.410 200.946 165.170 199.466 165.170 197.226C165.170 197.066 165.210 196.866 165.210 196.706C165.370 194.386 166.810 192.466 167.850 190.826C167.970 190.626 168.010 190.426 168.010 190.226C168.010 189.826 167.850 189.466 167.850 189.466C167.850 189.466 161.930 182.426 161.250 181.746C161.050 181.546 160.770 181.426 160.530 181.426C160.130 181.426 159.730 181.706 159.730 182.266C159.730 182.466 159.770 182.666 159.890 182.906C160.050 183.346 162.330 185.386 162.330 188.266C162.330 189.746 161.730 191.466 159.930 193.346C159.530 193.746 159.370 194.186 159.370 194.506C159.370 195.066 159.770 195.466 159.770 195.466L161.730 197.866C162.370 198.666 162.930 199.426 163.450 200.266C163.530 200.426 163.690 200.626 163.690 200.826C163.690 200.866 163.690 200.946 163.650 200.986C163.570 201.146 163.410 201.186 163.210 201.186C162.970 201.186 162.730 201.106 162.570 201.066C162.370 201.066 162.130 200.946 161.930 200.946C160.210 200.946 158.650 202.666 158.650 204.786C158.650 206.786 160.370 208.746 163.290 210.986C163.610 211.226 164.010 211.346 164.330 211.346C164.610 211.346 164.890 211.266 164.930 211.106C164.970 210.986 165.010 210.906 165.010 210.826C165.010 210.466 164.690 210.146 164.370 209.866C163.850 209.866 163.410 208.786 163.330 208.426C163.210 208.106 163.170 207.746 163.170 207.386C163.170 206.146 163.770 204.746 165.050 204.506C165.250 204.466 165.450 204.466 165.690 204.466C166.850 204.466 168.170 204.906 168.810 205.146C168.850 205.146 168.890 205.186 168.930 205.186C169.050 205.226 169.130 205.226 169.210 205.226C169.330 205.226 169.410 205.186 169.410 205.066C169.410 204.586 168.370 203.266 167.930 202.786"></path></g></g><g transform="translate(370.8570476974001)"><g><g><line stroke="#6A6A6A" stroke-width="1.3" x1="-16.599999999999994" x2="863.9121830718306" y1="216.3461538461538" y2="216.3461538461538"></line><line stroke="#6A6A6A" stroke-width="1.3" x1="-16.599999999999994" x2="863.9121830718306" y1="206.3461538461538" y2="206.3461538461538"></line><line stroke="#6A6A6A" stroke-width="1.3" x1="-16.599999999999994" x2="863.9121830718306" y1="196.3461538461538" y2="196.3461538461538"></line><line stroke="#6A6A6A" stroke-width="1.3" x1="-16.599999999999994" x2="863.9121830718306" y1="186.3461538461538" y2="186.3461538461538"></line><line stroke="#6A6A6A" stroke-width="1.3" x1="-16.599999999999994" x2="863.9121830718306" y1="176.3461538461538" y2="176.3461538461538"></line></g></g><g><line stroke="black" stroke-width="1.6" x1="96.20196923827193" x2="96.20196923827193" y1="176.3461538461538" y2="216.3461538461538"></line></g><g><g><path d="M4.360 201.986C8.360 201.986 13.280 198.266 13.280 194.466C13.280 192.186 11.480 190.706 8.880 190.706C3.960 190.706 0 194.346 0 198.226C0 200.586 1.920 201.986 4.360 201.986"></path></g><line stroke="#000000" stroke-width="1.2" x1="0.6" x2="0.6" y1="198.18615384615381" y2="233.18615384615381"></line></g><g><g><path d="M36.161 201.986C40.161 201.986 45.081 198.266 45.081 194.466C45.081 192.186 43.281 190.706 40.681 190.706C35.761 190.706 31.801 194.346 31.801 198.226C31.801 200.586 33.721 201.986 36.161 201.986"></path></g><line stroke="#000000" stroke-width="1.2" x1="32.40065641275731" x2="32.40065641275731" y1="198.18615384615381" y2="233.18615384615381"></line></g><g><g><path d="M67.961 201.986C71.961 201.986 76.881 198.266 76.881 194.466C76.881 192.186 75.081 190.706 72.481 190.706C67.561 190.706 63.601 194.346 63.601 198.226C63.601 200.586 65.521 201.986 67.961 201.986"></path></g><line stroke="#000000" stroke-width="1.2" x1="64.2013128255146" x2="64.2013128255146" y1="198.18615384615381" y2="233.18615384615381"></line></g></g><g transform="translate(482.85901693567206)"><g></g><g><line stroke="black" stroke-width="1.6" x1="96.20196923827193" x2="96.20196923827193" y1="176.3461538461538" y2="216.3461538461538"></line></g><g><g><path d="M4.360 201.986C8.360 201.986 13.280 198.266 13.280 194.466C13.280 192.186 11.480 190.706 8.880 190.706C3.960 190.706 0 194.346 0 198.226C0 200.586 1.920 201.986 4.360 201.986"></path></g><line stroke="#000000" stroke-width="1.2" x1="0.6" x2="0.6" y1="198.18615384615381" y2="233.18615384615381"></line></g><g><g><path d="M36.161 201.986C40.161 201.986 45.081 198.266 45.081 194.466C45.081 192.186 43.281 190.706 40.681 190.706C35.761 190.706 31.801 194.346 31.801 198.226C31.801 200.586 33.721 201.986 36.161 201.986"></path></g><line stroke="#000000" stroke-width="1.2" x1="32.40065641275731" x2="32.40065641275731" y1="198.18615384615381" y2="233.18615384615381"></line></g><g><g><path d="M67.961 201.986C71.961 201.986 76.881 198.266 76.881 194.466C76.881 192.186 75.081 190.706 72.481 190.706C67.561 190.706 63.601 194.346 63.601 198.226C63.601 200.586 65.521 201.986 67.961 201.986"></path></g><line stroke="#000000" stroke-width="1.2" x1="64.2013128255146" x2="64.2013128255146" y1="198.18615384615381" y2="233.18615384615381"></line></g></g><g transform="translate(594.860986173944)"><g></g><g><line stroke="black" stroke-width="1.6" x1="96.20196923827193" x2="96.20196923827193" y1="176.3461538461538" y2="216.3461538461538"></line></g><g><g><path d="M4.360 201.986C8.360 201.986 13.280 198.266 13.280 194.466C13.280 192.186 11.480 190.706 8.880 190.706C3.960 190.706 0 194.346 0 198.226C0 200.586 1.920 201.986 4.360 201.986"></path></g><line stroke="#000000" stroke-width="1.2" x1="0.6" x2="0.6" y1="198.18615384615381" y2="233.18615384615381"></line></g><g><g><path d="M36.161 201.986C40.161 201.986 45.081 198.266 45.081 194.466C45.081 192.186 43.281 190.706 40.681 190.706C35.761 190.706 31.801 194.346 31.801 198.226C31.801 200.586 33.721 201.986 36.161 201.986"></path></g><line stroke="#000000" stroke-width="1.2" x1="32.40065641275731" x2="32.40065641275731" y1="198.18615384615381" y2="233.18615384615381"></line></g><g><g><path d="M67.961 201.986C71.961 201.986 76.881 198.266 76.881 194.466C76.881 192.186 75.081 190.706 72.481 190.706C67.561 190.706 63.601 194.346 63.601 198.226C63.601 200.586 65.521 201.986 67.961 201.986"></path></g><line stroke="#000000" stroke-width="1.2" x1="64.2013128255146" x2="64.2013128255146" y1="198.18615384615381" y2="233.18615384615381"></line></g></g><g transform="translate(706.862955412216)"><g></g><g><line stroke="black" stroke-width="1.6" x1="96.20196923827193" x2="96.20196923827193" y1="176.3461538461538" y2="216.3461538461538"></line></g><g><g><path d="M4.360 201.986C8.360 201.986 13.280 198.266 13.280 194.466C13.280 192.186 11.480 190.706 8.880 190.706C3.960 190.706 0 194.346 0 198.226C0 200.586 1.920 201.986 4.360 201.986"></path></g><line stroke="#000000" stroke-width="1.2" x1="0.6" x2="0.6" y1="198.18615384615381" y2="233.18615384615381"></line></g><g><g><path d="M36.161 201.986C40.161 201.986 45.081 198.266 45.081 194.466C45.081 192.186 43.281 190.706 40.681 190.706C35.761 190.706 31.801 194.346 31.801 198.226C31.801 200.586 33.721 201.986 36.161 201.986"></path></g><line stroke="#000000" stroke-width="1.2" x1="32.40065641275731" x2="32.40065641275731" y1="198.18615384615381" y2="233.18615384615381"></line></g><g><g><path d="M67.961 201.986C71.961 201.986 76.881 198.266 76.881 194.466C76.881 192.186 75.081 190.706 72.481 190.706C67.561 190.706 63.601 194.346 63.601 198.226C63.601 200.586 65.521 201.986 67.961 201.986"></path></g><line stroke="#000000" stroke-width="1.2" x1="64.2013128255146" x2="64.2013128255146" y1="198.18615384615381" y2="233.18615384615381"></line></g></g><g transform="translate(818.8649246504879)"><g></g><g><line stroke="black" stroke-width="1.6" x1="96.20196923827193" x2="96.20196923827193" y1="176.3461538461538" y2="216.3461538461538"></line></g><g><g><path d="M4.360 201.986C8.360 201.986 13.280 198.266 13.280 194.466C13.280 192.186 11.480 190.706 8.880 190.706C3.960 190.706 0 194.346 0 198.226C0 200.586 1.920 201.986 4.360 201.986"></path></g><line stroke="#000000" stroke-width="1.2" x1="0.6" x2="0.6" y1="198.18615384615381" y2="233.18615384615381"></line></g><g><g><path d="M36.161 201.986C40.161 201.986 45.081 198.266 45.081 194.466C45.081 192.186 43.281 190.706 40.681 190.706C35.761 190.706 31.801 194.346 31.801 198.226C31.801 200.586 33.721 201.986 36.161 201.986"></path></g><line stroke="#000000" stroke-width="1.2" x1="32.40065641275731" x2="32.40065641275731" y1="198.18615384615381" y2="233.18615384615381"></line></g><g><g><path d="M67.961 201.986C71.961 201.986 76.881 198.266 76.881 194.466C76.881 192.186 75.081 190.706 72.481 190.706C67.561 190.706 63.601 194.346 63.601 198.226C63.601 200.586 65.521 201.986 67.961 201.986"></path></g><line stroke="#000000" stroke-width="1.2" x1="64.2013128255146" x2="64.2013128255146" y1="198.18615384615381" y2="233.18615384615381"></line></g></g><g transform="translate(930.8668938887599)"><g></g><g><line stroke="black" stroke-width="1.6" x1="79.09839840392705" x2="79.09839840392705" y1="176.3461538461538" y2="216.3461538461538"></line></g><g><g><path d="M4.360 201.986C8.360 201.986 13.280 198.266 13.280 194.466C13.280 192.186 11.480 190.706 8.880 190.706C3.960 190.706 0 194.346 0 198.226C0 200.586 1.920 201.986 4.360 201.986"></path></g><line stroke="#000000" stroke-width="1.2" x1="0.6" x2="0.6" y1="198.18615384615381" y2="233.18615384615381"></line></g><g><path d="M43.081 195.386L43.081 191.706C43.081 191.106 42.601 190.666 42.041 190.666L32.841 190.666C32.241 190.666 31.801 191.106 31.801 191.706L31.801 195.386C31.801 195.946 32.241 196.426 32.841 196.426L42.041 196.426C42.601 196.426 43.081 195.946 43.081 195.386"></path></g></g><g transform="translate(1025.7652922926868)"><g></g><g><line stroke="black" stroke-width="1.6" x1="96.20196923827193" x2="96.20196923827193" y1="176.3461538461538" y2="216.3461538461538"></line></g><g><g><path d="M4.360 166.986C8.360 166.986 13.280 163.266 13.280 159.466C13.280 157.186 11.480 155.706 8.880 155.706C3.960 155.706 0 159.346 0 163.226C0 165.586 1.920 166.986 4.360 166.986"></path></g><line stroke="#000000" stroke-width="1.2" x1="0.6" x2="0.6" y1="163.18615384615381" y2="198.18615384615381"></line><line stroke="#000000" stroke-width="2.2" x1="-3.2" x2="18.72" y1="166.3461538461538" y2="166.3461538461538"></line></g><g><g><path d="M36.161 166.986C40.161 166.986 45.081 163.266 45.081 159.466C45.081 157.186 43.281 155.706 40.681 155.706C35.761 155.706 31.801 159.346 31.801 163.226C31.801 165.586 33.721 166.986 36.161 166.986"></path></g><line stroke="#000000" stroke-width="1.2" x1="32.40065641275731" x2="32.40065641275731" y1="163.18615384615381" y2="198.18615384615381"></line><line stroke="#000000" stroke-width="2.2" x1="28.600656412757306" x2="50.520656412757305" y1="166.3461538461538" y2="166.3461538461538"></line></g><g><g><path d="M67.961 166.986C71.961 166.986 76.881 163.266 76.881 159.466C76.881 157.186 75.081 155.706 72.481 155.706C67.561 155.706 63.601 159.346 63.601 163.226C63.601 165.586 65.521 166.986 67.961 166.986"></path></g><line stroke="#000000" stroke-width="1.2" x1="64.2013128255146" x2="64.2013128255146" y1="163.18615384615381" y2="198.18615384615381"></line><line stroke="#000000" stroke-width="2.2" x1="60.40131282551461" x2="82.32131282551461" y1="166.3461538461538" y2="166.3461538461538"></line></g></g><g transform="translate(1137.7672615309589)"><g></g><g><line stroke="black" stroke-width="1.6" x1="96.20196923827193" x2="96.20196923827193" y1="176.3461538461538" y2="216.3461538461538"></line></g><g><g><path d="M4.360 271.986C8.360 271.986 13.280 268.266 13.280 264.466C13.280 262.186 11.480 260.706 8.880 260.706C3.960 260.706 0 264.346 0 268.226C0 270.586 1.920 271.986 4.360 271.986"></path></g><line stroke="#000000" stroke-width="1.2" x1="12.680000000000001" x2="12.680000000000001" y1="264.50615384615384" y2="194.50615384615384"></line><line stroke="#000000" stroke-width="2.2" x1="-3.2" x2="18.72" y1="226.3461538461538" y2="226.3461538461538"></line><line stroke="#000000" stroke-width="2.2" x1="-3.2" x2="18.72" y1="236.3461538461538" y2="236.3461538461538"></line><line stroke="#000000" stroke-width="2.2" x1="-3.2" x2="18.72" y1="246.3461538461538" y2="246.3461538461538"></line><line stroke="#000000" stroke-width="2.2" x1="-3.2" x2="18.72" y1="256.3461538461538" y2="256.3461538461538"></line><line stroke="#000000" stroke-width="2.2" x1="-3.2" x2="18.72" y1="266.3461538461538" y2="266.3461538461538"></line></g><g><g><path d="M36.161 271.986C40.161 271.986 45.081 268.266 45.081 264.466C45.081 262.186 43.281 260.706 40.681 260.706C35.761 260.706 31.801 264.346 31.801 268.226C31.801 270.586 33.721 271.986 36.161 271.986"></path></g><line stroke="#000000" stroke-width="1.2" x1="44.480656412757305" x2="44.480656412757305" y1="264.50615384615384" y2="194.50615384615384"></line><line stroke="#000000" stroke-width="2.2" x1="28.600656412757306" x2="50.520656412757305" y1="226.3461538461538" y2="226.3461538461538"></line><line stroke="#000000" stroke-width="2.2" x1="28.600656412757306" x2="50.520656412757305" y1="236.3461538461538" y2="236.3461538461538"></line><line stroke="#000000" stroke-width="2.2" x1="28.600656412757306" x2="50.520656412757305" y1="246.3461538461538" y2="246.3461538461538"></line><line stroke="#000000" stroke-width="2.2" x1="28.600656412757306" x2="50.520656412757305" y1="256.3461538461538" y2="256.3461538461538"></line><line stroke="#000000" stroke-width="2.2" x1="28.600656412757306" x2="50.520656412757305" y1="266.3461538461538" y2="266.3461538461538"></line></g><g><g><path d="M67.961 271.986C71.961 271.986 76.881 268.266 76.881 264.466C76.881 262.186 75.081 260.706 72.481 260.706C67.561 260.706 63.601 264.346 63.601 268.226C63.601 270.586 65.521 271.986 67.961 271.986"></path></g><line stroke="#000000" stroke-width="1.2" x1="76.28131282551462" x2="76.28131282551462" y1="264.50615384615384" y2="194.50615384615384"></line><line stroke="#000000" stroke-width="2.2" x1="60.40131282551461" x2="82.32131282551461" y1="226.3461538461538" y2="226.3461538461538"></line><line stroke="#000000" stroke-width="2.2" x1="60.40131282551461" x2="82.32131282551461" y1="236.3461538461538" y2="236.3461538461538"></line><line stroke="#000000" stroke-width="2.2" x1="60.40131282551461" x2="82.32131282551461" y1="246.3461538461538" y2="246.3461538461538"></line><line stroke="#000000" stroke-width="2.2" x1="60.40131282551461" x2="82.32131282551461" y1="256.3461538461538" y2="256.3461538461538"></line><line stroke="#000000" stroke-width="2.2" x1="60.40131282551461" x2="82.32131282551461" y1="266.3461538461538" y2="266.3461538461538"></line></g></g><g transform="translate(93.84615384615385)"><g><g><line stroke="#6A6A6A" stroke-width="1.3" x1="0" x2="1140.923076923077" y1="392.3461538461538" y2="392.3461538461538"></line><line stroke="#6A6A6A" stroke-width="1.3" x1="0" x2="1140.923076923077" y1="382.3461538461538" y2="382.3461538461538"></line><line stroke="#6A6A6A" stroke-width="1.3" x1="0" x2="1140.923076923077" y1="372.3461538461538" y2="372.3461538461538"></line><line stroke="#6A6A6A" stroke-width="1.3" x1="0" x2="1140.923076923077" y1="362.3461538461538" y2="362.3461538461538"></line><line stroke="#6A6A6A" stroke-width="1.3" x1="0" x2="1140.923076923077" y1="352.3461538461538" y2="352.3461538461538"></line></g><g><path d="M25.200 338.426C24.640 338.426 23.400 339.466 22.600 340.346C19.640 343.626 18.680 348.626 18.680 352.786C18.680 355.106 18.960 357.706 19.240 359.346C19.320 359.826 19.360 359.906 18.880 360.306C16.320 362.426 13.560 364.866 11.480 367.426C8.720 370.866 7 374.586 7 378.866C7 385.826 11.760 392.426 21.560 392.426C22.480 392.426 23.520 392.346 24.320 392.186C24.760 392.106 24.840 392.066 24.920 392.546C25.400 395.226 26 398.706 26 400.586C26 406.506 22 407.226 19.640 407.226C17.480 407.226 16.440 406.586 16.440 406.066C16.440 405.626 16.800 405.666 17.720 405.386C18.960 405.026 20.400 403.946 20.400 401.626C20.400 399.426 19 397.546 16.560 397.546C13.880 397.546 12.280 399.666 12.280 402.146C12.280 404.746 13.840 408.666 19.880 408.666C22.560 408.666 27.760 407.466 27.760 400.666C27.760 398.386 27.040 394.586 26.600 392.106C26.520 391.626 26.560 391.666 27.120 391.426C31.160 389.826 33.840 386.426 33.840 381.906C33.840 376.786 30.080 372.266 24.200 372.266C23.080 372.266 23.200 372.466 23.040 371.546L22.040 365.746C21.960 365.266 22.040 365.226 22.280 364.986C22.920 364.386 23.760 363.546 24.520 362.706C27.880 359.026 29.880 354.266 29.880 349.746C29.880 346.266 28.920 342.826 27.280 340.426C26.680 339.546 25.640 338.426 25.200 338.426M20.040 366.586C20.440 366.266 20.520 366.306 20.600 366.746L21.440 371.866C21.560 372.626 21.560 372.586 20.840 372.826C17.320 374.026 15.040 377.186 15.040 380.586C15.040 384.186 16.920 386.746 19.640 387.666C19.960 387.786 20.440 387.906 20.720 387.906C21.040 387.906 21.200 387.706 21.200 387.466C21.200 387.186 20.880 387.066 20.600 386.946C18.920 386.226 17.720 384.506 17.720 382.666C17.720 380.386 19.280 378.666 21.720 377.986C22.360 377.826 22.440 377.866 22.520 378.306L24.520 390.226C24.600 390.666 24.560 390.666 23.960 390.786C23.320 390.906 22.520 390.986 21.720 390.986C14.720 390.986 10.200 387.106 10.200 381.546C10.200 379.186 10.600 376.026 13.920 372.266C16.320 369.586 18.160 368.106 20.040 366.586M24.640 377.666C27.880 377.946 30.560 380.666 30.560 384.186C30.560 386.706 29.040 388.746 26.800 389.866C26.320 390.106 26.240 390.106 26.160 389.626L24.200 378.226C24.120 377.746 24.160 377.626 24.640 377.666M25.800 344.626C27.120 344.626 28.200 345.706 28.200 347.906C28.200 350.666 26.880 353.226 23.760 356.346C23.120 356.986 22.160 357.906 21.240 358.706C20.960 358.946 20.800 358.906 20.720 358.386C20.560 357.346 20.480 355.986 20.480 354.706C20.480 348.466 23.360 344.626 25.800 344.626"></path></g><g></g><text font-family='Alegreya' font-style='italic' text-anchor='end' stroke='#7a7a7a' font-size="24" x="0" y="342.3461538461538">10</text></g><g><line stroke="black" stroke-width="1.6" x1="155.74700854700853" x2="155.74700854700853" y1="352.3461538461538" y2="392.3461538461538"></line></g><g><g><path d="M52.860 377.986C56.860 377.986 61.780 374.266 61.780 370.466C61.780 368.186 59.980 366.706 57.380 366.706C52.460 366.706 48.500 370.346 48.500 374.226C48.500 376.586 50.420 377.986 52.860 377.986"></path></g><line stroke="#000000" stroke-width="1.2" x1="49.1" x2="49.1" y1="374.1861538461538" y2="409.1861538461538"></line></g><g><g><path d="M88.342 377.986C92.342 377.986 97.262 374.266 97.262 370.466C97.262 368.186 95.462 366.706 92.862 366.706C87.942 366.706 83.982 370.346 83.982 374.226C83.982 376.586 85.902 377.986 88.342 377.986"></path></g><line stroke="#000000" stroke-width="1.2" x1="84.58233618233618" x2="84.58233618233618" y1="374.1861538461538" y2="409.1861538461538"></line></g><g><g><path d="M123.825 377.986C127.825 377.986 132.745 374.266 132.745 370.466C132.745 368.186 130.945 366.706 128.345 366.706C123.425 366.706 119.465 370.346 119.465 374.226C119.465 376.586 121.385 377.986 123.825 377.986"></path></g><line stroke="#000000" stroke-width="1.2" x1="120.06467236467235" x2="120.06467236467235" y1="374.1861538461538" y2="409.1861538461538"></line></g></g><g transform="translate(265.39316239316236)"><g></g><g><line stroke="black" stroke-width="1.6" x1="107.24700854700853" x2="107.24700854700853" y1="352.3461538461538" y2="392.3461538461538"></line></g><g><g><path d="M4.360 377.986C8.360 377.986 13.280 374.266 13.280 370.466C13.280 368.186 11.480 366.706 8.880 366.706C3.960 366.706 0 370.346 0 374.226C0 376.586 1.920 377.986 4.360 377.986"></path></g><line stroke="#000000" stroke-width="1.2" x1="0.6" x2="0.6" y1="374.1861538461538" y2="409.1861538461538"></line></g><g><g><path d="M39.842 377.986C43.842 377.986 48.762 374.266 48.762 370.466C48.762 368.186 46.962 366.706 44.362 366.706C39.442 366.706 35.482 370.346 35.482 374.226C35.482 376.586 37.402 377.986 39.842 377.986"></path></g><line stroke="#000000" stroke-width="1.2" x1="36.08233618233618" x2="36.08233618233618" y1="374.1861538461538" y2="409.1861538461538"></line></g><g><g><path d="M75.325 377.986C79.325 377.986 84.245 374.266 84.245 370.466C84.245 368.186 82.445 366.706 79.845 366.706C74.925 366.706 70.965 370.346 70.965 374.226C70.965 376.586 72.885 377.986 75.325 377.986"></path></g><line stroke="#000000" stroke-width="1.2" x1="71.56467236467235" x2="71.56467236467235" y1="374.1861538461538" y2="409.1861538461538"></line></g></g><g transform="translate(388.4401709401709)"><g></g><g><line stroke="black" stroke-width="1.6" x1="107.24700854700853" x2="107.24700854700853" y1="352.3461538461538" y2="392.3461538461538"></line></g><g><g><path d="M4.360 377.986C8.360 377.986 13.280 374.266 13.280 370.466C13.280 368.186 11.480 366.706 8.880 366.706C3.960 366.706 0 370.346 0 374.226C0 376.586 1.920 377.986 4.360 377.986"></path></g><line stroke="#000000" stroke-width="1.2" x1="0.6" x2="0.6" y1="374.1861538461538" y2="409.1861538461538"></line></g><g><g><path d="M39.842 377.986C43.842 377.986 48.762 374.266 48.762 370.466C48.762 368.186 46.962 366.706 44.362 366.706C39.442 366.706 35.482 370.346 35.482 374.226C35.482 376.586 37.402 377.986 39.842 377.986"></path></g><line stroke="#000000" stroke-width="1.2" x1="36.08233618233618" x2="36.08233618233618" y1="374.1861538461538" y2="409.1861538461538"></line></g><g><g><path d="M75.325 377.986C79.325 377.986 84.245 374.266 84.245 370.466C84.245 368.186 82.445 366.706 79.845 366.706C74.925 366.706 70.965 370.346 70.965 374.226C70.965 376.586 72.885 377.986 75.325 377.986"></path></g><line stroke="#000000" stroke-width="1.2" x1="71.56467236467235" x2="71.56467236467235" y1="374.1861538461538" y2="409.1861538461538"></line></g></g><g transform="translate(511.4871794871795)"><g></g><g><line stroke="black" stroke-width="1.6" x1="107.24700854700853" x2="107.24700854700853" y1="352.3461538461538" y2="392.3461538461538"></line></g><g><g><path d="M4.360 377.986C8.360 377.986 13.280 374.266 13.280 370.466C13.280 368.186 11.480 366.706 8.880 366.706C3.960 366.706 0 370.346 0 374.226C0 376.586 1.920 377.986 4.360 377.986"></path></g><line stroke="#000000" stroke-width="1.2" x1="0.6" x2="0.6" y1="374.1861538461538" y2="409.1861538461538"></line></g><g><g><path d="M39.842 377.986C43.842 377.986 48.762 374.266 48.762 370.466C48.762 368.186 46.962 366.706 44.362 366.706C39.442 366.706 35.482 370.346 35.482 374.226C35.482 376.586 37.402 377.986 39.842 377.986"></path></g><line stroke="#000000" stroke-width="1.2" x1="36.08233618233618" x2="36.08233618233618" y1="374.1861538461538" y2="409.1861538461538"></line></g><g><g><path d="M75.325 377.986C79.325 377.986 84.245 374.266 84.245 370.466C84.245 368.186 82.445 366.706 79.845 366.706C74.925 366.706 70.965 370.346 70.965 374.226C70.965 376.586 72.885 377.986 75.325 377.986"></path></g><line stroke="#000000" stroke-width="1.2" x1="71.56467236467235" x2="71.56467236467235" y1="374.1861538461538" y2="409.1861538461538"></line></g></g><g transform="translate(634.534188034188)"><g></g><g><line stroke="black" stroke-width="1.6" x1="107.24700854700853" x2="107.24700854700853" y1="352.3461538461538" y2="392.3461538461538"></line></g><g><g><path d="M4.360 377.986C8.360 377.986 13.280 374.266 13.280 370.466C13.280 368.186 11.480 366.706 8.880 366.706C3.960 366.706 0 370.346 0 374.226C0 376.586 1.920 377.986 4.360 377.986"></path></g><line stroke="#000000" stroke-width="1.2" x1="0.6" x2="0.6" y1="374.1861538461538" y2="409.1861538461538"></line></g><g><g><path d="M39.842 377.986C43.842 377.986 48.762 374.266 48.762 370.466C48.762 368.186 46.962 366.706 44.362 366.706C39.442 366.706 35.482 370.346 35.482 374.226C35.482 376.586 37.402 377.986 39.842 377.986"></path></g><line stroke="#000000" stroke-width="1.2" x1="36.08233618233618" x2="36.08233618233618" y1="374.1861538461538" y2="409.1861538461538"></line></g><g><g><path d="M75.325 377.986C79.325 377.986 84.245 374.266 84.245 370.466C84.245 368.186 82.445 366.706 79.845 366.706C74.925 366.706 70.965 370.346 70.965 374.226C70.965 376.586 72.885 377.986 75.325 377.986"></path></g><line stroke="#000000" stroke-width="1.2" x1="71.56467236467235" x2="71.56467236467235" y1="374.1861538461538" y2="409.1861538461538"></line></g></g><g transform="translate(757.5811965811967)"><g></g><g><line stroke="black" stroke-width="1.6" x1="107.24700854700853" x2="107.24700854700853" y1="352.3461538461538" y2="392.3461538461538"></line></g><g><g><path d="M4.360 377.986C8.360 377.986 13.280 374.266 13.280 370.466C13.280 368.186 11.480 366.706 8.880 366.706C3.960 366.706 0 370.346 0 374.226C0 376.586 1.920 377.986 4.360 377.986"></path></g><line stroke="#000000" stroke-width="1.2" x1="0.6" x2="0.6" y1="374.1861538461538" y2="409.1861538461538"></line></g><g><g><path d="M39.842 377.986C43.842 377.986 48.762 374.266 48.762 370.466C48.762 368.186 46.962 366.706 44.362 366.706C39.442 366.706 35.482 370.346 35.482 374.226C35.482 376.586 37.402 377.986 39.842 377.986"></path></g><line stroke="#000000" stroke-width="1.2" x1="36.08233618233618" x2="36.08233618233618" y1="374.1861538461538" y2="409.1861538461538"></line></g><g><g><path d="M75.325 377.986C79.325 377.986 84.245 374.266 84.245 370.466C84.245 368.186 82.445 366.706 79.845 366.706C74.925 366.706 70.965 370.346 70.965 374.226C70.965 376.586 72.885 377.986 75.325 377.986"></path></g><line stroke="#000000" stroke-width="1.2" x1="71.56467236467235" x2="71.56467236467235" y1="374.1861538461538" y2="409.1861538461538"></line></g></g><g transform="translate(880.6282051282052)"><g></g><g><line stroke="black" stroke-width="1.6" x1="107.24700854700853" x2="107.24700854700853" y1="352.3461538461538" y2="392.3461538461538"></line></g><g><g><path d="M4.360 377.986C8.360 377.986 13.280 374.266 13.280 370.466C13.280 368.186 11.480 366.706 8.880 366.706C3.960 366.706 0 370.346 0 374.226C0 376.586 1.920 377.986 4.360 377.986"></path></g><line stroke="#000000" stroke-width="1.2" x1="0.6" x2="0.6" y1="374.1861538461538" y2="409.1861538461538"></line></g><g><g><path d="M39.842 357.986C43.842 357.986 48.762 354.266 48.762 350.466C48.762 348.186 46.962 346.706 44.362 346.706C39.442 346.706 35.482 350.346 35.482 354.226C35.482 356.586 37.402 357.986 39.842 357.986"></path></g><line stroke="#000000" stroke-width="1.2" x1="36.08233618233618" x2="36.08233618233618" y1="354.1861538461538" y2="389.1861538461538"></line></g><g><path d="M80.285 378.786C78.765 376.946 77.525 375.466 77.525 373.226C77.525 373.066 77.565 372.866 77.565 372.706C77.725 370.386 79.165 368.466 80.205 366.826C80.325 366.626 80.365 366.426 80.365 366.226C80.365 365.826 80.205 365.466 80.205 365.466C80.205 365.466 74.285 358.426 73.605 357.746C73.405 357.546 73.125 357.426 72.885 357.426C72.485 357.426 72.085 357.706 72.085 358.266C72.085 358.466 72.125 358.666 72.245 358.906C72.405 359.346 74.685 361.386 74.685 364.266C74.685 365.746 74.085 367.466 72.285 369.346C71.885 369.746 71.725 370.186 71.725 370.506C71.725 371.066 72.125 371.466 72.125 371.466L74.085 373.866C74.725 374.666 75.285 375.426 75.805 376.266C75.885 376.426 76.045 376.626 76.045 376.826C76.045 376.866 76.045 376.946 76.005 376.986C75.925 377.146 75.765 377.186 75.565 377.186C75.325 377.186 75.085 377.106 74.925 377.066C74.725 377.066 74.485 376.946 74.285 376.946C72.565 376.946 71.005 378.666 71.005 380.786C71.005 382.786 72.725 384.746 75.645 386.986C75.965 387.226 76.365 387.346 76.685 387.346C76.965 387.346 77.245 387.266 77.285 387.106C77.325 386.986 77.365 386.906 77.365 386.826C77.365 386.466 77.045 386.146 76.725 385.866C76.205 385.866 75.765 384.786 75.685 384.426C75.565 384.106 75.525 383.746 75.525 383.386C75.525 382.146 76.125 380.746 77.405 380.506C77.605 380.466 77.805 380.466 78.045 380.466C79.205 380.466 80.525 380.906 81.165 381.146C81.205 381.146 81.245 381.186 81.285 381.186C81.405 381.226 81.485 381.226 81.565 381.226C81.685 381.226 81.765 381.186 81.765 381.066C81.765 380.586 80.725 379.266 80.285 378.786"></path></g></g><g transform="translate(1003.6752136752137)"><g></g><g><line stroke="black" stroke-width="1.6" x1="107.24700854700853" x2="107.24700854700853" y1="352.3461538461538" y2="392.3461538461538"></line></g><g><g><path d="M4.360 377.986C8.360 377.986 13.280 374.266 13.280 370.466C13.280 368.186 11.480 366.706 8.880 366.706C3.960 366.706 0 370.346 0 374.226C0 376.586 1.920 377.986 4.360 377.986"></path></g><line stroke="#000000" stroke-width="1.2" x1="0.6" x2="0.6" y1="374.1861538461538" y2="409.1861538461538"></line><path d="M12.780 358.346C15.180 358.346 17.620 357.706 20.260 356.346C20.500 356.266 20.620 356.026 20.620 355.786L20.620 347.706C20.620 347.386 20.340 347.066 19.980 347.066C19.620 347.066 19.340 347.386 19.340 347.706L19.340 355.386C17.020 356.546 14.860 357.066 12.780 357.066C10.700 357.066 8.540 356.546 6.220 355.386L6.220 347.706C6.220 347.386 5.940 347.066 5.580 347.066C5.220 347.066 4.940 347.386 4.940 347.706L4.940 355.786C4.940 356.026 5.060 356.266 5.300 356.346C7.940 357.706 10.380 358.346 12.780 358.346"></path></g><g><g><path d="M39.842 372.986C43.842 372.986 48.762 369.266 48.762 365.466C48.762 363.186 46.962 361.706 44.362 361.706C39.442 361.706 35.482 365.346 35.482 369.226C35.482 371.586 37.402 372.986 39.842 372.986"></path></g><line stroke="#000000" stroke-width="1.2" x1="36.08233618233618" x2="36.08233618233618" y1="369.1861538461538" y2="404.1861538461538"></line><path d="M48.262 358.346C50.662 358.346 53.102 357.706 55.742 356.346C55.982 356.266 56.102 356.026 56.102 355.786L56.102 347.706C56.102 347.386 55.822 347.066 55.462 347.066C55.102 347.066 54.822 347.386 54.822 347.706L54.822 355.386C52.502 356.546 50.342 357.066 48.262 357.066C46.182 357.066 44.022 356.546 41.702 355.386L41.702 347.706C41.702 347.386 41.422 347.066 41.062 347.066C40.702 347.066 40.422 347.386 40.422 347.706L40.422 355.786C40.422 356.026 40.542 356.266 40.782 356.346C43.422 357.706 45.862 358.346 48.262 358.346"></path></g><g><path d="M80.285 378.786C78.765 376.946 77.525 375.466 77.525 373.226C77.525 373.066 77.565 372.866 77.565 372.706C77.725 370.386 79.165 368.466 80.205 366.826C80.325 366.626 80.365 366.426 80.365 366.226C80.365 365.826 80.205 365.466 80.205 365.466C80.205 365.466 74.285 358.426 73.605 357.746C73.405 357.546 73.125 357.426 72.885 357.426C72.485 357.426 72.085 357.706 72.085 358.266C72.085 358.466 72.125 358.666 72.245 358.906C72.405 359.346 74.685 361.386 74.685 364.266C74.685 365.746 74.085 367.466 72.285 369.346C71.885 369.746 71.725 370.186 71.725 370.506C71.725 371.066 72.125 371.466 72.125 371.466L74.085 373.866C74.725 374.666 75.285 375.426 75.805 376.266C75.885 376.426 76.045 376.626 76.045 376.826C76.045 376.866 76.045 376.946 76.005 376.986C75.925 377.146 75.765 377.186 75.565 377.186C75.325 377.186 75.085 377.106 74.925 377.066C74.725 377.066 74.485 376.946 74.285 376.946C72.565 376.946 71.005 378.666 71.005 380.786C71.005 382.786 72.725 384.746 75.645 386.986C75.965 387.226 76.365 387.346 76.685 387.346C76.965 387.346 77.245 387.266 77.285 387.106C77.325 386.986 77.365 386.906 77.365 386.826C77.365 386.466 77.045 386.146 76.725 385.866C76.205 385.866 75.765 384.786 75.685 384.426C75.565 384.106 75.525 383.746 75.525 383.386C75.525 382.146 76.125 380.746 77.405 380.506C77.605 380.466 77.805 380.466 78.045 380.466C79.205 380.466 80.525 380.906 81.165 381.146C81.205 381.146 81.245 381.186 81.285 381.186C81.405 381.226 81.485 381.226 81.565 381.226C81.685 381.226 81.765 381.186 81.765 381.066C81.765 380.586 80.725 379.266 80.285 378.786"></path></g></g><g transform="translate(1126.7222222222222)"><g></g><g><line stroke="black" stroke-width="1.6" x1="107.24700854700853" x2="107.24700854700853" y1="352.3461538461538" y2="392.3461538461538"></line></g><g><g><path d="M4.360 377.986C8.360 377.986 13.280 374.266 13.280 370.466C13.280 368.186 11.480 366.706 8.880 366.706C3.960 366.706 0 370.346 0 374.226C0 376.586 1.920 377.986 4.360 377.986"></path></g><line stroke="#000000" stroke-width="1.2" x1="12.680000000000001" x2="12.680000000000001" y1="370.50615384615384" y2="335.50615384615384"></line></g><g><g><path d="M39.842 407.986C43.842 407.986 48.762 404.266 48.762 400.466C48.762 398.186 46.962 396.706 44.362 396.706C39.442 396.706 35.482 400.346 35.482 404.226C35.482 406.586 37.402 407.986 39.842 407.986"></path></g><line stroke="#000000" stroke-width="1.2" x1="48.162336182336176" x2="48.162336182336176" y1="400.50615384615384" y2="365.50615384615384"></line><line stroke="#000000" stroke-width="2.2" x1="32.282336182336174" x2="54.20233618233617" y1="402.3461538461538" y2="402.3461538461538"></line></g><g><path d="M80.285 378.786C78.765 376.946 77.525 375.466 77.525 373.226C77.525 373.066 77.565 372.866 77.565 372.706C77.725 370.386 79.165 368.466 80.205 366.826C80.325 366.626 80.365 366.426 80.365 366.226C80.365 365.826 80.205 365.466 80.205 365.466C80.205 365.466 74.285 358.426 73.605 357.746C73.405 357.546 73.125 357.426 72.885 357.426C72.485 357.426 72.085 357.706 72.085 358.266C72.085 358.466 72.125 358.666 72.245 358.906C72.405 359.346 74.685 361.386 74.685 364.266C74.685 365.746 74.085 367.466 72.285 369.346C71.885 369.746 71.725 370.186 71.725 370.506C71.725 371.066 72.125 371.466 72.125 371.466L74.085 373.866C74.725 374.666 75.285 375.426 75.805 376.266C75.885 376.426 76.045 376.626 76.045 376.826C76.045 376.866 76.045 376.946 76.005 376.986C75.925 377.146 75.765 377.186 75.565 377.186C75.325 377.186 75.085 377.106 74.925 377.066C74.725 377.066 74.485 376.946 74.285 376.946C72.565 376.946 71.005 378.666 71.005 380.786C71.005 382.786 72.725 384.746 75.645 386.986C75.965 387.226 76.365 387.346 76.685 387.346C76.965 387.346 77.245 387.266 77.285 387.106C77.325 386.986 77.365 386.906 77.365 386.826C77.365 386.466 77.045 386.146 76.725 385.866C76.205 385.866 75.765 384.786 75.685 384.426C75.565 384.106 75.525 383.746 75.525 383.386C75.525 382.146 76.125 380.746 77.405 380.506C77.605 380.466 77.805 380.466 78.045 380.466C79.205 380.466 80.525 380.906 81.165 381.146C81.205 381.146 81.245 381.186 81.285 381.186C81.405 381.226 81.485 381.226 81.565 381.226C81.685 381.226 81.765 381.186 81.765 381.066C81.765 380.586 80.725 379.266 80.285 378.786"></path></g></g><g transform="translate(93.84615384615385)"><g><g><line stroke="#6A6A6A" stroke-width="1.3" x1="0" x2="856.4025088513617" y1="528.3461538461538" y2="528.3461538461538"></line><line stroke="#6A6A6A" stroke-width="1.3" x1="0" x2="856.4025088513617" y1="518.3461538461538" y2="518.3461538461538"></line><line stroke="#6A6A6A" stroke-width="1.3" x1="0" x2="856.4025088513617" y1="508.3461538461538" y2="508.3461538461538"></line><line stroke="#6A6A6A" stroke-width="1.3" x1="0" x2="856.4025088513617" y1="498.3461538461538" y2="498.3461538461538"></line><line stroke="#6A6A6A" stroke-width="1.3" x1="0" x2="856.4025088513617" y1="488.3461538461538" y2="488.3461538461538"></line></g><g><path d="M25.200 474.426C24.640 474.426 23.400 475.466 22.600 476.346C19.640 479.626 18.680 484.626 18.680 488.786C18.680 491.106 18.960 493.706 19.240 495.346C19.320 495.826 19.360 495.906 18.880 496.306C16.320 498.426 13.560 500.866 11.480 503.426C8.720 506.866 7 510.586 7 514.866C7 521.826 11.760 528.426 21.560 528.426C22.480 528.426 23.520 528.346 24.320 528.186C24.760 528.106 24.840 528.066 24.920 528.546C25.400 531.226 26 534.706 26 536.586C26 542.506 22 543.226 19.640 543.226C17.480 543.226 16.440 542.586 16.440 542.066C16.440 541.626 16.800 541.666 17.720 541.386C18.960 541.026 20.400 539.946 20.400 537.626C20.400 535.426 19 533.546 16.560 533.546C13.880 533.546 12.280 535.666 12.280 538.146C12.280 540.746 13.840 544.666 19.880 544.666C22.560 544.666 27.760 543.466 27.760 536.666C27.760 534.386 27.040 530.586 26.600 528.106C26.520 527.626 26.560 527.666 27.120 527.426C31.160 525.826 33.840 522.426 33.840 517.906C33.840 512.786 30.080 508.266 24.200 508.266C23.080 508.266 23.200 508.466 23.040 507.546L22.040 501.746C21.960 501.266 22.040 501.226 22.280 500.986C22.920 500.386 23.760 499.546 24.520 498.706C27.880 495.026 29.880 490.266 29.880 485.746C29.880 482.266 28.920 478.826 27.280 476.426C26.680 475.546 25.640 474.426 25.200 474.426M20.040 502.586C20.440 502.266 20.520 502.306 20.600 502.746L21.440 507.866C21.560 508.626 21.560 508.586 20.840 508.826C17.320 510.026 15.040 513.186 15.040 516.586C15.040 520.186 16.920 522.746 19.640 523.666C19.960 523.786 20.440 523.906 20.720 523.906C21.040 523.906 21.200 523.706 21.200 523.466C21.200 523.186 20.880 523.066 20.600 522.946C18.920 522.226 17.720 520.506 17.720 518.666C17.720 516.386 19.280 514.666 21.720 513.986C22.360 513.826 22.440 513.866 22.520 514.306L24.520 526.226C24.600 526.666 24.560 526.666 23.960 526.786C23.320 526.906 22.520 526.986 21.720 526.986C14.720 526.986 10.200 523.106 10.200 517.546C10.200 515.186 10.600 512.026 13.920 508.266C16.320 505.586 18.160 504.106 20.040 502.586M24.640 513.666C27.880 513.946 30.560 516.666 30.560 520.186C30.560 522.706 29.040 524.746 26.800 525.866C26.320 526.106 26.240 526.106 26.160 525.626L24.200 514.226C24.120 513.746 24.160 513.626 24.640 513.666M25.800 480.626C27.120 480.626 28.200 481.706 28.200 483.906C28.200 486.666 26.880 489.226 23.760 492.346C23.120 492.986 22.160 493.906 21.240 494.706C20.960 494.946 20.800 494.906 20.720 494.386C20.560 493.346 20.480 491.986 20.480 490.706C20.480 484.466 23.360 480.626 25.800 480.626"></path></g><g></g><text font-family='Alegreya' font-style='italic' text-anchor='end' stroke='#7a7a7a' font-size="24" x="0" y="478.3461538461538">19</text></g><g><line stroke="black" stroke-width="1.6" x1="195.48050177027235" x2="195.48050177027235" y1="488.3461538461538" y2="528.3461538461538"></line></g><g><g><path d="M52.860 513.986C56.860 513.986 61.780 510.266 61.780 506.466C61.780 504.186 59.980 502.706 57.380 502.706C52.460 502.706 48.500 506.346 48.500 510.226C48.500 512.586 50.420 513.986 52.860 513.986"></path></g><line stroke="#000000" stroke-width="1.2" x1="49.1" x2="49.1" y1="510.1861538461538" y2="545.1861538461537"></line></g><g><g><path d="M101.587 513.986C105.587 513.986 110.507 510.266 110.507 506.466C110.507 504.186 108.707 502.706 106.107 502.706C101.187 502.706 97.227 506.346 97.227 510.226C97.227 512.586 99.147 513.986 101.587 513.986"></path></g><line stroke="#000000" stroke-width="1.2" x1="97.8268339234241" x2="97.8268339234241" y1="510.1861538461538" y2="545.1861538461537"></line></g><g><g><path d="M150.314 513.986C154.314 513.986 159.234 510.266 159.234 506.466C159.234 504.186 157.434 502.706 154.834 502.706C149.914 502.706 145.954 506.346 145.954 510.226C145.954 512.586 147.874 513.986 150.314 513.986"></path></g><line stroke="#000000" stroke-width="1.2" x1="146.5536678468482" x2="146.5536678468482" y1="510.1861538461538" y2="545.1861538461537"></line></g></g><g transform="translate(305.1266556164262)"><g></g><g><line stroke="black" stroke-width="1.6" x1="146.98050177027235" x2="146.98050177027235" y1="488.3461538461538" y2="528.3461538461538"></line></g><g><g><path d="M4.360 513.986C8.360 513.986 13.280 510.266 13.280 506.466C13.280 504.186 11.480 502.706 8.880 502.706C3.960 502.706 0 506.346 0 510.226C0 512.586 1.920 513.986 4.360 513.986"></path></g><g><line stroke="#000000" stroke-width="1.2" x1="0.6" x2="0.6" y1="510.1861538461538" y2="545.1861538461537"></line><path d="M6.560 533.866L6.560 528.866L-5.440 531.346L-5.440 536.346M6.560 536.306L-5.440 538.826L-5.440 543.826L6.560 541.306"></path></g></g><g><g><path d="M53.087 513.986C57.087 513.986 62.007 510.266 62.007 506.466C62.007 504.186 60.207 502.706 57.607 502.706C52.687 502.706 48.727 506.346 48.727 510.226C48.727 512.586 50.647 513.986 53.087 513.986"></path></g><g><line stroke="#000000" stroke-width="1.2" x1="49.32683392342411" x2="49.32683392342411" y1="510.1861538461538" y2="545.1861538461537"></line><path d="M55.287 533.866L55.287 528.866L43.287 531.346L43.287 536.346M55.287 536.306L43.287 538.826L43.287 543.826L55.287 541.306"></path></g></g><g><path d="M106.774 514.786C105.254 512.946 104.014 511.466 104.014 509.226C104.014 509.066 104.054 508.866 104.054 508.706C104.214 506.386 105.654 504.466 106.694 502.826C106.814 502.626 106.854 502.426 106.854 502.226C106.854 501.826 106.694 501.466 106.694 501.466C106.694 501.466 100.774 494.426 100.094 493.746C99.894 493.546 99.614 493.426 99.374 493.426C98.974 493.426 98.574 493.706 98.574 494.266C98.574 494.466 98.614 494.666 98.734 494.906C98.894 495.346 101.174 497.386 101.174 500.266C101.174 501.746 100.574 503.466 98.774 505.346C98.374 505.746 98.214 506.186 98.214 506.506C98.214 507.066 98.614 507.466 98.614 507.466L100.574 509.866C101.214 510.666 101.774 511.426 102.294 512.266C102.374 512.426 102.534 512.626 102.534 512.826C102.534 512.866 102.534 512.946 102.494 512.986C102.414 513.146 102.254 513.186 102.054 513.186C101.814 513.186 101.574 513.106 101.414 513.066C101.214 513.066 100.974 512.946 100.774 512.946C99.054 512.946 97.494 514.666 97.494 516.786C97.494 518.786 99.214 520.746 102.134 522.986C102.454 523.226 102.854 523.346 103.174 523.346C103.454 523.346 103.734 523.266 103.774 523.106C103.814 522.986 103.854 522.906 103.854 522.826C103.854 522.466 103.534 522.146 103.214 521.866C102.694 521.866 102.254 520.786 102.174 520.426C102.054 520.106 102.014 519.746 102.014 519.386C102.014 518.146 102.614 516.746 103.894 516.506C104.094 516.466 104.294 516.466 104.534 516.466C105.694 516.466 107.014 516.906 107.654 517.146C107.694 517.146 107.734 517.186 107.774 517.186C107.894 517.226 107.974 517.226 108.054 517.226C108.174 517.226 108.254 517.186 108.254 517.066C108.254 516.586 107.214 515.266 106.774 514.786"></path></g></g><g transform="translate(467.90715738669854)"><g></g><g><line stroke="black" stroke-width="1.6" x1="146.98050177027235" x2="146.98050177027235" y1="488.3461538461538" y2="528.3461538461538"></line></g><g><g><path d="M4.360 513.986C8.360 513.986 13.280 510.266 13.280 506.466C13.280 504.186 11.480 502.706 8.880 502.706C3.960 502.706 0 506.346 0 510.226C0 512.586 1.920 513.986 4.360 513.986"></path></g><line stroke="#000000" stroke-width="1.2" x1="0.6" x2="0.6" y1="510.1861538461538" y2="545.1861538461537"></line><path d=""></path></g><g><g><path d="M53.087 513.986C57.087 513.986 62.007 510.266 62.007 506.466C62.007 504.186 60.207 502.706 57.607 502.706C52.687 502.706 48.727 506.346 48.727 510.226C48.727 512.586 50.647 513.986 53.087 513.986"></path></g><line stroke="#000000" stroke-width="1.2" x1="49.32683392342411" x2="49.32683392342411" y1="510.1861538461538" y2="545.1861538461537"></line><path d=""></path></g><g><path d="M106.774 514.786C105.254 512.946 104.014 511.466 104.014 509.226C104.014 509.066 104.054 508.866 104.054 508.706C104.214 506.386 105.654 504.466 106.694 502.826C106.814 502.626 106.854 502.426 106.854 502.226C106.854 501.826 106.694 501.466 106.694 501.466C106.694 501.466 100.774 494.426 100.094 493.746C99.894 493.546 99.614 493.426 99.374 493.426C98.974 493.426 98.574 493.706 98.574 494.266C98.574 494.466 98.614 494.666 98.734 494.906C98.894 495.346 101.174 497.386 101.174 500.266C101.174 501.746 100.574 503.466 98.774 505.346C98.374 505.746 98.214 506.186 98.214 506.506C98.214 507.066 98.614 507.466 98.614 507.466L100.574 509.866C101.214 510.666 101.774 511.426 102.294 512.266C102.374 512.426 102.534 512.626 102.534 512.826C102.534 512.866 102.534 512.946 102.494 512.986C102.414 513.146 102.254 513.186 102.054 513.186C101.814 513.186 101.574 513.106 101.414 513.066C101.214 513.066 100.974 512.946 100.774 512.946C99.054 512.946 97.494 514.666 97.494 516.786C97.494 518.786 99.214 520.746 102.134 522.986C102.454 523.226 102.854 523.346 103.174 523.346C103.454 523.346 103.734 523.266 103.774 523.106C103.814 522.986 103.854 522.906 103.854 522.826C103.854 522.466 103.534 522.146 103.214 521.866C102.694 521.866 102.254 520.786 102.174 520.426C102.054 520.106 102.014 519.746 102.014 519.386C102.014 518.146 102.614 516.746 103.894 516.506C104.094 516.466 104.294 516.466 104.534 516.466C105.694 516.466 107.014 516.906 107.654 517.146C107.694 517.146 107.734 517.186 107.774 517.186C107.894 517.226 107.974 517.226 108.054 517.226C108.174 517.226 108.254 517.186 108.254 517.066C108.254 516.586 107.214 515.266 106.774 514.786"></path></g></g><g transform="translate(630.6876591569709)"><g></g><g><line stroke="black" stroke-width="1.6" x1="146.98050177027235" x2="146.98050177027235" y1="488.3461538461538" y2="528.3461538461538"></line></g><g><g><path d="M4.360 513.986C8.360 513.986 13.280 510.266 13.280 506.466C13.280 504.186 11.480 502.706 8.880 502.706C3.960 502.706 0 506.346 0 510.226C0 512.586 1.920 513.986 4.360 513.986"></path></g><line stroke="#000000" stroke-width="1.2" x1="0.6" x2="0.6" y1="510.1861538461538" y2="545.1861538461537"></line><path d=""></path></g><g><g><path d="M53.087 513.986C57.087 513.986 62.007 510.266 62.007 506.466C62.007 504.186 60.207 502.706 57.607 502.706C52.687 502.706 48.727 506.346 48.727 510.226C48.727 512.586 50.647 513.986 53.087 513.986"></path></g><line stroke="#000000" stroke-width="1.2" x1="49.32683392342411" x2="49.32683392342411" y1="510.1861538461538" y2="545.1861538461537"></line><path d=""></path></g><g><path d="M106.774 514.786C105.254 512.946 104.014 511.466 104.014 509.226C104.014 509.066 104.054 508.866 104.054 508.706C104.214 506.386 105.654 504.466 106.694 502.826C106.814 502.626 106.854 502.426 106.854 502.226C106.854 501.826 106.694 501.466 106.694 501.466C106.694 501.466 100.774 494.426 100.094 493.746C99.894 493.546 99.614 493.426 99.374 493.426C98.974 493.426 98.574 493.706 98.574 494.266C98.574 494.466 98.614 494.666 98.734 494.906C98.894 495.346 101.174 497.386 101.174 500.266C101.174 501.746 100.574 503.466 98.774 505.346C98.374 505.746 98.214 506.186 98.214 506.506C98.214 507.066 98.614 507.466 98.614 507.466L100.574 509.866C101.214 510.666 101.774 511.426 102.294 512.266C102.374 512.426 102.534 512.626 102.534 512.826C102.534 512.866 102.534 512.946 102.494 512.986C102.414 513.146 102.254 513.186 102.054 513.186C101.814 513.186 101.574 513.106 101.414 513.066C101.214 513.066 100.974 512.946 100.774 512.946C99.054 512.946 97.494 514.666 97.494 516.786C97.494 518.786 99.214 520.746 102.134 522.986C102.454 523.226 102.854 523.346 103.174 523.346C103.454 523.346 103.734 523.266 103.774 523.106C103.814 522.986 103.854 522.906 103.854 522.826C103.854 522.466 103.534 522.146 103.214 521.866C102.694 521.866 102.254 520.786 102.174 520.426C102.054 520.106 102.014 519.746 102.014 519.386C102.014 518.146 102.614 516.746 103.894 516.506C104.094 516.466 104.294 516.466 104.534 516.466C105.694 516.466 107.014 516.906 107.654 517.146C107.694 517.146 107.734 517.186 107.774 517.186C107.894 517.226 107.974 517.226 108.054 517.226C108.174 517.226 108.254 517.186 108.254 517.066C108.254 516.586 107.214 515.266 106.774 514.786"></path></g></g><g transform="translate(793.4681609272433)"><g></g><g><line stroke="#000000" stroke-width="1.6" x1="146.98050177027235" x2="146.98050177027235" y1="488.3461538461538" y2="528.3461538461538"></line><line stroke="#000000" stroke-width="5" x1="154.28050177027234" x2="154.28050177027234" y1="488.3461538461538" y2="528.3461538461538"></line></g><g><g><path d="M4.360 513.986C8.360 513.986 13.280 510.266 13.280 506.466C13.280 504.186 11.480 502.706 8.880 502.706C3.960 502.706 0 506.346 0 510.226C0 512.586 1.920 513.986 4.360 513.986"></path></g><line stroke="#000000" stroke-width="1.2" x1="0.6" x2="0.6" y1="510.1861538461538" y2="545.1861538461537"></line></g><g><g><path d="M53.087 513.986C57.087 513.986 62.007 510.266 62.007 506.466C62.007 504.186 60.207 502.706 57.607 502.706C52.687 502.706 48.727 506.346 48.727 510.226C48.727 512.586 50.647 513.986 53.087 513.986"></path></g><line stroke="#000000" stroke-width="1.2" x1="49.32683392342411" x2="49.32683392342411" y1="510.1861538461538" y2="545.1861538461537"></line></g><g><g><path d="M101.814 513.986C105.814 513.986 110.734 510.266 110.734 506.466C110.734 504.186 108.934 502.706 106.334 502.706C101.414 502.706 97.454 506.346 97.454 510.226C97.454 512.586 99.374 513.986 101.814 513.986"></path></g><line stroke="#000000" stroke-width="1.2" x1="98.05366784684821" x2="98.05366784684821" y1="510.1861538461538" y2="545.1861538461537"></line></g></g></svg>