<?xml version="1.0" encoding="UTF-8" standalone="no"?><svg xmlns="http://www.w3.org/2000/svg" height="279.4mm" viewBox="0 0 1328.6153846153845 1719.3846153846152" width="215.9mm"><g transform="translate(163.84615384615387)"><g><g><line stroke="#6A6A6A" stroke-width="1.3" x1="0" x2="328.7759771037766" y1="216.3461538461538" y2="216.3461538461538"></line><line stroke="#6A6A6A" stroke-width="1.3" x1="0" x2="328.7759771037766" y1="206.3461538461538" y2="206.3461538461538"></line><line stroke="#6A6A6A" stroke-width="1.3" x1="0" x2="328.7759771037766" y1="196.3461538461538" y2="196.3461538461538"></line><line stroke="#6A6A6A" stroke-width="1.3" x1="0" x2="328.7759771037766" y1="186.3461538461538" y2="186.3461538461538"></line><line stroke="#6A6A6A" stroke-width="1.3" x1="0" x2="328.7759771037766" y1="176.3461538461538" y2="176.3461538461538"></line></g><g><path d="M25.200 162.426C24.640 162.426 23.400 163.466 22.600 164.346C19.640 167.626 18.680 172.626 18.680 176.786C18.680 179.106 18.960 181.706 19.240 183.346C19.320 183.826 19.360 183.906 18.880 184.306C16.320 186.426 13.560 188.866 11.480 191.426C8.720 194.866 7 198.586 7 202.866C7 209.826 11.760 216.426 21.560 216.426C22.480 216.426 23.520 216.346 24.320 216.186C24.760 216.106 24.840 216.066 24.920 216.546C25.400 219.226 26 222.706 26 224.586C26 230.506 22 231.226 19.640 231.226C17.480 231.226 16.440 230.586 16.440 230.066C16.440 229.626 16.800 229.666 17.720 229.386C18.960 229.026 20.400 227.946 20.400 225.626C20.400 223.426 19 221.546 16.560 221.546C13.880 221.546 12.280 223.666 12.280 226.146C12.280 228.746 13.840 232.666 19.880 232.666C22.560 232.666 27.760 231.466 27.760 224.666C27.760 222.386 27.040 218.586 26.600 216.106C26.520 215.626 26.560 215.666 27.120 215.426C31.160 213.826 33.840 210.426 33.840 205.906C33.840 200.786 30.080 196.266 24.200 196.266C23.080 196.266 23.200 196.466 23.040 195.546L22.040 189.746C21.960 189.266 22.040 189.226 22.280 188.986C22.920 188.386 23.760 187.546 24.520 186.706C27.880 183.026 29.880 178.266 29.880 173.746C29.880 170.266 28.920 166.826 27.280 164.426C26.680 163.546 25.640 162.426 25.200 162.426M20.040 190.586C20.440 190.266 20.520 190.306 20.600 190.746L21.440 195.866C21.560 196.626 21.560 196.586 20.840 196.826C17.320 198.026 15.040 201.186 15.040 204.586C15.040 208.186 16.920 210.746 19.640 211.666C19.960 211.786 20.440 211.906 20.720 211.906C21.040 211.906 21.200 211.706 21.200 211.466C21.200 211.186 20.880 211.066 20.600 210.946C18.920 210.226 17.720 208.506 17.720 206.666C17.720 204.386 19.280 202.666 21.720 201.986C22.360 201.826 22.440 201.866 22.520 202.306L24.520 214.226C24.600 214.666 24.560 214.666 23.960 214.786C23.320 214.906 22.520 214.986 21.720 214.986C14.720 214.986 10.200 211.106 10.200 205.546C10.200 203.186 10.600 200.026 13.920 196.266C16.320 193.586 18.160 192.106 20.040 190.586M24.640 201.666C27.880 201.946 30.560 204.666 30.560 208.186C30.560 210.706 29.040 212.746 26.800 213.866C26.320 214.106 26.240 214.106 26.160 213.626L24.200 202.226C24.120 201.746 24.160 201.626 24.640 201.666M25.800 168.626C27.120 168.626 28.200 169.706 28.200 171.906C28.200 174.666 26.880 177.226 23.760 180.346C23.120 180.986 22.160 181.906 21.240 182.706C20.960 182.946 20.800 182.906 20.720 182.386C20.560 181.346 20.480 179.986 20.480 178.706C20.480 172.466 23.360 168.626 25.800 168.626"></path></g><g></g><g><g><path d="M65.180 189.306L62.260 189.306L62.260 180.746C62.260 180.426 62.220 180.066 61.780 180.066C61.420 180.066 61.220 180.146 60.980 180.426L57.180 185.026C57.020 185.226 56.820 185.466 56.820 185.946C56.820 185.946 56.820 187.546 56.820 189.306L51.420 189.306C54.620 186.586 61.020 177.506 61.140 177.066C61.140 176.986 61.180 176.946 61.180 176.866C61.180 176.546 60.900 176.306 60.580 176.306C60.220 176.306 58.580 176.386 57.860 176.386C57.140 176.386 55.340 176.306 55.020 176.306C54.660 176.306 54.100 176.426 54.100 177.066C54.100 182.026 50.180 187.586 48.980 189.266L48.740 189.586C48.740 189.626 48.700 189.666 48.700 189.706C48.620 189.866 48.580 190.026 48.580 190.146C48.580 190.546 48.900 190.826 49.380 190.826L56.820 190.826L56.820 193.346C56.820 194.426 55.940 194.746 55.220 194.746C54.580 194.746 54.300 195.106 54.300 195.506C54.300 195.906 54.460 196.346 55.060 196.346C55.700 196.346 63.580 196.346 63.580 196.346C63.980 196.346 64.380 196.066 64.380 195.506C64.380 194.946 63.900 194.706 63.500 194.706C63.100 194.706 62.260 194.466 62.260 193.186L62.260 190.826C63.980 190.826 65.180 190.826 65.180 190.826C65.580 190.826 65.780 190.546 65.780 190.066C65.780 189.586 65.620 189.306 65.180 189.306"></path></g><g><path d="M65.180 209.306L62.260 209.306L62.260 200.746C62.260 200.426 62.220 200.066 61.780 200.066C61.420 200.066 61.220 200.146 60.980 200.426L57.180 205.026C57.020 205.226 56.820 205.466 56.820 205.946C56.820 205.946 56.820 207.546 56.820 209.306L51.420 209.306C54.620 206.586 61.020 197.506 61.140 197.066C61.140 196.986 61.180 196.946 61.180 196.866C61.180 196.546 60.900 196.306 60.580 196.306C60.220 196.306 58.580 196.386 57.860 196.386C57.140 196.386 55.340 196.306 55.020 196.306C54.660 196.306 54.100 196.426 54.100 197.066C54.100 202.026 50.180 207.586 48.980 209.266L48.740 209.586C48.740 209.626 48.700 209.666 48.700 209.706C48.620 209.866 48.580 210.026 48.580 210.146C48.580 210.546 48.900 210.826 49.380 210.826L56.820 210.826L56.820 213.346C56.820 214.426 55.940 214.746 55.220 214.746C54.580 214.746 54.300 215.106 54.300 215.506C54.300 215.906 54.460 216.346 55.060 216.346C55.700 216.346 63.580 216.346 63.580 216.346C63.980 216.346 64.380 216.066 64.380 215.506C64.380 214.946 63.900 214.706 63.500 214.706C63.100 214.706 62.260 214.466 62.260 213.186L62.260 210.826C63.980 210.826 65.180 210.826 65.180 210.826C65.580 210.826 65.780 210.546 65.780 210.066C65.780 209.586 65.620 209.306 65.180 209.306"></path></g></g></g><g><line stroke="black" stroke-width="1.6" x1="329.5759771037766" x2="329.5759771037766" y1="176.3461538461538" y2="216.3461538461538"></line></g><g><g><line stroke="#6A6A6A" stroke-width="1.3" x1="0" x2="328.7759771037766" y1="366.3461538461538" y2="366.3461538461538"></line><line stroke="#6A6A6A" stroke-width="1.3" x1="0" x2="328.7759771037766" y1="356.3461538461538" y2="356.3461538461538"></line><line stroke="#6A6A6A" stroke-width="1.3" x1="0" x2="328.7759771037766" y1="346.3461538461538" y2="346.3461538461538"></line><line stroke="#6A6A6A" stroke-width="1.3" x1="0" x2="328.7759771037766" y1="336.3461538461538" y2="336.3461538461538"></line><line stroke="#6A6A6A" stroke-width="1.3" x1="0" x2="328.7759771037766" y1="326.3461538461538" y2="326.3461538461538"></line></g><g><path d="M25.200 312.426C24.640 312.426 23.400 313.466 22.600 314.346C19.640 317.626 18.680 322.626 18.680 326.786C18.680 329.106 18.960 331.706 19.240 333.346C19.320 333.826 19.360 333.906 18.880 334.306C16.320 336.426 13.560 338.866 11.480 341.426C8.720 344.866 7 348.586 7 352.866C7 359.826 11.760 366.426 21.560 366.426C22.480 366.426 23.520 366.346 24.320 366.186C24.760 366.106 24.840 366.066 24.920 366.546C25.400 369.226 26 372.706 26 374.586C26 380.506 22 381.226 19.640 381.226C17.480 381.226 16.440 380.586 16.440 380.066C16.440 379.626 16.800 379.666 17.720 379.386C18.960 379.026 20.400 377.946 20.400 375.626C20.400 373.426 19 371.546 16.560 371.546C13.880 371.546 12.280 373.666 12.280 376.146C12.280 378.746 13.840 382.666 19.880 382.666C22.560 382.666 27.760 381.466 27.760 374.666C27.760 372.386 27.040 368.586 26.600 366.106C26.520 365.626 26.560 365.666 27.120 365.426C31.160 363.826 33.840 360.426 33.840 355.906C33.840 350.786 30.080 346.266 24.200 346.266C23.080 346.266 23.200 346.466 23.040 345.546L22.040 339.746C21.960 339.266 22.040 339.226 22.280 338.986C22.920 338.386 23.760 337.546 24.520 336.706C27.880 333.026 29.880 328.266 29.880 323.746C29.880 320.266 28.920 316.826 27.280 314.426C26.680 313.546 25.640 312.426 25.200 312.426M20.040 340.586C20.440 340.266 20.520 340.306 20.600 340.746L21.440 345.866C21.560 346.626 21.560 346.586 20.840 346.826C17.320 348.026 15.040 351.186 15.040 354.586C15.040 358.186 16.920 360.746 19.640 361.666C19.960 361.786 20.440 361.906 20.720 361.906C21.040 361.906 21.200 361.706 21.200 361.466C21.200 361.186 20.880 361.066 20.600 360.946C18.920 360.226 17.720 358.506 17.720 356.666C17.720 354.386 19.280 352.666 21.720 351.986C22.360 351.826 22.440 351.866 22.520 352.306L24.520 364.226C24.600 364.666 24.560 364.666 23.960 364.786C23.320 364.906 22.520 364.986 21.720 364.986C14.720 364.986 10.200 361.106 10.200 355.546C10.200 353.186 10.600 350.026 13.920 346.266C16.320 343.586 18.160 342.106 20.040 340.586M24.640 351.666C27.880 351.946 30.560 354.666 30.560 358.186C30.560 360.706 29.040 362.746 26.800 363.866C26.320 364.106 26.240 364.106 26.160 363.626L24.200 352.226C24.120 351.746 24.160 351.626 24.640 351.666M25.800 318.626C27.120 318.626 28.200 319.706 28.200 321.906C28.200 324.666 26.880 327.226 23.760 330.346C23.120 330.986 22.160 331.906 21.240 332.706C20.960 332.946 20.800 332.906 20.720 332.386C20.560 331.346 20.480 329.986 20.480 328.706C20.480 322.466 23.360 318.626 25.800 318.626"></path></g><g></g><g><g><path d="M65.180 339.306L62.260 339.306L62.260 330.746C62.260 330.426 62.220 330.066 61.780 330.066C61.420 330.066 61.220 330.146 60.980 330.426L57.180 335.026C57.020 335.226 56.820 335.466 56.820 335.946C56.820 335.946 56.820 337.546 56.820 339.306L51.420 339.306C54.620 336.586 61.020 327.506 61.140 327.066C61.140 326.986 61.180 326.946 61.180 326.866C61.180 326.546 60.900 326.306 60.580 326.306C60.220 326.306 58.580 326.386 57.860 326.386C57.140 326.386 55.340 326.306 55.020 326.306C54.660 326.306 54.100 326.426 54.100 327.066C54.100 332.026 50.180 337.586 48.980 339.266L48.740 339.586C48.740 339.626 48.700 339.666 48.700 339.706C48.620 339.866 48.580 340.026 48.580 340.146C48.580 340.546 48.900 340.826 49.380 340.826L56.820 340.826L56.820 343.346C56.820 344.426 55.940 344.746 55.220 344.746C54.580 344.746 54.300 345.106 54.300 345.506C54.300 345.906 54.460 346.346 55.060 346.346C55.700 346.346 63.580 346.346 63.580 346.346C63.980 346.346 64.380 346.066 64.380 345.506C64.380 344.946 63.900 344.706 63.500 344.706C63.100 344.706 62.260 344.466 62.260 343.186L62.260 340.826C63.980 340.826 65.180 340.826 65.180 340.826C65.580 340.826 65.780 340.546 65.780 340.066C65.780 339.586 65.620 339.306 65.180 339.306"></path></g><g><path d="M65.180 359.306L62.260 359.306L62.260 350.746C62.260 350.426 62.220 350.066 61.780 350.066C61.420 350.066 61.220 350.146 60.980 350.426L57.180 355.026C57.020 355.226 56.820 355.466 56.820 355.946C56.820 355.946 56.820 357.546 56.820 359.306L51.420 359.306C54.620 356.586 61.020 347.506 61.140 347.066C61.140 346.986 61.180 346.946 61.180 346.866C61.180 346.546 60.900 346.306 60.580 346.306C60.220 346.306 58.580 346.386 57.860 346.386C57.140 346.386 55.340 346.306 55.020 346.306C54.660 346.306 54.100 346.426 54.100 347.066C54.100 352.026 50.180 357.586 48.980 359.266L48.740 359.586C48.740 359.626 48.700 359.666 48.700 359.706C48.620 359.866 48.580 360.026 48.580 360.146C48.580 360.546 48.900 360.826 49.380 360.826L56.820 360.826L56.820 363.346C56.820 364.426 55.940 364.746 55.220 364.746C54.580 364.746 54.300 365.106 54.300 365.506C54.300 365.906 54.460 366.346 55.060 366.346C55.700 366.346 63.580 366.346 63.580 366.346C63.980 366.346 64.380 366.066 64.380 365.506C64.380 364.946 63.900 364.706 63.500 364.706C63.100 364.706 62.260 364.466 62.260 363.186L62.260 360.826C63.980 360.826 65.180 360.826 65.180 360.826C65.580 360.826 65.780 360.546 65.780 360.066C65.780 359.586 65.620 359.306 65.180 359.306"></path></g></g><g><line stroke="#000000" stroke-width="5" x1="-7.5" x2="-7.5" y1="170.8461538461538" y2="471.8461538461538"></line><path d="M-10 173.846L-5 173.846C1.400 172.646 7.120 169.686 8.720 163.006C8.760 162.846 8.760 162.726 8.760 162.606C8.760 162.286 8.640 162.126 8.440 162.046C8.080 162.046 7.640 162.326 7.440 162.606C7.040 163.046 2 168.326-5.640 168.886L-9.680 168.886C-9.920 168.886-10 168.926-10 169.166"></path><path d="M-10 473.526C-10 473.766-9.920 473.806-9.680 473.806L-5.640 473.806C2 474.366 7.040 479.646 7.440 480.086C7.640 480.366 8.080 480.646 8.440 480.646C8.640 480.566 8.760 480.406 8.760 480.086C8.760 479.966 8.760 479.846 8.720 479.686C7.120 473.006 1.400 470.046-5 468.846L-10 468.846"></path><line stroke="#000000" stroke-width="1.6" x1="0" x2="0" y1="175.8461538461538" y2="466.8461538461538"></line></g></g><g><line stroke="black" stroke-width="1.6" x1="329.5759771037766" x2="329.5759771037766" y1="175.8461538461538" y2="466.8461538461538"></line></g><g><g><line stroke="#6A6A6A" stroke-width="1.3" x1="0" x2="328.7759771037766" y1="446.3461538461538" y2="446.3461538461538"></line></g><g><path d="M25.200 412.426C24.640 412.426 23.400 413.466 22.600 414.346C19.640 417.626 18.680 422.626 18.680 426.786C18.680 429.106 18.960 431.706 19.240 433.346C19.320 433.826 19.360 433.906 18.880 434.306C16.320 436.426 13.560 438.866 11.480 441.426C8.720 444.866 7 448.586 7 452.866C7 459.826 11.760 466.426 21.560 466.426C22.480 466.426 23.520 466.346 24.320 466.186C24.760 466.106 24.840 466.066 24.920 466.546C25.400 469.226 26 472.706 26 474.586C26 480.506 22 481.226 19.640 481.226C17.480 481.226 16.440 480.586 16.440 480.066C16.440 479.626 16.800 479.666 17.720 479.386C18.960 479.026 20.400 477.946 20.400 475.626C20.400 473.426 19 471.546 16.560 471.546C13.880 471.546 12.280 473.666 12.280 476.146C12.280 478.746 13.840 482.666 19.880 482.666C22.560 482.666 27.760 481.466 27.760 474.666C27.760 472.386 27.040 468.586 26.600 466.106C26.520 465.626 26.560 465.666 27.120 465.426C31.160 463.826 33.840 460.426 33.840 455.906C33.840 450.786 30.080 446.266 24.200 446.266C23.080 446.266 23.200 446.466 23.040 445.546L22.040 439.746C21.960 439.266 22.040 439.226 22.280 438.986C22.920 438.386 23.760 437.546 24.520 436.706C27.880 433.026 29.880 428.266 29.880 423.746C29.880 420.266 28.920 416.826 27.280 414.426C26.680 413.546 25.640 412.426 25.200 412.426M20.040 440.586C20.440 440.266 20.520 440.306 20.600 440.746L21.440 445.866C21.560 446.626 21.560 446.586 20.840 446.826C17.320 448.026 15.040 451.186 15.040 454.586C15.040 458.186 16.920 460.746 19.640 461.666C19.960 461.786 20.440 461.906 20.720 461.906C21.040 461.906 21.200 461.706 21.200 461.466C21.200 461.186 20.880 461.066 20.600 460.946C18.920 460.226 17.720 458.506 17.720 456.666C17.720 454.386 19.280 452.666 21.720 451.986C22.360 451.826 22.440 451.866 22.520 452.306L24.520 464.226C24.600 464.666 24.560 464.666 23.960 464.786C23.320 464.906 22.520 464.986 21.720 464.986C14.720 464.986 10.200 461.106 10.200 455.546C10.200 453.186 10.600 450.026 13.920 446.266C16.320 443.586 18.160 442.106 20.040 440.586M24.640 451.666C27.880 451.946 30.560 454.666 30.560 458.186C30.560 460.706 29.040 462.746 26.800 463.866C26.320 464.106 26.240 464.106 26.160 463.626L24.200 452.226C24.120 451.746 24.160 451.626 24.640 451.666M25.800 418.626C27.120 418.626 28.200 419.706 28.200 421.906C28.200 424.666 26.880 427.226 23.760 430.346C23.120 430.986 22.160 431.906 21.240 432.706C20.960 432.946 20.800 432.906 20.720 432.386C20.560 431.346 20.480 429.986 20.480 428.706C20.480 422.466 23.360 418.626 25.800 418.626"></path></g><g></g><g><g><path d="M65.180 439.306L62.260 439.306L62.260 430.746C62.260 430.426 62.220 430.066 61.780 430.066C61.420 430.066 61.220 430.146 60.980 430.426L57.180 435.026C57.020 435.226 56.820 435.466 56.820 435.946C56.820 435.946 56.820 437.546 56.820 439.306L51.420 439.306C54.620 436.586 61.020 427.506 61.140 427.066C61.140 426.986 61.180 426.946 61.180 426.866C61.180 426.546 60.900 426.306 60.580 426.306C60.220 426.306 58.580 426.386 57.860 426.386C57.140 426.386 55.340 426.306 55.020 426.306C54.660 426.306 54.100 426.426 54.100 427.066C54.100 432.026 50.180 437.586 48.980 439.266L48.740 439.586C48.740 439.626 48.700 439.666 48.700 439.706C48.620 439.866 48.580 440.026 48.580 440.146C48.580 440.546 48.900 440.826 49.380 440.826L56.820 440.826L56.820 443.346C56.820 444.426 55.940 444.746 55.220 444.746C54.580 444.746 54.300 445.106 54.300 445.506C54.300 445.906 54.460 446.346 55.060 446.346C55.700 446.346 63.580 446.346 63.580 446.346C63.980 446.346 64.380 446.066 64.380 445.506C64.380 444.946 63.900 444.706 63.500 444.706C63.100 444.706 62.260 444.466 62.260 443.186L62.260 440.826C63.980 440.826 65.180 440.826 65.180 440.826C65.580 440.826 65.780 440.546 65.780 440.066C65.780 439.586 65.620 439.306 65.180 439.306"></path></g><g><path d="M65.180 459.306L62.260 459.306L62.260 450.746C62.260 450.426 62.220 450.066 61.780 450.066C61.420 450.066 61.220 450.146 60.980 450.426L57.180 455.026C57.020 455.226 56.820 455.466 56.820 455.946C56.820 455.946 56.820 457.546 56.820 459.306L51.420 459.306C54.620 456.586 61.020 447.506 61.140 447.066C61.140 446.986 61.180 446.946 61.180 446.866C61.180 446.546 60.900 446.306 60.580 446.306C60.220 446.306 58.580 446.386 57.860 446.386C57.140 446.386 55.340 446.306 55.020 446.306C54.660 446.306 54.100 446.426 54.100 447.066C54.100 452.026 50.180 457.586 48.980 459.266L48.740 459.586C48.740 459.626 48.700 459.666 48.700 459.706C48.620 459.866 48.580 460.026 48.580 460.146C48.580 460.546 48.900 460.826 49.380 460.826L56.820 460.826L56.820 463.346C56.820 464.426 55.940 464.746 55.220 464.746C54.580 464.746 54.300 465.106 54.300 465.506C54.300 465.906 54.460 466.346 55.060 466.346C55.700 466.346 63.580 466.346 63.580 466.346C63.980 466.346 64.380 466.066 64.380 465.506C64.380 464.946 63.900 464.706 63.500 464.706C63.100 464.706 62.260 464.466 62.260 463.186L62.260 460.826C63.980 460.826 65.180 460.826 65.180 460.826C65.580 460.826 65.780 460.546 65.780 460.066C65.780 459.586 65.620 459.306 65.180 459.306"></path></g></g><g><line stroke="#000000" stroke-width="5" x1="-7.5" x2="-7.5" y1="170.8461538461538" y2="471.8461538461538"></line><path d="M-10 173.846L-5 173.846C1.400 172.646 7.120 169.686 8.720 163.006C8.760 162.846 8.760 162.726 8.760 162.606C8.760 162.286 8.640 162.126 8.440 162.046C8.080 162.046 7.640 162.326 7.440 162.606C7.040 163.046 2 168.326-5.640 168.886L-9.680 168.886C-9.920 168.886-10 168.926-10 169.166"></path><path d="M-10 473.526C-10 473.766-9.920 473.806-9.680 473.806L-5.640 473.806C2 474.366 7.040 479.646 7.440 480.086C7.640 480.366 8.080 480.646 8.440 480.646C8.640 480.566 8.760 480.406 8.760 480.086C8.760 479.966 8.760 479.846 8.720 479.686C7.120 473.006 1.400 470.046-5 468.846L-10 468.846"></path><line stroke="#000000" stroke-width="1.6" x1="0" x2="0" y1="175.8461538461538" y2="466.8461538461538"></line></g></g><g><line stroke="black" stroke-width="1.6" x1="329.5759771037766" x2="329.5759771037766" y1="175.8461538461538" y2="466.8461538461538"></line></g><g><g><path d="M98.400 245.866C92.600 245.866 89 248.306 89 251.266C89 254.186 91.480 256.786 97.960 256.786C105.080 256.786 107.360 254.306 107.360 251.266C107.360 248.186 102.440 245.866 98.400 245.866M93.840 248.586C94.320 247.106 95.920 246.866 97.280 246.866C100.240 246.866 102.640 250.066 102.640 252.706C102.640 252.986 102.600 253.266 102.560 253.506C102.360 254.586 101.720 255.346 100.640 255.626C100.200 255.746 99.760 255.786 99.320 255.786C98.920 255.786 98.560 255.746 98.160 255.626C97.440 255.386 96.720 254.986 96.120 254.466C95.800 254.186 95.480 253.866 95.200 253.506C94.360 252.506 93.680 251.026 93.680 249.666C93.680 249.306 93.720 248.946 93.840 248.586"></path></g><line stroke="#000000" stroke-width="2.2" x1="85.8" x2="112.6" y1="226.3461538461538" y2="226.3461538461538"></line><line stroke="#000000" stroke-width="2.2" x1="85.8" x2="112.6" y1="236.3461538461538" y2="236.3461538461538"></line><line stroke="#000000" stroke-width="2.2" x1="85.8" x2="112.6" y1="246.3461538461538" y2="246.3461538461538"></line></g><g><g><path d="M93.480 337.146C101.120 337.146 102.640 330.946 102.640 329.426C102.640 327.066 100.760 325.546 98.080 325.546C91.160 325.546 89 330.906 89 333.306C89 335.746 90.960 337.146 93.480 337.146M97 333.466C94.920 334.866 93.480 335.346 92.480 335.346C91.520 335.346 90.960 334.866 90.640 334.306C90.480 334.026 90.360 333.706 90.360 333.386C90.360 332.386 91.360 331.106 94.560 329.266C96.840 327.946 98.280 327.466 99.240 327.466C100.120 327.466 100.600 327.866 100.920 328.426C101.080 328.706 101.200 328.986 101.200 329.306C101.200 330.226 100.240 331.346 97 333.466"></path><g><circle cx="108.64" cy="331.3461538461538" fill="#000000" r="2.4"></circle></g></g><line stroke="#000000" stroke-width="1.2" x1="89.6" x2="89.6" y1="333.3061538461538" y2="368.3061538461538"></line></g><g><g><path d="M256.981 346.986C260.981 346.986 265.901 343.266 265.901 339.466C265.901 337.186 264.101 335.706 261.501 335.706C256.581 335.706 252.621 339.346 252.621 343.226C252.621 345.586 254.541 346.986 256.981 346.986"></path></g><line stroke="#000000" stroke-width="1.2" x1="253.22149900269662" x2="253.22149900269662" y1="343.1861538461538" y2="378.1861538461538"></line></g><g><g><path d="M93.480 467.146C101.120 467.146 102.640 460.946 102.640 459.426C102.640 457.066 100.760 455.546 98.080 455.546C91.160 455.546 89 460.906 89 463.306C89 465.746 90.960 467.146 93.480 467.146M97 463.466C94.920 464.866 93.480 465.346 92.480 465.346C91.520 465.346 90.960 464.866 90.640 464.306C90.480 464.026 90.360 463.706 90.360 463.386C90.360 462.386 91.360 461.106 94.560 459.266C96.840 457.946 98.280 457.466 99.240 457.466C100.120 457.466 100.600 457.866 100.920 458.426C101.080 458.706 101.200 458.986 101.200 459.306C101.200 460.226 100.240 461.346 97 463.466"></path><g><circle cx="108.64" cy="461.3461538461538" fill="#000000" r="2.4"></circle></g></g><line stroke="#000000" stroke-width="1.2" x1="102.04" x2="102.04" y1="459.4261538461538" y2="424.4261538461538"></line></g><g><g><path d="M256.981 466.986C260.981 466.986 265.901 463.266 265.901 459.466C265.901 457.186 264.101 455.706 261.501 455.706C256.581 455.706 252.621 459.346 252.621 463.226C252.621 465.586 254.541 466.986 256.981 466.986"></path></g><line stroke="#000000" stroke-width="1.2" x1="265.30149900269663" x2="265.30149900269663" y1="459.50615384615384" y2="424.50615384615384"></line></g></g><g transform="translate(509.2221309499305)"><g><g><line stroke="#6A6A6A" stroke-width="1.3" x1="-16.599999999999966" x2="265.7088910454755" y1="216.3461538461538" y2="216.3461538461538"></line><line stroke="#6A6A6A" stroke-width="1.3" x1="-16.599999999999966" x2="265.7088910454755" y1="206.3461538461538" y2="206.3461538461538"></line><line stroke="#6A6A6A" stroke-width="1.3" x1="-16.599999999999966" x2="265.7088910454755" y1="196.3461538461538" y2="196.3461538461538"></line><line stroke="#6A6A6A" stroke-width="1.3" x1="-16.599999999999966" x2="265.7088910454755" y1="186.3461538461538" y2="186.3461538461538"></line><line stroke="#6A6A6A" stroke-width="1.3" x1="-16.599999999999966" x2="265.7088910454755" y1="176.3461538461538" y2="176.3461538461538"></line></g></g><g><line stroke="#000000" stroke-width="1.6" x1="255.9088910454755" x2="255.9088910454755" y1="176.3461538461538" y2="216.3461538461538"></line><line stroke="#000000" stroke-width="5" x1="263.2088910454755" x2="263.2088910454755" y1="176.3461538461538" y2="216.3461538461538"></line></g><g><g><line stroke="#6A6A6A" stroke-width="1.3" x1="-16.599999999999966" x2="265.7088910454755" y1="366.3461538461538" y2="366.3461538461538"></line><line stroke="#6A6A6A" stroke-width="1.3" x1="-16.599999999999966" x2="265.7088910454755" y1="356.3461538461538" y2="356.3461538461538"></line><line stroke="#6A6A6A" stroke-width="1.3" x1="-16.599999999999966" x2="265.7088910454755" y1="346.3461538461538" y2="346.3461538461538"></line><line stroke="#6A6A6A" stroke-width="1.3" x1="-16.599999999999966" x2="265.7088910454755" y1="336.3461538461538" y2="336.3461538461538"></line><line stroke="#6A6A6A" stroke-width="1.3" x1="-16.599999999999966" x2="265.7088910454755" y1="326.3461538461538" y2="326.3461538461538"></line></g></g><g><line stroke="#000000" stroke-width="1.6" x1="255.9088910454755" x2="255.9088910454755" y1="175.8461538461538" y2="466.8461538461538"></line><line stroke="#000000" stroke-width="5" x1="263.2088910454755" x2="263.2088910454755" y1="175.8461538461538" y2="466.8461538461538"></line></g><g><g><line stroke="#6A6A6A" stroke-width="1.3" x1="-16.599999999999966" x2="265.7088910454755" y1="446.3461538461538" y2="446.3461538461538"></line></g></g><g><line stroke="#000000" stroke-width="1.6" x1="255.9088910454755" x2="255.9088910454755" y1="175.8461538461538" y2="466.8461538461538"></line><line stroke="#000000" stroke-width="5" x1="263.2088910454755" x2="263.2088910454755" y1="175.8461538461538" y2="466.8461538461538"></line></g><g><g><path d="M4.480 257.146C12.120 257.146 13.640 250.946 13.640 249.426C13.640 247.066 11.760 245.546 9.080 245.546C2.160 245.546 0 250.906 0 253.306C0 255.746 1.960 257.146 4.480 257.146M8 253.466C5.920 254.866 4.480 255.346 3.480 255.346C2.520 255.346 1.960 254.866 1.640 254.306C1.480 254.026 1.360 253.706 1.360 253.386C1.360 252.386 2.360 251.106 5.560 249.266C7.840 247.946 9.280 247.466 10.240 247.466C11.120 247.466 11.600 247.866 11.920 248.426C12.080 248.706 12.200 248.986 12.200 249.306C12.200 250.226 11.240 251.346 8 253.466"></path></g><line stroke="#000000" stroke-width="1.2" x1="13.040000000000001" x2="13.040000000000001" y1="249.42615384615382" y2="194.42615384615382"></line><line stroke="#000000" stroke-width="2.2" x1="-3.2" x2="19.24" y1="226.3461538461538" y2="226.3461538461538"></line><line stroke="#000000" stroke-width="2.2" x1="-3.2" x2="19.24" y1="236.3461538461538" y2="236.3461538461538"></line><line stroke="#000000" stroke-width="2.2" x1="-3.2" x2="19.24" y1="246.3461538461538" y2="246.3461538461538"></line></g><g><g><path d="M132.034 277.146C139.674 277.146 141.194 270.946 141.194 269.426C141.194 267.066 139.314 265.546 136.634 265.546C129.714 265.546 127.554 270.906 127.554 273.306C127.554 275.746 129.514 277.146 132.034 277.146M135.554 273.466C133.474 274.866 132.034 275.346 131.034 275.346C130.074 275.346 129.514 274.866 129.194 274.306C129.034 274.026 128.914 273.706 128.914 273.386C128.914 272.386 129.914 271.106 133.114 269.266C135.394 267.946 136.834 267.466 137.794 267.466C138.674 267.466 139.154 267.866 139.474 268.426C139.634 268.706 139.754 268.986 139.754 269.306C139.754 270.226 138.794 271.346 135.554 273.466"></path></g><line stroke="#000000" stroke-width="1.2" x1="140.59444552273774" x2="140.59444552273774" y1="269.4261538461538" y2="194.4261538461538"></line><line stroke="#000000" stroke-width="2.2" x1="124.35444552273775" x2="146.79444552273776" y1="226.3461538461538" y2="226.3461538461538"></line><line stroke="#000000" stroke-width="2.2" x1="124.35444552273775" x2="146.79444552273776" y1="236.3461538461538" y2="236.3461538461538"></line><line stroke="#000000" stroke-width="2.2" x1="124.35444552273775" x2="146.79444552273776" y1="246.3461538461538" y2="246.3461538461538"></line><line stroke="#000000" stroke-width="2.2" x1="124.35444552273775" x2="146.79444552273776" y1="256.3461538461538" y2="256.3461538461538"></line><line stroke="#000000" stroke-width="2.2" x1="124.35444552273775" x2="146.79444552273776" y1="266.3461538461538" y2="266.3461538461538"></line></g><g><g><path d="M9.400 330.866C3.600 330.866 0 333.306 0 336.266C0 339.186 2.480 341.786 8.960 341.786C16.080 341.786 18.360 339.306 18.360 336.266C18.360 333.186 13.440 330.866 9.400 330.866M4.840 333.586C5.320 332.106 6.920 331.866 8.280 331.866C11.240 331.866 13.640 335.066 13.640 337.706C13.640 337.986 13.600 338.266 13.560 338.506C13.360 339.586 12.720 340.346 11.640 340.626C11.200 340.746 10.760 340.786 10.320 340.786C9.920 340.786 9.560 340.746 9.160 340.626C8.440 340.386 7.720 339.986 7.120 339.466C6.800 339.186 6.480 338.866 6.200 338.506C5.360 337.506 4.680 336.026 4.680 334.666C4.680 334.306 4.720 333.946 4.840 333.586"></path></g></g><g><g><path d="M9.400 460.866C3.600 460.866 0 463.306 0 466.266C0 469.186 2.480 471.786 8.960 471.786C16.080 471.786 18.360 469.306 18.360 466.266C18.360 463.186 13.440 460.866 9.400 460.866M4.840 463.586C5.320 462.106 6.920 461.866 8.280 461.866C11.240 461.866 13.640 465.066 13.640 467.706C13.640 467.986 13.600 468.266 13.560 468.506C13.360 469.586 12.720 470.346 11.640 470.626C11.200 470.746 10.760 470.786 10.320 470.786C9.920 470.786 9.560 470.746 9.160 470.626C8.440 470.386 7.720 469.986 7.120 469.466C6.800 469.186 6.480 468.866 6.200 468.506C5.360 467.506 4.680 466.026 4.680 464.666C4.680 464.306 4.720 463.946 4.840 463.586"></path></g></g></g></svg>