<?xml version="1.0" encoding="UTF-8" standalone="no"?><svg xmlns="http://www.w3.org/2000/svg" height="279.4mm" viewBox="0 0 1328.6153846153845 1719.3846153846152" width="215.9mm"><g transform="translate(163.84615384615387)"><g><g><line stroke="#6A6A6A" stroke-width="1.3" x1="0" x2="404.70769230769224" y1="216.3461538461538" y2="216.3461538461538"></line><line stroke="#6A6A6A" stroke-width="1.3" x1="0" x2="404.70769230769224" y1="206.3461538461538" y2="206.3461538461538"></line><line stroke="#6A6A6A" stroke-width="1.3" x1="0" x2="404.70769230769224" y1="196.3461538461538" y2="196.3461538461538"></line><line stroke="#6A6A6A" stroke-width="1.3" x1="0" x2="404.70769230769224" y1="186.3461538461538" y2="186.3461538461538"></line><line stroke="#6A6A6A" stroke-width="1.3" x1="0" x2="404.70769230769224" y1="176.3461538461538" y2="176.3461538461538"></line></g><g><path d="M25.200 162.426C24.640 162.426 23.400 163.466 22.600 164.346C19.640 167.626 18.680 172.626 18.680 176.786C18.680 179.106 18.960 181.706 19.240 183.346C19.320 183.826 19.360 183.906 18.880 184.306C16.320 186.426 13.560 188.866 11.480 191.426C8.720 194.866 7 198.586 7 202.866C7 209.826 11.760 216.426 21.560 216.426C22.480 216.426 23.520 216.346 24.320 216.186C24.760 216.106 24.840 216.066 24.920 216.546C25.400 219.226 26 222.706 26 224.586C26 230.506 22 231.226 19.640 231.226C17.480 231.226 16.440 230.586 16.440 230.066C16.440 229.626 16.800 229.666 17.720 229.386C18.960 229.026 20.400 227.946 20.400 225.626C20.400 223.426 19 221.546 16.560 221.546C13.880 221.546 12.280 223.666 12.280 226.146C12.280 228.746 13.840 232.666 19.880 232.666C22.560 232.666 27.760 231.466 27.760 224.666C27.760 222.386 27.040 218.586 26.600 216.106C26.520 215.626 26.560 215.666 27.120 215.426C31.160 213.826 33.840 210.426 33.840 205.906C33.840 200.786 30.080 196.266 24.200 196.266C23.080 196.266 23.200 196.466 23.040 195.546L22.040 189.746C21.960 189.266 22.040 189.226 22.280 188.986C22.920 188.386 23.760 187.546 24.520 186.706C27.880 183.026 29.880 178.266 29.880 173.746C29.880 170.266 28.920 166.826 27.280 164.426C26.680 163.546 25.640 162.426 25.200 162.426M20.040 190.586C20.440 190.266 20.520 190.306 20.600 190.746L21.440 195.866C21.560 196.626 21.560 196.586 20.840 196.826C17.320 198.026 15.040 201.186 15.040 204.586C15.040 208.186 16.920 210.746 19.640 211.666C19.960 211.786 20.440 211.906 20.720 211.906C21.040 211.906 21.200 211.706 21.200 211.466C21.200 211.186 20.880 211.066 20.600 210.946C18.920 210.226 17.720 208.506 17.720 206.666C17.720 204.386 19.280 202.666 21.720 201.986C22.360 201.826 22.440 201.866 22.520 202.306L24.520 214.226C24.600 214.666 24.560 214.666 23.960 214.786C23.320 214.906 22.520 214.986 21.720 214.986C14.720 214.986 10.200 211.106 10.200 205.546C10.200 203.186 10.600 200.026 13.920 196.266C16.320 193.586 18.160 192.106 20.040 190.586M24.640 201.666C27.880 201.946 30.560 204.666 30.560 208.186C30.560 210.706 29.040 212.746 26.800 213.866C26.320 214.106 26.240 214.106 26.160 213.626L24.200 202.226C24.120 201.746 24.160 201.626 24.640 201.666M25.800 168.626C27.120 168.626 28.200 169.706 28.200 171.906C28.200 174.666 26.880 177.226 23.760 180.346C23.120 180.986 22.160 181.906 21.240 182.706C20.960 182.946 20.800 182.906 20.720 182.386C20.560 181.346 20.480 179.986 20.480 178.706C20.480 172.466 23.360 168.626 25.800 168.626"></path></g><g></g><path d="M57.820 186.306C56.620 186.306 55.220 186.626 54.140 187.106C50.580 188.666 48.700 192.946 48.700 196.746C48.700 197.106 48.700 197.466 48.740 197.826C48.940 199.986 49.980 202.026 51.300 203.626C52.820 205.466 55.020 206.306 57.420 206.306C64.420 206.306 65.460 199.946 65.460 198.786C65.460 197.906 65.020 197.906 64.860 197.906C64.540 197.906 64.260 197.946 64.260 198.626C64.260 203.786 59.860 204.986 58.580 204.986C55.340 204.986 53.620 201.826 53.620 195.226C53.620 188.626 56.660 187.266 58.820 187.266C60.900 187.266 61.740 188.226 61.740 188.626C61.740 188.986 61.620 189.506 61.020 189.506C59.420 189.506 58.500 191.226 58.500 192.466C58.500 194.746 60.460 195.466 61.580 195.466C61.580 195.466 64.620 195.346 64.620 192.026C64.620 186.786 58.580 186.306 57.820 186.306"></path></g><g><line stroke="black" stroke-width="1.6" x1="405.50769230769225" x2="405.50769230769225" y1="176.3461538461538" y2="216.3461538461538"></line></g><g><g><path d="M93.360 196.986C97.360 196.986 102.280 193.266 102.280 189.466C102.280 187.186 100.480 185.706 97.880 185.706C92.960 185.706 89 189.346 89 193.226C89 195.586 90.920 196.986 93.360 196.986"></path></g><line stroke="#000000" stroke-width="1.2" x1="89.6" x2="89.6" y1="193.18615384615381" y2="227.18615384615381"></line><path d="M98.600 195.306C99.160 196.986 99.440 198.986 99.440 200.786C99.440 203.146 98.440 206.506 97.840 207.866C96.360 211.226 94.360 214.466 89 216.266L89 225.666C89 226.146 89.200 226.266 89.440 226.266C90.200 226.266 90.520 226.026 90.600 225.386C91.280 221.586 94.240 218.106 96.280 214.946C98.800 210.986 101.240 206.226 101.240 201.226C101.240 198.106 100.440 195.266 100.120 193.986C99.800 192.706 98 193.586 98.600 195.306"></path><g><polygon fill="black" points="85.6,246.5061538461538 159.07003146162123,246.5061538461538 159.07003146162123,244.9061538461538 85.6,244.9061538461538" stroke="black" stroke-width="0"></polygon><line fill="black" stroke="black" stroke-width="1.6" x1="86.1" x2="86.1" y1="244.9061538461538" y2="238.5061538461538"></line><line fill="black" stroke="black" stroke-width="1.6" x1="158.57003146162123" x2="158.57003146162123" y1="244.9061538461538" y2="238.5061538461538"></line><g><polygon fill="white" points="110.41501573081061,239.4061538461538 110.41501573081061,254.08615384615382 134.2550157308106,254.08615384615382 134.2550157308106,239.4061538461538" stroke="white" stroke-width="0"></polygon><path d="M119.815 253.686C119.015 253.686 118.375 253.366 118.375 252.966C118.375 252.726 118.575 252.646 118.895 252.486C119.335 252.286 119.895 251.806 119.895 250.766C119.895 249.806 119.215 249.326 118.375 249.326C117.255 249.326 116.415 250.326 116.415 251.646C116.415 253.246 117.695 254.726 120.535 254.726C123.935 254.726 126.735 252.686 126.735 249.526C126.735 248.526 126.215 247.566 125.175 247.046C124.895 246.926 124.735 246.886 124.735 246.686C124.735 246.486 124.895 246.486 125.215 246.326C126.895 245.646 128.255 244.366 128.255 242.766C128.255 240.686 126.255 239.406 123.815 239.406C121.295 239.406 119.215 240.726 119.135 242.886C119.095 243.926 119.735 244.606 120.655 244.606C121.655 244.606 122.455 243.806 122.455 242.726C122.455 242.286 122.295 241.966 122.095 241.726C121.815 241.486 121.615 241.446 121.615 241.206C121.615 240.926 122.095 240.646 122.935 240.646C124.495 240.646 125.015 241.606 125.015 242.486C125.015 244.606 123.655 246.126 121.335 246.126L120.895 246.126C120.375 246.126 120.095 246.366 120.095 246.726C120.095 247.086 120.375 247.326 120.895 247.326L121.295 247.326C122.775 247.326 123.495 248.206 123.495 249.486C123.495 251.246 122.255 253.686 119.815 253.686"></path></g></g></g><g><g><path d="M126.095 196.986C130.095 196.986 135.015 193.266 135.015 189.466C135.015 187.186 133.215 185.706 130.615 185.706C125.695 185.706 121.735 189.346 121.735 193.226C121.735 195.586 123.655 196.986 126.095 196.986"></path></g><line stroke="#000000" stroke-width="1.2" x1="122.33501573081061" x2="122.33501573081061" y1="193.18615384615381" y2="228.18615384615381"></line><path d="M131.335 196.306C131.895 197.986 132.175 199.986 132.175 201.786C132.175 204.146 131.175 207.506 130.575 208.866C129.095 212.226 127.095 215.466 121.735 217.266L121.735 226.666C121.735 227.146 121.935 227.266 122.175 227.266C122.935 227.266 123.255 227.026 123.335 226.386C124.015 222.586 126.975 219.106 129.015 215.946C131.535 211.986 133.975 207.226 133.975 202.226C133.975 199.106 133.175 196.266 132.855 194.986C132.535 193.706 130.735 194.586 131.335 196.306"></path></g><g><g><path d="M158.830 196.986C162.830 196.986 167.750 193.266 167.750 189.466C167.750 187.186 165.950 185.706 163.350 185.706C158.430 185.706 154.470 189.346 154.470 193.226C154.470 195.586 156.390 196.986 158.830 196.986"></path></g><line stroke="#000000" stroke-width="1.2" x1="155.07003146162123" x2="155.07003146162123" y1="193.18615384615381" y2="227.18615384615381"></line><path d="M164.070 195.306C164.630 196.986 164.910 198.986 164.910 200.786C164.910 203.146 163.910 206.506 163.310 207.866C161.830 211.226 159.830 214.466 154.470 216.266L154.470 225.666C154.470 226.146 154.670 226.266 154.910 226.266C155.670 226.266 155.990 226.026 156.070 225.386C156.750 221.586 159.710 218.106 161.750 214.946C164.270 210.986 166.710 206.226 166.710 201.226C166.710 198.106 165.910 195.266 165.590 193.986C165.270 192.706 163.470 193.586 164.070 195.306"></path></g><g><g><path d="M191.565 196.986C195.565 196.986 200.485 193.266 200.485 189.466C200.485 187.186 198.685 185.706 196.085 185.706C191.165 185.706 187.205 189.346 187.205 193.226C187.205 195.586 189.125 196.986 191.565 196.986"></path><g><circle cx="206.48504719243184" cy="191.3461538461538" fill="#000000" r="2.4"></circle></g></g><line stroke="#000000" stroke-width="1.2" x1="187.80504719243183" x2="187.80504719243183" y1="193.18615384615381" y2="227.18615384615381"></line><g><polygon fill="black" points="183.80504719243183,246.5061538461538 336.8068106026055,246.5061538461538 336.8068106026055,244.9061538461538 183.80504719243183,244.9061538461538" stroke="black" stroke-width="0"></polygon><line fill="black" stroke="black" stroke-width="1.6" x1="184.30504719243183" x2="184.30504719243183" y1="244.9061538461538" y2="238.5061538461538"></line><line fill="black" stroke="black" stroke-width="1.6" x1="336.3068106026055" x2="336.3068106026055" y1="244.9061538461538" y2="238.5061538461538"></line><g><polygon fill="white" points="248.38592889751865,239.4061538461538 248.38592889751865,254.08615384615382 272.22592889751866,254.08615384615382 272.22592889751866,239.4061538461538" stroke="white" stroke-width="0"></polygon><path d="M257.786 253.686C256.986 253.686 256.346 253.366 256.346 252.966C256.346 252.726 256.546 252.646 256.866 252.486C257.306 252.286 257.866 251.806 257.866 250.766C257.866 249.806 257.186 249.326 256.346 249.326C255.226 249.326 254.386 250.326 254.386 251.646C254.386 253.246 255.666 254.726 258.506 254.726C261.906 254.726 264.706 252.686 264.706 249.526C264.706 248.526 264.186 247.566 263.146 247.046C262.866 246.926 262.706 246.886 262.706 246.686C262.706 246.486 262.866 246.486 263.186 246.326C264.866 245.646 266.226 244.366 266.226 242.766C266.226 240.686 264.226 239.406 261.786 239.406C259.266 239.406 257.186 240.726 257.106 242.886C257.066 243.926 257.706 244.606 258.626 244.606C259.626 244.606 260.426 243.806 260.426 242.726C260.426 242.286 260.266 241.966 260.066 241.726C259.786 241.486 259.586 241.446 259.586 241.206C259.586 240.926 260.066 240.646 260.906 240.646C262.466 240.646 262.986 241.606 262.986 242.486C262.986 244.606 261.626 246.126 259.306 246.126L258.866 246.126C258.346 246.126 258.066 246.366 258.066 246.726C258.066 247.086 258.346 247.326 258.866 247.326L259.266 247.326C260.746 247.326 261.466 248.206 261.466 249.486C261.466 251.246 260.226 253.686 257.786 253.686"></path></g></g></g><g><g><path d="M264.066 196.986C268.066 196.986 272.986 193.266 272.986 189.466C272.986 187.186 271.186 185.706 268.586 185.706C263.666 185.706 259.706 189.346 259.706 193.226C259.706 195.586 261.626 196.986 264.066 196.986"></path><g><circle cx="278.98592889751865" cy="191.3461538461538" fill="#000000" r="2.4"></circle></g></g><line stroke="#000000" stroke-width="1.2" x1="260.3059288975187" x2="260.3059288975187" y1="193.18615384615381" y2="228.18615384615381"></line></g><g><g><path d="M336.567 196.986C340.567 196.986 345.487 193.266 345.487 189.466C345.487 187.186 343.687 185.706 341.087 185.706C336.167 185.706 332.207 189.346 332.207 193.226C332.207 195.586 334.127 196.986 336.567 196.986"></path><g><circle cx="351.4868106026055" cy="191.3461538461538" fill="#000000" r="2.4"></circle></g></g><line stroke="#000000" stroke-width="1.2" x1="332.8068106026055" x2="332.8068106026055" y1="193.18615384615381" y2="227.18615384615381"></line></g></g><g transform="translate(585.1538461538462)"><g><g><line stroke="#6A6A6A" stroke-width="1.3" x1="-16.600000000000023" x2="649.6153846153844" y1="216.3461538461538" y2="216.3461538461538"></line><line stroke="#6A6A6A" stroke-width="1.3" x1="-16.600000000000023" x2="649.6153846153844" y1="206.3461538461538" y2="206.3461538461538"></line><line stroke="#6A6A6A" stroke-width="1.3" x1="-16.600000000000023" x2="649.6153846153844" y1="196.3461538461538" y2="196.3461538461538"></line><line stroke="#6A6A6A" stroke-width="1.3" x1="-16.600000000000023" x2="649.6153846153844" y1="186.3461538461538" y2="186.3461538461538"></line><line stroke="#6A6A6A" stroke-width="1.3" x1="-16.600000000000023" x2="649.6153846153844" y1="176.3461538461538" y2="176.3461538461538"></line></g></g><g><line stroke="black" stroke-width="1.6" x1="316.50769230769225" x2="316.50769230769225" y1="176.3461538461538" y2="216.3461538461538"></line></g><g><g><path d="M4.360 196.986C8.360 196.986 13.280 193.266 13.280 189.466C13.280 187.186 11.480 185.706 8.880 185.706C3.960 185.706 0 189.346 0 193.226C0 195.586 1.920 196.986 4.360 196.986"></path></g><line stroke="#000000" stroke-width="1.2" x1="0.6" x2="0.6" y1="193.18615384615381" y2="227.18615384615381"></line><path d="M9.600 195.306C10.160 196.986 10.440 198.986 10.440 200.786C10.440 203.146 9.440 206.506 8.840 207.866C7.360 211.226 5.360 214.466 0 216.266L0 225.666C0 226.146 0.200 226.266 0.440 226.266C1.200 226.266 1.520 226.026 1.600 225.386C2.280 221.586 5.240 218.106 7.280 214.946C9.800 210.986 12.240 206.226 12.240 201.226C12.240 198.106 11.440 195.266 11.120 193.986C10.800 192.706 9 193.586 9.600 195.306"></path><g><polygon fill="black" points="-3.4,246.5061538461538 70.07003146162123,246.5061538461538 70.07003146162123,244.9061538461538 -3.4,244.9061538461538" stroke="black" stroke-width="0"></polygon><line fill="black" stroke="black" stroke-width="1.6" x1="-2.9" x2="-2.9" y1="244.9061538461538" y2="238.5061538461538"></line><line fill="black" stroke="black" stroke-width="1.6" x1="69.57003146162123" x2="69.57003146162123" y1="244.9061538461538" y2="238.5061538461538"></line><g><polygon fill="white" points="21.41501573081061,239.4061538461538 21.41501573081061,254.08615384615382 45.25501573081061,254.08615384615382 45.25501573081061,239.4061538461538" stroke="white" stroke-width="0"></polygon><path d="M30.815 253.686C30.015 253.686 29.375 253.366 29.375 252.966C29.375 252.726 29.575 252.646 29.895 252.486C30.335 252.286 30.895 251.806 30.895 250.766C30.895 249.806 30.215 249.326 29.375 249.326C28.255 249.326 27.415 250.326 27.415 251.646C27.415 253.246 28.695 254.726 31.535 254.726C34.935 254.726 37.735 252.686 37.735 249.526C37.735 248.526 37.215 247.566 36.175 247.046C35.895 246.926 35.735 246.886 35.735 246.686C35.735 246.486 35.895 246.486 36.215 246.326C37.895 245.646 39.255 244.366 39.255 242.766C39.255 240.686 37.255 239.406 34.815 239.406C32.295 239.406 30.215 240.726 30.135 242.886C30.095 243.926 30.735 244.606 31.655 244.606C32.655 244.606 33.455 243.806 33.455 242.726C33.455 242.286 33.295 241.966 33.095 241.726C32.815 241.486 32.615 241.446 32.615 241.206C32.615 240.926 33.095 240.646 33.935 240.646C35.495 240.646 36.015 241.606 36.015 242.486C36.015 244.606 34.655 246.126 32.335 246.126L31.895 246.126C31.375 246.126 31.095 246.366 31.095 246.726C31.095 247.086 31.375 247.326 31.895 247.326L32.295 247.326C33.775 247.326 34.495 248.206 34.495 249.486C34.495 251.246 33.255 253.686 30.815 253.686"></path></g></g></g><g><g><path d="M37.095 196.986C41.095 196.986 46.015 193.266 46.015 189.466C46.015 187.186 44.215 185.706 41.615 185.706C36.695 185.706 32.735 189.346 32.735 193.226C32.735 195.586 34.655 196.986 37.095 196.986"></path></g><line stroke="#000000" stroke-width="1.2" x1="33.33501573081062" x2="33.33501573081062" y1="193.18615384615381" y2="228.18615384615381"></line><path d="M42.335 196.306C42.895 197.986 43.175 199.986 43.175 201.786C43.175 204.146 42.175 207.506 41.575 208.866C40.095 212.226 38.095 215.466 32.735 217.266L32.735 226.666C32.735 227.146 32.935 227.266 33.175 227.266C33.935 227.266 34.255 227.026 34.335 226.386C35.015 222.586 37.975 219.106 40.015 215.946C42.535 211.986 44.975 207.226 44.975 202.226C44.975 199.106 44.175 196.266 43.855 194.986C43.535 193.706 41.735 194.586 42.335 196.306"></path></g><g><g><path d="M69.830 196.986C73.830 196.986 78.750 193.266 78.750 189.466C78.750 187.186 76.950 185.706 74.350 185.706C69.430 185.706 65.470 189.346 65.470 193.226C65.470 195.586 67.390 196.986 69.830 196.986"></path></g><line stroke="#000000" stroke-width="1.2" x1="66.07003146162123" x2="66.07003146162123" y1="193.18615384615381" y2="227.18615384615381"></line><path d="M75.070 195.306C75.630 196.986 75.910 198.986 75.910 200.786C75.910 203.146 74.910 206.506 74.310 207.866C72.830 211.226 70.830 214.466 65.470 216.266L65.470 225.666C65.470 226.146 65.670 226.266 65.910 226.266C66.670 226.266 66.990 226.026 67.070 225.386C67.750 221.586 70.710 218.106 72.750 214.946C75.270 210.986 77.710 206.226 77.710 201.226C77.710 198.106 76.910 195.266 76.590 193.986C76.270 192.706 74.470 193.586 75.070 195.306"></path></g><g><g><path d="M102.565 196.986C106.565 196.986 111.485 193.266 111.485 189.466C111.485 187.186 109.685 185.706 107.085 185.706C102.165 185.706 98.205 189.346 98.205 193.226C98.205 195.586 100.125 196.986 102.565 196.986"></path><g><circle cx="117.48504719243185" cy="191.3461538461538" fill="#000000" r="2.4"></circle></g></g><line stroke="#000000" stroke-width="1.2" x1="98.80504719243184" x2="98.80504719243184" y1="193.18615384615381" y2="227.18615384615381"></line><g><polygon fill="black" points="94.80504719243184,246.5061538461538 247.80681060260545,246.5061538461538 247.80681060260545,244.9061538461538 94.80504719243184,244.9061538461538" stroke="black" stroke-width="0"></polygon><line fill="black" stroke="black" stroke-width="1.6" x1="95.30504719243184" x2="95.30504719243184" y1="244.9061538461538" y2="238.5061538461538"></line><line fill="black" stroke="black" stroke-width="1.6" x1="247.30681060260545" x2="247.30681060260545" y1="244.9061538461538" y2="238.5061538461538"></line><g><polygon fill="white" points="159.38592889751865,239.4061538461538 159.38592889751865,254.08615384615382 183.22592889751863,254.08615384615382 183.22592889751863,239.4061538461538" stroke="white" stroke-width="0"></polygon><path d="M168.786 253.686C167.986 253.686 167.346 253.366 167.346 252.966C167.346 252.726 167.546 252.646 167.866 252.486C168.306 252.286 168.866 251.806 168.866 250.766C168.866 249.806 168.186 249.326 167.346 249.326C166.226 249.326 165.386 250.326 165.386 251.646C165.386 253.246 166.666 254.726 169.506 254.726C172.906 254.726 175.706 252.686 175.706 249.526C175.706 248.526 175.186 247.566 174.146 247.046C173.866 246.926 173.706 246.886 173.706 246.686C173.706 246.486 173.866 246.486 174.186 246.326C175.866 245.646 177.226 244.366 177.226 242.766C177.226 240.686 175.226 239.406 172.786 239.406C170.266 239.406 168.186 240.726 168.106 242.886C168.066 243.926 168.706 244.606 169.626 244.606C170.626 244.606 171.426 243.806 171.426 242.726C171.426 242.286 171.266 241.966 171.066 241.726C170.786 241.486 170.586 241.446 170.586 241.206C170.586 240.926 171.066 240.646 171.906 240.646C173.466 240.646 173.986 241.606 173.986 242.486C173.986 244.606 172.626 246.126 170.306 246.126L169.866 246.126C169.346 246.126 169.066 246.366 169.066 246.726C169.066 247.086 169.346 247.326 169.866 247.326L170.266 247.326C171.746 247.326 172.466 248.206 172.466 249.486C172.466 251.246 171.226 253.686 168.786 253.686"></path></g></g></g><g><g><path d="M175.066 196.986C179.066 196.986 183.986 193.266 183.986 189.466C183.986 187.186 182.186 185.706 179.586 185.706C174.666 185.706 170.706 189.346 170.706 193.226C170.706 195.586 172.626 196.986 175.066 196.986"></path><g><circle cx="189.98592889751865" cy="191.3461538461538" fill="#000000" r="2.4"></circle></g></g><line stroke="#000000" stroke-width="1.2" x1="171.30592889751864" x2="171.30592889751864" y1="193.18615384615381" y2="228.18615384615381"></line></g><g><g><path d="M247.567 196.986C251.567 196.986 256.487 193.266 256.487 189.466C256.487 187.186 254.687 185.706 252.087 185.706C247.167 185.706 243.207 189.346 243.207 193.226C243.207 195.586 245.127 196.986 247.567 196.986"></path><g><circle cx="262.4868106026055" cy="191.3461538461538" fill="#000000" r="2.4"></circle></g></g><line stroke="#000000" stroke-width="1.2" x1="243.80681060260545" x2="243.80681060260545" y1="193.18615384615381" y2="227.18615384615381"></line></g></g><g transform="translate(917.4615384615386)"><g></g><g><line stroke="black" stroke-width="1.6" x1="316.50769230769225" x2="316.50769230769225" y1="176.3461538461538" y2="216.3461538461538"></line></g><g><g><path d="M4.360 196.986C8.360 196.986 13.280 193.266 13.280 189.466C13.280 187.186 11.480 185.706 8.880 185.706C3.960 185.706 0 189.346 0 193.226C0 195.586 1.920 196.986 4.360 196.986"></path></g><line stroke="#000000" stroke-width="1.2" x1="0.6" x2="0.6" y1="193.18615384615381" y2="227.18615384615381"></line><path d="M9.600 195.306C10.160 196.986 10.440 198.986 10.440 200.786C10.440 203.146 9.440 206.506 8.840 207.866C7.360 211.226 5.360 214.466 0 216.266L0 225.666C0 226.146 0.200 226.266 0.440 226.266C1.200 226.266 1.520 226.026 1.600 225.386C2.280 221.586 5.240 218.106 7.280 214.946C9.800 210.986 12.240 206.226 12.240 201.226C12.240 198.106 11.440 195.266 11.120 193.986C10.800 192.706 9 193.586 9.600 195.306"></path><g><polygon fill="black" points="-3.4,246.5061538461538 70.07003146162123,246.5061538461538 70.07003146162123,244.9061538461538 -3.4,244.9061538461538" stroke="black" stroke-width="0"></polygon><line fill="black" stroke="black" stroke-width="1.6" x1="-2.9" x2="-2.9" y1="244.9061538461538" y2="238.5061538461538"></line><line fill="black" stroke="black" stroke-width="1.6" x1="69.57003146162123" x2="69.57003146162123" y1="244.9061538461538" y2="238.5061538461538"></line><g><polygon fill="white" points="21.275015730810612,239.52615384615382 21.275015730810612,254.24615384615382 45.39501573081061,254.24615384615382 45.39501573081061,239.52615384615382" stroke="white" stroke-width="0"></polygon><path d="M28.235 254.566C28.835 254.566 29.435 254.206 30.075 254.206C30.675 254.206 31.195 254.566 31.795 254.566C32.155 254.566 32.275 254.406 32.315 254.126C32.915 251.606 33.515 249.326 35.715 246.806C37.075 245.246 38.475 243.446 39.315 240.686C39.355 240.486 39.395 240.286 39.395 240.086C39.395 239.726 39.115 239.646 38.795 239.646C38.315 239.646 38.155 239.766 37.995 240.166C37.755 240.846 37.355 241.166 36.755 241.166C35.435 241.166 34.675 239.526 32.715 239.526C31.835 239.526 31.075 239.966 30.435 240.526C30.155 240.806 30.075 240.966 29.915 240.966C29.875 240.966 29.795 240.926 29.795 240.806C29.795 240.566 29.955 240.326 29.955 240.006C29.955 239.766 29.755 239.646 29.435 239.646C29.075 239.646 28.875 239.726 28.715 240.126L27.355 244.446C27.315 244.566 27.275 244.686 27.275 244.766C27.275 245.046 27.435 245.166 27.755 245.166C28.115 245.166 28.355 245.086 28.475 244.646C28.835 243.566 29.315 242.726 30.275 242.726C31.395 242.726 32.715 243.486 34.195 243.486C34.995 243.486 35.875 243.206 36.675 242.686C36.995 242.486 37.195 242.726 36.995 243.006C35.835 244.726 34.395 245.646 32.715 247.006C30.275 248.926 28.755 251.326 27.955 253.886C27.915 253.966 27.875 254.126 27.875 254.246C27.875 254.446 27.995 254.566 28.235 254.566"></path></g></g></g><g><g><path d="M37.095 196.986C41.095 196.986 46.015 193.266 46.015 189.466C46.015 187.186 44.215 185.706 41.615 185.706C36.695 185.706 32.735 189.346 32.735 193.226C32.735 195.586 34.655 196.986 37.095 196.986"></path></g><line stroke="#000000" stroke-width="1.2" x1="33.33501573081062" x2="33.33501573081062" y1="193.18615384615381" y2="228.18615384615381"></line><path d="M42.335 196.306C42.895 197.986 43.175 199.986 43.175 201.786C43.175 204.146 42.175 207.506 41.575 208.866C40.095 212.226 38.095 215.466 32.735 217.266L32.735 226.666C32.735 227.146 32.935 227.266 33.175 227.266C33.935 227.266 34.255 227.026 34.335 226.386C35.015 222.586 37.975 219.106 40.015 215.946C42.535 211.986 44.975 207.226 44.975 202.226C44.975 199.106 44.175 196.266 43.855 194.986C43.535 193.706 41.735 194.586 42.335 196.306"></path></g><g><g><path d="M69.830 196.986C73.830 196.986 78.750 193.266 78.750 189.466C78.750 187.186 76.950 185.706 74.350 185.706C69.430 185.706 65.470 189.346 65.470 193.226C65.470 195.586 67.390 196.986 69.830 196.986"></path></g><line stroke="#000000" stroke-width="1.2" x1="66.07003146162123" x2="66.07003146162123" y1="193.18615384615381" y2="227.18615384615381"></line><path d="M75.070 195.306C75.630 196.986 75.910 198.986 75.910 200.786C75.910 203.146 74.910 206.506 74.310 207.866C72.830 211.226 70.830 214.466 65.470 216.266L65.470 225.666C65.470 226.146 65.670 226.266 65.910 226.266C66.670 226.266 66.990 226.026 67.070 225.386C67.750 221.586 70.710 218.106 72.750 214.946C75.270 210.986 77.710 206.226 77.710 201.226C77.710 198.106 76.910 195.266 76.590 193.986C76.270 192.706 74.470 193.586 75.070 195.306"></path></g><g><g><path d="M102.565 196.986C106.565 196.986 111.485 193.266 111.485 189.466C111.485 187.186 109.685 185.706 107.085 185.706C102.165 185.706 98.205 189.346 98.205 193.226C98.205 195.586 100.125 196.986 102.565 196.986"></path><g><circle cx="117.48504719243185" cy="191.3461538461538" fill="#000000" r="2.4"></circle></g></g><line stroke="#000000" stroke-width="1.2" x1="98.80504719243184" x2="98.80504719243184" y1="193.18615384615381" y2="227.18615384615381"></line><g><polygon fill="black" points="94.80504719243184,246.5061538461538 247.80681060260545,246.5061538461538 247.80681060260545,244.9061538461538 94.80504719243184,244.9061538461538" stroke="black" stroke-width="0"></polygon><line fill="black" stroke="black" stroke-width="1.6" x1="95.30504719243184" x2="95.30504719243184" y1="244.9061538461538" y2="238.5061538461538"></line><line fill="black" stroke="black" stroke-width="1.6" x1="247.30681060260545" x2="247.30681060260545" y1="244.9061538461538" y2="238.5061538461538"></line><g><polygon fill="white" points="159.24592889751864,239.52615384615382 159.24592889751864,254.24615384615382 183.36592889751864,254.24615384615382 183.36592889751864,239.52615384615382" stroke="white" stroke-width="0"></polygon><path d="M166.206 254.566C166.806 254.566 167.406 254.206 168.046 254.206C168.646 254.206 169.166 254.566 169.766 254.566C170.126 254.566 170.246 254.406 170.286 254.126C170.886 251.606 171.486 249.326 173.686 246.806C175.046 245.246 176.446 243.446 177.286 240.686C177.326 240.486 177.366 240.286 177.366 240.086C177.366 239.726 177.086 239.646 176.766 239.646C176.286 239.646 176.126 239.766 175.966 240.166C175.726 240.846 175.326 241.166 174.726 241.166C173.406 241.166 172.646 239.526 170.686 239.526C169.806 239.526 169.046 239.966 168.406 240.526C168.126 240.806 168.046 240.966 167.886 240.966C167.846 240.966 167.766 240.926 167.766 240.806C167.766 240.566 167.926 240.326 167.926 240.006C167.926 239.766 167.726 239.646 167.406 239.646C167.046 239.646 166.846 239.726 166.686 240.126L165.326 244.446C165.286 244.566 165.246 244.686 165.246 244.766C165.246 245.046 165.406 245.166 165.726 245.166C166.086 245.166 166.326 245.086 166.446 244.646C166.806 243.566 167.286 242.726 168.246 242.726C169.366 242.726 170.686 243.486 172.166 243.486C172.966 243.486 173.846 243.206 174.646 242.686C174.966 242.486 175.166 242.726 174.966 243.006C173.806 244.726 172.366 245.646 170.686 247.006C168.246 248.926 166.726 251.326 165.926 253.886C165.886 253.966 165.846 254.126 165.846 254.246C165.846 254.446 165.966 254.566 166.206 254.566"></path></g></g></g><g><g><path d="M175.066 196.986C179.066 196.986 183.986 193.266 183.986 189.466C183.986 187.186 182.186 185.706 179.586 185.706C174.666 185.706 170.706 189.346 170.706 193.226C170.706 195.586 172.626 196.986 175.066 196.986"></path><g><circle cx="189.98592889751865" cy="191.3461538461538" fill="#000000" r="2.4"></circle></g></g><line stroke="#000000" stroke-width="1.2" x1="171.30592889751864" x2="171.30592889751864" y1="193.18615384615381" y2="228.18615384615381"></line></g><g><g><path d="M247.567 196.986C251.567 196.986 256.487 193.266 256.487 189.466C256.487 187.186 254.687 185.706 252.087 185.706C247.167 185.706 243.207 189.346 243.207 193.226C243.207 195.586 245.127 196.986 247.567 196.986"></path><g><circle cx="262.4868106026055" cy="191.3461538461538" fill="#000000" r="2.4"></circle></g></g><line stroke="#000000" stroke-width="1.2" x1="243.80681060260545" x2="243.80681060260545" y1="193.18615384615381" y2="227.18615384615381"></line></g></g><g transform="translate(93.84615384615385)"><g><g><line stroke="#6A6A6A" stroke-width="1.3" x1="0" x2="936.2713602954507" y1="347.3461538461538" y2="347.3461538461538"></line><line stroke="#6A6A6A" stroke-width="1.3" x1="0" x2="936.2713602954507" y1="337.3461538461538" y2="337.3461538461538"></line><line stroke="#6A6A6A" stroke-width="1.3" x1="0" x2="936.2713602954507" y1="327.3461538461538" y2="327.3461538461538"></line><line stroke="#6A6A6A" stroke-width="1.3" x1="0" x2="936.2713602954507" y1="317.3461538461538" y2="317.3461538461538"></line><line stroke="#6A6A6A" stroke-width="1.3" x1="0" x2="936.2713602954507" y1="307.3461538461538" y2="307.3461538461538"></line></g><g><path d="M25.200 293.426C24.640 293.426 23.400 294.466 22.600 295.346C19.640 298.626 18.680 303.626 18.680 307.786C18.680 310.106 18.960 312.706 19.240 314.346C19.320 314.826 19.360 314.906 18.880 315.306C16.320 317.426 13.560 319.866 11.480 322.426C8.720 325.866 7 329.586 7 333.866C7 340.826 11.760 347.426 21.560 347.426C22.480 347.426 23.520 347.346 24.320 347.186C24.760 347.106 24.840 347.066 24.920 347.546C25.400 350.226 26 353.706 26 355.586C26 361.506 22 362.226 19.640 362.226C17.480 362.226 16.440 361.586 16.440 361.066C16.440 360.626 16.800 360.666 17.720 360.386C18.960 360.026 20.400 358.946 20.400 356.626C20.400 354.426 19 352.546 16.560 352.546C13.880 352.546 12.280 354.666 12.280 357.146C12.280 359.746 13.840 363.666 19.880 363.666C22.560 363.666 27.760 362.466 27.760 355.666C27.760 353.386 27.040 349.586 26.600 347.106C26.520 346.626 26.560 346.666 27.120 346.426C31.160 344.826 33.840 341.426 33.840 336.906C33.840 331.786 30.080 327.266 24.200 327.266C23.080 327.266 23.200 327.466 23.040 326.546L22.040 320.746C21.960 320.266 22.040 320.226 22.280 319.986C22.920 319.386 23.760 318.546 24.520 317.706C27.880 314.026 29.880 309.266 29.880 304.746C29.880 301.266 28.920 297.826 27.280 295.426C26.680 294.546 25.640 293.426 25.200 293.426M20.040 321.586C20.440 321.266 20.520 321.306 20.600 321.746L21.440 326.866C21.560 327.626 21.560 327.586 20.840 327.826C17.320 329.026 15.040 332.186 15.040 335.586C15.040 339.186 16.920 341.746 19.640 342.666C19.960 342.786 20.440 342.906 20.720 342.906C21.040 342.906 21.200 342.706 21.200 342.466C21.200 342.186 20.880 342.066 20.600 341.946C18.920 341.226 17.720 339.506 17.720 337.666C17.720 335.386 19.280 333.666 21.720 332.986C22.360 332.826 22.440 332.866 22.520 333.306L24.520 345.226C24.600 345.666 24.560 345.666 23.960 345.786C23.320 345.906 22.520 345.986 21.720 345.986C14.720 345.986 10.200 342.106 10.200 336.546C10.200 334.186 10.600 331.026 13.920 327.266C16.320 324.586 18.160 323.106 20.040 321.586M24.640 332.666C27.880 332.946 30.560 335.666 30.560 339.186C30.560 341.706 29.040 343.746 26.800 344.866C26.320 345.106 26.240 345.106 26.160 344.626L24.200 333.226C24.120 332.746 24.160 332.626 24.640 332.666M25.800 299.626C27.120 299.626 28.200 300.706 28.200 302.906C28.200 305.666 26.880 308.226 23.760 311.346C23.120 311.986 22.160 312.906 21.240 313.706C20.960 313.946 20.800 313.906 20.720 313.386C20.560 312.346 20.480 310.986 20.480 309.706C20.480 303.466 23.360 299.626 25.800 299.626"></path></g><g></g><text font-family='Alegreya' font-style='italic' text-anchor='end' stroke='#7a7a7a' font-size="24" x="0" y="297.3461538461538">4</text></g><g><line stroke="black" stroke-width="1.6" x1="479.5856801477253" x2="479.5856801477253" y1="307.3461538461538" y2="347.3461538461538"></line></g><g><g><path d="M52.860 327.986C56.860 327.986 61.780 324.266 61.780 320.466C61.780 318.186 59.980 316.706 57.380 316.706C52.460 316.706 48.500 320.346 48.500 324.226C48.500 326.586 50.420 327.986 52.860 327.986"></path></g><line stroke="#000000" stroke-width="1.2" x1="49.1" x2="49.1" y1="324.1861538461538" y2="358.1861538461538"></line><path d="M58.100 326.306C58.660 327.986 58.940 329.986 58.940 331.786C58.940 334.146 57.940 337.506 57.340 338.866C55.860 342.226 53.860 345.466 48.500 347.266L48.500 356.666C48.500 357.146 48.700 357.266 48.940 357.266C49.700 357.266 50.020 357.026 50.100 356.386C50.780 352.586 53.740 349.106 55.780 345.946C58.300 341.986 60.740 337.226 60.740 332.226C60.740 329.106 59.940 326.266 59.620 324.986C59.300 323.706 57.500 324.586 58.100 326.306"></path><g><polygon fill="black" points="45.1,377.50615384615384 143.22149415220576,377.50615384615384 143.22149415220576,375.9061538461538 45.1,375.9061538461538" stroke="black" stroke-width="0"></polygon><line fill="black" stroke="black" stroke-width="1.6" x1="45.6" x2="45.6" y1="375.9061538461538" y2="369.50615384615384"></line><line fill="black" stroke="black" stroke-width="1.6" x1="142.72149415220576" x2="142.72149415220576" y1="375.9061538461538" y2="369.50615384615384"></line><g><polygon fill="white" points="82.24074707610288,370.4061538461538 82.24074707610288,385.0861538461538 106.08074707610288,385.0861538461538 106.08074707610288,370.4061538461538" stroke="white" stroke-width="0"></polygon><path d="M91.641 384.686C90.841 384.686 90.201 384.366 90.201 383.966C90.201 383.726 90.401 383.646 90.721 383.486C91.161 383.286 91.721 382.806 91.721 381.766C91.721 380.806 91.041 380.326 90.201 380.326C89.081 380.326 88.241 381.326 88.241 382.646C88.241 384.246 89.521 385.726 92.361 385.726C95.761 385.726 98.561 383.686 98.561 380.526C98.561 379.526 98.041 378.566 97.001 378.046C96.721 377.926 96.561 377.886 96.561 377.686C96.561 377.486 96.721 377.486 97.041 377.326C98.721 376.646 100.081 375.366 100.081 373.766C100.081 371.686 98.081 370.406 95.641 370.406C93.121 370.406 91.041 371.726 90.961 373.886C90.921 374.926 91.561 375.606 92.481 375.606C93.481 375.606 94.281 374.806 94.281 373.726C94.281 373.286 94.121 372.966 93.921 372.726C93.641 372.486 93.441 372.446 93.441 372.206C93.441 371.926 93.921 371.646 94.761 371.646C96.321 371.646 96.841 372.606 96.841 373.486C96.841 375.606 95.481 377.126 93.161 377.126L92.721 377.126C92.201 377.126 91.921 377.366 91.921 377.726C91.921 378.086 92.201 378.326 92.721 378.326L93.121 378.326C94.601 378.326 95.321 379.206 95.321 380.486C95.321 382.246 94.081 384.686 91.641 384.686"></path></g></g></g><g><g><path d="M97.921 327.986C101.921 327.986 106.841 324.266 106.841 320.466C106.841 318.186 105.041 316.706 102.441 316.706C97.521 316.706 93.561 320.346 93.561 324.226C93.561 326.586 95.481 327.986 97.921 327.986"></path></g><line stroke="#000000" stroke-width="1.2" x1="94.16074707610288" x2="94.16074707610288" y1="324.1861538461538" y2="359.1861538461538"></line><path d="M103.161 327.306C103.721 328.986 104.001 330.986 104.001 332.786C104.001 335.146 103.001 338.506 102.401 339.866C100.921 343.226 98.921 346.466 93.561 348.266L93.561 357.666C93.561 358.146 93.761 358.266 94.001 358.266C94.761 358.266 95.081 358.026 95.161 357.386C95.841 353.586 98.801 350.106 100.841 346.946C103.361 342.986 105.801 338.226 105.801 333.226C105.801 330.106 105.001 327.266 104.681 325.986C104.361 324.706 102.561 325.586 103.161 327.306"></path></g><g><g><path d="M142.981 327.986C146.981 327.986 151.901 324.266 151.901 320.466C151.901 318.186 150.101 316.706 147.501 316.706C142.581 316.706 138.621 320.346 138.621 324.226C138.621 326.586 140.541 327.986 142.981 327.986"></path></g><line stroke="#000000" stroke-width="1.2" x1="139.22149415220576" x2="139.22149415220576" y1="324.1861538461538" y2="358.1861538461538"></line><path d="M148.221 326.306C148.781 327.986 149.061 329.986 149.061 331.786C149.061 334.146 148.061 337.506 147.461 338.866C145.981 342.226 143.981 345.466 138.621 347.266L138.621 356.666C138.621 357.146 138.821 357.266 139.061 357.266C139.821 357.266 140.141 357.026 140.221 356.386C140.901 352.586 143.861 349.106 145.901 345.946C148.421 341.986 150.861 337.226 150.861 332.226C150.861 329.106 150.061 326.266 149.741 324.986C149.421 323.706 147.621 324.586 148.221 326.306"></path></g><g><g><path d="M188.042 327.986C192.042 327.986 196.962 324.266 196.962 320.466C196.962 318.186 195.162 316.706 192.562 316.706C187.642 316.706 183.682 320.346 183.682 324.226C183.682 326.586 185.602 327.986 188.042 327.986"></path><g><circle cx="202.96224122830867" cy="322.3461538461538" fill="#000000" r="2.4"></circle></g></g><line stroke="#000000" stroke-width="1.2" x1="184.28224122830866" x2="184.28224122830866" y1="324.1861538461538" y2="358.1861538461538"></line><g><polygon fill="black" points="180.28224122830866,377.50615384615384 385.0178671745864,377.50615384615384 385.0178671745864,375.9061538461538 180.28224122830866,375.9061538461538" stroke="black" stroke-width="0"></polygon><line fill="black" stroke="black" stroke-width="1.6" x1="180.78224122830866" x2="180.78224122830866" y1="375.9061538461538" y2="369.50615384615384"></line><line fill="black" stroke="black" stroke-width="1.6" x1="384.5178671745864" x2="384.5178671745864" y1="375.9061538461538" y2="369.50615384615384"></line><g><polygon fill="white" points="270.7300542014475,370.4061538461538 270.7300542014475,385.0861538461538 294.57005420144753,385.0861538461538 294.57005420144753,370.4061538461538" stroke="white" stroke-width="0"></polygon><path d="M280.130 384.686C279.330 384.686 278.690 384.366 278.690 383.966C278.690 383.726 278.890 383.646 279.210 383.486C279.650 383.286 280.210 382.806 280.210 381.766C280.210 380.806 279.530 380.326 278.690 380.326C277.570 380.326 276.730 381.326 276.730 382.646C276.730 384.246 278.010 385.726 280.850 385.726C284.250 385.726 287.050 383.686 287.050 380.526C287.050 379.526 286.530 378.566 285.490 378.046C285.210 377.926 285.050 377.886 285.050 377.686C285.050 377.486 285.210 377.486 285.530 377.326C287.210 376.646 288.570 375.366 288.570 373.766C288.570 371.686 286.570 370.406 284.130 370.406C281.610 370.406 279.530 371.726 279.450 373.886C279.410 374.926 280.050 375.606 280.970 375.606C281.970 375.606 282.770 374.806 282.770 373.726C282.770 373.286 282.610 372.966 282.410 372.726C282.130 372.486 281.930 372.446 281.930 372.206C281.930 371.926 282.410 371.646 283.250 371.646C284.810 371.646 285.330 372.606 285.330 373.486C285.330 375.606 283.970 377.126 281.650 377.126L281.210 377.126C280.690 377.126 280.410 377.366 280.410 377.726C280.410 378.086 280.690 378.326 281.210 378.326L281.610 378.326C283.090 378.326 283.810 379.206 283.810 380.486C283.810 382.246 282.570 384.686 280.130 384.686"></path></g></g></g><g><g><path d="M286.410 327.986C290.410 327.986 295.330 324.266 295.330 320.466C295.330 318.186 293.530 316.706 290.930 316.706C286.010 316.706 282.050 320.346 282.050 324.226C282.050 326.586 283.970 327.986 286.410 327.986"></path><g><circle cx="301.3300542014475" cy="322.3461538461538" fill="#000000" r="2.4"></circle></g></g><line stroke="#000000" stroke-width="1.2" x1="282.6500542014476" x2="282.6500542014476" y1="324.1861538461538" y2="359.1861538461538"></line></g><g><g><path d="M384.778 327.986C388.778 327.986 393.698 324.266 393.698 320.466C393.698 318.186 391.898 316.706 389.298 316.706C384.378 316.706 380.418 320.346 380.418 324.226C380.418 326.586 382.338 327.986 384.778 327.986"></path><g><circle cx="399.69786717458635" cy="322.3461538461538" fill="#000000" r="2.4"></circle></g></g><line stroke="#000000" stroke-width="1.2" x1="381.0178671745864" x2="381.0178671745864" y1="324.1861538461538" y2="358.1861538461538"></line></g></g><g transform="translate(589.2318339938791)"><g></g><g><line stroke="#000000" stroke-width="1.6" x1="431.0856801477253" x2="431.0856801477253" y1="307.3461538461538" y2="347.3461538461538"></line><line stroke="#000000" stroke-width="5" x1="438.38568014772534" x2="438.38568014772534" y1="307.3461538461538" y2="347.3461538461538"></line></g><g><g><path d="M4.360 327.986C8.360 327.986 13.280 324.266 13.280 320.466C13.280 318.186 11.480 316.706 8.880 316.706C3.960 316.706 0 320.346 0 324.226C0 326.586 1.920 327.986 4.360 327.986"></path></g><line stroke="#000000" stroke-width="1.2" x1="0.6" x2="0.6" y1="324.1861538461538" y2="358.1861538461538"></line><path d="M9.600 326.306C10.160 327.986 10.440 329.986 10.440 331.786C10.440 334.146 9.440 337.506 8.840 338.866C7.360 342.226 5.360 345.466 0 347.266L0 356.666C0 357.146 0.200 357.266 0.440 357.266C1.200 357.266 1.520 357.026 1.600 356.386C2.280 352.586 5.240 349.106 7.280 345.946C9.800 341.986 12.240 337.226 12.240 332.226C12.240 329.106 11.440 326.266 11.120 324.986C10.800 323.706 9 324.586 9.600 326.306"></path><g><polygon fill="black" points="-3.4,377.50615384615384 94.72149415220576,377.50615384615384 94.72149415220576,375.9061538461538 -3.4,375.9061538461538" stroke="black" stroke-width="0"></polygon><line fill="black" stroke="black" stroke-width="1.6" x1="-2.9" x2="-2.9" y1="375.9061538461538" y2="369.50615384615384"></line><line fill="black" stroke="black" stroke-width="1.6" x1="94.22149415220576" x2="94.22149415220576" y1="375.9061538461538" y2="369.50615384615384"></line><g><polygon fill="white" points="33.60074707610288,370.5261538461538 33.60074707610288,385.2461538461538 57.72074707610288,385.2461538461538 57.72074707610288,370.5261538461538" stroke="white" stroke-width="0"></polygon><path d="M40.561 385.566C41.161 385.566 41.761 385.206 42.401 385.206C43.001 385.206 43.521 385.566 44.121 385.566C44.481 385.566 44.601 385.406 44.641 385.126C45.241 382.606 45.841 380.326 48.041 377.806C49.401 376.246 50.801 374.446 51.641 371.686C51.681 371.486 51.721 371.286 51.721 371.086C51.721 370.726 51.441 370.646 51.121 370.646C50.641 370.646 50.481 370.766 50.321 371.166C50.081 371.846 49.681 372.166 49.081 372.166C47.761 372.166 47.001 370.526 45.041 370.526C44.161 370.526 43.401 370.966 42.761 371.526C42.481 371.806 42.401 371.966 42.241 371.966C42.201 371.966 42.121 371.926 42.121 371.806C42.121 371.566 42.281 371.326 42.281 371.006C42.281 370.766 42.081 370.646 41.761 370.646C41.401 370.646 41.201 370.726 41.041 371.126L39.681 375.446C39.641 375.566 39.601 375.686 39.601 375.766C39.601 376.046 39.761 376.166 40.081 376.166C40.441 376.166 40.681 376.086 40.801 375.646C41.161 374.566 41.641 373.726 42.601 373.726C43.721 373.726 45.041 374.486 46.521 374.486C47.321 374.486 48.201 374.206 49.001 373.686C49.321 373.486 49.521 373.726 49.321 374.006C48.161 375.726 46.721 376.646 45.041 378.006C42.601 379.926 41.081 382.326 40.281 384.886C40.241 384.966 40.201 385.126 40.201 385.246C40.201 385.446 40.321 385.566 40.561 385.566"></path></g></g></g><g><g><path d="M49.421 327.986C53.421 327.986 58.341 324.266 58.341 320.466C58.341 318.186 56.541 316.706 53.941 316.706C49.021 316.706 45.061 320.346 45.061 324.226C45.061 326.586 46.981 327.986 49.421 327.986"></path></g><line stroke="#000000" stroke-width="1.2" x1="45.660747076102886" x2="45.660747076102886" y1="324.1861538461538" y2="359.1861538461538"></line><path d="M54.661 327.306C55.221 328.986 55.501 330.986 55.501 332.786C55.501 335.146 54.501 338.506 53.901 339.866C52.421 343.226 50.421 346.466 45.061 348.266L45.061 357.666C45.061 358.146 45.261 358.266 45.501 358.266C46.261 358.266 46.581 358.026 46.661 357.386C47.341 353.586 50.301 350.106 52.341 346.946C54.861 342.986 57.301 338.226 57.301 333.226C57.301 330.106 56.501 327.266 56.181 325.986C55.861 324.706 54.061 325.586 54.661 327.306"></path></g><g><g><path d="M94.481 327.986C98.481 327.986 103.401 324.266 103.401 320.466C103.401 318.186 101.601 316.706 99.001 316.706C94.081 316.706 90.121 320.346 90.121 324.226C90.121 326.586 92.041 327.986 94.481 327.986"></path></g><line stroke="#000000" stroke-width="1.2" x1="90.72149415220576" x2="90.72149415220576" y1="324.1861538461538" y2="358.1861538461538"></line><path d="M99.721 326.306C100.281 327.986 100.561 329.986 100.561 331.786C100.561 334.146 99.561 337.506 98.961 338.866C97.481 342.226 95.481 345.466 90.121 347.266L90.121 356.666C90.121 357.146 90.321 357.266 90.561 357.266C91.321 357.266 91.641 357.026 91.721 356.386C92.401 352.586 95.361 349.106 97.401 345.946C99.921 341.986 102.361 337.226 102.361 332.226C102.361 329.106 101.561 326.266 101.241 324.986C100.921 323.706 99.121 324.586 99.721 326.306"></path></g><g><g><path d="M139.542 327.986C143.542 327.986 148.462 324.266 148.462 320.466C148.462 318.186 146.662 316.706 144.062 316.706C139.142 316.706 135.182 320.346 135.182 324.226C135.182 326.586 137.102 327.986 139.542 327.986"></path><g><circle cx="154.46224122830867" cy="322.3461538461538" fill="#000000" r="2.4"></circle></g></g><line stroke="#000000" stroke-width="1.2" x1="135.78224122830866" x2="135.78224122830866" y1="324.1861538461538" y2="358.1861538461538"></line><g><polygon fill="black" points="131.78224122830866,377.50615384615384 336.5178671745864,377.50615384615384 336.5178671745864,375.9061538461538 131.78224122830866,375.9061538461538" stroke="black" stroke-width="0"></polygon><line fill="black" stroke="black" stroke-width="1.6" x1="132.28224122830866" x2="132.28224122830866" y1="375.9061538461538" y2="369.50615384615384"></line><line fill="black" stroke="black" stroke-width="1.6" x1="336.0178671745864" x2="336.0178671745864" y1="375.9061538461538" y2="369.50615384615384"></line><g><polygon fill="white" points="222.09005420144751,370.5261538461538 222.09005420144751,385.2461538461538 246.21005420144752,385.2461538461538 246.21005420144752,370.5261538461538" stroke="white" stroke-width="0"></polygon><path d="M229.050 385.566C229.650 385.566 230.250 385.206 230.890 385.206C231.490 385.206 232.010 385.566 232.610 385.566C232.970 385.566 233.090 385.406 233.130 385.126C233.730 382.606 234.330 380.326 236.530 377.806C237.890 376.246 239.290 374.446 240.130 371.686C240.170 371.486 240.210 371.286 240.210 371.086C240.210 370.726 239.930 370.646 239.610 370.646C239.130 370.646 238.970 370.766 238.810 371.166C238.570 371.846 238.170 372.166 237.570 372.166C236.250 372.166 235.490 370.526 233.530 370.526C232.650 370.526 231.890 370.966 231.250 371.526C230.970 371.806 230.890 371.966 230.730 371.966C230.690 371.966 230.610 371.926 230.610 371.806C230.610 371.566 230.770 371.326 230.770 371.006C230.770 370.766 230.570 370.646 230.250 370.646C229.890 370.646 229.690 370.726 229.530 371.126L228.170 375.446C228.130 375.566 228.090 375.686 228.090 375.766C228.090 376.046 228.250 376.166 228.570 376.166C228.930 376.166 229.170 376.086 229.290 375.646C229.650 374.566 230.130 373.726 231.090 373.726C232.210 373.726 233.530 374.486 235.010 374.486C235.810 374.486 236.690 374.206 237.490 373.686C237.810 373.486 238.010 373.726 237.810 374.006C236.650 375.726 235.210 376.646 233.530 378.006C231.090 379.926 229.570 382.326 228.770 384.886C228.730 384.966 228.690 385.126 228.690 385.246C228.690 385.446 228.810 385.566 229.050 385.566"></path></g></g></g><g><g><path d="M237.910 327.986C241.910 327.986 246.830 324.266 246.830 320.466C246.830 318.186 245.030 316.706 242.430 316.706C237.510 316.706 233.550 320.346 233.550 324.226C233.550 326.586 235.470 327.986 237.910 327.986"></path><g><circle cx="252.83005420144755" cy="322.3461538461538" fill="#000000" r="2.4"></circle></g></g><line stroke="#000000" stroke-width="1.2" x1="234.15005420144755" x2="234.15005420144755" y1="324.1861538461538" y2="359.1861538461538"></line></g><g><g><path d="M336.278 327.986C340.278 327.986 345.198 324.266 345.198 320.466C345.198 318.186 343.398 316.706 340.798 316.706C335.878 316.706 331.918 320.346 331.918 324.226C331.918 326.586 333.838 327.986 336.278 327.986"></path><g><circle cx="351.19786717458635" cy="322.3461538461538" fill="#000000" r="2.4"></circle></g></g><line stroke="#000000" stroke-width="1.2" x1="332.5178671745864" x2="332.5178671745864" y1="324.1861538461538" y2="358.1861538461538"></line></g></g></svg>