<svg xmlns="http://www.w3.org/2000/svg" width="860" height="620" font-family="sans-serif">
<rect width="860" height="620" fill="white"/>
<text x="430" y="28" text-anchor="middle" font-size="18" font-weight="bold">Kokoro English voices — pitch vs resonance</text>
<line x1="70" y1="560" x2="640" y2="560" stroke="#eee"/>
<text x="62" y="564" text-anchor="end" font-size="11" fill="#666">80</text>
<line x1="70" y1="484.44444444444446" x2="640" y2="484.44444444444446" stroke="#eee"/>
<text x="62" y="488.44444444444446" text-anchor="end" font-size="11" fill="#666">100</text>
<line x1="70" y1="408.8888888888889" x2="640" y2="408.8888888888889" stroke="#eee"/>
<text x="62" y="412.8888888888889" text-anchor="end" font-size="11" fill="#666">120</text>
<line x1="70" y1="333.33333333333337" x2="640" y2="333.33333333333337" stroke="#eee"/>
<text x="62" y="337.33333333333337" text-anchor="end" font-size="11" fill="#666">140</text>
<line x1="70" y1="257.77777777777777" x2="640" y2="257.77777777777777" stroke="#eee"/>
<text x="62" y="261.77777777777777" text-anchor="end" font-size="11" fill="#666">160</text>
<line x1="70" y1="182.22222222222223" x2="640" y2="182.22222222222223" stroke="#eee"/>
<text x="62" y="186.22222222222223" text-anchor="end" font-size="11" fill="#666">180</text>
<line x1="70" y1="106.66666666666666" x2="640" y2="106.66666666666666" stroke="#eee"/>
<text x="62" y="110.66666666666666" text-anchor="end" font-size="11" fill="#666">200</text>
<line x1="109.3103448275862" y1="50" x2="109.3103448275862" y2="560" stroke="#eee"/>
<text x="109.3103448275862" y="578" text-anchor="middle" font-size="11" fill="#666">400</text>
<line x1="207.58620689655174" y1="50" x2="207.58620689655174" y2="560" stroke="#eee"/>
<text x="207.58620689655174" y="578" text-anchor="middle" font-size="11" fill="#666">450</text>
<line x1="305.8620689655172" y1="50" x2="305.8620689655172" y2="560" stroke="#eee"/>
<text x="305.8620689655172" y="578" text-anchor="middle" font-size="11" fill="#666">500</text>
<line x1="404.13793103448273" y1="50" x2="404.13793103448273" y2="560" stroke="#eee"/>
<text x="404.13793103448273" y="578" text-anchor="middle" font-size="11" fill="#666">550</text>
<line x1="502.41379310344826" y1="50" x2="502.41379310344826" y2="560" stroke="#eee"/>
<text x="502.41379310344826" y="578" text-anchor="middle" font-size="11" fill="#666">600</text>
<line x1="600.6896551724137" y1="50" x2="600.6896551724137" y2="560" stroke="#eee"/>
<text x="600.6896551724137" y="578" text-anchor="middle" font-size="11" fill="#666">650</text>
<text x="355" y="604" text-anchor="middle" font-size="13">F1 — resonance (Hz) →</text>
<text x="18" y="305" text-anchor="middle" font-size="13" transform="rotate(-90 18 305)">F0 — pitch (Hz) →</text>
<circle cx="156.48275862068965" cy="548.6666666666666" r="7" fill="#2563eb" stroke="black" stroke-width="2"/>
<text x="165.48275862068965" y="552.6666666666666" font-size="10" font-weight="bold">onyx</text>
<circle cx="211.51724137931035" cy="484.44444444444446" r="4.5" fill="#2563eb" opacity="0.5"/>
<text x="220.51724137931035" y="488.44444444444446" font-size="10" fill="#777">echo</text>
<circle cx="358.9310344827586" cy="480.6666666666667" r="4.5" fill="#0d9488" opacity="0.5"/>
<text x="367.9310344827586" y="484.6666666666667" font-size="10" fill="#777">lewis</text>
<circle cx="600.6896551724137" cy="446.6666666666667" r="7" fill="#2563eb" stroke="black" stroke-width="2"/>
<text x="609.6896551724137" y="450.6666666666667" font-size="10" font-weight="bold">michael</text>
<circle cx="166.31034482758622" cy="439.1111111111111" r="4.5" fill="#2563eb" opacity="0.5"/>
<text x="175.31034482758622" y="443.1111111111111" font-size="10" fill="#777">puck</text>
<circle cx="290.1379310344828" cy="435.3333333333333" r="4.5" fill="#0d9488" opacity="0.5"/>
<text x="299.1379310344828" y="439.3333333333333" font-size="10" fill="#777">fable</text>
<circle cx="366.7931034482759" cy="427.77777777777777" r="4.5" fill="#2563eb" opacity="0.5"/>
<text x="375.7931034482759" y="431.77777777777777" font-size="10" fill="#777">adam</text>
<circle cx="298" cy="424" r="4.5" fill="#2563eb" opacity="0.5"/>
<text x="307" y="428" font-size="10" fill="#777">liam</text>
<circle cx="248.86206896551724" cy="405.1111111111111" r="4.5" fill="#0d9488" opacity="0.5"/>
<text x="257.8620689655172" y="409.1111111111111" font-size="10" fill="#777">daniel</text>
<circle cx="201.68965517241378" cy="344.66666666666663" r="4.5" fill="#e2436a" opacity="0.5"/>
<text x="210.68965517241378" y="348.66666666666663" font-size="10" fill="#777">alloy</text>
<circle cx="195.79310344827587" cy="344.66666666666663" r="7" fill="#2563eb" stroke="black" stroke-width="2"/>
<text x="204.79310344827587" y="348.66666666666663" font-size="10" font-weight="bold">fenrir</text>
<circle cx="203.6551724137931" cy="333.33333333333337" r="7" fill="#0d9488" stroke="black" stroke-width="2"/>
<text x="212.6551724137931" y="337.33333333333337" font-size="10" font-weight="bold">george</text>
<circle cx="600.6896551724137" cy="329.55555555555554" r="4.5" fill="#e2436a" opacity="0.5"/>
<text x="609.6896551724137" y="333.55555555555554" font-size="10" fill="#777">nicole</text>
<circle cx="97.51724137931035" cy="288" r="4.5" fill="#2563eb" opacity="0.5"/>
<text x="106.51724137931035" y="292" font-size="10" fill="#777">eric</text>
<circle cx="166.31034482758622" cy="272.8888888888889" r="7" fill="#e2436a" stroke="black" stroke-width="2"/>
<text x="175.31034482758622" y="276.8888888888889" font-size="10" font-weight="bold">kore</text>
<circle cx="557.4482758620691" cy="272.8888888888889" r="4.5" fill="#e2436a" opacity="0.5"/>
<text x="566.4482758620691" y="276.8888888888889" font-size="10" fill="#777">nova</text>
<circle cx="268.51724137931035" cy="254" r="4.5" fill="#2563eb" opacity="0.5"/>
<text x="277.51724137931035" y="258" font-size="10" fill="#777">santa</text>
<circle cx="378.5862068965517" cy="242.66666666666666" r="4.5" fill="#e2436a" opacity="0.5"/>
<text x="387.5862068965517" y="246.66666666666666" font-size="10" fill="#777">sky</text>
<circle cx="400.2068965517242" cy="193.55555555555557" r="7" fill="#e2436a" stroke="black" stroke-width="2"/>
<text x="409.2068965517242" y="197.55555555555557" font-size="10" font-weight="bold">sarah</text>
<circle cx="419.86206896551727" cy="189.77777777777777" r="4.5" fill="#e2436a" opacity="0.5"/>
<text x="428.86206896551727" y="193.77777777777777" font-size="10" fill="#777">river</text>
<circle cx="254.75862068965517" cy="182.22222222222223" r="7" fill="#c026d3" stroke="black" stroke-width="2"/>
<text x="263.7586206896552" y="186.22222222222223" font-size="10" font-weight="bold">emma</text>
<circle cx="396.2758620689655" cy="182.22222222222223" r="4.5" fill="#c026d3" opacity="0.5"/>
<text x="405.2758620689655" y="186.22222222222223" font-size="10" fill="#777">lily</text>
<circle cx="290.1379310344828" cy="167.11111111111111" r="4.5" fill="#e2436a" opacity="0.5"/>
<text x="299.1379310344828" y="171.11111111111111" font-size="10" fill="#777">aoede</text>
<circle cx="490.62068965517244" cy="129.33333333333331" r="7" fill="#e2436a" stroke="black" stroke-width="2"/>
<text x="499.62068965517244" y="133.33333333333331" font-size="10" font-weight="bold">heart</text>
<circle cx="323.55172413793105" cy="121.77777777777779" r="4.5" fill="#e2436a" opacity="0.5"/>
<text x="332.55172413793105" y="125.77777777777779" font-size="10" fill="#777">bella</text>
<circle cx="303.8965517241379" cy="99.11111111111111" r="4.5" fill="#c026d3" opacity="0.5"/>
<text x="312.8965517241379" y="103.11111111111111" font-size="10" fill="#777">isabella</text>
<circle cx="421.82758620689657" cy="87.77777777777777" r="4.5" fill="#e2436a" opacity="0.5"/>
<text x="430.82758620689657" y="91.77777777777777" font-size="10" fill="#777">jessica</text>
<circle cx="317.6551724137931" cy="61.333333333333336" r="4.5" fill="#c026d3" opacity="0.5"/>
<text x="326.6551724137931" y="65.33333333333334" font-size="10" fill="#777">alice</text>
<circle cx="660" cy="56" r="5" fill="#e2436a"/>
<text x="672" y="60" font-size="12">US female</text>
<circle cx="660" cy="76" r="5" fill="#c026d3"/>
<text x="672" y="80" font-size="12">GB female</text>
<circle cx="660" cy="96" r="5" fill="#2563eb"/>
<text x="672" y="100" font-size="12">US male</text>
<circle cx="660" cy="116" r="5" fill="#0d9488"/>
<text x="672" y="120" font-size="12">GB male</text>
<circle cx="660" cy="142" r="6" fill="#999" stroke="black" stroke-width="2"/>
<text x="672" y="146" font-size="12">candidate set</text>
</svg>